# Blender 4.4.0
# www.blender.org
mtllib Bld_02_Fence_Wood_Pole_01.mtl
o Bld_02_Fence_Wood_Pole_01
v -0.077505 0.000000 0.077505
v 0.077505 0.000000 0.077505
v -0.077505 0.000000 -0.077505
v 0.077505 0.000000 -0.077505
v -0.077505 1.529138 -0.077505
v -0.077505 1.529138 0.077505
v 0.077505 1.529138 0.077505
v 0.077505 1.529138 -0.077505
vn -0.0000 -0.0000 1.0000
vn -0.0000 1.0000 -0.0000
vn 1.0000 -0.0000 -0.0000
vn -0.0000 -0.0000 -1.0000
vn -1.0000 -0.0000 -0.0000
vt 0.205374 0.876323
vt 0.205369 0.894334
vt 0.205369 0.876323
vt 0.205374 0.894334
s 0
usemtl Texture_Map
f 2/1/1 6/2/1 1/3/1
f 7/4/2 5/2/2 6/2/2
f 4/1/3 7/4/3 2/1/3
f 3/3/4 8/4/4 4/1/4
f 1/3/5 5/2/5 3/3/5
f 2/1/1 7/4/1 6/2/1
f 7/4/2 8/4/2 5/2/2
f 4/1/3 8/4/3 7/4/3
f 3/3/4 5/2/4 8/4/4
f 1/3/5 6/2/5 5/2/5
