# Blender 4.4.0
# www.blender.org
mtllib Bld_Windmill_01.mtl
o Bld_Windmill_01
v 0.059647 6.398521 0.269844
v 0.243831 6.398521 0.269844
v 0.059647 6.398521 0.085660
v 0.243831 6.398521 0.085660
v 0.819647 0.000000 0.819646
v 0.819647 0.000000 1.003829
v 1.003831 0.000000 1.003829
v 1.003831 0.000000 0.819646
v -0.059648 6.398521 0.269844
v -0.243832 6.398521 0.269844
v -0.059648 6.398521 0.085660
v -0.243832 6.398521 0.085660
v -0.819648 0.000000 0.819646
v -0.819648 0.000000 1.003829
v -1.003832 0.000000 1.003829
v -1.003832 0.000000 0.819646
v 0.059647 6.398521 -0.269847
v 0.243831 6.398521 -0.269847
v 0.059647 6.398521 -0.085663
v 0.243831 6.398521 -0.085663
v 0.819647 0.000000 -0.819649
v 0.819647 0.000000 -1.003833
v 1.003831 0.000000 -1.003833
v 1.003831 0.000000 -0.819649
v -0.059648 6.398522 -0.269847
v -0.243832 6.398522 -0.269847
v -0.059648 6.398522 -0.085663
v -0.243832 6.398522 -0.085663
v -0.819648 0.000000 -0.819649
v -0.819648 0.000000 -1.003833
v -1.003832 0.000000 -1.003833
v -1.003832 0.000000 -0.819649
v 0.730128 6.398521 0.645821
v 0.730128 6.398521 -0.645824
v -0.730128 6.491917 -0.645824
v -0.730128 6.491917 0.645821
v 0.730128 6.491917 0.645821
v 0.730128 6.491917 -0.645824
v -0.523631 6.398521 0.645821
v -0.519409 6.398521 0.645821
v -0.315023 6.398521 0.645821
v -0.310801 6.398521 0.645821
v -0.106415 6.398521 0.645821
v 0.106415 6.398521 0.645821
v 0.310801 6.398521 0.645821
v 0.519409 6.398521 0.645821
v 0.523631 6.398521 0.645821
v 0.523631 6.398521 -0.645824
v 0.519409 6.398521 -0.645824
v 0.310801 6.398521 -0.645824
v 0.106415 6.398521 -0.645824
v -0.106415 6.398521 -0.645824
v -0.310801 6.398521 -0.645824
v -0.315023 6.398521 -0.645824
v -0.519409 6.398521 -0.645824
v -0.523631 6.398521 -0.645824
v -0.523631 6.491917 0.645821
v -0.310801 6.491917 0.645821
v -0.102193 6.491917 0.645821
v -0.106415 6.491917 0.645821
v 0.106415 6.491917 0.645821
v 0.102193 6.491917 0.645821
v 0.315023 6.491917 0.645821
v 0.310801 6.491917 0.645821
v 0.519409 6.491917 0.645821
v 0.519409 6.491917 -0.645824
v 0.310801 6.491917 -0.645824
v 0.315023 6.491917 -0.645824
v 0.102193 6.491917 -0.645824
v 0.106415 6.491917 -0.645824
v -0.106415 6.491917 -0.645824
v -0.102193 6.491917 -0.645824
v -0.310801 6.491917 -0.645824
v -0.523631 6.491917 -0.645824
v -0.730128 6.414015 0.645821
v -0.714634 6.398521 0.645821
v -0.714634 6.398521 -0.645824
v -0.730128 6.414015 -0.645824
v -0.102193 6.414015 0.645821
v -0.086699 6.398521 0.645821
v 0.086699 6.398521 0.645821
v 0.102193 6.414015 0.645821
v 0.315023 6.414015 0.645821
v 0.330517 6.398521 0.645821
v 0.330517 6.398521 -0.645824
v 0.315023 6.414015 -0.645824
v 0.102193 6.414015 -0.645824
v 0.086699 6.398521 -0.645824
v -0.086699 6.398521 -0.645824
v -0.102193 6.414015 -0.645824
v -0.503915 6.491917 0.645821
v -0.519409 6.476423 0.645821
v -0.315023 6.476423 0.645821
v -0.330517 6.491917 0.645821
v 0.539125 6.491917 0.645821
v 0.523631 6.476423 0.645821
v 0.523631 6.476423 -0.645824
v 0.539125 6.491917 -0.645824
v -0.330517 6.491917 -0.645824
v -0.315023 6.476423 -0.645824
v -0.519409 6.476423 -0.645824
v -0.503915 6.491917 -0.645824
v 0.402719 6.364144 0.673048
v 0.582389 6.364144 0.673048
v 0.402719 6.364144 -0.673051
v 0.582389 6.364144 -0.673051
v 0.402719 6.398521 -0.673051
v 0.402719 6.398521 0.673048
v 0.582389 6.398521 0.673048
v 0.582389 6.398521 -0.673051
v -0.402719 6.364144 0.673048
v -0.582389 6.364144 0.673048
v -0.402719 6.364144 -0.673051
v -0.582389 6.364144 -0.673051
v -0.402719 6.398521 -0.673051
v -0.402719 6.398521 0.673048
v -0.582389 6.398521 0.673048
v -0.582389 6.398521 -0.673051
v 1.003832 0.000000 0.993075
v 1.003832 0.000000 0.821712
v 0.900431 0.870541 0.728802
v 0.900431 0.870541 0.900165
v 1.079358 0.000000 0.993075
v 1.079358 0.000000 0.821712
v 0.975958 0.877544 0.728802
v 0.975958 0.877544 0.900165
v -1.003832 0.000000 0.993075
v -1.003832 0.000000 0.821712
v -0.900431 0.870541 0.728803
v -0.900431 0.870541 0.900165
v -1.079358 0.000000 0.993075
v -1.079358 0.000000 0.821712
v -0.975958 0.877544 0.728803
v -0.975958 0.877544 0.900165
v 1.003832 0.000000 -0.993078
v 1.003832 0.000000 -0.821715
v 0.900431 0.870541 -0.728805
v 0.900431 0.870541 -0.900168
v 1.079358 0.000000 -0.993078
v 1.079358 0.000000 -0.821715
v 0.975958 0.877544 -0.728805
v 0.975958 0.877544 -0.900168
v -1.003831 0.000000 -0.993078
v -1.003831 0.000000 -0.821715
v -0.900431 0.870541 -0.728805
v -0.900431 0.870541 -0.900168
v -1.079358 0.000000 -0.993078
v -1.079358 0.000000 -0.821715
v -0.975958 0.877544 -0.728805
v -0.975958 0.877544 -0.900168
v 0.445644 4.684359 0.473040
v 0.284549 4.677594 0.467951
v -0.594800 1.855043 0.791034
v -0.782419 1.856040 0.790921
v 0.446793 4.689537 0.490206
v 0.285697 4.682772 0.488968
v -0.593651 1.860221 0.820662
v -0.781271 1.861217 0.824594
v -0.444402 4.683742 0.472080
v -0.289802 4.677594 0.466991
v 0.594800 1.855043 0.790074
v 0.777165 1.856040 0.789961
v -0.445550 4.688920 0.498546
v -0.290951 4.682772 0.497308
v 0.593651 1.860221 0.829002
v 0.776017 1.861217 0.832934
v 0.445644 4.684359 -0.473043
v 0.284549 4.677594 -0.467954
v -0.594800 1.855043 -0.791037
v -0.782419 1.856040 -0.790924
v 0.446793 4.689537 -0.490209
v 0.285697 4.682772 -0.488971
v -0.593651 1.860221 -0.820664
v -0.781271 1.861217 -0.824597
v -0.444402 4.683742 -0.472083
v -0.289802 4.677594 -0.466994
v 0.594800 1.855043 -0.790077
v 0.777165 1.856040 -0.789964
v -0.445550 4.688920 -0.498549
v -0.290951 4.682772 -0.497311
v 0.593651 1.860221 -0.829005
v 0.776017 1.861217 -0.832937
v -0.797756 1.734971 0.842609
v 0.797702 1.734971 0.842609
v -0.782501 1.863404 0.842609
v 0.782501 1.863404 0.842609
v -0.797756 1.734971 0.804807
v 0.797702 1.734971 0.804807
v -0.782501 1.863404 0.790075
v 0.782501 1.863404 0.790075
v -0.782604 1.863404 0.784097
v -0.782604 1.863404 -0.784103
v -0.797660 1.734971 0.798716
v -0.797660 1.734971 -0.798722
v -0.842611 1.863404 0.784097
v -0.842611 1.863404 -0.784103
v -0.842611 1.734971 0.798716
v -0.842611 1.734971 -0.798722
v 0.842611 1.734971 0.798717
v 0.842611 1.734971 -0.798721
v 0.842611 1.863404 0.784098
v 0.842611 1.863404 -0.784102
v 0.797660 1.734971 0.798717
v 0.797660 1.734971 -0.798721
v 0.782604 1.863404 0.784098
v 0.782604 1.863404 -0.784102
v -0.782501 1.863404 -0.790080
v 0.782501 1.863404 -0.790080
v -0.797702 1.734971 -0.804811
v 0.797756 1.734971 -0.804812
v -0.782501 1.863404 -0.842613
v 0.782501 1.863404 -0.842613
v -0.797702 1.734971 -0.842613
v 0.797756 1.734971 -0.842613
v 0.473042 4.684452 -0.455733
v 0.467952 4.677594 -0.284550
v 0.791036 1.855043 0.594798
v 0.790923 1.856040 0.782417
v 0.490207 4.689630 -0.456882
v 0.488969 4.682772 -0.285699
v 0.820663 1.860221 0.593650
v 0.824595 1.861217 0.781269
v 0.472081 4.684452 0.455729
v 0.466992 4.677594 0.289800
v 0.790076 1.855043 -0.594802
v 0.789962 1.856040 -0.777167
v 0.498547 4.689630 0.456878
v 0.497310 4.682772 0.290949
v 0.829003 1.860221 -0.593653
v 0.832936 1.861217 -0.776019
v -0.473042 4.684452 -0.455733
v -0.467952 4.677593 -0.284550
v -0.791036 1.855043 0.594798
v -0.790923 1.856040 0.782417
v -0.490207 4.689630 -0.456882
v -0.488969 4.682772 -0.285699
v -0.820663 1.860221 0.593650
v -0.824595 1.861217 0.781269
v -0.472081 4.684452 0.455729
v -0.466992 4.677594 0.289800
v -0.790076 1.855043 -0.594802
v -0.789962 1.856040 -0.777167
v -0.498548 4.689630 0.456878
v -0.497310 4.682772 0.290949
v -0.829003 1.860221 -0.593653
v -0.832936 1.861217 -0.776019
v -0.264182 6.491917 0.264180
v 0.264182 6.491917 0.264180
v -0.264182 6.491917 -0.264183
v 0.264182 6.491917 -0.264183
v -0.080301 7.513246 -0.080302
v -0.080301 7.513246 0.080299
v 0.080301 7.513246 0.080299
v 0.080301 7.513246 -0.080302
v 0.227245 6.695573 -0.227247
v 0.227245 6.695573 0.227244
v -0.227246 6.695573 0.227244
v -0.227246 6.695573 -0.227247
v -0.281110 6.491917 0.264180
v 0.281110 6.491917 0.264180
v -0.281110 6.491917 -0.264183
v 0.281110 6.491917 -0.264183
v 0.246305 6.690374 -0.228068
v 0.246305 6.690374 0.228065
v -0.246305 6.690374 0.228065
v -0.246305 6.690374 -0.228068
v 0.228067 6.690374 -0.228069
v 0.228067 6.690374 0.228065
v -0.228067 6.690374 0.228065
v -0.228067 6.690374 -0.228069
v -0.281110 6.491917 0.290833
v 0.281110 6.491917 0.290833
v 0.281110 6.491917 -0.290836
v -0.281110 6.491917 -0.290836
v 0.246305 6.695225 0.254718
v -0.246305 6.695225 -0.254721
v 0.246305 6.695225 -0.254721
v -0.246305 6.695225 0.254718
v -0.290834 6.491917 -0.264184
v -0.290834 6.491917 0.264180
v 0.290834 6.491917 0.264180
v 0.290834 6.491917 -0.264184
v 0.254719 6.690374 0.228065
v -0.254719 6.690374 -0.228069
v 0.254719 6.690374 -0.228069
v -0.254719 6.690374 0.228065
v -0.449993 4.678460 0.517062
v 0.449991 4.678460 0.517062
v -0.433751 4.806893 0.517062
v 0.433750 4.806893 0.517062
v -0.448145 4.678460 0.467764
v 0.448143 4.678460 0.467764
v -0.432891 4.806893 0.453111
v 0.432890 4.806893 0.453111
v 0.500965 4.678460 0.464684
v 0.500965 4.678460 -0.464695
v 0.500965 4.806893 0.449151
v 0.500965 4.806893 -0.449154
v 0.448061 4.678460 0.462840
v 0.448061 4.678460 -0.462844
v 0.432881 4.806893 0.448252
v 0.432881 4.806893 -0.448248
v 0.449992 4.678460 -0.517066
v -0.449992 4.678460 -0.517066
v 0.433751 4.806893 -0.517066
v -0.433751 4.806893 -0.517066
v 0.448145 4.678460 -0.467768
v -0.448143 4.678460 -0.467768
v 0.432891 4.806893 -0.453115
v -0.432890 4.806893 -0.453115
v -0.500965 4.678460 -0.464688
v -0.500965 4.678460 0.464692
v -0.500965 4.806893 -0.449154
v -0.500965 4.806893 0.449151
v -0.448061 4.678460 -0.462844
v -0.448061 4.678460 0.462840
v -0.432881 4.806893 -0.448256
v -0.432881 4.806893 0.448244
vn -0.0000 1.0000 -0.0000
vn 0.9930 0.1179 -0.0000
vn -0.9930 -0.1179 -0.0000
vn -0.0000 -0.1140 -0.9935
vn -0.0000 0.1140 0.9935
vn -0.9930 0.1179 -0.0000
vn 0.9930 -0.1179 -0.0000
vn -0.0000 -0.1140 0.9935
vn -0.0000 0.1140 -0.9935
vn -0.0000 -0.0000 -1.0000
vn 1.0000 -0.0000 -0.0000
vn -0.0000 -0.0000 1.0000
vn -0.0000 -1.0000 -0.0000
vn -1.0000 -0.0000 -0.0000
vn -0.7071 -0.7071 -0.0000
vn -0.7071 0.7071 -0.0000
vn 0.7071 0.7071 -0.0000
vn 0.7071 -0.7071 -0.0000
vn 0.9931 0.1170 -0.0000
vn -0.0097 0.1050 0.9944
vn -0.0923 0.9957 -0.0000
vn -0.0000 -0.1053 -0.9944
vn -0.9931 0.1170 -0.0000
vn 0.0097 0.1050 0.9944
vn 0.0923 0.9957 -0.0000
vn -0.0097 -0.1050 -0.9944
vn -0.0097 0.1050 -0.9944
vn 0.0097 -0.1050 0.9944
vn 0.0097 0.1050 -0.9944
vn -0.0000 -0.1053 0.9944
vn 0.0366 -0.1249 -0.9915
vn -0.0127 0.1206 0.9926
vn 0.9391 -0.3427 0.0235
vn -0.9360 0.3514 -0.0221
vn -0.0376 -0.1253 -0.9914
vn 0.0127 0.1206 0.9926
vn -0.9393 -0.3420 0.0261
vn 0.9359 0.3519 -0.0174
vn 0.0366 -0.1249 0.9915
vn -0.0127 0.1206 -0.9926
vn 0.9393 -0.3408 -0.0399
vn -0.9360 0.3514 0.0221
vn -0.0376 -0.1253 0.9914
vn 0.0127 0.1206 -0.9926
vn -0.9392 -0.3430 -0.0179
vn 0.9359 0.3519 0.0174
vn 0.9931 0.1175 -0.0000
vn -0.9930 0.1180 -0.0000
vn -0.0000 0.1131 -0.9936
vn -0.0000 0.1131 0.9936
vn 0.9932 -0.1164 -0.0000
vn -0.9932 -0.1164 -0.0000
vn 0.9930 0.1180 -0.0000
vn -0.9931 0.1175 -0.0000
vn -0.9917 -0.1242 -0.0345
vn 0.9927 0.1204 0.0120
vn 0.0240 -0.3456 -0.9381
vn -0.0221 0.3514 0.9360
vn -0.9916 -0.1246 0.0356
vn 0.9926 0.1205 -0.0124
vn 0.0268 -0.3452 0.9381
vn -0.0174 0.3519 -0.9359
vn 0.9917 -0.1242 -0.0345
vn -0.9927 0.1204 0.0120
vn -0.0409 -0.3436 -0.9382
vn 0.0221 0.3514 0.9360
vn 0.9916 -0.1246 0.0356
vn -0.9926 0.1205 -0.0124
vn -0.0184 -0.3462 0.9380
vn 0.0174 0.3519 -0.9359
vn 0.9842 0.1769 -0.0000
vn -0.9842 0.1769 -0.0000
vn -0.0000 0.1769 -0.9842
vn -0.0000 0.1769 0.9842
vn -0.0000 0.1785 0.9839
vn -0.0000 0.1785 -0.9839
vn -0.9839 0.1785 -0.0000
vn 0.9839 0.1785 -0.0000
vn -0.0000 0.1749 0.9846
vn -0.0000 0.1749 -0.9846
vn -0.9838 0.1790 -0.0000
vn 0.9838 0.1790 -0.0000
vn 0.9857 0.1687 -0.0000
vn -0.0000 0.1790 0.9838
vn -0.9857 0.1687 -0.0000
vn -0.0000 0.1790 -0.9838
vn 0.9854 0.1673 0.0304
vn -0.9854 0.1673 -0.0304
vn -0.0000 0.9838 -0.1790
vn -0.0000 0.9838 0.1791
vn -0.0000 -0.1134 -0.9936
vn 0.9914 0.1254 -0.0372
vn -0.9914 0.1254 -0.0372
vn -0.9931 -0.1174 -0.0000
vn -0.0347 0.1201 -0.9922
vn -0.0346 0.1200 0.9922
vn -0.0000 -0.1134 0.9936
vn -0.9914 0.1254 0.0372
vn 0.9914 0.1254 0.0372
vn 0.9931 -0.1174 -0.0000
vn 0.0347 0.1201 0.9922
vn 0.0346 0.1200 -0.9922
vn -0.0000 0.1053 0.9944
vn 0.0097 -0.1050 -0.9944
vn -0.0000 0.1053 -0.9944
vn -0.0097 -0.1050 0.9944
vn -0.0000 -0.1137 -0.9935
vn 0.0214 0.1101 0.9937
vn 0.9393 -0.3408 0.0399
vn -0.9362 0.3498 -0.0350
vn -0.0220 0.1099 0.9937
vn -0.9392 -0.3430 0.0179
vn 0.9360 0.3510 -0.0245
vn -0.0000 -0.1137 0.9935
vn 0.0214 0.1101 -0.9937
vn 0.9391 -0.3427 -0.0235
vn -0.9362 0.3498 0.0350
vn -0.0220 0.1099 -0.9937
vn -0.9393 -0.3420 -0.0261
vn 0.9360 0.3510 0.0245
vn -0.9935 -0.1137 -0.0000
vn 0.9937 0.1101 -0.0214
vn 0.0409 -0.3436 -0.9382
vn -0.0350 0.3498 0.9362
vn 0.9937 0.1099 0.0220
vn 0.0184 -0.3462 0.9380
vn -0.0245 0.3510 -0.9360
vn 0.9935 -0.1137 -0.0000
vn -0.9937 0.1101 -0.0214
vn -0.0240 -0.3456 -0.9381
vn 0.0350 0.3498 0.9362
vn -0.9937 0.1099 0.0220
vn -0.0268 -0.3452 0.9381
vn 0.0245 0.3510 -0.9360
vn 0.9854 0.1673 -0.0304
vn -0.9854 0.1673 0.0304
vn -0.0000 0.9838 -0.1791
vn 0.9931 0.1164 -0.0134
vn -0.9931 0.1164 -0.0134
vn -0.0132 0.1114 -0.9937
vn -0.0131 0.1113 0.9937
vn -0.9931 0.1164 0.0134
vn 0.9931 0.1164 0.0134
vn 0.0132 0.1114 0.9937
vn 0.0131 0.1113 -0.9937
vt 0.072642 0.989275
vt 0.073120 0.989275
vt 0.071216 0.899531
vt 0.070738 0.899531
vt 0.073565 0.989275
vt 0.074042 0.989275
vt 0.075468 0.899531
vt 0.075946 0.899531
vt 0.232555 0.938815
vt 0.232709 0.938815
vt 0.232541 0.850569
vt 0.233652 0.850569
vt 0.233652 0.938815
vt 0.236931 0.822487
vt 0.237101 0.910733
vt 0.236917 0.910733
vt 0.233469 0.850569
vt 0.232723 0.850569
vt 0.237475 0.910733
vt 0.237643 0.822487
vt 0.237657 0.910733
vt 0.233098 0.850569
vt 0.233279 0.850569
vt 0.237860 0.822487
vt 0.238028 0.910733
vt 0.237847 0.910733
vt 0.233469 0.924176
vt 0.233483 0.938815
vt 0.237489 0.822487
vt 0.233279 0.938815
vt 0.232541 0.924176
vt 0.237290 0.822487
vt 0.237472 0.910733
vt 0.237472 0.822487
vt 0.237475 0.837127
vt 0.237290 0.910733
vt 0.233098 0.938815
vt 0.232723 0.924176
vt 0.237657 0.837127
vt 0.238028 0.822487
vt 0.237847 0.837127
vt 0.237101 0.822487
vt 0.236917 0.837127
vt 0.216088 0.810819
vt 0.219879 0.810819
vt 0.219879 0.875441
vt 0.216088 0.875441
vt 0.215984 0.810819
vt 0.219775 0.810819
vt 0.219775 0.875441
vt 0.215984 0.875441
vt 0.078543 0.883462
vt 0.078746 0.871154
vt 0.078987 0.883462
vt 0.078302 0.871154
vt 0.078543 0.883364
vt 0.078987 0.883364
vt 0.083213 0.883462
vt 0.083009 0.871154
vt 0.083454 0.871154
vt 0.083213 0.883364
vt 0.082768 0.883462
vt 0.082768 0.883364
vt 0.198748 0.808216
vt 0.197327 0.863030
vt 0.197067 0.863161
vt 0.197326 0.863130
vt 0.198747 0.808316
vt 0.197065 0.863261
vt 0.199050 0.808336
vt 0.199052 0.808235
vt 0.198256 0.863030
vt 0.196826 0.808216
vt 0.198505 0.863149
vt 0.196828 0.808316
vt 0.198257 0.863130
vt 0.198507 0.863249
vt 0.196533 0.808336
vt 0.196531 0.808235
vt 0.199050 0.808336
vt 0.196533 0.808336
vt 0.196498 0.805884
vt 0.199052 0.808378
vt 0.199076 0.805884
vt 0.196523 0.808378
vt 0.194754 0.812066
vt 0.199382 0.812066
vt 0.199425 0.809643
vt 0.194711 0.809643
vt 0.196498 0.805884
vt 0.199076 0.805884
vt 0.195313 0.811908
vt 0.197908 0.865144
vt 0.198413 0.865273
vt 0.197911 0.865242
vt 0.195316 0.812006
vt 0.198416 0.865371
vt 0.194762 0.812025
vt 0.194759 0.811927
vt 0.196213 0.865144
vt 0.198824 0.811908
vt 0.195723 0.865273
vt 0.198820 0.812006
vt 0.196209 0.865242
vt 0.195720 0.865371
vt 0.199358 0.812025
vt 0.199362 0.811927
vt 0.197908 0.865144
vt 0.093618 0.908663
vt 0.101826 0.908663
vt 0.101252 0.925299
vt 0.098969 0.992092
vt 0.094191 0.925299
vt 0.096474 0.992092
vt 0.102089 0.908663
vt 0.093895 0.925270
vt 0.093355 0.908663
vt 0.101548 0.925270
vt 0.093204 0.908663
vt 0.093765 0.924874
vt 0.102240 0.908663
vt 0.101679 0.924874
vt 0.101265 0.924874
vt 0.094179 0.924874
vt 0.101548 0.924874
vt 0.093895 0.924874
vt 0.197060 0.863046
vt 0.198488 0.865540
vt 0.198514 0.863046
vt 0.198487 0.865540
vt 0.197063 0.863046
vt 0.198511 0.863046
vt 0.197086 0.865540
vt 0.197088 0.865540
vt 0.195697 0.865160
vt 0.198394 0.867583
vt 0.195742 0.867583
vt 0.195702 0.865160
vt 0.198391 0.867583
vt 0.198434 0.865160
vt 0.198440 0.865160
vt 0.198440 0.865160
vt 0.198434 0.865160
vt 0.195745 0.867583
vt 0.195697 0.865160
vt 0.195745 0.867583
vt 0.198391 0.867583
s 0
usemtl Texture_Map
f 2/1/1 3/2/1 1/1/1
f 2/1/2 8/3/2 4/2/2
f 5/3/3 1/1/3 3/2/3
f 4/2/4 5/3/4 3/2/4
f 6/4/5 2/1/5 1/1/5
f 11/2/1 10/1/1 9/1/1
f 10/1/6 16/3/6 15/4/6
f 9/1/7 13/3/7 11/2/7
f 12/2/4 13/3/4 16/3/4
f 10/1/5 14/4/5 9/1/5
f 19/5/1 18/6/1 17/6/1
f 18/6/2 24/7/2 23/8/2
f 17/6/3 21/7/3 19/5/3
f 20/5/8 21/7/8 24/7/8
f 18/6/9 22/8/9 17/6/9
f 26/6/1 27/5/1 25/6/1
f 26/6/6 32/7/6 28/5/6
f 29/7/7 25/6/7 27/5/7
f 28/5/8 29/7/8 27/5/8
f 30/8/9 26/6/9 25/6/9
f 102/9/10 99/10/10 55/11/10
f 34/12/11 37/13/11 33/12/11
f 76/14/12 57/15/12 36/16/12
f 57/15/1 35/16/1 36/16/1
f 48/17/13 33/12/13 47/17/13
f 55/11/13 41/18/13 40/11/13
f 77/14/10 35/16/10 74/15/10
f 59/19/12 81/20/12 62/21/12
f 51/22/13 45/23/13 44/22/13
f 84/24/12 65/25/12 63/26/12
f 48/17/10 97/27/10 98/28/10
f 69/21/10 89/29/10 72/19/10
f 51/22/10 67/30/10 50/23/10
f 92/31/14 55/11/14 40/11/14
f 53/32/10 71/33/10 52/34/10
f 59/19/14 90/35/14 79/35/14
f 94/10/12 91/9/12 41/18/12
f 60/33/1 73/36/1 58/36/1
f 62/21/1 72/19/1 59/19/1
f 64/30/1 70/37/1 61/37/1
f 65/25/1 68/26/1 63/26/1
f 33/12/12 37/13/12 95/28/12
f 41/18/11 100/38/11 93/38/11
f 53/32/13 43/34/13 42/32/13
f 43/34/12 58/36/12 42/32/12
f 82/39/11 69/21/11 62/21/11
f 45/23/12 61/37/12 44/22/12
f 85/24/10 68/26/10 66/25/10
f 46/40/11 66/25/11 65/25/11
f 37/13/1 98/28/1 95/28/1
f 45/23/11 67/30/11 64/30/11
f 85/24/13 46/40/13 84/24/13
f 63/26/14 86/41/14 83/41/14
f 61/37/14 51/22/14 44/22/14
f 43/34/11 71/33/11 60/33/11
f 89/29/13 81/20/13 80/29/13
f 96/27/14 48/17/14 47/17/14
f 58/36/14 53/32/14 42/32/14
f 39/42/11 74/15/11 57/15/11
f 94/10/1 102/9/1 91/9/1
f 75/43/14 35/16/14 78/43/14
f 76/14/15 78/43/15 77/14/15
f 102/9/16 92/31/16 91/9/16
f 94/10/17 100/38/17 99/10/17
f 98/28/16 96/27/16 95/28/16
f 80/29/15 90/35/15 89/29/15
f 88/20/18 82/39/18 81/20/18
f 84/24/15 86/41/15 85/24/15
f 77/14/13 39/42/13 76/14/13
f 105/44/13 104/45/13 103/44/13
f 109/46/1 107/47/1 108/47/1
f 106/45/11 109/46/11 104/45/11
f 103/44/14 107/47/14 105/44/14
f 105/44/10 110/46/10 106/45/10
f 104/45/12 108/47/12 103/44/12
f 112/48/13 113/49/13 111/49/13
f 115/50/1 117/51/1 116/50/1
f 117/51/14 114/48/14 112/48/14
f 115/50/11 111/49/11 113/49/11
f 118/51/10 113/49/10 114/48/10
f 116/50/12 112/48/12 111/49/12
f 126/52/19 124/53/19 125/54/19
f 119/55/20 126/52/20 122/56/20
f 122/56/21 125/54/21 121/57/21
f 120/53/22 125/54/22 124/53/22
f 134/52/23 132/53/23 131/55/23
f 134/52/24 127/55/24 130/56/24
f 133/54/25 130/56/25 129/57/25
f 128/53/26 133/54/26 129/57/26
f 142/58/19 140/59/19 139/60/19
f 142/58/27 135/60/27 138/61/27
f 141/62/21 138/61/21 137/63/21
f 136/59/28 141/62/28 137/63/28
f 150/58/23 148/59/23 149/62/23
f 143/60/29 150/58/29 146/61/29
f 146/61/25 149/62/25 145/63/25
f 144/59/30 149/62/30 148/59/30
f 153/64/31 152/65/31 151/66/31
f 156/67/32 157/68/32 155/69/32
f 151/66/33 157/68/33 153/64/33
f 158/70/34 152/65/34 154/71/34
f 160/72/35 161/73/35 159/74/35
f 165/75/36 164/76/36 163/77/36
f 159/74/37 165/75/37 163/77/37
f 160/72/38 166/78/38 162/79/38
f 168/65/39 169/64/39 167/66/39
f 173/68/40 172/67/40 171/69/40
f 167/66/41 173/68/41 171/69/41
f 168/65/42 174/80/42 170/71/42
f 177/73/43 176/72/43 175/74/43
f 180/76/44 181/75/44 179/77/44
f 175/74/45 181/75/45 177/73/45
f 182/81/46 176/72/46 178/79/46
f 184/82/12 185/83/12 183/84/12
f 189/83/4 188/82/4 187/84/4
f 188/82/47 186/85/47 184/82/47
f 187/84/13 184/82/13 183/84/13
f 185/83/48 187/84/48 183/84/48
f 190/85/1 185/83/1 186/85/1
f 191/86/1 196/87/1 195/86/1
f 196/87/49 194/88/49 198/88/49
f 194/88/13 197/89/13 198/88/13
f 193/89/50 195/86/50 197/89/50
f 192/87/51 193/89/51 194/88/51
f 197/89/14 196/87/14 198/88/14
f 200/88/11 201/86/11 199/89/11
f 205/86/52 204/88/52 203/89/52
f 204/88/49 202/87/49 200/88/49
f 203/89/13 200/88/13 199/89/13
f 201/86/50 203/89/50 199/89/50
f 206/87/1 201/86/1 202/87/1
f 207/83/1 212/85/1 211/83/1
f 212/85/53 210/90/53 214/90/53
f 210/90/13 213/91/13 214/90/13
f 209/91/54 211/83/54 213/91/54
f 208/85/8 209/91/8 210/90/8
f 213/91/10 212/85/10 214/90/10
f 217/92/55 216/93/55 215/94/55
f 220/95/56 221/96/56 219/97/56
f 215/94/57 221/96/57 217/92/57
f 222/98/58 216/93/58 218/99/58
f 224/100/59 225/101/59 223/102/59
f 229/103/60 228/104/60 227/105/60
f 223/102/61 229/103/61 227/105/61
f 224/100/62 230/106/62 226/107/62
f 232/108/63 233/92/63 231/94/63
f 237/96/64 236/95/64 235/97/64
f 231/94/65 237/96/65 235/97/65
f 232/108/66 238/98/66 234/99/66
f 241/101/67 240/100/67 239/102/67
f 244/104/68 245/103/68 243/105/68
f 239/102/69 245/103/69 241/101/69
f 246/106/70 240/100/70 242/107/70
f 249/109/13 248/110/13 247/109/13
f 256/111/71 254/112/71 253/112/71
f 257/113/72 251/114/72 258/113/72
f 255/111/73 251/114/73 254/112/73
f 256/111/74 252/114/74 257/113/74
f 248/110/75 257/113/75 247/109/75
f 249/109/76 255/111/76 250/110/76
f 247/109/77 258/113/77 249/109/77
f 250/110/78 256/111/78 248/110/78
f 272/115/79 278/116/79 271/117/79
f 274/117/80 277/118/80 273/115/80
f 280/119/81 284/120/81 279/119/81
f 282/121/82 283/122/82 281/121/82
f 260/115/83 275/118/83 272/115/83
f 248/110/84 283/122/84 268/123/84
f 261/117/85 276/116/85 274/117/85
f 249/109/86 284/120/86 270/124/86
f 262/115/87 277/118/87 263/125/87
f 250/110/86 285/122/86 282/121/86
f 259/117/88 278/116/88 265/126/88
f 247/109/84 286/120/84 280/119/84
f 265/126/89 275/118/89 264/125/89
f 270/124/1 286/120/1 269/124/1
f 263/125/90 276/116/90 266/126/90
f 260/115/13 271/117/13 259/117/13
f 268/123/1 285/122/1 267/123/1
f 261/117/13 273/115/13 262/115/13
f 288/127/12 289/128/12 287/129/12
f 293/130/91 292/131/91 291/132/91
f 292/131/92 290/133/92 288/127/92
f 291/132/13 288/127/13 287/129/13
f 289/128/93 291/132/93 287/129/93
f 294/134/1 289/128/1 290/133/1
f 295/135/11 298/136/11 297/137/11
f 299/138/94 302/139/94 300/140/94
f 300/140/95 298/136/95 296/141/95
f 295/135/13 300/140/13 296/141/13
f 297/137/96 299/138/96 295/135/96
f 302/139/1 297/137/1 298/136/1
f 304/129/10 305/133/10 303/127/10
f 309/134/97 308/132/97 307/131/97
f 308/132/98 306/128/98 304/129/98
f 303/127/13 308/132/13 304/129/13
f 305/133/99 307/131/99 303/127/99
f 310/130/1 305/133/1 306/128/1
f 311/142/14 314/137/14 313/136/14
f 315/143/100 318/144/100 316/138/100
f 316/138/101 314/137/101 312/145/101
f 311/142/13 316/138/13 312/145/13
f 313/136/102 315/143/102 311/142/102
f 318/144/1 313/136/1 314/137/1
f 2/1/1 4/2/1 3/2/1
f 2/1/2 7/4/2 8/3/2
f 5/3/3 6/4/3 1/1/3
f 4/2/4 8/3/4 5/3/4
f 6/4/5 7/4/5 2/1/5
f 11/2/1 12/2/1 10/1/1
f 10/1/6 12/2/6 16/3/6
f 9/1/7 14/4/7 13/3/7
f 12/2/4 11/2/4 13/3/4
f 10/1/5 15/4/5 14/4/5
f 19/5/1 20/5/1 18/6/1
f 18/6/2 20/5/2 24/7/2
f 17/6/3 22/8/3 21/7/3
f 20/5/8 19/5/8 21/7/8
f 18/6/9 23/8/9 22/8/9
f 26/6/1 28/5/1 27/5/1
f 26/6/6 31/8/6 32/7/6
f 29/7/7 30/8/7 25/6/7
f 28/5/8 32/7/8 29/7/8
f 30/8/9 31/8/9 26/6/9
f 100/38/10 54/18/10 99/10/10
f 54/18/10 55/11/10 99/10/10
f 55/11/10 101/31/10 102/9/10
f 34/12/11 38/13/11 37/13/11
f 36/16/12 75/43/12 76/14/12
f 76/14/12 39/42/12 57/15/12
f 57/15/1 74/15/1 35/16/1
f 48/17/13 34/12/13 33/12/13
f 55/11/13 54/18/13 41/18/13
f 74/15/10 56/42/10 77/14/10
f 77/14/10 78/43/10 35/16/10
f 59/19/12 79/35/12 80/29/12
f 80/29/12 81/20/12 59/19/12
f 81/20/12 82/39/12 62/21/12
f 51/22/13 50/23/13 45/23/13
f 63/26/12 83/41/12 84/24/12
f 84/24/12 46/40/12 65/25/12
f 38/13/10 34/12/10 98/28/10
f 34/12/10 48/17/10 98/28/10
f 69/21/10 87/39/10 88/20/10
f 88/20/10 89/29/10 69/21/10
f 89/29/10 90/35/10 72/19/10
f 51/22/10 70/37/10 67/30/10
f 92/31/14 101/31/14 55/11/14
f 53/32/10 73/36/10 71/33/10
f 59/19/14 72/19/14 90/35/14
f 92/31/12 40/11/12 91/9/12
f 40/11/12 41/18/12 91/9/12
f 41/18/12 93/38/12 94/10/12
f 60/33/1 71/33/1 73/36/1
f 62/21/1 69/21/1 72/19/1
f 64/30/1 67/30/1 70/37/1
f 65/25/1 66/25/1 68/26/1
f 96/27/12 47/17/12 95/28/12
f 47/17/12 33/12/12 95/28/12
f 41/18/11 54/18/11 100/38/11
f 53/32/13 52/34/13 43/34/13
f 43/34/12 60/33/12 58/36/12
f 82/39/11 87/39/11 69/21/11
f 45/23/12 64/30/12 61/37/12
f 66/25/10 49/40/10 85/24/10
f 85/24/10 86/41/10 68/26/10
f 46/40/11 49/40/11 66/25/11
f 37/13/1 38/13/1 98/28/1
f 45/23/11 50/23/11 67/30/11
f 85/24/13 49/40/13 46/40/13
f 63/26/14 68/26/14 86/41/14
f 61/37/14 70/37/14 51/22/14
f 43/34/11 52/34/11 71/33/11
f 89/29/13 88/20/13 81/20/13
f 96/27/14 97/27/14 48/17/14
f 58/36/14 73/36/14 53/32/14
f 39/42/11 56/42/11 74/15/11
f 94/10/1 99/10/1 102/9/1
f 75/43/14 36/16/14 35/16/14
f 76/14/15 75/43/15 78/43/15
f 102/9/16 101/31/16 92/31/16
f 94/10/17 93/38/17 100/38/17
f 98/28/16 97/27/16 96/27/16
f 80/29/15 79/35/15 90/35/15
f 88/20/18 87/39/18 82/39/18
f 84/24/15 83/41/15 86/41/15
f 77/14/13 56/42/13 39/42/13
f 105/44/13 106/45/13 104/45/13
f 109/46/1 110/46/1 107/47/1
f 106/45/11 110/46/11 109/46/11
f 103/44/14 108/47/14 107/47/14
f 105/44/10 107/47/10 110/46/10
f 104/45/12 109/46/12 108/47/12
f 112/48/13 114/48/13 113/49/13
f 115/50/1 118/51/1 117/51/1
f 117/51/14 118/51/14 114/48/14
f 115/50/11 116/50/11 111/49/11
f 118/51/10 115/50/10 113/49/10
f 116/50/12 117/51/12 112/48/12
f 126/52/19 123/55/19 124/53/19
f 119/55/103 123/55/103 126/52/103
f 122/56/21 126/52/21 125/54/21
f 120/53/104 121/57/104 125/54/104
f 134/52/23 133/54/23 132/53/23
f 134/52/103 131/55/103 127/55/103
f 133/54/25 134/52/25 130/56/25
f 128/53/22 132/53/22 133/54/22
f 142/58/19 141/62/19 140/59/19
f 142/58/105 139/60/105 135/60/105
f 141/62/21 142/58/21 138/61/21
f 136/59/30 140/59/30 141/62/30
f 150/58/23 147/60/23 148/59/23
f 143/60/105 147/60/105 150/58/105
f 146/61/25 150/58/25 149/62/25
f 144/59/106 145/63/106 149/62/106
f 153/64/107 154/71/107 152/65/107
f 156/67/108 158/70/108 157/68/108
f 151/66/109 155/69/109 157/68/109
f 158/70/110 156/67/110 152/65/110
f 160/72/107 162/79/107 161/73/107
f 165/75/111 166/78/111 164/76/111
f 159/74/112 161/73/112 165/75/112
f 160/72/113 164/76/113 166/78/113
f 168/65/114 170/71/114 169/64/114
f 173/68/115 174/80/115 172/67/115
f 167/66/116 169/64/116 173/68/116
f 168/65/117 172/67/117 174/80/117
f 177/73/114 178/79/114 176/72/114
f 180/76/118 182/81/118 181/75/118
f 175/74/119 179/77/119 181/75/119
f 182/81/120 180/76/120 176/72/120
f 184/82/12 186/85/12 185/83/12
f 189/83/4 190/85/4 188/82/4
f 188/82/47 190/85/47 186/85/47
f 187/84/13 188/82/13 184/82/13
f 185/83/48 189/83/48 187/84/48
f 190/85/1 189/83/1 185/83/1
f 191/86/1 192/87/1 196/87/1
f 196/87/49 192/87/49 194/88/49
f 194/88/13 193/89/13 197/89/13
f 193/89/50 191/86/50 195/86/50
f 192/87/51 191/86/51 193/89/51
f 197/89/14 195/86/14 196/87/14
f 200/88/11 202/87/11 201/86/11
f 205/86/52 206/87/52 204/88/52
f 204/88/49 206/87/49 202/87/49
f 203/89/13 204/88/13 200/88/13
f 201/86/50 205/86/50 203/89/50
f 206/87/1 205/86/1 201/86/1
f 207/83/1 208/85/1 212/85/1
f 212/85/53 208/85/53 210/90/53
f 210/90/13 209/91/13 213/91/13
f 209/91/54 207/83/54 211/83/54
f 208/85/8 207/83/8 209/91/8
f 213/91/10 211/83/10 212/85/10
f 217/92/121 218/99/121 216/93/121
f 220/95/122 222/98/122 221/96/122
f 215/94/123 219/97/123 221/96/123
f 222/98/124 220/95/124 216/93/124
f 224/100/121 226/107/121 225/101/121
f 229/103/125 230/106/125 228/104/125
f 223/102/126 225/101/126 229/103/126
f 224/100/127 228/104/127 230/106/127
f 232/108/128 234/99/128 233/92/128
f 237/96/129 238/98/129 236/95/129
f 231/94/130 233/92/130 237/96/130
f 232/108/131 236/95/131 238/98/131
f 241/101/128 242/107/128 240/100/128
f 244/104/132 246/106/132 245/103/132
f 239/102/133 243/105/133 245/103/133
f 246/106/134 244/104/134 240/100/134
f 249/109/13 250/110/13 248/110/13
f 256/111/71 255/111/71 254/112/71
f 257/113/72 252/114/72 251/114/72
f 255/111/73 258/113/73 251/114/73
f 256/111/74 253/112/74 252/114/74
f 248/110/75 256/111/75 257/113/75
f 249/109/76 258/113/76 255/111/76
f 247/109/77 257/113/77 258/113/77
f 250/110/78 255/111/78 256/111/78
f 272/115/79 275/118/79 278/116/79
f 274/117/80 276/116/80 277/118/80
f 280/119/81 286/120/81 284/120/81
f 282/121/82 285/122/82 283/122/82
f 260/115/135 264/125/135 275/118/135
f 248/110/84 281/121/84 283/122/84
f 261/117/136 266/126/136 276/116/136
f 249/109/86 279/119/86 284/120/86
f 262/115/83 273/115/83 277/118/83
f 250/110/86 267/123/86 285/122/86
f 259/117/85 271/117/85 278/116/85
f 247/109/84 269/124/84 286/120/84
f 265/126/137 278/116/137 275/118/137
f 270/124/1 284/120/1 286/120/1
f 263/125/90 277/118/90 276/116/90
f 260/115/13 272/115/13 271/117/13
f 268/123/1 283/122/1 285/122/1
f 261/117/13 274/117/13 273/115/13
f 288/127/12 290/133/12 289/128/12
f 293/130/91 294/134/91 292/131/91
f 292/131/138 294/134/138 290/133/138
f 291/132/13 292/131/13 288/127/13
f 289/128/139 293/130/139 291/132/139
f 294/134/1 293/130/1 289/128/1
f 295/135/11 296/141/11 298/136/11
f 299/138/94 301/146/94 302/139/94
f 300/140/140 302/139/140 298/136/140
f 295/135/13 299/138/13 300/140/13
f 297/137/141 301/146/141 299/138/141
f 302/139/1 301/146/1 297/137/1
f 304/129/10 306/128/10 305/133/10
f 309/134/97 310/130/97 308/132/97
f 308/132/142 310/130/142 306/128/142
f 303/127/13 307/131/13 308/132/13
f 305/133/143 309/134/143 307/131/143
f 310/130/1 309/134/1 305/133/1
f 311/142/14 312/145/14 314/137/14
f 315/143/100 317/147/100 318/144/100
f 316/138/144 318/144/144 314/137/144
f 311/142/13 315/143/13 316/138/13
f 313/136/145 317/147/145 315/143/145
f 318/144/1 317/147/1 313/136/1
o Bld_Windmill_Fan_01
v 0.167289 8.541298 0.660914
v -0.174794 8.539804 0.660914
v -0.490266 8.407516 0.660914
v -0.731099 8.164572 0.660914
v -0.860630 7.847958 0.660914
v -0.859137 7.505875 0.660914
v -0.726849 7.190403 0.660914
v -0.483904 6.949569 0.660914
v -0.167290 6.820038 0.660914
v 0.174793 6.821531 0.660914
v 0.490265 6.953819 0.660914
v 0.731099 7.196764 0.660914
v 0.860629 7.513379 0.660914
v 0.859137 7.855462 0.660914
v 0.726848 8.170934 0.660914
v 0.483904 8.411767 0.660914
v 0.167289 8.541298 0.718334
v -0.174794 8.539804 0.718334
v -0.490266 8.407516 0.718334
v -0.731099 8.164572 0.718334
v -0.860630 7.847958 0.718334
v -0.859137 7.505875 0.718334
v -0.726849 7.190403 0.718334
v -0.483904 6.949569 0.718334
v -0.167290 6.820038 0.718334
v 0.174793 6.821531 0.718334
v 0.490265 6.953819 0.718334
v 0.731099 7.196764 0.718334
v 0.860629 7.513379 0.718334
v 0.859137 7.855462 0.718334
v 0.726848 8.170934 0.718334
v 0.483904 8.411767 0.718334
v -0.169907 8.515786 0.660914
v 0.162612 8.517238 0.660914
v -0.476560 8.387197 0.660914
v -0.710660 8.151044 0.660914
v -0.836570 7.843281 0.660914
v -0.835119 7.510761 0.660914
v -0.706529 7.204109 0.660914
v -0.470376 6.970008 0.660914
v -0.162613 6.844099 0.660914
v 0.169907 6.845550 0.660914
v 0.476559 6.974140 0.660914
v 0.710660 7.210292 0.660914
v 0.836569 7.518055 0.660914
v 0.835118 7.850575 0.660914
v 0.706528 8.157228 0.660914
v 0.470375 8.391328 0.660914
v -0.169907 8.515786 0.718334
v 0.162612 8.517238 0.718334
v -0.476560 8.387197 0.718334
v -0.710660 8.151044 0.718334
v -0.836570 7.843281 0.718334
v -0.835119 7.510761 0.718334
v -0.706529 7.204109 0.718334
v -0.470376 6.970008 0.718334
v -0.162613 6.844099 0.718334
v 0.169907 6.845550 0.718334
v 0.476559 6.974140 0.718334
v 0.710660 7.210292 0.718334
v 0.836569 7.518055 0.718334
v 0.835118 7.850575 0.718334
v 0.706528 8.157228 0.718334
v 0.470375 8.391328 0.718334
v 0.062748 8.003489 0.667862
v -0.065567 8.002930 0.667862
v -0.183901 7.953308 0.667862
v -0.274238 7.862180 0.667862
v -0.322825 7.743417 0.667862
v -0.322265 7.615102 0.667862
v -0.272643 7.496768 0.667862
v -0.181515 7.406431 0.667862
v -0.062752 7.357844 0.667862
v 0.065563 7.358404 0.667862
v 0.183897 7.408026 0.667862
v 0.274234 7.499154 0.667862
v 0.322821 7.617917 0.667862
v 0.322261 7.746232 0.667862
v 0.272639 7.864566 0.667862
v 0.181511 7.954903 0.667862
v 0.062748 8.003489 0.711388
v -0.065567 8.002930 0.711388
v -0.183901 7.953308 0.711388
v -0.274238 7.862180 0.711388
v -0.322825 7.743417 0.711388
v -0.322265 7.615102 0.711388
v -0.272643 7.496768 0.711388
v -0.181515 7.406431 0.711388
v -0.062752 7.357844 0.711388
v 0.065563 7.358404 0.711388
v 0.183897 7.408026 0.711388
v 0.274234 7.499154 0.711388
v 0.322821 7.617917 0.711388
v 0.322261 7.746232 0.711388
v 0.272639 7.864566 0.711388
v 0.181511 7.954903 0.711388
v -0.062571 7.988205 0.667862
v 0.059881 7.988740 0.667862
v -0.175498 7.940851 0.667862
v -0.261708 7.853886 0.667862
v -0.308075 7.740550 0.667862
v -0.307541 7.618097 0.667862
v -0.260186 7.505170 0.667862
v -0.173221 7.418961 0.667862
v -0.059885 7.372594 0.667862
v 0.062568 7.373128 0.667862
v 0.175495 7.420483 0.667862
v 0.261704 7.507448 0.667862
v 0.308071 7.620784 0.667862
v 0.307537 7.743237 0.667862
v 0.260182 7.856164 0.667862
v 0.173217 7.942373 0.667862
v -0.062571 7.988205 0.711388
v 0.059881 7.988740 0.711388
v -0.175498 7.940851 0.711388
v -0.261708 7.853886 0.711388
v -0.308075 7.740550 0.711388
v -0.307541 7.618097 0.711388
v -0.260186 7.505170 0.711388
v -0.173221 7.418961 0.711388
v -0.059885 7.372594 0.711388
v 0.062568 7.373128 0.711388
v 0.175495 7.420483 0.711388
v 0.261704 7.507448 0.711388
v 0.308071 7.620784 0.711388
v 0.307537 7.743237 0.711388
v 0.260182 7.856164 0.711388
v 0.173217 7.942373 0.711388
v 0.046272 7.991719 0.704116
v -0.042145 7.992954 0.671146
v -0.184494 8.822160 0.617689
v 0.208430 8.816669 0.764205
v 0.019807 8.819415 0.669925
v 0.008961 7.992336 0.669134
v 0.164267 7.948828 0.704116
v 0.083379 7.984553 0.671146
v 0.276757 8.803364 0.617689
v 0.636220 8.644601 0.764205
v 0.463702 8.720916 0.669925
v 0.130171 7.963993 0.669134
v 0.253831 7.866310 0.704116
v 0.192582 7.930088 0.671146
v 0.682548 8.614031 0.617689
v 0.954739 8.330604 0.764205
v 0.824152 8.466740 0.669925
v 0.228053 7.893291 0.669134
v 0.306437 7.751306 0.704116
v 0.275265 7.834054 0.671146
v 0.995040 8.269678 0.617689
v 1.133569 7.901944 0.764205
v 1.067171 8.078514 0.669925
v 0.293373 7.786260 0.669134
v 0.310773 7.632566 0.704116
v 0.312528 7.720974 0.671146
v 1.142556 7.858447 0.617689
v 1.134757 7.465562 0.764205
v 1.138610 7.654165 0.669925
v 0.311610 7.669873 0.669133
v 0.268100 7.516300 0.704116
v 0.303855 7.597175 0.671146
v 1.122593 7.403498 0.617689
v 0.963699 7.044093 0.764205
v 1.040077 7.216582 0.669925
v 0.283276 7.550391 0.669133
v 0.183628 7.425374 0.704116
v 0.247889 7.486116 0.671146
v 0.927934 6.990755 0.617689
v 0.642362 6.720815 0.764205
v 0.779527 6.850321 0.669924
v 0.210813 7.450937 0.669133
v 0.069088 7.373875 0.704116
v 0.151994 7.404629 0.671146
v 0.583976 6.682663 0.617689
v 0.215546 6.545993 0.764205
v 0.392450 6.611499 0.669924
v 0.104108 7.386763 0.669133
v -0.049990 7.370191 0.704116
v 0.038406 7.367898 0.671146
v 0.170833 6.537051 0.617689
v -0.221997 6.547237 0.764205
v -0.033421 6.542238 0.669924
v -0.012689 7.369127 0.669133
v -0.163012 7.411739 0.704116
v -0.081958 7.376393 0.671146
v -0.271500 6.556687 0.617689
v -0.631702 6.713765 0.764205
v -0.458830 6.638259 0.669924
v -0.128846 7.396735 0.669133
v -0.251354 7.491679 0.704116
v -0.189266 7.428718 0.671146
v -0.670133 6.738349 0.617689
v -0.946053 7.018148 0.764205
v -0.813675 6.883752 0.669924
v -0.225221 7.465042 0.669133
v -0.305231 7.604974 0.704116
v -0.272695 7.522751 0.671146
v -0.985173 7.075293 0.617689
v -1.129760 7.440688 0.764205
v -1.060452 7.265239 0.669925
v -0.291590 7.570240 0.669133
v -0.310537 7.730283 0.704116
v -0.312723 7.641884 0.671146
v -1.143411 7.508461 0.617689
v -1.133696 7.901303 0.764205
v -1.138469 7.712721 0.669925
v -0.311556 7.692981 0.669133
v -0.271927 7.838625 0.704116
v -0.305753 7.756925 0.671146
v -1.128856 7.931120 0.617689
v -0.978535 8.294193 0.764205
v -1.050799 8.119941 0.669925
v -0.286291 7.804184 0.669134
v -0.186902 7.933575 0.704116
v -0.250375 7.872009 0.671146
v -0.936741 8.358574 0.617689
v -0.654668 8.632169 0.764205
v -0.790155 8.500907 0.669925
v -0.213755 7.907663 0.669134
v -0.071596 7.986883 0.704116
v -0.154248 7.955452 0.671146
v -0.592117 8.673863 0.617689
v -0.224817 8.813540 0.764205
v -0.401179 8.746591 0.669925
v -0.106510 7.973709 0.669134
v 0.017203 8.819541 0.676913
v 0.204690 8.816811 0.770657
v 0.006670 7.992447 0.675282
v -0.043371 7.993049 0.677593
v 0.042981 7.991843 0.709792
v -0.185887 8.822268 0.625015
v 0.461355 8.722051 0.676913
v 0.632832 8.646194 0.770657
v 0.128106 7.964991 0.675282
v 0.082288 7.985121 0.677593
v 0.161286 7.950230 0.709792
v 0.275517 8.804008 0.625015
v 0.822412 8.468681 0.676913
v 0.952211 8.333364 0.770656
v 0.226522 7.895000 0.675282
v 0.191788 7.931027 0.677593
v 0.251607 7.868739 0.709792
v 0.681646 8.615099 0.625015
v 1.066336 8.080984 0.676913
v 1.132333 7.905477 0.770656
v 0.292638 7.788433 0.675282
v 0.274905 7.835230 0.677593
v 0.305350 7.754415 0.709792
v 0.994632 8.271015 0.625015
v 1.138752 7.656768 0.676913
v 1.134920 7.469302 0.770656
v 0.311735 7.672163 0.675282
v 0.312630 7.722199 0.677593
v 0.310917 7.635857 0.709792
v 1.142672 7.859839 0.625015
v 1.041213 7.218929 0.676913
v 0.965294 7.047480 0.770656
v 0.284276 7.552456 0.675282
v 0.304422 7.598266 0.677593
v 0.269503 7.519280 0.709792
v 1.123238 7.404737 0.625015
v 0.781482 6.852046 0.676913
v 0.645142 6.723321 0.770656
v 0.212533 7.452455 0.675282
v 0.248834 7.486903 0.677593
v 0.186075 7.427579 0.709792
v 0.929008 6.991649 0.625015
v 0.394924 6.612321 0.676913
v 0.219086 6.547212 0.770656
v 0.106285 7.387486 0.675282
v 0.153171 7.404983 0.677593
v 0.072203 7.374948 0.709792
v 0.585314 6.683064 0.625015
v -0.030819 6.542080 0.676913
v -0.218259 6.547051 0.770656
v -0.010399 7.368989 0.675282
v 0.039631 7.367788 0.677593
v -0.046700 7.370027 0.709792
v 0.172225 6.536926 0.625015
v -0.456478 6.637135 0.676913
v -0.628308 6.712188 0.770656
v -0.126776 7.395746 0.675282
v -0.080865 7.375831 0.677593
v -0.160025 7.410352 0.709792
v -0.270257 6.556049 0.625015
v -0.811910 6.881834 0.676913
v -0.943488 7.015421 0.770656
v -0.223667 7.463354 0.675282
v -0.188459 7.427789 0.677593
v -0.249097 7.489280 0.709792
v -0.669217 6.737293 0.625015
v -1.059577 7.262783 0.676913
v -1.128466 7.437176 0.770656
v -0.290820 7.568079 0.675282
v -0.272316 7.521582 0.677593
v -0.304092 7.601883 0.709792
v -0.984742 7.073964 0.625015
v -1.138624 7.710119 0.676913
v -1.133877 7.897564 0.770656
v -0.311692 7.690691 0.675282
v -0.312832 7.640659 0.677593
v -0.310697 7.726993 0.709792
v -1.143534 7.507070 0.625015
v -1.051879 8.117568 0.676913
v -0.980049 8.290770 0.770656
v -0.287241 7.802096 0.675282
v -0.306294 7.755821 0.677593
v -0.273259 7.835613 0.709792
v -1.129472 7.929865 0.625015
v -0.792088 8.499158 0.676913
v -0.657416 8.629626 0.770657
v -0.215456 7.906124 0.675282
v -0.251311 7.871211 0.677593
v -0.189320 7.931338 0.709792
v -0.937804 8.357667 0.625015
v -0.403647 8.745749 0.676913
v -0.228346 8.812293 0.770657
v -0.108681 7.972969 0.675282
v -0.155422 7.955090 0.677593
v -0.074702 7.985785 0.709792
v -0.593452 8.673450 0.625015
v 0.011030 6.832672 0.663265
v 0.004007 7.665714 0.683027
v 0.021723 6.832672 0.673773
v 0.007891 7.665714 0.686844
v 0.021854 6.832672 0.688765
v 0.007939 7.665714 0.692291
v 0.011345 6.832672 0.699458
v 0.004121 7.665714 0.696175
v -0.003646 6.832672 0.699589
v -0.001325 7.665714 0.696223
v -0.014339 6.832672 0.689081
v -0.005210 7.665714 0.692405
v -0.014470 6.832672 0.674089
v -0.005257 7.665714 0.686959
v -0.003962 6.832672 0.663396
v -0.001440 7.665714 0.683074
v -0.011031 8.528661 0.663266
v -0.004008 7.695620 0.683027
v -0.021724 8.528661 0.673774
v -0.007893 7.695620 0.686844
v -0.021855 8.528661 0.688765
v -0.007940 7.695620 0.692291
v -0.011347 8.528661 0.699458
v -0.004123 7.695620 0.696175
v 0.003645 8.528661 0.699589
v 0.001324 7.695620 0.696223
v 0.014338 8.528661 0.689081
v 0.005208 7.695620 0.692405
v 0.014469 8.528661 0.674089
v 0.005256 7.695620 0.686959
v 0.003960 8.528661 0.663396
v 0.001438 7.695620 0.683074
v -0.847995 7.669636 0.663265
v -0.014953 7.676660 0.683027
v -0.847995 7.658943 0.673774
v -0.014953 7.672775 0.686844
v -0.847995 7.658812 0.688765
v -0.014953 7.672727 0.692291
v -0.847995 7.669320 0.699458
v -0.014953 7.676545 0.696175
v -0.847995 7.684311 0.699589
v -0.014953 7.681991 0.696223
v -0.847995 7.695004 0.689081
v -0.014953 7.685876 0.692405
v -0.847995 7.695135 0.674089
v -0.014953 7.685924 0.686959
v -0.847995 7.684627 0.663396
v -0.014953 7.682106 0.683074
v 0.847994 7.691696 0.663265
v 0.014952 7.684674 0.683027
v 0.847994 7.702389 0.673774
v 0.014952 7.688559 0.686844
v 0.847993 7.702520 0.688765
v 0.014952 7.688606 0.692291
v 0.847994 7.692012 0.699458
v 0.014952 7.684789 0.696175
v 0.847994 7.677021 0.699589
v 0.014952 7.679343 0.696223
v 0.847994 7.666327 0.689081
v 0.014952 7.675458 0.692405
v 0.847994 7.666197 0.674089
v 0.014952 7.675410 0.686959
v 0.847994 7.676705 0.663396
v 0.014952 7.679228 0.683074
v -0.607423 8.272489 0.663266
v -0.013407 7.688406 0.683027
v -0.614984 8.264928 0.673774
v -0.016154 7.685659 0.686844
v -0.615077 8.264835 0.688765
v -0.016188 7.685626 0.692291
v -0.607646 8.272265 0.699458
v -0.013489 7.688325 0.696175
v -0.597046 8.282866 0.699589
v -0.009637 7.692176 0.696223
v -0.589485 8.290427 0.689081
v -0.006890 7.694923 0.692405
v -0.589392 8.290520 0.674089
v -0.006857 7.694957 0.686959
v -0.596822 8.283090 0.663396
v -0.009556 7.692257 0.683074
v 0.607421 7.088843 0.663265
v 0.013406 7.672927 0.683027
v 0.614983 7.096404 0.673773
v 0.016153 7.675674 0.686844
v 0.615075 7.096497 0.688765
v 0.016186 7.675708 0.692291
v 0.607645 7.089067 0.699458
v 0.013487 7.673008 0.696175
v 0.597044 7.078466 0.699589
v 0.009636 7.669158 0.696223
v 0.589483 7.070905 0.689081
v 0.006889 7.666410 0.692405
v 0.589390 7.070812 0.674089
v 0.006855 7.666377 0.686959
v 0.596821 7.078242 0.663396
v 0.009555 7.669076 0.683074
v 0.591822 8.288088 0.663266
v 0.007739 7.694074 0.683027
v 0.584261 8.295650 0.673774
v 0.004992 7.696821 0.686844
v 0.584168 8.295742 0.688765
v 0.004958 7.696854 0.692291
v 0.591599 8.288311 0.699458
v 0.007658 7.694155 0.696175
v 0.602199 8.277711 0.699589
v 0.011509 7.690303 0.696223
v 0.609761 8.270149 0.689081
v 0.014256 7.687557 0.692405
v 0.609853 8.270058 0.674090
v 0.014289 7.687523 0.686959
v 0.602423 8.277488 0.663396
v 0.011590 7.690222 0.683074
v -0.591824 7.073244 0.663265
v -0.007740 7.667260 0.683027
v -0.584263 7.065683 0.673774
v -0.004993 7.664513 0.686844
v -0.584170 7.065590 0.688765
v -0.004960 7.664480 0.692291
v -0.591600 7.073020 0.699458
v -0.007659 7.667179 0.696175
v -0.602201 7.083621 0.699589
v -0.011510 7.671030 0.696223
v -0.609762 7.091182 0.689081
v -0.014257 7.673777 0.692405
v -0.609855 7.091275 0.674089
v -0.014291 7.673811 0.686959
v -0.602424 7.083844 0.663396
v -0.011591 7.671111 0.683074
vn 0.0044 -1.0000 -0.0000
vn -0.3867 0.9222 -0.0000
vn 0.3867 -0.9222 -0.0000
vn -0.7102 0.7040 -0.0000
vn 0.7102 -0.7040 -0.0000
vn -0.9255 0.3786 -0.0000
vn 0.9255 -0.3786 -0.0000
vn -1.0000 -0.0044 -0.0000
vn 1.0000 0.0044 -0.0000
vn -0.9222 -0.3867 -0.0000
vn 0.9222 0.3867 -0.0000
vn -0.7040 -0.7102 -0.0000
vn 0.7040 0.7102 -0.0000
vn -0.3786 -0.9255 -0.0000
vn -0.0044 1.0000 -0.0000
vn 0.3786 0.9255 -0.0000
vn -0.0000 -0.0000 1.0000
vn -0.0000 -0.0000 -1.0000
vn 0.6839 -0.0083 -0.7296
vn -0.0393 0.0015 -0.9992
vn 0.6261 -0.2751 -0.7296
vn -0.0356 0.0167 -0.9992
vn 0.4747 -0.4924 -0.7296
vn -0.0266 0.0290 -0.9992
vn 0.2423 -0.6396 -0.7296
vn -0.0130 0.0371 -0.9992
vn -0.0123 -0.6838 -0.7296
vn 0.0017 0.0393 -0.9992
vn -0.2754 -0.6260 -0.7296
vn 0.0168 0.0356 -0.9992
vn -0.4961 -0.4707 -0.7296
vn 0.0292 0.0264 -0.9992
vn -0.6408 -0.2391 -0.7296
vn 0.0372 0.0128 -0.9992
vn -0.6837 0.0164 -0.7296
vn 0.0393 -0.0019 -0.9992
vn -0.6274 0.2722 -0.7296
vn 0.0357 -0.0166 -0.9992
vn -0.4811 0.4861 -0.7296
vn 0.0270 -0.0287 -0.9992
vn -0.2528 0.6355 -0.7296
vn 0.0136 -0.0369 -0.9992
vn 0.0156 0.6837 -0.7296
vn -0.0019 -0.0393 -0.9992
vn 0.2604 0.6324 -0.7296
vn -0.0159 -0.0360 -0.9992
vn 0.4900 0.4771 -0.7296
vn -0.0289 -0.0267 -0.9992
vn 0.6388 0.2443 -0.7296
vn -0.0371 -0.0131 -0.9992
vn -0.6888 0.0073 0.7249
vn -0.2473 0.0189 0.9688
vn -0.6311 0.2762 0.7249
vn -0.2202 0.1142 0.9688
vn -0.4788 0.4953 0.7249
vn -0.1603 0.1893 0.9688
vn -0.2450 0.6438 0.7249
vn -0.0728 0.2371 0.9688
vn 0.0114 0.6888 0.7249
vn 0.0204 0.2472 0.9688
vn 0.2765 0.6309 0.7249
vn 0.1142 0.2201 0.9688
vn 0.4990 0.4749 0.7249
vn 0.1905 0.1588 0.9688
vn 0.6451 0.2417 0.7249
vn 0.2375 0.0716 0.9688
vn 0.6887 -0.0156 0.7249
vn 0.2471 -0.0219 0.9688
vn 0.6323 -0.2733 0.7249
vn 0.2207 -0.1131 0.9688
vn 0.4853 -0.4889 0.7249
vn 0.1628 -0.1871 0.9688
vn 0.2556 -0.6397 0.7249
vn 0.0767 -0.2359 0.9688
vn -0.0148 -0.6887 0.7249
vn -0.0216 -0.2471 0.9688
vn -0.2614 -0.6373 0.7249
vn -0.1090 -0.2228 0.9688
vn -0.4929 -0.4812 0.7249
vn -0.1885 -0.1612 0.9688
vn -0.6431 -0.2470 0.7249
vn -0.2369 -0.0735 0.9688
vn -0.4050 -0.9143 -0.0104
vn -0.5170 -0.6987 0.4946
vn 0.4063 0.9137 -0.0120
vn 0.2152 0.9596 -0.1813
vn -0.9217 0.3879 -0.0104
vn -0.7013 0.5135 0.4946
vn 0.9135 -0.4066 -0.0119
vn 0.9607 -0.2103 -0.1813
vn 0.7252 0.6884 -0.0104
vn 0.5003 0.7107 0.4946
vn -0.4020 -0.9156 -0.0120
vn -0.1923 -0.9644 -0.1813
vn 0.6827 -0.7306 -0.0104
vn 0.4501 -0.7435 0.4946
vn -0.9229 0.3848 -0.0120
vn -0.8061 0.5633 -0.1813
vn -0.7160 -0.6980 -0.0104
vn -0.7470 -0.4442 0.4946
vn 0.7229 0.6908 -0.0119
vn 0.5697 0.8016 -0.1813
vn -0.6920 0.7218 -0.0104
vn -0.4599 0.7375 0.4946
vn 0.6851 -0.7284 -0.0119
vn 0.8135 -0.5526 -0.1813
vn 0.9378 0.3471 -0.0104
vn 0.7413 0.4538 0.4946
vn -0.7137 -0.7003 -0.0119
vn -0.5593 -0.8089 -0.1813
vn 0.3423 -0.9395 -0.0104
vn 0.1208 -0.8607 0.4946
vn -0.6944 0.7195 -0.0119
vn -0.5190 0.8353 -0.1813
vn -0.9319 -0.3625 -0.0104
vn -0.8613 -0.1165 0.4946
vn 0.9366 0.3501 -0.0119
vn 0.8379 0.5148 -0.1813
vn 0.0198 0.9998 -0.0104
vn -0.3500 0.9367 -0.0104
vn -0.1350 0.8586 0.4946
vn 0.3454 -0.9384 -0.0119
vn 0.5327 -0.8266 -0.1813
vn 0.9996 -0.0256 -0.0104
vn 0.8453 -0.2022 0.4946
vn 0.8603 0.1235 0.4946
vn -0.9307 -0.3656 -0.0119
vn -0.9672 -0.1777 -0.1813
vn -0.8337 -0.5216 -0.1813
vn -0.0317 -0.9994 -0.0104
vn -0.2071 -0.8441 0.4946
vn 0.0165 0.9998 -0.0119
vn -0.3531 0.9355 -0.0119
vn -0.1720 0.9683 -0.1813
vn -0.9995 0.0305 -0.0104
vn -0.8428 0.2123 0.4946
vn 0.9997 -0.0224 -0.0120
vn 0.9693 0.1662 -0.1813
vn 0.4093 0.9123 -0.0104
vn 0.2113 0.8431 0.4946
vn -0.0284 -0.9995 -0.0119
vn 0.1673 -0.9691 -0.1813
vn 0.9122 -0.4096 -0.0104
vn 0.6988 -0.5167 0.4946
vn -0.9996 0.0272 -0.0120
vn -0.9597 0.2148 -0.1813
vn 0.7007 0.0228 -0.7131
vn 0.9998 0.0167 -0.0087
vn 0.7132 0.0089 0.7009
vn 0.0087 0.0040 1.0000
vn -0.7009 0.0048 0.7132
vn -0.9999 0.0109 0.0087
vn -0.7131 0.0187 -0.7008
vn -0.0087 0.0236 -0.9997
vn -0.7007 -0.0228 -0.7131
vn -0.9998 -0.0167 -0.0087
vn -0.7132 -0.0089 0.7009
vn -0.0087 -0.0040 1.0000
vn 0.7009 -0.0048 0.7132
vn 0.9999 -0.0109 0.0087
vn 0.7131 -0.0187 -0.7008
vn 0.0087 -0.0236 -0.9997
vn 0.0228 -0.7007 -0.7131
vn 0.0167 -0.9998 -0.0087
vn 0.0089 -0.7132 0.7009
vn 0.0040 -0.0087 1.0000
vn 0.0048 0.7009 0.7132
vn 0.0109 0.9999 0.0087
vn 0.0187 0.7131 -0.7008
vn 0.0236 0.0087 -0.9997
vn -0.0228 0.7007 -0.7131
vn -0.0167 0.9998 -0.0087
vn -0.0089 0.7132 0.7009
vn -0.0040 0.0087 1.0000
vn -0.0048 -0.7009 0.7132
vn -0.0109 -0.9999 0.0087
vn -0.0187 -0.7131 -0.7008
vn -0.0236 -0.0087 -0.9997
vn -0.4793 -0.5116 -0.7131
vn -0.6951 -0.7188 -0.0087
vn -0.4980 -0.5107 0.7009
vn -0.0033 -0.0090 1.0000
vn 0.4990 0.4922 0.7132
vn 0.7148 0.6993 0.0087
vn 0.5175 0.4910 -0.7008
vn 0.0229 -0.0106 -0.9997
vn 0.4793 0.5116 -0.7131
vn 0.6951 0.7188 -0.0087
vn 0.4980 0.5106 0.7009
vn 0.0033 0.0090 1.0000
vn -0.4990 -0.4922 0.7132
vn -0.7148 -0.6993 0.0087
vn -0.5175 -0.4910 -0.7008
vn -0.0229 0.0105 -0.9997
vn -0.5116 0.4794 -0.7131
vn -0.7188 0.6951 -0.0087
vn -0.5107 0.4980 0.7009
vn -0.0090 0.0033 1.0000
vn 0.4922 -0.4990 0.7132
vn 0.6993 -0.7148 0.0087
vn 0.4910 -0.5175 -0.7008
vn -0.0105 -0.0229 -0.9997
vn 0.5116 -0.4794 -0.7131
vn 0.7188 -0.6951 -0.0087
vn 0.5107 -0.4980 0.7009
vn 0.0090 -0.0033 1.0000
vn -0.4922 0.4990 0.7132
vn -0.6993 0.7148 0.0087
vn -0.4910 0.5175 -0.7008
vn 0.0105 0.0229 -0.9997
vn 0.4467 -0.0227 -0.8944
vn 0.2474 -0.0200 -0.9687
vn 0.4023 -0.1956 -0.8944
vn 0.2199 -0.1152 -0.9687
vn 0.2978 -0.3338 -0.8944
vn 0.1596 -0.1901 -0.9687
vn 0.1422 -0.4241 -0.8944
vn 0.0718 -0.2376 -0.9687
vn -0.0253 -0.4466 -0.8944
vn -0.0214 -0.2473 -0.9687
vn -0.1958 -0.4022 -0.8944
vn -0.1153 -0.2198 -0.9687
vn -0.3361 -0.2951 -0.8944
vn -0.1913 -0.1581 -0.9687
vn -0.4248 -0.1401 -0.8944
vn -0.2380 -0.0706 -0.9687
vn -0.4464 0.0280 -0.8944
vn -0.2472 0.0229 -0.9687
vn -0.4032 0.1937 -0.8944
vn -0.2204 0.1141 -0.9687
vn -0.3022 0.3298 -0.8944
vn -0.1621 0.1879 -0.9687
vn -0.1492 0.4217 -0.8944
vn -0.0758 0.2364 -0.9687
vn 0.0275 0.4464 -0.8944
vn 0.0226 0.2472 -0.9687
vn 0.1862 0.4067 -0.8944
vn 0.1100 0.2225 -0.9687
vn 0.3323 0.2994 -0.8944
vn 0.1893 0.1606 -0.9687
vn 0.4236 0.1435 -0.8944
vn 0.2374 0.0726 -0.9687
vn -0.4469 0.0216 0.8943
vn 0.0461 -0.0026 0.9989
vn -0.4028 0.1947 0.8943
vn 0.0414 -0.0204 0.9989
vn -0.2986 0.3331 0.8943
vn 0.0306 -0.0346 0.9989
vn -0.1432 0.4238 0.8943
vn 0.0145 -0.0438 0.9989
vn 0.0242 0.4467 0.8943
vn -0.0028 -0.0461 0.9989
vn 0.1948 0.4027 0.8943
vn -0.0204 -0.0414 0.9989
vn 0.3355 0.2960 0.8943
vn -0.0348 -0.0303 0.9989
vn 0.4245 0.1411 0.8943
vn -0.0439 -0.0142 0.9989
vn 0.4466 -0.0270 0.8943
vn -0.0461 0.0031 0.9989
vn 0.4037 -0.1928 0.8943
vn -0.0415 0.0202 0.9989
vn 0.3030 -0.3291 0.8943
vn -0.0310 0.0342 0.9989
vn 0.1502 -0.4214 0.8943
vn -0.0152 0.0436 0.9989
vn -0.0264 -0.4466 0.8943
vn 0.0031 0.0461 0.9989
vn -0.1852 -0.4072 0.8943
vn 0.0194 0.0419 0.9989
vn -0.3316 -0.3003 0.8943
vn 0.0344 0.0307 0.9989
vn -0.4234 -0.1446 0.8943
vn 0.0438 0.0146 0.9989
vn -0.4051 -0.9142 -0.0107
vn 0.4062 0.9137 -0.0116
vn -0.9216 0.3880 -0.0107
vn 0.9136 -0.4065 -0.0117
vn 0.7253 0.6883 -0.0107
vn -0.4019 -0.9156 -0.0117
vn 0.6826 -0.7307 -0.0107
vn -0.9230 0.3847 -0.0116
vn -0.7161 -0.6979 -0.0107
vn 0.7229 0.6909 -0.0116
vn -0.6919 0.7219 -0.0107
vn 0.6851 -0.7283 -0.0116
vn 0.9378 0.3470 -0.0107
vn -0.7137 -0.7004 -0.0117
vn 0.3422 -0.9396 -0.0107
vn -0.6944 0.7195 -0.0117
vn -0.9320 -0.3624 -0.0107
vn 0.9366 0.3502 -0.0116
vn 0.0199 0.9997 -0.0107
vn -0.3499 0.9367 -0.0107
vn 0.3455 -0.9383 -0.0116
vn 0.9996 -0.0258 -0.0107
vn -0.9307 -0.3657 -0.0116
vn -0.0318 -0.9994 -0.0107
vn 0.0164 0.9998 -0.0117
vn -0.3532 0.9355 -0.0117
vn -0.9995 0.0306 -0.0106
vn 0.9997 -0.0223 -0.0117
vn 0.4094 0.9123 -0.0107
vn -0.0283 -0.9995 -0.0117
vn 0.9121 -0.4097 -0.0107
vn -0.9996 0.0271 -0.0116
vn -0.4794 -0.5116 -0.7131
vn 0.0229 -0.0105 -0.9997
vn 0.4794 0.5116 -0.7131
vn -0.5106 0.4980 0.7009
vn 0.5116 -0.4793 -0.7131
vt 0.605095 0.609109
vt 0.604583 0.609077
vt 0.604099 0.642636
vt 0.604571 0.645432
vt 0.605567 0.611905
vt 0.603739 0.637500
vt 0.605928 0.617041
vt 0.603545 0.630807
vt 0.606121 0.623734
vt 0.603547 0.623575
vt 0.606119 0.630965
vt 0.603745 0.616906
vt 0.605921 0.637634
vt 0.604109 0.611815
vt 0.605558 0.642726
vt 0.605084 0.645464
vt 0.604590 0.609586
vt 0.605087 0.609616
vt 0.604579 0.644925
vt 0.604120 0.642206
vt 0.605546 0.612335
vt 0.603769 0.637214
vt 0.605897 0.617327
vt 0.603581 0.630708
vt 0.606085 0.623833
vt 0.603583 0.623679
vt 0.606083 0.630862
vt 0.603775 0.617196
vt 0.605891 0.637345
vt 0.604129 0.612247
vt 0.605537 0.642294
vt 0.605076 0.644955
vt 0.604931 0.620458
vt 0.604739 0.620446
vt 0.604558 0.633034
vt 0.604735 0.634083
vt 0.605108 0.621507
vt 0.604423 0.631108
vt 0.605244 0.623433
vt 0.604350 0.628597
vt 0.605316 0.625944
vt 0.604351 0.625884
vt 0.605316 0.628656
vt 0.604425 0.623383
vt 0.605241 0.631158
vt 0.604561 0.621473
vt 0.605105 0.633068
vt 0.604927 0.634095
vt 0.604743 0.620758
vt 0.604927 0.620769
vt 0.604739 0.633772
vt 0.604570 0.632771
vt 0.605096 0.621770
vt 0.604441 0.630932
vt 0.605225 0.623609
vt 0.604372 0.628536
vt 0.605294 0.626004
vt 0.604373 0.625948
vt 0.605293 0.628593
vt 0.604444 0.623560
vt 0.605223 0.630980
vt 0.604574 0.621738
vt 0.605092 0.632803
vt 0.604923 0.633783
vt 0.465405 0.683463
vt 0.465422 0.660877
vt 0.465398 0.660893
vt 0.465364 0.660910
vt 0.456580 0.770963
vt 0.456069 0.715825
vt 0.456010 0.716908
vt 0.455931 0.718376
vt 0.465929 0.673839
vt 0.465557 0.657454
vt 0.465540 0.658191
vt 0.465517 0.659195
vt 0.457609 0.725087
vt 0.456311 0.701719
vt 0.456289 0.704215
vt 0.456258 0.707629
vt 0.457731 0.694782
vt 0.456319 0.693240
vt 0.456320 0.695904
vt 0.456322 0.699553
vt 0.457563 0.663532
vt 0.456246 0.684936
vt 0.456272 0.687371
vt 0.456307 0.690712
vt 0.457119 0.637376
vt 0.456102 0.678443
vt 0.456148 0.680268
vt 0.456211 0.682781
vt 0.465648 0.623213
vt 0.465437 0.644017
vt 0.465460 0.644368
vt 0.465491 0.644856
vt 0.455731 0.615374
vt 0.455703 0.674502
vt 0.455767 0.674426
vt 0.455854 0.674339
vt 0.455005 0.622231
vt 0.455510 0.677469
vt 0.455568 0.676398
vt 0.455648 0.674945
vt 0.454400 0.639763
vt 0.455359 0.683178
vt 0.455404 0.681276
vt 0.455465 0.678682
vt 0.464700 0.641052
vt 0.465193 0.650323
vt 0.465202 0.649375
vt 0.465214 0.648079
vt 0.453845 0.698964
vt 0.455258 0.700218
vt 0.455257 0.697554
vt 0.455255 0.693905
vt 0.453995 0.728045
vt 0.455324 0.707955
vt 0.455300 0.705495
vt 0.455266 0.702121
vt 0.464876 0.674771
vt 0.465270 0.659290
vt 0.465252 0.658583
vt 0.465228 0.657610
vt 0.455104 0.772797
vt 0.455666 0.718543
vt 0.455606 0.717602
vt 0.455525 0.716298
vt 0.465420 0.660880
vt 0.465403 0.683467
vt 0.465396 0.660896
vt 0.465363 0.660913
vt 0.465270 0.683541
vt 0.456063 0.715925
vt 0.456576 0.771044
vt 0.456007 0.716979
vt 0.455929 0.718417
vt 0.456258 0.776897
vt 0.465556 0.657521
vt 0.465928 0.673892
vt 0.465539 0.658237
vt 0.465517 0.659220
vt 0.465836 0.677888
vt 0.456309 0.701941
vt 0.457608 0.725263
vt 0.456288 0.704370
vt 0.456257 0.707713
vt 0.457486 0.738834
vt 0.456319 0.693474
vt 0.457732 0.694968
vt 0.456320 0.696067
vt 0.456322 0.699640
vt 0.457738 0.709470
vt 0.456248 0.685149
vt 0.457565 0.663700
vt 0.456273 0.687518
vt 0.456308 0.690790
vt 0.457705 0.676969
vt 0.456106 0.678600
vt 0.457122 0.637499
vt 0.456151 0.680377
vt 0.456213 0.682837
vt 0.457374 0.647469
vt 0.465439 0.644046
vt 0.465649 0.623235
vt 0.465461 0.644388
vt 0.465492 0.644866
vt 0.465773 0.625166
vt 0.455709 0.674490
vt 0.455736 0.615363
vt 0.455770 0.674416
vt 0.455856 0.674331
vt 0.456082 0.614995
vt 0.455515 0.677370
vt 0.455009 0.622151
vt 0.455572 0.676327
vt 0.455650 0.674905
vt 0.455327 0.616361
vt 0.455363 0.683007
vt 0.454403 0.639626
vt 0.455406 0.681155
vt 0.455467 0.678615
vt 0.454646 0.629304
vt 0.465193 0.650239
vt 0.464701 0.640985
vt 0.465202 0.649316
vt 0.465214 0.648047
vt 0.464750 0.635833
vt 0.455258 0.699983
vt 0.453845 0.698778
vt 0.455256 0.697390
vt 0.455254 0.693817
vt 0.453837 0.684277
vt 0.455322 0.707740
vt 0.453993 0.727876
vt 0.455298 0.705346
vt 0.455266 0.702041
vt 0.453861 0.714471
vt 0.465268 0.659229
vt 0.464875 0.674724
vt 0.465251 0.658541
vt 0.465228 0.657588
vt 0.464780 0.670863
vt 0.455661 0.718464
vt 0.455099 0.772737
vt 0.455603 0.717549
vt 0.455523 0.716272
vt 0.454775 0.767573
vt 0.454710 0.627624
vt 0.454716 0.627511
vt 0.457436 0.651456
vt 0.456261 0.776851
vt 0.457704 0.676881
vt 0.454118 0.740489
vt 0.454116 0.740245
vt 0.455325 0.616406
vt 0.466014 0.670124
vt 0.466013 0.670199
vt 0.453862 0.714560
vt 0.456884 0.628127
vt 0.456889 0.628306
vt 0.465837 0.677858
vt 0.454174 0.649361
vt 0.454178 0.649167
vt 0.457372 0.647405
vt 0.464965 0.678353
vt 0.464963 0.678284
vt 0.454645 0.629380
vt 0.457723 0.712477
vt 0.457721 0.712729
vt 0.464781 0.670887
vt 0.465532 0.621425
vt 0.465535 0.621458
vt 0.457486 0.738738
vt 0.464655 0.645840
vt 0.464656 0.645744
vt 0.465772 0.625155
vt 0.465528 0.683388
vt 0.465525 0.683392
vt 0.455405 0.777578
vt 0.455398 0.777489
vt 0.464749 0.635869
vt 0.457725 0.681313
vt 0.457725 0.681580
vt 0.465271 0.683538
vt 0.454778 0.767603
vt 0.455409 0.615731
vt 0.455416 0.615718
vt 0.457738 0.709370
vt 0.453853 0.712431
vt 0.453853 0.712164
vt 0.456080 0.615004
vt 0.456874 0.765513
vt 0.456868 0.765627
vt 0.453837 0.684376
vt 0.457433 0.651214
vt 0.604839 0.626954
vt 0.604866 0.609344
vt 0.604850 0.609344
vt 0.604845 0.626954
vt 0.604866 0.609344
vt 0.604845 0.626954
vt 0.604850 0.609344
vt 0.604839 0.626954
vt 0.604828 0.609344
vt 0.604825 0.626954
vt 0.604812 0.609344
vt 0.604825 0.626954
vt 0.604811 0.609344
vt 0.604831 0.626954
vt 0.604827 0.609344
vt 0.604827 0.627586
vt 0.604801 0.645197
vt 0.604817 0.645197
vt 0.604821 0.627586
vt 0.604800 0.645197
vt 0.604821 0.627586
vt 0.604816 0.645197
vt 0.604827 0.627586
vt 0.604839 0.645197
vt 0.604841 0.627586
vt 0.604855 0.645197
vt 0.604841 0.627586
vt 0.604855 0.645197
vt 0.604835 0.627586
vt 0.604839 0.645197
vt 0.604811 0.627186
vt 0.603564 0.626811
vt 0.603564 0.627037
vt 0.604811 0.627104
vt 0.603564 0.626808
vt 0.604811 0.627103
vt 0.603564 0.627030
vt 0.604811 0.627183
vt 0.603564 0.627347
vt 0.604811 0.627380
vt 0.603564 0.627573
vt 0.604811 0.627382
vt 0.603564 0.627576
vt 0.604811 0.627301
vt 0.603564 0.627354
vt 0.604855 0.627355
vt 0.606103 0.627730
vt 0.606103 0.627504
vt 0.604855 0.627437
vt 0.606103 0.627732
vt 0.604855 0.627438
vt 0.606103 0.627510
vt 0.604855 0.627357
vt 0.606103 0.627193
vt 0.604855 0.627160
vt 0.606103 0.626967
vt 0.604855 0.627159
vt 0.606103 0.626964
vt 0.604855 0.627240
vt 0.606103 0.627187
vt 0.604813 0.627434
vt 0.603912 0.639621
vt 0.603924 0.639781
vt 0.604809 0.627376
vt 0.603912 0.639619
vt 0.604809 0.627375
vt 0.603923 0.639777
vt 0.604813 0.627432
vt 0.603939 0.640001
vt 0.604823 0.627572
vt 0.603951 0.640161
vt 0.604823 0.627572
vt 0.603951 0.640162
vt 0.604819 0.627515
vt 0.603940 0.640005
vt 0.604853 0.627107
vt 0.605754 0.614919
vt 0.605742 0.614759
vt 0.604857 0.627165
vt 0.605754 0.614921
vt 0.604857 0.627166
vt 0.605743 0.614764
vt 0.604853 0.627108
vt 0.605727 0.614540
vt 0.604843 0.626969
vt 0.605716 0.614380
vt 0.604843 0.626968
vt 0.605715 0.614378
vt 0.604847 0.627025
vt 0.605727 0.614535
vt 0.604845 0.627554
vt 0.605708 0.640271
vt 0.605719 0.640111
vt 0.604841 0.627612
vt 0.605708 0.640273
vt 0.604841 0.627613
vt 0.605719 0.640116
vt 0.604845 0.627555
vt 0.605735 0.639892
vt 0.604854 0.627416
vt 0.605746 0.639732
vt 0.604854 0.627415
vt 0.605746 0.639730
vt 0.604850 0.627472
vt 0.605735 0.639887
vt 0.604822 0.626987
vt 0.603958 0.614270
vt 0.603947 0.614430
vt 0.604826 0.626929
vt 0.603959 0.614268
vt 0.604826 0.626928
vt 0.603947 0.614425
vt 0.604822 0.626985
vt 0.603932 0.614649
vt 0.604812 0.627125
vt 0.603920 0.614809
vt 0.604812 0.627125
vt 0.603920 0.614811
vt 0.604816 0.627068
vt 0.603931 0.614654
vt 0.604831 0.626954
vt 0.604835 0.627586
vt 0.604811 0.627298
vt 0.604855 0.627242
vt 0.604819 0.627514
vt 0.604847 0.627027
vt 0.604850 0.627474
vt 0.604816 0.627067
s 0
usemtl Texture_Map
f 328/148/146 343/149/146 327/149/146
f 321/150/147 336/151/147 320/151/147
f 329/152/148 344/148/148 328/148/148
f 322/153/149 337/150/149 321/150/149
f 330/154/150 345/152/150 329/152/150
f 322/153/151 339/155/151 338/153/151
f 331/156/152 346/154/152 330/154/152
f 323/155/153 340/157/153 339/155/153
f 332/158/154 347/156/154 331/156/154
f 325/159/155 340/157/155 324/157/155
f 333/160/156 348/158/156 332/158/156
f 326/161/157 341/159/157 325/159/157
f 334/162/158 349/160/158 333/160/158
f 327/149/159 342/161/159 326/161/159
f 320/151/160 335/163/160 319/163/160
f 319/163/161 350/162/161 334/162/161
f 375/164/160 360/165/160 359/164/160
f 367/166/148 353/167/148 351/166/148
f 376/165/147 361/168/147 360/165/147
f 369/167/150 354/169/150 353/167/150
f 377/168/149 362/170/149 361/168/149
f 354/169/152 371/171/152 355/171/152
f 378/170/151 363/172/151 362/170/151
f 371/171/154 356/173/154 355/171/154
f 379/172/153 364/174/153 363/172/153
f 372/173/156 357/175/156 356/173/156
f 380/174/155 365/176/155 364/174/155
f 373/175/158 358/177/158 357/175/158
f 381/176/157 366/178/157 365/176/157
f 374/177/161 359/164/161 358/177/161
f 368/179/146 351/166/146 352/179/146
f 382/178/159 352/179/159 366/178/159
f 345/152/162 376/165/162 344/148/162
f 363/172/163 332/158/163 331/156/163
f 378/170/162 345/152/162 346/154/162
f 364/174/163 333/160/163 332/158/163
f 352/179/163 320/151/163 319/163/163
f 379/172/162 346/154/162 347/156/162
f 365/176/163 334/162/163 333/160/163
f 320/151/163 353/167/163 321/150/163
f 348/158/162 379/172/162 347/156/162
f 334/162/163 352/179/163 319/163/163
f 321/150/163 354/169/163 322/153/163
f 381/176/162 348/158/162 349/160/162
f 367/166/162 335/163/162 336/151/162
f 322/153/163 355/171/163 323/155/163
f 350/162/162 381/176/162 349/160/162
f 369/167/162 336/151/162 337/150/162
f 355/171/163 324/157/163 323/155/163
f 368/179/162 350/162/162 335/163/162
f 370/169/162 337/150/162 338/153/162
f 356/173/163 325/159/163 324/157/163
f 371/171/162 338/153/162 339/155/162
f 325/159/163 358/177/163 326/161/163
f 340/157/162 371/171/162 339/155/162
f 358/177/163 327/149/163 326/161/163
f 341/159/162 372/173/162 340/157/162
f 359/164/163 328/148/163 327/149/163
f 374/177/162 341/159/162 342/161/162
f 360/165/163 329/152/163 328/148/163
f 343/149/162 374/177/162 342/161/162
f 329/152/163 362/170/163 330/154/163
f 344/148/162 375/164/162 343/149/162
f 330/154/163 363/172/163 331/156/163
f 392/180/146 407/181/146 391/181/146
f 385/182/147 400/183/147 384/183/147
f 393/184/148 408/180/148 392/180/148
f 386/185/149 401/182/149 385/182/149
f 394/186/150 409/184/150 393/184/150
f 386/185/151 403/187/151 402/185/151
f 395/188/152 410/186/152 394/186/152
f 387/187/153 404/189/153 403/187/153
f 396/190/154 411/188/154 395/188/154
f 389/191/155 404/189/155 388/189/155
f 397/192/156 412/190/156 396/190/156
f 389/191/157 406/193/157 405/191/157
f 398/194/158 413/192/158 397/192/158
f 390/193/159 407/181/159 406/193/159
f 384/183/160 399/195/160 383/195/160
f 383/195/161 414/194/161 398/194/161
f 423/196/160 440/197/160 424/197/160
f 431/198/148 417/199/148 415/198/148
f 440/197/147 425/200/147 424/197/147
f 417/199/150 434/201/150 418/201/150
f 441/200/149 426/202/149 425/200/149
f 418/201/152 435/203/152 419/203/152
f 442/202/151 427/204/151 426/202/151
f 435/203/154 420/205/154 419/203/154
f 443/204/153 428/206/153 427/204/153
f 420/205/156 437/207/156 421/207/156
f 444/206/155 429/208/155 428/206/155
f 421/207/158 438/209/158 422/209/158
f 445/208/157 430/210/157 429/208/157
f 422/209/161 439/196/161 423/196/161
f 432/211/146 415/198/146 416/211/146
f 446/210/159 416/211/159 430/210/159
f 409/184/162 440/197/162 408/180/162
f 395/188/163 428/206/163 396/190/163
f 410/186/162 441/200/162 409/184/162
f 428/206/163 397/192/163 396/190/163
f 416/211/163 384/183/163 383/195/163
f 411/188/162 442/202/162 410/186/162
f 429/208/163 398/194/163 397/192/163
f 415/198/163 385/182/163 384/183/163
f 444/206/162 411/188/162 412/190/162
f 398/194/163 416/211/163 383/195/163
f 385/182/163 418/201/163 386/185/163
f 413/192/162 444/206/162 412/190/162
f 400/183/162 432/211/162 399/195/162
f 386/185/163 419/203/163 387/187/163
f 446/210/162 413/192/162 414/194/162
f 401/182/162 431/198/162 400/183/162
f 387/187/163 420/205/163 388/189/163
f 432/211/162 414/194/162 399/195/162
f 434/201/162 401/182/162 402/185/162
f 420/205/163 389/191/163 388/189/163
f 435/203/162 402/185/162 403/187/162
f 421/207/163 390/193/163 389/191/163
f 436/205/162 403/187/162 404/189/162
f 422/209/163 391/181/163 390/193/163
f 405/191/162 436/205/162 404/189/162
f 391/181/163 424/197/163 392/180/163
f 438/209/162 405/191/162 406/193/162
f 424/197/163 393/184/163 392/180/163
f 407/181/162 438/209/162 406/193/162
f 425/200/163 394/186/163 393/184/163
f 440/197/162 407/181/162 408/180/162
f 426/202/163 395/188/163 394/186/163
f 451/212/164 447/213/164 452/214/164
f 448/215/165 451/212/165 452/214/165
f 457/216/166 453/217/166 458/218/166
f 454/219/167 457/216/167 458/218/167
f 463/220/168 459/221/168 464/222/168
f 460/223/169 463/220/169 464/222/169
f 469/224/170 465/225/170 470/226/170
f 466/227/171 469/224/171 470/226/171
f 475/228/172 471/229/172 476/230/172
f 472/231/173 475/228/173 476/230/173
f 481/232/174 477/233/174 482/234/174
f 478/235/175 481/232/175 482/234/175
f 487/236/176 483/237/176 488/238/176
f 484/239/177 487/236/177 488/238/177
f 493/240/178 489/241/178 494/242/178
f 490/243/179 493/240/179 494/242/179
f 499/244/180 495/245/180 500/246/180
f 496/247/181 499/244/181 500/246/181
f 505/248/182 501/249/182 506/250/182
f 502/251/183 505/248/183 506/250/183
f 511/252/184 507/253/184 512/254/184
f 508/255/185 511/252/185 512/254/185
f 517/256/186 513/257/186 518/258/186
f 514/259/187 517/256/187 518/258/187
f 523/260/188 519/261/188 524/262/188
f 520/263/189 523/260/189 524/262/189
f 529/264/190 525/265/190 530/266/190
f 526/267/191 529/264/191 530/266/191
f 535/268/192 531/269/192 536/270/192
f 532/271/193 535/268/193 536/270/193
f 541/272/194 537/273/194 542/274/194
f 538/275/195 541/272/195 542/274/195
f 547/276/196 543/277/196 545/278/196
f 546/279/197 543/277/197 548/280/197
f 553/281/198 549/282/198 551/283/198
f 552/284/199 549/282/199 554/285/199
f 559/286/200 555/287/200 557/288/200
f 558/289/201 555/287/201 560/290/201
f 565/291/202 561/292/202 563/293/202
f 564/294/203 561/292/203 566/295/203
f 571/296/204 567/297/204 569/298/204
f 570/299/205 567/297/205 572/300/205
f 577/301/206 573/302/206 575/303/206
f 576/304/207 573/302/207 578/305/207
f 583/306/208 579/307/208 581/308/208
f 582/309/209 579/307/209 584/310/209
f 589/311/210 585/312/210 587/313/210
f 588/314/211 585/312/211 590/315/211
f 595/316/212 591/317/212 593/318/212
f 594/319/213 591/317/213 596/320/213
f 601/321/214 597/322/214 599/323/214
f 600/324/215 597/322/215 602/325/215
f 607/326/216 603/327/216 605/328/216
f 606/329/217 603/327/217 608/330/217
f 613/331/218 609/332/218 611/333/218
f 612/334/219 609/332/219 614/335/219
f 619/336/220 615/337/220 617/338/220
f 618/339/221 615/337/221 620/340/221
f 625/341/222 621/342/222 623/343/222
f 624/344/223 621/342/223 626/345/223
f 631/346/224 627/347/224 629/348/224
f 630/349/225 627/347/225 632/350/225
f 637/351/226 633/352/226 635/353/226
f 636/354/227 633/352/227 638/355/227
f 504/356/228 597/322/228 598/357/228
f 477/233/229 574/358/229 577/301/229
f 455/359/230 549/282/230 457/216/230
f 478/235/231 578/305/231 479/360/231
f 528/361/232 621/342/232 622/362/232
f 501/249/233 598/357/233 601/321/233
f 479/360/234 573/302/234 481/232/234
f 502/251/235 602/325/235 503/363/235
f 462/364/236 555/287/236 556/365/236
f 525/265/237 622/362/237 625/341/237
f 503/363/238 597/322/238 505/248/238
f 526/267/239 626/345/239 527/366/239
f 486/367/240 579/307/240 580/368/240
f 459/221/241 556/365/241 559/286/241
f 527/366/242 621/342/242 529/264/242
f 460/223/243 560/290/243 461/369/243
f 510/370/244 603/327/244 604/371/244
f 483/237/245 580/368/245 583/306/245
f 461/369/246 555/287/246 463/220/246
f 484/239/247 584/310/247 485/372/247
f 534/373/248 627/347/248 628/374/248
f 507/253/249 604/371/249 607/326/249
f 485/372/250 579/307/250 487/236/250
f 508/255/251 608/330/251 509/375/251
f 468/376/252 561/292/252 562/377/252
f 531/269/253 628/374/253 631/346/253
f 509/375/254 603/327/254 511/252/254
f 532/271/255 632/350/255 533/378/255
f 492/379/256 585/312/256 586/380/256
f 465/225/257 562/377/257 565/291/257
f 533/378/258 627/347/258 535/268/258
f 466/227/259 566/295/259 467/381/259
f 516/382/260 609/332/260 610/383/260
f 489/241/261 586/380/261 589/311/261
f 467/381/262 561/292/262 469/224/262
f 490/243/263 590/315/263 491/384/263
f 450/385/264 543/277/264 544/386/264
f 540/387/265 633/352/265 634/388/265
f 513/257/266 610/383/266 613/331/266
f 491/384/267 585/312/267 493/240/267
f 514/259/268 614/335/268 515/389/268
f 474/390/269 567/297/269 568/391/269
f 447/213/270 544/386/270 547/276/270
f 537/273/271 634/388/271 637/351/271
f 515/389/272 609/332/272 517/256/272
f 448/215/273 548/280/273 449/392/273
f 538/275/274 638/355/274 539/393/274
f 498/394/275 591/317/275 592/395/275
f 471/229/276 568/391/276 571/296/276
f 449/392/277 543/277/277 451/212/277
f 539/393/278 633/352/278 541/272/278
f 472/231/279 572/300/279 473/396/279
f 522/397/280 615/337/280 616/398/280
f 495/245/281 592/395/281 595/316/281
f 473/396/282 567/297/282 475/228/282
f 496/247/283 596/320/283 497/399/283
f 456/400/284 549/282/284 550/401/284
f 519/261/285 616/398/285 619/336/285
f 497/399/286 591/317/286 499/244/286
f 520/263/287 620/340/287 521/402/287
f 480/403/288 573/302/288 574/358/288
f 453/217/289 550/401/289 553/281/289
f 521/402/290 615/337/290 523/260/290
f 454/219/291 554/285/291 455/359/291
f 640/404/292 641/405/292 639/406/292
f 642/407/293 643/408/293 641/405/293
f 644/409/294 645/410/294 643/408/294
f 646/411/295 647/412/295 645/410/295
f 647/412/296 650/413/296 649/414/296
f 649/414/297 652/415/297 651/416/297
f 651/416/298 654/417/298 653/418/298
f 653/418/299 640/404/299 639/406/299
f 656/419/300 657/420/300 655/421/300
f 658/422/301 659/423/301 657/420/301
f 660/424/302 661/425/302 659/423/302
f 662/426/303 663/427/303 661/425/303
f 663/427/304 666/428/304 665/429/304
f 665/429/305 668/430/305 667/431/305
f 667/431/306 670/432/306 669/433/306
f 669/433/307 656/419/307 655/421/307
f 672/434/308 673/435/308 671/436/308
f 674/437/309 675/438/309 673/435/309
f 676/439/310 677/440/310 675/438/310
f 678/441/311 679/442/311 677/440/311
f 679/442/312 682/443/312 681/444/312
f 681/444/313 684/445/313 683/446/313
f 683/446/314 686/447/314 685/448/314
f 685/448/315 672/434/315 671/436/315
f 688/449/316 689/450/316 687/451/316
f 690/452/317 691/453/317 689/450/317
f 692/454/318 693/455/318 691/453/318
f 694/456/319 695/457/319 693/455/319
f 695/457/320 698/458/320 697/459/320
f 697/459/321 700/460/321 699/461/321
f 699/461/322 702/462/322 701/463/322
f 701/463/323 688/449/323 687/451/323
f 704/464/324 705/465/324 703/466/324
f 706/467/325 707/468/325 705/465/325
f 708/469/326 709/470/326 707/468/326
f 710/471/327 711/472/327 709/470/327
f 711/472/328 714/473/328 713/474/328
f 713/474/329 716/475/329 715/476/329
f 715/476/330 718/477/330 717/478/330
f 717/478/331 704/464/331 703/466/331
f 720/479/332 721/480/332 719/481/332
f 722/482/333 723/483/333 721/480/333
f 724/484/334 725/485/334 723/483/334
f 726/486/335 727/487/335 725/485/335
f 727/487/336 730/488/336 729/489/336
f 729/489/337 732/490/337 731/491/337
f 731/491/338 734/492/338 733/493/338
f 733/493/339 720/479/339 719/481/339
f 736/494/340 737/495/340 735/496/340
f 738/497/341 739/498/341 737/495/341
f 740/499/342 741/500/342 739/498/342
f 742/501/343 743/502/343 741/500/343
f 743/502/344 746/503/344 745/504/344
f 745/504/345 748/505/345 747/506/345
f 747/506/346 750/507/346 749/508/346
f 749/508/347 736/494/347 735/496/347
f 752/509/348 753/510/348 751/511/348
f 754/512/349 755/513/349 753/510/349
f 756/514/350 757/515/350 755/513/350
f 758/516/351 759/517/351 757/515/351
f 759/517/352 762/518/352 761/519/352
f 761/519/353 764/520/353 763/521/353
f 763/521/354 766/522/354 765/523/354
f 765/523/355 752/509/355 751/511/355
f 328/148/146 344/148/146 343/149/146
f 321/150/147 337/150/147 336/151/147
f 329/152/148 345/152/148 344/148/148
f 322/153/149 338/153/149 337/150/149
f 330/154/150 346/154/150 345/152/150
f 322/153/151 323/155/151 339/155/151
f 331/156/152 347/156/152 346/154/152
f 323/155/153 324/157/153 340/157/153
f 332/158/154 348/158/154 347/156/154
f 325/159/155 341/159/155 340/157/155
f 333/160/156 349/160/156 348/158/156
f 326/161/157 342/161/157 341/159/157
f 334/162/158 350/162/158 349/160/158
f 327/149/159 343/149/159 342/161/159
f 320/151/160 336/151/160 335/163/160
f 319/163/161 335/163/161 350/162/161
f 375/164/160 376/165/160 360/165/160
f 367/166/148 369/167/148 353/167/148
f 376/165/147 377/168/147 361/168/147
f 369/167/150 370/169/150 354/169/150
f 377/168/149 378/170/149 362/170/149
f 354/169/152 370/169/152 371/171/152
f 378/170/151 379/172/151 363/172/151
f 371/171/154 372/173/154 356/173/154
f 379/172/153 380/174/153 364/174/153
f 372/173/156 373/175/156 357/175/156
f 380/174/155 381/176/155 365/176/155
f 373/175/158 374/177/158 358/177/158
f 381/176/157 382/178/157 366/178/157
f 374/177/161 375/164/161 359/164/161
f 368/179/146 367/166/146 351/166/146
f 382/178/159 368/179/159 352/179/159
f 345/152/162 377/168/162 376/165/162
f 363/172/163 364/174/163 332/158/163
f 378/170/162 377/168/162 345/152/162
f 364/174/163 365/176/163 333/160/163
f 352/179/163 351/166/163 320/151/163
f 379/172/162 378/170/162 346/154/162
f 365/176/163 366/178/163 334/162/163
f 320/151/163 351/166/163 353/167/163
f 348/158/162 380/174/162 379/172/162
f 334/162/163 366/178/163 352/179/163
f 321/150/163 353/167/163 354/169/163
f 381/176/162 380/174/162 348/158/162
f 367/166/162 368/179/162 335/163/162
f 322/153/163 354/169/163 355/171/163
f 350/162/162 382/178/162 381/176/162
f 369/167/162 367/166/162 336/151/162
f 355/171/163 356/173/163 324/157/163
f 368/179/162 382/178/162 350/162/162
f 370/169/162 369/167/162 337/150/162
f 356/173/163 357/175/163 325/159/163
f 371/171/162 370/169/162 338/153/162
f 325/159/163 357/175/163 358/177/163
f 340/157/162 372/173/162 371/171/162
f 358/177/163 359/164/163 327/149/163
f 341/159/162 373/175/162 372/173/162
f 359/164/163 360/165/163 328/148/163
f 374/177/162 373/175/162 341/159/162
f 360/165/163 361/168/163 329/152/163
f 343/149/162 375/164/162 374/177/162
f 329/152/163 361/168/163 362/170/163
f 344/148/162 376/165/162 375/164/162
f 330/154/163 362/170/163 363/172/163
f 392/180/146 408/180/146 407/181/146
f 385/182/147 401/182/147 400/183/147
f 393/184/148 409/184/148 408/180/148
f 386/185/149 402/185/149 401/182/149
f 394/186/150 410/186/150 409/184/150
f 386/185/151 387/187/151 403/187/151
f 395/188/152 411/188/152 410/186/152
f 387/187/153 388/189/153 404/189/153
f 396/190/154 412/190/154 411/188/154
f 389/191/155 405/191/155 404/189/155
f 397/192/156 413/192/156 412/190/156
f 389/191/157 390/193/157 406/193/157
f 398/194/158 414/194/158 413/192/158
f 390/193/159 391/181/159 407/181/159
f 384/183/160 400/183/160 399/195/160
f 383/195/161 399/195/161 414/194/161
f 423/196/160 439/196/160 440/197/160
f 431/198/148 433/199/148 417/199/148
f 440/197/147 441/200/147 425/200/147
f 417/199/150 433/199/150 434/201/150
f 441/200/149 442/202/149 426/202/149
f 418/201/152 434/201/152 435/203/152
f 442/202/151 443/204/151 427/204/151
f 435/203/154 436/205/154 420/205/154
f 443/204/153 444/206/153 428/206/153
f 420/205/156 436/205/156 437/207/156
f 444/206/155 445/208/155 429/208/155
f 421/207/158 437/207/158 438/209/158
f 445/208/157 446/210/157 430/210/157
f 422/209/161 438/209/161 439/196/161
f 432/211/146 431/198/146 415/198/146
f 446/210/159 432/211/159 416/211/159
f 409/184/162 441/200/162 440/197/162
f 395/188/163 427/204/163 428/206/163
f 410/186/162 442/202/162 441/200/162
f 428/206/163 429/208/163 397/192/163
f 416/211/163 415/198/163 384/183/163
f 411/188/162 443/204/162 442/202/162
f 429/208/163 430/210/163 398/194/163
f 415/198/163 417/199/163 385/182/163
f 444/206/162 443/204/162 411/188/162
f 398/194/163 430/210/163 416/211/163
f 385/182/163 417/199/163 418/201/163
f 413/192/162 445/208/162 444/206/162
f 400/183/162 431/198/162 432/211/162
f 386/185/163 418/201/163 419/203/163
f 446/210/162 445/208/162 413/192/162
f 401/182/162 433/199/162 431/198/162
f 387/187/163 419/203/163 420/205/163
f 432/211/162 446/210/162 414/194/162
f 434/201/162 433/199/162 401/182/162
f 420/205/163 421/207/163 389/191/163
f 435/203/162 434/201/162 402/185/162
f 421/207/163 422/209/163 390/193/163
f 436/205/162 435/203/162 403/187/162
f 422/209/163 423/196/163 391/181/163
f 405/191/162 437/207/162 436/205/162
f 391/181/163 423/196/163 424/197/163
f 438/209/162 437/207/162 405/191/162
f 424/197/163 425/200/163 393/184/163
f 407/181/162 439/196/162 438/209/162
f 425/200/163 426/202/163 394/186/163
f 440/197/162 439/196/162 407/181/162
f 426/202/163 427/204/163 395/188/163
f 451/212/356 450/385/356 447/213/356
f 448/215/357 449/392/357 451/212/357
f 457/216/358 456/400/358 453/217/358
f 454/219/359 455/359/359 457/216/359
f 463/220/360 462/364/360 459/221/360
f 460/223/361 461/369/361 463/220/361
f 469/224/362 468/376/362 465/225/362
f 466/227/363 467/381/363 469/224/363
f 475/228/364 474/390/364 471/229/364
f 472/231/365 473/396/365 475/228/365
f 481/232/366 480/403/366 477/233/366
f 478/235/367 479/360/367 481/232/367
f 487/236/368 486/367/368 483/237/368
f 484/239/369 485/372/369 487/236/369
f 493/240/370 492/379/370 489/241/370
f 490/243/371 491/384/371 493/240/371
f 499/244/372 498/394/372 495/245/372
f 496/247/373 497/399/373 499/244/373
f 505/248/374 504/356/374 501/249/374
f 502/251/375 503/363/375 505/248/375
f 511/252/376 510/370/376 507/253/376
f 508/255/377 509/375/377 511/252/377
f 517/256/378 516/382/378 513/257/378
f 514/259/379 515/389/379 517/256/379
f 523/260/380 522/397/380 519/261/380
f 520/263/381 521/402/381 523/260/381
f 529/264/382 528/361/382 525/265/382
f 526/267/383 527/366/383 529/264/383
f 535/268/384 534/373/384 531/269/384
f 532/271/385 533/378/385 535/268/385
f 541/272/386 540/387/386 537/273/386
f 538/275/387 539/393/387 541/272/387
f 547/276/388 544/386/388 543/277/388
f 546/279/389 545/278/389 543/277/389
f 553/281/390 550/401/390 549/282/390
f 552/284/391 551/283/391 549/282/391
f 559/286/392 556/365/392 555/287/392
f 558/289/393 557/288/393 555/287/393
f 565/291/394 562/377/394 561/292/394
f 564/294/395 563/293/395 561/292/395
f 571/296/396 568/391/396 567/297/396
f 570/299/397 569/298/397 567/297/397
f 577/301/398 574/358/398 573/302/398
f 576/304/399 575/303/399 573/302/399
f 583/306/400 580/368/400 579/307/400
f 582/309/401 581/308/401 579/307/401
f 589/311/402 586/380/402 585/312/402
f 588/314/403 587/313/403 585/312/403
f 595/316/404 592/395/404 591/317/404
f 594/319/405 593/318/405 591/317/405
f 601/321/406 598/357/406 597/322/406
f 600/324/407 599/323/407 597/322/407
f 607/326/408 604/371/408 603/327/408
f 606/329/409 605/328/409 603/327/409
f 613/331/410 610/383/410 609/332/410
f 612/334/411 611/333/411 609/332/411
f 619/336/412 616/398/412 615/337/412
f 618/339/413 617/338/413 615/337/413
f 625/341/414 622/362/414 621/342/414
f 624/344/415 623/343/415 621/342/415
f 631/346/416 628/374/416 627/347/416
f 630/349/417 629/348/417 627/347/417
f 637/351/418 634/388/418 633/352/418
f 636/354/419 635/353/419 633/352/419
f 504/356/420 505/248/420 597/322/420
f 477/233/229 480/403/229 574/358/229
f 455/359/421 554/285/421 549/282/421
f 478/235/231 576/304/231 578/305/231
f 528/361/422 529/264/422 621/342/422
f 501/249/233 504/356/233 598/357/233
f 479/360/423 578/305/423 573/302/423
f 502/251/235 600/324/235 602/325/235
f 462/364/424 463/220/424 555/287/424
f 525/265/237 528/361/237 622/362/237
f 503/363/425 602/325/425 597/322/425
f 526/267/239 624/344/239 626/345/239
f 486/367/426 487/236/426 579/307/426
f 459/221/241 462/364/241 556/365/241
f 527/366/427 626/345/427 621/342/427
f 460/223/243 558/289/243 560/290/243
f 510/370/428 511/252/428 603/327/428
f 483/237/245 486/367/245 580/368/245
f 461/369/429 560/290/429 555/287/429
f 484/239/247 582/309/247 584/310/247
f 534/373/430 535/268/430 627/347/430
f 507/253/249 510/370/249 604/371/249
f 485/372/431 584/310/431 579/307/431
f 508/255/251 606/329/251 608/330/251
f 468/376/432 469/224/432 561/292/432
f 531/269/253 534/373/253 628/374/253
f 509/375/433 608/330/433 603/327/433
f 532/271/255 630/349/255 632/350/255
f 492/379/434 493/240/434 585/312/434
f 465/225/257 468/376/257 562/377/257
f 533/378/435 632/350/435 627/347/435
f 466/227/259 564/294/259 566/295/259
f 516/382/436 517/256/436 609/332/436
f 489/241/261 492/379/261 586/380/261
f 467/381/437 566/295/437 561/292/437
f 490/243/263 588/314/263 590/315/263
f 450/385/438 451/212/438 543/277/438
f 540/387/439 541/272/439 633/352/439
f 513/257/266 516/382/266 610/383/266
f 491/384/440 590/315/440 585/312/440
f 514/259/268 612/334/268 614/335/268
f 474/390/441 475/228/441 567/297/441
f 447/213/270 450/385/270 544/386/270
f 537/273/271 540/387/271 634/388/271
f 515/389/442 614/335/442 609/332/442
f 448/215/273 546/279/273 548/280/273
f 538/275/274 636/354/274 638/355/274
f 498/394/443 499/244/443 591/317/443
f 471/229/276 474/390/276 568/391/276
f 449/392/444 548/280/444 543/277/444
f 539/393/445 638/355/445 633/352/445
f 472/231/279 570/299/279 572/300/279
f 522/397/446 523/260/446 615/337/446
f 495/245/281 498/394/281 592/395/281
f 473/396/447 572/300/447 567/297/447
f 496/247/283 594/319/283 596/320/283
f 456/400/448 457/216/448 549/282/448
f 519/261/285 522/397/285 616/398/285
f 497/399/449 596/320/449 591/317/449
f 520/263/287 618/339/287 620/340/287
f 480/403/450 481/232/450 573/302/450
f 453/217/289 456/400/289 550/401/289
f 521/402/451 620/340/451 615/337/451
f 454/219/291 552/284/291 554/285/291
f 640/404/292 642/407/292 641/405/292
f 642/407/293 644/409/293 643/408/293
f 644/409/294 646/411/294 645/410/294
f 646/411/295 648/524/295 647/412/295
f 647/412/296 648/524/296 650/413/296
f 649/414/297 650/413/297 652/415/297
f 651/416/298 652/415/298 654/417/298
f 653/418/299 654/417/299 640/404/299
f 656/419/300 658/422/300 657/420/300
f 658/422/301 660/424/301 659/423/301
f 660/424/302 662/426/302 661/425/302
f 662/426/303 664/525/303 663/427/303
f 663/427/304 664/525/304 666/428/304
f 665/429/305 666/428/305 668/430/305
f 667/431/306 668/430/306 670/432/306
f 669/433/307 670/432/307 656/419/307
f 672/434/308 674/437/308 673/435/308
f 674/437/309 676/439/309 675/438/309
f 676/439/310 678/441/310 677/440/310
f 678/441/311 680/526/311 679/442/311
f 679/442/312 680/526/312 682/443/312
f 681/444/313 682/443/313 684/445/313
f 683/446/314 684/445/314 686/447/314
f 685/448/315 686/447/315 672/434/315
f 688/449/316 690/452/316 689/450/316
f 690/452/317 692/454/317 691/453/317
f 692/454/318 694/456/318 693/455/318
f 694/456/319 696/527/319 695/457/319
f 695/457/320 696/527/320 698/458/320
f 697/459/321 698/458/321 700/460/321
f 699/461/322 700/460/322 702/462/322
f 701/463/323 702/462/323 688/449/323
f 704/464/452 706/467/452 705/465/452
f 706/467/325 708/469/325 707/468/325
f 708/469/326 710/471/326 709/470/326
f 710/471/327 712/528/327 711/472/327
f 711/472/328 712/528/328 714/473/328
f 713/474/329 714/473/329 716/475/329
f 715/476/330 716/475/330 718/477/330
f 717/478/453 718/477/453 704/464/453
f 720/479/454 722/482/454 721/480/454
f 722/482/333 724/484/333 723/483/333
f 724/484/334 726/486/334 725/485/334
f 726/486/335 728/529/335 727/487/335
f 727/487/336 728/529/336 730/488/336
f 729/489/337 730/488/337 732/490/337
f 731/491/338 732/490/338 734/492/338
f 733/493/339 734/492/339 720/479/339
f 736/494/340 738/497/340 737/495/340
f 738/497/341 740/499/341 739/498/341
f 740/499/455 742/501/455 741/500/455
f 742/501/343 744/530/343 743/502/343
f 743/502/344 744/530/344 746/503/344
f 745/504/345 746/503/345 748/505/345
f 747/506/346 748/505/346 750/507/346
f 749/508/347 750/507/347 736/494/347
f 752/509/456 754/512/456 753/510/456
f 754/512/349 756/514/349 755/513/349
f 756/514/350 758/516/350 757/515/350
f 758/516/351 760/531/351 759/517/351
f 759/517/352 760/531/352 762/518/352
f 761/519/353 762/518/353 764/520/353
f 763/521/354 764/520/354 766/522/354
f 765/523/355 766/522/355 752/509/355
o Bld_Windmill_Middle_01
v -0.005319 7.680086 -0.282151
v 0.004623 7.680086 -0.282151
v -0.005319 7.702765 -0.282151
v 0.004624 7.702765 -0.282151
v -0.005319 7.702765 -0.792483
v -0.005319 7.680086 -0.792483
v 0.004623 7.680086 -0.792483
v 0.004624 7.702765 -0.792483
v -0.005319 7.585315 -0.282151
v 0.004624 7.585315 -0.282151
v -0.005319 7.607993 -0.282151
v 0.004624 7.607993 -0.282151
v -0.005319 7.607993 -0.792483
v -0.005319 7.585315 -0.792483
v 0.004624 7.585315 -0.792483
v 0.004624 7.607993 -0.792483
v 0.033067 7.761799 -0.282152
v 0.033067 7.761799 0.334078
v 0.090341 7.723457 -0.282152
v 0.090341 7.723457 0.334078
v 0.123408 7.657047 -0.282152
v 0.123408 7.657047 0.334078
v 0.123408 7.580364 -0.282152
v 0.123408 7.580364 0.334078
v -0.123408 7.580364 -0.282152
v -0.123408 7.580364 0.334078
v -0.123408 7.657047 -0.282152
v -0.123408 7.657047 0.334078
v -0.090341 7.723457 -0.282152
v -0.090341 7.723457 0.334078
v -0.033067 7.761799 -0.282152
v -0.033067 7.761799 0.334078
v 0.009530 7.704255 0.236223
v -0.009940 7.704085 0.236223
v -0.023587 7.690198 0.236223
v -0.023417 7.670728 0.236223
v -0.009530 7.657082 0.236223
v 0.009940 7.657251 0.236223
v 0.023587 7.671139 0.236223
v 0.023417 7.690608 0.236223
v 0.023417 7.690608 0.654499
v 0.023587 7.671139 0.654499
v 0.009940 7.657251 0.654499
v -0.009530 7.657082 0.654499
v -0.023417 7.670728 0.654499
v -0.023587 7.690198 0.654499
v -0.009940 7.704085 0.654499
v 0.009530 7.704255 0.654499
v -0.011613 7.708027 0.707743
v 0.011134 7.708225 0.707743
v -0.027557 7.691802 0.707743
v -0.027359 7.669055 0.707743
v -0.011134 7.653111 0.707743
v 0.011613 7.653310 0.707743
v 0.027557 7.669535 0.707743
v 0.027358 7.692281 0.707743
v 0.027358 7.692281 0.654499
v 0.011613 7.653310 0.654499
v -0.027359 7.669055 0.654499
v -0.011613 7.708027 0.654499
v 0.027557 7.669535 0.654499
v -0.011134 7.653111 0.654499
v -0.027557 7.691802 0.654499
v 0.011134 7.708225 0.654499
v 0.007151 7.578707 -0.787039
v 0.007151 7.705605 -0.787039
v -0.000600 7.436809 -1.355471
v -0.000600 7.847508 -1.355471
v 0.006159 7.506480 -0.871197
v 0.006159 7.777833 -0.871198
v -0.007848 7.578707 -0.786862
v -0.007848 7.705605 -0.786863
v -0.015598 7.436809 -1.355262
v -0.015598 7.847508 -1.355262
v -0.008840 7.506480 -0.870999
v -0.008840 7.777833 -0.870999
v -0.129401 7.499630 -0.134387
v -0.129401 7.499630 0.134385
v 0.129401 7.499630 0.134385
v 0.129401 7.499630 -0.134387
v -0.129401 7.539207 -0.134387
v -0.129401 7.539207 0.134385
v 0.129401 7.539207 0.134385
v 0.129401 7.539207 -0.134387
v -0.146353 7.539207 -0.211369
v -0.146353 7.539207 0.211368
v 0.146353 7.539207 0.211368
v 0.146353 7.539207 -0.211369
v -0.146353 7.580364 -0.211369
v -0.146353 7.580364 0.211368
v 0.146353 7.580364 0.211368
v 0.146353 7.580364 -0.211369
vn 1.0000 -0.0000 -0.0000
vn -1.0000 -0.0000 -0.0000
vn -0.0000 -1.0000 -0.0000
vn -0.0000 1.0000 -0.0000
vn 0.5563 0.8310 -0.0000
vn 0.8952 0.4457 -0.0000
vn -0.0000 -0.0000 -1.0000
vn -0.0000 -0.0000 1.0000
vn -0.8952 0.4457 -0.0000
vn -0.5563 0.8310 -0.0000
vn -0.7133 0.7009 -0.0000
vn -0.7009 -0.7133 -0.0000
vn 0.7133 -0.7009 -0.0000
vn 0.7009 0.7133 -0.0000
vn -0.0087 1.0000 -0.0000
vn -1.0000 -0.0087 -0.0000
vn 0.0087 -1.0000 -0.0000
vn 1.0000 0.0087 -0.0000
vn 0.7132 -0.7009 -0.0000
vn 0.9999 -0.0000 -0.0118
vn 0.9999 -0.0000 -0.0140
vn -0.9999 -0.0000 0.0118
vn -0.9999 -0.0000 0.0140
vn 0.0020 -0.9898 0.1424
vn 0.0077 0.7588 0.6513
vn 0.0019 0.9898 0.1424
vn 0.0086 -0.7589 0.6512
vn 0.0118 -0.0000 0.9999
vn -0.0140 -0.0000 -0.9999
vn -0.7132 0.7009 -0.0000
vn 0.0019 -0.9898 0.1424
vn 0.0086 0.7589 0.6512
vn 0.0020 0.9898 0.1424
vn 0.0077 -0.7588 0.6513
vt 0.612638 0.662806
vt 0.612638 0.664685
vt 0.611814 0.664685
vt 0.611814 0.662806
vt 0.612638 0.654954
vt 0.612638 0.656833
vt 0.611814 0.656833
vt 0.611814 0.654954
vt 0.118430 0.944651
vt 0.119299 0.940092
vt 0.119802 0.932195
vt 0.119802 0.923077
vt 0.116556 0.940092
vt 0.117425 0.944651
vt 0.116053 0.923077
vt 0.116053 0.932195
vt 0.610315 0.662030
vt 0.610301 0.663643
vt 0.614209 0.662064
vt 0.613078 0.660914
vt 0.614538 0.661932
vt 0.613217 0.660587
vt 0.611465 0.660900
vt 0.609988 0.661892
vt 0.611293 0.665120
vt 0.611431 0.664794
vt 0.614521 0.663816
vt 0.613044 0.664808
vt 0.614195 0.663677
vt 0.611332 0.660571
vt 0.609972 0.663776
vt 0.613177 0.665137
vt 0.612847 0.664920
vt 0.612765 0.648423
vt 0.612765 0.670904
vt 0.612205 0.642651
vt 0.612205 0.676676
vt 0.611605 0.664920
vt 0.611522 0.648423
vt 0.611605 0.654407
vt 0.611522 0.670904
vt 0.610962 0.642651
vt 0.612847 0.654407
vt 0.610962 0.676676
vt 0.095711 0.990980
vt 0.099732 0.990980
vt 0.099732 0.994213
vt 0.095711 0.994213
vt 0.115705 0.918183
vt 0.120150 0.918183
vt 0.120150 0.923077
vt 0.115705 0.923077
s 0
usemtl Texture_Map
f 773/532/457 770/533/457 768/532/457
f 771/534/458 767/535/458 769/534/458
f 772/535/459 768/532/459 767/535/459
f 781/536/457 778/537/457 776/536/457
f 779/538/458 775/539/458 777/538/458
f 782/537/460 777/538/460 778/537/460
f 780/539/459 776/536/459 775/539/459
f 784/540/461 785/541/461 783/540/461
f 786/541/462 787/542/462 785/541/462
f 787/542/457 790/543/457 789/543/457
f 795/544/463 797/545/463 785/541/463
f 792/546/464 790/543/464 788/542/464
f 790/543/459 791/546/459 789/543/459
f 792/546/458 793/547/458 791/546/458
f 793/547/465 796/544/465 795/544/465
f 796/544/466 797/545/466 795/544/466
f 798/545/460 783/540/460 797/545/460
f 802/548/463 801/549/463 805/550/463
f 809/551/463 827/552/463 824/553/463
f 810/554/463 825/555/463 811/548/463
f 812/549/463 826/556/463 813/557/463
f 808/550/463 823/558/463 827/552/463
f 801/549/467 813/557/467 800/557/467
f 803/554/468 811/548/468 802/548/468
f 805/550/469 809/551/469 804/551/469
f 799/559/470 807/560/470 806/560/470
f 800/557/471 814/559/471 799/559/471
f 802/548/472 812/549/472 801/549/472
f 804/551/473 810/554/473 803/554/473
f 806/560/474 808/550/474 805/550/474
f 823/558/474 821/552/474 827/552/474
f 824/553/473 819/561/473 828/561/473
f 829/562/472 818/555/472 817/562/472
f 826/556/471 816/563/471 830/563/471
f 830/563/470 822/558/470 823/558/470
f 827/552/475 820/553/475 824/553/475
f 825/555/468 819/561/468 818/555/468
f 826/556/467 817/562/467 815/556/467
f 814/559/463 823/558/463 807/560/463
f 814/559/463 826/556/463 830/563/463
f 811/548/463 829/562/463 812/549/463
f 821/552/464 822/558/464 816/563/464
f 810/554/463 824/553/463 828/561/463
f 832/564/476 835/565/476 836/566/476
f 836/566/477 833/567/477 834/568/477
f 838/569/478 841/570/478 837/571/478
f 842/572/479 839/573/479 841/570/479
f 833/567/480 841/570/480 839/573/480
f 832/564/481 842/572/481 838/569/481
f 834/568/482 842/572/482 836/566/482
f 831/574/483 841/570/483 835/565/483
f 832/564/484 837/571/484 831/574/484
f 833/567/485 840/575/485 834/568/485
f 774/533/460 769/534/460 770/533/460
f 843/576/459 845/577/459 844/576/459
f 845/577/457 850/578/457 849/578/457
f 844/576/458 847/579/458 843/576/458
f 843/576/463 850/578/463 846/577/463
f 845/577/464 848/579/464 844/576/464
f 851/580/459 853/581/459 852/580/459
f 857/582/460 855/583/460 856/583/460
f 853/581/457 858/582/457 857/582/457
f 852/580/458 855/583/458 851/580/458
f 851/580/463 858/582/463 854/581/463
f 853/581/464 856/583/464 852/580/464
f 773/532/457 774/533/457 770/533/457
f 771/534/458 772/535/458 767/535/458
f 772/535/459 773/532/459 768/532/459
f 781/536/457 782/537/457 778/537/457
f 779/538/458 780/539/458 775/539/458
f 782/537/460 779/538/460 777/538/460
f 780/539/459 781/536/459 776/536/459
f 784/540/461 786/541/461 785/541/461
f 786/541/462 788/542/462 787/542/462
f 787/542/457 788/542/457 790/543/457
f 797/545/463 783/540/463 785/541/463
f 785/541/463 787/542/463 793/547/463
f 787/542/463 789/543/463 793/547/463
f 789/543/463 791/546/463 793/547/463
f 793/547/463 795/544/463 785/541/463
f 788/542/464 786/541/464 796/544/464
f 786/541/464 784/540/464 796/544/464
f 784/540/464 798/545/464 796/544/464
f 796/544/464 794/547/464 788/542/464
f 794/547/464 792/546/464 788/542/464
f 790/543/459 792/546/459 791/546/459
f 792/546/458 794/547/458 793/547/458
f 793/547/465 794/547/465 796/544/465
f 796/544/466 798/545/466 797/545/466
f 798/545/460 784/540/460 783/540/460
f 801/549/463 800/557/463 799/559/463
f 799/559/463 806/560/463 801/549/463
f 806/560/463 805/550/463 801/549/463
f 805/550/463 804/551/463 803/554/463
f 803/554/463 802/548/463 805/550/463
f 809/551/463 808/550/463 827/552/463
f 810/554/463 828/561/463 825/555/463
f 812/549/463 829/562/463 826/556/463
f 808/550/463 807/560/463 823/558/463
f 801/549/467 812/549/467 813/557/467
f 803/554/468 810/554/468 811/548/468
f 805/550/469 808/550/469 809/551/469
f 799/559/470 814/559/470 807/560/470
f 800/557/471 813/557/471 814/559/471
f 802/548/472 811/548/472 812/549/472
f 804/551/473 809/551/473 810/554/473
f 806/560/474 807/560/474 808/550/474
f 823/558/474 822/558/474 821/552/474
f 824/553/473 820/553/473 819/561/473
f 829/562/472 825/555/472 818/555/472
f 826/556/471 815/556/471 816/563/471
f 830/563/470 816/563/470 822/558/470
f 827/552/469 821/552/469 820/553/469
f 825/555/468 828/561/468 819/561/468
f 826/556/486 829/562/486 817/562/486
f 814/559/463 830/563/463 823/558/463
f 814/559/463 813/557/463 826/556/463
f 811/548/463 825/555/463 829/562/463
f 816/563/464 815/556/464 817/562/464
f 817/562/464 818/555/464 816/563/464
f 818/555/464 819/561/464 816/563/464
f 819/561/464 820/553/464 816/563/464
f 820/553/464 821/552/464 816/563/464
f 810/554/463 809/551/463 824/553/463
f 832/564/476 831/574/476 835/565/476
f 836/566/477 835/565/477 833/567/477
f 838/569/478 842/572/478 841/570/478
f 842/572/479 840/575/479 839/573/479
f 833/567/487 835/565/487 841/570/487
f 832/564/488 836/566/488 842/572/488
f 834/568/489 840/575/489 842/572/489
f 831/574/490 837/571/490 841/570/490
f 832/564/484 838/569/484 837/571/484
f 833/567/485 839/573/485 840/575/485
f 774/533/460 771/534/460 769/534/460
f 843/576/459 846/577/459 845/577/459
f 845/577/457 846/577/457 850/578/457
f 844/576/458 848/579/458 847/579/458
f 843/576/463 847/579/463 850/578/463
f 845/577/464 849/578/464 848/579/464
f 851/580/459 854/581/459 853/581/459
f 857/582/460 858/582/460 855/583/460
f 853/581/457 854/581/457 858/582/457
f 852/580/458 856/583/458 855/583/458
f 851/580/463 855/583/463 858/582/463
f 853/581/464 857/582/464 856/583/464
