# Blender 4.4.0
# www.blender.org
mtllib Bld_Power_Lines_01.mtl
o Bld_Power_Lines_01
v 0.937796 6.399687 15.335774
v 0.948796 6.388833 15.337558
v 0.937796 6.377978 15.339341
v 0.926796 6.388833 15.337558
v 0.937796 6.107853 13.559565
v 0.948796 6.096908 13.560659
v 0.937796 6.085962 13.561754
v 0.926796 6.096908 13.560659
v 0.937796 5.894686 7.742827
v 0.948796 5.883686 7.742827
v 0.937796 5.872686 7.742827
v 0.926796 5.883686 7.742827
v 0.937796 6.107853 1.926090
v 0.948796 6.096908 1.924994
v 0.937796 6.085962 1.923899
v 0.926796 6.096908 1.924994
v 0.937796 6.399687 0.149879
v 0.948796 6.388833 0.148096
v 0.937796 6.377978 0.146313
v 0.926796 6.388833 0.148096
v -0.937795 6.399687 15.335774
v -0.926795 6.388833 15.337558
v -0.937795 6.377978 15.339341
v -0.948795 6.388833 15.337558
v -0.937795 6.107853 13.559565
v -0.926795 6.096908 13.560659
v -0.937795 6.085962 13.561754
v -0.948795 6.096908 13.560659
v -0.937795 5.894686 7.742827
v -0.926795 5.883686 7.742827
v -0.937795 5.872686 7.742827
v -0.948795 5.883686 7.742827
v -0.937795 6.107853 1.926090
v -0.926795 6.096908 1.924994
v -0.937795 6.085962 1.923899
v -0.948795 6.096908 1.924994
v -0.937795 6.399687 0.149879
v -0.926795 6.388833 0.148096
v -0.937795 6.377978 0.146313
v -0.948795 6.388833 0.148096
v -0.478824 6.399687 15.335774
v -0.467824 6.388833 15.337558
v -0.478824 6.377978 15.339341
v -0.489824 6.388833 15.337558
v -0.478824 6.107853 13.559565
v -0.467824 6.096908 13.560659
v -0.478824 6.085962 13.561754
v -0.489824 6.096908 13.560659
v -0.478824 5.894686 7.742827
v -0.467824 5.883686 7.742827
v -0.478824 5.872686 7.742827
v -0.489824 5.883686 7.742827
v -0.478824 6.107853 1.926090
v -0.467824 6.096908 1.924994
v -0.478824 6.085962 1.923899
v -0.489824 6.096908 1.924994
v -0.478824 6.399687 0.149879
v -0.467824 6.388833 0.148096
v -0.478824 6.377978 0.146313
v -0.489824 6.388833 0.148096
v 0.478826 6.399687 15.335774
v 0.489826 6.388833 15.337558
v 0.478826 6.377978 15.339341
v 0.467826 6.388833 15.337558
v 0.478826 6.107853 13.559565
v 0.489826 6.096908 13.560659
v 0.478826 6.085962 13.561754
v 0.467826 6.096908 13.560659
v 0.478826 5.894686 7.742827
v 0.489826 5.883686 7.742827
v 0.478826 5.872686 7.742827
v 0.467826 5.883686 7.742827
v 0.478826 6.107853 1.926090
v 0.489826 6.096908 1.924994
v 0.478826 6.085962 1.923899
v 0.467826 6.096908 1.924994
v 0.478826 6.399687 0.149879
v 0.489826 6.388833 0.148096
v 0.478826 6.377978 0.146313
v 0.467826 6.388833 0.148096
vn -0.7071 0.6978 -0.1146
vn 0.7071 0.6978 -0.1146
vn 0.7071 -0.6978 0.1146
vn -0.7071 -0.6978 0.1146
vn -0.7064 0.7073 -0.0259
vn 0.7064 0.7073 -0.0259
vn 0.7064 -0.7073 0.0259
vn -0.7064 -0.7073 0.0259
vn -0.7069 0.7069 0.0259
vn 0.7069 0.7069 0.0259
vn 0.7069 -0.7069 -0.0259
vn -0.7069 -0.7069 -0.0259
vn -0.7064 0.6984 0.1147
vn 0.7064 0.6984 0.1147
vn 0.7064 -0.6984 -0.1147
vn -0.7064 -0.6984 -0.1147
vn -0.7064 0.6984 -0.1147
vn 0.7064 0.6984 -0.1147
vn 0.7064 -0.6985 0.1147
vn -0.7064 -0.6985 0.1147
vn -0.7069 0.7069 -0.0259
vn 0.7069 0.7069 -0.0259
vn 0.7069 -0.7069 0.0259
vn -0.7069 -0.7069 0.0259
vn -0.7064 0.7073 0.0259
vn 0.7064 0.7073 0.0259
vn 0.7064 -0.7073 -0.0259
vn -0.7064 -0.7073 -0.0259
vn -0.7071 0.6978 0.1146
vn 0.7071 0.6978 0.1146
vn 0.7071 -0.6978 -0.1146
vn -0.7071 -0.6978 -0.1146
vn -0.7064 0.6985 -0.1147
vn 0.7064 0.6985 -0.1147
vt 0.610443 0.657207
vt 0.610442 0.668391
vt 0.610443 0.668823
vt 0.610444 0.668391
vt 0.610443 0.667959
vt 0.610444 0.656771
vt 0.610442 0.656771
vt 0.610442 0.648284
vt 0.610444 0.648284
vt 0.610443 0.647846
vt 0.610443 0.656336
vt 0.610443 0.648722
vt 0.610444 0.656771
vt 0.610442 0.656771
vt 0.610442 0.668391
vt 0.610444 0.668391
vt 0.610443 0.667959
vt 0.610443 0.656336
vt 0.610270 0.657207
vt 0.610269 0.668391
vt 0.610270 0.668823
vt 0.610271 0.668391
vt 0.610270 0.667959
vt 0.610271 0.656771
vt 0.610269 0.656771
vt 0.610269 0.648284
vt 0.610271 0.648284
vt 0.610270 0.647846
vt 0.610270 0.656336
vt 0.610270 0.648722
vt 0.610271 0.656771
vt 0.610269 0.656771
vt 0.610269 0.668391
vt 0.610271 0.668391
vt 0.610270 0.667959
vt 0.610270 0.656336
vt 0.610312 0.657207
vt 0.610311 0.668391
vt 0.610312 0.668823
vt 0.610313 0.668391
vt 0.610312 0.667959
vt 0.610313 0.656771
vt 0.610311 0.656771
vt 0.610311 0.648284
vt 0.610313 0.648284
vt 0.610312 0.647846
vt 0.610312 0.656336
vt 0.610312 0.648722
vt 0.610313 0.656771
vt 0.610311 0.656771
vt 0.610311 0.668391
vt 0.610313 0.668391
vt 0.610312 0.667959
vt 0.610312 0.656336
vt 0.610400 0.657207
vt 0.610399 0.668391
vt 0.610400 0.668823
vt 0.610402 0.668391
vt 0.610400 0.667959
vt 0.610402 0.656771
vt 0.610399 0.656771
vt 0.610399 0.648284
vt 0.610402 0.648284
vt 0.610400 0.647846
vt 0.610400 0.656336
vt 0.610400 0.648722
vt 0.610402 0.656771
vt 0.610399 0.656771
vt 0.610399 0.668391
vt 0.610402 0.668391
vt 0.610400 0.667959
vt 0.610400 0.656336
vt 0.610443 0.668823
vt 0.610270 0.668823
vt 0.610312 0.668823
vt 0.610400 0.668823
s 0
usemtl Texture_Map
f 5/1/1 4/2/1 1/3/1
f 2/4/2 5/1/2 1/3/2
f 3/5/3 6/6/3 2/4/3
f 8/7/4 3/5/4 4/2/4
f 5/1/5 12/8/5 8/7/5
f 10/9/6 5/1/6 6/6/6
f 11/10/7 6/6/7 7/11/7
f 8/7/8 11/10/8 7/11/8
f 13/1/9 12/8/9 9/12/9
f 10/9/10 13/1/10 9/12/10
f 11/10/11 14/13/11 10/9/11
f 16/14/12 11/10/12 12/8/12
f 13/1/13 20/15/13 16/14/13
f 18/16/14 13/1/14 14/13/14
f 19/17/15 14/13/15 15/18/15
f 16/14/16 19/17/16 15/18/16
f 25/19/1 24/20/1 21/21/1
f 22/22/2 25/19/2 21/21/2
f 23/23/3 26/24/3 22/22/3
f 28/25/4 23/23/4 24/20/4
f 25/19/5 32/26/5 28/25/5
f 30/27/6 25/19/6 26/24/6
f 31/28/7 26/24/7 27/29/7
f 28/25/8 31/28/8 27/29/8
f 33/19/9 32/26/9 29/30/9
f 30/27/10 33/19/10 29/30/10
f 31/28/11 34/31/11 30/27/11
f 36/32/12 31/28/12 32/26/12
f 33/19/13 40/33/13 36/32/13
f 38/34/14 33/19/14 34/31/14
f 39/35/15 34/31/15 35/36/15
f 36/32/16 39/35/16 35/36/16
f 45/37/1 44/38/1 41/39/1
f 42/40/2 45/37/2 41/39/2
f 43/41/3 46/42/3 42/40/3
f 48/43/4 43/41/4 44/38/4
f 45/37/5 52/44/5 48/43/5
f 50/45/6 45/37/6 46/42/6
f 51/46/7 46/42/7 47/47/7
f 48/43/8 51/46/8 47/47/8
f 53/37/9 52/44/9 49/48/9
f 50/45/10 53/37/10 49/48/10
f 51/46/11 54/49/11 50/45/11
f 56/50/12 51/46/12 52/44/12
f 53/37/13 60/51/13 56/50/13
f 58/52/14 53/37/14 54/49/14
f 59/53/15 54/49/15 55/54/15
f 56/50/16 59/53/16 55/54/16
f 65/55/1 64/56/1 61/57/1
f 62/58/2 65/55/2 61/57/2
f 63/59/3 66/60/3 62/58/3
f 68/61/4 63/59/4 64/56/4
f 65/55/5 72/62/5 68/61/5
f 70/63/6 65/55/6 66/60/6
f 71/64/7 66/60/7 67/65/7
f 68/61/8 71/64/8 67/65/8
f 73/55/9 72/62/9 69/66/9
f 70/63/10 73/55/10 69/66/10
f 71/64/11 74/67/11 70/63/11
f 76/68/12 71/64/12 72/62/12
f 73/55/13 80/69/13 76/68/13
f 78/70/14 73/55/14 74/67/14
f 79/71/15 74/67/15 75/72/15
f 76/68/16 79/71/16 75/72/16
f 5/1/17 8/7/17 4/2/17
f 2/4/18 6/6/18 5/1/18
f 3/5/19 7/11/19 6/6/19
f 8/7/20 7/11/20 3/5/20
f 5/1/21 9/12/21 12/8/21
f 10/9/22 9/12/22 5/1/22
f 11/10/23 10/9/23 6/6/23
f 8/7/24 12/8/24 11/10/24
f 13/1/25 16/14/25 12/8/25
f 10/9/26 14/13/26 13/1/26
f 11/10/27 15/18/27 14/13/27
f 16/14/28 15/18/28 11/10/28
f 13/1/29 17/73/29 20/15/29
f 18/16/30 17/73/30 13/1/30
f 19/17/31 18/16/31 14/13/31
f 16/14/32 20/15/32 19/17/32
f 25/19/33 28/25/33 24/20/33
f 22/22/34 26/24/34 25/19/34
f 23/23/19 27/29/19 26/24/19
f 28/25/20 27/29/20 23/23/20
f 25/19/21 29/30/21 32/26/21
f 30/27/22 29/30/22 25/19/22
f 31/28/23 30/27/23 26/24/23
f 28/25/24 32/26/24 31/28/24
f 33/19/25 36/32/25 32/26/25
f 30/27/26 34/31/26 33/19/26
f 31/28/27 35/36/27 34/31/27
f 36/32/28 35/36/28 31/28/28
f 33/19/29 37/74/29 40/33/29
f 38/34/30 37/74/30 33/19/30
f 39/35/31 38/34/31 34/31/31
f 36/32/32 40/33/32 39/35/32
f 45/37/33 48/43/33 44/38/33
f 42/40/34 46/42/34 45/37/34
f 43/41/19 47/47/19 46/42/19
f 48/43/20 47/47/20 43/41/20
f 45/37/21 49/48/21 52/44/21
f 50/45/22 49/48/22 45/37/22
f 51/46/23 50/45/23 46/42/23
f 48/43/24 52/44/24 51/46/24
f 53/37/25 56/50/25 52/44/25
f 50/45/26 54/49/26 53/37/26
f 51/46/27 55/54/27 54/49/27
f 56/50/28 55/54/28 51/46/28
f 53/37/29 57/75/29 60/51/29
f 58/52/30 57/75/30 53/37/30
f 59/53/31 58/52/31 54/49/31
f 56/50/32 60/51/32 59/53/32
f 65/55/17 68/61/17 64/56/17
f 62/58/18 66/60/18 65/55/18
f 63/59/19 67/65/19 66/60/19
f 68/61/20 67/65/20 63/59/20
f 65/55/21 69/66/21 72/62/21
f 70/63/22 69/66/22 65/55/22
f 71/64/23 70/63/23 66/60/23
f 68/61/24 72/62/24 71/64/24
f 73/55/25 76/68/25 72/62/25
f 70/63/26 74/67/26 73/55/26
f 71/64/27 75/72/27 74/67/27
f 76/68/28 75/72/28 71/64/28
f 73/55/29 77/76/29 80/69/29
f 78/70/30 77/76/30 73/55/30
f 79/71/31 78/70/31 74/67/31
f 76/68/32 80/69/32 79/71/32
