# Blender 4.4.0
# www.blender.org
mtllib Bld_Water_Tower_01.mtl
o Bld_Water_Tower_01
v 1.030406 6.447779 1.392838
v 1.392840 6.447779 1.392838
v 1.030406 6.447779 1.030404
v 1.392840 6.447779 1.030404
v 1.495336 -0.000001 1.604725
v 1.495336 -0.000001 1.967159
v 1.857769 -0.000001 1.967159
v 1.857769 -0.000001 1.604725
v -1.030398 6.447779 1.392838
v -1.392832 6.447779 1.392838
v -1.030398 6.447779 1.030404
v -1.392832 6.447779 1.030404
v -1.495328 -0.000001 1.604725
v -1.495328 -0.000001 1.967159
v -1.857762 -0.000001 1.967159
v -1.857762 -0.000001 1.604725
v 1.030406 6.447781 -1.392829
v 1.392840 6.447781 -1.392829
v 1.030406 6.447781 -1.030396
v 1.392840 6.447781 -1.030396
v 1.495336 0.000001 -1.604725
v 1.495336 0.000001 -1.967159
v 1.857769 0.000001 -1.967159
v 1.857769 0.000001 -1.604725
v -1.030398 6.447781 -1.392829
v -1.392832 6.447781 -1.392829
v -1.030398 6.447781 -1.030396
v -1.392832 6.447781 -1.030396
v -1.495328 0.000001 -1.604725
v -1.495328 0.000001 -1.967159
v -1.857762 0.000001 -1.967159
v -1.857762 0.000001 -1.604725
v -1.667773 7.630873 -1.103873
v -1.667773 7.790430 -1.103873
v -1.667773 8.797539 -1.103872
v -1.667773 8.957097 -1.103872
v -1.963256 8.957097 -0.381616
v -1.963256 8.797539 -0.381616
v -1.963256 7.790429 -0.381616
v -1.963256 7.630872 -0.381616
v 1.667770 7.630871 1.103876
v 1.667770 7.790428 1.103876
v 1.667770 8.797539 1.103877
v 1.667770 8.957097 1.103877
v 1.963253 8.957097 0.381621
v 1.963253 8.797539 0.381620
v 1.963253 7.790429 0.381620
v 1.963253 7.630872 0.381620
v -1.959851 8.957097 0.398738
v -1.959851 8.797539 0.398738
v -1.959851 7.790429 0.398737
v -1.959851 7.630872 0.398737
v 1.959848 8.957097 -0.398733
v 1.959848 8.797539 -0.398734
v 1.959848 7.790429 -0.398734
v 1.959848 7.630872 -0.398734
v -1.658077 8.957097 1.118388
v -1.658077 8.797539 1.118388
v -1.658077 7.790428 1.118387
v -1.658077 7.630871 1.118387
v 1.658074 8.957097 -1.118383
v 1.658074 8.797539 -1.118383
v 1.658074 7.790430 -1.118384
v 1.658074 7.630873 -1.118384
v -1.103875 8.957095 1.667774
v -1.103875 8.797537 1.667774
v -1.103875 7.790428 1.667773
v -1.103875 7.630871 1.667773
v 1.103873 8.957099 -1.667769
v 1.103873 8.797541 -1.667769
v 1.103873 7.790430 -1.667770
v 1.103873 7.630873 -1.667770
v -0.381619 8.957095 1.963257
v -0.381619 8.797537 1.963257
v -0.381619 7.790428 1.963256
v -0.381619 7.630871 1.963256
v 0.381617 7.630873 -1.963253
v 0.381617 7.790430 -1.963253
v 0.381617 8.797541 -1.963252
v 0.381617 8.957099 -1.963252
v -0.398737 8.957099 -1.959847
v -0.398737 8.797541 -1.959847
v -0.398737 7.790430 -1.959848
v -0.398737 7.630873 -1.959848
v 0.398735 8.957095 1.959852
v 0.398735 8.797537 1.959852
v 0.398735 7.790428 1.959851
v 0.398735 7.630871 1.959851
v -1.118387 8.957099 -1.658073
v -1.118387 8.797541 -1.658073
v -1.118387 7.790430 -1.658074
v -1.118387 7.630873 -1.658074
v 1.118385 8.957095 1.658078
v 1.118385 8.797537 1.658078
v 1.118385 7.790428 1.658077
v 1.118385 7.630871 1.658077
v -1.667773 9.380873 -1.103871
v -1.667773 9.540429 -1.103871
v 1.667770 9.380873 1.103877
v 1.667770 9.540429 1.103877
v 0.381617 9.380875 -1.963252
v 0.381617 9.540431 -1.963252
v -1.963256 9.540429 -0.381615
v -1.963256 9.380873 -0.381615
v 1.963253 9.540429 0.381621
v 1.963253 9.380873 0.381621
v -1.959851 9.540429 0.398739
v -1.959851 9.380873 0.398739
v 1.959848 9.540429 -0.398733
v 1.959848 9.380873 -0.398733
v -1.658077 9.540429 1.118389
v -1.658077 9.380873 1.118389
v 1.658074 9.540429 -1.118383
v 1.658074 9.380873 -1.118383
v -1.103875 9.540427 1.667774
v -1.103875 9.380871 1.667774
v 1.103873 9.540431 -1.667769
v 1.103873 9.380875 -1.667769
v -0.381619 9.540427 1.963257
v -0.381619 9.380871 1.963257
v -0.398737 9.540431 -1.959847
v -0.398737 9.380875 -1.959847
v 0.398735 9.540427 1.959852
v 0.398735 9.380871 1.959852
v -1.118387 9.540431 -1.658072
v -1.118387 9.380875 -1.658072
v 1.118385 9.540427 1.658078
v 1.118385 9.380871 1.658078
v -1.963256 7.047539 -0.381617
v -1.963256 7.207096 -0.381617
v 1.963253 7.047539 0.381619
v 1.963253 7.207096 0.381619
v -1.959851 7.047539 0.398737
v -1.959851 7.207096 0.398737
v 1.959848 7.047539 -0.398735
v 1.959848 7.207096 -0.398735
v -1.658077 7.047538 1.118387
v -1.658077 7.207095 1.118387
v 1.658074 7.047540 -1.118385
v 1.658074 7.207097 -1.118384
v -1.103875 7.047538 1.667773
v -1.103875 7.207095 1.667773
v 1.103873 7.047540 -1.667770
v 1.103873 7.207097 -1.667770
v -0.381619 7.047538 1.963256
v -0.381619 7.207095 1.963256
v -0.398737 7.047540 -1.959849
v -0.398737 7.207097 -1.959848
v 0.398735 7.047538 1.959851
v 0.398735 7.207095 1.959851
v -1.118387 7.047540 -1.658074
v -1.118387 7.207097 -1.658074
v 1.118385 7.047538 1.658077
v 1.118385 7.207095 1.658077
v -1.667773 7.207097 -1.103873
v -1.667773 7.047540 -1.103873
v 1.667770 7.207095 1.103876
v 1.667770 7.047538 1.103875
v 0.381617 7.207097 -1.963253
v 0.381617 7.047540 -1.963253
v 1.701247 7.630871 1.126033
v 1.701247 7.790428 1.126033
v 1.140833 7.790428 1.691359
v 1.140833 7.630871 1.691359
v 1.701247 8.797539 1.126034
v 1.701247 8.957097 1.126034
v 1.140833 8.957095 1.691359
v 1.140833 8.797537 1.691359
v -1.701249 7.630873 -1.126030
v -1.701249 7.790430 -1.126030
v -1.140836 7.790430 -1.691355
v -1.140836 7.630873 -1.691355
v -1.701249 8.797539 -1.126029
v -1.701249 8.957097 -1.126029
v -1.140836 8.957099 -1.691355
v -1.140836 8.797541 -1.691355
v 0.406738 7.790428 1.999190
v 0.406738 7.630871 1.999190
v 0.406738 8.957095 1.999191
v 0.406738 8.797537 1.999191
v -0.406741 7.790430 -1.999187
v -0.406741 7.630873 -1.999187
v -0.406741 8.957099 -1.999186
v -0.406741 8.797541 -1.999186
v -0.389279 7.790428 2.002664
v -0.389279 7.630871 2.002663
v -0.389279 8.957095 2.002664
v -0.389279 8.797537 2.002664
v 0.389277 7.630873 -2.002661
v 0.389277 7.790430 -2.002660
v 1.126030 7.790430 -1.701246
v 1.126030 7.630873 -1.701246
v 0.389277 8.797541 -2.002660
v 0.389277 8.957099 -2.002660
v 1.126030 8.957099 -1.701245
v 1.126030 8.797541 -1.701245
v -1.126033 7.790428 1.701249
v -1.126033 7.630871 1.701249
v -1.126033 8.957095 1.701250
v -1.126033 8.797537 1.701250
v 1.691356 7.790430 -1.140833
v 1.691356 7.630873 -1.140833
v 1.691356 8.957097 -1.140832
v 1.691356 8.797539 -1.140832
v -1.691358 7.790428 1.140836
v -1.691358 7.630871 1.140836
v -1.691358 8.957097 1.140837
v -1.691358 8.797539 1.140837
v 1.999187 7.790429 -0.406738
v 1.999187 7.630872 -0.406738
v 1.999187 8.957097 -0.406737
v 1.999187 8.797539 -0.406737
v -1.999190 7.790429 0.406741
v -1.999190 7.630872 0.406741
v -1.999190 8.957097 0.406742
v -1.999190 8.797539 0.406742
v 2.002661 7.790429 0.389280
v 2.002661 7.630872 0.389280
v 2.002661 8.957097 0.389281
v 2.002661 8.797539 0.389280
v -2.002663 7.790429 -0.389276
v -2.002663 7.630872 -0.389277
v -2.002663 8.957097 -0.389276
v -2.002663 8.797539 -0.389276
v 1.701247 9.380873 1.126034
v 1.701247 9.540429 1.126034
v 1.140833 9.540427 1.691360
v 1.140833 9.380871 1.691360
v -1.701249 9.380873 -1.126029
v -1.701249 9.540429 -1.126029
v -1.140836 9.540431 -1.691354
v -1.140836 9.380875 -1.691354
v 0.406738 9.540427 1.999191
v 0.406738 9.380871 1.999191
v -0.406741 9.540431 -1.999186
v -0.406741 9.380875 -1.999186
v -0.389279 9.540427 2.002665
v -0.389279 9.380871 2.002665
v 0.389277 9.380875 -2.002659
v 0.389277 9.540431 -2.002659
v 1.126030 9.540431 -1.701245
v 1.126030 9.380875 -1.701245
v -1.126033 9.540427 1.701251
v -1.126033 9.380871 1.701251
v 1.691356 9.540429 -1.140832
v 1.691356 9.380873 -1.140832
v -1.691358 9.540429 1.140837
v -1.691358 9.380873 1.140837
v 1.999187 9.540429 -0.406737
v 1.999187 9.380873 -0.406737
v -1.999190 9.540429 0.406742
v -1.999190 9.380873 0.406742
v 2.002661 9.540429 0.389281
v 2.002661 9.380873 0.389281
v -2.002663 9.540429 -0.389275
v -2.002663 9.380873 -0.389275
v -2.002663 7.047539 -0.389277
v -2.002663 7.207096 -0.389277
v -1.701249 7.207097 -1.126030
v -1.701249 7.047540 -1.126030
v 2.002661 7.047539 0.389279
v 2.002661 7.207096 0.389279
v 1.701247 7.207095 1.126033
v 1.701247 7.047538 1.126033
v -1.999190 7.047539 0.406741
v -1.999190 7.207096 0.406741
v 1.999187 7.047539 -0.406738
v 1.999187 7.207096 -0.406738
v -1.691358 7.047538 1.140836
v -1.691358 7.207095 1.140836
v 1.691356 7.047540 -1.140834
v 1.691356 7.207097 -1.140833
v -1.126033 7.047538 1.701249
v -1.126033 7.207095 1.701249
v 1.126030 7.047540 -1.701247
v 1.126030 7.207097 -1.701246
v -0.389279 7.047538 2.002663
v -0.389279 7.207095 2.002663
v -0.406741 7.047540 -1.999187
v -0.406741 7.207097 -1.999187
v 0.389277 7.207097 -2.002661
v 0.389277 7.047540 -2.002661
v 0.406738 7.047538 1.999190
v 0.406738 7.207095 1.999190
v -1.140836 7.047540 -1.691356
v -1.140836 7.207097 -1.691355
v 1.140833 7.047538 1.691358
v 1.140833 7.207095 1.691358
v 0.452721 10.043986 -2.329054
v -0.473032 10.043986 -2.325015
v -1.326771 10.043986 -1.967013
v -1.978521 10.043984 -1.309551
v -2.329059 10.043984 -0.452720
v -2.325020 10.043984 0.473033
v -1.967018 10.043984 1.326771
v -1.309555 10.043983 1.978521
v -0.452725 10.043983 2.329060
v 0.473028 10.043983 2.325021
v 1.326767 10.043983 1.967018
v 1.978517 10.043984 1.309556
v 2.329055 10.043984 0.452726
v 2.325016 10.043984 -0.473028
v 1.967014 10.043984 -1.326766
v 1.309551 10.043986 -1.978516
v -0.060030 11.448718 -0.295046
v 0.057450 11.448718 -0.295558
v -0.168372 11.448718 -0.249615
v -0.251080 11.448718 -0.166181
v -0.295564 11.448718 -0.057447
v -0.295052 11.448718 0.060033
v -0.249620 11.448718 0.168374
v -0.166187 11.448718 0.251082
v -0.057453 11.448718 0.295567
v 0.060027 11.448718 0.295054
v 0.168368 11.448718 0.249623
v 0.251077 11.448718 0.166189
v 0.295561 11.448718 0.057456
v 0.295048 11.448718 -0.060024
v 0.249617 11.448718 -0.168366
v 0.166183 11.448718 -0.251074
v -0.060030 11.476704 -0.295046
v 0.057450 11.476704 -0.295558
v -0.168372 11.476704 -0.249615
v -0.251080 11.476704 -0.166181
v -0.295564 11.476704 -0.057447
v -0.295052 11.476704 0.060033
v -0.249620 11.476704 0.168374
v -0.166187 11.476704 0.251082
v -0.057453 11.476704 0.295567
v 0.060027 11.476704 0.295054
v 0.168368 11.476704 0.249623
v 0.251077 11.476704 0.166189
v 0.295561 11.476704 0.057456
v 0.295048 11.476704 -0.060024
v 0.249617 11.476704 -0.168366
v 0.166183 11.476704 -0.251074
v -0.063595 11.500397 -0.312564
v 0.060861 11.500397 -0.313107
v -0.178369 11.500397 -0.264435
v -0.265988 11.500397 -0.176048
v -0.313113 11.500397 -0.060858
v -0.312570 11.500397 0.063597
v -0.264441 11.500397 0.178371
v -0.176054 11.500397 0.265991
v -0.060864 11.500397 0.313116
v 0.063591 11.500397 0.312573
v 0.178365 11.500397 0.264444
v 0.265985 11.500397 0.176057
v 0.313110 11.500397 0.060867
v 0.312567 11.500397 -0.063588
v 0.264438 11.500397 -0.178362
v 0.176051 11.500397 -0.265982
v -0.000003 11.706194 0.000005
v 1.264045 10.229527 -1.909764
v 1.898661 10.229526 -1.280662
v -0.436994 10.229524 2.248128
v -1.264050 10.229524 1.909770
v -0.456595 10.229527 -2.244223
v 0.436989 10.229527 -2.248121
v 0.456591 10.229524 2.244229
v -1.280667 10.229527 -1.898661
v 1.280663 10.229524 1.898667
v -1.909769 10.229526 -1.264044
v 1.909765 10.229526 1.264050
v -2.248127 10.229526 -0.436988
v 2.248122 10.229526 0.436994
v -2.244228 10.229526 0.456596
v 2.244223 10.229526 -0.456590
v -1.898666 10.229526 1.280668
v -2.261905 6.543983 2.261912
v 2.261913 6.543983 2.261912
v -2.261905 6.543986 -2.261906
v 2.261913 6.543986 -2.261906
v -2.261905 6.447778 2.261912
v 2.261913 6.447778 2.261912
v -2.261905 6.447782 -2.261906
v 2.261913 6.447782 -2.261906
v -1.623477 6.447779 1.623485
v 1.623486 6.447779 1.623485
v -1.623477 6.447781 -1.623477
v 1.623486 6.447781 -1.623477
v -1.623477 6.238334 -1.623478
v -1.623477 6.238332 1.623485
v 1.623486 6.238332 1.623485
v 1.623486 6.238334 -1.623478
v -1.716694 1.837282 1.803579
v 1.716699 1.837282 1.803579
v -1.703409 2.022400 1.787090
v 1.703412 2.022400 1.787090
v -1.703409 2.022400 1.857492
v -1.716694 1.837282 1.857491
v 1.716699 1.837282 1.857491
v 1.703412 2.022400 1.857492
v -1.716694 1.837284 -1.801263
v 1.716699 1.837284 -1.801263
v -1.703409 2.022402 -1.784774
v 1.703412 2.022402 -1.784774
v -1.703409 2.022403 -1.855175
v -1.716694 1.837284 -1.855175
v 1.716699 1.837284 -1.855175
v 1.703412 2.022403 -1.855175
v 1.728438 1.837282 1.800369
v 1.728438 1.837284 -1.801763
v 1.711950 2.022400 1.787018
v 1.711950 2.022402 -1.788410
v 1.782351 2.022400 1.787018
v 1.782351 1.837282 1.800369
v 1.782351 1.837284 -1.801763
v 1.782351 2.022402 -1.788410
v -1.726103 1.837282 1.800369
v -1.726103 1.837284 -1.801763
v -1.709615 2.022400 1.787018
v -1.709615 2.022402 -1.788410
v -1.780016 2.022400 1.787018
v -1.780016 1.837282 1.800369
v -1.780016 1.837284 -1.801763
v -1.780016 2.022402 -1.788410
v -1.545775 4.203758 1.592681
v 1.545782 4.203758 1.592681
v -1.532503 4.388876 1.576198
v 1.532509 4.388876 1.576198
v -1.532503 4.388876 1.641810
v -1.545775 4.203758 1.641810
v 1.545782 4.203758 1.641810
v 1.532509 4.388876 1.641810
v -1.545775 4.203760 -1.590361
v 1.545782 4.203760 -1.590361
v -1.532503 4.388878 -1.573878
v 1.532509 4.388878 -1.573878
v -1.532503 4.388878 -1.639490
v -1.545775 4.203760 -1.639491
v 1.545782 4.203760 -1.639491
v 1.532509 4.388878 -1.639490
v 1.557577 4.203758 1.592737
v 1.557577 4.203760 -1.592734
v 1.541094 4.388876 1.576228
v 1.541094 4.388878 -1.576225
v 1.606706 4.388876 1.576228
v 1.606706 4.203758 1.592737
v 1.606706 4.203760 -1.592734
v 1.606706 4.388878 -1.576225
v -1.555242 4.203758 1.592737
v -1.555242 4.203760 -1.592734
v -1.538759 4.388876 1.576228
v -1.538759 4.388878 -1.576225
v -1.604372 4.388876 1.576228
v -1.604371 4.203758 1.592737
v -1.604371 4.203760 -1.592734
v -1.604371 4.388878 -1.576225
v 1.228117 2.013647 1.780554
v 1.382556 2.018047 1.787582
v -1.382935 4.214705 1.572287
v -1.219522 4.212026 1.580013
v -1.382935 4.214705 1.619439
v 1.228117 2.013647 1.827705
v 1.382556 2.018046 1.834734
v -1.219522 4.212026 1.627164
v -1.222439 2.016466 1.773754
v -1.384368 2.015055 1.781360
v 1.382122 4.212197 1.566000
v 1.230010 4.218917 1.572828
v 1.382122 4.212197 1.628452
v -1.222439 2.016466 1.836206
v -1.384368 2.015054 1.843812
v 1.230010 4.218917 1.635280
v 1.228117 2.013649 -1.778237
v 1.382556 2.018049 -1.785265
v -1.382935 4.214707 -1.569968
v -1.219522 4.212028 -1.577693
v -1.382935 4.214707 -1.617120
v 1.228117 2.013649 -1.825388
v 1.382556 2.018049 -1.832417
v -1.219522 4.212028 -1.624845
v -1.222439 2.016468 -1.771437
v -1.384368 2.015057 -1.779043
v 1.382122 4.212199 -1.563680
v 1.230010 4.218919 -1.570509
v 1.382122 4.212199 -1.626132
v -1.222439 2.016469 -1.833889
v -1.384368 2.015057 -1.841495
v 1.230010 4.218919 -1.632961
v 1.706214 2.013649 -1.225792
v 1.713242 2.018049 -1.380232
v 1.535661 4.214705 1.385261
v 1.543386 4.212026 1.221848
v 1.582812 4.214705 1.385261
v 1.753365 2.013649 -1.225792
v 1.760394 2.018049 -1.380232
v 1.590538 4.212026 1.221848
v 1.699414 2.016466 1.224764
v 1.707020 2.015055 1.386693
v 1.529373 4.212199 -1.379796
v 1.536201 4.218919 -1.227684
v 1.591825 4.212199 -1.379796
v 1.761866 2.016466 1.224764
v 1.769472 2.015055 1.386693
v 1.598653 4.218919 -1.227684
v -1.703878 2.013649 -1.225792
v -1.710906 2.018049 -1.380231
v -1.533324 4.214705 1.385261
v -1.541049 4.212026 1.221848
v -1.580476 4.214705 1.385261
v -1.751030 2.013649 -1.225792
v -1.758058 2.018049 -1.380231
v -1.588202 4.212026 1.221848
v -1.697078 2.016466 1.224764
v -1.704684 2.015055 1.386693
v -1.527037 4.212199 -1.379795
v -1.533865 4.218919 -1.227684
v -1.589489 4.212199 -1.379795
v -1.759530 2.016466 1.224764
v -1.767136 2.015055 1.386693
v -1.596317 4.218919 -1.227684
v 1.151493 4.378381 1.581603
v 1.276562 4.381944 1.587294
v -1.177058 6.267230 1.412943
v -1.044722 6.265060 1.419199
v -1.177058 6.267230 1.451127
v 1.151493 4.378381 1.619787
v 1.276562 4.381944 1.625479
v -1.044722 6.265060 1.457383
v -1.149161 4.378381 1.578075
v -1.274230 4.381944 1.585803
v 1.179390 6.267230 1.411508
v 1.047054 6.265059 1.420001
v 1.179390 6.267230 1.463348
v -1.149161 4.378381 1.629916
v -1.274230 4.381944 1.637643
v 1.047054 6.265059 1.471841
v 1.151493 4.378383 -1.579283
v 1.276562 4.381946 -1.584974
v -1.177058 6.267232 -1.410620
v -1.044721 6.265062 -1.416876
v -1.177058 6.267232 -1.448805
v 1.151493 4.378383 -1.617467
v 1.276562 4.381946 -1.623159
v -1.044721 6.265061 -1.455061
v -1.149160 4.378383 -1.575755
v -1.274230 4.381946 -1.583483
v 1.179390 6.267232 -1.409185
v 1.047054 6.265061 -1.417679
v 1.179390 6.267232 -1.461026
v -1.149160 4.378383 -1.627596
v -1.274230 4.381946 -1.635323
v 1.047054 6.265061 -1.469519
v 1.544655 4.378383 -1.149167
v 1.550346 4.381946 -1.274235
v 1.413960 6.267230 1.179385
v 1.420216 6.265060 1.047049
v 1.452145 6.267230 1.179385
v 1.582840 4.378383 -1.149167
v 1.588531 4.381946 -1.274235
v 1.458401 6.265060 1.047049
v 1.541128 4.378381 1.151487
v 1.548855 4.381944 1.276556
v 1.412525 6.267232 -1.177063
v 1.421018 6.265061 -1.044726
v 1.464365 6.267232 -1.177063
v 1.592968 4.378381 1.151487
v 1.600695 4.381944 1.276556
v 1.472859 6.265061 -1.044726
v -1.542319 4.378383 -1.149167
v -1.548011 4.381946 -1.274235
v -1.411625 6.267230 1.179385
v -1.417881 6.265060 1.047049
v -1.449810 6.267230 1.179385
v -1.580504 4.378383 -1.149167
v -1.586195 4.381946 -1.274235
v -1.456065 6.265060 1.047049
v -1.538792 4.378381 1.151487
v -1.546519 4.381944 1.276556
v -1.410189 6.267232 -1.177063
v -1.418683 6.265061 -1.044726
v -1.462030 6.267232 -1.177063
v -1.590632 4.378380 1.151487
v -1.598360 4.381944 1.276556
v -1.470523 6.265061 -1.044726
v -0.032384 0.005308 2.845896
v 0.032391 0.005308 2.845896
v -0.032384 6.626532 2.254539
v 0.032391 6.626532 2.254539
v -0.633817 0.005308 2.845896
v -0.569042 0.005308 2.845896
v -0.633817 6.626532 2.254539
v -0.569042 6.626532 2.254539
v -0.032384 0.012108 2.922028
v 0.032391 0.012108 2.922028
v -0.032384 6.633331 2.330671
v 0.032391 6.633331 2.330671
v -0.633817 0.012108 2.922028
v -0.569042 0.012108 2.922028
v -0.633817 6.633331 2.330671
v -0.569042 6.633331 2.330671
v -0.032382 6.328350 2.339427
v -0.032382 6.292238 2.342652
v -0.032382 6.324826 2.299969
v -0.032382 6.288713 2.303194
v -0.569043 6.328350 2.339427
v -0.569043 6.292238 2.342652
v -0.569043 6.324826 2.299969
v -0.569043 6.288713 2.303194
v -0.032382 5.906553 2.377098
v -0.032382 5.870440 2.380324
v -0.032382 5.903029 2.337640
v -0.032382 5.866916 2.340866
v -0.569043 5.906553 2.377098
v -0.569043 5.870440 2.380324
v -0.569043 5.903029 2.337640
v -0.569043 5.866916 2.340866
v -0.032382 5.484756 2.414770
v -0.032382 5.448643 2.417995
v -0.032382 5.481232 2.375312
v -0.032382 5.445119 2.378537
v -0.569043 5.484756 2.414770
v -0.569043 5.448643 2.417995
v -0.569043 5.481232 2.375312
v -0.569043 5.445119 2.378537
v -0.032382 5.062958 2.452442
v -0.032382 5.026845 2.455667
v -0.032382 5.059434 2.412984
v -0.032382 5.023322 2.416209
v -0.569042 5.062958 2.452442
v -0.569042 5.026845 2.455667
v -0.569042 5.059434 2.412984
v -0.569042 5.023322 2.416209
v -0.032382 4.641161 2.490113
v -0.032382 4.605048 2.493339
v -0.032382 4.637637 2.450655
v -0.032382 4.601524 2.453881
v -0.569042 4.641161 2.490113
v -0.569042 4.605048 2.493339
v -0.569042 4.637637 2.450655
v -0.569042 4.601524 2.453881
v -0.032382 4.219364 2.527785
v -0.032382 4.183251 2.531011
v -0.032382 4.215839 2.488327
v -0.032382 4.179727 2.491553
v -0.569042 4.219364 2.527786
v -0.569042 4.183251 2.531011
v -0.569042 4.215839 2.488327
v -0.569042 4.179727 2.491553
v -0.032382 3.797566 2.565457
v -0.032382 3.761454 2.568682
v -0.032382 3.794043 2.525999
v -0.032382 3.757930 2.529224
v -0.569042 3.797566 2.565457
v -0.569042 3.761454 2.568682
v -0.569042 3.794043 2.525999
v -0.569042 3.757930 2.529224
v -0.032382 3.375769 2.603129
v -0.032382 3.339657 2.606354
v -0.032382 3.372245 2.563671
v -0.032382 3.336132 2.566896
v -0.569042 3.375769 2.603129
v -0.569042 3.339657 2.606354
v -0.569042 3.372245 2.563671
v -0.569042 3.336132 2.566896
v -0.032382 2.953972 2.640800
v -0.032382 2.917859 2.644026
v -0.032382 2.950447 2.601342
v -0.032382 2.914335 2.604568
v -0.569042 2.953972 2.640800
v -0.569042 2.917859 2.644026
v -0.569042 2.950447 2.601342
v -0.569042 2.914335 2.604568
v -0.032382 2.532174 2.678472
v -0.032382 2.496062 2.681697
v -0.032382 2.528650 2.639014
v -0.032382 2.492537 2.642239
v -0.569042 2.532174 2.678472
v -0.569042 2.496062 2.681697
v -0.569042 2.528650 2.639014
v -0.569042 2.492537 2.642239
v -0.032382 2.110377 2.716144
v -0.032382 2.074264 2.719369
v -0.032382 2.106853 2.676686
v -0.032382 2.070740 2.679911
v -0.569042 2.110377 2.716144
v -0.569042 2.074264 2.719369
v -0.569042 2.106853 2.676686
v -0.569042 2.070740 2.679911
v -0.032382 1.688580 2.753816
v -0.032382 1.652467 2.757041
v -0.032382 1.685056 2.714357
v -0.032382 1.648943 2.717583
v -0.569042 1.688580 2.753816
v -0.569042 1.652467 2.757041
v -0.569042 1.685056 2.714357
v -0.569042 1.648943 2.717583
v -0.032382 1.266783 2.791488
v -0.032382 1.230669 2.794713
v -0.032382 1.263259 2.752029
v -0.032382 1.227146 2.755255
v -0.569042 1.266783 2.791488
v -0.569042 1.230669 2.794713
v -0.569042 1.263259 2.752029
v -0.569042 1.227146 2.755255
v -0.032382 0.844985 2.829159
v -0.032382 0.808872 2.832385
v -0.032382 0.841462 2.789701
v -0.032382 0.805349 2.792926
v -0.569042 0.844985 2.829159
v -0.569042 0.808872 2.832385
v -0.569042 0.841462 2.789701
v -0.569042 0.805349 2.792926
v -0.032382 0.423188 2.866831
v -0.032382 0.387075 2.870056
v -0.032382 0.419663 2.827373
v -0.032382 0.383550 2.830598
v -0.569042 0.423188 2.866831
v -0.569042 0.387075 2.870057
v -0.569042 0.419663 2.827373
v -0.569042 0.383550 2.830598
v 0.386202 6.543985 -1.961378
v -0.403306 6.543985 -1.957933
v -0.393783 6.543985 -1.959870
v -1.121875 6.543985 -1.654556
v -1.113818 6.543985 -1.659990
v -1.664285 6.543985 -1.107392
v -1.963234 6.543984 -0.376663
v -1.961380 6.543984 -0.386203
v -1.957935 6.543984 0.403306
v -1.959872 6.543984 0.393782
v -1.659992 6.543983 1.113818
v -1.107394 6.543983 1.664284
v -0.376665 6.543983 1.963234
v -0.386205 6.543983 1.961379
v 0.393780 6.543983 1.959872
v 1.121873 6.543983 1.654558
v 1.113816 6.543983 1.659992
v 1.669646 6.543983 1.099290
v 1.664282 6.543983 1.107394
v 1.963232 6.543984 0.376665
v 1.961377 6.543984 0.386204
v 1.957932 6.543984 -0.403304
v 1.959870 6.543984 -0.393781
v 1.654556 6.543985 -1.121873
v 1.659990 6.543985 -1.113816
v 1.099288 6.543985 -1.669647
v 0.386202 10.043986 -1.961375
v -0.393783 10.043986 -1.959868
v -0.403306 10.043986 -1.957931
v -1.113818 10.043986 -1.659988
v -1.121875 10.043986 -1.654554
v -1.664285 10.043984 -1.107390
v -1.961380 10.043984 -0.386201
v -1.963234 10.043984 -0.376660
v -1.959872 10.043984 0.393785
v -1.957935 10.043984 0.403308
v -1.659992 10.043984 1.113820
v -1.107394 10.043983 1.664287
v -0.386205 10.043983 1.961382
v -0.376665 10.043983 1.963236
v 0.393780 10.043983 1.959874
v 1.113816 10.043983 1.659994
v 1.121873 10.043983 1.654560
v 1.664282 10.043984 1.107396
v 1.669646 10.043984 1.099292
v 1.961377 10.043984 0.386207
v 1.963232 10.043984 0.376667
v 1.959870 10.043984 -0.393778
v 1.957932 10.043984 -0.403302
v 1.659990 10.043984 -1.113814
v 1.654556 10.043984 -1.121871
v 1.099288 10.043986 -1.669645
v -0.013515 6.543985 -1.961529
v -0.753993 6.543985 -1.810878
v -1.396568 6.543985 -1.377455
v -1.389592 6.543985 -1.384492
v -1.817390 6.543985 -0.738160
v -1.961575 6.543984 0.003605
v -1.807048 6.543983 0.763131
v -1.810880 6.543983 0.753993
v -1.377458 6.543983 1.396568
v -1.384495 6.543983 1.389592
v -0.738162 6.543983 1.817390
v 0.013512 6.543983 1.961531
v 0.763129 6.543983 1.807047
v 1.396565 6.543983 1.377457
v 1.817388 6.543983 0.738161
v 1.813636 6.543983 0.747333
v 1.961572 6.543984 -0.003604
v 1.807045 6.543985 -0.763129
v 1.810877 6.543985 -0.753991
v 1.384492 6.543985 -1.389590
v 0.738159 6.543985 -1.817388
v 0.747330 6.543985 -1.813636
v -0.013515 10.043986 -1.961527
v -0.753993 10.043986 -1.810876
v -1.389592 10.043984 -1.384490
v -1.396568 10.043984 -1.377453
v -1.817390 10.043984 -0.738157
v -1.961575 10.043984 0.003608
v -1.810880 10.043984 0.753995
v -1.807048 10.043984 0.763133
v -1.384495 10.043984 1.389594
v -1.377458 10.043984 1.396570
v -0.738162 10.043983 1.817392
v 0.013512 10.043983 1.961533
v 0.763129 10.043983 1.807050
v 1.396565 10.043984 1.377459
v 1.813636 10.043984 0.747335
v 1.817388 10.043984 0.738164
v 1.961572 10.043984 -0.003601
v 1.810877 10.043984 -0.753989
v 1.807045 10.043984 -0.763126
v 1.384492 10.043984 -1.389588
v 0.747330 10.043986 -1.813634
v 0.738159 10.043986 -1.817386
v -1.643685 6.543985 -1.087930
v -1.643685 10.043984 -1.087928
v -1.934901 10.043984 -0.376103
v -1.934901 6.543984 -0.376106
v 1.643683 6.543983 1.087932
v 1.643683 10.043984 1.087934
v 1.934898 10.043984 0.376110
v 1.934898 6.543984 0.376107
v -1.931545 10.043984 0.392980
v -1.931545 6.543984 0.392978
v 1.931542 10.043984 -0.392974
v 1.931542 6.543984 -0.392976
v -1.634129 10.043984 1.102236
v -1.634129 6.543983 1.102234
v 1.634127 10.043984 -1.102230
v 1.634127 6.543985 -1.102232
v -1.087932 10.043983 1.643687
v -1.087932 6.543983 1.643685
v 1.087930 10.043986 -1.643681
v 1.087930 6.543985 -1.643683
v -0.376108 10.043983 1.934902
v -0.376108 6.543983 1.934900
v 0.376105 6.543985 -1.934899
v 0.376105 10.043986 -1.934896
v -0.392978 10.043986 -1.931540
v -0.392978 6.543985 -1.931543
v 0.392976 10.043983 1.931547
v 0.392976 6.543983 1.931544
v -1.102235 10.043986 -1.634125
v -1.102235 6.543985 -1.634127
v 1.102232 10.043983 1.634131
v 1.102232 6.543983 1.634129
v 1.372861 10.043984 1.360937
v 1.372861 6.543983 1.360935
v -1.372864 10.043984 -1.360931
v -1.372864 6.543985 -1.360933
v 0.747551 10.043983 1.782714
v 0.747551 6.543983 1.782712
v -0.747554 10.043986 -1.782708
v -0.747554 6.543985 -1.782710
v 0.008434 10.043983 1.933089
v 0.008434 6.543983 1.933087
v 0.731966 10.043986 -1.789163
v 0.731966 6.543985 -1.789165
v -0.008436 10.043986 -1.933083
v -0.008436 6.543985 -1.933085
v -0.731969 10.043983 1.789170
v -0.731969 6.543983 1.789167
v 1.360933 10.043984 -1.372859
v 1.360933 6.543985 -1.372861
v -1.360935 10.043984 1.372865
v -1.360935 6.543983 1.372863
v 1.782710 10.043984 -0.747549
v 1.782710 6.543985 -0.747552
v -1.782712 10.043984 0.747556
v -1.782712 6.543983 0.747554
v 1.933085 10.043984 -0.008432
v 1.933085 6.543984 -0.008434
v -1.933087 10.043984 0.008438
v -1.933087 6.543984 0.008436
v 1.789165 10.043984 0.731971
v 1.789165 6.543983 0.731968
v -1.789168 10.043984 -0.731964
v -1.789168 6.543985 -0.731966
v 0.359741 6.543985 -1.963158
v 0.376330 6.543985 -1.946314
v -1.676056 6.543985 -1.083627
v -1.654146 6.543985 -1.092506
v -1.642541 6.543983 1.133788
v -1.642360 6.543983 1.110147
v -1.083629 6.543983 1.676056
v -1.092508 6.543983 1.654146
v 0.418908 6.543983 1.951391
v 0.397137 6.543983 1.942177
v 1.095771 6.543985 -1.651983
v 1.119409 6.543985 -1.652370
v 0.376330 10.043986 -1.946312
v 0.359741 10.043986 -1.963156
v -1.654146 10.043984 -1.092504
v -1.676056 10.043984 -1.083624
v -1.642360 10.043984 1.110149
v -1.642541 10.043984 1.133790
v -1.092508 10.043983 1.654148
v -1.083629 10.043983 1.676058
v 0.397137 10.043983 1.942179
v 0.418908 10.043983 1.951393
v 1.119409 10.043986 -1.652368
v 1.095771 10.043986 -1.651981
v -0.006434 6.543985 -1.944890
v 0.013315 6.543985 -1.961647
v -0.778736 6.543985 -1.800502
v -0.754009 6.543985 -1.792794
v -1.799308 6.543985 -0.738333
v -1.807231 6.543985 -0.762992
v -1.961458 6.543984 0.030435
v -1.944874 6.543984 0.010540
v -0.738335 6.543983 1.799307
v -0.762994 6.543983 1.807231
v 0.006432 6.543983 1.944891
v -0.013318 6.543983 1.961648
v 0.750220 6.543983 1.794384
v 0.738386 6.543983 1.817423
v 1.379793 6.543983 1.370697
v 1.377677 6.543983 1.396511
v 1.961455 6.543984 -0.030433
v 1.944871 6.543984 -0.010538
v 1.365438 6.543985 -1.408478
v 1.367779 6.543985 -1.382684
v 0.013315 10.043986 -1.961644
v -0.006434 10.043986 -1.944887
v -0.754009 10.043986 -1.792792
v -0.778736 10.043986 -1.800500
v -1.807231 10.043984 -0.762990
v -1.799308 10.043984 -0.738331
v -1.944874 10.043984 0.010542
v -1.961458 10.043984 0.030438
v -0.762994 10.043983 1.807233
v -0.738335 10.043983 1.799309
v -0.013318 10.043983 1.961650
v 0.006432 10.043983 1.944893
v 0.738386 10.043983 1.817425
v 0.750220 10.043983 1.794386
v 1.377677 10.043984 1.396513
v 1.379793 10.043984 1.370699
v 1.944871 10.043984 -0.010536
v 1.961455 10.043984 -0.030431
v 1.367779 10.043984 -1.382682
v 1.365438 10.043984 -1.408476
vn -0.0000 -0.0887 -0.9961
vn -0.0000 0.0887 0.9961
vn 0.9974 0.0719 -0.0000
vn -0.9974 -0.0719 -0.0000
vn -0.9974 0.0719 -0.0000
vn 0.9974 -0.0719 -0.0000
vn -0.0000 -0.0887 0.9961
vn -0.0000 0.0887 -0.9961
vn 0.7102 -0.0000 0.7040
vn -0.7102 -0.0000 -0.7040
vn 0.3867 -0.0000 0.9222
vn -0.3867 -0.0000 -0.9222
vn 0.0044 -0.0000 1.0000
vn 0.3787 -0.0000 -0.9255
vn -0.0044 -0.0000 -1.0000
vn -0.3787 -0.0000 0.9255
vn 0.7040 -0.0000 -0.7102
vn -0.7040 -0.0000 0.7102
vn 0.9222 -0.0000 -0.3867
vn -0.9222 -0.0000 0.3867
vn 1.0000 -0.0000 -0.0044
vn -1.0000 -0.0000 0.0044
vn 0.9255 -0.0000 0.3786
vn -0.9255 -0.0000 -0.3786
vn 0.3786 -0.0000 -0.9255
vn -0.3786 -0.0000 0.9255
vn 0.9255 -0.0000 0.3787
vn -0.9255 -0.0000 -0.3787
vn -0.0000 -1.0000 -0.0000
vn -0.0000 1.0000 -0.0000
vn 0.3731 0.8480 -0.3764
vn 0.2007 0.8480 -0.4905
vn 0.0023 0.8480 0.5300
vn -0.2049 0.8480 -0.4887
vn 0.2049 0.8480 0.4887
vn -0.3764 0.8480 -0.3731
vn 0.3764 0.8480 0.3731
vn -0.4905 0.8480 -0.2007
vn 0.4905 0.8480 0.2007
vn -0.5300 0.8480 0.0023
vn 0.5300 0.8480 -0.0023
vn -0.4887 0.8480 0.2049
vn 0.4887 0.8480 -0.2049
vn -0.3731 0.8480 0.3764
vn -0.2007 0.8480 0.4905
vn 0.7440 -0.5949 0.3044
vn 0.9256 -0.0000 0.3786
vn -0.2125 0.8354 -0.5068
vn -0.8038 -0.5949 0.0035
vn 0.8038 -0.5949 -0.0035
vn -0.7413 -0.5949 0.3108
vn 0.7413 -0.5949 -0.3109
vn -0.5659 -0.5949 0.5709
vn 0.5659 -0.5948 -0.5708
vn -0.3044 -0.5949 0.7440
vn -0.0035 -0.5949 -0.8038
vn 0.3044 -0.5949 -0.7440
vn 0.0035 -0.5949 0.8038
vn -0.3109 -0.5949 -0.7413
vn 0.3108 -0.5949 0.7413
vn -0.5709 -0.5949 -0.5659
vn 0.5709 -0.5949 0.5659
vn -0.7440 -0.5949 -0.3044
vn 0.2125 0.8354 0.5068
vn -0.3903 0.8354 -0.3869
vn 0.3903 0.8354 0.3869
vn -0.5087 0.8354 -0.2081
vn 0.5087 0.8354 0.2081
vn -0.5496 0.8354 0.0024
vn 0.5496 0.8354 -0.0024
vn -0.5068 0.8354 0.2125
vn 0.5068 0.8354 -0.2125
vn -0.3869 0.8354 0.3903
vn 0.3869 0.8354 -0.3903
vn -0.2081 0.8354 0.5087
vn -0.0024 0.8354 -0.5496
vn 0.2081 0.8354 -0.5087
vn 0.0024 0.8354 0.5496
vn -0.6454 0.3995 0.6510
vn 0.8454 0.3995 -0.3545
vn -0.8454 0.3995 0.3545
vn 0.9167 0.3995 -0.0040
vn -0.9167 0.3995 0.0040
vn 0.8485 0.3995 0.3471
vn -0.8485 0.3995 -0.3471
vn 0.6510 0.3995 0.6454
vn -0.6510 0.3995 -0.6454
vn 0.3545 0.3995 0.8454
vn -0.3545 0.3995 -0.8454
vn 0.0040 0.3995 0.9167
vn 0.3471 0.3995 -0.8485
vn -0.0040 0.3995 -0.9167
vn -0.3471 0.3995 0.8485
vn 0.6454 0.3995 -0.6510
vn -0.0023 0.8480 -0.5300
vn -1.0000 -0.0000 -0.0000
vn -0.0000 -0.0000 -1.0000
vn -0.0000 -0.0000 1.0000
vn 1.0000 -0.0000 -0.0000
vn 0.9974 0.0716 -0.0000
vn -0.9974 0.0716 -0.0000
vn -0.9961 -0.0887 -0.0000
vn -0.0000 0.0719 -0.9974
vn -0.0000 0.0719 0.9974
vn 0.9961 -0.0887 -0.0000
vn 0.9974 0.0715 -0.0000
vn -0.9974 0.0715 -0.0000
vn -0.0000 0.0888 -0.9960
vn -0.0000 0.0888 0.9960
vn 0.0465 -0.0392 -0.9981
vn -0.0465 0.0392 0.9981
vn 0.6446 0.7645 -0.0000
vn -0.6445 -0.7646 -0.0000
vn -0.0465 -0.0392 -0.9981
vn 0.0465 0.0392 0.9981
vn -0.6445 0.7646 -0.0000
vn 0.6446 -0.7646 -0.0000
vn 0.0465 -0.0392 0.9981
vn -0.0465 0.0392 -0.9981
vn -0.0465 -0.0392 0.9981
vn 0.0465 0.0392 -0.9981
vn -0.9987 -0.0226 -0.0461
vn 0.9987 0.0218 0.0469
vn -0.0000 0.7645 -0.6446
vn -0.0000 -0.7646 0.6445
vn -0.9987 -0.0230 0.0458
vn 0.9987 0.0220 -0.0467
vn -0.0000 0.7646 0.6445
vn -0.0000 -0.7646 -0.6446
vn 0.9987 -0.0218 -0.0469
vn -0.9987 0.0226 0.0461
vn 0.9987 -0.0220 0.0467
vn -0.9987 0.0230 -0.0458
vn 0.0463 -0.0320 -0.9984
vn -0.0467 0.0316 0.9984
vn 0.6300 0.7766 -0.0000
vn -0.6300 -0.7766 -0.0000
vn -0.0639 -0.0092 -0.9979
vn 0.0620 0.0115 0.9980
vn -0.6300 0.7766 -0.0000
vn 0.6300 -0.7766 -0.0000
vn 0.0467 -0.0316 0.9984
vn -0.0463 0.0320 -0.9984
vn -0.0620 -0.0115 0.9980
vn 0.0639 0.0092 -0.9979
vn -0.9989 -0.0126 -0.0458
vn 0.9988 0.0111 0.0470
vn -0.0000 0.7766 -0.6300
vn -0.0000 -0.7766 0.6300
vn -0.9979 0.0112 0.0642
vn 0.9981 -0.0080 -0.0614
vn -0.0000 0.7766 0.6300
vn -0.0000 -0.7766 -0.6300
vn 0.9988 -0.0111 -0.0470
vn -0.9989 0.0125 0.0458
vn 0.9981 0.0080 0.0614
vn -0.9979 -0.0112 -0.0642
vn -0.0000 -0.0890 -0.9960
vn -0.0000 0.0890 0.9960
vn -0.0000 0.9960 -0.0890
vn -0.0000 -0.9960 0.0890
vn -0.0000 -0.9960 0.0889
vn -0.5318 -0.0000 0.8469
vn -0.6930 -0.0000 -0.7209
vn 0.1758 -0.0000 0.9844
vn -0.9859 -0.0000 -0.1672
vn -0.7269 -0.0000 -0.6867
vn 0.9749 -0.0000 -0.2228
vn 0.8204 -0.0000 0.5718
vn 0.8469 -0.0000 0.5318
vn -0.9312 -0.0000 0.3644
vn -0.9162 -0.0000 -0.4008
vn 0.4008 -0.0000 -0.9162
vn -0.9998 -0.0000 -0.0197
vn -0.9344 -0.0000 -0.3563
vn -0.9996 -0.0000 0.0284
vn 0.9312 -0.0000 -0.3644
vn 0.9996 -0.0000 -0.0284
vn -0.9126 -0.0000 0.4087
vn 0.7209 -0.0000 -0.6931
vn 0.9126 -0.0000 -0.4088
vn -0.7209 -0.0000 0.6931
vn -0.5718 -0.0000 0.8204
vn -0.8154 -0.0000 0.5790
vn 0.5718 -0.0000 -0.8204
vn 0.8154 -0.0000 -0.5790
vn -0.8422 -0.0000 0.5391
vn -0.9749 -0.0000 0.2229
vn -0.9844 -0.0000 0.1758
vn -0.8469 -0.0000 -0.5317
vn 0.9768 -0.0000 0.2143
vn 0.8422 -0.0000 -0.5391
vn 0.9844 -0.0000 -0.1758
vn 0.9859 -0.0000 0.1672
vn -0.9768 -0.0000 -0.2143
vn -0.5790 -0.0000 -0.8154
vn 0.5790 -0.0000 0.8154
vn -0.8204 -0.0000 -0.5718
vn -0.2229 -0.0000 -0.9749
vn -0.6868 -0.0000 0.7269
vn 0.5391 -0.0000 0.8422
vn -0.3563 -0.0000 0.9344
vn 0.2229 -0.0000 0.9749
vn 0.0197 -0.0000 -0.9998
vn -0.5391 -0.0000 -0.8422
vn -0.4008 -0.0000 0.9162
vn 0.1672 -0.0000 -0.9859
vn 0.6867 -0.0000 -0.7269
vn 0.3563 -0.0000 -0.9344
vn -0.1672 -0.0000 0.9859
vn -0.0197 -0.0000 0.9998
vn 0.0284 -0.0000 0.9996
vn 0.5317 -0.0000 -0.8469
vn -0.3644 -0.0000 -0.9312
vn -0.2143 -0.0000 0.9768
vn -0.0284 -0.0000 -0.9996
vn -0.1757 -0.0000 -0.9844
vn 0.3644 -0.0000 0.9312
vn 0.2143 -0.0000 -0.9768
vn 0.4088 -0.0000 0.9126
vn -0.4087 -0.0000 -0.9127
vn 0.6931 -0.0000 0.7209
vn 0.7269 -0.0000 0.6868
vn 0.9162 -0.0000 0.4008
vn 0.9344 -0.0000 0.3563
vn -0.3756 -0.0000 -0.9268
vn -1.0000 -0.0000 -0.0077
vn -0.9268 -0.0000 0.3756
vn -0.0164 -0.0000 -0.9999
vn 0.7125 -0.0000 -0.7017
vn -0.3897 -0.0000 0.9209
vn 0.9967 -0.0000 0.0817
vn 0.8895 -0.0000 0.4569
vn 0.2976 -0.0000 -0.9547
vn 0.6470 -0.0000 0.7625
vn -0.6470 -0.0000 -0.7625
vn 0.3059 -0.0000 0.9521
vn 0.9959 -0.0000 -0.0904
vn 0.7681 -0.0000 0.6403
vn -0.7681 -0.0000 -0.6403
vn -0.9521 -0.0000 0.3059
vn 0.9998 -0.0000 0.0197
vn -0.3786 -0.0000 0.9256
vn 0.3786 -0.0000 -0.9256
vn 0.5659 -0.5949 -0.5709
vn -0.3108 -0.5949 -0.7413
vn 0.3109 -0.5949 0.7413
vn -0.5708 -0.5949 -0.5659
vn 0.6445 -0.7646 -0.0000
vn -0.9987 -0.0218 -0.0469
vn 0.9987 0.0226 0.0461
vn -0.9987 -0.0220 0.0467
vn 0.9987 0.0230 -0.0458
vn 0.9987 -0.0226 -0.0461
vn -0.9987 0.0218 0.0469
vn 0.9987 -0.0230 0.0458
vn -0.9987 0.0220 -0.0467
vn 0.0467 -0.0316 -0.9984
vn -0.0463 0.0320 0.9984
vn -0.0620 -0.0115 -0.9980
vn 0.0639 0.0092 0.9979
vn 0.0463 -0.0320 0.9984
vn -0.0467 0.0316 -0.9984
vn -0.0639 -0.0092 0.9979
vn 0.0620 0.0115 -0.9980
vn -0.9988 -0.0111 -0.0470
vn 0.9989 0.0126 0.0458
vn -0.9981 0.0080 0.0614
vn 0.9979 -0.0112 -0.0642
vn 0.9989 -0.0125 -0.0458
vn -0.9988 0.0111 0.0470
vn 0.9979 0.0112 0.0642
vn -0.9981 -0.0080 -0.0614
vn -0.0000 0.0889 0.9960
vn -0.0000 -0.0889 -0.9960
vn -0.0000 0.9960 -0.0889
vn -0.6931 -0.0000 -0.7209
vn -0.9126 -0.0000 0.4088
vn -0.6867 -0.0000 0.7269
vn -0.1758 -0.0000 -0.9844
vn -0.4087 -0.0000 -0.9126
vn 0.7269 -0.0000 0.6867
vn -1.0000 -0.0000 -0.0076
vt 0.104218 0.983538
vt 0.104523 0.879991
vt 0.103137 0.983538
vt 0.105603 0.879991
vt 0.103772 0.983538
vt 0.103467 0.879991
vt 0.102386 0.879991
vt 0.104853 0.983538
vt 0.599768 0.769441
vt 0.600078 0.702107
vt 0.600078 0.769441
vt 0.599768 0.781250
vt 0.600078 0.713914
vt 0.600078 0.781250
vt 0.598503 0.769441
vt 0.598192 0.702107
vt 0.598192 0.769441
vt 0.598503 0.781250
vt 0.598192 0.713914
vt 0.598192 0.781250
vt 0.599361 0.769441
vt 0.599768 0.702107
vt 0.599361 0.781250
vt 0.599768 0.713914
vt 0.598910 0.769441
vt 0.598503 0.702107
vt 0.598910 0.781250
vt 0.598503 0.713914
vt 0.598919 0.769441
vt 0.599361 0.702107
vt 0.598919 0.781250
vt 0.599361 0.713914
vt 0.599759 0.769441
vt 0.599351 0.702107
vt 0.599351 0.769441
vt 0.599759 0.781250
vt 0.599351 0.713914
vt 0.599351 0.781250
vt 0.598910 0.702107
vt 0.598910 0.713914
vt 0.598511 0.769441
vt 0.598919 0.702107
vt 0.598511 0.781250
vt 0.598919 0.713914
vt 0.600073 0.769441
vt 0.599759 0.702107
vt 0.600073 0.781250
vt 0.599759 0.713914
vt 0.598197 0.769441
vt 0.598511 0.702107
vt 0.598197 0.781250
vt 0.598511 0.713914
vt 0.600243 0.769441
vt 0.600073 0.702107
vt 0.600243 0.781250
vt 0.600073 0.713914
vt 0.598027 0.769441
vt 0.598197 0.702107
vt 0.598027 0.781250
vt 0.598197 0.713914
vt 0.600245 0.769441
vt 0.600243 0.702107
vt 0.600245 0.781250
vt 0.600243 0.713914
vt 0.598025 0.769441
vt 0.598027 0.702107
vt 0.598025 0.781250
vt 0.598027 0.713914
vt 0.600245 0.702107
vt 0.600245 0.713914
vt 0.598025 0.702107
vt 0.598025 0.713914
vt 0.599768 0.780289
vt 0.600078 0.712952
vt 0.600078 0.780289
vt 0.598503 0.780289
vt 0.598192 0.712952
vt 0.598192 0.780289
vt 0.599361 0.780289
vt 0.599768 0.712952
vt 0.598910 0.780289
vt 0.598503 0.712952
vt 0.598919 0.780289
vt 0.599361 0.712952
vt 0.599759 0.780289
vt 0.599351 0.712952
vt 0.599351 0.780289
vt 0.598910 0.712952
vt 0.598511 0.780289
vt 0.598919 0.712952
vt 0.600073 0.780289
vt 0.599759 0.712952
vt 0.598197 0.780289
vt 0.598511 0.712952
vt 0.600243 0.780289
vt 0.600073 0.712952
vt 0.598027 0.780289
vt 0.598197 0.712952
vt 0.600245 0.780289
vt 0.600243 0.712952
vt 0.598025 0.780289
vt 0.598027 0.712952
vt 0.600245 0.712952
vt 0.598025 0.712952
vt 0.598192 0.768458
vt 0.598025 0.701121
vt 0.598025 0.768458
vt 0.600078 0.768458
vt 0.600245 0.701121
vt 0.600245 0.768458
vt 0.598027 0.701121
vt 0.598027 0.768458
vt 0.600243 0.701121
vt 0.600243 0.768458
vt 0.598197 0.701121
vt 0.598197 0.768458
vt 0.600073 0.701121
vt 0.600073 0.768458
vt 0.598511 0.701122
vt 0.598511 0.768458
vt 0.599759 0.701121
vt 0.599759 0.768458
vt 0.598919 0.701122
vt 0.598919 0.768458
vt 0.599351 0.768458
vt 0.598910 0.701121
vt 0.598910 0.768458
vt 0.599351 0.701121
vt 0.599361 0.701122
vt 0.599361 0.768458
vt 0.598503 0.701121
vt 0.598503 0.768458
vt 0.599768 0.701122
vt 0.599768 0.768458
vt 0.598192 0.701121
vt 0.600078 0.701121
vt 0.598211 0.702107
vt 0.598515 0.702107
vt 0.599347 0.780289
vt 0.598523 0.713914
vt 0.598216 0.713914
vt 0.598523 0.701121
vt 0.598216 0.701121
vt 0.600054 0.769441
vt 0.598211 0.781250
vt 0.599347 0.712952
vt 0.599747 0.712952
vt 0.599747 0.768458
vt 0.598914 0.780289
vt 0.600054 0.702107
vt 0.600222 0.702107
vt 0.599747 0.701121
vt 0.600054 0.701121
vt 0.598211 0.713914
vt 0.598515 0.713914
vt 0.600054 0.781250
vt 0.599755 0.769441
vt 0.598523 0.780289
vt 0.598924 0.780289
vt 0.598523 0.768458
vt 0.598924 0.768458
vt 0.600054 0.713914
vt 0.600222 0.713914
vt 0.599755 0.702107
vt 0.599356 0.702107
vt 0.598523 0.712952
vt 0.598216 0.769441
vt 0.599755 0.781250
vt 0.599747 0.780289
vt 0.599347 0.768458
vt 0.598914 0.768458
vt 0.598216 0.702107
vt 0.598049 0.702107
vt 0.599755 0.713914
vt 0.599356 0.713914
vt 0.600054 0.712952
vt 0.598216 0.781250
vt 0.599347 0.701121
vt 0.598515 0.769441
vt 0.598049 0.713914
vt 0.598914 0.702107
vt 0.598216 0.712952
vt 0.600223 0.769441
vt 0.600222 0.769441
vt 0.598515 0.781250
vt 0.600054 0.780289
vt 0.599356 0.768458
vt 0.600223 0.702107
vt 0.598924 0.701122
vt 0.598914 0.713914
vt 0.600222 0.712952
vt 0.600223 0.781250
vt 0.600222 0.781250
vt 0.598924 0.769441
vt 0.599356 0.769441
vt 0.598216 0.780289
vt 0.598515 0.768458
vt 0.600223 0.713914
vt 0.598515 0.701121
vt 0.598914 0.701121
vt 0.598924 0.702107
vt 0.598049 0.712952
vt 0.598047 0.769441
vt 0.598049 0.769441
vt 0.598924 0.781250
vt 0.599356 0.781250
vt 0.600223 0.780289
vt 0.600222 0.780289
vt 0.599755 0.768458
vt 0.598047 0.702107
vt 0.599755 0.701121
vt 0.599356 0.701122
vt 0.598924 0.713914
vt 0.600223 0.712952
vt 0.598047 0.781250
vt 0.598049 0.781250
vt 0.598211 0.768458
vt 0.598047 0.780289
vt 0.598049 0.780289
vt 0.598211 0.701121
vt 0.599347 0.769441
vt 0.598047 0.713914
vt 0.600060 0.768458
vt 0.598047 0.712952
vt 0.600060 0.769441
vt 0.600060 0.701121
vt 0.599347 0.702107
vt 0.599747 0.702107
vt 0.600060 0.780289
vt 0.600060 0.702107
vt 0.600060 0.712952
vt 0.600060 0.781250
vt 0.599347 0.781250
vt 0.598211 0.780289
vt 0.600060 0.713914
vt 0.598211 0.712952
vt 0.598211 0.769441
vt 0.599347 0.713914
vt 0.599747 0.713914
vt 0.598914 0.769441
vt 0.598047 0.768458
vt 0.598914 0.781250
vt 0.598523 0.769441
vt 0.600223 0.768458
vt 0.599755 0.712952
vt 0.598523 0.702107
vt 0.600223 0.701121
vt 0.598523 0.781250
vt 0.598049 0.768458
vt 0.598047 0.701121
vt 0.598515 0.712952
vt 0.599747 0.769441
vt 0.599755 0.780289
vt 0.600222 0.768458
vt 0.599356 0.712952
vt 0.599747 0.781250
vt 0.598515 0.780289
vt 0.598216 0.768458
vt 0.598049 0.701121
vt 0.598914 0.712952
vt 0.599356 0.780289
vt 0.600054 0.768458
vt 0.600222 0.701121
vt 0.598924 0.712952
vt 0.072546 0.810168
vt 0.073561 0.810168
vt 0.076247 0.810168
vt 0.091446 0.906412
vt 0.093199 0.843407
vt 0.092557 0.843407
vt 0.082161 0.866685
vt 0.082840 0.831619
vt 0.082374 0.831619
vt 0.091739 0.843407
vt 0.091219 0.906412
vt 0.090835 0.843407
vt 0.091107 0.906412
vt 0.090815 0.843407
vt 0.089981 0.843407
vt 0.082223 0.866685
vt 0.082386 0.831619
vt 0.082850 0.831619
vt 0.072970 0.819756
vt 0.074733 0.882761
vt 0.073607 0.819756
vt 0.076837 0.819756
vt 0.075074 0.882761
vt 0.076200 0.819756
vt 0.074605 0.882761
vt 0.072628 0.819756
vt 0.091576 0.906412
vt 0.093211 0.843407
vt 0.093553 0.843407
vt 0.080864 0.831619
vt 0.081962 0.866685
vt 0.080862 0.831619
vt 0.075202 0.882761
vt 0.077180 0.819756
vt 0.077176 0.819756
vt 0.089355 0.843407
vt 0.090979 0.906412
vt 0.089005 0.843407
vt 0.075156 0.882761
vt 0.081988 0.866685
vt 0.081416 0.831619
vt 0.082035 0.866685
vt 0.074846 0.882761
vt 0.073624 0.819756
vt 0.074461 0.819756
vt 0.452501 0.734049
vt 0.452372 0.736256
vt 0.452372 0.734049
vt 0.452615 0.745602
vt 0.452787 0.748961
vt 0.452656 0.748961
vt 0.452379 0.741636
vt 0.452611 0.745602
vt 0.452611 0.741636
vt 0.451643 0.731777
vt 0.451341 0.735743
vt 0.451341 0.731777
vt 0.451636 0.731777
vt 0.451962 0.735743
vt 0.451962 0.731777
vt 0.452846 0.734049
vt 0.453014 0.736256
vt 0.453014 0.734049
vt 0.452084 0.741636
vt 0.451758 0.745602
vt 0.451758 0.741636
vt 0.451751 0.741636
vt 0.451450 0.745602
vt 0.451751 0.745602
vt 0.453018 0.734049
vt 0.452850 0.736256
vt 0.452850 0.734049
vt 0.451335 0.731777
vt 0.451106 0.735743
vt 0.451335 0.735743
vt 0.452500 0.731777
vt 0.452270 0.735743
vt 0.452270 0.731777
vt 0.450982 0.731777
vt 0.451106 0.731777
vt 0.452738 0.741636
vt 0.452615 0.741636
vt 0.452301 0.734049
vt 0.452301 0.736256
vt 0.452301 0.734049
vt 0.452622 0.731777
vt 0.452623 0.735743
vt 0.452623 0.731777
vt 0.451225 0.741636
vt 0.451099 0.745602
vt 0.451099 0.741636
vt 0.452496 0.731777
vt 0.452622 0.735743
vt 0.451626 0.739102
vt 0.451308 0.739102
vt 0.451803 0.768272
vt 0.452301 0.736256
vt 0.452273 0.738126
vt 0.452671 0.739102
vt 0.452672 0.739102
vt 0.451225 0.745602
vt 0.451050 0.748961
vt 0.452537 0.739102
vt 0.452501 0.736256
vt 0.452349 0.738126
vt 0.452407 0.748961
vt 0.452652 0.748961
vt 0.451643 0.735743
vt 0.451314 0.739102
vt 0.451972 0.739102
vt 0.452851 0.738126
vt 0.453029 0.738126
vt 0.452084 0.745602
vt 0.451749 0.748961
vt 0.451741 0.748961
vt 0.453018 0.736256
vt 0.452856 0.738126
vt 0.452541 0.739102
vt 0.452298 0.739102
vt 0.450982 0.735743
vt 0.451064 0.739102
vt 0.451979 0.739102
vt 0.450933 0.739102
vt 0.450935 0.739102
vt 0.451068 0.739102
vt 0.452292 0.739102
vt 0.451634 0.739102
vt 0.081020 0.826283
vt 0.081059 0.831619
vt 0.077258 0.810168
vt 0.076826 0.819756
vt 0.088924 0.833819
vt 0.077262 0.810168
vt 0.080818 0.826283
vt 0.080816 0.826283
vt 0.093280 0.833819
vt 0.072901 0.810168
vt 0.082395 0.826283
vt 0.089934 0.833819
vt 0.090798 0.833819
vt 0.090819 0.833819
vt 0.082383 0.826283
vt 0.082866 0.826283
vt 0.074425 0.810168
vt 0.075346 0.819756
vt 0.075362 0.810168
vt 0.073578 0.810168
vt 0.092603 0.833819
vt 0.093269 0.833819
vt 0.074843 0.882761
vt 0.074442 0.819756
vt 0.110585 0.982349
vt 0.113495 0.982349
vt 0.113495 0.949280
vt 0.110585 0.949280
vt 0.113085 0.877285
vt 0.110995 0.877286
vt 0.113085 0.877286
vt 0.110995 0.949280
vt 0.113085 0.949280
vt 0.110995 0.877285
vt 0.199101 0.837773
vt 0.199573 0.839339
vt 0.199575 0.837773
vt 0.199103 0.839339
vt 0.200787 0.837353
vt 0.201373 0.838939
vt 0.201375 0.837353
vt 0.200789 0.838939
vt 0.199124 0.857794
vt 0.199549 0.859360
vt 0.199551 0.857794
vt 0.199126 0.859360
vt 0.200823 0.859215
vt 0.201341 0.857629
vt 0.200821 0.857629
vt 0.201338 0.859215
vt 0.199507 0.839265
vt 0.199169 0.857864
vt 0.199528 0.839303
vt 0.199147 0.857886
vt 0.199169 0.839289
vt 0.199507 0.857922
vt 0.199528 0.857865
vt 0.199147 0.839277
vt 0.201281 0.838864
vt 0.200881 0.857700
vt 0.201306 0.838902
vt 0.200854 0.857723
vt 0.200881 0.838889
vt 0.201281 0.857759
vt 0.201306 0.857701
vt 0.200854 0.838876
vt 0.199497 0.859271
vt 0.199194 0.875233
vt 0.199514 0.859301
vt 0.199175 0.875251
vt 0.199179 0.859271
vt 0.199482 0.875233
vt 0.199500 0.875251
vt 0.199162 0.859301
vt 0.199497 0.859271
vt 0.199514 0.859301
vt 0.199179 0.859271
vt 0.199162 0.859301
vt 0.201269 0.859125
vt 0.200910 0.875290
vt 0.201289 0.859155
vt 0.200888 0.875308
vt 0.200893 0.859125
vt 0.201252 0.875289
vt 0.201273 0.875308
vt 0.200872 0.859155
vt 0.238723 0.993103
vt 0.238547 0.816662
vt 0.238723 0.816662
vt 0.240357 0.993103
vt 0.240181 0.816662
vt 0.240357 0.816662
vt 0.238547 0.816844
vt 0.238723 0.993284
vt 0.238723 0.816844
vt 0.240181 0.816844
vt 0.240357 0.993284
vt 0.240357 0.816844
vt 0.238547 0.993103
vt 0.240181 0.993284
vt 0.240181 0.993103
vt 0.238547 0.993284
vt 0.238723 0.984195
vt 0.240181 0.984101
vt 0.238723 0.984101
vt 0.240181 0.985063
vt 0.238723 0.985157
vt 0.238723 0.985063
vt 0.240181 0.985157
vt 0.240181 0.972955
vt 0.238723 0.972861
vt 0.238723 0.972955
vt 0.240181 0.973823
vt 0.238723 0.973917
vt 0.238723 0.973823
vt 0.240181 0.972861
vt 0.240181 0.973917
vt 0.240181 0.961715
vt 0.238723 0.961621
vt 0.238723 0.961715
vt 0.240181 0.962583
vt 0.238723 0.962677
vt 0.238723 0.962583
vt 0.240181 0.961621
vt 0.240181 0.962677
vt 0.238723 0.950475
vt 0.240181 0.950381
vt 0.238723 0.950381
vt 0.240181 0.951344
vt 0.238723 0.951437
vt 0.238723 0.951344
vt 0.240181 0.951437
vt 0.238723 0.939235
vt 0.240181 0.939141
vt 0.238723 0.939141
vt 0.240181 0.940104
vt 0.238723 0.940198
vt 0.238723 0.940104
vt 0.240181 0.940198
vt 0.238723 0.927995
vt 0.240181 0.927901
vt 0.238723 0.927901
vt 0.240181 0.928864
vt 0.238723 0.928958
vt 0.238723 0.928864
vt 0.240181 0.928958
vt 0.238723 0.916755
vt 0.240181 0.916661
vt 0.238723 0.916661
vt 0.240181 0.917624
vt 0.238723 0.917718
vt 0.238723 0.917624
vt 0.240181 0.917718
vt 0.240181 0.905515
vt 0.238723 0.905421
vt 0.238723 0.905515
vt 0.240181 0.906384
vt 0.238723 0.906478
vt 0.238723 0.906384
vt 0.240181 0.905421
vt 0.240181 0.906478
vt 0.240181 0.894275
vt 0.238723 0.894181
vt 0.238723 0.894275
vt 0.240181 0.895144
vt 0.238723 0.895238
vt 0.238723 0.895144
vt 0.240181 0.894181
vt 0.240181 0.895238
vt 0.238723 0.883035
vt 0.240181 0.882941
vt 0.238723 0.882941
vt 0.240181 0.883904
vt 0.238723 0.883998
vt 0.238723 0.883904
vt 0.240181 0.883998
vt 0.238723 0.871796
vt 0.240181 0.871702
vt 0.238723 0.871702
vt 0.240181 0.872664
vt 0.238723 0.872758
vt 0.238723 0.872664
vt 0.240181 0.872758
vt 0.238723 0.860556
vt 0.240181 0.860462
vt 0.238723 0.860462
vt 0.240181 0.861424
vt 0.238723 0.861518
vt 0.238723 0.861424
vt 0.240181 0.861518
vt 0.238723 0.849316
vt 0.240181 0.849222
vt 0.238723 0.849222
vt 0.240181 0.850184
vt 0.238723 0.850278
vt 0.238723 0.850184
vt 0.240181 0.850278
vt 0.240181 0.838076
vt 0.238723 0.837982
vt 0.238723 0.838076
vt 0.240181 0.838944
vt 0.238723 0.839038
vt 0.238723 0.838944
vt 0.240181 0.837982
vt 0.240181 0.839038
vt 0.238723 0.826836
vt 0.240181 0.826742
vt 0.238723 0.826742
vt 0.240181 0.827704
vt 0.238723 0.827798
vt 0.238723 0.827704
vt 0.240181 0.827798
vt 0.213029 0.537203
vt 0.213030 0.426959
vt 0.213029 0.426959
vt 0.200597 0.416126
vt 0.200585 0.582924
vt 0.200585 0.416126
vt 0.209805 0.537203
vt 0.209804 0.426959
vt 0.209805 0.426959
vt 0.213865 0.536555
vt 0.213651 0.432422
vt 0.213865 0.432422
vt 0.212907 0.537203
vt 0.212789 0.426959
vt 0.212907 0.426959
vt 0.211094 0.537203
vt 0.211406 0.426959
vt 0.211094 0.426959
vt 0.200790 0.582924
vt 0.200780 0.416126
vt 0.200780 0.582924
vt 0.211100 0.537203
vt 0.210811 0.426959
vt 0.211100 0.426959
vt 0.205225 0.582924
vt 0.205240 0.416126
vt 0.205240 0.582924
vt 0.202811 0.416126
vt 0.202814 0.582924
vt 0.202814 0.416126
vt 0.210797 0.537203
vt 0.211086 0.426959
vt 0.210797 0.426959
vt 0.203739 0.582924
vt 0.203302 0.416126
vt 0.203302 0.582924
vt 0.224427 0.578223
vt 0.224628 0.439493
vt 0.224427 0.439493
vt 0.201445 0.582924
vt 0.201109 0.416126
vt 0.201445 0.416126
vt 0.204174 0.416126
vt 0.204184 0.582924
vt 0.204184 0.416126
vt 0.212781 0.537203
vt 0.212902 0.426959
vt 0.212781 0.426959
vt 0.210053 0.537203
vt 0.209932 0.426959
vt 0.210053 0.426959
vt 0.203751 0.416126
vt 0.203754 0.582924
vt 0.203754 0.416126
vt 0.204514 0.582924
vt 0.204522 0.416126
vt 0.204522 0.582924
vt 0.203751 0.582924
vt 0.204188 0.416126
vt 0.203751 0.416126
vt 0.201911 0.416126
vt 0.201904 0.582924
vt 0.201904 0.416126
vt 0.203310 0.582924
vt 0.203315 0.416126
vt 0.203315 0.582924
vt 0.205260 0.582924
vt 0.205081 0.416126
vt 0.205260 0.416126
vt 0.204543 0.582924
vt 0.204879 0.416126
vt 0.204543 0.416126
vt 0.200383 0.582924
vt 0.200562 0.416126
vt 0.200383 0.416126
vt 0.201469 0.582924
vt 0.201463 0.416126
vt 0.201463 0.582924
vt 0.226516 0.578223
vt 0.226717 0.439493
vt 0.226717 0.578223
vt 0.226826 0.578223
vt 0.226937 0.439493
vt 0.226826 0.439493
vt 0.201085 0.582924
vt 0.200752 0.416126
vt 0.200752 0.582924
vt 0.200570 0.582924
vt 0.200387 0.416126
vt 0.200570 0.416126
vt 0.212332 0.537203
vt 0.212044 0.426959
vt 0.212332 0.426959
vt 0.200778 0.582924
vt 0.200765 0.416126
vt 0.200765 0.582924
vt 0.202354 0.582924
vt 0.202353 0.416126
vt 0.202353 0.582924
vt 0.225479 0.578223
vt 0.225739 0.439493
vt 0.225479 0.439493
vt 0.203289 0.416126
vt 0.202333 0.416126
vt 0.202332 0.582924
vt 0.202332 0.416126
vt 0.202333 0.582924
vt 0.202320 0.416126
vt 0.202320 0.582924
vt 0.203310 0.416126
vt 0.203311 0.582924
vt 0.203311 0.416126
vt 0.212024 0.537203
vt 0.211761 0.426959
vt 0.212024 0.426959
vt 0.201451 0.416126
vt 0.201437 0.582924
vt 0.201437 0.416126
vt 0.201451 0.582924
vt 0.201427 0.416126
vt 0.201427 0.582924
vt 0.204192 0.416126
vt 0.204206 0.582924
vt 0.204206 0.416126
vt 0.204192 0.582924
vt 0.204216 0.416126
vt 0.204216 0.582924
vt 0.204534 0.582924
vt 0.204534 0.416126
vt 0.204528 0.582924
vt 0.204558 0.416126
vt 0.204558 0.582924
vt 0.201115 0.416126
vt 0.201094 0.582924
vt 0.201094 0.416126
vt 0.201115 0.582924
vt 0.201085 0.416126
vt 0.204528 0.416126
vt 0.204537 0.582924
vt 0.204537 0.416126
vt 0.203751 0.582924
vt 0.203770 0.416126
vt 0.203770 0.582924
vt 0.201892 0.416126
vt 0.201884 0.582924
vt 0.201884 0.416126
vt 0.201853 0.416126
vt 0.202805 0.582924
vt 0.202805 0.416126
vt 0.202832 0.582924
vt 0.202838 0.416126
vt 0.202838 0.582924
vt 0.203732 0.416126
vt 0.203732 0.582924
vt 0.203739 0.416126
vt 0.201892 0.582924
vt 0.201884 0.416126
vt 0.201884 0.582924
vt 0.202811 0.582924
vt 0.202805 0.416126
vt 0.202805 0.582924
vt 0.202832 0.416126
vt 0.202830 0.582924
vt 0.202830 0.416126
vt 0.201911 0.582924
vt 0.201904 0.416126
vt 0.201904 0.582924
vt 0.204514 0.416126
vt 0.201130 0.416126
vt 0.201100 0.582924
vt 0.201100 0.416126
vt 0.201130 0.582924
vt 0.201109 0.582924
vt 0.209932 0.537203
vt 0.210040 0.426959
vt 0.209932 0.426959
vt 0.205038 0.416126
vt 0.205073 0.582924
vt 0.205073 0.416126
vt 0.200778 0.416126
vt 0.205038 0.582924
vt 0.205068 0.416126
vt 0.205068 0.582924
vt 0.200416 0.416126
vt 0.200605 0.416126
vt 0.200416 0.582924
vt 0.200381 0.416126
vt 0.200381 0.582924
vt 0.200605 0.582924
vt 0.200575 0.416126
vt 0.200575 0.582924
vt 0.204865 0.582924
vt 0.204897 0.416126
vt 0.204897 0.582924
vt 0.205225 0.416126
vt 0.205260 0.582924
vt 0.205260 0.416126
vt 0.204865 0.416126
vt 0.204891 0.582924
vt 0.204891 0.416126
vt 0.205258 0.582924
vt 0.205260 0.416126
vt 0.205258 0.416126
vt 0.205227 0.416126
vt 0.200418 0.416126
vt 0.200383 0.582924
vt 0.200383 0.416126
vt 0.205227 0.582924
vt 0.205262 0.416126
vt 0.205262 0.582924
vt 0.224000 0.578223
vt 0.223998 0.439493
vt 0.224000 0.439493
vt 0.200420 0.416126
vt 0.200385 0.582924
vt 0.200385 0.416126
vt 0.205046 0.416126
vt 0.205076 0.582924
vt 0.205076 0.416126
vt 0.200420 0.582924
vt 0.200387 0.582924
vt 0.205046 0.582924
vt 0.205081 0.582924
vt 0.205223 0.416126
vt 0.200418 0.582924
vt 0.200404 0.416126
vt 0.200404 0.582924
vt 0.205223 0.582924
vt 0.205256 0.416126
vt 0.205256 0.582924
vt 0.200597 0.582924
vt 0.200562 0.582924
vt 0.200790 0.416126
vt 0.200758 0.582924
vt 0.200758 0.416126
vt 0.224431 0.578223
vt 0.224238 0.439493
vt 0.224431 0.439493
vt 0.204853 0.416126
vt 0.204885 0.582924
vt 0.204885 0.416126
vt 0.204853 0.582924
vt 0.204879 0.582924
vt 0.201469 0.416126
vt 0.201873 0.582924
vt 0.201474 0.416126
vt 0.201873 0.416126
vt 0.231206 0.533387
vt 0.231328 0.441694
vt 0.231206 0.441694
vt 0.204174 0.582924
vt 0.204188 0.582924
vt 0.202354 0.416126
vt 0.202341 0.582924
vt 0.202341 0.416126
vt 0.200738 0.582924
vt 0.200738 0.416126
vt 0.200779 0.582924
vt 0.200779 0.416126
vt 0.201474 0.582924
vt 0.204213 0.416126
vt 0.204213 0.582924
vt 0.203269 0.582924
vt 0.203289 0.416126
vt 0.203269 0.416126
vt 0.203342 0.582924
vt 0.203342 0.416126
vt 0.203740 0.416126
vt 0.203740 0.582924
vt 0.201853 0.582924
vt 0.202838 0.416126
vt 0.202838 0.582924
vt 0.204519 0.582924
vt 0.204519 0.416126
vt 0.205260 0.582924
vt 0.200383 0.582924
vt 0.200383 0.416126
vt 0.200575 0.416126
vt 0.200575 0.582924
vt 0.203289 0.582924
vt 0.203289 0.582924
vt 0.076230 0.810168
vt 0.076895 0.810168
vt 0.076907 0.810168
vt 0.075383 0.810168
vt 0.074445 0.810168
vt 0.072912 0.810168
vt 0.072550 0.810168
vt 0.091530 0.906412
vt 0.082222 0.866685
vt 0.091338 0.906412
vt 0.091217 0.906412
vt 0.082162 0.866685
vt 0.074650 0.882761
vt 0.075158 0.882761
vt 0.091531 0.906412
vt 0.081962 0.866685
vt 0.075203 0.882761
vt 0.091025 0.906412
vt 0.074736 0.882761
vt 0.452738 0.745602
vt 0.452379 0.745602
vt 0.451636 0.735743
vt 0.452846 0.736256
vt 0.451450 0.741636
vt 0.452500 0.735743
vt 0.452496 0.735743
vt 0.452274 0.738126
vt 0.451183 0.748961
vt 0.452485 0.738126
vt 0.452094 0.748961
vt 0.451423 0.748961
vt 0.453033 0.738126
vt 0.081390 0.826283
vt 0.089286 0.833819
vt 0.093635 0.833819
vt 0.082876 0.826283
vt 0.091756 0.833819
vt 0.074962 0.882761
vt 0.240181 0.984195
vt 0.240181 0.950475
vt 0.240181 0.939235
vt 0.240181 0.927995
vt 0.240181 0.916755
vt 0.240181 0.883035
vt 0.240181 0.871796
vt 0.240181 0.860556
vt 0.240181 0.849316
vt 0.240181 0.826836
vt 0.213030 0.537203
vt 0.209804 0.537203
vt 0.213651 0.536555
vt 0.212789 0.537203
vt 0.211406 0.537203
vt 0.210811 0.537203
vt 0.211086 0.537203
vt 0.224628 0.578223
vt 0.212902 0.537203
vt 0.209932 0.537203
vt 0.226516 0.439493
vt 0.226937 0.578223
vt 0.212044 0.537203
vt 0.225739 0.578223
vt 0.211761 0.537203
vt 0.210040 0.537203
vt 0.223998 0.578223
vt 0.224238 0.578223
vt 0.231328 0.533387
s 0
usemtl Texture_Map
f 4/1/1 5/2/1 3/3/1
f 6/2/2 2/1/2 1/3/2
f 2/1/3 8/4/3 4/1/3
f 5/2/4 1/3/4 3/3/4
f 12/5/1 13/6/1 16/7/1
f 10/5/2 14/6/2 9/8/2
f 10/5/5 16/7/5 15/7/5
f 9/8/6 13/6/6 11/8/6
f 20/1/7 21/2/7 24/4/7
f 18/1/8 22/2/8 17/3/8
f 18/1/3 24/4/3 23/4/3
f 17/3/4 21/2/4 19/3/4
f 28/5/7 29/6/7 27/8/7
f 30/6/8 26/5/8 25/8/8
f 26/5/5 32/7/5 28/5/5
f 29/6/6 25/8/6 27/8/6
f 163/9/9 161/10/9 162/11/9
f 167/12/9 165/13/9 166/14/9
f 171/15/10 169/16/10 170/17/10
f 175/18/10 173/19/10 174/20/10
f 177/21/11 164/22/11 163/9/11
f 179/23/11 168/24/11 167/12/11
f 181/25/12 172/26/12 171/15/12
f 183/27/12 176/28/12 175/18/12
f 185/29/13 178/30/13 177/21/13
f 187/31/13 180/32/13 179/23/13
f 191/33/14 189/34/14 190/35/14
f 195/36/14 193/37/14 194/38/14
f 190/35/15 182/39/15 181/25/15
f 194/38/15 184/40/15 183/27/15
f 197/41/16 186/42/16 185/29/16
f 199/43/16 188/44/16 187/31/16
f 201/45/17 192/46/17 191/33/17
f 203/47/17 196/48/17 195/36/17
f 205/49/18 198/50/18 197/41/18
f 207/51/18 200/52/18 199/43/18
f 209/53/19 202/54/19 201/45/19
f 211/55/19 204/56/19 203/47/19
f 213/57/20 206/58/20 205/49/20
f 215/59/20 208/60/20 207/51/20
f 217/61/21 210/62/21 209/53/21
f 219/63/21 212/64/21 211/55/21
f 221/65/22 214/66/22 213/57/22
f 223/67/22 216/68/22 215/59/22
f 162/11/23 218/69/23 217/61/23
f 166/14/23 220/70/23 219/63/23
f 170/17/24 222/71/24 221/65/24
f 174/20/24 224/72/24 223/67/24
f 227/73/9 225/74/9 226/75/9
f 231/76/10 229/77/10 230/78/10
f 233/79/11 228/80/11 227/73/11
f 235/81/12 232/82/12 231/76/12
f 237/83/13 234/84/13 233/79/13
f 241/85/25 239/86/25 240/87/25
f 240/87/15 236/88/15 235/81/15
f 243/89/26 238/90/26 237/83/26
f 245/91/17 242/92/17 241/85/17
f 247/93/18 244/94/18 243/89/18
f 249/95/19 246/96/19 245/91/19
f 251/97/20 248/98/20 247/93/20
f 253/99/21 250/100/21 249/95/21
f 255/101/22 252/102/22 251/97/22
f 226/75/27 254/103/27 253/99/27
f 230/78/28 256/104/28 255/101/28
f 259/105/24 257/106/24 258/107/24
f 263/108/23 261/109/23 262/110/23
f 258/107/22 265/111/22 266/112/22
f 262/110/21 267/113/21 268/114/21
f 266/112/20 269/115/20 270/116/20
f 268/114/19 271/117/19 272/118/19
f 270/116/18 273/119/18 274/120/18
f 272/118/17 275/121/17 276/122/17
f 274/120/26 277/123/26 278/124/26
f 281/125/15 279/126/15 280/127/15
f 276/122/25 282/128/25 281/125/25
f 278/124/13 283/129/13 284/130/13
f 280/127/12 285/131/12 286/132/12
f 284/130/11 287/133/11 288/134/11
f 286/132/10 260/135/10 259/105/10
f 288/134/9 264/136/9 263/108/9
f 33/137/29 172/26/29 92/138/29
f 102/139/30 241/85/30 240/87/30
f 66/140/29 208/60/29 58/141/29
f 141/142/29 269/115/29 137/143/29
f 63/144/30 209/53/30 201/45/30
f 36/145/30 175/18/30 174/20/30
f 101/146/29 242/92/29 118/147/29
f 144/148/30 272/118/30 276/122/30
f 102/139/30 235/81/30 121/149/30
f 64/150/29 210/62/29 56/151/29
f 143/152/29 271/117/29 139/153/29
f 35/154/29 176/28/29 90/155/29
f 101/146/29 236/88/29 239/86/29
f 61/156/30 211/55/30 203/47/30
f 95/157/30 177/21/30 163/9/30
f 115/158/30 237/83/30 119/159/30
f 142/160/30 278/124/30 146/161/30
f 62/162/29 212/64/29 54/163/29
f 141/142/29 277/123/29 273/119/29
f 96/164/29 178/30/29 88/165/29
f 116/166/29 238/90/29 244/94/29
f 59/167/30 213/57/30 205/49/30
f 93/168/30 179/23/30 167/12/30
f 117/169/30 245/91/30 241/85/30
f 159/170/30 280/127/30 148/171/30
f 60/172/29 214/66/29 52/173/29
f 94/174/29 180/32/29 86/175/29
f 118/147/29 246/96/29 114/176/29
f 57/177/30 215/59/30 207/51/30
f 160/178/29 279/126/29 282/128/29
f 91/179/30 181/25/30 171/15/30
f 115/158/30 247/93/30 243/89/30
f 159/170/30 276/122/30 281/125/30
f 58/141/29 216/68/29 50/180/29
f 160/178/29 275/121/29 143/152/29
f 92/138/29 182/39/29 84/181/29
f 116/166/29 248/98/29 112/182/29
f 47/183/30 209/53/30 55/184/30
f 89/185/30 183/27/30 175/18/30
f 113/186/30 249/95/30 245/91/30
f 146/161/30 284/130/30 150/187/30
f 48/188/29 210/62/29 218/69/29
f 145/189/29 283/129/29 277/123/29
f 90/155/29 184/40/29 82/190/29
f 114/176/29 250/100/29 110/191/29
f 45/192/30 211/55/30 53/193/30
f 75/194/30 177/21/30 87/195/30
f 111/196/30 251/97/30 247/93/30
f 152/197/30 280/127/30 286/132/30
f 46/198/29 212/64/29 220/70/29
f 151/199/29 279/126/29 147/200/29
f 76/201/29 178/30/29 186/42/29
f 112/182/29 252/102/29 108/202/29
f 39/203/30 213/57/30 51/204/30
f 73/205/30 179/23/30 85/206/30
f 105/207/30 249/95/30 109/208/30
f 154/209/30 284/130/30 288/134/30
f 40/210/29 214/66/29 222/71/29
f 153/211/29 283/129/29 149/212/29
f 74/213/29 180/32/29 188/44/29
f 106/214/29 250/100/29 254/103/29
f 37/215/30 215/59/30 49/216/30
f 155/217/30 286/132/30 259/105/30
f 103/218/30 251/97/30 107/219/30
f 156/220/29 285/131/29 151/199/29
f 78/221/30 191/33/30 190/35/30
f 38/222/29 216/68/29 224/72/29
f 157/223/30 288/134/30 263/108/30
f 104/224/29 252/102/29 256/104/29
f 42/225/30 217/61/30 47/183/30
f 158/226/29 287/133/29 153/211/29
f 77/227/29 192/46/29 72/228/29
f 100/229/30 253/99/30 105/207/30
f 48/188/29 161/10/29 41/230/29
f 106/214/29 225/74/29 99/231/29
f 44/232/30 219/63/30 45/192/30
f 80/233/30 195/36/30 194/38/30
f 98/234/30 255/101/30 103/218/30
f 46/198/29 165/13/29 43/235/29
f 97/236/29 256/104/29 229/77/29
f 34/237/30 221/65/30 39/203/30
f 79/238/29 196/48/29 70/239/29
f 33/137/29 222/71/29 169/16/29
f 78/221/30 181/25/30 83/240/30
f 155/217/30 258/107/30 130/241/30
f 36/145/30 223/67/30 37/215/30
f 77/227/29 182/39/29 189/34/29
f 35/154/29 224/72/29 173/19/29
f 80/233/30 183/27/30 81/242/30
f 156/220/29 257/106/29 260/135/29
f 79/238/29 184/40/29 193/37/29
f 100/229/30 227/73/30 226/75/30
f 67/243/30 185/29/30 75/194/30
f 157/223/30 262/110/30 132/244/30
f 99/231/29 228/80/29 128/245/29
f 68/246/29 186/42/29 198/50/29
f 131/247/29 264/136/29 158/226/29
f 65/248/30 187/31/30 73/205/30
f 98/234/30 231/76/30 230/78/30
f 130/241/30 266/112/30 134/249/30
f 66/140/29 188/44/29 200/52/29
f 129/250/29 265/111/29 257/106/29
f 97/236/29 232/82/29 126/251/29
f 71/252/30 201/45/30 191/33/30
f 42/225/30 163/9/30 162/11/30
f 127/253/30 233/79/30 227/73/30
f 132/244/30 268/114/30 136/254/30
f 72/228/29 202/54/29 64/150/29
f 131/247/29 267/113/29 261/109/29
f 41/230/29 164/22/29 96/164/29
f 128/245/29 234/84/29 124/255/29
f 69/256/30 203/47/30 195/36/30
f 125/257/30 235/81/30 231/76/30
f 138/258/30 266/112/30 270/116/30
f 44/232/30 167/12/30 166/14/30
f 70/239/29 204/56/29 62/162/29
f 137/143/29 265/111/29 133/259/29
f 126/251/29 236/88/29 122/260/29
f 67/243/30 205/49/30 197/41/30
f 43/235/29 168/24/29 94/174/29
f 119/159/30 233/79/30 123/261/30
f 140/262/30 268/114/30 272/118/30
f 68/246/29 206/58/29 60/172/29
f 139/153/29 267/113/29 135/263/29
f 34/237/30 171/15/30 170/17/30
f 120/264/29 234/84/29 238/90/29
f 65/248/30 207/51/30 199/43/30
f 142/160/30 270/116/30 274/120/30
f 293/265/29 291/266/29 299/267/29
f 320/268/31 355/269/31 354/270/31
f 306/271/32 354/272/32 359/273/32
f 360/274/33 313/275/33 356/276/33
f 307/277/34 358/278/34 361/279/34
f 315/280/35 360/281/35 362/282/35
f 363/283/36 307/284/36 361/285/36
f 364/286/37 315/287/37 362/288/37
f 309/289/38 363/283/38 365/290/38
f 317/291/39 364/292/39 366/293/39
f 367/294/40 309/295/40 365/296/40
f 318/297/41 366/298/41 368/299/41
f 369/300/42 310/301/42 367/302/42
f 368/299/43 319/303/43 318/297/43
f 311/304/44 357/305/44 312/306/44
f 313/307/45 357/308/45 356/309/45
f 312/310/18 327/311/18 311/312/18
f 332/313/46 349/314/46 348/315/46
f 320/316/17 335/317/17 319/318/17
f 313/319/16 328/320/16 312/321/16
f 305/322/15 322/323/15 306/324/15
f 306/325/14 336/326/14 320/327/14
f 314/328/13 329/329/13 313/330/13
f 305/331/12 323/332/12 321/333/12
f 315/334/11 330/335/11 314/336/11
f 307/337/10 324/338/10 323/339/10
f 316/340/9 331/341/9 315/342/9
f 309/343/24 324/338/24 308/344/24
f 317/345/47 332/313/47 316/346/47
f 310/347/22 325/348/22 309/349/22
f 318/350/21 333/351/21 317/352/21
f 311/353/20 326/354/20 310/355/20
f 319/356/19 334/357/19 318/350/19
f 337/358/48 339/359/48 353/360/48
f 326/361/49 341/362/49 325/348/49
f 333/351/50 350/363/50 349/364/50
f 327/365/51 342/366/51 326/354/51
f 334/357/52 351/367/52 350/363/52
f 328/368/53 343/369/53 327/311/53
f 335/317/54 352/370/54 351/371/54
f 329/372/55 344/373/55 328/320/55
f 322/323/56 337/358/56 338/374/56
f 336/326/57 338/375/57 352/376/57
f 330/377/58 345/378/58 329/329/58
f 323/332/59 337/379/59 321/333/59
f 331/380/60 346/381/60 330/335/60
f 324/338/61 339/359/61 323/339/61
f 331/341/62 348/382/62 347/383/62
f 325/384/63 340/385/63 324/338/63
f 346/386/64 347/383/64 353/360/64
f 339/359/65 340/385/65 353/360/65
f 347/383/66 348/382/66 353/360/66
f 340/385/67 341/387/67 353/360/67
f 348/382/68 349/364/68 353/360/68
f 341/387/69 342/388/69 353/360/69
f 349/364/70 350/363/70 353/360/70
f 342/388/71 343/389/71 353/360/71
f 350/363/72 351/367/72 353/360/72
f 343/389/73 344/373/73 353/360/73
f 351/367/74 352/390/74 353/360/74
f 344/373/75 345/391/75 353/360/75
f 338/374/76 337/358/76 353/360/76
f 352/390/77 338/374/77 353/360/77
f 345/391/78 346/386/78 353/360/78
f 295/392/79 357/305/79 369/393/79
f 302/394/80 355/395/80 368/299/80
f 294/396/81 369/300/81 367/302/81
f 301/397/82 368/299/82 366/298/82
f 294/398/83 365/296/83 293/399/83
f 300/400/84 366/293/84 364/292/84
f 293/265/85 363/283/85 292/401/85
f 299/267/86 364/286/86 362/288/86
f 292/401/87 361/285/87 291/266/87
f 298/402/88 362/282/88 360/281/88
f 291/403/89 358/278/89 290/404/89
f 297/405/90 360/274/90 356/276/90
f 289/406/91 354/272/91 304/407/91
f 290/408/92 359/409/92 289/410/92
f 296/411/93 356/309/93 357/308/93
f 304/412/94 355/269/94 303/413/94
f 305/414/95 359/409/95 358/415/95
f 371/416/30 372/417/30 370/417/30
f 376/418/29 375/419/29 374/418/29
f 376/418/96 370/417/96 372/417/96
f 377/419/97 372/417/97 373/416/97
f 374/418/98 371/416/98 370/417/98
f 375/419/99 373/416/99 371/416/99
f 382/420/29 384/421/29 383/422/29
f 381/423/97 382/420/97 380/424/97
f 378/424/98 384/421/98 379/423/98
f 379/423/99 385/425/99 381/423/99
f 380/424/96 383/422/96 378/424/96
f 386/426/1 389/427/1 387/428/1
f 391/426/98 393/427/98 390/429/98
f 387/428/100 393/427/100 392/428/100
f 386/426/101 390/429/101 388/429/101
f 388/429/30 393/427/30 389/427/30
f 387/428/29 391/426/29 386/426/29
f 394/426/7 397/427/7 396/429/7
f 399/426/97 401/427/97 400/428/97
f 395/428/100 401/427/100 397/427/100
f 398/429/101 394/426/101 396/429/101
f 401/427/30 396/429/30 397/427/30
f 399/426/29 395/428/29 394/426/29
f 402/430/102 405/431/102 403/432/102
f 407/430/99 409/431/99 406/433/99
f 403/432/103 409/431/103 408/432/103
f 402/430/104 406/433/104 404/433/104
f 404/433/30 409/431/30 405/431/30
f 403/432/29 407/430/29 402/430/29
f 410/430/105 413/431/105 412/433/105
f 415/430/96 417/431/96 416/432/96
f 411/432/103 417/431/103 413/431/103
f 414/433/104 410/430/104 412/433/104
f 417/431/30 412/433/30 413/431/30
f 415/430/29 411/432/29 410/430/29
f 418/434/1 421/435/1 419/436/1
f 423/434/98 425/435/98 422/437/98
f 419/436/106 425/435/106 424/436/106
f 418/434/107 422/437/107 420/437/107
f 420/437/30 425/435/30 421/435/30
f 419/436/29 423/434/29 418/434/29
f 426/434/7 429/435/7 428/437/7
f 431/434/97 433/435/97 432/436/97
f 427/436/106 433/435/106 429/435/106
f 430/437/107 426/434/107 428/437/107
f 433/435/30 428/437/30 429/435/30
f 431/434/29 427/436/29 426/434/29
f 436/438/102 435/439/102 434/440/102
f 440/439/99 438/438/99 439/440/99
f 435/439/108 441/441/108 440/439/108
f 434/440/109 438/438/109 436/438/109
f 436/438/30 441/441/30 437/441/30
f 435/439/29 439/440/29 434/440/29
f 443/439/105 444/438/105 442/440/105
f 446/438/96 448/439/96 447/440/96
f 443/439/108 449/441/108 445/441/108
f 446/438/109 442/440/109 444/438/109
f 449/441/30 444/438/30 445/441/30
f 447/440/29 443/439/29 442/440/29
f 450/442/110 453/443/110 451/444/110
f 455/442/111 457/443/111 454/445/111
f 451/444/112 457/443/112 456/444/112
f 450/442/113 454/445/113 452/445/113
f 458/446/114 461/447/114 460/448/114
f 463/446/115 465/447/115 464/449/115
f 459/449/116 465/447/116 461/447/116
f 462/448/117 458/446/117 460/448/117
f 466/442/118 469/443/118 468/445/118
f 471/442/119 473/443/119 472/444/119
f 467/444/112 473/443/112 469/443/112
f 470/445/113 466/442/113 468/445/113
f 474/446/120 477/447/120 475/449/120
f 479/446/121 481/447/121 478/448/121
f 475/449/116 481/447/116 480/449/116
f 474/446/117 478/448/117 476/448/117
f 482/450/122 485/451/122 483/452/122
f 487/450/123 489/451/123 486/453/123
f 483/452/124 489/451/124 488/452/124
f 482/450/125 486/453/125 484/453/125
f 490/454/126 493/455/126 492/456/126
f 495/454/127 497/455/127 496/457/127
f 491/457/128 497/455/128 493/455/128
f 494/456/129 490/454/129 492/456/129
f 498/450/130 501/451/130 500/453/130
f 503/450/131 505/451/131 504/452/131
f 499/452/124 505/451/124 501/451/124
f 502/453/125 498/450/125 500/453/125
f 506/454/132 509/455/132 507/457/132
f 511/454/133 513/455/133 510/456/133
f 507/457/128 513/455/128 512/457/128
f 506/454/129 510/456/129 508/456/129
f 514/458/134 517/459/134 515/460/134
f 519/458/135 521/459/135 518/461/135
f 515/460/136 521/459/136 520/460/136
f 514/458/137 518/461/137 516/461/137
f 522/462/138 525/463/138 524/464/138
f 527/462/139 529/463/139 528/465/139
f 523/465/140 529/463/140 525/463/140
f 526/464/141 522/462/141 524/464/141
f 530/466/142 533/459/142 532/461/142
f 535/466/143 537/459/143 536/467/143
f 531/467/136 537/459/136 533/459/136
f 534/461/137 530/466/137 532/461/137
f 538/468/144 541/463/144 539/469/144
f 543/468/145 545/463/145 542/464/145
f 539/469/140 545/463/140 544/469/140
f 538/468/141 542/464/141 540/464/141
f 546/470/146 549/471/146 547/472/146
f 551/470/147 553/471/147 550/473/147
f 547/472/148 553/471/148 552/472/148
f 546/470/149 550/473/149 548/473/149
f 554/474/150 557/475/150 556/476/150
f 559/474/151 561/475/151 560/477/151
f 555/477/152 561/475/152 557/475/152
f 558/476/153 554/474/153 556/476/153
f 562/470/154 565/471/154 564/473/154
f 567/470/155 569/471/155 568/472/155
f 563/472/148 569/471/148 565/471/148
f 566/473/149 562/470/149 564/473/149
f 570/474/156 573/475/156 571/477/156
f 575/474/157 577/475/157 574/476/157
f 571/477/152 577/475/152 576/477/152
f 570/474/153 574/476/153 572/476/153
f 580/478/158 579/479/158 578/480/158
f 584/481/158 583/482/158 582/483/158
f 587/484/159 588/485/159 586/486/159
f 591/487/159 592/488/159 590/489/159
f 584/481/96 590/489/96 592/488/96
f 581/490/99 587/484/99 579/479/99
f 580/478/96 586/486/96 588/485/96
f 584/481/160 593/491/160 585/492/160
f 583/482/161 590/489/161 582/483/161
f 580/478/160 589/493/160 581/490/160
f 579/479/161 586/486/161 578/480/161
f 585/492/99 591/487/99 583/482/99
f 595/494/161 601/495/161 597/496/161
f 600/497/160 594/498/160 596/499/160
f 601/495/158 596/499/158 597/496/158
f 598/500/159 595/494/159 594/498/159
f 607/501/161 605/502/161 603/503/161
f 608/504/160 602/505/160 604/506/160
f 609/507/158 604/506/158 605/502/158
f 606/508/159 603/503/159 602/505/159
f 615/509/161 613/510/161 611/511/161
f 616/512/160 610/513/160 612/514/160
f 617/515/158 612/514/158 613/510/158
f 614/516/159 611/511/159 610/513/159
f 619/517/161 625/518/161 621/519/161
f 624/520/160 618/521/160 620/522/160
f 625/518/158 620/522/158 621/519/158
f 622/523/159 619/517/159 618/521/159
f 627/524/161 633/525/161 629/526/161
f 632/527/160 626/528/160 628/529/160
f 633/525/158 628/529/158 629/526/158
f 630/530/159 627/524/159 626/528/159
f 635/531/161 641/532/161 637/533/161
f 640/534/160 634/535/160 636/536/160
f 641/532/158 636/536/158 637/533/158
f 638/537/159 635/531/159 634/535/159
f 643/538/162 649/539/162 645/540/162
f 648/541/160 642/542/160 644/543/160
f 649/539/158 644/543/158 645/540/158
f 646/544/159 643/538/159 642/542/159
f 655/545/161 653/546/161 651/547/161
f 656/548/160 650/549/160 652/550/160
f 657/551/158 652/550/158 653/546/158
f 654/552/159 651/547/159 650/549/159
f 663/553/161 661/554/161 659/555/161
f 664/556/160 658/557/160 660/558/160
f 665/559/158 660/558/158 661/554/158
f 662/560/159 659/555/159 658/557/159
f 667/561/161 673/562/161 669/563/161
f 672/564/160 666/565/160 668/566/160
f 673/562/158 668/566/158 669/563/158
f 670/567/159 667/561/159 666/565/159
f 675/568/161 681/569/161 677/570/161
f 680/571/160 674/572/160 676/573/160
f 681/569/158 676/573/158 677/570/158
f 678/574/159 675/568/159 674/572/159
f 683/575/162 689/576/162 685/577/162
f 688/578/160 682/579/160 684/580/160
f 689/576/158 684/580/158 685/577/158
f 686/581/159 683/575/159 682/579/159
f 691/582/161 697/583/161 693/584/161
f 696/585/160 690/586/160 692/587/160
f 697/583/158 692/587/158 693/584/158
f 694/588/159 691/582/159 690/586/159
f 703/589/161 701/590/161 699/591/161
f 704/592/160 698/593/160 700/594/160
f 705/595/158 700/594/158 701/590/158
f 702/596/159 699/591/159 698/593/159
f 707/597/161 713/598/161 709/599/161
f 712/600/160 706/601/160 708/602/160
f 713/598/158 708/602/158 709/599/158
f 710/603/159 707/597/159 706/601/159
f 804/604/21 733/605/21 782/606/21
f 873/607/163 923/608/163 902/609/163
f 793/610/22 720/611/22 771/612/22
f 754/613/13 777/614/13 728/615/13
f 802/616/23 731/617/23 781/618/23
f 741/619/15 766/620/15 716/621/15
f 822/622/164 879/623/164 890/624/164
f 752/625/26 776/626/26 727/627/26
f 866/628/165 915/629/165 934/630/165
f 855/631/166 919/632/166 898/633/166
f 789/634/12 715/635/12 767/636/12
f 809/637/25 714/638/25 740/639/25
f 790/640/10 717/641/10 769/642/10
f 751/643/18 774/644/18 725/645/18
f 829/646/167 897/647/167 884/648/167
f 763/649/19 783/650/19 738/651/19
f 750/652/20 772/653/20 724/654/20
f 847/655/168 931/656/168 910/657/168
f 858/658/169 917/659/169 936/660/169
f 808/661/25 739/662/25 787/663/25
f 857/664/170 927/665/170 906/666/170
f 836/667/171 883/668/171 894/669/171
f 759/670/23 780/671/23 734/672/23
f 807/673/17 737/674/17 785/675/17
f 746/676/24 770/677/24 721/678/24
f 826/679/172 881/680/172 892/681/172
f 801/682/9 732/683/9 757/684/9
f 805/685/19 735/686/19 784/687/19
f 791/688/10 719/689/10 745/690/10
f 794/691/20 722/692/20 773/693/20
f 755/694/11 778/695/11 730/696/11
f 811/697/173 877/698/173 888/699/173
f 830/700/174 726/701/174 753/702/174
f 918/703/15 874/704/15 899/705/15
f 832/706/175 740/639/175 714/638/175
f 835/707/176 741/708/176 716/709/176
f 834/710/177 715/711/177 742/712/177
f 837/713/178 754/714/178 728/715/178
f 930/716/11 882/717/11 911/718/11
f 839/719/179 743/720/179 718/721/179
f 838/722/180 717/723/180 744/724/180
f 841/725/181 755/726/181 730/727/181
f 840/728/182 729/729/182 756/730/182
f 932/731/9 729/729/9 913/732/9
f 842/733/183 779/734/183 801/735/183
f 845/736/184 790/737/184 769/738/184
f 844/739/185 768/740/185 791/688/185
f 843/741/186 933/742/186 912/743/186
f 846/744/187 778/745/187 800/746/187
f 849/747/188 789/748/188 767/749/188
f 743/720/12 900/750/12 718/721/12
f 928/751/13 726/701/13 909/752/13
f 850/753/189 777/754/189 799/755/189
f 853/756/190 808/661/190 787/663/190
f 852/757/191 786/758/191 809/637/191
f 848/759/192 901/760/192 920/761/192
f 854/762/193 766/763/193 788/764/193
f 851/765/194 929/766/194 908/767/194
f 856/768/195 776/769/195 798/770/195
f 859/771/196 807/673/196 785/675/196
f 861/772/197 796/773/197 775/774/197
f 860/775/198 774/644/198 797/776/198
f 922/777/24 876/778/24 903/779/24
f 863/780/199 805/781/199 784/782/199
f 810/783/200 745/690/200 719/689/200
f 862/784/201 783/785/201 806/786/201
f 813/787/202 746/676/202 721/678/202
f 865/788/203 794/691/203 773/693/203
f 812/789/204 720/790/204 747/791/204
f 864/792/205 772/793/205 795/794/205
f 815/795/206 731/796/206 758/797/206
f 867/798/207 804/799/207 782/800/207
f 814/801/208 757/802/208 732/803/208
f 761/804/21 914/805/21 736/806/21
f 817/807/209 759/670/209 734/672/209
f 869/808/210 793/809/210 771/810/210
f 816/811/211 733/812/211 760/813/211
f 748/814/22 904/815/22 723/816/22
f 819/817/212 748/818/212 723/819/212
f 871/820/213 802/821/213 781/822/213
f 818/823/214 722/692/214 749/824/214
f 870/825/215 780/671/215 803/826/215
f 821/827/216 761/804/216 736/806/216
f 868/828/217 905/829/217 924/830/217
f 820/831/218 735/832/218 762/833/218
f 872/834/219 770/677/219 792/835/219
f 823/836/220 750/837/220 724/838/220
f 796/839/18 878/840/18 775/841/18
f 825/842/221 763/843/221 738/844/221
f 824/845/222 737/674/222 764/846/222
f 827/847/223 751/643/223 725/645/223
f 926/848/26 880/849/26 907/850/26
f 896/851/17 916/852/17 885/853/17
f 828/854/224 739/662/224 765/855/224
f 831/856/225 752/857/225 727/858/225
f 889/859/226 877/698/226 876/860/226
f 891/861/227 879/623/227 878/862/227
f 893/863/228 881/680/228 880/849/228
f 885/864/229 897/647/229 896/865/229
f 887/866/230 875/867/230 874/868/230
f 895/869/231 883/668/231 882/870/231
f 913/732/232 933/742/232 932/731/232
f 911/871/233 931/656/233 930/872/233
f 921/873/234 901/760/234 900/750/234
f 909/752/235 929/766/235 928/751/235
f 899/874/236 919/632/236 918/875/236
f 907/850/237 927/665/237 926/848/237
f 937/876/238 917/659/238 916/877/238
f 935/878/239 915/629/239 914/805/239
f 925/879/240 905/829/240 904/880/240
f 903/881/241 923/608/241 922/882/241
f 833/883/242 875/867/242 886/884/242
f 4/1/1 8/4/1 5/2/1
f 6/2/2 7/4/2 2/1/2
f 2/1/3 7/4/3 8/4/3
f 5/2/4 6/2/4 1/3/4
f 12/5/1 11/8/1 13/6/1
f 10/5/2 15/7/2 14/6/2
f 10/5/5 12/5/5 16/7/5
f 9/8/6 14/6/6 13/6/6
f 20/1/7 19/3/7 21/2/7
f 18/1/8 23/4/8 22/2/8
f 18/1/3 20/1/3 24/4/3
f 17/3/4 22/2/4 21/2/4
f 28/5/7 32/7/7 29/6/7
f 30/6/8 31/7/8 26/5/8
f 26/5/5 31/7/5 32/7/5
f 29/6/6 30/6/6 25/8/6
f 163/9/9 164/22/9 161/10/9
f 167/12/9 168/24/9 165/13/9
f 171/15/10 172/26/10 169/16/10
f 175/18/10 176/28/10 173/19/10
f 177/21/11 178/30/11 164/22/11
f 179/23/11 180/32/11 168/24/11
f 181/25/12 182/39/12 172/26/12
f 183/27/12 184/40/12 176/28/12
f 185/29/13 186/42/13 178/30/13
f 187/31/13 188/44/13 180/32/13
f 191/33/25 192/46/25 189/34/25
f 195/36/25 196/48/25 193/37/25
f 190/35/15 189/34/15 182/39/15
f 194/38/15 193/37/15 184/40/15
f 197/41/26 198/50/26 186/42/26
f 199/43/26 200/52/26 188/44/26
f 201/45/17 202/54/17 192/46/17
f 203/47/17 204/56/17 196/48/17
f 205/49/18 206/58/18 198/50/18
f 207/51/18 208/60/18 200/52/18
f 209/53/19 210/62/19 202/54/19
f 211/55/19 212/64/19 204/56/19
f 213/57/20 214/66/20 206/58/20
f 215/59/20 216/68/20 208/60/20
f 217/61/21 218/69/21 210/62/21
f 219/63/21 220/70/21 212/64/21
f 221/65/22 222/71/22 214/66/22
f 223/67/22 224/72/22 216/68/22
f 162/11/23 161/10/23 218/69/23
f 166/14/27 165/13/27 220/70/27
f 170/17/28 169/16/28 222/71/28
f 174/20/28 173/19/28 224/72/28
f 227/73/9 228/80/9 225/74/9
f 231/76/10 232/82/10 229/77/10
f 233/79/11 234/84/11 228/80/11
f 235/81/12 236/88/12 232/82/12
f 237/83/13 238/90/13 234/84/13
f 241/85/14 242/92/14 239/86/14
f 240/87/15 239/86/15 236/88/15
f 243/89/26 244/94/26 238/90/26
f 245/91/17 246/96/17 242/92/17
f 247/93/18 248/98/18 244/94/18
f 249/95/19 250/100/19 246/96/19
f 251/97/20 252/102/20 248/98/20
f 253/99/21 254/103/21 250/100/21
f 255/101/22 256/104/22 252/102/22
f 226/75/23 225/74/23 254/103/23
f 230/78/24 229/77/24 256/104/24
f 259/105/24 260/135/24 257/106/24
f 263/108/27 264/136/27 261/109/27
f 258/107/22 257/106/22 265/111/22
f 262/110/21 261/109/21 267/113/21
f 266/112/20 265/111/20 269/115/20
f 268/114/19 267/113/19 271/117/19
f 270/116/18 269/115/18 273/119/18
f 272/118/17 271/117/17 275/121/17
f 274/120/26 273/119/26 277/123/26
f 281/125/15 282/128/15 279/126/15
f 276/122/25 275/121/25 282/128/25
f 278/124/13 277/123/13 283/129/13
f 280/127/12 279/126/12 285/131/12
f 284/130/11 283/129/11 287/133/11
f 286/132/10 285/131/10 260/135/10
f 288/134/9 287/133/9 264/136/9
f 33/137/29 169/16/29 172/26/29
f 102/139/30 117/169/30 241/85/30
f 66/140/29 200/52/29 208/60/29
f 141/142/29 273/119/29 269/115/29
f 63/144/30 55/184/30 209/53/30
f 36/145/30 89/185/30 175/18/30
f 101/146/29 239/86/29 242/92/29
f 144/148/30 140/262/30 272/118/30
f 102/139/30 240/87/30 235/81/30
f 64/150/29 202/54/29 210/62/29
f 143/152/29 275/121/29 271/117/29
f 35/154/29 173/19/29 176/28/29
f 101/146/29 122/260/29 236/88/29
f 61/156/30 53/193/30 211/55/30
f 95/157/30 87/195/30 177/21/30
f 115/158/30 243/89/30 237/83/30
f 142/160/30 274/120/30 278/124/30
f 62/162/29 204/56/29 212/64/29
f 141/142/29 145/189/29 277/123/29
f 96/164/29 164/22/29 178/30/29
f 116/166/29 120/264/29 238/90/29
f 59/167/30 51/204/30 213/57/30
f 93/168/30 85/206/30 179/23/30
f 117/169/30 113/186/30 245/91/30
f 159/170/30 281/125/30 280/127/30
f 60/172/29 206/58/29 214/66/29
f 94/174/29 168/24/29 180/32/29
f 118/147/29 242/92/29 246/96/29
f 57/177/30 49/216/30 215/59/30
f 160/178/29 147/200/29 279/126/29
f 91/179/30 83/240/30 181/25/30
f 115/158/30 111/196/30 247/93/30
f 159/170/30 144/148/30 276/122/30
f 58/141/29 208/60/29 216/68/29
f 160/178/29 282/128/29 275/121/29
f 92/138/29 172/26/29 182/39/29
f 116/166/29 244/94/29 248/98/29
f 47/183/30 217/61/30 209/53/30
f 89/185/30 81/242/30 183/27/30
f 113/186/30 109/208/30 249/95/30
f 146/161/30 278/124/30 284/130/30
f 48/188/29 56/151/29 210/62/29
f 145/189/29 149/212/29 283/129/29
f 90/155/29 176/28/29 184/40/29
f 114/176/29 246/96/29 250/100/29
f 45/192/30 219/63/30 211/55/30
f 75/194/30 185/29/30 177/21/30
f 111/196/30 107/219/30 251/97/30
f 152/197/30 148/171/30 280/127/30
f 46/198/29 54/163/29 212/64/29
f 151/199/29 285/131/29 279/126/29
f 76/201/29 88/165/29 178/30/29
f 112/182/29 248/98/29 252/102/29
f 39/203/30 221/65/30 213/57/30
f 73/205/30 187/31/30 179/23/30
f 105/207/30 253/99/30 249/95/30
f 154/209/30 150/187/30 284/130/30
f 40/210/29 52/173/29 214/66/29
f 153/211/29 287/133/29 283/129/29
f 74/213/29 86/175/29 180/32/29
f 106/214/29 110/191/29 250/100/29
f 37/215/30 223/67/30 215/59/30
f 155/217/30 152/197/30 286/132/30
f 103/218/30 255/101/30 251/97/30
f 156/220/29 260/135/29 285/131/29
f 78/221/30 71/252/30 191/33/30
f 38/222/29 50/180/29 216/68/29
f 157/223/30 154/209/30 288/134/30
f 104/224/29 108/202/29 252/102/29
f 42/225/30 162/11/30 217/61/30
f 158/226/29 264/136/29 287/133/29
f 77/227/29 189/34/29 192/46/29
f 100/229/30 226/75/30 253/99/30
f 48/188/29 218/69/29 161/10/29
f 106/214/29 254/103/29 225/74/29
f 44/232/30 166/14/30 219/63/30
f 80/233/30 69/256/30 195/36/30
f 98/234/30 230/78/30 255/101/30
f 46/198/29 220/70/29 165/13/29
f 97/236/29 104/224/29 256/104/29
f 34/237/30 170/17/30 221/65/30
f 79/238/29 193/37/29 196/48/29
f 33/137/29 40/210/29 222/71/29
f 78/221/30 190/35/30 181/25/30
f 155/217/30 259/105/30 258/107/30
f 36/145/30 174/20/30 223/67/30
f 77/227/29 84/181/29 182/39/29
f 35/154/29 38/222/29 224/72/29
f 80/233/30 194/38/30 183/27/30
f 156/220/29 129/250/29 257/106/29
f 79/238/29 82/190/29 184/40/29
f 100/229/30 127/253/30 227/73/30
f 67/243/30 197/41/30 185/29/30
f 157/223/30 263/108/30 262/110/30
f 99/231/29 225/74/29 228/80/29
f 68/246/29 76/201/29 186/42/29
f 131/247/29 261/109/29 264/136/29
f 65/248/30 199/43/30 187/31/30
f 98/234/30 125/257/30 231/76/30
f 130/241/30 258/107/30 266/112/30
f 66/140/29 74/213/29 188/44/29
f 129/250/29 133/259/29 265/111/29
f 97/236/29 229/77/29 232/82/29
f 71/252/30 63/144/30 201/45/30
f 42/225/30 95/157/30 163/9/30
f 127/253/30 123/261/30 233/79/30
f 132/244/30 262/110/30 268/114/30
f 72/228/29 192/46/29 202/54/29
f 131/247/29 135/263/29 267/113/29
f 41/230/29 161/10/29 164/22/29
f 128/245/29 228/80/29 234/84/29
f 69/256/30 61/156/30 203/47/30
f 125/257/30 121/149/30 235/81/30
f 138/258/30 134/249/30 266/112/30
f 44/232/30 93/168/30 167/12/30
f 70/239/29 196/48/29 204/56/29
f 137/143/29 269/115/29 265/111/29
f 126/251/29 232/82/29 236/88/29
f 67/243/30 59/167/30 205/49/30
f 43/235/29 165/13/29 168/24/29
f 119/159/30 237/83/30 233/79/30
f 140/262/30 136/254/30 268/114/30
f 68/246/29 198/50/29 206/58/29
f 139/153/29 271/117/29 267/113/29
f 34/237/30 91/179/30 171/15/30
f 120/264/29 124/255/29 234/84/29
f 65/248/30 57/177/30 207/51/30
f 142/160/30 138/258/30 270/116/30
f 291/266/29 290/408/29 289/410/29
f 289/410/29 304/885/29 291/266/29
f 304/885/29 303/886/29 291/266/29
f 303/886/29 302/394/29 301/397/29
f 301/397/29 300/887/29 299/267/29
f 299/267/29 298/888/29 297/889/29
f 297/889/29 296/411/29 299/267/29
f 296/411/29 295/890/29 299/267/29
f 295/890/29 294/891/29 293/265/29
f 293/265/29 292/401/29 291/266/29
f 303/886/29 301/397/29 291/266/29
f 301/397/29 299/267/29 291/266/29
f 295/890/29 293/265/29 299/267/29
f 320/268/31 319/892/31 355/269/31
f 306/271/32 320/893/32 354/272/32
f 360/274/33 314/894/33 313/275/33
f 307/277/34 305/895/34 358/278/34
f 315/280/35 314/896/35 360/281/35
f 363/283/36 308/897/36 307/284/36
f 364/286/37 316/898/37 315/287/37
f 309/289/38 308/897/38 363/283/38
f 317/291/39 316/899/39 364/292/39
f 367/294/40 310/900/40 309/295/40
f 318/297/41 317/901/41 366/298/41
f 369/300/42 311/902/42 310/301/42
f 368/299/43 355/395/43 319/303/43
f 311/304/44 369/393/44 357/305/44
f 313/307/45 312/903/45 357/308/45
f 312/310/18 328/368/18 327/311/18
f 332/313/46 333/904/46 349/314/46
f 320/316/17 336/905/17 335/317/17
f 313/319/243 329/372/243 328/320/243
f 305/322/15 321/906/15 322/323/15
f 306/325/244 322/907/244 336/326/244
f 314/328/13 330/377/13 329/329/13
f 305/331/12 307/908/12 323/332/12
f 315/334/11 331/380/11 330/335/11
f 307/337/10 308/344/10 324/338/10
f 316/340/9 332/909/9 331/341/9
f 309/343/28 325/384/28 324/338/28
f 317/345/27 333/904/27 332/313/27
f 310/347/22 326/361/22 325/348/22
f 318/350/21 334/357/21 333/351/21
f 311/353/20 327/365/20 326/354/20
f 319/356/19 335/910/19 334/357/19
f 326/361/49 342/911/49 341/362/49
f 333/351/50 334/357/50 350/363/50
f 327/365/51 343/912/51 342/366/51
f 334/357/52 335/910/52 351/367/52
f 328/368/53 344/913/53 343/369/53
f 335/317/245 336/905/245 352/370/245
f 329/372/55 345/391/55 344/373/55
f 322/323/56 321/906/56 337/358/56
f 336/326/57 322/907/57 338/375/57
f 330/377/58 346/914/58 345/378/58
f 323/332/246 339/915/246 337/379/246
f 331/380/247 347/916/247 346/381/247
f 324/338/248 340/385/248 339/359/248
f 331/341/62 332/909/62 348/382/62
f 325/384/63 341/387/63 340/385/63
f 295/392/79 296/917/79 357/305/79
f 302/394/80 303/886/80 355/395/80
f 294/396/81 295/918/81 369/300/81
f 301/397/82 302/394/82 368/299/82
f 294/398/83 367/294/83 365/296/83
f 300/400/84 301/919/84 366/293/84
f 293/265/85 365/290/85 363/283/85
f 299/267/86 300/887/86 364/286/86
f 292/401/87 363/283/87 361/285/87
f 298/402/88 299/920/88 362/282/88
f 291/403/89 361/279/89 358/278/89
f 297/405/90 298/921/90 360/274/90
f 289/406/91 359/273/91 354/272/91
f 290/408/92 358/415/92 359/409/92
f 296/411/93 297/889/93 356/309/93
f 304/412/94 354/270/94 355/269/94
f 305/414/95 306/922/95 359/409/95
f 371/416/30 373/416/30 372/417/30
f 376/418/29 377/419/29 375/419/29
f 376/418/96 374/418/96 370/417/96
f 377/419/97 376/418/97 372/417/97
f 374/418/98 375/419/98 371/416/98
f 375/419/99 377/419/99 373/416/99
f 382/420/29 385/425/29 384/421/29
f 381/423/97 385/425/97 382/420/97
f 378/424/98 383/422/98 384/421/98
f 379/423/99 384/421/99 385/425/99
f 380/424/96 382/420/96 383/422/96
f 386/426/1 388/429/1 389/427/1
f 391/426/98 392/428/98 393/427/98
f 387/428/100 389/427/100 393/427/100
f 386/426/101 391/426/101 390/429/101
f 388/429/30 390/429/30 393/427/30
f 387/428/29 392/428/29 391/426/29
f 394/426/7 395/428/7 397/427/7
f 399/426/97 398/429/97 401/427/97
f 395/428/100 400/428/100 401/427/100
f 398/429/101 399/426/101 394/426/101
f 401/427/30 398/429/30 396/429/30
f 399/426/29 400/428/29 395/428/29
f 402/430/102 404/433/102 405/431/102
f 407/430/99 408/432/99 409/431/99
f 403/432/103 405/431/103 409/431/103
f 402/430/104 407/430/104 406/433/104
f 404/433/30 406/433/30 409/431/30
f 403/432/29 408/432/29 407/430/29
f 410/430/105 411/432/105 413/431/105
f 415/430/96 414/433/96 417/431/96
f 411/432/103 416/432/103 417/431/103
f 414/433/104 415/430/104 410/430/104
f 417/431/30 414/433/30 412/433/30
f 415/430/29 416/432/29 411/432/29
f 418/434/1 420/437/1 421/435/1
f 423/434/98 424/436/98 425/435/98
f 419/436/106 421/435/106 425/435/106
f 418/434/107 423/434/107 422/437/107
f 420/437/30 422/437/30 425/435/30
f 419/436/29 424/436/29 423/434/29
f 426/434/7 427/436/7 429/435/7
f 431/434/97 430/437/97 433/435/97
f 427/436/106 432/436/106 433/435/106
f 430/437/107 431/434/107 426/434/107
f 433/435/30 430/437/30 428/437/30
f 431/434/29 432/436/29 427/436/29
f 436/438/102 437/441/102 435/439/102
f 440/439/99 441/441/99 438/438/99
f 435/439/108 437/441/108 441/441/108
f 434/440/109 439/440/109 438/438/109
f 436/438/30 438/438/30 441/441/30
f 435/439/29 440/439/29 439/440/29
f 443/439/105 445/441/105 444/438/105
f 446/438/96 449/441/96 448/439/96
f 443/439/108 448/439/108 449/441/108
f 446/438/109 447/440/109 442/440/109
f 449/441/30 446/438/30 444/438/30
f 447/440/29 448/439/29 443/439/29
f 450/442/110 452/445/110 453/443/110
f 455/442/111 456/444/111 457/443/111
f 451/444/112 453/443/112 457/443/112
f 450/442/113 455/442/113 454/445/113
f 458/446/114 459/449/114 461/447/114
f 463/446/115 462/448/115 465/447/115
f 459/449/116 464/449/116 465/447/116
f 462/448/117 463/446/117 458/446/117
f 466/442/118 467/444/118 469/443/118
f 471/442/119 470/445/119 473/443/119
f 467/444/112 472/444/112 473/443/112
f 470/445/113 471/442/113 466/442/113
f 474/446/120 476/448/120 477/447/120
f 479/446/121 480/449/121 481/447/121
f 475/449/116 477/447/116 481/447/116
f 474/446/249 479/446/249 478/448/249
f 482/450/250 484/453/250 485/451/250
f 487/450/251 488/452/251 489/451/251
f 483/452/124 485/451/124 489/451/124
f 482/450/125 487/450/125 486/453/125
f 490/454/252 491/457/252 493/455/252
f 495/454/253 494/456/253 497/455/253
f 491/457/128 496/457/128 497/455/128
f 494/456/129 495/454/129 490/454/129
f 498/450/254 499/452/254 501/451/254
f 503/450/255 502/453/255 505/451/255
f 499/452/124 504/452/124 505/451/124
f 502/453/125 503/450/125 498/450/125
f 506/454/256 508/456/256 509/455/256
f 511/454/257 512/457/257 513/455/257
f 507/457/128 509/455/128 513/455/128
f 506/454/129 511/454/129 510/456/129
f 514/458/258 516/461/258 517/459/258
f 519/458/259 520/460/259 521/459/259
f 515/460/136 517/459/136 521/459/136
f 514/458/137 519/458/137 518/461/137
f 522/462/260 523/465/260 525/463/260
f 527/462/261 526/464/261 529/463/261
f 523/465/140 528/465/140 529/463/140
f 526/464/141 527/462/141 522/462/141
f 530/466/262 531/467/262 533/459/262
f 535/466/263 534/461/263 537/459/263
f 531/467/136 536/467/136 537/459/136
f 534/461/137 535/466/137 530/466/137
f 538/468/264 540/464/264 541/463/264
f 543/468/265 544/469/265 545/463/265
f 539/469/140 541/463/140 545/463/140
f 538/468/141 543/468/141 542/464/141
f 546/470/266 548/473/266 549/471/266
f 551/470/267 552/472/267 553/471/267
f 547/472/148 549/471/148 553/471/148
f 546/470/149 551/470/149 550/473/149
f 554/474/268 555/477/268 557/475/268
f 559/474/269 558/476/269 561/475/269
f 555/477/152 560/477/152 561/475/152
f 558/476/153 559/474/153 554/474/153
f 562/470/270 563/472/270 565/471/270
f 567/470/271 566/473/271 569/471/271
f 563/472/148 568/472/148 569/471/148
f 566/473/149 567/470/149 562/470/149
f 570/474/272 572/476/272 573/475/272
f 575/474/273 576/477/273 577/475/273
f 571/477/152 573/475/152 577/475/152
f 570/474/153 575/474/153 574/476/153
f 580/478/158 581/490/158 579/479/158
f 584/481/158 585/492/158 583/482/158
f 587/484/159 589/493/159 588/485/159
f 591/487/159 593/491/159 592/488/159
f 584/481/96 582/483/96 590/489/96
f 581/490/99 589/493/99 587/484/99
f 580/478/96 578/480/96 586/486/96
f 584/481/160 592/488/160 593/491/160
f 583/482/161 591/487/161 590/489/161
f 580/478/160 588/485/160 589/493/160
f 579/479/161 587/484/161 586/486/161
f 585/492/99 593/491/99 591/487/99
f 595/494/161 599/923/161 601/495/161
f 600/497/160 598/500/160 594/498/160
f 601/495/158 600/497/158 596/499/158
f 598/500/159 599/923/159 595/494/159
f 607/501/161 609/507/161 605/502/161
f 608/504/160 606/508/160 602/505/160
f 609/507/158 608/504/158 604/506/158
f 606/508/159 607/501/159 603/503/159
f 615/509/161 617/515/161 613/510/161
f 616/512/160 614/516/160 610/513/160
f 617/515/158 616/512/158 612/514/158
f 614/516/159 615/509/159 611/511/159
f 619/517/161 623/924/161 625/518/161
f 624/520/160 622/523/160 618/521/160
f 625/518/158 624/520/158 620/522/158
f 622/523/159 623/924/159 619/517/159
f 627/524/161 631/925/161 633/525/161
f 632/527/160 630/530/160 626/528/160
f 633/525/158 632/527/158 628/529/158
f 630/530/274 631/925/274 627/524/274
f 635/531/161 639/926/161 641/532/161
f 640/534/160 638/537/160 634/535/160
f 641/532/158 640/534/158 636/536/158
f 638/537/159 639/926/159 635/531/159
f 643/538/162 647/927/162 649/539/162
f 648/541/160 646/544/160 642/542/160
f 649/539/158 648/541/158 644/543/158
f 646/544/159 647/927/159 643/538/159
f 655/545/161 657/551/161 653/546/161
f 656/548/160 654/552/160 650/549/160
f 657/551/158 656/548/158 652/550/158
f 654/552/159 655/545/159 651/547/159
f 663/553/161 665/559/161 661/554/161
f 664/556/160 662/560/160 658/557/160
f 665/559/158 664/556/158 660/558/158
f 662/560/159 663/553/159 659/555/159
f 667/561/161 671/928/161 673/562/161
f 672/564/160 670/567/160 666/565/160
f 673/562/158 672/564/158 668/566/158
f 670/567/159 671/928/159 667/561/159
f 675/568/161 679/929/161 681/569/161
f 680/571/160 678/574/160 674/572/160
f 681/569/275 680/571/275 676/573/275
f 678/574/159 679/929/159 675/568/159
f 683/575/162 687/930/162 689/576/162
f 688/578/276 686/581/276 682/579/276
f 689/576/158 688/578/158 684/580/158
f 686/581/159 687/930/159 683/575/159
f 691/582/161 695/931/161 697/583/161
f 696/585/160 694/588/160 690/586/160
f 697/583/158 696/585/158 692/587/158
f 694/588/159 695/931/159 691/582/159
f 703/589/161 705/595/161 701/590/161
f 704/592/160 702/596/160 698/593/160
f 705/595/158 704/592/158 700/594/158
f 702/596/159 703/589/159 699/591/159
f 707/597/161 711/932/161 713/598/161
f 712/600/160 710/603/160 706/601/160
f 713/598/158 712/600/158 708/602/158
f 710/603/159 711/932/159 707/597/159
f 804/604/21 760/933/21 733/605/21
f 873/607/163 872/834/163 923/608/163
f 793/610/22 747/934/22 720/611/22
f 754/613/13 799/935/13 777/614/13
f 802/616/23 758/936/23 731/617/23
f 741/619/15 788/937/15 766/620/15
f 822/622/277 823/836/277 879/623/277
f 752/625/26 798/938/26 776/626/26
f 866/628/165 867/798/165 915/629/165
f 855/631/166 854/762/166 919/632/166
f 789/634/12 742/939/12 715/635/12
f 809/637/25 786/758/25 714/638/25
f 790/640/10 744/940/10 717/641/10
f 751/643/18 797/776/18 774/644/18
f 829/646/167 828/854/167 897/647/167
f 763/649/19 806/941/19 783/650/19
f 750/652/20 795/942/20 772/653/20
f 847/655/168 846/744/168 931/656/168
f 858/658/169 859/771/169 917/659/169
f 808/661/25 765/855/25 739/662/25
f 857/664/170 856/768/170 927/665/170
f 836/667/171 837/713/171 883/668/171
f 759/670/23 803/826/23 780/671/23
f 807/673/17 764/846/17 737/674/17
f 746/676/24 792/835/24 770/677/24
f 826/679/172 827/847/172 881/680/172
f 801/682/9 779/943/9 732/683/9
f 805/685/19 762/944/19 735/686/19
f 791/688/10 768/740/10 719/689/10
f 794/691/20 749/824/20 722/692/20
f 755/694/11 800/945/11 778/695/11
f 811/697/173 810/783/173 877/698/173
f 830/700/174 831/856/174 726/701/174
f 918/703/15 887/946/15 874/704/15
f 832/706/175 833/883/175 740/639/175
f 835/707/176 834/710/176 741/708/176
f 834/710/177 835/707/177 715/711/177
f 837/713/178 836/667/178 754/714/178
f 930/716/11 895/947/11 882/717/11
f 839/719/278 838/722/278 743/720/278
f 838/722/180 839/719/180 717/723/180
f 841/725/181 840/728/181 755/726/181
f 840/728/182 841/725/182 729/729/182
f 932/731/9 756/730/9 729/729/9
f 842/733/183 843/741/183 779/734/183
f 845/736/184 844/739/184 790/737/184
f 844/739/185 845/736/185 768/740/185
f 843/741/186 842/733/186 933/742/186
f 846/744/187 847/655/187 778/745/187
f 849/747/188 848/759/188 789/748/188
f 743/720/12 921/873/12 900/750/12
f 928/751/13 753/702/13 726/701/13
f 850/753/189 851/765/189 777/754/189
f 853/756/190 852/757/190 808/661/190
f 852/757/191 853/756/191 786/758/191
f 848/759/192 849/747/192 901/760/192
f 854/762/193 855/631/193 766/763/193
f 851/765/194 850/753/194 929/766/194
f 856/768/195 857/664/195 776/769/195
f 859/771/196 858/658/196 807/673/196
f 861/772/197 860/775/197 796/773/197
f 860/775/198 861/772/198 774/644/198
f 922/777/24 889/948/24 876/778/24
f 863/780/199 862/784/199 805/781/199
f 810/783/279 811/697/279 745/690/279
f 862/784/201 863/780/201 783/785/201
f 813/787/202 812/789/202 746/676/202
f 865/788/203 864/792/203 794/691/203
f 812/789/204 813/787/204 720/790/204
f 864/792/205 865/788/205 772/793/205
f 815/795/206 814/801/206 731/796/206
f 867/798/207 866/628/207 804/799/207
f 814/801/208 815/795/208 757/802/208
f 761/804/21 935/878/21 914/805/21
f 817/807/209 816/811/209 759/670/209
f 869/808/210 868/828/210 793/809/210
f 816/811/211 817/807/211 733/812/211
f 748/814/22 925/949/22 904/815/22
f 819/817/212 818/823/212 748/818/212
f 871/820/213 870/825/213 802/821/213
f 818/823/214 819/817/214 722/692/214
f 870/825/215 871/820/215 780/671/215
f 821/827/216 820/831/216 761/804/216
f 868/828/280 869/808/280 905/829/280
f 820/831/218 821/827/218 735/832/218
f 872/834/219 873/607/219 770/677/219
f 823/836/220 822/622/220 750/837/220
f 796/839/18 891/950/18 878/840/18
f 825/842/281 824/845/281 763/843/281
f 824/845/222 825/842/222 737/674/222
f 827/847/282 826/679/282 751/643/282
f 926/848/26 893/863/26 880/849/26
f 896/851/17 937/951/17 916/852/17
f 828/854/224 829/646/224 739/662/224
f 831/856/225 830/700/225 752/857/225
f 889/859/226 888/699/226 877/698/226
f 891/861/283 890/624/283 879/623/283
f 893/863/228 892/681/228 881/680/228
f 885/864/229 884/648/229 897/647/229
f 887/866/230 886/884/230 875/867/230
f 895/869/231 894/669/231 883/668/231
f 913/732/232 912/743/232 933/742/232
f 911/871/233 910/657/233 931/656/233
f 921/873/234 920/761/234 901/760/234
f 909/752/235 908/767/235 929/766/235
f 899/874/236 898/633/236 919/632/236
f 907/850/237 906/666/237 927/665/237
f 937/876/238 936/660/238 917/659/238
f 935/878/239 934/630/239 915/629/239
f 925/879/240 924/830/240 905/829/240
f 903/881/241 902/609/241 923/608/241
f 833/883/242 832/706/242 875/867/242
