# Blender 4.4.0
# www.blender.org
mtllib Bld_02_Fence_Wood_Gate_Single_Short_Sides_Worned_01.mtl
o Bld_02_Fence_Wood_Gate_Single_Short_Worned_01
v -1.907500 0.450478 0.031328
v -0.687500 0.450478 0.031328
v -0.687500 0.450478 -0.027809
v -1.907500 0.590389 -0.027809
v -1.907500 0.590389 0.031328
v -0.687500 0.590389 0.031328
v -0.687500 0.590389 -0.027809
v -1.907499 0.961471 0.031328
v -1.907499 0.961471 -0.027809
v -0.687500 0.817625 -0.027809
v -1.907499 1.102061 -0.027809
v -1.907499 1.102061 0.031328
v -0.687500 0.959220 0.031328
v -0.687500 0.959220 -0.027809
v -1.907500 1.330301 0.031328
v -0.687500 1.330301 0.031328
v -1.907500 1.330301 -0.027809
v -0.687500 1.330301 -0.027809
v -1.907500 1.470213 -0.027809
v -1.907500 1.470213 0.031328
v -0.687500 1.470213 0.031328
v -0.687500 1.470213 -0.027809
v -2.047862 0.111273 -0.068421
v -2.047862 0.111273 0.071940
v -1.907501 0.111273 0.071940
v -2.047862 1.489359 0.071940
v -2.047862 1.489359 -0.068421
v -1.907501 1.489359 -0.068421
v -0.547141 0.111273 -0.068421
v -0.547141 0.111273 0.071940
v -0.687501 0.111273 0.071940
v -0.547141 1.489359 0.071940
v -0.547141 1.499607 -0.068421
v -0.687501 1.489359 -0.068421
v -0.680561 1.276752 -0.055269
v -0.680561 1.276752 -0.027809
v -1.917305 0.230174 -0.027809
v -1.917967 0.412899 -0.055269
v -1.917967 0.412899 -0.027809
v -0.679798 1.460683 -0.027809
v -0.679798 1.460683 -0.055269
v -1.011306 1.166722 -0.027809
v -1.011306 1.166722 -0.055269
v -1.011687 0.996541 -0.027809
v -1.072900 1.128026 -0.055269
v -0.974804 1.211038 -0.055269
v -0.974804 1.211038 -0.027809
v -1.072900 1.128026 -0.027809
v -1.917368 0.247572 -0.055269
v -1.917305 0.230174 -0.041947
v -1.011687 0.996541 -0.041947
v -1.011651 1.014023 -0.055269
v -0.925160 1.069764 -0.055269
v -1.412303 0.840810 -0.037997
v -1.405723 0.833033 -0.027809
v -1.355593 0.888800 -0.027809
v -1.519315 0.736907 -0.027809
v -1.525896 0.744683 -0.037997
v -1.615383 0.668957 -0.027809
v -1.693912 1.344880 0.031328
v -1.693912 1.344880 -0.027809
v -1.693912 1.463857 -0.027809
v -1.693912 1.463857 0.031328
v -1.669209 1.475571 0.031328
v -1.718614 1.458964 0.031328
v -1.718614 1.458964 -0.027809
v -1.669209 1.475571 -0.027809
v -0.822664 1.341301 0.031328
v -0.822795 1.332261 0.022287
v -0.697854 1.330451 0.031328
v -0.995879 1.334768 0.022287
v -0.995748 1.343809 0.031328
v -1.248365 1.338426 0.031328
v -1.424383 0.916043 -0.027809
v -1.424383 1.038392 -0.027809
v -1.424383 1.038392 0.031328
v -1.406915 1.045934 0.031328
v -1.569041 1.062433 0.031328
v -1.569041 1.062433 -0.027809
v -1.406915 1.045934 -0.027809
v -0.687500 0.829658 0.031328
v -0.687500 0.817625 0.019400
v -1.424383 0.916043 0.019400
v -1.424383 0.928076 0.031328
v -1.638543 0.936180 0.031328
v -1.055942 0.884783 -0.027809
v -1.055942 0.884783 0.019400
v -1.055942 0.896816 0.031328
v -1.236148 0.470345 0.031328
v -1.236148 0.574528 -0.027809
v -1.236148 0.574528 0.031328
v -1.038677 0.590389 0.031328
v -1.511026 0.590389 0.031328
v -1.511026 0.590389 -0.027809
v -1.038677 0.590389 -0.027809
v -1.907500 0.455617 -0.027809
v -1.907500 0.450478 -0.022672
v -1.236148 0.470345 -0.022672
v -1.236148 0.475485 -0.027809
v -1.062512 0.464058 -0.027809
v -0.747329 0.590389 0.021299
v -0.747329 0.580361 0.031328
v -0.725883 0.590389 0.031328
v -0.795176 0.590389 0.031328
v -0.687501 1.489359 -0.004792
v -0.687501 1.458076 0.071940
v -0.656218 1.474538 0.071940
v -0.687501 0.111273 -0.030461
v -0.687501 0.149234 -0.068421
v -0.649540 0.111273 -0.068421
v -0.687501 0.820621 0.061784
v -0.677345 0.820621 0.071940
v -0.687501 1.036932 0.071940
v -0.677345 0.610105 0.071940
v -0.687501 0.610105 0.061784
v -0.687501 0.417535 0.071940
v -1.969491 1.489359 0.071940
v -1.907501 1.464734 0.071940
v -1.907501 1.489359 0.006229
v -1.907501 0.728542 0.061004
v -1.918436 0.728542 0.071940
v -1.907501 0.346405 0.071940
v -1.918436 0.880972 0.071940
v -1.907501 0.880972 0.061004
v -1.907501 1.053405 0.071940
v -1.947350 0.111273 -0.068421
v -1.907501 0.233298 -0.068421
v -1.907501 0.111273 0.018581
vn -0.0362 -0.9993 -0.0000
vn -0.0936 -0.9956 -0.0000
vn -0.0000 -0.0000 -1.0000
vn -0.0000 -0.0000 1.0000
vn 1.0000 -0.0000 -0.0000
vn -0.0000 1.0000 -0.0000
vn -0.1307 0.9621 0.2391
vn -0.0000 -1.0000 -0.0000
vn -1.0000 -0.0000 -0.0000
vn -0.7719 0.6358 -0.0000
vn 0.6460 -0.7634 -0.0000
vn -0.6460 0.7634 -0.0000
vn -0.5320 0.8468 -0.0000
vn 0.3641 -0.5650 -0.7404
vn 0.4568 -0.5398 -0.7071
vn -0.5283 0.4749 0.7038
vn -0.4091 0.5784 0.7058
vn -0.4568 0.5398 0.7071
vn -0.4285 0.9036 -0.0000
vn 0.0594 0.9982 -0.0000
vn 0.0681 -0.9977 -0.0000
vn -0.1943 0.9809 -0.0000
vn 0.0055 1.0000 -0.0000
vn -0.0145 -0.9999 -0.0000
vn -0.0613 -0.7054 0.7062
vn 0.0151 -0.7072 0.7069
vn -0.0102 -0.7070 0.7071
vn -0.3964 0.9181 -0.0000
vn -0.1793 -0.9838 -0.0000
vn 0.1163 0.9932 -0.0000
vn 0.1639 0.9865 -0.0000
vn 0.1197 0.9928 -0.0000
vn -0.0266 -0.7037 0.7100
vn -0.1273 -0.6982 0.7045
vn -0.0596 -0.7027 0.7090
vn -0.0845 -0.9964 -0.0000
vn -0.0801 0.9968 -0.0000
vn 0.0576 0.9983 -0.0000
vn -0.0465 -0.7062 -0.7065
vn 0.0209 -0.7068 -0.7071
vn 0.0296 -0.9996 -0.0000
vn -0.3139 0.6714 0.6714
vn 0.1466 0.6995 0.6995
vn -0.4380 0.8324 0.3394
vn -0.5774 -0.5774 -0.5774
vn -0.7067 -0.0332 0.7067
vn -0.7066 0.0373 0.7066
vn -0.7071 -0.0000 0.7071
vn 0.3486 0.8777 0.3289
vn 0.7070 0.0202 0.7070
vn 0.7064 -0.0448 0.7064
vn 0.7071 -0.0000 0.7071
vn 0.8716 -0.2846 -0.3992
vn -0.0398 0.9966 0.0728
vn -0.0728 0.9973 -0.0000
vt 0.200669 0.834834
vt 0.200682 0.834674
vt 0.200657 0.840158
vt 0.200650 0.840395
vt 0.200640 0.840693
vt 0.200652 0.841883
vt 0.200640 0.842349
vt 0.200640 0.845038
vt 0.200647 0.846553
vt 0.200648 0.845209
vt 0.200648 0.846749
vt 0.204853 0.814144
vt 0.204853 0.812052
vt 0.204853 0.811433
vt 0.204853 0.818309
vt 0.204850 0.818309
vt 0.204852 0.818309
vt 0.204872 0.818309
vt 0.204873 0.818228
vt 0.204874 0.818309
vt 0.204874 0.810765
vt 0.204872 0.810765
vt 0.204873 0.810765
vt 0.200657 0.841599
vt 0.200682 0.844407
vt 0.200672 0.843633
vt 0.200671 0.841106
vt 0.204850 0.810765
vt 0.200671 0.843111
vt 0.200674 0.841969
vt 0.200682 0.846573
vt 0.200671 0.841312
vt 0.200640 0.834232
vt 0.200669 0.842655
vt 0.200640 0.832285
vt 0.200640 0.832080
vt 0.200657 0.839272
vt 0.200658 0.839180
vt 0.200659 0.839837
vt 0.200654 0.838048
vt 0.200653 0.838140
vt 0.200650 0.837248
vt 0.200648 0.846611
vt 0.200640 0.846686
vt 0.200682 0.846686
vt 0.200682 0.845038
vt 0.200678 0.845061
vt 0.200672 0.845090
vt 0.200678 0.845167
vt 0.200682 0.845039
vt 0.200672 0.845197
vt 0.200663 0.845133
vt 0.200657 0.841688
vt 0.200670 0.839790
vt 0.200682 0.838999
vt 0.200657 0.840300
vt 0.200682 0.840667
vt 0.200682 0.839141
vt 0.200670 0.839932
vt 0.200670 0.836322
vt 0.200663 0.836136
vt 0.200654 0.836322
vt 0.200640 0.836322
vt 0.200640 0.834735
vt 0.200663 0.834969
vt 0.200663 0.834908
vt 0.200640 0.834674
vt 0.200678 0.836322
vt 0.200680 0.836322
vt 0.200680 0.836204
vt 0.200681 0.836322
vt 0.200682 0.836322
vt 0.204872 0.818138
vt 0.204872 0.810973
vt 0.204874 0.818365
vt 0.204872 0.814648
vt 0.204872 0.815832
vt 0.204872 0.814648
vt 0.204872 0.813496
vt 0.204872 0.813496
vt 0.204872 0.812441
vt 0.204853 0.818174
vt 0.204853 0.810765
vt 0.204853 0.814144
vt 0.204853 0.814979
vt 0.204853 0.814979
vt 0.204853 0.815922
vt 0.204852 0.810765
s 0
usemtl Texture_Map
f 100/1/1 3/2/1 2/2/1
f 74/3/2 83/3/2 85/4/2
f 9/5/3 79/6/3 74/3/3
f 85/4/4 78/6/4 12/7/4
f 17/8/3 66/9/3 61/10/3
f 66/9/3 67/11/3 61/10/3
f 120/12/5 122/13/5 127/14/5
f 119/15/6 27/16/6 117/17/6
f 105/18/7 107/19/7 32/20/7
f 30/21/8 108/22/8 110/23/8
f 29/21/5 32/20/5 30/21/5
f 75/24/3 74/3/3 79/6/3
f 36/25/4 47/26/4 44/27/4
f 24/28/9 27/16/9 23/28/9
f 47/26/10 43/29/10 42/29/10
f 53/30/11 35/25/11 36/25/11
f 40/31/12 46/26/12 47/26/12
f 52/32/3 38/33/3 45/34/3
f 42/29/13 45/34/13 48/34/13
f 51/27/14 52/32/14 53/30/14
f 51/27/15 49/35/15 52/32/15
f 50/36/11 44/27/11 37/36/11
f 45/34/3 46/26/3 52/32/3
f 54/37/16 55/38/16 56/39/16
f 57/40/17 58/41/17 59/42/17
f 57/40/18 54/37/18 58/41/18
f 54/37/12 56/39/12 45/34/12
f 67/11/19 63/43/19 64/11/19
f 65/9/20 19/44/20 20/44/20
f 17/8/21 60/10/21 15/8/21
f 64/11/4 65/9/4 60/10/4
f 53/30/3 52/32/3 46/26/3
f 62/43/22 65/9/22 63/43/22
f 21/45/23 67/11/23 64/11/23
f 18/46/24 69/47/24 71/48/24
f 68/49/25 69/47/25 70/50/25
f 71/48/26 72/51/26 73/52/26
f 69/47/27 72/51/27 71/48/27
f 68/49/4 70/50/4 21/45/4
f 80/53/28 76/24/28 77/53/28
f 86/54/29 82/55/29 87/54/29
f 78/6/30 11/7/30 12/7/30
f 47/26/4 48/34/4 44/27/4
f 84/56/4 76/24/4 78/6/4
f 44/27/4 55/38/4 57/40/4
f 76/24/31 79/6/31 78/6/31
f 13/57/32 80/53/32 77/53/32
f 83/3/33 84/56/33 85/4/33
f 87/54/34 81/58/34 88/59/34
f 88/59/4 13/57/4 77/53/4
f 83/3/35 88/59/35 84/56/35
f 74/3/36 87/54/36 83/3/36
f 92/60/37 90/61/37 91/61/37
f 93/62/6 4/63/6 5/63/6
f 96/64/3 94/62/3 99/65/3
f 89/66/4 91/61/4 93/62/4
f 91/61/38 94/62/38 93/62/38
f 98/66/39 99/65/39 100/1/39
f 98/66/40 96/64/40 99/65/40
f 97/67/41 89/66/41 1/67/41
f 104/68/4 92/60/4 2/2/4
f 101/69/42 102/70/42 103/71/42
f 102/70/43 101/69/43 104/68/43
f 104/68/6 101/69/6 7/72/6
f 105/18/44 106/73/44 107/19/44
f 108/22/45 109/74/45 110/23/45
f 109/74/3 34/18/3 33/75/3
f 111/76/9 113/77/9 34/18/9
f 111/76/46 112/78/46 113/77/46
f 114/79/47 115/80/47 116/81/47
f 115/80/48 112/78/48 111/76/48
f 114/79/4 116/81/4 30/21/4
f 117/17/49 118/82/49 119/15/49
f 128/83/8 25/83/8 24/28/8
f 120/12/50 121/84/50 122/13/50
f 123/85/51 124/86/51 125/87/51
f 124/86/52 121/84/52 120/12/52
f 123/85/4 125/87/4 26/16/4
f 126/88/53 127/14/53 128/83/53
f 27/16/3 28/15/3 127/14/3
f 86/54/3 80/53/3 14/57/3
f 15/8/4 65/9/4 20/44/4
f 18/46/3 67/11/3 22/45/3
f 90/61/3 99/65/3 94/62/3
f 100/1/3 99/65/3 95/60/3
f 1/67/4 93/62/4 5/63/4
f 2/2/1 89/66/1 100/1/1
f 89/66/1 98/66/1 100/1/1
f 85/4/2 8/5/2 9/5/2
f 9/5/2 74/3/2 85/4/2
f 9/5/3 11/7/3 79/6/3
f 12/7/4 8/5/4 85/4/4
f 85/4/4 84/56/4 78/6/4
f 17/8/3 19/44/3 66/9/3
f 66/9/4 62/43/4 67/11/4
f 25/83/5 128/83/5 127/14/5
f 127/14/5 28/15/5 124/86/5
f 28/15/5 119/15/5 118/82/5
f 127/14/5 124/86/5 120/12/5
f 118/82/5 125/87/5 28/15/5
f 125/87/5 124/86/5 28/15/5
f 25/83/5 127/14/5 122/13/5
f 28/15/6 27/16/6 119/15/6
f 27/16/6 26/16/6 117/17/6
f 32/20/54 33/75/54 105/18/54
f 33/75/55 34/18/55 105/18/55
f 110/23/8 29/21/8 30/21/8
f 30/21/8 31/22/8 108/22/8
f 29/21/5 33/75/5 32/20/5
f 75/24/3 80/53/3 74/3/3
f 36/25/4 40/31/4 47/26/4
f 24/28/9 26/16/9 27/16/9
f 47/26/10 46/26/10 43/29/10
f 36/25/11 44/27/11 53/30/11
f 44/27/11 51/27/11 53/30/11
f 40/31/12 41/31/12 46/26/12
f 52/32/3 49/35/3 38/33/3
f 42/29/13 43/29/13 45/34/13
f 51/27/15 50/36/15 49/35/15
f 50/36/11 51/27/11 44/27/11
f 45/34/4 43/29/4 46/26/4
f 57/40/18 55/38/18 54/37/18
f 38/33/12 39/33/12 59/42/12
f 38/33/12 59/42/12 58/41/12
f 48/34/12 45/34/12 56/39/12
f 45/34/12 38/33/12 58/41/12
f 54/37/12 45/34/12 58/41/12
f 67/11/19 62/43/19 63/43/19
f 65/9/20 66/9/20 19/44/20
f 17/8/21 61/10/21 60/10/21
f 64/11/3 63/43/3 65/9/3
f 41/31/3 35/25/3 46/26/3
f 35/25/3 53/30/3 46/26/3
f 62/43/22 66/9/22 65/9/22
f 21/45/23 22/45/23 67/11/23
f 73/52/24 60/10/24 61/10/24
f 18/46/24 16/46/24 70/50/24
f 18/46/24 70/50/24 69/47/24
f 73/52/24 61/10/24 71/48/24
f 61/10/24 18/46/24 71/48/24
f 69/47/27 68/49/27 72/51/27
f 64/11/4 60/10/4 73/52/4
f 64/11/4 73/52/4 21/45/4
f 73/52/4 72/51/4 21/45/4
f 16/46/4 21/45/4 70/50/4
f 68/49/4 21/45/4 72/51/4
f 80/53/28 75/24/28 76/24/28
f 86/54/29 10/55/29 82/55/29
f 78/6/30 79/6/30 11/7/30
f 47/26/3 42/29/3 48/34/3
f 84/56/4 77/53/4 76/24/4
f 39/33/4 37/36/4 59/42/4
f 37/36/4 44/27/4 57/40/4
f 59/42/4 37/36/4 57/40/4
f 44/27/4 48/34/4 56/39/4
f 44/27/4 56/39/4 55/38/4
f 76/24/31 75/24/31 79/6/31
f 13/57/32 14/57/32 80/53/32
f 87/54/34 82/55/34 81/58/34
f 77/53/4 84/56/4 88/59/4
f 88/59/4 81/58/4 13/57/4
f 83/3/35 87/54/35 88/59/35
f 74/3/36 86/54/36 87/54/36
f 92/60/37 95/60/37 90/61/37
f 93/62/6 94/62/6 4/63/6
f 96/64/3 4/63/3 94/62/3
f 89/66/4 92/60/4 91/61/4
f 91/61/38 90/61/38 94/62/38
f 98/66/40 97/67/40 96/64/40
f 97/67/41 98/66/41 89/66/41
f 92/60/4 89/66/4 2/2/4
f 2/2/4 6/72/4 102/70/4
f 6/72/4 103/71/4 102/70/4
f 102/70/4 104/68/4 2/2/4
f 95/60/6 92/60/6 104/68/6
f 101/69/6 103/71/6 7/72/6
f 103/71/6 6/72/6 7/72/6
f 95/60/6 104/68/6 7/72/6
f 33/75/3 29/21/3 109/74/3
f 29/21/3 110/23/3 109/74/3
f 34/18/9 109/74/9 111/76/9
f 109/74/9 108/22/9 31/22/9
f 111/76/9 109/74/9 115/80/9
f 31/22/9 116/81/9 109/74/9
f 116/81/9 115/80/9 109/74/9
f 105/18/9 34/18/9 106/73/9
f 113/77/9 106/73/9 34/18/9
f 115/80/48 114/79/48 112/78/48
f 116/81/4 31/22/4 30/21/4
f 30/21/4 32/20/4 112/78/4
f 32/20/4 107/19/4 106/73/4
f 30/21/4 112/78/4 114/79/4
f 106/73/4 113/77/4 32/20/4
f 113/77/4 112/78/4 32/20/4
f 24/28/8 23/28/8 126/88/8
f 126/88/8 128/83/8 24/28/8
f 124/86/52 123/85/52 121/84/52
f 24/28/4 25/83/4 122/13/4
f 24/28/4 122/13/4 121/84/4
f 117/17/4 26/16/4 118/82/4
f 26/16/4 24/28/4 121/84/4
f 123/85/4 26/16/4 121/84/4
f 125/87/4 118/82/4 26/16/4
f 126/88/3 23/28/3 127/14/3
f 23/28/3 27/16/3 127/14/3
f 14/57/3 10/55/3 86/54/3
f 86/54/3 74/3/3 80/53/3
f 15/8/4 60/10/4 65/9/4
f 18/46/3 61/10/3 67/11/3
f 90/61/3 95/60/3 99/65/3
f 7/72/3 3/2/3 95/60/3
f 3/2/3 100/1/3 95/60/3
f 1/67/4 89/66/4 93/62/4
o Bld_02_Fence_Wood_Gate_Single_Short_Sides_Worned_01
v -2.517505 0.450478 0.031328
v -2.517505 0.450478 -0.027809
v -0.077506 0.450478 -0.027809
v -2.517505 0.590390 -0.027809
v -2.517505 0.590390 0.031328
v -0.077506 0.590390 0.031328
v -0.077506 0.590390 -0.027809
v -2.517505 0.890390 0.031328
v -0.077505 0.890390 0.031328
v -2.517505 0.890390 -0.027809
v -0.077505 0.890390 -0.027809
v -2.517505 1.030301 -0.027809
v -2.517505 1.030301 0.031328
v -0.077505 1.030301 0.031328
v -0.077505 1.030301 -0.027809
v -2.517505 1.330301 0.031328
v -0.077505 1.330301 0.031328
v -2.517505 1.330301 -0.027809
v -0.077505 1.339879 -0.027809
v -2.517505 1.470213 -0.027809
v -2.517505 1.470213 0.031328
v -0.077505 1.470213 0.031328
v -0.077505 1.470213 -0.027809
v -2.202877 1.330301 0.031328
v -0.392136 1.346559 0.031328
v -0.392136 1.330301 -0.027809
v -2.202877 1.330301 -0.027809
v -2.202877 1.470213 0.031328
v -0.392136 1.470213 0.031328
v -2.202877 1.470213 -0.027809
v -0.392136 1.470213 -0.027809
v -2.202877 0.890390 0.031328
v -0.392136 0.890390 0.031328
v -0.392136 0.890390 -0.027809
v -2.202877 0.890390 -0.027809
v -2.202877 1.016765 0.031328
v -0.392136 1.030301 0.031328
v -2.202877 1.030301 -0.027809
v -0.392136 1.030301 -0.027809
v -0.392137 0.450478 0.031328
v -0.392137 0.450478 -0.027809
v -2.202878 0.450478 -0.027809
v -2.202878 0.590390 0.031328
v -0.392137 0.590390 0.031328
v -2.202878 0.590390 -0.027809
v -0.392137 0.590390 -0.027809
v -2.202876 0.000478 0.079264
v -2.047866 0.000478 0.079264
v -2.047866 0.000478 -0.075746
v -2.202876 1.529616 -0.075746
v -2.047866 1.529616 0.079264
v -2.047866 1.529616 -0.075746
v -0.392135 0.000478 0.079264
v -0.392135 0.000478 -0.075746
v -0.547144 0.000478 -0.075746
v -0.392135 1.529616 -0.075746
v -0.392135 1.549727 0.079264
v -0.547144 1.529616 0.079264
v -0.392135 0.555486 0.057417
v -0.413982 0.555486 0.079264
v -0.392135 0.192056 0.079264
v -0.413982 0.974609 0.079264
v -0.392135 0.974609 0.057417
v -0.392135 1.246181 0.079264
v -0.462932 0.000478 0.079264
v -0.547144 0.044572 0.079264
v -0.547144 0.000478 0.000517
v -0.445796 1.518770 -0.075746
v -0.547144 1.504830 -0.075746
v -0.547144 1.529616 -0.017003
v -2.057220 1.056814 0.079264
v -2.047866 1.056814 0.069910
v -2.047866 1.247202 0.079264
v -2.047866 0.473280 0.069910
v -2.057220 0.473280 0.079264
v -2.047866 0.174745 0.079264
v -2.202876 0.000478 0.048889
v -2.202876 0.044248 -0.075746
v -2.159105 0.000478 -0.075746
v -2.202876 1.529616 0.025645
v -2.202876 1.507377 0.079264
v -2.127467 1.529616 0.079264
v -2.360191 1.330301 0.031328
v -2.360191 1.330301 -0.027809
v -2.360191 1.464638 -0.027809
v -2.360191 1.464638 0.031328
v -2.344697 1.457306 0.031328
v -2.375684 1.470213 0.031328
v -2.375684 1.470213 -0.027809
v -2.344697 1.457306 -0.027809
v -2.360191 0.903941 0.031328
v -2.360191 0.903941 -0.027809
v -2.360191 1.016765 0.031328
v -2.360191 1.030301 -0.027809
v -2.360191 0.450478 -0.027809
v -2.360191 0.588391 -0.027809
v -2.360191 0.588391 0.031328
v -2.341274 0.590390 0.031328
v -2.379108 0.596299 0.031328
v -2.379108 0.596299 -0.027809
v -2.341274 0.590390 -0.027809
v -2.202878 0.458224 0.031328
v -2.202878 0.450478 0.023581
v -2.360191 0.450478 0.023581
v -2.360191 0.458224 0.031328
v -2.438763 0.450478 0.031328
v -0.234821 1.346559 0.031328
v -0.234821 1.478709 0.031328
v -0.234820 1.339879 -0.027809
v -0.234820 1.470213 -0.027809
v -0.234821 0.890390 0.031328
v -0.234820 1.011169 -0.027809
v -0.234820 0.890390 -0.027809
v -0.234821 1.011169 0.031328
v -0.206067 1.017031 0.031328
v -0.263574 1.022823 0.031328
v -0.263574 1.022823 -0.027809
v -0.206067 1.017031 -0.027809
v -0.301566 0.584686 -0.027809
v -0.301566 0.450478 -0.027809
v -0.301566 0.584686 0.031328
v -0.290792 0.590390 0.031328
v -0.312340 0.590390 0.031328
v -0.312340 0.590390 -0.027809
v -0.290792 0.590390 -0.027809
v -0.077506 0.459575 0.031328
v -0.077506 0.450478 0.022231
v -0.301566 0.450478 0.022231
v -0.301566 0.459575 0.031328
v -0.345214 0.450478 0.031328
vn -0.1051 0.9945 -0.0000
vn -0.0000 -1.0000 -0.0000
vn -0.4679 0.8838 -0.0000
vn -0.0000 -0.0000 -1.0000
vn -0.0858 -0.9963 -0.0000
vn -0.0000 0.9748 0.2231
vn -0.1998 0.9798 -0.0000
vn 0.4278 0.9039 -0.0000
vn -0.0000 -0.0000 1.0000
vn 0.0534 0.9884 -0.1420
vn -0.1015 -0.9820 -0.1590
vn 0.0581 0.9983 -0.0000
vn -0.0000 1.0000 -0.0000
vn -1.0000 -0.0000 -0.0000
vn -0.0071 0.9811 -0.1935
vn 0.7065 0.0425 0.7065
vn 0.7060 -0.0568 0.7060
vn 0.7071 -0.0000 0.7071
vn 1.0000 -0.0000 -0.0000
vn -0.4155 -0.7936 0.4444
vn -0.1257 0.9140 -0.3857
vn 0.7067 -0.0347 0.7067
vn 0.7069 0.0221 0.7069
vn -0.6863 -0.6863 -0.2410
vn -0.2628 0.8912 0.3696
vn -0.0906 0.9959 -0.0000
vn 0.3386 0.9409 -0.0000
vn 0.0858 -0.9963 -0.0000
vn 0.3857 0.9226 -0.0000
vn -0.0427 0.9991 -0.0000
vn 0.0695 -0.7054 0.7054
vn -0.0000 -0.7071 0.7071
vn -0.0000 -0.9937 0.1122
vn -0.1027 0.9947 -0.0000
vn 0.3756 0.9268 -0.0000
vn 0.4679 0.8838 -0.0000
vn 0.1458 -0.6996 0.6995
vn 0.4277 0.9039 -0.0000
vn -0.1287 0.9917 -0.0000
vn -0.1965 0.9723 -0.1262
vn 0.0836 0.9714 0.2223
vn 0.0586 -0.9626 0.2646
vn -0.0534 0.9884 -0.1420
vt 0.200625 0.836322
vt 0.200625 0.836299
vt 0.200625 0.834674
vt 0.200622 0.834674
vt 0.200630 0.834674
vt 0.200695 0.834674
vt 0.200703 0.834674
vt 0.200696 0.836322
vt 0.200695 0.836255
vt 0.200625 0.840016
vt 0.200619 0.841504
vt 0.200625 0.841504
vt 0.200630 0.839856
vt 0.200630 0.841345
vt 0.200625 0.841345
vt 0.200699 0.841348
vt 0.200698 0.841279
vt 0.200625 0.846534
vt 0.200625 0.846620
vt 0.200625 0.845038
vt 0.200630 0.845038
vt 0.200698 0.845150
vt 0.200692 0.846686
vt 0.200698 0.846686
vt 0.200703 0.846686
vt 0.200698 0.846786
vt 0.200698 0.845229
vt 0.200703 0.845150
vt 0.200703 0.845038
vt 0.200624 0.836392
vt 0.200697 0.841416
vt 0.200692 0.841504
vt 0.200698 0.839856
vt 0.200703 0.839856
vt 0.200695 0.836322
vt 0.200692 0.836322
vt 0.204849 0.818529
vt 0.204850 0.818529
vt 0.204874 0.818394
vt 0.204874 0.810158
vt 0.204874 0.810400
vt 0.204874 0.818529
vt 0.204877 0.818640
vt 0.204876 0.818470
vt 0.204877 0.813197
vt 0.204876 0.813197
vt 0.204877 0.811207
vt 0.204876 0.815491
vt 0.204877 0.815491
vt 0.204877 0.816978
vt 0.204877 0.818529
vt 0.204876 0.810158
vt 0.204877 0.810158
vt 0.204848 0.818408
vt 0.204848 0.818529
vt 0.204850 0.815941
vt 0.204850 0.815941
vt 0.204850 0.816983
vt 0.204850 0.812747
vt 0.204850 0.812747
vt 0.204850 0.811112
vt 0.204850 0.810158
vt 0.204848 0.810158
vt 0.204848 0.810398
vt 0.204849 0.810158
vt 0.200630 0.846686
vt 0.200624 0.846686
vt 0.200619 0.845038
vt 0.200619 0.836322
vt 0.200619 0.846686
vt 0.200619 0.839856
vt 0.200630 0.841504
vt 0.200630 0.836322
vt 0.200619 0.834674
vt 0.200625 0.834766
vt 0.200630 0.834766
vt 0.200692 0.845229
vt 0.200692 0.839856
vt 0.200703 0.841504
vt 0.200703 0.836322
vt 0.200692 0.834674
vt 0.200695 0.834782
vt 0.200694 0.834674
vt 0.200703 0.834782
vt 0.200692 0.845038
s 0
usemtl Texture_Map
f 229/89/56 225/90/56 226/89/56
f 223/91/57 232/91/57 234/92/57
f 223/91/57 231/93/57 232/91/57
f 248/94/57 255/95/57 256/94/57
f 253/96/58 249/97/58 250/96/58
f 220/98/59 140/99/59 222/100/59
f 220/98/60 160/101/60 219/98/60
f 164/102/61 222/100/61 221/103/61
f 243/104/62 240/105/62 242/105/62
f 215/106/63 213/107/63 214/107/63
f 212/108/57 152/109/57 211/108/57
f 152/109/64 215/106/64 211/108/64
f 237/110/59 159/111/59 238/112/59
f 150/113/65 238/112/65 236/114/65
f 235/115/66 147/116/66 145/117/66
f 228/118/59 229/89/59 223/91/59
f 244/119/67 167/120/67 165/120/67
f 241/121/57 137/122/57 239/121/57
f 219/98/64 164/102/64 221/103/64
f 251/123/68 174/124/68 172/124/68
f 235/115/64 150/113/64 236/114/64
f 210/125/68 179/126/68 180/126/68
f 197/127/69 183/128/69 194/129/69
f 198/130/70 185/131/70 196/132/70
f 187/133/71 188/134/71 189/135/71
f 190/136/72 191/137/72 192/138/72
f 188/134/73 191/137/73 190/136/73
f 184/139/74 191/137/74 187/133/74
f 193/140/75 194/129/75 195/128/75
f 190/136/64 192/138/64 186/130/64
f 196/132/76 197/127/76 198/130/76
f 197/127/59 196/132/59 182/141/59
f 209/142/69 208/143/69 178/143/69
f 199/144/77 200/145/77 201/146/77
f 202/147/78 203/148/78 204/149/78
f 203/148/73 200/145/73 199/144/73
f 177/150/74 200/145/74 202/147/74
f 205/151/79 206/152/79 207/153/79
f 206/152/59 178/143/59 180/126/59
f 208/143/80 209/142/80 210/125/80
f 209/142/64 203/148/64 199/144/64
f 156/154/81 218/106/81 215/106/81
f 217/155/59 218/106/59 212/108/59
f 146/156/57 211/108/57 144/156/57
f 146/156/59 217/155/59 212/108/59
f 215/106/64 216/155/64 211/108/64
f 234/92/64 227/118/64 133/157/64
f 213/107/82 216/155/82 214/107/82
f 216/155/68 148/158/68 149/158/68
f 219/98/64 141/99/64 136/159/64
f 141/99/68 222/100/68 140/99/68
f 138/159/83 219/98/83 136/159/83
f 220/98/59 166/160/59 163/101/59
f 171/161/68 229/89/68 226/89/68
f 130/162/59 228/118/59 223/91/59
f 226/89/64 227/118/64 233/163/64
f 224/90/84 227/118/84 225/90/84
f 227/118/85 132/157/85 133/157/85
f 232/91/86 233/163/86 234/92/86
f 233/163/87 231/93/87 230/164/87
f 230/164/64 226/89/64 233/163/64
f 235/115/64 157/111/64 153/165/64
f 153/165/88 237/110/88 235/115/88
f 157/111/68 238/112/68 159/111/68
f 237/110/59 151/113/59 147/116/59
f 162/166/57 239/121/57 161/166/57
f 137/122/64 243/104/64 239/121/64
f 142/167/89 246/104/89 243/104/89
f 162/166/59 245/119/59 241/121/59
f 242/105/90 245/119/90 244/119/90
f 245/119/59 246/104/59 241/121/59
f 134/168/68 253/96/68 250/96/68
f 169/169/59 252/123/59 248/94/59
f 250/96/64 251/123/64 257/170/64
f 247/97/91 251/123/91 249/97/91
f 248/94/57 256/94/57 258/171/57
f 256/94/92 257/170/92 258/171/92
f 255/95/87 257/170/87 256/94/87
f 254/172/64 250/96/64 257/170/64
f 170/93/59 229/89/59 173/161/59
f 144/156/64 216/155/64 149/158/64
f 155/109/59 218/106/59 158/154/59
f 243/104/64 244/119/64 239/121/64
f 161/166/64 244/119/64 165/120/64
f 139/122/59 246/104/59 143/167/59
f 252/123/59 253/96/59 248/94/59
f 131/95/59 253/96/59 135/168/59
f 258/171/64 251/123/64 172/124/64
f 229/89/56 224/90/56 225/90/56
f 234/92/57 129/162/57 130/162/57
f 130/162/57 223/91/57 234/92/57
f 223/91/57 170/93/57 231/93/57
f 248/94/57 131/95/57 255/95/57
f 253/96/58 247/97/58 249/97/58
f 220/98/59 138/159/59 140/99/59
f 220/98/60 163/101/60 160/101/60
f 164/102/61 166/160/61 222/100/61
f 243/104/62 246/104/62 240/105/62
f 215/106/93 218/106/93 213/107/93
f 212/108/57 155/109/57 152/109/57
f 152/109/64 156/154/64 215/106/64
f 237/110/59 154/173/59 159/111/59
f 150/113/68 151/113/68 238/112/68
f 235/115/88 237/110/88 147/116/88
f 228/118/64 224/90/64 229/89/64
f 244/119/67 245/119/67 167/120/67
f 241/121/57 139/122/57 137/122/57
f 219/98/64 160/101/64 164/102/64
f 251/123/68 252/123/68 174/124/68
f 235/115/64 145/117/64 150/113/64
f 178/143/68 208/143/68 180/126/68
f 208/143/68 210/125/68 180/126/68
f 183/128/69 195/128/69 194/129/69
f 194/129/69 186/130/69 197/127/69
f 186/130/69 198/130/69 197/127/69
f 186/130/94 185/131/94 198/130/94
f 185/131/95 184/139/95 196/132/95
f 188/134/73 187/133/73 191/137/73
f 181/141/74 182/141/74 189/135/74
f 182/141/74 184/139/74 187/133/74
f 189/135/74 182/141/74 187/133/74
f 184/139/74 185/131/74 192/138/74
f 184/139/74 192/138/74 191/137/74
f 193/140/64 181/141/64 189/135/64
f 193/140/64 189/135/64 194/129/64
f 189/135/64 188/134/64 194/129/64
f 186/130/64 194/129/64 190/136/64
f 190/136/64 194/129/64 188/134/64
f 192/138/64 185/131/64 186/130/64
f 182/141/59 183/128/59 197/127/59
f 196/132/59 184/139/59 182/141/59
f 178/143/69 206/152/69 209/142/69
f 206/152/69 205/151/69 175/151/69
f 209/142/69 206/152/69 175/151/69
f 203/148/73 202/147/73 200/145/73
f 204/149/74 176/150/74 177/150/74
f 177/150/74 180/126/74 200/145/74
f 180/126/74 179/126/74 201/146/74
f 200/145/74 180/126/74 201/146/74
f 202/147/74 204/149/74 177/150/74
f 180/126/59 177/150/59 206/152/59
f 177/150/59 207/153/59 206/152/59
f 209/142/64 175/151/64 203/148/64
f 175/151/64 176/150/64 204/149/64
f 203/148/64 175/151/64 204/149/64
f 199/144/64 201/146/64 209/142/64
f 201/146/64 179/126/64 210/125/64
f 201/146/64 210/125/64 209/142/64
f 156/154/81 158/154/81 218/106/81
f 217/155/59 213/107/59 218/106/59
f 146/156/57 212/108/57 211/108/57
f 146/156/59 148/158/59 217/155/59
f 215/106/64 214/107/64 216/155/64
f 133/157/64 129/162/64 234/92/64
f 234/92/64 233/163/64 227/118/64
f 213/107/82 217/155/82 216/155/82
f 216/155/68 217/155/68 148/158/68
f 219/98/64 221/103/64 141/99/64
f 141/99/96 221/103/96 222/100/96
f 138/159/83 220/98/83 219/98/83
f 220/98/59 222/100/59 166/160/59
f 171/161/68 173/161/68 229/89/68
f 130/162/59 132/157/59 228/118/59
f 226/89/59 225/90/59 227/118/59
f 224/90/84 228/118/84 227/118/84
f 227/118/85 228/118/85 132/157/85
f 233/163/87 232/91/87 231/93/87
f 230/164/64 171/161/64 226/89/64
f 235/115/64 236/114/64 157/111/64
f 153/165/97 154/173/97 237/110/97
f 157/111/98 236/114/98 238/112/98
f 237/110/59 238/112/59 151/113/59
f 162/166/57 241/121/57 239/121/57
f 137/122/64 142/167/64 243/104/64
f 142/167/89 143/167/89 246/104/89
f 162/166/59 167/120/59 245/119/59
f 242/105/90 240/105/90 245/119/90
f 245/119/64 240/105/64 246/104/64
f 134/168/68 135/168/68 253/96/68
f 169/169/59 174/124/59 252/123/59
f 250/96/59 249/97/59 251/123/59
f 247/97/91 252/123/91 251/123/91
f 258/171/57 168/169/57 169/169/57
f 169/169/57 248/94/57 258/171/57
f 255/95/87 254/172/87 257/170/87
f 254/172/64 134/168/64 250/96/64
f 170/93/59 223/91/59 229/89/59
f 144/156/64 211/108/64 216/155/64
f 155/109/59 212/108/59 218/106/59
f 243/104/59 242/105/59 244/119/59
f 161/166/64 239/121/64 244/119/64
f 139/122/59 241/121/59 246/104/59
f 252/123/64 247/97/64 253/96/64
f 131/95/59 248/94/59 253/96/59
f 172/124/64 168/169/64 258/171/64
f 258/171/64 257/170/64 251/123/64
