# Blender 4.4.0
# www.blender.org
mtllib Bld_Farm_Sign_03.mtl
o Bld_Farm_Sign_03
v -0.077210 0.000000 0.077210
v 0.077210 0.000000 0.077210
v -0.077210 0.000000 -0.077210
v 0.077210 0.000000 -0.077210
v -0.077210 2.101712 0.077210
v 0.077210 2.101712 0.077210
v -0.077210 2.101712 -0.077210
v 0.077210 2.101712 -0.077210
v -0.099785 2.101712 0.099785
v 0.099785 2.101712 0.099785
v -0.099785 2.101712 -0.099785
v 0.099785 2.101712 -0.099785
v -0.099785 2.127383 -0.099785
v -0.099785 2.127383 0.099785
v 0.099785 2.127383 0.099785
v 0.099785 2.127383 -0.099785
v -1.307240 0.000000 0.077210
v -1.461660 0.000000 0.077210
v -1.307240 0.000000 -0.077210
v -1.461660 0.000000 -0.077210
v -1.307240 2.101712 0.077210
v -1.461660 2.101712 0.077210
v -1.307240 2.101712 -0.077210
v -1.461660 2.101712 -0.077210
v -1.284665 2.101712 0.099785
v -1.484235 2.101712 0.099785
v -1.284665 2.101712 -0.099785
v -1.484235 2.101712 -0.099785
v -1.284665 2.127383 -0.099785
v -1.284665 2.127383 0.099785
v -1.484235 2.127383 0.099785
v -1.484235 2.127383 -0.099785
v -0.692225 1.861717 0.031000
v -0.861537 1.831169 0.031000
v -1.054155 1.744259 0.031000
v -1.100780 1.680380 0.031000
v -0.283670 1.680380 0.031000
v -0.330295 1.744259 0.031000
v -0.522913 1.831169 0.031000
v -1.307239 1.591009 0.031000
v -0.077211 1.591009 0.031000
v -1.234233 1.597325 0.031000
v -1.179234 1.614959 0.031000
v -0.150217 1.597325 0.031000
v -0.205216 1.614959 0.031000
v -0.692225 1.000797 0.031000
v -0.861537 1.031346 0.031000
v -1.054155 1.118256 0.031000
v -1.100780 1.182135 0.031000
v -0.283670 1.182135 0.031000
v -0.330295 1.118256 0.031000
v -0.522913 1.031346 0.031000
v -1.307239 1.271506 0.031000
v -0.077211 1.271506 0.031000
v -1.234233 1.265190 0.031000
v -1.179234 1.247556 0.031000
v -0.150217 1.265190 0.031000
v -0.205216 1.247556 0.031000
v -0.692225 1.861717 -0.031000
v -0.861537 1.831169 -0.031000
v -1.054155 1.744259 -0.031000
v -1.100780 1.680380 -0.031000
v -0.283670 1.680380 -0.031000
v -0.330295 1.744259 -0.031000
v -0.522913 1.831169 -0.031000
v -1.307239 1.591009 -0.031000
v -0.077211 1.591009 -0.031000
v -1.234233 1.597325 -0.031000
v -1.179234 1.614959 -0.031000
v -0.150217 1.597325 -0.031000
v -0.205216 1.614959 -0.031000
v -0.692225 1.000797 -0.031000
v -0.861537 1.031346 -0.031000
v -1.054155 1.118256 -0.031000
v -1.100780 1.182135 -0.031000
v -0.283670 1.182135 -0.031000
v -0.330295 1.118256 -0.031000
v -0.522913 1.031346 -0.031000
v -1.307239 1.271506 -0.031000
v -0.077211 1.271506 -0.031000
v -1.234233 1.265190 -0.031000
v -1.179234 1.247556 -0.031000
v -0.150217 1.265190 -0.031000
v -0.205216 1.247556 -0.031000
v -0.865959 1.845404 0.031000
v -0.692225 1.876750 0.031000
v -1.063801 1.756137 0.031000
v -1.111655 1.690574 0.031000
v -0.320649 1.756137 0.031000
v -0.272795 1.690574 0.031000
v -0.518491 1.845404 0.031000
v -1.238604 1.611459 0.031000
v -1.186496 1.628167 0.031000
v -0.145846 1.611459 0.031000
v -0.197954 1.628167 0.031000
v -0.865959 1.017111 0.031000
v -1.292445 1.579980 0.031000
v -0.092005 1.579980 0.031000
v -0.692225 0.985764 0.031000
v -1.063801 1.106378 0.031000
v -1.111655 1.171940 0.031000
v -0.320649 1.106378 0.031000
v -0.272795 1.171940 0.031000
v -0.518491 1.017111 0.031000
v -1.292445 1.282535 0.031000
v -0.092005 1.282535 0.031000
v -1.238604 1.251055 0.031000
v -1.186496 1.234348 0.031000
v -0.145846 1.251055 0.031000
v -0.197954 1.234348 0.031000
v -0.865959 1.845404 -0.031000
v -0.692225 1.876750 -0.031000
v -1.063801 1.756137 -0.031000
v -1.111655 1.690574 -0.031000
v -0.320649 1.756137 -0.031000
v -0.272795 1.690574 -0.031000
v -0.518491 1.845404 -0.031000
v -1.238604 1.611459 -0.031000
v -1.186496 1.628167 -0.031000
v -0.145846 1.611459 -0.031000
v -0.197954 1.628167 -0.031000
v -0.865959 1.017111 -0.031000
v -1.292445 1.579980 -0.031000
v -0.092005 1.579980 -0.031000
v -0.692225 0.985764 -0.031000
v -1.063801 1.106378 -0.031000
v -1.111655 1.171940 -0.031000
v -0.320649 1.106378 -0.031000
v -0.272795 1.171940 -0.031000
v -0.518491 1.017111 -0.031000
v -1.292445 1.282535 -0.031000
v -0.092005 1.282535 -0.031000
v -1.238604 1.251055 -0.031000
v -1.186496 1.234348 -0.031000
v -0.145846 1.251055 -0.031000
v -0.197954 1.234348 -0.031000
v -1.292445 1.579980 0.021826
v -1.292445 1.282535 0.021826
v -0.092005 1.282535 0.021826
v -0.092005 1.579980 0.021826
v -1.292445 1.579980 -0.021826
v -1.292445 1.282535 -0.021826
v -0.092005 1.282535 -0.021826
v -0.092005 1.579980 -0.021826
v -0.861537 1.831169 0.021826
v -0.692225 1.861717 0.021826
v -1.054155 1.744259 0.021826
v -1.100780 1.680380 0.021826
v -0.330295 1.744259 0.021826
v -0.283670 1.680380 0.021826
v -0.522913 1.831169 0.021826
v -1.234233 1.597325 0.021826
v -1.179234 1.614959 0.021826
v -0.150217 1.597325 0.021826
v -0.205216 1.614959 0.021826
v -0.861537 1.031346 0.021826
v -0.692225 1.000797 0.021826
v -1.054155 1.118256 0.021826
v -1.100780 1.182135 0.021826
v -0.330295 1.118256 0.021826
v -0.283670 1.182135 0.021826
v -0.522913 1.031346 0.021826
v -1.234233 1.265190 0.021826
v -1.179234 1.247556 0.021826
v -0.150217 1.265190 0.021826
v -0.205216 1.247556 0.021826
v -0.861537 1.831169 -0.021826
v -0.692225 1.861717 -0.021826
v -1.054155 1.744259 -0.021826
v -1.100780 1.680380 -0.021826
v -0.330295 1.744259 -0.021826
v -0.283670 1.680380 -0.021826
v -0.522913 1.831169 -0.021826
v -1.234233 1.597325 -0.021826
v -1.179234 1.614959 -0.021826
v -0.150217 1.597325 -0.021826
v -0.205216 1.614959 -0.021826
v -0.861537 1.031346 -0.021826
v -0.692225 1.000797 -0.021826
v -1.054155 1.118256 -0.021826
v -1.100780 1.182135 -0.021826
v -0.330295 1.118256 -0.021826
v -0.283670 1.182135 -0.021826
v -0.522913 1.031346 -0.021826
v -1.234233 1.265190 -0.021826
v -1.179234 1.247556 -0.021826
v -0.150217 1.265190 -0.021826
v -0.205216 1.247556 -0.021826
v 0.202775 2.064076 0.152943
v 0.115117 1.947228 0.150979
v 0.202775 2.064076 0.075246
v 0.115117 1.947228 0.077211
v -1.587225 2.064076 0.152943
v -1.499567 1.947227 0.150979
v -1.587225 2.064076 0.075246
v -1.499567 1.947227 0.077211
v 0.187128 2.005652 0.153834
v 0.187128 2.005652 0.074356
v -1.571578 2.005651 0.153834
v -1.571578 2.005651 0.074356
vn -0.0000 -0.0000 -1.0000
vn -0.0000 -0.0000 1.0000
vn 1.0000 -0.0000 -0.0000
vn -1.0000 -0.0000 -0.0000
vn -0.0000 -1.0000 -0.0000
vn -0.0000 1.0000 -0.0000
vn 0.1776 -0.9841 -0.0000
vn -0.6404 0.7680 -0.0000
vn -0.1776 0.9841 -0.0000
vn -0.4113 0.9115 -0.0000
vn -0.8077 0.5896 -0.0000
vn 0.8077 0.5896 -0.0000
vn 0.4113 0.9115 -0.0000
vn 0.1776 0.9841 -0.0000
vn -0.3053 0.9523 -0.0000
vn 0.3053 0.9523 -0.0000
vn -0.2856 0.9584 -0.0000
vn 0.2856 0.9584 -0.0000
vn 0.6404 0.7680 -0.0000
vn -0.1776 -0.9841 -0.0000
vn -0.4113 -0.9115 -0.0000
vn -0.8077 -0.5896 -0.0000
vn 0.8077 -0.5896 -0.0000
vn 0.4113 -0.9115 -0.0000
vn -0.3053 -0.9523 -0.0000
vn 0.3053 -0.9523 -0.0000
vn -0.2856 -0.9584 -0.0000
vn -0.6404 -0.7680 -0.0000
vn 0.2856 -0.9584 -0.0000
vn 0.6404 -0.7680 -0.0000
vn 0.6300 -0.7766 -0.0000
vn -0.6300 -0.7766 -0.0000
vn -0.0000 0.0152 0.9999
vn -0.0000 -0.0488 -0.9988
vn -0.0000 0.0152 -0.9999
vn -0.0000 -0.0488 0.9988
vn -0.9660 -0.2587 -0.0000
vn 0.9660 -0.2587 -0.0000
vt 0.571347 0.813200
vt 0.571953 0.914799
vt 0.571953 0.813200
vt 0.571347 0.914799
vt 0.605514 0.809678
vt 0.606297 0.809678
vt 0.606297 0.821024
vt 0.605514 0.821024
vt 0.571382 0.914799
vt 0.571988 0.813200
vt 0.571382 0.813200
vt 0.571988 0.914799
vt 0.605549 0.809678
vt 0.606332 0.809678
vt 0.606332 0.821024
vt 0.605549 0.821024
vt 0.463929 0.699690
vt 0.463563 0.698497
vt 0.464983 0.675706
vt 0.464814 0.673151
vt 0.463929 0.700277
vt 0.463553 0.699053
vt 0.463125 0.695567
vt 0.463021 0.693007
vt 0.464837 0.693007
vt 0.464734 0.695567
vt 0.464305 0.699053
vt 0.462859 0.690569
vt 0.462747 0.689917
vt 0.465112 0.689917
vt 0.464999 0.690569
vt 0.462598 0.689118
vt 0.465261 0.689118
vt 0.463553 0.666707
vt 0.463929 0.665482
vt 0.463125 0.670193
vt 0.463021 0.672753
vt 0.464734 0.670193
vt 0.464837 0.672753
vt 0.464305 0.666707
vt 0.462747 0.675842
vt 0.462859 0.675190
vt 0.464999 0.675190
vt 0.465112 0.675842
vt 0.462598 0.676641
vt 0.465261 0.676641
vt 0.463146 0.695103
vt 0.463045 0.692608
vt 0.464713 0.695103
vt 0.464296 0.698497
vt 0.462756 0.689365
vt 0.465103 0.689365
vt 0.464983 0.690054
vt 0.462630 0.688688
vt 0.462875 0.690054
vt 0.465229 0.688688
vt 0.464814 0.692608
vt 0.463929 0.666069
vt 0.463146 0.670656
vt 0.463563 0.667262
vt 0.464713 0.670656
vt 0.464296 0.667262
vt 0.462630 0.677072
vt 0.465229 0.677072
vt 0.462756 0.676394
vt 0.462875 0.675706
vt 0.465103 0.676394
vt 0.463045 0.673151
vt 0.201794 0.890253
vt 0.201644 0.899881
vt 0.201608 0.906958
vt 0.588512 0.818818
vt 0.588662 0.834451
vt 0.584993 0.834451
vt 0.585144 0.818818
vt 0.588695 0.850083
vt 0.584961 0.850083
vt 0.201925 0.982242
vt 0.202057 0.978858
vt 0.202057 0.890253
vt 0.202207 0.969230
vt 0.202243 0.962154
vt 0.201644 0.969230
vt 0.201794 0.978858
vt 0.201608 0.962154
vt 0.202304 0.954906
vt 0.202243 0.906958
vt 0.202347 0.952953
vt 0.202392 0.951031
vt 0.202392 0.918080
vt 0.201925 0.886869
vt 0.202347 0.916158
vt 0.201547 0.954906
vt 0.201459 0.918080
vt 0.201459 0.951031
vt 0.201504 0.952953
vt 0.201504 0.916158
vt 0.201547 0.914205
vt 0.202304 0.914205
vt 0.202207 0.899881
s 0
usemtl Texture_Map
f 3/1/1 8/2/1 4/3/1
f 2/3/2 5/4/2 1/1/2
f 4/3/3 6/2/3 2/3/3
f 1/1/4 7/4/4 3/1/4
f 11/5/5 10/6/5 9/5/5
f 15/7/6 13/8/6 14/8/6
f 12/6/3 15/7/3 10/6/3
f 9/5/4 13/8/4 11/5/4
f 11/5/1 16/7/1 12/6/1
f 10/6/2 14/8/2 9/5/2
f 24/9/1 19/10/1 20/11/1
f 21/12/2 18/11/2 17/10/2
f 22/9/4 20/11/4 18/11/4
f 23/12/3 17/10/3 19/10/3
f 26/13/5 27/14/5 25/14/5
f 29/15/6 31/16/6 30/15/6
f 31/16/4 28/13/4 26/13/4
f 29/15/3 25/14/3 27/14/3
f 32/16/1 27/14/1 28/13/1
f 30/15/2 26/13/2 25/14/2
f 59/17/7 167/18/7 60/18/7
f 58/19/8 161/20/8 50/20/8
f 86/21/9 111/22/9 85/22/9
f 85/22/10 113/23/10 87/23/10
f 88/24/11 113/23/11 114/24/11
f 90/25/12 115/26/12 89/26/12
f 89/26/13 117/27/13 91/27/13
f 91/27/14 112/21/14 86/21/14
f 93/28/15 118/29/15 92/29/15
f 94/30/16 121/31/16 95/31/16
f 92/29/17 66/32/17 40/32/17
f 88/24/8 119/28/8 93/28/8
f 41/33/18 120/30/18 94/30/18
f 95/31/19 116/25/19 90/25/19
f 96/34/20 125/35/20 99/35/20
f 100/36/21 122/34/21 96/34/21
f 100/36/22 127/37/22 126/36/22
f 102/38/23 129/39/23 103/39/23
f 104/40/24 128/38/24 102/38/24
f 99/35/7 130/40/7 104/40/7
f 107/41/25 134/42/25 108/42/25
f 110/43/26 135/44/26 109/44/26
f 53/45/27 133/41/27 107/41/27
f 101/37/28 134/42/28 127/37/28
f 109/44/29 80/46/29 54/46/29
f 103/39/30 136/43/30 110/43/30
f 33/17/2 85/22/2 34/18/2
f 35/47/2 85/22/2 87/23/2
f 35/47/2 88/24/2 36/48/2
f 38/49/2 90/25/2 89/26/2
f 38/49/2 91/27/2 39/50/2
f 33/17/2 91/27/2 86/21/2
f 42/51/2 93/28/2 92/29/2
f 44/52/2 95/31/2 45/53/2
f 97/54/2 92/29/2 40/32/2
f 36/48/2 93/28/2 43/55/2
f 98/56/2 94/30/2 44/52/2
f 37/57/2 95/31/2 90/25/2
f 46/58/2 96/34/2 99/35/2
f 48/59/2 96/34/2 47/60/2
f 48/59/2 101/37/2 100/36/2
f 51/61/2 103/39/2 50/20/2
f 51/61/2 104/40/2 102/38/2
f 46/58/2 104/40/2 52/62/2
f 97/54/2 53/45/2 105/63/2
f 106/64/2 41/33/2 98/56/2
f 55/65/2 108/42/2 56/66/2
f 57/67/2 110/43/2 109/44/2
f 105/63/2 107/41/2 55/65/2
f 49/68/2 108/42/2 101/37/2
f 106/64/2 109/44/2 54/46/2
f 50/20/2 110/43/2 58/19/2
f 59/17/1 111/22/1 112/21/1
f 61/47/1 111/22/1 60/18/1
f 61/47/1 114/24/1 113/23/1
f 64/49/1 116/25/1 63/57/1
f 64/49/1 117/27/1 115/26/1
f 59/17/1 117/27/1 65/50/1
f 68/51/1 119/28/1 69/55/1
f 70/52/1 121/31/1 120/30/1
f 123/54/1 118/29/1 68/51/1
f 62/48/1 119/28/1 114/24/1
f 124/56/1 120/30/1 67/33/1
f 63/57/1 121/31/1 71/53/1
f 72/58/1 122/34/1 73/60/1
f 74/59/1 122/34/1 126/36/1
f 74/59/1 127/37/1 75/68/1
f 77/61/1 129/39/1 128/38/1
f 77/61/1 130/40/1 78/62/1
f 72/58/1 130/40/1 125/35/1
f 131/63/1 66/32/1 123/54/1
f 124/56/1 80/46/1 132/64/1
f 81/65/1 134/42/1 133/41/1
f 83/67/1 136/43/1 84/19/1
f 131/63/1 133/41/1 79/45/1
f 75/68/1 134/42/1 82/66/1
f 132/64/1 135/44/1 83/67/1
f 76/20/1 136/43/1 129/39/1
f 162/69/2 160/70/2 161/71/2
f 183/71/1 182/70/1 184/69/1
f 34/18/7 146/17/7 33/17/7
f 60/18/24 169/47/24 61/47/24
f 35/47/24 145/18/24 34/18/24
f 61/47/23 170/48/23 62/48/23
f 36/48/23 147/47/23 35/47/23
f 64/49/22 172/57/22 171/49/22
f 37/57/22 149/49/22 150/57/22
f 64/49/21 173/50/21 65/50/21
f 39/50/21 149/49/21 38/49/21
f 65/50/20 168/17/20 59/17/20
f 33/17/20 151/50/20 39/50/20
f 69/55/26 174/51/26 68/51/26
f 42/51/26 153/55/26 43/55/26
f 70/52/25 177/53/25 71/53/25
f 45/53/25 154/52/25 44/52/25
f 68/51/29 141/54/29 123/54/29
f 97/54/29 152/51/29 42/51/29
f 62/48/30 175/55/30 69/55/30
f 43/55/30 148/48/30 36/48/30
f 124/56/27 176/52/27 70/52/27
f 44/52/27 140/56/27 98/56/27
f 71/53/28 172/57/28 63/57/28
f 37/57/28 155/53/28 45/53/28
f 73/60/14 179/58/14 72/58/14
f 46/58/14 156/60/14 47/60/14
f 74/59/13 178/60/13 73/60/13
f 47/60/13 158/59/13 48/59/13
f 75/68/12 180/59/12 74/59/12
f 48/59/12 159/68/12 49/68/12
f 77/61/11 183/20/11 76/20/11
f 50/20/11 160/61/11 51/61/11
f 78/62/10 182/61/10 77/61/10
f 51/61/10 162/62/10 52/62/10
f 72/58/9 184/62/9 78/62/9
f 52/62/9 157/58/9 46/58/9
f 123/54/3 142/63/3 131/63/3
f 105/63/3 137/54/3 97/54/3
f 132/64/4 144/56/4 124/56/4
f 98/56/4 139/64/4 106/64/4
f 81/65/16 186/66/16 82/66/16
f 56/66/16 163/65/16 55/65/16
f 84/19/15 187/67/15 83/67/15
f 57/67/15 166/19/15 58/19/15
f 131/63/18 185/65/18 81/65/18
f 55/65/18 138/63/18 105/63/18
f 82/66/19 181/68/19 75/68/19
f 49/68/19 164/66/19 56/66/19
f 83/67/17 143/64/17 132/64/17
f 106/64/17 165/67/17 57/67/17
f 76/20/8 188/19/8 84/19/8
f 190/72/31 198/73/31 197/73/31
f 200/74/32 194/75/32 199/74/32
f 191/76/6 193/77/6 189/76/6
f 189/76/33 199/74/33 197/73/33
f 190/72/5 196/75/5 192/72/5
f 192/72/34 200/74/34 198/73/34
f 198/73/35 195/77/35 191/76/35
f 197/73/36 194/75/36 190/72/36
f 195/77/37 199/74/37 193/77/37
f 197/73/38 191/76/38 189/76/38
f 3/1/1 7/4/1 8/2/1
f 2/3/2 6/2/2 5/4/2
f 4/3/3 8/2/3 6/2/3
f 1/1/4 5/4/4 7/4/4
f 11/5/5 12/6/5 10/6/5
f 15/7/6 16/7/6 13/8/6
f 12/6/3 16/7/3 15/7/3
f 9/5/4 14/8/4 13/8/4
f 11/5/1 13/8/1 16/7/1
f 10/6/2 15/7/2 14/8/2
f 24/9/1 23/12/1 19/10/1
f 21/12/2 22/9/2 18/11/2
f 22/9/4 24/9/4 20/11/4
f 23/12/3 21/12/3 17/10/3
f 26/13/5 28/13/5 27/14/5
f 29/15/6 32/16/6 31/16/6
f 31/16/4 32/16/4 28/13/4
f 29/15/3 30/15/3 25/14/3
f 32/16/1 29/15/1 27/14/1
f 30/15/2 31/16/2 26/13/2
f 59/17/7 168/17/7 167/18/7
f 58/19/8 166/19/8 161/20/8
f 86/21/9 112/21/9 111/22/9
f 85/22/10 111/22/10 113/23/10
f 88/24/11 87/23/11 113/23/11
f 90/25/12 116/25/12 115/26/12
f 89/26/13 115/26/13 117/27/13
f 91/27/14 117/27/14 112/21/14
f 93/28/15 119/28/15 118/29/15
f 94/30/16 120/30/16 121/31/16
f 92/29/17 118/29/17 66/32/17
f 88/24/8 114/24/8 119/28/8
f 41/33/18 67/33/18 120/30/18
f 95/31/19 121/31/19 116/25/19
f 96/34/20 122/34/20 125/35/20
f 100/36/21 126/36/21 122/34/21
f 100/36/22 101/37/22 127/37/22
f 102/38/23 128/38/23 129/39/23
f 104/40/24 130/40/24 128/38/24
f 99/35/7 125/35/7 130/40/7
f 107/41/25 133/41/25 134/42/25
f 110/43/26 136/43/26 135/44/26
f 53/45/27 79/45/27 133/41/27
f 101/37/28 108/42/28 134/42/28
f 109/44/29 135/44/29 80/46/29
f 103/39/30 129/39/30 136/43/30
f 33/17/2 86/21/2 85/22/2
f 35/47/2 34/18/2 85/22/2
f 35/47/2 87/23/2 88/24/2
f 38/49/2 37/57/2 90/25/2
f 38/49/2 89/26/2 91/27/2
f 33/17/2 39/50/2 91/27/2
f 42/51/2 43/55/2 93/28/2
f 44/52/2 94/30/2 95/31/2
f 97/54/2 42/51/2 92/29/2
f 36/48/2 88/24/2 93/28/2
f 98/56/2 41/33/2 94/30/2
f 37/57/2 45/53/2 95/31/2
f 46/58/2 47/60/2 96/34/2
f 48/59/2 100/36/2 96/34/2
f 48/59/2 49/68/2 101/37/2
f 51/61/2 102/38/2 103/39/2
f 51/61/2 52/62/2 104/40/2
f 46/58/2 99/35/2 104/40/2
f 97/54/2 40/32/2 53/45/2
f 106/64/2 54/46/2 41/33/2
f 55/65/2 107/41/2 108/42/2
f 57/67/2 58/19/2 110/43/2
f 105/63/2 53/45/2 107/41/2
f 49/68/2 56/66/2 108/42/2
f 106/64/2 57/67/2 109/44/2
f 50/20/2 103/39/2 110/43/2
f 59/17/1 60/18/1 111/22/1
f 61/47/1 113/23/1 111/22/1
f 61/47/1 62/48/1 114/24/1
f 64/49/1 115/26/1 116/25/1
f 64/49/1 65/50/1 117/27/1
f 59/17/1 112/21/1 117/27/1
f 68/51/1 118/29/1 119/28/1
f 70/52/1 71/53/1 121/31/1
f 123/54/1 66/32/1 118/29/1
f 62/48/1 69/55/1 119/28/1
f 124/56/1 70/52/1 120/30/1
f 63/57/1 116/25/1 121/31/1
f 72/58/1 125/35/1 122/34/1
f 74/59/1 73/60/1 122/34/1
f 74/59/1 126/36/1 127/37/1
f 77/61/1 76/20/1 129/39/1
f 77/61/1 128/38/1 130/40/1
f 72/58/1 78/62/1 130/40/1
f 131/63/1 79/45/1 66/32/1
f 124/56/1 67/33/1 80/46/1
f 81/65/1 82/66/1 134/42/1
f 83/67/1 135/44/1 136/43/1
f 131/63/1 81/65/1 133/41/1
f 75/68/1 127/37/1 134/42/1
f 132/64/1 80/46/1 135/44/1
f 76/20/1 84/19/1 136/43/1
f 146/78/2 145/79/2 156/80/2
f 145/79/2 147/81/2 148/82/2
f 145/79/2 148/82/2 156/80/2
f 149/83/2 151/84/2 150/85/2
f 151/84/2 146/78/2 162/69/2
f 150/85/2 151/84/2 162/69/2
f 148/82/2 153/86/2 159/87/2
f 156/80/2 148/82/2 159/87/2
f 152/88/2 137/89/2 138/90/2
f 162/69/2 146/78/2 157/91/2
f 153/86/2 152/88/2 163/92/2
f 152/88/2 138/90/2 163/92/2
f 155/93/2 150/85/2 161/71/2
f 139/94/2 140/95/2 154/96/2
f 154/96/2 155/93/2 165/97/2
f 150/85/2 162/69/2 161/71/2
f 165/97/2 155/93/2 166/98/2
f 153/86/2 163/92/2 164/99/2
f 159/87/2 158/100/2 156/80/2
f 153/86/2 164/99/2 159/87/2
f 139/94/2 154/96/2 165/97/2
f 166/98/2 155/93/2 161/71/2
f 156/80/2 157/91/2 146/78/2
f 169/81/1 167/79/1 170/82/1
f 167/79/1 168/78/1 178/80/1
f 170/82/1 167/79/1 178/80/1
f 168/78/1 173/84/1 184/69/1
f 173/84/1 171/83/1 172/85/1
f 173/84/1 172/85/1 184/69/1
f 175/86/1 170/82/1 181/87/1
f 178/80/1 168/78/1 179/91/1
f 172/85/1 177/93/1 183/71/1
f 184/69/1 172/85/1 183/71/1
f 176/96/1 144/95/1 143/94/1
f 177/93/1 176/96/1 187/97/1
f 176/96/1 143/94/1 187/97/1
f 174/88/1 175/86/1 186/99/1
f 168/78/1 184/69/1 179/91/1
f 142/90/1 141/89/1 174/88/1
f 185/92/1 142/90/1 174/88/1
f 170/82/1 178/80/1 181/87/1
f 177/93/1 187/97/1 188/98/1
f 177/93/1 188/98/1 183/71/1
f 186/99/1 185/92/1 174/88/1
f 178/80/1 180/100/1 181/87/1
f 181/87/1 186/99/1 175/86/1
f 34/18/7 145/18/7 146/17/7
f 60/18/24 167/18/24 169/47/24
f 35/47/24 147/47/24 145/18/24
f 61/47/23 169/47/23 170/48/23
f 36/48/23 148/48/23 147/47/23
f 64/49/22 63/57/22 172/57/22
f 37/57/22 38/49/22 149/49/22
f 64/49/21 171/49/21 173/50/21
f 39/50/21 151/50/21 149/49/21
f 65/50/20 173/50/20 168/17/20
f 33/17/20 146/17/20 151/50/20
f 69/55/26 175/55/26 174/51/26
f 42/51/26 152/51/26 153/55/26
f 70/52/25 176/52/25 177/53/25
f 45/53/25 155/53/25 154/52/25
f 68/51/29 174/51/29 141/54/29
f 97/54/29 137/54/29 152/51/29
f 62/48/30 170/48/30 175/55/30
f 43/55/30 153/55/30 148/48/30
f 124/56/27 144/56/27 176/52/27
f 44/52/27 154/52/27 140/56/27
f 71/53/28 177/53/28 172/57/28
f 37/57/28 150/57/28 155/53/28
f 73/60/14 178/60/14 179/58/14
f 46/58/14 157/58/14 156/60/14
f 74/59/13 180/59/13 178/60/13
f 47/60/13 156/60/13 158/59/13
f 75/68/12 181/68/12 180/59/12
f 48/59/12 158/59/12 159/68/12
f 77/61/11 182/61/11 183/20/11
f 50/20/11 161/20/11 160/61/11
f 78/62/10 184/62/10 182/61/10
f 51/61/10 160/61/10 162/62/10
f 72/58/9 179/58/9 184/62/9
f 52/62/9 162/62/9 157/58/9
f 123/54/3 141/54/3 142/63/3
f 105/63/3 138/63/3 137/54/3
f 132/64/4 143/64/4 144/56/4
f 98/56/4 140/56/4 139/64/4
f 81/65/16 185/65/16 186/66/16
f 56/66/16 164/66/16 163/65/16
f 84/19/15 188/19/15 187/67/15
f 57/67/15 165/67/15 166/19/15
f 131/63/18 142/63/18 185/65/18
f 55/65/18 163/65/18 138/63/18
f 82/66/19 186/66/19 181/68/19
f 49/68/19 159/68/19 164/66/19
f 83/67/17 187/67/17 143/64/17
f 106/64/17 139/64/17 165/67/17
f 76/20/8 183/20/8 188/19/8
f 190/72/31 192/72/31 198/73/31
f 200/74/32 196/75/32 194/75/32
f 191/76/6 195/77/6 193/77/6
f 189/76/33 193/77/33 199/74/33
f 190/72/5 194/75/5 196/75/5
f 192/72/34 196/75/34 200/74/34
f 198/73/35 200/74/35 195/77/35
f 197/73/36 199/74/36 194/75/36
f 195/77/37 200/74/37 199/74/37
f 197/73/38 198/73/38 191/76/38
