# Blender 4.4.0
# www.blender.org
mtllib Bld_01_Fence_Wood_Pole_01.mtl
o Bld_01_Fence_Wood_Pole_01
v -0.057627 0.000000 0.057629
v 0.057628 0.000000 0.057629
v -0.057627 0.000000 -0.057627
v 0.057628 0.000000 -0.057627
v -0.057627 1.180033 -0.057627
v -0.057627 1.180033 0.057629
v 0.057628 1.180033 0.057629
v 0.057628 1.180033 -0.057627
vn -0.0000 1.0000 -0.0000
vn -0.0000 -0.0000 -1.0000
vn -0.0000 -0.0000 1.0000
vn 1.0000 -0.0000 -0.0000
vn -1.0000 -0.0000 -0.0000
vt 0.602887 0.911199
vt 0.602886 0.911199
vt 0.602886 0.813119
vt 0.602887 0.813119
s 0
usemtl Texture_Map
f 7/1/1 5/2/1 6/2/1
f 3/3/2 8/1/2 4/4/2
f 2/4/3 6/2/3 1/3/3
f 4/4/4 7/1/4 2/4/4
f 1/3/5 5/2/5 3/3/5
f 7/1/1 8/1/1 5/2/1
f 3/3/2 5/2/2 8/1/2
f 2/4/3 7/1/3 6/2/3
f 4/4/4 8/1/4 7/1/4
f 1/3/5 6/2/5 5/2/5
