# Blender 4.4.0
# www.blender.org
mtllib Bld_01_Fence_Wood_Gate_Single_Short_Sides_Worned_01.mtl
o Bld_01_Fence_Wood_Gate_Single_Short_Worned_01
v -1.522885 0.085061 -0.046200
v -1.522885 0.085061 0.043563
v -1.407629 0.085061 0.043563
v -1.522885 1.120910 0.043563
v -1.522885 1.120910 -0.046200
v -1.407629 1.105937 -0.046200
v -0.507629 0.993238 -0.021717
v -1.407629 1.006816 0.019081
v -0.507629 0.993238 0.019081
v -1.407629 1.089857 0.019081
v -1.407629 1.089857 -0.021717
v -0.507629 1.089857 -0.021717
v -0.507629 1.089857 0.019081
v -1.411604 0.090080 -0.021717
v -1.411604 0.090080 0.019081
v -0.506409 0.116560 0.019081
v -1.408849 0.186821 0.019081
v -1.408849 0.186821 -0.021717
v -0.505909 0.213235 -0.021717
v -0.505909 0.213235 0.019081
v -1.407629 0.400000 -0.021717
v -0.507629 0.400000 -0.021717
v -1.407629 0.400000 0.019081
v -0.507629 0.400000 0.019081
v -1.407629 0.496619 0.019081
v -1.407629 0.496619 -0.021717
v -0.507629 0.496619 -0.021717
v -0.507629 0.496619 0.019081
v -1.407629 0.696619 -0.021717
v -0.507629 0.696619 -0.021717
v -1.407629 0.696619 0.019081
v -0.507629 0.708987 0.019081
v -1.407629 0.793238 0.019081
v -1.407629 0.793238 -0.021717
v -0.507629 0.793238 -0.021717
v -0.507629 0.793238 0.019081
v -0.507629 0.085061 -0.046200
v -0.392373 0.085061 -0.046200
v -0.507629 0.085061 0.043563
v -0.392373 0.085061 0.043563
v -0.507629 1.097736 -0.046200
v -0.392373 1.120910 -0.046200
v -0.392373 1.120910 0.043563
v -1.413168 0.097269 -0.035682
v -1.413168 0.097269 -0.021718
v -0.505132 0.951076 -0.021718
v -1.410616 0.232291 -0.021718
v -1.410616 0.232291 -0.035682
v -0.505626 1.083234 -0.035682
v -0.505626 1.083234 -0.021718
v -0.959150 0.524173 -0.021718
v -0.957975 0.649153 -0.021718
v -0.957975 0.649153 -0.035682
v -0.934247 0.680211 -0.035682
v -0.986695 0.630895 -0.035682
v -0.986695 0.630895 -0.021718
v -0.934247 0.680211 -0.021718
v -0.505193 0.967423 -0.035682
v -0.505132 0.951076 -0.023731
v -0.959150 0.524173 -0.023731
v -0.959022 0.540696 -0.035682
v -1.013650 0.472927 -0.035682
v -1.034086 0.696619 -0.021717
v -1.034086 0.708987 0.019081
v -1.034083 0.778764 0.019081
v -1.034083 0.778764 -0.021717
v -1.016135 0.773598 -0.021717
v -1.052032 0.781030 -0.021717
v -1.052032 0.781030 0.019081
v -1.016135 0.773598 0.019081
v -0.710506 1.006816 0.019081
v -0.710506 1.089857 -0.021717
v -0.710506 1.089857 0.019081
v -1.407629 0.993238 -0.012301
v -1.407629 1.002655 -0.021717
v -0.710506 1.002655 -0.021717
v -0.710506 0.993238 -0.012301
v -0.701089 0.993238 -0.021717
v -0.924265 1.006419 0.019081
v -0.924265 1.083889 0.019081
v -0.924265 1.083889 -0.021717
v -0.924265 0.985332 -0.012301
v -0.924265 0.994748 -0.021717
v -0.689381 1.044360 0.018568
v -0.956272 1.044360 0.018568
v -0.935425 1.054767 0.019081
v -0.937323 1.039922 0.019081
v -0.710506 1.039922 0.019081
v -0.710506 1.048799 0.019081
v -0.507629 1.120910 0.016214
v -0.480280 1.120910 0.043563
v -0.507629 1.093561 0.043563
v -1.407629 1.080415 0.043563
v -1.448123 1.120910 0.043563
v -1.407629 1.120910 0.003068
v -0.802813 0.413915 -0.021717
v -0.802813 0.400000 0.019081
v -0.802813 0.494074 0.019081
v -0.802813 0.494074 -0.021717
v -0.788024 0.490351 -0.021717
v -0.817602 0.496619 -0.021717
v -0.817602 0.496619 0.019081
v -0.788024 0.490351 0.019081
v -1.088648 0.099527 0.019081
v -1.086698 0.193449 0.019081
v -1.086698 0.193449 -0.021717
v -1.071778 0.196681 -0.021717
v -1.101618 0.199458 -0.021717
v -1.101618 0.199458 0.019081
v -1.071778 0.196681 0.019081
v -0.506370 0.124014 -0.021717
v -0.506409 0.116560 -0.014267
v -1.088648 0.099527 -0.014267
v -1.088498 0.106985 -0.021717
v -1.162257 0.097374 -0.021717
v -0.398645 0.683792 -0.046200
v -0.392373 0.683792 -0.039929
v -0.392373 0.791074 -0.046200
v -0.392373 0.522179 -0.039929
v -0.398645 0.522179 -0.046200
v -0.392373 0.409936 -0.046200
v -0.507629 0.512539 -0.046200
v -0.507629 0.587848 -0.042547
v -0.503976 0.587848 -0.046200
v -0.507629 0.638862 -0.046200
v -1.415560 0.691166 -0.046200
v -1.407629 0.691166 -0.038270
v -1.407629 0.870462 -0.046200
v -1.407629 0.499832 -0.038270
v -1.415560 0.499832 -0.046200
v -1.407629 0.356869 -0.046200
v -1.472221 0.085061 -0.046200
v -1.407629 0.085061 -0.027878
v -1.407629 0.103383 -0.046200
vn 1.0000 -0.0000 -0.0000
vn -0.0000 -0.0000 1.0000
vn -0.0000 1.0000 -0.0000
vn -1.0000 -0.0000 -0.0000
vn -0.0637 -0.9512 0.3019
vn 0.0292 -0.9996 -0.0000
vn -0.0411 0.9992 -0.0000
vn -0.0446 -0.9455 -0.3225
vn -0.0000 -0.0000 -1.0000
vn -0.0000 -0.9570 0.2901
vn 0.0343 0.9994 -0.0000
vn -0.0000 -1.0000 -0.0000
vn 0.6850 -0.7285 -0.0000
vn -0.6850 0.7285 -0.0000
vn -0.7946 0.6071 -0.0000
vn -0.5365 0.8439 -0.0000
vn 0.5905 -0.4760 -0.6518
vn 0.4844 -0.5151 -0.7071
vn 0.2765 0.9610 -0.0000
vn -0.0386 0.9993 -0.0000
vn 0.1253 0.9921 -0.0000
vn -0.0000 -0.1147 0.9934
vn -0.0279 0.9996 -0.0000
vn -0.5774 -0.5773 -0.5774
vn 0.0261 -0.7069 -0.7069
vn 0.0307 -0.8296 0.5575
vn -0.0008 -0.9178 0.3971
vn -0.0116 -0.7071 -0.7071
vn 0.0123 0.9999 -0.0000
vn 0.0011 -0.0000 1.0000
vn 0.0243 -0.0000 0.9997
vn -0.0000 0.1147 0.9934
vn -0.5773 0.5773 0.5774
vn 0.5774 0.5773 0.5774
vn 0.2441 0.9697 -0.0000
vn -0.0223 0.9998 -0.0000
vn 0.1696 0.9855 -0.0000
vn -0.2117 0.9773 -0.0000
vn -0.0292 0.9996 -0.0000
vn 0.3736 0.9276 -0.0000
vn 0.0918 -0.7047 -0.7035
vn 0.0207 -0.7068 -0.7071
vn 0.7065 -0.0413 -0.7065
vn 0.7066 0.0395 -0.7066
vn 0.7071 -0.0000 -0.7071
vn -0.7067 0.0343 -0.7067
vn -0.7062 -0.0506 -0.7062
vn 0.7068 -0.0313 -0.7068
vn 0.7066 0.0392 -0.7066
vn 0.1967 -0.6933 -0.6933
vn 0.1233 0.9495 -0.2886
vn 0.3691 -0.8530 0.3691
vn -0.1852 0.9212 -0.3421
vn 0.0317 -0.9565 0.2900
vn -0.0012 -0.0467 0.9989
vn 0.0017 -0.9178 0.3971
vn -0.0136 -0.8299 0.5577
vn -0.0000 0.0135 0.9999
vn -0.0298 -0.0116 0.9995
vn -0.0304 0.0116 0.9995
vn -0.0002 -0.0128 0.9999
vn 0.0009 0.0132 0.9999
vn -0.0028 -0.0000 1.0000
vn -0.0000 -0.0113 0.9999
vn 0.0218 -0.9462 -0.3227
vt 0.577736 0.819726
vt 0.577736 0.823562
vt 0.577736 0.823146
vt 0.577736 0.823805
vt 0.577736 0.806934
vt 0.577736 0.823805
vt 0.577736 0.823805
vt 0.574612 0.853647
vt 0.574613 0.853647
vt 0.574612 0.851935
vt 0.574612 0.850787
vt 0.574612 0.850800
vt 0.574612 0.850335
vt 0.574613 0.850335
vt 0.574611 0.819621
vt 0.574611 0.819695
vt 0.574610 0.819371
vt 0.574610 0.822688
vt 0.574611 0.823121
vt 0.574613 0.829996
vt 0.574612 0.829996
vt 0.574612 0.830474
vt 0.574612 0.833309
vt 0.574612 0.833094
vt 0.574612 0.833221
vt 0.574611 0.823026
vt 0.574611 0.822915
vt 0.574610 0.833309
vt 0.574613 0.840165
vt 0.574611 0.840590
vt 0.574611 0.840165
vt 0.574611 0.843059
vt 0.574611 0.842805
vt 0.574611 0.842982
vt 0.574612 0.837912
vt 0.574612 0.839603
vt 0.574612 0.838538
vt 0.574610 0.843478
vt 0.577737 0.806934
vt 0.577737 0.806934
vt 0.577737 0.823805
vt 0.577737 0.823805
vt 0.577737 0.823360
vt 0.574611 0.832497
vt 0.574612 0.834253
vt 0.574610 0.819618
vt 0.574610 0.824247
vt 0.574613 0.853420
vt 0.574613 0.820279
vt 0.574612 0.834820
vt 0.574610 0.829996
vt 0.574613 0.848889
vt 0.574613 0.849450
vt 0.574610 0.840165
vt 0.574613 0.843478
vt 0.574612 0.852239
vt 0.574612 0.852087
vt 0.574613 0.852087
vt 0.574612 0.853443
vt 0.574612 0.850658
vt 0.574612 0.850386
vt 0.574612 0.850335
vt 0.574612 0.850064
vt 0.574610 0.850335
vt 0.574610 0.850800
vt 0.574610 0.850658
vt 0.574610 0.853647
vt 0.574612 0.852444
vt 0.574613 0.833309
vt 0.574613 0.823593
vt 0.574611 0.819951
vt 0.574613 0.820535
vt 0.577737 0.816686
vt 0.577737 0.818433
vt 0.577737 0.814053
vt 0.577737 0.812225
vt 0.577737 0.815123
vt 0.577737 0.813896
vt 0.577737 0.815954
vt 0.577736 0.806934
vt 0.577736 0.806934
vt 0.577736 0.816806
vt 0.577736 0.813689
vt 0.577736 0.811361
vt 0.577736 0.807232
vt 0.574613 0.840590
vt 0.574612 0.851935
vt 0.577737 0.823428
s 0
usemtl Texture_Map
f 128/1/1 6/2/1 93/3/1
f 93/3/2 4/4/2 2/5/2
f 95/6/3 5/4/3 94/7/3
f 4/4/4 1/5/4 2/5/4
f 73/8/3 12/9/3 72/8/3
f 88/10/2 79/11/2 71/12/2
f 71/12/5 78/13/5 9/14/5
f 115/15/6 104/16/6 15/17/6
f 17/18/7 108/19/7 18/18/7
f 22/20/8 97/21/8 96/22/8
f 102/23/2 103/24/2 98/25/2
f 109/19/9 110/26/9 105/27/9
f 25/28/3 101/23/3 26/28/3
f 30/29/10 64/30/10 63/31/10
f 69/32/2 70/33/2 65/34/2
f 56/35/9 57/36/9 52/37/9
f 33/38/11 68/32/11 34/38/11
f 38/39/12 39/40/12 37/40/12
f 43/41/2 91/42/2 92/43/2
f 91/42/3 43/41/3 42/41/3
f 62/44/13 51/45/13 45/46/13
f 24/20/2 103/24/2 97/21/2
f 48/47/14 56/35/14 55/35/14
f 51/45/2 47/47/2 45/46/2
f 53/37/15 57/36/15 54/36/15
f 57/36/14 49/48/14 54/36/14
f 16/49/2 110/26/2 104/16/2
f 55/35/9 54/36/9 61/50/9
f 21/51/9 101/23/9 96/22/9
f 55/35/16 52/37/16 53/37/16
f 59/52/13 51/45/13 60/45/13
f 60/45/17 62/44/17 61/50/17
f 61/50/18 59/52/18 60/45/18
f 54/36/9 58/53/9 61/50/9
f 69/32/2 31/54/2 64/30/2
f 66/34/19 70/33/19 67/33/19
f 70/33/20 35/55/20 67/33/20
f 63/31/12 31/54/12 29/54/12
f 68/32/9 67/33/9 63/31/9
f 55/35/9 61/50/9 62/44/9
f 68/32/21 65/34/21 66/34/21
f 67/33/9 30/29/9 63/31/9
f 12/9/9 7/14/9 78/13/9
f 89/56/22 85/57/22 84/58/22
f 80/59/23 72/8/23 81/59/23
f 81/59/9 76/60/9 83/61/9
f 76/60/24 78/13/24 77/62/24
f 83/61/25 77/62/25 82/63/25
f 77/62/26 79/11/26 82/63/26
f 74/64/27 79/11/27 8/65/27
f 74/64/28 83/61/28 82/63/28
f 75/66/9 81/59/9 83/61/9
f 10/67/29 81/59/29 11/67/29
f 10/67/30 8/65/30 85/57/30
f 84/58/31 88/10/31 71/12/31
f 89/56/2 80/59/2 86/68/2
f 85/57/32 88/10/32 84/58/32
f 90/42/33 92/43/33 91/42/33
f 93/3/34 95/6/34 94/7/34
f 102/23/2 23/51/2 97/21/2
f 99/25/35 103/24/35 100/24/35
f 103/24/36 27/69/36 100/24/36
f 21/51/12 97/21/12 23/51/12
f 101/23/9 100/24/9 96/22/9
f 101/23/37 98/25/37 99/25/37
f 100/24/9 22/20/9 96/22/9
f 109/19/2 15/17/2 104/16/2
f 106/27/38 110/26/38 107/26/38
f 110/26/39 19/70/39 107/26/39
f 108/19/9 107/26/9 114/71/9
f 108/19/40 105/27/40 106/27/40
f 113/16/6 16/49/6 104/16/6
f 113/16/41 115/15/41 114/71/41
f 114/71/42 112/49/42 113/16/42
f 107/26/9 111/72/9 114/71/9
f 116/73/43 118/74/43 117/73/43
f 119/75/44 121/76/44 120/75/44
f 117/73/45 120/75/45 116/73/45
f 40/39/1 119/75/1 117/73/1
f 123/77/4 122/78/4 39/40/4
f 124/77/46 122/78/46 123/77/46
f 123/77/47 125/79/47 124/77/47
f 116/73/9 120/75/9 124/77/9
f 132/80/12 3/81/12 2/5/12
f 126/82/48 128/1/48 127/82/48
f 129/83/49 131/84/49 130/83/49
f 127/82/45 130/83/45 126/82/45
f 132/80/50 134/85/50 133/81/50
f 1/5/9 130/83/9 131/84/9
f 46/52/2 57/36/2 51/45/2
f 29/54/9 68/32/9 63/31/9
f 32/86/2 70/33/2 64/30/2
f 108/19/9 114/71/9 115/15/9
f 133/81/1 134/85/1 3/81/1
f 134/85/1 131/84/1 3/81/1
f 131/84/1 129/83/1 3/81/1
f 93/3/1 3/81/1 129/83/1
f 93/3/1 129/83/1 127/82/1
f 6/2/1 95/6/1 93/3/1
f 127/82/1 128/1/1 93/3/1
f 2/5/2 3/81/2 93/3/2
f 93/3/2 94/7/2 4/4/2
f 6/2/51 5/4/51 95/6/51
f 5/4/3 4/4/3 94/7/3
f 4/4/4 5/4/4 1/5/4
f 73/8/3 13/9/3 12/9/3
f 88/10/2 87/87/2 79/11/2
f 77/62/52 78/13/52 71/12/52
f 78/13/12 7/14/12 9/14/12
f 15/17/6 14/17/6 115/15/6
f 115/15/6 113/16/6 104/16/6
f 17/18/7 109/19/7 108/19/7
f 22/20/12 24/20/12 97/21/12
f 102/23/2 97/21/2 103/24/2
f 109/19/2 104/16/2 110/26/2
f 25/28/3 102/23/3 101/23/3
f 30/29/10 32/86/10 64/30/10
f 69/32/2 64/30/2 70/33/2
f 56/35/2 51/45/2 57/36/2
f 33/38/11 69/32/11 68/32/11
f 38/39/12 40/39/12 39/40/12
f 39/40/2 40/39/2 92/43/2
f 40/39/2 43/41/2 92/43/2
f 42/41/53 41/88/53 90/42/53
f 90/42/3 91/42/3 42/41/3
f 45/46/13 44/46/13 62/44/13
f 62/44/13 60/45/13 51/45/13
f 24/20/2 28/69/2 103/24/2
f 48/47/14 47/47/14 56/35/14
f 51/45/2 56/35/2 47/47/2
f 53/37/15 52/37/15 57/36/15
f 57/36/14 50/48/14 49/48/14
f 16/49/2 20/70/2 110/26/2
f 55/35/2 53/37/2 54/36/2
f 21/51/9 26/28/9 101/23/9
f 55/35/16 56/35/16 52/37/16
f 59/52/13 46/52/13 51/45/13
f 61/50/18 58/53/18 59/52/18
f 54/36/9 49/48/9 58/53/9
f 69/32/2 33/38/2 31/54/2
f 66/34/19 65/34/19 70/33/19
f 70/33/20 36/55/20 35/55/20
f 63/31/54 64/30/54 31/54/54
f 68/32/9 66/34/9 67/33/9
f 62/44/9 44/46/9 48/47/9
f 48/47/9 55/35/9 62/44/9
f 68/32/21 69/32/21 65/34/21
f 67/33/9 35/55/9 30/29/9
f 78/13/9 76/60/9 72/8/9
f 72/8/9 12/9/9 78/13/9
f 89/56/55 86/68/55 85/57/55
f 80/59/23 73/8/23 72/8/23
f 81/59/9 72/8/9 76/60/9
f 83/61/25 76/60/25 77/62/25
f 77/62/56 71/12/56 79/11/56
f 74/64/57 82/63/57 79/11/57
f 74/64/28 75/66/28 83/61/28
f 75/66/9 11/67/9 81/59/9
f 10/67/29 80/59/29 81/59/29
f 8/65/58 79/11/58 85/57/58
f 79/11/59 87/87/59 85/57/59
f 85/57/60 86/68/60 80/59/60
f 80/59/61 10/67/61 85/57/61
f 71/12/62 9/14/62 84/58/62
f 9/14/63 13/9/63 84/58/63
f 13/9/64 73/8/64 84/58/64
f 73/8/31 89/56/31 84/58/31
f 89/56/2 73/8/2 80/59/2
f 85/57/32 87/87/32 88/10/32
f 102/23/2 25/28/2 23/51/2
f 99/25/35 98/25/35 103/24/35
f 103/24/36 28/69/36 27/69/36
f 21/51/65 96/22/65 97/21/65
f 101/23/9 99/25/9 100/24/9
f 101/23/37 102/23/37 98/25/37
f 100/24/9 27/69/9 22/20/9
f 109/19/2 17/18/2 15/17/2
f 106/27/38 105/27/38 110/26/38
f 110/26/39 20/70/39 19/70/39
f 108/19/2 106/27/2 107/26/2
f 108/19/40 109/19/40 105/27/40
f 113/16/6 112/49/6 16/49/6
f 114/71/42 111/72/42 112/49/42
f 107/26/9 19/70/9 111/72/9
f 117/73/45 119/75/45 120/75/45
f 40/39/1 38/39/1 121/76/1
f 40/39/1 121/76/1 119/75/1
f 42/41/1 43/41/1 118/74/1
f 43/41/1 40/39/1 117/73/1
f 117/73/1 118/74/1 43/41/1
f 37/40/4 39/40/4 122/78/4
f 39/40/4 92/43/4 123/77/4
f 92/43/4 90/42/4 41/88/4
f 41/88/4 125/79/4 92/43/4
f 125/79/4 123/77/4 92/43/4
f 38/39/9 37/40/9 121/76/9
f 37/40/9 122/78/9 121/76/9
f 124/77/9 125/79/9 116/73/9
f 125/79/9 41/88/9 118/74/9
f 116/73/9 125/79/9 118/74/9
f 122/78/9 124/77/9 120/75/9
f 120/75/9 121/76/9 122/78/9
f 42/41/9 118/74/9 41/88/9
f 2/5/12 1/5/12 132/80/12
f 132/80/12 133/81/12 3/81/12
f 127/82/45 129/83/45 130/83/45
f 132/80/9 1/5/9 131/84/9
f 1/5/9 5/4/9 126/82/9
f 130/83/9 1/5/9 126/82/9
f 5/4/9 6/2/9 128/1/9
f 5/4/9 128/1/9 126/82/9
f 134/85/9 132/80/9 131/84/9
f 46/52/2 50/48/2 57/36/2
f 29/54/9 34/38/9 68/32/9
f 32/86/2 36/55/2 70/33/2
f 115/15/9 14/17/9 18/18/9
f 18/18/9 108/19/9 115/15/9
o Bld_01_Fence_Wood_Gate_Single_Short_Sides_Worned_01
v -0.277116 0.000234 0.056866
v -0.392372 0.000234 -0.058390
v -0.277116 0.000234 -0.058390
v -0.392372 1.180267 -0.058390
v -0.392372 1.180267 0.056866
v -0.277116 1.165397 0.056866
v -1.747884 1.086342 -0.021162
v -0.057627 0.993238 0.019636
v -1.747884 0.696619 0.019636
v -0.057627 0.993238 -0.021162
v -1.638140 0.200000 -0.021162
v -1.638140 0.200000 0.019636
v -0.057627 1.089858 0.019636
v -0.057627 1.089858 -0.021162
v -1.638140 0.103381 -0.021162
v -0.057627 0.118439 0.019636
v -1.638140 0.118439 0.019636
v -0.057627 0.103381 -0.021162
v -1.638140 0.496619 -0.021162
v -1.638140 0.496619 0.019636
v -0.057627 0.186669 0.019636
v -0.057627 0.186669 -0.021162
v -1.638140 0.400000 -0.021162
v -0.057627 0.400000 0.019636
v -1.638140 0.400000 0.019636
v -0.057627 0.400000 -0.021162
v -1.638140 0.793238 -0.021162
v -1.638140 0.793238 0.019636
v -0.057627 0.496619 0.019636
v -0.057627 0.496619 -0.021162
v -1.638140 0.696619 -0.021162
v -0.057627 0.696619 0.019636
v -1.638140 0.696619 0.019636
v -0.057627 0.696619 -0.021162
v -1.638140 1.089858 -0.021162
v -1.638140 1.089858 0.019636
v -0.057627 0.805550 0.019636
v -0.057627 0.805550 -0.021162
v -1.638140 0.993238 -0.021162
v -0.167372 0.784432 0.019636
v -0.277116 0.993238 -0.021162
v -1.747884 0.784432 0.019636
v -0.277116 1.089858 0.019636
v -1.857628 0.805550 -0.021162
v -1.857628 0.805550 0.019636
v -0.277116 1.089858 -0.021162
v -1.857628 0.696619 -0.021162
v -0.277116 0.696619 0.019636
v -0.277116 0.696619 -0.021162
v -1.857628 0.696619 0.019636
v -0.277116 0.793238 0.019636
v -1.857628 0.496619 -0.021162
v -1.857628 0.496619 0.019636
v -0.277116 0.793238 -0.021162
v -1.857628 0.400000 -0.021162
v -0.277116 0.400000 0.019636
v -0.277116 0.400000 -0.021162
v -1.857628 0.400000 0.019636
v -0.277116 0.496619 0.019636
v -1.857628 0.186669 -0.021162
v -1.857628 0.186669 0.019636
v -0.277116 0.496619 -0.021162
v -1.857628 0.103381 -0.021162
v -0.277116 0.118439 0.019636
v -0.277116 0.103381 -0.021162
v -1.857628 0.118439 0.019636
v -0.277116 0.200000 0.019636
v -1.857628 1.089858 -0.021162
v -1.857628 1.089858 0.019636
v -0.277116 0.200000 -0.021162
v -1.857628 0.993238 -0.021162
v -1.857628 0.993238 0.019636
v -1.638139 1.165397 0.056866
v -1.522884 1.180267 0.056866
v -1.522884 1.180267 -0.058390
v -1.638139 0.000234 -0.058390
v -1.522884 0.000234 -0.058390
v -1.638139 0.000234 0.056866
v -0.167372 0.696619 0.019636
v -0.167372 1.086342 -0.021162
v -0.167372 0.993238 -0.021162
v -0.167372 1.086342 0.019636
v -0.154757 1.082174 0.019636
v -0.179987 1.089858 0.019636
v -0.179987 1.089858 -0.021162
v -0.154757 1.082174 -0.021162
v -0.277116 0.993238 0.008113
v -0.277116 1.004762 0.019636
v -0.167372 1.004762 0.019636
v -0.167372 0.993238 0.008113
v -0.113586 0.993238 0.019636
v -0.167372 0.696619 -0.021162
v -0.167372 0.784432 -0.021162
v -0.230808 0.400000 0.019636
v -0.230808 0.492568 -0.021162
v -0.230808 0.492568 0.019636
v -0.241642 0.496619 0.019636
v -0.147848 0.496619 0.019636
v -0.230808 0.400000 -0.021162
v -0.147848 0.496619 -0.021162
v -0.241642 0.496619 -0.021162
v -0.388950 0.804776 0.056866
v -0.392372 0.804776 0.053444
v -0.392372 0.718819 0.056866
v -0.392372 0.818665 0.053444
v -0.388950 0.818665 0.056866
v -0.392372 0.829124 0.056866
v -0.392372 0.000234 0.034473
v -0.369979 0.000234 0.056866
v -0.392372 0.104662 0.056866
v -0.283975 0.739253 -0.058390
v -0.277116 0.739253 -0.051530
v -0.277116 0.714650 -0.058390
v -0.277116 0.846267 -0.058390
v -0.277116 1.134891 -0.058390
v -0.322492 1.180267 -0.058390
v -0.277116 1.180267 0.038400
v -1.747884 0.993238 -0.021162
v -1.747884 1.086342 0.019636
v -1.760499 1.082174 0.019636
v -1.735269 1.089858 0.019636
v -1.735269 1.089858 -0.021162
v -1.760499 1.082174 -0.021162
v -1.638140 0.993238 0.008113
v -1.638140 1.004762 0.019636
v -1.747884 1.004762 0.019636
v -1.747884 0.993238 0.008113
v -1.801669 0.993238 0.019636
v -1.747884 0.696619 -0.021162
v -1.747884 0.784432 -0.021162
v -1.684448 0.400000 0.019636
v -1.684448 0.492568 -0.021162
v -1.684448 0.492568 0.019636
v -1.673614 0.496619 0.019636
v -1.767407 0.496619 0.019636
v -1.684448 0.400000 -0.021162
v -1.767407 0.496619 -0.021162
v -1.673614 0.496619 -0.021162
v -1.526306 0.804776 0.056866
v -1.522884 0.804776 0.053444
v -1.522884 0.718819 0.056866
v -1.522884 0.818665 0.053444
v -1.526306 0.818665 0.056866
v -1.522884 0.829124 0.056866
v -1.522884 0.000234 0.034473
v -1.545277 0.000234 0.056866
v -1.522884 0.104662 0.056866
v -1.631280 0.739253 -0.058390
v -1.638139 0.739253 -0.051530
v -1.638139 0.714650 -0.058390
v -1.638139 0.846267 -0.058390
v -1.638139 1.134891 -0.058390
v -1.592763 1.180267 -0.058390
v -1.638139 1.180267 0.038400
vn -0.0000 -0.0000 1.0000
vn -0.0000 -0.0000 -1.0000
vn 0.3137 0.9495 -0.0000
vn -0.0000 -1.0000 -0.0000
vn 0.0789 0.9969 -0.0000
vn -0.0000 -0.9381 0.3463
vn 0.1890 0.9820 -0.0000
vn 0.0800 0.9968 -0.0000
vn -0.0800 0.9968 -0.0000
vn -0.1890 0.9820 -0.0000
vn -0.3137 0.9495 -0.0000
vn -0.0789 0.9969 -0.0000
vn 0.2684 0.9633 -0.0000
vn -0.0000 1.0000 -0.0000
vn -0.1498 -0.6991 0.6991
vn -0.0000 -0.7071 0.7071
vn 0.3503 0.9367 -0.0000
vn -0.0488 0.9988 -0.0000
vn 0.0606 0.9982 -0.0000
vn -0.7068 0.0281 0.7068
vn -0.6889 -0.2254 0.6889
vn -0.7071 -0.0000 0.7071
vn -0.6991 -0.1499 0.6991
vn -1.0000 -0.0000 -0.0000
vn 0.6938 0.1934 -0.6938
vn 0.7064 -0.0453 -0.7064
vn 0.6712 0.6712 -0.3147
vn 1.0000 -0.0000 -0.0000
vn -0.2684 0.9633 -0.0000
vn 0.1498 -0.6991 0.6991
vn -0.3502 0.9367 -0.0000
vn 0.0488 0.9988 -0.0000
vn -0.0606 0.9982 -0.0000
vn 0.7068 0.0281 0.7068
vn 0.6889 -0.2254 0.6889
vn 0.7071 -0.0000 0.7071
vn 0.6991 -0.1499 0.6991
vn -0.6938 0.1934 -0.6938
vn -0.7064 -0.0453 -0.7064
vn -0.6712 0.6712 -0.3147
vn 0.3502 0.9367 -0.0000
vn 0.1000 0.7750 0.6241
vn -0.3503 0.9367 -0.0000
vn -0.1000 0.7750 0.6241
vt 0.577737 0.824530
vt 0.577737 0.818656
vt 0.577737 0.817256
vt 0.577737 0.817589
vt 0.577737 0.817188
vt 0.577737 0.805552
vt 0.574609 0.853647
vt 0.574609 0.853384
vt 0.574609 0.850730
vt 0.574614 0.853384
vt 0.574614 0.853527
vt 0.574609 0.850335
vt 0.574610 0.850335
vt 0.574609 0.853647
vt 0.574609 0.820344
vt 0.574610 0.819827
vt 0.574610 0.820344
vt 0.574609 0.822683
vt 0.574609 0.819827
vt 0.574609 0.829996
vt 0.574609 0.833309
vt 0.574609 0.829996
vt 0.574614 0.829996
vt 0.574614 0.833170
vt 0.574614 0.833309
vt 0.574610 0.829996
vt 0.574610 0.833309
vt 0.574609 0.843176
vt 0.574609 0.843900
vt 0.574609 0.840165
vt 0.574609 0.840165
vt 0.574614 0.840165
vt 0.574614 0.843176
vt 0.574614 0.840165
vt 0.574609 0.850335
vt 0.574609 0.850335
vt 0.574614 0.843478
vt 0.574614 0.850335
vt 0.574614 0.850335
vt 0.574614 0.850335
vt 0.574614 0.840165
vt 0.574610 0.843478
vt 0.574614 0.843900
vt 0.574614 0.829996
vt 0.574614 0.833309
vt 0.574614 0.829996
vt 0.574614 0.833309
vt 0.574614 0.833309
vt 0.574614 0.819827
vt 0.574614 0.822683
vt 0.574614 0.819827
vt 0.574610 0.840165
vt 0.574614 0.820344
vt 0.574614 0.823140
vt 0.574614 0.820344
vt 0.574609 0.833170
vt 0.574609 0.853527
vt 0.577736 0.824772
vt 0.577736 0.805552
vt 0.577736 0.817589
vt 0.577736 0.818883
vt 0.577736 0.819053
vt 0.577736 0.824530
vt 0.574614 0.853647
vt 0.574614 0.850335
vt 0.574614 0.853647
vt 0.574614 0.853647
vt 0.574614 0.850730
vt 0.574614 0.850730
vt 0.577737 0.818883
vt 0.577737 0.819053
vt 0.577737 0.807253
vt 0.577737 0.824772
vt 0.577737 0.819332
vt 0.577737 0.824772
vt 0.577737 0.824772
vt 0.577737 0.824033
vt 0.574610 0.853647
vt 0.574610 0.850730
vt 0.574609 0.833309
vt 0.574610 0.833309
vt 0.574610 0.823140
vt 0.577736 0.818656
vt 0.577736 0.817256
vt 0.577736 0.807253
vt 0.577736 0.817188
vt 0.577736 0.819332
vt 0.577736 0.824772
vt 0.577736 0.824033
vt 0.577736 0.805552
vt 0.577737 0.805552
s 0
usemtl Texture_Map
f 140/89/66 236/90/66 238/91/66
f 245/92/67 247/93/67 136/94/67
f 255/95/66 254/96/66 260/97/66
f 220/98/68 216/99/68 217/98/68
f 261/100/69 173/101/69 258/101/69
f 257/96/70 203/102/70 254/96/70
f 257/96/67 256/95/67 252/100/67
f 200/103/71 149/104/71 151/105/71
f 151/105/66 195/106/66 200/103/66
f 194/106/67 149/104/67 197/107/67
f 189/108/67 271/109/67 270/110/67
f 228/111/66 230/112/66 231/113/66
f 159/114/66 268/115/66 265/110/66
f 265/110/69 157/114/69 159/114/69
f 264/116/72 179/117/72 176/116/72
f 184/118/69 263/119/69 143/119/69
f 183/120/67 227/121/67 226/122/67
f 176/116/66 184/118/66 143/119/66
f 252/100/69 262/123/69 205/124/69
f 174/121/73 188/125/73 185/125/73
f 144/126/69 225/127/69 215/128/69
f 166/129/66 174/121/66 213/122/66
f 161/130/74 176/116/74 162/130/74
f 226/122/69 166/129/69 213/122/69
f 171/131/75 227/121/75 174/121/75
f 191/132/69 228/111/69 190/132/69
f 190/132/66 231/113/66 193/133/66
f 160/134/67 234/135/67 164/136/67
f 199/137/67 156/138/67 152/139/67
f 264/116/67 165/140/67 263/119/67
f 198/141/66 155/138/66 201/142/66
f 199/137/71 150/143/71 198/141/71
f 267/144/66 265/110/66 268/115/66
f 254/96/76 141/145/76 257/96/76
f 209/146/67 211/147/67 282/148/67
f 277/149/66 278/150/66 207/151/66
f 147/152/77 220/98/77 217/98/77
f 175/153/69 224/128/69 221/153/69
f 225/127/66 147/152/66 217/98/66
f 175/153/67 219/154/67 215/128/67
f 214/99/78 218/154/78 216/99/78
f 218/154/79 180/155/79 177/155/79
f 223/156/80 224/128/80 225/127/80
f 221/153/81 223/156/81 222/157/81
f 183/120/69 213/122/69 182/120/69
f 182/120/66 174/121/66 185/125/66
f 168/129/67 227/121/67 172/131/67
f 163/136/79 234/135/79 232/135/79
f 231/113/79 196/133/79 193/133/79
f 158/134/66 232/135/66 228/111/66
f 191/132/67 235/113/67 233/111/67
f 229/112/82 231/113/82 230/112/82
f 233/111/69 158/134/69 228/111/69
f 229/112/67 233/111/67 235/113/67
f 232/135/83 229/112/83 230/112/83
f 155/138/84 204/142/84 201/142/84
f 236/90/85 237/90/85 238/91/85
f 239/158/86 240/158/86 241/159/86
f 240/158/87 237/90/87 236/90/87
f 242/94/88 243/94/88 244/160/88
f 239/158/89 241/159/89 138/161/89
f 245/92/90 246/92/90 247/93/90
f 246/92/91 245/92/91 248/162/91
f 250/163/79 139/161/79 251/164/79
f 249/165/92 250/163/92 251/164/92
f 249/165/93 251/164/93 140/89/93
f 253/145/94 256/95/94 141/145/94
f 169/166/79 255/95/79 170/166/79
f 260/97/95 262/123/95 261/100/95
f 259/167/81 261/100/81 258/101/81
f 143/119/69 165/140/69 167/140/69
f 167/140/66 176/116/66 143/119/66
f 181/118/67 264/116/67 263/119/67
f 271/109/79 187/168/79 269/109/79
f 153/169/79 268/115/79 154/169/79
f 269/109/66 192/108/66 265/110/66
f 272/115/67 157/114/67 270/110/67
f 268/115/96 266/144/96 267/144/96
f 192/108/69 270/110/69 265/110/69
f 270/110/67 266/144/67 272/115/67
f 269/109/97 266/144/97 271/109/97
f 145/170/98 195/106/98 146/170/98
f 273/171/99 275/172/99 274/171/99
f 276/149/100 278/150/100 277/149/100
f 274/171/101 277/149/101 273/171/101
f 279/147/102 281/173/102 280/147/102
f 209/146/93 276/149/93 274/171/93
f 282/148/103 284/174/103 283/148/103
f 283/148/104 285/175/104 282/148/104
f 288/176/79 208/146/79 287/176/79
f 286/177/105 288/176/105 287/176/105
f 283/148/89 284/174/89 212/178/89
f 203/102/66 262/123/66 254/96/66
f 259/167/66 255/95/66 260/97/66
f 205/124/67 257/96/67 252/100/67
f 173/101/67 256/95/67 169/166/67
f 217/98/66 218/154/66 223/156/66
f 222/157/66 218/154/66 177/155/66
f 219/154/67 220/98/67 215/128/67
f 144/126/67 220/98/67 148/152/67
f 238/91/66 244/160/66 135/179/66
f 244/160/66 243/94/66 135/179/66
f 135/179/66 140/89/66 238/91/66
f 140/89/66 139/161/66 241/159/66
f 140/89/66 241/159/66 240/158/66
f 140/89/66 240/158/66 236/90/66
f 247/93/67 137/179/67 136/94/67
f 136/94/67 138/161/67 245/92/67
f 138/161/67 250/163/67 249/165/67
f 245/92/67 138/161/67 248/162/67
f 249/165/67 248/162/67 138/161/67
f 255/95/66 253/145/66 254/96/66
f 220/98/68 214/99/68 216/99/68
f 261/100/69 252/100/69 173/101/69
f 257/96/70 202/102/70 203/102/70
f 257/96/67 141/145/67 256/95/67
f 200/103/71 197/107/71 149/104/71
f 151/105/66 146/170/66 195/106/66
f 194/106/67 145/170/67 149/104/67
f 189/108/67 186/168/67 271/109/67
f 228/111/66 232/135/66 230/112/66
f 159/114/66 154/169/66 268/115/66
f 265/110/69 270/110/69 157/114/69
f 264/116/72 178/117/72 179/117/72
f 184/118/69 181/118/69 263/119/69
f 183/120/67 188/125/67 227/121/67
f 176/116/66 179/117/66 184/118/66
f 261/100/69 262/123/69 252/100/69
f 262/123/69 206/124/69 205/124/69
f 174/121/73 227/121/73 188/125/73
f 142/126/69 225/127/69 144/126/69
f 225/127/69 224/128/69 215/128/69
f 166/129/66 171/131/66 174/121/66
f 161/130/74 264/116/74 176/116/74
f 226/122/69 168/129/69 166/129/69
f 171/131/75 172/131/75 227/121/75
f 191/132/69 233/111/69 228/111/69
f 190/132/66 228/111/66 231/113/66
f 160/134/67 233/111/67 234/135/67
f 199/137/67 204/142/67 156/138/67
f 264/116/67 161/130/67 165/140/67
f 198/141/66 150/143/66 155/138/66
f 199/137/71 152/139/71 150/143/71
f 267/144/66 269/109/66 265/110/66
f 254/96/76 253/145/76 141/145/76
f 211/147/67 210/178/67 284/174/67
f 282/148/67 285/175/67 209/146/67
f 285/175/67 286/177/67 209/146/67
f 211/147/67 284/174/67 282/148/67
f 287/176/67 209/146/67 286/177/67
f 280/147/66 281/173/66 212/178/66
f 281/173/66 275/172/66 212/178/66
f 275/172/66 273/171/66 207/151/66
f 212/178/66 275/172/66 207/151/66
f 207/151/66 273/171/66 277/149/66
f 278/150/66 208/146/66 207/151/66
f 147/152/77 148/152/77 220/98/77
f 175/153/69 215/128/69 224/128/69
f 217/98/66 223/156/66 225/127/66
f 225/127/66 142/126/66 147/152/66
f 175/153/67 180/155/67 219/154/67
f 214/99/78 219/154/78 218/154/78
f 218/154/79 219/154/79 180/155/79
f 221/153/81 224/128/81 223/156/81
f 183/120/69 226/122/69 213/122/69
f 182/120/66 213/122/66 174/121/66
f 168/129/67 226/122/67 227/121/67
f 163/136/79 164/136/79 234/135/79
f 231/113/79 235/113/79 196/133/79
f 158/134/66 163/136/66 232/135/66
f 191/132/67 196/133/67 235/113/67
f 229/112/106 235/113/106 231/113/106
f 233/111/69 160/134/69 158/134/69
f 229/112/67 234/135/67 233/111/67
f 232/135/83 234/135/83 229/112/83
f 155/138/84 156/138/84 204/142/84
f 240/158/87 239/158/87 237/90/87
f 138/161/89 136/94/89 238/91/89
f 136/94/89 242/94/89 244/160/89
f 138/161/89 237/90/89 239/158/89
f 244/160/89 238/91/89 136/94/89
f 238/91/89 237/90/89 138/161/89
f 139/161/89 138/161/89 241/159/89
f 138/161/79 139/161/79 250/163/79
f 139/161/107 140/89/107 251/164/107
f 140/89/93 135/179/93 246/92/93
f 135/179/93 137/179/93 247/93/93
f 246/92/93 135/179/93 247/93/93
f 246/92/93 248/162/93 140/89/93
f 248/162/93 249/165/93 140/89/93
f 253/145/94 255/95/94 256/95/94
f 169/166/79 256/95/79 255/95/79
f 259/167/81 260/97/81 261/100/81
f 143/119/69 263/119/69 165/140/69
f 167/140/66 162/130/66 176/116/66
f 181/118/67 178/117/67 264/116/67
f 271/109/79 186/168/79 187/168/79
f 153/169/79 272/115/79 268/115/79
f 269/109/66 187/168/66 192/108/66
f 272/115/67 153/169/67 157/114/67
f 268/115/108 272/115/108 266/144/108
f 192/108/69 189/108/69 270/110/69
f 270/110/67 271/109/67 266/144/67
f 269/109/97 267/144/97 266/144/97
f 145/170/98 194/106/98 195/106/98
f 274/171/101 276/149/101 277/149/101
f 279/147/93 211/147/93 281/173/93
f 211/147/93 209/146/93 275/172/93
f 281/173/93 211/147/93 275/172/93
f 209/146/93 208/146/93 278/150/93
f 209/146/93 278/150/93 276/149/93
f 275/172/93 209/146/93 274/171/93
f 207/151/109 208/146/109 288/176/109
f 208/146/79 209/146/79 287/176/79
f 210/178/89 212/178/89 284/174/89
f 212/178/89 207/151/89 283/148/89
f 207/151/89 288/176/89 286/177/89
f 286/177/89 285/175/89 207/151/89
f 285/175/89 283/148/89 207/151/89
f 206/124/66 262/123/66 203/102/66
f 262/123/66 260/97/66 254/96/66
f 259/167/66 170/166/66 255/95/66
f 205/124/67 202/102/67 257/96/67
f 173/101/67 252/100/67 256/95/67
f 217/98/66 216/99/66 218/154/66
f 222/157/66 223/156/66 218/154/66
f 219/154/67 214/99/67 220/98/67
f 144/126/67 215/128/67 220/98/67
