# Blender 4.4.0
# www.blender.org
mtllib Bld_01_Fence_Wood_Gate_Double_Handle_01.mtl
o Bld_01_Fence_Wood_Gate_Double_Left_01
v -1.857626 0.085062 -0.044881
v -1.742370 0.085062 -0.044881
v -1.857626 0.085062 0.044882
v -1.742370 0.085062 0.044882
v -1.857626 1.120910 0.044882
v -1.857626 1.120910 -0.044881
v -1.742370 1.120910 -0.044881
v -1.742370 1.120910 0.044882
v -1.742370 0.993238 -0.020398
v -1.084813 0.993238 -0.020398
v -1.742370 0.993238 0.020400
v -1.084813 0.993238 0.020400
v -1.742370 1.089858 0.020400
v -1.742370 1.089858 -0.020398
v -1.084813 1.089858 -0.020398
v -1.084813 1.089858 0.020400
v -1.742370 0.103381 -0.020398
v -1.084813 0.103381 -0.020398
v -1.742370 0.103381 0.020400
v -1.084813 0.103381 0.020400
v -1.742370 0.200000 0.020400
v -1.742370 0.200000 -0.020398
v -1.084813 0.200000 -0.020398
v -1.084813 0.200000 0.020400
v -1.742370 0.400000 -0.020398
v -1.084813 0.400000 -0.020398
v -1.742370 0.400000 0.020400
v -1.084813 0.400000 0.020400
v -1.742370 0.496619 0.020400
v -1.742370 0.496619 -0.020398
v -1.084813 0.496619 -0.020398
v -1.084813 0.496619 0.020400
v -1.742370 0.696619 -0.020398
v -1.084813 0.696619 -0.020398
v -1.742370 0.696619 0.020400
v -1.084813 0.696619 0.020400
v -1.742370 0.793238 0.020400
v -1.742370 0.793238 -0.020398
v -1.084813 0.793238 -0.020398
v -1.084813 0.793238 0.020400
v -1.084813 0.085062 -0.044881
v -0.962153 0.085062 -0.044881
v -1.084813 0.085062 0.044882
v -0.962153 0.085062 0.044882
v -1.084813 1.120910 0.044882
v -1.084813 1.120910 -0.044881
v -0.962153 1.120910 -0.044881
v -0.962153 1.120910 0.044882
v -1.747909 0.097269 -0.034362
v -1.082316 0.951077 -0.034362
v -1.747909 0.097269 -0.020399
v -1.082316 0.951077 -0.020399
v -1.745357 0.232291 -0.020399
v -1.745357 0.232291 -0.034362
v -1.082810 1.083234 -0.034362
v -1.082810 1.083234 -0.020399
vn -0.0000 -1.0000 -0.0000
vn -0.0000 1.0000 -0.0000
vn -0.0000 -0.0000 1.0000
vn -0.0000 -0.0000 -1.0000
vn 1.0000 -0.0000 -0.0000
vn -1.0000 -0.0000 -0.0000
vn 0.7887 -0.6148 -0.0000
vn -0.7890 0.6143 -0.0000
vt 0.602959 0.820169
vt 0.602958 0.820169
vt 0.602958 0.906266
vt 0.602959 0.906266
vt 0.592300 0.931744
vt 0.592293 0.931744
vt 0.592293 0.940495
vt 0.592300 0.940495
vt 0.592300 0.851148
vt 0.592293 0.851148
vt 0.592293 0.859899
vt 0.592300 0.859899
vt 0.592300 0.878013
vt 0.592293 0.878013
vt 0.592293 0.886764
vt 0.592300 0.886764
vt 0.592300 0.904879
vt 0.592293 0.904879
vt 0.592293 0.913630
vt 0.592300 0.913630
vt 0.602963 0.820169
vt 0.602962 0.820169
vt 0.602962 0.906266
vt 0.602963 0.906266
vt 0.592300 0.927925
vt 0.592293 0.850595
vt 0.592293 0.862824
vt 0.592300 0.939895
s 0
usemtl Texture_Map
f 2/1/1 3/2/1 1/2/1
f 5/3/2 7/4/2 6/3/2
f 8/4/3 3/2/3 4/1/3
f 6/3/4 2/1/4 1/2/4
f 7/4/5 4/1/5 2/1/5
f 5/3/6 1/2/6 3/2/6
f 10/5/1 11/6/1 9/6/1
f 13/7/2 15/8/2 14/7/2
f 16/8/3 11/6/3 12/5/3
f 14/7/4 10/5/4 9/6/4
f 18/9/1 19/10/1 17/10/1
f 21/11/2 23/12/2 22/11/2
f 24/12/3 19/10/3 20/9/3
f 22/11/4 18/9/4 17/10/4
f 26/13/1 27/14/1 25/14/1
f 29/15/2 31/16/2 30/15/2
f 32/16/3 27/14/3 28/13/3
f 30/15/4 26/13/4 25/14/4
f 34/17/1 35/18/1 33/18/1
f 37/19/2 39/20/2 38/19/2
f 40/20/3 35/18/3 36/17/3
f 38/19/4 34/17/4 33/18/4
f 42/21/1 43/22/1 41/22/1
f 45/23/2 47/24/2 46/23/2
f 48/24/3 43/22/3 44/21/3
f 46/23/4 42/21/4 41/22/4
f 47/24/5 44/21/5 42/21/5
f 45/23/6 41/22/6 43/22/6
f 50/25/7 51/26/7 49/26/7
f 53/27/8 55/28/8 54/27/8
f 52/25/3 53/27/3 51/26/3
f 54/27/4 50/25/4 49/26/4
f 2/1/1 4/1/1 3/2/1
f 5/3/2 8/4/2 7/4/2
f 8/4/3 5/3/3 3/2/3
f 6/3/4 7/4/4 2/1/4
f 7/4/5 8/4/5 4/1/5
f 5/3/6 6/3/6 1/2/6
f 10/5/1 12/5/1 11/6/1
f 13/7/2 16/8/2 15/8/2
f 16/8/3 13/7/3 11/6/3
f 14/7/4 15/8/4 10/5/4
f 18/9/1 20/9/1 19/10/1
f 21/11/2 24/12/2 23/12/2
f 24/12/3 21/11/3 19/10/3
f 22/11/4 23/12/4 18/9/4
f 26/13/1 28/13/1 27/14/1
f 29/15/2 32/16/2 31/16/2
f 32/16/3 29/15/3 27/14/3
f 30/15/4 31/16/4 26/13/4
f 34/17/1 36/17/1 35/18/1
f 37/19/2 40/20/2 39/20/2
f 40/20/3 37/19/3 35/18/3
f 38/19/4 39/20/4 34/17/4
f 42/21/1 44/21/1 43/22/1
f 45/23/2 48/24/2 47/24/2
f 48/24/3 45/23/3 43/22/3
f 46/23/4 47/24/4 42/21/4
f 47/24/5 48/24/5 44/21/5
f 45/23/6 46/23/6 41/22/6
f 50/25/7 52/25/7 51/26/7
f 53/27/8 56/28/8 55/28/8
f 52/25/3 56/28/3 53/27/3
f 54/27/4 55/28/4 50/25/4
o Bld_01_Fence_Wood_Gate_Double_Right_01
v -0.057627 0.085062 -0.044881
v -0.172882 0.085062 -0.044881
v -0.057627 0.085062 0.044882
v -0.172882 0.085062 0.044882
v -0.057627 1.120910 0.044882
v -0.057627 1.120910 -0.044881
v -0.172882 1.120910 -0.044881
v -0.172882 1.120910 0.044882
v -0.172883 0.993238 -0.020398
v -0.830440 0.993238 -0.020398
v -0.172883 0.993238 0.020400
v -0.830440 0.993238 0.020400
v -0.172883 1.089858 0.020400
v -0.172883 1.089858 -0.020398
v -0.830440 1.089858 -0.020398
v -0.830440 1.089858 0.020400
v -0.172883 0.103381 -0.020398
v -0.830440 0.103381 -0.020398
v -0.172883 0.103381 0.020400
v -0.830440 0.103381 0.020400
v -0.172883 0.200000 0.020400
v -0.172883 0.200000 -0.020398
v -0.830440 0.200000 -0.020398
v -0.830440 0.200000 0.020400
v -0.172883 0.400000 -0.020398
v -0.830440 0.400000 -0.020398
v -0.172883 0.400000 0.020400
v -0.830440 0.400000 0.020400
v -0.172883 0.496619 0.020400
v -0.172883 0.496619 -0.020398
v -0.830440 0.496619 -0.020398
v -0.830440 0.496619 0.020400
v -0.172883 0.696619 -0.020398
v -0.830440 0.696619 -0.020398
v -0.172883 0.696619 0.020400
v -0.830440 0.696619 0.020400
v -0.172883 0.793238 0.020400
v -0.172883 0.793238 -0.020398
v -0.830440 0.793238 -0.020398
v -0.830440 0.793238 0.020400
v -0.830440 0.085062 -0.044881
v -0.953102 0.085062 -0.044881
v -0.830440 0.085062 0.044882
v -0.953102 0.085062 0.044882
v -0.830440 1.120910 0.044882
v -0.830440 1.120910 -0.044881
v -0.953102 1.120910 -0.044881
v -0.953102 1.120910 0.044882
v -0.167344 0.097269 -0.034362
v -0.832937 0.951077 -0.034362
v -0.167344 0.097269 -0.020399
v -0.832937 0.951077 -0.020399
v -0.169896 0.232291 -0.020399
v -0.169896 0.232291 -0.034362
v -0.832442 1.083234 -0.034362
v -0.832442 1.083234 -0.020399
vn -0.0000 -1.0000 -0.0000
vn -0.0000 1.0000 -0.0000
vn -0.0000 -0.0000 1.0000
vn -0.0000 -0.0000 -1.0000
vn -1.0000 -0.0000 -0.0000
vn 1.0000 -0.0000 -0.0000
vn -0.7887 -0.6148 -0.0000
vn 0.7890 0.6143 -0.0000
vt 0.602968 0.820169
vt 0.602967 0.820169
vt 0.602967 0.906266
vt 0.602968 0.906266
vt 0.592309 0.931744
vt 0.592302 0.931744
vt 0.592302 0.940495
vt 0.592309 0.940495
vt 0.592309 0.851148
vt 0.592302 0.851148
vt 0.592302 0.859899
vt 0.592309 0.859899
vt 0.592309 0.878013
vt 0.592302 0.878013
vt 0.592302 0.886764
vt 0.592309 0.886764
vt 0.592309 0.904879
vt 0.592302 0.904879
vt 0.592302 0.913630
vt 0.592309 0.913630
vt 0.602964 0.820169
vt 0.602963 0.820169
vt 0.602963 0.906266
vt 0.602964 0.906266
vt 0.592309 0.850595
vt 0.592302 0.927925
vt 0.592302 0.939895
vt 0.592309 0.862824
s 0
usemtl Texture_Map
f 59/29/9 58/30/9 57/29/9
f 63/31/10 61/32/10 62/32/10
f 59/29/11 64/31/11 60/30/11
f 58/30/12 62/32/12 57/29/12
f 60/30/13 63/31/13 58/30/13
f 57/29/14 61/32/14 59/29/14
f 67/33/9 66/34/9 65/33/9
f 71/35/10 69/36/10 70/36/10
f 67/33/11 72/35/11 68/34/11
f 66/34/12 70/36/12 65/33/12
f 75/37/9 74/38/9 73/37/9
f 79/39/10 77/40/10 78/40/10
f 75/37/11 80/39/11 76/38/11
f 74/38/12 78/40/12 73/37/12
f 83/41/9 82/42/9 81/41/9
f 87/43/10 85/44/10 86/44/10
f 83/41/11 88/43/11 84/42/11
f 82/42/12 86/44/12 81/41/12
f 91/45/9 90/46/9 89/45/9
f 95/47/10 93/48/10 94/48/10
f 91/45/11 96/47/11 92/46/11
f 90/46/12 94/48/12 89/45/12
f 99/49/9 98/50/9 97/49/9
f 103/51/10 101/52/10 102/52/10
f 99/49/11 104/51/11 100/50/11
f 98/50/12 102/52/12 97/49/12
f 100/50/13 103/51/13 98/50/13
f 97/49/14 101/52/14 99/49/14
f 107/53/15 106/54/15 105/53/15
f 111/55/16 109/56/16 110/56/16
f 108/54/11 109/56/11 112/55/11
f 106/54/12 110/56/12 105/53/12
f 59/29/9 60/30/9 58/30/9
f 63/31/10 64/31/10 61/32/10
f 59/29/11 61/32/11 64/31/11
f 58/30/12 63/31/12 62/32/12
f 60/30/13 64/31/13 63/31/13
f 57/29/14 62/32/14 61/32/14
f 67/33/9 68/34/9 66/34/9
f 71/35/10 72/35/10 69/36/10
f 67/33/11 69/36/11 72/35/11
f 66/34/12 71/35/12 70/36/12
f 75/37/9 76/38/9 74/38/9
f 79/39/10 80/39/10 77/40/10
f 75/37/11 77/40/11 80/39/11
f 74/38/12 79/39/12 78/40/12
f 83/41/9 84/42/9 82/42/9
f 87/43/10 88/43/10 85/44/10
f 83/41/11 85/44/11 88/43/11
f 82/42/12 87/43/12 86/44/12
f 91/45/9 92/46/9 90/46/9
f 95/47/10 96/47/10 93/48/10
f 91/45/11 93/48/11 96/47/11
f 90/46/12 95/47/12 94/48/12
f 99/49/9 100/50/9 98/50/9
f 103/51/10 104/51/10 101/52/10
f 99/49/11 101/52/11 104/51/11
f 98/50/12 103/51/12 102/52/12
f 100/50/13 104/51/13 103/51/13
f 97/49/14 102/52/14 101/52/14
f 107/53/15 108/54/15 106/54/15
f 111/55/16 112/55/16 109/56/16
f 108/54/11 107/53/11 109/56/11
f 106/54/12 111/55/12 110/56/12
