# Blender 4.4.0
# www.blender.org
mtllib Bld_02_Fence_Wood_Gate_Single_Long_Worned_01.mtl
o Bld_02_Fence_Wood_Gate_Single_Long_Worned_01
v -0.077505 0.111273 -0.062856
v -0.217866 0.111273 0.077505
v -0.077505 0.140211 0.077505
v -0.217866 1.489359 -0.062856
v -0.077505 1.489359 -0.062856
v -0.077505 1.489359 0.077505
v -2.517505 0.111273 -0.062856
v -2.377144 0.111273 -0.062856
v -2.517505 0.111273 0.077505
v -2.517505 1.489359 0.077505
v -2.517505 1.489359 -0.062856
v -2.377144 1.468571 0.077505
v -2.377144 0.450478 -0.022244
v -0.217866 0.450478 -0.022244
v -0.217866 0.450478 0.036893
v -2.377144 0.590389 0.036893
v -2.377144 0.577812 -0.022244
v -0.217866 0.590389 -0.022244
v -0.217866 0.590389 0.036893
v -2.377145 0.805033 -0.022244
v -0.217866 0.975136 -0.022244
v -2.377145 0.805033 0.036893
v -0.217866 0.968797 0.036893
v -2.377145 0.958111 0.036893
v -2.377145 0.945554 -0.022244
v -0.217866 1.115594 -0.022244
v -0.217866 1.104816 0.036893
v -2.377144 1.330301 -0.022244
v -0.217866 1.330301 -0.022244
v -2.377144 1.330301 0.036893
v -0.217866 1.330301 0.036893
v -2.377144 1.470213 0.036893
v -2.377144 1.470213 -0.022244
v -0.217866 1.470213 -0.022244
v -0.217866 1.470213 0.036893
v -0.213273 1.274021 -0.054409
v -2.387404 0.115785 -0.022245
v -0.213273 1.274021 -0.022245
v -2.391071 0.274698 -0.025340
v -2.387404 0.274698 -0.054409
v -0.213273 1.431182 -0.054409
v -0.213273 1.431182 -0.022245
v -1.133660 0.783698 -0.022245
v -1.133660 0.940244 -0.022245
v -1.133660 0.940244 -0.054409
v -1.152862 0.937184 -0.054409
v -1.130523 0.943270 -0.054409
v -1.130523 0.943270 -0.022245
v -1.156529 0.937184 -0.025340
v -0.673466 1.053153 -0.054409
v -0.673466 1.053153 -0.022245
v -0.646483 1.200745 -0.049125
v -0.644001 1.196079 -0.054409
v -0.824232 1.106195 -0.054409
v -0.540675 1.251042 -0.054409
v -0.543157 1.255707 -0.049125
v -0.409510 1.326798 -0.054409
v -2.387404 0.133027 -0.054409
v -2.387404 0.115785 -0.039191
v -1.133660 0.783698 -0.039191
v -1.133257 0.801133 -0.054409
v -0.972353 0.878148 -0.054409
v -1.979133 1.330301 -0.022244
v -1.979133 1.330301 0.036893
v -1.979133 1.464168 0.036893
v -1.979133 1.464168 -0.022244
v -2.001833 1.474205 -0.022244
v -1.901330 1.470213 -0.022244
v -1.901330 1.457561 0.036893
v -2.001833 1.474205 0.036893
v -0.966316 1.342358 -0.023378
v -0.966316 1.342358 0.035759
v -1.426056 1.347033 0.036316
v -1.425947 1.336887 0.026126
v -1.241708 1.339080 0.036067
v -1.624110 1.334527 0.026348
v -1.624219 1.344674 0.036538
v -1.694870 1.333685 0.036574
v -0.298893 1.470213 0.020928
v -0.298893 1.454248 0.036825
v -0.242502 1.470213 0.036893
v -0.422385 1.454248 0.036825
v -0.422385 1.470213 0.020928
v -0.911942 1.457561 0.036893
v -0.757858 0.450478 -0.022244
v -0.757858 0.584438 0.036893
v -0.757858 0.584438 -0.022244
v -0.781430 0.573353 -0.022244
v -0.734285 0.593967 -0.022244
v -0.734285 0.593967 0.036893
v -0.781430 0.585930 0.036893
v -2.377144 0.450478 0.024765
v -2.377144 0.462605 0.036893
v -0.757858 0.462605 0.036893
v -0.757858 0.450478 0.024765
v -0.513763 0.450478 0.036893
v -0.601849 0.964568 -0.022244
v -0.601849 0.958230 0.036893
v -0.601849 1.076614 0.036893
v -0.601849 1.076614 -0.022244
v -0.704570 1.077267 -0.022244
v -0.486334 1.094453 -0.022244
v -0.486334 1.083674 0.036893
v -0.704570 1.089824 0.036893
v -1.436190 0.622530 -0.027720
v -1.438765 0.627362 -0.022245
v -1.711119 0.476066 -0.022245
v -1.256975 0.713859 -0.022245
v -1.254401 0.719375 -0.027720
v -1.174257 0.751722 -0.022245
v -0.217866 1.489359 0.035515
v -0.217866 1.314008 0.077505
v -0.130048 1.489359 0.077505
v -0.217866 0.111273 0.004266
v -0.217866 0.204288 -0.062856
v -0.178151 0.111273 -0.062856
v -2.393806 1.168918 0.077505
v -2.377144 1.168918 0.060843
v -2.377144 1.327877 0.077505
v -2.377144 0.941362 0.060843
v -2.393806 0.941362 0.077505
v -2.377144 0.701095 0.077505
v -2.432208 0.111273 0.077505
v -2.377144 0.111273 -0.003349
v -2.377144 0.238852 0.077505
v -2.377144 1.489359 -0.041524
v -2.377144 1.118762 -0.062856
v -2.438588 1.489359 -0.062856
vn -1.0000 -0.0000 -0.0000
vn -0.0000 -0.0000 -1.0000
vn 1.0000 -0.0000 -0.0000
vn 0.0027 0.9781 -0.2080
vn -0.0000 -1.0000 -0.0000
vn -0.0000 -0.0000 1.0000
vn 0.0274 -0.9939 -0.1065
vn -0.0768 0.9753 -0.2071
vn -0.0161 -0.9999 -0.0000
vn -0.0106 0.9999 -0.0000
vn 0.4327 -0.9015 -0.0000
vn -0.4720 0.8796 -0.0595
vn -0.0084 0.0176 0.9998
vn -0.1187 0.0023 0.9929
vn -0.0000 1.0000 -0.0000
vn -0.6943 0.7197 -0.0000
vn -0.1326 0.9912 -0.0000
vn 0.5053 -0.8630 -0.0000
vn -0.3156 0.6329 -0.7070
vn -0.3538 0.6125 -0.7069
vn -0.3321 0.6243 -0.7071
vn -0.4696 0.8829 -0.0000
vn 0.3325 -0.6241 -0.7071
vn 0.0828 0.9745 0.2085
vn 0.4044 0.9146 -0.0000
vn -0.0296 -0.7085 0.7051
vn 0.1098 -0.7038 0.7019
vn 0.0092 -0.7086 0.7056
vn 0.0119 -0.9999 -0.0000
vn -0.1967 0.6918 0.6948
vn 0.0049 0.7056 0.7086
vn -0.0000 0.7056 0.7086
vn -0.3748 0.9271 -0.0000
vn 0.0632 0.9980 -0.0000
vn 0.0069 1.0000 -0.0000
vn -0.0351 -0.7067 0.7067
vn -0.0000 -0.7071 0.7071
vn -0.0610 0.9981 -0.0000
vn 0.0860 -0.9963 -0.0000
vn 0.1248 0.9705 -0.2061
vn -0.0772 0.9809 0.1788
vn 0.4702 -0.8826 -0.0000
vn 0.3434 -0.6182 0.7071
vn 0.3377 -0.7378 -0.5844
vn 0.3040 -0.6388 0.7068
vn -0.4216 0.2112 0.8818
vn -0.8078 -0.3449 -0.4780
vn -0.0000 -0.9794 0.2019
vn 0.7052 -0.0739 0.7052
vn 0.7063 0.0490 0.7063
vn 0.7071 -0.0000 0.7071
vn 0.7785 -0.3360 0.5302
vn 0.3275 0.0543 -0.9433
vn -0.0596 0.9833 0.1717
vn 0.0007 -0.0014 1.0000
vn 0.0015 -0.0000 -1.0000
vn 0.3019 -0.6308 -0.7148
vn -0.0080 0.0174 0.9998
vn -0.0142 0.0180 0.9997
vn -0.0102 0.0189 0.9998
vn -0.0112 0.0202 0.9997
vn -0.0102 0.0192 0.9998
vn 0.1533 -0.1589 -0.9753
vn -0.1573 0.9874 -0.0198
vn 0.3327 -0.6245 -0.7067
vn -0.0775 0.9970 -0.0000
vn 0.0092 -0.7085 0.7056
vn -0.0000 0.9779 0.2092
vn -0.0302 0.9892 -0.1432
vn -0.4179 0.8886 -0.1890
vn -0.1502 0.9726 0.1773
vn 0.0890 -0.9904 -0.1062
vn 0.0064 1.0000 -0.0000
vn 0.6188 -0.7856 -0.0000
vn 0.3379 -0.7383 -0.5837
vn 0.3910 -0.7339 -0.5555
vn 0.2019 -0.9794 -0.0000
vn 0.1550 -0.9837 0.0917
vn 0.1460 0.9859 0.0821
vn -0.0011 -0.0002 1.0000
vn 0.0009 -0.0096 1.0000
vn 0.0012 -0.0104 0.9999
vn -0.0015 -0.0020 1.0000
vn -0.0000 0.0005 1.0000
vn 0.0001 -0.0099 1.0000
vn -0.0000 -0.0052 1.0000
vn 0.0011 -0.0004 1.0000
vn 0.0011 -0.0007 1.0000
vn -0.0011 0.0006 -1.0000
vn -0.0000 0.0089 -1.0000
vt 0.204745 0.818309
vt 0.204745 0.811274
vt 0.204745 0.817349
vt 0.204747 0.818309
vt 0.204747 0.810765
vt 0.204747 0.810923
vt 0.204711 0.816280
vt 0.204711 0.816555
vt 0.204711 0.815309
vt 0.204708 0.818309
vt 0.204710 0.818309
vt 0.204708 0.810765
vt 0.200335 0.836174
vt 0.200389 0.836270
vt 0.200389 0.836122
vt 0.200391 0.836365
vt 0.200390 0.834674
vt 0.200409 0.834674
vt 0.200399 0.834674
vt 0.200390 0.834817
vt 0.200396 0.840730
vt 0.200409 0.840780
vt 0.200396 0.840655
vt 0.200335 0.840654
vt 0.200392 0.842057
vt 0.200335 0.840506
vt 0.200396 0.842050
vt 0.200400 0.842133
vt 0.200409 0.845038
vt 0.200383 0.845180
vt 0.200335 0.846686
vt 0.200348 0.846733
vt 0.200351 0.846686
vt 0.200348 0.845038
vt 0.200393 0.841773
vt 0.200409 0.844375
vt 0.200334 0.832604
vt 0.200377 0.840407
vt 0.200377 0.840407
vt 0.200367 0.836758
vt 0.200373 0.837777
vt 0.200377 0.840479
vt 0.200377 0.838600
vt 0.204746 0.818309
vt 0.200377 0.840443
vt 0.200377 0.838805
vt 0.200383 0.839712
vt 0.200394 0.843512
vt 0.200394 0.843457
vt 0.200388 0.842398
vt 0.200398 0.844104
vt 0.200398 0.844159
vt 0.200402 0.844996
vt 0.200409 0.846226
vt 0.200334 0.830935
vt 0.200334 0.830732
vt 0.200348 0.846614
vt 0.200351 0.846536
vt 0.200335 0.838851
vt 0.200392 0.842205
vt 0.200335 0.845038
vt 0.200367 0.845235
vt 0.200367 0.845115
vt 0.200374 0.845141
vt 0.200361 0.845087
vt 0.200361 0.845207
vt 0.200358 0.845077
vt 0.200402 0.846686
vt 0.200406 0.846686
vt 0.200409 0.846686
vt 0.200406 0.846498
vt 0.200408 0.846686
vt 0.200402 0.846498
vt 0.200385 0.846536
vt 0.200390 0.836252
vt 0.200335 0.834674
vt 0.200409 0.836322
vt 0.200335 0.834817
vt 0.200400 0.842260
vt 0.200409 0.842382
vt 0.200409 0.842509
vt 0.200373 0.837842
vt 0.200367 0.836701
vt 0.200358 0.834976
vt 0.200376 0.838223
vt 0.204745 0.810765
vt 0.204746 0.810765
vt 0.204710 0.816555
vt 0.204711 0.817425
vt 0.204710 0.815309
vt 0.204711 0.813994
vt 0.204710 0.810765
vt 0.204711 0.810765
vt 0.204711 0.811463
vt 0.204711 0.818309
vt 0.204711 0.818195
vt 0.200409 0.840854
vt 0.200335 0.836322
vt 0.200334 0.832604
s 0
usemtl Texture_Map
f 4/1/1 115/2/1 112/3/1
f 115/2/2 5/4/2 1/5/2
f 5/4/3 3/6/3 1/5/3
f 127/7/3 118/8/3 120/9/3
f 11/10/2 128/11/2 127/7/2
f 10/10/1 7/12/1 9/12/1
f 17/13/4 91/14/4 88/15/4
f 88/15/2 89/16/2 85/17/2
f 14/18/5 15/18/5 96/19/5
f 90/16/6 91/14/6 94/20/6
f 97/21/7 23/22/7 98/23/7
f 24/24/8 101/25/8 25/26/8
f 100/27/2 97/21/2 101/25/2
f 99/27/6 98/23/6 103/28/6
f 29/29/9 72/30/9 71/30/9
f 32/31/10 67/32/10 33/31/10
f 67/32/2 68/33/2 63/34/2
f 50/35/11 38/36/11 51/35/11
f 40/37/12 49/38/12 46/39/12
f 106/40/13 108/41/13 49/38/13
f 48/42/14 49/38/14 43/43/14
f 113/44/15 6/4/15 5/4/15
f 48/42/16 45/45/16 44/45/16
f 46/39/2 47/42/2 61/46/2
f 45/45/17 49/38/17 44/45/17
f 62/47/18 51/35/18 43/43/18
f 52/48/19 53/49/19 54/50/19
f 55/51/20 56/52/20 57/53/20
f 55/51/21 52/48/21 56/52/21
f 42/54/22 56/52/22 52/48/22
f 58/55/23 60/43/23 59/56/23
f 68/33/24 65/57/24 69/58/24
f 23/22/6 103/28/6 98/23/6
f 22/59/6 104/60/6 24/24/6
f 63/34/5 30/61/5 28/61/5
f 69/58/6 70/32/6 64/34/6
f 66/57/25 70/32/25 65/57/25
f 73/62/26 74/63/26 75/64/26
f 76/65/27 77/66/27 78/67/27
f 73/62/28 76/65/28 74/63/28
f 76/65/29 78/67/29 63/34/29
f 83/68/15 79/69/15 34/70/15
f 79/69/30 80/71/30 81/72/30
f 82/73/31 83/68/31 84/74/31
f 83/68/32 80/71/32 79/69/32
f 89/16/33 86/75/33 90/16/33
f 13/76/2 88/15/2 85/17/2
f 87/75/34 91/14/34 86/75/34
f 90/16/35 18/77/35 89/16/35
f 94/20/36 95/17/36 96/19/36
f 93/78/37 95/17/37 94/20/37
f 85/17/5 92/76/5 13/76/5
f 103/28/38 100/27/38 99/27/38
f 90/16/6 94/20/6 96/19/6
f 20/59/39 98/23/39 22/59/39
f 50/35/2 53/49/2 55/51/2
f 99/27/40 101/25/40 104/60/40
f 102/79/41 27/80/41 26/81/41
f 60/43/42 109/82/42 105/83/42
f 105/83/43 106/40/43 107/84/43
f 108/41/44 109/82/44 110/85/44
f 105/83/45 108/41/45 106/40/45
f 111/1/46 112/3/46 113/44/46
f 6/4/6 113/44/6 112/3/6
f 114/86/47 115/2/47 116/87/47
f 116/87/48 1/5/48 3/6/48
f 117/88/49 118/8/49 119/89/49
f 120/9/50 121/90/50 122/91/50
f 118/8/51 121/90/51 120/9/51
f 123/92/5 7/12/5 124/93/5
f 123/92/52 124/93/52 125/94/52
f 121/90/6 117/88/6 10/10/6
f 126/95/53 127/7/53 128/11/53
f 12/96/54 126/95/54 128/11/54
f 77/66/55 69/58/55 78/67/55
f 30/61/6 70/32/6 32/31/6
f 28/61/2 67/32/2 63/34/2
f 34/70/56 29/29/56 71/30/56
f 20/59/2 101/25/2 97/21/2
f 21/97/2 102/79/2 26/81/2
f 62/47/57 60/43/57 61/46/57
f 40/37/2 61/46/2 58/55/2
f 48/42/6 43/43/6 51/35/6
f 93/78/6 91/14/6 16/98/6
f 14/18/2 89/16/2 18/77/2
f 114/86/1 2/86/1 115/2/1
f 2/86/1 112/3/1 115/2/1
f 112/3/1 111/1/1 4/1/1
f 1/5/2 116/87/2 115/2/2
f 115/2/2 4/1/2 5/4/2
f 5/4/3 6/4/3 3/6/3
f 124/93/3 8/93/3 125/94/3
f 8/93/3 127/7/3 122/91/3
f 127/7/3 126/95/3 119/89/3
f 126/95/3 12/96/3 119/89/3
f 119/89/3 118/8/3 127/7/3
f 120/9/3 122/91/3 127/7/3
f 122/91/3 125/94/3 8/93/3
f 8/93/2 7/12/2 127/7/2
f 7/12/2 11/10/2 127/7/2
f 10/10/1 11/10/1 7/12/1
f 17/13/4 16/98/4 91/14/4
f 88/15/2 87/75/2 89/16/2
f 95/17/5 85/17/5 96/19/5
f 85/17/5 14/18/5 96/19/5
f 90/16/2 86/75/2 91/14/2
f 97/21/7 21/97/7 23/22/7
f 24/24/8 104/60/8 101/25/8
f 100/27/2 102/79/2 97/21/2
f 99/27/6 104/60/6 98/23/6
f 29/29/9 31/29/9 72/30/9
f 32/31/10 70/32/10 67/32/10
f 67/32/6 66/57/6 68/33/6
f 50/35/11 36/36/11 38/36/11
f 40/37/12 39/99/12 49/38/12
f 108/41/58 110/85/58 49/38/58
f 110/85/59 43/43/59 49/38/59
f 49/38/60 39/99/60 107/84/60
f 106/40/61 49/38/61 107/84/61
f 39/99/62 37/56/62 107/84/62
f 48/42/63 44/45/63 49/38/63
f 5/4/15 4/1/15 111/1/15
f 111/1/15 113/44/15 5/4/15
f 48/42/16 47/42/16 45/45/16
f 46/39/6 45/45/6 47/42/6
f 45/45/64 46/39/64 49/38/64
f 43/43/18 60/43/18 62/47/18
f 62/47/18 50/35/18 51/35/18
f 55/51/21 53/49/21 52/48/21
f 54/50/22 47/42/22 48/42/22
f 48/42/22 42/54/22 52/48/22
f 42/54/22 41/54/22 57/53/22
f 56/52/22 42/54/22 57/53/22
f 52/48/22 54/50/22 48/42/22
f 58/55/65 61/46/65 60/43/65
f 68/33/66 66/57/66 65/57/66
f 23/22/6 27/80/6 103/28/6
f 22/59/6 98/23/6 104/60/6
f 63/34/5 64/34/5 30/61/5
f 69/58/2 65/57/2 70/32/2
f 66/57/25 67/32/25 70/32/25
f 73/62/67 77/66/67 76/65/67
f 64/34/29 63/34/29 78/67/29
f 63/34/29 71/30/29 74/63/29
f 76/65/29 63/34/29 74/63/29
f 71/30/29 72/30/29 75/64/29
f 71/30/29 75/64/29 74/63/29
f 34/70/68 68/33/68 84/74/68
f 68/33/68 69/58/68 84/74/68
f 84/74/69 83/68/69 34/70/69
f 79/69/15 81/72/15 34/70/15
f 81/72/15 35/70/15 34/70/15
f 83/68/32 82/73/32 80/71/32
f 89/16/33 87/75/33 86/75/33
f 13/76/2 17/13/2 88/15/2
f 87/75/70 88/15/70 91/14/70
f 90/16/35 19/77/35 18/77/35
f 93/78/37 92/76/37 95/17/37
f 85/17/5 95/17/5 92/76/5
f 103/28/71 102/79/71 100/27/71
f 96/19/6 15/18/6 19/77/6
f 19/77/6 90/16/6 96/19/6
f 20/59/72 97/21/72 98/23/72
f 50/35/2 62/47/2 54/50/2
f 62/47/2 61/46/2 47/42/2
f 54/50/2 62/47/2 47/42/2
f 54/50/2 53/49/2 50/35/2
f 41/54/2 36/36/2 57/53/2
f 36/36/2 50/35/2 55/51/2
f 55/51/2 57/53/2 36/36/2
f 99/27/73 100/27/73 101/25/73
f 102/79/41 103/28/41 27/80/41
f 37/56/42 59/56/42 107/84/42
f 59/56/42 60/43/42 105/83/42
f 107/84/42 59/56/42 105/83/42
f 60/43/74 43/43/74 110/85/74
f 60/43/75 110/85/75 109/82/75
f 105/83/76 109/82/76 108/41/76
f 2/86/6 3/6/6 112/3/6
f 3/6/6 6/4/6 112/3/6
f 2/86/77 114/86/77 3/6/77
f 114/86/78 116/87/78 3/6/78
f 118/8/51 117/88/51 121/90/51
f 9/12/5 7/12/5 123/92/5
f 7/12/5 8/93/5 124/93/5
f 9/12/6 123/92/6 125/94/6
f 125/94/6 122/91/6 9/12/6
f 122/91/6 121/90/6 9/12/6
f 117/88/6 119/89/6 10/10/6
f 119/89/6 12/96/6 10/10/6
f 9/12/6 121/90/6 10/10/6
f 128/11/15 11/10/15 10/10/15
f 10/10/79 12/96/79 128/11/79
f 31/29/6 35/70/6 81/72/6
f 31/29/80 81/72/80 80/71/80
f 73/62/81 75/64/81 84/74/81
f 75/64/82 72/30/82 84/74/82
f 72/30/83 31/29/83 82/73/83
f 31/29/84 80/71/84 82/73/84
f 82/73/85 84/74/85 72/30/85
f 84/74/86 69/58/86 73/62/86
f 73/62/87 69/58/87 77/66/87
f 69/58/88 64/34/88 78/67/88
f 30/61/6 64/34/6 70/32/6
f 28/61/2 33/31/2 67/32/2
f 71/30/89 63/34/89 68/33/89
f 68/33/90 34/70/90 71/30/90
f 20/59/2 25/26/2 101/25/2
f 21/97/2 97/21/2 102/79/2
f 40/37/2 46/39/2 61/46/2
f 51/35/6 38/36/6 42/54/6
f 42/54/6 48/42/6 51/35/6
f 93/78/6 94/20/6 91/14/6
f 14/18/2 85/17/2 89/16/2
