# Blender 4.4.0
# www.blender.org
mtllib Bld_Doghouse_Medium_01.mtl
o Bld_Doghouse_Medium_01
v -0.375845 0.036169 0.438150
v 0.375550 0.036169 0.438150
v -0.375121 0.036169 -0.438150
v 0.375121 0.036169 -0.438150
v -0.000000 0.812800 0.438150
v -0.000000 0.812800 -0.438150
v -0.375121 0.576653 -0.438150
v -0.375845 0.576653 0.438150
v -0.385716 0.578637 0.438150
v 0.385716 0.578637 0.438150
v 0.375550 0.576653 0.438150
v 0.375121 0.576653 -0.438150
v 0.375550 0.097325 0.438150
v 0.375550 0.095341 0.438150
v 0.375550 0.155505 0.438150
v 0.375550 0.217653 0.438150
v 0.375550 0.215669 0.438150
v 0.375550 0.277817 0.438150
v 0.375550 0.275833 0.438150
v 0.375550 0.335997 0.438150
v 0.375550 0.398145 0.438150
v 0.375550 0.458309 0.438150
v 0.375550 0.456325 0.438150
v 0.375550 0.518473 0.438150
v 0.375550 0.516489 0.438150
v -0.375845 0.516489 0.438150
v -0.375845 0.518473 0.438150
v -0.375845 0.458309 0.438150
v -0.375845 0.396161 0.438150
v -0.375845 0.398145 0.438150
v -0.375845 0.335997 0.438150
v -0.375845 0.277817 0.438150
v -0.375845 0.215669 0.438150
v -0.375845 0.155505 0.438150
v -0.375845 0.157489 0.438150
v -0.375845 0.095341 0.438150
v -0.375845 0.097325 0.438150
v -0.375121 0.097325 -0.438150
v -0.375121 0.155505 -0.438150
v -0.375121 0.215669 -0.438150
v -0.375121 0.277817 -0.438150
v -0.375121 0.275833 -0.438150
v -0.375121 0.337981 -0.438150
v -0.375121 0.335997 -0.438150
v -0.375121 0.398145 -0.438150
v -0.375121 0.458309 -0.438150
v -0.375121 0.456325 -0.438150
v -0.375121 0.518473 -0.438150
v 0.375121 0.518473 -0.438150
v 0.375121 0.456325 -0.438150
v 0.375121 0.458309 -0.438150
v 0.375121 0.398145 -0.438150
v 0.375121 0.335997 -0.438150
v 0.375121 0.337981 -0.438150
v 0.375121 0.275833 -0.438150
v 0.375121 0.277817 -0.438150
v 0.375121 0.215669 -0.438150
v 0.375121 0.155505 -0.438150
v 0.375121 0.097325 -0.438150
v 0.095203 0.755003 0.438150
v 0.098472 0.753019 0.438150
v 0.192041 0.696215 0.438150
v 0.292147 0.635442 0.438150
v -0.292147 0.635442 0.438150
v -0.192041 0.696215 0.438150
v -0.098472 0.753019 0.438150
v -0.095203 0.755003 0.438150
v -0.000000 0.755003 0.438150
v -0.095203 0.755003 -0.438150
v -0.098472 0.753019 -0.438150
v -0.192041 0.696215 -0.438150
v -0.195309 0.694230 -0.438150
v -0.288878 0.637426 -0.438150
v -0.292147 0.635442 -0.438150
v 0.292147 0.635442 -0.438150
v 0.288878 0.637426 -0.438150
v 0.195309 0.694230 -0.438150
v 0.192041 0.696215 -0.438150
v 0.098472 0.753019 -0.438150
v 0.095203 0.755003 -0.438150
v -0.000000 0.755003 -0.438150
v -0.375845 0.036169 0.415150
v 0.375550 0.036169 0.415150
v -0.375121 0.036169 -0.415150
v 0.375121 0.036169 -0.415150
v -0.000000 0.812800 0.415150
v -0.000000 0.812800 -0.415150
v -0.385716 0.578637 -0.415150
v -0.375121 0.576653 -0.415150
v -0.375845 0.576653 0.415150
v -0.385716 0.578637 0.415150
v 0.385716 0.578637 0.415150
v 0.375550 0.576653 0.415150
v 0.375121 0.576653 -0.415150
v 0.385716 0.578637 -0.415150
v 0.375550 0.097325 0.415150
v 0.375550 0.095341 0.415150
v 0.375550 0.157489 0.415150
v 0.375550 0.155505 0.415150
v 0.375550 0.217653 0.415150
v 0.375550 0.215669 0.415150
v 0.375550 0.277817 0.415150
v 0.375550 0.275833 0.415150
v 0.375550 0.337981 0.415150
v 0.375550 0.335997 0.415150
v 0.375550 0.398145 0.415150
v 0.375550 0.396161 0.415150
v 0.375550 0.458309 0.415150
v 0.375550 0.456325 0.415150
v 0.375550 0.518473 0.415150
v 0.375550 0.516489 0.415150
v -0.375845 0.516489 0.415150
v -0.375845 0.518473 0.415150
v -0.375845 0.456325 0.415150
v -0.375845 0.458309 0.415150
v -0.375845 0.396161 0.415150
v -0.375845 0.398145 0.415150
v -0.375845 0.335997 0.415150
v -0.375845 0.337981 0.415150
v -0.375845 0.275833 0.415150
v -0.375845 0.277817 0.415150
v -0.375845 0.215669 0.415150
v -0.375845 0.217653 0.415150
v -0.375845 0.155505 0.415150
v -0.375845 0.157489 0.415150
v -0.375845 0.095341 0.415150
v -0.375845 0.097325 0.415150
v -0.375121 0.097325 -0.415150
v -0.375121 0.095341 -0.415150
v -0.375121 0.157489 -0.415150
v -0.375121 0.217653 -0.415150
v -0.375121 0.277817 -0.415150
v -0.375121 0.275833 -0.415150
v -0.375121 0.337981 -0.415150
v -0.375121 0.335997 -0.415150
v -0.375121 0.396161 -0.415150
v -0.375121 0.458309 -0.415150
v -0.375121 0.456325 -0.415150
v -0.375121 0.518473 -0.415150
v 0.375121 0.518473 -0.415150
v 0.375121 0.456325 -0.415150
v 0.375121 0.458309 -0.415150
v 0.375121 0.396161 -0.415150
v 0.375121 0.335997 -0.415150
v 0.375121 0.337981 -0.415150
v 0.375121 0.275833 -0.415150
v 0.375121 0.277817 -0.415150
v 0.375121 0.217653 -0.415150
v 0.375121 0.157489 -0.415150
v 0.375121 0.095341 -0.415150
v 0.375121 0.097325 -0.415150
v 0.095203 0.755003 0.415150
v 0.098472 0.753019 0.415150
v 0.192041 0.696215 0.415150
v 0.195309 0.694230 0.415150
v 0.288878 0.637426 0.415150
v 0.292147 0.635442 0.415150
v -0.292147 0.635442 0.415150
v -0.288878 0.637426 0.415150
v -0.195309 0.694230 0.415150
v -0.192041 0.696215 0.415150
v -0.098472 0.753019 0.415150
v -0.095203 0.755003 0.415150
v -0.000000 0.755003 0.415150
v -0.095203 0.755003 -0.415150
v -0.098472 0.753019 -0.415150
v -0.192041 0.696215 -0.415150
v -0.195309 0.694230 -0.415150
v -0.288878 0.637426 -0.415150
v -0.292147 0.635442 -0.415150
v 0.292147 0.635442 -0.415150
v 0.288878 0.637426 -0.415150
v 0.195309 0.694230 -0.415150
v 0.192041 0.696215 -0.415150
v 0.098472 0.753019 -0.415150
v 0.095203 0.755003 -0.415150
v -0.000000 0.755003 -0.415150
v 0.108205 0.516489 0.438150
v 0.108205 0.516489 0.415150
v 0.103875 0.518473 0.415150
v 0.103875 0.518473 0.438150
v 0.127802 0.507508 0.415150
v 0.127802 0.507508 0.438150
v -0.053088 0.541749 0.415150
v -0.053088 0.541749 0.438150
v 0.053088 0.541749 0.415150
v 0.053088 0.541749 0.438150
v -0.127802 0.507508 0.415150
v -0.108205 0.516489 0.415150
v -0.103875 0.518473 0.415150
v -0.103875 0.518473 0.438150
v -0.108205 0.516489 0.438150
v -0.127802 0.507508 0.438150
v -0.146221 0.458309 0.438150
v -0.146221 0.458309 0.415150
v -0.146964 0.456325 0.415150
v -0.158750 0.424843 0.415150
v -0.158750 0.424842 0.438150
v 0.146221 0.458309 0.438150
v 0.146964 0.456325 0.438150
v 0.146221 0.458309 0.415150
v 0.146964 0.456325 0.415150
v 0.158750 0.424843 0.415150
v 0.158750 0.424843 0.438150
v 0.158750 0.217653 0.415150
v 0.158750 0.157489 0.415150
v 0.158750 0.215669 0.438150
v 0.158750 0.215669 0.415150
v 0.158750 0.097325 0.415150
v 0.158750 0.095341 0.438150
v 0.158750 0.095341 0.415150
v 0.158750 0.061749 0.415150
v 0.158750 0.155505 0.415150
v 0.158750 0.217653 0.438150
v 0.158750 0.155505 0.438150
v 0.158750 0.097325 0.438150
v 0.158750 0.061749 0.438150
v 0.158750 0.396161 0.415150
v 0.158750 0.398145 0.438150
v 0.158750 0.337981 0.415150
v 0.158750 0.398145 0.415150
v 0.158750 0.335997 0.415150
v 0.158750 0.275833 0.438150
v 0.158750 0.335997 0.438150
v 0.158750 0.277817 0.438150
v 0.158750 0.275833 0.415150
v 0.158750 0.277817 0.415150
v -0.158750 0.275833 0.415150
v -0.158750 0.396161 0.415150
v -0.158750 0.277817 0.415150
v -0.158750 0.277817 0.438150
v -0.158750 0.396161 0.438150
v -0.158750 0.335997 0.438150
v -0.158750 0.335997 0.415150
v -0.158750 0.398145 0.415150
v -0.158750 0.337981 0.415150
v -0.158750 0.398145 0.438150
v -0.158750 0.155505 0.415150
v -0.158750 0.217653 0.415150
v -0.158750 0.155505 0.438150
v -0.158750 0.157489 0.415150
v -0.158750 0.215669 0.438150
v -0.158750 0.157489 0.438150
v -0.158750 0.215669 0.415150
v -0.158750 0.095341 0.415150
v -0.158750 0.095341 0.438150
v -0.158750 0.097325 0.438150
v -0.158750 0.097325 0.415150
v -0.158750 0.061749 0.415150
v -0.158750 0.061749 0.438150
v 0.375550 0.160860 0.438150
v 0.375550 0.157489 0.434779
v 0.375550 0.341352 0.438150
v 0.375550 0.337981 0.434779
v 0.375550 0.396161 0.434779
v 0.375550 0.392790 0.438150
v -0.375845 0.452954 0.438150
v -0.375845 0.456325 0.434779
v -0.375845 0.337981 0.434779
v -0.375845 0.341352 0.438150
v -0.375845 0.272462 0.438150
v -0.375845 0.275833 0.434779
v -0.375845 0.217653 0.434779
v -0.375845 0.221024 0.438150
v 0.195309 0.694230 0.434779
v 0.200862 0.690859 0.438150
v 0.283325 0.640797 0.438150
v 0.288878 0.637426 0.434779
v -0.288878 0.637426 0.434779
v -0.283325 0.640797 0.438150
v -0.200862 0.690859 0.438150
v -0.195309 0.694230 0.434779
v -0.146964 0.456325 0.434779
v -0.148226 0.452954 0.438150
v 0.158750 0.157489 0.434779
v 0.158750 0.160860 0.438150
v 0.158750 0.337981 0.434779
v 0.158750 0.341352 0.438150
v 0.158750 0.392790 0.438150
v 0.158750 0.396161 0.434779
v -0.158750 0.275833 0.434779
v -0.158750 0.272462 0.438150
v -0.158750 0.341352 0.438150
v -0.158750 0.337981 0.434779
v -0.158750 0.221024 0.438150
v -0.158750 0.217653 0.434779
v -0.379939 0.582144 -0.438150
v -0.385716 0.578637 -0.434643
v 0.385716 0.578637 -0.434643
v 0.379939 0.582144 -0.438150
v -0.375121 0.095341 -0.434643
v -0.375121 0.091834 -0.438150
v -0.375121 0.160997 -0.438150
v -0.375121 0.157489 -0.434643
v -0.375121 0.221161 -0.438150
v -0.375121 0.217653 -0.434643
v -0.375121 0.396161 -0.434643
v -0.375121 0.392654 -0.438150
v -0.375121 0.516489 -0.434643
v -0.375121 0.512982 -0.438150
v 0.375121 0.512982 -0.438150
v 0.375121 0.516489 -0.434643
v 0.375121 0.392654 -0.438150
v 0.375121 0.396161 -0.434643
v 0.375121 0.217653 -0.434643
v 0.375121 0.221161 -0.438150
v 0.375121 0.157489 -0.434643
v 0.375121 0.160997 -0.438150
v 0.375121 0.091834 -0.438150
v 0.375121 0.095341 -0.434643
v -0.375121 0.152219 -0.415150
v -0.375121 0.155505 -0.418437
v -0.375121 0.212383 -0.415150
v -0.375121 0.215669 -0.418437
v -0.375121 0.398145 -0.418437
v -0.375121 0.401432 -0.415150
v -0.375121 0.513203 -0.415150
v -0.375121 0.516489 -0.418437
v 0.375121 0.516489 -0.418437
v 0.375121 0.513203 -0.415150
v 0.375121 0.401432 -0.415150
v 0.375121 0.398145 -0.418437
v 0.375121 0.215669 -0.418437
v 0.375121 0.212383 -0.415150
v 0.375121 0.155505 -0.418437
v 0.375121 0.152219 -0.415150
v -0.387350 0.036169 0.415150
v 0.387350 0.036169 0.415150
v -0.387350 0.036169 -0.415150
v 0.387350 0.036169 -0.415150
v -0.387350 0.577645 -0.415150
v -0.387350 0.577645 0.415150
v 0.387350 0.577645 0.415150
v 0.387350 0.577645 -0.415150
v 0.387350 0.518473 -0.415150
v 0.387350 0.458309 -0.415150
v 0.387350 0.456325 -0.415150
v 0.387350 0.398145 -0.415150
v 0.387350 0.335997 -0.415150
v 0.387350 0.277817 -0.415150
v 0.387350 0.275833 -0.415150
v 0.387350 0.217653 -0.415150
v 0.387350 0.155505 -0.415150
v 0.387350 0.097325 -0.415150
v 0.387350 0.095341 -0.415150
v 0.387350 0.095341 0.415150
v 0.387350 0.097325 0.415150
v 0.387350 0.155505 0.415150
v 0.387350 0.217653 0.415150
v 0.387350 0.275833 0.415150
v 0.387350 0.277817 0.415150
v 0.387350 0.335997 0.415150
v 0.387350 0.398145 0.415150
v 0.387350 0.456325 0.415150
v 0.387350 0.458309 0.415150
v 0.387350 0.518473 0.415150
v -0.387350 0.095341 -0.415150
v -0.387350 0.097325 -0.415150
v -0.387350 0.157489 -0.415150
v -0.387350 0.217653 -0.415150
v -0.387350 0.275833 -0.415150
v -0.387350 0.277817 -0.415150
v -0.387350 0.337981 -0.415150
v -0.387350 0.398145 -0.415150
v -0.387350 0.456325 -0.415150
v -0.387350 0.516489 -0.415150
v -0.387350 0.518473 -0.415150
v -0.387350 0.518473 0.415150
v -0.387350 0.516489 0.415150
v -0.387350 0.456325 0.415150
v -0.387350 0.398145 0.415150
v -0.387350 0.337981 0.415150
v -0.387350 0.277817 0.415150
v -0.387350 0.275833 0.415150
v -0.387350 0.217653 0.415150
v -0.387350 0.157489 0.415150
v -0.387350 0.097325 0.415150
v -0.387350 0.095341 0.415150
v -0.364350 0.036169 0.415150
v 0.364350 0.036169 0.415150
v -0.364350 0.036169 -0.415150
v 0.364350 0.036169 -0.415150
v -0.364350 0.577645 -0.415150
v -0.364350 0.577645 0.415150
v 0.364350 0.577645 0.415150
v 0.364350 0.577645 -0.415150
v 0.364350 0.518473 -0.415150
v 0.364350 0.516489 -0.415150
v 0.364350 0.458309 -0.415150
v 0.364350 0.456325 -0.415150
v 0.364350 0.398145 -0.415150
v 0.364350 0.396161 -0.415150
v 0.364350 0.337981 -0.415150
v 0.364350 0.335997 -0.415150
v 0.364350 0.277817 -0.415150
v 0.364350 0.275833 -0.415150
v 0.364350 0.217653 -0.415150
v 0.364350 0.215669 -0.415150
v 0.364350 0.157489 -0.415150
v 0.364350 0.155505 -0.415150
v 0.364350 0.097325 -0.415150
v 0.364350 0.095341 -0.415150
v 0.364350 0.095341 0.415150
v 0.364350 0.097325 0.415150
v 0.364350 0.155505 0.415150
v 0.364350 0.157489 0.415150
v 0.364350 0.215669 0.415150
v 0.364350 0.217653 0.415150
v 0.364350 0.275833 0.415150
v 0.364350 0.277817 0.415150
v 0.364350 0.335997 0.415150
v 0.364350 0.337981 0.415150
v 0.364350 0.396161 0.415150
v 0.364350 0.398145 0.415150
v 0.364350 0.456325 0.415150
v 0.364350 0.458309 0.415150
v 0.364350 0.516489 0.415150
v 0.364350 0.518473 0.415150
v -0.364350 0.095341 -0.415150
v -0.364350 0.097325 -0.415150
v -0.364350 0.155505 -0.415150
v -0.364350 0.157489 -0.415150
v -0.364350 0.215669 -0.415150
v -0.364350 0.217653 -0.415150
v -0.364350 0.275833 -0.415150
v -0.364350 0.277817 -0.415150
v -0.364350 0.335997 -0.415150
v -0.364350 0.337981 -0.415150
v -0.364350 0.396161 -0.415150
v -0.364350 0.398145 -0.415150
v -0.364350 0.456325 -0.415150
v -0.364350 0.458309 -0.415150
v -0.364350 0.516489 -0.415150
v -0.364350 0.518473 -0.415150
v -0.364350 0.518473 0.415150
v -0.364350 0.516489 0.415150
v -0.364350 0.458309 0.415150
v -0.364350 0.456325 0.415150
v -0.364350 0.398145 0.415150
v -0.364350 0.396161 0.415150
v -0.364350 0.337981 0.415150
v -0.364350 0.335997 0.415150
v -0.364350 0.277817 0.415150
v -0.364350 0.275833 0.415150
v -0.364350 0.217653 0.415150
v -0.364350 0.215669 0.415150
v -0.364350 0.157489 0.415150
v -0.364350 0.155505 0.415150
v -0.364350 0.097325 0.415150
v -0.364350 0.095341 0.415150
v 0.382548 0.516489 -0.415150
v 0.387350 0.511687 -0.415150
v 0.382548 0.396161 -0.415150
v 0.387350 0.391359 -0.415150
v 0.387350 0.342783 -0.415150
v 0.382548 0.337981 -0.415150
v 0.382548 0.215669 -0.415150
v 0.387350 0.210868 -0.415150
v 0.387350 0.162291 -0.415150
v 0.382548 0.157489 -0.415150
v 0.382548 0.157489 0.415150
v 0.387350 0.162291 0.415150
v 0.387350 0.210868 0.415150
v 0.382548 0.215669 0.415150
v 0.382548 0.337981 0.415150
v 0.387350 0.342783 0.415150
v 0.387350 0.391359 0.415150
v 0.382548 0.396161 0.415150
v 0.387350 0.511687 0.415150
v 0.382548 0.516489 0.415150
v -0.387350 0.150704 -0.415150
v -0.382548 0.155505 -0.415150
v -0.387350 0.210868 -0.415150
v -0.382548 0.215669 -0.415150
v -0.387350 0.331196 -0.415150
v -0.382548 0.335997 -0.415150
v -0.387350 0.391359 -0.415150
v -0.382548 0.396161 -0.415150
v -0.382548 0.458309 -0.415150
v -0.387350 0.463111 -0.415150
v -0.387350 0.463111 0.415150
v -0.382548 0.458309 0.415150
v -0.382548 0.396161 0.415150
v -0.387350 0.391359 0.415150
v -0.382548 0.335997 0.415150
v -0.387350 0.331196 0.415150
v -0.382548 0.215669 0.415150
v -0.387350 0.210868 0.415150
v -0.382548 0.155505 0.415150
v -0.387350 0.150704 0.415150
v 0.372914 0.000000 0.452586
v 0.401786 0.000000 0.452586
v 0.372914 0.000000 0.415150
v 0.401786 0.000000 0.415150
v 0.372914 0.587863 0.415150
v 0.372914 0.587863 0.452586
v 0.401786 0.571218 0.452586
v 0.401786 0.571218 0.415150
v -0.372914 0.000000 0.452586
v -0.401786 0.000000 0.452586
v -0.372914 0.000000 0.415150
v -0.401786 0.000000 0.415150
v -0.372914 0.587863 0.415150
v -0.372914 0.587863 0.452586
v -0.401786 0.571218 0.452586
v -0.401786 0.571218 0.415150
v 0.372914 0.000000 -0.452586
v 0.401786 0.000000 -0.452586
v 0.372914 0.000000 -0.415150
v 0.401786 0.000000 -0.415150
v 0.372914 0.587863 -0.415150
v 0.372914 0.587863 -0.452586
v 0.401786 0.571218 -0.452586
v 0.401786 0.571218 -0.415150
v -0.372914 0.000000 -0.452586
v -0.401786 0.000000 -0.452586
v -0.372914 0.000000 -0.415150
v -0.401786 0.000000 -0.415150
v -0.372914 0.587863 -0.415150
v -0.372914 0.587863 -0.452586
v -0.401786 0.571218 -0.452586
v -0.401786 0.571218 -0.415150
v 0.454058 0.557998 -0.455522
v 0.454058 0.557998 0.455522
v 0.444809 0.542763 0.455522
v 0.444809 0.542763 -0.455522
v -0.000000 0.812800 0.455522
v -0.000000 0.812800 -0.455522
v -0.000000 0.828035 0.455522
v -0.000000 0.828035 -0.455522
v -0.000000 0.828035 -0.326375
v -0.000000 0.828035 -0.324370
v -0.000000 0.828035 -0.194221
v -0.000000 0.828035 -0.064072
v -0.000000 0.828035 0.064072
v -0.000000 0.828035 0.196226
v -0.000000 0.828035 0.324370
v -0.000000 0.828035 0.326375
v -0.000000 0.812800 -0.324370
v -0.000000 0.812800 -0.326375
v -0.000000 0.812800 -0.194221
v -0.000000 0.812800 -0.196226
v -0.000000 0.812800 -0.064072
v -0.000000 0.812800 -0.066077
v -0.000000 0.812800 0.066077
v -0.000000 0.812800 0.064072
v -0.000000 0.812800 0.196226
v -0.000000 0.812800 0.194221
v -0.000000 0.812800 0.326375
v -0.000000 0.812800 0.324370
v 0.454058 0.557998 -0.326375
v 0.454058 0.557998 -0.324370
v 0.454058 0.557998 -0.194221
v 0.454058 0.557998 -0.064072
v 0.454058 0.557998 0.064072
v 0.454058 0.557998 0.196226
v 0.454058 0.557998 0.324370
v 0.454058 0.557998 0.326375
v 0.444809 0.542763 -0.324370
v 0.444809 0.542763 -0.326375
v 0.444809 0.542763 -0.194221
v 0.444809 0.542763 -0.196226
v 0.444809 0.542763 -0.064072
v 0.444809 0.542763 -0.066077
v 0.444809 0.542763 0.066077
v 0.444809 0.542763 0.064072
v 0.444809 0.542763 0.196226
v 0.444809 0.542763 0.194221
v 0.444809 0.542763 0.326375
v 0.444809 0.542763 0.324370
v -0.000000 0.824008 -0.196226
v -0.000000 0.828035 -0.199688
v -0.000000 0.824008 -0.066077
v -0.000000 0.828035 -0.069539
v -0.000000 0.828035 0.069539
v -0.000000 0.824008 0.066077
v -0.000000 0.824008 0.194221
v -0.000000 0.828035 0.190759
v 0.454058 0.557998 -0.199688
v 0.452262 0.555039 -0.196226
v 0.454058 0.557998 -0.069539
v 0.452262 0.555039 -0.066077
v 0.452262 0.555039 0.066077
v 0.454058 0.557998 0.069539
v 0.454058 0.557998 0.190759
v 0.452262 0.555039 0.194221
v -0.454058 0.557998 -0.455522
v -0.454058 0.557998 0.455522
v -0.444809 0.542763 0.455522
v -0.444809 0.542763 -0.455522
v -0.454058 0.557998 -0.326375
v -0.454058 0.557998 -0.324370
v -0.454058 0.557998 -0.194221
v -0.454058 0.557998 -0.064072
v -0.454058 0.557998 0.064072
v -0.454058 0.557998 0.196226
v -0.454058 0.557998 0.324370
v -0.454058 0.557998 0.326375
v -0.444809 0.542763 -0.324370
v -0.444809 0.542763 -0.326375
v -0.444809 0.542763 -0.194221
v -0.444809 0.542763 -0.196226
v -0.444809 0.542763 -0.064072
v -0.444809 0.542763 -0.066077
v -0.444809 0.542763 0.066077
v -0.444809 0.542763 0.064072
v -0.444809 0.542763 0.196226
v -0.444809 0.542763 0.194221
v -0.444809 0.542763 0.326375
v -0.444809 0.542763 0.324370
v -0.454058 0.557998 -0.199688
v -0.452262 0.555039 -0.196226
v -0.454058 0.557998 -0.069539
v -0.452262 0.555039 -0.066077
v -0.452262 0.555039 0.066077
v -0.454058 0.557998 0.069539
v -0.454058 0.557998 0.190759
v -0.452262 0.555039 0.194221
v -0.393108 0.000000 0.444664
v 0.393108 0.000000 0.444664
v -0.393108 0.000000 -0.444664
v 0.393108 0.000000 -0.444664
v -0.393108 0.036169 0.444664
v 0.393108 0.036169 0.444664
v -0.393108 0.036169 -0.444664
v 0.393108 0.036169 -0.444664
v 0.475781 0.554640 0.455522
v 0.461974 0.532342 0.455522
v -0.000000 0.811755 0.455522
v -0.000000 0.835098 0.455522
v -0.000000 0.812800 0.470042
v 0.461974 0.532342 0.470042
v -0.000000 0.835098 0.470042
v 0.475781 0.554640 0.470042
v -0.475781 0.554640 0.455522
v -0.461974 0.532342 0.455522
v -0.461974 0.532342 0.470042
v -0.475781 0.554640 0.470042
v -0.171699 0.587179 0.438150
v 0.170614 0.587179 0.438150
v -0.171699 0.702698 0.438150
v 0.170614 0.702698 0.438150
v -0.171699 0.702698 0.451351
v -0.171699 0.587179 0.451351
v 0.170614 0.587179 0.451351
v 0.170614 0.702698 0.451351
v -0.012790 0.796946 -0.477554
v 0.012790 0.796946 -0.477554
v -0.012790 0.837783 -0.477554
v 0.012790 0.837783 -0.477554
v -0.012790 0.837783 0.477554
v -0.012790 0.796946 0.477554
v 0.012790 0.796946 0.477554
v 0.012790 0.837783 0.477554
vn -0.0000 -0.0000 -1.0000
vn -0.0000 -1.0000 -0.0000
vn -0.0000 -0.0000 1.0000
vn -0.0000 1.0000 -0.0000
vn 0.9365 -0.3506 -0.0000
vn -0.9365 -0.3506 -0.0000
vn 1.0000 -0.0000 -0.0000
vn -1.0000 -0.0000 -0.0000
vn -0.4166 -0.9091 -0.0000
vn 0.4166 -0.9091 -0.0000
vn -0.0000 -0.7071 0.7071
vn -0.0000 0.7071 0.7071
vn -0.0000 -0.7071 -0.7071
vn -0.0000 0.7071 -0.7071
vn 0.7071 -0.7071 -0.0000
vn 0.7071 0.7071 -0.0000
vn -0.7071 0.7071 -0.0000
vn -0.7071 -0.7071 -0.0000
vn -0.5189 -0.8548 -0.0000
vn 0.8548 -0.5189 -0.0000
vn 0.5112 0.8595 -0.0000
vn 0.3614 0.6078 0.7071
vn 0.3614 0.6077 -0.7071
vn 0.5189 -0.8548 -0.0000
vn -0.8548 -0.5189 -0.0000
vn -0.5112 0.8595 -0.0000
vn -0.3614 0.6077 0.7071
vn -0.3614 0.6077 -0.7071
vn 0.5078 0.8615 -0.0000
vn 0.8502 -0.5264 -0.0000
vn -0.5180 -0.8532 0.0614
vn -0.5078 0.8615 -0.0000
vn -0.8502 -0.5264 -0.0000
vn 0.5175 -0.8557 -0.0000
vn 0.3614 0.6077 0.7071
vn 0.3614 0.6078 -0.7071
vn -0.3614 0.6078 0.7071
vn -0.3614 0.6078 -0.7071
vn -0.5175 -0.8557 -0.0000
vn 0.5180 -0.8532 0.0614
vt 0.582742 0.947193
vt 0.586994 0.954670
vt 0.583564 0.954670
vt 0.587815 0.947193
vt 0.585279 0.962669
vt 0.586115 0.962669
vt 0.585279 0.970276
vt 0.588573 0.939194
vt 0.581985 0.931537
vt 0.588573 0.931537
vt 0.601693 0.912883
vt 0.600161 0.917373
vt 0.601200 0.917373
vt 0.583885 0.871422
vt 0.586673 0.871422
vt 0.602659 0.865535
vt 0.598702 0.870135
vt 0.598702 0.865535
vt 0.601518 0.865535
vt 0.602663 0.870135
vt 0.602663 0.865535
vt 0.586673 0.884023
vt 0.588579 0.891681
vt 0.588579 0.884023
vt 0.586673 0.899600
vt 0.588579 0.899600
vt 0.586673 0.899861
vt 0.588579 0.907519
vt 0.588579 0.899861
vt 0.586673 0.892386
vt 0.588579 0.899156
vt 0.588579 0.892386
vt 0.586569 0.923357
vt 0.588579 0.923357
vt 0.586563 0.923618
vt 0.586401 0.930093
vt 0.588579 0.931275
vt 0.581985 0.891942
vt 0.588573 0.891942
vt 0.588573 0.915438
vt 0.581985 0.915438
vt 0.602659 0.879805
vt 0.598702 0.884404
vt 0.598702 0.879805
vt 0.588573 0.915699
vt 0.581985 0.923357
vt 0.581985 0.915699
vt 0.599667 0.912883
vt 0.584443 0.962669
vt 0.609850 0.898248
vt 0.610570 0.902843
vt 0.608893 0.902843
vt 0.588666 0.939455
vt 0.582714 0.946932
vt 0.581892 0.939455
vt 0.581985 0.884023
vt 0.588573 0.884023
vt 0.602221 0.908078
vt 0.598646 0.903587
vt 0.599140 0.908078
vt 0.581985 0.939194
vt 0.588573 0.891681
vt 0.581985 0.891681
vt 0.586673 0.891942
vt 0.588579 0.891942
vt 0.602663 0.884561
vt 0.601518 0.889161
vt 0.601518 0.884561
vt 0.586673 0.919213
vt 0.581985 0.899600
vt 0.588573 0.907780
vt 0.581985 0.907780
vt 0.598702 0.898414
vt 0.602659 0.894074
vt 0.598702 0.894074
vt 0.602659 0.898674
vt 0.598702 0.898674
vt 0.581985 0.875843
vt 0.588573 0.868055
vt 0.581985 0.868055
vt 0.587844 0.946932
vt 0.609613 0.898248
vt 0.588573 0.875843
vt 0.586673 0.875843
vt 0.588579 0.875843
vt 0.601518 0.870135
vt 0.586673 0.891681
vt 0.586673 0.907519
vt 0.602663 0.889161
vt 0.586229 0.931275
vt 0.583885 0.876104
vt 0.581981 0.876104
vt 0.583885 0.908224
vt 0.581981 0.914994
vt 0.583885 0.914994
vt 0.583885 0.891942
vt 0.581981 0.891942
vt 0.599843 0.879805
vt 0.598700 0.879805
vt 0.583885 0.915438
vt 0.581981 0.915438
vt 0.599843 0.889318
vt 0.598700 0.889318
vt 0.583995 0.923618
vt 0.581981 0.923618
vt 0.609499 0.895185
vt 0.608893 0.895185
vt 0.581985 0.875382
vt 0.588573 0.884485
vt 0.581985 0.884485
vt 0.598702 0.869875
vt 0.588573 0.892404
vt 0.581985 0.892404
vt 0.581985 0.891248
vt 0.588573 0.899600
vt 0.602659 0.884404
vt 0.588573 0.916131
vt 0.581985 0.916131
vt 0.581985 0.914976
vt 0.588573 0.923357
vt 0.598702 0.898396
vt 0.582791 0.947637
vt 0.587043 0.954226
vt 0.587767 0.947637
vt 0.586580 0.922913
vt 0.588579 0.868055
vt 0.581981 0.868055
vt 0.599905 0.893917
vt 0.598700 0.893917
vt 0.584329 0.931275
vt 0.581981 0.931275
vt 0.599843 0.874892
vt 0.598700 0.870292
vt 0.599843 0.870292
vt 0.583885 0.899600
vt 0.581981 0.899600
vt 0.584157 0.930093
vt 0.599843 0.891428
vt 0.583885 0.907780
vt 0.581981 0.907780
vt 0.601518 0.884828
vt 0.586673 0.915699
vt 0.598700 0.884404
vt 0.599843 0.884404
vt 0.583885 0.883762
vt 0.581981 0.883762
vt 0.599843 0.870559
vt 0.609963 0.895185
vt 0.610570 0.895185
vt 0.588579 0.915699
vt 0.598700 0.874892
vt 0.588579 0.923618
vt 0.602663 0.884828
vt 0.583885 0.875843
vt 0.581981 0.875843
vt 0.588579 0.922913
vt 0.586673 0.899156
vt 0.602715 0.903587
vt 0.583515 0.954226
vt 0.598700 0.870559
vt 0.581981 0.908224
vt 0.598676 0.903864
vt 0.602684 0.903864
vt 0.588573 0.875382
vt 0.588573 0.914976
vt 0.602659 0.898396
vt 0.602659 0.870135
vt 0.600640 0.899600
vt 0.600779 0.899600
vt 0.585393 0.864587
vt 0.585393 0.875802
vt 0.585393 0.864587
vt 0.600604 0.858618
vt 0.600604 0.865354
vt 0.600604 0.858618
vt 0.585152 0.876178
vt 0.585152 0.887205
vt 0.600640 0.872429
vt 0.600779 0.872429
vt 0.600640 0.872429
vt 0.585152 0.898985
vt 0.585152 0.910012
vt 0.585152 0.898985
vt 0.585152 0.910388
vt 0.585152 0.921415
vt 0.600640 0.892977
vt 0.600779 0.892977
vt 0.585152 0.933194
vt 0.585152 0.944221
vt 0.585333 0.898609
vt 0.585103 0.898609
vt 0.600713 0.892751
vt 0.600574 0.892751
vt 0.585393 0.898985
vt 0.585393 0.910012
vt 0.585393 0.898985
vt 0.585333 0.932818
vt 0.585103 0.932818
vt 0.600713 0.906676
vt 0.600574 0.906676
vt 0.600749 0.899826
vt 0.600749 0.906450
vt 0.585393 0.956001
vt 0.585393 0.967216
vt 0.585152 0.956001
vt 0.585152 0.967216
vt 0.600779 0.913299
vt 0.600779 0.906676
vt 0.585103 0.875802
vt 0.585103 0.864587
vt 0.585103 0.864587
vt 0.600779 0.865354
vt 0.600779 0.858618
vt 0.600779 0.858618
vt 0.585443 0.887205
vt 0.585443 0.876178
vt 0.600779 0.879052
vt 0.600779 0.872429
vt 0.585443 0.910012
vt 0.585443 0.898985
vt 0.585443 0.898985
vt 0.585443 0.921415
vt 0.585443 0.910388
vt 0.585443 0.944221
vt 0.585443 0.933194
vt 0.600574 0.872203
vt 0.600574 0.865580
vt 0.585103 0.887582
vt 0.585103 0.887581
vt 0.585103 0.910012
vt 0.585103 0.898985
vt 0.585103 0.898985
vt 0.600574 0.886128
vt 0.585103 0.921791
vt 0.600574 0.906450
vt 0.600574 0.899826
vt 0.600574 0.913299
vt 0.585103 0.967216
vt 0.585103 0.956001
vt 0.585443 0.967216
vt 0.585443 0.956001
vt 0.600713 0.872203
vt 0.600604 0.872976
vt 0.600604 0.878506
vt 0.600640 0.879052
vt 0.600604 0.893524
vt 0.600604 0.899054
vt 0.600604 0.906676
vt 0.600604 0.912752
vt 0.600749 0.865580
vt 0.585393 0.887581
vt 0.585393 0.887582
vt 0.600749 0.871657
vt 0.585393 0.897698
vt 0.600749 0.886128
vt 0.585393 0.921791
vt 0.600749 0.892204
vt 0.585393 0.931908
vt 0.600749 0.907222
vt 0.600749 0.913299
vt 0.600604 0.878506
vt 0.600640 0.913299
vt 0.585393 0.897699
vt 0.091554 0.919419
vt 0.094111 0.970005
vt 0.091554 0.971479
vt 0.094111 0.919419
vt 0.092712 0.919419
vt 0.090155 0.970005
vt 0.090155 0.919419
vt 0.092712 0.971479
vt 0.205947 0.585280
vt 0.208582 0.540866
vt 0.220287 0.571290
vt 0.222921 0.526876
vt 0.226582 0.562025
vt 0.229272 0.520117
vt 0.229217 0.517612
vt 0.222976 0.529382
vt 0.220287 0.573796
vt 0.222976 0.529382
vt 0.208582 0.540866
vt 0.208637 0.543372
vt 0.214877 0.531601
vt 0.214932 0.534107
vt 0.212242 0.576015
vt 0.226582 0.564531
vt 0.214922 0.533621
vt 0.222966 0.528895
vt 0.220287 0.573133
vt 0.220287 0.573796
vt 0.205947 0.587786
vt 0.212242 0.578521
vt 0.205947 0.587123
vt 0.208626 0.542885
vt 0.212242 0.577859
vt 0.203312 0.540866
vt 0.217597 0.529382
vt 0.217652 0.526876
vt 0.223892 0.520117
vt 0.223947 0.517612
vt 0.223892 0.520117
vt 0.223903 0.519631
vt 0.203257 0.543372
vt 0.203312 0.540866
vt 0.226582 0.564531
vt 0.217607 0.528895
vt 0.226582 0.563869
vt 0.203268 0.542885
vt 0.598795 0.807457
vt 0.605698 0.807457
vt 0.588731 0.863294
vt 0.588731 0.868055
vt 0.581827 0.863294
vt 0.581827 0.868055
vt 0.117381 0.982040
vt 0.115903 0.915961
vt 0.115946 0.910231
vt 0.117381 0.982309
vt 0.117381 0.988039
vt 0.118860 0.915961
vt 0.118817 0.910231
vt 0.318473 0.986208
vt 0.319362 0.936964
vt 0.318473 0.936964
vt 0.319362 0.986208
vt 0.091446 0.978033
vt 0.092627 0.926449
vt 0.091446 0.926449
vt 0.092627 0.978033
vt 0.602659 0.898414
vt 0.602659 0.869875
vt 0.588573 0.891248
s 0
usemtl Texture_Map
f 76/1/1 72/2/1 77/3/1
f 269/4/2 156/1/2 268/1/2
f 81/5/1 69/6/1 6/7/1
f 7/8/1 49/9/1 48/10/1
f 65/11/3 61/12/3 66/13/3
f 212/14/4 250/15/4 217/14/4
f 38/16/1 58/17/1 59/18/1
f 247/19/3 34/20/3 37/21/3
f 243/22/3 33/23/3 35/24/3
f 281/25/4 120/26/4 262/26/4
f 231/27/3 31/28/3 32/29/3
f 285/30/3 261/31/3 264/32/3
f 273/33/4 114/34/4 258/34/4
f 194/35/3 193/36/3 26/37/3
f 305/38/2 131/39/2 296/39/2
f 297/40/4 143/41/4 304/41/4
f 41/42/1 53/43/1 56/44/1
f 45/45/1 50/46/1 52/47/1
f 78/48/1 70/13/1 79/12/1
f 68/5/3 60/49/3 5/7/3
f 184/50/1 90/51/1 93/52/1
f 91/53/1 157/54/1 92/55/1
f 67/6/3 68/5/3 5/7/3
f 307/56/2 130/57/2 294/57/2
f 170/58/3 95/59/3 171/60/3
f 80/49/1 81/5/1 6/7/1
f 168/2/3 172/1/3 173/3/3
f 155/3/1 159/4/1 160/2/1
f 177/5/3 87/7/3 165/6/3
f 89/8/3 140/9/3 94/61/3
f 161/11/1 153/12/1 154/48/1
f 40/62/4 323/63/4 57/63/4
f 124/20/1 248/19/1 127/21/1
f 122/23/1 241/22/1 125/24/1
f 120/26/1 239/64/1 123/65/1
f 118/28/1 230/27/1 121/29/1
f 119/66/1 229/67/1 236/68/1
f 114/34/1 196/33/1 197/69/1
f 112/37/1 188/36/1 195/35/1
f 52/47/2 315/45/2 45/45/2
f 146/70/3 131/39/3 148/38/3
f 144/43/3 132/42/3 147/44/3
f 143/41/3 134/71/3 145/72/3
f 320/73/3 137/74/3 142/75/3
f 299/76/4 319/77/4 302/77/4
f 174/48/3 166/13/3 167/11/3
f 164/5/1 86/7/1 152/49/1
f 11/52/4 90/51/4 8/51/4
f 9/53/2 92/55/2 10/55/2
f 163/6/1 86/7/1 164/5/1
f 150/78/3 84/79/3 85/80/3
f 176/49/3 87/7/3 177/5/3
f 7/8/4 94/61/4 12/61/4
f 63/54/4 158/81/4 64/81/4
f 184/50/2 187/82/2 185/50/2
f 59/18/2 128/16/2 38/16/2
f 291/83/4 150/78/4 310/78/4
f 246/84/4 126/85/4 36/85/4
f 240/86/4 124/20/4 34/20/4
f 242/87/4 122/23/4 33/23/4
f 286/64/2 123/65/2 239/64/2
f 233/88/4 118/28/4 31/28/4
f 232/67/4 116/89/4 29/89/4
f 284/68/2 119/66/2 236/68/2
f 192/90/4 112/37/4 26/37/4
f 216/91/2 96/92/2 13/92/2
f 278/93/3 256/94/3 279/95/3
f 214/96/2 100/97/2 16/97/2
f 225/98/2 102/99/2 18/99/2
f 280/100/4 107/101/4 218/100/4
f 219/102/2 106/103/2 21/103/2
f 199/104/2 108/105/2 22/105/2
f 181/106/2 110/107/2 24/107/2
f 3/79/1 309/108/1 4/80/1
f 293/109/1 57/63/1 308/110/1
f 326/111/3 128/16/3 151/18/3
f 295/112/1 55/70/1 306/113/1
f 324/114/3 130/57/3 149/56/3
f 56/44/2 132/42/2 41/42/2
f 42/115/4 146/70/4 55/70/4
f 54/72/2 134/71/2 43/71/2
f 44/116/4 144/43/4 53/43/4
f 141/46/3 316/117/3 321/118/3
f 43/71/1 303/119/1 54/72/1
f 51/75/2 137/74/2 46/74/2
f 47/120/4 141/46/4 50/46/4
f 49/9/2 139/10/2 48/10/2
f 46/74/1 301/121/1 51/75/1
f 74/58/4 171/60/4 75/60/4
f 267/122/3 271/123/3 270/124/3
f 196/33/5 273/33/5 274/125/5
f 61/12/4 162/13/4 66/13/4
f 65/11/2 154/48/2 62/48/2
f 67/6/2 164/5/2 68/5/2
f 68/5/2 152/49/2 60/49/2
f 1/126/3 2/127/3 250/15/3
f 72/2/4 173/3/4 77/3/4
f 76/1/2 169/4/2 73/4/2
f 70/13/4 175/12/4 79/12/4
f 78/48/2 167/11/2 71/11/2
f 80/49/2 177/5/2 81/5/2
f 81/5/2 165/6/2 69/6/2
f 200/128/4 109/129/4 202/128/4
f 178/130/4 111/131/4 179/130/4
f 208/132/1 98/133/1 206/134/1
f 223/135/4 103/136/4 226/135/4
f 183/137/6 201/104/6 199/104/6
f 204/138/6 202/128/6 203/138/6
f 277/139/2 104/140/2 254/140/2
f 238/86/7 247/19/7 248/19/7
f 244/87/7 243/22/7 241/22/7
f 229/67/7 232/67/7 283/141/7
f 198/69/7 235/142/7 197/69/7
f 231/27/7 234/88/7 233/88/7
f 249/15/7 246/84/7 250/15/7
f 225/98/3 20/143/3 224/144/3
f 215/145/4 99/146/4 213/145/4
f 182/137/1 179/130/1 111/131/1
f 193/36/5 195/35/5 188/36/5
f 276/147/8 208/132/8 206/134/8
f 204/138/3 21/103/3 23/129/3
f 249/15/1 212/14/1 83/127/1
f 191/148/2 113/149/2 190/148/2
f 222/144/1 102/99/1 227/98/1
f 265/3/4 160/2/4 272/2/4
f 237/142/2 117/150/2 235/142/2
f 205/96/1 103/136/1 100/97/1
f 207/132/4 101/151/4 208/132/4
f 203/138/1 109/129/1 106/103/1
f 194/35/2 115/152/2 195/35/2
f 247/19/2 127/21/2 248/19/2
f 260/153/3 232/67/3 29/89/3
f 275/134/2 98/133/2 252/133/2
f 224/144/4 105/143/4 222/144/4
f 243/22/2 125/24/2 241/22/2
f 186/82/9 181/106/9 187/82/9
f 183/137/9 179/130/9 182/137/9
f 185/50/10 190/148/10 184/50/10
f 193/36/10 189/90/10 192/90/10
f 216/91/3 15/146/3 215/145/3
f 9/53/3 63/54/3 64/81/3
f 214/96/3 19/136/3 223/135/3
f 210/154/4 97/155/4 211/154/4
f 231/27/2 121/29/2 230/27/2
f 209/91/1 99/146/1 96/92/1
f 198/69/3 274/125/3 257/156/3
f 215/145/8 209/91/8 216/91/8
f 220/139/8 279/95/8 218/100/8
f 223/135/8 205/96/8 214/96/8
f 282/157/7 285/30/7 228/25/7
f 204/138/8 221/102/8 219/102/8
f 227/98/8 224/144/8 222/144/8
f 217/14/8 211/154/8 212/14/8
f 218/100/1 104/140/1 220/139/1
f 199/104/3 22/105/3 25/131/3
f 289/59/2 88/158/2 288/158/2
f 8/51/3 191/148/3 185/50/3
f 264/32/11 286/64/11 285/30/11
f 260/153/11 284/68/11 283/141/11
f 256/94/12 280/100/12 279/95/12
f 270/124/11 268/1/11 267/122/11
f 266/159/12 272/2/12 271/123/12
f 282/157/12 262/26/12 261/31/12
f 274/125/12 258/34/12 257/156/12
f 276/147/11 252/133/11 251/160/11
f 278/93/11 254/140/11 253/161/11
f 276/147/3 17/151/3 207/132/3
f 290/162/13 288/158/13 287/163/13
f 292/164/14 310/78/14 309/108/14
f 308/110/13 294/57/13 293/109/13
f 306/113/13 296/39/13 295/112/13
f 298/165/14 304/41/14 303/119/14
f 300/166/14 302/77/14 301/121/14
f 287/163/1 75/60/1 290/162/1
f 312/167/12 326/111/12 325/17/12
f 314/62/12 324/114/12 323/63/12
f 322/47/11 316/117/11 315/45/11
f 318/76/12 320/73/12 319/77/12
f 39/167/4 325/17/4 58/17/4
f 453/168/4 413/169/4 468/168/4
f 327/170/8 357/171/8 329/172/8
f 330/173/7 346/174/7 328/175/7
f 344/176/7 348/177/7 347/176/7
f 461/178/2 399/179/2 460/180/2
f 342/181/7 350/182/7 349/183/7
f 340/184/7 352/185/7 351/184/7
f 465/186/2 393/187/2 456/186/2
f 338/188/7 354/189/7 353/188/7
f 487/190/4 423/191/4 474/190/4
f 485/192/4 427/193/4 476/192/4
f 375/194/8 361/195/8 360/196/8
f 483/197/4 429/198/4 478/197/4
f 479/199/2 437/200/2 482/199/2
f 371/201/8 365/202/8 364/201/8
f 368/203/8 331/204/8 367/203/8
f 335/205/7 333/206/7 356/205/7
f 417/207/8 389/208/8 416/208/8
f 419/209/7 379/210/7 381/211/7
f 403/212/8 382/213/8 380/214/8
f 405/215/8 401/216/8 404/216/8
f 407/217/8 399/179/8 406/218/8
f 409/219/8 397/220/8 408/221/8
f 411/222/8 395/223/8 410/223/8
f 413/169/8 393/187/8 412/187/8
f 415/224/8 391/225/8 414/225/8
f 421/226/7 449/227/7 420/227/7
f 423/191/7 447/228/7 422/229/7
f 425/230/7 445/231/7 424/232/7
f 427/193/7 443/233/7 426/233/7
f 429/198/7 441/234/7 428/234/7
f 431/235/7 439/236/7 430/236/7
f 433/237/7 437/200/7 432/200/7
f 383/238/7 435/239/7 434/239/7
f 385/240/8 387/241/8 418/241/8
f 332/204/4 383/238/4 331/204/4
f 334/206/4 385/240/4 333/206/4
f 347/176/2 401/216/2 344/176/2
f 345/174/4 403/212/4 346/174/4
f 489/242/4 421/226/4 472/242/4
f 343/177/4 405/215/4 348/177/4
f 349/183/2 397/220/2 342/181/2
f 459/243/7 463/244/7 462/243/7
f 351/184/2 395/223/2 340/184/2
f 341/182/4 409/219/4 350/182/4
f 457/245/4 407/217/4 464/245/4
f 339/185/4 411/222/4 352/185/4
f 353/188/2 391/225/2 338/188/2
f 455/246/7 467/247/7 466/246/7
f 355/248/2 389/208/2 336/248/2
f 337/189/4 415/224/4 354/189/4
f 356/205/2 387/241/2 335/205/2
f 336/248/7 469/249/7 355/248/7
f 358/250/2 449/227/2 377/250/2
f 378/171/4 419/209/4 357/171/4
f 359/251/2 447/228/2 376/252/2
f 377/250/8 471/253/8 358/250/8
f 360/196/2 445/231/2 375/194/2
f 376/252/8 473/254/8 359/251/8
f 362/255/2 443/233/2 373/255/2
f 374/195/4 425/230/4 361/195/4
f 363/256/2 441/234/2 372/256/2
f 373/255/8 475/257/8 362/255/8
f 364/201/2 439/236/2 371/201/2
f 372/256/8 477/258/8 363/256/8
f 481/259/8 366/260/8 480/259/8
f 370/202/4 431/235/4 365/202/4
f 367/203/2 435/239/2 368/203/2
f 369/260/4 433/237/4 366/260/4
f 462/243/15 460/180/15 459/243/15
f 458/261/16 464/245/16 463/244/16
f 466/246/15 456/186/15 455/246/15
f 454/247/16 468/168/16 467/247/16
f 452/249/16 470/262/16 469/249/16
f 490/253/17 472/242/17 471/253/17
f 488/263/17 474/190/17 473/254/17
f 486/257/17 476/192/17 475/257/17
f 484/258/17 478/197/17 477/258/17
f 480/259/18 482/199/18 481/259/18
f 451/262/4 417/207/4 470/262/4
f 491/264/3 497/265/3 496/266/3
f 494/267/7 497/265/7 492/267/7
f 491/264/8 495/266/8 493/264/8
f 493/264/1 498/265/1 494/267/1
f 499/268/3 505/269/3 500/270/3
f 505/269/8 502/270/8 500/270/8
f 503/271/7 499/268/7 501/268/7
f 506/269/1 501/268/1 502/270/1
f 507/264/1 513/265/1 508/267/1
f 513/265/7 510/267/7 508/267/7
f 511/266/8 507/264/8 509/264/8
f 514/265/3 509/264/3 510/267/3
f 515/268/1 521/269/1 520/271/1
f 518/270/8 521/269/8 516/270/8
f 515/268/7 519/271/7 517/268/7
f 517/268/3 522/269/3 518/270/3
f 539/272/19 562/273/19 542/272/19
f 543/274/19 566/275/19 546/274/19
f 528/276/1 523/277/1 526/278/1
f 527/274/3 524/279/3 529/280/3
f 584/281/20 585/279/20 565/275/20
f 567/282/20 557/283/20 570/282/20
f 569/275/20 524/279/20 525/275/20
f 561/284/20 553/285/20 581/285/20
f 558/279/21 529/280/21 524/279/21
f 545/274/19 568/275/19 548/274/19
f 528/276/19 560/278/19 540/276/19
f 547/272/19 570/282/19 550/272/19
f 549/274/19 525/275/19 527/274/19
f 526/278/20 551/277/20 560/278/20
f 541/286/19 564/284/19 544/286/19
f 563/275/20 555/281/20 566/275/20
f 523/277/21 531/287/21 551/277/21
f 582/288/3 544/286/3 564/284/3
f 583/289/1 545/274/1 576/290/1
f 554/281/21 535/291/21 555/281/21
f 586/289/3 548/274/3 568/275/3
f 556/283/21 537/292/21 557/283/21
f 558/279/1 549/274/1 538/291/1
f 557/283/3 550/272/3 570/282/3
f 556/283/1 547/272/1 536/292/1
f 559/273/20 552/283/20 579/283/20
f 584/281/21 578/291/21 585/279/21
f 555/281/3 546/274/3 566/275/3
f 554/281/1 543/274/1 534/291/1
f 553/285/21 574/293/21 581/285/21
f 553/285/1 541/286/1 533/293/1
f 552/283/21 572/292/21 579/283/21
f 552/283/1 539/272/1 532/292/1
f 551/277/3 540/276/3 560/278/3
f 579/283/22 571/294/22 580/295/22
f 581/285/22 573/296/22 582/288/22
f 584/281/23 576/290/23 575/291/23
f 585/279/22 577/290/22 586/289/22
f 580/295/3 542/272/3 562/273/3
f 602/297/24 539/272/24 542/272/24
f 606/297/24 543/272/24 546/272/24
f 587/298/1 528/274/1 590/299/1
f 527/276/3 588/300/3 589/301/3
f 616/302/25 615/303/25 605/301/25
f 597/304/25 607/305/25 610/305/25
f 588/300/25 609/301/25 589/301/25
f 613/298/25 593/298/25 601/299/25
f 529/306/26 598/300/26 588/300/26
f 608/301/24 545/276/24 548/276/24
f 600/299/24 528/274/24 540/274/24
f 610/305/24 547/272/24 550/272/24
f 589/301/24 549/276/24 527/276/24
f 591/298/25 590/299/25 600/299/25
f 604/299/24 541/274/24 544/274/24
f 595/304/25 603/297/25 606/297/25
f 531/291/26 587/298/26 591/298/26
f 544/274/3 614/307/3 604/299/3
f 615/303/1 545/276/1 605/301/1
f 535/292/26 594/304/26 595/304/26
f 548/276/3 618/303/3 608/301/3
f 537/292/26 596/304/26 597/304/26
f 598/300/1 549/276/1 609/301/1
f 550/272/3 597/304/3 610/305/3
f 596/304/1 547/272/1 607/305/1
f 611/304/25 592/304/25 599/297/25
f 578/287/26 616/302/26 617/300/26
f 546/272/3 595/304/3 606/297/3
f 594/304/1 543/272/1 603/297/1
f 574/291/26 593/298/26 613/298/26
f 593/298/1 541/274/1 601/299/1
f 572/292/26 592/304/26 611/304/26
f 592/304/1 539/272/1 599/297/1
f 540/274/3 591/298/3 600/299/3
f 611/304/27 571/294/27 572/292/27
f 613/298/27 573/290/27 574/291/27
f 576/308/28 616/302/28 575/287/28
f 617/300/27 577/308/27 578/287/27
f 542/272/3 612/309/3 602/297/3
f 624/310/4 625/311/4 623/311/4
f 619/312/8 625/313/8 621/312/8
f 622/314/7 624/315/7 620/314/7
f 620/314/3 623/313/3 619/312/3
f 621/312/1 626/315/1 622/314/1
f 629/316/1 627/317/1 628/318/1
f 631/319/3 634/317/3 633/320/3
f 630/320/29 634/317/29 627/317/29
f 627/317/30 632/318/30 628/318/30
f 629/316/31 632/318/31 631/319/31
f 629/316/1 635/321/1 630/320/1
f 631/319/3 638/321/3 637/322/3
f 638/321/32 630/320/32 635/321/32
f 637/322/33 635/321/33 636/322/33
f 629/316/34 637/322/34 636/322/34
f 641/323/1 640/324/1 639/325/1
f 645/324/3 643/323/3 644/325/3
f 640/324/2 644/325/2 639/325/2
f 642/326/7 645/324/7 640/324/7
f 639/325/8 643/323/8 641/323/8
f 641/323/4 646/326/4 642/326/4
f 649/327/1 648/328/1 647/329/1
f 653/328/3 651/327/3 652/329/3
f 650/330/7 653/328/7 648/328/7
f 647/329/8 651/327/8 649/327/8
f 649/327/4 654/330/4 650/330/4
f 648/328/2 652/329/2 647/329/2
f 76/1/1 73/4/1 72/2/1
f 269/4/2 159/4/2 156/1/2
f 7/8/1 12/61/1 49/9/1
f 65/11/3 62/48/3 61/12/3
f 212/14/4 249/15/4 250/15/4
f 38/16/1 39/167/1 58/17/1
f 247/19/3 240/86/3 34/20/3
f 243/22/3 242/87/3 33/23/3
f 281/25/4 228/25/4 120/26/4
f 231/27/3 233/88/3 31/28/3
f 285/30/3 282/157/3 261/31/3
f 273/33/4 196/33/4 114/34/4
f 26/37/3 28/152/3 194/35/3
f 193/36/3 192/90/3 26/37/3
f 305/38/2 148/38/2 131/39/2
f 297/40/4 136/40/4 143/41/4
f 41/42/1 44/116/1 53/43/1
f 45/45/1 47/120/1 50/46/1
f 78/48/1 71/11/1 70/13/1
f 110/107/1 180/106/1 93/52/1
f 180/106/1 186/82/1 93/52/1
f 184/50/1 190/148/1 90/51/1
f 190/148/1 113/149/1 90/51/1
f 93/52/1 186/82/1 184/50/1
f 91/53/1 158/81/1 157/54/1
f 307/56/2 149/56/2 130/57/2
f 170/58/3 88/158/3 95/59/3
f 168/2/3 169/4/3 172/1/3
f 155/3/1 156/1/1 159/4/1
f 89/8/3 139/10/3 140/9/3
f 161/11/1 162/13/1 153/12/1
f 40/62/4 314/62/4 323/63/4
f 124/20/1 238/86/1 248/19/1
f 122/23/1 244/87/1 241/22/1
f 120/26/1 228/25/1 239/64/1
f 118/28/1 234/88/1 230/27/1
f 119/66/1 116/89/1 229/67/1
f 235/142/1 117/150/1 197/69/1
f 117/150/1 114/34/1 197/69/1
f 195/35/1 115/152/1 112/37/1
f 112/37/1 189/90/1 188/36/1
f 52/47/2 322/47/2 315/45/2
f 146/70/3 133/115/3 131/39/3
f 144/43/3 135/116/3 132/42/3
f 143/41/3 136/40/3 134/71/3
f 320/73/3 317/331/3 137/74/3
f 299/76/4 318/76/4 319/77/4
f 174/48/3 175/12/3 166/13/3
f 11/52/4 93/52/4 90/51/4
f 9/53/2 91/53/2 92/55/2
f 150/78/3 129/83/3 84/79/3
f 7/8/4 89/8/4 94/61/4
f 63/54/4 157/54/4 158/81/4
f 184/50/2 186/82/2 187/82/2
f 59/18/2 151/18/2 128/16/2
f 291/83/4 129/83/4 150/78/4
f 246/84/4 245/84/4 126/85/4
f 240/86/4 238/86/4 124/20/4
f 242/87/4 244/87/4 122/23/4
f 286/64/2 263/65/2 123/65/2
f 233/88/4 234/88/4 118/28/4
f 232/67/4 229/67/4 116/89/4
f 284/68/2 259/66/2 119/66/2
f 192/90/4 189/90/4 112/37/4
f 216/91/2 209/91/2 96/92/2
f 278/93/3 253/161/3 256/94/3
f 214/96/2 205/96/2 100/97/2
f 225/98/2 227/98/2 102/99/2
f 280/100/4 255/101/4 107/101/4
f 219/102/2 221/102/2 106/103/2
f 199/104/2 201/104/2 108/105/2
f 181/106/2 180/106/2 110/107/2
f 3/79/1 292/164/1 309/108/1
f 293/109/1 40/62/1 57/63/1
f 326/111/3 311/332/3 128/16/3
f 295/112/1 42/115/1 55/70/1
f 324/114/3 313/333/3 130/57/3
f 56/44/2 147/44/2 132/42/2
f 42/115/4 133/115/4 146/70/4
f 54/72/2 145/72/2 134/71/2
f 44/116/4 135/116/4 144/43/4
f 141/46/3 138/120/3 316/117/3
f 43/71/1 298/165/1 303/119/1
f 51/75/2 142/75/2 137/74/2
f 47/120/4 138/120/4 141/46/4
f 49/9/2 140/9/2 139/10/2
f 46/74/1 300/166/1 301/121/1
f 74/58/4 170/58/4 171/60/4
f 267/122/3 266/159/3 271/123/3
f 274/125/5 198/69/5 197/69/5
f 197/69/5 196/33/5 274/125/5
f 61/12/4 153/12/4 162/13/4
f 65/11/2 161/11/2 154/48/2
f 67/6/2 163/6/2 164/5/2
f 68/5/2 164/5/2 152/49/2
f 2/127/3 14/155/3 217/14/3
f 14/155/3 210/154/3 217/14/3
f 246/84/3 36/85/3 250/15/3
f 36/85/3 1/126/3 250/15/3
f 2/127/3 217/14/3 250/15/3
f 72/2/4 168/2/4 173/3/4
f 76/1/2 172/1/2 169/4/2
f 70/13/4 166/13/4 175/12/4
f 78/48/2 174/48/2 167/11/2
f 80/49/2 176/49/2 177/5/2
f 81/5/2 177/5/2 165/6/2
f 200/128/4 23/129/4 109/129/4
f 178/130/4 25/131/4 111/131/4
f 208/132/1 101/151/1 98/133/1
f 223/135/4 19/136/4 103/136/4
f 183/137/6 182/137/6 201/104/6
f 204/138/6 200/128/6 202/128/6
f 277/139/2 220/139/2 104/140/2
f 238/86/7 240/86/7 247/19/7
f 244/87/7 242/87/7 243/22/7
f 284/68/7 236/68/7 283/141/7
f 236/68/7 229/67/7 283/141/7
f 198/69/7 237/142/7 235/142/7
f 231/27/7 230/27/7 234/88/7
f 249/15/7 245/84/7 246/84/7
f 225/98/3 18/99/3 20/143/3
f 215/145/4 15/146/4 99/146/4
f 108/105/1 201/104/1 111/131/1
f 201/104/1 182/137/1 111/131/1
f 193/36/5 194/35/5 195/35/5
f 206/134/8 275/134/8 276/147/8
f 276/147/8 207/132/8 208/132/8
f 23/129/3 200/128/3 204/138/3
f 204/138/3 219/102/3 21/103/3
f 82/126/1 126/85/1 249/15/1
f 126/85/1 245/84/1 249/15/1
f 211/154/1 97/155/1 212/14/1
f 97/155/1 83/127/1 212/14/1
f 82/126/1 249/15/1 83/127/1
f 191/148/2 27/149/2 113/149/2
f 222/144/1 105/143/1 102/99/1
f 265/3/4 155/3/4 160/2/4
f 237/142/2 30/150/2 117/150/2
f 205/96/1 226/135/1 103/136/1
f 207/132/4 17/151/4 101/151/4
f 106/103/1 221/102/1 203/138/1
f 203/138/1 202/128/1 109/129/1
f 194/35/2 28/152/2 115/152/2
f 247/19/2 37/21/2 127/21/2
f 260/153/3 283/141/3 232/67/3
f 275/134/2 206/134/2 98/133/2
f 224/144/4 20/143/4 105/143/4
f 243/22/2 35/24/2 125/24/2
f 186/82/9 180/106/9 181/106/9
f 183/137/9 178/130/9 179/130/9
f 185/50/10 191/148/10 190/148/10
f 193/36/10 188/36/10 189/90/10
f 216/91/3 13/92/3 15/146/3
f 9/53/3 10/55/3 63/54/3
f 214/96/3 16/97/3 19/136/3
f 210/154/4 14/155/4 97/155/4
f 231/27/2 32/29/2 121/29/2
f 209/91/1 213/145/1 99/146/1
f 257/156/3 30/150/3 198/69/3
f 30/150/3 237/142/3 198/69/3
f 215/145/8 213/145/8 209/91/8
f 220/139/8 277/139/8 278/93/8
f 278/93/8 279/95/8 220/139/8
f 279/95/8 280/100/8 218/100/8
f 223/135/8 226/135/8 205/96/8
f 286/64/7 239/64/7 285/30/7
f 239/64/7 228/25/7 285/30/7
f 228/25/7 281/25/7 282/157/7
f 204/138/8 203/138/8 221/102/8
f 227/98/8 225/98/8 224/144/8
f 217/14/8 210/154/8 211/154/8
f 218/100/1 107/101/1 104/140/1
f 25/131/3 178/130/3 183/137/3
f 183/137/3 199/104/3 25/131/3
f 289/59/2 95/59/2 88/158/2
f 187/82/3 181/106/3 11/52/3
f 181/106/3 24/107/3 11/52/3
f 11/52/3 8/51/3 185/50/3
f 187/82/3 11/52/3 185/50/3
f 8/51/3 27/149/3 191/148/3
f 264/32/11 263/65/11 286/64/11
f 260/153/11 259/66/11 284/68/11
f 256/94/12 255/101/12 280/100/12
f 270/124/11 269/4/11 268/1/11
f 266/159/12 265/3/12 272/2/12
f 282/157/12 281/25/12 262/26/12
f 274/125/12 273/33/12 258/34/12
f 276/147/11 275/134/11 252/133/11
f 278/93/11 277/139/11 254/140/11
f 276/147/3 251/160/3 17/151/3
f 290/162/13 289/59/13 288/158/13
f 292/164/14 291/83/14 310/78/14
f 308/110/13 307/56/13 294/57/13
f 306/113/13 305/38/13 296/39/13
f 298/165/14 297/40/14 304/41/14
f 300/166/14 299/76/14 302/77/14
f 287/163/1 74/58/1 75/60/1
f 312/167/12 311/332/12 326/111/12
f 314/62/12 313/333/12 324/114/12
f 322/47/11 321/118/11 316/117/11
f 318/76/12 317/331/12 320/73/12
f 39/167/4 312/167/4 325/17/4
f 453/168/4 392/169/4 413/169/4
f 327/170/8 378/171/8 357/171/8
f 330/173/7 345/174/7 346/174/7
f 344/176/7 343/177/7 348/177/7
f 461/178/2 406/218/2 399/179/2
f 342/181/7 341/182/7 350/182/7
f 340/184/7 339/185/7 352/185/7
f 465/186/2 412/187/2 393/187/2
f 338/188/7 337/189/7 354/189/7
f 487/190/4 446/191/4 423/191/4
f 485/192/4 442/193/4 427/193/4
f 375/194/8 374/195/8 361/195/8
f 483/197/4 440/198/4 429/198/4
f 479/199/2 432/200/2 437/200/2
f 371/201/8 370/202/8 365/202/8
f 368/203/8 332/204/8 331/204/8
f 335/205/7 334/206/7 333/206/7
f 417/207/8 388/207/8 389/208/8
f 419/209/7 450/209/7 379/210/7
f 403/212/8 402/212/8 382/213/8
f 405/215/8 400/215/8 401/216/8
f 407/217/8 398/217/8 399/179/8
f 409/219/8 396/219/8 397/220/8
f 411/222/8 394/222/8 395/223/8
f 413/169/8 392/169/8 393/187/8
f 415/224/8 390/224/8 391/225/8
f 421/226/7 448/226/7 449/227/7
f 423/191/7 446/191/7 447/228/7
f 425/230/7 444/230/7 445/231/7
f 427/193/7 442/193/7 443/233/7
f 429/198/7 440/198/7 441/234/7
f 431/235/7 438/235/7 439/236/7
f 433/237/7 436/237/7 437/200/7
f 383/238/7 384/238/7 435/239/7
f 385/240/8 386/240/8 387/241/8
f 332/204/4 384/238/4 383/238/4
f 334/206/4 386/240/4 385/240/4
f 347/176/2 404/216/2 401/216/2
f 345/174/4 402/212/4 403/212/4
f 489/242/4 448/226/4 421/226/4
f 343/177/4 400/215/4 405/215/4
f 349/183/2 408/221/2 397/220/2
f 459/243/7 458/261/7 463/244/7
f 351/184/2 410/223/2 395/223/2
f 341/182/4 396/219/4 409/219/4
f 457/245/4 398/217/4 407/217/4
f 339/185/4 394/222/4 411/222/4
f 353/188/2 414/225/2 391/225/2
f 455/246/7 454/247/7 467/247/7
f 355/248/2 416/208/2 389/208/2
f 337/189/4 390/224/4 415/224/4
f 356/205/2 418/241/2 387/241/2
f 336/248/7 452/249/7 469/249/7
f 358/250/2 420/227/2 449/227/2
f 378/171/4 450/209/4 419/209/4
f 359/251/2 422/229/2 447/228/2
f 377/250/8 490/253/8 471/253/8
f 360/196/2 424/232/2 445/231/2
f 376/252/8 488/263/8 473/254/8
f 362/255/2 426/233/2 443/233/2
f 374/195/4 444/230/4 425/230/4
f 363/256/2 428/234/2 441/234/2
f 373/255/8 486/257/8 475/257/8
f 364/201/2 430/236/2 439/236/2
f 372/256/8 484/258/8 477/258/8
f 481/259/8 369/260/8 366/260/8
f 370/202/4 438/235/4 431/235/4
f 367/203/2 434/239/2 435/239/2
f 369/260/4 436/237/4 433/237/4
f 462/243/15 461/178/15 460/180/15
f 458/261/16 457/245/16 464/245/16
f 466/246/15 465/186/15 456/186/15
f 454/247/16 453/168/16 468/168/16
f 452/249/16 451/262/16 470/262/16
f 490/253/17 489/242/17 472/242/17
f 488/263/17 487/190/17 474/190/17
f 486/257/17 485/192/17 476/192/17
f 484/258/17 483/197/17 478/197/17
f 480/259/18 479/199/18 482/199/18
f 451/262/4 388/207/4 417/207/4
f 491/264/3 492/267/3 497/265/3
f 494/267/7 498/265/7 497/265/7
f 491/264/8 496/266/8 495/266/8
f 493/264/1 495/266/1 498/265/1
f 499/268/3 504/271/3 505/269/3
f 505/269/8 506/269/8 502/270/8
f 503/271/7 504/271/7 499/268/7
f 506/269/1 503/271/1 501/268/1
f 507/264/1 512/266/1 513/265/1
f 513/265/7 514/265/7 510/267/7
f 511/266/8 512/266/8 507/264/8
f 514/265/3 511/266/3 509/264/3
f 515/268/1 516/270/1 521/269/1
f 518/270/8 522/269/8 521/269/8
f 515/268/7 520/271/7 519/271/7
f 517/268/3 519/271/3 522/269/3
f 539/272/19 559/273/19 562/273/19
f 543/274/19 563/275/19 566/275/19
f 528/276/1 530/287/1 523/277/1
f 527/274/3 525/275/3 524/279/3
f 586/289/20 568/275/20 585/279/20
f 568/275/20 565/275/20 585/279/20
f 565/275/20 583/289/20 584/281/20
f 567/282/20 556/283/20 557/283/20
f 569/275/20 558/279/20 524/279/20
f 582/288/20 564/284/20 581/285/20
f 564/284/20 561/284/20 581/285/20
f 558/279/21 538/291/21 529/280/21
f 545/274/19 565/275/19 568/275/19
f 528/276/19 526/278/19 560/278/19
f 547/272/19 567/282/19 570/282/19
f 549/274/19 569/275/19 525/275/19
f 526/278/20 523/277/20 551/277/20
f 541/286/19 561/284/19 564/284/19
f 563/275/20 554/281/20 555/281/20
f 523/277/21 530/287/21 531/287/21
f 582/288/3 573/296/3 544/286/3
f 583/289/1 565/275/1 545/274/1
f 554/281/21 534/291/21 535/291/21
f 586/289/3 577/290/3 548/274/3
f 556/283/21 536/292/21 537/292/21
f 558/279/1 569/275/1 549/274/1
f 557/283/3 537/292/3 550/272/3
f 556/283/1 567/282/1 547/272/1
f 580/295/20 562/273/20 579/283/20
f 562/273/20 559/273/20 579/283/20
f 584/281/21 575/291/21 578/291/21
f 555/281/3 535/291/3 546/274/3
f 554/281/1 563/275/1 543/274/1
f 553/285/21 533/293/21 574/293/21
f 553/285/1 561/284/1 541/286/1
f 552/283/21 532/292/21 572/292/21
f 552/283/1 559/273/1 539/272/1
f 551/277/3 531/287/3 540/276/3
f 579/283/35 572/292/35 571/294/35
f 581/285/35 574/293/35 573/296/35
f 584/281/36 583/289/36 576/290/36
f 585/279/35 578/291/35 577/290/35
f 580/295/3 571/294/3 542/272/3
f 602/297/24 599/297/24 539/272/24
f 606/297/24 603/297/24 543/272/24
f 587/298/1 530/291/1 528/274/1
f 527/276/3 529/306/3 588/300/3
f 605/301/25 608/301/25 617/300/25
f 608/301/25 618/303/25 617/300/25
f 617/300/25 616/302/25 605/301/25
f 597/304/25 596/304/25 607/305/25
f 588/300/25 598/300/25 609/301/25
f 601/299/25 604/299/25 613/298/25
f 604/299/25 614/307/25 613/298/25
f 529/306/26 538/287/26 598/300/26
f 608/301/24 605/301/24 545/276/24
f 600/299/24 590/299/24 528/274/24
f 610/305/24 607/305/24 547/272/24
f 589/301/24 609/301/24 549/276/24
f 591/298/25 587/298/25 590/299/25
f 604/299/24 601/299/24 541/274/24
f 595/304/25 594/304/25 603/297/25
f 531/291/26 530/291/26 587/298/26
f 544/274/3 573/290/3 614/307/3
f 615/303/1 576/308/1 545/276/1
f 535/292/26 534/292/26 594/304/26
f 548/276/3 577/308/3 618/303/3
f 537/292/26 536/292/26 596/304/26
f 598/300/1 538/287/1 549/276/1
f 550/272/3 537/292/3 597/304/3
f 596/304/1 536/292/1 547/272/1
f 599/297/25 602/297/25 611/304/25
f 602/297/25 612/309/25 611/304/25
f 578/287/26 575/287/26 616/302/26
f 546/272/3 535/292/3 595/304/3
f 594/304/1 534/292/1 543/272/1
f 574/291/26 533/291/26 593/298/26
f 593/298/1 533/291/1 541/274/1
f 572/292/26 532/292/26 592/304/26
f 592/304/1 532/292/1 539/272/1
f 540/274/3 531/291/3 591/298/3
f 611/304/37 612/309/37 571/294/37
f 613/298/37 614/307/37 573/290/37
f 576/308/38 615/303/38 616/302/38
f 617/300/37 618/303/37 577/308/37
f 542/272/3 571/294/3 612/309/3
f 624/310/4 626/310/4 625/311/4
f 619/312/8 623/313/8 625/313/8
f 622/314/7 626/315/7 624/315/7
f 620/314/3 624/315/3 623/313/3
f 621/312/1 625/313/1 626/315/1
f 629/316/1 630/320/1 627/317/1
f 631/319/3 632/318/3 634/317/3
f 630/320/29 633/320/29 634/317/29
f 627/317/30 634/317/30 632/318/30
f 629/316/39 628/318/39 632/318/39
f 629/316/1 636/322/1 635/321/1
f 631/319/3 633/320/3 638/321/3
f 638/321/32 633/320/32 630/320/32
f 637/322/33 638/321/33 635/321/33
f 629/316/40 631/319/40 637/322/40
f 641/323/1 642/326/1 640/324/1
f 645/324/3 646/326/3 643/323/3
f 640/324/2 645/324/2 644/325/2
f 642/326/7 646/326/7 645/324/7
f 639/325/8 644/325/8 643/323/8
f 641/323/4 643/323/4 646/326/4
f 649/327/1 650/330/1 648/328/1
f 653/328/3 654/330/3 651/327/3
f 650/330/7 654/330/7 653/328/7
f 647/329/8 652/329/8 651/327/8
f 649/327/4 651/327/4 654/330/4
f 648/328/2 653/328/2 652/329/2
