# Blender 4.4.0
# www.blender.org
mtllib Bld_Farm_Sign_01.mtl
o Bld_Farm_Sign_01
v -0.472346 0.596275 0.024500
v 0.472346 0.596275 0.024500
v -0.472346 1.335016 0.024500
v 0.472346 1.335016 0.024500
v -0.296791 0.614574 0.024500
v 0.296791 0.614574 0.024500
v 0.278492 1.316718 0.024500
v -0.278492 1.316718 0.024500
v 0.174826 1.504260 0.024500
v 0.278492 1.389753 0.024500
v 0.247778 1.471106 0.024500
v -0.174825 1.504260 0.024500
v -0.278492 1.389753 0.024500
v -0.247778 1.471106 0.024500
v -0.472346 0.596275 -0.024500
v 0.472346 0.596275 -0.024500
v -0.472346 1.335016 -0.024500
v 0.472346 1.335016 -0.024500
v -0.296791 0.614574 -0.024500
v 0.296791 0.614574 -0.024500
v 0.278492 1.316718 -0.024500
v -0.278492 1.316718 -0.024500
v 0.174826 1.504260 -0.024500
v 0.278492 1.389753 -0.024500
v 0.247778 1.471106 -0.024500
v -0.174825 1.504260 -0.024500
v -0.278492 1.389753 -0.024500
v -0.247778 1.471106 -0.024500
v -0.454047 1.316718 0.024500
v -0.454047 0.614574 0.024500
v 0.296791 0.596275 0.024500
v 0.454047 1.316718 0.024500
v 0.454047 0.614574 0.024500
v -0.296791 1.335016 0.024500
v -0.296791 0.596275 0.024500
v 0.296791 1.335016 0.024500
v 0.178789 1.522559 0.024500
v 0.262229 1.484639 0.024500
v 0.296791 1.393092 0.024500
v -0.178788 1.522559 0.024500
v -0.262229 1.484639 0.024500
v -0.296791 1.393092 0.024500
v -0.454047 1.316718 -0.024500
v -0.454047 0.614574 -0.024500
v 0.296791 0.596275 -0.024500
v 0.454047 1.316718 -0.024500
v 0.454047 0.614574 -0.024500
v -0.296791 1.335016 -0.024500
v -0.296791 0.596275 -0.024500
v 0.296791 1.335016 -0.024500
v 0.178789 1.522559 -0.024500
v 0.262229 1.484639 -0.024500
v 0.296791 1.393092 -0.024500
v -0.178788 1.522559 -0.024500
v -0.262229 1.484639 -0.024500
v -0.296791 1.393092 -0.024500
v -0.454047 1.316718 0.012550
v -0.454047 0.614574 0.012550
v 0.454047 0.614574 0.012550
v 0.454047 1.316718 0.012550
v -0.454047 1.316718 -0.012550
v -0.454047 0.614574 -0.012550
v 0.454047 0.614574 -0.012550
v 0.454047 1.316718 -0.012550
v 0.296791 0.614574 0.012550
v -0.278492 1.316718 0.012550
v -0.296791 0.614574 0.012550
v 0.278492 1.316718 0.012550
v 0.174826 1.504260 0.012550
v 0.247778 1.471106 0.012550
v 0.278492 1.389753 0.012550
v -0.174825 1.504260 0.012550
v -0.247778 1.471106 0.012550
v -0.278492 1.389753 0.012550
v 0.296791 0.614574 -0.012550
v -0.278492 1.316718 -0.012550
v -0.296791 0.614574 -0.012550
v 0.278492 1.316718 -0.012550
v 0.174826 1.504260 -0.012550
v 0.247778 1.471106 -0.012550
v 0.278492 1.389753 -0.012550
v -0.174825 1.504260 -0.012550
v -0.247778 1.471106 -0.012550
v -0.278492 1.389753 -0.012550
v 0.455203 1.372467 -0.090194
v 0.455203 1.372467 0.090194
v 0.635590 1.372467 0.090194
v 0.635590 1.372467 -0.090194
v 0.455203 1.407738 -0.090194
v 0.455203 1.407738 0.090194
v 0.635590 1.407738 0.090194
v 0.635590 1.407738 -0.090194
v 0.472346 -0.000000 0.073050
v 0.618447 -0.000000 0.073050
v 0.472346 0.000000 -0.073050
v 0.618447 0.000000 -0.073050
v 0.472346 1.372467 -0.073050
v 0.472346 1.372467 0.073050
v 0.618447 1.372467 0.073050
v 0.618447 1.372467 -0.073050
v -0.455203 1.372467 -0.090194
v -0.455203 1.372467 0.090194
v -0.635590 1.372467 0.090194
v -0.635590 1.372467 -0.090194
v -0.455203 1.407738 -0.090194
v -0.455203 1.407738 0.090194
v -0.635590 1.407738 0.090194
v -0.635590 1.407738 -0.090194
v -0.472346 -0.000000 0.073050
v -0.618447 -0.000000 0.073050
v -0.472346 0.000000 -0.073050
v -0.618447 0.000000 -0.073050
v -0.472346 1.372467 -0.073050
v -0.472346 1.372467 0.073050
v -0.618447 1.372467 0.073050
v -0.618447 1.372467 -0.073050
vn -0.9355 -0.3532 -0.0000
vn -0.4137 -0.9104 -0.0000
vn -0.0000 -1.0000 -0.0000
vn -0.0000 1.0000 -0.0000
vn 0.4137 0.9104 -0.0000
vn 0.9355 0.3532 -0.0000
vn -0.4137 0.9104 -0.0000
vn -0.9355 0.3532 -0.0000
vn 1.0000 -0.0000 -0.0000
vn -1.0000 -0.0000 -0.0000
vn -0.0000 -0.0000 1.0000
vn -0.0000 -0.0000 -1.0000
vn 0.4137 -0.9104 -0.0000
vn 0.9355 -0.3532 -0.0000
vt 0.464498 0.704130
vt 0.464565 0.700953
vt 0.464340 0.705425
vt 0.464604 0.669966
vt 0.464984 0.669966
vt 0.463320 0.698816
vt 0.462940 0.698816
vt 0.462940 0.669966
vt 0.463320 0.669966
vt 0.464984 0.698816
vt 0.464604 0.698816
vt 0.464530 0.704659
vt 0.464349 0.706140
vt 0.464604 0.701084
vt 0.463575 0.706140
vt 0.463394 0.704659
vt 0.463320 0.701084
vt 0.462979 0.670681
vt 0.464945 0.670681
vt 0.464945 0.698101
vt 0.462979 0.698101
vt 0.463320 0.670681
vt 0.464604 0.670681
vt 0.464565 0.698101
vt 0.463426 0.704130
vt 0.463359 0.700953
vt 0.463584 0.705425
vt 0.463359 0.698101
vt 0.201716 0.963897
vt 0.201796 0.984673
vt 0.202148 0.963897
vt 0.202163 0.886113
vt 0.605787 0.808164
vt 0.606495 0.808164
vt 0.606495 0.823751
vt 0.605787 0.823751
vt 0.571599 0.813200
vt 0.572172 0.879547
vt 0.572172 0.813200
vt 0.571599 0.879547
vt 0.605707 0.808164
vt 0.606415 0.808164
vt 0.606415 0.823751
vt 0.605707 0.823751
vt 0.571519 0.879547
vt 0.572093 0.813200
vt 0.571519 0.813200
vt 0.572093 0.879547
vt 0.202285 0.963897
vt 0.202285 0.886113
vt 0.201701 0.886113
vt 0.201579 0.886113
vt 0.201579 0.963897
vt 0.201716 0.971988
vt 0.201739 0.981000
vt 0.202125 0.981000
vt 0.202148 0.971988
vt 0.202068 0.984673
s 0
usemtl Texture_Map
f 11/1/1 71/2/1 10/2/1
f 25/1/2 79/3/2 23/3/2
f 31/4/3 16/5/3 2/5/3
f 34/6/4 17/7/4 3/7/4
f 1/8/3 49/9/3 35/9/3
f 35/9/3 45/4/3 31/4/3
f 4/10/4 50/11/4 36/11/4
f 38/12/5 51/13/5 37/13/5
f 39/14/6 52/12/6 38/12/6
f 40/15/7 55/16/7 41/16/7
f 41/16/8 56/17/8 42/17/8
f 37/13/4 54/15/4 40/15/4
f 36/11/9 53/14/9 39/14/9
f 42/17/10 48/6/10 34/6/10
f 30/18/11 3/7/11 1/8/11
f 33/19/11 31/4/11 2/5/11
f 33/19/11 4/10/11 32/20/11
f 29/21/11 34/6/11 3/7/11
f 30/18/11 35/9/11 5/22/11
f 5/22/11 31/4/11 6/23/11
f 32/20/11 36/11/11 7/24/11
f 11/1/11 37/13/11 9/3/11
f 11/1/11 39/14/11 38/12/11
f 14/25/11 40/15/11 41/16/11
f 14/25/11 42/17/11 13/26/11
f 9/3/11 40/15/11 12/27/11
f 10/2/11 36/11/11 39/14/11
f 13/26/11 34/6/11 8/28/11
f 44/18/12 17/7/12 43/21/12
f 47/19/12 45/4/12 20/23/12
f 47/19/12 18/10/12 16/5/12
f 43/21/12 48/6/12 22/28/12
f 44/18/12 49/9/12 15/8/12
f 20/23/12 49/9/12 19/22/12
f 46/20/12 50/11/12 18/10/12
f 25/1/12 51/13/12 52/12/12
f 25/1/12 53/14/12 24/2/12
f 28/25/12 54/15/12 26/27/12
f 28/25/12 56/17/12 55/16/12
f 26/27/12 51/13/12 23/3/12
f 24/2/12 50/11/12 21/24/12
f 27/26/12 48/6/12 56/17/12
f 68/29/11 69/30/11 66/31/11
f 77/32/12 76/31/12 78/29/12
f 24/2/1 80/1/1 25/1/1
f 14/25/13 72/27/13 12/27/13
f 26/27/13 83/25/13 28/25/13
f 13/26/14 73/25/14 14/25/14
f 28/25/14 84/26/14 27/26/14
f 12/27/3 69/3/3 9/3/3
f 23/3/3 82/27/3 26/27/3
f 30/18/9 57/21/9 29/21/9
f 10/2/10 68/24/10 7/24/10
f 43/21/9 62/18/9 44/18/9
f 21/24/10 81/2/10 24/2/10
f 8/28/9 74/26/9 13/26/9
f 27/26/9 76/28/9 22/28/9
f 32/20/10 59/19/10 33/19/10
f 47/19/10 64/20/10 46/20/10
f 33/19/4 65/23/4 6/23/4
f 20/23/4 63/19/4 47/19/4
f 29/21/3 66/28/3 8/28/3
f 22/28/3 61/21/3 43/21/3
f 5/22/4 58/18/4 30/18/4
f 44/18/4 77/22/4 19/22/4
f 6/23/4 67/22/4 5/22/4
f 19/22/4 75/23/4 20/23/4
f 7/24/3 60/20/3 32/20/3
f 46/20/3 78/24/3 21/24/3
f 9/3/2 70/1/2 11/1/2
f 85/33/3 87/34/3 86/33/3
f 91/35/4 89/36/4 90/36/4
f 88/34/9 91/35/9 87/34/9
f 86/33/10 89/36/10 85/33/10
f 85/33/12 92/35/12 88/34/12
f 87/34/11 90/36/11 86/33/11
f 95/37/12 100/38/12 96/39/12
f 94/39/11 98/40/11 93/37/11
f 96/39/9 99/38/9 94/39/9
f 93/37/10 97/40/10 95/37/10
f 103/41/3 101/42/3 102/42/3
f 105/43/4 107/44/4 106/43/4
f 107/44/10 104/41/10 103/41/10
f 105/43/9 102/42/9 101/42/9
f 108/44/12 101/42/12 104/41/12
f 106/43/11 103/41/11 102/42/11
f 116/45/12 111/46/12 112/47/12
f 114/48/11 110/47/11 109/46/11
f 115/45/10 112/47/10 110/47/10
f 113/48/9 109/46/9 111/46/9
f 11/1/1 70/1/1 71/2/1
f 25/1/2 80/1/2 79/3/2
f 31/4/3 45/4/3 16/5/3
f 34/6/4 48/6/4 17/7/4
f 1/8/3 15/8/3 49/9/3
f 35/9/3 49/9/3 45/4/3
f 4/10/4 18/10/4 50/11/4
f 38/12/5 52/12/5 51/13/5
f 39/14/6 53/14/6 52/12/6
f 40/15/7 54/15/7 55/16/7
f 41/16/8 55/16/8 56/17/8
f 37/13/4 51/13/4 54/15/4
f 36/11/9 50/11/9 53/14/9
f 42/17/10 56/17/10 48/6/10
f 30/18/11 29/21/11 3/7/11
f 33/19/11 6/23/11 31/4/11
f 33/19/11 2/5/11 4/10/11
f 29/21/11 8/28/11 34/6/11
f 30/18/11 1/8/11 35/9/11
f 5/22/11 35/9/11 31/4/11
f 32/20/11 4/10/11 36/11/11
f 11/1/11 38/12/11 37/13/11
f 11/1/11 10/2/11 39/14/11
f 14/25/11 12/27/11 40/15/11
f 14/25/11 41/16/11 42/17/11
f 9/3/11 37/13/11 40/15/11
f 10/2/11 7/24/11 36/11/11
f 13/26/11 42/17/11 34/6/11
f 44/18/12 15/8/12 17/7/12
f 47/19/12 16/5/12 45/4/12
f 47/19/12 46/20/12 18/10/12
f 43/21/12 17/7/12 48/6/12
f 44/18/12 19/22/12 49/9/12
f 20/23/12 45/4/12 49/9/12
f 46/20/12 21/24/12 50/11/12
f 25/1/12 23/3/12 51/13/12
f 25/1/12 52/12/12 53/14/12
f 28/25/12 55/16/12 54/15/12
f 28/25/12 27/26/12 56/17/12
f 26/27/12 54/15/12 51/13/12
f 24/2/12 53/14/12 50/11/12
f 27/26/12 22/28/12 48/6/12
f 66/31/11 57/49/11 67/32/11
f 57/49/11 58/50/11 67/32/11
f 67/32/11 65/51/11 66/31/11
f 65/51/11 59/52/11 60/53/11
f 68/29/11 71/54/11 69/30/11
f 71/54/11 70/55/11 69/30/11
f 65/51/11 60/53/11 68/29/11
f 73/56/11 74/57/11 72/58/11
f 74/57/11 66/31/11 72/58/11
f 69/30/11 72/58/11 66/31/11
f 66/31/11 65/51/11 68/29/11
f 62/50/12 61/49/12 77/32/12
f 61/49/12 76/31/12 77/32/12
f 76/31/12 84/57/12 82/58/12
f 84/57/12 83/56/12 82/58/12
f 82/58/12 79/30/12 76/31/12
f 79/30/12 80/55/12 81/54/12
f 78/29/12 64/53/12 75/51/12
f 64/53/12 63/52/12 75/51/12
f 79/30/12 81/54/12 78/29/12
f 75/51/12 77/32/12 78/29/12
f 79/30/12 78/29/12 76/31/12
f 24/2/1 81/2/1 80/1/1
f 14/25/13 73/25/13 72/27/13
f 26/27/13 82/27/13 83/25/13
f 13/26/14 74/26/14 73/25/14
f 28/25/14 83/25/14 84/26/14
f 12/27/3 72/27/3 69/3/3
f 23/3/3 79/3/3 82/27/3
f 30/18/9 58/18/9 57/21/9
f 10/2/10 71/2/10 68/24/10
f 43/21/9 61/21/9 62/18/9
f 21/24/10 78/24/10 81/2/10
f 8/28/9 66/28/9 74/26/9
f 27/26/9 84/26/9 76/28/9
f 32/20/10 60/20/10 59/19/10
f 47/19/10 63/19/10 64/20/10
f 33/19/4 59/19/4 65/23/4
f 20/23/4 75/23/4 63/19/4
f 29/21/3 57/21/3 66/28/3
f 22/28/3 76/28/3 61/21/3
f 5/22/4 67/22/4 58/18/4
f 44/18/4 62/18/4 77/22/4
f 6/23/4 65/23/4 67/22/4
f 19/22/4 77/22/4 75/23/4
f 7/24/3 68/24/3 60/20/3
f 46/20/3 64/20/3 78/24/3
f 9/3/2 69/3/2 70/1/2
f 85/33/3 88/34/3 87/34/3
f 91/35/4 92/35/4 89/36/4
f 88/34/9 92/35/9 91/35/9
f 86/33/10 90/36/10 89/36/10
f 85/33/12 89/36/12 92/35/12
f 87/34/11 91/35/11 90/36/11
f 95/37/12 97/40/12 100/38/12
f 94/39/11 99/38/11 98/40/11
f 96/39/9 100/38/9 99/38/9
f 93/37/10 98/40/10 97/40/10
f 103/41/3 104/41/3 101/42/3
f 105/43/4 108/44/4 107/44/4
f 107/44/10 108/44/10 104/41/10
f 105/43/9 106/43/9 102/42/9
f 108/44/12 105/43/12 101/42/12
f 106/43/11 107/44/11 103/41/11
f 116/45/12 113/48/12 111/46/12
f 114/48/11 115/45/11 110/47/11
f 115/45/10 116/45/10 112/47/10
f 113/48/9 114/48/9 109/46/9
