# Blender 4.4.0
# www.blender.org
mtllib Bld_Beehive_04.mtl
o Bld_Beehive_04
v -0.526389 0.117955 0.530573
v 0.526388 0.117955 0.530573
v -0.526389 0.117955 -0.530575
v 0.526388 0.117955 -0.530575
v -0.526389 0.078695 -0.530575
v -0.526389 0.078695 0.530573
v 0.526388 0.078695 0.530573
v 0.526388 0.078695 -0.530575
v -0.526389 0.117955 -0.352296
v -0.526389 0.117955 -0.178280
v -0.526389 0.117955 0.001420
v -0.526389 0.117955 0.175436
v -0.526389 0.117955 0.355136
v -0.526389 0.117955 0.352294
v 0.526388 0.117955 0.352294
v 0.526388 0.117955 0.355136
v 0.526388 0.117955 0.175436
v 0.526388 0.117955 0.001420
v 0.526388 0.117955 -0.178280
v 0.526388 0.117955 -0.352296
v -0.526389 0.078695 -0.355138
v -0.526389 0.078695 -0.352296
v -0.526389 0.078695 -0.178280
v -0.526389 0.078695 -0.175438
v -0.526389 0.078695 -0.001422
v -0.526389 0.078695 0.001420
v -0.526389 0.078695 0.175436
v -0.526389 0.078695 0.178278
v -0.526389 0.078695 0.352294
v -0.526389 0.078695 0.355136
v 0.526388 0.078695 0.355136
v 0.526388 0.078695 0.352294
v 0.526388 0.078695 0.178278
v 0.526388 0.078695 0.175436
v 0.526388 0.078695 0.001420
v 0.526388 0.078695 -0.001422
v 0.526388 0.078695 -0.175438
v 0.526388 0.078695 -0.178280
v 0.526388 0.078695 -0.352296
v 0.526388 0.078695 -0.355138
v 0.449550 0.078695 0.527849
v 0.498359 0.000000 0.527849
v 0.449550 0.078695 -0.527850
v 0.498359 0.078695 -0.527850
v 0.498359 0.000000 -0.527850
v 0.498359 0.078695 0.527849
v 0.449550 0.000000 -0.527850
v 0.449550 0.000000 0.527849
v -0.498359 0.078695 0.527849
v -0.449549 0.000000 0.527849
v -0.498359 0.078695 -0.527850
v -0.449549 0.078695 -0.527850
v -0.449549 0.000000 -0.527850
v -0.449549 0.078695 0.527849
v -0.498359 0.000000 -0.527850
v -0.498359 0.000000 0.527849
v -0.297176 0.146923 0.455631
v 0.297177 0.146923 0.455631
v -0.297176 0.146923 -0.455632
v 0.297177 0.146923 -0.455632
v -0.297176 0.128390 -0.455632
v -0.297176 0.128390 0.455631
v 0.297177 0.128390 0.455631
v 0.297177 0.128390 -0.455632
v 0.297177 0.149810 0.478952
v 0.297177 0.149810 -0.455632
v 0.297177 0.117955 0.478952
v 0.297177 0.117955 -0.455632
v 0.310213 0.149810 0.478952
v 0.310213 0.117955 0.478952
v 0.310213 0.117955 -0.455632
v -0.297177 0.149810 0.478952
v -0.297177 0.149810 -0.455632
v -0.297177 0.117955 0.478952
v -0.297177 0.117955 -0.455632
v -0.310213 0.149810 0.478952
v -0.310213 0.117955 0.478952
v -0.310213 0.117955 -0.455632
v 0.310213 0.874672 -0.455632
v 0.310213 0.926295 0.343623
v 0.270793 0.926295 0.343623
v -0.270793 0.926295 -0.455632
v -0.270792 0.977917 -0.455632
v -0.270792 1.029539 -0.455632
v 0.310213 0.874672 0.343623
v 0.310213 0.874672 0.304203
v -0.310213 0.874672 0.343623
v 0.270793 0.977917 -0.455632
v 0.310213 0.874672 -0.416212
v -0.310213 0.977917 -0.455632
v 0.270793 0.926295 -0.455632
v -0.310213 0.874672 -0.416212
v -0.310213 0.874672 0.304203
v -0.310213 0.874672 -0.455632
v -0.310213 0.926295 -0.455632
v 0.337704 1.081161 -0.491047
v -0.337705 1.081161 0.379037
v -0.337705 1.148099 -0.491047
v -0.337705 1.081161 -0.491047
v -0.337705 1.148099 0.379038
v 0.337704 1.148099 0.379038
v 0.337704 1.148099 -0.491047
v 0.337704 1.081161 0.379038
v 0.310213 0.511166 -0.455632
v 0.270793 0.356299 0.343623
v 0.310213 0.511166 0.304203
v 0.310213 0.459544 0.343623
v 0.310213 0.407921 0.343623
v 0.310213 0.459544 0.304203
v -0.310213 0.511166 0.343623
v -0.310213 0.356299 0.343623
v 0.270793 0.407921 -0.455632
v 0.310213 0.459544 -0.455632
v 0.310213 0.253055 -0.455632
v 0.310213 0.459544 -0.416212
v 0.310213 0.253055 -0.416212
v -0.310213 0.459544 -0.455632
v -0.310213 0.149810 -0.416212
v -0.310213 0.407921 -0.416212
v 0.310213 0.149810 0.304203
v 0.310213 0.407921 0.304203
v 0.310213 0.356299 0.343623
v 0.310213 0.304677 -0.455632
v 0.310213 0.356299 -0.455632
v -0.310213 0.253055 -0.455632
v -0.310213 0.356299 -0.455632
v 0.270793 0.407921 0.343623
v -0.270793 0.253055 0.343623
v -0.270792 0.201433 -0.455632
v -0.270792 0.304677 -0.455632
v -0.270792 0.459544 -0.455632
v 0.310213 0.201433 0.304203
v 0.310213 0.304677 0.343623
v -0.310213 0.201433 0.343623
v -0.310213 0.201433 0.304203
v 0.270793 0.304677 -0.455632
v 0.310213 0.201433 -0.455632
v 0.310213 0.407921 -0.455632
v 0.310213 0.407921 -0.416212
v -0.310213 0.201433 -0.455632
v -0.310213 0.407921 -0.455632
v 0.270793 0.459544 0.343623
v 0.270793 0.304677 0.343623
v 0.270793 0.253055 0.343623
v 0.270793 0.459544 -0.455632
v -0.310213 0.253055 -0.416212
v -0.310213 0.459544 0.304203
v -0.310213 0.356299 0.304203
v -0.270792 0.459544 0.343623
v -0.270792 0.407921 -0.455632
v -0.310213 0.407921 0.304203
v -0.310213 0.511166 -0.416212
v -0.310213 0.304677 -0.416212
v -0.310213 0.304677 0.304203
v -0.310213 0.253055 0.304203
v 0.310213 0.512301 -0.455632
v 0.310213 0.873656 0.304203
v 0.310213 0.822034 0.343623
v 0.310213 0.770412 0.343623
v 0.310213 0.822034 0.304203
v -0.310213 0.873656 0.343623
v -0.310213 0.667167 0.343623
v -0.310213 0.563923 -0.416212
v 0.310213 0.512301 0.304203
v 0.310213 0.770412 0.304203
v -0.310213 0.822034 0.343623
v -0.270792 0.563923 0.343623
v -0.310213 0.615545 -0.455632
v 0.270793 0.770412 0.343623
v -0.270793 0.615545 0.343623
v -0.270792 0.667167 0.343623
v -0.310213 0.770412 0.343623
v -0.310213 0.563923 0.304203
v 0.270793 0.822034 0.343623
v 0.270793 0.667167 0.343623
v 0.270793 0.615545 0.343623
v -0.310213 0.615545 -0.416212
v -0.310213 0.822034 0.304203
v -0.310213 0.718789 0.304203
v -0.310213 0.615545 0.343623
v -0.270792 0.822034 0.343623
v -0.310213 0.770412 0.304203
v 0.310213 0.563923 -0.416212
v -0.310213 0.873656 0.304203
v -0.270793 1.081161 0.343623
v 0.270793 1.081161 0.343623
v 0.270793 0.977917 0.343623
v 0.310213 1.081161 0.343623
v 0.310213 1.081161 0.304203
v 0.310213 0.977917 0.343623
v -0.310213 1.081161 0.343623
v -0.310213 0.926295 0.343623
v -0.310213 0.977917 0.304203
v 0.270793 1.029539 0.343623
v -0.310213 1.081161 0.304203
v -0.270793 0.977917 0.343623
v -0.270793 0.926295 0.343623
v 0.270793 0.874672 0.343623
v -0.270793 1.029539 0.343623
v 0.090957 0.963819 0.343623
v 0.090957 1.001166 0.343623
v 0.090957 0.977917 0.343623
v 0.085583 0.950296 0.343623
v -0.090957 1.001166 0.343623
v -0.072610 0.944694 0.343623
v 0.072610 0.944694 0.343623
v -0.090957 0.963819 0.343623
v -0.090957 0.977917 0.343623
v -0.085583 0.950296 0.343623
v 0.090957 0.963819 0.330677
v 0.090957 1.001166 0.330677
v 0.090957 0.977917 0.330677
v 0.085583 0.950296 0.330677
v -0.090957 1.001166 0.330677
v -0.072610 0.944694 0.330677
v 0.072610 0.944694 0.330677
v -0.090957 0.963819 0.330677
v -0.090957 0.977917 0.330677
v -0.085583 0.950296 0.330677
v 0.310213 1.029539 0.343623
v -0.310213 0.977917 0.343623
v 0.310213 0.926295 0.304203
v -0.310213 1.029539 0.304203
v -0.310213 1.029539 0.343623
v -0.270793 0.874672 0.343623
v 0.310213 1.029539 0.304203
v 0.310213 0.977917 0.304203
v -0.310213 0.926295 0.304203
v -0.270793 1.081161 -0.455632
v 0.270793 1.081161 -0.455632
v 0.310213 1.081161 -0.455632
v 0.310213 1.081161 -0.416212
v 0.310213 0.977917 -0.455632
v -0.310213 1.081161 -0.455632
v -0.310213 0.977917 -0.416212
v 0.310213 0.926295 -0.455632
v 0.270793 1.029539 -0.455632
v -0.310213 1.081161 -0.416212
v 0.270793 0.874672 -0.455632
v 0.090957 0.963819 -0.455632
v 0.090957 1.001166 -0.455632
v 0.090957 0.977917 -0.455632
v 0.085583 0.950296 -0.455632
v -0.090957 1.001166 -0.455632
v -0.072610 0.944694 -0.455632
v 0.072610 0.944694 -0.455632
v -0.090957 0.963819 -0.455632
v -0.090957 0.977917 -0.455632
v -0.085583 0.950296 -0.455632
v 0.090957 0.963819 -0.442686
v 0.090957 1.001166 -0.442686
v 0.090957 0.977917 -0.442686
v 0.085583 0.950296 -0.442686
v -0.090957 1.001166 -0.442686
v -0.072610 0.944694 -0.442686
v 0.072610 0.944694 -0.442686
v -0.090957 0.963819 -0.442686
v -0.090957 0.977917 -0.442686
v -0.085583 0.950296 -0.442686
v 0.310213 1.029539 -0.455632
v 0.310213 0.926295 -0.416212
v -0.310213 1.029539 -0.416212
v -0.310213 1.029539 -0.455632
v -0.270793 0.874672 -0.455632
v 0.310213 1.029539 -0.416212
v 0.310213 0.977917 -0.416212
v -0.310213 0.926295 -0.416212
v 0.310213 0.512301 0.343623
v -0.270793 0.512301 0.343623
v 0.270793 0.512301 0.343623
v -0.270793 0.873656 0.343623
v 0.270793 0.873656 0.343623
v 0.270793 0.718789 0.343623
v 0.310213 0.873656 0.343623
v 0.310213 0.667167 0.304203
v -0.310213 0.512301 0.343623
v -0.310213 0.718790 0.343623
v 0.310213 0.718789 0.304203
v 0.310213 0.718789 0.343623
v -0.270793 0.718790 0.343623
v 0.090957 0.756314 0.343623
v 0.090957 0.793661 0.343623
v 0.090957 0.770412 0.343623
v 0.085584 0.742791 0.343623
v -0.090957 0.793661 0.343623
v -0.072610 0.737189 0.343623
v 0.072610 0.737189 0.343623
v -0.090957 0.756314 0.343623
v -0.090957 0.770412 0.343623
v -0.085583 0.742791 0.343623
v 0.090957 0.756314 0.330677
v 0.090957 0.793661 0.330677
v 0.090957 0.770412 0.330677
v 0.085584 0.742791 0.330677
v -0.090957 0.793661 0.330677
v -0.072610 0.737189 0.330677
v 0.072610 0.737189 0.330677
v -0.090957 0.770412 0.330677
v -0.090957 0.756314 0.330677
v -0.085583 0.742791 0.330677
v 0.270793 0.563923 0.343623
v 0.310213 0.563923 0.304203
v 0.310213 0.667167 0.343623
v -0.310213 0.563923 0.343623
v 0.310213 0.615545 0.343623
v 0.310213 0.563923 0.343623
v -0.270792 0.770412 0.343623
v 0.310213 0.615545 0.304203
v -0.310213 0.512301 0.304203
v -0.310213 0.667167 0.304203
v -0.310213 0.615545 0.304203
v -0.270793 0.512301 -0.455632
v 0.270793 0.512301 -0.455632
v -0.270793 0.873656 -0.455632
v 0.270793 0.873656 -0.455632
v 0.270793 0.718789 -0.455632
v 0.310213 0.873656 -0.455632
v 0.310213 0.873656 -0.416211
v 0.310213 0.822034 -0.455632
v 0.310213 0.770412 -0.455632
v 0.310213 0.822034 -0.416211
v 0.310213 0.667167 -0.416211
v -0.310213 0.873656 -0.455632
v -0.310213 0.512301 -0.455632
v -0.310213 0.667167 -0.455632
v -0.310213 0.718790 -0.455632
v 0.310213 0.512301 -0.416212
v 0.310213 0.770412 -0.416212
v 0.310213 0.718789 -0.416212
v 0.310213 0.718789 -0.455632
v -0.310213 0.822034 -0.455632
v -0.270792 0.563923 -0.455632
v 0.270793 0.770412 -0.455632
v -0.270793 0.615545 -0.455632
v -0.270793 0.718790 -0.455632
v -0.270792 0.667167 -0.455632
v 0.090957 0.756314 -0.455632
v 0.090957 0.793661 -0.455632
v 0.090957 0.770412 -0.455632
v 0.085584 0.742791 -0.455632
v -0.090957 0.793661 -0.455632
v -0.072610 0.737189 -0.455632
v 0.072610 0.737189 -0.455632
v -0.090957 0.756314 -0.455632
v -0.090957 0.770412 -0.455632
v -0.085583 0.742791 -0.455632
v 0.090957 0.756314 -0.442685
v 0.090957 0.793661 -0.442685
v 0.090957 0.770412 -0.442685
v 0.085584 0.742791 -0.442685
v -0.090957 0.793661 -0.442685
v -0.072610 0.737189 -0.442685
v 0.072610 0.737189 -0.442685
v -0.090957 0.770412 -0.442685
v -0.090957 0.756314 -0.442685
v -0.085583 0.742791 -0.442685
v 0.270793 0.563923 -0.455632
v 0.310213 0.667167 -0.455632
v -0.310213 0.563923 -0.455632
v -0.310213 0.770412 -0.455632
v 0.310213 0.615545 -0.455632
v 0.310213 0.563923 -0.455632
v 0.270793 0.822034 -0.455632
v 0.270793 0.667167 -0.455632
v 0.270793 0.615545 -0.455632
v -0.310213 0.822034 -0.416212
v -0.310213 0.718789 -0.416212
v -0.270792 0.822034 -0.455632
v -0.270792 0.770412 -0.455632
v 0.310213 0.615545 -0.416211
v -0.310213 0.770412 -0.416211
v -0.310213 0.512301 -0.416212
v -0.310213 0.873656 -0.416212
v -0.310213 0.667167 -0.416212
v 0.310213 0.149810 0.343623
v -0.270793 0.149810 0.343623
v 0.270793 0.149810 0.343623
v -0.270793 0.511166 0.343623
v 0.270793 0.511166 0.343623
v 0.310213 0.511166 0.343623
v 0.310213 0.304677 0.304203
v -0.310213 0.149810 0.343623
v -0.310213 0.304677 0.343623
v 0.310213 0.356299 0.304203
v -0.310213 0.459544 0.343623
v -0.270792 0.201433 0.343623
v -0.270793 0.356299 0.343623
v -0.270792 0.304677 0.343623
v 0.090957 0.393824 0.343623
v 0.090957 0.431170 0.343623
v 0.090957 0.407921 0.343623
v 0.085584 0.380300 0.343623
v -0.090957 0.431170 0.343623
v -0.072610 0.374699 0.343623
v 0.072610 0.374699 0.343623
v -0.090957 0.393824 0.343623
v -0.090957 0.407921 0.343623
v -0.085583 0.380300 0.343623
v 0.090957 0.393824 0.330677
v 0.090957 0.431170 0.330677
v 0.090957 0.407921 0.330677
v 0.085584 0.380300 0.330677
v -0.090957 0.431170 0.330677
v -0.072610 0.374699 0.330677
v 0.072610 0.374699 0.330677
v -0.090957 0.407921 0.330677
v -0.090957 0.393824 0.330677
v -0.085583 0.380300 0.330677
v 0.270793 0.201433 0.343623
v -0.310213 0.407921 0.343623
v 0.310213 0.253055 0.343623
v 0.310213 0.201433 0.343623
v -0.310213 0.253055 0.343623
v -0.270792 0.407921 0.343623
v 0.310213 0.253055 0.304203
v -0.310213 0.149810 0.304203
v -0.310213 0.511166 0.304203
v 0.310213 0.149810 -0.455632
v -0.270793 0.149810 -0.455632
v 0.270793 0.149810 -0.455632
v -0.270793 0.511166 -0.455632
v 0.270793 0.511166 -0.455632
v 0.270793 0.356299 -0.455632
v 0.310213 0.511166 -0.416212
v 0.310213 0.304677 -0.416212
v -0.310213 0.511166 -0.455632
v -0.310213 0.149810 -0.455632
v -0.310213 0.304677 -0.455632
v 0.310213 0.149810 -0.416212
v 0.310213 0.356299 -0.416212
v -0.270793 0.253055 -0.455632
v -0.270793 0.356299 -0.455632
v 0.090957 0.393824 -0.455632
v 0.090957 0.431170 -0.455632
v 0.090957 0.407921 -0.455632
v 0.085584 0.380300 -0.455632
v -0.090957 0.431170 -0.455632
v -0.072610 0.374699 -0.455632
v 0.072610 0.374699 -0.455632
v -0.090957 0.393824 -0.455632
v -0.090957 0.407921 -0.455632
v -0.085583 0.380300 -0.455632
v 0.090957 0.393824 -0.442686
v 0.090957 0.431170 -0.442686
v 0.090957 0.407921 -0.442686
v 0.085584 0.380300 -0.442686
v -0.090957 0.431170 -0.442686
v -0.072610 0.374699 -0.442686
v 0.072610 0.374699 -0.442686
v -0.090957 0.407921 -0.442686
v -0.090957 0.393824 -0.442686
v -0.085583 0.380300 -0.442686
v 0.270793 0.201433 -0.455632
v 0.310213 0.201433 -0.416212
v -0.310213 0.201433 -0.416212
v 0.270793 0.253055 -0.455632
v -0.310213 0.459544 -0.416212
v -0.310213 0.356299 -0.416212
v -0.526389 0.104650 -0.355138
v -0.526389 0.117955 -0.368442
v -0.526389 0.117955 -0.162133
v -0.526389 0.104650 -0.175438
v -0.526389 0.104650 -0.001422
v -0.526389 0.117955 -0.014726
v -0.526389 0.117955 0.191582
v -0.526389 0.104650 0.178278
v 0.526388 0.104650 0.178278
v 0.526388 0.117955 0.191582
v 0.526388 0.117955 -0.014726
v 0.526388 0.104650 -0.001422
v 0.526388 0.104650 -0.175438
v 0.526388 0.117955 -0.162134
v 0.526388 0.117955 -0.368442
v 0.526388 0.104650 -0.355138
vn -1.0000 -0.0000 -0.0000
vn -0.0000 -1.0000 -0.0000
vn -0.0000 -0.0000 1.0000
vn 1.0000 -0.0000 -0.0000
vn -0.0000 -0.0000 -1.0000
vn -0.0000 1.0000 -0.0000
vn -0.3964 0.9181 -0.0000
vn 0.9293 0.3693 -0.0000
vn 0.3964 0.9181 -0.0000
vn -0.9293 0.3693 -0.0000
vn -0.0000 0.7071 -0.7071
vn -0.0000 0.7071 0.7071
vt 0.229189 0.827074
vt 0.229189 0.867569
vt 0.229189 0.888326
vt 0.233673 0.810391
vt 0.235412 0.810391
vt 0.236974 0.839752
vt 0.238713 0.901005
vt 0.236974 0.901005
vt 0.238713 0.839752
vt 0.236974 0.901005
vt 0.238713 0.901005
vt 0.235412 0.871644
vt 0.233673 0.871643
vt 0.233673 0.871644
vt 0.230928 0.827074
vt 0.243197 0.884322
vt 0.241458 0.884322
vt 0.230928 0.867569
vt 0.230928 0.888326
vt 0.243197 0.823070
vt 0.235412 0.871643
vt 0.241458 0.823070
vt 0.235412 0.850886
vt 0.235412 0.871643
vt 0.233673 0.850886
vt 0.230928 0.888326
vt 0.229189 0.888326
vt 0.238713 0.880248
vt 0.236974 0.880248
vt 0.574165 0.879588
vt 0.572046 0.879588
vt 0.572046 0.804333
vt 0.574165 0.804333
vt 0.574165 0.804333
vt 0.572046 0.804333
vt 0.574553 0.879588
vt 0.572434 0.879588
vt 0.572434 0.804333
vt 0.574553 0.804333
vt 0.574553 0.804333
vt 0.572434 0.804333
vt 0.236024 0.984074
vt 0.232933 0.984073
vt 0.232933 0.984074
vt 0.232933 0.947686
vt 0.236024 0.947686
vt 0.232933 0.947686
vt 0.236024 0.984073
vt 0.236024 0.947686
vt 0.236024 0.927198
vt 0.236024 0.989742
vt 0.236024 0.989742
vt 0.236092 0.989742
vt 0.236092 0.927199
vt 0.236092 0.927198
vt 0.236024 0.927199
vt 0.236092 0.989742
vt 0.232933 0.989742
vt 0.232933 0.927198
vt 0.232933 0.989742
vt 0.232865 0.927198
vt 0.232865 0.989742
vt 0.232865 0.989742
vt 0.232933 0.927199
vt 0.232865 0.927199
vt 0.465382 0.872254
vt 0.478772 0.812465
vt 0.465382 0.812465
vt 0.223248 0.856798
vt 0.223356 0.858851
vt 0.223248 0.858851
vt 0.221285 0.854745
vt 0.221177 0.852693
vt 0.221285 0.852693
vt 0.223248 0.852693
vt 0.221285 0.858851
vt 0.221285 0.856798
vt 0.221177 0.858851
vt 0.221177 0.856798
vt 0.221177 0.854745
vt 0.223356 0.852693
vt 0.223356 0.854745
vt 0.223356 0.856798
vt 0.223248 0.854745
vt 0.221285 0.860904
vt 0.452883 0.976012
vt 0.452883 0.877518
vt 0.445691 0.877518
vt 0.445691 0.976012
vt 0.478772 0.872254
vt 0.223248 0.834132
vt 0.223356 0.836185
vt 0.223248 0.836185
vt 0.221285 0.832079
vt 0.221177 0.830027
vt 0.221285 0.830027
vt 0.223248 0.825921
vt 0.221285 0.827974
vt 0.221285 0.825921
vt 0.223248 0.830027
vt 0.221285 0.836185
vt 0.221285 0.834132
vt 0.221177 0.836185
vt 0.221177 0.834132
vt 0.221177 0.832079
vt 0.221177 0.827974
vt 0.221177 0.825921
vt 0.223356 0.825921
vt 0.223356 0.827974
vt 0.223356 0.830027
vt 0.223356 0.832079
vt 0.223356 0.834132
vt 0.223248 0.832079
vt 0.223248 0.827974
vt 0.221285 0.838238
vt 0.223248 0.823868
vt 0.221285 0.823868
vt 0.223248 0.848547
vt 0.223356 0.850599
vt 0.223248 0.850599
vt 0.221285 0.846494
vt 0.221177 0.844441
vt 0.221285 0.844441
vt 0.221285 0.840335
vt 0.223248 0.842388
vt 0.221285 0.842388
vt 0.223248 0.844441
vt 0.221285 0.850599
vt 0.221285 0.848547
vt 0.221177 0.850599
vt 0.221177 0.848547
vt 0.221177 0.846494
vt 0.221177 0.842388
vt 0.221177 0.840335
vt 0.223356 0.840335
vt 0.223356 0.842388
vt 0.223356 0.844441
vt 0.223356 0.846494
vt 0.223356 0.848547
vt 0.223248 0.846494
vt 0.223248 0.840335
vt 0.221285 0.852652
vt 0.223248 0.838283
vt 0.221285 0.838283
vt 0.207624 0.950139
vt 0.200718 0.954645
vt 0.200718 0.950139
vt 0.200718 0.941129
vt 0.207624 0.941129
vt 0.203245 0.942734
vt 0.208127 0.950139
vt 0.208127 0.954645
vt 0.208127 0.941129
vt 0.208127 0.945634
vt 0.207624 0.954645
vt 0.207624 0.945634
vt 0.200215 0.954645
vt 0.200215 0.950139
vt 0.200215 0.945634
vt 0.200215 0.941129
vt 0.200215 0.941129
vt 0.207624 0.936623
vt 0.200718 0.936623
vt 0.205331 0.947663
vt 0.242029 0.815790
vt 0.242029 0.812095
vt 0.240101 0.809854
vt 0.240101 0.812095
vt 0.241972 0.807705
vt 0.241835 0.806815
vt 0.242029 0.809854
vt 0.240158 0.807705
vt 0.240296 0.806815
vt 0.240101 0.815790
vt 0.200718 0.950139
vt 0.207624 0.950139
vt 0.205097 0.942734
vt 0.205262 0.943223
vt 0.208127 0.950139
vt 0.208127 0.945634
vt 0.207624 0.945634
vt 0.200215 0.950139
vt 0.200215 0.945634
vt 0.200718 0.941129
vt 0.200718 0.945634
vt 0.203011 0.947663
vt 0.242029 0.812095
vt 0.240101 0.812095
vt 0.241835 0.806814
vt 0.241972 0.807705
vt 0.240158 0.807705
vt 0.240296 0.806814
vt 0.215916 0.896470
vt 0.212200 0.898894
vt 0.212200 0.896470
vt 0.215916 0.884349
vt 0.216187 0.881925
vt 0.216187 0.884349
vt 0.215916 0.881925
vt 0.212200 0.884349
vt 0.212200 0.881925
vt 0.215916 0.886773
vt 0.212200 0.889197
vt 0.212200 0.886773
vt 0.212200 0.891622
vt 0.215916 0.891622
vt 0.213560 0.892486
vt 0.216187 0.896470
vt 0.216187 0.898894
vt 0.216187 0.886773
vt 0.216187 0.889197
vt 0.216187 0.891622
vt 0.216187 0.894046
vt 0.215916 0.898894
vt 0.215916 0.894046
vt 0.215916 0.889197
vt 0.211929 0.884349
vt 0.211929 0.881925
vt 0.211929 0.898894
vt 0.211929 0.896470
vt 0.211929 0.894046
vt 0.211929 0.891622
vt 0.211929 0.889197
vt 0.211929 0.886773
vt 0.214682 0.895138
vt 0.242029 0.815515
vt 0.242029 0.811819
vt 0.240101 0.809579
vt 0.240101 0.811819
vt 0.241972 0.807429
vt 0.241835 0.806539
vt 0.242029 0.809579
vt 0.240158 0.807429
vt 0.240296 0.806539
vt 0.240101 0.815515
vt 0.214556 0.892486
vt 0.214645 0.892749
vt 0.212200 0.894046
vt 0.213434 0.895138
vt 0.241835 0.806539
vt 0.240296 0.806539
vt 0.207624 0.900393
vt 0.200718 0.904898
vt 0.200718 0.900393
vt 0.207624 0.877867
vt 0.208127 0.873361
vt 0.208127 0.877867
vt 0.207624 0.873361
vt 0.200718 0.877867
vt 0.200718 0.873361
vt 0.207624 0.882372
vt 0.200718 0.886877
vt 0.200718 0.882372
vt 0.200718 0.891383
vt 0.207624 0.891383
vt 0.203245 0.892988
vt 0.208127 0.900393
vt 0.208127 0.904898
vt 0.208127 0.882372
vt 0.208127 0.886877
vt 0.208127 0.891383
vt 0.208127 0.895888
vt 0.207624 0.904898
vt 0.207624 0.895888
vt 0.207624 0.886877
vt 0.200215 0.877867
vt 0.200215 0.873361
vt 0.200215 0.904898
vt 0.200215 0.900393
vt 0.200215 0.895888
vt 0.200215 0.891383
vt 0.200215 0.886877
vt 0.200215 0.882372
vt 0.205331 0.897917
vt 0.242029 0.816148
vt 0.242029 0.812453
vt 0.240101 0.810212
vt 0.240101 0.812453
vt 0.241972 0.808062
vt 0.241835 0.807172
vt 0.242029 0.810212
vt 0.240158 0.808062
vt 0.240296 0.807172
vt 0.240101 0.816148
vt 0.205097 0.892988
vt 0.200718 0.895888
vt 0.203011 0.897917
vt 0.241835 0.807172
vt 0.240296 0.807172
vt 0.223248 0.860904
vt 0.223248 0.838238
vt 0.223248 0.852652
vt 0.205331 0.944404
vt 0.205331 0.945634
vt 0.203011 0.945634
vt 0.200718 0.945634
vt 0.203011 0.944404
vt 0.205097 0.942734
vt 0.203079 0.943223
vt 0.203011 0.945634
vt 0.205331 0.945634
vt 0.203245 0.942734
vt 0.214682 0.893384
vt 0.214682 0.894046
vt 0.213434 0.894046
vt 0.213434 0.893384
vt 0.214556 0.892486
vt 0.213471 0.892749
vt 0.213560 0.892486
vt 0.205331 0.894658
vt 0.205331 0.895888
vt 0.203011 0.895888
vt 0.203011 0.894658
vt 0.205262 0.893477
vt 0.205097 0.892988
vt 0.203079 0.893477
vt 0.203245 0.892988
s 0
usemtl Texture_Map
f 25/1/1 463/2/1 464/3/1
f 22/4/2 38/5/2 23/4/2
f 6/6/3 2/7/3 1/8/3
f 5/6/2 40/9/2 21/6/2
f 7/9/4 16/7/4 2/7/4
f 8/9/5 3/10/5 4/11/5
f 19/12/6 9/13/6 10/14/6
f 462/2/5 37/15/5 24/1/5
f 17/16/6 11/17/6 12/17/6
f 29/4/1 465/14/1 28/4/1
f 2/7/6 13/8/6 1/8/6
f 37/15/4 471/18/4 472/19/4
f 34/20/4 18/16/4 17/16/4
f 8/9/4 473/11/4 40/9/4
f 38/5/4 20/21/4 19/12/4
f 30/6/2 7/9/2 6/6/2
f 28/4/2 32/5/2 29/4/2
f 26/22/2 34/20/2 27/22/2
f 24/1/2 36/15/2 25/1/2
f 30/6/1 1/8/1 13/8/1
f 33/5/4 467/23/4 468/24/4
f 26/22/1 12/17/1 11/17/1
f 25/1/3 470/18/3 463/2/3
f 22/4/1 10/14/1 9/13/1
f 29/4/3 15/12/3 14/14/3
f 13/8/5 31/9/5 30/6/5
f 27/22/3 17/16/3 12/17/3
f 15/12/6 465/14/6 14/14/6
f 466/25/5 33/5/5 28/4/5
f 11/17/5 35/20/5 26/22/5
f 23/4/3 19/12/3 10/14/3
f 469/26/6 461/27/6 464/3/6
f 473/11/6 3/10/6 460/10/6
f 9/13/5 39/5/5 22/4/5
f 21/6/3 474/28/3 459/29/3
f 46/30/6 43/31/6 41/31/6
f 43/31/1 48/32/1 41/31/1
f 46/30/4 45/33/4 44/30/4
f 41/31/3 42/34/3 46/30/3
f 44/30/5 47/35/5 43/31/5
f 54/36/6 51/37/6 49/37/6
f 51/37/1 56/38/1 49/37/1
f 54/36/4 53/39/4 52/36/4
f 49/37/3 50/40/3 54/36/3
f 52/36/5 55/41/5 51/37/5
f 58/42/6 59/43/6 57/44/6
f 61/45/2 63/46/2 62/47/2
f 59/43/1 62/47/1 57/44/1
f 60/48/5 61/45/5 59/43/5
f 57/44/3 63/46/3 58/42/3
f 58/42/4 64/49/4 60/48/4
f 68/50/1 65/51/1 66/52/1
f 418/53/4 70/54/4 71/55/4
f 68/50/5 418/53/5 71/55/5
f 65/51/6 418/53/6 66/52/6
f 67/56/3 69/57/3 65/51/3
f 68/50/2 70/54/2 67/56/2
f 72/58/4 75/59/4 73/60/4
f 78/61/1 76/62/1 427/63/1
f 75/59/5 427/63/5 73/60/5
f 427/63/6 72/58/6 73/60/6
f 76/62/3 74/64/3 72/58/3
f 77/65/2 75/59/2 74/64/2
f 94/66/2 85/67/2 87/68/2
f 266/69/4 260/70/4 265/71/4
f 222/72/4 85/73/4 86/74/4
f 89/75/4 222/72/4 86/74/4
f 266/69/4 226/76/4 227/77/4
f 220/78/3 187/79/3 190/79/3
f 81/80/3 85/73/3 80/80/3
f 227/77/4 220/78/4 190/79/4
f 239/81/5 236/82/5 79/81/5
f 88/83/5 260/70/5 233/83/5
f 261/84/4 79/81/4 236/82/4
f 262/71/1 90/83/1 235/69/1
f 87/73/1 228/72/1 93/74/1
f 228/72/1 92/75/1 93/74/1
f 223/76/1 235/69/1 193/77/1
f 221/79/3 199/78/3 224/78/3
f 87/73/3 197/80/3 192/80/3
f 221/79/1 223/76/1 193/77/1
f 94/81/5 82/82/5 264/81/5
f 263/70/5 83/83/5 90/83/5
f 267/84/1 94/81/1 92/75/1
f 265/71/4 189/85/4 226/76/4
f 261/84/4 227/77/4 222/72/4
f 195/85/1 262/71/1 223/76/1
f 193/77/1 267/84/1 228/72/1
f 101/86/4 96/87/4 102/86/4
f 99/88/5 102/86/5 96/87/5
f 98/89/1 97/88/1 100/89/1
f 100/89/3 103/87/3 101/86/3
f 101/86/6 98/89/6 100/89/6
f 97/88/2 96/87/2 103/87/2
f 380/67/6 426/66/6 110/68/6
f 382/68/2 418/90/2 375/67/2
f 139/91/4 113/92/4 115/93/4
f 384/94/4 133/95/4 381/96/4
f 454/97/4 415/98/4 132/99/4
f 425/100/4 384/94/4 381/96/4
f 139/91/4 109/101/4 121/102/4
f 107/103/3 127/104/3 108/104/3
f 105/105/3 133/95/3 122/105/3
f 411/106/3 409/107/3 412/107/3
f 121/102/4 107/103/4 108/104/4
f 415/98/4 412/107/4 132/99/4
f 453/108/5 114/109/5 137/108/5
f 136/110/5 124/111/5 123/110/5
f 112/112/5 113/92/5 138/112/5
f 430/113/4 123/110/4 124/111/4
f 454/97/4 114/109/4 116/114/4
f 457/93/1 141/112/1 119/91/1
f 383/95/1 148/94/1 154/96/1
f 155/98/1 455/97/1 135/99/1
f 148/94/1 153/100/1 154/96/1
f 147/101/1 119/91/1 151/102/1
f 410/104/3 149/103/3 385/103/3
f 383/95/3 387/105/3 111/105/3
f 134/107/3 128/106/3 413/106/3
f 410/104/1 147/101/1 151/102/1
f 134/107/1 155/98/1 135/99/1
f 140/108/5 431/109/5 129/108/5
f 428/110/5 432/111/5 130/110/5
f 117/92/5 150/112/5 141/112/5
f 126/111/1 153/100/1 458/113/1
f 146/114/1 140/108/1 455/97/1
f 115/93/4 106/115/4 109/101/4
f 429/116/4 132/99/4 120/117/4
f 116/114/4 381/96/4 415/98/4
f 384/94/4 139/91/4 121/102/4
f 417/115/1 457/93/1 147/101/1
f 135/99/1 118/116/1 416/117/1
f 154/96/1 146/114/1 155/98/1
f 151/102/1 458/113/1 148/94/1
f 274/67/6 323/66/6 161/68/6
f 324/66/2 268/67/2 276/68/2
f 328/118/4 319/119/4 321/120/4
f 278/121/4 303/122/4 275/123/4
f 302/124/4 370/125/4 308/126/4
f 322/127/4 278/121/4 275/123/4
f 328/118/4 160/128/4 165/129/4
f 158/130/3 169/131/3 159/131/3
f 273/132/3 303/122/3 279/132/3
f 305/133/3 301/134/3 306/134/3
f 165/129/4 158/130/4 159/131/4
f 308/126/4 306/134/4 302/124/4
f 357/135/5 361/136/5 362/135/5
f 358/137/5 316/138/5 330/138/5
f 333/139/5 319/119/5 320/139/5
f 329/140/4 358/137/4 330/138/4
f 183/141/4 361/136/4 370/125/4
f 366/120/1 360/139/1 371/118/1
f 162/122/1 179/121/1 310/123/1
f 311/126/1 163/141/1 173/124/1
f 179/121/1 374/127/1 310/123/1
f 178/128/1 371/118/1 182/129/1
f 172/131/3 181/130/3 166/130/3
f 162/122/3 280/132/3 277/132/3
f 304/134/3 170/133/3 180/133/3
f 172/131/1 178/128/1 182/129/1
f 304/134/1 311/126/1 173/124/1
f 359/135/5 334/136/5 332/135/5
f 325/137/5 335/138/5 336/137/5
f 331/119/5 369/139/5 360/139/5
f 367/140/1 325/137/1 374/127/1
f 177/125/1 359/135/1 163/141/1
f 321/120/4 157/142/4 160/128/4
f 327/143/4 302/124/4 164/144/4
f 370/125/4 275/123/4 308/126/4
f 329/140/4 165/129/4 278/121/4
f 184/142/1 366/120/1 178/128/1
f 173/124/1 372/143/1 309/144/1
f 311/126/1 374/127/1 177/125/1
f 182/129/1 367/140/1 179/121/1
f 194/145/3 185/146/3 199/147/3
f 197/148/3 81/149/3 205/150/3
f 226/151/4 188/152/4 220/151/4
f 80/153/4 227/154/4 190/154/4
f 186/155/3 220/151/3 188/152/3
f 81/149/3 190/154/3 187/156/3
f 195/157/1 224/158/1 191/157/1
f 221/159/1 228/160/1 192/161/1
f 185/146/3 224/158/3 199/147/3
f 197/148/3 221/159/3 192/161/3
f 198/162/3 197/148/3 225/163/3
f 201/164/3 194/145/3 199/147/3
f 201/165/1 212/166/1 202/166/1
f 207/167/4 218/168/4 208/168/4
f 203/169/7 216/170/7 206/170/7
f 202/166/1 210/171/1 200/171/1
f 209/172/8 217/167/8 207/167/8
f 206/170/6 215/173/6 205/173/6
f 204/174/2 211/165/2 201/165/2
f 205/173/9 219/172/9 209/172/9
f 208/168/4 214/174/4 204/174/4
f 200/171/10 213/169/10 203/169/10
f 216/170/3 213/169/3 210/171/3
f 84/175/5 230/155/5 237/176/5
f 246/177/5 243/178/5 91/149/5
f 231/152/4 265/179/4 260/179/4
f 233/180/4 261/153/4 236/153/4
f 230/155/5 260/179/5 237/176/5
f 88/181/5 236/153/5 91/149/5
f 263/182/1 238/157/1 234/157/1
f 90/183/1 267/160/1 235/183/1
f 263/182/5 229/146/5 84/175/5
f 82/184/5 90/183/5 83/185/5
f 264/163/5 91/149/5 239/162/5
f 241/164/5 244/186/5 84/175/5
f 252/187/1 241/165/1 242/187/1
f 258/188/4 247/167/4 248/188/4
f 256/189/7 243/190/7 246/189/7
f 250/171/1 242/187/1 240/171/1
f 257/167/8 249/191/8 247/167/8
f 255/192/6 246/189/6 245/192/6
f 251/165/2 244/174/2 241/165/2
f 259/191/9 245/192/9 249/191/9
f 254/174/4 248/188/4 244/174/4
f 253/190/10 240/171/10 243/190/10
f 254/174/5 251/165/5 256/189/5
f 174/193/3 271/194/3 181/195/3
f 301/196/3 268/197/3 306/198/3
f 270/199/3 167/200/3 269/201/3
f 176/202/3 171/203/3 170/204/3
f 280/205/3 273/206/3 286/207/3
f 160/208/4 274/209/4 158/208/4
f 164/197/4 306/198/4 268/197/4
f 308/210/4 303/211/4 305/210/4
f 278/212/4 159/213/4 279/212/4
f 272/214/3 158/208/3 274/209/3
f 273/206/3 159/213/3 169/215/3
f 176/202/3 303/211/3 175/216/3
f 304/217/1 309/218/1 276/218/1
f 184/219/1 166/220/1 161/219/1
f 172/221/1 179/222/1 277/222/1
f 310/223/1 180/224/1 162/223/1
f 271/194/3 166/220/3 181/195/3
f 269/201/3 304/217/3 276/218/3
f 170/204/3 162/223/3 180/224/3
f 280/205/3 172/221/3 277/222/3
f 167/200/3 176/202/3 170/204/3
f 175/216/3 280/205/3 171/203/3
f 282/225/3 174/193/3 181/195/3
f 282/226/1 293/227/1 283/227/1
f 288/228/4 298/229/4 289/229/4
f 284/230/7 297/231/7 287/231/7
f 283/227/1 291/232/1 281/232/1
f 290/233/8 299/228/8 288/228/8
f 287/231/6 296/234/6 286/234/6
f 285/235/2 292/226/2 282/226/2
f 286/234/9 300/233/9 290/233/9
f 289/229/4 295/235/4 285/235/4
f 281/232/10 294/230/10 284/230/10
f 297/231/3 294/230/3 291/232/3
f 314/194/5 363/193/5 368/195/5
f 357/196/5 156/197/5 313/199/5
f 332/200/5 313/199/5 312/201/5
f 336/203/5 365/202/5 334/204/5
f 343/236/5 340/237/5 316/206/5
f 317/209/4 321/208/4 319/208/4
f 362/198/4 327/197/4 156/197/4
f 358/211/4 370/210/4 361/210/4
f 320/213/4 329/212/4 330/212/4
f 315/214/5 319/208/5 363/193/5
f 320/213/5 316/206/5 333/215/5
f 358/211/5 365/202/5 364/216/5
f 324/218/1 163/217/1 359/217/1
f 331/220/1 373/219/1 323/219/1
f 360/221/1 367/222/1 371/221/1
f 325/223/1 177/224/1 374/223/1
f 331/220/5 314/194/5 368/195/5
f 312/201/5 359/217/5 332/200/5
f 334/204/5 325/223/5 336/203/5
f 335/205/5 360/221/5 369/238/5
f 332/200/5 365/202/5 357/196/5
f 335/205/5 364/216/5 336/203/5
f 368/195/5 363/193/5 341/239/5
f 349/227/1 338/226/1 339/227/1
f 354/229/4 344/228/4 345/229/4
f 353/240/7 340/230/7 343/240/7
f 347/232/1 339/227/1 337/232/1
f 355/228/8 346/233/8 344/228/8
f 352/241/6 343/240/6 342/241/6
f 348/226/2 341/235/2 338/226/2
f 356/233/9 342/241/9 346/233/9
f 351/235/4 345/229/4 341/235/4
f 350/230/10 337/232/10 340/230/10
f 351/235/5 348/226/5 353/240/5
f 142/242/3 378/243/3 149/244/3
f 409/245/3 375/246/3 412/247/3
f 377/248/3 386/249/3 376/250/3
f 144/251/3 388/252/3 128/253/3
f 387/254/3 105/255/3 394/256/3
f 109/257/4 380/258/4 107/257/4
f 120/246/4 412/247/4 375/246/4
f 415/259/4 133/260/4 411/259/4
f 384/261/4 108/262/4 122/261/4
f 379/263/3 107/257/3 380/258/3
f 105/255/3 108/262/3 127/264/3
f 144/251/3 133/260/3 143/265/3
f 134/266/1 416/267/1 382/267/1
f 417/268/1 385/269/1 110/268/1
f 410/270/1 148/271/1 111/271/1
f 154/272/1 413/273/1 383/272/1
f 378/243/3 385/269/3 149/244/3
f 376/250/3 134/266/3 382/267/3
f 128/253/3 383/272/3 413/273/3
f 387/254/3 410/270/3 111/271/3
f 386/249/3 144/251/3 128/253/3
f 143/265/3 387/254/3 388/252/3
f 390/274/3 142/242/3 149/244/3
f 390/275/1 401/276/1 391/276/1
f 396/277/4 406/278/4 397/278/4
f 392/279/7 405/280/7 395/280/7
f 391/276/1 399/281/1 389/281/1
f 398/282/8 407/277/8 396/277/8
f 395/280/6 404/283/6 394/283/6
f 393/284/2 400/275/2 390/275/2
f 394/283/9 408/282/9 398/282/9
f 397/278/4 403/284/4 393/284/4
f 389/281/10 402/279/10 392/279/10
f 405/280/3 402/279/3 399/281/3
f 421/243/5 145/242/5 131/244/5
f 453/245/5 418/246/5 420/248/5
f 129/249/5 420/248/5 419/250/5
f 130/252/5 456/251/5 431/253/5
f 432/254/5 439/285/5 423/255/5
f 104/258/4 115/257/4 113/257/4
f 137/247/4 429/246/4 418/246/4
f 123/260/4 116/259/4 114/259/4
f 138/262/4 430/261/4 124/261/4
f 422/263/5 113/257/5 145/242/5
f 138/262/5 423/255/5 112/264/5
f 136/265/5 114/259/5 456/251/5
f 427/267/1 455/266/1 140/266/1
f 117/269/1 152/268/1 426/268/1
f 141/270/1 458/271/1 119/270/1
f 125/273/1 153/272/1 428/272/1
f 117/269/5 421/243/5 131/244/5
f 419/250/5 140/266/5 129/249/5
f 431/253/5 428/272/5 130/252/5
f 432/254/5 141/270/5 150/286/5
f 129/249/5 456/251/5 453/245/5
f 130/252/5 423/255/5 136/265/5
f 131/244/5 145/242/5 437/287/5
f 445/276/1 434/275/1 435/276/1
f 450/278/4 440/277/4 441/278/4
f 449/288/7 436/279/7 439/288/7
f 443/281/1 435/276/1 433/281/1
f 451/277/8 442/282/8 440/277/8
f 448/289/6 439/288/6 438/289/6
f 444/275/2 437/284/2 434/275/2
f 452/282/9 438/289/9 442/282/9
f 447/284/4 441/278/4 437/284/4
f 446/279/10 433/281/10 436/279/10
f 447/284/5 444/275/5 449/288/5
f 468/24/11 466/25/11 465/14/11
f 464/3/12 470/18/12 469/26/12
f 472/19/11 462/2/11 461/27/11
f 460/10/12 474/28/12 473/11/12
f 21/6/1 459/29/1 460/10/1
f 464/3/1 461/27/1 24/1/1
f 461/27/1 462/2/1 24/1/1
f 24/1/1 25/1/1 464/3/1
f 22/4/2 39/5/2 38/5/2
f 6/6/3 7/9/3 2/7/3
f 5/6/2 8/9/2 40/9/2
f 7/9/4 31/9/4 16/7/4
f 8/9/5 5/6/5 3/10/5
f 19/12/6 20/21/6 9/13/6
f 462/2/5 471/18/5 37/15/5
f 17/16/6 18/16/6 11/17/6
f 14/14/1 465/14/1 29/4/1
f 465/14/1 466/25/1 28/4/1
f 2/7/6 16/7/6 13/8/6
f 472/19/4 469/26/4 36/15/4
f 469/26/4 470/18/4 36/15/4
f 36/15/4 37/15/4 472/19/4
f 34/20/4 35/20/4 18/16/4
f 4/11/4 473/11/4 8/9/4
f 473/11/4 474/28/4 40/9/4
f 38/5/4 39/5/4 20/21/4
f 30/6/2 31/9/2 7/9/2
f 28/4/2 33/5/2 32/5/2
f 26/22/2 35/20/2 34/20/2
f 24/1/2 37/15/2 36/15/2
f 30/6/1 6/6/1 1/8/1
f 468/24/4 15/12/4 32/5/4
f 32/5/4 33/5/4 468/24/4
f 26/22/1 27/22/1 12/17/1
f 25/1/3 36/15/3 470/18/3
f 22/4/1 23/4/1 10/14/1
f 29/4/3 32/5/3 15/12/3
f 13/8/5 16/7/5 31/9/5
f 27/22/3 34/20/3 17/16/3
f 15/12/6 468/24/6 465/14/6
f 466/25/5 467/23/5 33/5/5
f 11/17/5 18/16/5 35/20/5
f 23/4/3 38/5/3 19/12/3
f 469/26/6 472/19/6 461/27/6
f 473/11/6 4/11/6 3/10/6
f 9/13/5 20/21/5 39/5/5
f 21/6/3 40/9/3 474/28/3
f 46/30/6 44/30/6 43/31/6
f 43/31/1 47/35/1 48/32/1
f 46/30/4 42/34/4 45/33/4
f 41/31/3 48/32/3 42/34/3
f 44/30/5 45/33/5 47/35/5
f 54/36/6 52/36/6 51/37/6
f 51/37/1 55/41/1 56/38/1
f 54/36/4 50/40/4 53/39/4
f 49/37/3 56/38/3 50/40/3
f 52/36/5 53/39/5 55/41/5
f 58/42/6 60/48/6 59/43/6
f 61/45/2 64/49/2 63/46/2
f 59/43/1 61/45/1 62/47/1
f 60/48/5 64/49/5 61/45/5
f 57/44/3 62/47/3 63/46/3
f 58/42/4 63/46/4 64/49/4
f 68/50/1 67/56/1 65/51/1
f 418/53/4 69/57/4 70/54/4
f 68/50/5 66/52/5 418/53/5
f 65/51/6 69/57/6 418/53/6
f 67/56/3 70/54/3 69/57/3
f 68/50/2 71/55/2 70/54/2
f 72/58/4 74/64/4 75/59/4
f 78/61/1 77/65/1 76/62/1
f 75/59/5 78/61/5 427/63/5
f 427/63/6 76/62/6 72/58/6
f 76/62/3 77/65/3 74/64/3
f 77/65/2 78/61/2 75/59/2
f 94/66/2 79/90/2 85/67/2
f 266/69/4 233/83/4 260/70/4
f 222/72/4 80/80/4 85/73/4
f 89/75/4 261/84/4 222/72/4
f 266/69/4 265/71/4 226/76/4
f 220/78/3 194/78/3 187/79/3
f 81/80/3 198/73/3 85/73/3
f 227/77/4 226/76/4 220/78/4
f 239/81/5 91/82/5 236/82/5
f 88/83/5 237/70/5 260/70/5
f 261/84/4 89/75/4 79/81/4
f 262/71/1 263/70/1 90/83/1
f 87/73/1 192/80/1 228/72/1
f 228/72/1 267/84/1 92/75/1
f 223/76/1 262/71/1 235/69/1
f 221/79/3 196/79/3 199/78/3
f 87/73/3 225/73/3 197/80/3
f 221/79/1 224/78/1 223/76/1
f 94/81/5 95/82/5 82/82/5
f 263/70/5 84/70/5 83/83/5
f 267/84/1 95/82/1 94/81/1
f 265/71/4 232/290/4 189/85/4
f 261/84/4 266/69/4 227/77/4
f 195/85/1 238/290/1 262/71/1
f 193/77/1 235/69/1 267/84/1
f 101/86/4 103/87/4 96/87/4
f 99/88/5 98/89/5 102/86/5
f 98/89/1 99/88/1 97/88/1
f 100/89/3 97/88/3 103/87/3
f 101/86/6 102/86/6 98/89/6
f 97/88/2 99/88/2 96/87/2
f 380/67/6 104/90/6 426/66/6
f 382/68/2 427/66/2 418/90/2
f 139/91/4 138/112/4 113/92/4
f 384/94/4 122/105/4 133/95/4
f 454/97/4 116/114/4 415/98/4
f 425/100/4 430/113/4 384/94/4
f 139/91/4 115/93/4 109/101/4
f 107/103/3 142/103/3 127/104/3
f 105/105/3 143/95/3 133/95/3
f 411/106/3 144/106/3 409/107/3
f 121/102/4 109/101/4 107/103/4
f 415/98/4 411/106/4 412/107/4
f 453/108/5 456/109/5 114/109/5
f 136/110/5 423/111/5 124/111/5
f 112/112/5 145/92/5 113/92/5
f 430/113/4 425/100/4 123/110/4
f 454/97/4 137/108/4 114/109/4
f 457/93/1 117/92/1 141/112/1
f 383/95/1 111/105/1 148/94/1
f 155/98/1 146/114/1 455/97/1
f 148/94/1 458/113/1 153/100/1
f 147/101/1 457/93/1 119/91/1
f 410/104/3 414/104/3 149/103/3
f 383/95/3 388/95/3 387/105/3
f 134/107/3 386/107/3 128/106/3
f 410/104/1 385/103/1 147/101/1
f 134/107/1 413/106/1 155/98/1
f 140/108/5 125/109/5 431/109/5
f 428/110/5 126/111/5 432/111/5
f 117/92/5 131/92/5 150/112/5
f 126/111/1 428/110/1 153/100/1
f 146/114/1 125/109/1 140/108/1
f 115/93/4 424/291/4 106/115/4
f 429/116/4 454/97/4 132/99/4
f 116/114/4 425/100/4 381/96/4
f 384/94/4 430/113/4 139/91/4
f 417/115/1 152/291/1 457/93/1
f 135/99/1 455/97/1 118/116/1
f 154/96/1 153/100/1 146/114/1
f 151/102/1 119/91/1 458/113/1
f 274/67/6 317/90/6 323/66/6
f 324/66/2 156/90/2 268/67/2
f 328/118/4 320/139/4 319/119/4
f 278/121/4 279/132/4 303/122/4
f 302/124/4 183/141/4 370/125/4
f 322/127/4 329/140/4 278/121/4
f 328/118/4 321/120/4 160/128/4
f 158/130/3 174/130/3 169/131/3
f 273/132/3 175/122/3 303/122/3
f 305/133/3 176/133/3 301/134/3
f 165/129/4 160/128/4 158/130/4
f 308/126/4 305/133/4 306/134/4
f 357/135/5 365/136/5 361/136/5
f 358/137/5 364/137/5 316/138/5
f 333/139/5 363/119/5 319/119/5
f 329/140/4 322/127/4 358/137/4
f 183/141/4 362/135/4 361/136/4
f 366/120/1 331/119/1 360/139/1
f 162/122/1 277/132/1 179/121/1
f 311/126/1 177/125/1 163/141/1
f 179/121/1 367/140/1 374/127/1
f 178/128/1 366/120/1 371/118/1
f 172/131/3 307/131/3 181/130/3
f 162/122/3 171/122/3 280/132/3
f 304/134/3 167/134/3 170/133/3
f 172/131/1 166/130/1 178/128/1
f 304/134/1 180/133/1 311/126/1
f 359/135/5 168/136/5 334/136/5
f 325/137/5 326/138/5 335/138/5
f 331/119/5 368/119/5 369/139/5
f 367/140/1 326/138/1 325/137/1
f 177/125/1 168/136/1 359/135/1
f 321/120/4 318/292/4 157/142/4
f 327/143/4 183/141/4 302/124/4
f 370/125/4 322/127/4 275/123/4
f 329/140/4 328/118/4 165/129/4
f 184/142/1 373/292/1 366/120/1
f 173/124/1 163/141/1 372/143/1
f 311/126/1 310/123/1 374/127/1
f 182/129/1 371/118/1 367/140/1
f 194/145/3 186/155/3 185/146/3
f 81/149/3 187/156/3 200/293/3
f 187/156/3 202/294/3 200/293/3
f 208/295/3 196/296/3 207/297/3
f 196/296/3 197/148/3 207/297/3
f 81/149/3 200/293/3 203/178/3
f 81/149/3 203/178/3 206/298/3
f 209/299/3 207/297/3 197/148/3
f 81/149/3 206/298/3 205/150/3
f 205/150/3 209/299/3 197/148/3
f 226/151/4 189/152/4 188/152/4
f 80/153/4 222/153/4 227/154/4
f 186/155/3 194/145/3 220/151/3
f 81/149/3 80/153/3 190/154/3
f 195/157/1 223/158/1 224/158/1
f 221/159/1 193/159/1 228/160/1
f 185/146/3 191/157/3 224/158/3
f 197/148/3 196/296/3 221/159/3
f 198/162/3 81/149/3 197/148/3
f 199/147/3 196/296/3 204/186/3
f 196/296/3 208/295/3 204/186/3
f 202/294/3 187/156/3 201/164/3
f 187/156/3 194/145/3 201/164/3
f 199/147/3 204/186/3 201/164/3
f 201/165/1 211/165/1 212/166/1
f 207/167/4 217/167/4 218/168/4
f 203/169/7 213/169/7 216/170/7
f 202/166/1 212/166/1 210/171/1
f 209/172/8 219/172/8 217/167/8
f 206/170/6 216/170/6 215/173/6
f 204/174/2 214/174/2 211/165/2
f 205/173/9 215/173/9 219/172/9
f 208/168/4 218/168/4 214/174/4
f 200/171/10 210/171/10 213/169/10
f 210/171/3 212/166/3 216/170/3
f 212/166/3 211/165/3 216/170/3
f 211/165/3 214/174/3 216/170/3
f 214/174/3 218/168/3 215/173/3
f 216/170/3 214/174/3 215/173/3
f 218/168/3 217/167/3 215/173/3
f 217/167/3 219/172/3 215/173/3
f 84/175/5 229/146/5 230/155/5
f 82/184/5 83/185/5 247/297/5
f 83/185/5 248/300/5 247/297/5
f 242/301/5 88/181/5 240/293/5
f 88/181/5 91/149/5 240/293/5
f 82/184/5 247/297/5 249/299/5
f 82/184/5 249/299/5 245/302/5
f 243/178/5 240/293/5 91/149/5
f 82/184/5 245/302/5 91/149/5
f 245/302/5 246/177/5 91/149/5
f 231/152/4 232/152/4 265/179/4
f 233/180/4 266/180/4 261/153/4
f 230/155/5 231/152/5 260/179/5
f 88/181/5 233/180/5 236/153/5
f 263/182/1 262/182/1 238/157/1
f 90/183/1 95/160/1 267/160/1
f 263/182/5 234/157/5 229/146/5
f 82/184/5 95/160/5 90/183/5
f 264/163/5 82/184/5 91/149/5
f 248/300/5 83/185/5 244/186/5
f 83/185/5 84/175/5 244/186/5
f 237/176/5 88/181/5 241/164/5
f 88/181/5 242/301/5 241/164/5
f 237/176/5 241/164/5 84/175/5
f 252/187/1 251/165/1 241/165/1
f 258/188/4 257/167/4 247/167/4
f 256/189/7 253/190/7 243/190/7
f 250/171/1 252/187/1 242/187/1
f 257/167/8 259/191/8 249/191/8
f 255/192/6 256/189/6 246/189/6
f 251/165/2 254/174/2 244/174/2
f 259/191/9 255/192/9 245/192/9
f 254/174/4 258/188/4 248/188/4
f 253/190/10 250/171/10 240/171/10
f 251/165/5 252/187/5 256/189/5
f 252/187/5 250/171/5 256/189/5
f 250/171/5 253/190/5 256/189/5
f 256/189/5 255/192/5 254/174/5
f 255/192/5 259/191/5 257/167/5
f 258/188/5 255/192/5 257/167/5
f 258/188/5 254/174/5 255/192/5
f 174/193/3 272/214/3 271/194/3
f 301/196/3 270/199/3 268/197/3
f 270/199/3 301/196/3 167/200/3
f 176/202/3 175/216/3 171/203/3
f 273/206/3 169/215/3 281/303/3
f 169/215/3 283/304/3 281/303/3
f 289/305/3 307/238/3 288/306/3
f 307/238/3 280/205/3 288/306/3
f 273/206/3 281/303/3 284/237/3
f 273/206/3 284/237/3 287/307/3
f 290/308/3 288/306/3 280/205/3
f 273/206/3 287/307/3 286/207/3
f 286/207/3 290/308/3 280/205/3
f 160/208/4 157/209/4 274/209/4
f 164/197/4 302/198/4 306/198/4
f 308/210/4 275/211/4 303/211/4
f 278/212/4 165/213/4 159/213/4
f 272/214/3 174/193/3 158/208/3
f 273/206/3 279/212/3 159/213/3
f 176/202/3 305/210/3 303/211/3
f 304/217/1 173/217/1 309/218/1
f 184/219/1 178/220/1 166/220/1
f 172/221/1 182/221/1 179/222/1
f 310/223/1 311/224/1 180/224/1
f 271/194/3 161/219/3 166/220/3
f 269/201/3 167/200/3 304/217/3
f 170/204/3 171/203/3 162/223/3
f 280/205/3 307/238/3 172/221/3
f 167/200/3 301/196/3 176/202/3
f 175/216/3 273/206/3 280/205/3
f 181/195/3 307/238/3 285/239/3
f 307/238/3 289/305/3 285/239/3
f 283/304/3 169/215/3 282/225/3
f 169/215/3 174/193/3 282/225/3
f 181/195/3 285/239/3 282/225/3
f 282/226/1 292/226/1 293/227/1
f 288/228/4 299/228/4 298/229/4
f 284/230/7 294/230/7 297/231/7
f 283/227/1 293/227/1 291/232/1
f 290/233/8 300/233/8 299/228/8
f 287/231/6 297/231/6 296/234/6
f 285/235/2 295/235/2 292/226/2
f 286/234/9 296/234/9 300/233/9
f 289/229/4 298/229/4 295/235/4
f 281/232/10 291/232/10 294/230/10
f 291/232/3 293/227/3 297/231/3
f 293/227/3 292/226/3 297/231/3
f 292/226/3 295/235/3 297/231/3
f 295/235/3 298/229/3 296/234/3
f 297/231/3 295/235/3 296/234/3
f 298/229/3 299/228/3 296/234/3
f 299/228/3 300/233/3 296/234/3
f 314/194/5 315/214/5 363/193/5
f 357/196/5 362/198/5 156/197/5
f 332/200/5 357/196/5 313/199/5
f 336/203/5 364/216/5 365/202/5
f 335/205/5 369/238/5 344/306/5
f 369/238/5 345/305/5 344/306/5
f 339/304/5 333/215/5 337/303/5
f 333/215/5 316/206/5 337/303/5
f 335/205/5 344/306/5 346/308/5
f 335/205/5 346/308/5 342/309/5
f 340/237/5 337/303/5 316/206/5
f 335/205/5 342/309/5 316/206/5
f 342/309/5 343/236/5 316/206/5
f 317/209/4 318/209/4 321/208/4
f 362/198/4 183/198/4 327/197/4
f 358/211/4 322/211/4 370/210/4
f 320/213/4 328/213/4 329/212/4
f 315/214/5 317/209/5 319/208/5
f 320/213/5 330/212/5 316/206/5
f 358/211/5 361/210/5 365/202/5
f 324/218/1 372/218/1 163/217/1
f 331/220/1 366/220/1 373/219/1
f 360/221/1 326/222/1 367/222/1
f 325/223/1 168/224/1 177/224/1
f 331/220/5 323/219/5 314/194/5
f 312/201/5 324/218/5 359/217/5
f 334/204/5 168/224/5 325/223/5
f 335/205/5 326/222/5 360/221/5
f 332/200/5 334/204/5 365/202/5
f 335/205/5 316/206/5 364/216/5
f 345/305/5 369/238/5 341/239/5
f 369/238/5 368/195/5 341/239/5
f 363/193/5 333/215/5 338/225/5
f 333/215/5 339/304/5 338/225/5
f 363/193/5 338/225/5 341/239/5
f 349/227/1 348/226/1 338/226/1
f 354/229/4 355/228/4 344/228/4
f 353/240/7 350/230/7 340/230/7
f 347/232/1 349/227/1 339/227/1
f 355/228/8 356/233/8 346/233/8
f 352/241/6 353/240/6 343/240/6
f 348/226/2 351/235/2 341/235/2
f 356/233/9 352/241/9 342/241/9
f 351/235/4 354/229/4 345/229/4
f 350/230/10 347/232/10 337/232/10
f 348/226/5 349/227/5 353/240/5
f 349/227/5 347/232/5 353/240/5
f 347/232/5 350/230/5 353/240/5
f 353/240/5 352/241/5 351/235/5
f 352/241/5 356/233/5 355/228/5
f 354/229/5 352/241/5 355/228/5
f 354/229/5 351/235/5 352/241/5
f 142/242/3 379/263/3 378/243/3
f 409/245/3 377/248/3 375/246/3
f 377/248/3 409/245/3 386/249/3
f 144/251/3 143/265/3 388/252/3
f 105/255/3 127/264/3 389/310/3
f 127/264/3 391/311/3 389/310/3
f 397/312/3 414/286/3 396/313/3
f 414/286/3 387/254/3 396/313/3
f 105/255/3 389/310/3 392/314/3
f 105/255/3 392/314/3 395/315/3
f 398/316/3 396/313/3 387/254/3
f 105/255/3 395/315/3 394/256/3
f 394/256/3 398/316/3 387/254/3
f 109/257/4 106/258/4 380/258/4
f 120/246/4 132/247/4 412/247/4
f 415/259/4 381/260/4 133/260/4
f 384/261/4 121/262/4 108/262/4
f 379/263/3 142/242/3 107/257/3
f 105/255/3 122/261/3 108/262/3
f 144/251/3 411/259/3 133/260/3
f 134/266/1 135/266/1 416/267/1
f 417/268/1 147/269/1 385/269/1
f 410/270/1 151/270/1 148/271/1
f 154/272/1 155/273/1 413/273/1
f 378/243/3 110/268/3 385/269/3
f 376/250/3 386/249/3 134/266/3
f 128/253/3 388/252/3 383/272/3
f 387/254/3 414/286/3 410/270/3
f 386/249/3 409/245/3 144/251/3
f 143/265/3 105/255/3 387/254/3
f 149/244/3 414/286/3 393/287/3
f 414/286/3 397/312/3 393/287/3
f 391/311/3 127/264/3 390/274/3
f 127/264/3 142/242/3 390/274/3
f 149/244/3 393/287/3 390/274/3
f 390/275/1 400/275/1 401/276/1
f 396/277/4 407/277/4 406/278/4
f 392/279/7 402/279/7 405/280/7
f 391/276/1 401/276/1 399/281/1
f 398/282/8 408/282/8 407/277/8
f 395/280/6 405/280/6 404/283/6
f 393/284/2 403/284/2 400/275/2
f 394/283/9 404/283/9 408/282/9
f 397/278/4 406/278/4 403/284/4
f 389/281/10 399/281/10 402/279/10
f 399/281/3 401/276/3 405/280/3
f 401/276/3 400/275/3 405/280/3
f 400/275/3 403/284/3 405/280/3
f 403/284/3 406/278/3 404/283/3
f 405/280/3 403/284/3 404/283/3
f 406/278/3 407/277/3 404/283/3
f 407/277/3 408/282/3 404/283/3
f 421/243/5 422/263/5 145/242/5
f 453/245/5 137/247/5 418/246/5
f 129/249/5 453/245/5 420/248/5
f 130/252/5 136/265/5 456/251/5
f 432/254/5 150/286/5 440/313/5
f 150/286/5 441/312/5 440/313/5
f 435/311/5 112/264/5 433/310/5
f 112/264/5 423/255/5 433/310/5
f 432/254/5 440/313/5 442/316/5
f 432/254/5 442/316/5 438/317/5
f 436/314/5 433/310/5 423/255/5
f 432/254/5 438/317/5 439/285/5
f 439/285/5 436/314/5 423/255/5
f 104/258/4 424/258/4 115/257/4
f 137/247/4 454/247/4 429/246/4
f 123/260/4 425/260/4 116/259/4
f 138/262/4 139/262/4 430/261/4
f 422/263/5 104/258/5 113/257/5
f 138/262/5 124/261/5 423/255/5
f 136/265/5 123/260/5 114/259/5
f 427/267/1 118/267/1 455/266/1
f 117/269/1 457/269/1 152/268/1
f 141/270/1 126/271/1 458/271/1
f 125/273/1 146/273/1 153/272/1
f 117/269/5 426/268/5 421/243/5
f 419/250/5 427/267/5 140/266/5
f 431/253/5 125/273/5 428/272/5
f 432/254/5 126/271/5 141/270/5
f 129/249/5 431/253/5 456/251/5
f 130/252/5 432/254/5 423/255/5
f 441/312/5 150/286/5 437/287/5
f 150/286/5 131/244/5 437/287/5
f 145/242/5 112/264/5 434/274/5
f 112/264/5 435/311/5 434/274/5
f 145/242/5 434/274/5 437/287/5
f 445/276/1 444/275/1 434/275/1
f 450/278/4 451/277/4 440/277/4
f 449/288/7 446/279/7 436/279/7
f 443/281/1 445/276/1 435/276/1
f 451/277/8 452/282/8 442/282/8
f 448/289/6 449/288/6 439/288/6
f 444/275/2 447/284/2 437/284/2
f 452/282/9 448/289/9 438/289/9
f 447/284/4 450/278/4 441/278/4
f 446/279/10 443/281/10 433/281/10
f 444/275/5 445/276/5 449/288/5
f 445/276/5 443/281/5 449/288/5
f 443/281/5 446/279/5 449/288/5
f 449/288/5 448/289/5 447/284/5
f 448/289/5 452/282/5 451/277/5
f 450/278/5 448/289/5 451/277/5
f 450/278/5 447/284/5 448/289/5
f 468/24/11 467/23/11 466/25/11
f 464/3/12 463/2/12 470/18/12
f 472/19/11 471/18/11 462/2/11
f 460/10/12 459/29/12 474/28/12
f 460/10/1 3/10/1 5/6/1
f 5/6/1 21/6/1 460/10/1
