# Blender 4.4.0
# www.blender.org
mtllib Bld_01_Fence_Wood_Gate_Single_Long_Worned_01.mtl
o Bld_01_Fence_Wood_Gate_Single_Long_Worned_01
v -1.857626 0.085061 -0.032134
v -1.742370 0.085061 -0.032134
v -1.857626 0.085061 0.057629
v -1.742370 0.085061 0.057629
v -1.857626 1.120910 0.057629
v -1.857626 1.120910 -0.032134
v -1.742370 1.120910 0.057629
v -0.441422 0.804383 -0.007652
v -0.172883 0.982221 -0.007651
v -1.742370 0.993238 0.033147
v -0.172883 0.993238 0.033147
v -1.742370 1.089857 0.033147
v -1.742370 1.089857 -0.007651
v -0.172883 1.089857 -0.007651
v -0.172883 1.089857 0.033147
v -1.742370 0.103381 -0.007651
v -1.742370 0.103381 0.033147
v -0.172883 0.103381 0.033147
v -1.742370 0.200000 0.033147
v -1.742370 0.200000 -0.007651
v -0.172883 0.200000 -0.007651
v -0.172883 0.200000 0.033147
v -1.743540 0.356445 -0.007651
v -0.170843 0.452666 -0.007651
v -1.743540 0.356445 0.033147
v -0.170843 0.443455 0.033147
v -1.744581 0.453155 0.033147
v -1.744581 0.446338 -0.007651
v -0.169769 0.540281 -0.007651
v -0.169769 0.540281 0.033147
v -1.742370 0.696619 -0.007651
v -0.172883 0.704408 -0.007651
v -1.742370 0.696619 0.033147
v -0.172883 0.696619 0.033147
v -1.742370 0.793238 0.033147
v -1.742370 0.793238 -0.007651
v -0.172883 0.793238 -0.007651
v -0.172883 0.793238 0.033147
v -0.172883 0.085061 -0.032134
v -0.057627 0.085061 -0.032134
v -0.172883 0.085061 0.057629
v -0.057627 0.085061 0.057629
v -0.172883 1.120910 0.057629
v -0.057627 1.120910 -0.032134
v -0.057627 1.120910 0.057629
v -1.747909 0.097269 -0.021615
v -0.170386 0.951076 -0.021615
v -1.747909 0.097269 -0.007652
v -0.170386 0.951076 -0.007652
v -1.745357 0.232291 -0.007652
v -0.170880 1.083234 -0.021615
v -0.170880 1.083234 -0.007652
v -0.441422 0.804383 -0.021615
v -1.459544 0.993238 0.033147
v -1.459544 1.089857 0.033147
v -1.459544 1.089857 -0.007651
v -1.428244 1.081884 -0.007651
v -1.490845 1.089857 -0.007651
v -1.490845 1.089857 0.033147
v -1.428244 1.081884 0.033147
v -1.742370 0.993238 0.007295
v -1.742370 1.008185 -0.007651
v -1.459544 1.008185 -0.007651
v -1.459544 0.993238 0.007295
v -1.189090 0.982221 -0.007651
v -0.441393 0.927315 -0.007652
v -0.441393 0.927315 -0.021615
v -0.414548 0.951541 -0.021615
v -0.441400 0.906518 -0.021615
v -0.468238 0.922524 -0.007652
v -0.414548 0.951541 -0.007652
v -0.441400 0.906518 -0.007652
v -1.745504 0.224501 -0.021615
v -1.745357 0.232291 -0.014832
v -0.468238 0.922524 -0.014832
v -0.461455 0.918479 -0.021615
v -0.827511 0.497075 -0.007651
v -0.827511 0.503892 0.033147
v -0.841588 0.406346 -0.007651
v -0.769346 0.419554 -0.007651
v -0.769346 0.410343 0.033147
v -0.841588 0.406346 0.033147
v -0.827702 0.411862 -0.007651
v -0.827702 0.411862 0.033147
v -0.800563 1.065952 -0.007651
v -0.800563 1.065952 0.033147
v -1.578123 0.704408 -0.007651
v -1.578123 0.696619 0.033147
v -1.578123 0.787352 0.033147
v -1.578123 0.787352 -0.007651
v -1.492407 0.793238 -0.007651
v -1.592250 0.794865 -0.007651
v -1.608629 0.363909 -0.007651
v -1.592250 0.794865 0.033147
v -1.492407 0.793238 0.033147
v -1.608629 0.363909 0.033147
v -1.616205 0.451331 0.033147
v -1.616205 0.444514 -0.007651
v -1.634406 0.442288 0.033147
v -1.598004 0.461264 0.033147
v -1.598004 0.457253 -0.007651
v -1.634406 0.452433 -0.007651
v -1.096528 0.103381 0.033147
v -1.096528 0.195786 0.033147
v -1.096528 0.195786 -0.007651
v -1.054635 0.200000 -0.007651
v -1.116108 0.200000 -0.007651
v -1.116108 0.200000 0.033147
v -1.054635 0.200000 0.033147
v -0.172883 0.109607 -0.007651
v -0.172883 0.103381 -0.001425
v -1.096528 0.103381 -0.001425
v -1.096528 0.109607 -0.007651
v -1.191422 0.103381 -0.007651
v -0.165851 0.572129 -0.032134
v -0.172883 0.572129 -0.025102
v -0.172883 0.365355 -0.032134
v -0.169588 0.633841 -0.021992
v -0.162557 0.633841 -0.029023
v -0.172883 0.777219 -0.032134
v -0.172883 1.091600 -0.032134
v -0.084864 1.120910 -0.032134
v -0.172883 1.120910 -0.002824
v -1.742370 1.081897 -0.032134
v -1.742370 1.120910 0.021077
v -1.781383 1.120910 -0.032134
v -1.742370 0.330860 -0.023364
v -1.751141 0.330860 -0.032134
v -1.742370 0.294847 -0.032134
v -1.751141 0.472463 -0.032134
v -1.742370 0.472463 -0.023364
v -1.742370 0.589268 -0.032134
vn -0.0000 -1.0000 -0.0000
vn -0.0000 -0.0000 1.0000
vn -0.0000 1.0000 -0.0000
vn -1.0000 -0.0000 -0.0000
vn -0.0000 -0.0000 -1.0000
vn -0.0514 0.9939 -0.0977
vn -0.0647 0.9843 -0.1645
vn 0.0552 -0.9985 -0.0000
vn -0.0000 -0.9823 -0.1875
vn -0.0108 0.9999 -0.0000
vn -0.0296 -0.0000 -0.9996
vn 1.0000 -0.0000 -0.0000
vn 0.4760 -0.8795 -0.0000
vn -0.6700 0.7424 -0.0000
vn -0.4755 0.8797 -0.0000
vn 0.2469 0.9691 -0.0000
vn -0.0381 0.9993 -0.0000
vn -0.0000 -0.9654 0.2607
vn -0.0677 -0.7055 -0.7055
vn -0.0000 -0.7071 -0.7071
vn -0.1757 0.9844 -0.0000
vn -0.2924 0.6639 -0.6883
vn -0.3362 0.6221 -0.7071
vn 0.0539 -0.9740 -0.2199
vn -0.4772 0.8746 -0.0860
vn 0.3692 -0.9294 -0.0000
vn 0.1275 -0.9675 -0.2184
vn 0.0254 0.9997 -0.0000
vn -0.0685 0.9976 -0.0000
vn 0.4696 0.8829 -0.0000
vn 0.3943 0.9064 -0.1515
vn -0.0545 0.9849 -0.1646
vn -0.1001 0.9950 -0.0000
vn 0.2104 0.9776 -0.0000
vn 0.0463 -0.7063 -0.7063
vn -0.7069 0.0240 -0.7069
vn -0.7056 -0.0661 -0.7056
vn -0.7052 0.0732 -0.7052
vn -0.2292 0.6883 -0.6883
vn -0.9711 0.0400 0.2354
vn 0.6278 0.6278 -0.4603
vn 0.6968 0.1697 -0.6969
vn 0.7061 -0.0530 -0.7061
vn 0.7071 -0.0000 -0.7071
vn -0.0552 0.9985 -0.0000
vn 0.1798 0.0399 -0.9829
vn 0.0532 -0.0178 -0.9984
vn -0.0407 -0.9992 -0.0000
vn -0.5681 0.8117 -0.1356
vn -0.0260 -0.9997 -0.0000
vn 0.0465 -0.9812 -0.1873
vn -0.4343 0.8741 0.2174
vn 0.0953 0.9660 0.2402
vn -0.9991 -0.0000 -0.0413
vn -0.9975 -0.0180 0.0691
vt 0.577737 0.805862
vt 0.577737 0.805862
vt 0.577737 0.824772
vt 0.577737 0.824772
vt 0.577737 0.824772
vt 0.574598 0.848905
vt 0.574599 0.853420
vt 0.574599 0.848889
vt 0.574597 0.852828
vt 0.574599 0.849957
vt 0.574596 0.849957
vt 0.574599 0.840165
vt 0.574595 0.843478
vt 0.574595 0.840165
vt 0.574594 0.853647
vt 0.574595 0.853647
vt 0.574596 0.819827
vt 0.574596 0.819827
vt 0.574594 0.819827
vt 0.574594 0.823140
vt 0.574596 0.823140
vt 0.574595 0.832097
vt 0.574597 0.833324
vt 0.574595 0.831959
vt 0.574597 0.833558
vt 0.574599 0.834806
vt 0.574597 0.830351
vt 0.574597 0.830214
vt 0.574597 0.830403
vt 0.574595 0.828759
vt 0.574599 0.840433
vt 0.574595 0.840433
vt 0.574595 0.831794
vt 0.574594 0.828503
vt 0.574594 0.843478
vt 0.574595 0.843534
vt 0.577733 0.806934
vt 0.577733 0.806934
vt 0.577733 0.823805
vt 0.577733 0.815872
vt 0.574598 0.843860
vt 0.574598 0.847362
vt 0.574598 0.848075
vt 0.574594 0.850335
vt 0.574595 0.850335
vt 0.574595 0.853374
vt 0.574599 0.853647
vt 0.574595 0.843276
vt 0.574594 0.840165
vt 0.574599 0.850335
vt 0.574595 0.850847
vt 0.574594 0.850847
vt 0.574594 0.824247
vt 0.574598 0.847910
vt 0.574594 0.819618
vt 0.574598 0.847772
vt 0.574594 0.823980
vt 0.574597 0.830667
vt 0.574599 0.831486
vt 0.574595 0.831756
vt 0.574596 0.820041
vt 0.574599 0.831802
vt 0.574599 0.843478
vt 0.574595 0.831522
vt 0.574594 0.831819
vt 0.574594 0.831585
vt 0.574596 0.822995
vt 0.574596 0.823140
vt 0.574599 0.823140
vt 0.574599 0.819827
vt 0.574599 0.820041
vt 0.577733 0.814867
vt 0.577733 0.811499
vt 0.577733 0.818207
vt 0.577733 0.823328
vt 0.577733 0.823805
vt 0.577737 0.824060
vt 0.577737 0.812934
vt 0.577737 0.815067
vt 0.577737 0.810349
vt 0.577737 0.809692
vt 0.574595 0.831446
s 0
usemtl Texture_Map
f 2/1/1 3/2/1 1/2/1
f 7/3/2 3/2/2 4/1/2
f 5/4/3 125/3/3 126/5/3
f 5/4/4 1/2/4 3/2/4
f 68/6/5 51/7/5 47/8/5
f 85/9/5 9/10/5 65/11/5
f 34/12/2 95/13/2 88/14/2
f 12/15/3 58/16/3 13/15/3
f 114/17/1 103/18/1 17/19/1
f 19/20/3 107/21/3 20/20/3
f 100/22/6 77/23/6 101/24/6
f 78/25/7 29/26/7 77/23/7
f 81/27/5 82/28/5 84/29/5
f 93/30/8 82/28/8 96/30/8
f 32/31/9 88/14/9 87/32/9
f 102/33/5 101/24/5 93/30/5
f 23/34/8 96/30/8 25/34/8
f 35/35/10 92/36/10 36/35/10
f 40/37/1 41/38/1 39/38/1
f 44/39/11 40/37/11 119/40/11
f 45/39/2 41/38/2 42/37/2
f 44/39/12 42/37/12 40/37/12
f 47/8/13 8/41/13 53/41/13
f 8/41/2 71/6/2 72/42/2
f 67/43/14 71/6/14 68/6/14
f 71/6/15 51/7/15 68/6/15
f 59/16/2 10/44/2 54/45/2
f 56/16/16 60/46/16 57/46/16
f 86/9/17 14/47/17 85/9/17
f 59/16/2 60/46/2 55/16/2
f 88/14/2 89/48/2 94/36/2
f 31/49/5 92/36/5 87/32/5
f 58/16/3 55/16/3 56/16/3
f 54/45/18 65/11/18 11/50/18
f 63/51/19 65/11/19 64/45/19
f 62/52/20 64/45/20 61/44/20
f 64/45/1 10/44/1 61/44/1
f 50/53/2 8/41/2 70/54/2
f 75/54/21 66/43/21 67/43/21
f 53/41/13 48/55/13 46/55/13
f 72/42/2 66/43/2 70/54/2
f 69/42/5 67/43/5 68/6/5
f 76/56/5 69/42/5 53/41/5
f 75/54/22 67/43/22 76/56/22
f 73/57/23 75/54/23 76/56/23
f 50/53/15 75/54/15 74/53/15
f 80/58/24 26/59/24 81/27/24
f 23/34/5 102/33/5 93/30/5
f 101/24/25 97/60/25 100/22/25
f 80/58/5 79/28/5 77/23/5
f 107/21/5 113/61/5 114/17/5
f 82/28/26 83/29/26 84/29/26
f 80/58/5 29/26/5 24/62/5
f 81/27/27 83/29/27 80/58/27
f 60/46/28 85/9/28 57/46/28
f 94/36/2 33/49/2 88/14/2
f 90/48/29 95/13/29 91/13/29
f 95/13/3 37/63/3 91/13/3
f 31/49/1 88/14/1 33/49/1
f 87/32/5 90/48/5 91/13/5
f 92/36/30 89/48/30 90/48/30
f 91/13/5 32/31/5 87/32/5
f 82/28/2 100/22/2 96/30/2
f 102/33/31 97/60/31 98/64/31
f 27/65/32 102/33/32 28/66/32
f 108/21/2 17/19/2 103/18/2
f 105/67/33 109/68/33 106/68/33
f 109/68/3 21/69/3 106/68/3
f 107/21/5 106/68/5 113/61/5
f 107/21/34 104/67/34 105/67/34
f 111/70/1 103/18/1 112/18/1
f 112/18/35 114/17/35 113/61/35
f 113/61/20 111/70/20 112/18/20
f 106/68/5 110/71/5 113/61/5
f 115/72/36 117/73/36 116/72/36
f 118/40/37 120/74/37 119/40/37
f 115/72/38 118/40/38 119/40/38
f 45/39/3 44/39/3 122/39/3
f 121/75/39 123/76/39 122/39/39
f 118/40/40 116/72/40 41/38/40
f 124/77/41 126/5/41 125/3/41
f 131/78/12 132/79/12 7/3/12
f 127/80/42 129/81/42 128/80/42
f 130/78/43 132/79/43 131/78/43
f 128/80/44 131/78/44 127/80/44
f 128/80/5 129/81/5 1/2/5
f 57/46/5 58/16/5 56/16/5
f 62/52/5 58/16/5 63/51/5
f 86/9/2 60/46/2 54/45/2
f 100/22/2 99/82/2 96/30/2
f 99/82/2 25/34/2 96/30/2
f 30/26/2 81/27/2 26/59/2
f 101/24/5 79/28/5 93/30/5
f 108/21/5 109/68/5 104/67/5
f 18/70/2 109/68/2 103/18/2
f 2/1/1 4/1/1 3/2/1
f 7/3/2 5/4/2 3/2/2
f 126/5/3 6/4/3 5/4/3
f 5/4/3 7/3/3 125/3/3
f 5/4/4 6/4/4 1/2/4
f 47/8/5 53/41/5 68/6/5
f 53/41/5 69/42/5 68/6/5
f 65/11/5 63/51/5 57/46/5
f 85/9/5 14/47/5 9/10/5
f 65/11/5 57/46/5 85/9/5
f 34/12/2 38/63/2 95/13/2
f 12/15/3 59/16/3 58/16/3
f 17/19/1 16/19/1 114/17/1
f 114/17/1 112/18/1 103/18/1
f 19/20/3 108/21/3 107/21/3
f 100/22/32 78/25/32 77/23/32
f 78/25/45 30/26/45 29/26/45
f 81/27/2 78/25/2 82/28/2
f 93/30/8 79/28/8 82/28/8
f 32/31/9 34/12/9 88/14/9
f 102/33/2 98/64/2 101/24/2
f 23/34/8 93/30/8 96/30/8
f 35/35/10 94/36/10 92/36/10
f 40/37/1 42/37/1 41/38/1
f 40/37/5 39/38/5 117/73/5
f 117/73/5 115/72/5 40/37/5
f 115/72/46 119/40/46 40/37/46
f 119/40/47 120/74/47 44/39/47
f 120/74/5 121/75/5 122/39/5
f 44/39/5 120/74/5 122/39/5
f 45/39/2 43/76/2 41/38/2
f 44/39/12 45/39/12 42/37/12
f 47/8/13 49/8/13 8/41/13
f 8/41/2 49/8/2 71/6/2
f 49/8/2 52/7/2 71/6/2
f 67/43/14 66/43/14 71/6/14
f 71/6/15 52/7/15 51/7/15
f 59/16/2 12/15/2 10/44/2
f 56/16/16 55/16/16 60/46/16
f 86/9/17 15/47/17 14/47/17
f 59/16/2 54/45/2 60/46/2
f 88/14/2 95/13/2 89/48/2
f 31/49/5 36/35/5 92/36/5
f 58/16/3 59/16/3 55/16/3
f 64/45/48 65/11/48 54/45/48
f 65/11/18 9/10/18 11/50/18
f 62/52/20 63/51/20 64/45/20
f 64/45/1 54/45/1 10/44/1
f 48/55/2 8/41/2 50/53/2
f 8/41/2 72/42/2 70/54/2
f 75/54/21 70/54/21 66/43/21
f 53/41/13 8/41/13 48/55/13
f 72/42/2 71/6/2 66/43/2
f 69/42/5 76/56/5 67/43/5
f 53/41/5 46/55/5 73/57/5
f 73/57/5 76/56/5 53/41/5
f 73/57/23 74/53/23 75/54/23
f 50/53/15 70/54/15 75/54/15
f 80/58/24 24/62/24 26/59/24
f 23/34/5 28/66/5 102/33/5
f 101/24/49 98/64/49 97/60/49
f 80/58/2 83/29/2 79/28/2
f 114/17/5 16/19/5 20/20/5
f 20/20/5 107/21/5 114/17/5
f 82/28/26 79/28/26 83/29/26
f 80/58/5 77/23/5 29/26/5
f 81/27/50 84/29/50 83/29/50
f 60/46/28 86/9/28 85/9/28
f 94/36/2 35/35/2 33/49/2
f 90/48/29 89/48/29 95/13/29
f 95/13/3 38/63/3 37/63/3
f 31/49/51 87/32/51 88/14/51
f 87/32/5 92/36/5 90/48/5
f 92/36/30 94/36/30 89/48/30
f 91/13/5 37/63/5 32/31/5
f 82/28/2 78/25/2 100/22/2
f 102/33/52 99/82/52 97/60/52
f 27/65/53 99/82/53 102/33/53
f 108/21/2 19/20/2 17/19/2
f 105/67/33 104/67/33 109/68/33
f 109/68/3 22/69/3 21/69/3
f 107/21/2 105/67/2 106/68/2
f 107/21/34 108/21/34 104/67/34
f 111/70/1 18/70/1 103/18/1
f 113/61/20 110/71/20 111/70/20
f 106/68/5 21/69/5 110/71/5
f 115/72/38 116/72/38 118/40/38
f 122/39/3 123/76/3 45/39/3
f 123/76/3 43/76/3 45/39/3
f 39/38/4 41/38/4 117/73/4
f 41/38/54 43/76/54 118/40/54
f 117/73/4 41/38/4 116/72/4
f 43/76/4 123/76/4 121/75/4
f 121/75/4 120/74/4 43/76/4
f 120/74/55 118/40/55 43/76/55
f 4/1/12 2/1/12 129/81/12
f 4/1/12 129/81/12 127/80/12
f 125/3/12 7/3/12 124/77/12
f 7/3/12 4/1/12 131/78/12
f 132/79/12 124/77/12 7/3/12
f 4/1/12 127/80/12 131/78/12
f 128/80/44 130/78/44 131/78/44
f 2/1/5 1/2/5 129/81/5
f 1/2/5 6/4/5 130/78/5
f 128/80/5 1/2/5 130/78/5
f 6/4/5 126/5/5 124/77/5
f 124/77/5 132/79/5 6/4/5
f 132/79/5 130/78/5 6/4/5
f 57/46/5 63/51/5 58/16/5
f 62/52/5 13/15/5 58/16/5
f 54/45/2 11/50/2 86/9/2
f 11/50/2 15/47/2 86/9/2
f 100/22/5 97/60/5 99/82/5
f 99/82/2 27/65/2 25/34/2
f 30/26/2 78/25/2 81/27/2
f 101/24/5 77/23/5 79/28/5
f 108/21/2 103/18/2 109/68/2
f 18/70/2 22/69/2 109/68/2
