# Blender 4.4.0
# www.blender.org
mtllib Bld_Well_03.mtl
o Bld_Well_Crank_03
v 1.301288 1.164282 0.018562
v 1.301288 1.164282 -0.019694
v 1.301288 1.412892 -0.032945
v 1.301288 1.432595 -0.018401
v 1.301288 1.412892 0.031813
v 1.301288 1.432595 0.017269
v 1.326286 1.164282 0.018562
v 1.326286 1.164282 -0.019694
v 1.326286 1.432595 -0.018401
v 1.326286 1.432595 0.017269
v 1.326286 1.412892 0.031813
v 1.326286 1.412892 -0.032945
v 1.170221 1.424219 -0.063571
v 1.170221 1.460937 -0.026206
v 1.170221 1.460480 0.026178
v 1.170221 1.423116 0.062895
v 1.170221 1.370732 0.062438
v 1.170221 1.334014 0.025074
v 1.170221 1.334472 -0.027310
v 1.170221 1.371836 -0.064027
v 1.238183 1.424219 -0.063571
v 1.238183 1.460937 -0.026206
v 1.238183 1.460480 0.026178
v 1.238183 1.423116 0.062895
v 1.238183 1.370732 0.062438
v 1.238183 1.334014 0.025074
v 1.238183 1.334472 -0.027310
v 1.238183 1.371836 -0.064027
v 1.238183 1.407667 -0.024574
v 1.238183 1.421658 -0.010335
v 1.238183 1.421484 0.009626
v 1.238183 1.407246 0.023617
v 1.238183 1.387285 0.023443
v 1.238183 1.373293 0.009205
v 1.238183 1.373467 -0.010756
v 1.238183 1.387705 -0.024748
v 1.332468 1.407667 -0.024574
v 1.332468 1.421658 -0.010335
v 1.332468 1.421484 0.009626
v 1.332468 1.407246 0.023617
v 1.332468 1.387285 0.023443
v 1.332468 1.373293 0.009205
v 1.332468 1.373467 -0.010756
v 1.332468 1.387705 -0.024748
v 1.326288 1.195913 -0.016030
v 1.326288 1.204925 -0.006859
v 1.326288 1.204813 0.005998
v 1.326288 1.195642 0.015010
v 1.326288 1.182785 0.014898
v 1.326288 1.173773 0.005727
v 1.326288 1.173885 -0.007130
v 1.326288 1.183056 -0.016141
v 1.425209 1.195122 -0.014167
v 1.425209 1.203049 -0.006101
v 1.425209 1.202950 0.005208
v 1.425209 1.194884 0.013134
v 1.425209 1.183575 0.013035
v 1.425209 1.175649 0.004969
v 1.425209 1.175748 -0.006340
v 1.425209 1.183814 -0.014266
vn -1.0000 -0.0000 -0.0000
vn 1.0000 -0.0000 -0.0000
vn -0.0000 -0.0532 -0.9986
vn -0.0000 0.5939 0.8045
vn -0.0000 -1.0000 -0.0000
vn -0.0000 0.5939 -0.8045
vn -0.0000 -0.0532 0.9986
vn -0.0000 1.0000 -0.0000
vn -0.0000 -0.7009 -0.7133
vn -0.0000 -0.7132 0.7009
vn -0.0000 0.7009 0.7133
vn -0.0000 0.7132 -0.7009
vn -0.0000 0.0087 -1.0000
vn -0.0000 -1.0000 -0.0087
vn -0.0000 -0.0087 1.0000
vn -0.0000 1.0000 0.0087
vn -0.0000 0.7133 -0.7009
vn -0.0000 -0.7009 -0.7132
vn 0.0189 -0.7131 0.7008
vn 0.0189 0.7008 0.7131
vn 0.0189 0.7131 -0.7008
vn 0.0189 0.0087 -0.9998
vn 0.0189 -0.9998 -0.0087
vn 0.0189 -0.0088 0.9998
vn 0.0189 0.9998 0.0087
vn 0.0189 -0.7008 -0.7132
vt 0.580922 0.832028
vt 0.582488 0.832028
vt 0.583030 0.937408
vt 0.580379 0.937408
vt 0.580975 0.945759
vt 0.582435 0.945759
vt 0.579107 0.920005
vt 0.580610 0.904167
vt 0.582754 0.903974
vt 0.584284 0.919537
vt 0.584302 0.941741
vt 0.582799 0.957579
vt 0.580655 0.957773
vt 0.579126 0.942209
vt 0.580722 0.935193
vt 0.580715 0.926732
vt 0.581288 0.920697
vt 0.582105 0.920623
vt 0.582695 0.935015
vt 0.581305 0.941124
vt 0.582687 0.926554
vt 0.582122 0.941050
vt 0.455559 0.656678
vt 0.456142 0.662609
vt 0.456149 0.671070
vt 0.455576 0.677105
vt 0.454759 0.677179
vt 0.454176 0.671248
vt 0.454169 0.662787
vt 0.454742 0.656752
vt 0.455416 0.659211
vt 0.455716 0.663366
vt 0.455792 0.663031
vt 0.455797 0.668481
vt 0.455395 0.671579
vt 0.455428 0.672368
vt 0.454901 0.672416
vt 0.454602 0.668261
vt 0.454526 0.668596
vt 0.454521 0.663146
vt 0.454598 0.663467
vt 0.454890 0.659259
vt 0.455386 0.660006
vt 0.455720 0.668160
vt 0.454932 0.671621
vt 0.454923 0.660048
s 0
usemtl Texture_Map
f 2/1/1 1/2/1 5/3/1
f 12/4/2 9/5/2 11/3/2
f 3/4/3 8/1/3 2/1/3
f 5/3/4 10/6/4 6/6/4
f 2/1/5 7/2/5 1/2/5
f 4/5/6 12/4/6 3/4/6
f 1/2/7 11/3/7 5/3/7
f 6/6/8 9/5/8 4/5/8
f 20/7/9 27/8/9 19/8/9
f 18/9/10 25/10/10 17/10/10
f 16/11/11 23/12/11 15/12/11
f 14/13/12 21/14/12 13/14/12
f 13/14/13 28/7/13 20/7/13
f 19/8/14 26/9/14 18/9/14
f 17/10/15 24/11/15 16/11/15
f 15/12/16 22/13/16 14/13/16
f 28/7/2 29/15/2 36/16/2
f 26/9/2 35/17/2 34/18/2
f 25/10/2 32/19/2 24/11/2
f 23/12/2 30/20/2 22/13/2
f 27/8/2 36/16/2 35/17/2
f 25/10/2 34/18/2 33/21/2
f 24/11/2 31/22/2 23/12/2
f 22/13/2 29/15/2 21/14/2
f 34/23/10 41/24/10 33/24/10
f 32/25/11 39/26/11 31/26/11
f 30/27/17 37/28/17 29/28/17
f 29/28/13 44/29/13 36/29/13
f 35/30/14 42/23/14 34/23/14
f 33/24/15 40/25/15 32/25/15
f 31/26/16 38/27/16 30/27/16
f 36/29/18 43/30/18 35/30/18
f 50/31/19 57/32/19 49/33/19
f 48/34/20 55/35/20 47/36/20
f 46/37/21 53/38/21 45/39/21
f 52/40/22 53/38/22 60/41/22
f 51/42/23 58/43/23 50/31/23
f 49/33/24 56/44/24 48/34/24
f 47/36/25 54/45/25 46/37/25
f 52/40/26 59/46/26 51/42/26
f 58/43/2 59/46/2 60/41/2
f 41/24/2 43/30/2 37/28/2
f 5/3/1 6/6/1 4/5/1
f 4/5/1 3/4/1 5/3/1
f 3/4/1 2/1/1 5/3/1
f 9/5/2 10/6/2 11/3/2
f 11/3/2 7/2/2 8/1/2
f 8/1/2 12/4/2 11/3/2
f 3/4/3 12/4/3 8/1/3
f 5/3/4 11/3/4 10/6/4
f 2/1/5 8/1/5 7/2/5
f 4/5/6 9/5/6 12/4/6
f 1/2/7 7/2/7 11/3/7
f 6/6/8 10/6/8 9/5/8
f 20/7/9 28/7/9 27/8/9
f 18/9/10 26/9/10 25/10/10
f 16/11/11 24/11/11 23/12/11
f 14/13/12 22/13/12 21/14/12
f 13/14/13 21/14/13 28/7/13
f 19/8/14 27/8/14 26/9/14
f 17/10/15 25/10/15 24/11/15
f 15/12/16 23/12/16 22/13/16
f 28/7/2 21/14/2 29/15/2
f 26/9/2 27/8/2 35/17/2
f 25/10/2 33/21/2 32/19/2
f 23/12/2 31/22/2 30/20/2
f 27/8/2 28/7/2 36/16/2
f 25/10/2 26/9/2 34/18/2
f 24/11/2 32/19/2 31/22/2
f 22/13/2 30/20/2 29/15/2
f 34/23/10 42/23/10 41/24/10
f 32/25/11 40/25/11 39/26/11
f 30/27/17 38/27/17 37/28/17
f 29/28/13 37/28/13 44/29/13
f 35/30/14 43/30/14 42/23/14
f 33/24/15 41/24/15 40/25/15
f 31/26/16 39/26/16 38/27/16
f 36/29/18 44/29/18 43/30/18
f 50/31/19 58/43/19 57/32/19
f 48/34/20 56/44/20 55/35/20
f 46/37/21 54/45/21 53/38/21
f 52/40/22 45/39/22 53/38/22
f 51/42/23 59/46/23 58/43/23
f 49/33/24 57/32/24 56/44/24
f 47/36/25 55/35/25 54/45/25
f 52/40/26 60/41/26 59/46/26
f 60/41/2 53/38/2 54/45/2
f 54/45/2 55/35/2 60/41/2
f 55/35/2 56/44/2 60/41/2
f 56/44/2 57/32/2 60/41/2
f 57/32/2 58/43/2 60/41/2
f 37/28/2 38/27/2 41/24/2
f 38/27/2 39/26/2 41/24/2
f 39/26/2 40/25/2 41/24/2
f 41/24/2 42/23/2 43/30/2
f 43/30/2 44/29/2 37/28/2
o Bld_Well_03
v 1.145294 3.058025 0.079647
v 1.145294 3.058025 -0.077449
v 1.145294 2.920653 -0.077449
v -1.162836 3.058025 0.079647
v -1.162836 2.920653 0.079647
v -1.162836 3.058025 -0.077449
v 1.021971 0.000000 0.075224
v 1.170221 0.000000 0.075224
v 1.021971 0.000000 -0.073027
v 1.170221 0.000000 -0.073027
v 1.021971 2.920653 -0.073027
v 1.021971 2.920653 0.075224
v 1.170221 2.920653 0.075224
v 1.170221 2.920653 -0.073027
v -1.030409 0.000000 0.075224
v -1.178659 0.000000 0.075224
v -1.030409 0.000000 -0.073027
v -1.178659 0.000000 -0.073027
v -1.030409 2.920653 -0.073027
v -1.030409 2.920653 0.075224
v -1.178659 2.920653 0.075224
v -1.178659 2.920653 -0.073027
v 0.003889 1.486443 -0.020887
v -0.012678 1.486443 -0.020742
v -0.024290 1.486443 -0.008925
v -0.024145 1.486443 0.007641
v -0.012329 1.486443 0.019253
v 0.004238 1.486443 0.019109
v 0.015850 1.486443 0.007292
v 0.015705 1.486443 -0.009274
v 0.003889 0.000000 -0.020887
v -0.012678 0.000000 -0.020742
v -0.024290 0.000000 -0.008925
v -0.024145 0.000000 0.007641
v -0.012329 0.000000 0.019253
v 0.004238 0.000000 0.019109
v 0.015850 0.000000 0.007292
v 0.015705 0.000000 -0.009274
v 1.037380 2.253931 0.741290
v 1.154812 2.253931 0.741290
v 1.037380 2.389656 0.611099
v 1.154812 2.389656 0.611099
v 1.037380 2.253931 -0.739092
v 1.154812 2.253931 -0.739092
v 1.037380 2.389656 -0.608901
v 1.154812 2.389656 -0.608901
v -1.045819 2.253931 0.741290
v -1.163250 2.253931 0.741290
v -1.045819 2.389656 0.611099
v -1.163250 2.389656 0.611099
v -1.045819 2.253931 -0.739092
v -1.163250 2.253931 -0.739092
v -1.045819 2.389656 -0.608901
v -1.163250 2.389656 -0.608901
v 1.061480 1.798872 0.075224
v 1.130712 1.798872 0.075224
v 1.061480 1.912977 0.075224
v 1.130712 1.912977 0.075224
v 1.063343 2.253931 0.315375
v 1.063343 2.253931 0.397293
v 1.128849 2.253931 0.397293
v 1.128849 2.253931 0.315375
v -1.069918 1.798872 0.075224
v -1.139150 1.798872 0.075224
v -1.069918 1.912977 0.075224
v -1.139150 1.912977 0.075224
v -1.071781 2.253931 0.315375
v -1.071781 2.253931 0.397293
v -1.137287 2.253931 0.397293
v -1.137287 2.253931 0.315375
v 1.061480 1.798872 -0.073026
v 1.130712 1.798872 -0.073026
v 1.061480 1.912977 -0.073026
v 1.130712 1.912977 -0.073026
v 1.063343 2.253931 -0.313177
v 1.063343 2.253931 -0.395095
v 1.128849 2.253931 -0.395095
v 1.128849 2.253931 -0.313177
v -1.069918 1.798872 -0.073026
v -1.139150 1.798872 -0.073026
v -1.069918 1.912977 -0.073026
v -1.139150 1.912977 -0.073026
v -1.071781 2.253931 -0.313177
v -1.071781 2.253931 -0.395095
v -1.137287 2.253931 -0.395095
v -1.137287 2.253931 -0.313177
v 1.037380 2.389656 -0.451752
v 1.037380 2.345828 -0.451752
v 1.037380 2.389656 -0.524158
v 1.037380 2.278966 -0.524158
v -1.045819 2.389656 -0.524158
v -1.045819 2.389656 -0.451752
v -1.045819 2.345828 -0.451752
v -1.045819 2.278965 -0.524158
v 1.037380 2.389656 0.398507
v 1.037380 2.345828 0.398507
v 1.037380 2.389656 0.470913
v 1.037380 2.278966 0.470913
v -1.045819 2.389656 0.470913
v -1.045819 2.389656 0.398507
v -1.045819 2.345828 0.398507
v -1.045819 2.278965 0.470913
v 1.046898 2.281601 0.816311
v 1.145294 2.281601 0.816311
v 1.046898 2.236934 0.753627
v 1.145294 2.236934 0.753627
v 1.046898 3.055308 0.001099
v 1.046898 3.213471 0.001099
v 1.145294 3.213471 0.001099
v 1.145294 3.055308 0.001099
v -1.055336 2.281601 0.816311
v -1.153732 2.281601 0.816311
v -1.055336 2.236934 0.753627
v -1.153732 2.236934 0.753627
v -1.055336 3.055308 0.001099
v -1.055336 3.213471 0.001099
v -1.153732 3.213471 0.001099
v -1.153732 3.055308 0.001099
v 1.046898 2.281601 -0.814113
v 1.145294 2.281601 -0.814113
v 1.046898 2.236934 -0.751429
v 1.145294 2.236934 -0.751429
v -1.055336 2.281601 -0.814113
v -1.153732 2.281601 -0.814113
v -1.055336 2.236934 -0.751429
v -1.153732 2.236934 -0.751429
v 1.053849 2.332588 0.766595
v -1.062287 2.332588 0.766595
v 1.052824 2.453147 -0.660469
v -1.061263 2.453147 -0.660469
v 1.046668 3.203026 0.001098
v 1.053617 2.328478 0.757714
v -1.055106 3.203026 0.001098
v -1.062055 2.328478 0.757714
v 1.052592 2.446815 -0.652896
v -1.061031 2.446815 -0.652896
v 1.021970 1.507816 -0.050965
v 1.021970 1.549211 -0.050604
v 1.021970 1.578227 -0.021078
v 1.021970 1.577865 0.020317
v 1.021970 1.548339 0.049333
v 1.021970 1.506944 0.048971
v 1.021970 1.477929 0.019445
v 1.021970 1.478290 -0.021950
v -1.030408 1.507816 -0.050965
v -1.030408 1.549211 -0.050604
v -1.030408 1.578226 -0.021078
v -1.030408 1.577865 0.020317
v -1.030408 1.548339 0.049333
v -1.030408 1.506944 0.048971
v -1.030408 1.477929 0.019445
v -1.030408 1.478290 -0.021950
v -0.193659 1.477929 0.019445
v -0.042107 1.477929 0.019445
v -0.269434 1.578226 -0.021078
v 0.290615 1.507816 -0.050965
v 0.290615 1.549211 -0.050604
v -0.269434 1.478290 -0.021950
v 0.290615 1.478290 -0.021950
v -0.269434 1.477929 0.019445
v -0.042107 1.478290 -0.021950
v 0.033669 1.478290 -0.021950
v 0.109445 1.478290 -0.021950
v 0.214840 1.549211 -0.050604
v -0.042107 1.549211 -0.050604
v -0.117883 1.549211 -0.050604
v -0.193659 1.549211 -0.050604
v -0.117883 1.578226 -0.021078
v 0.109445 1.577865 0.020317
v -0.042107 1.577865 0.020317
v -0.042107 1.548339 0.049333
v 0.214840 1.506944 0.048971
v 0.109445 1.506944 0.048971
v -0.042107 1.506944 0.048971
v -0.117883 1.506944 0.048971
v -0.193659 1.506944 0.048971
v -0.117883 1.507816 -0.050965
v 0.033669 1.507816 -0.050965
v 0.109445 1.507816 -0.050965
v -0.193659 1.478290 -0.021950
v -0.117883 1.477929 0.019445
v 0.033669 1.578227 -0.021078
v 0.109445 1.578227 -0.021078
v -0.193659 1.578226 -0.021078
v 0.290615 1.477929 0.019445
v 0.214840 1.477929 0.019445
v 0.109445 1.477929 0.019445
v 0.033669 1.477929 0.019445
v 0.109445 1.549211 -0.050604
v 0.033669 1.549211 -0.050604
v -0.117883 1.478290 -0.021950
v -0.042107 1.578226 -0.021078
v 0.214840 1.478290 -0.021950
v -0.269434 1.549211 -0.050604
v 0.214840 1.578227 -0.021078
v 0.290615 1.578227 -0.021078
v -0.193659 1.577865 0.020317
v -0.269434 1.577865 0.020317
v -0.269434 1.548339 0.049333
v 0.214840 1.548339 0.049333
v 0.290615 1.548339 0.049333
v 0.290615 1.577865 0.020317
v -0.269434 1.506944 0.048971
v 0.290615 1.506944 0.048971
v -0.269434 1.507816 -0.050965
v 0.214840 1.507816 -0.050965
v 0.214840 1.577865 0.020317
v 0.033669 1.577865 0.020317
v -0.117883 1.577865 0.020317
v -0.193659 1.548339 0.049333
v -0.117883 1.548339 0.049333
v 0.033669 1.548339 0.049333
v 0.109445 1.548339 0.049333
v 0.033669 1.506944 0.048971
v -0.193659 1.507816 -0.050965
v -0.042107 1.507816 -0.050965
v -0.042107 1.550406 -0.053419
v -0.117883 1.550406 -0.053419
v 0.290615 1.550406 -0.053419
v 0.214840 1.550406 -0.053419
v 0.033669 1.475475 -0.023145
v 0.109445 1.475475 -0.023145
v -0.269434 1.475475 -0.023145
v -0.193659 1.475475 -0.023145
v -0.042107 1.475093 0.020591
v -0.117883 1.475093 0.020591
v 0.033669 1.581062 -0.022223
v 0.109445 1.581062 -0.022223
v -0.269434 1.581062 -0.022223
v -0.193659 1.581062 -0.022223
v 0.290615 1.475093 0.020591
v 0.214840 1.475093 0.020591
v 0.109445 1.475093 0.020591
v 0.033669 1.475093 0.020591
v 0.109445 1.550406 -0.053419
v 0.033669 1.550406 -0.053419
v -0.117883 1.475475 -0.023145
v -0.042107 1.475475 -0.023145
v -0.117883 1.581062 -0.022223
v -0.042107 1.581062 -0.022223
v -0.193659 1.475093 0.020591
v -0.269434 1.475093 0.020591
v 0.214840 1.475475 -0.023145
v 0.290615 1.475475 -0.023145
v -0.193659 1.550406 -0.053419
v -0.269434 1.550406 -0.053419
v 0.214840 1.581062 -0.022223
v 0.290615 1.581062 -0.022223
v -0.193659 1.580680 0.021512
v -0.269434 1.580680 0.021512
v -0.269434 1.549485 0.052168
v 0.214840 1.549485 0.052168
v 0.290615 1.549485 0.052168
v 0.290615 1.580680 0.021512
v -0.193659 1.505749 0.051786
v -0.269434 1.505749 0.051786
v 0.290615 1.505749 0.051786
v -0.269434 1.506671 -0.053801
v 0.214840 1.506671 -0.053801
v 0.290615 1.506671 -0.053801
v 0.214840 1.580680 0.021512
v 0.109445 1.580680 0.021512
v 0.033669 1.580680 0.021512
v -0.042107 1.580680 0.021512
v -0.117883 1.580680 0.021512
v -0.193659 1.549485 0.052168
v -0.117883 1.549485 0.052168
v -0.042107 1.549485 0.052168
v 0.033669 1.549485 0.052168
v 0.109445 1.549485 0.052168
v 0.214840 1.505749 0.051786
v 0.109445 1.505749 0.051786
v 0.033669 1.505749 0.051786
v -0.042107 1.505749 0.051786
v -0.117883 1.505749 0.051786
v -0.193659 1.506671 -0.053801
v -0.117883 1.506671 -0.053801
v -0.042107 1.506671 -0.053801
v 0.033669 1.506671 -0.053801
v 0.109445 1.506671 -0.053801
v 1.046898 2.293689 0.793155
v 1.046898 2.256749 0.751648
v 1.046898 2.335196 0.756214
v 1.046898 2.298256 0.714708
v -1.055336 2.293689 0.793155
v -1.055336 2.256749 0.751648
v -1.055336 2.335196 0.756214
v -1.055336 2.298255 0.714707
v 1.046898 2.707213 0.424720
v 1.046898 2.670272 0.383213
v 1.046898 2.748719 0.387780
v 1.046898 2.711779 0.346273
v -1.055336 2.707212 0.424720
v -1.055336 2.670272 0.383213
v -1.055336 2.748719 0.387779
v -1.055336 2.711779 0.346273
v 1.046898 2.293689 -0.790957
v 1.046898 2.256749 -0.749450
v 1.046898 2.335196 -0.754017
v 1.046898 2.298255 -0.712510
v -1.055336 2.293689 -0.790957
v -1.055336 2.256749 -0.749450
v -1.055336 2.335196 -0.754016
v -1.055336 2.298255 -0.712510
v 1.046898 2.707213 -0.422522
v 1.046898 2.670272 -0.381015
v 1.046898 2.748719 -0.385582
v 1.046898 2.711779 -0.344075
v -1.055336 2.707212 -0.422522
v -1.055336 2.670272 -0.381015
v -1.055336 2.748719 -0.385581
v -1.055336 2.711779 -0.344075
v 0.892449 0.940150 0.590438
v -0.886823 0.940150 0.590438
v -0.886823 0.000000 0.590438
v 0.892449 0.000000 0.590438
v -0.886823 0.940150 0.460917
v -0.886823 0.134307 0.590438
v -0.886823 0.268614 0.590438
v -0.886823 0.402921 0.590438
v -0.886823 0.537228 0.590438
v 1.021971 0.000000 0.590438
v 1.021971 0.940150 0.590438
v 1.021971 0.805843 0.460917
v 1.021971 0.671535 0.460917
v 1.021971 0.537228 0.460917
v -1.016344 0.940150 0.590438
v -1.016344 0.000000 0.590438
v -1.016344 0.805843 0.590438
v -1.016344 0.268614 0.460917
v -1.016344 0.537228 0.590438
v 0.892449 0.940150 -0.590626
v -0.886823 0.940150 -0.590626
v -0.886823 0.000000 -0.590626
v 0.892449 0.000000 -0.590626
v -0.886823 0.000000 -0.461105
v -0.886823 0.537228 -0.461105
v 0.892449 0.134307 -0.461105
v -0.886823 0.134307 -0.590626
v -0.886823 0.268614 -0.590626
v -0.886823 0.402921 -0.590626
v -0.886823 0.537228 -0.590626
v -0.886823 0.671535 -0.590626
v -0.886823 0.805843 -0.590626
v 1.021971 0.000000 -0.590626
v 1.021971 0.940150 -0.590626
v 1.021971 0.940150 -0.461105
v 1.021971 0.134307 -0.461105
v 1.021971 0.537228 -0.590626
v 1.021971 0.268614 -0.590626
v 1.021971 0.805843 -0.461105
v 1.021971 0.671535 -0.461105
v -1.016344 0.940150 -0.461105
v -1.016344 0.940150 -0.590626
v -1.016344 0.000000 -0.590626
v -1.016344 0.000000 -0.461105
v -1.016344 0.805843 -0.590626
v -1.016344 0.134307 -0.461105
v -1.016344 0.402921 -0.461105
v -1.016344 0.537228 -0.461105
v -1.016344 0.671535 -0.461105
v -1.016344 0.134307 -0.590626
v -1.016344 0.268614 -0.590626
v -1.016344 0.402921 -0.590626
v -1.016344 0.671535 -0.590626
v 1.021971 0.940150 0.460917
v 1.021971 0.000000 0.460917
v 1.021971 0.000000 -0.461105
v 0.892449 0.000000 -0.461105
v 0.892449 0.000000 0.460917
v 0.892449 0.940150 -0.461105
v 0.892449 0.940150 0.460917
v 1.021971 0.537228 -0.461105
v 1.021971 0.402921 -0.461105
v 1.021971 0.268614 -0.461105
v 0.892449 0.134307 0.460917
v 0.892449 0.268614 0.460917
v 0.892449 0.402921 0.460917
v 0.892449 0.537228 0.460917
v 0.892449 0.671535 0.460917
v 0.892449 0.805843 0.460917
v 0.892449 0.805843 -0.461105
v 0.892449 0.671535 -0.461105
v 0.892449 0.537228 -0.461105
v 0.892449 0.402921 -0.461105
v 0.892449 0.268614 -0.461105
v 1.021971 0.134307 0.460917
v 1.021971 0.268614 0.460917
v 1.021971 0.402921 0.460917
v 0.892449 0.134307 0.590438
v 0.892449 0.268614 0.590438
v 0.892449 0.402921 0.590438
v 0.892449 0.537228 0.590438
v 0.892449 0.671535 0.590438
v 0.892449 0.805843 0.590438
v 1.021971 0.134307 0.590438
v 1.021971 0.268614 0.590438
v 1.021971 0.402921 0.590438
v 1.021971 0.537228 0.590438
v 1.021971 0.671535 0.590438
v 1.021971 0.805843 0.590438
v 1.021971 0.805843 -0.590626
v 1.021971 0.671535 -0.590626
v 1.021971 0.402921 -0.590626
v 1.021971 0.134307 -0.590626
v 0.892449 0.805843 -0.590626
v 0.892449 0.671535 -0.590626
v 0.892449 0.537228 -0.590626
v 0.892449 0.402921 -0.590626
v 0.892449 0.268614 -0.590626
v 0.892449 0.134307 -0.590626
v -1.016344 0.940150 0.460917
v -1.016344 0.000000 0.460917
v -0.886823 0.000000 0.460917
v -0.886823 0.940150 -0.461105
v -1.016344 0.805843 -0.461105
v -1.016344 0.268614 -0.461105
v -0.886823 0.134307 0.460917
v -0.886823 0.268614 0.460917
v -0.886823 0.402921 0.460917
v -0.886823 0.537228 0.460917
v -0.886823 0.671535 0.460917
v -0.886823 0.805843 0.460917
v -0.886823 0.805843 -0.461105
v -0.886823 0.671535 -0.461105
v -0.886823 0.402921 -0.461105
v -0.886823 0.268614 -0.461105
v -0.886823 0.134307 -0.461105
v -1.016344 0.134307 0.460917
v -1.016344 0.402921 0.460917
v -1.016344 0.537228 0.460917
v -1.016344 0.671535 0.460917
v -1.016344 0.805843 0.460917
v -0.886823 0.671535 0.590438
v -0.886823 0.805843 0.590438
v -1.016344 0.134307 0.590438
v -1.016344 0.268614 0.590438
v -1.016344 0.402921 0.590438
v -1.016344 0.671535 0.590438
v -1.016344 0.537228 -0.590626
v 1.142506 2.261137 0.874796
v -1.150945 2.261137 0.874796
v 1.142506 2.237496 0.847471
v -1.150945 2.237496 0.847471
v 1.138740 2.721976 0.463763
v -1.147178 2.721976 0.463763
v 1.138740 2.711513 0.437375
v 1.134973 3.192224 0.063277
v -1.143412 3.192224 0.063277
v 1.134973 3.185529 0.027280
v -1.143412 3.185529 0.027280
v 1.138740 2.731385 0.474311
v -1.147178 2.731385 0.474311
v -1.147178 2.711513 0.437376
v 0.811921 2.261137 0.874796
v 0.817819 2.261137 0.874796
v 0.484286 2.261137 0.874796
v 0.490183 2.261137 0.874796
v 0.156650 2.261137 0.874796
v 0.162547 2.261137 0.874796
v -0.170986 2.261137 0.874796
v -0.165089 2.261137 0.874796
v -0.498622 2.261137 0.874796
v -0.492724 2.261137 0.874796
v -0.826258 2.261137 0.874796
v -0.820360 2.261137 0.874796
v 0.814870 2.237496 0.847471
v 0.487234 2.237496 0.847471
v 0.159599 2.237496 0.847471
v -0.168037 2.237496 0.847471
v -0.495673 2.237496 0.847471
v -0.823309 2.237496 0.847471
v -0.820619 2.711513 0.437376
v -0.494059 2.711513 0.437376
v -0.167499 2.711513 0.437376
v 0.159061 2.711513 0.437376
v 0.485620 2.711513 0.437376
v 0.812180 2.711513 0.437376
v 0.809231 2.721976 0.463763
v 0.815129 2.721976 0.463763
v 0.482671 2.721976 0.463763
v 0.488569 2.721976 0.463763
v 0.156112 2.721976 0.463763
v 0.162009 2.721976 0.463763
v -0.170448 2.721976 0.463763
v -0.164550 2.721976 0.463763
v -0.497008 2.721976 0.463763
v -0.491110 2.721976 0.463763
v -0.823567 2.721976 0.463763
v -0.817670 2.721976 0.463763
v -0.759409 3.192224 0.063277
v -0.765307 3.192224 0.063277
v -0.433926 3.192224 0.063277
v -0.439823 3.192224 0.063277
v -0.114340 3.192224 0.063277
v -0.108442 3.192224 0.063277
v 0.211144 3.192224 0.063277
v 0.217041 3.192224 0.063277
v 0.536627 3.192224 0.063277
v 0.542525 3.192224 0.063277
v 0.862111 3.192224 0.063277
v 0.868008 3.192224 0.063277
v -0.762358 3.185529 0.027280
v -0.436875 3.185529 0.027280
v -0.111391 3.185529 0.027280
v 0.214093 3.185529 0.027280
v 0.539576 3.185529 0.027280
v 0.865060 3.185529 0.027280
v -0.765049 2.711513 0.437376
v -0.438489 2.711513 0.437376
v -0.111929 2.711513 0.437376
v 0.214631 2.711513 0.437376
v 0.541190 2.711513 0.437376
v 0.867750 2.711513 0.437376
v 0.870699 2.731385 0.474311
v 0.864801 2.731385 0.474311
v 0.544139 2.731385 0.474311
v 0.538242 2.731385 0.474311
v 0.217579 2.731385 0.474311
v 0.211682 2.731385 0.474311
v -0.108980 2.731385 0.474311
v -0.114878 2.731385 0.474311
v -0.435540 2.731385 0.474311
v -0.441438 2.731385 0.474311
v -0.762100 2.731385 0.474311
v -0.767997 2.731385 0.474311
v 1.142506 2.261137 -0.874984
v -1.150945 2.261137 -0.874984
v 1.142506 2.237496 -0.847659
v -1.150945 2.237496 -0.847659
v 1.138740 2.721976 -0.463951
v -1.147178 2.721976 -0.463951
v 1.138740 2.711513 -0.437563
v -1.147178 2.711513 -0.437563
v 1.134973 3.192224 -0.063465
v -1.143412 3.192224 -0.063465
v 1.134973 3.185529 -0.027468
v -1.143412 3.185529 -0.027468
v 1.138740 2.731385 -0.474499
v -1.147178 2.731385 -0.474499
v 0.811921 2.261137 -0.874984
v 0.817819 2.261137 -0.874984
v 0.484286 2.261137 -0.874984
v 0.490183 2.261137 -0.874984
v 0.156650 2.261137 -0.874984
v 0.162547 2.261137 -0.874984
v -0.170986 2.261137 -0.874984
v -0.165089 2.261137 -0.874984
v -0.498622 2.261137 -0.874984
v -0.492724 2.261137 -0.874984
v -0.826258 2.261137 -0.874984
v -0.820360 2.261137 -0.874984
v 0.814870 2.237496 -0.847659
v 0.487234 2.237496 -0.847659
v 0.159599 2.237496 -0.847659
v -0.168037 2.237496 -0.847659
v -0.495673 2.237496 -0.847659
v -0.823309 2.237496 -0.847659
v -0.820619 2.711513 -0.437563
v -0.494059 2.711513 -0.437563
v -0.167499 2.711513 -0.437563
v 0.159061 2.711513 -0.437563
v 0.485620 2.711513 -0.437563
v 0.812180 2.711513 -0.437563
v 0.809231 2.721976 -0.463951
v 0.815129 2.721976 -0.463951
v 0.482671 2.721976 -0.463951
v 0.488569 2.721976 -0.463951
v 0.156112 2.721976 -0.463951
v 0.162009 2.721976 -0.463951
v -0.170448 2.721976 -0.463951
v -0.164550 2.721976 -0.463951
v -0.497008 2.721976 -0.463951
v -0.491110 2.721976 -0.463951
v -0.823567 2.721976 -0.463951
v -0.817670 2.721976 -0.463951
v -0.759409 3.192224 -0.063465
v -0.765307 3.192224 -0.063465
v -0.433926 3.192224 -0.063465
v -0.439823 3.192224 -0.063465
v -0.114340 3.192224 -0.063465
v -0.108442 3.192224 -0.063465
v 0.211144 3.192224 -0.063465
v 0.217041 3.192224 -0.063465
v 0.536627 3.192224 -0.063465
v 0.542525 3.192224 -0.063465
v 0.862111 3.192224 -0.063465
v 0.868008 3.192224 -0.063465
v -0.762358 3.185529 -0.027468
v -0.436875 3.185529 -0.027468
v -0.111391 3.185529 -0.027468
v 0.214093 3.185529 -0.027468
v 0.539576 3.185529 -0.027468
v 0.865060 3.185529 -0.027468
v -0.765049 2.711513 -0.437563
v -0.438489 2.711513 -0.437563
v -0.111929 2.711513 -0.437563
v 0.214631 2.711513 -0.437563
v 0.541190 2.711513 -0.437563
v 0.867750 2.711513 -0.437563
v 0.870699 2.731385 -0.474499
v 0.864801 2.731385 -0.474499
v 0.544139 2.731385 -0.474499
v 0.538242 2.731385 -0.474499
v 0.217579 2.731385 -0.474499
v 0.211682 2.731385 -0.474499
v -0.108980 2.731385 -0.474499
v -0.114878 2.731385 -0.474499
v -0.435540 2.731385 -0.474499
v -0.441438 2.731385 -0.474499
v -0.762100 2.731385 -0.474499
v -0.767997 2.731385 -0.474499
v 1.169707 2.920653 0.079647
v 1.145294 2.920653 0.079647
v 1.169707 2.920653 -0.077449
v 1.145294 3.251831 -0.021903
v 1.145294 3.220590 -0.077449
v 1.145294 3.251831 0.024101
v 1.145294 3.220590 0.079647
v 1.169707 3.251831 -0.021903
v 1.169707 3.220590 -0.077449
v 1.169707 3.251831 0.024101
v 1.169707 3.220590 0.079647
v 1.162910 3.298692 -0.017088
v 1.162910 3.298692 0.019286
v 1.152091 3.298692 -0.017088
v 1.152091 3.298692 0.019286
v 1.172186 3.354095 -0.056243
v 1.172186 3.354095 0.058441
v 1.142815 3.354095 -0.056243
v 1.142815 3.354095 0.058441
v 1.160595 3.471863 -0.004340
v 1.160595 3.471863 0.006538
v 1.154406 3.471863 -0.004340
v 1.154406 3.471863 0.006538
v -1.162836 2.920653 -0.077449
v -1.187249 2.920653 0.079647
v -1.187249 2.920653 -0.077449
v -1.162836 3.251831 -0.021903
v -1.162836 3.220590 -0.077449
v -1.162836 3.251831 0.024101
v -1.162836 3.220590 0.079647
v -1.187249 3.251831 -0.021903
v -1.187249 3.220590 -0.077449
v -1.187249 3.251831 0.024101
v -1.187249 3.220590 0.079647
v -1.180452 3.298692 -0.017088
v -1.180452 3.298692 0.019286
v -1.169633 3.298692 -0.017088
v -1.169633 3.298692 0.019286
v -1.189728 3.354095 -0.056243
v -1.189728 3.354095 0.058441
v -1.160357 3.354095 -0.056243
v -1.160357 3.354095 0.058441
v -1.178137 3.471863 -0.004340
v -1.178137 3.471863 0.006538
v -1.171947 3.471863 -0.004340
v -1.171947 3.471863 0.006538
v 1.145294 3.216849 0.068386
v 1.145294 3.132932 0.068386
v 1.145294 3.216849 -0.066188
v 1.145294 3.132932 -0.066188
v -1.162836 3.216849 0.068386
v -1.162836 3.132932 0.068386
v -1.162836 3.216849 -0.066188
v -1.162836 3.132932 -0.066188
v 1.145294 3.260145 0.001099
v 1.145294 3.132932 0.001099
v -1.162836 3.260145 0.001099
v -1.162836 3.132932 0.001099
vn -0.0000 -1.0000 -0.0000
vn -0.0000 -0.0000 1.0000
vn -0.0000 -0.0000 -1.0000
vn -0.0000 1.0000 -0.0000
vn 1.0000 -0.0000 -0.0000
vn -1.0000 -0.0000 -0.0000
vn 0.0087 -0.0000 1.0000
vn -1.0000 -0.0000 0.0087
vn -0.0087 -0.0000 -1.0000
vn 0.7009 -0.0000 -0.7132
vn 0.7133 -0.0000 0.7009
vn -0.7009 -0.0000 0.7132
vn -0.7133 -0.0000 -0.7009
vn 1.0000 -0.0000 -0.0087
vn -0.0000 0.6922 0.7217
vn -0.0000 0.6922 -0.7217
vn -0.0000 0.5758 -0.8176
vn -0.0000 -0.5777 0.8162
vn 1.0000 -0.0000 0.0058
vn -1.0000 0.0055 -0.0000
vn -1.0000 -0.0000 0.0058
vn -0.0000 0.5758 0.8176
vn -0.0000 -0.5777 -0.8162
vn 1.0000 -0.0000 -0.0058
vn -1.0000 -0.0000 -0.0058
vn 1.0000 0.0055 -0.0000
vn -0.0000 -0.7347 0.6784
vn -0.0000 -0.7347 -0.6784
vn -0.0000 -0.8144 0.5803
vn -0.0000 -0.6769 -0.7361
vn -0.0000 0.6584 0.7526
vn -0.0000 -0.8144 -0.5803
vn -0.0000 -0.6769 0.7361
vn -0.0000 0.6584 -0.7526
vn -0.0000 -0.6541 0.7564
vn -0.0000 -0.6543 -0.7563
vn -0.0000 -0.9075 0.4201
vn -0.0000 -0.7672 -0.6414
vn -0.0000 0.7009 0.7132
vn -0.0000 0.7133 -0.7009
vn -0.0000 -0.7009 -0.7133
vn -0.0000 -1.0000 -0.0087
vn -0.0000 -0.7133 0.7009
vn -0.0000 0.0087 -1.0000
vn -0.0000 1.0000 0.0087
vn -0.0000 -0.0087 1.0000
vn -0.0000 -0.7009 -0.7132
vn -0.0000 0.7009 0.7133
vn -0.0000 -0.7132 0.7009
vn -0.0000 0.7132 -0.7009
vn -0.0000 -0.6648 -0.7470
vn -0.0000 0.6648 0.7470
vn -0.0000 0.7470 -0.6648
vn -0.0000 -0.7470 0.6648
vn -0.0000 -0.6648 0.7470
vn -0.0000 0.6648 -0.7470
vn -0.0000 0.7470 0.6648
vn -0.0000 -0.7470 -0.6648
vn 1.0000 0.0059 -0.0023
vn -1.0000 0.0046 -0.0040
vn -0.0000 -0.7563 0.6543
vn -0.0000 0.9296 -0.3686
vn -0.0000 -0.8806 0.4738
vn -1.0000 0.0055 -0.0030
vn 1.0000 0.0068 -0.0013
vn -0.0000 0.6656 0.7463
vn -0.9954 0.0656 0.0693
vn 0.9975 0.0441 0.0559
vn -0.9955 0.0637 0.0697
vn 0.9974 0.0456 0.0551
vn -0.9967 0.0574 0.0579
vn 0.9942 0.0674 0.0844
vn -0.9967 0.0561 0.0590
vn 0.9941 0.0690 0.0837
vn -0.9967 0.0548 0.0601
vn 0.9940 0.0707 0.0830
vn -0.9967 0.0535 0.0613
vn 0.9940 0.0724 0.0824
vn -0.9967 0.0522 0.0624
vn 0.9939 0.0741 0.0817
vn -0.9967 0.0509 0.0636
vn 0.9938 0.0757 0.0810
vn -0.9975 0.0441 0.0559
vn 0.9954 0.0656 0.0693
vn -0.9974 0.0456 0.0551
vn 0.9955 0.0637 0.0697
vn -0.9974 0.0472 0.0542
vn 0.9956 0.0618 0.0701
vn -0.9974 0.0488 0.0534
vn 0.9957 0.0598 0.0704
vn 1.0000 0.0046 0.0040
vn -1.0000 0.0046 0.0040
vn -0.0000 -0.7563 -0.6543
vn -0.0000 0.9296 0.3686
vn -0.0000 -0.8806 -0.4738
vn -1.0000 0.0055 0.0030
vn 1.0000 0.0055 0.0030
vn -0.0000 0.6656 -0.7463
vn -0.9973 0.0519 -0.0517
vn 0.9975 0.0441 -0.0559
vn -0.9973 0.0504 -0.0525
vn 0.9974 0.0456 -0.0551
vn -0.9938 0.0757 -0.0810
vn 0.9942 0.0674 -0.0844
vn -0.9939 0.0741 -0.0817
vn 0.9941 0.0690 -0.0837
vn -0.9940 0.0724 -0.0824
vn 0.9940 0.0707 -0.0830
vn -0.9940 0.0707 -0.0830
vn 0.9940 0.0724 -0.0824
vn -0.9941 0.0690 -0.0837
vn 0.9939 0.0741 -0.0817
vn -0.9942 0.0674 -0.0844
vn 0.9938 0.0757 -0.0810
vn -0.9959 0.0559 -0.0712
vn 0.9954 0.0656 -0.0693
vn -0.9958 0.0579 -0.0708
vn 0.9955 0.0637 -0.0697
vn -0.9957 0.0598 -0.0704
vn 0.9956 0.0618 -0.0701
vn -0.9956 0.0618 -0.0701
vn 0.9957 0.0598 -0.0704
vn -0.0000 -0.6543 0.7563
vn -0.0000 0.8716 0.4902
vn -0.0000 0.8716 -0.4902
vn -0.0000 0.1022 -0.9948
vn -0.0000 -0.5771 -0.8167
vn 0.9896 0.1435 -0.0000
vn -0.9896 0.1435 -0.0000
vn -0.0000 0.1022 0.9948
vn -0.9952 0.0979 -0.0000
vn -0.9863 -0.1651 -0.0000
vn -0.0000 -0.5771 0.8166
vn 0.9863 -0.1651 -0.0000
vn -0.0000 0.4033 0.9151
vn 0.9952 0.0980 -0.0000
vn -0.0000 0.4033 -0.9151
vn -0.0000 -0.5772 -0.8166
vn 0.9952 0.0979 -0.0000
vn -0.9952 0.0980 -0.0000
vn -0.0000 0.8409 0.5411
vn -0.0000 0.8409 -0.5411
vn -0.0000 -0.9075 0.4200
vn 1.0000 0.0046 -0.0040
vn -1.0000 0.0059 -0.0023
vn -1.0000 0.0068 -0.0013
vn 1.0000 0.0055 -0.0030
vn -0.9973 0.0519 0.0517
vn 0.9959 0.0559 0.0712
vn -0.9973 0.0504 0.0525
vn 0.9958 0.0579 0.0708
vn -0.9938 0.0757 0.0810
vn 0.9967 0.0509 0.0636
vn -0.9939 0.0741 0.0817
vn 0.9967 0.0522 0.0624
vn -0.9940 0.0724 0.0824
vn 0.9967 0.0535 0.0613
vn -0.9940 0.0707 0.0830
vn 0.9967 0.0548 0.0601
vn -0.9941 0.0690 0.0837
vn 0.9967 0.0561 0.0590
vn -0.9942 0.0674 0.0844
vn 0.9967 0.0574 0.0579
vn -0.9959 0.0559 0.0712
vn 0.9973 0.0519 0.0517
vn -0.9958 0.0579 0.0708
vn 0.9973 0.0504 0.0525
vn -0.9957 0.0598 0.0704
vn 0.9974 0.0488 0.0534
vn -0.9956 0.0618 0.0701
vn 0.9974 0.0472 0.0542
vn 1.0000 0.0059 0.0023
vn -1.0000 0.0059 0.0023
vn -1.0000 0.0068 0.0013
vn 1.0000 0.0068 0.0013
vn -0.9954 0.0656 -0.0693
vn 0.9959 0.0559 -0.0712
vn -0.9955 0.0637 -0.0697
vn 0.9958 0.0579 -0.0708
vn -0.9967 0.0574 -0.0579
vn 0.9967 0.0509 -0.0636
vn -0.9967 0.0561 -0.0590
vn 0.9967 0.0522 -0.0624
vn -0.9967 0.0548 -0.0601
vn 0.9967 0.0535 -0.0613
vn -0.9967 0.0535 -0.0613
vn 0.9967 0.0548 -0.0601
vn -0.9967 0.0522 -0.0624
vn 0.9967 0.0561 -0.0590
vn -0.9967 0.0509 -0.0636
vn 0.9967 0.0574 -0.0579
vn -0.9975 0.0441 -0.0559
vn 0.9973 0.0519 -0.0517
vn -0.9974 0.0456 -0.0551
vn 0.9973 0.0504 -0.0525
vn -0.9974 0.0472 -0.0542
vn 0.9974 0.0488 -0.0534
vn -0.9974 0.0488 -0.0534
vn 0.9974 0.0472 -0.0542
vn -0.0000 -0.5771 -0.8166
vn -0.0000 -0.5771 0.8167
vt 0.190188 0.965444
vt 0.192414 0.965444
vt 0.190188 0.972906
vt 0.192414 0.972906
vt 0.190251 0.965444
vt 0.192352 0.965444
vt 0.192352 0.806811
vt 0.190251 0.806811
vt 0.838890 0.424482
vt 0.840640 0.581513
vt 0.838890 0.581513
vt 0.837626 0.424482
vt 0.837642 0.581513
vt 0.837626 0.581513
vt 0.840603 0.424482
vt 0.838853 0.581513
vt 0.840603 0.581513
vt 0.841851 0.424482
vt 0.841851 0.581513
vt 0.840640 0.424482
vt 0.841867 0.581513
vt 0.837642 0.424482
vt 0.838853 0.424482
vt 0.841867 0.424482
vt 0.201494 0.876707
vt 0.201757 0.948257
vt 0.204219 0.948257
vt 0.204482 0.876707
vt 0.241494 0.844429
vt 0.239162 0.878579
vt 0.241494 0.833001
vt 0.238366 0.878579
vt 0.245265 0.878579
vt 0.242933 0.844429
vt 0.246061 0.878579
vt 0.242933 0.833001
vt 0.234605 0.862508
vt 0.235405 0.821935
vt 0.235405 0.889103
vt 0.234605 0.889103
vt 0.235405 0.889103
vt 0.234605 0.889103
vt 0.234883 0.821935
vt 0.235684 0.862508
vt 0.235684 0.889103
vt 0.234883 0.889103
vt 0.234883 0.889103
vt 0.235684 0.889103
vt 0.241928 0.823185
vt 0.242065 0.826137
vt 0.240288 0.877266
vt 0.240288 0.887718
vt 0.238512 0.826137
vt 0.238648 0.823185
vt 0.316680 0.876807
vt 0.318790 0.942412
vt 0.321232 0.866540
vt 0.321261 0.866897
vt 0.316655 0.877356
vt 0.227276 0.859213
vt 0.227138 0.846562
vt 0.227613 0.846936
vt 0.227473 0.859368
vt 0.227477 0.816549
vt 0.227615 0.829200
vt 0.227280 0.816394
vt 0.227140 0.828826
vt 0.227615 0.829200
vt 0.227473 0.859368
vt 0.852399 0.477248
vt 0.852113 0.475311
vt 0.852121 0.477029
vt 0.852592 0.520236
vt 0.852613 0.494451
vt 0.852594 0.495145
vt 0.852611 0.520961
vt 0.852407 0.475542
vt 0.852393 0.537824
vt 0.852401 0.539543
vt 0.851923 0.494617
vt 0.851901 0.520402
vt 0.851904 0.493892
vt 0.851920 0.519708
vt 0.852393 0.537824
vt 0.852107 0.539311
vt 0.852115 0.537605
vt 0.852611 0.520961
vt 0.852107 0.539311
vt 0.235212 0.830193
vt 0.235620 0.855380
vt 0.235162 0.877796
vt 0.234753 0.852609
vt 0.235105 0.834749
vt 0.235513 0.859935
vt 0.235054 0.882352
vt 0.234646 0.857165
vt 0.234715 0.855380
vt 0.235123 0.830193
vt 0.235582 0.852609
vt 0.235174 0.877796
vt 0.234691 0.859935
vt 0.235099 0.834749
vt 0.235558 0.857165
vt 0.235149 0.882352
vt 0.222069 0.880697
vt 0.223821 0.876713
vt 0.223821 0.880697
vt 0.222069 0.904599
vt 0.223821 0.904599
vt 0.222069 0.876713
vt 0.221942 0.880697
vt 0.222069 0.900616
vt 0.223821 0.896632
vt 0.223821 0.900616
vt 0.223821 0.892648
vt 0.222069 0.896632
vt 0.223821 0.888664
vt 0.222069 0.892648
vt 0.223821 0.884680
vt 0.222069 0.888664
vt 0.222069 0.884680
vt 0.221942 0.900616
vt 0.221942 0.904599
vt 0.223948 0.900616
vt 0.223948 0.884680
vt 0.221942 0.876713
vt 0.221942 0.884680
vt 0.221942 0.888664
vt 0.221942 0.892648
vt 0.221942 0.896632
vt 0.223948 0.880697
vt 0.223948 0.876713
vt 0.223948 0.904599
vt 0.223948 0.896632
vt 0.223948 0.892648
vt 0.223948 0.888664
vt 0.222069 0.884680
vt 0.223821 0.884680
vt 0.221942 0.884680
vt 0.218171 0.937041
vt 0.216623 0.932852
vt 0.216623 0.937041
vt 0.218171 0.962176
vt 0.216623 0.962176
vt 0.216623 0.957987
vt 0.216623 0.953798
vt 0.218171 0.957987
vt 0.216623 0.949609
vt 0.218171 0.953798
vt 0.216623 0.945419
vt 0.218171 0.949609
vt 0.216623 0.941230
vt 0.218171 0.945419
vt 0.218171 0.941230
vt 0.218389 0.957987
vt 0.216406 0.945419
vt 0.216406 0.957987
vt 0.216406 0.953798
vt 0.216406 0.949609
vt 0.216406 0.941230
vt 0.216406 0.937041
vt 0.218389 0.937041
vt 0.218389 0.941230
vt 0.218389 0.945419
vt 0.218389 0.949609
vt 0.218389 0.953798
vt 0.218171 0.932852
vt 0.325285 0.951172
vt 0.325287 0.923404
vt 0.325285 0.953081
vt 0.324444 0.951172
vt 0.324443 0.923404
vt 0.324443 0.921426
vt 0.325165 0.921426
vt 0.325045 0.923404
vt 0.325166 0.923404
vt 0.324684 0.953081
vt 0.324565 0.951172
vt 0.324683 0.951172
vt 0.324584 0.950408
vt 0.324444 0.953081
vt 0.324585 0.953081
vt 0.324445 0.980153
vt 0.324444 0.950408
vt 0.325284 0.980153
vt 0.325284 0.982759
vt 0.324705 0.953081
vt 0.324586 0.950408
vt 0.340278 0.903326
vt 0.340140 0.933071
vt 0.340138 0.903326
vt 0.325166 0.951172
vt 0.325045 0.953081
vt 0.325164 0.951172
vt 0.325165 0.953081
vt 0.324925 0.953081
vt 0.325044 0.951172
vt 0.324805 0.953081
vt 0.324924 0.951172
vt 0.324803 0.951172
vt 0.324562 0.921426
vt 0.324563 0.923404
vt 0.324564 0.921426
vt 0.324684 0.923404
vt 0.324683 0.921426
vt 0.324685 0.921426
vt 0.324804 0.923404
vt 0.324803 0.921426
vt 0.324805 0.921426
vt 0.324925 0.923404
vt 0.324924 0.921426
vt 0.324926 0.921426
vt 0.325044 0.921426
vt 0.324563 0.951172
vt 0.324564 0.953081
vt 0.340861 0.874344
vt 0.340979 0.904089
vt 0.340860 0.904089
vt 0.332894 0.894522
vt 0.333011 0.924267
vt 0.332893 0.924267
vt 0.340620 0.874344
vt 0.340738 0.904089
vt 0.340620 0.904089
vt 0.332771 0.894522
vt 0.332653 0.924267
vt 0.332653 0.894522
vt 0.340497 0.874344
vt 0.340380 0.904089
vt 0.340379 0.874344
vt 0.332530 0.894522
vt 0.332412 0.924267
vt 0.332411 0.894522
vt 0.325187 0.950408
vt 0.325185 0.953081
vt 0.325184 0.950408
vt 0.325065 0.953081
vt 0.325064 0.950408
vt 0.324945 0.953081
vt 0.324944 0.950408
vt 0.324825 0.953081
vt 0.324824 0.950408
vt 0.325186 0.980153
vt 0.332913 0.923504
vt 0.333030 0.953249
vt 0.332913 0.953249
vt 0.324946 0.950408
vt 0.325064 0.980153
vt 0.324946 0.980153
vt 0.324826 0.980153
vt 0.324826 0.950408
vt 0.332671 0.923504
vt 0.332554 0.953249
vt 0.332553 0.923504
vt 0.324704 0.950408
vt 0.324587 0.980153
vt 0.324586 0.982759
vt 0.324585 0.980153
vt 0.324706 0.980153
vt 0.324705 0.982759
vt 0.324704 0.980153
vt 0.324685 0.951172
vt 0.324806 0.951172
vt 0.324926 0.951172
vt 0.325046 0.951172
vt 0.325047 0.921426
vt 0.325167 0.921426
vt 0.325183 0.980153
vt 0.325184 0.982759
vt 0.325066 0.980153
vt 0.325066 0.950408
vt 0.325065 0.982759
vt 0.324944 0.980153
vt 0.324945 0.982759
vt 0.324824 0.980153
vt 0.324825 0.982759
vt 0.325287 0.921426
vt 0.324491 0.950962
vt 0.324490 0.923081
vt 0.324490 0.921096
vt 0.325274 0.923081
vt 0.325273 0.950962
vt 0.325274 0.921096
vt 0.324603 0.921096
vt 0.324714 0.923081
vt 0.324713 0.921096
vt 0.325050 0.952880
vt 0.325160 0.950962
vt 0.325161 0.952880
vt 0.325273 0.952880
vt 0.325143 0.950196
vt 0.325142 0.952880
vt 0.325272 0.980062
vt 0.325273 0.950196
vt 0.324493 0.980062
vt 0.324491 0.952880
vt 0.324491 0.950196
vt 0.325031 0.952880
vt 0.325141 0.950196
vt 0.325032 0.950196
vt 0.340966 0.932980
vt 0.340838 0.903113
vt 0.340967 0.903113
vt 0.324602 0.950962
vt 0.324603 0.952880
vt 0.324604 0.950962
vt 0.324715 0.952880
vt 0.324716 0.950962
vt 0.324826 0.952880
vt 0.324827 0.950962
vt 0.324938 0.952880
vt 0.324939 0.950962
vt 0.325163 0.921096
vt 0.340967 0.903880
vt 0.340858 0.874013
vt 0.340969 0.874013
vt 0.325050 0.923081
vt 0.325161 0.921096
vt 0.325051 0.921096
vt 0.324938 0.923081
vt 0.325049 0.921096
vt 0.324939 0.921096
vt 0.324826 0.923081
vt 0.324937 0.921096
vt 0.324827 0.921096
vt 0.324825 0.921096
vt 0.324715 0.921096
vt 0.325163 0.950962
vt 0.324601 0.921096
vt 0.332560 0.894192
vt 0.332451 0.924058
vt 0.332450 0.894192
vt 0.324937 0.950962
vt 0.325049 0.950962
vt 0.333008 0.924058
vt 0.332898 0.894192
vt 0.333008 0.894192
vt 0.324583 0.950196
vt 0.324696 0.952880
vt 0.324585 0.950196
vt 0.324584 0.952880
vt 0.324807 0.952880
vt 0.324697 0.950196
vt 0.324919 0.952880
vt 0.324808 0.950196
vt 0.324920 0.950196
vt 0.332430 0.923292
vt 0.332340 0.953158
vt 0.332339 0.923292
vt 0.340389 0.903113
vt 0.340280 0.932980
vt 0.340279 0.903113
vt 0.324806 0.950196
vt 0.324697 0.980062
vt 0.332765 0.953158
vt 0.332656 0.923292
vt 0.332765 0.923292
vt 0.348571 0.906075
vt 0.348461 0.876209
vt 0.348571 0.876209
vt 0.325141 0.980062
vt 0.325143 0.980062
vt 0.325029 0.980062
vt 0.325030 0.950196
vt 0.325031 0.980062
vt 0.325162 0.923081
vt 0.325051 0.950962
vt 0.324825 0.950962
vt 0.324714 0.950962
vt 0.324602 0.923081
vt 0.324584 0.980062
vt 0.324585 0.982678
vt 0.324586 0.980062
vt 0.324695 0.980062
vt 0.324696 0.982678
vt 0.324807 0.980062
vt 0.324808 0.982678
vt 0.324809 0.980062
vt 0.324918 0.980062
vt 0.324919 0.982678
vt 0.324920 0.980062
vt 0.192414 0.981735
vt 0.191627 0.983432
vt 0.190188 0.981735
vt 0.190975 0.983432
vt 0.191559 0.985977
vt 0.192114 0.988986
vt 0.191044 0.985977
vt 0.191224 0.995383
vt 0.191378 0.995383
vt 0.190489 0.988986
vt 0.355813 0.863649
vt 0.355813 0.911787
vt 0.354076 0.911787
vt 0.354076 0.863649
vt 0.354944 0.863649
vt 0.354944 0.936624
vt 0.223948 0.884680
vt 0.324445 0.982759
vt 0.325285 0.950408
vt 0.340279 0.933071
vt 0.340981 0.874344
vt 0.333012 0.894522
vt 0.340739 0.874344
vt 0.332771 0.924267
vt 0.340498 0.904089
vt 0.332530 0.924267
vt 0.324706 0.950408
vt 0.333031 0.923504
vt 0.332671 0.953249
vt 0.325272 0.982678
vt 0.324493 0.982678
vt 0.340837 0.932980
vt 0.340857 0.903880
vt 0.332561 0.924058
vt 0.332898 0.924058
vt 0.324695 0.950196
vt 0.324918 0.950196
vt 0.332431 0.953158
vt 0.340390 0.932980
vt 0.332656 0.953158
vt 0.348461 0.906075
vt 0.325142 0.982678
vt 0.325030 0.982678
s 0
usemtl Texture_Map
f 65/47/27 63/48/27 674/47/27
f 65/47/28 61/49/28 64/49/28
f 66/50/29 63/48/29 696/48/29
f 64/49/30 62/50/30 66/50/30
f 73/51/30 71/52/30 72/51/30
f 69/53/29 74/52/29 70/53/29
f 68/54/28 72/51/28 67/54/28
f 70/53/31 73/51/31 68/54/31
f 67/54/32 71/52/32 69/53/32
f 79/52/30 81/51/30 80/51/30
f 82/52/29 77/53/29 78/53/29
f 80/51/28 76/54/28 75/54/28
f 81/51/32 78/53/32 76/54/32
f 79/52/31 75/54/31 77/53/31
f 95/55/33 88/56/33 87/57/33
f 93/58/34 86/59/34 85/60/34
f 91/61/35 84/62/35 83/63/35
f 98/64/36 83/63/36 90/65/36
f 96/66/37 89/67/37 88/56/37
f 94/68/38 87/57/38 86/59/38
f 92/69/39 85/60/39 84/62/39
f 97/70/40 90/65/40 89/67/40
f 100/71/41 101/72/41 99/71/41
f 105/73/42 104/74/42 103/74/42
f 101/72/32 103/74/32 99/71/32
f 99/71/27 104/74/27 100/71/27
f 100/71/31 106/73/31 102/72/31
f 102/72/30 105/73/30 101/72/30
f 109/72/41 108/71/41 107/71/41
f 112/74/42 113/73/42 111/74/42
f 111/74/31 109/72/31 107/71/31
f 112/74/27 107/71/27 108/71/27
f 114/73/32 108/71/32 110/72/32
f 113/73/30 110/72/30 109/72/30
f 117/75/43 122/76/43 118/75/43
f 116/77/44 120/78/44 115/77/44
f 118/75/45 121/78/45 116/77/45
f 117/75/46 120/78/46 119/76/46
f 130/76/43 125/75/43 126/75/43
f 128/78/44 124/77/44 123/77/44
f 129/78/47 126/75/47 124/77/47
f 125/75/45 128/78/45 123/77/45
f 138/79/48 133/80/48 134/80/48
f 136/81/49 132/82/49 131/82/49
f 137/81/50 134/80/50 132/82/50
f 133/80/51 136/81/51 131/82/51
f 141/80/48 146/79/48 142/80/48
f 140/82/49 144/81/49 139/82/49
f 142/80/51 145/81/51 140/82/51
f 141/80/52 144/81/52 143/79/52
f 153/83/53 150/84/53 148/83/53
f 151/85/30 147/86/30 149/87/30
f 154/84/29 149/87/29 150/84/29
f 152/88/28 148/83/28 147/86/28
f 158/89/54 161/90/54 156/90/54
f 155/91/30 159/92/30 157/93/30
f 157/93/28 162/89/28 158/89/28
f 156/90/29 160/94/29 155/91/29
f 165/95/55 164/96/55 163/96/55
f 165/95/56 170/97/56 166/95/56
f 164/96/57 168/98/57 163/96/57
f 164/96/31 170/97/31 169/98/31
f 163/96/32 167/97/32 165/95/32
f 172/96/55 173/95/55 171/96/55
f 178/97/56 173/95/56 174/95/56
f 176/98/57 172/96/57 171/96/57
f 172/96/32 178/97/32 174/95/32
f 175/97/31 171/96/31 173/95/31
f 180/99/58 181/100/58 179/99/58
f 170/97/59 181/100/59 182/100/59
f 168/98/60 180/99/60 179/99/60
f 180/99/31 170/97/31 182/100/31
f 167/97/32 179/99/32 181/100/32
f 185/100/58 184/99/58 183/99/58
f 185/100/59 178/97/59 186/100/59
f 184/99/60 176/98/60 183/99/60
f 184/99/32 178/97/32 177/98/32
f 183/99/31 175/97/31 185/100/31
f 195/101/61 193/102/61 196/101/61
f 193/102/62 192/103/62 194/103/62
f 188/104/63 192/103/63 187/104/63
f 189/105/64 196/101/64 190/105/64
f 208/106/65 259/107/65 258/106/65
f 254/108/66 207/109/66 215/109/66
f 212/110/67 265/111/67 218/110/67
f 245/112/68 204/110/68 203/112/68
f 264/113/69 203/112/69 202/113/69
f 210/113/69 220/112/69 263/113/69
f 197/114/70 217/108/70 198/108/70
f 211/112/68 218/110/68 220/112/68
f 207/109/71 258/106/71 215/109/71
f 209/107/72 263/113/72 259/107/72
f 256/115/71 200/106/71 199/115/71
f 265/111/70 206/108/70 254/108/70
f 219/110/73 197/114/73 204/110/73
f 198/108/66 256/115/66 199/115/66
f 262/106/74 201/107/74 200/106/74
f 261/107/72 202/113/72 201/107/72
f 270/107/72 235/113/72 271/107/72
f 234/113/72 272/107/72 231/107/72
f 257/106/71 228/109/71 244/109/71
f 230/106/71 242/115/71 252/109/71
f 233/113/72 260/107/72 273/107/72
f 227/108/70 237/111/70 275/111/70
f 225/108/70 238/111/70 276/111/70
f 229/106/71 255/115/71 243/115/71
f 275/111/67 251/110/67 240/110/67
f 276/111/73 222/110/73 221/110/73
f 249/108/70 266/111/70 239/111/70
f 236/113/75 241/112/75 235/113/75
f 214/112/69 274/113/69 234/113/69
f 239/111/73 253/110/73 223/110/73
f 270/107/65 269/106/65 257/106/65
f 231/107/65 268/106/65 230/106/65
f 247/112/75 232/113/75 233/113/75
f 244/109/66 226/108/66 227/108/66
f 252/109/66 250/108/66 225/108/66
f 273/107/65 267/106/65 229/106/65
f 240/110/68 241/112/68 213/112/68
f 221/110/68 248/112/68 214/112/68
f 243/115/66 224/108/66 249/108/66
f 218/116/32 302/117/32 220/118/32
f 224/119/32 319/120/32 266/121/32
f 251/116/32 286/117/32 241/118/32
f 249/119/31 340/120/31 295/122/31
f 240/116/31 301/117/31 284/123/31
f 250/119/32 339/120/32 238/121/32
f 255/124/32 280/122/32 224/119/32
f 225/119/31 338/120/31 277/122/31
f 243/124/31 295/122/31 288/125/31
f 264/126/31 313/127/31 317/128/31
f 237/121/32 278/122/32 337/120/32
f 250/119/32 287/125/32 296/122/32
f 259/129/32 316/128/32 311/127/32
f 227/119/31 336/120/31 305/122/31
f 252/130/31 277/122/31 300/125/31
f 256/124/31 314/131/31 262/132/31
f 255/124/32 321/131/32 307/125/32
f 228/130/32 278/122/32 226/119/32
f 258/132/32 289/125/32 215/130/32
f 243/124/31 322/131/31 229/132/31
f 244/130/31 305/122/31 290/125/31
f 217/119/31 320/120/31 279/122/31
f 268/132/32 287/125/32 242/124/32
f 267/132/32 312/127/32 321/131/32
f 265/121/32 306/133/32 318/120/32
f 230/132/31 300/125/31 324/131/31
f 229/132/31 330/127/31 273/129/31
f 219/116/31 320/120/31 216/121/31
f 269/132/32 299/125/32 228/130/32
f 268/132/32 329/127/32 323/131/32
f 244/130/31 309/134/31 257/132/31
f 230/132/31 328/127/31 231/129/31
f 316/128/72 326/127/72 311/127/72
f 303/123/68 291/117/68 292/117/68
f 307/125/76 279/122/76 280/122/76
f 312/127/74 314/131/74 321/131/74
f 292/117/69 317/128/69 331/128/69
f 319/120/67 304/123/67 303/123/67
f 280/122/70 320/120/70 319/120/70
f 321/131/71 308/125/71 307/125/71
f 331/128/72 313/127/72 312/127/72
f 335/128/72 328/127/72 327/127/72
f 333/128/72 330/127/72 329/127/72
f 310/134/71 290/125/71 289/125/71
f 325/134/71 300/125/71 299/125/71
f 323/131/71 288/125/71 287/125/71
f 306/133/70 336/120/70 318/120/70
f 278/122/70 338/120/70 337/120/70
f 296/122/70 340/120/70 339/120/70
f 318/120/73 284/123/73 283/123/73
f 337/120/73 298/123/73 297/123/73
f 339/120/67 282/123/67 281/123/67
f 302/117/75 315/128/75 316/128/75
f 286/117/75 334/128/75 335/128/75
f 333/128/69 293/117/69 332/128/69
f 311/127/65 309/134/65 310/134/65
f 325/134/74 328/127/74 324/131/74
f 329/127/74 322/131/74 323/131/74
f 289/125/76 305/122/76 306/133/76
f 299/125/76 277/122/76 278/122/76
f 287/125/66 295/122/66 296/122/66
f 283/123/68 301/117/68 302/117/68
f 297/123/68 285/117/68 286/117/68
f 281/123/68 293/117/68 294/117/68
f 214/118/31 298/123/31 221/116/31
f 275/121/31 284/123/31 336/120/31
f 248/118/32 281/123/32 294/117/32
f 251/116/32 337/120/32 297/123/32
f 219/116/31 291/117/31 304/123/31
f 223/116/31 293/117/31 282/123/31
f 221/116/31 338/120/31 276/121/31
f 253/116/32 292/117/32 246/118/32
f 222/116/32 339/120/32 281/123/32
f 254/119/32 289/125/32 306/133/32
f 223/116/31 340/120/31 239/121/31
f 253/116/32 319/120/32 303/123/32
f 256/124/31 279/122/31 308/125/31
f 236/126/31 301/117/31 213/118/31
f 241/118/32 335/128/32 235/126/32
f 259/129/32 310/134/32 258/132/32
f 214/118/31 334/128/31 285/117/31
f 270/129/31 315/128/31 236/126/31
f 248/118/32 333/128/32 274/126/32
f 235/126/32 327/127/32 271/129/32
f 262/132/31 313/127/31 261/129/31
f 233/126/31 293/117/31 247/118/31
f 234/126/31 328/127/31 334/128/31
f 232/126/32 292/117/32 331/128/32
f 274/126/32 329/127/32 272/129/32
f 263/126/32 302/117/32 316/128/32
f 270/129/31 309/134/31 326/127/31
f 233/126/31 330/127/31 332/128/31
f 245/118/31 317/128/31 291/117/31
f 271/129/32 325/134/32 269/132/32
f 232/126/32 312/127/32 260/129/32
f 265/121/32 283/123/32 218/116/32
f 346/135/77 344/136/77 342/135/77
f 347/137/78 341/138/78 343/137/78
f 348/136/79 343/137/79 344/136/79
f 345/138/80 342/135/80 341/138/80
f 354/139/77 352/140/77 350/139/77
f 355/141/78 349/142/78 351/141/78
f 356/140/79 351/141/79 352/140/79
f 353/142/80 350/139/80 349/142/80
f 360/143/81 362/144/81 358/144/81
f 357/145/82 363/146/82 359/146/82
f 359/146/83 364/143/83 360/143/83
f 358/144/84 361/145/84 357/145/84
f 368/147/81 370/148/81 366/148/81
f 365/149/82 371/150/82 367/150/82
f 367/150/83 372/147/83 368/147/83
f 366/148/84 369/149/84 365/149/84
f 436/151/29 474/152/29 478/153/29
f 432/154/30 374/155/30 373/154/30
f 376/156/28 456/157/28 450/151/28
f 375/152/28 450/151/28 378/153/28
f 374/155/28 455/158/28 373/154/28
f 494/159/28 455/158/28 495/160/28
f 381/161/28 454/162/28 494/159/28
f 380/163/28 453/164/28 381/161/28
f 379/165/28 452/166/28 380/163/28
f 378/153/28 451/167/28 379/165/28
f 373/154/28 461/168/28 383/169/28
f 374/155/28 389/170/28 495/160/28
f 380/163/28 497/171/28 379/165/28
f 432/154/29 483/160/29 377/155/29
f 441/158/29 482/159/29 483/160/29
f 440/162/29 481/161/29 482/159/29
f 439/164/29 480/163/29 481/161/29
f 438/166/29 479/165/29 480/163/29
f 437/167/29 478/153/29 479/165/29
f 384/168/31 383/169/31 461/168/31
f 427/172/31 456/157/31 382/172/31
f 448/173/31 458/174/31 457/173/31
f 386/175/31 460/176/31 459/175/31
f 453/164/28 460/176/28 454/162/28
f 373/154/30 426/169/30 432/154/30
f 451/167/28 458/174/28 452/166/28
f 489/177/32 388/178/32 496/177/32
f 472/179/32 389/170/32 387/179/32
f 492/180/32 391/181/32 499/180/32
f 490/182/32 497/171/32 498/182/32
f 374/155/30 472/179/30 387/179/30
f 494/159/28 391/181/28 381/161/28
f 378/153/28 388/178/28 375/152/28
f 488/153/28 429/156/28 398/151/28
f 393/155/30 431/154/30 392/154/30
f 465/157/29 395/156/29 471/151/29
f 471/151/29 394/152/29 399/153/29
f 393/155/29 466/158/29 404/160/29
f 466/158/29 403/159/29 404/160/29
f 467/162/29 402/161/29 403/159/29
f 468/164/29 401/163/29 402/161/29
f 469/166/29 400/165/29 401/163/29
f 470/183/29 399/153/29 400/165/29
f 392/154/29 462/168/29 466/158/29
f 417/170/29 393/155/29 404/160/29
f 423/171/29 401/163/29 400/165/29
f 484/160/28 431/154/28 475/155/28
f 485/159/28 442/158/28 484/160/28
f 397/161/28 443/162/28 485/159/28
f 486/163/28 444/164/28 397/161/28
f 487/184/28 445/166/28 486/163/28
f 488/153/28 446/183/28 487/184/28
f 406/169/31 411/168/31 462/168/31
f 465/157/31 428/172/31 405/172/31
f 464/174/31 435/185/31 410/185/31
f 463/176/31 433/175/31 409/175/31
f 463/176/29 468/164/29 467/162/29
f 407/169/30 392/154/30 431/154/30
f 464/174/29 470/183/29 469/166/29
f 415/178/32 418/177/32 422/177/32
f 414/179/32 476/170/32 413/179/32
f 425/180/32 420/181/32 421/180/32
f 423/171/32 419/182/32 424/182/32
f 414/179/30 475/155/30 393/155/30
f 500/181/29 403/159/29 402/161/29
f 415/178/29 399/153/29 394/152/29
f 398/186/32 430/187/32 436/188/32
f 431/189/30 426/190/30 407/189/30
f 427/187/31 408/186/31 447/188/31
f 384/191/31 407/189/31 426/190/31
f 385/192/31 411/193/31 384/191/31
f 386/194/31 412/195/31 385/192/31
f 449/196/31 433/197/31 386/194/31
f 448/198/31 434/199/31 449/196/31
f 447/188/31 435/200/31 448/198/31
f 412/195/31 462/201/31 411/193/31
f 386/194/31 458/202/31 449/196/31
f 431/189/32 441/191/32 432/190/32
f 442/193/32 440/192/32 441/191/32
f 443/195/32 439/194/32 440/192/32
f 444/197/32 438/196/32 439/194/32
f 445/199/32 437/198/32 438/196/32
f 446/200/32 436/188/32 437/198/32
f 455/203/28 460/204/28 461/203/28
f 453/205/28 458/202/28 459/205/28
f 451/206/28 456/207/28 457/206/28
f 448/198/31 456/207/31 447/188/31
f 384/191/31 460/204/31 385/192/31
f 465/208/29 470/209/29 410/209/29
f 464/210/29 468/211/29 409/211/29
f 467/212/29 462/201/29 463/212/29
f 408/186/31 410/209/31 435/200/31
f 434/199/31 409/211/31 433/197/31
f 478/188/31 396/213/31 488/186/31
f 413/189/30 377/190/30 475/189/30
f 418/186/32 473/187/32 489/188/32
f 413/189/32 493/191/32 472/190/32
f 493/191/32 421/195/32 492/192/32
f 421/195/32 491/194/32 492/192/32
f 420/197/32 490/196/32 491/194/32
f 419/199/32 390/198/32 490/196/32
f 390/198/32 418/186/32 489/188/32
f 476/193/32 425/212/32 421/195/32
f 490/196/32 391/205/32 491/194/32
f 377/190/31 484/193/31 475/189/31
f 482/192/31 484/193/31 483/191/31
f 482/192/31 397/197/31 485/195/31
f 480/196/31 397/197/31 481/194/31
f 479/198/31 486/199/31 480/196/31
f 478/188/31 487/200/31 479/198/31
f 499/204/28 495/203/28 389/203/28
f 498/202/28 381/205/28 391/205/28
f 496/207/28 379/206/28 497/206/28
f 489/188/32 497/206/32 390/198/32
f 492/192/32 389/203/32 493/191/32
f 423/209/29 399/208/29 422/208/29
f 500/211/29 401/210/29 424/210/29
f 417/201/29 403/212/29 425/212/29
f 477/200/32 422/208/32 418/186/32
f 420/197/32 424/210/32 419/199/32
f 505/214/85 503/215/85 507/216/85
f 506/217/86 504/218/86 502/219/86
f 515/220/87 528/221/87 527/222/87
f 534/223/88 550/224/88 547/225/88
f 586/226/89 514/227/89 569/228/89
f 509/229/90 514/227/90 513/230/90
f 508/231/91 507/216/91 510/232/91
f 570/233/89 585/234/89 569/228/89
f 586/235/92 509/236/92 513/237/92
f 507/216/88 540/238/88 505/214/88
f 537/239/88 539/240/88 538/241/88
f 536/242/88 541/243/88 537/239/88
f 535/244/88 543/245/88 536/242/88
f 534/223/88 545/246/88 535/244/88
f 525/247/87 504/218/87 532/248/87
f 525/247/92 506/217/92 502/219/92
f 526/249/87 531/250/87 523/251/87
f 524/252/87 530/253/87 521/254/87
f 522/255/87 529/256/87 519/257/87
f 520/258/87 528/221/87 517/259/87
f 514/227/88 549/260/88 533/261/88
f 516/262/92 505/263/92 540/264/92
f 518/265/92 539/266/92 542/267/92
f 520/268/92 541/269/92 544/270/92
f 519/271/92 546/272/92 522/273/92
f 521/274/92 548/275/92 524/276/92
f 523/277/92 550/278/92 526/279/92
f 507/216/89 575/280/89 574/281/89
f 576/282/89 573/283/89 574/281/89
f 578/284/89 572/285/89 573/283/89
f 580/286/89 571/287/89 572/285/89
f 582/288/89 570/233/89 571/287/89
f 575/280/92 508/231/92 562/289/92
f 577/290/92 561/291/92 560/292/92
f 579/293/92 559/294/92 558/295/92
f 580/286/92 556/296/92 581/297/92
f 582/298/92 553/299/92 583/300/92
f 584/301/92 551/302/92 585/234/92
f 569/228/93 551/302/93 563/303/93
f 569/228/94 552/304/94 586/226/94
f 570/233/95 553/305/95 564/306/95
f 570/233/96 554/307/96 584/301/96
f 550/224/97 532/248/97 526/249/97
f 549/260/98 532/248/98 533/261/98
f 548/308/99 531/250/99 524/252/99
f 547/225/100 531/250/100 534/223/100
f 546/309/101 530/253/101 522/255/101
f 545/246/102 530/253/102 535/244/102
f 544/310/103 529/256/103 520/258/103
f 543/245/104 529/256/104 536/242/104
f 542/311/105 528/221/105 518/312/105
f 541/243/106 528/221/106 537/239/106
f 540/238/107 527/222/107 516/313/107
f 539/240/108 527/222/108 538/241/108
f 562/289/109 574/281/109 575/280/109
f 561/314/110 574/281/110 568/315/110
f 560/316/111 573/283/111 577/317/111
f 559/294/112 573/283/112 567/318/112
f 558/295/113 572/285/113 579/293/113
f 557/319/114 572/285/114 566/320/114
f 556/296/115 571/287/115 581/297/115
f 555/321/116 571/287/116 565/322/116
f 516/313/87 503/215/87 501/323/87
f 503/215/62 514/227/62 507/216/62
f 591/324/117 589/325/117 587/326/117
f 590/327/118 592/328/118 588/329/118
f 601/330/119 614/331/119 604/332/119
f 620/333/120 636/334/120 619/335/120
f 594/336/121 672/337/121 655/338/121
f 594/336/122 596/339/122 600/340/122
f 595/341/123 593/342/123 599/343/123
f 656/344/121 671/345/121 670/346/121
f 596/347/124 672/348/124 600/349/124
f 593/342/120 626/350/120 624/351/120
f 625/352/120 623/353/120 624/351/120
f 627/354/120 622/355/120 623/353/120
f 629/356/120 621/357/120 622/355/120
f 631/358/120 620/333/120 621/357/120
f 611/359/119 590/327/119 588/329/119
f 592/360/124 611/361/124 588/362/124
f 617/363/119 612/364/119 609/365/119
f 616/366/119 610/367/119 607/368/119
f 615/369/119 608/370/119 605/371/119
f 614/331/119 606/372/119 603/373/119
f 635/374/120 594/336/120 619/335/120
f 602/375/124 591/324/124 587/326/124
f 604/376/124 625/377/124 601/378/124
f 606/372/124 627/354/124 603/373/124
f 632/379/124 605/371/124 608/370/124
f 634/380/124 607/368/124 610/367/124
f 636/381/124 609/382/124 612/383/124
f 593/342/121 661/384/121 599/343/121
f 659/385/121 662/386/121 660/387/121
f 658/388/121 664/389/121 659/385/121
f 657/390/121 666/391/121 658/388/121
f 656/344/121 668/392/121 657/390/121
f 661/393/124 595/394/124 599/395/124
f 663/396/124 647/397/124 662/398/124
f 665/399/124 645/400/124 664/389/124
f 642/401/124 666/402/124 667/403/124
f 639/404/124 668/405/124 669/406/124
f 637/407/124 670/346/124 671/345/124
f 655/338/125 637/407/125 671/345/125
f 638/408/126 655/338/126 672/337/126
f 656/344/127 639/409/127 669/410/127
f 640/411/128 656/344/128 670/346/128
f 636/334/129 618/412/129 619/335/129
f 618/412/130 635/374/130 619/335/130
f 634/380/131 617/363/131 620/333/131
f 617/363/132 633/413/132 620/333/132
f 632/379/133 616/366/133 621/357/133
f 616/366/134 631/358/134 621/357/134
f 630/414/135 615/369/135 622/355/135
f 615/369/136 629/356/136 622/355/136
f 628/415/137 614/331/137 623/353/137
f 614/331/138 627/354/138 623/353/138
f 626/350/139 613/416/139 624/351/139
f 613/416/140 625/352/140 624/351/140
f 648/417/141 660/387/141 654/418/141
f 660/387/142 647/419/142 654/418/142
f 646/420/143 659/385/143 653/421/143
f 659/385/144 645/400/144 653/421/144
f 644/422/145 658/388/145 652/423/145
f 658/388/146 643/424/146 652/423/146
f 642/425/147 657/390/147 651/426/147
f 657/390/148 641/427/148 651/426/148
f 589/325/119 602/375/119 587/326/119
f 594/336/149 589/325/149 593/342/149
f 681/428/31 680/429/31 683/430/31
f 63/48/32 674/47/32 679/430/32
f 677/428/29 675/48/29 63/48/29
f 678/431/150 683/430/150 682/431/150
f 677/428/151 680/429/151 681/428/151
f 674/47/28 683/430/28 679/430/28
f 676/429/152 684/432/152 680/429/152
f 684/432/153 690/433/153 688/433/153
f 680/429/154 685/434/154 682/431/154
f 678/431/155 686/432/155 676/429/155
f 682/431/156 687/434/156 678/431/156
f 690/433/157 695/435/157 694/436/157
f 687/434/158 690/433/158 686/432/158
f 687/434/159 689/437/159 691/437/159
f 684/432/160 689/437/160 685/434/160
f 695/435/30 692/436/30 694/436/30
f 691/437/161 693/435/161 695/435/161
f 688/433/162 693/435/162 689/437/162
f 690/433/163 692/436/163 688/433/163
f 63/48/27 673/47/27 674/47/27
f 698/48/32 697/47/32 706/430/32
f 700/428/31 699/429/31 702/430/31
f 698/48/29 700/428/29 696/48/29
f 701/431/150 706/430/150 702/430/150
f 700/428/151 703/429/151 699/429/151
f 706/430/28 65/47/28 702/430/28
f 707/432/152 699/429/152 703/429/152
f 707/432/164 713/433/164 709/432/164
f 708/434/155 703/429/155 705/431/155
f 709/432/154 701/431/154 699/429/154
f 710/434/156 705/431/156 701/431/156
f 713/433/165 718/435/165 714/437/165
f 713/433/160 710/434/160 709/432/160
f 710/434/159 712/437/159 708/434/159
f 712/437/158 707/432/158 708/434/158
f 715/436/30 718/435/30 717/436/30
f 714/437/161 716/435/161 712/437/161
f 716/435/166 711/433/166 712/437/166
f 715/436/163 713/433/163 711/433/163
f 696/48/27 697/47/27 698/48/27
f 726/438/29 721/439/29 722/438/29
f 723/440/28 720/441/28 719/440/28
f 730/442/27 722/438/27 728/442/27
f 729/443/167 719/440/167 727/443/167
f 725/439/168 727/443/168 721/439/168
f 724/441/27 728/442/27 720/441/27
f 223/110/68 246/112/68 247/112/68
f 65/47/27 696/48/27 63/48/27
f 65/47/28 674/47/28 61/49/28
f 66/50/29 62/50/29 63/48/29
f 64/49/30 61/49/30 62/50/30
f 73/51/30 74/52/30 71/52/30
f 69/53/29 71/52/29 74/52/29
f 68/54/28 73/51/28 72/51/28
f 70/53/31 74/52/31 73/51/31
f 67/54/32 72/51/32 71/52/32
f 79/52/30 82/52/30 81/51/30
f 82/52/29 79/52/29 77/53/29
f 80/51/28 81/51/28 76/54/28
f 81/51/32 82/52/32 78/53/32
f 79/52/31 80/51/31 75/54/31
f 95/55/33 96/66/33 88/56/33
f 93/58/34 94/68/34 86/59/34
f 91/61/35 92/69/35 84/62/35
f 98/64/36 91/61/36 83/63/36
f 96/66/37 97/70/37 89/67/37
f 94/68/38 95/55/38 87/57/38
f 92/69/39 93/58/39 85/60/39
f 97/70/40 98/64/40 90/65/40
f 100/71/41 102/72/41 101/72/41
f 105/73/42 106/73/42 104/74/42
f 101/72/32 105/73/32 103/74/32
f 99/71/27 103/74/27 104/74/27
f 100/71/31 104/74/31 106/73/31
f 102/72/30 106/73/30 105/73/30
f 109/72/41 110/72/41 108/71/41
f 112/74/42 114/73/42 113/73/42
f 111/74/31 113/73/31 109/72/31
f 112/74/27 111/74/27 107/71/27
f 114/73/32 112/74/32 108/71/32
f 113/73/30 114/73/30 110/72/30
f 117/75/43 119/76/43 122/76/43
f 116/77/44 121/78/44 120/78/44
f 118/75/52 122/76/52 121/78/52
f 117/75/47 115/77/47 120/78/47
f 130/76/43 127/76/43 125/75/43
f 128/78/44 129/78/44 124/77/44
f 129/78/46 130/76/46 126/75/46
f 125/75/52 127/76/52 128/78/52
f 138/79/48 135/79/48 133/80/48
f 136/81/49 137/81/49 132/82/49
f 137/81/52 138/79/52 134/80/52
f 133/80/46 135/79/46 136/81/46
f 141/80/48 143/79/48 146/79/48
f 140/82/49 145/81/49 144/81/49
f 142/80/46 146/79/46 145/81/46
f 141/80/50 139/82/50 144/81/50
f 153/83/53 154/84/53 150/84/53
f 151/85/30 152/88/30 147/86/30
f 154/84/29 151/85/29 149/87/29
f 152/88/28 153/83/28 148/83/28
f 158/89/54 162/89/54 161/90/54
f 155/91/30 160/94/30 159/92/30
f 157/93/28 159/92/28 162/89/28
f 156/90/29 161/90/29 160/94/29
f 165/95/55 166/95/55 164/96/55
f 165/95/56 167/97/56 170/97/56
f 164/96/57 169/98/57 168/98/57
f 164/96/31 166/95/31 170/97/31
f 163/96/32 168/98/32 167/97/32
f 172/96/55 174/95/55 173/95/55
f 178/97/56 175/97/56 173/95/56
f 176/98/57 177/98/57 172/96/57
f 172/96/32 177/98/32 178/97/32
f 175/97/31 176/98/31 171/96/31
f 180/99/58 182/100/58 181/100/58
f 170/97/59 167/97/59 181/100/59
f 168/98/60 169/98/60 180/99/60
f 180/99/31 169/98/31 170/97/31
f 167/97/32 168/98/32 179/99/32
f 185/100/58 186/100/58 184/99/58
f 185/100/59 175/97/59 178/97/59
f 184/99/60 177/98/60 176/98/60
f 184/99/32 186/100/32 178/97/32
f 183/99/31 176/98/31 175/97/31
f 195/101/61 191/102/61 193/102/61
f 193/102/62 191/102/62 192/103/62
f 188/104/169 194/103/169 192/103/169
f 189/105/64 195/101/64 196/101/64
f 208/106/65 209/107/65 259/107/65
f 254/108/66 206/108/66 207/109/66
f 212/110/73 205/111/73 265/111/73
f 245/112/68 219/110/68 204/110/68
f 264/113/69 245/112/69 203/112/69
f 210/113/69 211/112/69 220/112/69
f 197/114/70 216/111/70 217/108/70
f 211/112/68 212/110/68 218/110/68
f 207/109/71 208/106/71 258/106/71
f 209/107/72 210/113/72 263/113/72
f 256/115/71 262/106/71 200/106/71
f 265/111/70 205/111/70 206/108/70
f 219/110/67 216/111/67 197/114/67
f 198/108/76 217/108/76 256/115/76
f 262/106/74 261/107/74 201/107/74
f 261/107/72 264/113/72 202/113/72
f 270/107/72 236/113/72 235/113/72
f 234/113/72 274/113/72 272/107/72
f 257/106/71 269/106/71 228/109/71
f 230/106/71 268/106/71 242/115/71
f 233/113/72 232/113/72 260/107/72
f 227/108/70 226/108/70 237/111/70
f 225/108/70 250/108/70 238/111/70
f 229/106/71 267/106/71 255/115/71
f 275/111/67 237/111/67 251/110/67
f 276/111/67 238/111/67 222/110/67
f 249/108/70 224/108/70 266/111/70
f 236/113/69 213/112/69 241/112/69
f 214/112/69 248/112/69 274/113/69
f 239/111/67 266/111/67 253/110/67
f 270/107/74 271/107/74 269/106/74
f 231/107/74 272/107/74 268/106/74
f 247/112/69 246/112/69 232/113/69
f 244/109/76 228/109/76 226/108/76
f 252/109/76 242/115/76 250/108/76
f 273/107/74 260/107/74 267/106/74
f 240/110/68 251/110/68 241/112/68
f 221/110/68 222/110/68 248/112/68
f 243/115/76 255/115/76 224/108/76
f 218/116/32 283/123/32 302/117/32
f 224/119/32 280/122/32 319/120/32
f 251/116/32 297/123/32 286/117/32
f 249/119/31 239/121/31 340/120/31
f 240/116/31 213/118/31 301/117/31
f 250/119/32 296/122/32 339/120/32
f 255/124/32 307/125/32 280/122/32
f 225/119/31 276/121/31 338/120/31
f 243/124/31 249/119/31 295/122/31
f 264/126/31 261/129/31 313/127/31
f 237/121/32 226/119/32 278/122/32
f 250/119/32 242/124/32 287/125/32
f 259/129/32 263/126/32 316/128/32
f 227/119/31 275/121/31 336/120/31
f 252/130/31 225/119/31 277/122/31
f 256/124/31 308/125/31 314/131/31
f 255/124/32 267/132/32 321/131/32
f 228/130/32 299/125/32 278/122/32
f 258/132/32 310/134/32 289/125/32
f 243/124/31 288/125/31 322/131/31
f 244/130/31 227/119/31 305/122/31
f 217/119/31 216/121/31 320/120/31
f 268/132/32 323/131/32 287/125/32
f 267/132/32 260/129/32 312/127/32
f 265/121/32 254/119/32 306/133/32
f 230/132/31 252/130/31 300/125/31
f 229/132/31 322/131/31 330/127/31
f 219/116/31 304/123/31 320/120/31
f 269/132/32 325/134/32 299/125/32
f 268/132/32 272/129/32 329/127/32
f 244/130/31 290/125/31 309/134/31
f 230/132/31 324/131/31 328/127/31
f 316/128/72 315/128/72 326/127/72
f 303/123/68 304/123/68 291/117/68
f 307/125/66 308/125/66 279/122/66
f 312/127/74 313/127/74 314/131/74
f 292/117/69 291/117/69 317/128/69
f 319/120/67 320/120/67 304/123/67
f 280/122/70 279/122/70 320/120/70
f 321/131/71 314/131/71 308/125/71
f 331/128/72 317/128/72 313/127/72
f 335/128/72 334/128/72 328/127/72
f 333/128/72 332/128/72 330/127/72
f 310/134/71 309/134/71 290/125/71
f 325/134/71 324/131/71 300/125/71
f 323/131/71 322/131/71 288/125/71
f 306/133/70 305/122/70 336/120/70
f 278/122/70 277/122/70 338/120/70
f 296/122/70 295/122/70 340/120/70
f 318/120/73 336/120/73 284/123/73
f 337/120/67 338/120/67 298/123/67
f 339/120/67 340/120/67 282/123/67
f 302/117/75 301/117/75 315/128/75
f 286/117/75 285/117/75 334/128/75
f 333/128/69 294/117/69 293/117/69
f 311/127/74 326/127/74 309/134/74
f 325/134/74 327/127/74 328/127/74
f 329/127/74 330/127/74 322/131/74
f 289/125/66 290/125/66 305/122/66
f 299/125/66 300/125/66 277/122/66
f 287/125/66 288/125/66 295/122/66
f 283/123/68 284/123/68 301/117/68
f 297/123/68 298/123/68 285/117/68
f 281/123/68 282/123/68 293/117/68
f 214/118/31 285/117/31 298/123/31
f 275/121/31 240/116/31 284/123/31
f 248/118/32 222/116/32 281/123/32
f 251/116/32 237/121/32 337/120/32
f 219/116/31 245/118/31 291/117/31
f 223/116/31 247/118/31 293/117/31
f 221/116/31 298/123/31 338/120/31
f 253/116/32 303/123/32 292/117/32
f 222/116/32 238/121/32 339/120/32
f 254/119/32 215/130/32 289/125/32
f 223/116/31 282/123/31 340/120/31
f 253/116/32 266/121/32 319/120/32
f 256/124/31 217/119/31 279/122/31
f 236/126/31 315/128/31 301/117/31
f 241/118/32 286/117/32 335/128/32
f 259/129/32 311/127/32 310/134/32
f 214/118/31 234/126/31 334/128/31
f 270/129/31 326/127/31 315/128/31
f 248/118/32 294/117/32 333/128/32
f 235/126/32 335/128/32 327/127/32
f 262/132/31 314/131/31 313/127/31
f 233/126/31 332/128/31 293/117/31
f 234/126/31 231/129/31 328/127/31
f 232/126/32 246/118/32 292/117/32
f 274/126/32 333/128/32 329/127/32
f 263/126/32 220/118/32 302/117/32
f 270/129/31 257/132/31 309/134/31
f 233/126/31 273/129/31 330/127/31
f 245/118/31 264/126/31 317/128/31
f 271/129/32 327/127/32 325/134/32
f 232/126/32 331/128/32 312/127/32
f 265/121/32 318/120/32 283/123/32
f 346/135/77 348/136/77 344/136/77
f 347/137/78 345/138/78 341/138/78
f 348/136/79 347/137/79 343/137/79
f 345/138/80 346/135/80 342/135/80
f 354/139/77 356/140/77 352/140/77
f 355/141/78 353/142/78 349/142/78
f 356/140/79 355/141/79 351/141/79
f 353/142/80 354/139/80 350/139/80
f 360/143/81 364/143/81 362/144/81
f 357/145/82 361/145/82 363/146/82
f 359/146/83 363/146/83 364/143/83
f 358/144/84 362/144/84 361/145/84
f 368/147/81 372/147/81 370/148/81
f 365/149/82 369/149/82 371/150/82
f 367/150/83 371/150/83 372/147/83
f 366/148/84 370/148/84 369/149/84
f 436/151/29 430/156/29 474/152/29
f 432/154/30 377/155/30 374/155/30
f 376/156/28 382/172/28 456/157/28
f 375/152/28 376/156/28 450/151/28
f 374/155/28 495/160/28 455/158/28
f 494/159/28 454/162/28 455/158/28
f 381/161/28 453/164/28 454/162/28
f 380/163/28 452/166/28 453/164/28
f 379/165/28 451/167/28 452/166/28
f 378/153/28 450/151/28 451/167/28
f 373/154/28 455/158/28 461/168/28
f 374/155/28 387/179/28 389/170/28
f 380/163/28 498/182/28 497/171/28
f 432/154/29 441/158/29 483/160/29
f 441/158/29 440/162/29 482/159/29
f 440/162/29 439/164/29 481/161/29
f 439/164/29 438/166/29 480/163/29
f 438/166/29 437/167/29 479/165/29
f 437/167/29 436/151/29 478/153/29
f 384/168/31 426/169/31 383/169/31
f 427/172/31 447/157/31 456/157/31
f 448/173/31 449/174/31 458/174/31
f 386/175/31 385/176/31 460/176/31
f 453/164/28 459/175/28 460/176/28
f 373/154/30 383/169/30 426/169/30
f 451/167/28 457/173/28 458/174/28
f 489/177/32 473/178/32 388/178/32
f 472/179/32 493/170/32 389/170/32
f 492/180/32 491/181/32 391/181/32
f 490/182/32 390/171/32 497/171/32
f 374/155/30 377/155/30 472/179/30
f 494/159/28 499/180/28 391/181/28
f 378/153/28 496/177/28 388/178/28
f 488/153/28 396/152/28 429/156/28
f 393/155/30 475/155/30 431/154/30
f 465/157/29 405/172/29 395/156/29
f 471/151/29 395/156/29 394/152/29
f 393/155/29 392/154/29 466/158/29
f 466/158/29 467/162/29 403/159/29
f 467/162/29 468/164/29 402/161/29
f 468/164/29 469/166/29 401/163/29
f 469/166/29 470/183/29 400/165/29
f 470/183/29 471/151/29 399/153/29
f 392/154/29 406/169/29 462/168/29
f 417/170/29 414/179/29 393/155/29
f 423/171/29 424/182/29 401/163/29
f 484/160/28 442/158/28 431/154/28
f 485/159/28 443/162/28 442/158/28
f 397/161/28 444/164/28 443/162/28
f 486/163/28 445/166/28 444/164/28
f 487/184/28 446/183/28 445/166/28
f 488/153/28 398/151/28 446/183/28
f 406/169/31 407/169/31 411/168/31
f 465/157/31 408/157/31 428/172/31
f 464/174/31 434/174/31 435/185/31
f 463/176/31 412/176/31 433/175/31
f 463/176/29 409/175/29 468/164/29
f 407/169/30 406/169/30 392/154/30
f 464/174/29 410/185/29 470/183/29
f 415/178/32 416/178/32 418/177/32
f 414/179/32 417/170/32 476/170/32
f 425/180/32 500/181/32 420/181/32
f 423/171/32 477/444/32 419/182/32
f 414/179/30 413/179/30 475/155/30
f 500/181/29 425/180/29 403/159/29
f 415/178/29 422/177/29 399/153/29
f 398/186/32 429/213/32 430/187/32
f 431/189/30 432/190/30 426/190/30
f 427/187/31 428/213/31 408/186/31
f 384/191/31 411/193/31 407/189/31
f 385/192/31 412/195/31 411/193/31
f 386/194/31 433/197/31 412/195/31
f 449/196/31 434/199/31 433/197/31
f 448/198/31 435/200/31 434/199/31
f 447/188/31 408/186/31 435/200/31
f 412/195/31 463/212/31 462/201/31
f 386/194/31 459/205/31 458/202/31
f 431/189/32 442/193/32 441/191/32
f 442/193/32 443/195/32 440/192/32
f 443/195/32 444/197/32 439/194/32
f 444/197/32 445/199/32 438/196/32
f 445/199/32 446/200/32 437/198/32
f 446/200/32 398/186/32 436/188/32
f 455/203/28 454/204/28 460/204/28
f 453/205/28 452/202/28 458/202/28
f 451/206/28 450/207/28 456/207/28
f 448/198/31 457/206/31 456/207/31
f 384/191/31 461/203/31 460/204/31
f 465/208/29 471/208/29 470/209/29
f 464/210/29 469/210/29 468/211/29
f 467/212/29 466/201/29 462/201/29
f 408/186/31 465/208/31 410/209/31
f 434/199/31 464/210/31 409/211/31
f 478/188/31 474/187/31 396/213/31
f 413/189/30 472/190/30 377/190/30
f 418/186/32 416/213/32 473/187/32
f 413/189/32 476/193/32 493/191/32
f 493/191/32 476/193/32 421/195/32
f 421/195/32 420/197/32 491/194/32
f 420/197/32 419/199/32 490/196/32
f 419/199/32 477/200/32 390/198/32
f 390/198/32 477/200/32 418/186/32
f 476/193/32 417/201/32 425/212/32
f 490/196/32 498/202/32 391/205/32
f 377/190/31 483/191/31 484/193/31
f 482/192/31 485/195/31 484/193/31
f 482/192/31 481/194/31 397/197/31
f 480/196/31 486/199/31 397/197/31
f 479/198/31 487/200/31 486/199/31
f 478/188/31 488/186/31 487/200/31
f 499/204/28 494/204/28 495/203/28
f 498/202/28 380/202/28 381/205/28
f 496/207/28 378/207/28 379/206/28
f 489/188/32 496/207/32 497/206/32
f 492/192/32 499/204/32 389/203/32
f 423/209/29 400/209/29 399/208/29
f 500/211/29 402/211/29 401/210/29
f 417/201/29 404/201/29 403/212/29
f 477/200/32 423/209/32 422/208/32
f 420/197/32 500/211/32 424/210/32
f 505/214/170 501/323/170 503/215/170
f 506/217/171 514/227/171 504/218/171
f 515/220/87 518/312/87 528/221/87
f 534/223/88 533/261/88 550/224/88
f 586/226/89 513/230/89 514/227/89
f 509/229/172 511/445/172 514/227/172
f 508/231/173 512/446/173 507/216/173
f 570/233/89 584/301/89 585/234/89
f 586/235/92 552/447/92 509/236/92
f 507/216/88 538/241/88 540/238/88
f 537/239/88 542/311/88 539/240/88
f 536/242/88 544/310/88 541/243/88
f 535/244/88 546/309/88 543/245/88
f 534/223/88 548/308/88 545/246/88
f 525/247/87 502/219/87 504/218/87
f 525/247/92 549/260/92 506/217/92
f 526/249/87 532/248/87 531/250/87
f 524/252/87 531/250/87 530/253/87
f 522/255/87 530/253/87 529/256/87
f 520/258/87 529/256/87 528/221/87
f 514/227/88 506/217/88 549/260/88
f 516/262/92 501/448/92 505/263/92
f 518/265/92 515/449/92 539/266/92
f 520/268/92 517/450/92 541/269/92
f 519/271/92 543/451/92 546/272/92
f 521/274/92 545/452/92 548/275/92
f 523/277/92 547/453/92 550/278/92
f 507/216/89 512/446/89 575/280/89
f 576/282/89 577/317/89 573/283/89
f 578/284/89 579/293/89 572/285/89
f 580/286/89 581/297/89 571/287/89
f 582/288/89 583/454/89 570/233/89
f 575/280/92 512/446/92 508/231/92
f 577/290/92 576/455/92 561/291/92
f 579/293/92 578/284/92 559/294/92
f 580/286/92 557/319/92 556/296/92
f 582/298/92 555/456/92 553/299/92
f 584/301/92 554/307/92 551/302/92
f 569/228/174 585/234/174 551/302/174
f 569/228/175 563/303/175 552/304/175
f 570/233/176 583/454/176 553/305/176
f 570/233/177 564/306/177 554/307/177
f 550/224/178 533/261/178 532/248/178
f 549/260/179 525/247/179 532/248/179
f 548/308/180 534/223/180 531/250/180
f 547/225/181 523/251/181 531/250/181
f 546/309/182 535/244/182 530/253/182
f 545/246/183 521/254/183 530/253/183
f 544/310/184 536/242/184 529/256/184
f 543/245/185 519/257/185 529/256/185
f 542/311/186 537/239/186 528/221/186
f 541/243/187 517/259/187 528/221/187
f 540/238/188 538/241/188 527/222/188
f 539/240/189 515/220/189 527/222/189
f 562/289/190 568/315/190 574/281/190
f 561/314/191 576/282/191 574/281/191
f 560/316/192 567/318/192 573/283/192
f 559/294/193 578/284/193 573/283/193
f 558/295/194 566/320/194 572/285/194
f 557/319/195 580/286/195 572/285/195
f 556/296/196 565/322/196 571/287/196
f 555/321/197 582/288/197 571/287/197
f 516/313/87 527/222/87 503/215/87
f 503/215/62 504/218/62 514/227/62
f 591/324/198 593/342/198 589/325/198
f 590/327/199 594/336/199 592/328/199
f 601/330/119 613/416/119 614/331/119
f 620/333/120 633/413/120 636/334/120
f 594/336/121 600/340/121 672/337/121
f 594/336/200 598/457/200 596/339/200
f 595/341/201 597/458/201 593/342/201
f 656/344/121 655/338/121 671/345/121
f 596/347/124 638/459/124 672/348/124
f 593/342/120 591/324/120 626/350/120
f 625/352/120 628/415/120 623/353/120
f 627/354/120 630/414/120 622/355/120
f 629/356/120 632/379/120 621/357/120
f 631/358/120 634/380/120 620/333/120
f 611/359/119 618/412/119 590/327/119
f 592/360/124 635/460/124 611/361/124
f 617/363/119 618/412/119 612/364/119
f 616/366/119 617/363/119 610/367/119
f 615/369/119 616/366/119 608/370/119
f 614/331/119 615/369/119 606/372/119
f 635/374/120 592/328/120 594/336/120
f 602/375/124 626/350/124 591/324/124
f 604/376/124 628/461/124 625/377/124
f 606/372/124 630/414/124 627/354/124
f 632/379/124 629/356/124 605/371/124
f 634/380/124 631/358/124 607/368/124
f 636/381/124 633/462/124 609/382/124
f 593/342/121 660/387/121 661/384/121
f 659/385/121 663/463/121 662/386/121
f 658/388/121 665/399/121 664/389/121
f 657/390/121 667/464/121 666/391/121
f 656/344/121 669/410/121 668/392/121
f 661/393/124 648/465/124 595/394/124
f 663/396/124 646/466/124 647/397/124
f 665/399/124 644/422/124 645/400/124
f 642/401/124 643/467/124 666/402/124
f 639/404/124 641/468/124 668/405/124
f 637/407/124 640/411/124 670/346/124
f 655/338/202 649/469/202 637/407/202
f 638/408/203 649/469/203 655/338/203
f 656/344/204 650/470/204 639/409/204
f 640/411/205 650/470/205 656/344/205
f 636/334/206 612/364/206 618/412/206
f 618/412/207 611/359/207 635/374/207
f 634/380/208 610/367/208 617/363/208
f 617/363/209 609/365/209 633/413/209
f 632/379/210 608/370/210 616/366/210
f 616/366/211 607/368/211 631/358/211
f 630/414/212 606/372/212 615/369/212
f 615/369/213 605/371/213 629/356/213
f 628/415/214 604/332/214 614/331/214
f 614/331/215 603/373/215 627/354/215
f 626/350/216 602/375/216 613/416/216
f 613/416/217 601/330/217 625/352/217
f 648/417/218 661/384/218 660/387/218
f 660/387/219 662/386/219 647/419/219
f 646/420/220 663/463/220 659/385/220
f 659/385/221 664/389/221 645/400/221
f 644/422/222 665/399/222 658/388/222
f 658/388/223 666/391/223 643/424/223
f 642/425/224 667/464/224 657/390/224
f 657/390/225 668/392/225 641/427/225
f 589/325/119 613/416/119 602/375/119
f 594/336/149 590/327/149 589/325/149
f 680/429/31 682/431/31 683/430/31
f 683/430/31 673/47/31 675/48/31
f 675/48/31 681/428/31 683/430/31
f 679/430/32 678/431/32 676/429/32
f 676/429/32 677/428/32 679/430/32
f 677/428/32 63/48/32 679/430/32
f 677/428/29 681/428/29 675/48/29
f 678/431/150 679/430/150 683/430/150
f 677/428/151 676/429/151 680/429/151
f 674/47/28 673/47/28 683/430/28
f 676/429/152 686/432/152 684/432/152
f 684/432/226 686/432/226 690/433/226
f 680/429/154 684/432/154 685/434/154
f 678/431/155 687/434/155 686/432/155
f 682/431/156 685/434/156 687/434/156
f 690/433/157 691/437/157 695/435/157
f 687/434/158 691/437/158 690/433/158
f 687/434/227 685/434/227 689/437/227
f 684/432/160 688/433/160 689/437/160
f 695/435/30 693/435/30 692/436/30
f 691/437/161 689/437/161 693/435/161
f 688/433/165 692/436/165 693/435/165
f 690/433/163 694/436/163 692/436/163
f 63/48/27 675/48/27 673/47/27
f 706/430/32 705/431/32 703/429/32
f 703/429/32 704/428/32 706/430/32
f 704/428/32 698/48/32 706/430/32
f 699/429/31 701/431/31 702/430/31
f 702/430/31 65/47/31 696/48/31
f 696/48/31 700/428/31 702/430/31
f 698/48/29 704/428/29 700/428/29
f 701/431/150 705/431/150 706/430/150
f 700/428/151 704/428/151 703/429/151
f 706/430/28 697/47/28 65/47/28
f 707/432/152 709/432/152 699/429/152
f 707/432/153 711/433/153 713/433/153
f 708/434/155 707/432/155 703/429/155
f 709/432/154 710/434/154 701/431/154
f 710/434/156 708/434/156 705/431/156
f 713/433/165 717/436/165 718/435/165
f 713/433/160 714/437/160 710/434/160
f 710/434/159 714/437/159 712/437/159
f 712/437/158 711/433/158 707/432/158
f 715/436/30 716/435/30 718/435/30
f 714/437/161 718/435/161 716/435/161
f 716/435/157 715/436/157 711/433/157
f 715/436/163 717/436/163 713/433/163
f 696/48/27 65/47/27 697/47/27
f 726/438/29 725/439/29 721/439/29
f 723/440/28 724/441/28 720/441/28
f 730/442/27 726/438/27 722/438/27
f 729/443/167 723/440/167 719/440/167
f 725/439/168 729/443/168 727/443/168
f 724/441/27 730/442/27 728/442/27
f 223/110/68 253/110/68 246/112/68
