# Blender 4.4.0
# www.blender.org
mtllib Bld_Beehive_02.mtl
o Bld_Beehive_02
v -0.007584 0.865810 -0.417411
v 0.007586 0.865810 -0.417411
v -0.007584 0.865810 0.331807
v 0.007586 0.865810 0.331807
v -0.007584 0.858038 0.331807
v -0.007584 0.858038 -0.417411
v 0.007586 0.858038 -0.417411
v 0.007586 0.858038 0.331807
v 0.323581 0.350155 -0.425260
v 0.303764 0.550755 -0.401837
v 0.303764 0.550755 0.316233
v 0.323581 0.350155 0.339656
v -0.323579 0.350155 0.339656
v -0.303762 0.550755 0.316233
v -0.303762 0.550755 -0.401837
v -0.323579 0.350155 -0.425260
v -0.303762 0.751355 0.316233
v 0.303764 0.751355 0.316233
v -0.303762 0.751355 -0.401837
v 0.303764 0.751355 -0.401837
v 0.323581 0.550755 -0.425260
v 0.323581 0.550755 0.339656
v -0.323579 0.550755 0.339656
v -0.323579 0.550755 -0.425260
v 0.323581 0.149554 -0.425260
v 0.303764 0.350155 -0.401837
v 0.303764 0.350155 0.316233
v 0.323581 0.149554 0.339656
v -0.323579 0.149554 0.339656
v -0.303762 0.350155 0.316233
v -0.303762 0.350155 -0.401837
v -0.323579 0.149554 -0.425260
v 0.006489 0.812409 0.295593
v -0.006219 0.812520 0.295593
v -0.015283 0.803613 0.295593
v -0.015394 0.790905 0.295593
v -0.006487 0.781841 0.295593
v 0.006221 0.781731 0.295593
v 0.015285 0.790638 0.295593
v 0.015396 0.803345 0.295593
v -0.322846 0.751355 0.321274
v 0.322848 0.751355 0.321274
v -0.322846 0.751355 -0.406878
v 0.322848 0.751355 -0.406878
v -0.322846 0.771168 -0.406878
v -0.322846 0.771168 0.321274
v 0.322848 0.771168 0.321274
v 0.322848 0.771168 -0.406878
v 0.000001 0.751355 0.321274
v 0.000001 0.751355 -0.406878
v 0.000001 0.842896 0.321274
v 0.000001 0.842896 -0.406878
v -0.015283 0.803613 0.321274
v 0.006221 0.781731 0.321274
v 0.000001 0.781785 0.321274
v -0.006487 0.781841 0.321274
v 0.015396 0.803345 0.321274
v -0.015394 0.790905 0.321274
v 0.015285 0.790638 0.321274
v -0.006219 0.812520 0.321274
v 0.006489 0.812409 0.321274
v 0.000001 0.812466 0.321274
v 0.341053 0.767123 0.327205
v 0.341053 0.767123 -0.412809
v 0.000001 0.842896 0.327205
v 0.000001 0.842896 -0.412809
v 0.000001 0.861788 0.327205
v 0.345250 0.786016 0.327205
v 0.345250 0.786016 -0.412809
v 0.000001 0.861788 -0.412809
v -0.341051 0.767123 0.327205
v -0.341051 0.767123 -0.412809
v -0.345248 0.786016 0.327205
v -0.345248 0.786016 -0.412809
v -0.299101 0.143131 0.456092
v 0.299103 0.143131 0.456092
v -0.299101 0.143131 -0.456094
v 0.299103 0.143131 -0.456094
v -0.299101 0.122441 -0.456094
v -0.299101 0.122441 0.456092
v 0.299103 0.122441 0.456092
v 0.299103 0.122441 -0.456094
v 0.299103 0.149554 0.484174
v 0.299103 0.149554 -0.462429
v 0.299103 0.091515 0.484174
v 0.299103 0.091515 -0.462429
v 0.317446 0.149554 0.484174
v 0.317446 0.149554 -0.462429
v 0.317446 0.091515 0.484174
v 0.317446 0.091515 -0.462429
v -0.299101 0.149554 0.484174
v -0.299101 0.149554 -0.462429
v -0.299101 0.091515 0.484174
v -0.299101 0.091515 -0.462429
v -0.317444 0.149554 0.484174
v -0.317444 0.149554 -0.462429
v -0.317444 0.091515 0.484174
v -0.317444 0.091515 -0.462429
v 0.185943 0.122441 0.311333
v 0.259499 0.122441 0.311333
v 0.185943 0.122441 0.237777
v 0.259499 0.122441 0.237777
v 0.210690 0.000000 0.250304
v 0.210690 0.000000 0.323859
v 0.284245 0.000000 0.323859
v 0.284245 0.000000 0.250304
v -0.185941 0.122441 0.311333
v -0.259497 0.122441 0.311333
v -0.185941 0.122441 0.237777
v -0.259497 0.122441 0.237777
v -0.210688 0.000000 0.250304
v -0.210688 0.000000 0.323859
v -0.284243 0.000000 0.323859
v -0.284243 0.000000 0.250304
v 0.185943 0.122441 -0.311335
v 0.259499 0.122441 -0.311335
v 0.185943 0.122441 -0.237779
v 0.259499 0.122441 -0.237779
v 0.210690 0.000000 -0.250305
v 0.210690 0.000000 -0.323861
v 0.284245 0.000000 -0.323861
v 0.284245 0.000000 -0.250305
v -0.185941 0.122441 -0.311335
v -0.259497 0.122441 -0.311335
v -0.185941 0.122441 -0.237779
v -0.259497 0.122441 -0.237779
v -0.210688 0.000000 -0.250305
v -0.210688 0.000000 -0.323861
v -0.284243 0.000000 -0.323861
v -0.284243 0.000000 -0.250305
vn -0.0000 1.0000 -0.0000
vn -0.0000 -1.0000 -0.0000
vn 1.0000 -0.0000 -0.0000
vn -1.0000 -0.0000 -0.0000
vn -0.0000 -0.0000 1.0000
vn -0.0000 -0.0000 -1.0000
vn -0.0000 0.1160 0.9933
vn -0.0000 0.1160 -0.9933
vn -0.9952 0.0983 -0.0000
vn 0.9952 0.0983 -0.0000
vn -0.7133 -0.7009 -0.0000
vn 0.7133 0.7009 -0.0000
vn 1.0000 -0.0087 -0.0000
vn -0.0087 -1.0000 -0.0000
vn 0.7009 -0.7133 -0.0000
vn -1.0000 0.0087 -0.0000
vn -0.7009 0.7133 -0.0000
vn 0.0087 1.0000 -0.0000
vn -0.2169 -0.9762 -0.0000
vn 0.2144 0.9768 -0.0000
vn 0.9762 -0.2169 -0.0000
vn 0.2169 -0.9762 -0.0000
vn -0.2144 0.9768 -0.0000
vn -0.9762 -0.2169 -0.0000
vn 0.9802 0.1981 -0.0000
vn -0.9802 -0.1981 -0.0000
vn -0.0000 -0.1018 -0.9948
vn -0.0000 0.1018 0.9948
vn -0.9802 0.1981 -0.0000
vn 0.9802 -0.1981 -0.0000
vn -0.0000 -0.1018 0.9948
vn -0.0000 0.1018 -0.9948
vt 0.591714 0.957107
vt 0.593354 0.957107
vt 0.593354 0.863488
vt 0.591714 0.863491
vt 0.591714 0.863488
vt 0.593354 0.863491
vt 0.582884 0.905424
vt 0.579119 0.921461
vt 0.579000 0.905424
vt 0.582765 0.921461
vt 0.573355 0.893436
vt 0.573236 0.909473
vt 0.569471 0.893436
vt 0.569590 0.909473
vt 0.573355 0.861362
vt 0.569590 0.877399
vt 0.569471 0.861362
vt 0.573236 0.877399
vt 0.569471 0.879601
vt 0.573355 0.879601
vt 0.581034 0.814956
vt 0.580981 0.815898
vt 0.580903 0.812719
vt 0.582880 0.937499
vt 0.580942 0.937499
vt 0.579004 0.939083
vt 0.580942 0.944817
vt 0.582880 0.939083
vt 0.581034 0.941655
vt 0.581034 0.940639
vt 0.579004 0.937499
vt 0.580850 0.940660
vt 0.580850 0.941676
vt 0.580850 0.813662
vt 0.580850 0.814984
vt 0.580942 0.815904
vt 0.580905 0.815910
vt 0.581034 0.813634
vt 0.580979 0.812708
vt 0.580942 0.812713
vt 0.458588 0.956476
vt 0.461910 0.913486
vt 0.461910 0.913486
vt 0.461910 0.902767
vt 0.458547 0.945758
vt 0.461910 0.902767
vt 0.458547 0.945757
vt 0.465231 0.956476
vt 0.465272 0.945758
vt 0.465272 0.945757
vt 0.605430 0.990045
vt 0.606243 0.990045
vt 0.605430 0.990045
vt 0.606243 0.982578
vt 0.605430 0.982578
vt 0.606243 0.990045
vt 0.606243 0.971418
vt 0.606243 0.992363
vt 0.606243 0.992363
vt 0.606268 0.992363
vt 0.606268 0.971418
vt 0.606268 0.992363
vt 0.606243 0.971418
vt 0.606268 0.971418
vt 0.605430 0.992363
vt 0.605430 0.971418
vt 0.605430 0.992363
vt 0.605405 0.971418
vt 0.605405 0.992363
vt 0.605405 0.992363
vt 0.605430 0.971418
vt 0.605405 0.971418
vt 0.606189 0.982578
vt 0.606223 0.938393
vt 0.606122 0.938393
vt 0.606089 0.982578
vt 0.605483 0.982578
vt 0.605450 0.938393
vt 0.605583 0.982578
vt 0.605550 0.938393
vt 0.606189 0.982578
vt 0.606223 0.938393
vt 0.606089 0.982578
vt 0.606122 0.938393
vt 0.605483 0.982578
vt 0.605450 0.938393
vt 0.605550 0.938393
vt 0.605583 0.982578
vt 0.580942 0.939931
vt 0.580979 0.939927
vt 0.580942 0.942384
vt 0.580981 0.942380
vt 0.580903 0.939936
vt 0.580905 0.942388
s 0
usemtl Texture_Map
f 3/1/1 2/2/1 1/1/1
f 7/3/2 5/4/2 6/5/2
f 4/2/3 7/3/3 2/2/3
f 1/1/4 5/4/4 3/1/4
f 3/1/5 8/6/5 4/2/5
f 2/2/6 6/5/6 1/1/6
f 12/7/7 14/8/7 13/9/7
f 9/7/8 15/8/8 10/10/8
f 13/9/9 15/8/9 16/9/9
f 9/7/10 11/10/10 12/7/10
f 13/9/2 9/7/2 12/7/2
f 21/11/10 18/12/10 22/11/10
f 23/13/9 19/14/9 24/13/9
f 21/11/8 19/14/8 20/12/8
f 22/11/7 17/14/7 23/13/7
f 23/13/2 21/11/2 22/11/2
f 28/15/7 30/16/7 29/17/7
f 25/15/8 31/16/8 26/18/8
f 29/17/9 31/16/9 32/17/9
f 25/15/10 27/18/10 28/15/10
f 29/19/2 25/20/2 28/20/2
f 40/21/5 33/22/5 37/23/5
f 44/24/2 49/25/2 50/25/2
f 50/25/6 45/26/6 52/27/6
f 47/28/5 57/29/5 59/30/5
f 44/24/3 47/28/3 42/24/3
f 41/31/4 45/26/4 43/31/4
f 58/32/5 53/33/5 46/26/5
f 50/25/6 48/28/6 44/24/6
f 50/25/2 41/31/2 43/31/2
f 33/22/11 57/21/11 61/22/11
f 37/23/12 58/34/12 56/23/12
f 36/34/13 53/35/13 58/34/13
f 33/22/14 61/22/14 62/36/14
f 35/35/15 60/37/15 53/35/15
f 40/21/16 59/38/16 57/21/16
f 39/38/17 54/39/17 59/38/17
f 37/23/18 56/23/18 55/40/18
f 64/41/19 65/42/19 66/43/19
f 67/44/20 69/45/20 70/46/20
f 66/43/6 69/45/6 64/41/6
f 65/42/5 68/47/5 67/44/5
f 64/41/21 68/47/21 63/41/21
f 65/42/22 72/48/22 66/43/22
f 74/49/23 67/44/23 70/46/23
f 74/49/6 66/43/6 72/48/6
f 65/42/5 73/50/5 71/48/5
f 73/50/24 72/48/24 71/48/24
f 75/51/1 78/52/1 77/53/1
f 82/54/2 80/55/2 79/55/2
f 78/52/6 79/55/6 77/53/6
f 75/51/5 81/54/5 76/56/5
f 86/57/4 83/58/4 84/59/4
f 87/60/3 90/61/3 88/62/3
f 85/63/5 87/60/5 83/58/5
f 83/58/1 88/62/1 84/59/1
f 84/59/6 90/61/6 86/57/6
f 86/57/2 89/64/2 85/63/2
f 91/65/3 94/66/3 92/67/3
f 98/68/4 95/69/4 96/70/4
f 95/69/5 93/71/5 91/65/5
f 96/70/1 91/65/1 92/67/1
f 98/68/6 92/67/6 94/66/6
f 97/72/2 94/66/2 93/71/2
f 100/73/25 106/74/25 102/73/25
f 103/75/26 99/76/26 101/76/26
f 102/73/27 103/75/27 101/76/27
f 104/75/28 100/73/28 99/76/28
f 108/77/29 114/78/29 113/78/29
f 107/79/30 111/80/30 109/79/30
f 110/77/27 111/80/27 114/78/27
f 108/77/28 112/80/28 107/79/28
f 116/81/25 122/82/25 121/82/25
f 115/83/26 119/84/26 117/83/26
f 118/81/31 119/84/31 122/82/31
f 116/81/32 120/84/32 115/83/32
f 124/85/29 130/86/29 126/85/29
f 127/87/30 123/88/30 125/88/30
f 126/85/31 127/87/31 125/88/31
f 128/87/32 124/85/32 123/88/32
f 3/1/1 4/2/1 2/2/1
f 7/3/2 8/6/2 5/4/2
f 4/2/3 8/6/3 7/3/3
f 1/1/4 6/5/4 5/4/4
f 3/1/5 5/4/5 8/6/5
f 2/2/6 7/3/6 6/5/6
f 12/7/7 11/10/7 14/8/7
f 9/7/8 16/9/8 15/8/8
f 13/9/9 14/8/9 15/8/9
f 9/7/10 10/10/10 11/10/10
f 13/9/2 16/9/2 9/7/2
f 21/11/10 20/12/10 18/12/10
f 23/13/9 17/14/9 19/14/9
f 21/11/8 24/13/8 19/14/8
f 22/11/7 18/12/7 17/14/7
f 23/13/2 24/13/2 21/11/2
f 28/15/7 27/18/7 30/16/7
f 25/15/8 32/17/8 31/16/8
f 29/17/9 30/16/9 31/16/9
f 25/15/10 26/18/10 27/18/10
f 29/19/2 32/19/2 25/20/2
f 33/22/5 34/37/5 37/23/5
f 34/37/5 35/35/5 37/23/5
f 35/35/5 36/34/5 37/23/5
f 37/23/5 38/39/5 39/38/5
f 39/38/5 40/21/5 37/23/5
f 44/24/2 42/24/2 49/25/2
f 50/25/6 43/31/6 45/26/6
f 55/89/5 49/25/5 54/90/5
f 49/25/5 42/24/5 59/30/5
f 54/90/5 49/25/5 59/30/5
f 42/24/5 47/28/5 59/30/5
f 47/28/5 51/27/5 57/29/5
f 51/27/5 62/91/5 61/92/5
f 51/27/5 61/92/5 57/29/5
f 44/24/3 48/28/3 47/28/3
f 41/31/4 46/26/4 45/26/4
f 46/26/5 41/31/5 58/32/5
f 41/31/5 49/25/5 58/32/5
f 49/25/5 55/89/5 56/93/5
f 49/25/5 56/93/5 58/32/5
f 60/94/5 62/91/5 51/27/5
f 53/33/5 60/94/5 51/27/5
f 53/33/5 51/27/5 46/26/5
f 50/25/6 52/27/6 48/28/6
f 50/25/2 49/25/2 41/31/2
f 33/22/11 40/21/11 57/21/11
f 37/23/12 36/34/12 58/34/12
f 36/34/13 35/35/13 53/35/13
f 62/36/14 60/37/14 34/37/14
f 34/37/14 33/22/14 62/36/14
f 35/35/15 34/37/15 60/37/15
f 40/21/16 39/38/16 59/38/16
f 39/38/17 38/39/17 54/39/17
f 55/40/18 54/39/18 38/39/18
f 38/39/18 37/23/18 55/40/18
f 64/41/19 63/41/19 65/42/19
f 67/44/20 68/47/20 69/45/20
f 66/43/6 70/46/6 69/45/6
f 65/42/5 63/41/5 68/47/5
f 64/41/21 69/45/21 68/47/21
f 65/42/22 71/48/22 72/48/22
f 74/49/23 73/50/23 67/44/23
f 74/49/6 70/46/6 66/43/6
f 65/42/5 67/44/5 73/50/5
f 73/50/24 74/49/24 72/48/24
f 75/51/1 76/56/1 78/52/1
f 82/54/2 81/54/2 80/55/2
f 78/52/6 82/54/6 79/55/6
f 75/51/5 80/55/5 81/54/5
f 86/57/4 85/63/4 83/58/4
f 87/60/3 89/64/3 90/61/3
f 85/63/5 89/64/5 87/60/5
f 83/58/1 87/60/1 88/62/1
f 84/59/6 88/62/6 90/61/6
f 86/57/2 90/61/2 89/64/2
f 91/65/3 93/71/3 94/66/3
f 98/68/4 97/72/4 95/69/4
f 95/69/5 97/72/5 93/71/5
f 96/70/1 95/69/1 91/65/1
f 98/68/6 96/70/6 92/67/6
f 97/72/2 98/68/2 94/66/2
f 100/73/25 105/74/25 106/74/25
f 103/75/26 104/75/26 99/76/26
f 102/73/27 106/74/27 103/75/27
f 104/75/28 105/74/28 100/73/28
f 108/77/29 110/77/29 114/78/29
f 107/79/30 112/80/30 111/80/30
f 110/77/27 109/79/27 111/80/27
f 108/77/28 113/78/28 112/80/28
f 116/81/25 118/81/25 122/82/25
f 115/83/26 120/84/26 119/84/26
f 118/81/31 117/83/31 119/84/31
f 116/81/32 121/82/32 120/84/32
f 124/85/29 129/86/29 130/86/29
f 127/87/30 128/87/30 123/88/30
f 126/85/31 130/86/31 127/87/31
f 128/87/32 129/86/32 124/85/32
