# Blender 4.4.0
# www.blender.org
mtllib Bld_01_Fence_Wood_Gate_Single_Long_01.mtl
o Bld_01_Fence_Wood_Gate_Single_Long_01
v -1.857626 0.085061 -0.032134
v -1.742370 0.085061 -0.032134
v -1.857626 0.085061 0.057629
v -1.742370 0.085061 0.057629
v -1.857626 1.120910 0.057629
v -1.857626 1.120910 -0.032134
v -1.742370 1.120910 -0.032134
v -1.742370 1.120910 0.057629
v -1.742370 0.993238 -0.007651
v -0.172883 0.993238 -0.007651
v -1.742370 0.993238 0.033147
v -0.172883 0.993238 0.033147
v -1.742370 1.089857 0.033147
v -1.742370 1.089857 -0.007651
v -0.172883 1.089857 -0.007651
v -0.172883 1.089857 0.033147
v -1.742370 0.103381 -0.007651
v -0.172883 0.103381 -0.007651
v -1.742370 0.103381 0.033147
v -0.172883 0.103381 0.033147
v -1.742370 0.200000 0.033147
v -1.742370 0.200000 -0.007651
v -0.172883 0.200000 -0.007651
v -0.172883 0.200000 0.033147
v -1.742370 0.400000 -0.007651
v -0.172883 0.400000 -0.007651
v -1.742370 0.400000 0.033147
v -0.172883 0.400000 0.033147
v -1.742370 0.496619 0.033147
v -1.742370 0.496619 -0.007651
v -0.172883 0.496619 -0.007651
v -0.172883 0.496619 0.033147
v -1.742370 0.696619 -0.007651
v -0.172883 0.696619 -0.007651
v -1.742370 0.696619 0.033147
v -0.172883 0.696619 0.033147
v -1.742370 0.793238 0.033147
v -1.742370 0.793238 -0.007651
v -0.172883 0.793238 -0.007651
v -0.172883 0.793238 0.033147
v -0.172883 0.085061 -0.032134
v -0.057627 0.085061 -0.032134
v -0.172883 0.085061 0.057629
v -0.057627 0.085061 0.057629
v -0.172883 1.120910 0.057629
v -0.172883 1.120910 -0.032134
v -0.057627 1.120910 -0.032134
v -0.057627 1.120910 0.057629
v -1.747909 0.097269 -0.021615
v -0.170386 0.951076 -0.021615
v -1.747909 0.097269 -0.007652
v -0.170386 0.951076 -0.007652
v -1.745357 0.232291 -0.007652
v -1.745357 0.232291 -0.021615
v -0.170880 1.083234 -0.021615
v -0.170880 1.083234 -0.007652
vn -0.0000 -1.0000 -0.0000
vn -0.0000 1.0000 -0.0000
vn -0.0000 -0.0000 1.0000
vn -0.0000 -0.0000 -1.0000
vn 1.0000 -0.0000 -0.0000
vn -1.0000 -0.0000 -0.0000
vn 0.4760 -0.8795 -0.0000
vn -0.4755 0.8797 -0.0000
vt 0.602904 0.820169
vt 0.602903 0.820169
vt 0.602903 0.906266
vt 0.602904 0.906266
vt 0.592208 0.931744
vt 0.592192 0.931744
vt 0.592192 0.940495
vt 0.592208 0.940495
vt 0.592208 0.851148
vt 0.592192 0.851148
vt 0.592192 0.859899
vt 0.592208 0.859899
vt 0.592208 0.878013
vt 0.592192 0.878013
vt 0.592192 0.886764
vt 0.592208 0.886764
vt 0.592208 0.904879
vt 0.592192 0.904879
vt 0.592192 0.913630
vt 0.592208 0.913630
vt 0.602914 0.820169
vt 0.602913 0.820169
vt 0.602913 0.906266
vt 0.602914 0.906266
vt 0.592208 0.927925
vt 0.592192 0.850595
vt 0.592192 0.862824
vt 0.592208 0.939895
s 0
usemtl Texture_Map
f 2/1/1 3/2/1 1/2/1
f 5/3/2 7/4/2 6/3/2
f 8/4/3 3/2/3 4/1/3
f 6/3/4 2/1/4 1/2/4
f 7/4/5 4/1/5 2/1/5
f 5/3/6 1/2/6 3/2/6
f 10/5/1 11/6/1 9/6/1
f 13/7/2 15/8/2 14/7/2
f 16/8/3 11/6/3 12/5/3
f 14/7/4 10/5/4 9/6/4
f 18/9/1 19/10/1 17/10/1
f 21/11/2 23/12/2 22/11/2
f 24/12/3 19/10/3 20/9/3
f 22/11/4 18/9/4 17/10/4
f 26/13/1 27/14/1 25/14/1
f 29/15/2 31/16/2 30/15/2
f 32/16/3 27/14/3 28/13/3
f 30/15/4 26/13/4 25/14/4
f 34/17/1 35/18/1 33/18/1
f 37/19/2 39/20/2 38/19/2
f 40/20/3 35/18/3 36/17/3
f 38/19/4 34/17/4 33/18/4
f 42/21/1 43/22/1 41/22/1
f 45/23/2 47/24/2 46/23/2
f 48/24/3 43/22/3 44/21/3
f 46/23/4 42/21/4 41/22/4
f 47/24/5 44/21/5 42/21/5
f 45/23/6 41/22/6 43/22/6
f 50/25/7 51/26/7 49/26/7
f 53/27/8 55/28/8 54/27/8
f 52/25/3 53/27/3 51/26/3
f 54/27/4 50/25/4 49/26/4
f 2/1/1 4/1/1 3/2/1
f 5/3/2 8/4/2 7/4/2
f 8/4/3 5/3/3 3/2/3
f 6/3/4 7/4/4 2/1/4
f 7/4/5 8/4/5 4/1/5
f 5/3/6 6/3/6 1/2/6
f 10/5/1 12/5/1 11/6/1
f 13/7/2 16/8/2 15/8/2
f 16/8/3 13/7/3 11/6/3
f 14/7/4 15/8/4 10/5/4
f 18/9/1 20/9/1 19/10/1
f 21/11/2 24/12/2 23/12/2
f 24/12/3 21/11/3 19/10/3
f 22/11/4 23/12/4 18/9/4
f 26/13/1 28/13/1 27/14/1
f 29/15/2 32/16/2 31/16/2
f 32/16/3 29/15/3 27/14/3
f 30/15/4 31/16/4 26/13/4
f 34/17/1 36/17/1 35/18/1
f 37/19/2 40/20/2 39/20/2
f 40/20/3 37/19/3 35/18/3
f 38/19/4 39/20/4 34/17/4
f 42/21/1 44/21/1 43/22/1
f 45/23/2 48/24/2 47/24/2
f 48/24/3 45/23/3 43/22/3
f 46/23/4 47/24/4 42/21/4
f 47/24/5 48/24/5 44/21/5
f 45/23/6 46/23/6 41/22/6
f 50/25/7 52/25/7 51/26/7
f 53/27/8 56/28/8 55/28/8
f 52/25/3 56/28/3 53/27/3
f 54/27/4 55/28/4 50/25/4
