# Blender 4.4.0
# www.blender.org
mtllib Bld_02_Fence_Wood_Gate_Double_Worned_Handle_01.mtl
o Bld_02_Fence_Wood_Gate_Double_Left_Worned_01
v -1.437867 0.450478 0.029721
v -2.377145 0.450478 -0.029416
v -1.437867 0.450478 -0.029416
v -2.377145 0.590389 -0.029416
v -2.377145 0.596675 0.029721
v -1.437867 0.590389 0.029721
v -1.437867 0.590389 -0.029416
v -2.377179 0.928367 0.029721
v -2.377179 0.928367 -0.029416
v -1.437866 0.851583 -0.029416
v -2.377150 1.069142 -0.029416
v -2.377150 1.069142 0.029721
v -1.437866 0.992126 0.029721
v -1.437866 0.992126 -0.029416
v -1.437867 1.330301 0.029721
v -2.377145 1.330301 -0.029416
v -1.437867 1.330301 -0.029416
v -2.377145 1.470213 -0.029416
v -2.377145 1.470213 0.029721
v -1.437867 1.451446 0.029721
v -1.437867 1.467901 -0.029416
v -2.377146 0.111273 -0.070028
v -2.517507 0.111273 0.070333
v -2.377146 0.147385 0.070333
v -2.517507 1.489359 0.070333
v -2.517507 1.489359 -0.070028
v -2.377146 1.489359 -0.070028
v -1.301497 0.111273 -0.070028
v -1.437867 0.111273 0.070333
v -1.301497 0.111273 0.070333
v -1.437867 1.489359 0.070333
v -1.437867 1.489359 -0.070028
v -1.301497 1.489359 -0.070028
v -2.379593 0.383176 -0.029265
v -1.435539 1.266853 -0.029264
v -2.379593 0.383176 -0.065140
v -2.379593 0.572910 -0.065140
v -2.379593 0.572910 -0.029265
v -1.435539 1.459442 -0.029264
v -1.435539 1.459442 -0.065140
v -2.083908 0.659950 -0.029265
v -2.083908 0.843955 -0.065140
v -2.083908 0.843955 -0.029265
v -2.069615 0.870780 -0.029265
v -2.110766 0.825357 -0.029265
v -2.110766 0.825357 -0.065140
v -2.069615 0.870780 -0.065140
v -1.435539 1.266853 -0.045729
v -1.435539 1.293441 -0.065140
v -2.083908 0.686538 -0.065140
v -2.083908 0.659950 -0.045729
v -2.130812 0.616046 -0.065140
v -1.615659 1.292222 -0.040638
v -1.607921 1.283888 -0.029264
v -1.562841 1.341258 -0.029264
v -1.696871 1.201308 -0.029264
v -1.704609 1.209643 -0.040638
v -1.845317 1.079013 -0.029265
v -2.100070 1.330301 -0.029416
v -2.100070 1.469087 -0.029416
v -2.100070 1.469087 0.029721
v -2.080609 1.455119 0.029721
v -2.119530 1.473070 0.029721
v -2.119530 1.473070 -0.029416
v -2.080609 1.471574 -0.029416
v -2.377145 1.330301 0.023309
v -2.377145 1.336712 0.029721
v -2.100070 1.336712 0.029721
v -2.100070 1.330301 0.023309
v -1.931327 1.330301 0.029721
v -1.493993 1.336695 0.029721
v -1.493993 1.330301 0.023327
v -1.446119 1.330301 0.029721
v -1.601990 1.330301 0.023327
v -1.601990 1.336695 0.029721
v -1.794118 1.330301 0.029721
v -2.159435 0.910568 -0.029416
v -2.159412 1.044502 -0.029416
v -2.159412 1.044502 0.029721
v -2.018507 1.039735 0.029721
v -2.178490 1.055408 0.029721
v -2.178490 1.055408 -0.029416
v -2.018507 1.039735 -0.029416
v -1.437866 0.875394 0.029721
v -1.437866 0.851583 0.017993
v -2.159435 0.910568 0.017993
v -2.159433 0.922334 0.029721
v -1.541932 1.000658 0.022259
v -1.542542 0.993222 0.029721
v -1.470038 0.994763 0.029721
v -1.663339 1.003126 0.029721
v -1.662729 1.010563 0.022259
v -1.778848 1.020084 0.029721
v -1.714126 0.457738 -0.029416
v -1.714126 0.588234 -0.029416
v -1.714126 0.588234 0.029721
v -1.622852 0.590389 0.029721
v -1.735552 0.596675 0.029721
v -1.735552 0.590389 -0.029416
v -1.622852 0.590389 -0.029416
v -2.377145 0.450478 0.019279
v -2.377145 0.460919 0.029721
v -1.714126 0.460919 0.029721
v -1.714126 0.457738 0.019279
v -1.491189 0.450478 0.029721
v -2.002869 0.591064 -0.023064
v -2.002869 0.584002 -0.029416
v -2.138215 0.590389 -0.029416
v -1.918080 0.584002 -0.029416
v -1.918080 0.591064 -0.023064
v -1.835011 0.590389 -0.029416
v -2.456548 1.489359 0.070333
v -2.377146 1.461020 0.070333
v -2.377146 1.489359 -0.002064
v -2.384891 0.902129 0.070333
v -2.377146 0.902129 0.062588
v -2.377146 1.351901 0.070333
v -2.377146 0.670164 0.062588
v -2.384891 0.670164 0.070333
v -2.377146 0.490863 0.070333
v -2.517507 0.111273 -0.029229
v -2.517507 0.152072 -0.070028
v -2.428816 0.111273 -0.070028
v -1.363921 1.489359 0.070333
v -1.301497 1.460366 0.070333
v -1.301497 1.489359 0.041340
v -1.308692 1.141919 0.070333
v -1.301497 1.141919 0.063139
v -1.301497 1.237343 0.070333
v -1.301497 0.986617 0.063139
v -1.308692 0.986617 0.070333
v -1.301497 0.840163 0.070333
v -1.433014 0.676045 0.070333
v -1.437867 0.623459 0.070333
v -1.437867 0.676045 0.065480
v -1.437867 0.773289 0.070333
v -1.437867 0.111273 -0.022545
v -1.437867 0.437220 -0.070028
v -1.390384 0.111273 -0.070028
vn 0.0110 -0.9999 -0.0000
vn -0.0000 -0.0000 -1.0000
vn -0.0815 -0.9967 -0.0000
vn -0.0000 -1.0000 -0.0000
vn -1.0000 -0.0000 -0.0000
vn -0.0000 1.0000 -0.0000
vn -0.0000 -0.9685 0.2492
vn 0.6834 -0.7301 -0.0000
vn -0.8825 0.4703 -0.0000
vn -0.6845 0.7290 -0.0000
vn -0.0000 -0.0000 1.0000
vn -0.5693 0.8221 -0.0000
vn 0.6632 -0.4413 -0.6045
vn 0.4832 -0.5162 -0.7071
vn -0.5594 0.4396 0.7027
vn -0.4500 0.5462 0.7065
vn -0.4811 0.5182 0.7071
vn -0.6804 0.7329 -0.0000
vn 0.5687 0.7924 0.2205
vn -0.0111 0.9999 -0.0000
vn 0.2005 0.9797 -0.0000
vn 0.0055 0.9634 0.2681
vn -0.0269 -0.7069 0.7068
vn -0.0000 -0.7071 0.7071
vn -0.0940 -0.7040 0.7040
vn 0.0235 -0.7069 0.7069
vn 0.0338 0.9994 -0.0000
vn 0.0690 0.9976 -0.0000
vn 0.4963 0.8682 -0.0000
vn -0.0196 -0.7058 0.7081
vn -0.0459 -0.7052 0.7075
vn 0.0817 0.9967 -0.0000
vn -0.0151 0.7088 0.7052
vn 0.1028 0.7003 0.7064
vn 0.0578 0.7047 0.7071
vn -0.0236 0.9997 -0.0000
vn -0.0263 -0.9994 -0.0237
vn 0.3647 0.9259 -0.0984
vn -0.0448 -0.9556 0.2911
vn 0.0077 -0.7071 0.7071
vn 0.0315 0.6684 -0.7432
vn -0.0514 0.6678 -0.7426
vn -0.0000 0.6687 -0.7435
vn -0.0000 0.9944 -0.1057
vn 0.3154 0.8837 0.3459
vn 1.0000 -0.0000 -0.0000
vn 0.7071 -0.0122 0.7071
vn 0.7068 0.0305 0.7068
vn 0.7071 -0.0000 0.7071
vn -0.3093 -0.6724 -0.6724
vn 0.3120 0.6718 0.6718
vn 0.7061 -0.0532 0.7061
vn 0.7067 0.0347 0.7067
vn -0.7056 0.0651 0.7056
vn -0.7067 -0.0353 0.7067
vn -0.7034 -0.1025 -0.7034
vn 0.2492 -0.9685 -0.0000
vn 0.0984 -0.9719 0.2138
vn -0.6846 0.7290 -0.0000
vn -0.1268 0.9919 -0.0000
vn -0.0361 -0.4415 0.8965
vn -0.0326 -0.9995 -0.0000
vn 0.1001 0.9950 -0.0000
vn -0.0000 -0.9566 0.2914
vt 0.200896 0.834674
vt 0.200919 0.834760
vt 0.200905 0.839090
vt 0.200907 0.839625
vt 0.200906 0.837455
vt 0.200896 0.840303
vt 0.200904 0.840094
vt 0.200903 0.841800
vt 0.200896 0.845038
vt 0.200905 0.846719
vt 0.200906 0.845038
vt 0.200928 0.839399
vt 0.200909 0.841615
vt 0.200928 0.841054
vt 0.204969 0.818309
vt 0.204969 0.810988
vt 0.204969 0.810765
vt 0.204972 0.818309
vt 0.204970 0.818309
vt 0.204971 0.810765
vt 0.204972 0.810765
vt 0.204972 0.810962
vt 0.204987 0.814389
vt 0.204987 0.818309
vt 0.204988 0.818309
vt 0.204989 0.818309
vt 0.200905 0.836625
vt 0.200906 0.837142
vt 0.200929 0.844290
vt 0.200906 0.839309
vt 0.200896 0.836117
vt 0.200929 0.844604
vt 0.200896 0.833882
vt 0.200920 0.843518
vt 0.200915 0.842078
vt 0.200922 0.844589
vt 0.200923 0.844491
vt 0.200924 0.845167
vt 0.200919 0.843616
vt 0.200929 0.846559
vt 0.200906 0.846702
vt 0.200906 0.846672
vt 0.200906 0.846508
vt 0.200896 0.846686
vt 0.200906 0.845113
vt 0.200928 0.846658
vt 0.200912 0.845038
vt 0.200896 0.845113
vt 0.200928 0.845038
vt 0.200923 0.845038
vt 0.200916 0.845038
vt 0.200927 0.845113
vt 0.200927 0.845038
vt 0.200928 0.845038
vt 0.200923 0.845113
vt 0.200928 0.846465
vt 0.200904 0.841671
vt 0.200896 0.841961
vt 0.200922 0.836322
vt 0.200918 0.836396
vt 0.200919 0.834797
vt 0.200904 0.840232
vt 0.200928 0.839679
vt 0.200925 0.841155
vt 0.200927 0.841085
vt 0.200925 0.841067
vt 0.200921 0.841184
vt 0.200921 0.841272
vt 0.200917 0.841384
vt 0.200919 0.836297
vt 0.200928 0.834674
vt 0.200927 0.834674
vt 0.200928 0.836322
vt 0.200918 0.836322
vt 0.200896 0.834797
vt 0.200912 0.836247
vt 0.200909 0.836247
vt 0.200909 0.836330
vt 0.200904 0.836322
vt 0.200912 0.836330
vt 0.200915 0.836322
vt 0.204972 0.818154
vt 0.204972 0.813824
vt 0.204972 0.812843
vt 0.204972 0.815094
vt 0.204972 0.815094
vt 0.204972 0.817557
vt 0.204972 0.813824
vt 0.204989 0.818150
vt 0.204989 0.816407
vt 0.204989 0.815557
vt 0.204989 0.816407
vt 0.204989 0.816930
vt 0.204989 0.815557
vt 0.204989 0.814755
vt 0.204987 0.810765
vt 0.204989 0.810765
vt 0.204987 0.813857
vt 0.204987 0.813857
vt 0.204987 0.813569
vt 0.204987 0.810765
vt 0.204987 0.812549
vt 0.200896 0.836396
vt 0.200896 0.836322
s 0
usemtl Texture_Map
f 2/1/1 104/2/1 101/1/1
f 46/3/2 47/4/2 50/5/2
f 9/6/3 86/7/3 8/6/3
f 9/6/2 82/8/2 77/7/2
f 16/9/2 64/10/2 59/11/2
f 16/9/4 69/11/4 66/9/4
f 10/12/2 83/13/2 14/14/2
f 25/15/5 122/16/5 23/17/5
f 114/18/6 26/15/6 112/19/6
f 123/20/7 22/21/7 24/22/7
f 136/23/5 31/24/5 32/24/5
f 124/25/6 126/26/6 33/26/6
f 52/27/8 51/28/8 41/28/8
f 51/28/8 35/29/8 41/28/8
f 47/4/9 43/30/9 44/4/9
f 38/31/10 46/3/10 37/31/10
f 52/27/2 37/31/2 46/3/2
f 44/4/11 45/3/11 41/28/11
f 42/30/12 45/3/12 43/30/12
f 50/5/13 51/28/13 52/27/13
f 48/29/14 50/5/14 49/32/14
f 41/28/11 38/31/11 34/33/11
f 35/29/11 56/34/11 58/35/11
f 53/36/15 54/37/15 55/38/15
f 56/34/16 57/39/16 58/35/16
f 56/34/17 53/36/17 57/39/17
f 53/36/18 55/38/18 40/40/18
f 65/41/19 61/42/19 62/43/19
f 63/10/20 18/44/20 19/44/20
f 62/43/11 63/10/11 68/45/11
f 60/42/21 63/10/21 61/42/21
f 62/43/22 21/46/22 65/41/22
f 68/45/23 69/11/23 70/47/23
f 69/11/24 67/48/24 66/9/24
f 64/10/2 65/41/2 59/11/2
f 17/49/4 74/50/4 76/51/4
f 71/52/25 72/53/25 73/54/25
f 74/50/26 75/55/26 76/51/26
f 72/53/24 75/55/24 74/50/24
f 75/55/11 71/52/11 20/56/11
f 83/13/27 79/57/27 80/13/27
f 77/7/3 85/12/3 86/7/3
f 81/8/28 11/58/28 12/58/28
f 97/59/11 98/60/11 103/61/11
f 87/62/11 79/57/11 81/8/11
f 78/57/29 81/8/29 79/57/29
f 86/7/30 87/62/30 8/6/30
f 86/7/31 84/63/31 87/62/31
f 88/64/32 90/65/32 14/14/32
f 88/64/33 89/66/33 90/65/33
f 91/67/34 92/68/34 93/69/34
f 88/64/35 91/67/35 89/66/35
f 84/63/11 91/67/11 93/69/11
f 100/59/36 96/70/36 97/59/36
f 3/71/37 105/72/37 94/2/37
f 105/72/11 6/73/11 97/59/11
f 99/74/2 100/59/2 94/2/2
f 96/70/38 99/74/38 98/60/38
f 97/59/6 7/73/6 100/59/6
f 103/61/39 104/2/39 105/72/39
f 104/2/40 102/75/40 101/1/40
f 3/71/2 100/59/2 7/73/2
f 109/76/2 94/2/2 107/77/2
f 106/78/41 107/77/41 108/79/41
f 109/76/42 110/80/42 111/81/42
f 107/77/43 110/80/43 109/76/43
f 98/60/44 110/80/44 106/78/44
f 112/19/45 113/82/45 114/18/45
f 118/83/46 120/84/46 22/21/46
f 115/85/47 116/86/47 117/87/47
f 118/83/48 119/88/48 120/84/48
f 116/86/49 119/88/49 118/83/49
f 115/85/11 117/87/11 25/15/11
f 121/17/50 122/16/50 123/20/50
f 122/16/2 27/18/2 22/21/2
f 124/25/51 125/89/51 126/26/51
f 33/26/46 128/90/46 130/91/46
f 127/92/52 128/90/52 129/93/52
f 130/91/53 131/94/53 132/95/53
f 128/90/49 131/94/49 130/91/49
f 139/96/4 28/97/4 30/97/4
f 133/98/54 135/99/54 134/100/54
f 135/99/55 133/98/55 136/23/55
f 127/92/11 129/93/11 31/24/11
f 137/101/56 138/102/56 139/96/56
f 138/102/2 33/26/2 28/97/2
f 78/57/2 77/7/2 82/8/2
f 67/48/11 63/10/11 19/44/11
f 17/49/2 65/41/2 21/46/2
f 8/6/11 81/8/11 12/58/11
f 102/75/11 98/60/11 5/103/11
f 49/32/2 47/4/2 40/40/2
f 2/1/1 94/2/1 104/2/1
f 46/3/11 42/30/11 47/4/11
f 9/6/3 77/7/3 86/7/3
f 9/6/2 11/58/2 82/8/2
f 16/9/2 18/44/2 64/10/2
f 16/9/4 59/11/4 69/11/4
f 10/12/2 77/7/2 83/13/2
f 26/15/5 122/16/5 25/15/5
f 122/16/5 121/17/5 23/17/5
f 27/18/6 26/15/6 114/18/6
f 26/15/6 25/15/6 112/19/6
f 23/17/57 121/17/57 24/22/57
f 121/17/58 123/20/58 24/22/58
f 32/24/5 138/102/5 136/23/5
f 138/102/5 137/101/5 29/101/5
f 135/99/5 138/102/5 134/100/5
f 29/101/5 134/100/5 138/102/5
f 135/99/5 136/23/5 138/102/5
f 33/26/6 32/24/6 124/25/6
f 32/24/6 31/24/6 124/25/6
f 41/28/8 34/33/8 52/27/8
f 34/33/8 36/33/8 52/27/8
f 51/28/8 48/29/8 35/29/8
f 47/4/9 42/30/9 43/30/9
f 38/31/59 45/3/59 46/3/59
f 46/3/2 50/5/2 52/27/2
f 52/27/2 36/33/2 37/31/2
f 44/4/2 43/30/2 45/3/2
f 42/30/12 46/3/12 45/3/12
f 48/29/14 51/28/14 50/5/14
f 41/28/11 45/3/11 38/31/11
f 44/4/11 41/28/11 58/35/11
f 41/28/11 35/29/11 58/35/11
f 35/29/11 39/40/11 55/38/11
f 35/29/11 55/38/11 54/37/11
f 35/29/11 54/37/11 56/34/11
f 56/34/17 54/37/17 53/36/17
f 47/4/18 44/4/18 58/35/18
f 47/4/18 58/35/18 57/39/18
f 55/38/18 39/40/18 40/40/18
f 47/4/18 57/39/18 40/40/18
f 57/39/18 53/36/18 40/40/18
f 65/41/60 60/42/60 61/42/60
f 63/10/20 64/10/20 18/44/20
f 62/43/11 61/42/11 63/10/11
f 60/42/21 64/10/21 63/10/21
f 62/43/22 20/56/22 21/46/22
f 69/11/24 68/45/24 67/48/24
f 64/10/11 60/42/11 65/41/11
f 76/51/4 70/47/4 59/11/4
f 70/47/4 69/11/4 59/11/4
f 59/11/4 17/49/4 76/51/4
f 17/49/4 15/49/4 73/54/4
f 17/49/4 73/54/4 72/53/4
f 17/49/4 72/53/4 74/50/4
f 72/53/24 71/52/24 75/55/24
f 62/43/11 68/45/11 70/47/11
f 70/47/11 76/51/11 62/43/11
f 76/51/11 75/55/11 20/56/11
f 62/43/11 76/51/11 20/56/11
f 71/52/11 73/54/11 20/56/11
f 73/54/11 15/49/11 20/56/11
f 83/13/27 78/57/27 79/57/27
f 77/7/3 10/12/3 85/12/3
f 81/8/28 82/8/28 11/58/28
f 97/59/2 96/70/2 98/60/2
f 87/62/11 80/13/11 79/57/11
f 78/57/29 82/8/29 81/8/29
f 86/7/61 85/12/61 84/63/61
f 83/13/32 80/13/32 93/69/32
f 83/13/32 93/69/32 92/68/32
f 13/14/32 14/14/32 90/65/32
f 14/14/32 83/13/32 92/68/32
f 88/64/32 14/14/32 92/68/32
f 88/64/35 92/68/35 91/67/35
f 80/13/11 87/62/11 93/69/11
f 87/62/11 84/63/11 93/69/11
f 84/63/11 13/14/11 90/65/11
f 84/63/11 90/65/11 89/66/11
f 84/63/11 89/66/11 91/67/11
f 100/59/36 95/70/36 96/70/36
f 1/71/4 105/72/4 3/71/4
f 105/72/62 104/2/62 94/2/62
f 97/59/11 103/61/11 105/72/11
f 105/72/11 1/71/11 6/73/11
f 99/74/11 95/70/11 100/59/11
f 96/70/63 95/70/63 99/74/63
f 97/59/6 6/73/6 7/73/6
f 104/2/64 103/61/64 102/75/64
f 3/71/2 94/2/2 100/59/2
f 99/74/2 94/2/2 111/81/2
f 94/2/2 2/1/2 107/77/2
f 111/81/2 94/2/2 109/76/2
f 2/1/2 4/104/2 108/79/2
f 2/1/2 108/79/2 107/77/2
f 107/77/43 106/78/43 110/80/43
f 4/104/44 5/103/44 108/79/44
f 5/103/44 98/60/44 106/78/44
f 108/79/44 5/103/44 106/78/44
f 98/60/44 99/74/44 111/81/44
f 98/60/44 111/81/44 110/80/44
f 24/22/46 22/21/46 120/84/46
f 22/21/46 27/18/46 116/86/46
f 118/83/46 22/21/46 116/86/46
f 27/18/46 114/18/46 117/87/46
f 114/18/46 113/82/46 117/87/46
f 117/87/46 116/86/46 27/18/46
f 116/86/49 115/85/49 119/88/49
f 23/17/11 24/22/11 120/84/11
f 23/17/11 120/84/11 119/88/11
f 112/19/11 25/15/11 117/87/11
f 25/15/11 23/17/11 115/85/11
f 117/87/11 113/82/11 112/19/11
f 23/17/11 119/88/11 115/85/11
f 22/21/2 123/20/2 122/16/2
f 122/16/2 26/15/2 27/18/2
f 30/97/46 28/97/46 132/95/46
f 28/97/46 33/26/46 132/95/46
f 132/95/46 33/26/46 130/91/46
f 33/26/46 126/26/46 125/89/46
f 125/89/46 129/93/46 33/26/46
f 129/93/46 128/90/46 33/26/46
f 128/90/49 127/92/49 131/94/49
f 29/101/4 137/101/4 30/97/4
f 137/101/4 139/96/4 30/97/4
f 29/101/11 30/97/11 134/100/11
f 30/97/11 132/95/11 134/100/11
f 134/100/11 132/95/11 133/98/11
f 132/95/11 131/94/11 136/23/11
f 133/98/11 132/95/11 136/23/11
f 31/24/11 136/23/11 127/92/11
f 127/92/11 136/23/11 131/94/11
f 125/89/11 124/25/11 129/93/11
f 124/25/11 31/24/11 129/93/11
f 28/97/2 139/96/2 138/102/2
f 138/102/2 32/24/2 33/26/2
f 78/57/2 83/13/2 77/7/2
f 67/48/11 68/45/11 63/10/11
f 17/49/2 59/11/2 65/41/2
f 8/6/11 87/62/11 81/8/11
f 102/75/11 103/61/11 98/60/11
f 49/32/2 50/5/2 47/4/2
o Bld_02_Fence_Wood_Gate_Double_Right_Worned_01
v -1.157143 0.450478 0.029721
v -0.217865 0.450478 -0.029416
v -1.157143 0.450478 -0.029416
v -0.217865 0.590389 -0.029416
v -0.217865 0.596675 0.029721
v -1.157143 0.590389 0.029721
v -1.157143 0.590389 -0.029416
v -0.217831 0.928367 0.029721
v -0.217831 0.928367 -0.029416
v -1.157144 0.851583 -0.029416
v -0.217860 1.069142 -0.029416
v -0.217860 1.069142 0.029721
v -1.157144 0.992126 0.029721
v -1.157144 0.992126 -0.029416
v -1.157143 1.330301 0.029721
v -0.217865 1.330301 -0.029416
v -1.157143 1.330301 -0.029416
v -0.217865 1.470213 -0.029416
v -0.217865 1.470213 0.029721
v -1.157143 1.451446 0.029721
v -1.157143 1.467901 -0.029416
v -0.217864 0.111273 -0.070028
v -0.077503 0.111273 0.070333
v -0.217864 0.147385 0.070333
v -0.077503 1.489359 0.070333
v -0.077503 1.489359 -0.070028
v -0.217864 1.489359 -0.070028
v -1.293512 0.111273 -0.070028
v -1.157143 0.111273 0.070333
v -1.293512 0.111273 0.070333
v -1.157143 1.489359 0.070333
v -1.157143 1.489359 -0.070028
v -1.293512 1.489359 -0.070028
v -0.215417 0.383176 -0.029265
v -1.159471 1.266853 -0.029264
v -0.215417 0.383176 -0.065140
v -0.215417 0.572910 -0.065140
v -0.215417 0.572910 -0.029265
v -1.159471 1.459442 -0.029264
v -1.159471 1.459442 -0.065140
v -0.511102 0.659950 -0.029265
v -0.511102 0.843955 -0.065140
v -0.511102 0.843955 -0.029265
v -0.525395 0.870780 -0.029265
v -0.484244 0.825357 -0.029265
v -0.484244 0.825357 -0.065140
v -0.525395 0.870780 -0.065140
v -1.159471 1.266853 -0.045729
v -1.159471 1.293441 -0.065140
v -0.511102 0.686538 -0.065140
v -0.511102 0.659950 -0.045729
v -0.464198 0.616046 -0.065140
v -0.979351 1.292222 -0.040638
v -0.987089 1.283888 -0.029264
v -1.032169 1.341258 -0.029264
v -0.898139 1.201308 -0.029264
v -0.890401 1.209643 -0.040638
v -0.749693 1.079013 -0.029265
v -0.494940 1.330301 -0.029416
v -0.494940 1.469087 -0.029416
v -0.494940 1.469087 0.029721
v -0.514401 1.455119 0.029721
v -0.475480 1.473070 0.029721
v -0.475480 1.473070 -0.029416
v -0.514401 1.471574 -0.029416
v -0.217865 1.330301 0.023309
v -0.217865 1.336712 0.029721
v -0.494940 1.336712 0.029721
v -0.494940 1.330301 0.023309
v -0.663683 1.330301 0.029721
v -1.101017 1.336695 0.029721
v -1.101017 1.330301 0.023327
v -1.148891 1.330301 0.029721
v -0.993020 1.330301 0.023327
v -0.993020 1.336695 0.029721
v -0.800891 1.330301 0.029721
v -0.435575 0.910568 -0.029416
v -0.435598 1.044502 -0.029416
v -0.435598 1.044502 0.029721
v -0.576503 1.039735 0.029721
v -0.416520 1.055408 0.029721
v -0.416520 1.055408 -0.029416
v -0.576503 1.039735 -0.029416
v -1.157144 0.875394 0.029721
v -1.157144 0.851583 0.017993
v -0.435575 0.910568 0.017993
v -0.435577 0.922334 0.029721
v -1.053078 1.000658 0.022259
v -1.052468 0.993222 0.029721
v -1.124972 0.994763 0.029721
v -0.931671 1.003126 0.029721
v -0.932280 1.010563 0.022259
v -0.816162 1.020084 0.029721
v -0.880884 0.457738 -0.029416
v -0.880884 0.588234 -0.029416
v -0.880884 0.588234 0.029721
v -0.972158 0.590389 0.029721
v -0.859458 0.596675 0.029721
v -0.859458 0.590389 -0.029416
v -0.972158 0.590389 -0.029416
v -0.217865 0.450478 0.019279
v -0.217865 0.460919 0.029721
v -0.880884 0.460919 0.029721
v -0.880884 0.457738 0.019279
v -1.103821 0.450478 0.029721
v -0.592141 0.591064 -0.023064
v -0.592141 0.584002 -0.029416
v -0.456795 0.590389 -0.029416
v -0.676930 0.584002 -0.029416
v -0.676930 0.591064 -0.023064
v -0.759999 0.590389 -0.029416
v -0.138462 1.489359 0.070333
v -0.217864 1.461020 0.070333
v -0.217864 1.489359 -0.002064
v -0.210119 0.902129 0.070333
v -0.217864 0.902129 0.062588
v -0.217864 1.351901 0.070333
v -0.217864 0.670164 0.062588
v -0.210119 0.670164 0.070333
v -0.217864 0.490863 0.070333
v -0.077503 0.111273 -0.029229
v -0.077503 0.152072 -0.070028
v -0.166193 0.111273 -0.070028
v -1.231088 1.489359 0.070333
v -1.293512 1.460366 0.070333
v -1.293512 1.489359 0.041340
v -1.286318 1.141919 0.070333
v -1.293512 1.141919 0.063139
v -1.293512 1.237343 0.070333
v -1.293512 0.986617 0.063139
v -1.286318 0.986617 0.070333
v -1.293512 0.840163 0.070333
v -1.161995 0.676045 0.070333
v -1.157143 0.623459 0.070333
v -1.157143 0.676045 0.065480
v -1.157143 0.773289 0.070333
v -1.157143 0.111273 -0.022545
v -1.157143 0.437220 -0.070028
v -1.204625 0.111273 -0.070028
vn -0.0110 -0.9999 -0.0000
vn -0.0000 -0.0000 1.0000
vn 0.0815 -0.9967 -0.0000
vn -0.0000 -0.0000 -1.0000
vn -0.0000 -1.0000 -0.0000
vn 1.0000 -0.0000 -0.0000
vn -0.0000 1.0000 -0.0000
vn -0.0000 -0.9685 0.2492
vn -0.6834 -0.7301 -0.0000
vn 0.8825 0.4703 -0.0000
vn 0.6846 0.7290 -0.0000
vn 0.5693 0.8221 -0.0000
vn -0.6632 -0.4413 -0.6045
vn -0.4832 -0.5162 -0.7071
vn 0.5594 0.4396 0.7027
vn 0.4500 0.5462 0.7065
vn 0.4811 0.5182 0.7071
vn 0.6804 0.7329 -0.0000
vn -0.5687 0.7924 0.2205
vn 0.0111 0.9999 -0.0000
vn -0.2005 0.9797 -0.0000
vn -0.0055 0.9634 0.2681
vn 0.0269 -0.7069 0.7068
vn -0.0000 -0.7071 0.7071
vn 0.0940 -0.7040 0.7040
vn -0.0235 -0.7069 0.7069
vn -0.0338 0.9994 -0.0000
vn -0.0690 0.9976 -0.0000
vn -0.4963 0.8682 -0.0000
vn 0.0196 -0.7058 0.7081
vn 0.0361 -0.4415 0.8965
vn -0.0817 0.9967 -0.0000
vn 0.0151 0.7088 0.7052
vn -0.1028 0.7003 0.7064
vn -0.0578 0.7047 0.7071
vn 0.0236 0.9997 -0.0000
vn 0.0263 -0.9994 -0.0237
vn -0.1001 0.9950 -0.0000
vn 0.0448 -0.9556 0.2911
vn -0.0077 -0.7071 0.7071
vn -0.0315 0.6684 -0.7432
vn 0.0514 0.6678 -0.7426
vn -0.0000 0.6687 -0.7435
vn -0.0000 0.9944 -0.1057
vn -0.3154 0.8837 0.3459
vn -1.0000 -0.0000 -0.0000
vn -0.7071 -0.0122 0.7071
vn -0.7068 0.0305 0.7068
vn -0.7071 -0.0000 0.7071
vn 0.3093 -0.6724 -0.6724
vn -0.3120 0.6718 0.6718
vn -0.7061 -0.0532 0.7061
vn -0.7067 0.0347 0.7067
vn 0.7056 0.0651 0.7056
vn 0.7067 -0.0353 0.7067
vn 0.7034 -0.1025 -0.7034
vn -0.0984 -0.9719 0.2138
vn -0.2492 -0.9685 -0.0000
vn 0.6845 0.7290 -0.0000
vn 0.1268 0.9919 -0.0000
vn 0.0459 -0.7052 0.7075
vn 0.0326 -0.9995 -0.0000
vn -0.3647 0.9259 -0.0984
vn -0.0000 -0.9566 0.2914
vt 0.200948 0.834760
vt 0.200970 0.834674
vt 0.200961 0.839090
vt 0.200960 0.839625
vt 0.200960 0.839309
vt 0.200963 0.840094
vt 0.200970 0.840303
vt 0.200963 0.841800
vt 0.200961 0.846719
vt 0.200970 0.845038
vt 0.200961 0.845038
vt 0.200938 0.839399
vt 0.200958 0.841615
vt 0.205008 0.810765
vt 0.205008 0.810988
vt 0.205008 0.818309
vt 0.205007 0.818309
vt 0.205006 0.818309
vt 0.205006 0.810962
vt 0.205006 0.810765
vt 0.205007 0.810765
vt 0.204991 0.814389
vt 0.204991 0.813857
vt 0.204991 0.812549
vt 0.204989 0.818309
vt 0.204990 0.818309
vt 0.200960 0.837142
vt 0.200962 0.836625
vt 0.200938 0.844290
vt 0.200970 0.836117
vt 0.200970 0.833882
vt 0.200960 0.837455
vt 0.200947 0.843518
vt 0.200944 0.844491
vt 0.200944 0.844589
vt 0.200942 0.845167
vt 0.200952 0.842078
vt 0.200947 0.843616
vt 0.200938 0.846559
vt 0.200961 0.846672
vt 0.200960 0.846702
vt 0.200960 0.846508
vt 0.200970 0.846686
vt 0.200961 0.845113
vt 0.200938 0.846658
vt 0.200938 0.846465
vt 0.200955 0.845038
vt 0.200970 0.845113
vt 0.200940 0.845038
vt 0.200938 0.845038
vt 0.200938 0.845038
vt 0.200940 0.845113
vt 0.200944 0.845038
vt 0.200950 0.845038
vt 0.200944 0.845113
vt 0.200963 0.841671
vt 0.200970 0.841961
vt 0.200944 0.836322
vt 0.200948 0.836396
vt 0.200948 0.836297
vt 0.200963 0.840232
vt 0.200938 0.839679
vt 0.200938 0.841054
vt 0.200942 0.841155
vt 0.200946 0.841272
vt 0.200939 0.841085
vt 0.200942 0.841067
vt 0.200946 0.841184
vt 0.200950 0.841384
vt 0.200940 0.834674
vt 0.200938 0.834674
vt 0.200938 0.836322
vt 0.200948 0.836322
vt 0.200948 0.834797
vt 0.200970 0.834797
vt 0.200955 0.836247
vt 0.200957 0.836247
vt 0.200957 0.836330
vt 0.200962 0.836322
vt 0.200952 0.836322
vt 0.200955 0.836330
vt 0.205006 0.818154
vt 0.205006 0.817557
vt 0.205006 0.815094
vt 0.205006 0.815094
vt 0.205006 0.813824
vt 0.205006 0.812843
vt 0.205006 0.813824
vt 0.204989 0.818150
vt 0.204989 0.815557
vt 0.204989 0.816407
vt 0.204989 0.816407
vt 0.204989 0.816930
vt 0.204989 0.814755
vt 0.204989 0.815557
vt 0.204989 0.810765
vt 0.204990 0.810765
vt 0.204991 0.813857
vt 0.204991 0.813569
vt 0.204991 0.810765
vt 0.204991 0.818309
vt 0.200938 0.844604
vt 0.200970 0.836322
vt 0.200970 0.836396
s 0
usemtl Texture_Map
f 243/105/65 141/106/65 240/106/65
f 185/107/66 186/108/66 181/109/66
f 225/110/67 148/111/67 147/111/67
f 221/112/68 148/111/68 216/110/68
f 203/113/68 155/114/68 198/115/68
f 208/115/69 155/114/69 205/114/69
f 149/116/68 222/117/68 216/110/68
f 162/118/70 261/119/70 164/120/70
f 251/121/71 165/120/71 253/122/71
f 163/123/72 161/124/72 262/125/72
f 275/126/70 274/127/70 277/128/70
f 172/129/71 265/129/71 263/130/71
f 180/131/73 190/131/73 191/132/73
f 174/133/73 190/131/73 180/131/73
f 182/109/74 186/108/74 183/108/74
f 177/134/75 185/107/75 184/107/75
f 176/134/68 175/135/68 191/132/68
f 184/107/66 183/108/66 180/131/66
f 184/107/76 181/109/76 182/109/76
f 189/136/77 191/132/77 190/131/77
f 187/133/78 189/136/78 190/131/78
f 177/134/66 180/131/66 173/135/66
f 195/137/66 193/138/66 174/133/66
f 192/139/79 194/140/79 193/138/79
f 195/137/80 197/141/80 196/142/80
f 195/137/81 192/139/81 193/138/81
f 179/143/82 192/139/82 196/142/82
f 200/144/83 204/145/83 201/146/83
f 157/147/84 202/113/84 158/147/84
f 202/113/66 201/146/66 207/148/66
f 202/113/85 199/144/85 200/144/85
f 201/146/86 160/149/86 159/150/86
f 207/148/87 209/151/87 208/115/87
f 206/152/88 208/115/88 205/114/88
f 203/113/66 204/145/66 199/144/66
f 211/153/69 212/154/69 156/155/69
f 210/156/89 212/154/89 211/153/89
f 213/157/90 215/158/90 214/159/90
f 214/159/88 211/153/88 213/157/88
f 159/150/66 210/156/66 214/159/66
f 218/160/91 222/117/91 219/117/91
f 224/116/67 216/110/67 225/110/67
f 150/161/92 220/112/92 151/161/92
f 236/162/68 237/163/68 235/164/68
f 226/165/66 218/160/66 219/117/66
f 220/112/93 217/160/93 218/160/93
f 225/110/94 147/111/94 226/165/94
f 225/110/95 223/166/95 224/116/95
f 153/167/96 227/168/96 231/169/96
f 227/168/97 229/170/97 228/171/97
f 230/172/98 232/173/98 231/169/98
f 227/168/99 230/172/99 231/169/99
f 230/172/66 228/171/66 223/166/66
f 235/164/100 239/162/100 236/162/100
f 233/105/101 244/174/101 142/175/101
f 145/176/66 140/175/66 244/174/66
f 239/162/68 238/177/68 233/105/68
f 235/164/102 238/177/102 234/164/102
f 236/162/71 146/176/71 145/176/71
f 242/178/103 244/174/103 243/105/103
f 241/179/104 243/105/104 240/106/104
f 142/175/68 239/162/68 233/105/68
f 233/105/68 248/180/68 246/181/68
f 245/182/105 247/183/105 246/181/105
f 248/180/106 250/184/106 249/185/106
f 249/185/107 246/181/107 248/180/107
f 245/182/108 249/185/108 237/163/108
f 251/121/109 253/122/109 252/186/109
f 256/187/110 253/122/110 166/122/110
f 254/188/111 256/187/111 255/189/111
f 257/190/112 259/191/112 258/192/112
f 258/192/113 255/189/113 257/190/113
f 259/191/66 162/118/66 258/192/66
f 260/118/114 262/125/114 261/119/114
f 166/122/68 165/120/68 261/119/68
f 263/130/115 265/129/115 264/193/115
f 172/129/110 269/194/110 267/195/110
f 266/196/116 268/197/116 267/195/116
f 269/194/117 271/198/117 270/199/117
f 270/199/113 267/195/113 269/194/113
f 169/200/69 167/200/69 278/201/69
f 272/202/118 273/203/118 274/127/118
f 274/127/119 275/126/119 272/202/119
f 266/196/66 270/199/66 275/126/66
f 276/204/120 278/201/120 277/128/120
f 172/129/68 171/205/68 277/128/68
f 216/110/68 217/160/68 221/112/68
f 206/152/66 202/113/66 207/148/66
f 156/155/68 204/145/68 198/115/68
f 147/111/66 220/112/66 226/165/66
f 241/179/66 237/163/66 242/178/66
f 188/206/68 186/108/68 189/136/68
f 243/105/65 233/105/65 141/106/65
f 185/107/68 189/136/68 186/108/68
f 225/110/67 216/110/67 148/111/67
f 221/112/68 150/161/68 148/111/68
f 203/113/68 157/147/68 155/114/68
f 208/115/69 198/115/69 155/114/69
f 149/116/68 153/167/68 222/117/68
f 260/118/70 261/119/70 162/118/70
f 261/119/70 165/120/70 164/120/70
f 164/120/71 165/120/71 251/121/71
f 165/120/71 166/122/71 253/122/71
f 262/125/121 260/118/121 163/123/121
f 260/118/122 162/118/122 163/123/122
f 276/204/70 277/128/70 168/204/70
f 277/128/70 171/205/70 275/126/70
f 168/204/70 277/128/70 273/203/70
f 171/205/70 170/205/70 275/126/70
f 274/127/70 273/203/70 277/128/70
f 170/205/71 171/205/71 263/130/71
f 171/205/71 172/129/71 263/130/71
f 175/135/73 173/135/73 191/132/73
f 173/135/73 180/131/73 191/132/73
f 174/133/73 187/133/73 190/131/73
f 182/109/74 181/109/74 186/108/74
f 177/134/123 176/134/123 185/107/123
f 191/132/68 189/136/68 185/107/68
f 185/107/68 176/134/68 191/132/68
f 184/107/68 182/109/68 183/108/68
f 184/107/76 185/107/76 181/109/76
f 187/133/78 188/206/78 189/136/78
f 177/134/66 184/107/66 180/131/66
f 174/133/66 180/131/66 197/141/66
f 180/131/66 183/108/66 197/141/66
f 197/141/66 195/137/66 174/133/66
f 193/138/66 194/140/66 174/133/66
f 194/140/66 178/143/66 174/133/66
f 195/137/81 196/142/81 192/139/81
f 197/141/82 183/108/82 186/108/82
f 179/143/82 178/143/82 194/140/82
f 179/143/82 194/140/82 192/139/82
f 197/141/82 186/108/82 196/142/82
f 186/108/82 179/143/82 196/142/82
f 200/144/124 199/144/124 204/145/124
f 157/147/84 203/113/84 202/113/84
f 202/113/66 200/144/66 201/146/66
f 202/113/85 203/113/85 199/144/85
f 201/146/86 204/145/86 160/149/86
f 206/152/88 207/148/88 208/115/88
f 203/113/68 198/115/68 204/145/68
f 208/115/69 209/151/69 198/115/69
f 209/151/69 215/158/69 198/115/69
f 215/158/69 213/157/69 156/155/69
f 198/115/69 215/158/69 156/155/69
f 212/154/69 154/155/69 156/155/69
f 213/157/69 211/153/69 156/155/69
f 214/159/88 210/156/88 211/153/88
f 209/151/66 207/148/66 201/146/66
f 201/146/66 159/150/66 215/158/66
f 159/150/66 154/155/66 212/154/66
f 210/156/66 159/150/66 212/154/66
f 214/159/66 215/158/66 159/150/66
f 215/158/66 209/151/66 201/146/66
f 218/160/91 217/160/91 222/117/91
f 224/116/67 149/116/67 216/110/67
f 150/161/92 221/112/92 220/112/92
f 236/162/66 242/178/66 237/163/66
f 226/165/66 220/112/66 218/160/66
f 220/112/93 221/112/93 217/160/93
f 225/110/125 226/165/125 223/166/125
f 232/173/96 219/117/96 222/117/96
f 222/117/96 153/167/96 231/169/96
f 153/167/96 152/167/96 229/170/96
f 227/168/96 153/167/96 229/170/96
f 231/169/96 232/173/96 222/117/96
f 227/168/99 228/171/99 230/172/99
f 223/166/66 226/165/66 232/173/66
f 226/165/66 219/117/66 232/173/66
f 223/166/66 232/173/66 230/172/66
f 228/171/66 229/170/66 223/166/66
f 229/170/66 152/167/66 223/166/66
f 235/164/100 234/164/100 239/162/100
f 243/105/126 244/174/126 233/105/126
f 244/174/69 140/175/69 142/175/69
f 244/174/66 242/178/66 236/162/66
f 236/162/66 145/176/66 244/174/66
f 239/162/66 234/164/66 238/177/66
f 235/164/127 237/163/127 238/177/127
f 236/162/71 239/162/71 146/176/71
f 241/179/128 242/178/128 243/105/128
f 142/175/68 146/176/68 239/162/68
f 141/106/68 233/105/68 246/181/68
f 233/105/68 238/177/68 250/184/68
f 248/180/68 233/105/68 250/184/68
f 246/181/68 247/183/68 141/106/68
f 247/183/68 143/207/68 141/106/68
f 249/185/107 245/182/107 246/181/107
f 237/163/108 144/208/108 245/182/108
f 144/208/108 143/207/108 247/183/108
f 245/182/108 144/208/108 247/183/108
f 249/185/108 250/184/108 237/163/108
f 250/184/108 238/177/108 237/163/108
f 166/122/110 161/124/110 255/189/110
f 161/124/110 163/123/110 259/191/110
f 257/190/110 161/124/110 259/191/110
f 255/189/110 256/187/110 166/122/110
f 256/187/110 252/186/110 253/122/110
f 161/124/110 257/190/110 255/189/110
f 258/192/113 254/188/113 255/189/113
f 259/191/66 163/123/66 162/118/66
f 162/118/66 164/120/66 254/188/66
f 164/120/66 251/121/66 256/187/66
f 162/118/66 254/188/66 258/192/66
f 251/121/66 252/186/66 256/187/66
f 256/187/66 254/188/66 164/120/66
f 261/119/68 262/125/68 161/124/68
f 161/124/68 166/122/68 261/119/68
f 172/129/110 167/200/110 271/198/110
f 167/200/110 169/200/110 271/198/110
f 172/129/110 271/198/110 269/194/110
f 267/195/110 268/197/110 172/129/110
f 268/197/110 264/193/110 172/129/110
f 264/193/110 265/129/110 172/129/110
f 270/199/113 266/196/113 267/195/113
f 278/201/69 276/204/69 169/200/69
f 276/204/69 168/204/69 169/200/69
f 271/198/66 169/200/66 273/203/66
f 169/200/66 168/204/66 273/203/66
f 271/198/66 273/203/66 272/202/66
f 272/202/66 275/126/66 271/198/66
f 275/126/66 170/205/66 266/196/66
f 170/205/66 263/130/66 268/197/66
f 263/130/66 264/193/66 268/197/66
f 268/197/66 266/196/66 170/205/66
f 270/199/66 271/198/66 275/126/66
f 277/128/68 278/201/68 167/200/68
f 167/200/68 172/129/68 277/128/68
f 216/110/68 222/117/68 217/160/68
f 206/152/66 158/147/66 202/113/66
f 156/155/68 160/149/68 204/145/68
f 147/111/66 151/161/66 220/112/66
f 241/179/66 144/208/66 237/163/66
f 188/206/68 179/143/68 186/108/68
