# Blender 4.4.0
# www.blender.org
mtllib Bld_02_Fence_Wood_Worned_01.mtl
o Bld_02_Fence_Wood_Worned_01
v -2.517503 0.450478 0.028014
v -2.517503 0.450478 -0.031123
v -0.077503 0.450478 -0.031123
v -2.517503 0.590389 -0.031123
v -2.517503 0.590389 0.028014
v -0.077503 0.590389 0.028014
v -0.077503 0.590389 -0.031123
v -0.077503 0.801510 0.028014
v -2.517502 0.978960 -0.031123
v -0.077503 0.801510 -0.031123
v -2.517502 1.119247 -0.031123
v -2.517502 1.119247 0.028014
v -0.077503 0.941731 0.028014
v -0.077503 0.941731 -0.031123
v -2.517502 1.330301 0.028014
v -0.077503 1.310226 0.028014
v -2.517502 1.330301 -0.031123
v -0.077503 1.310226 -0.031123
v -2.517502 1.470213 -0.031123
v -2.517502 1.470213 0.028014
v -0.077503 1.470213 0.028014
v -0.077503 1.470213 -0.031123
v -1.773971 0.924886 -0.031123
v -1.773971 1.057571 -0.031123
v -1.773971 1.057571 0.028014
v -1.734812 1.055686 0.028014
v -1.813130 1.068002 0.028014
v -1.813130 1.068002 -0.031123
v -1.734812 1.055686 -0.031123
v -2.517502 0.978960 0.008483
v -2.517502 0.998543 0.028014
v -1.773971 0.944469 0.028014
v -1.773971 0.924886 0.008483
v -1.501953 0.905104 0.028014
v -0.849742 0.994829 0.017648
v -0.850453 0.984488 0.028014
v -0.646216 0.980835 0.028014
v -0.963284 0.992246 0.028014
v -0.962573 1.002587 0.017648
v -1.206891 1.019386 0.028014
v -0.676601 1.353916 0.028014
v -0.676600 1.353916 -0.031123
v -0.676600 1.458206 -0.031123
v -0.676601 1.458206 0.028014
v -0.636068 1.457165 0.028014
v -0.708693 1.473602 0.028014
v -0.708693 1.473602 -0.031123
v -0.644508 1.470213 -0.031123
v -1.731370 1.467870 -0.018085
v -1.731346 1.454833 -0.031123
v -1.971847 1.476909 -0.031123
v -1.494800 1.455276 -0.031123
v -1.494825 1.468313 -0.018085
v -1.292838 1.468692 -0.031123
v -1.528548 0.450478 -0.031123
v -1.528548 0.581931 -0.031123
v -1.528548 0.581931 0.028014
v -1.228855 0.590389 0.028014
v -1.556753 0.590389 0.028014
v -1.556753 0.590389 -0.031123
v -1.228855 0.590389 -0.031123
v -0.077503 0.459823 0.028014
v -0.077503 0.450478 0.018669
v -1.528548 0.450478 0.018669
v -1.528548 0.459823 0.028014
v -1.639681 0.450478 0.028014
v -2.274501 0.582825 0.028014
v -2.274501 0.590389 0.020449
v -2.444453 0.590389 0.028014
v -2.168870 0.590389 0.020449
v -2.168870 0.582825 0.028014
v -1.772173 0.590389 0.028014
vn -0.0000 -1.0000 -0.0000
vn -0.0000 -0.0000 -1.0000
vn -0.0725 -0.9974 -0.0000
vn -0.0727 -0.9974 -0.0000
vn 0.0481 0.9988 -0.0000
vn 0.0726 0.9974 -0.0000
vn -0.0000 -0.0000 1.0000
vn 0.2574 0.9663 -0.0000
vn -0.1017 -0.7025 0.7044
vn -0.0513 -0.7052 0.7071
vn 0.0127 0.7074 0.7067
vn 0.0783 0.7031 0.7068
vn 0.0485 0.7054 0.7071
vn 0.0686 0.9976 -0.0000
vn 0.0251 0.9770 0.2120
vn 0.0128 -0.9999 -0.0000
vn 0.4325 0.9016 -0.0000
vn -0.0000 0.9765 0.2155
vn 0.0648 0.7057 -0.7056
vn -0.0469 0.7063 -0.7064
vn -0.0013 0.7071 -0.7071
vn -0.0019 0.9966 -0.0825
vn -0.0282 0.9996 -0.0000
vn 0.2873 0.9579 -0.0000
vn -0.0000 1.0000 -0.0000
vn 0.0594 -0.7059 0.7059
vn -0.0000 -0.7071 0.7071
vn 0.0315 0.7068 0.7068
vn -0.0135 0.7070 0.7070
vn -0.0000 0.7071 0.7071
vn -0.3504 0.9366 -0.0000
vn -0.0234 0.9997 -0.0000
vn -0.0123 0.9999 -0.0000
vn -0.0084 1.0000 -0.0000
vn -0.0044 0.9992 -0.0394
vn 0.0200 0.9559 0.2931
vt 0.200079 0.834674
vt 0.200075 0.834674
vt 0.200045 0.834674
vt 0.200078 0.836322
vt 0.200129 0.834674
vt 0.200045 0.840899
vt 0.200069 0.841948
vt 0.200071 0.840262
vt 0.200079 0.836223
vt 0.200108 0.845316
vt 0.200129 0.844801
vt 0.200109 0.846686
vt 0.200129 0.846686
vt 0.200072 0.841803
vt 0.200071 0.841825
vt 0.200129 0.838809
vt 0.200080 0.840029
vt 0.200045 0.842552
vt 0.200071 0.840493
vt 0.200053 0.836233
vt 0.200048 0.836322
vt 0.200045 0.841130
vt 0.200102 0.840964
vt 0.200098 0.841056
vt 0.200102 0.841086
vt 0.200109 0.840921
vt 0.200098 0.841178
vt 0.200090 0.841376
vt 0.200108 0.846544
vt 0.200110 0.846532
vt 0.200045 0.845038
vt 0.200129 0.840461
vt 0.200107 0.846726
vt 0.200072 0.846504
vt 0.200080 0.846510
vt 0.200072 0.846658
vt 0.200064 0.846764
vt 0.200080 0.846663
vt 0.200087 0.846668
vt 0.200089 0.836322
vt 0.200079 0.834785
vt 0.200129 0.836322
vt 0.200129 0.834785
vt 0.200045 0.836322
vt 0.200053 0.836322
vt 0.200057 0.836322
vt 0.200057 0.836233
vt 0.200071 0.836322
vt 0.200045 0.846686
s 0
usemtl Texture_Map
f 55/1/1 64/1/1 66/2/1
f 2/3/2 60/4/2 55/1/2
f 55/1/1 63/5/1 64/1/1
f 9/6/2 28/7/2 23/8/2
f 56/9/2 55/1/2 60/4/2
f 9/6/3 33/8/3 30/6/3
f 42/10/4 16/11/4 41/10/4
f 18/11/2 48/12/2 22/13/2
f 28/7/2 29/14/2 23/8/2
f 29/14/5 25/15/5 26/14/5
f 10/16/3 34/17/3 23/8/3
f 27/7/6 11/18/6 12/18/6
f 26/14/7 27/7/7 32/19/7
f 67/20/7 69/21/7 1/3/7
f 24/15/8 27/7/8 25/15/8
f 32/19/9 33/8/9 34/17/9
f 30/6/10 32/19/10 31/22/10
f 34/17/7 36/23/7 38/24/7
f 35/25/11 36/23/11 37/26/11
f 38/24/12 39/27/12 40/28/12
f 36/23/13 39/27/13 38/24/13
f 29/14/14 39/27/14 35/25/14
f 48/12/15 44/29/15 45/30/15
f 16/11/7 45/30/7 41/10/7
f 17/31/16 41/10/16 15/31/16
f 10/16/2 29/14/2 14/32/2
f 47/33/2 48/12/2 42/10/2
f 44/29/17 47/33/17 46/33/17
f 45/30/18 22/13/18 48/12/18
f 17/31/2 50/34/2 52/35/2
f 49/36/19 50/34/19 51/37/19
f 52/35/20 53/38/20 54/39/20
f 52/35/21 49/36/21 53/38/21
f 46/33/22 53/38/22 49/36/22
f 61/40/23 57/9/23 58/40/23
f 65/41/7 57/9/7 59/4/7
f 56/9/24 59/4/24 57/9/24
f 6/42/25 61/40/25 58/40/25
f 64/1/26 65/41/26 66/2/26
f 63/5/27 65/41/27 64/1/27
f 62/43/7 58/40/7 65/41/7
f 4/44/25 68/45/25 70/46/25
f 67/20/28 68/45/28 69/21/28
f 70/46/29 71/47/29 72/48/29
f 68/45/30 71/47/30 70/46/30
f 3/5/2 61/40/2 7/42/2
f 45/30/7 46/33/7 41/10/7
f 15/31/7 46/33/7 20/49/7
f 31/22/7 27/7/7 12/18/7
f 66/2/1 1/3/1 2/3/1
f 2/3/1 55/1/1 66/2/1
f 2/3/2 4/44/2 60/4/2
f 55/1/1 3/5/1 63/5/1
f 9/6/2 11/18/2 28/7/2
f 56/9/2 61/40/2 55/1/2
f 9/6/3 23/8/3 33/8/3
f 42/10/4 18/11/4 16/11/4
f 18/11/2 42/10/2 48/12/2
f 28/7/7 24/15/7 29/14/7
f 29/14/5 24/15/5 25/15/5
f 8/16/3 34/17/3 10/16/3
f 34/17/3 33/8/3 23/8/3
f 27/7/6 28/7/6 11/18/6
f 26/14/2 25/15/2 27/7/2
f 5/44/7 1/3/7 69/21/7
f 1/3/7 66/2/7 71/47/7
f 67/20/7 1/3/7 71/47/7
f 66/2/7 65/41/7 59/4/7
f 59/4/7 72/48/7 66/2/7
f 72/48/7 71/47/7 66/2/7
f 24/15/8 28/7/8 27/7/8
f 30/6/10 33/8/10 32/19/10
f 26/14/7 32/19/7 34/17/7
f 34/17/7 8/16/7 36/23/7
f 8/16/7 13/32/7 37/26/7
f 36/23/7 8/16/7 37/26/7
f 38/24/7 40/28/7 34/17/7
f 40/28/7 26/14/7 34/17/7
f 36/23/13 35/25/13 39/27/13
f 29/14/14 26/14/14 40/28/14
f 29/14/14 40/28/14 39/27/14
f 13/32/14 14/32/14 37/26/14
f 14/32/14 29/14/14 35/25/14
f 35/25/14 37/26/14 14/32/14
f 48/12/31 43/29/31 44/29/31
f 16/11/7 21/13/7 45/30/7
f 17/31/16 42/10/16 41/10/16
f 10/16/2 23/8/2 29/14/2
f 47/33/7 43/29/7 48/12/7
f 44/29/17 43/29/17 47/33/17
f 45/30/32 21/13/32 22/13/32
f 47/33/2 42/10/2 54/39/2
f 42/10/2 17/31/2 52/35/2
f 54/39/2 42/10/2 52/35/2
f 17/31/2 19/49/2 51/37/2
f 17/31/2 51/37/2 50/34/2
f 52/35/21 50/34/21 49/36/21
f 19/49/33 20/49/33 51/37/33
f 20/49/22 46/33/22 49/36/22
f 46/33/34 47/33/34 54/39/34
f 46/33/35 54/39/35 53/38/35
f 49/36/36 51/37/36 20/49/36
f 61/40/23 56/9/23 57/9/23
f 65/41/7 58/40/7 57/9/7
f 56/9/24 60/4/24 59/4/24
f 6/42/25 7/42/25 61/40/25
f 63/5/27 62/43/27 65/41/27
f 62/43/7 6/42/7 58/40/7
f 4/44/25 5/44/25 69/21/25
f 4/44/25 69/21/25 68/45/25
f 59/4/25 60/4/25 72/48/25
f 60/4/25 4/44/25 70/46/25
f 70/46/25 72/48/25 60/4/25
f 68/45/30 67/20/30 71/47/30
f 3/5/2 55/1/2 61/40/2
f 45/30/2 44/29/2 46/33/2
f 15/31/7 41/10/7 46/33/7
f 31/22/7 32/19/7 27/7/7
