# Blender 4.4.0
# www.blender.org
mtllib Bld_Outhouse_01.mtl
o Bld_Outhouse_Door_01
v -0.391760 0.113059 0.798087
v 0.376680 0.113059 0.798087
v -0.391760 1.879767 0.798087
v 0.376680 1.879767 0.798087
v -0.391760 1.879767 0.841157
v -0.391760 0.113059 0.841157
v 0.376680 0.113059 0.841157
v 0.376680 1.879767 0.841157
v -0.239042 0.113059 0.798087
v -0.083413 0.113059 0.798087
v 0.068333 0.113059 0.798087
v 0.070274 0.113059 0.798087
v 0.223962 0.113059 0.798087
v 0.223962 1.879767 0.798087
v 0.070274 1.879767 0.798087
v 0.068333 1.879767 0.798087
v -0.083413 1.879767 0.798087
v -0.239042 1.879767 0.798087
v -0.239042 0.113059 0.841157
v -0.085354 0.113059 0.841157
v 0.068333 0.113059 0.841157
v 0.223962 0.113059 0.841157
v 0.223962 1.879767 0.841157
v 0.068333 1.879767 0.841157
v -0.085354 1.879767 0.841157
v -0.239042 1.879767 0.841157
v 0.376678 1.582391 0.798078
v 0.376678 1.487850 0.798078
v -0.391761 1.582391 0.798078
v -0.391761 1.487850 0.798078
v -0.391761 1.582391 0.770549
v 0.376678 1.582391 0.770549
v 0.376678 1.487850 0.770549
v -0.391761 1.487850 0.770549
v 0.261774 0.369272 0.798078
v 0.261774 0.274731 0.798078
v -0.391761 0.369272 0.798078
v -0.391761 0.274731 0.798078
v -0.391761 0.369272 0.770549
v 0.261774 0.369272 0.770549
v 0.261774 0.274731 0.770549
v -0.391761 0.274731 0.770549
v 0.188089 1.502752 0.798078
v 0.282630 1.502752 0.798078
v -0.370535 0.367771 0.798078
v -0.275994 0.367771 0.798078
v -0.370535 0.367771 0.778785
v 0.188089 1.502752 0.778785
v 0.282630 1.502752 0.778785
v -0.275994 0.367771 0.778785
v -0.107419 1.566597 0.868686
v -0.107419 1.503645 0.868686
v -0.391761 1.566597 0.868686
v -0.391761 1.503645 0.868686
v -0.391761 1.566597 0.841157
v -0.107419 1.566597 0.841157
v -0.107419 1.503645 0.841157
v -0.391761 1.503645 0.841157
v -0.107419 0.509641 0.868686
v -0.107419 0.446690 0.868686
v -0.391761 0.509641 0.868686
v -0.391761 0.446690 0.868686
v -0.391761 0.509641 0.841157
v -0.107419 0.509641 0.841157
v -0.107419 0.446690 0.841157
v -0.391761 0.446690 0.841157
v -0.416018 1.503645 0.868686
v -0.416018 1.566597 0.868686
v -0.416018 1.503645 0.841157
v -0.416018 1.566597 0.841157
v -0.416018 0.446690 0.868686
v -0.416018 0.509641 0.868686
v -0.416018 0.446690 0.841157
v -0.416018 0.509641 0.841157
v -0.391761 1.503645 0.798088
v -0.391761 1.566597 0.798088
v -0.391761 0.446690 0.798087
v -0.391761 0.509641 0.798087
v -0.416018 1.503645 0.798088
v -0.416018 1.566597 0.798088
v -0.416018 0.446690 0.798087
v -0.416018 0.509641 0.798087
v 0.264917 1.055206 0.841158
v 0.335725 1.055206 0.841158
v 0.264917 1.208080 0.841158
v 0.335725 1.208080 0.841158
v 0.264917 1.208080 0.857912
v 0.264917 1.055206 0.857912
v 0.335725 1.055206 0.857912
v 0.335725 1.208080 0.857912
v 0.264917 1.208080 0.875656
v 0.264917 1.055206 0.875656
v 0.335725 1.055206 0.875656
v 0.335725 1.208080 0.875656
v 0.264917 1.027494 0.857912
v 0.335725 1.027494 0.857912
v 0.335725 1.235792 0.857912
v 0.264917 1.235792 0.857912
v 0.264917 1.027494 0.875656
v 0.335725 1.027494 0.875656
v 0.335725 1.235792 0.875656
v 0.264917 1.235792 0.875656
v 0.264917 1.055206 0.798088
v 0.335725 1.055206 0.798088
v 0.264917 1.208080 0.798088
v 0.335725 1.208080 0.798088
v 0.264917 1.208080 0.781335
v 0.264917 1.055206 0.781334
v 0.335725 1.055206 0.781334
v 0.335725 1.208080 0.781335
v 0.264917 1.208080 0.763590
v 0.264917 1.055206 0.763590
v 0.335725 1.055206 0.763590
v 0.335725 1.208080 0.763590
v 0.264917 1.027494 0.781334
v 0.335725 1.027494 0.781334
v 0.335725 1.235792 0.781335
v 0.264917 1.235792 0.781335
v 0.264917 1.027494 0.763590
v 0.335725 1.027494 0.763590
v 0.335725 1.235792 0.763590
v 0.264917 1.235792 0.763590
v -0.237101 0.113059 0.804063
v -0.231126 0.113059 0.798087
v -0.091330 0.113059 0.798087
v -0.085354 0.113059 0.804063
v 0.216046 0.113059 0.798087
v 0.222021 0.113059 0.804063
v 0.222021 1.879767 0.804063
v 0.216046 1.879767 0.798087
v -0.085354 1.879767 0.804063
v -0.091330 1.879767 0.798087
v -0.231126 1.879767 0.798087
v -0.237101 1.879767 0.804063
v -0.231126 0.113059 0.841157
v -0.237101 0.113059 0.835181
v -0.077438 0.113059 0.841157
v -0.083413 0.113059 0.835181
v 0.222021 0.113059 0.835181
v 0.216046 0.113059 0.841157
v 0.216046 1.879767 0.841157
v 0.222021 1.879767 0.835182
v -0.083413 1.879767 0.835182
v -0.077438 1.879767 0.841157
v -0.237101 1.879767 0.835182
v -0.231126 1.879767 0.841157
v 0.078745 0.113059 0.841157
v 0.070274 0.113059 0.832687
v 0.070274 1.879767 0.832687
v 0.078744 1.879767 0.841157
vn -0.0000 1.0000 -0.0000
vn -0.0000 -0.0000 1.0000
vn -0.0000 -0.0000 -1.0000
vn 1.0000 -0.0000 -0.0000
vn -1.0000 -0.0000 -0.0000
vn -0.0000 -1.0000 -0.0000
vn 0.8972 -0.4416 -0.0000
vn -0.8972 0.4416 -0.0000
vn -0.7071 -0.0000 0.7071
vn 0.7071 -0.0000 0.7071
vn -0.7071 -0.0000 -0.7071
vn 0.7071 -0.0000 -0.7071
vt 0.583187 0.929519
vt 0.583451 0.929519
vt 0.590067 0.850182
vt 0.589802 0.915058
vt 0.589802 0.850182
vt 0.583451 0.864643
vt 0.583187 0.864643
vt 0.582398 0.864643
vt 0.582388 0.864643
vt 0.590855 0.915058
vt 0.590866 0.915058
vt 0.582398 0.929519
vt 0.582651 0.929519
vt 0.582640 0.929519
vt 0.582651 0.864643
vt 0.590067 0.915058
vt 0.590336 0.850182
vt 0.590336 0.915058
vt 0.590599 0.850182
vt 0.590347 0.850182
vt 0.590347 0.915058
vt 0.590855 0.850182
vt 0.590617 0.850182
vt 0.590603 0.915058
vt 0.590603 0.850182
vt 0.590599 0.915058
vt 0.590617 0.915058
vt 0.590866 0.850182
vt 0.582640 0.864643
vt 0.568671 0.991466
vt 0.570436 0.987164
vt 0.570436 0.991466
vt 0.568671 0.987164
vt 0.568671 0.936259
vt 0.570172 0.931957
vt 0.570172 0.936259
vt 0.568671 0.931957
vt 0.570003 0.987842
vt 0.568937 0.936191
vt 0.570220 0.987842
vt 0.568719 0.936191
vt 0.461605 0.712208
vt 0.464766 0.663143
vt 0.464766 0.712208
vt 0.461605 0.663143
vt 0.461605 0.714919
vt 0.461336 0.714919
vt 0.464766 0.665853
vt 0.464766 0.714919
vt 0.461605 0.665853
vt 0.461336 0.663143
vt 0.461336 0.712208
vt 0.461336 0.665853
vt 0.112787 0.961739
vt 0.112787 0.933020
vt 0.108935 0.961739
vt 0.108935 0.933020
vt 0.112787 0.927814
vt 0.108935 0.966945
vt 0.112787 0.966945
vt 0.108935 0.927814
vt 0.112265 0.932892
vt 0.112265 0.961672
vt 0.109806 0.961672
vt 0.109806 0.932892
vt 0.112265 0.927675
vt 0.109806 0.966889
vt 0.112265 0.966889
vt 0.109806 0.927675
vt 0.582388 0.929519
s 0
usemtl Texture_Map
f 14/1/1 8/2/1 4/2/1
f 19/3/2 5/4/2 6/5/2
f 14/1/3 2/6/3 13/7/3
f 4/2/4 7/6/4 2/6/4
f 3/4/5 6/5/5 5/4/5
f 135/8/6 136/9/6 124/8/6
f 9/3/6 6/5/6 1/5/6
f 141/10/1 142/11/1 130/10/1
f 2/6/6 22/7/6 13/7/6
f 146/12/1 25/13/1 132/14/1
f 20/15/2 146/12/2 135/8/2
f 3/4/1 26/16/1 18/16/1
f 138/17/5 17/18/5 10/17/5
f 11/19/6 21/19/6 137/20/6
f 17/18/1 143/18/1 144/21/1
f 7/6/2 23/1/2 22/7/2
f 126/15/4 25/13/4 20/15/4
f 17/18/3 11/19/3 10/17/3
f 140/22/6 147/23/6 127/22/6
f 15/24/3 127/22/3 12/25/3
f 22/7/5 14/1/5 13/7/5
f 21/19/4 16/26/4 24/26/4
f 147/23/2 141/10/2 150/27/2
f 128/28/4 142/11/4 139/28/4
f 21/19/2 144/21/2 137/20/2
f 19/3/4 18/16/4 26/16/4
f 133/12/3 125/29/3 124/8/3
f 3/4/3 9/3/3 1/5/3
f 29/30/2 28/31/2 27/32/2
f 33/31/3 31/30/3 32/32/3
f 30/33/6 33/31/6 28/31/6
f 27/32/1 31/30/1 29/30/1
f 30/33/5 31/30/5 34/33/5
f 28/31/4 32/32/4 27/32/4
f 37/34/2 36/35/2 35/36/2
f 41/35/3 39/34/3 40/36/3
f 38/37/6 41/35/6 36/35/6
f 35/36/1 39/34/1 37/34/1
f 38/37/5 39/34/5 42/37/5
f 36/35/4 40/36/4 35/36/4
f 43/38/2 46/39/2 44/40/2
f 48/38/3 50/39/3 47/41/3
f 46/39/7 49/40/7 44/40/7
f 43/38/8 47/41/8 45/41/8
f 53/42/2 52/43/2 51/44/2
f 57/43/3 55/42/3 56/44/3
f 54/45/6 57/43/6 52/43/6
f 51/44/1 55/42/1 53/42/1
f 63/46/1 82/47/1 74/47/1
f 52/43/4 56/44/4 51/44/4
f 61/46/2 60/48/2 59/49/2
f 65/48/3 63/46/3 64/49/3
f 62/50/6 65/48/6 60/48/6
f 59/49/1 63/46/1 61/46/1
f 63/46/1 72/47/1 61/46/1
f 60/48/4 64/49/4 59/49/4
f 67/51/5 70/52/5 69/51/5
f 71/53/5 74/47/5 73/53/5
f 54/45/6 69/51/6 58/45/6
f 61/46/2 71/53/2 62/50/2
f 55/42/1 68/52/1 53/42/1
f 62/50/6 73/53/6 66/50/6
f 73/53/6 77/50/6 66/50/6
f 53/42/2 67/51/2 54/45/2
f 77/50/3 82/47/3 78/46/3
f 75/45/3 80/52/3 76/42/3
f 66/50/4 78/46/4 63/46/4
f 58/45/4 76/42/4 55/42/4
f 73/53/5 82/47/5 81/53/5
f 55/42/1 80/52/1 70/52/1
f 69/51/6 75/45/6 58/45/6
f 69/51/5 80/52/5 79/51/5
f 90/54/4 93/55/4 89/55/4
f 85/56/1 90/54/1 86/54/1
f 84/55/6 88/57/6 83/57/6
f 84/55/4 90/54/4 89/55/4
f 83/57/5 87/56/5 85/56/5
f 93/55/2 91/56/2 92/57/2
f 88/57/5 91/56/5 87/56/5
f 89/55/4 100/58/4 96/58/4
f 91/56/5 98/59/5 87/56/5
f 98/59/1 101/60/1 97/60/1
f 96/58/6 99/61/6 95/61/6
f 94/54/2 102/59/2 91/56/2
f 92/57/2 100/58/2 93/55/2
f 88/57/5 99/61/5 92/57/5
f 87/56/3 97/60/3 90/54/3
f 94/54/4 97/60/4 101/60/4
f 89/55/3 95/61/3 88/57/3
f 113/62/4 110/63/4 109/62/4
f 110/63/1 105/64/1 106/63/1
f 108/65/6 104/62/6 103/65/6
f 109/62/4 106/63/4 104/62/4
f 107/64/5 103/65/5 105/64/5
f 111/64/3 113/62/3 112/65/3
f 111/64/5 108/65/5 107/64/5
f 116/66/4 113/62/4 109/62/4
f 107/64/5 122/67/5 111/64/5
f 121/68/1 118/67/1 117/68/1
f 119/69/6 116/66/6 115/69/6
f 122/67/3 114/63/3 111/64/3
f 120/66/3 112/65/3 113/62/3
f 112/65/5 115/69/5 108/65/5
f 117/68/2 107/64/2 110/63/2
f 121/68/4 110/63/4 114/63/4
f 115/69/2 109/62/2 108/65/2
f 146/12/9 136/9/9 135/8/9
f 144/21/9 138/17/9 137/20/9
f 140/22/10 142/11/10 141/10/10
f 124/8/11 134/70/11 133/12/11
f 132/14/12 126/15/12 125/29/12
f 130/10/12 128/28/12 127/22/12
f 136/9/5 134/70/5 123/9/5
f 150/27/9 148/25/9 147/23/9
f 148/25/5 15/24/5 12/25/5
f 14/1/1 23/1/1 8/2/1
f 19/3/2 26/16/2 5/4/2
f 14/1/3 4/2/3 2/6/3
f 4/2/4 8/2/4 7/6/4
f 3/4/5 1/5/5 6/5/5
f 136/9/6 123/9/6 124/8/6
f 124/8/6 125/29/6 135/8/6
f 125/29/6 126/15/6 20/15/6
f 135/8/6 125/29/6 20/15/6
f 9/3/6 19/3/6 6/5/6
f 142/11/1 129/11/1 130/10/1
f 130/10/1 15/24/1 150/27/1
f 15/24/1 149/24/1 150/27/1
f 150/27/1 141/10/1 130/10/1
f 2/6/6 7/6/6 22/7/6
f 25/13/1 131/13/1 132/14/1
f 132/14/1 133/12/1 146/12/1
f 133/12/1 134/70/1 146/12/1
f 134/70/1 145/70/1 146/12/1
f 20/15/2 25/13/2 146/12/2
f 3/4/1 5/4/1 26/16/1
f 138/17/5 143/18/5 17/18/5
f 138/17/6 10/17/6 137/20/6
f 10/17/6 11/19/6 137/20/6
f 24/26/1 16/26/1 144/21/1
f 16/26/1 17/18/1 144/21/1
f 7/6/2 8/2/2 23/1/2
f 126/15/4 131/13/4 25/13/4
f 17/18/3 16/26/3 11/19/3
f 148/25/6 12/25/6 147/23/6
f 12/25/6 127/22/6 147/23/6
f 127/22/6 128/28/6 139/28/6
f 139/28/6 140/22/6 127/22/6
f 15/24/3 130/10/3 127/22/3
f 22/7/5 23/1/5 14/1/5
f 21/19/4 11/19/4 16/26/4
f 147/23/2 140/22/2 141/10/2
f 128/28/4 129/11/4 142/11/4
f 21/19/2 24/26/2 144/21/2
f 19/3/4 9/3/4 18/16/4
f 133/12/3 132/14/3 125/29/3
f 3/4/3 18/16/3 9/3/3
f 29/30/2 30/33/2 28/31/2
f 33/31/3 34/33/3 31/30/3
f 30/33/6 34/33/6 33/31/6
f 27/32/1 32/32/1 31/30/1
f 30/33/5 29/30/5 31/30/5
f 28/31/4 33/31/4 32/32/4
f 37/34/2 38/37/2 36/35/2
f 41/35/3 42/37/3 39/34/3
f 38/37/6 42/37/6 41/35/6
f 35/36/1 40/36/1 39/34/1
f 38/37/5 37/34/5 39/34/5
f 36/35/4 41/35/4 40/36/4
f 43/38/2 45/41/2 46/39/2
f 48/38/3 49/40/3 50/39/3
f 46/39/7 50/39/7 49/40/7
f 43/38/8 48/38/8 47/41/8
f 53/42/2 54/45/2 52/43/2
f 57/43/3 58/45/3 55/42/3
f 54/45/6 58/45/6 57/43/6
f 51/44/1 56/44/1 55/42/1
f 63/46/1 78/46/1 82/47/1
f 52/43/4 57/43/4 56/44/4
f 61/46/2 62/50/2 60/48/2
f 65/48/3 66/50/3 63/46/3
f 62/50/6 66/50/6 65/48/6
f 59/49/1 64/49/1 63/46/1
f 63/46/1 74/47/1 72/47/1
f 60/48/4 65/48/4 64/49/4
f 67/51/5 68/52/5 70/52/5
f 71/53/5 72/47/5 74/47/5
f 54/45/6 67/51/6 69/51/6
f 61/46/2 72/47/2 71/53/2
f 55/42/1 70/52/1 68/52/1
f 62/50/6 71/53/6 73/53/6
f 73/53/6 81/53/6 77/50/6
f 53/42/2 68/52/2 67/51/2
f 77/50/3 81/53/3 82/47/3
f 75/45/3 79/51/3 80/52/3
f 66/50/4 77/50/4 78/46/4
f 58/45/4 75/45/4 76/42/4
f 73/53/5 74/47/5 82/47/5
f 55/42/1 76/42/1 80/52/1
f 69/51/6 79/51/6 75/45/6
f 69/51/5 70/52/5 80/52/5
f 90/54/4 94/54/4 93/55/4
f 85/56/1 87/56/1 90/54/1
f 84/55/6 89/55/6 88/57/6
f 84/55/4 86/54/4 90/54/4
f 83/57/5 88/57/5 87/56/5
f 93/55/2 94/54/2 91/56/2
f 88/57/5 92/57/5 91/56/5
f 89/55/4 93/55/4 100/58/4
f 91/56/5 102/59/5 98/59/5
f 98/59/1 102/59/1 101/60/1
f 96/58/6 100/58/6 99/61/6
f 94/54/2 101/60/2 102/59/2
f 92/57/2 99/61/2 100/58/2
f 88/57/5 95/61/5 99/61/5
f 87/56/3 98/59/3 97/60/3
f 94/54/4 90/54/4 97/60/4
f 89/55/3 96/58/3 95/61/3
f 113/62/4 114/63/4 110/63/4
f 110/63/1 107/64/1 105/64/1
f 108/65/6 109/62/6 104/62/6
f 109/62/4 110/63/4 106/63/4
f 107/64/5 108/65/5 103/65/5
f 111/64/3 114/63/3 113/62/3
f 111/64/5 112/65/5 108/65/5
f 116/66/4 120/66/4 113/62/4
f 107/64/5 118/67/5 122/67/5
f 121/68/1 122/67/1 118/67/1
f 119/69/6 120/66/6 116/66/6
f 122/67/3 121/68/3 114/63/3
f 120/66/3 119/69/3 112/65/3
f 112/65/5 119/69/5 115/69/5
f 117/68/2 118/67/2 107/64/2
f 121/68/4 117/68/4 110/63/4
f 115/69/2 116/66/2 109/62/2
f 146/12/9 145/70/9 136/9/9
f 144/21/9 143/18/9 138/17/9
f 140/22/10 139/28/10 142/11/10
f 124/8/11 123/9/11 134/70/11
f 132/14/12 131/13/12 126/15/12
f 130/10/12 129/11/12 128/28/12
f 136/9/5 145/70/5 134/70/5
f 150/27/9 149/24/9 148/25/9
f 148/25/5 149/24/5 15/24/5
o Bld_Outhouse_01
v -0.609600 0.076483 0.697083
v 0.609600 0.076483 0.697083
v -0.609600 0.076483 -0.695306
v 0.609600 0.076483 -0.695306
v -0.609600 2.377061 0.697083
v 0.609600 2.377061 0.697083
v -0.609600 1.936344 -0.695306
v 0.609600 1.936344 -0.695306
v 0.609600 0.076483 0.503402
v 0.609600 0.076483 0.296877
v 0.609600 0.076483 0.096806
v 0.609600 0.076483 -0.103264
v 0.609600 0.076483 -0.096810
v 0.609600 0.076483 -0.296881
v 0.609600 0.076483 -0.503406
v 0.609600 2.311064 0.503402
v 0.609600 2.241821 0.296877
v 0.609600 2.174743 0.096806
v 0.609600 2.117654 -0.096810
v 0.609600 2.115490 -0.103264
v 0.609600 2.057613 -0.296881
v 0.609600 1.994610 -0.503406
v -0.609600 0.076483 -0.496951
v -0.609600 0.076483 -0.503406
v -0.609600 0.076483 -0.303335
v -0.609600 0.076483 -0.096810
v -0.609600 0.076483 0.096806
v -0.609600 0.076483 0.303331
v -0.609600 0.076483 0.296877
v -0.609600 0.076483 0.496948
v -0.609600 1.994610 -0.503406
v -0.609600 1.996774 -0.496951
v -0.609600 2.055449 -0.303335
v -0.609600 2.117654 -0.096810
v -0.609600 2.174743 0.096806
v -0.609600 2.241822 0.296877
v -0.609600 2.243985 0.303331
v -0.609600 2.308900 0.496948
v -0.544373 0.076483 0.697083
v 0.544373 0.076483 0.697083
v -0.544373 0.076483 -0.695306
v 0.544373 0.076483 -0.695306
v -0.544373 2.377061 0.697083
v 0.544373 2.377061 0.697083
v -0.544373 1.936344 -0.695306
v 0.544373 1.936344 -0.695306
v 0.544373 0.076483 0.496948
v 0.544373 0.076483 0.503402
v 0.544373 0.076483 0.296877
v 0.544373 0.076483 0.303331
v 0.544373 0.076483 0.103261
v 0.544373 0.076483 -0.103264
v 0.544373 0.076483 -0.096810
v 0.544373 0.076483 -0.303335
v 0.544373 0.076483 -0.296881
v 0.544373 0.076483 -0.503406
v 0.544373 2.311064 0.503402
v 0.544373 2.308900 0.496948
v 0.544373 2.243985 0.303331
v 0.544373 2.241821 0.296877
v 0.544373 2.176907 0.103261
v 0.544373 2.117654 -0.096810
v 0.544373 2.115490 -0.103264
v 0.544373 2.057613 -0.296881
v 0.544373 2.055449 -0.303335
v 0.544373 1.994610 -0.503406
v -0.544373 0.076483 -0.496951
v -0.544373 0.076483 -0.503406
v -0.544373 0.076483 -0.296881
v -0.544373 0.076483 -0.303335
v -0.544373 0.076483 -0.096810
v -0.544373 0.076483 0.103261
v -0.544373 0.076483 0.303331
v -0.544373 0.076483 0.296877
v -0.544373 0.076483 0.503402
v -0.544373 1.994610 -0.503406
v -0.544373 1.996774 -0.496951
v -0.544373 2.055449 -0.303335
v -0.544373 2.057613 -0.296881
v -0.544373 2.117654 -0.096810
v -0.544373 2.176907 0.103261
v -0.544373 2.241822 0.296877
v -0.544373 2.243985 0.303331
v -0.544373 2.311064 0.503402
v 0.609600 0.076483 0.481512
v 0.594164 0.076483 0.496948
v 0.594164 0.076483 0.303331
v 0.609600 0.076483 0.318767
v 0.594164 0.076483 0.103261
v 0.609600 0.076483 0.118696
v 0.609600 0.076483 -0.318771
v 0.594164 0.076483 -0.303335
v 0.594164 0.076483 -0.496951
v 0.609600 0.076483 -0.481516
v 0.594164 2.308900 0.496948
v 0.609600 2.303725 0.481512
v 0.609600 2.249161 0.318767
v 0.594164 2.243985 0.303331
v 0.609600 2.182082 0.118696
v 0.594164 2.176907 0.103261
v 0.594164 2.055449 -0.303335
v 0.609600 2.050771 -0.318771
v 0.609600 2.001452 -0.481516
v 0.594164 1.996774 -0.496951
v -0.609600 0.076483 -0.281445
v -0.594164 0.076483 -0.296881
v -0.594164 0.076483 -0.103264
v -0.609600 0.076483 -0.118700
v -0.609600 0.076483 0.118696
v -0.594164 0.076483 0.103261
v -0.609600 0.076483 0.518837
v -0.594164 0.076483 0.503402
v -0.594164 2.057613 -0.296881
v -0.609600 2.062227 -0.281445
v -0.609600 2.110876 -0.118700
v -0.594164 2.115490 -0.103264
v -0.594164 2.176907 0.103261
v -0.609600 2.182082 0.118696
v -0.594164 2.311064 0.503402
v -0.609600 2.316324 0.518837
v 0.552682 0.076483 0.096806
v 0.544373 0.076483 0.088497
v 0.544373 0.076483 -0.488642
v 0.552682 0.076483 -0.496951
v 0.544373 2.172293 0.088497
v 0.552682 2.174743 0.096806
v 0.552682 1.996774 -0.496951
v 0.544373 1.999292 -0.488642
v -0.544373 0.076483 -0.111573
v -0.552682 0.076483 -0.103264
v -0.544373 0.076483 0.088497
v -0.552682 0.076483 0.096806
v -0.544373 0.076483 0.488639
v -0.552682 0.076483 0.496948
v -0.552682 2.115490 -0.103264
v -0.544373 2.113006 -0.111573
v -0.552682 2.174743 0.096806
v -0.544373 2.172293 0.088497
v -0.552682 2.308900 0.496948
v -0.544373 2.306114 0.488639
v -0.609600 0.076483 0.798087
v 0.609600 0.076483 0.798087
v -0.609600 0.076483 -0.798090
v 0.609600 0.076483 -0.798090
v -0.609600 2.377061 0.798087
v 0.609600 2.377061 0.798087
v -0.609600 1.907510 -0.798090
v 0.609600 1.907510 -0.798090
v -0.455049 0.076483 0.798087
v -0.459351 0.076483 0.798087
v 0.459351 0.076483 0.798087
v -0.459351 2.377061 0.798087
v -0.455049 2.377061 0.798087
v -0.306951 2.377061 0.798087
v -0.150249 2.377061 0.798087
v -0.002151 2.377061 0.798087
v 0.150249 2.377061 0.798087
v 0.154551 2.377061 0.798087
v 0.306951 2.377061 0.798087
v 0.455049 2.377061 0.798087
v 0.459351 2.377061 0.798087
v 0.455049 0.076483 -0.798090
v 0.459351 0.076483 -0.798090
v 0.306951 0.076483 -0.798090
v 0.150249 0.076483 -0.798090
v -0.002151 0.076483 -0.798090
v 0.002151 0.076483 -0.798090
v -0.154551 0.076483 -0.798090
v -0.306951 0.076483 -0.798090
v -0.302649 0.076483 -0.798090
v -0.459351 0.076483 -0.798090
v 0.459351 1.907510 -0.798090
v 0.455049 1.907510 -0.798090
v 0.306951 1.907510 -0.798090
v 0.150249 1.907510 -0.798090
v 0.002151 1.907510 -0.798090
v -0.002151 1.907510 -0.798090
v -0.154551 1.907510 -0.798090
v -0.302649 1.907510 -0.798090
v -0.306951 1.907510 -0.798090
v -0.459351 1.907510 -0.798090
v -0.609600 0.076483 0.700246
v 0.609600 0.076483 0.700246
v -0.609600 0.076483 -0.700250
v 0.609600 0.076483 -0.700250
v -0.609600 2.377061 0.700246
v 0.609600 2.377061 0.700246
v -0.609600 1.938577 -0.700250
v 0.609600 1.938577 -0.700250
v -0.455049 0.076483 0.700246
v -0.459351 0.076483 0.700246
v 0.459351 0.076483 0.700246
v -0.459351 2.377061 0.700246
v -0.455049 2.377061 0.700246
v -0.306951 2.377061 0.700246
v -0.302649 2.377061 0.700246
v -0.154551 2.377061 0.700246
v -0.150249 2.377061 0.700246
v -0.002151 2.377061 0.700246
v 0.002151 2.377061 0.700246
v 0.150249 2.377061 0.700246
v 0.154551 2.377061 0.700246
v 0.302649 2.377061 0.700246
v 0.306951 2.377061 0.700246
v 0.455049 2.377061 0.700246
v 0.459351 2.377061 0.700246
v 0.455049 0.076483 -0.700250
v 0.459351 0.076483 -0.700250
v 0.302649 0.076483 -0.700250
v 0.154551 0.076483 -0.700250
v -0.002151 0.076483 -0.700250
v -0.154551 0.076483 -0.700250
v -0.150249 0.076483 -0.700250
v -0.306951 0.076483 -0.700250
v -0.459351 0.076483 -0.700250
v -0.455049 0.076483 -0.700250
v 0.459351 1.938577 -0.700250
v 0.455049 1.938577 -0.700250
v 0.302649 1.938577 -0.700250
v 0.154551 1.938577 -0.700250
v -0.002151 1.938577 -0.700250
v -0.150249 1.938577 -0.700250
v -0.154551 1.938577 -0.700250
v -0.306951 1.938577 -0.700250
v -0.455049 1.938577 -0.700250
v -0.459351 1.938577 -0.700250
v -0.150249 1.914710 0.798087
v -0.302649 1.914710 0.700246
v -0.306951 1.914710 0.700246
v -0.306951 1.914710 0.798087
v 0.306951 1.914710 0.700246
v 0.411560 1.914710 0.700246
v 0.411560 1.914710 0.798087
v 0.306951 1.914710 0.798087
v 0.302649 1.914710 0.700246
v 0.154551 1.914710 0.700246
v 0.002151 1.914710 0.700246
v -0.002151 1.914710 0.700246
v -0.002151 1.914710 0.798087
v 0.150249 1.914710 0.700246
v 0.150249 1.914710 0.798087
v -0.150249 1.914710 0.700246
v -0.154551 1.914710 0.700246
v 0.154551 1.914710 0.798087
v -0.426641 0.076483 0.798087
v -0.426641 0.076483 0.700246
v -0.455049 1.914710 0.798087
v -0.455049 1.914710 0.700246
v 0.455049 1.914710 0.798087
v 0.455049 1.914710 0.700246
v -0.302649 2.377061 0.790341
v -0.294903 2.377061 0.798087
v -0.162297 2.377061 0.798087
v -0.154551 2.377061 0.790341
v 0.002151 2.377061 0.790341
v 0.009897 2.377061 0.798087
v 0.294903 2.377061 0.798087
v 0.302649 2.377061 0.790341
v -0.154551 1.914710 0.790341
v -0.162297 1.914710 0.798087
v -0.294903 1.914710 0.798087
v -0.302649 1.914710 0.790341
v 0.302649 1.914710 0.790341
v 0.294903 1.914710 0.798087
v 0.009897 1.914710 0.798087
v 0.002151 1.914710 0.790341
v 0.295204 0.076483 -0.798090
v 0.302649 0.076483 -0.790646
v 0.154551 0.076483 -0.790646
v 0.161996 0.076483 -0.798090
v -0.150249 0.076483 -0.790646
v -0.142804 0.076483 -0.798090
v -0.455049 0.076483 -0.790646
v -0.447604 0.076483 -0.798090
v 0.302649 1.909874 -0.790646
v 0.295204 1.907510 -0.798090
v 0.161996 1.907510 -0.798090
v 0.154551 1.909874 -0.790646
v -0.142804 1.907510 -0.798090
v -0.150249 1.909874 -0.790646
v -0.447604 1.907510 -0.798090
v -0.455049 1.909874 -0.790646
v 0.316024 0.076483 -0.700250
v 0.306951 0.076483 -0.709323
v 0.150249 0.076483 -0.709323
v 0.141176 0.076483 -0.700250
v 0.011224 0.076483 -0.700250
v 0.002151 0.076483 -0.709323
v -0.293576 0.076483 -0.700250
v -0.302649 0.076483 -0.709323
v 0.306951 1.935696 -0.709323
v 0.316024 1.938577 -0.700250
v 0.141176 1.938577 -0.700250
v 0.150249 1.935696 -0.709323
v 0.002151 1.935696 -0.709323
v 0.011224 1.938577 -0.700250
v -0.302649 1.935696 -0.709323
v -0.293576 1.938577 -0.700250
v -0.642933 0.000000 0.831419
v -0.576267 0.000000 0.831419
v -0.642933 0.000000 0.764753
v -0.576267 0.000000 0.764753
v -0.642933 2.377061 0.764753
v -0.642933 2.399181 0.831419
v -0.576267 2.399181 0.831419
v -0.576267 2.377061 0.764753
v 0.642933 0.000000 0.831419
v 0.576267 0.000000 0.831419
v 0.642933 0.000000 0.764753
v 0.576267 0.000000 0.764753
v 0.642933 2.377061 0.764753
v 0.642933 2.399181 0.831419
v 0.576267 2.399181 0.831419
v 0.576267 2.377061 0.764753
v -0.642933 0.000000 -0.831423
v -0.576267 0.000000 -0.831423
v -0.642933 0.000000 -0.764757
v -0.576267 0.000000 -0.764757
v -0.642933 1.921856 -0.764757
v -0.642933 1.900477 -0.831423
v -0.576267 1.900477 -0.831423
v -0.576267 1.921856 -0.764757
v 0.642933 0.000000 -0.831423
v 0.576267 0.000000 -0.831423
v 0.642933 0.000000 -0.764757
v 0.576267 0.000000 -0.764757
v 0.642933 1.921856 -0.764757
v 0.642933 1.900477 -0.831423
v 0.576267 1.900477 -0.831423
v 0.576267 1.921856 -0.764757
v -0.672202 2.400514 0.863256
v 0.672202 2.400514 0.863256
v -0.672202 1.895896 -0.830362
v 0.672202 1.895896 -0.830362
v -0.672202 2.449868 0.845495
v 0.672202 2.449868 0.845495
v -0.672202 1.945250 -0.848124
v 0.672202 1.945250 -0.848124
v -0.644202 2.400514 0.863256
v 0.644202 2.400514 0.863256
v -0.644202 1.895896 -0.830362
v -0.644202 2.449868 0.845495
v 0.644202 2.449868 0.845495
v -0.644202 1.945250 -0.848124
v 0.644202 1.945250 -0.848124
v -0.675891 2.409995 0.889602
v 0.675891 2.409995 0.889602
v -0.675891 1.886415 -0.856709
v 0.675891 1.886415 -0.856709
v -0.675891 2.459349 0.871841
v 0.675891 2.459349 0.871841
v -0.675891 1.935768 -0.874470
v 0.675891 1.935768 -0.874470
v -0.675891 2.400514 0.863256
v 0.675891 2.400514 0.863256
v -0.675891 1.895896 -0.830363
v 0.675891 1.895896 -0.830363
v -0.675891 2.449868 0.845495
v 0.675891 2.449868 0.845495
v -0.675891 1.945250 -0.848124
v 0.675891 1.945250 -0.848124
v 0.644202 1.895896 -0.830363
v -0.644202 1.935095 -0.844469
v -0.644202 2.439713 0.849150
v 0.644202 2.439713 0.849150
v 0.644202 1.935095 -0.844469
v -0.461436 2.400514 0.863257
v -0.458853 2.400514 0.863257
v -0.277378 2.400514 0.863257
v -0.274795 2.400514 0.863257
v -0.093321 2.400514 0.863257
v -0.090737 2.400514 0.863257
v 0.090737 2.400514 0.863257
v 0.093321 2.400514 0.863257
v 0.274795 2.400514 0.863257
v 0.277378 2.400514 0.863257
v 0.458853 2.400514 0.863257
v 0.461436 2.400514 0.863257
v 0.461436 1.895896 -0.830363
v 0.458853 1.895896 -0.830363
v 0.277378 1.895896 -0.830363
v 0.274795 1.895896 -0.830363
v 0.093321 1.895896 -0.830363
v 0.090737 1.895896 -0.830363
v -0.090737 1.895896 -0.830363
v -0.093321 1.895896 -0.830363
v -0.274795 1.895896 -0.830363
v -0.277378 1.895896 -0.830363
v -0.458853 1.895896 -0.830363
v -0.461436 1.895896 -0.830363
v -0.458853 2.439713 0.849150
v -0.461436 2.439713 0.849150
v -0.277378 2.439713 0.849150
v -0.090737 2.439713 0.849150
v -0.093321 2.439713 0.849150
v 0.090737 2.439713 0.849150
v 0.277378 2.439713 0.849150
v 0.461436 2.439713 0.849150
v 0.458853 2.439713 0.849150
v 0.458853 1.935095 -0.844469
v 0.461436 1.935095 -0.844469
v 0.277378 1.935095 -0.844469
v 0.090737 1.935095 -0.844469
v -0.093321 1.935095 -0.844469
v -0.090737 1.935095 -0.844469
v -0.277378 1.935095 -0.844469
v -0.461436 1.935095 -0.844469
v -0.458853 1.935095 -0.844469
v -0.269362 2.439713 0.849150
v -0.274795 2.434593 0.850993
v 0.098753 2.439713 0.849150
v 0.093321 2.434593 0.850993
v 0.274795 2.434593 0.850993
v 0.269362 2.439713 0.849150
v 0.269362 1.935095 -0.844469
v 0.274795 1.929975 -0.842627
v 0.093321 1.929975 -0.842627
v 0.098753 1.935095 -0.844469
v -0.274795 1.929975 -0.842627
v -0.269362 1.935095 -0.844469
v -0.623021 0.007061 0.815657
v 0.623021 0.007061 0.815657
v -0.623021 0.007061 -0.815661
v 0.623021 0.007061 -0.815661
v -0.623021 0.076483 0.815657
v 0.623021 0.076483 0.815657
v -0.623021 0.076483 -0.815661
v 0.623021 0.076483 -0.815661
v -0.391760 0.076483 0.798086
v -0.391760 0.076483 0.700182
v -0.391760 1.914710 0.798086
v -0.391760 1.914710 0.700182
v 0.376679 0.076483 0.798086
v 0.455049 0.076483 0.798086
v 0.376679 0.076483 0.700182
v 0.455049 0.076483 0.700182
v 0.376679 1.914710 0.700182
v 0.376679 1.914710 0.798086
v -0.391760 1.914710 0.821378
v -0.391760 1.879767 0.821378
v -0.391760 1.914710 0.692327
v -0.391760 1.879767 0.692327
v 0.376679 1.914710 0.692327
v 0.376679 1.914710 0.821378
v 0.376679 1.879767 0.821378
v 0.376679 1.879767 0.692327
v -0.544373 0.369612 -0.700250
v -0.544373 0.369612 -0.288767
v 0.544373 0.369612 -0.288767
v 0.544373 0.369612 -0.700250
v -0.544373 0.411469 -0.700250
v -0.544373 0.411469 -0.288767
v 0.544373 0.411469 -0.288767
v 0.544373 0.411469 -0.700250
v 0.038762 0.427720 -0.639166
v -0.038761 0.427720 -0.639166
v -0.105898 0.427720 -0.600405
v -0.144659 0.427720 -0.533268
v -0.144659 0.427720 -0.455745
v -0.105898 0.427720 -0.388608
v -0.038761 0.427720 -0.349847
v 0.038762 0.427720 -0.349847
v 0.105898 0.427720 -0.388608
v 0.144660 0.427720 -0.455745
v 0.144660 0.427720 -0.533268
v 0.105898 0.427720 -0.600405
v -0.038761 0.411469 -0.639166
v 0.038762 0.411469 -0.639166
v -0.105898 0.411469 -0.600405
v -0.144659 0.411469 -0.533268
v -0.144659 0.411469 -0.455745
v -0.105898 0.411469 -0.388608
v -0.038761 0.411469 -0.349847
v 0.038762 0.411469 -0.349847
v 0.105898 0.411469 -0.388608
v 0.144660 0.411469 -0.455745
v 0.144660 0.411469 -0.533268
v 0.105898 0.411469 -0.600405
v -0.544373 0.076483 -0.315079
v 0.544373 0.076483 -0.315079
v -0.544373 0.369612 -0.315079
v 0.544373 0.369612 -0.315079
v -0.544373 0.076483 -0.337767
v 0.544373 0.076483 -0.337767
v -0.544373 0.369612 -0.337767
v 0.544373 0.369612 -0.337767
v -0.459880 0.076483 -0.315079
v -0.461366 0.076483 -0.315079
v -0.377617 0.076483 -0.315079
v -0.292380 0.076483 -0.315079
v -0.293867 0.076483 -0.315079
v -0.208631 0.076483 -0.315079
v -0.124881 0.076483 -0.315079
v -0.126368 0.076483 -0.315079
v -0.042618 0.076483 -0.315079
v 0.042618 0.076483 -0.315079
v 0.126368 0.076483 -0.315079
v 0.124881 0.076483 -0.315079
v 0.210117 0.076483 -0.315079
v 0.208631 0.076483 -0.315079
v 0.293867 0.076483 -0.315079
v 0.377617 0.076483 -0.315079
v 0.376130 0.076483 -0.315079
v 0.461366 0.076483 -0.315079
v 0.459880 0.076483 -0.315079
v -0.461366 0.369612 -0.315079
v -0.459880 0.369612 -0.315079
v -0.377617 0.369612 -0.315079
v -0.293867 0.369612 -0.315079
v -0.292380 0.369612 -0.315079
v -0.208631 0.369612 -0.315079
v -0.126368 0.369612 -0.315079
v -0.124881 0.369612 -0.315079
v -0.042618 0.369612 -0.315079
v 0.042618 0.369612 -0.315079
v 0.124881 0.369612 -0.315079
v 0.126368 0.369612 -0.315079
v 0.208631 0.369612 -0.315079
v 0.210117 0.369612 -0.315079
v 0.293867 0.369612 -0.315079
v 0.376130 0.369612 -0.315079
v 0.377617 0.369612 -0.315079
v 0.459880 0.369612 -0.315079
v 0.461366 0.369612 -0.315079
v -0.460623 0.076483 -0.337767
v -0.376873 0.076483 -0.337767
v -0.293124 0.076483 -0.337767
v -0.209374 0.076483 -0.337767
v -0.125624 0.076483 -0.337767
v -0.041875 0.076483 -0.337767
v 0.041875 0.076483 -0.337767
v 0.125624 0.076483 -0.337767
v 0.209374 0.076483 -0.337767
v 0.293124 0.076483 -0.337767
v 0.376873 0.076483 -0.337767
v 0.460623 0.076483 -0.337767
v -0.460623 0.369612 -0.337767
v -0.376873 0.369612 -0.337767
v -0.293124 0.369612 -0.337767
v -0.209374 0.369612 -0.337767
v -0.125624 0.369612 -0.337767
v -0.041875 0.369612 -0.337767
v 0.041875 0.369612 -0.337767
v 0.125624 0.369612 -0.337767
v 0.209374 0.369612 -0.337767
v 0.293124 0.369612 -0.337767
v 0.376873 0.369612 -0.337767
v 0.460623 0.369612 -0.337767
v -0.371480 0.076483 -0.315079
v -0.376282 0.076483 -0.319726
v -0.209965 0.076483 -0.319726
v -0.214767 0.076483 -0.315079
v -0.036482 0.076483 -0.315079
v -0.041284 0.076483 -0.319726
v 0.041284 0.076483 -0.319726
v 0.036482 0.076483 -0.315079
v 0.292533 0.076483 -0.319726
v 0.287731 0.076483 -0.315079
v -0.376282 0.369612 -0.319726
v -0.371480 0.369612 -0.315079
v -0.214767 0.369612 -0.315079
v -0.209965 0.369612 -0.319726
v -0.041284 0.369612 -0.319726
v -0.036482 0.369612 -0.315079
v 0.036482 0.369612 -0.315079
v 0.041284 0.369612 -0.319726
v 0.287731 0.369612 -0.315079
v 0.292533 0.369612 -0.319726
v -0.391759 0.076458 0.794862
v 0.376679 0.076458 0.794862
v -0.391759 0.076458 0.703407
v 0.376679 0.076458 0.703407
v -0.391759 0.129075 0.703407
v -0.391759 0.129075 0.794862
v 0.376679 0.129075 0.794862
v 0.376679 0.129075 0.703407
v -0.544372 0.076483 -0.344130
v 0.544372 0.076483 -0.344130
v -0.544372 0.369664 -0.344130
v 0.544372 0.369664 -0.344130
vn -1.0000 -0.0000 -0.0000
vn -0.0000 -0.0000 -1.0000
vn -0.0000 -0.0000 1.0000
vn 1.0000 -0.0000 -0.0000
vn 0.7071 -0.0000 0.7071
vn 0.7071 -0.0000 -0.7071
vn -0.7071 -0.0000 -0.7071
vn -0.7071 -0.0000 0.7071
vn -0.0000 0.9531 -0.3026
vn -0.0000 -1.0000 -0.0000
vn -0.0000 1.0000 -0.0000
vn -0.0000 -0.9584 0.2855
vn -0.0000 0.9584 -0.2855
vn -0.0000 -0.3386 -0.9409
vn -0.0000 0.3386 0.9409
vn -0.0000 -0.9409 0.3386
vn -0.0000 0.9409 -0.3386
vn -0.7071 0.6777 -0.2019
vn 0.7071 0.6777 -0.2019
vn -0.0010 -0.0000 -1.0000
vn -0.8660 -0.0000 0.5000
vn 0.5000 -0.0000 -0.8660
vn -0.5000 -0.0000 -0.8660
vn 0.8660 -0.0000 0.5000
vn -0.5000 -0.0000 0.8660
vn -0.8660 -0.0000 -0.5000
vn 0.8660 -0.0000 -0.5000
vn 0.5000 -0.0000 0.8660
vn 0.9995 -0.0000 0.0327
vn -0.9995 -0.0000 0.0327
vn -0.6954 -0.0000 0.7186
vn 0.6954 -0.0000 0.7186
vn 0.0008 -0.0000 -1.0000
vt 0.202824 0.810429
vt 0.202857 0.830763
vt 0.202857 0.810429
vt 0.196638 0.821719
vt 0.196638 0.859174
vt 0.196805 0.855916
vt 0.196805 0.821719
vt 0.202719 0.810429
vt 0.202753 0.832745
vt 0.202719 0.833369
vt 0.196750 0.821719
vt 0.196803 0.855953
vt 0.196750 0.856954
vt 0.202788 0.832089
vt 0.202755 0.810429
vt 0.202788 0.810429
vt 0.202824 0.831400
vt 0.196859 0.854902
vt 0.196859 0.821719
vt 0.196695 0.821719
vt 0.196695 0.857977
vt 0.196748 0.856991
vt 0.196748 0.821719
vt 0.202648 0.834860
vt 0.202648 0.810429
vt 0.196585 0.821719
vt 0.202615 0.810429
vt 0.202615 0.835581
vt 0.202684 0.810429
vt 0.202718 0.833393
vt 0.202718 0.810429
vt 0.196856 0.854946
vt 0.196856 0.821719
vt 0.196803 0.821719
vt 0.202754 0.810429
vt 0.202754 0.832721
vt 0.196585 0.860296
vt 0.196693 0.858015
vt 0.196640 0.821719
vt 0.196693 0.821719
vt 0.196589 0.821719
vt 0.196634 0.859263
vt 0.196589 0.860206
vt 0.202684 0.834103
vt 0.202721 0.810429
vt 0.202753 0.810429
vt 0.202715 0.833449
vt 0.196810 0.821719
vt 0.196854 0.854983
vt 0.196810 0.855835
vt 0.202757 0.810429
vt 0.202785 0.832139
vt 0.202785 0.810429
vt 0.196689 0.858104
vt 0.196689 0.821719
vt 0.196697 0.821719
vt 0.196640 0.859137
vt 0.202646 0.834917
vt 0.202646 0.810429
vt 0.196587 0.821719
vt 0.196634 0.821719
vt 0.202715 0.810429
vt 0.196854 0.821719
vt 0.202757 0.832671
vt 0.202721 0.833342
vt 0.202755 0.832694
vt 0.196697 0.857935
vt 0.196587 0.860248
vt 0.196961 0.821550
vt 0.197016 0.852618
vt 0.197016 0.821550
vt 0.202852 0.835019
vt 0.202852 0.830056
vt 0.202876 0.830056
vt 0.196961 0.860586
vt 0.202852 0.810322
vt 0.202886 0.829979
vt 0.202886 0.810322
vt 0.196849 0.852658
vt 0.196849 0.821550
vt 0.196849 0.853145
vt 0.202781 0.810322
vt 0.202816 0.829979
vt 0.202816 0.810322
vt 0.202675 0.830004
vt 0.202675 0.810322
vt 0.202675 0.830312
vt 0.196682 0.821550
vt 0.196736 0.852618
vt 0.196736 0.821550
vt 0.196904 0.853145
vt 0.196852 0.852618
vt 0.196569 0.821550
vt 0.196624 0.852618
vt 0.196624 0.821550
vt 0.196569 0.860586
vt 0.197016 0.853145
vt 0.202886 0.835019
vt 0.202886 0.830056
vt 0.196904 0.821550
vt 0.202781 0.829979
vt 0.202781 0.830281
vt 0.196792 0.853145
vt 0.196738 0.821550
vt 0.196792 0.821550
vt 0.202852 0.829979
vt 0.202852 0.830281
vt 0.202854 0.830312
vt 0.202710 0.830312
vt 0.202710 0.810322
vt 0.196624 0.853145
vt 0.197016 0.860586
vt 0.196569 0.852618
vt 0.196569 0.853145
vt 0.202675 0.835019
vt 0.202675 0.830056
vt 0.196624 0.860586
vt 0.202710 0.835019
vt 0.202710 0.830056
vt 0.196848 0.852741
vt 0.196796 0.860586
vt 0.196796 0.852741
vt 0.202780 0.835019
vt 0.202780 0.830056
vt 0.196848 0.860586
vt 0.196961 0.852618
vt 0.196961 0.853145
vt 0.196852 0.821550
vt 0.196901 0.852618
vt 0.196901 0.821550
vt 0.202886 0.830312
vt 0.202854 0.810322
vt 0.202814 0.830312
vt 0.202783 0.810322
vt 0.202814 0.810322
vt 0.196738 0.852658
vt 0.196738 0.853145
vt 0.196792 0.852618
vt 0.196682 0.852618
vt 0.196682 0.853097
vt 0.196740 0.821550
vt 0.202710 0.829979
vt 0.196736 0.853145
vt 0.196685 0.821550
vt 0.202677 0.810322
vt 0.202682 0.810322
vt 0.196736 0.860586
vt 0.196736 0.852741
vt 0.202746 0.835019
vt 0.196793 0.852741
vt 0.196793 0.860586
vt 0.202851 0.835019
vt 0.202851 0.830056
vt 0.202783 0.830312
vt 0.196740 0.852618
vt 0.196685 0.853145
vt 0.202677 0.829979
vt 0.202849 0.830056
vt 0.202817 0.835019
vt 0.202817 0.830056
vt 0.196682 0.852741
vt 0.196682 0.860586
vt 0.196733 0.860586
vt 0.202746 0.830056
vt 0.202849 0.835019
vt 0.196733 0.852741
vt 0.196684 0.860586
vt 0.196684 0.852741
vt 0.196904 0.852658
vt 0.202816 0.830281
vt 0.071732 0.844513
vt 0.071732 0.891128
vt 0.073027 0.890698
vt 0.073027 0.844513
vt 0.073096 0.891014
vt 0.073096 0.843617
vt 0.071801 0.843617
vt 0.071801 0.891547
vt 0.087623 0.848938
vt 0.086076 0.891500
vt 0.086060 0.887708
vt 0.087639 0.852730
vt 0.079168 0.858662
vt 0.080892 0.886307
vt 0.080892 0.858662
vt 0.080892 0.858953
vt 0.079168 0.886599
vt 0.079168 0.858953
vt 0.080892 0.891618
vt 0.079168 0.863972
vt 0.080892 0.863972
vt 0.079168 0.881287
vt 0.080892 0.853642
vt 0.079168 0.853642
vt 0.080892 0.886599
vt 0.079168 0.886307
vt 0.079168 0.891618
vt 0.080892 0.881287
vt 0.465752 0.935633
vt 0.467733 0.885691
vt 0.475724 0.855598
vt 0.473743 0.905540
vt 0.467717 0.881812
vt 0.465735 0.931753
vt 0.473759 0.909419
vt 0.475741 0.859478
vt 0.473757 0.908912
vt 0.475739 0.858971
vt 0.193565 0.920399
vt 0.195255 0.920399
vt 0.195255 0.908768
vt 0.193565 0.908768
vt 0.202690 0.830056
vt 0.202690 0.810322
vt 0.202868 0.830056
vt 0.202868 0.810322
vt 0.606232 0.867302
vt 0.606232 0.826273
vt 0.608335 0.826273
vt 0.608335 0.867302
vt 0.222720 0.944907
vt 0.222720 0.968048
vt 0.222720 0.968048
vt 0.225815 0.944907
vt 0.225815 0.968048
vt 0.225815 0.968048
vt 0.235408 0.929404
vt 0.235709 0.929404
vt 0.236230 0.929404
vt 0.235408 0.920419
vt 0.235929 0.920419
vt 0.236120 0.920419
vt 0.236230 0.920419
vt 0.236120 0.929404
vt 0.235518 0.920419
vt 0.235518 0.929404
vt 0.235929 0.929404
vt 0.235709 0.920419
vt 0.209105 0.879362
vt 0.209105 0.926244
vt 0.208899 0.926244
vt 0.208899 0.879362
vt 0.206393 0.926244
vt 0.206393 0.879362
vt 0.214028 0.856981
vt 0.213823 0.903863
vt 0.213823 0.856981
vt 0.207228 0.879362
vt 0.207226 0.926244
vt 0.207226 0.879362
vt 0.207645 0.879362
vt 0.207646 0.926244
vt 0.207645 0.926244
vt 0.214654 0.856981
vt 0.214449 0.903863
vt 0.214449 0.856981
vt 0.207643 0.879362
vt 0.207438 0.926244
vt 0.207438 0.879362
vt 0.207853 0.879362
vt 0.207852 0.926244
vt 0.207852 0.879362
vt 0.208060 0.879362
vt 0.207855 0.926244
vt 0.207855 0.879362
vt 0.208269 0.879362
vt 0.208064 0.926244
vt 0.208064 0.879362
vt 0.208686 0.879362
vt 0.208481 0.926244
vt 0.208481 0.879362
vt 0.216115 0.856981
vt 0.215910 0.903863
vt 0.215910 0.856981
vt 0.216117 0.856981
vt 0.216115 0.903863
vt 0.208897 0.879362
vt 0.208897 0.926244
vt 0.208688 0.879362
vt 0.208686 0.926244
vt 0.215908 0.856981
vt 0.215908 0.903863
vt 0.215686 0.856981
vt 0.215492 0.903863
vt 0.215492 0.856981
vt 0.208479 0.879362
vt 0.208479 0.926244
vt 0.208271 0.879362
vt 0.208269 0.926244
vt 0.215491 0.856981
vt 0.215491 0.903863
vt 0.208062 0.879362
vt 0.208060 0.926244
vt 0.208062 0.926244
vt 0.208478 0.926244
vt 0.208478 0.879362
vt 0.207853 0.926244
vt 0.207643 0.926244
vt 0.215060 0.856981
vt 0.214878 0.903863
vt 0.214878 0.856981
vt 0.214656 0.856981
vt 0.214654 0.903863
vt 0.207436 0.879362
vt 0.207436 0.926244
vt 0.214434 0.856981
vt 0.214241 0.903863
vt 0.214241 0.856981
vt 0.214447 0.856981
vt 0.214447 0.903863
vt 0.207019 0.879362
vt 0.207017 0.926244
vt 0.207017 0.879362
vt 0.214239 0.856981
vt 0.214239 0.903863
vt 0.214030 0.856981
vt 0.214028 0.903863
vt 0.206824 0.926244
vt 0.206824 0.879362
vt 0.206602 0.879362
vt 0.206600 0.926244
vt 0.206600 0.879362
vt 0.213821 0.856981
vt 0.213821 0.903863
vt 0.206812 0.879362
vt 0.214446 0.903863
vt 0.214434 0.903863
vt 0.214866 0.856981
vt 0.215072 0.903863
vt 0.215060 0.903863
vt 0.215698 0.903863
vt 0.215686 0.903863
vt 0.206810 0.879362
vt 0.206812 0.926244
vt 0.206810 0.926244
vt 0.608335 0.882588
vt 0.606232 0.882588
vt 0.606232 0.820807
vt 0.608335 0.820807
vt 0.608335 0.820807
vt 0.606232 0.820807
vt 0.195149 0.969520
vt 0.193672 0.920399
vt 0.195149 0.920399
vt 0.207228 0.926244
vt 0.207646 0.879362
vt 0.216117 0.903863
vt 0.208688 0.926244
vt 0.208271 0.926244
vt 0.214656 0.903863
vt 0.207019 0.926244
vt 0.214030 0.903863
vt 0.206602 0.926244
vt 0.214446 0.856981
vt 0.214866 0.903863
vt 0.215072 0.856981
vt 0.215698 0.856981
vt 0.193672 0.969520
s 0
usemtl Texture_Map
f 174/71/13 157/72/13 153/73/13
f 237/74/14 209/75/14 248/75/14
f 251/76/15 204/77/15 242/77/15
f 161/78/16 169/79/16 168/80/16
f 162/81/16 171/82/16 170/83/16
f 229/84/16 279/85/16 219/86/16
f 165/71/16 158/72/16 172/87/16
f 175/77/13 182/88/13 173/89/13
f 177/90/15 287/91/15 185/91/15
f 177/90/13 184/92/13 176/93/13
f 269/94/14 225/95/14 262/95/14
f 180/96/13 187/75/13 178/74/13
f 152/97/16 166/94/16 156/98/16
f 195/72/16 218/71/16 191/73/16
f 197/96/13 209/75/13 200/74/13
f 199/99/13 211/100/13 201/101/13
f 204/77/13 278/102/13 273/103/13
f 202/81/13 214/82/13 205/104/13
f 243/89/14 277/88/14 254/88/14
f 206/71/13 196/72/13 192/73/13
f 227/88/16 220/77/16 217/89/16
f 257/105/15 285/106/15 266/106/15
f 180/96/15 289/107/15 188/107/15
f 231/108/16 224/109/16 222/110/16
f 234/94/16 189/97/16 225/95/16
f 190/97/13 207/94/13 198/95/13
f 235/111/16 247/112/16 246/113/16
f 159/95/14 207/94/14 166/94/14
f 167/114/15 199/99/15 160/99/15
f 239/101/14 211/100/14 250/100/14
f 272/115/13 212/79/13 203/116/13
f 160/99/16 249/117/16 167/114/16
f 170/83/15 202/81/15 162/81/15
f 163/116/14 212/79/14 169/79/14
f 241/118/16 253/119/16 252/120/16
f 164/104/14 214/82/14 171/82/14
f 172/87/15 206/71/15 165/71/15
f 263/84/14 219/86/14 256/86/14
f 182/88/14 217/89/14 173/89/14
f 174/71/15 226/87/15 181/87/15
f 258/121/13 264/122/13 255/123/13
f 175/77/15 228/76/15 183/76/15
f 184/92/14 221/93/14 176/93/14
f 267/108/14 222/110/14 260/110/14
f 179/109/13 268/124/13 259/125/13
f 230/92/16 281/126/16 221/93/16
f 187/75/14 223/74/14 178/74/14
f 179/109/15 232/127/15 186/127/15
f 151/97/13 270/128/13 261/129/13
f 233/75/16 283/130/16 223/74/16
f 154/73/14 196/72/14 158/72/14
f 156/98/15 190/97/15 152/97/15
f 151/97/15 193/98/15 155/98/15
f 157/72/14 191/73/14 153/73/14
f 246/113/17 236/96/17 235/111/17
f 238/131/18 248/75/18 247/112/18
f 240/132/18 250/100/18 249/117/18
f 252/120/17 242/77/17 241/118/17
f 244/133/18 254/88/18 253/119/18
f 255/123/19 263/84/19 256/86/19
f 265/134/20 257/105/20 266/106/20
f 259/125/19 267/108/19 260/110/19
f 261/129/19 269/94/19 262/95/19
f 245/107/15 197/96/15 236/96/15
f 271/78/20 275/135/20 272/115/20
f 277/88/19 273/103/19 278/102/19
f 280/105/17 286/136/17 285/106/17
f 282/90/17 288/137/17 287/91/17
f 284/96/17 290/138/17 289/107/17
f 168/80/15 271/78/15 161/78/15
f 313/139/14 298/140/14 294/141/14
f 309/142/15 384/143/15 383/144/15
f 292/141/15 311/145/15 301/139/15
f 314/146/14 323/147/14 312/148/14
f 428/149/13 360/150/13 370/151/13
f 317/152/14 325/153/14 315/154/14
f 432/155/13 366/156/13 375/157/13
f 320/158/14 328/159/14 318/160/14
f 369/161/21 427/162/21 370/151/21
f 293/163/14 331/164/14 321/165/14
f 300/165/15 295/166/15 291/163/15
f 339/167/15 358/139/15 335/141/15
f 355/168/14 400/169/14 382/144/14
f 356/145/14 333/141/14 342/139/14
f 325/153/16 435/154/16 315/154/16
f 369/161/15 360/150/15 359/170/15
f 326/171/13 438/152/13 445/172/13
f 371/173/15 363/174/15 361/175/15
f 324/176/21 441/177/21 442/178/21
f 374/179/15 366/156/15 364/180/15
f 376/181/15 334/163/15 365/165/15
f 336/166/14 341/165/14 332/163/14
f 298/140/16 335/141/16 294/141/16
f 292/141/16 337/182/16 296/182/16
f 295/166/13 332/163/13 291/163/13
f 297/183/13 334/163/13 338/184/13
f 303/185/13 398/186/13 397/186/13
f 300/165/16 343/187/16 302/187/16
f 304/188/16 379/189/16 345/188/16
f 391/190/15 406/191/15 415/192/15
f 306/193/16 388/194/16 349/193/16
f 307/195/16 390/190/16 351/195/16
f 311/145/13 342/139/13 301/139/13
f 323/147/16 357/148/16 312/148/16
f 322/196/13 358/139/13 367/197/13
f 420/198/14 426/199/14 417/200/14
f 368/201/15 433/202/15 357/148/15
f 443/203/15 437/204/15 436/205/15
f 430/206/13 363/174/13 372/207/13
f 327/208/16 361/175/16 316/175/16
f 329/209/13 440/158/13 447/210/13
f 328/159/16 362/160/16 318/160/16
f 422/211/14 327/208/14 316/175/14
f 330/212/16 364/180/16 319/180/16
f 373/213/15 439/214/15 362/160/15
f 331/164/16 365/165/16 321/165/16
f 424/215/14 330/212/14 319/180/14
f 291/163/22 341/165/22 300/165/22
f 302/187/23 336/166/23 295/166/23
f 299/156/22 396/216/22 395/216/22
f 304/188/23 344/185/23 303/185/23
f 404/217/16 393/218/16 347/217/16
f 306/193/23 348/219/23 305/219/23
f 387/220/13 405/221/13 350/221/13
f 408/222/16 385/223/16 353/222/16
f 310/168/23 354/142/23 309/142/23
f 301/139/22 333/141/22 292/141/22
f 296/182/23 356/145/23 311/145/23
f 322/196/21 339/167/21 298/140/21
f 446/224/21 443/203/21 326/171/21
f 429/225/21 372/207/21 371/173/21
f 329/209/21 447/210/21 448/226/21
f 431/227/21 375/157/21 374/179/21
f 297/183/21 376/181/21 331/164/21
f 414/228/15 308/229/15 394/230/15
f 378/231/14 347/217/14 393/218/14
f 346/232/23 403/233/23 347/217/23
f 406/191/23 351/195/23 350/221/23
f 386/230/13 308/229/13 352/229/13
f 392/234/14 349/193/14 388/194/14
f 386/230/14 353/222/14 385/223/14
f 389/194/15 305/219/15 377/234/15
f 407/235/23 353/222/23 352/229/23
f 392/234/13 305/219/13 348/219/13
f 387/220/14 351/195/14 390/190/14
f 410/236/15 402/237/15 411/238/15
f 398/186/14 345/188/14 379/189/14
f 397/186/15 304/188/15 303/185/15
f 381/143/13 309/142/13 354/142/13
f 310/168/16 400/169/16 355/168/16
f 402/237/20 412/231/20 411/238/20
f 406/191/20 416/220/20 415/192/20
f 410/236/17 404/217/17 403/233/17
f 414/228/17 408/222/17 407/235/17
f 378/231/13 401/232/13 346/232/13
f 426/199/18 418/170/18 417/200/18
f 427/162/19 419/150/19 428/149/19
f 429/225/19 421/174/19 430/206/19
f 431/227/19 423/156/19 432/155/19
f 425/239/16 359/170/16 418/170/16
f 441/177/20 433/202/20 442/178/20
f 444/240/17 436/205/17 435/154/17
f 445/172/20 437/204/20 446/224/20
f 447/210/20 439/214/20 448/226/20
f 324/176/13 434/146/13 441/177/13
f 450/241/15 454/242/15 449/241/15
f 450/241/16 456/243/16 455/242/16
f 451/244/14 456/243/14 452/244/14
f 449/241/13 453/243/13 451/244/13
f 462/242/15 458/241/15 457/241/15
f 458/241/13 464/243/13 460/244/13
f 464/243/14 459/244/14 460/244/14
f 461/243/16 457/241/16 459/244/16
f 470/245/14 466/246/14 465/246/14
f 471/245/16 468/247/16 466/246/16
f 472/248/15 467/247/15 468/247/15
f 467/247/13 470/245/13 465/246/13
f 474/246/14 478/245/14 473/246/14
f 476/247/13 479/245/13 474/246/13
f 475/247/15 480/248/15 476/247/15
f 475/247/16 478/245/16 477/248/16
f 484/249/16 486/250/16 482/251/16
f 483/249/13 485/250/13 487/252/13
f 493/250/13 512/249/13 490/251/13
f 491/249/16 492/250/16 489/251/16
f 483/249/24 489/251/24 481/251/24
f 484/249/24 490/251/24 512/249/24
f 485/250/25 494/252/25 487/252/25
f 488/252/25 493/250/25 486/250/25
f 487/252/26 491/249/26 483/249/26
f 484/249/26 495/252/26 488/252/26
f 486/250/27 490/251/27 482/251/27
f 481/251/27 492/250/27 485/250/27
f 498/253/26 503/254/26 499/255/26
f 497/256/27 500/257/27 496/258/27
f 511/259/27 506/260/27 507/261/27
f 508/262/26 505/263/26 504/264/26
f 496/258/28 505/263/28 497/256/28
f 499/255/28 506/260/28 498/253/28
f 501/265/29 508/262/29 500/257/29
f 502/266/29 511/259/29 503/254/29
f 498/253/13 510/267/13 502/266/13
f 499/255/16 511/259/16 507/261/16
f 501/265/16 505/263/16 509/268/16
f 500/257/13 504/264/13 496/258/13
f 542/269/25 513/270/25 514/269/25
f 529/271/24 490/272/24 528/272/24
f 539/271/24 519/272/24 518/272/24
f 535/273/24 523/274/24 522/274/24
f 533/271/24 525/272/24 524/272/24
f 531/273/24 527/274/24 526/274/24
f 543/275/25 558/276/25 541/275/25
f 562/277/13 533/271/13 524/272/13
f 546/269/25 555/270/25 544/269/25
f 563/277/16 532/271/16 566/278/16
f 549/269/25 552/270/25 547/269/25
f 515/275/25 551/276/25 548/275/25
f 537/271/24 521/272/24 520/272/24
f 549/269/16 530/273/16 550/270/16
f 548/275/13 529/271/13 528/272/13
f 547/269/13 531/273/13 526/274/13
f 546/269/16 534/273/16 553/270/16
f 561/275/25 565/276/25 568/276/25
f 545/275/16 536/271/16 554/276/16
f 544/269/13 535/273/13 522/274/13
f 543/275/16 538/271/16 556/276/16
f 559/275/25 554/276/25 570/276/25
f 542/269/16 540/273/16 557/270/16
f 541/275/13 539/271/13 518/272/13
f 489/274/24 540/273/24 517/274/24
f 559/275/30 569/278/30 560/277/30
f 561/275/30 567/278/30 562/277/30
f 564/275/31 566/278/31 565/276/31
f 560/277/13 537/271/13 520/272/13
f 576/279/23 577/280/23 575/280/23
f 571/281/13 577/280/13 573/281/13
f 572/282/15 575/280/15 571/281/15
f 574/282/16 576/279/16 572/282/16
f 573/281/14 578/279/14 574/282/14
f 581/283/23 398/186/23 397/186/23
f 580/284/32 398/186/32 582/283/32
f 579/284/15 397/186/15 299/156/15
f 580/284/16 581/283/16 579/284/16
f 299/156/13 398/186/13 340/156/13
f 588/285/23 400/169/23 587/285/23
f 585/286/14 400/169/14 586/148/14
f 583/286/15 399/169/15 588/285/15
f 584/148/16 400/169/16 399/169/16
f 583/286/13 587/285/13 585/286/13
f 591/287/13 590/288/13 589/287/13
f 595/289/16 593/290/16 594/290/16
f 591/287/14 596/289/14 592/288/14
f 590/288/15 594/290/15 589/287/15
f 592/288/22 595/289/22 590/288/22
f 589/287/23 593/290/23 591/287/23
f 599/291/16 604/292/16 603/293/16
f 598/294/13 601/295/13 597/294/13
f 597/294/14 604/292/14 600/291/14
f 599/291/15 602/296/15 598/294/15
f 602/296/23 604/292/23 601/295/23
f 600/291/22 598/294/22 597/294/22
f 615/297/23 605/298/23 609/299/23
f 627/300/22 623/301/22 619/302/22
f 621/303/33 610/304/33 609/299/33
f 628/305/34 605/298/34 616/306/34
f 617/301/35 607/304/35 606/307/35
f 625/305/36 614/297/36 613/306/36
f 622/302/37 611/307/37 610/304/37
f 619/302/38 608/299/38 607/304/38
f 626/300/16 615/297/16 614/297/16
f 623/301/15 612/298/15 611/307/15
f 620/303/13 609/299/13 608/299/13
f 627/300/39 616/306/39 615/297/39
f 618/308/14 606/307/14 605/298/14
f 624/308/40 613/306/40 612/298/40
f 634/309/16 632/310/16 630/309/16
f 630/309/15 674/311/15 654/312/15
f 631/313/13 633/314/13 629/314/13
f 639/315/15 657/316/15 637/317/15
f 678/318/41 712/319/41 701/320/41
f 680/321/42 713/322/42 692/323/42
f 644/324/15 661/325/15 642/326/15
f 645/327/15 663/328/15 643/329/15
f 681/330/41 716/331/41 705/332/41
f 648/333/15 665/334/15 646/335/15
f 650/336/15 667/337/15 647/338/15
f 653/339/15 670/340/15 651/341/15
f 655/342/15 672/343/15 652/344/15
f 686/345/41 673/346/41 655/342/41
f 686/347/42 674/311/42 698/348/42
f 685/349/41 671/350/41 653/339/41
f 685/351/42 672/343/42 697/352/42
f 708/353/15 669/354/15 649/355/15
f 684/356/42 670/340/42 696/357/42
f 683/358/41 668/359/41 650/336/41
f 683/360/42 669/354/42 695/361/42
f 682/362/41 666/363/41 648/333/41
f 682/362/42 667/337/42 694/364/42
f 684/356/41 718/365/41 707/366/41
f 681/330/42 665/334/42 693/367/42
f 680/321/41 664/368/41 645/327/41
f 706/369/15 714/370/15 703/371/15
f 679/372/41 662/373/41 644/324/41
f 679/374/42 663/328/42 691/375/42
f 702/376/15 660/377/15 640/378/15
f 678/379/42 661/325/42 690/380/42
f 677/381/41 659/382/41 641/383/41
f 677/384/42 660/377/42 689/385/42
f 676/386/41 658/387/41 639/315/41
f 641/383/15 710/388/15 699/389/15
f 675/390/41 656/391/41 638/392/41
f 675/393/42 657/316/42 687/394/42
f 638/392/15 631/313/15 629/314/15
f 710/388/43 700/395/43 699/389/43
f 702/376/44 712/396/44 711/397/44
f 714/370/43 704/398/43 703/371/43
f 706/369/44 716/399/44 715/400/44
f 708/353/44 718/401/44 717/402/44
f 676/403/42 709/404/42 688/405/42
f 725/406/23 723/407/23 724/407/23
f 721/408/14 726/406/14 722/409/14
f 720/410/15 724/407/15 719/411/15
f 720/410/16 726/406/16 725/406/16
f 719/411/13 723/407/13 721/408/13
f 729/412/14 728/413/14 727/414/14
f 174/71/13 181/87/13 157/72/13
f 237/74/14 200/74/14 209/75/14
f 251/76/15 215/76/15 204/77/15
f 161/78/16 163/116/16 169/79/16
f 162/81/16 164/104/16 171/82/16
f 229/84/16 286/136/16 279/85/16
f 165/71/16 154/73/16 158/72/16
f 175/77/13 183/76/13 182/88/13
f 177/90/15 282/90/15 287/91/15
f 177/90/13 185/91/13 184/92/13
f 269/94/14 234/94/14 225/95/14
f 180/96/13 188/107/13 187/75/13
f 152/97/16 159/95/16 166/94/16
f 195/72/16 226/87/16 218/71/16
f 197/96/13 208/107/13 209/75/13
f 199/99/13 210/114/13 211/100/13
f 204/77/13 215/76/13 278/102/13
f 202/81/13 213/83/13 214/82/13
f 243/89/14 274/89/14 277/88/14
f 206/71/13 216/87/13 196/72/13
f 227/88/16 228/76/16 220/77/16
f 257/105/15 280/105/15 285/106/15
f 180/96/15 284/96/15 289/107/15
f 231/108/16 232/127/16 224/109/16
f 234/94/16 193/98/16 189/97/16
f 190/97/13 194/98/13 207/94/13
f 235/111/16 238/131/16 247/112/16
f 159/95/14 198/95/14 207/94/14
f 167/114/15 210/114/15 199/99/15
f 239/101/14 201/101/14 211/100/14
f 272/115/13 275/135/13 212/79/13
f 160/99/16 240/132/16 249/117/16
f 170/83/15 213/83/15 202/81/15
f 163/116/14 203/116/14 212/79/14
f 241/118/16 244/133/16 253/119/16
f 164/104/14 205/104/14 214/82/14
f 172/87/15 216/87/15 206/71/15
f 263/84/14 229/84/14 219/86/14
f 182/88/14 227/88/14 217/89/14
f 174/71/15 218/71/15 226/87/15
f 258/121/13 265/134/13 264/122/13
f 175/77/15 220/77/15 228/76/15
f 184/92/14 230/92/14 221/93/14
f 267/108/14 231/108/14 222/110/14
f 179/109/13 186/127/13 268/124/13
f 230/92/16 288/137/16 281/126/16
f 187/75/14 233/75/14 223/74/14
f 179/109/15 224/109/15 232/127/15
f 151/97/13 155/98/13 270/128/13
f 233/75/16 290/138/16 283/130/16
f 154/73/14 192/73/14 196/72/14
f 156/98/15 194/98/15 190/97/15
f 151/97/15 189/97/15 193/98/15
f 157/72/14 195/72/14 191/73/14
f 246/113/17 245/107/17 236/96/17
f 238/131/18 237/74/18 248/75/18
f 240/132/18 239/101/18 250/100/18
f 252/120/17 251/76/17 242/77/17
f 244/133/18 243/89/18 254/88/18
f 255/123/19 264/122/19 263/84/19
f 265/134/20 258/121/20 257/105/20
f 259/125/19 268/124/19 267/108/19
f 261/129/19 270/128/19 269/94/19
f 245/107/15 208/107/15 197/96/15
f 271/78/20 276/80/20 275/135/20
f 277/88/19 274/89/19 273/103/19
f 280/105/17 279/85/17 286/136/17
f 282/90/17 281/126/17 288/137/17
f 284/96/17 283/130/17 290/138/17
f 168/80/15 276/80/15 271/78/15
f 313/139/14 322/196/14 298/140/14
f 383/144/15 399/169/15 310/168/15
f 310/168/15 309/142/15 383/144/15
f 292/141/15 296/182/15 311/145/15
f 314/146/14 324/176/14 323/147/14
f 428/149/13 419/150/13 360/150/13
f 317/152/14 326/171/14 325/153/14
f 432/155/13 423/156/13 366/156/13
f 320/158/14 329/209/14 328/159/14
f 369/161/21 425/239/21 426/199/21
f 426/199/21 427/162/21 369/161/21
f 427/162/21 428/149/21 370/151/21
f 293/163/14 297/183/14 331/164/14
f 300/165/15 302/187/15 295/166/15
f 339/167/15 367/197/15 358/139/15
f 382/144/14 381/143/14 354/142/14
f 354/142/14 355/168/14 382/144/14
f 356/145/14 337/182/14 333/141/14
f 325/153/16 444/240/16 435/154/16
f 369/161/15 370/151/15 360/150/15
f 326/171/13 317/152/13 438/152/13
f 371/173/15 372/207/15 363/174/15
f 368/201/21 323/147/21 442/178/21
f 323/147/21 324/176/21 442/178/21
f 374/179/15 375/157/15 366/156/15
f 376/181/15 338/184/15 334/163/15
f 336/166/14 343/187/14 341/165/14
f 298/140/16 339/167/16 335/141/16
f 292/141/16 333/141/16 337/182/16
f 295/166/13 336/166/13 332/163/13
f 297/183/13 293/163/13 334/163/13
f 303/185/13 344/185/13 398/186/13
f 300/165/16 341/165/16 343/187/16
f 304/188/16 380/189/16 379/189/16
f 391/190/15 307/195/15 406/191/15
f 306/193/16 389/194/16 388/194/16
f 307/195/16 391/190/16 390/190/16
f 311/145/13 356/145/13 342/139/13
f 323/147/16 368/201/16 357/148/16
f 322/196/13 313/139/13 358/139/13
f 420/198/14 427/162/14 426/199/14
f 368/201/15 442/178/15 433/202/15
f 443/203/15 446/224/15 437/204/15
f 430/206/13 421/174/13 363/174/13
f 327/208/16 371/173/16 361/175/16
f 329/209/13 320/158/13 440/158/13
f 328/159/16 373/213/16 362/160/16
f 422/211/14 429/225/14 327/208/14
f 330/212/16 374/179/16 364/180/16
f 373/213/15 448/226/15 439/214/15
f 331/164/16 376/181/16 365/165/16
f 424/215/14 431/227/14 330/212/14
f 291/163/22 332/163/22 341/165/22
f 302/187/23 343/187/23 336/166/23
f 299/156/22 340/156/22 396/216/22
f 304/188/23 345/188/23 344/185/23
f 404/217/16 409/218/16 393/218/16
f 306/193/23 349/193/23 348/219/23
f 387/220/13 416/220/13 405/221/13
f 408/222/16 413/223/16 385/223/16
f 310/168/23 355/168/23 354/142/23
f 301/139/22 342/139/22 333/141/22
f 296/182/23 337/182/23 356/145/23
f 322/196/21 367/197/21 339/167/21
f 444/240/21 325/153/21 443/203/21
f 325/153/21 326/171/21 443/203/21
f 326/171/21 445/172/21 446/224/21
f 371/173/21 327/208/21 429/225/21
f 429/225/21 430/206/21 372/207/21
f 373/213/21 328/159/21 448/226/21
f 328/159/21 329/209/21 448/226/21
f 374/179/21 330/212/21 431/227/21
f 431/227/21 432/155/21 375/157/21
f 297/183/21 338/184/21 376/181/21
f 414/228/15 407/235/15 308/229/15
f 378/231/14 346/232/14 347/217/14
f 346/232/23 401/232/23 402/237/23
f 402/237/23 403/233/23 346/232/23
f 403/233/23 404/217/23 347/217/23
f 350/221/23 405/221/23 406/191/23
f 406/191/23 307/195/23 351/195/23
f 386/230/13 394/230/13 308/229/13
f 392/234/14 348/219/14 349/193/14
f 386/230/14 352/229/14 353/222/14
f 389/194/15 306/193/15 305/219/15
f 352/229/23 308/229/23 407/235/23
f 407/235/23 408/222/23 353/222/23
f 392/234/13 377/234/13 305/219/13
f 387/220/14 350/221/14 351/195/14
f 410/236/15 403/233/15 402/237/15
f 398/186/14 344/185/14 345/188/14
f 397/186/15 380/189/15 304/188/15
f 381/143/13 384/143/13 309/142/13
f 310/168/16 399/169/16 400/169/16
f 402/237/20 401/232/20 412/231/20
f 406/191/20 405/221/20 416/220/20
f 410/236/17 409/218/17 404/217/17
f 414/228/17 413/223/17 408/222/17
f 378/231/13 412/231/13 401/232/13
f 426/199/18 425/239/18 418/170/18
f 427/162/19 420/198/19 419/150/19
f 429/225/19 422/211/19 421/174/19
f 431/227/19 424/215/19 423/156/19
f 425/239/16 369/161/16 359/170/16
f 441/177/20 434/146/20 433/202/20
f 444/240/17 443/203/17 436/205/17
f 445/172/20 438/152/20 437/204/20
f 447/210/20 440/158/20 439/214/20
f 324/176/13 314/146/13 434/146/13
f 450/241/15 455/242/15 454/242/15
f 450/241/16 452/244/16 456/243/16
f 451/244/14 453/243/14 456/243/14
f 449/241/13 454/242/13 453/243/13
f 462/242/15 463/242/15 458/241/15
f 458/241/13 463/242/13 464/243/13
f 464/243/14 461/243/14 459/244/14
f 461/243/16 462/242/16 457/241/16
f 470/245/14 471/245/14 466/246/14
f 471/245/16 472/248/16 468/247/16
f 472/248/15 469/248/15 467/247/15
f 467/247/13 469/248/13 470/245/13
f 474/246/14 479/245/14 478/245/14
f 476/247/13 480/248/13 479/245/13
f 475/247/15 477/248/15 480/248/15
f 475/247/16 473/246/16 478/245/16
f 484/249/16 488/252/16 486/250/16
f 483/249/13 481/251/13 485/250/13
f 493/250/13 495/252/13 512/249/13
f 491/249/16 494/252/16 492/250/16
f 483/249/24 491/249/24 489/251/24
f 484/249/24 482/251/24 490/251/24
f 485/250/25 492/250/25 494/252/25
f 488/252/25 495/252/25 493/250/25
f 487/252/26 494/252/26 491/249/26
f 484/249/26 512/249/26 495/252/26
f 486/250/27 493/250/27 490/251/27
f 481/251/27 489/251/27 492/250/27
f 498/253/26 502/266/26 503/254/26
f 497/256/27 501/265/27 500/257/27
f 511/259/27 510/267/27 506/260/27
f 508/262/26 509/268/26 505/263/26
f 496/258/28 504/264/28 505/263/28
f 499/255/28 507/261/28 506/260/28
f 501/265/29 509/268/29 508/262/29
f 502/266/29 510/267/29 511/259/29
f 498/253/13 506/260/13 510/267/13
f 499/255/16 503/254/16 511/259/16
f 501/265/16 497/256/16 505/263/16
f 500/257/13 508/262/13 504/264/13
f 542/269/25 557/270/25 513/270/25
f 529/271/24 512/271/24 490/272/24
f 539/271/24 538/271/24 519/272/24
f 535/273/24 534/273/24 523/274/24
f 533/271/24 532/271/24 525/272/24
f 531/273/24 530/273/24 527/274/24
f 543/275/25 556/276/25 558/276/25
f 562/277/13 567/278/13 533/271/13
f 546/269/25 553/270/25 555/270/25
f 563/277/16 525/272/16 532/271/16
f 549/269/25 550/270/25 552/270/25
f 515/275/25 516/276/25 551/276/25
f 537/271/24 536/271/24 521/272/24
f 549/269/16 527/274/16 530/273/16
f 548/275/13 551/276/13 529/271/13
f 547/269/13 552/270/13 531/273/13
f 546/269/16 523/274/16 534/273/16
f 561/275/25 564/275/25 565/276/25
f 545/275/16 521/272/16 536/271/16
f 544/269/13 555/270/13 535/273/13
f 543/275/16 519/272/16 538/271/16
f 559/275/25 545/275/25 554/276/25
f 542/269/16 517/274/16 540/273/16
f 541/275/13 558/276/13 539/271/13
f 489/274/24 491/273/24 540/273/24
f 559/275/30 570/276/30 569/278/30
f 561/275/30 568/276/30 567/278/30
f 564/275/31 563/277/31 566/278/31
f 560/277/13 569/278/13 537/271/13
f 576/279/23 578/279/23 577/280/23
f 571/281/13 575/280/13 577/280/13
f 572/282/15 576/279/15 575/280/15
f 574/282/16 578/279/16 576/279/16
f 573/281/14 577/280/14 578/279/14
f 581/283/23 582/283/23 398/186/23
f 580/284/32 340/156/32 398/186/32
f 579/284/15 581/283/15 397/186/15
f 580/284/16 582/283/16 581/283/16
f 299/156/13 397/186/13 398/186/13
f 588/285/23 399/169/23 400/169/23
f 585/286/45 587/285/45 400/169/45
f 583/286/15 584/148/15 399/169/15
f 584/148/16 586/148/16 400/169/16
f 583/286/13 588/285/13 587/285/13
f 591/287/13 592/288/13 590/288/13
f 595/289/16 596/289/16 593/290/16
f 591/287/14 593/290/14 596/289/14
f 590/288/15 595/289/15 594/290/15
f 592/288/22 596/289/22 595/289/22
f 589/287/23 594/290/23 593/290/23
f 599/291/16 600/291/16 604/292/16
f 598/294/13 602/296/13 601/295/13
f 597/294/14 601/295/14 604/292/14
f 599/291/15 603/293/15 602/296/15
f 602/296/23 603/293/23 604/292/23
f 600/291/22 599/291/22 598/294/22
f 605/298/23 606/307/23 607/304/23
f 607/304/23 608/299/23 609/299/23
f 609/299/23 610/304/23 611/307/23
f 611/307/23 612/298/23 609/299/23
f 612/298/23 613/306/23 609/299/23
f 613/306/23 614/297/23 615/297/23
f 615/297/23 616/306/23 605/298/23
f 605/298/23 607/304/23 609/299/23
f 613/306/23 615/297/23 609/299/23
f 619/302/22 617/301/22 618/308/22
f 618/308/22 628/305/22 619/302/22
f 628/305/22 627/300/22 619/302/22
f 627/300/22 626/300/22 625/305/22
f 625/305/22 624/308/22 627/300/22
f 624/308/22 623/301/22 627/300/22
f 623/301/22 622/302/22 619/302/22
f 622/302/22 621/303/22 619/302/22
f 621/303/22 620/303/22 619/302/22
f 621/303/33 622/302/33 610/304/33
f 628/305/34 618/308/34 605/298/34
f 617/301/35 619/302/35 607/304/35
f 625/305/36 626/300/36 614/297/36
f 622/302/37 623/301/37 611/307/37
f 619/302/38 620/303/38 608/299/38
f 626/300/16 627/300/16 615/297/16
f 623/301/15 624/308/15 612/298/15
f 620/303/13 621/303/13 609/299/13
f 627/300/39 628/305/39 616/306/39
f 618/308/14 617/301/14 606/307/14
f 624/308/40 625/305/40 613/306/40
f 634/309/16 636/310/16 632/310/16
f 630/309/15 632/310/15 674/311/15
f 631/313/13 635/313/13 633/314/13
f 639/315/15 658/387/15 657/316/15
f 678/318/41 690/415/41 712/319/41
f 680/321/42 704/416/42 713/322/42
f 644/324/15 662/373/15 661/325/15
f 645/327/15 664/368/15 663/328/15
f 681/330/41 693/367/41 716/331/41
f 648/333/15 666/363/15 665/334/15
f 650/336/15 668/359/15 667/337/15
f 653/339/15 671/350/15 670/340/15
f 655/342/15 673/346/15 672/343/15
f 686/345/41 698/417/41 673/346/41
f 686/347/42 654/312/42 674/311/42
f 685/349/41 697/418/41 671/350/41
f 685/351/42 652/344/42 672/343/42
f 708/353/15 717/402/15 669/354/15
f 684/356/42 651/341/42 670/340/42
f 683/358/41 695/419/41 668/359/41
f 683/360/42 649/355/42 669/354/42
f 682/362/41 694/364/41 666/363/41
f 682/362/42 647/338/42 667/337/42
f 684/356/41 696/357/41 718/365/41
f 681/330/42 646/335/42 665/334/42
f 680/321/41 692/323/41 664/368/41
f 706/369/15 715/400/15 714/370/15
f 679/372/41 691/420/41 662/373/41
f 679/374/42 643/329/42 663/328/42
f 702/376/15 711/397/15 660/377/15
f 678/379/42 642/326/42 661/325/42
f 677/381/41 689/421/41 659/382/41
f 677/384/42 640/378/42 660/377/42
f 676/386/41 688/422/41 658/387/41
f 641/383/15 659/382/15 710/388/15
f 675/390/41 687/423/41 656/391/41
f 675/393/42 637/317/42 657/316/42
f 638/392/15 656/391/15 631/313/15
f 710/388/43 709/404/43 700/395/43
f 702/376/44 701/424/44 712/396/44
f 714/370/43 713/425/43 704/398/43
f 706/369/44 705/426/44 716/399/44
f 708/353/44 707/427/44 718/401/44
f 676/403/42 700/395/42 709/404/42
f 725/406/23 726/406/23 723/407/23
f 721/408/14 723/407/14 726/406/14
f 720/410/15 725/406/15 724/407/15
f 720/410/16 722/409/16 726/406/16
f 719/411/13 724/407/13 723/407/13
f 729/412/14 730/428/14 728/413/14
