# Blender 4.4.0
# www.blender.org
mtllib Bld_Doghouse_Large_01.mtl
o Bld_Doghouse_Large_01
v -0.456837 0.042658 0.489624
v 0.456837 0.042658 0.489624
v -0.456837 0.042658 -0.489624
v 0.456837 0.042658 -0.489624
v -0.456837 0.681270 -0.489624
v -0.456837 0.681270 0.489624
v 0.456837 0.681270 0.489624
v 0.456837 0.681270 -0.489624
v 0.456837 0.611483 -0.489624
v 0.456837 0.540526 -0.489624
v 0.456837 0.538186 -0.489624
v 0.456837 0.469569 -0.489624
v 0.456837 0.396272 -0.489624
v 0.456837 0.327655 -0.489624
v 0.456837 0.325315 -0.489624
v 0.456837 0.256698 -0.489624
v 0.456837 0.183401 -0.489624
v 0.456837 0.114785 -0.489624
v 0.456837 0.112445 -0.489624
v 0.456837 0.112445 0.489624
v 0.456837 0.114785 0.489624
v 0.456837 0.183401 0.489624
v 0.456837 0.256698 0.489624
v 0.456837 0.325315 0.489624
v 0.456837 0.327655 0.489624
v 0.456837 0.396272 0.489624
v 0.456837 0.469569 0.489624
v 0.456837 0.538186 0.489624
v 0.456837 0.540526 0.489624
v 0.456837 0.611483 0.489624
v -0.456837 0.112445 -0.489624
v -0.456837 0.114785 -0.489624
v -0.456837 0.185742 -0.489624
v -0.456837 0.256698 -0.489624
v -0.456837 0.325315 -0.489624
v -0.456837 0.327655 -0.489624
v -0.456837 0.398612 -0.489624
v -0.456837 0.469569 -0.489624
v -0.456837 0.538186 -0.489624
v -0.456837 0.609143 -0.489624
v -0.456837 0.611483 -0.489624
v -0.456837 0.611483 0.489624
v -0.456837 0.609143 0.489624
v -0.456837 0.538186 0.489624
v -0.456837 0.469569 0.489624
v -0.456837 0.398612 0.489624
v -0.456837 0.327655 0.489624
v -0.456837 0.325315 0.489624
v -0.456837 0.256698 0.489624
v -0.456837 0.185742 0.489624
v -0.456837 0.114785 0.489624
v -0.456837 0.112445 0.489624
v -0.429711 0.042658 0.489624
v 0.429711 0.042658 0.489624
v -0.429711 0.042658 -0.489624
v 0.429711 0.042658 -0.489624
v -0.429711 0.681270 -0.489624
v -0.429711 0.681270 0.489624
v 0.429711 0.681270 0.489624
v 0.429711 0.681270 -0.489624
v 0.429711 0.611483 -0.489624
v 0.429711 0.609143 -0.489624
v 0.429711 0.540526 -0.489624
v 0.429711 0.538186 -0.489624
v 0.429711 0.469569 -0.489624
v 0.429711 0.467229 -0.489624
v 0.429711 0.398612 -0.489624
v 0.429711 0.396272 -0.489624
v 0.429711 0.327655 -0.489624
v 0.429711 0.325315 -0.489624
v 0.429711 0.256698 -0.489624
v 0.429711 0.254358 -0.489624
v 0.429711 0.185742 -0.489624
v 0.429711 0.183401 -0.489624
v 0.429711 0.114785 -0.489624
v 0.429711 0.112445 -0.489624
v 0.429711 0.112445 0.489624
v 0.429711 0.114785 0.489624
v 0.429711 0.183401 0.489624
v 0.429711 0.185742 0.489624
v 0.429711 0.254358 0.489624
v 0.429711 0.256698 0.489624
v 0.429711 0.325315 0.489624
v 0.429711 0.327655 0.489624
v 0.429711 0.396272 0.489624
v 0.429711 0.398612 0.489624
v 0.429711 0.467229 0.489624
v 0.429711 0.469569 0.489624
v 0.429711 0.538186 0.489624
v 0.429711 0.540526 0.489624
v 0.429711 0.609143 0.489624
v 0.429711 0.611483 0.489624
v -0.429711 0.112445 -0.489624
v -0.429711 0.114785 -0.489624
v -0.429711 0.183401 -0.489624
v -0.429711 0.185742 -0.489624
v -0.429711 0.254358 -0.489624
v -0.429711 0.256698 -0.489624
v -0.429711 0.325315 -0.489624
v -0.429711 0.327655 -0.489624
v -0.429711 0.396272 -0.489624
v -0.429711 0.398612 -0.489624
v -0.429711 0.467229 -0.489624
v -0.429711 0.469569 -0.489624
v -0.429711 0.538186 -0.489624
v -0.429711 0.540526 -0.489624
v -0.429711 0.609143 -0.489624
v -0.429711 0.611483 -0.489624
v -0.429711 0.611483 0.489624
v -0.429711 0.609143 0.489624
v -0.429711 0.540526 0.489624
v -0.429711 0.538186 0.489624
v -0.429711 0.469569 0.489624
v -0.429711 0.467229 0.489624
v -0.429711 0.398612 0.489624
v -0.429711 0.396272 0.489624
v -0.429711 0.327655 0.489624
v -0.429711 0.325315 0.489624
v -0.429711 0.256698 0.489624
v -0.429711 0.254358 0.489624
v -0.429711 0.185742 0.489624
v -0.429711 0.183401 0.489624
v -0.429711 0.114785 0.489624
v -0.429711 0.112445 0.489624
v 0.451174 0.609143 -0.489624
v 0.456837 0.603480 -0.489624
v 0.451174 0.467229 -0.489624
v 0.456837 0.461566 -0.489624
v 0.456837 0.404275 -0.489624
v 0.451174 0.398612 -0.489624
v 0.451174 0.254358 -0.489624
v 0.456837 0.248695 -0.489624
v 0.456837 0.191405 -0.489624
v 0.451174 0.185742 -0.489624
v 0.451174 0.185742 0.489624
v 0.456837 0.191405 0.489624
v 0.456837 0.248695 0.489624
v 0.451174 0.254358 0.489624
v 0.451174 0.398612 0.489624
v 0.456837 0.404275 0.489624
v 0.456837 0.461566 0.489624
v 0.451174 0.467229 0.489624
v 0.456837 0.603480 0.489624
v 0.451174 0.609143 0.489624
v -0.456837 0.177738 -0.489624
v -0.451174 0.183401 -0.489624
v -0.456837 0.248695 -0.489624
v -0.451174 0.254358 -0.489624
v -0.456837 0.390609 -0.489624
v -0.451174 0.396272 -0.489624
v -0.456837 0.461566 -0.489624
v -0.451174 0.467229 -0.489624
v -0.451174 0.540526 -0.489624
v -0.456837 0.546189 -0.489624
v -0.456837 0.546189 0.489624
v -0.451174 0.540526 0.489624
v -0.451174 0.467229 0.489624
v -0.456837 0.461566 0.489624
v -0.451174 0.396272 0.489624
v -0.456837 0.390609 0.489624
v -0.451174 0.254358 0.489624
v -0.456837 0.248695 0.489624
v -0.451174 0.183401 0.489624
v -0.456837 0.177738 0.489624
v 0.439812 0.000000 0.533776
v 0.473863 0.000000 0.533776
v 0.439812 0.000000 0.489624
v 0.473863 0.000000 0.489624
v 0.439812 0.693320 0.489624
v 0.439812 0.693320 0.533776
v 0.473863 0.673689 0.533776
v 0.473863 0.673689 0.489624
v -0.439811 0.000000 0.533776
v -0.473863 0.000000 0.533776
v -0.439811 0.000000 0.489624
v -0.473863 0.000000 0.489624
v -0.439811 0.693320 0.489624
v -0.439811 0.693320 0.533776
v -0.473863 0.673689 0.533776
v -0.473863 0.673689 0.489624
v 0.439812 0.000000 -0.533776
v 0.473863 0.000000 -0.533776
v 0.439812 0.000000 -0.489624
v 0.473863 0.000000 -0.489624
v 0.439812 0.693320 -0.489624
v 0.439812 0.693320 -0.533776
v 0.473863 0.673689 -0.533776
v 0.473863 0.673689 -0.489624
v -0.439811 0.000000 -0.533776
v -0.473863 0.000000 -0.533776
v -0.439811 0.000000 -0.489624
v -0.473863 0.000000 -0.489624
v -0.439811 0.693320 -0.489624
v -0.439811 0.693320 -0.533776
v -0.473863 0.673689 -0.533776
v -0.473863 0.673689 -0.489624
v 0.535512 0.658098 -0.537238
v 0.535512 0.658098 0.537238
v 0.524604 0.640129 0.537238
v 0.524604 0.640129 -0.537238
v 0.000000 0.958609 0.537238
v 0.000000 0.958609 -0.537238
v 0.000000 0.976577 0.537238
v 0.000000 0.976577 -0.537238
v 0.000000 0.976577 -0.384924
v 0.000000 0.976577 -0.382559
v 0.000000 0.976577 -0.229062
v 0.000000 0.976577 -0.075566
v 0.000000 0.976577 0.075566
v 0.000000 0.976577 0.231427
v 0.000000 0.976577 0.382559
v 0.000000 0.976577 0.384924
v 0.000000 0.958609 -0.382559
v 0.000000 0.958609 -0.384924
v 0.000000 0.958609 -0.229062
v 0.000000 0.958609 -0.231427
v 0.000000 0.958609 -0.075566
v 0.000000 0.958609 -0.077931
v 0.000000 0.958609 0.077931
v 0.000000 0.958609 0.075566
v 0.000000 0.958609 0.231427
v 0.000000 0.958609 0.229062
v 0.000000 0.958609 0.384924
v 0.000000 0.958609 0.382559
v 0.535512 0.658098 -0.384924
v 0.535512 0.658098 -0.382559
v 0.535512 0.658098 -0.229062
v 0.535512 0.658098 -0.075566
v 0.535512 0.658098 0.075566
v 0.535512 0.658098 0.231427
v 0.535512 0.658098 0.382559
v 0.535512 0.658098 0.384924
v 0.524604 0.640129 -0.382559
v 0.524604 0.640129 -0.384924
v 0.524604 0.640129 -0.229062
v 0.524604 0.640129 -0.231427
v 0.524604 0.640129 -0.075566
v 0.524604 0.640129 -0.077931
v 0.524604 0.640129 0.077931
v 0.524604 0.640129 0.075566
v 0.524604 0.640129 0.231427
v 0.524604 0.640129 0.229062
v 0.524604 0.640129 0.384924
v 0.524604 0.640129 0.382559
v 0.000000 0.971827 -0.231427
v 0.000000 0.976577 -0.235510
v 0.000000 0.971827 -0.077931
v 0.000000 0.976577 -0.082013
v 0.000000 0.976577 0.082013
v 0.000000 0.971827 0.077931
v 0.000000 0.971827 0.229062
v 0.000000 0.976577 0.224980
v 0.535512 0.658098 -0.235510
v 0.533394 0.654608 -0.231427
v 0.535512 0.658098 -0.082013
v 0.533394 0.654608 -0.077931
v 0.533394 0.654608 0.077931
v 0.535512 0.658098 0.082013
v 0.535512 0.658098 0.224980
v 0.533394 0.654608 0.229062
v -0.535512 0.658098 -0.537238
v -0.535512 0.658098 0.537238
v -0.524604 0.640129 0.537238
v -0.524604 0.640129 -0.537238
v -0.535512 0.658098 -0.384924
v -0.535512 0.658098 -0.382559
v -0.535512 0.658098 -0.229062
v -0.535512 0.658098 -0.075566
v -0.535512 0.658098 0.075566
v -0.535512 0.658098 0.231427
v -0.535512 0.658098 0.382559
v -0.535512 0.658098 0.384924
v -0.524604 0.640129 -0.382559
v -0.524604 0.640129 -0.384924
v -0.524604 0.640129 -0.229062
v -0.524604 0.640129 -0.231427
v -0.524604 0.640129 -0.075566
v -0.524604 0.640129 -0.077931
v -0.524604 0.640129 0.077931
v -0.524604 0.640129 0.075566
v -0.524604 0.640129 0.231427
v -0.524604 0.640129 0.229062
v -0.524604 0.640129 0.384924
v -0.524604 0.640129 0.382559
v -0.535512 0.658098 -0.235510
v -0.533393 0.654608 -0.231427
v -0.535512 0.658098 -0.082013
v -0.533393 0.654608 -0.077931
v -0.533393 0.654608 0.077931
v -0.535512 0.658098 0.082013
v -0.535512 0.658098 0.224980
v -0.533393 0.654608 0.229062
v -0.444835 0.042658 0.516750
v 0.444528 0.042658 0.516750
v -0.444822 0.042658 -0.516750
v 0.444822 0.042658 -0.516750
v 0.000000 0.958609 0.516750
v 0.000000 0.958609 -0.516750
v -0.444822 0.680099 -0.516750
v -0.444835 0.680099 0.516750
v -0.454910 0.682440 0.516750
v 0.454910 0.682440 0.516750
v 0.444528 0.680099 0.516750
v 0.444822 0.680099 -0.516750
v 0.444528 0.114785 0.516750
v 0.444528 0.112445 0.516750
v 0.444528 0.183401 0.516750
v 0.444528 0.256698 0.516750
v 0.444528 0.254358 0.516750
v 0.444528 0.327655 0.516750
v 0.444528 0.325315 0.516750
v 0.444528 0.396272 0.516750
v 0.444528 0.469569 0.516750
v 0.444528 0.540526 0.516750
v 0.444528 0.538186 0.516750
v 0.444528 0.611483 0.516750
v 0.444528 0.609143 0.516750
v -0.444835 0.609143 0.516750
v -0.444835 0.611483 0.516750
v -0.444835 0.540526 0.516750
v -0.444835 0.467229 0.516750
v -0.444835 0.469569 0.516750
v -0.444835 0.396272 0.516750
v -0.444835 0.327655 0.516750
v -0.444835 0.254358 0.516750
v -0.444835 0.183401 0.516750
v -0.444835 0.185742 0.516750
v -0.444835 0.112445 0.516750
v -0.444835 0.114785 0.516750
v -0.444822 0.114785 -0.516750
v -0.444822 0.183401 -0.516750
v -0.444822 0.254358 -0.516750
v -0.444822 0.327655 -0.516750
v -0.444822 0.325315 -0.516750
v -0.444822 0.398612 -0.516750
v -0.444822 0.396272 -0.516750
v -0.444822 0.469569 -0.516750
v -0.444822 0.540526 -0.516750
v -0.444822 0.538186 -0.516750
v -0.444822 0.611483 -0.516750
v 0.444822 0.611483 -0.516750
v 0.444822 0.538186 -0.516750
v 0.444822 0.540526 -0.516750
v 0.444822 0.469569 -0.516750
v 0.444822 0.396272 -0.516750
v 0.444822 0.398612 -0.516750
v 0.444822 0.325315 -0.516750
v 0.444822 0.327655 -0.516750
v 0.444822 0.254358 -0.516750
v 0.444822 0.183401 -0.516750
v 0.444822 0.114785 -0.516750
v 0.112282 0.890444 0.516750
v 0.116137 0.888104 0.516750
v 0.226491 0.821109 0.516750
v 0.344556 0.749434 0.516750
v -0.344555 0.749434 0.516750
v -0.226491 0.821109 0.516750
v -0.116136 0.888104 0.516750
v -0.112282 0.890444 0.516750
v 0.000000 0.890444 0.516750
v -0.112282 0.890444 -0.516750
v -0.116136 0.888104 -0.516750
v -0.226491 0.821109 -0.516750
v -0.230346 0.818769 -0.516750
v -0.340700 0.751775 -0.516750
v -0.344555 0.749434 -0.516750
v 0.344556 0.749434 -0.516750
v 0.340701 0.751775 -0.516750
v 0.230346 0.818769 -0.516750
v 0.226491 0.821109 -0.516750
v 0.116137 0.888104 -0.516750
v 0.112282 0.890444 -0.516750
v 0.000000 0.890444 -0.516750
v -0.444835 0.042658 0.489624
v 0.444528 0.042658 0.489624
v -0.444822 0.042658 -0.489624
v 0.444822 0.042658 -0.489624
v 0.000000 0.958609 0.489624
v 0.000000 0.958609 -0.489624
v -0.454910 0.682440 -0.489624
v -0.444822 0.680099 -0.489624
v -0.444835 0.680099 0.489624
v -0.454910 0.682440 0.489624
v 0.454910 0.682440 0.489624
v 0.444528 0.680099 0.489624
v 0.444822 0.680099 -0.489624
v 0.454910 0.682440 -0.489624
v 0.444528 0.114785 0.489624
v 0.444528 0.112445 0.489624
v 0.444528 0.185742 0.489624
v 0.444528 0.183401 0.489624
v 0.444528 0.256698 0.489624
v 0.444528 0.254358 0.489624
v 0.444528 0.327655 0.489624
v 0.444528 0.325315 0.489624
v 0.444528 0.398612 0.489624
v 0.444528 0.396272 0.489624
v 0.444528 0.469569 0.489624
v 0.444528 0.467229 0.489624
v 0.444528 0.540526 0.489624
v 0.444528 0.538186 0.489624
v 0.444528 0.611483 0.489624
v 0.444528 0.609143 0.489624
v -0.444835 0.609143 0.489624
v -0.444835 0.611483 0.489624
v -0.444835 0.538186 0.489624
v -0.444835 0.540526 0.489624
v -0.444835 0.467229 0.489624
v -0.444835 0.469569 0.489624
v -0.444835 0.396272 0.489624
v -0.444835 0.398612 0.489624
v -0.444835 0.325315 0.489624
v -0.444835 0.327655 0.489624
v -0.444835 0.254358 0.489624
v -0.444835 0.256698 0.489624
v -0.444835 0.183401 0.489624
v -0.444835 0.185742 0.489624
v -0.444835 0.112445 0.489624
v -0.444835 0.114785 0.489624
v -0.444822 0.114785 -0.489624
v -0.444822 0.112445 -0.489624
v -0.444822 0.185742 -0.489624
v -0.444822 0.256698 -0.489624
v -0.444822 0.327655 -0.489624
v -0.444822 0.325315 -0.489624
v -0.444822 0.398612 -0.489624
v -0.444822 0.396272 -0.489624
v -0.444822 0.467229 -0.489624
v -0.444822 0.540526 -0.489624
v -0.444822 0.538186 -0.489624
v -0.444822 0.611483 -0.489624
v 0.444822 0.611483 -0.489624
v 0.444822 0.538186 -0.489624
v 0.444822 0.540526 -0.489624
v 0.444822 0.467229 -0.489624
v 0.444822 0.396272 -0.489624
v 0.444822 0.398612 -0.489624
v 0.444822 0.325315 -0.489624
v 0.444822 0.327655 -0.489624
v 0.444822 0.256698 -0.489624
v 0.444822 0.185742 -0.489624
v 0.444822 0.112445 -0.489624
v 0.444822 0.114785 -0.489624
v 0.112282 0.890444 0.489624
v 0.116137 0.888104 0.489624
v 0.226491 0.821109 0.489624
v 0.230346 0.818769 0.489624
v 0.340701 0.751775 0.489624
v 0.344556 0.749434 0.489624
v -0.344555 0.749434 0.489624
v -0.340700 0.751775 0.489624
v -0.230346 0.818769 0.489624
v -0.226491 0.821109 0.489624
v -0.116136 0.888104 0.489624
v -0.112282 0.890444 0.489624
v 0.000000 0.890444 0.489624
v -0.112282 0.890444 -0.489624
v -0.116136 0.888104 -0.489624
v -0.226491 0.821109 -0.489624
v -0.230346 0.818769 -0.489624
v -0.340700 0.751775 -0.489624
v -0.344555 0.749434 -0.489624
v 0.344556 0.749434 -0.489624
v 0.340701 0.751775 -0.489624
v 0.230346 0.818769 -0.489624
v 0.226491 0.821109 -0.489624
v 0.116137 0.888104 -0.489624
v 0.112282 0.890444 -0.489624
v 0.000000 0.890444 -0.489624
v 0.127616 0.609143 0.516750
v 0.127616 0.609143 0.489624
v 0.122509 0.611483 0.489624
v 0.122509 0.611483 0.516750
v 0.150729 0.598550 0.489624
v 0.150729 0.598550 0.516750
v -0.062611 0.638934 0.489624
v -0.062611 0.638934 0.516750
v 0.062612 0.638934 0.489624
v 0.062612 0.638934 0.516750
v -0.150729 0.598550 0.489624
v -0.127615 0.609143 0.489624
v -0.122509 0.611483 0.489624
v -0.122509 0.611483 0.516750
v -0.127615 0.609143 0.516750
v -0.150729 0.598550 0.516750
v -0.172451 0.540526 0.516750
v -0.172451 0.540526 0.489624
v -0.173327 0.538186 0.489624
v -0.187228 0.501055 0.489624
v -0.187228 0.501055 0.516750
v 0.172452 0.540526 0.516750
v 0.173328 0.538186 0.516750
v 0.172452 0.540526 0.489624
v 0.173328 0.538186 0.489624
v 0.187229 0.501055 0.489624
v 0.187229 0.501055 0.516750
v 0.187229 0.256698 0.489624
v 0.187229 0.185742 0.489624
v 0.187229 0.254358 0.516750
v 0.187229 0.254358 0.489624
v 0.187229 0.114785 0.489624
v 0.187229 0.112445 0.516750
v 0.187229 0.112445 0.489624
v 0.187229 0.072826 0.489624
v 0.187229 0.183401 0.489624
v 0.187229 0.256698 0.516750
v 0.187229 0.183401 0.516750
v 0.187229 0.114785 0.516750
v 0.187229 0.072826 0.516750
v 0.187229 0.467229 0.489624
v 0.187229 0.469569 0.516750
v 0.187229 0.398612 0.489624
v 0.187229 0.469569 0.489624
v 0.187229 0.396272 0.489624
v 0.187229 0.325315 0.516750
v 0.187229 0.396272 0.516750
v 0.187229 0.327655 0.516750
v 0.187229 0.325315 0.489624
v 0.187229 0.327655 0.489624
v -0.187228 0.325315 0.489624
v -0.187228 0.467229 0.489624
v -0.187228 0.327655 0.489624
v -0.187228 0.327655 0.516750
v -0.187228 0.467229 0.516750
v -0.187228 0.396272 0.516750
v -0.187228 0.396272 0.489624
v -0.187228 0.469569 0.489624
v -0.187228 0.398612 0.489624
v -0.187228 0.469569 0.516750
v -0.187228 0.183401 0.489624
v -0.187228 0.256698 0.489624
v -0.187228 0.183401 0.516750
v -0.187228 0.185742 0.489624
v -0.187228 0.254358 0.516750
v -0.187228 0.185742 0.516750
v -0.187228 0.254358 0.489624
v -0.187228 0.112445 0.489624
v -0.187228 0.112445 0.516750
v -0.187228 0.114785 0.516750
v -0.187228 0.114785 0.489624
v -0.187228 0.072826 0.489624
v -0.187228 0.072826 0.516750
v 0.444528 0.189717 0.516750
v 0.444528 0.185742 0.512774
v 0.444528 0.402588 0.516750
v 0.444528 0.398612 0.512774
v 0.444528 0.467229 0.512774
v 0.444528 0.463253 0.516750
v -0.444835 0.534210 0.516750
v -0.444835 0.538186 0.512774
v -0.444835 0.398612 0.512774
v -0.444835 0.402588 0.516750
v -0.444835 0.321339 0.516750
v -0.444835 0.325315 0.512774
v -0.444835 0.256698 0.512774
v -0.444835 0.260674 0.516750
v 0.230346 0.818769 0.512774
v 0.236895 0.814793 0.516750
v 0.334152 0.755750 0.516750
v 0.340701 0.751775 0.512774
v -0.340700 0.751775 0.512774
v -0.334151 0.755750 0.516750
v -0.236895 0.814793 0.516750
v -0.230346 0.818769 0.512774
v -0.173327 0.538186 0.512774
v -0.174816 0.534210 0.516750
v 0.187229 0.185742 0.512774
v 0.187229 0.189717 0.516750
v 0.187229 0.398612 0.512774
v 0.187229 0.402588 0.516750
v 0.187229 0.463253 0.516750
v 0.187229 0.467229 0.512774
v -0.187228 0.325315 0.512774
v -0.187228 0.321339 0.516750
v -0.187228 0.402588 0.516750
v -0.187228 0.398612 0.512774
v -0.187228 0.260674 0.516750
v -0.187228 0.256698 0.512774
v -0.448096 0.686576 -0.516750
v -0.454910 0.682440 -0.512614
v 0.454910 0.682440 -0.512614
v 0.448097 0.686576 -0.516750
v -0.444822 0.112445 -0.512614
v -0.444822 0.108308 -0.516750
v -0.444822 0.189878 -0.516750
v -0.444822 0.185742 -0.512614
v -0.444822 0.260835 -0.516750
v -0.444822 0.256698 -0.512614
v -0.444822 0.467229 -0.512614
v -0.444822 0.463093 -0.516750
v -0.444822 0.609143 -0.512614
v -0.444822 0.605006 -0.516750
v 0.444822 0.605006 -0.516750
v 0.444822 0.609143 -0.512614
v 0.444822 0.463093 -0.516750
v 0.444822 0.467229 -0.512614
v 0.444822 0.256698 -0.512614
v 0.444822 0.260835 -0.516750
v 0.444822 0.185742 -0.512614
v 0.444822 0.189878 -0.516750
v 0.444822 0.108308 -0.516750
v 0.444822 0.112445 -0.512614
v -0.444822 0.179525 -0.489624
v -0.444822 0.183401 -0.493500
v -0.444822 0.250482 -0.489624
v -0.444822 0.254358 -0.493500
v -0.444822 0.469569 -0.493500
v -0.444822 0.473445 -0.489624
v -0.444822 0.605267 -0.489624
v -0.444822 0.609143 -0.493500
v 0.444822 0.609143 -0.493500
v 0.444822 0.605267 -0.489624
v 0.444822 0.473445 -0.489624
v 0.444822 0.469569 -0.493500
v 0.444822 0.254358 -0.493500
v 0.444822 0.250482 -0.489624
v 0.444822 0.183401 -0.493500
v 0.444822 0.179525 -0.489624
v -0.463628 0.000000 0.524432
v 0.463629 0.000000 0.524432
v -0.463628 0.000000 -0.524432
v 0.463629 0.000000 -0.524432
v -0.463628 0.042658 0.524432
v 0.463629 0.042658 0.524432
v -0.463628 0.042658 -0.524432
v 0.463629 0.042658 -0.524432
v 0.561132 0.654137 0.537238
v 0.544849 0.627839 0.537238
v 0.000000 0.957466 0.537238
v 0.000000 0.984907 0.537238
v 0.000000 0.958609 0.554363
v 0.544849 0.627839 0.554363
v 0.000000 0.984907 0.554363
v 0.561132 0.654137 0.554363
v -0.561131 0.654137 0.537238
v -0.544848 0.627839 0.537238
v -0.544848 0.627839 0.554363
v -0.561131 0.654137 0.554363
v -0.202500 0.692514 0.516750
v 0.201221 0.692514 0.516750
v -0.202500 0.828755 0.516750
v 0.201221 0.828755 0.516750
v -0.202500 0.828755 0.532319
v -0.202500 0.692514 0.532319
v 0.201221 0.692514 0.532319
v 0.201221 0.828755 0.532319
v -0.015085 0.939911 -0.563223
v 0.015085 0.939911 -0.563223
v -0.015085 0.988073 -0.563223
v 0.015085 0.988073 -0.563223
v -0.015085 0.988073 0.563223
v -0.015085 0.939911 0.563223
v 0.015085 0.939911 0.563223
v 0.015085 0.988073 0.563223
vn -0.0000 1.0000 -0.0000
vn -1.0000 -0.0000 -0.0000
vn 1.0000 -0.0000 -0.0000
vn -0.0000 -1.0000 -0.0000
vn 0.7071 -0.7071 -0.0000
vn 0.7071 0.7071 -0.0000
vn -0.7071 0.7071 -0.0000
vn -0.7071 -0.7071 -0.0000
vn -0.0000 -0.0000 1.0000
vn -0.0000 -0.0000 -1.0000
vn -0.5189 -0.8548 -0.0000
vn 0.8548 -0.5189 -0.0000
vn 0.5112 0.8595 -0.0000
vn 0.3614 0.6078 0.7071
vn 0.3614 0.6078 -0.7071
vn 0.5189 -0.8548 -0.0000
vn -0.8548 -0.5189 -0.0000
vn -0.5112 0.8595 -0.0000
vn -0.3614 0.6078 0.7071
vn -0.3614 0.6078 -0.7071
vn 0.9365 -0.3506 -0.0000
vn -0.9365 -0.3506 -0.0000
vn -0.4166 -0.9091 -0.0000
vn 0.4166 -0.9091 -0.0000
vn -0.0000 -0.7071 0.7071
vn -0.0000 0.7071 0.7071
vn -0.0000 -0.7071 -0.7071
vn -0.0000 0.7071 -0.7071
vn 0.5078 0.8615 -0.0000
vn 0.8502 -0.5264 -0.0000
vn -0.5181 -0.8534 0.0569
vn -0.5078 0.8615 -0.0000
vn -0.8502 -0.5264 -0.0000
vn 0.5176 -0.8556 -0.0000
vn -0.5176 -0.8556 -0.0000
vn 0.5181 -0.8534 0.0569
vt 0.600624 0.907691
vt 0.600787 0.907691
vt 0.585472 0.865817
vt 0.585472 0.879044
vt 0.600581 0.859356
vt 0.600581 0.867301
vt 0.585113 0.879487
vt 0.585113 0.892493
vt 0.600624 0.875645
vt 0.600787 0.875645
vt 0.585113 0.906385
vt 0.585113 0.919390
vt 0.585113 0.919834
vt 0.585113 0.932839
vt 0.585113 0.919834
vt 0.600624 0.899879
vt 0.600787 0.899879
vt 0.600624 0.899879
vt 0.585113 0.946732
vt 0.585113 0.959737
vt 0.585400 0.905942
vt 0.585128 0.905942
vt 0.600753 0.899613
vt 0.600590 0.899613
vt 0.585472 0.906385
vt 0.585472 0.919390
vt 0.585400 0.946288
vt 0.585128 0.946288
vt 0.600753 0.916035
vt 0.600590 0.916035
vt 0.600796 0.907957
vt 0.600796 0.915769
vt 0.585472 0.973629
vt 0.585472 0.986856
vt 0.585113 0.973629
vt 0.585113 0.986856
vt 0.600787 0.923847
vt 0.600787 0.916035
vt 0.585128 0.879044
vt 0.585128 0.865817
vt 0.600787 0.867301
vt 0.600787 0.859356
vt 0.585456 0.892493
vt 0.585456 0.879487
vt 0.600787 0.883457
vt 0.585456 0.919390
vt 0.585456 0.906385
vt 0.585456 0.932839
vt 0.585456 0.919834
vt 0.585456 0.919834
vt 0.600787 0.899879
vt 0.585456 0.959737
vt 0.585456 0.946732
vt 0.600590 0.875379
vt 0.600590 0.867567
vt 0.585128 0.892936
vt 0.585128 0.919390
vt 0.585128 0.906385
vt 0.600590 0.891801
vt 0.600590 0.891801
vt 0.585128 0.933283
vt 0.585128 0.933283
vt 0.600590 0.915769
vt 0.600590 0.907957
vt 0.600590 0.923847
vt 0.585128 0.986856
vt 0.585128 0.973629
vt 0.585456 0.986856
vt 0.585456 0.973629
vt 0.600581 0.867301
vt 0.600753 0.875379
vt 0.600581 0.876290
vt 0.600581 0.882812
vt 0.600624 0.883457
vt 0.600581 0.900524
vt 0.600581 0.907046
vt 0.600581 0.916035
vt 0.600581 0.923202
vt 0.600796 0.867567
vt 0.585472 0.879044
vt 0.585472 0.892936
vt 0.600796 0.874734
vt 0.585472 0.904868
vt 0.600796 0.891801
vt 0.600796 0.891801
vt 0.585472 0.933283
vt 0.585472 0.933283
vt 0.600796 0.898968
vt 0.585472 0.945215
vt 0.600796 0.916680
vt 0.600796 0.923847
vt 0.600796 0.923847
vt 0.600624 0.923847
vt 0.600624 0.923847
vt 0.090059 0.919419
vt 0.093074 0.979080
vt 0.090059 0.980818
vt 0.093074 0.919419
vt 0.093273 0.919419
vt 0.090257 0.979080
vt 0.090257 0.919419
vt 0.093273 0.980818
vt 0.090059 0.980818
vt 0.093273 0.980818
vt 0.205958 0.584747
vt 0.209066 0.532366
vt 0.220297 0.570758
vt 0.223405 0.518377
vt 0.226593 0.561493
vt 0.229765 0.512067
vt 0.229701 0.509112
vt 0.220297 0.570758
vt 0.223470 0.521332
vt 0.220297 0.573713
vt 0.209130 0.535322
vt 0.215361 0.523102
vt 0.215426 0.526057
vt 0.205958 0.584747
vt 0.212253 0.575483
vt 0.226593 0.564448
vt 0.215413 0.525483
vt 0.223457 0.520758
vt 0.220297 0.572932
vt 0.205958 0.587703
vt 0.212253 0.578438
vt 0.205958 0.586921
vt 0.209118 0.534748
vt 0.212253 0.577657
vt 0.202850 0.532366
vt 0.217125 0.521332
vt 0.217190 0.518377
vt 0.223421 0.512067
vt 0.223485 0.509112
vt 0.223433 0.511493
vt 0.202786 0.535322
vt 0.217138 0.520758
vt 0.226593 0.563667
vt 0.202798 0.534748
vt 0.588297 0.962244
vt 0.583282 0.971062
vt 0.582313 0.962244
vt 0.585305 0.980496
vt 0.586291 0.980496
vt 0.585305 0.989468
vt 0.589211 0.952810
vt 0.581399 0.943779
vt 0.589211 0.943779
vt 0.601891 0.922756
vt 0.600083 0.928053
vt 0.601309 0.928053
vt 0.583661 0.872880
vt 0.586949 0.872880
vt 0.603042 0.866916
vt 0.598350 0.872341
vt 0.598350 0.866916
vt 0.601683 0.866916
vt 0.603042 0.872341
vt 0.603042 0.866916
vt 0.586949 0.887742
vt 0.589211 0.896773
vt 0.589211 0.887742
vt 0.586949 0.906113
vt 0.589211 0.906113
vt 0.586949 0.906421
vt 0.589211 0.915452
vt 0.589211 0.906421
vt 0.586949 0.897605
vt 0.589211 0.905589
vt 0.589211 0.897605
vt 0.586827 0.934131
vt 0.589211 0.934131
vt 0.586819 0.934439
vt 0.586628 0.942077
vt 0.589211 0.943471
vt 0.581399 0.897081
vt 0.589211 0.897081
vt 0.589211 0.924792
vt 0.581399 0.924792
vt 0.603042 0.883745
vt 0.598350 0.889170
vt 0.598350 0.883745
vt 0.589211 0.925100
vt 0.581399 0.934131
vt 0.581399 0.925100
vt 0.599501 0.922756
vt 0.584319 0.980496
vt 0.585305 0.989468
vt 0.609877 0.911040
vt 0.610730 0.916458
vt 0.608746 0.916458
vt 0.588330 0.961936
vt 0.581310 0.953118
vt 0.589299 0.953118
vt 0.581399 0.887742
vt 0.589211 0.887742
vt 0.602513 0.917090
vt 0.598297 0.911794
vt 0.598879 0.917090
vt 0.587328 0.971062
vt 0.581399 0.952810
vt 0.599501 0.922756
vt 0.589211 0.896773
vt 0.581399 0.896773
vt 0.586949 0.897081
vt 0.589211 0.897081
vt 0.603042 0.889355
vt 0.601683 0.894779
vt 0.601683 0.889355
vt 0.586949 0.929244
vt 0.581399 0.906113
vt 0.589211 0.915760
vt 0.581399 0.915760
vt 0.598350 0.905692
vt 0.603042 0.900574
vt 0.598350 0.900574
vt 0.603042 0.905999
vt 0.598350 0.905999
vt 0.601891 0.922756
vt 0.581399 0.878094
vt 0.589211 0.868909
vt 0.581399 0.868909
vt 0.582280 0.961936
vt 0.609598 0.911040
vt 0.589211 0.878094
vt 0.586949 0.878094
vt 0.589211 0.878094
vt 0.601683 0.872341
vt 0.586949 0.896773
vt 0.586949 0.915452
vt 0.603042 0.894779
vt 0.586426 0.943471
vt 0.583661 0.878403
vt 0.581402 0.878403
vt 0.583661 0.916284
vt 0.581402 0.924268
vt 0.583661 0.924268
vt 0.583661 0.897081
vt 0.581402 0.897081
vt 0.599709 0.883745
vt 0.598351 0.883745
vt 0.583661 0.924792
vt 0.581402 0.924792
vt 0.599709 0.894964
vt 0.598351 0.894964
vt 0.583791 0.934439
vt 0.581402 0.934439
vt 0.609464 0.907427
vt 0.608746 0.907427
vt 0.581399 0.877550
vt 0.589211 0.888286
vt 0.581399 0.888286
vt 0.598350 0.872034
vt 0.589211 0.897626
vt 0.581399 0.897626
vt 0.581399 0.896263
vt 0.589211 0.906113
vt 0.603042 0.889170
vt 0.589211 0.925610
vt 0.581399 0.925610
vt 0.581399 0.924247
vt 0.589211 0.934131
vt 0.598350 0.905672
vt 0.582371 0.962767
vt 0.587385 0.970539
vt 0.588239 0.962767
vt 0.586840 0.933608
vt 0.589211 0.868909
vt 0.581402 0.868909
vt 0.599782 0.900389
vt 0.598351 0.900389
vt 0.584184 0.943471
vt 0.581402 0.943471
vt 0.599709 0.877950
vt 0.598351 0.872526
vt 0.599709 0.872526
vt 0.583661 0.906113
vt 0.581402 0.906113
vt 0.583981 0.942077
vt 0.599709 0.897454
vt 0.583661 0.915760
vt 0.581402 0.915760
vt 0.601683 0.889669
vt 0.586949 0.925100
vt 0.598351 0.889170
vt 0.599709 0.889170
vt 0.583661 0.887434
vt 0.581402 0.887434
vt 0.599709 0.872840
vt 0.610011 0.907427
vt 0.610730 0.907427
vt 0.589211 0.925100
vt 0.598351 0.877950
vt 0.589211 0.934439
vt 0.603042 0.889669
vt 0.583661 0.878094
vt 0.581402 0.878094
vt 0.589211 0.933608
vt 0.586949 0.905589
vt 0.603095 0.911794
vt 0.583225 0.970539
vt 0.598351 0.872840
vt 0.581402 0.916284
vt 0.598333 0.912121
vt 0.603059 0.912121
vt 0.589211 0.877550
vt 0.589211 0.924247
vt 0.603042 0.905672
vt 0.603042 0.872341
vt 0.598201 0.808311
vt 0.606344 0.808311
vt 0.606344 0.808311
vt 0.589376 0.863294
vt 0.589376 0.868909
vt 0.581234 0.863294
vt 0.581234 0.868909
vt 0.589376 0.868909
vt 0.581234 0.868909
vt 0.117375 0.981121
vt 0.115631 0.903165
vt 0.115682 0.896407
vt 0.117375 0.981415
vt 0.117375 0.988174
vt 0.119118 0.903165
vt 0.119068 0.896407
vt 0.318375 0.990365
vt 0.319423 0.932287
vt 0.318375 0.932287
vt 0.319423 0.990365
vt 0.091274 0.980461
vt 0.092666 0.919624
vt 0.091274 0.919624
vt 0.092666 0.980461
vt 0.600787 0.923847
vt 0.585128 0.879044
vt 0.600787 0.867301
vt 0.600590 0.923847
vt 0.603042 0.905692
vt 0.603042 0.872034
vt 0.589211 0.896263
vt 0.598201 0.808311
s 0
usemtl Texture_Map
f 127/1/1 87/2/1 142/1/1
f 1/3/2 31/4/2 3/3/2
f 4/5/3 20/6/3 2/5/3
f 18/7/3 22/8/3 21/7/3
f 135/9/4 73/10/4 134/9/4
f 16/11/3 24/12/3 23/11/3
f 14/13/3 26/14/3 25/15/3
f 139/16/4 67/17/4 130/18/4
f 12/19/3 28/20/3 27/19/3
f 161/21/1 97/22/1 148/21/1
f 159/23/1 101/24/1 150/23/1
f 49/25/2 35/26/2 34/25/2
f 157/27/1 103/28/1 152/27/1
f 153/29/4 111/30/4 156/29/4
f 45/31/2 39/32/2 38/31/2
f 42/33/2 5/34/2 41/33/2
f 9/35/3 7/36/3 30/35/3
f 91/37/2 63/38/2 90/38/2
f 93/39/3 53/40/3 55/40/3
f 77/41/2 56/42/2 54/42/2
f 79/43/2 75/44/2 78/44/2
f 81/45/2 73/10/2 80/10/2
f 83/46/2 71/47/2 82/47/2
f 85/48/2 69/49/2 84/50/2
f 87/2/2 67/17/2 86/51/2
f 89/52/2 65/53/2 88/53/2
f 95/54/3 123/55/3 94/55/3
f 97/22/3 121/56/3 96/56/3
f 99/57/3 119/58/3 98/58/3
f 101/24/3 117/59/3 100/60/3
f 103/28/3 115/61/3 102/62/3
f 105/63/3 113/64/3 104/64/3
f 107/65/3 111/30/3 106/30/3
f 57/66/3 109/67/3 108/67/3
f 59/68/2 61/69/2 92/69/2
f 6/34/1 57/66/1 5/34/1
f 8/36/1 59/68/1 7/36/1
f 21/7/4 75/44/4 18/7/4
f 19/70/1 77/41/1 20/6/1
f 163/71/1 95/54/1 146/71/1
f 17/8/1 79/43/1 22/8/1
f 23/11/4 71/47/4 16/11/4
f 133/72/3 137/73/3 136/72/3
f 25/15/4 69/49/4 14/13/4
f 15/12/1 83/46/1 24/12/1
f 131/74/1 81/45/1 138/74/1
f 13/14/1 85/48/1 26/14/1
f 27/19/4 65/53/4 12/19/4
f 129/75/3 141/76/3 140/75/3
f 29/77/4 63/38/4 10/77/4
f 11/20/1 89/52/1 28/20/1
f 30/35/4 61/69/4 9/35/4
f 10/77/3 143/78/3 29/77/3
f 32/79/4 123/55/4 51/79/4
f 52/80/1 93/39/1 31/4/1
f 33/81/4 121/56/4 50/81/4
f 51/79/2 145/82/2 32/79/2
f 34/25/4 119/58/4 49/25/4
f 50/81/2 147/83/2 33/81/2
f 36/84/4 117/59/4 47/85/4
f 48/26/1 99/57/1 35/26/1
f 37/86/4 115/61/4 46/87/4
f 47/85/2 149/88/2 36/84/2
f 38/31/4 113/64/4 45/31/4
f 46/87/2 151/89/2 37/86/2
f 155/90/2 40/91/2 154/90/2
f 44/32/1 105/63/1 39/32/1
f 41/33/4 109/67/4 42/33/4
f 43/92/1 107/65/1 40/91/1
f 136/72/5 134/9/5 133/72/5
f 132/73/6 138/74/6 137/73/6
f 140/75/5 130/18/5 129/75/5
f 128/76/6 142/1/6 141/76/6
f 126/78/6 144/93/6 143/78/6
f 164/82/7 146/71/7 145/82/7
f 162/83/7 148/21/7 147/83/7
f 160/88/7 150/23/7 149/88/7
f 158/89/7 152/27/7 151/89/7
f 154/90/8 156/29/8 155/90/8
f 125/94/1 91/37/1 144/93/1
f 165/95/9 171/96/9 170/97/9
f 168/98/3 171/96/3 166/98/3
f 165/95/2 169/97/2 167/95/2
f 167/95/10 172/96/10 168/98/10
f 173/99/9 179/100/9 174/101/9
f 179/100/2 176/101/2 174/101/2
f 177/102/3 173/99/3 175/99/3
f 180/100/10 175/99/10 176/101/10
f 181/95/10 187/96/10 182/98/10
f 187/96/3 184/98/3 182/98/3
f 185/103/2 181/95/2 183/95/2
f 188/96/9 183/95/9 184/98/9
f 189/99/10 195/100/10 194/104/10
f 192/101/2 195/100/2 190/101/2
f 189/99/3 193/104/3 191/99/3
f 191/99/9 196/100/9 192/101/9
f 213/105/11 236/106/11 216/105/11
f 217/107/11 240/108/11 220/107/11
f 202/109/10 197/110/10 200/111/10
f 201/112/9 198/113/9 203/114/9
f 258/113/12 259/113/12 239/108/12
f 241/106/12 231/115/12 244/106/12
f 243/108/12 198/113/12 199/108/12
f 235/116/12 227/117/12 255/117/12
f 232/113/13 203/114/13 198/113/13
f 219/107/11 242/108/11 222/107/11
f 202/109/11 234/111/11 214/109/11
f 221/105/11 244/106/11 224/118/11
f 223/112/11 199/108/11 201/112/11
f 200/111/12 225/110/12 234/111/12
f 215/119/11 238/116/11 218/119/11
f 237/108/12 229/113/12 240/108/12
f 197/110/13 205/120/13 225/110/13
f 256/121/9 218/119/9 238/116/9
f 257/122/10 219/107/10 250/123/10
f 228/113/13 209/114/13 229/113/13
f 260/122/9 222/107/9 242/108/9
f 230/115/13 211/124/13 231/115/13
f 232/113/10 223/112/10 212/114/10
f 231/115/9 224/118/9 244/106/9
f 230/115/10 221/105/10 210/124/10
f 233/106/12 226/115/12 253/115/12
f 258/113/13 252/114/13 259/113/13
f 229/113/9 220/107/9 240/108/9
f 228/113/10 217/107/10 208/114/10
f 227/117/13 248/125/13 255/117/13
f 227/117/10 215/119/10 207/125/10
f 226/115/13 246/124/13 253/115/13
f 226/115/10 213/105/10 206/124/10
f 225/110/9 214/109/9 234/111/9
f 253/115/14 245/126/14 254/127/14
f 255/117/14 247/128/14 256/121/14
f 258/113/15 250/123/15 249/114/15
f 259/113/14 251/123/14 260/122/14
f 254/127/9 216/105/9 236/106/9
f 276/129/16 213/105/16 216/105/16
f 280/129/16 217/105/16 220/105/16
f 261/130/10 202/107/10 264/131/10
f 201/109/9 262/132/9 263/133/9
f 290/132/17 289/134/17 279/133/17
f 271/135/17 281/129/17 284/129/17
f 262/132/17 283/133/17 263/133/17
f 287/130/17 267/130/17 275/131/17
f 203/120/18 272/132/18 262/132/18
f 282/133/16 219/109/16 222/109/16
f 274/131/16 202/107/16 214/107/16
f 284/129/16 221/105/16 224/118/16
f 263/133/16 223/109/16 201/109/16
f 265/130/17 264/131/17 274/131/17
f 278/131/16 215/107/16 218/107/16
f 269/135/17 277/129/17 280/129/17
f 205/114/18 261/130/18 265/130/18
f 218/107/9 288/136/9 278/131/9
f 289/134/10 219/109/10 279/133/10
f 209/124/18 268/135/18 269/135/18
f 222/109/9 292/134/9 282/133/9
f 211/124/18 270/135/18 271/135/18
f 272/132/10 223/109/10 283/133/10
f 224/118/9 271/135/9 284/129/9
f 270/135/10 221/105/10 281/129/10
f 285/135/17 266/135/17 273/129/17
f 252/120/18 290/132/18 291/132/18
f 220/105/9 269/135/9 280/129/9
f 268/135/10 217/105/10 277/129/10
f 248/114/18 267/130/18 287/130/18
f 267/130/10 215/107/10 275/131/10
f 246/124/18 266/135/18 285/135/18
f 266/135/10 213/105/10 273/129/10
f 214/107/9 265/130/9 274/131/9
f 285/135/19 245/126/19 246/124/19
f 287/130/19 247/123/19 248/114/19
f 250/137/20 290/132/20 249/120/20
f 291/132/19 251/137/19 252/120/19
f 216/105/9 286/138/9 276/129/9
f 365/139/10 369/140/10 368/141/10
f 561/139/4 448/141/4 560/141/4
f 373/142/10 361/143/10 298/144/10
f 299/145/10 341/146/10 340/147/10
f 357/148/9 353/149/9 358/150/9
f 504/151/1 542/152/1 509/151/1
f 330/153/10 350/154/10 351/155/10
f 539/156/9 326/157/9 329/158/9
f 535/159/9 325/160/9 327/161/9
f 573/162/1 412/163/1 554/163/1
f 523/164/9 323/165/9 324/166/9
f 577/167/9 553/168/9 556/169/9
f 565/170/1 406/171/1 550/171/1
f 486/172/9 485/173/9 318/174/9
f 597/175/4 423/176/4 588/176/4
f 589/177/1 435/178/1 596/178/1
f 333/179/10 345/180/10 348/181/10
f 337/182/10 342/183/10 344/184/10
f 370/185/10 362/150/10 371/149/10
f 360/142/9 352/186/9 297/187/9
f 476/188/10 382/189/10 385/190/10
f 450/191/10 384/192/10 383/193/10
f 359/143/9 360/142/9 297/187/9
f 599/194/4 422/195/4 586/195/4
f 462/196/9 387/197/9 463/198/9
f 372/186/10 373/142/10 298/144/10
f 460/199/9 464/141/9 465/140/9
f 447/140/10 451/139/10 452/199/10
f 469/142/9 379/144/9 457/143/9
f 381/145/9 432/146/9 386/200/9
f 453/148/10 445/149/10 446/201/10
f 332/202/1 615/203/1 349/203/1
f 416/157/10 540/156/10 419/158/10
f 414/160/10 533/159/10 417/161/10
f 412/163/10 531/204/10 415/205/10
f 410/165/10 522/164/10 413/166/10
f 411/206/10 521/207/10 528/208/10
f 406/171/10 488/170/10 489/209/10
f 404/174/10 480/173/10 487/172/10
f 344/184/4 607/182/4 337/182/4
f 438/210/9 423/176/9 440/175/9
f 436/180/9 424/179/9 439/181/9
f 435/178/9 426/211/9 437/212/9
f 612/213/9 429/214/9 434/215/9
f 591/216/1 611/217/1 594/217/1
f 466/185/9 458/150/9 459/218/9
f 456/142/10 378/187/10 444/186/10
f 303/190/1 382/189/1 300/189/1
f 301/193/4 384/192/4 302/192/4
f 455/143/10 378/187/10 456/142/10
f 442/219/9 376/220/9 377/221/9
f 468/186/9 379/144/9 469/142/9
f 299/145/1 386/200/1 304/200/1
f 355/222/1 450/191/1 356/191/1
f 476/188/4 479/223/4 477/188/4
f 351/155/4 420/153/4 330/153/4
f 583/224/1 442/219/1 602/219/1
f 538/225/1 418/226/1 328/226/1
f 532/227/1 416/157/1 326/157/1
f 534/228/1 414/160/1 325/160/1
f 578/204/4 415/205/4 531/204/4
f 525/229/1 410/165/1 323/165/1
f 524/207/1 408/230/1 321/230/1
f 576/208/4 411/206/4 528/208/4
f 484/231/1 404/174/1 318/174/1
f 508/232/4 388/233/4 305/233/4
f 570/234/9 548/235/9 571/236/9
f 506/237/4 392/238/4 308/238/4
f 517/239/4 394/240/4 310/240/4
f 572/241/1 399/242/1 510/241/1
f 511/243/4 398/244/4 313/244/4
f 491/245/4 400/246/4 314/246/4
f 473/247/4 402/248/4 316/248/4
f 295/220/10 601/249/10 296/221/10
f 585/250/10 349/203/10 600/251/10
f 618/252/9 420/153/9 443/155/9
f 587/253/10 347/210/10 598/254/10
f 616/255/9 422/195/9 441/194/9
f 348/181/4 424/179/4 333/179/4
f 334/256/1 438/210/1 347/210/1
f 346/212/4 426/211/4 335/211/4
f 336/257/1 436/180/1 345/180/1
f 433/183/9 608/258/9 613/259/9
f 335/211/10 595/260/10 346/212/10
f 343/215/4 429/214/4 338/214/4
f 339/261/1 433/183/1 342/183/1
f 341/146/4 431/147/4 340/147/4
f 338/214/10 593/262/10 343/215/10
f 366/196/1 463/198/1 367/198/1
f 559/263/9 563/264/9 562/265/9
f 488/170/21 565/170/21 566/266/21
f 353/149/1 454/150/1 358/150/1
f 357/148/4 446/201/4 354/201/4
f 359/143/4 456/142/4 360/142/4
f 360/142/4 444/186/4 352/186/4
f 293/267/9 294/268/9 542/152/9
f 364/199/1 465/140/1 369/140/1
f 368/141/4 461/139/4 365/139/4
f 362/150/1 467/149/1 371/149/1
f 370/185/4 459/218/4 363/218/4
f 372/186/4 469/142/4 373/142/4
f 373/142/4 457/143/4 361/143/4
f 492/269/1 401/270/1 494/269/1
f 470/271/1 403/272/1 471/271/1
f 500/273/10 390/274/10 498/275/10
f 515/276/1 395/277/1 518/276/1
f 475/278/22 493/245/22 491/245/22
f 496/279/22 494/269/22 495/279/22
f 569/280/4 396/281/4 546/281/4
f 530/227/3 539/156/3 540/156/3
f 536/228/3 535/159/3 533/159/3
f 521/207/3 524/207/3 575/282/3
f 490/209/3 527/283/3 489/209/3
f 523/164/3 526/229/3 525/229/3
f 541/152/3 538/225/3 542/152/3
f 517/239/9 312/284/9 516/285/9
f 507/286/1 391/287/1 505/286/1
f 474/278/10 471/271/10 403/272/10
f 485/173/21 487/172/21 480/173/21
f 568/288/2 500/273/2 498/275/2
f 496/279/9 313/244/9 315/270/9
f 541/152/10 504/151/10 375/268/10
f 483/289/4 405/290/4 482/289/4
f 514/285/10 394/240/10 519/239/10
f 557/140/1 452/199/1 564/199/1
f 529/283/4 409/291/4 527/283/4
f 497/237/10 395/277/10 392/238/10
f 499/273/1 393/292/1 500/273/1
f 495/279/10 401/270/10 398/244/10
f 486/172/4 407/293/4 487/172/4
f 539/156/4 419/158/4 540/156/4
f 552/294/9 524/207/9 321/230/9
f 567/275/4 390/274/4 544/274/4
f 516/285/1 397/284/1 514/285/1
f 535/159/4 417/161/4 533/159/4
f 478/223/23 473/247/23 479/223/23
f 475/278/23 471/271/23 474/278/23
f 477/188/24 482/289/24 476/188/24
f 485/173/24 481/231/24 484/231/24
f 508/232/9 307/287/9 507/286/9
f 302/192/9 356/191/9 301/193/9
f 506/237/9 311/277/9 515/276/9
f 502/295/1 389/296/1 503/295/1
f 523/164/4 413/166/4 522/164/4
f 505/286/10 388/233/10 501/232/10
f 490/209/9 566/266/9 549/297/9
f 507/286/2 501/232/2 508/232/2
f 512/280/2 571/236/2 510/241/2
f 515/276/2 497/237/2 506/237/2
f 574/298/3 577/167/3 520/162/3
f 496/279/2 513/243/2 511/243/2
f 519/239/2 516/285/2 514/285/2
f 509/151/2 503/295/2 504/151/2
f 510/241/10 396/281/10 512/280/10
f 491/245/9 314/246/9 317/272/9
f 581/197/4 380/299/4 580/299/4
f 300/189/9 483/289/9 477/188/9
f 556/169/25 578/204/25 577/167/25
f 552/294/25 576/208/25 575/282/25
f 548/235/26 572/241/26 571/236/26
f 562/265/25 560/141/25 559/263/25
f 558/300/26 564/199/26 563/264/26
f 574/298/26 554/163/26 553/168/26
f 566/266/26 550/171/26 549/297/26
f 568/288/25 544/274/25 543/301/25
f 570/234/25 546/281/25 545/302/25
f 568/288/9 309/292/9 499/273/9
f 582/303/27 580/299/27 579/304/27
f 584/305/28 602/219/28 601/249/28
f 600/251/27 586/195/27 585/250/27
f 598/254/27 588/176/27 587/253/27
f 590/306/28 596/178/28 595/260/28
f 592/307/28 594/217/28 593/262/28
f 579/304/10 367/198/10 582/303/10
f 604/308/26 618/252/26 617/154/26
f 606/202/26 616/255/26 615/203/26
f 614/184/25 608/258/25 607/182/25
f 610/216/26 612/213/26 611/217/26
f 331/308/1 617/154/1 350/154/1
f 624/309/1 625/310/1 623/311/1
f 619/312/2 625/313/2 621/312/2
f 622/314/3 624/315/3 620/314/3
f 620/314/9 623/316/9 619/312/9
f 621/312/10 626/317/10 622/314/10
f 629/318/10 627/319/10 628/320/10
f 631/321/9 634/319/9 633/322/9
f 630/322/29 634/319/29 627/319/29
f 627/319/30 632/320/30 628/320/30
f 629/318/31 632/320/31 631/321/31
f 629/318/10 635/323/10 630/322/10
f 631/321/9 638/323/9 637/324/9
f 638/323/32 630/322/32 635/323/32
f 637/324/33 635/323/33 636/324/33
f 629/318/34 637/324/34 636/324/34
f 641/325/10 640/326/10 639/327/10
f 645/326/9 643/325/9 644/327/9
f 640/326/4 644/327/4 639/327/4
f 642/328/3 645/326/3 640/326/3
f 639/327/2 643/325/2 641/325/2
f 641/325/1 646/328/1 642/328/1
f 649/329/10 648/330/10 647/331/10
f 653/330/9 651/329/9 652/331/9
f 650/332/3 653/330/3 648/330/3
f 647/331/2 651/329/2 649/329/2
f 649/329/1 654/332/1 650/332/1
f 648/330/4 652/331/4 647/331/4
f 127/1/1 66/2/1 87/2/1
f 1/3/2 52/80/2 31/4/2
f 4/5/3 19/70/3 20/6/3
f 18/7/3 17/8/3 22/8/3
f 135/9/4 80/10/4 73/10/4
f 16/11/3 15/12/3 24/12/3
f 14/13/3 13/14/3 26/14/3
f 139/16/4 86/51/4 67/17/4
f 12/19/3 11/20/3 28/20/3
f 161/21/1 120/22/1 97/22/1
f 159/23/1 116/24/1 101/24/1
f 49/25/2 48/26/2 35/26/2
f 157/27/1 114/28/1 103/28/1
f 153/29/4 106/30/4 111/30/4
f 45/31/2 44/32/2 39/32/2
f 42/33/2 6/34/2 5/34/2
f 9/35/3 8/36/3 7/36/3
f 91/37/2 62/333/2 63/38/2
f 93/39/3 124/334/3 53/40/3
f 77/41/2 76/335/2 56/42/2
f 79/43/2 74/43/2 75/44/2
f 81/45/2 72/45/2 73/10/2
f 83/46/2 70/46/2 71/47/2
f 85/48/2 68/48/2 69/49/2
f 87/2/2 66/2/2 67/17/2
f 89/52/2 64/52/2 65/53/2
f 95/54/3 122/54/3 123/55/3
f 97/22/3 120/22/3 121/56/3
f 99/57/3 118/57/3 119/58/3
f 101/24/3 116/24/3 117/59/3
f 103/28/3 114/28/3 115/61/3
f 105/63/3 112/63/3 113/64/3
f 107/65/3 110/336/3 111/30/3
f 57/66/3 58/66/3 109/67/3
f 59/68/2 60/68/2 61/69/2
f 6/34/1 58/66/1 57/66/1
f 8/36/1 60/68/1 59/68/1
f 21/7/4 78/44/4 75/44/4
f 19/70/1 76/335/1 77/41/1
f 163/71/1 122/54/1 95/54/1
f 17/8/1 74/43/1 79/43/1
f 23/11/4 82/47/4 71/47/4
f 133/72/3 132/73/3 137/73/3
f 25/15/4 84/50/4 69/49/4
f 15/12/1 70/46/1 83/46/1
f 131/74/1 72/45/1 81/45/1
f 13/14/1 68/48/1 85/48/1
f 27/19/4 88/53/4 65/53/4
f 129/75/3 128/76/3 141/76/3
f 29/77/4 90/38/4 63/38/4
f 11/20/1 64/52/1 89/52/1
f 30/35/4 92/69/4 61/69/4
f 10/77/3 126/78/3 143/78/3
f 32/79/4 94/55/4 123/55/4
f 52/80/1 124/334/1 93/39/1
f 33/81/4 96/56/4 121/56/4
f 51/79/2 164/82/2 145/82/2
f 34/25/4 98/58/4 119/58/4
f 50/81/2 162/83/2 147/83/2
f 36/84/4 100/60/4 117/59/4
f 48/26/1 118/57/1 99/57/1
f 37/86/4 102/62/4 115/61/4
f 47/85/2 160/88/2 149/88/2
f 38/31/4 104/64/4 113/64/4
f 46/87/2 158/89/2 151/89/2
f 155/90/2 43/92/2 40/91/2
f 44/32/1 112/63/1 105/63/1
f 41/33/4 108/67/4 109/67/4
f 43/92/1 110/336/1 107/65/1
f 136/72/5 135/9/5 134/9/5
f 132/73/6 131/74/6 138/74/6
f 140/75/5 139/16/5 130/18/5
f 128/76/6 127/1/6 142/1/6
f 126/78/6 125/94/6 144/93/6
f 164/82/7 163/71/7 146/71/7
f 162/83/7 161/21/7 148/21/7
f 160/88/7 159/23/7 150/23/7
f 158/89/7 157/27/7 152/27/7
f 154/90/8 153/29/8 156/29/8
f 125/94/1 62/333/1 91/37/1
f 165/95/9 166/98/9 171/96/9
f 168/98/3 172/96/3 171/96/3
f 165/95/2 170/97/2 169/97/2
f 167/95/10 169/97/10 172/96/10
f 173/99/9 178/102/9 179/100/9
f 179/100/2 180/100/2 176/101/2
f 177/102/3 178/102/3 173/99/3
f 180/100/10 177/102/10 175/99/10
f 181/95/10 186/103/10 187/96/10
f 187/96/3 188/96/3 184/98/3
f 185/103/2 186/103/2 181/95/2
f 188/96/9 185/103/9 183/95/9
f 189/99/10 190/101/10 195/100/10
f 192/101/2 196/100/2 195/100/2
f 189/99/3 194/104/3 193/104/3
f 191/99/9 193/104/9 196/100/9
f 213/105/11 233/106/11 236/106/11
f 217/107/11 237/108/11 240/108/11
f 202/109/10 204/120/10 197/110/10
f 201/112/9 199/108/9 198/113/9
f 260/122/12 242/108/12 259/113/12
f 242/108/12 239/108/12 259/113/12
f 239/108/12 257/122/12 258/113/12
f 241/106/12 230/115/12 231/115/12
f 243/108/12 232/113/12 198/113/12
f 256/121/12 238/116/12 255/117/12
f 238/116/12 235/116/12 255/117/12
f 232/113/13 212/114/13 203/114/13
f 219/107/11 239/108/11 242/108/11
f 202/109/11 200/111/11 234/111/11
f 221/105/11 241/106/11 244/106/11
f 223/112/11 243/108/11 199/108/11
f 200/111/12 197/110/12 225/110/12
f 215/119/11 235/116/11 238/116/11
f 237/108/12 228/113/12 229/113/12
f 197/110/13 204/120/13 205/120/13
f 256/121/9 247/128/9 218/119/9
f 257/122/10 239/108/10 219/107/10
f 228/113/13 208/114/13 209/114/13
f 260/122/9 251/123/9 222/107/9
f 230/115/13 210/124/13 211/124/13
f 232/113/10 243/108/10 223/112/10
f 231/115/9 211/124/9 224/118/9
f 230/115/10 241/106/10 221/105/10
f 254/127/12 236/106/12 253/115/12
f 236/106/12 233/106/12 253/115/12
f 258/113/13 249/114/13 252/114/13
f 229/113/9 209/114/9 220/107/9
f 228/113/10 237/108/10 217/107/10
f 227/117/13 207/125/13 248/125/13
f 227/117/10 235/116/10 215/119/10
f 226/115/13 206/124/13 246/124/13
f 226/115/10 233/106/10 213/105/10
f 225/110/9 205/120/9 214/109/9
f 253/115/14 246/124/14 245/126/14
f 255/117/14 248/125/14 247/128/14
f 258/113/15 257/122/15 250/123/15
f 259/113/14 252/114/14 251/123/14
f 254/127/9 245/126/9 216/105/9
f 276/129/16 273/129/16 213/105/16
f 280/129/16 277/129/16 217/105/16
f 261/130/10 204/114/10 202/107/10
f 201/109/9 203/120/9 262/132/9
f 279/133/17 282/133/17 291/132/17
f 282/133/17 292/134/17 291/132/17
f 291/132/17 290/132/17 279/133/17
f 271/135/17 270/135/17 281/129/17
f 262/132/17 272/132/17 283/133/17
f 275/131/17 278/131/17 287/130/17
f 278/131/17 288/136/17 287/130/17
f 203/120/18 212/120/18 272/132/18
f 282/133/16 279/133/16 219/109/16
f 274/131/16 264/131/16 202/107/16
f 284/129/16 281/129/16 221/105/16
f 263/133/16 283/133/16 223/109/16
f 265/130/17 261/130/17 264/131/17
f 278/131/16 275/131/16 215/107/16
f 269/135/17 268/135/17 277/129/17
f 205/114/18 204/114/18 261/130/18
f 218/107/9 247/123/9 288/136/9
f 289/134/10 250/137/10 219/109/10
f 209/124/18 208/124/18 268/135/18
f 222/109/9 251/137/9 292/134/9
f 211/124/18 210/124/18 270/135/18
f 272/132/10 212/120/10 223/109/10
f 224/118/9 211/124/9 271/135/9
f 270/135/10 210/124/10 221/105/10
f 273/129/17 276/129/17 285/135/17
f 276/129/17 286/138/17 285/135/17
f 252/120/18 249/120/18 290/132/18
f 220/105/9 209/124/9 269/135/9
f 268/135/10 208/124/10 217/105/10
f 248/114/18 207/114/18 267/130/18
f 267/130/10 207/114/10 215/107/10
f 246/124/18 206/124/18 266/135/18
f 266/135/10 206/124/10 213/105/10
f 214/107/9 205/114/9 265/130/9
f 285/135/19 286/138/19 245/126/19
f 287/130/19 288/136/19 247/123/19
f 250/137/20 289/134/20 290/132/20
f 291/132/19 292/134/19 251/137/19
f 216/105/9 245/126/9 286/138/9
f 365/139/10 364/199/10 369/140/10
f 561/139/4 451/139/4 448/141/4
f 299/145/10 304/200/10 341/146/10
f 357/148/9 354/201/9 353/149/9
f 504/151/1 541/152/1 542/152/1
f 330/153/10 331/308/10 350/154/10
f 539/156/9 532/227/9 326/157/9
f 535/159/9 534/228/9 325/160/9
f 573/162/1 520/162/1 412/163/1
f 523/164/9 525/229/9 323/165/9
f 577/167/9 574/298/9 553/168/9
f 565/170/1 488/170/1 406/171/1
f 318/174/9 320/293/9 486/172/9
f 485/173/9 484/231/9 318/174/9
f 597/175/4 440/175/4 423/176/4
f 589/177/1 428/177/1 435/178/1
f 333/179/10 336/257/10 345/180/10
f 337/182/10 339/261/10 342/183/10
f 370/185/10 363/218/10 362/150/10
f 402/248/10 472/247/10 385/190/10
f 472/247/10 478/223/10 385/190/10
f 476/188/10 482/289/10 382/189/10
f 482/289/10 405/290/10 382/189/10
f 385/190/10 478/223/10 476/188/10
f 450/191/10 449/222/10 384/192/10
f 599/194/4 441/194/4 422/195/4
f 462/196/9 380/299/9 387/197/9
f 460/199/9 461/139/9 464/141/9
f 447/140/10 448/141/10 451/139/10
f 381/145/9 431/147/9 432/146/9
f 453/148/10 454/150/10 445/149/10
f 332/202/1 606/202/1 615/203/1
f 416/157/10 530/227/10 540/156/10
f 414/160/10 536/228/10 533/159/10
f 412/163/10 520/162/10 531/204/10
f 410/165/10 526/229/10 522/164/10
f 411/206/10 408/230/10 521/207/10
f 527/283/10 409/291/10 489/209/10
f 409/291/10 406/171/10 489/209/10
f 487/172/10 407/293/10 404/174/10
f 404/174/10 481/231/10 480/173/10
f 344/184/4 614/184/4 607/182/4
f 438/210/9 425/256/9 423/176/9
f 436/180/9 427/257/9 424/179/9
f 435/178/9 428/177/9 426/211/9
f 612/213/9 609/337/9 429/214/9
f 591/216/1 610/216/1 611/217/1
f 466/185/9 467/149/9 458/150/9
f 303/190/1 385/190/1 382/189/1
f 301/193/4 383/193/4 384/192/4
f 442/219/9 421/224/9 376/220/9
f 299/145/1 381/145/1 386/200/1
f 355/222/1 449/222/1 450/191/1
f 476/188/4 478/223/4 479/223/4
f 351/155/4 443/155/4 420/153/4
f 583/224/1 421/224/1 442/219/1
f 538/225/1 537/225/1 418/226/1
f 532/227/1 530/227/1 416/157/1
f 534/228/1 536/228/1 414/160/1
f 578/204/4 555/205/4 415/205/4
f 525/229/1 526/229/1 410/165/1
f 524/207/1 521/207/1 408/230/1
f 576/208/4 551/206/4 411/206/4
f 484/231/1 481/231/1 404/174/1
f 508/232/4 501/232/4 388/233/4
f 570/234/9 545/302/9 548/235/9
f 506/237/4 497/237/4 392/238/4
f 517/239/4 519/239/4 394/240/4
f 572/241/1 547/242/1 399/242/1
f 511/243/4 513/243/4 398/244/4
f 491/245/4 493/245/4 400/246/4
f 473/247/4 472/247/4 402/248/4
f 295/220/10 584/305/10 601/249/10
f 585/250/10 332/202/10 349/203/10
f 618/252/9 603/338/9 420/153/9
f 587/253/10 334/256/10 347/210/10
f 616/255/9 605/339/9 422/195/9
f 348/181/4 439/181/4 424/179/4
f 334/256/1 425/256/1 438/210/1
f 346/212/4 437/212/4 426/211/4
f 336/257/1 427/257/1 436/180/1
f 433/183/9 430/261/9 608/258/9
f 335/211/10 590/306/10 595/260/10
f 343/215/4 434/215/4 429/214/4
f 339/261/1 430/261/1 433/183/1
f 341/146/4 432/146/4 431/147/4
f 338/214/10 592/307/10 593/262/10
f 366/196/1 462/196/1 463/198/1
f 559/263/9 558/300/9 563/264/9
f 566/266/21 490/209/21 489/209/21
f 489/209/21 488/170/21 566/266/21
f 353/149/1 445/149/1 454/150/1
f 357/148/4 453/148/4 446/201/4
f 359/143/4 455/143/4 456/142/4
f 360/142/4 456/142/4 444/186/4
f 294/268/9 306/296/9 509/151/9
f 306/296/9 502/295/9 509/151/9
f 538/225/9 328/226/9 542/152/9
f 328/226/9 293/267/9 542/152/9
f 294/268/9 509/151/9 542/152/9
f 364/199/1 460/199/1 465/140/1
f 368/141/4 464/141/4 461/139/4
f 362/150/1 458/150/1 467/149/1
f 370/185/4 466/185/4 459/218/4
f 372/186/4 468/186/4 469/142/4
f 373/142/4 469/142/4 457/143/4
f 492/269/1 315/270/1 401/270/1
f 470/271/1 317/272/1 403/272/1
f 500/273/10 393/292/10 390/274/10
f 515/276/1 311/277/1 395/277/1
f 475/278/22 474/278/22 493/245/22
f 496/279/22 492/269/22 494/269/22
f 569/280/4 512/280/4 396/281/4
f 530/227/3 532/227/3 539/156/3
f 536/228/3 534/228/3 535/159/3
f 576/208/3 528/208/3 575/282/3
f 528/208/3 521/207/3 575/282/3
f 490/209/3 529/283/3 527/283/3
f 523/164/3 522/164/3 526/229/3
f 541/152/3 537/225/3 538/225/3
f 517/239/9 310/240/9 312/284/9
f 507/286/1 307/287/1 391/287/1
f 400/246/10 493/245/10 403/272/10
f 493/245/10 474/278/10 403/272/10
f 485/173/21 486/172/21 487/172/21
f 498/275/2 567/275/2 568/288/2
f 568/288/2 499/273/2 500/273/2
f 315/270/9 492/269/9 496/279/9
f 496/279/9 511/243/9 313/244/9
f 374/267/10 418/226/10 541/152/10
f 418/226/10 537/225/10 541/152/10
f 503/295/10 389/296/10 504/151/10
f 389/296/10 375/268/10 504/151/10
f 374/267/10 541/152/10 375/268/10
f 483/289/4 319/290/4 405/290/4
f 514/285/10 397/284/10 394/240/10
f 557/140/1 447/140/1 452/199/1
f 529/283/4 322/291/4 409/291/4
f 497/237/10 518/276/10 395/277/10
f 499/273/1 309/292/1 393/292/1
f 398/244/10 513/243/10 495/279/10
f 495/279/10 494/269/10 401/270/10
f 486/172/4 320/293/4 407/293/4
f 539/156/4 329/158/4 419/158/4
f 552/294/9 575/282/9 524/207/9
f 567/275/4 498/275/4 390/274/4
f 516/285/1 312/284/1 397/284/1
f 535/159/4 327/161/4 417/161/4
f 478/223/23 472/247/23 473/247/23
f 475/278/23 470/271/23 471/271/23
f 477/188/24 483/289/24 482/289/24
f 485/173/24 480/173/24 481/231/24
f 508/232/9 305/233/9 307/287/9
f 302/192/9 355/222/9 356/191/9
f 506/237/9 308/238/9 311/277/9
f 502/295/1 306/296/1 389/296/1
f 523/164/4 324/166/4 413/166/4
f 505/286/10 391/287/10 388/233/10
f 549/297/9 322/291/9 490/209/9
f 322/291/9 529/283/9 490/209/9
f 507/286/2 505/286/2 501/232/2
f 512/280/2 569/280/2 570/234/2
f 570/234/2 571/236/2 512/280/2
f 571/236/2 572/241/2 510/241/2
f 515/276/2 518/276/2 497/237/2
f 578/204/3 531/204/3 577/167/3
f 531/204/3 520/162/3 577/167/3
f 520/162/3 573/162/3 574/298/3
f 496/279/2 495/279/2 513/243/2
f 519/239/2 517/239/2 516/285/2
f 509/151/2 502/295/2 503/295/2
f 510/241/10 399/242/10 396/281/10
f 317/272/9 470/271/9 475/278/9
f 475/278/9 491/245/9 317/272/9
f 581/197/4 387/197/4 380/299/4
f 479/223/9 473/247/9 303/190/9
f 473/247/9 316/248/9 303/190/9
f 303/190/9 300/189/9 477/188/9
f 479/223/9 303/190/9 477/188/9
f 300/189/9 319/290/9 483/289/9
f 556/169/25 555/205/25 578/204/25
f 552/294/25 551/206/25 576/208/25
f 548/235/26 547/242/26 572/241/26
f 562/265/25 561/139/25 560/141/25
f 558/300/26 557/140/26 564/199/26
f 574/298/26 573/162/26 554/163/26
f 566/266/26 565/170/26 550/171/26
f 568/288/25 567/275/25 544/274/25
f 570/234/25 569/280/25 546/281/25
f 568/288/9 543/301/9 309/292/9
f 582/303/27 581/197/27 580/299/27
f 584/305/28 583/224/28 602/219/28
f 600/251/27 599/194/27 586/195/27
f 598/254/27 597/175/27 588/176/27
f 590/306/28 589/177/28 596/178/28
f 592/307/28 591/216/28 594/217/28
f 579/304/10 366/196/10 367/198/10
f 604/308/26 603/338/26 618/252/26
f 606/202/26 605/339/26 616/255/26
f 614/184/25 613/259/25 608/258/25
f 610/216/26 609/337/26 612/213/26
f 331/308/1 604/308/1 617/154/1
f 624/309/1 626/340/1 625/310/1
f 619/312/2 623/316/2 625/313/2
f 622/314/3 626/317/3 624/315/3
f 620/314/9 624/315/9 623/316/9
f 621/312/10 625/313/10 626/317/10
f 629/318/10 630/322/10 627/319/10
f 631/321/9 632/320/9 634/319/9
f 630/322/29 633/322/29 634/319/29
f 627/319/30 634/319/30 632/320/30
f 629/318/35 628/320/35 632/320/35
f 629/318/10 636/324/10 635/323/10
f 631/321/9 633/322/9 638/323/9
f 638/323/32 633/322/32 630/322/32
f 637/324/33 638/323/33 635/323/33
f 629/318/36 631/321/36 637/324/36
f 641/325/10 642/328/10 640/326/10
f 645/326/9 646/328/9 643/325/9
f 640/326/4 645/326/4 644/327/4
f 642/328/3 646/328/3 645/326/3
f 639/327/2 644/327/2 643/325/2
f 641/325/1 643/325/1 646/328/1
f 649/329/10 650/332/10 648/330/10
f 653/330/9 654/332/9 651/329/9
f 650/332/3 654/332/3 653/330/3
f 647/331/2 652/331/2 651/329/2
f 649/329/1 651/329/1 654/332/1
f 648/330/4 653/330/4 652/331/4
