# Blender 4.4.0
# www.blender.org
mtllib Bld_02_Fence_Wood_01.mtl
o Bld_02_Fence_Wood_01
v -2.517507 0.450478 0.029568
v -0.077507 0.450478 0.029568
v -2.517507 0.450478 -0.029568
v -0.077507 0.450478 -0.029568
v -2.517507 0.590389 -0.029568
v -2.517507 0.590389 0.029568
v -0.077507 0.590389 0.029568
v -0.077507 0.590389 -0.029568
v -2.517506 0.890390 0.029568
v -0.077507 0.890390 0.029568
v -2.517506 0.890390 -0.029568
v -0.077507 0.890390 -0.029568
v -2.517506 1.030301 -0.029568
v -2.517506 1.030301 0.029568
v -0.077507 1.030301 0.029568
v -0.077507 1.030301 -0.029568
v -2.517506 1.330301 0.029568
v -0.077507 1.330301 0.029568
v -2.517506 1.330301 -0.029568
v -0.077507 1.330301 -0.029568
v -2.517506 1.470213 -0.029568
v -2.517506 1.470213 0.029568
v -0.077507 1.470213 0.029568
v -0.077507 1.470213 -0.029568
vn -0.0000 -1.0000 -0.0000
vn -0.0000 -0.0000 1.0000
vn -0.0000 1.0000 -0.0000
vn -0.0000 -0.0000 -1.0000
vt 0.199916 0.904305
vt 0.199999 0.904305
vt 0.199916 0.905953
vt 0.199999 0.905953
vt 0.199916 0.909486
vt 0.199999 0.909486
vt 0.199916 0.911134
vt 0.199999 0.911134
vt 0.199916 0.914668
vt 0.199999 0.914668
vt 0.199916 0.916316
vt 0.199999 0.916316
s 0
usemtl Texture_Map
f 3/1/1 2/2/1 1/1/1
f 2/2/2 6/3/2 1/1/2
f 7/4/3 5/3/3 6/3/3
f 3/1/4 8/4/4 4/2/4
f 11/5/1 10/6/1 9/5/1
f 10/6/2 14/7/2 9/5/2
f 15/8/3 13/7/3 14/7/3
f 11/5/4 16/8/4 12/6/4
f 19/9/1 18/10/1 17/9/1
f 18/10/2 22/11/2 17/9/2
f 23/12/3 21/11/3 22/11/3
f 19/9/4 24/12/4 20/10/4
f 3/1/1 4/2/1 2/2/1
f 2/2/2 7/4/2 6/3/2
f 7/4/3 8/4/3 5/3/3
f 3/1/4 5/3/4 8/4/4
f 11/5/1 12/6/1 10/6/1
f 10/6/2 15/8/2 14/7/2
f 15/8/3 16/8/3 13/7/3
f 11/5/4 13/7/4 16/8/4
f 19/9/1 20/10/1 18/10/1
f 18/10/2 23/12/2 22/11/2
f 23/12/3 24/12/3 21/11/3
f 19/9/4 21/11/4 24/12/4
