# Blender 4.4.0
# www.blender.org
mtllib Bld_02_Fence_Wood_Gate_Double_Handle_01.mtl
o Bld_02_Fence_Wood_Gate_Double_Left_01
v -2.377143 0.450478 0.029569
v -1.437865 0.450478 0.029569
v -2.377143 0.450478 -0.029568
v -1.437865 0.450478 -0.029568
v -2.377143 0.590389 -0.029568
v -2.377143 0.590389 0.029569
v -1.437865 0.590389 0.029569
v -1.437865 0.590389 -0.029568
v -2.377143 0.890389 0.029569
v -1.437865 0.890389 0.029569
v -2.377143 0.890389 -0.029568
v -1.437865 0.890389 -0.029568
v -2.377143 1.030301 -0.029568
v -2.377143 1.030301 0.029569
v -1.437865 1.030301 0.029569
v -1.437865 1.030301 -0.029568
v -2.377143 1.330301 0.029569
v -1.437865 1.330301 0.029569
v -2.377143 1.330301 -0.029568
v -1.437865 1.330301 -0.029568
v -2.377143 1.470213 -0.029568
v -2.377143 1.470213 0.029569
v -1.437865 1.470213 0.029569
v -1.437865 1.470213 -0.029568
v -2.517505 0.111273 -0.070180
v -2.377144 0.111273 -0.070180
v -2.517505 0.111273 0.070181
v -2.377144 0.111273 0.070181
v -2.517505 1.489359 0.070181
v -2.517505 1.489359 -0.070180
v -2.377144 1.489359 -0.070180
v -2.377144 1.489359 0.070181
v -1.437865 0.111273 -0.070180
v -1.301496 0.111273 -0.070180
v -1.437865 0.111273 0.070181
v -1.301496 0.111273 0.070181
v -1.437865 1.489359 0.070181
v -1.437865 1.489359 -0.070180
v -1.301496 1.489359 -0.070180
v -1.301496 1.489359 0.070181
v -2.379591 0.383176 -0.029417
v -1.435537 1.266853 -0.029417
v -2.379591 0.383176 -0.065292
v -1.435537 1.266853 -0.065292
v -2.379591 0.572910 -0.065292
v -2.379591 0.572910 -0.029417
v -1.435537 1.459442 -0.029417
v -1.435537 1.459442 -0.065292
vn -0.0000 -1.0000 -0.0000
vn -0.0000 -0.0000 1.0000
vn -0.0000 1.0000 -0.0000
vn -0.0000 -0.0000 -1.0000
vn 1.0000 -0.0000 -0.0000
vn -1.0000 -0.0000 -0.0000
vn 0.6834 -0.7301 -0.0000
vn -0.6846 0.7290 -0.0000
vn -0.6845 0.7290 -0.0000
vt 0.200763 0.904305
vt 0.200795 0.904305
vt 0.200763 0.905953
vt 0.200795 0.905953
vt 0.200763 0.909486
vt 0.200795 0.909486
vt 0.200763 0.911134
vt 0.200795 0.911134
vt 0.200763 0.914668
vt 0.200795 0.914668
vt 0.200763 0.916316
vt 0.200795 0.916316
vt 0.206107 0.877628
vt 0.206102 0.877628
vt 0.206102 0.893860
vt 0.206107 0.893860
vt 0.206144 0.877628
vt 0.206139 0.877628
vt 0.206139 0.893860
vt 0.206144 0.893860
vt 0.200763 0.903512
vt 0.200795 0.913921
vt 0.200763 0.905747
vt 0.200795 0.916189
s 0
usemtl Texture_Map
f 3/1/1 2/2/1 1/1/1
f 2/2/2 6/3/2 1/1/2
f 7/4/3 5/3/3 6/3/3
f 3/1/4 8/4/4 4/2/4
f 11/5/1 10/6/1 9/5/1
f 10/6/2 14/7/2 9/5/2
f 15/8/3 13/7/3 14/7/3
f 11/5/4 16/8/4 12/6/4
f 19/9/1 18/10/1 17/9/1
f 18/10/2 22/11/2 17/9/2
f 23/12/3 21/11/3 22/11/3
f 19/9/4 24/12/4 20/10/4
f 26/13/1 27/14/1 25/14/1
f 30/15/4 26/13/4 25/14/4
f 29/15/3 31/16/3 30/15/3
f 31/16/5 28/13/5 26/13/5
f 32/16/2 27/14/2 28/13/2
f 27/14/6 30/15/6 25/14/6
f 34/17/1 35/18/1 33/18/1
f 38/19/4 34/17/4 33/18/4
f 37/19/3 39/20/3 38/19/3
f 39/20/5 36/17/5 34/17/5
f 40/20/2 35/18/2 36/17/2
f 35/18/6 38/19/6 33/18/6
f 43/21/7 42/22/7 41/21/7
f 42/22/2 46/23/2 41/21/2
f 47/24/8 45/23/8 46/23/8
f 44/22/4 45/23/4 48/24/4
f 3/1/1 4/2/1 2/2/1
f 2/2/2 7/4/2 6/3/2
f 7/4/3 8/4/3 5/3/3
f 3/1/4 5/3/4 8/4/4
f 11/5/1 12/6/1 10/6/1
f 10/6/2 15/8/2 14/7/2
f 15/8/3 16/8/3 13/7/3
f 11/5/4 13/7/4 16/8/4
f 19/9/1 20/10/1 18/10/1
f 18/10/2 23/12/2 22/11/2
f 23/12/3 24/12/3 21/11/3
f 19/9/4 21/11/4 24/12/4
f 26/13/1 28/13/1 27/14/1
f 30/15/4 31/16/4 26/13/4
f 29/15/3 32/16/3 31/16/3
f 31/16/5 32/16/5 28/13/5
f 32/16/2 29/15/2 27/14/2
f 27/14/6 29/15/6 30/15/6
f 34/17/1 36/17/1 35/18/1
f 38/19/4 39/20/4 34/17/4
f 37/19/3 40/20/3 39/20/3
f 39/20/5 40/20/5 36/17/5
f 40/20/2 37/19/2 35/18/2
f 35/18/6 37/19/6 38/19/6
f 43/21/7 44/22/7 42/22/7
f 42/22/2 47/24/2 46/23/2
f 47/24/9 48/24/9 45/23/9
f 44/22/4 43/21/4 45/23/4
o Bld_02_Fence_Wood_Gate_Double_Right_01
v -1.157140 0.450478 0.029569
v -0.217862 0.450478 0.029569
v -1.157140 0.450478 -0.029568
v -0.217862 0.450478 -0.029568
v -1.157140 0.590389 -0.029568
v -1.157140 0.590389 0.029569
v -0.217862 0.590389 0.029569
v -0.217862 0.590389 -0.029568
v -1.157140 0.890389 0.029569
v -0.217862 0.890389 0.029569
v -1.157140 0.890389 -0.029568
v -0.217862 0.890389 -0.029568
v -1.157140 1.030301 -0.029568
v -1.157140 1.030301 0.029569
v -0.217862 1.030301 0.029569
v -0.217862 1.030301 -0.029568
v -1.157140 1.330301 0.029569
v -0.217862 1.330301 0.029569
v -1.157140 1.330301 -0.029568
v -0.217862 1.330301 -0.029568
v -1.157140 1.470213 -0.029568
v -1.157140 1.470213 0.029569
v -0.217862 1.470213 0.029569
v -0.217862 1.470213 -0.029568
v -1.293470 0.111273 -0.070180
v -1.157141 0.111273 -0.070180
v -1.293470 0.111273 0.070181
v -1.157141 0.111273 0.070181
v -1.293470 1.489359 0.070181
v -1.293470 1.489359 -0.070180
v -1.157141 1.489359 -0.070180
v -1.157141 1.489359 0.070181
v -0.217862 0.111273 -0.070180
v -0.077500 0.111273 -0.070180
v -0.217862 0.111273 0.070181
v -0.077500 0.111273 0.070181
v -0.217862 1.489359 0.070181
v -0.217862 1.489359 -0.070180
v -0.077500 1.489359 -0.070180
v -0.077500 1.489359 0.070181
v -0.214705 0.382272 -0.030100
v -1.158758 1.265949 -0.030100
v -0.214705 0.382272 -0.065976
v -1.158758 1.265949 -0.065976
v -0.214705 0.572006 -0.065976
v -0.214705 0.572006 -0.030100
v -1.158758 1.458538 -0.030100
v -1.158758 1.458538 -0.065976
vn -0.0000 -1.0000 -0.0000
vn -0.0000 -0.0000 1.0000
vn -0.0000 1.0000 -0.0000
vn -0.0000 -0.0000 -1.0000
vn 1.0000 -0.0000 -0.0000
vn -1.0000 -0.0000 -0.0000
vn -0.6834 -0.7301 -0.0000
vn 0.6845 0.7290 -0.0000
vt 0.200804 0.904305
vt 0.200837 0.904305
vt 0.200804 0.905953
vt 0.200837 0.905953
vt 0.200804 0.909486
vt 0.200837 0.909486
vt 0.200804 0.911134
vt 0.200837 0.911134
vt 0.200804 0.914668
vt 0.200837 0.914668
vt 0.200804 0.916316
vt 0.200837 0.916316
vt 0.200804 0.877628
vt 0.200800 0.877628
vt 0.200800 0.893860
vt 0.200804 0.893860
vt 0.206186 0.877628
vt 0.206181 0.877628
vt 0.206181 0.893860
vt 0.206186 0.893860
vt 0.200804 0.913910
vt 0.200837 0.903502
vt 0.200837 0.905736
vt 0.200804 0.916178
s 0
usemtl Texture_Map
f 51/25/10 50/26/10 49/25/10
f 50/26/11 54/27/11 49/25/11
f 55/28/12 53/27/12 54/27/12
f 51/25/13 56/28/13 52/26/13
f 59/29/10 58/30/10 57/29/10
f 58/30/11 62/31/11 57/29/11
f 63/32/12 61/31/12 62/31/12
f 59/29/13 64/32/13 60/30/13
f 67/33/10 66/34/10 65/33/10
f 66/34/11 70/35/11 65/33/11
f 71/36/12 69/35/12 70/35/12
f 67/33/13 72/36/13 68/34/13
f 74/37/10 75/38/10 73/38/10
f 78/39/13 74/37/13 73/38/13
f 77/39/12 79/40/12 78/39/12
f 79/40/14 76/37/14 74/37/14
f 80/40/11 75/38/11 76/37/11
f 75/38/15 78/39/15 73/38/15
f 82/41/10 83/42/10 81/42/10
f 86/43/13 82/41/13 81/42/13
f 85/43/12 87/44/12 86/43/12
f 87/44/14 84/41/14 82/41/14
f 88/44/11 83/42/11 84/41/11
f 83/42/15 86/43/15 81/42/15
f 90/45/16 91/46/16 89/46/16
f 94/47/11 90/45/11 89/46/11
f 93/47/17 95/48/17 94/47/17
f 92/45/13 93/47/13 91/46/13
f 51/25/10 52/26/10 50/26/10
f 50/26/11 55/28/11 54/27/11
f 55/28/12 56/28/12 53/27/12
f 51/25/13 53/27/13 56/28/13
f 59/29/10 60/30/10 58/30/10
f 58/30/11 63/32/11 62/31/11
f 63/32/12 64/32/12 61/31/12
f 59/29/13 61/31/13 64/32/13
f 67/33/10 68/34/10 66/34/10
f 66/34/11 71/36/11 70/35/11
f 71/36/12 72/36/12 69/35/12
f 67/33/13 69/35/13 72/36/13
f 74/37/10 76/37/10 75/38/10
f 78/39/13 79/40/13 74/37/13
f 77/39/12 80/40/12 79/40/12
f 79/40/14 80/40/14 76/37/14
f 80/40/11 77/39/11 75/38/11
f 75/38/15 77/39/15 78/39/15
f 82/41/10 84/41/10 83/42/10
f 86/43/13 87/44/13 82/41/13
f 85/43/12 88/44/12 87/44/12
f 87/44/14 88/44/14 84/41/14
f 88/44/11 85/43/11 83/42/11
f 83/42/15 85/43/15 86/43/15
f 90/45/16 92/45/16 91/46/16
f 94/47/11 95/48/11 90/45/11
f 93/47/17 96/48/17 95/48/17
f 92/45/13 96/48/13 93/47/13
