# Blender 4.4.0
# www.blender.org
mtllib Bld_Beehive_03.mtl
o Bld_Beehive_03
v -0.135670 0.813488 -0.319618
v -0.321937 0.813488 -0.130071
v -0.319618 0.813488 0.135669
v -0.130071 0.813488 0.321936
v 0.135670 0.813488 0.319617
v 0.321937 0.813488 0.130071
v 0.319618 0.813488 -0.135670
v 0.130071 0.813488 -0.321937
v -0.321937 0.856080 -0.130071
v -0.135670 0.856080 -0.319618
v -0.319618 0.856080 0.135669
v -0.130071 0.856080 0.321936
v 0.135670 0.856080 0.319617
v 0.321937 0.856080 0.130071
v 0.319618 0.856080 -0.135670
v 0.130071 0.856080 -0.321937
v -0.000000 1.061802 -0.000000
v -0.005039 0.619708 0.259460
v 0.010162 0.619836 0.260705
v -0.015759 0.608857 0.259320
v -0.015717 0.593640 0.260368
v -0.004938 0.582971 0.261989
v 0.010264 0.583099 0.263235
v 0.020983 0.593949 0.263374
v 0.020941 0.609166 0.262327
v -0.086809 0.740942 0.296819
v 0.092034 0.740942 0.296819
v -0.086809 0.769583 0.296819
v 0.092034 0.769583 0.296819
v -0.086809 0.769583 0.310875
v -0.086809 0.740942 0.310875
v 0.092034 0.740942 0.310875
v 0.092034 0.769583 0.310875
v -0.126614 0.813488 -0.298287
v -0.300450 0.813488 -0.121391
v -0.298285 0.813488 0.126613
v -0.121389 0.813488 0.300448
v 0.126615 0.813488 0.298284
v 0.300450 0.813488 0.121388
v 0.298286 0.813488 -0.126616
v 0.121390 0.813488 -0.300451
v -0.121389 0.545603 0.300448
v 0.126615 0.545603 0.298284
v -0.300450 0.545603 -0.121391
v -0.298285 0.545603 0.126613
v 0.121390 0.545603 -0.300451
v -0.126614 0.545603 -0.298287
v 0.300450 0.545603 0.121388
v 0.298286 0.545603 -0.126616
v 0.020984 0.593949 0.299206
v 0.010264 0.583099 0.299299
v 0.020941 0.609166 0.299206
v -0.004938 0.582971 0.299432
v 0.010162 0.619836 0.299300
v -0.015717 0.593640 0.299526
v -0.005039 0.619708 0.299433
v -0.015759 0.608857 0.299527
v -0.015759 0.337870 0.299527
v -0.005039 0.348720 0.299433
v -0.015717 0.322652 0.299526
v 0.010162 0.348848 0.299300
v -0.004938 0.311983 0.299432
v 0.020941 0.338178 0.299206
v 0.010264 0.312111 0.299299
v 0.020984 0.322961 0.299206
v 0.298286 0.274615 -0.126616
v 0.300450 0.274615 0.121388
v -0.126614 0.274615 -0.298287
v 0.121390 0.274615 -0.300451
v -0.298285 0.274615 0.126613
v -0.300450 0.274615 -0.121391
v 0.126615 0.274615 0.298284
v -0.121389 0.274615 0.300448
v 0.121390 0.542500 -0.300451
v 0.298286 0.542500 -0.126616
v 0.300450 0.542500 0.121388
v 0.126615 0.542500 0.298284
v -0.121389 0.542500 0.300448
v -0.298285 0.542500 0.126613
v -0.300450 0.542500 -0.121391
v -0.126614 0.542500 -0.298287
v 0.092034 0.498595 0.310875
v 0.092034 0.469954 0.310875
v -0.086809 0.469954 0.310875
v -0.086809 0.498595 0.310875
v 0.092034 0.498595 0.296818
v -0.086809 0.498595 0.296819
v 0.092034 0.469954 0.296818
v -0.086809 0.469954 0.296819
v 0.020941 0.338178 0.262327
v 0.020984 0.322961 0.263374
v 0.010264 0.312111 0.263235
v -0.004938 0.311983 0.261989
v -0.015717 0.322652 0.260368
v -0.015759 0.337870 0.259320
v 0.010162 0.348848 0.260705
v -0.005039 0.348720 0.259460
v -0.015759 0.068433 0.299527
v -0.005039 0.079284 0.299433
v -0.015717 0.053216 0.299526
v 0.010162 0.079411 0.299300
v -0.004938 0.042546 0.299432
v 0.020941 0.068742 0.299206
v 0.010264 0.042674 0.299299
v 0.020984 0.053525 0.299206
v 0.298286 0.005179 -0.126616
v 0.300450 0.005179 0.121388
v -0.126614 0.005179 -0.298287
v 0.121390 0.005179 -0.300451
v -0.298285 0.005179 0.126613
v -0.300450 0.005179 -0.121391
v 0.126615 0.005179 0.298284
v -0.121389 0.005179 0.300448
v 0.121390 0.273064 -0.300451
v 0.298286 0.273064 -0.126616
v 0.300450 0.273064 0.121388
v 0.126615 0.273064 0.298284
v -0.121389 0.273064 0.300448
v -0.298285 0.273064 0.126613
v -0.300450 0.273064 -0.121391
v -0.126614 0.273064 -0.298287
v 0.092034 0.229159 0.310875
v 0.092034 0.200517 0.310875
v -0.086809 0.200517 0.310875
v -0.086809 0.229159 0.310875
v 0.092034 0.229159 0.296819
v -0.086809 0.229159 0.296819
v 0.092034 0.200517 0.296819
v -0.086809 0.200517 0.296819
v 0.020941 0.068742 0.262327
v 0.020984 0.053525 0.263374
v 0.010264 0.042674 0.263235
v -0.004938 0.042546 0.261989
v -0.015717 0.053216 0.260368
v -0.015759 0.068433 0.259320
v 0.010162 0.079411 0.260705
v -0.005039 0.079284 0.259460
vn 0.5398 0.8418 -0.0047
vn -0.7009 -0.0000 0.7133
vn -0.7133 -0.0000 -0.7009
vn -0.0087 -0.0000 -1.0000
vn 1.0000 -0.0000 -0.0087
vn 0.0087 -0.0000 1.0000
vn -1.0000 -0.0000 0.0087
vn 0.7009 -0.0000 -0.7132
vn 0.7133 -0.0000 0.7009
vn 0.0047 0.8418 0.5398
vn -0.5398 0.8418 0.0047
vn 0.3784 0.8418 -0.3850
vn 0.3850 0.8418 0.3784
vn -0.3784 0.8418 0.3850
vn -0.3850 0.8418 -0.3784
vn -0.0047 0.8418 -0.5398
vn -0.0820 0.0682 0.9943
vn -0.0000 -0.0000 1.0000
vn 1.0000 -0.0000 -0.0000
vn -1.0000 -0.0000 -0.0000
vn -0.0000 1.0000 -0.0000
vn -0.0000 -1.0000 -0.0000
vn 0.7009 -0.0000 -0.7133
vn -0.7114 0.7028 -0.0000
vn 0.7114 -0.7028 -0.0000
vn 0.0084 -1.0000 -0.0000
vn -0.7035 -0.7107 -0.0000
vn -1.0000 -0.0028 -0.0000
vn -0.0084 1.0000 -0.0000
vn 0.7035 0.7107 -0.0000
vn 1.0000 0.0028 -0.0000
vn -0.7009 -0.0000 0.7132
vn -0.7132 -0.0000 -0.7009
vt 0.470332 0.853683
vt 0.470288 0.853683
vt 0.464093 0.974801
vt 0.461572 0.828606
vt 0.457899 0.853683
vt 0.457899 0.828606
vt 0.457854 0.828606
vt 0.461464 0.853683
vt 0.461464 0.828606
vt 0.466614 0.853683
vt 0.466614 0.828606
vt 0.470288 0.828606
vt 0.470332 0.828606
vt 0.466723 0.828606
vt 0.461572 0.853683
vt 0.457854 0.853683
vt 0.466723 0.853683
vt 0.226358 0.815879
vt 0.226199 0.814707
vt 0.226265 0.811942
vt 0.483600 0.935841
vt 0.478400 0.982435
vt 0.478400 0.935841
vt 0.483600 0.982435
vt 0.202543 0.972815
vt 0.203354 0.994194
vt 0.203354 0.972815
vt 0.200608 0.972815
vt 0.201405 0.994194
vt 0.201405 0.972815
vt 0.200618 0.972815
vt 0.201429 0.994194
vt 0.200618 0.994194
vt 0.201963 0.978729
vt 0.202033 0.978739
vt 0.202543 0.994194
vt 0.200608 0.994194
vt 0.203364 0.972815
vt 0.202567 0.994194
vt 0.202567 0.972815
vt 0.201429 0.972815
vt 0.203364 0.994194
vt 0.226424 0.813114
vt 0.226358 0.811956
vt 0.226264 0.815865
vt 0.226424 0.814740
vt 0.202082 0.976673
vt 0.202033 0.975807
vt 0.226199 0.813082
vt 0.226962 0.812202
vt 0.226961 0.813827
vt 0.227028 0.811063
vt 0.227121 0.811076
vt 0.212765 0.897220
vt 0.212699 0.896061
vt 0.213413 0.892057
vt 0.227187 0.813860
vt 0.227187 0.812235
vt 0.227121 0.815000
vt 0.227027 0.814986
vt 0.214466 0.892057
vt 0.214480 0.920665
vt 0.214480 0.892057
vt 0.211859 0.920665
vt 0.210805 0.920665
vt 0.213413 0.920665
vt 0.213381 0.892057
vt 0.211891 0.892057
vt 0.210805 0.892057
vt 0.210792 0.920665
vt 0.210792 0.892057
vt 0.213381 0.920665
vt 0.212605 0.899970
vt 0.212698 0.899984
vt 0.211891 0.920665
vt 0.211859 0.892057
vt 0.214466 0.920665
vt 0.483600 0.938919
vt 0.478400 0.938919
vt 0.478400 0.985513
vt 0.483600 0.985513
vt 0.226552 0.812922
vt 0.226552 0.814547
vt 0.226618 0.811783
vt 0.226711 0.811796
vt 0.202115 0.907120
vt 0.202049 0.905962
vt 0.202763 0.901957
vt 0.226777 0.814580
vt 0.226777 0.812955
vt 0.226711 0.815720
vt 0.226617 0.815706
vt 0.203817 0.901957
vt 0.203830 0.930566
vt 0.203830 0.901957
vt 0.202731 0.930566
vt 0.201209 0.930566
vt 0.202763 0.930566
vt 0.200155 0.901957
vt 0.200142 0.930566
vt 0.200142 0.901957
vt 0.202731 0.901957
vt 0.201955 0.909871
vt 0.202048 0.909885
vt 0.201241 0.930566
vt 0.200155 0.930566
vt 0.201209 0.901957
vt 0.203817 0.930566
vt 0.483600 0.940661
vt 0.478400 0.940661
vt 0.478400 0.987256
vt 0.483600 0.987256
vt 0.201963 0.975797
vt 0.201914 0.976648
vt 0.201914 0.977863
vt 0.202082 0.977887
vt 0.212764 0.898845
vt 0.212605 0.896047
vt 0.212539 0.897187
vt 0.212539 0.898812
vt 0.202115 0.908745
vt 0.201956 0.905948
vt 0.201241 0.901957
vt 0.201890 0.907087
vt 0.201889 0.908713
s 0
usemtl Texture_Map
f 14/1/1 15/2/1 17/3/1
f 4/4/2 11/5/2 3/6/2
f 2/7/3 10/8/3 1/9/3
f 1/9/4 16/10/4 8/11/4
f 7/12/5 14/1/5 6/13/5
f 5/14/6 12/15/6 4/4/6
f 3/6/7 9/16/7 2/7/7
f 8/11/8 15/2/8 7/12/8
f 6/13/9 13/17/9 5/14/9
f 12/15/10 13/17/10 17/3/10
f 9/16/11 11/5/11 17/3/11
f 15/2/12 16/10/12 17/3/12
f 13/17/13 14/1/13 17/3/13
f 11/5/14 12/15/14 17/3/14
f 10/8/15 9/16/15 17/3/15
f 16/10/16 10/8/16 17/3/16
f 19/18/17 20/19/17 22/20/17
f 32/21/18 30/22/18 31/23/18
f 27/21/19 33/24/19 32/21/19
f 26/23/20 30/22/20 28/22/20
f 28/22/21 33/24/21 29/24/21
f 27/21/22 31/23/22 26/23/22
f 46/25/23 40/26/23 49/27/23
f 44/28/3 34/29/3 47/30/3
f 45/31/2 37/32/2 36/33/2
f 56/34/6 54/35/6 37/32/6
f 46/25/4 34/29/4 41/36/4
f 45/31/7 35/37/7 44/28/7
f 48/38/9 38/39/9 43/40/9
f 46/25/22 48/38/22 42/41/22
f 1/9/22 7/12/22 5/14/22
f 49/27/5 39/42/5 48/38/5
f 24/43/24 51/44/24 50/43/24
f 57/19/25 18/45/25 56/45/25
f 56/45/26 19/18/26 54/18/26
f 54/18/27 25/46/27 52/46/27
f 52/46/28 24/43/28 50/43/28
f 50/47/6 51/48/6 43/40/6
f 23/44/29 53/20/29 51/44/29
f 22/20/30 55/49/30 53/20/30
f 21/49/31 57/19/31 55/49/31
f 94/50/31 58/51/31 60/50/31
f 93/52/30 60/50/30 62/52/30
f 92/53/29 62/52/29 64/53/29
f 65/54/6 64/55/6 72/56/6
f 63/57/28 91/58/28 65/58/28
f 61/59/27 90/57/27 63/57/27
f 59/60/26 96/59/26 61/59/26
f 58/51/25 97/60/25 59/60/25
f 91/58/24 64/53/24 65/58/24
f 66/61/5 76/62/5 67/63/5
f 81/64/21 79/65/21 77/66/21
f 69/67/22 67/63/22 73/68/22
f 67/63/9 77/66/9 72/56/9
f 70/69/7 80/70/7 71/71/7
f 69/67/4 81/64/4 74/72/4
f 59/73/6 61/74/6 78/75/6
f 70/69/2 78/75/2 79/65/2
f 71/71/3 81/64/3 68/76/3
f 69/67/23 75/77/23 66/61/23
f 88/78/22 84/79/22 89/79/22
f 87/80/21 82/81/21 86/81/21
f 89/79/20 85/80/20 87/80/20
f 86/81/19 83/78/19 88/78/19
f 83/78/18 85/80/18 84/79/18
f 95/51/17 93/52/17 91/58/17
f 134/82/31 98/83/31 100/82/31
f 133/84/30 100/82/30 102/84/30
f 132/85/29 102/84/29 104/85/29
f 105/86/6 104/87/6 112/88/6
f 103/89/28 131/90/28 105/90/28
f 101/91/27 130/89/27 103/89/27
f 99/92/26 136/91/26 101/91/26
f 98/83/25 137/92/25 99/92/25
f 131/90/24 104/85/24 105/90/24
f 106/93/5 116/94/5 107/95/5
f 114/96/21 121/97/21 117/98/21
f 112/88/9 116/94/9 117/98/9
f 110/99/7 120/100/7 111/101/7
f 109/102/4 121/97/4 114/96/4
f 99/103/6 101/104/6 118/105/6
f 110/99/2 118/105/2 119/106/2
f 111/101/3 121/97/3 108/107/3
f 106/93/23 114/96/23 115/108/23
f 128/109/22 124/110/22 129/110/22
f 127/111/21 122/112/21 126/112/21
f 129/110/20 125/111/20 127/111/20
f 126/112/19 123/109/19 128/109/19
f 123/109/18 125/111/18 124/110/18
f 130/89/17 136/91/17 133/84/17
f 4/4/32 12/15/32 11/5/32
f 2/7/33 9/16/33 10/8/33
f 1/9/4 10/8/4 16/10/4
f 7/12/5 15/2/5 14/1/5
f 5/14/6 13/17/6 12/15/6
f 3/6/7 11/5/7 9/16/7
f 8/11/23 16/10/23 15/2/23
f 6/13/9 14/1/9 13/17/9
f 19/18/17 18/45/17 20/19/17
f 20/19/17 21/49/17 22/20/17
f 22/20/17 23/44/17 24/43/17
f 24/43/17 25/46/17 22/20/17
f 25/46/17 19/18/17 22/20/17
f 32/21/18 33/24/18 30/22/18
f 27/21/19 29/24/19 33/24/19
f 26/23/20 31/23/20 30/22/20
f 28/22/21 30/22/21 33/24/21
f 27/21/22 32/21/22 31/23/22
f 46/25/23 41/36/23 40/26/23
f 44/28/3 35/37/3 34/29/3
f 45/31/2 42/41/2 37/32/2
f 42/41/6 53/113/6 55/114/6
f 42/41/6 55/114/6 57/115/6
f 38/39/6 37/32/6 54/35/6
f 37/32/6 42/41/6 57/115/6
f 56/34/6 37/32/6 57/115/6
f 46/25/4 47/30/4 34/29/4
f 45/31/7 36/33/7 35/37/7
f 48/38/9 39/42/9 38/39/9
f 44/28/22 47/30/22 46/25/22
f 46/25/22 49/27/22 48/38/22
f 48/38/22 43/40/22 42/41/22
f 42/41/22 45/31/22 44/28/22
f 44/28/22 46/25/22 42/41/22
f 3/6/22 2/7/22 1/9/22
f 1/9/22 8/11/22 7/12/22
f 7/12/22 6/13/22 5/14/22
f 5/14/22 4/4/22 3/6/22
f 3/6/22 1/9/22 5/14/22
f 49/27/5 40/26/5 39/42/5
f 24/43/24 23/44/24 51/44/24
f 57/19/25 20/19/25 18/45/25
f 56/45/26 18/45/26 19/18/26
f 54/18/27 19/18/27 25/46/27
f 52/46/28 25/46/28 24/43/28
f 43/40/6 38/39/6 52/116/6
f 38/39/6 54/35/6 52/116/6
f 53/113/6 42/41/6 43/40/6
f 51/48/6 53/113/6 43/40/6
f 43/40/6 52/116/6 50/47/6
f 23/44/29 22/20/29 53/20/29
f 22/20/30 21/49/30 55/49/30
f 21/49/31 20/19/31 57/19/31
f 94/50/31 95/51/31 58/51/31
f 93/52/30 94/50/30 60/50/30
f 92/53/29 93/52/29 62/52/29
f 72/56/6 77/66/6 63/117/6
f 77/66/6 61/74/6 63/117/6
f 62/118/6 73/68/6 72/56/6
f 64/55/6 62/118/6 72/56/6
f 72/56/6 63/117/6 65/54/6
f 63/57/28 90/57/28 91/58/28
f 61/59/27 96/59/27 90/57/27
f 59/60/26 97/60/26 96/59/26
f 58/51/25 95/51/25 97/60/25
f 91/58/24 92/53/24 64/53/24
f 66/61/5 75/77/5 76/62/5
f 81/64/21 80/70/21 79/65/21
f 79/65/21 78/75/21 77/66/21
f 77/66/21 76/62/21 75/77/21
f 75/77/21 74/72/21 77/66/21
f 74/72/21 81/64/21 77/66/21
f 71/71/22 68/76/22 69/67/22
f 69/67/22 66/61/22 67/63/22
f 67/63/22 72/56/22 73/68/22
f 73/68/22 70/69/22 71/71/22
f 71/71/22 69/67/22 73/68/22
f 67/63/9 76/62/9 77/66/9
f 70/69/7 79/65/7 80/70/7
f 69/67/4 68/76/4 81/64/4
f 73/68/6 62/118/6 60/119/6
f 73/68/6 60/119/6 58/120/6
f 77/66/6 78/75/6 61/74/6
f 78/75/6 73/68/6 58/120/6
f 59/73/6 78/75/6 58/120/6
f 70/69/2 73/68/2 78/75/2
f 71/71/3 80/70/3 81/64/3
f 69/67/23 74/72/23 75/77/23
f 88/78/22 83/78/22 84/79/22
f 87/80/21 85/80/21 82/81/21
f 89/79/20 84/79/20 85/80/20
f 86/81/19 82/81/19 83/78/19
f 83/78/18 82/81/18 85/80/18
f 96/59/17 97/60/17 95/51/17
f 95/51/17 94/50/17 93/52/17
f 93/52/17 92/53/17 91/58/17
f 91/58/17 90/57/17 96/59/17
f 96/59/17 95/51/17 91/58/17
f 134/82/31 135/83/31 98/83/31
f 133/84/30 134/82/30 100/82/30
f 132/85/29 133/84/29 102/84/29
f 112/88/6 117/98/6 103/121/6
f 117/98/6 101/104/6 103/121/6
f 102/122/6 113/123/6 112/88/6
f 104/87/6 102/122/6 112/88/6
f 112/88/6 103/121/6 105/86/6
f 103/89/28 130/89/28 131/90/28
f 101/91/27 136/91/27 130/89/27
f 99/92/26 137/92/26 136/91/26
f 98/83/25 135/83/25 137/92/25
f 131/90/24 132/85/24 104/85/24
f 106/93/5 115/108/5 116/94/5
f 121/97/21 120/100/21 119/106/21
f 119/106/21 118/105/21 121/97/21
f 118/105/21 117/98/21 121/97/21
f 117/98/21 116/94/21 115/108/21
f 115/108/21 114/96/21 117/98/21
f 112/88/9 107/95/9 116/94/9
f 110/99/7 119/106/7 120/100/7
f 109/102/4 108/107/4 121/97/4
f 113/123/6 102/122/6 100/124/6
f 113/123/6 100/124/6 98/125/6
f 117/98/6 118/105/6 101/104/6
f 118/105/6 113/123/6 98/125/6
f 99/103/6 118/105/6 98/125/6
f 110/99/2 113/123/2 118/105/2
f 111/101/3 120/100/3 121/97/3
f 106/93/23 109/102/23 114/96/23
f 128/109/22 123/109/22 124/110/22
f 127/111/21 125/111/21 122/112/21
f 129/110/20 124/110/20 125/111/20
f 126/112/19 122/112/19 123/109/19
f 123/109/18 122/112/18 125/111/18
f 136/91/17 137/92/17 135/83/17
f 135/83/17 134/82/17 136/91/17
f 134/82/17 133/84/17 136/91/17
f 133/84/17 132/85/17 131/90/17
f 131/90/17 130/89/17 133/84/17
