# Blender 4.4.0
# www.blender.org
mtllib Bld_Power_Line_Joined_01.mtl
o Bld_Power_Line_Joined_01
v 0.043874 0.000000 -0.105922
v -0.043874 0.000000 -0.105922
v -0.105922 0.000000 -0.043874
v -0.105922 0.000000 0.043874
v -0.043874 0.000000 0.105922
v 0.043874 0.000000 0.105922
v 0.105922 0.000000 0.043874
v 0.105922 0.000000 -0.043874
v 0.043874 6.972692 -0.105922
v -0.043874 6.972692 -0.105922
v -0.105922 7.000000 -0.043874
v -0.105922 7.000000 0.043874
v -0.043874 6.972692 0.105922
v 0.043874 6.972692 0.105922
v 0.105922 7.000000 0.043874
v 0.105922 7.000000 -0.043874
v -1.076226 6.203822 0.105922
v 1.076226 6.203822 0.105922
v -1.076226 6.312783 0.105922
v 1.076226 6.312783 0.105922
v -1.076226 6.312783 0.190270
v -1.076226 6.203822 0.190270
v 1.076226 6.203822 0.190270
v 1.076226 6.312783 0.190270
v 0.225616 6.205986 0.125170
v 0.273173 6.205986 0.125170
v 0.225616 6.205986 0.107436
v 0.273173 6.205986 0.107436
v -0.030493 5.945112 0.125170
v -0.002441 5.920561 0.125170
v -0.030493 5.945112 0.107436
v -0.002441 5.920561 0.107436
v -0.225616 6.205986 0.121520
v -0.273173 6.205986 0.121520
v -0.225616 6.205986 0.108644
v -0.273173 6.205986 0.108644
v 0.002544 5.973581 0.121520
v -0.024108 5.948056 0.121520
v 0.002544 5.973581 0.108644
v -0.024108 5.948056 0.108644
v 0.483881 6.312783 0.135890
v 0.473769 6.312783 0.135890
v 0.466619 6.312783 0.143040
v 0.466619 6.312783 0.153152
v 0.473769 6.312783 0.160302
v 0.483881 6.312783 0.160302
v 0.491031 6.312783 0.153152
v 0.491031 6.312783 0.143040
v 0.483881 6.322144 0.135890
v 0.473769 6.322144 0.135890
v 0.466619 6.322144 0.143040
v 0.466619 6.322144 0.153152
v 0.473769 6.322144 0.160302
v 0.483881 6.322144 0.160302
v 0.491031 6.322144 0.153152
v 0.491031 6.322144 0.143040
v 0.482572 6.322144 0.139049
v 0.475078 6.322144 0.139049
v 0.469778 6.322144 0.144349
v 0.469778 6.322144 0.151843
v 0.475078 6.322144 0.157143
v 0.482572 6.322144 0.157143
v 0.487872 6.322144 0.151843
v 0.487872 6.322144 0.144349
v 0.482572 6.342025 0.139049
v 0.475078 6.342025 0.139049
v 0.469778 6.342025 0.144349
v 0.469778 6.342025 0.151843
v 0.475078 6.342025 0.157143
v 0.482572 6.342025 0.157143
v 0.487872 6.342025 0.151843
v 0.487872 6.342025 0.144349
v 0.497325 6.342025 0.103432
v 0.460324 6.342025 0.103432
v 0.434161 6.342025 0.129595
v 0.434161 6.342025 0.166597
v 0.460324 6.342025 0.192760
v 0.497325 6.342025 0.192760
v 0.523489 6.342025 0.166597
v 0.523489 6.342025 0.129595
v 0.436538 6.370254 0.165612
v 0.461309 6.370254 0.190383
v 0.461309 6.370254 0.105809
v 0.436538 6.370254 0.130580
v 0.521111 6.370254 0.165612
v 0.521111 6.370254 0.130580
v 0.496341 6.370254 0.190383
v 0.496341 6.370254 0.105809
v 0.488350 6.403782 0.125101
v 0.469300 6.403782 0.125101
v 0.455829 6.403782 0.138571
v 0.455829 6.403782 0.157621
v 0.469300 6.403782 0.171091
v 0.488350 6.403782 0.171091
v 0.501820 6.403782 0.157621
v 0.501820 6.403782 0.138571
v 0.942852 6.312783 0.135890
v 0.932739 6.312783 0.135890
v 0.925589 6.312783 0.143040
v 0.925589 6.312783 0.153152
v 0.932739 6.312783 0.160302
v 0.942852 6.312783 0.160302
v 0.950002 6.312783 0.153152
v 0.950002 6.312783 0.143040
v 0.942852 6.322144 0.135890
v 0.932739 6.322144 0.135890
v 0.925589 6.322144 0.143040
v 0.925589 6.322144 0.153152
v 0.932739 6.322144 0.160302
v 0.942852 6.322144 0.160302
v 0.950002 6.322144 0.153152
v 0.950002 6.322144 0.143040
v 0.941543 6.322144 0.139049
v 0.934048 6.322144 0.139049
v 0.928749 6.322144 0.144349
v 0.928749 6.322144 0.151843
v 0.934048 6.322144 0.157143
v 0.941543 6.322144 0.157143
v 0.946842 6.322144 0.151843
v 0.946842 6.322144 0.144349
v 0.941543 6.342025 0.139049
v 0.934048 6.342025 0.139049
v 0.928749 6.342025 0.144349
v 0.928749 6.342025 0.151843
v 0.934048 6.342025 0.157143
v 0.941543 6.342025 0.157143
v 0.946842 6.342025 0.151843
v 0.946842 6.342025 0.144349
v 0.956296 6.342025 0.103432
v 0.919295 6.342025 0.103432
v 0.893131 6.342025 0.129595
v 0.893131 6.342025 0.166597
v 0.919295 6.342025 0.192760
v 0.956296 6.342025 0.192760
v 0.982460 6.342025 0.166597
v 0.982460 6.342025 0.129595
v 0.895509 6.370254 0.165612
v 0.920280 6.370254 0.190383
v 0.920280 6.370254 0.105809
v 0.895509 6.370254 0.130580
v 0.980082 6.370254 0.165612
v 0.980082 6.370254 0.130580
v 0.955311 6.370254 0.190383
v 0.955311 6.370254 0.105809
v 0.947320 6.403782 0.125101
v 0.928270 6.403782 0.125101
v 0.914800 6.403782 0.138571
v 0.914800 6.403782 0.157621
v 0.928270 6.403782 0.171091
v 0.947320 6.403782 0.171091
v 0.960791 6.403782 0.157621
v 0.960791 6.403782 0.138571
v -0.483881 6.312783 0.135890
v -0.473769 6.312783 0.135890
v -0.466619 6.312783 0.143040
v -0.466619 6.312783 0.153152
v -0.473769 6.312783 0.160302
v -0.483881 6.312783 0.160302
v -0.491031 6.312783 0.153152
v -0.491031 6.312783 0.143040
v -0.483881 6.322144 0.135890
v -0.473769 6.322144 0.135890
v -0.466619 6.322144 0.143040
v -0.466619 6.322144 0.153152
v -0.473769 6.322144 0.160302
v -0.483881 6.322144 0.160302
v -0.491031 6.322144 0.153152
v -0.491031 6.322144 0.143040
v -0.482572 6.322144 0.139049
v -0.475078 6.322144 0.139049
v -0.469778 6.322144 0.144349
v -0.469778 6.322144 0.151843
v -0.475078 6.322144 0.157143
v -0.482572 6.322144 0.157143
v -0.487872 6.322144 0.151843
v -0.487872 6.322144 0.144349
v -0.482572 6.342025 0.139049
v -0.475078 6.342025 0.139049
v -0.469778 6.342025 0.144349
v -0.469778 6.342025 0.151843
v -0.475078 6.342025 0.157143
v -0.482572 6.342025 0.157143
v -0.487872 6.342025 0.151843
v -0.487872 6.342025 0.144349
v -0.497325 6.342025 0.103432
v -0.460324 6.342025 0.103432
v -0.434161 6.342025 0.129595
v -0.434161 6.342025 0.166597
v -0.460324 6.342025 0.192760
v -0.497325 6.342025 0.192760
v -0.523489 6.342025 0.166597
v -0.523489 6.342025 0.129595
v -0.436538 6.370254 0.165612
v -0.461309 6.370254 0.190383
v -0.461309 6.370254 0.105809
v -0.436538 6.370254 0.130580
v -0.521112 6.370254 0.165612
v -0.521112 6.370254 0.130580
v -0.496341 6.370254 0.190383
v -0.496341 6.370254 0.105809
v -0.488350 6.403782 0.125101
v -0.469300 6.403782 0.125101
v -0.455830 6.403782 0.138571
v -0.455830 6.403782 0.157621
v -0.469300 6.403782 0.171091
v -0.488350 6.403782 0.171091
v -0.501820 6.403782 0.157621
v -0.501820 6.403782 0.138571
v -0.942852 6.312783 0.135890
v -0.932740 6.312783 0.135890
v -0.925589 6.312783 0.143040
v -0.925589 6.312783 0.153152
v -0.932740 6.312783 0.160302
v -0.942852 6.312783 0.160302
v -0.950002 6.312783 0.153152
v -0.950002 6.312783 0.143040
v -0.942852 6.322144 0.135890
v -0.932740 6.322144 0.135890
v -0.925589 6.322144 0.143040
v -0.925589 6.322144 0.153152
v -0.932740 6.322144 0.160302
v -0.942852 6.322144 0.160302
v -0.950002 6.322144 0.153152
v -0.950002 6.322144 0.143040
v -0.941543 6.322144 0.139049
v -0.934048 6.322144 0.139049
v -0.928749 6.322144 0.144349
v -0.928749 6.322144 0.151843
v -0.934048 6.322144 0.157143
v -0.941543 6.322144 0.157143
v -0.946842 6.322144 0.151843
v -0.946842 6.322144 0.144349
v -0.941543 6.342025 0.139049
v -0.934048 6.342025 0.139049
v -0.928749 6.342025 0.144349
v -0.928749 6.342025 0.151843
v -0.934048 6.342025 0.157143
v -0.941543 6.342025 0.157143
v -0.946842 6.342025 0.151843
v -0.946842 6.342025 0.144349
v -0.956296 6.342025 0.103432
v -0.919295 6.342025 0.103432
v -0.893131 6.342025 0.129595
v -0.893131 6.342025 0.166597
v -0.919295 6.342025 0.192760
v -0.956296 6.342025 0.192760
v -0.982460 6.342025 0.166597
v -0.982460 6.342025 0.129595
v -0.895509 6.370254 0.165612
v -0.920280 6.370254 0.190383
v -0.920280 6.370254 0.105809
v -0.895509 6.370254 0.130580
v -0.980082 6.370254 0.165612
v -0.980082 6.370254 0.130580
v -0.955311 6.370254 0.190383
v -0.955311 6.370254 0.105809
v -0.947321 6.403782 0.125101
v -0.928270 6.403782 0.125101
v -0.914800 6.403782 0.138571
v -0.914800 6.403782 0.157621
v -0.928270 6.403782 0.171091
v -0.947321 6.403782 0.171091
v -0.960791 6.403782 0.157621
v -0.960791 6.403782 0.138571
v 0.937796 6.399687 15.335774
v 0.948796 6.388833 15.337558
v 0.937796 6.377978 15.339341
v 0.926796 6.388833 15.337558
v 0.937796 6.107853 13.559565
v 0.948796 6.096908 13.560659
v 0.937796 6.085962 13.561754
v 0.926796 6.096908 13.560659
v 0.937796 5.894686 7.742827
v 0.948796 5.883686 7.742827
v 0.937796 5.872686 7.742827
v 0.926796 5.883686 7.742827
v 0.937796 6.107853 1.926090
v 0.948796 6.096908 1.924994
v 0.937796 6.085962 1.923899
v 0.926796 6.096908 1.924994
v 0.937796 6.399687 0.149879
v 0.948796 6.388833 0.148096
v 0.937796 6.377978 0.146313
v 0.926796 6.388833 0.148096
v -0.937795 6.399687 15.335774
v -0.926795 6.388833 15.337558
v -0.937795 6.377978 15.339341
v -0.948795 6.388833 15.337558
v -0.937795 6.107853 13.559565
v -0.926795 6.096908 13.560659
v -0.937795 6.085962 13.561754
v -0.948795 6.096908 13.560659
v -0.937795 5.894686 7.742827
v -0.926795 5.883686 7.742827
v -0.937795 5.872686 7.742827
v -0.948795 5.883686 7.742827
v -0.937795 6.107853 1.926090
v -0.926795 6.096908 1.924994
v -0.937795 6.085962 1.923899
v -0.948795 6.096908 1.924994
v -0.937795 6.399687 0.149879
v -0.926795 6.388833 0.148096
v -0.937795 6.377978 0.146313
v -0.948795 6.388833 0.148096
v -0.478824 6.399687 15.335774
v -0.467824 6.388833 15.337558
v -0.478824 6.377978 15.339341
v -0.489824 6.388833 15.337558
v -0.478824 6.107853 13.559565
v -0.467824 6.096908 13.560659
v -0.478824 6.085962 13.561754
v -0.489824 6.096908 13.560659
v -0.478824 5.894686 7.742827
v -0.467824 5.883686 7.742827
v -0.478824 5.872686 7.742827
v -0.489824 5.883686 7.742827
v -0.478824 6.107853 1.926090
v -0.467824 6.096908 1.924994
v -0.478824 6.085962 1.923899
v -0.489824 6.096908 1.924994
v -0.478824 6.399687 0.149879
v -0.467824 6.388833 0.148096
v -0.478824 6.377978 0.146313
v -0.489824 6.388833 0.148096
v 0.478826 6.399687 15.335774
v 0.489826 6.388833 15.337558
v 0.478826 6.377978 15.339341
v 0.467826 6.388833 15.337558
v 0.478826 6.107853 13.559565
v 0.489826 6.096908 13.560659
v 0.478826 6.085962 13.561754
v 0.467826 6.096908 13.560659
v 0.478826 5.894686 7.742827
v 0.489826 5.883686 7.742827
v 0.478826 5.872686 7.742827
v 0.467826 5.883686 7.742827
v 0.478826 6.107853 1.926090
v 0.489826 6.096908 1.924994
v 0.478826 6.085962 1.923899
v 0.467826 6.096908 1.924994
v 0.478826 6.399687 0.149879
v 0.489826 6.388833 0.148096
v 0.478826 6.377978 0.146313
v 0.467826 6.388833 0.148096
vn -1.0000 -0.0000 -0.0000
vn -0.0000 -0.0000 -1.0000
vn 0.7071 -0.0000 -0.7071
vn 0.7071 -0.0000 0.7071
vn -0.7071 -0.0000 0.7071
vn -0.7071 -0.0000 -0.7071
vn 1.0000 -0.0000 -0.0000
vn -0.0000 -0.0000 1.0000
vn -0.2949 0.9477 -0.1222
vn -0.0000 1.0000 -0.0000
vn -0.0000 -1.0000 -0.0000
vn -0.6586 -0.7525 -0.0000
vn 0.7194 -0.6946 -0.0000
vn -0.7136 0.7006 -0.0000
vn -0.7194 -0.6946 -0.0000
vn 0.7136 0.7006 -0.0000
vn -0.0000 0.4987 0.8668
vn -0.8668 0.4987 -0.0000
vn 0.6129 0.4987 -0.6129
vn 0.6129 0.4987 0.6129
vn -0.6129 0.4987 0.6129
vn -0.6129 0.4987 -0.6129
vn -0.0000 0.4987 -0.8668
vn 0.8668 0.4987 -0.0000
vn 0.7046 0.0839 0.7046
vn 0.7046 0.0839 -0.7046
vn -0.0000 0.0839 -0.9965
vn -0.9965 0.0839 -0.0000
vn -0.0000 0.0839 0.9965
vn 0.9965 0.0839 -0.0000
vn -0.7046 0.0839 -0.7046
vn -0.7046 0.0839 0.7046
vn -0.7071 0.6977 -0.1146
vn 0.7071 0.6977 -0.1146
vn 0.7071 -0.6977 0.1146
vn -0.7071 -0.6977 0.1146
vn -0.7064 0.7073 -0.0259
vn 0.7064 0.7073 -0.0259
vn 0.7064 -0.7073 0.0259
vn -0.7064 -0.7073 0.0259
vn -0.7069 0.7069 0.0259
vn 0.7069 0.7069 0.0259
vn 0.7069 -0.7069 -0.0259
vn -0.7069 -0.7069 -0.0259
vn -0.7064 0.6984 0.1147
vn 0.7064 0.6985 0.1147
vn 0.7064 -0.6984 -0.1147
vn -0.7064 -0.6984 -0.1147
vn 0.7064 0.6984 0.1147
vn -0.7064 -0.6985 -0.1147
vn 0.7064 -0.6985 -0.1147
vn 0.4028 0.9153 -0.0000
vn -0.0000 0.9153 0.4028
vn -0.1793 0.9838 -0.0000
vn -0.0000 1.0000 -0.0001
vn -0.0000 1.0000 0.0001
vn -0.7064 0.6985 -0.1147
vn 0.7064 0.6985 -0.1147
vn 0.7064 -0.6985 0.1147
vn -0.7064 -0.6985 0.1147
vn -0.7069 0.7069 -0.0259
vn 0.7069 0.7069 -0.0259
vn 0.7069 -0.7069 0.0259
vn -0.7069 -0.7069 0.0259
vn -0.7064 0.7073 0.0259
vn 0.7064 0.7073 0.0259
vn 0.7064 -0.7073 -0.0259
vn -0.7064 -0.7073 -0.0259
vn -0.7071 0.6977 0.1146
vn 0.7071 0.6977 0.1146
vn 0.7071 -0.6977 -0.1146
vn -0.7071 -0.6977 -0.1146
vn -0.7064 0.6985 -0.1148
vt 0.080746 0.814891
vt 0.080746 0.917815
vt 0.081659 0.814891
vt 0.082949 0.917414
vt 0.082949 0.814891
vt 0.083861 0.814891
vt 0.083861 0.917815
vt 0.081659 0.917414
vt 0.102441 0.951852
vt 0.105531 0.938902
vt 0.102441 0.938902
vt 0.105531 0.951852
vt 0.103942 0.908154
vt 0.103983 0.905236
vt 0.104310 0.939159
vt 0.104378 0.939159
vt 0.103662 0.939159
vt 0.103951 0.908504
vt 0.103990 0.911538
vt 0.103594 0.939159
vt 0.580823 0.625107
vt 0.580822 0.630633
vt 0.580822 0.625107
vt 0.580822 0.625107
vt 0.580822 0.630633
vt 0.580823 0.630633
vt 0.580823 0.630633
vt 0.580823 0.625107
vt 0.580822 0.630633
vt 0.580822 0.642368
vt 0.580822 0.630633
vt 0.580823 0.642368
vt 0.580823 0.630633
vt 0.580823 0.642368
vt 0.580823 0.630633
vt 0.580822 0.642368
vt 0.580825 0.752211
vt 0.580821 0.752211
vt 0.580820 0.752211
vt 0.580823 0.768874
vt 0.580822 0.788665
vt 0.580821 0.768874
vt 0.580820 0.768874
vt 0.580821 0.788665
vt 0.580823 0.788665
vt 0.580825 0.768874
vt 0.580846 0.768874
vt 0.580848 0.788665
vt 0.580848 0.768874
vt 0.580824 0.788665
vt 0.580823 0.752211
vt 0.580848 0.625107
vt 0.580847 0.630633
vt 0.580847 0.625107
vt 0.580847 0.625107
vt 0.580847 0.630633
vt 0.580848 0.630633
vt 0.580848 0.630633
vt 0.580848 0.625107
vt 0.580847 0.630633
vt 0.580847 0.642368
vt 0.580847 0.630633
vt 0.580848 0.642368
vt 0.580848 0.630633
vt 0.580848 0.642368
vt 0.580848 0.630633
vt 0.580847 0.642368
vt 0.580845 0.752211
vt 0.580848 0.752211
vt 0.580850 0.752211
vt 0.580845 0.768874
vt 0.580846 0.788665
vt 0.580849 0.788665
vt 0.580850 0.768874
vt 0.580846 0.752211
vt 0.580771 0.630633
vt 0.580770 0.625107
vt 0.580771 0.625107
vt 0.580771 0.630633
vt 0.580771 0.625107
vt 0.580770 0.630633
vt 0.580770 0.630633
vt 0.580770 0.625107
vt 0.580771 0.642368
vt 0.580771 0.630633
vt 0.580770 0.642368
vt 0.580771 0.630633
vt 0.580770 0.630633
vt 0.580770 0.642368
vt 0.580770 0.630633
vt 0.580771 0.642368
vt 0.580768 0.752211
vt 0.580769 0.752211
vt 0.580769 0.768874
vt 0.580771 0.788665
vt 0.580770 0.788665
vt 0.580773 0.768874
vt 0.580772 0.788665
vt 0.580769 0.788665
vt 0.580768 0.768874
vt 0.580771 0.768874
vt 0.580745 0.768874
vt 0.580746 0.788665
vt 0.580746 0.768874
vt 0.580771 0.752211
vt 0.580773 0.752211
vt 0.580746 0.630633
vt 0.580745 0.625107
vt 0.580746 0.625107
vt 0.580746 0.630633
vt 0.580746 0.625107
vt 0.580745 0.630633
vt 0.580745 0.630633
vt 0.580745 0.625107
vt 0.580746 0.642368
vt 0.580746 0.630633
vt 0.580745 0.642368
vt 0.580746 0.630633
vt 0.580745 0.630633
vt 0.580745 0.642368
vt 0.580745 0.630633
vt 0.580746 0.642368
vt 0.580743 0.752211
vt 0.580745 0.752211
vt 0.580745 0.788665
vt 0.580748 0.768874
vt 0.580747 0.788665
vt 0.580744 0.788665
vt 0.580743 0.768874
vt 0.580747 0.752211
vt 0.580748 0.752211
vt 0.610687 0.657207
vt 0.610686 0.668391
vt 0.610687 0.668823
vt 0.610688 0.668391
vt 0.610687 0.667959
vt 0.610688 0.656771
vt 0.610686 0.656771
vt 0.610686 0.648284
vt 0.610688 0.648284
vt 0.610687 0.647846
vt 0.610687 0.656336
vt 0.610687 0.648722
vt 0.610688 0.656771
vt 0.610686 0.656771
vt 0.610686 0.668391
vt 0.610688 0.668391
vt 0.610687 0.667959
vt 0.610687 0.656336
vt 0.610514 0.657207
vt 0.610513 0.668391
vt 0.610514 0.668823
vt 0.610515 0.668391
vt 0.610514 0.667959
vt 0.610515 0.656771
vt 0.610513 0.656771
vt 0.610513 0.648284
vt 0.610515 0.648284
vt 0.610514 0.647846
vt 0.610514 0.656336
vt 0.610514 0.648722
vt 0.610515 0.656771
vt 0.610513 0.656771
vt 0.610513 0.668391
vt 0.610515 0.668391
vt 0.610514 0.667959
vt 0.610514 0.656336
vt 0.610556 0.657207
vt 0.610555 0.668391
vt 0.610556 0.668823
vt 0.610557 0.668391
vt 0.610556 0.667959
vt 0.610557 0.656771
vt 0.610555 0.656771
vt 0.610555 0.648284
vt 0.610557 0.648284
vt 0.610556 0.647846
vt 0.610556 0.656336
vt 0.610556 0.648722
vt 0.610557 0.656771
vt 0.610555 0.656771
vt 0.610555 0.668391
vt 0.610557 0.668391
vt 0.610556 0.667959
vt 0.610556 0.656336
vt 0.610644 0.657207
vt 0.610643 0.668391
vt 0.610644 0.668823
vt 0.610645 0.668391
vt 0.610644 0.667959
vt 0.610645 0.656771
vt 0.610643 0.656771
vt 0.610643 0.648284
vt 0.610645 0.648284
vt 0.610644 0.647846
vt 0.610644 0.656336
vt 0.610644 0.648722
vt 0.610645 0.656771
vt 0.610643 0.656771
vt 0.610643 0.668391
vt 0.610645 0.668391
vt 0.610644 0.667959
vt 0.610644 0.656336
vt 0.580847 0.788665
vt 0.610687 0.668823
vt 0.610514 0.668823
vt 0.610556 0.668823
vt 0.610644 0.668823
s 0
usemtl Texture_Map
f 4/1/1 11/2/1 3/1/1
f 2/3/2 9/4/2 1/5/2
f 8/6/3 9/4/3 16/7/3
f 7/6/4 14/4/4 6/5/4
f 4/1/5 13/8/5 12/2/5
f 3/1/6 10/8/6 2/3/6
f 8/6/7 15/7/7 7/6/7
f 6/5/8 13/8/8 5/3/8
f 16/7/9 9/4/9 13/8/9
f 19/9/2 18/10/2 17/11/2
f 23/10/8 21/9/8 22/11/8
f 19/9/1 22/11/1 21/9/1
f 19/9/10 24/12/10 20/12/10
f 18/10/11 22/11/11 17/11/11
f 20/12/7 23/10/7 18/10/7
f 29/13/12 32/14/12 30/14/12
f 25/15/8 30/14/8 26/16/8
f 30/14/13 28/16/13 26/16/13
f 31/13/14 25/15/14 27/15/14
f 32/14/2 27/15/2 28/16/2
f 33/17/8 38/18/8 37/19/8
f 36/20/15 38/18/15 34/20/15
f 33/17/16 39/19/16 35/17/16
f 35/17/2 40/18/2 36/20/2
f 46/21/8 53/22/8 45/23/8
f 44/24/1 51/25/1 43/24/1
f 42/23/2 49/26/2 41/21/2
f 41/21/3 56/27/3 48/28/3
f 47/28/4 54/26/4 46/21/4
f 45/23/5 52/25/5 44/24/5
f 43/24/6 50/22/6 42/23/6
f 48/28/7 55/27/7 47/28/7
f 55/27/10 56/27/10 49/26/10
f 60/29/1 67/30/1 59/29/1
f 58/31/2 65/32/2 57/33/2
f 57/33/3 72/34/3 64/35/3
f 63/35/4 70/32/4 62/33/4
f 61/31/5 68/30/5 60/29/5
f 59/29/6 66/36/6 58/31/6
f 64/35/7 71/34/7 63/35/7
f 62/33/8 69/36/8 61/31/8
f 79/37/11 77/38/11 75/39/11
f 87/40/17 93/41/17 82/42/17
f 81/43/18 91/44/18 84/43/18
f 89/45/19 86/46/19 88/40/19
f 85/46/20 94/45/20 87/40/20
f 93/41/21 81/43/21 82/42/21
f 84/43/22 90/41/22 83/42/22
f 139/47/23 145/48/23 144/49/23
f 96/50/24 85/46/24 86/46/24
f 79/37/25 87/40/25 78/51/25
f 80/37/26 88/40/26 86/46/26
f 73/51/27 83/42/27 88/40/27
f 76/39/28 84/43/28 75/39/28
f 78/51/29 82/42/29 77/38/29
f 80/37/30 85/46/30 79/37/30
f 74/38/31 84/43/31 83/42/31
f 77/38/32 81/43/32 76/39/32
f 93/41/10 95/50/10 89/45/10
f 102/52/8 109/53/8 101/54/8
f 100/55/1 107/56/1 99/55/1
f 98/54/2 105/57/2 97/52/2
f 97/52/3 112/58/3 104/59/3
f 103/59/4 110/57/4 102/52/4
f 101/54/5 108/56/5 100/55/5
f 99/55/6 106/53/6 98/54/6
f 104/59/7 111/58/7 103/59/7
f 111/58/10 112/58/10 105/57/10
f 116/60/1 123/61/1 115/60/1
f 114/62/2 121/63/2 113/64/2
f 113/64/3 128/65/3 120/66/3
f 119/66/4 126/63/4 118/64/4
f 117/62/5 124/61/5 116/60/5
f 115/60/6 122/67/6 114/62/6
f 120/66/7 127/65/7 119/66/7
f 118/64/8 125/67/8 117/62/8
f 131/68/11 129/69/11 135/70/11
f 150/48/17 138/47/17 143/49/17
f 137/71/18 147/72/18 140/71/18
f 144/49/19 152/73/19 142/74/19
f 151/73/20 143/49/20 141/74/20
f 138/47/21 148/72/21 137/71/21
f 147/72/22 139/47/22 140/71/22
f 152/73/24 141/74/24 142/74/24
f 135/70/25 143/49/25 134/69/25
f 136/70/26 144/49/26 142/74/26
f 129/69/27 139/47/27 144/49/27
f 132/68/28 140/71/28 131/68/28
f 134/69/29 138/47/29 133/75/29
f 136/70/30 141/74/30 135/70/30
f 130/75/31 140/71/31 139/47/31
f 133/75/32 137/71/32 132/68/32
f 151/73/10 152/73/10 145/48/10
f 90/41/23 88/40/23 83/42/23
f 165/76/8 158/77/8 157/78/8
f 163/79/7 156/80/7 155/80/7
f 161/81/2 154/78/2 153/77/2
f 168/82/6 153/77/6 160/83/6
f 166/81/5 159/83/5 158/77/5
f 164/79/4 157/78/4 156/80/4
f 162/76/3 155/80/3 154/78/3
f 167/82/1 160/83/1 159/83/1
f 161/81/10 167/82/10 165/76/10
f 179/84/7 172/85/7 171/85/7
f 177/86/2 170/87/2 169/88/2
f 184/89/6 169/88/6 176/90/6
f 182/86/5 175/90/5 174/88/5
f 180/84/4 173/87/4 172/85/4
f 178/91/3 171/85/3 170/87/3
f 183/89/1 176/90/1 175/90/1
f 181/91/8 174/88/8 173/87/8
f 191/92/11 192/92/11 185/93/11
f 199/94/17 205/95/17 206/96/17
f 193/97/24 203/98/24 204/98/24
f 200/94/22 208/99/22 201/96/22
f 199/94/21 207/99/21 197/100/21
f 193/97/20 205/95/20 194/101/20
f 196/97/19 202/95/19 203/98/19
f 256/102/23 258/103/23 251/104/23
f 197/100/18 208/99/18 198/100/18
f 199/94/32 191/92/32 190/93/32
f 192/92/31 200/94/31 185/93/31
f 200/94/27 186/105/27 185/93/27
f 196/97/30 188/106/30 187/106/30
f 194/101/29 190/93/29 189/105/29
f 197/100/28 192/92/28 191/92/28
f 186/105/26 196/97/26 187/106/26
f 193/97/25 189/105/25 188/106/25
f 204/98/10 203/98/10 207/99/10
f 221/107/8 214/108/8 213/109/8
f 219/110/7 212/111/7 211/111/7
f 217/112/2 210/109/2 209/108/2
f 224/113/6 209/108/6 216/114/6
f 222/112/5 215/114/5 214/108/5
f 220/110/4 213/109/4 212/111/4
f 218/107/3 211/111/3 210/109/3
f 223/113/1 216/114/1 215/114/1
f 223/113/10 221/107/10 219/110/10
f 235/115/7 228/116/7 227/116/7
f 233/117/2 226/118/2 225/119/2
f 240/120/6 225/119/6 232/121/6
f 238/117/5 231/121/5 230/119/5
f 236/115/4 229/118/4 228/116/4
f 234/122/3 227/116/3 226/118/3
f 239/120/1 232/121/1 231/121/1
f 237/122/8 230/119/8 229/118/8
f 247/123/11 248/123/11 241/124/11
f 250/104/17 262/125/17 255/102/17
f 249/126/24 259/127/24 260/127/24
f 256/102/22 264/128/22 257/125/22
f 255/102/21 263/128/21 253/129/21
f 250/104/20 260/127/20 261/103/20
f 251/104/19 259/127/19 252/126/19
f 253/129/18 264/128/18 254/129/18
f 255/102/32 247/123/32 246/124/32
f 248/123/31 256/102/31 241/124/31
f 256/102/27 242/130/27 241/124/27
f 252/126/30 244/131/30 243/131/30
f 250/104/29 246/124/29 245/130/29
f 253/129/28 248/123/28 247/123/28
f 251/104/26 243/131/26 242/130/26
f 244/131/25 250/104/25 245/130/25
f 263/128/10 261/103/10 259/127/10
f 200/94/23 202/95/23 195/101/23
f 269/132/33 268/133/33 265/134/33
f 266/135/34 269/132/34 265/134/34
f 267/136/35 270/137/35 266/135/35
f 272/138/36 267/136/36 268/133/36
f 269/132/37 276/139/37 272/138/37
f 274/140/38 269/132/38 270/137/38
f 275/141/39 270/137/39 271/142/39
f 272/138/40 275/141/40 271/142/40
f 277/132/41 276/139/41 273/143/41
f 274/140/42 277/132/42 273/143/42
f 275/141/43 278/144/43 274/140/43
f 280/145/44 275/141/44 276/139/44
f 277/132/45 284/146/45 280/145/45
f 282/147/46 277/132/46 278/144/46
f 283/148/47 278/144/47 279/149/47
f 280/145/48 283/148/48 279/149/48
f 289/150/33 288/151/33 285/152/33
f 286/153/34 289/150/34 285/152/34
f 287/154/35 290/155/35 286/153/35
f 292/156/36 287/154/36 288/151/36
f 289/150/37 296/157/37 292/156/37
f 294/158/38 289/150/38 290/155/38
f 295/159/39 290/155/39 291/160/39
f 292/156/40 295/159/40 291/160/40
f 297/150/41 296/157/41 293/161/41
f 294/158/42 297/150/42 293/161/42
f 295/159/43 298/162/43 294/158/43
f 300/163/44 295/159/44 296/157/44
f 297/150/45 304/164/45 300/163/45
f 302/165/49 297/150/49 298/162/49
f 303/166/47 298/162/47 299/167/47
f 300/163/50 303/166/50 299/167/50
f 309/168/33 308/169/33 305/170/33
f 306/171/34 309/168/34 305/170/34
f 307/172/35 310/173/35 306/171/35
f 312/174/36 307/172/36 308/169/36
f 309/168/37 316/175/37 312/174/37
f 314/176/38 309/168/38 310/173/38
f 315/177/39 310/173/39 311/178/39
f 312/174/40 315/177/40 311/178/40
f 317/168/41 316/175/41 313/179/41
f 314/176/42 317/168/42 313/179/42
f 315/177/43 318/180/43 314/176/43
f 320/181/44 315/177/44 316/175/44
f 317/168/45 324/182/45 320/181/45
f 322/183/49 317/168/49 318/180/49
f 323/184/51 318/180/51 319/185/51
f 320/181/50 323/184/50 319/185/50
f 329/186/33 328/187/33 325/188/33
f 326/189/34 329/186/34 325/188/34
f 327/190/35 330/191/35 326/189/35
f 332/192/36 327/190/36 328/187/36
f 329/186/37 336/193/37 332/192/37
f 334/194/38 329/186/38 330/191/38
f 335/195/39 330/191/39 331/196/39
f 332/192/40 335/195/40 331/196/40
f 337/186/41 336/193/41 333/197/41
f 334/194/42 337/186/42 333/197/42
f 335/195/43 338/198/43 334/194/43
f 340/199/44 335/195/44 336/193/44
f 337/186/45 344/200/45 340/199/45
f 342/201/49 337/186/49 338/198/49
f 343/202/51 338/198/51 339/203/51
f 340/199/50 343/202/50 339/203/50
f 4/1/1 12/2/1 11/2/1
f 2/3/2 10/8/2 9/4/2
f 8/6/3 1/5/3 9/4/3
f 7/6/4 15/7/4 14/4/4
f 4/1/5 5/3/5 13/8/5
f 3/1/6 11/2/6 10/8/6
f 8/6/7 16/7/7 15/7/7
f 6/5/8 14/4/8 13/8/8
f 9/4/10 10/8/10 13/8/10
f 10/8/52 11/2/52 13/8/52
f 11/2/52 12/2/52 13/8/52
f 13/8/53 14/4/53 15/7/53
f 15/7/54 16/7/54 13/8/54
f 19/9/2 20/12/2 18/10/2
f 23/10/8 24/12/8 21/9/8
f 19/9/1 17/11/1 22/11/1
f 19/9/10 21/9/10 24/12/10
f 18/10/11 23/10/11 22/11/11
f 20/12/7 24/12/7 23/10/7
f 29/13/12 31/13/12 32/14/12
f 25/15/8 29/13/8 30/14/8
f 30/14/13 32/14/13 28/16/13
f 31/13/14 29/13/14 25/15/14
f 32/14/2 31/13/2 27/15/2
f 33/17/8 34/20/8 38/18/8
f 36/20/15 40/18/15 38/18/15
f 33/17/16 37/19/16 39/19/16
f 35/17/2 39/19/2 40/18/2
f 46/21/8 54/26/8 53/22/8
f 44/24/1 52/25/1 51/25/1
f 42/23/2 50/22/2 49/26/2
f 41/21/3 49/26/3 56/27/3
f 47/28/4 55/27/4 54/26/4
f 45/23/5 53/22/5 52/25/5
f 43/24/6 51/25/6 50/22/6
f 48/28/7 56/27/7 55/27/7
f 49/26/10 50/22/10 53/22/10
f 50/22/10 51/25/10 53/22/10
f 51/25/10 52/25/10 53/22/10
f 53/22/10 54/26/10 49/26/10
f 54/26/10 55/27/10 49/26/10
f 60/29/1 68/30/1 67/30/1
f 58/31/2 66/36/2 65/32/2
f 57/33/3 65/32/3 72/34/3
f 63/35/4 71/34/4 70/32/4
f 61/31/5 69/36/5 68/30/5
f 59/29/6 67/30/6 66/36/6
f 64/35/7 72/34/7 71/34/7
f 62/33/8 70/32/8 69/36/8
f 75/39/11 74/38/11 79/37/11
f 74/38/11 73/51/11 79/37/11
f 73/51/11 80/37/11 79/37/11
f 79/37/11 78/51/11 77/38/11
f 77/38/11 76/39/11 75/39/11
f 87/40/17 94/45/17 93/41/17
f 81/43/18 92/44/18 91/44/18
f 89/45/19 96/50/19 86/46/19
f 85/46/20 95/50/20 94/45/20
f 93/41/21 92/44/21 81/43/21
f 84/43/22 91/44/22 90/41/22
f 139/47/23 146/204/23 145/48/23
f 96/50/24 95/50/24 85/46/24
f 79/37/25 85/46/25 87/40/25
f 80/37/26 73/51/26 88/40/26
f 73/51/27 74/38/27 83/42/27
f 76/39/28 81/43/28 84/43/28
f 78/51/29 87/40/29 82/42/29
f 80/37/30 86/46/30 85/46/30
f 74/38/31 75/39/31 84/43/31
f 77/38/32 82/42/32 81/43/32
f 89/45/10 90/41/10 93/41/10
f 90/41/10 91/44/10 93/41/10
f 91/44/10 92/44/10 93/41/10
f 93/41/55 94/45/55 95/50/55
f 95/50/10 96/50/10 89/45/10
f 102/52/8 110/57/8 109/53/8
f 100/55/1 108/56/1 107/56/1
f 98/54/2 106/53/2 105/57/2
f 97/52/3 105/57/3 112/58/3
f 103/59/4 111/58/4 110/57/4
f 101/54/5 109/53/5 108/56/5
f 99/55/6 107/56/6 106/53/6
f 104/59/7 112/58/7 111/58/7
f 105/57/10 106/53/10 109/53/10
f 106/53/10 107/56/10 109/53/10
f 107/56/10 108/56/10 109/53/10
f 109/53/10 110/57/10 105/57/10
f 110/57/10 111/58/10 105/57/10
f 116/60/1 124/61/1 123/61/1
f 114/62/2 122/67/2 121/63/2
f 113/64/3 121/63/3 128/65/3
f 119/66/4 127/65/4 126/63/4
f 117/62/5 125/67/5 124/61/5
f 115/60/6 123/61/6 122/67/6
f 120/66/7 128/65/7 127/65/7
f 118/64/8 126/63/8 125/67/8
f 131/68/11 130/75/11 129/69/11
f 129/69/11 136/70/11 135/70/11
f 135/70/11 134/69/11 131/68/11
f 134/69/11 133/75/11 131/68/11
f 133/75/11 132/68/11 131/68/11
f 150/48/17 149/204/17 138/47/17
f 137/71/18 148/72/18 147/72/18
f 144/49/19 145/48/19 152/73/19
f 151/73/20 150/48/20 143/49/20
f 138/47/21 149/204/21 148/72/21
f 147/72/22 146/204/22 139/47/22
f 152/73/24 151/73/24 141/74/24
f 135/70/25 141/74/25 143/49/25
f 136/70/26 129/69/26 144/49/26
f 129/69/27 130/75/27 139/47/27
f 132/68/28 137/71/28 140/71/28
f 134/69/29 143/49/29 138/47/29
f 136/70/30 142/74/30 141/74/30
f 130/75/31 131/68/31 140/71/31
f 133/75/32 138/47/32 137/71/32
f 145/48/56 146/204/56 147/72/56
f 147/72/10 148/72/10 145/48/10
f 148/72/10 149/204/10 145/48/10
f 149/204/10 150/48/10 145/48/10
f 150/48/10 151/73/10 145/48/10
f 90/41/23 89/45/23 88/40/23
f 165/76/8 166/81/8 158/77/8
f 163/79/7 164/79/7 156/80/7
f 161/81/2 162/76/2 154/78/2
f 168/82/6 161/81/6 153/77/6
f 166/81/5 167/82/5 159/83/5
f 164/79/4 165/76/4 157/78/4
f 162/76/3 163/79/3 155/80/3
f 167/82/1 168/82/1 160/83/1
f 163/79/10 162/76/10 161/81/10
f 161/81/10 168/82/10 167/82/10
f 167/82/10 166/81/10 165/76/10
f 165/76/10 164/79/10 163/79/10
f 163/79/10 161/81/10 165/76/10
f 179/84/7 180/84/7 172/85/7
f 177/86/2 178/91/2 170/87/2
f 184/89/6 177/86/6 169/88/6
f 182/86/5 183/89/5 175/90/5
f 180/84/4 181/91/4 173/87/4
f 178/91/3 179/84/3 171/85/3
f 183/89/1 184/89/1 176/90/1
f 181/91/8 182/86/8 174/88/8
f 185/93/11 186/105/11 189/105/11
f 186/105/11 187/106/11 189/105/11
f 187/106/11 188/106/11 189/105/11
f 189/105/11 190/93/11 185/93/11
f 190/93/11 191/92/11 185/93/11
f 199/94/17 194/101/17 205/95/17
f 193/97/24 196/97/24 203/98/24
f 200/94/22 198/100/22 208/99/22
f 199/94/21 206/96/21 207/99/21
f 193/97/20 204/98/20 205/95/20
f 196/97/19 195/101/19 202/95/19
f 256/102/23 257/125/23 258/103/23
f 197/100/18 207/99/18 208/99/18
f 199/94/32 197/100/32 191/92/32
f 192/92/31 198/100/31 200/94/31
f 200/94/27 195/101/27 186/105/27
f 196/97/30 193/97/30 188/106/30
f 194/101/29 199/94/29 190/93/29
f 197/100/28 198/100/28 192/92/28
f 186/105/26 195/101/26 196/97/26
f 193/97/25 194/101/25 189/105/25
f 203/98/56 202/95/56 201/96/56
f 201/96/55 208/99/55 203/98/55
f 208/99/10 207/99/10 203/98/10
f 207/99/10 206/96/10 205/95/10
f 205/95/10 204/98/10 207/99/10
f 221/107/8 222/112/8 214/108/8
f 219/110/7 220/110/7 212/111/7
f 217/112/2 218/107/2 210/109/2
f 224/113/6 217/112/6 209/108/6
f 222/112/5 223/113/5 215/114/5
f 220/110/4 221/107/4 213/109/4
f 218/107/3 219/110/3 211/111/3
f 223/113/1 224/113/1 216/114/1
f 219/110/56 218/107/56 223/113/56
f 218/107/10 217/112/10 223/113/10
f 217/112/10 224/113/10 223/113/10
f 223/113/10 222/112/10 221/107/10
f 221/107/10 220/110/10 219/110/10
f 235/115/7 236/115/7 228/116/7
f 233/117/2 234/122/2 226/118/2
f 240/120/6 233/117/6 225/119/6
f 238/117/5 239/120/5 231/121/5
f 236/115/4 237/122/4 229/118/4
f 234/122/3 235/115/3 227/116/3
f 239/120/1 240/120/1 232/121/1
f 237/122/8 238/117/8 230/119/8
f 241/124/11 242/130/11 243/131/11
f 243/131/11 244/131/11 241/124/11
f 244/131/11 245/130/11 241/124/11
f 245/130/11 246/124/11 241/124/11
f 246/124/11 247/123/11 241/124/11
f 250/104/17 261/103/17 262/125/17
f 249/126/24 252/126/24 259/127/24
f 256/102/22 254/129/22 264/128/22
f 255/102/21 262/125/21 263/128/21
f 250/104/20 249/126/20 260/127/20
f 251/104/19 258/103/19 259/127/19
f 253/129/18 263/128/18 264/128/18
f 255/102/32 253/129/32 247/123/32
f 248/123/31 254/129/31 256/102/31
f 256/102/27 251/104/27 242/130/27
f 252/126/30 249/126/30 244/131/30
f 250/104/29 255/102/29 246/124/29
f 253/129/28 254/129/28 248/123/28
f 251/104/26 252/126/26 243/131/26
f 244/131/25 249/126/25 250/104/25
f 259/127/10 258/103/10 263/128/10
f 258/103/10 257/125/10 263/128/10
f 257/125/10 264/128/10 263/128/10
f 263/128/10 262/125/10 261/103/10
f 261/103/10 260/127/10 259/127/10
f 200/94/23 201/96/23 202/95/23
f 269/132/57 272/138/57 268/133/57
f 266/135/58 270/137/58 269/132/58
f 267/136/59 271/142/59 270/137/59
f 272/138/60 271/142/60 267/136/60
f 269/132/61 273/143/61 276/139/61
f 274/140/62 273/143/62 269/132/62
f 275/141/63 274/140/63 270/137/63
f 272/138/64 276/139/64 275/141/64
f 277/132/65 280/145/65 276/139/65
f 274/140/66 278/144/66 277/132/66
f 275/141/67 279/149/67 278/144/67
f 280/145/68 279/149/68 275/141/68
f 277/132/69 281/205/69 284/146/69
f 282/147/70 281/205/70 277/132/70
f 283/148/71 282/147/71 278/144/71
f 280/145/72 284/146/72 283/148/72
f 289/150/73 292/156/73 288/151/73
f 286/153/58 290/155/58 289/150/58
f 287/154/59 291/160/59 290/155/59
f 292/156/60 291/160/60 287/154/60
f 289/150/61 293/161/61 296/157/61
f 294/158/62 293/161/62 289/150/62
f 295/159/63 294/158/63 290/155/63
f 292/156/64 296/157/64 295/159/64
f 297/150/65 300/163/65 296/157/65
f 294/158/66 298/162/66 297/150/66
f 295/159/67 299/167/67 298/162/67
f 300/163/68 299/167/68 295/159/68
f 297/150/69 301/206/69 304/164/69
f 302/165/70 301/206/70 297/150/70
f 303/166/71 302/165/71 298/162/71
f 300/163/72 304/164/72 303/166/72
f 309/168/57 312/174/57 308/169/57
f 306/171/58 310/173/58 309/168/58
f 307/172/59 311/178/59 310/173/59
f 312/174/60 311/178/60 307/172/60
f 309/168/61 313/179/61 316/175/61
f 314/176/62 313/179/62 309/168/62
f 315/177/63 314/176/63 310/173/63
f 312/174/64 316/175/64 315/177/64
f 317/168/65 320/181/65 316/175/65
f 314/176/66 318/180/66 317/168/66
f 315/177/67 319/185/67 318/180/67
f 320/181/68 319/185/68 315/177/68
f 317/168/69 321/207/69 324/182/69
f 322/183/70 321/207/70 317/168/70
f 323/184/71 322/183/71 318/180/71
f 320/181/72 324/182/72 323/184/72
f 329/186/57 332/192/57 328/187/57
f 326/189/58 330/191/58 329/186/58
f 327/190/59 331/196/59 330/191/59
f 332/192/60 331/196/60 327/190/60
f 329/186/61 333/197/61 336/193/61
f 334/194/62 333/197/62 329/186/62
f 335/195/63 334/194/63 330/191/63
f 332/192/64 336/193/64 335/195/64
f 337/186/65 340/199/65 336/193/65
f 334/194/66 338/198/66 337/186/66
f 335/195/67 339/203/67 338/198/67
f 340/199/68 339/203/68 335/195/68
f 337/186/69 341/208/69 344/200/69
f 342/201/70 341/208/70 337/186/70
f 343/202/71 342/201/71 338/198/71
f 340/199/72 344/200/72 343/202/72
