# Blender 4.4.0
# www.blender.org
mtllib Bld_Doghouse_Small_01.mtl
o Bld_Doghouse_Small_01
v -0.325153 0.031041 0.376030
v 0.324967 0.031041 0.376030
v -0.325588 0.031041 -0.376030
v 0.325589 0.031041 -0.376030
v 0.000000 0.697564 0.376030
v 0.000000 0.697564 -0.376030
v -0.325588 0.494897 -0.376030
v -0.325153 0.494897 0.376030
v -0.331030 0.496600 0.376030
v 0.331030 0.496600 0.376030
v 0.324967 0.494897 0.376030
v 0.325589 0.494897 -0.376030
v 0.324967 0.083527 0.376030
v 0.324967 0.081824 0.376030
v 0.324967 0.133458 0.376030
v 0.324967 0.186795 0.376030
v 0.324967 0.185092 0.376030
v 0.324967 0.238429 0.376030
v 0.324967 0.236726 0.376030
v 0.324967 0.288360 0.376030
v 0.324967 0.341697 0.376030
v 0.324967 0.393332 0.376030
v 0.324967 0.391629 0.376030
v 0.324967 0.444966 0.376030
v 0.324967 0.443263 0.376030
v -0.325153 0.443263 0.376030
v -0.325153 0.444966 0.376030
v -0.325153 0.393332 0.376030
v -0.325153 0.339995 0.376030
v -0.325153 0.341697 0.376030
v -0.325153 0.288360 0.376030
v -0.325153 0.238429 0.376030
v -0.325153 0.185092 0.376030
v -0.325153 0.133458 0.376030
v -0.325153 0.135161 0.376030
v -0.325153 0.081824 0.376030
v -0.325153 0.083527 0.376030
v -0.325588 0.083527 -0.376030
v -0.325588 0.133458 -0.376030
v -0.325588 0.185092 -0.376030
v -0.325588 0.238429 -0.376030
v -0.325588 0.236726 -0.376030
v -0.325588 0.290063 -0.376030
v -0.325588 0.288360 -0.376030
v -0.325588 0.341697 -0.376030
v -0.325588 0.393332 -0.376030
v -0.325588 0.391629 -0.376030
v -0.325588 0.444966 -0.376030
v 0.325589 0.444966 -0.376030
v 0.325589 0.391629 -0.376030
v 0.325589 0.393332 -0.376030
v 0.325589 0.341697 -0.376030
v 0.325589 0.288360 -0.376030
v 0.325589 0.290063 -0.376030
v 0.325589 0.236726 -0.376030
v 0.325589 0.238429 -0.376030
v 0.325589 0.185092 -0.376030
v 0.325589 0.133458 -0.376030
v 0.325589 0.083527 -0.376030
v 0.081706 0.647961 0.376030
v 0.084511 0.646258 0.376030
v 0.164814 0.597507 0.376030
v 0.250727 0.545351 0.376030
v -0.250727 0.545351 0.376030
v -0.164813 0.597507 0.376030
v -0.084510 0.646258 0.376030
v -0.081705 0.647961 0.376030
v 0.000000 0.647961 0.376030
v -0.081705 0.647961 -0.376030
v -0.084510 0.646258 -0.376030
v -0.164813 0.597507 -0.376030
v -0.167618 0.595804 -0.376030
v -0.247922 0.547054 -0.376030
v -0.250727 0.545351 -0.376030
v 0.250727 0.545351 -0.376030
v 0.247922 0.547054 -0.376030
v 0.167619 0.595805 -0.376030
v 0.164814 0.597507 -0.376030
v 0.084511 0.646258 -0.376030
v 0.081706 0.647961 -0.376030
v 0.000000 0.647961 -0.376030
v -0.325153 0.031041 0.356291
v 0.324967 0.031041 0.356291
v -0.325588 0.031041 -0.356291
v 0.325589 0.031041 -0.356291
v 0.000000 0.697564 0.356291
v 0.000000 0.697564 -0.356291
v -0.331030 0.496600 -0.356291
v -0.325588 0.494897 -0.356291
v -0.325153 0.494897 0.356291
v -0.331030 0.496600 0.356291
v 0.331030 0.496600 0.356291
v 0.324967 0.494897 0.356291
v 0.325589 0.494897 -0.356291
v 0.331030 0.496600 -0.356291
v 0.324967 0.083527 0.356291
v 0.324967 0.081824 0.356291
v 0.324967 0.135161 0.356291
v 0.324967 0.133458 0.356291
v 0.324967 0.186795 0.356291
v 0.324967 0.185092 0.356291
v 0.324967 0.238429 0.356291
v 0.324967 0.236726 0.356291
v 0.324967 0.290063 0.356291
v 0.324967 0.288360 0.356291
v 0.324967 0.341697 0.356291
v 0.324967 0.339995 0.356291
v 0.324967 0.393332 0.356291
v 0.324967 0.391629 0.356291
v 0.324967 0.444966 0.356291
v 0.324967 0.443263 0.356291
v -0.325153 0.443263 0.356291
v -0.325153 0.444966 0.356291
v -0.325153 0.391629 0.356291
v -0.325153 0.393332 0.356291
v -0.325153 0.339995 0.356291
v -0.325153 0.341697 0.356291
v -0.325153 0.288360 0.356291
v -0.325153 0.290063 0.356291
v -0.325153 0.236726 0.356291
v -0.325153 0.238429 0.356291
v -0.325153 0.185092 0.356291
v -0.325153 0.186795 0.356291
v -0.325153 0.133458 0.356291
v -0.325153 0.135161 0.356291
v -0.325153 0.081824 0.356291
v -0.325153 0.083527 0.356291
v -0.325588 0.083527 -0.356291
v -0.325588 0.081824 -0.356291
v -0.325588 0.135161 -0.356291
v -0.325588 0.186795 -0.356291
v -0.325588 0.238429 -0.356291
v -0.325588 0.236726 -0.356291
v -0.325588 0.290063 -0.356291
v -0.325588 0.288360 -0.356291
v -0.325588 0.339995 -0.356291
v -0.325588 0.393332 -0.356291
v -0.325588 0.391629 -0.356291
v -0.325588 0.444966 -0.356291
v 0.325589 0.444966 -0.356291
v 0.325589 0.391629 -0.356291
v 0.325589 0.393332 -0.356291
v 0.325589 0.339995 -0.356291
v 0.325589 0.288360 -0.356291
v 0.325589 0.290063 -0.356291
v 0.325589 0.236726 -0.356291
v 0.325589 0.238429 -0.356291
v 0.325589 0.186795 -0.356291
v 0.325589 0.135161 -0.356291
v 0.325589 0.081824 -0.356291
v 0.325589 0.083527 -0.356291
v 0.081706 0.647961 0.356291
v 0.084511 0.646258 0.356291
v 0.164814 0.597507 0.356291
v 0.167619 0.595804 0.356291
v 0.247922 0.547054 0.356291
v 0.250727 0.545351 0.356291
v -0.250727 0.545351 0.356291
v -0.247922 0.547054 0.356291
v -0.167618 0.595805 0.356291
v -0.164813 0.597507 0.356291
v -0.084510 0.646258 0.356291
v -0.081705 0.647961 0.356291
v 0.000000 0.647961 0.356291
v -0.081705 0.647961 -0.356291
v -0.084510 0.646258 -0.356291
v -0.164813 0.597507 -0.356291
v -0.167618 0.595804 -0.356291
v -0.247922 0.547054 -0.356291
v -0.250727 0.545351 -0.356291
v 0.250727 0.545351 -0.356291
v 0.247922 0.547054 -0.356291
v 0.167619 0.595805 -0.356291
v 0.164814 0.597507 -0.356291
v 0.084511 0.646258 -0.356291
v 0.081706 0.647961 -0.356291
v 0.000000 0.647961 -0.356291
v 0.092864 0.443263 0.376030
v 0.092864 0.443263 0.356291
v 0.089148 0.444966 0.356291
v 0.089148 0.444966 0.376030
v 0.109683 0.435555 0.356291
v 0.109683 0.435555 0.376030
v -0.045561 0.464941 0.356291
v -0.045561 0.464941 0.376030
v 0.045562 0.464941 0.356291
v 0.045562 0.464941 0.376030
v -0.109682 0.435555 0.356291
v -0.092863 0.443263 0.356291
v -0.089147 0.444966 0.356291
v -0.089147 0.444966 0.376030
v -0.092863 0.443263 0.376030
v -0.109682 0.435555 0.376030
v -0.125490 0.393332 0.376030
v -0.125490 0.393332 0.356291
v -0.126127 0.391629 0.356291
v -0.136242 0.364610 0.356291
v -0.136242 0.364610 0.376030
v 0.125490 0.393332 0.376030
v 0.126128 0.391629 0.376030
v 0.125490 0.393332 0.356291
v 0.126128 0.391629 0.356291
v 0.136243 0.364610 0.356291
v 0.136243 0.364610 0.376030
v 0.136243 0.186795 0.356291
v 0.136243 0.135161 0.356291
v 0.136243 0.185092 0.376030
v 0.136243 0.185092 0.356291
v 0.136243 0.083527 0.356291
v 0.136243 0.081824 0.376030
v 0.136243 0.081824 0.356291
v 0.136243 0.052994 0.356291
v 0.136243 0.133458 0.356291
v 0.136243 0.186795 0.376030
v 0.136243 0.133458 0.376030
v 0.136243 0.083527 0.376030
v 0.136243 0.052994 0.376030
v 0.136243 0.339995 0.356291
v 0.136243 0.341697 0.376030
v 0.136243 0.290063 0.356291
v 0.136243 0.341697 0.356291
v 0.136243 0.288360 0.356291
v 0.136243 0.236726 0.376030
v 0.136243 0.288360 0.376030
v 0.136243 0.238429 0.376030
v 0.136243 0.236726 0.356291
v 0.136243 0.238429 0.356291
v -0.136242 0.236726 0.356291
v -0.136242 0.339995 0.356291
v -0.136242 0.238429 0.356291
v -0.136242 0.238429 0.376030
v -0.136242 0.339995 0.376030
v -0.136242 0.288360 0.376030
v -0.136242 0.288360 0.356291
v -0.136242 0.341697 0.356291
v -0.136242 0.290063 0.356291
v -0.136242 0.341697 0.376030
v -0.136242 0.133458 0.356291
v -0.136242 0.186795 0.356291
v -0.136242 0.133458 0.376030
v -0.136242 0.135161 0.356291
v -0.136242 0.185092 0.376030
v -0.136242 0.135161 0.376030
v -0.136242 0.185092 0.356291
v -0.136242 0.081824 0.356291
v -0.136242 0.081824 0.376030
v -0.136242 0.083527 0.376030
v -0.136242 0.083527 0.356291
v -0.136242 0.052994 0.356291
v -0.136242 0.052994 0.376030
v 0.324967 0.138054 0.376030
v 0.324967 0.135161 0.373137
v 0.324967 0.292956 0.376030
v 0.324967 0.290063 0.373137
v 0.324967 0.339995 0.373137
v 0.324967 0.337101 0.376030
v -0.325153 0.388736 0.376030
v -0.325153 0.391629 0.373137
v -0.325153 0.290063 0.373137
v -0.325153 0.292956 0.376030
v -0.325153 0.233833 0.376030
v -0.325153 0.236726 0.373137
v -0.325153 0.186795 0.373137
v -0.325153 0.189688 0.376030
v 0.167619 0.595804 0.373137
v 0.172385 0.592911 0.376030
v 0.243157 0.549947 0.376030
v 0.247922 0.547054 0.373137
v -0.247922 0.547054 0.373137
v -0.243156 0.549947 0.376030
v -0.172384 0.592911 0.376030
v -0.167618 0.595805 0.373137
v -0.126127 0.391629 0.373137
v -0.127210 0.388736 0.376030
v 0.136243 0.135161 0.373137
v 0.136243 0.138054 0.376030
v 0.136243 0.290063 0.373137
v 0.136243 0.292956 0.376030
v 0.136243 0.337101 0.376030
v 0.136243 0.339995 0.373137
v -0.136242 0.236726 0.373137
v -0.136242 0.233833 0.376030
v -0.136242 0.292956 0.376030
v -0.136242 0.290063 0.373137
v -0.136242 0.189688 0.376030
v -0.136242 0.186795 0.373137
v -0.326072 0.499610 -0.376030
v -0.331030 0.496600 -0.373020
v 0.331030 0.496600 -0.373020
v 0.326073 0.499610 -0.376030
v -0.325588 0.081824 -0.373020
v -0.325588 0.078814 -0.376030
v -0.325588 0.138171 -0.376030
v -0.325588 0.135161 -0.373020
v -0.325588 0.189805 -0.376030
v -0.325588 0.186795 -0.373020
v -0.325588 0.339995 -0.373020
v -0.325588 0.336985 -0.376030
v -0.325588 0.443263 -0.373020
v -0.325588 0.440253 -0.376030
v 0.325589 0.440253 -0.376030
v 0.325589 0.443263 -0.373020
v 0.325589 0.336985 -0.376030
v 0.325589 0.339995 -0.373020
v 0.325589 0.186795 -0.373020
v 0.325589 0.189805 -0.376030
v 0.325589 0.135161 -0.373020
v 0.325589 0.138171 -0.376030
v 0.325589 0.078814 -0.376030
v 0.325589 0.081824 -0.373020
v -0.325588 0.130637 -0.356291
v -0.325588 0.133458 -0.359112
v -0.325588 0.182272 -0.356291
v -0.325588 0.185092 -0.359112
v -0.325588 0.341697 -0.359112
v -0.325588 0.344518 -0.356291
v -0.325588 0.440442 -0.356291
v -0.325588 0.443263 -0.359112
v 0.325589 0.443263 -0.359112
v 0.325589 0.440442 -0.356291
v 0.325589 0.344518 -0.356291
v 0.325589 0.341697 -0.359112
v 0.325589 0.185092 -0.359112
v 0.325589 0.182272 -0.356291
v 0.325589 0.133458 -0.359112
v 0.325589 0.130637 -0.356291
v -0.332432 0.031041 0.356291
v 0.332433 0.031041 0.356291
v -0.332432 0.031041 -0.356291
v 0.332433 0.031041 -0.356291
v -0.332432 0.495748 -0.356291
v -0.332432 0.495748 0.356291
v 0.332433 0.495748 0.356291
v 0.332433 0.495748 -0.356291
v 0.332433 0.444966 -0.356291
v 0.332433 0.393332 -0.356291
v 0.332433 0.391629 -0.356291
v 0.332433 0.341697 -0.356291
v 0.332433 0.288360 -0.356291
v 0.332433 0.238429 -0.356291
v 0.332433 0.236726 -0.356291
v 0.332433 0.186795 -0.356291
v 0.332433 0.133458 -0.356291
v 0.332433 0.083527 -0.356291
v 0.332433 0.081824 -0.356291
v 0.332433 0.081824 0.356291
v 0.332433 0.083527 0.356291
v 0.332433 0.133458 0.356291
v 0.332433 0.186795 0.356291
v 0.332433 0.236726 0.356291
v 0.332433 0.238429 0.356291
v 0.332433 0.288360 0.356291
v 0.332433 0.341697 0.356291
v 0.332433 0.391629 0.356291
v 0.332433 0.393332 0.356291
v 0.332433 0.444966 0.356291
v -0.332432 0.081824 -0.356291
v -0.332432 0.083527 -0.356291
v -0.332432 0.135161 -0.356291
v -0.332432 0.186795 -0.356291
v -0.332432 0.236726 -0.356291
v -0.332432 0.238429 -0.356291
v -0.332432 0.290063 -0.356291
v -0.332432 0.341697 -0.356291
v -0.332432 0.391629 -0.356291
v -0.332432 0.443263 -0.356291
v -0.332432 0.444966 -0.356291
v -0.332432 0.444966 0.356291
v -0.332432 0.443263 0.356291
v -0.332432 0.391629 0.356291
v -0.332432 0.341697 0.356291
v -0.332432 0.290063 0.356291
v -0.332432 0.238429 0.356291
v -0.332432 0.236726 0.356291
v -0.332432 0.186795 0.356291
v -0.332432 0.135161 0.356291
v -0.332432 0.083527 0.356291
v -0.332432 0.081824 0.356291
v -0.312693 0.031041 0.356291
v 0.312694 0.031041 0.356291
v -0.312693 0.031041 -0.356291
v 0.312694 0.031041 -0.356291
v -0.312693 0.495748 -0.356291
v -0.312693 0.495748 0.356291
v 0.312694 0.495748 0.356291
v 0.312694 0.495748 -0.356291
v 0.312694 0.444966 -0.356291
v 0.312694 0.443263 -0.356291
v 0.312694 0.393332 -0.356291
v 0.312694 0.391629 -0.356291
v 0.312694 0.341697 -0.356291
v 0.312694 0.339995 -0.356291
v 0.312694 0.290063 -0.356291
v 0.312694 0.288360 -0.356291
v 0.312694 0.238429 -0.356291
v 0.312694 0.236726 -0.356291
v 0.312694 0.186795 -0.356291
v 0.312694 0.185092 -0.356291
v 0.312694 0.135161 -0.356291
v 0.312694 0.133458 -0.356291
v 0.312694 0.083527 -0.356291
v 0.312694 0.081824 -0.356291
v 0.312694 0.081824 0.356291
v 0.312694 0.083527 0.356291
v 0.312694 0.133458 0.356291
v 0.312694 0.135161 0.356291
v 0.312694 0.185092 0.356291
v 0.312694 0.186795 0.356291
v 0.312694 0.236726 0.356291
v 0.312694 0.238429 0.356291
v 0.312694 0.288360 0.356291
v 0.312694 0.290063 0.356291
v 0.312694 0.339995 0.356291
v 0.312694 0.341697 0.356291
v 0.312694 0.391629 0.356291
v 0.312694 0.393332 0.356291
v 0.312694 0.443263 0.356291
v 0.312694 0.444966 0.356291
v -0.312693 0.081824 -0.356291
v -0.312693 0.083527 -0.356291
v -0.312693 0.133458 -0.356291
v -0.312693 0.135161 -0.356291
v -0.312693 0.185092 -0.356291
v -0.312693 0.186795 -0.356291
v -0.312693 0.236726 -0.356291
v -0.312693 0.238429 -0.356291
v -0.312693 0.288360 -0.356291
v -0.312693 0.290063 -0.356291
v -0.312693 0.339995 -0.356291
v -0.312693 0.341697 -0.356291
v -0.312693 0.391629 -0.356291
v -0.312693 0.393332 -0.356291
v -0.312693 0.443263 -0.356291
v -0.312693 0.444966 -0.356291
v -0.312693 0.444966 0.356291
v -0.312693 0.443263 0.356291
v -0.312693 0.393332 0.356291
v -0.312693 0.391629 0.356291
v -0.312693 0.341697 0.356291
v -0.312693 0.339995 0.356291
v -0.312693 0.290063 0.356291
v -0.312693 0.288360 0.356291
v -0.312693 0.238429 0.356291
v -0.312693 0.236726 0.356291
v -0.312693 0.186795 0.356291
v -0.312693 0.185092 0.356291
v -0.312693 0.135161 0.356291
v -0.312693 0.133458 0.356291
v -0.312693 0.083527 0.356291
v -0.312693 0.081824 0.356291
v 0.328312 0.443263 -0.356291
v 0.332433 0.439142 -0.356291
v 0.328312 0.339995 -0.356291
v 0.332433 0.335874 -0.356291
v 0.332433 0.294184 -0.356291
v 0.328312 0.290063 -0.356291
v 0.328312 0.185092 -0.356291
v 0.332433 0.180971 -0.356291
v 0.332433 0.139282 -0.356291
v 0.328312 0.135161 -0.356291
v 0.328312 0.135161 0.356291
v 0.332433 0.139282 0.356291
v 0.332433 0.180971 0.356291
v 0.328312 0.185092 0.356291
v 0.328312 0.290063 0.356291
v 0.332433 0.294184 0.356291
v 0.332433 0.335874 0.356291
v 0.328312 0.339995 0.356291
v 0.332433 0.439142 0.356291
v 0.328312 0.443263 0.356291
v -0.332432 0.129337 -0.356291
v -0.328311 0.133458 -0.356291
v -0.332432 0.180971 -0.356291
v -0.328311 0.185092 -0.356291
v -0.332432 0.284240 -0.356291
v -0.328311 0.288360 -0.356291
v -0.332432 0.335874 -0.356291
v -0.328311 0.339995 -0.356291
v -0.328311 0.393332 -0.356291
v -0.332432 0.397452 -0.356291
v -0.332432 0.397452 0.356291
v -0.328311 0.393332 0.356291
v -0.328311 0.339995 0.356291
v -0.332432 0.335874 0.356291
v -0.328311 0.288360 0.356291
v -0.332432 0.284240 0.356291
v -0.328311 0.185092 0.356291
v -0.332432 0.180971 0.356291
v -0.328311 0.133458 0.356291
v -0.332432 0.129337 0.356291
v 0.320043 0.000000 0.388420
v 0.344822 0.000000 0.388420
v 0.320043 0.000000 0.356291
v 0.344822 0.000000 0.356291
v 0.320043 0.504517 0.356291
v 0.320043 0.504517 0.388420
v 0.344822 0.490232 0.388420
v 0.344822 0.490232 0.356291
v -0.320043 0.000000 0.388420
v -0.344822 0.000000 0.388420
v -0.320043 0.000000 0.356291
v -0.344822 0.000000 0.356291
v -0.320043 0.504517 0.356291
v -0.320043 0.504517 0.388420
v -0.344822 0.490232 0.388420
v -0.344822 0.490232 0.356291
v 0.320043 0.000000 -0.388420
v 0.344822 0.000000 -0.388420
v 0.320043 0.000000 -0.356291
v 0.344822 0.000000 -0.356291
v 0.320043 0.504517 -0.356291
v 0.320043 0.504517 -0.388420
v 0.344822 0.490232 -0.388420
v 0.344822 0.490232 -0.356291
v -0.320043 0.000000 -0.388420
v -0.344822 0.000000 -0.388420
v -0.320043 0.000000 -0.356291
v -0.344822 0.000000 -0.356291
v -0.320043 0.504517 -0.356291
v -0.320043 0.504517 -0.388420
v -0.344822 0.490232 -0.388420
v -0.344822 0.490232 -0.356291
v 0.389683 0.478886 -0.390939
v 0.389683 0.478886 0.390939
v 0.381746 0.465811 0.390939
v 0.381746 0.465811 -0.390939
v 0.000000 0.697564 0.390939
v 0.000000 0.697564 -0.390939
v 0.000000 0.710639 0.390939
v 0.000000 0.710639 -0.390939
v 0.000000 0.710639 -0.280103
v 0.000000 0.710639 -0.278382
v 0.000000 0.710639 -0.166685
v 0.000000 0.710639 -0.054988
v 0.000000 0.710639 0.054988
v 0.000000 0.710639 0.168406
v 0.000000 0.710639 0.278382
v 0.000000 0.710639 0.280103
v 0.000000 0.697564 -0.278382
v 0.000000 0.697564 -0.280103
v 0.000000 0.697564 -0.166685
v 0.000000 0.697564 -0.168406
v 0.000000 0.697564 -0.054988
v 0.000000 0.697564 -0.056709
v 0.000000 0.697564 0.056709
v 0.000000 0.697564 0.054988
v 0.000000 0.697564 0.168406
v 0.000000 0.697564 0.166685
v 0.000000 0.697564 0.280103
v 0.000000 0.697564 0.278382
v 0.389683 0.478886 -0.280103
v 0.389683 0.478886 -0.278382
v 0.389683 0.478886 -0.166685
v 0.389683 0.478886 -0.054988
v 0.389683 0.478886 0.054988
v 0.389683 0.478886 0.168406
v 0.389683 0.478886 0.278382
v 0.389683 0.478886 0.280103
v 0.381746 0.465811 -0.278382
v 0.381746 0.465811 -0.280103
v 0.381746 0.465811 -0.166685
v 0.381746 0.465811 -0.168406
v 0.381746 0.465811 -0.054988
v 0.381746 0.465811 -0.056709
v 0.381746 0.465811 0.056709
v 0.381746 0.465811 0.054988
v 0.381746 0.465811 0.168406
v 0.381746 0.465811 0.166685
v 0.381746 0.465811 0.280103
v 0.381746 0.465811 0.278382
v 0.000000 0.707182 -0.168406
v 0.000000 0.710639 -0.171377
v 0.000000 0.707182 -0.056709
v 0.000000 0.710639 -0.059680
v 0.000000 0.710639 0.059680
v 0.000000 0.707182 0.056709
v 0.000000 0.707182 0.166685
v 0.000000 0.710639 0.163714
v 0.389683 0.478886 -0.171377
v 0.388142 0.476347 -0.168406
v 0.389683 0.478886 -0.059680
v 0.388142 0.476347 -0.056709
v 0.388142 0.476347 0.056709
v 0.389683 0.478886 0.059680
v 0.389683 0.478886 0.163714
v 0.388142 0.476347 0.166685
v -0.389683 0.478886 -0.390939
v -0.389683 0.478886 0.390939
v -0.381745 0.465811 0.390939
v -0.381745 0.465811 -0.390939
v -0.389683 0.478886 -0.280103
v -0.389683 0.478886 -0.278382
v -0.389683 0.478886 -0.166685
v -0.389683 0.478886 -0.054988
v -0.389683 0.478886 0.054988
v -0.389683 0.478886 0.168406
v -0.389683 0.478886 0.278382
v -0.389683 0.478886 0.280103
v -0.381745 0.465811 -0.278382
v -0.381745 0.465811 -0.280103
v -0.381745 0.465811 -0.166685
v -0.381745 0.465811 -0.168406
v -0.381745 0.465811 -0.054988
v -0.381745 0.465811 -0.056709
v -0.381745 0.465811 0.056709
v -0.381745 0.465811 0.054988
v -0.381745 0.465811 0.168406
v -0.381745 0.465811 0.166685
v -0.381745 0.465811 0.280103
v -0.381745 0.465811 0.278382
v -0.389683 0.478886 -0.171377
v -0.388141 0.476347 -0.168406
v -0.389683 0.478886 -0.059680
v -0.388141 0.476347 -0.056709
v -0.388141 0.476347 0.056709
v -0.389683 0.478886 0.059680
v -0.389683 0.478886 0.163714
v -0.388141 0.476347 0.166685
v -0.337374 0.000000 0.381621
v 0.337375 0.000000 0.381621
v -0.337374 0.000000 -0.381621
v 0.337375 0.000000 -0.381621
v -0.337374 0.031041 0.381621
v 0.337375 0.031041 0.381621
v -0.337374 0.031041 -0.381621
v 0.337375 0.031041 -0.381621
v 0.408326 0.476004 0.390939
v 0.396477 0.456868 0.390939
v 0.000000 0.696633 0.390939
v 0.000000 0.716700 0.390939
v 0.000000 0.697564 0.403401
v 0.396477 0.456868 0.403401
v 0.000000 0.716700 0.403401
v 0.408326 0.476004 0.403401
v -0.408326 0.476004 0.390939
v -0.396477 0.456868 0.390939
v -0.396477 0.456868 0.403401
v -0.408326 0.476004 0.403401
v -0.147355 0.503931 0.376030
v 0.146425 0.503931 0.376030
v -0.147355 0.603071 0.376030
v 0.146425 0.603071 0.376030
v -0.147355 0.603071 0.387360
v -0.147355 0.503931 0.387360
v 0.146425 0.503931 0.387360
v 0.146425 0.603071 0.387360
v -0.010977 0.683957 -0.409848
v 0.010977 0.683957 -0.409848
v -0.010977 0.719004 -0.409848
v 0.010977 0.719004 -0.409848
v -0.010977 0.719004 0.409848
v -0.010977 0.683957 0.409848
v 0.010977 0.683957 0.409848
v 0.010977 0.719004 0.409848
vn -0.0000 -0.0000 -1.0000
vn -0.0000 -1.0000 -0.0000
vn -0.0000 -0.0000 1.0000
vn -0.0000 1.0000 -0.0000
vn 0.9365 -0.3506 -0.0000
vn -0.9365 -0.3506 -0.0000
vn 1.0000 -0.0000 -0.0000
vn -1.0000 -0.0000 -0.0000
vn -0.4166 -0.9091 -0.0000
vn 0.4166 -0.9091 -0.0000
vn -0.0000 -0.7071 0.7071
vn -0.0000 0.7071 0.7071
vn -0.0000 -0.7071 -0.7071
vn -0.0000 0.7071 -0.7071
vn 0.7071 -0.7071 -0.0000
vn 0.7071 0.7071 -0.0000
vn -0.7071 0.7071 -0.0000
vn -0.7071 -0.7071 -0.0000
vn -0.5189 -0.8548 -0.0000
vn 0.8548 -0.5189 -0.0000
vn 0.5112 0.8595 -0.0000
vn 0.3614 0.6078 0.7071
vn 0.3614 0.6077 -0.7071
vn 0.3615 0.6078 0.7071
vn 0.5189 -0.8548 -0.0000
vn -0.8548 -0.5189 -0.0000
vn -0.5112 0.8595 -0.0000
vn -0.3614 0.6077 0.7071
vn -0.3614 0.6077 -0.7071
vn 0.5078 0.8615 -0.0000
vn 0.8502 -0.5264 -0.0000
vn -0.5179 -0.8531 0.0637
vn -0.5078 0.8615 -0.0000
vn -0.8502 -0.5264 -0.0000
vn 0.5175 -0.8557 -0.0000
vn 0.3614 0.6077 0.7071
vn 0.3614 0.6078 -0.7071
vn -0.3614 0.6078 0.7071
vn -0.3614 0.6078 -0.7071
vn -0.5175 -0.8557 -0.0000
vn 0.5179 -0.8531 0.0637
vt 0.587453 0.935298
vt 0.583804 0.941715
vt 0.583099 0.935298
vt 0.585276 0.948580
vt 0.585994 0.948580
vt 0.585276 0.955109
vt 0.588135 0.928433
vt 0.582417 0.921861
vt 0.588135 0.921861
vt 0.601548 0.905079
vt 0.600233 0.908933
vt 0.601124 0.908933
vt 0.584080 0.870270
vt 0.586473 0.870270
vt 0.602396 0.864445
vt 0.598961 0.868392
vt 0.598961 0.864445
vt 0.601397 0.864445
vt 0.602394 0.868392
vt 0.602394 0.864445
vt 0.586473 0.881084
vt 0.588131 0.887656
vt 0.588131 0.881084
vt 0.586473 0.894453
vt 0.588131 0.894453
vt 0.586473 0.894677
vt 0.588131 0.901249
vt 0.588131 0.894677
vt 0.586473 0.888261
vt 0.588131 0.894072
vt 0.588131 0.888261
vt 0.586384 0.914841
vt 0.588131 0.914841
vt 0.586378 0.915065
vt 0.586239 0.920623
vt 0.588131 0.921637
vt 0.582417 0.887881
vt 0.588135 0.887881
vt 0.588135 0.908045
vt 0.582417 0.908045
vt 0.602396 0.876691
vt 0.598961 0.880638
vt 0.598961 0.876691
vt 0.588135 0.908269
vt 0.582417 0.914841
vt 0.582417 0.908269
vt 0.601548 0.905079
vt 0.600233 0.908933
vt 0.599809 0.905079
vt 0.584559 0.948580
vt 0.585276 0.955109
vt 0.609832 0.888139
vt 0.610456 0.892082
vt 0.609005 0.892082
vt 0.587478 0.935074
vt 0.582369 0.928658
vt 0.588183 0.928658
vt 0.582417 0.881084
vt 0.588135 0.881084
vt 0.602001 0.900956
vt 0.598933 0.897101
vt 0.599356 0.900956
vt 0.586748 0.941715
vt 0.586748 0.941715
vt 0.582417 0.928433
vt 0.588135 0.887656
vt 0.582417 0.887656
vt 0.586473 0.887881
vt 0.588131 0.887881
vt 0.602394 0.880773
vt 0.601397 0.884720
vt 0.601397 0.880773
vt 0.586473 0.911285
vt 0.582417 0.894453
vt 0.588135 0.901473
vt 0.582417 0.901473
vt 0.598961 0.892662
vt 0.602396 0.888937
vt 0.598961 0.888937
vt 0.602396 0.892885
vt 0.598961 0.892885
vt 0.582417 0.874064
vt 0.588135 0.867380
vt 0.582417 0.867380
vt 0.583075 0.935074
vt 0.609629 0.888139
vt 0.588135 0.874064
vt 0.586473 0.874064
vt 0.588131 0.874064
vt 0.601397 0.868392
vt 0.586473 0.887656
vt 0.586473 0.901249
vt 0.602394 0.884720
vt 0.586092 0.921637
vt 0.584080 0.874288
vt 0.582423 0.874288
vt 0.584080 0.901854
vt 0.582423 0.907664
vt 0.584080 0.907664
vt 0.584080 0.887881
vt 0.582423 0.887881
vt 0.599960 0.876691
vt 0.598965 0.876691
vt 0.584080 0.908045
vt 0.582423 0.908045
vt 0.599960 0.884855
vt 0.598965 0.884855
vt 0.584174 0.915065
vt 0.582423 0.915065
vt 0.609531 0.885510
vt 0.609005 0.885510
vt 0.582417 0.873668
vt 0.588135 0.881481
vt 0.582417 0.881481
vt 0.598961 0.868169
vt 0.588135 0.888277
vt 0.582417 0.888277
vt 0.582417 0.887285
vt 0.588135 0.894453
vt 0.602396 0.880638
vt 0.588135 0.908640
vt 0.582417 0.908640
vt 0.582417 0.907649
vt 0.598961 0.888937
vt 0.588135 0.914841
vt 0.598961 0.892647
vt 0.583141 0.935679
vt 0.586790 0.941334
vt 0.587411 0.935679
vt 0.586393 0.914460
vt 0.588131 0.867380
vt 0.582423 0.867380
vt 0.601124 0.908933
vt 0.600013 0.888803
vt 0.598965 0.888803
vt 0.584461 0.921637
vt 0.582423 0.921637
vt 0.599960 0.872474
vt 0.598965 0.868527
vt 0.599960 0.868527
vt 0.584080 0.894453
vt 0.582423 0.894453
vt 0.584313 0.920623
vt 0.599960 0.886666
vt 0.584080 0.901473
vt 0.582423 0.901473
vt 0.601397 0.881002
vt 0.586473 0.908269
vt 0.598965 0.880638
vt 0.599960 0.880638
vt 0.584080 0.880860
vt 0.582423 0.880860
vt 0.599960 0.868755
vt 0.609929 0.885510
vt 0.610456 0.885510
vt 0.588131 0.908269
vt 0.598965 0.872474
vt 0.588131 0.915065
vt 0.602394 0.881002
vt 0.584080 0.874064
vt 0.582423 0.874064
vt 0.588131 0.914460
vt 0.586473 0.894072
vt 0.602425 0.897101
vt 0.583763 0.941334
vt 0.598965 0.868755
vt 0.582423 0.901854
vt 0.598959 0.897339
vt 0.602398 0.897339
vt 0.588135 0.873668
vt 0.588135 0.907649
vt 0.602396 0.892647
vt 0.602396 0.868392
vt 0.600611 0.893206
vt 0.600729 0.893206
vt 0.585371 0.863615
vt 0.585371 0.873240
vt 0.585371 0.863615
vt 0.600579 0.858034
vt 0.600579 0.863815
vt 0.600579 0.858034
vt 0.585111 0.873563
vt 0.585111 0.883027
vt 0.600611 0.869887
vt 0.600729 0.869887
vt 0.585111 0.893136
vt 0.585111 0.902600
vt 0.585111 0.902922
vt 0.585111 0.912386
vt 0.600611 0.887522
vt 0.600729 0.887522
vt 0.585111 0.922495
vt 0.585111 0.931959
vt 0.585319 0.892813
vt 0.585122 0.892813
vt 0.600704 0.887328
vt 0.600586 0.887328
vt 0.585371 0.893136
vt 0.585371 0.902600
vt 0.585319 0.922173
vt 0.585122 0.922173
vt 0.600704 0.899278
vt 0.600586 0.899278
vt 0.600736 0.893400
vt 0.600736 0.899084
vt 0.585371 0.942068
vt 0.585371 0.951693
vt 0.585111 0.942068
vt 0.585111 0.951693
vt 0.600729 0.904963
vt 0.600729 0.899278
vt 0.585122 0.873240
vt 0.585122 0.863615
vt 0.585122 0.863615
vt 0.600729 0.863815
vt 0.600729 0.858034
vt 0.600729 0.858034
vt 0.585360 0.883027
vt 0.585360 0.873563
vt 0.600729 0.875572
vt 0.585360 0.902600
vt 0.585360 0.893136
vt 0.585360 0.912386
vt 0.585360 0.902922
vt 0.585360 0.931959
vt 0.585360 0.922495
vt 0.600586 0.869693
vt 0.600586 0.864009
vt 0.585122 0.883349
vt 0.585122 0.902600
vt 0.585122 0.893136
vt 0.600586 0.881644
vt 0.585122 0.912709
vt 0.600586 0.899084
vt 0.600586 0.893400
vt 0.600586 0.904963
vt 0.585122 0.951693
vt 0.585122 0.942068
vt 0.585360 0.951693
vt 0.585360 0.942068
vt 0.600704 0.869693
vt 0.600704 0.869693
vt 0.585111 0.883027
vt 0.600579 0.870356
vt 0.600579 0.875102
vt 0.600611 0.875572
vt 0.600579 0.887991
vt 0.600579 0.892737
vt 0.600579 0.899278
vt 0.585111 0.931959
vt 0.600579 0.904493
vt 0.600736 0.864009
vt 0.585371 0.883349
vt 0.600736 0.869224
vt 0.585371 0.892032
vt 0.600736 0.881644
vt 0.585371 0.912709
vt 0.600736 0.886859
vt 0.585371 0.921392
vt 0.600736 0.899747
vt 0.600736 0.904963
vt 0.600736 0.899084
vt 0.600611 0.904963
vt 0.090990 0.919419
vt 0.093184 0.962833
vt 0.090990 0.964098
vt 0.093184 0.919419
vt 0.093786 0.919419
vt 0.091592 0.962833
vt 0.091592 0.919419
vt 0.093786 0.964098
vt 0.205960 0.585305
vt 0.208221 0.547188
vt 0.220299 0.571315
vt 0.222560 0.533199
vt 0.226594 0.562051
vt 0.228903 0.526084
vt 0.228856 0.523934
vt 0.222608 0.535349
vt 0.220299 0.573466
vt 0.222608 0.535349
vt 0.208268 0.549339
vt 0.214516 0.537924
vt 0.214563 0.540074
vt 0.212255 0.576041
vt 0.226594 0.564201
vt 0.214554 0.539656
vt 0.222598 0.534931
vt 0.220299 0.572897
vt 0.205960 0.587456
vt 0.208268 0.549339
vt 0.212255 0.578191
vt 0.205960 0.586887
vt 0.208259 0.548921
vt 0.212255 0.577623
vt 0.203698 0.547188
vt 0.217991 0.535349
vt 0.218038 0.533199
vt 0.224286 0.526084
vt 0.224333 0.523934
vt 0.224286 0.526084
vt 0.224295 0.525667
vt 0.203651 0.549339
vt 0.203651 0.549339
vt 0.218000 0.534931
vt 0.226594 0.563633
vt 0.203660 0.548921
vt 0.599281 0.806782
vt 0.605206 0.806782
vt 0.588239 0.863294
vt 0.588239 0.867380
vt 0.582314 0.863294
vt 0.582314 0.867380
vt 0.117384 0.981921
vt 0.116115 0.925219
vt 0.116152 0.920301
vt 0.117384 0.982160
vt 0.117384 0.987078
vt 0.118653 0.925219
vt 0.118616 0.920301
vt 0.318551 0.984022
vt 0.319314 0.941760
vt 0.318551 0.941760
vt 0.319314 0.984022
vt 0.091601 0.970110
vt 0.092614 0.925840
vt 0.091601 0.925840
vt 0.092614 0.970110
vt 0.602396 0.892662
vt 0.602396 0.868169
vt 0.588135 0.887285
vt 0.585360 0.883027
vt 0.585360 0.931959
vt 0.600586 0.869693
vt 0.600586 0.899084
s 0
usemtl Texture_Map
f 73/1/1 77/2/1 76/3/1
f 269/1/2 156/3/2 268/3/2
f 81/4/1 69/5/1 6/6/1
f 7/7/1 49/8/1 48/9/1
f 65/10/3 61/11/3 66/12/3
f 217/13/4 249/14/4 250/14/4
f 38/15/1 58/16/1 59/17/1
f 247/18/3 34/19/3 37/20/3
f 243/21/3 33/22/3 35/23/3
f 281/24/4 120/25/4 262/25/4
f 231/26/3 31/27/3 32/28/3
f 285/29/3 261/30/3 264/31/3
f 273/32/4 114/33/4 258/33/4
f 194/34/3 193/35/3 26/36/3
f 305/37/2 131/38/2 296/38/2
f 297/39/4 143/40/4 304/40/4
f 41/41/1 53/42/1 56/43/1
f 45/44/1 50/45/1 52/46/1
f 71/47/1 79/48/1 78/49/1
f 68/4/3 60/50/3 5/51/3
f 184/52/1 90/53/1 93/54/1
f 158/55/1 92/56/1 91/57/1
f 67/5/3 68/4/3 5/51/3
f 307/58/2 130/59/2 294/59/2
f 170/60/3 95/61/3 171/62/3
f 80/50/1 81/4/1 6/6/1
f 168/63/3 172/3/3 173/2/3
f 155/2/1 159/1/1 160/64/1
f 177/4/3 87/6/3 165/5/3
f 89/7/3 140/8/3 94/65/3
f 161/10/1 153/11/1 154/49/1
f 40/66/4 323/67/4 57/67/4
f 124/19/1 248/18/1 127/20/1
f 122/22/1 241/21/1 125/23/1
f 120/25/1 239/68/1 123/69/1
f 118/27/1 230/26/1 121/28/1
f 119/70/1 229/71/1 236/72/1
f 114/33/1 196/32/1 197/73/1
f 112/36/1 188/35/1 195/34/1
f 52/46/2 315/44/2 45/44/2
f 146/74/3 131/38/3 148/37/3
f 144/42/3 132/41/3 147/43/3
f 143/40/3 134/75/3 145/76/3
f 320/77/3 137/78/3 142/79/3
f 299/80/4 319/81/4 302/81/4
f 175/48/3 167/47/3 174/49/3
f 164/4/1 86/51/1 152/50/1
f 11/54/4 90/53/4 8/53/4
f 9/57/2 92/56/2 10/56/2
f 163/5/1 86/51/1 164/4/1
f 150/82/3 84/83/3 85/84/3
f 176/50/3 87/6/3 177/4/3
f 7/7/4 94/65/4 12/65/4
f 63/85/4 158/55/4 64/55/4
f 184/52/2 187/86/2 185/52/2
f 59/17/2 128/15/2 38/15/2
f 291/87/4 150/82/4 310/82/4
f 246/88/4 126/89/4 36/89/4
f 240/90/4 124/19/4 34/19/4
f 242/91/4 122/22/4 33/22/4
f 286/68/2 123/69/2 239/68/2
f 233/92/4 118/27/4 31/27/4
f 232/71/4 116/93/4 29/93/4
f 284/72/2 119/70/2 236/72/2
f 192/94/4 112/36/4 26/36/4
f 216/95/2 96/96/2 13/96/2
f 278/97/3 256/98/3 279/99/3
f 214/100/2 100/101/2 16/101/2
f 225/102/2 102/103/2 18/103/2
f 280/104/4 107/105/4 218/104/4
f 219/106/2 106/107/2 21/107/2
f 199/108/2 108/109/2 22/109/2
f 181/110/2 110/111/2 24/111/2
f 3/83/1 309/112/1 4/84/1
f 293/113/1 57/67/1 308/114/1
f 326/115/3 128/15/3 151/17/3
f 295/116/1 55/74/1 306/117/1
f 324/118/3 130/59/3 149/58/3
f 56/43/2 132/41/2 41/41/2
f 42/119/4 146/74/4 55/74/4
f 54/76/2 134/75/2 43/75/2
f 44/120/4 144/42/4 53/42/4
f 141/45/3 316/121/3 321/122/3
f 43/75/1 303/123/1 54/76/1
f 51/124/2 137/78/2 46/78/2
f 47/125/4 141/45/4 50/45/4
f 49/8/2 139/9/2 48/9/2
f 46/78/1 301/126/1 51/124/1
f 74/60/4 171/62/4 75/62/4
f 267/127/3 271/128/3 270/129/3
f 196/32/5 273/32/5 274/130/5
f 61/11/4 162/12/4 66/12/4
f 65/10/2 154/49/2 62/49/2
f 67/5/2 164/4/2 68/4/2
f 68/4/2 152/50/2 60/50/2
f 1/131/3 2/132/3 250/14/3
f 72/63/4 173/2/4 77/2/4
f 76/3/2 169/1/2 73/1/2
f 70/133/4 175/48/4 79/48/4
f 78/49/2 167/47/2 71/47/2
f 80/50/2 177/4/2 81/4/2
f 81/4/2 165/5/2 69/5/2
f 200/134/4 109/135/4 202/134/4
f 178/136/4 111/137/4 179/136/4
f 208/138/1 98/139/1 206/140/1
f 223/141/4 103/142/4 226/141/4
f 183/143/6 201/108/6 199/108/6
f 204/144/6 202/134/6 203/144/6
f 277/145/2 104/146/2 254/146/2
f 238/90/7 247/18/7 248/18/7
f 244/91/7 243/21/7 241/21/7
f 229/71/7 232/71/7 283/147/7
f 198/73/7 235/148/7 197/73/7
f 231/26/7 234/92/7 233/92/7
f 249/14/7 246/88/7 250/14/7
f 225/102/3 20/149/3 224/150/3
f 215/151/4 99/152/4 213/151/4
f 182/143/1 179/136/1 111/137/1
f 193/35/5 195/34/5 188/35/5
f 276/153/8 208/138/8 206/140/8
f 204/144/3 21/107/3 23/135/3
f 249/14/1 212/13/1 83/132/1
f 191/154/2 113/155/2 190/154/2
f 222/150/1 102/103/1 227/102/1
f 265/2/4 160/64/4 272/64/4
f 237/148/2 117/156/2 235/148/2
f 205/100/1 103/142/1 100/101/1
f 207/138/4 101/157/4 208/138/4
f 203/144/1 109/135/1 106/107/1
f 194/34/2 115/158/2 195/34/2
f 247/18/2 127/20/2 248/18/2
f 260/159/3 232/71/3 29/93/3
f 275/140/2 98/139/2 252/139/2
f 224/150/4 105/149/4 222/150/4
f 243/21/2 125/23/2 241/21/2
f 186/86/9 181/110/9 187/86/9
f 183/143/9 179/136/9 182/143/9
f 185/52/10 190/154/10 184/52/10
f 193/35/10 189/94/10 192/94/10
f 216/95/3 15/152/3 215/151/3
f 10/56/3 64/55/3 9/57/3
f 214/100/3 19/142/3 223/141/3
f 210/160/4 97/161/4 211/160/4
f 231/26/2 121/28/2 230/26/2
f 209/95/1 99/152/1 96/96/1
f 198/73/3 274/130/3 257/162/3
f 215/151/8 209/95/8 216/95/8
f 220/145/8 279/99/8 218/104/8
f 223/141/8 205/100/8 214/100/8
f 282/163/7 285/29/7 228/24/7
f 204/144/8 221/106/8 219/106/8
f 227/102/8 224/150/8 222/150/8
f 217/13/8 211/160/8 212/13/8
f 218/104/1 104/146/1 220/145/1
f 199/108/3 22/109/3 25/137/3
f 289/61/2 88/164/2 288/164/2
f 8/53/3 191/154/3 185/52/3
f 264/31/11 286/68/11 285/29/11
f 260/159/11 284/72/11 283/147/11
f 256/98/12 280/104/12 279/99/12
f 270/129/11 268/3/11 267/127/11
f 266/165/12 272/64/12 271/128/12
f 282/163/12 262/25/12 261/30/12
f 274/130/12 258/33/12 257/162/12
f 276/153/11 252/139/11 251/166/11
f 278/97/11 254/146/11 253/167/11
f 276/153/3 17/157/3 207/138/3
f 290/168/13 288/164/13 287/169/13
f 292/170/14 310/82/14 309/112/14
f 308/114/13 294/59/13 293/113/13
f 306/117/13 296/38/13 295/116/13
f 298/171/14 304/40/14 303/123/14
f 300/172/14 302/81/14 301/126/14
f 287/169/1 75/62/1 290/168/1
f 312/173/12 326/115/12 325/16/12
f 314/66/12 324/118/12 323/67/12
f 322/46/11 316/121/11 315/44/11
f 318/80/12 320/77/12 319/81/12
f 39/173/4 325/16/4 58/16/4
f 453/174/4 413/175/4 468/174/4
f 327/176/8 357/177/8 329/178/8
f 330/179/7 346/180/7 328/181/7
f 344/182/7 348/183/7 347/182/7
f 461/184/2 399/185/2 460/184/2
f 342/186/7 350/187/7 349/186/7
f 340/188/7 352/189/7 351/188/7
f 465/190/2 393/191/2 456/190/2
f 338/192/7 354/193/7 353/192/7
f 487/194/4 423/195/4 474/194/4
f 485/196/4 427/197/4 476/196/4
f 375/198/8 361/199/8 360/198/8
f 483/200/4 429/201/4 478/200/4
f 479/202/2 437/203/2 482/202/2
f 371/204/8 365/205/8 364/204/8
f 368/206/8 331/207/8 367/206/8
f 335/208/7 333/209/7 356/208/7
f 417/210/8 389/211/8 416/211/8
f 419/212/7 379/213/7 381/214/7
f 403/215/8 382/216/8 380/217/8
f 405/218/8 401/219/8 404/219/8
f 407/220/8 399/185/8 406/185/8
f 409/221/8 397/222/8 408/222/8
f 411/223/8 395/224/8 410/224/8
f 413/175/8 393/191/8 412/191/8
f 415/225/8 391/226/8 414/226/8
f 421/227/7 449/228/7 420/228/7
f 423/195/7 447/229/7 422/229/7
f 425/230/7 445/231/7 424/231/7
f 427/197/7 443/232/7 426/232/7
f 429/201/7 441/233/7 428/233/7
f 431/234/7 439/235/7 430/235/7
f 433/236/7 437/203/7 432/203/7
f 383/237/7 435/238/7 434/238/7
f 385/239/8 387/240/8 418/240/8
f 332/207/4 383/237/4 331/207/4
f 334/209/4 385/239/4 333/209/4
f 347/182/2 401/219/2 344/182/2
f 345/180/4 403/215/4 346/180/4
f 489/241/4 421/227/4 472/242/4
f 343/243/4 405/218/4 348/183/4
f 349/186/2 397/222/2 342/186/2
f 459/244/7 463/245/7 462/244/7
f 351/188/2 395/224/2 340/188/2
f 341/187/4 409/221/4 350/187/4
f 457/246/4 407/220/4 464/246/4
f 339/189/4 411/223/4 352/189/4
f 353/192/2 391/226/2 338/192/2
f 455/247/7 467/248/7 466/247/7
f 355/249/2 389/211/2 336/249/2
f 337/250/4 415/225/4 354/193/4
f 356/208/2 387/240/2 335/208/2
f 336/249/7 469/251/7 355/249/7
f 358/252/2 449/228/2 377/252/2
f 378/177/4 419/212/4 357/177/4
f 359/253/2 447/229/2 376/253/2
f 377/252/8 471/254/8 358/252/8
f 360/198/2 445/231/2 375/198/2
f 376/253/8 473/255/8 359/253/8
f 362/256/2 443/232/2 373/256/2
f 374/199/4 425/230/4 361/199/4
f 363/257/2 441/233/2 372/257/2
f 373/256/8 475/258/8 362/256/8
f 364/204/2 439/235/2 371/204/2
f 372/257/8 477/259/8 363/257/8
f 481/260/8 366/261/8 480/260/8
f 370/262/4 431/234/4 365/205/4
f 367/206/2 435/238/2 368/206/2
f 369/261/4 433/236/4 366/261/4
f 462/244/15 460/184/15 459/244/15
f 458/245/16 464/246/16 463/245/16
f 466/247/15 456/190/15 455/247/15
f 454/248/16 468/174/16 467/248/16
f 452/251/16 470/263/16 469/251/16
f 490/254/17 472/242/17 471/254/17
f 488/255/17 474/194/17 473/255/17
f 486/258/17 476/196/17 475/258/17
f 484/259/17 478/200/17 477/259/17
f 480/260/18 482/202/18 481/260/18
f 451/263/4 417/210/4 470/263/4
f 491/264/3 497/265/3 496/266/3
f 494/267/7 497/265/7 492/267/7
f 491/264/8 495/266/8 493/264/8
f 493/264/1 498/265/1 494/267/1
f 499/268/3 505/269/3 500/270/3
f 505/269/8 502/270/8 500/270/8
f 503/271/7 499/268/7 501/268/7
f 506/269/1 501/268/1 502/270/1
f 507/264/1 513/265/1 508/267/1
f 513/265/7 510/267/7 508/267/7
f 511/266/8 507/264/8 509/264/8
f 514/265/3 509/264/3 510/267/3
f 515/268/1 521/269/1 520/271/1
f 518/270/8 521/269/8 516/270/8
f 515/268/7 519/271/7 517/268/7
f 517/268/3 522/269/3 518/270/3
f 539/272/19 562/273/19 542/272/19
f 543/274/19 566/275/19 546/274/19
f 528/276/1 523/277/1 526/278/1
f 527/274/3 524/279/3 529/280/3
f 584/281/20 585/281/20 565/275/20
f 567/273/20 557/282/20 570/273/20
f 569/275/20 524/279/20 525/275/20
f 561/283/20 553/284/20 581/284/20
f 558/279/21 529/280/21 524/279/21
f 545/274/19 568/275/19 548/274/19
f 528/276/19 560/278/19 540/276/19
f 547/272/19 570/273/19 550/272/19
f 549/274/19 525/275/19 527/274/19
f 526/278/20 551/277/20 560/278/20
f 541/285/19 564/283/19 544/285/19
f 563/275/20 555/281/20 566/275/20
f 523/277/21 531/286/21 551/277/21
f 582/287/3 544/285/3 564/283/3
f 583/288/1 545/274/1 576/289/1
f 554/281/21 535/280/21 555/281/21
f 586/288/3 548/274/3 568/275/3
f 556/282/21 537/290/21 557/282/21
f 558/279/1 549/274/1 538/280/1
f 557/282/3 550/272/3 570/273/3
f 556/282/1 547/272/1 536/290/1
f 559/273/20 552/291/20 579/291/20
f 584/281/21 578/280/21 585/281/21
f 555/281/3 546/274/3 566/275/3
f 554/281/1 543/274/1 534/280/1
f 553/284/21 574/292/21 581/284/21
f 553/284/1 541/285/1 533/292/1
f 552/291/21 572/290/21 579/291/21
f 552/291/1 539/272/1 532/290/1
f 551/277/3 540/276/3 560/278/3
f 579/291/22 571/293/22 580/294/22
f 581/284/22 573/295/22 582/287/22
f 584/281/23 576/289/23 575/280/23
f 585/281/24 577/289/24 586/288/24
f 580/294/3 542/272/3 562/273/3
f 602/296/25 539/272/25 542/272/25
f 606/296/25 543/272/25 546/272/25
f 587/297/1 528/274/1 590/298/1
f 527/276/3 588/299/3 589/300/3
f 616/301/26 615/302/26 605/300/26
f 597/303/26 607/296/26 610/296/26
f 588/299/26 609/300/26 589/300/26
f 613/297/26 593/297/26 601/298/26
f 529/286/27 598/299/27 588/299/27
f 608/300/25 545/276/25 548/276/25
f 600/298/25 528/274/25 540/274/25
f 610/296/25 547/272/25 550/272/25
f 589/300/25 549/276/25 527/276/25
f 591/297/26 590/298/26 600/298/26
f 604/298/25 541/274/25 544/274/25
f 595/304/26 603/296/26 606/296/26
f 531/280/27 587/297/27 591/297/27
f 544/274/3 614/305/3 604/298/3
f 615/302/1 545/276/1 605/300/1
f 535/290/27 594/304/27 595/304/27
f 548/276/3 618/302/3 608/300/3
f 537/290/27 596/303/27 597/303/27
f 598/299/1 549/276/1 609/300/1
f 550/272/3 597/303/3 610/296/3
f 596/303/1 547/272/1 607/296/1
f 611/304/26 592/304/26 599/296/26
f 578/286/27 616/301/27 617/301/27
f 546/272/3 595/304/3 606/296/3
f 594/304/1 543/272/1 603/296/1
f 574/280/27 593/297/27 613/297/27
f 593/297/1 541/274/1 601/298/1
f 572/290/27 592/304/27 611/304/27
f 592/304/1 539/272/1 599/296/1
f 540/274/3 591/297/3 600/298/3
f 611/304/28 571/293/28 572/290/28
f 613/297/28 573/289/28 574/280/28
f 576/306/29 616/301/29 575/286/29
f 617/301/28 577/306/28 578/286/28
f 542/272/3 612/307/3 602/296/3
f 624/308/4 625/309/4 623/309/4
f 619/310/8 625/311/8 621/310/8
f 622/312/7 624/313/7 620/312/7
f 620/312/3 623/311/3 619/310/3
f 621/310/1 626/313/1 622/312/1
f 629/314/1 627/315/1 628/316/1
f 631/317/3 634/315/3 633/318/3
f 630/318/30 634/315/30 627/315/30
f 627/315/31 632/316/31 628/316/31
f 629/314/32 632/316/32 631/317/32
f 629/314/1 635/319/1 630/318/1
f 631/317/3 638/319/3 637/320/3
f 638/319/33 630/318/33 635/319/33
f 637/320/34 635/319/34 636/320/34
f 629/314/35 637/320/35 636/320/35
f 641/321/1 640/322/1 639/323/1
f 645/322/3 643/321/3 644/323/3
f 640/322/2 644/323/2 639/323/2
f 642/324/7 645/322/7 640/322/7
f 639/323/8 643/321/8 641/321/8
f 641/321/4 646/324/4 642/324/4
f 649/325/1 648/326/1 647/327/1
f 653/326/3 651/325/3 652/327/3
f 650/328/7 653/326/7 648/326/7
f 647/327/8 651/325/8 649/325/8
f 649/325/4 654/328/4 650/328/4
f 648/326/2 652/327/2 647/327/2
f 73/1/1 72/63/1 77/2/1
f 269/1/2 159/1/2 156/3/2
f 7/7/1 12/65/1 49/8/1
f 65/10/3 62/49/3 61/11/3
f 217/13/4 212/13/4 249/14/4
f 38/15/1 39/173/1 58/16/1
f 247/18/3 240/90/3 34/19/3
f 243/21/3 242/91/3 33/22/3
f 281/24/4 228/24/4 120/25/4
f 231/26/3 233/92/3 31/27/3
f 285/29/3 282/163/3 261/30/3
f 273/32/4 196/32/4 114/33/4
f 26/36/3 28/158/3 194/34/3
f 193/35/3 192/94/3 26/36/3
f 305/37/2 148/37/2 131/38/2
f 297/39/4 136/39/4 143/40/4
f 41/41/1 44/120/1 53/42/1
f 45/44/1 47/125/1 50/45/1
f 71/47/1 70/133/1 79/48/1
f 110/111/1 180/110/1 93/54/1
f 180/110/1 186/86/1 93/54/1
f 184/52/1 190/154/1 90/53/1
f 190/154/1 113/155/1 90/53/1
f 93/54/1 186/86/1 184/52/1
f 158/55/1 157/85/1 92/56/1
f 307/58/2 149/58/2 130/59/2
f 170/60/3 88/164/3 95/61/3
f 168/63/3 169/1/3 172/3/3
f 155/2/1 156/3/1 159/1/1
f 89/7/3 139/9/3 140/8/3
f 161/10/1 162/12/1 153/11/1
f 40/66/4 314/66/4 323/67/4
f 124/19/1 238/90/1 248/18/1
f 122/22/1 244/91/1 241/21/1
f 120/25/1 228/24/1 239/68/1
f 118/27/1 234/92/1 230/26/1
f 119/70/1 116/93/1 229/71/1
f 235/148/1 117/156/1 197/73/1
f 117/156/1 114/33/1 197/73/1
f 195/34/1 115/158/1 112/36/1
f 112/36/1 189/94/1 188/35/1
f 52/46/2 322/46/2 315/44/2
f 146/74/3 133/119/3 131/38/3
f 144/42/3 135/120/3 132/41/3
f 143/40/3 136/39/3 134/75/3
f 320/77/3 317/329/3 137/78/3
f 299/80/4 318/80/4 319/81/4
f 175/48/3 166/133/3 167/47/3
f 11/54/4 93/54/4 90/53/4
f 9/57/2 91/57/2 92/56/2
f 150/82/3 129/87/3 84/83/3
f 7/7/4 89/7/4 94/65/4
f 63/85/4 157/85/4 158/55/4
f 184/52/2 186/86/2 187/86/2
f 59/17/2 151/17/2 128/15/2
f 291/87/4 129/87/4 150/82/4
f 246/88/4 245/88/4 126/89/4
f 240/90/4 238/90/4 124/19/4
f 242/91/4 244/91/4 122/22/4
f 286/68/2 263/69/2 123/69/2
f 233/92/4 234/92/4 118/27/4
f 232/71/4 229/71/4 116/93/4
f 284/72/2 259/70/2 119/70/2
f 192/94/4 189/94/4 112/36/4
f 216/95/2 209/95/2 96/96/2
f 278/97/3 253/167/3 256/98/3
f 214/100/2 205/100/2 100/101/2
f 225/102/2 227/102/2 102/103/2
f 280/104/4 255/105/4 107/105/4
f 219/106/2 221/106/2 106/107/2
f 199/108/2 201/108/2 108/109/2
f 181/110/2 180/110/2 110/111/2
f 3/83/1 292/170/1 309/112/1
f 293/113/1 40/66/1 57/67/1
f 326/115/3 311/330/3 128/15/3
f 295/116/1 42/119/1 55/74/1
f 324/118/3 313/331/3 130/59/3
f 56/43/2 147/43/2 132/41/2
f 42/119/4 133/119/4 146/74/4
f 54/76/2 145/76/2 134/75/2
f 44/120/4 135/120/4 144/42/4
f 141/45/3 138/125/3 316/121/3
f 43/75/1 298/171/1 303/123/1
f 51/124/2 142/79/2 137/78/2
f 47/125/4 138/125/4 141/45/4
f 49/8/2 140/8/2 139/9/2
f 46/78/1 300/172/1 301/126/1
f 74/60/4 170/60/4 171/62/4
f 267/127/3 266/165/3 271/128/3
f 274/130/5 198/73/5 197/73/5
f 197/73/5 196/32/5 274/130/5
f 61/11/4 153/11/4 162/12/4
f 65/10/2 161/10/2 154/49/2
f 67/5/2 163/5/2 164/4/2
f 68/4/2 164/4/2 152/50/2
f 2/132/3 14/161/3 217/13/3
f 14/161/3 210/160/3 217/13/3
f 246/88/3 36/89/3 250/14/3
f 36/89/3 1/131/3 250/14/3
f 2/132/3 217/13/3 250/14/3
f 72/63/4 168/63/4 173/2/4
f 76/3/2 172/3/2 169/1/2
f 70/133/4 166/133/4 175/48/4
f 78/49/2 174/49/2 167/47/2
f 80/50/2 176/50/2 177/4/2
f 81/4/2 177/4/2 165/5/2
f 200/134/4 23/135/4 109/135/4
f 178/136/4 25/137/4 111/137/4
f 208/138/1 101/157/1 98/139/1
f 223/141/4 19/142/4 103/142/4
f 183/143/6 182/143/6 201/108/6
f 204/144/6 200/134/6 202/134/6
f 277/145/2 220/145/2 104/146/2
f 238/90/7 240/90/7 247/18/7
f 244/91/7 242/91/7 243/21/7
f 284/72/7 236/72/7 283/147/7
f 236/72/7 229/71/7 283/147/7
f 198/73/7 237/148/7 235/148/7
f 231/26/7 230/26/7 234/92/7
f 249/14/7 245/88/7 246/88/7
f 225/102/3 18/103/3 20/149/3
f 215/151/4 15/152/4 99/152/4
f 108/109/1 201/108/1 111/137/1
f 201/108/1 182/143/1 111/137/1
f 193/35/5 194/34/5 195/34/5
f 206/140/8 275/140/8 276/153/8
f 276/153/8 207/138/8 208/138/8
f 23/135/3 200/134/3 204/144/3
f 204/144/3 219/106/3 21/107/3
f 82/131/1 126/89/1 249/14/1
f 126/89/1 245/88/1 249/14/1
f 211/160/1 97/161/1 212/13/1
f 97/161/1 83/132/1 212/13/1
f 82/131/1 249/14/1 83/132/1
f 191/154/2 27/155/2 113/155/2
f 222/150/1 105/149/1 102/103/1
f 265/2/4 155/2/4 160/64/4
f 237/148/2 30/156/2 117/156/2
f 205/100/1 226/141/1 103/142/1
f 207/138/4 17/157/4 101/157/4
f 106/107/1 221/106/1 203/144/1
f 203/144/1 202/134/1 109/135/1
f 194/34/2 28/158/2 115/158/2
f 247/18/2 37/20/2 127/20/2
f 260/159/3 283/147/3 232/71/3
f 275/140/2 206/140/2 98/139/2
f 224/150/4 20/149/4 105/149/4
f 243/21/2 35/23/2 125/23/2
f 186/86/9 180/110/9 181/110/9
f 183/143/9 178/136/9 179/136/9
f 185/52/10 191/154/10 190/154/10
f 193/35/10 188/35/10 189/94/10
f 216/95/3 13/96/3 15/152/3
f 10/56/3 63/85/3 64/55/3
f 214/100/3 16/101/3 19/142/3
f 210/160/4 14/161/4 97/161/4
f 231/26/2 32/28/2 121/28/2
f 209/95/1 213/151/1 99/152/1
f 257/162/3 30/156/3 198/73/3
f 30/156/3 237/148/3 198/73/3
f 215/151/8 213/151/8 209/95/8
f 220/145/8 277/145/8 278/97/8
f 278/97/8 279/99/8 220/145/8
f 279/99/8 280/104/8 218/104/8
f 223/141/8 226/141/8 205/100/8
f 286/68/7 239/68/7 285/29/7
f 239/68/7 228/24/7 285/29/7
f 228/24/7 281/24/7 282/163/7
f 204/144/8 203/144/8 221/106/8
f 227/102/8 225/102/8 224/150/8
f 217/13/8 210/160/8 211/160/8
f 218/104/1 107/105/1 104/146/1
f 25/137/3 178/136/3 183/143/3
f 183/143/3 199/108/3 25/137/3
f 289/61/2 95/61/2 88/164/2
f 187/86/3 181/110/3 11/54/3
f 181/110/3 24/111/3 11/54/3
f 11/54/3 8/53/3 185/52/3
f 187/86/3 11/54/3 185/52/3
f 8/53/3 27/155/3 191/154/3
f 264/31/11 263/69/11 286/68/11
f 260/159/11 259/70/11 284/72/11
f 256/98/12 255/105/12 280/104/12
f 270/129/11 269/1/11 268/3/11
f 266/165/12 265/2/12 272/64/12
f 282/163/12 281/24/12 262/25/12
f 274/130/12 273/32/12 258/33/12
f 276/153/11 275/140/11 252/139/11
f 278/97/11 277/145/11 254/146/11
f 276/153/3 251/166/3 17/157/3
f 290/168/13 289/61/13 288/164/13
f 292/170/14 291/87/14 310/82/14
f 308/114/13 307/58/13 294/59/13
f 306/117/13 305/37/13 296/38/13
f 298/171/14 297/39/14 304/40/14
f 300/172/14 299/80/14 302/81/14
f 287/169/1 74/60/1 75/62/1
f 312/173/12 311/330/12 326/115/12
f 314/66/12 313/331/12 324/118/12
f 322/46/11 321/122/11 316/121/11
f 318/80/12 317/329/12 320/77/12
f 39/173/4 312/173/4 325/16/4
f 453/174/4 392/175/4 413/175/4
f 327/176/8 378/177/8 357/177/8
f 330/179/7 345/180/7 346/180/7
f 344/182/7 343/243/7 348/183/7
f 461/184/2 406/185/2 399/185/2
f 342/186/7 341/187/7 350/187/7
f 340/188/7 339/189/7 352/189/7
f 465/190/2 412/191/2 393/191/2
f 338/192/7 337/250/7 354/193/7
f 487/194/4 446/195/4 423/195/4
f 485/196/4 442/197/4 427/197/4
f 375/198/8 374/199/8 361/199/8
f 483/200/4 440/201/4 429/201/4
f 479/202/2 432/203/2 437/203/2
f 371/204/8 370/262/8 365/205/8
f 368/206/8 332/207/8 331/207/8
f 335/208/7 334/209/7 333/209/7
f 417/210/8 388/210/8 389/211/8
f 419/212/7 450/212/7 379/213/7
f 403/215/8 402/215/8 382/216/8
f 405/218/8 400/332/8 401/219/8
f 407/220/8 398/220/8 399/185/8
f 409/221/8 396/221/8 397/222/8
f 411/223/8 394/223/8 395/224/8
f 413/175/8 392/175/8 393/191/8
f 415/225/8 390/333/8 391/226/8
f 421/227/7 448/334/7 449/228/7
f 423/195/7 446/195/7 447/229/7
f 425/230/7 444/230/7 445/231/7
f 427/197/7 442/197/7 443/232/7
f 429/201/7 440/201/7 441/233/7
f 431/234/7 438/335/7 439/235/7
f 433/236/7 436/236/7 437/203/7
f 383/237/7 384/237/7 435/238/7
f 385/239/8 386/239/8 387/240/8
f 332/207/4 384/237/4 383/237/4
f 334/209/4 386/239/4 385/239/4
f 347/182/2 404/219/2 401/219/2
f 345/180/4 402/215/4 403/215/4
f 489/241/4 448/334/4 421/227/4
f 343/243/4 400/332/4 405/218/4
f 349/186/2 408/222/2 397/222/2
f 459/244/7 458/245/7 463/245/7
f 351/188/2 410/224/2 395/224/2
f 341/187/4 396/221/4 409/221/4
f 457/246/4 398/220/4 407/220/4
f 339/189/4 394/223/4 411/223/4
f 353/192/2 414/226/2 391/226/2
f 455/247/7 454/248/7 467/248/7
f 355/249/2 416/211/2 389/211/2
f 337/250/4 390/333/4 415/225/4
f 356/208/2 418/240/2 387/240/2
f 336/249/7 452/251/7 469/251/7
f 358/252/2 420/228/2 449/228/2
f 378/177/4 450/212/4 419/212/4
f 359/253/2 422/229/2 447/229/2
f 377/252/8 490/254/8 471/254/8
f 360/198/2 424/231/2 445/231/2
f 376/253/8 488/255/8 473/255/8
f 362/256/2 426/232/2 443/232/2
f 374/199/4 444/230/4 425/230/4
f 363/257/2 428/233/2 441/233/2
f 373/256/8 486/258/8 475/258/8
f 364/204/2 430/235/2 439/235/2
f 372/257/8 484/259/8 477/259/8
f 481/260/8 369/261/8 366/261/8
f 370/262/4 438/335/4 431/234/4
f 367/206/2 434/238/2 435/238/2
f 369/261/4 436/236/4 433/236/4
f 462/244/15 461/184/15 460/184/15
f 458/245/16 457/246/16 464/246/16
f 466/247/15 465/190/15 456/190/15
f 454/248/16 453/174/16 468/174/16
f 452/251/16 451/263/16 470/263/16
f 490/254/17 489/241/17 472/242/17
f 488/255/17 487/194/17 474/194/17
f 486/258/17 485/196/17 476/196/17
f 484/259/17 483/200/17 478/200/17
f 480/260/18 479/202/18 482/202/18
f 451/263/4 388/210/4 417/210/4
f 491/264/3 492/267/3 497/265/3
f 494/267/7 498/265/7 497/265/7
f 491/264/8 496/266/8 495/266/8
f 493/264/1 495/266/1 498/265/1
f 499/268/3 504/271/3 505/269/3
f 505/269/8 506/269/8 502/270/8
f 503/271/7 504/271/7 499/268/7
f 506/269/1 503/271/1 501/268/1
f 507/264/1 512/266/1 513/265/1
f 513/265/7 514/265/7 510/267/7
f 511/266/8 512/266/8 507/264/8
f 514/265/3 511/266/3 509/264/3
f 515/268/1 516/270/1 521/269/1
f 518/270/8 522/269/8 521/269/8
f 515/268/7 520/271/7 519/271/7
f 517/268/3 519/271/3 522/269/3
f 539/272/19 559/273/19 562/273/19
f 543/274/19 563/275/19 566/275/19
f 528/276/1 530/286/1 523/277/1
f 527/274/3 525/275/3 524/279/3
f 586/288/20 568/275/20 585/281/20
f 568/275/20 565/275/20 585/281/20
f 565/275/20 583/288/20 584/281/20
f 567/273/20 556/282/20 557/282/20
f 569/275/20 558/279/20 524/279/20
f 582/287/20 564/283/20 581/284/20
f 564/283/20 561/283/20 581/284/20
f 558/279/21 538/280/21 529/280/21
f 545/274/19 565/275/19 568/275/19
f 528/276/19 526/278/19 560/278/19
f 547/272/19 567/273/19 570/273/19
f 549/274/19 569/275/19 525/275/19
f 526/278/20 523/277/20 551/277/20
f 541/285/19 561/283/19 564/283/19
f 563/275/20 554/281/20 555/281/20
f 523/277/21 530/286/21 531/286/21
f 582/287/3 573/295/3 544/285/3
f 583/288/1 565/275/1 545/274/1
f 554/281/21 534/280/21 535/280/21
f 586/288/3 577/289/3 548/274/3
f 556/282/21 536/290/21 537/290/21
f 558/279/1 569/275/1 549/274/1
f 557/282/3 537/290/3 550/272/3
f 556/282/1 567/273/1 547/272/1
f 580/294/20 562/273/20 579/291/20
f 562/273/20 559/273/20 579/291/20
f 584/281/21 575/280/21 578/280/21
f 555/281/3 535/280/3 546/274/3
f 554/281/1 563/275/1 543/274/1
f 553/284/21 533/292/21 574/292/21
f 553/284/1 561/283/1 541/285/1
f 552/291/21 532/290/21 572/290/21
f 552/291/1 559/273/1 539/272/1
f 551/277/3 531/286/3 540/276/3
f 579/291/36 572/290/36 571/293/36
f 581/284/36 574/292/36 573/295/36
f 584/281/37 583/288/37 576/289/37
f 585/281/36 578/280/36 577/289/36
f 580/294/3 571/293/3 542/272/3
f 602/296/25 599/296/25 539/272/25
f 606/296/25 603/296/25 543/272/25
f 587/297/1 530/280/1 528/274/1
f 527/276/3 529/286/3 588/299/3
f 605/300/26 608/300/26 617/301/26
f 608/300/26 618/302/26 617/301/26
f 617/301/26 616/301/26 605/300/26
f 597/303/26 596/303/26 607/296/26
f 588/299/26 598/299/26 609/300/26
f 601/298/26 604/298/26 613/297/26
f 604/298/26 614/305/26 613/297/26
f 529/286/27 538/286/27 598/299/27
f 608/300/25 605/300/25 545/276/25
f 600/298/25 590/298/25 528/274/25
f 610/296/25 607/296/25 547/272/25
f 589/300/25 609/300/25 549/276/25
f 591/297/26 587/297/26 590/298/26
f 604/298/25 601/298/25 541/274/25
f 595/304/26 594/304/26 603/296/26
f 531/280/27 530/280/27 587/297/27
f 544/274/3 573/289/3 614/305/3
f 615/302/1 576/306/1 545/276/1
f 535/290/27 534/290/27 594/304/27
f 548/276/3 577/306/3 618/302/3
f 537/290/27 536/290/27 596/303/27
f 598/299/1 538/286/1 549/276/1
f 550/272/3 537/290/3 597/303/3
f 596/303/1 536/290/1 547/272/1
f 599/296/26 602/296/26 611/304/26
f 602/296/26 612/307/26 611/304/26
f 578/286/27 575/286/27 616/301/27
f 546/272/3 535/290/3 595/304/3
f 594/304/1 534/290/1 543/272/1
f 574/280/27 533/280/27 593/297/27
f 593/297/1 533/280/1 541/274/1
f 572/290/27 532/290/27 592/304/27
f 592/304/1 532/290/1 539/272/1
f 540/274/3 531/280/3 591/297/3
f 611/304/38 612/307/38 571/293/38
f 613/297/38 614/305/38 573/289/38
f 576/306/39 615/302/39 616/301/39
f 617/301/38 618/302/38 577/306/38
f 542/272/3 571/293/3 612/307/3
f 624/308/4 626/308/4 625/309/4
f 619/310/8 623/311/8 625/311/8
f 622/312/7 626/313/7 624/313/7
f 620/312/3 624/313/3 623/311/3
f 621/310/1 625/311/1 626/313/1
f 629/314/1 630/318/1 627/315/1
f 631/317/3 632/316/3 634/315/3
f 630/318/30 633/318/30 634/315/30
f 627/315/31 634/315/31 632/316/31
f 629/314/40 628/316/40 632/316/40
f 629/314/1 636/320/1 635/319/1
f 631/317/3 633/318/3 638/319/3
f 638/319/33 633/318/33 630/318/33
f 637/320/34 638/319/34 635/319/34
f 629/314/41 631/317/41 637/320/41
f 641/321/1 642/324/1 640/322/1
f 645/322/3 646/324/3 643/321/3
f 640/322/2 645/322/2 644/323/2
f 642/324/7 646/324/7 645/322/7
f 639/323/8 644/323/8 643/321/8
f 641/321/4 643/321/4 646/324/4
f 649/325/1 650/328/1 648/326/1
f 653/326/3 654/328/3 651/325/3
f 650/328/7 654/328/7 653/326/7
f 647/327/8 652/327/8 651/325/8
f 649/325/4 651/325/4 654/328/4
f 648/326/2 653/326/2 652/327/2
