# Blender 4.4.0
# www.blender.org
mtllib Bld_01_Fence_Wood_Gate_Single_Short_Sides_01.mtl
o Bld_01_Fence_Wood_Gate_Single_Short_01
v -1.522884 0.085061 -0.037724
v -1.407629 0.085061 -0.037724
v -1.522884 0.085061 0.052039
v -1.407629 0.085061 0.052039
v -1.522884 1.120910 0.052039
v -1.522884 1.120910 -0.037724
v -1.407629 1.120910 -0.037724
v -1.407629 1.120910 0.052039
v -1.407628 0.993238 -0.013241
v -0.507628 0.993238 -0.013241
v -1.407628 0.993238 0.027558
v -0.507628 0.993238 0.027558
v -1.407628 1.089857 0.027558
v -1.407628 1.089857 -0.013241
v -0.507628 1.089857 -0.013241
v -0.507628 1.089857 0.027558
v -1.407628 0.103381 -0.013241
v -0.507628 0.103381 -0.013241
v -1.407628 0.103381 0.027557
v -0.507628 0.103381 0.027557
v -1.407628 0.200000 0.027557
v -1.407628 0.200000 -0.013241
v -0.507628 0.200000 -0.013241
v -0.507628 0.200000 0.027557
v -1.407628 0.400000 -0.013241
v -0.507628 0.400000 -0.013241
v -1.407628 0.400000 0.027557
v -0.507628 0.400000 0.027557
v -1.407628 0.496619 0.027557
v -1.407628 0.496619 -0.013241
v -0.507628 0.496619 -0.013241
v -0.507628 0.496619 0.027557
v -1.407628 0.696619 -0.013241
v -0.507628 0.696619 -0.013241
v -1.407628 0.696619 0.027558
v -0.507628 0.696619 0.027558
v -1.407628 0.793238 0.027558
v -1.407628 0.793238 -0.013241
v -0.507628 0.793238 -0.013241
v -0.507628 0.793238 0.027558
v -0.507628 0.085061 -0.037724
v -0.392373 0.085061 -0.037724
v -0.507628 0.085061 0.052039
v -0.392373 0.085061 0.052039
v -0.507628 1.120910 0.052039
v -0.507628 1.120910 -0.037724
v -0.392373 1.120910 -0.037724
v -0.392373 1.120910 0.052039
v -1.413167 0.097269 -0.027205
v -0.505131 0.951076 -0.027205
v -1.413167 0.097269 -0.013242
v -0.505131 0.951076 -0.013242
v -1.410615 0.232291 -0.013242
v -1.410615 0.232291 -0.027205
v -0.505625 1.083234 -0.027205
v -0.505625 1.083234 -0.013242
v -1.522884 0.793238 0.027558
vn -0.0000 -1.0000 -0.0000
vn -0.0000 1.0000 -0.0000
vn -0.0000 -0.0000 1.0000
vn -0.0000 -0.0000 -1.0000
vn 1.0000 -0.0000 -0.0000
vn -1.0000 -0.0000 -0.0000
vn 0.6850 -0.7285 -0.0000
vn -0.6850 0.7285 -0.0000
vt 0.602932 0.820169
vt 0.602931 0.820169
vt 0.602931 0.906266
vt 0.602932 0.906266
vt 0.592253 0.931744
vt 0.592244 0.931744
vt 0.592244 0.940495
vt 0.592253 0.940495
vt 0.592253 0.851148
vt 0.592244 0.851148
vt 0.592244 0.859899
vt 0.592253 0.859899
vt 0.592253 0.878013
vt 0.592244 0.878013
vt 0.592244 0.886764
vt 0.592253 0.886764
vt 0.592253 0.904879
vt 0.592244 0.904879
vt 0.592244 0.913630
vt 0.592253 0.913630
vt 0.602938 0.820169
vt 0.602937 0.820169
vt 0.602937 0.906266
vt 0.602938 0.906266
vt 0.592253 0.927925
vt 0.592243 0.850595
vt 0.592243 0.862824
vt 0.592253 0.939895
s 0
usemtl Texture_Map
f 2/1/1 3/2/1 1/2/1
f 5/3/2 7/4/2 6/3/2
f 8/4/3 3/2/3 4/1/3
f 6/3/4 2/1/4 1/2/4
f 7/4/5 4/1/5 2/1/5
f 5/3/6 1/2/6 3/2/6
f 10/5/1 11/6/1 9/6/1
f 13/7/2 15/8/2 14/7/2
f 16/8/3 11/6/3 12/5/3
f 18/9/1 19/10/1 17/10/1
f 21/11/2 23/12/2 22/11/2
f 24/12/3 19/10/3 20/9/3
f 22/11/4 18/9/4 17/10/4
f 26/13/1 27/14/1 25/14/1
f 29/15/2 31/16/2 30/15/2
f 32/16/3 27/14/3 28/13/3
f 30/15/4 26/13/4 25/14/4
f 34/17/1 35/18/1 33/18/1
f 37/19/2 39/20/2 38/19/2
f 40/20/3 35/18/3 36/17/3
f 38/19/4 34/17/4 33/18/4
f 42/21/1 43/22/1 41/22/1
f 45/23/2 47/24/2 46/23/2
f 48/24/3 43/22/3 44/21/3
f 46/23/4 42/21/4 41/22/4
f 47/24/5 44/21/5 42/21/5
f 45/23/6 41/22/6 43/22/6
f 50/25/7 51/26/7 49/26/7
f 53/27/8 55/28/8 54/27/8
f 52/25/3 53/27/3 51/26/3
f 54/27/4 50/25/4 49/26/4
f 14/7/4 10/5/4 9/6/4
f 2/1/1 4/1/1 3/2/1
f 5/3/2 8/4/2 7/4/2
f 8/4/3 5/3/3 3/2/3
f 6/3/4 7/4/4 2/1/4
f 7/4/5 8/4/5 4/1/5
f 5/3/6 6/3/6 1/2/6
f 10/5/1 12/5/1 11/6/1
f 13/7/2 16/8/2 15/8/2
f 16/8/3 13/7/3 11/6/3
f 18/9/1 20/9/1 19/10/1
f 21/11/2 24/12/2 23/12/2
f 24/12/3 21/11/3 19/10/3
f 22/11/4 23/12/4 18/9/4
f 26/13/1 28/13/1 27/14/1
f 29/15/2 32/16/2 31/16/2
f 32/16/3 29/15/3 27/14/3
f 30/15/4 31/16/4 26/13/4
f 34/17/1 36/17/1 35/18/1
f 37/19/2 40/20/2 39/20/2
f 40/20/3 37/19/3 35/18/3
f 38/19/4 39/20/4 34/17/4
f 42/21/1 44/21/1 43/22/1
f 45/23/2 48/24/2 47/24/2
f 48/24/3 45/23/3 43/22/3
f 46/23/4 47/24/4 42/21/4
f 47/24/5 48/24/5 44/21/5
f 45/23/6 46/23/6 41/22/6
f 50/25/7 52/25/7 51/26/7
f 53/27/8 56/28/8 55/28/8
f 52/25/3 56/28/3 53/27/3
f 54/27/4 55/28/4 50/25/4
f 14/7/4 15/8/4 10/5/4
o Bld_01_Fence_Wood_Gate_Single_Short_Sides_01
v -0.392372 0.000234 0.058284
v -0.277116 0.000234 0.058284
v -0.392372 0.000234 -0.056971
v -0.277116 0.000234 -0.056971
v -0.392372 1.180267 -0.056971
v -0.392372 1.180267 0.058284
v -0.277116 1.180267 0.058284
v -0.277116 1.180267 -0.056971
v -1.857628 0.993238 0.021055
v -0.057628 0.993238 0.021055
v -1.857628 0.993238 -0.019744
v -0.057628 0.993238 -0.019744
v -1.857628 1.089858 -0.019744
v -1.857628 1.089858 0.021055
v -0.057628 1.089858 0.021055
v -0.057628 1.089858 -0.019744
v -1.857628 0.103381 0.021055
v -0.057628 0.103381 0.021055
v -1.857628 0.103381 -0.019744
v -0.057628 0.103381 -0.019744
v -1.857628 0.200000 -0.019744
v -1.857628 0.200000 0.021055
v -0.057628 0.200000 0.021055
v -0.057628 0.200000 -0.019744
v -1.857628 0.400000 0.021055
v -0.057628 0.400000 0.021055
v -1.857628 0.400000 -0.019744
v -0.057628 0.400000 -0.019744
v -1.857628 0.496619 -0.019744
v -1.857628 0.496619 0.021055
v -0.057628 0.496619 0.021055
v -0.057628 0.496619 -0.019744
v -1.857628 0.696619 0.021055
v -0.057628 0.696619 0.021055
v -1.857628 0.696619 -0.019744
v -0.057628 0.696619 -0.019744
v -1.857628 0.793238 -0.019744
v -1.857628 0.793238 0.021055
v -0.057628 0.793238 0.021055
v -0.057628 0.793238 -0.019744
v -1.638139 0.993238 0.021055
v -0.277116 0.993238 0.021055
v -0.277116 0.993238 -0.019744
v -1.638139 0.993238 -0.019744
v -0.277116 1.089858 0.021055
v -1.638139 1.089858 0.021055
v -1.638139 1.089858 -0.019744
v -0.277116 1.089858 -0.019744
v -1.638139 0.696619 0.021055
v -0.277116 0.696619 0.021055
v -0.277116 0.696619 -0.019744
v -1.638139 0.696619 -0.019744
v -0.277116 0.793238 0.021055
v -1.638139 0.793238 0.021055
v -1.638139 0.793238 -0.019744
v -0.277116 0.793238 -0.019744
v -1.638139 0.400000 0.021055
v -0.277116 0.400000 0.021055
v -0.277116 0.400000 -0.019744
v -1.638139 0.400000 -0.019744
v -0.277116 0.496619 0.021055
v -1.638139 0.496619 0.021055
v -1.638139 0.496619 -0.019744
v -0.277116 0.496619 -0.019744
v -1.638139 0.103381 0.021055
v -0.277116 0.103381 0.021055
v -0.277116 0.103381 -0.019744
v -1.638139 0.103381 -0.019744
v -0.277116 0.200000 0.021055
v -1.638139 0.200000 0.021055
v -1.638139 0.200000 -0.019744
v -0.277116 0.200000 -0.019744
v -1.638139 0.000234 0.058284
v -1.522884 0.000234 0.058284
v -1.638139 0.000234 -0.056971
v -1.522884 0.000234 -0.056971
v -1.638139 1.180267 -0.056971
v -1.638139 1.180267 0.058284
v -1.522884 1.180267 0.058284
v -1.522884 1.180267 -0.056971
vn -0.0000 1.0000 -0.0000
vn -0.0000 -0.0000 -1.0000
vn -0.0000 -0.0000 1.0000
vn 1.0000 -0.0000 -0.0000
vn -1.0000 -0.0000 -0.0000
vn -0.0000 -1.0000 -0.0000
vt 0.602938 0.911199
vt 0.602938 0.911199
vt 0.602938 0.813119
vt 0.602938 0.813119
vt 0.592239 0.931744
vt 0.592241 0.940495
vt 0.592241 0.931744
vt 0.592239 0.940495
vt 0.592255 0.931744
vt 0.592258 0.940495
vt 0.592258 0.931744
vt 0.592239 0.851148
vt 0.592241 0.859899
vt 0.592241 0.851148
vt 0.592239 0.859899
vt 0.592255 0.851148
vt 0.592258 0.859899
vt 0.592258 0.851148
vt 0.592239 0.878013
vt 0.592241 0.886764
vt 0.592241 0.878013
vt 0.592239 0.886764
vt 0.592255 0.878013
vt 0.592258 0.886764
vt 0.592258 0.878013
vt 0.592239 0.904879
vt 0.592241 0.913630
vt 0.592241 0.904879
vt 0.592239 0.913630
vt 0.592255 0.904879
vt 0.592258 0.913630
vt 0.592258 0.904879
vt 0.592255 0.940495
vt 0.592255 0.913630
vt 0.592255 0.886764
vt 0.592255 0.859899
vt 0.602931 0.911199
vt 0.602931 0.911199
vt 0.602931 0.813119
vt 0.602931 0.813119
s 0
usemtl Texture_Map
f 64/29/9 62/30/9 63/30/9
f 60/31/10 65/29/10 61/32/10
f 59/32/11 63/30/11 58/31/11
f 61/32/12 64/29/12 59/32/12
f 58/31/13 62/30/13 60/31/13
f 68/33/10 104/34/10 101/35/10
f 103/34/9 70/36/9 71/36/9
f 100/37/10 73/38/10 69/39/10
f 68/33/14 98/35/14 66/33/14
f 76/40/10 128/41/10 125/42/10
f 127/41/9 78/43/9 79/43/9
f 124/44/10 81/45/10 77/46/10
f 76/40/14 122/42/14 74/40/14
f 84/47/10 120/48/10 117/49/10
f 119/48/9 86/50/9 87/50/9
f 116/51/10 89/52/10 85/53/10
f 84/47/14 114/49/14 82/47/14
f 92/54/10 112/55/10 109/56/10
f 111/55/9 94/57/9 95/57/9
f 108/58/10 97/59/10 93/60/10
f 92/54/14 106/56/14 90/54/14
f 100/37/14 67/39/14 99/37/14
f 72/38/9 105/61/9 102/61/9
f 91/60/11 110/62/11 107/58/11
f 98/35/11 71/36/11 66/33/11
f 108/58/14 91/60/14 107/58/14
f 96/59/9 113/62/9 110/62/9
f 83/53/11 118/63/11 115/51/11
f 106/56/11 95/57/11 90/54/11
f 116/51/14 83/53/14 115/51/14
f 88/52/9 121/63/9 118/63/9
f 75/46/11 126/64/11 123/44/11
f 114/49/11 87/50/11 82/47/11
f 124/44/14 75/46/14 123/44/14
f 80/45/9 129/64/9 126/64/9
f 122/42/11 79/43/11 74/40/11
f 67/39/11 102/61/11 99/37/11
f 136/65/9 134/66/9 135/66/9
f 132/67/10 137/65/10 133/68/10
f 131/68/11 135/66/11 130/67/11
f 133/68/12 136/65/12 131/68/12
f 130/67/13 134/66/13 132/67/13
f 64/29/9 65/29/9 62/30/9
f 60/31/10 62/30/10 65/29/10
f 59/32/11 64/29/11 63/30/11
f 61/32/12 65/29/12 64/29/12
f 58/31/13 63/30/13 62/30/13
f 68/33/10 70/36/10 104/34/10
f 103/34/9 104/34/9 70/36/9
f 100/37/10 105/61/10 73/38/10
f 68/33/14 101/35/14 98/35/14
f 76/40/10 78/43/10 128/41/10
f 127/41/9 128/41/9 78/43/9
f 124/44/10 129/64/10 81/45/10
f 76/40/14 125/42/14 122/42/14
f 84/47/10 86/50/10 120/48/10
f 119/48/9 120/48/9 86/50/9
f 116/51/10 121/63/10 89/52/10
f 84/47/14 117/49/14 114/49/14
f 92/54/10 94/57/10 112/55/10
f 111/55/9 112/55/9 94/57/9
f 108/58/10 113/62/10 97/59/10
f 92/54/14 109/56/14 106/56/14
f 100/37/14 69/39/14 67/39/14
f 72/38/9 73/38/9 105/61/9
f 91/60/11 96/59/11 110/62/11
f 98/35/11 103/34/11 71/36/11
f 108/58/14 93/60/14 91/60/14
f 96/59/9 97/59/9 113/62/9
f 83/53/11 88/52/11 118/63/11
f 106/56/11 111/55/11 95/57/11
f 116/51/14 85/53/14 83/53/14
f 88/52/9 89/52/9 121/63/9
f 75/46/11 80/45/11 126/64/11
f 114/49/11 119/48/11 87/50/11
f 124/44/14 77/46/14 75/46/14
f 80/45/9 81/45/9 129/64/9
f 122/42/11 127/41/11 79/43/11
f 67/39/11 72/38/11 102/61/11
f 136/65/9 137/65/9 134/66/9
f 132/67/10 134/66/10 137/65/10
f 131/68/11 136/65/11 135/66/11
f 133/68/12 137/65/12 136/65/12
f 130/67/13 135/66/13 134/66/13
