# Blender 4.4.0
# www.blender.org
mtllib Bld_01_Fence_Wood_Gate_Double_Worned_Handle_01.mtl
o Bld_01_Fence_Wood_Gate_Double_Left_Worned_01
v -1.857628 0.085061 -0.044993
v -1.742372 0.093831 -0.044993
v -1.857628 0.085061 0.044769
v -1.742372 0.079228 0.044769
v -1.857628 1.120909 0.044769
v -1.742372 1.120909 -0.044993
v -1.742372 1.120909 0.044769
v -1.742372 0.993238 -0.020511
v -1.084815 0.993238 -0.020511
v -1.742372 0.993238 0.020288
v -1.084815 0.993238 0.020288
v -1.742372 1.089857 0.020288
v -1.084815 1.089857 -0.020511
v -1.084815 1.089857 0.020288
v -1.742372 0.103381 -0.020511
v -1.084815 0.103381 -0.020511
v -1.742372 0.103381 0.020288
v -1.084815 0.103381 0.020288
v -1.742372 0.200000 0.020288
v -1.742372 0.200000 -0.020511
v -1.084815 0.200000 -0.020511
v -1.084815 0.200000 0.020288
v -1.743944 0.379233 -0.020511
v -1.743944 0.379233 0.020288
v -1.082440 0.420628 0.020288
v -1.744747 0.475991 0.020288
v -1.744747 0.475991 -0.020511
v -1.082347 0.517442 -0.020511
v -1.082347 0.517442 0.020288
v -1.742372 0.696619 -0.020511
v -1.742372 0.696619 0.020288
v -1.084815 0.696619 0.020288
v -1.742372 0.793238 0.020288
v -1.742372 0.793238 -0.020511
v -1.084815 0.793238 -0.020511
v -1.084815 0.793238 0.020288
v -0.962155 0.085061 -0.044993
v -1.084815 0.085061 0.044769
v -0.962155 0.085061 0.044769
v -1.084815 1.120909 0.044769
v -1.084815 1.108368 -0.044993
v -0.962155 1.120909 0.044769
v -1.747911 0.097269 -0.034475
v -1.747911 0.097269 -0.020511
v -1.084036 0.954513 -0.020511
v -1.745359 0.212003 -0.020511
v -1.745359 0.212003 -0.034475
v -1.082812 1.083234 -0.034475
v -1.082812 1.083234 -0.020511
v -1.504866 0.696619 0.020288
v -1.504866 0.788216 0.020288
v -1.504866 0.788216 -0.020511
v -1.493006 0.790404 -0.020511
v -1.516726 0.793238 -0.020511
v -1.504866 0.781378 -0.020511
v -1.516726 0.793238 0.020288
v -1.493006 0.790404 0.020288
v -1.504866 0.781378 0.020288
v -1.084815 0.704807 -0.020511
v -1.084815 0.696619 -0.012323
v -1.504866 0.696619 -0.012323
v -1.504866 0.704807 -0.020511
v -1.542925 0.696619 -0.020511
v -1.431766 0.508454 -0.020511
v -1.428950 0.630094 -0.020511
v -1.428950 0.630094 -0.034475
v -1.401823 0.673512 -0.034475
v -1.439826 0.624703 -0.034475
v -1.429095 0.620969 -0.034475
v -1.439826 0.624703 -0.020511
v -1.401823 0.673512 -0.020511
v -1.429095 0.620969 -0.020511
v -1.082373 0.965713 -0.034475
v -1.084036 0.954513 -0.025433
v -1.431766 0.508454 -0.025433
v -1.429925 0.519881 -0.034475
v -1.472835 0.450129 -0.034475
v -1.158300 0.415881 0.020288
v -1.158310 0.506486 0.020288
v -1.158310 0.506486 -0.020511
v -1.141390 0.509152 -0.020511
v -1.175231 0.510238 -0.020511
v -1.158309 0.495735 -0.020511
v -1.175231 0.510238 0.020288
v -1.141390 0.509152 0.020288
v -1.158309 0.495735 0.020288
v -1.082431 0.430063 -0.020511
v -1.082440 0.420628 -0.016077
v -1.158300 0.415881 -0.016077
v -1.158301 0.424399 -0.020511
v -1.201470 0.413179 -0.020511
v -1.413594 1.007073 0.020288
v -1.413594 1.007073 -0.020511
v -1.413594 1.089857 0.020288
v -1.427367 1.003871 -0.020511
v -1.399819 1.003871 -0.020511
v -1.413594 1.018117 -0.020511
v -1.399819 1.003871 0.020288
v -1.427367 1.003871 0.020288
v -1.413594 1.018117 0.020288
v -1.742372 1.074710 -0.020511
v -1.742372 1.089857 -0.005363
v -1.413594 1.089857 -0.005363
v -1.413594 1.074710 -0.020511
v -1.140539 1.089857 -0.020511
v -1.078879 0.766716 -0.044993
v -1.084815 0.766716 -0.039057
v -1.084815 0.594006 -0.044993
v -1.084815 0.886074 -0.039057
v -1.078879 0.886074 -0.044993
v -1.084815 0.976278 -0.044993
v -0.962155 1.104538 -0.044993
v -0.962155 1.120909 -0.028622
v -1.008687 1.120909 -0.044993
v -1.084815 0.085061 -0.017390
v -1.057212 0.085061 -0.044993
v -1.084815 0.223260 -0.044993
v -1.752718 0.800009 -0.044993
v -1.742372 0.847355 -0.044993
v -1.742372 0.800009 -0.034647
v -1.742372 0.639002 -0.044993
v -1.857628 1.102179 -0.044993
v -1.775837 1.120909 -0.044993
v -1.857628 1.120909 -0.026263
vn -0.0506 -0.9987 -0.0000
vn -0.0000 -0.0000 -1.0000
vn -0.0000 -0.0000 1.0000
vn -0.0000 1.0000 -0.0000
vn 0.0337 -0.9994 -0.0000
vn -0.0000 -1.0000 -0.0000
vn 0.0625 -0.9980 -0.0000
vn -0.0600 0.9982 -0.0000
vn 1.0000 -0.0000 -0.0000
vn 0.7752 -0.5960 0.2095
vn -0.8037 0.5950 -0.0000
vn -0.1814 0.9834 -0.0000
vn -0.0069 1.0000 -0.0000
vn 0.3899 0.9209 -0.0000
vn 0.1504 -0.6991 -0.6991
vn -0.0000 -0.7071 -0.7071
vn -0.8481 0.5299 -0.0000
vn -0.7890 0.6143 -0.0000
vn -0.4441 0.8960 -0.0000
vn 0.7887 -0.6148 -0.0000
vn 0.7652 -0.4708 -0.4391
vn 0.6714 -0.5234 -0.5247
vn -0.1557 0.9878 -0.0000
vn -0.1390 0.9903 -0.0000
vn 0.2165 0.9763 -0.0000
vn 0.1191 -0.4584 -0.8807
vn 0.0289 -0.4615 -0.8867
vn -0.0337 -0.9994 -0.0000
vn -0.2264 -0.9740 -0.0000
vn 0.2264 -0.9740 -0.0000
vn -0.0392 0.7066 -0.7066
vn -0.0000 0.7071 -0.7071
vn -0.7069 0.0243 -0.7069
vn -0.7063 -0.0465 -0.7063
vn -0.7071 -0.0000 -0.7071
vn 0.2414 0.6862 -0.6862
vn -0.7002 -0.1398 -0.7002
vn -1.0000 -0.0000 -0.0000
vn 0.6988 -0.1527 -0.6988
vn 0.7064 0.0454 -0.7064
vn -0.1598 0.6980 -0.6980
vn 0.0749 -0.9843 -0.1601
vn 0.8176 -0.5757 -0.0000
vn 0.0317 -0.4251 -0.9046
vn -0.1610 0.9775 -0.1366
vt 0.577740 0.806934
vt 0.577740 0.806839
vt 0.577740 0.819350
vt 0.577740 0.818579
vt 0.577740 0.823500
vt 0.577740 0.823805
vt 0.574624 0.853647
vt 0.574624 0.850335
vt 0.574625 0.850699
vt 0.574625 0.853647
vt 0.574625 0.851188
vt 0.574625 0.850699
vt 0.574626 0.819827
vt 0.574624 0.819827
vt 0.574624 0.823140
vt 0.574626 0.823140
vt 0.574626 0.830448
vt 0.574626 0.830541
vt 0.574624 0.829284
vt 0.574626 0.833279
vt 0.574626 0.830704
vt 0.574626 0.833738
vt 0.574624 0.832602
vt 0.574626 0.833776
vt 0.574625 0.840165
vt 0.574625 0.840165
vt 0.574624 0.840165
vt 0.574625 0.843381
vt 0.574625 0.843071
vt 0.574624 0.843478
vt 0.574625 0.843478
vt 0.577740 0.818036
vt 0.577740 0.819981
vt 0.577740 0.823539
vt 0.577740 0.823805
vt 0.577740 0.806934
vt 0.577740 0.806934
vt 0.574625 0.831715
vt 0.574625 0.833714
vt 0.574624 0.819618
vt 0.574625 0.839373
vt 0.574625 0.837572
vt 0.574624 0.823551
vt 0.574625 0.837700
vt 0.574625 0.843306
vt 0.574626 0.843478
vt 0.574625 0.840446
vt 0.574626 0.840165
vt 0.574626 0.840446
vt 0.574625 0.837885
vt 0.574626 0.853420
vt 0.574625 0.834106
vt 0.574626 0.849007
vt 0.574626 0.849391
vt 0.574626 0.833647
vt 0.574626 0.834023
vt 0.574626 0.830833
vt 0.574626 0.831027
vt 0.574626 0.850335
vt 0.574625 0.850809
vt 0.574625 0.853128
vt 0.574626 0.853647
vt 0.574626 0.853647
vt 0.574624 0.853128
vt 0.577740 0.823805
vt 0.577740 0.815223
vt 0.577740 0.821450
vt 0.577740 0.809185
vt 0.577740 0.815956
vt 0.577740 0.823805
vt 0.577740 0.807077
vt 0.577740 0.823601
s 0
usemtl Texture_Map
f 1/1/1 4/2/1 3/1/1
f 119/3/2 118/4/2 122/5/2
f 7/6/3 3/1/3 4/2/3
f 7/6/4 6/6/4 123/6/4
f 12/7/3 10/8/3 99/9/3
f 94/10/3 100/11/3 98/12/3
f 95/9/5 10/8/5 8/8/5
f 16/13/6 17/14/6 15/14/6
f 19/15/4 21/16/4 20/15/4
f 22/16/3 17/14/3 18/13/3
f 20/15/2 16/13/2 15/14/2
f 91/17/7 78/18/7 24/19/7
f 86/20/3 25/21/3 85/22/3
f 26/23/8 82/24/8 27/23/8
f 63/25/6 50/26/6 31/27/6
f 57/28/3 58/29/3 50/26/3
f 33/30/4 54/31/4 34/30/4
f 106/32/2 110/33/2 112/34/2
f 112/34/9 42/35/9 39/36/9
f 42/35/3 38/37/3 39/36/3
f 77/38/10 64/39/10 44/40/10
f 64/39/3 71/41/3 72/42/3
f 46/43/11 68/44/11 47/43/11
f 56/31/3 33/30/3 31/27/3
f 52/45/12 57/28/12 53/28/12
f 57/28/13 35/46/13 53/28/13
f 55/29/2 62/47/2 63/25/2
f 55/29/2 52/45/2 53/28/2
f 58/29/3 51/45/3 56/31/3
f 54/31/14 51/45/14 52/45/14
f 60/48/6 50/26/6 61/26/6
f 61/26/15 63/25/15 62/47/15
f 62/47/16 60/48/16 61/26/16
f 53/28/2 35/46/2 59/49/2
f 46/43/3 64/39/3 70/44/3
f 66/50/17 71/41/17 67/41/17
f 71/41/18 48/51/18 67/41/18
f 77/38/2 68/44/2 76/52/2
f 69/42/2 66/50/2 67/41/2
f 72/42/3 65/50/3 70/44/3
f 68/44/19 65/50/19 66/50/19
f 74/53/20 64/39/20 75/39/20
f 75/39/21 77/38/21 76/52/21
f 76/52/22 74/53/22 75/39/22
f 67/41/2 48/51/2 73/54/2
f 84/24/3 26/23/3 24/19/3
f 80/55/23 85/22/23 81/22/23
f 85/22/24 28/56/24 81/22/24
f 83/20/2 90/57/2 91/17/2
f 83/20/2 80/55/2 81/22/2
f 86/20/3 79/55/3 84/24/3
f 82/24/25 79/55/25 80/55/25
f 88/21/7 78/18/7 89/18/7
f 89/18/26 91/17/26 90/57/26
f 90/57/27 88/21/27 89/18/27
f 81/22/2 28/56/2 87/58/2
f 9/59/28 98/12/28 96/12/28
f 92/60/29 96/12/29 98/12/29
f 104/61/2 97/11/2 95/9/2
f 96/12/2 105/62/2 9/59/2
f 97/11/2 93/60/2 95/9/2
f 100/11/3 92/60/3 98/12/3
f 99/9/30 93/60/30 92/60/30
f 14/63/4 13/63/4 105/62/4
f 103/10/31 105/62/31 104/61/31
f 102/7/32 104/61/32 101/64/32
f 12/7/4 103/10/4 102/7/4
f 42/35/4 113/35/4 114/65/4
f 106/32/33 108/66/33 107/32/33
f 109/33/34 111/67/34 110/33/34
f 107/32/35 110/33/35 106/32/35
f 39/36/6 38/37/6 116/37/6
f 112/34/36 114/65/36 113/35/36
f 115/37/37 117/68/37 116/37/37
f 40/65/38 109/33/38 107/32/38
f 118/4/39 119/3/39 120/4/39
f 120/4/40 121/69/40 118/4/40
f 121/69/9 120/4/9 7/6/9
f 122/5/41 124/70/41 123/6/41
f 5/70/38 124/70/38 122/5/38
f 1/1/42 2/71/42 4/2/42
f 2/71/2 1/1/2 121/69/2
f 1/1/2 122/5/2 121/69/2
f 121/69/2 122/5/2 118/4/2
f 122/5/2 123/6/2 119/3/2
f 123/6/2 6/6/2 119/3/2
f 7/6/3 5/70/3 3/1/3
f 123/6/4 124/70/4 5/70/4
f 5/70/4 7/6/4 123/6/4
f 99/9/3 100/11/3 94/10/3
f 94/10/3 12/7/3 99/9/3
f 98/12/3 11/59/3 14/63/3
f 14/63/3 94/10/3 98/12/3
f 95/9/5 99/9/5 10/8/5
f 16/13/6 18/13/6 17/14/6
f 19/15/4 22/16/4 21/16/4
f 22/16/3 19/15/3 17/14/3
f 20/15/2 21/16/2 16/13/2
f 24/19/7 23/19/7 91/17/7
f 91/17/7 89/18/7 78/18/7
f 78/18/3 25/21/3 86/20/3
f 25/21/3 29/56/3 85/22/3
f 26/23/8 84/24/8 82/24/8
f 31/27/6 30/27/6 63/25/6
f 63/25/6 61/26/6 50/26/6
f 50/26/3 32/48/3 57/28/3
f 32/48/3 36/46/3 57/28/3
f 33/30/4 56/31/4 54/31/4
f 116/37/2 117/68/2 37/36/2
f 117/68/2 108/66/2 37/36/2
f 108/66/2 106/32/2 112/34/2
f 37/36/2 108/66/2 112/34/2
f 41/72/2 114/65/2 111/67/2
f 114/65/2 112/34/2 111/67/2
f 110/33/2 111/67/2 112/34/2
f 39/36/9 37/36/9 112/34/9
f 112/34/9 113/35/9 42/35/9
f 42/35/3 40/65/3 38/37/3
f 44/40/20 43/40/20 77/38/20
f 77/38/43 75/39/43 64/39/43
f 64/39/3 45/53/3 71/41/3
f 45/53/3 49/51/3 71/41/3
f 46/43/11 70/44/11 68/44/11
f 31/27/3 50/26/3 56/31/3
f 50/26/3 58/29/3 56/31/3
f 52/45/12 51/45/12 57/28/12
f 57/28/13 36/46/13 35/46/13
f 63/25/2 30/27/2 34/30/2
f 34/30/2 54/31/2 63/25/2
f 54/31/2 55/29/2 63/25/2
f 55/29/2 54/31/2 52/45/2
f 58/29/3 57/28/3 51/45/3
f 54/31/14 56/31/14 51/45/14
f 60/48/6 32/48/6 50/26/6
f 62/47/16 59/49/16 60/48/16
f 59/49/2 62/47/2 53/28/2
f 62/47/2 55/29/2 53/28/2
f 44/40/3 64/39/3 46/43/3
f 64/39/3 72/42/3 70/44/3
f 66/50/17 65/50/17 71/41/17
f 71/41/18 49/51/18 48/51/18
f 77/38/2 43/40/2 47/43/2
f 47/43/2 68/44/2 77/38/2
f 68/44/2 69/42/2 76/52/2
f 69/42/2 68/44/2 66/50/2
f 72/42/3 71/41/3 65/50/3
f 68/44/19 70/44/19 65/50/19
f 74/53/20 45/53/20 64/39/20
f 76/52/22 73/54/22 74/53/22
f 73/54/2 76/52/2 67/41/2
f 76/52/2 69/42/2 67/41/2
f 24/19/3 78/18/3 84/24/3
f 78/18/3 86/20/3 84/24/3
f 80/55/23 79/55/23 85/22/23
f 85/22/24 29/56/24 28/56/24
f 91/17/2 23/19/2 27/23/2
f 27/23/2 82/24/2 91/17/2
f 82/24/2 83/20/2 91/17/2
f 83/20/2 82/24/2 80/55/2
f 86/20/3 85/22/3 79/55/3
f 82/24/25 84/24/25 79/55/25
f 88/21/7 25/21/7 78/18/7
f 90/57/44 87/58/44 88/21/44
f 87/58/2 90/57/2 83/20/2
f 83/20/2 81/22/2 87/58/2
f 9/59/28 11/59/28 98/12/28
f 92/60/29 93/60/29 96/12/29
f 95/9/2 8/8/2 101/64/2
f 101/64/2 104/61/2 95/9/2
f 96/12/2 97/11/2 104/61/2
f 104/61/2 105/62/2 96/12/2
f 105/62/2 13/63/2 9/59/2
f 97/11/2 96/12/2 93/60/2
f 100/11/3 99/9/3 92/60/3
f 99/9/30 95/9/30 93/60/30
f 105/62/4 103/10/4 94/10/4
f 94/10/4 14/63/4 105/62/4
f 102/7/32 103/10/32 104/61/32
f 12/7/4 94/10/4 103/10/4
f 114/65/45 41/72/45 40/65/45
f 40/65/4 42/35/4 114/65/4
f 107/32/35 109/33/35 110/33/35
f 115/37/6 116/37/6 38/37/6
f 116/37/6 37/36/6 39/36/6
f 115/37/38 38/37/38 117/68/38
f 38/37/38 40/65/38 108/66/38
f 117/68/38 38/37/38 108/66/38
f 40/65/38 41/72/38 111/67/38
f 40/65/38 111/67/38 109/33/38
f 108/66/38 40/65/38 107/32/38
f 4/2/9 2/71/9 121/69/9
f 120/4/9 119/3/9 7/6/9
f 119/3/9 6/6/9 7/6/9
f 4/2/9 121/69/9 7/6/9
f 1/1/38 3/1/38 122/5/38
f 3/1/38 5/70/38 122/5/38
o Bld_01_Fence_Wood_Gate_Double_Right_Worned_01
v -0.057629 0.085061 -0.044993
v -0.172884 0.093831 -0.044993
v -0.057629 0.085061 0.044769
v -0.172884 0.079228 0.044769
v -0.057629 1.120909 0.044769
v -0.172884 1.120909 -0.044993
v -0.172884 1.120909 0.044769
v -0.172884 0.993238 -0.020511
v -0.830441 0.993238 -0.020511
v -0.172884 0.993238 0.020288
v -0.830441 0.993238 0.020288
v -0.172884 1.089857 0.020288
v -0.830441 1.089857 -0.020511
v -0.830441 1.089857 0.020288
v -0.172884 0.103381 -0.020511
v -0.830441 0.103381 -0.020511
v -0.172884 0.103381 0.020288
v -0.830441 0.103381 0.020288
v -0.172884 0.200000 0.020288
v -0.172884 0.200000 -0.020511
v -0.830441 0.200000 -0.020511
v -0.830441 0.200000 0.020288
v -0.171312 0.379233 -0.020511
v -0.171312 0.379233 0.020288
v -0.832817 0.420628 0.020288
v -0.170509 0.475991 0.020288
v -0.170509 0.475991 -0.020511
v -0.832909 0.517442 -0.020511
v -0.832909 0.517442 0.020288
v -0.172884 0.696619 -0.020511
v -0.172884 0.696619 0.020288
v -0.830441 0.696619 0.020288
v -0.172884 0.793238 0.020288
v -0.172884 0.793238 -0.020511
v -0.830441 0.793238 -0.020511
v -0.830441 0.793238 0.020288
v -0.953101 0.085061 -0.044993
v -0.830442 0.085061 0.044769
v -0.953101 0.085061 0.044769
v -0.830442 1.120909 0.044769
v -0.830442 1.108368 -0.044993
v -0.953101 1.120909 0.044769
v -0.167346 0.097269 -0.034475
v -0.167346 0.097269 -0.020511
v -0.831220 0.954513 -0.020511
v -0.169898 0.212003 -0.020511
v -0.169898 0.212003 -0.034475
v -0.832444 1.083234 -0.034475
v -0.832444 1.083234 -0.020511
v -0.410390 0.696619 0.020288
v -0.410390 0.788216 0.020288
v -0.410390 0.788216 -0.020511
v -0.422250 0.790404 -0.020511
v -0.398530 0.793238 -0.020511
v -0.410390 0.781378 -0.020511
v -0.398530 0.793238 0.020288
v -0.422250 0.790404 0.020288
v -0.410390 0.781378 0.020288
v -0.830441 0.704807 -0.020511
v -0.830441 0.696619 -0.012323
v -0.410390 0.696619 -0.012323
v -0.410390 0.704807 -0.020511
v -0.372331 0.696619 -0.020511
v -0.483491 0.508454 -0.020511
v -0.486307 0.630094 -0.020511
v -0.486307 0.630094 -0.034475
v -0.513434 0.673512 -0.034475
v -0.475431 0.624703 -0.034475
v -0.486161 0.620969 -0.034475
v -0.475431 0.624703 -0.020511
v -0.513434 0.673512 -0.020511
v -0.486161 0.620969 -0.020511
v -0.832884 0.965713 -0.034475
v -0.831220 0.954513 -0.025433
v -0.483491 0.508454 -0.025433
v -0.485331 0.519881 -0.034475
v -0.442421 0.450129 -0.034475
v -0.756956 0.415881 0.020288
v -0.756946 0.506486 0.020288
v -0.756946 0.506486 -0.020511
v -0.773866 0.509152 -0.020511
v -0.740026 0.510238 -0.020511
v -0.756948 0.495735 -0.020511
v -0.740026 0.510238 0.020288
v -0.773866 0.509152 0.020288
v -0.756948 0.495735 0.020288
v -0.832826 0.430063 -0.020511
v -0.832817 0.420628 -0.016077
v -0.756956 0.415881 -0.016077
v -0.756955 0.424399 -0.020511
v -0.713786 0.413179 -0.020511
v -0.501663 1.007073 0.020288
v -0.501663 1.007073 -0.020511
v -0.501663 1.089857 0.020288
v -0.487889 1.003871 -0.020511
v -0.515437 1.003871 -0.020511
v -0.501663 1.018117 -0.020511
v -0.515437 1.003871 0.020288
v -0.487889 1.003871 0.020288
v -0.501663 1.018117 0.020288
v -0.172884 1.074710 -0.020511
v -0.172884 1.089857 -0.005363
v -0.501663 1.089857 -0.005363
v -0.501663 1.074710 -0.020511
v -0.774717 1.089857 -0.020511
v -0.836378 0.766716 -0.044993
v -0.830442 0.766716 -0.039057
v -0.830442 0.594006 -0.044993
v -0.830442 0.886074 -0.039057
v -0.836378 0.886074 -0.044993
v -0.830442 0.976278 -0.044993
v -0.953101 1.104538 -0.044993
v -0.953101 1.120909 -0.028622
v -0.906569 1.120909 -0.044993
v -0.830442 0.085061 -0.017390
v -0.858045 0.085061 -0.044993
v -0.830442 0.223260 -0.044993
v -0.162538 0.800009 -0.044993
v -0.172884 0.847355 -0.044993
v -0.172884 0.800009 -0.034647
v -0.172884 0.639002 -0.044993
v -0.057629 1.102179 -0.044993
v -0.139419 1.120909 -0.044993
v -0.057629 1.120909 -0.026263
vn -0.0749 -0.9843 -0.1601
vn -0.0000 -0.0000 -1.0000
vn -0.0000 -0.0000 1.0000
vn -0.0000 1.0000 -0.0000
vn -0.0337 -0.9994 -0.0000
vn -0.0000 -1.0000 -0.0000
vn -0.0625 -0.9980 -0.0000
vn 0.0600 0.9982 -0.0000
vn -1.0000 -0.0000 -0.0000
vn -0.8176 -0.5757 -0.0000
vn 0.8037 0.5950 -0.0000
vn 0.1814 0.9834 -0.0000
vn 0.0069 1.0000 -0.0000
vn -0.3899 0.9209 -0.0000
vn -0.1504 -0.6991 -0.6991
vn -0.0000 -0.7071 -0.7071
vn 0.8481 0.5299 -0.0000
vn 0.7890 0.6143 -0.0000
vn 0.4441 0.8960 -0.0000
vn -0.7887 -0.6148 -0.0000
vn -0.7652 -0.4708 -0.4391
vn -0.6714 -0.5234 -0.5247
vn 0.1557 0.9878 -0.0000
vn 0.1390 0.9903 -0.0000
vn -0.2165 0.9763 -0.0000
vn -0.1191 -0.4584 -0.8807
vn -0.0289 -0.4615 -0.8867
vn 0.0337 -0.9994 -0.0000
vn 0.2264 -0.9740 -0.0000
vn -0.2264 -0.9740 -0.0000
vn 0.0392 0.7066 -0.7066
vn -0.0000 0.7071 -0.7071
vn 0.7069 0.0243 -0.7069
vn 0.7063 -0.0465 -0.7063
vn 0.7071 -0.0000 -0.7071
vn -0.2414 0.6862 -0.6862
vn 0.7002 -0.1398 -0.7002
vn 1.0000 -0.0000 -0.0000
vn -0.6988 -0.1527 -0.6988
vn -0.7064 0.0454 -0.7064
vn 0.1598 0.6980 -0.6980
vn 0.0506 -0.9987 -0.0000
vn -0.7752 -0.5960 0.2095
vn -0.0317 -0.4251 -0.9046
vn 0.1610 0.9775 -0.1366
vt 0.577741 0.806934
vt 0.577741 0.806839
vt 0.577741 0.807077
vt 0.577741 0.823500
vt 0.577741 0.819350
vt 0.577741 0.823805
vt 0.577741 0.823805
vt 0.574628 0.850699
vt 0.574629 0.853647
vt 0.574628 0.853647
vt 0.574628 0.850699
vt 0.574627 0.853647
vt 0.574629 0.850335
vt 0.574629 0.819827
vt 0.574627 0.819827
vt 0.574627 0.823140
vt 0.574629 0.823140
vt 0.574627 0.830541
vt 0.574627 0.830448
vt 0.574627 0.833738
vt 0.574627 0.830704
vt 0.574627 0.833279
vt 0.574627 0.833776
vt 0.574629 0.832602
vt 0.574628 0.840165
vt 0.574628 0.840165
vt 0.574628 0.843071
vt 0.574628 0.843381
vt 0.574628 0.843478
vt 0.574629 0.843478
vt 0.577740 0.819981
vt 0.577740 0.818036
vt 0.577740 0.823539
vt 0.577740 0.823805
vt 0.577740 0.806934
vt 0.577740 0.806934
vt 0.574628 0.833714
vt 0.574628 0.831715
vt 0.574628 0.837572
vt 0.574628 0.839373
vt 0.574628 0.837700
vt 0.574629 0.823551
vt 0.574629 0.840165
vt 0.574628 0.843306
vt 0.574627 0.843478
vt 0.574627 0.840165
vt 0.574628 0.840446
vt 0.574627 0.840446
vt 0.574628 0.837885
vt 0.574627 0.853420
vt 0.574627 0.849007
vt 0.574628 0.834106
vt 0.574627 0.849391
vt 0.574629 0.829284
vt 0.574627 0.833647
vt 0.574627 0.834023
vt 0.574627 0.830833
vt 0.574627 0.831027
vt 0.574627 0.850335
vt 0.574628 0.850809
vt 0.574628 0.853128
vt 0.574629 0.853128
vt 0.574627 0.853647
vt 0.574628 0.851188
vt 0.577740 0.823805
vt 0.577740 0.815223
vt 0.577740 0.821450
vt 0.577740 0.809185
vt 0.577741 0.818579
vt 0.577741 0.815956
vt 0.577740 0.823601
vt 0.574629 0.819618
s 0
usemtl Texture_Map
f 125/73/46 128/74/46 126/75/46
f 246/76/47 243/77/47 247/78/47
f 127/73/48 131/78/48 128/74/48
f 247/78/49 131/78/49 129/79/49
f 223/80/48 136/81/48 218/82/48
f 222/83/48 218/82/48 138/84/48
f 134/85/50 219/80/50 132/85/50
f 141/86/51 140/87/51 139/86/51
f 145/88/49 143/89/49 144/89/49
f 141/86/48 146/88/48 142/87/48
f 140/87/47 144/89/47 139/86/47
f 202/90/52 213/90/52 215/91/52
f 209/92/48 149/93/48 210/94/48
f 206/95/53 150/96/53 151/96/53
f 174/97/51 185/97/51 187/98/51
f 174/97/48 182/99/48 181/100/48
f 178/101/49 157/102/49 158/102/49
f 234/103/47 230/104/47 236/105/47
f 166/106/54 237/106/54 236/105/54
f 162/107/48 166/106/48 163/108/48
f 188/109/55 199/109/55 201/110/55
f 188/109/48 196/111/48 195/112/48
f 192/113/56 170/114/56 171/114/56
f 155/115/48 157/102/48 180/101/48
f 181/100/57 176/116/57 177/100/57
f 159/117/58 181/100/58 177/100/58
f 178/101/47 158/102/47 187/98/47
f 176/116/47 179/99/47 177/100/47
f 175/116/48 182/99/48 180/101/48
f 175/116/59 178/101/59 176/116/59
f 174/97/51 184/118/51 185/97/51
f 185/97/60 186/119/60 187/98/60
f 184/118/61 186/119/61 185/97/61
f 183/120/47 159/117/47 177/100/47
f 194/113/48 188/109/48 170/114/48
f 195/112/62 190/121/62 191/112/62
f 172/122/63 195/112/63 191/112/63
f 192/113/47 171/114/47 201/110/47
f 190/121/47 193/111/47 191/112/47
f 189/121/48 196/111/48 194/113/48
f 189/121/64 192/113/64 190/121/64
f 188/109/65 198/123/65 199/109/65
f 199/109/66 200/124/66 201/110/66
f 198/123/67 200/124/67 199/109/67
f 197/125/47 172/122/47 191/112/47
f 148/126/48 150/96/48 208/95/48
f 209/92/68 204/127/68 205/92/68
f 152/128/69 209/92/69 205/92/69
f 206/95/47 151/96/47 215/91/47
f 204/127/47 207/94/47 205/92/47
f 203/127/48 210/94/48 208/95/48
f 203/127/70 206/95/70 204/127/70
f 202/90/52 212/93/52 213/90/52
f 213/90/71 214/129/71 215/91/71
f 212/93/72 214/129/72 213/90/72
f 211/130/47 205/92/47 207/94/47
f 222/83/73 133/131/73 220/83/73
f 220/83/74 216/132/74 222/83/74
f 219/80/47 228/133/47 225/134/47
f 229/135/47 228/133/47 220/83/47
f 217/132/47 221/136/47 219/80/47
f 216/132/48 224/136/48 222/83/48
f 217/132/75 223/80/75 216/132/75
f 229/135/49 138/84/49 218/82/49
f 227/82/76 228/133/76 229/135/76
f 228/133/77 226/81/77 225/134/77
f 227/82/49 136/81/49 226/81/49
f 238/106/49 166/106/49 164/137/49
f 230/104/78 231/104/78 232/138/78
f 233/103/79 234/103/79 235/139/79
f 234/103/80 231/104/80 230/104/80
f 163/108/51 240/107/51 162/107/51
f 236/105/81 237/106/81 238/106/81
f 239/107/82 240/107/82 241/140/82
f 233/103/83 235/139/83 164/137/83
f 242/141/84 244/141/84 243/77/84
f 244/141/85 242/141/85 245/142/85
f 244/141/54 245/142/54 131/78/54
f 246/76/86 247/78/86 248/79/86
f 246/76/83 248/79/83 129/79/83
f 125/73/87 127/73/87 128/74/87
f 246/76/47 125/73/47 245/142/47
f 125/73/47 126/75/47 245/142/47
f 246/76/47 245/142/47 242/141/47
f 242/141/47 243/77/47 246/76/47
f 243/77/47 130/78/47 247/78/47
f 127/73/48 129/79/48 131/78/48
f 129/79/49 248/79/49 247/78/49
f 247/78/49 130/78/49 131/78/49
f 218/82/48 224/136/48 223/80/48
f 223/80/48 134/85/48 136/81/48
f 138/84/48 135/131/48 222/83/48
f 222/83/48 224/136/48 218/82/48
f 134/85/50 223/80/50 219/80/50
f 141/86/51 142/87/51 140/87/51
f 145/88/49 146/88/49 143/89/49
f 141/86/48 143/89/48 146/88/48
f 140/87/47 145/88/47 144/89/47
f 215/91/52 147/126/52 148/126/52
f 148/126/52 202/90/52 215/91/52
f 153/128/48 149/93/48 209/92/48
f 149/93/48 202/90/48 210/94/48
f 206/95/53 208/95/53 150/96/53
f 187/98/51 154/115/51 155/115/51
f 155/115/51 174/97/51 187/98/51
f 160/117/48 156/118/48 181/100/48
f 156/118/48 174/97/48 181/100/48
f 178/101/49 180/101/49 157/102/49
f 232/138/47 241/140/47 161/108/47
f 241/140/47 240/107/47 161/108/47
f 161/108/47 236/105/47 232/138/47
f 232/138/47 236/105/47 230/104/47
f 236/105/47 238/106/47 235/139/47
f 238/106/47 165/143/47 235/139/47
f 235/139/47 234/103/47 236/105/47
f 236/105/54 161/108/54 163/108/54
f 163/108/54 166/106/54 236/105/54
f 162/107/48 164/137/48 166/106/48
f 201/110/65 167/144/65 168/144/65
f 168/144/88 188/109/88 201/110/88
f 173/122/48 169/123/48 195/112/48
f 169/123/48 188/109/48 195/112/48
f 192/113/56 194/113/56 170/114/56
f 182/99/48 174/97/48 180/101/48
f 174/97/48 155/115/48 180/101/48
f 181/100/57 175/116/57 176/116/57
f 159/117/58 160/117/58 181/100/58
f 158/102/47 154/115/47 187/98/47
f 187/98/47 186/119/47 179/99/47
f 179/99/47 178/101/47 187/98/47
f 176/116/47 178/101/47 179/99/47
f 175/116/48 181/100/48 182/99/48
f 175/116/59 180/101/59 178/101/59
f 174/97/51 156/118/51 184/118/51
f 184/118/61 183/120/61 186/119/61
f 179/99/47 186/119/47 177/100/47
f 186/119/47 183/120/47 177/100/47
f 196/111/48 188/109/48 194/113/48
f 188/109/48 168/144/48 170/114/48
f 195/112/62 189/121/62 190/121/62
f 172/122/63 173/122/63 195/112/63
f 171/114/47 167/144/47 201/110/47
f 201/110/47 200/124/47 192/113/47
f 200/124/47 193/111/47 192/113/47
f 190/121/47 192/113/47 193/111/47
f 189/121/48 195/112/48 196/111/48
f 189/121/64 194/113/64 192/113/64
f 188/109/65 169/123/65 198/123/65
f 198/123/67 197/125/67 200/124/67
f 193/111/47 200/124/47 191/112/47
f 200/124/47 197/125/47 191/112/47
f 210/94/48 202/90/48 208/95/48
f 202/90/48 148/126/48 208/95/48
f 209/92/68 203/127/68 204/127/68
f 152/128/69 153/128/69 209/92/69
f 151/96/47 147/126/47 215/91/47
f 215/91/47 214/129/47 207/94/47
f 207/94/47 206/95/47 215/91/47
f 204/127/47 206/95/47 207/94/47
f 203/127/48 209/92/48 210/94/48
f 203/127/70 208/95/70 206/95/70
f 202/90/52 149/93/52 212/93/52
f 212/93/89 211/130/89 214/129/89
f 207/94/47 214/129/47 211/130/47
f 211/130/47 152/128/47 205/92/47
f 222/83/73 135/131/73 133/131/73
f 220/83/74 217/132/74 216/132/74
f 225/134/47 132/85/47 219/80/47
f 219/80/47 221/136/47 228/133/47
f 228/133/47 221/136/47 220/83/47
f 220/83/47 133/131/47 229/135/47
f 133/131/47 137/84/47 229/135/47
f 217/132/47 220/83/47 221/136/47
f 216/132/48 223/80/48 224/136/48
f 217/132/75 219/80/75 223/80/75
f 218/82/49 227/82/49 229/135/49
f 229/135/49 137/84/49 138/84/49
f 228/133/77 227/82/77 226/81/77
f 227/82/49 218/82/49 136/81/49
f 164/137/90 165/143/90 238/106/90
f 238/106/49 237/106/49 166/106/49
f 234/103/80 233/103/80 231/104/80
f 161/108/51 240/107/51 163/108/51
f 240/107/51 239/107/51 162/107/51
f 164/137/83 162/107/83 232/138/83
f 162/107/83 239/107/83 241/140/83
f 164/137/83 232/138/83 231/104/83
f 241/140/83 232/138/83 162/107/83
f 165/143/83 164/137/83 235/139/83
f 233/103/83 164/137/83 231/104/83
f 245/142/54 126/75/54 128/74/54
f 128/74/54 131/78/54 245/142/54
f 131/78/54 130/78/54 243/77/54
f 244/141/54 131/78/54 243/77/54
f 129/79/83 127/73/83 246/76/83
f 127/73/83 125/73/83 246/76/83
