# Blender 4.4.0
# www.blender.org
mtllib Bld_Farm_Gate_Sign_01.mtl
o Bld_Farm_Gate_Sign_01
v -2.293489 4.157274 0.027000
v 2.293489 4.157274 0.027000
v -2.293489 4.746771 0.027000
v 2.293489 4.746771 0.027000
v -2.293489 4.157274 -0.027000
v 2.293489 4.157274 -0.027000
v -2.293489 4.746771 -0.027000
v 2.293489 4.746771 -0.027000
v 3.304554 0.000000 0.174010
v 3.228397 0.000000 0.097854
v 3.576418 0.000000 0.097854
v 3.500262 0.000000 0.174010
v 3.228397 0.000000 -0.097854
v 3.304554 0.000000 -0.174010
v 3.500262 0.000000 -0.174010
v 3.576418 0.000000 -0.097854
v 3.228397 5.167754 0.097854
v 3.304554 5.167754 0.174010
v 3.500262 5.167754 0.174010
v 3.576418 5.167754 0.097854
v 3.304554 5.167754 -0.174010
v 3.228397 5.167754 -0.097854
v 3.576418 5.167754 -0.097854
v 3.500262 5.167754 -0.174010
v -3.304554 0.000000 0.174010
v -3.228397 0.000000 0.097854
v -3.576418 0.000000 0.097854
v -3.500262 0.000000 0.174010
v -3.228397 0.000000 -0.097854
v -3.304554 0.000000 -0.174010
v -3.500262 0.000000 -0.174010
v -3.576418 0.000000 -0.097854
v -3.228397 5.167754 0.097854
v -3.304554 5.167754 0.174010
v -3.500262 5.167754 0.174010
v -3.576418 5.167754 0.097854
v -3.304554 5.167754 -0.174010
v -3.228397 5.167754 -0.097854
v -3.576418 5.167754 -0.097854
v -3.500262 5.167754 -0.174010
v -3.978294 5.167754 0.180875
v 3.978294 5.167754 0.180875
v -3.978294 5.167754 -0.180874
v 3.978294 5.167754 -0.180874
v -4.105161 5.506660 -0.186642
v -4.105161 5.506660 0.186643
v 4.105161 5.506660 0.186643
v 4.105161 5.506660 -0.186642
v 4.134135 5.337207 0.212645
v 4.134135 5.337207 -0.212643
v -4.134135 5.337207 -0.212643
v -4.134135 5.337207 0.212645
v -2.036450 5.506660 -0.186642
v -1.926057 5.506660 -0.186642
v 1.926057 5.506660 -0.186642
v 2.036449 5.506660 -0.186642
v -2.036450 5.506660 0.186643
v -1.926057 5.506660 0.186643
v 1.926057 5.506660 0.186643
v 2.036449 5.506660 0.186643
v 2.036449 5.337207 -0.212643
v 1.926057 5.337207 -0.212643
v -1.926057 5.337207 -0.212643
v -2.036449 5.337207 -0.212643
v 2.036449 5.167754 -0.180874
v 1.926057 5.167754 -0.180874
v -1.926057 5.167754 -0.180874
v -2.036450 5.167754 -0.180874
v 2.036449 5.337207 0.212645
v 1.926057 5.337207 0.212645
v -1.926057 5.337207 0.212645
v -2.036450 5.337207 0.212645
v -2.036450 5.167754 0.180875
v -1.926057 5.167754 0.180875
v 1.926057 5.167754 0.180875
v 2.036449 5.167754 0.180875
v -1.926057 5.336900 -0.236647
v -2.036449 5.336900 -0.236647
v -2.036450 5.526002 -0.207719
v -1.926057 5.526002 -0.207719
v 1.926057 5.526002 -0.207719
v 2.036449 5.526002 -0.207719
v 2.036449 5.336900 -0.236647
v 1.926057 5.336900 -0.236647
v -1.926057 5.148413 -0.201293
v -2.036450 5.148413 -0.201293
v 2.036449 5.148413 -0.201293
v 1.926057 5.148413 -0.201293
v -2.036450 5.526002 0.207721
v -1.926057 5.526002 0.207721
v 1.926057 5.526002 0.207721
v 2.036449 5.526002 0.207721
v -1.926057 5.336900 0.236649
v -2.036450 5.336900 0.236649
v -2.036450 5.148413 0.201294
v -1.926057 5.148413 0.201294
v 1.926057 5.148413 0.201294
v 2.036449 5.148413 0.201294
v 2.036449 5.336900 0.236649
v 1.926057 5.336900 0.236649
v 2.046417 5.099899 0.000000
v 2.033385 5.099899 0.013033
v 2.020352 5.099899 0.000000
v 2.033385 5.099899 -0.013033
v 2.013835 5.156333 0.000000
v 2.007319 5.145046 0.013033
v 2.000802 5.133759 0.000000
v 2.007319 5.145046 -0.013033
v 1.948671 5.156333 0.000000
v 1.955188 5.145046 0.013033
v 1.961704 5.133759 0.000000
v 1.955188 5.145046 -0.013033
v 1.916089 5.099899 0.000000
v 1.929122 5.099899 0.013033
v 1.942155 5.099899 0.000000
v 1.929122 5.099899 -0.013033
v 1.948671 5.043466 0.000000
v 1.955188 5.054752 0.013033
v 1.961704 5.066039 0.000000
v 1.955188 5.054752 -0.013033
v 2.013835 5.043466 0.000000
v 2.007319 5.054752 0.013033
v 2.000802 5.066039 0.000000
v 2.007319 5.054752 -0.013033
v 1.981257 5.032179 -0.065167
v 1.994290 5.032179 -0.052134
v 1.981257 5.032179 -0.039101
v 1.968225 5.032179 -0.052134
v 1.981257 5.088613 -0.032585
v 1.994290 5.077326 -0.026068
v 1.981257 5.066039 -0.019552
v 1.968225 5.077326 -0.026068
v 1.981257 5.088613 0.032580
v 1.994290 5.077326 0.026063
v 1.981257 5.066039 0.019547
v 1.968225 5.077326 0.026063
v 1.981257 5.032179 0.065162
v 1.994290 5.032179 0.052129
v 1.981257 5.032179 0.039096
v 1.968225 5.032179 0.052129
v 1.981257 4.975745 0.032580
v 1.994290 4.987032 0.026063
v 1.981257 4.998319 0.019547
v 1.968225 4.987032 0.026063
v 1.981257 4.975745 -0.032585
v 1.994290 4.987032 -0.026068
v 1.981257 4.998319 -0.019552
v 1.968225 4.987032 -0.026068
v 2.046417 4.964458 0.000000
v 2.033385 4.964458 0.013033
v 2.020352 4.964458 0.000000
v 2.033385 4.964458 -0.013033
v 2.013835 5.020892 0.000000
v 2.007319 5.009605 0.013033
v 2.000802 4.998319 0.000000
v 2.007319 5.009605 -0.013033
v 1.948671 5.020892 0.000000
v 1.955188 5.009605 0.013033
v 1.961704 4.998319 0.000000
v 1.955188 5.009605 -0.013033
v 1.916089 4.964458 0.000000
v 1.929122 4.964458 0.013033
v 1.942155 4.964458 0.000000
v 1.929122 4.964458 -0.013033
v 1.948671 4.908024 0.000000
v 1.955188 4.919311 0.013033
v 1.961704 4.930598 0.000000
v 1.955188 4.919311 -0.013033
v 2.013835 4.908024 0.000000
v 2.007319 4.919311 0.013033
v 2.000802 4.930598 0.000000
v 2.007319 4.919311 -0.013033
v 1.981257 4.896737 -0.065167
v 1.994290 4.896737 -0.052134
v 1.981257 4.896737 -0.039101
v 1.968225 4.896737 -0.052134
v 1.981257 4.953171 -0.032585
v 1.994290 4.941885 -0.026068
v 1.981257 4.930598 -0.019552
v 1.968225 4.941885 -0.026068
v 1.981257 4.953171 0.032580
v 1.994290 4.941885 0.026063
v 1.981257 4.930598 0.019547
v 1.968225 4.941885 0.026063
v 1.981257 4.896737 0.065162
v 1.994290 4.896737 0.052129
v 1.981257 4.896737 0.039096
v 1.968225 4.896737 0.052129
v 1.981257 4.840303 0.032580
v 1.994290 4.851590 0.026063
v 1.981257 4.862877 0.019547
v 1.968225 4.851590 0.026063
v 1.981257 4.840303 -0.032585
v 1.994290 4.851590 -0.026068
v 1.981257 4.862877 -0.019552
v 1.968225 4.851590 -0.026068
v 2.046417 4.829017 0.000000
v 2.033385 4.829017 0.013033
v 2.020352 4.829017 0.000000
v 2.033385 4.829017 -0.013033
v 2.013835 4.885450 0.000000
v 2.007319 4.874164 0.013033
v 2.000802 4.862877 0.000000
v 2.007319 4.874164 -0.013033
v 1.948671 4.885450 0.000000
v 1.955188 4.874164 0.013033
v 1.961704 4.862877 0.000000
v 1.955188 4.874164 -0.013033
v 1.916089 4.829017 0.000000
v 1.929122 4.829017 0.013033
v 1.942155 4.829017 0.000000
v 1.929122 4.829017 -0.013033
v 1.948671 4.772583 0.000000
v 1.955188 4.783870 0.013033
v 1.961704 4.795156 0.000000
v 1.955188 4.783870 -0.013033
v 2.013835 4.772583 0.000000
v 2.007319 4.783870 0.013033
v 2.000802 4.795156 0.000000
v 2.007319 4.783870 -0.013033
v 1.981257 4.761296 -0.065167
v 1.994290 4.761296 -0.052134
v 1.981257 4.761296 -0.039101
v 1.968225 4.761296 -0.052134
v 1.981257 4.817730 -0.032585
v 1.994290 4.806443 -0.026068
v 1.981257 4.795156 -0.019552
v 1.968225 4.806443 -0.026068
v 1.981257 4.817730 0.032580
v 1.994290 4.806443 0.026063
v 1.981257 4.795156 0.019547
v 1.968225 4.806443 0.026063
v 1.981257 4.761296 0.065162
v 1.994290 4.761296 0.052129
v 1.981257 4.761296 0.039096
v 1.968225 4.761296 0.052129
v 1.981257 4.704863 0.032580
v 1.994290 4.716149 0.026063
v 1.981257 4.727436 0.019547
v 1.968225 4.716149 0.026063
v 1.981257 4.704863 -0.032585
v 1.994290 4.716149 -0.026068
v 1.981257 4.727436 -0.019552
v 1.968225 4.716149 -0.026068
v -2.046417 5.099899 0.000000
v -2.033384 5.099899 0.013033
v -2.020351 5.099899 0.000000
v -2.033384 5.099899 -0.013033
v -2.013835 5.156333 0.000000
v -2.007319 5.145046 0.013033
v -2.000802 5.133759 0.000000
v -2.007319 5.145046 -0.013033
v -1.948671 5.156333 0.000000
v -1.955188 5.145046 0.013033
v -1.961704 5.133759 0.000000
v -1.955188 5.145046 -0.013033
v -1.916089 5.099899 0.000000
v -1.929122 5.099899 0.013033
v -1.942155 5.099899 0.000000
v -1.929122 5.099899 -0.013033
v -1.948671 5.043466 0.000000
v -1.955188 5.054752 0.013033
v -1.961704 5.066039 0.000000
v -1.955188 5.054752 -0.013033
v -2.013835 5.043466 0.000000
v -2.007319 5.054752 0.013033
v -2.000802 5.066039 0.000000
v -2.007319 5.054752 -0.013033
v -1.981257 5.032179 -0.065167
v -1.994290 5.032179 -0.052134
v -1.981257 5.032179 -0.039101
v -1.968225 5.032179 -0.052134
v -1.981257 5.088613 -0.032585
v -1.994290 5.077326 -0.026068
v -1.981257 5.066039 -0.019552
v -1.968225 5.077326 -0.026068
v -1.981257 5.088613 0.032580
v -1.994290 5.077326 0.026063
v -1.981257 5.066039 0.019547
v -1.968225 5.077326 0.026063
v -1.981257 5.032179 0.065162
v -1.994290 5.032179 0.052129
v -1.981257 5.032179 0.039096
v -1.968225 5.032179 0.052129
v -1.981257 4.975745 0.032580
v -1.994290 4.987032 0.026063
v -1.981257 4.998319 0.019547
v -1.968225 4.987032 0.026063
v -1.981257 4.975745 -0.032585
v -1.994290 4.987032 -0.026068
v -1.981257 4.998319 -0.019552
v -1.968225 4.987032 -0.026068
v -2.046417 4.964458 0.000000
v -2.033384 4.964458 0.013033
v -2.020351 4.964458 0.000000
v -2.033384 4.964458 -0.013033
v -2.013835 5.020892 0.000000
v -2.007319 5.009605 0.013033
v -2.000802 4.998319 0.000000
v -2.007319 5.009605 -0.013033
v -1.948671 5.020892 0.000000
v -1.955188 5.009605 0.013033
v -1.961704 4.998319 0.000000
v -1.955188 5.009605 -0.013033
v -1.916089 4.964458 0.000000
v -1.929122 4.964458 0.013033
v -1.942155 4.964458 0.000000
v -1.929122 4.964458 -0.013033
v -1.948671 4.908024 0.000000
v -1.955188 4.919311 0.013033
v -1.961704 4.930598 0.000000
v -1.955188 4.919311 -0.013033
v -2.013835 4.908024 0.000000
v -2.007319 4.919311 0.013033
v -2.000802 4.930598 0.000000
v -2.007319 4.919311 -0.013033
v -1.981257 4.896737 -0.065167
v -1.994290 4.896737 -0.052134
v -1.981257 4.896737 -0.039101
v -1.968225 4.896737 -0.052134
v -1.981257 4.953171 -0.032585
v -1.994290 4.941885 -0.026068
v -1.981257 4.930598 -0.019552
v -1.968225 4.941885 -0.026068
v -1.981257 4.953171 0.032580
v -1.994290 4.941885 0.026063
v -1.981257 4.930598 0.019547
v -1.968225 4.941885 0.026063
v -1.981257 4.896737 0.065162
v -1.994290 4.896737 0.052129
v -1.981257 4.896737 0.039096
v -1.968225 4.896737 0.052129
v -1.981257 4.840303 0.032580
v -1.994290 4.851590 0.026063
v -1.981257 4.862877 0.019547
v -1.968225 4.851590 0.026063
v -1.981257 4.840303 -0.032585
v -1.994290 4.851590 -0.026068
v -1.981257 4.862877 -0.019552
v -1.968225 4.851590 -0.026068
v -2.046417 4.829017 0.000000
v -2.033384 4.829017 0.013033
v -2.020351 4.829017 0.000000
v -2.033384 4.829017 -0.013033
v -2.013835 4.885450 0.000000
v -2.007319 4.874164 0.013033
v -2.000802 4.862877 0.000000
v -2.007319 4.874164 -0.013033
v -1.948671 4.885450 0.000000
v -1.955188 4.874164 0.013033
v -1.961704 4.862877 0.000000
v -1.955188 4.874164 -0.013033
v -1.916089 4.829017 0.000000
v -1.929122 4.829017 0.013033
v -1.942155 4.829017 0.000000
v -1.929122 4.829017 -0.013033
v -1.948671 4.772583 0.000000
v -1.955188 4.783870 0.013033
v -1.961704 4.795156 0.000000
v -1.955188 4.783870 -0.013033
v -2.013835 4.772583 0.000000
v -2.007319 4.783870 0.013033
v -2.000802 4.795156 0.000000
v -2.007319 4.783870 -0.013033
v -1.981257 4.761296 -0.065167
v -1.994290 4.761296 -0.052134
v -1.981257 4.761296 -0.039101
v -1.968225 4.761296 -0.052134
v -1.981257 4.817730 -0.032585
v -1.994290 4.806443 -0.026068
v -1.981257 4.795156 -0.019552
v -1.968225 4.806443 -0.026068
v -1.981257 4.817730 0.032580
v -1.994290 4.806443 0.026063
v -1.981257 4.795156 0.019547
v -1.968225 4.806443 0.026063
v -1.981257 4.761296 0.065162
v -1.994290 4.761296 0.052129
v -1.981257 4.761296 0.039096
v -1.968225 4.761296 0.052129
v -1.981257 4.704863 0.032580
v -1.994290 4.716149 0.026063
v -1.981257 4.727436 0.019547
v -1.968225 4.716149 0.026063
v -1.981257 4.704863 -0.032585
v -1.994290 4.716149 -0.026068
v -1.981257 4.727436 -0.019552
v -1.968225 4.716149 -0.026068
v 3.236168 4.077049 0.077162
v 3.236168 4.524513 0.077162
v 3.236168 4.077050 -0.077164
v 3.236168 4.524513 -0.077164
v 2.585407 5.187463 -0.077164
v 2.585407 5.187463 0.077162
v 2.833014 5.187463 0.077162
v 2.833014 5.187463 -0.077164
v -3.236168 4.077049 0.077162
v -3.236168 4.524513 0.077162
v -3.236168 4.077050 -0.077164
v -3.236168 4.524513 -0.077164
v -2.585407 5.187463 -0.077164
v -2.585407 5.187463 0.077162
v -2.833014 5.187463 0.077162
v -2.833014 5.187463 -0.077164
vn -0.0000 -0.0000 1.0000
vn -0.0000 -0.0000 -1.0000
vn -1.0000 -0.0000 -0.0000
vn -0.0000 -1.0000 -0.0000
vn 1.0000 -0.0000 -0.0000
vn -0.0000 1.0000 -0.0000
vn -0.7071 -0.0000 -0.7071
vn 0.7071 -0.0000 -0.7071
vn 0.7071 -0.0000 0.7071
vn -0.7071 -0.0000 0.7071
vn -0.9857 0.1685 -0.0000
vn 0.9857 0.1685 -0.0000
vn -0.0000 0.1517 -0.9884
vn -0.0000 -0.1843 0.9829
vn -0.7361 -0.6769 -0.0000
vn 0.7361 -0.6769 -0.0000
vn -0.0000 -0.1843 -0.9829
vn -0.0000 0.1517 0.9884
vn -0.0000 0.1512 -0.9885
vn -0.0000 -0.1844 -0.9829
vn -0.0000 -0.1844 0.9829
vn -0.0000 0.1512 0.9885
vn 0.6546 0.3780 0.6547
vn -0.6547 -0.3780 0.6546
vn -0.6547 -0.3780 -0.6546
vn 0.6546 0.3780 -0.6547
vn -0.0000 0.7559 0.6547
vn -0.0000 -0.7559 0.6547
vn -0.0000 -0.7559 -0.6547
vn -0.0000 0.7560 -0.6546
vn -0.6547 0.3780 0.6546
vn 0.6547 -0.3780 0.6546
vn 0.6547 -0.3780 -0.6546
vn -0.6547 0.3780 -0.6547
vn 0.6547 0.3780 -0.6546
vn -0.6547 -0.3780 -0.6547
vn -0.0000 0.7559 -0.6547
vn -0.6547 0.3780 0.6547
vn -0.6546 0.3780 -0.6547
vn 0.6547 0.3780 -0.6547
vn 0.6547 -0.3780 0.6547
vn -0.6547 -0.3780 0.6547
vn 0.6547 0.7559 -0.0000
vn 0.6547 -0.7559 -0.0000
vn -0.6547 -0.7559 -0.0000
vn -0.6547 0.7559 -0.0000
vn 0.6547 0.3780 0.6547
vn 0.6546 0.7559 -0.0000
vn 0.6547 -0.3780 -0.6547
vn -0.6546 -0.3780 0.6547
vn -0.6546 -0.3780 -0.6547
vn 0.6546 -0.3780 0.6547
vn 0.6546 -0.3780 -0.6547
vn -0.6547 0.3780 -0.6546
vn -0.0000 0.7559 0.6546
vn -0.0000 0.7559 -0.6546
vn -0.0000 -0.7560 -0.6546
vn -0.6546 0.3780 0.6547
vn 0.6547 -0.3779 0.6547
vn -0.6546 0.7559 -0.0000
vn -0.0000 -0.7559 0.6546
vn -0.0000 -0.7559 -0.6546
vn 0.6547 0.3780 0.6546
vn 0.6546 -0.3779 0.6547
vn 0.6547 -0.3779 -0.6547
vn 0.6546 -0.7559 -0.0000
vn 0.8544 0.5196 -0.0000
vn -0.8628 -0.5056 -0.0000
vn -0.8544 0.5196 -0.0000
vn 0.8628 -0.5056 -0.0000
vn 0.7360 -0.6769 -0.0000
vn -0.0000 0.7560 0.6546
vn -0.6547 -0.3779 -0.6547
vn -0.6546 -0.7559 -0.0000
vn 0.6546 -0.3779 -0.6547
vn -0.0000 -0.7560 0.6546
vn -0.6547 -0.3779 0.6547
vt 0.588323 0.917741
vt 0.591915 0.991457
vt 0.591915 0.917741
vt 0.588323 0.991457
vt 0.198837 0.816821
vt 0.197284 0.979491
vt 0.197284 0.816821
vt 0.199441 0.816821
vt 0.199441 0.979491
vt 0.198837 0.979491
vt 0.196680 0.979491
vt 0.196680 0.816821
vt 0.199299 0.979491
vt 0.197747 0.816821
vt 0.199299 0.816821
vt 0.197143 0.979491
vt 0.197143 0.816821
vt 0.197747 0.979491
vt 0.199903 0.979491
vt 0.199903 0.816821
vt 0.216968 0.824477
vt 0.215674 0.824477
vt 0.215570 0.849401
vt 0.215589 0.874324
vt 0.221079 0.849401
vt 0.221060 0.874324
vt 0.219682 0.849401
vt 0.219682 0.874324
vt 0.217041 0.824477
vt 0.219608 0.849401
vt 0.217041 0.849401
vt 0.220975 0.824477
vt 0.216968 0.849401
vt 0.219608 0.824477
vt 0.219608 0.874324
vt 0.217041 0.874324
vt 0.216968 0.874324
vt 0.219682 0.824477
vt 0.477117 0.726949
vt 0.477117 0.724104
vt 0.479757 0.776796
vt 0.479757 0.779640
vt 0.477117 0.776796
vt 0.477117 0.751827
vt 0.477117 0.779640
vt 0.479757 0.726949
vt 0.479757 0.751827
vt 0.479757 0.724104
vt 0.477117 0.751872
vt 0.477043 0.726949
vt 0.477043 0.724104
vt 0.477043 0.751827
vt 0.477043 0.776796
vt 0.477043 0.751872
vt 0.477043 0.779640
vt 0.479683 0.751827
vt 0.479683 0.779640
vt 0.479683 0.724104
vt 0.479757 0.751872
vt 0.479683 0.776796
vt 0.479683 0.726949
vt 0.479683 0.751872
vt 0.448005 0.788824
vt 0.448082 0.782145
vt 0.448134 0.782145
vt 0.447979 0.787488
vt 0.448030 0.782145
vt 0.447746 0.788824
vt 0.447772 0.787488
vt 0.447953 0.786153
vt 0.447669 0.782145
vt 0.447798 0.786153
vt 0.447720 0.782145
vt 0.447746 0.775467
vt 0.447617 0.782145
vt 0.447772 0.776803
vt 0.447798 0.778138
vt 0.448005 0.775467
vt 0.447953 0.778138
vt 0.447979 0.776803
vt 0.447875 0.780810
vt 0.447927 0.774131
vt 0.447875 0.774131
vt 0.447927 0.779474
vt 0.447824 0.779474
vt 0.447824 0.774131
vt 0.447875 0.778138
vt 0.447875 0.767453
vt 0.447927 0.768789
vt 0.447824 0.768789
vt 0.447875 0.770124
vt 0.448134 0.766117
vt 0.447979 0.771460
vt 0.448082 0.766117
vt 0.448030 0.766117
vt 0.447746 0.772796
vt 0.448005 0.772796
vt 0.447772 0.771460
vt 0.447953 0.770124
vt 0.447617 0.766117
vt 0.447669 0.766117
vt 0.447798 0.770124
vt 0.447772 0.760774
vt 0.447798 0.762110
vt 0.447720 0.766117
vt 0.448005 0.759439
vt 0.447746 0.759439
vt 0.447953 0.762110
vt 0.447979 0.760774
vt 0.447875 0.758103
vt 0.447927 0.763446
vt 0.447927 0.758103
vt 0.447875 0.762110
vt 0.447824 0.758103
vt 0.447824 0.763446
vt 0.447875 0.764781
vt 0.447875 0.751424
vt 0.447927 0.752760
vt 0.447824 0.752760
vt 0.447875 0.754096
vt 0.448005 0.756767
vt 0.448082 0.750089
vt 0.448134 0.750089
vt 0.447979 0.755431
vt 0.448030 0.750089
vt 0.447746 0.756767
vt 0.447772 0.755431
vt 0.447953 0.754096
vt 0.447669 0.750089
vt 0.447798 0.754096
vt 0.447720 0.750089
vt 0.447746 0.743410
vt 0.447617 0.750089
vt 0.447772 0.744746
vt 0.447798 0.746082
vt 0.448005 0.743410
vt 0.447953 0.746082
vt 0.447979 0.744746
vt 0.447875 0.748753
vt 0.447927 0.742075
vt 0.447875 0.742075
vt 0.447927 0.747417
vt 0.447824 0.747417
vt 0.447824 0.742075
vt 0.447875 0.746082
vt 0.447875 0.735396
vt 0.447927 0.736732
vt 0.447824 0.736732
vt 0.447875 0.738068
vt 0.447637 0.782145
vt 0.447715 0.788824
vt 0.447586 0.782145
vt 0.447689 0.782145
vt 0.447741 0.787488
vt 0.447767 0.786153
vt 0.447973 0.788824
vt 0.447948 0.787488
vt 0.447922 0.786153
vt 0.448051 0.782145
vt 0.448103 0.782145
vt 0.447999 0.782145
vt 0.447973 0.775467
vt 0.447948 0.776803
vt 0.447922 0.778138
vt 0.447715 0.775467
vt 0.447741 0.776803
vt 0.447767 0.778138
vt 0.447792 0.774131
vt 0.447844 0.780810
vt 0.447844 0.774131
vt 0.447792 0.779474
vt 0.447896 0.779474
vt 0.447844 0.778138
vt 0.447896 0.774131
vt 0.447844 0.767453
vt 0.447792 0.768789
vt 0.447896 0.768789
vt 0.447844 0.770124
vt 0.447637 0.766117
vt 0.447715 0.772796
vt 0.447586 0.766117
vt 0.447767 0.770124
vt 0.447741 0.771460
vt 0.447689 0.766117
vt 0.447973 0.772796
vt 0.447948 0.771460
vt 0.447922 0.770124
vt 0.448103 0.766117
vt 0.447999 0.766117
vt 0.448051 0.766117
vt 0.447948 0.760774
vt 0.447973 0.759439
vt 0.447922 0.762110
vt 0.447715 0.759439
vt 0.447741 0.760774
vt 0.447767 0.762110
vt 0.447844 0.758103
vt 0.447792 0.763446
vt 0.447844 0.764781
vt 0.447792 0.758103
vt 0.447844 0.762110
vt 0.447896 0.758103
vt 0.447896 0.763446
vt 0.447844 0.751424
vt 0.447792 0.752760
vt 0.447896 0.752760
vt 0.447844 0.754096
vt 0.447637 0.750089
vt 0.447715 0.756767
vt 0.447586 0.750089
vt 0.447689 0.750089
vt 0.447741 0.755431
vt 0.447767 0.754096
vt 0.447973 0.756767
vt 0.447948 0.755431
vt 0.447922 0.754096
vt 0.448051 0.750089
vt 0.448103 0.750089
vt 0.447999 0.750089
vt 0.447973 0.743410
vt 0.447948 0.744746
vt 0.447922 0.746082
vt 0.447715 0.743410
vt 0.447741 0.744746
vt 0.447767 0.746082
vt 0.447792 0.742075
vt 0.447844 0.748753
vt 0.447844 0.742075
vt 0.447792 0.747417
vt 0.447896 0.747417
vt 0.447844 0.746082
vt 0.447896 0.742075
vt 0.447844 0.735396
vt 0.447792 0.736732
vt 0.447896 0.736732
vt 0.447844 0.738068
vt 0.575610 0.922685
vt 0.573275 0.990252
vt 0.575610 0.877081
vt 0.571840 0.990252
vt 0.573129 0.990252
vt 0.570793 0.922685
vt 0.570793 0.877081
vt 0.574563 0.990252
s 0
usemtl Texture_Map
f 2/1/1 3/2/1 1/3/1
f 7/2/2 6/1/2 5/3/2
f 1/3/3 7/2/3 5/3/3
f 1/3/4 6/1/4 2/1/4
f 2/1/5 8/4/5 4/4/5
f 4/4/6 7/2/6 3/2/6
f 12/5/1 18/6/1 9/7/1
f 16/8/5 20/9/5 11/8/5
f 14/7/2 24/10/2 15/5/2
f 22/11/7 14/7/7 13/12/7
f 16/8/8 24/10/8 23/9/8
f 20/9/9 12/5/9 11/8/9
f 10/12/10 18/6/10 17/11/10
f 10/12/3 22/11/3 13/12/3
f 34/13/1 28/14/1 25/15/1
f 36/16/3 32/17/3 27/17/3
f 40/18/2 30/15/2 31/14/2
f 30/15/8 38/19/8 29/20/8
f 40/18/7 32/17/7 39/16/7
f 28/14/10 36/16/10 27/17/10
f 34/13/9 26/20/9 33/19/9
f 73/21/4 43/22/4 68/21/4
f 51/23/11 46/24/11 45/24/11
f 50/25/12 47/26/12 49/25/12
f 48/26/13 61/27/13 56/28/13
f 74/29/14 70/30/14 71/31/14
f 41/22/15 51/23/15 43/22/15
f 50/25/16 42/32/16 44/32/16
f 56/28/6 47/26/6 48/26/6
f 64/33/17 43/22/17 51/23/17
f 67/29/4 75/34/4 74/29/4
f 59/35/18 71/31/18 70/30/18
f 69/27/18 47/26/18 60/28/18
f 72/33/14 41/22/14 73/21/14
f 63/31/17 66/34/17 67/29/17
f 58/36/6 55/35/6 54/36/6
f 44/32/17 61/27/17 50/25/17
f 45/24/6 57/37/6 53/37/6
f 69/27/14 42/32/14 49/25/14
f 46/24/18 72/33/18 57/37/18
f 42/32/4 65/38/4 44/32/4
f 63/31/13 55/35/13 62/30/13
f 74/39/5 85/40/5 67/39/5
f 56/41/5 92/42/5 60/41/5
f 54/43/5 77/44/5 80/45/5
f 76/46/5 99/47/5 98/48/5
f 67/39/5 77/44/5 63/49/5
f 73/50/3 86/51/3 95/51/3
f 68/50/3 78/52/3 86/51/3
f 58/43/5 93/44/5 71/49/5
f 54/43/5 90/45/5 58/43/5
f 53/53/3 78/52/3 64/54/3
f 74/39/5 93/44/5 96/40/5
f 57/53/3 94/52/3 89/55/3
f 64/33/13 45/24/13 53/37/13
f 78/52/19 80/45/19 77/44/19
f 82/42/19 84/56/19 81/57/19
f 78/52/20 85/40/20 86/51/20
f 87/48/20 84/56/20 83/47/20
f 79/55/6 90/45/6 80/45/6
f 92/42/6 81/57/6 91/57/6
f 95/51/21 93/44/21 94/52/21
f 99/47/21 97/58/21 98/48/21
f 92/42/22 100/56/22 99/47/22
f 94/52/22 90/45/22 89/55/22
f 86/51/4 96/40/4 95/51/4
f 98/48/4 88/58/4 87/48/4
f 65/46/5 83/47/5 61/59/5
f 59/60/3 81/57/3 55/60/3
f 76/46/5 87/48/5 65/46/5
f 75/61/3 100/56/3 70/62/3
f 56/41/5 83/47/5 82/42/5
f 75/61/3 88/58/3 97/58/3
f 66/61/3 84/56/3 88/58/3
f 60/41/5 99/47/5 69/59/5
f 73/50/3 94/52/3 72/54/3
f 57/53/3 79/55/3 53/53/3
f 59/60/3 100/56/3 91/57/3
f 55/60/3 84/56/3 62/62/3
f 105/63/23 102/64/23 101/65/23
f 106/66/24 103/67/24 102/64/24
f 103/67/25 108/66/25 104/64/25
f 104/64/26 105/63/26 101/65/26
f 109/68/27 106/66/27 105/63/27
f 110/69/28 107/70/28 106/66/28
f 107/70/29 112/69/29 108/66/29
f 112/69/30 105/63/30 108/66/30
f 109/68/31 114/71/31 110/69/31
f 114/71/32 111/72/32 110/69/32
f 115/73/33 112/69/33 111/72/33
f 116/71/34 109/68/34 112/69/34
f 117/74/24 114/71/24 113/75/24
f 118/76/23 115/73/23 114/71/23
f 119/77/35 116/71/35 115/73/35
f 116/71/36 117/74/36 113/75/36
f 121/78/28 118/76/28 117/74/28
f 118/76/27 123/79/27 119/77/27
f 123/79/37 120/76/37 119/77/37
f 124/80/29 117/74/29 120/76/29
f 121/78/32 102/64/32 122/80/32
f 122/80/38 103/67/38 123/79/38
f 103/67/39 124/80/39 123/79/39
f 104/64/33 121/78/33 124/80/33
f 129/81/40 126/82/40 125/83/40
f 130/84/41 127/83/41 126/82/41
f 127/83/42 132/85/42 128/86/42
f 128/86/34 129/81/34 125/83/34
f 133/81/43 130/84/43 129/81/43
f 134/84/44 131/87/44 130/84/44
f 135/87/45 132/85/45 131/87/45
f 132/85/46 133/81/46 129/81/46
f 133/81/47 138/82/47 134/84/47
f 134/84/33 139/83/33 135/87/33
f 139/83/25 136/85/25 135/87/25
f 140/86/38 133/81/38 136/85/38
f 141/88/32 138/82/32 137/83/32
f 142/89/40 139/83/40 138/82/40
f 139/83/34 144/90/34 140/86/34
f 140/86/24 141/88/24 137/83/24
f 145/88/44 142/89/44 141/88/44
f 142/89/48 147/91/48 143/91/48
f 147/91/46 144/90/46 143/91/46
f 144/90/45 145/88/45 141/88/45
f 145/88/49 126/82/49 146/89/49
f 146/89/23 127/83/23 147/91/23
f 127/83/38 148/90/38 147/91/38
f 128/86/36 145/88/36 148/90/36
f 149/92/23 154/93/23 150/94/23
f 154/93/50 151/95/50 150/94/50
f 151/95/51 156/93/51 152/94/51
f 156/93/40 149/92/40 152/94/40
f 157/96/27 154/93/27 153/97/27
f 158/98/28 155/99/28 154/93/28
f 155/99/29 160/98/29 156/93/29
f 160/98/37 153/97/37 156/93/37
f 161/100/31 158/98/31 157/96/31
f 162/101/52 159/102/52 158/98/52
f 159/102/53 164/101/53 160/98/53
f 160/98/54 161/100/54 157/96/54
f 161/100/24 166/103/24 162/101/24
f 162/101/23 167/104/23 163/105/23
f 167/104/26 164/101/26 163/105/26
f 168/103/36 161/100/36 164/101/36
f 169/106/28 166/103/28 165/107/28
f 166/103/55 171/108/55 167/104/55
f 171/108/56 168/103/56 167/104/56
f 172/109/57 165/107/57 168/103/57
f 149/92/32 170/109/32 169/106/32
f 150/94/58 171/108/58 170/109/58
f 171/108/39 152/94/39 172/109/39
f 172/109/33 149/92/33 169/106/33
f 173/110/35 178/111/35 174/112/35
f 174/112/59 179/113/59 175/110/59
f 179/113/50 176/114/50 175/110/50
f 180/115/54 173/110/54 176/114/54
f 177/116/43 182/111/43 178/111/43
f 182/111/44 179/113/44 178/111/44
f 183/113/45 180/115/45 179/113/45
f 180/115/60 181/116/60 177/116/60
f 185/110/23 182/111/23 181/116/23
f 186/112/33 183/113/33 182/111/33
f 183/113/25 188/114/25 184/115/25
f 184/115/58 185/110/58 181/116/58
f 189/117/41 186/112/41 185/110/41
f 190/118/40 187/110/40 186/112/40
f 187/110/34 192/119/34 188/114/34
f 188/114/42 189/117/42 185/110/42
f 193/117/44 190/118/44 189/117/44
f 190/118/48 195/120/48 191/120/48
f 195/120/46 192/119/46 191/120/46
f 192/119/45 193/117/45 189/117/45
f 193/117/49 174/112/49 194/118/49
f 194/118/23 175/110/23 195/120/23
f 175/110/38 196/119/38 195/120/38
f 176/114/36 193/117/36 196/119/36
f 201/121/47 198/122/47 197/123/47
f 202/124/24 199/125/24 198/122/24
f 199/125/25 204/124/25 200/122/25
f 200/122/40 201/121/40 197/123/40
f 205/126/55 202/124/55 201/121/55
f 206/127/61 203/128/61 202/124/61
f 203/128/62 208/127/62 204/124/62
f 208/127/37 201/121/37 204/124/37
f 205/126/38 210/129/38 206/127/38
f 210/129/52 207/130/52 206/127/52
f 211/131/33 208/127/33 207/130/33
f 212/129/54 205/126/54 208/127/54
f 213/132/42 210/129/42 209/133/42
f 214/134/47 211/131/47 210/129/47
f 215/135/40 212/129/40 211/131/40
f 212/129/36 213/132/36 209/133/36
f 217/136/61 214/134/61 213/132/61
f 214/134/55 219/137/55 215/135/55
f 219/137/56 216/134/56 215/135/56
f 220/138/29 213/132/29 216/134/29
f 217/136/32 198/122/32 218/138/32
f 218/138/38 199/125/38 219/137/38
f 199/125/34 220/138/34 219/137/34
f 200/122/49 217/136/49 220/138/49
f 225/139/35 222/140/35 221/141/35
f 226/142/41 223/141/41 222/140/41
f 223/141/42 228/143/42 224/144/42
f 224/144/54 225/139/54 221/141/54
f 225/139/43 230/142/43 226/142/43
f 230/142/44 227/145/44 226/142/44
f 231/145/45 228/143/45 227/145/45
f 232/143/46 225/139/46 228/143/46
f 229/139/47 234/140/47 230/142/47
f 230/142/53 235/141/53 231/145/53
f 235/141/36 232/143/36 231/145/36
f 236/144/38 229/139/38 232/143/38
f 237/146/41 234/140/41 233/141/41
f 238/147/40 235/141/40 234/140/40
f 235/141/34 240/148/34 236/144/34
f 236/144/42 237/146/42 233/141/42
f 241/146/44 238/147/44 237/146/44
f 242/147/43 239/149/43 238/147/43
f 243/149/46 240/148/46 239/149/46
f 240/148/45 241/146/45 237/146/45
f 241/146/49 222/140/49 242/147/49
f 242/147/63 223/141/63 243/149/63
f 223/141/38 244/148/38 243/149/38
f 224/144/36 241/146/36 244/148/36
f 246/150/58 249/151/58 245/152/58
f 247/153/32 250/154/32 246/150/32
f 247/153/33 252/154/33 251/155/33
f 248/150/34 249/151/34 252/154/34
f 250/154/27 253/156/27 249/151/27
f 251/155/28 254/157/28 250/154/28
f 252/154/57 255/158/57 251/155/57
f 249/151/56 256/157/56 252/154/56
f 253/156/23 258/159/23 257/160/23
f 254/157/42 259/161/42 258/159/42
f 256/157/36 259/161/36 255/158/36
f 253/156/40 260/159/40 256/157/40
f 258/159/41 261/162/41 257/160/41
f 259/161/58 262/163/58 258/159/58
f 259/161/39 264/163/39 263/164/39
f 260/159/49 261/162/49 264/163/49
f 262/163/28 265/165/28 261/162/28
f 263/164/55 266/166/55 262/163/55
f 264/163/37 267/167/37 263/164/37
f 261/162/29 268/166/29 264/163/29
f 265/165/42 246/150/42 245/152/42
f 266/166/23 247/153/23 246/150/23
f 268/166/35 247/153/35 267/167/35
f 265/165/36 248/150/36 268/166/36
f 270/168/34 273/169/34 269/170/34
f 271/170/42 274/171/42 270/168/42
f 271/170/41 276/172/41 275/173/41
f 272/174/26 273/169/26 276/172/26
f 274/171/46 277/169/46 273/169/46
f 275/173/45 278/171/45 274/171/45
f 276/172/44 279/173/44 275/173/44
f 276/172/48 277/169/48 280/172/48
f 277/169/38 282/168/38 281/170/38
f 278/171/36 283/170/36 282/168/36
f 280/172/49 283/170/49 279/173/49
f 277/169/23 284/174/23 280/172/23
f 282/168/42 285/175/42 281/170/42
f 283/170/39 286/176/39 282/168/39
f 283/170/40 288/177/40 287/178/40
f 284/174/52 285/175/52 288/177/52
f 286/176/45 289/175/45 285/175/45
f 286/176/46 291/178/46 290/176/46
f 288/177/43 291/178/43 287/178/43
f 288/177/44 289/175/44 292/177/44
f 289/175/36 270/168/36 269/170/36
f 290/176/58 271/170/58 270/168/58
f 292/177/47 271/170/47 291/178/47
f 289/175/53 272/174/53 292/177/53
f 294/179/38 297/180/38 293/181/38
f 294/179/64 299/182/64 298/183/64
f 296/179/49 299/182/49 295/184/49
f 293/181/39 300/183/39 296/179/39
f 298/183/27 301/185/27 297/180/27
f 299/182/28 302/186/28 298/183/28
f 300/183/62 303/187/62 299/182/62
f 297/180/37 304/186/37 300/183/37
f 302/186/63 305/188/63 301/185/63
f 302/186/50 307/189/50 306/190/50
f 304/186/51 307/189/51 303/187/51
f 304/186/40 305/188/40 308/190/40
f 305/188/32 310/191/32 309/192/32
f 306/190/58 311/193/58 310/191/58
f 308/190/54 311/193/54 307/189/54
f 305/188/33 312/191/33 308/190/33
f 310/191/28 313/194/28 309/192/28
f 311/193/27 314/195/27 310/191/27
f 312/191/37 315/196/37 311/193/37
f 309/192/62 316/195/62 312/191/62
f 314/195/24 293/181/24 313/194/24
f 315/196/63 294/179/63 314/195/63
f 315/196/26 296/179/26 295/184/26
f 313/194/25 296/179/25 316/195/25
f 317/197/39 322/198/39 321/199/39
f 318/200/50 323/201/50 322/198/50
f 320/202/41 323/201/41 319/197/41
f 317/197/35 324/203/35 320/202/35
f 321/199/46 326/198/46 325/199/46
f 323/201/45 326/198/45 322/198/45
f 324/203/44 327/201/44 323/201/44
f 324/203/43 325/199/43 328/203/43
f 326/198/58 329/197/58 325/199/58
f 327/201/51 330/200/51 326/198/51
f 327/201/65 332/202/65 331/197/65
f 328/203/63 329/197/63 332/202/63
f 330/200/50 333/204/50 329/197/50
f 331/197/39 334/205/39 330/200/39
f 331/197/40 336/206/40 335/207/40
f 332/202/41 333/204/41 336/206/41
f 334/205/45 337/204/45 333/204/45
f 334/205/46 339/207/46 338/205/46
f 336/206/43 339/207/43 335/207/43
f 336/206/66 337/204/66 340/206/66
f 337/204/51 318/200/51 317/197/51
f 338/205/58 319/197/58 318/200/58
f 340/206/47 319/197/47 339/207/47
f 337/204/49 320/202/49 340/206/49
f 342/208/38 345/209/38 341/210/38
f 343/211/32 346/212/32 342/208/32
f 343/211/49 348/212/49 347/213/49
f 344/208/34 345/209/34 348/212/34
f 346/212/55 349/214/55 345/209/55
f 347/213/61 350/215/61 346/212/61
f 348/212/29 351/216/29 347/213/29
f 345/209/37 352/215/37 348/212/37
f 349/214/47 354/217/47 353/218/47
f 350/215/42 355/219/42 354/217/42
f 352/215/25 355/219/25 351/216/25
f 349/214/26 356/217/26 352/215/26
f 354/217/32 357/220/32 353/218/32
f 355/219/38 358/221/38 354/217/38
f 355/219/34 360/221/34 359/222/34
f 356/217/49 357/220/49 360/221/49
f 358/221/61 361/223/61 357/220/61
f 359/222/27 362/224/27 358/221/27
f 360/221/56 363/225/56 359/222/56
f 357/220/29 364/224/29 360/221/29
f 361/223/50 342/208/50 341/210/50
f 362/224/23 343/211/23 342/208/23
f 364/224/40 343/211/40 363/225/40
f 361/223/36 344/208/36 364/224/36
f 366/226/34 369/227/34 365/228/34
f 367/228/42 370/229/42 366/226/42
f 367/228/52 372/230/52 371/231/52
f 368/232/26 369/227/26 372/230/26
f 369/227/46 374/229/46 373/227/46
f 371/231/45 374/229/45 370/229/45
f 372/230/44 375/231/44 371/231/44
f 369/227/43 376/230/43 372/230/43
f 373/227/38 378/226/38 377/228/38
f 374/229/36 379/228/36 378/226/36
f 376/230/53 379/228/53 375/231/53
f 373/227/23 380/232/23 376/230/23
f 378/226/50 381/233/50 377/228/50
f 379/228/34 382/234/34 378/226/34
f 379/228/40 384/235/40 383/236/40
f 380/232/41 381/233/41 384/235/41
f 382/234/45 385/233/45 381/233/45
f 383/236/46 386/234/46 382/234/46
f 384/235/43 387/236/43 383/236/43
f 384/235/66 385/233/66 388/235/66
f 385/233/51 366/226/51 365/228/51
f 386/234/38 367/228/38 366/226/38
f 388/235/47 367/228/47 387/236/47
f 385/233/49 368/232/49 388/235/49
f 392/237/67 395/238/67 390/237/67
f 391/239/68 394/240/68 393/240/68
f 392/237/2 393/240/2 396/238/2
f 390/237/1 394/240/1 389/239/1
f 403/241/69 400/242/69 398/242/69
f 399/243/70 402/244/70 397/243/70
f 400/242/2 401/244/2 399/243/2
f 402/244/1 398/242/1 397/243/1
f 38/19/5 26/20/5 29/20/5
f 2/1/1 4/4/1 3/2/1
f 7/2/2 8/4/2 6/1/2
f 1/3/3 3/2/3 7/2/3
f 1/3/4 5/3/4 6/1/4
f 2/1/5 6/1/5 8/4/5
f 4/4/6 8/4/6 7/2/6
f 12/5/1 19/10/1 18/6/1
f 16/8/5 23/9/5 20/9/5
f 14/7/2 21/6/2 24/10/2
f 22/11/7 21/6/7 14/7/7
f 16/8/8 15/5/8 24/10/8
f 20/9/9 19/10/9 12/5/9
f 10/12/10 9/7/10 18/6/10
f 10/12/3 17/11/3 22/11/3
f 34/13/1 35/18/1 28/14/1
f 36/16/3 39/16/3 32/17/3
f 40/18/2 37/13/2 30/15/2
f 30/15/8 37/13/8 38/19/8
f 40/18/7 31/14/7 32/17/7
f 28/14/10 35/18/10 36/16/10
f 34/13/9 25/15/9 26/20/9
f 73/21/4 41/22/4 43/22/4
f 51/23/11 52/23/11 46/24/11
f 50/25/12 48/26/12 47/26/12
f 48/26/13 50/25/13 61/27/13
f 74/29/14 75/34/14 70/30/14
f 41/22/15 52/23/15 51/23/15
f 50/25/71 49/25/71 42/32/71
f 56/28/6 60/28/6 47/26/6
f 64/33/17 68/21/17 43/22/17
f 67/29/4 66/34/4 75/34/4
f 59/35/18 58/36/18 71/31/18
f 69/27/18 49/25/18 47/26/18
f 72/33/14 52/23/14 41/22/14
f 63/31/17 62/30/17 66/34/17
f 58/36/6 59/35/6 55/35/6
f 44/32/17 65/38/17 61/27/17
f 45/24/6 46/24/6 57/37/6
f 69/27/14 76/38/14 42/32/14
f 46/24/18 52/23/18 72/33/18
f 42/32/4 76/38/4 65/38/4
f 63/31/13 54/36/13 55/35/13
f 74/39/5 96/40/5 85/40/5
f 56/41/5 82/42/5 92/42/5
f 54/43/5 63/49/5 77/44/5
f 76/46/5 69/59/5 99/47/5
f 67/39/5 85/40/5 77/44/5
f 73/50/3 68/50/3 86/51/3
f 68/50/3 64/54/3 78/52/3
f 58/43/5 90/45/5 93/44/5
f 54/43/5 80/45/5 90/45/5
f 53/53/3 79/55/3 78/52/3
f 74/39/5 71/49/5 93/44/5
f 57/53/3 72/54/3 94/52/3
f 64/33/13 51/23/13 45/24/13
f 78/52/19 79/55/19 80/45/19
f 82/42/19 83/47/19 84/56/19
f 78/52/20 77/44/20 85/40/20
f 87/48/20 88/58/20 84/56/20
f 79/55/6 89/55/6 90/45/6
f 92/42/6 82/42/6 81/57/6
f 95/51/21 96/40/21 93/44/21
f 99/47/21 100/56/21 97/58/21
f 92/42/22 91/57/22 100/56/22
f 94/52/22 93/44/22 90/45/22
f 86/51/4 85/40/4 96/40/4
f 98/48/4 97/58/4 88/58/4
f 65/46/5 87/48/5 83/47/5
f 59/60/3 91/57/3 81/57/3
f 76/46/5 98/48/5 87/48/5
f 75/61/3 97/58/3 100/56/3
f 56/41/5 61/59/5 83/47/5
f 75/61/3 66/61/3 88/58/3
f 66/61/3 62/62/3 84/56/3
f 60/41/5 92/42/5 99/47/5
f 73/50/3 95/51/3 94/52/3
f 57/53/3 89/55/3 79/55/3
f 59/60/3 70/62/3 100/56/3
f 55/60/3 81/57/3 84/56/3
f 105/63/63 106/66/63 102/64/63
f 106/66/42 107/70/42 103/67/42
f 103/67/36 107/70/36 108/66/36
f 104/64/40 108/66/40 105/63/40
f 109/68/55 110/69/55 106/66/55
f 110/69/61 111/72/61 107/70/61
f 107/70/62 111/72/62 112/69/62
f 112/69/37 109/68/37 105/63/37
f 109/68/58 113/75/58 114/71/58
f 114/71/41 115/73/41 111/72/41
f 115/73/49 116/71/49 112/69/49
f 116/71/39 113/75/39 109/68/39
f 117/74/24 118/76/24 114/71/24
f 118/76/47 119/77/47 115/73/47
f 119/77/26 120/76/26 116/71/26
f 116/71/36 120/76/36 117/74/36
f 121/78/28 122/80/28 118/76/28
f 118/76/72 122/80/72 123/79/72
f 123/79/56 124/80/56 120/76/56
f 124/80/29 121/78/29 117/74/29
f 121/78/32 101/65/32 102/64/32
f 122/80/58 102/64/58 103/67/58
f 103/67/39 104/64/39 124/80/39
f 104/64/49 101/65/49 121/78/49
f 129/81/40 130/84/40 126/82/40
f 130/84/32 131/87/32 127/83/32
f 127/83/24 131/87/24 132/85/24
f 128/86/34 132/85/34 129/81/34
f 133/81/43 134/84/43 130/84/43
f 134/84/66 135/87/66 131/87/66
f 135/87/45 136/85/45 132/85/45
f 132/85/46 136/85/46 133/81/46
f 133/81/47 137/83/47 138/82/47
f 134/84/49 138/82/49 139/83/49
f 139/83/51 140/86/51 136/85/51
f 140/86/38 137/83/38 133/81/38
f 141/88/41 142/89/41 138/82/41
f 142/89/26 143/91/26 139/83/26
f 139/83/34 143/91/34 144/90/34
f 140/86/50 144/90/50 141/88/50
f 145/88/44 146/89/44 142/89/44
f 142/89/43 146/89/43 147/91/43
f 147/91/46 148/90/46 144/90/46
f 144/90/45 148/90/45 145/88/45
f 145/88/33 125/83/33 126/82/33
f 146/89/47 126/82/47 127/83/47
f 127/83/38 128/86/38 148/90/38
f 128/86/25 125/83/25 145/88/25
f 149/92/63 153/97/63 154/93/63
f 154/93/50 155/99/50 151/95/50
f 151/95/51 155/99/51 156/93/51
f 156/93/35 153/97/35 149/92/35
f 157/96/27 158/98/27 154/93/27
f 158/98/28 159/102/28 155/99/28
f 155/99/29 159/102/29 160/98/29
f 160/98/37 157/96/37 153/97/37
f 161/100/58 162/101/58 158/98/58
f 162/101/32 163/105/32 159/102/32
f 159/102/33 163/105/33 164/101/33
f 160/98/34 164/101/34 161/100/34
f 161/100/24 165/107/24 166/103/24
f 162/101/23 166/103/23 167/104/23
f 167/104/26 168/103/26 164/101/26
f 168/103/25 165/107/25 161/100/25
f 169/106/61 170/109/61 166/103/61
f 166/103/27 170/109/27 171/108/27
f 171/108/37 172/109/37 168/103/37
f 172/109/29 169/106/29 165/107/29
f 149/92/32 150/94/32 170/109/32
f 150/94/31 151/95/31 171/108/31
f 171/108/54 151/95/54 152/94/54
f 172/109/49 152/94/49 149/92/49
f 173/110/26 177/116/26 178/111/26
f 174/112/32 178/111/32 179/113/32
f 179/113/42 180/115/42 176/114/42
f 180/115/34 177/116/34 173/110/34
f 177/116/43 181/116/43 182/111/43
f 182/111/66 183/113/66 179/113/66
f 183/113/45 184/115/45 180/115/45
f 180/115/46 184/115/46 181/116/46
f 185/110/63 186/112/63 182/111/63
f 186/112/65 187/110/65 183/113/65
f 183/113/73 187/110/73 188/114/73
f 184/115/31 188/114/31 185/110/31
f 189/117/41 190/118/41 186/112/41
f 190/118/26 191/120/26 187/110/26
f 187/110/34 191/120/34 192/119/34
f 188/114/42 192/119/42 189/117/42
f 193/117/44 194/118/44 190/118/44
f 190/118/43 194/118/43 195/120/43
f 195/120/46 196/119/46 192/119/46
f 192/119/45 196/119/45 193/117/45
f 193/117/49 173/110/49 174/112/49
f 194/118/47 174/112/47 175/110/47
f 175/110/38 176/114/38 196/119/38
f 176/114/36 173/110/36 193/117/36
f 201/121/23 202/124/23 198/122/23
f 202/124/24 203/128/24 199/125/24
f 199/125/25 203/128/25 204/124/25
f 200/122/26 204/124/26 201/121/26
f 205/126/27 206/127/27 202/124/27
f 206/127/28 207/130/28 203/128/28
f 203/128/29 207/130/29 208/127/29
f 208/127/56 205/126/56 201/121/56
f 205/126/38 209/133/38 210/129/38
f 210/129/32 211/131/32 207/130/32
f 211/131/53 212/129/53 208/127/53
f 212/129/34 209/133/34 205/126/34
f 213/132/50 214/134/50 210/129/50
f 214/134/63 215/135/63 211/131/63
f 215/135/40 216/134/40 212/129/40
f 212/129/51 216/134/51 213/132/51
f 217/136/28 218/138/28 214/134/28
f 214/134/27 218/138/27 219/137/27
f 219/137/37 220/138/37 216/134/37
f 220/138/62 217/136/62 213/132/62
f 217/136/32 197/123/32 198/122/32
f 218/138/58 198/122/58 199/125/58
f 199/125/54 200/122/54 220/138/54
f 200/122/33 197/123/33 217/136/33
f 225/139/40 226/142/40 222/140/40
f 226/142/41 227/145/41 223/141/41
f 223/141/50 227/145/50 228/143/50
f 224/144/34 228/143/34 225/139/34
f 225/139/43 229/139/43 230/142/43
f 230/142/66 231/145/66 227/145/66
f 231/145/45 232/143/45 228/143/45
f 232/143/60 229/139/60 225/139/60
f 229/139/63 233/141/63 234/140/63
f 230/142/49 234/140/49 235/141/49
f 235/141/36 236/144/36 232/143/36
f 236/144/31 233/141/31 229/139/31
f 237/146/41 238/147/41 234/140/41
f 238/147/35 239/149/35 235/141/35
f 235/141/34 239/149/34 240/148/34
f 236/144/42 240/148/42 237/146/42
f 241/146/44 242/147/44 238/147/44
f 242/147/43 243/149/43 239/149/43
f 243/149/46 244/148/46 240/148/46
f 240/148/45 244/148/45 241/146/45
f 241/146/49 221/141/49 222/140/49
f 242/147/47 222/140/47 223/141/47
f 223/141/38 224/144/38 244/148/38
f 224/144/36 221/141/36 241/146/36
f 246/150/38 250/154/38 249/151/38
f 247/153/32 251/155/32 250/154/32
f 247/153/33 248/150/33 252/154/33
f 248/150/39 245/152/39 249/151/39
f 250/154/72 254/157/72 253/156/72
f 251/155/61 255/158/61 254/157/61
f 252/154/29 256/157/29 255/158/29
f 249/151/37 253/156/37 256/157/37
f 253/156/63 254/157/63 258/159/63
f 254/157/42 255/158/42 259/161/42
f 256/157/36 260/159/36 259/161/36
f 253/156/26 257/160/26 260/159/26
f 258/159/32 262/163/32 261/162/32
f 259/161/58 263/164/58 262/163/58
f 259/161/39 260/159/39 264/163/39
f 260/159/49 257/160/49 261/162/49
f 262/163/28 266/166/28 265/165/28
f 263/164/27 267/167/27 266/166/27
f 264/163/30 268/166/30 267/167/30
f 261/162/29 265/165/29 268/166/29
f 265/165/42 266/166/42 246/150/42
f 266/166/63 267/167/63 247/153/63
f 268/166/26 248/150/26 247/153/26
f 265/165/36 245/152/36 248/150/36
f 270/168/39 274/171/39 273/169/39
f 271/170/50 275/173/50 274/171/50
f 271/170/41 272/174/41 276/172/41
f 272/174/40 269/170/40 273/169/40
f 274/171/60 278/171/60 277/169/60
f 275/173/74 279/173/74 278/171/74
f 276/172/66 280/172/66 279/173/66
f 276/172/43 273/169/43 277/169/43
f 277/169/58 278/171/58 282/168/58
f 278/171/51 279/173/51 283/170/51
f 280/172/49 284/174/49 283/170/49
f 277/169/47 281/170/47 284/174/47
f 282/168/50 286/176/50 285/175/50
f 283/170/39 287/178/39 286/176/39
f 283/170/26 284/174/26 288/177/26
f 284/174/41 281/170/41 285/175/41
f 286/176/74 290/176/74 289/175/74
f 286/176/60 287/178/60 291/178/60
f 288/177/48 292/177/48 291/178/48
f 288/177/44 285/175/44 289/175/44
f 289/175/51 290/176/51 270/168/51
f 290/176/58 291/178/58 271/170/58
f 292/177/23 272/174/23 271/170/23
f 289/175/49 269/170/49 272/174/49
f 294/179/31 298/183/31 297/180/31
f 294/179/41 295/184/41 299/182/41
f 296/179/75 300/183/75 299/182/75
f 293/181/54 297/180/54 300/183/54
f 298/183/27 302/186/27 301/185/27
f 299/182/61 303/187/61 302/186/61
f 300/183/29 304/186/29 303/187/29
f 297/180/37 301/185/37 304/186/37
f 302/186/47 306/190/47 305/188/47
f 302/186/50 303/187/50 307/189/50
f 304/186/51 308/190/51 307/189/51
f 304/186/35 301/185/35 305/188/35
f 305/188/32 306/190/32 310/191/32
f 306/190/31 307/189/31 311/193/31
f 308/190/39 312/191/39 311/193/39
f 305/188/33 309/192/33 312/191/33
f 310/191/76 314/195/76 313/194/76
f 311/193/27 315/196/27 314/195/27
f 312/191/37 316/195/37 315/196/37
f 309/192/29 313/194/29 316/195/29
f 314/195/50 294/179/50 293/181/50
f 315/196/23 295/184/23 294/179/23
f 315/196/35 316/195/35 296/179/35
f 313/194/51 293/181/51 296/179/51
f 317/197/54 318/200/54 322/198/54
f 318/200/77 319/197/77 323/201/77
f 320/202/41 324/203/41 323/201/41
f 317/197/40 321/199/40 324/203/40
f 321/199/60 322/198/60 326/198/60
f 323/201/74 327/201/74 326/198/74
f 324/203/66 328/203/66 327/201/66
f 324/203/48 321/199/48 325/199/48
f 326/198/31 330/200/31 329/197/31
f 327/201/36 331/197/36 330/200/36
f 327/201/53 328/203/53 332/202/53
f 328/203/23 325/199/23 329/197/23
f 330/200/24 334/205/24 333/204/24
f 331/197/39 335/207/39 334/205/39
f 331/197/26 332/202/26 336/206/26
f 332/202/52 329/197/52 333/204/52
f 334/205/45 338/205/45 337/204/45
f 334/205/60 335/207/60 339/207/60
f 336/206/48 340/206/48 339/207/48
f 336/206/44 333/204/44 337/204/44
f 337/204/36 338/205/36 318/200/36
f 338/205/58 339/207/58 319/197/58
f 340/206/23 320/202/23 319/197/23
f 337/204/53 317/197/53 320/202/53
f 342/208/38 346/212/38 345/209/38
f 343/211/41 347/213/41 346/212/41
f 343/211/33 344/208/33 348/212/33
f 344/208/34 341/210/34 345/209/34
f 346/212/27 350/215/27 349/214/27
f 347/213/28 351/216/28 350/215/28
f 348/212/62 352/215/62 351/216/62
f 345/209/56 349/214/56 352/215/56
f 349/214/23 350/215/23 354/217/23
f 350/215/24 351/216/24 355/219/24
f 352/215/36 356/217/36 355/219/36
f 349/214/40 353/218/40 356/217/40
f 354/217/41 358/221/41 357/220/41
f 355/219/38 359/222/38 358/221/38
f 355/219/34 356/217/34 360/221/34
f 356/217/33 353/218/33 357/220/33
f 358/221/28 362/224/28 361/223/28
f 359/222/55 363/225/55 362/224/55
f 360/221/37 364/224/37 363/225/37
f 357/220/62 361/223/62 364/224/62
f 361/223/42 362/224/42 342/208/42
f 362/224/47 363/225/47 343/211/47
f 364/224/26 344/208/26 343/211/26
f 361/223/51 341/210/51 344/208/51
f 366/226/39 370/229/39 369/227/39
f 367/228/50 371/231/50 370/229/50
f 367/228/41 368/232/41 372/230/41
f 368/232/40 365/228/40 369/227/40
f 369/227/46 370/229/46 374/229/46
f 371/231/74 375/231/74 374/229/74
f 372/230/66 376/230/66 375/231/66
f 369/227/48 373/227/48 376/230/48
f 373/227/58 374/229/58 378/226/58
f 374/229/51 375/231/51 379/228/51
f 376/230/49 380/232/49 379/228/49
f 373/227/47 377/228/47 380/232/47
f 378/226/42 382/234/42 381/233/42
f 379/228/39 383/236/39 382/234/39
f 379/228/40 380/232/40 384/235/40
f 380/232/52 377/228/52 381/233/52
f 382/234/74 386/234/74 385/233/74
f 383/236/46 387/236/46 386/234/46
f 384/235/48 388/235/48 387/236/48
f 384/235/44 381/233/44 385/233/44
f 385/233/36 386/234/36 366/226/36
f 386/234/58 387/236/58 367/228/58
f 388/235/47 368/232/47 367/228/47
f 385/233/49 365/228/49 368/232/49
f 392/237/67 396/238/67 395/238/67
f 391/239/68 389/239/68 394/240/68
f 392/237/2 391/239/2 393/240/2
f 390/237/1 395/238/1 394/240/1
f 403/241/69 404/241/69 400/242/69
f 399/243/70 401/244/70 402/244/70
f 400/242/2 404/241/2 401/244/2
f 402/244/1 403/241/1 398/242/1
f 38/19/5 33/19/5 26/20/5
