# Blender 4.4.0
# www.blender.org
mtllib Crop_Garlic_02.mtl
o Crop_Garlic_02
v -0.018634 -0.009424 0.039259
v 0.008665 0.018140 0.040951
v -0.004843 -0.033694 0.010535
v -0.011008 -0.033694 0.002808
v -0.036338 0.018140 0.008562
v -0.042094 -0.009424 0.010000
v -0.041043 -0.009424 0.027049
v -0.011758 -0.033694 0.009653
v -0.036436 0.018031 0.025465
v -0.026344 -0.027959 0.024072
v -0.030018 -0.009424 0.036814
v -0.002471 0.078864 0.001747
v -0.008523 -0.033694 0.010833
v -0.026366 0.018140 0.032496
v -0.012185 -0.033694 0.006233
v -0.029725 -0.027835 0.008814
v -0.008858 -0.033694 -0.006729
v -0.029155 0.018140 -0.022798
v -0.046492 -0.009412 -0.015080
v -0.014657 -0.033694 -0.003057
v -0.042366 0.018040 -0.012414
v -0.035033 -0.027960 -0.005432
v -0.047221 -0.009424 -0.000338
v -0.002695 0.078864 -0.000686
v -0.013561 -0.033694 0.000210
v -0.041574 0.018140 -0.000172
v -0.012250 -0.033694 -0.005521
v -0.025175 -0.027836 -0.017666
v 0.000000 0.018140 -0.036802
v -0.033693 -0.009424 -0.026648
v -0.021190 -0.009424 -0.043535
v -0.006531 -0.033694 -0.013254
v -0.016448 0.018031 -0.040708
v -0.017417 -0.027932 -0.030571
v -0.028896 -0.009424 -0.036919
v -0.000931 0.078864 -0.002376
v -0.008401 -0.033694 -0.010354
v -0.025542 0.018140 -0.032446
v -0.003219 -0.033694 -0.013423
v -0.011226 -0.009424 -0.045467
v -0.001924 -0.027902 -0.030509
v -0.000033 -0.033694 -0.011630
v 0.008814 -0.033694 -0.006625
v -0.000044 -0.009424 -0.042763
v 0.021082 -0.009424 -0.043535
v 0.006514 -0.033694 -0.013263
v 0.021825 0.018023 -0.038070
v 0.013260 -0.027951 -0.032526
v 0.011111 -0.009424 -0.045459
v 0.001490 0.078864 -0.002052
v 0.003203 -0.033694 -0.013428
v 0.009694 0.018140 -0.040004
v 0.008378 -0.033694 -0.010360
v 0.028806 -0.009424 -0.036949
v 0.022983 -0.027835 -0.020249
v 0.036174 0.018140 0.008635
v 0.029065 0.018140 -0.022766
v 0.041965 -0.009424 0.009980
v 0.033640 -0.009409 -0.026482
v 0.048475 -0.009420 -0.005928
v 0.014633 -0.033694 -0.003057
v 0.043616 0.018035 -0.006499
v 0.033953 -0.027958 -0.009736
v 0.042723 -0.009424 -0.019478
v 0.002746 0.078864 0.000042
v 0.012221 -0.033694 -0.005520
v 0.037571 0.018140 -0.017181
v 0.013531 -0.033694 0.000210
v 0.030374 -0.027841 0.005455
v 0.010986 -0.033694 0.002782
v 0.018564 -0.009424 0.039253
v 0.035110 -0.009413 0.034384
v 0.011737 -0.033694 0.009655
v 0.032539 0.018032 0.030224
v 0.029010 -0.027929 0.020511
v 0.042122 -0.009424 0.021436
v 0.001891 0.078864 0.002331
v 0.012158 -0.033694 0.006233
v 0.037126 0.018140 0.018849
v 0.008831 -0.033694 0.011241
v 0.015154 -0.027911 0.027165
v 0.005177 -0.033694 0.010974
v -0.016180 0.018140 0.033860
v 0.016024 0.018140 0.033881
v -0.000054 -0.009424 0.049068
v -0.000011 -0.033694 0.015301
v -0.003090 0.018028 0.044462
v 0.002216 -0.027943 0.035663
v 0.009757 -0.009424 0.046462
v -0.000430 0.078864 0.003090
v 0.003045 -0.033694 0.014021
v -0.002952 -0.033694 0.013502
v -0.009868 -0.009424 0.046451
v -0.011878 -0.027837 0.028823
v -0.000047 0.075668 -0.004664
v -0.004339 0.075668 -0.002186
v -0.004339 0.075668 0.002770
v -0.000047 0.075668 0.005248
v 0.004245 0.075668 0.002770
v 0.004245 0.075668 -0.002186
v -0.000047 0.094869 -0.002831
v -0.002752 0.093664 -0.001269
v -0.002752 0.094869 0.001854
v -0.000047 0.093664 0.003415
v 0.002658 0.094869 0.001854
v 0.002658 0.093664 -0.001269
v -0.000051 -0.034641 -0.019369
v -0.014718 -0.034641 -0.008175
v -0.017078 -0.034641 0.010124
v -0.000051 -0.034641 0.017229
v 0.016977 -0.034641 0.010124
v 0.014616 -0.034641 -0.008175
v -0.000051 -0.030632 -0.019412
v -0.017116 -0.030632 -0.009560
v -0.017116 -0.030632 0.010146
v -0.000051 -0.030632 0.019998
v 0.017015 -0.030632 0.010146
v 0.017015 -0.030632 -0.009560
vn 0.6062 0.4842 0.6309
vn -0.6204 0.2080 0.7562
vn -0.5267 -0.5571 0.6420
vn 0.2787 0.1989 0.9395
vn 0.4618 -0.5435 0.7010
vn 0.6788 0.2002 0.7065
vn 0.2363 0.5393 0.8083
vn -0.1161 0.4847 0.8669
vn -0.9838 0.1686 0.0606
vn -0.8275 -0.5592 0.0510
vn -0.1012 -0.9553 0.2776
vn -0.5624 0.2002 0.8023
vn -0.2572 -0.5462 0.7972
vn -0.1300 0.2017 0.9708
vn 0.0254 -0.9492 0.3137
vn -0.4860 0.5394 0.6876
vn -0.3120 -0.9481 0.0615
vn -0.7504 0.4843 0.4499
vn -0.6606 0.1703 -0.7311
vn -0.5568 -0.5578 -0.6155
vn -0.2798 -0.9555 0.0939
vn -0.9779 0.1999 0.0616
vn -0.7837 -0.5456 0.2968
vn -0.8401 0.2017 0.5036
vn -0.2258 -0.9486 0.2218
vn -0.8409 0.5388 0.0500
vn -0.2429 -0.9481 -0.2053
vn -0.8194 0.4841 -0.3069
vn 0.2299 0.2085 -0.9506
vn 0.1954 -0.5558 -0.8081
vn -0.2496 -0.9549 -0.1608
vn -0.6578 0.1980 -0.7267
vn -0.7213 -0.5433 -0.4296
vn -0.9177 0.1991 -0.3437
vn -0.3140 -0.9486 -0.0396
vn -0.5630 0.5386 -0.6269
vn -0.1540 -0.5877 -0.7943
vn -0.1886 0.1328 -0.9730
vn 0.0031 -0.9483 -0.3175
vn -0.2747 0.4826 -0.8316
vn 0.8877 0.2090 -0.4103
vn 0.7556 -0.5548 -0.3482
vn 0.0140 -0.9596 -0.2812
vn 0.1561 0.1995 -0.9674
vn -0.1124 -0.5412 -0.8333
vn -0.3072 0.2016 -0.9300
vn -0.1533 -0.9489 -0.2758
vn 0.1377 0.5383 -0.8315
vn 0.5250 -0.5876 -0.6157
vn 0.6431 0.1328 -0.7542
vn 0.2551 -0.9474 -0.1931
vn 0.4805 0.4832 -0.7319
vn 0.9121 0.1692 0.3733
vn 0.7669 -0.5598 0.3137
vn 0.2119 -0.9550 -0.2074
vn 0.8536 0.1996 -0.4811
vn 0.5787 -0.5411 -0.6102
vn 0.5378 0.1998 -0.8191
vn 0.0988 -0.9473 -0.3047
vn 0.7356 0.5385 -0.4110
vn 0.3091 -0.9477 0.0801
vn 0.8715 0.4836 -0.0813
vn 0.2781 0.1694 0.9455
vn 0.2338 -0.5619 0.7934
vn 0.2957 -0.9546 0.0364
vn 0.9082 0.1992 0.3682
vn 0.8360 -0.5440 0.0725
vn 0.9755 0.2005 -0.0910
vn 0.3004 -0.9483 -0.1021
vn 0.7793 0.5391 0.3194
vn 0.1364 -0.9483 0.2866
vn 0.1085 -0.9597 0.2592
vn 0.2576 -0.9493 0.1803
vn -0.2080 -0.5902 0.7800
vn -0.2554 0.1325 0.9577
vn -0.1447 -0.9480 0.2836
vn 0.2704 0.4927 0.8271
vn -0.2937 -0.9374 0.1872
vn -0.6151 0.2039 0.7616
vn 0.2522 0.1872 0.9494
vn 0.5167 -0.5785 0.6312
vn 0.6234 0.1770 0.7616
vn -0.5472 0.4869 0.6808
vn -0.4784 0.4925 0.7271
vn -0.3297 -0.9373 -0.1133
vn -0.9789 0.2042 -0.0043
vn -0.6552 0.1526 0.7399
vn -0.5569 -0.5426 0.6288
vn -0.1710 -0.5809 0.7958
vn -0.2067 0.1781 0.9621
vn -0.0884 -0.9519 0.2934
vn -0.7601 -0.6290 0.1633
vn -0.8734 0.4869 -0.0019
vn -0.3114 -0.9495 0.0389
vn -0.8668 0.4923 0.0796
vn -0.1168 -0.9375 -0.3279
vn -0.6055 0.2070 -0.7684
vn -0.9870 0.1531 -0.0486
vn -0.8401 -0.5408 -0.0420
vn -0.7301 -0.5795 0.3621
vn -0.8816 0.1780 0.4372
vn -0.2842 -0.9519 0.1143
vn -0.6027 -0.6282 -0.4920
vn -0.5424 0.4859 -0.6854
vn -0.2244 -0.9495 -0.2192
vn -0.6027 0.4915 -0.6286
vn 0.1714 -0.9369 -0.3046
vn 0.2248 0.2056 -0.9525
vn -0.6399 0.1873 -0.7453
vn -0.5426 -0.5533 -0.6320
vn -0.7398 -0.5773 -0.3455
vn -0.8919 0.1761 -0.4165
vn -0.2658 -0.9518 -0.1527
vn 0.0044 -0.6279 -0.7783
vn 0.1989 0.4856 -0.8512
vn -0.0164 -0.9466 -0.3221
vn 0.1155 0.4912 -0.8633
vn 0.3482 -0.9366 -0.0407
vn 0.8844 0.2035 -0.4200
vn 0.1861 0.1870 -0.9646
vn 0.1578 -0.5529 -0.8182
vn -0.1919 -0.5766 -0.7941
vn -0.2312 0.1774 -0.9566
vn -0.0441 -0.9501 -0.3089
vn 0.6126 -0.6285 -0.4793
vn 0.7883 0.4865 -0.3767
vn 0.2653 -0.9490 -0.1704
vn 0.7466 0.4918 -0.4479
vn 0.2489 -0.9367 0.2463
vn 0.8788 0.2057 0.4307
vn 0.9096 0.1530 -0.3862
vn 0.7750 -0.5396 -0.3288
vn 0.4985 -0.5763 -0.6476
vn 0.6012 0.1773 -0.7792
vn 0.2071 -0.9516 -0.2272
vn 0.7554 -0.6293 0.1828
vn 0.7854 0.4865 0.3828
vn 0.2985 -0.9491 0.1006
vn 0.8155 0.4920 0.3047
vn -0.0256 -0.9363 0.3502
vn 0.2129 0.2058 0.9552
vn 0.8691 0.1528 0.4705
vn 0.7382 -0.5430 0.4002
vn 0.8162 -0.5777 -0.0112
vn 0.9841 0.1771 -0.0135
vn 0.3067 -0.9515 0.0222
vn 0.3344 -0.6332 0.6981
vn 0.1918 0.4873 0.8519
vn 0.1542 -0.9468 0.2826
vn 0.2135 -0.5556 0.8036
vn 0.1725 -0.9503 0.2592
vn -0.3429 -0.6298 0.6970
vn -0.1637 -0.9495 0.2676
vn 0.5290 0.7917 -0.3054
vn 0.4981 0.0878 -0.8627
vn 0.4981 0.0878 0.8627
vn -0.9961 0.0878 -0.0000
vn 0.9962 0.0808 -0.0312
vn -0.4711 0.0808 0.8784
vn -0.5251 0.0809 -0.8472
vn -0.0000 -1.0000 -0.0000
vn 0.9917 -0.0087 -0.1279
vn -0.3851 -0.0087 0.9228
vn -0.6067 -0.0087 -0.7949
vn 0.6067 -0.0087 -0.7949
vn 0.3851 -0.0087 0.9228
vn -0.9917 -0.0087 -0.1279
vn -0.5290 0.7917 -0.3054
vn 0.3117 0.9330 0.1800
vn -0.3117 0.9330 0.1800
vn 0.5251 0.0809 -0.8472
vn 0.4711 0.0808 0.8784
vn -0.9962 0.0808 -0.0312
vn 0.9961 0.0878 -0.0000
vn -0.4981 0.0878 0.8627
vn -0.4981 0.0878 -0.8627
vn 0.8582 -0.5133 -0.0000
vn -0.4291 -0.5133 0.7432
vn -0.4291 -0.5133 -0.7432
vn 0.4291 -0.5133 -0.7432
vn 0.4291 -0.5133 0.7432
vn -0.8582 -0.5133 -0.0000
vt 0.834347 0.868610
vt 0.842835 0.904821
vt 0.832397 0.868610
vt 0.831430 0.868543
vt 0.832864 0.852172
vt 0.830881 0.852172
vt 0.835741 0.841192
vt 0.830878 0.852172
vt 0.832866 0.852172
vt 0.833855 0.841129
vt 0.836198 0.841148
vt 0.834352 0.868610
vt 0.843205 0.904821
vt 0.834728 0.868610
vt 0.836667 0.868544
vt 0.840930 0.852172
vt 0.836230 0.852173
vt 0.841257 0.841193
vt 0.837051 0.841119
vt 0.841026 0.837699
vt 0.840701 0.837699
vt 0.833538 0.852172
vt 0.840783 0.837699
vt 0.841327 0.868610
vt 0.843876 0.904821
vt 0.843735 0.868610
vt 0.847109 0.868550
vt 0.851033 0.852172
vt 0.847844 0.852180
vt 0.848557 0.841192
vt 0.845184 0.841119
vt 0.844530 0.837699
vt 0.843629 0.837699
vt 0.843780 0.852172
vt 0.842913 0.837699
vt 0.849972 0.868610
vt 0.844342 0.904820
vt 0.852632 0.868610
vt 0.854910 0.868544
vt 0.855476 0.852172
vt 0.856222 0.852172
vt 0.852098 0.841153
vt 0.852115 0.841135
vt 0.847341 0.837699
vt 0.846541 0.837699
vt 0.853865 0.852172
vt 0.845542 0.837699
vt 0.855689 0.852172
vt 0.853833 0.868610
vt 0.844253 0.904821
vt 0.854715 0.868610
vt 0.854182 0.868539
vt 0.850988 0.852181
vt 0.853873 0.852172
vt 0.849269 0.841193
vt 0.852654 0.841124
vt 0.847343 0.837699
vt 0.847389 0.837699
vt 0.856219 0.852172
vt 0.846893 0.837699
vt 0.849963 0.868610
vt 0.843675 0.904821
vt 0.848424 0.868610
vt 0.845479 0.868547
vt 0.840936 0.852172
vt 0.845321 0.852175
vt 0.842183 0.841190
vt 0.846371 0.841120
vt 0.844530 0.837699
vt 0.845209 0.837699
vt 0.849057 0.852172
vt 0.845513 0.837699
vt 0.841307 0.868610
vt 0.843044 0.904821
vt 0.838491 0.868610
vt 0.835355 0.868545
vt 0.834208 0.852179
vt 0.838032 0.841137
vt 0.841025 0.837699
vt 0.841969 0.837699
vt 0.837777 0.852172
vt 0.842920 0.837699
vt 0.839469 0.837699
vt 0.839822 0.837699
vt 0.840662 0.837699
vt 0.830160 0.852172
vt 0.839965 0.837699
vt 0.841969 0.837699
vt 0.845209 0.837699
vt 0.847387 0.837699
vt 0.846543 0.837699
vt 0.840588 0.837699
vt 0.843176 0.914365
vt 0.844037 0.913646
vt 0.844468 0.914365
vt 0.844973 0.902915
vt 0.844290 0.902915
vt 0.842923 0.902915
vt 0.842745 0.913646
vt 0.842240 0.902915
vt 0.212374 0.235135
vt 0.205371 0.235135
vt 0.207323 0.237526
vt 0.207329 0.235135
vt 0.215472 0.237526
vt 0.215460 0.235135
vt 0.212756 0.237526
vt 0.204607 0.237526
s 0
usemtl Texture_Map
f 84/1/1 90/2/1 2/3/1
f 87/4/2 1/5/2 93/6/2
f 1/5/3 94/7/3 93/6/3
f 87/4/4 89/8/4 2/3/4
f 71/9/5 88/10/5 81/11/5
f 2/3/6 71/9/6 84/1/6
f 2/3/7 90/2/7 87/4/7
f 83/12/8 12/13/8 14/14/8
f 9/15/9 6/16/9 7/17/9
f 6/16/10 16/18/10 7/17/10
f 10/19/11 8/20/11 13/21/11
f 9/15/12 11/22/12 14/14/12
f 1/5/13 10/19/13 94/7/13
f 14/14/14 1/5/14 83/12/14
f 94/7/15 13/21/15 3/23/15
f 14/14/16 12/13/16 9/15/16
f 16/18/17 8/20/17 10/19/17
f 5/24/18 24/25/18 26/26/18
f 21/27/19 30/28/19 19/29/19
f 30/28/20 28/30/20 19/29/20
f 22/31/21 20/32/21 25/33/21
f 21/27/22 23/34/22 26/26/22
f 6/16/23 22/31/23 16/18/23
f 26/26/24 6/16/24 5/24/24
f 16/18/25 25/33/25 4/35/25
f 26/26/26 24/25/26 21/27/26
f 28/30/27 20/32/27 22/31/27
f 18/36/28 36/37/28 38/38/28
f 33/39/29 44/40/29 40/41/29
f 44/40/30 41/42/30 40/41/30
f 34/43/31 32/44/31 37/45/31
f 33/39/32 35/46/32 38/38/32
f 30/28/33 34/43/33 28/30/33
f 38/38/34 30/28/34 18/36/34
f 28/30/35 37/45/35 17/47/35
f 38/38/36 36/37/36 33/39/36
f 40/41/37 34/43/37 31/48/37
f 33/39/38 40/41/38 31/48/38
f 41/42/39 32/44/39 34/43/39
f 29/49/40 50/50/40 52/51/40
f 47/52/41 59/53/41 54/54/41
f 59/53/42 55/55/42 54/54/42
f 48/56/43 46/57/43 51/58/43
f 47/52/44 49/59/44 52/51/44
f 44/40/45 48/56/45 41/42/45
f 52/51/46 44/40/46 29/49/46
f 41/42/47 51/58/47 42/60/47
f 52/51/48 50/50/48 47/52/48
f 54/54/49 48/56/49 45/48/49
f 47/52/50 54/54/50 45/48/50
f 55/55/51 46/57/51 48/56/51
f 57/61/52 65/62/52 67/63/52
f 62/64/53 58/65/53 60/66/53
f 58/65/54 69/67/54 60/66/54
f 63/68/55 61/69/55 66/70/55
f 62/64/56 64/71/56 67/63/56
f 59/53/57 63/68/57 55/55/57
f 67/63/58 59/53/58 57/61/58
f 55/55/59 66/70/59 43/72/59
f 67/63/60 65/62/60 62/64/60
f 69/67/61 61/69/61 63/68/61
f 56/73/62 77/74/62 79/75/62
f 74/76/63 71/9/63 72/77/63
f 71/9/64 81/11/64 72/77/64
f 75/78/65 73/79/65 78/80/65
f 74/76/66 76/81/66 79/75/66
f 58/65/67 75/78/67 69/67/67
f 79/75/68 58/65/68 56/73/68
f 69/67/69 78/80/69 70/82/69
f 79/75/70 77/74/70 74/76/70
f 81/11/71 73/79/71 75/78/71
f 88/10/72 86/83/72 91/84/72
f 81/11/73 91/84/73 82/85/73
f 93/6/74 88/10/74 85/86/74
f 87/4/75 93/6/75 85/86/75
f 94/7/76 86/83/76 88/10/76
f 84/1/77 77/74/77 90/2/77
f 94/7/78 3/23/78 92/87/78
f 87/4/79 83/12/79 1/5/79
f 87/4/80 85/86/80 89/8/80
f 71/9/81 89/8/81 88/10/81
f 2/3/82 89/8/82 71/9/82
f 83/12/83 87/4/83 90/2/83
f 83/12/84 90/2/84 12/13/84
f 16/18/85 4/35/85 15/88/85
f 9/15/86 5/24/86 6/16/86
f 9/15/87 7/17/87 11/22/87
f 11/22/88 7/17/88 10/19/88
f 1/5/89 11/22/89 10/19/89
f 14/14/90 11/22/90 1/5/90
f 94/7/91 10/19/91 13/21/91
f 7/17/92 16/18/92 10/19/92
f 5/24/93 9/15/93 12/13/93
f 16/18/94 15/88/94 8/20/94
f 5/24/95 12/13/95 24/25/95
f 28/30/96 17/47/96 27/89/96
f 21/27/97 18/36/97 30/28/97
f 21/27/98 19/29/98 23/34/98
f 23/34/99 19/29/99 22/31/99
f 6/16/100 23/34/100 22/31/100
f 26/26/101 23/34/101 6/16/101
f 16/18/102 22/31/102 25/33/102
f 19/29/103 28/30/103 22/31/103
f 18/36/104 21/27/104 24/25/104
f 28/30/105 27/89/105 20/32/105
f 18/36/106 24/25/106 36/37/106
f 41/42/107 42/60/107 39/90/107
f 33/39/108 29/49/108 44/40/108
f 33/39/109 31/48/109 35/46/109
f 35/46/110 31/48/110 34/43/110
f 30/28/111 35/46/111 34/43/111
f 38/38/112 35/46/112 30/28/112
f 28/30/113 34/43/113 37/45/113
f 40/41/114 41/42/114 34/43/114
f 29/49/115 33/39/115 36/37/115
f 41/42/116 39/90/116 32/44/116
f 29/49/117 36/37/117 50/50/117
f 55/55/118 43/72/118 53/91/118
f 47/52/119 57/61/119 59/53/119
f 47/52/120 45/48/120 49/59/120
f 49/59/121 45/48/121 48/56/121
f 44/40/122 49/59/122 48/56/122
f 52/51/123 49/59/123 44/40/123
f 41/42/124 48/56/124 51/58/124
f 54/54/125 55/55/125 48/56/125
f 57/61/126 47/52/126 50/50/126
f 55/55/127 53/91/127 46/57/127
f 57/61/128 50/50/128 65/62/128
f 69/67/129 70/82/129 68/33/129
f 62/64/130 56/73/130 58/65/130
f 62/64/131 60/66/131 64/71/131
f 64/71/132 60/66/132 63/68/132
f 59/53/133 64/71/133 63/68/133
f 67/63/134 64/71/134 59/53/134
f 55/55/135 63/68/135 66/70/135
f 60/66/136 69/67/136 63/68/136
f 56/73/137 62/64/137 65/62/137
f 69/67/138 68/33/138 61/69/138
f 56/73/139 65/62/139 77/74/139
f 81/11/140 82/85/140 80/92/140
f 74/76/141 84/1/141 71/9/141
f 74/76/142 72/77/142 76/81/142
f 76/81/143 72/77/143 75/78/143
f 58/65/144 76/81/144 75/78/144
f 79/75/145 76/81/145 58/65/145
f 69/67/146 75/78/146 78/80/146
f 72/77/147 81/11/147 75/78/147
f 84/1/148 74/76/148 77/74/148
f 81/11/149 80/92/149 73/79/149
f 89/8/150 85/86/150 88/10/150
f 81/11/151 88/10/151 91/84/151
f 93/6/152 94/7/152 88/10/152
f 94/7/153 92/87/153 86/83/153
f 105/93/154 106/94/154 101/95/154
f 95/96/155 106/94/155 100/97/155
f 99/98/156 104/99/156 98/100/156
f 97/98/157 102/94/157 96/97/157
f 99/98/158 106/94/158 105/93/158
f 97/98/159 104/99/159 103/93/159
f 95/96/160 102/94/160 101/95/160
f 112/101/161 110/102/161 108/101/161
f 112/101/162 117/103/162 111/104/162
f 110/102/163 115/103/163 109/104/163
f 108/101/164 113/105/164 107/106/164
f 113/105/165 112/101/165 107/106/165
f 117/103/166 110/102/166 111/104/166
f 115/103/167 108/101/167 109/104/167
f 101/95/168 102/94/168 103/93/168
f 103/93/169 104/99/169 101/95/169
f 104/99/170 105/93/170 101/95/170
f 95/96/171 101/95/171 106/94/171
f 99/98/172 105/93/172 104/99/172
f 97/98/173 103/93/173 102/94/173
f 99/98/174 100/97/174 106/94/174
f 97/98/175 98/100/175 104/99/175
f 95/96/176 96/97/176 102/94/176
f 109/104/161 108/101/161 110/102/161
f 108/101/161 107/106/161 112/101/161
f 112/101/161 111/104/161 110/102/161
f 112/101/177 118/107/177 117/103/177
f 110/102/178 116/108/178 115/103/178
f 108/101/179 114/107/179 113/105/179
f 113/105/180 118/107/180 112/101/180
f 117/103/181 116/108/181 110/102/181
f 115/103/182 114/107/182 108/101/182
