# Blender 4.4.0
# www.blender.org
mtllib Crop_Radish_STAGE_1_01.mtl
o Crop_Radish_STAGE_1_01
v -0.028343 0.136240 -0.143558
v 0.028342 0.136234 -0.143558
v -0.000000 0.128254 -0.143010
v -0.048966 0.159825 -0.120825
v 0.048966 0.160068 -0.120963
v -0.025655 0.153753 -0.095477
v 0.025655 0.154069 -0.095576
v -0.000000 0.140520 -0.089250
v -0.048867 0.163158 -0.078808
v 0.048867 0.163719 -0.078961
v -0.005212 0.138486 -0.037165
v 0.005212 0.138553 -0.037159
v -0.000000 0.135083 -0.040052
v -0.009145 0.141757 -0.035787
v 0.009145 0.141893 -0.035777
v -0.003745 0.094763 -0.011451
v 0.003745 0.094763 -0.011451
v -0.000000 0.093917 -0.012490
v -0.006571 0.095703 -0.010288
v 0.006571 0.095707 -0.010286
v 0.000000 0.000000 -0.000000
v 0.028342 0.164234 0.119649
v -0.028343 0.164234 0.119649
v -0.000000 0.157294 0.118247
v 0.048966 0.177536 0.099924
v -0.048966 0.177536 0.099924
v 0.025655 0.172767 0.073728
v -0.025655 0.172767 0.073728
v -0.000000 0.160240 0.066685
v 0.048867 0.178313 0.059264
v -0.048867 0.178313 0.059264
v 0.005212 0.149651 0.019545
v -0.005212 0.149651 0.019545
v -0.000000 0.146585 0.022344
v 0.009145 0.152674 0.018349
v -0.009145 0.152674 0.018349
v 0.003745 0.097807 0.001679
v -0.003745 0.097807 0.001679
v -0.000000 0.097130 0.002763
v 0.006571 0.098522 0.000493
v -0.006571 0.098522 0.000493
v -0.005465 0.053474 -0.002449
v -0.003115 0.053321 -0.002447
v -0.000000 0.053044 -0.002438
v 0.003115 0.053321 -0.002447
v 0.005465 0.053476 -0.002449
v -0.028913 0.134931 -0.143174
v 0.028920 0.134931 -0.143166
v 0.000004 0.126714 -0.142580
v -0.049579 0.158538 -0.120468
v 0.049586 0.158786 -0.120596
v -0.026266 0.152545 -0.095044
v 0.026276 0.152866 -0.095134
v 0.000007 0.139004 -0.089012
v -0.049479 0.161938 -0.078494
v 0.049490 0.162503 -0.078641
v -0.005989 0.137433 -0.038023
v 0.005998 0.137504 -0.038014
v 0.000007 0.133659 -0.041224
v -0.009900 0.140472 -0.036385
v 0.009912 0.140612 -0.036368
v -0.004392 0.094388 -0.012766
v 0.004395 0.094389 -0.012765
v 0.000001 0.093479 -0.014089
v -0.007266 0.095305 -0.011565
v 0.007269 0.095311 -0.011561
v 0.028841 0.162840 0.119477
v -0.028841 0.162840 0.119477
v -0.000000 0.155709 0.118074
v 0.049427 0.176090 0.099860
v -0.049427 0.176090 0.099860
v 0.026198 0.170898 0.074085
v -0.026198 0.170898 0.074085
v -0.000000 0.157984 0.067353
v 0.049393 0.176826 0.059634
v -0.049393 0.176826 0.059634
v 0.005959 0.148482 0.021100
v -0.005959 0.148482 0.021100
v -0.000000 0.145075 0.024224
v 0.009893 0.151279 0.019489
v -0.009893 0.151279 0.019489
v 0.004354 0.097582 0.003045
v -0.004354 0.097582 0.003045
v -0.000000 0.096854 0.004384
v 0.007216 0.098295 0.001833
v -0.007217 0.098295 0.001833
v -0.006109 0.052705 -0.006766
v -0.003659 0.052194 -0.007892
v -0.000000 0.051693 -0.008968
v 0.003660 0.052194 -0.007892
v 0.006109 0.052708 -0.006765
v 0.006091 0.054011 0.001886
v 0.003646 0.053699 0.003014
v -0.000000 0.053377 0.004100
v -0.003646 0.053699 0.003014
v -0.006091 0.054011 0.001886
vn -0.4950 0.8471 -0.1933
vn 0.2609 0.9023 -0.3432
vn 0.4158 0.9070 0.0673
vn 0.3274 0.9419 -0.0755
vn -0.5463 0.7747 -0.3185
vn -0.4235 0.9034 0.0670
vn 0.4417 0.8937 0.0791
vn -0.4503 0.8894 0.0786
vn 0.4644 0.4605 0.7565
vn 0.3356 0.5241 0.7828
vn -0.5940 0.4139 0.6899
vn -0.6352 0.4068 0.6566
vn 0.4495 0.8918 0.0510
vn -0.2424 0.9512 0.1909
vn -0.3559 0.9075 -0.2232
vn -0.2210 0.9751 0.0192
vn 0.3973 0.8978 0.1901
vn 0.3559 0.9075 -0.2232
vn -0.3712 0.8964 -0.2424
vn 0.3712 0.8964 -0.2424
vn -0.4332 0.3046 -0.8483
vn -0.3180 0.3490 -0.8815
vn 0.4785 0.2954 -0.8269
vn 0.5769 0.2807 -0.7671
vn -0.3047 0.2066 0.9298
vn -0.4250 0.1759 0.8880
vn 0.0187 0.2388 0.9709
vn 0.0128 0.2125 0.9771
vn 0.2921 0.0924 -0.9519
vn 0.4011 0.0695 -0.9134
vn -0.0131 0.1172 -0.9930
vn -0.0068 0.0925 -0.9957
vn 0.4929 -0.8481 0.1945
vn -0.4844 -0.8527 0.1957
vn -0.4168 -0.9063 -0.0702
vn -0.5433 -0.7783 0.3147
vn 0.5456 -0.7748 0.3194
vn 0.6196 -0.7849 0.0089
vn -0.4422 -0.8934 -0.0795
vn 0.5721 -0.8151 -0.0912
vn -0.6048 -0.4103 -0.6825
vn -0.6177 -0.4149 -0.6680
vn 0.6096 -0.4078 -0.6797
vn 0.6217 -0.4129 -0.6656
vn -0.4402 -0.1643 -0.8827
vn -0.2988 -0.1631 -0.9403
vn 0.4407 -0.1643 -0.8825
vn -0.4500 -0.8921 -0.0400
vn 0.4500 -0.8921 -0.0400
vn 0.3659 -0.9052 0.2160
vn 0.4031 -0.8967 -0.1827
vn -0.4031 -0.8967 -0.1827
vn -0.6041 -0.7901 0.1035
vn 0.3812 -0.8947 0.2329
vn -0.5725 -0.7855 0.2351
vn 0.5327 -0.2917 0.7945
vn 0.5694 -0.2907 0.7689
vn -0.5327 -0.2917 0.7945
vn -0.5694 -0.2907 0.7689
vn 0.2988 -0.1631 -0.9403
vn 0.4258 -0.0795 0.9013
vn 0.2906 -0.0733 0.9540
vn -0.4258 -0.0795 0.9013
vn -0.2906 -0.0733 0.9540
vn 0.3083 -0.1144 -0.9444
vn 0.4145 -0.1130 -0.9030
vn -0.3081 -0.1144 -0.9445
vn -0.4136 -0.1130 -0.9034
vn -0.2948 -0.0054 0.9555
vn -0.3918 -0.0088 0.9200
vn 0.2948 -0.0054 0.9555
vn 0.3918 -0.0088 0.9200
vn -0.0544 -0.2593 -0.9643
vn 0.0568 -0.2685 -0.9616
vn 0.9037 0.4268 -0.0350
vn 0.6871 0.0873 -0.7213
vn -0.6720 0.1172 -0.7313
vn -0.8967 0.4413 -0.0336
vn -0.7086 0.0912 0.6997
vn 0.5196 0.4560 0.7226
vn -0.8863 0.1823 0.4258
vn 0.8146 0.2448 0.5259
vn -0.0175 -0.1289 0.9915
vn 0.0215 -0.1086 0.9939
vn -0.9528 0.3035 0.0047
vn -0.6371 0.1338 0.7590
vn 0.6241 0.1648 0.7637
vn 0.9425 0.3343 0.0041
vn 0.7504 -0.1277 -0.6485
vn -0.6904 0.0648 -0.7205
vn 0.9029 0.0941 -0.4193
vn -0.8862 0.1066 -0.4509
vn 0.9899 -0.0151 -0.1410
vn -0.9859 -0.1067 -0.1291
vn -0.9823 -0.0929 0.1629
vn 0.8834 0.0630 0.4643
vn -0.9888 -0.0101 0.1491
vn 0.9822 -0.0929 0.1631
vn 0.9859 -0.1067 -0.1291
vn -0.8990 -0.0234 -0.4373
vn -0.2602 0.9002 -0.3492
vn 0.4865 0.8518 -0.1943
vn 0.6350 0.7722 -0.0205
vn 0.5440 0.7782 -0.3138
vn -0.3317 0.9398 -0.0825
vn -0.6428 0.7657 -0.0216
vn 0.5789 0.8105 0.0896
vn -0.5857 0.8056 0.0890
vn 0.5890 0.4164 0.6926
vn 0.6317 0.4086 0.6588
vn -0.4655 0.4596 0.7563
vn -0.3356 0.5241 0.7828
vn 0.2424 0.9512 0.1909
vn -0.4495 0.8918 0.0510
vn -0.6246 0.7751 -0.0950
vn -0.3973 0.8978 0.1901
vn 0.2210 0.9751 0.0192
vn 0.6246 0.7751 -0.0950
vn -0.5844 0.7755 -0.2388
vn 0.5844 0.7755 -0.2388
vn -0.4785 0.2954 -0.8269
vn -0.5769 0.2807 -0.7671
vn 0.4332 0.3046 -0.8483
vn 0.3180 0.3490 -0.8815
vn -0.0187 0.2388 0.9709
vn -0.0132 0.2125 0.9771
vn 0.3047 0.2066 0.9298
vn 0.4241 0.1760 0.8884
vn 0.0131 0.1172 -0.9930
vn 0.0070 0.0925 -0.9957
vn -0.2921 0.0924 -0.9519
vn -0.4011 0.0695 -0.9134
vn 0.2626 -0.8991 0.3502
vn -0.2632 -0.9012 0.3443
vn -0.6115 -0.7912 0.0078
vn -0.3263 -0.9421 0.0771
vn 0.3305 -0.9401 0.0840
vn 0.4245 -0.9027 -0.0700
vn -0.5650 -0.8199 -0.0917
vn 0.4508 -0.8891 -0.0791
vn -0.4633 -0.4612 -0.7567
vn -0.3432 -0.5256 -0.7784
vn 0.4645 -0.4603 -0.7565
vn 0.3434 -0.5257 -0.7783
vn -0.2443 -0.9522 -0.1833
vn 0.2443 -0.9522 -0.1833
vn 0.6041 -0.7901 0.1035
vn 0.2370 -0.9713 -0.0180
vn -0.2370 -0.9713 -0.0180
vn -0.3659 -0.9052 0.2160
vn 0.5725 -0.7855 0.2351
vn -0.3812 -0.8947 0.2329
vn 0.4354 -0.3131 0.8440
vn 0.3287 -0.3594 0.8734
vn -0.4354 -0.3131 0.8440
vn -0.3287 -0.3594 0.8734
vn 0.2948 -0.1162 -0.9485
vn 0.4347 -0.1108 -0.8938
vn -0.2948 -0.1162 -0.9485
vn -0.4342 -0.1108 -0.8940
vn -0.2860 -0.0063 0.9582
vn -0.4195 -0.0074 0.9077
vn 0.2860 -0.0063 0.9582
vn 0.4195 -0.0074 0.9077
vn -0.0566 -0.2688 -0.9615
vn 0.0560 -0.2650 -0.9626
vn 0.8935 0.4475 -0.0376
vn 0.6707 0.1144 -0.7329
vn -0.6889 0.0889 -0.7194
vn -0.9058 0.4226 -0.0314
vn -0.5252 0.4494 0.7227
vn 0.7067 0.0997 0.7004
vn -0.8204 0.2412 0.5184
vn 0.8851 0.1827 0.4280
vn -0.0215 -0.1085 0.9939
vn 0.0175 -0.1289 0.9915
vn -0.9425 0.3343 0.0041
vn -0.6241 0.1648 0.7637
vn 0.6372 0.1338 0.7590
vn 0.9528 0.3035 0.0047
vn 0.6904 0.0648 -0.7205
vn -0.7504 -0.1277 -0.6485
vn 0.8862 0.1066 -0.4509
vn -0.9029 0.0941 -0.4193
vn 0.8990 -0.0234 -0.4373
vn 0.9887 -0.0101 0.1493
vn -0.8846 0.0626 0.4621
vn -0.9899 -0.0151 -0.1410
vt 0.208321 0.150262
vt 0.207790 0.144306
vt 0.208391 0.147136
vt 0.208322 0.150189
vt 0.207784 0.146148
vt 0.208989 0.147421
vt 0.208508 0.152359
vt 0.208038 0.151590
vt 0.208037 0.151646
vt 0.207784 0.146147
vt 0.208989 0.147453
vt 0.208506 0.152488
vt 0.208974 0.146667
vt 0.208974 0.146682
vt 0.209274 0.136796
vt 0.209261 0.136579
vt 0.208941 0.145881
vt 0.209249 0.136384
vt 0.209274 0.136797
vt 0.210213 0.154576
vt 0.210711 0.151006
vt 0.210134 0.151686
vt 0.210726 0.152607
vt 0.209594 0.149940
vt 0.210051 0.155855
vt 0.210506 0.155676
vt 0.209607 0.149243
vt 0.209394 0.137446
vt 0.209408 0.137281
vt 0.209639 0.148535
vt 0.209420 0.137125
vt 0.209362 0.127018
vt 0.209362 0.127053
vt 0.209362 0.127018
vt 0.209362 0.126953
vt 0.209362 0.127053
vt 0.207795 0.143951
vt 0.208326 0.149984
vt 0.208394 0.146786
vt 0.208327 0.149910
vt 0.208982 0.147125
vt 0.208512 0.152077
vt 0.208042 0.151293
vt 0.207789 0.145846
vt 0.208041 0.151350
vt 0.207789 0.145846
vt 0.208982 0.147157
vt 0.208964 0.146440
vt 0.208964 0.146424
vt 0.208928 0.145553
vt 0.209260 0.136704
vt 0.209246 0.136492
vt 0.209260 0.136705
vt 0.209246 0.136493
vt 0.209301 0.126757
vt 0.209389 0.114715
vt 0.209313 0.126875
vt 0.209289 0.126642
vt 0.209313 0.126876
vt 0.210709 0.150640
vt 0.210217 0.154145
vt 0.210142 0.151165
vt 0.209607 0.149618
vt 0.210056 0.155512
vt 0.210505 0.155343
vt 0.210724 0.152286
vt 0.209625 0.148973
vt 0.209660 0.148187
vt 0.209409 0.137394
vt 0.209423 0.137229
vt 0.209423 0.127105
vt 0.209410 0.127177
vt 0.209435 0.127030
vt 0.209232 0.136283
vt 0.209438 0.137061
vt 0.208510 0.152208
s 0
usemtl Texture_Map
f 7/1/1 3/2/1 8/3/1
f 6/4/2 3/2/2 1/5/2
f 14/6/3 6/4/3 9/7/3
f 6/4/4 4/8/4 9/7/4
f 7/1/5 5/9/5 2/10/5
f 7/1/6 15/11/6 10/12/6
f 11/13/7 8/3/7 6/4/7
f 8/3/8 12/14/8 7/1/8
f 11/13/9 19/15/9 16/16/9
f 13/17/10 16/16/10 18/18/10
f 12/14/11 20/19/11 15/11/11
f 13/17/12 17/16/12 12/14/12
f 28/20/13 24/21/13 29/22/13
f 27/20/14 24/21/14 22/23/14
f 35/24/15 27/20/15 30/25/15
f 27/20/16 25/26/16 30/25/16
f 28/20/17 26/26/17 23/23/17
f 28/20/18 36/24/18 31/25/18
f 32/27/19 29/22/19 27/20/19
f 29/22/20 33/27/20 28/20/20
f 32/27/21 40/28/21 37/29/21
f 34/30/22 37/29/22 39/31/22
f 33/27/23 41/28/23 36/24/23
f 34/30/24 38/29/24 33/27/24
f 18/18/25 45/32/25 17/16/25
f 17/16/26 46/33/26 20/19/26
f 18/18/27 43/34/27 44/35/27
f 16/16/28 42/36/28 43/34/28
f 39/31/29 43/34/29 38/29/29
f 38/29/30 42/36/30 41/28/30
f 39/31/31 45/32/31 44/35/31
f 37/29/32 46/33/32 45/32/32
f 49/37/33 53/38/33 54/39/33
f 52/40/34 49/37/34 54/39/34
f 52/40/35 60/41/35 55/42/35
f 52/40/36 50/43/36 47/44/36
f 51/45/37 53/38/37 48/46/37
f 53/38/38 61/47/38 58/48/38
f 54/39/39 57/49/39 52/40/39
f 54/39/40 58/48/40 59/50/40
f 57/49/41 65/51/41 60/41/41
f 59/50/42 62/52/42 57/49/42
f 66/53/43 58/48/43 61/47/43
f 63/54/44 59/50/44 58/48/44
f 88/55/45 21/56/45 87/57/45
f 89/58/46 21/56/46 88/55/46
f 91/59/47 21/56/47 90/55/47
f 69/60/48 73/61/48 74/62/48
f 72/61/49 69/60/49 74/62/49
f 72/61/50 80/63/50 75/64/50
f 72/61/51 70/65/51 67/66/51
f 71/65/52 73/61/52 68/66/52
f 73/61/53 81/63/53 78/67/53
f 74/62/54 77/67/54 72/61/54
f 74/62/55 78/67/55 79/68/55
f 77/67/56 85/69/56 80/63/56
f 79/68/57 82/70/57 77/67/57
f 86/69/58 78/67/58 81/63/58
f 83/70/59 79/68/59 78/67/59
f 90/55/60 21/56/60 89/58/60
f 93/71/61 21/56/61 92/72/61
f 94/73/62 21/56/62 93/71/62
f 96/72/63 21/56/63 95/71/63
f 95/71/64 21/56/64 94/73/64
f 90/55/65 64/74/65 63/54/65
f 91/59/66 63/54/66 66/53/66
f 64/74/67 88/55/67 62/52/67
f 62/52/68 87/57/68 65/51/68
f 95/71/69 84/75/69 83/70/69
f 96/72/70 83/70/70 86/69/70
f 84/75/71 93/71/71 82/70/71
f 82/70/72 92/72/72 85/69/72
f 3/2/73 47/44/73 1/5/73
f 3/2/74 48/46/74 49/37/74
f 10/12/75 51/45/75 5/9/75
f 2/10/76 51/45/76 48/46/76
f 1/5/77 50/43/77 4/8/77
f 9/7/78 50/43/78 55/42/78
f 9/7/79 60/41/79 14/6/79
f 10/12/80 61/47/80 56/76/80
f 19/15/81 60/41/81 65/51/81
f 20/19/82 61/47/82 15/11/82
f 24/21/83 67/66/83 22/23/83
f 24/21/84 68/66/84 69/60/84
f 26/26/85 76/64/85 71/65/85
f 23/23/86 71/65/86 68/66/86
f 22/23/87 70/65/87 25/26/87
f 25/26/88 75/64/88 30/25/88
f 30/25/89 80/63/89 35/24/89
f 31/25/90 81/63/90 76/64/90
f 40/28/91 80/63/91 85/69/91
f 41/28/92 81/63/92 36/24/92
f 40/28/93 92/72/93 46/33/93
f 42/36/94 21/56/94 96/72/94
f 21/56/95 42/36/95 87/57/95
f 46/33/96 66/53/96 20/19/96
f 42/36/97 65/51/97 87/57/97
f 46/33/98 21/56/98 91/59/98
f 21/56/99 46/33/99 92/72/99
f 41/28/100 96/72/100 86/69/100
f 7/1/101 2/10/101 3/2/101
f 6/4/102 8/3/102 3/2/102
f 14/6/103 11/13/103 6/4/103
f 6/4/104 1/5/104 4/8/104
f 7/1/105 10/12/105 5/9/105
f 7/1/106 12/14/106 15/11/106
f 11/13/107 13/17/107 8/3/107
f 8/3/108 13/17/108 12/14/108
f 11/13/109 14/6/109 19/15/109
f 13/17/110 11/13/110 16/16/110
f 12/14/111 17/16/111 20/19/111
f 13/17/112 18/18/112 17/16/112
f 28/20/113 23/23/113 24/21/113
f 27/20/114 29/22/114 24/21/114
f 35/24/115 32/27/115 27/20/115
f 27/20/116 22/23/116 25/26/116
f 28/20/117 31/25/117 26/26/117
f 28/20/118 33/27/118 36/24/118
f 32/27/119 34/30/119 29/22/119
f 29/22/120 34/30/120 33/27/120
f 32/27/121 35/24/121 40/28/121
f 34/30/122 32/27/122 37/29/122
f 33/27/123 38/29/123 41/28/123
f 34/30/124 39/31/124 38/29/124
f 18/18/125 44/35/125 45/32/125
f 17/16/126 45/32/126 46/33/126
f 18/18/127 16/16/127 43/34/127
f 16/16/128 19/15/128 42/36/128
f 39/31/129 44/35/129 43/34/129
f 38/29/130 43/34/130 42/36/130
f 39/31/131 37/29/131 45/32/131
f 37/29/132 40/28/132 46/33/132
f 49/37/133 48/46/133 53/38/133
f 52/40/134 47/44/134 49/37/134
f 52/40/135 57/49/135 60/41/135
f 52/40/136 55/42/136 50/43/136
f 51/45/137 56/76/137 53/38/137
f 53/38/138 56/76/138 61/47/138
f 54/39/139 59/50/139 57/49/139
f 54/39/140 53/38/140 58/48/140
f 57/49/141 62/52/141 65/51/141
f 59/50/142 64/74/142 62/52/142
f 66/53/143 63/54/143 58/48/143
f 63/54/144 64/74/144 59/50/144
f 69/60/145 68/66/145 73/61/145
f 72/61/146 67/66/146 69/60/146
f 72/61/147 77/67/147 80/63/147
f 72/61/148 75/64/148 70/65/148
f 71/65/149 76/64/149 73/61/149
f 73/61/150 76/64/150 81/63/150
f 74/62/151 79/68/151 77/67/151
f 74/62/152 73/61/152 78/67/152
f 77/67/153 82/70/153 85/69/153
f 79/68/154 84/75/154 82/70/154
f 86/69/155 83/70/155 78/67/155
f 83/70/156 84/75/156 79/68/156
f 90/55/157 89/58/157 64/74/157
f 91/59/158 90/55/158 63/54/158
f 64/74/159 89/58/159 88/55/159
f 62/52/160 88/55/160 87/57/160
f 95/71/161 94/73/161 84/75/161
f 96/72/162 95/71/162 83/70/162
f 84/75/163 94/73/163 93/71/163
f 82/70/164 93/71/164 92/72/164
f 3/2/165 49/37/165 47/44/165
f 3/2/166 2/10/166 48/46/166
f 10/12/167 56/76/167 51/45/167
f 2/10/168 5/9/168 51/45/168
f 1/5/169 47/44/169 50/43/169
f 9/7/170 4/8/170 50/43/170
f 9/7/171 55/42/171 60/41/171
f 10/12/172 15/11/172 61/47/172
f 19/15/173 14/6/173 60/41/173
f 20/19/174 66/53/174 61/47/174
f 24/21/175 69/60/175 67/66/175
f 24/21/176 23/23/176 68/66/176
f 26/26/177 31/25/177 76/64/177
f 23/23/178 26/26/178 71/65/178
f 22/23/179 67/66/179 70/65/179
f 25/26/180 70/65/180 75/64/180
f 30/25/181 75/64/181 80/63/181
f 31/25/182 36/24/182 81/63/182
f 40/28/183 35/24/183 80/63/183
f 41/28/184 86/69/184 81/63/184
f 40/28/185 85/69/185 92/72/185
f 46/33/186 91/59/186 66/53/186
f 42/36/187 19/15/187 65/51/187
f 41/28/188 42/36/188 96/72/188
