# Blender 4.4.0
# www.blender.org
mtllib Crop_Potato_01.mtl
o Crop_Potato_01
v -0.043062 -0.024877 0.073220
v -0.039247 0.032261 0.082314
v -0.040471 -0.031275 -0.071150
v -0.040148 0.030817 -0.062603
v 0.043525 -0.030155 0.082624
v 0.040650 -0.035194 -0.069565
v 0.040403 0.021789 -0.062136
v -0.049285 -0.036888 0.004285
v -0.048613 0.039030 0.012211
v 0.000381 -0.043821 -0.088567
v 0.046918 -0.012078 -0.077845
v 0.052543 -0.039806 0.001801
v 0.048732 -0.003850 0.100244
v 0.000111 -0.040381 0.097959
v 0.000008 0.037690 0.102213
v 0.000281 -0.056685 0.003249
v 0.000025 0.049788 0.013816
v 0.016978 -0.008844 0.116091
v 0.000033 0.006718 0.116269
v -0.048609 0.001159 0.099902
v -0.049285 0.000983 -0.083433
v 0.000111 0.032726 -0.077476
v 0.025044 -0.009243 -0.099407
v 0.000349 -0.031674 -0.097962
v -0.061346 0.012565 -0.002788
v -0.058603 0.002290 0.008226
v -0.061216 0.012546 0.021639
v 0.070558 -0.010004 -0.003857
v 0.048732 0.031386 0.012527
v 0.070417 -0.008857 0.021652
v 0.062580 -0.020318 0.007328
v 0.052388 0.019284 0.034718
v 0.037259 0.031536 0.050979
v 0.046067 0.023375 0.051889
vn -0.9008 0.3849 0.2011
vn -0.9496 -0.2973 -0.0993
vn -0.9358 -0.3434 0.0802
vn 0.6652 0.4157 -0.6202
vn 0.6134 -0.4085 -0.6760
vn -0.4649 -0.5424 -0.6997
vn -0.3234 0.5377 0.7786
vn 0.8578 -0.4878 0.1620
vn 0.3628 0.3853 0.8485
vn -0.5385 -0.6563 0.5285
vn -0.3706 -0.9220 -0.1119
vn 0.2674 -0.9543 -0.1334
vn 0.2805 -0.9459 0.1633
vn -0.3606 -0.9128 0.1916
vn 0.3454 0.9252 -0.1574
vn -0.1138 0.9766 -0.1826
vn -0.2015 0.9704 0.1328
vn 0.8942 -0.3575 0.2695
vn 0.3539 0.9297 0.1020
vn 0.8609 0.4927 0.1268
vn -0.3077 -0.3452 0.8867
vn 0.3880 -0.6065 0.6940
vn -0.0794 0.3019 -0.9500
vn -0.3008 0.6062 -0.7363
vn -0.9022 0.4312 0.0051
vn -0.8928 0.4075 -0.1921
vn 0.8066 -0.5903 0.0310
vn 0.9026 0.3115 -0.2971
vn 0.6133 0.7022 0.3616
vn 0.6738 0.7353 0.0728
vn 0.8646 0.4567 0.2095
vn -0.8676 0.4703 0.1613
vn -0.9587 -0.2525 -0.1308
vn -0.9720 -0.2336 0.0241
vn -0.9617 -0.2417 0.1289
vn -0.9444 -0.3108 0.1069
vn 0.4215 0.6039 -0.6765
vn 0.4504 -0.5455 -0.7068
vn 0.4516 -0.5428 -0.7082
vn -0.5001 -0.4241 -0.7550
vn -0.4605 0.3665 0.8085
vn 0.8281 -0.5333 -0.1725
vn 0.8976 -0.3427 -0.2772
vn -0.3416 -0.9307 -0.1308
vn 0.3026 -0.9466 -0.1116
vn 0.3077 -0.9401 0.1466
vn -0.4109 -0.8986 0.1539
vn 0.3191 0.9317 -0.1738
vn -0.2100 0.9690 -0.1301
vn -0.2182 0.9682 0.1226
vn 0.8078 -0.5679 0.1579
vn 0.8954 -0.4168 -0.1564
vn 0.3306 0.9351 0.1280
vn -0.2626 -0.3500 0.8992
vn 0.4391 -0.5584 0.7039
vn -0.3135 0.2868 -0.9052
vn -0.9675 -0.2530 0.0049
vn -0.8545 0.4969 -0.1512
vn 0.8818 0.4714 -0.0163
vn 0.8457 0.5092 -0.1598
vn 0.7458 0.6288 0.2201
vt 0.232743 0.909047
vt 0.232136 0.888025
vt 0.232918 0.875882
vt 0.231892 0.888045
vt 0.231086 0.875694
vt 0.231209 0.841295
vt 0.232002 0.877088
vt 0.232652 0.848118
vt 0.230926 0.864789
vt 0.231299 0.897881
vt 0.231142 0.861767
vt 0.231224 0.837116
vt 0.230941 0.840869
vt 0.231034 0.827917
vt 0.233082 0.881810
vt 0.231881 0.863978
vt 0.231993 0.852980
vt 0.231938 0.832198
vt 0.232942 0.914837
vt 0.233080 0.865215
vt 0.232922 0.870540
vt 0.197045 0.816800
vt 0.197013 0.833373
vt 0.197446 0.822985
vt 0.231952 0.814199
vt 0.231963 0.835310
vt 0.232746 0.842490
vt 0.232899 0.831585
vt 0.232058 0.927738
vt 0.232045 0.908115
vt 0.231294 0.907508
vt 0.231145 0.909544
vt 0.232136 0.865201
vt 0.232429 0.908275
vt 0.232267 0.895209
vt 0.199986 0.833302
vt 0.199649 0.845204
vt 0.199890 0.845966
vt 0.198679 0.837923
vt 0.198283 0.837915
vt 0.198435 0.848481
vt 0.198070 0.840603
vt 0.197807 0.845492
vt 0.197792 0.842236
vt 0.232438 0.899572
vt 0.232042 0.916266
vt 0.198500 0.833824
vt 0.198430 0.845432
s 0
usemtl Texture_Map
f 2/1/1 27/2/1 20/3/1
f 25/4/2 21/5/2 3/6/2
f 26/7/3 1/8/3 27/2/3
f 23/9/4 7/10/4 11/11/4
f 23/9/5 11/11/5 6/12/5
f 3/6/6 24/13/6 10/14/6
f 19/15/7 2/1/7 20/3/7
f 28/16/8 31/17/8 12/18/8
f 15/19/9 18/20/9 13/21/9
f 14/22/10 20/23/10 1/24/10
f 3/6/11 16/25/11 8/26/11
f 6/12/12 16/25/12 10/14/12
f 16/25/13 5/27/13 14/28/13
f 16/25/14 1/8/14 8/26/14
f 7/10/15 17/29/15 29/30/15
f 4/31/16 17/29/16 22/32/16
f 17/29/17 2/1/17 15/19/17
f 30/33/18 13/21/18 5/27/18
f 17/29/19 33/34/19 29/30/19
f 30/33/20 29/30/20 32/35/20
f 19/15/21 14/28/21 18/20/21
f 5/27/22 18/20/22 14/28/22
f 22/32/23 24/13/23 21/5/23
f 21/36/24 4/37/24 22/38/24
f 25/39/25 27/40/25 9/41/25
f 25/4/26 4/31/26 21/5/26
f 28/16/27 30/33/27 31/17/27
f 7/10/28 28/16/28 11/11/28
f 13/21/29 33/34/29 15/19/29
f 32/42/30 33/43/30 34/44/30
f 30/33/31 34/45/31 13/21/31
f 2/1/32 9/46/32 27/2/32
f 3/6/33 8/26/33 25/4/33
f 8/26/34 26/7/34 25/4/34
f 8/26/35 1/8/35 26/7/35
f 1/8/36 20/3/36 27/2/36
f 23/9/37 22/32/37 7/10/37
f 6/12/38 10/14/38 24/13/38
f 24/13/39 23/9/39 6/12/39
f 3/6/40 21/5/40 24/13/40
f 19/15/41 15/19/41 2/1/41
f 12/18/42 6/12/42 28/16/42
f 6/12/43 11/11/43 28/16/43
f 15/19/9 19/15/9 18/20/9
f 3/6/44 10/14/44 16/25/44
f 6/12/45 12/18/45 16/25/45
f 16/25/46 12/18/46 5/27/46
f 16/25/47 14/28/47 1/8/47
f 7/10/48 22/32/48 17/29/48
f 4/31/49 9/46/49 17/29/49
f 17/29/50 9/46/50 2/1/50
f 5/27/51 12/18/51 30/33/51
f 12/18/52 31/17/52 30/33/52
f 17/29/53 15/19/53 33/34/53
f 19/15/54 20/3/54 14/28/54
f 5/27/55 13/21/55 18/20/55
f 22/32/56 23/9/56 24/13/56
f 25/39/57 26/47/57 27/40/57
f 25/4/58 9/46/58 4/31/58
f 28/16/59 29/30/59 30/33/59
f 7/10/60 29/30/60 28/16/60
f 13/21/29 34/45/29 33/34/29
f 32/42/61 29/48/61 33/43/61
f 30/33/31 32/35/31 34/45/31
