# Blender 4.4.0
# www.blender.org
mtllib Crop_Cabbage_STAGE_1_03.mtl
o Crop_Cabbage_STAGE_1_03
v -0.006361 0.136849 -0.088724
v -0.002946 0.187656 -0.064491
v 0.029531 0.172610 -0.075406
v 0.051039 0.128670 -0.084096
v 0.054614 0.091003 -0.076709
v 0.029530 0.206109 -0.015296
v 0.057109 0.186570 -0.042204
v 0.087538 0.130908 -0.055065
v 0.083196 0.101181 -0.056734
v 0.075770 0.183405 -0.000290
v 0.097529 0.104497 -0.012174
v 0.046720 0.195341 0.032490
v 0.072232 0.164159 0.045230
v 0.090891 0.101074 0.031106
v 0.001999 0.207854 0.006897
v 0.024698 0.181534 0.067334
v 0.048765 0.134159 0.077609
v 0.048985 0.075727 0.065225
v -0.011475 0.160015 0.082052
v -0.000700 0.123077 0.091786
v 0.015963 0.077175 0.074051
v -0.050811 0.147670 0.070074
v -0.047293 0.110246 0.078979
v -0.026419 0.065192 0.062227
v -0.038395 0.186377 0.040863
v -0.080055 0.137112 0.040416
v -0.080673 0.099826 0.044150
v -0.057646 0.055633 0.029841
v -0.088673 0.142748 -0.001613
v -0.090521 0.087892 -0.007100
v -0.068754 0.054277 -0.014075
v -0.039351 0.195008 0.000097
v -0.081564 0.113812 -0.049068
v -0.058538 0.056529 -0.053150
v -0.062328 0.160582 -0.053956
v -0.048838 0.119391 -0.077129
v -0.027806 0.194435 -0.033112
v 0.004304 0.074677 -0.071961
v -0.064326 0.063995 -0.055335
v 0.069041 0.069104 -0.050137
v -0.099296 0.134640 -0.210679
v 0.101323 0.129856 -0.210682
v 0.000646 0.058550 -0.061326
v 0.001012 0.143532 -0.243450
v -0.131717 0.114311 -0.133075
v 0.131312 0.113611 -0.133350
v 0.001012 0.152729 -0.201607
v -0.110702 0.102979 -0.088973
v 0.112708 0.099207 -0.085166
v 0.001012 0.132926 -0.142731
v -0.011564 -0.018193 -0.019262
v 0.016946 -0.018193 -0.019262
v -0.003791 -0.018193 -0.019262
v -0.064425 0.063222 -0.055956
v 0.069166 0.068304 -0.050742
v -0.099157 0.133581 -0.210759
v 0.101154 0.128809 -0.210723
v 0.000664 0.057827 -0.061995
v 0.000995 0.142488 -0.243291
v -0.131618 0.113293 -0.133275
v 0.131201 0.112590 -0.133545
v 0.001001 0.151650 -0.201634
v -0.110702 0.102006 -0.089353
v 0.112716 0.098235 -0.085539
v 0.001012 0.131930 -0.143074
v -0.011651 -0.018193 -0.020014
v 0.017080 -0.018193 -0.020015
v -0.003771 -0.018193 -0.020027
v 0.063178 0.067406 -0.074398
v 0.057533 0.067990 0.071998
v 0.220532 0.100015 -0.107767
v 0.227937 0.098685 0.092183
v 0.074968 0.054321 -0.002589
v 0.256983 0.084522 -0.009050
v 0.141785 0.108685 -0.135839
v 0.151765 0.106750 0.123558
v 0.215167 0.102767 -0.007469
v 0.097324 0.097360 -0.113422
v 0.100093 0.093904 0.108328
v 0.156331 0.084955 -0.005270
v 0.023550 -0.018193 -0.022683
v 0.020422 -0.018193 0.021685
v 0.025332 -0.018193 -0.001270
v 0.063595 0.066454 -0.074604
v 0.057948 0.067038 0.072205
v 0.220404 0.098962 -0.107753
v 0.227810 0.097631 0.092169
v 0.075472 0.053385 -0.002580
v 0.256685 0.083536 -0.009043
v 0.141876 0.107628 -0.135939
v 0.151870 0.105691 0.123643
v 0.215067 0.101695 -0.007470
v 0.097539 0.096361 -0.113594
v 0.100313 0.092903 0.108482
v 0.156547 0.083914 -0.005281
v 0.024197 -0.018193 -0.022843
v 0.021062 -0.018193 0.021894
v 0.026005 -0.018193 -0.001236
v 0.062646 0.065921 0.051320
v -0.055930 0.062534 0.057971
v 0.109433 0.113868 0.205169
v -0.090964 0.113905 0.214627
v 0.002562 0.051822 0.060692
v 0.010780 0.105656 0.242632
v 0.138159 0.114953 0.126123
v -0.124565 0.118852 0.138795
v 0.008808 0.126720 0.200834
v 0.115090 0.104949 0.083060
v -0.108516 0.100452 0.089800
v 0.006033 0.101038 0.142024
v 0.007381 -0.018193 0.017658
v -0.012351 -0.018193 0.019706
v -0.002500 -0.018193 0.018652
v 0.062875 0.065036 0.051833
v -0.056084 0.061656 0.058521
v 0.109343 0.112802 0.205067
v -0.090888 0.112849 0.214491
v 0.002610 0.051016 0.061321
v 0.010764 0.104686 0.242294
v 0.138203 0.113894 0.126269
v -0.124613 0.117785 0.138968
v 0.008799 0.125631 0.200745
v 0.115241 0.103967 0.083350
v -0.108646 0.099488 0.090131
v 0.006043 0.100031 0.142337
v 0.007563 -0.018193 0.018374
v -0.012426 -0.018193 0.020448
v -0.002446 -0.018193 0.019398
v -0.054325 0.063731 0.075626
v -0.066159 0.068335 -0.068473
v -0.215412 0.105719 0.115089
v -0.231356 0.105750 -0.081825
v -0.074472 0.053003 0.005224
v -0.256050 0.097510 0.019297
v -0.135478 0.106629 0.139923
v -0.156651 0.107518 -0.116411
v -0.214339 0.117789 0.015959
v -0.089777 0.096175 0.118236
v -0.105242 0.098672 -0.100737
v -0.155649 0.091016 0.011305
v -0.017759 -0.018193 0.022699
v -0.022632 -0.018193 -0.020657
v -0.023165 -0.018193 0.001913
v -0.054754 0.062816 0.075853
v -0.066615 0.067418 -0.068653
v -0.215318 0.104654 0.115000
v -0.231245 0.104686 -0.081754
v -0.074991 0.052094 0.005255
v -0.255724 0.096536 0.019271
v -0.135628 0.105571 0.139983
v -0.156792 0.106458 -0.116450
v -0.214249 0.116705 0.015951
v -0.090039 0.095190 0.118398
v -0.105516 0.097684 -0.100873
v -0.155914 0.089992 0.011319
v -0.018373 -0.018193 0.022926
v -0.023283 -0.018193 -0.020790
v -0.023826 -0.018193 0.001966
v 0.022641 0.043160 0.036529
v -0.060753 0.057149 0.011469
v 0.032574 0.127000 0.144804
v -0.117432 0.142934 0.097636
v -0.018450 0.024432 0.029270
v -0.058734 0.138731 0.157699
v 0.066481 0.107850 0.101399
v -0.130253 0.118218 0.039760
v -0.048895 0.113455 0.126412
v 0.058903 0.077774 0.065463
v -0.109841 0.086799 0.022612
v -0.035052 0.082754 0.082390
v 0.022745 0.042503 0.037158
v -0.061203 0.056446 0.011855
v 0.032607 0.126146 0.145209
v -0.117862 0.142207 0.098006
v -0.018627 0.023662 0.029852
v -0.058976 0.137941 0.158183
v 0.066543 0.107046 0.101873
v -0.130673 0.117499 0.040154
v -0.049110 0.112645 0.126893
v 0.058987 0.077046 0.066029
v -0.110268 0.086087 0.023010
v -0.035245 0.081957 0.082921
v -0.074913 0.062187 0.014058
v -0.012899 0.081368 -0.079884
v -0.156291 0.149589 -0.007817
v -0.081201 0.166599 -0.139768
v -0.071347 0.068136 -0.056322
v -0.142175 0.155012 -0.087615
v -0.113630 0.108518 0.039957
v -0.023529 0.138529 -0.116752
v -0.112767 0.109758 -0.070955
v -0.092863 0.090029 0.029512
v -0.016528 0.106370 -0.092294
v -0.089740 0.083049 -0.060205
v -0.075573 0.061556 0.014034
v -0.013098 0.080897 -0.080627
v -0.156918 0.148910 -0.007873
v -0.081396 0.165895 -0.140367
v -0.071884 0.067418 -0.056877
v -0.142767 0.154398 -0.088035
v -0.114234 0.107825 0.039955
v -0.023661 0.137880 -0.117392
v -0.113299 0.109000 -0.071366
v -0.093495 0.089364 0.029507
v -0.016711 0.105840 -0.093007
v -0.090290 0.082268 -0.060646
v -0.003394 0.035673 -0.034862
v 0.057204 0.049874 0.013731
v 0.041903 0.140265 -0.143641
v 0.160544 0.137505 -0.040334
v 0.030967 0.017458 -0.015182
v 0.118081 0.123221 -0.112365
v -0.017191 0.117488 -0.115415
v 0.134284 0.104684 0.015543
v 0.096555 0.101492 -0.088869
v -0.025897 0.085558 -0.074830
v 0.095673 0.081246 0.030006
v 0.067822 0.072512 -0.052042
v -0.003291 0.035091 -0.035545
v 0.057837 0.049220 0.013646
v 0.041935 0.139495 -0.144145
v 0.161044 0.136742 -0.040481
v 0.031391 0.016684 -0.015711
v 0.118405 0.122380 -0.112742
v -0.017165 0.116719 -0.115918
v 0.134759 0.103896 0.015423
v 0.096849 0.100630 -0.089237
v -0.025840 0.084845 -0.075415
v 0.096205 0.080487 0.029908
v 0.068186 0.071645 -0.052442
v 0.017859 0.201086 -0.083744
v 0.013986 0.183947 -0.093393
v 0.041326 0.236493 -0.016899
v 0.059402 0.148409 -0.094589
v 0.055951 0.101570 -0.088905
v 0.009454 0.069864 -0.072634
v 0.066150 0.222479 -0.023386
v 0.087613 0.189284 -0.030792
v 0.102561 0.125327 -0.052149
v 0.092333 0.095838 -0.056744
v 0.053997 0.063692 0.055989
v 0.053623 0.244714 -0.002604
v 0.097361 0.179302 0.010885
v 0.116159 0.119969 0.004336
v 0.064724 0.058772 0.032909
v 0.049325 0.236397 0.013116
v 0.083092 0.174909 0.054782
v 0.090002 0.122538 0.068543
v 0.059903 0.050702 0.001331
v 0.050789 0.222285 0.041247
v 0.053673 0.211212 0.058773
v 0.045856 0.199961 0.071734
v 0.036964 0.183047 0.082809
v 0.036018 0.164351 0.092985
v 0.042284 0.140485 0.095974
v 0.066040 0.073143 -0.047301
v 0.029777 0.219704 -0.047009
v 0.007203 0.166605 -0.095106
v -0.009629 0.149016 -0.090195
v -0.010611 0.116095 -0.087519
v 0.056721 0.075876 -0.067868
v 0.017362 0.200380 -0.083035
v 0.013626 0.183479 -0.092425
v 0.041072 0.235627 -0.016305
v 0.058889 0.148205 -0.093523
v 0.055613 0.102012 -0.087882
v 0.009449 0.070390 -0.071718
v 0.065481 0.221666 -0.022947
v 0.086747 0.188737 -0.030418
v 0.101565 0.125302 -0.051621
v 0.091500 0.096431 -0.056235
v 0.053502 0.064232 0.055220
v 0.052825 0.243652 -0.002461
v 0.096395 0.178815 0.010756
v 0.114988 0.120206 0.004272
v 0.063933 0.059468 0.032447
v 0.049421 0.235393 0.012674
v 0.082277 0.174459 0.054204
v 0.089085 0.122771 0.067793
v 0.059098 0.051447 0.001260
v 0.050365 0.221269 0.040759
v 0.052942 0.210577 0.058228
v 0.045283 0.199602 0.070934
v 0.036423 0.182661 0.082001
v 0.035457 0.163991 0.092181
v 0.041625 0.140444 0.095016
v 0.065335 0.073957 -0.046983
v 0.029529 0.218779 -0.046495
v 0.007223 0.166713 -0.094056
v -0.009565 0.149159 -0.089163
v -0.010575 0.116366 -0.086493
v 0.056353 0.076613 -0.067073
vn -0.2778 0.9540 -0.1130
vn 0.1126 0.2455 -0.9628
vn -0.1488 0.9542 -0.2597
vn 0.4736 0.8686 -0.1453
vn 0.7993 0.5103 -0.3173
vn 0.9475 -0.1218 -0.2957
vn 0.6568 0.6749 0.3364
vn 0.7678 0.0849 0.6351
vn 0.6772 -0.1501 0.7203
vn 0.0359 0.9211 0.3877
vn -0.2009 0.7602 0.6178
vn -0.4004 0.6303 0.6651
vn -0.0292 -0.1950 -0.9804
vn -0.6778 0.5689 0.4658
vn -0.7205 0.6748 0.1598
vn -0.7190 0.6828 -0.1292
vn -0.8838 0.3287 -0.3328
vn -0.8662 -0.3209 -0.3831
vn -0.1837 -0.3255 -0.9275
vn -0.6574 0.1943 -0.7281
vn -0.4308 0.7491 -0.5032
vn 0.6236 -0.0473 -0.7803
vn -0.0746 0.9609 -0.2667
vn -0.1000 0.4338 -0.8954
vn 0.1823 0.8750 -0.4485
vn 0.5363 0.4571 -0.7095
vn 0.9551 0.2454 0.1659
vn 0.9604 0.2732 -0.0555
vn 0.3167 -0.2396 0.9178
vn 0.1844 0.9709 0.1525
vn 0.4271 0.9028 0.0498
vn 0.5031 0.6461 0.5740
vn 0.5043 0.4199 0.7546
vn 0.1990 0.3036 0.9318
vn -0.3208 0.9250 0.2034
vn -0.1125 0.8948 0.4320
vn -0.3090 0.1926 0.9314
vn -0.1385 -0.4009 0.9056
vn -0.5444 -0.5021 0.6720
vn -0.7254 0.0941 0.6818
vn -0.9780 0.0368 0.2055
vn -0.8130 -0.5129 0.2757
vn -0.3418 0.4232 -0.8391
vn -0.7430 0.6262 0.2363
vn -0.9827 0.0509 -0.1783
vn -0.8360 -0.4901 -0.2468
vn -0.6191 -0.1947 -0.7608
vn -0.6095 0.7601 -0.2250
vn -0.1438 -0.2805 -0.9490
vn 0.1992 0.9571 -0.2104
vn -0.1548 0.9649 -0.2121
vn -0.1114 0.9484 0.2968
vn 0.1167 0.9413 0.3166
vn 0.2306 0.9664 0.1136
vn -0.1900 0.9663 0.1738
vn -0.1236 0.7329 0.6690
vn 0.1232 0.7282 0.6741
vn -0.0000 0.4806 0.8769
vn -0.2104 0.4352 0.8754
vn -0.1992 -0.9571 0.2105
vn 0.1547 -0.9649 0.2122
vn 0.1113 -0.9484 -0.2968
vn -0.1156 -0.9386 -0.3252
vn -0.2307 -0.9664 -0.1133
vn 0.1901 -0.9663 -0.1734
vn 0.2087 -0.8552 -0.4744
vn -0.1229 -0.7277 -0.6748
vn -0.1199 -0.4650 -0.8772
vn 0.2105 -0.4374 -0.8743
vn -0.3112 0.0306 -0.9498
vn 0.2887 -0.1489 -0.9458
vn -0.7274 -0.3708 0.5774
vn 0.9144 -0.1326 -0.3825
vn -0.9210 -0.0133 -0.3893
vn 0.9359 -0.1619 0.3130
vn 0.7046 -0.2490 0.6644
vn -0.9068 -0.1538 0.3925
vn -0.8543 -0.5104 0.0983
vn 0.7935 -0.2830 0.5387
vn 0.3994 0.9167 -0.0136
vn 0.3998 0.9166 -0.0038
vn -0.1497 0.9697 0.1929
vn -0.2914 0.9415 -0.1696
vn 0.1158 0.9929 0.0258
vn 0.1168 0.9929 -0.0210
vn -0.3487 0.9049 -0.2439
vn -0.3963 0.8623 0.3151
vn -0.8227 0.5644 0.0685
vn -0.8096 0.5141 -0.2835
vn -0.3994 -0.9167 0.0137
vn -0.3998 -0.9166 0.0037
vn 0.1493 -0.9698 -0.1928
vn 0.1898 -0.9670 0.1702
vn -0.1160 -0.9929 -0.0257
vn -0.1170 -0.9929 0.0208
vn 0.3430 -0.9066 0.2459
vn 0.3372 -0.9150 -0.2216
vn 0.8208 -0.5228 -0.2302
vn 0.8077 -0.5170 0.2836
vn 0.9256 -0.1168 -0.3601
vn 0.9140 -0.2742 0.2990
vn -0.6873 -0.1473 -0.7113
vn 0.3770 -0.0576 0.9244
vn 0.3449 0.1177 -0.9312
vn -0.2933 0.0478 0.9548
vn -0.6411 -0.0226 0.7671
vn -0.4603 0.0540 -0.8861
vn -0.2164 -0.4340 -0.8745
vn -0.6729 -0.1349 0.7274
vn -0.0520 0.8908 0.4514
vn 0.0946 0.8908 0.4445
vn -0.1226 0.9792 -0.1618
vn 0.1335 0.9059 -0.4019
vn -0.1111 0.9873 0.1136
vn 0.1240 0.9905 0.0586
vn 0.1775 0.8386 -0.5150
vn -0.3003 0.8114 -0.5015
vn -0.0857 0.5174 -0.8514
vn 0.1284 0.4805 -0.8675
vn 0.0520 -0.8908 -0.4515
vn -0.0945 -0.8907 -0.4446
vn 0.1223 -0.9793 0.1611
vn -0.1359 -0.9415 0.3083
vn 0.1109 -0.9873 -0.1140
vn -0.1239 -0.9905 -0.0591
vn -0.1766 -0.8388 0.5150
vn 0.2700 -0.8289 0.4900
vn 0.2468 -0.4982 0.8312
vn -0.1289 -0.4834 0.8659
vn 0.3611 -0.1188 0.9249
vn -0.2739 -0.3125 0.9096
vn 0.6322 -0.2593 -0.7301
vn -0.9097 -0.1162 0.3986
vn 0.9360 0.0858 0.3413
vn -0.9510 -0.0066 -0.3090
vn -0.6032 -0.1853 -0.7758
vn 0.8818 -0.0030 -0.4717
vn 0.8510 -0.4785 -0.2164
vn -0.8230 -0.1906 -0.5351
vn -0.4392 0.8978 -0.0341
vn -0.4280 0.8977 0.1047
vn 0.1557 0.9774 -0.1431
vn 0.4198 0.9006 0.1131
vn -0.0740 0.9913 -0.1092
vn -0.0486 0.9916 0.1202
vn 0.4259 0.8693 0.2510
vn 0.4617 0.8477 -0.2613
vn 0.7894 0.5785 -0.2053
vn 0.8252 0.5272 0.2028
vn 0.4393 -0.8977 0.0340
vn 0.4281 -0.8976 -0.1046
vn -0.1550 -0.9775 0.1428
vn -0.1301 -0.9835 -0.1258
vn 0.0744 -0.9913 0.1090
vn 0.0491 -0.9915 -0.1201
vn -0.4718 -0.8512 -0.2300
vn -0.4624 -0.8473 0.2612
vn -0.7775 -0.5493 0.3063
vn -0.8231 -0.5302 -0.2032
vn -0.9111 -0.1132 0.3962
vn -0.9208 -0.3016 -0.2474
vn 0.6993 -0.1549 0.6978
vn -0.4181 -0.1044 -0.9024
vn -0.2963 0.0965 0.9502
vn 0.2902 -0.0030 -0.9570
vn 0.6076 -0.0596 -0.7920
vn 0.4345 0.0320 0.9001
vn 0.3153 -0.4157 0.8531
vn 0.5935 -0.1395 -0.7927
vn 0.5045 0.7423 -0.4410
vn 0.0117 0.7796 -0.6261
vn -0.0727 0.7723 -0.6310
vn 0.4718 0.7859 -0.3997
vn 0.5032 0.7489 -0.4313
vn -0.0509 0.8984 -0.4361
vn 0.6566 0.6014 -0.4551
vn -0.0920 0.6936 -0.7145
vn -0.5045 -0.7423 0.4410
vn -0.0116 -0.7794 0.6264
vn 0.0729 -0.7723 0.6310
vn -0.4997 -0.6420 0.5815
vn -0.5032 -0.7489 0.4313
vn 0.0508 -0.8986 0.4358
vn -0.6560 -0.6018 0.4556
vn 0.1584 -0.6396 0.7522
vn 0.1800 0.4268 0.8863
vn -0.5782 0.5478 0.6047
vn 0.7692 -0.3741 -0.5180
vn -0.8654 0.5005 -0.0220
vn 0.8075 0.3446 0.4787
vn -0.6632 -0.0226 -0.7481
vn -0.3684 -0.2757 -0.8878
vn 0.9827 -0.0290 -0.1829
vn 0.4751 0.5589 0.6796
vn 0.7933 0.5817 0.1799
vn 0.6687 0.7434 0.0135
vn 0.2032 0.5113 0.8351
vn 0.0988 0.7445 0.6603
vn 0.6856 0.7278 0.0135
vn 0.2160 0.4867 0.8464
vn 0.8370 0.5471 -0.0134
vn -0.4753 -0.5582 -0.6801
vn -0.7936 -0.5812 -0.1799
vn -0.7624 -0.6467 0.0238
vn -0.2039 -0.5105 -0.8354
vn -0.0988 -0.7448 -0.6599
vn -0.6856 -0.7279 -0.0134
vn -0.2402 -0.4593 -0.8552
vn -0.6129 -0.7842 -0.0967
vn -0.7288 0.6797 -0.0827
vn -0.4966 0.7624 -0.4149
vn 0.2775 -0.3243 0.9043
vn 0.5136 0.4697 -0.7181
vn -0.4750 0.4119 0.7777
vn 0.9715 0.0330 -0.2346
vn 0.9663 0.0127 -0.2570
vn 0.2516 -0.2463 0.9360
vn -0.5870 0.7870 0.1900
vn -0.0872 0.7699 0.6321
vn -0.0391 0.7894 0.6127
vn -0.5724 0.7994 0.1824
vn -0.5860 0.7883 0.1876
vn -0.0257 0.8036 0.5946
vn -0.8058 0.5878 0.0722
vn -0.1123 0.5900 0.7996
vn 0.5870 -0.7870 -0.1899
vn 0.0873 -0.7698 -0.6323
vn 0.0389 -0.7893 -0.6128
vn 0.4965 -0.8647 -0.0761
vn 0.5860 -0.7883 -0.1877
vn 0.0257 -0.8036 -0.5946
vn 0.8053 -0.5883 -0.0735
vn 0.1256 -0.6080 -0.7839
vn 0.4219 0.5088 -0.7504
vn 0.6994 0.4989 -0.5118
vn -0.9383 -0.3197 0.1317
vn 0.7363 0.3726 0.5649
vn -0.5205 0.4553 -0.7224
vn 0.3238 0.0514 0.9447
vn -0.1914 -0.2567 0.9473
vn -0.9845 0.0571 -0.1659
vn -0.0640 -0.0790 -0.9948
vn -0.0462 -0.1170 -0.9921
vn 0.2972 0.7809 -0.5494
vn 0.2637 0.8232 -0.5028
vn 0.0388 0.0831 -0.9958
vn -0.0639 -0.2111 -0.9754
vn 0.6025 0.5239 -0.6021
vn 0.9489 0.2740 -0.1563
vn 0.9262 -0.2823 -0.2498
vn 0.5387 -0.7681 -0.3461
vn 0.7615 0.5720 0.3048
vn 0.5888 0.4000 0.7023
vn 0.5346 0.2480 0.8079
vn 0.5279 0.3853 0.7569
vn -0.0750 0.8897 0.4502
vn 0.4186 0.7973 0.4349
vn 0.5412 0.5566 -0.6303
vn 0.6489 -0.1077 -0.7532
vn 0.1565 -0.6229 -0.7665
vn 0.2477 0.7324 -0.6343
vn 0.8361 0.5431 -0.0772
vn 0.7448 0.3614 -0.5609
vn 0.5653 -0.7738 -0.2857
vn 0.9289 0.3157 -0.1937
vn 0.9243 0.2063 0.3211
vn 0.3432 -0.3921 0.8535
vn 0.5761 0.2488 0.7786
vn 0.7542 0.5767 0.3142
vn 0.7918 -0.5055 0.3428
vn 0.0645 0.0790 0.9948
vn 0.0464 0.1178 0.9919
vn -0.2972 -0.7809 0.5494
vn -0.2629 -0.8238 0.5023
vn -0.0395 -0.0818 0.9959
vn 0.0651 0.2097 0.9756
vn -0.6011 -0.5249 0.6025
vn -0.9490 -0.2739 0.1564
vn -0.9263 0.2832 0.2483
vn -0.5098 0.5363 0.6727
vn -0.7607 -0.5732 -0.3046
vn -0.5895 -0.4007 -0.7014
vn -0.5342 -0.2484 -0.8080
vn -0.5278 -0.3854 -0.7569
vn 0.1460 -0.8818 -0.4484
vn -0.3752 -0.8142 -0.4430
vn -0.3000 -0.4117 0.8605
vn -0.6484 0.1056 0.7539
vn 0.0937 0.3414 0.9353
vn -0.2466 -0.7328 0.6342
vn -0.8345 -0.5464 0.0708
vn -0.7448 -0.3615 0.5609
vn -0.5631 0.7744 0.2885
vn -0.9286 -0.3161 0.1942
vn -0.9009 -0.2463 -0.3574
vn -0.7213 0.5333 -0.4419
vn -0.5539 -0.2792 -0.7844
vn -0.7539 -0.5775 -0.3133
vn -0.7744 0.6313 -0.0423
vn -0.8937 0.3558 -0.2733
vn -0.9237 -0.3612 0.1277
vn -0.8834 -0.3176 0.3446
vn -0.7441 0.5990 0.2956
vn -0.9759 0.0026 -0.2181
vn -0.7532 0.4931 0.4355
vn -0.6934 0.6967 0.1838
vn -0.7813 0.5719 0.2500
vn -0.8412 0.2907 0.4559
vn -0.8129 -0.1427 0.5646
vn -0.7291 0.6821 -0.0558
vn -0.9326 0.3308 0.1440
vn -0.9139 0.3732 -0.1595
vn -0.9352 0.3027 0.1836
vn -0.9178 0.3691 0.1462
vn -0.9978 0.0353 0.0562
vn 0.0418 -0.2534 -0.9665
vn 0.5937 -0.1002 -0.7984
vn 0.2083 0.8277 -0.5211
vn 0.5991 0.4272 -0.6772
vn 0.9556 0.2372 0.1746
vn 0.2448 -0.2001 0.9487
vn 0.1989 0.3032 0.9320
vn -0.3306 0.1491 0.9319
vn -0.1394 -0.4005 0.9056
vn -0.5442 -0.5013 0.6727
vn -0.7315 0.0799 0.6771
vn -0.9826 0.0146 0.1854
vn -0.7976 -0.5620 0.2191
vn -0.3795 0.3561 -0.8539
vn -0.1091 0.9422 0.3169
vn 0.1157 0.9385 0.3252
vn -0.2095 0.8553 0.4739
vn 0.1259 0.7321 0.6695
vn 0.1198 0.4625 0.8785
vn 0.1089 -0.9421 -0.3173
vn -0.1166 -0.9412 -0.3169
vn 0.1236 -0.7327 -0.6692
vn -0.1259 -0.7320 -0.6696
vn -0.0014 -0.4832 -0.8755
vn 0.0005 -0.4833 -0.8754
vn -0.2964 -0.1391 -0.9449
vn 0.3077 -0.0119 -0.9514
vn -0.7006 -0.2601 0.6644
vn 0.9292 -0.0312 -0.3683
vn -0.9104 -0.0896 -0.4038
vn 0.9380 -0.1172 0.3262
vn 0.7190 -0.3440 0.6039
vn -0.9063 -0.1644 0.3893
vn -0.8108 -0.2999 0.5026
vn 0.8697 -0.4685 0.1555
vn -0.2769 0.9395 0.2016
vn -0.1902 0.9669 -0.1703
vn -0.3421 0.9069 -0.2461
vn -0.3371 0.9149 0.2221
vn -0.8228 0.5198 0.2298
vn -0.8141 0.5541 -0.1741
vn 0.2778 -0.9392 -0.2017
vn 0.2923 -0.9412 0.1696
vn 0.3489 -0.9049 0.2439
vn 0.3971 -0.8619 -0.3154
vn 0.8201 -0.5681 -0.0686
vn 0.8117 -0.5577 0.1735
vn 0.8890 -0.2711 -0.3691
vn 0.9499 -0.1188 0.2892
vn -0.7359 -0.0415 -0.6758
vn 0.3886 0.1124 0.9145
vn 0.3323 -0.0521 -0.9417
vn -0.2995 0.0804 0.9507
vn -0.6128 -0.0963 0.7843
vn -0.4588 0.0446 -0.8874
vn -0.6672 -0.1339 -0.7328
vn -0.2845 -0.3930 0.8744
vn -0.1428 0.9095 -0.3904
vn 0.1360 0.9413 -0.3089
vn 0.2455 0.8000 -0.5475
vn -0.2708 0.8286 -0.4899
vn -0.2461 0.4952 -0.8332
vn -0.0910 0.5175 -0.8508
vn 0.1430 -0.9089 0.3917
vn -0.1334 -0.9054 0.4031
vn -0.2457 -0.7994 0.5482
vn 0.3005 -0.8108 0.5022
vn 0.0868 -0.5208 0.8493
vn 0.0894 -0.5208 0.8490
vn 0.3580 -0.3126 0.8798
vn -0.2734 -0.1422 0.9513
vn 0.5887 -0.1441 -0.7954
vn -0.9063 0.1079 0.4086
vn 0.9337 -0.1114 0.3404
vn -0.9483 0.0185 -0.3170
vn -0.6467 -0.3201 -0.6923
vn 0.8840 -0.0274 -0.4666
vn 0.7153 -0.2023 -0.6688
vn -0.8914 -0.4441 -0.0906
vn 0.3975 0.9014 -0.1718
vn 0.1308 0.9834 0.1260
vn 0.4709 0.8516 0.2303
vn 0.3894 0.8768 -0.2822
vn 0.7798 0.5460 -0.3063
vn 0.8116 0.5840 0.0192
vn -0.3988 -0.9008 0.1719
vn -0.4211 -0.8999 -0.1131
vn -0.4259 -0.8693 -0.2509
vn -0.3895 -0.8768 0.2822
vn -0.7868 -0.5823 0.2047
vn -0.8088 -0.5878 -0.0193
vn -0.8689 -0.3017 0.3923
vn -0.9625 -0.1172 -0.2446
vn 0.7333 -0.0846 0.6746
vn -0.4202 0.0896 -0.9030
vn -0.2964 -0.1052 0.9493
vn 0.2989 0.0483 -0.9531
vn 0.5729 -0.1258 -0.8099
vn 0.4263 -0.0085 0.9045
vn 0.6910 -0.1486 0.7074
vn 0.1834 -0.4074 -0.8947
vn -0.0885 0.8037 -0.5883
vn 0.4996 0.6420 -0.5816
vn 0.3913 0.8112 -0.4347
vn -0.1587 0.6397 -0.7520
vn 0.0884 -0.8035 0.5887
vn -0.4718 -0.7859 0.3997
vn -0.3914 -0.8113 0.4342
vn 0.0919 -0.6936 0.7145
vn 0.1830 0.4724 0.8622
vn -0.5431 0.6131 0.5737
vn 0.7630 -0.3395 -0.5501
vn -0.8681 0.4959 -0.0196
vn 0.8120 0.2754 0.5145
vn -0.6621 -0.0213 -0.7491
vn -0.3607 -0.2607 -0.8955
vn 0.9830 -0.0313 -0.1811
vn 0.7619 0.6473 -0.0238
vn 0.1906 0.6202 0.7609
vn 0.2407 0.4593 0.8550
vn 0.6143 0.7830 0.0973
vn -0.6686 -0.7435 -0.0135
vn -0.1907 -0.6204 -0.7608
vn -0.2174 -0.4845 -0.8473
vn -0.8371 -0.5469 0.0133
vn -0.6927 0.7175 -0.0732
vn -0.5760 0.6169 -0.5363
vn 0.3095 -0.3011 0.9020
vn 0.5253 0.5406 -0.6571
vn -0.4933 0.3913 0.7769
vn 0.9662 0.0135 -0.2576
vn 0.9644 0.0086 -0.2642
vn 0.2641 -0.2331 0.9359
vn -0.0290 0.7964 0.6041
vn -0.4963 0.8648 0.0764
vn -0.6616 0.7354 0.1463
vn -0.1260 0.6087 0.7833
vn 0.0291 -0.7961 -0.6045
vn 0.5732 -0.7988 -0.1827
vn 0.6614 -0.7357 -0.1461
vn 0.1126 -0.5898 -0.7997
vn 0.4223 0.5011 -0.7553
vn 0.6743 0.5393 -0.5045
vn -0.9432 -0.2525 0.2159
vn 0.7434 0.3622 0.5623
vn -0.5203 0.4517 -0.7247
vn 0.3018 0.0885 0.9492
vn -0.1677 -0.2851 0.9437
vn -0.9852 0.0690 -0.1570
vn 0.5104 -0.5356 -0.6728
vn 0.3021 0.4149 -0.8582
vn 0.6558 -0.1384 -0.7422
vn -0.0941 -0.3419 -0.9350
vn 0.8317 0.5517 -0.0624
vn 0.7762 -0.6281 -0.0547
vn 0.9010 0.2460 0.3572
vn 0.7173 -0.5343 0.4473
vn 0.5553 0.2791 0.7834
vn 0.7746 -0.6310 0.0430
vn -0.5394 0.7691 0.3428
vn -0.5407 -0.5571 0.6303
vn -0.6555 0.1372 0.7426
vn -0.1585 0.6230 0.7660
vn -0.8319 -0.5514 0.0621
vn -0.7760 0.6284 0.0543
vn -0.9244 -0.2061 -0.3210
vn -0.3435 0.3921 -0.8534
vn -0.5771 -0.2450 -0.7790
vn -0.7913 0.5060 -0.3431
vn -0.9295 0.3134 -0.1943
vn -0.9215 -0.3388 0.1899
vn -0.7504 -0.3917 0.5324
vn -0.7837 0.4908 0.3808
vn -0.7881 0.6064 0.1053
vn -0.9249 0.2481 0.2883
vn -0.7133 0.6819 0.1617
vn -0.7606 0.5846 0.2822
vn -0.8540 0.2824 0.4369
vn -0.7844 -0.1325 0.6060
vn -0.7287 0.6829 -0.0503
vn -0.8255 0.5641 -0.0181
vn -0.9334 0.3583 -0.0189
vn -0.9953 -0.0968 0.0032
vn -0.9259 0.3402 0.1642
vn -0.9991 0.0319 0.0263
vt 0.192570 0.195510
vt 0.192560 0.195537
vt 0.192557 0.196154
vt 0.192588 0.192747
vt 0.192584 0.194463
vt 0.192586 0.192354
vt 0.192564 0.196070
vt 0.192580 0.195185
vt 0.192560 0.194981
vt 0.192573 0.195132
vt 0.192577 0.192461
vt 0.192563 0.191194
vt 0.192578 0.191035
vt 0.192549 0.195553
vt 0.192545 0.194057
vt 0.192535 0.192617
vt 0.192550 0.191030
vt 0.192539 0.189813
vt 0.192538 0.194891
vt 0.192547 0.195123
vt 0.192533 0.193858
vt 0.192537 0.193266
vt 0.192583 0.189763
vt 0.192584 0.190546
vt 0.192547 0.192759
vt 0.192560 0.193030
vt 0.192577 0.193885
vt 0.192575 0.191641
vt 0.192562 0.190397
vt 0.192577 0.188892
vt 0.192584 0.191909
vt 0.192536 0.189883
vt 0.192530 0.192086
vt 0.192534 0.191470
vt 0.192540 0.189308
vt 0.192545 0.190970
vt 0.192550 0.188849
vt 0.192564 0.188784
vt 0.229084 0.106886
vt 0.229103 0.099484
vt 0.229174 0.103909
vt 0.229103 0.101032
vt 0.228957 0.100477
vt 0.228936 0.094453
vt 0.228841 0.090786
vt 0.228937 0.094227
vt 0.228782 0.076408
vt 0.228833 0.089565
vt 0.228769 0.078170
vt 0.228691 0.051573
vt 0.228757 0.079824
vt 0.229084 0.106536
vt 0.229174 0.103572
vt 0.229104 0.099145
vt 0.229104 0.100689
vt 0.228937 0.094124
vt 0.228958 0.100155
vt 0.228842 0.090471
vt 0.228937 0.093896
vt 0.228834 0.089251
vt 0.228783 0.076174
vt 0.228759 0.079565
vt 0.228770 0.077920
vt 0.228693 0.051573
vt 0.228665 0.090717
vt 0.228451 0.089396
vt 0.228669 0.084813
vt 0.228882 0.089827
vt 0.228661 0.084953
vt 0.228942 0.092633
vt 0.228894 0.088968
vt 0.228383 0.092006
vt 0.228655 0.075040
vt 0.228416 0.087849
vt 0.228810 0.079274
vt 0.228698 0.051573
vt 0.228652 0.051573
vt 0.228603 0.051573
vt 0.228494 0.079463
vt 0.228665 0.090370
vt 0.228669 0.084494
vt 0.228451 0.089055
vt 0.228882 0.089486
vt 0.228942 0.092290
vt 0.228661 0.084616
vt 0.228894 0.088644
vt 0.228383 0.091664
vt 0.228416 0.087525
vt 0.228655 0.074737
vt 0.228494 0.079155
vt 0.228810 0.078966
vt 0.228699 0.051573
vt 0.228602 0.051573
vt 0.228217 0.098469
vt 0.228187 0.094322
vt 0.228126 0.091652
vt 0.228207 0.094310
vt 0.228343 0.090158
vt 0.228378 0.094661
vt 0.228470 0.091423
vt 0.228350 0.095923
vt 0.228524 0.077698
vt 0.228519 0.074231
vt 0.228539 0.078793
vt 0.228611 0.051573
vt 0.228609 0.051573
vt 0.228607 0.051573
vt 0.228217 0.098117
vt 0.228127 0.091338
vt 0.228187 0.093980
vt 0.228207 0.093965
vt 0.228377 0.094318
vt 0.228343 0.089832
vt 0.228470 0.091106
vt 0.228350 0.095577
vt 0.228455 0.089656
vt 0.228523 0.077414
vt 0.228517 0.073970
vt 0.228538 0.078507
vt 0.228610 0.051573
vt 0.228605 0.051573
vt 0.228456 0.089968
vt 0.228615 0.095579
vt 0.228826 0.091683
vt 0.228608 0.089016
vt 0.228401 0.091673
vt 0.228625 0.086915
vt 0.228348 0.091967
vt 0.228395 0.088584
vt 0.228900 0.092255
vt 0.228638 0.074613
vt 0.228866 0.089392
vt 0.228486 0.078085
vt 0.228600 0.051573
vt 0.228645 0.051573
vt 0.228694 0.051573
vt 0.228797 0.079575
vt 0.228615 0.095228
vt 0.228608 0.088701
vt 0.228826 0.091338
vt 0.228402 0.091328
vt 0.228348 0.091625
vt 0.228625 0.086583
vt 0.228394 0.088265
vt 0.228900 0.091912
vt 0.228867 0.089073
vt 0.228638 0.074319
vt 0.228797 0.079278
vt 0.228486 0.077789
vt 0.228600 0.051573
vt 0.228694 0.051573
vt 0.221814 0.108551
vt 0.221876 0.118091
vt 0.221747 0.116731
vt 0.221775 0.112934
vt 0.221909 0.098616
vt 0.221868 0.106737
vt 0.221946 0.097004
vt 0.222001 0.110092
vt 0.222062 0.090330
vt 0.222024 0.079742
vt 0.222008 0.085803
vt 0.221813 0.108289
vt 0.221746 0.116475
vt 0.221876 0.117856
vt 0.221774 0.112658
vt 0.221867 0.106477
vt 0.221908 0.098358
vt 0.221945 0.096769
vt 0.222000 0.109860
vt 0.222037 0.099695
vt 0.222061 0.090102
vt 0.222023 0.079493
vt 0.222007 0.085590
vt 0.222038 0.099925
vt 0.224602 0.097905
vt 0.224750 0.116299
vt 0.224638 0.112550
vt 0.224466 0.110795
vt 0.224386 0.091521
vt 0.224363 0.097504
vt 0.224648 0.096809
vt 0.224579 0.089262
vt 0.224701 0.107216
vt 0.224571 0.084436
vt 0.224419 0.082511
vt 0.224603 0.097660
vt 0.224639 0.112351
vt 0.224752 0.116072
vt 0.224466 0.110575
vt 0.224386 0.091306
vt 0.224580 0.089009
vt 0.224650 0.096637
vt 0.224702 0.107006
vt 0.224363 0.097280
vt 0.224572 0.084204
vt 0.224623 0.088566
vt 0.224419 0.082307
vt 0.224621 0.088718
vt 0.222278 0.104680
vt 0.222174 0.116334
vt 0.222329 0.111711
vt 0.222396 0.117227
vt 0.222199 0.095302
vt 0.222336 0.109856
vt 0.222248 0.099523
vt 0.222053 0.105713
vt 0.222057 0.087976
vt 0.222120 0.077486
vt 0.222162 0.083380
vt 0.222279 0.104401
vt 0.222330 0.111439
vt 0.222174 0.116087
vt 0.222398 0.116978
vt 0.222337 0.109607
vt 0.222200 0.095021
vt 0.222249 0.099293
vt 0.222054 0.105458
vt 0.222022 0.097882
vt 0.222057 0.087764
vt 0.222121 0.077235
vt 0.222163 0.083192
vt 0.222022 0.098128
vt 0.216769 0.098798
vt 0.216779 0.098601
vt 0.216763 0.088144
vt 0.216766 0.083444
vt 0.216676 0.121673
vt 0.216611 0.127106
vt 0.216625 0.122571
vt 0.216755 0.115648
vt 0.216776 0.110102
vt 0.216780 0.104490
vt 0.216641 0.111829
vt 0.216551 0.108599
vt 0.216687 0.091132
vt 0.216565 0.089398
vt 0.216697 0.081589
vt 0.216721 0.075129
vt 0.216677 0.074245
vt 0.216580 0.129767
vt 0.216457 0.107177
vt 0.216448 0.118925
vt 0.216420 0.115284
vt 0.216396 0.109811
vt 0.216374 0.103760
vt 0.216546 0.127075
vt 0.216486 0.122508
vt 0.216731 0.073183
vt 0.216572 0.066982
vt 0.216427 0.090229
vt 0.216454 0.071186
vt 0.216368 0.096037
vt 0.216504 0.069594
vt 0.216767 0.098844
vt 0.216761 0.088232
vt 0.216776 0.098535
vt 0.216764 0.083587
vt 0.216675 0.121374
vt 0.216624 0.122308
vt 0.216610 0.126826
vt 0.216754 0.115420
vt 0.216774 0.109950
vt 0.216777 0.104525
vt 0.216640 0.111652
vt 0.216686 0.091124
vt 0.216552 0.108441
vt 0.216696 0.081781
vt 0.216566 0.089475
vt 0.216719 0.075367
vt 0.216458 0.107032
vt 0.216580 0.129423
vt 0.216422 0.115168
vt 0.216449 0.118719
vt 0.216398 0.109686
vt 0.216376 0.103644
vt 0.216487 0.122180
vt 0.216547 0.126750
vt 0.216729 0.073354
vt 0.216572 0.067224
vt 0.216676 0.074508
vt 0.216429 0.090305
vt 0.216456 0.071361
vt 0.216505 0.069819
vt 0.216370 0.096024
vt 0.228693 0.051573
vt 0.228652 0.051573
vt 0.228608 0.051573
vt 0.228645 0.051573
s 0
usemtl Texture_Map
f 37/1/1 32/2/1 15/3/1
f 1/4/2 3/5/2 4/6/2
f 15/3/3 6/7/3 2/8/3
f 6/7/4 10/9/4 7/10/4
f 7/10/5 10/9/5 8/11/5
f 8/11/6 11/12/6 9/13/6
f 10/9/7 12/14/7 13/15/7
f 13/15/8 17/16/8 14/17/8
f 14/17/9 17/16/9 18/18/9
f 15/3/10 16/19/10 12/14/10
f 16/19/11 25/20/11 19/21/11
f 19/21/12 25/20/12 22/22/12
f 38/23/13 4/6/13 5/24/13
f 22/22/14 25/20/14 26/25/14
f 25/20/15 32/2/15 29/26/15
f 29/26/16 32/2/16 35/27/16
f 29/26/17 35/27/17 33/28/17
f 30/29/18 33/28/18 34/30/18
f 34/30/19 36/31/19 38/23/19
f 35/27/20 36/31/20 33/28/20
f 35/27/21 37/1/21 2/8/21
f 9/13/22 4/6/22 8/11/22
f 37/1/23 15/3/23 2/8/23
f 1/4/24 2/8/24 3/5/24
f 7/10/25 2/8/25 6/7/25
f 4/6/26 7/10/26 8/11/26
f 11/12/27 13/15/27 14/17/27
f 8/11/28 10/9/28 11/12/28
f 21/32/29 17/16/29 20/33/29
f 6/7/30 15/3/30 12/14/30
f 10/9/31 6/7/31 12/14/31
f 13/15/32 12/14/32 16/19/32
f 13/15/33 16/19/33 17/16/33
f 17/16/34 19/21/34 20/33/34
f 15/3/35 32/2/35 25/20/35
f 16/19/36 15/3/36 25/20/36
f 20/33/37 22/22/37 23/34/37
f 24/35/38 20/33/38 23/34/38
f 27/36/39 24/35/39 23/34/39
f 26/25/40 23/34/40 22/22/40
f 29/26/41 27/36/41 26/25/41
f 30/29/42 28/37/42 27/36/42
f 1/4/43 35/27/43 2/8/43
f 26/25/44 25/20/44 29/26/44
f 30/29/45 29/26/45 33/28/45
f 31/38/46 30/29/46 34/30/46
f 34/30/47 33/28/47 36/31/47
f 35/27/48 32/2/48 37/1/48
f 38/23/49 36/31/49 1/4/49
f 47/39/50 42/40/50 44/41/50
f 41/42/51 47/39/51 44/41/51
f 50/43/52 45/44/52 48/45/52
f 50/43/53 46/46/53 47/39/53
f 47/39/54 46/46/54 42/40/54
f 45/44/55 47/39/55 41/42/55
f 43/47/56 49/48/56 50/43/56
f 43/47/57 48/45/57 39/49/57
f 43/47/58 51/50/58 53/50/58
f 43/47/59 52/50/59 40/51/59
f 62/52/60 59/53/60 57/54/60
f 56/55/61 59/53/61 62/52/61
f 60/56/62 65/57/62 63/58/62
f 65/57/63 61/59/63 64/60/63
f 62/52/64 57/54/64 61/59/64
f 60/56/65 56/55/65 62/52/65
f 58/61/66 64/60/66 55/62/66
f 63/58/67 58/61/67 54/63/67
f 58/61/68 66/64/68 54/63/68
f 67/64/69 58/61/69 55/62/69
f 41/42/70 59/53/70 56/55/70
f 42/40/71 59/53/71 44/41/71
f 39/49/72 63/58/72 54/63/72
f 46/46/73 57/54/73 42/40/73
f 45/44/74 56/55/74 60/56/74
f 49/48/75 61/59/75 46/46/75
f 40/51/76 64/60/76 49/48/76
f 45/44/77 63/58/77 48/45/77
f 51/50/78 54/63/78 66/64/78
f 52/50/79 55/62/79 40/51/79
f 77/65/80 72/66/80 74/67/80
f 71/68/81 77/65/81 74/67/81
f 80/69/82 75/70/82 78/71/82
f 80/69/83 76/72/83 77/65/83
f 77/65/84 76/72/84 72/66/84
f 75/70/85 77/65/85 71/68/85
f 73/73/86 79/74/86 80/69/86
f 69/75/87 80/69/87 78/71/87
f 73/73/88 81/76/88 83/77/88
f 73/73/89 82/78/89 70/79/89
f 92/80/90 89/81/90 87/82/90
f 86/83/91 89/81/91 92/80/91
f 90/84/92 95/85/92 93/86/92
f 95/85/93 91/87/93 94/88/93
f 92/80/94 87/82/94 91/87/94
f 90/84/95 86/83/95 92/80/95
f 88/89/96 94/88/96 85/90/96
f 84/91/97 95/85/97 88/89/97
f 88/89/98 96/92/98 84/91/98
f 97/93/99 88/89/99 85/90/99
f 74/67/100 86/83/100 71/68/100
f 74/67/101 87/82/101 89/81/101
f 69/75/102 93/86/102 84/91/102
f 72/66/103 91/87/103 87/82/103
f 71/68/104 90/84/104 75/70/104
f 79/74/105 91/87/105 76/72/105
f 70/79/106 94/88/106 79/74/106
f 78/71/107 90/84/107 93/86/107
f 81/76/108 84/91/108 96/92/108
f 82/78/109 85/90/109 70/79/109
f 107/94/110 102/95/110 104/96/110
f 101/97/111 107/94/111 104/96/111
f 110/98/112 105/99/112 108/100/112
f 110/98/113 106/101/113 107/94/113
f 107/94/114 106/101/114 102/95/114
f 105/99/115 107/94/115 101/97/115
f 100/102/116 110/98/116 103/103/116
f 99/104/117 110/98/117 108/100/117
f 103/103/118 111/105/118 113/106/118
f 103/103/119 112/107/119 100/102/119
f 122/108/120 119/109/120 117/110/120
f 116/111/121 119/109/121 122/108/121
f 120/112/122 125/113/122 123/114/122
f 125/113/123 121/115/123 124/116/123
f 122/108/124 117/110/124 121/115/124
f 120/112/125 116/111/125 122/108/125
f 125/113/126 115/117/126 118/118/126
f 114/119/127 125/113/127 118/118/127
f 118/118/128 126/120/128 114/119/128
f 127/121/129 118/118/129 115/117/129
f 104/96/130 116/111/130 101/97/130
f 104/96/131 117/110/131 119/109/131
f 99/104/132 123/114/132 114/119/132
f 102/95/133 121/115/133 117/110/133
f 101/97/134 120/112/134 105/99/134
f 109/122/135 121/115/135 106/101/135
f 100/102/136 124/116/136 109/122/136
f 105/99/137 123/114/137 108/100/137
f 111/105/138 114/119/138 126/120/138
f 112/107/139 115/117/139 100/102/139
f 137/123/140 132/124/140 134/125/140
f 131/126/141 137/123/141 134/125/141
f 140/127/142 135/128/142 138/129/142
f 140/127/143 136/130/143 137/123/143
f 137/123/144 136/130/144 132/124/144
f 135/128/145 137/123/145 131/126/145
f 133/131/146 139/132/146 140/127/146
f 133/131/147 138/129/147 129/133/147
f 133/131/148 141/134/148 143/135/148
f 133/131/149 142/136/149 130/137/149
f 152/138/150 149/139/150 147/140/150
f 146/141/151 149/139/151 152/138/151
f 150/142/152 155/143/152 153/144/152
f 155/143/153 151/145/153 154/146/153
f 152/138/154 147/140/154 151/145/154
f 150/142/155 146/141/155 152/138/155
f 148/147/156 154/146/156 145/148/156
f 153/144/157 148/147/157 144/149/157
f 148/147/158 156/150/158 144/149/158
f 157/151/159 148/147/159 145/148/159
f 134/125/160 146/141/160 131/126/160
f 134/125/161 147/140/161 149/139/161
f 129/133/162 153/144/162 144/149/162
f 132/124/163 151/145/163 147/140/163
f 131/126/164 150/142/164 135/128/164
f 136/130/165 154/146/165 151/145/165
f 130/137/166 154/146/166 139/132/166
f 135/128/167 153/144/167 138/129/167
f 141/134/168 144/149/168 156/150/168
f 142/136/169 145/148/169 130/137/169
f 167/152/170 162/153/170 164/154/170
f 161/155/171 167/152/171 164/154/171
f 170/156/172 165/157/172 168/158/172
f 170/156/173 166/159/173 167/152/173
f 167/152/174 166/159/174 162/153/174
f 165/157/175 167/152/175 161/155/175
f 160/160/176 170/156/176 163/161/176
f 159/162/177 170/156/177 168/158/177
f 179/163/178 176/164/178 174/165/178
f 173/166/179 176/164/179 179/163/179
f 177/167/180 182/168/180 180/169/180
f 182/168/181 178/170/181 181/171/181
f 179/163/182 174/165/182 178/170/182
f 177/167/183 173/166/183 179/163/183
f 182/168/184 172/172/184 175/173/184
f 171/174/185 182/168/185 175/173/185
f 164/154/186 173/166/186 161/155/186
f 164/154/187 174/165/187 176/164/187
f 159/162/188 180/169/188 171/174/188
f 166/159/189 174/165/189 162/153/189
f 161/155/190 177/167/190 165/157/190
f 169/175/191 178/170/191 166/159/191
f 169/175/192 172/172/192 181/171/192
f 168/158/193 177/167/193 180/169/193
f 191/176/194 186/177/194 188/178/194
f 185/179/195 191/176/195 188/178/195
f 192/180/196 191/176/196 189/181/196
f 193/182/197 191/176/197 194/183/197
f 191/176/198 190/184/198 186/177/198
f 189/181/199 191/176/199 185/179/199
f 187/185/200 193/182/200 194/183/200
f 183/186/201 194/183/201 192/180/201
f 203/187/202 200/188/202 198/189/202
f 197/190/203 200/188/203 203/187/203
f 204/191/204 203/187/204 206/192/204
f 203/187/205 205/193/205 206/192/205
f 203/187/206 198/189/206 202/194/206
f 201/195/207 197/190/207 203/187/207
f 199/196/208 205/193/208 196/197/208
f 195/198/209 206/192/209 199/196/209
f 188/178/210 197/190/210 185/179/210
f 188/178/211 198/189/211 200/188/211
f 183/186/212 204/191/212 195/198/212
f 186/177/213 202/194/213 198/189/213
f 189/181/214 197/190/214 201/195/214
f 193/182/215 202/194/215 190/184/215
f 184/199/216 205/193/216 193/182/216
f 189/181/217 204/191/217 192/180/217
f 215/200/218 210/201/218 212/202/218
f 209/203/219 215/200/219 212/202/219
f 218/204/220 213/205/220 216/206/220
f 218/204/221 214/207/221 215/200/221
f 215/200/222 214/207/222 210/201/222
f 213/205/223 215/200/223 209/203/223
f 208/208/224 218/204/224 211/209/224
f 207/210/225 218/204/225 216/206/225
f 227/211/226 224/212/226 222/213/226
f 221/214/227 224/212/227 227/211/227
f 225/215/228 230/216/228 228/217/228
f 230/216/229 226/218/229 229/219/229
f 227/211/230 222/213/230 226/218/230
f 225/215/231 221/214/231 227/211/231
f 230/216/232 220/220/232 223/221/232
f 219/222/233 230/216/233 223/221/233
f 212/202/234 221/214/234 209/203/234
f 212/202/235 222/213/235 224/212/235
f 207/210/236 228/217/236 219/222/236
f 214/207/237 222/213/237 210/201/237
f 213/205/238 221/214/238 225/215/238
f 214/207/239 229/219/239 226/218/239
f 208/208/240 229/219/240 217/223/240
f 216/206/241 225/215/241 228/217/241
f 259/224/242 234/225/242 260/226/242
f 260/226/243 234/225/243 235/227/243
f 257/228/244 233/229/244 237/230/244
f 257/228/245 237/230/245 231/231/245
f 232/232/246 234/225/246 258/233/246
f 258/233/247 234/225/247 259/224/247
f 237/230/248 238/234/248 234/225/248
f 238/234/249 243/235/249 239/236/249
f 239/236/250 244/237/250 240/238/250
f 261/239/251 240/238/251 256/240/251
f 243/235/252 242/241/252 247/242/252
f 247/242/253 251/243/253 252/244/253
f 247/242/254 252/244/254 253/245/254
f 247/242/255 253/245/255 254/246/255
f 242/241/256 246/247/256 250/248/256
f 242/241/257 250/248/257 251/243/257
f 234/225/258 231/231/258 237/230/258
f 235/227/259 239/236/259 240/238/259
f 236/249/260 235/227/260 261/239/260
f 233/229/261 242/241/261 237/230/261
f 243/235/262 237/230/262 242/241/262
f 234/225/263 238/234/263 239/236/263
f 240/238/264 249/250/264 256/240/264
f 239/236/265 243/235/265 244/237/265
f 248/251/266 243/235/266 247/242/266
f 241/252/267 248/251/267 255/253/267
f 255/253/268 247/242/268 254/246/268
f 247/242/269 242/241/269 251/243/269
f 245/254/270 244/237/270 248/251/270
f 290/255/271 291/256/271 265/257/271
f 291/256/272 266/258/272 265/257/272
f 288/259/273 268/260/273 264/261/273
f 288/259/274 262/262/274 268/260/274
f 263/263/275 289/264/275 265/257/275
f 289/264/276 290/255/276 265/257/276
f 268/260/277 265/257/277 269/265/277
f 269/265/278 270/266/278 274/267/278
f 270/266/279 271/268/279 275/269/279
f 292/270/280 271/268/280 266/258/280
f 274/267/281 278/271/281 273/272/281
f 278/271/282 283/273/282 282/274/282
f 278/271/283 284/275/283 283/273/283
f 278/271/284 285/276/284 284/275/284
f 273/272/285 281/277/285 277/278/285
f 273/272/286 282/274/286 281/277/286
f 265/257/287 262/262/287 263/263/287
f 270/266/288 266/258/288 271/268/288
f 267/279/289 266/258/289 291/256/289
f 264/261/290 268/260/290 273/272/290
f 268/260/291 274/267/291 273/272/291
f 265/257/292 270/266/292 269/265/292
f 280/280/293 271/268/293 287/281/293
f 270/266/294 275/269/294 274/267/294
f 279/282/295 274/267/295 275/269/295
f 272/283/296 279/282/296 276/284/296
f 286/285/297 278/271/297 279/282/297
f 278/271/298 282/274/298 273/272/298
f 276/284/299 275/269/299 280/280/299
f 232/232/300 262/262/300 231/231/300
f 260/226/301 267/279/301 291/256/301
f 241/252/302 286/285/302 272/283/302
f 233/229/303 273/272/303 242/241/303
f 246/247/304 273/272/304 277/278/304
f 250/248/305 282/274/305 251/243/305
f 252/244/306 282/274/306 283/273/306
f 253/245/307 283/273/307 284/275/307
f 253/245/308 285/276/308 254/246/308
f 254/246/309 286/285/309 255/253/309
f 259/224/310 289/264/310 258/233/310
f 257/228/311 262/262/311 288/259/311
f 258/233/312 263/263/312 232/232/312
f 250/248/313 277/278/313 281/277/313
f 257/228/314 264/261/314 233/229/314
f 259/224/315 291/256/315 290/255/315
f 38/23/316 1/4/316 4/6/316
f 9/13/317 5/24/317 4/6/317
f 7/10/318 3/5/318 2/8/318
f 4/6/319 3/5/319 7/10/319
f 11/12/320 10/9/320 13/15/320
f 21/32/321 18/18/321 17/16/321
f 17/16/322 16/19/322 19/21/322
f 20/33/323 19/21/323 22/22/323
f 24/35/324 21/32/324 20/33/324
f 27/36/325 28/37/325 24/35/325
f 26/25/326 27/36/326 23/34/326
f 29/26/327 30/29/327 27/36/327
f 30/29/328 31/38/328 28/37/328
f 1/4/329 36/31/329 35/27/329
f 50/43/330 47/39/330 45/44/330
f 50/43/331 49/48/331 46/46/331
f 43/47/332 40/51/332 49/48/332
f 43/47/333 50/43/333 48/45/333
f 43/47/334 39/49/334 51/50/334
f 43/47/58 53/50/58 52/50/58
f 60/56/335 62/52/335 65/57/335
f 65/57/336 62/52/336 61/59/336
f 58/61/337 65/57/337 64/60/337
f 63/58/338 65/57/338 58/61/338
f 58/61/339 68/286/339 66/64/339
f 67/64/340 68/286/340 58/61/340
f 41/42/341 44/41/341 59/53/341
f 42/40/342 57/54/342 59/53/342
f 39/49/343 48/45/343 63/58/343
f 46/46/344 61/59/344 57/54/344
f 45/44/345 41/42/345 56/55/345
f 49/48/346 64/60/346 61/59/346
f 40/51/347 55/62/347 64/60/347
f 45/44/348 60/56/348 63/58/348
f 51/50/349 39/49/349 54/63/349
f 52/50/350 67/64/350 55/62/350
f 80/69/351 77/65/351 75/70/351
f 80/69/352 79/74/352 76/72/352
f 73/73/353 70/79/353 79/74/353
f 69/75/354 73/73/354 80/69/354
f 73/73/355 69/75/355 81/76/355
f 73/73/356 83/77/356 82/78/356
f 90/84/357 92/80/357 95/85/357
f 95/85/358 92/80/358 91/87/358
f 88/89/359 95/85/359 94/88/359
f 84/91/360 93/86/360 95/85/360
f 88/89/361 98/287/361 96/92/361
f 97/93/362 98/287/362 88/89/362
f 74/67/363 89/81/363 86/83/363
f 74/67/364 72/66/364 87/82/364
f 69/75/365 78/71/365 93/86/365
f 72/66/366 76/72/366 91/87/366
f 71/68/367 86/83/367 90/84/367
f 79/74/368 94/88/368 91/87/368
f 70/79/369 85/90/369 94/88/369
f 78/71/370 75/70/370 90/84/370
f 81/76/371 69/75/371 84/91/371
f 82/78/372 97/93/372 85/90/372
f 110/98/373 107/94/373 105/99/373
f 110/98/374 109/122/374 106/101/374
f 100/102/375 109/122/375 110/98/375
f 99/104/376 103/103/376 110/98/376
f 103/103/377 99/104/377 111/105/377
f 103/103/378 113/106/378 112/107/378
f 120/112/379 122/108/379 125/113/379
f 125/113/380 122/108/380 121/115/380
f 125/113/381 124/116/381 115/117/381
f 114/119/382 123/114/382 125/113/382
f 118/118/383 128/288/383 126/120/383
f 127/121/384 128/288/384 118/118/384
f 104/96/385 119/109/385 116/111/385
f 104/96/386 102/95/386 117/110/386
f 99/104/387 108/100/387 123/114/387
f 102/95/388 106/101/388 121/115/388
f 101/97/389 116/111/389 120/112/389
f 109/122/390 124/116/390 121/115/390
f 100/102/391 115/117/391 124/116/391
f 105/99/392 120/112/392 123/114/392
f 111/105/393 99/104/393 114/119/393
f 112/107/394 127/121/394 115/117/394
f 140/127/395 137/123/395 135/128/395
f 140/127/396 139/132/396 136/130/396
f 133/131/397 130/137/397 139/132/397
f 133/131/398 140/127/398 138/129/398
f 133/131/399 129/133/399 141/134/399
f 133/131/400 143/135/400 142/136/400
f 150/142/401 152/138/401 155/143/401
f 155/143/402 152/138/402 151/145/402
f 148/147/403 155/143/403 154/146/403
f 153/144/404 155/143/404 148/147/404
f 148/147/405 158/289/405 156/150/405
f 157/151/406 158/289/406 148/147/406
f 134/125/407 149/139/407 146/141/407
f 134/125/408 132/124/408 147/140/408
f 129/133/409 138/129/409 153/144/409
f 132/124/410 136/130/410 151/145/410
f 131/126/411 146/141/411 150/142/411
f 136/130/412 139/132/412 154/146/412
f 130/137/413 145/148/413 154/146/413
f 135/128/414 150/142/414 153/144/414
f 141/134/415 129/133/415 144/149/415
f 142/136/416 157/151/416 145/148/416
f 170/156/417 167/152/417 165/157/417
f 170/156/418 169/175/418 166/159/418
f 160/160/419 169/175/419 170/156/419
f 159/162/420 163/161/420 170/156/420
f 177/167/421 179/163/421 182/168/421
f 182/168/422 179/163/422 178/170/422
f 182/168/423 181/171/423 172/172/423
f 171/174/424 180/169/424 182/168/424
f 164/154/425 176/164/425 173/166/425
f 164/154/426 162/153/426 174/165/426
f 159/162/427 168/158/427 180/169/427
f 166/159/428 178/170/428 174/165/428
f 161/155/429 173/166/429 177/167/429
f 169/175/430 181/171/430 178/170/430
f 169/175/431 160/160/431 172/172/431
f 168/158/432 165/157/432 177/167/432
f 192/180/433 194/183/433 191/176/433
f 193/182/434 190/184/434 191/176/434
f 187/185/435 184/199/435 193/182/435
f 183/186/436 187/185/436 194/183/436
f 204/191/437 201/195/437 203/187/437
f 203/187/438 202/194/438 205/193/438
f 199/196/439 206/192/439 205/193/439
f 195/198/440 204/191/440 206/192/440
f 188/178/441 200/188/441 197/190/441
f 188/178/442 186/177/442 198/189/442
f 183/186/443 192/180/443 204/191/443
f 186/177/444 190/184/444 202/194/444
f 189/181/445 185/179/445 197/190/445
f 193/182/446 205/193/446 202/194/446
f 184/199/447 196/197/447 205/193/447
f 189/181/448 201/195/448 204/191/448
f 218/204/449 215/200/449 213/205/449
f 218/204/450 217/223/450 214/207/450
f 208/208/451 217/223/451 218/204/451
f 207/210/452 211/209/452 218/204/452
f 225/215/453 227/211/453 230/216/453
f 230/216/454 227/211/454 226/218/454
f 230/216/455 229/219/455 220/220/455
f 219/222/456 228/217/456 230/216/456
f 212/202/457 224/212/457 221/214/457
f 212/202/458 210/201/458 222/213/458
f 207/210/459 216/206/459 228/217/459
f 214/207/460 226/218/460 222/213/460
f 213/205/461 209/203/461 221/214/461
f 214/207/462 217/223/462 229/219/462
f 208/208/463 220/220/463 229/219/463
f 216/206/464 213/205/464 225/215/464
f 261/239/465 235/227/465 240/238/465
f 234/225/466 232/232/466 231/231/466
f 235/227/467 234/225/467 239/236/467
f 236/249/468 260/226/468 235/227/468
f 243/235/469 238/234/469 237/230/469
f 240/238/470 244/237/470 249/250/470
f 248/251/471 244/237/471 243/235/471
f 241/252/472 245/254/472 248/251/472
f 255/253/473 248/251/473 247/242/473
f 245/254/474 249/250/474 244/237/474
f 292/270/475 287/281/475 271/268/475
f 265/257/476 268/260/476 262/262/476
f 270/266/477 265/257/477 266/258/477
f 267/279/478 292/270/478 266/258/478
f 268/260/479 269/265/479 274/267/479
f 280/280/480 275/269/480 271/268/480
f 279/282/481 278/271/481 274/267/481
f 272/283/482 286/285/482 279/282/482
f 286/285/483 285/276/483 278/271/483
f 276/284/484 279/282/484 275/269/484
f 232/232/485 263/263/485 262/262/485
f 260/226/486 236/249/486 267/279/486
f 241/252/487 255/253/487 286/285/487
f 233/229/488 264/261/488 273/272/488
f 246/247/489 242/241/489 273/272/489
f 250/248/490 281/277/490 282/274/490
f 252/244/491 251/243/491 282/274/491
f 253/245/492 252/244/492 283/273/492
f 253/245/493 284/275/493 285/276/493
f 254/246/494 285/276/494 286/285/494
f 259/224/495 290/255/495 289/264/495
f 257/228/496 231/231/496 262/262/496
f 258/233/497 289/264/497 263/263/497
f 250/248/498 246/247/498 277/278/498
f 257/228/499 288/259/499 264/261/499
f 259/224/500 260/226/500 291/256/500
