# Blender 4.4.0
# www.blender.org
mtllib Crop_Carrot_02.mtl
o Crop_Carrot_02
v 0.017395 0.150037 -0.030158
v -0.017344 0.150037 -0.030158
v -0.034981 0.149942 -0.000142
v -0.017478 0.149942 0.030174
v 0.017528 0.149942 0.030174
v 0.035032 0.149942 -0.000142
v 0.020735 0.053581 -0.035911
v -0.020773 0.053581 -0.035911
v -0.041527 0.053581 0.000036
v -0.020773 0.053581 0.035983
v 0.020735 0.053581 0.035983
v 0.041489 0.053581 0.000036
v 0.016754 -0.093625 -0.029016
v -0.016792 -0.093625 -0.029016
v -0.033565 -0.093625 0.000036
v -0.016792 -0.093625 0.029087
v 0.016754 -0.093625 0.029087
v 0.033527 -0.093625 0.000036
v 0.002324 -0.236425 -0.004023
v -0.002362 -0.236425 -0.004023
v -0.004705 -0.236425 0.000036
v -0.002362 -0.236425 0.004094
v 0.002324 -0.236425 0.004094
v 0.004667 -0.236425 0.000036
v -0.023381 -0.165025 0.000036
v -0.011700 -0.165025 0.020267
v 0.011662 -0.165025 -0.020196
v -0.011700 -0.165025 -0.020196
v 0.023342 -0.165025 0.000036
v 0.011662 -0.165025 0.020267
v 0.020967 0.162398 -0.000181
v 0.041966 0.129059 -0.000058
v 0.010519 0.162398 0.017915
v 0.020973 0.129060 0.036302
v -0.010377 0.162398 0.017915
v -0.021012 0.129061 0.036302
v -0.020825 0.162398 -0.000181
v -0.042003 0.129061 -0.000057
v 0.010458 0.162398 -0.018119
v 0.020854 0.129249 -0.036162
v -0.010316 0.162398 -0.018119
v -0.020893 0.129249 -0.036162
v -0.004005 0.177748 -0.003466
v -0.000000 0.123297 0.000143
v 0.003824 0.177733 -0.003466
v 0.000201 0.177738 0.000157
v 0.003824 0.177733 0.003780
v 0.012908 0.234207 -0.006536
v 0.006214 0.234504 0.000165
v 0.012908 0.234207 0.006865
v 0.042936 0.287960 -0.006823
v 0.035182 0.288294 0.000938
v 0.042936 0.287960 0.008699
v -0.007621 0.177514 0.000157
v -0.004005 0.177748 0.003780
v -0.010223 0.219400 -0.006536
v -0.016919 0.219180 0.000165
v -0.010223 0.219400 0.006865
v -0.037235 0.262826 -0.006823
v -0.044995 0.262649 0.000938
v -0.037235 0.262826 0.008699
v 0.003777 0.177061 -0.005428
v 0.000249 0.176507 -0.009102
v -0.003466 0.177044 -0.005616
v 0.007023 0.232701 -0.019539
v 0.000498 0.231962 -0.026372
v -0.006374 0.232671 -0.019886
v 0.008164 0.284182 -0.054574
v 0.000607 0.283316 -0.062486
v -0.007353 0.284147 -0.054975
v -0.003769 0.177061 0.005711
v -0.000224 0.176507 0.009368
v 0.003475 0.177044 0.005863
v -0.007446 0.232701 0.009927
v -0.000888 0.231962 0.016727
v 0.005953 0.232671 0.010208
v -0.008077 0.306818 0.033844
v -0.000481 0.305951 0.041720
v 0.007442 0.306783 0.034170
vn 0.6187 0.6997 0.3572
vn -0.0000 -0.0033 -1.0000
vn -0.6167 0.7020 0.3561
vn -0.6168 0.6998 -0.3602
vn -0.0000 1.0000 -0.0000
vn 0.8660 -0.0061 -0.5000
vn -0.0000 -0.0042 1.0000
vn -0.8660 -0.0061 -0.5000
vn -0.0000 0.7015 0.7127
vn 0.8660 -0.0048 0.5000
vn -0.8660 -0.0049 0.5000
vn -0.0000 -0.0468 0.9989
vn -0.8651 -0.0468 -0.4995
vn 0.8651 -0.0468 0.4995
vn -0.8651 -0.0468 0.4995
vn -0.0000 -0.0468 -0.9989
vn 0.8651 -0.0468 -0.4995
vn -0.8446 -0.2209 0.4876
vn -0.0000 -0.2209 -0.9753
vn 0.8446 -0.2209 -0.4876
vn -0.0000 -0.2209 0.9753
vn -0.8446 -0.2209 -0.4876
vn 0.8595 -0.1226 0.4962
vn -0.8595 -0.1226 -0.4962
vn -0.0000 -0.1226 0.9925
vn 0.8595 -0.1226 -0.4962
vn -0.0000 -0.1226 -0.9925
vn -0.8595 -0.1226 0.4962
vn 0.6173 0.6987 -0.3617
vn 0.8446 -0.2209 0.4876
vn -0.0000 -1.0000 -0.0000
vn 0.8318 0.2782 0.4803
vn -0.8310 0.2814 0.4798
vn -0.8301 0.2772 -0.4839
vn -0.0000 0.2774 -0.9607
vn 0.8285 0.2782 -0.4859
vn -0.0000 0.2816 0.9595
vn -0.0000 0.6977 -0.7164
vn 0.9873 -0.1588 -0.0000
vn -0.7012 -0.0984 -0.7061
vn -0.7071 0.0028 -0.7071
vn -0.7071 0.0024 0.7071
vn 0.8730 -0.4877 -0.0000
vn 0.9890 0.1476 -0.0000
vn -0.7051 0.0748 -0.7052
vn -0.7051 0.0746 0.7052
vn 0.0430 0.9991 -0.0000
vn -0.6518 0.3606 -0.6672
vn -0.6566 0.3440 0.6712
vn 0.9975 -0.0701 -0.0000
vn -0.7012 -0.0987 0.7061
vn 0.8491 0.5282 -0.0000
vn -0.6942 -0.1554 -0.7028
vn -0.6942 -0.1557 0.7028
vn -0.0228 0.9997 -0.0000
vn -0.6408 -0.4029 -0.6535
vn -0.6343 -0.4219 0.6477
vn 0.9973 0.0734 -0.0000
vn 0.7251 -0.1212 -0.6779
vn -0.0256 0.2471 0.9686
vn -0.6885 -0.1210 -0.7151
vn -0.0226 0.5628 0.8263
vn 0.7209 -0.2096 -0.6606
vn -0.6847 -0.2145 -0.6966
vn 0.0006 0.9940 -0.1094
vn 0.6774 -0.4241 -0.6011
vn -0.6396 -0.4413 -0.6295
vn -0.0259 0.1048 0.9942
vn -0.7217 -0.1212 0.6815
vn 0.0211 0.0769 -0.9968
vn 0.6920 -0.1205 0.7118
vn 0.0207 0.3072 -0.9514
vn -0.7218 -0.0995 0.6849
vn 0.6919 -0.0868 0.7168
vn -0.0001 0.9940 0.1094
vn -0.7140 -0.2205 0.6645
vn 0.6830 -0.2371 0.6909
vn 0.0211 0.1045 -0.9943
vn -0.6153 0.7010 -0.3605
vn 0.8632 -0.0030 -0.5048
vn -0.8633 -0.0030 -0.5048
vn -0.0000 0.7014 0.7127
vn 0.8660 -0.0049 0.5000
vn -0.8660 -0.0048 0.5000
vn 0.6188 0.6975 -0.3614
vn 0.8318 0.2781 0.4803
vn -0.8277 0.2815 -0.4854
vn -0.0000 0.2775 -0.9607
vn 0.8308 0.2739 -0.4844
vn -0.7038 0.0748 -0.7064
vn -0.7038 0.0746 0.7064
vn -0.6520 0.3607 -0.6669
vn -0.6568 0.3440 0.6710
vn -0.6962 -0.1552 -0.7008
vn -0.6962 -0.1555 0.7008
vn -0.6425 -0.4034 -0.6515
vn -0.6362 -0.4224 0.6457
vn 0.7184 -0.2098 -0.6633
vn -0.6820 -0.2147 -0.6992
vn 0.6777 -0.4240 -0.6008
vn -0.6399 -0.4412 -0.6292
vn -0.7216 -0.0996 0.6851
vn 0.6920 -0.0868 0.7167
vn -0.7141 -0.2205 0.6644
vn 0.6831 -0.2371 0.6908
vt 0.578361 0.144051
vt 0.582390 0.141272
vt 0.582398 0.144051
vt 0.590370 0.119772
vt 0.590426 0.136655
vt 0.582390 0.141272
vt 0.575626 0.141272
vt 0.589087 0.141293
vt 0.586401 0.144051
vt 0.582371 0.136613
vt 0.582350 0.119772
vt 0.574258 0.136613
vt 0.574330 0.119772
vt 0.582371 0.136613
vt 0.575625 0.141272
vt 0.574258 0.136613
vt 0.575868 0.086928
vt 0.582350 0.086928
vt 0.588832 0.086928
vt 0.577836 0.070997
vt 0.582350 0.055067
vt 0.581444 0.055067
vt 0.586864 0.070997
vt 0.583255 0.055067
vt 0.582350 0.070997
vt 0.589087 0.141293
vt 0.232651 0.140963
vt 0.232522 0.111400
vt 0.232612 0.111400
vt 0.232567 0.082903
vt 0.232567 0.111285
vt 0.232612 0.111407
vt 0.232567 0.111402
vt 0.232654 0.169102
vt 0.232483 0.140963
vt 0.232651 0.133211
vt 0.232522 0.111407
vt 0.232567 0.141118
vt 0.232461 0.169102
vt 0.232557 0.169277
vt 0.232654 0.155945
vt 0.232483 0.133211
vt 0.232461 0.155945
vt 0.232557 0.155852
vt 0.232567 0.133096
vt 0.232683 0.110758
vt 0.232637 0.111048
vt 0.232813 0.140175
vt 0.232639 0.111039
vt 0.233251 0.167124
vt 0.232818 0.140159
vt 0.233256 0.167106
vt 0.233350 0.166671
vt 0.232899 0.139788
vt 0.232452 0.110758
vt 0.232498 0.111048
vt 0.232442 0.140159
vt 0.232496 0.111039
vt 0.232146 0.178974
vt 0.232445 0.140175
vt 0.232360 0.139788
vt 0.232142 0.178955
vt 0.232048 0.178520
s 0
usemtl Texture_Map
f 33/1/1 6/2/1 31/3/1
f 8/4/2 40/5/2 7/4/2
f 35/1/3 3/6/3 4/7/3
f 37/3/4 2/8/4 3/6/4
f 33/1/5 31/3/5 39/9/5
f 7/4/6 32/10/6 12/11/6
f 34/12/7 10/13/7 11/13/7
f 38/14/8 8/4/8 9/11/8
f 35/1/9 5/15/9 33/1/9
f 12/11/10 34/12/10 11/13/10
f 36/16/11 9/11/11 10/13/11
f 10/13/12 17/17/12 11/13/12
f 8/4/13 15/18/13 9/11/13
f 11/13/14 18/18/14 12/11/14
f 9/11/15 16/17/15 10/13/15
f 8/4/16 13/19/16 14/19/16
f 7/4/17 18/18/17 13/19/17
f 26/20/18 21/21/18 22/22/18
f 27/23/19 20/24/19 28/23/19
f 29/25/20 19/24/20 27/23/20
f 30/20/21 22/22/21 23/22/21
f 25/25/22 20/24/22 21/21/22
f 18/18/23 30/20/23 29/25/23
f 14/19/24 25/25/24 15/18/24
f 17/17/25 26/20/25 30/20/25
f 13/19/26 29/25/26 27/23/26
f 14/19/27 27/23/27 28/23/27
f 15/18/28 26/20/28 16/17/28
f 31/3/29 1/26/29 39/9/29
f 30/20/30 24/21/30 29/25/30
f 22/22/31 21/21/31 19/24/31
f 5/15/32 32/10/32 6/2/32
f 4/7/33 38/14/33 36/16/33
f 3/6/34 42/5/34 38/14/34
f 2/8/35 40/5/35 42/5/35
f 6/2/36 40/5/36 1/26/36
f 4/7/37 34/12/37 5/15/37
f 41/9/38 1/26/38 2/8/38
f 48/27/39 47/28/39 45/29/39
f 44/30/40 54/31/40 43/32/40
f 44/30/41 46/33/41 45/29/41
f 44/30/42 47/28/42 46/33/42
f 51/34/43 50/35/43 48/27/43
f 56/36/44 55/37/44 43/32/44
f 49/38/45 45/29/45 46/33/45
f 47/28/46 49/38/46 46/33/46
f 53/39/47 51/34/47 52/40/47
f 52/40/48 48/27/48 49/38/48
f 50/35/49 52/40/49 49/38/49
f 44/30/50 45/29/50 47/28/50
f 44/30/51 55/37/51 54/31/51
f 59/41/52 58/42/52 56/36/52
f 54/31/53 56/36/53 43/32/53
f 58/42/54 54/31/54 55/37/54
f 61/43/55 59/41/55 60/44/55
f 57/45/56 59/41/56 56/36/56
f 61/43/57 57/45/57 58/42/57
f 44/30/58 43/32/58 55/37/58
f 44/30/59 63/46/59 62/47/59
f 65/48/60 64/49/60 62/47/60
f 44/30/61 64/49/61 63/46/61
f 68/50/62 67/51/62 65/48/62
f 63/46/63 65/48/63 62/47/63
f 67/51/64 63/46/64 64/49/64
f 70/52/65 68/50/65 69/53/65
f 66/54/66 68/50/66 65/48/66
f 70/52/67 66/54/67 67/51/67
f 44/30/68 62/47/68 64/49/68
f 44/30/69 72/55/69 71/56/69
f 71/56/70 76/57/70 73/58/70
f 44/30/71 73/58/71 72/55/71
f 77/59/72 76/57/72 74/60/72
f 75/61/73 71/56/73 72/55/73
f 73/58/74 75/61/74 72/55/74
f 79/62/75 77/59/75 78/63/75
f 75/61/76 77/59/76 74/60/76
f 79/62/77 75/61/77 76/57/77
f 44/30/78 71/56/78 73/58/78
f 33/1/1 5/15/1 6/2/1
f 8/4/2 42/5/2 40/5/2
f 35/1/3 37/3/3 3/6/3
f 37/3/79 41/9/79 2/8/79
f 39/9/5 41/9/5 35/1/5
f 41/9/5 37/3/5 35/1/5
f 35/1/5 33/1/5 39/9/5
f 7/4/80 40/5/80 32/10/80
f 34/12/7 36/16/7 10/13/7
f 38/14/81 42/5/81 8/4/81
f 35/1/82 4/7/82 5/15/82
f 12/11/83 32/10/83 34/12/83
f 36/16/84 38/14/84 9/11/84
f 10/13/12 16/17/12 17/17/12
f 8/4/13 14/19/13 15/18/13
f 11/13/14 17/17/14 18/18/14
f 9/11/15 15/18/15 16/17/15
f 8/4/16 7/4/16 13/19/16
f 7/4/17 12/11/17 18/18/17
f 26/20/18 25/25/18 21/21/18
f 27/23/19 19/24/19 20/24/19
f 29/25/20 24/21/20 19/24/20
f 30/20/21 26/20/21 22/22/21
f 25/25/22 28/23/22 20/24/22
f 18/18/23 17/17/23 30/20/23
f 14/19/24 28/23/24 25/25/24
f 17/17/25 16/17/25 26/20/25
f 13/19/26 18/18/26 29/25/26
f 14/19/27 13/19/27 27/23/27
f 15/18/28 25/25/28 26/20/28
f 31/3/85 6/2/85 1/26/85
f 30/20/30 23/22/30 24/21/30
f 21/21/31 20/24/31 19/24/31
f 19/24/31 24/21/31 23/22/31
f 23/22/31 22/22/31 19/24/31
f 5/15/86 34/12/86 32/10/86
f 4/7/33 3/6/33 38/14/33
f 3/6/87 2/8/87 42/5/87
f 2/8/88 1/26/88 40/5/88
f 6/2/89 32/10/89 40/5/89
f 4/7/37 36/16/37 34/12/37
f 41/9/38 39/9/38 1/26/38
f 48/27/39 50/35/39 47/28/39
f 51/34/43 53/39/43 50/35/43
f 56/36/44 58/42/44 55/37/44
f 49/38/90 48/27/90 45/29/90
f 47/28/91 50/35/91 49/38/91
f 52/40/92 51/34/92 48/27/92
f 50/35/93 53/39/93 52/40/93
f 59/41/52 61/43/52 58/42/52
f 54/31/94 57/45/94 56/36/94
f 58/42/95 57/45/95 54/31/95
f 57/45/96 60/44/96 59/41/96
f 61/43/97 60/44/97 57/45/97
f 65/48/60 67/51/60 64/49/60
f 68/50/62 70/52/62 67/51/62
f 63/46/98 66/54/98 65/48/98
f 67/51/99 66/54/99 63/46/99
f 66/54/100 69/53/100 68/50/100
f 70/52/101 69/53/101 66/54/101
f 71/56/70 74/60/70 76/57/70
f 77/59/72 79/62/72 76/57/72
f 75/61/102 74/60/102 71/56/102
f 73/58/103 76/57/103 75/61/103
f 75/61/104 78/63/104 77/59/104
f 79/62/105 78/63/105 75/61/105
