# Blender 4.4.0
# www.blender.org
mtllib Crop_Radish_01.mtl
o Crop_Radish_01
v 0.007563 0.034925 -0.020417
v -0.009351 0.034925 -0.020417
v -0.021311 0.034925 -0.008457
v -0.021311 0.034925 0.008457
v -0.009351 0.034925 0.020417
v 0.007563 0.034925 0.020417
v 0.019523 0.034925 0.008457
v 0.019523 0.034925 -0.008457
v -0.028533 0.021554 -0.011448
v -0.012342 0.021554 0.027639
v -0.028533 0.021554 0.011448
v 0.026745 0.021554 0.011448
v 0.010554 0.021554 0.027639
v 0.026745 0.021554 -0.011448
v -0.012342 0.021554 -0.027639
v 0.010554 0.021554 -0.027639
v 0.010913 0.008183 -0.028506
v -0.012701 0.008183 -0.028506
v -0.029400 0.008183 -0.011807
v -0.029400 0.008183 0.011807
v -0.012701 0.008183 0.028506
v 0.010913 0.008183 0.028506
v 0.027612 0.008183 0.011807
v 0.027612 0.008183 -0.011807
v 0.008430 -0.005565 -0.022511
v -0.010218 -0.005565 -0.022511
v -0.023405 -0.005565 -0.009324
v -0.023405 -0.005565 0.009324
v -0.010218 -0.005565 0.022511
v 0.008430 -0.005565 0.022511
v 0.021617 -0.005565 0.009324
v 0.021617 -0.005565 -0.009324
v 0.002462 0.038848 -0.008102
v -0.004250 0.038848 -0.008102
v -0.008996 0.038848 -0.003356
v -0.008996 0.038848 0.003356
v -0.004250 0.038848 0.008102
v 0.002462 0.038848 0.008102
v 0.007208 0.038848 0.003356
v 0.007208 0.038848 -0.003356
v 0.001127 0.037467 -0.004878
v -0.002915 0.037467 -0.004878
v -0.005772 0.037467 -0.002021
v -0.005772 0.037467 0.002021
v -0.002915 0.037467 0.004878
v 0.001127 0.037467 0.004878
v 0.003984 0.037467 0.002021
v 0.003984 0.037467 -0.002021
v 0.001032 -0.016787 -0.004651
v -0.002821 -0.016787 -0.004651
v -0.005545 -0.016787 -0.001927
v -0.005545 -0.016787 0.001927
v -0.002821 -0.016787 0.004651
v 0.001032 -0.016787 0.004651
v 0.003757 -0.016787 0.001927
v 0.003757 -0.016787 -0.001927
v 0.000148 -0.024117 -0.002548
v -0.001936 -0.024449 -0.002548
v -0.003410 -0.024683 -0.001055
v -0.003410 -0.024683 0.001055
v -0.001936 -0.024449 0.002548
v 0.000148 -0.024117 0.002548
v 0.001622 -0.023883 0.001055
v 0.001622 -0.023883 -0.001055
v 0.001234 -0.035811 -0.001697
v -0.000011 -0.036466 -0.001697
v -0.000890 -0.036929 -0.000703
v -0.000890 -0.036929 0.000703
v -0.000011 -0.036466 0.001697
v 0.001234 -0.035811 0.001697
v 0.002113 -0.035348 0.000703
v 0.002113 -0.035348 -0.000703
v 0.007493 -0.043980 -0.000191
v 0.007377 -0.044088 -0.000191
v 0.007294 -0.044163 -0.000079
v 0.007294 -0.044163 0.000079
v 0.007377 -0.044088 0.000191
v 0.007493 -0.043980 0.000191
v 0.007576 -0.043905 0.000079
v 0.007576 -0.043905 -0.000079
v -0.120363 0.254621 0.020518
v -0.120363 0.254621 -0.022918
v -0.124779 0.256421 -0.001197
v -0.088580 0.236132 0.035300
v -0.088580 0.236132 -0.037726
v -0.095605 0.233864 -0.001205
v -0.045661 0.196733 0.025402
v -0.046625 0.195712 -0.027865
v -0.053024 0.188371 -0.001078
v -0.040987 0.191121 0.032179
v -0.042351 0.189698 -0.034647
v -0.045145 0.178763 -0.001219
v -0.015817 0.130261 0.004486
v -0.016280 0.129581 -0.006958
v -0.012994 0.128168 -0.001236
v -0.000794 0.036397 -0.000005
v -0.007770 0.081780 0.004486
v -0.005896 0.081446 -0.001236
v -0.008153 0.081100 -0.006958
v 0.118999 0.254621 -0.021619
v 0.118999 0.254621 0.021816
v 0.123405 0.256421 0.000102
v 0.087254 0.236132 -0.036428
v 0.087254 0.236132 0.036599
v 0.094256 0.233864 0.000093
v 0.044391 0.196733 -0.026568
v 0.045356 0.195712 0.026700
v 0.051752 0.188371 -0.000085
v 0.039724 0.191121 -0.033349
v 0.041088 0.189698 0.033477
v 0.043881 0.178763 0.000050
v 0.014461 0.130261 -0.005659
v 0.014850 0.129581 0.005785
v 0.013477 0.128168 0.000063
v 0.005683 0.081780 -0.005659
v 0.004650 0.081446 0.000063
v 0.006036 0.081100 0.005785
v -0.120940 0.253313 0.020857
v -0.120940 0.253313 -0.023257
v -0.125368 0.255067 -0.001197
v -0.089356 0.234858 0.035753
v -0.089367 0.234863 -0.038163
v -0.096469 0.232156 -0.001199
v -0.046727 0.195746 0.025928
v -0.047720 0.194724 -0.028335
v -0.054221 0.187234 -0.001045
v -0.042221 0.190331 0.032607
v -0.043613 0.188908 -0.034986
v -0.046490 0.177918 -0.001173
v -0.017339 0.129602 0.004532
v -0.017796 0.128941 -0.006862
v -0.014541 0.127697 -0.001189
v -0.009258 0.081624 0.004126
v -0.007484 0.081292 -0.001154
v -0.009603 0.080958 -0.006474
v 0.119576 0.253313 -0.021958
v 0.119576 0.253313 0.022155
v 0.123994 0.255067 0.000102
v 0.088031 0.234858 -0.036881
v 0.088042 0.234863 0.037035
v 0.095122 0.232156 0.000086
v 0.045458 0.195746 -0.027094
v 0.046451 0.194724 0.027169
v 0.052949 0.187234 -0.000119
v 0.040952 0.190337 -0.033802
v 0.042343 0.188912 0.033844
v 0.045232 0.177917 0.000004
v 0.015915 0.129634 -0.005854
v 0.016317 0.128965 0.005851
v 0.014979 0.127680 0.000011
v 0.007202 0.081600 -0.005571
v 0.006177 0.081278 -0.000014
v 0.007541 0.080934 0.005563
v 0.020326 0.254540 0.119586
v -0.023111 0.254540 0.119586
v -0.001388 0.256401 0.123995
v 0.035119 0.235969 0.087865
v -0.037944 0.235970 0.087865
v -0.001401 0.233387 0.094949
v 0.025200 0.196721 0.044949
v -0.028078 0.195700 0.045913
v -0.001286 0.188319 0.052340
v 0.031963 0.191136 0.040262
v -0.034848 0.189715 0.041625
v -0.001429 0.178726 0.044448
v 0.004276 0.130261 0.015104
v -0.007168 0.129581 0.015567
v -0.001446 0.128168 0.012281
v 0.004276 0.081780 0.007057
v -0.001446 0.081446 0.005182
v -0.007168 0.081100 0.007440
v -0.022153 0.254621 -0.118453
v 0.021282 0.254621 -0.118453
v -0.000431 0.256421 -0.122865
v -0.036968 0.236132 -0.086683
v 0.036059 0.236132 -0.086683
v -0.000443 0.233864 -0.093700
v -0.027117 0.196733 -0.043783
v 0.026150 0.195712 -0.044748
v -0.000634 0.188371 -0.051146
v -0.033900 0.191121 -0.039112
v 0.032927 0.189698 -0.040476
v -0.000500 0.178763 -0.043270
v -0.006210 0.130261 -0.013847
v 0.005234 0.129581 -0.014235
v -0.000488 0.128168 -0.012863
v -0.006210 0.081780 -0.005068
v -0.000488 0.081446 -0.004035
v 0.005234 0.081100 -0.005421
v 0.020664 0.253258 0.120158
v -0.023449 0.253258 0.120158
v -0.001388 0.255086 0.124576
v 0.035540 0.234898 0.088566
v -0.038347 0.234903 0.088576
v -0.001393 0.232611 0.095581
v 0.025709 0.195771 0.045989
v -0.028530 0.194751 0.046980
v -0.001253 0.187288 0.053459
v 0.032388 0.190349 0.041494
v -0.035185 0.188928 0.042884
v -0.001381 0.177958 0.045752
v 0.004323 0.129602 0.016625
v -0.007072 0.128941 0.017083
v -0.001399 0.127697 0.013827
v 0.003916 0.081624 0.008545
v -0.001364 0.081292 0.006771
v -0.006684 0.080958 0.008890
v -0.022492 0.253313 -0.119030
v 0.021621 0.253313 -0.119030
v -0.000431 0.255067 -0.123454
v -0.037421 0.234858 -0.087459
v 0.036495 0.234863 -0.087470
v -0.000451 0.232156 -0.094564
v -0.027643 0.195746 -0.044850
v 0.026620 0.194724 -0.045843
v -0.000668 0.187234 -0.052343
v -0.034352 0.190337 -0.040340
v 0.033294 0.188912 -0.041731
v -0.000546 0.177917 -0.044620
v -0.006405 0.129634 -0.015300
v 0.005300 0.128965 -0.015702
v -0.000540 0.127680 -0.014365
v -0.006122 0.081600 -0.006587
v -0.000565 0.081278 -0.005563
v 0.005012 0.080934 -0.006926
vn 0.7056 0.0647 -0.7056
vn 0.7056 0.0647 0.7056
vn -0.7056 0.0647 0.7056
vn -0.7056 0.0647 -0.7056
vn -0.0000 0.4752 -0.8799
vn 0.9979 0.0647 -0.0000
vn -0.0000 0.0647 0.9979
vn -0.9979 0.0647 -0.0000
vn -0.8799 0.4752 -0.0000
vn 0.8799 0.4752 -0.0000
vn -0.6222 0.4752 0.6222
vn 0.6222 0.4752 -0.6222
vn -0.0000 0.4752 0.8799
vn -0.6222 0.4752 -0.6222
vn 0.6222 0.4752 0.6222
vn 0.9166 -0.3997 -0.0000
vn -0.0000 -0.3997 0.9166
vn -0.9166 -0.3997 -0.0000
vn -0.0000 -0.3997 -0.9166
vn 0.6482 -0.3997 -0.6482
vn 0.6482 -0.3997 0.6482
vn -0.6482 -0.3997 0.6482
vn -0.6482 -0.3997 -0.6482
vn -0.5320 -0.8467 -0.0000
vn 0.3762 -0.8467 -0.3762
vn 0.3762 -0.8467 0.3762
vn -0.3762 -0.8467 0.3762
vn -0.3762 -0.8467 -0.3762
vn 0.6769 -0.7361 -0.0000
vn 0.5320 -0.8467 -0.0000
vn -0.0000 -0.8467 0.5320
vn 0.3036 0.9528 -0.0000
vn -0.0000 0.9528 0.3036
vn -0.3036 0.9528 -0.0000
vn -0.0000 0.9528 -0.3036
vn 0.2146 0.9528 -0.2146
vn 0.2146 0.9528 0.2146
vn -0.2146 0.9528 0.2146
vn -0.2146 0.9528 -0.2146
vn 0.3938 0.9192 -0.0000
vn -0.0000 0.9192 0.3938
vn -0.2784 0.9192 0.2784
vn -0.2784 0.9192 -0.2784
vn 0.2784 0.9192 -0.2784
vn 0.2784 0.9192 0.2784
vn -0.3938 0.9192 -0.0000
vn -0.0000 0.9192 -0.3938
vn -0.0000 1.0000 -0.0000
vn 0.0414 -0.2600 -0.9647
vn 0.7056 -0.2727 -0.6540
vn 0.6774 -0.2869 0.6774
vn -0.6817 -0.2658 0.6817
vn -0.6670 -0.2574 -0.6992
vn 0.9576 -0.2881 -0.0000
vn -0.0000 -0.2758 0.9612
vn -0.9653 -0.2610 -0.0000
vn 0.9991 0.0428 -0.0000
vn 0.0114 -0.0715 0.9974
vn -0.9795 -0.2016 -0.0000
vn 0.0343 -0.0651 -0.9973
vn 0.7440 0.0205 -0.6679
vn 0.7108 0.0088 0.7033
vn -0.6896 -0.1605 0.7062
vn -0.6996 -0.1640 -0.6955
vn -0.6623 -0.7492 -0.0000
vn 0.6182 0.3434 -0.7070
vn 0.6182 0.3434 0.7070
vn -0.4590 -0.5775 0.6751
vn -0.4590 -0.5775 -0.6751
vn 0.8429 0.5381 -0.0000
vn 0.0681 -0.1294 0.9892
vn 0.0681 -0.1294 -0.9892
vn -0.0000 0.0647 -0.9979
vn 0.6106 0.7897 0.0587
vn 0.5501 0.8203 -0.1568
vn 0.8514 0.4733 0.2260
vn 0.6448 0.7452 -0.1704
vn 0.7112 0.5889 -0.3838
vn 0.8922 0.4019 0.2060
vn 0.8359 0.4726 -0.2790
vn 0.6621 0.7293 0.1727
vn 0.9459 0.1154 0.3032
vn 0.9241 0.0945 -0.3703
vn 0.8730 0.1463 -0.4652
vn 0.9429 0.1433 0.3006
vn -0.6109 0.7895 -0.0585
vn -0.5506 0.8200 0.1565
vn -0.8501 0.4754 -0.2266
vn -0.6454 0.7447 0.1700
vn -0.7117 0.5884 0.3836
vn -0.8925 0.4014 -0.2059
vn -0.8352 0.4737 0.2793
vn -0.6625 0.7289 -0.1724
vn -0.9783 0.1185 -0.1697
vn -0.9637 0.1161 0.2405
vn -0.9662 0.1757 0.1884
vn -0.9693 0.1831 -0.1643
vn -0.5549 -0.8152 -0.1663
vn -0.5548 -0.8152 0.1664
vn -0.7922 -0.5041 0.3441
vn -0.6426 -0.7452 0.1782
vn -0.7080 -0.5928 0.3838
vn -0.7267 -0.5984 -0.3374
vn -0.8364 -0.4717 0.2790
vn -0.6845 -0.6449 -0.3400
vn -0.9403 -0.1480 -0.3066
vn -0.9187 -0.1273 0.3739
vn -0.8716 -0.1450 0.4684
vn -0.9070 -0.1494 -0.3938
vn 0.5552 -0.8150 0.1661
vn 0.5553 -0.8149 -0.1661
vn 0.8537 -0.5141 -0.0824
vn 0.6433 -0.7447 -0.1778
vn 0.7087 -0.5920 -0.3836
vn 0.7272 -0.5979 0.3373
vn 0.8353 -0.4733 -0.2797
vn 0.6849 -0.6445 0.3400
vn 0.9736 -0.1512 0.1707
vn 0.9584 -0.1489 -0.2436
vn 0.9673 -0.1756 -0.1829
vn 0.9794 -0.1771 0.0973
vn -0.2288 0.3379 -0.9130
vn -0.8731 0.4398 0.2102
vn -0.8959 0.3892 -0.2144
vn -0.1732 0.4219 0.8899
vn 0.3365 0.1326 0.9323
vn 0.3318 0.1161 -0.9362
vn -0.2009 0.6902 0.6952
vn -0.2610 0.6347 -0.7273
vn 0.1802 -0.3510 0.9189
vn 0.3896 -0.2405 -0.8890
vn -0.2203 -0.1295 0.9668
vn -0.0593 -0.0099 -0.9982
vn -0.2302 -0.0470 0.9720
vn -0.2934 -0.1939 -0.9361
vn 0.2285 0.3377 0.9131
vn 0.8732 0.4399 -0.2098
vn 0.8959 0.3892 0.2141
vn 0.1736 0.4226 -0.8896
vn -0.3364 0.1329 -0.9323
vn -0.3323 0.1152 0.9361
vn 0.1908 0.6976 -0.6907
vn 0.2609 0.6346 0.7274
vn -0.2584 -0.3141 -0.9136
vn -0.4036 -0.2316 0.8851
vn 0.0417 -0.1294 -0.9907
vn -0.0418 0.0076 0.9991
vn 0.0555 -0.0160 -0.9983
vn 0.1290 -0.1467 0.9807
vn 0.0588 0.7824 -0.6200
vn -0.1652 0.8156 -0.5545
vn 0.2276 0.4735 -0.8509
vn -0.1772 0.7463 -0.6416
vn -0.3851 0.5897 -0.7099
vn 0.2079 0.4034 -0.8911
vn -0.2804 0.4728 -0.8354
vn 0.1794 0.7305 -0.6590
vn 0.3034 0.1133 -0.9461
vn -0.3704 0.1010 -0.9234
vn -0.4652 0.1463 -0.8730
vn 0.3006 0.1433 -0.9429
vn -0.0586 0.7897 0.6107
vn 0.1567 0.8201 0.5503
vn -0.2266 0.4754 0.8501
vn 0.1702 0.7449 0.6451
vn 0.3837 0.5886 0.7115
vn -0.2060 0.4018 0.8923
vn 0.2793 0.4738 0.8352
vn -0.1726 0.7292 0.6621
vn -0.1720 0.0889 0.9811
vn 0.2395 0.0849 0.9672
vn 0.1884 0.1757 0.9662
vn -0.1643 0.1831 0.9693
vn -0.1552 -0.8206 0.5501
vn 0.1553 -0.8206 0.5500
vn 0.3444 -0.5035 0.7924
vn 0.1688 -0.7449 0.6455
vn 0.3827 -0.5915 0.7097
vn -0.3363 -0.5970 0.7283
vn 0.2784 -0.4712 0.8369
vn -0.3390 -0.6410 0.6886
vn -0.3068 -0.1458 0.9405
vn 0.3740 -0.1338 0.9177
vn 0.4684 -0.1450 0.8716
vn -0.3938 -0.1494 0.9070
vn 0.1663 -0.8151 -0.5549
vn -0.1662 -0.8150 -0.5551
vn -0.0824 -0.5142 -0.8537
vn -0.1780 -0.7449 -0.6430
vn -0.3837 -0.5922 -0.7085
vn 0.3373 -0.5981 -0.7269
vn -0.2797 -0.4733 -0.8353
vn 0.3401 -0.6449 -0.6844
vn 0.1731 -0.1219 -0.9773
vn -0.2428 -0.1180 -0.9629
vn -0.1829 -0.1756 -0.9673
vn 0.0973 -0.1771 -0.9794
vn -0.9121 0.3416 0.2265
vn 0.2113 0.4439 0.8708
vn -0.2151 0.3948 0.8932
vn 0.8809 0.4473 0.1548
vn 0.9325 0.1319 -0.3362
vn -0.9318 0.1251 -0.3406
vn 0.6952 0.6903 0.2004
vn -0.7266 0.6365 0.2586
vn 0.9190 -0.3508 -0.1801
vn -0.8893 -0.2409 -0.3887
vn 0.9654 -0.1419 0.2187
vn -0.9982 -0.0099 0.0593
vn 0.9720 -0.0470 0.2302
vn -0.9378 -0.1829 0.2950
vn 0.9132 0.3375 -0.2283
vn -0.2101 0.4399 -0.8731
vn 0.2143 0.3892 -0.8959
vn -0.8895 0.4226 -0.1736
vn -0.9323 0.1332 0.3362
vn 0.9361 0.1152 0.3323
vn -0.6907 0.6976 -0.1908
vn 0.7276 0.6345 -0.2609
vn -0.9136 -0.3140 0.2583
vn 0.8851 -0.2316 0.4036
vn -0.9915 -0.1231 -0.0425
vn 0.9991 0.0076 0.0418
vn -0.9983 -0.0160 -0.0555
vn 0.9806 -0.1478 -0.1288
vn -0.0000 -0.8467 -0.5320
vn 0.6769 -0.7361 -0.0001
vn 0.6768 -0.7361 -0.0000
vn -0.0000 -0.2758 -0.9612
vn 0.6774 -0.2869 -0.6774
vn 0.7056 -0.2727 0.6540
vn -0.6670 -0.2574 0.6992
vn -0.6817 -0.2658 -0.6817
vn 0.0414 -0.2600 0.9647
vn 0.0343 -0.0651 0.9973
vn 0.0114 -0.0715 -0.9974
vn 0.7108 0.0088 -0.7033
vn 0.7440 0.0205 0.6679
vn -0.6996 -0.1640 0.6955
vn -0.6896 -0.1605 -0.7062
vn 0.6263 0.3489 -0.6972
vn 0.6263 0.3489 0.6971
vn -0.4369 -0.5622 0.7022
vn -0.4369 -0.5622 -0.7022
vn 0.0984 -0.1070 0.9894
vn 0.0984 -0.1070 -0.9894
vn 0.5502 0.8202 0.1568
vn 0.6106 0.7898 -0.0587
vn 0.7960 0.5059 -0.3322
vn 0.6740 0.6297 -0.3863
vn 0.8731 0.4118 -0.2611
vn 0.7303 0.5940 0.3373
vn 0.8243 0.5237 0.2152
vn 0.6861 0.6431 0.3401
vn 0.9182 0.1395 -0.3707
vn 0.9073 0.1506 0.3925
vn -0.5505 0.8200 -0.1565
vn -0.6110 0.7895 0.0585
vn -0.8545 0.5135 0.0783
vn -0.6748 0.6289 0.3862
vn -0.8734 0.4112 0.2609
vn -0.7306 0.5938 -0.3372
vn -0.8564 0.5147 0.0409
vn -0.6865 0.6427 -0.3401
vn -0.9534 0.1801 0.2419
vn -0.9787 0.1772 -0.1035
vn -0.6200 -0.7821 -0.0623
vn -0.6200 -0.7821 0.0623
vn -0.8517 -0.4727 -0.2261
vn -0.6726 -0.6313 0.3861
vn -0.8754 -0.4074 0.2603
vn -0.8946 -0.3971 -0.2052
vn -0.8216 -0.5226 -0.2278
vn -0.6602 -0.7291 -0.1802
vn -0.9169 -0.1391 0.3740
vn -0.9408 -0.1433 -0.3071
vn 0.6204 -0.7818 0.0621
vn 0.6204 -0.7818 -0.0621
vn 0.8502 -0.4751 0.2269
vn 0.6735 -0.6305 -0.3860
vn 0.8757 -0.4067 -0.2603
vn 0.8947 -0.3966 0.2053
vn 0.8561 -0.5156 -0.0351
vn 0.6607 -0.7288 0.1800
vn 0.9528 -0.1806 -0.2442
vn 0.9685 -0.1838 0.1679
vn -0.1775 0.4165 -0.8916
vn -0.8959 0.3892 0.2145
vn -0.8731 0.4398 -0.2102
vn -0.2284 0.3376 0.9132
vn 0.3335 0.1287 0.9339
vn 0.3167 0.0975 -0.9435
vn -0.2521 0.6527 0.7144
vn -0.2223 0.6618 -0.7160
vn 0.4396 -0.2150 0.8721
vn 0.1042 -0.3852 -0.9169
vn -0.3106 -0.0607 -0.9486
vn 0.0286 0.0047 0.9996
vn 0.1773 0.4162 0.8918
vn 0.8959 0.3893 -0.2140
vn 0.8732 0.4399 0.2099
vn 0.2290 0.3380 -0.9129
vn -0.3334 0.1290 -0.9339
vn -0.3171 0.0967 0.9434
vn 0.2523 0.6530 -0.7141
vn 0.2107 0.6694 0.7124
vn -0.4522 -0.2070 -0.8676
vn -0.1873 -0.3477 0.9187
vn 0.1429 -0.0321 0.9892
vn -0.1238 0.0224 -0.9921
vn 0.1652 0.8155 -0.5546
vn -0.0588 0.7824 -0.6199
vn -0.3320 0.5064 -0.7958
vn -0.3877 0.6327 -0.6703
vn -0.2629 0.4133 -0.8718
vn 0.3387 0.5947 -0.7291
vn 0.2149 0.5242 -0.8240
vn 0.3417 0.6461 -0.6825
vn -0.3707 0.1395 -0.9182
vn 0.3925 0.1506 -0.9073
vn -0.1567 0.8202 0.5502
vn 0.0586 0.7896 0.6108
vn 0.0782 0.5136 0.8545
vn 0.3862 0.6293 0.6745
vn 0.2610 0.4115 0.8732
vn -0.3373 0.5940 0.7303
vn 0.0409 0.5147 0.8564
vn -0.3401 0.6431 0.6860
vn 0.2419 0.1801 0.9534
vn -0.1035 0.1772 0.9787
vn -0.0571 -0.7891 0.6117
vn 0.0571 -0.7891 0.6116
vn -0.2255 -0.4722 0.8521
vn 0.3850 -0.6277 0.6766
vn 0.2596 -0.4064 0.8760
vn -0.2044 -0.3959 0.8952
vn -0.2282 -0.5220 0.8219
vn -0.1709 -0.7288 0.6631
vn 0.3740 -0.1391 0.9169
vn -0.3071 -0.1433 0.9408
vn 0.0622 -0.7820 -0.6201
vn -0.0622 -0.7820 -0.6202
vn 0.2270 -0.4751 -0.8501
vn -0.3860 -0.6308 -0.6731
vn -0.2604 -0.4071 -0.8755
vn 0.2054 -0.3970 -0.8945
vn -0.0352 -0.5156 -0.8561
vn 0.1802 -0.7291 -0.6603
vn -0.2442 -0.1806 -0.9528
vn 0.1679 -0.1838 -0.9685
vn -0.8832 0.4407 0.1605
vn 0.2152 0.3948 0.8932
vn -0.2112 0.4439 0.8708
vn 0.9125 0.3412 0.2258
vn 0.9287 0.1403 -0.3434
vn -0.9444 0.0963 -0.3145
vn 0.7134 0.6550 0.2489
vn -0.7159 0.6620 0.2220
vn 0.8724 -0.2154 -0.4389
vn -0.9170 -0.3850 -0.1041
vn -0.9486 -0.0607 0.3106
vn 0.9996 0.0047 -0.0286
vn 0.8919 0.4160 -0.1771
vn -0.2142 0.3892 -0.8959
vn 0.2101 0.4399 -0.8731
vn -0.9129 0.3380 -0.2290
vn -0.9339 0.1294 0.3332
vn 0.9434 0.0967 0.3171
vn -0.7141 0.6530 -0.2523
vn 0.7125 0.6693 -0.2107
vn -0.8676 -0.2070 0.4522
vn 0.9187 -0.3477 0.1873
vn 0.9892 -0.0321 -0.1429
vn -0.9921 0.0224 0.1238
vt 0.467161 0.319426
vt 0.466864 0.308934
vt 0.466879 0.319426
vt 0.467841 0.319426
vt 0.467565 0.308934
vt 0.467559 0.319426
vt 0.467005 0.329918
vt 0.467154 0.308934
vt 0.467856 0.308934
vt 0.467213 0.329918
vt 0.467507 0.329918
vt 0.467715 0.329918
vt 0.467522 0.298145
vt 0.467198 0.298145
vt 0.467751 0.298145
vt 0.466968 0.298145
vt 0.467326 0.289339
vt 0.467279 0.289339
vt 0.467393 0.289339
vt 0.467361 0.268059
vt 0.467363 0.267916
vt 0.467358 0.267856
vt 0.467441 0.289339
vt 0.467418 0.332997
vt 0.467501 0.332997
vt 0.467301 0.332997
vt 0.467219 0.332997
vt 0.467395 0.331914
vt 0.467325 0.331914
vt 0.467275 0.331914
vt 0.467445 0.331914
vt 0.467315 0.283587
vt 0.467315 0.283327
vt 0.467341 0.283771
vt 0.467378 0.283771
vt 0.467404 0.283327
vt 0.467341 0.283143
vt 0.467404 0.283587
vt 0.467378 0.283143
vt 0.467348 0.274774
vt 0.467389 0.274411
vt 0.467372 0.273534
vt 0.467330 0.274411
vt 0.467330 0.273897
vt 0.467372 0.274774
vt 0.467389 0.273897
vt 0.467348 0.273534
vt 0.467356 0.268000
vt 0.467363 0.268000
vt 0.467361 0.267856
vt 0.467356 0.267916
vt 0.209376 0.168672
vt 0.209133 0.173461
vt 0.209376 0.173876
vt 0.209618 0.173461
vt 0.209784 0.169195
vt 0.209375 0.155959
vt 0.209311 0.144612
vt 0.209002 0.158482
vt 0.209673 0.160105
vt 0.209377 0.158176
vt 0.209078 0.159870
vt 0.209439 0.144769
vt 0.209749 0.158811
vt 0.208967 0.169195
vt 0.209375 0.133506
vt 0.209439 0.133583
vt 0.209380 0.123117
vt 0.209311 0.133427
vt 0.209369 0.123070
vt 0.209375 0.144286
vt 0.209390 0.168672
vt 0.209633 0.173461
vt 0.209390 0.173876
vt 0.209147 0.173461
vt 0.208982 0.169195
vt 0.209390 0.155959
vt 0.209454 0.144612
vt 0.209763 0.158482
vt 0.209092 0.160105
vt 0.209388 0.158176
vt 0.209687 0.159870
vt 0.209326 0.144769
vt 0.209016 0.158811
vt 0.209798 0.169195
vt 0.209390 0.133506
vt 0.209326 0.133583
vt 0.209391 0.123117
vt 0.209454 0.133427
vt 0.209402 0.123070
vt 0.209390 0.144286
vt 0.209376 0.168278
vt 0.209129 0.173159
vt 0.208962 0.168902
vt 0.209622 0.173159
vt 0.209789 0.168902
vt 0.209376 0.155764
vt 0.209312 0.144464
vt 0.209376 0.144177
vt 0.209679 0.159878
vt 0.209377 0.157914
vt 0.209072 0.159642
vt 0.209440 0.144617
vt 0.209753 0.158628
vt 0.209376 0.133471
vt 0.209390 0.123154
vt 0.209435 0.133548
vt 0.209317 0.133394
vt 0.209382 0.123109
vt 0.209390 0.168278
vt 0.209637 0.173159
vt 0.209803 0.168902
vt 0.209144 0.173159
vt 0.208977 0.168902
vt 0.209389 0.155764
vt 0.209454 0.144470
vt 0.209389 0.144174
vt 0.209086 0.159878
vt 0.209388 0.157914
vt 0.209693 0.159642
vt 0.209324 0.144624
vt 0.209011 0.158630
vt 0.209389 0.133468
vt 0.209378 0.123154
vt 0.209327 0.133542
vt 0.209451 0.133388
vt 0.209390 0.123110
vt 0.209376 0.173564
vt 0.208998 0.158300
vt 0.209392 0.123163
vt 0.209372 0.123063
vt 0.209390 0.173564
vt 0.209767 0.158301
vt 0.209379 0.123163
vt 0.209401 0.123063
vt 0.210450 0.168562
vt 0.210726 0.173442
vt 0.210775 0.173872
vt 0.210371 0.169158
vt 0.209886 0.155951
vt 0.209563 0.144612
vt 0.209854 0.158486
vt 0.209891 0.160102
vt 0.209974 0.158164
vt 0.209902 0.159867
vt 0.209558 0.144769
vt 0.209839 0.158814
vt 0.210371 0.169158
vt 0.209447 0.133506
vt 0.209468 0.133583
vt 0.209421 0.123117
vt 0.209472 0.133427
vt 0.209409 0.123070
vt 0.209526 0.144286
vt 0.208342 0.168672
vt 0.208065 0.173461
vt 0.208016 0.173876
vt 0.208420 0.169195
vt 0.208905 0.155959
vt 0.209230 0.144612
vt 0.208937 0.158482
vt 0.208900 0.160105
vt 0.208817 0.158176
vt 0.208889 0.159870
vt 0.209234 0.144769
vt 0.208952 0.158811
vt 0.209344 0.133506
vt 0.209332 0.133583
vt 0.209364 0.123117
vt 0.209328 0.133427
vt 0.209376 0.123070
vt 0.209245 0.144286
vt 0.210457 0.168383
vt 0.210732 0.173147
vt 0.210379 0.168912
vt 0.210379 0.168911
vt 0.209900 0.155773
vt 0.209580 0.144464
vt 0.209544 0.144177
vt 0.209903 0.159883
vt 0.209987 0.157926
vt 0.209914 0.159648
vt 0.209575 0.144617
vt 0.209853 0.158632
vt 0.209465 0.133471
vt 0.209417 0.123154
vt 0.209484 0.133548
vt 0.209488 0.133394
vt 0.209425 0.123109
vt 0.208332 0.168278
vt 0.208058 0.173159
vt 0.208411 0.168902
vt 0.208411 0.168902
vt 0.208890 0.155764
vt 0.209213 0.144470
vt 0.209228 0.144174
vt 0.208888 0.159878
vt 0.208804 0.157914
vt 0.208877 0.159642
vt 0.209218 0.144624
vt 0.208938 0.158630
vt 0.209327 0.133468
vt 0.209367 0.123154
vt 0.209315 0.133542
vt 0.209312 0.133388
vt 0.209361 0.123110
vt 0.210781 0.173569
vt 0.209868 0.158304
vt 0.209405 0.123163
vt 0.209419 0.123063
vt 0.208009 0.173564
vt 0.208923 0.158301
vt 0.209379 0.123163
vt 0.209365 0.123063
vt 0.467358 0.268059
s 0
usemtl Texture_Map
f 14/1/1 17/2/1 16/3/1
f 13/4/2 23/5/2 12/6/2
f 20/5/3 10/4/3 11/6/3
f 18/2/4 9/1/4 15/3/4
f 16/3/5 2/7/5 1/7/5
f 12/6/6 24/8/6 14/1/6
f 10/4/7 22/9/7 13/4/7
f 9/1/8 20/5/8 11/6/8
f 3/10/9 11/6/9 4/11/9
f 7/11/10 14/1/10 8/10/10
f 11/6/11 5/12/11 4/11/11
f 14/1/12 1/7/12 8/10/12
f 5/12/13 13/4/13 6/12/13
f 2/7/14 9/1/14 3/10/14
f 13/4/15 7/11/15 6/12/15
f 24/8/16 31/13/16 32/14/16
f 22/9/17 29/15/17 30/15/17
f 19/8/18 28/13/18 20/5/18
f 17/2/19 26/16/19 18/2/19
f 24/8/20 25/16/20 17/2/20
f 23/5/21 30/15/21 31/13/21
f 21/9/22 28/13/22 29/15/22
f 18/2/23 27/14/23 19/8/23
f 51/17/24 28/13/24 27/14/24
f 32/14/25 49/18/25 25/16/25
f 30/15/26 55/19/26 31/13/26
f 52/19/27 29/15/27 28/13/27
f 26/16/28 51/17/28 27/14/28
f 79/20/29 77/21/29 75/22/29
f 55/19/30 32/14/30 31/13/30
f 53/23/31 30/15/31 29/15/31
f 8/10/32 39/24/32 7/11/32
f 5/12/33 38/25/33 37/25/33
f 4/11/34 35/26/34 3/10/34
f 2/7/35 33/27/35 1/7/35
f 1/7/36 40/26/36 8/10/36
f 6/12/37 39/24/37 38/25/37
f 4/11/38 37/25/38 36/24/38
f 3/10/39 34/27/39 2/7/39
f 35/26/40 44/28/40 43/29/40
f 33/27/41 42/30/41 41/30/41
f 33/27/42 48/29/42 40/26/42
f 38/25/43 47/28/43 46/31/43
f 36/24/44 45/31/44 44/28/44
f 35/26/45 42/30/45 34/27/45
f 40/26/46 47/28/46 39/24/46
f 38/25/47 45/31/47 37/25/47
f 43/29/48 45/31/48 47/28/48
f 50/18/49 57/32/49 58/33/49
f 49/18/50 64/34/50 57/32/50
f 54/23/51 63/35/51 55/19/51
f 52/19/52 61/36/52 53/23/52
f 51/17/53 58/33/53 59/37/53
f 55/19/54 64/34/54 56/17/54
f 53/23/55 62/38/55 54/23/55
f 52/19/56 59/37/56 60/39/56
f 63/35/57 72/40/57 64/34/57
f 61/36/58 70/41/58 62/38/58
f 59/37/59 68/42/59 60/39/59
f 58/33/60 65/43/60 66/44/60
f 57/32/61 72/40/61 65/43/61
f 62/38/62 71/45/62 63/35/62
f 60/39/63 69/46/63 61/36/63
f 59/37/64 66/44/64 67/47/64
f 75/22/65 68/42/65 67/47/65
f 72/40/66 73/48/66 65/43/66
f 78/49/67 71/45/67 70/41/67
f 76/50/68 69/46/68 68/42/68
f 66/44/69 75/22/69 67/47/69
f 79/20/70 72/40/70 71/45/70
f 77/21/71 70/41/71 69/46/71
f 65/43/72 74/51/72 66/44/72
f 17/2/73 15/3/73 16/3/73
f 86/52/74 82/53/74 83/54/74
f 86/52/75 81/55/75 84/56/75
f 92/57/76 94/58/76 91/59/76
f 87/60/77 86/52/77 84/56/77
f 87/60/78 92/57/78 89/61/78
f 88/62/79 92/57/79 91/59/79
f 93/63/80 92/57/80 90/64/80
f 86/52/81 88/62/81 85/65/81
f 98/66/82 97/67/82 96/68/82
f 99/69/83 98/66/83 96/70/83
f 95/71/84 99/69/84 94/58/84
f 95/71/85 97/67/85 98/66/85
f 105/72/86 101/73/86 102/74/86
f 105/72/87 100/75/87 103/76/87
f 111/77/88 113/78/88 110/79/88
f 106/80/89 105/72/89 103/76/89
f 106/80/90 111/77/90 108/81/90
f 107/82/91 111/77/91 110/79/91
f 112/83/92 111/77/92 109/84/92
f 105/72/93 107/82/93 104/85/93
f 116/86/94 115/87/94 96/88/94
f 117/89/95 116/86/95 96/90/95
f 114/91/96 117/89/96 113/78/96
f 114/91/97 115/87/97 116/86/97
f 123/92/98 119/93/98 122/94/98
f 118/95/99 123/92/99 121/96/99
f 129/97/100 131/98/100 132/99/100
f 123/92/101 124/100/101 121/96/101
f 129/97/102 124/100/102 126/101/102
f 125/102/103 129/97/103 126/101/103
f 129/97/104 130/103/104 127/104/104
f 123/92/105 125/102/105 126/101/105
f 134/105/106 96/106/106 133/107/106
f 135/108/107 96/109/107 134/105/107
f 135/108/108 132/99/108 131/98/108
f 132/99/109 133/107/109 130/103/109
f 141/110/110 137/111/110 140/112/110
f 136/113/111 141/110/111 139/114/111
f 147/115/112 149/116/112 150/117/112
f 141/110/113 142/118/113 139/114/113
f 147/115/114 142/118/114 144/119/114
f 143/120/115 147/115/115 144/119/115
f 147/115/116 148/121/116 145/122/116
f 141/110/117 143/120/117 144/119/117
f 152/123/118 96/124/118 151/125/118
f 153/126/119 96/127/119 152/123/119
f 153/126/120 150/117/120 149/116/120
f 150/117/121 151/125/121 148/121/121
f 85/65/122 119/93/122 82/53/122
f 81/55/123 120/128/123 118/95/123
f 82/53/124 120/128/124 83/54/124
f 84/56/125 118/95/125 121/96/125
f 87/60/126 121/96/126 124/100/126
f 88/62/127 122/94/127 85/65/127
f 90/64/128 124/100/128 127/104/128
f 91/59/129 125/102/129 88/62/129
f 93/63/130 127/104/130 130/103/130
f 94/58/131 128/129/131 91/59/131
f 96/130/132 97/67/132 133/107/132
f 99/69/133 131/98/133 94/58/133
f 97/67/134 130/103/134 133/107/134
f 99/69/135 96/131/135 135/108/135
f 104/85/136 137/111/136 101/73/136
f 100/75/137 138/132/137 136/113/137
f 101/73/138 138/132/138 102/74/138
f 103/76/139 136/113/139 139/114/139
f 106/80/140 139/114/140 142/118/140
f 107/82/141 140/112/141 104/85/141
f 109/84/142 142/118/142 145/122/142
f 110/79/143 143/120/143 107/82/143
f 112/83/144 145/122/144 148/121/144
f 113/78/145 146/133/145 110/79/145
f 96/134/146 115/87/146 151/125/146
f 117/89/147 149/116/147 113/78/147
f 115/87/148 148/121/148 151/125/148
f 117/89/149 96/135/149 153/126/149
f 159/136/150 155/137/150 156/138/150
f 159/136/151 154/137/151 157/139/151
f 165/140/152 167/141/152 164/142/152
f 160/143/153 159/136/153 157/139/153
f 160/143/154 165/140/154 162/144/154
f 161/145/155 165/140/155 164/142/155
f 166/146/156 165/140/156 163/147/156
f 159/136/157 161/145/157 158/148/157
f 170/149/158 169/150/158 96/151/158
f 171/152/159 170/149/159 96/153/159
f 168/154/160 171/152/160 167/141/160
f 168/154/161 169/150/161 170/149/161
f 177/155/162 173/156/162 174/157/162
f 177/155/163 172/156/163 175/158/163
f 183/159/164 185/160/164 182/161/164
f 178/162/165 177/155/165 175/158/165
f 178/162/166 183/159/166 180/163/166
f 179/164/167 183/159/167 182/161/167
f 184/165/168 183/159/168 181/166/168
f 177/155/169 179/164/169 176/158/169
f 188/167/170 187/168/170 96/169/170
f 189/170/171 188/167/171 96/171/171
f 186/172/172 189/170/172 185/160/172
f 186/172/173 187/168/173 188/167/173
f 195/173/174 191/174/174 194/175/174
f 190/174/175 195/173/175 193/176/175
f 201/177/176 203/178/176 204/179/176
f 195/173/177 196/180/177 193/176/177
f 201/177/178 196/180/178 198/181/178
f 197/182/179 201/177/179 198/181/179
f 201/177/180 202/183/180 199/184/180
f 195/173/181 197/182/181 198/181/181
f 206/185/182 96/186/182 205/187/182
f 207/188/183 96/189/183 206/185/183
f 207/188/184 204/179/184 203/178/184
f 204/179/185 205/187/185 202/183/185
f 213/190/186 209/191/186 212/192/186
f 208/191/187 213/190/187 211/193/187
f 219/194/188 221/195/188 222/196/188
f 213/190/189 214/197/189 211/193/189
f 219/194/190 214/197/190 216/198/190
f 215/199/191 219/194/191 216/198/191
f 219/194/192 220/200/192 217/201/192
f 213/190/193 215/199/193 216/198/193
f 224/202/194 96/203/194 223/204/194
f 225/205/195 96/206/195 224/202/195
f 225/205/196 222/196/196 221/195/196
f 222/196/197 223/204/197 220/200/197
f 158/148/198 191/174/198 155/137/198
f 154/137/199 192/207/199 190/174/199
f 155/137/200 192/207/200 156/138/200
f 157/139/201 190/174/201 193/176/201
f 157/139/202 196/180/202 160/143/202
f 158/148/203 197/182/203 194/175/203
f 163/147/204 196/180/204 199/184/204
f 164/142/205 197/182/205 161/145/205
f 166/146/206 199/184/206 202/183/206
f 167/141/207 200/208/207 164/142/207
f 96/209/208 169/150/208 205/187/208
f 171/152/209 203/178/209 167/141/209
f 169/150/210 202/183/210 205/187/210
f 171/152/211 96/210/211 207/188/211
f 176/158/212 209/191/212 173/156/212
f 172/156/213 210/211/213 208/191/213
f 173/156/214 210/211/214 174/157/214
f 175/158/215 208/191/215 211/193/215
f 178/162/216 211/193/216 214/197/216
f 179/164/217 212/192/217 176/158/217
f 181/166/218 214/197/218 217/201/218
f 182/161/219 215/199/219 179/164/219
f 184/165/220 217/201/220 220/200/220
f 185/160/221 218/212/221 182/161/221
f 96/213/222 187/168/222 223/204/222
f 189/170/223 221/195/223 185/160/223
f 187/168/224 220/200/224 223/204/224
f 189/170/225 96/214/225 225/205/225
f 25/16/226 50/18/226 26/16/226
f 14/1/1 24/8/1 17/2/1
f 13/4/2 22/9/2 23/5/2
f 20/5/3 21/9/3 10/4/3
f 18/2/4 19/8/4 9/1/4
f 16/3/5 15/3/5 2/7/5
f 12/6/6 23/5/6 24/8/6
f 10/4/7 21/9/7 22/9/7
f 9/1/8 19/8/8 20/5/8
f 3/10/9 9/1/9 11/6/9
f 7/11/10 12/6/10 14/1/10
f 11/6/11 10/4/11 5/12/11
f 14/1/12 16/3/12 1/7/12
f 5/12/13 10/4/13 13/4/13
f 2/7/14 15/3/14 9/1/14
f 13/4/15 12/6/15 7/11/15
f 24/8/16 23/5/16 31/13/16
f 22/9/17 21/9/17 29/15/17
f 19/8/18 27/14/18 28/13/18
f 17/2/19 25/16/19 26/16/19
f 24/8/20 32/14/20 25/16/20
f 23/5/21 22/9/21 30/15/21
f 21/9/22 20/5/22 28/13/22
f 18/2/23 26/16/23 27/14/23
f 51/17/24 52/19/24 28/13/24
f 32/14/25 56/17/25 49/18/25
f 30/15/26 54/23/26 55/19/26
f 52/19/27 53/23/27 29/15/27
f 26/16/28 50/18/28 51/17/28
f 75/22/227 74/51/227 79/20/227
f 74/51/29 73/48/29 79/20/29
f 73/48/228 80/215/228 79/20/228
f 79/20/29 78/49/29 77/21/29
f 77/21/29 76/50/29 75/22/29
f 55/19/30 56/17/30 32/14/30
f 53/23/31 54/23/31 30/15/31
f 8/10/32 40/26/32 39/24/32
f 5/12/33 6/12/33 38/25/33
f 4/11/34 36/24/34 35/26/34
f 2/7/35 34/27/35 33/27/35
f 1/7/36 33/27/36 40/26/36
f 6/12/37 7/11/37 39/24/37
f 4/11/38 5/12/38 37/25/38
f 3/10/39 35/26/39 34/27/39
f 35/26/40 36/24/40 44/28/40
f 33/27/41 34/27/41 42/30/41
f 33/27/42 41/30/42 48/29/42
f 38/25/43 39/24/43 47/28/43
f 36/24/44 37/25/44 45/31/44
f 35/26/45 43/29/45 42/30/45
f 40/26/46 48/29/46 47/28/46
f 38/25/47 46/31/47 45/31/47
f 41/30/48 42/30/48 43/29/48
f 43/29/48 44/28/48 45/31/48
f 45/31/48 46/31/48 47/28/48
f 47/28/48 48/29/48 41/30/48
f 41/30/48 43/29/48 47/28/48
f 50/18/229 49/18/229 57/32/229
f 49/18/230 56/17/230 64/34/230
f 54/23/231 62/38/231 63/35/231
f 52/19/232 60/39/232 61/36/232
f 51/17/233 50/18/233 58/33/233
f 55/19/54 63/35/54 64/34/54
f 53/23/234 61/36/234 62/38/234
f 52/19/56 51/17/56 59/37/56
f 63/35/57 71/45/57 72/40/57
f 61/36/235 69/46/235 70/41/235
f 59/37/59 67/47/59 68/42/59
f 58/33/236 57/32/236 65/43/236
f 57/32/237 64/34/237 72/40/237
f 62/38/238 70/41/238 71/45/238
f 60/39/239 68/42/239 69/46/239
f 59/37/240 58/33/240 66/44/240
f 75/22/65 76/50/65 68/42/65
f 72/40/241 80/215/241 73/48/241
f 78/49/242 79/20/242 71/45/242
f 76/50/243 77/21/243 69/46/243
f 66/44/244 74/51/244 75/22/244
f 79/20/70 80/215/70 72/40/70
f 77/21/245 78/49/245 70/41/245
f 65/43/246 73/48/246 74/51/246
f 17/2/73 18/2/73 15/3/73
f 86/52/247 85/65/247 82/53/247
f 86/52/248 83/54/248 81/55/248
f 92/57/249 95/71/249 94/58/249
f 87/60/250 89/61/250 86/52/250
f 87/60/251 90/64/251 92/57/251
f 88/62/252 89/61/252 92/57/252
f 93/63/253 95/71/253 92/57/253
f 86/52/254 89/61/254 88/62/254
f 95/71/255 98/66/255 99/69/255
f 95/71/256 93/63/256 97/67/256
f 105/72/257 104/85/257 101/73/257
f 105/72/258 102/74/258 100/75/258
f 111/77/259 114/91/259 113/78/259
f 106/80/260 108/81/260 105/72/260
f 106/80/261 109/84/261 111/77/261
f 107/82/262 108/81/262 111/77/262
f 112/83/263 114/91/263 111/77/263
f 105/72/264 108/81/264 107/82/264
f 114/91/265 116/86/265 117/89/265
f 114/91/266 112/83/266 115/87/266
f 123/92/267 120/128/267 119/93/267
f 118/95/268 120/128/268 123/92/268
f 129/97/269 128/129/269 131/98/269
f 123/92/270 126/101/270 124/100/270
f 129/97/271 127/104/271 124/100/271
f 125/102/272 128/129/272 129/97/272
f 129/97/273 132/99/273 130/103/273
f 123/92/274 122/94/274 125/102/274
f 135/108/275 134/105/275 132/99/275
f 132/99/276 134/105/276 133/107/276
f 141/110/277 138/132/277 137/111/277
f 136/113/278 138/132/278 141/110/278
f 147/115/279 146/133/279 149/116/279
f 141/110/280 144/119/280 142/118/280
f 147/115/281 145/122/281 142/118/281
f 143/120/282 146/133/282 147/115/282
f 147/115/283 150/117/283 148/121/283
f 141/110/284 140/112/284 143/120/284
f 153/126/285 152/123/285 150/117/285
f 150/117/286 152/123/286 151/125/286
f 85/65/287 122/94/287 119/93/287
f 81/55/288 83/54/288 120/128/288
f 82/53/289 119/93/289 120/128/289
f 84/56/290 81/55/290 118/95/290
f 87/60/291 84/56/291 121/96/291
f 88/62/292 125/102/292 122/94/292
f 90/64/293 87/60/293 124/100/293
f 91/59/294 128/129/294 125/102/294
f 93/63/295 90/64/295 127/104/295
f 94/58/296 131/98/296 128/129/296
f 99/69/297 135/108/297 131/98/297
f 97/67/298 93/63/298 130/103/298
f 104/85/299 140/112/299 137/111/299
f 100/75/300 102/74/300 138/132/300
f 101/73/301 137/111/301 138/132/301
f 103/76/302 100/75/302 136/113/302
f 106/80/303 103/76/303 139/114/303
f 107/82/304 143/120/304 140/112/304
f 109/84/305 106/80/305 142/118/305
f 110/79/306 146/133/306 143/120/306
f 112/83/307 109/84/307 145/122/307
f 113/78/308 149/116/308 146/133/308
f 117/89/309 153/126/309 149/116/309
f 115/87/310 112/83/310 148/121/310
f 159/136/311 158/148/311 155/137/311
f 159/136/312 156/138/312 154/137/312
f 165/140/313 168/154/313 167/141/313
f 160/143/314 162/144/314 159/136/314
f 160/143/315 163/147/315 165/140/315
f 161/145/316 162/144/316 165/140/316
f 166/146/317 168/154/317 165/140/317
f 159/136/318 162/144/318 161/145/318
f 168/154/319 170/149/319 171/152/319
f 168/154/320 166/146/320 169/150/320
f 177/155/321 176/158/321 173/156/321
f 177/155/322 174/157/322 172/156/322
f 183/159/323 186/172/323 185/160/323
f 178/162/324 180/163/324 177/155/324
f 178/162/325 181/166/325 183/159/325
f 179/164/326 180/163/326 183/159/326
f 184/165/327 186/172/327 183/159/327
f 177/155/328 180/163/328 179/164/328
f 186/172/329 188/167/329 189/170/329
f 186/172/330 184/165/330 187/168/330
f 195/173/331 192/207/331 191/174/331
f 190/174/332 192/207/332 195/173/332
f 201/177/333 200/208/333 203/178/333
f 195/173/334 198/181/334 196/180/334
f 201/177/335 199/184/335 196/180/335
f 197/182/336 200/208/336 201/177/336
f 201/177/337 204/179/337 202/183/337
f 195/173/338 194/175/338 197/182/338
f 207/188/339 206/185/339 204/179/339
f 204/179/340 206/185/340 205/187/340
f 213/190/341 210/211/341 209/191/341
f 208/191/342 210/211/342 213/190/342
f 219/194/343 218/212/343 221/195/343
f 213/190/344 216/198/344 214/197/344
f 219/194/345 217/201/345 214/197/345
f 215/199/346 218/212/346 219/194/346
f 219/194/347 222/196/347 220/200/347
f 213/190/348 212/192/348 215/199/348
f 225/205/349 224/202/349 222/196/349
f 222/196/350 224/202/350 223/204/350
f 158/148/351 194/175/351 191/174/351
f 154/137/352 156/138/352 192/207/352
f 155/137/353 191/174/353 192/207/353
f 157/139/354 154/137/354 190/174/354
f 157/139/355 193/176/355 196/180/355
f 158/148/356 161/145/356 197/182/356
f 163/147/357 160/143/357 196/180/357
f 164/142/358 200/208/358 197/182/358
f 166/146/359 163/147/359 199/184/359
f 167/141/360 203/178/360 200/208/360
f 171/152/361 207/188/361 203/178/361
f 169/150/362 166/146/362 202/183/362
f 176/158/363 212/192/363 209/191/363
f 172/156/364 174/157/364 210/211/364
f 173/156/365 209/191/365 210/211/365
f 175/158/366 172/156/366 208/191/366
f 178/162/367 175/158/367 211/193/367
f 179/164/368 215/199/368 212/192/368
f 181/166/369 178/162/369 214/197/369
f 182/161/370 218/212/370 215/199/370
f 184/165/371 181/166/371 217/201/371
f 185/160/372 221/195/372 218/212/372
f 189/170/373 225/205/373 221/195/373
f 187/168/374 184/165/374 220/200/374
f 25/16/226 49/18/226 50/18/226
