# Blender 4.4.0
# www.blender.org
mtllib Crop_Cauliflower_STAGE_2_01.mtl
o Crop_Cauliflower_STAGE_2_01
v -0.020733 0.019548 -0.049589
v 0.031887 0.022277 -0.058143
v -0.032529 0.098761 -0.149497
v 0.042483 0.095655 -0.152746
v 0.004719 0.021451 -0.056299
v 0.004585 0.085505 -0.176186
v -0.045603 0.055674 -0.096958
v 0.055846 0.069859 -0.098972
v 0.004821 0.058038 -0.110816
v -0.015450 0.000648 -0.025305
v 0.020896 0.000329 -0.028923
v 0.002407 0.000666 -0.026911
v 0.030827 0.022874 0.057189
v -0.023505 0.025088 0.054766
v 0.041886 0.097662 0.150412
v -0.032827 0.103731 0.150236
v 0.003890 0.023068 0.057242
v 0.004576 0.087383 0.176592
v 0.053925 0.065329 0.097992
v -0.046204 0.076792 0.094089
v 0.004244 0.065785 0.110446
v 0.018608 -0.000152 0.031376
v -0.012346 -0.000392 0.026538
v 0.003953 -0.000080 0.030767
v 0.049253 0.016199 -0.021690
v 0.050498 0.024039 0.023860
v 0.153336 0.093111 -0.036697
v 0.156314 0.098451 0.038463
v 0.051682 0.015028 -0.000653
v 0.180557 0.086585 0.001121
v 0.097697 0.036378 -0.046063
v 0.103624 0.076814 0.051716
v 0.114899 0.051467 0.001031
v 0.030780 -0.005324 -0.015424
v 0.031760 0.002352 0.015710
v 0.032091 -0.002941 -0.000358
v 0.044432 0.033328 -0.080655
v 0.101553 0.047909 -0.020662
v 0.118282 0.117295 -0.164913
v 0.189823 0.120206 -0.077659
v 0.074467 0.038708 -0.056333
v 0.187875 0.115525 -0.149931
v 0.071076 0.086506 -0.136106
v 0.152110 0.097842 -0.037141
v 0.123534 0.079087 -0.096354
v 0.015598 0.000328 -0.035514
v 0.030397 0.002518 -0.002842
v 0.021112 0.001288 -0.021572
v 0.088521 0.040833 0.024805
v 0.036088 0.049485 0.085121
v 0.175333 0.123964 0.085953
v 0.102755 0.129122 0.164478
v 0.063902 0.042762 0.055639
v 0.167238 0.131495 0.148707
v 0.144179 0.087886 0.046024
v 0.060458 0.114790 0.136122
v 0.111046 0.086181 0.099316
v 0.043735 0.005096 0.006228
v 0.015767 0.004107 0.033300
v 0.029822 0.003859 0.018961
v -0.018536 0.002081 0.025546
v -0.030330 0.002571 0.010950
v -0.004067 0.000945 0.037711
v -0.093075 0.080959 0.108475
v -0.130445 0.088488 0.058018
v -0.039462 0.085981 0.141276
v -0.149217 0.129862 0.165722
v -0.049587 0.040741 0.060441
v -0.158045 0.122947 0.100518
v -0.079179 0.122797 0.172937
v -0.072063 0.045140 0.032491
v -0.021179 0.037191 0.083196
v -0.026442 0.000186 0.000888
v -0.023254 -0.000157 -0.016183
v -0.026865 -0.000003 0.021017
v -0.107115 0.049516 0.001040
v -0.094441 0.070889 -0.049733
v -0.090176 0.056021 0.050317
v -0.171405 0.085304 0.001121
v -0.049580 0.021463 0.000903
v -0.147149 0.097698 -0.036296
v -0.147056 0.091029 0.038453
v -0.045090 0.024000 -0.021831
v -0.047040 0.021926 0.026852
v -0.020732 0.001507 -0.022304
v -0.005220 0.009924 -0.037016
v -0.035973 0.000747 -0.006551
v -0.101312 0.079835 -0.098108
v -0.050520 0.086027 -0.135031
v -0.134826 0.075901 -0.045090
v -0.160498 0.129862 -0.146196
v -0.054074 0.035424 -0.057317
v -0.092636 0.122722 -0.163246
v -0.165503 0.123268 -0.084900
v -0.024539 0.049458 -0.079628
v -0.080832 0.035648 -0.027811
v -0.020866 0.018712 -0.050567
v 0.032103 0.021382 -0.059221
v -0.032962 0.097704 -0.150173
v 0.043093 0.094567 -0.153327
v 0.004720 0.020655 -0.057313
v 0.004677 0.084232 -0.176942
v -0.045905 0.054707 -0.097854
v 0.056376 0.068831 -0.099860
v 0.004914 0.056880 -0.111803
v -0.015525 -0.000035 -0.026233
v 0.020865 -0.000371 -0.029881
v 0.002349 -0.000048 -0.027858
v 0.030944 0.022175 0.058241
v -0.023870 0.024392 0.055793
v 0.042310 0.096535 0.150931
v -0.033465 0.102668 0.150693
v 0.003765 0.022526 0.058253
v 0.004437 0.086080 0.177171
v 0.054243 0.064378 0.098871
v -0.046778 0.075889 0.094890
v 0.004098 0.064745 0.111291
v 0.018602 -0.000721 0.032378
v -0.012583 -0.000964 0.027510
v 0.003824 -0.000586 0.031752
v 0.050146 0.015421 -0.021637
v 0.051377 0.023291 0.024416
v 0.154174 0.092151 -0.036997
v 0.156856 0.097472 0.039196
v 0.052645 0.014169 -0.000381
v 0.181372 0.085422 0.001402
v 0.098671 0.035387 -0.046157
v 0.104346 0.075876 0.052448
v 0.115811 0.050392 0.001340
v 0.031714 -0.006042 -0.015377
v 0.032693 0.001725 0.016093
v 0.033045 -0.003636 -0.000161
v 0.045061 0.032361 -0.081464
v 0.102491 0.046941 -0.021073
v 0.118407 0.116177 -0.165613
v 0.190535 0.119092 -0.077650
v 0.075252 0.037524 -0.056954
v 0.188344 0.114262 -0.150319
v 0.071374 0.085421 -0.136893
v 0.152943 0.096754 -0.037299
v 0.124157 0.077632 -0.096871
v 0.016308 -0.000527 -0.036178
v 0.031197 0.001827 -0.003302
v 0.021877 0.000456 -0.022131
v 0.089355 0.039953 0.025418
v 0.036579 0.048610 0.086110
v 0.176074 0.122854 0.086183
v 0.102813 0.128012 0.165240
v 0.064596 0.041896 0.056433
v 0.167676 0.130259 0.149248
v 0.144965 0.086861 0.046387
v 0.060630 0.113741 0.137003
v 0.111590 0.084941 0.100006
v 0.044493 0.004461 0.006904
v 0.016424 0.003519 0.034087
v 0.030532 0.003241 0.019696
v -0.019327 0.001497 0.026232
v -0.031200 0.002010 0.011543
v -0.004764 0.000357 0.038476
v -0.093670 0.079788 0.109063
v -0.131225 0.087400 0.058309
v -0.039796 0.084911 0.142067
v -0.149724 0.128695 0.166253
v -0.050350 0.039913 0.061107
v -0.158786 0.121869 0.100743
v -0.079376 0.121727 0.173699
v -0.072951 0.044253 0.032987
v -0.021803 0.036316 0.084032
v -0.027468 -0.000431 0.000771
v -0.024250 -0.000742 -0.016446
v -0.027885 -0.000603 0.021061
v -0.108049 0.048355 0.000927
v -0.095194 0.069923 -0.050395
v -0.091022 0.055031 0.050768
v -0.172155 0.084038 0.000981
v -0.050596 0.020734 0.000792
v -0.147725 0.096715 -0.036990
v -0.147689 0.089983 0.038966
v -0.046039 0.023244 -0.022258
v -0.048035 0.021158 0.027063
v -0.021340 0.000853 -0.023122
v -0.005606 0.009318 -0.037964
v -0.036714 0.000108 -0.007218
v -0.101890 0.078695 -0.098781
v -0.050805 0.084962 -0.135872
v -0.135608 0.074858 -0.045520
v -0.161062 0.128746 -0.146753
v -0.054667 0.034532 -0.058169
v -0.092918 0.121667 -0.164007
v -0.166271 0.122236 -0.085196
v -0.024868 0.048569 -0.080572
v -0.081629 0.034747 -0.028442
v 0.027983 0.003062 0.018849
v -0.006549 0.003062 0.030069
v -0.027891 0.003062 0.000695
v -0.006549 0.003062 -0.028680
v 0.027983 0.003062 -0.017459
v 0.025116 0.054680 0.068775
v -0.054917 0.054680 0.042770
v -0.054917 0.054680 -0.041381
v 0.025116 0.054680 -0.067386
v 0.074579 0.054680 0.000695
v 0.002995 0.105584 0.000695
v 0.012073 -0.000249 0.028631
v 0.032370 -0.000249 0.000695
v -0.020769 -0.000249 0.017961
v -0.020769 -0.000249 -0.016571
v 0.012073 -0.000249 -0.027242
v 0.060857 0.023590 0.019495
v 0.060857 0.023590 -0.018105
v 0.003071 0.023590 0.058283
v 0.035801 0.023590 0.046444
v -0.054866 0.023590 0.019495
v -0.032765 0.023590 0.049915
v -0.032765 0.023590 -0.048525
v -0.054866 0.023590 -0.018105
v 0.038756 0.023590 -0.048525
v 0.002995 0.023590 -0.060144
v 0.059284 0.061341 0.041591
v -0.018505 0.061341 0.066866
v -0.066582 0.061341 0.000695
v -0.018505 0.061341 -0.065477
v 0.059284 0.061341 -0.040201
v 0.017038 0.092580 0.043915
v 0.048440 0.092580 0.000695
v -0.033770 0.092580 0.027406
v -0.033770 0.092580 -0.026016
v 0.017038 0.092580 -0.042525
vn -0.4380 0.8282 0.3496
vn 0.1432 0.7475 0.6486
vn 0.0903 0.8142 0.5735
vn 0.0126 0.8303 0.5572
vn 0.0923 0.8095 0.5798
vn 0.0168 0.7964 0.6045
vn 0.5365 0.8014 -0.2644
vn -0.1282 0.8307 -0.5418
vn -0.1604 0.7279 -0.6666
vn 0.1134 0.7744 -0.6225
vn 0.0311 0.7525 -0.6579
vn 0.1139 0.7595 -0.6405
vn -0.4064 0.7610 -0.5056
vn -0.7166 0.6964 0.0386
vn -0.3433 0.9348 0.0917
vn -0.4658 0.8231 -0.3250
vn -0.6753 0.7353 -0.0576
vn -0.6700 0.6857 -0.2844
vn -0.5182 0.8542 -0.0414
vn -0.2498 0.8376 0.4859
vn -0.3243 0.7557 0.5690
vn -0.5284 0.8280 0.1876
vn -0.4037 0.8616 0.3079
vn -0.5016 0.8498 0.1617
vn -0.1662 0.8135 -0.5573
vn -0.5289 0.7926 -0.3035
vn -0.5414 0.7809 -0.3116
vn -0.3107 0.8203 -0.4802
vn -0.4517 0.7888 -0.4169
vn -0.3714 0.7658 -0.5250
vn 0.5495 0.8197 -0.1613
vn 0.2724 0.7792 -0.5645
vn 0.5761 0.7402 -0.3467
vn 0.2739 0.7771 -0.5666
vn 0.4449 0.7701 -0.4572
vn 0.4857 0.8348 -0.2592
vn 0.4167 0.7473 0.5176
vn 0.5448 0.7865 -0.2911
vn 0.7221 0.6811 0.1212
vn 0.4973 0.8214 -0.2794
vn 0.6767 0.7359 0.0211
vn 0.4312 0.8834 0.1837
vn 0.2240 0.8000 0.5566
vn 0.5673 0.7133 0.4115
vn 0.1270 0.7552 0.6431
vn 0.4797 0.7991 0.3625
vn 0.3925 0.8186 0.4192
vn 0.1381 0.7457 0.6519
vn 0.3020 -0.8275 -0.4733
vn -0.1464 -0.7462 -0.6494
vn -0.0892 -0.8147 -0.5729
vn -0.0165 -0.8326 -0.5536
vn -0.0907 -0.8113 -0.5775
vn -0.0206 -0.7993 -0.6005
vn -0.3310 -0.8175 0.4713
vn 0.1282 -0.8303 0.5423
vn -0.0098 -0.7823 0.6228
vn -0.1077 -0.7775 0.6196
vn -0.0094 -0.7465 0.6653
vn -0.1083 -0.7613 0.6393
vn 0.4346 -0.7633 0.4781
vn 0.7176 -0.6953 -0.0393
vn 0.3374 -0.9366 -0.0948
vn 0.4635 -0.8237 0.3267
vn 0.7342 -0.6672 -0.1256
vn 0.6663 -0.6881 0.2872
vn 0.5257 -0.8505 0.0190
vn 0.2478 -0.8360 -0.4895
vn 0.4176 -0.8440 -0.3365
vn 0.5290 -0.8284 -0.1842
vn 0.3984 -0.8637 -0.3088
vn 0.5001 -0.8518 -0.1561
vn -0.0796 -0.8368 0.5418
vn 0.5305 -0.7922 0.3018
vn 0.4092 -0.8301 0.3787
vn 0.3095 -0.8219 0.4782
vn 0.4545 -0.7896 0.4123
vn 0.3696 -0.7682 0.5227
vn -0.5456 -0.7879 0.2856
vn -0.2723 -0.7786 0.5654
vn -0.5734 -0.7425 0.3463
vn -0.3909 -0.8498 0.3535
vn -0.4526 -0.7745 0.4420
vn -0.4830 -0.8364 0.2591
vn -0.4946 -0.7501 -0.4391
vn -0.5454 -0.7858 0.2916
vn -0.6603 -0.7213 -0.2091
vn -0.4325 -0.8999 0.0567
vn -0.7200 -0.6892 0.0813
vn -0.4265 -0.8862 -0.1808
vn -0.3063 -0.7750 -0.5527
vn -0.5686 -0.7124 -0.4113
vn -0.1252 -0.7573 -0.6410
vn -0.4314 -0.8157 -0.3854
vn -0.4385 -0.8088 -0.3919
vn -0.1380 -0.7463 -0.6511
vn -0.9227 -0.2217 0.3154
vn 0.8756 0.4828 0.0149
vn -0.3149 0.5996 -0.7358
vn 0.3538 0.4963 -0.7928
vn -0.9559 0.2936 0.0048
vn 0.8585 -0.0000 0.5128
vn -0.9854 -0.0885 0.1455
vn 0.9528 -0.1111 0.2826
vn 0.9307 -0.2482 -0.2686
vn -0.8633 0.5034 -0.0356
vn 0.3993 0.5030 0.7665
vn -0.3960 0.4081 0.8226
vn 0.9443 0.3287 0.0134
vn -0.8350 0.0450 -0.5485
vn 0.9365 -0.3072 -0.1692
vn -0.9363 -0.0261 -0.3502
vn -0.2823 -0.3841 -0.8791
vn -0.0366 0.5857 0.8097
vn 0.6486 0.6757 -0.3503
vn 0.7476 0.5949 0.2952
vn 0.0335 0.1273 -0.9913
vn -0.5858 0.1673 0.7930
vn -0.1021 -0.1963 -0.9752
vn -0.4820 0.0809 0.8724
vn -0.8468 -0.1168 -0.5190
vn 0.5688 0.3699 0.7346
vn 0.1907 0.5361 -0.8223
vn 0.9310 0.3614 -0.0521
vn -0.6394 0.3287 -0.6951
vn 0.2578 0.0573 0.9645
vn -0.7721 -0.1649 -0.6137
vn 0.3039 -0.1074 0.9466
vn 0.4679 -0.1616 -0.8689
vn -0.5980 0.4320 0.6751
vn 0.8273 0.5604 0.0395
vn 0.1988 0.4514 0.8699
vn 0.6469 0.2409 -0.7235
vn -0.9437 0.1080 0.3127
vn 0.5281 -0.2381 -0.8151
vn -0.9134 -0.0568 0.4031
vn -0.4725 -0.0197 -0.8811
vn -0.3819 0.0264 -0.9238
vn 0.7328 0.2412 0.6363
vn -0.0248 0.5834 0.8118
vn -0.6609 0.3123 -0.6824
vn 0.8739 -0.2000 0.4431
vn 0.8066 -0.2755 0.5230
vn -0.9005 0.4275 0.0800
vn 0.3477 0.0897 -0.9333
vn 0.5711 0.1112 -0.8133
vn 0.0435 0.3833 0.9226
vn -0.7051 0.6068 0.3668
vn 0.0669 0.5490 -0.8331
vn 0.3452 -0.1950 0.9180
vn 0.1275 -0.1438 0.9814
vn -0.7920 0.5067 -0.3404
vn 0.9270 0.0518 -0.3714
vn 0.9188 0.0624 -0.3898
vn -0.6547 0.1892 0.7319
vn -0.8018 0.5976 -0.0012
vn 0.6941 0.2900 -0.6589
vn -0.4416 -0.2189 0.8701
vn -0.5478 -0.2109 0.8096
vn -0.1622 0.5049 -0.8478
vn 0.5059 -0.8187 0.2716
vn -0.0936 -0.7896 0.6064
vn -0.5689 -0.8187 0.0777
vn -0.2497 -0.8187 -0.5171
vn 0.4146 -0.8187 -0.3972
vn 0.4702 -0.7667 0.4371
vn -0.1433 -0.7764 0.6138
vn -0.6056 -0.7958 -0.0000
vn -0.1871 -0.7958 -0.5759
vn 0.4899 -0.7958 -0.3560
vn 0.4489 0.5550 0.7003
vn -0.5273 0.5550 0.6434
vn -0.7748 0.5550 -0.3027
vn 0.0484 0.5550 -0.8304
vn 0.8047 0.5550 -0.2106
vn 0.2698 0.9428 -0.1960
vn 0.5578 0.7243 -0.4053
vn 0.4489 0.5550 -0.7003
vn -0.1030 0.9428 -0.3171
vn -0.2131 0.7243 -0.6558
vn -0.5273 0.5550 -0.6434
vn -0.3335 0.9428 -0.0000
vn -0.6895 0.7243 -0.0000
vn -0.7748 0.5550 0.3027
vn -0.1030 0.9428 0.3171
vn -0.2131 0.7243 0.6558
vn 0.0484 0.5550 0.8304
vn 0.2698 0.9428 0.1960
vn 0.5578 0.7243 0.4053
vn 0.8047 0.5550 0.2106
vn 0.9117 -0.1786 -0.3701
vn 0.7727 -0.2964 -0.5614
vn 0.6337 -0.1786 -0.7527
vn -0.0702 -0.1786 -0.9814
vn -0.2951 -0.2964 -0.9083
vn -0.5201 -0.1786 -0.8352
vn -0.9551 -0.1786 -0.2365
vn -0.9551 -0.2964 -0.0000
vn -0.9551 -0.1786 0.2365
vn -0.5201 -0.1786 0.8352
vn -0.2145 -0.3315 0.9187
vn -0.0826 -0.2656 0.9605
vn 0.6291 -0.2991 0.7175
vn 0.6873 -0.3454 0.6390
vn 0.9117 -0.1786 0.3701
vn 0.2827 -0.4038 -0.8701
vn 0.1983 -0.7669 -0.6104
vn -0.1019 -0.8187 -0.5651
vn -0.7401 -0.4038 -0.5377
vn -0.5192 -0.7669 -0.3772
vn -0.5689 -0.8187 -0.0777
vn -0.7401 -0.4038 0.5377
vn -0.5192 -0.7669 0.3772
vn -0.2497 -0.8187 0.5171
vn 0.2970 -0.4876 0.8210
vn 0.2356 -0.7212 0.6514
vn 0.4397 -0.7758 0.4525
vn 0.9148 -0.4038 -0.0000
vn 0.6418 -0.7669 -0.0000
vn 0.5059 -0.8187 -0.2716
vn -0.0000 -1.0000 -0.0000
vn -0.3015 0.8283 0.4723
vn 0.5188 0.7888 0.3296
vn 0.1135 0.8249 0.5538
vn -0.3113 0.7043 0.6381
vn 0.0537 0.7936 0.6060
vn 0.0778 0.8111 0.5798
vn 0.3311 0.8175 -0.4711
vn -0.4315 0.8582 -0.2780
vn 0.0044 0.7797 -0.6261
vn 0.3582 0.6597 -0.6607
vn 0.0041 0.7453 -0.6667
vn 0.1544 0.7440 -0.6501
vn -0.4338 0.7635 -0.4783
vn -0.4237 0.7910 0.4414
vn -0.4952 0.8635 -0.0958
vn -0.4820 0.7361 -0.4753
vn -0.7353 0.6666 0.1220
vn -0.6568 0.7121 -0.2481
vn -0.5236 0.8518 -0.0171
vn -0.0834 0.8677 0.4900
vn -0.4215 0.8431 0.3339
vn -0.6825 0.7240 0.1000
vn -0.6013 0.7775 0.1843
vn -0.4820 0.8569 0.1827
vn 0.0794 0.8370 -0.5414
vn -0.5252 0.8343 -0.1679
vn -0.4111 0.8286 -0.3800
vn -0.1754 0.6458 -0.7431
vn -0.4567 0.7875 -0.4139
vn -0.4314 0.7895 -0.4365
vn 0.5446 0.7885 -0.2857
vn 0.1401 0.8165 -0.5601
vn 0.5138 0.7643 -0.3896
vn 0.3913 0.8485 -0.3562
vn 0.4530 0.7724 -0.4451
vn 0.5043 0.8265 -0.2502
vn 0.4937 0.7506 0.4392
vn 0.4430 0.7967 -0.4111
vn 0.6617 0.7195 0.2110
vn 0.4374 0.8973 -0.0588
vn 0.7223 0.6866 -0.0829
vn 0.4755 0.7620 0.4395
vn 0.3064 0.7758 0.5516
vn 0.5741 0.8078 0.1338
vn 0.1539 0.7789 0.6079
vn 0.4326 0.8147 0.3861
vn 0.4409 0.8066 0.3937
vn 0.2291 0.8583 0.4591
vn 0.4377 -0.8284 -0.3495
vn -0.5172 -0.7898 -0.3298
vn -0.1157 -0.8270 -0.5502
vn 0.3116 -0.7050 -0.6371
vn -0.0553 -0.7968 -0.6017
vn -0.0773 -0.8128 -0.5775
vn -0.5350 -0.8029 0.2628
vn 0.4289 -0.8601 0.2763
vn 0.1595 -0.7290 0.6657
vn -0.3575 -0.6604 0.6603
vn -0.0347 -0.7532 0.6568
vn -0.1507 -0.7452 0.6496
vn 0.4061 -0.7609 0.5060
vn 0.4237 -0.7923 -0.4390
vn 0.4933 -0.8647 0.0952
vn 0.4803 -0.7372 0.4753
vn 0.6716 -0.7386 0.0580
vn 0.6526 -0.7153 0.2501
vn 0.5207 -0.8527 0.0410
vn 0.0840 -0.8661 -0.4927
vn 0.3213 -0.7556 -0.5708
vn 0.6831 -0.7237 -0.0978
vn 0.6007 -0.7781 -0.1837
vn 0.4816 -0.8586 -0.1758
vn 0.1659 -0.8125 0.5588
vn 0.5261 -0.8337 0.1679
vn 0.5422 -0.7812 0.3095
vn 0.1749 -0.6455 0.7434
vn 0.4496 -0.7908 0.4152
vn 0.4286 -0.7916 0.4355
vn -0.5501 -0.8193 0.1615
vn -0.1402 -0.8162 0.5606
vn -0.5127 -0.7660 0.3877
vn -0.2731 -0.7776 0.5664
vn -0.4435 -0.7718 0.4556
vn -0.5041 -0.8270 0.2490
vn -0.4165 -0.7475 -0.5175
vn -0.4433 -0.7970 0.4102
vn -0.7198 -0.6834 -0.1221
vn -0.4946 -0.8231 0.2792
vn -0.6750 -0.7376 -0.0202
vn -0.4734 -0.7634 -0.4394
vn -0.2242 -0.7994 -0.5575
vn -0.5744 -0.8075 -0.1340
vn -0.1517 -0.7808 -0.6061
vn -0.4798 -0.7995 -0.3613
vn -0.3912 -0.8206 -0.4166
vn -0.2276 -0.8590 -0.4586
vn -0.9079 -0.0951 0.4083
vn 0.8885 0.4589 -0.0006
vn -0.4082 0.4443 -0.7975
vn 0.3119 0.5776 -0.7544
vn -0.9357 0.3488 0.0532
vn 0.9254 -0.1795 0.3339
vn -0.9829 -0.0503 0.1770
vn 0.9515 -0.2623 0.1609
vn 0.9012 -0.0894 -0.4240
vn -0.8588 0.5108 -0.0405
vn 0.4810 0.3130 0.8189
vn -0.3209 0.5307 0.7845
vn 0.9361 0.3517 -0.0019
vn -0.9137 -0.1018 -0.3935
vn 0.9417 -0.2223 -0.2526
vn -0.9524 -0.0966 -0.2893
vn -0.3494 -0.2574 -0.9009
vn -0.0419 0.5941 0.8033
vn 0.7717 0.4263 -0.4719
vn 0.7351 0.6169 0.2812
vn -0.0773 0.2358 -0.9687
vn -0.5023 0.0501 0.8632
vn -0.1087 -0.1912 -0.9755
vn -0.3869 -0.0123 0.9220
vn -0.9162 0.0377 -0.3989
vn 0.5862 0.3421 0.7344
vn 0.2089 0.3569 -0.9105
vn 0.8413 0.5376 -0.0575
vn -0.6442 0.3525 -0.6788
vn 0.3536 -0.0539 0.9339
vn -0.8220 -0.0611 -0.5662
vn 0.3549 -0.1977 0.9137
vn 0.3790 -0.0359 -0.9247
vn -0.5970 0.4565 0.6597
vn 0.9280 0.3637 0.0809
vn 0.1767 0.5630 0.8074
vn 0.6276 0.2673 -0.7312
vn -0.8992 -0.0098 0.4375
vn 0.4768 -0.1510 -0.8659
vn -0.8243 -0.2244 0.5198
vn -0.5234 -0.0840 -0.8479
vn -0.4384 -0.0625 -0.8966
vn 0.7463 0.2898 0.5992
vn -0.0525 0.4322 0.9002
vn -0.6708 0.2991 -0.6787
vn 0.9418 -0.0487 0.3327
vn 0.8682 -0.1762 0.4638
vn -0.8180 0.5731 0.0500
vn 0.2535 0.0029 -0.9673
vn 0.4480 -0.0593 -0.8921
vn 0.0625 0.4088 0.9105
vn -0.7915 0.4199 0.4441
vn 0.0567 0.5334 -0.8439
vn 0.4779 -0.0083 0.8784
vn 0.2403 -0.0449 0.9697
vn -0.7349 0.6219 -0.2704
vn 0.9198 0.0277 -0.3913
vn 0.9200 0.0695 -0.3856
vn -0.6109 0.2388 0.7549
vn -0.8871 0.4609 -0.0263
vn 0.7020 0.3162 -0.6382
vn -0.3692 -0.1037 0.9235
vn -0.5106 -0.1425 0.8479
vn -0.1340 0.6033 -0.7862
vn 0.3411 -0.9068 0.2478
vn -0.1303 -0.9068 0.4009
vn -0.4216 -0.9068 -0.0000
vn -0.1303 -0.9068 -0.4009
vn 0.3411 -0.9068 -0.2478
vt 0.220445 0.110325
vt 0.222670 0.127831
vt 0.223914 0.123107
vt 0.222497 0.129276
vt 0.219709 0.109225
vt 0.217551 0.093300
vt 0.217195 0.092414
vt 0.217649 0.093684
vt 0.215992 0.083627
vt 0.216099 0.083470
vt 0.208703 0.113930
vt 0.206591 0.131589
vt 0.205193 0.123981
vt 0.206582 0.128765
vt 0.209364 0.113718
vt 0.211529 0.093962
vt 0.211658 0.094992
vt 0.211526 0.094052
vt 0.212899 0.083246
vt 0.212931 0.083280
vt 0.213156 0.083135
vt 0.214509 0.107267
vt 0.212523 0.129132
vt 0.214504 0.123610
vt 0.216511 0.126647
vt 0.217008 0.100246
vt 0.214598 0.090311
vt 0.215715 0.090855
vt 0.213298 0.094504
vt 0.215382 0.080840
vt 0.214583 0.081949
vt 0.213730 0.084412
vt 0.219677 0.120121
vt 0.218685 0.139255
vt 0.222520 0.137077
vt 0.223315 0.137901
vt 0.221787 0.123573
vt 0.218844 0.098826
vt 0.215660 0.105612
vt 0.217553 0.101330
vt 0.215709 0.083916
vt 0.214715 0.084489
vt 0.209293 0.123422
vt 0.205835 0.143404
vt 0.206672 0.144509
vt 0.210003 0.141004
vt 0.212121 0.124215
vt 0.213248 0.102319
vt 0.210047 0.106345
vt 0.211611 0.103217
vt 0.214233 0.085688
vt 0.213558 0.085113
vt 0.212797 0.085229
vt 0.208807 0.120992
vt 0.209230 0.140531
vt 0.205769 0.143749
vt 0.205386 0.140461
vt 0.207067 0.123329
vt 0.211356 0.102276
vt 0.213983 0.084514
vt 0.212840 0.104323
vt 0.210149 0.100624
vt 0.212563 0.083757
vt 0.213208 0.084286
vt 0.214509 0.106360
vt 0.216490 0.128781
vt 0.214504 0.123014
vt 0.212523 0.125678
vt 0.211894 0.109387
vt 0.215722 0.094486
vt 0.214517 0.083404
vt 0.215423 0.083244
vt 0.213139 0.093521
vt 0.214516 0.093305
vt 0.213449 0.083316
vt 0.219770 0.120469
vt 0.223227 0.140426
vt 0.222322 0.143749
vt 0.219069 0.140680
vt 0.216957 0.118638
vt 0.217606 0.099802
vt 0.216528 0.087936
vt 0.218790 0.106332
vt 0.216040 0.099906
vt 0.214911 0.083665
vt 0.215747 0.084019
vt 0.220497 0.109787
vt 0.222701 0.127324
vt 0.219863 0.115348
vt 0.222533 0.128784
vt 0.219757 0.108775
vt 0.217605 0.092929
vt 0.217247 0.092025
vt 0.217707 0.093267
vt 0.216042 0.083295
vt 0.216150 0.083145
vt 0.208658 0.113447
vt 0.206567 0.131094
vt 0.209528 0.118632
vt 0.206554 0.128240
vt 0.209317 0.113275
vt 0.211473 0.093636
vt 0.211472 0.093800
vt 0.211603 0.094668
vt 0.212846 0.082982
vt 0.213104 0.082868
vt 0.214493 0.106767
vt 0.212484 0.128676
vt 0.211781 0.118626
vt 0.216527 0.126200
vt 0.217013 0.099785
vt 0.214584 0.089911
vt 0.215712 0.090494
vt 0.213268 0.094156
vt 0.215380 0.080506
vt 0.213710 0.084120
vt 0.219705 0.119443
vt 0.218685 0.138737
vt 0.216543 0.128342
vt 0.223353 0.137380
vt 0.221828 0.123068
vt 0.218887 0.098376
vt 0.217586 0.100779
vt 0.215682 0.105161
vt 0.215738 0.083529
vt 0.214739 0.084168
vt 0.209257 0.122845
vt 0.205795 0.142888
vt 0.207293 0.136247
vt 0.209990 0.140488
vt 0.212102 0.123738
vt 0.213215 0.101909
vt 0.211569 0.102814
vt 0.209994 0.105938
vt 0.214197 0.085393
vt 0.212755 0.084955
vt 0.208776 0.120447
vt 0.209218 0.140029
vt 0.211469 0.123989
vt 0.205346 0.139963
vt 0.207025 0.122831
vt 0.213951 0.084253
vt 0.211321 0.101891
vt 0.212813 0.103911
vt 0.210104 0.100217
vt 0.212522 0.083484
vt 0.214515 0.105819
vt 0.216527 0.128324
vt 0.217238 0.115856
vt 0.212496 0.125191
vt 0.211870 0.108926
vt 0.215745 0.094134
vt 0.214523 0.083117
vt 0.214522 0.092966
vt 0.213128 0.093163
vt 0.213446 0.083037
vt 0.219806 0.119938
vt 0.223267 0.139935
vt 0.221774 0.122854
vt 0.219085 0.140200
vt 0.216979 0.118152
vt 0.216579 0.087653
vt 0.217651 0.099387
vt 0.218840 0.105919
vt 0.216073 0.099487
vt 0.214947 0.083368
vt 0.223954 0.122515
vt 0.219816 0.115826
vt 0.215956 0.083301
vt 0.215907 0.083619
vt 0.205162 0.123375
vt 0.209571 0.119053
vt 0.214489 0.123069
vt 0.211819 0.119063
vt 0.222541 0.136489
vt 0.216535 0.128848
vt 0.216484 0.083072
vt 0.216448 0.083470
vt 0.206644 0.143933
vt 0.207340 0.136735
vt 0.211485 0.124495
vt 0.205741 0.143206
vt 0.215437 0.082972
vt 0.217203 0.116306
vt 0.214512 0.122425
vt 0.221730 0.123350
vt 0.222352 0.143229
vt 0.230887 0.209159
vt 0.231851 0.207619
vt 0.230853 0.218712
vt 0.230292 0.209159
vt 0.230368 0.207619
vt 0.228795 0.218712
vt 0.231851 0.209160
vt 0.230935 0.207619
vt 0.230853 0.218712
vt 0.233410 0.209159
vt 0.232767 0.207619
vt 0.234463 0.218712
vt 0.232814 0.209159
vt 0.233333 0.207619
vt 0.229423 0.218712
vt 0.229239 0.218712
vt 0.232849 0.218712
vt 0.235079 0.218712
vt 0.232849 0.218712
vt 0.228238 0.233180
vt 0.229681 0.236280
vt 0.229557 0.250817
vt 0.229618 0.233180
vt 0.228339 0.236280
vt 0.230433 0.250817
vt 0.234084 0.233180
vt 0.231851 0.236280
vt 0.233268 0.250817
vt 0.235464 0.233180
vt 0.235362 0.236280
vt 0.234144 0.250817
vt 0.231851 0.233180
vt 0.234021 0.236280
vt 0.231851 0.250817
vt 0.231851 0.256868
vt 0.212879 0.083045
vt 0.214572 0.081625
vt 0.213519 0.084825
vt 0.213172 0.084014
vt 0.215791 0.083714
s 0
usemtl Texture_Map
f 9/1/1 4/2/1 6/3/1
f 9/1/2 3/4/2 7/5/2
f 5/6/3 7/5/3 1/7/3
f 2/8/4 9/1/4 5/6/4
f 1/7/5 12/9/5 5/6/5
f 5/6/6 11/10/6 2/8/6
f 21/11/7 16/12/7 18/13/7
f 21/11/8 15/14/8 19/15/8
f 13/16/9 21/11/9 19/15/9
f 14/17/10 21/11/10 17/18/10
f 17/18/11 22/19/11 24/20/11
f 17/18/12 23/21/12 14/17/12
f 33/22/13 28/23/13 30/24/13
f 33/22/14 27/25/14 31/26/14
f 29/27/15 31/26/15 25/28/15
f 26/29/16 33/22/16 29/27/16
f 29/27/17 34/30/17 36/31/17
f 29/27/18 35/32/18 26/29/18
f 45/33/19 40/34/19 42/35/19
f 45/33/20 39/36/20 43/37/20
f 37/38/21 45/33/21 43/37/21
f 38/39/22 45/33/22 41/40/22
f 37/38/23 48/41/23 41/40/23
f 41/40/24 47/42/24 38/39/24
f 57/43/25 52/44/25 54/45/25
f 57/43/26 51/46/26 55/47/26
f 49/48/27 57/43/27 55/47/27
f 50/49/28 57/43/28 53/50/28
f 53/50/29 58/51/29 60/52/29
f 53/50/30 59/53/30 50/49/30
f 64/54/31 69/55/31 67/56/31
f 64/54/32 70/57/32 66/58/32
f 68/59/33 62/60/33 71/61/33
f 72/62/34 64/54/34 66/58/34
f 68/59/35 63/63/35 61/64/35
f 71/61/36 64/54/36 68/59/36
f 76/65/37 81/66/37 79/67/37
f 76/65/38 82/68/38 78/69/38
f 83/70/39 73/71/39 74/72/39
f 84/73/40 76/65/40 78/69/40
f 80/74/41 75/75/41 73/71/41
f 83/70/42 76/65/42 80/74/42
f 88/76/43 93/77/43 91/78/43
f 88/76/44 94/79/44 90/80/44
f 92/81/45 86/82/45 95/83/45
f 96/84/46 88/76/46 90/80/46
f 92/81/47 87/85/47 85/86/47
f 95/83/48 88/76/48 92/81/48
f 105/87/49 100/88/49 104/89/49
f 99/90/50 105/87/50 103/91/50
f 103/91/51 101/92/51 97/93/51
f 105/87/52 98/94/52 101/92/52
f 108/95/53 97/93/53 101/92/53
f 107/96/54 101/92/54 98/94/54
f 117/97/55 112/98/55 116/99/55
f 111/100/56 117/97/56 115/101/56
f 109/102/57 117/97/57 113/103/57
f 117/97/58 110/104/58 113/103/58
f 113/103/59 118/105/59 109/102/59
f 119/106/60 113/103/60 110/104/60
f 129/107/61 124/108/61 128/109/61
f 123/110/62 129/107/62 127/111/62
f 127/111/63 125/112/63 121/113/63
f 129/107/64 122/114/64 125/112/64
f 125/112/65 130/115/65 121/113/65
f 131/116/66 125/112/66 122/114/66
f 141/117/67 136/118/67 140/119/67
f 135/120/68 141/117/68 139/121/68
f 133/122/69 141/117/69 137/123/69
f 141/117/70 134/124/70 137/123/70
f 144/125/71 133/122/71 137/123/71
f 143/126/72 137/123/72 134/124/72
f 153/127/73 148/128/73 152/129/73
f 147/130/74 153/127/74 151/131/74
f 145/132/75 153/127/75 149/133/75
f 153/127/76 146/134/76 149/133/76
f 149/133/77 154/135/77 145/132/77
f 155/136/78 149/133/78 146/134/78
f 160/137/79 165/138/79 161/139/79
f 166/140/80 160/137/80 162/141/80
f 158/142/81 164/143/81 167/144/81
f 168/145/82 160/137/82 164/143/82
f 164/143/83 159/146/83 168/145/83
f 160/137/84 167/144/84 164/143/84
f 172/147/85 177/148/85 173/149/85
f 178/150/86 172/147/86 174/151/86
f 179/152/87 169/153/87 176/154/87
f 180/155/88 172/147/88 176/154/88
f 176/154/89 171/156/89 180/155/89
f 172/147/90 179/152/90 176/154/90
f 184/157/91 189/158/91 185/159/91
f 190/160/92 184/157/92 186/161/92
f 182/162/93 188/163/93 191/164/93
f 192/165/94 184/157/94 188/163/94
f 188/163/95 183/166/95 192/165/95
f 184/157/96 191/164/96 188/163/96
f 7/5/97 97/93/97 1/7/97
f 4/2/98 104/89/98 100/88/98
f 6/3/99 99/90/99 3/4/99
f 6/3/100 100/88/100 102/167/100
f 7/5/101 99/90/101 103/91/101
f 8/168/102 98/94/102 104/89/102
f 1/7/103 106/169/103 10/170/103
f 2/8/104 107/96/104 98/94/104
f 19/15/105 109/102/105 13/16/105
f 16/12/106 116/99/106 112/98/106
f 18/13/107 111/100/107 15/14/107
f 18/13/108 112/98/108 114/171/108
f 19/15/109 111/100/109 115/101/109
f 20/172/110 110/104/110 116/99/110
f 13/16/111 118/105/111 22/19/111
f 14/17/112 119/106/112 110/104/112
f 31/26/113 121/113/113 25/28/113
f 28/23/114 128/109/114 124/108/114
f 30/24/115 123/110/115 27/25/115
f 30/24/116 124/108/116 126/173/116
f 31/26/117 123/110/117 127/111/117
f 32/174/118 122/114/118 128/109/118
f 25/28/119 130/115/119 34/30/119
f 26/29/120 131/116/120 122/114/120
f 43/37/121 133/122/121 37/38/121
f 40/34/122 140/119/122 136/118/122
f 42/35/123 135/120/123 39/36/123
f 42/35/124 136/118/124 138/175/124
f 43/37/125 135/120/125 139/121/125
f 38/39/126 140/119/126 44/176/126
f 37/38/127 142/177/127 46/178/127
f 38/39/128 143/126/128 134/124/128
f 55/47/129 145/132/129 49/48/129
f 52/44/130 152/129/130 148/128/130
f 54/45/131 147/130/131 51/46/131
f 54/45/132 148/128/132 150/179/132
f 55/47/133 147/130/133 151/131/133
f 50/49/134 152/129/134 56/180/134
f 49/48/135 154/135/135 58/51/135
f 50/49/136 155/136/136 146/134/136
f 71/61/137 158/142/137 167/144/137
f 65/181/138 167/144/138 161/139/138
f 66/58/139 166/140/139 162/141/139
f 67/56/140 166/140/140 70/57/140
f 65/181/141 165/138/141 69/55/141
f 66/58/142 168/145/142 72/62/142
f 72/62/143 159/146/143 63/63/143
f 67/56/144 165/138/144 163/182/144
f 83/70/145 170/183/145 179/152/145
f 77/184/146 179/152/146 173/149/146
f 82/68/147 174/151/147 78/69/147
f 79/67/148 178/150/148 82/68/148
f 77/184/149 177/148/149 81/66/149
f 78/69/150 180/155/150 84/73/150
f 84/73/151 171/156/151 75/75/151
f 79/67/152 177/148/152 175/185/152
f 95/83/153 182/162/153 191/164/153
f 89/186/154 191/164/154 185/159/154
f 90/80/155 190/160/155 186/161/155
f 91/78/156 190/160/156 94/79/156
f 89/186/157 189/158/157 93/77/157
f 90/80/158 192/165/158 96/84/158
f 96/84/159 183/166/159 87/85/159
f 91/78/160 189/158/160 187/187/160
f 193/188/161 205/189/161 209/190/161
f 194/191/162 204/192/162 211/193/162
f 195/194/163 206/195/163 213/196/163
f 196/197/164 207/198/164 215/199/164
f 197/200/165 208/201/165 217/199/165
f 193/188/166 209/190/166 212/202/166
f 194/191/167 211/193/167 214/203/167
f 195/194/168 213/196/168 216/204/168
f 196/197/169 215/199/169 218/205/169
f 197/200/170 217/199/170 210/206/170
f 198/207/171 219/208/171 224/209/171
f 199/210/172 220/211/172 226/212/172
f 200/213/173 221/214/173 227/215/173
f 201/216/174 222/217/174 228/218/174
f 202/219/175 223/220/175 225/221/175
f 225/221/176 228/218/176 203/222/176
f 225/221/177 223/220/177 228/218/177
f 223/220/178 201/216/178 228/218/178
f 228/218/179 227/215/179 203/222/179
f 228/218/180 222/217/180 227/215/180
f 222/217/181 200/213/181 227/215/181
f 227/215/182 226/212/182 203/222/182
f 227/215/183 221/214/183 226/212/183
f 221/214/184 199/210/184 226/212/184
f 226/212/185 224/209/185 203/222/185
f 226/212/186 220/211/186 224/209/186
f 220/211/187 198/207/187 224/209/187
f 224/209/188 225/221/188 203/222/188
f 224/209/189 219/208/189 225/221/189
f 219/208/190 202/219/190 225/221/190
f 210/206/191 223/220/191 202/219/191
f 210/206/192 217/199/192 223/220/192
f 217/199/193 201/216/193 223/220/193
f 218/205/194 222/217/194 201/216/194
f 218/205/195 215/199/195 222/217/195
f 215/199/196 200/213/196 222/217/196
f 216/204/197 221/214/197 200/213/197
f 216/204/198 213/196/198 221/214/198
f 213/196/199 199/210/199 221/214/199
f 214/203/200 220/211/200 199/210/200
f 214/203/201 211/193/201 220/211/201
f 211/193/202 198/207/202 220/211/202
f 212/202/203 219/208/203 198/207/203
f 212/202/204 209/190/204 219/208/204
f 209/190/205 202/219/205 219/208/205
f 217/199/206 218/205/206 201/216/206
f 217/199/207 208/201/207 218/205/207
f 208/201/208 196/197/208 218/205/208
f 215/199/209 216/204/209 200/213/209
f 215/199/210 207/198/210 216/204/210
f 207/198/211 195/194/211 216/204/211
f 213/196/212 214/203/212 199/210/212
f 213/196/213 206/195/213 214/203/213
f 206/195/214 194/191/214 214/203/214
f 211/193/215 212/202/215 198/207/215
f 211/193/216 204/192/216 212/202/216
f 204/192/217 193/188/217 212/202/217
f 209/190/218 210/206/218 202/219/218
f 209/190/219 205/189/219 210/206/219
f 205/189/220 197/200/220 210/206/220
f 205/189/221 206/195/221 207/198/221
f 9/1/222 8/168/222 4/2/222
f 9/1/223 6/3/223 3/4/223
f 5/6/224 9/1/224 7/5/224
f 2/8/225 8/168/225 9/1/225
f 1/7/226 10/170/226 12/9/226
f 5/6/227 12/9/227 11/10/227
f 21/11/228 20/172/228 16/12/228
f 21/11/229 18/13/229 15/14/229
f 13/16/230 17/18/230 21/11/230
f 14/17/231 20/172/231 21/11/231
f 17/18/232 13/16/232 22/19/232
f 17/18/233 24/20/233 23/21/233
f 33/22/234 32/174/234 28/23/234
f 33/22/235 30/24/235 27/25/235
f 29/27/236 33/22/236 31/26/236
f 26/29/237 32/174/237 33/22/237
f 29/27/238 25/28/238 34/30/238
f 29/27/239 36/31/239 35/32/239
f 45/33/240 44/176/240 40/34/240
f 45/33/241 42/35/241 39/36/241
f 37/38/242 41/40/242 45/33/242
f 38/39/243 44/176/243 45/33/243
f 37/38/244 46/178/244 48/41/244
f 41/40/245 48/41/245 47/42/245
f 57/43/246 56/180/246 52/44/246
f 57/43/247 54/45/247 51/46/247
f 49/48/248 53/50/248 57/43/248
f 50/49/249 56/180/249 57/43/249
f 53/50/250 49/48/250 58/51/250
f 53/50/251 60/52/251 59/53/251
f 64/54/252 65/181/252 69/55/252
f 64/54/253 67/56/253 70/57/253
f 68/59/254 61/64/254 62/60/254
f 72/62/255 68/59/255 64/54/255
f 68/59/256 72/62/256 63/63/256
f 71/61/257 65/181/257 64/54/257
f 76/65/258 77/184/258 81/66/258
f 76/65/259 79/67/259 82/68/259
f 83/70/260 80/74/260 73/71/260
f 84/73/261 80/74/261 76/65/261
f 80/74/262 84/73/262 75/75/262
f 83/70/263 77/184/263 76/65/263
f 88/76/264 89/186/264 93/77/264
f 88/76/265 91/78/265 94/79/265
f 92/81/266 85/86/266 86/82/266
f 96/84/267 92/81/267 88/76/267
f 92/81/268 96/84/268 87/85/268
f 95/83/269 89/186/269 88/76/269
f 105/87/270 102/167/270 100/88/270
f 99/90/271 102/167/271 105/87/271
f 103/91/272 105/87/272 101/92/272
f 105/87/273 104/89/273 98/94/273
f 108/95/274 106/169/274 97/93/274
f 107/96/275 108/95/275 101/92/275
f 117/97/276 114/171/276 112/98/276
f 111/100/277 114/171/277 117/97/277
f 109/102/278 115/101/278 117/97/278
f 117/97/279 116/99/279 110/104/279
f 113/103/280 120/223/280 118/105/280
f 119/106/281 120/223/281 113/103/281
f 129/107/282 126/173/282 124/108/282
f 123/110/283 126/173/283 129/107/283
f 127/111/284 129/107/284 125/112/284
f 129/107/285 128/109/285 122/114/285
f 125/112/286 132/224/286 130/115/286
f 131/116/287 132/224/287 125/112/287
f 141/117/288 138/175/288 136/118/288
f 135/120/289 138/175/289 141/117/289
f 133/122/290 139/121/290 141/117/290
f 141/117/291 140/119/291 134/124/291
f 144/125/292 142/177/292 133/122/292
f 143/126/293 144/125/293 137/123/293
f 153/127/294 150/179/294 148/128/294
f 147/130/295 150/179/295 153/127/295
f 145/132/296 151/131/296 153/127/296
f 153/127/297 152/129/297 146/134/297
f 149/133/298 156/225/298 154/135/298
f 155/136/299 156/225/299 149/133/299
f 160/137/300 163/182/300 165/138/300
f 166/140/301 163/182/301 160/137/301
f 158/142/302 157/226/302 164/143/302
f 168/145/303 162/141/303 160/137/303
f 164/143/304 157/226/304 159/146/304
f 160/137/305 161/139/305 167/144/305
f 172/147/306 175/185/306 177/148/306
f 178/150/307 175/185/307 172/147/307
f 179/152/308 170/183/308 169/153/308
f 180/155/309 174/151/309 172/147/309
f 176/154/310 169/153/310 171/156/310
f 172/147/311 173/149/311 179/152/311
f 184/157/312 187/187/312 189/158/312
f 190/160/313 187/187/313 184/157/313
f 182/162/314 181/227/314 188/163/314
f 192/165/315 186/161/315 184/157/315
f 188/163/316 181/227/316 183/166/316
f 184/157/317 185/159/317 191/164/317
f 7/5/318 103/91/318 97/93/318
f 4/2/319 8/168/319 104/89/319
f 6/3/320 102/167/320 99/90/320
f 6/3/321 4/2/321 100/88/321
f 7/5/322 3/4/322 99/90/322
f 8/168/323 2/8/323 98/94/323
f 1/7/324 97/93/324 106/169/324
f 2/8/325 11/10/325 107/96/325
f 19/15/326 115/101/326 109/102/326
f 16/12/327 20/172/327 116/99/327
f 18/13/328 114/171/328 111/100/328
f 18/13/329 16/12/329 112/98/329
f 19/15/330 15/14/330 111/100/330
f 20/172/331 14/17/331 110/104/331
f 13/16/332 109/102/332 118/105/332
f 14/17/333 23/21/333 119/106/333
f 31/26/334 127/111/334 121/113/334
f 28/23/335 32/174/335 128/109/335
f 30/24/336 126/173/336 123/110/336
f 30/24/337 28/23/337 124/108/337
f 31/26/338 27/25/338 123/110/338
f 32/174/339 26/29/339 122/114/339
f 25/28/340 121/113/340 130/115/340
f 26/29/341 35/32/341 131/116/341
f 43/37/342 139/121/342 133/122/342
f 40/34/343 44/176/343 140/119/343
f 42/35/344 138/175/344 135/120/344
f 42/35/345 40/34/345 136/118/345
f 43/37/346 39/36/346 135/120/346
f 38/39/347 134/124/347 140/119/347
f 37/38/348 133/122/348 142/177/348
f 38/39/349 47/42/349 143/126/349
f 55/47/350 151/131/350 145/132/350
f 52/44/351 56/180/351 152/129/351
f 54/45/352 150/179/352 147/130/352
f 54/45/353 52/44/353 148/128/353
f 55/47/354 51/46/354 147/130/354
f 50/49/355 146/134/355 152/129/355
f 49/48/356 145/132/356 154/135/356
f 50/49/357 59/53/357 155/136/357
f 71/61/358 62/60/358 158/142/358
f 65/181/359 71/61/359 167/144/359
f 66/58/360 70/57/360 166/140/360
f 67/56/361 163/182/361 166/140/361
f 65/181/362 161/139/362 165/138/362
f 66/58/363 162/141/363 168/145/363
f 72/62/364 168/145/364 159/146/364
f 67/56/365 69/55/365 165/138/365
f 83/70/366 74/72/366 170/183/366
f 77/184/367 83/70/367 179/152/367
f 82/68/368 178/150/368 174/151/368
f 79/67/369 175/185/369 178/150/369
f 77/184/370 173/149/370 177/148/370
f 78/69/371 174/151/371 180/155/371
f 84/73/372 180/155/372 171/156/372
f 79/67/373 81/66/373 177/148/373
f 95/83/374 86/82/374 182/162/374
f 89/186/375 95/83/375 191/164/375
f 90/80/376 94/79/376 190/160/376
f 91/78/377 187/187/377 190/160/377
f 89/186/378 185/159/378 189/158/378
f 90/80/379 186/161/379 192/165/379
f 96/84/380 192/165/380 183/166/380
f 91/78/381 93/77/381 189/158/381
f 193/188/382 204/192/382 205/189/382
f 204/192/383 194/191/383 206/195/383
f 206/195/384 195/194/384 207/198/384
f 207/198/385 196/197/385 208/201/385
f 205/189/386 208/201/386 197/200/386
f 207/198/221 208/201/221 205/189/221
f 204/192/221 206/195/221 205/189/221
