# Blender 4.4.0
# www.blender.org
mtllib Crop_Potato_STAGE_3_01.mtl
o Crop_Potato_STAGE_3_01
v -0.036417 0.000363 -0.000000
v -0.000000 0.000000 0.036425
v 0.036417 -0.000363 0.000000
v 0.000000 -0.000000 -0.036425
v -0.017230 0.484293 0.002379
v -0.006768 0.289562 0.022554
v 0.013648 0.289555 0.002139
v -0.006768 0.289562 -0.018278
v 0.003938 0.479919 0.022554
v 0.024352 0.480169 0.002139
v 0.003938 0.479919 -0.018277
v -0.031487 0.654580 0.002138
v -0.011133 0.656040 0.022554
v 0.009221 0.657500 0.002139
v -0.011133 0.656040 -0.018277
v 0.007900 0.295887 0.002138
v -0.006768 0.289562 -0.014075
v -0.021436 0.283236 0.002138
v -0.006768 0.289562 0.018352
v -0.091384 0.479159 0.002138
v -0.103419 0.477921 -0.009050
v -0.116929 0.479553 0.002138
v -0.106293 0.482318 0.012995
v -0.078530 0.475838 0.007029
v -0.109316 0.475277 -0.019245
v -0.133991 0.465547 0.089405
v -0.181716 0.465605 0.048062
v -0.092485 0.480013 -0.004834
v -0.105369 0.471004 0.077303
v -0.173499 0.470831 0.017033
v -0.169213 0.475318 0.085151
v -0.079581 0.476423 0.040197
v -0.141451 0.476301 -0.013243
v -0.114210 0.485161 0.017650
v -0.111591 0.463843 0.009753
v -0.075286 0.463858 -0.008475
v -0.143244 0.455945 -0.079973
v -0.095542 0.469095 0.001439
v -0.094930 0.458152 -0.088417
v -0.165665 0.461257 -0.041881
v -0.080176 0.462047 -0.072069
v -0.131224 0.463953 -0.074573
v -0.141828 0.465141 -0.004347
v -0.068392 0.465261 -0.040390
v -0.107460 0.472691 -0.027308
v -0.070302 0.456626 -0.001894
v -0.107423 0.456642 0.014607
v -0.086738 0.461860 0.005659
v -0.062686 0.445531 0.103358
v -0.018585 0.453718 0.052647
v -0.102374 0.453665 0.088079
v -0.054654 0.455020 0.083262
v -0.040576 0.458101 0.013763
v -0.115829 0.458116 0.046284
v -0.076171 0.465442 0.034932
v 0.014398 0.428377 0.007175
v 0.013475 0.426661 0.031085
v 0.025650 0.427302 0.007443
v 0.007555 0.428029 0.029063
v 0.005393 0.428733 0.017959
v -0.016847 0.256294 0.009491
v -0.018484 0.256321 -0.003834
v -0.042256 0.267529 -0.010817
v -0.018119 0.256215 0.002999
v -0.024963 0.260415 0.017683
v -0.026819 0.260108 -0.010433
v -0.169549 0.472935 0.086683
v -0.114206 0.482532 0.017650
v -0.131041 0.462565 -0.074209
v -0.107453 0.471232 -0.027296
v -0.019468 0.452346 0.062494
v -0.076183 0.463983 0.034905
v 0.005151 0.427062 0.017868
v 0.040478 0.425346 0.018547
v -0.018713 0.254839 0.003202
v -0.032194 0.263890 0.018545
v 0.005328 0.568696 -0.006672
v 0.001837 0.561882 0.016901
v 0.102616 0.522013 -0.033123
v 0.102704 0.503303 0.022280
v 0.012835 0.566608 0.004473
v 0.077922 0.543295 -0.043954
v 0.072262 0.519942 0.043680
v 0.089457 0.528521 -0.000393
v 0.038569 0.562715 -0.035646
v 0.034238 0.541340 0.043005
v 0.044526 0.556504 0.005450
v 0.033497 0.539480 0.011304
v -0.002116 0.557976 0.007693
v 0.019053 0.551914 0.010408
v -0.032378 0.546523 0.097790
v 0.043217 0.518016 0.082306
v -0.036636 0.559549 0.072690
v 0.002487 0.539884 0.092151
v 0.047814 0.527716 0.038656
v -0.023971 0.564987 0.030841
v 0.014432 0.552384 0.041437
v -0.006030 0.553351 -0.002257
v 0.030074 0.535493 -0.003714
v -0.016078 0.563606 -0.103292
v 0.012751 0.548974 -0.002329
v 0.035168 0.536535 -0.109704
v -0.027742 0.571328 -0.071546
v 0.053222 0.530827 -0.073439
v 0.014510 0.555687 -0.086342
v -0.023474 0.566325 -0.027083
v 0.049276 0.530152 -0.029539
v 0.016631 0.555531 -0.032726
v 0.012442 0.565271 0.004076
v 0.088517 0.527458 -0.000743
v 0.043926 0.555232 0.005052
v 0.022421 0.516577 0.110018
v 0.001903 0.538702 0.091533
v 0.013764 0.551112 0.041173
v 0.013851 0.554408 -0.086156
v 0.015955 0.554250 -0.032914
v 0.006807 0.658478 0.012097
v -0.024229 0.660003 -0.013729
v -0.044003 0.640700 0.100195
v -0.098828 0.637043 0.054870
v -0.025974 0.647117 0.092871
v -0.093311 0.643463 0.032102
v -0.084341 0.646550 0.099621
v 0.000398 0.658617 0.054931
v -0.061203 0.656355 0.001255
v -0.034608 0.663688 0.032268
v 0.009785 0.653332 -0.012710
v -0.013557 0.651051 0.020407
v 0.087188 0.635903 0.020592
v 0.041598 0.632646 0.083259
v -0.000182 0.656520 0.002576
v 0.080960 0.642426 0.008536
v 0.026757 0.639005 0.081187
v 0.081769 0.645373 0.061011
v 0.041706 0.656522 -0.014404
v -0.006069 0.653026 0.052114
v 0.022430 0.661741 0.022596
v -0.026445 0.664162 -0.008039
v -0.003771 0.659169 0.007660
v 0.011686 0.679988 -0.079825
v 0.056509 0.663134 -0.065645
v -0.003616 0.681263 -0.070996
v 0.057350 0.658312 -0.028396
v 0.033605 0.677507 -0.057315
v -0.025487 0.675933 -0.034234
v 0.029125 0.658061 0.001372
v 0.004805 0.676854 -0.017280
v -0.031490 0.648499 0.011955
v -0.002735 0.651082 -0.014269
v -0.104018 0.644940 -0.053528
v -0.061096 0.649607 -0.092663
v -0.018956 0.653739 0.000466
v -0.096035 0.648911 -0.022949
v -0.030280 0.655662 -0.079917
v -0.071763 0.655533 -0.060294
v -0.063294 0.652384 0.007576
v -0.004749 0.658598 -0.044752
v -0.037528 0.662938 -0.021703
v -0.035428 0.667316 -0.004687
v 0.005058 0.637260 -0.007541
v -0.050663 0.677202 -0.130926
v -0.014040 0.658181 -0.005854
v 0.008353 0.632328 -0.136685
v -0.061298 0.692475 -0.091862
v 0.030184 0.626043 -0.096243
v -0.013391 0.663743 -0.110909
v -0.052993 0.690072 -0.035130
v 0.029569 0.630433 -0.039947
v -0.005919 0.668182 -0.043370
v -0.085809 0.643529 0.099807
v -0.034446 0.662250 0.032128
v 0.081735 0.642573 0.062355
v 0.022401 0.660269 0.022491
v 0.033168 0.676114 -0.057434
v 0.004696 0.675466 -0.017813
v -0.071690 0.653024 -0.062149
v -0.037521 0.661474 -0.021876
v -0.014231 0.662603 -0.110550
v -0.006823 0.667009 -0.043535
v 0.069117 0.516482 -0.093390
v 0.084286 0.513648 -0.094953
v 0.084778 0.511519 -0.077419
v 0.072961 0.517632 -0.079744
v -0.016442 0.314998 -0.005426
v 0.000076 0.310207 -0.006614
v 0.002906 0.314998 0.009703
v -0.013611 0.319789 0.010890
v 0.054365 0.519457 -0.092341
v 0.084105 0.510778 -0.066367
v 0.088609 0.481791 -0.168616
v 0.140825 0.468349 -0.120861
v 0.069673 0.519497 -0.081402
v 0.072383 0.494592 -0.160912
v 0.138784 0.476675 -0.101535
v 0.140776 0.478081 -0.171369
v 0.053211 0.514433 -0.125112
v 0.113441 0.497992 -0.072462
v 0.090029 0.512007 -0.104466
v 0.079887 0.498893 -0.093088
v 0.048042 0.516163 -0.075141
v 0.131850 0.482555 -0.007031
v 0.068000 0.511277 -0.085844
v 0.087060 0.505284 0.022753
v 0.131868 0.483048 -0.041719
v 0.059736 0.521642 -0.002794
v 0.103843 0.504238 -0.010068
v 0.109043 0.490215 -0.079418
v 0.044595 0.525106 -0.043963
v 0.082396 0.514226 -0.058173
v 0.040040 0.507884 -0.080330
v 0.072764 0.490586 -0.096582
v -0.009559 0.507511 -0.154866
v 0.056679 0.504880 -0.088707
v 0.014666 0.489303 -0.176068
v -0.012254 0.517387 -0.133538
v 0.061688 0.478541 -0.168424
v 0.019044 0.499483 -0.163899
v 0.012394 0.518609 -0.096015
v 0.078793 0.483663 -0.128052
v 0.046420 0.507777 -0.118169
v 0.139994 0.475560 -0.172457
v 0.089421 0.510692 -0.104203
v 0.103077 0.503006 -0.010179
v 0.081788 0.512916 -0.057925
v 0.018681 0.498240 -0.163235
v 0.045831 0.506465 -0.117881
vn -0.7070 0.0173 0.7070
vn 0.7065 0.0503 0.7059
vn 0.7062 0.0607 -0.7054
vn 0.7065 -0.0397 0.7066
vn 0.7065 -0.0397 -0.7066
vn -0.7035 -0.0602 -0.7082
vn -0.6951 -0.0595 0.7164
vn 0.7055 0.0602 0.7062
vn 0.7055 0.0602 -0.7062
vn 0.6276 0.3400 0.7004
vn 0.6276 0.3400 -0.7004
vn -0.6415 -0.3105 -0.7015
vn -0.6410 -0.3115 0.7015
vn -0.0716 0.9974 -0.0000
vn 0.2502 0.9681 -0.0091
vn 0.1303 0.7513 0.6470
vn -0.9286 0.2841 0.2386
vn -0.2342 0.9710 -0.0492
vn 0.1051 0.9710 0.2149
vn -0.0450 0.9635 -0.2641
vn -0.0632 0.9723 0.2251
vn -0.4027 0.8438 -0.3547
vn 0.0465 0.9778 -0.2042
vn -0.1987 0.9798 0.0248
vn 0.2569 0.9663 0.0144
vn 0.0686 0.9727 -0.2219
vn 0.1630 0.9751 0.1505
vn -0.0062 0.9769 0.2134
vn 0.2003 0.9797 -0.0029
vn -0.2551 0.9666 -0.0262
vn 0.0940 0.9945 0.0457
vn 0.0952 0.9943 0.0480
vn 0.3809 0.9206 -0.0858
vn 0.4266 0.9025 -0.0593
vn -0.2107 -0.9730 -0.0945
vn -0.1139 -0.7766 -0.6196
vn 0.5256 -0.8507 -0.0041
vn 0.1933 -0.9808 0.0274
vn -0.0550 -0.9818 -0.1816
vn 0.0988 -0.9738 0.2046
vn 0.2280 -0.9594 -0.1659
vn 0.3312 -0.8881 0.3188
vn -0.0203 -0.9683 0.2490
vn -0.1041 -0.9849 0.1386
vn 0.1704 -0.9854 -0.0063
vn -0.2380 -0.9709 0.0264
vn -0.2347 -0.9597 0.1544
vn -0.0961 -0.9603 -0.2618
vn 0.1058 -0.9846 -0.1389
vn -0.1712 -0.9851 -0.0142
vn 0.2383 -0.9711 -0.0155
vn -0.2681 -0.9532 0.1399
vn -0.0460 -0.9925 -0.1133
vn -0.4296 -0.8983 -0.0917
vn -0.4107 -0.8962 0.1678
vn 0.2112 0.9766 0.0407
vn 0.6249 0.7746 0.0972
vn 0.5270 0.7718 0.3558
vn 0.4531 0.8888 0.0687
vn 0.2635 0.8673 0.4224
vn 0.5958 0.8025 0.0333
vn 0.5061 0.7540 0.4189
vn 0.3077 0.9045 0.2954
vn 0.5903 0.7725 0.2338
vn 0.2721 0.9619 0.0260
vn 0.2859 0.9170 0.2783
vn 0.3088 0.9440 -0.1162
vn 0.5448 0.8384 -0.0191
vn 0.2698 0.9594 0.0821
vn 0.6080 0.7565 0.2408
vn -0.2767 -0.9534 -0.1207
vn -0.6121 -0.7791 -0.1355
vn -0.6258 -0.6985 -0.3472
vn -0.4428 -0.7996 -0.4057
vn -0.4575 -0.8833 -0.1022
vn -0.2227 -0.8812 -0.4170
vn -0.6422 -0.7554 -0.1301
vn -0.4802 -0.7802 -0.4008
vn -0.2731 -0.8720 -0.4062
vn -0.2868 -0.9351 -0.2083
vn -0.5621 -0.7928 -0.2354
vn -0.2662 -0.9613 -0.0708
vn -0.2236 -0.9563 -0.1884
vn -0.3444 -0.9334 0.1005
vn -0.5415 -0.8291 0.1391
vn -0.5805 -0.8117 -0.0647
vn -0.3024 -0.9500 -0.0779
vn -0.6119 -0.7662 -0.1963
vn 0.1328 0.9910 0.0167
vn 0.0821 0.6407 0.7634
vn -0.8782 0.4385 0.1911
vn -0.3258 0.9455 -0.0000
vn -0.0341 0.9628 0.2681
vn -0.1077 0.9751 -0.1937
vn 0.7651 0.6421 -0.0479
vn 0.3423 0.4032 0.8487
vn 0.0241 0.9326 0.3601
vn 0.3204 0.9467 0.0334
vn -0.2882 0.9545 0.0766
vn -0.2452 0.8876 0.3899
vn 0.0937 0.9954 0.0185
vn 0.3718 0.8845 0.2819
vn -0.0830 0.9921 0.0944
vn 0.0596 0.9212 0.3845
vn -0.3193 0.9468 -0.0396
vn -0.9121 0.2260 -0.3420
vn -0.0654 0.9891 -0.1318
vn -0.2336 0.9620 0.1412
vn 0.2903 0.9453 0.1491
vn 0.4445 0.8214 0.3575
vn 0.4347 0.8726 -0.2228
vn 0.6726 0.7298 -0.1224
vn 0.4183 0.9080 -0.0228
vn 0.7123 0.6244 0.3206
vn -0.0756 -0.9966 0.0320
vn -0.0407 -0.6996 -0.7133
vn 0.6239 -0.7785 -0.0684
vn 0.3031 -0.9495 -0.0814
vn 0.0625 -0.9664 -0.2495
vn -0.0112 -0.9803 0.1972
vn -0.7346 -0.6784 0.0124
vn -0.1958 -0.6854 -0.7014
vn -0.1066 -0.9374 -0.3317
vn -0.3046 -0.9504 -0.0629
vn 0.2527 -0.9618 -0.1055
vn 0.1548 -0.8548 -0.4954
vn -0.1169 -0.9914 -0.0594
vn -0.5100 -0.8544 -0.0991
vn -0.3525 -0.8713 -0.3416
vn 0.0475 -0.9922 -0.1156
vn 0.0531 -0.9292 -0.3658
vn 0.2568 -0.9647 0.0583
vn 0.1286 -0.9796 0.1544
vn -0.0195 -0.9951 0.0972
vn 0.2105 -0.9708 -0.1154
vn -0.2612 -0.9584 -0.1147
vn -0.3899 -0.8772 -0.2802
vn -0.4628 -0.8610 0.2106
vn -0.6620 -0.7074 0.2474
vn -0.7104 -0.7022 0.0470
vn -0.4428 -0.8962 0.0269
vn -0.7191 -0.6333 -0.2861
vn -0.7068 0.0278 -0.7069
vn -0.1640 -0.3354 -0.9277
vn -0.9094 0.4144 0.0361
vn 0.1655 0.3412 0.9253
vn 0.9156 -0.3998 -0.0415
vn 0.1512 0.9763 -0.1550
vn -0.0095 0.5068 -0.8620
vn 0.9601 -0.2745 -0.0538
vn 0.5852 0.8102 0.0330
vn 0.2598 0.8969 -0.3579
vn 0.4387 0.8934 0.0970
vn 0.4257 0.8168 -0.3893
vn 0.6113 0.7913 0.0116
vn 0.3708 0.9283 0.0274
vn 0.5681 0.8002 -0.1919
vn 0.1428 0.9736 -0.1781
vn 0.3345 0.9409 0.0537
vn 0.1269 0.9061 -0.4036
vn 0.3754 0.8462 -0.3782
vn 0.2010 0.9658 -0.1635
vn 0.6188 0.7731 -0.1394
vn -0.1620 -0.9596 0.2302
vn 0.0018 -0.5140 0.8578
vn -0.9779 -0.2086 -0.0134
vn -0.5682 -0.8164 0.1033
vn -0.2892 -0.8945 0.3409
vn -0.4667 -0.8821 -0.0636
vn -0.5776 -0.7470 0.3291
vn -0.5784 -0.8156 -0.0119
vn -0.4109 -0.9012 -0.1375
vn -0.3009 -0.9532 0.0305
vn -0.5454 -0.8199 0.1743
vn -0.1647 -0.9765 0.1387
vn -0.1725 -0.9850 0.0106
vn -0.1789 -0.9012 0.3947
vn -0.2698 -0.7486 0.6057
vn -0.4758 -0.8245 0.3062
vn -0.2288 -0.9564 0.1814
vn -0.6020 -0.7775 0.1816
vn -0.7578 0.0268 0.6520
vn 0.7062 0.0503 0.7062
vn 0.7058 0.0607 -0.7058
vn -0.6937 0.0390 -0.7192
vn -0.6852 0.0385 0.7273
vn 0.7068 -0.0397 0.7063
vn 0.7068 -0.0397 -0.7063
vn -0.7048 -0.0600 -0.7069
vn -0.7049 -0.0580 0.7069
vn 0.7047 0.0603 0.7069
vn 0.7047 0.0603 -0.7069
vn 0.6004 0.3302 0.7284
vn 0.6219 0.3380 -0.7064
vn -0.6289 -0.3059 -0.7148
vn -0.6383 -0.3105 0.7044
vn 0.2615 0.9647 0.0318
vn 0.0467 0.5353 0.8434
vn -0.5815 0.8134 -0.0170
vn -0.2336 0.9697 -0.0721
vn 0.0923 0.9718 0.2169
vn -0.0180 0.9652 -0.2609
vn -0.2066 0.9566 0.2054
vn -0.1538 0.7006 -0.6967
vn 0.0493 0.9607 -0.2733
vn 0.1360 0.9793 -0.1500
vn -0.1685 0.9810 -0.0966
vn 0.2148 0.9726 0.0892
vn 0.2152 0.9569 -0.1948
vn 0.3616 0.7789 0.5123
vn 0.0181 0.9013 0.4328
vn -0.1383 0.9792 0.1488
vn 0.1555 0.9776 0.1416
vn -0.2085 0.9728 -0.1006
vn 0.2189 0.9756 0.0192
vn 0.0940 0.9907 0.0985
vn 0.4336 0.9009 -0.0198
vn 0.4432 0.8955 -0.0409
vn 0.4190 0.9079 -0.0083
vn -0.1811 -0.9834 0.0116
vn 0.1934 -0.9809 0.0187
vn -0.0561 -0.9818 -0.1814
vn 0.0049 -0.9811 0.1936
vn 0.0467 -0.9806 -0.1904
vn 0.1412 -0.7853 0.6028
vn -0.0180 -0.9815 0.1904
vn 0.1408 -0.9838 0.1110
vn -0.1772 -0.9808 -0.0814
vn -0.0504 -0.9809 0.1880
vn -0.0866 -0.9692 -0.2307
vn -0.1291 -0.9805 -0.1482
vn 0.1713 -0.9810 0.0911
vn -0.0887 -0.9764 -0.1968
vn -0.0485 -0.9988 0.0002
vn -0.1984 -0.9403 0.2764
vn -0.5035 -0.8615 0.0658
vn -0.2640 -0.9420 -0.2070
vn -0.9717 0.1300 0.1974
vn 0.2994 0.9489 0.1000
vn 0.7833 0.5893 0.1978
vn 0.6345 0.6738 0.3787
vn 0.4352 0.7871 0.4370
vn 0.5365 0.8322 0.1402
vn 0.1653 0.8643 0.4750
vn 0.6471 0.7577 0.0849
vn 0.2422 0.7122 0.6589
vn 0.2346 0.8785 0.4161
vn 0.2552 0.9459 0.2002
vn 0.5070 0.8016 0.3170
vn 0.3105 0.9506 0.0053
vn 0.2216 0.9470 0.2326
vn 0.4065 0.8493 -0.3368
vn 0.5702 0.8064 -0.1569
vn 0.6083 0.7909 0.0668
vn 0.3438 0.9390 -0.0109
vn 0.5750 0.7732 0.2676
vn -0.2972 -0.9453 -0.1347
vn -0.7391 -0.6385 -0.2144
vn -0.5299 -0.7827 -0.3264
vn -0.5368 -0.8262 -0.1712
vn -0.2686 -0.8804 -0.3908
vn -0.5682 -0.8210 -0.0557
vn -0.2804 -0.7551 -0.5925
vn -0.3366 -0.8928 -0.2993
vn -0.4802 -0.8187 -0.3149
vn -0.3369 -0.9410 -0.0331
vn -0.3174 -0.9135 -0.2544
vn -0.4223 -0.8642 0.2736
vn -0.5180 -0.8552 0.0179
vn -0.3732 -0.9277 0.0120
vn -0.5517 -0.7972 -0.2453
vn 0.0969 0.9936 -0.0578
vn -0.0049 0.0638 0.9980
vn -0.6569 0.7521 0.0529
vn -0.3254 0.9439 0.0558
vn 0.0208 0.9651 0.2609
vn -0.1420 0.9836 -0.1108
vn -0.0285 0.9746 -0.2219
vn 0.9914 0.0466 0.1220
vn 0.1863 0.6692 0.7193
vn 0.0831 0.9311 0.3552
vn 0.3002 0.9521 -0.0581
vn -0.2852 0.9584 0.0077
vn -0.1816 0.8305 0.5265
vn 0.4197 0.8513 -0.3149
vn 0.5536 0.8274 0.0946
vn 0.3775 0.8510 0.3651
vn 0.0747 0.9948 0.0699
vn 0.1420 0.7838 0.6046
vn -0.0195 0.9176 0.3971
vn -0.3410 0.5523 -0.7607
vn -0.1033 0.9718 -0.2120
vn 0.0484 0.9918 -0.1179
vn -0.2335 0.9721 0.0206
vn 0.2741 0.9378 0.2131
vn 0.3873 0.8665 0.3148
vn 0.5092 0.7285 -0.4583
vn 0.6803 0.6849 -0.2608
vn 0.7299 0.6821 -0.0452
vn 0.4786 0.8711 -0.1102
vn 0.6623 0.6555 0.3628
vn -0.0964 -0.9953 -0.0112
vn 0.3039 -0.9521 -0.0327
vn 0.0296 -0.9689 -0.2455
vn 0.1288 -0.9887 0.0771
vn 0.1064 -0.9821 0.1554
vn -0.0543 -0.9401 -0.3365
vn -0.2900 -0.9570 0.0068
vn 0.2482 -0.9687 0.0017
vn 0.2012 -0.8962 -0.3954
vn -0.4069 -0.8820 0.2378
vn -0.3463 -0.9003 -0.2636
vn -0.1049 -0.9903 -0.0916
vn -0.1355 -0.8135 -0.5655
vn -0.0665 -0.9355 -0.3469
vn 0.1113 -0.9874 0.1128
vn 0.2093 -0.9775 0.0275
vn -0.2353 -0.9472 -0.2180
vn -0.4691 -0.8155 -0.3389
vn -0.5270 -0.7454 0.4082
vn -0.6538 -0.7468 0.1214
vn -0.5005 -0.8585 0.1118
vn -0.6476 -0.6784 -0.3469
vn -0.7344 0.0325 -0.6779
vn -0.1586 -0.3373 -0.9279
vn -0.8654 0.4571 0.2052
vn 0.0299 0.4054 0.9136
vn 0.9094 -0.4091 -0.0752
vn 0.1366 0.9713 -0.1948
vn -0.0198 0.4014 -0.9157
vn 0.9852 0.1684 0.0315
vn 0.5881 0.8051 -0.0776
vn 0.1715 0.9250 -0.3390
vn 0.4141 0.9054 0.0936
vn 0.5540 0.7469 -0.3678
vn 0.5716 0.7757 0.2675
vn 0.3857 0.9071 0.1683
vn 0.2701 0.9626 -0.0184
vn 0.5488 0.8329 -0.0717
vn 0.1786 0.9509 -0.2530
vn 0.1920 0.9810 0.0296
vn 0.0113 0.7650 -0.6440
vn 0.2673 0.6897 -0.6730
vn 0.5031 0.8047 -0.3153
vn 0.2314 0.9235 -0.3060
vn 0.5829 0.8098 -0.0664
vn -0.1898 -0.9695 0.1553
vn -0.5676 -0.8233 0.0033
vn -0.2047 -0.9237 0.3238
vn -0.4086 -0.9110 -0.0554
vn -0.4160 -0.8367 0.3562
vn -0.5507 -0.8074 -0.2120
vn -0.3969 -0.9178 -0.0135
vn -0.5251 -0.8491 0.0579
vn -0.2169 -0.9445 0.2469
vn -0.3523 -0.9357 -0.0190
vn -0.0897 -0.8039 0.5879
vn -0.3506 -0.8620 0.3662
vn -0.2576 -0.9119 0.3196
vn -0.5510 -0.8309 0.0772
vn -0.0486 0.9783 -0.2015
vn 0.4424 0.8917 0.0958
vn 0.0722 0.9799 -0.1861
vn 0.1692 0.9770 -0.1300
vt 0.195173 0.060750
vt 0.195216 0.019596
vt 0.195146 0.019544
vt 0.195212 0.060750
vt 0.195216 0.019492
vt 0.195287 0.019544
vt 0.195173 0.087839
vt 0.195252 0.087839
vt 0.195252 0.060750
vt 0.195212 0.088462
vt 0.195252 0.112903
vt 0.195173 0.112903
vt 0.195212 0.113110
vt 0.195212 0.087875
vt 0.195212 0.087731
vt 0.195181 0.060750
vt 0.195212 0.061651
vt 0.195244 0.060750
vt 0.195212 0.059850
vt 0.195234 0.087555
vt 0.195191 0.088181
vt 0.195212 0.112695
vt 0.215859 0.180975
vt 0.215851 0.181473
vt 0.215835 0.181006
vt 0.215802 0.180947
vt 0.215799 0.180424
vt 0.215808 0.180716
vt 0.215829 0.180427
vt 0.215801 0.180819
vt 0.215852 0.180707
vt 0.215878 0.180945
vt 0.215868 0.181198
vt 0.215857 0.180333
vt 0.215884 0.180806
vt 0.215867 0.180403
vt 0.215918 0.180339
vt 0.215922 0.179911
vt 0.215894 0.180195
vt 0.215916 0.180237
vt 0.215870 0.180334
vt 0.215863 0.180614
vt 0.215865 0.179947
vt 0.215839 0.180419
vt 0.215854 0.180026
vt 0.215804 0.179861
vt 0.215819 0.179718
vt 0.215826 0.179792
vt 0.215800 0.179789
vt 0.215853 0.179948
vt 0.215860 0.180227
vt 0.215859 0.178436
vt 0.215851 0.178455
vt 0.215859 0.178379
vt 0.215851 0.178274
vt 0.215857 0.169232
vt 0.215862 0.169228
vt 0.215851 0.169452
vt 0.215851 0.169638
vt 0.215851 0.181333
vt 0.215874 0.180999
vt 0.215884 0.180728
vt 0.215918 0.180265
vt 0.215928 0.180029
vt 0.215893 0.180409
vt 0.215839 0.180341
vt 0.215789 0.179354
vt 0.215830 0.180027
vt 0.215851 0.178366
vt 0.215841 0.178344
vt 0.215843 0.178418
vt 0.215862 0.169154
vt 0.215872 0.169833
vt 0.215872 0.169436
vt 0.215861 0.185830
vt 0.215890 0.185622
vt 0.215869 0.185941
vt 0.215864 0.183793
vt 0.215888 0.183444
vt 0.215896 0.184583
vt 0.215860 0.185289
vt 0.215832 0.183334
vt 0.215833 0.184478
vt 0.215856 0.184379
vt 0.215834 0.185069
vt 0.215836 0.183750
vt 0.215797 0.184400
vt 0.215784 0.183154
vt 0.215804 0.183231
vt 0.215811 0.185452
vt 0.215858 0.185368
vt 0.215856 0.185044
vt 0.215866 0.185121
vt 0.215888 0.185237
vt 0.215884 0.185815
vt 0.215927 0.185246
vt 0.215939 0.185669
vt 0.215916 0.186082
vt 0.215917 0.183916
vt 0.215867 0.184166
vt 0.215866 0.184887
vt 0.215861 0.185758
vt 0.215865 0.183736
vt 0.215848 0.182444
vt 0.215860 0.185221
vt 0.215852 0.185577
vt 0.215834 0.185001
vt 0.215797 0.184337
vt 0.215793 0.184755
vt 0.215842 0.185743
vt 0.215888 0.185169
vt 0.215927 0.185177
vt 0.215944 0.184221
vt 0.215886 0.183880
vt 0.215855 0.190744
vt 0.215841 0.191022
vt 0.215824 0.190751
vt 0.215792 0.190106
vt 0.215791 0.189793
vt 0.215797 0.190136
vt 0.215824 0.189597
vt 0.215791 0.189944
vt 0.215841 0.189940
vt 0.215873 0.190468
vt 0.215848 0.190918
vt 0.215875 0.190639
vt 0.215820 0.190043
vt 0.215849 0.189536
vt 0.215858 0.189885
vt 0.215804 0.189362
vt 0.215819 0.189893
vt 0.215805 0.189702
vt 0.215849 0.190346
vt 0.215862 0.190639
vt 0.215870 0.191048
vt 0.215877 0.191727
vt 0.215889 0.191677
vt 0.215906 0.191761
vt 0.215922 0.191894
vt 0.215916 0.191962
vt 0.215885 0.190735
vt 0.215855 0.190210
vt 0.215880 0.190982
vt 0.215859 0.190418
vt 0.215908 0.190586
vt 0.215903 0.190020
vt 0.215881 0.190232
vt 0.215931 0.190269
vt 0.215909 0.190452
vt 0.215922 0.190593
vt 0.215874 0.190348
vt 0.215864 0.190490
vt 0.215867 0.191216
vt 0.215896 0.191263
vt 0.215890 0.192434
vt 0.215945 0.191025
vt 0.215959 0.191745
vt 0.215931 0.192562
vt 0.215934 0.189009
vt 0.215870 0.189609
vt 0.215868 0.190728
vt 0.215841 0.190945
vt 0.215874 0.190825
vt 0.215863 0.190630
vt 0.215848 0.190839
vt 0.215826 0.190452
vt 0.215877 0.191652
vt 0.215858 0.190781
vt 0.215906 0.191687
vt 0.215912 0.190993
vt 0.215863 0.190721
vt 0.215880 0.190904
vt 0.215897 0.190750
vt 0.215896 0.191200
vt 0.215944 0.190964
vt 0.215963 0.189345
vt 0.215893 0.189244
vt 0.195397 0.093043
vt 0.195229 0.063688
vt 0.195227 0.064370
vt 0.195371 0.093206
vt 0.195195 0.065052
vt 0.195366 0.092336
vt 0.195198 0.064370
vt 0.215931 0.183308
vt 0.215940 0.182909
vt 0.215955 0.183039
vt 0.215989 0.181095
vt 0.215987 0.181293
vt 0.215981 0.181978
vt 0.215952 0.180574
vt 0.215989 0.180960
vt 0.215938 0.181019
vt 0.215912 0.182844
vt 0.215923 0.183310
vt 0.215932 0.182208
vt 0.215906 0.183028
vt 0.215922 0.181744
vt 0.215871 0.182494
vt 0.215869 0.181334
vt 0.215894 0.181360
vt 0.215866 0.183425
vt 0.215919 0.183132
vt 0.215926 0.182870
vt 0.215922 0.182689
vt 0.215950 0.182683
vt 0.215934 0.183262
vt 0.215983 0.182239
vt 0.215977 0.182669
vt 0.215961 0.183197
vt 0.215986 0.181119
vt 0.215934 0.181764
vt 0.215929 0.182528
vt 0.215940 0.182839
vt 0.215917 0.182160
vt 0.215906 0.182958
vt 0.215871 0.182428
vt 0.215847 0.182550
vt 0.215896 0.183610
vt 0.215950 0.182613
vt 0.215983 0.182173
vt 0.215992 0.181695
vt 0.215957 0.181393
vt 0.195212 0.087787
vt 0.215867 0.169233
vt 0.195400 0.092639
s 0
usemtl Texture_Map
f 6/1/1 1/2/1 2/3/1
f 7/4/2 2/3/2 3/5/2
f 4/6/3 7/4/3 3/5/3
f 7/4/4 9/7/4 6/1/4
f 11/8/5 7/4/5 8/9/5
f 5/10/6 15/11/6 11/8/6
f 13/12/7 5/10/7 9/7/7
f 14/13/8 9/7/8 10/14/8
f 11/8/9 14/13/9 10/14/9
f 20/15/10 19/16/10 16/17/10
f 17/18/11 20/15/11 16/17/11
f 18/19/12 21/20/12 17/18/12
f 23/21/13 18/19/13 19/16/13
f 12/22/14 14/13/14 15/11/14
f 24/23/15 34/24/15 32/25/15
f 31/26/16 26/27/16 29/28/16
f 31/26/17 27/29/17 67/30/17
f 34/24/18 30/31/18 31/26/18
f 34/24/19 29/28/19 32/25/19
f 25/32/20 34/24/20 28/33/20
f 35/34/21 45/35/21 43/36/21
f 42/37/22 37/38/22 40/39/22
f 45/35/23 41/40/23 42/37/23
f 45/35/24 40/39/24 43/36/24
f 36/41/25 45/35/25 38/42/25
f 46/43/26 55/44/26 53/45/26
f 52/46/27 71/47/27 50/48/27
f 55/44/28 51/49/28 52/46/28
f 55/44/29 50/48/29 53/45/29
f 47/50/30 55/44/30 48/51/30
f 56/52/31 60/53/31 58/54/31
f 60/53/32 74/55/32 58/54/32
f 61/56/33 64/57/33 65/58/33
f 64/57/34 76/59/34 65/58/34
f 24/23/35 68/60/35 28/33/35
f 26/27/36 67/30/36 29/28/36
f 67/30/37 27/29/37 30/31/37
f 68/60/38 30/31/38 33/61/38
f 29/28/39 68/60/39 32/25/39
f 68/60/40 25/32/40 28/33/40
f 35/34/41 70/62/41 38/42/41
f 37/38/42 69/63/42 40/39/42
f 69/63/43 39/64/43 41/40/43
f 70/62/44 41/40/44 44/65/44
f 40/39/45 70/62/45 43/36/45
f 70/62/46 36/41/46 38/42/46
f 46/43/47 72/66/47 48/51/47
f 71/47/48 49/67/48 51/49/48
f 72/66/49 51/49/49 54/68/49
f 50/48/50 72/66/50 53/45/50
f 72/66/51 47/50/51 48/51/51
f 73/69/52 57/70/52 59/71/52
f 74/55/53 73/69/53 58/54/53
f 75/72/54 63/73/54 66/74/54
f 76/59/55 75/72/55 65/58/55
f 81/75/56 85/76/56 77/77/56
f 84/78/57 79/79/57 82/80/57
f 87/81/58 83/82/58 84/78/58
f 87/81/59 82/80/59 85/76/59
f 81/75/60 86/83/60 87/81/60
f 88/84/61 97/85/61 95/86/61
f 94/87/62 112/88/62 92/89/62
f 97/85/63 93/90/63 94/87/63
f 97/85/64 92/89/64 95/86/64
f 89/91/65 97/85/65 90/92/65
f 98/93/66 108/94/66 106/95/66
f 105/96/67 100/97/67 103/98/67
f 108/94/68 104/99/68 105/96/68
f 108/94/69 103/98/69 106/95/69
f 99/100/70 108/94/70 101/101/70
f 85/76/71 109/102/71 77/77/71
f 79/79/72 110/103/72 82/80/72
f 110/103/73 80/104/73 83/82/73
f 111/105/74 83/82/74 86/83/74
f 82/80/75 111/105/75 85/76/75
f 109/102/76 86/83/76 78/106/76
f 88/84/77 114/107/77 90/92/77
f 112/88/78 113/108/78 92/89/78
f 113/108/79 91/109/79 93/90/79
f 114/107/80 93/90/80 96/110/80
f 92/89/81 114/107/81 95/86/81
f 114/107/82 89/91/82 90/92/82
f 98/93/83 116/111/83 101/101/83
f 100/97/84 115/112/84 103/98/84
f 115/112/85 102/113/85 104/99/85
f 116/111/86 104/99/86 107/114/86
f 103/98/87 116/111/87 106/95/87
f 116/111/88 99/100/88 101/101/88
f 117/115/89 126/116/89 124/117/89
f 123/118/90 119/119/90 121/120/90
f 123/118/91 120/121/91 170/122/91
f 126/116/92 122/123/92 123/118/92
f 126/116/93 121/120/93 124/117/93
f 127/124/94 137/125/94 135/126/94
f 134/127/95 129/128/95 132/129/95
f 134/127/96 130/130/96 172/131/96
f 137/125/97 133/132/97 134/127/97
f 137/125/98 132/129/98 135/126/98
f 128/133/99 137/125/99 131/134/99
f 138/135/100 147/136/100 145/137/100
f 144/138/101 140/139/101 142/140/101
f 147/136/102 143/141/102 144/138/102
f 147/136/103 142/140/103 145/137/103
f 148/142/104 158/143/104 156/144/104
f 155/145/105 150/146/105 153/147/105
f 155/145/106 151/148/106 176/149/106
f 158/143/107 154/150/107 155/145/107
f 158/143/108 153/147/108 156/144/108
f 149/151/109 158/143/109 152/152/109
f 159/153/110 169/154/110 167/155/110
f 166/156/111 161/157/111 164/158/111
f 169/154/112 165/159/112 166/156/112
f 169/154/113 164/158/113 167/155/113
f 160/160/114 169/154/114 162/161/114
f 117/115/115 171/162/115 118/163/115
f 119/119/116 170/122/116 121/120/116
f 170/122/117 120/121/117 122/123/117
f 171/162/118 122/123/118 125/164/118
f 121/120/119 171/162/119 124/117/119
f 127/124/120 173/165/120 131/134/120
f 129/128/121 172/131/121 132/129/121
f 172/131/122 130/130/122 133/132/122
f 173/165/123 133/132/123 136/166/123
f 132/129/124 173/165/124 135/126/124
f 173/165/125 128/133/125 131/134/125
f 138/135/126 175/167/126 139/168/126
f 140/139/127 174/169/127 142/140/127
f 174/169/128 141/170/128 143/141/128
f 175/167/129 143/141/129 146/171/129
f 142/140/130 175/167/130 145/137/130
f 148/142/131 177/172/131 152/152/131
f 150/146/132 176/149/132 153/147/132
f 176/149/133 151/148/133 154/150/133
f 177/172/134 154/150/134 157/173/134
f 153/147/135 177/172/135 156/144/135
f 177/172/136 149/151/136 152/152/136
f 159/153/137 179/174/137 162/161/137
f 161/157/138 178/175/138 164/158/138
f 178/175/139 163/176/139 165/159/139
f 179/174/140 165/159/140 168/177/140
f 164/158/141 179/174/141 167/155/141
f 179/174/142 160/160/142 162/161/142
f 1/2/143 8/9/143 4/6/143
f 180/178/144 185/179/144 184/180/144
f 183/181/145 184/180/145 187/182/145
f 182/183/146 187/182/146 186/184/146
f 185/179/147 182/183/147 186/184/147
f 188/185/148 198/186/148 196/187/148
f 195/188/149 190/189/149 193/190/149
f 195/188/150 191/191/150 221/192/150
f 198/186/151 194/193/151 195/188/151
f 198/186/152 193/190/152 196/187/152
f 189/194/153 198/186/153 192/195/153
f 199/196/154 209/197/154 207/198/154
f 206/199/155 201/200/155 204/201/155
f 209/197/156 205/202/156 206/199/156
f 209/197/157 204/201/157 207/198/157
f 200/203/158 209/197/158 202/204/158
f 210/205/159 220/206/159 218/207/159
f 217/208/160 212/209/160 215/210/160
f 220/206/161 216/211/161 217/208/161
f 220/206/162 215/210/162 218/207/162
f 211/212/163 220/206/163 213/213/163
f 188/185/164 222/214/164 192/195/164
f 190/189/165 221/192/165 193/190/165
f 221/192/166 191/191/166 194/193/166
f 222/214/167 194/193/167 197/215/167
f 193/190/168 222/214/168 196/187/168
f 222/214/169 189/194/169 192/195/169
f 199/196/170 224/216/170 202/204/170
f 201/200/171 223/217/171 204/201/171
f 223/217/172 203/218/172 205/202/172
f 224/216/173 205/202/173 208/219/173
f 204/201/174 224/216/174 207/198/174
f 224/216/175 200/203/175 202/204/175
f 210/205/176 226/220/176 213/213/176
f 212/209/177 225/221/177 215/210/177
f 225/221/178 214/222/178 216/211/178
f 226/220/179 216/211/179 219/223/179
f 215/210/180 226/220/180 218/207/180
f 226/220/181 211/212/181 213/213/181
f 6/1/182 5/10/182 1/2/182
f 7/4/183 6/1/183 2/3/183
f 4/6/184 8/9/184 7/4/184
f 5/10/185 11/8/185 8/9/185
f 6/1/186 9/7/186 5/10/186
f 7/4/187 10/14/187 9/7/187
f 11/8/188 10/14/188 7/4/188
f 5/10/189 12/22/189 15/11/189
f 13/12/190 12/22/190 5/10/190
f 14/13/191 13/12/191 9/7/191
f 11/8/192 15/11/192 14/13/192
f 20/15/193 23/21/193 19/16/193
f 17/18/194 21/20/194 20/15/194
f 18/19/195 22/224/195 21/20/195
f 23/21/196 22/224/196 18/19/196
f 12/22/14 13/12/14 14/13/14
f 24/23/197 28/33/197 34/24/197
f 31/26/198 67/30/198 26/27/198
f 31/26/199 30/31/199 27/29/199
f 34/24/200 33/61/200 30/31/200
f 34/24/201 31/26/201 29/28/201
f 25/32/202 33/61/202 34/24/202
f 35/34/203 38/42/203 45/35/203
f 42/37/204 39/64/204 37/38/204
f 42/37/205 41/40/205 39/64/205
f 45/35/206 44/65/206 41/40/206
f 45/35/207 42/37/207 40/39/207
f 36/41/208 44/65/208 45/35/208
f 46/43/209 48/51/209 55/44/209
f 52/46/210 49/67/210 71/47/210
f 52/46/211 51/49/211 49/67/211
f 55/44/212 54/68/212 51/49/212
f 55/44/213 52/46/213 50/48/213
f 47/50/214 54/68/214 55/44/214
f 60/53/215 59/71/215 57/70/215
f 60/53/216 57/70/216 74/55/216
f 64/57/217 66/74/217 63/73/217
f 64/57/218 63/73/218 76/59/218
f 62/225/219 66/74/219 64/57/219
f 24/23/220 32/25/220 68/60/220
f 68/60/221 67/30/221 30/31/221
f 29/28/222 67/30/222 68/60/222
f 68/60/223 33/61/223 25/32/223
f 35/34/224 43/36/224 70/62/224
f 37/38/225 39/64/225 69/63/225
f 70/62/226 69/63/226 41/40/226
f 40/39/227 69/63/227 70/62/227
f 70/62/228 44/65/228 36/41/228
f 46/43/229 53/45/229 72/66/229
f 72/66/230 71/47/230 51/49/230
f 50/48/231 71/47/231 72/66/231
f 72/66/232 54/68/232 47/50/232
f 56/52/233 58/54/233 73/69/233
f 73/69/234 74/55/234 57/70/234
f 61/56/235 65/58/235 75/72/235
f 75/72/236 76/59/236 63/73/236
f 75/72/237 66/74/237 62/225/237
f 60/53/238 73/69/238 59/71/238
f 81/75/239 87/81/239 85/76/239
f 84/78/240 80/104/240 79/79/240
f 84/78/241 83/82/241 80/104/241
f 87/81/242 86/83/242 83/82/242
f 87/81/243 84/78/243 82/80/243
f 81/75/244 78/106/244 86/83/244
f 88/84/245 90/92/245 97/85/245
f 94/87/246 91/109/246 112/88/246
f 94/87/247 93/90/247 91/109/247
f 97/85/248 96/110/248 93/90/248
f 97/85/249 94/87/249 92/89/249
f 89/91/250 96/110/250 97/85/250
f 98/93/251 101/101/251 108/94/251
f 105/96/252 102/113/252 100/97/252
f 105/96/253 104/99/253 102/113/253
f 108/94/254 107/114/254 104/99/254
f 108/94/255 105/96/255 103/98/255
f 99/100/256 107/114/256 108/94/256
f 85/76/257 111/105/257 109/102/257
f 79/79/258 80/104/258 110/103/258
f 111/105/259 110/103/259 83/82/259
f 82/80/260 110/103/260 111/105/260
f 109/102/261 111/105/261 86/83/261
f 88/84/262 95/86/262 114/107/262
f 112/88/263 91/109/263 113/108/263
f 114/107/264 113/108/264 93/90/264
f 92/89/265 113/108/265 114/107/265
f 114/107/266 96/110/266 89/91/266
f 98/93/267 106/95/267 116/111/267
f 100/97/268 102/113/268 115/112/268
f 116/111/269 115/112/269 104/99/269
f 103/98/270 115/112/270 116/111/270
f 116/111/271 107/114/271 99/100/271
f 117/115/272 118/163/272 126/116/272
f 123/118/273 170/122/273 119/119/273
f 123/118/274 122/123/274 120/121/274
f 126/116/275 125/164/275 122/123/275
f 126/116/276 123/118/276 121/120/276
f 118/163/277 125/164/277 126/116/277
f 127/124/278 131/134/278 137/125/278
f 134/127/279 172/131/279 129/128/279
f 134/127/280 133/132/280 130/130/280
f 137/125/281 136/166/281 133/132/281
f 137/125/282 134/127/282 132/129/282
f 128/133/283 136/166/283 137/125/283
f 138/135/284 139/168/284 147/136/284
f 144/138/285 141/170/285 140/139/285
f 144/138/286 143/141/286 141/170/286
f 147/136/287 146/171/287 143/141/287
f 147/136/288 144/138/288 142/140/288
f 139/168/289 146/171/289 147/136/289
f 148/142/290 152/152/290 158/143/290
f 155/145/291 176/149/291 150/146/291
f 155/145/292 154/150/292 151/148/292
f 158/143/293 157/173/293 154/150/293
f 158/143/294 155/145/294 153/147/294
f 149/151/295 157/173/295 158/143/295
f 159/153/296 162/161/296 169/154/296
f 166/156/297 163/176/297 161/157/297
f 166/156/298 165/159/298 163/176/298
f 169/154/299 168/177/299 165/159/299
f 169/154/300 166/156/300 164/158/300
f 160/160/301 168/177/301 169/154/301
f 117/115/302 124/117/302 171/162/302
f 171/162/303 170/122/303 122/123/303
f 121/120/304 170/122/304 171/162/304
f 171/162/305 125/164/305 118/163/305
f 127/124/306 135/126/306 173/165/306
f 173/165/307 172/131/307 133/132/307
f 132/129/308 172/131/308 173/165/308
f 173/165/309 136/166/309 128/133/309
f 138/135/310 145/137/310 175/167/310
f 140/139/311 141/170/311 174/169/311
f 175/167/312 174/169/312 143/141/312
f 142/140/313 174/169/313 175/167/313
f 175/167/314 146/171/314 139/168/314
f 148/142/315 156/144/315 177/172/315
f 177/172/316 176/149/316 154/150/316
f 153/147/317 176/149/317 177/172/317
f 177/172/318 157/173/318 149/151/318
f 159/153/319 167/155/319 179/174/319
f 161/157/320 163/176/320 178/175/320
f 179/174/321 178/175/321 165/159/321
f 164/158/322 178/175/322 179/174/322
f 179/174/323 168/177/323 160/160/323
f 1/2/324 5/10/324 8/9/324
f 180/178/325 181/226/325 185/179/325
f 183/181/326 180/178/326 184/180/326
f 182/183/327 183/181/327 187/182/327
f 185/179/328 181/226/328 182/183/328
f 188/185/329 192/195/329 198/186/329
f 195/188/330 221/192/330 190/189/330
f 195/188/331 194/193/331 191/191/331
f 198/186/332 197/215/332 194/193/332
f 198/186/333 195/188/333 193/190/333
f 189/194/334 197/215/334 198/186/334
f 199/196/335 202/204/335 209/197/335
f 206/199/336 203/218/336 201/200/336
f 206/199/337 205/202/337 203/218/337
f 209/197/338 208/219/338 205/202/338
f 209/197/339 206/199/339 204/201/339
f 200/203/340 208/219/340 209/197/340
f 210/205/341 213/213/341 220/206/341
f 217/208/342 214/222/342 212/209/342
f 217/208/343 216/211/343 214/222/343
f 220/206/344 219/223/344 216/211/344
f 220/206/345 217/208/345 215/210/345
f 211/212/346 219/223/346 220/206/346
f 188/185/347 196/187/347 222/214/347
f 222/214/348 221/192/348 194/193/348
f 193/190/349 221/192/349 222/214/349
f 222/214/350 197/215/350 189/194/350
f 199/196/351 207/198/351 224/216/351
f 201/200/352 203/218/352 223/217/352
f 224/216/353 223/217/353 205/202/353
f 204/201/354 223/217/354 224/216/354
f 224/216/355 208/219/355 200/203/355
f 210/205/356 218/207/356 226/220/356
f 212/209/357 214/222/357 225/221/357
f 226/220/358 225/221/358 216/211/358
f 215/210/359 225/221/359 226/220/359
f 226/220/360 219/223/360 211/212/360
f 23/21/361 21/20/361 22/224/361
f 181/226/362 183/181/362 182/183/362
f 23/21/363 20/15/363 21/20/363
f 181/226/364 180/178/364 183/181/364
