# Blender 4.4.0
# www.blender.org
mtllib Crop_Garlic_STAGE_3_01.mtl
o Crop_Garlic_STAGE_3_01
v 0.006974 0.029190 0.032455
v -0.029006 0.029183 0.006559
v -0.027560 0.029207 0.021977
v -0.021034 0.029190 0.025695
v -0.029740 0.029191 0.014788
v -0.002935 0.055763 -0.000293
v -0.023264 0.029183 -0.018513
v -0.034365 0.029207 -0.007848
v -0.033193 0.029190 -0.000424
v -0.030094 0.029190 -0.014025
v -0.001602 0.055761 -0.002470
v 0.000047 0.029183 -0.029709
v -0.015293 0.029207 -0.031767
v -0.020375 0.029191 -0.026227
v -0.007803 0.029190 -0.032287
v 0.000928 0.055763 -0.002784
v 0.015299 0.029207 -0.031765
v 0.007797 0.029189 -0.032269
v 0.020377 0.029191 -0.026232
v 0.002758 0.055765 -0.000998
v 0.028967 0.029183 0.006617
v 0.023284 0.029183 -0.018487
v 0.034372 0.029207 -0.007848
v -0.009971 0.000000 0.046388
v 0.000005 0.000000 0.050377
v 0.030085 0.029189 -0.014022
v 0.033202 0.029190 -0.000424
v 0.018375 0.000000 0.038303
v 0.002503 0.055762 0.001539
v -0.018421 0.000000 0.038280
v 0.030061 0.000000 0.036726
v 0.042487 0.000000 0.021128
v 0.039395 0.000000 0.031408
v 0.047450 0.000000 -0.000606
v 0.042995 0.000000 -0.020040
v 0.049122 0.000000 -0.011215
v 0.033276 0.000000 -0.026421
v 0.027566 0.029207 0.021977
v 0.041398 0.000000 0.009457
v 0.029121 0.000000 -0.037489
v 0.011142 0.000000 -0.046117
v 0.029729 0.029190 0.014784
v 0.021034 0.029191 0.025698
v 0.021864 0.000000 -0.045396
v -0.000860 0.055796 0.003038
v -0.011151 0.000000 -0.046142
v -0.029118 0.000000 -0.037482
v -0.021856 0.000000 -0.045399
v -0.012890 0.029183 0.026786
v 0.012857 0.029183 0.026802
v 0.000066 0.000000 -0.042459
v -0.043008 0.000000 -0.020044
v -0.047437 0.000000 -0.000606
v -0.049113 0.000000 -0.011215
v 0.000003 0.029207 0.035250
v -0.033247 0.000000 -0.026458
v -0.042503 0.000000 0.021135
v -0.030060 0.000000 0.036722
v -0.006977 0.029190 0.032459
v -0.039386 0.000000 0.031409
v -0.041454 0.000000 0.009374
v 0.009967 0.000000 0.046382
v 0.005289 0.050344 0.001276
v 0.013415 0.128281 0.009075
v 0.005279 0.050329 -0.002122
v 0.075507 0.226936 0.005541
v 0.081415 0.213337 0.005541
v 0.014060 0.127407 -0.009780
v 0.081415 0.213337 -0.007818
v -0.057817 0.174102 0.020690
v -0.014216 0.130939 0.022481
v -0.057817 0.174102 0.007332
v -0.053228 0.188201 0.007332
v -0.004416 0.050428 0.004674
v -0.014202 0.130915 0.004392
v -0.004426 0.050420 0.001276
v 0.000431 0.050339 -0.003581
v 0.003041 0.127648 -0.006633
v -0.002967 0.050330 -0.003571
v 0.001361 0.231895 -0.079209
v 0.001361 0.217914 -0.084145
v -0.015298 0.126690 -0.006824
v -0.011997 0.217914 -0.084145
v -0.000829 0.135680 0.006718
v 0.000396 0.050392 0.001276
v 0.051617 0.200857 0.006655
v 0.051617 0.200855 -0.008510
v 0.039195 0.208770 0.005849
v -0.033757 0.164551 0.021307
v -0.033759 0.164556 0.006084
v -0.022963 0.174522 0.007104
v 0.002927 0.194343 -0.040304
v -0.013146 0.194345 -0.040305
v 0.001883 0.201480 -0.027018
vn 0.4901 0.7074 0.5093
vn 0.7397 0.4333 -0.5148
vn -0.5072 0.3835 -0.7718
vn 0.0594 0.4334 -0.8992
vn 0.2476 0.7504 0.6128
vn -0.0959 0.6865 0.7208
vn -0.5585 0.7565 0.3403
vn -0.3291 0.7444 0.5811
vn -0.6142 0.6976 0.3689
vn -0.5617 0.7522 -0.3446
vn -0.6565 0.7470 0.1055
vn -0.6708 0.6980 -0.2505
vn -0.0818 0.7525 -0.6535
vn -0.4908 0.7473 -0.4480
vn -0.2254 0.6970 -0.6807
vn 0.4596 0.7526 -0.4716
vn 0.0428 0.7471 -0.6633
vn 0.3928 0.6976 -0.5993
vn -0.7413 0.4334 -0.5126
vn 0.6554 0.7523 0.0665
vn -0.8623 0.4336 0.2616
vn -0.0624 0.4336 -0.8989
vn 0.8902 0.4334 0.1403
vn 0.7915 0.3834 0.4760
vn 0.5451 0.7470 -0.3806
vn 0.8644 0.3841 -0.3245
vn -0.6394 0.3836 0.6664
vn -0.8648 0.3839 -0.3235
vn 0.7134 0.6975 -0.0671
vn -0.9196 0.3842 -0.0820
vn 0.1235 0.3839 0.9151
vn 0.2779 0.7451 0.6063
vn -0.7919 0.3836 0.4751
vn 0.5066 0.3834 -0.7722
vn 0.3364 0.4334 0.8361
vn 0.8633 0.4335 0.2585
vn 0.4461 0.4335 0.7830
vn 0.9196 0.3833 -0.0861
vn 0.6370 0.7472 0.1897
vn 0.2881 0.3834 -0.8775
vn -0.4452 0.4336 0.7835
vn 0.6401 0.3834 0.6658
vn -0.2900 0.3830 -0.8771
vn 0.6639 0.4336 -0.6093
vn -0.8900 0.4334 0.1416
vn -0.3345 0.4334 0.8368
vn -0.6647 0.4337 -0.6084
vn -0.1222 0.3837 0.9153
vn -0.0075 1.0000 -0.0054
vn -0.2499 0.7435 0.6204
vn 0.7404 0.4332 -0.5140
vn -0.5069 0.3836 -0.7720
vn 0.0604 0.4333 -0.8992
vn -0.5008 0.6912 0.5210
vn -0.6232 0.7593 0.1873
vn -0.7207 0.6902 -0.0650
vn -0.5430 0.7501 -0.3776
vn -0.3973 0.6894 -0.6057
vn -0.0441 0.7504 -0.6595
vn 0.2266 0.6894 -0.6880
vn 0.4880 0.7505 -0.4457
vn 0.6777 0.6902 -0.2537
vn -0.7406 0.4335 -0.5133
vn 0.6529 0.7502 0.1047
vn -0.8625 0.4338 0.2607
vn -0.0614 0.4337 -0.8989
vn 0.8900 0.4335 0.1413
vn 0.7913 0.3834 0.4763
vn 0.8645 0.3841 -0.3241
vn 0.6205 0.6893 0.3739
vn -0.6396 0.3836 0.6661
vn -0.8647 0.3839 -0.3238
vn -0.9195 0.3843 -0.0824
vn 0.1231 0.3839 0.9151
vn 0.3258 0.7503 0.5753
vn -0.7921 0.3836 0.4748
vn 0.5069 0.3834 -0.7721
vn 0.3354 0.4333 0.8365
vn 0.8631 0.4333 0.2595
vn 0.4452 0.4336 0.7834
vn 0.9196 0.3833 -0.0858
vn 0.2884 0.3835 -0.8773
vn 0.0962 0.6901 0.7173
vn -0.4461 0.4335 0.7830
vn 0.6399 0.3834 0.6660
vn -0.2897 0.3829 -0.8772
vn 0.6645 0.4337 -0.6086
vn -0.8902 0.4333 0.1406
vn -0.3354 0.4335 0.8364
vn -0.6640 0.4335 -0.6092
vn -0.1226 0.3837 0.9153
vn -0.0008 1.0000 -0.0002
vn 0.0069 0.9999 -0.0074
vn -0.0012 1.0000 0.0009
vn 0.9172 0.3984 -0.0000
vn 0.3863 -0.9224 0.0001
vn -0.5713 -0.0164 -0.8206
vn -0.1958 -0.0652 0.9785
vn -0.0237 0.0643 0.9976
vn -0.2440 0.6236 -0.7427
vn 0.9934 -0.1075 0.0390
vn -0.9927 -0.1207 0.0033
vn 0.2305 0.6287 0.7427
vn 0.0259 0.0739 -0.9969
vn 0.1484 0.0651 -0.9868
vn 0.5727 -0.1099 0.8123
vn -0.3688 -0.9295 -0.0003
vn -0.9509 0.3095 -0.0000
vn -0.0000 0.3329 -0.9429
vn -0.0001 -0.8808 -0.4735
vn -0.8162 -0.1076 0.5676
vn 0.9598 -0.0041 0.2807
vn 0.9962 0.0788 0.0359
vn -0.7402 0.6001 0.3032
vn -0.0029 -0.0393 -0.9992
vn -0.6144 0.3266 -0.7182
vn -0.0424 0.0351 0.9985
vn 0.8849 -0.4658 0.0001
vn -0.8645 -0.5026 -0.0000
vn 0.0557 0.0417 -0.9976
vn 0.6385 0.3943 0.6609
vn -0.7454 0.3145 0.5877
vn 0.9969 -0.0007 0.0787
vn -0.0000 -0.4507 -0.8927
vn 0.3864 -0.9223 -0.0000
vn -0.7338 0.0328 -0.6786
vn -0.0010 -0.0995 0.9950
vn 0.0316 0.0137 0.9994
vn -0.3398 0.6680 -0.6621
vn 0.9935 -0.1134 -0.0025
vn -0.9927 -0.1207 -0.0006
vn 0.3021 0.6569 0.6908
vn -0.0459 0.0149 -0.9988
vn 0.0002 0.0387 -0.9993
vn 0.7663 -0.0299 0.6418
vn -0.3690 -0.9294 -0.0000
vn -0.0000 -0.8808 -0.4735
vn -0.6631 -0.0571 0.7464
vn 0.9994 -0.0334 0.0076
vn 0.9995 0.0106 -0.0300
vn -0.6517 0.6525 0.3868
vn 0.0125 -0.0405 -0.9991
vn -0.6167 0.3292 -0.7150
vn -0.1151 0.0936 0.9889
vn 0.8888 -0.4554 0.0515
vn 0.1272 0.1234 -0.9842
vn 0.6156 0.3438 0.7091
vn -0.7083 0.3450 0.6159
vn 0.9704 0.1102 0.2150
vn 0.0325 -0.4441 -0.8954
vt 0.836298 0.851206
vt 0.842850 0.867076
vt 0.834740 0.851210
vt 0.845850 0.851220
vt 0.849212 0.833803
vt 0.847553 0.851210
vt 0.847554 0.851210
vt 0.850981 0.833803
vt 0.849213 0.833803
vt 0.852444 0.851220
vt 0.856401 0.833803
vt 0.852583 0.851210
vt 0.833969 0.851220
vt 0.836303 0.851206
vt 0.836603 0.851210
vt 0.839610 0.851211
vt 0.843768 0.867056
vt 0.837628 0.851220
vt 0.841879 0.851206
vt 0.843804 0.851210
vt 0.844368 0.867055
vt 0.845851 0.851220
vt 0.848791 0.851206
vt 0.850917 0.851210
vt 0.852588 0.851210
vt 0.844455 0.867056
vt 0.852445 0.851220
vt 0.851878 0.851206
vt 0.850919 0.851211
vt 0.843962 0.867057
vt 0.848784 0.851206
vt 0.846779 0.833803
vt 0.843804 0.851210
vt 0.843263 0.867056
vt 0.837861 0.833803
vt 0.835028 0.833803
vt 0.856408 0.833803
vt 0.856203 0.833803
vt 0.843854 0.833803
vt 0.841080 0.833803
vt 0.850971 0.833803
vt 0.854022 0.833803
vt 0.834739 0.851210
vt 0.833134 0.833803
vt 0.830898 0.833803
vt 0.841863 0.851206
vt 0.839611 0.851210
vt 0.841103 0.833803
vt 0.836602 0.851211
vt 0.833127 0.833803
vt 0.833562 0.833803
vt 0.830900 0.833803
vt 0.837628 0.851220
vt 0.837862 0.833803
vt 0.835028 0.833803
vt 0.855392 0.833803
vt 0.833563 0.833803
vt 0.856202 0.833803
vt 0.843854 0.833803
vt 0.829799 0.833803
vt 0.854020 0.833803
vt 0.209660 0.174131
vt 0.209660 0.166021
vt 0.213342 0.166021
vt 0.213533 0.158578
vt 0.209353 0.158579
vt 0.210835 0.068853
vt 0.213883 0.114780
vt 0.211772 0.068816
vt 0.208685 0.115301
vt 0.209335 0.119713
vt 0.209575 0.163298
vt 0.210835 0.068825
vt 0.209899 0.068875
vt 0.209976 0.116871
vt 0.210835 0.068870
vt 0.205313 0.136929
vt 0.209166 0.151033
vt 0.205483 0.142625
vt 0.209510 0.136932
vt 0.209229 0.142875
vt 0.204989 0.116886
vt 0.209166 0.142625
vt 0.233024 0.177088
vt 0.234385 0.168751
vt 0.222299 0.154696
vt 0.222298 0.154695
vt 0.213068 0.114352
vt 0.212172 0.068817
vt 0.213016 0.114923
vt 0.218636 0.158951
vt 0.212174 0.068822
s 0
usemtl Texture_Map
f 50/1/1 45/2/1 1/3/1
f 23/4/2 35/5/2 26/6/2
f 10/7/3 56/8/3 52/9/3
f 17/10/4 41/11/4 18/12/4
f 1/3/5 45/2/5 55/13/5
f 49/14/6 45/2/6 4/15/6
f 5/16/7 45/2/7 6/17/7
f 4/15/8 45/2/8 3/18/8
f 2/19/9 6/17/9 9/20/9
f 10/7/10 6/17/10 11/21/10
f 9/20/11 6/17/11 8/22/11
f 7/23/12 11/21/12 14/24/12
f 15/25/13 11/21/13 16/26/13
f 14/24/14 11/21/14 13/27/14
f 12/28/15 16/26/15 18/12/15
f 19/29/16 16/26/16 20/30/16
f 18/12/17 16/26/17 17/10/17
f 22/31/18 20/30/18 26/6/18
f 8/22/19 52/9/19 54/32/19
f 27/33/20 20/30/20 29/34/20
f 3/18/21 57/35/21 60/36/21
f 13/27/22 46/37/22 48/38/22
f 23/4/23 34/39/23 36/32/23
f 27/33/24 39/40/24 34/39/24
f 26/6/25 20/30/25 23/4/25
f 19/29/26 37/41/26 40/42/26
f 59/43/27 30/44/27 24/45/27
f 14/24/28 56/8/28 7/23/28
f 21/46/29 29/34/29 42/47/29
f 5/16/30 61/48/30 57/35/30
f 43/49/31 28/50/31 31/51/31
f 43/49/32 29/34/32 45/2/32
f 9/20/33 61/48/33 2/19/33
f 26/6/34 37/41/34 22/31/34
f 55/13/35 62/52/35 1/3/35
f 38/53/36 32/54/36 42/47/36
f 38/53/37 31/51/37 33/55/37
f 42/47/38 39/40/38 21/46/38
f 42/47/39 29/34/39 38/53/39
f 15/25/40 51/56/40 46/37/40
f 3/18/41 58/57/41 4/15/41
f 1/3/42 28/50/42 50/1/42
f 18/12/43 51/56/43 12/28/43
f 17/10/44 40/42/44 44/58/44
f 8/22/45 53/59/45 9/20/45
f 55/13/46 24/45/46 25/60/46
f 13/27/47 47/61/47 14/24/47
f 4/15/48 30/44/48 49/14/48
f 11/21/49 6/17/49 45/2/49
f 59/43/50 55/13/50 45/2/50
f 23/4/51 36/32/51 35/5/51
f 10/7/52 7/23/52 56/8/52
f 17/10/53 44/58/53 41/11/53
f 49/14/54 59/43/54 45/2/54
f 5/16/55 3/18/55 45/2/55
f 2/19/56 5/16/56 6/17/56
f 10/7/57 8/22/57 6/17/57
f 7/23/58 10/7/58 11/21/58
f 15/25/59 13/27/59 11/21/59
f 12/28/60 15/25/60 16/26/60
f 19/29/61 17/10/61 16/26/61
f 22/31/62 19/29/62 20/30/62
f 8/22/63 10/7/63 52/9/63
f 27/33/64 23/4/64 20/30/64
f 3/18/65 5/16/65 57/35/65
f 13/27/66 15/25/66 46/37/66
f 23/4/67 27/33/67 34/39/67
f 27/33/68 21/46/68 39/40/68
f 19/29/69 22/31/69 37/41/69
f 21/46/70 27/33/70 29/34/70
f 59/43/71 49/14/71 30/44/71
f 14/24/72 47/61/72 56/8/72
f 5/16/73 2/19/73 61/48/73
f 43/49/74 50/1/74 28/50/74
f 43/49/75 38/53/75 29/34/75
f 9/20/76 53/59/76 61/48/76
f 26/6/77 35/5/77 37/41/77
f 55/13/78 25/60/78 62/52/78
f 38/53/79 33/55/79 32/54/79
f 38/53/80 43/49/80 31/51/80
f 42/47/81 32/54/81 39/40/81
f 15/25/82 12/28/82 51/56/82
f 50/1/83 43/49/83 45/2/83
f 3/18/84 60/36/84 58/57/84
f 1/3/85 62/52/85 28/50/85
f 18/12/86 41/11/86 51/56/86
f 17/10/87 19/29/87 40/42/87
f 8/22/88 54/32/88 53/59/88
f 55/13/89 59/43/89 24/45/89
f 13/27/90 48/38/90 47/61/90
f 4/15/91 58/57/91 30/44/91
f 20/30/92 16/26/92 11/21/92
f 45/2/93 29/34/93 11/21/93
f 29/34/94 20/30/94 11/21/94
f 66/62/95 67/63/95 69/64/95
f 87/65/96 67/63/96 86/66/96
f 85/67/97 68/68/97 65/69/97
f 85/67/98 64/70/98 84/71/98
f 86/66/99 66/62/99 88/72/99
f 87/65/100 66/62/100 69/64/100
f 63/73/101 68/68/101 64/70/101
f 74/74/102 75/75/102 76/76/102
f 89/77/103 73/78/103 70/79/103
f 90/80/104 73/78/104 91/81/104
f 85/67/105 75/75/105 84/71/105
f 85/67/106 71/82/106 74/74/106
f 89/77/107 72/83/107 90/80/107
f 73/78/108 72/83/108 70/79/108
f 80/84/109 81/85/109 83/85/109
f 93/86/110 81/85/110 92/87/110
f 85/67/111 82/88/111 79/89/111
f 85/67/112 78/90/112 84/71/112
f 92/87/113 80/84/113 94/91/113
f 93/86/114 80/84/114 83/85/114
f 79/89/115 78/90/115 77/92/115
f 84/71/116 87/65/116 68/68/116
f 84/71/117 86/66/117 88/72/117
f 64/70/118 87/65/118 86/66/118
f 71/82/119 90/80/119 75/75/119
f 84/71/120 90/80/120 91/81/120
f 84/71/121 89/77/121 71/82/121
f 84/71/122 93/86/122 82/88/122
f 84/71/123 92/87/123 94/91/123
f 78/90/124 93/86/124 92/87/124
f 87/65/125 69/64/125 67/63/125
f 85/67/126 84/71/126 68/68/126
f 85/67/127 63/73/127 64/70/127
f 86/66/128 67/63/128 66/62/128
f 87/65/129 88/72/129 66/62/129
f 63/73/130 65/69/130 68/68/130
f 74/74/131 71/82/131 75/75/131
f 89/77/132 91/81/132 73/78/132
f 90/80/133 72/83/133 73/78/133
f 85/67/134 76/76/134 75/75/134
f 85/67/135 84/71/135 71/82/135
f 89/77/136 70/79/136 72/83/136
f 93/86/137 83/85/137 81/85/137
f 85/67/138 84/71/138 82/88/138
f 85/67/139 77/92/139 78/90/139
f 92/87/140 81/85/140 80/84/140
f 93/86/141 94/91/141 80/84/141
f 79/89/142 82/88/142 78/90/142
f 84/71/143 88/72/143 87/65/143
f 84/71/144 64/70/144 86/66/144
f 64/70/145 68/68/145 87/65/145
f 71/82/119 89/77/119 90/80/119
f 84/71/146 75/75/146 90/80/146
f 84/71/147 91/81/147 89/77/147
f 84/71/148 94/91/148 93/86/148
f 84/71/149 78/90/149 92/87/149
f 78/90/150 82/88/150 93/86/150
