# Blender 4.4.0
# www.blender.org
mtllib Crop_Bean_STAGE_2_01.mtl
o Crop_Bean_STAGE_2_01
v 0.112939 0.906482 -0.046599
v 0.091305 0.896089 -0.116540
v 0.105769 0.896734 0.026534
v 0.170162 0.874422 -0.051850
v 0.140221 0.871790 -0.124830
v 0.154431 0.872634 0.025488
v 0.229555 0.829112 -0.057226
v 0.040996 0.907890 -0.038522
v 0.036519 0.902211 -0.071306
v 0.042510 0.902564 -0.007966
v -0.071931 0.804179 -0.063867
v -0.078662 0.759654 -0.018096
v -0.036335 0.843311 -0.100531
v -0.090937 0.771829 -0.106952
v -0.097854 0.731635 -0.051911
v -0.052922 0.819736 -0.137848
v -0.091052 0.731070 -0.149340
v -0.028167 0.822230 -0.022496
v -0.033198 0.799893 -0.005922
v -0.014269 0.837016 -0.042155
v -0.148065 0.811389 -0.008387
v -0.135422 0.791964 0.030302
v -0.272590 0.702929 0.020887
v -0.236362 0.775137 -0.034280
v -0.198389 0.735135 0.075847
v -0.203002 0.803759 -0.032350
v -0.165915 0.766372 0.072515
v -0.200108 0.787686 0.027557
v -0.125588 0.804607 0.001099
v -0.156737 0.782217 0.026264
v -0.153497 0.687763 -0.094636
v -0.113196 0.765538 -0.079130
v -0.192615 0.714073 -0.019237
v -0.114081 0.794272 -0.050901
v -0.189565 0.745656 0.006692
v -0.161366 0.768458 -0.035804
v 0.154601 0.592297 0.041669
v 0.157291 0.567766 -0.017527
v 0.158031 0.585477 0.013082
v 0.332455 0.488390 0.055116
v 0.254659 0.566595 0.102669
v 0.260976 0.512837 -0.037578
v 0.280706 0.538838 0.033902
v 0.210535 0.594044 0.086467
v 0.215883 0.542829 -0.047074
v 0.229077 0.575674 0.017482
v 0.181733 0.586865 0.016741
v 0.124509 0.577514 0.003113
v 0.154250 0.587763 0.010312
v 0.199669 0.542733 -0.174298
v 0.245327 0.591142 -0.076090
v 0.109704 0.570875 -0.108451
v 0.181032 0.586168 -0.112011
v 0.229645 0.601114 -0.029032
v 0.099854 0.581012 -0.059029
v 0.165179 0.603026 -0.054367
v 0.005352 0.750168 0.120488
v 0.031774 0.685868 0.102570
v -0.044563 0.802230 0.123021
v -0.005966 0.737615 0.174593
v 0.032577 0.674472 0.153556
v -0.047304 0.794826 0.173456
v -0.031817 0.714040 0.227951
v -0.019082 0.744692 0.054999
v -0.007591 0.715500 0.051968
v -0.041330 0.766358 0.060312
v 0.074950 0.593278 0.106041
v 0.104548 0.534270 0.088536
v 0.022266 0.636213 0.115778
v 0.078128 0.586108 0.159392
v 0.117969 0.529325 0.136132
v 0.031750 0.634512 0.163371
v 0.069426 0.566738 0.216257
v 0.039208 0.577926 0.051860
v 0.049963 0.552809 0.046144
v 0.016852 0.596074 0.060180
v 0.112664 0.905477 -0.046567
v 0.169613 0.873562 -0.051793
v -0.071124 0.803556 -0.064084
v -0.089974 0.771448 -0.106841
v -0.027543 0.821534 -0.022884
v -0.199946 0.786828 0.026701
v -0.160422 0.767746 -0.035791
v 0.280025 0.538116 0.034148
v 0.228657 0.574776 0.017811
v 0.181062 0.585237 -0.111560
v 0.165325 0.601995 -0.054314
v 0.004484 0.749582 0.120554
v -0.006785 0.737129 0.174208
v -0.019845 0.744128 0.055352
v 0.074219 0.592597 0.106364
v 0.077327 0.585480 0.159258
v 0.038636 0.577319 0.052434
v -0.020308 -0.000000 0.040617
v -0.020308 -0.000000 -0.020308
v 0.040617 0.000000 -0.020308
v -0.020308 1.145385 0.040617
v -0.020308 1.145384 -0.020308
v 0.040617 1.145384 -0.020308
v 0.006313 0.001340 0.012633
v -0.028705 0.000000 -0.022410
v -0.063723 -0.001340 0.012633
v -0.028705 0.000000 0.047677
v -0.004925 0.146439 0.014328
v -0.034584 0.141137 -0.014506
v -0.062710 0.156775 0.011609
v -0.033052 0.162077 0.040240
v 0.028173 0.201973 -0.041104
v 0.001166 0.207495 -0.074909
v -0.026002 0.230260 -0.049486
v 0.001005 0.224738 -0.015681
v 0.099237 0.324807 -0.031362
v 0.074761 0.338236 -0.065655
v 0.038878 0.338812 -0.039818
v 0.063355 0.325383 -0.005526
v 0.071065 0.537336 0.037331
v 0.045667 0.539452 -0.001139
v 0.008387 0.526468 0.022759
v 0.033785 0.524352 0.061229
v 0.015766 0.705700 0.060317
v -0.002320 0.698029 0.027656
v -0.032785 0.686241 0.047294
v -0.014699 0.693912 0.079955
v -0.022712 0.778047 0.046721
v -0.037717 0.760617 0.017868
v -0.071291 0.765513 0.032370
v -0.056286 0.782943 0.061224
v 0.005024 0.834702 -0.019936
v -0.006754 0.826810 -0.054002
v -0.033437 0.852072 -0.050629
v -0.021659 0.859964 -0.016563
v 0.073222 0.894705 -0.023702
v 0.074438 0.897418 -0.044604
v 0.050088 0.906183 -0.044506
v 0.049695 0.904320 -0.021785
v -0.041697 0.786533 0.041511
v -0.041513 0.771780 0.024729
v -0.052306 0.757026 0.037581
v -0.052490 0.771780 0.054363
v -0.125283 0.815019 0.010608
v -0.121665 0.803845 -0.000084
v -0.125280 0.792557 0.010490
v -0.128898 0.803732 0.021182
v -0.171053 0.797432 -0.003653
v -0.164014 0.787079 -0.013067
v -0.163539 0.776723 -0.001323
v -0.170578 0.787077 0.008091
v 0.032317 0.544680 0.024948
v 0.040964 0.531902 0.039058
v 0.047135 0.519123 0.023703
v 0.038488 0.531902 0.009593
v 0.130564 0.593134 0.016652
v 0.132411 0.585600 0.024231
v 0.132581 0.577930 0.016565
v 0.130734 0.585465 0.008986
v 0.179963 0.580118 0.009986
v 0.167097 0.576177 0.019400
v 0.171080 0.570741 0.007488
vn 0.3955 0.8828 -0.2535
vn 0.4408 0.8831 0.1609
vn 0.6085 0.7808 0.1418
vn 0.5702 0.7786 -0.2620
vn 0.0001 0.9853 -0.1707
vn 0.0383 0.9847 0.1697
vn -0.9074 0.3600 0.2167
vn -0.7668 0.6388 -0.0627
vn -0.8273 0.4061 -0.3882
vn -0.9947 0.0755 -0.0699
vn -0.6888 0.5256 0.4993
vn -0.5445 0.8085 0.2232
vn -0.6444 0.5059 0.5735
vn -0.7348 0.6042 0.3082
vn -0.6416 0.7325 0.2275
vn -0.4917 0.5804 0.6491
vn -0.0781 0.8805 0.4676
vn -0.7995 0.3010 -0.5198
vn -0.5859 0.4393 -0.6810
vn -0.5196 0.5906 -0.6175
vn -0.8517 0.3792 -0.3617
vn -0.6416 0.7576 -0.1201
vn 0.7180 0.5666 -0.4043
vn 0.7023 0.7115 -0.0212
vn 0.5465 0.8341 -0.0752
vn 0.5562 0.6892 -0.4643
vn 0.1487 0.8544 -0.4980
vn 0.1465 0.9660 -0.2129
vn -0.1963 0.7758 -0.5997
vn 0.2220 0.8297 -0.5122
vn 0.0978 0.9797 -0.1750
vn -0.2934 0.9233 -0.2479
vn -0.3556 0.9213 0.1573
vn -0.0211 0.9738 0.2262
vn 0.9293 0.3633 0.0666
vn 0.7182 0.6818 0.1391
vn 0.6737 0.4977 0.5463
vn 0.7942 0.3108 0.5221
vn 0.8581 0.3743 -0.3515
vn 0.6295 0.7188 -0.2950
vn 0.8537 0.4847 -0.1904
vn 0.6182 0.7802 -0.0953
vn 0.6961 0.6403 0.3246
vn 0.8354 0.4684 0.2874
vn 0.6935 0.4287 -0.5790
vn 0.4282 0.7551 -0.4964
vn -0.4637 -0.8614 0.2075
vn -0.4415 -0.8851 -0.1475
vn -0.5982 -0.7912 -0.1270
vn -0.5629 -0.7891 0.2457
vn -0.0138 -0.9849 0.1725
vn -0.0254 -0.9923 -0.1211
vn 0.9216 -0.3649 -0.1323
vn 0.7751 -0.6296 0.0532
vn 0.8369 -0.4073 0.3657
vn 0.9925 -0.1000 0.0699
vn 0.6812 -0.5535 -0.4791
vn 0.5668 -0.7684 -0.2971
vn 0.6429 -0.5175 -0.5647
vn 0.7276 -0.6079 -0.3179
vn 0.6398 -0.7294 -0.2422
vn 0.0961 -0.8766 -0.4715
vn 0.2504 -0.9271 -0.2788
vn 0.7931 -0.3149 0.5214
vn 0.5951 -0.4422 0.6710
vn 0.5338 -0.5842 0.6114
vn 0.6484 -0.7490 0.1362
vn 0.5438 -0.7919 0.2777
vn -0.7105 -0.5829 0.3941
vn -0.6960 -0.7169 0.0403
vn -0.5493 -0.8310 0.0882
vn -0.6131 -0.6798 0.4024
vn -0.1624 -0.8523 0.4971
vn -0.1536 -0.9612 0.2292
vn 0.1841 -0.7875 0.5881
vn -0.2030 -0.8376 0.5072
vn -0.0840 -0.9801 0.1797
vn 0.2002 -0.9241 0.3255
vn 0.3532 -0.9245 -0.1431
vn 0.0748 -0.9717 -0.2242
vn -0.8516 -0.4422 -0.2815
vn -0.7279 -0.6716 -0.1382
vn -0.6896 -0.4912 -0.5322
vn -0.7935 -0.3299 -0.5114
vn -0.8458 -0.4033 0.3493
vn -0.6810 -0.6502 0.3368
vn -0.8155 -0.5779 -0.0298
vn -0.6294 -0.7709 0.0979
vn -0.7098 -0.6340 -0.3069
vn -0.8291 -0.4868 -0.2750
vn -0.6756 -0.4601 0.5761
vn -0.4796 -0.6886 0.5439
vn -0.0000 1.0000 -0.0000
vn -1.0000 -0.0000 -0.0000
vn -0.0000 -0.0000 -1.0000
vn 0.7071 -0.0000 0.7071
vn 0.7057 0.0464 0.7070
vn 0.7044 0.0689 -0.7065
vn -0.7075 0.0101 -0.7066
vn -0.7075 0.0091 0.7066
vn 0.7216 0.1994 0.6629
vn 0.5358 -0.7347 -0.4161
vn -0.7228 -0.1911 -0.6641
vn -0.5563 0.7008 0.4465
vn 0.4553 -0.3640 0.8125
vn 0.7025 -0.3517 -0.6187
vn -0.4660 0.3509 -0.8122
vn -0.6984 0.3625 0.6172
vn 0.5726 -0.1824 0.7993
vn 0.8302 0.2754 -0.4847
vn -0.5736 0.1737 -0.8005
vn -0.8287 -0.2936 0.4765
vn 0.5248 0.0564 0.8493
vn 0.7953 0.3327 -0.5068
vn -0.5373 -0.0095 -0.8433
vn -0.8066 -0.2872 0.5167
vn 0.3982 0.3696 0.8396
vn 0.7930 0.3249 -0.5154
vn -0.4032 -0.3597 -0.8414
vn -0.8134 -0.2718 0.5143
vn 0.3963 0.5581 0.7290
vn 0.8357 -0.5381 -0.1096
vn -0.3992 -0.5376 -0.7427
vn -0.8481 0.5135 0.1309
vn 0.0938 -0.0338 0.9950
vn 0.6588 -0.7504 -0.0539
vn -0.0078 0.1243 -0.9922
vn -0.5434 0.8395 -0.0066
vn -0.0396 0.6726 0.7389
vn 0.4508 0.6729 -0.5866
vn -0.0298 -0.6441 -0.7644
vn -0.5214 -0.6437 0.5602
vn -0.4433 0.6843 0.5789
vn -0.0363 0.6847 -0.7279
vn 0.4474 -0.6835 -0.5767
vn 0.0440 -0.6832 0.7289
vn -0.3727 0.6341 -0.6775
vn -0.2541 0.6343 0.7301
vn 0.4580 -0.5841 0.6702
vn 0.3402 -0.5838 -0.7372
vn 0.0909 0.7050 -0.7033
vn 0.2831 0.7138 0.6406
vn -0.0936 -0.7049 0.7031
vn -0.2842 -0.7137 -0.6402
vn 0.3827 0.9202 0.0821
vn -0.8928 -0.3551 -0.2770
vn 0.4613 0.8595 -0.2203
vn 0.4936 0.8613 0.1203
vn -0.0086 0.9895 -0.1444
vn 0.0183 0.9908 0.1339
vn -0.9245 0.3538 0.1422
vn -0.8062 0.5856 -0.0840
vn -0.6504 0.5901 0.4784
vn -0.5541 0.7790 0.2935
vn -0.0781 0.8765 0.4750
vn -0.2441 0.9336 0.2623
vn -0.7129 0.6940 -0.1007
vn -0.5270 0.8037 -0.2764
vn 0.5980 0.7959 -0.0948
vn 0.6123 0.6736 -0.4140
vn 0.1336 0.8720 -0.4710
vn 0.1446 0.9651 -0.2181
vn 0.0718 0.9625 -0.2617
vn -0.2137 0.9202 -0.3279
vn -0.3256 0.9279 0.1814
vn -0.0637 0.9698 0.2352
vn 0.8581 0.4307 0.2794
vn 0.7724 0.5639 0.2924
vn 0.8153 0.4399 -0.3766
vn 0.6698 0.6589 -0.3424
vn 0.8235 0.5667 0.0271
vn 0.7232 0.6889 0.0495
vn 0.6317 0.4941 -0.5973
vn 0.4656 0.6954 -0.5474
vn -0.3988 -0.8849 0.2405
vn -0.4935 -0.8631 -0.1073
vn -0.0008 -0.9911 0.1332
vn -0.0521 -0.9842 -0.1690
vn 0.9053 -0.3714 -0.2061
vn 0.8136 -0.5766 0.0743
vn 0.6536 -0.5981 -0.4638
vn 0.5607 -0.7899 -0.2484
vn 0.5009 -0.5884 -0.6348
vn 0.0960 -0.8804 -0.4644
vn 0.8415 -0.3891 0.3749
vn 0.7056 -0.6983 0.1209
vn -0.6000 -0.7928 0.1074
vn -0.5580 -0.6957 0.4524
vn -0.1414 -0.8768 0.4596
vn -0.1602 -0.9643 0.2108
vn -0.0582 -0.9623 0.2657
vn 0.2797 -0.9280 0.2461
vn 0.3119 -0.9336 -0.1763
vn 0.0177 -0.9771 -0.2121
vn -0.9240 -0.3761 -0.0695
vn -0.7809 -0.5522 -0.2922
vn -0.8128 -0.4519 0.3677
vn -0.6512 -0.6966 0.3012
vn -0.8470 -0.4976 0.1871
vn -0.7336 -0.6779 -0.0481
vn -0.6294 -0.5072 0.5887
vn -0.4521 -0.7343 0.5063
vn 0.6920 0.0516 0.7200
vn 0.6900 0.0619 -0.7211
vn -0.6805 -0.0004 -0.7327
vn -0.6958 0.0143 0.7181
vn 0.7500 0.1864 0.6346
vn 0.4824 -0.7174 -0.5026
vn -0.7480 -0.1788 -0.6392
vn -0.5096 0.6862 0.5192
vn 0.5386 -0.3716 0.7562
vn 0.6921 -0.3503 -0.6311
vn -0.5416 0.3587 -0.7602
vn -0.6862 0.3614 0.6313
vn 0.5748 -0.1822 0.7977
vn 0.8092 0.2751 -0.5191
vn -0.8053 -0.2927 0.5156
vn 0.5254 0.0565 0.8490
vn 0.7908 0.3301 -0.5154
vn -0.5392 -0.0096 -0.8422
vn -0.8076 -0.2878 0.5148
vn 0.4134 0.3683 0.8327
vn 0.7421 0.3283 -0.5843
vn -0.4138 -0.3585 -0.8368
vn -0.7774 -0.2707 0.5678
vn 0.5590 0.5024 0.6596
vn 0.8193 -0.5519 -0.1554
vn -0.5461 -0.4857 -0.6826
vn -0.8346 0.5250 0.1669
vn 0.0730 -0.0203 0.9971
vn 0.6576 -0.7511 -0.0592
vn 0.0309 0.0969 -0.9948
vn -0.5238 0.8497 0.0606
vn -0.0329 0.6889 0.7241
vn 0.4459 0.6899 -0.5702
vn -0.0425 -0.6758 -0.7359
vn -0.5127 -0.6744 0.5313
vn -0.4522 0.6599 0.6001
vn -0.0316 0.6606 -0.7501
vn 0.4571 -0.6579 -0.5986
vn 0.0397 -0.6573 0.7526
vn -0.3766 0.6507 -0.6593
vn -0.2614 0.6519 0.7118
vn 0.4664 -0.6202 0.6308
vn 0.3545 -0.6185 -0.7013
vn 0.0435 0.2185 -0.9749
vn 0.2730 0.6958 0.6643
vn -0.0788 -0.9166 0.3919
vn 0.3359 0.9314 0.1404
vn 0.5631 -0.6644 0.4914
vt 0.216752 0.175803
vt 0.217321 0.173972
vt 0.217258 0.175265
vt 0.216227 0.174016
vt 0.216223 0.175315
vt 0.216829 0.171710
vt 0.216790 0.174107
vt 0.216931 0.175577
vt 0.216702 0.175877
vt 0.216470 0.175596
vt 0.216877 0.170391
vt 0.216789 0.166557
vt 0.216542 0.168058
vt 0.217415 0.171221
vt 0.217134 0.172479
vt 0.217499 0.166523
vt 0.217191 0.168679
vt 0.216456 0.170164
vt 0.216576 0.171346
vt 0.216719 0.172129
vt 0.216224 0.169471
vt 0.216261 0.165035
vt 0.215861 0.166744
vt 0.216662 0.168859
vt 0.216645 0.170407
vt 0.215887 0.168407
vt 0.216193 0.169747
vt 0.216471 0.170669
vt 0.216666 0.168461
vt 0.217101 0.164232
vt 0.216552 0.165629
vt 0.216988 0.168351
vt 0.216775 0.169899
vt 0.216362 0.167317
vt 0.216222 0.169230
vt 0.216399 0.170344
vt 0.216166 0.156353
vt 0.216012 0.153684
vt 0.216687 0.154982
vt 0.215666 0.157826
vt 0.216286 0.158302
vt 0.215789 0.159293
vt 0.216754 0.156584
vt 0.216540 0.157884
vt 0.216338 0.158762
vt 0.216110 0.159181
vt 0.217227 0.158857
vt 0.217680 0.156559
vt 0.217199 0.158053
vt 0.216964 0.159125
vt 0.216808 0.159749
vt 0.216612 0.159651
vt 0.216835 0.158591
vt 0.216390 0.158399
vt 0.216341 0.158926
vt 0.216291 0.158894
vt 0.215536 0.167533
vt 0.215299 0.163527
vt 0.215681 0.164171
vt 0.215155 0.169915
vt 0.215545 0.170256
vt 0.214755 0.165622
vt 0.215143 0.166869
vt 0.216035 0.165699
vt 0.216013 0.167244
vt 0.215974 0.168390
vt 0.215641 0.159233
vt 0.215426 0.155846
vt 0.215782 0.156133
vt 0.215229 0.161428
vt 0.215596 0.161455
vt 0.214840 0.157829
vt 0.215253 0.158854
vt 0.216077 0.157092
vt 0.216036 0.158421
vt 0.215975 0.159381
vt 0.216751 0.175750
vt 0.216789 0.174062
vt 0.216879 0.170358
vt 0.217190 0.168659
vt 0.216579 0.171309
vt 0.216227 0.169419
vt 0.216665 0.168415
vt 0.216164 0.156315
vt 0.216283 0.158254
vt 0.217224 0.158808
vt 0.216808 0.159694
vt 0.215536 0.167502
vt 0.215146 0.166844
vt 0.216010 0.167214
vt 0.215639 0.159197
vt 0.215254 0.158821
vt 0.216031 0.158389
vt 0.223827 0.987941
vt 0.224800 0.987941
vt 0.223827 0.829171
vt 0.224800 0.829171
vt 0.229681 0.071394
vt 0.229373 0.063837
vt 0.229696 0.063921
vt 0.229932 0.071082
vt 0.230019 0.063837
vt 0.229696 0.063753
vt 0.229705 0.072002
vt 0.229942 0.076000
vt 0.229456 0.072314
vt 0.230163 0.074661
vt 0.230236 0.076325
vt 0.229854 0.081921
vt 0.230377 0.082677
vt 0.230457 0.074986
vt 0.230152 0.082711
vt 0.229481 0.094390
vt 0.230079 0.081887
vt 0.229816 0.094514
vt 0.229608 0.093750
vt 0.229281 0.104294
vt 0.229273 0.093626
vt 0.229565 0.103843
vt 0.229395 0.103150
vt 0.229400 0.108550
vt 0.229111 0.103601
vt 0.229650 0.107525
vt 0.229273 0.108838
vt 0.229950 0.113369
vt 0.229979 0.111883
vt 0.230246 0.112905
vt 0.229524 0.107813
vt 0.229995 0.115982
vt 0.230194 0.115573
vt 0.230275 0.111419
vt 0.230193 0.116088
vt 0.216111 0.169457
vt 0.216259 0.170367
vt 0.216017 0.168677
vt 0.216413 0.170373
vt 0.216233 0.168677
vt 0.216336 0.169776
vt 0.216139 0.167896
vt 0.216439 0.170034
vt 0.216336 0.170964
vt 0.216508 0.169486
vt 0.216354 0.169486
vt 0.216231 0.156662
vt 0.216347 0.158820
vt 0.216343 0.155986
vt 0.216236 0.158827
vt 0.216129 0.155986
vt 0.216292 0.158421
vt 0.216240 0.155310
vt 0.216340 0.158537
vt 0.216292 0.159226
vt 0.216272 0.158328
vt 0.216358 0.158045
vt 0.230012 0.115413
vt 0.216422 0.168938
s 0
usemtl Texture_Map
f 1/1/1 5/2/1 2/3/1
f 6/4/2 1/1/2 3/5/2
f 6/4/3 7/6/3 4/7/3
f 4/7/4 7/6/4 5/2/4
f 1/1/5 9/8/5 8/9/5
f 10/10/6 1/1/6 8/9/6
f 11/11/7 15/12/7 12/13/7
f 16/14/8 11/11/8 13/15/8
f 16/14/9 17/16/9 14/17/9
f 14/17/10 17/16/10 15/12/10
f 11/11/11 19/18/11 18/19/11
f 20/20/12 11/11/12 18/19/12
f 28/21/13 23/22/13 25/23/13
f 24/24/14 23/22/14 28/21/14
f 24/24/15 28/21/15 26/25/15
f 28/21/16 25/23/16 27/26/16
f 28/21/17 22/27/17 21/28/17
f 36/29/18 31/30/18 33/31/18
f 32/32/19 31/30/19 36/29/19
f 32/32/20 36/29/20 34/33/20
f 36/29/21 33/31/21 35/34/21
f 36/29/22 30/35/22 29/36/22
f 43/37/23 40/38/23 42/39/23
f 41/40/24 40/38/24 43/37/24
f 41/40/25 46/41/25 44/42/25
f 46/41/26 42/39/26 45/43/26
f 46/41/27 38/44/27 39/45/27
f 37/46/28 46/41/28 39/45/28
f 53/47/29 50/48/29 52/49/29
f 51/50/30 50/48/30 53/47/30
f 51/50/31 56/51/31 54/52/31
f 56/51/32 52/49/32 55/53/32
f 56/51/33 48/54/33 49/55/33
f 47/56/34 56/51/34 49/55/34
f 57/57/35 61/58/35 58/59/35
f 62/60/36 57/57/36 59/61/36
f 62/60/37 63/62/37 60/63/37
f 60/63/38 63/62/38 61/58/38
f 57/57/39 65/64/39 64/65/39
f 66/66/40 57/57/40 64/65/40
f 67/67/41 71/68/41 68/69/41
f 72/70/42 67/67/42 69/71/42
f 72/70/43 73/72/43 70/73/43
f 70/73/44 73/72/44 71/68/44
f 67/67/45 75/74/45 74/75/45
f 76/76/46 67/67/46 74/75/46
f 77/77/47 5/2/47 78/78/47
f 77/77/48 6/4/48 3/5/48
f 6/4/49 78/78/49 7/6/49
f 78/78/50 5/2/50 7/6/50
f 9/8/51 77/77/51 8/9/51
f 10/10/52 77/77/52 3/5/52
f 79/79/53 15/12/53 80/80/53
f 79/79/54 16/14/54 13/15/54
f 16/14/55 80/80/55 17/16/55
f 80/80/56 15/12/56 17/16/56
f 19/18/57 79/79/57 81/81/57
f 20/20/58 79/79/58 13/15/58
f 82/82/59 25/23/59 23/22/59
f 24/24/60 82/82/60 23/22/60
f 82/82/61 24/24/61 26/25/61
f 22/27/62 82/82/62 21/28/62
f 21/28/63 82/82/63 26/25/63
f 83/83/64 33/31/64 31/30/64
f 32/32/65 83/83/65 31/30/65
f 83/83/66 32/32/66 34/33/66
f 30/35/67 83/83/67 29/36/67
f 29/36/68 83/83/68 34/33/68
f 84/84/69 42/39/69 40/38/69
f 41/40/70 84/84/70 40/38/70
f 85/85/71 41/40/71 44/42/71
f 85/85/72 42/39/72 84/84/72
f 38/44/73 85/85/73 39/45/73
f 37/46/74 85/85/74 44/42/74
f 86/86/75 52/49/75 50/48/75
f 51/50/76 86/86/76 50/48/76
f 87/87/77 51/50/77 54/52/77
f 87/87/78 52/49/78 86/86/78
f 48/54/79 87/87/79 49/55/79
f 47/56/80 87/87/80 54/52/80
f 88/88/81 61/58/81 89/89/81
f 88/88/82 62/60/82 59/61/82
f 62/60/83 89/89/83 63/62/83
f 89/89/84 61/58/84 63/62/84
f 65/64/85 88/88/85 90/90/85
f 66/66/86 88/88/86 59/61/86
f 91/91/87 71/68/87 92/92/87
f 91/91/88 72/70/88 69/71/88
f 72/70/89 92/92/89 73/72/89
f 92/92/90 71/68/90 73/72/90
f 75/74/91 91/91/91 93/93/91
f 76/76/92 91/91/92 69/71/92
f 97/94/93 99/95/93 98/95/93
f 94/96/94 98/95/94 95/97/94
f 95/97/95 99/95/95 96/97/95
f 94/96/96 99/95/96 97/94/96
f 104/98/97 103/99/97 100/100/97
f 105/101/98 100/100/98 101/102/98
f 102/103/99 105/101/99 101/102/99
f 103/99/100 106/104/100 102/103/100
f 104/98/101 111/105/101 107/106/101
f 105/101/102 108/107/102 104/98/102
f 110/108/103 105/101/103 106/104/103
f 111/105/104 106/104/104 107/106/104
f 108/107/105 115/109/105 111/105/105
f 113/110/106 108/107/106 109/111/106
f 114/112/107 109/111/107 110/108/107
f 111/105/108 114/112/108 110/108/108
f 116/113/109 115/109/109 112/114/109
f 117/115/110 112/114/110 113/110/110
f 114/112/111 117/115/111 113/110/111
f 115/109/112 118/116/112 114/112/112
f 120/117/113 119/118/113 116/113/113
f 121/119/114 116/113/114 117/115/114
f 118/116/115 121/119/115 117/115/115
f 119/118/116 122/120/116 118/116/116
f 124/121/117 123/122/117 120/117/117
f 121/119/118 124/121/118 120/117/118
f 122/120/119 125/123/119 121/119/119
f 127/124/120 122/120/120 123/122/120
f 124/121/121 131/125/121 127/124/121
f 125/123/122 128/126/122 124/121/122
f 130/127/123 125/123/123 126/128/123
f 131/125/124 126/128/124 127/124/124
f 128/126/125 135/129/125 131/125/125
f 133/130/126 128/126/126 129/131/126
f 134/132/127 129/131/127 130/127/127
f 131/125/128 134/132/128 130/127/128
f 136/133/129 143/134/129 139/135/129
f 141/136/130 136/133/130 137/137/130
f 142/138/131 137/137/131 138/139/131
f 139/135/132 142/138/132 138/139/132
f 144/140/133 143/134/133 140/141/133
f 141/136/134 144/140/134 140/141/134
f 142/138/135 145/142/135 141/136/135
f 147/143/136 142/138/136 143/134/136
f 148/144/137 155/145/137 151/146/137
f 153/147/138 148/144/138 149/148/138
f 154/149/139 149/148/139 150/150/139
f 151/146/140 154/149/140 150/150/140
f 156/151/141 155/145/141 152/152/141
f 157/153/142 152/152/142 153/147/142
f 154/149/143 157/153/143 153/147/143
f 155/145/144 158/154/144 154/149/144
f 132/155/145 134/132/145 135/129/145
f 147/143/146 145/142/146 146/156/146
f 1/1/147 4/7/147 5/2/147
f 6/4/148 4/7/148 1/1/148
f 1/1/149 2/3/149 9/8/149
f 10/10/150 3/5/150 1/1/150
f 11/11/151 14/17/151 15/12/151
f 16/14/152 14/17/152 11/11/152
f 11/11/153 12/13/153 19/18/153
f 20/20/154 13/15/154 11/11/154
f 28/21/155 27/26/155 22/27/155
f 21/28/156 26/25/156 28/21/156
f 36/29/157 35/34/157 30/35/157
f 29/36/158 34/33/158 36/29/158
f 41/40/159 43/37/159 46/41/159
f 46/41/160 43/37/160 42/39/160
f 46/41/161 45/43/161 38/44/161
f 37/46/162 44/42/162 46/41/162
f 51/50/163 53/47/163 56/51/163
f 56/51/164 53/47/164 52/49/164
f 56/51/165 55/53/165 48/54/165
f 47/56/166 54/52/166 56/51/166
f 57/57/167 60/63/167 61/58/167
f 62/60/168 60/63/168 57/57/168
f 57/57/169 58/59/169 65/64/169
f 66/66/170 59/61/170 57/57/170
f 67/67/171 70/73/171 71/68/171
f 72/70/172 70/73/172 67/67/172
f 67/67/173 68/69/173 75/74/173
f 76/76/174 69/71/174 67/67/174
f 77/77/175 2/3/175 5/2/175
f 77/77/176 78/78/176 6/4/176
f 9/8/177 2/3/177 77/77/177
f 10/10/178 8/9/178 77/77/178
f 79/79/179 12/13/179 15/12/179
f 79/79/180 80/80/180 16/14/180
f 19/18/181 12/13/181 79/79/181
f 20/20/182 81/81/182 79/79/182
f 82/82/183 27/26/183 25/23/183
f 22/27/184 27/26/184 82/82/184
f 83/83/185 35/34/185 33/31/185
f 30/35/186 35/34/186 83/83/186
f 85/85/187 84/84/187 41/40/187
f 85/85/188 45/43/188 42/39/188
f 38/44/189 45/43/189 85/85/189
f 37/46/190 39/45/190 85/85/190
f 87/87/191 86/86/191 51/50/191
f 87/87/192 55/53/192 52/49/192
f 48/54/193 55/53/193 87/87/193
f 47/56/194 49/55/194 87/87/194
f 88/88/195 58/59/195 61/58/195
f 88/88/196 89/89/196 62/60/196
f 65/64/197 58/59/197 88/88/197
f 66/66/198 90/90/198 88/88/198
f 91/91/199 68/69/199 71/68/199
f 91/91/200 92/92/200 72/70/200
f 75/74/201 68/69/201 91/91/201
f 76/76/202 93/93/202 91/91/202
f 94/96/94 97/94/94 98/95/94
f 95/97/95 98/95/95 99/95/95
f 94/96/96 96/97/96 99/95/96
f 104/98/203 107/106/203 103/99/203
f 105/101/204 104/98/204 100/100/204
f 102/103/205 106/104/205 105/101/205
f 103/99/206 107/106/206 106/104/206
f 104/98/207 108/107/207 111/105/207
f 105/101/208 109/111/208 108/107/208
f 110/108/209 109/111/209 105/101/209
f 111/105/210 110/108/210 106/104/210
f 108/107/211 112/114/211 115/109/211
f 113/110/212 112/114/212 108/107/212
f 114/112/213 113/110/213 109/111/213
f 111/105/214 115/109/214 114/112/214
f 116/113/215 119/118/215 115/109/215
f 117/115/216 116/113/216 112/114/216
f 114/112/111 118/116/111 117/115/111
f 115/109/217 119/118/217 118/116/217
f 120/117/218 123/122/218 119/118/218
f 121/119/219 120/117/219 116/113/219
f 118/116/220 122/120/220 121/119/220
f 119/118/221 123/122/221 122/120/221
f 124/121/222 127/124/222 123/122/222
f 121/119/223 125/123/223 124/121/223
f 122/120/224 126/128/224 125/123/224
f 127/124/225 126/128/225 122/120/225
f 124/121/226 128/126/226 131/125/226
f 125/123/227 129/131/227 128/126/227
f 130/127/228 129/131/228 125/123/228
f 131/125/229 130/127/229 126/128/229
f 128/126/230 132/155/230 135/129/230
f 133/130/231 132/155/231 128/126/231
f 134/132/232 133/130/232 129/131/232
f 131/125/233 135/129/233 134/132/233
f 136/133/234 140/141/234 143/134/234
f 141/136/235 140/141/235 136/133/235
f 142/138/236 141/136/236 137/137/236
f 139/135/237 143/134/237 142/138/237
f 144/140/238 147/143/238 143/134/238
f 141/136/239 145/142/239 144/140/239
f 142/138/240 146/156/240 145/142/240
f 147/143/241 146/156/241 142/138/241
f 148/144/242 152/152/242 155/145/242
f 153/147/243 152/152/243 148/144/243
f 154/149/244 153/147/244 149/148/244
f 151/146/245 155/145/245 154/149/245
f 156/151/246 158/154/246 155/145/246
f 157/153/247 156/151/247 152/152/247
f 154/149/248 158/154/248 157/153/248
f 132/155/249 133/130/249 134/132/249
f 147/143/146 144/140/146 145/142/146
f 156/151/250 157/153/250 158/154/250
