# Blender 4.4.0
# www.blender.org
mtllib Crop_Radish_STAGE_3_01.mtl
o Crop_Radish_STAGE_3_01
v -0.119469 0.260186 0.020518
v -0.119469 0.260186 -0.022918
v -0.123885 0.261986 -0.001197
v -0.087686 0.241697 0.035300
v -0.087686 0.241697 -0.037726
v -0.094711 0.239429 -0.001205
v -0.044766 0.202298 0.025402
v -0.045731 0.201277 -0.027865
v -0.052130 0.193936 -0.001078
v -0.040093 0.196686 0.032179
v -0.041457 0.195263 -0.034647
v -0.044251 0.184328 -0.001219
v -0.014923 0.135826 0.004486
v -0.015386 0.135146 -0.006958
v -0.012100 0.133734 -0.001236
v -0.001382 0.042180 0.000267
v -0.001663 0.041778 -0.001826
v -0.002761 0.041982 -0.000780
v -0.006876 0.087345 0.004486
v -0.005002 0.087011 -0.001236
v -0.007259 0.086665 -0.006958
v 0.119893 0.260186 -0.021619
v 0.119893 0.260186 0.021816
v 0.124299 0.261986 0.000102
v 0.088148 0.241697 -0.036428
v 0.088148 0.241697 0.036599
v 0.095150 0.239429 0.000093
v 0.045285 0.202298 -0.026568
v 0.046250 0.201277 0.026700
v 0.052646 0.193936 -0.000085
v 0.040618 0.196686 -0.033349
v 0.041982 0.195263 0.033477
v 0.044775 0.184328 0.000050
v 0.015355 0.135826 -0.005659
v 0.015744 0.135146 0.005785
v 0.014371 0.133734 0.000063
v 0.001832 0.042180 -0.000905
v 0.002115 0.041778 0.001188
v 0.003206 0.041982 0.000141
v 0.006577 0.087345 -0.005659
v 0.005544 0.087011 0.000063
v 0.006930 0.086665 0.005785
v -0.120046 0.258879 0.020857
v -0.120046 0.258879 -0.023257
v -0.124474 0.260632 -0.001197
v -0.088462 0.240424 0.035753
v -0.088473 0.240428 -0.038163
v -0.095575 0.237721 -0.001199
v -0.045833 0.201311 0.025928
v -0.046826 0.200289 -0.028335
v -0.053327 0.192799 -0.001045
v -0.041327 0.195896 0.032607
v -0.042719 0.194473 -0.034986
v -0.045596 0.183483 -0.001173
v -0.016445 0.135167 0.004532
v -0.016902 0.134506 -0.006862
v -0.013647 0.133262 -0.001189
v -0.002440 0.042141 0.000121
v -0.002619 0.041744 -0.001505
v -0.003096 0.041945 -0.000656
v -0.008364 0.087189 0.004126
v -0.006590 0.086857 -0.001154
v -0.008709 0.086523 -0.006474
v 0.120470 0.258879 -0.021958
v 0.120470 0.258879 0.022155
v 0.124888 0.260632 0.000102
v 0.088925 0.240424 -0.036881
v 0.088936 0.240428 0.037035
v 0.096016 0.237721 0.000086
v 0.046352 0.201311 -0.027094
v 0.047345 0.200289 0.027169
v 0.053843 0.192799 -0.000119
v 0.041846 0.195902 -0.033802
v 0.043237 0.194478 0.033844
v 0.046126 0.183482 0.000004
v 0.016809 0.135199 -0.005854
v 0.017211 0.134530 0.005851
v 0.015873 0.133245 0.000011
v 0.002911 0.042143 -0.000961
v 0.003099 0.041746 0.001070
v 0.003522 0.041948 0.000050
v 0.008096 0.087165 -0.005571
v 0.007071 0.086843 -0.000014
v 0.008435 0.086499 0.005563
v 0.021220 0.260105 0.119586
v -0.022217 0.260105 0.119586
v -0.000494 0.261966 0.123995
v 0.036013 0.241534 0.087865
v -0.037050 0.241535 0.087865
v -0.000507 0.238952 0.094949
v 0.026094 0.202286 0.044949
v -0.027184 0.201266 0.045913
v -0.000392 0.193884 0.052340
v 0.032857 0.196701 0.040262
v -0.033954 0.195280 0.041625
v -0.000535 0.184291 0.044448
v 0.005170 0.135826 0.015104
v -0.006274 0.135146 0.015567
v -0.000552 0.133734 0.012281
v 0.000718 0.042180 0.001471
v -0.001375 0.041778 0.001753
v -0.000329 0.041982 0.002850
v 0.005170 0.087345 0.007057
v -0.000552 0.087011 0.005182
v -0.006274 0.086665 0.007440
v -0.021259 0.260186 -0.118453
v 0.022177 0.260186 -0.118453
v 0.000463 0.261986 -0.122865
v -0.036074 0.241697 -0.086683
v 0.036953 0.241697 -0.086683
v 0.000451 0.239429 -0.093700
v -0.026223 0.202298 -0.043783
v 0.027044 0.201277 -0.044748
v 0.000260 0.193936 -0.051146
v -0.033006 0.196686 -0.039112
v 0.033821 0.195263 -0.040476
v 0.000394 0.184328 -0.043270
v -0.005316 0.135826 -0.013847
v 0.006129 0.135146 -0.014235
v 0.000406 0.133734 -0.012863
v -0.000777 0.042180 -0.000853
v 0.001316 0.041778 -0.001136
v 0.000269 0.041982 -0.002228
v -0.005316 0.087345 -0.005068
v 0.000406 0.087011 -0.004035
v 0.006129 0.086665 -0.005421
v 0.021558 0.258823 0.120158
v -0.022555 0.258823 0.120158
v -0.000494 0.260652 0.124576
v 0.036434 0.240463 0.088566
v -0.037453 0.240468 0.088576
v -0.000499 0.238176 0.095581
v 0.026603 0.201336 0.045989
v -0.027636 0.200316 0.046980
v -0.000359 0.192853 0.053459
v 0.033282 0.195915 0.041494
v -0.034291 0.194493 0.042884
v -0.000487 0.183523 0.045752
v 0.005217 0.135167 0.016625
v -0.006178 0.134506 0.017083
v -0.000505 0.133262 0.013827
v 0.000572 0.042141 0.002530
v -0.001053 0.041744 0.002708
v -0.000205 0.041945 0.003185
v 0.004810 0.087189 0.008545
v -0.000470 0.086857 0.006771
v -0.005790 0.086523 0.008890
v -0.021598 0.258879 -0.119030
v 0.022515 0.258879 -0.119030
v 0.000463 0.260632 -0.123454
v -0.036527 0.240424 -0.087459
v 0.037389 0.240428 -0.087470
v 0.000443 0.237721 -0.094564
v -0.026749 0.201311 -0.044850
v 0.027514 0.200289 -0.045843
v 0.000227 0.192799 -0.052343
v -0.033458 0.195902 -0.040340
v 0.034188 0.194477 -0.041731
v 0.000348 0.183482 -0.044620
v -0.005511 0.135199 -0.015300
v 0.006195 0.134530 -0.015702
v 0.000354 0.133245 -0.014365
v -0.000833 0.042143 -0.001932
v 0.001198 0.041746 -0.002120
v 0.000178 0.041948 -0.002543
v -0.005228 0.087165 -0.006587
v 0.000329 0.086843 -0.005563
v 0.005906 0.086499 -0.006926
v 0.008457 0.040490 -0.020417
v -0.008457 0.040490 -0.020417
v -0.020417 0.040490 -0.008457
v -0.020417 0.040490 0.008457
v -0.008457 0.040490 0.020417
v 0.008457 0.040490 0.020417
v 0.020417 0.040490 0.008457
v 0.020417 0.040490 -0.008457
v -0.027639 0.027119 -0.011448
v -0.011448 0.027119 0.027639
v -0.027639 0.027119 0.011448
v 0.027639 0.027119 0.011448
v 0.011448 0.027119 0.027639
v 0.027639 0.027119 -0.011448
v -0.011448 0.027119 -0.027639
v 0.011448 0.027119 -0.027639
v 0.011807 0.013748 -0.028506
v -0.011807 0.013748 -0.028506
v -0.028506 0.013748 -0.011807
v -0.028506 0.013748 0.011807
v -0.011807 0.013748 0.028506
v 0.011807 0.013748 0.028506
v 0.028506 0.013748 0.011807
v 0.028506 0.013748 -0.011807
v 0.009324 -0.000000 -0.022511
v -0.009324 -0.000000 -0.022511
v -0.022511 -0.000000 -0.009324
v -0.022511 -0.000000 0.009324
v -0.009324 -0.000000 0.022511
v 0.009324 -0.000000 0.022511
v 0.022511 -0.000000 0.009324
v 0.022511 -0.000000 -0.009324
v 0.003356 0.044413 -0.008102
v -0.003356 0.044413 -0.008102
v -0.008102 0.044413 -0.003356
v -0.008102 0.044413 0.003356
v -0.003356 0.044413 0.008102
v 0.003356 0.044413 0.008102
v 0.008102 0.044413 0.003356
v 0.008102 0.044413 -0.003356
v 0.002021 0.043032 -0.004878
v -0.002021 0.043032 -0.004878
v -0.004878 0.043032 -0.002021
v -0.004878 0.043032 0.002021
v -0.002021 0.043032 0.004878
v 0.002021 0.043032 0.004878
v 0.004878 0.043032 0.002021
v 0.004878 0.043032 -0.002021
vn 0.6106 0.7897 0.0587
vn 0.5501 0.8203 -0.1568
vn 0.8514 0.4733 0.2260
vn 0.6448 0.7452 -0.1704
vn 0.7112 0.5889 -0.3838
vn 0.8922 0.4019 0.2060
vn 0.8359 0.4726 -0.2790
vn 0.6621 0.7293 0.1727
vn 0.6024 0.0219 -0.7979
vn 0.6966 0.1666 0.6978
vn 0.8730 0.1463 -0.4652
vn 0.9429 0.1433 0.3006
vn -0.6109 0.7895 -0.0585
vn -0.5506 0.8200 0.1565
vn -0.8501 0.4754 -0.2266
vn -0.6454 0.7447 0.1700
vn -0.7117 0.5884 0.3836
vn -0.8925 0.4014 -0.2059
vn -0.8352 0.4737 0.2793
vn -0.6625 0.7289 -0.1724
vn -0.6024 0.0326 0.7975
vn -0.6987 0.1467 -0.7002
vn -0.9662 0.1757 0.1884
vn -0.9693 0.1831 -0.1643
vn -0.5549 -0.8152 -0.1663
vn -0.5548 -0.8152 0.1664
vn -0.7922 -0.5041 0.3441
vn -0.6426 -0.7452 0.1782
vn -0.7080 -0.5928 0.3838
vn -0.7267 -0.5984 -0.3374
vn -0.8364 -0.4717 0.2790
vn -0.6845 -0.6449 -0.3400
vn -0.9453 -0.0966 -0.3116
vn -0.9239 -0.0842 0.3733
vn -0.8716 -0.1450 0.4684
vn -0.9070 -0.1494 -0.3938
vn 0.5552 -0.8150 0.1661
vn 0.5553 -0.8149 -0.1661
vn 0.8537 -0.5141 -0.0824
vn 0.6433 -0.7447 -0.1778
vn 0.7087 -0.5920 -0.3836
vn 0.7272 -0.5979 0.3373
vn 0.8353 -0.4733 -0.2797
vn 0.6849 -0.6445 0.3400
vn 0.9800 -0.0949 0.1752
vn 0.9674 -0.0768 -0.2413
vn 0.9673 -0.1756 -0.1829
vn 0.9794 -0.1771 0.0973
vn -0.2288 0.3378 -0.9130
vn -0.8731 0.4398 0.2102
vn -0.8959 0.3892 -0.2144
vn -0.1732 0.4220 0.8899
vn 0.3366 0.1326 0.9323
vn 0.3318 0.1161 -0.9362
vn -0.2009 0.6902 0.6952
vn -0.2610 0.6347 -0.7273
vn 0.1802 -0.3510 0.9189
vn 0.3896 -0.2405 -0.8890
vn -0.1318 -0.1081 0.9854
vn -0.0593 -0.0099 -0.9982
vn -0.2302 -0.0470 0.9720
vn -0.3003 -0.1455 -0.9427
vn 0.2285 0.3377 0.9131
vn 0.8732 0.4399 -0.2098
vn 0.8959 0.3892 0.2141
vn 0.1736 0.4226 -0.8895
vn -0.3364 0.1329 -0.9323
vn -0.3323 0.1152 0.9361
vn 0.1908 0.6976 -0.6906
vn 0.2609 0.6346 0.7274
vn -0.2584 -0.3141 -0.9136
vn -0.4036 -0.2316 0.8851
vn -0.0548 -0.0988 -0.9936
vn -0.0418 0.0076 0.9991
vn 0.0555 -0.0160 -0.9983
vn 0.1331 -0.1147 0.9844
vn 0.0588 0.7824 -0.6200
vn -0.1652 0.8156 -0.5545
vn 0.2276 0.4735 -0.8509
vn -0.1772 0.7463 -0.6416
vn -0.3851 0.5897 -0.7099
vn 0.2079 0.4034 -0.8911
vn -0.2804 0.4728 -0.8354
vn 0.1794 0.7305 -0.6590
vn -0.7981 0.0272 -0.6019
vn 0.6983 0.1645 -0.6967
vn -0.4652 0.1463 -0.8730
vn 0.3006 0.1433 -0.9429
vn -0.0586 0.7897 0.6107
vn 0.1567 0.8201 0.5503
vn -0.2266 0.4754 0.8501
vn 0.1702 0.7449 0.6451
vn 0.3837 0.5886 0.7115
vn -0.2060 0.4018 0.8923
vn 0.2793 0.4738 0.8352
vn -0.1726 0.7292 0.6621
vn 0.7970 0.0218 0.6036
vn -0.7012 0.1419 0.6987
vn 0.1884 0.1757 0.9662
vn -0.1643 0.1831 0.9693
vn -0.1552 -0.8206 0.5501
vn 0.1553 -0.8206 0.5500
vn 0.3444 -0.5035 0.7924
vn 0.1688 -0.7449 0.6455
vn 0.3827 -0.5915 0.7097
vn -0.3363 -0.5970 0.7283
vn 0.2784 -0.4712 0.8369
vn -0.3390 -0.6410 0.6886
vn -0.3115 -0.0969 0.9453
vn 0.3730 -0.0717 0.9251
vn 0.4684 -0.1450 0.8716
vn -0.3938 -0.1494 0.9070
vn 0.1663 -0.8151 -0.5549
vn -0.1662 -0.8150 -0.5551
vn -0.0824 -0.5142 -0.8537
vn -0.1780 -0.7449 -0.6430
vn -0.3837 -0.5922 -0.7085
vn 0.3373 -0.5981 -0.7269
vn -0.2797 -0.4733 -0.8353
vn 0.3401 -0.6449 -0.6844
vn 0.1759 -0.0842 -0.9808
vn -0.2408 -0.0643 -0.9684
vn -0.1829 -0.1756 -0.9673
vn 0.0973 -0.1771 -0.9794
vn -0.9121 0.3416 0.2265
vn 0.2113 0.4439 0.8708
vn -0.2151 0.3948 0.8932
vn 0.8809 0.4473 0.1548
vn 0.9325 0.1319 -0.3362
vn -0.9318 0.1251 -0.3406
vn 0.6952 0.6903 0.2004
vn -0.7266 0.6365 0.2586
vn 0.9190 -0.3508 -0.1801
vn -0.8893 -0.2409 -0.3887
vn 0.9848 -0.1133 0.1315
vn -0.9982 -0.0099 0.0593
vn 0.9720 -0.0470 0.2302
vn -0.9431 -0.1413 0.3009
vn 0.9132 0.3375 -0.2283
vn -0.2101 0.4399 -0.8731
vn 0.2143 0.3892 -0.8959
vn -0.8895 0.4226 -0.1736
vn -0.9323 0.1332 0.3362
vn 0.9361 0.1152 0.3323
vn -0.6907 0.6976 -0.1908
vn 0.7276 0.6345 -0.2609
vn -0.9136 -0.3140 0.2584
vn 0.8851 -0.2316 0.4036
vn -0.9940 -0.0948 0.0546
vn 0.9991 0.0076 0.0418
vn -0.9983 -0.0160 -0.0555
vn 0.9841 -0.1178 -0.1327
vn 0.7056 0.0647 -0.7056
vn 0.7056 0.0647 0.7056
vn -0.7056 0.0647 0.7056
vn -0.7056 0.0647 -0.7056
vn -0.0000 0.4752 -0.8799
vn 0.9979 0.0647 -0.0000
vn -0.0000 0.0647 0.9979
vn -0.9979 0.0647 -0.0000
vn -0.8799 0.4752 -0.0000
vn 0.8799 0.4752 -0.0000
vn -0.6222 0.4752 0.6222
vn 0.6222 0.4752 -0.6222
vn -0.0000 0.4752 0.8799
vn -0.6222 0.4752 -0.6222
vn 0.6222 0.4752 0.6222
vn 0.9166 -0.3997 -0.0000
vn -0.0000 -0.3997 0.9166
vn -0.9166 -0.3997 -0.0000
vn -0.0000 -0.3997 -0.9166
vn 0.6482 -0.3997 -0.6482
vn 0.6482 -0.3997 0.6482
vn -0.6482 -0.3997 0.6482
vn -0.6482 -0.3997 -0.6482
vn 0.3036 0.9528 -0.0000
vn -0.0000 0.9528 0.3036
vn -0.3036 0.9528 -0.0000
vn -0.0000 0.9528 -0.3036
vn 0.2146 0.9528 -0.2146
vn 0.2146 0.9528 0.2146
vn -0.2146 0.9528 0.2146
vn -0.2146 0.9528 -0.2146
vn 0.3938 0.9192 -0.0000
vn -0.0000 0.9192 0.3938
vn -0.2784 0.9192 0.2784
vn -0.2784 0.9192 -0.2784
vn 0.2784 0.9192 -0.2784
vn 0.2784 0.9192 0.2784
vn -0.3938 0.9192 -0.0000
vn -0.0000 0.9192 -0.3938
vn -0.0000 1.0000 -0.0000
vn -0.0000 0.0647 -0.9979
vn 0.5502 0.8202 0.1568
vn 0.6106 0.7898 -0.0587
vn 0.7960 0.5059 -0.3322
vn 0.6740 0.6297 -0.3863
vn 0.8731 0.4118 -0.2611
vn 0.7303 0.5940 0.3373
vn 0.8243 0.5237 0.2152
vn 0.6861 0.6431 0.3401
vn 0.9482 0.0868 0.3056
vn 0.9285 0.0425 -0.3689
vn 0.9182 0.1395 -0.3707
vn 0.9073 0.1506 0.3925
vn -0.5505 0.8200 -0.1565
vn -0.6110 0.7895 0.0585
vn -0.8545 0.5135 0.0783
vn -0.6748 0.6289 0.3862
vn -0.8734 0.4112 0.2609
vn -0.7306 0.5938 -0.3372
vn -0.8564 0.5147 0.0409
vn -0.6865 0.6427 -0.3401
vn -0.9814 0.0850 -0.1722
vn -0.9699 0.0508 0.2381
vn -0.9534 0.1801 0.2419
vn -0.9787 0.1772 -0.1035
vn -0.6200 -0.7821 -0.0623
vn -0.6200 -0.7821 0.0623
vn -0.8517 -0.4727 -0.2261
vn -0.6726 -0.6313 0.3861
vn -0.8754 -0.4074 0.2603
vn -0.8946 -0.3971 -0.2052
vn -0.8216 -0.5226 -0.2278
vn -0.6602 -0.7291 -0.1802
vn -0.7570 -0.0517 0.6514
vn -0.8769 -0.0735 -0.4750
vn -0.9169 -0.1391 0.3740
vn -0.9408 -0.1433 -0.3071
vn 0.6204 -0.7818 0.0621
vn 0.6204 -0.7818 -0.0621
vn 0.8502 -0.4751 0.2269
vn 0.6735 -0.6305 -0.3860
vn 0.8757 -0.4067 -0.2603
vn 0.8947 -0.3966 0.2053
vn 0.8561 -0.5156 -0.0351
vn 0.6607 -0.7288 0.1800
vn 0.8481 -0.0678 -0.5254
vn 0.9239 -0.1457 0.3538
vn 0.9528 -0.1806 -0.2442
vn 0.9685 -0.1838 0.1679
vn -0.1775 0.4165 -0.8916
vn -0.8958 0.3892 0.2144
vn -0.8731 0.4398 -0.2102
vn -0.2283 0.3376 0.9132
vn 0.3335 0.1287 0.9339
vn 0.3167 0.0975 -0.9435
vn -0.2521 0.6527 0.7144
vn -0.2223 0.6618 -0.7160
vn 0.4396 -0.2150 0.8721
vn 0.1042 -0.3852 -0.9169
vn -0.2221 -0.1153 0.9682
vn -0.3106 -0.0607 -0.9486
vn 0.0286 0.0047 0.9996
vn -0.3110 -0.1461 -0.9391
vn 0.1773 0.4162 0.8918
vn 0.8959 0.3892 -0.2140
vn 0.8732 0.4399 0.2099
vn 0.2290 0.3380 -0.9129
vn -0.3334 0.1290 -0.9339
vn -0.3171 0.0967 0.9434
vn 0.2523 0.6530 -0.7141
vn 0.2107 0.6694 0.7124
vn -0.4522 -0.2070 -0.8676
vn -0.1873 -0.3477 0.9187
vn 0.0445 -0.1068 -0.9933
vn 0.1429 -0.0321 0.9892
vn -0.1238 0.0224 -0.9921
vn 0.1142 -0.1133 0.9870
vn 0.1652 0.8155 -0.5546
vn -0.0588 0.7824 -0.6199
vn -0.3320 0.5064 -0.7958
vn -0.3877 0.6327 -0.6703
vn -0.2629 0.4133 -0.8718
vn 0.3387 0.5947 -0.7291
vn 0.2149 0.5242 -0.8240
vn 0.3417 0.6461 -0.6825
vn 0.3056 0.0872 -0.9482
vn -0.3690 0.0463 -0.9283
vn -0.3707 0.1395 -0.9182
vn 0.3926 0.1506 -0.9073
vn -0.1567 0.8202 0.5502
vn 0.0586 0.7896 0.6108
vn 0.0782 0.5136 0.8545
vn 0.3862 0.6293 0.6745
vn 0.2610 0.4115 0.8732
vn -0.3373 0.5940 0.7303
vn 0.0409 0.5147 0.8564
vn -0.3401 0.6431 0.6860
vn -0.1730 0.0743 0.9821
vn 0.2375 0.0382 0.9706
vn 0.2419 0.1801 0.9534
vn -0.1035 0.1772 0.9787
vn -0.0571 -0.7891 0.6117
vn 0.0571 -0.7891 0.6116
vn -0.2255 -0.4722 0.8521
vn 0.3850 -0.6277 0.6766
vn 0.2596 -0.4064 0.8760
vn -0.2044 -0.3959 0.8952
vn -0.2282 -0.5220 0.8219
vn -0.1709 -0.7288 0.6631
vn 0.6519 -0.0565 0.7562
vn -0.4519 -0.1687 0.8760
vn 0.3740 -0.1391 0.9169
vn -0.3071 -0.1433 0.9408
vn 0.0622 -0.7820 -0.6201
vn -0.0622 -0.7820 -0.6202
vn 0.2270 -0.4751 -0.8501
vn -0.3860 -0.6308 -0.6731
vn -0.2604 -0.4071 -0.8755
vn 0.2054 -0.3970 -0.8945
vn -0.0352 -0.5156 -0.8561
vn 0.1802 -0.7291 -0.6603
vn -0.5241 -0.0554 -0.8499
vn 0.3558 -0.1367 -0.9245
vn -0.2442 -0.1806 -0.9528
vn 0.1679 -0.1838 -0.9685
vn -0.8832 0.4407 0.1605
vn 0.2152 0.3948 0.8932
vn -0.2112 0.4439 0.8708
vn 0.9125 0.3412 0.2258
vn 0.9287 0.1403 -0.3434
vn -0.9444 0.0963 -0.3145
vn 0.7134 0.6550 0.2489
vn -0.7159 0.6620 0.2220
vn 0.8724 -0.2154 -0.4389
vn -0.9170 -0.3850 -0.1041
vn 0.9677 -0.1206 0.2215
vn -0.9486 -0.0607 0.3106
vn 0.9996 0.0047 -0.0286
vn -0.9396 -0.1420 0.3113
vn 0.8919 0.4160 -0.1771
vn -0.2142 0.3892 -0.8959
vn 0.2101 0.4399 -0.8731
vn -0.9129 0.3380 -0.2290
vn -0.9339 0.1294 0.3332
vn 0.9434 0.0967 0.3171
vn -0.7141 0.6530 -0.2523
vn 0.7125 0.6693 -0.2107
vn -0.8676 -0.2070 0.4522
vn 0.9187 -0.3477 0.1873
vn -0.9938 -0.1017 -0.0451
vn 0.9892 -0.0321 -0.1429
vn -0.9921 0.0224 0.1238
vn 0.9866 -0.1167 -0.1140
vt 0.209376 0.169956
vt 0.209133 0.174745
vt 0.209376 0.175160
vt 0.209618 0.174745
vt 0.209784 0.170479
vt 0.209375 0.157243
vt 0.209311 0.145896
vt 0.209002 0.159766
vt 0.209673 0.161389
vt 0.209377 0.159460
vt 0.209078 0.161154
vt 0.209439 0.146053
vt 0.209749 0.160094
vt 0.208967 0.170479
vt 0.209375 0.134790
vt 0.209392 0.124447
vt 0.209380 0.124401
vt 0.209311 0.134711
vt 0.209369 0.124354
vt 0.209375 0.145570
vt 0.209439 0.134867
vt 0.209390 0.169956
vt 0.209633 0.174745
vt 0.209390 0.175160
vt 0.209147 0.174745
vt 0.208982 0.170479
vt 0.209390 0.157243
vt 0.209454 0.145896
vt 0.209763 0.159766
vt 0.209092 0.161389
vt 0.209388 0.159460
vt 0.209687 0.161154
vt 0.209326 0.146053
vt 0.209016 0.160094
vt 0.209798 0.170479
vt 0.209390 0.134790
vt 0.209379 0.124447
vt 0.209391 0.124401
vt 0.209454 0.134711
vt 0.209402 0.124354
vt 0.209390 0.145570
vt 0.209326 0.134867
vt 0.209376 0.169562
vt 0.209129 0.174443
vt 0.208962 0.170186
vt 0.209622 0.174443
vt 0.209789 0.170185
vt 0.209376 0.157048
vt 0.209312 0.145748
vt 0.209376 0.145461
vt 0.209679 0.161162
vt 0.209377 0.159198
vt 0.209072 0.160926
vt 0.209440 0.145901
vt 0.209753 0.159912
vt 0.209376 0.134755
vt 0.209390 0.124438
vt 0.209435 0.134832
vt 0.209372 0.124346
vt 0.209317 0.134678
vt 0.209390 0.169562
vt 0.209637 0.174443
vt 0.209803 0.170186
vt 0.209144 0.174443
vt 0.208977 0.170185
vt 0.209389 0.157048
vt 0.209454 0.145754
vt 0.209389 0.145458
vt 0.209086 0.161162
vt 0.209388 0.159198
vt 0.209693 0.160926
vt 0.209324 0.145908
vt 0.209011 0.159914
vt 0.209389 0.134752
vt 0.209378 0.124438
vt 0.209327 0.134826
vt 0.209451 0.134672
vt 0.209390 0.124394
vt 0.209376 0.174848
vt 0.208998 0.159584
vt 0.209390 0.174848
vt 0.209767 0.159585
vt 0.209401 0.124347
vt 0.210450 0.169846
vt 0.210726 0.174726
vt 0.210775 0.175156
vt 0.210371 0.170442
vt 0.209886 0.157235
vt 0.209563 0.145896
vt 0.209854 0.159770
vt 0.209891 0.161386
vt 0.209974 0.159448
vt 0.209902 0.161151
vt 0.209558 0.146053
vt 0.209839 0.160098
vt 0.210371 0.170442
vt 0.209447 0.134790
vt 0.209405 0.124447
vt 0.209421 0.124401
vt 0.209472 0.134711
vt 0.209409 0.124354
vt 0.209526 0.145570
vt 0.209468 0.134867
vt 0.208342 0.169956
vt 0.208065 0.174745
vt 0.208016 0.175160
vt 0.208420 0.170479
vt 0.208905 0.157243
vt 0.209230 0.145896
vt 0.208937 0.159766
vt 0.208900 0.161389
vt 0.208817 0.159460
vt 0.208889 0.161154
vt 0.209234 0.146053
vt 0.208952 0.160094
vt 0.209344 0.134790
vt 0.209379 0.124447
vt 0.209364 0.124401
vt 0.209328 0.134711
vt 0.209376 0.124354
vt 0.209245 0.145570
vt 0.209332 0.134867
vt 0.210457 0.169667
vt 0.210732 0.174431
vt 0.210379 0.170196
vt 0.210379 0.170195
vt 0.209900 0.157057
vt 0.209580 0.145748
vt 0.209544 0.145461
vt 0.209903 0.161167
vt 0.209987 0.159210
vt 0.209914 0.160932
vt 0.209575 0.145901
vt 0.209853 0.159916
vt 0.209465 0.134755
vt 0.209417 0.124438
vt 0.209484 0.134832
vt 0.209488 0.134678
vt 0.209425 0.124393
vt 0.208332 0.169562
vt 0.208058 0.174443
vt 0.208411 0.170186
vt 0.208411 0.170185
vt 0.208890 0.157048
vt 0.209213 0.145754
vt 0.209228 0.145458
vt 0.208888 0.161162
vt 0.208804 0.159198
vt 0.208877 0.160926
vt 0.209218 0.145908
vt 0.208938 0.159914
vt 0.209327 0.134752
vt 0.209367 0.124438
vt 0.209315 0.134826
vt 0.209312 0.134672
vt 0.209361 0.124394
vt 0.210781 0.174853
vt 0.209868 0.159588
vt 0.209419 0.124346
vt 0.208009 0.174848
vt 0.208923 0.159585
vt 0.209365 0.124347
vt 0.467161 0.323793
vt 0.466864 0.313301
vt 0.466879 0.323793
vt 0.467841 0.323793
vt 0.467565 0.313301
vt 0.467559 0.323793
vt 0.467005 0.334285
vt 0.467856 0.313301
vt 0.467154 0.313301
vt 0.467507 0.334285
vt 0.467213 0.334285
vt 0.467715 0.334285
vt 0.467198 0.302512
vt 0.467751 0.302512
vt 0.467522 0.302512
vt 0.466968 0.302512
vt 0.467418 0.337364
vt 0.467501 0.337364
vt 0.467301 0.337364
vt 0.467219 0.337364
vt 0.467395 0.336281
vt 0.467325 0.336281
vt 0.467275 0.336281
vt 0.467445 0.336281
vt 0.209382 0.124393
s 0
usemtl Texture_Map
f 6/1/1 2/2/1 3/3/1
f 6/1/2 1/4/2 4/5/2
f 12/6/3 14/7/3 11/8/3
f 7/9/4 6/1/4 4/5/4
f 7/9/5 12/6/5 9/10/5
f 8/11/6 12/6/6 11/8/6
f 13/12/7 12/6/7 10/13/7
f 6/1/8 8/11/8 5/14/8
f 20/15/9 16/16/9 18/17/9
f 21/18/10 18/17/10 17/19/10
f 15/20/11 21/18/11 14/7/11
f 15/20/12 19/21/12 20/15/12
f 27/22/13 23/23/13 24/24/13
f 27/22/14 22/25/14 25/26/14
f 33/27/15 35/28/15 32/29/15
f 28/30/16 27/22/16 25/26/16
f 28/30/17 33/27/17 30/31/17
f 29/32/18 33/27/18 32/29/18
f 34/33/19 33/27/19 31/34/19
f 27/22/20 29/32/20 26/35/20
f 41/36/21 37/37/21 39/38/21
f 42/39/22 39/38/22 38/40/22
f 36/41/23 42/39/23 35/28/23
f 36/41/24 40/42/24 41/36/24
f 48/43/25 44/44/25 47/45/25
f 43/46/26 48/43/26 46/47/26
f 54/48/27 56/49/27 57/50/27
f 48/43/28 49/51/28 46/47/28
f 54/48/29 49/51/29 51/52/29
f 50/53/30 54/48/30 51/52/30
f 54/48/31 55/54/31 52/55/31
f 48/43/32 50/53/32 51/52/32
f 62/56/33 58/57/33 61/58/33
f 59/59/34 62/56/34 63/60/34
f 63/60/35 57/50/35 56/49/35
f 57/50/36 61/58/36 55/54/36
f 69/61/37 65/62/37 68/63/37
f 64/64/38 69/61/38 67/65/38
f 75/66/39 77/67/39 78/68/39
f 69/61/40 70/69/40 67/65/40
f 75/66/41 70/69/41 72/70/41
f 71/71/42 75/66/42 72/70/42
f 75/66/43 76/72/43 73/73/43
f 69/61/44 71/71/44 72/70/44
f 83/74/45 79/75/45 82/76/45
f 84/77/46 81/78/46 83/74/46
f 84/77/47 78/68/47 77/67/47
f 78/68/48 82/76/48 76/72/48
f 5/14/49 44/44/49 2/2/49
f 1/4/50 45/79/50 43/46/50
f 2/2/51 45/79/51 3/3/51
f 4/5/52 43/46/52 46/47/52
f 7/9/53 46/47/53 49/51/53
f 8/11/54 47/45/54 5/14/54
f 10/13/55 49/51/55 52/55/55
f 11/8/56 50/53/56 8/11/56
f 13/12/57 52/55/57 55/54/57
f 14/7/58 53/80/58 11/8/58
f 19/21/59 58/57/59 16/16/59
f 21/18/60 56/49/60 14/7/60
f 19/21/61 55/54/61 61/58/61
f 21/18/62 59/59/62 63/60/62
f 26/35/63 65/62/63 23/23/63
f 22/25/64 66/81/64 64/64/64
f 23/23/65 66/81/65 24/24/65
f 25/26/66 64/64/66 67/65/66
f 28/30/67 67/65/67 70/69/67
f 29/32/68 68/63/68 26/35/68
f 31/34/69 70/69/69 73/73/69
f 32/29/70 71/71/70 29/32/70
f 34/33/71 73/73/71 76/72/71
f 35/28/72 74/82/72 32/29/72
f 40/42/73 79/75/73 37/37/73
f 42/39/74 77/67/74 35/28/74
f 40/42/75 76/72/75 82/76/75
f 42/39/76 80/83/76 84/77/76
f 90/84/77 86/85/77 87/86/77
f 90/84/78 85/85/78 88/87/78
f 96/88/79 98/89/79 95/90/79
f 91/91/80 90/84/80 88/87/80
f 91/91/81 96/88/81 93/92/81
f 92/93/82 96/88/82 95/90/82
f 97/94/83 96/88/83 94/95/83
f 90/84/84 92/93/84 89/96/84
f 104/97/85 100/98/85 102/99/85
f 105/100/86 102/99/86 101/101/86
f 99/102/87 105/100/87 98/89/87
f 99/102/88 103/103/88 104/97/88
f 111/104/89 107/105/89 108/106/89
f 111/104/90 106/105/90 109/107/90
f 117/108/91 119/109/91 116/110/91
f 112/111/92 111/104/92 109/107/92
f 112/111/93 117/108/93 114/112/93
f 113/113/94 117/108/94 116/110/94
f 118/114/95 117/108/95 115/115/95
f 111/104/96 113/113/96 110/107/96
f 125/116/97 121/117/97 123/118/97
f 126/119/98 123/118/98 122/120/98
f 120/121/99 126/119/99 119/109/99
f 120/121/100 124/122/100 125/116/100
f 132/123/101 128/124/101 131/125/101
f 127/124/102 132/123/102 130/126/102
f 138/127/103 140/128/103 141/129/103
f 132/123/104 133/130/104 130/126/104
f 138/127/105 133/130/105 135/131/105
f 134/132/106 138/127/106 135/131/106
f 138/127/107 139/133/107 136/134/107
f 132/123/108 134/132/108 135/131/108
f 146/135/109 142/136/109 145/137/109
f 147/138/110 144/139/110 146/135/110
f 147/138/111 141/129/111 140/128/111
f 141/129/112 145/137/112 139/133/112
f 153/140/113 149/141/113 152/142/113
f 148/141/114 153/140/114 151/143/114
f 159/144/115 161/145/115 162/146/115
f 153/140/116 154/147/116 151/143/116
f 159/144/117 154/147/117 156/148/117
f 155/149/118 159/144/118 156/148/118
f 159/144/119 160/150/119 157/151/119
f 153/140/120 155/149/120 156/148/120
f 167/152/121 163/153/121 166/154/121
f 168/155/122 165/156/122 167/152/122
f 168/155/123 162/146/123 161/145/123
f 162/146/124 166/154/124 160/150/124
f 89/96/125 128/124/125 86/85/125
f 85/85/126 129/157/126 127/124/126
f 86/85/127 129/157/127 87/86/127
f 88/87/128 127/124/128 130/126/128
f 88/87/129 133/130/129 91/91/129
f 89/96/130 134/132/130 131/125/130
f 94/95/131 133/130/131 136/134/131
f 95/90/132 134/132/132 92/93/132
f 97/94/133 136/134/133 139/133/133
f 98/89/134 137/158/134 95/90/134
f 103/103/135 142/136/135 100/98/135
f 105/100/136 140/128/136 98/89/136
f 103/103/137 139/133/137 145/137/137
f 105/100/138 143/159/138 147/138/138
f 110/107/139 149/141/139 107/105/139
f 106/105/140 150/160/140 148/141/140
f 107/105/141 150/160/141 108/106/141
f 109/107/142 148/141/142 151/143/142
f 112/111/143 151/143/143 154/147/143
f 113/113/144 152/142/144 110/107/144
f 115/115/145 154/147/145 157/151/145
f 116/110/146 155/149/146 113/113/146
f 118/114/147 157/151/147 160/150/147
f 119/109/148 158/161/148 116/110/148
f 124/122/149 163/153/149 121/117/149
f 126/119/150 161/145/150 119/109/150
f 124/122/151 160/150/151 166/154/151
f 126/119/152 164/162/152 168/155/152
f 182/163/153 185/164/153 184/165/153
f 181/166/154 191/167/154 180/168/154
f 188/167/155 178/166/155 179/168/155
f 186/164/156 177/163/156 183/165/156
f 184/165/157 170/169/157 169/169/157
f 191/167/158 182/163/158 180/168/158
f 189/170/159 181/166/159 178/166/159
f 187/171/160 179/168/160 177/163/160
f 177/163/161 172/172/161 171/173/161
f 175/172/162 182/163/162 176/173/162
f 179/168/163 173/174/163 172/172/163
f 182/163/164 169/169/164 176/173/164
f 173/174/165 181/166/165 174/174/165
f 183/165/166 171/173/166 170/169/166
f 181/166/167 175/172/167 174/174/167
f 191/167/168 200/175/168 192/171/168
f 190/170/169 197/176/169 198/176/169
f 188/167/170 195/175/170 196/177/170
f 185/164/171 194/178/171 186/164/171
f 192/171/172 193/178/172 185/164/172
f 191/167/173 198/176/173 199/177/173
f 188/167/174 197/176/174 189/170/174
f 186/164/175 195/175/175 187/171/175
f 176/173/176 207/179/176 175/172/176
f 173/174/177 206/180/177 205/180/177
f 172/172/178 203/181/178 171/173/178
f 170/169/179 201/182/179 169/169/179
f 169/169/180 208/181/180 176/173/180
f 174/174/181 207/179/181 206/180/181
f 172/172/182 205/180/182 204/179/182
f 171/173/183 202/182/183 170/169/183
f 203/181/184 212/183/184 211/184/184
f 201/182/185 210/185/185 209/185/185
f 201/182/186 216/184/186 208/181/186
f 206/180/187 215/183/187 214/186/187
f 204/179/188 213/186/188 212/183/188
f 202/182/189 211/184/189 210/185/189
f 208/181/190 215/183/190 207/179/190
f 206/180/191 213/186/191 205/180/191
f 215/183/192 216/184/192 209/185/192
f 185/164/193 183/165/193 184/165/193
f 6/1/194 5/14/194 2/2/194
f 6/1/195 3/3/195 1/4/195
f 12/6/196 15/20/196 14/7/196
f 7/9/197 9/10/197 6/1/197
f 7/9/198 10/13/198 12/6/198
f 8/11/199 9/10/199 12/6/199
f 13/12/200 15/20/200 12/6/200
f 6/1/201 9/10/201 8/11/201
f 20/15/202 19/21/202 16/16/202
f 21/18/203 20/15/203 18/17/203
f 15/20/204 20/15/204 21/18/204
f 15/20/205 13/12/205 19/21/205
f 27/22/206 26/35/206 23/23/206
f 27/22/207 24/24/207 22/25/207
f 33/27/208 36/41/208 35/28/208
f 28/30/209 30/31/209 27/22/209
f 28/30/210 31/34/210 33/27/210
f 29/32/211 30/31/211 33/27/211
f 34/33/212 36/41/212 33/27/212
f 27/22/213 30/31/213 29/32/213
f 41/36/214 40/42/214 37/37/214
f 42/39/215 41/36/215 39/38/215
f 36/41/216 41/36/216 42/39/216
f 36/41/217 34/33/217 40/42/217
f 48/43/218 45/79/218 44/44/218
f 43/46/219 45/79/219 48/43/219
f 54/48/220 53/80/220 56/49/220
f 48/43/221 51/52/221 49/51/221
f 54/48/222 52/55/222 49/51/222
f 50/53/223 53/80/223 54/48/223
f 54/48/224 57/50/224 55/54/224
f 48/43/225 47/45/225 50/53/225
f 62/56/226 60/187/226 58/57/226
f 59/59/227 60/187/227 62/56/227
f 63/60/228 62/56/228 57/50/228
f 57/50/229 62/56/229 61/58/229
f 69/61/230 66/81/230 65/62/230
f 64/64/231 66/81/231 69/61/231
f 75/66/232 74/82/232 77/67/232
f 69/61/233 72/70/233 70/69/233
f 75/66/234 73/73/234 70/69/234
f 71/71/235 74/82/235 75/66/235
f 75/66/236 78/68/236 76/72/236
f 69/61/237 68/63/237 71/71/237
f 83/74/238 81/78/238 79/75/238
f 84/77/239 80/83/239 81/78/239
f 84/77/240 83/74/240 78/68/240
f 78/68/241 83/74/241 82/76/241
f 5/14/242 47/45/242 44/44/242
f 1/4/243 3/3/243 45/79/243
f 2/2/244 44/44/244 45/79/244
f 4/5/245 1/4/245 43/46/245
f 7/9/246 4/5/246 46/47/246
f 8/11/247 50/53/247 47/45/247
f 10/13/248 7/9/248 49/51/248
f 11/8/249 53/80/249 50/53/249
f 13/12/250 10/13/250 52/55/250
f 14/7/251 56/49/251 53/80/251
f 19/21/252 61/58/252 58/57/252
f 21/18/253 63/60/253 56/49/253
f 19/21/254 13/12/254 55/54/254
f 21/18/255 17/19/255 59/59/255
f 26/35/256 68/63/256 65/62/256
f 22/25/257 24/24/257 66/81/257
f 23/23/258 65/62/258 66/81/258
f 25/26/259 22/25/259 64/64/259
f 28/30/260 25/26/260 67/65/260
f 29/32/261 71/71/261 68/63/261
f 31/34/262 28/30/262 70/69/262
f 32/29/263 74/82/263 71/71/263
f 34/33/264 31/34/264 73/73/264
f 35/28/265 77/67/265 74/82/265
f 40/42/266 82/76/266 79/75/266
f 42/39/267 84/77/267 77/67/267
f 40/42/268 34/33/268 76/72/268
f 42/39/269 38/40/269 80/83/269
f 90/84/270 89/96/270 86/85/270
f 90/84/271 87/86/271 85/85/271
f 96/88/272 99/102/272 98/89/272
f 91/91/273 93/92/273 90/84/273
f 91/91/274 94/95/274 96/88/274
f 92/93/275 93/92/275 96/88/275
f 97/94/276 99/102/276 96/88/276
f 90/84/277 93/92/277 92/93/277
f 104/97/278 103/103/278 100/98/278
f 105/100/279 104/97/279 102/99/279
f 99/102/280 104/97/280 105/100/280
f 99/102/281 97/94/281 103/103/281
f 111/104/282 110/107/282 107/105/282
f 111/104/283 108/106/283 106/105/283
f 117/108/284 120/121/284 119/109/284
f 112/111/285 114/112/285 111/104/285
f 112/111/286 115/115/286 117/108/286
f 113/113/287 114/112/287 117/108/287
f 118/114/288 120/121/288 117/108/288
f 111/104/289 114/112/289 113/113/289
f 125/116/290 124/122/290 121/117/290
f 126/119/291 125/116/291 123/118/291
f 120/121/292 125/116/292 126/119/292
f 120/121/293 118/114/293 124/122/293
f 132/123/294 129/157/294 128/124/294
f 127/124/295 129/157/295 132/123/295
f 138/127/296 137/158/296 140/128/296
f 132/123/297 135/131/297 133/130/297
f 138/127/298 136/134/298 133/130/298
f 134/132/299 137/158/299 138/127/299
f 138/127/300 141/129/300 139/133/300
f 132/123/301 131/125/301 134/132/301
f 146/135/302 144/139/302 142/136/302
f 147/138/303 143/159/303 144/139/303
f 147/138/304 146/135/304 141/129/304
f 141/129/305 146/135/305 145/137/305
f 153/140/306 150/160/306 149/141/306
f 148/141/307 150/160/307 153/140/307
f 159/144/308 158/161/308 161/145/308
f 153/140/309 156/148/309 154/147/309
f 159/144/310 157/151/310 154/147/310
f 155/149/311 158/161/311 159/144/311
f 159/144/312 162/146/312 160/150/312
f 153/140/313 152/142/313 155/149/313
f 167/152/314 165/156/314 163/153/314
f 168/155/315 164/162/315 165/156/315
f 168/155/316 167/152/316 162/146/316
f 162/146/317 167/152/317 166/154/317
f 89/96/318 131/125/318 128/124/318
f 85/85/319 87/86/319 129/157/319
f 86/85/320 128/124/320 129/157/320
f 88/87/321 85/85/321 127/124/321
f 88/87/322 130/126/322 133/130/322
f 89/96/323 92/93/323 134/132/323
f 94/95/324 91/91/324 133/130/324
f 95/90/325 137/158/325 134/132/325
f 97/94/326 94/95/326 136/134/326
f 98/89/327 140/128/327 137/158/327
f 103/103/328 145/137/328 142/136/328
f 105/100/329 147/138/329 140/128/329
f 103/103/330 97/94/330 139/133/330
f 105/100/331 101/101/331 143/159/331
f 110/107/332 152/142/332 149/141/332
f 106/105/333 108/106/333 150/160/333
f 107/105/334 149/141/334 150/160/334
f 109/107/335 106/105/335 148/141/335
f 112/111/336 109/107/336 151/143/336
f 113/113/337 155/149/337 152/142/337
f 115/115/338 112/111/338 154/147/338
f 116/110/339 158/161/339 155/149/339
f 118/114/340 115/115/340 157/151/340
f 119/109/341 161/145/341 158/161/341
f 124/122/342 166/154/342 163/153/342
f 126/119/343 168/155/343 161/145/343
f 124/122/344 118/114/344 160/150/344
f 126/119/345 122/120/345 164/162/345
f 182/163/153 192/171/153 185/164/153
f 181/166/154 190/170/154 191/167/154
f 188/167/155 189/170/155 178/166/155
f 186/164/156 187/171/156 177/163/156
f 184/165/157 183/165/157 170/169/157
f 191/167/158 192/171/158 182/163/158
f 189/170/159 190/170/159 181/166/159
f 187/171/160 188/167/160 179/168/160
f 177/163/161 179/168/161 172/172/161
f 175/172/162 180/168/162 182/163/162
f 179/168/163 178/166/163 173/174/163
f 182/163/164 184/165/164 169/169/164
f 173/174/165 178/166/165 181/166/165
f 183/165/166 177/163/166 171/173/166
f 181/166/167 180/168/167 175/172/167
f 191/167/168 199/177/168 200/175/168
f 190/170/169 189/170/169 197/176/169
f 188/167/170 187/171/170 195/175/170
f 185/164/171 193/178/171 194/178/171
f 192/171/172 200/175/172 193/178/172
f 191/167/173 190/170/173 198/176/173
f 188/167/174 196/177/174 197/176/174
f 186/164/175 194/178/175 195/175/175
f 176/173/176 208/181/176 207/179/176
f 173/174/177 174/174/177 206/180/177
f 172/172/178 204/179/178 203/181/178
f 170/169/179 202/182/179 201/182/179
f 169/169/180 201/182/180 208/181/180
f 174/174/181 175/172/181 207/179/181
f 172/172/182 173/174/182 205/180/182
f 171/173/183 203/181/183 202/182/183
f 203/181/184 204/179/184 212/183/184
f 201/182/185 202/182/185 210/185/185
f 201/182/186 209/185/186 216/184/186
f 206/180/187 207/179/187 215/183/187
f 204/179/188 205/180/188 213/186/188
f 202/182/189 203/181/189 211/184/189
f 208/181/190 216/184/190 215/183/190
f 206/180/191 214/186/191 213/186/191
f 209/185/192 210/185/192 213/186/192
f 210/185/192 211/184/192 213/186/192
f 211/184/192 212/183/192 213/186/192
f 213/186/192 214/186/192 209/185/192
f 214/186/192 215/183/192 209/185/192
f 185/164/193 186/164/193 183/165/193
