# Blender 4.4.0
# www.blender.org
mtllib Crop_Cauliflower_01.mtl
o Crop_Cauliflower_01
v 0.000759 -0.111020 -0.001311
v 0.002837 -0.110564 -0.001512
v 0.072271 -0.094453 0.051593
v -0.025057 -0.093797 -0.087444
v 0.074232 -0.093955 -0.053176
v -0.088114 -0.093931 -0.003420
v -0.027892 -0.093798 0.082649
v 0.072498 -0.093817 -0.055795
v -0.088225 -0.093822 -0.000286
v -0.024873 -0.094159 0.083451
v 0.074654 -0.093571 0.049454
v -0.028086 -0.093636 -0.086628
v 0.085572 0.070437 -0.135223
v 0.085495 0.070386 0.131208
v 0.011160 0.070371 -0.159174
v -0.145148 0.070318 0.056105
v 0.011176 0.070386 0.155356
v 0.153956 0.070419 0.037146
v 0.153624 0.070318 -0.040971
v -0.099369 0.070371 -0.123261
v -0.145492 0.070437 -0.060146
v -0.099499 0.070419 0.119498
v -0.038072 -0.041532 0.139413
v 0.115403 -0.040814 0.087570
v -0.145252 -0.041477 0.004351
v -0.050128 -0.041472 0.135251
v -0.050126 -0.041464 -0.139230
v -0.145220 -0.041461 -0.008333
v 0.115206 -0.040794 -0.091293
v -0.038064 -0.041464 -0.143149
v 0.121285 -0.040849 0.078908
v 0.123288 -0.041477 -0.082902
v 0.124359 0.014110 0.105875
v -0.035762 0.014475 0.155852
v -0.059787 0.014444 0.136536
v -0.150535 0.014843 0.008577
v -0.151869 0.014385 -0.017926
v -0.058186 0.014560 -0.143638
v -0.034115 0.014646 -0.151521
v 0.115547 0.014385 -0.104814
v 0.130070 0.014682 -0.082588
v 0.131843 0.014444 0.074271
v 0.059722 0.083985 -0.155556
v 0.060229 0.083971 0.151465
v 0.043643 0.083969 -0.160735
v -0.136455 0.083944 0.087887
v 0.044038 0.083969 0.156739
v 0.165318 0.083968 0.006289
v 0.165261 0.083943 -0.010555
v -0.126830 0.083967 -0.105088
v -0.136765 0.083998 -0.091438
v -0.126583 0.083981 0.101521
v 0.000040 -0.107248 -0.003186
v 0.071324 -0.091453 0.049272
v -0.026008 -0.090787 0.081052
v 0.071918 -0.090674 -0.053336
v -0.086330 -0.090667 -0.001937
v -0.024381 -0.094522 0.077305
v 0.072046 -0.090659 0.049389
v -0.025876 -0.090674 -0.085151
v 0.084378 0.071824 -0.131546
v 0.084223 0.071490 0.127293
v 0.009965 0.071754 -0.155493
v -0.142072 0.071784 0.053873
v 0.009904 0.071490 0.151441
v 0.150162 0.071889 0.037147
v 0.149824 0.071784 -0.040969
v -0.096238 0.071754 -0.120986
v -0.142365 0.071824 -0.057873
v -0.096429 0.071890 0.117270
v -0.039203 -0.039958 0.135934
v -0.142131 -0.040143 0.002081
v -0.047016 -0.040117 0.132988
v -0.047048 -0.040061 -0.136995
v -0.142147 -0.040047 -0.006102
v -0.039240 -0.040061 -0.139532
v 0.119428 -0.040143 -0.082904
v 0.123162 0.014957 0.102193
v -0.056620 0.015184 0.134233
v -0.148716 0.015154 -0.015637
v 0.114342 0.015154 -0.101109
v 0.127926 0.015184 0.074269
v 0.098793 -0.037354 0.069006
v -0.036144 -0.037354 0.112850
v -0.119540 -0.037354 -0.001934
v -0.036144 -0.037354 -0.116718
v 0.098793 -0.037354 -0.072874
v 0.038446 0.070769 0.112850
v -0.096490 0.070769 0.069006
v -0.096490 0.070769 -0.072874
v 0.038446 0.070769 -0.116718
v 0.121842 0.070769 -0.001934
v 0.001151 0.137592 -0.001934
v -0.020770 -0.086123 0.065534
v 0.058543 -0.086123 0.039763
v 0.036622 -0.046846 0.107231
v 0.115935 -0.046846 -0.001934
v 0.058543 -0.086123 -0.043631
v -0.069789 -0.086123 -0.001934
v -0.091711 -0.046846 0.065534
v -0.020770 -0.086123 -0.069402
v -0.091711 -0.046846 -0.069402
v 0.036622 -0.046846 -0.111100
v 0.129484 0.016707 0.039763
v 0.129484 0.016707 -0.043631
v 0.001151 0.016707 0.133003
v 0.080465 0.016707 0.107232
v -0.127181 0.016707 0.039763
v -0.078163 0.016707 0.107232
v -0.078163 0.016707 -0.111100
v -0.127181 0.016707 -0.043631
v 0.080465 0.016707 -0.111100
v 0.001151 0.016707 -0.136871
v 0.094013 0.080261 0.065534
v -0.034319 0.080261 0.107231
v -0.113632 0.080261 -0.001934
v -0.034319 0.080261 -0.111100
v 0.094013 0.080261 -0.069402
v 0.023073 0.119538 0.065534
v 0.072092 0.119538 -0.001934
v -0.056240 0.119538 0.039763
v -0.056240 0.119538 -0.043631
v 0.023073 0.119538 -0.069402
v -0.010433 -0.095222 0.033720
v 0.001151 -0.105958 -0.001934
v -0.036337 -0.095222 -0.001934
v -0.010433 -0.095222 -0.037588
v 0.031480 -0.095222 0.020101
v 0.031480 -0.095222 -0.023969
v 0.001151 -0.104927 -0.001934
vn 0.2312 -0.9347 0.2701
vn 0.0168 -0.9980 0.0603
vn -0.1840 -0.9735 -0.1362
vn -0.1862 -0.9718 0.1444
vn 0.2114 -0.9769 -0.0300
vn 0.2284 -0.9736 0.0027
vn 0.2892 -0.3323 -0.8977
vn -0.7510 -0.3496 -0.5601
vn 0.6191 -0.3488 -0.7036
vn -0.9418 0.3360 -0.0139
vn -0.7538 -0.3838 0.5334
vn 0.2309 -0.6628 -0.7123
vn -0.3198 -0.2812 -0.9048
vn -0.5914 -0.6823 0.4298
vn 0.7492 -0.6623 -0.0006
vn 0.6466 -0.3864 0.6577
vn -0.2852 0.2800 -0.9166
vn -0.7914 -0.1603 -0.5900
vn 0.7937 0.1940 0.5766
vn -0.2936 0.1608 0.9423
vn 0.3130 -0.2279 -0.9220
vn 0.2352 -0.6439 -0.7281
vn 0.7644 -0.6448 -0.0016
vn -0.6174 -0.6449 -0.4505
vn -0.6185 -0.6467 0.4464
vn 0.2365 -0.6459 0.7258
vn -0.0713 0.9730 0.2193
vn 0.1887 0.9724 0.1370
vn -0.3076 0.3002 0.9029
vn 0.7793 0.3007 0.5498
vn 0.2891 -0.2345 0.9281
vn -0.5766 -0.0757 0.8135
vn 0.7537 0.3368 -0.5643
vn -0.1344 -0.3903 -0.9108
vn 0.2378 -0.6790 0.6946
vn 0.5896 0.6852 -0.4276
vn -0.7145 0.6996 0.0112
vn -0.4215 -0.3817 0.8226
vn 0.8002 0.5925 -0.0930
vn 0.9824 -0.1865 0.0129
vn 0.7996 0.1519 -0.5810
vn -0.9929 0.1187 0.0119
vn 0.3084 -0.2796 0.9092
vn -0.1915 0.7823 0.5927
vn -0.6208 0.7840 0.0016
vn 0.5030 0.7826 0.3668
vn 0.5030 0.7842 -0.3634
vn -0.1932 0.7804 -0.5947
vn -0.9042 -0.3801 0.1950
vn -0.4830 -0.3790 -0.7893
vn -0.5912 -0.6827 -0.4294
vn 0.0974 0.5181 0.8498
vn -0.9115 -0.3838 -0.1477
vn -0.5968 0.0671 0.7996
vn -0.9787 -0.1940 -0.0668
vn 0.8579 0.5063 0.0876
vn 0.7938 -0.2769 0.5414
vn -0.7270 0.5309 -0.4354
vn -0.3005 -0.2487 0.9208
vn 0.2039 0.5296 -0.8234
vn -0.9559 -0.0457 0.2900
vn -0.5897 0.0053 -0.8076
vn -0.2096 0.7008 0.6819
vn 0.5815 0.0197 -0.8133
vn -0.2251 0.6842 -0.6937
vn 0.5894 0.6851 0.4281
vn 0.9293 -0.3694 -0.0035
vn -0.0929 -0.3692 0.9247
vn 0.8043 -0.2081 0.5566
vn -0.3151 0.1803 -0.9318
vn 0.9466 -0.0482 -0.3187
vn 0.7630 -0.2784 -0.5834
vn 0.5738 0.0813 0.8150
vn -0.6426 0.5063 0.5751
vn 0.3465 0.4894 0.8003
vn 0.5421 0.8292 -0.1367
vn 0.3179 0.8195 0.4769
vn 0.0403 0.8283 -0.5588
vn -0.5378 0.8181 -0.2037
vn -0.3691 0.8562 0.3614
vn 0.0588 -0.9740 0.2186
vn -0.0970 -0.9928 0.0708
vn 0.0698 -0.9740 -0.2157
vn 0.2348 -0.6445 -0.7277
vn 0.7631 -0.6463 -0.0024
vn -0.6216 -0.6405 -0.4509
vn -0.6206 -0.6414 0.4511
vn 0.2362 -0.6447 0.7270
vn -0.0843 0.9800 -0.1805
vn 0.1850 0.9737 -0.1331
vn -0.2246 0.9745 0.0001
vn -0.1919 0.7819 0.5931
vn -0.6220 0.7830 0.0010
vn 0.5072 0.7796 0.3674
vn 0.5052 0.7806 -0.3679
vn -0.1934 0.7811 -0.5937
vn -0.0912 -0.4180 -0.9038
vn -0.9196 -0.3703 0.1313
vn 0.7711 -0.2190 -0.5979
vn 0.9528 0.0667 0.2961
vn 0.0148 0.0808 0.9966
vn 0.8240 -0.4320 -0.3666
vn 0.9526 0.1486 0.2655
vn 0.6200 -0.4091 0.6695
vn -0.7018 0.5927 0.3952
vn -0.6488 0.5304 -0.5456
vn 0.3327 0.5302 -0.7798
vn -0.9485 0.0196 -0.3162
vn 0.0024 0.0053 -1.0000
vn -0.3663 0.8257 -0.4291
vn 0.3144 0.8157 -0.4857
vn -0.5212 0.8265 0.2128
vn 0.0267 0.8170 0.5761
vn 0.5168 0.8530 0.0726
vn -0.8101 -0.1191 0.5741
vn -0.2578 -0.9479 0.1873
vn 0.6653 -0.7018 0.2547
vn 0.3187 -0.9479 -0.0000
vn 0.0985 -0.9479 0.3031
vn -0.2578 -0.9479 -0.1873
vn 0.8931 -0.3639 0.2645
vn 0.0244 -0.3639 0.9311
vn -0.8780 -0.3639 0.3109
vn -0.5670 -0.3639 -0.7389
vn 0.5275 -0.3639 -0.7676
vn 0.8011 -0.1400 0.5820
vn -0.3060 -0.1400 0.9417
vn -0.9902 -0.1400 -0.0000
vn -0.3060 -0.1400 -0.9417
vn 0.8011 -0.1400 -0.5820
vn 0.3886 0.7018 0.5971
vn -0.4478 0.7018 0.5540
vn -0.6653 0.7018 -0.2547
vn 0.0366 0.7018 -0.7114
vn 0.6879 0.7018 -0.1850
vn 0.2428 0.9539 -0.1764
vn 0.4569 0.8252 -0.3320
vn 0.3886 0.7018 -0.5971
vn -0.0927 0.9539 -0.2854
vn -0.1745 0.8252 -0.5371
vn -0.4478 0.7018 -0.5540
vn -0.3001 0.9539 -0.0000
vn -0.5648 0.8252 -0.0000
vn -0.6653 0.7018 0.2547
vn -0.0927 0.9539 0.2854
vn -0.1745 0.8252 0.5371
vn 0.0366 0.7018 0.7114
vn 0.2428 0.9539 0.1764
vn 0.4569 0.8252 0.3320
vn 0.6879 0.7018 0.1850
vn 0.8780 0.3639 -0.3109
vn 0.7912 0.2085 -0.5749
vn 0.5670 0.3639 -0.7389
vn -0.0244 0.3639 -0.9311
vn -0.3022 0.2085 -0.9302
vn -0.5275 0.3639 -0.7676
vn -0.8931 0.3639 -0.2645
vn -0.9780 0.2085 -0.0000
vn -0.8931 0.3639 0.2645
vn -0.5275 0.3639 0.7676
vn -0.3022 0.2085 0.9302
vn -0.0244 0.3639 0.9311
vn 0.5670 0.3639 0.7389
vn 0.7912 0.2085 0.5749
vn 0.8780 0.3639 0.3109
vn 0.3060 0.1400 -0.9417
vn 0.3022 -0.2085 -0.9302
vn 0.0244 -0.3639 -0.9311
vn -0.8011 0.1400 -0.5820
vn -0.7912 -0.2085 -0.5749
vn -0.8780 -0.3639 -0.3109
vn -0.8011 0.1400 0.5820
vn -0.7912 -0.2085 0.5749
vn -0.5670 -0.3639 0.7389
vn 0.3060 0.1400 0.9417
vn 0.3022 -0.2085 0.9302
vn 0.5275 -0.3639 0.7676
vn 0.9902 0.1400 -0.0000
vn 0.9780 -0.2085 -0.0000
vn 0.8931 -0.3639 -0.2645
vn 0.4478 -0.7018 -0.5540
vn 0.1745 -0.8252 -0.5371
vn -0.0366 -0.7018 -0.7114
vn -0.3886 -0.7018 -0.5971
vn -0.4569 -0.8252 -0.3320
vn -0.6879 -0.7018 -0.1850
vn -0.6879 -0.7018 0.1850
vn -0.4569 -0.8252 0.3320
vn -0.3886 -0.7018 0.5971
vn 0.6653 -0.7018 -0.2547
vn 0.5648 -0.8252 -0.0000
vn 0.0985 -0.9479 -0.3031
vn -0.0366 -0.7018 0.7114
vn 0.1745 -0.8252 0.5371
vn 0.4478 -0.7018 0.5540
vn 0.1031 -0.9427 0.3174
vn -0.2700 -0.9427 0.1961
vn -0.2700 -0.9427 -0.1961
vn 0.1031 -0.9427 -0.3174
vn 0.3337 -0.9427 -0.0000
vn 0.2786 -0.3492 -0.8947
vn -0.7617 -0.3323 -0.5563
vn 0.5794 0.0793 -0.8112
vn -0.9302 0.3671 0.0035
vn -0.7538 -0.3694 0.5434
vn 0.2378 -0.6796 -0.6940
vn -0.4258 -0.3917 -0.8156
vn -0.5906 -0.6830 0.4298
vn 0.7338 -0.6793 0.0117
vn 0.8109 -0.2198 0.5424
vn -0.3013 0.3444 -0.8892
vn -0.7937 -0.1936 -0.5766
vn 0.7950 0.2303 0.5612
vn -0.3135 0.2312 0.9210
vn 0.2938 -0.1612 -0.9422
vn -0.2895 0.3296 0.8986
vn 0.7624 0.3296 0.5569
vn 0.3021 -0.2099 0.9299
vn -0.4658 -0.3996 0.7895
vn 0.7546 0.3671 -0.5439
vn -0.2996 -0.2560 -0.9191
vn 0.2314 -0.6634 0.7116
vn 0.5900 0.6841 -0.4288
vn -0.7283 0.6852 0.0008
vn -0.2992 -0.2542 0.9197
vn 0.7911 0.5999 -0.1191
vn 0.9927 -0.1198 -0.0114
vn 0.7862 0.1897 -0.5881
vn -0.9816 0.1906 -0.0140
vn 0.2790 -0.3443 0.8965
vn -0.5910 -0.6833 -0.4288
vn 0.1901 0.4894 0.8511
vn -0.9671 -0.2542 0.0011
vn -0.6055 0.0642 0.7933
vn 0.8338 0.5278 0.1618
vn -0.2254 0.6849 0.6929
vn -0.2099 0.6994 -0.6832
vn 0.9237 -0.3828 -0.0110
vn -0.3025 0.2050 -0.9309
vn 0.6507 -0.3850 -0.6545
vn 0.5638 0.0785 0.8222
vn -0.5795 0.5278 0.6210
vn 0.4207 0.5181 0.7447
vn -0.7996 -0.1515 0.5811
vt 0.214633 0.031654
vt 0.214644 0.031866
vt 0.210461 0.039331
vt 0.211826 0.039363
vt 0.210135 0.039500
vt 0.214745 0.039606
vt 0.219161 0.039744
vt 0.214579 0.039657
vt 0.217525 0.039659
vt 0.217386 0.039595
vt 0.211939 0.039774
vt 0.220126 0.090011
vt 0.223011 0.116065
vt 0.221740 0.116095
vt 0.215515 0.090011
vt 0.221105 0.116065
vt 0.222186 0.090093
vt 0.211949 0.040760
vt 0.210623 0.090383
vt 0.216738 0.116722
vt 0.218947 0.090150
vt 0.207318 0.090039
vt 0.211586 0.116040
vt 0.214109 0.090225
vt 0.219204 0.039669
vt 0.219409 0.064334
vt 0.214453 0.064637
vt 0.214667 0.041125
vt 0.207386 0.064018
vt 0.214333 0.064016
vt 0.210376 0.064308
vt 0.210178 0.039668
vt 0.207506 0.064649
vt 0.207350 0.064723
vt 0.209141 0.090278
vt 0.209917 0.064324
vt 0.221952 0.064022
vt 0.221834 0.064675
vt 0.215394 0.090369
vt 0.214888 0.064682
vt 0.219929 0.090369
vt 0.221969 0.064675
vt 0.222160 0.064022
vt 0.223094 0.122392
vt 0.222819 0.122400
vt 0.212593 0.116087
vt 0.215124 0.122380
vt 0.214230 0.122392
vt 0.217756 0.116095
vt 0.220141 0.122392
vt 0.208222 0.116087
vt 0.209900 0.122381
vt 0.206319 0.116072
vt 0.206526 0.122393
vt 0.206246 0.122392
vt 0.214733 0.033409
vt 0.217394 0.041122
vt 0.219083 0.041122
vt 0.222815 0.116708
vt 0.222605 0.090133
vt 0.220984 0.116708
vt 0.208945 0.089883
vt 0.206293 0.090053
vt 0.211943 0.041129
vt 0.211705 0.116722
vt 0.207440 0.090383
vt 0.218963 0.064637
vt 0.218963 0.064016
vt 0.207165 0.063990
vt 0.210263 0.041069
vt 0.215006 0.064023
vt 0.207601 0.116072
vt 0.207809 0.116585
vt 0.210622 0.090039
vt 0.221545 0.116741
vt 0.212593 0.116771
vt 0.217635 0.116741
vt 0.208341 0.116771
vt 0.206527 0.116585
vt 0.216738 0.116040
vt 0.219416 0.122406
vt 0.209176 0.122398
vt 0.209901 0.234995
vt 0.212682 0.231267
vt 0.211212 0.231267
vt 0.209758 0.254979
vt 0.210963 0.234995
vt 0.212682 0.251089
vt 0.213591 0.231267
vt 0.214401 0.234995
vt 0.211774 0.231267
vt 0.215464 0.234995
vt 0.212682 0.234995
vt 0.210963 0.277131
vt 0.207950 0.254979
vt 0.208182 0.251089
vt 0.207119 0.277131
vt 0.212682 0.254979
vt 0.209901 0.251089
vt 0.217414 0.254979
vt 0.215464 0.251089
vt 0.217183 0.277131
vt 0.215607 0.254979
vt 0.217183 0.251089
vt 0.208182 0.277131
vt 0.214401 0.277131
vt 0.218245 0.277131
vt 0.207950 0.299284
vt 0.209901 0.303173
vt 0.209901 0.319268
vt 0.209758 0.299284
vt 0.208182 0.303173
vt 0.210963 0.319268
vt 0.215607 0.299284
vt 0.212682 0.303173
vt 0.214401 0.319268
vt 0.217414 0.299284
vt 0.217183 0.303173
vt 0.215464 0.319268
vt 0.212682 0.299284
vt 0.215464 0.303173
vt 0.212682 0.319268
vt 0.212682 0.326665
vt 0.214152 0.231267
vt 0.212682 0.226867
s 0
usemtl Texture_Map
f 1/1/1 2/2/1 58/3/1
f 58/3/2 3/4/2 10/5/2
f 1/1/3 6/6/3 12/7/3
f 58/3/4 9/8/4 1/1/4
f 1/1/5 8/9/5 2/2/5
f 2/2/6 5/10/6 11/11/6
f 40/12/7 15/13/7 13/14/7
f 37/15/8 20/16/8 38/17/8
f 2/2/9 54/18/9 3/4/9
f 82/19/10 67/20/10 41/21/10
f 35/22/11 16/23/11 36/24/11
f 4/25/12 29/26/12 8/9/12
f 9/8/13 72/27/13 57/28/13
f 9/8/14 26/29/14 25/30/14
f 5/10/15 31/31/15 11/11/15
f 7/32/16 73/33/16 26/29/16
f 71/34/17 78/35/17 24/36/17
f 27/37/18 37/15/18 38/17/18
f 74/38/19 80/39/19 75/40/19
f 81/41/20 76/42/20 29/26/20
f 30/43/21 40/12/21 29/26/21
f 13/14/22 45/44/22 43/45/22
f 18/46/23 49/47/23 48/48/23
f 21/49/24 50/50/24 20/16/24
f 22/51/25 46/52/25 16/23/25
f 17/53/26 44/54/26 47/55/26
f 53/56/27 56/57/27 60/58/27
f 53/56/28 60/58/28 57/28/28
f 81/41/29 63/59/29 39/60/29
f 68/61/30 80/39/30 38/17/30
f 33/62/31 17/53/31 34/63/31
f 2/2/32 59/64/32 53/56/32
f 64/65/33 79/66/33 36/24/33
f 5/10/34 77/67/34 32/68/34
f 10/5/35 24/36/35 23/69/35
f 72/27/36 55/70/36 57/28/36
f 77/67/37 59/64/37 31/31/37
f 6/6/38 75/40/38 28/71/38
f 14/72/39 78/35/39 62/73/39
f 32/68/40 42/74/40 31/31/40
f 72/27/41 79/66/41 73/33/41
f 82/19/42 77/67/42 31/31/42
f 24/36/43 34/63/43 23/69/43
f 61/75/44 45/44/44 63/59/44
f 66/76/45 49/47/45 67/20/45
f 50/50/46 69/77/46 68/61/46
f 46/52/47 70/78/47 64/65/47
f 65/79/48 44/54/48 62/73/48
f 1/1/49 60/58/49 4/25/49
f 2/2/50 56/57/50 5/10/50
f 12/7/51 28/71/51 27/37/51
f 42/74/52 66/76/52 82/19/52
f 4/25/53 76/42/53 30/43/53
f 37/15/54 75/40/54 80/39/54
f 10/5/55 71/34/55 58/3/55
f 61/75/56 40/12/56 13/14/56
f 8/9/57 29/26/57 56/57/57
f 15/13/58 39/60/58 63/59/58
f 11/11/59 31/31/59 59/64/59
f 41/21/60 67/20/60 19/80/60
f 34/63/61 71/34/61 23/69/61
f 36/24/62 72/27/62 25/30/62
f 76/42/63 56/57/63 29/26/63
f 38/17/64 74/38/64 27/37/64
f 71/34/65 54/18/65 58/3/65
f 60/58/66 75/40/66 57/28/66
f 42/74/67 19/80/67 18/46/67
f 1/1/68 57/28/68 6/6/68
f 58/3/69 55/70/69 7/32/69
f 65/79/70 78/35/70 34/63/70
f 33/62/71 24/36/71 78/35/71
f 12/7/72 74/38/72 60/58/72
f 35/22/73 73/33/73 79/66/73
f 37/15/74 69/77/74 21/49/74
f 35/22/75 70/78/75 22/51/75
f 13/14/76 43/45/76 61/75/76
f 18/46/77 48/48/77 66/76/77
f 20/16/78 50/50/78 68/61/78
f 16/23/79 46/52/79 64/65/79
f 17/53/80 47/55/80 65/79/80
f 58/3/81 2/2/81 3/4/81
f 58/3/82 7/32/82 9/8/82
f 1/1/83 4/25/83 8/9/83
f 13/14/84 15/13/84 45/44/84
f 18/46/85 19/80/85 49/47/85
f 21/49/86 51/81/86 50/50/86
f 22/51/87 52/82/87 46/52/87
f 17/53/88 14/72/88 44/54/88
f 53/56/89 58/3/89 54/18/89
f 57/28/90 55/70/90 53/56/90
f 53/56/91 59/64/91 56/57/91
f 61/75/92 43/45/92 45/44/92
f 66/76/93 48/48/93 49/47/93
f 50/50/94 51/81/94 69/77/94
f 46/52/95 52/82/95 70/78/95
f 65/79/96 47/55/96 44/54/96
f 1/1/97 9/8/97 57/28/97
f 10/5/98 23/69/98 71/34/98
f 3/4/99 54/18/99 24/36/99
f 40/12/100 81/41/100 29/26/100
f 42/74/101 82/19/101 31/31/101
f 1/1/102 12/7/102 60/58/102
f 58/3/103 53/56/103 55/70/103
f 2/2/104 8/9/104 56/57/104
f 17/53/105 65/79/105 34/63/105
f 36/24/106 16/23/106 64/65/106
f 20/16/107 68/61/107 38/17/107
f 39/60/108 30/43/108 76/42/108
f 41/21/109 32/68/109 77/67/109
f 15/13/110 63/59/110 45/44/110
f 19/80/111 67/20/111 49/47/111
f 21/49/112 69/77/112 51/81/112
f 22/51/113 70/78/113 52/82/113
f 14/72/114 62/73/114 44/54/114
f 25/30/115 35/22/115 36/24/115
f 94/83/116 126/84/116 124/85/116
f 83/86/117 95/87/117 97/88/117
f 95/87/118 129/89/118 98/90/118
f 95/87/119 124/85/119 128/91/119
f 101/92/120 126/84/120 99/93/120
f 83/86/121 97/88/121 104/94/121
f 84/95/122 96/96/122 106/97/122
f 85/98/123 100/99/123 108/94/123
f 86/100/124 102/101/124 110/102/124
f 87/103/125 103/104/125 112/102/125
f 83/86/126 104/94/126 107/105/126
f 84/95/127 106/97/127 109/105/127
f 85/98/128 108/94/128 111/106/128
f 86/100/129 110/102/129 113/107/129
f 87/103/130 112/102/130 105/106/130
f 88/108/131 114/109/131 119/110/131
f 89/111/132 115/112/132 121/113/132
f 90/114/133 116/115/133 122/116/133
f 91/117/134 117/118/134 123/119/134
f 92/120/135 118/121/135 120/122/135
f 120/122/136 123/119/136 93/123/136
f 120/122/137 118/121/137 123/119/137
f 118/121/138 91/117/138 123/119/138
f 123/119/139 122/116/139 93/123/139
f 123/119/140 117/118/140 122/116/140
f 117/118/141 90/114/141 122/116/141
f 122/116/142 121/113/142 93/123/142
f 122/116/143 116/115/143 121/113/143
f 116/115/144 89/111/144 121/113/144
f 121/113/145 119/110/145 93/123/145
f 121/113/146 115/112/146 119/110/146
f 115/112/147 88/108/147 119/110/147
f 119/110/148 120/122/148 93/123/148
f 119/110/149 114/109/149 120/122/149
f 114/109/150 92/120/150 120/122/150
f 105/106/151 118/121/151 92/120/151
f 105/106/152 112/102/152 118/121/152
f 112/102/153 91/117/153 118/121/153
f 113/107/154 117/118/154 91/117/154
f 113/107/155 110/102/155 117/118/155
f 110/102/156 90/114/156 117/118/156
f 111/106/157 116/115/157 90/114/157
f 111/106/158 108/94/158 116/115/158
f 108/94/159 89/111/159 116/115/159
f 109/105/160 115/112/160 89/111/160
f 109/105/161 106/97/161 115/112/161
f 106/97/162 88/108/162 115/112/162
f 107/105/163 114/109/163 88/108/163
f 107/105/164 104/94/164 114/109/164
f 104/94/165 92/120/165 114/109/165
f 112/102/166 113/107/166 91/117/166
f 112/102/167 103/104/167 113/107/167
f 103/104/168 86/100/168 113/107/168
f 110/102/169 111/106/169 90/114/169
f 110/102/170 102/101/170 111/106/170
f 102/101/171 85/98/171 111/106/171
f 108/94/172 109/105/172 89/111/172
f 108/94/173 100/99/173 109/105/173
f 100/99/174 84/95/174 109/105/174
f 106/97/175 107/105/175 88/108/175
f 106/97/176 96/96/176 107/105/176
f 96/96/177 83/86/177 107/105/177
f 104/94/178 105/106/178 92/120/178
f 104/94/179 97/88/179 105/106/179
f 97/88/180 87/103/180 105/106/180
f 98/90/181 103/104/181 87/103/181
f 98/90/182 101/92/182 103/104/182
f 101/92/183 86/100/183 103/104/183
f 101/92/184 102/101/184 86/100/184
f 101/92/185 99/93/185 102/101/185
f 99/93/186 85/98/186 102/101/186
f 99/93/187 100/99/187 85/98/187
f 99/93/188 94/83/188 100/99/188
f 94/83/189 84/95/189 100/99/189
f 97/88/190 98/90/190 87/103/190
f 97/88/191 95/87/191 98/90/191
f 98/90/192 127/124/192 101/92/192
f 94/83/193 96/96/193 84/95/193
f 94/83/194 95/87/194 96/96/194
f 95/87/195 83/86/195 96/96/195
f 125/125/196 128/91/196 124/85/196
f 125/125/197 124/85/197 126/84/197
f 125/125/198 126/84/198 127/124/198
f 125/125/199 127/124/199 129/89/199
f 128/91/200 125/125/200 129/89/200
f 40/12/201 39/60/201 15/13/201
f 37/15/202 21/49/202 20/16/202
f 2/2/203 53/56/203 54/18/203
f 82/19/204 66/76/204 67/20/204
f 35/22/205 22/51/205 16/23/205
f 4/25/206 30/43/206 29/26/206
f 9/8/207 25/30/207 72/27/207
f 9/8/208 7/32/208 26/29/208
f 5/10/209 32/68/209 31/31/209
f 7/32/210 55/70/210 73/33/210
f 71/34/211 34/63/211 78/35/211
f 27/37/212 28/71/212 37/15/212
f 74/38/213 38/17/213 80/39/213
f 81/41/214 39/60/214 76/42/214
f 30/43/215 39/60/215 40/12/215
f 81/41/216 61/75/216 63/59/216
f 68/61/217 69/77/217 80/39/217
f 33/62/218 14/72/218 17/53/218
f 2/2/219 11/11/219 59/64/219
f 64/65/220 70/78/220 79/66/220
f 5/10/221 56/57/221 77/67/221
f 10/5/222 3/4/222 24/36/222
f 72/27/223 73/33/223 55/70/223
f 77/67/224 56/57/224 59/64/224
f 6/6/225 57/28/225 75/40/225
f 14/72/226 33/62/226 78/35/226
f 32/68/227 41/21/227 42/74/227
f 72/27/228 36/24/228 79/66/228
f 82/19/229 41/21/229 77/67/229
f 24/36/230 33/62/230 34/63/230
f 12/7/231 6/6/231 28/71/231
f 42/74/232 18/46/232 66/76/232
f 4/25/233 60/58/233 76/42/233
f 37/15/234 28/71/234 75/40/234
f 61/75/235 81/41/235 40/12/235
f 76/42/236 60/58/236 56/57/236
f 71/34/237 24/36/237 54/18/237
f 60/58/66 74/38/66 75/40/66
f 42/74/238 41/21/238 19/80/238
f 65/79/239 62/73/239 78/35/239
f 12/7/240 27/37/240 74/38/240
f 35/22/241 26/29/241 73/33/241
f 37/15/242 80/39/242 69/77/242
f 35/22/243 79/66/243 70/78/243
f 25/30/244 26/29/244 35/22/244
f 94/83/116 99/93/116 126/84/116
f 95/87/118 128/91/118 129/89/118
f 95/87/119 94/83/119 124/85/119
f 101/92/120 127/124/120 126/84/120
f 98/90/192 129/89/192 127/124/192
