# Blender 4.4.0
# www.blender.org
mtllib Crop_Cabbage_01.mtl
o Crop_Cabbage_01
v 0.055523 0.257449 -0.055584
v 0.078373 0.191808 -0.086562
v 0.079732 0.118664 -0.095093
v 0.066506 0.049891 -0.074483
v 0.053752 0.009939 -0.018108
v 0.095730 0.286143 -0.016244
v 0.119578 0.218690 -0.030793
v 0.132817 0.127953 -0.043574
v 0.109399 0.046238 -0.028694
v 0.103501 0.306967 0.031321
v 0.146881 0.175347 0.032653
v 0.129164 0.050852 0.031538
v 0.096768 0.285881 0.072578
v 0.120156 0.213620 0.094840
v 0.132829 0.128422 0.106942
v 0.102799 0.033527 0.087078
v 0.061103 -0.003821 0.040580
v 0.053720 0.256162 0.119172
v 0.077270 0.177065 0.157914
v 0.072755 0.072789 0.143560
v 0.041234 0.011725 0.100482
v 0.014505 0.241004 0.137581
v 0.010957 0.168147 0.174735
v 0.007203 0.092831 0.168705
v 0.003622 0.030271 0.132720
v -0.003043 -0.002836 0.037564
v 0.009549 0.247060 -0.071391
v 0.013505 0.174103 -0.104860
v 0.005243 0.105445 -0.113585
v 0.002736 0.011201 -0.047136
v 0.020916 0.234758 -0.075263
v 0.040719 0.237976 0.130865
v 0.056603 0.223621 0.148581
v 0.071371 0.206723 0.154739
v 0.077522 0.182699 0.157703
v 0.087441 0.157459 0.154601
v 0.087005 0.116968 0.155913
v 0.085064 0.073619 0.140889
v 0.058834 0.048998 0.130536
v 0.051836 0.032873 0.116994
v 0.010075 0.252004 0.149981
v 0.021200 0.158157 0.183117
v 0.023507 0.062093 0.162669
v -0.033946 0.260662 0.136761
v -0.053857 0.134380 0.178951
v -0.044134 0.056001 0.155750
v -0.009256 0.008864 0.116422
v 0.036546 0.006507 0.075102
v -0.064273 0.240298 0.118994
v -0.102658 0.202486 0.133568
v -0.110446 0.081588 0.126857
v -0.080700 0.232736 0.084906
v -0.096117 0.222465 0.088563
v -0.122800 0.185801 0.081691
v -0.141615 0.159994 0.073686
v -0.140598 0.102544 0.065144
v -0.130220 0.076530 0.068409
v -0.113844 0.046098 0.055153
v -0.078408 0.007743 0.054978
v -0.053319 -0.005856 0.041315
v 0.001678 -0.000868 0.031738
v -0.098971 0.219297 0.103931
v -0.064874 0.026197 0.097875
v -0.103968 0.270219 0.039212
v -0.163756 0.135800 0.077176
v -0.131168 0.040210 0.083473
v -0.107945 0.297413 -0.006662
v -0.161569 0.134477 0.014736
v -0.142774 0.052552 0.014814
v -0.045791 -0.011145 0.054898
v -0.071041 0.295088 -0.046115
v -0.104323 0.277139 -0.008597
v -0.121751 0.129070 -0.051544
v -0.110448 0.041980 -0.047520
v -0.048148 0.282887 -0.069238
v -0.060073 0.203115 -0.100785
v -0.066873 0.106885 -0.109955
v -0.060894 0.040382 -0.087080
v -0.074528 0.000063 0.017750
v -0.012119 0.251970 -0.082619
v -0.007696 0.200891 -0.114817
v 0.003168 0.101903 -0.136798
v -0.000035 -0.000830 -0.050726
v 0.026994 0.233561 -0.077090
v 0.047552 0.198121 -0.095289
v 0.067330 0.089684 -0.099383
v 0.054054 0.040811 -0.070738
v 0.025266 0.002776 -0.005280
v -0.077935 0.258524 0.071081
v -0.116320 0.192636 0.118980
v -0.111786 0.121547 0.132816
v -0.115092 0.082031 0.122380
v -0.084683 0.051951 0.113907
v -0.023182 0.009538 0.071963
v 0.055120 0.256987 -0.054767
v 0.077887 0.191488 -0.085680
v 0.079205 0.118782 -0.094178
v 0.066094 0.050493 -0.073700
v 0.094702 0.285760 -0.015832
v 0.118708 0.218331 -0.030299
v 0.131879 0.128033 -0.043074
v 0.108646 0.046881 -0.028272
v 0.102556 0.307292 0.031333
v 0.145848 0.175200 0.032648
v 0.128222 0.051398 0.031554
v 0.095729 0.285492 0.072220
v 0.119303 0.213257 0.094339
v 0.131901 0.128516 0.106423
v 0.102097 0.034209 0.086640
v 0.053290 0.255687 0.118383
v 0.076766 0.176851 0.156988
v 0.072282 0.073199 0.142717
v 0.014310 0.240538 0.136717
v 0.010723 0.167997 0.173730
v 0.006946 0.093113 0.167759
v 0.003483 0.030502 0.131986
v -0.003028 0.010830 0.037521
v 0.009353 0.246606 -0.070522
v 0.013302 0.173878 -0.103894
v 0.005036 0.105670 -0.112577
v 0.002561 0.012684 -0.046616
v 0.020739 0.234306 -0.074388
v 0.040206 0.237145 0.130652
v 0.056139 0.222895 0.147901
v 0.071098 0.206391 0.153799
v 0.077158 0.182573 0.156776
v 0.087046 0.157426 0.153683
v 0.086661 0.117125 0.154975
v 0.075669 0.074293 0.140034
v 0.053310 0.049661 0.129791
v 0.053016 0.035499 0.116988
v 0.010041 0.251458 0.148923
v 0.021084 0.158069 0.182080
v 0.023350 0.062583 0.161752
v -0.033562 0.260167 0.135789
v -0.053495 0.134393 0.177937
v -0.043821 0.056575 0.154911
v 0.037782 0.007504 0.075397
v -0.063627 0.239562 0.118785
v -0.101862 0.202010 0.132919
v -0.109669 0.081968 0.126222
v -0.080104 0.231953 0.084688
v -0.095474 0.221697 0.088315
v -0.121982 0.185243 0.081553
v -0.140655 0.159879 0.073215
v -0.139683 0.102712 0.064754
v 0.001574 0.004363 0.031657
v -0.098467 0.218633 0.103370
v -0.064561 0.027748 0.097286
v -0.102977 0.269716 0.038967
v -0.162688 0.135743 0.076854
v -0.130368 0.040863 0.083034
v -0.106972 0.297545 -0.006228
v -0.160513 0.134416 0.014994
v -0.141830 0.053033 0.014970
v -0.070313 0.295162 -0.045434
v -0.103328 0.277017 -0.008191
v -0.120930 0.129018 -0.050940
v -0.109703 0.042541 -0.046959
v -0.047553 0.282531 -0.068369
v -0.059545 0.202804 -0.099915
v -0.066310 0.106977 -0.109084
v -0.060518 0.041022 -0.086316
v -0.012183 0.251487 -0.081706
v -0.007749 0.200490 -0.113836
v 0.003068 0.102108 -0.135674
v -0.000174 0.000171 -0.050233
v 0.026666 0.233017 -0.076317
v 0.047174 0.197756 -0.094408
v 0.064944 0.089995 -0.097179
v 0.053416 0.042874 -0.069284
v 0.024975 0.006292 -0.005178
v -0.077535 0.257819 0.070495
v -0.115491 0.192225 0.118460
v -0.111049 0.121564 0.132133
v -0.023299 0.013094 0.071544
v 0.063551 0.207756 -0.068698
v 0.070967 0.148373 -0.087596
v 0.066746 0.102164 -0.080964
v 0.060579 0.248566 -0.018856
v 0.121227 0.167891 -0.036815
v 0.114379 0.102164 -0.033331
v 0.081405 0.245347 0.033427
v 0.139498 0.168042 0.031764
v 0.131814 0.102164 0.031738
v 0.096552 0.219998 0.087533
v 0.121036 0.148383 0.100979
v 0.114379 0.102164 0.096806
v 0.058973 0.209150 0.133208
v 0.070424 0.148383 0.151382
v 0.066746 0.102164 0.144439
v 0.023909 0.262318 0.073876
v 0.000044 0.218007 0.142998
v 0.002006 0.149585 0.169505
v 0.001678 0.102164 0.161874
v -0.056680 0.207451 0.133049
v -0.067443 0.148096 0.151432
v -0.063390 0.102164 0.144439
v -0.047147 0.250464 0.084110
v -0.118013 0.169860 0.098438
v -0.111024 0.102164 0.096806
v -0.136094 0.168658 0.032411
v -0.128459 0.102164 0.031738
v -0.052407 0.261243 0.030131
v -0.101416 0.203625 -0.028312
v -0.115441 0.101224 -0.035948
v -0.053744 0.205492 -0.071198
v -0.066946 0.148927 -0.088017
v -0.063390 0.102164 -0.080964
v 0.018894 0.268286 0.011721
v -0.004956 0.244909 -0.052730
v 0.001838 0.157487 -0.106561
v 0.001678 0.102164 -0.098399
v -0.113745 0.082475 0.119919
v -0.083503 0.053741 0.113193
vn 0.0660 -0.9851 -0.1587
vn 0.2237 0.0963 -0.9699
vn 0.2818 -0.3248 -0.9029
vn 0.1381 0.4207 -0.8966
vn 0.6844 0.0970 -0.7227
vn 0.6799 -0.3154 -0.6620
vn 0.5598 0.5049 -0.6570
vn 0.9212 0.3584 -0.1516
vn 0.5850 -0.7703 -0.2539
vn 0.9422 0.1775 -0.2842
vn 0.9856 -0.1394 -0.0952
vn 0.9391 0.1812 0.2921
vn 0.9852 -0.1411 0.0972
vn 0.9188 0.3522 0.1781
vn 0.6298 -0.7746 0.0574
vn 0.3749 -0.6558 0.6553
vn 0.5596 0.4929 0.6662
vn 0.3794 -0.8572 0.3483
vn 0.7027 -0.3518 0.6184
vn 0.3161 -0.1428 0.9379
vn 0.2869 -0.6467 0.7067
vn 0.1643 0.4418 0.8820
vn 0.3300 0.1984 0.9229
vn 0.3954 0.0426 0.9175
vn 0.2684 -0.1944 0.9435
vn 0.3687 -0.3191 0.8731
vn 0.5135 0.8312 0.2132
vn 0.2777 -0.7218 0.6340
vn 0.3830 0.5929 0.7084
vn 0.3296 -0.8486 0.4138
vn -0.1512 0.3131 0.9376
vn 0.0116 -0.2079 0.9781
vn -0.0174 -0.9991 0.0378
vn -0.6788 0.0030 0.7343
vn 0.1046 -0.9909 0.0844
vn -0.4766 -0.3034 0.8251
vn -0.6339 0.7356 0.2389
vn -0.4367 -0.7445 0.5050
vn -0.7744 -0.5517 0.3097
vn -0.4797 0.8257 0.2968
vn -0.6878 -0.6371 0.3479
vn -0.8130 0.5667 0.1334
vn -0.8203 0.5546 0.1401
vn -0.9059 -0.0779 0.4162
vn -0.8298 0.4588 0.3178
vn 0.4652 -0.8076 0.3625
vn -0.7164 0.0890 0.6920
vn -0.7867 -0.2305 0.5728
vn -0.3483 -0.5632 0.7493
vn -0.4001 0.7050 0.5856
vn -0.2901 -0.6565 0.6963
vn 0.1389 -0.7162 0.6840
vn -0.9171 0.3965 -0.0405
vn -0.9672 -0.2218 0.1236
vn -0.6081 -0.7929 -0.0397
vn -0.5954 -0.7840 -0.1758
vn -0.8543 -0.1341 -0.5023
vn -0.7465 -0.1271 -0.6531
vn -0.7036 0.3498 -0.6186
vn -0.3458 -0.8645 -0.3649
vn -0.2024 0.5096 -0.8363
vn -0.2471 0.1841 -0.9513
vn -0.0347 -0.9639 -0.2640
vn -0.3580 -0.3323 -0.8726
vn 0.3342 0.2391 -0.9117
vn 0.2103 -0.6317 -0.7462
vn 0.2400 0.1169 -0.9637
vn 0.1960 0.4546 -0.8689
vn -0.0009 -0.5762 -0.8173
vn 0.1822 0.4708 -0.8632
vn 0.2726 -0.8130 -0.5145
vn 0.7401 0.1985 -0.6425
vn 0.6871 -0.3266 -0.6491
vn 0.5150 0.3508 -0.7822
vn 0.4228 -0.7818 -0.4584
vn 0.9099 -0.3108 -0.2748
vn 0.9455 -0.3254 -0.0120
vn 0.9094 0.4157 -0.0094
vn 0.5285 -0.8419 -0.1089
vn -0.0043 -0.9737 -0.2278
vn 0.8849 -0.3454 0.3123
vn 0.5306 0.4017 0.7464
vn 0.7520 0.2010 0.6278
vn -0.0263 -0.9697 0.2429
vn 0.6035 -0.1343 0.7860
vn -0.1704 -0.9269 0.3344
vn 0.2562 -0.0898 0.9624
vn 0.1734 -0.4985 0.8494
vn 0.2137 0.4803 0.8507
vn 0.1847 0.3466 0.9197
vn 0.3955 0.0255 0.9181
vn 0.3575 -0.6591 0.6617
vn 0.3329 -0.6870 0.6459
vn -0.0714 -0.2912 0.9540
vn -0.0194 -0.6489 0.7606
vn -0.2087 0.3393 0.9172
vn -0.1119 -0.7994 0.5902
vn -0.4935 -0.7071 0.5065
vn -0.3334 0.3456 0.8772
vn -0.6623 0.7327 0.1566
vn -0.8460 0.0249 0.5327
vn -0.8907 -0.3141 0.3285
vn -0.5210 0.6508 0.5523
vn -0.7404 -0.1130 0.6626
vn -0.2856 -0.7826 0.5532
vn -0.9227 0.3804 0.0619
vn -0.4842 -0.8677 0.1128
vn -0.9457 -0.3241 -0.0263
vn -0.9846 -0.1742 -0.0179
vn -0.8829 -0.2029 -0.4234
vn -0.7307 -0.0657 -0.6796
vn -0.8219 0.2458 -0.5138
vn -0.7731 0.2589 -0.5790
vn -0.7014 0.1166 -0.7032
vn -0.5996 -0.3080 -0.7387
vn -0.7280 -0.0746 -0.6815
vn -0.3422 -0.8530 -0.3942
vn 0.0225 -0.6425 -0.7660
vn -0.0264 0.3710 -0.9282
vn 0.0402 -0.9976 0.0568
vn -0.3485 0.1133 -0.9304
vn 0.5176 0.1263 -0.8463
vn 0.3436 -0.5426 -0.7665
vn 0.3547 0.5204 -0.7768
vn 0.5370 -0.8103 -0.2347
vn 0.2995 0.5676 -0.7669
vn -0.2236 -0.0964 0.9699
vn -0.2814 0.3248 0.9029
vn -0.1381 -0.4208 0.8966
vn -0.6842 -0.0969 0.7228
vn -0.6799 0.3154 0.6620
vn -0.5597 -0.5047 0.6572
vn -0.9208 -0.3600 0.1503
vn -0.9421 -0.1777 0.2845
vn -0.9857 0.1395 0.0949
vn -0.9390 -0.1813 -0.2922
vn -0.9852 0.1411 -0.0969
vn -0.9184 -0.3539 -0.1769
vn -0.5595 -0.4929 -0.6663
vn -0.7028 0.3518 -0.6183
vn -0.3160 0.1428 -0.9380
vn -0.1643 -0.4419 -0.8819
vn -0.3294 -0.1992 -0.9229
vn -0.3954 -0.0426 -0.9175
vn -0.2685 0.1945 -0.9434
vn -0.4262 0.3935 -0.8146
vn -0.5187 -0.8297 -0.2063
vn -0.3881 -0.6013 -0.6984
vn 0.1520 -0.3147 -0.9370
vn -0.0117 0.2080 -0.9781
vn 0.6789 -0.0032 -0.7342
vn 0.4765 0.3034 -0.8252
vn 0.6361 -0.7355 -0.2334
vn 0.4811 -0.8254 -0.2954
vn 0.8132 -0.5665 -0.1336
vn 0.8187 -0.5571 -0.1388
vn 0.9059 0.0770 -0.4164
vn 0.8296 -0.4595 -0.3173
vn 0.7164 -0.0889 -0.6920
vn 0.3978 -0.7050 -0.5871
vn 0.9169 -0.3971 0.0407
vn 0.9672 0.2221 -0.1232
vn 0.8544 0.1340 0.5020
vn 0.7465 0.1270 0.6531
vn 0.7027 -0.3507 0.6191
vn 0.2021 -0.5094 0.8365
vn 0.2475 -0.1839 0.9513
vn 0.3578 0.3326 0.8726
vn -0.3344 -0.2391 0.9116
vn -0.2374 0.6284 0.7407
vn -0.2399 -0.1170 0.9637
vn -0.1960 -0.4546 0.8689
vn -0.1821 -0.4707 0.8633
vn -0.7404 -0.1988 0.6421
vn -0.6871 0.3266 0.6491
vn -0.5144 -0.3510 0.7824
vn -0.9101 0.3106 0.2743
vn -0.9476 0.3193 0.0120
vn -0.9091 -0.4165 0.0093
vn -0.8851 0.3452 -0.3121
vn -0.5302 -0.4017 -0.7467
vn -0.7521 -0.2013 -0.6276
vn -0.6032 0.1343 -0.7862
vn -0.2560 0.0897 -0.9625
vn -0.2135 -0.4802 -0.8508
vn -0.1835 -0.3481 -0.9193
vn -0.3955 -0.0256 -0.9181
vn -0.4120 0.6426 -0.6460
vn -0.4431 0.6062 -0.6604
vn 0.0711 0.2911 -0.9540
vn 0.2083 -0.3403 -0.9170
vn 0.3320 -0.3466 -0.8773
vn 0.6621 -0.7330 -0.1564
vn 0.8463 -0.0254 -0.5320
vn 0.5200 -0.6511 -0.5529
vn 0.9224 -0.3806 -0.0658
vn 0.9457 0.3239 0.0263
vn 0.9847 0.1730 0.0195
vn 0.8829 0.2026 0.4237
vn 0.7309 0.0648 0.6794
vn 0.8220 -0.2461 0.5136
vn 0.7732 -0.2591 0.5788
vn 0.7014 -0.1168 0.7032
vn 0.6003 0.3076 0.7383
vn 0.7280 0.0743 0.6815
vn 0.3418 0.8531 0.3942
vn -0.0229 0.6426 0.7658
vn 0.0244 -0.3710 0.9283
vn 0.3486 -0.1136 0.9304
vn -0.5405 -0.1106 0.8340
vn -0.3665 0.5387 0.7586
vn -0.3551 -0.5202 0.7767
vn -0.2995 -0.5676 0.7669
vn -0.4162 0.8827 -0.2184
vn 0.2878 0.8522 -0.4370
vn -0.4346 0.8228 0.3661
vn -0.6449 0.7571 -0.1042
vn -0.9674 0.1509 0.2035
vn -0.9626 0.0270 0.2698
vn -0.9842 -0.0437 0.1717
vn -0.9976 0.0013 0.0694
vn -0.4735 0.8154 -0.3331
vn -0.9750 0.1401 -0.1723
vn -0.9789 0.1732 -0.1081
vn -0.9788 -0.1006 -0.1786
vn -0.9933 -0.0934 -0.0680
vn -0.3178 0.8836 0.3437
vn -0.7242 -0.5303 -0.4408
vn 0.6326 -0.1988 -0.7486
vn 0.6137 0.2944 -0.7326
vn 0.9216 0.1946 -0.3358
vn 0.8432 0.3783 -0.3819
vn 0.9185 -0.0214 -0.3949
vn 0.9402 0.0732 -0.3326
vn 0.1072 0.2861 -0.9522
vn 0.1777 0.6579 -0.7318
vn 0.9105 -0.4095 -0.0578
vn 0.1174 0.8810 -0.4582
vn 0.2826 0.8953 -0.3444
vn 0.2037 0.4290 -0.8800
vn -0.2779 0.0762 -0.9576
vn -0.0276 0.2017 -0.9791
vn -0.3343 0.4929 -0.8033
vn -0.4086 0.1268 -0.9039
vn 0.6460 0.6168 -0.4498
vn 0.6199 -0.6298 -0.4679
vn 0.8345 0.0162 0.5507
vn -0.3325 0.7984 0.5021
vn -0.0233 0.9963 -0.0823
vn 0.4885 0.8722 0.0235
vn 0.6872 0.6212 0.3766
vn 0.8472 0.2510 0.4683
vn 0.6821 0.0970 0.7248
vn 0.9195 0.0077 0.3930
vn 0.8999 0.0619 0.4317
vn 0.2617 0.7334 0.6274
vn 0.7093 -0.0557 0.7027
vn 0.5883 0.1905 0.7859
vn 0.5877 -0.0652 0.8065
vn 0.5673 0.1897 0.8014
vn 0.8465 0.0898 0.5247
vn 0.4452 0.8947 -0.0354
vn 0.2562 -0.1418 -0.9562
vn 0.1483 0.9108 -0.3852
vn 0.2684 0.7531 -0.6006
vn 0.0890 0.5273 -0.8450
vn 0.6144 0.3079 -0.7264
vn 0.6976 -0.1638 -0.6976
vn 0.3707 0.9243 -0.0908
vn 0.7602 0.6169 -0.2039
vn 0.9597 -0.1136 -0.2571
vn 0.9598 -0.1121 0.2572
vn 0.3240 0.9439 0.0645
vn 0.7987 0.5990 0.0570
vn 0.6609 0.3505 0.6636
vn 0.6976 -0.1635 0.6976
vn 0.2478 0.3202 0.9144
vn 0.2553 -0.1635 0.9529
vn -0.2471 0.7512 0.6121
vn -0.2434 0.3443 0.9068
vn -0.0719 0.9923 0.1011
vn -0.2552 -0.1675 0.9523
vn -0.0667 0.8503 0.5221
vn -0.6971 -0.1676 0.6971
vn -0.6362 0.6368 0.4357
vn -0.7265 0.6613 0.1869
vn -0.9598 -0.1128 0.2572
vn -0.8936 0.1538 -0.4217
vn -0.7890 0.1524 -0.5952
vn -0.1660 0.9451 -0.2814
vn -0.4452 0.7673 -0.4615
vn -0.2554 -0.1632 -0.9530
vn -0.2839 0.3336 -0.8990
vn 0.2898 0.3229 -0.9010
vn 0.2416 -0.1594 -0.9572
vn 0.7274 -0.1117 -0.6770
vn 0.6626 0.5984 -0.4504
vn 0.7670 0.5822 -0.2697
vn 0.9603 -0.1119 -0.2556
vn 0.8707 0.3605 0.3346
vn 0.9643 -0.1581 0.2123
vn 0.4449 0.8524 0.2748
vn 0.3680 0.7900 0.4904
vn 0.6916 0.3235 0.6458
vn 0.6965 -0.1605 0.6994
vn 0.2052 0.3587 0.9106
vn 0.2504 -0.1555 0.9556
vn 0.2144 0.7870 0.5785
vn -0.2217 0.3249 0.9194
vn -0.2458 -0.1523 0.9573
vn -0.1320 0.9695 0.2065
vn -0.7390 -0.0924 0.6673
vn -0.6100 0.3333 0.7189
vn -0.7172 0.6666 0.2030
vn -0.9586 -0.1054 0.2644
vn -0.9763 -0.1102 -0.1862
vn -0.7418 0.6696 -0.0381
vn -0.6334 0.3526 -0.6888
vn -0.6439 -0.1618 -0.7479
vn -0.4447 0.7956 -0.4115
vn -0.2413 -0.1410 -0.9602
vn -0.0952 0.5166 -0.8509
vn 0.2796 0.9409 0.1911
vn 0.2796 0.9428 0.1816
vn 0.6630 -0.2425 0.7083
vn 0.6824 0.5564 0.4741
vn 0.7694 0.2231 -0.5985
vn -0.6503 0.7524 0.1051
vn -0.4361 0.8484 -0.3001
vn 0.2922 0.8314 0.4726
vn -0.4031 0.8936 0.1975
vn -0.9801 0.1265 0.1530
vn -0.9743 0.0307 0.2230
vn -0.9676 -0.0819 0.2387
vn -0.9686 -0.2213 0.1129
vn -0.4534 0.8510 -0.2650
vn -0.9623 0.1450 -0.2301
vn -0.9679 0.1953 -0.1579
vn -0.9884 -0.0692 -0.1354
vn -0.9977 0.0009 -0.0679
vn -0.3269 0.8657 0.3791
vn -0.7270 -0.5394 -0.4250
vn 0.7763 0.0889 -0.6240
vn 0.7571 0.5154 -0.4013
vn 0.9065 0.1831 -0.3803
vn 0.8450 0.3787 -0.3776
vn 0.9374 -0.0213 -0.3475
vn 0.1079 0.3026 -0.9470
vn 0.1590 0.2525 -0.9544
vn 0.9119 -0.4100 0.0169
vn 0.5594 -0.7781 0.2856
vn -0.3189 0.4155 -0.8519
vn 0.2996 0.8439 -0.4450
vn -0.2484 0.8199 -0.5157
vn -0.2688 0.0629 -0.9611
vn -0.0834 0.2419 -0.9667
vn 0.0353 0.2885 -0.9568
vn -0.4243 0.1258 -0.8967
vn 0.6094 0.6596 -0.4400
vn 0.7788 0.0058 -0.6272
vn 0.7896 0.0855 0.6077
vn 0.4911 0.7605 0.4249
vn -0.0766 0.9886 -0.1299
vn 0.1996 0.9285 -0.3133
vn 0.6236 0.7740 -0.1093
vn 0.8314 0.2222 0.5094
vn 0.8887 0.1353 0.4381
vn 0.6766 0.2268 0.7006
vn 0.9145 -0.0020 0.4046
vn 0.3241 0.8267 0.4598
vn 0.5634 0.0965 0.8205
vn 0.6665 0.1818 0.7230
vn 0.7131 0.1183 0.6910
vn 0.5572 0.1153 0.8223
vn 0.8480 0.0549 0.5271
vn 0.6914 0.6516 -0.3121
vn -0.0221 0.8488 -0.5282
vn 0.8744 -0.1986 0.4428
vn 0.3434 0.1442 0.9281
vn 0.7414 0.1530 -0.6534
vt 0.208564 0.031531
vt 0.208171 0.031146
vt 0.207417 0.027240
vt 0.209346 0.081332
vt 0.209214 0.064384
vt 0.209464 0.060343
vt 0.208935 0.043359
vt 0.208945 0.099875
vt 0.209098 0.086744
vt 0.208516 0.067224
vt 0.208314 0.042243
vt 0.208679 0.106812
vt 0.208343 0.094962
vt 0.208146 0.115584
vt 0.207483 0.081712
vt 0.207498 0.043653
vt 0.207376 0.026939
vt 0.206641 0.093413
vt 0.206477 0.067367
vt 0.206942 0.115504
vt 0.206746 0.038357
vt 0.205981 0.050360
vt 0.206564 0.031692
vt 0.206311 0.106418
vt 0.205786 0.082237
vt 0.205640 0.056487
vt 0.206128 0.037361
vt 0.206062 0.101784
vt 0.205559 0.079511
vt 0.205829 0.091304
vt 0.205445 0.076457
vt 0.205789 0.083960
vt 0.205831 0.076244
vt 0.205814 0.063865
vt 0.205722 0.047090
vt 0.206017 0.050613
vt 0.206153 0.100859
vt 0.205894 0.105147
vt 0.205913 0.096470
vt 0.206341 0.038157
vt 0.206349 0.030817
vt 0.206908 0.030096
vt 0.205502 0.069188
vt 0.207181 0.030474
vt 0.206116 0.090009
vt 0.206207 0.053049
vt 0.207496 0.027842
vt 0.207366 0.026317
vt 0.205816 0.045227
vt 0.206073 0.107794
vt 0.206314 0.101569
vt 0.206999 0.051503
vt 0.207179 0.042200
vt 0.206775 0.099257
vt 0.206726 0.096117
vt 0.206819 0.084908
vt 0.206927 0.077019
vt 0.207043 0.059456
vt 0.206314 0.086998
vt 0.207394 0.110715
vt 0.206880 0.069622
vt 0.207997 0.028956
vt 0.206951 0.031023
vt 0.207182 0.024700
vt 0.206126 0.065265
vt 0.206268 0.053185
vt 0.206795 0.040400
vt 0.206383 0.043989
vt 0.206963 0.107140
vt 0.206518 0.095148
vt 0.206600 0.036116
vt 0.207726 0.069218
vt 0.207725 0.044173
vt 0.207685 0.028126
vt 0.208569 0.040941
vt 0.208624 0.067565
vt 0.209415 0.060783
vt 0.208042 0.112831
vt 0.208864 0.114588
vt 0.209291 0.090201
vt 0.208613 0.027854
vt 0.209045 0.105137
vt 0.209481 0.089521
vt 0.209779 0.059260
vt 0.209105 0.040452
vt 0.209216 0.088675
vt 0.208884 0.040584
vt 0.208893 0.103636
vt 0.207501 0.121950
vt 0.206157 0.043086
vt 0.208016 0.119029
vt 0.208550 0.118318
vt 0.209272 0.055525
vt 0.208970 0.099509
vt 0.209333 0.081263
vt 0.209451 0.060412
vt 0.209201 0.064420
vt 0.208924 0.043544
vt 0.208933 0.099737
vt 0.209086 0.086647
vt 0.208509 0.067248
vt 0.208309 0.042439
vt 0.208668 0.106670
vt 0.208336 0.094853
vt 0.208140 0.115467
vt 0.207483 0.081667
vt 0.207498 0.043820
vt 0.206484 0.067396
vt 0.206648 0.093302
vt 0.206947 0.115384
vt 0.205799 0.082172
vt 0.206322 0.106273
vt 0.206752 0.038565
vt 0.205992 0.050485
vt 0.205653 0.056573
vt 0.205572 0.079466
vt 0.206074 0.101642
vt 0.205842 0.091203
vt 0.205802 0.083921
vt 0.205459 0.076430
vt 0.205844 0.076234
vt 0.205826 0.063913
vt 0.205734 0.047239
vt 0.206029 0.050819
vt 0.206156 0.100605
vt 0.205922 0.096248
vt 0.205908 0.104980
vt 0.205515 0.069192
vt 0.206216 0.053166
vt 0.206125 0.089864
vt 0.205827 0.045403
vt 0.206086 0.107643
vt 0.206317 0.101344
vt 0.206729 0.095882
vt 0.206778 0.099017
vt 0.206821 0.084738
vt 0.206934 0.076984
vt 0.207048 0.059507
vt 0.206321 0.086872
vt 0.206885 0.069605
vt 0.207398 0.110562
vt 0.206136 0.065271
vt 0.206971 0.106925
vt 0.206525 0.094945
vt 0.207723 0.069199
vt 0.206801 0.040599
vt 0.207723 0.044320
vt 0.208562 0.041112
vt 0.208616 0.067549
vt 0.209403 0.060811
vt 0.208037 0.112794
vt 0.209279 0.090106
vt 0.208852 0.114479
vt 0.209468 0.089399
vt 0.209032 0.104989
vt 0.209764 0.059322
vt 0.209095 0.040648
vt 0.209205 0.088563
vt 0.208606 0.028159
vt 0.208864 0.041214
vt 0.208881 0.103497
vt 0.207501 0.122049
vt 0.206167 0.043289
vt 0.206341 0.038959
vt 0.208010 0.119069
vt 0.208541 0.118341
vt 0.209242 0.055619
vt 0.208959 0.099343
vt 0.206138 0.037432
vt 0.207417 0.031418
vt 0.208557 0.031985
vt 0.206904 0.030401
vt 0.207497 0.029441
vt 0.207996 0.030031
vt 0.206608 0.036590
vt 0.206392 0.044537
vt 0.206956 0.032110
vt 0.200060 0.185247
vt 0.199950 0.180468
vt 0.200025 0.180468
vt 0.199829 0.192799
vt 0.199551 0.194818
vt 0.199683 0.193115
vt 0.199897 0.189589
vt 0.199760 0.186146
vt 0.199979 0.184459
vt 0.199745 0.180468
vt 0.199458 0.192837
vt 0.199465 0.186159
vt 0.199465 0.180468
vt 0.199185 0.180468
vt 0.199283 0.194303
vt 0.199225 0.190647
vt 0.198950 0.184460
vt 0.199167 0.184460
vt 0.198980 0.180468
vt 0.199028 0.189710
vt 0.198872 0.184564
vt 0.198905 0.180468
vt 0.198986 0.190475
vt 0.199239 0.193279
vt 0.199029 0.189563
vt 0.198949 0.184436
vt 0.199472 0.194210
vt 0.199178 0.186316
vt 0.199462 0.186212
vt 0.199724 0.189232
vt 0.199756 0.180386
vt 0.199981 0.184507
vt 0.199908 0.189394
vt 0.206301 0.053321
s 0
usemtl Texture_Map
f 30/1/1 5/2/1 26/3/1
f 28/4/2 3/5/2 29/6/2
f 29/6/3 3/5/3 4/7/3
f 31/8/4 2/9/4 28/4/4
f 2/9/5 8/10/5 3/5/5
f 4/7/6 8/10/6 9/11/6
f 1/12/7 7/13/7 2/9/7
f 6/14/8 11/15/8 7/13/8
f 5/2/9 12/16/9 17/17/9
f 7/13/10 11/15/10 8/10/10
f 8/10/11 11/15/11 12/16/11
f 11/15/12 14/18/12 15/19/12
f 11/15/13 15/19/13 12/16/13
f 11/15/14 13/20/14 14/18/14
f 12/16/15 16/21/15 17/17/15
f 16/21/16 20/22/16 21/23/16
f 14/18/17 18/24/17 19/25/17
f 16/21/18 21/23/18 17/17/18
f 15/19/19 20/22/19 16/21/19
f 19/25/20 24/26/20 20/22/20
f 20/22/21 25/27/21 21/23/21
f 19/25/22 22/28/22 23/29/22
f 34/30/23 42/31/23 35/32/23
f 35/32/24 42/31/24 36/33/24
f 37/34/25 42/31/25 43/35/25
f 37/34/26 43/35/26 38/36/26
f 32/37/27 41/38/27 33/39/27
f 40/40/28 43/35/28 47/41/28
f 33/39/29 41/38/29 34/30/29
f 40/40/30 47/41/30 48/42/30
f 41/38/31 45/43/31 42/31/31
f 42/31/32 45/43/32 43/35/32
f 47/41/33 59/44/33 48/42/33
f 45/43/34 50/45/34 51/46/34
f 61/47/35 48/42/35 60/48/35
f 45/43/36 51/46/36 46/49/36
f 44/50/37 49/51/37 50/45/37
f 46/49/38 59/44/38 47/41/38
f 51/46/39 57/52/39 58/53/39
f 50/45/40 52/54/40 53/55/40
f 51/46/41 58/53/41 59/44/41
f 50/45/42 53/55/42 54/56/42
f 50/45/43 54/56/43 55/57/43
f 51/46/44 55/57/44 56/58/44
f 90/59/45 64/60/45 65/61/45
f 88/62/46 94/63/46 70/64/46
f 90/59/47 65/61/47 91/65/47
f 92/66/48 65/61/48 66/67/48
f 92/66/49 66/67/49 93/68/49
f 89/69/50 64/60/50 62/70/50
f 93/68/51 66/67/51 63/71/51
f 63/71/52 70/64/52 94/63/52
f 64/60/53 68/72/53 65/61/53
f 66/67/54 68/72/54 69/73/54
f 66/67/55 69/73/55 79/74/55
f 69/73/56 74/75/56 79/74/56
f 68/72/57 73/76/57 74/75/57
f 73/76/58 77/77/58 74/75/58
f 72/78/59 75/79/59 76/80/59
f 74/75/60 83/81/60 79/74/60
f 76/80/61 80/82/61 81/83/61
f 76/80/62 81/83/62 82/84/62
f 79/74/63 88/62/63 70/64/63
f 77/77/64 82/84/64 78/85/64
f 81/83/65 85/86/65 82/84/65
f 82/84/66 87/87/66 83/81/66
f 28/4/67 2/9/67 3/5/67
f 31/8/68 27/88/68 1/12/68
f 30/1/69 29/6/69 4/7/69
f 31/8/70 1/12/70 2/9/70
f 30/1/71 4/7/71 5/2/71
f 2/9/72 7/13/72 8/10/72
f 4/7/73 3/5/73 8/10/73
f 1/12/74 6/14/74 7/13/74
f 5/2/75 4/7/75 9/11/75
f 9/11/76 8/10/76 12/16/76
f 6/14/77 10/89/77 13/20/77
f 6/14/78 13/20/78 11/15/78
f 5/2/79 9/11/79 12/16/79
f 26/3/80 5/2/80 17/17/80
f 12/16/81 15/19/81 16/21/81
f 14/18/82 13/20/82 18/24/82
f 15/19/83 14/18/83 19/25/83
f 17/17/84 21/23/84 26/3/84
f 15/19/85 19/25/85 20/22/85
f 21/23/86 25/27/86 26/3/86
f 19/25/87 23/29/87 24/26/87
f 20/22/88 24/26/88 25/27/88
f 19/25/89 18/24/89 22/28/89
f 34/30/90 41/38/90 42/31/90
f 37/34/91 36/33/91 42/31/91
f 39/90/92 38/36/92 43/35/92
f 40/40/93 39/90/93 43/35/93
f 43/35/94 45/43/94 46/49/94
f 43/35/95 46/49/95 47/41/95
f 41/38/96 44/50/96 45/43/96
f 48/42/97 59/44/97 60/48/97
f 46/49/98 51/46/98 59/44/98
f 45/43/99 44/50/99 50/45/99
f 50/45/100 49/51/100 52/54/100
f 51/46/101 50/45/101 55/57/101
f 51/46/102 56/58/102 57/52/102
f 90/59/103 62/70/103 64/60/103
f 92/66/104 91/65/104 65/61/104
f 63/71/105 66/67/105 70/64/105
f 64/60/106 72/78/106 68/72/106
f 70/64/107 66/67/107 79/74/107
f 66/67/108 65/61/108 68/72/108
f 64/60/109 67/91/109 72/78/109
f 69/73/110 68/72/110 74/75/110
f 72/78/111 67/91/111 71/92/111
f 68/72/112 72/78/112 73/76/112
f 73/76/113 72/78/113 76/80/113
f 73/76/114 76/80/114 77/77/114
f 74/75/115 77/77/115 78/85/115
f 72/78/116 71/92/116 75/79/116
f 74/75/117 78/85/117 83/81/117
f 78/85/118 82/84/118 83/81/118
f 76/80/119 75/79/119 80/82/119
f 79/74/120 83/81/120 88/62/120
f 77/77/121 76/80/121 82/84/121
f 82/84/122 85/86/122 86/93/122
f 82/84/123 86/93/123 87/87/123
f 81/83/124 80/82/124 84/94/124
f 83/81/125 87/87/125 88/62/125
f 81/83/126 84/94/126 85/86/126
f 119/95/127 120/96/127 97/97/127
f 120/96/128 98/98/128 97/97/128
f 122/99/129 119/95/129 96/100/129
f 96/100/130 97/97/130 101/101/130
f 98/98/131 102/102/131 101/101/131
f 95/103/132 96/100/132 100/104/132
f 99/105/133 100/104/133 104/106/133
f 100/104/134 101/101/134 104/106/134
f 101/101/135 105/107/135 104/106/135
f 104/106/136 108/108/136 107/109/136
f 104/106/137 105/107/137 108/108/137
f 104/106/138 107/109/138 106/110/138
f 107/109/139 111/111/139 110/112/139
f 108/108/140 109/113/140 112/114/140
f 111/111/141 112/114/141 115/115/141
f 111/111/142 114/116/142 113/117/142
f 125/118/143 126/119/143 133/120/143
f 126/119/144 127/121/144 133/120/144
f 128/122/145 134/123/145 133/120/145
f 128/122/146 129/124/146 134/123/146
f 123/125/147 124/126/147 132/127/147
f 124/126/148 125/118/148 132/127/148
f 132/127/149 133/120/149 136/128/149
f 133/120/150 134/123/150 136/128/150
f 136/128/151 141/129/151 140/130/151
f 136/128/152 137/131/152 141/129/152
f 135/132/153 140/130/153 139/133/153
f 140/130/154 143/134/154 142/135/154
f 140/130/155 144/136/155 143/134/155
f 140/130/156 145/137/156 144/136/156
f 141/129/157 146/138/157 145/137/157
f 174/139/158 151/140/158 150/141/158
f 174/139/159 175/142/159 151/140/159
f 173/143/160 148/144/160 150/141/160
f 150/141/161 151/140/161 154/145/161
f 152/146/162 155/147/162 154/145/162
f 154/145/163 159/148/163 158/149/163
f 158/149/164 159/148/164 162/150/164
f 157/151/165 161/152/165 160/153/165
f 161/152/166 165/154/166 164/155/166
f 161/152/167 166/156/167 165/154/167
f 162/150/168 163/157/168 166/156/168
f 165/154/169 166/156/169 169/158/169
f 166/156/170 167/159/170 171/160/170
f 119/95/171 97/97/171 96/100/171
f 122/99/172 95/103/172 118/161/172
f 122/99/173 96/100/173 95/103/173
f 96/100/174 101/101/174 100/104/174
f 98/98/175 101/101/175 97/97/175
f 95/103/176 100/104/176 99/105/176
f 102/102/177 105/107/177 101/101/177
f 99/105/178 106/110/178 103/162/178
f 99/105/179 104/106/179 106/110/179
f 105/107/180 109/113/180 108/108/180
f 107/109/181 110/112/181 106/110/181
f 108/108/182 111/111/182 107/109/182
f 108/108/183 112/114/183 111/111/183
f 111/111/184 115/115/184 114/116/184
f 111/111/185 113/117/185 110/112/185
f 125/118/186 133/120/186 132/127/186
f 128/122/187 133/120/187 127/121/187
f 130/163/188 134/123/188 129/124/188
f 131/164/189 134/123/189 130/163/189
f 134/123/190 137/131/190 136/128/190
f 132/127/191 136/128/191 135/132/191
f 136/128/192 140/130/192 135/132/192
f 140/130/193 142/135/193 139/133/193
f 141/129/194 145/137/194 140/130/194
f 174/139/195 150/141/195 148/144/195
f 150/141/196 154/145/196 157/151/196
f 152/146/197 154/145/197 151/140/197
f 150/141/198 157/151/198 153/165/198
f 155/147/199 159/148/199 154/145/199
f 157/151/200 156/166/200 153/165/200
f 154/145/201 158/149/201 157/151/201
f 158/149/202 161/152/202 157/151/202
f 158/149/203 162/150/203 161/152/203
f 159/148/204 163/157/204 162/150/204
f 157/151/205 160/153/205 156/166/205
f 159/148/206 167/159/206 163/157/206
f 163/157/207 167/159/207 166/156/207
f 161/152/208 164/155/208 160/153/208
f 162/150/209 166/156/209 161/152/209
f 166/156/210 170/167/210 169/158/210
f 166/156/211 171/160/211 170/167/211
f 165/154/212 168/168/212 164/155/212
f 165/154/213 169/158/213 168/168/213
f 1/12/214 99/105/214 6/14/214
f 10/89/215 99/105/215 103/162/215
f 13/20/216 103/162/216 106/110/216
f 18/24/217 106/110/217 110/112/217
f 22/28/218 114/116/218 23/29/218
f 24/26/219 114/116/219 115/115/219
f 25/27/220 115/115/220 116/169/220
f 25/27/221 117/170/221 26/3/221
f 22/28/222 110/112/222 113/117/222
f 28/4/223 120/96/223 119/95/223
f 31/8/224 119/95/224 122/99/224
f 29/6/225 121/171/225 120/96/225
f 30/1/226 117/170/226 121/171/226
f 27/88/227 95/103/227 1/12/227
f 31/8/228 118/161/228 27/88/228
f 32/37/229 124/126/229 123/125/229
f 33/39/230 125/118/230 124/126/230
f 35/32/231 125/118/231 34/30/231
f 36/33/232 126/119/232 35/32/232
f 36/33/233 128/122/233 127/121/233
f 38/36/234 128/122/234 37/34/234
f 39/90/235 129/124/235 38/36/235
f 39/90/236 131/164/236 130/163/236
f 40/40/237 138/172/237 131/164/237
f 32/37/238 132/127/238 41/38/238
f 44/50/239 132/127/239 135/132/239
f 49/51/240 135/132/240 139/133/240
f 52/54/241 143/134/241 53/55/241
f 54/56/242 143/134/242 144/136/242
f 54/56/243 145/137/243 55/57/243
f 56/58/244 145/137/244 146/138/244
f 52/54/245 139/133/245 142/135/245
f 48/42/246 147/173/246 138/172/246
f 89/69/247 148/144/247 173/143/247
f 64/60/248 153/165/248 67/91/248
f 71/92/249 153/165/249 156/166/249
f 71/92/250 160/153/250 75/79/250
f 80/82/251 160/153/251 164/155/251
f 84/94/252 169/158/252 85/86/252
f 85/86/253 170/167/253 86/93/253
f 87/87/254 170/167/254 171/160/254
f 87/87/255 172/174/255 88/62/255
f 84/94/256 164/155/256 168/168/256
f 62/70/257 174/139/257 148/144/257
f 91/65/258 174/139/258 90/59/258
f 93/68/259 149/175/259 215/176/259
f 63/71/260 176/177/260 149/175/260
f 94/63/261 172/174/261 176/177/261
f 89/69/262 150/141/262 64/60/262
f 212/178/263 179/179/263 213/180/263
f 211/181/264 210/182/264 180/183/264
f 211/181/265 180/183/265 177/184/265
f 211/181/266 177/184/266 212/178/266
f 177/184/267 181/185/267 178/186/267
f 178/186/268 182/187/268 179/179/268
f 210/182/269 183/188/269 180/183/269
f 180/183/270 184/189/270 181/185/270
f 181/185/271 185/190/271 182/187/271
f 184/189/272 188/191/272 185/190/272
f 210/182/273 192/192/273 183/188/273
f 183/188/274 186/193/274 184/189/274
f 186/193/275 190/194/275 187/195/275
f 187/195/276 191/196/276 188/191/276
f 189/197/277 194/198/277 190/194/277
f 190/194/278 195/199/278 191/196/278
f 193/200/279 199/201/279 196/202/279
f 193/200/280 197/203/280 194/198/280
f 192/192/281 210/182/281 204/204/281
f 195/199/282 197/203/282 198/196/282
f 192/192/283 199/201/283 193/200/283
f 197/203/284 201/191/284 198/196/284
f 196/202/285 199/201/285 200/205/285
f 200/205/286 204/204/286 202/206/286
f 201/191/287 202/206/287 203/190/287
f 202/206/288 205/207/288 206/208/288
f 205/207/289 208/209/289 206/208/289
f 204/204/290 210/182/290 211/181/290
f 205/207/291 211/181/291 207/210/291
f 208/209/292 213/180/292 209/179/292
f 207/210/293 212/178/293 208/209/293
f 212/178/294 177/184/294 178/186/294
f 212/178/295 178/186/295 179/179/295
f 178/186/296 181/185/296 182/187/296
f 177/184/297 180/183/297 181/185/297
f 180/183/298 183/188/298 184/189/298
f 181/185/299 184/189/299 185/190/299
f 184/189/300 186/193/300 187/195/300
f 184/189/301 187/195/301 188/191/301
f 183/188/302 192/192/302 186/193/302
f 186/193/303 192/192/303 189/197/303
f 186/193/304 189/197/304 190/194/304
f 187/195/305 190/194/305 191/196/305
f 189/197/306 193/200/306 194/198/306
f 190/194/307 194/198/307 195/199/307
f 189/197/308 192/192/308 193/200/308
f 193/200/309 196/202/309 197/203/309
f 195/199/310 194/198/310 197/203/310
f 192/192/311 204/204/311 199/201/311
f 197/203/312 200/205/312 201/191/312
f 197/203/313 196/202/313 200/205/313
f 200/205/314 199/201/314 204/204/314
f 201/191/315 200/205/315 202/206/315
f 203/190/316 202/206/316 206/208/316
f 202/206/317 204/204/317 205/207/317
f 205/207/318 207/210/318 208/209/318
f 206/208/319 208/209/319 209/179/319
f 205/207/320 204/204/320 211/181/320
f 208/209/321 212/178/321 213/180/321
f 207/210/322 211/181/322 212/178/322
f 137/131/323 131/164/323 141/129/323
f 141/129/324 131/164/324 146/138/324
f 92/66/325 175/142/325 91/65/325
f 93/68/326 214/211/326 92/66/326
f 151/140/327 214/211/327 152/146/327
f 1/12/328 95/103/328 99/105/328
f 10/89/329 6/14/329 99/105/329
f 13/20/330 10/89/330 103/162/330
f 18/24/331 13/20/331 106/110/331
f 22/28/332 113/117/332 114/116/332
f 24/26/333 23/29/333 114/116/333
f 25/27/334 24/26/334 115/115/334
f 25/27/335 116/169/335 117/170/335
f 22/28/336 18/24/336 110/112/336
f 28/4/337 29/6/337 120/96/337
f 31/8/338 28/4/338 119/95/338
f 29/6/339 30/1/339 121/171/339
f 30/1/340 26/3/340 117/170/340
f 27/88/341 118/161/341 95/103/341
f 31/8/342 122/99/342 118/161/342
f 32/37/343 33/39/343 124/126/343
f 33/39/344 34/30/344 125/118/344
f 35/32/345 126/119/345 125/118/345
f 36/33/346 127/121/346 126/119/346
f 36/33/347 37/34/347 128/122/347
f 38/36/348 129/124/348 128/122/348
f 39/90/349 130/163/349 129/124/349
f 39/90/350 40/40/350 131/164/350
f 40/40/351 48/42/351 138/172/351
f 32/37/352 123/125/352 132/127/352
f 44/50/353 41/38/353 132/127/353
f 49/51/354 44/50/354 135/132/354
f 52/54/355 142/135/355 143/134/355
f 54/56/356 53/55/356 143/134/356
f 54/56/357 144/136/357 145/137/357
f 56/58/358 55/57/358 145/137/358
f 52/54/359 49/51/359 139/133/359
f 48/42/360 61/47/360 147/173/360
f 89/69/361 62/70/361 148/144/361
f 64/60/362 150/141/362 153/165/362
f 71/92/363 67/91/363 153/165/363
f 71/92/364 156/166/364 160/153/364
f 80/82/365 75/79/365 160/153/365
f 84/94/366 168/168/366 169/158/366
f 85/86/367 169/158/367 170/167/367
f 87/87/368 86/93/368 170/167/368
f 87/87/369 171/160/369 172/174/369
f 84/94/370 80/82/370 164/155/370
f 62/70/371 90/59/371 174/139/371
f 91/65/372 175/142/372 174/139/372
f 93/68/373 63/71/373 149/175/373
f 63/71/374 94/63/374 176/177/374
f 94/63/375 88/62/375 172/174/375
f 89/69/376 173/143/376 150/141/376
f 137/131/377 134/123/377 131/164/377
f 92/66/378 214/211/378 175/142/378
f 93/68/379 215/176/379 214/211/379
f 151/140/380 175/142/380 214/211/380
