# Blender 4.4.0
# www.blender.org
mtllib Crop_Beetroot_STAGE_2_01.mtl
o Crop_Beetroot_STAGE_2_01
v 0.000478 -0.001085 -0.001091
v -0.003570 0.106841 0.000062
v -0.102875 0.234467 0.005444
v -0.158663 0.285115 -0.000363
v -0.155386 0.289092 -0.000367
v 0.006852 0.099266 0.000179
v 0.101457 0.235815 -0.004668
v 0.097679 0.240559 0.000392
v 0.101434 0.235763 0.005444
v 0.159451 0.288850 0.001139
v 0.157823 0.290861 -0.001014
v 0.157802 0.290900 0.003296
v 0.018353 0.158192 0.016194
v 0.018353 0.158192 -0.017256
v 0.155839 0.313313 0.034360
v 0.155839 0.313313 -0.033584
v 0.018300 0.128052 -0.000169
v 0.042981 0.183704 0.034533
v 0.065781 0.194716 0.000209
v 0.127913 0.263608 0.000388
v 0.088941 0.247927 0.044487
v 0.178393 0.306969 0.000388
v 0.019264 0.126820 -0.000164
v 0.043903 0.182495 0.034527
v 0.042932 0.182558 -0.034002
v 0.122900 0.284681 -0.053295
v 0.090159 0.246372 -0.043711
v 0.090159 0.246372 0.044487
v -0.014287 0.152230 0.016194
v -0.013446 0.120189 -0.000170
v -0.061818 0.183316 0.000210
v -0.116038 0.273808 -0.053295
v -0.083149 0.236999 0.044487
v -0.167238 0.294840 0.000388
v -0.014983 0.151351 0.016210
v -0.014983 0.151347 -0.017270
v -0.033628 0.173964 -0.030278
v -0.036110 0.174342 0.031888
v -0.063007 0.181864 0.000212
v -0.117251 0.272172 -0.053295
v -0.084362 0.235436 0.044487
v -0.008070 0.103657 0.000060
v -0.004374 0.107026 0.005176
v -0.004423 0.106336 -0.004181
v -0.106630 0.229679 0.000392
v -0.099098 0.239201 0.000384
v -0.102853 0.234425 -0.004668
v -0.157035 0.287100 0.001790
v -0.157014 0.287145 -0.002520
v 0.002970 0.103882 -0.004262
v 0.002059 0.105085 0.000111
v 0.002958 0.104496 0.005466
v 0.105212 0.231017 0.000384
v 0.156174 0.292902 0.001143
v 0.177175 0.308540 0.000388
v 0.041940 0.183712 -0.033937
v 0.121682 0.286324 -0.053295
v 0.121682 0.286324 0.054071
v 0.097551 0.235791 0.000388
v 0.088941 0.247927 -0.043711
v 0.157057 0.311432 -0.033584
v 0.157057 0.311432 0.034360
v 0.019054 0.157322 -0.017270
v 0.019054 0.157322 0.016210
v 0.066978 0.193291 0.000211
v 0.129131 0.262029 0.000388
v 0.122900 0.284681 0.054071
v 0.098768 0.234235 0.000388
v -0.150359 0.300385 -0.033584
v -0.150359 0.300385 0.034361
v -0.166024 0.296418 0.000388
v -0.032759 0.174988 -0.030221
v -0.035316 0.175481 0.031948
v -0.116038 0.273808 0.054071
v -0.120236 0.255328 0.000388
v -0.091182 0.225940 0.000388
v -0.082877 0.236705 -0.043575
v -0.014395 0.118918 -0.000164
v -0.151572 0.298605 0.034361
v -0.151572 0.298605 -0.033584
v -0.117251 0.272172 0.054071
v -0.121449 0.253767 0.000388
v -0.092396 0.224377 0.000388
v -0.084079 0.235140 -0.043571
v -0.000769 0.108185 0.005240
v -0.001161 0.249763 0.164242
v 0.002715 0.254446 0.159806
v -0.001168 0.257082 0.158291
v -0.005044 0.254416 0.159780
v -0.001916 0.279841 0.246059
v -0.001919 0.284362 0.241013
v -0.004072 0.282091 0.243520
v -0.000806 0.106922 -0.003196
v -0.001169 0.257600 -0.158161
v -0.006220 0.262393 -0.152379
v -0.001160 0.265813 -0.147527
v 0.003891 0.262339 -0.152345
v -0.000413 0.290678 -0.246573
v -0.016896 0.160448 -0.028732
v 0.032808 0.312581 -0.239800
v -0.035137 0.312582 -0.239800
v -0.001165 0.297203 -0.272651
v -0.001164 0.218077 -0.110417
v -0.054848 0.306041 -0.187212
v -0.001165 0.278529 -0.194939
v 0.052519 0.306032 -0.187212
v -0.001165 0.263548 -0.150058
v 0.042934 0.270385 -0.136802
v -0.001165 0.295559 -0.274526
v -0.000437 0.129588 -0.027741
v -0.035137 0.309934 -0.241675
v -0.016923 0.159679 -0.029827
v 0.016577 0.159673 -0.029827
v -0.054848 0.304094 -0.189087
v -0.001165 0.276207 -0.196814
v -0.001165 0.261953 -0.151933
v -0.045264 0.269024 -0.138677
v 0.042934 0.269025 -0.138677
v -0.016896 0.153221 0.021521
v 0.016554 0.153221 0.021521
v 0.032808 0.297439 0.231632
v -0.000474 0.120771 0.020058
v -0.001164 0.287039 0.255752
v 0.038079 0.183239 0.065960
v 0.052519 0.291858 0.178790
v -0.001164 0.263644 0.185254
v -0.001164 0.239280 0.142888
v 0.042935 0.257842 0.128154
v -0.001164 0.285540 0.257620
v 0.016577 0.152411 0.022609
v -0.016923 0.152411 0.022609
v 0.038315 0.182081 0.068009
v -0.001164 0.237520 0.144756
v 0.042935 0.256413 0.130022
v -0.045263 0.256418 0.130022
v -0.000749 0.105631 0.011868
v 0.000237 0.282034 0.243553
v -0.000775 0.104721 -0.009902
v -0.002566 0.292658 -0.244201
v -0.000410 0.295861 -0.241661
v 0.001743 0.292708 -0.244167
v -0.000422 0.130803 -0.026229
v 0.038187 0.194738 -0.074478
v -0.039882 0.194743 -0.074477
v -0.045264 0.270383 -0.136802
v 0.032808 0.309934 -0.241675
v 0.038418 0.193667 -0.076548
v -0.040136 0.193676 -0.076548
v -0.001164 0.216698 -0.112329
v 0.052519 0.304085 -0.189087
v -0.035137 0.297428 0.231632
v -0.039762 0.183159 0.065960
v -0.001163 0.201140 0.102946
v -0.054848 0.291851 0.178791
v -0.045263 0.257847 0.128154
v -0.000485 0.119472 0.021521
v 0.032808 0.295156 0.233500
v -0.035137 0.295145 0.233500
v -0.040023 0.182003 0.068009
v -0.001164 0.199783 0.104859
v 0.052519 0.289713 0.180659
v -0.001164 0.261299 0.187122
v -0.054848 0.289706 0.180659
v -0.000744 0.076675 0.000552
v -0.000241 0.092933 0.009190
v 0.002661 0.091720 -0.003407
v 0.005712 0.088554 0.000072
v -0.000266 0.092337 -0.007815
v 0.002652 0.092146 0.004199
v -0.003125 0.093690 -0.003345
v -0.006011 0.091878 -0.000023
v -0.003077 0.094093 0.003970
v 0.012956 0.067303 -0.022397
v -0.013116 0.067303 -0.022397
v -0.026152 0.067303 0.000182
v -0.013116 0.067303 0.022761
v 0.012956 0.067303 0.022761
v 0.025993 0.067303 0.000182
v 0.001597 0.000181 -0.002722
v -0.001756 0.000181 -0.002722
v -0.003433 0.000181 0.000182
v -0.001756 0.000181 0.003086
v 0.001597 0.000181 0.003086
v 0.003274 0.000181 0.000182
v 0.005690 0.101243 -0.009811
v 0.012119 0.089054 -0.020947
v -0.012278 0.089054 -0.020947
v -0.005849 0.101243 -0.009811
v -0.024477 0.089054 0.000182
v -0.011619 0.101243 0.000182
v -0.012278 0.089054 0.021310
v -0.005849 0.101243 0.010175
v 0.012119 0.089054 0.021310
v 0.005690 0.101243 0.010175
v 0.024317 0.089054 0.000182
v 0.011459 0.101243 0.000182
vn -0.8477 -0.0448 -0.5286
vn -0.5631 -0.4422 0.6981
vn 0.7872 0.6082 0.1016
vn 0.7728 0.5930 -0.2259
vn -0.4643 -0.4462 -0.7650
vn -0.4746 -0.4351 0.7652
vn 0.4197 0.4852 0.7671
vn 0.4307 0.4738 -0.7681
vn -0.8826 -0.0578 0.4665
vn -0.7875 -0.0620 0.6132
vn 0.5169 -0.3871 0.7636
vn 0.4841 -0.3601 -0.7975
vn -0.7611 0.5672 -0.3145
vn -0.7843 0.5884 0.1963
vn 0.4647 -0.4458 0.7650
vn 0.4743 -0.4348 -0.7655
vn -0.4218 0.4828 -0.7675
vn -0.4320 0.4716 0.7688
vn 0.7768 0.6297 -0.0019
vn -0.7688 0.6395 0.0029
vn -0.5738 0.4047 0.7120
vn -0.6965 0.6283 0.3467
vn -0.7387 0.5902 0.3256
vn 0.5642 -0.4009 -0.7218
vn -0.6406 0.6992 -0.3175
vn -0.6406 0.6992 0.3175
vn -0.7496 0.5846 -0.3104
vn -0.5532 0.3982 -0.7317
vn 0.6403 -0.6995 -0.3175
vn 0.6652 -0.6572 0.3545
vn 0.7523 -0.5828 -0.3073
vn 0.5979 -0.6554 -0.4616
vn -0.6965 0.6283 -0.3467
vn 0.7445 -0.5883 0.3156
vn 0.6128 -0.7719 0.1692
vn -0.1537 -0.1139 -0.9815
vn -0.1537 -0.1139 0.9815
vn 0.7653 0.4954 0.4110
vn -0.3659 -0.2839 0.8863
vn 0.3475 0.2250 0.9103
vn -0.1025 -0.0803 0.9915
vn -0.5234 -0.4058 0.7492
vn -0.3575 -0.2565 -0.8980
vn -0.5319 -0.4169 -0.7371
vn -0.0997 -0.0780 -0.9920
vn 0.7653 0.4954 -0.4110
vn 0.3475 0.2250 -0.9103
vn 0.5163 0.4002 -0.7571
vn 0.6759 0.6099 -0.4138
vn -0.5067 -0.3959 0.7659
vn 0.6799 0.6722 0.2930
vn 0.6800 0.6723 -0.2925
vn 0.6450 0.6204 0.4462
vn 0.5551 0.4211 0.7173
vn -0.6801 -0.6723 0.2925
vn -0.6752 -0.6799 -0.2859
vn -0.7889 -0.5466 0.2808
vn 0.6838 0.6718 0.2847
vn -0.6373 -0.6239 -0.4524
vn -0.5908 -0.7088 -0.3856
vn -0.6821 -0.6737 -0.2843
vn 0.1562 -0.1158 0.9809
vn 0.1571 -0.1165 -0.9807
vn 0.3428 -0.2398 -0.9083
vn -0.3422 0.2333 -0.9102
vn 0.1335 -0.1048 -0.9855
vn 0.5197 -0.3912 -0.7595
vn 0.3478 -0.2896 0.8917
vn 0.5015 -0.3830 0.7757
vn 0.1294 -0.1005 0.9865
vn -0.5397 -0.4202 -0.7295
vn -0.5921 0.4178 0.6890
vn 0.6287 -0.7553 0.1851
vn 0.6941 -0.6308 0.3467
vn -0.5214 -0.4064 0.7503
vn -0.3578 -0.2568 -0.8978
vn -0.5296 -0.4177 -0.7383
vn 0.5342 0.4138 -0.7371
vn 0.6838 0.6718 -0.2847
vn -0.6220 -0.6934 0.3637
vn -0.7880 0.5372 -0.3006
vn 0.3472 -0.2893 0.8921
vn 0.5133 -0.3793 0.7698
vn -0.7880 0.5372 0.3007
vn -0.3421 0.2333 0.9102
vn -0.8398 -0.3947 0.3727
vn 0.6014 0.5735 -0.5563
vn -0.2150 0.7064 -0.6744
vn -0.8338 -0.5212 0.1819
vn 0.8379 -0.5106 0.1930
vn 0.6080 0.7556 -0.2437
vn -0.6123 0.7491 -0.2526
vn 0.6860 -0.4989 -0.5296
vn -0.2966 0.6418 0.7072
vn 0.6024 0.5431 0.5849
vn 0.7862 -0.5811 -0.2106
vn -0.7918 -0.5700 -0.2194
vn 0.7357 -0.0342 -0.6764
vn 0.8608 -0.0488 0.5066
vn 0.8274 -0.0601 -0.5583
vn -0.7422 -0.0441 -0.6688
vn -0.0012 0.6218 -0.7832
vn 0.0045 0.7390 0.6737
vn 0.8741 0.4790 -0.0801
vn 0.4695 0.8374 0.2801
vn 0.3003 0.6192 0.7255
vn -0.2385 -0.6776 -0.6957
vn -0.2354 0.9219 0.3077
vn 0.2354 0.9219 0.3077
vn -0.2979 0.6181 0.7275
vn -0.8627 0.5054 -0.0207
vn -0.2369 -0.9260 -0.2941
vn 0.4623 -0.7668 -0.4454
vn -0.3149 -0.6251 -0.7142
vn -0.5416 -0.8157 -0.2031
vn -0.4693 0.8374 0.2802
vn 0.2983 -0.6178 -0.7276
vn 0.8708 -0.4889 0.0514
vn 0.4741 -0.8378 -0.2709
vn -0.9868 -0.1310 0.0950
vn 0.9868 -0.1310 0.0950
vn 0.4666 0.5112 -0.7218
vn 0.9329 -0.2670 0.2418
vn 0.9069 0.2923 -0.3035
vn 0.9948 0.0201 0.1002
vn 0.8262 -0.4431 0.3478
vn -0.9230 -0.3040 0.2359
vn -0.8373 -0.4376 0.3277
vn -0.9936 0.0210 0.1113
vn -0.4665 0.5112 -0.7218
vn -0.9069 0.2923 -0.3035
vn -0.8815 0.4572 0.1181
vn -0.4734 0.8399 -0.2653
vn -0.3810 0.6065 -0.6978
vn 0.3106 -0.6832 0.6609
vn 0.4694 0.7655 -0.4402
vn -0.4693 0.7655 -0.4402
vn 0.3835 0.6075 -0.6956
vn 0.8839 0.4402 0.1583
vn 0.4732 -0.7682 0.4312
vn -0.4629 -0.7784 0.4241
vn 0.4757 -0.6390 0.6044
vn 0.4462 -0.8463 0.2910
vn 0.4733 0.8400 -0.2652
vn -0.3825 -0.6072 0.6964
vn -0.4758 -0.8391 0.2638
vn 0.9865 -0.1300 -0.0994
vn -0.9865 -0.1300 -0.0994
vn -0.3352 0.5966 0.7292
vn -0.9134 -0.3155 -0.2574
vn -0.9932 0.0218 -0.1141
vn -0.8483 -0.4144 -0.3295
vn 0.9221 -0.3008 -0.2435
vn 0.8405 -0.4259 -0.3350
vn 0.9945 0.0209 -0.1027
vn 0.3351 0.5966 0.7292
vn 0.9109 0.2710 0.3112
vn 0.7019 -0.5103 0.4969
vn -0.8200 -0.3990 -0.4103
vn -0.6812 0.6990 0.2177
vn 0.6888 0.6890 0.2254
vn 0.8699 0.4892 -0.0631
vn -0.9254 -0.2784 0.2572
vn -0.8303 -0.4303 0.3542
vn 0.8823 0.4468 0.1480
vn -0.8845 -0.4359 -0.1659
vn -0.9163 -0.2875 -0.2788
vn -0.9109 0.2710 0.3112
vn -0.8373 -0.4057 -0.3666
vn 0.9249 -0.2753 -0.2621
vn 0.8307 -0.4194 -0.3660
vn 0.7791 -0.0536 0.6246
vn -0.9795 0.0994 0.1753
vn 0.9840 0.0946 0.1512
vn 0.3551 0.1157 0.9276
vn -0.0295 0.1471 -0.9887
vn -0.2786 0.1175 0.9532
vn 0.2015 0.1443 -0.9688
vn 0.9745 0.0879 -0.2063
vn -0.9695 0.0921 -0.2272
vn 0.7603 -0.0849 0.6440
vn 0.8304 -0.0334 -0.5561
vn 0.7178 -0.0695 -0.6928
vn 0.8574 -0.0732 0.5094
vn -0.8829 -0.1306 0.4510
vn -0.7602 -0.1374 0.6350
vn -0.8525 -0.1207 -0.5086
vn -0.7144 -0.1189 -0.6895
vn -0.0000 0.0665 -0.9978
vn 0.8641 0.0665 0.4989
vn -0.8641 0.0665 0.4989
vn -0.0000 0.0665 0.9978
vn -0.8641 0.0665 -0.4989
vn -0.8311 -0.2813 0.4798
vn 0.8311 -0.2813 -0.4798
vn -0.0000 -0.2813 0.9596
vn -0.8311 -0.2813 -0.4798
vn 0.8311 -0.2813 0.4798
vn 0.8641 0.0665 -0.4989
vn -0.0000 0.6745 -0.7383
vn -0.6394 0.6745 -0.3691
vn -0.6394 0.6745 0.3691
vn -0.0000 0.6745 0.7383
vn 0.6394 0.6745 0.3691
vn 0.6394 0.6745 -0.3691
vn -0.0000 1.0000 -0.0000
vn -0.0000 -0.2813 -0.9596
vn -0.5137 -0.3987 0.7597
vn 0.5324 0.3824 0.7551
vn 0.5294 0.3839 -0.7565
vn -0.4611 -0.4424 -0.7692
vn -0.4762 -0.4371 0.7630
vn 0.4191 0.4843 0.7680
vn 0.4350 0.4793 -0.7623
vn 0.5224 -0.3918 0.7574
vn 0.5209 -0.3912 -0.7587
vn -0.5351 0.3792 -0.7549
vn -0.5357 0.3766 0.7558
vn 0.4602 -0.4404 0.7708
vn 0.4745 -0.4351 -0.7652
vn -0.4180 0.4782 -0.7724
vn -0.4331 0.4731 0.7672
vn 0.7783 0.6279 -0.0019
vn -0.7747 0.6323 0.0028
vn -0.6442 0.7346 0.2130
vn -0.5962 0.6536 0.4663
vn -0.7534 0.5814 0.3071
vn 0.6351 -0.7424 -0.2134
vn -0.6658 0.6563 -0.3550
vn -0.6658 0.6563 0.3550
vn -0.7521 0.5830 -0.3073
vn -0.6379 0.7479 -0.1838
vn 0.6652 -0.6572 -0.3545
vn 0.6403 -0.6995 0.3175
vn 0.7342 -0.5935 -0.3298
vn 0.6941 -0.6308 -0.3467
vn -0.5962 0.6536 -0.4663
vn 0.7510 -0.5844 0.3074
vn 0.5253 -0.3813 0.7607
vn -0.1500 -0.1174 -0.9817
vn -0.1500 -0.1174 0.9817
vn 0.7297 0.5657 0.3840
vn 0.3324 0.2464 0.9104
vn -0.1005 -0.0818 0.9916
vn -0.3483 -0.2663 -0.8987
vn -0.1292 -0.0550 -0.9901
vn 0.7297 0.5657 -0.3840
vn 0.3324 0.2464 -0.9104
vn 0.5912 0.7446 -0.3098
vn 0.7899 0.5453 -0.2806
vn -0.5816 -0.7497 0.3158
vn 0.6758 0.6791 0.2866
vn 0.6762 0.6787 -0.2865
vn 0.7905 0.5434 0.2824
vn 0.6138 0.6806 0.3999
vn -0.6757 -0.6795 0.2858
vn -0.6799 -0.6721 -0.2932
vn -0.6676 -0.6141 0.4210
vn 0.6212 0.6922 0.3673
vn -0.7896 -0.5447 -0.2827
vn -0.5284 -0.4036 -0.7469
vn -0.6220 -0.6934 -0.3637
vn 0.1531 -0.1189 0.9810
vn 0.1534 -0.1201 -0.9808
vn -0.3327 0.2467 -0.9102
vn 0.1608 -0.0812 -0.9837
vn 0.3645 -0.2723 0.8905
vn 0.1018 -0.1232 0.9871
vn -0.5152 -0.3988 -0.7586
vn -0.6590 0.7163 0.2293
vn 0.5433 -0.3942 0.7413
vn 0.5979 -0.6554 0.4616
vn -0.3687 -0.2808 0.8861
vn -0.5234 -0.4058 0.7493
vn 0.6064 0.7246 -0.3275
vn 0.6212 0.6922 -0.3673
vn -0.6821 -0.6737 0.2843
vn -0.7597 0.5842 -0.2856
vn -0.7597 0.5842 0.2856
vn -0.3327 0.2467 0.9102
vn -0.8566 -0.3760 0.3533
vn 0.6046 0.5717 -0.5546
vn -0.6054 0.5697 -0.5558
vn -0.8091 -0.5540 0.1962
vn 0.8070 -0.5519 0.2103
vn 0.8062 0.5686 -0.1634
vn -0.8046 0.5665 -0.1779
vn 0.8281 -0.3891 -0.4035
vn -0.7581 0.4445 0.4773
vn 0.7597 0.4382 0.4805
vn 0.7845 -0.5829 -0.2114
vn -0.7820 -0.5816 -0.2243
vn 0.8276 -0.0602 -0.5580
vn -0.0039 0.7660 -0.6428
vn 0.0047 0.7505 0.6609
vn 0.2407 0.6749 0.6975
vn 0.5544 0.8092 0.1945
vn 0.3120 0.6243 0.7161
vn -0.8760 -0.4737 0.0906
vn -0.4572 0.7648 0.4539
vn 0.4573 0.7647 0.4540
vn -0.3121 0.6243 0.7161
vn -0.2399 0.6729 0.6997
vn -0.4624 -0.7667 -0.4455
vn 0.2369 -0.9260 -0.2941
vn -0.3007 -0.6188 -0.7257
vn -0.4742 -0.8378 -0.2708
vn -0.5544 0.8092 0.1945
vn 0.3149 -0.6250 -0.7142
vn 0.2377 -0.6757 -0.6978
vn 0.5416 -0.8157 -0.2031
vn -0.9877 -0.1083 0.1125
vn 0.9877 -0.1083 0.1125
vn 0.3043 0.7162 -0.6281
vn 0.9201 0.2264 -0.3197
vn 0.9989 -0.0375 0.0272
vn -0.9986 -0.0425 0.0308
vn -0.3043 0.7162 -0.6281
vn -0.9201 0.2264 -0.3197
vn -0.3139 0.6804 -0.6623
vn -0.4573 0.8441 -0.2801
vn -0.4719 0.6376 -0.6089
vn 0.8825 -0.4530 -0.1265
vn 0.4595 0.7752 -0.4336
vn -0.4596 0.7751 -0.4337
vn 0.4719 0.6376 -0.6089
vn 0.3139 0.6830 -0.6596
vn 0.4630 -0.7783 0.4242
vn -0.4733 -0.7682 0.4312
vn 0.3801 -0.6063 0.6985
vn 0.4758 -0.8390 0.2639
vn 0.4570 0.8442 -0.2802
vn -0.4758 -0.6390 0.6044
vn -0.4459 -0.8464 0.2910
vn 0.9875 -0.1035 -0.1188
vn -0.9875 -0.1035 -0.1189
vn -0.2186 0.7609 0.6109
vn -0.9985 -0.0429 -0.0329
vn 0.9247 -0.2760 -0.2624
vn 0.8315 -0.4186 -0.3652
vn 0.9989 -0.0379 -0.0290
vn 0.2184 0.7610 0.6110
vn 0.9138 0.2572 0.3144
vn 0.8572 -0.3730 0.3551
vn -0.8289 -0.3905 -0.4005
vn -0.8661 0.4840 0.1251
vn 0.8657 0.4809 0.1388
vn 0.8843 -0.4465 -0.1368
vn -0.3105 -0.6857 0.6583
vn -0.9138 0.2572 0.3144
vn 0.7621 -0.0875 0.6415
vn 0.7156 -0.0670 -0.6953
vn 0.8578 -0.0735 0.5088
vn -0.8831 -0.1303 0.4507
vn -0.7585 -0.1355 0.6374
vn -0.8521 -0.1211 -0.5092
vn -0.7160 -0.1203 -0.6876
vt 0.487001 0.240314
vt 0.486990 0.279750
vt 0.486967 0.279187
vt 0.487033 0.285299
vt 0.487009 0.336335
vt 0.487007 0.283897
vt 0.487007 0.285222
vt 0.487034 0.338327
vt 0.486983 0.338310
vt 0.486985 0.285012
vt 0.487005 0.359402
vt 0.487009 0.340297
vt 0.487016 0.360228
vt 0.486994 0.360247
vt 0.487054 0.279435
vt 0.487027 0.279918
vt 0.487007 0.278996
vt 0.487009 0.336892
vt 0.487035 0.284246
vt 0.487008 0.282070
vt 0.486985 0.283991
vt 0.487007 0.284491
vt 0.486983 0.338888
vt 0.487034 0.338867
vt 0.487013 0.360956
vt 0.487009 0.340862
vt 0.487002 0.361793
vt 0.487024 0.361809
vt 0.487013 0.362642
vt 0.487005 0.361057
vt 0.211977 0.121805
vt 0.212185 0.115958
vt 0.211982 0.111133
vt 0.211975 0.132832
vt 0.212379 0.140789
vt 0.212613 0.136469
vt 0.212499 0.130322
vt 0.212383 0.120043
vt 0.212185 0.115819
vt 0.211977 0.121576
vt 0.211982 0.110936
vt 0.211451 0.130322
vt 0.211975 0.128380
vt 0.211569 0.120042
vt 0.211787 0.115958
vt 0.212499 0.130073
vt 0.211975 0.132580
vt 0.211975 0.128131
vt 0.211451 0.130073
vt 0.211337 0.136206
vt 0.212379 0.140488
vt 0.211975 0.139774
vt 0.211571 0.140789
vt 0.211337 0.136469
vt 0.211569 0.119848
vt 0.212613 0.136206
vt 0.211571 0.140488
vt 0.211975 0.140025
vt 0.212384 0.119858
vt 0.211977 0.119980
vt 0.211787 0.115004
vt 0.211982 0.109875
vt 0.211451 0.128573
vt 0.211600 0.118726
vt 0.211787 0.114863
vt 0.211977 0.119747
vt 0.211982 0.109671
vt 0.212498 0.128526
vt 0.211975 0.131507
vt 0.211975 0.126803
vt 0.212339 0.118647
vt 0.212185 0.114862
vt 0.211451 0.128323
vt 0.211975 0.131257
vt 0.211975 0.126553
vt 0.212498 0.128275
vt 0.212613 0.134203
vt 0.212379 0.138719
vt 0.212613 0.134465
vt 0.212340 0.118483
vt 0.212379 0.138435
vt 0.211337 0.134203
vt 0.211337 0.134465
vt 0.211601 0.118543
vt 0.211787 0.115819
vt 0.211571 0.138719
vt 0.211571 0.138435
vt 0.211975 0.137832
vt 0.211975 0.138085
vt 0.487067 0.284719
vt 0.487820 0.346628
vt 0.487033 0.285781
vt 0.487821 0.346641
vt 0.487843 0.344692
vt 0.488247 0.358143
vt 0.488247 0.358120
vt 0.488234 0.359089
vt 0.487813 0.347737
vt 0.486956 0.284340
vt 0.486231 0.349925
vt 0.486255 0.351370
vt 0.486991 0.285256
vt 0.486201 0.347953
vt 0.485763 0.362561
vt 0.485763 0.362541
vt 0.486231 0.349947
vt 0.486989 0.278930
vt 0.487007 0.277613
vt 0.487028 0.279107
vt 0.485776 0.363873
vt 0.212292 0.111574
vt 0.212865 0.121809
vt 0.212321 0.116319
vt 0.214297 0.135221
vt 0.214831 0.140672
vt 0.214206 0.139625
vt 0.213293 0.125544
vt 0.213606 0.133917
vt 0.212310 0.111379
vt 0.212890 0.121638
vt 0.213315 0.125323
vt 0.213606 0.133917
vt 0.213764 0.132823
vt 0.212865 0.121808
vt 0.212334 0.116195
vt 0.213629 0.133699
vt 0.214320 0.134849
vt 0.213786 0.132568
vt 0.213629 0.133700
vt 0.214228 0.139312
vt 0.214853 0.140248
vt 0.215244 0.137947
vt 0.214831 0.140672
vt 0.214206 0.139624
vt 0.212890 0.121637
vt 0.214853 0.140248
vt 0.215221 0.138210
vt 0.212334 0.116196
vt 0.214228 0.139313
vt 0.211741 0.109968
vt 0.211195 0.119968
vt 0.211724 0.115162
vt 0.209777 0.132838
vt 0.209226 0.138248
vt 0.209854 0.137355
vt 0.210756 0.122833
vt 0.210456 0.131910
vt 0.211724 0.109760
vt 0.211171 0.119782
vt 0.210733 0.122616
vt 0.210456 0.131910
vt 0.210281 0.128938
vt 0.211195 0.119955
vt 0.211724 0.115162
vt 0.210434 0.131681
vt 0.209755 0.132463
vt 0.210259 0.128656
vt 0.210434 0.131682
vt 0.209832 0.137010
vt 0.209204 0.137883
vt 0.208917 0.136343
vt 0.209226 0.138246
vt 0.209854 0.137353
vt 0.211171 0.119769
vt 0.209204 0.137881
vt 0.208939 0.136583
vt 0.211711 0.115033
vt 0.211711 0.115033
vt 0.209832 0.137011
vt 0.487010 0.272670
vt 0.584970 0.238584
vt 0.584982 0.231454
vt 0.584621 0.238584
vt 0.584796 0.231454
vt 0.584796 0.238584
vt 0.584609 0.231454
vt 0.584796 0.209454
vt 0.584819 0.209454
vt 0.584772 0.209454
vt 0.584878 0.242579
vt 0.584796 0.242579
vt 0.584713 0.242579
vt 0.488260 0.357207
vt 0.485751 0.361717
s 0
usemtl Texture_Map
f 1/1/1 170/2/1 168/3/1
f 43/4/2 45/5/2 42/6/2
f 2/7/3 3/8/3 43/4/3
f 47/9/4 2/7/4 44/10/4
f 4/11/5 47/9/5 45/5/5
f 3/8/6 4/11/6 45/5/6
f 46/12/7 48/13/7 3/8/7
f 49/14/8 46/12/8 47/9/8
f 1/1/9 165/15/9 172/16/9
f 1/1/10 172/16/10 171/17/10
f 53/18/11 52/19/11 6/20/11
f 50/21/12 53/18/12 6/20/12
f 51/22/13 7/23/13 50/21/13
f 9/24/14 51/22/14 52/19/14
f 10/25/15 9/24/15 53/18/15
f 7/23/16 10/25/16 53/18/16
f 8/26/17 11/27/17 7/23/17
f 12/28/18 8/26/18 9/24/18
f 12/28/19 11/27/19 54/29/19
f 49/14/20 48/13/20 5/30/20
f 19/31/21 14/32/21 17/33/21
f 20/34/22 16/35/22 57/36/22
f 19/31/23 60/37/23 56/38/23
f 63/39/24 65/40/24 23/41/24
f 21/42/25 20/34/25 59/43/25
f 20/34/26 60/37/26 59/43/26
f 21/42/27 19/31/27 18/44/27
f 13/45/28 19/31/28 17/33/28
f 27/46/29 66/47/29 68/48/29
f 28/49/30 66/47/30 67/50/30
f 65/40/31 27/46/31 68/48/31
f 66/47/32 61/51/32 22/52/32
f 15/53/33 20/34/33 58/54/33
f 65/40/34 28/49/34 24/55/34
f 13/45/35 65/40/35 24/55/35
f 26/56/36 60/37/36 57/36/36
f 21/42/37 67/50/37 58/54/37
f 62/57/38 55/58/38 15/53/38
f 13/45/39 24/55/39 18/44/39
f 58/54/40 62/57/40 15/53/40
f 18/44/41 28/49/41 21/42/41
f 17/33/42 23/41/42 13/45/42
f 25/59/43 14/32/43 56/38/43
f 63/39/44 17/33/44 14/32/44
f 27/46/45 56/38/45 60/37/45
f 55/58/46 61/51/46 16/35/46
f 61/51/47 57/36/47 16/35/47
f 31/60/48 29/61/48 30/62/48
f 31/60/49 33/63/49 73/64/49
f 35/65/50 39/66/50 78/67/50
f 77/68/51 75/69/51 76/70/51
f 75/69/52 33/63/52 76/70/52
f 77/68/53 31/60/53 72/71/53
f 36/72/54 31/60/54 30/62/54
f 41/73/55 82/74/55 83/75/55
f 84/76/56 82/74/56 40/77/56
f 39/66/57 41/73/57 83/75/57
f 69/78/58 75/69/58 32/79/58
f 39/66/59 84/76/59 37/80/59
f 36/72/60 39/66/60 37/80/60
f 82/74/61 80/81/61 40/77/61
f 81/82/62 33/63/62 74/83/62
f 77/68/63 40/77/63 32/79/63
f 36/72/64 37/80/64 72/71/64
f 32/79/65 80/81/65 69/78/65
f 72/71/66 84/76/66 77/68/66
f 30/62/67 78/67/67 36/72/67
f 38/84/68 29/61/68 73/64/68
f 35/65/69 30/62/69 29/61/69
f 41/73/70 73/64/70 33/63/70
f 45/5/71 44/10/71 42/6/71
f 19/31/72 63/39/72 17/33/72
f 64/85/73 65/40/73 24/55/73
f 66/47/74 62/57/74 67/50/74
f 17/33/75 64/85/75 13/45/75
f 56/38/76 25/59/76 63/39/76
f 63/39/77 23/41/77 17/33/77
f 31/60/78 35/65/78 30/62/78
f 75/69/79 70/86/79 74/83/79
f 82/74/80 79/87/80 34/88/80
f 80/81/81 71/89/81 69/78/81
f 73/64/82 38/84/82 35/65/82
f 35/65/83 78/67/83 30/62/83
f 71/89/84 79/87/84 70/86/84
f 79/87/85 74/83/85 70/86/85
f 136/90/86 89/91/86 43/4/86
f 85/92/87 87/93/87 52/19/87
f 89/91/88 85/92/88 43/4/88
f 86/94/89 92/95/89 89/91/89
f 137/96/90 86/94/90 87/93/90
f 91/97/91 87/93/91 88/98/91
f 89/91/92 91/97/92 88/98/92
f 138/99/93 97/100/93 50/21/93
f 96/101/94 44/10/94 93/102/94
f 97/100/95 93/102/95 50/21/95
f 94/103/96 141/104/96 97/100/96
f 139/105/97 94/103/97 95/106/97
f 1/1/98 166/107/98 167/108/98
f 1/1/99 169/109/99 165/15/99
f 50/21/100 168/3/100 138/99/100
f 1/1/101 171/17/101 170/2/101
f 141/104/102 139/105/102 140/110/102
f 92/95/103 137/96/103 91/97/103
f 142/111/104 144/112/104 99/113/104
f 105/114/105 101/115/105 104/116/105
f 103/117/106 145/118/106 144/112/106
f 110/119/107 148/120/107 149/121/107
f 108/122/108 105/114/108 107/123/108
f 105/114/109 145/118/109 107/123/109
f 108/122/110 103/117/110 143/124/110
f 143/124/111 142/111/111 113/125/111
f 117/126/112 115/127/112 116/128/112
f 118/129/113 115/127/113 150/130/113
f 149/121/114 117/126/114 116/128/114
f 115/127/115 111/131/115 109/132/115
f 100/133/116 105/114/116 106/134/116
f 149/121/117 118/129/117 147/135/117
f 110/119/118 147/135/118 113/125/118
f 115/127/119 146/136/119 150/130/119
f 104/116/120 117/126/120 145/118/120
f 118/129/121 106/134/121 108/122/121
f 146/136/122 102/137/122 100/133/122
f 113/125/123 147/135/123 143/124/123
f 150/130/124 100/133/124 106/134/124
f 147/135/125 108/122/125 143/124/125
f 142/111/126 110/119/126 113/125/126
f 144/112/127 112/138/127 99/113/127
f 112/138/128 142/111/128 99/113/128
f 145/118/129 148/120/129 144/112/129
f 102/137/130 111/131/130 101/115/130
f 101/115/131 114/139/131 104/116/131
f 122/140/132 124/141/132 120/142/132
f 126/143/133 121/144/133 125/145/133
f 153/146/134 128/147/134 124/141/134
f 156/148/135 132/149/135 160/150/135
f 155/151/136 126/143/136 127/152/136
f 126/143/137 128/147/137 127/152/137
f 155/151/138 153/146/138 152/153/138
f 152/153/139 122/140/139 119/154/139
f 134/155/140 162/156/140 133/157/140
f 135/158/141 162/156/141 163/159/141
f 160/150/142 134/155/142 133/157/142
f 162/156/143 157/160/143 129/161/143
f 151/162/144 126/143/144 154/163/144
f 160/150/145 135/158/145 159/164/145
f 162/156/146 158/165/146 163/159/146
f 125/145/147 134/155/147 128/147/147
f 135/158/148 154/163/148 155/151/148
f 158/165/149 123/166/149 151/162/149
f 131/167/150 152/153/150 119/154/150
f 159/164/151 155/151/151 152/153/151
f 122/140/152 131/167/152 119/154/152
f 124/141/153 130/168/153 120/142/153
f 130/168/154 122/140/154 120/142/154
f 128/147/155 132/149/155 124/141/155
f 123/166/156 157/160/156 121/144/156
f 121/144/157 161/169/157 125/145/157
f 87/93/158 136/90/158 52/19/158
f 95/106/159 138/99/159 44/10/159
f 140/110/160 95/106/160 96/101/160
f 97/100/161 140/110/161 96/101/161
f 142/111/162 144/112/162 112/138/162
f 144/112/163 148/120/163 112/138/163
f 112/138/164 110/119/164 142/111/164
f 152/153/165 122/140/165 131/167/165
f 156/148/166 159/164/166 131/167/166
f 131/167/167 159/164/167 152/153/167
f 163/159/168 151/162/168 154/163/168
f 122/140/169 156/148/169 131/167/169
f 124/141/170 132/149/170 120/142/170
f 120/142/171 156/148/171 122/140/171
f 1/1/172 167/108/172 169/109/172
f 52/19/173 51/22/173 164/170/173
f 2/7/174 43/4/174 164/170/174
f 50/21/175 93/102/175 164/170/175
f 43/4/176 85/92/176 164/170/176
f 93/102/177 44/10/177 164/170/177
f 85/92/178 52/19/178 164/170/178
f 44/10/179 2/7/179 164/170/179
f 51/22/180 50/21/180 164/170/180
f 169/109/181 6/20/181 52/19/181
f 168/3/182 166/107/182 1/1/182
f 166/107/183 6/20/183 167/108/183
f 165/15/184 52/19/184 136/90/184
f 172/16/185 136/90/185 43/4/185
f 172/16/186 42/6/186 171/17/186
f 170/2/187 138/99/187 168/3/187
f 170/2/188 42/6/188 44/10/188
f 186/171/189 174/172/189 187/171/189
f 193/173/190 178/174/190 195/175/190
f 191/173/191 175/174/191 176/176/191
f 191/173/192 177/176/192 193/173/192
f 189/175/193 174/172/193 175/174/193
f 181/177/194 176/176/194 175/174/194
f 178/174/195 179/178/195 173/172/195
f 182/179/196 177/176/196 176/176/196
f 180/178/197 175/174/197 174/172/197
f 183/179/198 178/174/198 177/176/198
f 195/175/199 173/172/199 186/171/199
f 185/180/200 187/171/200 188/180/200
f 190/181/201 187/171/201 189/175/201
f 192/182/202 189/175/202 191/173/202
f 192/182/203 193/173/203 194/182/203
f 194/182/204 195/175/204 196/181/204
f 196/181/205 186/171/205 185/180/205
f 196/181/206 185/180/206 190/181/206
f 179/178/207 174/172/207 173/172/207
f 43/4/208 3/8/208 45/5/208
f 2/7/209 46/12/209 3/8/209
f 47/9/210 46/12/210 2/7/210
f 4/11/211 49/14/211 47/9/211
f 3/8/212 48/13/212 4/11/212
f 46/12/213 5/30/213 48/13/213
f 49/14/214 5/30/214 46/12/214
f 53/18/215 9/24/215 52/19/215
f 50/21/216 7/23/216 53/18/216
f 51/22/217 8/26/217 7/23/217
f 9/24/218 8/26/218 51/22/218
f 10/25/219 12/28/219 9/24/219
f 7/23/220 11/27/220 10/25/220
f 8/26/221 54/29/221 11/27/221
f 12/28/222 54/29/222 8/26/222
f 12/28/223 10/25/223 11/27/223
f 49/14/224 4/11/224 48/13/224
f 19/31/225 56/38/225 14/32/225
f 20/34/226 55/58/226 16/35/226
f 19/31/227 59/43/227 60/37/227
f 63/39/228 25/59/228 65/40/228
f 21/42/229 58/54/229 20/34/229
f 20/34/230 57/36/230 60/37/230
f 21/42/231 59/43/231 19/31/231
f 13/45/232 18/44/232 19/31/232
f 27/46/233 26/56/233 66/47/233
f 28/49/234 68/48/234 66/47/234
f 65/40/235 25/59/235 27/46/235
f 66/47/236 26/56/236 61/51/236
f 15/53/237 55/58/237 20/34/237
f 65/40/238 68/48/238 28/49/238
f 13/45/239 23/41/239 65/40/239
f 26/56/240 27/46/240 60/37/240
f 21/42/241 28/49/241 67/50/241
f 62/57/242 22/52/242 55/58/242
f 58/54/243 67/50/243 62/57/243
f 18/44/244 24/55/244 28/49/244
f 25/59/245 63/39/245 14/32/245
f 27/46/246 25/59/246 56/38/246
f 55/58/247 22/52/247 61/51/247
f 61/51/248 26/56/248 57/36/248
f 31/60/249 73/64/249 29/61/249
f 31/60/250 76/70/250 33/63/250
f 35/65/251 38/84/251 39/66/251
f 77/68/252 32/79/252 75/69/252
f 75/69/253 74/83/253 33/63/253
f 77/68/254 76/70/254 31/60/254
f 36/72/255 72/71/255 31/60/255
f 41/73/256 81/82/256 82/74/256
f 84/76/257 83/75/257 82/74/257
f 39/66/258 38/84/258 41/73/258
f 69/78/259 71/89/259 75/69/259
f 39/66/260 83/75/260 84/76/260
f 36/72/261 78/67/261 39/66/261
f 82/74/262 34/88/262 80/81/262
f 81/82/263 41/73/263 33/63/263
f 77/68/264 84/76/264 40/77/264
f 32/79/265 40/77/265 80/81/265
f 72/71/266 37/80/266 84/76/266
f 38/84/267 35/65/267 29/61/267
f 41/73/268 38/84/268 73/64/268
f 45/5/269 47/9/269 44/10/269
f 19/31/270 56/38/270 63/39/270
f 64/85/271 23/41/271 65/40/271
f 66/47/272 22/52/272 62/57/272
f 13/45/273 64/85/273 24/55/273
f 17/33/274 23/41/274 64/85/274
f 31/60/275 73/64/275 35/65/275
f 75/69/276 71/89/276 70/86/276
f 82/74/277 81/82/277 79/87/277
f 80/81/278 34/88/278 71/89/278
f 71/89/279 34/88/279 79/87/279
f 79/87/280 81/82/280 74/83/280
f 136/90/281 86/94/281 89/91/281
f 85/92/282 88/98/282 87/93/282
f 89/91/283 88/98/283 85/92/283
f 86/94/284 90/183/284 92/95/284
f 137/96/285 90/183/285 86/94/285
f 91/97/286 137/96/286 87/93/286
f 89/91/287 92/95/287 91/97/287
f 138/99/288 94/103/288 97/100/288
f 96/101/289 95/106/289 44/10/289
f 97/100/290 96/101/290 93/102/290
f 94/103/291 98/184/291 141/104/291
f 139/105/292 98/184/292 94/103/292
f 50/21/293 166/107/293 168/3/293
f 141/104/294 98/184/294 139/105/294
f 92/95/295 90/183/295 137/96/295
f 142/111/296 103/117/296 144/112/296
f 105/114/297 102/137/297 101/115/297
f 103/117/298 107/123/298 145/118/298
f 110/119/299 112/138/299 148/120/299
f 108/122/300 106/134/300 105/114/300
f 105/114/301 104/116/301 145/118/301
f 108/122/302 107/123/302 103/117/302
f 143/124/303 103/117/303 142/111/303
f 117/126/304 114/139/304 115/127/304
f 118/129/305 116/128/305 115/127/305
f 149/121/306 148/120/306 117/126/306
f 115/127/307 114/139/307 111/131/307
f 100/133/308 102/137/308 105/114/308
f 149/121/309 116/128/309 118/129/309
f 110/119/310 149/121/310 147/135/310
f 115/127/311 109/132/311 146/136/311
f 104/116/312 114/139/312 117/126/312
f 118/129/313 150/130/313 106/134/313
f 146/136/314 109/132/314 102/137/314
f 150/130/315 146/136/315 100/133/315
f 147/135/316 118/129/316 108/122/316
f 145/118/317 117/126/317 148/120/317
f 102/137/318 109/132/318 111/131/318
f 101/115/319 111/131/319 114/139/319
f 122/140/320 153/146/320 124/141/320
f 126/143/321 123/166/321 121/144/321
f 153/146/322 127/152/322 128/147/322
f 156/148/323 130/168/323 132/149/323
f 155/151/324 154/163/324 126/143/324
f 126/143/325 125/145/325 128/147/325
f 155/151/326 127/152/326 153/146/326
f 152/153/327 153/146/327 122/140/327
f 134/155/328 161/169/328 162/156/328
f 135/158/329 133/157/329 162/156/329
f 160/150/330 132/149/330 134/155/330
f 162/156/331 161/169/331 157/160/331
f 151/162/332 123/166/332 126/143/332
f 160/150/333 133/157/333 135/158/333
f 162/156/334 129/161/334 158/165/334
f 125/145/335 161/169/335 134/155/335
f 135/158/336 163/159/336 154/163/336
f 158/165/337 129/161/337 123/166/337
f 159/164/338 135/158/338 155/151/338
f 124/141/339 132/149/339 130/168/339
f 130/168/340 156/148/340 122/140/340
f 128/147/341 134/155/341 132/149/341
f 123/166/342 129/161/342 157/160/342
f 121/144/343 157/160/343 161/169/343
f 87/93/344 86/94/344 136/90/344
f 95/106/345 94/103/345 138/99/345
f 140/110/346 139/105/346 95/106/346
f 97/100/347 141/104/347 140/110/347
f 156/148/348 120/142/348 132/149/348
f 156/148/349 160/150/349 159/164/349
f 163/159/350 158/165/350 151/162/350
f 169/109/351 167/108/351 6/20/351
f 166/107/352 50/21/352 6/20/352
f 165/15/353 169/109/353 52/19/353
f 172/16/354 165/15/354 136/90/354
f 172/16/355 43/4/355 42/6/355
f 170/2/356 44/10/356 138/99/356
f 170/2/357 171/17/357 42/6/357
f 186/171/189 173/172/189 174/172/189
f 193/173/190 177/176/190 178/174/190
f 191/173/191 189/175/191 175/174/191
f 191/173/192 176/176/192 177/176/192
f 189/175/193 187/171/193 174/172/193
f 181/177/194 182/179/194 176/176/194
f 178/174/195 184/177/195 179/178/195
f 182/179/196 183/179/196 177/176/196
f 180/178/197 181/177/197 175/174/197
f 183/179/198 184/177/198 178/174/198
f 195/175/199 178/174/199 173/172/199
f 185/180/200 186/171/200 187/171/200
f 190/181/201 188/180/201 187/171/201
f 192/182/202 190/181/202 189/175/202
f 192/182/203 191/173/203 193/173/203
f 194/182/204 193/173/204 195/175/204
f 196/181/205 195/175/205 186/171/205
f 185/180/206 188/180/206 190/181/206
f 190/181/206 192/182/206 194/182/206
f 194/182/206 196/181/206 190/181/206
f 179/178/207 180/178/207 174/172/207
