# Blender 4.4.0
# www.blender.org
mtllib Crop_Potato_03.mtl
o Crop_Potato_03
v -0.045900 0.009224 0.069726
v -0.031677 -0.034920 -0.072517
v -0.035092 0.017901 -0.065806
v 0.038506 0.007279 0.083245
v 0.025633 -0.038494 -0.071117
v 0.027810 0.016396 -0.045949
v -0.047047 -0.033230 -0.002457
v -0.036176 0.054789 0.007281
v -0.001396 -0.045137 -0.085703
v 0.049870 -0.013433 -0.000217
v 0.045284 0.029001 0.085102
v -0.003924 0.003459 0.096510
v -0.002362 -0.054668 -0.005208
v -0.005868 0.064369 0.008375
v 0.009945 0.035064 0.115212
v -0.000913 0.045604 0.114723
v -0.039047 -0.009312 -0.082630
v -0.004243 0.014685 -0.077388
v -0.001416 -0.035940 -0.092353
v -0.050619 0.005436 -0.040179
v -0.054906 0.000535 0.001959
v -0.062017 0.027593 0.017087
v 0.055237 -0.005247 -0.011397
v 0.035162 0.036055 -0.007204
v 0.059411 0.004576 0.016618
v 0.053520 0.017689 0.022064
v 0.014141 0.068015 0.070664
v 0.040173 0.041978 0.075875
v -0.055310 0.044155 0.090157
v -0.008327 0.078671 0.085326
v -0.043752 0.067114 0.054460
vn -0.9350 -0.3251 -0.1419
vn -0.9268 -0.3366 0.1663
vn 0.6118 0.2555 -0.7486
vn 0.5026 -0.5059 -0.7010
vn -0.4823 -0.5140 -0.7094
vn -0.9022 0.4310 -0.0149
vn 0.7959 -0.6025 -0.0591
vn 0.5706 0.6134 0.5461
vn -0.5059 -0.5330 0.6782
vn -0.4351 -0.8974 -0.0738
vn 0.2923 -0.9501 -0.1090
vn 0.5354 -0.7297 0.4252
vn -0.3558 -0.8031 0.4780
vn 0.3703 0.7981 -0.4752
vn -0.0981 0.8603 -0.5003
vn -0.3487 0.5779 0.7379
vn 0.7345 -0.6284 0.2560
vn 0.5001 0.8402 -0.2098
vn 0.8476 0.4772 -0.2322
vn -0.3739 -0.3453 0.8608
vn 0.2904 -0.5785 0.7623
vn -0.0491 0.2806 -0.9586
vn -0.2474 0.5353 -0.8076
vn -0.9420 0.3308 -0.0573
vn -0.8674 0.3467 -0.3569
vn 0.8637 -0.5017 0.0472
vn 0.8254 0.2079 -0.5249
vn 0.6062 0.6523 0.4550
vn 0.7141 0.6873 -0.1331
vn 0.9170 0.3958 0.0488
vn -0.5377 0.7776 0.3260
vn -0.1551 0.9704 -0.1853
vn -0.9388 -0.2810 -0.1992
vn -0.9700 -0.2097 -0.1231
vn -0.9569 -0.2434 0.1584
vn -0.9246 -0.3444 0.1629
vn 0.6621 0.2905 -0.6908
vn -0.5029 -0.4388 -0.7447
vn -0.7444 0.6070 -0.2781
vn 0.5708 0.6133 0.5459
vn -0.3618 -0.9253 -0.1139
vn 0.6142 -0.7862 0.0679
vn 0.1666 -0.9515 0.2588
vn -0.3974 -0.7994 0.4507
vn 0.4021 0.7955 -0.4533
vn -0.2564 0.8613 -0.4385
vn 0.9043 -0.3075 0.2962
vn 0.3347 0.9283 -0.1618
vn -0.3788 -0.3442 0.8591
vn 0.6020 -0.2526 0.7575
vn -0.5808 0.2756 -0.7660
vn -0.8289 0.4943 -0.2618
vn 0.8513 0.4424 -0.2820
vn 0.8177 0.4357 -0.3762
vn 0.5039 0.6235 0.5978
vn 0.7550 0.6526 -0.0641
vn 0.9186 0.3920 0.0497
vn -0.2796 0.9170 -0.2845
vt 0.231518 0.880443
vt 0.231094 0.864716
vt 0.231195 0.837408
vt 0.231939 0.875217
vt 0.232617 0.884482
vt 0.232091 0.904070
vt 0.231146 0.890305
vt 0.231209 0.833597
vt 0.230997 0.836321
vt 0.200817 0.821786
vt 0.200797 0.824187
vt 0.200863 0.823520
vt 0.231063 0.826514
vt 0.232464 0.946214
vt 0.232821 0.921731
vt 0.201050 0.832200
vt 0.201085 0.830063
vt 0.232773 0.958538
vt 0.233071 0.912037
vt 0.232770 0.905571
vt 0.201388 0.834472
vt 0.201368 0.845097
vt 0.201304 0.835978
vt 0.231868 0.816350
vt 0.231895 0.839210
vt 0.231918 0.860321
vt 0.232884 0.878334
vt 0.231460 0.892130
vt 0.232003 0.943287
vt 0.231848 0.913094
vt 0.231262 0.893734
vt 0.233067 0.923277
vt 0.232086 0.879525
vt 0.232752 0.882408
vt 0.232626 0.947175
vt 0.201138 0.834764
vt 0.201063 0.842982
vt 0.201155 0.838187
vt 0.200827 0.831139
vt 0.200880 0.838243
vt 0.200843 0.837403
vt 0.231993 0.933071
vt 0.231806 0.869051
vt 0.232140 0.893509
vt 0.232678 0.919410
s 0
usemtl Texture_Map
f 20/1/1 17/2/1 2/3/1
f 21/4/2 1/5/2 22/6/2
f 18/7/3 5/8/3 19/9/3
f 9/10/4 19/11/4 5/12/4
f 2/3/5 19/9/5 9/13/5
f 31/14/6 22/6/6 29/15/6
f 5/12/7 23/16/7 10/17/7
f 30/18/8 15/19/8 11/20/8
f 12/21/9 29/22/9 1/23/9
f 2/3/10 13/24/10 7/25/10
f 5/8/11 13/24/11 9/13/11
f 10/26/12 12/27/12 13/24/12
f 13/24/13 1/5/13 7/25/13
f 6/28/14 14/29/14 24/30/14
f 3/31/15 14/29/15 18/7/15
f 29/15/16 16/32/16 30/18/16
f 25/33/17 4/34/17 10/26/17
f 14/29/18 27/35/18 24/30/18
f 25/36/19 24/37/19 26/38/19
f 16/32/20 12/27/20 15/19/20
f 4/34/21 15/19/21 12/27/21
f 17/2/22 18/7/22 19/9/22
f 17/39/23 3/40/23 18/41/23
f 21/4/24 8/42/24 20/1/24
f 20/1/25 3/31/25 17/2/25
f 23/43/26 25/33/26 10/26/26
f 6/28/27 23/43/27 5/8/27
f 11/20/28 27/35/28 30/18/28
f 26/44/29 27/35/29 28/45/29
f 11/20/30 26/44/30 28/45/30
f 29/15/31 30/18/31 31/14/31
f 14/29/32 31/14/32 30/18/32
f 2/3/33 7/25/33 20/1/33
f 7/25/34 21/4/34 20/1/34
f 7/25/35 1/5/35 21/4/35
f 1/5/36 29/15/36 22/6/36
f 18/7/37 6/28/37 5/8/37
f 2/3/38 17/2/38 19/9/38
f 31/14/39 8/42/39 22/6/39
f 30/18/40 16/32/40 15/19/40
f 2/3/41 9/13/41 13/24/41
f 5/8/42 10/26/42 13/24/42
f 10/26/43 4/34/43 12/27/43
f 13/24/44 12/27/44 1/5/44
f 6/28/45 18/7/45 14/29/45
f 3/31/46 8/42/46 14/29/46
f 25/33/47 11/20/47 4/34/47
f 14/29/48 30/18/48 27/35/48
f 16/32/49 29/15/49 12/27/49
f 4/34/50 11/20/50 15/19/50
f 21/4/51 22/6/51 8/42/51
f 20/1/52 8/42/52 3/31/52
f 23/43/53 24/30/53 25/33/53
f 6/28/54 24/30/54 23/43/54
f 11/20/55 28/45/55 27/35/55
f 26/44/56 24/30/56 27/35/56
f 11/20/57 25/33/57 26/44/57
f 14/29/58 8/42/58 31/14/58
