# Blender 4.4.0
# www.blender.org
mtllib Crop_Carrot_STAGE_3_01.mtl
o Crop_Carrot_STAGE_3_01
v 0.019763 0.173588 -0.034267
v -0.019662 0.173587 -0.034267
v -0.039678 0.173480 -0.000201
v -0.019814 0.173480 0.034204
v 0.019915 0.173480 0.034205
v 0.039779 0.173480 -0.000202
v 0.023554 0.064119 -0.040796
v -0.023554 0.064119 -0.040796
v -0.047108 0.064119 0.000000
v -0.023554 0.064119 0.040796
v 0.023554 0.064119 0.040796
v 0.047108 0.064119 0.000000
v 0.019036 0.000000 -0.032971
v -0.019036 0.000000 -0.032971
v -0.038071 0.000000 0.000000
v -0.019036 0.000000 0.032971
v 0.019036 0.000000 0.032971
v 0.038071 0.000000 -0.000000
v 0.023817 0.187616 -0.000246
v 0.047649 0.149780 -0.000106
v 0.011960 0.187616 0.020292
v 0.023824 0.149780 0.041159
v -0.011755 0.187616 0.020292
v -0.023825 0.149782 0.041158
v -0.023613 0.187616 -0.000246
v -0.047648 0.149782 -0.000106
v 0.011890 0.187616 -0.020604
v 0.023689 0.149995 -0.041081
v -0.011686 0.187616 -0.020603
v -0.023690 0.149995 -0.041081
v -0.000014 0.112495 -0.000303
v -0.050925 0.329110 -0.148424
v 0.052224 0.329110 -0.148424
v 0.000650 0.350499 -0.191052
v 0.029134 0.348224 -0.180573
v -0.027835 0.348224 -0.180573
v 0.028905 0.289059 -0.062667
v 0.000650 0.289208 -0.076132
v -0.027606 0.289059 -0.062667
v 0.052224 0.329110 0.149146
v -0.050925 0.329110 0.149146
v 0.000650 0.350499 0.191774
v -0.027835 0.348224 0.181295
v 0.029134 0.348224 0.181295
v -0.027606 0.289059 0.063389
v 0.000650 0.289208 0.076855
v 0.028905 0.289059 0.063389
v -0.018807 0.258414 -0.039736
v 0.020106 0.258414 -0.039736
v 0.008020 0.195642 -0.007007
v 0.000650 0.252996 -0.044216
v 0.000650 0.188246 -0.007196
v 0.020106 0.258415 0.040458
v -0.018807 0.258415 0.040458
v 0.000650 0.252996 0.044939
v 0.000650 0.188247 0.007919
v 0.029274 0.288346 -0.063669
v 0.000650 0.288468 -0.077177
v -0.027975 0.288346 -0.063669
v -0.027975 0.288346 0.064391
v 0.000650 0.288468 0.077899
v 0.029274 0.288346 0.064391
v -0.007292 0.195094 -0.008461
v -0.019421 0.257611 -0.040853
v 0.020720 0.257611 -0.040853
v 0.008592 0.195094 -0.008461
v 0.000650 0.252156 -0.045539
v 0.000650 0.188056 -0.008777
v 0.020720 0.257611 0.041575
v -0.019421 0.257611 0.041575
v 0.000650 0.252156 0.046261
v 0.000650 0.188008 0.009481
v -0.148137 0.335976 0.051936
v -0.148137 0.335976 -0.051214
v -0.190765 0.350499 0.000361
v -0.180286 0.348224 -0.028124
v -0.180286 0.348224 0.028846
v -0.062380 0.289059 -0.027894
v -0.075846 0.289208 0.000361
v -0.062380 0.289059 0.028617
v 0.149437 0.338415 -0.051214
v 0.149437 0.338415 0.051936
v 0.192064 0.350499 0.000361
v 0.181586 0.348224 0.028846
v 0.181586 0.348224 -0.028124
v 0.063679 0.289059 0.028617
v 0.077145 0.289208 0.000361
v 0.063679 0.289059 -0.027894
v -0.006721 0.195642 0.007732
v -0.039449 0.258414 0.019818
v -0.039449 0.258414 -0.019095
v -0.006721 0.195642 -0.007009
v -0.043930 0.252996 0.000361
v -0.006910 0.188247 0.000361
v 0.040748 0.258415 -0.019095
v 0.040748 0.258415 0.019818
v 0.008020 0.195642 0.007732
v 0.045229 0.252996 0.000361
v 0.008209 0.188247 0.000361
v -0.063382 0.288346 -0.028263
v -0.076891 0.288468 0.000361
v -0.063382 0.288346 0.028985
v 0.093888 0.304287 -0.036106
v 0.064681 0.288346 0.028985
v 0.078190 0.288468 0.000361
v 0.064681 0.288346 -0.028263
v -0.008175 0.195094 0.008303
v -0.040566 0.257611 0.020432
v -0.040566 0.257611 -0.019709
v -0.045252 0.252156 0.000361
v -0.008490 0.188056 0.000361
v 0.041866 0.257611 -0.019709
v 0.041866 0.257611 0.020432
v 0.008591 0.195097 0.009138
v 0.046551 0.252156 0.000361
v 0.009771 0.188008 0.000361
vn 0.6187 0.6997 0.3572
vn -0.0000 -0.0033 -1.0000
vn -0.6167 0.7020 0.3561
vn -0.6168 0.6998 -0.3602
vn -0.0000 1.0000 -0.0000
vn 0.8660 -0.0061 -0.5000
vn -0.0000 -0.0042 1.0000
vn -0.8660 -0.0061 -0.5000
vn -0.0000 0.7015 0.7127
vn 0.8660 -0.0048 0.5000
vn -0.8660 -0.0049 0.5000
vn -0.0000 -0.1212 0.9926
vn -0.8596 -0.1212 -0.4963
vn 0.8596 -0.1212 0.4963
vn -0.8596 -0.1212 0.4963
vn -0.0000 -0.1212 -0.9926
vn 0.8596 -0.1212 -0.4963
vn 0.6173 0.6987 -0.3617
vn 0.8318 0.2782 0.4803
vn -0.8310 0.2814 0.4798
vn -0.8301 0.2772 -0.4839
vn -0.0000 0.2774 -0.9607
vn 0.8285 0.2782 -0.4859
vn -0.0000 0.2816 0.9595
vn -0.0000 0.6977 -0.7164
vn 0.1750 0.9095 0.3772
vn 0.1021 0.8777 0.4681
vn -0.3337 0.6233 0.7072
vn 0.1145 0.0890 0.9894
vn 0.1312 0.1058 -0.9857
vn -0.1167 0.0910 0.9890
vn -0.1750 0.9095 -0.3772
vn -0.1021 0.8777 -0.4681
vn -0.4614 0.4404 -0.7702
vn 0.3337 0.6233 -0.7072
vn -0.1335 0.1081 -0.9851
vn 0.3216 -0.4845 0.8135
vn -0.1787 -0.9047 0.3867
vn -0.3224 0.4857 0.8125
vn 0.3362 0.6242 0.7052
vn 0.3224 0.4857 -0.8125
vn -0.3362 0.6242 -0.7052
vn -0.1787 -0.9047 -0.3867
vn -0.1053 -0.8733 -0.4757
vn 0.1053 -0.8733 -0.4757
vn 0.3329 -0.6195 -0.7110
vn -0.1359 -0.1092 -0.9847
vn -0.2278 -0.1231 0.9659
vn 0.1380 -0.1116 -0.9841
vn 0.1787 -0.9047 0.3867
vn 0.1053 -0.8733 0.4757
vn -0.1053 -0.8733 0.4757
vn -0.3329 -0.6195 0.7110
vn 0.1568 -0.1283 0.9793
vn 0.3216 -0.4840 -0.8138
vn -0.3342 -0.6200 -0.7099
vn -0.3222 -0.4893 0.8104
vn 0.3342 -0.6200 0.7099
vn 0.9523 0.0775 0.2952
vn -0.9523 0.0776 0.2952
vn -0.9523 0.0775 -0.2952
vn 0.9523 0.0776 -0.2952
vn -0.9317 0.0099 0.3631
vn 0.8921 0.0590 0.4479
vn 0.9284 0.0149 -0.3714
vn -0.8926 0.0610 -0.4467
vn -0.8951 0.0722 0.4400
vn 0.9378 -0.0032 0.3473
vn 0.8951 0.0722 -0.4400
vn -0.9378 -0.0032 -0.3473
vn 0.4280 0.8815 -0.1994
vn 0.4681 0.8777 -0.1021
vn 0.7072 0.6233 0.3337
vn 0.9890 0.0910 -0.1167
vn -0.9851 0.1081 -0.1337
vn 0.9894 0.0891 0.1147
vn -0.4450 0.8712 0.2075
vn -0.4681 0.8777 0.1021
vn -0.7072 0.6233 -0.3337
vn -0.9856 0.1058 0.1315
vn 0.4280 -0.8818 -0.1982
vn 0.8125 0.4857 0.3224
vn 0.7052 0.6242 -0.3362
vn -0.8125 0.4857 -0.3224
vn -0.7052 0.6242 0.3362
vn -0.4374 -0.8761 0.2027
vn -0.4757 -0.8733 0.1052
vn -0.4757 -0.8733 -0.1053
vn -0.7110 -0.6195 -0.3329
vn -0.9841 -0.1116 0.1380
vn 0.9643 -0.1270 0.2323
vn -0.9703 -0.1069 -0.2170
vn 0.4757 -0.8733 -0.1053
vn 0.4757 -0.8733 0.1053
vn 0.7110 -0.6195 0.3329
vn 0.9658 -0.1232 -0.2281
vn -0.8104 -0.4893 -0.3222
vn -0.7099 -0.6200 0.3342
vn 0.8103 -0.4895 0.3222
vn 0.7099 -0.6200 -0.3342
vn 0.2985 0.0726 -0.9517
vn 0.2985 0.0726 0.9517
vn -0.2996 0.0710 0.9514
vn 0.4510 -0.8519 -0.2661
vn -0.2967 0.0752 -0.9520
vn 0.3627 0.0097 0.9319
vn 0.4467 0.0610 -0.8926
vn -0.8176 0.3533 -0.4547
vn -0.4467 0.0610 0.8926
vn 0.4400 0.0722 0.8951
vn 0.3473 -0.0032 -0.9378
vn -0.4400 0.0722 -0.8951
vn -0.3473 -0.0032 0.9378
vn 0.4681 0.8777 0.1021
vn 0.4513 0.8774 0.1630
vn 0.7701 0.4403 -0.4616
vn -0.8138 -0.4840 0.3216
vn -0.4374 -0.8761 -0.2027
vn 0.1021 0.8777 -0.4681
vn -0.0258 0.8673 -0.4971
vn -0.7701 0.4403 0.4617
vn -0.4681 0.8777 -0.1021
vn -0.4308 0.8729 -0.2290
vn 0.8104 -0.4893 -0.3222
vn 0.4359 -0.8679 0.2383
vn 0.4614 0.4403 0.7702
vn -0.1021 0.8777 0.4681
vn 0.0258 0.8673 0.4971
vn -0.3216 -0.4840 -0.8138
vn 0.1787 -0.9047 -0.3867
vn -0.6153 0.7010 -0.3605
vn 0.8632 -0.0030 -0.5048
vn -0.8633 -0.0030 -0.5048
vn -0.0000 0.7014 0.7127
vn 0.8660 -0.0049 0.5000
vn -0.8660 -0.0048 0.5000
vn 0.6188 0.6975 -0.3614
vn 0.8318 0.2781 0.4803
vn -0.8277 0.2815 -0.4854
vn -0.0000 0.2775 -0.9607
vn 0.8308 0.2739 -0.4844
vn -0.0258 0.8673 0.4971
vn -0.3362 0.6242 0.7052
vn 0.0258 0.8673 -0.4971
vn -0.3224 0.4857 -0.8125
vn 0.3362 0.6242 -0.7052
vn 0.4339 -0.4481 0.7816
vn 0.0145 -0.8640 0.5033
vn -0.4616 0.4403 0.7701
vn 0.3337 0.6233 0.7072
vn 0.4614 0.4403 -0.7702
vn -0.3337 0.6233 -0.7072
vn 0.0145 -0.8640 -0.5033
vn 0.3342 -0.6200 -0.7099
vn -0.0145 -0.8640 0.5033
vn -0.3342 -0.6200 0.7099
vn 0.4293 -0.4493 -0.7835
vn -0.3329 -0.6195 -0.7110
vn -0.4580 -0.4422 0.7712
vn 0.3329 -0.6195 0.7110
vn -0.8921 0.0590 0.4479
vn 0.9319 0.0097 0.3627
vn 0.8922 0.0592 -0.4477
vn -0.4547 0.3533 -0.8176
vn -0.9378 -0.0032 0.3473
vn 0.8951 0.0722 0.4400
vn 0.9378 -0.0032 -0.3473
vn -0.8951 0.0722 -0.4400
vn 0.4513 0.8774 -0.1630
vn 0.7052 0.6242 0.3362
vn -0.4308 0.8729 0.2290
vn -0.7052 0.6242 -0.3362
vn 0.4536 -0.8722 -0.1831
vn 0.7701 0.4403 0.4616
vn 0.7072 0.6233 -0.3337
vn -0.7701 0.4403 -0.4616
vn -0.7072 0.6233 0.3337
vn -0.4567 -0.8727 0.1730
vn -0.7099 -0.6200 -0.3342
vn 0.7099 -0.6200 0.3342
vn -0.7713 -0.4424 -0.4576
vn -0.7110 -0.6195 0.3329
vn 0.7702 -0.4416 0.4603
vn 0.7110 -0.6195 -0.3329
vn -0.2619 -0.0010 -0.9651
vn 0.4479 0.0590 0.8921
vn 0.8174 0.3532 -0.4551
vn -0.4467 0.0610 -0.8926
vn -0.8134 0.3488 0.4656
vn 0.3473 -0.0032 0.9378
vn 0.4400 0.0722 -0.8951
vn -0.3473 -0.0032 -0.9378
vn -0.4400 0.0722 0.8951
vn 0.4280 0.8815 0.1994
vn 0.8125 0.4857 -0.3224
vn -0.7835 -0.4493 0.4293
vn -0.4567 -0.8727 -0.1730
vn 0.1750 0.9095 -0.3772
vn -0.8125 0.4857 0.3224
vn -0.4450 0.8712 -0.2075
vn 0.7711 -0.4421 -0.4582
vn 0.4543 -0.8656 0.2107
vn 0.3224 0.4857 0.8125
vn -0.1750 0.9095 0.3772
vn -0.4293 -0.4493 -0.7835
vn -0.0145 -0.8640 -0.5033
vt 0.608780 0.092495
vt 0.609876 0.087012
vt 0.609878 0.092495
vt 0.612046 0.044591
vt 0.612062 0.077902
vt 0.609876 0.087012
vt 0.608036 0.087012
vt 0.611697 0.087053
vt 0.610967 0.092495
vt 0.609871 0.077819
vt 0.609865 0.044591
vt 0.607664 0.077819
vt 0.607683 0.044591
vt 0.609870 0.077819
vt 0.608036 0.087012
vt 0.607664 0.077819
vt 0.608102 0.019720
vt 0.609865 0.019720
vt 0.611628 0.019720
vt 0.211363 0.141555
vt 0.212355 0.159962
vt 0.211178 0.141486
vt 0.212940 0.169829
vt 0.212796 0.168780
vt 0.210925 0.124850
vt 0.210417 0.094980
vt 0.210414 0.098392
vt 0.210322 0.060035
vt 0.210210 0.094980
vt 0.210212 0.098392
vt 0.210414 0.098392
vt 0.209264 0.141555
vt 0.208271 0.159962
vt 0.209448 0.141486
vt 0.207686 0.169829
vt 0.207830 0.168780
vt 0.209702 0.124850
vt 0.210212 0.098391
vt 0.209683 0.124462
vt 0.210193 0.098140
vt 0.209748 0.126978
vt 0.209249 0.141213
vt 0.209435 0.141157
vt 0.210864 0.127349
vt 0.209763 0.127349
vt 0.211377 0.141213
vt 0.211192 0.141157
vt 0.210943 0.124462
vt 0.210434 0.098139
vt 0.210439 0.094892
vt 0.210188 0.094870
vt 0.210204 0.098139
vt 0.210879 0.126978
vt 0.210313 0.141555
vt 0.209606 0.163129
vt 0.209926 0.141486
vt 0.210313 0.169829
vt 0.209922 0.168780
vt 0.210313 0.124850
vt 0.210701 0.141486
vt 0.210313 0.094980
vt 0.211021 0.164254
vt 0.210701 0.141486
vt 0.210704 0.168780
vt 0.209926 0.141486
vt 0.210814 0.148511
vt 0.210313 0.141213
vt 0.210706 0.141157
vt 0.210580 0.127349
vt 0.210046 0.127349
vt 0.209920 0.141157
vt 0.210313 0.124462
vt 0.210313 0.094892
vt 0.210313 0.094870
vt 0.210589 0.126978
vt 0.210038 0.126978
vt 0.211021 0.163129
vt 0.209606 0.164254
s 0
usemtl Texture_Map
f 21/1/1 6/2/1 19/3/1
f 8/4/2 28/5/2 7/4/2
f 23/1/3 3/6/3 4/7/3
f 25/3/4 2/8/4 3/6/4
f 21/1/5 19/3/5 27/9/5
f 7/4/6 20/10/6 12/11/6
f 22/12/7 10/13/7 11/13/7
f 26/14/8 8/4/8 9/11/8
f 23/1/9 5/15/9 21/1/9
f 12/11/10 22/12/10 11/13/10
f 24/16/11 9/11/11 10/13/11
f 10/13/12 17/17/12 11/13/12
f 8/4/13 15/18/13 9/11/13
f 12/11/14 17/17/14 18/18/14
f 9/11/15 16/17/15 10/13/15
f 8/4/16 13/19/16 14/19/16
f 7/4/17 18/18/17 13/19/17
f 19/3/18 1/8/18 27/9/18
f 5/15/19 20/10/19 6/2/19
f 4/7/20 26/14/20 24/16/20
f 3/6/21 30/5/21 26/14/21
f 2/8/22 28/5/22 30/5/22
f 6/2/23 28/5/23 1/8/23
f 4/7/24 22/12/24 5/15/24
f 29/9/25 1/8/25 2/8/25
f 38/20/26 32/21/26 39/22/26
f 38/20/27 34/23/27 36/24/27
f 51/25/28 37/22/28 38/20/28
f 52/26/29 92/27/29 31/28/29
f 56/29/30 31/28/30 89/30/30
f 52/26/31 31/28/31 50/31/31
f 46/32/32 40/33/32 47/34/32
f 46/32/33 42/35/33 44/36/33
f 55/37/34 97/38/34 56/29/34
f 55/37/35 45/34/35 46/32/35
f 31/28/36 56/29/36 97/38/36
f 71/39/37 114/40/37 69/41/37
f 61/42/38 41/33/38 60/43/38
f 51/25/39 50/31/39 49/44/39
f 51/25/40 39/22/40 48/44/40
f 55/37/41 89/30/41 54/45/41
f 55/37/42 47/34/42 53/45/42
f 32/21/43 58/46/43 59/47/43
f 36/24/44 34/23/44 58/46/44
f 58/46/45 34/23/45 35/24/45
f 57/47/46 67/48/46 58/46/46
f 31/28/47 63/49/47 68/50/47
f 31/28/48 72/51/48 107/52/48
f 31/28/49 68/50/49 66/49/49
f 40/33/50 61/42/50 62/43/50
f 44/36/51 42/35/51 61/42/51
f 61/42/52 42/35/52 43/36/52
f 60/43/53 71/39/53 61/42/53
f 114/40/54 72/51/54 31/28/54
f 66/49/55 67/48/55 65/53/55
f 59/47/56 67/48/56 64/53/56
f 107/52/57 71/39/57 70/41/57
f 62/43/58 71/39/58 69/41/58
f 33/21/59 37/22/59 57/47/59
f 39/22/60 32/21/60 59/47/60
f 41/33/61 45/34/61 60/43/61
f 47/34/62 40/33/62 62/43/62
f 48/44/63 63/49/63 92/27/63
f 49/44/64 66/49/64 65/53/64
f 53/45/65 114/40/65 97/38/65
f 89/30/66 70/41/66 54/45/66
f 39/22/67 64/53/67 48/44/67
f 37/22/68 65/53/68 57/47/68
f 47/34/69 69/41/69 53/45/69
f 45/34/70 70/41/70 60/43/70
f 79/54/71 73/55/71 80/56/71
f 79/54/72 75/57/72 77/58/72
f 93/59/73 78/60/73 79/54/73
f 89/30/74 31/28/74 94/61/74
f 99/61/75 31/28/75 97/38/75
f 94/61/76 31/28/76 92/27/76
f 87/54/77 81/62/77 88/63/77
f 87/54/78 83/57/78 85/64/78
f 98/59/79 86/65/79 87/54/79
f 31/28/80 99/61/80 50/31/80
f 103/66/81 105/67/81 106/68/81
f 93/59/82 92/27/82 91/69/82
f 93/59/83 80/56/83 90/70/83
f 98/59/84 97/38/84 96/70/84
f 98/59/85 88/63/85 95/69/85
f 73/55/86 101/67/86 102/71/86
f 77/58/87 75/57/87 101/67/87
f 101/67/88 75/57/88 76/64/88
f 100/68/89 110/72/89 101/67/89
f 31/28/90 107/52/90 111/73/90
f 31/28/91 116/74/91 114/40/91
f 31/28/92 111/73/92 63/49/92
f 85/64/93 83/57/93 105/67/93
f 105/67/94 83/57/94 84/58/94
f 104/71/95 115/72/95 105/67/95
f 66/49/96 116/74/96 31/28/96
f 63/49/97 110/72/97 109/75/97
f 102/71/98 110/72/98 108/76/98
f 114/40/99 115/72/99 113/76/99
f 106/68/100 115/72/100 112/75/100
f 74/77/101 78/60/101 100/68/101
f 80/56/102 73/55/102 102/71/102
f 82/78/103 86/65/103 104/71/103
f 81/62/104 85/64/104 103/66/104
f 88/63/105 103/66/105 106/68/105
f 90/70/106 107/52/106 89/30/106
f 92/27/107 109/75/107 91/69/107
f 50/31/108 112/75/108 66/49/108
f 97/38/109 113/76/109 96/70/109
f 80/56/110 108/76/110 90/70/110
f 78/60/111 109/75/111 100/68/111
f 88/63/112 112/75/112 95/69/112
f 86/65/113 113/76/113 104/71/113
f 75/57/114 79/54/114 76/64/114
f 79/54/115 74/77/115 76/64/115
f 93/59/116 89/30/116 94/61/116
f 110/72/117 107/52/117 108/76/117
f 101/67/118 74/77/118 100/68/118
f 42/35/119 46/32/119 43/36/119
f 46/32/120 41/33/120 43/36/120
f 98/59/121 50/31/121 99/61/121
f 83/57/122 87/54/122 84/58/122
f 87/54/123 82/78/123 84/58/123
f 115/72/124 66/49/124 112/75/124
f 82/78/125 105/67/125 84/58/125
f 51/25/126 92/27/126 52/26/126
f 34/23/127 38/20/127 35/24/127
f 38/20/128 33/21/128 35/24/128
f 67/48/129 63/49/129 64/53/129
f 58/46/130 33/21/130 57/47/130
f 21/1/1 5/15/1 6/2/1
f 8/4/2 30/5/2 28/5/2
f 23/1/3 25/3/3 3/6/3
f 25/3/131 29/9/131 2/8/131
f 27/9/5 29/9/5 23/1/5
f 29/9/5 25/3/5 23/1/5
f 23/1/5 21/1/5 27/9/5
f 7/4/132 28/5/132 20/10/132
f 22/12/7 24/16/7 10/13/7
f 26/14/133 30/5/133 8/4/133
f 23/1/134 4/7/134 5/15/134
f 12/11/135 20/10/135 22/12/135
f 24/16/136 26/14/136 9/11/136
f 10/13/12 16/17/12 17/17/12
f 8/4/13 14/19/13 15/18/13
f 12/11/14 11/13/14 17/17/14
f 9/11/15 15/18/15 16/17/15
f 8/4/16 7/4/16 13/19/16
f 7/4/17 12/11/17 18/18/17
f 19/3/137 6/2/137 1/8/137
f 5/15/138 22/12/138 20/10/138
f 4/7/20 3/6/20 26/14/20
f 3/6/139 2/8/139 30/5/139
f 2/8/140 1/8/140 28/5/140
f 6/2/141 20/10/141 28/5/141
f 4/7/24 24/16/24 22/12/24
f 29/9/25 27/9/25 1/8/25
f 38/20/142 36/24/142 32/21/142
f 51/25/143 49/44/143 37/22/143
f 46/32/144 44/36/144 40/33/144
f 55/37/145 53/45/145 97/38/145
f 55/37/146 54/45/146 45/34/146
f 71/39/147 72/51/147 114/40/147
f 61/42/148 43/36/148 41/33/148
f 51/25/149 52/26/149 50/31/149
f 51/25/150 38/20/150 39/22/150
f 55/37/151 56/29/151 89/30/151
f 55/37/152 46/32/152 47/34/152
f 32/21/153 36/24/153 58/46/153
f 57/47/154 65/53/154 67/48/154
f 40/33/155 44/36/155 61/42/155
f 60/43/156 70/41/156 71/39/156
f 66/49/157 68/50/157 67/48/157
f 59/47/158 58/46/158 67/48/158
f 107/52/159 72/51/159 71/39/159
f 62/43/160 61/42/160 71/39/160
f 48/44/161 64/53/161 63/49/161
f 49/44/162 50/31/162 66/49/162
f 53/45/163 69/41/163 114/40/163
f 89/30/164 107/52/164 70/41/164
f 39/22/165 59/47/165 64/53/165
f 37/22/166 49/44/166 65/53/166
f 47/34/167 62/43/167 69/41/167
f 45/34/168 54/45/168 70/41/168
f 79/54/169 77/58/169 73/55/169
f 93/59/170 91/69/170 78/60/170
f 87/54/171 85/64/171 81/62/171
f 98/59/172 96/70/172 86/65/172
f 103/66/173 85/64/173 105/67/173
f 93/59/174 94/61/174 92/27/174
f 93/59/175 79/54/175 80/56/175
f 98/59/176 99/61/176 97/38/176
f 98/59/177 87/54/177 88/63/177
f 73/55/178 77/58/178 101/67/178
f 100/68/179 109/75/179 110/72/179
f 104/71/180 113/76/180 115/72/180
f 63/49/181 111/73/181 110/72/181
f 102/71/182 101/67/182 110/72/182
f 114/40/183 116/74/183 115/72/183
f 106/68/184 105/67/184 115/72/184
f 88/63/185 81/62/185 103/66/185
f 90/70/186 108/76/186 107/52/186
f 92/27/187 63/49/187 109/75/187
f 50/31/188 95/69/188 112/75/188
f 97/38/189 114/40/189 113/76/189
f 80/56/190 102/71/190 108/76/190
f 78/60/191 91/69/191 109/75/191
f 88/63/192 106/68/192 112/75/192
f 86/65/193 96/70/193 113/76/193
f 79/54/194 78/60/194 74/77/194
f 93/59/195 90/70/195 89/30/195
f 110/72/196 111/73/196 107/52/196
f 101/67/197 76/64/197 74/77/197
f 46/32/198 45/34/198 41/33/198
f 98/59/199 95/69/199 50/31/199
f 87/54/200 86/65/200 82/78/200
f 115/72/201 116/74/201 66/49/201
f 82/78/202 104/71/202 105/67/202
f 51/25/203 48/44/203 92/27/203
f 38/20/204 37/22/204 33/21/204
f 67/48/205 68/50/205 63/49/205
f 58/46/206 35/24/206 33/21/206
