# Blender 4.4.0
# www.blender.org
mtllib Crop_Bean_STAGE_4_01.mtl
o Crop_Bean_STAGE_4_01
v -0.020308 0.000000 0.040617
v -0.020308 0.000000 -0.020308
v 0.040617 0.000000 -0.020308
v -0.020308 1.145384 0.040617
v -0.020308 1.145384 -0.020308
v 0.040617 1.145384 -0.020308
v 0.006313 0.001340 0.012633
v -0.028705 0.000000 -0.022410
v -0.063723 -0.001340 0.012633
v -0.028705 -0.000000 0.047677
v -0.004925 0.146439 0.013799
v -0.034584 0.141137 -0.014801
v -0.062710 0.156775 0.011468
v -0.033052 0.162077 0.040067
v 0.028173 0.201973 -0.045329
v 0.001166 0.207495 -0.079134
v -0.026002 0.230260 -0.053711
v 0.001005 0.224738 -0.019905
v 0.099237 0.324807 -0.016766
v 0.074761 0.338236 -0.051058
v 0.038878 0.338811 -0.025222
v 0.063355 0.325383 0.009071
v 0.071065 0.537336 0.037331
v 0.045667 0.539452 -0.001139
v 0.008387 0.526468 0.022759
v 0.033785 0.524352 0.061229
v 0.015897 0.705398 0.060270
v -0.002273 0.697761 0.027648
v -0.032916 0.686544 0.047341
v -0.014746 0.694181 0.079964
v -0.017775 0.773392 0.046555
v -0.032923 0.756142 0.017667
v -0.066392 0.760632 0.032537
v -0.051245 0.777882 0.061424
v 0.005482 0.834900 -0.020414
v -0.006647 0.827366 -0.054437
v -0.033895 0.851874 -0.050151
v -0.021767 0.859408 -0.016127
v 0.070077 0.879507 -0.020525
v 0.076023 0.897915 -0.050378
v 0.044154 0.913394 -0.047182
v 0.038208 0.894986 -0.017328
v 0.050819 0.949095 0.069842
v 0.055752 0.967309 0.047023
v 0.029342 0.960225 0.035659
v 0.024409 0.942011 0.058478
v -0.028013 1.056451 0.077275
v -0.016178 1.053290 0.059398
v -0.032435 1.041946 0.050642
v -0.044269 1.045107 0.068519
v -0.033717 1.130097 -0.015162
v -0.029423 1.119162 -0.031242
v -0.047878 1.124312 -0.025821
v 0.033388 0.963434 0.053103
v 0.043608 0.950279 0.058045
v 0.039467 0.954668 0.041750
v 0.105243 1.010728 0.044877
v 0.114967 1.005744 0.053425
v -0.036336 0.781594 0.041549
v -0.036883 0.767012 0.024625
v -0.047831 0.752430 0.037542
v -0.047284 0.767012 0.054466
v -0.125121 0.815018 0.010644
v -0.121769 0.803829 -0.000119
v -0.125442 0.792558 0.010453
v -0.128794 0.803748 0.021217
v -0.171054 0.797432 -0.003647
v -0.163762 0.781924 -0.007182
v -0.170576 0.787071 0.008091
v 0.032317 0.544680 0.024948
v 0.040964 0.531902 0.039058
v 0.047135 0.519123 0.023703
v 0.038488 0.531902 0.009593
v 0.131449 0.589551 0.012817
v 0.132411 0.585600 0.024231
v 0.132581 0.577930 0.016565
v 0.176323 0.576526 0.006873
v 0.177571 0.569291 0.014170
v -0.010550 1.128930 -0.023431
v -0.061000 1.132773 -0.002623
v -0.101417 1.010766 -0.138999
v -0.009591 1.062644 -0.113313
v -0.135413 1.080306 -0.062932
v 0.004487 1.097096 -0.082073
v -0.114926 1.114931 -0.033214
v -0.062478 1.108724 -0.076111
v -0.038951 1.081377 0.042495
v -0.017608 1.042941 0.075838
v -0.164556 1.084142 0.171230
v -0.126123 1.124446 0.083272
v -0.071294 1.038323 0.165473
v -0.086565 1.120239 0.057284
v -0.034222 1.037949 0.135129
v -0.064007 1.090847 0.111498
v 0.099093 1.023808 0.072414
v 0.090736 1.002549 0.023811
v 0.252999 0.932429 0.055571
v 0.194734 0.999634 0.109661
v 0.175877 0.952760 -0.011282
v 0.154425 1.023323 0.103565
v 0.135680 0.978910 -0.011588
v 0.163215 1.006339 0.040964
v 0.119412 1.002007 0.049383
v 0.069503 0.996344 0.041727
v 0.114009 0.889345 -0.050496
v 0.165722 0.937675 -0.002305
v 0.047049 0.936376 -0.024493
v 0.157468 0.975891 0.020810
v 0.045470 0.973681 -0.000332
v 0.104513 0.971619 -0.008612
v 0.003504 1.005977 0.070132
v 0.030130 0.966417 0.063369
v -0.045125 0.921320 0.198469
v -0.046231 1.001395 0.150442
v 0.022776 0.907320 0.135965
v -0.025800 1.018156 0.117422
v 0.040095 0.928788 0.102959
v 0.011547 0.973907 0.127204
v 0.041948 0.875174 -0.122788
v -0.020658 0.837780 -0.104104
v 0.105819 0.905852 -0.097051
v -0.004334 0.804425 -0.145004
v 0.128217 0.876256 -0.136704
v 0.095858 0.785469 -0.208048
v 0.001222 0.874718 -0.047165
v 0.054404 0.906270 -0.045010
v -0.071931 0.804179 -0.063867
v -0.078662 0.759654 -0.018096
v -0.036335 0.843311 -0.100531
v -0.090937 0.771829 -0.106952
v -0.097854 0.731635 -0.051912
v -0.052922 0.819736 -0.137848
v -0.091052 0.731070 -0.149340
v -0.033203 0.799878 -0.005914
v -0.016525 0.837436 -0.040487
v -0.148065 0.811389 -0.008387
v -0.135422 0.791964 0.030302
v -0.272590 0.702929 0.020887
v -0.236362 0.775137 -0.034280
v -0.198389 0.735135 0.075847
v -0.203001 0.803759 -0.032350
v -0.165915 0.766372 0.072515
v -0.200108 0.787686 0.027557
v -0.125588 0.804607 0.001099
v -0.156737 0.782217 0.026264
v -0.153497 0.687762 -0.094636
v -0.113196 0.765538 -0.079130
v -0.192615 0.714073 -0.019237
v -0.114081 0.794272 -0.050901
v -0.189565 0.745655 0.006692
v -0.161366 0.768458 -0.035804
v 0.155610 0.594329 0.039043
v 0.157275 0.569943 -0.017504
v 0.332455 0.488390 0.055116
v 0.254662 0.566592 0.102667
v 0.260976 0.512837 -0.037578
v 0.210737 0.593765 0.086644
v 0.215856 0.542832 -0.047069
v 0.235380 0.574066 0.018466
v 0.179729 0.589044 0.016438
v 0.124509 0.577514 0.003113
v 0.199669 0.542733 -0.174298
v 0.245327 0.591142 -0.076090
v 0.109704 0.570875 -0.108451
v 0.181032 0.586168 -0.112011
v 0.229646 0.601114 -0.029032
v 0.099854 0.581012 -0.059029
v 0.165179 0.603026 -0.054367
v 0.005353 0.750168 0.120488
v 0.031775 0.685868 0.102570
v -0.044563 0.802230 0.123021
v -0.005966 0.737615 0.174593
v 0.032577 0.674472 0.153556
v -0.047303 0.794826 0.173456
v -0.031817 0.714040 0.227950
v -0.019082 0.744692 0.054999
v -0.007591 0.715500 0.051968
v -0.041330 0.766358 0.060312
v 0.074950 0.593278 0.106041
v 0.104548 0.534270 0.088535
v 0.022266 0.636213 0.115778
v 0.078128 0.586108 0.159392
v 0.117969 0.529325 0.136132
v 0.031750 0.634512 0.163371
v 0.069427 0.566738 0.216256
v 0.051244 0.556251 0.046405
v 0.016854 0.596062 0.060157
v -0.062279 1.107475 -0.075929
v -0.064949 1.090369 0.110989
v 0.163226 1.005404 0.041751
v 0.104173 0.971004 -0.007829
v 0.010423 0.973551 0.127016
v 0.042888 0.874361 -0.122532
v -0.071124 0.803556 -0.064084
v -0.089973 0.771447 -0.106841
v -0.199946 0.786828 0.026701
v -0.160422 0.767746 -0.035791
v 0.235319 0.573104 0.019307
v 0.181062 0.585237 -0.111560
v 0.165325 0.601995 -0.054314
v 0.004484 0.749582 0.120554
v -0.006784 0.737129 0.174208
v -0.019845 0.744128 0.055352
v 0.074219 0.592597 0.106364
v 0.077327 0.585480 0.159258
vn -0.0000 1.0000 -0.0000
vn -1.0000 -0.0000 -0.0000
vn -0.0000 -0.0000 -1.0000
vn 0.7071 -0.0000 0.7071
vn 0.7056 0.0490 0.7069
vn 0.7045 0.0674 -0.7065
vn -0.7075 0.0086 -0.7067
vn -0.7075 0.0097 0.7066
vn 0.7288 0.2234 0.6473
vn 0.5260 -0.7468 -0.4070
vn -0.7277 -0.2144 -0.6515
vn -0.5477 0.7144 0.4355
vn 0.3690 -0.4610 0.8071
vn 0.7286 -0.2755 -0.6271
vn -0.3860 0.4430 -0.8092
vn -0.7298 0.2715 0.6274
vn 0.5781 -0.1285 0.8058
vn 0.8322 0.2378 -0.5009
vn -0.5791 0.1164 -0.8069
vn -0.8316 -0.2532 0.4944
vn 0.5248 0.0564 0.8493
vn 0.7952 0.3330 -0.5067
vn -0.5373 -0.0094 -0.8433
vn -0.8065 -0.2874 0.5166
vn 0.4033 0.3687 0.8375
vn 0.8041 0.2940 -0.5167
vn -0.4085 -0.3580 -0.8396
vn -0.8217 -0.2443 0.5149
vn 0.3993 0.5520 0.7320
vn 0.8564 -0.4925 -0.1550
vn -0.4024 -0.5319 -0.7451
vn -0.8639 0.4741 0.1700
vn 0.0741 -0.0913 0.9931
vn 0.5681 -0.8227 -0.0203
vn -0.0528 0.1148 -0.9920
vn -0.5103 0.8599 -0.0085
vn -0.3261 -0.7813 0.5322
vn 0.9799 0.0066 0.1993
vn 0.3378 0.7984 -0.4985
vn -0.9825 0.0170 -0.1853
vn -0.3112 -0.2911 0.9047
vn 0.6819 0.4927 0.5406
vn 0.2837 0.3649 -0.8868
vn -0.7252 -0.4531 -0.5185
vn -0.6606 0.5667 0.4923
vn 0.7384 0.5489 0.3918
vn 0.6602 -0.5584 -0.5023
vn -0.7524 -0.5184 -0.4064
vn -0.4541 0.5709 -0.6840
vn -0.1357 0.2543 0.9576
vn 0.5619 -0.7517 -0.3453
vn -0.0048 0.6651 0.7467
vn 0.4600 0.6653 -0.5881
vn -0.0604 -0.6361 -0.7692
vn -0.5259 -0.6359 0.5649
vn -0.4424 0.6860 0.5776
vn -0.0372 0.6870 -0.7257
vn 0.4530 -0.6840 -0.5718
vn 0.0453 -0.6855 0.7267
vn -0.3705 0.6353 -0.6776
vn -0.2541 0.6343 0.7301
vn 0.4580 -0.5841 0.6702
vn 0.3402 -0.5838 -0.7372
vn 0.3020 0.9085 0.2890
vn -0.0979 -0.7046 0.7028
vn -0.2148 -0.3187 -0.9232
vn -0.3629 0.6013 -0.7119
vn -0.0880 0.5627 -0.8220
vn 0.0479 0.6602 -0.7496
vn -0.3851 0.7216 -0.5753
vn -0.0554 0.9493 -0.3095
vn 0.3583 0.6445 0.6755
vn 0.2335 0.8413 0.4875
vn 0.3205 0.8822 0.3450
vn 0.5216 0.5752 0.6302
vn 0.7737 0.6017 0.1984
vn 0.5978 0.6276 -0.4988
vn 0.6410 0.7347 -0.2224
vn 0.5179 0.8412 -0.1555
vn 0.4448 0.6769 -0.5864
vn 0.0487 0.9120 -0.4073
vn -0.0299 0.4507 -0.8922
vn 0.3385 0.4576 -0.8222
vn 0.3759 0.5377 -0.7547
vn -0.0986 0.5380 -0.8371
vn -0.0306 0.8886 -0.4577
vn 0.6853 0.2074 0.6981
vn 0.5088 0.4480 0.7352
vn 0.5262 0.5813 0.6206
vn 0.8035 0.2088 0.5575
vn 0.8301 0.5279 0.1797
vn -0.5220 0.5470 -0.6544
vn -0.1119 0.7650 -0.6342
vn -0.1301 0.6409 -0.7565
vn -0.3919 0.4991 -0.7729
vn -0.4855 0.8358 -0.2564
vn -0.9074 0.3600 0.2167
vn -0.7668 0.6388 -0.0627
vn -0.8273 0.4061 -0.3882
vn -0.9947 0.0755 -0.0699
vn -0.5914 0.6724 0.4451
vn -0.6444 0.5059 0.5735
vn -0.7348 0.6042 0.3082
vn -0.6416 0.7325 0.2275
vn -0.4917 0.5804 0.6491
vn -0.0781 0.8805 0.4676
vn -0.7995 0.3010 -0.5198
vn -0.5859 0.4393 -0.6810
vn -0.5196 0.5906 -0.6175
vn -0.8517 0.3792 -0.3617
vn -0.6416 0.7576 -0.1201
vn 0.6896 0.6243 -0.3671
vn 0.6780 0.7295 -0.0905
vn 0.5382 0.8414 -0.0486
vn 0.5523 0.6766 -0.4870
vn 0.1312 0.9117 -0.3893
vn -0.1963 0.7758 -0.5997
vn 0.2220 0.8297 -0.5122
vn 0.0978 0.9797 -0.1750
vn -0.2934 0.9233 -0.2479
vn -0.2531 0.9379 0.2372
vn 0.9293 0.3633 0.0666
vn 0.7182 0.6818 0.1391
vn 0.6737 0.4977 0.5463
vn 0.7942 0.3108 0.5221
vn 0.8581 0.3743 -0.3515
vn 0.6295 0.7188 -0.2950
vn 0.8537 0.4847 -0.1904
vn 0.6182 0.7802 -0.0953
vn 0.6961 0.6403 0.3246
vn 0.8354 0.4684 0.2874
vn 0.4977 0.6343 -0.5916
vn 0.3521 -0.6071 0.7124
vn 0.0939 -0.5702 0.8161
vn -0.0344 -0.6636 0.7473
vn 0.0620 -0.9438 0.3246
vn -0.0956 -0.8849 0.4559
vn -0.3618 -0.6527 -0.6656
vn -0.2441 -0.8368 -0.4901
vn -0.3267 -0.8757 -0.3555
vn -0.7655 -0.6079 -0.2108
vn -0.6527 -0.7425 -0.1503
vn -0.5937 -0.6374 0.4911
vn -0.6348 -0.7370 0.2319
vn -0.5183 -0.8383 0.1692
vn -0.0655 -0.9100 0.4093
vn -0.1520 -0.9549 0.2552
vn 0.0207 -0.4610 0.8871
vn -0.3272 -0.4683 0.8208
vn -0.3600 -0.5385 0.7618
vn 0.0279 -0.8820 0.4705
vn -0.1955 -0.8395 0.5070
vn -0.6848 -0.2215 -0.6943
vn -0.5201 -0.4446 -0.7293
vn -0.5372 -0.5700 -0.6217
vn -0.8285 -0.5238 -0.1978
vn -0.7154 -0.6409 -0.2783
vn 0.1227 -0.7609 0.6372
vn 0.1395 -0.6421 0.7538
vn 0.3875 -0.5087 0.7688
vn 0.4830 -0.8326 0.2710
vn 0.3170 -0.8927 0.3204
vn 0.9216 -0.3649 -0.1323
vn 0.7751 -0.6296 0.0532
vn 0.8369 -0.4073 0.3657
vn 0.9925 -0.1001 0.0699
vn 0.6030 -0.6685 -0.4353
vn 0.5891 -0.7620 -0.2689
vn 0.6429 -0.5175 -0.5647
vn 0.7276 -0.6079 -0.3179
vn 0.6398 -0.7294 -0.2422
vn 0.0961 -0.8766 -0.4715
vn 0.2504 -0.9271 -0.2788
vn 0.7931 -0.3149 0.5214
vn 0.5951 -0.4422 0.6710
vn 0.5338 -0.5842 0.6114
vn 0.6484 -0.7490 0.1362
vn 0.5438 -0.7919 0.2777
vn -0.6850 -0.6327 0.3613
vn -0.6746 -0.7315 0.0994
vn -0.5409 -0.8390 0.0600
vn -0.1462 -0.9099 0.3881
vn -0.1998 -0.9548 0.2200
vn 0.1841 -0.7875 0.5881
vn -0.2030 -0.8376 0.5072
vn -0.0840 -0.9801 0.1797
vn 0.2002 -0.9241 0.3255
vn 0.2506 -0.9419 -0.2234
vn 0.0620 -0.9795 -0.1919
vn -0.8516 -0.4422 -0.2815
vn -0.7279 -0.6716 -0.1382
vn -0.6896 -0.4912 -0.5322
vn -0.7935 -0.3299 -0.5114
vn -0.8458 -0.4033 0.3493
vn -0.6810 -0.6502 0.3368
vn -0.8155 -0.5779 -0.0298
vn -0.6294 -0.7709 0.0979
vn -0.7098 -0.6340 -0.3069
vn -0.8291 -0.4868 -0.2750
vn -0.4796 -0.6887 0.5438
vn 0.0717 0.8336 -0.5477
vn 0.6970 0.0523 0.7152
vn 0.6874 0.0591 -0.7238
vn -0.6829 -0.0010 -0.7306
vn -0.6955 0.0151 0.7184
vn 0.7560 0.2097 0.6201
vn 0.4691 -0.7319 -0.4943
vn -0.7537 -0.2006 -0.6258
vn -0.4965 0.7015 0.5113
vn 0.5126 -0.4645 0.7222
vn 0.7282 -0.2754 -0.6276
vn -0.5177 0.4479 -0.7289
vn -0.7299 0.2716 0.6273
vn 0.5666 -0.1291 0.8138
vn 0.8147 0.2479 -0.5242
vn -0.5646 0.1172 -0.8170
vn -0.8113 -0.2651 0.5211
vn 0.5251 0.0564 0.8492
vn 0.7898 0.3298 -0.5171
vn -0.5382 -0.0094 -0.8428
vn -0.8066 -0.2875 0.5165
vn 0.4184 0.3665 0.8310
vn 0.7594 0.3000 -0.5773
vn -0.4189 -0.3562 -0.8353
vn -0.7907 -0.2452 0.5610
vn 0.5581 0.5054 0.6581
vn 0.8434 -0.5028 -0.1893
vn -0.5460 -0.4880 -0.6810
vn -0.8533 0.4827 0.1973
vn 0.0593 -0.0834 0.9948
vn 0.6248 -0.7140 -0.3158
vn -0.0458 0.1108 -0.9928
vn -0.5912 0.7338 0.3347
vn 0.0010 -0.8497 0.5273
vn 0.9777 -0.0019 0.2098
vn -0.0202 0.8688 -0.4947
vn -0.9809 0.0236 -0.1932
vn -0.2933 -0.2843 0.9128
vn 0.7504 0.5230 0.4043
vn 0.2432 0.3498 -0.9047
vn -0.7712 -0.4721 -0.4270
vn -0.6266 0.5849 0.5150
vn 0.9575 0.2812 0.0644
vn -0.3752 -0.6675 -0.6432
vn -0.3207 0.6129 0.7222
vn 0.4357 -0.4683 -0.7687
vn 0.0033 0.6836 0.7299
vn 0.4558 0.6842 -0.5693
vn -0.0747 -0.6692 -0.7393
vn -0.5187 -0.6683 0.5332
vn -0.4519 0.6596 0.6006
vn 0.0384 0.2392 -0.9702
vn 0.0944 -0.9299 0.3555
vn -0.3548 0.8738 0.3324
vn 0.4664 -0.6202 0.6308
vn 0.2073 -0.2819 -0.9368
vn 0.3854 0.6873 0.6157
vn -0.1732 -0.7140 -0.6784
vn -0.8921 -0.3562 -0.2780
vn -0.1384 0.9421 -0.3055
vn 0.1135 0.8851 -0.4514
vn 0.7839 0.5606 0.2668
vn 0.6512 0.7469 0.1340
vn 0.0706 0.8686 -0.4904
vn 0.1437 0.9600 -0.2403
vn -0.0334 0.8877 -0.4592
vn 0.2071 0.8437 -0.4953
vn 0.8730 0.4438 0.2021
vn 0.7060 0.6553 0.2687
vn -0.5532 0.7797 -0.2932
vn -0.3070 0.8996 -0.3105
vn -0.9245 0.3538 0.1422
vn -0.8062 0.5856 -0.0840
vn -0.6503 0.5901 0.4784
vn -0.5761 0.7730 0.2657
vn -0.0781 0.8765 0.4750
vn -0.2441 0.9336 0.2623
vn -0.7129 0.6940 -0.1007
vn -0.5270 0.8037 -0.2764
vn 0.1680 0.8695 -0.4645
vn 0.1899 0.9594 -0.2086
vn 0.0718 0.9625 -0.2617
vn -0.2137 0.9202 -0.3279
vn -0.3256 0.9279 0.1814
vn -0.0510 0.9777 0.2035
vn 0.8581 0.4307 0.2794
vn 0.7724 0.5639 0.2924
vn 0.8153 0.4399 -0.3766
vn 0.6698 0.6589 -0.3424
vn 0.8235 0.5667 0.0271
vn 0.7232 0.6889 0.0495
vn 0.6549 0.4973 -0.5691
vn 0.4656 0.6955 -0.5473
vn 0.3718 -0.7214 0.5842
vn 0.1280 -0.9382 0.3215
vn -0.5155 -0.5888 -0.6225
vn -0.7736 -0.5756 -0.2652
vn -0.4501 -0.6851 0.5727
vn -0.0838 -0.8745 0.4777
vn 0.0824 -0.5393 0.8381
vn 0.0191 -0.8847 0.4658
vn -0.7952 -0.2244 -0.5633
vn -0.8633 -0.4561 -0.2162
vn 0.5102 -0.5555 0.6566
vn 0.5399 -0.7856 0.3022
vn 0.9053 -0.3714 -0.2061
vn 0.8136 -0.5766 0.0743
vn 0.6535 -0.5981 -0.4639
vn 0.5009 -0.5884 -0.6348
vn 0.0960 -0.8804 -0.4644
vn 0.8415 -0.3891 0.3749
vn 0.7056 -0.6983 0.1209
vn -0.5544 -0.6838 0.4744
vn -0.1773 -0.8748 0.4509
vn -0.0582 -0.9623 0.2657
vn 0.2797 -0.9280 0.2461
vn 0.3119 -0.9336 -0.1763
vn -0.9240 -0.3761 -0.0695
vn -0.7809 -0.5522 -0.2922
vn -0.8128 -0.4519 0.3677
vn -0.6512 -0.6966 0.3013
vn -0.8470 -0.4976 0.1871
vn -0.7336 -0.6779 -0.0481
vn -0.6528 -0.5105 0.5596
vn -0.5062 -0.6378 0.5806
vt 0.224052 0.987941
vt 0.225025 0.987941
vt 0.224052 0.829171
vt 0.225025 0.829171
vt 0.229808 0.071394
vt 0.229495 0.063837
vt 0.229819 0.063921
vt 0.230057 0.071082
vt 0.230142 0.063837
vt 0.229819 0.063753
vt 0.229829 0.072002
vt 0.230102 0.076000
vt 0.229580 0.072314
vt 0.230323 0.074661
vt 0.230396 0.076325
vt 0.229850 0.081921
vt 0.230372 0.082677
vt 0.230617 0.074986
vt 0.230148 0.082711
vt 0.229604 0.094390
vt 0.230074 0.081887
vt 0.229938 0.094514
vt 0.229396 0.093626
vt 0.229404 0.104276
vt 0.229688 0.103827
vt 0.229731 0.093750
vt 0.229517 0.103167
vt 0.229524 0.108276
vt 0.229233 0.103617
vt 0.229775 0.107262
vt 0.229394 0.108541
vt 0.230069 0.113337
vt 0.230106 0.111895
vt 0.230365 0.112893
vt 0.229646 0.107526
vt 0.230079 0.115430
vt 0.230402 0.111452
vt 0.230107 0.114519
vt 0.230339 0.116512
vt 0.229321 0.118613
vt 0.229520 0.119684
vt 0.230367 0.115602
vt 0.229618 0.119267
vt 0.229257 0.124928
vt 0.229420 0.118196
vt 0.229412 0.124742
vt 0.229488 0.124075
vt 0.230060 0.129261
vt 0.229333 0.124261
vt 0.230199 0.128613
vt 0.230153 0.128920
vt 0.216189 0.181316
vt 0.216212 0.178352
vt 0.216129 0.178816
vt 0.216127 0.181051
vt 0.216093 0.178121
vt 0.216213 0.169196
vt 0.216361 0.170368
vt 0.216119 0.168425
vt 0.216516 0.170372
vt 0.216336 0.168425
vt 0.216439 0.169776
vt 0.216242 0.167653
vt 0.216542 0.170034
vt 0.216438 0.170964
vt 0.216568 0.169212
vt 0.216456 0.169486
vt 0.216334 0.156662
vt 0.216421 0.159029
vt 0.216445 0.155986
vt 0.216339 0.158827
vt 0.216231 0.155986
vt 0.216395 0.158421
vt 0.216343 0.155310
vt 0.216465 0.158349
vt 0.216412 0.157964
vt 0.217058 0.186430
vt 0.217526 0.181321
vt 0.216972 0.185006
vt 0.217339 0.184070
vt 0.217101 0.185956
vt 0.216754 0.186850
vt 0.216534 0.187776
vt 0.216681 0.187453
vt 0.215713 0.185488
vt 0.215270 0.185202
vt 0.215312 0.182777
vt 0.215910 0.187335
vt 0.216102 0.187091
vt 0.215537 0.182760
vt 0.215964 0.183023
vt 0.216208 0.184979
vt 0.216212 0.181009
vt 0.216111 0.177176
vt 0.216598 0.178256
vt 0.215718 0.180735
vt 0.215765 0.182007
vt 0.216598 0.179652
vt 0.216342 0.180886
vt 0.215986 0.181909
vt 0.216567 0.179201
vt 0.216882 0.174897
vt 0.216693 0.177386
vt 0.216532 0.177453
vt 0.216367 0.179444
vt 0.216517 0.179360
vt 0.216212 0.180557
vt 0.216144 0.180880
vt 0.215598 0.179335
vt 0.215072 0.176588
vt 0.215527 0.175850
vt 0.215422 0.180828
vt 0.215669 0.181719
vt 0.215770 0.177002
vt 0.216054 0.178975
vt 0.216010 0.181003
vt 0.217397 0.174071
vt 0.217569 0.170409
vt 0.217268 0.172192
vt 0.217509 0.174209
vt 0.217212 0.175797
vt 0.218028 0.169401
vt 0.216858 0.174123
vt 0.216835 0.175683
vt 0.216980 0.170391
vt 0.216891 0.166557
vt 0.216645 0.168058
vt 0.217517 0.171221
vt 0.217237 0.172479
vt 0.217601 0.166523
vt 0.217293 0.168679
vt 0.216558 0.170164
vt 0.216812 0.172068
vt 0.216326 0.169471
vt 0.216363 0.165035
vt 0.215963 0.166744
vt 0.216765 0.168859
vt 0.216748 0.170407
vt 0.215989 0.168407
vt 0.216295 0.169747
vt 0.216573 0.170669
vt 0.216769 0.168461
vt 0.217203 0.164232
vt 0.216654 0.165629
vt 0.217090 0.168351
vt 0.216878 0.169899
vt 0.216464 0.167317
vt 0.216324 0.169230
vt 0.216502 0.170344
vt 0.216377 0.158120
vt 0.216114 0.153684
vt 0.216789 0.154982
vt 0.215769 0.157826
vt 0.215891 0.159284
vt 0.216857 0.156584
vt 0.216642 0.157999
vt 0.216229 0.159172
vt 0.217330 0.158857
vt 0.217783 0.156559
vt 0.217302 0.158053
vt 0.217066 0.159125
vt 0.216911 0.159749
vt 0.216714 0.159651
vt 0.216937 0.158591
vt 0.216493 0.158399
vt 0.216397 0.158896
vt 0.215639 0.167533
vt 0.215402 0.163527
vt 0.215784 0.164171
vt 0.215258 0.169915
vt 0.215647 0.170256
vt 0.214858 0.165622
vt 0.215245 0.166869
vt 0.216137 0.165699
vt 0.216115 0.167244
vt 0.216077 0.168390
vt 0.215744 0.159233
vt 0.215529 0.155846
vt 0.215884 0.156133
vt 0.215331 0.161428
vt 0.215698 0.161455
vt 0.214943 0.157829
vt 0.215356 0.158854
vt 0.216078 0.159382
vt 0.216175 0.157208
vt 0.217056 0.186366
vt 0.215715 0.185448
vt 0.216209 0.180951
vt 0.216561 0.179169
vt 0.215600 0.179301
vt 0.217395 0.174016
vt 0.216981 0.170358
vt 0.217292 0.168659
vt 0.216330 0.169419
vt 0.216767 0.168415
vt 0.216374 0.158059
vt 0.217327 0.158808
vt 0.216910 0.159694
vt 0.215638 0.167502
vt 0.215248 0.166844
vt 0.216113 0.167214
vt 0.215742 0.159197
vt 0.215357 0.158821
s 0
usemtl Texture_Map
f 4/1/1 6/2/1 5/2/1
f 1/3/2 5/2/2 2/4/2
f 2/4/3 6/2/3 3/4/3
f 3/4/4 4/1/4 1/3/4
f 11/5/5 10/6/5 7/7/5
f 12/8/6 7/7/6 8/9/6
f 9/10/7 12/8/7 8/9/7
f 10/6/8 13/11/8 9/10/8
f 11/5/9 18/12/9 14/13/9
f 12/8/10 15/14/10 11/5/10
f 17/15/11 12/8/11 13/11/11
f 18/12/12 13/11/12 14/13/12
f 15/14/13 22/16/13 18/12/13
f 20/17/14 15/14/14 16/18/14
f 21/19/15 16/18/15 17/15/15
f 18/12/16 21/19/16 17/15/16
f 23/20/17 22/16/17 19/21/17
f 20/17/18 23/20/18 19/21/18
f 21/19/19 24/22/19 20/17/19
f 26/23/20 21/19/20 22/16/20
f 27/24/21 26/23/21 23/20/21
f 28/25/22 23/20/22 24/22/22
f 25/26/23 28/25/23 24/22/23
f 26/23/24 29/27/24 25/26/24
f 31/28/25 30/29/25 27/24/25
f 28/25/26 31/28/26 27/24/26
f 29/27/27 32/30/27 28/25/27
f 34/31/28 29/27/28 30/29/28
f 31/28/29 38/32/29 34/31/29
f 32/30/30 35/33/30 31/28/30
f 37/34/31 32/30/31 33/35/31
f 38/32/32 33/35/32 34/31/32
f 35/33/33 42/36/33 38/32/33
f 36/37/34 39/38/34 35/33/34
f 41/39/35 36/37/35 37/34/35
f 42/36/36 37/34/36 38/32/36
f 43/40/37 42/36/37 39/38/37
f 44/41/38 39/38/38 40/42/38
f 41/39/39 44/41/39 40/42/39
f 42/36/40 45/43/40 41/39/40
f 47/44/41 46/45/41 43/40/41
f 48/46/42 43/40/42 44/41/42
f 45/43/43 48/46/43 44/41/43
f 46/45/44 49/47/44 45/43/44
f 51/48/45 50/49/45 47/44/45
f 48/46/46 51/48/46 47/44/46
f 49/47/47 52/50/47 48/46/47
f 53/51/48 49/47/48 50/49/48
f 57/52/49 56/53/49 54/54/49
f 58/55/50 54/54/50 55/56/50
f 56/53/51 58/55/51 55/56/51
f 59/57/52 66/58/52 62/59/52
f 64/60/53 59/57/53 60/61/53
f 65/62/54 60/61/54 61/63/54
f 62/59/55 65/62/55 61/63/55
f 67/64/56 66/58/56 63/65/56
f 64/60/57 67/64/57 63/65/57
f 65/62/58 68/66/58 64/60/58
f 69/67/59 65/62/59 66/58/59
f 70/68/60 74/69/60 73/70/60
f 75/71/61 70/68/61 71/72/61
f 76/73/62 71/72/62 72/74/62
f 73/70/63 76/73/63 72/74/63
f 75/71/64 77/75/64 74/69/64
f 76/73/65 78/76/65 75/71/65
f 77/75/66 76/73/66 74/69/66
f 86/77/67 81/78/67 83/79/67
f 82/80/68 81/78/68 86/77/68
f 82/80/69 86/77/69 84/81/69
f 86/77/70 83/79/70 85/82/70
f 86/77/71 80/83/71 79/84/71
f 94/85/72 89/86/72 91/87/72
f 90/88/73 89/86/73 94/85/73
f 90/88/74 94/85/74 92/89/74
f 94/85/75 91/87/75 93/90/75
f 94/85/76 88/91/76 87/92/76
f 102/93/77 97/94/77 99/95/77
f 98/96/78 97/94/78 102/93/78
f 98/96/79 102/93/79 100/97/79
f 102/93/80 99/95/80 101/98/80
f 102/93/81 96/99/81 95/100/81
f 110/101/82 105/102/82 107/103/82
f 106/104/83 105/102/83 110/101/83
f 106/104/84 110/101/84 108/105/84
f 110/101/85 107/103/85 109/106/85
f 110/101/86 104/107/86 103/108/86
f 118/109/87 113/110/87 115/111/87
f 114/112/88 113/110/88 118/109/88
f 114/112/89 118/109/89 116/113/89
f 118/109/90 115/111/90 117/114/90
f 118/109/91 112/115/91 111/116/91
f 119/117/92 122/118/92 120/119/92
f 123/120/93 119/117/93 121/121/93
f 123/120/94 124/122/94 119/117/94
f 119/117/95 124/122/95 122/118/95
f 119/117/96 125/123/96 126/124/96
f 127/125/97 131/126/97 128/127/97
f 132/128/98 127/125/98 129/129/98
f 132/128/99 133/130/99 130/131/99
f 130/131/100 133/130/100 131/126/100
f 127/125/101 134/132/101 135/133/101
f 143/134/102 138/135/102 140/136/102
f 139/137/103 138/135/103 143/134/103
f 139/137/104 143/134/104 141/138/104
f 143/134/105 140/136/105 142/139/105
f 143/134/106 137/140/106 136/141/106
f 151/142/107 146/143/107 148/144/107
f 147/145/108 146/143/108 151/142/108
f 147/145/109 151/142/109 149/146/109
f 151/142/110 148/144/110 150/147/110
f 151/142/111 145/148/111 144/149/111
f 159/150/112 154/151/112 156/152/112
f 155/153/113 154/151/113 159/150/113
f 155/153/114 159/150/114 157/154/114
f 159/150/115 156/152/115 158/155/115
f 159/150/116 153/156/116 152/157/116
f 165/158/117 162/159/117 164/160/117
f 163/161/118 162/159/118 165/158/118
f 163/161/119 168/162/119 166/163/119
f 168/162/120 164/160/120 167/164/120
f 168/162/121 161/165/121 160/166/121
f 169/167/122 173/168/122 170/169/122
f 174/170/123 169/167/123 171/171/123
f 174/170/124 175/172/124 172/173/124
f 172/173/125 175/172/125 173/168/125
f 169/167/126 177/174/126 176/175/126
f 178/176/127 169/167/127 176/175/127
f 179/177/128 183/178/128 180/179/128
f 184/180/129 179/177/129 181/181/129
f 184/180/130 185/182/130 182/183/130
f 182/183/131 185/182/131 183/178/131
f 187/184/132 179/177/132 186/185/132
f 188/186/133 83/79/133 81/78/133
f 82/80/134 188/186/134 81/78/134
f 188/186/135 82/80/135 84/81/135
f 80/83/136 188/186/136 79/84/136
f 79/84/137 188/186/137 84/81/137
f 189/187/138 91/87/138 89/86/138
f 90/88/139 189/187/139 89/86/139
f 189/187/140 90/88/140 92/89/140
f 88/91/141 189/187/141 87/92/141
f 87/92/142 189/187/142 92/89/142
f 190/188/143 99/95/143 97/94/143
f 98/96/144 190/188/144 97/94/144
f 190/188/145 98/96/145 100/97/145
f 96/99/146 190/188/146 95/100/146
f 95/100/147 190/188/147 100/97/147
f 191/189/148 107/103/148 105/102/148
f 106/104/149 191/189/149 105/102/149
f 191/189/150 106/104/150 108/105/150
f 104/107/151 191/189/151 103/108/151
f 103/108/152 191/189/152 108/105/152
f 192/190/153 115/111/153 113/110/153
f 114/112/154 192/190/154 113/110/154
f 192/190/155 114/112/155 116/113/155
f 112/115/156 192/190/156 111/116/156
f 111/116/157 192/190/157 116/113/157
f 193/191/158 123/120/158 121/121/158
f 123/120/159 193/191/159 124/122/159
f 193/191/160 122/118/160 124/122/160
f 125/123/161 193/191/161 126/124/161
f 126/124/162 193/191/162 121/121/162
f 194/192/163 131/126/163 195/193/163
f 194/192/164 132/128/164 129/129/164
f 132/128/165 195/193/165 133/130/165
f 195/193/166 131/126/166 133/130/166
f 134/132/167 194/192/167 135/133/167
f 135/133/168 194/192/168 129/129/168
f 196/194/169 140/136/169 138/135/169
f 139/137/170 196/194/170 138/135/170
f 196/194/171 139/137/171 141/138/171
f 137/140/172 196/194/172 136/141/172
f 136/141/173 196/194/173 141/138/173
f 197/195/174 148/144/174 146/143/174
f 147/145/175 197/195/175 146/143/175
f 197/195/176 147/145/176 149/146/176
f 145/148/177 197/195/177 144/149/177
f 144/149/178 197/195/178 149/146/178
f 198/196/179 156/152/179 154/151/179
f 155/153/180 198/196/180 154/151/180
f 198/196/181 155/153/181 157/154/181
f 153/156/182 198/196/182 152/157/182
f 152/157/183 198/196/183 157/154/183
f 199/197/184 164/160/184 162/159/184
f 163/161/185 199/197/185 162/159/185
f 200/198/186 163/161/186 166/163/186
f 200/198/187 164/160/187 199/197/187
f 161/165/188 200/198/188 160/166/188
f 160/166/189 200/198/189 166/163/189
f 201/199/190 173/168/190 202/200/190
f 201/199/191 174/170/191 171/171/191
f 174/170/192 202/200/192 175/172/192
f 202/200/193 173/168/193 175/172/193
f 177/174/194 201/199/194 203/201/194
f 178/176/195 201/199/195 171/171/195
f 204/202/196 183/178/196 205/203/196
f 204/202/197 184/180/197 181/181/197
f 184/180/198 205/203/198 185/182/198
f 205/203/199 183/178/199 185/182/199
f 187/184/200 204/202/200 181/181/200
f 51/48/201 52/50/201 53/51/201
f 1/3/2 4/1/2 5/2/2
f 2/4/3 5/2/3 6/2/3
f 3/4/4 6/2/4 4/1/4
f 11/5/202 14/13/202 10/6/202
f 12/8/203 11/5/203 7/7/203
f 9/10/204 13/11/204 12/8/204
f 10/6/205 14/13/205 13/11/205
f 11/5/206 15/14/206 18/12/206
f 12/8/207 16/18/207 15/14/207
f 17/15/208 16/18/208 12/8/208
f 18/12/209 17/15/209 13/11/209
f 15/14/210 19/21/210 22/16/210
f 20/17/211 19/21/211 15/14/211
f 21/19/212 20/17/212 16/18/212
f 18/12/213 22/16/213 21/19/213
f 23/20/214 26/23/214 22/16/214
f 20/17/215 24/22/215 23/20/215
f 21/19/216 25/26/216 24/22/216
f 26/23/217 25/26/217 21/19/217
f 27/24/218 30/29/218 26/23/218
f 28/25/219 27/24/219 23/20/219
f 25/26/220 29/27/220 28/25/220
f 26/23/221 30/29/221 29/27/221
f 31/28/222 34/31/222 30/29/222
f 28/25/223 32/30/223 31/28/223
f 29/27/224 33/35/224 32/30/224
f 34/31/225 33/35/225 29/27/225
f 31/28/226 35/33/226 38/32/226
f 32/30/227 36/37/227 35/33/227
f 37/34/228 36/37/228 32/30/228
f 38/32/229 37/34/229 33/35/229
f 35/33/230 39/38/230 42/36/230
f 36/37/231 40/42/231 39/38/231
f 41/39/232 40/42/232 36/37/232
f 42/36/233 41/39/233 37/34/233
f 43/40/234 46/45/234 42/36/234
f 44/41/235 43/40/235 39/38/235
f 41/39/236 45/43/236 44/41/236
f 42/36/237 46/45/237 45/43/237
f 47/44/238 50/49/238 46/45/238
f 48/46/239 47/44/239 43/40/239
f 45/43/240 49/47/240 48/46/240
f 46/45/241 50/49/241 49/47/241
f 51/48/242 53/51/242 50/49/242
f 48/46/243 52/50/243 51/48/243
f 53/51/244 52/50/244 49/47/244
f 58/55/245 57/52/245 54/54/245
f 56/53/246 57/52/246 58/55/246
f 59/57/247 63/65/247 66/58/247
f 64/60/248 63/65/248 59/57/248
f 65/62/249 64/60/249 60/61/249
f 62/59/250 66/58/250 65/62/250
f 67/64/251 69/67/251 66/58/251
f 64/60/252 68/66/252 67/64/252
f 69/67/253 68/66/253 65/62/253
f 75/71/254 74/69/254 70/68/254
f 76/73/255 75/71/255 71/72/255
f 73/70/256 74/69/256 76/73/256
f 75/71/257 78/76/257 77/75/257
f 77/75/258 78/76/258 76/73/258
f 69/67/259 67/64/259 68/66/259
f 86/77/260 85/82/260 80/83/260
f 79/84/261 84/81/261 86/77/261
f 94/85/262 93/90/262 88/91/262
f 87/92/263 92/89/263 94/85/263
f 102/93/264 101/98/264 96/99/264
f 95/100/265 100/97/265 102/93/265
f 110/101/266 109/106/266 104/107/266
f 103/108/267 108/105/267 110/101/267
f 118/109/268 117/114/268 112/115/268
f 111/116/269 116/113/269 118/109/269
f 119/117/270 120/119/270 125/123/270
f 126/124/271 121/121/271 119/117/271
f 127/125/272 130/131/272 131/126/272
f 132/128/273 130/131/273 127/125/273
f 127/125/274 128/127/274 134/132/274
f 135/133/275 129/129/275 127/125/275
f 143/134/276 142/139/276 137/140/276
f 136/141/277 141/138/277 143/134/277
f 151/142/278 150/147/278 145/148/278
f 144/149/279 149/146/279 151/142/279
f 159/150/280 158/155/280 153/156/280
f 152/157/281 157/154/281 159/150/281
f 163/161/282 165/158/282 168/162/282
f 168/162/283 165/158/283 164/160/283
f 168/162/284 167/164/284 161/165/284
f 160/166/285 166/163/285 168/162/285
f 169/167/286 172/173/286 173/168/286
f 174/170/287 172/173/287 169/167/287
f 169/167/288 170/169/288 177/174/288
f 178/176/289 171/171/289 169/167/289
f 179/177/290 182/183/290 183/178/290
f 184/180/291 182/183/291 179/177/291
f 179/177/292 180/179/292 186/185/292
f 187/184/293 181/181/293 179/177/293
f 188/186/294 85/82/294 83/79/294
f 80/83/295 85/82/295 188/186/295
f 189/187/296 93/90/296 91/87/296
f 88/91/297 93/90/297 189/187/297
f 190/188/298 101/98/298 99/95/298
f 96/99/299 101/98/299 190/188/299
f 191/189/300 109/106/300 107/103/300
f 104/107/301 109/106/301 191/189/301
f 192/190/302 117/114/302 115/111/302
f 112/115/303 117/114/303 192/190/303
f 193/191/304 120/119/304 122/118/304
f 125/123/305 120/119/305 193/191/305
f 194/192/306 128/127/306 131/126/306
f 194/192/307 195/193/307 132/128/307
f 134/132/308 128/127/308 194/192/308
f 196/194/309 142/139/309 140/136/309
f 137/140/310 142/139/310 196/194/310
f 197/195/311 150/147/311 148/144/311
f 145/148/312 150/147/312 197/195/312
f 198/196/313 158/155/313 156/152/313
f 153/156/314 158/155/314 198/196/314
f 200/198/315 199/197/315 163/161/315
f 200/198/316 167/164/316 164/160/316
f 161/165/317 167/164/317 200/198/317
f 201/199/318 170/169/318 173/168/318
f 201/199/319 202/200/319 174/170/319
f 177/174/320 170/169/320 201/199/320
f 178/176/321 203/201/321 201/199/321
f 204/202/322 180/179/322 183/178/322
f 204/202/323 205/203/323 184/180/323
f 186/185/324 180/179/324 204/202/324
f 187/184/325 186/185/325 204/202/325
