# Blender 4.4.0
# www.blender.org
mtllib Crop_Carrot_03.mtl
o Crop_Carrot_03
v 0.013873 0.139370 -0.026498
v -0.016650 0.139370 -0.026498
v -0.032146 0.139287 -0.000125
v -0.016768 0.139287 0.026512
v 0.013990 0.139286 0.026512
v 0.029369 0.139286 -0.000125
v 0.011984 0.042042 -0.027384
v -0.019669 0.042042 -0.027384
v -0.035515 0.042026 0.000023
v -0.019679 0.042026 0.027453
v 0.011994 0.042026 0.027453
v 0.027831 0.042026 0.000023
v 0.015729 -0.069422 -0.022328
v -0.009824 -0.073117 -0.022328
v -0.022601 -0.074964 0.000032
v -0.009824 -0.073117 0.022391
v 0.015729 -0.069422 0.022391
v 0.028506 -0.067574 0.000032
v 0.000538 -0.224978 -0.003350
v -0.003367 -0.224978 -0.003350
v -0.005319 -0.224978 0.000032
v -0.003367 -0.224978 0.003413
v 0.000538 -0.224978 0.003413
v 0.002490 -0.224978 0.000032
v -0.011002 -0.155584 0.000032
v -0.002267 -0.155953 0.015175
v 0.015204 -0.156693 -0.015112
v -0.002267 -0.155953 -0.015112
v 0.023940 -0.157063 0.000032
v 0.015204 -0.156693 0.015175
v 0.017011 0.150231 -0.000159
v 0.035461 0.120938 -0.000051
v 0.007831 0.150231 0.015741
v 0.017016 0.120939 0.031896
v -0.010529 0.150231 0.015741
v -0.019873 0.120940 0.031896
v -0.019709 0.150231 -0.000159
v -0.038317 0.120940 -0.000051
v 0.007777 0.150231 -0.015920
v 0.016912 0.121105 -0.031773
v -0.010475 0.150231 -0.015920
v -0.019769 0.121105 -0.031773
v -0.004930 0.163717 -0.003045
v -0.001411 0.115875 0.000126
v 0.001949 0.163705 -0.003045
v -0.001234 0.163709 0.000138
v 0.001949 0.163705 0.003321
v 0.010757 0.218109 -0.006156
v 0.004454 0.218389 0.000153
v 0.010757 0.218109 0.006462
v 0.039027 0.268717 -0.006426
v 0.031726 0.269032 0.000881
v 0.039027 0.268717 0.008188
v -0.008107 0.163512 0.000138
v -0.004930 0.163717 0.003321
v -0.011021 0.204169 -0.006156
v -0.017325 0.203962 0.000153
v -0.011021 0.204169 0.006462
v -0.036452 0.245054 -0.006426
v -0.043757 0.244887 0.000881
v -0.036452 0.245054 0.008188
v 0.001908 0.163114 -0.004769
v -0.001192 0.162627 -0.007998
v -0.004457 0.163099 -0.004934
v 0.005215 0.216692 -0.018398
v -0.000927 0.215997 -0.024830
v -0.007398 0.216664 -0.018724
v 0.006290 0.265160 -0.051382
v -0.000825 0.264344 -0.058831
v -0.008319 0.265127 -0.051760
v -0.004723 0.163114 0.005018
v -0.001607 0.162627 0.008231
v 0.001642 0.163099 0.005151
v -0.008406 0.216692 0.009344
v -0.002232 0.215997 0.015746
v 0.004208 0.216664 0.009608
v -0.009001 0.286471 0.031861
v -0.001849 0.285655 0.039276
v 0.005610 0.286438 0.032168
vn 0.6187 0.6997 0.3572
vn -0.0000 -0.0554 -0.9985
vn -0.6167 0.7020 0.3561
vn -0.6168 0.6998 -0.3602
vn -0.0000 1.0000 -0.0000
vn 0.8628 -0.0815 -0.4989
vn -0.0000 -0.0562 0.9984
vn -0.8653 -0.0312 -0.5003
vn -0.0000 0.7014 0.7127
vn 0.8630 -0.0830 0.4983
vn -0.8656 -0.0303 0.4998
vn -0.0000 -0.0454 0.9990
vn -0.8609 -0.0951 -0.4998
vn 0.8660 0.0054 0.5000
vn -0.8621 -0.0957 0.4977
vn 0.0063 -0.0433 -0.9990
vn 0.8680 0.0066 -0.4965
vn -0.8648 -0.0709 0.4971
vn -0.0000 -0.1680 -0.9858
vn 0.8356 -0.2626 -0.4825
vn -0.0071 -0.1683 0.9857
vn -0.8639 -0.0707 -0.4987
vn 0.8690 -0.0443 0.4929
vn -0.8609 -0.1238 -0.4935
vn 0.0119 -0.0825 0.9965
vn 0.8648 -0.0465 -0.5000
vn -0.0037 -0.0871 -0.9962
vn -0.8574 -0.1218 0.5000
vn 0.6173 0.6987 -0.3617
vn 0.8329 -0.2631 0.4869
vn -0.0000 -1.0000 -0.0000
vn 0.8318 0.2782 0.4803
vn -0.8310 0.2814 0.4798
vn -0.8301 0.2772 -0.4839
vn -0.0000 0.2774 -0.9607
vn 0.8285 0.2782 -0.4859
vn -0.0000 0.2816 0.9595
vn -0.0000 0.6977 -0.7164
vn 0.9871 -0.1598 -0.0000
vn -0.7012 -0.0984 -0.7061
vn -0.7071 0.0028 -0.7071
vn -0.7071 0.0024 0.7071
vn 0.8730 -0.4877 -0.0000
vn 0.9889 0.1489 -0.0000
vn -0.7051 0.0735 -0.7052
vn -0.7052 0.0732 0.7053
vn 0.0430 0.9991 -0.0000
vn -0.6518 0.3606 -0.6672
vn -0.6566 0.3440 0.6712
vn 0.9975 -0.0701 -0.0000
vn -0.7012 -0.0987 0.7061
vn 0.8491 0.5282 -0.0000
vn -0.6938 -0.1585 -0.7025
vn -0.6937 -0.1590 0.7025
vn -0.0228 0.9997 -0.0000
vn -0.6408 -0.4029 -0.6535
vn -0.6343 -0.4219 0.6477
vn 0.9973 0.0734 -0.0000
vn 0.7251 -0.1212 -0.6779
vn -0.0256 0.2479 0.9684
vn -0.6885 -0.1210 -0.7150
vn -0.0226 0.5628 0.8263
vn 0.7207 -0.2124 -0.6600
vn -0.6845 -0.2168 -0.6960
vn 0.0006 0.9940 -0.1094
vn 0.6774 -0.4241 -0.6011
vn -0.6396 -0.4413 -0.6295
vn -0.0259 0.1048 0.9942
vn -0.7217 -0.1212 0.6815
vn 0.0211 0.0819 -0.9964
vn 0.6920 -0.1205 0.7118
vn 0.0207 0.3072 -0.9514
vn -0.7219 -0.1048 0.6841
vn 0.6919 -0.0927 0.7160
vn -0.0001 0.9940 0.1094
vn -0.7140 -0.2205 0.6645
vn 0.6830 -0.2371 0.6909
vn 0.0211 0.1045 -0.9943
vn -0.6153 0.7010 -0.3605
vn 0.8600 -0.0836 -0.5033
vn -0.8628 -0.0291 -0.5046
vn 0.0063 -0.0434 0.9990
vn -0.8617 -0.0955 -0.4983
vn 0.8680 0.0065 0.4965
vn -0.8609 -0.0950 0.4998
vn -0.0000 -0.0453 -0.9990
vn 0.8657 0.0053 -0.5005
vn -0.8639 -0.0707 0.4987
vn -0.0071 -0.1683 -0.9857
vn 0.8329 -0.2631 -0.4869
vn -0.0000 -0.1680 0.9858
vn -0.8648 -0.0709 -0.4971
vn 0.8648 -0.0465 0.5000
vn -0.8574 -0.1218 -0.5000
vn -0.0037 -0.0871 0.9962
vn 0.8690 -0.0443 -0.4929
vn 0.0119 -0.0825 -0.9965
vn -0.8609 -0.1238 0.4935
vn 0.6188 0.6975 -0.3614
vn 0.8356 -0.2626 0.4825
vn 0.8318 0.2781 0.4803
vn -0.8277 0.2815 -0.4854
vn -0.0000 0.2775 -0.9607
vn 0.8308 0.2739 -0.4844
vn -0.7039 0.0736 -0.7065
vn -0.7039 0.0732 0.7065
vn -0.6520 0.3607 -0.6669
vn -0.6568 0.3440 0.6710
vn -0.6958 -0.1583 -0.7005
vn -0.6958 -0.1588 0.7005
vn -0.6425 -0.4034 -0.6515
vn -0.6362 -0.4224 0.6457
vn 0.7181 -0.2126 -0.6627
vn -0.6818 -0.2170 -0.6987
vn 0.6777 -0.4240 -0.6008
vn -0.6399 -0.4412 -0.6292
vn -0.7215 -0.1049 0.6844
vn 0.6920 -0.0927 0.7160
vn -0.7141 -0.2205 0.6644
vn 0.6831 -0.2371 0.6908
vt 0.571463 0.051007
vt 0.572996 0.049949
vt 0.573000 0.051007
vt 0.576055 0.048192
vt 0.575631 0.040549
vt 0.572996 0.049949
vt 0.570422 0.049949
vt 0.575546 0.049957
vt 0.574523 0.051007
vt 0.572982 0.040548
vt 0.570331 0.040548
vt 0.569901 0.048176
vt 0.572989 0.048176
vt 0.570422 0.049949
vt 0.569901 0.048176
vt 0.570820 0.029775
vt 0.575143 0.029418
vt 0.572981 0.029240
vt 0.572981 0.029954
vt 0.570820 0.029418
vt 0.575143 0.029775
vt 0.572981 0.021447
vt 0.572654 0.014739
vt 0.571517 0.021411
vt 0.574445 0.021411
vt 0.573308 0.014739
vt 0.574445 0.021340
vt 0.572981 0.014739
vt 0.571517 0.021340
vt 0.572981 0.021304
vt 0.575546 0.049957
vt 0.572989 0.048176
vt 0.232640 0.122808
vt 0.232531 0.096754
vt 0.232604 0.096754
vt 0.232568 0.073849
vt 0.232568 0.096662
vt 0.232604 0.096760
vt 0.232568 0.096756
vt 0.232643 0.147043
vt 0.232495 0.122808
vt 0.232640 0.116132
vt 0.232531 0.096760
vt 0.232567 0.122942
vt 0.232476 0.147043
vt 0.232559 0.147193
vt 0.232643 0.135711
vt 0.232495 0.116132
vt 0.232476 0.135711
vt 0.232559 0.135631
vt 0.232567 0.116033
vt 0.232661 0.096238
vt 0.232624 0.096471
vt 0.232779 0.122129
vt 0.232626 0.096464
vt 0.233156 0.145339
vt 0.232783 0.122115
vt 0.233161 0.145324
vt 0.233241 0.144949
vt 0.232853 0.121796
vt 0.232475 0.096238
vt 0.232512 0.096471
vt 0.232459 0.122115
vt 0.232510 0.096464
vt 0.232205 0.155545
vt 0.232462 0.122129
vt 0.232389 0.121796
vt 0.232202 0.155529
vt 0.232120 0.155154
s 0
usemtl Texture_Map
f 33/1/1 6/2/1 31/3/1
f 42/4/2 7/5/2 8/5/2
f 35/1/3 3/6/3 4/7/3
f 37/3/4 2/8/4 3/6/4
f 33/1/5 31/3/5 39/9/5
f 40/4/6 12/10/6 7/5/6
f 11/11/7 36/12/7 10/11/7
f 38/13/8 8/5/8 9/10/8
f 35/1/9 5/14/9 33/1/9
f 12/10/10 34/15/10 11/11/10
f 10/11/11 38/13/11 9/10/11
f 10/11/12 17/16/12 11/11/12
f 9/10/13 14/17/13 15/18/13
f 11/11/14 18/19/14 12/10/14
f 9/10/15 16/20/15 10/11/15
f 8/5/16 13/21/16 14/17/16
f 7/5/17 18/19/17 13/21/17
f 25/22/18 22/23/18 26/24/18
f 28/25/19 19/26/19 20/26/19
f 27/27/20 24/28/20 19/26/20
f 26/24/21 23/23/21 30/29/21
f 25/22/22 20/26/22 21/28/22
f 17/16/23 29/30/23 18/19/23
f 15/18/24 28/25/24 25/22/24
f 16/20/25 30/29/25 17/16/25
f 13/21/26 29/30/26 27/27/26
f 14/17/27 27/27/27 28/25/27
f 15/18/28 26/24/28 16/20/28
f 31/3/29 1/31/29 39/9/29
f 30/29/30 24/28/30 29/30/30
f 23/23/31 22/23/31 21/28/31
f 5/14/32 32/32/32 6/2/32
f 4/7/33 38/13/33 36/12/33
f 3/6/34 42/4/34 38/13/34
f 2/8/35 40/4/35 42/4/35
f 6/2/36 40/4/36 1/31/36
f 4/7/37 34/15/37 5/14/37
f 41/9/38 1/31/38 2/8/38
f 48/33/39 47/34/39 45/35/39
f 44/36/40 54/37/40 43/38/40
f 44/36/41 46/39/41 45/35/41
f 44/36/42 47/34/42 46/39/42
f 51/40/43 50/41/43 48/33/43
f 56/42/44 55/43/44 43/38/44
f 49/44/45 45/35/45 46/39/45
f 47/34/46 49/44/46 46/39/46
f 53/45/47 51/40/47 52/46/47
f 52/46/48 48/33/48 49/44/48
f 50/41/49 52/46/49 49/44/49
f 44/36/50 45/35/50 47/34/50
f 44/36/51 55/43/51 54/37/51
f 59/47/52 58/48/52 56/42/52
f 54/37/53 56/42/53 43/38/53
f 58/48/54 54/37/54 55/43/54
f 61/49/55 59/47/55 60/50/55
f 57/51/56 59/47/56 56/42/56
f 61/49/57 57/51/57 58/48/57
f 44/36/58 43/38/58 55/43/58
f 44/36/59 63/52/59 62/53/59
f 65/54/60 64/55/60 62/53/60
f 44/36/61 64/55/61 63/52/61
f 68/56/62 67/57/62 65/54/62
f 63/52/63 65/54/63 62/53/63
f 67/57/64 63/52/64 64/55/64
f 70/58/65 68/56/65 69/59/65
f 66/60/66 68/56/66 65/54/66
f 70/58/67 66/60/67 67/57/67
f 44/36/68 62/53/68 64/55/68
f 44/36/69 72/61/69 71/62/69
f 71/62/70 76/63/70 73/64/70
f 44/36/71 73/64/71 72/61/71
f 77/65/72 76/63/72 74/66/72
f 75/67/73 71/62/73 72/61/73
f 73/64/74 75/67/74 72/61/74
f 79/68/75 77/65/75 78/69/75
f 75/67/76 77/65/76 74/66/76
f 79/68/77 75/67/77 76/63/77
f 44/36/78 71/62/78 73/64/78
f 33/1/1 5/14/1 6/2/1
f 42/4/2 40/4/2 7/5/2
f 35/1/3 37/3/3 3/6/3
f 37/3/79 41/9/79 2/8/79
f 39/9/5 41/9/5 35/1/5
f 41/9/5 37/3/5 35/1/5
f 35/1/5 33/1/5 39/9/5
f 40/4/80 32/32/80 12/10/80
f 11/11/7 34/15/7 36/12/7
f 38/13/81 42/4/81 8/5/81
f 35/1/9 4/7/9 5/14/9
f 12/10/10 32/32/10 34/15/10
f 10/11/11 36/12/11 38/13/11
f 10/11/82 16/20/82 17/16/82
f 9/10/83 8/5/83 14/17/83
f 11/11/84 17/16/84 18/19/84
f 9/10/85 15/18/85 16/20/85
f 8/5/86 7/5/86 13/21/86
f 7/5/87 12/10/87 18/19/87
f 25/22/88 21/28/88 22/23/88
f 28/25/89 27/27/89 19/26/89
f 27/27/90 29/30/90 24/28/90
f 26/24/91 22/23/91 23/23/91
f 25/22/92 28/25/92 20/26/92
f 17/16/93 30/29/93 29/30/93
f 15/18/94 14/17/94 28/25/94
f 16/20/95 26/24/95 30/29/95
f 13/21/96 18/19/96 29/30/96
f 14/17/97 13/21/97 27/27/97
f 15/18/98 25/22/98 26/24/98
f 31/3/99 6/2/99 1/31/99
f 30/29/100 23/23/100 24/28/100
f 21/28/31 20/26/31 23/23/31
f 20/26/31 19/26/31 23/23/31
f 19/26/31 24/28/31 23/23/31
f 5/14/101 34/15/101 32/32/101
f 4/7/33 3/6/33 38/13/33
f 3/6/102 2/8/102 42/4/102
f 2/8/103 1/31/103 40/4/103
f 6/2/104 32/32/104 40/4/104
f 4/7/37 36/12/37 34/15/37
f 41/9/38 39/9/38 1/31/38
f 48/33/39 50/41/39 47/34/39
f 51/40/43 53/45/43 50/41/43
f 56/42/44 58/48/44 55/43/44
f 49/44/105 48/33/105 45/35/105
f 47/34/106 50/41/106 49/44/106
f 52/46/107 51/40/107 48/33/107
f 50/41/108 53/45/108 52/46/108
f 59/47/52 61/49/52 58/48/52
f 54/37/109 57/51/109 56/42/109
f 58/48/110 57/51/110 54/37/110
f 57/51/111 60/50/111 59/47/111
f 61/49/112 60/50/112 57/51/112
f 65/54/60 67/57/60 64/55/60
f 68/56/62 70/58/62 67/57/62
f 63/52/113 66/60/113 65/54/113
f 67/57/114 66/60/114 63/52/114
f 66/60/115 69/59/115 68/56/115
f 70/58/116 69/59/116 66/60/116
f 71/62/70 74/66/70 76/63/70
f 77/65/72 79/68/72 76/63/72
f 75/67/117 74/66/117 71/62/117
f 73/64/118 76/63/118 75/67/118
f 75/67/119 78/69/119 77/65/119
f 79/68/120 78/69/120 75/67/120
