# Blender 4.4.0
# www.blender.org
mtllib Crop_Bean_STAGE_1_01.mtl
o Crop_Bean_STAGE_1_01
v -0.020308 0.000000 0.040617
v -0.020308 0.000000 -0.020308
v 0.040617 0.000000 -0.020308
v -0.020308 1.145384 0.040617
v -0.020308 1.145384 -0.020308
v 0.040617 1.145384 -0.020308
v 0.006169 0.003443 0.012633
v -0.028705 0.000000 -0.022410
v -0.063579 -0.003443 0.012633
v -0.028705 -0.000000 0.047677
v -0.013000 0.146579 0.014181
v -0.042363 0.140558 -0.014580
v -0.070798 0.156635 0.011085
v -0.041434 0.162656 0.039846
v 0.027550 0.201091 -0.050913
v 0.001739 0.207381 -0.085510
v -0.025379 0.231142 -0.060959
v 0.000432 0.224851 -0.026362
v 0.097581 0.315055 -0.019895
v 0.080128 0.335851 -0.054800
v 0.044353 0.345886 -0.030490
v 0.063216 0.327768 0.004861
v 0.041918 0.337167 0.011970
v 0.068940 0.336067 -0.045211
v 0.059192 0.340712 -0.016563
v 0.190165 0.199620 0.054054
v 0.103561 0.273285 0.092805
v 0.167936 0.266066 -0.042849
v 0.155644 0.263712 0.034728
v 0.071690 0.313476 0.071171
v 0.133160 0.306148 -0.057311
v 0.118424 0.313660 0.014431
v 0.069572 0.334366 -0.000117
v 0.023145 0.347989 -0.034577
v 0.049293 0.345743 -0.015822
v 0.141147 0.283122 -0.175946
v 0.160320 0.311275 -0.062275
v 0.051044 0.346806 -0.143799
v 0.118175 0.331870 -0.119293
v 0.131233 0.328072 -0.022059
v 0.027332 0.359886 -0.099349
v 0.089160 0.354400 -0.069520
v -0.026978 0.195383 -0.037968
v -0.056901 0.165269 0.004382
v -0.046003 0.185592 -0.016026
v -0.133507 0.137082 -0.108542
v -0.067166 0.196709 -0.098331
v -0.120843 0.144027 -0.022747
v -0.107479 0.172056 -0.068488
v -0.042451 0.206736 -0.070727
v -0.092390 0.156200 0.002062
v -0.077406 0.188361 -0.036213
v 0.154888 0.263106 0.034401
v 0.071211 0.312653 0.070787
v 0.117853 0.312822 0.014200
v 0.117672 0.331018 -0.118992
v 0.130810 0.327143 -0.022188
v 0.027181 0.358865 -0.099285
v 0.088868 0.353378 -0.069558
v -0.045743 0.184714 -0.016462
v -0.106781 0.171293 -0.068523
v -0.091893 0.155416 0.001621
v -0.076985 0.187466 -0.036543
vn -0.0000 1.0000 -0.0000
vn -1.0000 -0.0000 -0.0000
vn -0.0000 -0.0000 -1.0000
vn 0.7071 -0.0000 0.7071
vn 0.7019 0.0864 0.7070
vn 0.6994 0.1073 -0.7066
vn -0.7071 -0.0293 -0.7065
vn -0.7074 -0.0251 0.7064
vn 0.7190 0.2184 0.6598
vn 0.5034 -0.7906 -0.3485
vn -0.7173 -0.2063 -0.6655
vn -0.5278 0.7597 0.3799
vn 0.3566 -0.4430 0.8226
vn 0.7361 -0.3046 -0.6045
vn -0.3738 0.4251 -0.8243
vn -0.7412 0.2896 0.6056
vn 0.4618 0.8649 0.1969
vn 0.8508 0.5035 0.1501
vn 0.6763 0.5212 0.5206
vn 0.5574 0.6903 0.4613
vn 0.7381 0.6698 0.0815
vn 0.4177 0.9086 -0.0052
vn 0.2737 0.9201 0.2800
vn 0.3618 0.7741 -0.5194
vn 0.7004 0.6562 -0.2807
vn 0.5170 0.8558 0.0165
vn 0.1772 0.9657 -0.1897
vn -0.0192 0.9892 0.1452
vn 0.2516 0.9086 0.3333
vn -0.8418 0.5337 0.0811
vn -0.6288 0.7403 -0.2378
vn -0.4243 0.9040 0.0515
vn -0.6117 0.7071 0.3547
vn -0.3087 0.7513 0.5833
vn -0.1201 0.9412 0.3159
vn -0.8405 -0.5171 -0.1618
vn -0.6793 -0.5335 -0.5040
vn -0.5474 -0.7034 -0.4533
vn -0.7618 -0.6296 -0.1528
vn -0.4295 -0.9031 0.0003
vn -0.2898 -0.9261 -0.2416
vn -0.3721 -0.7802 0.5028
vn -0.6856 -0.6712 0.2819
vn -0.5051 -0.8625 -0.0304
vn -0.3070 -0.9215 0.2380
vn 0.0104 -0.9910 -0.1332
vn -0.2222 -0.9229 -0.3144
vn 0.8274 -0.5562 -0.0771
vn 0.6353 -0.7429 0.2108
vn 0.4365 -0.8974 -0.0649
vn 0.6459 -0.7266 -0.2343
vn 0.2939 -0.7723 -0.5631
vn 0.1340 -0.9151 -0.3804
vn -0.8248 0.2413 0.5114
vn 0.2994 -0.2638 0.9169
vn -0.8657 0.0982 -0.4908
vn -0.3497 -0.6179 0.7042
vn 0.6946 0.0887 0.7139
vn 0.6858 0.0996 -0.7210
vn -0.6812 -0.0378 -0.7311
vn -0.6975 -0.0201 0.7163
vn 0.7480 0.1996 0.6330
vn 0.4308 -0.7750 -0.4623
vn -0.7447 -0.1882 -0.6403
vn -0.4618 0.7458 0.4801
vn 0.3906 -0.4771 0.7872
vn 0.7614 -0.3134 -0.5674
vn -0.4082 0.4578 -0.7898
vn -0.7700 0.2986 0.5639
vn 0.4359 0.8521 0.2897
vn 0.6193 0.6440 0.4492
vn 0.7657 0.6276 0.1404
vn 0.4210 0.9070 -0.0085
vn 0.2788 0.9317 0.2327
vn 0.5226 0.8489 -0.0796
vn 0.2952 0.9233 -0.2458
vn 0.0001 0.9835 0.1807
vn 0.2099 0.9220 0.3254
vn -0.5035 0.8633 0.0330
vn -0.6534 0.7154 0.2475
vn -0.2384 0.7875 0.5684
vn -0.1152 0.9205 0.3734
vn -0.6264 -0.6447 -0.4382
vn -0.7348 -0.6717 -0.0946
vn -0.4232 -0.9060 -0.0060
vn -0.2849 -0.9148 -0.2862
vn -0.5123 -0.8543 0.0879
vn -0.1693 -0.9704 0.1721
vn -0.0076 -0.9861 -0.1662
vn -0.2613 -0.9100 -0.3218
vn 0.5145 -0.8562 -0.0463
vn 0.5926 -0.7157 -0.3696
vn 0.2655 -0.7869 -0.5571
vn 0.1375 -0.9298 -0.3413
vn -0.5896 -0.0331 0.8070
vn 0.6611 -0.3900 0.6410
vn -0.9888 0.1447 -0.0373
vn 0.0598 -0.4607 0.8855
vt 0.224052 0.987941
vt 0.225025 0.987941
vt 0.224052 0.829171
vt 0.225025 0.829171
vt 0.229805 0.071402
vt 0.229495 0.063837
vt 0.229819 0.064052
vt 0.230055 0.071048
vt 0.230142 0.063837
vt 0.229819 0.063622
vt 0.229832 0.071994
vt 0.230158 0.076007
vt 0.229582 0.072348
vt 0.230371 0.074609
vt 0.230459 0.076377
vt 0.230101 0.081313
vt 0.230405 0.082537
vt 0.230672 0.074979
vt 0.230194 0.083127
vt 0.229886 0.082061
vt 0.216263 0.141798
vt 0.216122 0.138407
vt 0.216828 0.141929
vt 0.215840 0.142310
vt 0.216410 0.144440
vt 0.215998 0.144430
vt 0.216932 0.144067
vt 0.216844 0.145626
vt 0.216627 0.145874
vt 0.216428 0.145683
vt 0.217383 0.145404
vt 0.217795 0.142825
vt 0.217559 0.146204
vt 0.216966 0.144318
vt 0.217021 0.146595
vt 0.216676 0.145203
vt 0.217238 0.146886
vt 0.216767 0.146256
vt 0.216638 0.146162
vt 0.216516 0.145535
vt 0.217013 0.136949
vt 0.217305 0.135098
vt 0.216679 0.135469
vt 0.217230 0.138258
vt 0.216779 0.137811
vt 0.217021 0.138784
vt 0.216500 0.136110
vt 0.216483 0.136590
vt 0.216632 0.137665
vt 0.216791 0.138183
vt 0.216265 0.141766
vt 0.216412 0.144396
vt 0.216000 0.144387
vt 0.217381 0.145358
vt 0.217021 0.146541
vt 0.216677 0.145153
vt 0.217014 0.136908
vt 0.216781 0.137764
vt 0.216635 0.137618
vt 0.217237 0.146832
vt 0.216503 0.136068
s 0
usemtl Texture_Map
f 4/1/1 6/2/1 5/2/1
f 1/3/2 5/2/2 2/4/2
f 2/4/3 6/2/3 3/4/3
f 3/4/4 4/1/4 1/3/4
f 11/5/5 10/6/5 7/7/5
f 12/8/6 7/7/6 8/9/6
f 9/10/7 12/8/7 8/9/7
f 10/6/8 13/11/8 9/10/8
f 11/5/9 18/12/9 14/13/9
f 12/8/10 15/14/10 11/5/10
f 17/15/11 12/8/11 13/11/11
f 18/12/12 13/11/12 14/13/12
f 19/16/13 18/12/13 15/14/13
f 20/17/14 15/14/14 16/18/14
f 17/15/15 20/17/15 16/18/15
f 18/12/16 21/19/16 17/15/16
f 19/16/17 21/19/17 22/20/17
f 29/21/18 26/22/18 28/23/18
f 27/24/19 26/22/19 29/21/19
f 27/24/20 32/25/20 30/26/20
f 32/25/21 28/23/21 31/27/21
f 32/25/22 24/28/22 25/29/22
f 23/30/23 32/25/23 25/29/23
f 39/31/24 36/32/24 38/33/24
f 37/34/25 36/32/25 39/31/25
f 37/34/26 42/35/26 40/36/26
f 42/35/27 38/33/27 41/37/27
f 42/35/28 34/38/28 35/39/28
f 33/40/29 42/35/29 35/39/29
f 49/41/30 46/42/30 48/43/30
f 47/44/31 46/42/31 49/41/31
f 47/44/32 52/45/32 50/46/32
f 52/45/33 48/43/33 51/47/33
f 52/45/34 44/48/34 45/49/34
f 43/50/35 52/45/35 45/49/35
f 53/51/36 28/23/36 26/22/36
f 27/24/37 53/51/37 26/22/37
f 55/52/38 27/24/38 54/53/38
f 55/52/39 28/23/39 53/51/39
f 24/28/40 55/52/40 25/29/40
f 23/30/41 55/52/41 54/53/41
f 56/54/42 38/33/42 36/32/42
f 37/34/43 56/54/43 36/32/43
f 59/55/44 37/34/44 57/56/44
f 59/55/45 38/33/45 56/54/45
f 34/38/46 59/55/46 35/39/46
f 33/40/47 59/55/47 57/56/47
f 61/57/48 48/43/48 46/42/48
f 47/44/49 61/57/49 46/42/49
f 63/58/50 47/44/50 50/46/50
f 63/58/51 48/43/51 61/57/51
f 44/48/52 63/58/52 60/59/52
f 43/50/53 63/58/53 50/46/53
f 23/30/54 54/53/54 30/26/54
f 33/40/55 57/56/55 40/36/55
f 41/37/56 38/33/56 58/60/56
f 51/47/57 48/43/57 62/61/57
f 1/3/2 4/1/2 5/2/2
f 2/4/3 5/2/3 6/2/3
f 3/4/4 6/2/4 4/1/4
f 11/5/58 14/13/58 10/6/58
f 12/8/59 11/5/59 7/7/59
f 9/10/60 13/11/60 12/8/60
f 10/6/61 14/13/61 13/11/61
f 11/5/62 15/14/62 18/12/62
f 12/8/63 16/18/63 15/14/63
f 17/15/64 16/18/64 12/8/64
f 18/12/65 17/15/65 13/11/65
f 19/16/66 22/20/66 18/12/66
f 20/17/67 19/16/67 15/14/67
f 17/15/68 21/19/68 20/17/68
f 18/12/69 22/20/69 21/19/69
f 19/16/70 20/17/70 21/19/70
f 27/24/71 29/21/71 32/25/71
f 32/25/72 29/21/72 28/23/72
f 32/25/73 31/27/73 24/28/73
f 23/30/74 30/26/74 32/25/74
f 37/34/75 39/31/75 42/35/75
f 42/35/76 39/31/76 38/33/76
f 42/35/77 41/37/77 34/38/77
f 33/40/78 40/36/78 42/35/78
f 47/44/79 49/41/79 52/45/79
f 52/45/80 49/41/80 48/43/80
f 52/45/81 51/47/81 44/48/81
f 43/50/82 50/46/82 52/45/82
f 55/52/83 53/51/83 27/24/83
f 55/52/84 31/27/84 28/23/84
f 24/28/85 31/27/85 55/52/85
f 23/30/86 25/29/86 55/52/86
f 59/55/87 56/54/87 37/34/87
f 59/55/88 58/60/88 38/33/88
f 34/38/89 58/60/89 59/55/89
f 33/40/90 35/39/90 59/55/90
f 63/58/91 61/57/91 47/44/91
f 63/58/92 62/61/92 48/43/92
f 44/48/93 62/61/93 63/58/93
f 43/50/94 60/59/94 63/58/94
f 27/24/95 30/26/95 54/53/95
f 40/36/96 57/56/96 37/34/96
f 34/38/97 41/37/97 58/60/97
f 44/48/98 51/47/98 62/61/98
