# Blender 4.4.0
# www.blender.org
mtllib Crop_Carrot_STAGE_1_01.mtl
o Crop_Carrot_STAGE_1_01
v -0.000000 0.000000 -0.000000
v -0.035182 0.149690 -0.102358
v 0.036099 0.149690 -0.102358
v 0.000459 0.164471 -0.131816
v 0.020143 0.162899 -0.124575
v -0.019225 0.162899 -0.124575
v 0.019985 0.122014 -0.043096
v 0.000459 0.122116 -0.052402
v -0.019067 0.122014 -0.043096
v 0.036099 0.149690 0.103276
v -0.035182 0.149690 0.103276
v 0.000459 0.164471 0.132734
v -0.019225 0.162899 0.125493
v 0.020143 0.162899 0.125493
v -0.019067 0.122014 0.044014
v 0.000459 0.122116 0.053319
v 0.019985 0.122014 0.044014
v -0.012986 0.100837 -0.027250
v 0.013904 0.100837 -0.027250
v 0.005552 0.046200 -0.004633
v 0.000459 0.097092 -0.030346
v 0.000459 0.041089 -0.004764
v 0.013904 0.100837 0.028168
v -0.012986 0.100837 0.028168
v 0.000459 0.097092 0.031264
v 0.000459 0.041089 0.005681
v 0.020239 0.121521 -0.043789
v 0.000459 0.121605 -0.053124
v -0.019322 0.121521 -0.043789
v -0.019322 0.121521 0.044706
v 0.000459 0.121605 0.054041
v 0.020239 0.121521 0.044706
v -0.005029 0.045821 -0.005638
v -0.013411 0.100281 -0.028022
v 0.014328 0.100281 -0.028022
v 0.005947 0.045821 -0.005638
v 0.000459 0.096512 -0.031260
v 0.000459 0.040957 -0.005856
v 0.014328 0.100281 0.028940
v -0.013411 0.100281 0.028940
v 0.000459 0.096512 0.032178
v 0.000459 0.040924 0.006761
v -0.102360 0.154435 0.036099
v -0.102360 0.154435 -0.035182
v -0.131817 0.164471 0.000459
v -0.124576 0.162899 -0.019225
v -0.124576 0.162899 0.020143
v -0.043098 0.122014 -0.019067
v -0.052403 0.122116 0.000459
v -0.043098 0.122014 0.019985
v 0.103277 0.156120 -0.035182
v 0.103277 0.156120 0.036099
v 0.132735 0.164471 0.000459
v 0.125494 0.162899 0.020143
v 0.125494 0.162899 -0.019225
v 0.044015 0.122014 0.019985
v 0.053321 0.122116 0.000459
v 0.044015 0.122014 -0.019067
v -0.004634 0.046200 0.005552
v -0.027251 0.100837 0.013904
v -0.027251 0.100837 -0.012986
v -0.004634 0.046200 -0.004634
v -0.030348 0.097092 0.000459
v -0.004765 0.041089 0.000459
v 0.028169 0.100837 -0.012986
v 0.028169 0.100837 0.013904
v 0.005552 0.046200 0.005552
v 0.031265 0.097092 0.000459
v 0.005683 0.041089 0.000459
v -0.043790 0.121521 -0.019322
v -0.053125 0.121605 0.000459
v -0.043790 0.121521 0.020239
v 0.064891 0.132537 -0.024742
v 0.044708 0.121521 0.020239
v 0.054043 0.121605 0.000459
v 0.044708 0.121521 -0.019322
v -0.005639 0.045821 0.005947
v -0.028023 0.100281 0.014329
v -0.028023 0.100281 -0.013411
v -0.031261 0.096512 0.000459
v -0.005857 0.040957 0.000459
v 0.028941 0.100281 -0.013411
v 0.028941 0.100281 0.014328
v 0.005947 0.045823 0.006524
v 0.032179 0.096512 0.000459
v 0.006762 0.040924 0.000459
vn 0.1750 0.9095 0.3772
vn 0.1021 0.8777 0.4681
vn -0.3337 0.6233 0.7072
vn 0.1379 0.1125 0.9840
vn 0.1588 0.1335 -0.9782
vn -0.1412 0.1156 0.9832
vn -0.1750 0.9095 -0.3772
vn -0.1021 0.8777 -0.4681
vn -0.4027 0.3803 -0.8326
vn 0.3337 0.6233 -0.7072
vn -0.1622 0.1369 -0.9772
vn 0.3104 -0.4023 0.8613
vn -0.1787 -0.9047 0.3867
vn -0.3106 0.4037 0.8606
vn 0.3362 0.6242 0.7052
vn 0.3106 0.4037 -0.8606
vn -0.3362 0.6242 -0.7052
vn -0.1787 -0.9047 -0.3867
vn -0.1053 -0.8733 -0.4757
vn 0.1053 -0.8733 -0.4757
vn 0.3329 -0.6195 -0.7110
vn -0.1610 -0.1379 -0.9773
vn -0.2520 -0.1550 0.9552
vn 0.1641 -0.1414 -0.9763
vn 0.1787 -0.9047 0.3867
vn 0.1053 -0.8733 0.4757
vn -0.1053 -0.8733 0.4757
vn -0.3329 -0.6195 0.7110
vn 0.1866 -0.1622 0.9689
vn 0.3103 -0.4019 -0.8615
vn -0.3342 -0.6200 -0.7099
vn -0.3111 -0.4070 0.8588
vn 0.3342 -0.6200 0.7099
vn 0.9523 0.0775 0.2952
vn -0.9523 0.0776 0.2952
vn -0.9523 0.0776 -0.2952
vn 0.9523 0.0776 -0.2952
vn -0.9313 0.0064 0.3642
vn 0.8903 0.0512 0.4525
vn 0.9279 0.0106 -0.3728
vn -0.8903 0.0512 -0.4525
vn -0.8951 0.0722 0.4400
vn 0.9378 -0.0032 0.3473
vn 0.8951 0.0722 -0.4400
vn -0.9378 -0.0032 -0.3473
vn 0.4280 0.8815 -0.1994
vn 0.4681 0.8777 -0.1021
vn 0.7072 0.6233 0.3337
vn 0.9832 0.1156 -0.1412
vn -0.9772 0.1370 -0.1625
vn 0.9840 0.1126 0.1382
vn -0.4450 0.8712 0.2075
vn -0.4681 0.8777 0.1021
vn -0.7072 0.6233 -0.3337
vn -0.9782 0.1335 0.1591
vn 0.4280 -0.8818 -0.1982
vn 0.8606 0.4037 0.3106
vn 0.7052 0.6242 -0.3362
vn -0.8606 0.4037 -0.3106
vn -0.7052 0.6242 0.3362
vn -0.4374 -0.8761 0.2027
vn -0.4757 -0.8733 0.1053
vn -0.4757 -0.8733 -0.1053
vn -0.7110 -0.6195 -0.3329
vn -0.9762 -0.1414 0.1641
vn 0.9528 -0.1603 0.2576
vn -0.9618 -0.1349 -0.2382
vn 0.4757 -0.8733 -0.1053
vn 0.4757 -0.8733 0.1053
vn 0.7110 -0.6195 0.3329
vn 0.9552 -0.1550 -0.2522
vn -0.8588 -0.4070 -0.3111
vn -0.7099 -0.6200 0.3342
vn 0.8587 -0.4072 0.3111
vn 0.7099 -0.6200 -0.3342
vn 0.2985 0.0726 -0.9517
vn 0.2985 0.0726 0.9517
vn -0.2995 0.0709 0.9514
vn 0.4510 -0.8519 -0.2661
vn -0.2967 0.0752 -0.9520
vn 0.3638 0.0062 0.9314
vn 0.4525 0.0512 -0.8903
vn -0.8465 0.2941 -0.4437
vn -0.4525 0.0512 0.8903
vn 0.4400 0.0722 0.8951
vn 0.3473 -0.0032 -0.9378
vn -0.4400 0.0722 -0.8951
vn -0.3473 -0.0032 0.9378
vn 0.4681 0.8777 0.1021
vn 0.4513 0.8774 0.1630
vn 0.8325 0.3803 -0.4029
vn -0.8615 -0.4019 0.3103
vn -0.4374 -0.8761 -0.2027
vn 0.1021 0.8777 -0.4681
vn -0.0258 0.8673 -0.4971
vn -0.8324 0.3803 0.4030
vn -0.4681 0.8777 -0.1021
vn -0.4308 0.8729 -0.2290
vn 0.8588 -0.4070 -0.3111
vn 0.4359 -0.8679 0.2383
vn 0.4028 0.3803 0.8326
vn -0.1021 0.8777 0.4681
vn 0.0258 0.8673 0.4971
vn -0.3103 -0.4019 -0.8615
vn 0.1787 -0.9047 -0.3867
vn -0.0258 0.8673 0.4971
vn -0.3362 0.6242 0.7052
vn 0.0258 0.8673 -0.4971
vn -0.3106 0.4037 -0.8606
vn 0.3362 0.6242 -0.7052
vn 0.3798 -0.3847 0.8413
vn 0.0145 -0.8640 0.5033
vn -0.4029 0.3803 0.8325
vn 0.3337 0.6233 0.7072
vn 0.4028 0.3803 -0.8326
vn -0.3337 0.6233 -0.7072
vn 0.0145 -0.8640 -0.5033
vn 0.3342 -0.6200 -0.7099
vn -0.0145 -0.8640 0.5033
vn -0.3342 -0.6200 0.7099
vn 0.3751 -0.3855 -0.8430
vn -0.3329 -0.6195 -0.7110
vn -0.4144 -0.3784 0.8277
vn 0.3329 -0.6195 0.7110
vn -0.8903 0.0512 0.4525
vn 0.9314 0.0062 0.3638
vn 0.8903 0.0512 -0.4525
vn -0.4437 0.2941 -0.8465
vn -0.9378 -0.0032 0.3473
vn 0.8951 0.0722 0.4400
vn 0.9378 -0.0032 -0.3473
vn -0.8951 0.0722 -0.4400
vn 0.4513 0.8774 -0.1630
vn 0.7052 0.6242 0.3362
vn -0.4308 0.8729 0.2290
vn -0.7052 0.6242 -0.3362
vn 0.4536 -0.8722 -0.1831
vn 0.8325 0.3803 0.4029
vn 0.7072 0.6233 -0.3337
vn -0.8325 0.3803 -0.4029
vn -0.7072 0.6233 0.3337
vn -0.4567 -0.8727 0.1730
vn -0.7099 -0.6200 -0.3342
vn 0.7099 -0.6200 0.3342
vn -0.8277 -0.3785 -0.4143
vn -0.7110 -0.6195 0.3329
vn 0.8268 -0.3780 0.4165
vn 0.7110 -0.6195 -0.3329
vn -0.2619 -0.0010 -0.9651
vn 0.4525 0.0512 0.8903
vn 0.8463 0.2939 -0.4442
vn -0.4525 0.0512 -0.8903
vn -0.8420 0.2904 0.4546
vn 0.3473 -0.0032 0.9378
vn 0.4400 0.0722 -0.8951
vn -0.3473 -0.0032 -0.9378
vn -0.4400 0.0722 0.8951
vn 0.4280 0.8815 0.1994
vn 0.8606 0.4037 -0.3106
vn -0.8430 -0.3855 0.3751
vn -0.4567 -0.8727 -0.1730
vn 0.1750 0.9095 -0.3772
vn -0.8605 0.4037 0.3106
vn -0.4450 0.8712 -0.2075
vn 0.8276 -0.3784 -0.4146
vn 0.4543 -0.8656 0.2107
vn 0.3106 0.4037 0.8606
vn -0.1750 0.9095 0.3772
vn -0.3751 -0.3855 -0.8430
vn -0.0145 -0.8640 -0.5033
vt 0.192853 0.117779
vt 0.192610 0.126211
vt 0.192898 0.117748
vt 0.192467 0.130731
vt 0.192502 0.130251
vt 0.192960 0.110127
vt 0.193084 0.093001
vt 0.193085 0.094564
vt 0.193107 0.080436
vt 0.193135 0.093001
vt 0.193134 0.094564
vt 0.193085 0.094564
vt 0.193366 0.117779
vt 0.193608 0.126211
vt 0.193321 0.117748
vt 0.193751 0.130731
vt 0.193716 0.130251
vt 0.193259 0.110127
vt 0.193134 0.094564
vt 0.193263 0.109949
vt 0.193139 0.094449
vt 0.193248 0.111102
vt 0.193369 0.117623
vt 0.193324 0.117597
vt 0.192975 0.111272
vt 0.193244 0.111272
vt 0.192849 0.117623
vt 0.192895 0.117597
vt 0.192955 0.109949
vt 0.193080 0.094448
vt 0.193079 0.092961
vt 0.193140 0.092951
vt 0.193136 0.094448
vt 0.192971 0.111102
vt 0.193109 0.117779
vt 0.193282 0.127662
vt 0.193204 0.117748
vt 0.193109 0.130731
vt 0.193205 0.130251
vt 0.193109 0.110127
vt 0.193015 0.117748
vt 0.193109 0.093001
vt 0.193109 0.093001
vt 0.192936 0.128178
vt 0.193014 0.130251
vt 0.192987 0.120966
vt 0.193109 0.117623
vt 0.193013 0.117597
vt 0.193044 0.111272
vt 0.193175 0.111272
vt 0.193205 0.117597
vt 0.193109 0.109949
vt 0.193109 0.092961
vt 0.193109 0.092951
vt 0.193042 0.111102
vt 0.193177 0.111102
vt 0.192936 0.127662
vt 0.193282 0.128178
s 0
usemtl Texture_Map
f 8/1/1 2/2/1 9/3/1
f 8/1/2 4/4/2 6/5/2
f 21/6/3 7/3/3 8/1/3
f 22/7/4 62/8/4 1/9/4
f 26/10/5 1/9/5 59/11/5
f 22/7/6 1/9/6 20/12/6
f 16/13/7 10/14/7 17/15/7
f 16/13/8 12/16/8 14/17/8
f 25/18/9 67/19/9 26/10/9
f 25/18/10 15/15/10 16/13/10
f 1/9/11 26/10/11 67/19/11
f 41/20/12 84/21/12 39/22/12
f 31/23/13 11/14/13 30/24/13
f 21/6/14 20/12/14 19/25/14
f 21/6/15 9/3/15 18/25/15
f 25/18/16 59/11/16 24/26/16
f 25/18/17 17/15/17 23/26/17
f 2/2/18 28/27/18 29/28/18
f 6/5/19 4/4/19 28/27/19
f 28/27/20 4/4/20 5/5/20
f 27/28/21 37/29/21 28/27/21
f 1/9/22 33/30/22 38/31/22
f 1/9/23 42/32/23 77/33/23
f 1/9/24 38/31/24 36/30/24
f 10/14/25 31/23/25 32/24/25
f 14/17/26 12/16/26 31/23/26
f 31/23/27 12/16/27 13/17/27
f 30/24/28 41/20/28 31/23/28
f 84/21/29 42/32/29 1/9/29
f 36/30/30 37/29/30 35/34/30
f 29/28/31 37/29/31 34/34/31
f 77/33/32 41/20/32 40/22/32
f 32/24/33 41/20/33 39/22/33
f 3/2/34 7/3/34 27/28/34
f 9/3/35 2/2/35 29/28/35
f 11/14/36 15/15/36 30/24/36
f 17/15/37 10/14/37 32/24/37
f 62/8/38 34/34/38 33/30/38
f 20/12/39 35/34/39 19/25/39
f 67/19/40 39/22/40 84/21/40
f 59/11/41 40/22/41 24/26/41
f 9/3/42 34/34/42 18/25/42
f 7/3/43 35/34/43 27/28/43
f 17/15/44 39/22/44 23/26/44
f 15/15/45 40/22/45 30/24/45
f 49/35/46 43/36/46 50/37/46
f 49/35/47 45/38/47 47/39/47
f 63/40/48 48/41/48 49/35/48
f 59/11/49 1/9/49 64/42/49
f 69/43/50 1/9/50 67/19/50
f 64/42/51 1/9/51 62/8/51
f 57/35/52 51/44/52 58/41/52
f 57/35/53 53/38/53 55/45/53
f 68/40/54 56/37/54 57/35/54
f 1/9/55 69/43/55 20/12/55
f 73/46/56 75/47/56 76/48/56
f 63/40/57 62/8/57 61/49/57
f 63/40/58 50/37/58 60/50/58
f 68/40/59 67/19/59 66/50/59
f 68/40/60 58/41/60 65/49/60
f 43/36/61 71/47/61 72/51/61
f 47/39/62 45/38/62 71/47/62
f 71/47/63 45/38/63 46/45/63
f 70/48/64 80/52/64 71/47/64
f 1/9/65 77/33/65 81/53/65
f 1/9/66 86/54/66 84/21/66
f 1/9/67 81/53/67 33/30/67
f 55/45/68 53/38/68 75/47/68
f 75/47/69 53/38/69 54/39/69
f 74/51/70 85/52/70 75/47/70
f 36/30/71 86/54/71 1/9/71
f 33/30/72 80/52/72 79/55/72
f 72/51/73 80/52/73 78/56/73
f 84/21/74 85/52/74 83/56/74
f 76/48/75 85/52/75 82/55/75
f 44/57/76 48/41/76 70/48/76
f 50/37/77 43/36/77 72/51/77
f 52/58/78 56/37/78 74/51/78
f 51/44/79 55/45/79 73/46/79
f 58/41/80 73/46/80 76/48/80
f 59/11/81 78/56/81 77/33/81
f 62/8/82 79/55/82 61/49/82
f 20/12/83 82/55/83 36/30/83
f 67/19/84 83/56/84 66/50/84
f 50/37/85 78/56/85 60/50/85
f 48/41/86 79/55/86 70/48/86
f 58/41/87 82/55/87 65/49/87
f 56/37/88 83/56/88 74/51/88
f 45/38/89 49/35/89 46/45/89
f 49/35/90 44/57/90 46/45/90
f 63/40/91 59/11/91 64/42/91
f 80/52/92 77/33/92 78/56/92
f 71/47/93 44/57/93 70/48/93
f 12/16/94 16/13/94 13/17/94
f 16/13/95 11/14/95 13/17/95
f 68/40/96 20/12/96 69/43/96
f 53/38/97 57/35/97 54/39/97
f 57/35/98 52/58/98 54/39/98
f 85/52/99 36/30/99 82/55/99
f 52/58/100 75/47/100 54/39/100
f 21/6/101 62/8/101 22/7/101
f 4/4/102 8/1/102 5/5/102
f 8/1/103 3/2/103 5/5/103
f 37/29/104 33/30/104 34/34/104
f 28/27/105 3/2/105 27/28/105
f 8/1/106 6/5/106 2/2/106
f 21/6/107 19/25/107 7/3/107
f 16/13/108 14/17/108 10/14/108
f 25/18/109 23/26/109 67/19/109
f 25/18/110 24/26/110 15/15/110
f 41/20/111 42/32/111 84/21/111
f 31/23/112 13/17/112 11/14/112
f 21/6/113 22/7/113 20/12/113
f 21/6/114 8/1/114 9/3/114
f 25/18/115 26/10/115 59/11/115
f 25/18/116 16/13/116 17/15/116
f 2/2/117 6/5/117 28/27/117
f 27/28/118 35/34/118 37/29/118
f 10/14/119 14/17/119 31/23/119
f 30/24/120 40/22/120 41/20/120
f 36/30/121 38/31/121 37/29/121
f 29/28/122 28/27/122 37/29/122
f 77/33/123 42/32/123 41/20/123
f 32/24/124 31/23/124 41/20/124
f 62/8/125 18/25/125 34/34/125
f 20/12/126 36/30/126 35/34/126
f 67/19/127 23/26/127 39/22/127
f 59/11/128 77/33/128 40/22/128
f 9/3/129 29/28/129 34/34/129
f 7/3/130 19/25/130 35/34/130
f 17/15/131 32/24/131 39/22/131
f 15/15/132 24/26/132 40/22/132
f 49/35/133 47/39/133 43/36/133
f 63/40/134 61/49/134 48/41/134
f 57/35/135 55/45/135 51/44/135
f 68/40/136 66/50/136 56/37/136
f 73/46/137 55/45/137 75/47/137
f 63/40/138 64/42/138 62/8/138
f 63/40/139 49/35/139 50/37/139
f 68/40/140 69/43/140 67/19/140
f 68/40/141 57/35/141 58/41/141
f 43/36/142 47/39/142 71/47/142
f 70/48/143 79/55/143 80/52/143
f 74/51/144 83/56/144 85/52/144
f 33/30/145 81/53/145 80/52/145
f 72/51/146 71/47/146 80/52/146
f 84/21/147 86/54/147 85/52/147
f 76/48/148 75/47/148 85/52/148
f 58/41/149 51/44/149 73/46/149
f 59/11/150 60/50/150 78/56/150
f 62/8/151 33/30/151 79/55/151
f 20/12/152 65/49/152 82/55/152
f 67/19/153 84/21/153 83/56/153
f 50/37/154 72/51/154 78/56/154
f 48/41/155 61/49/155 79/55/155
f 58/41/156 76/48/156 82/55/156
f 56/37/157 66/50/157 83/56/157
f 49/35/158 48/41/158 44/57/158
f 63/40/159 60/50/159 59/11/159
f 80/52/160 81/53/160 77/33/160
f 71/47/161 46/45/161 44/57/161
f 16/13/162 15/15/162 11/14/162
f 68/40/163 65/49/163 20/12/163
f 57/35/164 56/37/164 52/58/164
f 85/52/165 86/54/165 36/30/165
f 52/58/166 74/51/166 75/47/166
f 21/6/167 18/25/167 62/8/167
f 8/1/168 7/3/168 3/2/168
f 37/29/169 38/31/169 33/30/169
f 28/27/170 5/5/170 3/2/170
