# Blender 4.4.0
# www.blender.org
mtllib Crop_Carrot_STAGE_2_01.mtl
o Crop_Carrot_STAGE_2_01
v 0.019764 0.088524 -0.034258
v -0.019662 0.088523 -0.034258
v -0.039677 0.088416 -0.000192
v -0.019814 0.088416 0.034213
v 0.019915 0.088416 0.034214
v 0.039780 0.088416 -0.000192
v -0.024232 0.066509 -0.042012
v 0.024232 0.066509 -0.042012
v -0.048739 0.066292 -0.000099
v -0.024370 0.066291 0.042110
v 0.024369 0.066290 0.042111
v 0.048740 0.066290 -0.000099
v 0.023818 0.102552 -0.000237
v 0.011960 0.102552 0.020301
v -0.011755 0.102552 0.020301
v -0.023613 0.102552 -0.000237
v 0.011891 0.102552 -0.020594
v -0.011685 0.102552 -0.020594
v -0.024232 0.000146 -0.042012
v 0.024232 0.000146 -0.042012
v -0.048739 -0.000072 -0.000099
v -0.024370 -0.000072 0.042110
v 0.024369 -0.000073 0.042111
v 0.048740 -0.000074 -0.000099
v -0.000221 0.055674 -0.000014
v -0.041331 0.230587 -0.119621
v 0.041962 0.230587 -0.119621
v 0.000316 0.247859 -0.154042
v 0.023317 0.246022 -0.145581
v -0.022685 0.246022 -0.145581
v 0.023132 0.198247 -0.050372
v 0.000316 0.198367 -0.061246
v -0.022501 0.198247 -0.050372
v 0.041962 0.230587 0.120664
v -0.041331 0.230587 0.120664
v 0.000316 0.247859 0.155086
v -0.022685 0.246022 0.146625
v 0.023317 0.246022 0.146625
v -0.022501 0.198247 0.051416
v 0.000316 0.198367 0.062290
v 0.023132 0.198247 0.051416
v -0.015395 0.173502 -0.031856
v 0.016026 0.173502 -0.031856
v 0.006267 0.109658 -0.005428
v 0.000316 0.169126 -0.035474
v 0.000316 0.103686 -0.005581
v 0.016026 0.173502 0.032900
v -0.015395 0.173502 0.032900
v 0.000316 0.169126 0.036518
v 0.000316 0.103686 0.006625
v 0.023429 0.197671 -0.051181
v 0.000316 0.197770 -0.062089
v -0.022798 0.197671 -0.051181
v -0.022798 0.197672 0.052225
v 0.000316 0.197770 0.063133
v 0.023429 0.197672 0.052225
v -0.006098 0.109215 -0.006602
v -0.015891 0.172853 -0.032758
v 0.016522 0.172853 -0.032758
v 0.006729 0.109215 -0.006602
v 0.000316 0.168448 -0.036542
v 0.000316 0.103532 -0.006857
v 0.016522 0.172853 0.033802
v -0.015891 0.172853 0.033802
v 0.000316 0.168448 0.037586
v 0.000316 0.103493 0.007886
v -0.119828 0.236132 0.042168
v -0.119828 0.236132 -0.041124
v -0.154250 0.247859 0.000522
v -0.145789 0.246022 -0.022479
v -0.145789 0.246022 0.023523
v -0.050580 0.198247 -0.022294
v -0.061454 0.198367 0.000522
v -0.050580 0.198247 0.023338
v 0.120460 0.238101 -0.041124
v 0.120460 0.238101 0.042168
v 0.154881 0.242944 0.000522
v 0.146420 0.246022 0.023523
v 0.146420 0.246022 -0.022479
v 0.051212 0.198247 0.023338
v 0.062085 0.198367 0.000522
v 0.051212 0.198247 -0.022294
v -0.005636 0.109658 0.006473
v -0.032064 0.173502 0.016233
v -0.032064 0.173502 -0.015189
v -0.005636 0.109658 -0.005430
v -0.035682 0.169126 0.000522
v -0.005788 0.103686 0.000522
v 0.032695 0.173502 -0.015189
v 0.032695 0.173502 0.016233
v 0.006267 0.109658 0.006473
v 0.036313 0.169126 0.000522
v 0.006420 0.103686 0.000522
v -0.051389 0.197671 -0.022592
v -0.062297 0.197770 0.000522
v -0.051389 0.197671 0.023636
v 0.075604 0.210543 -0.028925
v 0.052021 0.197672 0.023636
v 0.062929 0.197770 0.000522
v 0.052021 0.197672 -0.022592
v -0.006810 0.109215 0.006935
v -0.032966 0.172853 0.016729
v -0.032966 0.172853 -0.015685
v -0.036749 0.168448 0.000522
v -0.007065 0.103532 0.000522
v 0.033597 0.172853 -0.015685
v 0.033597 0.172853 0.016729
v 0.006728 0.109218 0.007609
v 0.037381 0.168448 0.000522
v 0.007681 0.103493 0.000522
vn 0.6187 0.6997 0.3572
vn 0.8134 0.3331 -0.4769
vn -0.6167 0.7020 0.3561
vn -0.6168 0.6998 -0.3602
vn -0.0000 1.0000 -0.0000
vn -0.0000 0.3362 0.9418
vn -0.8157 0.3361 0.4709
vn -0.0000 0.7015 0.7127
vn -0.8151 0.3318 -0.4749
vn -0.0000 0.3322 -0.9432
vn 0.6173 0.6987 -0.3617
vn -0.0000 0.6977 -0.7164
vn 0.8167 0.3327 0.4715
vn -0.0000 -0.0000 -1.0000
vn 0.8660 -0.0000 0.5000
vn -0.0000 -0.0000 1.0000
vn 0.8632 -0.0000 -0.5048
vn -0.8660 -0.0000 0.5000
vn -0.8633 -0.0000 -0.5048
vn 0.1750 0.9095 0.3772
vn 0.1021 0.8777 0.4681
vn -0.3337 0.6233 0.7072
vn 0.1379 0.1125 0.9840
vn 0.1588 0.1335 -0.9782
vn -0.1412 0.1156 0.9832
vn -0.1750 0.9095 -0.3772
vn -0.1021 0.8777 -0.4681
vn -0.4028 0.3803 -0.8326
vn 0.3337 0.6233 -0.7072
vn -0.1622 0.1369 -0.9772
vn 0.3104 -0.4023 0.8613
vn -0.1787 -0.9047 0.3867
vn -0.3106 0.4037 0.8606
vn 0.3362 0.6242 0.7052
vn 0.3106 0.4037 -0.8606
vn -0.3362 0.6242 -0.7052
vn -0.1787 -0.9047 -0.3867
vn -0.1053 -0.8733 -0.4757
vn 0.1053 -0.8733 -0.4757
vn 0.3329 -0.6195 -0.7110
vn -0.1610 -0.1379 -0.9773
vn -0.2520 -0.1550 0.9552
vn 0.1641 -0.1414 -0.9763
vn 0.1787 -0.9047 0.3867
vn 0.1053 -0.8733 0.4757
vn -0.1053 -0.8733 0.4757
vn -0.3329 -0.6195 0.7110
vn 0.1866 -0.1622 0.9689
vn 0.3103 -0.4019 -0.8615
vn -0.3342 -0.6200 -0.7099
vn -0.3111 -0.4070 0.8588
vn 0.3342 -0.6200 0.7099
vn 0.9523 0.0775 0.2952
vn -0.9523 0.0776 0.2952
vn -0.9523 0.0776 -0.2952
vn 0.9523 0.0776 -0.2952
vn -0.9313 0.0064 0.3642
vn 0.8903 0.0512 0.4525
vn 0.9279 0.0106 -0.3728
vn -0.8903 0.0512 -0.4525
vn -0.8951 0.0722 0.4400
vn 0.9378 -0.0032 0.3473
vn 0.8951 0.0722 -0.4400
vn -0.9378 -0.0032 -0.3473
vn 0.4280 0.8815 -0.1994
vn 0.4681 0.8777 -0.1021
vn 0.7072 0.6233 0.3337
vn 0.9832 0.1156 -0.1412
vn -0.9772 0.1370 -0.1625
vn 0.9840 0.1126 0.1382
vn -0.4450 0.8712 0.2075
vn -0.4170 0.8680 0.2696
vn -0.7072 0.6233 -0.3337
vn -0.9782 0.1335 0.1591
vn 0.4280 -0.8818 -0.1982
vn 0.8606 0.4037 0.3106
vn 0.7052 0.6242 -0.3362
vn -0.8606 0.4037 -0.3106
vn -0.7052 0.6242 0.3362
vn -0.4374 -0.8761 0.2027
vn -0.4757 -0.8733 0.1053
vn -0.4757 -0.8733 -0.1053
vn -0.7110 -0.6195 -0.3329
vn -0.9762 -0.1414 0.1641
vn 0.9528 -0.1603 0.2576
vn -0.9618 -0.1349 -0.2382
vn 0.4243 -0.8638 -0.2717
vn 0.4243 -0.8638 0.2717
vn 0.7110 -0.6195 0.3329
vn 0.9552 -0.1550 -0.2522
vn -0.8588 -0.4070 -0.3111
vn -0.7099 -0.6200 0.3342
vn 0.8587 -0.4072 0.3111
vn 0.7099 -0.6200 -0.3342
vn 0.2985 0.0726 -0.9517
vn 0.2985 0.0726 0.9517
vn -0.2996 0.0710 0.9514
vn 0.4510 -0.8519 -0.2661
vn -0.2967 0.0752 -0.9520
vn 0.3638 0.0062 0.9314
vn 0.4525 0.0512 -0.8903
vn -0.8465 0.2941 -0.4437
vn -0.4525 0.0512 0.8903
vn 0.4400 0.0722 0.8951
vn 0.3473 -0.0032 -0.9378
vn -0.4400 0.0722 -0.8951
vn -0.3473 -0.0032 0.9378
vn 0.4681 0.8777 0.1021
vn 0.4513 0.8774 0.1630
vn 0.8325 0.3803 -0.4029
vn -0.8615 -0.4019 0.3103
vn -0.4374 -0.8761 -0.2027
vn 0.1021 0.8777 -0.4681
vn -0.0258 0.8673 -0.4971
vn -0.8324 0.3803 0.4030
vn -0.4170 0.8680 -0.2696
vn -0.4308 0.8729 -0.2290
vn 0.8588 -0.4070 -0.3111
vn 0.4359 -0.8679 0.2383
vn 0.4028 0.3803 0.8326
vn -0.1021 0.8777 0.4681
vn 0.0258 0.8673 0.4971
vn -0.3103 -0.4019 -0.8615
vn 0.1787 -0.9047 -0.3867
vn 0.8161 0.3285 -0.4755
vn -0.6153 0.7010 -0.3605
vn -0.0000 0.7014 0.7127
vn -0.8124 0.3364 -0.4763
vn 0.6188 0.6975 -0.3614
vn -0.0258 0.8673 0.4971
vn -0.3362 0.6242 0.7052
vn 0.0258 0.8673 -0.4971
vn -0.3106 0.4037 -0.8606
vn 0.3362 0.6242 -0.7052
vn 0.3798 -0.3847 0.8413
vn 0.0145 -0.8640 0.5033
vn -0.4029 0.3803 0.8325
vn 0.3337 0.6233 0.7072
vn 0.4028 0.3803 -0.8326
vn -0.3337 0.6233 -0.7072
vn 0.0145 -0.8640 -0.5033
vn 0.3342 -0.6200 -0.7099
vn -0.0145 -0.8640 0.5033
vn -0.3342 -0.6200 0.7099
vn 0.3751 -0.3855 -0.8430
vn -0.3329 -0.6195 -0.7110
vn -0.4144 -0.3784 0.8277
vn 0.3329 -0.6195 0.7110
vn -0.8903 0.0512 0.4525
vn 0.9314 0.0062 0.3638
vn 0.8903 0.0512 -0.4525
vn -0.4437 0.2941 -0.8465
vn -0.9378 -0.0032 0.3473
vn 0.8951 0.0722 0.4400
vn 0.9378 -0.0032 -0.3473
vn -0.8951 0.0722 -0.4400
vn 0.4513 0.8774 -0.1630
vn 0.7052 0.6242 0.3362
vn -0.4308 0.8729 0.2290
vn -0.7052 0.6242 -0.3362
vn 0.4536 -0.8722 -0.1831
vn 0.8325 0.3803 0.4029
vn 0.7072 0.6233 -0.3337
vn -0.8325 0.3803 -0.4029
vn -0.7072 0.6233 0.3337
vn -0.4567 -0.8727 0.1730
vn -0.7099 -0.6200 -0.3342
vn 0.7099 -0.6200 0.3342
vn -0.8277 -0.3785 -0.4143
vn -0.7110 -0.6195 0.3329
vn 0.8268 -0.3780 0.4165
vn 0.7110 -0.6195 -0.3329
vn -0.2619 -0.0010 -0.9651
vn 0.4525 0.0512 0.8903
vn 0.8463 0.2939 -0.4442
vn -0.4525 0.0512 -0.8903
vn -0.8420 0.2904 0.4546
vn 0.3473 -0.0032 0.9378
vn 0.4400 0.0722 -0.8951
vn -0.3473 -0.0032 -0.9378
vn -0.4400 0.0722 0.8951
vn 0.4280 0.8815 0.1994
vn 0.8605 0.4037 -0.3106
vn -0.8430 -0.3855 0.3751
vn -0.4567 -0.8727 -0.1730
vn 0.1750 0.9095 -0.3772
vn -0.8605 0.4037 0.3106
vn -0.4450 0.8712 -0.2075
vn 0.8276 -0.3784 -0.4146
vn 0.4543 -0.8656 0.2107
vn 0.3106 0.4037 0.8606
vn -0.1750 0.9095 0.3772
vn -0.3751 -0.3855 -0.8430
vn -0.0145 -0.8640 -0.5033
vt 0.609878 0.030392
vt 0.610496 0.026993
vt 0.610497 0.030392
vt 0.611757 0.021725
vt 0.611523 0.027019
vt 0.610496 0.026993
vt 0.609458 0.026993
vt 0.611523 0.027019
vt 0.611111 0.030392
vt 0.609220 0.021673
vt 0.609458 0.026993
vt 0.610493 0.021673
vt 0.609220 0.021673
vt 0.610493 0.021673
vt 0.611757 0.005768
vt 0.609220 0.005715
vt 0.610493 0.005715
vt 0.609220 0.005715
vt 0.610493 0.005716
vt 0.202723 0.139367
vt 0.203644 0.145944
vt 0.202551 0.139343
vt 0.204187 0.149469
vt 0.204053 0.149094
vt 0.202316 0.133399
vt 0.201845 0.120042
vt 0.201842 0.121261
vt 0.201757 0.110243
vt 0.201652 0.120042
vt 0.201655 0.121261
vt 0.201842 0.121261
vt 0.200774 0.139367
vt 0.199853 0.145944
vt 0.200946 0.139343
vt 0.199310 0.149469
vt 0.199444 0.149094
vt 0.201181 0.133399
vt 0.201164 0.133261
vt 0.201637 0.121172
vt 0.201224 0.134160
vt 0.200761 0.139246
vt 0.200933 0.139225
vt 0.202259 0.134292
vt 0.201238 0.134292
vt 0.202736 0.139246
vt 0.202564 0.139225
vt 0.202333 0.133261
vt 0.201861 0.121171
vt 0.201865 0.120011
vt 0.201632 0.120003
vt 0.201647 0.121171
vt 0.202274 0.134160
vt 0.201749 0.139367
vt 0.201092 0.147076
vt 0.201389 0.139343
vt 0.201749 0.149469
vt 0.201386 0.149094
vt 0.201749 0.133399
vt 0.202109 0.139343
vt 0.201749 0.120042
vt 0.201749 0.120042
vt 0.202406 0.147477
vt 0.201749 0.148466
vt 0.202111 0.149094
vt 0.202213 0.141853
vt 0.201749 0.139246
vt 0.202113 0.139225
vt 0.201996 0.134292
vt 0.201501 0.134292
vt 0.201749 0.139246
vt 0.201384 0.139225
vt 0.202111 0.149094
vt 0.201749 0.133261
vt 0.201749 0.120011
vt 0.201749 0.120003
vt 0.201386 0.149094
vt 0.201384 0.139225
vt 0.202004 0.134160
vt 0.201493 0.134160
vt 0.202406 0.147076
vt 0.201092 0.147477
s 0
usemtl Texture_Map
f 14/1/1 6/2/1 13/3/1
f 6/2/2 8/4/2 1/5/2
f 15/1/3 3/6/3 4/7/3
f 16/3/4 2/8/4 3/6/4
f 14/1/5 13/3/5 17/9/5
f 4/7/6 11/10/6 5/11/6
f 4/7/7 9/12/7 10/13/7
f 15/1/8 5/11/8 14/1/8
f 3/6/9 7/4/9 9/12/9
f 2/8/10 8/4/10 7/4/10
f 13/3/11 1/5/11 17/9/11
f 18/9/12 1/5/12 2/8/12
f 5/11/13 12/14/13 6/2/13
f 8/4/14 19/15/14 7/4/14
f 12/14/15 23/16/15 24/17/15
f 11/10/16 22/18/16 23/16/16
f 12/14/17 20/15/17 8/4/17
f 10/13/18 21/19/18 22/18/18
f 9/12/19 19/15/19 21/19/19
f 32/20/20 26/21/20 33/22/20
f 32/20/21 28/23/21 30/24/21
f 45/25/22 31/22/22 32/20/22
f 46/26/23 86/27/23 25/28/23
f 50/29/24 25/28/24 83/30/24
f 46/26/25 25/28/25 44/31/25
f 40/32/26 34/33/26 41/34/26
f 40/32/27 36/35/27 38/36/27
f 49/37/28 91/30/28 50/29/28
f 49/37/29 39/34/29 40/32/29
f 25/28/30 50/29/30 91/30/30
f 65/38/31 108/39/31 63/40/31
f 55/41/32 35/33/32 54/42/32
f 45/25/33 44/31/33 43/43/33
f 45/25/34 33/22/34 42/43/34
f 49/37/35 83/30/35 48/44/35
f 49/37/36 41/34/36 47/44/36
f 26/21/37 52/45/37 53/46/37
f 30/24/38 28/23/38 52/45/38
f 52/45/39 28/23/39 29/24/39
f 51/46/40 61/47/40 52/45/40
f 25/28/41 57/48/41 62/49/41
f 25/28/42 66/50/42 101/51/42
f 25/28/43 62/49/43 60/48/43
f 34/33/44 55/41/44 56/42/44
f 38/36/45 36/35/45 55/41/45
f 55/41/46 36/35/46 37/36/46
f 54/42/47 65/38/47 55/41/47
f 108/39/48 66/50/48 25/28/48
f 60/48/49 61/47/49 59/52/49
f 53/46/50 61/47/50 58/52/50
f 101/51/51 65/38/51 64/40/51
f 56/42/52 65/38/52 63/40/52
f 27/21/53 31/22/53 51/46/53
f 33/22/54 26/21/54 53/46/54
f 35/33/55 39/34/55 54/42/55
f 41/34/56 34/33/56 56/42/56
f 86/27/57 58/52/57 57/48/57
f 44/31/58 59/52/58 43/43/58
f 91/30/59 63/40/59 108/39/59
f 83/30/60 64/40/60 48/44/60
f 33/22/61 58/52/61 42/43/61
f 31/22/62 59/52/62 51/46/62
f 41/34/63 63/40/63 47/44/63
f 39/34/64 64/40/64 54/42/64
f 73/53/65 67/54/65 74/55/65
f 73/53/66 69/56/66 71/57/66
f 87/58/67 72/59/67 73/53/67
f 83/30/68 25/28/68 88/60/68
f 93/61/69 25/28/69 91/30/69
f 88/60/70 25/28/70 86/27/70
f 81/53/71 75/62/71 82/59/71
f 81/53/72 77/63/72 79/64/72
f 92/58/73 80/55/73 81/53/73
f 25/28/74 93/61/74 44/31/74
f 97/65/75 99/66/75 100/67/75
f 87/58/76 86/27/76 85/68/76
f 87/58/77 74/55/77 84/69/77
f 92/58/78 91/30/78 90/69/78
f 92/58/79 82/59/79 89/68/79
f 67/54/80 95/70/80 96/71/80
f 71/57/81 69/56/81 95/70/81
f 95/70/82 69/56/82 70/72/82
f 94/67/83 104/73/83 95/70/83
f 25/28/84 101/51/84 105/74/84
f 25/28/85 110/75/85 108/39/85
f 25/28/86 105/74/86 57/48/86
f 79/64/87 77/63/87 99/66/87
f 99/66/88 77/63/88 78/76/88
f 98/77/89 109/73/89 99/66/89
f 60/48/90 110/75/90 25/28/90
f 57/48/91 104/73/91 103/78/91
f 96/71/92 104/73/92 102/79/92
f 108/39/93 109/73/93 107/79/93
f 100/67/94 109/73/94 106/78/94
f 68/80/95 72/59/95 94/67/95
f 74/55/96 67/54/96 96/71/96
f 76/81/97 80/55/97 98/77/97
f 75/62/98 79/64/98 97/65/98
f 82/59/99 97/65/99 100/67/99
f 83/30/100 102/79/100 101/51/100
f 86/27/101 103/78/101 85/68/101
f 44/31/102 106/78/102 60/48/102
f 91/30/103 107/79/103 90/69/103
f 74/55/104 102/79/104 84/69/104
f 72/59/105 103/78/105 94/67/105
f 82/59/106 106/78/106 89/68/106
f 80/55/107 107/79/107 98/77/107
f 69/56/108 73/53/108 70/72/108
f 73/53/109 68/80/109 70/72/109
f 87/58/110 83/30/110 88/60/110
f 104/73/111 101/51/111 102/79/111
f 95/70/112 68/80/112 94/67/112
f 36/35/113 40/32/113 37/36/113
f 40/32/114 35/33/114 37/36/114
f 92/58/115 44/31/115 93/61/115
f 77/63/116 81/53/116 78/76/116
f 81/53/117 76/81/117 78/76/117
f 109/73/118 60/48/118 106/78/118
f 76/81/119 99/66/119 78/76/119
f 45/25/120 86/27/120 46/26/120
f 28/23/121 32/20/121 29/24/121
f 32/20/122 27/21/122 29/24/122
f 61/47/123 57/48/123 58/52/123
f 52/45/124 27/21/124 51/46/124
f 14/1/1 5/11/1 6/2/1
f 6/2/125 12/14/125 8/4/125
f 15/1/3 16/3/3 3/6/3
f 16/3/126 18/9/126 2/8/126
f 17/9/5 18/9/5 15/1/5
f 18/9/5 16/3/5 15/1/5
f 15/1/5 14/1/5 17/9/5
f 4/7/6 10/13/6 11/10/6
f 4/7/7 3/6/7 9/12/7
f 15/1/127 4/7/127 5/11/127
f 3/6/128 2/8/128 7/4/128
f 2/8/10 1/5/10 8/4/10
f 13/3/129 6/2/129 1/5/129
f 18/9/12 17/9/12 1/5/12
f 5/11/13 11/10/13 12/14/13
f 8/4/14 20/15/14 19/15/14
f 12/14/15 11/10/15 23/16/15
f 11/10/16 10/13/16 22/18/16
f 12/14/17 24/17/17 20/15/17
f 10/13/18 9/12/18 21/19/18
f 9/12/19 7/4/19 19/15/19
f 32/20/130 30/24/130 26/21/130
f 45/25/131 43/43/131 31/22/131
f 40/32/132 38/36/132 34/33/132
f 49/37/133 47/44/133 91/30/133
f 49/37/134 48/44/134 39/34/134
f 65/38/135 66/50/135 108/39/135
f 55/41/136 37/36/136 35/33/136
f 45/25/137 46/26/137 44/31/137
f 45/25/138 32/20/138 33/22/138
f 49/37/139 50/29/139 83/30/139
f 49/37/140 40/32/140 41/34/140
f 26/21/141 30/24/141 52/45/141
f 51/46/142 59/52/142 61/47/142
f 34/33/143 38/36/143 55/41/143
f 54/42/144 64/40/144 65/38/144
f 60/48/145 62/49/145 61/47/145
f 53/46/146 52/45/146 61/47/146
f 101/51/147 66/50/147 65/38/147
f 56/42/148 55/41/148 65/38/148
f 86/27/149 42/43/149 58/52/149
f 44/31/150 60/48/150 59/52/150
f 91/30/151 47/44/151 63/40/151
f 83/30/152 101/51/152 64/40/152
f 33/22/153 53/46/153 58/52/153
f 31/22/154 43/43/154 59/52/154
f 41/34/155 56/42/155 63/40/155
f 39/34/156 48/44/156 64/40/156
f 73/53/157 71/57/157 67/54/157
f 87/58/158 85/68/158 72/59/158
f 81/53/159 79/64/159 75/62/159
f 92/58/160 90/69/160 80/55/160
f 97/65/161 79/64/161 99/66/161
f 87/58/162 88/60/162 86/27/162
f 87/58/163 73/53/163 74/55/163
f 92/58/164 93/61/164 91/30/164
f 92/58/165 81/53/165 82/59/165
f 67/54/166 71/57/166 95/70/166
f 94/67/167 103/78/167 104/73/167
f 98/77/168 107/79/168 109/73/168
f 57/48/169 105/74/169 104/73/169
f 96/71/170 95/70/170 104/73/170
f 108/39/171 110/75/171 109/73/171
f 100/67/172 99/66/172 109/73/172
f 82/59/173 75/62/173 97/65/173
f 83/30/174 84/69/174 102/79/174
f 86/27/175 57/48/175 103/78/175
f 44/31/176 89/68/176 106/78/176
f 91/30/177 108/39/177 107/79/177
f 74/55/178 96/71/178 102/79/178
f 72/59/179 85/68/179 103/78/179
f 82/59/180 100/67/180 106/78/180
f 80/55/181 90/69/181 107/79/181
f 73/53/182 72/59/182 68/80/182
f 87/58/183 84/69/183 83/30/183
f 104/73/184 105/74/184 101/51/184
f 95/70/185 70/72/185 68/80/185
f 40/32/186 39/34/186 35/33/186
f 92/58/187 89/68/187 44/31/187
f 81/53/188 80/55/188 76/81/188
f 109/73/189 110/75/189 60/48/189
f 76/81/190 98/77/190 99/66/190
f 45/25/191 42/43/191 86/27/191
f 32/20/192 31/22/192 27/21/192
f 61/47/193 62/49/193 57/48/193
f 52/45/194 29/24/194 27/21/194
