# Blender 4.4.0
# www.blender.org
mtllib Crop_Garlic_01.mtl
o Crop_Garlic_01
v -0.017214 -0.006207 0.036239
v 0.007059 0.021353 0.033383
v -0.004843 -0.030477 0.010535
v -0.011008 -0.030477 0.002808
v -0.029623 0.021353 0.006983
v -0.038891 -0.006207 0.009204
v -0.037920 -0.006206 0.024957
v -0.011758 -0.030477 0.009653
v -0.029702 0.021257 0.020760
v -0.026344 -0.024742 0.024072
v -0.027732 -0.006207 0.033979
v -0.002471 0.062101 0.001747
v -0.008523 -0.030477 0.010833
v -0.021495 0.021353 0.026492
v -0.012185 -0.030477 0.006233
v -0.029725 -0.024618 0.008814
v -0.008858 -0.030477 -0.006729
v -0.023768 0.021353 -0.018579
v -0.042954 -0.006194 -0.013969
v -0.014657 -0.030477 -0.003057
v -0.034536 0.021265 -0.010115
v -0.035033 -0.024743 -0.005432
v -0.043628 -0.006207 -0.000347
v -0.002695 0.062101 -0.000686
v -0.013561 -0.030477 0.000210
v -0.033891 0.021353 -0.000137
v -0.012250 -0.030477 -0.005521
v -0.025175 -0.024619 -0.017666
v -0.000003 0.021353 -0.029994
v -0.031128 -0.006207 -0.024657
v -0.019576 -0.006207 -0.040261
v -0.006531 -0.030477 -0.013254
v -0.013410 0.021257 -0.033178
v -0.017417 -0.024715 -0.030571
v -0.026697 -0.006207 -0.034147
v -0.000931 0.062101 -0.002376
v -0.008401 -0.030477 -0.010354
v -0.020823 0.021353 -0.026443
v -0.003219 -0.030477 -0.013423
v -0.010369 -0.006207 -0.042045
v -0.001924 -0.024685 -0.030509
v -0.000033 -0.030477 -0.011630
v 0.008814 -0.030477 -0.006625
v -0.000037 -0.006207 -0.039547
v 0.019482 -0.006207 -0.040261
v 0.006514 -0.030477 -0.013263
v 0.017786 0.021249 -0.031027
v 0.013260 -0.024734 -0.032526
v 0.010269 -0.006207 -0.042038
v 0.001490 0.062101 -0.002052
v 0.003203 -0.030477 -0.013428
v 0.007898 0.021353 -0.032603
v 0.008378 -0.030477 -0.010360
v 0.026619 -0.006207 -0.034175
v 0.022983 -0.024618 -0.020249
v 0.029482 0.021353 0.007042
v 0.023688 0.021353 -0.018553
v 0.038777 -0.006207 0.009186
v 0.031085 -0.006192 -0.024504
v 0.044792 -0.006203 -0.005513
v 0.014633 -0.030477 -0.003057
v 0.035548 0.021261 -0.005294
v 0.033953 -0.024741 -0.009736
v 0.039478 -0.006207 -0.018032
v 0.002746 0.062101 0.000042
v 0.012221 -0.030477 -0.005520
v 0.030621 0.021353 -0.014000
v 0.013531 -0.030477 0.000210
v 0.030374 -0.024623 0.005455
v 0.010986 -0.030477 0.002782
v 0.017155 -0.006207 0.036233
v 0.032444 -0.006196 0.031735
v 0.011737 -0.030477 0.009655
v 0.026519 0.021258 0.024639
v 0.029010 -0.024712 0.020511
v 0.038922 -0.006207 0.019771
v 0.001891 0.062101 0.002331
v 0.012158 -0.030477 0.006233
v 0.030258 0.021353 0.015368
v 0.008831 -0.030477 0.011241
v 0.015154 -0.024694 0.027165
v 0.005177 -0.030477 0.010974
v -0.013192 0.021353 0.027603
v 0.013058 0.021353 0.027620
v -0.000047 -0.006207 0.045302
v -0.000011 -0.030477 0.015301
v -0.002522 0.021254 0.036245
v 0.002216 -0.024726 0.035663
v 0.009018 -0.006207 0.042894
v -0.000430 0.062101 0.003090
v 0.003045 -0.030477 0.014021
v -0.002952 -0.030477 0.013502
v -0.009115 -0.006207 0.042884
v -0.011878 -0.024620 0.028823
v -0.000047 0.058904 -0.004664
v -0.004339 0.058904 -0.002186
v -0.004339 0.058904 0.002770
v -0.000047 0.058904 0.005248
v 0.004245 0.058904 0.002770
v 0.004245 0.058904 -0.002186
v -0.000047 0.078106 -0.002831
v -0.002752 0.076901 -0.001269
v -0.002752 0.078106 0.001854
v -0.000047 0.076901 0.003415
v 0.002658 0.078106 0.001854
v 0.002658 0.076901 -0.001269
v -0.000051 -0.031424 -0.019369
v -0.014718 -0.031424 -0.008175
v -0.017078 -0.031424 0.010124
v -0.000051 -0.031424 0.017229
v 0.016977 -0.031424 0.010124
v 0.014616 -0.031424 -0.008175
v -0.000051 -0.027414 -0.019412
v -0.017116 -0.027414 -0.009560
v -0.017116 -0.027414 0.010146
v -0.000051 -0.027414 0.019998
v 0.017015 -0.027414 0.010146
v 0.017015 -0.027414 -0.009560
vn 0.5773 0.5528 0.6009
vn -0.6006 0.3212 0.7321
vn -0.5684 -0.4438 0.6928
vn 0.2669 0.3313 0.9050
vn 0.4977 -0.4248 0.7562
vn 0.6582 0.3120 0.6851
vn 0.2215 0.6077 0.7627
vn -0.1106 0.5531 0.8258
vn -0.9539 0.2944 0.0588
vn -0.8934 -0.4459 0.0551
vn -0.1012 -0.9553 0.2776
vn -0.5426 0.3324 0.7714
vn -0.2789 -0.4272 0.8601
vn -0.1260 0.3133 0.9412
vn 0.0254 -0.9492 0.3137
vn -0.4594 0.6078 0.6477
vn -0.3120 -0.9481 0.0615
vn -0.7147 0.5529 0.4284
vn -0.6403 0.2958 -0.7089
vn -0.6003 -0.4461 -0.6637
vn -0.2798 -0.9555 0.0939
vn -0.9414 0.3322 0.0580
vn -0.8457 -0.4278 0.3189
vn -0.8145 0.3133 0.4883
vn -0.2258 -0.9486 0.2218
vn -0.7929 0.6076 0.0459
vn -0.2429 -0.9481 -0.2053
vn -0.7800 0.5533 -0.2921
vn 0.2225 0.3218 -0.9203
vn 0.2103 -0.4468 -0.8696
vn -0.2496 -0.9549 -0.1608
vn -0.6323 0.3306 -0.7007
vn -0.7764 -0.4270 -0.4635
vn -0.8900 0.3112 -0.3333
vn -0.3140 -0.9486 -0.0396
vn -0.5295 0.6079 -0.5916
vn -0.1677 -0.4725 -0.8652
vn -0.1825 0.2838 -0.9414
vn 0.0031 -0.9483 -0.3175
vn -0.2614 0.5524 -0.7915
vn 0.8593 0.3220 -0.3973
vn 0.8136 -0.4444 -0.3750
vn 0.0140 -0.9596 -0.2812
vn 0.1519 0.3318 -0.9311
vn -0.1205 -0.4262 -0.8966
vn -0.2979 0.3130 -0.9018
vn -0.1533 -0.9489 -0.2758
vn 0.1312 0.6078 -0.7832
vn 0.5720 -0.4721 -0.6708
vn 0.6222 0.2838 -0.7297
vn 0.2551 -0.9474 -0.1931
vn 0.4573 0.5529 -0.6965
vn 0.8843 0.2948 0.3620
vn 0.8282 -0.4465 0.3388
vn 0.2119 -0.9550 -0.2074
vn 0.8225 0.3319 -0.4619
vn 0.6236 -0.4256 -0.6557
vn 0.5215 0.3117 -0.7943
vn 0.0988 -0.9473 -0.3047
vn 0.6939 0.6078 -0.3862
vn 0.3091 -0.9477 0.0801
vn 0.8297 0.5528 -0.0774
vn 0.2695 0.2951 0.9167
vn 0.2527 -0.4480 0.8576
vn 0.2957 -0.9546 0.0364
vn 0.8738 0.3315 0.3558
vn 0.9008 -0.4270 0.0791
vn 0.9459 0.3122 -0.0882
vn 0.3004 -0.9483 -0.1021
vn 0.7342 0.6079 0.3024
vn 0.1364 -0.9483 0.2866
vn 0.1085 -0.9597 0.2592
vn 0.2576 -0.9493 0.1803
vn -0.2272 -0.4713 0.8522
vn -0.2471 0.2834 0.9266
vn -0.1447 -0.9480 0.2836
vn 0.2576 0.5595 0.7878
vn -0.2937 -0.9374 0.1872
vn -0.5949 0.3181 0.7382
vn 0.2429 0.3235 0.9145
vn 0.5586 -0.4716 0.6823
vn 0.6047 0.2979 0.7387
vn -0.5209 0.5539 0.6495
vn -0.4557 0.5593 0.6925
vn -0.3297 -0.9373 -0.1133
vn -0.9479 0.3185 -0.0032
vn -0.6328 0.2985 0.7145
vn -0.6047 -0.4102 0.6827
vn -0.1850 -0.4740 0.8609
vn -0.2005 0.2989 0.9330
vn -0.0884 -0.9519 0.2934
vn -0.8305 -0.5273 0.1797
vn -0.8322 0.5544 -0.0009
vn -0.3114 -0.9495 0.0389
vn -0.8253 0.5596 0.0758
vn -0.1168 -0.9375 -0.3279
vn -0.5869 0.3207 -0.7434
vn -0.9532 0.2988 -0.0468
vn -0.9110 -0.4099 -0.0454
vn -0.7892 -0.4733 0.3914
vn -0.8550 0.2988 0.4240
vn -0.2842 -0.9519 0.1143
vn -0.6586 -0.5280 -0.5361
vn -0.5173 0.5540 -0.6523
vn -0.2244 -0.9495 -0.2192
vn -0.5736 0.5594 -0.5984
vn 0.1714 -0.9369 -0.3046
vn 0.2168 0.3195 -0.9225
vn -0.6164 0.3235 -0.7179
vn -0.5888 -0.4277 -0.6858
vn -0.7986 -0.4724 -0.3729
vn -0.8651 0.2973 -0.4040
vn -0.2658 -0.9518 -0.1527
vn 0.0045 -0.5281 -0.8492
vn 0.1886 0.5539 -0.8109
vn -0.0164 -0.9466 -0.3221
vn 0.1099 0.5594 -0.8216
vn 0.3482 -0.9366 -0.0407
vn 0.8560 0.3179 -0.4076
vn 0.1792 0.3235 -0.9291
vn 0.1712 -0.4280 -0.8874
vn -0.2070 -0.4731 -0.8564
vn -0.2242 0.2983 -0.9278
vn -0.0441 -0.9501 -0.3089
vn 0.6680 -0.5283 -0.5241
vn 0.7505 0.5545 -0.3597
vn 0.2653 -0.9490 -0.1704
vn 0.7106 0.5597 -0.4263
vn 0.2489 -0.9367 0.2463
vn 0.8513 0.3195 0.4162
vn 0.8784 0.2987 -0.3730
vn 0.8397 -0.4098 -0.3563
vn 0.5376 -0.4728 -0.6982
vn 0.5832 0.2980 -0.7557
vn 0.2071 -0.9516 -0.2272
vn 0.8257 -0.5280 0.1986
vn 0.7488 0.5539 0.3641
vn 0.2985 -0.9491 0.1006
vn 0.7765 0.5593 0.2901
vn -0.0256 -0.9363 0.3502
vn 0.2070 0.3197 0.9246
vn 0.8394 0.2985 0.4542
vn 0.8012 -0.4118 0.4342
vn 0.8812 -0.4725 -0.0121
vn 0.9545 0.2980 -0.0131
vn 0.3067 -0.9515 0.0222
vn 0.3662 -0.5311 0.7641
vn 0.1837 0.5542 0.8119
vn 0.1542 -0.9468 0.2826
vn 0.2322 -0.4266 0.8741
vn 0.1725 -0.9503 0.2592
vn -0.3743 -0.5267 0.7632
vn -0.1637 -0.9495 0.2676
vn 0.5290 0.7917 -0.3054
vn 0.4981 0.0878 -0.8627
vn 0.4981 0.0878 0.8627
vn -0.9961 0.0878 -0.0000
vn 0.9962 0.0808 -0.0312
vn -0.4711 0.0808 0.8784
vn -0.5251 0.0809 -0.8472
vn -0.0000 -1.0000 -0.0000
vn 0.9917 -0.0087 -0.1279
vn -0.3851 -0.0087 0.9228
vn -0.6067 -0.0087 -0.7949
vn 0.6067 -0.0087 -0.7949
vn 0.3851 -0.0087 0.9228
vn -0.9917 -0.0087 -0.1279
vn -0.5290 0.7917 -0.3054
vn 0.3117 0.9330 0.1800
vn -0.3117 0.9330 0.1800
vn 0.5251 0.0809 -0.8472
vn 0.4711 0.0808 0.8784
vn -0.9962 0.0808 -0.0312
vn 0.9961 0.0878 -0.0000
vn -0.4981 0.0878 0.8627
vn -0.4981 0.0878 -0.8627
vn 0.8582 -0.5133 -0.0000
vn -0.4291 -0.5133 0.7432
vn -0.4291 -0.5133 -0.7432
vn 0.4291 -0.5133 -0.7432
vn 0.4291 -0.5133 0.7432
vn -0.8582 -0.5133 -0.0000
vt 0.836073 0.870526
vt 0.842835 0.894824
vt 0.834484 0.870526
vt 0.833695 0.870466
vt 0.833696 0.854091
vt 0.831864 0.854091
vt 0.835741 0.843111
vt 0.831862 0.854091
vt 0.833698 0.854091
vt 0.833855 0.843048
vt 0.836198 0.843066
vt 0.836077 0.870526
vt 0.843205 0.894824
vt 0.836384 0.870526
vt 0.837964 0.870468
vt 0.841150 0.854091
vt 0.836807 0.854091
vt 0.841257 0.843112
vt 0.837051 0.843038
vt 0.841026 0.839618
vt 0.840701 0.839618
vt 0.834319 0.854091
vt 0.840783 0.839618
vt 0.841762 0.870526
vt 0.843876 0.894824
vt 0.843725 0.870526
vt 0.846476 0.870473
vt 0.850485 0.854091
vt 0.847538 0.854098
vt 0.848557 0.843111
vt 0.845184 0.843037
vt 0.844530 0.839618
vt 0.843629 0.839618
vt 0.843783 0.854091
vt 0.842913 0.839618
vt 0.848809 0.870526
vt 0.844342 0.894824
vt 0.850977 0.870526
vt 0.852834 0.870468
vt 0.854589 0.854091
vt 0.855278 0.854091
vt 0.852098 0.843072
vt 0.852115 0.843054
vt 0.847341 0.839618
vt 0.846541 0.839618
vt 0.853101 0.854091
vt 0.845542 0.839618
vt 0.854786 0.854091
vt 0.851956 0.870526
vt 0.844253 0.894824
vt 0.852675 0.870526
vt 0.852241 0.870464
vt 0.850442 0.854099
vt 0.853109 0.854091
vt 0.849269 0.843112
vt 0.852654 0.843043
vt 0.847343 0.839618
vt 0.847389 0.839618
vt 0.855276 0.854091
vt 0.846893 0.839618
vt 0.848802 0.870526
vt 0.843675 0.894824
vt 0.847547 0.870526
vt 0.845146 0.870470
vt 0.841155 0.854091
vt 0.845207 0.854093
vt 0.842183 0.843109
vt 0.846371 0.843039
vt 0.844530 0.839618
vt 0.845209 0.839618
vt 0.848658 0.854091
vt 0.845513 0.839618
vt 0.841746 0.870526
vt 0.843044 0.894824
vt 0.839450 0.870526
vt 0.836894 0.870469
vt 0.834938 0.854097
vt 0.838032 0.843056
vt 0.841025 0.839618
vt 0.841969 0.839618
vt 0.838237 0.854091
vt 0.842920 0.839618
vt 0.839469 0.839618
vt 0.839822 0.839618
vt 0.840662 0.839618
vt 0.831198 0.854091
vt 0.839965 0.839618
vt 0.841969 0.839618
vt 0.845209 0.839618
vt 0.847387 0.839618
vt 0.846543 0.839618
vt 0.840588 0.839618
vt 0.843176 0.904368
vt 0.844037 0.903650
vt 0.844468 0.904368
vt 0.844973 0.892918
vt 0.844290 0.892918
vt 0.842923 0.892918
vt 0.842745 0.903650
vt 0.842240 0.892918
vt 0.212374 0.237053
vt 0.205371 0.237053
vt 0.207323 0.239444
vt 0.207329 0.237053
vt 0.215472 0.239444
vt 0.215460 0.237053
vt 0.212756 0.239444
vt 0.204607 0.239444
s 0
usemtl Texture_Map
f 84/1/1 90/2/1 2/3/1
f 87/4/2 1/5/2 93/6/2
f 1/5/3 94/7/3 93/6/3
f 87/4/4 89/8/4 2/3/4
f 71/9/5 88/10/5 81/11/5
f 2/3/6 71/9/6 84/1/6
f 2/3/7 90/2/7 87/4/7
f 83/12/8 12/13/8 14/14/8
f 9/15/9 6/16/9 7/17/9
f 6/16/10 16/18/10 7/17/10
f 10/19/11 8/20/11 13/21/11
f 9/15/12 11/22/12 14/14/12
f 1/5/13 10/19/13 94/7/13
f 14/14/14 1/5/14 83/12/14
f 94/7/15 13/21/15 3/23/15
f 14/14/16 12/13/16 9/15/16
f 16/18/17 8/20/17 10/19/17
f 5/24/18 24/25/18 26/26/18
f 21/27/19 30/28/19 19/29/19
f 30/28/20 28/30/20 19/29/20
f 22/31/21 20/32/21 25/33/21
f 21/27/22 23/34/22 26/26/22
f 6/16/23 22/31/23 16/18/23
f 26/26/24 6/16/24 5/24/24
f 16/18/25 25/33/25 4/35/25
f 26/26/26 24/25/26 21/27/26
f 28/30/27 20/32/27 22/31/27
f 18/36/28 36/37/28 38/38/28
f 33/39/29 44/40/29 40/41/29
f 44/40/30 41/42/30 40/41/30
f 34/43/31 32/44/31 37/45/31
f 33/39/32 35/46/32 38/38/32
f 30/28/33 34/43/33 28/30/33
f 38/38/34 30/28/34 18/36/34
f 28/30/35 37/45/35 17/47/35
f 38/38/36 36/37/36 33/39/36
f 40/41/37 34/43/37 31/48/37
f 33/39/38 40/41/38 31/48/38
f 41/42/39 32/44/39 34/43/39
f 29/49/40 50/50/40 52/51/40
f 47/52/41 59/53/41 54/54/41
f 59/53/42 55/55/42 54/54/42
f 48/56/43 46/57/43 51/58/43
f 47/52/44 49/59/44 52/51/44
f 44/40/45 48/56/45 41/42/45
f 52/51/46 44/40/46 29/49/46
f 41/42/47 51/58/47 42/60/47
f 52/51/48 50/50/48 47/52/48
f 54/54/49 48/56/49 45/48/49
f 47/52/50 54/54/50 45/48/50
f 55/55/51 46/57/51 48/56/51
f 57/61/52 65/62/52 67/63/52
f 62/64/53 58/65/53 60/66/53
f 58/65/54 69/67/54 60/66/54
f 63/68/55 61/69/55 66/70/55
f 62/64/56 64/71/56 67/63/56
f 59/53/57 63/68/57 55/55/57
f 67/63/58 59/53/58 57/61/58
f 55/55/59 66/70/59 43/72/59
f 67/63/60 65/62/60 62/64/60
f 69/67/61 61/69/61 63/68/61
f 56/73/62 77/74/62 79/75/62
f 74/76/63 71/9/63 72/77/63
f 71/9/64 81/11/64 72/77/64
f 75/78/65 73/79/65 78/80/65
f 74/76/66 76/81/66 79/75/66
f 58/65/67 75/78/67 69/67/67
f 79/75/68 58/65/68 56/73/68
f 69/67/69 78/80/69 70/82/69
f 79/75/70 77/74/70 74/76/70
f 81/11/71 73/79/71 75/78/71
f 88/10/72 86/83/72 91/84/72
f 81/11/73 91/84/73 82/85/73
f 93/6/74 88/10/74 85/86/74
f 87/4/75 93/6/75 85/86/75
f 94/7/76 86/83/76 88/10/76
f 84/1/77 77/74/77 90/2/77
f 94/7/78 3/23/78 92/87/78
f 87/4/79 83/12/79 1/5/79
f 87/4/80 85/86/80 89/8/80
f 71/9/81 89/8/81 88/10/81
f 2/3/82 89/8/82 71/9/82
f 83/12/83 87/4/83 90/2/83
f 83/12/84 90/2/84 12/13/84
f 16/18/85 4/35/85 15/88/85
f 9/15/86 5/24/86 6/16/86
f 9/15/87 7/17/87 11/22/87
f 11/22/88 7/17/88 10/19/88
f 1/5/89 11/22/89 10/19/89
f 14/14/90 11/22/90 1/5/90
f 94/7/91 10/19/91 13/21/91
f 7/17/92 16/18/92 10/19/92
f 5/24/93 9/15/93 12/13/93
f 16/18/94 15/88/94 8/20/94
f 5/24/95 12/13/95 24/25/95
f 28/30/96 17/47/96 27/89/96
f 21/27/97 18/36/97 30/28/97
f 21/27/98 19/29/98 23/34/98
f 23/34/99 19/29/99 22/31/99
f 6/16/100 23/34/100 22/31/100
f 26/26/101 23/34/101 6/16/101
f 16/18/102 22/31/102 25/33/102
f 19/29/103 28/30/103 22/31/103
f 18/36/104 21/27/104 24/25/104
f 28/30/105 27/89/105 20/32/105
f 18/36/106 24/25/106 36/37/106
f 41/42/107 42/60/107 39/90/107
f 33/39/108 29/49/108 44/40/108
f 33/39/109 31/48/109 35/46/109
f 35/46/110 31/48/110 34/43/110
f 30/28/111 35/46/111 34/43/111
f 38/38/112 35/46/112 30/28/112
f 28/30/113 34/43/113 37/45/113
f 40/41/114 41/42/114 34/43/114
f 29/49/115 33/39/115 36/37/115
f 41/42/116 39/90/116 32/44/116
f 29/49/117 36/37/117 50/50/117
f 55/55/118 43/72/118 53/91/118
f 47/52/119 57/61/119 59/53/119
f 47/52/120 45/48/120 49/59/120
f 49/59/121 45/48/121 48/56/121
f 44/40/122 49/59/122 48/56/122
f 52/51/123 49/59/123 44/40/123
f 41/42/124 48/56/124 51/58/124
f 54/54/125 55/55/125 48/56/125
f 57/61/126 47/52/126 50/50/126
f 55/55/127 53/91/127 46/57/127
f 57/61/128 50/50/128 65/62/128
f 69/67/129 70/82/129 68/33/129
f 62/64/130 56/73/130 58/65/130
f 62/64/131 60/66/131 64/71/131
f 64/71/132 60/66/132 63/68/132
f 59/53/133 64/71/133 63/68/133
f 67/63/134 64/71/134 59/53/134
f 55/55/135 63/68/135 66/70/135
f 60/66/136 69/67/136 63/68/136
f 56/73/137 62/64/137 65/62/137
f 69/67/138 68/33/138 61/69/138
f 56/73/139 65/62/139 77/74/139
f 81/11/140 82/85/140 80/92/140
f 74/76/141 84/1/141 71/9/141
f 74/76/142 72/77/142 76/81/142
f 76/81/143 72/77/143 75/78/143
f 58/65/144 76/81/144 75/78/144
f 79/75/145 76/81/145 58/65/145
f 69/67/146 75/78/146 78/80/146
f 72/77/147 81/11/147 75/78/147
f 84/1/148 74/76/148 77/74/148
f 81/11/149 80/92/149 73/79/149
f 89/8/150 85/86/150 88/10/150
f 81/11/151 88/10/151 91/84/151
f 93/6/152 94/7/152 88/10/152
f 94/7/153 92/87/153 86/83/153
f 105/93/154 106/94/154 101/95/154
f 95/96/155 106/94/155 100/97/155
f 99/98/156 104/99/156 98/100/156
f 97/98/157 102/94/157 96/97/157
f 99/98/158 106/94/158 105/93/158
f 97/98/159 104/99/159 103/93/159
f 95/96/160 102/94/160 101/95/160
f 112/101/161 110/102/161 108/101/161
f 112/101/162 117/103/162 111/104/162
f 110/102/163 115/103/163 109/104/163
f 108/101/164 113/105/164 107/106/164
f 113/105/165 112/101/165 107/106/165
f 117/103/166 110/102/166 111/104/166
f 115/103/167 108/101/167 109/104/167
f 101/95/168 102/94/168 103/93/168
f 103/93/169 104/99/169 101/95/169
f 104/99/170 105/93/170 101/95/170
f 95/96/171 101/95/171 106/94/171
f 99/98/172 105/93/172 104/99/172
f 97/98/173 103/93/173 102/94/173
f 99/98/174 100/97/174 106/94/174
f 97/98/175 98/100/175 104/99/175
f 95/96/176 96/97/176 102/94/176
f 109/104/161 108/101/161 110/102/161
f 108/101/161 107/106/161 112/101/161
f 112/101/161 111/104/161 110/102/161
f 112/101/177 118/107/177 117/103/177
f 110/102/178 116/108/178 115/103/178
f 108/101/179 114/107/179 113/105/179
f 113/105/180 118/107/180 112/101/180
f 117/103/181 116/108/181 110/102/181
f 115/103/182 114/107/182 108/101/182
