# Blender 4.4.0
# www.blender.org
mtllib Crop_Garlic_STAGE_2_01.mtl
o Crop_Garlic_STAGE_2_01
v 0.010811 0.000000 0.002803
v 0.012382 0.075935 0.007065
v 0.010791 0.000000 -0.004067
v 0.043943 0.174577 0.004519
v 0.053012 0.166800 0.004519
v 0.012382 0.075935 -0.007947
v 0.053012 0.166800 -0.006245
v -0.040075 0.131566 0.016421
v -0.008782 0.075935 0.018123
v -0.040075 0.131566 0.005657
v -0.031710 0.140097 0.005657
v -0.008808 0.000000 0.009672
v -0.008782 0.075935 0.003111
v -0.008828 0.000000 0.002803
v 0.000991 0.000000 -0.007017
v 0.003777 0.075935 -0.005494
v -0.005878 0.000000 -0.006997
v 0.001231 0.182156 -0.041354
v 0.001231 0.173883 -0.049973
v -0.011235 0.075935 -0.005494
v -0.009533 0.173883 -0.049973
v 0.001800 0.080670 0.005088
v 0.000921 0.000000 0.002803
vn 0.6510 0.7591 -0.0000
vn 0.9129 -0.4082 -0.0000
vn -0.5710 -0.0300 -0.8204
vn -0.1947 -0.0257 0.9805
vn 0.0038 0.0044 1.0000
vn -0.6775 0.3154 -0.6645
vn 0.9998 -0.0207 -0.0000
vn -1.0000 0.0006 0.0030
vn 0.6443 0.3827 0.6621
vn -0.0062 0.0061 -1.0000
vn 0.1723 0.0260 -0.9847
vn 0.5744 -0.0907 0.8135
vn -0.8716 -0.4903 -0.0000
vn -0.7140 0.7001 -0.0000
vn -0.0000 0.7215 -0.6925
vn -0.0000 -0.4135 -0.9105
vn -0.8197 -0.0691 0.5687
vn 0.9815 -0.0161 0.1906
vn 1.0000 0.0039 -0.0037
vn -0.6645 0.3185 0.6760
vn -0.0030 0.0202 -0.9998
vn -0.7714 0.0264 -0.6358
vn -0.0000 -0.0560 0.9984
vn -0.1431 0.0916 0.9855
vn -0.6269 0.2769 -0.7283
vn 0.9998 -0.0211 -0.0030
vn -1.0000 0.0003 -0.0000
vn 0.5997 0.3312 0.7285
vn 0.1308 0.1186 -0.9843
vn -0.0000 0.0041 -1.0000
vn 0.7807 -0.0262 0.6243
vn -0.6268 -0.0152 0.7790
vn 0.9993 -0.0368 0.0072
vn 0.9855 0.0908 0.1435
vn -0.7228 0.2842 0.6299
vn -0.0000 0.0198 -0.9998
vt 0.210127 0.116338
vt 0.210127 0.112394
vt 0.212652 0.112394
vt 0.213051 0.066304
vt 0.209530 0.066304
vt 0.210530 0.027787
vt 0.212141 0.027787
vt 0.209994 0.068706
vt 0.208919 0.027787
vt 0.210458 0.066304
vt 0.207337 0.094522
vt 0.206937 0.066304
vt 0.209861 0.094522
vt 0.209861 0.098849
vt 0.220885 0.120183
vt 0.222906 0.115986
vt 0.212476 0.066304
vt 0.212828 0.027787
vt 0.212833 0.027787
s 0
usemtl Texture_Map
f 4/1/1 5/2/1 7/3/1
f 6/4/2 5/2/2 2/5/2
f 23/6/3 6/4/3 3/7/3
f 23/6/4 2/5/4 22/8/4
f 22/8/5 5/2/5 4/1/5
f 22/8/6 7/3/6 6/4/6
f 1/6/7 6/4/7 2/5/7
f 12/9/8 13/10/8 14/6/8
f 22/8/9 8/11/9 9/12/9
f 22/8/10 10/13/10 11/14/10
f 23/6/11 13/10/11 22/8/11
f 23/6/12 9/12/12 12/9/12
f 9/12/13 10/13/13 13/10/13
f 11/14/14 10/13/14 8/11/14
f 18/15/15 19/16/15 21/16/15
f 20/17/16 19/16/16 16/17/16
f 23/6/17 20/17/17 17/18/17
f 23/6/18 16/17/18 22/8/18
f 22/8/19 19/16/19 18/15/19
f 22/8/20 21/16/20 20/17/20
f 17/18/21 16/17/21 15/19/21
f 6/4/2 7/3/2 5/2/2
f 23/6/22 22/8/22 6/4/22
f 23/6/23 1/6/23 2/5/23
f 22/8/24 2/5/24 5/2/24
f 22/8/25 4/1/25 7/3/25
f 1/6/26 3/7/26 6/4/26
f 12/9/27 9/12/27 13/10/27
f 22/8/28 11/14/28 8/11/28
f 22/8/29 13/10/29 10/13/29
f 23/6/30 14/6/30 13/10/30
f 23/6/31 22/8/31 9/12/31
f 9/12/13 8/11/13 10/13/13
f 20/17/16 21/16/16 19/16/16
f 23/6/32 22/8/32 20/17/32
f 23/6/33 15/19/33 16/17/33
f 22/8/34 16/17/34 19/16/34
f 22/8/35 18/15/35 21/16/35
f 17/18/36 20/17/36 16/17/36
