# Blender 4.4.0
# www.blender.org
mtllib Crop_Cabbage_STAGE_1_02.mtl
o Crop_Cabbage_STAGE_1_02
v -0.004371 0.017618 0.011975
v 0.001003 0.018035 -0.011001
v -0.033520 0.071107 0.016983
v -0.023232 0.071905 -0.027007
v -0.006390 0.014684 -0.000657
v -0.038436 0.077957 -0.007275
v -0.005094 0.017123 0.012071
v 0.000400 0.017550 -0.011420
v -0.034243 0.070612 0.017079
v -0.023835 0.071420 -0.027426
v -0.007124 0.014141 -0.000836
v -0.039170 0.077414 -0.007454
v -0.000000 -0.000000 -0.074103
v -0.064175 -0.000000 -0.037051
v -0.064175 -0.000000 0.037051
v -0.000000 -0.000000 0.074103
v 0.064175 -0.000000 0.037051
v 0.064175 -0.000000 -0.037051
v -0.019649 0.027612 -0.011345
v -0.000000 0.027612 -0.022689
v -0.019649 0.027612 0.011345
v -0.000000 0.027612 0.022689
v 0.019649 0.027612 0.011345
v 0.019649 0.027612 -0.011345
v -0.035237 0.023070 -0.020344
v -0.000000 0.023070 -0.040688
v -0.035237 0.023070 0.020344
v -0.000000 0.023070 0.040688
v 0.035237 0.023070 0.020344
v 0.035237 0.023070 -0.020344
v 0.014100 0.023443 0.001919
v -0.003019 0.023443 0.013906
v 0.118648 0.041530 0.114338
v 0.066863 0.041530 0.150599
v 0.005541 0.023220 0.007913
v 0.102795 0.039560 0.146807
v 0.112639 0.047862 0.061647
v 0.019404 0.047862 0.126930
v 0.074225 0.038301 0.106004
v 0.057169 0.031778 0.012167
v -0.008120 0.031778 0.057883
v 0.023226 0.028764 0.033170
v -0.006853 0.023443 -0.012471
v 0.012970 0.023443 -0.005854
v 0.021219 0.041530 -0.163402
v 0.081185 0.041530 -0.143386
v 0.003058 0.023220 -0.009163
v 0.056744 0.039560 -0.169998
v -0.017537 0.047862 -0.127202
v 0.090426 0.047862 -0.091165
v 0.040973 0.038301 -0.122750
v -0.024263 0.031778 -0.053175
v 0.051339 0.031778 -0.027940
v 0.012821 0.028764 -0.038410
v -0.004507 0.023443 0.013498
v -0.013103 0.023443 -0.005551
v -0.134398 0.041530 0.095330
v -0.160402 0.041530 0.037707
v -0.008805 0.023220 0.003973
v -0.163355 0.039560 0.073718
v -0.081508 0.047862 0.099218
v -0.128325 0.047862 -0.004525
v -0.117953 0.038301 0.053229
v -0.022581 0.031778 0.053912
v -0.055365 0.031778 -0.018736
v -0.036909 0.028764 0.016656
v 0.014214 0.022487 0.002010
v -0.002972 0.022487 0.014044
v 0.118714 0.040565 0.114274
v 0.066780 0.040565 0.150638
v 0.005621 0.022262 0.008028
v 0.102787 0.038584 0.146795
v 0.112759 0.046899 0.061640
v 0.019357 0.046899 0.127041
v 0.074246 0.037322 0.106034
v 0.057307 0.030821 0.012211
v -0.008126 0.030821 0.058028
v 0.023297 0.027799 0.033271
v -0.006848 0.022487 -0.012617
v 0.013053 0.022487 -0.005974
v 0.021128 0.040565 -0.163417
v 0.081266 0.040565 -0.143343
v 0.003103 0.022262 -0.009296
v 0.056739 0.038584 -0.169984
v -0.017614 0.046899 -0.127294
v 0.090543 0.046899 -0.091192
v 0.040984 0.037322 -0.122784
v -0.024310 0.030821 -0.053313
v 0.051459 0.030821 -0.028021
v 0.012860 0.027799 -0.038527
v -0.004617 0.022487 0.013592
v -0.013247 0.022487 -0.005531
v -0.134347 0.040565 0.095406
v -0.160425 0.040565 0.037618
v -0.008932 0.022262 0.004031
v -0.163341 0.038584 0.073712
v -0.081524 0.046899 0.099338
v -0.128425 0.046899 -0.004593
v -0.117986 0.037322 0.053245
v -0.022649 0.030821 0.054039
v -0.055506 0.030821 -0.018769
v -0.037022 0.027799 0.016707
v 0.005766 0.023340 0.006719
v -0.007151 0.023340 0.005221
v 0.016673 0.076986 0.214501
v -0.065323 0.076986 0.204991
v -0.000692 0.023087 0.005970
v -0.026958 0.072309 0.232449
v 0.062088 0.092021 0.157853
v -0.096609 0.092021 0.140733
v -0.019573 0.069319 0.167843
v 0.064228 0.065682 0.080565
v -0.081104 0.065682 0.064847
v -0.008159 0.056986 0.070464
v -0.008848 0.023340 -0.000327
v 0.001019 0.023340 -0.008795
v -0.168836 0.076986 -0.133352
v -0.106198 0.076986 -0.187111
v -0.003914 0.023087 -0.004561
v -0.152402 0.072309 -0.177575
v -0.156365 0.092324 -0.063529
v -0.039074 0.092324 -0.164192
v -0.110369 0.068713 -0.128599
v -0.100427 0.065737 -0.010282
v 0.005071 0.065737 -0.100824
v -0.046180 0.056876 -0.053808
v 0.005530 0.023340 -0.006914
v 0.006459 0.023340 0.006055
v 0.207664 0.076986 -0.056250
v 0.213560 0.076986 0.026084
v 0.005995 0.023087 -0.000429
v 0.233409 0.072309 -0.016715
v 0.144602 0.092021 -0.087078
v 0.155217 0.092021 0.065634
v 0.168537 0.069319 -0.012096
v 0.068133 0.065682 -0.075759
v 0.077879 0.065682 0.065299
v 0.070755 0.056986 -0.005063
v 0.005792 0.022461 0.007079
v -0.007254 0.022461 0.005566
v 0.016831 0.076032 0.214497
v -0.065477 0.076033 0.204952
v -0.000731 0.022203 0.006324
v -0.026956 0.071322 0.232427
v 0.062239 0.091069 0.157970
v -0.096781 0.091069 0.140811
v -0.019579 0.068327 0.167899
v 0.064338 0.064746 0.080799
v -0.081262 0.064745 0.065049
v -0.008188 0.056045 0.070729
v -0.009131 0.022461 -0.000549
v 0.000842 0.022461 -0.009109
v -0.168949 0.076034 -0.133228
v -0.106059 0.076034 -0.187204
v -0.004146 0.022203 -0.004831
v -0.152388 0.071320 -0.177559
v -0.156559 0.091374 -0.063487
v -0.039004 0.091374 -0.164378
v -0.110405 0.067719 -0.128641
v -0.100679 0.064801 -0.010353
v 0.005039 0.064801 -0.101084
v -0.046353 0.055933 -0.054009
v 0.005879 0.022461 -0.007006
v 0.006817 0.022462 0.006098
v 0.207628 0.076033 -0.056408
v 0.213547 0.076033 0.026246
v 0.006350 0.022203 -0.000454
v 0.233384 0.071321 -0.016713
v 0.144686 0.091069 -0.087252
v 0.155325 0.091069 0.065795
v 0.168591 0.068326 -0.012100
v 0.068344 0.064746 -0.075914
v 0.078109 0.064747 0.065423
v 0.071021 0.056044 -0.005081
v 0.002173 0.015187 -0.012016
v -0.007823 0.026592 0.015776
v 0.052360 0.079170 -0.012423
v 0.034725 0.099291 0.036608
v 0.004529 0.012557 0.006405
v 0.070613 0.108762 0.021127
v 0.002826 0.014568 -0.012030
v -0.007506 0.026138 0.016455
v 0.053013 0.078551 -0.012437
v 0.035042 0.098837 0.037287
v 0.005167 0.011863 0.006788
v 0.071206 0.108091 0.021601
v -0.019518 0.027387 0.001071
v 0.011311 0.025949 0.002347
v -0.025863 0.148440 -0.117566
v 0.021373 0.148092 -0.119518
v 0.001426 0.025398 -0.015630
v -0.002996 0.148553 -0.139132
v -0.045562 0.139561 -0.078191
v 0.044300 0.138644 -0.081904
v -0.001867 0.128232 -0.109254
v -0.057242 0.102899 -0.043795
v 0.058348 0.101719 -0.048571
v -0.000332 0.092169 -0.067651
v -0.044556 0.061146 -0.017955
v 0.047110 0.060211 -0.021735
v 0.000572 0.054889 -0.039000
v -0.019877 0.026739 0.000552
v 0.011659 0.025244 0.001880
v -0.026238 0.147667 -0.117916
v 0.021711 0.147317 -0.119900
v 0.001447 0.024574 -0.016227
v -0.003020 0.147613 -0.139576
v -0.045953 0.138884 -0.078676
v 0.044640 0.137962 -0.082421
v -0.001894 0.127339 -0.109787
v -0.057599 0.102283 -0.044346
v 0.058650 0.101098 -0.049150
v -0.000364 0.091434 -0.068312
v -0.044899 0.060526 -0.018511
v 0.047416 0.059561 -0.022294
v 0.000550 0.054136 -0.039650
vn 0.7718 0.4390 0.4600
vn 0.8412 0.4815 -0.2463
vn -0.6415 -0.4690 -0.6071
vn -0.8418 -0.4816 0.2437
vn 0.1417 -0.0154 0.9898
vn 0.5660 0.0097 -0.8243
vn -0.5034 0.7995 0.3278
vn -0.4125 0.7355 -0.5375
vn -0.0000 1.0000 -0.0000
vn 0.6234 0.7819 -0.0000
vn -0.3117 0.7819 0.5398
vn -0.3117 0.7819 -0.5398
vn 0.3117 0.7819 -0.5398
vn 0.3117 0.7819 0.5398
vn -0.6234 0.7819 -0.0000
vn -0.1399 0.9601 -0.2423
vn -0.2798 0.9601 -0.0000
vn -0.1399 0.9601 0.2423
vn 0.1399 0.9601 0.2423
vn 0.2798 0.9601 -0.0000
vn 0.1399 0.9601 -0.2423
vn 0.0479 0.9968 -0.0643
vn -0.0960 0.9869 0.1296
vn -0.2625 0.9647 -0.0194
vn -0.1611 0.9796 -0.1198
vn -0.0843 0.9840 -0.1570
vn -0.0045 0.9919 -0.1267
vn -0.0801 0.9968 -0.0002
vn 0.1613 0.9869 -0.0000
vn 0.1407 0.9647 0.2224
vn -0.0003 0.9796 0.2007
vn -0.0760 0.9840 0.1612
vn -0.0991 0.9919 0.0791
vn 0.0543 0.9968 0.0590
vn -0.1095 0.9869 -0.1184
vn 0.0678 0.9647 -0.2543
vn 0.1476 0.9796 -0.1360
vn 0.1699 0.9840 -0.0536
vn 0.1254 0.9919 0.0191
vn -0.1546 -0.9869 0.0459
vn 0.0960 -0.9869 -0.1296
vn 0.1175 -0.9919 0.0475
vn 0.1187 -0.9840 0.1327
vn 0.0841 -0.9840 0.1570
vn 0.0044 -0.9919 0.1267
vn 0.1289 -0.9869 0.0969
vn -0.1613 -0.9869 -0.0000
vn -0.0318 -0.9919 -0.1227
vn 0.0359 -0.9840 -0.1744
vn 0.0761 -0.9840 -0.1610
vn 0.0992 -0.9919 -0.0790
vn -0.0163 -0.9869 -0.1605
vn 0.1095 -0.9869 0.1184
vn -0.0685 -0.9919 0.1067
vn -0.1525 -0.9840 0.0920
vn -0.1699 -0.9840 0.0534
vn -0.1253 -0.9919 -0.0192
vn 0.2415 -0.0636 -0.9683
vn -0.4363 0.0743 0.8967
vn 0.8974 0.0317 0.4401
vn 0.1054 -0.0136 0.9943
vn 0.9875 0.1240 -0.0977
vn -0.9322 0.0863 0.3515
vn 0.6545 0.0599 -0.7537
vn -0.9935 -0.0108 -0.1132
vn -0.9218 -0.0636 0.3825
vn 0.9802 0.0743 -0.1834
vn -0.1807 0.0317 -0.9830
vn 0.7361 -0.0136 -0.6767
vn -0.6664 0.1240 -0.7352
vn 0.8374 0.0863 0.5397
vn -0.9952 0.0599 -0.0771
vn 0.5006 -0.0108 0.8656
vn 0.9066 -0.0636 0.4173
vn -0.8000 0.0743 -0.5954
vn -0.5992 0.0317 0.8000
vn -0.9966 -0.0136 -0.0812
vn -0.0875 0.1240 0.9884
vn -0.1721 0.0863 -0.9813
vn 0.6189 0.0599 0.7832
vn 0.2959 -0.0108 -0.9552
vn 0.1418 0.9895 -0.0296
vn -0.2624 0.9639 0.0455
vn -0.0682 0.9438 -0.3235
vn -0.0397 0.8801 -0.4732
vn 0.0875 0.8859 -0.4555
vn 0.3087 0.9475 -0.0838
vn -0.0723 0.9883 0.1346
vn 0.1550 0.9587 -0.2383
vn 0.2885 0.9427 0.1676
vn 0.3760 0.8802 0.2895
vn 0.2744 0.8865 0.3727
vn -0.1663 0.9419 0.2918
vn -0.0551 0.9895 -0.1337
vn 0.1029 0.9606 0.2580
vn -0.3061 0.9434 0.1274
vn -0.4576 0.8803 0.1253
vn -0.4638 0.8859 -0.0013
vn -0.1406 0.9436 -0.2997
vn -0.2468 -0.9633 -0.1054
vn 0.2624 -0.9639 -0.0456
vn 0.0683 -0.9437 0.3237
vn -0.0185 -0.8860 0.4634
vn -0.0880 -0.8860 0.4553
vn -0.1357 -0.9442 0.3002
vn 0.2591 -0.9587 -0.1169
vn -0.1549 -0.9587 0.2384
vn -0.2887 -0.9426 -0.1678
vn -0.3271 -0.8865 -0.3273
vn -0.2739 -0.8865 -0.3730
vn -0.1220 -0.9426 -0.3108
vn -0.0651 -0.9608 0.2695
vn -0.1031 -0.9606 -0.2579
vn 0.3063 -0.9433 -0.1275
vn 0.4587 -0.8860 -0.0679
vn 0.4637 -0.8860 0.0019
vn 0.3212 -0.9433 0.0841
vn 0.8195 -0.1958 -0.5385
vn -0.8801 0.1232 0.4584
vn 0.3744 0.0589 0.9254
vn -0.5822 -0.0197 0.8128
vn 0.7390 0.1961 0.6445
vn -0.9565 0.1529 -0.2485
vn 0.9934 0.1140 -0.0119
vn -0.6457 -0.0553 -0.7616
vn -0.1884 -0.1840 0.9647
vn 0.2915 0.1350 -0.9470
vn -0.9331 0.0648 -0.3536
vn -0.2019 -0.0186 -0.9792
vn -0.9705 0.2039 0.1286
vn 0.8403 0.1630 -0.5170
vn -0.6539 0.1190 0.7472
vn 0.9988 -0.0413 0.0249
vn -0.6669 -0.1894 -0.7207
vn 0.5797 0.1285 0.8046
vn 0.8397 0.0579 -0.5400
vn 0.9067 -0.0226 0.4212
vn 0.4683 0.1991 -0.8609
vn -0.0588 0.1602 0.9853
vn -0.1860 0.1193 -0.9753
vn -0.6202 -0.0492 0.7829
vn -0.4509 0.4295 -0.7825
vn -0.7726 0.6072 0.1855
vn 0.2357 -0.3927 0.8889
vn 0.7729 -0.6074 -0.1835
vn -0.0155 0.0058 -0.9999
vn -0.7756 0.2938 0.5587
vn 0.4743 0.5160 -0.7132
vn 0.1527 0.6560 0.7391
vn -0.4076 0.7478 0.5240
vn 0.4954 0.7607 0.4194
vn 0.4088 0.5518 0.7269
vn -0.4907 0.6494 0.5810
vn -0.3427 0.5672 0.7489
vn 0.4071 0.5669 0.7162
vn 0.3921 0.6549 0.6461
vn -0.8314 0.3302 0.4470
vn 0.4476 -0.7641 -0.4646
vn -0.4954 -0.7609 -0.4192
vn -0.4089 -0.5517 -0.7269
vn 0.3376 -0.5567 -0.7590
vn 0.3430 -0.5671 -0.7489
vn -0.4126 -0.5614 -0.7174
vn -0.5584 -0.5255 -0.6419
vn 0.8262 -0.3343 -0.4536
vn -0.7180 -0.1480 0.6802
vn 0.7831 0.5134 -0.3509
vn -0.5733 0.5525 -0.6050
vn 0.5896 0.3325 -0.7361
vn -0.7555 0.6094 -0.2406
vn 0.9115 0.4060 0.0656
vn -0.9035 0.4086 0.1291
vn 0.9012 0.0353 0.4320
vn -0.8698 0.0398 0.4919
vn 0.6960 -0.2515 0.6726
vn 0.6398 0.4688 0.6091
vn 0.8931 0.4466 -0.0549
vn -0.7715 -0.4389 -0.4606
vn -0.8931 -0.4465 0.0556
vn -0.6123 0.7216 0.3230
vn -0.3132 0.8131 -0.4907
vn 0.1546 0.9869 -0.0459
vn -0.0768 0.9968 0.0230
vn -0.1175 0.9919 -0.0476
vn -0.1187 0.9840 -0.1329
vn -0.0574 0.9796 -0.1923
vn 0.0716 0.9647 -0.2533
vn -0.1290 0.9869 -0.0969
vn 0.0642 0.9968 0.0480
vn 0.0317 0.9919 0.1228
vn -0.0361 0.9840 0.1745
vn -0.1203 0.9796 0.1607
vn -0.2461 0.9647 0.0933
vn 0.0164 0.9869 0.1604
vn -0.0083 0.9968 -0.0797
vn 0.0686 0.9919 -0.1066
vn 0.1526 0.9840 -0.0919
vn 0.1997 0.9796 -0.0207
vn 0.2356 0.9647 0.1174
vn -0.0480 -0.9968 0.0645
vn 0.0770 -0.9968 -0.0230
vn 0.2624 -0.9648 0.0195
vn 0.1611 -0.9797 0.1196
vn 0.0573 -0.9797 0.1923
vn -0.0714 -0.9648 0.2532
vn 0.0803 -0.9968 0.0002
vn -0.0643 -0.9968 -0.0481
vn -0.1406 -0.9648 -0.2224
vn 0.0002 -0.9797 -0.2007
vn 0.1204 -0.9797 -0.1606
vn 0.2460 -0.9648 -0.0934
vn -0.0544 -0.9968 -0.0591
vn 0.0083 -0.9968 0.0799
vn -0.0679 -0.9648 0.2542
vn -0.1475 -0.9797 0.1361
vn -0.1996 -0.9797 0.0206
vn -0.2355 -0.9648 -0.1172
vn 0.2334 -0.0108 -0.9723
vn -0.4296 0.1240 0.8945
vn 0.8983 -0.0136 0.4391
vn 0.1066 0.0317 0.9938
vn 0.9919 0.0743 -0.1033
vn -0.9321 0.0599 0.3572
vn 0.6491 0.0863 -0.7558
vn -0.9925 -0.0636 -0.1042
vn -0.9202 -0.0108 0.3914
vn 0.9744 0.1240 -0.1875
vn -0.1821 -0.0136 -0.9832
vn 0.7350 0.0317 -0.6774
vn -0.6735 0.0743 -0.7354
vn 0.8420 0.0600 0.5362
vn -0.9937 0.0863 -0.0715
vn 0.5072 -0.0636 0.8595
vn 0.9120 -0.0108 0.4101
vn -0.7991 0.1240 -0.5883
vn -0.5984 -0.0136 0.8011
vn -0.9963 0.0317 -0.0800
vn -0.0829 0.0743 0.9938
vn -0.1777 0.0599 -0.9822
vn 0.6219 0.0863 0.7783
vn 0.2869 -0.0636 -0.9558
vn 0.2469 0.9633 0.1052
vn -0.1311 0.9895 -0.0608
vn -0.2820 0.9471 -0.1530
vn 0.0191 0.8859 -0.4634
vn 0.1398 0.8809 -0.4521
vn 0.1357 0.9442 -0.3000
vn -0.2591 0.9587 0.1171
vn 0.1440 0.9883 -0.0510
vn 0.3136 0.9419 -0.1201
vn 0.3267 0.8865 0.3278
vn 0.2291 0.8802 0.4156
vn 0.1219 0.9427 0.3106
vn 0.0649 0.9608 -0.2695
vn -0.0356 0.9895 0.1402
vn -0.0963 0.9437 0.3165
vn -0.4589 0.8859 0.0674
vn -0.4711 0.8800 -0.0611
vn -0.3209 0.9434 -0.0841
vn -0.1422 -0.9894 0.0297
vn 0.1314 -0.9895 0.0609
vn 0.2818 -0.9472 0.1528
vn 0.0399 -0.8801 0.4731
vn -0.1400 -0.8810 0.4520
vn -0.3085 -0.9476 0.0836
vn 0.0725 -0.9882 -0.1349
vn -0.1444 -0.9882 0.0512
vn -0.3133 -0.9420 0.1201
vn -0.3761 -0.8803 -0.2892
vn -0.2288 -0.8803 -0.4157
vn 0.1662 -0.9420 -0.2914
vn 0.0553 -0.9894 0.1341
vn 0.0357 -0.9894 -0.1406
vn 0.0961 -0.9438 -0.3162
vn 0.4575 -0.8803 -0.1254
vn 0.4710 -0.8800 0.0613
vn 0.1403 -0.9437 0.2995
vn 0.7982 -0.0560 -0.5998
vn -0.8632 0.1946 0.4658
vn 0.3807 -0.0198 0.9245
vn -0.5762 0.0594 0.8152
vn 0.7574 0.1235 0.6412
vn -0.9651 0.1119 -0.2366
vn 0.9878 0.1539 -0.0251
vn -0.6801 -0.1969 -0.7062
vn -0.1269 -0.0413 0.9911
vn 0.2743 0.2039 -0.9398
vn -0.9373 -0.0187 -0.3482
vn -0.2080 0.0647 -0.9760
vn -0.9803 0.1350 0.1445
vn 0.8377 0.1190 -0.5330
vn -0.6385 0.1630 0.7522
vn 0.9821 -0.1840 -0.0399
vn -0.7238 -0.0490 -0.6883
vn 0.5845 0.1994 0.7865
vn 0.8374 -0.0226 -0.5461
vn 0.9081 0.0578 0.4148
vn 0.4610 0.1284 -0.8781
vn -0.0457 0.1200 0.9917
vn -0.1982 0.1599 -0.9670
vn -0.5595 -0.1890 0.8070
vn -0.2317 0.3909 -0.8908
vn -0.8187 0.5713 -0.0585
vn 0.4496 -0.4291 0.7834
vn 0.8190 -0.5709 0.0577
vn 0.7558 0.2376 -0.6102
vn 0.0171 0.8347 0.5504
vn -0.4476 0.7640 0.4647
vn 0.4569 0.7435 0.4884
vn 0.5478 0.6421 0.5364
vn -0.3374 0.5568 0.7590
vn -0.3362 0.5738 0.7468
vn 0.4124 0.5614 0.7175
vn 0.5608 0.5241 0.6409
vn -0.3065 0.7406 0.5980
vn 0.4081 -0.7475 -0.5242
vn -0.4574 -0.7431 -0.4884
vn -0.5471 -0.6428 -0.5362
vn 0.4900 -0.6501 -0.5808
vn 0.3364 -0.5738 -0.7467
vn -0.4073 -0.5669 -0.7161
vn -0.3924 -0.6550 -0.6458
vn 0.3070 -0.7408 -0.5975
vn -0.7364 -0.1783 0.6526
vn 0.7415 0.5994 -0.3014
vn -0.6408 0.3411 -0.6878
vn 0.5304 0.5487 -0.6462
vn -0.8039 0.5209 -0.2873
vn 0.9167 0.3960 0.0528
vn -0.8975 0.4179 0.1406
vn 0.8967 0.0423 0.4406
vn -0.8626 0.0494 0.5034
vn 0.6547 -0.1657 0.7375
vt 0.230377 0.127604
vt 0.230410 0.153852
vt 0.230385 0.156628
vt 0.230354 0.153486
vt 0.230361 0.128949
vt 0.230377 0.127355
vt 0.230411 0.153629
vt 0.230390 0.128918
vt 0.230354 0.153259
vt 0.230361 0.128722
vt 0.230390 0.129140
vt 0.230385 0.156379
vt 0.230362 0.133534
vt 0.230390 0.133534
vt 0.230405 0.133534
vt 0.230423 0.120868
vt 0.230350 0.131450
vt 0.230329 0.120868
vt 0.230282 0.120868
vt 0.230470 0.120868
vt 0.230402 0.131450
vt 0.230428 0.131450
vt 0.230324 0.131450
vt 0.230347 0.133534
vt 0.233992 0.121249
vt 0.233935 0.122731
vt 0.233940 0.121827
vt 0.233981 0.122731
vt 0.234048 0.125635
vt 0.234111 0.118257
vt 0.234124 0.114434
vt 0.234084 0.116875
vt 0.234108 0.114434
vt 0.234116 0.114331
vt 0.234053 0.118257
vt 0.234282 0.121249
vt 0.234308 0.122731
vt 0.234341 0.121827
vt 0.234333 0.122731
vt 0.234287 0.125635
vt 0.234193 0.118257
vt 0.234142 0.114434
vt 0.234175 0.116875
vt 0.234133 0.114434
vt 0.234138 0.114331
vt 0.234161 0.118257
vt 0.234058 0.121249
vt 0.234078 0.122731
vt 0.234033 0.121827
vt 0.234005 0.122731
vt 0.234000 0.125635
vt 0.234058 0.118257
vt 0.234109 0.114434
vt 0.234105 0.116875
vt 0.234133 0.114434
vt 0.234121 0.114331
vt 0.234150 0.118257
vt 0.233992 0.120800
vt 0.233935 0.122288
vt 0.233965 0.125193
vt 0.233981 0.122288
vt 0.234048 0.125193
vt 0.234110 0.117818
vt 0.234084 0.116432
vt 0.234123 0.113995
vt 0.234116 0.113892
vt 0.234108 0.113995
vt 0.234052 0.117818
vt 0.234282 0.120800
vt 0.234308 0.122288
vt 0.234242 0.125193
vt 0.234333 0.122288
vt 0.234287 0.125193
vt 0.234194 0.117818
vt 0.234175 0.116432
vt 0.234142 0.113995
vt 0.234138 0.113892
vt 0.234134 0.113995
vt 0.234161 0.117818
vt 0.234058 0.120800
vt 0.234078 0.122288
vt 0.234132 0.125193
vt 0.234005 0.122288
vt 0.234000 0.125193
vt 0.234057 0.117818
vt 0.234105 0.116432
vt 0.234109 0.113995
vt 0.234121 0.113892
vt 0.234133 0.113995
vt 0.234150 0.117818
vt 0.233940 0.121379
vt 0.233965 0.125635
vt 0.234341 0.121379
vt 0.234241 0.125635
vt 0.234033 0.121379
vt 0.234132 0.125635
vt 0.230163 0.152666
vt 0.230116 0.156182
vt 0.230081 0.154037
vt 0.230104 0.156182
vt 0.230176 0.163079
vt 0.230287 0.147008
vt 0.230274 0.150997
vt 0.230367 0.131574
vt 0.230369 0.131574
vt 0.230368 0.131458
vt 0.230198 0.163079
vt 0.234289 0.135200
vt 0.234363 0.138995
vt 0.234351 0.136849
vt 0.234295 0.138995
vt 0.234206 0.146031
vt 0.234194 0.129770
vt 0.234139 0.133835
vt 0.234126 0.114386
vt 0.234137 0.114386
vt 0.234132 0.114270
vt 0.234334 0.146031
vt 0.230391 0.152665
vt 0.230343 0.156182
vt 0.230397 0.154037
vt 0.230447 0.156182
vt 0.230486 0.163079
vt 0.230382 0.147008
vt 0.230472 0.150997
vt 0.230385 0.131574
vt 0.230368 0.131574
vt 0.230376 0.131458
vt 0.230293 0.163079
vt 0.230163 0.152211
vt 0.230116 0.155745
vt 0.230198 0.162642
vt 0.230104 0.155745
vt 0.230176 0.162643
vt 0.230286 0.146576
vt 0.230274 0.150568
vt 0.230367 0.131171
vt 0.230368 0.131053
vt 0.230369 0.131171
vt 0.230294 0.150567
vt 0.234289 0.134744
vt 0.234363 0.138558
vt 0.234334 0.145595
vt 0.234295 0.138558
vt 0.234206 0.145595
vt 0.234194 0.129337
vt 0.234139 0.133406
vt 0.234127 0.113984
vt 0.234132 0.113865
vt 0.234137 0.113984
vt 0.234254 0.133406
vt 0.230391 0.152210
vt 0.230343 0.155745
vt 0.230293 0.162643
vt 0.230447 0.155746
vt 0.230487 0.162643
vt 0.230382 0.146576
vt 0.230472 0.150568
vt 0.230385 0.131171
vt 0.230377 0.131053
vt 0.230368 0.131171
vt 0.230293 0.150568
vt 0.230081 0.153584
vt 0.230294 0.150997
vt 0.234351 0.136396
vt 0.234254 0.133835
vt 0.230397 0.153584
vt 0.230293 0.150997
vt 0.230368 0.126628
vt 0.230330 0.166414
vt 0.230349 0.170759
vt 0.230392 0.157184
vt 0.230391 0.127834
vt 0.230367 0.126310
vt 0.230329 0.166206
vt 0.230355 0.132857
vt 0.230392 0.156901
vt 0.230391 0.127550
vt 0.230356 0.133066
vt 0.230349 0.170451
vt 0.230514 0.179690
vt 0.230527 0.188800
vt 0.230552 0.189012
vt 0.230525 0.188960
vt 0.230475 0.184887
vt 0.230462 0.163147
vt 0.230431 0.168069
vt 0.230480 0.184466
vt 0.230403 0.148487
vt 0.230425 0.146046
vt 0.230399 0.148917
vt 0.230375 0.133430
vt 0.230373 0.132771
vt 0.230396 0.132518
vt 0.230515 0.179280
vt 0.230528 0.188445
vt 0.230480 0.184154
vt 0.230525 0.188605
vt 0.230476 0.184576
vt 0.230463 0.162810
vt 0.230432 0.167787
vt 0.230438 0.167243
vt 0.230404 0.148189
vt 0.230426 0.145701
vt 0.230399 0.148632
vt 0.230375 0.133133
vt 0.230397 0.132140
vt 0.230374 0.132448
vt 0.230553 0.188580
vt 0.230437 0.167528
s 0
usemtl Texture_Map
f 5/1/1 4/2/1 6/3/1
f 5/1/2 3/4/2 1/5/2
f 11/6/3 10/7/3 8/8/3
f 9/9/4 11/6/4 7/10/4
f 1/5/5 9/9/5 7/10/5
f 2/11/6 10/7/6 4/2/6
f 6/3/7 9/9/7 3/4/7
f 6/3/8 10/7/8 12/12/8
f 23/13/9 24/14/9 20/15/9
f 18/16/10 29/17/10 17/18/10
f 16/19/11 27/17/11 15/18/11
f 13/20/12 25/21/12 26/22/12
f 13/20/13 30/21/13 18/16/13
f 17/18/14 28/23/14 16/19/14
f 15/18/15 25/21/15 14/16/15
f 19/14/16 26/22/16 25/21/16
f 19/14/17 27/17/17 21/13/17
f 21/13/18 28/23/18 22/24/18
f 23/13/19 28/23/19 29/17/19
f 24/14/20 29/17/20 30/21/20
f 24/14/21 26/22/21 20/15/21
f 39/25/22 34/26/22 36/27/22
f 39/25/23 33/28/23 37/29/23
f 40/30/24 39/25/24 37/29/24
f 31/31/25 42/32/25 40/30/25
f 32/33/26 42/32/26 35/34/26
f 41/35/27 39/25/27 42/32/27
f 51/36/28 46/37/28 48/38/28
f 51/36/29 45/39/29 49/40/29
f 52/41/30 51/36/30 49/40/30
f 43/42/31 54/43/31 52/41/31
f 44/44/32 54/43/32 47/45/32
f 53/46/33 51/36/33 54/43/33
f 63/47/34 58/48/34 60/49/34
f 63/47/35 57/50/35 61/51/35
f 64/52/36 63/47/36 61/51/36
f 55/53/37 66/54/37 64/52/37
f 56/55/38 66/54/38 59/56/38
f 65/57/39 63/47/39 66/54/39
f 75/58/40 70/59/40 74/60/40
f 69/61/41 75/58/41 73/62/41
f 76/63/42 75/58/42 78/64/42
f 67/65/43 78/64/43 71/66/43
f 78/64/44 68/67/44 71/66/44
f 75/58/45 77/68/45 78/64/45
f 87/69/46 82/70/46 86/71/46
f 81/72/47 87/69/47 85/73/47
f 88/74/48 87/69/48 90/75/48
f 79/76/49 90/75/49 83/77/49
f 90/75/50 80/78/50 83/77/50
f 87/69/51 89/79/51 90/75/51
f 99/80/52 94/81/52 98/82/52
f 93/83/53 99/80/53 97/84/53
f 100/85/54 99/80/54 102/86/54
f 91/87/55 102/86/55 95/88/55
f 102/86/56 92/89/56 95/88/56
f 99/80/57 101/90/57 102/86/57
f 31/31/58 76/63/58 67/65/58
f 34/26/59 74/60/59 70/59/59
f 36/27/60 69/61/60 33/28/60
f 36/27/61 70/59/61 72/91/61
f 33/28/62 73/62/62 37/29/62
f 41/35/63 74/60/63 38/92/63
f 40/30/64 73/62/64 76/63/64
f 32/33/65 77/68/65 41/35/65
f 43/42/66 88/74/66 79/76/66
f 46/37/67 86/71/67 82/70/67
f 48/38/68 81/72/68 45/39/68
f 48/38/69 82/70/69 84/93/69
f 45/39/70 85/73/70 49/40/70
f 53/46/71 86/71/71 50/94/71
f 52/41/72 85/73/72 88/74/72
f 44/44/73 89/79/73 53/46/73
f 55/53/74 100/85/74 91/87/74
f 58/48/75 98/82/75 94/81/75
f 60/49/76 93/83/76 57/50/76
f 60/49/77 94/81/77 96/95/77
f 57/50/78 97/84/78 61/51/78
f 65/57/79 98/82/79 62/96/79
f 64/52/80 97/84/80 100/85/80
f 56/55/81 101/90/81 65/57/81
f 111/97/82 106/98/82 108/99/82
f 111/97/83 105/100/83 109/101/83
f 114/102/84 109/101/84 112/103/84
f 103/104/85 114/102/85 112/103/85
f 104/105/86 114/102/86 107/106/86
f 114/102/87 110/107/87 111/97/87
f 123/108/88 118/109/88 120/110/88
f 123/108/89 117/111/89 121/112/89
f 126/113/90 121/112/90 124/114/90
f 115/115/91 126/113/91 124/114/91
f 116/116/92 126/113/92 119/117/92
f 126/113/93 122/118/93 123/108/93
f 135/119/94 130/120/94 132/121/94
f 135/119/95 129/122/95 133/123/95
f 138/124/96 133/123/96 136/125/96
f 127/126/97 138/124/97 136/125/97
f 128/127/98 138/124/98 131/128/98
f 138/124/99 134/129/99 135/119/99
f 147/130/100 142/131/100 146/132/100
f 141/133/101 147/130/101 145/134/101
f 145/134/102 150/135/102 148/136/102
f 139/137/103 150/135/103 143/138/103
f 150/135/104 140/139/104 143/138/104
f 150/135/105 146/132/105 149/140/105
f 159/141/106 154/142/106 158/143/106
f 153/144/107 159/141/107 157/145/107
f 157/145/108 162/146/108 160/147/108
f 151/148/109 162/146/109 155/149/109
f 162/146/110 152/150/110 155/149/110
f 162/146/111 158/143/111 161/151/111
f 171/152/112 166/153/112 170/154/112
f 165/155/113 171/152/113 169/156/113
f 169/156/114 174/157/114 172/158/114
f 163/159/115 174/157/115 167/160/115
f 174/157/116 164/161/116 167/160/116
f 174/157/117 170/154/117 173/162/117
f 103/104/118 148/136/118 139/137/118
f 106/98/119 146/132/119 142/131/119
f 108/99/120 141/133/120 105/100/120
f 108/99/121 142/131/121 144/163/121
f 105/100/122 145/134/122 109/101/122
f 113/164/123 146/132/123 110/107/123
f 112/103/124 145/134/124 148/136/124
f 104/105/125 149/140/125 113/164/125
f 115/115/126 160/147/126 151/148/126
f 118/109/127 158/143/127 154/142/127
f 120/110/128 153/144/128 117/111/128
f 120/110/129 154/142/129 156/165/129
f 117/111/130 157/145/130 121/112/130
f 125/166/131 158/143/131 122/118/131
f 124/114/132 157/145/132 160/147/132
f 116/116/133 161/151/133 125/166/133
f 127/126/134 172/158/134 163/159/134
f 130/120/135 170/154/135 166/153/135
f 132/121/136 165/155/136 129/122/136
f 132/121/137 166/153/137 168/167/137
f 129/122/138 169/156/138 133/123/138
f 137/168/139 170/154/139 134/129/139
f 136/125/140 169/156/140 172/158/140
f 128/127/141 173/162/141 137/168/141
f 179/169/142 178/170/142 180/171/142
f 179/169/143 177/172/143 175/173/143
f 185/174/144 184/175/144 182/176/144
f 183/177/145 185/174/145 181/178/145
f 175/173/146 183/177/146 181/178/146
f 176/179/147 184/175/147 178/170/147
f 180/171/148 183/177/148 177/172/148
f 180/171/149 184/175/149 186/180/149
f 195/181/150 190/182/150 192/183/150
f 195/181/151 189/184/151 193/185/151
f 198/186/152 193/185/152 196/187/152
f 198/186/153 194/188/153 195/181/153
f 200/189/154 198/186/154 201/190/154
f 199/191/155 198/186/155 196/187/155
f 187/192/156 201/190/156 199/191/156
f 188/193/157 201/190/157 191/194/157
f 210/195/158 205/196/158 209/197/158
f 204/198/159 210/195/159 208/199/159
f 208/199/160 213/200/160 211/201/160
f 213/200/161 209/197/161 212/202/161
f 213/200/162 215/203/162 216/204/162
f 214/205/163 213/200/163 216/204/163
f 202/206/164 216/204/164 206/207/164
f 216/204/165 203/208/165 206/207/165
f 187/192/166 214/205/166 202/206/166
f 190/182/167 209/197/167 205/196/167
f 192/183/168 204/198/168 189/184/168
f 192/183/169 205/196/169 207/209/169
f 189/184/170 208/199/170 193/185/170
f 197/210/171 209/197/171 194/188/171
f 196/187/172 208/199/172 211/201/172
f 200/189/173 212/202/173 197/210/173
f 199/191/174 211/201/174 214/205/174
f 200/189/175 203/208/175 215/203/175
f 5/1/176 2/11/176 4/2/176
f 5/1/177 6/3/177 3/4/177
f 11/6/178 12/12/178 10/7/178
f 9/9/179 12/12/179 11/6/179
f 1/5/5 3/4/5 9/9/5
f 2/11/6 8/8/6 10/7/6
f 6/3/180 12/12/180 9/9/180
f 6/3/181 4/2/181 10/7/181
f 20/15/9 19/14/9 23/13/9
f 19/14/9 21/13/9 23/13/9
f 21/13/9 22/24/9 23/13/9
f 18/16/10 30/21/10 29/17/10
f 16/19/11 28/23/11 27/17/11
f 13/20/12 14/16/12 25/21/12
f 13/20/13 26/22/13 30/21/13
f 17/18/14 29/17/14 28/23/14
f 15/18/15 27/17/15 25/21/15
f 19/14/16 20/15/16 26/22/16
f 19/14/17 25/21/17 27/17/17
f 21/13/18 27/17/18 28/23/18
f 23/13/19 22/24/19 28/23/19
f 24/14/20 23/13/20 29/17/20
f 24/14/21 30/21/21 26/22/21
f 39/25/182 38/92/182 34/26/182
f 39/25/183 36/27/183 33/28/183
f 40/30/184 42/32/184 39/25/184
f 31/31/185 35/34/185 42/32/185
f 32/33/186 41/35/186 42/32/186
f 41/35/187 38/92/187 39/25/187
f 51/36/188 50/94/188 46/37/188
f 51/36/189 48/38/189 45/39/189
f 52/41/190 54/43/190 51/36/190
f 43/42/191 47/45/191 54/43/191
f 44/44/192 53/46/192 54/43/192
f 53/46/193 50/94/193 51/36/193
f 63/47/194 62/96/194 58/48/194
f 63/47/195 60/49/195 57/50/195
f 64/52/196 66/54/196 63/47/196
f 55/53/197 59/56/197 66/54/197
f 56/55/198 65/57/198 66/54/198
f 65/57/199 62/96/199 63/47/199
f 75/58/200 72/91/200 70/59/200
f 69/61/201 72/91/201 75/58/201
f 76/63/202 73/62/202 75/58/202
f 67/65/203 76/63/203 78/64/203
f 78/64/204 77/68/204 68/67/204
f 75/58/205 74/60/205 77/68/205
f 87/69/206 84/93/206 82/70/206
f 81/72/207 84/93/207 87/69/207
f 88/74/208 85/73/208 87/69/208
f 79/76/209 88/74/209 90/75/209
f 90/75/210 89/79/210 80/78/210
f 87/69/211 86/71/211 89/79/211
f 99/80/212 96/95/212 94/81/212
f 93/83/213 96/95/213 99/80/213
f 100/85/214 97/84/214 99/80/214
f 91/87/215 100/85/215 102/86/215
f 102/86/216 101/90/216 92/89/216
f 99/80/217 98/82/217 101/90/217
f 31/31/218 40/30/218 76/63/218
f 34/26/219 38/92/219 74/60/219
f 36/27/220 72/91/220 69/61/220
f 36/27/221 34/26/221 70/59/221
f 33/28/222 69/61/222 73/62/222
f 41/35/223 77/68/223 74/60/223
f 40/30/224 37/29/224 73/62/224
f 32/33/225 68/67/225 77/68/225
f 43/42/226 52/41/226 88/74/226
f 46/37/227 50/94/227 86/71/227
f 48/38/228 84/93/228 81/72/228
f 48/38/229 46/37/229 82/70/229
f 45/39/230 81/72/230 85/73/230
f 53/46/231 89/79/231 86/71/231
f 52/41/232 49/40/232 85/73/232
f 44/44/233 80/78/233 89/79/233
f 55/53/234 64/52/234 100/85/234
f 58/48/235 62/96/235 98/82/235
f 60/49/236 96/95/236 93/83/236
f 60/49/237 58/48/237 94/81/237
f 57/50/238 93/83/238 97/84/238
f 65/57/239 101/90/239 98/82/239
f 64/52/240 61/51/240 97/84/240
f 56/55/241 92/89/241 101/90/241
f 111/97/242 110/107/242 106/98/242
f 111/97/243 108/99/243 105/100/243
f 114/102/244 111/97/244 109/101/244
f 103/104/245 107/106/245 114/102/245
f 104/105/246 113/164/246 114/102/246
f 114/102/247 113/164/247 110/107/247
f 123/108/248 122/118/248 118/109/248
f 123/108/249 120/110/249 117/111/249
f 126/113/250 123/108/250 121/112/250
f 115/115/251 119/117/251 126/113/251
f 116/116/252 125/166/252 126/113/252
f 126/113/253 125/166/253 122/118/253
f 135/119/254 134/129/254 130/120/254
f 135/119/255 132/121/255 129/122/255
f 138/124/256 135/119/256 133/123/256
f 127/126/257 131/128/257 138/124/257
f 128/127/258 137/168/258 138/124/258
f 138/124/259 137/168/259 134/129/259
f 147/130/260 144/163/260 142/131/260
f 141/133/261 144/163/261 147/130/261
f 145/134/262 147/130/262 150/135/262
f 139/137/263 148/136/263 150/135/263
f 150/135/264 149/140/264 140/139/264
f 150/135/265 147/130/265 146/132/265
f 159/141/266 156/165/266 154/142/266
f 153/144/267 156/165/267 159/141/267
f 157/145/268 159/141/268 162/146/268
f 151/148/269 160/147/269 162/146/269
f 162/146/270 161/151/270 152/150/270
f 162/146/271 159/141/271 158/143/271
f 171/152/272 168/167/272 166/153/272
f 165/155/273 168/167/273 171/152/273
f 169/156/274 171/152/274 174/157/274
f 163/159/275 172/158/275 174/157/275
f 174/157/276 173/162/276 164/161/276
f 174/157/277 171/152/277 170/154/277
f 103/104/278 112/103/278 148/136/278
f 106/98/279 110/107/279 146/132/279
f 108/99/280 144/163/280 141/133/280
f 108/99/281 106/98/281 142/131/281
f 105/100/282 141/133/282 145/134/282
f 113/164/283 149/140/283 146/132/283
f 112/103/284 109/101/284 145/134/284
f 104/105/285 140/139/285 149/140/285
f 115/115/286 124/114/286 160/147/286
f 118/109/287 122/118/287 158/143/287
f 120/110/288 156/165/288 153/144/288
f 120/110/289 118/109/289 154/142/289
f 117/111/290 153/144/290 157/145/290
f 125/166/291 161/151/291 158/143/291
f 124/114/292 121/112/292 157/145/292
f 116/116/293 152/150/293 161/151/293
f 127/126/294 136/125/294 172/158/294
f 130/120/295 134/129/295 170/154/295
f 132/121/296 168/167/296 165/155/296
f 132/121/297 130/120/297 166/153/297
f 129/122/298 165/155/298 169/156/298
f 137/168/299 173/162/299 170/154/299
f 136/125/300 133/123/300 169/156/300
f 128/127/301 164/161/301 173/162/301
f 179/169/302 176/179/302 178/170/302
f 179/169/303 180/171/303 177/172/303
f 185/174/304 186/180/304 184/175/304
f 183/177/305 186/180/305 185/174/305
f 175/173/146 177/172/146 183/177/146
f 176/179/147 182/176/147 184/175/147
f 180/171/306 186/180/306 183/177/306
f 180/171/307 178/170/307 184/175/307
f 195/181/308 194/188/308 190/182/308
f 195/181/309 192/183/309 189/184/309
f 198/186/310 195/181/310 193/185/310
f 198/186/311 197/210/311 194/188/311
f 200/189/312 197/210/312 198/186/312
f 199/191/313 201/190/313 198/186/313
f 187/192/314 191/194/314 201/190/314
f 188/193/315 200/189/315 201/190/315
f 210/195/316 207/209/316 205/196/316
f 204/198/317 207/209/317 210/195/317
f 208/199/318 210/195/318 213/200/318
f 213/200/319 210/195/319 209/197/319
f 213/200/320 212/202/320 215/203/320
f 214/205/321 211/201/321 213/200/321
f 202/206/322 214/205/322 216/204/322
f 216/204/323 215/203/323 203/208/323
f 187/192/324 199/191/324 214/205/324
f 190/182/325 194/188/325 209/197/325
f 192/183/326 207/209/326 204/198/326
f 192/183/327 190/182/327 205/196/327
f 189/184/328 204/198/328 208/199/328
f 197/210/329 212/202/329 209/197/329
f 196/187/330 193/185/330 208/199/330
f 200/189/331 215/203/331 212/202/331
f 199/191/332 196/187/332 211/201/332
f 200/189/333 188/193/333 203/208/333
