# Blender 4.4.0
# www.blender.org
mtllib Crop_Bean_STAGE_3_01.mtl
o Crop_Bean_STAGE_3_01
v -0.020308 0.000000 0.040617
v -0.020308 0.000000 -0.020308
v 0.040617 0.000000 -0.020308
v -0.020308 1.145384 0.040617
v -0.020308 1.145384 -0.020308
v 0.040617 1.145384 -0.020308
v 0.006313 0.001340 0.012633
v -0.028705 0.000000 -0.022410
v -0.063723 -0.001340 0.012633
v -0.028705 -0.000000 0.047677
v -0.004925 0.146439 0.013799
v -0.034584 0.141137 -0.014801
v -0.062710 0.156775 0.011468
v -0.033052 0.162077 0.040067
v 0.028173 0.201973 -0.045329
v 0.001166 0.207495 -0.079134
v -0.026002 0.230260 -0.053711
v 0.001005 0.224738 -0.019905
v 0.099237 0.324807 -0.016766
v 0.074761 0.338236 -0.051058
v 0.038878 0.338811 -0.025222
v 0.063355 0.325383 0.009071
v 0.071065 0.537336 0.037331
v 0.045667 0.539452 -0.001139
v 0.008387 0.526468 0.022759
v 0.033785 0.524352 0.061229
v 0.015897 0.705398 0.060270
v -0.002273 0.697761 0.027648
v -0.032916 0.686544 0.047341
v -0.014746 0.694181 0.079964
v -0.017775 0.773392 0.046555
v -0.032923 0.756142 0.017667
v -0.066392 0.760632 0.032537
v -0.051245 0.777882 0.061424
v 0.005482 0.834900 -0.020414
v -0.006647 0.827366 -0.054437
v -0.033895 0.851874 -0.050151
v -0.021767 0.859408 -0.016127
v 0.070077 0.879507 -0.020525
v 0.076023 0.897915 -0.050378
v 0.044154 0.913394 -0.047182
v 0.038208 0.894986 -0.017328
v 0.050819 0.949095 0.069842
v 0.055752 0.967309 0.047023
v 0.029342 0.960225 0.035659
v 0.024409 0.942011 0.058478
v -0.028013 1.056451 0.077275
v -0.016178 1.053290 0.059398
v -0.032435 1.041946 0.050642
v -0.044269 1.045107 0.068519
v -0.033547 1.129352 -0.014439
v -0.029423 1.119162 -0.031242
v -0.047878 1.124312 -0.025821
v 0.033388 0.963434 0.053103
v 0.043608 0.950279 0.058045
v 0.039467 0.954668 0.041750
v 0.105826 1.011112 0.044810
v 0.114967 1.005744 0.053425
v -0.036336 0.781594 0.041549
v -0.036883 0.767012 0.024625
v -0.047831 0.752430 0.037542
v -0.047284 0.767012 0.054466
v -0.125121 0.815018 0.010644
v -0.121769 0.803829 -0.000119
v -0.125442 0.792558 0.010453
v -0.128794 0.803748 0.021217
v -0.171054 0.797432 -0.003647
v -0.163762 0.781924 -0.007182
v -0.170576 0.787071 0.008091
v 0.032317 0.544680 0.024948
v 0.040964 0.531902 0.039058
v 0.047135 0.519123 0.023703
v 0.038488 0.531902 0.009593
v 0.131449 0.589551 0.012817
v 0.132411 0.585600 0.024231
v 0.132581 0.577930 0.016565
v 0.178460 0.576458 0.006400
v 0.177571 0.569291 0.014170
v -0.010550 1.128930 -0.023431
v -0.061000 1.132773 -0.002623
v -0.101417 1.010766 -0.138999
v -0.009591 1.062644 -0.113313
v -0.135413 1.080306 -0.062932
v 0.004487 1.097096 -0.082073
v -0.114926 1.114931 -0.033214
v -0.062478 1.108724 -0.076111
v -0.038721 1.082296 0.042549
v -0.164556 1.084142 0.171230
v -0.126140 1.124420 0.083270
v -0.071274 1.038349 0.165476
v -0.086715 1.120358 0.057386
v -0.034269 1.038867 0.135135
v -0.063494 1.091149 0.111267
v 0.099033 1.024688 0.072230
v 0.090735 1.003378 0.023806
v 0.253000 0.932428 0.055571
v 0.194735 0.999816 0.109663
v 0.175876 0.952949 -0.011274
v 0.154536 1.023648 0.103598
v 0.135727 0.979251 -0.011615
v 0.162984 1.007442 0.040946
v 0.119412 1.002007 0.049383
v 0.069503 0.996344 0.041727
v 0.114009 0.889345 -0.050496
v 0.165722 0.937675 -0.002305
v 0.047049 0.936376 -0.024493
v 0.157468 0.975891 0.020810
v 0.045470 0.973681 -0.000332
v 0.104513 0.971619 -0.008612
v 0.001042 1.006048 0.069492
v 0.030123 0.966435 0.063370
v 0.019765 0.988984 0.068607
v -0.045125 0.921320 0.198469
v -0.046231 1.001395 0.150442
v 0.022776 0.907320 0.135965
v -0.025800 1.018156 0.117422
v 0.040095 0.928788 0.102959
v 0.011547 0.973907 0.127204
v 0.041962 0.875130 -0.122726
v -0.020661 0.837780 -0.104038
v 0.105809 0.905845 -0.096984
v -0.004337 0.804429 -0.145006
v 0.128217 0.876260 -0.136706
v 0.095858 0.785469 -0.208048
v 0.026367 0.895280 -0.047982
v 0.001181 0.874728 -0.046649
v 0.057045 0.904980 -0.043173
v -0.071931 0.804179 -0.063867
v -0.078662 0.759654 -0.018096
v -0.036335 0.843311 -0.100531
v -0.090937 0.771829 -0.106952
v -0.097854 0.731635 -0.051912
v -0.052922 0.819736 -0.137848
v -0.091052 0.731070 -0.149340
v -0.028167 0.822230 -0.022496
v -0.033197 0.799893 -0.005922
v -0.014269 0.837016 -0.042155
v -0.148065 0.811389 -0.008387
v -0.135422 0.791964 0.030302
v -0.272590 0.702929 0.020887
v -0.236362 0.775137 -0.034280
v -0.198389 0.735135 0.075847
v -0.203001 0.803759 -0.032350
v -0.165915 0.766372 0.072515
v -0.200108 0.787686 0.027557
v -0.125588 0.804607 0.001099
v -0.156737 0.782217 0.026264
v -0.153497 0.687762 -0.094636
v -0.113196 0.765538 -0.079130
v -0.192615 0.714073 -0.019237
v -0.114081 0.794272 -0.050901
v -0.189565 0.745655 0.006692
v -0.161366 0.768458 -0.035804
v 0.155610 0.594329 0.039043
v 0.157275 0.569943 -0.017504
v 0.332455 0.488390 0.055116
v 0.254662 0.566592 0.102667
v 0.260976 0.512837 -0.037578
v 0.210737 0.593765 0.086644
v 0.215856 0.542832 -0.047069
v 0.235380 0.574066 0.018466
v 0.179729 0.589044 0.016438
v 0.124509 0.577514 0.003113
v 0.199669 0.542733 -0.174298
v 0.245327 0.591142 -0.076090
v 0.109704 0.570875 -0.108451
v 0.181032 0.586168 -0.112011
v 0.229646 0.601114 -0.029032
v 0.099854 0.581012 -0.059029
v 0.165179 0.603026 -0.054367
v 0.005353 0.750168 0.120488
v 0.031775 0.685868 0.102570
v -0.044563 0.802230 0.123021
v -0.005966 0.737615 0.174593
v 0.032577 0.674472 0.153556
v -0.047303 0.794826 0.173456
v -0.031817 0.714040 0.227950
v -0.019082 0.744692 0.054999
v -0.007591 0.715500 0.051968
v -0.041330 0.766358 0.060312
v 0.074950 0.593278 0.106041
v 0.104548 0.534270 0.088535
v 0.022266 0.636213 0.115778
v 0.078128 0.586108 0.159392
v 0.117969 0.529325 0.136132
v 0.031750 0.634512 0.163371
v 0.069427 0.566738 0.216256
v 0.039208 0.577926 0.051860
v 0.049963 0.552809 0.046144
v 0.016852 0.596074 0.060180
v -0.062279 1.107475 -0.075929
v -0.018143 1.044636 0.075634
v -0.064663 1.090794 0.110741
v 0.163015 1.005787 0.041737
v 0.104173 0.971004 -0.007829
v 0.018954 0.988424 0.068377
v 0.010423 0.973551 0.127016
v 0.042903 0.874318 -0.122477
v 0.026814 0.894422 -0.047684
v -0.071124 0.803556 -0.064084
v -0.089973 0.771447 -0.106841
v -0.027542 0.821534 -0.022884
v -0.199946 0.786828 0.026701
v -0.160422 0.767746 -0.035791
v 0.235319 0.573104 0.019307
v 0.181062 0.585237 -0.111560
v 0.165325 0.601995 -0.054314
v 0.004484 0.749582 0.120554
v -0.006784 0.737129 0.174208
v -0.019845 0.744128 0.055352
v 0.074219 0.592597 0.106364
v 0.077327 0.585480 0.159258
v 0.038637 0.577319 0.052434
v 0.147616 0.961772 0.032787
v 0.135564 0.951624 0.037750
v 0.147837 0.958825 0.047228
v 0.138998 1.005064 0.040245
v 0.129745 1.005540 0.038629
v 0.175553 0.875376 0.022457
v 0.175089 0.873334 0.039499
v 0.202753 0.858725 0.024323
v 0.219217 0.830166 0.012059
v 0.210819 0.833596 0.028046
v 0.203180 0.857032 0.033550
v 0.258901 0.811271 0.004276
v 0.255084 0.807409 0.010754
v 0.127313 0.969983 0.065908
v 0.135847 0.958154 0.058153
v 0.120676 0.964748 0.053833
v 0.131933 1.010563 0.047576
v 0.138024 1.008315 0.046665
v 0.106450 0.889188 0.103167
v 0.099274 0.884357 0.088337
v 0.081177 0.874879 0.116473
v 0.071744 0.850243 0.139736
v 0.072170 0.850274 0.121360
v 0.076681 0.871745 0.108848
v 0.039570 0.836386 0.167402
v 0.040088 0.831202 0.160745
v 0.167172 0.531294 -0.009314
v 0.157169 0.520257 -0.001846
v 0.171847 0.526922 0.004005
v 0.161489 0.574463 0.004542
v 0.152196 0.574858 0.005914
v 0.190050 0.445487 -0.035924
v 0.194854 0.441900 -0.019833
v 0.207251 0.451563 -0.029470
v 0.228095 0.402522 -0.063535
v 0.221927 0.403714 -0.048541
v 0.237837 0.402722 -0.051812
v 0.232184 0.413030 -0.057146
v 0.263319 0.385396 -0.084945
v 0.261673 0.380861 -0.078004
v 0.158130 0.534502 0.029099
v 0.163780 0.523650 0.018001
v 0.148053 0.530242 0.019220
v 0.158814 0.576510 0.014804
v 0.166791 0.576837 0.014648
v 0.162424 0.576792 0.006325
v 0.149382 0.450132 0.063107
v 0.137942 0.446516 0.050825
v 0.129388 0.434046 0.082136
v 0.127483 0.407148 0.104718
v 0.122202 0.408884 0.087198
v 0.122736 0.431520 0.076008
v 0.105376 0.390021 0.139509
v 0.103780 0.385487 0.132556
v -0.133623 0.745140 -0.011798
v -0.144562 0.734288 -0.005845
v -0.130905 0.740881 0.002049
v -0.141188 0.787338 0.001096
v -0.150584 0.787735 0.001129
v -0.107166 0.660770 -0.034886
v -0.104684 0.657154 -0.018286
v -0.079914 0.644684 -0.039261
v -0.065564 0.617786 -0.056802
v -0.071124 0.619522 -0.039368
v -0.077897 0.642158 -0.030445
v -0.027649 0.600660 -0.072976
v -0.030267 0.596125 -0.066340
v -0.141431 0.746030 0.023095
v -0.149096 0.738914 0.009484
v -0.145202 0.791752 0.007186
v -0.140213 0.793043 0.009842
v -0.140518 0.792056 0.002990
v -0.161515 0.665395 0.057335
v -0.171089 0.661780 0.043549
v -0.184015 0.649310 0.073321
v -0.189118 0.622412 0.095402
v -0.191849 0.624148 0.077308
v -0.189726 0.646784 0.066308
v -0.215956 0.605285 0.126689
v -0.216546 0.600751 0.119579
v -0.054173 1.039996 0.066654
v -0.055454 1.034121 0.055061
v -0.061512 1.044429 0.055029
v -0.039938 1.071503 0.074023
v -0.041758 1.075389 0.069111
v -0.099718 0.981426 0.054855
v -0.100394 0.984594 0.041414
v -0.124400 0.974780 0.051966
v -0.142738 0.953488 0.055506
v -0.136067 0.958903 0.043454
v -0.125417 0.976191 0.044607
v -0.176524 0.943883 0.057961
vn -0.0000 1.0000 -0.0000
vn -1.0000 -0.0000 -0.0000
vn -0.0000 -0.0000 -1.0000
vn 0.7071 -0.0000 0.7071
vn 0.7056 0.0490 0.7069
vn 0.7045 0.0674 -0.7065
vn -0.7075 0.0086 -0.7067
vn -0.7075 0.0097 0.7066
vn 0.7288 0.2234 0.6473
vn 0.5260 -0.7468 -0.4070
vn -0.7277 -0.2144 -0.6515
vn -0.5477 0.7144 0.4355
vn 0.3690 -0.4610 0.8071
vn 0.7286 -0.2755 -0.6271
vn -0.3860 0.4430 -0.8092
vn -0.7298 0.2715 0.6274
vn 0.5781 -0.1285 0.8058
vn 0.8322 0.2378 -0.5009
vn -0.5791 0.1164 -0.8069
vn -0.8316 -0.2532 0.4944
vn 0.5248 0.0564 0.8493
vn 0.7952 0.3330 -0.5067
vn -0.5373 -0.0094 -0.8433
vn -0.8065 -0.2874 0.5166
vn 0.4033 0.3687 0.8375
vn 0.8041 0.2940 -0.5167
vn -0.4085 -0.3580 -0.8396
vn -0.8217 -0.2443 0.5149
vn 0.3993 0.5520 0.7320
vn 0.8564 -0.4925 -0.1550
vn -0.4024 -0.5319 -0.7451
vn -0.8639 0.4741 0.1700
vn 0.0741 -0.0913 0.9931
vn 0.5681 -0.8227 -0.0203
vn -0.0528 0.1148 -0.9920
vn -0.5103 0.8599 -0.0085
vn -0.3261 -0.7813 0.5322
vn 0.9799 0.0066 0.1993
vn 0.3378 0.7984 -0.4985
vn -0.9825 0.0170 -0.1853
vn -0.3112 -0.2911 0.9047
vn 0.6819 0.4927 0.5406
vn 0.2837 0.3649 -0.8868
vn -0.7252 -0.4531 -0.5185
vn -0.6607 0.5677 0.4911
vn 0.7384 0.5489 0.3918
vn 0.6602 -0.5584 -0.5023
vn -0.7524 -0.5184 -0.4064
vn -0.4541 0.5709 -0.6840
vn -0.1357 0.2543 0.9576
vn 0.5619 -0.7517 -0.3453
vn -0.0048 0.6651 0.7467
vn 0.4600 0.6653 -0.5881
vn -0.0604 -0.6361 -0.7692
vn -0.5259 -0.6359 0.5649
vn -0.4424 0.6860 0.5776
vn -0.0372 0.6870 -0.7257
vn 0.4530 -0.6840 -0.5718
vn 0.0453 -0.6855 0.7267
vn -0.3705 0.6353 -0.6776
vn -0.2541 0.6343 0.7301
vn 0.4580 -0.5841 0.6702
vn 0.3402 -0.5838 -0.7372
vn 0.2933 0.9108 0.2906
vn -0.0979 -0.7046 0.7028
vn -0.2148 -0.3187 -0.9232
vn -0.3629 0.6013 -0.7119
vn -0.0880 0.5627 -0.8220
vn 0.0479 0.6602 -0.7496
vn -0.3851 0.7216 -0.5753
vn -0.0554 0.9493 -0.3095
vn 0.3574 0.6429 0.6775
vn 0.2302 0.8428 0.4865
vn 0.3164 0.8844 0.3431
vn 0.5130 0.5769 0.6356
vn 0.7740 0.6002 0.2017
vn 0.6005 0.6228 -0.5016
vn 0.6455 0.7323 -0.2170
vn 0.5208 0.8409 -0.1473
vn 0.4454 0.6722 -0.5915
vn 0.0457 0.9114 -0.4089
vn -0.0299 0.4507 -0.8922
vn 0.3385 0.4576 -0.8222
vn 0.3759 0.5377 -0.7547
vn -0.0986 0.5380 -0.8371
vn -0.0306 0.8886 -0.4577
vn 0.6853 0.2074 0.6981
vn 0.5088 0.4480 0.7352
vn 0.5262 0.5813 0.6206
vn 0.8035 0.2088 0.5575
vn 0.9048 0.3643 0.2206
vn 0.6550 0.7045 0.2731
vn -0.5219 0.5478 -0.6539
vn -0.1127 0.7654 -0.6336
vn -0.1310 0.6410 -0.7563
vn -0.3915 0.4998 -0.7726
vn -0.6087 0.7250 -0.3224
vn -0.2446 0.9222 -0.2996
vn -0.9074 0.3600 0.2167
vn -0.7668 0.6388 -0.0627
vn -0.8273 0.4061 -0.3882
vn -0.9947 0.0755 -0.0699
vn -0.6888 0.5256 0.4993
vn -0.5445 0.8085 0.2232
vn -0.6444 0.5059 0.5735
vn -0.7348 0.6042 0.3082
vn -0.6416 0.7325 0.2275
vn -0.4917 0.5804 0.6491
vn -0.0781 0.8805 0.4676
vn -0.7995 0.3010 -0.5198
vn -0.5859 0.4393 -0.6810
vn -0.5196 0.5906 -0.6175
vn -0.8517 0.3792 -0.3617
vn -0.6416 0.7576 -0.1201
vn 0.6896 0.6243 -0.3671
vn 0.6780 0.7295 -0.0905
vn 0.5382 0.8414 -0.0486
vn 0.5523 0.6766 -0.4870
vn 0.1312 0.9117 -0.3893
vn -0.1963 0.7758 -0.5997
vn 0.2220 0.8297 -0.5122
vn 0.0978 0.9797 -0.1750
vn -0.2934 0.9233 -0.2479
vn -0.2531 0.9379 0.2372
vn 0.9293 0.3633 0.0666
vn 0.7182 0.6818 0.1391
vn 0.6737 0.4977 0.5463
vn 0.7942 0.3108 0.5221
vn 0.8581 0.3743 -0.3515
vn 0.6295 0.7188 -0.2950
vn 0.8537 0.4847 -0.1904
vn 0.6182 0.7802 -0.0953
vn 0.6961 0.6403 0.3246
vn 0.8354 0.4684 0.2874
vn 0.6935 0.4287 -0.5790
vn 0.4282 0.7551 -0.4964
vn 0.3521 -0.6071 0.7124
vn 0.0939 -0.5702 0.8161
vn -0.0344 -0.6636 0.7473
vn 0.0620 -0.9438 0.3246
vn -0.0956 -0.8849 0.4559
vn -0.3609 -0.6512 -0.6676
vn -0.2402 -0.8386 -0.4889
vn -0.3224 -0.8782 -0.3533
vn -0.7649 -0.6071 -0.2153
vn -0.6425 -0.7513 -0.1508
vn -0.5947 -0.6369 0.4906
vn -0.6358 -0.7361 0.2322
vn -0.5214 -0.8362 0.1700
vn -0.0720 -0.9083 0.4120
vn -0.1610 -0.9539 0.2533
vn 0.0207 -0.4610 0.8871
vn -0.3272 -0.4683 0.8208
vn -0.3600 -0.5385 0.7618
vn 0.0279 -0.8820 0.4705
vn -0.1955 -0.8395 0.5070
vn -0.6848 -0.2215 -0.6943
vn -0.5201 -0.4446 -0.7293
vn -0.5372 -0.5700 -0.6217
vn -0.8878 -0.3985 -0.2302
vn -0.7263 -0.6424 -0.2445
vn 0.1235 -0.7612 0.6366
vn 0.1403 -0.6422 0.7536
vn 0.3871 -0.5094 0.7685
vn 0.5843 -0.7434 0.3255
vn 0.3334 -0.8978 0.2877
vn 0.9216 -0.3649 -0.1323
vn 0.7751 -0.6296 0.0532
vn 0.8369 -0.4073 0.3657
vn 0.9925 -0.1001 0.0699
vn 0.6812 -0.5535 -0.4791
vn 0.5668 -0.7684 -0.2971
vn 0.6429 -0.5175 -0.5647
vn 0.7276 -0.6079 -0.3179
vn 0.6398 -0.7294 -0.2422
vn 0.0961 -0.8766 -0.4715
vn 0.2504 -0.9271 -0.2788
vn 0.7931 -0.3149 0.5214
vn 0.5951 -0.4422 0.6710
vn 0.5338 -0.5842 0.6114
vn 0.6484 -0.7490 0.1362
vn 0.5438 -0.7919 0.2777
vn -0.6850 -0.6327 0.3613
vn -0.6746 -0.7315 0.0994
vn -0.5409 -0.8390 0.0600
vn -0.1462 -0.9099 0.3881
vn -0.1998 -0.9548 0.2200
vn 0.1841 -0.7875 0.5881
vn -0.2030 -0.8376 0.5072
vn -0.0840 -0.9801 0.1797
vn 0.2002 -0.9241 0.3255
vn 0.2506 -0.9419 -0.2234
vn 0.0620 -0.9795 -0.1919
vn -0.8516 -0.4422 -0.2815
vn -0.7279 -0.6716 -0.1382
vn -0.6896 -0.4912 -0.5322
vn -0.7935 -0.3299 -0.5114
vn -0.8458 -0.4033 0.3493
vn -0.6810 -0.6502 0.3368
vn -0.8155 -0.5779 -0.0298
vn -0.6294 -0.7709 0.0979
vn -0.7098 -0.6340 -0.3069
vn -0.8291 -0.4868 -0.2750
vn -0.6756 -0.4601 0.5761
vn -0.4796 -0.6886 0.5439
vn 0.0105 0.3997 -0.9166
vn -0.3736 -0.0099 -0.9275
vn 0.9813 0.1912 0.0240
vn -0.3633 -0.0240 -0.9313
vn -0.1650 0.1164 0.9794
vn 0.8816 0.4650 0.0814
vn -0.5036 -0.2357 0.8312
vn 0.3831 0.5420 -0.7479
vn -0.7539 -0.6495 -0.0984
vn 0.2953 -0.1262 0.9470
vn -0.4300 -0.6412 -0.6356
vn 0.6636 0.7407 0.1052
vn 0.4004 0.5434 0.7378
vn 0.7472 0.1094 0.6555
vn -0.8885 0.2691 0.3717
vn 0.7513 0.1162 0.6496
vn -0.1795 -0.0897 -0.9797
vn -0.8233 0.5201 0.2271
vn 0.0800 -0.4110 -0.9081
vn -0.0076 0.6881 0.7256
vn 0.7157 -0.6876 -0.1223
vn -0.6865 -0.2531 -0.6817
vn 0.6646 -0.5636 0.4906
vn -0.6373 0.7683 0.0600
vn -0.2093 0.5662 -0.7972
vn -0.6424 0.0655 -0.7636
vn 0.9422 0.2083 -0.2624
vn -0.6337 0.0520 -0.7719
vn 0.1469 0.0208 0.9889
vn 0.8679 0.4739 -0.1491
vn -0.2226 -0.3186 0.9214
vn 0.1389 -0.5303 0.8364
vn 0.0903 0.5938 -0.7996
vn -0.7777 -0.6217 0.0936
vn 0.8593 0.5068 0.0686
vn -0.6090 -0.5901 -0.5299
vn 0.7672 0.5715 0.2912
vn 0.0967 -0.7191 0.6882
vn 0.6120 0.4826 0.6265
vn 0.9140 0.0666 0.4003
vn -0.7292 0.2311 0.6441
vn 0.8828 -0.0204 0.4694
vn -0.9080 0.1749 -0.3807
vn -0.7098 0.4768 0.5185
vn -0.2072 -0.3235 -0.9233
vn 0.2211 0.6179 0.7546
vn 0.6389 -0.6558 -0.4021
vn -0.8651 -0.2057 -0.4575
vn 0.7807 -0.5901 0.2056
vn -0.5833 0.7437 0.3266
vn -0.1501 0.4826 -0.8629
vn -0.5271 0.0666 -0.8472
vn 0.9692 0.2120 -0.1250
vn -0.5175 0.0531 -0.8541
vn 0.0044 0.0215 0.9998
vn 0.8786 0.4768 -0.0258
vn -0.3516 -0.3235 0.8785
vn 0.2447 0.6179 -0.7472
vn -0.7543 -0.6558 -0.0301
vn 0.4544 -0.2057 0.8667
vn -0.5273 -0.5901 -0.6113
vn 0.6657 0.7437 0.0608
vn 0.5165 0.4826 0.7073
vn 0.8925 -0.1436 -0.4275
vn -0.6677 0.0169 -0.7442
vn 0.2934 0.3357 0.8951
vn -0.8414 0.0386 -0.5391
vn 0.8821 -0.3524 -0.3125
vn 0.1113 0.6179 0.7784
vn 0.6897 -0.6558 -0.3069
vn -0.5043 0.2464 0.8277
vn -0.7911 -0.2057 -0.5761
vn 0.7435 -0.5901 0.3147
vn -0.6238 0.7437 0.2402
vn 0.0333 0.1360 0.9902
vn 0.8939 -0.4320 0.1201
vn -0.8075 0.2787 0.5199
vn 0.0134 -0.2335 0.9723
vn 0.7438 -0.6257 0.2349
vn -0.7344 0.6683 -0.1185
vn 0.1822 0.1040 -0.9777
vn -0.1952 0.3221 0.9264
vn 0.5624 -0.7980 -0.2164
vn -0.4222 0.3167 -0.8494
vn -0.4768 0.8488 0.2286
vn 0.0937 0.8613 -0.4994
vn 0.6970 0.0523 0.7152
vn 0.6874 0.0591 -0.7238
vn -0.6829 -0.0010 -0.7306
vn -0.6955 0.0151 0.7184
vn 0.7560 0.2097 0.6201
vn 0.4691 -0.7319 -0.4943
vn -0.7537 -0.2006 -0.6258
vn -0.4965 0.7015 0.5113
vn 0.5126 -0.4645 0.7222
vn 0.7282 -0.2754 -0.6276
vn -0.5177 0.4479 -0.7289
vn -0.7299 0.2716 0.6273
vn 0.5666 -0.1291 0.8138
vn 0.8147 0.2479 -0.5242
vn -0.5646 0.1172 -0.8170
vn -0.8113 -0.2651 0.5211
vn 0.5251 0.0564 0.8492
vn 0.7898 0.3298 -0.5171
vn -0.5382 -0.0094 -0.8428
vn -0.8066 -0.2875 0.5165
vn 0.4184 0.3665 0.8310
vn 0.7594 0.3000 -0.5773
vn -0.4189 -0.3562 -0.8353
vn -0.7907 -0.2452 0.5610
vn 0.5581 0.5054 0.6581
vn 0.8434 -0.5028 -0.1893
vn -0.5460 -0.4880 -0.6810
vn -0.8533 0.4827 0.1973
vn 0.0593 -0.0834 0.9948
vn 0.6248 -0.7140 -0.3158
vn -0.0458 0.1108 -0.9928
vn -0.5912 0.7338 0.3347
vn 0.0010 -0.8497 0.5273
vn 0.9777 -0.0019 0.2098
vn -0.0202 0.8688 -0.4947
vn -0.9809 0.0236 -0.1932
vn -0.2933 -0.2843 0.9128
vn 0.7504 0.5230 0.4043
vn 0.2432 0.3498 -0.9047
vn -0.7712 -0.4721 -0.4270
vn -0.6192 0.5895 0.5186
vn 0.9575 0.2812 0.0644
vn -0.3752 -0.6675 -0.6432
vn -0.3207 0.6129 0.7222
vn 0.4394 -0.4752 -0.7623
vn 0.0033 0.6836 0.7299
vn 0.4558 0.6842 -0.5693
vn -0.0747 -0.6692 -0.7393
vn -0.5187 -0.6683 0.5332
vn -0.4519 0.6596 0.6006
vn 0.0384 0.2392 -0.9702
vn 0.0944 -0.9299 0.3555
vn -0.3548 0.8738 0.3324
vn 0.4664 -0.6202 0.6308
vn 0.2073 -0.2819 -0.9368
vn 0.3821 0.6571 0.6498
vn -0.1732 -0.7140 -0.6784
vn -0.8921 -0.3562 -0.2780
vn -0.1384 0.9421 -0.3055
vn 0.1135 0.8851 -0.4514
vn 0.7842 0.5602 0.2668
vn 0.6408 0.7560 0.1336
vn 0.0699 0.8635 -0.4994
vn 0.1474 0.9622 -0.2290
vn -0.0334 0.8877 -0.4592
vn 0.2071 0.8437 -0.4953
vn 0.8730 0.4438 0.2021
vn 0.7165 0.6567 0.2353
vn -0.5527 0.7805 -0.2921
vn -0.3230 0.9046 -0.2782
vn -0.9245 0.3538 0.1422
vn -0.8062 0.5856 -0.0840
vn -0.6504 0.5901 0.4784
vn -0.5541 0.7790 0.2935
vn -0.0781 0.8765 0.4750
vn -0.2441 0.9336 0.2623
vn -0.7129 0.6940 -0.1007
vn -0.5270 0.8037 -0.2764
vn 0.1680 0.8695 -0.4645
vn 0.1899 0.9594 -0.2086
vn 0.0718 0.9625 -0.2617
vn -0.2137 0.9202 -0.3279
vn -0.3256 0.9279 0.1814
vn -0.0510 0.9777 0.2035
vn 0.8581 0.4307 0.2794
vn 0.7724 0.5639 0.2924
vn 0.8153 0.4399 -0.3766
vn 0.6698 0.6589 -0.3424
vn 0.8235 0.5667 0.0271
vn 0.7232 0.6889 0.0495
vn 0.6317 0.4941 -0.5973
vn 0.4656 0.6954 -0.5474
vn 0.3718 -0.7214 0.5842
vn 0.1280 -0.9382 0.3215
vn -0.5064 -0.5913 -0.6277
vn -0.7726 -0.5768 -0.2653
vn -0.4529 -0.6840 0.5719
vn -0.0900 -0.8726 0.4801
vn 0.0824 -0.5393 0.8381
vn 0.0191 -0.8847 0.4658
vn -0.7952 -0.2244 -0.5633
vn -0.8633 -0.4560 -0.2162
vn -0.6836 -0.6776 -0.2713
vn 0.5101 -0.5563 0.6561
vn 0.5394 -0.7864 0.3010
vn 0.2733 -0.9126 0.3041
vn 0.9053 -0.3714 -0.2061
vn 0.8136 -0.5766 0.0743
vn 0.6536 -0.5981 -0.4638
vn 0.5607 -0.7899 -0.2484
vn 0.5009 -0.5884 -0.6348
vn 0.0960 -0.8804 -0.4644
vn 0.8415 -0.3891 0.3749
vn 0.7056 -0.6983 0.1209
vn -0.5544 -0.6838 0.4744
vn -0.1773 -0.8748 0.4509
vn -0.0582 -0.9623 0.2657
vn 0.2797 -0.9280 0.2461
vn 0.3119 -0.9336 -0.1763
vn -0.9240 -0.3761 -0.0695
vn -0.7809 -0.5522 -0.2922
vn -0.8128 -0.4519 0.3677
vn -0.6512 -0.6966 0.3013
vn -0.8470 -0.4976 0.1871
vn -0.7336 -0.6779 -0.0481
vn -0.6294 -0.5072 0.5887
vn -0.4521 -0.7343 0.5063
vn -0.5811 -0.0759 0.8103
vn 0.1715 0.1714 -0.9702
vn 0.1918 -0.0276 0.9811
vn -0.8892 -0.4507 -0.0782
vn 0.8802 0.4724 0.0459
vn 0.0908 -0.1995 0.9757
vn -0.7251 -0.6445 -0.2427
vn 0.1785 0.2014 -0.9631
vn 0.6627 0.4033 0.6310
vn -0.5356 -0.8383 -0.1015
vn 0.1742 -0.2270 -0.9582
vn 0.2789 0.3418 0.8974
vn -0.6084 -0.1707 -0.7751
vn 0.8289 -0.5073 -0.2359
vn -0.8063 0.5331 0.2563
vn -0.5164 -0.3476 -0.7826
vn 0.7540 -0.6566 0.0164
vn 0.2696 0.3708 0.8887
vn -0.8722 0.3508 -0.3410
vn 0.5206 -0.8537 0.0106
vn -0.3015 -0.1610 0.9398
vn 0.2217 0.3423 -0.9131
vn 0.6346 -0.0446 0.7716
vn -0.8749 -0.4573 0.1593
vn -0.0888 0.5425 -0.8353
vn 0.6060 0.0157 0.7953
vn -0.8013 -0.5245 -0.2879
vn -0.1279 0.2878 -0.9491
vn 0.8197 0.3707 0.4366
vn -0.5866 -0.7900 -0.1785
vn 0.8829 -0.0792 -0.4629
vn -0.1650 -0.2157 -0.9624
vn 0.5448 0.2643 0.7958
vn -0.8193 -0.1132 -0.5621
vn 0.7124 -0.4630 -0.5273
vn -0.6845 0.4874 0.5422
vn -0.7352 -0.2864 -0.6144
vn 0.7185 -0.6368 -0.2797
vn 0.0054 0.3221 0.9467
vn -0.9330 0.3594 -0.0202
vn 0.4937 -0.8382 -0.2318
vn -0.4329 -0.1644 0.8863
vn 0.0012 0.2643 -0.9644
vn 0.3574 -0.1132 0.9271
vn -0.8858 -0.4630 0.0316
vn 0.8711 0.4874 -0.0597
vn 0.2584 -0.2864 0.9226
vn -0.7507 -0.6368 -0.1760
vn 0.0091 0.2937 -0.9559
vn 0.7578 0.3594 0.5446
vn -0.5382 -0.8382 -0.0882
vn 0.9866 -0.1618 -0.0206
vn 0.4283 0.2607 0.8652
vn -0.7446 -0.0804 -0.6627
vn 0.7931 -0.4207 -0.4405
vn -0.7699 0.4291 0.4724
vn -0.6401 -0.2864 -0.7129
vn 0.7510 -0.6368 -0.1745
vn -0.9206 0.3594 -0.1529
vn 0.5217 -0.8382 -0.1592
vn 0.8856 -0.1435 -0.4418
vn 0.3430 0.1987 -0.9181
vn -0.0785 -0.1379 0.9873
vn -0.2357 0.3587 -0.9032
vn 0.7526 -0.6315 -0.1867
vn -0.7281 0.6476 0.2247
vn -0.1829 0.1771 -0.9671
vn 0.5423 -0.8368 -0.0758
vn 0.2433 -0.9280 -0.2823
vt 0.224052 0.987941
vt 0.225025 0.987941
vt 0.224052 0.829171
vt 0.225025 0.829171
vt 0.229808 0.062332
vt 0.229495 0.054775
vt 0.229819 0.054858
vt 0.230057 0.062020
vt 0.230142 0.054775
vt 0.229819 0.054691
vt 0.229829 0.062940
vt 0.230102 0.066938
vt 0.229580 0.063252
vt 0.230323 0.065599
vt 0.230396 0.067263
vt 0.229850 0.072859
vt 0.230372 0.073615
vt 0.230617 0.065923
vt 0.230148 0.073649
vt 0.229604 0.085327
vt 0.230074 0.072825
vt 0.229938 0.085452
vt 0.229396 0.084563
vt 0.229404 0.095214
vt 0.229688 0.094765
vt 0.229731 0.084688
vt 0.229517 0.094105
vt 0.229524 0.099214
vt 0.229233 0.094554
vt 0.229775 0.098199
vt 0.229394 0.099478
vt 0.230069 0.104274
vt 0.230106 0.102832
vt 0.230365 0.103831
vt 0.229646 0.098463
vt 0.230079 0.106367
vt 0.230402 0.102389
vt 0.230107 0.105456
vt 0.230339 0.107450
vt 0.229321 0.109550
vt 0.229520 0.110622
vt 0.230367 0.106539
vt 0.229618 0.110205
vt 0.229257 0.115866
vt 0.229420 0.109133
vt 0.229412 0.115680
vt 0.229488 0.115012
vt 0.230054 0.120154
vt 0.229333 0.115198
vt 0.230199 0.119551
vt 0.230153 0.119858
vt 0.216190 0.181336
vt 0.216212 0.178352
vt 0.216129 0.178816
vt 0.216127 0.181051
vt 0.216093 0.178121
vt 0.216213 0.169196
vt 0.216361 0.170368
vt 0.216119 0.168425
vt 0.216516 0.170372
vt 0.216336 0.168425
vt 0.216439 0.169776
vt 0.216242 0.167653
vt 0.216542 0.170034
vt 0.216438 0.170964
vt 0.216568 0.169212
vt 0.216456 0.169486
vt 0.216334 0.156662
vt 0.216421 0.159029
vt 0.216445 0.155986
vt 0.216339 0.158827
vt 0.216231 0.155986
vt 0.216395 0.158421
vt 0.216343 0.155310
vt 0.216469 0.158343
vt 0.216412 0.157964
vt 0.217058 0.186430
vt 0.217526 0.181321
vt 0.216972 0.185006
vt 0.217339 0.184070
vt 0.217101 0.185956
vt 0.216754 0.186850
vt 0.216534 0.187776
vt 0.216681 0.187453
vt 0.215715 0.185517
vt 0.215270 0.185202
vt 0.215312 0.182778
vt 0.215910 0.187334
vt 0.216102 0.187093
vt 0.215537 0.182808
vt 0.215965 0.183112
vt 0.216206 0.185026
vt 0.216212 0.181071
vt 0.216111 0.177176
vt 0.216598 0.178266
vt 0.215717 0.180745
vt 0.215765 0.182025
vt 0.216598 0.179671
vt 0.216342 0.180930
vt 0.215987 0.181952
vt 0.216567 0.179201
vt 0.216882 0.174897
vt 0.216693 0.177386
vt 0.216532 0.177453
vt 0.216367 0.179444
vt 0.216517 0.179360
vt 0.216212 0.180557
vt 0.216144 0.180880
vt 0.215598 0.179335
vt 0.215072 0.176588
vt 0.215527 0.175850
vt 0.215422 0.180828
vt 0.215669 0.181719
vt 0.215770 0.177002
vt 0.216054 0.178975
vt 0.216016 0.180168
vt 0.216010 0.181071
vt 0.217396 0.174067
vt 0.217569 0.170409
vt 0.217268 0.172192
vt 0.217509 0.174209
vt 0.217211 0.175797
vt 0.218028 0.169401
vt 0.216854 0.174123
vt 0.216864 0.175211
vt 0.216829 0.175724
vt 0.216980 0.170391
vt 0.216891 0.166557
vt 0.216645 0.168058
vt 0.217517 0.171221
vt 0.217237 0.172479
vt 0.217601 0.166523
vt 0.217293 0.168679
vt 0.216558 0.170164
vt 0.216679 0.171346
vt 0.216822 0.172129
vt 0.216326 0.169471
vt 0.216363 0.165035
vt 0.215963 0.166744
vt 0.216765 0.168859
vt 0.216748 0.170407
vt 0.215989 0.168407
vt 0.216295 0.169747
vt 0.216573 0.170669
vt 0.216769 0.168461
vt 0.217203 0.164232
vt 0.216654 0.165629
vt 0.217090 0.168351
vt 0.216878 0.169899
vt 0.216464 0.167317
vt 0.216324 0.169230
vt 0.216502 0.170344
vt 0.216377 0.158120
vt 0.216114 0.153684
vt 0.216789 0.154982
vt 0.215769 0.157826
vt 0.215891 0.159284
vt 0.216857 0.156584
vt 0.216642 0.157999
vt 0.216229 0.159172
vt 0.217330 0.158857
vt 0.217783 0.156559
vt 0.217302 0.158053
vt 0.217066 0.159125
vt 0.216911 0.159749
vt 0.216714 0.159651
vt 0.216937 0.158591
vt 0.216493 0.158399
vt 0.216397 0.158896
vt 0.215639 0.167533
vt 0.215402 0.163527
vt 0.215784 0.164171
vt 0.215258 0.169915
vt 0.215647 0.170256
vt 0.214858 0.165622
vt 0.215245 0.166869
vt 0.216137 0.165699
vt 0.216115 0.167244
vt 0.216077 0.168390
vt 0.215744 0.159233
vt 0.215529 0.155846
vt 0.215884 0.156133
vt 0.215331 0.161428
vt 0.215698 0.161455
vt 0.214943 0.157829
vt 0.215356 0.158854
vt 0.216180 0.157092
vt 0.216138 0.158421
vt 0.216078 0.159381
vt 0.217056 0.186366
vt 0.215717 0.185478
vt 0.216209 0.180975
vt 0.216561 0.179169
vt 0.215600 0.179301
vt 0.216018 0.180138
vt 0.217394 0.174012
vt 0.216862 0.175165
vt 0.216981 0.170358
vt 0.217292 0.168659
vt 0.216682 0.171309
vt 0.216330 0.169419
vt 0.216767 0.168415
vt 0.216374 0.158059
vt 0.217327 0.158808
vt 0.216910 0.159694
vt 0.215638 0.167502
vt 0.215248 0.166844
vt 0.216113 0.167214
vt 0.215742 0.159197
vt 0.215357 0.158821
vt 0.216134 0.158389
vt 0.201650 0.175353
vt 0.201754 0.171760
vt 0.201706 0.173696
vt 0.201644 0.176432
vt 0.201562 0.181678
vt 0.201588 0.182098
vt 0.201547 0.185590
vt 0.201514 0.182009
vt 0.201555 0.185603
vt 0.201557 0.176277
vt 0.201627 0.173424
vt 0.201727 0.171562
vt 0.201596 0.175199
vt 0.201079 0.176531
vt 0.200793 0.173529
vt 0.200979 0.175069
vt 0.201179 0.177396
vt 0.201431 0.182160
vt 0.201385 0.182694
vt 0.201505 0.185976
vt 0.201449 0.182462
vt 0.201506 0.185783
vt 0.201253 0.177074
vt 0.201053 0.174630
vt 0.200821 0.173264
vt 0.201125 0.176273
vt 0.202130 0.143467
vt 0.202288 0.141448
vt 0.202146 0.143247
vt 0.201993 0.145835
vt 0.201804 0.150990
vt 0.201846 0.151469
vt 0.201759 0.154950
vt 0.201777 0.151296
vt 0.201755 0.154961
vt 0.201961 0.146196
vt 0.201912 0.145585
vt 0.202078 0.142804
vt 0.202081 0.143256
vt 0.202259 0.141216
vt 0.201280 0.145148
vt 0.200961 0.141778
vt 0.201190 0.143576
vt 0.201416 0.146164
vt 0.201669 0.151231
vt 0.201606 0.151698
vt 0.201699 0.155107
vt 0.201658 0.151527
vt 0.201705 0.155114
vt 0.201744 0.155127
vt 0.201478 0.145914
vt 0.201257 0.143214
vt 0.200990 0.141546
vt 0.201319 0.144935
vt 0.202031 0.160136
vt 0.202217 0.156765
vt 0.202109 0.158564
vt 0.201987 0.161152
vt 0.201826 0.166218
vt 0.201860 0.166685
vt 0.201781 0.170097
vt 0.201788 0.166515
vt 0.201782 0.170107
vt 0.201903 0.160902
vt 0.202031 0.158201
vt 0.202189 0.156533
vt 0.201980 0.159923
vt 0.201334 0.160465
vt 0.201038 0.157094
vt 0.201244 0.158893
vt 0.201716 0.166547
vt 0.201728 0.170506
vt 0.201640 0.166846
vt 0.201743 0.170448
vt 0.201764 0.170444
vt 0.201377 0.160252
vt 0.201452 0.161481
vt 0.201316 0.158530
vt 0.201521 0.161231
vt 0.201067 0.156862
vt 0.201465 0.183575
vt 0.201443 0.181250
vt 0.201453 0.182299
vt 0.201458 0.187660
vt 0.201346 0.190310
vt 0.201397 0.187735
vt 0.201369 0.190525
vt 0.201457 0.188163
vt 0.201465 0.183992
vt 0.201534 0.184165
vt 0.201521 0.182319
vt 0.201509 0.183633
s 0
usemtl Texture_Map
f 4/1/1 6/2/1 5/2/1
f 1/3/2 5/2/2 2/4/2
f 2/4/3 6/2/3 3/4/3
f 3/4/4 4/1/4 1/3/4
f 11/5/5 10/6/5 7/7/5
f 12/8/6 7/7/6 8/9/6
f 9/10/7 12/8/7 8/9/7
f 10/6/8 13/11/8 9/10/8
f 11/5/9 18/12/9 14/13/9
f 12/8/10 15/14/10 11/5/10
f 17/15/11 12/8/11 13/11/11
f 18/12/12 13/11/12 14/13/12
f 15/14/13 22/16/13 18/12/13
f 20/17/14 15/14/14 16/18/14
f 21/19/15 16/18/15 17/15/15
f 18/12/16 21/19/16 17/15/16
f 23/20/17 22/16/17 19/21/17
f 20/17/18 23/20/18 19/21/18
f 21/19/19 24/22/19 20/17/19
f 26/23/20 21/19/20 22/16/20
f 27/24/21 26/23/21 23/20/21
f 28/25/22 23/20/22 24/22/22
f 25/26/23 28/25/23 24/22/23
f 26/23/24 29/27/24 25/26/24
f 31/28/25 30/29/25 27/24/25
f 28/25/26 31/28/26 27/24/26
f 29/27/27 32/30/27 28/25/27
f 34/31/28 29/27/28 30/29/28
f 31/28/29 38/32/29 34/31/29
f 32/30/30 35/33/30 31/28/30
f 37/34/31 32/30/31 33/35/31
f 38/32/32 33/35/32 34/31/32
f 35/33/33 42/36/33 38/32/33
f 36/37/34 39/38/34 35/33/34
f 41/39/35 36/37/35 37/34/35
f 42/36/36 37/34/36 38/32/36
f 43/40/37 42/36/37 39/38/37
f 44/41/38 39/38/38 40/42/38
f 41/39/39 44/41/39 40/42/39
f 42/36/40 45/43/40 41/39/40
f 47/44/41 46/45/41 43/40/41
f 48/46/42 43/40/42 44/41/42
f 45/43/43 48/46/43 44/41/43
f 46/45/44 49/47/44 45/43/44
f 51/48/45 50/49/45 47/44/45
f 48/46/46 51/48/46 47/44/46
f 49/47/47 52/50/47 48/46/47
f 53/51/48 49/47/48 50/49/48
f 57/52/49 56/53/49 54/54/49
f 58/55/50 54/54/50 55/56/50
f 56/53/51 58/55/51 55/56/51
f 59/57/52 66/58/52 62/59/52
f 64/60/53 59/57/53 60/61/53
f 65/62/54 60/61/54 61/63/54
f 62/59/55 65/62/55 61/63/55
f 67/64/56 66/58/56 63/65/56
f 64/60/57 67/64/57 63/65/57
f 65/62/58 68/66/58 64/60/58
f 69/67/59 65/62/59 66/58/59
f 70/68/60 74/69/60 73/70/60
f 75/71/61 70/68/61 71/72/61
f 76/73/62 71/72/62 72/74/62
f 73/70/63 76/73/63 72/74/63
f 75/71/64 77/75/64 74/69/64
f 76/73/65 78/76/65 75/71/65
f 77/75/66 76/73/66 74/69/66
f 86/77/67 81/78/67 83/79/67
f 82/80/68 81/78/68 86/77/68
f 82/80/69 86/77/69 84/81/69
f 86/77/70 83/79/70 85/82/70
f 86/77/71 80/83/71 79/84/71
f 93/85/72 88/86/72 90/87/72
f 89/88/73 88/86/73 93/85/73
f 89/88/74 93/85/74 91/89/74
f 93/85/75 90/87/75 92/90/75
f 93/85/76 192/91/76 87/92/76
f 101/93/77 96/94/77 98/95/77
f 97/96/78 96/94/78 101/93/78
f 97/96/79 101/93/79 99/97/79
f 101/93/80 98/95/80 100/98/80
f 101/93/81 95/99/81 94/100/81
f 109/101/82 104/102/82 106/103/82
f 105/104/83 104/102/83 109/101/83
f 105/104/84 109/101/84 107/105/84
f 109/101/85 106/103/85 108/106/85
f 109/101/86 103/107/86 102/108/86
f 118/109/87 113/110/87 115/111/87
f 114/112/88 113/110/88 118/109/88
f 114/112/89 118/109/89 116/113/89
f 118/109/90 115/111/90 117/114/90
f 118/109/91 111/115/91 112/116/91
f 110/117/92 118/109/92 112/116/92
f 119/118/93 122/119/93 120/120/93
f 123/121/94 119/118/94 121/122/94
f 123/121/95 124/123/95 119/118/95
f 119/118/96 124/123/96 122/119/96
f 119/118/97 126/124/97 125/125/97
f 127/126/98 119/118/98 125/125/98
f 128/127/99 132/128/99 129/129/99
f 133/130/100 128/127/100 130/131/100
f 133/130/101 134/132/101 131/133/101
f 131/133/102 134/132/102 132/128/102
f 128/127/103 136/134/103 135/135/103
f 137/136/104 128/127/104 135/135/104
f 145/137/105 140/138/105 142/139/105
f 141/140/106 140/138/106 145/137/106
f 141/140/107 145/137/107 143/141/107
f 145/137/108 142/139/108 144/142/108
f 145/137/109 139/143/109 138/144/109
f 153/145/110 148/146/110 150/147/110
f 149/148/111 148/146/111 153/145/111
f 149/148/112 153/145/112 151/149/112
f 153/145/113 150/147/113 152/150/113
f 153/145/114 147/151/114 146/152/114
f 161/153/115 156/154/115 158/155/115
f 157/156/116 156/154/116 161/153/116
f 157/156/117 161/153/117 159/157/117
f 161/153/118 158/155/118 160/158/118
f 161/153/119 155/159/119 154/160/119
f 167/161/120 164/162/120 166/163/120
f 165/164/121 164/162/121 167/161/121
f 165/164/122 170/165/122 168/166/122
f 170/165/123 166/163/123 169/167/123
f 170/165/124 163/168/124 162/169/124
f 171/170/125 175/171/125 172/172/125
f 176/173/126 171/170/126 173/174/126
f 176/173/127 177/175/127 174/176/127
f 174/176/128 177/175/128 175/171/128
f 171/170/129 179/177/129 178/178/129
f 180/179/130 171/170/130 178/178/130
f 181/180/131 185/181/131 182/182/131
f 186/183/132 181/180/132 183/184/132
f 186/183/133 187/185/133 184/186/133
f 184/186/134 187/185/134 185/181/134
f 181/180/135 189/187/135 188/188/135
f 190/189/136 181/180/136 188/188/136
f 191/190/137 83/79/137 81/78/137
f 82/80/138 191/190/138 81/78/138
f 191/190/139 82/80/139 84/81/139
f 80/83/140 191/190/140 79/84/140
f 79/84/141 191/190/141 84/81/141
f 193/191/142 90/87/142 88/86/142
f 89/88/143 193/191/143 88/86/143
f 193/191/144 89/88/144 91/89/144
f 192/91/145 193/191/145 87/92/145
f 87/92/146 193/191/146 91/89/146
f 194/192/147 98/95/147 96/94/147
f 97/96/148 194/192/148 96/94/148
f 194/192/149 97/96/149 99/97/149
f 95/99/150 194/192/150 94/100/150
f 94/100/151 194/192/151 99/97/151
f 195/193/152 106/103/152 104/102/152
f 105/104/153 195/193/153 104/102/153
f 195/193/154 105/104/154 107/105/154
f 103/107/155 195/193/155 102/108/155
f 102/108/156 195/193/156 107/105/156
f 197/194/157 115/111/157 113/110/157
f 114/112/158 197/194/158 113/110/158
f 197/194/159 114/112/159 116/113/159
f 111/115/160 197/194/160 196/195/160
f 110/117/161 197/194/161 116/113/161
f 198/196/162 123/121/162 121/122/162
f 123/121/163 198/196/163 124/123/163
f 198/196/164 122/119/164 124/123/164
f 126/124/165 198/196/165 199/197/165
f 127/126/166 198/196/166 121/122/166
f 200/198/167 132/128/167 201/199/167
f 200/198/168 133/130/168 130/131/168
f 133/130/169 201/199/169 134/132/169
f 201/199/170 132/128/170 134/132/170
f 136/134/171 200/198/171 202/200/171
f 137/136/172 200/198/172 130/131/172
f 203/201/173 142/139/173 140/138/173
f 141/140/174 203/201/174 140/138/174
f 203/201/175 141/140/175 143/141/175
f 139/143/176 203/201/176 138/144/176
f 138/144/177 203/201/177 143/141/177
f 204/202/178 150/147/178 148/146/178
f 149/148/179 204/202/179 148/146/179
f 204/202/180 149/148/180 151/149/180
f 147/151/181 204/202/181 146/152/181
f 146/152/182 204/202/182 151/149/182
f 205/203/183 158/155/183 156/154/183
f 157/156/184 205/203/184 156/154/184
f 205/203/185 157/156/185 159/157/185
f 155/159/186 205/203/186 154/160/186
f 154/160/187 205/203/187 159/157/187
f 206/204/188 166/163/188 164/162/188
f 165/164/189 206/204/189 164/162/189
f 207/205/190 165/164/190 168/166/190
f 207/205/191 166/163/191 206/204/191
f 163/168/192 207/205/192 162/169/192
f 162/169/193 207/205/193 168/166/193
f 208/206/194 175/171/194 209/207/194
f 208/206/195 176/173/195 173/174/195
f 176/173/196 209/207/196 177/175/196
f 209/207/197 175/171/197 177/175/197
f 179/177/198 208/206/198 210/208/198
f 180/179/199 208/206/199 173/174/199
f 211/209/200 185/181/200 212/210/200
f 211/209/201 186/183/201 183/184/201
f 186/183/202 212/210/202 187/185/202
f 212/210/203 185/181/203 187/185/203
f 189/187/204 211/209/204 213/211/204
f 190/189/205 211/209/205 183/184/205
f 221/212/206 225/213/206 222/214/206
f 219/215/207 215/216/207 214/217/207
f 217/218/208 216/219/208 214/217/208
f 215/216/209 218/220/209 214/217/209
f 216/219/210 217/218/210 218/220/210
f 216/219/211 221/212/211 214/217/211
f 215/216/212 220/221/212 216/219/212
f 221/212/213 222/214/213 219/215/213
f 219/215/214 223/222/214 220/221/214
f 226/223/215 224/224/215 223/222/215
f 226/223/216 222/214/216 225/213/216
f 225/213/217 221/212/217 224/224/217
f 234/225/218 238/226/218 235/227/218
f 232/228/219 228/229/219 227/230/219
f 230/231/220 229/232/220 227/230/220
f 228/229/221 231/233/221 227/230/221
f 229/232/222 230/231/222 231/233/222
f 229/232/223 234/225/223 227/230/223
f 228/229/224 233/234/224 229/232/224
f 234/225/225 235/227/225 232/228/225
f 232/228/226 236/235/226 233/234/226
f 239/236/227 237/237/227 236/235/227
f 239/236/228 235/227/228 238/226/228
f 238/226/229 234/225/229 237/237/229
f 251/238/230 252/239/230 248/240/230
f 245/241/231 241/242/231 240/243/231
f 243/244/232 242/245/232 240/243/232
f 241/242/233 244/246/233 240/243/233
f 242/245/234 243/244/234 244/246/234
f 242/245/235 247/247/235 240/243/235
f 241/242/236 246/248/236 242/245/236
f 246/248/237 249/249/237 250/250/237
f 247/247/238 248/240/238 245/241/238
f 245/241/239 249/249/239 246/248/239
f 247/247/240 250/250/240 251/238/240
f 253/251/241 248/240/241 252/239/241
f 252/239/242 251/238/242 250/250/242
f 253/251/243 250/250/243 249/249/243
f 262/252/244 266/253/244 263/254/244
f 260/255/245 255/256/245 254/257/245
f 257/258/246 256/259/246 254/257/246
f 255/256/247 258/260/247 254/257/247
f 256/259/248 257/258/248 259/261/248
f 256/259/249 262/252/249 254/257/249
f 255/256/250 261/262/250 256/259/250
f 262/252/251 263/254/251 260/255/251
f 260/255/252 264/263/252 261/262/252
f 267/264/253 265/265/253 264/263/253
f 267/264/254 263/254/254 266/253/254
f 266/253/255 262/252/255 265/265/255
f 275/266/256 279/267/256 276/268/256
f 273/269/257 269/270/257 268/271/257
f 271/272/258 270/273/258 268/271/258
f 269/270/259 272/274/259 268/271/259
f 270/273/260 271/272/260 272/274/260
f 270/273/261 275/266/261 268/271/261
f 269/270/262 274/275/262 270/273/262
f 275/266/263 276/268/263 273/269/263
f 273/269/264 277/276/264 274/275/264
f 280/277/265 278/278/265 277/276/265
f 280/277/266 276/268/266 279/267/266
f 279/267/267 275/266/267 278/278/267
f 288/279/268 292/280/268 289/281/268
f 282/282/269 284/283/269 281/284/269
f 282/282/270 283/285/270 285/286/270
f 288/279/271 281/284/271 283/285/271
f 282/282/272 291/287/272 283/285/272
f 286/288/273 282/282/273 281/284/273
f 288/279/274 289/281/274 286/288/274
f 286/288/275 290/289/275 287/290/275
f 281/284/276 284/283/276 283/285/276
f 293/291/277 291/287/277 290/289/277
f 293/291/278 289/281/278 292/280/278
f 292/280/279 288/279/279 291/287/279
f 301/292/280 305/293/280 302/294/280
f 295/295/281 297/296/281 294/297/281
f 298/298/282 296/299/282 297/296/282
f 301/292/283 294/297/283 297/296/283
f 299/300/284 295/295/284 294/297/284
f 296/299/285 301/292/285 297/296/285
f 295/295/286 300/301/286 296/299/286
f 301/292/287 302/294/287 299/300/287
f 299/300/288 303/302/288 300/301/288
f 305/293/289 304/303/289 303/302/289
f 305/293/290 301/292/290 304/303/290
f 51/48/291 52/50/291 53/51/291
f 1/3/2 4/1/2 5/2/2
f 2/4/3 5/2/3 6/2/3
f 3/4/4 6/2/4 4/1/4
f 11/5/292 14/13/292 10/6/292
f 12/8/293 11/5/293 7/7/293
f 9/10/294 13/11/294 12/8/294
f 10/6/295 14/13/295 13/11/295
f 11/5/296 15/14/296 18/12/296
f 12/8/297 16/18/297 15/14/297
f 17/15/298 16/18/298 12/8/298
f 18/12/299 17/15/299 13/11/299
f 15/14/300 19/21/300 22/16/300
f 20/17/301 19/21/301 15/14/301
f 21/19/302 20/17/302 16/18/302
f 18/12/303 22/16/303 21/19/303
f 23/20/304 26/23/304 22/16/304
f 20/17/305 24/22/305 23/20/305
f 21/19/306 25/26/306 24/22/306
f 26/23/307 25/26/307 21/19/307
f 27/24/308 30/29/308 26/23/308
f 28/25/309 27/24/309 23/20/309
f 25/26/310 29/27/310 28/25/310
f 26/23/311 30/29/311 29/27/311
f 31/28/312 34/31/312 30/29/312
f 28/25/313 32/30/313 31/28/313
f 29/27/314 33/35/314 32/30/314
f 34/31/315 33/35/315 29/27/315
f 31/28/316 35/33/316 38/32/316
f 32/30/317 36/37/317 35/33/317
f 37/34/318 36/37/318 32/30/318
f 38/32/319 37/34/319 33/35/319
f 35/33/320 39/38/320 42/36/320
f 36/37/321 40/42/321 39/38/321
f 41/39/322 40/42/322 36/37/322
f 42/36/323 41/39/323 37/34/323
f 43/40/324 46/45/324 42/36/324
f 44/41/325 43/40/325 39/38/325
f 41/39/326 45/43/326 44/41/326
f 42/36/327 46/45/327 45/43/327
f 47/44/328 50/49/328 46/45/328
f 48/46/329 47/44/329 43/40/329
f 45/43/330 49/47/330 48/46/330
f 46/45/331 50/49/331 49/47/331
f 51/48/332 53/51/332 50/49/332
f 48/46/333 52/50/333 51/48/333
f 53/51/334 52/50/334 49/47/334
f 58/55/335 57/52/335 54/54/335
f 56/53/336 57/52/336 58/55/336
f 59/57/337 63/65/337 66/58/337
f 64/60/338 63/65/338 59/57/338
f 65/62/339 64/60/339 60/61/339
f 62/59/340 66/58/340 65/62/340
f 67/64/341 69/67/341 66/58/341
f 64/60/342 68/66/342 67/64/342
f 69/67/343 68/66/343 65/62/343
f 75/71/344 74/69/344 70/68/344
f 76/73/345 75/71/345 71/72/345
f 73/70/346 74/69/346 76/73/346
f 75/71/347 78/76/347 77/75/347
f 77/75/348 78/76/348 76/73/348
f 69/67/349 67/64/349 68/66/349
f 86/77/350 85/82/350 80/83/350
f 79/84/351 84/81/351 86/77/351
f 93/85/352 92/90/352 192/91/352
f 87/92/353 91/89/353 93/85/353
f 101/93/354 100/98/354 95/99/354
f 94/100/355 99/97/355 101/93/355
f 109/101/356 108/106/356 103/107/356
f 102/108/357 107/105/357 109/101/357
f 118/109/358 117/114/358 111/115/358
f 110/117/359 116/113/359 118/109/359
f 119/118/360 120/120/360 126/124/360
f 127/126/361 121/122/361 119/118/361
f 128/127/362 131/133/362 132/128/362
f 133/130/363 131/133/363 128/127/363
f 128/127/364 129/129/364 136/134/364
f 137/136/365 130/131/365 128/127/365
f 145/137/366 144/142/366 139/143/366
f 138/144/367 143/141/367 145/137/367
f 153/145/368 152/150/368 147/151/368
f 146/152/369 151/149/369 153/145/369
f 161/153/370 160/158/370 155/159/370
f 154/160/371 159/157/371 161/153/371
f 165/164/372 167/161/372 170/165/372
f 170/165/373 167/161/373 166/163/373
f 170/165/374 169/167/374 163/168/374
f 162/169/375 168/166/375 170/165/375
f 171/170/376 174/176/376 175/171/376
f 176/173/377 174/176/377 171/170/377
f 171/170/378 172/172/378 179/177/378
f 180/179/379 173/174/379 171/170/379
f 181/180/380 184/186/380 185/181/380
f 186/183/381 184/186/381 181/180/381
f 181/180/382 182/182/382 189/187/382
f 190/189/383 183/184/383 181/180/383
f 191/190/384 85/82/384 83/79/384
f 80/83/385 85/82/385 191/190/385
f 193/191/386 92/90/386 90/87/386
f 192/91/387 92/90/387 193/191/387
f 194/192/388 100/98/388 98/95/388
f 95/99/389 100/98/389 194/192/389
f 195/193/390 108/106/390 106/103/390
f 103/107/391 108/106/391 195/193/391
f 197/194/392 117/114/392 115/111/392
f 111/115/393 117/114/393 197/194/393
f 110/117/394 196/195/394 197/194/394
f 198/196/395 120/120/395 122/119/395
f 126/124/396 120/120/396 198/196/396
f 127/126/397 199/197/397 198/196/397
f 200/198/398 129/129/398 132/128/398
f 200/198/399 201/199/399 133/130/399
f 136/134/400 129/129/400 200/198/400
f 137/136/401 202/200/401 200/198/401
f 203/201/402 144/142/402 142/139/402
f 139/143/403 144/142/403 203/201/403
f 204/202/404 152/150/404 150/147/404
f 147/151/405 152/150/405 204/202/405
f 205/203/406 160/158/406 158/155/406
f 155/159/407 160/158/407 205/203/407
f 207/205/408 206/204/408 165/164/408
f 207/205/409 169/167/409 166/163/409
f 163/168/410 169/167/410 207/205/410
f 208/206/411 172/172/411 175/171/411
f 208/206/412 209/207/412 176/173/412
f 179/177/413 172/172/413 208/206/413
f 180/179/414 210/208/414 208/206/414
f 211/209/415 182/182/415 185/181/415
f 211/209/416 212/210/416 186/183/416
f 189/187/417 182/182/417 211/209/417
f 190/189/418 213/211/418 211/209/418
f 215/216/419 216/219/419 218/220/419
f 221/212/420 219/215/420 214/217/420
f 216/219/421 220/221/421 224/224/421
f 219/215/422 220/221/422 215/216/422
f 216/219/423 224/224/423 221/212/423
f 224/224/424 220/221/424 223/222/424
f 219/215/425 222/214/425 223/222/425
f 214/217/426 218/220/426 217/218/426
f 226/223/427 225/213/427 224/224/427
f 226/223/428 223/222/428 222/214/428
f 228/229/429 229/232/429 231/233/429
f 234/225/430 232/228/430 227/230/430
f 229/232/431 233/234/431 237/237/431
f 232/228/432 233/234/432 228/229/432
f 229/232/433 237/237/433 234/225/433
f 237/237/434 233/234/434 236/235/434
f 232/228/435 235/227/435 236/235/435
f 227/230/436 231/233/436 230/231/436
f 239/236/437 238/226/437 237/237/437
f 239/236/438 236/235/438 235/227/438
f 241/242/439 242/245/439 244/246/439
f 247/247/440 245/241/440 240/243/440
f 242/245/441 246/248/441 247/247/441
f 245/241/442 246/248/442 241/242/442
f 247/247/443 251/238/443 248/240/443
f 247/247/444 246/248/444 250/250/444
f 245/241/445 248/240/445 249/249/445
f 240/243/446 244/246/446 243/244/446
f 253/251/447 252/239/447 250/250/447
f 253/251/448 249/249/448 248/240/448
f 255/256/449 259/261/449 258/260/449
f 255/256/450 256/259/450 259/261/450
f 262/252/451 260/255/451 254/257/451
f 256/259/452 261/262/452 265/265/452
f 260/255/453 261/262/453 255/256/453
f 256/259/454 265/265/454 262/252/454
f 265/265/455 261/262/455 264/263/455
f 260/255/456 263/254/456 264/263/456
f 254/257/457 258/260/457 257/258/457
f 267/264/458 266/253/458 265/265/458
f 267/264/459 264/263/459 263/254/459
f 269/270/460 270/273/460 272/274/460
f 275/266/461 273/269/461 268/271/461
f 270/273/462 274/275/462 278/278/462
f 273/269/463 274/275/463 269/270/463
f 270/273/464 278/278/464 275/266/464
f 278/278/465 274/275/465 277/276/465
f 273/269/466 276/268/466 277/276/466
f 268/271/467 272/274/467 271/272/467
f 280/277/468 279/267/468 278/278/468
f 280/277/469 277/276/469 276/268/469
f 282/282/470 285/286/470 284/283/470
f 288/279/471 286/288/471 281/284/471
f 282/282/472 287/290/472 291/287/472
f 286/288/473 287/290/473 282/282/473
f 283/285/474 291/287/474 288/279/474
f 291/287/475 287/290/475 290/289/475
f 286/288/476 289/281/476 290/289/476
f 293/291/477 292/280/477 291/287/477
f 293/291/478 290/289/478 289/281/478
f 295/295/479 298/298/479 297/296/479
f 295/295/480 296/299/480 298/298/480
f 301/292/481 299/300/481 294/297/481
f 296/299/482 300/301/482 304/303/482
f 299/300/483 300/301/483 295/295/483
f 296/299/484 304/303/484 301/292/484
f 304/303/485 300/301/485 303/302/485
f 299/300/486 302/294/486 303/302/486
f 305/293/487 303/302/487 302/294/487
