# Blender 4.4.0
# www.blender.org
mtllib Crop_Beetroot_STAGE_3_01.mtl
o Crop_Beetroot_STAGE_3_01
v -0.000105 0.098525 0.000000
v -0.005457 0.158792 0.001524
v -0.150275 0.273663 0.008639
v -0.260981 0.301210 0.000961
v -0.255620 0.306549 0.000957
v 0.008322 0.148779 0.001679
v 0.146653 0.277569 -0.004729
v 0.141286 0.283271 0.001961
v 0.146608 0.277538 0.008639
v 0.254042 0.312661 0.002948
v 0.251394 0.315406 0.000102
v 0.251320 0.315509 0.005799
v 0.025483 0.223414 0.022850
v 0.025417 0.223524 -0.021371
v 0.240815 0.347146 0.046866
v 0.240815 0.347146 -0.042956
v 0.026923 0.174811 0.001218
v 0.060804 0.250122 0.047094
v 0.096287 0.241107 0.001718
v 0.191498 0.297087 0.001955
v 0.121363 0.306617 0.060253
v 0.289682 0.324273 0.001955
v 0.028184 0.173206 0.001225
v 0.062095 0.248436 0.047086
v 0.060732 0.248808 -0.043509
v 0.174830 0.334824 -0.069014
v 0.123267 0.304343 -0.056344
v 0.123227 0.304404 0.060253
v -0.019624 0.218796 0.022850
v -0.018513 0.168880 0.001218
v -0.092101 0.230928 0.001719
v -0.169018 0.318498 -0.069014
v -0.114828 0.291544 0.060253
v -0.276408 0.308239 0.001955
v -0.020545 0.217634 0.022871
v -0.020545 0.217629 -0.021389
v -0.045193 0.244251 -0.038586
v -0.048474 0.244230 0.043597
v -0.093700 0.229125 0.001722
v -0.171109 0.316163 -0.069014
v -0.116653 0.289445 0.060253
v -0.011406 0.154583 0.001522
v -0.006519 0.159037 0.008284
v -0.006584 0.158124 -0.004085
v -0.156118 0.267711 0.001961
v -0.144387 0.279656 0.001949
v -0.150232 0.273636 -0.004729
v -0.258324 0.303843 0.003808
v -0.258239 0.303959 -0.001889
v 0.003189 0.154881 -0.004193
v 0.001986 0.156471 0.001589
v 0.003173 0.155692 0.008668
v 0.151941 0.271973 0.001949
v 0.248678 0.318249 0.002952
v 0.287688 0.326350 0.001955
v 0.059347 0.250443 -0.043423
v 0.172730 0.337216 -0.069014
v 0.172730 0.337216 0.072923
v 0.140976 0.278402 0.001955
v 0.121403 0.306558 -0.056344
v 0.243280 0.344047 -0.042956
v 0.243280 0.344047 0.046866
v 0.026367 0.222336 -0.021389
v 0.026436 0.222223 0.022871
v 0.097876 0.239300 0.001721
v 0.193381 0.295080 0.001955
v 0.174830 0.334824 0.072923
v 0.142714 0.276508 0.001955
v -0.237909 0.328050 -0.042956
v -0.237909 0.328050 0.046866
v -0.274421 0.310325 0.001955
v -0.044045 0.245593 -0.038510
v -0.047424 0.245689 0.043677
v -0.169018 0.318498 0.072923
v -0.184727 0.282968 0.001955
v -0.132828 0.260334 0.001955
v -0.114407 0.291352 -0.056164
v -0.019767 0.167199 0.001225
v -0.240269 0.325215 0.046866
v -0.240269 0.325215 -0.042956
v -0.171109 0.316163 0.072923
v -0.186671 0.280866 0.001955
v -0.134603 0.258373 0.001955
v -0.116212 0.289255 -0.056159
v -0.001754 0.160569 0.008370
v -0.002272 0.300522 0.218567
v 0.002852 0.308381 0.212703
v -0.002281 0.312223 0.210700
v -0.007405 0.308363 0.212668
v -0.003270 0.303145 0.326728
v -0.003274 0.309579 0.320058
v -0.006120 0.306331 0.323371
v -0.001802 0.158899 -0.002783
v -0.002282 0.325135 -0.207644
v -0.008960 0.334050 -0.200001
v -0.002271 0.340820 -0.193587
v 0.004407 0.334008 -0.199956
v -0.001283 0.317668 -0.324524
v -0.023073 0.229524 -0.036602
v 0.042635 0.355067 -0.315571
v -0.047188 0.355068 -0.315571
v -0.002277 0.321826 -0.358999
v -0.002275 0.293071 -0.146554
v -0.073245 0.376515 -0.246049
v -0.002277 0.326656 -0.256265
v 0.068692 0.376503 -0.246049
v -0.002277 0.336690 -0.196933
v 0.056022 0.356215 -0.179408
v -0.002277 0.319652 -0.361477
v -0.001315 0.184088 -0.037892
v -0.047188 0.350645 -0.318050
v -0.023108 0.228496 -0.038070
v 0.022280 0.226648 -0.038091
v -0.073245 0.372829 -0.248528
v -0.002277 0.322835 -0.258743
v -0.002277 0.333745 -0.199411
v -0.060575 0.353610 -0.181887
v 0.056022 0.353612 -0.181887
v -0.023073 0.216446 0.029608
v 0.022319 0.214482 0.029620
v 0.042635 0.332029 0.307656
v -0.001364 0.174049 0.030510
v -0.002276 0.308389 0.339542
v 0.049905 0.258859 0.088640
v 0.068692 0.353063 0.237800
v -0.002276 0.303580 0.246345
v -0.002276 0.301792 0.190338
v 0.056022 0.335645 0.170859
v -0.002276 0.306407 0.342012
v 0.022252 0.213556 0.031075
v -0.023109 0.215361 0.031062
v 0.050100 0.257639 0.091349
v -0.002276 0.298836 0.192807
v 0.056022 0.332947 0.173329
v -0.060575 0.332953 0.173329
v -0.001727 0.157193 0.017131
v -0.000423 0.306217 0.323415
v -0.001761 0.155989 -0.011649
v -0.004130 0.320872 -0.321388
v -0.001279 0.325801 -0.318031
v 0.001568 0.320980 -0.321344
v -0.001295 0.185694 -0.035893
v 0.049746 0.273612 -0.097017
v -0.053460 0.269992 -0.097016
v -0.060575 0.356213 -0.179408
v 0.042635 0.350644 -0.318050
v 0.050051 0.272366 -0.099754
v -0.053796 0.268967 -0.099753
v -0.002276 0.290929 -0.149080
v 0.068692 0.372817 -0.248528
v -0.047187 0.332013 0.307657
v -0.053302 0.256127 0.088641
v -0.002275 0.263373 0.147864
v -0.073245 0.353054 0.237801
v -0.060575 0.335650 0.170859
v -0.001379 0.172337 0.032444
v 0.042635 0.328372 0.310126
v -0.047187 0.328356 0.310126
v -0.053647 0.254940 0.091349
v -0.002276 0.261248 0.150392
v 0.068692 0.349202 0.240270
v -0.002276 0.299902 0.248815
v -0.073245 0.349193 0.240270
v -0.001721 0.118913 0.002172
v -0.001056 0.140407 0.013591
v 0.002781 0.138803 -0.003062
v 0.006815 0.134618 0.001537
v -0.001089 0.139618 -0.008890
v 0.002769 0.139365 0.006992
v -0.004868 0.141406 -0.002980
v -0.008683 0.139011 0.001412
v -0.004804 0.141940 0.006690
v 0.043815 0.087055 -0.075890
v -0.043815 0.087055 -0.075890
v -0.087631 0.087055 -0.000000
v -0.043815 0.087055 0.075890
v 0.043815 0.087055 0.075890
v 0.087631 0.087055 0.000000
v 0.008973 0.146704 -0.015542
v 0.037901 0.119605 -0.065646
v -0.037901 0.119605 -0.065646
v -0.008973 0.146704 -0.015542
v -0.075801 0.119605 -0.000000
v -0.017947 0.146704 -0.000000
v -0.037901 0.119605 0.065646
v -0.008973 0.146704 0.015542
v 0.037901 0.119605 0.065646
v 0.008973 0.146704 0.015542
v 0.075801 0.119605 0.000000
v 0.017947 0.146704 0.000000
v 0.040385 0.009185 -0.069948
v -0.040385 0.009185 -0.069948
v 0.080769 0.009185 0.000000
v -0.040385 0.009185 0.069948
v 0.040385 0.009185 0.069948
v -0.080769 0.009185 -0.000000
vn -0.8527 -0.1299 -0.5060
vn -0.4475 -0.5634 0.6945
vn 0.6546 0.7522 0.0756
vn 0.6404 0.7369 -0.2164
vn -0.1992 -0.6400 -0.7421
vn -0.2098 -0.6315 0.7464
vn 0.1542 0.6646 0.7311
vn 0.1652 0.6563 -0.7362
vn -0.8817 -0.1636 0.4425
vn -0.7424 -0.1798 0.6454
vn 0.4098 -0.4794 0.7760
vn 0.3836 -0.4521 -0.8053
vn -0.6361 0.6998 -0.3250
vn -0.6611 0.7257 0.1908
vn 0.2506 -0.6366 0.7293
vn 0.2608 -0.6283 -0.7330
vn -0.2071 0.6563 -0.7255
vn -0.2178 0.6480 0.7299
vn 0.7216 0.6924 -0.0032
vn -0.7054 0.7088 0.0038
vn -0.3705 0.3813 0.8469
vn -0.3172 0.7871 0.5290
vn -0.4966 0.6748 0.5459
vn 0.3647 -0.3782 -0.8509
vn -0.3013 0.8146 -0.4956
vn -0.3014 0.8150 0.4948
vn -0.5118 0.6730 -0.5339
vn -0.3496 0.3723 -0.8597
vn 0.2999 -0.8181 -0.4907
vn 0.3326 -0.7831 0.5255
vn 0.5539 -0.6643 -0.5019
vn 0.2353 -0.7762 -0.5849
vn -0.3172 0.7871 -0.5290
vn 0.5050 -0.6775 0.5348
vn 0.3091 -0.8552 0.4160
vn -0.1606 -0.1352 -0.9777
vn -0.1606 -0.1352 0.9777
vn 0.6919 0.5504 0.4673
vn -0.3793 -0.2946 0.8771
vn 0.3092 0.2714 0.9114
vn -0.1202 -0.1012 0.9876
vn -0.4756 -0.3694 0.7983
vn -0.3611 -0.2748 -0.8911
vn -0.4896 -0.3792 -0.7852
vn -0.1168 -0.0983 -0.9883
vn 0.6919 0.5504 -0.4673
vn 0.3092 0.2714 -0.9114
vn 0.3171 0.3830 -0.8676
vn 0.3371 0.7163 -0.6109
vn -0.3114 -0.3788 0.8715
vn 0.3404 0.7805 0.5244
vn 0.3406 0.7811 -0.5233
vn 0.3074 0.7150 0.6279
vn 0.3483 0.4063 0.8448
vn -0.3383 -0.7832 0.5216
vn -0.2944 -0.8284 -0.4766
vn -0.4940 -0.6950 0.5225
vn 0.2958 0.8264 0.4792
vn -0.2990 -0.7175 -0.6291
vn -0.3124 -0.7024 -0.6396
vn -0.2882 -0.8307 -0.4763
vn 0.1595 -0.1387 0.9774
vn 0.1602 -0.1402 -0.9771
vn 0.3549 -0.2528 -0.9001
vn -0.3066 0.2746 -0.9114
vn 0.1809 -0.0994 -0.9785
vn 0.4708 -0.3549 -0.8077
vn 0.3613 -0.3081 0.8801
vn 0.4552 -0.3455 0.8206
vn 0.1372 -0.1522 0.9788
vn -0.4345 -0.5444 -0.7175
vn -0.3820 0.3933 0.8363
vn 0.3281 -0.8420 0.4283
vn 0.3068 -0.7940 0.5248
vn -0.3826 -0.2902 0.8771
vn -0.4790 -0.3687 0.7966
vn -0.3689 -0.2654 -0.8908
vn -0.4809 -0.3812 -0.7895
vn 0.3271 0.3949 -0.8585
vn 0.2958 0.8264 -0.4792
vn -0.2506 -0.8215 0.5122
vn -0.7203 0.5996 -0.3489
vn 0.3606 -0.3076 0.8806
vn 0.4650 -0.3431 0.8161
vn -0.7203 0.5996 0.3489
vn -0.3066 0.2746 0.9113
vn -0.8125 -0.4724 0.3416
vn 0.6384 0.6168 -0.4605
vn -0.2415 0.7831 -0.5732
vn -0.8366 -0.5479 -0.0004
vn 0.8425 -0.5385 0.0144
vn 0.5929 0.8049 0.0248
vn -0.5982 0.8012 0.0139
vn 0.6461 -0.5651 -0.5130
vn -0.2919 0.6919 0.6604
vn 0.6167 0.5789 0.5335
vn 0.7765 -0.6281 0.0492
vn -0.7848 -0.6187 0.0359
vn 0.6990 -0.1039 -0.7076
vn 0.8455 -0.1474 0.5133
vn 0.8274 -0.0601 -0.5583
vn -0.7134 -0.1271 -0.6891
vn -0.0044 0.5646 -0.8254
vn 0.0088 0.7102 0.7039
vn 0.8861 0.4378 -0.1524
vn 0.5706 0.8203 -0.0392
vn 0.3440 0.6634 0.6645
vn -0.3336 -0.6812 -0.6517
vn -0.3660 0.9074 0.2066
vn 0.3660 0.9073 0.2068
vn -0.3636 0.6716 0.6456
vn -0.8668 0.4986 -0.0066
vn -0.5548 -0.8183 0.1505
vn 0.3678 -0.9098 -0.1923
vn -0.4136 -0.6935 -0.5899
vn -0.5507 -0.8343 0.0258
vn -0.5706 0.8203 -0.0391
vn 0.3650 -0.6750 -0.6412
vn 0.8741 -0.4845 0.0345
vn 0.5706 -0.8199 0.0476
vn -0.9799 -0.1375 0.1444
vn 0.9799 -0.1375 0.1444
vn 0.4340 0.4404 -0.7859
vn 0.9374 -0.2657 0.2252
vn 0.8688 0.2763 -0.4108
vn 0.9947 0.0239 0.0997
vn 0.8183 -0.4520 0.3551
vn -0.9150 -0.3200 0.2459
vn -0.8524 -0.4185 0.3134
vn -0.9933 0.0256 0.1125
vn -0.4340 0.4404 -0.7859
vn -0.8688 0.2763 -0.4109
vn -0.8624 0.5057 0.0229
vn -0.5687 0.8218 0.0353
vn -0.5613 0.6253 -0.5422
vn 0.5313 -0.6746 0.5125
vn 0.5280 0.8409 -0.1187
vn -0.5280 0.8409 -0.1189
vn 0.5536 0.6225 -0.5532
vn 0.8794 0.4534 0.1455
vn 0.5717 -0.8203 0.0156
vn -0.5281 -0.8427 0.1045
vn 0.5506 -0.6248 0.5537
vn 0.4733 -0.8788 0.0613
vn 0.5686 0.8218 0.0354
vn -0.5540 -0.6260 0.5489
vn -0.5674 -0.8228 -0.0338
vn 0.9792 -0.1370 -0.1497
vn -0.9792 -0.1370 -0.1497
vn -0.2820 0.5370 0.7951
vn -0.9140 -0.3141 -0.2569
vn -0.9931 0.0274 -0.1143
vn -0.8327 -0.4337 -0.3442
vn 0.9235 -0.3415 -0.1749
vn 0.8272 -0.4905 -0.2741
vn 0.9974 -0.0017 -0.0726
vn 0.2819 0.5369 0.7951
vn 0.8768 0.2591 0.4051
vn 0.6205 -0.6274 0.4705
vn -0.8070 -0.4443 -0.3892
vn -0.6616 0.7438 -0.0950
vn 0.6714 0.7364 -0.0835
vn 0.8847 0.4436 -0.1433
vn -0.9132 -0.3319 0.2366
vn -0.8446 -0.4131 0.3406
vn 0.8776 0.4601 0.1344
vn -0.8804 -0.4495 -0.1509
vn -0.9137 -0.3165 -0.2550
vn -0.8768 0.2591 0.4051
vn -0.8194 -0.4262 -0.3834
vn 0.9298 -0.3058 -0.2047
vn 0.7838 -0.4681 -0.4082
vn 0.7172 -0.1663 0.6767
vn -0.9795 0.0994 0.1753
vn 0.9840 0.0946 0.1512
vn 0.3551 0.1157 0.9276
vn -0.0295 0.1471 -0.9887
vn -0.2786 0.1175 0.9532
vn 0.2015 0.1443 -0.9688
vn 0.9745 0.0879 -0.2063
vn -0.9695 0.0922 -0.2272
vn 0.7603 -0.0849 0.6440
vn 0.8221 -0.1015 -0.5602
vn 0.7178 -0.0695 -0.6928
vn 0.8574 -0.0732 0.5094
vn -0.8829 -0.1306 0.4510
vn -0.7602 -0.1374 0.6350
vn -0.8525 -0.1207 -0.5086
vn -0.7144 -0.1189 -0.6895
vn -0.0000 0.3002 -0.9539
vn 0.8261 0.3002 0.4769
vn -0.8261 0.3002 0.4769
vn -0.0000 0.3002 0.9539
vn -0.8261 0.3002 -0.4769
vn 0.8261 0.3002 -0.4769
vn -0.0000 0.8796 -0.4757
vn -0.4120 0.8796 -0.2379
vn -0.4120 0.8796 0.2379
vn -0.0000 0.8796 0.4757
vn 0.4120 0.8796 0.2379
vn 0.4120 0.8796 -0.2379
vn -0.0000 1.0000 -0.0000
vn -0.0000 -0.0761 -0.9971
vn -0.0000 -0.0761 0.9971
vn -0.8635 -0.0761 -0.4986
vn -0.8635 -0.0761 0.4986
vn 0.8635 -0.0761 0.4986
vn 0.8635 -0.0761 -0.4986
vn -0.3850 -0.4956 0.7786
vn 0.3907 0.4876 0.7807
vn 0.3933 0.4848 -0.7812
vn -0.1877 -0.6106 -0.7694
vn -0.2041 -0.6163 0.7606
vn 0.1464 0.6443 0.7506
vn 0.1631 0.6504 -0.7419
vn 0.4249 -0.5000 0.7546
vn 0.4277 -0.4969 -0.7551
vn -0.4240 0.4925 -0.7600
vn -0.4205 0.4952 0.7603
vn 0.2217 -0.5758 0.7870
vn 0.2383 -0.5788 -0.7799
vn -0.1823 0.6038 -0.7760
vn -0.1993 0.6070 0.7693
vn 0.7214 0.6926 -0.0032
vn -0.7060 0.7082 0.0038
vn -0.3515 0.8172 0.4567
vn -0.2332 0.7666 0.5983
vn -0.5544 0.6612 0.5055
vn 0.3419 -0.8229 -0.4537
vn -0.3340 0.7799 -0.5293
vn -0.3349 0.7795 0.5293
vn -0.5509 0.6634 -0.5064
vn -0.3376 0.8371 -0.4303
vn 0.3335 -0.7827 -0.5255
vn 0.2997 -0.8177 0.4915
vn 0.4909 -0.6790 -0.5459
vn 0.3068 -0.7940 -0.5248
vn -0.2332 0.7666 -0.5983
vn 0.5504 -0.6665 0.5029
vn 0.3331 -0.3578 0.8724
vn -0.1582 -0.1388 -0.9776
vn -0.1582 -0.1388 0.9776
vn 0.6601 0.6340 0.4029
vn 0.3148 0.2504 0.9155
vn -0.1225 -0.0985 0.9876
vn -0.1421 -0.0682 -0.9875
vn 0.6601 0.6340 -0.4029
vn 0.3148 0.2504 -0.9155
vn 0.2964 0.7572 -0.5820
vn 0.4967 0.6921 -0.5238
vn -0.2882 -0.7583 0.5848
vn 0.2977 0.8257 0.4793
vn 0.2985 0.8254 -0.4793
vn 0.5000 0.6882 0.5258
vn 0.3366 0.6810 0.6503
vn -0.2954 -0.8280 0.4766
vn -0.3380 -0.7825 -0.5228
vn -0.3273 -0.7192 0.6129
vn 0.2485 0.8149 0.5237
vn -0.4972 -0.6911 -0.5246
vn -0.3326 -0.3902 -0.8586
vn -0.2506 -0.8215 -0.5122
vn 0.1580 -0.1415 0.9773
vn 0.1590 -0.1424 -0.9770
vn -0.3107 0.2587 -0.9146
vn 0.1557 -0.1363 -0.9784
vn 0.3808 -0.2855 0.8795
vn 0.1518 -0.1320 0.9796
vn -0.3881 -0.4934 -0.7784
vn -0.3702 0.8019 0.4688
vn 0.3438 -0.3690 0.8635
vn 0.2353 -0.7762 0.5849
vn -0.3792 -0.2945 0.8772
vn -0.4757 -0.3695 0.7983
vn 0.3133 0.7408 -0.5942
vn 0.2485 0.8149 -0.5237
vn -0.2882 -0.8307 0.4763
vn -0.6892 0.6566 -0.3064
vn -0.6892 0.6566 0.3064
vn -0.3107 0.2587 0.9146
vn -0.8860 -0.3789 0.2672
vn 0.6402 0.6155 -0.4597
vn -0.6400 0.6140 -0.4619
vn -0.7499 -0.6614 0.0091
vn 0.7456 -0.6660 0.0230
vn 0.7447 0.6664 0.0351
vn -0.7413 0.6709 0.0209
vn 0.8688 -0.3737 -0.3248
vn -0.8125 0.4288 0.3949
vn 0.8130 0.4224 0.4007
vn 0.7329 -0.6785 0.0496
vn -0.7286 -0.6840 0.0375
vn 0.8276 -0.0602 -0.5580
vn -0.0077 0.6960 -0.7180
vn 0.0093 0.7293 0.6842
vn 0.3288 0.6792 0.6562
vn 0.5701 0.8207 -0.0386
vn 0.4103 0.6894 0.5969
vn -0.8870 -0.4347 0.1561
vn -0.5558 0.8197 -0.1386
vn 0.5559 0.8196 -0.1386
vn -0.4103 0.6894 0.5969
vn -0.3690 0.6654 0.6489
vn -0.3678 -0.9098 -0.1924
vn 0.5547 -0.8183 0.1505
vn -0.3466 -0.6674 -0.6592
vn -0.5707 -0.8198 0.0477
vn -0.5701 0.8207 -0.0386
vn 0.4136 -0.6935 -0.5899
vn 0.3711 -0.6680 -0.6451
vn 0.5507 -0.8343 0.0258
vn -0.9821 -0.1052 0.1564
vn 0.9821 -0.1052 0.1564
vn 0.1179 0.7466 -0.6548
vn 0.8861 0.2266 -0.4044
vn 0.9987 -0.0356 0.0374
vn -0.9984 -0.0396 0.0416
vn -0.1179 0.7466 -0.6548
vn -0.8861 0.2266 -0.4044
vn -0.5283 0.6736 -0.5168
vn -0.4901 0.8705 -0.0449
vn -0.5478 0.6204 -0.5612
vn 0.8665 -0.4979 -0.0362
vn 0.5738 0.8186 -0.0261
vn -0.5739 0.8185 -0.0261
vn 0.5478 0.6204 -0.5612
vn 0.5058 0.6883 -0.5200
vn 0.5281 -0.8427 0.1047
vn -0.5716 -0.8204 0.0156
vn 0.5621 -0.6289 0.5371
vn 0.5675 -0.8227 -0.0337
vn 0.4899 0.8706 -0.0449
vn -0.5506 -0.6248 0.5536
vn -0.4731 -0.8789 0.0613
vn 0.9816 -0.1028 -0.1608
vn -0.9816 -0.1029 -0.1608
vn -0.0633 0.7782 0.6248
vn -0.9981 -0.0413 -0.0451
vn 0.9294 -0.3068 -0.2051
vn 0.7872 -0.4648 -0.4052
vn 0.9986 -0.0359 -0.0392
vn 0.0630 0.7782 0.6248
vn 0.8712 0.2747 0.4069
vn 0.8863 -0.3763 0.2701
vn -0.8693 -0.3754 -0.3217
vn -0.8334 0.5448 -0.0923
vn 0.8341 0.5461 -0.0781
vn 0.8693 -0.4920 -0.0473
vn -0.5083 -0.6895 0.5159
vn -0.8711 0.2748 0.4069
vn 0.7621 -0.0875 0.6415
vn 0.7156 -0.0670 -0.6953
vn 0.8578 -0.0735 0.5088
vn -0.8831 -0.1303 0.4507
vn -0.7585 -0.1355 0.6374
vn -0.8521 -0.1211 -0.5092
vn -0.7160 -0.1203 -0.6876
vt 0.467634 0.266204
vt 0.467620 0.288297
vt 0.467591 0.287375
vt 0.467676 0.356436
vt 0.467641 0.295086
vt 0.467674 0.297380
vt 0.467643 0.359523
vt 0.467641 0.297254
vt 0.467615 0.296910
vt 0.467643 0.353369
vt 0.467625 0.372044
vt 0.467611 0.356422
vt 0.467652 0.371984
vt 0.467639 0.373379
vt 0.467699 0.287782
vt 0.467666 0.288572
vt 0.467641 0.287063
vt 0.467643 0.355565
vt 0.467676 0.295657
vt 0.467642 0.292095
vt 0.467611 0.358448
vt 0.467614 0.295239
vt 0.467643 0.361386
vt 0.467642 0.296058
vt 0.467662 0.377995
vt 0.467676 0.358432
vt 0.467635 0.377942
vt 0.467648 0.379406
vt 0.211959 0.129231
vt 0.212234 0.126416
vt 0.211965 0.118618
vt 0.211956 0.138192
vt 0.212490 0.146205
vt 0.212800 0.144615
vt 0.212650 0.139708
vt 0.212496 0.130725
vt 0.212234 0.126226
vt 0.211959 0.128941
vt 0.211965 0.118361
vt 0.211263 0.139717
vt 0.211956 0.135201
vt 0.211420 0.130674
vt 0.211708 0.126398
vt 0.212650 0.139353
vt 0.211956 0.137870
vt 0.211956 0.134897
vt 0.211263 0.139363
vt 0.211113 0.144232
vt 0.212490 0.145709
vt 0.211956 0.142543
vt 0.211423 0.146205
vt 0.211113 0.144615
vt 0.211420 0.130404
vt 0.211423 0.145709
vt 0.211956 0.142876
vt 0.212800 0.144232
vt 0.211959 0.127601
vt 0.211708 0.125659
vt 0.211965 0.117669
vt 0.211263 0.137304
vt 0.211460 0.129964
vt 0.211708 0.125473
vt 0.211959 0.127313
vt 0.211965 0.117400
vt 0.212647 0.137274
vt 0.211956 0.135931
vt 0.211956 0.132308
vt 0.212438 0.129949
vt 0.212234 0.125472
vt 0.211263 0.136968
vt 0.211956 0.135595
vt 0.211956 0.131994
vt 0.212647 0.136938
vt 0.212800 0.141245
vt 0.212490 0.143148
vt 0.212800 0.141619
vt 0.212438 0.129734
vt 0.212490 0.142694
vt 0.211113 0.141619
vt 0.211461 0.129731
vt 0.211708 0.126208
vt 0.212497 0.130463
vt 0.211423 0.143148
vt 0.211423 0.142694
vt 0.211956 0.139977
vt 0.211956 0.140311
vt 0.211113 0.141245
vt 0.467716 0.296430
vt 0.468653 0.374313
vt 0.467674 0.298170
vt 0.468654 0.374322
vt 0.468682 0.370273
vt 0.469184 0.373266
vt 0.469184 0.373207
vt 0.469168 0.374939
vt 0.468644 0.376302
vt 0.467578 0.295810
vt 0.466676 0.387526
vt 0.466706 0.391035
vt 0.467621 0.297309
vt 0.466639 0.382954
vt 0.466094 0.380813
vt 0.466094 0.380758
vt 0.466675 0.387547
vt 0.467619 0.286956
vt 0.467641 0.284799
vt 0.467668 0.287245
vt 0.466110 0.383297
vt 0.212406 0.120360
vt 0.213133 0.133854
vt 0.212415 0.127376
vt 0.215027 0.142925
vt 0.215732 0.147473
vt 0.214905 0.150906
vt 0.213722 0.137549
vt 0.214113 0.147656
vt 0.212430 0.120103
vt 0.213166 0.133690
vt 0.213752 0.137206
vt 0.214905 0.150904
vt 0.214321 0.144531
vt 0.214113 0.147657
vt 0.213133 0.134434
vt 0.212433 0.126916
vt 0.214351 0.144060
vt 0.214934 0.150316
vt 0.215056 0.142313
vt 0.214935 0.150314
vt 0.214142 0.147240
vt 0.214142 0.147240
vt 0.215761 0.146765
vt 0.216277 0.141804
vt 0.215732 0.147473
vt 0.213166 0.134234
vt 0.215761 0.146765
vt 0.216248 0.142152
vt 0.212432 0.127212
vt 0.211617 0.118496
vt 0.210926 0.132072
vt 0.211628 0.124969
vt 0.209051 0.139231
vt 0.208322 0.143785
vt 0.209152 0.147152
vt 0.210222 0.132795
vt 0.209948 0.144364
vt 0.211594 0.118222
vt 0.210894 0.131877
vt 0.210192 0.132455
vt 0.209152 0.147151
vt 0.209717 0.138945
vt 0.209948 0.144365
vt 0.210926 0.131635
vt 0.211628 0.125283
vt 0.209687 0.138472
vt 0.209123 0.146534
vt 0.209021 0.138642
vt 0.209123 0.146532
vt 0.209919 0.143933
vt 0.209919 0.143932
vt 0.208293 0.143200
vt 0.207913 0.139683
vt 0.208322 0.143782
vt 0.210894 0.131445
vt 0.208293 0.143197
vt 0.207943 0.140001
vt 0.211610 0.125109
vt 0.211610 0.124820
vt 0.467645 0.276708
vt 0.589700 0.238088
vt 0.589822 0.229194
vt 0.588919 0.238088
vt 0.588017 0.229194
vt 0.588919 0.229194
vt 0.588139 0.238088
vt 0.589104 0.245493
vt 0.588919 0.245493
vt 0.588735 0.245493
vt 0.589751 0.207917
vt 0.588088 0.207917
vt 0.588919 0.207917
vt 0.467639 0.370628
vt 0.467648 0.376527
vt 0.469200 0.371625
vt 0.466079 0.379107
s 0
usemtl Texture_Map
f 1/1/1 170/2/1 168/3/1
f 3/4/2 42/5/2 43/6/2
f 46/7/3 43/6/3 2/8/3
f 44/9/4 46/7/4 2/8/4
f 45/10/5 49/11/5 47/12/5
f 48/13/6 45/10/6 3/4/6
f 5/14/7 3/4/7 46/7/7
f 47/12/8 5/14/8 46/7/8
f 1/1/9 165/15/9 172/16/9
f 1/1/10 172/16/10 171/17/10
f 53/18/11 52/19/11 6/20/11
f 7/21/12 6/20/12 50/22/12
f 8/23/13 50/22/13 51/24/13
f 52/19/14 8/23/14 51/24/14
f 53/18/15 12/25/15 9/26/15
f 11/27/16 53/18/16 7/21/16
f 54/28/17 7/21/17 8/23/17
f 9/26/18 54/28/18 8/23/18
f 12/25/19 11/27/19 54/28/19
f 49/11/20 48/13/20 5/14/20
f 19/29/21 14/30/21 17/31/21
f 20/32/22 16/33/22 57/34/22
f 19/29/23 60/35/23 56/36/23
f 63/37/24 65/38/24 23/39/24
f 21/40/25 20/32/25 59/41/25
f 20/32/26 60/35/26 59/41/26
f 21/40/27 19/29/27 18/42/27
f 13/43/28 19/29/28 17/31/28
f 27/44/29 66/45/29 68/46/29
f 28/47/30 66/45/30 67/48/30
f 65/38/31 27/44/31 68/46/31
f 66/45/32 61/49/32 22/50/32
f 15/51/33 20/32/33 58/52/33
f 65/38/34 28/47/34 24/53/34
f 13/43/35 65/38/35 24/53/35
f 57/34/36 27/44/36 60/35/36
f 28/47/37 58/52/37 21/40/37
f 62/54/38 55/55/38 15/51/38
f 13/43/39 24/53/39 18/42/39
f 67/48/40 15/51/40 58/52/40
f 18/42/41 28/47/41 21/40/41
f 17/31/42 23/39/42 13/43/42
f 56/36/43 63/37/43 14/30/43
f 63/37/44 17/31/44 14/30/44
f 27/44/45 56/36/45 60/35/45
f 55/55/46 61/49/46 16/33/46
f 16/33/47 26/56/47 57/34/47
f 31/57/48 29/58/48 30/59/48
f 31/57/49 33/60/49 73/61/49
f 35/62/50 39/63/50 78/64/50
f 77/65/51 75/66/51 76/67/51
f 75/66/52 33/60/52 76/67/52
f 77/65/53 31/57/53 72/68/53
f 36/69/54 31/57/54 30/59/54
f 41/70/55 82/71/55 83/72/55
f 84/73/56 82/71/56 40/74/56
f 39/63/57 41/70/57 83/72/57
f 69/75/58 75/66/58 32/76/58
f 39/63/59 84/73/59 37/77/59
f 36/69/60 39/63/60 37/77/60
f 82/71/61 80/78/61 40/74/61
f 74/79/62 41/70/62 33/60/62
f 84/73/63 32/76/63 77/65/63
f 36/69/64 37/77/64 72/68/64
f 40/74/65 69/75/65 32/76/65
f 37/77/66 77/65/66 72/68/66
f 30/59/67 78/64/67 36/69/67
f 38/80/68 29/58/68 73/61/68
f 35/62/69 30/59/69 29/58/69
f 33/60/70 38/80/70 73/61/70
f 42/5/71 47/12/71 44/9/71
f 19/29/72 63/37/72 17/31/72
f 64/81/73 65/38/73 24/53/73
f 66/45/74 62/54/74 67/48/74
f 64/81/75 18/42/75 13/43/75
f 17/31/76 64/81/76 13/43/76
f 56/36/77 25/82/77 63/37/77
f 63/37/78 23/39/78 17/31/78
f 31/57/79 35/62/79 30/59/79
f 75/66/80 70/83/80 74/79/80
f 82/71/81 79/84/81 34/85/81
f 80/78/82 71/86/82 69/75/82
f 73/61/83 38/80/83 35/62/83
f 35/62/84 78/64/84 30/59/84
f 71/86/85 79/84/85 70/83/85
f 70/83/86 81/87/86 74/79/86
f 136/88/87 89/89/87 43/6/87
f 85/90/88 87/91/88 52/19/88
f 89/89/89 85/90/89 43/6/89
f 86/92/90 92/93/90 89/89/90
f 137/94/91 86/92/91 87/91/91
f 91/95/92 87/91/92 88/96/92
f 89/89/93 91/95/93 88/96/93
f 138/97/94 97/98/94 50/22/94
f 96/99/95 44/9/95 93/100/95
f 97/98/96 93/100/96 50/22/96
f 94/101/97 141/102/97 97/98/97
f 139/103/98 94/101/98 95/104/98
f 1/1/99 166/105/99 167/106/99
f 1/1/100 169/107/100 165/15/100
f 50/22/101 168/3/101 138/97/101
f 1/1/102 171/17/102 170/2/102
f 141/102/103 139/103/103 140/108/103
f 92/93/104 137/94/104 91/95/104
f 142/109/105 144/110/105 99/111/105
f 105/112/106 101/113/106 104/114/106
f 103/115/107 145/116/107 144/110/107
f 110/117/108 148/118/108 149/119/108
f 106/120/109 107/121/109 108/122/109
f 107/121/110 104/114/110 145/116/110
f 108/122/111 103/115/111 143/123/111
f 143/123/112 142/109/112 113/124/112
f 116/125/113 114/126/113 115/127/113
f 116/125/114 150/128/114 118/129/114
f 149/119/115 117/130/115 116/125/115
f 115/127/116 111/131/116 109/132/116
f 100/133/117 105/112/117 106/120/117
f 149/119/118 118/129/118 147/134/118
f 110/117/119 147/134/119 113/124/119
f 115/127/120 146/135/120 150/128/120
f 104/114/121 117/130/121 145/116/121
f 118/129/122 106/120/122 108/122/122
f 146/135/123 102/136/123 100/133/123
f 113/124/124 147/134/124 143/123/124
f 150/128/125 100/133/125 106/120/125
f 147/134/126 108/122/126 143/123/126
f 142/109/127 110/117/127 113/124/127
f 144/110/128 112/137/128 99/111/128
f 112/137/129 142/109/129 99/111/129
f 145/116/130 148/118/130 144/110/130
f 102/136/131 111/131/131 101/113/131
f 101/113/132 114/126/132 104/114/132
f 122/138/133 124/139/133 120/140/133
f 126/141/134 121/142/134 125/143/134
f 153/144/135 128/145/135 124/139/135
f 156/146/136 132/147/136 160/148/136
f 154/149/137 127/150/137 155/151/137
f 127/150/138 125/143/138 128/145/138
f 155/151/139 153/144/139 152/152/139
f 152/152/140 122/138/140 119/153/140
f 133/154/141 161/155/141 162/156/141
f 133/154/142 163/157/142 135/158/142
f 160/148/143 134/159/143 133/154/143
f 162/156/144 157/160/144 129/161/144
f 151/162/145 126/141/145 154/149/145
f 160/148/146 135/158/146 159/163/146
f 162/156/147 158/164/147 163/157/147
f 125/143/148 134/159/148 128/145/148
f 135/158/149 154/149/149 155/151/149
f 158/164/150 123/165/150 151/162/150
f 131/166/151 152/152/151 119/153/151
f 159/163/152 155/151/152 152/152/152
f 122/138/153 131/166/153 119/153/153
f 124/139/154 130/167/154 120/140/154
f 130/167/155 122/138/155 120/140/155
f 128/145/156 132/147/156 124/139/156
f 123/165/157 157/160/157 121/142/157
f 121/142/158 161/155/158 125/143/158
f 87/91/159 136/88/159 52/19/159
f 95/104/160 138/97/160 44/9/160
f 140/108/161 95/104/161 96/99/161
f 97/98/162 140/108/162 96/99/162
f 142/109/163 144/110/163 112/137/163
f 144/110/164 148/118/164 112/137/164
f 112/137/165 110/117/165 142/109/165
f 152/152/166 122/138/166 131/166/166
f 156/146/167 159/163/167 131/166/167
f 131/166/168 159/163/168 152/152/168
f 163/157/169 151/162/169 154/149/169
f 122/138/170 156/146/170 131/166/170
f 124/139/171 132/147/171 120/140/171
f 120/140/172 156/146/172 122/138/172
f 1/1/173 167/106/173 169/107/173
f 52/19/174 51/24/174 164/168/174
f 2/8/175 43/6/175 164/168/175
f 50/22/176 93/100/176 164/168/176
f 43/6/177 85/90/177 164/168/177
f 93/100/178 44/9/178 164/168/178
f 85/90/179 52/19/179 164/168/179
f 44/9/180 2/8/180 164/168/180
f 51/24/181 50/22/181 164/168/181
f 169/107/182 6/20/182 52/19/182
f 168/3/183 166/105/183 1/1/183
f 166/105/184 6/20/184 167/106/184
f 165/15/185 52/19/185 136/88/185
f 172/16/186 136/88/186 43/6/186
f 172/16/187 42/5/187 171/17/187
f 170/2/188 138/97/188 168/3/188
f 170/2/189 42/5/189 44/9/189
f 180/169/190 174/170/190 181/169/190
f 189/171/191 177/172/191 178/173/191
f 185/174/192 175/173/192 176/172/192
f 187/174/193 176/172/193 177/172/193
f 183/171/194 174/170/194 175/173/194
f 189/171/195 173/170/195 180/169/195
f 179/175/196 181/169/196 182/175/196
f 182/175/197 183/171/197 184/176/197
f 186/177/198 183/171/198 185/174/198
f 186/177/199 187/174/199 188/177/199
f 190/176/200 187/174/200 189/171/200
f 190/176/201 180/169/201 179/175/201
f 184/176/202 188/177/202 179/175/202
f 191/178/203 174/170/203 173/170/203
f 176/172/204 195/179/204 177/172/204
f 192/178/205 175/173/205 174/170/205
f 175/173/206 194/179/206 176/172/206
f 195/179/207 178/173/207 177/172/207
f 193/180/208 173/170/208 178/173/208
f 3/4/209 45/10/209 42/5/209
f 46/7/210 3/4/210 43/6/210
f 44/9/211 47/12/211 46/7/211
f 45/10/212 4/181/212 49/11/212
f 48/13/213 4/181/213 45/10/213
f 5/14/214 48/13/214 3/4/214
f 47/12/215 49/11/215 5/14/215
f 53/18/216 9/26/216 52/19/216
f 7/21/217 53/18/217 6/20/217
f 8/23/218 7/21/218 50/22/218
f 52/19/219 9/26/219 8/23/219
f 53/18/220 10/182/220 12/25/220
f 11/27/221 10/182/221 53/18/221
f 54/28/222 11/27/222 7/21/222
f 9/26/223 12/25/223 54/28/223
f 12/25/224 10/182/224 11/27/224
f 49/11/225 4/181/225 48/13/225
f 19/29/226 56/36/226 14/30/226
f 20/32/227 55/55/227 16/33/227
f 19/29/228 59/41/228 60/35/228
f 63/37/229 25/82/229 65/38/229
f 21/40/230 58/52/230 20/32/230
f 20/32/231 57/34/231 60/35/231
f 21/40/232 59/41/232 19/29/232
f 13/43/233 18/42/233 19/29/233
f 27/44/234 26/56/234 66/45/234
f 28/47/235 68/46/235 66/45/235
f 65/38/236 25/82/236 27/44/236
f 66/45/237 26/56/237 61/49/237
f 15/51/238 55/55/238 20/32/238
f 65/38/239 68/46/239 28/47/239
f 13/43/240 23/39/240 65/38/240
f 57/34/241 26/56/241 27/44/241
f 28/47/242 67/48/242 58/52/242
f 62/54/243 22/50/243 55/55/243
f 67/48/244 62/54/244 15/51/244
f 18/42/245 24/53/245 28/47/245
f 27/44/246 25/82/246 56/36/246
f 55/55/247 22/50/247 61/49/247
f 16/33/248 61/49/248 26/56/248
f 31/57/249 73/61/249 29/58/249
f 31/57/250 76/67/250 33/60/250
f 35/62/251 38/80/251 39/63/251
f 77/65/252 32/76/252 75/66/252
f 75/66/253 74/79/253 33/60/253
f 77/65/254 76/67/254 31/57/254
f 36/69/255 72/68/255 31/57/255
f 41/70/256 81/87/256 82/71/256
f 84/73/257 83/72/257 82/71/257
f 39/63/258 38/80/258 41/70/258
f 69/75/259 71/86/259 75/66/259
f 39/63/260 83/72/260 84/73/260
f 36/69/261 78/64/261 39/63/261
f 82/71/262 34/85/262 80/78/262
f 74/79/263 81/87/263 41/70/263
f 84/73/264 40/74/264 32/76/264
f 40/74/265 80/78/265 69/75/265
f 37/77/266 84/73/266 77/65/266
f 38/80/267 35/62/267 29/58/267
f 33/60/268 41/70/268 38/80/268
f 42/5/269 45/10/269 47/12/269
f 19/29/270 56/36/270 63/37/270
f 64/81/271 23/39/271 65/38/271
f 66/45/272 22/50/272 62/54/272
f 64/81/273 24/53/273 18/42/273
f 17/31/274 23/39/274 64/81/274
f 31/57/275 73/61/275 35/62/275
f 75/66/276 71/86/276 70/83/276
f 82/71/277 81/87/277 79/84/277
f 80/78/278 34/85/278 71/86/278
f 71/86/279 34/85/279 79/84/279
f 70/83/280 79/84/280 81/87/280
f 136/88/281 86/92/281 89/89/281
f 85/90/282 88/96/282 87/91/282
f 89/89/283 88/96/283 85/90/283
f 86/92/284 90/183/284 92/93/284
f 137/94/285 90/183/285 86/92/285
f 91/95/286 137/94/286 87/91/286
f 89/89/287 92/93/287 91/95/287
f 138/97/288 94/101/288 97/98/288
f 96/99/289 95/104/289 44/9/289
f 97/98/290 96/99/290 93/100/290
f 94/101/291 98/184/291 141/102/291
f 139/103/292 98/184/292 94/101/292
f 50/22/293 166/105/293 168/3/293
f 141/102/294 98/184/294 139/103/294
f 92/93/295 90/183/295 137/94/295
f 142/109/296 103/115/296 144/110/296
f 105/112/297 102/136/297 101/113/297
f 103/115/298 107/121/298 145/116/298
f 110/117/299 112/137/299 148/118/299
f 106/120/300 105/112/300 107/121/300
f 107/121/301 105/112/301 104/114/301
f 108/122/302 107/121/302 103/115/302
f 143/123/303 103/115/303 142/109/303
f 116/125/304 117/130/304 114/126/304
f 116/125/305 115/127/305 150/128/305
f 149/119/306 148/118/306 117/130/306
f 115/127/307 114/126/307 111/131/307
f 100/133/308 102/136/308 105/112/308
f 149/119/309 116/125/309 118/129/309
f 110/117/310 149/119/310 147/134/310
f 115/127/311 109/132/311 146/135/311
f 104/114/312 114/126/312 117/130/312
f 118/129/313 150/128/313 106/120/313
f 146/135/314 109/132/314 102/136/314
f 150/128/315 146/135/315 100/133/315
f 147/134/316 118/129/316 108/122/316
f 145/116/317 117/130/317 148/118/317
f 102/136/318 109/132/318 111/131/318
f 101/113/319 111/131/319 114/126/319
f 122/138/320 153/144/320 124/139/320
f 126/141/321 123/165/321 121/142/321
f 153/144/322 127/150/322 128/145/322
f 156/146/323 130/167/323 132/147/323
f 154/149/324 126/141/324 127/150/324
f 127/150/325 126/141/325 125/143/325
f 155/151/326 127/150/326 153/144/326
f 152/152/327 153/144/327 122/138/327
f 133/154/328 134/159/328 161/155/328
f 133/154/329 162/156/329 163/157/329
f 160/148/330 132/147/330 134/159/330
f 162/156/331 161/155/331 157/160/331
f 151/162/332 123/165/332 126/141/332
f 160/148/333 133/154/333 135/158/333
f 162/156/334 129/161/334 158/164/334
f 125/143/335 161/155/335 134/159/335
f 135/158/336 163/157/336 154/149/336
f 158/164/337 129/161/337 123/165/337
f 159/163/338 135/158/338 155/151/338
f 124/139/339 132/147/339 130/167/339
f 130/167/340 156/146/340 122/138/340
f 128/145/341 134/159/341 132/147/341
f 123/165/342 129/161/342 157/160/342
f 121/142/343 157/160/343 161/155/343
f 87/91/344 86/92/344 136/88/344
f 95/104/345 94/101/345 138/97/345
f 140/108/346 139/103/346 95/104/346
f 97/98/347 141/102/347 140/108/347
f 156/146/348 120/140/348 132/147/348
f 156/146/349 160/148/349 159/163/349
f 163/157/350 158/164/350 151/162/350
f 169/107/351 167/106/351 6/20/351
f 166/105/352 50/22/352 6/20/352
f 165/15/353 169/107/353 52/19/353
f 172/16/354 165/15/354 136/88/354
f 172/16/355 43/6/355 42/5/355
f 170/2/356 44/9/356 138/97/356
f 170/2/357 171/17/357 42/5/357
f 180/169/190 173/170/190 174/170/190
f 189/171/191 187/174/191 177/172/191
f 185/174/192 183/171/192 175/173/192
f 187/174/193 185/174/193 176/172/193
f 183/171/194 181/169/194 174/170/194
f 189/171/195 178/173/195 173/170/195
f 179/175/196 180/169/196 181/169/196
f 182/175/197 181/169/197 183/171/197
f 186/177/198 184/176/198 183/171/198
f 186/177/199 185/174/199 187/174/199
f 190/176/200 188/177/200 187/174/200
f 190/176/201 189/171/201 180/169/201
f 179/175/202 182/175/202 184/176/202
f 184/176/202 186/177/202 188/177/202
f 188/177/202 190/176/202 179/175/202
f 191/178/203 192/178/203 174/170/203
f 176/172/204 194/179/204 195/179/204
f 192/178/205 196/180/205 175/173/205
f 175/173/206 196/180/206 194/179/206
f 195/179/207 193/180/207 178/173/207
f 193/180/208 191/178/208 173/170/208
