# Blender 4.4.0
# www.blender.org
mtllib Crop_Carrot_04.mtl
o Crop_Carrot_04
v 0.018532 0.161161 -0.032967
v -0.019443 0.161161 -0.032967
v -0.038722 0.161058 -0.000155
v -0.019589 0.161058 0.032985
v 0.018678 0.161058 0.032985
v 0.037812 0.161057 -0.000155
v 0.016608 0.036705 -0.037961
v -0.027266 0.036705 -0.037961
v -0.049230 0.036683 0.000028
v -0.027280 0.036683 0.038048
v 0.016622 0.036683 0.038048
v 0.038572 0.036682 0.000028
v 0.017246 -0.091853 -0.032346
v -0.020150 -0.091853 -0.032346
v -0.038847 -0.091853 0.000039
v -0.020150 -0.091853 0.032424
v 0.017246 -0.091853 0.032424
v 0.035943 -0.091853 0.000039
v 0.003511 -0.237321 -0.006914
v -0.004518 -0.237321 -0.006914
v -0.008533 -0.237321 0.000039
v -0.004518 -0.237321 0.006992
v 0.003511 -0.237321 0.006992
v 0.007525 -0.237321 0.000039
v -0.016888 -0.181581 0.000039
v -0.004119 -0.181581 0.022155
v 0.021418 -0.181581 -0.022077
v -0.004119 -0.181581 -0.022077
v 0.034187 -0.181581 0.000039
v 0.021418 -0.181581 0.022155
v 0.022437 0.174674 -0.000198
v 0.045392 0.138230 -0.000063
v 0.011016 0.174674 0.019584
v 0.022443 0.138230 0.039684
v -0.011827 0.174674 0.019584
v -0.023452 0.138232 0.039683
v -0.023248 0.174674 -0.000198
v -0.046399 0.138232 -0.000063
v 0.010949 0.174674 -0.019806
v 0.022314 0.138437 -0.039530
v -0.011760 0.174674 -0.019806
v -0.023322 0.138437 -0.039530
v -0.004861 0.191453 -0.003789
v -0.000483 0.131930 0.000156
v 0.003697 0.191437 -0.003789
v -0.000263 0.191443 0.000172
v 0.003697 0.191437 0.004132
v 0.013628 0.253171 -0.007145
v 0.006310 0.253496 0.000180
v 0.013628 0.253171 0.007505
v 0.046452 0.311931 -0.007458
v 0.037976 0.312296 0.001026
v 0.046452 0.311931 0.009510
v -0.008814 0.191198 0.000172
v -0.004861 0.191453 0.004132
v -0.011658 0.236985 -0.007145
v -0.018978 0.236744 0.000180
v -0.011658 0.236985 0.007505
v -0.041186 0.284456 -0.007458
v -0.049668 0.284262 0.001026
v -0.041186 0.284456 0.009510
v 0.003646 0.190702 -0.005934
v -0.000211 0.190097 -0.009950
v -0.004272 0.190684 -0.006138
v 0.007194 0.251525 -0.021359
v 0.000061 0.250717 -0.028828
v -0.007451 0.251492 -0.021738
v 0.008441 0.307801 -0.059657
v 0.000180 0.306854 -0.068306
v -0.008521 0.307763 -0.060095
v -0.004603 0.190702 0.006243
v -0.000727 0.190097 0.010240
v 0.003316 0.190684 0.006409
v -0.008622 0.251525 0.010852
v -0.001453 0.250717 0.018286
v 0.006024 0.251492 0.011159
v -0.009312 0.332545 0.036996
v -0.001009 0.331598 0.045606
v 0.007652 0.332507 0.037352
vn 0.6187 0.6997 0.3572
vn -0.0000 -0.0154 -0.9999
vn -0.6167 0.7020 0.3561
vn -0.6168 0.6998 -0.3602
vn -0.0000 1.0000 -0.0000
vn 0.8643 -0.0562 -0.4998
vn -0.0000 -0.0161 0.9999
vn -0.8655 0.0237 -0.5004
vn -0.0000 0.7014 0.7127
vn 0.8646 -0.0576 0.4992
vn -0.8658 0.0246 0.4998
vn -0.0000 -0.0437 0.9990
vn -0.8636 -0.0698 -0.4993
vn 0.8659 -0.0177 0.4999
vn -0.8639 -0.0697 0.4988
vn -0.0000 -0.0436 -0.9990
vn 0.8656 -0.0176 -0.5005
vn -0.8588 -0.1287 0.4958
vn -0.0000 -0.2625 -0.9649
vn 0.8001 -0.3827 -0.4619
vn -0.0000 -0.2625 0.9649
vn -0.8588 -0.1287 -0.4958
vn 0.8659 -0.0170 0.4999
vn -0.8472 -0.2073 -0.4891
vn -0.0000 -0.1137 0.9935
vn 0.8659 -0.0170 -0.4999
vn -0.0000 -0.1137 -0.9935
vn -0.8472 -0.2073 0.4891
vn 0.6173 0.6987 -0.3617
vn 0.8001 -0.3827 0.4619
vn -0.0000 -1.0000 -0.0000
vn 0.8318 0.2782 0.4803
vn -0.8310 0.2814 0.4798
vn -0.8301 0.2772 -0.4839
vn -0.0000 0.2774 -0.9607
vn 0.8285 0.2782 -0.4859
vn -0.0000 0.2816 0.9595
vn -0.0000 0.6977 -0.7164
vn 0.9873 -0.1588 -0.0000
vn -0.7012 -0.0984 -0.7061
vn -0.7071 0.0028 -0.7071
vn -0.7071 0.0024 0.7071
vn 0.8730 -0.4877 -0.0000
vn 0.9890 0.1476 -0.0000
vn -0.7051 0.0748 -0.7052
vn -0.7051 0.0746 0.7052
vn 0.0430 0.9991 -0.0000
vn -0.6518 0.3606 -0.6672
vn -0.6566 0.3440 0.6712
vn 0.9975 -0.0701 -0.0000
vn -0.7012 -0.0987 0.7061
vn 0.8491 0.5282 -0.0000
vn -0.6942 -0.1554 -0.7028
vn -0.6942 -0.1557 0.7028
vn -0.0228 0.9997 -0.0000
vn -0.6408 -0.4029 -0.6535
vn -0.6343 -0.4219 0.6477
vn 0.9973 0.0734 -0.0000
vn 0.7251 -0.1212 -0.6779
vn -0.0256 0.2471 0.9686
vn -0.6885 -0.1210 -0.7151
vn -0.0226 0.5628 0.8263
vn 0.7209 -0.2096 -0.6606
vn -0.6847 -0.2145 -0.6966
vn 0.0006 0.9940 -0.1094
vn 0.6774 -0.4241 -0.6011
vn -0.6396 -0.4413 -0.6295
vn -0.0259 0.1048 0.9942
vn -0.7217 -0.1212 0.6815
vn 0.0211 0.0769 -0.9968
vn 0.6920 -0.1205 0.7118
vn 0.0207 0.3072 -0.9514
vn -0.7218 -0.0995 0.6849
vn 0.6919 -0.0868 0.7168
vn -0.0001 0.9940 0.1094
vn -0.7140 -0.2205 0.6645
vn 0.6830 -0.2371 0.6909
vn 0.0211 0.1045 -0.9943
vn -0.6153 0.7010 -0.3605
vn 0.8616 -0.0583 -0.5042
vn -0.8630 0.0257 -0.5045
vn -0.8639 -0.0696 -0.4988
vn 0.8659 -0.0178 -0.4999
vn 0.6188 0.6975 -0.3614
vn 0.8318 0.2781 0.4803
vn -0.8277 0.2815 -0.4854
vn -0.0000 0.2775 -0.9607
vn 0.8308 0.2739 -0.4844
vn -0.7038 0.0748 -0.7064
vn -0.7038 0.0746 0.7064
vn -0.6520 0.3607 -0.6669
vn -0.6568 0.3440 0.6710
vn -0.6962 -0.1552 -0.7008
vn -0.6962 -0.1555 0.7008
vn -0.6425 -0.4034 -0.6515
vn -0.6362 -0.4224 0.6457
vn 0.7184 -0.2098 -0.6633
vn -0.6820 -0.2147 -0.6992
vn 0.6777 -0.4240 -0.6008
vn -0.6399 -0.4412 -0.6292
vn -0.7216 -0.0996 0.6851
vn 0.6920 -0.0868 0.7167
vn -0.7141 -0.2205 0.6644
vn 0.6831 -0.2371 0.6908
vt 0.587791 0.159407
vt 0.591820 0.155124
vt 0.591829 0.159407
vt 0.599857 0.148010
vt 0.599537 0.116014
vt 0.591820 0.155124
vt 0.585056 0.155124
vt 0.598517 0.155157
vt 0.595831 0.159407
vt 0.591783 0.116007
vt 0.584023 0.116007
vt 0.583689 0.147945
vt 0.584023 0.116007
vt 0.591801 0.147945
vt 0.591783 0.116007
vt 0.585056 0.155124
vt 0.583689 0.147945
vt 0.585170 0.075582
vt 0.591780 0.075582
vt 0.591780 0.075582
vt 0.598390 0.075582
vt 0.598391 0.075582
vt 0.591780 0.047362
vt 0.590361 0.029831
vt 0.587266 0.047362
vt 0.596294 0.047362
vt 0.593200 0.029831
vt 0.596295 0.047362
vt 0.591780 0.029831
vt 0.591780 0.029831
vt 0.598517 0.155157
vt 0.591801 0.147945
vt 0.232294 0.136543
vt 0.231990 0.103156
vt 0.232203 0.103156
vt 0.232097 0.070973
vt 0.232097 0.103027
vt 0.232203 0.103165
vt 0.232097 0.103159
vt 0.232302 0.168322
vt 0.231899 0.136543
vt 0.232294 0.127789
vt 0.231990 0.103165
vt 0.232097 0.136719
vt 0.196485 0.190054
vt 0.196797 0.190054
vt 0.196641 0.190037
vt 0.232074 0.168520
vt 0.232302 0.153463
vt 0.231899 0.127789
vt 0.196485 0.191329
vt 0.196797 0.191329
vt 0.196641 0.191338
vt 0.232097 0.127659
vt 0.231845 0.153463
vt 0.232370 0.102431
vt 0.232261 0.102759
vt 0.232677 0.135653
vt 0.232267 0.102749
vt 0.233709 0.166088
vt 0.232687 0.135635
vt 0.197766 0.190248
vt 0.197758 0.190246
vt 0.197917 0.190290
vt 0.232878 0.135216
vt 0.233721 0.166068
vt 0.231825 0.102431
vt 0.231933 0.102759
vt 0.231801 0.135635
vt 0.231929 0.102749
vt 0.231104 0.179470
vt 0.231809 0.135653
vt 0.231609 0.135216
vt 0.195973 0.189100
vt 0.195979 0.189098
vt 0.195821 0.189142
vt 0.231095 0.179450
vt 0.231845 0.168322
vt 0.232074 0.153358
vt 0.233943 0.165576
vt 0.230872 0.178958
s 0
usemtl Texture_Map
f 33/1/1 6/2/1 31/3/1
f 42/4/2 7/5/2 8/5/2
f 35/1/3 3/6/3 4/7/3
f 37/3/4 2/8/4 3/6/4
f 33/1/5 31/3/5 39/9/5
f 40/4/6 12/10/6 7/5/6
f 11/11/7 36/12/7 10/13/7
f 38/14/8 8/5/8 9/15/8
f 35/1/9 5/16/9 33/1/9
f 12/10/10 34/17/10 11/11/10
f 10/13/11 38/14/11 9/15/11
f 11/11/12 16/18/12 17/18/12
f 8/5/13 15/19/13 9/15/13
f 12/10/14 17/18/14 18/20/14
f 10/13/15 15/19/15 16/18/15
f 7/5/16 14/21/16 8/5/16
f 12/10/17 13/22/17 7/5/17
f 25/23/18 22/24/18 26/25/18
f 28/26/19 19/27/19 20/27/19
f 27/28/20 24/29/20 19/27/20
f 26/25/21 23/24/21 30/25/21
f 25/23/22 20/27/22 21/30/22
f 18/20/23 30/25/23 29/23/23
f 14/21/24 25/23/24 15/19/24
f 17/18/25 26/25/25 30/25/25
f 18/20/26 27/28/26 13/22/26
f 13/22/27 28/26/27 14/21/27
f 16/18/28 25/23/28 26/25/28
f 31/3/29 1/31/29 39/9/29
f 30/25/30 24/29/30 29/23/30
f 22/24/31 21/30/31 19/27/31
f 5/16/32 32/32/32 6/2/32
f 4/7/33 38/14/33 36/12/33
f 3/6/34 42/4/34 38/14/34
f 2/8/35 40/4/35 42/4/35
f 6/2/36 40/4/36 1/31/36
f 4/7/37 34/17/37 5/16/37
f 41/9/38 1/31/38 2/8/38
f 48/33/39 47/34/39 45/35/39
f 44/36/40 54/37/40 43/38/40
f 44/36/41 46/39/41 45/35/41
f 44/36/42 47/34/42 46/39/42
f 51/40/43 50/41/43 48/33/43
f 56/42/44 55/43/44 43/38/44
f 49/44/45 45/35/45 46/39/45
f 47/34/46 49/44/46 46/39/46
f 53/45/47 51/46/47 52/47/47
f 52/48/48 48/33/48 49/44/48
f 50/41/49 52/48/49 49/44/49
f 44/36/50 45/35/50 47/34/50
f 44/36/51 55/43/51 54/37/51
f 59/49/52 58/50/52 56/42/52
f 54/37/53 56/42/53 43/38/53
f 58/50/54 54/37/54 55/43/54
f 61/51/55 59/52/55 60/53/55
f 57/54/56 59/49/56 56/42/56
f 61/55/57 57/54/57 58/50/57
f 44/36/58 43/38/58 55/43/58
f 44/36/59 63/56/59 62/57/59
f 65/58/60 64/59/60 62/57/60
f 44/36/61 64/59/61 63/56/61
f 68/60/62 67/61/62 65/58/62
f 63/56/63 65/58/63 62/57/63
f 67/61/64 63/56/64 64/59/64
f 70/62/65 68/63/65 69/64/65
f 66/65/66 68/60/66 65/58/66
f 70/66/67 66/65/67 67/61/67
f 44/36/68 62/57/68 64/59/68
f 44/36/69 72/67/69 71/68/69
f 71/68/70 76/69/70 73/70/70
f 44/36/71 73/70/71 72/67/71
f 77/71/72 76/69/72 74/72/72
f 75/73/73 71/68/73 72/67/73
f 73/70/74 75/73/74 72/67/74
f 79/74/75 77/75/75 78/76/75
f 75/73/76 77/71/76 74/72/76
f 79/77/77 75/73/77 76/69/77
f 44/36/78 71/68/78 73/70/78
f 33/1/1 5/16/1 6/2/1
f 42/4/2 40/4/2 7/5/2
f 35/1/3 37/3/3 3/6/3
f 37/3/79 41/9/79 2/8/79
f 39/9/5 41/9/5 35/1/5
f 41/9/5 37/3/5 35/1/5
f 35/1/5 33/1/5 39/9/5
f 40/4/80 32/32/80 12/10/80
f 11/11/7 34/17/7 36/12/7
f 38/14/81 42/4/81 8/5/81
f 35/1/9 4/7/9 5/16/9
f 12/10/10 32/32/10 34/17/10
f 10/13/11 36/12/11 38/14/11
f 11/11/12 10/13/12 16/18/12
f 8/5/82 14/21/82 15/19/82
f 12/10/14 11/11/14 17/18/14
f 10/13/15 9/15/15 15/19/15
f 7/5/16 13/22/16 14/21/16
f 12/10/83 18/20/83 13/22/83
f 25/23/18 21/30/18 22/24/18
f 28/26/19 27/28/19 19/27/19
f 27/28/20 29/23/20 24/29/20
f 26/25/21 22/24/21 23/24/21
f 25/23/22 28/26/22 20/27/22
f 18/20/23 17/18/23 30/25/23
f 14/21/24 28/26/24 25/23/24
f 17/18/25 16/18/25 26/25/25
f 18/20/26 29/23/26 27/28/26
f 13/22/27 27/28/27 28/26/27
f 16/18/28 15/19/28 25/23/28
f 31/3/84 6/2/84 1/31/84
f 30/25/30 23/24/30 24/29/30
f 21/30/31 20/27/31 19/27/31
f 19/27/31 24/29/31 23/24/31
f 23/24/31 22/24/31 19/27/31
f 5/16/85 34/17/85 32/32/85
f 4/7/33 3/6/33 38/14/33
f 3/6/86 2/8/86 42/4/86
f 2/8/87 1/31/87 40/4/87
f 6/2/88 32/32/88 40/4/88
f 4/7/37 36/12/37 34/17/37
f 41/9/38 39/9/38 1/31/38
f 48/33/39 50/41/39 47/34/39
f 51/40/43 53/78/43 50/41/43
f 56/42/44 58/50/44 55/43/44
f 49/44/89 48/33/89 45/35/89
f 47/34/90 50/41/90 49/44/90
f 52/48/91 51/40/91 48/33/91
f 50/41/92 53/78/92 52/48/92
f 59/49/52 61/55/52 58/50/52
f 54/37/93 57/54/93 56/42/93
f 58/50/94 57/54/94 54/37/94
f 57/54/95 60/79/95 59/49/95
f 61/55/96 60/79/96 57/54/96
f 65/58/60 67/61/60 64/59/60
f 68/60/62 70/66/62 67/61/62
f 63/56/97 66/65/97 65/58/97
f 67/61/98 66/65/98 63/56/98
f 66/65/99 69/80/99 68/60/99
f 70/66/100 69/80/100 66/65/100
f 71/68/70 74/72/70 76/69/70
f 77/71/72 79/77/72 76/69/72
f 75/73/101 74/72/101 71/68/101
f 73/70/102 76/69/102 75/73/102
f 75/73/103 78/81/103 77/71/103
f 79/77/104 78/81/104 75/73/104
