# Blender 4.4.0
# www.blender.org
mtllib Crop_Bean_02.mtl
o Crop_Bean_02
v 0.000890 -0.003669 0.093114
v 0.003008 -0.000000 0.093106
v 0.000890 0.003669 0.093114
v -0.003347 0.003669 0.093130
v -0.005466 -0.000000 0.093138
v -0.003347 -0.003669 0.093130
v 0.002901 0.006395 0.031957
v -0.004427 0.006395 0.031048
v -0.008092 -0.000000 0.030594
v -0.004427 -0.006395 0.031048
v 0.002901 -0.006395 0.031957
v 0.006565 -0.000000 0.032411
v 0.004016 -0.002532 0.100163
v 0.005323 -0.000000 0.099508
v 0.004016 0.002532 0.100163
v 0.001402 0.002532 0.101473
v 0.000095 -0.000000 0.102128
v 0.001402 -0.002532 0.101473
v 0.011478 0.006395 -0.023097
v 0.004150 0.006395 -0.024005
v 0.000486 0.000000 -0.024459
v 0.004150 -0.006395 -0.024005
v 0.011478 -0.006395 -0.023097
v 0.015142 0.000000 -0.022643
v -0.006317 0.002103 -0.111096
v -0.008635 0.002103 -0.110373
v -0.009794 0.000000 -0.110012
v -0.008635 -0.002103 -0.110373
v -0.006317 -0.002103 -0.111096
v -0.005158 0.000000 -0.111457
v -0.004592 -0.004868 -0.090665
v 0.002482 -0.004868 -0.091649
v -0.004592 0.004868 -0.090665
v -0.008129 0.000000 -0.090173
v 0.006019 0.000000 -0.092141
v 0.002482 0.004868 -0.091649
vn 0.8650 0.4992 0.0507
vn 0.0002 -0.9990 0.0445
vn 0.0028 0.9997 -0.0226
vn 0.8650 -0.4992 0.0507
vn -0.8654 -0.4997 0.0370
vn -0.0000 1.0000 -0.0000
vn -0.8682 0.4949 0.0365
vn 0.8285 -0.4790 -0.2902
vn 0.0005 -0.9909 0.1348
vn -0.7231 0.4973 0.4794
vn 0.8158 0.4974 -0.2950
vn -0.7631 -0.4416 0.4720
vn 0.0654 0.9893 0.1306
vn 0.8558 0.4998 0.1333
vn -0.0000 -1.0000 -0.0000
vn -0.8558 0.4998 -0.1333
vn 0.8558 -0.4998 0.1333
vn -0.8558 -0.4998 -0.1333
vn 0.0028 -0.9997 -0.0226
vn -0.8662 0.4890 0.1024
vn 0.8655 -0.4878 -0.1136
vn -0.8662 -0.4890 0.1024
vn 0.8655 0.4878 -0.1136
vn -0.0184 -0.9910 -0.1326
vn -0.8681 0.4910 0.0729
vn 0.7159 -0.5620 -0.4142
vn -0.8023 -0.5912 0.0816
vn -0.0407 0.9906 -0.1306
vn 0.7643 0.4928 -0.4159
vn -0.2977 -0.0000 -0.9547
vn 0.4481 -0.0000 0.8940
vn 0.0002 0.9990 0.0445
vn 0.8650 0.4993 0.0507
vn -0.0054 -0.9990 0.0440
vn -0.0031 0.9997 -0.0225
vn 0.8650 -0.4993 0.0507
vn -0.8682 -0.4949 0.0365
vn -0.8654 0.4997 0.0370
vn 0.8158 -0.4974 -0.2950
vn 0.0654 -0.9893 0.1306
vn -0.7631 0.4416 0.4720
vn 0.8285 0.4790 -0.2902
vn -0.7231 -0.4973 0.4794
vn 0.0005 0.9909 0.1348
vn -0.0031 -0.9997 -0.0225
vn -0.7995 0.5915 0.1048
vn 0.7977 -0.5915 -0.1179
vn -0.7995 -0.5915 0.1048
vn 0.7977 0.5915 -0.1179
vn -0.0407 -0.9906 -0.1306
vn -0.8023 0.5912 0.0816
vn 0.7643 -0.4928 -0.4159
vn -0.8681 -0.4910 0.0729
vn -0.0184 0.9910 -0.1326
vn 0.7159 0.5620 -0.4142
vn -0.0054 0.9990 0.0440
vt 0.193684 0.180604
vt 0.193874 0.167239
vt 0.193875 0.190530
vt 0.193684 0.153875
vt 0.193875 0.143947
vt 0.193684 0.153875
vt 0.194261 0.184969
vt 0.194050 0.190530
vt 0.194047 0.190530
vt 0.193684 0.167239
vt 0.193878 0.143947
vt 0.193878 0.190530
vt 0.193880 0.167239
vt 0.193684 0.167239
vt 0.193662 0.158016
vt 0.193658 0.158016
vt 0.193684 0.180604
vt 0.193656 0.167239
vt 0.193658 0.176462
vt 0.193662 0.176462
vt 0.193664 0.167239
vt 0.194050 0.143947
vt 0.194051 0.167239
vt 0.194047 0.143947
vt 0.194261 0.149509
vt 0.194258 0.184969
vt 0.194263 0.167239
vt 0.194046 0.167239
vt 0.194258 0.149509
vt 0.194322 0.159580
vt 0.194257 0.167239
vt 0.194320 0.174899
vt 0.194319 0.167239
vt 0.194323 0.167239
vt 0.194320 0.159580
vt 0.194322 0.174899
s 0
usemtl Texture_Map
f 3/1/1 12/2/1 7/3/1
f 6/4/2 11/5/2 1/6/2
f 36/7/3 20/8/3 19/9/3
f 12/2/4 1/6/4 11/5/4
f 5/10/5 10/11/5 6/4/5
f 7/3/6 20/8/6 8/12/6
f 5/10/7 8/12/7 9/13/7
f 2/14/8 13/15/8 1/6/8
f 1/6/9 18/16/9 6/4/9
f 4/17/10 17/18/10 16/19/10
f 2/14/11 15/20/11 14/21/11
f 6/4/12 17/18/12 5/10/12
f 3/1/13 16/19/13 15/20/13
f 12/2/14 19/9/14 7/3/14
f 22/22/15 11/5/15 10/11/15
f 8/12/16 21/23/16 9/13/16
f 23/24/17 12/2/17 11/5/17
f 21/23/18 10/11/18 9/13/18
f 22/22/19 32/25/19 23/24/19
f 33/26/20 21/23/20 20/8/20
f 23/24/21 35/27/21 24/28/21
f 21/23/22 31/29/22 22/22/22
f 35/27/23 19/9/23 24/28/23
f 31/29/24 29/30/24 32/25/24
f 34/31/25 26/32/25 27/33/25
f 32/25/26 30/34/26 35/27/26
f 34/31/27 28/35/27 31/29/27
f 33/26/28 25/36/28 26/32/28
f 36/7/29 30/34/29 25/36/29
f 25/36/30 29/30/30 27/33/30
f 13/15/31 14/21/31 16/19/31
f 7/3/32 4/17/32 3/1/32
f 3/1/33 2/14/33 12/2/33
f 6/4/34 10/11/34 11/5/34
f 36/7/35 33/26/35 20/8/35
f 12/2/36 2/14/36 1/6/36
f 5/10/37 9/13/37 10/11/37
f 7/3/6 19/9/6 20/8/6
f 5/10/38 4/17/38 8/12/38
f 2/14/39 14/21/39 13/15/39
f 1/6/40 13/15/40 18/16/40
f 4/17/41 5/10/41 17/18/41
f 2/14/42 3/1/42 15/20/42
f 6/4/43 18/16/43 17/18/43
f 3/1/44 4/17/44 16/19/44
f 12/2/14 24/28/14 19/9/14
f 22/22/15 23/24/15 11/5/15
f 8/12/16 20/8/16 21/23/16
f 23/24/17 24/28/17 12/2/17
f 21/23/18 22/22/18 10/11/18
f 22/22/45 31/29/45 32/25/45
f 33/26/46 34/31/46 21/23/46
f 23/24/47 32/25/47 35/27/47
f 21/23/48 34/31/48 31/29/48
f 35/27/49 36/7/49 19/9/49
f 31/29/50 28/35/50 29/30/50
f 34/31/51 33/26/51 26/32/51
f 32/25/52 29/30/52 30/34/52
f 34/31/53 27/33/53 28/35/53
f 33/26/54 36/7/54 25/36/54
f 36/7/55 35/27/55 30/34/55
f 27/33/30 26/32/30 25/36/30
f 25/36/30 30/34/30 29/30/30
f 29/30/30 28/35/30 27/33/30
f 14/21/31 15/20/31 16/19/31
f 16/19/31 17/18/31 18/16/31
f 18/16/31 13/15/31 16/19/31
f 7/3/56 8/12/56 4/17/56
