# Blender 4.4.0
# www.blender.org
mtllib Crop_Potato_02.mtl
o Crop_Potato_02
v -0.043062 -0.012468 0.073220
v -0.038155 -0.033439 -0.071330
v -0.038731 0.018880 -0.064358
v 0.042733 -0.021154 0.082197
v 0.019611 -0.040199 -0.073096
v 0.025802 0.011579 -0.047781
v -0.049710 -0.035989 0.000331
v -0.034027 0.049581 0.009570
v -0.008800 -0.045139 -0.086337
v 0.023330 -0.023057 -0.079424
v 0.038980 -0.042777 -0.008657
v 0.048722 0.009560 0.100239
v 0.000111 -0.029704 0.097959
v -0.005765 -0.057885 -0.004930
v -0.002915 0.054553 0.008992
v 0.016978 0.006553 0.116091
v 0.000033 0.029698 0.116269
v -0.044944 -0.007154 -0.081141
v -0.008381 0.014301 -0.077775
v 0.007954 -0.020325 -0.094305
v -0.008753 -0.035822 -0.093057
v -0.053575 0.005700 -0.037596
v -0.055798 -0.003621 0.005230
v -0.060859 0.021612 0.020915
v 0.054383 -0.014981 -0.014383
v 0.036303 0.026138 -0.009030
v 0.060605 -0.008824 0.013700
v 0.049196 -0.023400 -0.002785
v 0.055582 0.003536 0.019531
v 0.020909 0.052724 0.070835
v 0.046096 0.021931 0.074656
v -0.048609 0.028235 0.099902
v -0.002981 0.066200 0.098754
v -0.038476 0.057536 0.057671
vn -0.9527 -0.2852 -0.1047
vn -0.9499 -0.2786 0.1417
vn 0.6269 0.5562 -0.5456
vn 0.6044 -0.3880 -0.6958
vn -0.5436 -0.4892 -0.6820
vn -0.8871 0.4506 0.0998
vn 0.8778 -0.4768 0.0464
vn 0.4054 0.2901 0.8669
vn -0.5721 -0.5028 0.6480
vn -0.4535 -0.8851 -0.1046
vn 0.2405 -0.9575 -0.1589
vn 0.2753 -0.9311 0.2393
vn -0.3929 -0.8641 0.3147
vn 0.4008 0.8166 -0.4154
vn -0.0479 0.9073 -0.4179
vn -0.3040 0.3916 0.8685
vn 0.9362 -0.2949 0.1912
vn 0.5229 0.8338 -0.1768
vn 0.8623 0.4551 -0.2219
vn -0.3657 -0.2746 0.8893
vn 0.3845 -0.5497 0.7416
vn -0.0831 0.2912 -0.9530
vn -0.2603 0.5663 -0.7820
vn -0.9259 0.3762 0.0338
vn -0.8721 0.3947 -0.2894
vn 0.8151 -0.5767 -0.0542
vn 0.8308 0.3419 -0.4391
vn 0.7034 0.6497 0.2883
vn 0.7764 0.6257 -0.0752
vn 0.9437 0.3253 0.0605
vn -0.5916 0.7219 0.3589
vn -0.0927 0.9874 -0.1282
vn -0.9578 -0.2370 -0.1629
vn -0.9813 -0.1712 -0.0882
vn -0.9665 -0.2052 0.1544
vn -0.9559 -0.2407 0.1684
vn 0.5850 0.5239 -0.6191
vn 0.4323 -0.5289 -0.7303
vn 0.4335 -0.5263 -0.7315
vn -0.5627 -0.4127 -0.7162
vn -0.7450 0.6436 -0.1753
vn 0.8188 -0.5086 -0.2664
vn 0.8681 -0.3264 -0.3739
vn 0.4355 0.4184 0.7970
vn -0.4218 -0.8981 -0.1249
vn 0.3074 -0.9426 -0.1301
vn 0.3284 -0.9218 0.2058
vn -0.4817 -0.8378 0.2570
vn 0.4190 0.8133 -0.4037
vn -0.1533 0.9160 -0.3707
vn 0.8717 -0.4836 0.0791
vn 0.7429 -0.6653 0.0741
vn 0.3789 0.9178 -0.1188
vn -0.2984 -0.2815 0.9120
vn 0.4207 -0.5191 0.7440
vn -0.3254 0.2780 -0.9038
vn -0.6292 0.3154 -0.7104
vn -0.8132 0.5539 -0.1783
vn 0.8639 0.4167 -0.2828
vn 0.8277 0.4133 -0.3796
vn 0.7390 0.6331 0.2303
vn 0.7906 0.6102 -0.0508
vn 0.9322 0.3598 0.0403
vn -0.1585 0.9717 -0.1754
vt 0.231544 0.880724
vt 0.231109 0.867017
vt 0.231207 0.838988
vt 0.231972 0.870785
vt 0.232652 0.861351
vt 0.232129 0.897692
vt 0.231142 0.889897
vt 0.231126 0.850059
vt 0.230977 0.852972
vt 0.200153 0.831590
vt 0.200167 0.830842
vt 0.200173 0.826148
vt 0.230990 0.836446
vt 0.231057 0.826511
vt 0.232496 0.936000
vt 0.232918 0.904755
vt 0.231776 0.858671
vt 0.231892 0.849693
vt 0.231833 0.829030
vt 0.232922 0.884840
vt 0.233082 0.906314
vt 0.233080 0.881634
vt 0.200336 0.829022
vt 0.200338 0.844885
vt 0.200312 0.833741
vt 0.231870 0.812919
vt 0.231923 0.836268
vt 0.231189 0.831778
vt 0.232741 0.852088
vt 0.232899 0.842971
vt 0.231442 0.886994
vt 0.232010 0.932819
vt 0.231829 0.902518
vt 0.231276 0.894778
vt 0.232907 0.945240
vt 0.232057 0.865237
vt 0.232628 0.930868
vt 0.200256 0.834739
vt 0.200234 0.844311
vt 0.200261 0.838123
vt 0.200166 0.835196
vt 0.200182 0.842324
vt 0.200169 0.841071
vt 0.200248 0.836164
vt 0.200252 0.850730
vt 0.200207 0.838715
vt 0.232115 0.878416
vt 0.232666 0.898033
vt 0.200161 0.824796
vt 0.200154 0.827347
vt 0.232015 0.927517
vt 0.200263 0.843072
s 0
usemtl Texture_Map
f 22/1/1 18/2/1 2/3/1
f 23/4/2 1/5/2 24/6/2
f 19/7/3 10/8/3 20/9/3
f 20/10/4 10/11/4 5/12/4
f 2/3/5 21/13/5 9/14/5
f 34/15/6 24/6/6 32/16/6
f 25/17/7 28/18/7 11/19/7
f 12/20/8 17/21/8 16/22/8
f 13/23/9 32/24/9 1/25/9
f 2/3/10 14/26/10 7/27/10
f 5/28/11 14/26/11 9/14/11
f 14/26/12 4/29/12 13/30/12
f 14/26/13 1/5/13 7/27/13
f 6/31/14 15/32/14 26/33/14
f 3/34/15 15/32/15 19/7/15
f 32/16/16 17/21/16 33/35/16
f 27/36/17 12/20/17 4/29/17
f 15/32/18 30/37/18 26/33/18
f 27/38/19 26/39/19 29/40/19
f 17/21/20 13/30/20 16/22/20
f 4/29/21 16/22/21 13/30/21
f 19/7/22 21/13/22 18/2/22
f 18/41/23 3/42/23 19/43/23
f 23/44/24 8/45/24 22/46/24
f 22/1/25 3/34/25 18/2/25
f 25/17/26 27/36/26 28/18/26
f 6/31/27 25/17/27 10/8/27
f 12/20/28 30/37/28 33/35/28
f 29/47/29 30/37/29 31/48/29
f 27/36/30 31/48/30 12/20/30
f 32/16/31 33/35/31 34/15/31
f 15/32/32 34/15/32 33/35/32
f 2/3/33 7/27/33 22/1/33
f 7/27/34 23/4/34 22/1/34
f 7/27/35 1/5/35 23/4/35
f 1/5/36 32/16/36 24/6/36
f 19/7/37 6/31/37 10/8/37
f 5/12/38 9/49/38 21/50/38
f 21/50/39 20/10/39 5/12/39
f 2/3/40 18/2/40 21/13/40
f 34/15/41 8/51/41 24/6/41
f 11/19/42 5/28/42 25/17/42
f 5/28/43 10/8/43 25/17/43
f 12/20/44 33/35/44 17/21/44
f 2/3/45 9/14/45 14/26/45
f 5/28/46 11/19/46 14/26/46
f 14/26/47 11/19/47 4/29/47
f 14/26/48 13/30/48 1/5/48
f 6/31/49 19/7/49 15/32/49
f 3/34/50 8/51/50 15/32/50
f 4/29/51 11/19/51 28/18/51
f 28/18/52 27/36/52 4/29/52
f 15/32/53 33/35/53 30/37/53
f 17/21/54 32/16/54 13/30/54
f 4/29/55 12/20/55 16/22/55
f 19/7/56 20/9/56 21/13/56
f 23/44/57 24/52/57 8/45/57
f 22/1/58 8/51/58 3/34/58
f 25/17/59 26/33/59 27/36/59
f 6/31/60 26/33/60 25/17/60
f 12/20/61 31/48/61 30/37/61
f 29/47/62 26/33/62 30/37/62
f 27/36/63 29/47/63 31/48/63
f 15/32/64 8/51/64 34/15/64
