# Blender 4.4.0
# www.blender.org
mtllib Crop_Potato_STAGE_2_01.mtl
o Crop_Potato_STAGE_2_01
v -0.013997 0.000281 -0.000000
v -0.000000 0.000000 0.014000
v 0.013997 -0.000281 0.000000
v 0.000000 -0.000000 -0.014000
v -0.019150 0.221137 -0.000000
v -0.005150 0.221132 0.014000
v 0.008850 0.221128 0.000000
v -0.005150 0.221132 -0.014000
v -0.011807 0.354958 -0.000000
v 0.002191 0.355134 0.014000
v 0.016190 0.355310 0.000000
v 0.002192 0.355134 -0.014000
v -0.022100 0.478086 -0.000000
v -0.008143 0.479114 0.014000
v 0.005814 0.480142 0.000000
v -0.008143 0.479114 -0.014000
v 0.004908 0.225585 0.000000
v -0.005150 0.221132 -0.011118
v -0.015208 0.216679 0.000000
v -0.005150 0.221132 0.011118
v -0.063175 0.353750 0.000000
v -0.071427 0.352841 -0.007672
v -0.080691 0.354650 0.000000
v -0.072848 0.355642 0.007598
v -0.054359 0.351441 0.003356
v -0.075472 0.351046 -0.014664
v -0.089594 0.345563 0.058665
v -0.123159 0.346340 0.024071
v -0.063930 0.354380 -0.004781
v -0.072822 0.348840 0.051595
v -0.119506 0.348729 0.010247
v -0.111397 0.351895 0.052949
v -0.055089 0.351852 0.026123
v -0.097517 0.351767 -0.010543
v -0.078827 0.358004 0.010637
v -0.077035 0.343817 0.005221
v -0.052134 0.343828 -0.007279
v -0.066027 0.347514 -0.000480
v -0.079669 0.336022 -0.074054
v -0.114135 0.341981 -0.030251
v -0.057896 0.341878 -0.057337
v -0.090494 0.343895 -0.052604
v -0.097789 0.344731 -0.004469
v -0.047409 0.344816 -0.029174
v -0.074198 0.350046 -0.020193
v -0.050439 0.338736 -0.002952
v -0.074174 0.338748 0.008551
v -0.059987 0.342421 0.002414
v -0.041972 0.331132 0.068303
v -0.017310 0.338728 0.027482
v -0.070692 0.336644 0.058964
v -0.037987 0.337607 0.055630
v -0.028306 0.339774 0.008000
v -0.079937 0.339786 0.030288
v -0.052742 0.344943 0.022488
v 0.009365 0.318855 0.003454
v 0.019265 0.317126 0.019946
v 0.017084 0.318094 0.003639
v 0.004674 0.318606 0.018467
v 0.003187 0.319102 0.010849
v -0.013183 0.197735 -0.004096
v -0.023621 0.202907 -0.004217
v -0.012287 0.197654 0.004797
v -0.017631 0.200617 0.010661
v -0.018903 0.200400 -0.008621
v -0.111623 0.350221 0.053989
v -0.078824 0.356974 0.010637
v -0.113311 0.338881 -0.046040
v -0.074194 0.349019 -0.020184
v -0.014867 0.333398 0.040294
v -0.052751 0.343916 0.022469
v 0.003020 0.317926 0.010787
v 0.027262 0.316728 0.011270
v -0.013348 0.196693 0.000726
v -0.029243 0.206352 0.012040
v 0.003151 0.417623 -0.006036
v 0.000756 0.412817 0.010110
v 0.069912 0.371601 0.013818
v 0.008292 0.416159 0.001601
v 0.052958 0.399717 -0.031609
v 0.049051 0.383302 0.028483
v 0.060835 0.389348 -0.001736
v 0.025956 0.413411 -0.025919
v 0.022976 0.398367 0.028026
v 0.030024 0.409046 0.002271
v 0.022461 0.397061 0.006286
v -0.001960 0.410083 0.003809
v 0.012552 0.405818 0.005671
v -0.021472 0.398133 0.072895
v 0.029119 0.381948 0.054990
v -0.025636 0.411181 0.048403
v 0.001196 0.397347 0.061725
v 0.032280 0.388778 0.025052
v -0.016950 0.415018 0.019690
v 0.009388 0.406146 0.026949
v -0.004646 0.406828 -0.003015
v 0.020114 0.394256 -0.004014
v 0.008229 0.403748 -0.003063
v 0.023603 0.394989 -0.076703
v -0.019530 0.419475 -0.050589
v 0.035986 0.390972 -0.051843
v 0.009441 0.408471 -0.060674
v -0.016612 0.415965 -0.020058
v 0.033283 0.390496 -0.021725
v 0.010896 0.408361 -0.023908
v 0.008023 0.415218 0.001329
v 0.064572 0.390996 -0.025376
v 0.029613 0.408151 0.001998
v 0.008348 0.387192 0.069049
v 0.008929 0.405251 0.026767
v -0.012693 0.416774 -0.064660
v 0.010432 0.407460 -0.024037
v 0.004159 0.480831 0.006829
v -0.017110 0.481906 -0.010873
v -0.035070 0.466710 0.069028
v -0.067029 0.467241 0.030969
v -0.018388 0.472792 0.062278
v -0.064526 0.470235 0.020614
v -0.058838 0.472434 0.062655
v -0.000245 0.480924 0.036225
v -0.042481 0.479335 -0.000603
v -0.024241 0.484499 0.020661
v 0.006203 0.477208 -0.010183
v -0.009806 0.475602 0.012528
v 0.062595 0.467141 0.019057
v 0.036811 0.464823 0.056858
v -0.000627 0.479453 0.000291
v 0.055079 0.472716 0.004453
v 0.017885 0.470149 0.054229
v 0.055332 0.472434 0.042633
v 0.028122 0.479452 -0.011336
v -0.004664 0.476992 0.034280
v 0.014872 0.483128 0.014028
v -0.018643 0.484832 -0.006980
v -0.003115 0.481323 0.003784
v 0.022080 0.491299 -0.051717
v 0.042085 0.484108 -0.042613
v -0.002912 0.496863 -0.050238
v 0.038833 0.480717 -0.020964
v 0.022535 0.494226 -0.040769
v -0.017979 0.493127 -0.024966
v 0.019466 0.480538 -0.000527
v 0.002786 0.493767 -0.013316
v -0.022105 0.473806 0.006732
v -0.002384 0.475624 -0.011252
v -0.071225 0.471614 -0.035809
v -0.039817 0.475108 -0.063941
v -0.013514 0.477494 -0.001142
v -0.066418 0.474075 -0.017286
v -0.021318 0.478837 -0.056307
v -0.065547 0.478758 -0.058546
v -0.043936 0.476542 0.003717
v -0.003770 0.480917 -0.032166
v -0.026243 0.483971 -0.016349
v -0.024804 0.487054 -0.004681
v 0.002960 0.465894 -0.006638
v -0.018969 0.481301 -0.092840
v -0.010148 0.480631 -0.005480
v 0.012274 0.460337 -0.082128
v -0.041924 0.504566 -0.060233
v 0.020189 0.457998 -0.067469
v -0.009692 0.484537 -0.077521
v -0.036878 0.503098 -0.025608
v 0.019768 0.461089 -0.028859
v -0.004568 0.487662 -0.031207
v -0.059827 0.470320 0.062771
v -0.024130 0.483486 0.020565
v 0.055296 0.470476 0.043538
v 0.014852 0.482091 0.013956
v 0.022236 0.493245 -0.040851
v 0.002711 0.492790 -0.013681
v -0.065487 0.476997 -0.059807
v -0.026239 0.482940 -0.016468
v -0.010267 0.483734 -0.077275
v -0.005188 0.486837 -0.031320
vn -0.7073 -0.0165 0.7068
vn 0.7073 0.0164 0.7068
vn 0.7073 0.0164 -0.7068
vn -0.7066 0.0388 -0.7066
vn -0.7066 0.0388 0.7066
vn 0.7066 -0.0387 0.7066
vn 0.7066 -0.0387 -0.7066
vn -0.7055 -0.0588 -0.7062
vn -0.7055 -0.0588 0.7062
vn 0.7055 0.0586 0.7062
vn 0.7056 0.0586 -0.7062
vn 0.6286 0.3339 0.7024
vn 0.6286 0.3339 -0.7024
vn -0.6423 -0.3048 -0.7032
vn -0.6423 -0.3049 0.7032
vn -0.0734 0.9973 -0.0000
vn 0.2565 0.9665 -0.0092
vn 0.0846 0.8122 0.5772
vn -0.8994 0.3119 0.3063
vn -0.2219 0.9746 -0.0301
vn 0.1217 0.9723 0.1997
vn -0.0461 0.9616 -0.2706
vn -0.0650 0.9708 0.2307
vn -0.2646 0.9436 -0.1990
vn 0.0313 0.9790 -0.2015
vn -0.2039 0.9787 0.0249
vn 0.2632 0.9646 0.0148
vn 0.0686 0.9706 -0.2306
vn 0.3594 0.8839 0.2992
vn -0.0064 0.9757 0.2188
vn 0.1792 0.9826 -0.0484
vn -0.2614 0.9649 -0.0269
vn 0.0969 0.9942 0.0477
vn 0.0972 0.9941 0.0483
vn 0.4369 0.8978 -0.0555
vn -0.2393 -0.9685 -0.0683
vn -0.0632 -0.8399 -0.5391
vn 0.4216 -0.9056 -0.0451
vn 0.1976 -0.9781 0.0660
vn -0.0933 -0.9791 -0.1808
vn 0.0768 -0.9685 0.2371
vn 0.2335 -0.9574 -0.1699
vn 0.0964 -0.9719 0.2149
vn -0.1066 -0.9841 0.1424
vn 0.1750 -0.9846 -0.0059
vn -0.2439 -0.9694 0.0270
vn -0.2710 -0.9477 0.1684
vn -0.1225 -0.9727 -0.1973
vn 0.1084 -0.9838 -0.1427
vn -0.1491 -0.9883 0.0311
vn 0.2442 -0.9696 -0.0158
vn -0.1114 -0.9875 0.1114
vn -0.0467 -0.9922 -0.1152
vn -0.5012 -0.8642 -0.0449
vn -0.4199 -0.8913 0.1710
vn 0.2162 0.9755 0.0414
vn 0.5438 0.8268 0.1436
vn 0.5352 0.7635 0.3614
vn 0.4629 0.8837 0.0700
vn 0.2687 0.8615 0.4308
vn 0.6058 0.7949 0.0338
vn 0.5089 0.7098 0.4871
vn 0.3143 0.9001 0.3018
vn 0.5995 0.7643 0.2376
vn 0.2787 0.9600 0.0267
vn 0.2922 0.9131 0.2844
vn 0.3525 0.9358 -0.0084
vn 0.5548 0.8318 -0.0195
vn 0.2764 0.9574 0.0836
vn 0.6170 0.7480 0.2445
vn -0.2831 -0.9511 -0.1233
vn -0.6125 -0.7385 -0.2820
vn -0.4503 -0.7919 -0.4125
vn -0.4672 -0.8780 -0.1042
vn -0.2258 -0.8759 -0.4264
vn -0.6518 -0.7468 -0.1320
vn -0.3611 -0.8471 -0.3899
vn -0.2934 -0.9319 -0.2133
vn -0.5714 -0.7850 -0.2394
vn -0.2726 -0.9594 -0.0726
vn -0.2290 -0.9541 -0.1929
vn -0.4868 -0.8675 0.1023
vn -0.5905 -0.8044 -0.0657
vn -0.3097 -0.9475 -0.0793
vn -0.6212 -0.7578 -0.1994
vn 0.1363 0.9905 0.0173
vn -0.0003 0.7434 0.6689
vn -0.8906 0.4256 0.1605
vn -0.3337 0.9427 -0.0041
vn -0.0354 0.9607 0.2752
vn -0.1101 0.9739 -0.1987
vn 0.5932 0.8050 0.0020
vn 0.4690 0.3634 0.8050
vn 0.0362 0.9518 0.3046
vn 0.2483 0.9686 -0.0107
vn -0.2951 0.9522 0.0783
vn -0.2504 0.8826 0.3978
vn 0.1950 0.9455 -0.2609
vn 0.3794 0.8794 0.2876
vn -0.0845 0.9918 0.0962
vn 0.0607 0.9175 0.3932
vn -0.6580 0.7496 0.0712
vn -0.0881 0.5781 -0.8112
vn 0.0047 0.9919 -0.1269
vn -0.2398 0.9601 0.1440
vn 0.2971 0.9426 0.1528
vn 0.4521 0.8145 0.3636
vn 0.3308 0.8626 -0.3826
vn 0.6819 0.7208 -0.1241
vn 0.4276 0.9037 -0.0240
vn 0.7194 0.6144 0.3240
vn -0.0776 -0.9964 0.0328
vn 0.0398 -0.7893 -0.6128
vn 0.6347 -0.7697 -0.0692
vn 0.3105 -0.9469 -0.0835
vn 0.0645 -0.9645 -0.2561
vn -0.0117 -0.9793 0.2023
vn -0.5369 -0.8425 -0.0453
vn -0.1522 -0.8161 -0.5575
vn -0.0422 -0.9587 -0.2811
vn -0.2314 -0.9727 -0.0199
vn 0.2588 -0.9599 -0.1079
vn 0.1579 -0.8488 -0.5046
vn -0.2040 -0.9631 0.1754
vn -0.4243 -0.8827 -0.2020
vn -0.3596 -0.8657 -0.3483
vn 0.0481 -0.9919 -0.1179
vn 0.0545 -0.9258 -0.3742
vn 0.5818 -0.8122 -0.0431
vn 0.0033 -0.9016 0.4325
vn -0.0197 -0.9948 0.1000
vn 0.2162 -0.9692 -0.1176
vn -0.2675 -0.9563 -0.1177
vn -0.3977 -0.8719 -0.2857
vn -0.3787 -0.8585 0.3459
vn -0.6706 -0.6981 0.2508
vn -0.7195 -0.6928 0.0476
vn -0.4523 -0.8914 0.0281
vn -0.7264 -0.6234 -0.2892
vn -0.7073 -0.0165 -0.7068
vn -0.7070 -0.0165 0.7070
vn 0.7070 0.0165 0.7070
vn 0.7070 0.0165 -0.7070
vn -0.7068 0.0387 -0.7063
vn -0.7069 0.0387 0.7063
vn 0.7068 -0.0387 0.7063
vn 0.7069 -0.0387 -0.7063
vn -0.7048 -0.0589 -0.7070
vn -0.7048 -0.0589 0.7070
vn 0.7048 0.0588 0.7070
vn 0.7048 0.0588 -0.7070
vn 0.6220 0.3316 0.7093
vn 0.6225 0.3318 -0.7089
vn -0.6421 -0.3047 -0.7035
vn -0.6425 -0.3049 0.7030
vn 0.2680 0.9629 0.0326
vn -0.0663 0.5330 0.8435
vn -0.4776 0.8782 0.0256
vn -0.2205 0.9711 -0.0914
vn 0.0844 0.9749 0.2058
vn -0.0185 0.9634 -0.2674
vn -0.2116 0.9545 0.2103
vn -0.3152 0.8283 -0.4631
vn 0.0087 0.9401 -0.3407
vn 0.1394 0.9782 -0.1540
vn -0.1730 0.9799 -0.0990
vn 0.2202 0.9712 0.0913
vn 0.2479 0.9461 -0.2084
vn 0.4715 0.7164 0.5142
vn 0.0208 0.8877 0.4600
vn -0.1416 0.9780 0.1528
vn 0.1504 0.9773 0.1494
vn -0.2138 0.9714 -0.1031
vn 0.0962 0.9943 0.0459
vn 0.0973 0.9943 0.0440
vn 0.4432 0.8957 -0.0352
vn 0.4438 0.8954 -0.0362
vn 0.4458 0.8944 -0.0368
vn -0.2175 -0.9760 0.0106
vn 0.1986 -0.9801 -0.0024
vn -0.0465 -0.9811 -0.1880
vn 0.0111 -0.9733 0.2295
vn 0.0480 -0.9796 -0.1952
vn 0.0992 -0.9682 0.2296
vn 0.1217 -0.9728 0.1973
vn -0.1818 -0.9798 -0.0834
vn -0.0506 -0.9795 0.1950
vn -0.1426 -0.9549 -0.2604
vn -0.0833 -0.9256 -0.3692
vn 0.1757 -0.9800 0.0934
vn -0.0913 -0.9750 -0.2025
vn -0.0494 -0.9988 0.0003
vn -0.2149 -0.9365 0.2772
vn -0.5183 -0.8552 0.0020
vn -0.2697 -0.9393 -0.2122
vn -0.9718 0.1277 0.1980
vn 0.3066 0.9463 0.1023
vn 0.8106 0.5612 0.1673
vn 0.6419 0.6642 0.3832
vn 0.4424 0.7791 0.4441
vn 0.5462 0.8254 0.1425
vn 0.1671 0.8584 0.4851
vn 0.6567 0.7492 0.0861
vn 0.3370 0.6952 0.6349
vn 0.2394 0.8732 0.4245
vn 0.2612 0.9432 0.2051
vn 0.5156 0.7939 0.3223
vn 0.3179 0.9481 0.0054
vn 0.2268 0.9444 0.2380
vn 0.3840 0.8452 -0.3717
vn 0.5798 0.7989 -0.1597
vn 0.6183 0.7830 0.0679
vn 0.3517 0.9361 -0.0111
vn 0.5839 0.7649 0.2718
vn -0.3043 -0.9426 -0.1378
vn -0.5899 -0.7580 -0.2783
vn -0.5348 -0.8290 -0.1635
vn -0.2741 -0.8751 -0.3988
vn -0.5783 -0.8139 -0.0566
vn -0.3764 -0.8501 -0.3683
vn -0.4482 -0.8199 -0.3563
vn -0.3448 -0.9381 -0.0339
vn -0.3243 -0.9095 -0.2599
vn -0.4822 -0.8729 0.0744
vn -0.3708 -0.9287 -0.0019
vn -0.5609 -0.7895 -0.2494
vn 0.0995 0.9933 -0.0592
vn -0.2206 0.1562 0.9628
vn -0.6704 0.7401 0.0520
vn -0.3333 0.9411 0.0573
vn -0.0060 0.9624 0.2716
vn -0.1456 0.9828 -0.1137
vn -0.0291 0.9733 -0.2276
vn 0.9567 0.1075 0.2706
vn 0.1381 0.7873 0.6009
vn 0.0182 0.9519 0.3059
vn 0.2519 0.9677 0.0055
vn -0.2921 0.9563 0.0079
vn -0.1851 0.8239 0.5357
vn 0.4263 0.8693 -0.2501
vn 0.4651 0.8613 0.2048
vn 0.3848 0.8447 0.3720
vn 0.0764 0.9945 0.0716
vn 0.1442 0.7758 0.6143
vn -0.0201 0.9137 0.4060
vn -0.9717 0.1150 -0.2065
vn 0.0229 0.8753 -0.4831
vn 0.0493 0.9914 -0.1213
vn -0.2401 0.9651 0.1045
vn 0.2804 0.9348 0.2180
vn 0.3948 0.8609 0.3209
vn 0.5948 0.6340 -0.4942
vn 0.6886 0.6753 -0.2641
vn 0.7387 0.6725 -0.0458
vn 0.4805 0.8698 -0.1118
vn 0.6697 0.6457 0.3669
vn -0.0991 -0.9950 -0.0117
vn 0.3115 -0.9497 -0.0328
vn 0.0546 -0.9654 -0.2550
vn 0.1322 -0.9881 0.0792
vn 0.1088 -0.9812 0.1595
vn -0.0713 -0.9577 -0.2786
vn -0.2388 -0.9696 -0.0542
vn 0.2544 -0.9671 0.0017
vn 0.2056 -0.8916 -0.4036
vn -0.4000 -0.9011 0.1671
vn -0.3537 -0.8958 -0.2692
vn -0.1074 -0.9898 -0.0938
vn -0.1379 -0.8062 -0.5753
vn -0.0678 -0.9324 -0.3550
vn 0.0330 -0.9938 0.1064
vn 0.2162 -0.9744 -0.0622
vn -0.2409 -0.9446 -0.2231
vn -0.4770 -0.8085 -0.3446
vn -0.5995 -0.6688 0.4397
vn -0.6633 -0.7381 0.1231
vn -0.5028 -0.8569 0.1134
vn -0.6553 -0.6688 -0.3511
vn -0.7070 -0.0165 -0.7070
vn 0.0462 0.9833 -0.1760
vn 0.0547 0.9830 -0.1752
vt 0.239671 0.074199
vt 0.239833 0.030614
vt 0.239671 0.030558
vt 0.239833 0.074198
vt 0.239833 0.030503
vt 0.239995 0.030558
vt 0.239833 0.100609
vt 0.239995 0.074199
vt 0.239833 0.074199
vt 0.239671 0.100644
vt 0.239995 0.100644
vt 0.239995 0.125111
vt 0.239671 0.125111
vt 0.239833 0.125314
vt 0.239833 0.100679
vt 0.239833 0.100371
vt 0.239704 0.074199
vt 0.239833 0.075077
vt 0.239962 0.074199
vt 0.239833 0.073320
vt 0.239922 0.100191
vt 0.239745 0.100744
vt 0.239833 0.124908
vt 0.227242 0.173459
vt 0.227234 0.174017
vt 0.227216 0.173494
vt 0.227185 0.173498
vt 0.227179 0.172959
vt 0.227187 0.173238
vt 0.227218 0.173025
vt 0.227184 0.173355
vt 0.227234 0.173228
vt 0.227262 0.173425
vt 0.227251 0.173709
vt 0.227240 0.172811
vt 0.227269 0.173340
vt 0.227251 0.172889
vt 0.227306 0.172818
vt 0.227298 0.172391
vt 0.227280 0.172655
vt 0.227311 0.172646
vt 0.227254 0.172812
vt 0.227246 0.173125
vt 0.227249 0.172379
vt 0.227220 0.172907
vt 0.227237 0.172467
vt 0.227182 0.172283
vt 0.227200 0.171925
vt 0.227214 0.172378
vt 0.227179 0.172201
vt 0.227236 0.172380
vt 0.227243 0.172692
vt 0.227242 0.170689
vt 0.227233 0.170710
vt 0.227242 0.170625
vt 0.227233 0.170509
vt 0.227240 0.160389
vt 0.227232 0.161128
vt 0.227234 0.160640
vt 0.227234 0.173929
vt 0.227258 0.173487
vt 0.227269 0.173253
vt 0.227330 0.172149
vt 0.227279 0.172896
vt 0.227220 0.172819
vt 0.227168 0.171733
vt 0.227211 0.172468
vt 0.227233 0.170611
vt 0.227223 0.170543
vt 0.227225 0.170668
vt 0.227245 0.160307
vt 0.227251 0.160835
vt 0.227256 0.160622
vt 0.227244 0.178959
vt 0.227275 0.178726
vt 0.227253 0.179084
vt 0.227248 0.176681
vt 0.227275 0.176821
vt 0.227282 0.177562
vt 0.227243 0.178355
vt 0.227213 0.176167
vt 0.227214 0.177447
vt 0.227239 0.177336
vt 0.227215 0.178108
vt 0.227217 0.176632
vt 0.227175 0.177360
vt 0.227167 0.176497
vt 0.227183 0.176052
vt 0.227191 0.178536
vt 0.227241 0.178443
vt 0.227239 0.178080
vt 0.227249 0.178166
vt 0.227273 0.178297
vt 0.227269 0.178943
vt 0.227315 0.178306
vt 0.227319 0.179012
vt 0.227303 0.179241
vt 0.227305 0.176819
vt 0.227250 0.177098
vt 0.227249 0.177905
vt 0.227244 0.178879
vt 0.227230 0.175172
vt 0.227243 0.178279
vt 0.227234 0.178675
vt 0.227215 0.178032
vt 0.227163 0.177427
vt 0.227223 0.178862
vt 0.227273 0.178220
vt 0.227333 0.177160
vt 0.227270 0.176778
vt 0.227238 0.184456
vt 0.227222 0.184767
vt 0.227205 0.184464
vt 0.227174 0.183742
vt 0.227167 0.183256
vt 0.227175 0.183773
vt 0.227211 0.183301
vt 0.227174 0.183562
vt 0.227222 0.183555
vt 0.227257 0.184148
vt 0.227230 0.184651
vt 0.227259 0.184339
vt 0.227197 0.183742
vt 0.227224 0.183292
vt 0.227241 0.183766
vt 0.227181 0.183095
vt 0.227196 0.183576
vt 0.227184 0.183548
vt 0.227231 0.184011
vt 0.227245 0.184339
vt 0.227254 0.184796
vt 0.227261 0.185555
vt 0.227274 0.185501
vt 0.227292 0.185594
vt 0.227305 0.185345
vt 0.227303 0.185818
vt 0.227270 0.184446
vt 0.227238 0.183859
vt 0.227264 0.184723
vt 0.227242 0.184091
vt 0.227312 0.184280
vt 0.227287 0.183672
vt 0.227265 0.183882
vt 0.227319 0.183969
vt 0.227314 0.184130
vt 0.227310 0.184286
vt 0.227259 0.184013
vt 0.227247 0.184172
vt 0.227251 0.184985
vt 0.227281 0.185036
vt 0.227275 0.186348
vt 0.227334 0.184771
vt 0.227351 0.184496
vt 0.227314 0.186473
vt 0.227323 0.182515
vt 0.227253 0.183186
vt 0.227252 0.184439
vt 0.227222 0.184681
vt 0.227258 0.184547
vt 0.227246 0.184329
vt 0.227230 0.184563
vt 0.227207 0.184130
vt 0.227261 0.185472
vt 0.227241 0.184498
vt 0.227292 0.185511
vt 0.227294 0.184734
vt 0.227246 0.184431
vt 0.227265 0.184635
vt 0.227282 0.184463
vt 0.227281 0.184966
vt 0.227334 0.184703
vt 0.227339 0.182714
vt 0.227279 0.182778
vt 0.239833 0.100548
vt 0.227250 0.160395
s 0
usemtl Texture_Map
f 6/1/1 1/2/1 2/3/1
f 7/4/2 2/3/2 3/5/2
f 4/6/3 7/4/3 3/5/3
f 9/7/4 8/8/4 5/9/4
f 6/1/5 9/7/5 5/9/5
f 7/4/6 10/10/6 6/1/6
f 12/11/7 7/4/7 8/8/7
f 9/7/8 16/12/8 12/11/8
f 14/13/9 9/7/9 10/10/9
f 15/14/10 10/10/10 11/15/10
f 12/11/11 15/14/11 11/15/11
f 21/16/12 20/17/12 17/18/12
f 18/19/13 21/16/13 17/18/13
f 19/20/14 22/21/14 18/19/14
f 24/22/15 19/20/15 20/17/15
f 13/23/16 15/14/16 16/12/16
f 25/24/17 35/25/17 33/26/17
f 32/27/18 27/28/18 30/29/18
f 32/27/19 28/30/19 66/31/19
f 35/25/20 31/32/20 32/27/20
f 35/25/21 30/29/21 33/26/21
f 26/33/22 35/25/22 29/34/22
f 36/35/23 45/36/23 43/37/23
f 42/38/24 68/39/24 40/40/24
f 45/36/25 41/41/25 42/38/25
f 45/36/26 40/40/26 43/37/26
f 37/42/27 45/36/27 38/43/27
f 46/44/28 55/45/28 53/46/28
f 52/47/29 70/48/29 50/49/29
f 55/45/30 51/50/30 52/47/30
f 55/45/31 50/49/31 53/46/31
f 47/51/32 55/45/32 48/52/32
f 56/53/33 60/54/33 58/55/33
f 60/54/34 73/56/34 58/55/34
f 63/57/35 75/58/35 64/59/35
f 25/24/36 67/60/36 29/34/36
f 27/28/37 66/31/37 30/29/37
f 66/31/38 28/30/38 31/32/38
f 67/60/39 31/32/39 34/61/39
f 30/29/40 67/60/40 33/26/40
f 67/60/41 26/33/41 29/34/41
f 36/35/42 69/62/42 38/43/42
f 68/39/43 39/63/43 41/41/43
f 69/62/44 41/41/44 44/64/44
f 40/40/45 69/62/45 43/37/45
f 69/62/46 37/42/46 38/43/46
f 46/44/47 71/65/47 48/52/47
f 70/48/48 49/66/48 51/50/48
f 71/65/49 51/50/49 54/67/49
f 50/49/50 71/65/50 53/46/50
f 71/65/51 47/51/51 48/52/51
f 72/68/52 57/69/52 59/70/52
f 73/56/53 72/68/53 58/55/53
f 74/71/54 62/72/54 65/73/54
f 75/58/55 74/71/55 64/59/55
f 79/74/56 83/75/56 76/76/56
f 82/77/57 107/78/57 80/79/57
f 85/80/58 81/81/58 82/77/58
f 85/80/59 80/79/59 83/75/59
f 79/74/60 84/82/60 85/80/60
f 86/83/61 95/84/61 93/85/61
f 92/86/62 109/87/62 90/88/62
f 95/84/63 91/89/63 92/86/63
f 95/84/64 90/88/64 93/85/64
f 87/90/65 95/84/65 88/91/65
f 96/92/66 105/93/66 103/94/66
f 102/95/67 111/96/67 100/97/67
f 105/93/68 101/98/68 102/95/68
f 105/93/69 100/97/69 103/94/69
f 97/99/70 105/93/70 98/100/70
f 83/75/71 106/101/71 76/76/71
f 107/78/72 78/102/72 81/81/72
f 108/103/73 81/81/73 84/82/73
f 80/79/74 108/103/74 83/75/74
f 106/101/75 84/82/75 77/104/75
f 86/83/76 110/105/76 88/91/76
f 109/87/77 89/106/77 91/89/77
f 110/105/78 91/89/78 94/107/78
f 90/88/79 110/105/79 93/85/79
f 110/105/80 87/90/80 88/91/80
f 96/92/81 112/108/81 98/100/81
f 111/96/82 99/109/82 101/98/82
f 112/108/83 101/98/83 104/110/83
f 100/97/84 112/108/84 103/94/84
f 112/108/85 97/99/85 98/100/85
f 113/111/86 122/112/86 120/113/86
f 119/114/87 115/115/87 117/116/87
f 119/114/88 116/117/88 166/118/88
f 122/112/89 118/119/89 119/114/89
f 122/112/90 117/116/90 120/113/90
f 123/120/91 133/121/91 131/122/91
f 130/123/92 125/124/92 128/125/92
f 130/123/93 126/126/93 168/127/93
f 133/121/94 129/128/94 130/123/94
f 133/121/95 128/125/95 131/122/95
f 124/129/96 133/121/96 127/130/96
f 134/131/97 143/132/97 141/133/97
f 140/134/98 136/135/98 138/136/98
f 143/132/99 139/137/99 140/134/99
f 143/132/100 138/136/100 141/133/100
f 144/138/101 154/139/101 152/140/101
f 151/141/102 146/142/102 149/143/102
f 151/141/103 147/144/103 172/145/103
f 154/139/104 150/146/104 151/141/104
f 154/139/105 149/143/105 152/140/105
f 145/147/106 154/139/106 148/148/106
f 155/149/107 165/150/107 163/151/107
f 162/152/108 157/153/108 160/154/108
f 165/150/109 161/155/109 162/152/109
f 165/150/110 160/154/110 163/151/110
f 156/156/111 165/150/111 158/157/111
f 113/111/112 167/158/112 114/159/112
f 115/115/113 166/118/113 117/116/113
f 166/118/114 116/117/114 118/119/114
f 167/158/115 118/119/115 121/160/115
f 117/116/116 167/158/116 120/113/116
f 123/120/117 169/161/117 127/130/117
f 125/124/118 168/127/118 128/125/118
f 168/127/119 126/126/119 129/128/119
f 169/161/120 129/128/120 132/162/120
f 128/125/121 169/161/121 131/122/121
f 169/161/122 124/129/122 127/130/122
f 134/131/123 171/163/123 135/164/123
f 136/135/124 170/165/124 138/136/124
f 170/165/125 137/166/125 139/137/125
f 171/163/126 139/137/126 142/167/126
f 138/136/127 171/163/127 141/133/127
f 144/138/128 173/168/128 148/148/128
f 146/142/129 172/145/129 149/143/129
f 172/145/130 147/144/130 150/146/130
f 173/168/131 150/146/131 153/169/131
f 149/143/132 173/168/132 152/140/132
f 173/168/133 145/147/133 148/148/133
f 155/149/134 175/170/134 158/157/134
f 157/153/135 174/171/135 160/154/135
f 174/171/136 159/172/136 161/155/136
f 175/170/137 161/155/137 164/173/137
f 160/154/138 175/170/138 163/151/138
f 175/170/139 156/156/139 158/157/139
f 1/2/140 8/8/140 4/6/140
f 6/1/141 5/9/141 1/2/141
f 7/4/142 6/1/142 2/3/142
f 4/6/143 8/8/143 7/4/143
f 9/7/144 12/11/144 8/8/144
f 6/1/145 10/10/145 9/7/145
f 7/4/146 11/15/146 10/10/146
f 12/11/147 11/15/147 7/4/147
f 9/7/148 13/23/148 16/12/148
f 14/13/149 13/23/149 9/7/149
f 15/14/150 14/13/150 10/10/150
f 12/11/151 16/12/151 15/14/151
f 21/16/152 24/22/152 20/17/152
f 18/19/153 22/21/153 21/16/153
f 19/20/154 23/174/154 22/21/154
f 24/22/155 23/174/155 19/20/155
f 13/23/16 14/13/16 15/14/16
f 25/24/156 29/34/156 35/25/156
f 32/27/157 66/31/157 27/28/157
f 32/27/158 31/32/158 28/30/158
f 35/25/159 34/61/159 31/32/159
f 35/25/160 32/27/160 30/29/160
f 26/33/161 34/61/161 35/25/161
f 36/35/162 38/43/162 45/36/162
f 42/38/163 39/63/163 68/39/163
f 42/38/164 41/41/164 39/63/164
f 45/36/165 44/64/165 41/41/165
f 45/36/166 42/38/166 40/40/166
f 37/42/167 44/64/167 45/36/167
f 46/44/168 48/52/168 55/45/168
f 52/47/169 49/66/169 70/48/169
f 52/47/170 51/50/170 49/66/170
f 55/45/171 54/67/171 51/50/171
f 55/45/172 52/47/172 50/49/172
f 47/51/173 54/67/173 55/45/173
f 60/54/174 59/70/174 57/69/174
f 60/54/175 57/69/175 73/56/175
f 63/57/176 65/73/176 62/72/176
f 63/57/177 62/72/177 75/58/177
f 61/175/178 65/73/178 63/57/178
f 25/24/179 33/26/179 67/60/179
f 67/60/180 66/31/180 31/32/180
f 30/29/181 66/31/181 67/60/181
f 67/60/182 34/61/182 26/33/182
f 36/35/183 43/37/183 69/62/183
f 69/62/184 68/39/184 41/41/184
f 40/40/185 68/39/185 69/62/185
f 69/62/186 44/64/186 37/42/186
f 46/44/187 53/46/187 71/65/187
f 71/65/188 70/48/188 51/50/188
f 50/49/189 70/48/189 71/65/189
f 71/65/190 54/67/190 47/51/190
f 56/53/191 58/55/191 72/68/191
f 72/68/192 73/56/192 57/69/192
f 63/57/193 64/59/193 74/71/193
f 74/71/194 75/58/194 62/72/194
f 74/71/195 65/73/195 61/175/195
f 60/54/196 72/68/196 59/70/196
f 79/74/197 85/80/197 83/75/197
f 82/77/198 78/102/198 107/78/198
f 82/77/199 81/81/199 78/102/199
f 85/80/200 84/82/200 81/81/200
f 85/80/201 82/77/201 80/79/201
f 79/74/202 77/104/202 84/82/202
f 86/83/203 88/91/203 95/84/203
f 92/86/204 89/106/204 109/87/204
f 92/86/205 91/89/205 89/106/205
f 95/84/206 94/107/206 91/89/206
f 95/84/207 92/86/207 90/88/207
f 87/90/208 94/107/208 95/84/208
f 96/92/209 98/100/209 105/93/209
f 102/95/210 99/109/210 111/96/210
f 102/95/211 101/98/211 99/109/211
f 105/93/212 104/110/212 101/98/212
f 105/93/213 102/95/213 100/97/213
f 97/99/214 104/110/214 105/93/214
f 83/75/215 108/103/215 106/101/215
f 108/103/216 107/78/216 81/81/216
f 80/79/217 107/78/217 108/103/217
f 106/101/218 108/103/218 84/82/218
f 86/83/219 93/85/219 110/105/219
f 110/105/220 109/87/220 91/89/220
f 90/88/221 109/87/221 110/105/221
f 110/105/222 94/107/222 87/90/222
f 96/92/223 103/94/223 112/108/223
f 112/108/224 111/96/224 101/98/224
f 100/97/225 111/96/225 112/108/225
f 112/108/226 104/110/226 97/99/226
f 113/111/227 114/159/227 122/112/227
f 119/114/228 166/118/228 115/115/228
f 119/114/229 118/119/229 116/117/229
f 122/112/230 121/160/230 118/119/230
f 122/112/231 119/114/231 117/116/231
f 114/159/232 121/160/232 122/112/232
f 123/120/233 127/130/233 133/121/233
f 130/123/234 168/127/234 125/124/234
f 130/123/235 129/128/235 126/126/235
f 133/121/236 132/162/236 129/128/236
f 133/121/237 130/123/237 128/125/237
f 124/129/238 132/162/238 133/121/238
f 134/131/239 135/164/239 143/132/239
f 140/134/240 137/166/240 136/135/240
f 140/134/241 139/137/241 137/166/241
f 143/132/242 142/167/242 139/137/242
f 143/132/243 140/134/243 138/136/243
f 135/164/244 142/167/244 143/132/244
f 144/138/245 148/148/245 154/139/245
f 151/141/246 172/145/246 146/142/246
f 151/141/247 150/146/247 147/144/247
f 154/139/248 153/169/248 150/146/248
f 154/139/249 151/141/249 149/143/249
f 145/147/250 153/169/250 154/139/250
f 155/149/251 158/157/251 165/150/251
f 162/152/252 159/172/252 157/153/252
f 162/152/253 161/155/253 159/172/253
f 165/150/254 164/173/254 161/155/254
f 165/150/255 162/152/255 160/154/255
f 156/156/256 164/173/256 165/150/256
f 113/111/257 120/113/257 167/158/257
f 167/158/258 166/118/258 118/119/258
f 117/116/259 166/118/259 167/158/259
f 167/158/260 121/160/260 114/159/260
f 123/120/261 131/122/261 169/161/261
f 169/161/262 168/127/262 129/128/262
f 128/125/263 168/127/263 169/161/263
f 169/161/264 132/162/264 124/129/264
f 134/131/265 141/133/265 171/163/265
f 136/135/266 137/166/266 170/165/266
f 171/163/267 170/165/267 139/137/267
f 138/136/268 170/165/268 171/163/268
f 171/163/269 142/167/269 135/164/269
f 144/138/270 152/140/270 173/168/270
f 173/168/271 172/145/271 150/146/271
f 149/143/272 172/145/272 173/168/272
f 173/168/273 153/169/273 145/147/273
f 155/149/274 163/151/274 175/170/274
f 157/153/275 159/172/275 174/171/275
f 175/170/276 174/171/276 161/155/276
f 160/154/277 174/171/277 175/170/277
f 175/170/278 164/173/278 156/156/278
f 1/2/279 5/9/279 8/8/279
f 24/22/280 22/21/280 23/174/280
f 24/22/281 21/16/281 22/21/281
