# Blender 4.4.0
# www.blender.org
mtllib Crop_Potato_STAGE_1_01.mtl
o Crop_Potato_STAGE_1_01
v 0.000000 0.000585 0.009983
v 0.010000 -0.000000 -0.000000
v -0.000000 -0.000585 -0.009983
v -0.010000 0.000000 0.000000
v 0.000000 0.130200 0.000291
v 0.007927 0.130226 -0.007636
v -0.000000 0.130251 -0.015563
v -0.007927 0.130226 -0.007636
v 0.000000 0.229326 0.008863
v 0.005463 0.226116 0.003596
v -0.000000 0.194800 -0.005003
v -0.005463 0.226116 0.003596
v -0.000000 0.242565 -0.001917
v 0.000000 0.291569 0.005631
v 0.004788 0.291404 0.000803
v -0.000000 0.290421 -0.003948
v -0.004790 0.291226 0.000811
v 0.000000 0.197263 -0.003160
v -0.004228 0.194454 0.000000
v 0.000000 0.191645 0.003160
v 0.004228 0.194454 -0.000000
v 0.000000 0.231089 0.026056
v -0.004602 0.229215 0.030518
v 0.000000 0.226192 0.033988
v 0.004584 0.227492 0.029005
v 0.052693 0.157796 0.114437
v -0.002283 0.152182 0.123347
v 0.005183 0.233954 0.020389
v 0.030783 0.136493 0.130874
v 0.069077 0.190597 0.083700
v -0.028887 0.180673 0.098816
v 0.023730 0.165581 0.106415
v 0.057228 0.224382 0.042698
v -0.031055 0.215748 0.056402
v 0.013863 0.207719 0.058729
v -0.025226 0.274665 -0.100797
v 0.027083 0.275960 -0.098788
v 0.001507 0.291894 0.008376
v 0.000164 0.251883 -0.122456
v -0.043711 0.288280 -0.062455
v 0.044039 0.288280 -0.062455
v 0.000164 0.279398 -0.079497
v -0.039090 0.295099 -0.020834
v 0.039235 0.295449 -0.020245
v 0.000164 0.289204 -0.028064
v 0.025586 0.240559 0.016464
v 0.044236 0.238139 0.023605
v -0.025210 0.231173 0.033677
v -0.008841 0.236592 0.021976
v -0.014605 0.294853 0.008369
v -0.031011 0.297158 -0.002463
v 0.031259 0.297013 -0.002356
v 0.014957 0.294904 0.008363
v 0.023690 0.164864 0.105709
v 0.013841 0.206277 0.058098
v 0.000164 0.251426 -0.122262
v -0.043874 0.287312 -0.062218
v 0.044202 0.287312 -0.062218
v 0.000164 0.278425 -0.079178
v 0.000164 0.287354 -0.027906
vn -0.7071 0.0527 0.7052
vn 0.7071 0.0527 0.7052
vn 0.7071 -0.0302 -0.7065
vn -0.7071 -0.0302 -0.7065
vn -0.7057 -0.0645 0.7055
vn 0.7057 -0.0645 0.7055
vn 0.7026 0.1149 -0.7022
vn -0.7026 0.1149 -0.7022
vn 0.7685 0.0413 -0.6385
vn -0.7685 0.0413 -0.6385
vn -0.7047 0.0368 0.7085
vn 0.7047 0.0368 0.7085
vn 0.6608 -0.0318 -0.7499
vn -0.6608 -0.0318 -0.7499
vn 0.7071 0.4622 -0.5352
vn -0.7071 0.4622 -0.5352
vn -0.7071 -0.4708 0.5276
vn 0.7071 -0.4708 0.5276
vn 0.1433 0.6571 0.7401
vn -0.0160 0.6879 0.7256
vn -0.0549 0.7627 0.6444
vn 0.1241 0.7562 0.6425
vn 0.1801 0.9805 -0.0790
vn 0.1145 0.8080 0.5779
vn -0.2687 0.8111 -0.5195
vn 0.0755 0.9506 -0.3012
vn 0.1150 0.9782 -0.1730
vn -0.1251 0.9746 -0.1858
vn -0.1282 0.9814 -0.1430
vn -0.1474 0.8004 0.5811
vn -0.1230 -0.7110 -0.6924
vn 0.0464 -0.6953 -0.7172
vn 0.0856 -0.7566 -0.6482
vn -0.1380 -0.7667 -0.6270
vn -0.1792 -0.9754 0.1287
vn -0.1487 -0.8015 -0.5792
vn 0.0966 -0.9625 0.2536
vn -0.0889 -0.9584 0.2712
vn -0.1549 -0.9675 0.2000
vn 0.1596 -0.9654 0.2061
vn 0.2040 -0.9717 0.1191
vn 0.1369 -0.7833 -0.6064
vn 0.7570 -0.2550 -0.6016
vn -0.8942 0.0415 -0.4458
vn 0.9796 0.1844 0.0802
vn -0.7060 0.0526 0.7062
vn 0.7060 0.0526 0.7062
vn 0.7067 -0.0301 -0.7068
vn -0.7067 -0.0301 -0.7068
vn -0.6730 -0.0637 0.7369
vn 0.6730 -0.0637 0.7369
vn 0.6147 0.1073 -0.7814
vn -0.6147 0.1073 -0.7814
vn -0.7101 0.0374 0.7031
vn 0.7102 0.0374 0.7030
vn 0.7065 -0.0230 -0.7073
vn -0.7066 -0.0229 -0.7073
vn 0.0989 0.7007 0.7065
vn -0.0419 0.6370 0.7697
vn -0.0731 0.7398 0.6688
vn 0.1048 0.7690 0.6306
vn 0.1174 0.9799 -0.1615
vn 0.1876 0.9793 -0.0758
vn 0.2144 0.8280 0.5181
vn 0.1307 0.8172 0.5613
vn -0.0825 0.9549 -0.2853
vn 0.2834 0.8076 -0.5172
vn 0.1251 0.9746 -0.1858
vn -0.1201 0.9764 -0.1795
vn -0.2181 0.9738 -0.0638
vn -0.1797 0.9804 -0.0804
vn -0.0739 0.7846 0.6156
vn -0.1213 0.7998 0.5878
vn -0.1576 -0.6770 -0.7189
vn 0.0681 -0.6524 -0.7548
vn 0.0977 -0.7408 -0.6646
vn -0.1460 -0.7612 -0.6319
vn -0.2119 -0.9706 0.1144
vn -0.1593 -0.9709 0.1789
vn -0.2141 -0.8103 -0.5455
vn -0.1469 -0.8004 -0.5811
vn 0.2954 -0.8095 0.5073
vn -0.3105 -0.8055 0.5048
vn -0.1316 -0.9766 0.1701
vn 0.1316 -0.9766 0.1701
vn 0.2171 -0.9695 0.1133
vn 0.1699 -0.9723 0.1608
vn 0.1311 -0.7831 -0.6079
vn 0.1006 -0.7735 -0.6258
vn 0.8993 0.0450 -0.4349
vn -0.7505 -0.2579 -0.6085
vn -0.9798 0.1841 0.0786
vn -0.0184 0.9826 -0.1848
vn 0.3132 0.8081 0.4989
vn -0.0186 0.9984 -0.0527
vn 0.1607 0.8398 0.5185
vt 0.230937 0.068617
vt 0.230932 0.027983
vt 0.231136 0.028165
vt 0.230727 0.027800
vt 0.230775 0.068625
vt 0.231005 0.098551
vt 0.230829 0.088778
vt 0.230613 0.068633
vt 0.230892 0.103685
vt 0.231047 0.118979
vt 0.231113 0.099553
vt 0.230851 0.118620
vt 0.230867 0.089547
vt 0.231525 0.098981
vt 0.230932 0.088670
vt 0.231465 0.100103
vt 0.231627 0.098575
vt 0.230996 0.087793
vt 0.239814 0.161556
vt 0.239863 0.158954
vt 0.239886 0.155906
vt 0.239837 0.160044
vt 0.239747 0.166415
vt 0.239673 0.169740
vt 0.239626 0.172977
vt 0.239791 0.164487
vt 0.239525 0.186664
vt 0.239525 0.186089
vt 0.239417 0.185567
vt 0.239599 0.174296
vt 0.239666 0.171300
vt 0.239266 0.183662
vt 0.239209 0.182995
vt 0.239139 0.178318
vt 0.239203 0.182743
vt 0.239316 0.185387
vt 0.239439 0.186712
vt 0.239493 0.187084
vt 0.239440 0.186780
vt 0.239549 0.176119
vt 0.239560 0.174836
vt 0.239811 0.161417
vt 0.239671 0.169460
vt 0.239418 0.185208
vt 0.239565 0.175348
vt 0.239267 0.183473
vt 0.239317 0.185199
vt 0.239525 0.186674
vt 0.239140 0.178229
vt 0.230948 0.118871
vt 0.230948 0.118927
vt 0.231556 0.099518
vt 0.239493 0.187112
vt 0.239570 0.175649
s 0
usemtl Texture_Map
f 5/1/1 4/2/1 1/3/1
f 2/2/2 5/1/2 1/3/2
f 3/4/3 6/5/3 2/2/3
f 8/5/4 3/4/4 4/2/4
f 5/1/5 12/6/5 8/5/5
f 10/6/6 5/1/6 6/5/6
f 11/7/7 6/5/7 7/8/7
f 8/5/8 11/7/8 7/8/8
f 13/9/9 10/6/9 11/7/9
f 12/6/10 13/9/10 11/7/10
f 14/10/11 12/6/11 9/11/11
f 10/6/12 14/10/12 9/11/12
f 16/12/13 10/6/13 13/9/13
f 12/6/14 16/12/14 13/9/14
f 18/13/15 25/14/15 21/15/15
f 19/15/16 22/16/16 18/13/16
f 24/17/17 19/15/17 20/18/17
f 25/14/18 20/18/18 21/15/18
f 32/19/19 27/20/19 29/21/19
f 32/19/20 26/22/20 30/23/20
f 35/24/21 30/23/21 33/25/21
f 35/24/22 31/26/22 32/19/22
f 50/27/23 38/28/23 45/29/23
f 48/30/24 34/31/24 35/24/24
f 42/32/25 37/33/25 39/34/25
f 42/32/26 36/35/26 40/36/26
f 45/29/27 40/36/27 43/37/27
f 45/29/28 41/36/28 42/32/28
f 52/38/29 44/39/29 45/29/29
f 46/40/30 28/41/30 35/24/30
f 54/42/31 27/20/31 31/26/31
f 26/22/32 54/42/32 30/23/32
f 30/23/33 55/43/33 33/25/33
f 55/43/34 31/26/34 34/31/34
f 60/44/35 38/28/35 50/27/35
f 55/43/36 48/30/36 49/45/36
f 59/46/37 37/33/37 58/47/37
f 36/35/38 59/46/38 57/47/38
f 57/47/39 60/44/39 43/37/39
f 60/44/40 58/47/40 44/39/40
f 60/44/41 52/38/41 53/48/41
f 55/43/42 28/41/42 46/40/42
f 39/34/43 37/33/43 56/49/43
f 40/36/44 36/35/44 57/47/44
f 41/36/45 44/39/45 58/47/45
f 5/1/46 8/5/46 4/2/46
f 2/2/47 6/5/47 5/1/47
f 3/4/48 7/8/48 6/5/48
f 8/5/49 7/8/49 3/4/49
f 5/1/50 9/11/50 12/6/50
f 10/6/51 9/11/51 5/1/51
f 11/7/52 10/6/52 6/5/52
f 8/5/53 12/6/53 11/7/53
f 14/10/54 17/50/54 12/6/54
f 10/6/55 15/51/55 14/10/55
f 16/12/56 15/51/56 10/6/56
f 12/6/57 17/50/57 16/12/57
f 18/13/15 22/16/15 25/14/15
f 19/15/16 23/52/16 22/16/16
f 24/17/17 23/52/17 19/15/17
f 25/14/18 24/17/18 20/18/18
f 32/19/58 31/26/58 27/20/58
f 32/19/59 29/21/59 26/22/59
f 35/24/60 32/19/60 30/23/60
f 35/24/61 34/31/61 31/26/61
f 43/37/62 51/53/62 45/29/62
f 51/53/63 50/27/63 45/29/63
f 35/24/64 28/41/64 49/45/64
f 49/45/65 48/30/65 35/24/65
f 42/32/66 41/36/66 37/33/66
f 42/32/67 39/34/67 36/35/67
f 45/29/68 42/32/68 40/36/68
f 45/29/69 44/39/69 41/36/69
f 45/29/70 38/28/70 53/48/70
f 53/48/71 52/38/71 45/29/71
f 33/25/72 47/54/72 35/24/72
f 47/54/73 46/40/73 35/24/73
f 54/42/74 29/21/74 27/20/74
f 26/22/75 29/21/75 54/42/75
f 30/23/76 54/42/76 55/43/76
f 55/43/77 54/42/77 31/26/77
f 50/27/78 51/53/78 60/44/78
f 51/53/79 43/37/79 60/44/79
f 49/45/80 28/41/80 55/43/80
f 55/43/81 34/31/81 48/30/81
f 59/46/82 56/49/82 37/33/82
f 36/35/83 56/49/83 59/46/83
f 57/47/84 59/46/84 60/44/84
f 60/44/85 59/46/85 58/47/85
f 53/48/86 38/28/86 60/44/86
f 60/44/87 44/39/87 52/38/87
f 46/40/88 47/54/88 55/43/88
f 47/54/89 33/25/89 55/43/89
f 41/36/90 58/47/90 37/33/90
f 39/34/91 56/49/91 36/35/91
f 40/36/92 57/47/92 43/37/92
f 17/50/93 15/51/93 16/12/93
f 22/16/94 24/17/94 25/14/94
f 17/50/95 14/10/95 15/51/95
f 22/16/96 23/52/96 24/17/96
