# Blender 4.4.0
# www.blender.org
mtllib Env_Flowers_02.mtl
o Env_Flowers_02
v 0.019387 0.217102 -0.112818
v -0.026537 0.174043 -0.051241
v -0.053791 0.160062 0.026786
v -0.059890 0.176436 0.114146
v 0.012856 0.143966 0.075010
v 0.090205 0.163032 0.114146
v 0.081301 0.147999 0.026786
v 0.056955 0.166587 -0.051241
v -0.025038 0.176962 -0.048869
v -0.103658 0.209853 -0.026125
v -0.051490 0.163393 0.026862
v 0.013196 0.147771 0.073666
v 0.079627 0.151684 0.026862
v 0.139202 0.188165 -0.026125
v 0.055997 0.169726 -0.048869
v 0.015006 0.168044 -0.036477
v -0.022276 0.166970 -0.015547
v -0.023056 0.158234 0.026313
v 0.013446 0.150571 0.047243
v 0.050728 0.151645 0.026313
v 0.051509 0.160381 -0.015547
v 0.015937 0.178465 -0.021909
v -0.010786 0.177695 -0.006906
v -0.011346 0.171433 0.023098
v 0.014819 0.165941 0.038101
v 0.041542 0.166711 0.023098
v 0.042101 0.172973 -0.006906
v 0.007962 0.160926 0.011440
v 0.020352 0.159819 0.011440
v 0.007962 0.160926 -0.001000
v 0.020352 0.159819 -0.001000
v -0.006195 0.000000 -0.006220
v -0.006195 0.000000 0.006220
v 0.006195 0.000000 0.006220
v 0.006195 0.000000 -0.006220
vn -0.0871 -0.9749 -0.2051
vn 0.0871 0.9749 0.2051
vn -0.4897 0.3289 0.8075
vn -0.5089 0.3336 0.7935
vn 0.8863 0.4192 -0.1968
vn 0.8972 0.4109 -0.1621
vn -0.8102 0.5633 -0.1621
vn -0.7980 0.5696 -0.1968
vn 0.5600 0.2381 0.7935
vn 0.5402 0.2369 0.8075
vn 0.0326 0.6201 -0.7839
vn 0.0778 0.6160 -0.7839
vn 0.8345 0.5360 0.1274
vn -0.3485 0.5020 0.7916
vn -0.3237 0.7792 -0.5367
vn 0.4567 0.7095 -0.5367
vn 0.4319 0.4323 0.7916
vn -0.7263 0.6754 0.1274
vn -0.0000 -1.0000 -0.0000
vn -0.9962 0.0876 -0.0000
vn 0.0029 0.0324 -0.9995
vn -0.0029 -0.0324 0.9995
vn 0.9961 -0.0882 -0.0000
vn -0.0707 -0.7919 -0.6065
vn 0.3297 -0.8900 -0.3149
vn 0.1639 -0.9748 0.1511
vn -0.3340 -0.9304 0.1511
vn -0.4822 -0.8175 -0.3149
vn 0.4413 0.8438 0.3053
vn 0.3088 0.9446 -0.1114
vn -0.1365 0.9844 -0.1114
vn -0.2848 0.9086 0.3053
vn 0.0733 0.8210 0.5662
vn -0.0000 0.0324 -0.9995
vn -0.0000 -0.0324 0.9995
vt 0.231483 0.543482
vt 0.234966 0.537539
vt 0.234966 0.540292
vt 0.231589 0.544148
vt 0.237059 0.537487
vt 0.231589 0.542497
vt 0.237119 0.536619
vt 0.238866 0.540970
vt 0.232605 0.551653
vt 0.234970 0.541052
vt 0.231483 0.541781
vt 0.228735 0.553307
vt 0.234970 0.538380
vt 0.238866 0.544028
vt 0.232605 0.546705
vt 0.697392 0.540365
vt 0.699117 0.541809
vt 0.699260 0.538371
vt 0.700194 0.538126
vt 0.699117 0.542887
vt 0.699260 0.539875
vt 0.697392 0.541868
vt 0.697108 0.544491
vt 0.696457 0.542113
vt 0.697777 0.543238
vt 0.699786 0.541633
vt 0.697777 0.544315
vt 0.209682 0.067233
vt 0.210237 0.067233
vt 0.209915 0.103954
vt 0.210470 0.103954
vt 0.209915 0.103701
vt 0.210470 0.103701
s 0
usemtl Texture_Map
f 2/1/1 7/2/1 3/3/1
f 9/4/2 12/5/2 15/6/2
f 5/7/3 6/8/3 12/5/3
f 10/9/4 3/3/4 11/10/4
f 8/11/5 1/12/5 15/6/5
f 6/8/6 7/2/6 13/13/6
f 3/3/7 4/14/7 11/10/7
f 1/12/8 2/1/8 9/4/8
f 7/2/9 14/15/9 13/13/9
f 4/14/10 5/7/10 12/5/10
f 2/1/11 10/9/11 9/4/11
f 14/15/12 8/11/12 15/6/12
f 21/16/13 26/17/13 20/18/13
f 19/19/14 24/20/14 18/21/14
f 17/22/15 22/23/15 16/24/15
f 16/24/16 27/25/16 21/16/16
f 19/19/17 26/17/17 25/26/17
f 18/21/18 23/27/18 17/22/18
f 26/17/2 27/25/2 22/23/2
f 32/28/19 34/29/19 33/29/19
f 30/30/20 33/29/20 28/31/20
f 35/28/21 30/30/21 31/32/21
f 28/31/22 34/29/22 29/33/22
f 34/29/23 31/32/23 29/33/23
f 2/1/24 1/12/24 8/11/24
f 8/11/25 14/15/25 7/2/25
f 7/2/26 6/8/26 5/7/26
f 5/7/27 4/14/27 3/3/27
f 3/3/28 10/9/28 2/1/28
f 2/1/1 8/11/1 7/2/1
f 7/2/1 5/7/1 3/3/1
f 9/4/29 10/9/29 11/10/29
f 11/10/30 4/14/30 12/5/30
f 12/5/31 6/8/31 13/13/31
f 13/13/32 14/15/32 15/6/32
f 15/6/33 1/12/33 9/4/33
f 9/4/2 11/10/2 12/5/2
f 12/5/2 13/13/2 15/6/2
f 21/16/13 27/25/13 26/17/13
f 19/19/14 25/26/14 24/20/14
f 17/22/15 23/27/15 22/23/15
f 16/24/16 22/23/16 27/25/16
f 19/19/17 20/18/17 26/17/17
f 18/21/18 24/20/18 23/27/18
f 22/23/2 23/27/2 26/17/2
f 23/27/2 24/20/2 26/17/2
f 24/20/2 25/26/2 26/17/2
f 32/28/19 35/28/19 34/29/19
f 30/30/20 32/28/20 33/29/20
f 35/28/34 32/28/34 30/30/34
f 28/31/35 33/29/35 34/29/35
f 34/29/23 35/28/23 31/32/23
