# Blender 4.4.0
# www.blender.org
mtllib Env_Daffodil_High_Detail_01.mtl
o Env_Daffodil_High_Detail_01
v 0.005738 0.343461 0.058630
v 0.077269 0.395515 0.074737
v 0.001206 0.360374 0.054392
v 0.013985 0.394601 0.061573
v 0.054844 0.406766 0.067259
v 0.031911 0.405881 0.061206
v 0.070853 0.347017 0.067259
v 0.029386 0.337123 0.061573
v 0.050551 0.336317 0.061206
v 0.023830 0.366436 0.054822
v 0.064982 0.377463 0.064437
v 0.043625 0.371740 0.054408
v 0.099557 0.386727 0.083297
v -0.003326 0.377288 0.061177
v 0.084649 0.367973 0.074737
v 0.043145 0.371612 0.057464
v 0.064549 0.377347 0.066814
v 0.031774 0.405844 0.062752
v 0.023371 0.366313 0.058507
v 0.013897 0.394577 0.062847
v 0.050428 0.336284 0.062585
v 0.029281 0.337094 0.063097
v -0.009961 0.361309 0.058129
v -0.012057 0.275397 0.074737
v -0.000826 0.358429 0.054449
v 0.021174 0.329261 0.061573
v 0.009481 0.288266 0.067259
v 0.021056 0.308082 0.061206
v -0.049513 0.306866 0.067259
v -0.035577 0.347155 0.061573
v -0.047629 0.329738 0.061206
v -0.007869 0.336091 0.054822
v -0.020680 0.295459 0.064437
v -0.014032 0.316546 0.054408
v -0.031444 0.261321 0.083297
v 0.008365 0.355531 0.058152
v -0.039251 0.283971 0.074737
v -0.013882 0.317020 0.057464
v -0.020545 0.295887 0.066814
v 0.021099 0.308218 0.062752
v -0.007726 0.336544 0.058507
v 0.021202 0.329348 0.062847
v -0.047591 0.329859 0.062585
v -0.035545 0.347259 0.063097
v 0.012039 0.372443 0.059291
v -0.065369 0.415273 0.074737
v -0.001375 0.361188 0.052986
v -0.037795 0.358305 0.061570
v -0.066088 0.390194 0.067259
v -0.055595 0.369784 0.061206
v -0.018703 0.429955 0.067259
v 0.007789 0.396555 0.060475
v -0.000425 0.416077 0.061051
v -0.016430 0.379130 0.054002
v -0.043815 0.411767 0.064437
v -0.029603 0.394829 0.054318
v -0.066824 0.439187 0.083297
v -0.014788 0.349932 0.057680
v -0.043526 0.433602 0.074737
v -0.029284 0.394449 0.057354
v -0.043527 0.411423 0.066814
v -0.055503 0.369675 0.062752
v -0.016125 0.378766 0.057638
v -0.037737 0.358235 0.062840
v -0.000343 0.415980 0.062428
v 0.007859 0.396471 0.061998
v 0.004364 0.000000 -0.006958
v -0.004803 0.000000 -0.006958
v -0.009386 0.000000 0.000938
v -0.004803 0.000000 0.008835
v 0.004364 0.000000 0.008835
v 0.008947 0.000000 0.000938
v 0.004364 0.139368 0.004429
v -0.004803 0.139368 0.004429
v -0.009386 0.139705 0.012325
v -0.004803 0.140042 0.020221
v 0.004364 0.140042 0.020221
v 0.008947 0.139705 0.012325
v 0.004364 0.226418 -0.005425
v -0.004803 0.226418 -0.005425
v -0.009386 0.227339 0.002349
v -0.004803 0.228261 0.010124
v 0.004364 0.228261 0.010124
v 0.008947 0.227339 0.002349
v 0.004664 0.316168 -0.022937
v -0.005102 0.316168 -0.022937
v -0.009985 0.313676 -0.015597
v -0.005102 0.311184 -0.008258
v 0.004664 0.311184 -0.008258
v 0.009546 0.313676 -0.015597
v 0.003955 0.364807 0.030127
v -0.004394 0.364807 0.030127
v -0.008568 0.357740 0.030983
v -0.004394 0.350673 0.031839
v 0.003955 0.350673 0.031839
v 0.008129 0.357740 0.030983
v 0.008455 0.372706 0.095199
v -0.008893 0.372706 0.095199
v -0.017567 0.357687 0.095055
v -0.008893 0.342669 0.094911
v 0.008455 0.342669 0.094911
v 0.017128 0.357687 0.095055
v -0.014680 0.382636 0.105132
v -0.011515 0.337509 0.102220
v 0.007687 0.000000 -0.003602
v 0.004364 0.075686 0.000437
v 0.007687 0.139511 0.007785
v 0.008947 0.075421 0.008348
v -0.000219 0.000000 -0.008143
v -0.004803 0.075686 0.000437
v -0.000219 0.139318 0.003245
v -0.008126 0.000000 -0.003602
v -0.009386 0.075421 0.008348
v -0.008126 0.139511 0.007785
v -0.008126 0.000000 0.005479
v -0.004803 0.075156 0.016258
v -0.008126 0.139899 0.016865
v -0.000219 0.000000 0.010019
v 0.004364 0.075156 0.016258
v -0.000219 0.140093 0.021405
v 0.007687 0.000000 0.005479
v 0.007687 0.139899 0.016865
v 0.007687 0.226810 -0.002121
v -0.000219 0.226280 -0.006591
v -0.008126 0.226810 -0.002121
v -0.008126 0.227869 0.006820
v -0.000219 0.228399 0.011290
v 0.007687 0.227869 0.006820
v 0.008204 0.315109 -0.019817
v -0.000219 0.316542 -0.024037
v -0.008642 0.315109 -0.019817
v -0.008642 0.312243 -0.011377
v -0.000219 0.310810 -0.007157
v 0.008204 0.312243 -0.011377
v 0.004165 0.349661 -0.002125
v 0.008549 0.344264 0.001764
v -0.004604 0.349661 -0.002125
v -0.008988 0.344264 0.001764
v -0.004604 0.338867 0.005653
v 0.004165 0.338867 0.005653
v 0.006981 0.361804 0.030490
v -0.000219 0.365867 0.029998
v -0.007420 0.361804 0.030490
v -0.007420 0.353677 0.031475
v -0.000219 0.349613 0.031967
v 0.006981 0.353677 0.031475
v 0.004347 0.366356 0.050173
v 0.008912 0.358501 0.050151
v -0.004785 0.366356 0.050173
v -0.009351 0.358501 0.050151
v -0.004785 0.350646 0.050129
v 0.004347 0.350646 0.050129
v 0.014743 0.366323 0.095138
v -0.000219 0.374959 0.095221
v -0.015182 0.366323 0.095138
v -0.015182 0.349052 0.094972
v -0.000219 0.340416 0.094889
v 0.014743 0.349052 0.094972
v -0.020603 0.369406 0.099836
v -0.025174 0.343149 0.105132
v 0.024764 0.343149 0.105132
v 0.007687 0.075573 0.003799
v -0.000219 0.075725 -0.000749
v -0.008126 0.075573 0.003799
v -0.008126 0.075269 0.012896
v -0.000219 0.075117 0.017445
v 0.007687 0.075269 0.012896
v 0.007344 0.347367 -0.000473
v -0.000219 0.350471 -0.002709
v -0.007782 0.347367 -0.000473
v -0.007782 0.341161 0.004000
v -0.000219 0.338058 0.006236
v 0.007344 0.341161 0.004000
v 0.007657 0.363018 0.050163
v -0.000219 0.367534 0.050176
v -0.008095 0.363018 0.050163
v -0.008095 0.353984 0.050138
v -0.000219 0.349467 0.050126
v 0.007657 0.353984 0.050138
v 0.013852 0.381923 0.105069
v -0.028351 0.357557 0.105069
v 0.009924 0.339357 0.101318
v 0.023488 0.357557 0.099543
v 0.016874 0.369755 0.098421
v -0.000216 0.378938 0.100026
v -0.000216 0.329537 0.105069
v 0.012174 0.350182 0.095465
v -0.000390 0.342928 0.095465
v -0.012953 0.350182 0.095465
v -0.011089 0.363611 0.092801
v -0.000390 0.370061 0.093166
v 0.010550 0.363750 0.093144
v 0.011882 0.357435 0.092605
v 0.006130 0.346145 0.093523
v -0.007097 0.345819 0.094000
v -0.014956 0.357435 0.095465
v -0.007673 0.370050 0.095465
v 0.006894 0.370050 0.095465
v 0.004185 0.354644 0.061634
v -0.000507 0.351935 0.061634
v -0.005199 0.354644 0.061634
v -0.004502 0.359660 0.060639
v -0.000507 0.362068 0.060775
v 0.003579 0.359711 0.060767
v 0.004077 0.357353 0.060566
v 0.001928 0.353136 0.060909
v -0.003011 0.353015 0.061087
v -0.005947 0.357353 0.061634
v -0.003227 0.362064 0.061634
v 0.002213 0.362064 0.061634
v -0.013019 0.000000 0.002760
v 0.013896 0.000000 0.003576
v -0.010538 0.263229 -0.025927
v 0.012358 0.263229 -0.025927
v 0.000439 0.000000 -0.010788
v 0.000910 0.303949 -0.047579
v -0.021489 0.156692 0.002174
v 0.023310 0.156692 0.002174
v 0.000910 0.151844 -0.020635
v -0.013019 0.000000 0.002097
v 0.013896 0.000000 0.002758
v 0.000439 0.000000 -0.011661
v -0.021489 0.156477 0.001213
v 0.023310 0.156418 0.000948
v 0.000910 0.151321 -0.022984
v 0.016438 0.352664 0.052917
v 0.030209 0.440053 0.055943
v 0.001273 0.361420 0.046190
v -0.013893 0.394658 0.053314
v 0.006397 0.432151 0.055421
v -0.009193 0.415310 0.052900
v 0.059966 0.401223 0.055421
v 0.037641 0.364905 0.053314
v 0.053177 0.379300 0.052900
v 0.012984 0.381704 0.046562
v 0.034286 0.418600 0.049338
v 0.023231 0.399452 0.044936
v 0.052183 0.449599 0.060812
v -0.013891 0.370175 0.052917
v 0.054903 0.425796 0.055943
v 0.022983 0.399021 0.047943
v 0.034062 0.418211 0.051655
v -0.009264 0.415186 0.054447
v 0.012747 0.381292 0.050247
v -0.013938 0.394579 0.054587
v 0.053113 0.379190 0.054280
v 0.037587 0.364811 0.054838
v -0.014320 0.350522 0.052917
v 0.051983 0.291953 0.055943
v 0.001212 0.358607 0.046190
v 0.037393 0.353539 0.053314
v 0.058113 0.316282 0.055421
v 0.052286 0.338480 0.052900
v 0.003246 0.287720 0.055421
v -0.015389 0.326062 0.053314
v -0.011595 0.305225 0.052900
v 0.012027 0.337832 0.046562
v 0.031699 0.300042 0.049338
v 0.021490 0.319654 0.044936
v 0.048227 0.268291 0.060812
v 0.016744 0.366693 0.052917
v 0.026691 0.278787 0.055943
v 0.021260 0.320094 0.047943
v 0.031492 0.300440 0.051655
v 0.052220 0.338606 0.054447
v 0.011807 0.338253 0.050247
v 0.037351 0.353620 0.054587
v -0.011654 0.305338 0.054280
v -0.015440 0.326159 0.054838
v 0.000399 0.377614 0.052917
v -0.084622 0.353163 0.055943
v -0.001127 0.360170 0.046190
v -0.024842 0.332378 0.053314
v -0.067397 0.334922 0.055421
v -0.045545 0.327909 0.052900
v -0.062005 0.396543 0.055421
v -0.019655 0.391658 0.053314
v -0.039268 0.399654 0.052900
v -0.024460 0.362212 0.046562
v -0.066902 0.365925 0.049338
v -0.044876 0.363998 0.044936
v -0.102560 0.369044 0.060812
v -0.002653 0.342726 0.052917
v -0.082137 0.381569 0.055943
v -0.044381 0.363954 0.047943
v -0.066455 0.365886 0.051655
v -0.045403 0.327897 0.054447
v -0.023986 0.362170 0.050247
v -0.024751 0.332370 0.054587
v -0.039141 0.399643 0.054280
v -0.019547 0.391648 0.054838
vn 0.0781 -0.2225 -0.9718
vn 0.4670 0.0081 -0.8842
vn 0.4085 0.2265 -0.8842
vn 0.3675 0.2143 -0.9050
vn -0.1176 0.1549 -0.9809
vn 0.4254 -0.0018 -0.9050
vn -0.0244 -0.1930 -0.9809
vn -0.0770 0.3534 -0.9323
vn -0.2258 0.1794 0.9575
vn -0.4031 -0.0950 0.9102
vn -0.3747 -0.1375 0.9169
vn -0.3661 -0.1347 0.9208
vn 0.0852 -0.1233 0.9887
vn -0.2644 0.0847 0.9607
vn 0.0297 0.1494 0.9883
vn 0.0423 -0.1378 0.9896
vn -0.0388 -0.9990 -0.0211
vn -0.2546 -0.9664 -0.0354
vn 0.4615 -0.8869 0.0199
vn -0.5328 0.8458 -0.0272
vn -0.7063 0.7070 -0.0356
vn -0.0438 0.9988 0.0199
vn -0.3465 0.0937 -0.9334
vn -0.2441 -0.3982 -0.8842
vn -0.0285 -0.4662 -0.8842
vn -0.0167 -0.4251 -0.9050
vn 0.1939 0.0160 -0.9809
vn -0.2301 -0.3578 -0.9050
vn -0.1497 0.1243 -0.9809
vn 0.3375 -0.1220 -0.9334
vn 0.3865 0.0489 0.9210
vn 0.1364 0.3910 0.9102
vn 0.0854 0.3899 0.9169
vn 0.0831 0.3812 0.9208
vn -0.1497 -0.0056 0.9887
vn 0.2135 0.1774 0.9607
vn 0.1100 -0.1053 0.9883
vn -0.1184 0.1187 0.9858
vn -0.8217 0.5695 -0.0211
vn -0.4881 0.8714 -0.0488
vn -0.9960 0.0873 0.0199
vn 0.9996 -0.0051 -0.0272
vn 0.9003 0.4326 -0.0487
vn 0.8659 -0.4998 0.0199
vn 0.2331 0.2488 -0.9401
vn -0.2047 0.4198 -0.8842
vn -0.3779 0.2745 -0.8842
vn -0.3516 0.2448 -0.9036
vn -0.0922 -0.1740 -0.9804
vn -0.1800 0.3888 -0.9036
vn 0.1574 0.0953 -0.9829
vn -0.2251 -0.1342 -0.9651
vn -0.1345 -0.3575 0.9242
vn 0.2565 -0.3251 0.9102
vn 0.2829 -0.2815 0.9169
vn 0.2795 -0.2778 0.9191
vn 0.1225 0.1207 0.9851
vn 0.0397 -0.2795 0.9593
vn -0.1199 -0.0722 0.9902
vn 0.2234 0.0118 0.9747
vn 0.9215 0.3879 -0.0211
vn 0.9839 0.1752 -0.0356
vn 0.6089 0.7930 0.0199
vn -0.5414 -0.8403 -0.0272
vn -0.3470 -0.9372 -0.0354
vn -0.8868 -0.4618 0.0199
vn 0.7089 0.0686 -0.7019
vn 0.7113 0.0440 -0.7015
vn 0.9637 0.0166 -0.2665
vn 0.9632 0.0262 -0.2674
vn -0.2491 0.0941 -0.9639
vn -0.2507 0.0607 -0.9662
vn 0.2507 0.0607 -0.9662
vn 0.2491 0.0941 -0.9639
vn -0.9632 0.0262 -0.2674
vn -0.9637 0.0166 -0.2665
vn -0.7113 0.0440 -0.7015
vn -0.7089 0.0686 -0.7019
vn -0.7089 -0.0692 0.7019
vn -0.7113 -0.0431 0.7016
vn -0.9637 -0.0165 0.2665
vn -0.9632 -0.0263 0.2674
vn 0.2491 -0.0952 0.9638
vn 0.2507 -0.0590 0.9663
vn -0.2507 -0.0590 0.9663
vn -0.2491 -0.0952 0.9638
vn 0.9632 -0.0263 0.2674
vn 0.9637 -0.0165 0.2665
vn 0.7113 -0.0431 0.7016
vn 0.7089 -0.0692 0.7019
vn 0.9634 -0.0303 -0.2662
vn -0.2498 -0.1089 -0.9621
vn 0.2498 -0.1089 -0.9621
vn -0.9634 -0.0303 -0.2662
vn -0.7100 -0.0794 -0.6997
vn -0.7100 0.0801 0.6996
vn -0.9634 0.0304 0.2662
vn 0.2498 0.1102 0.9620
vn -0.2498 0.1102 0.9620
vn 0.9634 0.0304 0.2662
vn 0.7100 0.0801 0.6996
vn 0.9625 -0.0616 -0.2641
vn -0.2475 -0.1863 -0.9508
vn 0.2475 -0.1863 -0.9508
vn -0.9625 -0.0616 -0.2641
vn -0.7063 -0.1431 -0.6933
vn -0.7059 0.1509 0.6920
vn -0.9628 0.0513 0.2654
vn 0.2470 0.2117 0.9456
vn -0.2470 0.2117 0.9456
vn 0.9628 0.0513 0.2654
vn 0.7059 0.1509 0.6920
vn 0.6711 0.3944 -0.6278
vn -0.2182 0.8839 -0.4137
vn -0.9513 0.2848 -0.1177
vn 0.9542 0.1706 -0.2457
vn -0.2258 0.5166 -0.8259
vn -0.6575 -0.6849 0.3140
vn 0.2360 0.8792 -0.4139
vn 0.2258 0.5166 -0.8259
vn -0.9542 0.1706 -0.2457
vn 0.2176 -0.8904 0.3998
vn -0.6573 0.6860 -0.3121
vn -0.6711 0.3944 -0.6278
vn -0.6784 -0.3201 0.6613
vn 0.9526 -0.2718 0.1364
vn -0.9526 -0.2718 0.1364
vn -0.9573 -0.1131 0.2662
vn 0.2298 -0.4293 0.8734
vn -0.2176 -0.8904 0.3998
vn -0.2298 -0.4293 0.8734
vn 0.9573 -0.1131 0.2662
vn 0.9627 0.2660 -0.0495
vn 0.6885 -0.6565 0.3081
vn 0.6784 -0.3201 0.6613
vn 0.9600 0.2580 -0.1091
vn 0.2476 0.9656 -0.0798
vn -0.7069 0.7040 -0.0682
vn -0.2476 0.9656 -0.0798
vn -0.9610 -0.2749 -0.0283
vn -0.9627 0.2660 -0.0495
vn -0.2459 -0.9693 -0.0067
vn -0.7035 -0.7105 -0.0137
vn 0.7035 -0.7106 -0.0138
vn 0.2459 -0.9693 -0.0067
vn 0.9610 -0.2749 -0.0283
vn 0.7005 0.6950 -0.1619
vn 0.9495 0.2644 -0.1690
vn -0.2467 0.9562 -0.1576
vn 0.2466 0.9562 -0.1576
vn -0.9495 0.2644 -0.1690
vn -0.7005 0.6950 -0.1619
vn -0.6979 -0.6915 -0.1864
vn -0.9482 -0.2631 -0.1782
vn 0.2454 -0.9503 -0.1918
vn -0.2454 -0.9503 -0.1918
vn 0.9482 -0.2631 -0.1782
vn 0.6979 -0.6915 -0.1864
vn 0.4527 0.4534 -0.7678
vn 0.6328 -0.6190 -0.4652
vn 0.2206 -0.8448 -0.4874
vn 0.7109 0.2028 -0.6735
vn -0.5728 -0.5586 -0.5998
vn -0.2002 -0.7651 -0.6120
vn -0.6762 0.1213 -0.7267
vn -0.6685 -0.1777 -0.7222
vn -0.0833 0.6801 -0.7284
vn -0.4348 0.4360 -0.7879
vn 0.1946 0.7553 -0.6258
vn 0.5681 -0.1491 -0.8093
vn -0.2641 -0.4647 0.8452
vn 0.1248 0.6634 0.7378
vn -0.2525 0.5617 0.7878
vn -0.5436 0.4838 0.6859
vn -0.5018 -0.1946 0.8428
vn 0.3653 0.4698 0.8036
vn -0.1735 -0.5559 0.8130
vn 0.2425 -0.5962 0.7653
vn 0.3038 -0.4682 0.8298
vn -0.4816 0.2795 0.8306
vn 0.5871 -0.0185 0.8093
vn 0.5762 0.1591 0.8017
vn -0.9477 -0.2197 0.2315
vn 0.6178 0.7487 0.2404
vn 0.3394 0.9093 0.2409
vn -0.3710 0.8970 0.2401
vn 0.0768 -0.9681 0.2386
vn -0.7983 -0.5520 0.2407
vn -0.9702 0.0542 0.2362
vn 0.9338 0.2578 0.2480
vn 0.8162 -0.5291 0.2322
vn 0.8663 -0.4425 0.2318
vn -0.5914 0.7695 0.2411
vn -0.0769 -0.9679 0.2391
vn -0.0046 -0.0489 0.9988
vn 0.7100 -0.0794 -0.6997
vn 0.6573 0.6860 -0.3121
vn 0.7063 -0.1431 -0.6933
vn -0.7789 0.1094 0.6175
vn 0.7207 0.1066 0.6850
vn 0.7173 0.0414 0.6956
vn -0.7290 0.0466 0.6830
vn 0.7367 -0.0930 -0.6698
vn -0.7405 -0.0933 -0.6656
vn -0.7140 -0.0500 -0.6984
vn 0.7300 -0.0533 -0.6813
vn -0.9951 0.0966 -0.0215
vn 0.9981 -0.0598 0.0133
vn 0.9951 0.0966 -0.0215
vn -0.9985 -0.0539 0.0120
vn 0.3180 -0.1664 -0.9334
vn 0.2794 0.0779 -0.9570
vn -0.0722 0.2809 -0.9570
vn -0.0798 0.2669 -0.9604
vn -0.2239 0.0315 -0.9741
vn 0.2710 0.0643 -0.9604
vn 0.1392 -0.1782 -0.9741
vn -0.3031 0.1922 -0.9334
vn -0.3879 0.0359 0.9210
vn -0.1222 -0.2123 0.9695
vn 0.0401 -0.1857 0.9818
vn 0.0293 -0.2061 0.9781
vn 0.1738 0.0276 0.9844
vn -0.1988 0.0111 0.9800
vn -0.1061 0.1527 0.9826
vn 0.1274 -0.0675 0.9896
vn 0.6789 -0.7339 -0.0211
vn 0.5001 -0.8652 -0.0356
vn 0.9544 -0.2979 0.0202
vn -0.9748 0.2213 -0.0272
vn -0.9994 0.0005 -0.0356
vn -0.7352 0.6776 0.0202
vn -0.3112 -0.1788 -0.9334
vn -0.0844 -0.2775 -0.9570
vn 0.2758 -0.0900 -0.9570
vn 0.2680 -0.0761 -0.9604
vn 0.1468 0.1719 -0.9741
vn -0.0914 -0.2631 -0.9604
vn -0.2251 -0.0217 -0.9741
vn 0.3249 0.1524 -0.9334
vn 0.2387 0.3078 0.9210
vn -0.1134 0.2172 0.9695
vn -0.1782 0.0660 0.9818
vn -0.1896 0.0860 0.9781
vn -0.0701 -0.1614 0.9844
vn 0.1162 0.1617 0.9800
vn 0.1858 0.0074 0.9826
vn -0.1253 -0.0712 0.9896
vn -0.9838 -0.1783 -0.0211
vn -0.9984 0.0431 -0.0356
vn -0.7640 -0.6449 0.0202
vn 0.7104 0.7033 -0.0272
vn 0.5374 0.8426 -0.0356
vn 0.9665 0.2560 0.0202
vn 0.0165 0.3585 -0.9334
vn -0.1887 0.2203 -0.9570
vn -0.2241 -0.1842 -0.9570
vn -0.2081 -0.1851 -0.9604
vn 0.0661 -0.2162 -0.9741
vn -0.1728 0.2185 -0.9604
vn 0.1027 0.2014 -0.9741
vn -0.0460 -0.3559 -0.9334
vn 0.1314 -0.3667 0.9210
vn 0.2440 -0.0211 0.9695
vn 0.1514 0.1148 0.9818
vn 0.1744 0.1137 0.9781
vn -0.0985 0.1459 0.9844
vn 0.0740 -0.1849 0.9800
vn -0.0936 -0.1607 0.9826
vn 0.0073 0.1439 0.9896
vn 0.3782 0.9255 -0.0211
vn 0.5728 0.8189 -0.0356
vn -0.1334 0.9909 0.0201
vn 0.2114 -0.9770 -0.0272
vn 0.4219 -0.9060 -0.0357
vn -0.3034 -0.9527 0.0202
vn 0.7069 0.7040 -0.0682
vn 0.0645 -0.2124 -0.9751
vn 0.4734 0.0255 -0.8805
vn 0.4228 0.2146 -0.8805
vn 0.2363 0.2671 -0.9343
vn -0.0759 0.2073 -0.9753
vn 0.3382 -0.1131 -0.9343
vn 0.0379 -0.2175 -0.9753
vn -0.1561 0.1783 -0.9715
vn -0.1528 0.1232 0.9806
vn -0.3932 -0.0683 0.9169
vn -0.3966 -0.1192 0.9102
vn -0.1795 -0.2081 0.9615
vn 0.0839 -0.1248 0.9886
vn -0.3844 -0.0664 0.9208
vn 0.0100 0.1572 0.9875
vn -0.0671 -0.3869 0.9197
vn -0.0385 -0.9989 -0.0273
vn -0.5332 0.8458 -0.0211
vn -0.1929 0.1119 -0.9748
vn -0.2328 -0.4130 -0.8805
vn -0.0462 -0.4719 -0.8805
vn 0.0983 -0.3428 -0.9343
vn 0.2156 -0.0473 -0.9753
vn -0.2771 -0.2244 -0.9343
vn -0.2038 0.0849 -0.9753
vn 0.2222 -0.0186 -0.9748
vn 0.1743 0.0307 0.9842
vn 0.1537 0.3684 0.9169
vn 0.1125 0.3985 0.9102
vn -0.0791 0.2633 0.9615
vn -0.1504 -0.0037 0.9886
vn 0.1505 0.3599 0.9208
vn 0.1272 -0.0928 0.9875
vn -0.2885 0.2617 0.9210
vn -0.8218 0.5692 -0.0272
vn 0.9998 -0.0048 -0.0211
vn 0.2009 0.0833 -0.9761
vn -0.2232 0.4183 -0.8805
vn -0.3732 0.2925 -0.8805
vn -0.3439 0.1001 -0.9337
vn -0.1992 -0.1476 -0.9688
vn -0.0452 0.3577 -0.9328
vn 0.1540 0.1489 -0.9768
vn -0.2124 -0.1339 -0.9680
vn -0.0864 -0.1263 0.9882
vn 0.2281 -0.3275 0.9169
vn 0.2757 -0.3091 0.9102
vn 0.2671 -0.0733 0.9609
vn 0.0795 0.1312 0.9882
vn 0.2250 -0.3234 0.9191
vn -0.1192 -0.0821 0.9895
vn 0.3182 0.0161 0.9479
vn 0.9211 0.3884 -0.0272
vn -0.5412 -0.8406 -0.0211
vn 0.7107 0.0686 -0.7002
vn 0.7089 0.0439 -0.7039
vn 0.9632 0.0166 -0.2681
vn 0.9636 0.0261 -0.2661
vn -0.2503 0.0942 -0.9636
vn -0.2491 0.0606 -0.9666
vn 0.2491 0.0606 -0.9666
vn 0.2503 0.0942 -0.9636
vn -0.9636 0.0261 -0.2661
vn -0.9632 0.0166 -0.2681
vn -0.7089 0.0439 -0.7039
vn -0.7107 0.0686 -0.7002
vn -0.7107 -0.0692 0.7001
vn -0.7090 -0.0430 0.7039
vn -0.9632 -0.0165 0.2681
vn -0.9636 -0.0262 0.2661
vn 0.2503 -0.0952 0.9635
vn 0.2491 -0.0589 0.9667
vn -0.2491 -0.0589 0.9667
vn -0.2503 -0.0952 0.9635
vn 0.9636 -0.0262 0.2661
vn 0.9632 -0.0165 0.2681
vn 0.7090 -0.0430 0.7039
vn 0.7107 -0.0692 0.7001
vn 0.9630 -0.0304 -0.2679
vn -0.2482 -0.1089 -0.9626
vn 0.2482 -0.1089 -0.9626
vn -0.9630 -0.0304 -0.2679
vn -0.7076 -0.0795 -0.7022
vn -0.7076 0.0802 0.7021
vn -0.9630 0.0305 0.2679
vn 0.2482 0.1102 0.9624
vn -0.2482 0.1102 0.9624
vn 0.9630 0.0305 0.2679
vn 0.7076 0.0802 0.7021
vn 0.9434 -0.0705 -0.3241
vn -0.2025 -0.1858 -0.9615
vn 0.2025 -0.1858 -0.9615
vn -0.9434 -0.0705 -0.3241
vn -0.6277 -0.1511 -0.7637
vn -0.6249 0.1609 0.7639
vn -0.9451 0.0602 0.3212
vn 0.1995 0.2114 0.9568
vn -0.1995 0.2114 0.9568
vn 0.9451 0.0602 0.3212
vn 0.6249 0.1609 0.7639
vn 0.6368 0.4137 -0.6506
vn -0.2360 0.8792 -0.4139
vn -0.9600 0.2580 -0.1091
vn 0.9485 0.1812 -0.2600
vn -0.2064 0.5207 -0.8284
vn -0.6886 -0.6565 0.3081
vn 0.2182 0.8839 -0.4137
vn 0.2064 0.5207 -0.8284
vn -0.9485 0.1812 -0.2600
vn 0.2371 -0.8849 0.4009
vn -0.6892 0.6576 -0.3043
vn -0.6368 0.4137 -0.6506
vn -0.6197 -0.3540 0.7005
vn 0.9581 -0.2548 0.1313
vn -0.9581 -0.2547 0.1313
vn -0.9406 -0.1439 0.3075
vn 0.1975 -0.4373 0.8774
vn -0.2371 -0.8849 0.4009
vn -0.1975 -0.4373 0.8774
vn 0.9406 -0.1439 0.3075
vn 0.9622 0.2676 -0.0499
vn 0.6575 -0.6849 0.3140
vn 0.6197 -0.3540 0.7005
vn 0.9513 0.2848 -0.1177
vn 0.2490 0.9652 -0.0794
vn -0.7084 0.7026 -0.0677
vn -0.2490 0.9652 -0.0794
vn -0.9630 -0.2676 -0.0304
vn -0.9622 0.2676 -0.0499
vn -0.2499 -0.9682 -0.0078
vn -0.7100 -0.7040 -0.0163
vn 0.7100 -0.7040 -0.0163
vn 0.2499 -0.9682 -0.0078
vn 0.9630 -0.2676 -0.0304
vn 0.7022 0.6934 -0.1616
vn 0.9496 0.2639 -0.1690
vn -0.2479 0.9559 -0.1574
vn 0.2479 0.9559 -0.1574
vn -0.9496 0.2639 -0.1690
vn -0.7022 0.6934 -0.1616
vn -0.7007 -0.6885 -0.1869
vn -0.9488 -0.2604 -0.1786
vn 0.2471 -0.9498 -0.1920
vn -0.2472 -0.9498 -0.1920
vn 0.9488 -0.2604 -0.1786
vn 0.7007 -0.6885 -0.1869
vn 0.4576 0.5111 -0.7276
vn 0.3404 -0.6275 -0.7003
vn 0.3645 -0.6362 -0.6800
vn 0.5639 0.2329 -0.7923
vn -0.3907 -0.5753 -0.7186
vn -0.2856 -0.6548 -0.6997
vn -0.5883 0.1701 -0.7905
vn -0.6604 -0.1488 -0.7360
vn -0.1947 0.7555 -0.6256
vn -0.4369 0.4960 -0.7504
vn 0.1063 0.6970 -0.7091
vn 0.6201 -0.2354 -0.7484
vn -0.2578 -0.5118 0.8195
vn 0.2035 0.5723 0.7944
vn -0.1451 0.7101 0.6890
vn -0.3333 0.5010 0.7987
vn -0.5227 -0.1815 0.8330
vn 0.5162 0.4477 0.7301
vn -0.2439 -0.5900 0.7697
vn 0.1503 -0.5482 0.8227
vn 0.3001 -0.4963 0.8146
vn -0.4915 0.3024 0.8167
vn 0.5824 -0.0220 0.8126
vn 0.5685 0.1289 0.8125
vn -0.9477 -0.2198 0.2315
vn 0.9338 0.2578 0.2481
vn 0.3361 0.1382 0.9316
vn 0.0195 0.4876 0.8729
vn -0.4709 0.3072 0.8270
vn -0.0536 -0.0962 0.9939
vn 0.0267 0.0676 0.9974
vn -0.2671 -0.4658 0.8436
vn 0.2640 -0.4851 0.8337
vn 0.4284 0.1183 0.8958
vn 0.0341 0.0748 0.9966
vn 0.7076 -0.0795 -0.7022
vn 0.6892 0.6576 -0.3043
vn 0.6277 -0.1511 -0.7637
vn -0.7207 0.1066 0.6850
vn 0.7789 0.1094 0.6176
vn 0.7088 0.0435 0.7041
vn -0.7178 0.0493 0.6945
vn 0.7929 -0.0969 -0.6015
vn -0.7929 -0.0969 -0.6015
vn -0.7378 -0.0437 -0.6736
vn 0.7346 -0.0520 -0.6765
vn 0.9982 -0.0601 -0.0000
vn -0.9985 -0.0541 -0.0000
vn 0.1318 -0.1969 -0.9715
vn 0.2272 0.2200 -0.9487
vn 0.0769 0.3067 -0.9487
vn -0.1141 0.2496 -0.9616
vn -0.2250 0.0407 -0.9735
vn 0.2732 0.0259 -0.9616
vn 0.1477 -0.1745 -0.9735
vn -0.2365 0.0157 -0.9715
vn -0.1328 0.0751 0.9883
vn -0.1809 -0.0581 0.9818
vn -0.1227 -0.2120 0.9695
vn 0.1158 -0.1632 0.9798
vn 0.1810 -0.0344 0.9829
vn -0.1931 -0.0777 0.9781
vn -0.0701 0.1682 0.9833
vn 0.2250 -0.3180 0.9210
vn 0.6790 -0.7336 -0.0272
vn -0.9750 0.2210 -0.0211
vn -0.2369 -0.0054 -0.9715
vn 0.0635 -0.3098 -0.9487
vn 0.2174 -0.2297 -0.9487
vn 0.2718 -0.0378 -0.9616
vn 0.1552 0.1679 -0.9735
vn -0.1249 -0.2444 -0.9616
vn -0.2265 -0.0308 -0.9735
vn 0.1403 0.1910 -0.9715
vn 0.1347 0.0717 0.9883
vn 0.0481 0.1838 0.9818
vn -0.1129 0.2174 0.9695
vn -0.1998 -0.0100 0.9798
vn -0.1262 -0.1342 0.9829
vn 0.0383 0.2046 0.9781
vn 0.1796 -0.0313 0.9833
vn -0.3891 -0.0189 0.9210
vn -0.9836 -0.1785 -0.0272
vn 0.7103 0.7036 -0.0211
vn 0.1228 0.2027 -0.9715
vn -0.2954 0.1129 -0.9487
vn -0.3105 -0.0599 -0.9487
vn -0.1780 -0.2089 -0.9616
vn 0.0582 -0.2211 -0.9735
vn -0.1390 0.2367 -0.9616
vn 0.0957 0.2076 -0.9735
vn 0.0857 -0.2210 -0.9715
vn -0.0119 -0.1521 0.9883
vn 0.1291 -0.1393 0.9818
vn 0.2440 -0.0216 0.9695
vn 0.0989 0.1739 0.9798
vn -0.0454 0.1786 0.9829
vn 0.1520 -0.1422 0.9781
vn -0.1229 -0.1346 0.9833
vn 0.1931 0.3383 0.9210
vn 0.3779 0.9255 -0.0272
vn 0.2118 -0.9771 -0.0211
vn 0.7084 0.7026 -0.0677
vt 0.703647 0.570704
vt 0.703685 0.566278
vt 0.703643 0.569537
vt 0.703742 0.572829
vt 0.703844 0.571000
vt 0.703770 0.566963
vt 0.703844 0.576307
vt 0.703770 0.578474
vt 0.703643 0.571726
vt 0.703714 0.576130
vt 0.703710 0.578304
vt 0.703714 0.565057
vt 0.703710 0.564902
vt 0.703710 0.572795
vt 0.703683 0.570681
vt 0.703766 0.572806
vt 0.703928 0.574614
vt 0.703673 0.571701
vt 0.703726 0.576126
vt 0.703724 0.564895
vt 0.703729 0.565052
vt 0.703725 0.578296
vt 0.703647 0.564858
vt 0.703680 0.569717
vt 0.703643 0.569162
vt 0.703742 0.557030
vt 0.703844 0.554817
vt 0.703770 0.559228
vt 0.703844 0.553165
vt 0.703770 0.555645
vt 0.703643 0.561093
vt 0.703714 0.563543
vt 0.703710 0.559462
vt 0.703714 0.566990
vt 0.703710 0.563634
vt 0.703680 0.568603
vt 0.703683 0.564946
vt 0.703766 0.557113
vt 0.703928 0.550454
vt 0.703673 0.561184
vt 0.703726 0.563559
vt 0.703724 0.563658
vt 0.703729 0.567010
vt 0.703725 0.559488
vt 0.703639 0.573150
vt 0.703691 0.571862
vt 0.703629 0.569693
vt 0.703742 0.579437
vt 0.703844 0.583644
vt 0.703770 0.582941
vt 0.703844 0.580113
vt 0.703770 0.575281
vt 0.703642 0.576174
vt 0.703714 0.569138
vt 0.703710 0.571349
vt 0.703703 0.576507
vt 0.703709 0.580268
vt 0.703675 0.567525
vt 0.703675 0.573080
vt 0.703766 0.579371
vt 0.703928 0.584720
vt 0.703672 0.576101
vt 0.703726 0.569124
vt 0.703722 0.580249
vt 0.703718 0.576491
vt 0.703725 0.571328
vt 0.228831 0.120620
vt 0.228799 0.108978
vt 0.228772 0.108978
vt 0.228862 0.130416
vt 0.228857 0.120603
vt 0.228889 0.130438
vt 0.228893 0.120579
vt 0.228835 0.108978
vt 0.228821 0.120626
vt 0.228763 0.108978
vt 0.228853 0.130408
vt 0.228897 0.108978
vt 0.228929 0.120556
vt 0.228870 0.108978
vt 0.228955 0.120538
vt 0.228960 0.130497
vt 0.228924 0.130468
vt 0.228906 0.108978
vt 0.228987 0.130519
vt 0.228965 0.120532
vt 0.228846 0.143948
vt 0.228784 0.143806
vt 0.228810 0.143866
vt 0.228907 0.144089
vt 0.228881 0.144029
vt 0.228916 0.144111
vt 0.228996 0.130527
vt 0.228704 0.157228
vt 0.228646 0.157612
vt 0.228775 0.143785
vt 0.228671 0.157449
vt 0.228762 0.156845
vt 0.228737 0.157008
vt 0.228771 0.156787
vt 0.228823 0.162411
vt 0.229065 0.165093
vt 0.228806 0.162888
vt 0.228810 0.162764
vt 0.229072 0.164006
vt 0.228823 0.162411
vt 0.228841 0.161933
vt 0.228638 0.157669
vt 0.229078 0.162919
vt 0.228859 0.161456
vt 0.228872 0.161103
vt 0.229064 0.165256
vt 0.229079 0.162756
vt 0.228876 0.160979
vt 0.229068 0.164631
vt 0.229075 0.163381
vt 0.229223 0.164818
vt 0.229223 0.165513
vt 0.229223 0.165332
vt 0.229223 0.164123
vt 0.229223 0.162915
vt 0.229223 0.163429
vt 0.582204 0.076577
vt 0.581759 0.066816
vt 0.581759 0.070180
vt 0.582203 0.070146
vt 0.581759 0.062266
vt 0.582204 0.078846
vt 0.581759 0.071367
vt 0.582203 0.070146
vt 0.581758 0.054353
vt 0.582201 0.052747
vt 0.581758 0.057716
vt 0.582202 0.061447
vt 0.582201 0.046316
vt 0.581758 0.053165
vt 0.582235 0.073604
vt 0.582264 0.042980
vt 0.582201 0.044047
vt 0.582273 0.041119
vt 0.582249 0.073253
vt 0.582301 0.061316
vt 0.582251 0.082855
vt 0.582302 0.086580
vt 0.582247 0.061316
vt 0.582206 0.073901
vt 0.582183 0.067554
vt 0.582206 0.046578
vt 0.582192 0.049491
vt 0.582301 0.033087
vt 0.582206 0.053885
vt 0.582187 0.049818
vt 0.582178 0.061193
vt 0.582302 0.046801
vt 0.582301 0.085862
vt 0.582183 0.073912
vt 0.582302 0.046800
vt 0.582206 0.061193
vt 0.582180 0.067415
vt 0.581863 0.063486
vt 0.581861 0.061110
vt 0.581872 0.058381
vt 0.581872 0.055652
vt 0.581867 0.056740
vt 0.581872 0.065856
vt 0.581864 0.065860
vt 0.581872 0.061110
vt 0.581862 0.063434
vt 0.581865 0.056862
vt 0.580083 0.046135
vt 0.580082 0.045691
vt 0.580084 0.046599
vt 0.204855 0.059095
vt 0.204802 0.080554
vt 0.204588 0.088399
vt 0.205080 0.060029
vt 0.205086 0.029842
vt 0.205094 0.029842
vt 0.204952 0.029842
vt 0.204831 0.058995
vt 0.205068 0.059977
vt 0.205070 0.059988
vt 0.205079 0.029842
vt 0.204943 0.029842
vt 0.703565 0.573646
vt 0.703628 0.568051
vt 0.703562 0.569738
vt 0.703593 0.580754
vt 0.703658 0.582140
vt 0.703653 0.577406
vt 0.703658 0.584887
vt 0.703653 0.583364
vt 0.703549 0.577065
vt 0.703632 0.576141
vt 0.703628 0.580120
vt 0.703632 0.570409
vt 0.703628 0.573183
vt 0.703628 0.571425
vt 0.703602 0.573566
vt 0.703616 0.580679
vt 0.703706 0.586726
vt 0.703579 0.576982
vt 0.703645 0.576126
vt 0.703642 0.573161
vt 0.703647 0.570391
vt 0.703643 0.580096
vt 0.703565 0.565194
vt 0.703628 0.567638
vt 0.703562 0.569196
vt 0.703593 0.557913
vt 0.703658 0.553819
vt 0.703653 0.555540
vt 0.703658 0.556355
vt 0.703653 0.561042
vt 0.703549 0.561692
vt 0.703632 0.568220
vt 0.703628 0.565318
vt 0.703632 0.562926
vt 0.703628 0.558912
vt 0.703628 0.570754
vt 0.703602 0.565275
vt 0.703616 0.557990
vt 0.703706 0.551797
vt 0.703579 0.561777
vt 0.703645 0.568235
vt 0.703642 0.558934
vt 0.703647 0.562945
vt 0.703643 0.565343
vt 0.703565 0.569890
vt 0.703628 0.572858
vt 0.703562 0.569497
vt 0.703593 0.570606
vt 0.703658 0.573620
vt 0.703653 0.576504
vt 0.703658 0.568147
vt 0.703653 0.564633
vt 0.703549 0.570235
vt 0.703632 0.564143
vt 0.703628 0.563282
vt 0.703632 0.575563
vt 0.703628 0.577104
vt 0.703628 0.566137
vt 0.703602 0.569883
vt 0.703616 0.570598
vt 0.703706 0.571207
vt 0.703579 0.570226
vt 0.703645 0.564142
vt 0.703642 0.577102
vt 0.703647 0.575562
vt 0.703643 0.563280
vt 0.229223 0.162734
vt 0.580093 0.045169
vt 0.580087 0.044855
vt 0.580093 0.044647
vt 0.580085 0.044878
vt 0.580084 0.046145
vt 0.580093 0.046598
vt 0.580093 0.045691
s 0
usemtl Texture_Map
f 10/1/1 1/2/1 3/3/1
f 11/4/2 15/5/2 7/6/2
f 2/7/3 11/4/3 5/8/3
f 12/9/4 5/8/4 11/4/4
f 12/9/5 4/10/5 6/11/5
f 7/6/6 12/9/6 11/4/6
f 8/12/7 12/9/7 9/13/7
f 14/14/8 10/1/8 3/3/8
f 1/2/9 19/15/9 3/3/9
f 17/16/10 15/5/10 13/17/10
f 17/16/11 2/7/11 5/8/11
f 5/8/12 16/18/12 17/16/12
f 16/18/13 20/19/13 19/15/13
f 7/6/14 16/18/14 21/20/14
f 16/18/15 22/21/15 21/20/15
f 14/14/16 19/15/16 20/19/16
f 8/12/17 21/20/17 22/21/17
f 1/2/18 8/12/18 22/21/18
f 9/13/19 7/6/19 21/20/19
f 4/10/20 18/22/20 6/11/20
f 4/10/21 14/14/21 20/19/21
f 5/8/22 6/11/22 18/22/22
f 32/23/23 23/24/23 25/25/23
f 33/26/24 37/27/24 29/28/24
f 24/29/25 33/26/25 27/30/25
f 34/31/26 27/30/26 33/26/26
f 34/31/27 26/32/27 28/33/27
f 29/28/28 34/31/28 33/26/28
f 30/34/29 34/31/29 31/35/29
f 36/36/30 32/23/30 25/25/30
f 23/24/31 41/37/31 25/25/31
f 39/38/32 37/27/32 35/39/32
f 39/38/33 24/29/33 27/30/33
f 27/30/34 38/40/34 39/38/34
f 38/40/35 42/41/35 41/37/35
f 29/28/36 38/40/36 43/42/36
f 38/40/37 44/43/37 43/42/37
f 36/36/38 41/37/38 42/41/38
f 30/34/39 43/42/39 44/43/39
f 23/24/40 30/34/40 44/43/40
f 31/35/41 29/28/41 43/42/41
f 26/32/42 40/44/42 28/33/42
f 26/32/43 36/36/43 42/41/43
f 27/30/44 28/33/44 40/44/44
f 54/45/45 45/46/45 47/47/45
f 55/48/46 59/49/46 51/50/46
f 46/51/47 55/48/47 49/52/47
f 56/53/48 49/52/48 55/48/48
f 56/53/49 48/54/49 50/55/49
f 51/50/50 56/53/50 55/48/50
f 52/56/51 56/53/51 53/57/51
f 58/58/52 54/45/52 47/47/52
f 45/46/53 63/59/53 47/47/53
f 61/60/54 59/49/54 57/61/54
f 61/60/55 46/51/55 49/52/55
f 49/52/56 60/62/56 61/60/56
f 60/62/57 64/63/57 63/59/57
f 51/50/58 60/62/58 65/64/58
f 60/62/59 66/65/59 65/64/59
f 58/58/60 63/59/60 64/63/60
f 52/56/61 65/64/61 66/65/61
f 45/46/62 52/56/62 66/65/62
f 53/57/63 51/50/63 65/64/63
f 48/54/64 62/66/64 50/55/64
f 48/54/65 58/58/65 64/63/65
f 49/52/66 50/55/66 62/66/66
f 106/67/67 105/68/67 67/69/67
f 73/70/68 162/71/68 106/67/68
f 107/72/69 108/73/69 162/71/69
f 162/71/70 72/74/70 105/68/70
f 68/69/71 163/75/71 109/76/71
f 110/67/72 111/77/72 163/75/72
f 111/77/73 106/67/73 163/75/73
f 163/75/74 67/69/74 109/76/74
f 69/74/75 164/71/75 112/68/75
f 113/73/76 114/72/76 164/71/76
f 164/71/77 74/70/77 110/67/77
f 112/68/78 110/67/78 68/69/78
f 70/78/79 165/79/79 115/80/79
f 116/81/80 117/82/80 165/79/80
f 165/79/81 75/83/81 113/73/81
f 115/80/82 113/73/82 69/74/82
f 119/81/83 118/84/83 71/78/83
f 77/85/84 166/86/84 119/81/84
f 166/86/85 76/85/85 116/81/85
f 118/84/86 116/81/86 70/78/86
f 108/73/87 121/80/87 72/74/87
f 78/83/88 167/79/88 108/73/88
f 122/82/89 119/81/89 167/79/89
f 167/79/90 71/78/90 121/80/90
f 107/72/91 84/87/91 78/83/91
f 80/88/92 111/77/92 74/70/92
f 111/77/93 79/88/93 73/70/93
f 81/87/94 114/72/94 75/83/94
f 125/89/95 74/70/95 114/72/95
f 82/90/96 117/82/96 76/85/96
f 126/91/97 75/83/97 117/82/97
f 77/85/98 127/92/98 120/93/98
f 127/92/99 76/85/99 120/93/99
f 78/83/100 128/91/100 122/82/100
f 122/82/101 83/90/101 77/85/101
f 123/89/102 90/94/102 84/87/102
f 86/95/103 124/96/103 80/88/103
f 124/96/104 85/95/104 79/88/104
f 87/94/105 125/89/105 81/87/105
f 131/97/106 80/88/106 125/89/106
f 88/98/107 126/91/107 82/90/107
f 132/99/108 81/87/108 126/91/108
f 83/90/109 133/100/109 127/92/109
f 133/100/110 82/90/110 127/92/110
f 84/87/111 134/99/111 128/91/111
f 128/91/112 89/98/112 83/90/112
f 85/95/113 168/101/113 129/97/113
f 92/102/114 169/103/114 137/104/114
f 93/105/115 170/106/115 138/107/115
f 129/97/116 136/107/116 90/94/116
f 137/104/117 130/108/117 86/95/117
f 94/109/118 171/110/118 139/111/118
f 91/102/119 169/103/119 142/112/119
f 130/108/120 135/104/120 85/95/120
f 138/107/121 131/97/121 87/94/121
f 140/111/122 145/113/122 172/114/122
f 143/115/123 137/104/123 170/106/123
f 170/106/124 86/95/124 131/97/124
f 139/111/125 132/99/125 88/98/125
f 136/107/126 146/116/126 173/110/126
f 144/116/127 138/107/127 171/110/127
f 171/110/128 87/94/128 132/99/128
f 89/98/129 172/114/129 133/100/129
f 145/113/130 139/111/130 172/114/130
f 172/114/131 88/98/131 133/100/131
f 90/94/132 173/110/132 134/99/132
f 174/117/133 96/105/133 141/115/133
f 95/109/134 173/110/134 146/116/134
f 134/99/135 140/111/135 89/98/135
f 96/105/136 168/101/136 141/115/136
f 175/118/137 91/102/137 142/112/137
f 143/115/138 149/119/138 92/102/138
f 92/102/139 175/118/139 142/112/139
f 144/116/140 150/120/140 93/105/140
f 93/105/141 176/117/141 143/115/141
f 145/113/142 151/121/142 94/109/142
f 94/109/143 177/122/143 144/116/143
f 179/122/144 95/109/144 146/116/144
f 152/121/145 145/113/145 95/109/145
f 148/120/146 146/116/146 96/105/146
f 97/123/147 174/124/147 147/125/147
f 153/126/148 148/127/148 174/124/148
f 149/125/149 154/128/149 175/129/149
f 154/128/150 147/125/150 175/129/150
f 150/127/151 155/130/151 176/124/151
f 176/124/152 98/123/152 149/125/152
f 151/131/153 156/132/153 177/133/153
f 177/133/154 99/134/154 150/127/154
f 101/135/155 178/136/155 152/131/155
f 178/136/156 100/135/156 151/131/156
f 102/134/157 179/133/157 148/127/157
f 158/132/158 152/131/158 179/133/158
f 97/123/159 184/137/159 153/126/159
f 158/132/160 182/138/160 101/135/160
f 182/138/161 157/139/161 101/135/161
f 184/137/162 102/134/162 153/126/162
f 104/140/163 156/132/163 100/135/163
f 157/139/164 104/140/164 100/135/164
f 159/141/165 99/134/165 181/142/165
f 156/132/166 181/142/166 99/134/166
f 185/143/167 98/123/167 103/144/167
f 159/141/168 98/123/168 155/130/168
f 185/143/169 97/123/169 154/128/169
f 183/145/170 158/132/170 102/134/170
f 184/137/171 198/146/171 192/147/171
f 104/140/172 188/148/172 195/149/172
f 182/138/173 188/148/173 186/150/173
f 182/138/174 187/151/174 194/152/174
f 184/137/175 193/153/175 183/145/175
f 104/140/176 189/151/176 160/154/176
f 185/143/177 198/146/177 180/155/177
f 185/143/178 197/146/178 191/156/178
f 159/141/179 197/146/179 103/144/179
f 183/145/180 187/151/180 161/157/180
f 159/141/181 196/158/181 190/159/181
f 181/142/182 189/151/182 196/158/182
f 193/153/183 204/160/183 205/161/183
f 195/149/184 201/162/184 189/151/184
f 195/149/185 200/163/185 207/164/185
f 194/152/186 200/163/186 188/148/186
f 191/156/187 209/165/187 203/166/187
f 192/147/188 210/165/188 204/160/188
f 193/153/189 199/162/189 187/151/189
f 189/151/190 208/167/190 196/158/190
f 190/159/191 209/165/191 197/146/191
f 190/159/192 208/167/192 202/168/192
f 194/152/193 199/162/193 206/169/193
f 191/156/194 210/165/194 198/146/194
f 202/170/195 205/171/195 203/172/195
f 73/70/196 123/89/196 107/72/196
f 135/104/197 141/115/197 168/101/197
f 79/88/198 129/97/198 123/89/198
f 219/173/199 214/174/199 216/175/199
f 219/173/200 213/174/200 217/176/200
f 211/177/201 219/173/201 217/176/201
f 212/178/202 219/173/202 215/179/202
f 225/180/203 214/174/203 224/181/203
f 213/174/204 225/180/204 223/182/204
f 220/183/205 225/180/205 222/184/205
f 225/180/206 221/177/206 222/184/206
f 213/174/207 223/182/207 217/176/207
f 212/178/208 224/181/208 218/176/208
f 218/176/209 224/181/209 214/174/209
f 223/182/210 211/177/210 217/176/210
f 235/185/211 226/186/211 228/187/211
f 236/188/212 240/189/212 232/190/212
f 227/191/213 236/188/213 230/192/213
f 237/193/214 230/192/214 236/188/214
f 237/193/215 229/194/215 231/195/215
f 232/190/216 237/193/216 236/188/216
f 233/196/217 237/193/217 234/197/217
f 239/198/218 235/185/218 228/187/218
f 226/186/219 244/199/219 228/187/219
f 242/200/220 240/189/220 238/201/220
f 242/200/221 227/191/221 230/192/221
f 230/192/222 241/202/222 242/200/222
f 241/202/223 245/203/223 244/199/223
f 232/190/224 241/202/224 246/204/224
f 241/202/225 247/205/225 246/204/225
f 239/198/226 244/199/226 245/203/226
f 233/196/227 246/204/227 247/205/227
f 226/186/228 233/196/228 247/205/228
f 234/197/229 232/190/229 246/204/229
f 229/194/230 243/206/230 231/195/230
f 229/194/231 239/198/231 245/203/231
f 230/192/232 231/195/232 243/206/232
f 257/207/233 248/208/233 250/209/233
f 258/210/234 262/211/234 254/212/234
f 249/213/235 258/210/235 252/214/235
f 259/215/236 252/214/236 258/210/236
f 259/215/237 251/216/237 253/217/237
f 254/212/238 259/215/238 258/210/238
f 255/218/239 259/215/239 256/219/239
f 261/220/240 257/207/240 250/209/240
f 248/208/241 266/221/241 250/209/241
f 264/222/242 262/211/242 260/223/242
f 264/222/243 249/213/243 252/214/243
f 252/214/244 263/224/244 264/222/244
f 263/224/245 267/225/245 266/221/245
f 254/212/246 263/224/246 268/226/246
f 263/224/247 269/227/247 268/226/247
f 261/220/248 266/221/248 267/225/248
f 255/218/249 268/226/249 269/227/249
f 248/208/250 255/218/250 269/227/250
f 256/219/251 254/212/251 268/226/251
f 251/216/252 265/228/252 253/217/252
f 251/216/253 261/220/253 267/225/253
f 252/214/254 253/217/254 265/228/254
f 279/229/255 270/230/255 272/231/255
f 280/232/256 284/233/256 276/234/256
f 271/235/257 280/232/257 274/236/257
f 281/237/258 274/236/258 280/232/258
f 281/237/259 273/238/259 275/239/259
f 276/234/260 281/237/260 280/232/260
f 277/240/261 281/237/261 278/241/261
f 283/242/262 279/229/262 272/231/262
f 270/230/263 288/243/263 272/231/263
f 286/244/264 284/233/264 282/245/264
f 286/244/265 271/235/265 274/236/265
f 274/236/266 285/246/266 286/244/266
f 285/246/267 289/247/267 288/243/267
f 276/234/268 285/246/268 290/248/268
f 285/246/269 291/249/269 290/248/269
f 283/242/270 288/243/270 289/247/270
f 277/240/271 290/248/271 291/249/271
f 270/230/272 277/240/272 291/249/272
f 278/241/273 276/234/273 290/248/273
f 273/238/274 287/250/274 275/239/274
f 273/238/275 283/242/275 289/247/275
f 274/236/276 275/239/276 287/250/276
f 147/119/277 141/115/277 91/102/277
f 10/1/278 8/12/278 1/2/278
f 11/4/279 13/17/279 15/5/279
f 2/7/280 13/17/280 11/4/280
f 12/9/281 6/11/281 5/8/281
f 12/9/282 10/1/282 4/10/282
f 7/6/283 9/13/283 12/9/283
f 8/12/284 10/1/284 12/9/284
f 14/14/285 4/10/285 10/1/285
f 1/2/286 22/21/286 19/15/286
f 17/16/287 7/6/287 15/5/287
f 17/16/288 13/17/288 2/7/288
f 5/8/289 18/22/289 16/18/289
f 16/18/290 18/22/290 20/19/290
f 7/6/291 17/16/291 16/18/291
f 16/18/292 19/15/292 22/21/292
f 14/14/293 3/3/293 19/15/293
f 8/12/294 9/13/294 21/20/294
f 4/10/295 20/19/295 18/22/295
f 32/23/296 30/34/296 23/24/296
f 33/26/297 35/39/297 37/27/297
f 24/29/298 35/39/298 33/26/298
f 34/31/299 28/33/299 27/30/299
f 34/31/300 32/23/300 26/32/300
f 29/28/301 31/35/301 34/31/301
f 30/34/302 32/23/302 34/31/302
f 36/36/303 26/32/303 32/23/303
f 23/24/304 44/43/304 41/37/304
f 39/38/305 29/28/305 37/27/305
f 39/38/306 35/39/306 24/29/306
f 27/30/307 40/44/307 38/40/307
f 38/40/308 40/44/308 42/41/308
f 29/28/309 39/38/309 38/40/309
f 38/40/310 41/37/310 44/43/310
f 36/36/311 25/25/311 41/37/311
f 30/34/312 31/35/312 43/42/312
f 26/32/313 42/41/313 40/44/313
f 54/45/314 52/56/314 45/46/314
f 55/48/315 57/61/315 59/49/315
f 46/51/316 57/61/316 55/48/316
f 56/53/317 50/55/317 49/52/317
f 56/53/318 54/45/318 48/54/318
f 51/50/319 53/57/319 56/53/319
f 52/56/320 54/45/320 56/53/320
f 58/58/321 48/54/321 54/45/321
f 45/46/322 66/65/322 63/59/322
f 61/60/323 51/50/323 59/49/323
f 61/60/324 57/61/324 46/51/324
f 49/52/325 62/66/325 60/62/325
f 60/62/326 62/66/326 64/63/326
f 51/50/327 61/60/327 60/62/327
f 60/62/328 63/59/328 66/65/328
f 58/58/329 47/47/329 63/59/329
f 52/56/330 53/57/330 65/64/330
f 48/54/331 64/63/331 62/66/331
f 106/67/332 162/71/332 105/68/332
f 73/70/333 107/72/333 162/71/333
f 107/72/334 78/83/334 108/73/334
f 162/71/335 108/73/335 72/74/335
f 68/69/336 110/67/336 163/75/336
f 110/67/337 74/70/337 111/77/337
f 111/77/338 73/70/338 106/67/338
f 163/75/339 106/67/339 67/69/339
f 69/74/340 113/73/340 164/71/340
f 113/73/341 75/83/341 114/72/341
f 164/71/342 114/72/342 74/70/342
f 112/68/343 164/71/343 110/67/343
f 70/78/344 116/81/344 165/79/344
f 116/81/345 76/85/345 117/82/345
f 165/79/346 117/82/346 75/83/346
f 115/80/347 165/79/347 113/73/347
f 119/81/348 166/86/348 118/84/348
f 77/85/349 120/93/349 166/86/349
f 166/86/350 120/93/350 76/85/350
f 118/84/351 166/86/351 116/81/351
f 108/73/352 167/79/352 121/80/352
f 78/83/353 122/82/353 167/79/353
f 122/82/354 77/85/354 119/81/354
f 167/79/355 119/81/355 71/78/355
f 107/72/356 123/89/356 84/87/356
f 80/88/357 124/96/357 111/77/357
f 111/77/358 124/96/358 79/88/358
f 81/87/359 125/89/359 114/72/359
f 125/89/360 80/88/360 74/70/360
f 82/90/361 126/91/361 117/82/361
f 126/91/362 81/87/362 75/83/362
f 77/85/363 83/90/363 127/92/363
f 127/92/364 82/90/364 76/85/364
f 78/83/365 84/87/365 128/91/365
f 122/82/366 128/91/366 83/90/366
f 123/89/367 129/97/367 90/94/367
f 86/95/368 130/108/368 124/96/368
f 124/96/369 130/108/369 85/95/369
f 87/94/370 131/97/370 125/89/370
f 131/97/371 86/95/371 80/88/371
f 88/98/372 132/99/372 126/91/372
f 132/99/373 87/94/373 81/87/373
f 83/90/374 89/98/374 133/100/374
f 133/100/375 88/98/375 82/90/375
f 84/87/376 90/94/376 134/99/376
f 128/91/377 134/99/377 89/98/377
f 85/95/378 135/104/378 168/101/378
f 92/102/379 142/112/379 169/103/379
f 93/105/380 143/115/380 170/106/380
f 129/97/381 168/101/381 136/107/381
f 137/104/382 169/103/382 130/108/382
f 94/109/383 144/116/383 171/110/383
f 91/102/384 135/104/384 169/103/384
f 130/108/385 169/103/385 135/104/385
f 138/107/386 170/106/386 131/97/386
f 140/111/387 95/109/387 145/113/387
f 143/115/388 92/102/388 137/104/388
f 170/106/389 137/104/389 86/95/389
f 139/111/390 171/110/390 132/99/390
f 136/107/391 96/105/391 146/116/391
f 144/116/392 93/105/392 138/107/392
f 171/110/393 138/107/393 87/94/393
f 89/98/394 140/111/394 172/114/394
f 145/113/395 94/109/395 139/111/395
f 172/114/396 139/111/396 88/98/396
f 90/94/397 136/107/397 173/110/397
f 174/117/398 148/120/398 96/105/398
f 95/109/399 140/111/399 173/110/399
f 134/99/400 173/110/400 140/111/400
f 96/105/401 136/107/401 168/101/401
f 175/118/402 147/119/402 91/102/402
f 143/115/403 176/117/403 149/119/403
f 92/102/404 149/119/404 175/118/404
f 144/116/405 177/122/405 150/120/405
f 93/105/406 150/120/406 176/117/406
f 145/113/407 178/251/407 151/121/407
f 94/109/408 151/121/408 177/122/408
f 179/122/409 152/121/409 95/109/409
f 152/121/410 178/251/410 145/113/410
f 148/120/411 179/122/411 146/116/411
f 97/123/412 153/126/412 174/124/412
f 153/126/413 102/134/413 148/127/413
f 149/125/414 98/123/414 154/128/414
f 154/128/415 97/123/415 147/125/415
f 150/127/416 99/134/416 155/130/416
f 176/124/417 155/130/417 98/123/417
f 151/131/418 100/135/418 156/132/418
f 177/133/419 156/132/419 99/134/419
f 101/135/420 157/139/420 178/136/420
f 178/136/421 157/139/421 100/135/421
f 102/134/422 158/132/422 179/133/422
f 158/132/423 101/135/423 152/131/423
f 97/123/424 180/155/424 184/137/424
f 158/132/425 161/157/425 182/138/425
f 182/138/426 186/150/426 157/139/426
f 184/137/427 183/145/427 102/134/427
f 104/140/428 160/154/428 156/132/428
f 157/139/429 186/150/429 104/140/429
f 159/141/430 155/130/430 99/134/430
f 156/132/431 160/154/431 181/142/431
f 185/143/432 154/128/432 98/123/432
f 159/141/433 103/144/433 98/123/433
f 185/143/434 180/155/434 97/123/434
f 183/145/435 161/157/435 158/132/435
f 184/137/436 180/155/436 198/146/436
f 104/140/437 186/150/437 188/148/437
f 182/138/438 194/152/438 188/148/438
f 182/138/439 161/157/439 187/151/439
f 184/137/440 192/147/440 193/153/440
f 104/140/441 195/149/441 189/151/441
f 185/143/442 191/156/442 198/146/442
f 185/143/443 103/144/443 197/146/443
f 159/141/444 190/159/444 197/146/444
f 183/145/445 193/153/445 187/151/445
f 159/141/446 181/142/446 196/158/446
f 181/142/447 160/154/447 189/151/447
f 193/153/448 192/147/448 204/160/448
f 195/149/184 207/164/184 201/162/184
f 195/149/185 188/148/185 200/163/185
f 194/152/186 206/169/186 200/163/186
f 191/156/187 197/146/187 209/165/187
f 192/147/188 198/146/188 210/165/188
f 193/153/189 205/161/189 199/162/189
f 189/151/449 201/162/449 208/167/449
f 190/159/191 202/168/191 209/165/191
f 190/159/192 196/158/192 208/167/192
f 194/152/193 187/151/193 199/162/193
f 191/156/194 203/166/194 210/165/194
f 201/252/450 207/253/450 202/170/450
f 207/253/451 200/254/451 206/255/451
f 206/255/452 199/252/452 205/171/452
f 205/171/453 204/256/453 203/172/453
f 206/255/454 205/171/454 202/170/454
f 204/256/455 210/257/455 203/172/455
f 203/172/456 209/257/456 202/170/456
f 202/170/457 208/258/457 201/252/457
f 207/253/458 206/255/458 202/170/458
f 73/70/459 79/88/459 123/89/459
f 135/104/460 91/102/460 141/115/460
f 79/88/461 85/95/461 129/97/461
f 219/173/462 218/176/462 214/174/462
f 219/173/463 216/175/463 213/174/463
f 211/177/464 215/179/464 219/173/464
f 212/178/465 218/176/465 219/173/465
f 225/180/466 216/175/466 214/174/466
f 213/174/467 216/175/467 225/180/467
f 220/183/468 223/182/468 225/180/468
f 225/180/469 224/181/469 221/177/469
f 212/178/470 221/177/470 224/181/470
f 223/182/471 220/183/471 211/177/471
f 235/185/472 233/196/472 226/186/472
f 236/188/473 238/201/473 240/189/473
f 227/191/474 238/201/474 236/188/474
f 237/193/475 231/195/475 230/192/475
f 237/193/476 235/185/476 229/194/476
f 232/190/477 234/197/477 237/193/477
f 233/196/478 235/185/478 237/193/478
f 239/198/479 229/194/479 235/185/479
f 226/186/480 247/205/480 244/199/480
f 242/200/481 232/190/481 240/189/481
f 242/200/482 238/201/482 227/191/482
f 230/192/483 243/206/483 241/202/483
f 241/202/484 243/206/484 245/203/484
f 232/190/485 242/200/485 241/202/485
f 241/202/486 244/199/486 247/205/486
f 239/198/487 228/187/487 244/199/487
f 233/196/488 234/197/488 246/204/488
f 229/194/489 245/203/489 243/206/489
f 257/207/490 255/218/490 248/208/490
f 258/210/491 260/223/491 262/211/491
f 249/213/492 260/223/492 258/210/492
f 259/215/493 253/217/493 252/214/493
f 259/215/494 257/207/494 251/216/494
f 254/212/495 256/219/495 259/215/495
f 255/218/496 257/207/496 259/215/496
f 261/220/497 251/216/497 257/207/497
f 248/208/498 269/227/498 266/221/498
f 264/222/499 254/212/499 262/211/499
f 264/222/500 260/223/500 249/213/500
f 252/214/501 265/228/501 263/224/501
f 263/224/502 265/228/502 267/225/502
f 254/212/503 264/222/503 263/224/503
f 263/224/504 266/221/504 269/227/504
f 261/220/505 250/209/505 266/221/505
f 255/218/506 256/219/506 268/226/506
f 251/216/507 267/225/507 265/228/507
f 279/229/508 277/240/508 270/230/508
f 280/232/509 282/245/509 284/233/509
f 271/235/510 282/245/510 280/232/510
f 281/237/511 275/239/511 274/236/511
f 281/237/512 279/229/512 273/238/512
f 276/234/513 278/241/513 281/237/513
f 277/240/514 279/229/514 281/237/514
f 283/242/515 273/238/515 279/229/515
f 270/230/516 291/249/516 288/243/516
f 286/244/517 276/234/517 284/233/517
f 286/244/518 282/245/518 271/235/518
f 274/236/519 287/250/519 285/246/519
f 285/246/520 287/250/520 289/247/520
f 276/234/521 286/244/521 285/246/521
f 285/246/522 288/243/522 291/249/522
f 283/242/523 272/231/523 288/243/523
f 277/240/524 278/241/524 290/248/524
f 273/238/525 289/247/525 287/250/525
f 147/119/526 174/117/526 141/115/526
