# Blender 4.4.0
# www.blender.org
mtllib Env_Pebbles_03.mtl
o Env_Pebbles_03
v -0.049312 0.000000 0.049046
v -0.049312 0.000000 -0.049579
v 0.049312 0.000000 0.049046
v 0.049312 0.000000 -0.049579
v -0.060118 0.000000 -0.000266
v -0.036203 0.027900 -0.069406
v 0.000000 0.000000 -0.060385
v 0.060118 0.027900 -0.060385
v 0.060118 0.000000 -0.000266
v 0.000000 0.000000 0.061983
v 0.000000 0.027900 -0.083062
v 0.076559 0.027900 -0.016801
v -0.069169 0.027900 0.035859
v -0.054751 0.013230 0.054485
v 0.066528 0.039045 0.027971
v -0.080172 0.027900 0.006689
v -0.069493 0.027900 -0.016046
v 0.022582 0.060940 -0.010272
v 0.039805 0.040065 -0.060385
v 0.000000 0.038037 -0.076677
v 0.023131 0.050618 0.038678
v -0.023822 0.059652 0.012889
v -0.047251 0.044323 0.027008
v -0.048980 0.040495 0.038028
v -0.040817 0.033107 0.047911
v -0.014423 0.031089 0.049763
v -0.002971 0.038432 0.043108
v -0.055801 0.038859 -0.019643
vn -0.8910 -0.4098 -0.1953
vn -0.7447 -0.6053 0.2809
vn -0.1841 -0.5105 -0.8400
vn -0.4120 0.5332 0.7389
vn 0.1676 -0.6218 -0.7650
vn 0.7993 -0.5748 -0.1752
vn 0.3786 0.9145 -0.1428
vn 0.2972 0.9349 0.1938
vn 0.9316 -0.3006 0.2042
vn 0.0975 0.9302 -0.3540
vn 0.3041 0.5077 -0.8061
vn 0.5387 0.8301 -0.1438
vn -0.4333 0.9009 -0.0261
vn -0.5340 0.8212 0.2014
vn -0.6349 0.6633 -0.3961
vn 0.3101 0.3421 0.8870
vn -0.7949 -0.4783 -0.3734
vn -0.0660 0.0511 0.9965
vn 0.2275 0.4434 0.8670
vn -0.2306 0.8261 0.5142
vn -0.2236 0.7184 0.6587
vn -0.2358 0.9406 -0.2442
vn -0.3041 0.5077 -0.8061
vn -0.2454 0.2539 0.9356
vn -0.0006 0.6720 0.7405
vn -0.8482 0.0225 -0.5292
vn -0.8398 -0.5107 0.1840
vn -0.8394 -0.4624 0.2856
vn -0.2809 -0.6053 -0.7447
vn 0.3158 -0.4466 -0.8372
vn 0.8372 -0.4466 -0.3158
vn 0.0752 0.9759 0.2049
vn 0.8899 -0.3540 0.2875
vn 0.5056 0.8442 -0.1779
vn -0.5466 0.8374 0.0021
vn -0.6428 0.7040 -0.3020
vn 0.0580 0.2290 0.9717
vn 0.5513 -0.1131 0.8266
vn 0.2203 0.4437 0.8687
vn 0.3525 0.8655 0.3559
vn -0.3146 0.8934 -0.3206
vn -0.2104 0.9044 -0.3712
vn -0.0382 0.8052 0.5918
vt 0.484206 0.683103
vt 0.483979 0.647183
vt 0.484312 0.647183
vt 0.484557 0.683103
vt 0.484360 0.683103
vt 0.483844 0.683103
vt 0.483905 0.647183
vt 0.484639 0.689808
vt 0.484683 0.664217
vt 0.483752 0.683103
vt 0.484201 0.683103
vt 0.483905 0.683103
vt 0.484504 0.697452
vt 0.484245 0.725642
vt 0.484576 0.712352
vt 0.484646 0.647183
vt 0.483795 0.696155
vt 0.483905 0.698765
vt 0.484181 0.697212
vt 0.484497 0.704247
vt 0.484651 0.687209
vt 0.484606 0.696663
vt 0.484734 0.647183
vt 0.484402 0.723982
vt 0.484572 0.699320
s 0
usemtl Texture_Map
f 17/1/1 2/2/1 5/3/1
f 13/4/2 16/5/2 5/3/2
f 6/6/3 7/7/3 2/2/3
f 25/8/4 13/4/4 14/9/4
f 11/10/5 4/2/5 7/7/5
f 4/2/6 12/11/6 9/3/6
f 8/12/7 15/13/7 12/11/7
f 18/14/8 21/15/8 15/13/8
f 9/3/9 15/13/9 3/16/9
f 20/17/10 18/14/10 19/18/10
f 11/10/11 19/18/11 8/12/11
f 8/12/12 18/14/12 15/13/12
f 28/19/13 16/5/13 23/20/13
f 13/4/14 23/20/14 16/5/14
f 17/1/15 28/19/15 6/6/15
f 21/15/16 3/16/16 15/13/16
f 16/5/17 17/1/17 5/3/17
f 25/8/18 1/16/18 26/21/18
f 27/22/19 10/23/19 3/16/19
f 23/20/20 25/8/20 22/24/20
f 21/15/21 22/24/21 27/22/21
f 20/17/22 28/19/22 18/14/22
f 6/6/23 20/17/23 11/10/23
f 10/23/24 26/21/24 1/16/24
f 27/22/25 25/8/25 26/21/25
f 17/1/26 6/6/26 2/2/26
f 5/3/27 1/16/27 13/4/27
f 1/16/28 14/9/28 13/4/28
f 6/6/29 11/10/29 7/7/29
f 25/8/4 24/25/4 13/4/4
f 11/10/30 8/12/30 4/2/30
f 4/2/31 8/12/31 12/11/31
f 18/14/32 22/24/32 21/15/32
f 9/3/33 12/11/33 15/13/33
f 11/10/11 20/17/11 19/18/11
f 8/12/34 19/18/34 18/14/34
f 23/20/35 22/24/35 28/19/35
f 28/19/36 17/1/36 16/5/36
f 13/4/14 24/25/14 23/20/14
f 21/15/37 27/22/37 3/16/37
f 25/8/38 14/9/38 1/16/38
f 27/22/39 26/21/39 10/23/39
f 23/20/40 24/25/40 25/8/40
f 6/6/41 28/19/41 20/17/41
f 28/19/42 22/24/42 18/14/42
f 27/22/43 22/24/43 25/8/43
