# Blender 4.4.0
# www.blender.org
mtllib Env_Grass_Patch_Green_05.mtl
o Env_Grass_Patch_Green_05
v -0.040684 0.000000 -0.023154
v 0.014965 0.000000 -0.022611
v 0.030103 0.374123 -0.053734
v -0.012598 0.000000 -0.009647
v -0.040172 0.268222 -0.026769
v 0.019947 0.266089 -0.027229
v -0.010254 0.267430 -0.012626
v -0.040162 0.268383 -0.032432
v -0.040688 0.000000 -0.024769
v -0.012650 0.000000 -0.014840
v 0.014943 0.000000 -0.024254
v 0.019993 0.265685 -0.032903
v 0.025721 0.410898 -0.072511
v -0.000148 0.377291 -0.053503
v -0.010204 0.267323 -0.018299
v 0.023400 0.321297 -0.010246
v 0.010671 0.000000 -0.013250
v 0.020405 0.000000 0.029232
v 0.041086 0.333996 -0.000600
v 0.005454 0.000000 0.010041
v 0.012239 0.294023 -0.022174
v 0.017786 0.297890 0.012232
v 0.021154 0.321429 -0.009690
v 0.014421 0.293906 -0.022701
v 0.011898 0.000000 -0.013505
v 0.009403 0.000000 0.009204
v 0.021656 0.000000 0.028959
v 0.020059 0.297911 0.011628
v 0.060254 0.354333 -0.011762
v 0.037779 0.328908 -0.022958
v -0.028328 0.000000 -0.052673
v 0.003584 0.000000 -0.047790
v 0.030432 0.265979 -0.139583
v -0.013197 0.000000 -0.042976
v 0.000079 0.221515 -0.112092
v 0.023608 0.219780 -0.108623
v 0.015734 0.241521 -0.119935
v 0.000231 0.221207 -0.113451
v -0.028222 0.000000 -0.053556
v -0.012868 0.000000 -0.045810
v 0.003687 0.000000 -0.048693
v 0.023749 0.219473 -0.109983
v 0.030571 0.292780 -0.165839
v 0.015291 0.267155 -0.141990
v 0.015861 0.241286 -0.121262
v -0.098345 0.305547 0.033269
v -0.052389 0.000000 0.017451
v -0.031601 0.000000 -0.020281
v -0.112780 0.359724 0.018385
v -0.032792 0.000000 0.003625
v -0.099470 0.233232 0.046697
v -0.081744 0.274517 0.017285
v -0.096469 0.306145 0.034309
v -0.101334 0.233436 0.045618
v -0.053510 0.000000 0.016812
v -0.036356 0.000000 0.001594
v -0.032728 0.000000 -0.020922
v -0.083551 0.274521 0.016257
v -0.145113 0.389982 0.017870
v -0.123052 0.354543 0.036666
v -0.081041 0.000000 -0.040294
v -0.045725 0.000000 -0.064740
v -0.185817 0.309752 -0.122922
v -0.057568 0.000000 -0.044174
v -0.145739 0.177621 -0.063715
v -0.104633 0.204915 -0.087558
v -0.118705 0.194796 -0.066724
v -0.148169 0.177166 -0.067368
v -0.081733 0.000000 -0.041317
v -0.059806 0.000000 -0.047452
v -0.046437 0.000000 -0.065782
v -0.107003 0.204103 -0.091078
v -0.219728 0.336034 -0.135898
v -0.204659 0.305782 -0.109426
v -0.121136 0.193984 -0.070349
v -0.123563 0.331812 -0.090473
v -0.052498 0.000000 -0.071948
v -0.021890 0.000000 -0.043085
v -0.105816 0.347160 -0.099060
v -0.044131 0.000000 -0.050133
v -0.135985 0.291696 -0.092540
v -0.111646 0.304248 -0.069445
v -0.123381 0.332031 -0.088030
v -0.134309 0.293109 -0.093987
v -0.051653 0.000000 -0.072853
v -0.041422 0.000000 -0.053039
v -0.021035 0.000000 -0.044013
v -0.110032 0.304683 -0.070930
v -0.107754 0.372431 -0.130639
v -0.119967 0.346550 -0.111433
v -0.050354 0.000000 -0.038752
v -0.081914 0.000000 -0.041413
v -0.183213 0.197104 0.023669
v -0.065565 0.000000 -0.047387
v -0.137196 0.176496 -0.000582
v -0.160796 0.172487 -0.002268
v -0.159385 0.190495 0.004676
v -0.137297 0.174792 0.000925
v -0.050416 0.000000 -0.037861
v -0.065779 0.000000 -0.044543
v -0.081988 0.000000 -0.040505
v -0.160903 0.170967 -0.000760
v -0.191416 0.213718 0.049063
v -0.167240 0.203879 0.024935
v -0.159364 0.189591 0.006242
v -0.219612 0.217637 -0.002029
v -0.086482 0.000000 -0.011648
v -0.090182 0.000000 -0.053718
v -0.259624 0.218556 -0.010919
v -0.078209 0.000000 -0.033777
v -0.197244 0.214598 0.012453
v -0.202011 0.214768 -0.022502
v -0.217346 0.219553 -0.002236
v -0.199432 0.212855 0.012669
v -0.087729 0.000000 -0.011528
v -0.082166 0.000000 -0.033407
v -0.091435 0.000000 -0.053600
v -0.204205 0.213021 -0.022314
v -0.303935 0.238075 0.005061
v -0.256553 0.218367 0.012275
v 0.091009 0.000000 0.071523
v 0.039340 0.000000 0.088653
v 0.116736 0.394274 0.195037
v 0.061416 0.000000 0.067256
v 0.126921 0.241942 0.120147
v 0.063579 0.263638 0.134757
v 0.090933 0.258197 0.113993
v 0.128466 0.241718 0.125585
v 0.091478 0.000000 0.073064
v 0.062940 0.000000 0.072234
v 0.039828 0.000000 0.090255
v 0.065119 0.263155 0.140008
v 0.143367 0.430507 0.218483
v 0.145433 0.393138 0.186327
v 0.092523 0.257494 0.119382
v 0.052056 0.256307 0.038438
v 0.046091 0.000000 0.044865
v 0.020656 0.000000 0.067411
v 0.052522 0.269624 0.053397
v 0.027995 0.000000 0.049715
v 0.059084 0.230469 0.029191
v 0.037758 0.236227 0.046865
v 0.051049 0.256218 0.037138
v 0.060245 0.229931 0.030425
v 0.046754 0.000000 0.045634
v 0.030139 0.000000 0.052198
v 0.021343 0.000000 0.068209
v 0.038771 0.236413 0.048134
v 0.071747 0.294422 0.061215
v 0.065876 0.263831 0.042152
v 0.048332 0.000000 0.044746
v 0.077520 0.000000 0.057024
v 0.162652 0.229661 0.020117
v 0.060376 0.000000 0.057843
v 0.115900 0.207166 0.030498
v 0.140585 0.196466 0.039841
v 0.137599 0.219356 0.032002
v 0.116419 0.206913 0.029029
v 0.048649 0.000000 0.043900
v 0.061386 0.000000 0.055130
v 0.077841 0.000000 0.056165
v 0.141105 0.196219 0.038358
v 0.173659 0.248960 -0.002166
v 0.146606 0.239612 0.014191
v 0.138127 0.219154 0.030506
v 0.182175 0.242455 0.053332
v 0.089990 0.000000 0.029898
v 0.081894 0.000000 0.071564
v 0.212427 0.249178 0.072128
v 0.076148 0.000000 0.048493
v 0.169672 0.236017 0.034260
v 0.162875 0.236017 0.068974
v 0.179805 0.244001 0.052873
v 0.171967 0.234638 0.034695
v 0.091187 0.000000 0.030168
v 0.079972 0.000000 0.049349
v 0.083107 0.000000 0.071830
v 0.165168 0.234631 0.069434
v 0.253838 0.275374 0.069751
v 0.216969 0.249429 0.049188
v 0.058218 0.317012 -0.060487
v 0.012194 0.000000 -0.041607
v 0.050028 0.000000 -0.061324
v 0.068582 0.327823 -0.084476
v 0.035931 0.000000 -0.042306
v 0.033827 0.292005 -0.041494
v 0.064053 0.292756 -0.057424
v 0.058972 0.317190 -0.058321
v 0.032983 0.291854 -0.043532
v 0.011597 0.000000 -0.042717
v 0.034029 0.000000 -0.045866
v 0.049429 0.000000 -0.062462
v 0.063219 0.292622 -0.059463
v 0.058482 0.347910 -0.108445
v 0.049346 0.324904 -0.074487
v 0.027472 0.000000 -0.027196
v 0.044437 0.000000 0.000352
v 0.153874 0.227407 -0.036706
v 0.029818 0.000000 -0.009515
v 0.098798 0.207428 -0.044424
v 0.113432 0.199907 -0.024234
v 0.120184 0.217493 -0.036218
v 0.100097 0.206844 -0.045198
v 0.028222 0.000000 -0.027673
v 0.032214 0.000000 -0.011050
v 0.045197 0.000000 -0.000139
v 0.114747 0.199309 -0.025017
v 0.178674 0.246731 -0.053275
v 0.144055 0.233754 -0.049626
v 0.121533 0.216848 -0.036994
v 0.003717 0.320472 0.103898
v 0.014783 0.000000 0.017439
v 0.012082 0.000000 0.060619
v 0.017269 0.337857 0.121267
v 0.003072 0.000000 0.038125
v 0.003229 0.281300 0.081203
v 0.001692 0.257389 0.115331
v 0.001736 0.319344 0.103859
v 0.005226 0.282673 0.081282
v 0.016042 0.000000 0.017541
v 0.007140 0.000000 0.038434
v 0.013376 0.000000 0.060709
v 0.003713 0.259287 0.115324
v 0.042191 0.378229 0.125950
v 0.018616 0.344290 0.100694
v -0.007729 0.000000 0.044513
v -0.026176 0.000000 0.017531
v -0.115663 0.087118 0.143654
v -0.010816 0.000000 0.026746
v -0.070197 0.081575 0.130193
v -0.085153 0.085573 0.107922
v -0.087019 0.085737 0.130974
v -0.071545 0.080137 0.131029
v -0.008477 0.000000 0.045039
v -0.013209 0.000000 0.028406
v -0.026943 0.000000 0.018057
v -0.086509 0.084129 0.108746
v -0.138638 0.101113 0.172762
v -0.105959 0.085113 0.158217
v -0.088400 0.084251 0.131825
vn -0.2214 0.4224 0.8790
vn -0.3924 0.3522 0.8497
vn -0.4271 0.0130 0.9041
vn 0.4355 0.0062 0.9002
vn -0.4374 -0.1302 -0.8898
vn 0.3962 -0.3126 -0.8633
vn 0.3338 -0.0153 -0.9425
vn -0.3228 -0.0247 -0.9461
vn 0.9998 -0.0186 0.0093
vn 0.9958 -0.0901 0.0144
vn -1.0000 0.0019 0.0026
vn -0.9381 0.3463 0.0083
vn 0.6686 -0.5567 -0.4930
vn 0.7110 -0.4706 0.5224
vn 0.9940 -0.0051 0.1092
vn 0.8495 -0.0261 -0.5269
vn -0.6036 0.7365 0.3054
vn -0.6692 0.4772 -0.5696
vn -0.9758 -0.0014 -0.2186
vn -0.9933 0.0419 -0.1076
vn 0.2132 0.0575 0.9753
vn 0.2514 0.1760 0.9517
vn -0.2362 -0.0282 -0.9713
vn -0.2252 0.1432 -0.9637
vn -0.2067 0.6852 0.6984
vn -0.4075 0.5916 0.6957
vn -0.5175 0.2830 0.8075
vn -0.3654 0.3221 0.8734
vn -0.1984 -0.5058 -0.8395
vn 0.3747 -0.5747 -0.7276
vn 0.4314 -0.2871 -0.8552
vn -0.1661 -0.2511 -0.9536
vn 0.9918 -0.0590 0.1133
vn 0.9907 -0.0672 0.1181
vn -0.9884 0.0950 -0.1184
vn -0.9632 0.2182 -0.1571
vn -0.9211 -0.3101 -0.2355
vn -0.3995 -0.1386 -0.9062
vn -0.6630 -0.0436 -0.7473
vn -0.9747 -0.1592 -0.1571
vn 0.3214 0.3583 0.8765
vn 0.3436 0.1435 0.9281
vn 0.5764 0.0139 0.8170
vn 0.8550 0.1274 0.5027
vn 0.4839 0.2048 -0.8508
vn 0.4861 0.1881 -0.8534
vn -0.4842 -0.2044 0.8508
vn -0.5029 -0.0263 0.8639
vn -0.0061 0.4363 0.8998
vn -0.0848 0.2999 0.9502
vn 0.1603 0.1862 0.9694
vn 0.8230 0.3132 0.4739
vn -0.5165 -0.5762 -0.6334
vn 0.0700 -0.2821 -0.9568
vn -0.2619 -0.2358 -0.9359
vn -0.7684 -0.3091 -0.5604
vn 0.8133 0.1719 -0.5559
vn 0.7289 0.3701 -0.5760
vn -0.8078 -0.2222 0.5460
vn -0.8100 -0.1724 0.5606
vn 0.0804 -0.5559 -0.8274
vn 0.9638 -0.2657 -0.0215
vn 0.8683 0.2125 -0.4483
vn 0.4045 0.0374 -0.9137
vn -0.2579 0.7466 0.6133
vn -0.9550 0.2936 0.0428
vn -0.9075 -0.2352 0.3481
vn -0.9325 -0.1873 0.3087
vn 0.6192 0.2472 0.7453
vn 0.5493 0.4228 0.7208
vn -0.7079 -0.2493 -0.6608
vn -0.6025 -0.0969 -0.7922
vn -0.2532 0.7700 -0.5856
vn 0.4290 0.8212 -0.3762
vn 0.4534 0.3958 -0.7986
vn 0.1814 0.3414 -0.9223
vn 0.4814 -0.3430 0.8066
vn -0.4307 -0.7954 0.4265
vn -0.3701 -0.3728 0.8509
vn 0.2402 -0.1133 0.9641
vn -0.8716 -0.3129 -0.3774
vn -0.8469 -0.3432 -0.4062
vn 0.8457 0.3245 0.4237
vn 0.7763 0.3911 0.4944
vn -0.0618 -0.9823 0.1766
vn -0.0930 -0.9773 -0.1903
vn -0.8735 -0.4332 -0.2221
vn -0.7989 -0.4768 0.3667
vn 0.1113 0.7685 -0.6301
vn 0.0608 0.9680 0.2434
vn 0.8561 0.4059 0.3200
vn 0.7692 0.4180 0.4833
vn -0.0935 0.0953 -0.9910
vn -0.1872 0.1304 -0.9736
vn 0.0952 -0.0624 0.9935
vn 0.0045 0.1175 0.9931
vn 0.0815 0.4985 -0.8630
vn 0.3090 0.3493 -0.8846
vn 0.1405 0.1750 -0.9745
vn -0.6812 0.2051 -0.7028
vn 0.4568 -0.4911 0.7417
vn -0.2981 -0.3264 0.8970
vn -0.0284 -0.2081 0.9777
vn 0.6011 -0.2102 0.7710
vn -0.9560 0.0370 0.2909
vn -0.9251 0.2409 0.2936
vn 0.9534 -0.0833 -0.2899
vn 0.9619 0.0018 -0.2732
vn 0.8509 -0.4053 0.3343
vn -0.0836 -0.3133 0.9459
vn 0.3671 0.0399 0.9293
vn 0.8762 -0.0237 0.4814
vn -0.6241 0.6297 -0.4626
vn 0.1444 0.3327 -0.9319
vn -0.2586 -0.0510 -0.9646
vn -0.6055 0.0154 -0.7957
vn -0.7531 0.1109 0.6485
vn -0.7768 0.2287 0.5868
vn 0.7062 -0.0876 -0.7026
vn 0.7465 0.1034 -0.6574
vn -0.0004 0.7560 0.6546
vn -0.4310 0.6963 0.5740
vn -0.7076 0.2755 0.6507
vn -0.4090 0.2475 0.8783
vn -0.2384 -0.3421 -0.9089
vn 0.4176 -0.6660 -0.6181
vn 0.6384 -0.2611 -0.7241
vn 0.0624 -0.1101 -0.9920
vn 0.9043 -0.2607 0.3379
vn 0.8611 -0.3577 0.3614
vn -0.9017 0.2709 -0.3369
vn -0.7611 0.5386 -0.3614
vn 0.2986 -0.9436 -0.1431
vn 0.2202 -0.9367 0.2723
vn 0.8253 -0.2934 0.4825
vn 0.9354 -0.3285 -0.1305
vn -0.4302 0.7285 0.5330
vn -0.1675 0.9358 -0.3102
vn -0.7721 0.2713 -0.5747
vn -0.7278 0.3201 -0.6065
vn -0.1584 0.0652 0.9852
vn -0.1036 0.1548 0.9825
vn 0.1642 -0.0372 -0.9857
vn 0.2628 0.1364 -0.9552
vn -0.8647 -0.1967 -0.4622
vn 0.3153 -0.7272 -0.6098
vn -0.1390 0.0074 -0.9903
vn -0.7324 0.0415 -0.6796
vn 0.4235 0.7742 0.4704
vn -0.3609 0.7398 0.5679
vn 0.0294 -0.0026 0.9996
vn 0.0491 0.0468 0.9977
vn 0.9257 -0.0393 -0.3762
vn 0.8689 -0.3678 -0.3313
vn -0.9236 0.0683 0.3772
vn -0.7442 0.6142 0.2624
vn -0.2220 0.7831 0.5810
vn -0.4770 0.8579 0.1911
vn -0.9351 0.3319 0.1241
vn -0.9199 0.3886 0.0519
vn 0.2043 -0.6047 -0.7698
vn 0.4867 -0.8365 -0.2517
vn 0.9156 -0.3368 -0.2199
vn 0.6127 -0.3048 -0.7291
vn 0.5409 -0.0838 0.8369
vn 0.4221 -0.2221 0.8789
vn -0.5330 0.1136 -0.8385
vn -0.3306 0.3994 -0.8551
vn 0.8313 -0.1021 -0.5464
vn 0.6937 -0.3492 0.6299
vn 0.9187 -0.0531 0.3914
vn 0.9589 0.0923 -0.2685
vn -0.8404 0.4926 0.2260
vn -0.6615 0.3644 -0.6555
vn -0.8677 0.0757 -0.4912
vn -0.9999 -0.0016 -0.0125
vn -0.0680 -0.2101 0.9753
vn 0.0878 -0.0902 0.9921
vn 0.0786 0.2235 -0.9715
vn -0.1920 0.3326 -0.9233
vn -0.2048 0.8092 -0.5507
vn 0.2441 0.9507 0.1915
vn 0.7199 0.6827 -0.1251
vn 0.7805 0.6223 0.0587
vn -0.1060 -0.9944 -0.0035
vn -0.2409 -0.9620 -0.1289
vn -0.6631 -0.7243 0.1887
vn -0.3692 -0.7897 0.4900
vn -0.5093 0.4340 -0.7432
vn -0.7149 0.3154 -0.6240
vn 0.5305 -0.3863 0.7546
vn 0.6062 -0.1106 0.7876
vn 0.4348 0.1758 0.8832
vn 0.2605 0.3155 0.9125
vn -0.4334 0.0138 0.9011
vn 0.4256 0.0077 0.9049
vn 0.3101 -0.4028 -0.8612
vn -0.3285 -0.2606 -0.9078
vn 0.4257 -0.0267 -0.9045
vn -0.4357 -0.0077 -0.9001
vn 0.9997 -0.0194 -0.0131
vn -1.0000 0.0019 -0.0017
vn 0.6457 -0.7305 -0.2222
vn 0.6424 -0.7026 0.3060
vn 0.8736 -0.0672 -0.4819
vn 0.9930 -0.0364 0.1127
vn -0.6116 0.5843 0.5334
vn -0.6099 0.7015 -0.3688
vn -0.8795 0.0718 0.4704
vn -0.7886 0.0281 0.6143
vn 0.2560 0.0575 0.9650
vn -0.2030 -0.0289 -0.9787
vn 0.2416 0.5153 0.8222
vn 0.0865 0.6506 0.7545
vn 0.1053 0.2904 0.9511
vn 0.2681 0.2342 0.9345
vn 0.2786 -0.6728 -0.6853
vn -0.1609 -0.6193 -0.7685
vn -0.1102 -0.2847 -0.9523
vn 0.3711 -0.3171 -0.8728
vn 0.9915 -0.0582 0.1161
vn -0.9871 0.0915 -0.1311
vn -0.2893 -0.3245 -0.9006
vn -0.8747 -0.4530 0.1725
vn -0.7449 -0.0825 -0.6620
vn -0.8455 -0.1175 -0.5209
vn 0.9253 0.3347 0.1784
vn 0.8689 0.4826 -0.1099
vn 0.7324 0.0846 0.6756
vn 0.9837 0.1730 0.0490
vn 0.4845 0.2049 -0.8505
vn -0.5070 -0.2071 0.8367
vn 0.4989 0.5979 0.6274
vn 0.6593 0.6536 0.3716
vn 0.0312 0.1246 0.9917
vn 0.7275 0.2789 0.6269
vn 0.0497 -0.3898 -0.9196
vn -0.6972 -0.6363 -0.3303
vn -0.0305 -0.1267 -0.9915
vn -0.7182 -0.2914 -0.6319
vn 0.7999 0.1659 -0.5767
vn -0.7998 -0.2177 0.5594
vn 0.3363 -0.7251 -0.6009
vn 0.7829 -0.5641 -0.2624
vn 0.3614 -0.0157 -0.9323
vn 0.9086 0.1825 -0.3757
vn 0.0313 0.5648 0.8246
vn -0.8089 0.5451 0.2202
vn -0.3793 0.0151 0.9252
vn -0.3021 -0.0065 0.9533
vn 0.7089 0.2648 0.6537
vn -0.5321 -0.2092 -0.8204
vn -0.5261 0.3415 -0.7788
vn -0.3033 0.7368 -0.6043
vn -0.0909 0.2206 -0.9711
vn -0.3427 0.0561 -0.9378
vn 0.1704 -0.7984 0.5775
vn 0.3944 -0.6423 0.6571
vn 0.0891 -0.2164 0.9722
vn -0.1738 -0.3339 0.9264
vn -0.9119 -0.4037 -0.0740
vn 0.8992 0.4329 0.0632
vn -0.1465 -0.8042 0.5761
vn -0.2381 -0.7828 -0.5749
vn -0.5901 -0.4676 0.6581
vn -0.7677 -0.4144 -0.4888
vn 0.0211 0.9765 -0.2146
vn 0.2124 0.7430 0.6347
vn 0.5934 0.4699 -0.6535
vn 0.7603 0.4622 -0.4565
vn -0.1407 0.0706 -0.9875
vn 0.1323 -0.0432 0.9903
vn -0.4492 0.5185 -0.7276
vn -0.4792 0.5571 -0.6782
vn 0.2311 0.1477 -0.9617
vn -0.5688 0.1921 -0.7997
vn -0.1476 -0.4586 0.8763
vn 0.5383 -0.5324 0.6533
vn -0.2315 -0.1494 0.9613
vn 0.5611 -0.2055 0.8018
vn -0.9579 0.0383 0.2846
vn 0.9574 -0.0866 -0.2756
vn 0.5801 -0.6173 0.5315
vn 0.0662 -0.5368 0.8411
vn 0.6700 -0.0175 0.7421
vn 0.5973 -0.0080 0.8020
vn -0.8567 0.4334 -0.2798
vn 0.0172 0.5264 -0.8500
vn -0.6646 0.0231 -0.7469
vn -0.9232 0.0335 -0.3829
vn -0.7845 0.1097 0.6104
vn 0.7548 -0.0873 -0.6501
vn 0.2834 0.3436 0.8953
vn 0.2770 0.5621 0.7793
vn -0.1641 0.1722 0.9713
vn 0.0476 0.0719 0.9963
vn 0.0598 -0.7690 -0.6365
vn -0.3080 -0.5119 -0.8020
vn 0.1594 -0.1652 -0.9733
vn 0.4189 -0.2449 -0.8743
vn 0.8978 -0.2570 0.3575
vn -0.8935 0.2667 -0.3613
vn 0.4555 -0.7618 -0.4606
vn 0.2259 -0.7817 0.5812
vn 0.8730 -0.3627 -0.3260
vn 0.7249 -0.3156 0.6123
vn -0.2633 0.9454 0.1919
vn -0.1729 0.7509 -0.6374
vn -0.8743 0.3657 0.3191
vn -0.9199 0.3182 0.2291
vn -0.2134 0.0846 0.9733
vn 0.2195 -0.0568 -0.9740
vn -0.3561 -0.7846 -0.5075
vn 0.1053 -0.8362 -0.5382
vn -0.5608 0.0046 -0.8279
vn -0.0146 -0.0450 -0.9989
vn 0.8905 0.2002 0.4086
vn -0.1936 0.8356 0.5140
vn 0.5550 0.0017 0.8319
vn 0.8025 -0.0464 0.5948
vn 0.8842 -0.0369 -0.4657
vn -0.8789 0.0657 0.4725
vn -0.1646 0.5978 0.7845
vn -0.2448 0.8050 0.5405
vn -0.4598 0.2939 0.8379
vn -0.5366 0.2830 0.7950
vn 0.2664 -0.8012 -0.5358
vn 0.2168 -0.7530 -0.6213
vn 0.4568 -0.2888 -0.8414
vn 0.9221 -0.3847 -0.0409
vn 0.4894 -0.0622 0.8698
vn -0.4791 0.0925 -0.8729
vn 0.8485 -0.5057 -0.1558
vn 0.8419 -0.5356 -0.0662
vn 0.9972 -0.0045 0.0740
vn 0.9996 0.0051 0.0275
vn -0.7971 0.1105 0.5937
vn -0.8271 0.5618 0.0171
vn -0.9959 0.0143 -0.0896
vn -0.9221 -0.1157 0.3693
vn 0.1869 -0.1958 0.9627
vn -0.1090 0.2147 -0.9706
vn 0.0466 0.9989 -0.0034
vn 0.5394 0.7453 0.3920
vn 0.1776 0.8197 -0.5445
vn 0.3198 0.7834 -0.5330
vn 0.1335 -0.8479 0.5130
vn -0.5288 -0.7835 -0.3262
vn -0.1750 -0.8218 0.5423
vn -0.7806 -0.6221 -0.0607
vn -0.6844 0.2526 -0.6839
vn 0.6747 -0.2237 0.7033
vt 0.203039 0.133459
vt 0.203229 0.154557
vt 0.203316 0.161829
vt 0.203228 0.155183
vt 0.203104 0.133615
vt 0.203087 0.080575
vt 0.203025 0.080575
vt 0.203106 0.133193
vt 0.203065 0.133437
vt 0.203133 0.133113
vt 0.203130 0.133647
vt 0.203095 0.080575
vt 0.203049 0.080575
vt 0.203093 0.080575
vt 0.203085 0.080575
vt 0.203028 0.144111
vt 0.202983 0.146622
vt 0.202926 0.139486
vt 0.203087 0.145616
vt 0.203085 0.138694
vt 0.202938 0.080575
vt 0.203043 0.080575
vt 0.202846 0.080575
vt 0.203025 0.144137
vt 0.203035 0.150643
vt 0.203083 0.138717
vt 0.202934 0.080575
vt 0.203042 0.080575
vt 0.202923 0.139482
vt 0.202845 0.080575
vt 0.203536 0.128335
vt 0.203627 0.133172
vt 0.203749 0.138471
vt 0.203638 0.133404
vt 0.203500 0.124379
vt 0.203179 0.080575
vt 0.203224 0.080575
vt 0.203484 0.124036
vt 0.203542 0.128289
vt 0.203490 0.123975
vt 0.203506 0.124318
vt 0.203193 0.080575
vt 0.203228 0.080575
vt 0.203206 0.080575
vt 0.203202 0.080575
vt 0.202826 0.140996
vt 0.202895 0.151709
vt 0.202905 0.134861
vt 0.202810 0.150685
vt 0.202769 0.126736
vt 0.202973 0.080575
vt 0.202902 0.080575
vt 0.203077 0.080575
vt 0.202821 0.141114
vt 0.202897 0.157693
vt 0.202764 0.126696
vt 0.202963 0.080575
vt 0.202899 0.080575
vt 0.202900 0.134860
vt 0.203074 0.080575
vt 0.203289 0.119095
vt 0.203550 0.141828
vt 0.203610 0.147025
vt 0.203487 0.141043
vt 0.203275 0.115699
vt 0.203185 0.080575
vt 0.203167 0.080575
vt 0.203280 0.080575
vt 0.203306 0.118935
vt 0.203402 0.120936
vt 0.203292 0.115609
vt 0.203200 0.080575
vt 0.203172 0.080575
vt 0.203285 0.080575
vt 0.203386 0.121096
vt 0.203399 0.146190
vt 0.203439 0.149225
vt 0.203309 0.140825
vt 0.203497 0.149104
vt 0.203416 0.138537
vt 0.203226 0.080575
vt 0.203318 0.080575
vt 0.203184 0.080575
vt 0.203388 0.146233
vt 0.203586 0.154222
vt 0.203409 0.138257
vt 0.203213 0.080575
vt 0.203314 0.080575
vt 0.203302 0.140739
vt 0.203180 0.080575
vt 0.202959 0.118245
vt 0.202870 0.119552
vt 0.202753 0.122837
vt 0.202865 0.120892
vt 0.202983 0.115477
vt 0.203200 0.080575
vt 0.203160 0.080575
vt 0.202991 0.114684
vt 0.202951 0.118066
vt 0.202984 0.114383
vt 0.202976 0.115140
vt 0.203187 0.080575
vt 0.203156 0.080575
vt 0.203168 0.080575
vt 0.203172 0.080575
vt 0.202990 0.123612
vt 0.203031 0.123794
vt 0.203084 0.122699
vt 0.202923 0.123756
vt 0.202921 0.122667
vt 0.203135 0.080575
vt 0.203034 0.080575
vt 0.203229 0.080575
vt 0.202991 0.123991
vt 0.202957 0.127654
vt 0.202922 0.123011
vt 0.203137 0.080575
vt 0.203034 0.080575
vt 0.203084 0.123045
vt 0.203229 0.080575
vt 0.202452 0.131633
vt 0.202076 0.158542
vt 0.201968 0.165707
vt 0.202117 0.158317
vt 0.202423 0.128418
vt 0.202668 0.080575
vt 0.202649 0.080575
vt 0.202569 0.080575
vt 0.202427 0.131494
vt 0.202331 0.132613
vt 0.202398 0.128374
vt 0.202645 0.080575
vt 0.202642 0.080575
vt 0.202562 0.080575
vt 0.202356 0.132709
vt 0.202802 0.131259
vt 0.202733 0.133892
vt 0.202757 0.127325
vt 0.202785 0.132747
vt 0.202839 0.126043
vt 0.202738 0.080575
vt 0.202769 0.080575
vt 0.202664 0.080575
vt 0.202808 0.131242
vt 0.202696 0.138796
vt 0.202845 0.126150
vt 0.202750 0.080575
vt 0.202772 0.080575
vt 0.202763 0.127288
vt 0.202668 0.080575
vt 0.202832 0.123952
vt 0.202887 0.125990
vt 0.202990 0.129806
vt 0.202914 0.127958
vt 0.202839 0.121542
vt 0.202712 0.080575
vt 0.202773 0.080575
vt 0.202796 0.119426
vt 0.202839 0.123912
vt 0.202802 0.119377
vt 0.202846 0.121492
vt 0.202725 0.080575
vt 0.202777 0.080575
vt 0.202720 0.080575
vt 0.202716 0.080575
vt 0.202733 0.128520
vt 0.202646 0.129849
vt 0.202658 0.126973
vt 0.202752 0.129899
vt 0.202819 0.126974
vt 0.202751 0.080575
vt 0.202840 0.080575
vt 0.202647 0.080575
vt 0.202735 0.128826
vt 0.202657 0.135030
vt 0.202821 0.127247
vt 0.202755 0.080575
vt 0.202842 0.080575
vt 0.202660 0.127247
vt 0.202648 0.080575
vt 0.203261 0.143263
vt 0.203372 0.145401
vt 0.203256 0.138440
vt 0.203325 0.144824
vt 0.203182 0.138288
vt 0.203193 0.080575
vt 0.203178 0.080575
vt 0.203270 0.080575
vt 0.203250 0.143298
vt 0.203483 0.149373
vt 0.203172 0.138318
vt 0.203176 0.080575
vt 0.203173 0.080575
vt 0.203246 0.138467
vt 0.203264 0.080575
vt 0.203148 0.123584
vt 0.203150 0.125544
vt 0.203227 0.129365
vt 0.203210 0.126799
vt 0.203186 0.121593
vt 0.203024 0.080575
vt 0.203106 0.080575
vt 0.203092 0.120106
vt 0.203152 0.123456
vt 0.203096 0.119988
vt 0.203190 0.121478
vt 0.203031 0.080575
vt 0.203108 0.080575
vt 0.202981 0.080575
vt 0.202979 0.080575
vt 0.202499 0.143948
vt 0.202418 0.147385
vt 0.202446 0.131848
vt 0.202513 0.148657
vt 0.202603 0.136473
vt 0.202802 0.080575
vt 0.202899 0.080575
vt 0.202699 0.080575
vt 0.202499 0.143724
vt 0.202396 0.155369
vt 0.202604 0.136201
vt 0.202803 0.080575
vt 0.202899 0.080575
vt 0.202446 0.131473
vt 0.202699 0.080575
vt 0.202373 0.097529
vt 0.202314 0.097802
vt 0.202179 0.100570
vt 0.202247 0.097406
vt 0.202377 0.096706
vt 0.202856 0.080575
vt 0.202774 0.080575
vt 0.202480 0.097497
vt 0.202369 0.097236
vt 0.202476 0.097211
vt 0.202373 0.096422
vt 0.202849 0.080575
vt 0.202771 0.080575
vt 0.202896 0.080575
vt 0.202899 0.080575
s 0
usemtl Texture_Map
f 7/1/1 3/2/1 13/3/1
f 7/1/2 14/4/2 5/5/2
f 1/6/3 7/1/3 5/5/3
f 4/7/4 6/8/4 7/1/4
f 15/9/5 3/2/5 12/10/5
f 14/4/6 15/9/6 8/11/6
f 9/12/7 15/9/7 10/13/7
f 10/13/8 12/10/8 11/14/8
f 2/15/9 12/10/9 6/8/9
f 6/8/10 12/10/10 3/2/10
f 5/5/11 9/12/11 1/6/11
f 14/4/12 8/11/12 5/5/12
f 16/16/13 19/17/13 28/18/13
f 30/19/14 16/16/14 24/20/14
f 24/20/15 26/21/15 25/22/15
f 26/21/16 28/18/16 27/23/16
f 23/24/17 19/17/17 29/25/17
f 23/24/18 30/19/18 21/26/18
f 20/27/19 21/26/19 17/28/19
f 20/27/20 22/29/20 23/24/20
f 27/23/21 22/29/21 18/30/21
f 22/29/22 28/18/22 19/17/22
f 24/20/23 17/28/23 21/26/23
f 30/19/24 24/20/24 21/26/24
f 37/31/25 33/32/25 43/33/25
f 37/31/26 44/34/26 35/35/26
f 34/36/27 35/35/27 31/37/27
f 34/36/28 36/38/28 37/31/28
f 45/39/29 33/32/29 42/40/29
f 44/34/30 45/39/30 38/41/30
f 38/41/31 40/42/31 39/43/31
f 40/42/32 42/40/32 41/44/32
f 41/44/33 36/38/33 32/45/33
f 36/38/34 42/40/34 33/32/34
f 35/35/35 39/43/35 31/37/35
f 44/34/36 38/41/36 35/35/36
f 46/46/37 49/47/37 58/48/37
f 60/49/38 46/46/38 54/50/38
f 54/50/39 56/51/39 55/52/39
f 56/51/40 58/48/40 57/53/40
f 53/54/41 49/47/41 59/55/41
f 53/54/42 60/49/42 51/56/42
f 50/57/43 51/56/43 47/58/43
f 50/57/44 52/59/44 53/54/44
f 57/53/45 52/59/45 48/60/45
f 52/59/46 58/48/46 49/47/46
f 51/56/47 55/52/47 47/58/47
f 60/49/48 54/50/48 51/56/48
f 67/61/49 63/62/49 73/63/49
f 67/61/50 74/64/50 65/65/50
f 64/66/51 65/65/51 61/67/51
f 62/68/52 67/61/52 64/66/52
f 75/69/53 63/62/53 72/70/53
f 74/64/54 75/69/54 68/71/54
f 68/71/55 70/72/55 69/73/55
f 75/69/56 71/74/56 70/72/56
f 71/74/57 66/75/57 62/68/57
f 66/75/58 72/70/58 63/62/58
f 65/65/59 69/73/59 61/67/59
f 74/64/60 68/71/60 65/65/60
f 76/76/61 79/77/61 88/78/61
f 90/79/62 76/76/62 84/80/62
f 84/80/63 86/81/63 85/82/63
f 86/81/64 88/78/64 87/83/64
f 83/84/65 79/77/65 89/85/65
f 83/84/66 90/79/66 81/86/66
f 80/87/67 81/86/67 77/88/67
f 80/87/68 82/89/68 83/84/68
f 78/90/69 88/78/69 82/89/69
f 82/89/70 88/78/70 79/77/70
f 81/86/71 85/82/71 77/88/71
f 90/79/72 84/80/72 81/86/72
f 97/91/73 93/92/73 103/93/73
f 97/91/74 104/94/74 95/95/74
f 94/96/75 95/95/75 91/97/75
f 94/96/76 96/98/76 97/91/76
f 105/99/77 93/92/77 102/100/77
f 104/94/78 105/99/78 98/101/78
f 98/101/79 100/102/79 99/103/79
f 100/102/80 102/100/80 101/104/80
f 92/105/81 102/100/81 96/98/81
f 96/98/82 102/100/82 93/92/82
f 98/101/83 91/97/83 95/95/83
f 104/94/84 98/101/84 95/95/84
f 106/106/85 109/107/85 118/108/85
f 120/109/86 106/106/86 114/110/86
f 114/110/87 116/111/87 115/112/87
f 116/111/88 118/108/88 117/113/88
f 113/114/89 109/107/89 119/115/89
f 113/114/90 120/109/90 111/116/90
f 110/117/91 111/116/91 107/118/91
f 110/117/92 112/119/92 113/114/92
f 117/113/93 112/119/93 108/120/93
f 112/119/94 118/108/94 109/107/94
f 111/116/95 115/112/95 107/118/95
f 120/109/96 114/110/96 111/116/96
f 127/121/97 123/122/97 133/123/97
f 127/121/98 134/124/98 125/125/98
f 124/126/99 125/125/99 121/127/99
f 122/128/100 127/121/100 124/126/100
f 135/129/101 123/122/101 132/130/101
f 134/124/102 135/129/102 128/131/102
f 128/131/103 130/132/103 129/133/103
f 135/129/104 131/134/104 130/132/104
f 131/134/105 126/135/105 122/128/105
f 126/135/106 132/130/106 123/122/106
f 125/125/107 129/133/107 121/127/107
f 134/124/108 128/131/108 125/125/108
f 136/136/109 139/137/109 148/138/109
f 150/139/110 136/136/110 144/140/110
f 144/140/111 146/141/111 145/142/111
f 146/141/112 148/138/112 147/143/112
f 143/144/113 139/137/113 149/145/113
f 143/144/114 150/139/114 141/146/114
f 140/147/115 141/146/115 137/148/115
f 140/147/116 142/149/116 143/144/116
f 147/143/117 142/149/117 138/150/117
f 142/149/118 148/138/118 139/137/118
f 144/140/119 137/148/119 141/146/119
f 150/139/120 144/140/120 141/146/120
f 157/151/121 153/152/121 163/153/121
f 157/151/122 164/154/122 155/155/122
f 154/156/123 155/155/123 151/157/123
f 154/156/124 156/158/124 157/151/124
f 165/159/125 153/152/125 162/160/125
f 164/154/126 165/159/126 158/161/126
f 158/161/127 160/162/127 159/163/127
f 160/162/128 162/160/128 161/164/128
f 161/164/129 156/158/129 152/165/129
f 156/158/130 162/160/130 153/152/130
f 155/155/131 159/163/131 151/157/131
f 164/154/132 158/161/132 155/155/132
f 166/166/133 169/167/133 178/168/133
f 180/169/134 166/166/134 174/170/134
f 174/170/135 176/171/135 175/172/135
f 176/171/136 178/168/136 177/173/136
f 173/174/137 169/167/137 179/175/137
f 173/174/138 180/169/138 171/176/138
f 170/177/139 171/176/139 167/178/139
f 170/177/140 172/179/140 173/174/140
f 168/180/141 178/168/141 172/179/141
f 172/179/142 178/168/142 169/167/142
f 174/170/143 167/178/143 171/176/143
f 180/169/144 174/170/144 171/176/144
f 181/181/145 184/182/145 193/183/145
f 195/184/146 181/181/146 189/185/146
f 189/185/147 191/186/147 190/187/147
f 191/186/148 193/183/148 192/188/148
f 188/189/149 184/182/149 194/190/149
f 188/189/150 195/184/150 186/191/150
f 185/192/151 186/191/151 182/193/151
f 185/192/152 187/194/152 188/189/152
f 183/195/153 193/183/153 187/194/153
f 187/194/154 193/183/154 184/182/154
f 189/185/155 182/193/155 186/191/155
f 195/184/156 189/185/156 186/191/156
f 202/196/157 198/197/157 208/198/157
f 202/196/158 209/199/158 200/200/158
f 199/201/159 200/200/159 196/202/159
f 199/201/160 201/203/160 202/196/160
f 210/204/161 198/197/161 207/205/161
f 209/199/162 210/204/162 203/206/162
f 203/206/163 205/207/163 204/208/163
f 205/207/164 207/205/164 206/209/164
f 206/209/165 201/203/165 197/210/165
f 201/203/166 207/205/166 198/197/166
f 200/200/167 204/208/167 196/202/167
f 209/199/168 203/206/168 200/200/168
f 211/211/169 214/212/169 223/213/169
f 225/214/170 211/211/170 219/215/170
f 219/215/171 221/216/171 220/217/171
f 221/216/172 223/213/172 222/218/172
f 218/219/173 214/212/173 224/220/173
f 218/219/174 225/214/174 216/221/174
f 215/222/175 216/221/175 212/223/175
f 215/222/176 217/224/176 218/219/176
f 222/218/177 217/224/177 213/225/177
f 217/224/178 223/213/178 214/212/178
f 216/221/179 220/217/179 212/223/179
f 225/214/180 219/215/180 216/221/180
f 232/226/181 228/227/181 238/228/181
f 232/226/182 239/229/182 230/230/182
f 229/231/183 230/230/183 226/232/183
f 229/231/184 231/233/184 232/226/184
f 240/234/185 228/227/185 237/235/185
f 239/229/186 240/234/186 233/236/186
f 233/236/187 235/237/187 234/238/187
f 235/237/188 237/235/188 236/239/188
f 236/239/189 231/233/189 227/240/189
f 231/233/190 237/235/190 228/227/190
f 230/230/191 234/238/191 226/232/191
f 239/229/192 233/236/192 230/230/192
f 7/1/193 6/8/193 3/2/193
f 7/1/194 13/3/194 14/4/194
f 1/6/195 4/7/195 7/1/195
f 4/7/196 2/15/196 6/8/196
f 15/9/197 13/3/197 3/2/197
f 14/4/198 13/3/198 15/9/198
f 9/12/199 8/11/199 15/9/199
f 10/13/200 15/9/200 12/10/200
f 2/15/201 11/14/201 12/10/201
f 5/5/202 8/11/202 9/12/202
f 16/16/203 29/25/203 19/17/203
f 30/19/204 29/25/204 16/16/204
f 24/20/205 16/16/205 26/21/205
f 26/21/206 16/16/206 28/18/206
f 23/24/207 22/29/207 19/17/207
f 23/24/208 29/25/208 30/19/208
f 20/27/209 23/24/209 21/26/209
f 20/27/210 18/30/210 22/29/210
f 27/23/211 28/18/211 22/29/211
f 24/20/212 25/22/212 17/28/212
f 37/31/213 36/38/213 33/32/213
f 37/31/214 43/33/214 44/34/214
f 34/36/215 37/31/215 35/35/215
f 34/36/216 32/45/216 36/38/216
f 45/39/217 43/33/217 33/32/217
f 44/34/218 43/33/218 45/39/218
f 38/41/219 45/39/219 40/42/219
f 40/42/220 45/39/220 42/40/220
f 41/44/221 42/40/221 36/38/221
f 35/35/222 38/41/222 39/43/222
f 46/46/223 59/55/223 49/47/223
f 60/49/224 59/55/224 46/46/224
f 54/50/225 46/46/225 56/51/225
f 56/51/226 46/46/226 58/48/226
f 53/54/227 52/59/227 49/47/227
f 53/54/228 59/55/228 60/49/228
f 50/57/229 53/54/229 51/56/229
f 50/57/230 48/60/230 52/59/230
f 57/53/231 58/48/231 52/59/231
f 51/56/232 54/50/232 55/52/232
f 67/61/233 66/75/233 63/62/233
f 67/61/234 73/63/234 74/64/234
f 64/66/235 67/61/235 65/65/235
f 62/68/236 66/75/236 67/61/236
f 75/69/237 73/63/237 63/62/237
f 74/64/238 73/63/238 75/69/238
f 68/71/239 75/69/239 70/72/239
f 75/69/240 72/70/240 71/74/240
f 71/74/241 72/70/241 66/75/241
f 65/65/242 68/71/242 69/73/242
f 76/76/243 89/85/243 79/77/243
f 90/79/244 89/85/244 76/76/244
f 84/80/245 76/76/245 86/81/245
f 86/81/246 76/76/246 88/78/246
f 83/84/247 82/89/247 79/77/247
f 83/84/248 89/85/248 90/79/248
f 80/87/249 83/84/249 81/86/249
f 80/87/250 78/90/250 82/89/250
f 78/90/251 87/83/251 88/78/251
f 81/86/252 84/80/252 85/82/252
f 97/91/253 96/98/253 93/92/253
f 97/91/254 103/93/254 104/94/254
f 94/96/255 97/91/255 95/95/255
f 94/96/256 92/105/256 96/98/256
f 105/99/257 103/93/257 93/92/257
f 104/94/258 103/93/258 105/99/258
f 98/101/259 105/99/259 100/102/259
f 100/102/260 105/99/260 102/100/260
f 92/105/261 101/104/261 102/100/261
f 98/101/262 99/103/262 91/97/262
f 106/106/263 119/115/263 109/107/263
f 120/109/264 119/115/264 106/106/264
f 114/110/265 106/106/265 116/111/265
f 116/111/266 106/106/266 118/108/266
f 113/114/267 112/119/267 109/107/267
f 113/114/268 119/115/268 120/109/268
f 110/117/269 113/114/269 111/116/269
f 110/117/270 108/120/270 112/119/270
f 117/113/271 118/108/271 112/119/271
f 111/116/272 114/110/272 115/112/272
f 127/121/273 126/135/273 123/122/273
f 127/121/274 133/123/274 134/124/274
f 124/126/275 127/121/275 125/125/275
f 122/128/276 126/135/276 127/121/276
f 135/129/277 133/123/277 123/122/277
f 134/124/278 133/123/278 135/129/278
f 128/131/279 135/129/279 130/132/279
f 135/129/280 132/130/280 131/134/280
f 131/134/281 132/130/281 126/135/281
f 125/125/282 128/131/282 129/133/282
f 136/136/283 149/145/283 139/137/283
f 150/139/284 149/145/284 136/136/284
f 144/140/285 136/136/285 146/141/285
f 146/141/286 136/136/286 148/138/286
f 143/144/287 142/149/287 139/137/287
f 143/144/288 149/145/288 150/139/288
f 140/147/289 143/144/289 141/146/289
f 140/147/290 138/150/290 142/149/290
f 147/143/291 148/138/291 142/149/291
f 144/140/292 145/142/292 137/148/292
f 157/151/293 156/158/293 153/152/293
f 157/151/294 163/153/294 164/154/294
f 154/156/295 157/151/295 155/155/295
f 154/156/296 152/165/296 156/158/296
f 165/159/297 163/153/297 153/152/297
f 164/154/298 163/153/298 165/159/298
f 158/161/299 165/159/299 160/162/299
f 160/162/300 165/159/300 162/160/300
f 161/164/301 162/160/301 156/158/301
f 155/155/302 158/161/302 159/163/302
f 166/166/303 179/175/303 169/167/303
f 180/169/304 179/175/304 166/166/304
f 174/170/305 166/166/305 176/171/305
f 176/171/306 166/166/306 178/168/306
f 173/174/307 172/179/307 169/167/307
f 173/174/308 179/175/308 180/169/308
f 170/177/309 173/174/309 171/176/309
f 170/177/310 168/180/310 172/179/310
f 168/180/311 177/173/311 178/168/311
f 174/170/312 175/172/312 167/178/312
f 181/181/313 194/190/313 184/182/313
f 195/184/314 194/190/314 181/181/314
f 189/185/315 181/181/315 191/186/315
f 191/186/316 181/181/316 193/183/316
f 188/189/317 187/194/317 184/182/317
f 188/189/318 194/190/318 195/184/318
f 185/192/319 188/189/319 186/191/319
f 185/192/320 183/195/320 187/194/320
f 183/195/321 192/188/321 193/183/321
f 189/185/322 190/187/322 182/193/322
f 202/196/323 201/203/323 198/197/323
f 202/196/324 208/198/324 209/199/324
f 199/201/325 202/196/325 200/200/325
f 199/201/326 197/210/326 201/203/326
f 210/204/327 208/198/327 198/197/327
f 209/199/328 208/198/328 210/204/328
f 203/206/329 210/204/329 205/207/329
f 205/207/330 210/204/330 207/205/330
f 206/209/331 207/205/331 201/203/331
f 200/200/332 203/206/332 204/208/332
f 211/211/333 224/220/333 214/212/333
f 225/214/334 224/220/334 211/211/334
f 219/215/335 211/211/335 221/216/335
f 221/216/336 211/211/336 223/213/336
f 218/219/337 217/224/337 214/212/337
f 218/219/338 224/220/338 225/214/338
f 215/222/339 218/219/339 216/221/339
f 215/222/340 213/225/340 217/224/340
f 222/218/341 223/213/341 217/224/341
f 216/221/342 219/215/342 220/217/342
f 232/226/343 231/233/343 228/227/343
f 232/226/344 238/228/344 239/229/344
f 229/231/345 232/226/345 230/230/345
f 229/231/346 227/240/346 231/233/346
f 240/234/347 238/228/347 228/227/347
f 239/229/348 238/228/348 240/234/348
f 233/236/349 240/234/349 235/237/349
f 235/237/350 240/234/350 237/235/350
f 236/239/351 237/235/351 231/233/351
f 230/230/352 233/236/352 234/238/352
