# Blender 4.4.0
# www.blender.org
mtllib Env_Flowers_08.mtl
o Env_Flowers_08
v -0.000000 0.574526 -0.014887
v 0.005000 0.573529 -0.009987
v -0.000000 0.572532 -0.005087
v -0.005000 0.573529 -0.009987
v -0.000000 0.531914 -0.023552
v 0.005000 0.531149 -0.018611
v -0.000000 0.530383 -0.013670
v -0.005000 0.531149 -0.018611
v -0.000000 0.431815 -0.034268
v 0.005000 0.431591 -0.029273
v -0.000000 0.431367 -0.024278
v -0.005000 0.431591 -0.029273
v -0.000000 0.254235 -0.031266
v 0.005000 0.254451 -0.026271
v -0.000000 0.254667 -0.021275
v -0.005000 0.254451 -0.026271
v -0.000000 0.091748 -0.019979
v 0.005000 0.092323 -0.015012
v -0.000000 0.092898 -0.010045
v -0.005000 0.092323 -0.015012
v -0.000000 0.000000 -0.004935
v 0.005000 0.000000 0.000000
v -0.000000 0.000000 0.004935
v -0.005000 0.000000 -0.000000
v -0.008735 0.575749 -0.018141
v -0.000165 0.576736 -0.021551
v -0.012285 0.573367 -0.009909
v -0.008735 0.570984 -0.001677
v -0.000165 0.569997 0.001733
v 0.008405 0.570984 -0.001677
v 0.011955 0.573367 -0.009909
v 0.008405 0.575749 -0.018141
v -0.000000 0.582200 -0.016884
v -0.000000 0.581333 -0.018615
v -0.007947 0.580418 -0.015452
v -0.006942 0.581400 -0.014122
v -0.011239 0.578208 -0.007819
v -0.009818 0.579470 -0.007453
v -0.007947 0.575999 -0.000185
v -0.006942 0.577540 -0.000785
v -0.000000 0.575083 0.002977
v -0.000000 0.576740 0.001977
v 0.007947 0.575999 -0.000185
v 0.006942 0.577540 -0.000785
v 0.011239 0.578208 -0.007819
v 0.009818 0.579470 -0.007453
v 0.007947 0.580418 -0.015452
v 0.006942 0.581400 -0.014122
v -0.005358 0.570408 -0.016172
v -0.000165 0.571006 -0.018238
v -0.007509 0.568964 -0.011183
v -0.005358 0.567520 -0.006195
v -0.000165 0.566922 -0.004129
v 0.005028 0.567520 -0.006195
v 0.007179 0.568964 -0.011183
v 0.005028 0.570408 -0.016172
v 0.012521 0.602162 -0.071214
v 0.006260 0.603740 -0.076667
v -0.000018 0.578277 -0.018109
v -0.002365 0.578277 -0.018109
v 0.004675 0.577993 -0.018191
v -0.012521 0.601878 -0.071296
v 0.002328 0.577993 -0.018191
v -0.002365 0.577993 -0.018191
v -0.006260 0.603740 -0.076667
v -0.010688 0.575832 -0.009660
v -0.005994 0.578092 -0.017469
v -0.064520 0.589821 -0.028580
v -0.051999 0.595851 -0.049412
v -0.060046 0.595133 -0.046930
v -0.007168 0.577527 -0.015517
v -0.008341 0.576962 -0.013565
v -0.009514 0.576397 -0.011612
v -0.010688 0.575548 -0.009742
v -0.005994 0.577808 -0.017551
v -0.064520 0.589537 -0.028662
v -0.051999 0.595567 -0.049494
v -0.007168 0.577243 -0.015599
v -0.060469 0.593191 -0.040221
v -0.008341 0.576678 -0.013647
v -0.009514 0.576113 -0.011695
v -0.066306 0.592118 -0.036514
v -0.006058 0.573170 -0.000464
v -0.010752 0.575430 -0.008273
v -0.052082 0.571130 0.035995
v -0.064603 0.577160 0.015163
v -0.066389 0.574863 0.023097
v -0.009578 0.574865 -0.006321
v -0.008405 0.574300 -0.004369
v -0.007232 0.573735 -0.002417
v -0.006058 0.572886 -0.000547
v -0.010752 0.575146 -0.008356
v -0.052082 0.570846 0.035913
v -0.064603 0.576876 0.015081
v -0.009578 0.574581 -0.006403
v -0.060552 0.573790 0.026804
v -0.008405 0.574016 -0.004451
v -0.007232 0.573451 -0.002499
v -0.060128 0.571848 0.033513
v 0.004547 0.572954 0.000282
v -0.004840 0.572954 0.000282
v 0.012356 0.564779 0.057935
v -0.012686 0.564779 0.057935
v -0.006425 0.563201 0.063387
v -0.002493 0.572954 0.000282
v -0.000146 0.572954 0.000282
v 0.002200 0.572954 0.000282
v 0.004547 0.572670 0.000200
v -0.004840 0.572670 0.000200
v 0.012356 0.564495 0.057852
v -0.012686 0.564495 0.057852
v -0.002493 0.572670 0.000200
v -0.000165 0.564070 0.060385
v -0.000146 0.572670 0.000200
v 0.002200 0.572670 0.000200
v 0.006096 0.563201 0.063387
v 0.010523 0.575399 -0.008167
v 0.005829 0.573139 -0.000358
v 0.064356 0.577120 0.015300
v 0.051835 0.571090 0.036132
v 0.059881 0.571809 0.033650
v 0.007003 0.573704 -0.002310
v 0.008176 0.574269 -0.004262
v 0.009350 0.574834 -0.006215
v 0.010523 0.575116 -0.008249
v 0.005829 0.572855 -0.000440
v 0.064355 0.576836 0.015218
v 0.051835 0.570806 0.036050
v 0.007003 0.573420 -0.002392
v 0.060304 0.573750 0.026941
v 0.008176 0.573985 -0.004345
v 0.009350 0.574551 -0.006297
v 0.066141 0.574823 0.023234
v 0.005893 0.578061 -0.017363
v 0.010587 0.575801 -0.009554
v 0.051917 0.595811 -0.049274
v 0.064438 0.589781 -0.028443
v 0.066224 0.592078 -0.036377
v 0.009414 0.576366 -0.011506
v 0.008240 0.576931 -0.013458
v 0.007067 0.577496 -0.015410
v 0.005893 0.577777 -0.017445
v 0.010587 0.575517 -0.009636
v 0.051917 0.595527 -0.049357
v 0.064438 0.589498 -0.028525
v 0.009414 0.576082 -0.011588
v 0.060387 0.593151 -0.040084
v 0.008240 0.576647 -0.013540
v 0.007067 0.577212 -0.015493
v 0.059963 0.595093 -0.046793
v -0.004712 0.578277 -0.018109
v 0.004675 0.578277 -0.018109
v -0.012521 0.602162 -0.071214
v 0.002328 0.578277 -0.018109
v -0.004712 0.577993 -0.018191
v 0.012521 0.601878 -0.071296
v -0.000000 0.602871 -0.073665
v -0.000018 0.577993 -0.018191
vn -0.7071 0.1410 -0.6929
vn 0.7071 0.1410 -0.6929
vn 0.7071 -0.1411 0.6929
vn -0.7071 -0.1411 0.6929
vn -0.7067 0.0753 -0.7035
vn 0.7067 0.0753 -0.7035
vn 0.7067 -0.0754 0.7035
vn -0.7067 -0.0754 0.7035
vn -0.7064 -0.0120 -0.7077
vn 0.7064 -0.0120 -0.7077
vn 0.7064 0.0120 0.7077
vn -0.7064 0.0120 0.7077
vn -0.7070 -0.0490 -0.7055
vn 0.7070 -0.0490 -0.7055
vn 0.7070 0.0490 0.7055
vn -0.7070 0.0490 0.7055
vn -0.7067 -0.1145 -0.6982
vn 0.7067 -0.1145 -0.6982
vn 0.7067 0.1135 0.6983
vn -0.7067 0.1135 0.6983
vn -0.3822 -0.2079 0.9004
vn 0.9101 0.2702 -0.3142
vn 0.3826 -0.2313 0.8945
vn -0.9154 0.0242 0.4018
vn -0.8998 0.3216 -0.2949
vn 0.3703 0.4905 -0.7888
vn 0.9211 -0.0314 0.3881
vn -0.2706 0.8608 -0.4310
vn -0.6533 0.7545 -0.0634
vn -0.6533 0.6040 0.4565
vn -0.2706 0.4975 0.8242
vn 0.2706 0.4976 0.8241
vn 0.6533 0.6040 0.4566
vn 0.6533 0.7545 -0.0633
vn 0.2706 0.8609 -0.4309
vn -0.0000 0.9606 0.2780
vn -0.2757 -0.4811 -0.8322
vn 0.2757 -0.4811 -0.8322
vn 0.6656 -0.7428 0.0720
vn -0.2757 -0.8512 0.4466
vn -0.6656 -0.5895 -0.4577
vn 0.6656 -0.5895 -0.4577
vn 0.2757 -0.8512 0.4466
vn -0.0000 -0.9606 -0.2780
vn -0.6656 -0.7428 0.0720
vn -0.3681 0.5098 -0.7775
vn -0.0658 0.9135 0.4016
vn -0.0000 0.9120 0.4102
vn -0.1094 0.9142 0.3902
vn -0.0000 0.9144 0.4048
vn -0.0000 -0.9124 -0.4092
vn -0.0000 -0.9120 -0.4102
vn 0.9909 -0.0375 0.1295
vn 0.6716 0.2059 -0.7117
vn -0.9910 -0.0374 0.1289
vn -0.6716 0.2059 -0.7117
vn 0.0812 0.9159 0.3930
vn 0.1216 0.9315 0.3427
vn 0.0498 0.9046 0.4232
vn 0.1166 0.9331 0.3401
vn -0.1207 -0.9318 -0.3423
vn -0.1216 -0.9315 -0.3427
vn -0.1207 -0.9318 -0.3422
vn 0.6122 0.2198 -0.7596
vn -0.3058 0.2647 -0.9146
vn -0.3793 -0.2573 0.8888
vn -0.9774 -0.0588 0.2030
vn 0.1470 0.9526 0.2664
vn 0.1216 0.9706 0.2079
vn 0.1591 0.9382 0.3074
vn 0.1166 0.9705 0.2109
vn -0.1207 -0.9706 -0.2084
vn -0.1216 -0.9706 -0.2078
vn -0.3785 0.2573 -0.8891
vn -0.9774 0.0587 -0.2030
vn 0.6118 -0.2200 0.7599
vn -0.3057 -0.2648 0.9146
vn 0.0658 0.9867 0.1484
vn -0.0000 0.9901 0.1404
vn 0.1094 0.9813 0.1585
vn -0.0000 0.9893 0.1462
vn -0.0000 -0.9899 -0.1415
vn -0.0000 -0.9901 -0.1404
vn -0.9909 0.0375 -0.1296
vn -0.6719 -0.2061 0.7114
vn 0.9909 0.0373 -0.1290
vn 0.6718 -0.2061 0.7114
vn -0.0812 0.9843 0.1570
vn -0.1216 0.9706 0.2078
vn -0.0498 0.9909 0.1254
vn -0.1166 0.9705 0.2109
vn 0.1207 -0.9706 -0.2084
vn 0.1216 -0.9706 -0.2079
vn -0.6121 -0.2198 0.7596
vn 0.3058 -0.2649 0.9145
vn 0.3793 0.2573 -0.8888
vn 0.9774 0.0587 -0.2030
vn -0.1470 0.9476 0.2836
vn -0.1216 0.9315 0.3428
vn -0.1591 0.9573 0.2413
vn -0.1166 0.9331 0.3402
vn 0.1207 -0.9318 -0.3423
vn 0.1216 -0.9315 -0.3427
vn 0.1216 -0.9315 -0.3428
vn 0.3785 -0.2573 0.8891
vn 0.9774 -0.0588 0.2030
vn -0.6116 0.2199 -0.7600
vn 0.3058 0.2648 -0.9145
vn -0.7067 0.1410 -0.6933
vn 0.7067 0.1410 -0.6933
vn 0.7067 -0.1411 0.6933
vn -0.7067 -0.1411 0.6933
vn -0.7064 0.0753 -0.7038
vn 0.7064 0.0753 -0.7038
vn 0.7064 -0.0754 0.7038
vn -0.7064 -0.0754 0.7038
vn -0.7070 -0.0120 -0.7071
vn 0.7070 -0.0120 -0.7071
vn 0.7070 0.0120 0.7071
vn -0.7070 0.0120 0.7071
vn -0.7067 -0.0490 -0.7058
vn 0.7067 -0.0490 -0.7058
vn 0.7067 0.0490 0.7058
vn -0.7067 0.0490 0.7058
vn -0.6978 -0.1150 -0.7070
vn 0.6978 -0.1150 -0.7070
vn 0.6979 0.1140 0.7071
vn -0.6979 0.1140 0.7071
vn 0.3825 -0.2313 0.8945
vn -0.2706 0.8609 -0.4309
vn -0.6533 0.7545 -0.0633
vn -0.6533 0.6040 0.4566
vn 0.2706 0.4975 0.8242
vn 0.6533 0.6040 0.4565
vn 0.6533 0.7545 -0.0634
vn -0.0000 0.9606 0.2781
vn -0.2757 -0.8512 0.4465
vn -0.0000 -0.9606 -0.2781
vn 0.1094 0.9142 0.3902
vn 0.0658 0.9134 0.4016
vn 0.0681 -0.9114 -0.4058
vn -0.0694 -0.9147 -0.3981
vn 0.0694 -0.9147 -0.3981
vn -0.0681 -0.9114 -0.4059
vn 0.9909 -0.0375 0.1296
vn -0.9909 -0.0373 0.1290
vn 0.1166 0.9331 0.3402
vn 0.1592 0.9573 0.2413
vn 0.1470 0.9476 0.2836
vn -0.0841 -0.9140 -0.3970
vn -0.1457 -0.9492 -0.2788
vn -0.0762 -0.9158 -0.3943
vn -0.1522 -0.9468 -0.2837
vn 0.6122 0.2199 -0.7595
vn -0.3792 -0.2573 0.8888
vn 0.1165 0.9705 0.2109
vn 0.0498 0.9909 0.1254
vn 0.0812 0.9843 0.1570
vn -0.1522 -0.9519 -0.2659
vn -0.0762 -0.9848 -0.1558
vn -0.1456 -0.9514 -0.2713
vn -0.0841 -0.9847 -0.1526
vn -0.3786 0.2573 -0.8891
vn 0.6118 -0.2200 0.7598
vn -0.1094 0.9813 0.1584
vn -0.0658 0.9867 0.1484
vn -0.0681 -0.9873 -0.1438
vn 0.0694 -0.9859 -0.1520
vn -0.0694 -0.9859 -0.1521
vn 0.0681 -0.9873 -0.1437
vn -0.9909 0.0375 -0.1295
vn 0.9910 0.0373 -0.1289
vn -0.1592 0.9382 0.3074
vn -0.1470 0.9526 0.2664
vn 0.0841 -0.9847 -0.1526
vn 0.1457 -0.9514 -0.2713
vn 0.0762 -0.9848 -0.1558
vn 0.1522 -0.9519 -0.2659
vn -0.0498 0.9046 0.4233
vn -0.1216 0.9315 0.3427
vn -0.0812 0.9159 0.3930
vn 0.1522 -0.9468 -0.2837
vn 0.0762 -0.9158 -0.3944
vn 0.1456 -0.9492 -0.2788
vn 0.0841 -0.9140 -0.3970
vn 0.3786 -0.2573 0.8891
vn -0.6119 0.2200 -0.7597
vt 0.214894 0.153540
vt 0.214796 0.147691
vt 0.215024 0.153406
vt 0.214926 0.147588
vt 0.215153 0.153271
vt 0.214666 0.147794
vt 0.214515 0.134267
vt 0.214647 0.134237
vt 0.214462 0.110352
vt 0.214383 0.134297
vt 0.214594 0.110381
vt 0.214891 0.088520
vt 0.215022 0.088598
vt 0.214726 0.110410
vt 0.215157 0.076071
vt 0.214760 0.088443
vt 0.215287 0.076071
vt 0.589221 0.082225
vt 0.589136 0.093844
vt 0.589069 0.084136
vt 0.588702 0.088749
vt 0.588454 0.102400
vt 0.588795 0.098122
vt 0.589277 0.092073
vt 0.588334 0.093362
vt 0.588313 0.104172
vt 0.588390 0.105849
vt 0.588514 0.104301
vt 0.588811 0.100564
vt 0.589109 0.096828
vt 0.589232 0.095280
vt 0.588330 0.084178
vt 0.588422 0.083021
vt 0.588182 0.095272
vt 0.588645 0.080225
vt 0.588960 0.076272
vt 0.588867 0.077430
vt 0.719513 0.529268
vt 0.717033 0.540255
vt 0.716899 0.540643
vt 0.717143 0.539938
vt 0.719510 0.529142
vt 0.717139 0.539811
vt 0.719803 0.528428
vt 0.718526 0.535931
vt 0.718692 0.535451
vt 0.719046 0.534425
vt 0.719890 0.528176
vt 0.719629 0.528933
vt 0.718116 0.537119
vt 0.718227 0.536798
vt 0.719716 0.528681
vt 0.719800 0.528301
vt 0.719712 0.528554
vt 0.719042 0.534299
vt 0.719887 0.528049
vt 0.719625 0.528806
vt 0.718112 0.536992
vt 0.719538 0.529059
vt 0.719542 0.529186
vt 0.720214 0.527239
vt 0.721518 0.527264
vt 0.721818 0.526396
vt 0.721928 0.526075
vt 0.720301 0.526987
vt 0.720039 0.527744
vt 0.720998 0.528769
vt 0.721353 0.527743
vt 0.720127 0.527492
vt 0.720210 0.527112
vt 0.720123 0.527365
vt 0.721925 0.525949
vt 0.720297 0.526860
vt 0.720036 0.527617
vt 0.720995 0.528642
vt 0.719949 0.527870
vt 0.719952 0.527997
vt 0.720334 0.526890
vt 0.723017 0.522922
vt 0.723151 0.522533
vt 0.722908 0.523238
vt 0.720331 0.526763
vt 0.722904 0.523112
vt 0.720044 0.527730
vt 0.721524 0.527246
vt 0.721359 0.527725
vt 0.721005 0.528751
vt 0.719957 0.527983
vt 0.720219 0.527225
vt 0.721934 0.526058
vt 0.721824 0.526379
vt 0.720131 0.527478
vt 0.720041 0.527603
vt 0.720128 0.527351
vt 0.721001 0.528625
vt 0.719953 0.527856
vt 0.720215 0.527099
vt 0.721931 0.525931
vt 0.720302 0.526846
vt 0.720306 0.526973
vt 0.719634 0.528919
vt 0.718532 0.535913
vt 0.718233 0.536780
vt 0.718122 0.537101
vt 0.719547 0.529172
vt 0.719808 0.528415
vt 0.719052 0.534408
vt 0.718698 0.535434
vt 0.719721 0.528667
vt 0.719630 0.528793
vt 0.719717 0.528540
vt 0.718118 0.536974
vt 0.719543 0.529045
vt 0.719804 0.528288
vt 0.719048 0.534281
vt 0.719892 0.528035
vt 0.719895 0.528162
vt 0.215417 0.076071
s 0
usemtl Texture_Map
f 1/1/1 8/2/1 4/3/1
f 6/2/2 1/1/2 2/3/2
f 7/4/3 2/3/3 3/5/3
f 4/3/4 7/4/4 3/5/4
f 5/6/5 12/7/5 8/2/5
f 10/7/6 5/6/6 6/2/6
f 11/8/7 6/2/7 7/4/7
f 8/2/8 11/8/8 7/4/8
f 13/9/9 12/7/9 9/10/9
f 10/7/10 13/9/10 9/10/10
f 11/8/11 14/11/11 10/7/11
f 16/11/12 11/8/12 12/7/12
f 13/9/13 20/12/13 16/11/13
f 18/12/14 13/9/14 14/11/14
f 19/13/15 14/11/15 15/14/15
f 16/11/16 19/13/16 15/14/16
f 21/15/17 20/12/17 17/16/17
f 18/12/18 21/15/18 17/16/18
f 19/13/19 22/17/19 18/12/19
f 24/17/20 19/13/20 20/12/20
f 29/18/21 39/19/21 28/20/21
f 31/21/22 47/22/22 45/23/22
f 29/18/23 43/19/23 41/24/23
f 28/20/24 37/23/24 27/21/24
f 27/21/25 35/22/25 25/25/25
f 32/25/26 34/26/26 47/22/26
f 30/20/27 45/23/27 43/19/27
f 33/27/28 35/22/28 36/28/28
f 36/28/29 37/23/29 38/29/29
f 38/29/30 39/19/30 40/30/30
f 40/30/31 41/24/31 42/31/31
f 44/30/32 41/24/32 43/19/32
f 46/29/33 43/19/33 45/23/33
f 48/28/34 45/23/34 47/22/34
f 33/27/35 47/22/35 34/26/35
f 42/31/36 46/29/36 33/27/36
f 25/25/37 50/32/37 49/33/37
f 32/25/38 50/32/38 26/34/38
f 30/20/39 55/35/39 31/21/39
f 28/20/40 53/36/40 29/18/40
f 27/21/41 49/33/41 51/35/41
f 31/21/42 56/33/42 32/25/42
f 30/20/43 53/36/43 54/37/43
f 50/32/44 55/35/44 53/36/44
f 28/20/45 51/35/45 52/37/45
f 25/25/46 34/26/46 26/34/46
f 60/38/47 157/39/47 65/40/47
f 60/38/48 153/41/48 151/38/48
f 154/38/49 57/41/49 58/40/49
f 154/38/50 157/39/50 59/38/50
f 64/42/51 157/39/51 158/42/51
f 62/43/52 64/42/52 155/42/52
f 63/42/52 156/43/52 61/42/52
f 157/39/51 63/42/51 158/42/51
f 152/38/53 156/43/53 57/41/53
f 57/41/54 156/43/54 58/40/54
f 62/43/55 151/38/55 153/41/55
f 65/40/56 62/43/56 153/41/56
f 73/44/57 79/45/57 82/46/57
f 73/44/58 68/47/58 66/48/58
f 71/49/59 69/50/59 70/51/59
f 71/49/60 79/45/60 72/52/60
f 81/53/61 79/45/61 80/54/61
f 76/55/62 81/53/62 74/56/62
f 78/57/62 77/58/62 75/59/62
f 79/45/63 78/57/63 80/54/63
f 67/60/64 77/58/64 69/50/64
f 69/50/65 77/58/65 70/51/65
f 76/55/66 66/48/66 68/47/66
f 82/46/67 76/55/67 68/47/67
f 90/61/68 96/62/68 99/63/68
f 90/61/69 85/64/69 83/65/69
f 88/66/70 86/67/70 87/68/70
f 88/66/71 96/62/71 89/69/71
f 98/70/72 96/62/72 97/71/72
f 93/72/73 98/70/73 91/73/73
f 95/74/73 94/75/73 92/76/73
f 96/62/72 95/74/72 97/71/72
f 84/77/74 94/75/74 86/67/74
f 86/67/75 94/75/75 87/68/75
f 93/72/76 83/65/76 85/64/76
f 99/63/77 93/72/77 85/64/77
f 107/78/78 113/79/78 116/80/78
f 107/78/79 102/81/79 100/78/79
f 105/78/80 103/81/80 104/80/80
f 105/78/81 113/79/81 106/78/81
f 115/82/82 113/79/82 114/82/82
f 110/83/83 115/82/83 108/82/83
f 112/82/83 111/83/83 109/82/83
f 113/79/82 112/82/82 114/82/82
f 101/78/84 111/83/84 103/81/84
f 103/81/85 111/83/85 104/80/85
f 110/83/86 100/78/86 102/81/86
f 116/80/87 110/83/87 102/81/87
f 124/84/88 130/85/88 133/86/88
f 124/84/89 119/87/89 117/88/89
f 122/89/90 120/90/90 121/91/90
f 122/89/91 130/85/91 123/92/91
f 132/93/92 130/85/92 131/94/92
f 127/95/93 132/93/93 125/96/93
f 129/97/93 128/98/93 126/99/93
f 130/85/92 129/97/92 131/94/92
f 118/100/94 128/98/94 120/90/94
f 120/90/95 128/98/95 121/91/95
f 127/95/96 117/88/96 119/87/96
f 133/86/97 127/95/97 119/87/97
f 141/101/98 147/102/98 150/103/98
f 141/101/99 136/104/99 134/105/99
f 139/106/100 137/107/100 138/108/100
f 139/106/101 147/102/101 140/109/101
f 149/110/102 147/102/102 148/111/102
f 144/112/103 149/110/103 142/113/103
f 146/114/104 145/115/104 143/116/104
f 147/102/102 146/114/102 148/111/102
f 135/117/105 145/115/105 137/107/105
f 137/107/106 145/115/106 138/108/106
f 144/112/107 134/105/107 136/104/107
f 150/103/108 144/112/108 136/104/108
f 1/1/109 5/6/109 8/2/109
f 6/2/110 5/6/110 1/1/110
f 7/4/111 6/2/111 2/3/111
f 4/3/112 8/2/112 7/4/112
f 5/6/113 9/10/113 12/7/113
f 10/7/114 9/10/114 5/6/114
f 11/8/115 10/7/115 6/2/115
f 8/2/116 12/7/116 11/8/116
f 13/9/117 16/11/117 12/7/117
f 10/7/118 14/11/118 13/9/118
f 11/8/119 15/14/119 14/11/119
f 16/11/120 15/14/120 11/8/120
f 13/9/121 17/16/121 20/12/121
f 18/12/122 17/16/122 13/9/122
f 19/13/123 18/12/123 14/11/123
f 16/11/124 20/12/124 19/13/124
f 21/15/125 24/17/125 20/12/125
f 18/12/126 22/17/126 21/15/126
f 19/13/127 23/118/127 22/17/127
f 24/17/128 23/118/128 19/13/128
f 29/18/21 41/24/21 39/19/21
f 31/21/22 32/25/22 47/22/22
f 29/18/129 30/20/129 43/19/129
f 28/20/24 39/19/24 37/23/24
f 27/21/25 37/23/25 35/22/25
f 32/25/26 26/34/26 34/26/26
f 30/20/27 31/21/27 45/23/27
f 33/27/130 34/26/130 35/22/130
f 36/28/131 35/22/131 37/23/131
f 38/29/132 37/23/132 39/19/132
f 40/30/31 39/19/31 41/24/31
f 44/30/133 42/31/133 41/24/133
f 46/29/134 44/30/134 43/19/134
f 48/28/135 46/29/135 45/23/135
f 33/27/35 48/28/35 47/22/35
f 33/27/136 36/28/136 38/29/136
f 38/29/36 40/30/36 42/31/36
f 42/31/36 44/30/36 46/29/36
f 46/29/36 48/28/36 33/27/36
f 33/27/36 38/29/36 42/31/36
f 25/25/37 26/34/37 50/32/37
f 32/25/38 56/33/38 50/32/38
f 30/20/39 54/37/39 55/35/39
f 28/20/137 52/37/137 53/36/137
f 27/21/41 25/25/41 49/33/41
f 31/21/42 55/35/42 56/33/42
f 30/20/43 29/18/43 53/36/43
f 51/35/138 49/33/138 50/32/138
f 50/32/138 56/33/138 55/35/138
f 55/35/138 54/37/138 53/36/138
f 53/36/138 52/37/138 51/35/138
f 51/35/44 50/32/44 53/36/44
f 28/20/45 27/21/45 51/35/45
f 25/25/46 35/22/46 34/26/46
f 60/38/50 59/38/50 157/39/50
f 60/38/139 65/40/139 153/41/139
f 154/38/48 152/38/48 57/41/48
f 154/38/140 58/40/140 157/39/140
f 64/42/141 65/40/141 157/39/141
f 62/43/142 65/40/142 64/42/142
f 63/42/143 58/40/143 156/43/143
f 157/39/144 58/40/144 63/42/144
f 152/38/145 61/42/145 156/43/145
f 62/43/146 155/42/146 151/38/146
f 73/44/147 72/52/147 79/45/147
f 73/44/148 82/46/148 68/47/148
f 71/49/58 67/60/58 69/50/58
f 71/49/149 70/51/149 79/45/149
f 81/53/150 82/46/150 79/45/150
f 76/55/151 82/46/151 81/53/151
f 78/57/152 70/51/152 77/58/152
f 79/45/153 70/51/153 78/57/153
f 67/60/154 75/59/154 77/58/154
f 76/55/155 74/56/155 66/48/155
f 90/61/156 89/69/156 96/62/156
f 90/61/157 99/63/157 85/64/157
f 88/66/69 84/77/69 86/67/69
f 88/66/158 87/68/158 96/62/158
f 98/70/159 99/63/159 96/62/159
f 93/72/160 99/63/160 98/70/160
f 95/74/161 87/68/161 94/75/161
f 96/62/162 87/68/162 95/74/162
f 84/77/163 92/76/163 94/75/163
f 93/72/164 91/73/164 83/65/164
f 107/78/81 106/78/81 113/79/81
f 107/78/165 116/80/165 102/81/165
f 105/78/79 101/78/79 103/81/79
f 105/78/166 104/80/166 113/79/166
f 115/82/167 116/80/167 113/79/167
f 110/83/168 116/80/168 115/82/168
f 112/82/169 104/80/169 111/83/169
f 113/79/170 104/80/170 112/82/170
f 101/78/171 109/82/171 111/83/171
f 110/83/172 108/82/172 100/78/172
f 124/84/91 123/92/91 130/85/91
f 124/84/173 133/86/173 119/87/173
f 122/89/89 118/100/89 120/90/89
f 122/89/174 121/91/174 130/85/174
f 132/93/175 133/86/175 130/85/175
f 127/95/176 133/86/176 132/93/176
f 129/97/177 121/91/177 128/98/177
f 130/85/178 121/91/178 129/97/178
f 118/100/94 126/99/94 128/98/94
f 127/95/96 125/96/96 117/88/96
f 141/101/101 140/109/101 147/102/101
f 141/101/179 150/103/179 136/104/179
f 139/106/180 135/117/180 137/107/180
f 139/106/181 138/108/181 147/102/181
f 149/110/182 150/103/182 147/102/182
f 144/112/183 150/103/183 149/110/183
f 146/114/184 138/108/184 145/115/184
f 147/102/185 138/108/185 146/114/185
f 135/117/186 143/116/186 145/115/186
f 144/112/187 142/113/187 134/105/187
