# Blender 4.4.0
# www.blender.org
mtllib Env_Daisy_High_Detail_01.mtl
o Env_Daisy_High_Detail_01
v -0.002703 0.161095 -0.018426
v -0.000668 0.161095 -0.016222
v -0.001558 0.161011 -0.013359
v -0.004484 0.160926 -0.012699
v -0.006519 0.160926 -0.014903
v -0.005629 0.161011 -0.017767
v -0.000899 0.085720 -0.020075
v 0.001130 0.085959 -0.017879
v 0.000233 0.086190 -0.015026
v -0.002694 0.086182 -0.014369
v -0.004724 0.085943 -0.016565
v -0.003826 0.085712 -0.019418
v 0.000904 0.000000 -0.002808
v 0.002929 0.000000 -0.000646
v 0.002025 0.000000 0.002162
v -0.000904 0.000000 0.002808
v -0.002929 0.000000 0.000646
v -0.002025 0.000000 -0.002162
v -0.003214 0.170592 -0.025119
v 0.024214 0.184654 -0.060743
v 0.019596 0.186587 -0.067971
v 0.011078 0.185837 -0.065921
v -0.011615 0.169590 -0.022062
v -0.004178 0.170590 -0.025111
v -0.032268 0.184527 -0.060267
v -0.019227 0.185957 -0.065615
v -0.007896 0.170090 -0.023586
v -0.027782 0.186480 -0.067571
v -0.011615 0.169099 -0.022169
v -0.004178 0.170098 -0.025219
v -0.032268 0.184339 -0.060318
v -0.019227 0.185769 -0.065665
v -0.007896 0.169599 -0.023694
v -0.015317 0.167001 -0.014161
v -0.012291 0.169373 -0.021397
v -0.058816 0.175547 -0.026696
v -0.053509 0.178941 -0.039386
v -0.013804 0.168187 -0.017779
v -0.060990 0.177748 -0.034926
v -0.015317 0.166510 -0.014268
v -0.012291 0.168881 -0.021505
v -0.058816 0.175359 -0.026747
v -0.053509 0.178753 -0.039436
v -0.013804 0.167696 -0.017886
v -0.012152 0.164342 -0.006045
v -0.015309 0.166696 -0.013229
v -0.053016 0.164346 0.015177
v -0.058552 0.167716 0.002579
v -0.013730 0.165519 -0.009637
v -0.060577 0.165505 0.010843
v -0.012152 0.163850 -0.006152
v -0.015309 0.166205 -0.013337
v -0.053016 0.164158 0.015126
v -0.058552 0.167528 0.002528
v -0.013730 0.165027 -0.009745
v -0.003973 0.163170 -0.002468
v -0.011464 0.164128 -0.005392
v -0.018265 0.157486 0.040824
v -0.031401 0.158857 0.035697
v -0.007719 0.163649 -0.003930
v -0.026783 0.156924 0.042924
v -0.003973 0.162678 -0.002576
v -0.011464 0.163636 -0.005499
v -0.018265 0.157298 0.040773
v -0.031401 0.158669 0.035646
v -0.007719 0.163157 -0.004038
v 0.004428 0.164172 -0.005526
v -0.003009 0.163172 -0.002477
v 0.025080 0.158984 0.035221
v 0.012039 0.157554 0.040568
v 0.000709 0.163672 -0.004001
v 0.020594 0.157031 0.042524
v 0.004428 0.163680 -0.005633
v -0.003009 0.162681 -0.002584
v 0.025080 0.158796 0.035170
v 0.012039 0.157366 0.040518
v 0.000709 0.163180 -0.004109
v 0.008130 0.166761 -0.013427
v 0.005104 0.164389 -0.006190
v 0.051629 0.167964 0.001650
v 0.046322 0.164570 0.014339
v 0.006617 0.165575 -0.009809
v 0.053803 0.165763 0.009879
v 0.008130 0.166269 -0.013534
v 0.005104 0.163898 -0.006298
v 0.051629 0.167776 0.001599
v 0.046322 0.164382 0.014289
v 0.006617 0.165084 -0.009916
v 0.004965 0.169420 -0.021543
v 0.008122 0.167066 -0.014358
v 0.045829 0.179165 -0.040224
v 0.051365 0.175795 -0.027625
v 0.006543 0.168243 -0.017951
v 0.053390 0.178006 -0.035890
v 0.004965 0.168929 -0.021650
v 0.008122 0.166575 -0.014466
v 0.045829 0.178977 -0.040274
v 0.051365 0.175607 -0.027676
v 0.006543 0.167752 -0.018058
v 0.004277 0.169634 -0.022196
v 0.011078 0.186025 -0.065870
v 0.000532 0.170113 -0.023658
v -0.003214 0.170101 -0.025227
v 0.004277 0.169143 -0.022303
v 0.024214 0.184466 -0.060794
v 0.000532 0.169622 -0.023765
v -0.003594 0.178104 -0.027138
v -0.016356 0.176455 -0.020020
v -0.016356 0.173159 -0.005784
v -0.003594 0.171510 0.001334
v 0.009168 0.173159 -0.005784
v 0.009168 0.176455 -0.020020
v 0.013643 0.165601 -0.004486
v 0.013643 0.170250 -0.023713
v -0.020830 0.165601 -0.004486
v -0.003594 0.163276 0.005127
v -0.003594 0.172575 -0.033327
v -0.020830 0.170250 -0.023713
v -0.003594 0.167359 -0.029514
v -0.016499 0.165066 -0.022316
v -0.016499 0.160479 -0.007920
v -0.003594 0.158186 -0.000722
v 0.009312 0.160479 -0.007920
v 0.009312 0.165066 -0.022316
v -0.003594 0.160225 -0.022380
v -0.009191 0.159230 -0.019258
v -0.009191 0.157241 -0.013015
v -0.003594 0.156246 -0.009893
v 0.002004 0.157241 -0.013015
v 0.002004 0.159230 -0.019258
v -0.007633 0.172129 -0.024047
v 0.003490 0.186536 -0.067260
v -0.003594 0.187882 -0.072290
v -0.010677 0.186348 -0.067311
v -0.014237 0.170204 -0.018172
v -0.008524 0.172013 -0.023691
v -0.048694 0.181992 -0.046101
v -0.038676 0.184581 -0.055778
v -0.011380 0.171108 -0.020932
v -0.047367 0.184238 -0.054496
v -0.014237 0.169713 -0.018279
v -0.008524 0.171521 -0.023798
v -0.048694 0.181804 -0.046151
v -0.038676 0.184393 -0.055829
v -0.011380 0.170617 -0.021039
v -0.014606 0.167364 -0.009507
v -0.014606 0.169922 -0.017312
v -0.060291 0.171096 -0.005367
v -0.060291 0.174757 -0.019053
v -0.014606 0.168643 -0.013409
v -0.065498 0.172927 -0.012210
v -0.014606 0.166873 -0.009614
v -0.014606 0.169431 -0.017419
v -0.060291 0.170908 -0.005417
v -0.060291 0.174569 -0.019103
v -0.014606 0.168152 -0.013516
v -0.008524 0.165274 -0.003127
v -0.014237 0.167082 -0.008646
v -0.038676 0.161272 0.031358
v -0.048694 0.163861 0.021681
v -0.011380 0.166178 -0.005887
v -0.047367 0.161615 0.030076
v -0.008524 0.164782 -0.003235
v -0.014237 0.166591 -0.008753
v -0.038676 0.161084 0.031308
v -0.048694 0.163673 0.021630
v -0.011380 0.165687 -0.005994
v 0.000446 0.165157 -0.002771
v -0.007633 0.165157 -0.002771
v 0.003490 0.158276 0.042562
v -0.010677 0.158276 0.042562
v -0.003594 0.165157 -0.002771
v -0.003594 0.156930 0.047592
v 0.000446 0.164666 -0.002878
v -0.007633 0.164666 -0.002878
v 0.003490 0.158088 0.042511
v -0.010677 0.158088 0.042511
v -0.003594 0.164666 -0.002878
v 0.007050 0.168124 -0.008419
v 0.001337 0.165274 -0.003127
v 0.041506 0.163861 0.021681
v 0.031489 0.161272 0.031358
v 0.004193 0.166178 -0.005887
v 0.040179 0.161615 0.030076
v 0.007050 0.167632 -0.008526
v 0.001337 0.164782 -0.003235
v 0.041506 0.163673 0.021630
v 0.031489 0.161084 0.031308
v 0.004193 0.165687 -0.005994
v 0.007419 0.169922 -0.017312
v 0.007419 0.168406 -0.009279
v 0.053104 0.174757 -0.019053
v 0.053104 0.171096 -0.005367
v 0.007419 0.168643 -0.013409
v 0.058311 0.172927 -0.012210
v 0.007419 0.169431 -0.017419
v 0.007419 0.167914 -0.009387
v 0.053104 0.174569 -0.019103
v 0.053104 0.170908 -0.005417
v 0.007419 0.168152 -0.013516
v 0.001337 0.172013 -0.023691
v 0.007050 0.170204 -0.018172
v 0.031489 0.184581 -0.055778
v 0.041506 0.181992 -0.046101
v 0.004193 0.171108 -0.020932
v 0.040179 0.184238 -0.054496
v 0.001337 0.171521 -0.023798
v 0.007050 0.169713 -0.018279
v 0.031489 0.184393 -0.055829
v 0.041506 0.181804 -0.046151
v 0.004193 0.170617 -0.021039
v 0.000446 0.172129 -0.024047
v -0.010677 0.186536 -0.067260
v -0.003594 0.172129 -0.024047
v -0.007633 0.171638 -0.024155
v 0.000446 0.171638 -0.024155
v 0.003490 0.186348 -0.067311
v -0.003594 0.171638 -0.024155
vn -0.2204 0.0161 -0.9753
vn 0.7343 0.0325 -0.6780
vn 0.9547 0.0162 0.2972
vn 0.2204 -0.0165 0.9753
vn -0.7343 -0.0327 0.6780
vn -0.9547 -0.0163 -0.2972
vn -0.2142 -0.1972 -0.9567
vn 0.7356 -0.1189 -0.6669
vn 0.9528 0.0787 0.2933
vn 0.2143 0.1953 0.9570
vn -0.7356 0.1182 0.6670
vn -0.9527 -0.0791 -0.2933
vn -0.0922 0.9456 0.3119
vn -0.0164 0.9369 0.3491
vn 0.0213 -0.9326 -0.3602
vn 0.0189 -0.9347 -0.3548
vn 0.8998 -0.1127 0.4215
vn -0.9497 0.0809 -0.3025
vn 0.8510 0.1356 -0.5074
vn -0.2473 0.2504 -0.9360
vn -0.0250 0.9330 0.3590
vn 0.0198 0.9348 0.3547
vn -0.0199 -0.9347 -0.3548
vn -0.0225 -0.9325 -0.3604
vn 0.9441 0.0852 -0.3184
vn -0.8921 -0.1168 0.4365
vn 0.2303 0.2515 -0.9401
vn -0.8600 0.1319 -0.4930
vn 0.0612 0.9339 0.3524
vn 0.0852 0.9357 0.3423
vn -0.0769 -0.9375 -0.3394
vn -0.0913 -0.9344 -0.3444
vn 0.4339 0.2328 -0.8703
vn -0.3126 -0.2455 0.9176
vn -0.5253 0.2199 -0.8220
vn -0.9689 -0.0638 0.2389
vn 0.1242 0.9505 0.2847
vn 0.1328 0.9577 0.2555
vn -0.1244 -0.9578 -0.2592
vn -0.1388 -0.9575 -0.2528
vn -0.3279 0.2441 -0.9126
vn 0.4484 -0.2310 0.8635
vn -0.9731 0.0595 -0.2225
vn -0.5103 -0.2223 0.8307
vn 0.1156 0.9755 0.1871
vn 0.0670 0.9862 0.1516
vn -0.0670 -0.9862 -0.1515
vn -0.0695 -0.9869 -0.1454
vn -0.8996 0.1129 -0.4220
vn 0.9496 -0.0810 0.3029
vn -0.8510 -0.1357 0.5074
vn 0.2473 -0.2504 0.9360
vn 0.0313 0.9913 0.1281
vn -0.0670 0.9849 0.1594
vn 0.0723 -0.9865 -0.1469
vn 0.0696 -0.9857 -0.1532
vn -0.9440 -0.0853 0.3188
vn 0.8918 0.1169 -0.4371
vn -0.2303 -0.2514 0.9401
vn 0.8600 -0.1318 0.4930
vn -0.0671 0.9862 0.1513
vn -0.1181 0.9572 0.2643
vn 0.1388 -0.9568 -0.2555
vn 0.1242 -0.9571 -0.2617
vn -0.4327 -0.2330 0.8709
vn 0.3114 0.2456 -0.9180
vn 0.5252 -0.2199 0.8220
vn 0.9689 0.0639 -0.2389
vn -0.1130 0.9664 0.2308
vn -0.0693 0.9386 0.3380
vn 0.0896 -0.9341 -0.3455
vn 0.0754 -0.9373 -0.3403
vn 0.3291 -0.2440 0.9122
vn -0.4496 0.2309 -0.8629
vn 0.9731 -0.0595 0.2225
vn 0.5103 0.2223 -0.8308
vn 0.8440 0.5213 0.1261
vn -0.4111 0.3852 0.8262
vn -0.4238 0.6755 -0.6034
vn 0.4285 0.6699 -0.6063
vn 0.4105 0.3815 0.8282
vn -0.8383 0.5312 0.1230
vn -0.0000 0.9742 0.2256
vn -0.4092 -0.7209 0.5593
vn 0.7362 -0.6578 -0.1591
vn -0.7362 -0.6578 -0.1591
vn 0.4092 -0.7209 0.5593
vn 0.3475 -0.5534 -0.7569
vn 0.2595 -0.6828 -0.6829
vn 0.2779 -0.9398 0.1988
vn -0.5353 -0.8048 -0.2564
vn 0.5353 -0.8048 -0.2564
vn -0.2779 -0.9398 0.1987
vn -0.2595 -0.6828 -0.6829
vn -0.0000 -0.9528 -0.3036
vn -0.0398 0.9499 0.3101
vn -0.0000 0.9487 0.3163
vn -0.0000 -0.9465 -0.3226
vn 0.9978 -0.0173 0.0645
vn -0.9978 -0.0172 0.0645
vn 0.5922 0.2082 -0.7784
vn -0.5922 0.2083 -0.7784
vn 0.0148 0.9364 0.3505
vn 0.0390 0.9369 0.3474
vn -0.0352 -0.9383 -0.3439
vn -0.0437 -0.9351 -0.3517
vn 0.7506 0.1708 -0.6384
vn -0.6570 -0.1948 0.7283
vn -0.1510 0.2555 -0.9550
vn -0.9885 0.0390 -0.1458
vn 0.0869 0.9439 0.3186
vn 0.1053 0.9450 0.3097
vn -0.0950 -0.9460 -0.3100
vn -0.1118 -0.9443 -0.3095
vn 0.0641 0.2579 -0.9640
vn 0.0663 -0.2578 0.9639
vn -0.8058 0.1531 -0.5721
vn -0.8058 -0.1531 0.5721
vn 0.1170 0.9639 0.2393
vn 0.1078 0.9724 0.2071
vn -0.1038 -0.9719 -0.2111
vn -0.1125 -0.9728 -0.2023
vn -0.6582 0.1945 -0.7273
vn 0.7515 -0.1705 0.6373
vn -0.9885 -0.0390 0.1458
vn -0.1510 -0.2555 0.9550
vn 0.0728 0.9843 0.1608
vn -0.0000 0.9887 0.1501
vn -0.0000 -0.9897 -0.1434
vn -0.9978 0.0172 -0.0644
vn 0.9978 0.0172 -0.0644
vn -0.5923 -0.2082 0.7784
vn 0.5922 -0.2082 0.7784
vn -0.0179 0.9895 0.1434
vn -0.2432 0.8821 0.4034
vn 0.1125 -0.9728 -0.2023
vn 0.2477 -0.8829 -0.3989
vn -0.7515 -0.1705 0.6373
vn 0.6589 0.1944 -0.7267
vn 0.1510 -0.2555 0.9550
vn 0.9885 -0.0390 0.1458
vn -0.0868 0.9769 0.1953
vn -0.0884 0.9466 0.3102
vn 0.0702 -0.9959 -0.0573
vn 0.0950 -0.9460 -0.3100
vn -0.0674 -0.2578 0.9638
vn -0.0640 0.2579 -0.9640
vn 0.8058 -0.1530 0.5721
vn 0.8057 0.1531 -0.5721
vn -0.0963 0.9576 0.2714
vn -0.0305 0.9401 0.3396
vn 0.0437 -0.9351 -0.3517
vn 0.0352 -0.9383 -0.3439
vn 0.6570 -0.1948 0.7283
vn -0.7506 0.1708 -0.6384
vn 0.9885 0.0390 -0.1458
vn 0.1510 0.2555 -0.9550
vn -0.3475 -0.5534 -0.7569
vn -0.2190 0.0161 -0.9756
vn 0.7323 0.0324 -0.6802
vn 0.9542 0.0163 0.2988
vn 0.2190 -0.0165 0.9756
vn -0.7322 -0.0326 0.6803
vn -0.9542 -0.0163 -0.2988
vn -0.2112 -0.1972 -0.9574
vn 0.7246 -0.1209 -0.6785
vn 0.9488 0.0806 0.3055
vn 0.2113 0.1953 0.9577
vn -0.7247 0.1202 0.6785
vn -0.9487 -0.0810 -0.3055
vn -0.0188 0.9349 0.3545
vn 0.0268 0.9332 0.3585
vn 0.0773 -0.9415 -0.3280
vn -0.0045 -0.9329 -0.3600
vn 0.8988 -0.0935 0.4283
vn -0.9492 0.0671 -0.3074
vn 0.0172 0.9369 0.3491
vn 0.0933 0.9460 0.3104
vn 0.0027 -0.9329 -0.3601
vn -0.0786 -0.9418 -0.3267
vn 0.9435 0.0707 -0.3237
vn -0.8910 -0.0969 0.4436
vn 0.0707 0.9388 0.3372
vn 0.1128 0.9669 0.2289
vn -0.0778 -0.9379 -0.3380
vn -0.1144 -0.9614 -0.2504
vn 0.4299 0.1926 -0.8821
vn -0.3079 -0.2030 0.9295
vn 0.1183 0.9578 0.2619
vn 0.0653 0.9865 0.1500
vn -0.1254 -0.9565 -0.2632
vn -0.0822 -0.9830 -0.1642
vn -0.3320 0.2012 -0.9216
vn 0.4523 -0.1902 0.8714
vn 0.0645 0.9854 0.1577
vn -0.0337 0.9911 0.1286
vn -0.1009 -0.9801 -0.1710
vn 0.0115 -0.9918 -0.1270
vn -0.9004 0.0928 -0.4251
vn 0.9500 -0.0666 0.3050
vn -0.0697 0.9858 0.1530
vn -0.1168 0.9750 0.1891
vn -0.0091 -0.9919 -0.1269
vn 0.1023 -0.9796 -0.1728
vn -0.9444 -0.0701 0.3211
vn 0.8927 0.0961 -0.4403
vn -0.1327 0.9570 0.2581
vn -0.1234 0.9500 0.2867
vn 0.0837 -0.9826 -0.1658
vn 0.1251 -0.9560 -0.2653
vn -0.4367 -0.1919 0.8789
vn 0.3155 0.2024 -0.9271
vn -0.0835 0.9355 0.3433
vn -0.0593 0.9337 0.3532
vn 0.1142 -0.9608 -0.2524
vn 0.0762 -0.9377 -0.3391
vn 0.3245 -0.2018 0.9241
vn -0.4456 0.1910 -0.8746
vn 0.8383 0.5312 0.1230
vn -0.4105 0.3815 0.8282
vn -0.4285 0.6699 -0.6063
vn 0.4238 0.6755 -0.6034
vn 0.4111 0.3852 0.8262
vn -0.8440 0.5213 0.1261
vn -0.4474 -0.6746 0.5872
vn 0.8072 -0.5624 -0.1792
vn -0.8072 -0.5624 -0.1792
vn 0.4474 -0.6746 0.5871
vn 0.3502 -0.5052 -0.7888
vn 0.2779 -0.9398 0.1987
vn -0.2779 -0.9398 0.1988
vn 0.0398 0.9499 0.3101
vn 0.0196 -0.9473 -0.3197
vn -0.0196 -0.9473 -0.3197
vn 0.9977 -0.0143 0.0655
vn -0.9978 -0.0143 0.0655
vn 0.0305 0.9401 0.3396
vn 0.0963 0.9576 0.2714
vn -0.0359 -0.9385 -0.3434
vn -0.0891 -0.9523 -0.2919
vn 0.7486 0.1415 -0.6478
vn -0.6543 -0.1613 0.7389
vn 0.0884 0.9466 0.3102
vn 0.0868 0.9769 0.1952
vn -0.0967 -0.9493 -0.2993
vn -0.0967 -0.9719 -0.2147
vn 0.0599 0.2129 -0.9752
vn 0.0707 -0.2128 0.9745
vn 0.0991 0.9714 0.2158
vn 0.0179 0.9895 0.1434
vn -0.1098 -0.9695 -0.2190
vn -0.0390 -0.9878 -0.1504
vn -0.6605 0.1602 -0.7336
vn 0.7533 -0.1403 0.6426
vn -0.0728 0.9843 0.1608
vn -0.0528 -0.9871 -0.1513
vn 0.0528 -0.9871 -0.1513
vn -0.9978 0.0142 -0.0649
vn 0.9978 0.0142 -0.0649
vn -0.1078 0.9724 0.2071
vn -0.1170 0.9639 0.2393
vn 0.0390 -0.9878 -0.1504
vn 0.1098 -0.9695 -0.2190
vn -0.7533 -0.1403 0.6426
vn 0.6604 0.1602 -0.7336
vn -0.0636 0.9963 0.0573
vn -0.0869 0.9439 0.3186
vn 0.0967 -0.9719 -0.2147
vn 0.0967 -0.9493 -0.2992
vn -0.0707 -0.2128 0.9745
vn -0.0599 0.2129 -0.9752
vn -0.0390 0.9369 0.3474
vn -0.0148 0.9364 0.3505
vn 0.0891 -0.9523 -0.2919
vn 0.0359 -0.9385 -0.3434
vn 0.6543 -0.1613 0.7389
vn -0.7485 0.1414 -0.6478
vn -0.3502 -0.5052 -0.7888
vt 0.229002 0.112545
vt 0.229043 0.077261
vt 0.228974 0.112505
vt 0.228979 0.077376
vt 0.228910 0.112545
vt 0.228860 0.077485
vt 0.228790 0.112505
vt 0.228832 0.077481
vt 0.228763 0.112466
vt 0.228855 0.112466
vt 0.228924 0.077369
vt 0.228350 0.037142
vt 0.229070 0.077265
vt 0.228260 0.037142
vt 0.228143 0.037142
vt 0.228206 0.037142
vt 0.228323 0.037142
vt 0.215832 0.374493
vt 0.218842 0.387735
vt 0.219429 0.389496
vt 0.219259 0.388984
vt 0.215951 0.374929
vt 0.215841 0.374045
vt 0.218846 0.387564
vt 0.215722 0.373609
vt 0.219263 0.388813
vt 0.215960 0.374482
vt 0.215714 0.374057
vt 0.215827 0.374472
vt 0.219238 0.388922
vt 0.219397 0.389399
vt 0.218804 0.387619
vt 0.215703 0.374017
vt 0.215835 0.374024
vt 0.219242 0.388751
vt 0.215959 0.374479
vt 0.218808 0.387448
vt 0.215712 0.373569
vt 0.215950 0.374927
vt 0.215355 0.372739
vt 0.217109 0.382532
vt 0.216747 0.381446
vt 0.216079 0.379441
vt 0.215062 0.371659
vt 0.215364 0.372291
vt 0.217113 0.382361
vt 0.215658 0.373371
vt 0.216083 0.379270
vt 0.215070 0.371211
vt 0.215649 0.373818
vt 0.214694 0.370309
vt 0.213703 0.372309
vt 0.213032 0.370296
vt 0.212680 0.369240
vt 0.214403 0.369237
vt 0.214703 0.369861
vt 0.213707 0.372138
vt 0.214995 0.370933
vt 0.212684 0.369069
vt 0.214412 0.368789
vt 0.214986 0.371381
vt 0.214231 0.368605
vt 0.211015 0.364242
vt 0.210428 0.362481
vt 0.210599 0.362993
vt 0.214113 0.368169
vt 0.214240 0.368158
vt 0.211019 0.364070
vt 0.214359 0.368594
vt 0.210603 0.362821
vt 0.214121 0.367722
vt 0.214350 0.369042
vt 0.214237 0.368627
vt 0.210620 0.363055
vt 0.210461 0.362578
vt 0.211054 0.364358
vt 0.214361 0.369082
vt 0.214246 0.368179
vt 0.210624 0.362884
vt 0.214122 0.367724
vt 0.211058 0.364186
vt 0.214369 0.368634
vt 0.214113 0.368172
vt 0.214708 0.370360
vt 0.212748 0.369444
vt 0.213110 0.370531
vt 0.213778 0.372536
vt 0.215002 0.371440
vt 0.214717 0.369912
vt 0.212752 0.369273
vt 0.214423 0.368832
vt 0.213782 0.372365
vt 0.215011 0.370992
vt 0.214415 0.369280
vt 0.215369 0.372790
vt 0.216154 0.379667
vt 0.216825 0.381681
vt 0.217177 0.382737
vt 0.215661 0.373862
vt 0.215378 0.372342
vt 0.216158 0.379496
vt 0.215086 0.371270
vt 0.217181 0.382565
vt 0.215669 0.373414
vt 0.215078 0.371718
vt 0.705837 0.437118
vt 0.704382 0.439766
vt 0.704276 0.432883
vt 0.703804 0.438265
vt 0.706617 0.439235
vt 0.705537 0.442769
vt 0.706115 0.444270
vt 0.703496 0.430766
vt 0.704555 0.428219
vt 0.705723 0.432396
vt 0.706308 0.434485
vt 0.705729 0.427987
vt 0.703971 0.426130
vt 0.704968 0.425270
vt 0.705475 0.427082
vt 0.704715 0.424364
vt 0.215864 0.376329
vt 0.219371 0.389450
vt 0.219780 0.390675
vt 0.215873 0.375881
vt 0.219375 0.389279
vt 0.215611 0.375399
vt 0.218439 0.387669
vt 0.218335 0.387356
vt 0.217654 0.385311
vt 0.215387 0.374576
vt 0.215620 0.374952
vt 0.218444 0.387497
vt 0.215844 0.375775
vt 0.217658 0.385140
vt 0.215396 0.374128
vt 0.215835 0.376223
vt 0.215001 0.373154
vt 0.215459 0.378722
vt 0.214903 0.377055
vt 0.214348 0.375388
vt 0.214684 0.371989
vt 0.215009 0.372706
vt 0.215463 0.378551
vt 0.215326 0.373871
vt 0.214352 0.375217
vt 0.214693 0.371542
vt 0.215317 0.374319
vt 0.214390 0.370909
vt 0.212153 0.368799
vt 0.211471 0.366754
vt 0.211367 0.366441
vt 0.214166 0.370086
vt 0.214399 0.370461
vt 0.212157 0.368628
vt 0.214623 0.371285
vt 0.211371 0.366270
vt 0.214175 0.369638
vt 0.214614 0.371733
vt 0.214137 0.369979
vt 0.210458 0.363712
vt 0.210049 0.362487
vt 0.214146 0.369532
vt 0.210462 0.363541
vt 0.214596 0.372681
vt 0.214604 0.372233
vt 0.214166 0.370086
vt 0.215009 0.372707
vt 0.214674 0.372490
vt 0.214665 0.372938
vt 0.228116 0.037142
s 0
usemtl Texture_Map
f 1/1/1 12/2/1 6/3/1
f 8/4/2 1/1/2 2/5/2
f 9/6/3 2/5/3 3/7/3
f 10/8/4 3/7/4 4/9/4
f 5/10/5 10/8/5 4/9/5
f 6/3/6 11/11/6 5/10/6
f 13/12/7 12/2/7 7/13/7
f 8/4/8 13/12/8 7/13/8
f 9/6/9 14/14/9 8/4/9
f 10/8/10 15/15/10 9/6/10
f 17/16/11 10/8/11 11/11/11
f 18/17/12 11/11/12 12/2/12
f 102/18/13 20/19/13 21/20/13
f 102/18/14 101/21/14 19/22/14
f 106/23/15 105/24/15 104/25/15
f 22/26/16 106/23/16 103/27/16
f 100/28/17 105/24/17 20/19/17
f 22/26/18 19/22/18 101/21/18
f 20/19/19 105/24/19 21/20/19
f 21/20/20 22/26/20 101/21/20
f 27/29/21 26/30/21 28/31/21
f 27/29/22 25/32/22 23/33/22
f 33/34/23 32/35/23 30/36/23
f 31/37/24 33/34/24 29/38/24
f 24/39/25 32/35/25 26/30/25
f 31/37/26 23/33/26 25/32/26
f 26/30/27 32/35/27 28/31/27
f 28/31/28 31/37/28 25/32/28
f 38/40/29 37/41/29 39/42/29
f 38/40/30 36/43/30 34/44/30
f 44/45/31 43/46/31 41/47/31
f 42/48/32 44/45/32 40/49/32
f 35/50/33 43/46/33 37/41/33
f 42/48/34 34/44/34 36/43/34
f 37/41/35 43/46/35 39/42/35
f 39/42/36 42/48/36 36/43/36
f 49/51/37 48/52/37 50/53/37
f 49/51/38 47/54/38 45/55/38
f 55/56/39 54/57/39 52/58/39
f 53/59/40 55/56/40 51/60/40
f 46/61/41 54/57/41 48/52/41
f 53/59/42 45/55/42 47/54/42
f 48/52/43 54/57/43 50/53/43
f 50/53/44 53/59/44 47/54/44
f 60/62/45 59/63/45 61/64/45
f 60/62/46 58/65/46 56/66/46
f 66/67/47 65/68/47 63/69/47
f 64/70/48 66/67/48 62/71/48
f 57/72/49 65/68/49 59/63/49
f 64/70/50 56/66/50 58/65/50
f 59/63/51 65/68/51 61/64/51
f 61/64/52 64/70/52 58/65/52
f 71/73/53 70/74/53 72/75/53
f 71/73/54 69/76/54 67/77/54
f 77/78/55 76/79/55 74/80/55
f 75/81/56 77/78/56 73/82/56
f 68/83/57 76/79/57 70/74/57
f 75/81/58 67/77/58 69/76/58
f 70/74/59 76/79/59 72/75/59
f 72/75/60 75/81/60 69/76/60
f 82/84/61 81/85/61 83/86/61
f 82/84/62 80/87/62 78/88/62
f 88/89/63 87/90/63 85/91/63
f 86/92/64 88/89/64 84/93/64
f 79/94/65 87/90/65 81/85/65
f 86/92/66 78/88/66 80/87/66
f 81/85/67 87/90/67 83/86/67
f 83/86/68 86/92/68 80/87/68
f 93/95/69 92/96/69 94/97/69
f 93/95/70 91/98/70 89/99/70
f 99/100/71 98/101/71 96/102/71
f 97/103/72 99/100/72 95/104/72
f 90/105/73 98/101/73 92/96/73
f 97/103/74 89/99/74 91/98/74
f 92/96/75 98/101/75 94/97/75
f 94/97/76 97/103/76 91/98/76
f 114/106/77 111/107/77 113/108/77
f 115/108/78 110/109/78 109/107/78
f 117/110/79 108/111/79 107/112/79
f 117/110/80 112/111/80 114/106/80
f 113/108/81 110/109/81 116/113/81
f 118/106/82 109/107/82 108/111/82
f 111/107/83 112/111/83 107/112/83
f 121/114/84 116/113/84 115/108/84
f 113/108/85 124/115/85 114/106/85
f 120/115/86 115/108/86 118/106/86
f 116/113/87 123/114/87 113/108/87
f 114/106/88 119/116/88 117/110/88
f 124/115/89 125/117/89 119/116/89
f 122/118/90 129/119/90 123/114/90
f 121/114/91 126/120/91 127/119/91
f 123/114/92 130/120/92 124/115/92
f 122/118/93 127/119/93 128/121/93
f 120/115/94 125/117/94 126/120/94
f 129/119/95 128/121/95 127/119/95
f 214/122/96 132/123/96 133/124/96
f 214/122/97 213/123/97 131/122/97
f 218/125/98 217/126/98 216/125/98
f 134/126/98 218/125/98 215/125/98
f 212/122/99 217/126/99 132/123/99
f 134/126/100 131/122/100 213/123/100
f 132/123/101 217/126/101 133/124/101
f 133/124/102 134/126/102 213/123/102
f 139/127/103 138/128/103 140/129/103
f 139/127/104 137/130/104 135/131/104
f 145/132/105 144/133/105 142/134/105
f 143/135/106 145/132/106 141/136/106
f 136/137/107 144/133/107 138/128/107
f 143/135/108 135/131/108 137/130/108
f 138/128/109 144/133/109 140/129/109
f 140/129/110 143/135/110 137/130/110
f 150/138/111 149/139/111 151/140/111
f 150/138/112 148/141/112 146/142/112
f 156/143/113 155/144/113 153/145/113
f 154/146/114 156/143/114 152/147/114
f 147/148/115 155/144/115 149/139/115
f 154/146/116 146/142/116 148/141/116
f 149/139/117 155/144/117 151/140/117
f 151/140/118 154/146/118 148/141/118
f 161/149/119 160/150/119 162/151/119
f 161/149/120 159/152/120 157/153/120
f 167/154/121 166/155/121 164/156/121
f 165/157/122 167/154/122 163/158/122
f 158/159/123 166/155/123 160/150/123
f 165/157/124 157/153/124 159/152/124
f 160/150/125 166/155/125 162/151/125
f 162/151/126 165/157/126 159/152/126
f 172/160/127 171/161/127 173/162/127
f 172/160/128 170/161/128 168/160/128
f 178/163/129 177/164/129 175/163/129
f 176/164/129 178/163/129 174/163/129
f 169/160/130 177/164/130 171/161/130
f 176/164/131 168/160/131 170/161/131
f 171/161/132 177/164/132 173/162/132
f 173/162/133 176/164/133 170/161/133
f 183/149/134 182/152/134 184/151/134
f 183/149/135 181/150/135 179/165/135
f 189/154/136 188/157/136 186/158/136
f 187/155/137 189/154/137 185/166/137
f 180/167/138 188/157/138 182/152/138
f 187/155/139 179/165/139 181/150/139
f 182/152/140 188/157/140 184/151/140
f 184/151/141 187/155/141 181/150/141
f 194/138/142 193/141/142 195/140/142
f 194/138/143 192/139/143 190/148/143
f 200/168/144 199/146/144 197/169/144
f 198/144/145 200/168/145 196/145/145
f 191/170/146 199/146/146 193/141/146
f 198/144/147 190/148/147 192/139/147
f 193/141/148 199/146/148 195/140/148
f 195/140/149 198/144/149 192/139/149
f 205/127/150 204/130/150 206/129/150
f 205/127/151 203/128/151 201/137/151
f 211/132/152 210/135/152 208/136/152
f 209/133/153 211/132/153 207/134/153
f 202/131/154 210/135/154 204/130/154
f 209/133/155 201/137/155 203/128/155
f 204/130/156 210/135/156 206/129/156
f 206/129/157 209/133/157 203/128/157
f 119/116/158 118/106/158 117/110/158
f 1/1/159 7/13/159 12/2/159
f 8/4/160 7/13/160 1/1/160
f 9/6/161 8/4/161 2/5/161
f 10/8/162 9/6/162 3/7/162
f 5/10/163 11/11/163 10/8/163
f 6/3/164 12/2/164 11/11/164
f 13/12/165 18/17/165 12/2/165
f 8/4/166 14/14/166 13/12/166
f 9/6/167 15/15/167 14/14/167
f 10/8/168 16/171/168 15/15/168
f 17/16/169 16/171/169 10/8/169
f 18/17/170 17/16/170 11/11/170
f 102/18/171 100/28/171 20/19/171
f 102/18/172 21/20/172 101/21/172
f 106/23/173 21/20/173 105/24/173
f 22/26/174 21/20/174 106/23/174
f 100/28/175 104/25/175 105/24/175
f 22/26/176 103/27/176 19/22/176
f 27/29/177 24/39/177 26/30/177
f 27/29/178 28/31/178 25/32/178
f 33/34/179 28/31/179 32/35/179
f 31/37/180 28/31/180 33/34/180
f 24/39/181 30/36/181 32/35/181
f 31/37/182 29/38/182 23/33/182
f 38/40/183 35/50/183 37/41/183
f 38/40/184 39/42/184 36/43/184
f 44/45/185 39/42/185 43/46/185
f 42/48/186 39/42/186 44/45/186
f 35/50/187 41/47/187 43/46/187
f 42/48/188 40/49/188 34/44/188
f 49/51/189 46/61/189 48/52/189
f 49/51/190 50/53/190 47/54/190
f 55/56/191 50/53/191 54/57/191
f 53/59/192 50/53/192 55/56/192
f 46/61/193 52/58/193 54/57/193
f 53/59/194 51/60/194 45/55/194
f 60/62/195 57/72/195 59/63/195
f 60/62/196 61/64/196 58/65/196
f 66/67/197 61/64/197 65/68/197
f 64/70/198 61/64/198 66/67/198
f 57/72/199 63/69/199 65/68/199
f 64/70/200 62/71/200 56/66/200
f 71/73/201 68/83/201 70/74/201
f 71/73/202 72/75/202 69/76/202
f 77/78/203 72/75/203 76/79/203
f 75/81/204 72/75/204 77/78/204
f 68/83/205 74/80/205 76/79/205
f 75/81/206 73/82/206 67/77/206
f 82/84/207 79/94/207 81/85/207
f 82/84/208 83/86/208 80/87/208
f 88/89/209 83/86/209 87/90/209
f 86/92/210 83/86/210 88/89/210
f 79/94/211 85/91/211 87/90/211
f 86/92/212 84/93/212 78/88/212
f 93/95/213 90/105/213 92/96/213
f 93/95/214 94/97/214 91/98/214
f 99/100/215 94/97/215 98/101/215
f 97/103/216 94/97/216 99/100/216
f 90/105/217 96/102/217 98/101/217
f 97/103/218 95/104/218 89/99/218
f 114/106/219 112/111/219 111/107/219
f 115/108/220 116/113/220 110/109/220
f 117/110/221 118/106/221 108/111/221
f 117/110/222 107/112/222 112/111/222
f 113/108/223 111/107/223 110/109/223
f 118/106/224 115/108/224 109/107/224
f 107/112/83 108/111/83 109/107/83
f 109/107/83 110/109/83 107/112/83
f 110/109/83 111/107/83 107/112/83
f 121/114/225 122/118/225 116/113/225
f 113/108/226 123/114/226 124/115/226
f 120/115/227 121/114/227 115/108/227
f 116/113/228 122/118/228 123/114/228
f 114/106/229 124/115/229 119/116/229
f 124/115/89 130/120/89 125/117/89
f 122/118/230 128/121/230 129/119/230
f 121/114/91 120/115/91 126/120/91
f 123/114/92 129/119/92 130/120/92
f 122/118/231 121/114/231 127/119/231
f 120/115/94 119/116/94 125/117/94
f 127/119/95 126/120/95 129/119/95
f 126/120/95 125/117/95 130/120/95
f 129/119/95 126/120/95 130/120/95
f 214/122/97 212/122/97 132/123/97
f 214/122/232 133/124/232 213/123/232
f 218/125/233 133/124/233 217/126/233
f 134/126/234 133/124/234 218/125/234
f 212/122/235 216/125/235 217/126/235
f 134/126/236 215/125/236 131/122/236
f 139/127/237 136/137/237 138/128/237
f 139/127/238 140/129/238 137/130/238
f 145/132/239 140/129/239 144/133/239
f 143/135/240 140/129/240 145/132/240
f 136/137/241 142/134/241 144/133/241
f 143/135/242 141/136/242 135/131/242
f 150/138/243 147/148/243 149/139/243
f 150/138/244 151/140/244 148/141/244
f 156/143/245 151/140/245 155/144/245
f 154/146/246 151/140/246 156/143/246
f 147/148/247 153/145/247 155/144/247
f 154/146/248 152/147/248 146/142/248
f 161/149/249 158/159/249 160/150/249
f 161/149/250 162/151/250 159/152/250
f 167/154/251 162/151/251 166/155/251
f 165/157/252 162/151/252 167/154/252
f 158/159/253 164/156/253 166/155/253
f 165/157/254 163/158/254 157/153/254
f 172/160/128 169/160/128 171/161/128
f 172/160/255 173/162/255 170/161/255
f 178/163/256 173/162/256 177/164/256
f 176/164/257 173/162/257 178/163/257
f 169/160/258 175/163/258 177/164/258
f 176/164/259 174/163/259 168/160/259
f 183/149/260 180/167/260 182/152/260
f 183/149/261 184/151/261 181/150/261
f 189/154/262 184/151/262 188/157/262
f 187/155/263 184/151/263 189/154/263
f 180/167/264 186/158/264 188/157/264
f 187/155/265 185/166/265 179/165/265
f 194/138/266 191/170/266 193/141/266
f 194/138/267 195/140/267 192/139/267
f 200/168/268 195/140/268 199/146/268
f 198/144/269 195/140/269 200/168/269
f 191/170/270 197/169/270 199/146/270
f 198/144/271 196/145/271 190/148/271
f 205/127/272 202/131/272 204/130/272
f 205/127/273 206/129/273 203/128/273
f 211/132/274 206/129/274 210/135/274
f 209/133/275 206/129/275 211/132/275
f 202/131/276 208/136/276 210/135/276
f 209/133/277 207/134/277 201/137/277
f 119/116/278 120/115/278 118/106/278
