# Blender 4.4.0
# www.blender.org
mtllib Env_Pebbles_01.mtl
o Env_Pebbles_01
v 0.163415 0.038810 0.112959
v 0.180656 0.041716 0.017056
v 0.227837 0.036388 0.124228
v 0.250499 0.041716 0.029274
v 0.155278 -0.000000 0.122374
v 0.163254 0.050890 0.063472
v 0.174843 -0.000000 0.005201
v 0.217417 0.041203 0.012649
v 0.258184 -0.000000 0.019780
v 0.239522 -0.000000 0.137111
v 0.196948 0.049921 0.129664
v 0.148549 -0.000000 0.060900
v 0.221278 -0.000000 -0.009421
v 0.268526 -0.000000 0.081887
v 0.193088 -0.000000 0.151733
v 0.020813 0.026564 -0.123210
v 0.114452 0.024807 -0.081981
v 0.151485 0.028674 -0.142947
v 0.008537 -0.000000 -0.120148
v 0.041966 -0.000000 -0.199634
v 0.163104 -0.000000 -0.146298
v 0.122820 -0.000000 -0.066812
v 0.069106 0.034629 -0.093480
v 0.062554 -0.000000 -0.078598
v 0.103847 0.028302 -0.172384
v 0.058567 0.038237 -0.116752
v 0.046015 0.014528 -0.193565
v 0.016224 0.027724 -0.163865
v 0.014793 -0.000000 -0.180161
v 0.088448 -0.000000 -0.191236
v 0.128013 -0.000000 -0.173578
v 0.160407 0.018094 -0.124748
v 0.145475 0.012245 -0.087910
v 0.160679 -0.000000 -0.084481
v 0.065093 0.037025 -0.166975
v 0.038677 0.024584 -0.183363
v -0.235214 0.021512 -0.099567
v -0.142511 -0.000000 -0.084142
v -0.192951 0.027238 -0.081416
v -0.241556 -0.000000 -0.094541
v -0.230350 -0.000000 -0.191366
v -0.131183 -0.000000 -0.182016
v -0.194254 -0.000000 -0.070159
v -0.118250 -0.000000 -0.130395
v -0.169080 0.041468 -0.153627
v -0.234180 0.028825 -0.023617
v -0.311497 0.033291 -0.052086
v -0.253975 -0.000000 0.104906
v -0.218839 -0.000000 -0.036464
v -0.218844 -0.000000 0.034466
v -0.334310 0.032862 0.008439
v -0.247556 0.030113 0.043258
v -0.305236 0.032194 0.105880
v -0.323391 -0.000000 0.111114
v -0.352268 -0.000000 0.030074
v -0.341019 -0.000000 -0.018690
v -0.247776 -0.000000 -0.057470
v -0.316179 0.040384 0.064174
v -0.091111 -0.000000 0.134838
v -0.065629 -0.000000 0.039562
v 0.004165 -0.000000 0.160320
v 0.029647 -0.000000 0.065044
v -0.088809 -0.000000 0.084408
v -0.047842 0.024433 0.023795
v -0.015199 -0.000000 0.041864
v 0.042878 0.024433 0.057397
v 0.027345 -0.000000 0.115474
v -0.046816 -0.000000 0.160077
v -0.009340 0.024433 0.019956
v 0.047499 0.024433 0.103749
v -0.106886 0.024433 0.116968
v -0.097770 0.011586 0.138687
v 0.026241 0.034193 0.144409
v -0.109979 0.024433 0.085946
v -0.093788 0.024433 0.066742
v -0.006332 0.053367 0.096110
v 0.023254 0.035086 0.052149
v -0.010990 0.033310 0.026125
v 0.213788 0.055650 0.039450
v -0.018449 0.044327 0.143540
v -0.057144 0.052238 0.106495
v -0.083426 0.038815 0.114081
v -0.087943 0.035463 0.124280
v -0.082611 0.028993 0.135937
v -0.057592 0.027225 0.144545
v -0.044809 0.033656 0.141075
v -0.079632 0.034030 0.066805
v -0.146229 0.014437 -0.087999
v -0.148350 0.035451 -0.120926
v -0.138276 0.026507 -0.115986
v -0.230768 0.025541 -0.148527
v -0.206991 0.035876 -0.174961
v -0.205943 0.027613 -0.183272
v -0.225833 0.018761 -0.187007
v 0.252714 0.000000 -0.037558
v 0.206791 0.000000 -0.079519
v 0.294674 0.000000 -0.083481
v 0.248752 0.000000 -0.125441
v 0.225155 0.000000 -0.053507
v 0.203137 0.015411 -0.094058
v 0.222740 0.000000 -0.107077
v 0.248317 0.015411 -0.135070
v 0.276310 0.000000 -0.109493
v 0.279718 0.000000 -0.055016
v 0.212181 0.015411 -0.116726
v 0.275606 0.015411 -0.124183
v 0.238126 0.015411 -0.033923
v 0.252932 0.007308 -0.032712
v 0.292186 0.021567 -0.100463
v 0.219862 0.015411 -0.041210
v 0.213820 0.015411 -0.055855
v 0.255681 0.033660 -0.096272
v 0.239675 0.022130 -0.125612
v 0.215154 0.021010 -0.114009
v 0.278708 0.027959 -0.075701
v 0.246723 0.032949 -0.064811
v 0.243329 0.024482 -0.047895
v 0.247725 0.022368 -0.042401
v 0.255800 0.018287 -0.041997
v 0.267892 0.017172 -0.053499
v 0.269665 0.021228 -0.061662
v 0.217970 0.021464 -0.063761
v -0.171333 0.020883 0.110348
v -0.225931 0.024119 0.134476
v -0.116891 0.000000 0.187236
v -0.169818 0.000000 0.095930
v -0.134087 0.000000 0.132863
v -0.207317 0.023809 0.177482
v -0.144607 0.021817 0.151905
v -0.143090 0.023325 0.213568
v -0.149906 0.000000 0.225439
v -0.205768 0.000000 0.197793
v -0.224478 0.000000 0.166736
v -0.195467 0.000000 0.099571
v -0.169799 0.029258 0.197366
vn -0.9677 0.2286 0.1059
vn -0.8778 0.2401 -0.4144
vn -0.2705 0.4347 -0.8590
vn 0.5598 0.4314 -0.7075
vn 0.9636 0.2140 -0.1605
vn 0.2755 0.3982 0.8749
vn -0.5841 0.3049 0.7522
vn 0.8077 0.4095 0.4242
vn -0.4032 0.8887 0.2183
vn -0.0452 0.8768 -0.4787
vn 0.7664 0.6047 0.2168
vn 0.0715 0.7356 -0.6737
vn 0.5809 0.3227 -0.7473
vn 0.3336 0.6145 0.7149
vn -0.1692 0.4720 0.8652
vn -0.5712 0.3496 0.7426
vn 0.4068 0.8622 0.3018
vn 0.2202 0.9754 0.0051
vn 0.2272 0.9738 0.0110
vn -0.5121 0.3983 -0.7610
vn -0.9884 0.1116 -0.1030
vn -0.3275 0.8999 0.2878
vn 0.3801 0.3605 -0.8518
vn 0.1672 0.3400 -0.9255
vn 0.9095 -0.2553 0.3281
vn 0.8964 0.3882 -0.2138
vn 0.6237 0.7813 0.0245
vn -0.1963 0.9072 -0.3722
vn -0.8969 0.4275 0.1134
vn -0.4334 0.3242 0.8408
vn 0.2692 0.6997 -0.6618
vn -0.0133 0.9819 0.1891
vn 0.2481 0.3092 0.9181
vn -0.1877 0.9736 0.1298
vn -0.2338 0.9583 0.1643
vn -0.9486 0.2677 -0.1688
vn -0.8055 0.5627 0.1861
vn -0.3314 -0.5054 -0.7967
vn 0.4873 0.5585 -0.6713
vn 0.8828 0.4698 0.0001
vn 0.7252 0.5859 0.3617
vn 0.2909 0.6676 -0.6853
vn 0.0969 0.9817 -0.1640
vn 0.0484 0.9985 0.0253
vn -0.8128 0.5054 0.2896
vn 0.0885 0.1110 0.9899
vn -0.9095 0.3589 -0.2098
vn 0.1885 0.9718 0.1414
vn 0.4875 0.7634 0.4237
vn -0.7904 -0.4565 -0.4085
vn -0.7513 -0.6557 0.0749
vn 0.0377 -0.5611 -0.8269
vn -0.5650 0.5841 0.5827
vn 0.3402 -0.6717 -0.6581
vn 0.7792 -0.6257 0.0356
vn 0.3595 0.9324 -0.0358
vn 0.2106 0.9490 0.2347
vn 0.8359 -0.3386 0.4320
vn 0.1652 0.9451 -0.2819
vn 0.4834 0.5583 -0.6742
vn 0.5070 0.8619 0.0003
vn -0.3689 0.9213 -0.1228
vn -0.5173 0.8542 0.0516
vn -0.4800 0.7113 -0.5135
vn 0.0691 0.3838 0.9208
vn -0.6492 -0.5281 -0.5474
vn -0.3211 0.0583 0.9452
vn -0.0042 0.4918 0.8707
vn 0.4175 0.8986 0.1350
vn 0.2086 0.8724 -0.4420
vn -0.3237 0.8585 0.3978
vn -0.3591 0.7627 0.5379
vn -0.2110 0.9433 -0.2563
vn -0.0823 0.5583 -0.8255
vn -0.4742 0.2871 0.8323
vn -0.1799 0.7196 0.6707
vn -0.0341 0.9985 0.0426
vn 0.4536 0.7642 0.4585
vn 0.6821 0.6621 -0.3106
vn 0.8175 0.3845 0.4288
vn -0.5789 0.7871 -0.2129
vn 0.0919 0.2045 -0.9746
vn -0.7269 -0.4565 0.5131
vn -0.2798 -0.6557 0.7013
vn -0.7164 -0.5611 -0.4146
vn 0.2567 0.5841 0.7700
vn -0.4273 -0.6717 -0.6052
vn 0.3907 -0.6257 -0.6751
vn 0.1339 0.9324 -0.3356
vn 0.3054 0.9490 -0.0788
vn 0.7687 -0.3386 -0.5427
vn -0.1740 0.9451 -0.2765
vn -0.3755 0.5583 -0.7398
vn 0.2339 0.8619 -0.4498
vn -0.2790 0.9213 0.2707
vn -0.1927 0.8542 0.4829
vn -0.6769 0.7113 0.1893
vn 0.8490 0.3838 0.3630
vn -0.7850 -0.5281 0.3239
vn 0.6909 0.0583 0.7206
vn 0.7708 0.4918 0.4050
vn 0.2039 0.8585 0.4706
vn 0.3119 0.7627 0.5666
vn -0.3247 0.9433 0.0692
vn -0.7706 0.5583 -0.3074
vn 0.5200 0.2871 0.8044
vn 0.5123 0.7196 0.4688
vn -0.4494 0.5627 0.6938
vn -0.7922 -0.5054 -0.3422
vn -0.1166 0.5585 -0.8212
vn 0.6344 0.4698 -0.6138
vn 0.7727 0.5859 -0.2444
vn -0.2675 0.6676 -0.6948
vn -0.0444 0.9817 -0.1853
vn 0.0524 0.9985 -0.0154
vn -0.3827 0.5054 0.7733
vn 0.7519 0.1110 0.6498
vn -0.7995 0.3589 0.4817
vn 0.2338 0.9718 -0.0295
vn 0.6450 0.7634 -0.0345
vn -0.9593 0.2736 0.0699
vn -0.8814 0.2741 -0.3847
vn -0.1102 0.2859 -0.9519
vn 0.4283 0.2748 -0.8608
vn 0.3136 0.3635 0.8772
vn -0.5103 0.3804 0.7713
vn -0.2151 0.9396 -0.2664
vn 0.4710 0.4345 -0.7677
vn 0.3715 0.5723 0.7310
vn -0.1388 0.4131 0.9001
vn -0.5258 0.4179 0.7408
vn 0.1960 0.9786 0.0630
vn -0.5206 0.4486 -0.7265
vn -0.5514 0.4437 -0.7064
vn 0.2057 0.4625 -0.8624
vn -0.1837 0.9818 0.0487
vn -0.2854 0.9565 -0.0602
vn -0.4087 0.3652 0.8364
vn 0.2695 0.6994 -0.6620
vn 0.2267 0.3627 0.9039
vn -0.2451 0.9678 0.0574
vn -0.9782 0.1739 -0.1132
vn -0.9612 0.2681 -0.0652
vn -0.8238 0.4749 0.3094
vn -0.8446 0.4327 -0.3153
vn 0.7365 0.6629 0.1345
vn 0.0365 0.9993 -0.0120
vn -0.6826 0.0257 -0.7303
vn -0.8267 -0.5614 -0.0377
vn -0.8573 -0.5117 0.0572
vn -0.0749 -0.6557 -0.7513
vn 0.5063 -0.4951 -0.7061
vn 0.8645 -0.4951 -0.0862
vn 0.0173 0.9813 0.1915
vn 0.7709 -0.3968 0.4983
vn 0.4845 0.8740 -0.0374
vn -0.4799 0.8682 -0.1264
vn -0.5062 0.7494 -0.4268
vn -0.1935 0.2595 0.9462
vn 0.3184 -0.1290 0.9391
vn -0.0113 0.4921 0.8705
vn 0.3857 0.9115 0.1432
vn -0.0700 0.9963 0.0502
vn 0.2243 0.8920 0.3925
vn -0.1272 0.9439 -0.3047
vn -0.0961 0.9242 -0.3696
vn -0.1735 0.8404 0.5135
vn 0.2937 0.8143 0.5007
vn 0.7076 0.6648 -0.2394
vn 0.6680 0.7251 -0.1674
vn 0.8634 0.3254 0.3857
vn -0.1735 0.6873 -0.7053
vn 0.0921 0.2043 -0.9746
vn -0.9627 0.0257 0.2692
vn -0.4145 -0.5614 0.7163
vn -0.3444 -0.5117 0.7871
vn -0.7013 -0.6557 -0.2798
vn -0.3933 -0.4951 -0.7747
vn 0.3220 -0.4951 -0.8070
vn 0.1779 0.9813 0.0729
vn 0.7975 -0.3968 -0.4545
vn 0.1901 0.8740 -0.4472
vn -0.3333 0.8682 0.3676
vn -0.6120 0.7494 0.2525
vn 0.7505 0.2595 0.6078
vn 0.9802 -0.1290 0.1503
vn 0.7673 0.4921 0.4112
vn 0.4517 0.8920 -0.0182
vn -0.3290 0.9439 -0.0275
vn -0.3723 0.9242 -0.0851
vn 0.3757 0.8404 0.3906
vn -0.3769 0.4749 0.7952
vn -0.8262 0.4327 0.3607
vn 0.6228 0.6629 -0.4154
vn 0.0179 0.9993 -0.0340
vt 0.484660 0.697150
vt 0.484307 0.647183
vt 0.484724 0.647183
vt 0.484011 0.700891
vt 0.483930 0.647183
vt 0.483981 0.700231
vt 0.483831 0.647183
vt 0.484029 0.647183
vt 0.484093 0.700891
vt 0.484450 0.647183
vt 0.484736 0.694032
vt 0.484922 0.647183
vt 0.484823 0.647183
vt 0.484773 0.711456
vt 0.484325 0.712702
vt 0.484162 0.718830
vt 0.482585 0.665888
vt 0.482765 0.694851
vt 0.482728 0.683622
vt 0.482720 0.647183
vt 0.482927 0.684100
vt 0.482905 0.647183
vt 0.483300 0.662948
vt 0.483443 0.647183
vt 0.483323 0.647183
vt 0.483340 0.679121
vt 0.483363 0.647183
vt 0.483061 0.681384
vt 0.483082 0.647183
vt 0.483051 0.670478
vt 0.483105 0.696412
vt 0.482675 0.647183
vt 0.482654 0.678835
vt 0.482786 0.682878
vt 0.483262 0.691766
vt 0.482600 0.647183
vt 0.482544 0.647183
vt 0.483420 0.647183
vt 0.483221 0.674880
vt 0.483255 0.647183
vt 0.482855 0.700572
vt 0.482654 0.682733
vt 0.482711 0.693372
vt 0.483344 0.682252
vt 0.483076 0.692825
vt 0.483299 0.665771
vt 0.483325 0.647183
vt 0.482890 0.680067
vt 0.482629 0.671338
vt 0.482599 0.647183
vt 0.484099 0.647183
vt 0.484330 0.699176
vt 0.483952 0.689492
vt 0.483769 0.647183
vt 0.483543 0.690044
vt 0.483506 0.647183
vt 0.483735 0.684294
vt 0.483648 0.647183
vt 0.484128 0.647183
vt 0.484188 0.685953
vt 0.484605 0.647183
vt 0.484647 0.647183
vt 0.484612 0.688632
vt 0.484347 0.678640
vt 0.484163 0.647183
vt 0.484467 0.647183
vt 0.484687 0.678640
vt 0.484477 0.678640
vt 0.484056 0.678640
vt 0.484179 0.647183
vt 0.484834 0.662100
vt 0.484737 0.692840
vt 0.484030 0.678640
vt 0.484336 0.647183
vt 0.484598 0.678640
vt 0.484677 0.647183
vt 0.484284 0.678640
vt 0.484873 0.691205
vt 0.484546 0.715891
vt 0.484867 0.704253
vt 0.484981 0.647183
vt 0.484072 0.690069
vt 0.484248 0.692355
vt 0.484347 0.690996
vt 0.484668 0.697156
vt 0.484816 0.684511
vt 0.484808 0.647183
vt 0.484874 0.682235
vt 0.484850 0.690514
vt 0.484979 0.647183
vt 0.484616 0.714438
vt 0.483110 0.681311
vt 0.483012 0.647183
vt 0.482663 0.647183
vt 0.483517 0.667024
vt 0.483357 0.647183
vt 0.483533 0.647183
vt 0.483665 0.667024
vt 0.483616 0.667024
vt 0.483258 0.667024
vt 0.483170 0.647183
vt 0.483674 0.656593
vt 0.483608 0.675981
vt 0.483105 0.667024
vt 0.483046 0.647183
vt 0.483054 0.667024
vt 0.483154 0.647183
vt 0.482981 0.667024
vt 0.483215 0.674950
vt 0.483243 0.690520
vt 0.483383 0.683179
vt 0.483330 0.647183
vt 0.483123 0.674233
vt 0.483045 0.675676
vt 0.483463 0.674818
vt 0.483571 0.678703
vt 0.483611 0.670728
vt 0.483641 0.647183
vt 0.483533 0.669292
vt 0.483478 0.674514
vt 0.483523 0.647183
vt 0.483456 0.689603
vt 0.485234 0.647183
vt 0.485231 0.684852
vt 0.485097 0.677836
vt 0.485024 0.647183
vt 0.484806 0.678236
vt 0.484569 0.647183
vt 0.484642 0.674070
vt 0.484545 0.647183
vt 0.484795 0.647183
vt 0.484924 0.675272
vt 0.485163 0.647183
vt 0.485421 0.647183
vt 0.485341 0.677213
s 0
usemtl Texture_Map
f 1/1/1 12/2/1 5/3/1
f 12/2/2 2/4/2 7/5/2
f 7/5/3 8/6/3 13/7/3
f 8/6/4 9/8/4 13/7/4
f 9/8/5 4/9/5 14/10/5
f 3/11/6 15/12/6 10/13/6
f 15/12/7 1/1/7 5/3/7
f 14/10/8 3/11/8 10/13/8
f 11/14/9 6/15/9 1/1/9
f 2/4/10 79/16/10 8/6/10
f 4/9/11 3/11/11 14/10/11
f 27/17/12 35/18/12 25/19/12
f 31/20/13 18/21/13 21/22/13
f 33/23/14 22/24/14 34/25/14
f 17/26/15 24/27/15 22/24/15
f 24/27/16 16/28/16 19/29/16
f 18/21/17 33/23/17 32/30/17
f 25/19/18 35/18/18 26/31/18
f 26/31/19 17/26/19 25/19/19
f 27/17/20 29/32/20 36/33/20
f 19/29/21 28/34/21 29/32/21
f 23/35/22 26/31/22 16/28/22
f 30/36/23 25/19/23 31/20/23
f 27/17/24 30/36/24 20/37/24
f 21/22/25 32/30/25 33/23/25
f 21/22/26 18/21/26 32/30/26
f 34/25/27 21/22/27 33/23/27
f 35/18/28 36/33/28 28/34/28
f 19/29/29 16/28/29 28/34/29
f 43/38/30 37/39/30 40/40/30
f 45/41/31 93/42/31 92/43/31
f 45/41/32 39/44/32 89/45/32
f 88/46/33 43/38/33 38/47/33
f 37/39/34 39/44/34 45/41/34
f 91/48/35 45/41/35 92/43/35
f 91/48/36 94/49/36 41/50/36
f 55/51/37 58/52/37 51/53/37
f 56/54/38 47/55/38 57/56/38
f 57/56/39 46/57/39 49/58/39
f 46/57/40 50/59/40 49/58/40
f 50/59/41 52/60/41 48/61/41
f 47/55/42 46/57/42 57/56/42
f 51/53/43 58/52/43 52/60/43
f 51/53/44 46/57/44 47/55/44
f 54/62/45 53/63/45 55/51/45
f 48/61/46 53/63/46 54/62/46
f 55/51/47 51/53/47 56/54/47
f 52/60/48 58/52/48 53/63/48
f 48/61/49 52/60/49 53/63/49
f 75/64/50 60/65/50 63/66/50
f 71/67/51 74/68/51 63/66/51
f 64/69/52 65/70/52 60/65/52
f 72/71/53 83/72/53 71/67/53
f 69/73/54 62/74/54 65/70/54
f 62/74/55 70/75/55 67/76/55
f 66/77/56 73/78/56 70/75/56
f 76/79/57 80/80/57 73/78/57
f 67/76/58 73/78/58 61/81/58
f 78/82/59 76/79/59 77/83/59
f 69/73/60 77/83/60 66/77/60
f 66/77/61 76/79/61 73/78/61
f 87/84/62 74/68/62 82/85/62
f 71/67/63 82/85/63 74/68/63
f 75/64/64 87/84/64 64/69/64
f 80/80/65 61/81/65 73/78/65
f 74/68/66 75/64/66 63/66/66
f 84/86/67 59/87/67 85/88/67
f 86/89/68 68/90/68 61/81/68
f 3/11/69 79/16/69 11/14/69
f 4/9/70 8/6/70 79/16/70
f 82/85/71 84/86/71 81/91/71
f 80/80/72 81/91/72 86/89/72
f 76/79/73 78/82/73 64/69/73
f 64/69/74 78/82/74 69/73/74
f 68/90/75 85/88/75 59/87/75
f 86/89/76 84/86/76 85/88/76
f 18/21/77 25/19/77 17/26/77
f 89/45/78 88/46/78 90/92/78
f 89/45/79 44/93/79 45/41/79
f 90/92/80 38/47/80 44/93/80
f 92/43/81 94/49/81 91/48/81
f 41/50/82 93/42/82 42/94/82
f 111/95/83 96/96/83 99/97/83
f 107/98/84 110/99/84 99/97/84
f 100/100/85 101/101/85 96/96/85
f 108/102/86 118/103/86 107/98/86
f 105/104/87 98/105/87 101/101/87
f 98/105/88 106/106/88 103/107/88
f 102/108/89 109/109/89 106/106/89
f 112/110/90 115/111/90 109/109/90
f 103/107/91 109/109/91 97/112/91
f 114/113/92 112/110/92 113/114/92
f 105/104/93 113/114/93 102/108/93
f 102/108/94 112/110/94 109/109/94
f 122/115/95 110/99/95 117/116/95
f 107/98/96 117/116/96 110/99/96
f 111/95/97 122/115/97 100/100/97
f 115/111/98 97/112/98 109/109/98
f 110/99/99 111/95/99 99/97/99
f 119/117/100 95/118/100 120/119/100
f 121/120/101 104/121/101 97/112/101
f 117/116/102 119/117/102 116/122/102
f 115/111/103 116/122/103 121/120/103
f 112/110/104 114/113/104 100/100/104
f 100/100/105 114/113/105 105/104/105
f 104/121/106 120/119/106 95/118/106
f 121/120/107 119/117/107 120/119/107
f 132/123/108 135/124/108 128/125/108
f 133/126/109 124/127/109 134/128/109
f 134/128/110 123/129/110 126/130/110
f 123/129/111 127/131/111 126/130/111
f 127/131/112 129/132/112 125/133/112
f 124/127/113 123/129/113 134/128/113
f 128/125/114 135/124/114 129/132/114
f 128/125/115 123/129/115 124/127/115
f 131/134/116 130/135/116 132/123/116
f 125/133/117 130/135/117 131/134/117
f 132/123/118 128/125/118 133/126/118
f 129/132/119 135/124/119 130/135/119
f 125/133/120 129/132/120 130/135/120
f 1/1/121 6/15/121 12/2/121
f 12/2/122 6/15/122 2/4/122
f 7/5/123 2/4/123 8/6/123
f 8/6/124 4/9/124 9/8/124
f 3/11/125 11/14/125 15/12/125
f 15/12/126 11/14/126 1/1/126
f 2/4/127 6/15/127 79/16/127
f 27/17/12 36/33/12 35/18/12
f 31/20/128 25/19/128 18/21/128
f 33/23/129 17/26/129 22/24/129
f 17/26/130 23/35/130 24/27/130
f 24/27/131 23/35/131 16/28/131
f 18/21/17 17/26/17 33/23/17
f 26/31/132 23/35/132 17/26/132
f 20/37/133 29/32/133 27/17/133
f 29/32/134 28/34/134 36/33/134
f 27/17/135 25/19/135 30/36/135
f 28/34/136 16/28/136 35/18/136
f 16/28/137 26/31/137 35/18/137
f 43/38/138 39/44/138 37/39/138
f 45/41/139 42/94/139 93/42/139
f 88/46/140 39/44/140 43/38/140
f 91/48/141 37/39/141 45/41/141
f 41/50/142 40/40/142 91/48/142
f 40/40/143 37/39/143 91/48/143
f 55/51/144 53/63/144 58/52/144
f 56/54/145 51/53/145 47/55/145
f 46/57/146 52/60/146 50/59/146
f 51/53/147 52/60/147 46/57/147
f 75/64/148 64/69/148 60/65/148
f 63/66/149 59/87/149 71/67/149
f 59/87/150 72/71/150 71/67/150
f 64/69/151 69/73/151 65/70/151
f 72/71/53 84/86/53 83/72/53
f 69/73/152 66/77/152 62/74/152
f 62/74/153 66/77/153 70/75/153
f 76/79/154 81/91/154 80/80/154
f 67/76/155 70/75/155 73/78/155
f 69/73/60 78/82/60 77/83/60
f 66/77/156 77/83/156 76/79/156
f 82/85/157 81/91/157 87/84/157
f 87/84/158 75/64/158 74/68/158
f 71/67/63 83/72/63 82/85/63
f 80/80/159 86/89/159 61/81/159
f 84/86/160 72/71/160 59/87/160
f 86/89/161 85/88/161 68/90/161
f 4/9/162 79/16/162 3/11/162
f 79/16/163 6/15/163 11/14/163
f 82/85/164 83/72/164 84/86/164
f 64/69/165 87/84/165 76/79/165
f 87/84/166 81/91/166 76/79/166
f 86/89/167 81/91/167 84/86/167
f 89/45/168 39/44/168 88/46/168
f 90/92/169 44/93/169 89/45/169
f 44/93/170 42/94/170 45/41/170
f 90/92/171 88/46/171 38/47/171
f 92/43/172 93/42/172 94/49/172
f 41/50/173 94/49/173 93/42/173
f 111/95/174 100/100/174 96/96/174
f 99/97/175 95/118/175 107/98/175
f 95/118/176 108/102/176 107/98/176
f 100/100/177 105/104/177 101/101/177
f 108/102/86 119/117/86 118/103/86
f 105/104/178 102/108/178 98/105/178
f 98/105/179 102/108/179 106/106/179
f 112/110/180 116/122/180 115/111/180
f 103/107/181 106/106/181 109/109/181
f 105/104/93 114/113/93 113/114/93
f 102/108/182 113/114/182 112/110/182
f 117/116/183 116/122/183 122/115/183
f 122/115/184 111/95/184 110/99/184
f 107/98/96 118/103/96 117/116/96
f 115/111/185 121/120/185 97/112/185
f 119/117/186 108/102/186 95/118/186
f 121/120/187 120/119/187 104/121/187
f 117/116/188 118/103/188 119/117/188
f 100/100/189 122/115/189 112/110/189
f 122/115/190 116/122/190 112/110/190
f 121/120/191 116/122/191 119/117/191
f 132/123/192 130/135/192 135/124/192
f 133/126/193 128/125/193 124/127/193
f 123/129/194 129/132/194 127/131/194
f 128/125/195 129/132/195 123/129/195
