# Blender 4.4.0
# www.blender.org
mtllib Env_Daisy_Low_Detail_01.mtl
o Env_Daisy_Low_Detail_01
v -0.001205 0.161117 -0.017763
v -0.002937 0.160963 -0.012669
v -0.006648 0.160949 -0.016083
v -0.002450 0.085710 -0.020109
v 0.001261 0.085965 -0.016703
v -0.004200 0.086034 -0.015032
v -0.000449 0.000047 -0.002649
v 0.002929 0.000000 -0.000646
v -0.000908 0.000000 0.002811
v 0.024215 0.184527 -0.060776
v 0.013789 0.186579 -0.068027
v -0.011618 0.169665 -0.022035
v -0.019226 0.185849 -0.065644
v -0.031927 0.185405 -0.063638
v -0.011620 0.169146 -0.022150
v -0.004174 0.170350 -0.025164
v -0.015310 0.167137 -0.014114
v -0.057007 0.178764 -0.039000
v -0.015318 0.166626 -0.014204
v -0.012291 0.169117 -0.021453
v -0.058818 0.175406 -0.026738
v -0.012139 0.164496 -0.006008
v -0.058552 0.167616 0.002551
v -0.056518 0.164416 0.014832
v -0.012133 0.163982 -0.006105
v -0.015309 0.166446 -0.013285
v -0.003976 0.163273 -0.002453
v -0.031402 0.158742 0.035665
v -0.020988 0.156889 0.042968
v -0.003986 0.162738 -0.002572
v -0.011469 0.163907 -0.005444
v 0.012037 0.157420 0.040532
v -0.002988 0.163127 -0.002492
v 0.024730 0.158060 0.038587
v 0.004434 0.163985 -0.005573
v -0.002998 0.162743 -0.002579
v 0.046318 0.164424 0.014303
v 0.005106 0.164399 -0.006195
v 0.053852 0.167240 0.004269
v 0.008130 0.166523 -0.013481
v 0.005084 0.164030 -0.006249
v 0.051364 0.175652 -0.027660
v 0.008119 0.167078 -0.014359
v 0.049328 0.179053 -0.039893
v 0.004964 0.169173 -0.021597
v 0.008123 0.166690 -0.014402
v 0.004263 0.169608 -0.022211
v -0.003220 0.170367 -0.025169
v 0.004281 0.169188 -0.022285
v -0.003594 0.178104 -0.027138
v -0.016356 0.176455 -0.020020
v -0.016356 0.173159 -0.005784
v -0.003594 0.171510 0.001334
v 0.009168 0.173159 -0.005784
v 0.009168 0.176455 -0.020020
v 0.013855 0.164444 -0.005027
v -0.021026 0.164431 -0.005023
v -0.003594 0.172420 -0.033342
v -0.020597 0.169902 -0.024246
v -0.003590 0.160890 0.004287
v 0.013410 0.169912 -0.024257
v -0.006764 0.159489 -0.021404
v -0.001818 0.156024 -0.013231
v -0.007633 0.172129 -0.024047
v 0.003490 0.186430 -0.067290
v -0.009012 0.187303 -0.070235
v -0.014239 0.170310 -0.018132
v -0.042053 0.184777 -0.056749
v -0.014252 0.169802 -0.018230
v -0.008524 0.171758 -0.023746
v -0.048694 0.181862 -0.046140
v -0.014595 0.167516 -0.009460
v -0.063379 0.174247 -0.017433
v -0.014594 0.167010 -0.009544
v -0.014606 0.169659 -0.017368
v -0.060295 0.170956 -0.005408
v -0.008517 0.165409 -0.003101
v -0.048695 0.163759 0.021652
v -0.042046 0.160994 0.032306
v -0.008511 0.164892 -0.003207
v -0.014238 0.166839 -0.008701
v -0.010679 0.158155 0.042529
v -0.007608 0.165077 -0.002784
v 0.001807 0.157457 0.045529
v 0.000457 0.164998 -0.002809
v -0.007606 0.164664 -0.002878
v 0.031486 0.161134 0.031322
v 0.001312 0.165182 -0.003138
v 0.042491 0.162975 0.024937
v 0.007031 0.167484 -0.008524
v 0.004193 0.165687 -0.005994
v 0.056181 0.171479 -0.007005
v 0.007420 0.169569 -0.017303
v 0.007424 0.168019 -0.009393
v 0.053104 0.174664 -0.019079
v 0.007419 0.168152 -0.013516
v 0.041507 0.181860 -0.046134
v 0.007047 0.170209 -0.018174
v 0.034860 0.184814 -0.056743
v 0.001336 0.171765 -0.023745
v 0.007065 0.169802 -0.018230
v -0.007629 0.171638 -0.024155
v 0.000447 0.172009 -0.024073
vn -0.2957 0.0346 -0.9547
vn 0.9458 0.0356 0.3228
vn -0.6771 -0.0118 0.7358
vn 0.6752 -0.1321 -0.7257
vn 0.2888 0.2050 0.9352
vn -0.9435 -0.0872 -0.3196
vn -0.0500 0.9399 0.3378
vn -0.0390 0.9396 0.3399
vn -0.0096 -0.9340 -0.3571
vn 0.0216 0.9385 0.3445
vn 0.0054 -0.9332 -0.3593
vn -0.0650 -0.9351 -0.3485
vn 0.1081 0.9662 0.2339
vn -0.1254 -0.9541 -0.2720
vn 0.0619 0.9849 0.1616
vn -0.0895 -0.9819 -0.1668
vn -0.0283 0.9896 0.1412
vn -0.0497 0.9866 0.1552
vn 0.0936 -0.9802 -0.1745
vn -0.0995 0.9749 0.1989
vn -0.1072 0.9656 0.2370
vn 0.1225 -0.9531 -0.2769
vn -0.1023 0.9539 0.2822
vn -0.0830 0.9470 0.3102
vn 0.0636 -0.9345 -0.3503
vn 0.8706 0.4782 0.1159
vn -0.4333 0.3059 0.8478
vn -0.4268 0.6668 -0.6109
vn 0.4244 0.6697 -0.6094
vn 0.4177 0.2435 0.8753
vn -0.8658 0.4875 0.1129
vn -0.0000 0.9742 0.2256
vn 0.2601 -0.6887 -0.6768
vn 0.3344 -0.8988 0.2835
vn -0.4384 -0.8917 -0.1128
vn 0.5538 -0.7974 -0.2396
vn -0.0082 0.9487 0.3160
vn 0.0151 0.9501 0.3117
vn 0.0468 -0.9485 -0.3132
vn -0.0182 -0.9362 -0.3509
vn -0.0883 -0.9435 -0.3194
vn 0.0837 0.9760 0.2010
vn -0.1124 -0.9677 -0.2257
vn 0.0187 0.9882 0.1522
vn 0.0102 0.9880 0.1539
vn 0.0422 -0.9870 -0.1552
vn -0.0646 0.9830 0.1720
vn -0.1317 0.9543 0.2681
vn 0.0312 -0.9892 -0.1435
vn 0.2368 -0.8976 -0.3719
vn 0.0723 -0.9969 -0.0321
vn 0.0904 -0.9327 -0.3492
vn -0.0705 0.9486 0.3084
vn -0.0538 0.9461 0.3195
vn 0.0179 -0.9359 -0.3519
vn 0.6757 0.0118 -0.7371
vn 0.2920 -0.0351 0.9558
vn -0.9455 -0.0354 -0.3236
vn 0.5029 -0.1493 -0.8514
vn 0.6618 0.1500 0.7345
vn -0.9949 -0.0555 -0.0841
vn 0.0554 -0.9371 -0.3447
vn 0.8936 -0.0391 0.4472
vn 0.0560 0.9392 0.3388
vn -0.0234 -0.9346 -0.3548
vn -0.9079 -0.0876 0.4100
vn 0.0900 0.9516 0.2938
vn 0.1013 0.9556 0.2767
vn -0.1125 -0.9540 -0.2779
vn -0.3032 -0.1615 0.9391
vn 0.1048 0.9711 0.2145
vn -0.1188 -0.9655 -0.2319
vn 0.4196 -0.1627 0.8930
vn 0.0286 0.9900 0.1383
vn -0.0687 -0.9860 -0.1523
vn 0.9367 -0.0918 0.3379
vn 0.0297 -0.9907 -0.1327
vn -0.9450 -0.0493 0.3234
vn 0.1061 -0.9752 -0.1941
vn -0.4429 -0.1043 0.8905
vn 0.1106 -0.9526 -0.2833
vn 0.3108 -0.1013 0.9451
vn 0.8655 0.4879 0.1130
vn -0.4179 0.2432 0.8753
vn -0.4253 0.6686 -0.6100
vn 0.4268 0.6668 -0.6109
vn 0.4331 0.3066 0.8476
vn -0.8715 0.4765 0.1161
vn 0.3287 -0.7815 -0.5303
vn -0.5520 -0.7987 -0.2396
vn -0.3081 -0.9242 0.2256
vn -0.3041 -0.6049 -0.7359
vn 0.0097 -0.9466 -0.3221
vn -0.9996 -0.0134 0.0254
vn 0.0637 0.9488 0.3095
vn 0.0705 0.9497 0.3050
vn -0.0801 -0.9472 -0.3104
vn -0.6510 -0.1275 0.7483
vn 0.0901 0.9613 0.2605
vn 0.0940 0.9661 0.2403
vn -0.1049 -0.9657 -0.2374
vn 0.0750 -0.1633 0.9837
vn 0.0700 0.9813 0.1791
vn -0.0932 -0.9763 -0.1952
vn 0.7280 -0.1291 0.6733
vn -0.0209 -0.9895 -0.1433
vn -0.9978 0.0103 -0.0660
vn 0.0666 -0.9834 -0.1687
vn -0.0788 0.9783 0.1918
vn -0.0959 0.9562 0.2766
vn 0.1023 -0.9551 -0.2780
vn 0.0782 -0.9467 -0.3126
vn 0.6439 -0.0776 0.7611
vt 0.228974 0.112555
vt 0.229072 0.077260
vt 0.228904 0.112477
vt 0.228930 0.077379
vt 0.228761 0.112483
vt 0.228860 0.077412
vt 0.228343 0.037164
vt 0.228116 0.037143
vt 0.215715 0.374033
vt 0.218845 0.387620
vt 0.219434 0.389488
vt 0.215955 0.374724
vt 0.215721 0.373650
vt 0.215701 0.374085
vt 0.219240 0.388824
vt 0.219077 0.388419
vt 0.215710 0.373612
vt 0.215955 0.374709
vt 0.215065 0.371317
vt 0.217078 0.382371
vt 0.215653 0.373586
vt 0.214400 0.369377
vt 0.213705 0.372218
vt 0.212708 0.369304
vt 0.214408 0.368909
vt 0.214990 0.371153
vt 0.214111 0.368264
vt 0.211017 0.364137
vt 0.210425 0.362449
vt 0.214121 0.367776
vt 0.214354 0.368841
vt 0.214115 0.368130
vt 0.210622 0.362932
vt 0.210780 0.363516
vt 0.214365 0.368912
vt 0.214122 0.367780
vt 0.214415 0.369288
vt 0.212751 0.369311
vt 0.213566 0.371876
vt 0.215006 0.371223
vt 0.214419 0.368953
vt 0.215078 0.371729
vt 0.216157 0.379537
vt 0.217150 0.382635
vt 0.215665 0.373636
vt 0.215081 0.371375
vt 0.705881 0.436809
vt 0.704382 0.439766
vt 0.704320 0.431830
vt 0.704320 0.431818
vt 0.703804 0.438265
vt 0.706618 0.439094
vt 0.705537 0.442769
vt 0.706115 0.444270
vt 0.703564 0.428593
vt 0.705880 0.436800
vt 0.705649 0.427318
vt 0.704986 0.424161
vt 0.215866 0.376220
vt 0.219374 0.389353
vt 0.219613 0.390148
vt 0.215864 0.376329
vt 0.215873 0.375881
vt 0.215392 0.374209
vt 0.218518 0.387847
vt 0.215840 0.375991
vt 0.214687 0.371667
vt 0.215327 0.378257
vt 0.215322 0.374080
vt 0.214164 0.370209
vt 0.212155 0.368706
vt 0.211290 0.366188
vt 0.214172 0.369738
vt 0.214618 0.371511
vt 0.214138 0.369906
vt 0.210460 0.363602
vt 0.210217 0.362966
vt 0.214140 0.369834
vt 0.214146 0.369530
vt 0.214167 0.370002
vt 0.211370 0.366316
vt 0.211888 0.367992
vt 0.214604 0.372098
vt 0.214399 0.370461
vt 0.215009 0.372707
vt 0.214481 0.375737
vt 0.214675 0.372586
vt 0.215461 0.378637
vt 0.215317 0.373998
vt 0.215387 0.374580
vt 0.217657 0.385191
vt 0.218518 0.387881
vt 0.215839 0.375998
vt 0.228260 0.037142
vt 0.215058 0.371782
vt 0.216082 0.379313
vt 0.215384 0.374672
vt 0.217657 0.385193
vt 0.214680 0.372127
vt 0.214351 0.375260
s 0
usemtl Texture_Map
f 1/1/1 4/2/1 3/3/1
f 5/4/2 1/1/2 2/5/2
f 3/3/3 6/6/3 2/5/3
f 5/4/4 7/7/4 4/2/4
f 6/6/5 9/8/5 5/4/5
f 7/7/6 6/6/6 4/2/6
f 47/9/7 10/10/7 11/11/7
f 47/9/8 11/11/8 48/12/8
f 11/11/9 49/13/9 48/12/9
f 12/14/10 13/15/10 14/16/10
f 15/17/11 13/15/11 16/18/11
f 19/19/12 18/20/12 20/21/12
f 22/22/13 23/23/13 24/24/13
f 25/25/14 23/23/14 26/26/14
f 27/27/15 28/28/15 29/29/15
f 30/30/16 28/28/16 31/31/16
f 33/32/17 32/33/17 34/34/17
f 33/32/18 34/34/18 35/35/18
f 34/34/19 36/36/19 35/35/19
f 38/37/20 37/38/20 39/39/20
f 38/37/21 39/39/21 40/40/21
f 39/39/22 41/41/22 40/40/22
f 43/42/23 42/43/23 44/44/23
f 43/42/24 44/44/24 45/45/24
f 44/44/25 46/46/25 45/45/25
f 61/47/26 54/48/26 56/49/26
f 57/50/27 53/51/27 52/48/27
f 58/52/28 51/53/28 50/54/28
f 58/52/29 55/53/29 61/47/29
f 56/49/30 53/51/30 60/55/30
f 59/56/31 52/48/31 51/53/31
f 54/48/32 55/53/32 50/54/32
f 61/47/33 62/57/33 58/52/33
f 60/55/34 63/58/34 56/49/34
f 57/50/35 62/57/35 63/58/35
f 56/49/36 63/58/36 61/47/36
f 103/59/37 65/60/37 66/61/37
f 103/59/38 66/61/38 64/62/38
f 102/63/39 65/60/39 103/59/39
f 69/64/40 68/65/40 70/66/40
f 74/67/41 73/68/41 75/69/41
f 77/70/42 78/71/42 79/72/42
f 80/73/43 78/71/43 81/74/43
f 83/75/44 82/76/44 84/77/44
f 83/75/45 84/77/45 85/78/45
f 84/77/46 86/79/46 85/78/46
f 88/80/47 87/81/47 89/82/47
f 88/80/48 89/82/48 90/83/48
f 91/84/49 87/81/49 88/80/49
f 89/82/50 91/84/50 90/83/50
f 96/85/51 92/86/51 94/87/51
f 95/88/52 96/85/52 93/89/52
f 98/90/53 97/91/53 99/92/53
f 98/90/54 99/92/54 100/93/54
f 99/92/55 101/64/55 100/93/55
f 5/4/56 4/2/56 1/1/56
f 6/6/57 5/4/57 2/5/57
f 3/3/58 4/2/58 6/6/58
f 5/4/59 8/94/59 7/7/59
f 5/4/60 9/8/60 8/94/60
f 7/7/61 9/8/61 6/6/61
f 49/13/62 11/11/62 10/10/62
f 47/9/63 49/13/63 10/10/63
f 12/14/64 16/18/64 13/15/64
f 15/17/65 14/16/65 13/15/65
f 14/16/66 15/17/66 12/14/66
f 17/95/67 20/21/67 18/20/67
f 17/95/68 18/20/68 21/96/68
f 21/96/69 18/20/69 19/19/69
f 21/96/70 19/19/70 17/95/70
f 22/22/71 26/26/71 23/23/71
f 25/25/72 24/24/72 23/23/72
f 24/24/73 25/25/73 22/22/73
f 27/27/74 31/31/74 28/28/74
f 30/30/75 29/29/75 28/28/75
f 29/29/76 30/30/76 27/27/76
f 36/36/77 34/34/77 32/33/77
f 33/32/78 36/36/78 32/33/78
f 41/41/79 39/39/79 37/38/79
f 38/37/80 41/41/80 37/38/80
f 46/46/81 44/44/81 42/43/81
f 43/42/82 46/46/82 42/43/82
f 61/47/83 55/53/83 54/48/83
f 57/50/84 60/55/84 53/51/84
f 58/52/85 59/56/85 51/53/85
f 58/52/86 50/54/86 55/53/86
f 56/49/87 54/48/87 53/51/87
f 59/56/88 57/50/88 52/48/88
f 50/54/32 51/53/32 52/48/32
f 52/48/32 53/51/32 50/54/32
f 53/51/32 54/48/32 50/54/32
f 61/47/89 63/58/89 62/57/89
f 57/50/90 59/56/90 62/57/90
f 60/55/91 57/50/91 63/58/91
f 59/56/92 58/52/92 62/57/92
f 102/63/93 66/61/93 65/60/93
f 66/61/94 102/63/94 64/62/94
f 67/97/95 70/66/95 68/65/95
f 67/97/96 68/65/96 71/98/96
f 71/98/97 68/65/97 69/64/97
f 71/98/98 69/64/98 67/97/98
f 72/99/99 75/69/99 73/68/99
f 72/99/100 73/68/100 76/100/100
f 76/100/101 73/68/101 74/67/101
f 76/100/102 74/67/102 72/99/102
f 77/70/103 81/74/103 78/71/103
f 80/73/104 79/72/104 78/71/104
f 79/72/105 80/73/105 77/70/105
f 86/79/106 84/77/106 82/76/106
f 83/75/107 86/79/107 82/76/107
f 91/84/108 89/82/108 87/81/108
f 93/89/109 94/87/109 92/86/109
f 93/89/110 92/86/110 95/88/110
f 95/88/111 92/86/111 96/85/111
f 101/64/112 99/92/112 97/91/112
f 98/90/113 101/64/113 97/91/113
