# Blender 4.4.0
# www.blender.org
mtllib Env_Rock_02.mtl
o Env_Rock_02
v -0.469978 0.000000 -1.185831
v -0.383852 0.000000 -0.420402
v -0.180677 0.328889 -1.111621
v -0.494279 0.358593 -0.471369
v -0.346268 0.551953 -0.935986
v -0.468980 0.551635 -0.763065
v -0.210894 0.548468 -0.623286
v -0.134740 0.548620 -0.729925
v 0.447545 0.205458 -0.375618
v 0.416851 0.284086 -0.396520
v 0.026120 0.000000 -0.945769
v 0.138898 0.118843 -0.916905
v 0.271050 0.220585 -0.745036
v 0.411070 0.253832 -0.538947
v 0.366527 0.000000 -0.458808
v 0.129023 0.000000 -0.782310
v 0.075348 0.275679 -0.154434
v 0.251917 0.275513 -0.152757
v 0.270846 0.377260 -0.282750
v -0.627866 0.000000 -0.779442
v -0.666179 0.112319 -0.696982
v 0.044139 0.000000 -0.319771
v 0.311573 0.000000 -0.319883
v 0.397967 0.000000 -0.355878
v 0.441294 0.085388 -0.285797
v 0.348669 0.135452 -0.191702
v -0.593982 0.254626 -1.087613
v 0.373217 0.354316 -0.478221
v 0.108204 0.375958 -0.796158
v 0.139478 0.469830 -0.623336
v 0.326541 0.407662 -0.506162
v -0.549819 0.433868 -0.866944
v -0.392234 0.442185 -1.004649
v 0.052235 0.000000 0.592205
v -0.447620 0.000000 -0.298458
v -0.212342 0.558677 0.768359
v -0.184460 0.965125 0.390803
v -0.188024 0.987181 0.056755
v -0.465734 0.941196 0.120553
v -0.463904 0.935581 0.327005
v 0.207946 0.290909 0.086895
v 0.162858 0.671075 0.127893
v -1.112523 0.349007 0.421539
v -0.904620 0.641134 0.627577
v -0.930303 0.701857 0.534975
v -1.035177 0.640408 0.416826
v -0.465369 0.000000 0.751158
v -0.568472 0.201876 0.819910
v -0.767488 0.374702 0.725329
v -0.991942 0.431178 0.594682
v -1.003076 0.000000 0.451387
v -0.637122 0.000000 0.639916
v -0.951517 0.468289 -0.206851
v -1.088288 0.468007 -0.044000
v 0.037236 0.000000 0.279124
v -0.056527 0.000000 -0.070923
v -0.073768 0.191168 -0.211342
v -0.833849 0.000000 -0.026239
v -1.039503 0.000000 0.223779
v -1.085569 0.000000 0.350170
v -1.158597 0.145046 0.301738
v -1.140651 0.230089 0.095811
v -0.074767 0.858856 0.399130
v 0.122933 0.859141 0.155879
v -0.061951 0.992417 0.163459
v -0.666147 0.828230 0.126977
v -1.056328 0.561509 0.054791
v 0.861776 -0.000000 0.001777
v 0.266791 -0.000000 0.088397
v 0.902711 0.328889 0.184363
v 0.269658 0.358593 0.017720
v 0.701123 0.551953 0.089321
v 0.516802 0.551635 0.020746
v 0.493223 0.548468 0.186824
v 0.607059 0.548620 0.229411
v 0.635447 0.449571 -0.143009
v 0.646296 0.554305 -0.042129
v 0.522053 0.205458 0.605803
v 0.679174 0.377431 0.535060
v 0.622864 0.413179 0.529621
v 0.535794 0.377004 0.562305
v 0.839832 -0.000000 0.319775
v 0.855843 0.118843 0.390950
v 0.761846 0.220585 0.480344
v 0.642659 0.253832 0.576100
v 0.561564 -0.000000 0.551962
v 0.742436 -0.000000 0.390670
v 0.210734 0.275679 0.384643
v 0.271345 0.275513 0.494187
v 0.384170 0.377260 0.500282
v 0.686563 -0.000000 -0.056087
v 0.474406 -0.000000 -0.078474
v 0.393602 0.112319 -0.098649
v 0.334830 -0.000000 0.358117
v 0.428797 -0.000000 0.523920
v 0.488525 -0.000000 0.575922
v 0.446490 0.085388 0.605826
v 0.337118 0.135452 0.552483
v -0.376087 0.383302 -0.322665
v -0.433655 0.586979 -0.315939
v -0.274057 0.764506 -0.175605
v -0.227983 0.622906 -0.237925
v -0.188819 0.376415 -0.266926
vn -0.7192 -0.1243 0.6836
vn 0.7096 0.4366 0.5531
vn 0.2055 0.9616 0.1821
vn 0.9261 -0.2513 -0.2813
vn -0.2690 0.8137 0.5152
vn 0.0083 0.9999 0.0077
vn 0.6410 0.5592 -0.5257
vn -0.8818 0.4248 0.2047
vn 0.4796 0.7343 -0.4804
vn 0.7435 -0.3865 -0.5458
vn 0.4207 -0.1835 -0.8884
vn -0.0825 0.8387 0.5383
vn -0.4890 -0.0267 0.8719
vn -0.9597 -0.1555 -0.2340
vn 0.2878 -0.6987 0.6550
vn -0.0094 -0.2739 0.9617
vn -0.1143 0.5608 -0.8200
vn -0.6792 -0.5706 0.4616
vn -0.9486 0.3104 -0.0623
vn 0.5981 0.3981 -0.6955
vn 0.6887 0.5776 -0.4383
vn 0.6552 0.7094 0.2599
vn -0.5457 0.5966 -0.5884
vn -0.1106 0.3103 -0.9442
vn 0.4513 0.5549 -0.6989
vn -0.4545 0.8906 -0.0184
vn -0.8566 0.2893 0.4273
vn -0.7626 -0.1862 0.6195
vn -0.2970 0.7307 -0.6148
vn 0.5025 0.5697 0.6504
vn -0.2318 0.6705 0.7047
vn 0.2797 -0.1124 -0.9535
vn -0.1570 0.9872 0.0282
vn -0.8464 0.2324 0.4792
vn -0.2665 0.2081 0.9411
vn 0.6583 0.1903 -0.7283
vn -0.4306 -0.3404 0.8359
vn 0.3018 -0.1656 0.9389
vn -0.9693 0.2459 -0.0061
vn 0.6463 0.2448 -0.7228
vn 0.7358 -0.3566 -0.5758
vn 0.8498 -0.5256 -0.0407
vn -0.8103 -0.5134 -0.2826
vn -0.5516 -0.3290 -0.7665
vn 0.6173 0.6696 0.4130
vn 0.8502 0.1037 0.5162
vn 0.9399 0.0755 0.3331
vn 0.8229 0.2252 0.5216
vn -0.5391 0.8290 -0.1492
vn -0.4443 0.7727 -0.4533
vn 0.7151 0.3877 0.5816
vn -0.7898 -0.1125 -0.6030
vn -0.3579 0.2631 0.8959
vn 0.1794 0.2619 0.9483
vn 0.3047 -0.1862 0.9341
vn 0.7938 0.2166 -0.5682
vn -0.3348 0.6715 -0.6611
vn 0.5837 0.7016 0.4086
vn -0.6134 0.7865 -0.0721
vn 0.7673 0.5614 -0.3100
vn -0.1849 0.8921 0.4122
vn -0.0080 0.9998 0.0179
vn 0.7829 0.2081 0.5863
vn 0.6403 -0.2728 0.7180
vn 0.9847 -0.1656 0.0550
vn -0.5963 0.7734 0.2150
vn -0.9862 -0.0244 -0.1639
vn -0.4350 0.1963 -0.8788
vn -0.5545 -0.5134 0.6550
vn -0.8565 -0.2051 0.4736
vn 0.0730 -0.1813 -0.9807
vn 0.1044 -0.1026 -0.9892
vn 0.2448 0.4562 -0.8555
vn -0.2007 -0.0244 -0.9793
vn 0.2870 0.1568 -0.9450
vn -0.5447 -0.3255 -0.7729
vn -0.6276 -0.5720 -0.5281
vn 0.5211 -0.3604 0.7737
vn 0.6165 0.5835 -0.5286
vn 0.5375 0.0289 -0.8428
vn 0.9355 0.3361 -0.1094
vn 0.7899 0.4218 0.4452
vn 0.7530 0.3686 0.5451
vn 0.7189 0.4265 0.5489
vn 0.2163 0.9638 0.1559
vn 0.2155 0.9602 0.1778
vn 0.9298 -0.2503 -0.2699
vn 0.9259 -0.2506 -0.2828
vn -0.2113 0.7832 0.5847
vn 0.0083 0.9999 0.0074
vn 0.4115 0.7676 -0.4914
vn 0.7019 -0.5587 -0.4418
vn 0.8133 -0.4645 -0.3504
vn 0.8107 -0.3008 -0.5023
vn 0.4287 -0.1772 -0.8859
vn -0.0051 0.7878 0.6159
vn -0.8892 -0.2998 -0.3455
vn 0.0003 -0.6874 0.7263
vn 0.2784 -0.6898 0.6683
vn -0.1999 -0.4872 0.8501
vn -0.1386 -0.4978 0.8562
vn -0.8807 0.4270 0.2049
vn 0.6514 0.3849 -0.6539
vn -0.4725 0.7280 -0.4968
vn -0.5575 0.7305 -0.3943
vn -0.1431 0.5250 -0.8390
vn 0.4614 0.6729 -0.5782
vn 0.4921 0.4798 -0.7264
vn -0.4902 0.8712 0.0280
vn -0.4752 0.8791 -0.0354
vn -0.4892 0.0672 0.8696
vn -0.7663 -0.1878 0.6144
vn -0.7630 -0.1765 0.6218
vn -0.2643 0.7433 -0.6145
vn -0.2758 0.7364 -0.6178
vn -0.1499 0.8072 0.5709
vn -0.0461 0.7465 0.6638
vn -0.1199 0.9905 0.0667
vn -0.0976 0.9930 0.0666
vn -0.7855 0.2985 0.5421
vn -0.1569 0.2929 0.9432
vn 0.6759 0.1578 -0.7199
vn 0.6756 0.2073 -0.7075
vn -0.4736 -0.4909 0.7312
vn -0.6434 -0.3759 0.6669
vn -0.5335 -0.2543 0.8067
vn 0.2898 -0.1603 0.9436
vn -0.9645 0.2542 0.0714
vn -0.9760 0.2176 0.0048
vn -0.9665 0.2566 0.0006
vn 0.7773 -0.5937 -0.2082
vn 0.4332 -0.5079 -0.7446
vn -0.6348 -0.5695 -0.5222
vn -0.8101 -0.5065 -0.2953
vn 0.5375 0.7208 0.4377
vn -0.4498 0.7724 -0.4484
vn -0.5584 0.6851 -0.4678
vn -0.2793 0.2542 0.9259
vn -0.3456 0.2176 0.9128
vn -0.3656 0.2562 0.8948
vn 0.1437 0.2324 0.9619
vn 0.6362 0.0672 0.7686
vn 0.1696 0.4040 0.8989
vn 0.2987 -0.1878 0.9357
vn 0.3068 -0.1765 0.9353
vn 0.7781 0.3921 -0.4907
vn -0.4443 0.5796 -0.6831
vn 0.4805 0.8086 0.3395
vn 0.5999 0.7500 0.2785
vn -0.6718 0.7384 0.0590
vn -0.1617 0.8887 0.4291
vn -0.1872 0.8673 0.4612
vn -0.0085 0.9998 0.0181
vn -0.0099 0.9997 0.0220
vn 0.8241 0.2929 0.4848
vn 0.9847 -0.1603 0.0680
vn -0.6369 0.6851 0.3535
vn -0.7151 -0.5695 0.4053
vn -0.5662 -0.5065 0.6503
vn -0.8809 -0.4179 0.2222
vn -0.8589 -0.4154 0.2996
vn 0.3102 -0.1463 -0.9393
vn -0.5394 -0.5086 -0.6711
vn 0.3327 0.1249 -0.9347
vn 0.5127 -0.4909 0.7044
vn 0.3918 -0.3759 0.8398
vn 0.9013 0.4149 -0.1247
vt 0.448037 0.634888
vt 0.449480 0.622731
vt 0.449214 0.661543
vt 0.449604 0.653479
vt 0.450198 0.663564
vt 0.450673 0.637392
vt 0.449032 0.666854
vt 0.448421 0.673583
vt 0.449279 0.622731
vt 0.448861 0.650205
vt 0.449713 0.644969
vt 0.448421 0.682094
vt 0.447692 0.682437
vt 0.447865 0.682111
vt 0.446790 0.682472
vt 0.447786 0.646606
vt 0.449178 0.661080
vt 0.447150 0.669691
vt 0.445874 0.658328
vt 0.447592 0.622731
vt 0.446739 0.622731
vt 0.446890 0.635594
vt 0.450867 0.652569
vt 0.445999 0.650290
vt 0.447607 0.622731
vt 0.450004 0.622731
vt 0.450182 0.631973
vt 0.450876 0.652551
vt 0.446432 0.670591
vt 0.447519 0.663423
vt 0.445487 0.622731
vt 0.453701 0.750328
vt 0.451456 0.737035
vt 0.453029 0.768314
vt 0.453505 0.745986
vt 0.456267 0.728234
vt 0.454859 0.761066
vt 0.456671 0.690211
vt 0.456894 0.719704
vt 0.455701 0.629643
vt 0.455499 0.678669
vt 0.450506 0.712097
vt 0.451245 0.695424
vt 0.453461 0.761855
vt 0.457847 0.708121
vt 0.455347 0.750288
vt 0.455291 0.765216
vt 0.451214 0.656497
vt 0.450461 0.683486
vt 0.450838 0.682519
vt 0.455467 0.719602
vt 0.458196 0.658001
vt 0.457556 0.682278
vt 0.451034 0.717144
vt 0.453511 0.723910
vt 0.456978 0.629643
vt 0.457731 0.629643
vt 0.453016 0.708519
vt 0.453294 0.661964
vt 0.452165 0.629643
vt 0.453233 0.670507
vt 0.456655 0.629643
vt 0.454535 0.629643
vt 0.454160 0.629643
vt 0.454688 0.650018
vt 0.452468 0.629643
vt 0.452347 0.695385
vt 0.453752 0.769050
vt 0.466945 0.616851
vt 0.467610 0.608561
vt 0.467358 0.635028
vt 0.469451 0.623725
vt 0.469075 0.636406
vt 0.469261 0.618558
vt 0.469345 0.627296
vt 0.469199 0.636419
vt 0.469296 0.636387
vt 0.469259 0.608561
vt 0.466787 0.641743
vt 0.467951 0.632836
vt 0.467302 0.608561
vt 0.467369 0.649277
vt 0.467146 0.649474
vt 0.467613 0.649300
vt 0.468112 0.649054
vt 0.467960 0.649043
vt 0.469180 0.639057
vt 0.468686 0.617332
vt 0.469004 0.624842
vt 0.468685 0.608561
vt 0.468433 0.608561
vt 0.468664 0.628908
vt 0.469159 0.608561
vt 0.469451 0.614863
vt 0.469054 0.628896
vt 0.467096 0.608561
vt 0.467016 0.608561
vt 0.450624 0.629643
vt 0.449816 0.622731
vt 0.450005 0.622731
vt 0.455016 0.629643
vt 0.469344 0.608561
vt 0.468569 0.608561
s 0
usemtl Texture_Map
f 21/1/1 2/2/1 4/3/1
f 10/4/2 19/5/2 26/6/2
f 19/5/3 31/7/3 30/8/3
f 15/9/4 14/10/4 9/11/4
f 4/3/5 7/12/5 6/13/5
f 6/13/6 8/14/6 5/15/6
f 14/10/7 13/16/7 28/17/7
f 6/13/8 32/18/8 4/3/8
f 3/19/9 5/15/9 8/14/9
f 16/20/10 13/16/10 15/9/10
f 11/21/11 3/19/11 12/22/11
f 17/23/12 19/5/12 7/12/12
f 2/2/13 17/23/13 4/3/13
f 27/24/14 20/25/14 21/1/14
f 23/26/15 25/27/15 26/6/15
f 26/6/16 18/28/16 17/23/16
f 3/19/17 33/29/17 5/15/17
f 20/25/18 2/2/18 21/1/18
f 21/1/19 32/18/19 27/24/19
f 12/22/20 29/30/20 13/16/20
f 13/16/21 29/30/21 30/8/21
f 10/4/22 31/7/22 19/5/22
f 32/18/23 5/15/23 33/29/23
f 27/24/24 3/19/24 1/31/24
f 64/32/25 101/33/25 38/34/25
f 66/35/26 45/36/26 40/37/26
f 50/38/27 44/39/27 45/36/27
f 51/40/28 50/38/28 43/41/28
f 100/42/29 53/43/29 39/44/29
f 36/45/30 63/46/30 37/47/30
f 36/45/31 37/47/31 40/37/31
f 57/48/32 99/49/32 103/50/32
f 38/34/33 39/44/33 40/37/33
f 50/38/34 46/51/34 43/41/34
f 48/52/35 44/39/35 49/53/35
f 103/50/36 102/54/36 42/55/36
f 52/56/37 49/53/37 51/40/37
f 47/57/38 36/45/38 48/52/38
f 43/41/39 67/58/39 62/59/39
f 64/32/40 42/55/40 102/54/40
f 56/60/41 57/48/41 41/61/41
f 34/62/42 55/63/42 41/61/42
f 59/64/43 61/65/43 62/59/43
f 58/66/44 62/59/44 54/67/44
f 63/46/45 65/68/45 37/47/45
f 36/45/46 42/55/46 64/32/46
f 34/62/47 41/61/47 42/55/47
f 36/45/48 34/62/48 42/55/48
f 66/35/49 67/58/49 46/51/49
f 66/35/50 53/43/50 67/58/50
f 63/46/51 36/45/51 64/32/51
f 93/69/52 69/70/52 71/71/52
f 78/72/53 90/73/53 98/74/53
f 85/75/54 79/76/54 81/77/54
f 86/78/55 85/75/55 78/72/55
f 76/79/56 70/80/56 68/81/56
f 76/79/57 73/82/57 77/83/57
f 70/80/58 72/84/58 75/85/58
f 71/71/59 74/86/59 73/82/59
f 70/80/60 77/83/60 72/84/60
f 90/73/61 80/87/61 75/85/61
f 73/82/62 74/86/62 75/85/62
f 83/88/63 79/76/63 84/89/63
f 87/90/64 85/75/64 86/78/64
f 82/91/65 70/80/65 83/88/65
f 88/92/66 90/73/66 74/86/66
f 69/70/67 88/92/67 71/71/67
f 76/79/68 93/69/68 71/71/68
f 95/93/69 97/94/69 98/74/69
f 98/74/70 89/95/70 88/92/70
f 76/79/71 91/96/71 93/69/71
f 92/97/72 93/69/72 91/96/72
f 100/42/73 101/33/73 102/54/73
f 35/98/74 100/42/74 99/49/74
f 99/49/75 102/54/75 103/50/75
f 35/98/76 58/66/76 54/67/76
f 53/43/77 35/98/77 54/67/77
f 84/89/78 85/75/78 87/90/78
f 28/17/79 13/16/79 30/8/79
f 31/7/80 28/17/80 30/8/80
f 14/10/81 10/4/81 9/11/81
f 18/28/82 26/6/82 19/5/82
f 26/6/83 25/27/83 9/11/83
f 10/4/84 26/6/84 9/11/84
f 8/14/85 7/12/85 30/8/85
f 7/12/86 19/5/86 30/8/86
f 9/11/87 25/27/87 24/99/87
f 24/99/88 15/9/88 9/11/88
f 4/3/89 17/23/89 7/12/89
f 6/13/90 7/12/90 8/14/90
f 8/14/91 30/8/91 29/30/91
f 29/30/91 3/19/91 8/14/91
f 16/20/92 11/21/92 12/22/92
f 12/22/93 13/16/93 16/20/93
f 13/16/94 14/10/94 15/9/94
f 11/21/95 1/31/95 3/19/95
f 17/23/96 18/28/96 19/5/96
f 27/24/97 1/31/97 20/25/97
f 26/6/98 22/100/98 23/26/98
f 23/26/99 24/99/99 25/27/99
f 17/23/100 2/2/100 22/100/100
f 22/100/101 26/6/101 17/23/101
f 21/1/102 4/3/102 32/18/102
f 12/22/103 3/19/103 29/30/103
f 10/4/22 28/17/22 31/7/22
f 33/29/104 27/24/104 32/18/104
f 32/18/105 6/13/105 5/15/105
f 27/24/106 33/29/106 3/19/106
f 38/34/107 65/68/107 64/32/107
f 64/32/108 102/54/108 101/33/108
f 40/37/109 39/44/109 66/35/109
f 66/35/110 46/51/110 45/36/110
f 50/38/111 49/53/111 44/39/111
f 43/41/112 61/65/112 51/40/112
f 61/65/113 60/101/113 51/40/113
f 38/34/114 101/33/114 39/44/114
f 101/33/115 100/42/115 39/44/115
f 40/37/116 45/36/116 44/39/116
f 44/39/117 36/45/117 40/37/117
f 57/48/32 35/98/32 99/49/32
f 40/37/118 37/47/118 38/34/118
f 37/47/119 65/68/119 38/34/119
f 50/38/120 45/36/120 46/51/120
f 48/52/121 36/45/121 44/39/121
f 42/55/122 41/61/122 103/50/122
f 41/61/123 57/48/123 103/50/123
f 52/56/124 47/57/124 48/52/124
f 48/52/125 49/53/125 52/56/125
f 49/53/126 50/38/126 51/40/126
f 47/57/127 34/62/127 36/45/127
f 54/67/128 62/59/128 67/58/128
f 62/59/129 61/65/129 43/41/129
f 43/41/130 46/51/130 67/58/130
f 41/61/131 55/63/131 56/60/131
f 56/60/132 35/98/132 57/48/132
f 62/59/133 58/66/133 59/64/133
f 59/64/134 60/101/134 61/65/134
f 63/46/135 64/32/135 65/68/135
f 39/44/136 53/43/136 66/35/136
f 53/43/137 54/67/137 67/58/137
f 89/95/138 98/74/138 90/73/138
f 98/74/139 97/94/139 78/72/139
f 78/72/140 81/77/140 90/73/140
f 81/77/141 78/72/141 85/75/141
f 85/75/142 84/89/142 79/76/142
f 79/76/143 80/87/143 81/77/143
f 78/72/144 97/94/144 86/78/144
f 97/94/145 96/102/145 86/78/145
f 76/79/146 77/83/146 70/80/146
f 76/79/147 71/71/147 73/82/147
f 75/85/148 80/87/148 79/76/148
f 79/76/149 70/80/149 75/85/149
f 71/71/150 88/92/150 74/86/150
f 75/85/151 74/86/151 90/73/151
f 90/73/152 81/77/152 80/87/152
f 75/85/153 72/84/153 73/82/153
f 72/84/154 77/83/154 73/82/154
f 83/88/155 70/80/155 79/76/155
f 82/91/156 68/81/156 70/80/156
f 88/92/157 89/95/157 90/73/157
f 98/74/158 94/103/158 95/93/158
f 95/93/159 96/102/159 97/94/159
f 88/92/160 69/70/160 94/103/160
f 94/103/161 98/74/161 88/92/161
f 76/79/162 68/81/162 91/96/162
f 92/97/163 69/70/163 93/69/163
f 35/98/74 53/43/74 100/42/74
f 99/49/164 100/42/164 102/54/164
f 87/90/165 82/91/165 83/88/165
f 83/88/166 84/89/166 87/90/166
f 14/10/167 28/17/167 10/4/167
