# Blender 4.4.0
# www.blender.org
mtllib Env_Flowers_06.mtl
o Env_Flowers_06
v -0.000000 0.574526 -0.014887
v 0.005000 0.573529 -0.009987
v -0.000000 0.572532 -0.005087
v -0.005000 0.573529 -0.009987
v -0.000000 0.531914 -0.023552
v 0.005000 0.531149 -0.018611
v -0.000000 0.530383 -0.013670
v -0.005000 0.531149 -0.018611
v -0.000000 0.431815 -0.034268
v 0.005000 0.431591 -0.029273
v -0.000000 0.431367 -0.024278
v -0.005000 0.431591 -0.029273
v -0.000000 0.254235 -0.031266
v 0.005000 0.254451 -0.026271
v -0.000000 0.254667 -0.021275
v -0.005000 0.254451 -0.026271
v -0.000000 0.091748 -0.019979
v 0.005000 0.092323 -0.015012
v -0.000000 0.092898 -0.010045
v -0.005000 0.092323 -0.015012
v -0.000000 0.000000 -0.004935
v 0.005000 0.000000 0.000000
v -0.000000 0.000000 0.004935
v -0.005000 0.000000 -0.000000
v -0.003999 0.578104 -0.019122
v 0.003999 0.578104 -0.019122
v -0.003999 0.577210 -0.019122
v 0.003999 0.577210 -0.019122
v -0.000000 0.577210 -0.019122
v -0.000000 0.585613 -0.096100
v -0.007584 0.578104 -0.015363
v -0.003125 0.578104 -0.019104
v -0.060292 0.585613 -0.065594
v -0.005354 0.578104 -0.017234
v -0.007584 0.577210 -0.015363
v -0.003125 0.577210 -0.019104
v -0.043441 0.585613 -0.079734
v -0.005354 0.577210 -0.017234
v -0.054835 0.585613 -0.076202
v -0.008747 0.578104 -0.009479
v -0.007737 0.578104 -0.015211
v -0.081413 0.585613 -0.014078
v -0.008242 0.578104 -0.012345
v -0.008747 0.577210 -0.009479
v -0.007737 0.577210 -0.015211
v -0.077593 0.585613 -0.035742
v -0.008242 0.577210 -0.012345
v -0.084050 0.585613 -0.025712
v -0.005857 0.578104 -0.004224
v -0.008767 0.578104 -0.009264
v -0.064478 0.585613 0.038961
v -0.007312 0.578104 -0.006744
v -0.005857 0.577210 -0.004224
v -0.008767 0.577210 -0.009264
v -0.075477 0.585613 0.019911
v -0.007312 0.577210 -0.006744
v -0.073976 0.585613 0.031745
v -0.000264 0.578104 -0.002056
v -0.005733 0.578104 -0.004047
v -0.017412 0.585613 0.068707
v -0.002999 0.578104 -0.003051
v -0.000264 0.577210 -0.002056
v -0.005733 0.577210 -0.004047
v -0.038083 0.585613 0.061183
v -0.002999 0.577210 -0.003051
v -0.029327 0.585613 0.069284
v 0.005413 0.578104 -0.003990
v -0.000056 0.578104 -0.002000
v 0.037763 0.585613 0.061239
v 0.002679 0.578104 -0.002995
v 0.005413 0.577210 -0.003990
v -0.000056 0.577210 -0.002000
v 0.017092 0.585613 0.068763
v 0.002679 0.577210 -0.002995
v 0.029007 0.585613 0.069341
v 0.008519 0.578104 -0.009121
v 0.005609 0.578104 -0.004081
v 0.075229 0.585613 0.020054
v 0.007064 0.578104 -0.006601
v 0.008519 0.577210 -0.009121
v 0.005609 0.577210 -0.004081
v 0.064230 0.585613 0.039104
v 0.007064 0.577210 -0.006601
v 0.073729 0.585613 0.031888
v 0.007600 0.578104 -0.015048
v 0.008611 0.578104 -0.009317
v 0.077456 0.585613 -0.035580
v 0.008106 0.578104 -0.012182
v 0.007600 0.577210 -0.015048
v 0.008611 0.577210 -0.009317
v 0.081276 0.585613 -0.013916
v 0.008106 0.577210 -0.012182
v 0.083914 0.585613 -0.025550
v 0.003086 0.578104 -0.018998
v 0.007545 0.578104 -0.015257
v 0.043402 0.585613 -0.079628
v 0.005316 0.578104 -0.017128
v 0.003086 0.577210 -0.018998
v 0.007545 0.577210 -0.015257
v 0.060253 0.585613 -0.065489
v 0.005316 0.577210 -0.017128
v 0.054796 0.585613 -0.076096
v -0.002910 0.578104 -0.019122
v 0.002910 0.578104 -0.019122
v -0.010999 0.585613 -0.091482
v -0.000000 0.578104 -0.019122
v -0.002910 0.577210 -0.019122
v 0.002910 0.577210 -0.019122
v 0.010999 0.585613 -0.091482
v -0.008735 0.575263 -0.019723
v -0.000165 0.575263 -0.023273
v -0.012285 0.575263 -0.011153
v -0.008735 0.575263 -0.002583
v -0.000165 0.575263 0.000966
v 0.008405 0.575263 -0.002583
v 0.011955 0.575263 -0.011153
v 0.008405 0.575263 -0.019723
v -0.000000 0.581809 -0.020309
v -0.000000 0.580495 -0.021731
v -0.007947 0.580495 -0.018439
v -0.006942 0.581809 -0.017434
v -0.011239 0.580495 -0.010492
v -0.009818 0.581809 -0.010492
v -0.007947 0.580495 -0.002544
v -0.006942 0.581809 -0.003550
v -0.000000 0.580495 0.000747
v -0.000000 0.581809 -0.000674
v 0.007947 0.580495 -0.002544
v 0.006942 0.581809 -0.003550
v 0.011239 0.580495 -0.010492
v 0.009818 0.581809 -0.010492
v 0.007947 0.580495 -0.018439
v 0.006942 0.581809 -0.017434
v -0.005358 0.570680 -0.016347
v -0.000165 0.570680 -0.018498
v -0.007509 0.570680 -0.011153
v -0.005358 0.570680 -0.005960
v -0.000165 0.570680 -0.003809
v 0.005028 0.570680 -0.005960
v 0.007179 0.570680 -0.011153
v 0.005028 0.570680 -0.016347
vn -0.7071 0.1410 -0.6929
vn 0.7071 0.1410 -0.6929
vn 0.7071 -0.1411 0.6929
vn -0.7071 -0.1411 0.6929
vn -0.7067 0.0753 -0.7035
vn 0.7067 0.0753 -0.7035
vn 0.7067 -0.0754 0.7035
vn -0.7067 -0.0754 0.7035
vn -0.7064 -0.0120 -0.7077
vn 0.7064 -0.0120 -0.7077
vn 0.7064 0.0120 0.7077
vn -0.7064 0.0120 0.7077
vn -0.7070 -0.0490 -0.7055
vn 0.7070 -0.0490 -0.7055
vn 0.7070 0.0490 0.7055
vn -0.7070 0.0490 0.7055
vn -0.7067 -0.1145 -0.6982
vn 0.7067 -0.1145 -0.6982
vn 0.7067 0.1135 0.6983
vn -0.7067 0.1135 0.6983
vn -0.0407 0.9944 0.0970
vn -0.0000 0.9947 0.1032
vn -0.0000 -0.9933 -0.1154
vn 0.9954 -0.0000 0.0963
vn -0.9954 -0.0000 0.0963
vn 0.0312 0.9944 0.1005
vn 0.0664 0.9947 0.0791
vn -0.0742 -0.9933 -0.0884
vn 0.8327 -0.0000 -0.5537
vn -0.6899 -0.0000 0.7239
vn 0.0885 0.9944 0.0570
vn 0.1017 0.9947 0.0179
vn -0.1136 -0.9933 -0.0200
vn 0.2820 -0.0000 -0.9594
vn -0.0632 -0.0000 0.9980
vn 0.1044 0.9944 -0.0132
vn 0.0894 0.9947 -0.0516
vn -0.0999 -0.9933 0.0577
vn -0.4007 -0.0000 -0.9162
vn 0.5932 -0.0000 0.8051
vn 0.0715 0.9944 -0.0772
vn 0.0353 0.9947 -0.0970
vn -0.0395 -0.9933 0.1084
vn -0.8959 -0.0000 -0.4443
vn 0.9719 -0.0000 0.2355
vn 0.0051 0.9944 -0.1051
vn -0.0353 0.9947 -0.0970
vn 0.0395 -0.9933 0.1084
vn -0.9719 -0.0000 0.2355
vn 0.8959 -0.0000 -0.4443
vn -0.0636 0.9944 -0.0838
vn -0.0894 0.9947 -0.0516
vn 0.0999 -0.9933 0.0576
vn -0.5931 -0.0000 0.8051
vn 0.4007 -0.0000 -0.9162
vn -0.1026 0.9944 -0.0233
vn -0.1017 0.9947 0.0179
vn 0.1136 -0.9933 -0.0200
vn 0.0632 -0.0000 0.9980
vn -0.2820 -0.0000 -0.9594
vn -0.0936 0.9944 0.0481
vn -0.0663 0.9947 0.0791
vn 0.0742 -0.9933 -0.0884
vn 0.6899 -0.0000 0.7239
vn -0.8327 -0.0000 -0.5536
vn 0.9938 -0.0000 0.1111
vn -0.9938 -0.0000 0.1111
vn -0.3822 0.0506 0.9227
vn 0.9101 0.1721 -0.3770
vn 0.3826 0.0266 0.9236
vn -0.9154 0.1350 0.3792
vn -0.8998 0.2269 -0.3727
vn 0.3704 0.2519 -0.8941
vn 0.9211 0.0777 0.3815
vn -0.2706 0.7071 -0.6533
vn -0.6533 0.7071 -0.2706
vn -0.6533 0.7071 0.2706
vn -0.2706 0.7071 0.6533
vn 0.2706 0.7071 0.6533
vn 0.6533 0.7071 0.2706
vn 0.6533 0.7071 -0.2706
vn 0.2706 0.7071 -0.6533
vn -0.0000 1.0000 -0.0000
vn -0.2757 -0.6935 -0.6656
vn 0.2757 -0.6935 -0.6656
vn 0.6656 -0.6935 0.2757
vn -0.2757 -0.6935 0.6656
vn -0.6656 -0.6935 -0.2757
vn 0.6656 -0.6935 -0.2757
vn 0.2757 -0.6935 0.6656
vn -0.0000 -1.0000 -0.0000
vn -0.6656 -0.6935 0.2757
vn -0.3681 0.2735 -0.8886
vn -0.7067 0.1410 -0.6933
vn 0.7067 0.1410 -0.6933
vn 0.7067 -0.1411 0.6933
vn -0.7067 -0.1411 0.6933
vn -0.7064 0.0753 -0.7038
vn 0.7064 0.0753 -0.7038
vn 0.7064 -0.0754 0.7038
vn -0.7064 -0.0754 0.7038
vn -0.7070 -0.0120 -0.7071
vn 0.7070 -0.0120 -0.7071
vn 0.7070 0.0120 0.7071
vn -0.7070 0.0120 0.7071
vn -0.7067 -0.0490 -0.7058
vn 0.7067 -0.0490 -0.7058
vn 0.7067 0.0490 0.7058
vn -0.7067 0.0490 0.7058
vn -0.6978 -0.1150 -0.7070
vn 0.6978 -0.1150 -0.7070
vn 0.6979 0.1140 0.7071
vn -0.6979 0.1140 0.7071
vn 0.0407 0.9944 0.0970
vn 0.0455 -0.9931 -0.1084
vn -0.0455 -0.9931 -0.1084
vn 0.0936 0.9944 0.0481
vn -0.0348 -0.9931 -0.1123
vn -0.1046 -0.9931 -0.0538
vn 0.1026 0.9944 -0.0233
vn -0.0989 -0.9931 -0.0636
vn -0.1147 -0.9931 0.0260
vn 0.0636 0.9944 -0.0838
vn -0.1166 -0.9931 0.0148
vn -0.0711 -0.9931 0.0936
vn -0.0051 0.9944 -0.1051
vn -0.0798 -0.9931 0.0863
vn 0.0057 -0.9931 0.1174
vn -0.0715 0.9944 -0.0772
vn -0.0057 -0.9931 0.1174
vn 0.0798 -0.9931 0.0863
vn -0.1044 0.9944 -0.0132
vn 0.0711 -0.9931 0.0936
vn 0.1166 -0.9931 0.0148
vn -0.0885 0.9944 0.0570
vn 0.1147 -0.9931 0.0260
vn 0.0989 -0.9931 -0.0637
vn -0.0312 0.9944 0.1005
vn 0.1046 -0.9931 -0.0538
vn 0.0348 -0.9931 -0.1123
vn 0.3825 0.0266 0.9236
vn 0.3703 0.2519 -0.8941
vt 0.214894 0.153540
vt 0.214796 0.147691
vt 0.215024 0.153406
vt 0.214926 0.147588
vt 0.215153 0.153271
vt 0.214666 0.147794
vt 0.214515 0.134267
vt 0.214647 0.134237
vt 0.214462 0.110352
vt 0.214383 0.134297
vt 0.214594 0.110381
vt 0.214891 0.088520
vt 0.215022 0.088598
vt 0.214726 0.110410
vt 0.215157 0.076071
vt 0.214760 0.088443
vt 0.215287 0.076071
vt 0.719468 0.529191
vt 0.716238 0.532546
vt 0.716032 0.532546
vt 0.719468 0.528792
vt 0.719552 0.529191
vt 0.716762 0.532546
vt 0.716920 0.532546
vt 0.717394 0.532546
vt 0.719636 0.529191
vt 0.719552 0.528792
vt 0.719469 0.528792
vt 0.719636 0.528792
vt 0.719469 0.529191
vt 0.719771 0.529191
vt 0.718726 0.532546
vt 0.719174 0.532546
vt 0.719693 0.532546
vt 0.719898 0.529191
vt 0.719771 0.528792
vt 0.719643 0.528792
vt 0.719898 0.528792
vt 0.719643 0.529191
vt 0.720021 0.529191
vt 0.721210 0.532546
vt 0.721739 0.532546
vt 0.722061 0.532546
vt 0.720133 0.529191
vt 0.720021 0.528792
vt 0.719908 0.528792
vt 0.720133 0.528792
vt 0.719908 0.529191
vt 0.720185 0.529191
vt 0.723053 0.532546
vt 0.723414 0.532546
vt 0.723389 0.532546
vt 0.720230 0.529191
vt 0.720185 0.528792
vt 0.720141 0.528792
vt 0.720230 0.528792
vt 0.720141 0.529191
vt 0.720188 0.529191
vt 0.723391 0.532546
vt 0.723417 0.532546
vt 0.723055 0.532546
vt 0.720144 0.529191
vt 0.720188 0.528792
vt 0.720232 0.528792
vt 0.720144 0.528792
vt 0.720232 0.529191
vt 0.720027 0.529191
vt 0.722067 0.532546
vt 0.721745 0.532546
vt 0.721217 0.532546
vt 0.719914 0.529191
vt 0.720027 0.528792
vt 0.720140 0.528792
vt 0.719914 0.528792
vt 0.720140 0.529191
vt 0.719778 0.529191
vt 0.719700 0.532546
vt 0.719181 0.532546
vt 0.718733 0.532546
vt 0.719650 0.529191
vt 0.719778 0.528792
vt 0.719906 0.528792
vt 0.719650 0.528792
vt 0.719906 0.529191
vt 0.719557 0.529191
vt 0.717398 0.532546
vt 0.716925 0.532546
vt 0.716767 0.532546
vt 0.719474 0.529191
vt 0.719557 0.528792
vt 0.719641 0.528792
vt 0.719474 0.528792
vt 0.719641 0.529191
vt 0.589187 0.092421
vt 0.589030 0.102550
vt 0.589029 0.092421
vt 0.588646 0.092421
vt 0.588321 0.102550
vt 0.588676 0.102550
vt 0.589177 0.102550
vt 0.588264 0.092421
vt 0.588174 0.102550
vt 0.588237 0.105092
vt 0.588366 0.105092
vt 0.588676 0.105092
vt 0.588986 0.105092
vt 0.589114 0.105092
vt 0.588318 0.083547
vt 0.588414 0.083547
vt 0.588105 0.092421
vt 0.588878 0.083547
vt 0.588646 0.083547
vt 0.588974 0.083547
vt 0.215417 0.076071
s 0
usemtl Texture_Map
f 1/1/1 8/2/1 4/3/1
f 6/2/2 1/1/2 2/3/2
f 7/4/3 2/3/3 3/5/3
f 4/3/4 7/4/4 3/5/4
f 5/6/5 12/7/5 8/2/5
f 10/7/6 5/6/6 6/2/6
f 11/8/7 6/2/7 7/4/7
f 8/2/8 11/8/8 7/4/8
f 13/9/9 12/7/9 9/10/9
f 10/7/10 13/9/10 9/10/10
f 11/8/11 14/11/11 10/7/11
f 16/11/12 11/8/12 12/7/12
f 13/9/13 20/12/13 16/11/13
f 18/12/14 13/9/14 14/11/14
f 19/13/15 14/11/15 15/14/15
f 16/11/16 19/13/16 15/14/16
f 21/15/17 20/12/17 17/16/17
f 18/12/18 21/15/18 17/16/18
f 19/13/19 22/17/19 18/12/19
f 24/17/20 19/13/20 20/12/20
f 106/18/21 109/19/21 30/20/21
f 106/18/22 105/19/22 25/18/22
f 29/21/23 109/19/23 28/21/23
f 105/19/23 29/21/23 27/21/23
f 26/18/24 28/21/24 109/19/24
f 105/19/25 27/21/25 25/18/25
f 34/22/26 37/23/26 39/24/26
f 34/22/27 33/25/27 31/26/27
f 38/27/28 37/23/28 36/28/28
f 33/25/28 38/27/28 35/29/28
f 32/30/29 36/28/29 37/23/29
f 33/25/30 35/29/30 31/26/30
f 43/31/31 46/32/31 48/33/31
f 43/31/32 42/34/32 40/35/32
f 47/36/33 46/32/33 45/37/33
f 42/34/33 47/36/33 44/38/33
f 41/39/34 45/37/34 46/32/34
f 42/34/35 44/38/35 40/35/35
f 52/40/36 55/41/36 57/42/36
f 52/40/37 51/43/37 49/44/37
f 56/45/38 55/41/38 54/46/38
f 51/43/38 56/45/38 53/47/38
f 50/48/39 54/46/39 55/41/39
f 51/43/40 53/47/40 49/44/40
f 61/49/41 64/50/41 66/51/41
f 61/49/42 60/52/42 58/53/42
f 65/54/43 64/50/43 63/55/43
f 60/52/43 65/54/43 62/56/43
f 59/57/44 63/55/44 64/50/44
f 60/52/45 62/56/45 58/53/45
f 70/58/46 73/59/46 75/60/46
f 70/58/47 69/61/47 67/62/47
f 74/63/48 73/59/48 72/64/48
f 69/61/48 74/63/48 71/65/48
f 68/66/49 72/64/49 73/59/49
f 69/61/50 71/65/50 67/62/50
f 79/67/51 82/68/51 84/69/51
f 79/67/52 78/70/52 76/71/52
f 83/72/53 82/68/53 81/73/53
f 78/70/53 83/72/53 80/74/53
f 77/75/54 81/73/54 82/68/54
f 78/70/55 80/74/55 76/71/55
f 88/76/56 91/77/56 93/78/56
f 88/76/57 87/79/57 85/80/57
f 92/81/58 91/77/58 90/82/58
f 87/79/58 92/81/58 89/83/58
f 86/84/59 90/82/59 91/77/59
f 87/79/60 89/83/60 85/80/60
f 97/85/61 100/86/61 102/87/61
f 97/85/62 96/88/62 94/89/62
f 101/90/63 100/86/63 99/91/63
f 96/88/63 101/90/63 98/92/63
f 95/93/64 99/91/64 100/86/64
f 96/88/65 98/92/65 94/89/65
f 106/18/22 105/19/22 103/18/22
f 29/21/23 109/19/23 108/21/23
f 105/19/23 29/21/23 107/21/23
f 104/18/66 108/21/66 109/19/66
f 105/19/67 107/21/67 103/18/67
f 114/94/68 124/95/68 113/96/68
f 116/97/69 132/98/69 130/99/69
f 114/94/70 128/95/70 126/100/70
f 113/96/71 122/99/71 112/97/71
f 112/97/72 120/98/72 110/101/72
f 117/101/73 119/102/73 132/98/73
f 115/96/74 130/99/74 128/95/74
f 118/103/75 120/98/75 121/104/75
f 121/104/76 122/99/76 123/105/76
f 123/105/77 124/95/77 125/106/77
f 127/107/78 124/95/78 126/100/78
f 129/106/79 126/100/79 128/95/79
f 131/105/80 128/95/80 130/99/80
f 133/104/81 130/99/81 132/98/81
f 133/104/82 119/102/82 118/103/82
f 127/107/83 131/105/83 118/103/83
f 110/101/84 135/108/84 134/109/84
f 117/101/85 135/108/85 111/110/85
f 116/97/86 139/111/86 140/112/86
f 113/96/87 138/113/87 114/94/87
f 110/101/88 136/112/88 112/97/88
f 117/101/89 140/112/89 141/109/89
f 115/96/90 138/113/90 139/111/90
f 138/113/91 137/111/91 136/112/91
f 112/97/92 137/111/92 113/96/92
f 110/101/93 119/102/93 111/110/93
f 1/1/94 5/6/94 8/2/94
f 6/2/95 5/6/95 1/1/95
f 7/4/96 6/2/96 2/3/96
f 4/3/97 8/2/97 7/4/97
f 5/6/98 9/10/98 12/7/98
f 10/7/99 9/10/99 5/6/99
f 11/8/100 10/7/100 6/2/100
f 8/2/101 12/7/101 11/8/101
f 13/9/102 16/11/102 12/7/102
f 10/7/103 14/11/103 13/9/103
f 11/8/104 15/14/104 14/11/104
f 16/11/105 15/14/105 11/8/105
f 13/9/106 17/16/106 20/12/106
f 18/12/107 17/16/107 13/9/107
f 19/13/108 18/12/108 14/11/108
f 16/11/109 20/12/109 19/13/109
f 21/15/110 24/17/110 20/12/110
f 18/12/111 22/17/111 21/15/111
f 19/13/112 23/114/112 22/17/112
f 24/17/113 23/114/113 19/13/113
f 106/18/22 26/18/22 109/19/22
f 106/18/114 30/20/114 105/19/114
f 29/21/115 30/20/115 109/19/115
f 105/19/116 30/20/116 29/21/116
f 34/22/27 32/30/27 37/23/27
f 34/22/117 39/24/117 33/25/117
f 38/27/118 39/24/118 37/23/118
f 33/25/119 39/24/119 38/27/119
f 43/31/32 41/39/32 46/32/32
f 43/31/120 48/33/120 42/34/120
f 47/36/121 48/33/121 46/32/121
f 42/34/122 48/33/122 47/36/122
f 52/40/37 50/48/37 55/41/37
f 52/40/123 57/42/123 51/43/123
f 56/45/124 57/42/124 55/41/124
f 51/43/125 57/42/125 56/45/125
f 61/49/42 59/57/42 64/50/42
f 61/49/126 66/51/126 60/52/126
f 65/54/127 66/51/127 64/50/127
f 60/52/128 66/51/128 65/54/128
f 70/58/47 68/66/47 73/59/47
f 70/58/129 75/60/129 69/61/129
f 74/63/130 75/60/130 73/59/130
f 69/61/131 75/60/131 74/63/131
f 79/67/52 77/75/52 82/68/52
f 79/67/132 84/69/132 78/70/132
f 83/72/133 84/69/133 82/68/133
f 78/70/134 84/69/134 83/72/134
f 88/76/57 86/84/57 91/77/57
f 88/76/135 93/78/135 87/79/135
f 92/81/136 93/78/136 91/77/136
f 87/79/137 93/78/137 92/81/137
f 97/85/62 95/93/62 100/86/62
f 97/85/138 102/87/138 96/88/138
f 101/90/139 102/87/139 100/86/139
f 96/88/140 102/87/140 101/90/140
f 106/18/22 104/18/22 109/19/22
f 114/94/68 126/100/68 124/95/68
f 116/97/69 117/101/69 132/98/69
f 114/94/141 115/96/141 128/95/141
f 113/96/71 124/95/71 122/99/71
f 112/97/72 122/99/72 120/98/72
f 117/101/142 111/110/142 119/102/142
f 115/96/74 116/97/74 130/99/74
f 118/103/75 119/102/75 120/98/75
f 121/104/76 120/98/76 122/99/76
f 123/105/77 122/99/77 124/95/77
f 127/107/78 125/106/78 124/95/78
f 129/106/79 127/107/79 126/100/79
f 131/105/80 129/106/80 128/95/80
f 133/104/81 131/105/81 130/99/81
f 133/104/82 132/98/82 119/102/82
f 118/103/83 121/104/83 123/105/83
f 123/105/83 125/106/83 127/107/83
f 127/107/83 129/106/83 131/105/83
f 131/105/83 133/104/83 118/103/83
f 118/103/83 123/105/83 127/107/83
f 110/101/84 111/110/84 135/108/84
f 117/101/85 141/109/85 135/108/85
f 116/97/86 115/96/86 139/111/86
f 113/96/87 137/111/87 138/113/87
f 110/101/88 134/109/88 136/112/88
f 117/101/89 116/97/89 140/112/89
f 115/96/90 114/94/90 138/113/90
f 136/112/91 134/109/91 140/112/91
f 134/109/91 135/108/91 140/112/91
f 135/108/91 141/109/91 140/112/91
f 140/112/91 139/111/91 136/112/91
f 139/111/91 138/113/91 136/112/91
f 112/97/92 136/112/92 137/111/92
f 110/101/93 120/98/93 119/102/93
