# Blender 4.4.0
# www.blender.org
mtllib Env_Flowers_04.mtl
o Env_Flowers_04
v -0.000000 0.296487 -0.087263
v -0.024766 0.295167 -0.077090
v -0.035024 0.291982 -0.052530
v -0.024766 0.288796 -0.027970
v -0.000000 0.287476 -0.017797
v 0.024766 0.288796 -0.027970
v 0.035024 0.291982 -0.052530
v 0.024766 0.295167 -0.077090
v -0.030728 0.306831 -0.081512
v -0.000000 0.308469 -0.094134
v -0.043457 0.302879 -0.051039
v -0.030728 0.298926 -0.020565
v -0.000000 0.297289 -0.007943
v 0.030728 0.298926 -0.020565
v 0.043457 0.302879 -0.051039
v 0.030728 0.306831 -0.081512
v -0.016436 0.315351 -0.065995
v -0.000000 0.316226 -0.072746
v -0.023245 0.313236 -0.049695
v -0.016436 0.311122 -0.033395
v -0.000000 0.310246 -0.026644
v 0.016436 0.311122 -0.033395
v 0.023245 0.313236 -0.049695
v 0.016436 0.315351 -0.065995
v 0.000000 0.332447 -0.135661
v -0.041347 0.346470 -0.146042
v -0.062029 0.329142 -0.110181
v -0.099821 0.338948 -0.088054
v -0.087723 0.321162 -0.048667
v -0.099821 0.328310 -0.006046
v -0.062029 0.313183 0.012847
v -0.041347 0.320789 0.051942
v 0.000000 0.309878 0.038327
v 0.041347 0.320789 0.051942
v 0.062029 0.313183 0.012847
v 0.099821 0.328310 -0.006046
v 0.087723 0.321162 -0.048667
v 0.099821 0.338948 -0.088054
v 0.062029 0.329142 -0.110181
v 0.041347 0.346470 -0.146042
v 0.000000 0.296812 -0.079347
v -0.012864 0.297297 -0.083080
v -0.019299 0.295784 -0.071420
v -0.031057 0.294956 -0.065038
v -0.027293 0.293302 -0.052281
v -0.031057 0.291647 -0.039523
v -0.019299 0.290819 -0.033142
v -0.012864 0.289306 -0.021481
v 0.000000 0.289791 -0.025214
v 0.012864 0.289306 -0.021481
v 0.019299 0.290819 -0.033142
v 0.031057 0.291647 -0.039523
v 0.027293 0.293302 -0.052281
v 0.031057 0.294956 -0.065038
v 0.019299 0.295784 -0.071420
v 0.012864 0.297297 -0.083080
v -0.041347 0.343590 -0.146415
v 0.000000 0.329567 -0.136034
v -0.062029 0.326262 -0.110554
v -0.099821 0.336069 -0.088427
v -0.087723 0.318283 -0.049040
v -0.099821 0.325431 -0.006420
v -0.062029 0.310304 0.012473
v -0.041347 0.317910 0.051569
v 0.000000 0.306999 0.037953
v 0.041347 0.317910 0.051569
v 0.062029 0.310304 0.012473
v 0.099821 0.325431 -0.006420
v 0.087723 0.318283 -0.049040
v 0.099821 0.336069 -0.088427
v 0.062029 0.326262 -0.110554
v 0.041347 0.343590 -0.146415
v -0.012864 0.289642 -0.084073
v 0.000000 0.289158 -0.080340
v -0.019299 0.288129 -0.072413
v -0.031057 0.287302 -0.066031
v -0.027293 0.285647 -0.053274
v -0.031057 0.283992 -0.040516
v -0.019299 0.283164 -0.034135
v -0.012864 0.281652 -0.022474
v 0.000000 0.282136 -0.026207
v 0.012864 0.281652 -0.022474
v 0.019299 0.283164 -0.034135
v 0.031057 0.283992 -0.040516
v 0.027293 0.285647 -0.053274
v 0.031057 0.287302 -0.066031
v 0.019299 0.288129 -0.072413
v 0.012864 0.289642 -0.084073
v 0.004567 0.288103 -0.061184
v -0.004567 0.288103 -0.061184
v -0.009134 0.288103 -0.053274
v -0.004567 0.288103 -0.045364
v 0.004567 0.288103 -0.045364
v 0.009134 0.288103 -0.053274
v 0.004567 -0.000000 -0.007910
v -0.004567 -0.000000 -0.007910
v -0.009134 -0.000000 -0.000000
v -0.004567 -0.000000 0.007910
v 0.004567 -0.000000 0.007910
v 0.009134 -0.000000 -0.000000
v 0.013246 0.084142 -0.044424
v 0.013068 0.207607 -0.066004
v 0.008502 0.207598 -0.073915
v 0.008684 0.084224 -0.052378
v -0.000450 0.084224 -0.036558
v -0.000632 0.207598 -0.058095
v 0.008502 0.207603 -0.058094
v 0.008683 0.084211 -0.036551
v -0.000450 0.084211 -0.052371
v -0.000632 0.207603 -0.073914
v -0.005199 0.207607 -0.066004
v -0.005021 0.084142 -0.044424
vn -0.1868 0.8075 0.5595
vn -0.3132 -0.4724 -0.8238
vn 0.3132 -0.4724 -0.8238
vn 0.7530 -0.6148 0.2348
vn -0.3113 -0.6734 0.6706
vn -0.7549 -0.5315 -0.3842
vn 0.7549 -0.5315 -0.3842
vn 0.3113 -0.6734 0.6706
vn -0.7530 -0.6148 0.2348
vn -0.0000 0.9917 0.1286
vn -0.4510 0.8895 -0.0730
vn 0.4510 0.8895 -0.0730
vn 0.1868 0.8075 0.5595
vn -0.4510 0.8415 0.2975
vn -0.1868 0.9235 -0.3350
vn 0.1868 0.9235 -0.3350
vn 0.4510 0.8415 0.2975
vn 0.4640 0.8521 0.2422
vn -0.4640 0.8857 -0.0168
vn 0.4640 0.8857 -0.0168
vn -0.4640 0.8521 0.2422
vn 0.4205 0.8992 -0.1211
vn -0.4205 0.8385 0.3465
vn 0.2358 0.9229 -0.3043
vn -0.2358 0.8148 0.5297
vn 0.1306 0.9285 -0.3475
vn -0.1306 0.8092 0.5729
vn -0.1306 0.9285 -0.3475
vn 0.2358 0.8148 0.5297
vn -0.2358 0.9229 -0.3043
vn 0.4205 0.8385 0.3465
vn -0.4205 0.8992 -0.1211
vn -0.5174 -0.8283 -0.2151
vn 0.5174 -0.8558 -0.0033
vn -0.5174 -0.8558 -0.0033
vn 0.5174 -0.8283 -0.2151
vn -0.4413 -0.8794 0.1787
vn 0.4413 -0.8047 -0.3971
vn -0.2903 -0.8988 0.3284
vn 0.2903 -0.7853 -0.5469
vn -0.1068 -0.9086 0.4038
vn 0.1068 -0.7755 -0.6223
vn 0.1068 -0.9086 0.4038
vn -0.2903 -0.7853 -0.5469
vn 0.1306 0.8092 0.5729
vn 0.2903 -0.8988 0.3284
vn -0.4413 -0.8047 -0.3971
vn 0.4413 -0.8794 0.1787
vn -0.0000 -0.9917 -0.1286
vn -0.9598 0.0361 -0.2785
vn 0.9598 -0.0361 0.2785
vn -0.4801 -0.1128 0.8699
vn 0.4801 0.1128 -0.8699
vn -0.8772 -0.0618 0.4761
vn 0.8772 0.0618 -0.4761
vn 0.2808 -0.1235 0.9518
vn 0.2808 0.1235 -0.9518
vn -0.2808 0.1235 -0.9518
vn -0.2808 -0.1235 0.9518
vn -0.8772 0.0618 -0.4761
vn 0.8772 -0.0618 0.4761
vn -0.4801 0.1128 -0.8699
vn 0.4801 -0.1128 0.8699
vn -0.9598 -0.0361 0.2785
vn 0.9598 0.0361 -0.2785
vn -0.1068 -0.7755 -0.6223
vn 0.8455 0.2164 0.4882
vn -0.8280 0.2929 0.4781
vn -0.0000 -0.4669 -0.8843
vn -0.8654 0.0367 -0.4997
vn -0.0000 0.1562 -0.9877
vn -0.0000 -0.1562 0.9877
vn -0.0000 0.4669 0.8843
vn 0.8280 -0.2929 -0.4781
vn -0.8455 -0.2164 -0.4882
vn -0.8597 -0.1205 0.4964
vn 0.8654 -0.0367 0.4997
vn -0.0005 -0.1720 -0.9851
vn -0.8627 0.0859 0.4983
vn 0.8621 0.0884 0.4989
vn -0.8627 -0.0882 -0.4980
vn -0.0002 0.1720 0.9851
vn 0.8638 -0.0855 -0.4965
vn 0.8597 0.1205 -0.4964
vn 0.4184 0.9082 -0.0056
vn -0.4184 0.8767 0.2372
vn 0.4184 0.8767 0.2372
vn -0.4184 0.9082 -0.0056
vn 0.2093 0.9417 -0.2635
vn -0.2093 0.8433 0.4950
vn 0.3824 0.9194 -0.0918
vn -0.3824 0.8656 0.3233
vn -0.1224 0.9463 -0.2992
vn 0.1224 0.8387 0.5307
vn 0.1224 0.9463 -0.2992
vn 0.3824 0.8656 0.3233
vn -0.3824 0.9194 -0.0918
vn 0.2093 0.8433 0.4950
vn -0.2093 0.9417 -0.2635
vn -0.4737 -0.8803 0.0256
vn 0.4737 -0.8447 -0.2493
vn -0.4737 -0.8447 -0.2493
vn 0.4737 -0.8803 0.0256
vn -0.2369 -0.9182 0.3175
vn 0.2369 -0.8068 -0.5412
vn -0.4329 -0.8930 0.1231
vn 0.4329 -0.8320 -0.3468
vn 0.1386 -0.9234 0.3578
vn -0.1386 -0.8016 -0.5816
vn -0.1386 -0.9234 0.3578
vn -0.4329 -0.8320 -0.3468
vn -0.1224 0.8387 0.5307
vn 0.4329 -0.8930 0.1231
vn -0.2369 -0.8068 -0.5412
vn 0.2369 -0.9182 0.3175
vn 0.1386 -0.8016 -0.5816
vn -0.0002 -0.1720 -0.9851
vn -0.8618 0.0860 0.4999
vn 0.8626 0.0883 0.4981
vn -0.8632 -0.0881 -0.4972
vn -0.0005 0.1720 0.9851
vn 0.8630 -0.0857 -0.4980
vt 0.737416 0.458503
vt 0.736280 0.461659
vt 0.736853 0.458876
vt 0.734329 0.458019
vt 0.733568 0.461054
vt 0.733875 0.458320
vt 0.734132 0.460680
vt 0.736522 0.456565
vt 0.735492 0.459778
vt 0.736976 0.456264
vt 0.735426 0.457292
vt 0.736581 0.461459
vt 0.735552 0.462142
vt 0.734523 0.462824
vt 0.734825 0.462624
vt 0.205803 0.543320
vt 0.205072 0.537340
vt 0.204045 0.547379
vt 0.206211 0.536585
vt 0.207706 0.544951
vt 0.208549 0.541500
vt 0.203057 0.545141
vt 0.207017 0.536051
vt 0.210294 0.543235
vt 0.204267 0.537874
vt 0.201456 0.549095
vt 0.209686 0.540745
vt 0.201920 0.545895
vt 0.205028 0.535594
vt 0.205786 0.542663
vt 0.204028 0.546722
vt 0.206167 0.534839
vt 0.207689 0.544294
vt 0.208532 0.540843
vt 0.203041 0.544484
vt 0.206972 0.534304
vt 0.210277 0.542578
vt 0.204223 0.536128
vt 0.201440 0.548438
vt 0.209670 0.540088
vt 0.201903 0.545238
vt 0.205597 0.535216
vt 0.204743 0.535783
vt 0.206452 0.534650
vt 0.214117 0.076254
vt 0.215370 0.061489
vt 0.213846 0.076242
vt 0.214116 0.076256
vt 0.215099 0.061489
vt 0.213574 0.076254
vt 0.213574 0.076256
vt 0.213272 0.112004
vt 0.213106 0.097890
vt 0.213543 0.112004
vt 0.212835 0.097889
vt 0.213378 0.097888
vt 0.213814 0.112004
vt 0.215642 0.061489
vt 0.213378 0.097889
vt 0.212835 0.097888
vt 0.205642 0.536963
vt 0.206496 0.536396
vt 0.204787 0.537529
vt 0.206850 0.536162
vt 0.204434 0.537764
vt 0.206806 0.534415
vt 0.204389 0.536017
s 0
usemtl Texture_Map
f 13/1/1 20/2/1 12/3/1
f 2/4/2 10/5/2 1/6/2
f 8/4/3 10/5/3 16/7/3
f 6/8/4 15/9/4 14/3/4
f 5/10/5 12/3/5 4/8/5
f 3/11/6 9/7/6 2/4/6
f 7/11/7 16/7/7 15/9/7
f 5/10/8 14/3/8 13/1/8
f 4/8/9 11/9/9 3/11/9
f 21/12/10 23/13/10 18/14/10
f 11/9/11 17/15/11 9/7/11
f 16/7/12 23/13/12 15/9/12
f 13/1/13 22/2/13 21/12/13
f 12/3/14 19/13/14 11/9/14
f 10/5/15 17/15/15 18/14/15
f 10/5/16 24/15/16 16/7/16
f 14/3/17 23/13/17 22/2/17
f 29/16/18 44/17/18 28/18/18
f 37/16/19 52/19/19 36/20/19
f 46/19/20 29/16/20 30/20/20
f 54/17/21 37/16/21 38/18/21
f 31/21/22 46/19/22 30/20/22
f 39/22/23 54/17/23 38/18/23
f 48/23/24 31/21/24 32/24/24
f 56/25/25 39/22/25 40/26/25
f 33/27/26 48/23/26 32/24/26
f 25/28/27 56/25/27 40/26/27
f 50/23/28 33/27/28 34/24/28
f 27/22/29 42/25/29 26/26/29
f 35/21/30 50/23/30 34/24/30
f 44/17/31 27/22/31 28/18/31
f 52/19/32 35/21/32 36/20/32
f 76/29/33 61/30/33 60/31/33
f 84/32/34 69/30/34 68/33/34
f 61/30/35 78/32/35 62/33/35
f 69/30/36 86/29/36 70/31/36
f 78/32/37 63/34/37 62/33/37
f 86/29/38 71/35/38 70/31/38
f 63/34/39 80/36/39 64/37/39
f 71/35/40 88/38/40 72/39/40
f 80/36/41 65/40/41 64/37/41
f 88/38/42 58/41/42 72/39/42
f 65/40/43 82/36/43 66/37/43
f 73/38/44 59/35/44 57/39/44
f 42/25/45 25/28/45 26/26/45
f 82/36/46 67/34/46 66/37/46
f 59/35/47 76/29/47 60/31/47
f 67/34/48 84/32/48 68/33/48
f 77/42/49 75/43/49 83/44/49
f 29/16/50 62/33/50 30/20/50
f 37/16/51 70/31/51 38/18/51
f 62/33/52 31/21/52 30/20/52
f 70/31/53 39/22/53 38/18/53
f 31/21/54 64/37/54 32/24/54
f 39/22/55 72/39/55 40/26/55
f 64/37/56 33/27/56 32/24/56
f 25/28/57 57/39/57 26/26/57
f 72/39/58 25/28/58 40/26/58
f 33/27/59 66/37/59 34/24/59
f 57/39/60 27/22/60 26/26/60
f 66/37/61 35/21/61 34/24/61
f 27/22/62 60/31/62 28/18/62
f 35/21/63 68/33/63 36/20/63
f 60/31/64 29/16/64 28/18/64
f 68/33/65 37/16/65 36/20/65
f 58/41/66 73/38/66 57/39/66
f 108/45/67 100/46/67 101/47/67
f 97/46/68 105/48/68 112/47/68
f 95/49/69 109/50/69 104/51/69
f 90/52/70 111/53/70 91/54/70
f 89/52/71 110/55/71 90/52/71
f 106/56/72 93/57/72 92/57/72
f 105/48/73 99/58/73 108/45/73
f 101/47/74 95/49/74 104/51/74
f 96/49/75 112/47/75 109/50/75
f 91/54/76 106/56/76 92/57/76
f 107/59/77 94/54/77 93/57/77
f 109/50/78 103/60/78 104/51/78
f 112/47/79 106/56/79 111/53/79
f 101/47/80 107/59/80 108/45/80
f 109/50/81 111/53/81 110/55/81
f 105/48/82 107/59/82 106/56/82
f 104/51/83 102/53/83 101/47/83
f 102/53/84 89/52/84 94/54/84
f 13/1/1 21/12/1 20/2/1
f 2/4/2 9/7/2 10/5/2
f 8/4/3 1/6/3 10/5/3
f 6/8/4 7/11/4 15/9/4
f 5/10/5 13/1/5 12/3/5
f 3/11/6 11/9/6 9/7/6
f 7/11/7 8/4/7 16/7/7
f 5/10/8 6/8/8 14/3/8
f 4/8/9 12/3/9 11/9/9
f 18/14/10 17/15/10 19/13/10
f 19/13/10 20/2/10 18/14/10
f 20/2/10 21/12/10 18/14/10
f 21/12/10 22/2/10 23/13/10
f 23/13/10 24/15/10 18/14/10
f 11/9/11 19/13/11 17/15/11
f 16/7/12 24/15/12 23/13/12
f 13/1/13 14/3/13 22/2/13
f 12/3/14 20/2/14 19/13/14
f 10/5/15 9/7/15 17/15/15
f 10/5/16 18/14/16 24/15/16
f 14/3/17 15/9/17 23/13/17
f 29/16/85 45/61/85 44/17/85
f 37/16/86 53/61/86 52/19/86
f 46/19/87 45/61/87 29/16/87
f 54/17/88 53/61/88 37/16/88
f 31/21/89 47/62/89 46/19/89
f 39/22/90 55/63/90 54/17/90
f 48/23/91 47/62/91 31/21/91
f 56/25/92 55/63/92 39/22/92
f 33/27/93 49/64/93 48/23/93
f 25/28/94 41/65/94 56/25/94
f 50/23/95 49/64/95 33/27/95
f 27/22/96 43/63/96 42/25/96
f 35/21/97 51/62/97 50/23/97
f 44/17/98 43/63/98 27/22/98
f 52/19/99 51/62/99 35/21/99
f 76/29/100 77/42/100 61/30/100
f 84/32/101 85/42/101 69/30/101
f 61/30/102 77/42/102 78/32/102
f 69/30/103 85/42/103 86/29/103
f 78/32/104 79/44/104 63/34/104
f 86/29/105 87/43/105 71/35/105
f 63/34/106 79/44/106 80/36/106
f 71/35/107 87/43/107 88/38/107
f 80/36/108 81/66/108 65/40/108
f 88/38/109 74/67/109 58/41/109
f 65/40/110 81/66/110 82/36/110
f 73/38/111 75/43/111 59/35/111
f 42/25/112 41/65/112 25/28/112
f 82/36/113 83/44/113 67/34/113
f 59/35/114 75/43/114 76/29/114
f 67/34/115 83/44/115 84/32/115
f 75/43/49 73/38/49 74/67/49
f 74/67/49 88/38/49 87/43/49
f 87/43/49 86/29/49 85/42/49
f 85/42/49 84/32/49 83/44/49
f 83/44/49 82/36/49 81/66/49
f 81/66/49 80/36/49 79/44/49
f 79/44/49 78/32/49 77/42/49
f 77/42/49 76/29/49 75/43/49
f 75/43/49 74/67/49 83/44/49
f 74/67/49 87/43/49 83/44/49
f 87/43/49 85/42/49 83/44/49
f 83/44/49 81/66/49 79/44/49
f 79/44/49 77/42/49 83/44/49
f 29/16/50 61/30/50 62/33/50
f 37/16/51 69/30/51 70/31/51
f 62/33/52 63/34/52 31/21/52
f 70/31/53 71/35/53 39/22/53
f 31/21/54 63/34/54 64/37/54
f 39/22/55 71/35/55 72/39/55
f 64/37/56 65/40/56 33/27/56
f 25/28/57 58/41/57 57/39/57
f 72/39/58 58/41/58 25/28/58
f 33/27/59 65/40/59 66/37/59
f 57/39/60 59/35/60 27/22/60
f 66/37/61 67/34/61 35/21/61
f 27/22/62 59/35/62 60/31/62
f 35/21/63 67/34/63 68/33/63
f 60/31/64 61/30/64 29/16/64
f 68/33/65 69/30/65 37/16/65
f 58/41/116 74/67/116 73/38/116
f 108/45/67 99/58/67 100/46/67
f 97/46/68 98/58/68 105/48/68
f 95/49/69 96/49/69 109/50/69
f 90/52/70 110/55/70 111/53/70
f 89/52/71 103/60/71 110/55/71
f 106/56/72 107/59/72 93/57/72
f 105/48/73 98/58/73 99/58/73
f 101/47/74 100/46/74 95/49/74
f 96/49/75 97/46/75 112/47/75
f 91/54/76 111/53/76 106/56/76
f 107/59/77 102/53/77 94/54/77
f 109/50/117 110/55/117 103/60/117
f 112/47/118 105/48/118 106/56/118
f 101/47/119 102/53/119 107/59/119
f 109/50/120 112/47/120 111/53/120
f 105/48/121 108/45/121 107/59/121
f 104/51/122 103/60/122 102/53/122
f 102/53/84 103/60/84 89/52/84
