# Blender 4.4.0
# www.blender.org
mtllib Env_Grass_Patch_Yellow_02.mtl
o Env_Grass_Patch_Yellow_02
v -0.011725 -0.000000 -0.014114
v 0.013246 -0.000000 -0.014114
v 0.006327 0.175229 -0.090324
v 0.000761 -0.000000 -0.008680
v -0.011725 0.127283 -0.043165
v 0.013246 0.127283 -0.043165
v 0.000761 0.129780 -0.037732
v -0.011725 0.126288 -0.045283
v -0.011725 -0.000000 -0.014778
v 0.000761 -0.000000 -0.010807
v 0.013246 -0.000000 -0.014791
v 0.013246 0.126288 -0.045283
v 0.000761 0.194022 -0.105661
v -0.004806 0.175229 -0.090324
v 0.000761 0.128785 -0.039850
v 0.072577 0.219408 0.005250
v 0.002734 -0.000000 -0.007781
v 0.008531 -0.000000 0.020489
v 0.085703 0.226437 0.011129
v -0.000788 -0.000000 0.007818
v 0.061741 0.198357 -0.004489
v 0.065860 0.196978 0.015603
v 0.071380 0.219821 0.005524
v 0.062938 0.197945 -0.004762
v 0.003518 -0.000000 -0.007960
v 0.001725 -0.000000 0.007245
v 0.009331 -0.000000 0.020307
v 0.067058 0.196566 0.015329
v 0.106013 0.249066 0.003424
v 0.083168 0.227450 -0.001475
v -0.063185 0.131312 0.028411
v -0.013146 -0.000000 0.017989
v 0.000556 -0.000000 -0.007141
v -0.077560 0.149488 0.019282
v -0.000312 -0.000000 0.008820
v -0.060717 0.122248 0.036436
v -0.050979 0.125207 0.018577
v -0.060832 0.136418 0.029047
v -0.061834 0.122086 0.035800
v -0.013876 -0.000000 0.017573
v -0.002650 -0.000000 0.007489
v -0.000188 -0.000000 -0.007565
v -0.052096 0.125045 0.017941
v -0.099661 0.160184 0.019104
v -0.083696 0.147785 0.030496
vn 0.4884 0.6340 0.5996
vn -0.4048 0.6702 0.6220
vn -0.3906 0.2048 0.8975
vn 0.4242 0.1978 0.8837
vn -0.4091 -0.6486 -0.6419
vn 0.4091 -0.6486 -0.6419
vn 0.2954 -0.2243 -0.9287
vn -0.2963 -0.2242 -0.9284
vn 1.0000 -0.0000 -0.0000
vn 0.9941 0.0981 -0.0461
vn -1.0000 -0.0000 -0.0000
vn -0.9941 0.0981 -0.0461
vn 0.5535 -0.4445 -0.7043
vn 0.7034 -0.5345 0.4686
vn 0.9512 -0.2874 0.1122
vn 0.8350 -0.2575 -0.4862
vn -0.5179 0.6530 0.5526
vn -0.6598 0.5401 -0.5225
vn -0.9359 0.2819 -0.2113
vn -0.9327 0.3081 0.1876
vn 0.2221 -0.0405 0.9742
vn 0.2224 -0.0017 0.9750
vn -0.2216 0.0820 -0.9717
vn -0.1488 0.2097 -0.9664
vn -0.6686 -0.6800 -0.3011
vn -0.5268 -0.5770 -0.6241
vn -0.6607 -0.1497 -0.7356
vn -0.9235 -0.3526 -0.1510
vn 0.3921 0.8173 0.4222
vn 0.2758 0.4462 0.8514
vn 0.5782 0.1029 0.8094
vn 0.8340 0.3015 0.4621
vn 0.4621 0.3570 -0.8118
vn 0.3912 0.4515 -0.8019
vn -0.4707 -0.3079 0.8268
vn -0.4598 -0.2133 0.8620
vn 0.4048 0.6702 0.6220
vn -0.4884 0.6340 0.5996
vn -0.4242 0.1978 0.8837
vn 0.3906 0.2048 0.8975
vn -0.4164 -0.6457 -0.6401
vn 0.4164 -0.6457 -0.6401
vn 0.4243 -0.1992 -0.8834
vn -0.4243 -0.1992 -0.8834
vn 0.5710 -0.6727 -0.4705
vn 0.6598 -0.7339 0.1615
vn 0.9220 -0.3000 -0.2446
vn 0.9363 -0.3039 -0.1761
vn -0.4976 0.4480 0.7428
vn -0.6308 0.7277 -0.2692
vn -0.9231 0.3055 0.2338
vn -0.7817 0.2418 0.5749
vn 0.2106 -0.0371 0.9769
vn -0.1976 0.0751 -0.9774
vn -0.2846 -0.6004 -0.7473
vn -0.6244 -0.7807 0.0253
vn -0.8858 -0.3621 -0.2902
vn -0.7344 -0.2373 -0.6358
vn 0.6636 0.7311 -0.1583
vn 0.4395 0.8452 0.3040
vn 0.8049 0.2795 0.5235
vn 0.9272 0.3713 0.0505
vn 0.4255 0.3471 -0.8357
vn -0.4391 -0.2990 0.8473
vt 0.838155 0.463739
vt 0.838399 0.472726
vt 0.838470 0.476442
vt 0.838180 0.463245
vt 0.838020 0.438075
vt 0.838045 0.438075
vt 0.838165 0.463542
vt 0.838190 0.463048
vt 0.838030 0.438075
vt 0.838049 0.438075
vt 0.837956 0.481462
vt 0.837928 0.482852
vt 0.837909 0.476945
vt 0.837987 0.483053
vt 0.838002 0.477218
vt 0.837946 0.438075
vt 0.838017 0.438075
vt 0.837886 0.438075
vt 0.837954 0.481544
vt 0.837964 0.487327
vt 0.838001 0.477300
vt 0.837944 0.438075
vt 0.838016 0.438075
vt 0.837908 0.477027
vt 0.837885 0.438075
vt 0.837848 0.464042
vt 0.837891 0.467636
vt 0.837897 0.462802
vt 0.837839 0.467299
vt 0.837814 0.462217
vt 0.837945 0.438075
vt 0.837899 0.438075
vt 0.838015 0.438075
vt 0.837845 0.465051
vt 0.837891 0.469751
vt 0.837811 0.462249
vt 0.837939 0.438075
vt 0.837897 0.438075
vt 0.837894 0.462834
vt 0.838013 0.438075
s 0
usemtl Texture_Map
f 7/1/1 3/2/1 13/3/1
f 7/1/2 14/2/2 5/4/2
f 4/5/3 5/4/3 1/6/3
f 4/5/4 6/4/4 7/1/4
f 15/7/5 3/2/5 12/8/5
f 14/2/6 15/7/6 8/8/6
f 8/8/7 10/9/7 9/10/7
f 10/9/8 12/8/8 11/10/8
f 2/6/9 12/8/9 6/4/9
f 6/4/10 12/8/10 3/2/10
f 8/8/11 1/6/11 5/4/11
f 14/2/12 8/8/12 5/4/12
f 16/11/13 19/12/13 28/13/13
f 30/14/14 16/11/14 24/15/14
f 24/15/15 26/16/15 25/17/15
f 26/16/16 28/13/16 27/18/16
f 23/19/17 19/12/17 29/20/17
f 23/19/18 30/14/18 21/21/18
f 20/22/19 21/21/19 17/23/19
f 20/22/20 22/24/20 23/19/20
f 27/18/21 22/24/21 18/25/21
f 22/24/22 28/13/22 19/12/22
f 21/21/23 25/17/23 17/23/23
f 30/14/24 24/15/24 21/21/24
f 31/26/25 34/27/25 43/28/25
f 45/29/26 31/26/26 39/30/26
f 39/30/27 41/31/27 40/32/27
f 41/31/28 43/28/28 42/33/28
f 38/34/29 34/27/29 44/35/29
f 38/34/30 45/29/30 36/36/30
f 35/37/31 36/36/31 32/38/31
f 35/37/32 37/39/32 38/34/32
f 42/33/33 37/39/33 33/40/33
f 37/39/34 43/28/34 34/27/34
f 36/36/35 40/32/35 32/38/35
f 45/29/36 39/30/36 36/36/36
f 7/1/37 6/4/37 3/2/37
f 7/1/38 13/3/38 14/2/38
f 4/5/39 7/1/39 5/4/39
f 4/5/40 2/6/40 6/4/40
f 15/7/41 13/3/41 3/2/41
f 14/2/42 13/3/42 15/7/42
f 8/8/43 15/7/43 10/9/43
f 10/9/44 15/7/44 12/8/44
f 2/6/9 11/10/9 12/8/9
f 8/8/11 9/10/11 1/6/11
f 16/11/45 29/20/45 19/12/45
f 30/14/46 29/20/46 16/11/46
f 24/15/47 16/11/47 26/16/47
f 26/16/48 16/11/48 28/13/48
f 23/19/49 22/24/49 19/12/49
f 23/19/50 29/20/50 30/14/50
f 20/22/51 23/19/51 21/21/51
f 20/22/52 18/25/52 22/24/52
f 27/18/53 28/13/53 22/24/53
f 21/21/54 24/15/54 25/17/54
f 31/26/55 44/35/55 34/27/55
f 45/29/56 44/35/56 31/26/56
f 39/30/57 31/26/57 41/31/57
f 41/31/58 31/26/58 43/28/58
f 38/34/59 37/39/59 34/27/59
f 38/34/60 44/35/60 45/29/60
f 35/37/61 38/34/61 36/36/61
f 35/37/62 33/40/62 37/39/62
f 42/33/63 43/28/63 37/39/63
f 36/36/64 39/30/64 40/32/64
