# Blender 4.4.0
# www.blender.org
mtllib Env_Flowers_03.mtl
o Env_Flowers_03
v 0.003949 0.249101 -0.006839
v -0.003949 0.249101 -0.006839
v -0.007897 0.249101 0.000000
v -0.003949 0.249101 0.006839
v 0.003949 0.249101 0.006839
v 0.007897 0.249101 0.000000
v 0.003949 0.000000 -0.006839
v -0.003949 0.000000 -0.006839
v -0.007897 0.000000 0.000000
v -0.003949 0.000000 0.006839
v 0.003949 0.000000 0.006839
v 0.007897 0.000000 0.000000
v 0.013985 0.124551 -0.008774
v 0.010037 0.124551 -0.015613
v 0.002140 0.124551 -0.001935
v 0.010037 0.124551 -0.001935
v 0.002140 0.124551 -0.015613
v -0.001809 0.124551 -0.008774
v -0.000000 0.256368 -0.030227
v -0.022011 0.255195 -0.021185
v -0.031129 0.252364 0.000643
v -0.022011 0.249532 0.022472
v -0.000000 0.248360 0.031513
v 0.022011 0.249532 0.022472
v 0.031129 0.252364 0.000643
v 0.022011 0.255195 -0.021185
v -0.026569 0.265294 -0.024415
v -0.000000 0.266710 -0.035329
v -0.037574 0.261876 0.001933
v -0.026569 0.258459 0.028280
v -0.000000 0.257043 0.039194
v 0.026569 0.258459 0.028280
v 0.037574 0.261876 0.001933
v 0.026569 0.265294 -0.024415
v -0.014211 0.272660 -0.010999
v -0.000000 0.273417 -0.016837
v -0.020098 0.270832 0.003094
v -0.014211 0.269004 0.017187
v -0.000000 0.268247 0.023025
v 0.014211 0.269004 0.017187
v 0.020098 0.270832 0.003094
v 0.014211 0.272660 -0.010999
v 0.000000 0.287442 -0.071234
v -0.035750 0.299566 -0.080209
v -0.053632 0.284584 -0.049203
v -0.086308 0.293063 -0.030072
v -0.075847 0.277685 0.003983
v -0.086308 0.283865 0.040834
v -0.053632 0.270786 0.057170
v -0.035750 0.277362 0.090972
v 0.000000 0.267929 0.079200
v 0.035750 0.277362 0.090972
v 0.053632 0.270786 0.057170
v 0.086308 0.283865 0.040834
v 0.075847 0.277685 0.003983
v 0.086308 0.293063 -0.030072
v 0.053632 0.284584 -0.049203
v 0.035750 0.299566 -0.080209
v 0.000000 0.256631 -0.022544
v -0.011123 0.257050 -0.025771
v -0.016687 0.255742 -0.015689
v -0.026853 0.255027 -0.010172
v -0.023598 0.253596 0.000858
v -0.026853 0.252165 0.011889
v -0.016687 0.251449 0.017406
v -0.011123 0.250142 0.027488
v 0.000000 0.250560 0.024261
v 0.011123 0.250142 0.027488
v 0.016687 0.251449 0.017406
v 0.026853 0.252165 0.011889
v 0.023598 0.253596 0.000858
v 0.026853 0.255027 -0.010172
v 0.016687 0.255742 -0.015689
v 0.011123 0.257050 -0.025771
v -0.035750 0.297077 -0.080532
v 0.000000 0.284952 -0.071557
v -0.053632 0.282095 -0.049526
v -0.086308 0.290573 -0.030394
v -0.075847 0.275196 0.003660
v -0.086308 0.281376 0.040511
v -0.053632 0.268297 0.056847
v -0.035750 0.274872 0.090649
v 0.000000 0.265439 0.078877
v 0.035750 0.274872 0.090649
v 0.053632 0.268297 0.056847
v 0.086308 0.281376 0.040511
v 0.075847 0.275196 0.003660
v 0.086308 0.290573 -0.030394
v 0.053632 0.282095 -0.049526
v 0.035750 0.297077 -0.080532
v -0.011123 0.250432 -0.026630
v 0.000000 0.250013 -0.023402
v -0.016687 0.249124 -0.016548
v -0.026853 0.248408 -0.011030
v -0.023598 0.246977 -0.000000
v -0.026853 0.245547 0.011030
v -0.016687 0.244831 0.016548
v -0.011123 0.243523 0.026630
v 0.000000 0.243942 0.023402
v 0.011123 0.243523 0.026630
v 0.016687 0.244831 0.016548
v 0.026853 0.245547 0.011030
v 0.023598 0.246977 -0.000000
v 0.026853 0.248408 -0.011030
v 0.016687 0.249124 -0.016548
v 0.011123 0.250432 -0.026630
vn 0.8634 -0.0773 -0.4985
vn -0.0000 0.0703 0.9975
vn -0.8660 0.0071 -0.5000
vn 0.8660 -0.0071 0.5000
vn -0.8634 0.0773 0.4985
vn -0.0000 -0.0703 -0.9975
vn -0.0000 0.0703 -0.9975
vn -0.8634 -0.0773 0.4985
vn 0.8660 0.0071 0.5000
vn -0.8660 -0.0071 -0.5000
vn -0.0000 -0.0703 0.9975
vn 0.8634 0.0773 -0.4985
vn -0.1868 0.8075 0.5595
vn -0.3260 -0.4183 -0.8478
vn 0.3260 -0.4183 -0.8478
vn 0.7843 -0.5659 0.2542
vn -0.3244 -0.6267 0.7085
vn -0.7859 -0.4795 -0.3905
vn 0.7859 -0.4795 -0.3904
vn 0.3244 -0.6267 0.7085
vn -0.7843 -0.5659 0.2542
vn -0.0000 0.9917 0.1286
vn -0.4510 0.8895 -0.0730
vn 0.4510 0.8895 -0.0730
vn 0.1868 0.8075 0.5595
vn -0.4510 0.8415 0.2975
vn -0.1868 0.9235 -0.3350
vn 0.1868 0.9235 -0.3350
vn 0.4510 0.8415 0.2975
vn 0.4640 0.8521 0.2422
vn -0.4640 0.8857 -0.0168
vn 0.4640 0.8857 -0.0168
vn -0.4640 0.8521 0.2422
vn 0.4205 0.8992 -0.1211
vn -0.4205 0.8385 0.3465
vn 0.2358 0.9229 -0.3043
vn -0.2358 0.8148 0.5297
vn 0.1306 0.9285 -0.3475
vn -0.1306 0.8092 0.5729
vn -0.1306 0.9285 -0.3475
vn 0.2358 0.8148 0.5297
vn -0.2358 0.9229 -0.3043
vn 0.4205 0.8385 0.3465
vn -0.4205 0.8992 -0.1211
vn -0.5174 -0.8283 -0.2151
vn 0.5174 -0.8558 -0.0033
vn -0.5174 -0.8558 -0.0033
vn 0.5174 -0.8283 -0.2151
vn -0.4413 -0.8794 0.1787
vn 0.4413 -0.8047 -0.3971
vn -0.2903 -0.8988 0.3284
vn 0.2903 -0.7853 -0.5469
vn -0.1068 -0.9086 0.4038
vn 0.1068 -0.7755 -0.6223
vn 0.1068 -0.9086 0.4038
vn -0.2903 -0.7853 -0.5469
vn 0.1306 0.8092 0.5729
vn 0.2903 -0.8988 0.3284
vn -0.4413 -0.8047 -0.3971
vn 0.4413 -0.8794 0.1787
vn -0.0000 -0.9917 -0.1286
vn -0.9598 0.0361 -0.2785
vn 0.9598 -0.0361 0.2785
vn -0.4801 -0.1128 0.8699
vn 0.4801 0.1128 -0.8699
vn -0.8772 -0.0618 0.4761
vn 0.8772 0.0618 -0.4761
vn 0.2808 -0.1235 0.9518
vn 0.2808 0.1235 -0.9518
vn -0.2808 0.1235 -0.9518
vn -0.2808 -0.1235 0.9518
vn -0.8772 0.0618 -0.4761
vn 0.8772 -0.0618 0.4761
vn -0.4801 0.1128 -0.8699
vn 0.4801 -0.1128 0.8699
vn -0.9598 -0.0361 0.2785
vn 0.9598 0.0361 -0.2785
vn -0.1068 -0.7755 -0.6223
vn -0.7859 -0.4795 -0.3904
vn 0.7859 -0.4795 -0.3905
vn 0.4184 0.9082 -0.0056
vn -0.4184 0.8767 0.2372
vn 0.4184 0.8767 0.2372
vn -0.4184 0.9082 -0.0056
vn 0.2093 0.9417 -0.2635
vn -0.2093 0.8433 0.4950
vn 0.3824 0.9194 -0.0918
vn -0.3824 0.8656 0.3233
vn -0.1224 0.9463 -0.2992
vn 0.1224 0.8387 0.5307
vn 0.1224 0.9463 -0.2992
vn 0.3824 0.8656 0.3233
vn -0.3824 0.9194 -0.0918
vn 0.2093 0.8433 0.4950
vn -0.2093 0.9417 -0.2635
vn -0.4737 -0.8803 0.0256
vn 0.4737 -0.8447 -0.2493
vn -0.4737 -0.8447 -0.2493
vn 0.4737 -0.8803 0.0256
vn -0.2369 -0.9182 0.3175
vn 0.2369 -0.8068 -0.5412
vn -0.4329 -0.8930 0.1231
vn 0.4329 -0.8320 -0.3468
vn 0.1386 -0.9234 0.3578
vn -0.1386 -0.8016 -0.5816
vn -0.1386 -0.9234 0.3578
vn -0.4329 -0.8320 -0.3468
vn -0.1224 0.8387 0.5307
vn 0.4329 -0.8930 0.1231
vn -0.2369 -0.8068 -0.5412
vn 0.2369 -0.9182 0.3175
vn 0.1386 -0.8016 -0.5816
vt 0.215069 0.083327
vt 0.215136 0.061489
vt 0.214835 0.083327
vt 0.215304 0.083327
vt 0.215605 0.061489
vt 0.215370 0.061489
vt 0.215136 0.105165
vt 0.215370 0.105165
vt 0.215605 0.105165
vt 0.846670 0.498925
vt 0.845687 0.501655
vt 0.846182 0.499248
vt 0.843974 0.498504
vt 0.843343 0.501131
vt 0.843571 0.498771
vt 0.843830 0.500808
vt 0.845923 0.497212
vt 0.845006 0.500028
vt 0.846327 0.496944
vt 0.844949 0.497858
vt 0.844429 0.502489
vt 0.844169 0.502662
vt 0.845948 0.501482
vt 0.845058 0.502072
vt 0.720090 0.521494
vt 0.719458 0.516324
vt 0.718570 0.525003
vt 0.720443 0.515671
vt 0.721735 0.522904
vt 0.722464 0.519920
vt 0.717716 0.523068
vt 0.721139 0.515209
vt 0.723973 0.521420
vt 0.718762 0.516785
vt 0.716332 0.526487
vt 0.723448 0.519268
vt 0.716733 0.523720
vt 0.719420 0.514813
vt 0.720076 0.520926
vt 0.718555 0.524435
vt 0.720405 0.514160
vt 0.721721 0.522336
vt 0.722450 0.519352
vt 0.717701 0.522500
vt 0.721101 0.513699
vt 0.723959 0.520852
vt 0.718724 0.515275
vt 0.716317 0.525919
vt 0.723433 0.518700
vt 0.716718 0.523152
vt 0.720651 0.513997
vt 0.719174 0.514977
vt 0.719951 0.515997
vt 0.720689 0.515507
vt 0.719212 0.516487
vt 0.720995 0.515304
vt 0.718906 0.516690
vt 0.719912 0.514487
vt 0.720957 0.513794
vt 0.718868 0.515180
s 0
usemtl Texture_Map
f 13/1/1 7/2/1 14/3/1
f 15/4/2 11/5/2 16/4/2
f 8/2/3 18/1/3 17/3/3
f 16/4/4 12/6/4 13/1/4
f 9/6/5 15/4/5 18/1/5
f 7/2/6 17/3/6 14/3/6
f 1/7/7 17/3/7 2/7/7
f 3/8/8 15/4/8 4/9/8
f 16/4/9 6/8/9 5/9/9
f 2/7/10 18/1/10 3/8/10
f 15/4/11 5/9/11 4/9/11
f 13/1/12 1/7/12 6/8/12
f 31/10/13 38/11/13 30/12/13
f 20/13/14 28/14/14 19/15/14
f 26/13/15 28/14/15 34/16/15
f 24/17/16 33/18/16 32/12/16
f 23/19/17 30/12/17 22/17/17
f 21/20/18 27/16/18 20/13/18
f 25/20/19 34/16/19 33/18/19
f 23/19/20 32/12/20 31/10/20
f 22/17/21 29/18/21 21/20/21
f 42/21/22 36/22/22 39/23/22
f 29/18/23 35/21/23 27/16/23
f 33/18/24 42/21/24 41/24/24
f 32/12/25 39/23/25 31/10/25
f 29/18/26 38/11/26 37/24/26
f 28/14/27 35/21/27 36/22/27
f 28/14/28 42/21/28 34/16/28
f 33/18/29 40/11/29 32/12/29
f 47/25/30 62/26/30 46/27/30
f 55/25/31 70/28/31 54/29/31
f 64/28/32 47/25/32 48/29/32
f 72/26/33 55/25/33 56/27/33
f 49/30/34 64/28/34 48/29/34
f 57/31/35 72/26/35 56/27/35
f 66/32/36 49/30/36 50/33/36
f 74/34/37 57/31/37 58/35/37
f 51/36/38 66/32/38 50/33/38
f 43/37/39 74/34/39 58/35/39
f 68/32/40 51/36/40 52/33/40
f 45/31/41 60/34/41 44/35/41
f 53/30/42 68/32/42 52/33/42
f 62/26/43 45/31/43 46/27/43
f 70/28/44 53/30/44 54/29/44
f 94/38/45 79/39/45 78/40/45
f 102/41/46 87/39/46 86/42/46
f 79/39/47 96/41/47 80/42/47
f 87/39/48 104/38/48 88/40/48
f 96/41/49 81/43/49 80/42/49
f 104/38/50 89/44/50 88/40/50
f 81/43/51 98/45/51 82/46/51
f 89/44/52 106/47/52 90/48/52
f 98/45/53 83/49/53 82/46/53
f 106/47/54 76/50/54 90/48/54
f 83/49/55 100/45/55 84/46/55
f 91/47/56 77/44/56 75/48/56
f 60/34/57 43/37/57 44/35/57
f 100/45/58 85/43/58 84/46/58
f 77/44/59 94/38/59 78/40/59
f 85/43/60 102/41/60 86/42/60
f 101/51/61 97/51/61 93/52/61
f 47/25/62 80/42/62 48/29/62
f 55/25/63 88/40/63 56/27/63
f 80/42/64 49/30/64 48/29/64
f 88/40/65 57/31/65 56/27/65
f 49/30/66 82/46/66 50/33/66
f 57/31/67 90/48/67 58/35/67
f 82/46/68 51/36/68 50/33/68
f 43/37/69 75/48/69 44/35/69
f 90/48/70 43/37/70 58/35/70
f 51/36/71 84/46/71 52/33/71
f 75/48/72 45/31/72 44/35/72
f 84/46/73 53/30/73 52/33/73
f 45/31/74 78/40/74 46/27/74
f 53/30/75 86/42/75 54/29/75
f 78/40/76 47/25/76 46/27/76
f 86/42/77 55/25/77 54/29/77
f 76/50/78 91/47/78 75/48/78
f 13/1/1 12/6/1 7/2/1
f 15/4/2 10/5/2 11/5/2
f 8/2/3 9/6/3 18/1/3
f 16/4/4 11/5/4 12/6/4
f 9/6/5 10/5/5 15/4/5
f 7/2/6 8/2/6 17/3/6
f 1/7/7 14/3/7 17/3/7
f 3/8/8 18/1/8 15/4/8
f 16/4/9 13/1/9 6/8/9
f 2/7/10 17/3/10 18/1/10
f 15/4/11 16/4/11 5/9/11
f 13/1/12 14/3/12 1/7/12
f 31/10/13 39/23/13 38/11/13
f 20/13/14 27/16/14 28/14/14
f 26/13/15 19/15/15 28/14/15
f 24/17/16 25/20/16 33/18/16
f 23/19/17 31/10/17 30/12/17
f 21/20/79 29/18/79 27/16/79
f 25/20/80 26/13/80 34/16/80
f 23/19/20 24/17/20 32/12/20
f 22/17/21 30/12/21 29/18/21
f 36/22/22 35/21/22 37/24/22
f 37/24/22 38/11/22 36/22/22
f 38/11/22 39/23/22 36/22/22
f 39/23/22 40/11/22 41/24/22
f 41/24/22 42/21/22 39/23/22
f 29/18/23 37/24/23 35/21/23
f 33/18/24 34/16/24 42/21/24
f 32/12/25 40/11/25 39/23/25
f 29/18/26 30/12/26 38/11/26
f 28/14/27 27/16/27 35/21/27
f 28/14/28 36/22/28 42/21/28
f 33/18/29 41/24/29 40/11/29
f 47/25/81 63/53/81 62/26/81
f 55/25/82 71/53/82 70/28/82
f 64/28/83 63/53/83 47/25/83
f 72/26/84 71/53/84 55/25/84
f 49/30/85 65/54/85 64/28/85
f 57/31/86 73/55/86 72/26/86
f 66/32/87 65/54/87 49/30/87
f 74/34/88 73/55/88 57/31/88
f 51/36/89 67/56/89 66/32/89
f 43/37/90 59/57/90 74/34/90
f 68/32/91 67/56/91 51/36/91
f 45/31/92 61/55/92 60/34/92
f 53/30/93 69/54/93 68/32/93
f 62/26/94 61/55/94 45/31/94
f 70/28/95 69/54/95 53/30/95
f 94/38/96 95/58/96 79/39/96
f 102/41/97 103/58/97 87/39/97
f 79/39/98 95/58/98 96/41/98
f 87/39/99 103/58/99 104/38/99
f 96/41/100 97/51/100 81/43/100
f 104/38/101 105/52/101 89/44/101
f 81/43/102 97/51/102 98/45/102
f 89/44/103 105/52/103 106/47/103
f 98/45/104 99/59/104 83/49/104
f 106/47/105 92/60/105 76/50/105
f 83/49/106 99/59/106 100/45/106
f 91/47/107 93/52/107 77/44/107
f 60/34/108 59/57/108 43/37/108
f 100/45/109 101/51/109 85/43/109
f 77/44/110 93/52/110 94/38/110
f 85/43/111 101/51/111 102/41/111
f 93/52/61 91/47/61 92/60/61
f 92/60/61 106/47/61 105/52/61
f 105/52/61 104/38/61 103/58/61
f 103/58/61 102/41/61 101/51/61
f 101/51/61 100/45/61 99/59/61
f 99/59/61 98/45/61 97/51/61
f 97/51/61 96/41/61 95/58/61
f 95/58/61 94/38/61 93/52/61
f 93/52/61 92/60/61 101/51/61
f 92/60/61 105/52/61 101/51/61
f 105/52/61 103/58/61 101/51/61
f 101/51/61 99/59/61 97/51/61
f 97/51/61 95/58/61 93/52/61
f 47/25/62 79/39/62 80/42/62
f 55/25/63 87/39/63 88/40/63
f 80/42/64 81/43/64 49/30/64
f 88/40/65 89/44/65 57/31/65
f 49/30/66 81/43/66 82/46/66
f 57/31/67 89/44/67 90/48/67
f 82/46/68 83/49/68 51/36/68
f 43/37/69 76/50/69 75/48/69
f 90/48/70 76/50/70 43/37/70
f 51/36/71 83/49/71 84/46/71
f 75/48/72 77/44/72 45/31/72
f 84/46/73 85/43/73 53/30/73
f 45/31/74 77/44/74 78/40/74
f 53/30/75 85/43/75 86/42/75
f 78/40/76 79/39/76 47/25/76
f 86/42/77 87/39/77 55/25/77
f 76/50/112 92/60/112 91/47/112
