# Blender 4.4.0
# www.blender.org
mtllib Env_Rock_01.mtl
o Env_Rock_01
v 0.195124 0.227281 0.548771
v 0.321737 0.162004 -0.423583
v -0.029525 0.691387 0.615650
v -0.141646 -0.053275 -0.097980
v 0.125501 -0.053491 -0.093973
v 0.206812 -0.049024 -0.000927
v -0.116097 -0.049407 0.115338
v 0.247071 1.074544 0.343549
v 0.344743 1.066962 0.031464
v 0.117733 1.046494 -0.056904
v 0.005572 1.049911 0.116445
v -0.610685 0.418931 -0.159154
v -0.560725 0.721526 0.115580
v -0.533848 0.763152 0.023102
v -0.560683 0.675164 -0.133299
v -0.251568 0.152830 0.455805
v -0.376717 0.333168 0.458363
v -0.495446 0.489872 0.272050
v -0.613037 0.513625 0.043858
v -0.511218 0.158845 -0.061399
v -0.333568 0.058774 0.272896
v -0.157248 0.526791 -0.616379
v -0.373100 0.475484 -0.538959
v -0.408576 0.646898 -0.366300
v 0.442910 0.208042 0.334713
v 0.539800 0.106121 -0.017824
v 0.612826 0.331929 -0.137777
v 0.142283 -0.042395 0.097302
v -0.144510 0.151138 -0.395063
v -0.423086 0.082697 -0.274833
v -0.522997 0.151660 -0.188342
v -0.567070 0.250443 -0.273238
v -0.460533 0.305199 -0.449502
v 0.589800 0.901616 0.197299
v 0.494267 0.937002 0.019842
v 0.468791 1.077304 0.236064
v 0.377194 1.077821 0.330336
v 0.200934 0.855731 0.489413
v 0.395351 0.460843 -0.401006
v 0.201586 0.651550 -0.479780
v 0.282409 0.901361 -0.211048
v 0.483677 0.870701 -0.116238
v 0.550785 0.501257 -0.238259
v 0.575024 0.639950 0.227217
v 0.640068 0.776962 0.114938
v 0.536593 0.765132 0.351737
v 0.463944 0.405962 0.418965
v 0.521531 0.310295 0.322410
v 0.620875 0.307632 0.111679
vn 0.1555 0.7967 -0.5840
vn -0.5081 -0.8560 0.0956
vn 0.3904 -0.8706 -0.2994
vn -0.7506 0.3853 -0.5368
vn -0.9533 0.3020 -0.0063
vn -0.9414 -0.3098 0.1336
vn 0.0064 0.7314 -0.6819
vn 0.0713 0.5428 0.8368
vn -0.5187 0.7113 0.4744
vn -0.0155 -0.8238 -0.5667
vn 0.7329 -0.1280 -0.6682
vn -0.0656 0.9959 -0.0621
vn -0.3836 0.8438 -0.3753
vn -0.0821 -0.8709 0.4846
vn 0.7589 -0.5396 0.3646
vn -0.7112 0.2448 0.6590
vn 0.9098 0.1009 0.4026
vn 0.4095 -0.8402 0.3555
vn -0.8717 -0.3266 0.3654
vn -0.1935 -0.2311 0.9535
vn -0.2299 0.7668 -0.5993
vn 0.5862 0.7094 -0.3913
vn 0.4196 0.1042 0.9017
vn 0.9985 -0.0406 -0.0362
vn 0.0587 -0.8600 0.5068
vn 0.0309 -0.9980 0.0552
vn -0.6354 -0.5401 -0.5518
vn -0.1000 -0.5076 -0.8558
vn -0.1742 -0.6260 -0.7601
vn 0.0075 -0.8390 -0.5441
vn 0.5912 -0.3683 0.7175
vn 0.7873 0.5280 -0.3185
vn 0.4373 0.5938 0.6754
vn 0.7568 0.5854 -0.2907
vn 0.8421 0.3008 -0.4477
vn 0.5892 0.1061 0.8010
vn 0.4136 0.6015 -0.6835
vn 0.3609 -0.0185 -0.9324
vn -0.8421 0.2143 -0.4949
vn 0.9127 -0.1110 0.3933
vn 0.7401 -0.4862 -0.4647
vn 0.8847 -0.0394 0.4644
vn 0.8617 0.0067 0.5073
vn 0.9393 -0.3373 -0.0632
vn -0.0408 -0.5082 -0.8603
vn 0.6303 0.3553 -0.6902
vn 0.3847 0.7133 -0.5859
vn -0.4868 -0.8668 0.1082
vn -0.4909 -0.8681 0.0745
vn -0.4583 -0.8885 -0.0224
vn 0.3915 -0.8594 -0.3288
vn -0.9740 0.2007 -0.1049
vn -0.8845 0.0630 0.4623
vn -0.9465 0.2883 -0.1453
vn -0.9401 -0.3210 0.1146
vn -0.9414 -0.3204 0.1055
vn 0.0053 0.7313 -0.6820
vn -0.4877 0.8404 0.2365
vn -0.4334 0.7461 0.5054
vn -0.0420 -0.8233 -0.5661
vn 0.7322 -0.1299 -0.6686
vn -0.0610 0.9972 -0.0433
vn -0.0285 0.9990 -0.0332
vn -0.4529 0.8361 -0.3095
vn -0.4359 0.8143 -0.3833
vn 0.0339 -0.8533 0.5203
vn -0.6412 0.3141 0.7001
vn 0.3293 -0.8271 0.4555
vn 0.4297 -0.8370 0.3388
vn -0.6811 -0.4805 0.5524
vn -0.8965 -0.3361 0.2886
vn -0.8440 -0.3601 0.3974
vn -0.1796 -0.1385 0.9739
vn -0.3919 0.6114 -0.6875
vn 0.4003 0.0620 0.9143
vn 0.3987 0.0902 0.9126
vn -0.0011 -0.9998 0.0183
vn -0.0127 -0.9982 0.0590
vn -0.7154 -0.6108 -0.3393
vn -0.2409 -0.3515 -0.9046
vn 0.7873 0.5279 -0.3185
vn 0.9295 0.1375 -0.3423
vn 0.6797 0.3228 0.6586
vn 0.3613 -0.0184 -0.9323
vn -0.8467 0.1698 -0.5043
vn -0.8653 0.1075 -0.4896
vn 0.9042 -0.0235 0.4265
vn 0.6298 0.3444 -0.6963
vt 0.452858 0.779521
vt 0.451216 0.756259
vt 0.452260 0.776646
vt 0.452229 0.651956
vt 0.451370 0.650947
vt 0.450784 0.641259
vt 0.452009 0.622129
vt 0.452524 0.644550
vt 0.452639 0.622756
vt 0.448996 0.696435
vt 0.451743 0.724485
vt 0.450165 0.720514
vt 0.452802 0.736844
vt 0.452942 0.701793
vt 0.451568 0.688491
vt 0.449397 0.721167
vt 0.455959 0.749849
vt 0.454971 0.780586
vt 0.456813 0.726763
vt 0.453434 0.777126
vt 0.451982 0.622159
vt 0.449970 0.650873
vt 0.449777 0.652400
vt 0.451712 0.676270
vt 0.449930 0.694378
vt 0.451032 0.700055
vt 0.453426 0.622702
vt 0.455731 0.651111
vt 0.454493 0.637899
vt 0.454911 0.658867
vt 0.453401 0.672857
vt 0.454828 0.673231
vt 0.455749 0.676444
vt 0.453428 0.730997
vt 0.454487 0.698456
vt 0.455027 0.737123
vt 0.453423 0.738784
vt 0.453981 0.756295
vt 0.456361 0.661569
vt 0.448472 0.703642
vt 0.452780 0.761266
vt 0.451858 0.751952
vt 0.455482 0.686669
vt 0.453304 0.623687
vt 0.450795 0.664823
vt 0.449602 0.672515
vt 0.454243 0.780974
vt 0.454882 0.781047
vt 0.454184 0.719538
s 0
usemtl Texture_Map
f 9/1/1 41/2/1 10/3/1
f 20/4/2 31/5/2 30/6/2
f 5/7/3 26/8/3 6/9/3
f 23/10/4 15/11/4 24/12/4
f 14/13/5 15/11/5 19/14/5
f 20/4/6 19/14/6 12/15/6
f 40/16/7 10/3/7 41/2/7
f 38/17/8 8/18/8 3/19/8
f 3/19/9 8/18/9 11/20/9
f 4/21/10 29/22/10 2/23/10
f 27/24/11 39/25/11 43/26/11
f 9/1/12 10/3/12 11/20/12
f 24/12/13 14/13/13 11/20/13
f 7/27/14 16/28/14 21/29/14
f 25/30/15 49/31/15 48/32/15
f 17/33/16 13/34/16 18/35/16
f 46/36/17 45/37/17 34/38/17
f 6/9/18 26/8/18 25/30/18
f 21/29/19 18/35/19 20/4/19
f 17/33/20 1/39/20 3/19/20
f 22/40/21 24/12/21 10/3/21
f 9/1/22 35/41/22 42/42/22
f 47/43/23 38/17/23 3/19/23
f 27/24/24 45/37/24 49/31/24
f 1/39/25 7/27/25 28/44/25
f 5/7/26 28/44/26 7/27/26
f 30/6/27 32/45/27 33/46/27
f 33/46/28 22/40/28 29/22/28
f 29/22/29 30/6/29 33/46/29
f 5/7/30 4/21/30 2/23/30
f 25/30/31 47/43/31 1/39/31
f 35/41/32 45/37/32 42/42/32
f 46/36/33 34/38/33 38/17/33
f 34/38/34 35/41/34 36/47/34
f 45/37/35 43/26/35 42/42/35
f 34/38/36 37/48/36 38/17/36
f 40/16/37 41/2/37 42/42/37
f 2/23/38 40/16/38 39/25/38
f 12/15/39 15/11/39 23/10/39
f 46/36/40 47/43/40 44/49/40
f 26/8/41 2/23/41 27/24/41
f 49/31/42 45/37/42 44/49/42
f 48/32/43 44/49/43 47/43/43
f 45/37/40 46/36/40 44/49/40
f 49/31/44 26/8/44 27/24/44
f 2/23/45 29/22/45 22/40/45
f 40/16/46 43/26/46 39/25/46
f 9/1/47 42/42/47 41/2/47
f 30/6/48 4/21/48 20/4/48
f 4/21/49 7/27/49 20/4/49
f 7/27/50 21/29/50 20/4/50
f 5/7/51 2/23/51 26/8/51
f 15/11/52 12/15/52 19/14/52
f 19/14/53 18/35/53 13/34/53
f 13/34/54 14/13/54 19/14/54
f 12/15/55 32/45/55 31/5/55
f 31/5/56 20/4/56 12/15/56
f 40/16/57 22/40/57 10/3/57
f 38/17/8 37/48/8 8/18/8
f 11/20/58 14/13/58 13/34/58
f 13/34/59 3/19/59 11/20/59
f 4/21/60 30/6/60 29/22/60
f 27/24/61 2/23/61 39/25/61
f 11/20/62 8/18/62 9/1/62
f 8/18/63 37/48/63 9/1/63
f 37/48/63 36/47/63 9/1/63
f 11/20/64 10/3/64 24/12/64
f 24/12/65 15/11/65 14/13/65
f 7/27/66 1/39/66 16/28/66
f 25/30/15 26/8/15 49/31/15
f 17/33/67 3/19/67 13/34/67
f 25/30/68 1/39/68 28/44/68
f 28/44/69 6/9/69 25/30/69
f 21/29/70 16/28/70 17/33/70
f 17/33/71 18/35/71 21/29/71
f 18/35/72 19/14/72 20/4/72
f 17/33/73 16/28/73 1/39/73
f 22/40/74 23/10/74 24/12/74
f 9/1/22 36/47/22 35/41/22
f 3/19/75 1/39/75 47/43/75
f 47/43/76 46/36/76 38/17/76
f 7/27/77 4/21/77 5/7/77
f 5/7/78 6/9/78 28/44/78
f 30/6/79 31/5/79 32/45/79
f 33/46/80 23/10/80 22/40/80
f 25/30/31 48/32/31 47/43/31
f 35/41/81 34/38/81 45/37/81
f 45/37/82 27/24/82 43/26/82
f 34/38/83 36/47/83 37/48/83
f 2/23/84 22/40/84 40/16/84
f 23/10/85 33/46/85 12/15/85
f 33/46/86 32/45/86 12/15/86
f 48/32/87 49/31/87 44/49/87
f 40/16/88 42/42/88 43/26/88
