# Blender 4.4.0
# www.blender.org
mtllib Env_Daffodil_Middle_Detail_01.mtl
o Env_Daffodil_Middle_Detail_01
v 0.027646 0.337312 0.062228
v 0.007631 0.360928 0.055238
v 0.011495 0.392758 0.062351
v 0.054844 0.406766 0.067259
v 0.070853 0.347017 0.067259
v 0.051264 0.336431 0.061803
v 0.044953 0.372096 0.054523
v -0.003326 0.377288 0.061177
v 0.096576 0.385606 0.081601
v 0.043481 0.371135 0.057547
v 0.032098 0.405975 0.062133
v 0.023371 0.366313 0.058507
v -0.035070 0.347735 0.062444
v 0.021126 0.329893 0.057343
v 0.009481 0.288266 0.067259
v -0.049513 0.306866 0.067259
v -0.047916 0.329075 0.061803
v -0.014218 0.315940 0.054204
v 0.003588 0.355884 0.053192
v -0.030788 0.264437 0.081601
v -0.014465 0.316993 0.057547
v 0.021035 0.307874 0.062133
v -0.007726 0.336544 0.058507
v 0.009013 0.392050 0.061531
v -0.004584 0.362011 0.053885
v -0.036919 0.357787 0.062149
v -0.066088 0.390194 0.067259
v -0.018703 0.429955 0.067259
v 0.007789 0.396555 0.060475
v -0.000779 0.416601 0.061618
v -0.030529 0.395772 0.054448
v -0.014788 0.349932 0.057680
v -0.064548 0.436959 0.081601
v -0.029024 0.394675 0.057413
v -0.055833 0.369989 0.062217
v -0.016125 0.378766 0.057638
v 0.002108 -0.000014 -0.007961
v -0.003684 0.000000 -0.006556
v 0.006415 0.000001 0.007591
v 0.004364 0.139368 0.004429
v -0.004803 0.140042 0.020221
v 0.006316 0.226794 -0.004362
v -0.002732 0.225071 0.011728
v 0.006349 0.229578 0.008675
v 0.008947 0.227339 0.002349
v 0.006966 0.315662 -0.021702
v -0.003055 0.311336 -0.007199
v 0.006917 0.311406 -0.009517
v 0.009546 0.313676 -0.015597
v 0.005437 0.364008 0.030197
v 0.006111 0.352115 0.031721
v 0.008129 0.357740 0.030983
v 0.008455 0.372706 0.097347
v -0.008893 0.372706 0.097347
v -0.017567 0.357687 0.097203
v -0.008893 0.342669 0.097059
v 0.008455 0.342669 0.097059
v 0.017128 0.357687 0.097203
v 0.014053 0.382244 0.107268
v -0.028890 0.357713 0.107244
v -0.011308 0.337512 0.104393
v 0.010400 0.338864 0.103450
v 0.023830 0.357581 0.101666
v 0.008752 0.000007 -0.001937
v 0.002328 0.082480 -0.000132
v 0.007582 0.134062 0.007942
v 0.008986 0.133473 0.012716
v -0.004803 0.075686 0.000437
v -0.002787 0.139331 0.003206
v -0.008666 0.000007 -0.001570
v -0.009425 0.133473 0.012716
v -0.008020 0.134062 0.007942
v -0.006854 0.000001 0.007591
v -0.002767 0.081216 0.017858
v -0.008017 0.133094 0.017512
v -0.000219 0.000000 0.010019
v 0.004364 0.075156 0.016258
v 0.002298 0.140061 0.021222
v 0.007578 0.133094 0.017512
v -0.002688 0.223972 -0.006151
v -0.009415 0.232740 -0.000782
v -0.008126 0.227869 0.006820
v -0.002979 0.316754 -0.023928
v -0.009991 0.313894 -0.017587
v -0.008642 0.312243 -0.011377
v 0.002344 0.350680 -0.002391
v 0.008513 0.345072 0.000042
v -0.004604 0.349661 -0.002125
v -0.008940 0.345071 0.000031
v -0.006736 0.339669 0.004794
v 0.002319 0.338298 0.006423
v -0.002566 0.365695 0.030034
v -0.008377 0.360175 0.030466
v -0.006532 0.352098 0.031641
v -0.000219 0.349613 0.031967
v 0.006311 0.365040 0.049451
v 0.008812 0.356166 0.049795
v -0.006750 0.365040 0.049451
v -0.009351 0.358501 0.050151
v -0.006719 0.351849 0.049767
v 0.002269 0.349718 0.048968
v 0.014743 0.366323 0.097286
v -0.000219 0.374959 0.097369
v -0.015182 0.366323 0.097286
v -0.015182 0.349052 0.097120
v -0.000219 0.340416 0.097037
v 0.014743 0.349052 0.097120
v -0.000242 0.379461 0.102156
v -0.020341 0.369260 0.102040
v -0.000416 0.329365 0.107248
v 0.007344 0.341161 0.004000
v -0.000219 0.367534 0.050176
v -0.014476 0.382213 0.107257
v 0.017253 0.369879 0.100548
v -0.025030 0.343779 0.107311
v 0.024481 0.343318 0.107268
v 0.012174 0.350182 0.097613
v 0.002204 0.343617 0.096601
v -0.011232 0.347728 0.097241
v -0.013297 0.360741 0.095820
v 0.011619 0.360628 0.094478
v -0.007673 0.370050 0.097613
v 0.003973 0.370710 0.096750
v 0.004381 0.356747 0.060443
v 0.000486 0.352267 0.061044
v -0.004085 0.353608 0.061167
v -0.005437 0.358368 0.060883
v -0.002384 0.361976 0.060750
v 0.002213 0.362064 0.061634
v 0.013900 0.000000 0.003163
v 0.000439 0.000000 -0.010788
v 0.000687 0.369456 -0.057698
v -0.021477 0.158458 0.002057
v 0.023234 0.158761 0.002186
v 0.000910 0.151844 -0.020635
v -0.013021 0.000001 0.002505
v 0.000439 0.000000 -0.011661
v 0.000910 0.151321 -0.022984
v 0.016438 0.352664 0.052917
v 0.001273 0.361420 0.046190
v -0.014434 0.391015 0.054193
v 0.006397 0.432151 0.055421
v 0.065244 0.418538 0.057562
v 0.053274 0.379409 0.053410
v 0.022728 0.398580 0.044849
v 0.034286 0.418600 0.049338
v 0.044618 0.441663 0.057560
v -0.013891 0.370175 0.052917
v 0.023627 0.400337 0.048074
v -0.009182 0.415386 0.053706
v 0.012747 0.381292 0.050247
v 0.037794 0.364955 0.054108
v -0.014320 0.350522 0.052917
v 0.001212 0.358607 0.046190
v 0.034612 0.355953 0.054193
v 0.058113 0.316282 0.055421
v 0.015014 0.273966 0.057562
v -0.011556 0.305085 0.053410
v 0.021025 0.320546 0.044849
v 0.031699 0.300042 0.049338
v 0.045600 0.278936 0.057560
v 0.016744 0.366693 0.052917
v 0.022024 0.318844 0.048074
v 0.052344 0.338429 0.053706
v 0.011807 0.338253 0.050247
v -0.015429 0.325906 0.054108
v 0.000399 0.377614 0.052917
v -0.001127 0.360170 0.046190
v -0.021312 0.333427 0.054193
v -0.067397 0.334922 0.055421
v -0.079929 0.394008 0.057562
v -0.039407 0.399696 0.053410
v -0.043873 0.363910 0.044849
v -0.066902 0.365925 0.049338
v -0.092171 0.365541 0.057560
v -0.002653 0.342726 0.052917
v -0.045845 0.363982 0.048074
v -0.045619 0.327888 0.053706
v -0.023986 0.362170 0.050247
v -0.019766 0.391775 0.054108
vn 0.4595 0.0237 -0.8879
vn 0.4109 0.2088 -0.8875
vn -0.1216 0.1734 -0.9773
vn -0.0252 -0.2042 -0.9786
vn -0.2319 0.0901 0.9686
vn -0.3800 -0.1285 0.9160
vn 0.0739 -0.1109 0.9911
vn -0.2936 0.0512 0.9546
vn 0.0226 0.1267 0.9917
vn 0.0489 -0.1221 0.9913
vn -0.2491 0.0866 -0.9646
vn -0.2258 -0.3999 -0.8883
vn -0.0454 -0.4577 -0.8879
vn 0.1685 -0.2102 -0.9630
vn -0.1632 0.1458 -0.9758
vn 0.2004 0.1489 0.9683
vn 0.0958 0.3895 0.9160
vn 0.0268 -0.0583 0.9979
vn 0.2009 0.2201 0.9546
vn 0.0911 -0.0968 0.9911
vn 0.0889 0.2153 0.9725
vn -0.2155 0.4072 -0.8876
vn -0.3641 0.2840 -0.8870
vn -0.1184 -0.1781 -0.9769
vn 0.1518 0.1209 -0.9810
vn -0.0260 -0.2355 0.9715
vn 0.2783 -0.2900 0.9157
vn 0.1102 0.1033 0.9885
vn 0.0836 -0.2905 0.9532
vn -0.1108 -0.0477 0.9927
vn 0.2016 0.0107 0.9794
vn 0.8326 0.3305 0.4444
vn 0.6700 0.0684 -0.7392
vn 0.7560 0.0254 -0.6541
vn -0.2346 0.0925 -0.9677
vn -0.1239 0.0470 -0.9912
vn -0.6990 0.0532 -0.7132
vn -0.7062 0.0548 -0.7058
vn -0.9807 -0.0263 0.1940
vn 0.3421 -0.0984 0.9345
vn 0.1612 -0.0702 0.9844
vn -0.3420 -0.1009 0.9343
vn 0.9708 -0.0278 0.2381
vn 0.9578 -0.0312 -0.2857
vn 0.1683 -0.1023 -0.9804
vn -0.9573 -0.0389 -0.2865
vn -0.6250 -0.0775 -0.7768
vn -0.7425 0.0844 0.6644
vn -0.9584 0.0309 0.2839
vn -0.1392 0.1018 0.9850
vn 0.9580 0.0382 0.2844
vn 0.6402 0.0782 0.7643
vn 0.9302 -0.0809 -0.3581
vn 0.2475 -0.1873 -0.9506
vn -0.7255 -0.1445 -0.6729
vn -0.6150 0.1668 0.7707
vn -0.9814 0.0347 0.1887
vn 0.2163 0.2100 0.9535
vn 0.9314 0.0728 0.3567
vn -0.1470 0.8889 -0.4339
vn 0.9247 0.1937 -0.3278
vn 0.1977 0.9006 -0.3871
vn 0.2413 0.4929 -0.8360
vn -0.7600 0.5876 -0.2776
vn -0.7018 0.3683 -0.6098
vn -0.5931 -0.3780 0.7109
vn 0.9776 -0.1773 0.1136
vn -0.9532 -0.2715 0.1329
vn -0.9787 -0.0496 0.1994
vn 0.2026 -0.4735 0.8572
vn -0.2048 -0.9023 0.3793
vn 0.9262 -0.1669 0.3382
vn 0.9198 0.3873 -0.0625
vn 0.9158 0.3755 -0.1424
vn 0.2071 0.9718 -0.1129
vn -0.6882 0.7148 -0.1242
vn -0.9705 -0.2315 -0.0677
vn -0.3655 -0.9307 -0.0166
vn 0.3656 -0.9296 -0.0478
vn 0.9367 -0.3444 -0.0628
vn 0.9495 0.2608 -0.1744
vn -0.3387 0.9294 -0.1462
vn 0.3387 0.9294 -0.1462
vn -0.9216 0.3482 -0.1718
vn -0.9201 -0.3544 -0.1668
vn -0.2427 -0.9502 -0.1956
vn 0.7011 -0.6870 -0.1911
vn 0.4273 0.4287 -0.7960
vn 0.6043 -0.5902 -0.5353
vn 0.2118 -0.8101 -0.5468
vn 0.5489 0.1595 -0.8205
vn -0.5791 -0.5649 -0.5878
vn -0.2012 -0.7689 -0.6069
vn -0.6556 0.1521 -0.7397
vn -0.6610 -0.1756 -0.7296
vn -0.1279 0.6787 -0.7232
vn -0.4515 0.4522 -0.7692
vn 0.1844 0.7165 -0.6728
vn 0.5470 -0.1432 -0.8248
vn -0.2748 -0.4049 0.8721
vn 0.2094 0.5597 0.8018
vn -0.2714 0.6076 0.7465
vn -0.3896 0.4697 0.7922
vn 0.3992 0.5238 0.7525
vn -0.1732 -0.5767 0.7984
vn 0.0920 -0.4909 0.8663
vn 0.3167 -0.4742 0.8215
vn -0.4784 0.3020 0.8245
vn 0.5630 0.1599 0.8108
vn 0.2804 0.9370 0.2083
vn -0.8808 -0.4115 0.2342
vn -0.9783 0.0101 0.2069
vn 0.9630 0.1752 0.2048
vn 0.8116 -0.5354 0.2337
vn -0.7270 0.6583 0.1952
vn 0.0446 -0.0011 0.9990
vn 0.6634 -0.0895 -0.7429
vn 0.7031 0.6323 -0.3253
vn -0.7273 0.1145 0.6767
vn 0.7238 0.1166 0.6801
vn 0.7171 0.0402 0.6958
vn -0.7188 0.0472 0.6936
vn -0.7560 -0.1036 -0.6463
vn -0.7241 -0.0492 -0.6880
vn 0.7393 -0.0525 -0.6713
vn 0.2959 -0.2045 -0.9331
vn -0.0345 0.3493 -0.9364
vn -0.0820 0.2629 -0.9613
vn -0.2503 0.0346 -0.9675
vn 0.2563 0.0683 -0.9642
vn 0.1448 -0.2019 -0.9687
vn -0.3250 0.1540 -0.9331
vn -0.3879 0.0359 0.9210
vn -0.1602 -0.1428 0.9767
vn 0.0013 -0.2244 0.9745
vn 0.1526 0.0256 0.9880
vn -0.2050 -0.0410 0.9779
vn -0.0820 0.1355 0.9874
vn 0.1233 -0.0574 0.9907
vn -0.3315 -0.1397 -0.9331
vn 0.3131 -0.1586 -0.9364
vn 0.2658 -0.0721 -0.9613
vn 0.1637 0.1925 -0.9675
vn -0.0801 -0.2528 -0.9642
vn -0.2480 -0.0137 -0.9687
vn 0.3045 0.1914 -0.9331
vn 0.2387 0.3078 0.9210
vn -0.0344 0.2119 0.9767
vn -0.1899 0.1195 0.9745
vn -0.0604 -0.1424 0.9880
vn 0.0755 0.1949 0.9779
vn 0.1584 -0.0036 0.9874
vn -0.1147 -0.0731 0.9907
vn 0.0603 0.3546 -0.9331
vn -0.3020 -0.1789 -0.9364
vn -0.2036 -0.1854 -0.9613
vn 0.0744 -0.2415 -0.9675
vn -0.1702 0.2034 -0.9642
vn 0.1217 0.2165 -0.9687
vn -0.0022 -0.3597 -0.9331
vn 0.1314 -0.3667 0.9210
vn 0.1972 -0.0848 0.9767
vn 0.2028 0.0960 0.9745
vn -0.0877 0.1275 0.9880
vn 0.1238 -0.1684 0.9779
vn -0.0882 -0.1316 0.9874
vn -0.0001 0.1360 0.9907
vn 0.2011 0.2867 -0.9367
vn -0.0866 0.2273 -0.9700
vn 0.3315 -0.1320 -0.9342
vn 0.0536 -0.2413 -0.9690
vn -0.1688 0.2344 -0.9574
vn -0.3937 -0.0780 0.9159
vn -0.2092 -0.1945 0.9583
vn 0.0779 -0.1051 0.9914
vn 0.0163 0.1296 0.9914
vn -0.0627 -0.3774 0.9239
vn 0.1362 -0.3249 -0.9359
vn -0.2917 -0.2084 -0.9335
vn 0.1187 -0.0780 -0.9899
vn 0.1458 0.3739 0.9159
vn -0.0516 0.2810 0.9583
vn -0.0714 0.2123 0.9746
vn 0.1075 -0.0857 0.9905
vn 0.5591 -0.0423 -0.8280
vn -0.3464 0.0578 -0.9363
vn -0.2252 -0.1570 -0.9616
vn -0.0263 0.3588 -0.9331
vn 0.1513 0.1327 -0.9795
vn -0.2331 -0.1068 -0.9666
vn 0.2368 -0.3248 0.9156
vn 0.2670 -0.1036 0.9581
vn 0.0752 0.1111 0.9910
vn -0.1126 -0.0773 0.9906
vn 0.3311 0.0167 0.9435
vn 0.5983 0.0641 -0.7987
vn 0.9599 0.0289 -0.2789
vn -0.1627 0.0884 -0.9827
vn 0.1678 0.0728 -0.9831
vn -0.9599 0.0245 -0.2794
vn -0.6919 0.0544 -0.7200
vn -0.6587 -0.0617 0.7499
vn -0.5745 -0.0527 0.8168
vn -0.9597 -0.0292 0.2795
vn 0.1441 -0.0906 0.9854
vn -0.1394 -0.0446 0.9892
vn 0.9597 -0.0292 0.2795
vn 0.5313 -0.0478 0.8458
vn 0.7483 -0.0558 0.6611
vn 0.9314 -0.0354 -0.3623
vn 0.2260 -0.1073 -0.9682
vn -0.6831 -0.0795 -0.7260
vn -0.6463 0.0848 0.7584
vn -0.9829 0.0249 0.1827
vn 0.2612 0.1224 0.9575
vn 0.9293 0.0409 0.3672
vn 0.9072 -0.0870 -0.4117
vn 0.1954 -0.1840 -0.9633
vn -0.6294 -0.1481 -0.7628
vn -0.5725 0.1695 0.8022
vn -0.9743 0.0391 0.2220
vn 0.2200 0.2103 0.9526
vn 0.9034 0.0812 0.4210
vn 0.6429 0.4332 -0.6317
vn -0.1117 0.5450 -0.8309
vn 0.3493 -0.8434 0.4083
vn -0.6691 0.6812 -0.2972
vn -0.6977 0.3714 -0.6125
vn 0.9375 -0.3178 0.1418
vn -0.9715 -0.2045 0.1194
vn -0.9481 -0.1315 0.2894
vn -0.3541 -0.8477 0.3951
vn -0.2209 -0.4044 0.8875
vn 0.9740 -0.0746 0.2141
vn 0.9626 0.2708 -0.0123
vn 0.5810 -0.7478 0.3213
vn 0.5609 -0.3490 0.7507
vn 0.3496 0.9346 -0.0660
vn -0.3521 0.9349 -0.0444
vn -0.9301 -0.3671 -0.0146
vn -0.9296 0.3682 -0.0147
vn -0.2272 -0.9731 0.0393
vn 0.6972 -0.7147 0.0560
vn 0.7044 0.6953 -0.1428
vn 0.9486 0.2637 -0.1749
vn -0.2476 0.9549 -0.1639
vn 0.2476 0.9549 -0.1639
vn -0.9509 0.2642 -0.1615
vn -0.7044 0.6953 -0.1428
vn -0.7032 -0.6912 -0.1665
vn -0.9478 -0.2600 -0.1847
vn 0.2480 -0.9534 -0.1717
vn -0.2469 -0.9489 -0.1964
vn 0.9521 -0.2615 -0.1586
vn 0.7002 -0.6880 -0.1909
vn 0.4343 0.5143 -0.7395
vn 0.3806 -0.5996 -0.7040
vn 0.3236 -0.6453 -0.6920
vn 0.6094 0.2577 -0.7498
vn -0.4143 -0.5807 -0.7008
vn -0.2979 -0.6450 -0.7037
vn -0.6110 0.1762 -0.7718
vn -0.6523 -0.1843 -0.7352
vn -0.1842 0.7156 -0.6738
vn -0.4531 0.5019 -0.7367
vn 0.1267 0.6784 -0.7237
vn 0.6176 -0.2630 -0.7412
vn -0.2656 -0.5125 0.8166
vn 0.2090 0.5603 0.8015
vn -0.3666 0.4712 0.8022
vn -0.5344 -0.2114 0.8183
vn 0.1881 -0.5435 0.8181
vn 0.3273 -0.3656 0.8713
vn -0.4489 0.2349 0.8622
vn 0.5996 -0.0853 0.7958
vn 0.5469 0.1762 0.8185
vn 0.2951 0.9316 0.2124
vn 0.0716 -0.9721 0.2232
vn -0.7610 -0.6201 0.1908
vn 0.9324 0.2785 0.2301
vn 0.7500 -0.6268 0.2113
vn -0.5496 0.7954 0.2557
vn -0.0276 -0.9703 0.2403
vn 0.0582 0.0828 0.9949
vn -0.1758 -0.2829 0.9429
vn 0.0483 0.0732 0.9961
vn 0.7020 0.0439 0.7108
vn -0.7211 0.0466 0.6913
vn 0.7590 -0.1016 -0.6431
vn -0.7507 -0.0419 -0.6593
vn 0.7543 -0.0484 -0.6547
vn 0.1647 -0.1926 -0.9674
vn 0.2507 0.2235 -0.9419
vn -0.1445 0.2326 -0.9618
vn 0.2794 0.0164 -0.9600
vn -0.2536 0.0525 -0.9659
vn -0.1010 0.0795 0.9917
vn 0.0857 -0.1799 0.9799
vn 0.1624 -0.0153 0.9866
vn -0.0573 0.1455 0.9877
vn 0.2250 -0.3180 0.9210
vn -0.2509 -0.0355 -0.9674
vn 0.0538 -0.3315 -0.9419
vn 0.2738 -0.0032 -0.9618
vn -0.1363 -0.2444 -0.9600
vn 0.1805 0.1856 -0.9659
vn 0.1213 0.0425 0.9917
vn -0.1978 0.0244 0.9799
vn -0.1001 -0.1287 0.9866
vn 0.1535 -0.0298 0.9877
vn -0.3891 -0.0189 0.9210
vn 0.1049 0.2307 -0.9674
vn -0.3085 0.1327 -0.9419
vn -0.1498 -0.2292 -0.9618
vn -0.1329 0.2463 -0.9600
vn 0.0596 -0.2520 -0.9659
vn -0.0293 -0.1251 0.9917
vn 0.1268 0.1537 0.9799
vn -0.0548 0.1536 0.9866
vn -0.1076 -0.1135 0.9877
vn 0.1931 0.3383 0.9210
vt 0.703644 0.571795
vt 0.703912 0.574398
vt 0.703770 0.566963
vt 0.703770 0.578474
vt 0.703721 0.575775
vt 0.703719 0.578322
vt 0.703720 0.565094
vt 0.703716 0.564924
vt 0.703683 0.570681
vt 0.703651 0.569643
vt 0.703674 0.571610
vt 0.703710 0.572795
vt 0.703641 0.560976
vt 0.703722 0.567101
vt 0.703631 0.568671
vt 0.703912 0.551054
vt 0.703770 0.559228
vt 0.703770 0.555645
vt 0.703672 0.563664
vt 0.703719 0.559422
vt 0.703716 0.563507
vt 0.703683 0.564946
vt 0.703674 0.561179
vt 0.703643 0.576356
vt 0.703912 0.584291
vt 0.703770 0.582941
vt 0.703770 0.575281
vt 0.703719 0.569038
vt 0.703720 0.571389
vt 0.703703 0.576507
vt 0.703714 0.580369
vt 0.703713 0.575639
vt 0.703675 0.573080
vt 0.703638 0.569852
vt 0.703673 0.576145
vt 0.703675 0.567525
vt 0.228826 0.121665
vt 0.228812 0.108979
vt 0.228764 0.108976
vt 0.228862 0.130416
vt 0.228890 0.129600
vt 0.228775 0.108978
vt 0.228831 0.120620
vt 0.228852 0.130410
vt 0.228890 0.129600
vt 0.228815 0.108979
vt 0.228887 0.108978
vt 0.228927 0.129509
vt 0.228955 0.120538
vt 0.228906 0.108978
vt 0.228995 0.130522
vt 0.228968 0.121471
vt 0.228846 0.143948
vt 0.228793 0.143864
vt 0.228821 0.144778
vt 0.228920 0.143599
vt 0.228965 0.129451
vt 0.228987 0.130519
vt 0.228881 0.144029
vt 0.228896 0.144292
vt 0.228704 0.157228
vt 0.228779 0.143430
vt 0.228656 0.157534
vt 0.228688 0.157262
vt 0.228770 0.156868
vt 0.228737 0.157008
vt 0.228752 0.156879
vt 0.229064 0.165230
vt 0.228808 0.162920
vt 0.228810 0.162764
vt 0.228827 0.162058
vt 0.229065 0.164970
vt 0.228638 0.157702
vt 0.229067 0.164381
vt 0.228827 0.162058
vt 0.228865 0.161226
vt 0.229077 0.163141
vt 0.228859 0.161456
vt 0.229077 0.163138
vt 0.228878 0.161016
vt 0.229079 0.162756
vt 0.229217 0.165129
vt 0.229072 0.164006
vt 0.229223 0.165513
vt 0.229223 0.164123
vt 0.229220 0.163100
vt 0.229213 0.162772
vt 0.229220 0.163764
vt 0.582224 0.070146
vt 0.581755 0.059914
vt 0.581752 0.068854
vt 0.582225 0.078846
vt 0.581759 0.071367
vt 0.581759 0.062266
vt 0.582224 0.070146
vt 0.581755 0.055565
vt 0.582223 0.061447
vt 0.581747 0.053418
vt 0.582222 0.046316
vt 0.582223 0.052747
vt 0.582225 0.076577
vt 0.582256 0.073728
vt 0.582285 0.042483
vt 0.582222 0.044047
vt 0.582268 0.061339
vt 0.582294 0.041121
vt 0.582271 0.073105
vt 0.582323 0.061472
vt 0.582323 0.047435
vt 0.582272 0.083381
vt 0.582323 0.086154
vt 0.582219 0.074566
vt 0.582196 0.064410
vt 0.582217 0.047272
vt 0.582224 0.051414
vt 0.582323 0.032915
vt 0.582227 0.053885
vt 0.582323 0.086186
vt 0.582227 0.073901
vt 0.582323 0.046970
vt 0.582210 0.064523
vt 0.581866 0.055986
vt 0.581867 0.057336
vt 0.581872 0.065856
vt 0.581860 0.060499
vt 0.581865 0.062132
vt 0.581863 0.065768
vt 0.580085 0.045886
vt 0.580081 0.045574
vt 0.580084 0.046581
vt 0.204855 0.059095
vt 0.205080 0.060428
vt 0.204489 0.101019
vt 0.205079 0.060369
vt 0.205083 0.029842
vt 0.205090 0.029842
vt 0.204952 0.029842
vt 0.204831 0.058995
vt 0.204943 0.029842
vt 0.703548 0.576897
vt 0.703628 0.568051
vt 0.703562 0.569738
vt 0.703674 0.585197
vt 0.703593 0.580754
vt 0.703653 0.583364
vt 0.703641 0.575440
vt 0.703636 0.580135
vt 0.703674 0.580742
vt 0.703640 0.570419
vt 0.703633 0.573204
vt 0.703628 0.571425
vt 0.703602 0.573566
vt 0.703580 0.577235
vt 0.703548 0.561864
vt 0.703628 0.567638
vt 0.703562 0.569196
vt 0.703674 0.553847
vt 0.703593 0.557913
vt 0.703653 0.561042
vt 0.703641 0.568685
vt 0.703636 0.565309
vt 0.703674 0.552890
vt 0.703640 0.562896
vt 0.703633 0.558885
vt 0.703628 0.570754
vt 0.703602 0.565275
vt 0.703580 0.561536
vt 0.703548 0.570218
vt 0.703628 0.572858
vt 0.703562 0.569497
vt 0.703674 0.570532
vt 0.703593 0.570606
vt 0.703653 0.564633
vt 0.703641 0.564345
vt 0.703636 0.563278
vt 0.703674 0.576016
vt 0.703640 0.575586
vt 0.703633 0.577112
vt 0.703628 0.566137
vt 0.703602 0.569883
vt 0.703580 0.570232
vt 0.580087 0.044711
vt 0.580093 0.046598
vt 0.580088 0.044969
s 0
usemtl Texture_Map
f 7/1/1 9/2/1 5/3/1
f 9/2/2 7/1/2 4/4/2
f 7/1/3 3/5/3 11/6/3
f 1/7/4 7/1/4 6/8/4
f 1/7/5 12/9/5 2/10/5
f 10/11/6 9/2/6 4/4/6
f 10/11/7 3/5/7 12/9/7
f 5/3/8 10/11/8 6/8/8
f 10/11/9 1/7/9 6/8/9
f 8/12/10 12/9/10 3/5/10
f 18/13/11 13/14/11 19/15/11
f 18/13/12 20/16/12 16/17/12
f 20/16/13 18/13/13 15/18/13
f 18/13/14 14/19/14 22/20/14
f 13/14/15 18/13/15 17/21/15
f 13/14/16 23/22/16 19/15/16
f 21/23/17 20/16/17 15/18/17
f 21/23/18 14/19/18 23/22/18
f 16/17/19 21/23/19 17/21/19
f 21/23/20 13/14/20 17/21/20
f 19/15/21 23/22/21 14/19/21
f 31/24/22 33/25/22 28/26/22
f 33/25/23 31/24/23 27/27/23
f 31/24/24 26/28/24 35/29/24
f 29/30/25 31/24/25 30/31/25
f 24/32/26 36/33/26 25/34/26
f 34/35/27 33/25/27 27/27/27
f 34/35/28 26/28/28 36/33/28
f 28/26/29 34/35/29 30/31/29
f 34/35/30 24/32/30 30/31/30
f 32/36/31 36/33/31 26/28/31
f 29/30/32 30/31/32 24/32/32
f 65/37/33 64/38/33 37/39/33
f 40/40/34 66/41/34 65/37/34
f 38/42/35 65/37/35 37/39/35
f 68/43/36 69/44/36 65/37/36
f 72/45/37 69/44/37 68/43/37
f 70/46/38 68/43/38 38/42/38
f 73/47/39 71/48/39 70/46/39
f 77/49/40 76/50/40 39/47/40
f 78/51/41 74/52/41 77/49/41
f 76/50/42 74/52/42 73/47/42
f 67/48/43 39/47/43 64/38/43
f 66/41/44 45/53/44 67/48/44
f 69/44/45 42/54/45 40/40/45
f 81/55/46 72/45/46 71/48/46
f 81/55/47 69/44/47 72/45/47
f 43/56/48 75/57/48 41/58/48
f 82/59/49 71/48/49 75/57/49
f 43/56/50 41/58/50 78/51/50
f 67/48/51 44/60/51 79/57/51
f 79/57/52 44/60/52 78/51/52
f 42/54/53 49/61/53 45/53/53
f 80/62/54 46/63/54 42/54/54
f 84/64/55 80/62/55 81/55/55
f 47/65/56 82/59/56 43/56/56
f 85/66/57 81/55/57 82/59/57
f 44/60/58 47/65/58 43/56/58
f 45/53/59 48/67/59 44/60/59
f 92/68/60 86/69/60 88/70/60
f 46/63/61 87/71/61 49/61/61
f 50/72/62 86/69/62 92/68/62
f 83/73/63 86/69/63 46/63/63
f 93/74/64 88/70/64 89/75/64
f 89/75/65 83/73/65 84/64/65
f 90/76/66 85/66/66 47/65/66
f 87/71/67 51/77/67 111/78/67
f 94/79/68 89/75/68 90/76/68
f 90/76/69 84/64/69 85/66/69
f 48/67/70 91/80/70 47/65/70
f 95/81/71 90/76/71 91/80/71
f 49/61/72 111/78/72 48/67/72
f 96/82/73 52/83/73 50/72/73
f 52/83/74 87/71/74 50/72/74
f 112/84/75 50/72/75 92/68/75
f 93/74/76 98/82/76 92/68/76
f 94/79/77 99/85/77 93/74/77
f 95/81/78 100/86/78 94/79/78
f 101/87/79 95/81/79 51/77/79
f 97/88/80 51/77/80 52/83/80
f 102/89/81 97/90/81 96/91/81
f 98/91/82 103/92/82 112/93/82
f 103/92/83 96/91/83 112/93/83
f 99/94/84 104/95/84 98/91/84
f 100/96/85 55/97/85 99/94/85
f 101/98/86 56/99/86 100/96/86
f 107/100/87 101/98/87 97/90/87
f 53/101/88 114/102/88 102/89/88
f 107/100/89 62/103/89 57/99/89
f 62/103/90 106/104/90 57/99/90
f 102/89/91 63/105/91 58/97/91
f 61/106/92 105/100/92 56/99/92
f 106/104/93 61/106/93 56/99/93
f 109/107/94 55/97/94 60/108/94
f 115/109/95 55/97/95 105/100/95
f 108/110/96 54/101/96 113/111/96
f 109/107/97 54/101/97 104/95/97
f 108/110/98 53/101/98 103/92/98
f 63/105/99 107/100/99 58/97/99
f 114/102/100 123/112/100 121/113/100
f 61/106/101 118/114/101 119/115/101
f 62/103/102 118/114/102 110/116/102
f 62/103/103 117/117/103 118/114/103
f 61/106/104 119/115/104 115/109/104
f 108/110/105 123/112/105 59/118/105
f 108/110/106 122/119/106 123/112/106
f 109/107/107 122/119/107 113/111/107
f 63/105/108 117/117/108 116/120/108
f 115/109/109 120/121/109 60/108/109
f 119/115/110 125/122/110 126/123/110
f 121/113/111 129/124/111 124/125/111
f 121/113/112 124/125/112 117/117/112
f 119/115/113 127/126/113 120/121/113
f 120/121/114 128/127/114 122/119/114
f 118/114/115 124/125/115 125/122/115
f 127/128/116 124/129/116 128/130/116
f 40/40/117 42/54/117 66/41/117
f 86/69/118 50/72/118 87/71/118
f 135/131/119 134/132/119 132/133/119
f 135/131/120 132/133/120 133/134/120
f 136/135/121 135/131/121 133/134/121
f 130/136/122 135/131/122 131/137/122
f 132/133/123 138/138/123 133/134/123
f 136/135/124 138/138/124 137/139/124
f 138/138/125 130/136/125 137/139/125
f 145/140/126 139/141/126 140/142/126
f 147/143/127 146/144/127 142/145/127
f 145/140/128 142/145/128 146/144/128
f 145/140/129 141/146/129 150/147/129
f 143/148/130 145/140/130 146/144/130
f 152/149/131 145/140/131 144/150/131
f 148/151/132 145/140/132 140/142/132
f 139/141/133 151/152/133 140/142/133
f 149/153/134 143/148/134 147/143/134
f 149/153/135 147/143/135 142/145/135
f 149/153/136 141/146/136 151/152/136
f 143/148/137 149/153/137 144/150/137
f 149/153/138 152/149/138 144/150/138
f 148/151/139 151/152/139 141/146/139
f 159/154/140 153/155/140 154/156/140
f 161/157/141 160/158/141 156/159/141
f 159/154/142 156/159/142 160/158/142
f 159/154/143 155/160/143 164/161/143
f 157/162/144 159/154/144 160/158/144
f 166/163/145 159/154/145 158/164/145
f 162/165/146 159/154/146 154/156/146
f 153/155/147 165/166/147 154/156/147
f 163/167/148 157/162/148 161/157/148
f 163/167/149 161/157/149 156/159/149
f 163/167/150 155/160/150 165/166/150
f 157/162/151 163/167/151 158/164/151
f 163/167/152 166/163/152 158/164/152
f 162/165/153 165/166/153 155/160/153
f 173/168/154 167/169/154 168/170/154
f 175/171/155 174/172/155 170/173/155
f 173/168/156 170/173/156 174/172/156
f 173/168/157 169/174/157 178/175/157
f 171/176/158 173/168/158 174/172/158
f 180/177/159 173/168/159 172/178/159
f 176/179/160 173/168/160 168/170/160
f 167/169/161 179/180/161 168/170/161
f 177/181/162 171/176/162 175/171/162
f 177/181/163 175/171/163 170/173/163
f 177/181/164 169/174/164 179/180/164
f 171/176/165 177/181/165 172/178/165
f 177/181/166 180/177/166 172/178/166
f 176/179/167 179/180/167 169/174/167
f 7/1/168 11/6/168 4/4/168
f 7/1/169 2/10/169 3/5/169
f 5/3/170 6/8/170 7/1/170
f 1/7/171 2/10/171 7/1/171
f 8/12/172 3/5/172 2/10/172
f 10/11/173 5/3/173 9/2/173
f 4/4/174 11/6/174 10/11/174
f 10/11/175 11/6/175 3/5/175
f 10/11/176 12/9/176 1/7/176
f 8/12/177 2/10/177 12/9/177
f 18/13/178 22/20/178 15/18/178
f 16/17/179 17/21/179 18/13/179
f 19/15/180 14/19/180 18/13/180
f 21/23/181 16/17/181 20/16/181
f 15/18/182 22/20/182 21/23/182
f 21/23/183 22/20/183 14/19/183
f 21/23/184 23/22/184 13/14/184
f 25/34/185 29/30/185 24/32/185
f 31/24/186 35/29/186 27/27/186
f 31/24/187 25/34/187 26/28/187
f 28/26/188 30/31/188 31/24/188
f 29/30/189 25/34/189 31/24/189
f 32/36/190 26/28/190 25/34/190
f 34/35/191 28/26/191 33/25/191
f 27/27/192 35/29/192 34/35/192
f 34/35/193 35/29/193 26/28/193
f 34/35/194 36/33/194 24/32/194
f 32/36/195 25/34/195 36/33/195
f 65/37/196 66/41/196 64/38/196
f 66/41/197 67/48/197 64/38/197
f 38/42/198 68/43/198 65/37/198
f 69/44/199 40/40/199 65/37/199
f 70/46/200 71/48/200 72/45/200
f 70/46/201 72/45/201 68/43/201
f 73/47/202 74/52/202 75/57/202
f 74/52/203 41/58/203 75/57/203
f 73/47/204 75/57/204 71/48/204
f 77/49/205 74/52/205 76/50/205
f 74/52/206 78/51/206 41/58/206
f 67/48/207 79/57/207 39/47/207
f 79/57/208 78/51/208 77/49/208
f 79/57/209 77/49/209 39/47/209
f 66/41/210 42/54/210 45/53/210
f 69/44/211 80/62/211 42/54/211
f 81/55/212 80/62/212 69/44/212
f 43/56/213 82/59/213 75/57/213
f 82/59/214 81/55/214 71/48/214
f 78/51/215 44/60/215 43/56/215
f 67/48/216 45/53/216 44/60/216
f 42/54/217 46/63/217 49/61/217
f 80/62/218 83/73/218 46/63/218
f 84/64/219 83/73/219 80/62/219
f 47/65/220 85/66/220 82/59/220
f 85/66/221 84/64/221 81/55/221
f 44/60/222 48/67/222 47/65/222
f 45/53/223 49/61/223 48/67/223
f 46/63/224 86/69/224 87/71/224
f 88/70/225 86/69/225 83/73/225
f 91/80/226 51/77/226 95/81/226
f 93/74/227 92/68/227 88/70/227
f 89/75/228 88/70/228 83/73/228
f 87/71/229 52/83/229 51/77/229
f 94/79/230 93/74/230 89/75/230
f 90/76/231 89/75/231 84/64/231
f 95/81/232 94/79/232 90/76/232
f 91/80/233 90/76/233 47/65/233
f 49/61/234 87/71/234 111/78/234
f 96/82/235 97/88/235 52/83/235
f 51/77/236 91/80/236 111/78/236
f 48/67/237 111/78/237 91/80/237
f 112/84/238 96/82/238 50/72/238
f 92/68/239 98/82/239 112/84/239
f 94/79/240 100/86/240 99/85/240
f 93/74/241 99/85/241 98/82/241
f 95/81/242 101/87/242 100/86/242
f 97/88/243 101/87/243 51/77/243
f 53/101/244 102/89/244 96/91/244
f 102/89/245 58/97/245 97/90/245
f 98/91/246 54/101/246 103/92/246
f 103/92/247 53/101/247 96/91/247
f 99/94/248 55/97/248 104/95/248
f 98/91/249 104/95/249 54/101/249
f 100/96/250 56/99/250 105/100/250
f 100/96/251 105/100/251 55/97/251
f 57/99/252 106/104/252 101/98/252
f 101/98/253 106/104/253 56/99/253
f 58/97/254 107/100/254 97/90/254
f 107/100/255 57/99/255 101/98/255
f 53/101/256 59/118/256 114/102/256
f 107/100/257 116/120/257 62/103/257
f 62/103/258 110/116/258 106/104/258
f 102/89/259 114/102/259 63/105/259
f 61/106/260 115/109/260 105/100/260
f 106/104/261 110/116/261 61/106/261
f 109/107/262 104/95/262 55/97/262
f 115/109/263 60/108/263 55/97/263
f 108/110/264 103/92/264 54/101/264
f 109/107/265 113/111/265 54/101/265
f 108/110/266 59/118/266 53/101/266
f 63/105/267 116/120/267 107/100/267
f 114/102/268 59/118/268 123/112/268
f 61/106/269 110/116/269 118/114/269
f 62/103/270 116/120/270 117/117/270
f 63/105/271 114/102/271 121/113/271
f 108/110/272 113/111/272 122/119/272
f 109/107/273 120/121/273 122/119/273
f 63/105/274 121/113/274 117/117/274
f 109/107/275 60/108/275 120/121/275
f 115/109/276 119/115/276 120/121/276
f 119/115/277 118/114/277 125/122/277
f 123/112/278 122/119/278 128/127/278
f 121/113/279 123/112/279 129/124/279
f 119/115/280 126/123/280 127/126/280
f 120/121/281 127/126/281 128/127/281
f 118/114/282 117/117/282 124/125/282
f 123/112/283 128/127/283 129/124/283
f 125/182/284 124/129/284 127/128/284
f 124/129/285 129/183/285 128/130/285
f 126/184/286 125/182/286 127/128/286
f 136/135/287 131/137/287 135/131/287
f 130/136/288 134/132/288 135/131/288
f 138/138/289 132/133/289 134/132/289
f 136/135/290 133/134/290 138/138/290
f 138/138/291 134/132/291 130/136/291
f 145/140/292 152/149/292 139/141/292
f 146/144/293 147/143/293 143/148/293
f 145/140/294 150/147/294 142/145/294
f 143/148/295 144/150/295 145/140/295
f 148/151/296 141/146/296 145/140/296
f 139/141/297 152/149/297 151/152/297
f 142/145/298 150/147/298 149/153/298
f 149/153/299 150/147/299 141/146/299
f 149/153/300 151/152/300 152/149/300
f 148/151/301 140/142/301 151/152/301
f 159/154/302 166/163/302 153/155/302
f 160/158/303 161/157/303 157/162/303
f 159/154/304 164/161/304 156/159/304
f 157/162/305 158/164/305 159/154/305
f 162/165/306 155/160/306 159/154/306
f 153/155/307 166/163/307 165/166/307
f 156/159/308 164/161/308 163/167/308
f 163/167/309 164/161/309 155/160/309
f 163/167/310 165/166/310 166/163/310
f 162/165/311 154/156/311 165/166/311
f 173/168/312 180/177/312 167/169/312
f 174/172/313 175/171/313 171/176/313
f 173/168/314 178/175/314 170/173/314
f 171/176/315 172/178/315 173/168/315
f 176/179/316 169/174/316 173/168/316
f 167/169/317 180/177/317 179/180/317
f 170/173/318 178/175/318 177/181/318
f 177/181/319 178/175/319 169/174/319
f 177/181/320 179/180/320 180/177/320
f 176/179/321 168/170/321 179/180/321
