# Blender 4.4.0
# www.blender.org
mtllib Env_Tulip_Low_Detail_01.mtl
o Env_Tulip_Low_Detail_01
v -0.002160 0.493816 0.010140
v -0.001069 0.417073 0.026771
v -0.001071 0.444381 0.032434
v 0.022545 0.417101 0.017797
v 0.027098 0.446440 0.021205
v -0.000860 0.399707 -0.004292
v 0.021867 0.417164 0.018088
v 0.027188 0.445724 0.020474
v 0.009464 0.497759 -0.004344
v 0.026879 0.417073 -0.004483
v 0.031967 0.444792 -0.004482
v 0.021835 0.417210 -0.027061
v 0.027101 0.444725 -0.029192
v 0.025959 0.417103 -0.004486
v 0.031011 0.444969 -0.004485
v -0.001054 0.444560 -0.040445
v -0.001055 0.417103 -0.034796
v 0.027028 0.446286 -0.029815
v 0.022430 0.417048 -0.026862
v 0.009811 0.475643 -0.026824
v -0.001127 0.399779 -0.004612
v -0.029221 0.446434 -0.030223
v -0.024652 0.417062 -0.026839
v -0.001052 0.444378 -0.041455
v -0.001052 0.417073 -0.035786
v 0.000051 0.493834 -0.019143
v -0.001208 0.399647 -0.004239
v -0.023976 0.417164 -0.027091
v -0.029292 0.445731 -0.029481
v -0.011563 0.497768 -0.004598
v -0.028984 0.417073 -0.004483
v -0.034074 0.444792 -0.004482
v -0.023951 0.417162 0.018035
v -0.029213 0.444727 0.020175
v -0.028063 0.417103 -0.004481
v -0.033116 0.444968 -0.004479
v -0.001061 0.399577 -0.004207
v -0.011927 0.475645 0.017803
v -0.024554 0.417046 0.017825
v -0.029150 0.446287 0.020798
v -0.001067 0.417103 0.025781
v -0.001068 0.444563 0.031424
v 0.014612 0.462342 0.005179
v 0.006415 0.416282 0.007304
v 0.009149 0.450561 0.011697
v 0.015247 0.416922 -0.000522
v 0.018406 0.435987 0.001207
v -0.000828 0.399663 -0.004532
v 0.015715 0.462308 -0.005508
v 0.013952 0.416523 -0.000376
v 0.017787 0.436987 -0.000567
v 0.007031 0.462367 -0.019222
v 0.009446 0.416221 -0.011145
v 0.013130 0.449190 -0.013381
v 0.001751 0.416808 -0.019993
v 0.003299 0.436284 -0.023104
v 0.009087 0.416232 -0.010919
v 0.011679 0.439337 -0.012561
v -0.010134 0.439294 -0.018818
v -0.008290 0.416289 -0.015909
v 0.001955 0.436930 -0.024797
v 0.002354 0.416603 -0.020708
v -0.003142 0.462202 -0.023037
v -0.001295 0.399634 -0.004605
v -0.020530 0.435986 -0.010204
v -0.017366 0.416879 -0.008487
v -0.011280 0.450579 -0.020701
v -0.008537 0.416283 -0.016301
v -0.016738 0.462342 -0.014179
v -0.001240 0.399516 -0.004227
v -0.017814 0.462306 -0.003470
v -0.016056 0.416523 -0.008607
v -0.019889 0.436987 -0.008414
v -0.009128 0.462367 0.010241
v -0.011550 0.416221 0.002163
v -0.015231 0.449179 0.004403
v -0.003859 0.416809 0.011012
v -0.005400 0.436280 0.014122
v -0.011191 0.416232 0.001936
v -0.013783 0.439337 0.003581
v -0.000884 0.399498 -0.004176
v 0.001014 0.462204 0.014034
v -0.004477 0.416610 0.011712
v -0.004079 0.436929 0.015798
v 0.006168 0.416289 0.006912
v 0.008010 0.439294 0.009819
v 0.006428 0.405297 -0.004587
v 0.001693 0.405408 0.001476
v -0.006361 0.405540 0.000628
v -0.009171 0.405420 -0.007272
v -0.003733 0.405420 -0.013657
v 0.004515 0.405204 -0.012141
v -0.003956 0.394508 -0.001455
v -0.005707 0.394437 -0.006380
v -0.002317 0.394434 -0.010359
v 0.002824 0.394503 -0.009414
v 0.005249 0.000032 0.001804
v -0.001094 0.000084 0.006126
v -0.005563 -0.000006 -0.000185
v -0.001999 -0.000065 -0.004369
v 0.003407 -0.000045 -0.003375
v 0.005188 0.194489 -0.008130
v 0.003306 0.194405 -0.013421
v 0.001546 0.194520 -0.003855
v -0.003977 0.194467 -0.004871
v -0.005858 0.194383 -0.010162
v -0.002217 0.194352 -0.014437
vn -0.3486 0.2953 0.8896
vn 0.3489 -0.1903 0.9176
vn -0.3493 -0.1903 0.9175
vn 0.3149 0.3959 0.8626
vn 0.0171 -0.3963 -0.9180
vn -0.1681 0.8511 -0.4974
vn -0.3461 0.1611 -0.9243
vn -0.2920 -0.3848 -0.8756
vn 0.9087 0.3857 0.1597
vn 0.9604 -0.1763 -0.2157
vn 0.9608 -0.1764 0.2141
vn 0.9053 0.3851 -0.1793
vn -0.5408 0.8349 0.1028
vn -0.9686 0.1971 0.1514
vn -0.9686 0.1756 -0.1760
vn -0.9154 -0.3740 0.1486
vn -0.3137 0.1914 0.9300
vn 0.2921 -0.3850 0.8755
vn 0.3461 0.1604 0.9244
vn 0.1642 0.8554 0.4913
vn -0.0165 -0.3965 0.9179
vn -0.3150 0.3961 -0.8625
vn 0.3485 -0.1906 -0.9177
vn -0.3479 -0.1906 -0.9179
vn 0.3487 0.2951 -0.8895
vn -0.9087 0.3858 -0.1593
vn -0.9605 -0.1764 0.2154
vn -0.9609 -0.1764 -0.2135
vn -0.9053 0.3851 0.1795
vn 0.5428 0.8337 -0.1013
vn 0.9687 0.1967 -0.1514
vn 0.9687 0.1757 0.1756
vn 0.9154 -0.3740 -0.1486
vn 0.3145 0.1911 -0.9298
vn 0.2878 0.0088 0.9577
vn 0.6600 -0.1756 0.7305
vn 0.3634 -0.1905 0.9120
vn 0.7570 0.0105 0.6534
vn -0.0420 0.1684 -0.9848
vn -0.5265 0.6113 -0.5909
vn -0.6312 0.1731 -0.7561
vn -0.6329 0.0255 -0.7738
vn 0.9436 0.0126 -0.3309
vn 0.7391 -0.1631 -0.6536
vn 0.9101 -0.1741 -0.3760
vn 0.6989 0.0065 -0.7152
vn -0.9859 0.1512 0.0718
vn -0.6174 0.5760 0.5357
vn -0.7625 0.1607 0.6267
vn -0.8728 0.1313 0.4702
vn -0.7855 0.0203 0.6185
vn 0.4615 0.1476 0.8748
vn 0.6330 0.0256 0.7737
vn 0.6303 0.1724 0.7570
vn 0.5213 0.6182 0.5883
vn 0.0420 0.1685 0.9848
vn -0.7574 0.0105 -0.6529
vn -0.3634 -0.1906 -0.9119
vn -0.6591 -0.1748 -0.7314
vn -0.2874 0.0087 -0.9578
vn -0.9436 0.0127 0.3309
vn -0.7393 -0.1629 0.6534
vn -0.9102 -0.1740 0.3759
vn -0.6987 0.0066 0.7154
vn 0.9859 0.1510 -0.0717
vn 0.6218 0.5687 -0.5385
vn 0.7628 0.1604 -0.6265
vn 0.8728 0.1314 -0.4701
vn 0.7854 0.0202 -0.6187
vn -0.4615 0.1475 -0.8748
vn 0.9483 -0.2104 -0.2376
vn -0.1057 -0.2067 0.9727
vn -0.9086 -0.2599 0.3270
vn -0.7306 -0.2810 -0.6223
vn 0.1677 -0.2636 -0.9499
vn 0.9421 -0.0168 -0.3348
vn 0.7609 0.0333 0.6480
vn -0.1811 0.0529 0.9820
vn -0.9422 0.0158 0.3348
vn -0.7609 -0.0344 -0.6480
vn 0.1811 -0.0507 -0.9822
vn 0.0168 0.9998 -0.0052
vn 0.1806 0.0201 -0.9834
vn -0.7612 0.0128 -0.6484
vn -0.9422 -0.0056 0.3351
vn -0.4257 -0.0226 0.9046
vn 0.7879 -0.0161 0.6156
vn 0.7953 0.0055 -0.6062
vn -0.0477 0.4098 0.9109
vn 0.1847 -0.8557 0.4834
vn -0.1832 -0.8560 0.4834
vn 0.3756 -0.1642 0.9121
vn -0.3872 -0.1533 0.9092
vn 0.3243 -0.2824 -0.9028
vn -0.3144 0.1911 -0.9299
vn 0.5260 -0.8416 -0.1227
vn 0.5274 -0.8411 0.1205
vn 0.9617 -0.1987 -0.1889
vn 0.9619 -0.1952 0.1915
vn -0.9182 -0.3744 -0.1293
vn -0.5419 0.8344 -0.1005
vn -0.9683 0.1755 0.1777
vn -0.9689 0.1934 -0.1543
vn -0.3581 0.1494 0.9217
vn -0.1638 0.8558 0.4908
vn 0.3133 0.1914 0.9302
vn -0.3244 -0.2822 0.9028
vn 0.3873 -0.1527 -0.9092
vn -0.3757 -0.1636 -0.9122
vn 0.1803 -0.8603 -0.4768
vn -0.1806 -0.8599 -0.4775
vn 0.0471 0.4099 -0.9109
vn -0.5283 -0.8404 0.1214
vn -0.5268 -0.8415 -0.1201
vn -0.9617 -0.1983 0.1891
vn -0.9620 -0.1950 -0.1913
vn 0.9182 -0.3745 0.1290
vn 0.5416 0.8346 0.1001
vn 0.9684 0.1756 -0.1773
vn 0.9690 0.1932 0.1541
vn 0.1665 0.8513 -0.4975
vn 0.3579 0.1500 -0.9216
vn 0.5441 -0.6218 0.5632
vn 0.2777 -0.6217 0.7324
vn 0.6306 -0.1479 0.7619
vn 0.4292 -0.1484 0.8910
vn -0.4475 0.0278 -0.8939
vn -0.6028 0.1473 -0.7842
vn -0.8812 0.1631 -0.4437
vn 0.5909 -0.5875 -0.5529
vn 0.7529 -0.5865 -0.2986
vn 0.7776 -0.1286 -0.6155
vn 0.8861 -0.1292 -0.4451
vn -0.8897 0.0162 0.4562
vn -0.7487 0.5751 0.3296
vn -0.7942 0.1313 0.5933
vn -0.8963 0.1718 0.4089
vn -0.5028 0.1450 0.8522
vn 0.3990 0.1883 0.8974
vn 0.3074 0.6194 0.7224
vn 0.8815 0.1634 0.4431
vn 0.6029 0.1475 0.7841
vn 0.4475 0.0280 0.8938
vn -0.4290 -0.1486 -0.8910
vn -0.6307 -0.1482 -0.7617
vn -0.2754 -0.6299 -0.7262
vn -0.5389 -0.6285 -0.5609
vn -0.5953 -0.5801 0.5560
vn -0.7562 -0.5815 0.3001
vn -0.7775 -0.1287 0.6156
vn -0.8862 -0.1292 0.4450
vn 0.8898 0.0161 -0.4561
vn 0.7520 0.5698 -0.3313
vn 0.7941 0.1313 -0.5934
vn 0.8963 0.1718 -0.4088
vn 0.5020 0.1451 -0.8526
vn -0.3100 0.6111 -0.7283
vn -0.3990 0.1883 -0.8974
vn -0.9086 -0.2598 0.3269
vn -0.7307 -0.2810 -0.6222
vn 0.1777 -0.2694 -0.9465
vn 0.5630 0.0347 0.8257
vn -0.8160 0.0206 0.5777
vn -0.7610 -0.0344 -0.6478
vn 0.1809 -0.0507 -0.9822
vn 0.0299 0.9994 -0.0198
vn -0.0125 0.9999 -0.0107
vn 0.0170 0.9998 -0.0052
vn 0.1807 0.0201 -0.9833
vn -0.7611 0.0128 -0.6485
vn -0.1807 -0.0168 0.9834
vn 0.7611 -0.0154 0.6485
vn 0.9421 0.0090 -0.3352
vt 0.452079 0.109715
vt 0.451426 0.138496
vt 0.451559 0.111469
vt 0.451425 0.084601
vt 0.451826 0.084575
vt 0.451427 0.084551
vt 0.451084 0.155224
vt 0.451577 0.111610
vt 0.452034 0.109882
vt 0.450443 0.068468
vt 0.451782 0.084603
vt 0.450431 0.110093
vt 0.450437 0.158853
vt 0.451545 0.110951
vt 0.449423 0.084702
vt 0.450431 0.084575
vt 0.451438 0.084659
vt 0.449328 0.110032
vt 0.450439 0.068588
vt 0.450431 0.084603
vt 0.450431 0.110256
vt 0.449432 0.084552
vt 0.448825 0.109879
vt 0.449078 0.084603
vt 0.449776 0.155240
vt 0.449282 0.111604
vt 0.449433 0.084566
vt 0.450425 0.068655
vt 0.449434 0.138494
vt 0.448780 0.109712
vt 0.449033 0.084575
vt 0.449300 0.111468
vt 0.450431 0.110092
vt 0.450426 0.158862
vt 0.449315 0.110957
vt 0.451436 0.084657
vt 0.450431 0.084575
vt 0.449422 0.084659
vt 0.451531 0.110033
vt 0.450442 0.068533
vt 0.450431 0.084603
vt 0.450431 0.110255
vt 0.451153 0.115404
vt 0.451257 0.126122
vt 0.451336 0.102854
vt 0.450685 0.101987
vt 0.450957 0.083847
vt 0.450608 0.084436
vt 0.451154 0.084149
vt 0.450862 0.126250
vt 0.451069 0.105031
vt 0.450445 0.068396
vt 0.450939 0.083853
vt 0.450034 0.114141
vt 0.450385 0.126218
vt 0.450606 0.102908
vt 0.449600 0.102261
vt 0.450133 0.083791
vt 0.449738 0.084331
vt 0.450614 0.084068
vt 0.449773 0.126273
vt 0.450070 0.105071
vt 0.450429 0.068548
vt 0.450143 0.083801
vt 0.449921 0.083854
vt 0.449524 0.102855
vt 0.449791 0.105031
vt 0.449998 0.126249
vt 0.450175 0.101987
vt 0.450252 0.084396
vt 0.450425 0.068522
vt 0.449603 0.126120
vt 0.449707 0.115420
vt 0.449903 0.083848
vt 0.449706 0.084142
vt 0.450827 0.114132
vt 0.450476 0.126216
vt 0.450255 0.102908
vt 0.451261 0.102257
vt 0.450727 0.083791
vt 0.451122 0.084332
vt 0.450247 0.084068
vt 0.451088 0.126273
vt 0.450791 0.105071
vt 0.450442 0.068412
vt 0.450717 0.083801
vt 0.193759 0.073209
vt 0.193659 0.072096
vt 0.193602 0.073235
vt 0.193824 0.072096
vt 0.193885 0.073220
vt 0.193868 0.073235
vt 0.193722 0.072088
vt 0.193703 0.073222
vt 0.193639 0.072088
vt 0.193570 0.073222
vt 0.193685 0.050806
vt 0.193784 0.030100
vt 0.193575 0.050797
vt 0.193774 0.050809
vt 0.193892 0.030108
vt 0.193982 0.030114
vt 0.193753 0.050804
vt 0.193851 0.030104
vt 0.193643 0.050795
vt 0.193764 0.030098
vt 0.193554 0.050791
vt 0.450549 0.056661
vt 0.450423 0.056650
vt 0.450234 0.056663
vt 0.450367 0.056663
vt 0.450532 0.056676
s 0
usemtl Texture_Map
f 3/1/1 38/2/1 40/3/1
f 4/4/2 3/1/2 2/5/2
f 3/1/3 39/6/3 2/5/3
f 1/7/4 3/1/4 5/8/4
f 42/9/5 38/2/5 1/7/5
f 37/10/6 41/11/6 4/4/6
f 4/4/7 42/9/7 5/8/7
f 42/9/8 1/7/8 5/8/8
f 11/12/9 9/13/9 8/14/9
f 12/15/10 11/12/10 10/16/10
f 11/12/11 7/17/11 10/16/11
f 9/13/12 11/12/12 13/18/12
f 6/19/13 14/20/13 12/15/13
f 12/15/14 15/21/14 13/18/14
f 7/17/15 15/21/15 14/20/15
f 15/21/16 9/13/16 13/18/16
f 19/22/17 16/23/17 17/24/17
f 16/23/18 26/25/18 22/26/18
f 23/27/19 16/23/19 22/26/19
f 21/28/20 17/24/20 23/27/20
f 16/23/21 20/29/21 26/25/21
f 26/25/22 24/30/22 22/26/22
f 24/30/23 19/22/23 25/31/23
f 23/27/24 24/30/24 25/31/24
f 24/30/25 20/29/25 18/32/25
f 32/33/26 30/34/26 29/35/26
f 33/36/27 32/33/27 31/37/27
f 32/33/28 28/38/28 31/37/28
f 30/34/29 32/33/29 34/39/29
f 27/40/30 35/41/30 33/36/30
f 33/36/31 36/42/31 34/39/31
f 28/38/32 36/42/32 35/41/32
f 36/42/33 30/34/33 34/39/33
f 39/6/34 42/9/34 41/11/34
f 45/43/35 82/44/35 84/45/35
f 47/46/36 44/47/36 46/48/36
f 44/47/37 84/45/37 83/49/37
f 43/50/38 45/43/38 47/46/38
f 86/51/39 82/44/39 45/43/39
f 81/52/40 85/53/40 46/48/40
f 85/53/41 47/46/41 46/48/41
f 86/51/42 43/50/42 47/46/42
f 54/54/43 49/55/43 51/56/43
f 56/57/44 53/58/44 55/59/44
f 53/58/45 51/56/45 50/60/45
f 52/61/46 54/54/46 56/57/46
f 58/62/47 49/55/47 54/54/47
f 48/63/48 57/64/48 55/59/48
f 57/64/49 56/57/49 55/59/49
f 57/64/50 51/56/50 58/62/50
f 58/62/51 52/61/51 56/57/51
f 60/65/52 61/66/52 59/67/52
f 59/67/53 69/68/53 65/69/53
f 60/65/54 65/69/54 66/70/54
f 64/71/55 60/65/55 66/70/55
f 59/67/56 63/72/56 67/73/56
f 69/68/57 67/73/57 65/69/57
f 68/74/58 61/66/58 62/75/58
f 65/69/59 68/74/59 66/70/59
f 67/73/60 63/72/60 61/66/60
f 76/76/61 71/77/61 73/78/61
f 78/79/62 75/80/62 77/81/62
f 75/80/63 73/78/63 72/82/63
f 74/83/64 76/76/64 78/79/64
f 80/84/65 71/77/65 76/76/65
f 70/85/66 79/86/66 77/81/66
f 79/86/67 78/79/67 77/81/67
f 79/86/68 73/78/68 80/84/68
f 80/84/69 74/83/69 78/79/69
f 85/53/70 84/45/70 86/51/70
f 87/87/71 96/88/71 92/89/71
f 93/90/72 88/91/72 89/92/72
f 94/93/73 89/92/73 90/94/73
f 95/95/74 90/94/74 91/96/74
f 92/89/75 95/95/75 91/96/75
f 102/97/76 101/98/76 103/99/76
f 104/100/77 97/101/77 102/97/77
f 98/102/78 104/100/78 105/103/78
f 99/104/79 105/103/79 106/105/79
f 100/106/80 106/105/80 107/107/80
f 103/99/81 100/106/81 107/107/81
f 88/108/82 87/109/82 91/110/82
f 103/99/83 95/95/83 96/88/83
f 95/95/84 106/105/84 94/93/84
f 94/93/85 105/103/85 93/90/85
f 93/90/86 104/100/86 88/91/86
f 104/100/87 87/87/87 88/91/87
f 102/97/88 96/88/88 87/87/88
f 3/1/89 1/7/89 38/2/89
f 37/10/90 4/4/90 2/5/90
f 2/5/91 39/6/91 37/10/91
f 4/4/92 5/8/92 3/1/92
f 3/1/93 40/3/93 39/6/93
f 42/9/94 40/3/94 38/2/94
f 4/4/95 41/11/95 42/9/95
f 6/19/96 12/15/96 10/16/96
f 10/16/97 7/17/97 6/19/97
f 12/15/98 13/18/98 11/12/98
f 11/12/99 8/14/99 7/17/99
f 15/21/100 8/14/100 9/13/100
f 6/19/101 7/17/101 14/20/101
f 12/15/102 14/20/102 15/21/102
f 7/17/103 8/14/103 15/21/103
f 19/22/104 18/32/104 16/23/104
f 21/28/105 19/22/105 17/24/105
f 23/27/106 17/24/106 16/23/106
f 16/23/107 18/32/107 20/29/107
f 24/30/108 18/32/108 19/22/108
f 23/27/109 22/26/109 24/30/109
f 25/31/110 19/22/110 21/28/110
f 21/28/111 23/27/111 25/31/111
f 24/30/112 26/25/112 20/29/112
f 27/40/113 33/36/113 31/37/113
f 31/37/114 28/38/114 27/40/114
f 33/36/115 34/39/115 32/33/115
f 32/33/116 29/35/116 28/38/116
f 36/42/117 29/35/117 30/34/117
f 27/40/118 28/38/118 35/41/118
f 33/36/119 35/41/119 36/42/119
f 28/38/120 29/35/120 36/42/120
f 37/10/121 39/6/121 41/11/121
f 39/6/122 40/3/122 42/9/122
f 81/52/123 46/48/123 44/47/123
f 44/47/124 83/49/124 81/52/124
f 47/46/125 45/43/125 44/47/125
f 44/47/126 45/43/126 84/45/126
f 86/51/127 84/45/127 82/44/127
f 85/53/128 86/51/128 47/46/128
f 86/51/129 45/43/129 43/50/129
f 48/63/130 55/59/130 53/58/130
f 53/58/131 50/60/131 48/63/131
f 56/57/132 54/54/132 53/58/132
f 53/58/133 54/54/133 51/56/133
f 58/62/134 51/56/134 49/55/134
f 48/63/135 50/60/135 57/64/135
f 57/64/136 58/62/136 56/57/136
f 57/64/137 50/60/137 51/56/137
f 58/62/138 54/54/138 52/61/138
f 60/65/139 62/75/139 61/66/139
f 64/71/140 62/75/140 60/65/140
f 59/67/141 67/73/141 69/68/141
f 60/65/142 59/67/142 65/69/142
f 59/67/143 61/66/143 63/72/143
f 68/74/144 67/73/144 61/66/144
f 65/69/145 67/73/145 68/74/145
f 68/74/146 62/75/146 64/71/146
f 64/71/147 66/70/147 68/74/147
f 70/85/148 77/81/148 75/80/148
f 75/80/149 72/82/149 70/85/149
f 78/79/150 76/76/150 75/80/150
f 75/80/151 76/76/151 73/78/151
f 80/84/152 73/78/152 71/77/152
f 70/85/153 72/82/153 79/86/153
f 79/86/154 80/84/154 78/79/154
f 79/86/155 72/82/155 73/78/155
f 80/84/156 76/76/156 74/83/156
f 81/52/157 83/49/157 85/53/157
f 85/53/158 83/49/158 84/45/158
f 94/93/159 93/90/159 89/92/159
f 95/95/160 94/93/160 90/94/160
f 92/89/161 96/88/161 95/95/161
f 102/97/76 97/101/76 101/98/76
f 104/100/162 98/102/162 97/101/162
f 99/104/163 98/102/163 105/103/163
f 100/106/164 99/104/164 106/105/164
f 103/99/165 101/98/165 100/106/165
f 87/87/166 92/89/166 91/96/166
f 91/110/167 90/111/167 89/112/167
f 89/112/168 88/108/168 91/110/168
f 103/99/169 107/107/169 95/95/169
f 95/95/170 107/107/170 106/105/170
f 94/93/85 106/105/85 105/103/85
f 93/90/171 105/103/171 104/100/171
f 104/100/172 102/97/172 87/87/172
f 102/97/173 103/99/173 96/88/173
