# Blender 4.4.0
# www.blender.org
mtllib Env_Dirt_Large_Watered_01.mtl
o Env_Dirt_Large_Watered_01
v -0.929358 0.005840 0.929355
v 0.929354 0.005840 0.929355
v -0.929358 0.005840 -0.929358
v 0.929354 0.005840 -0.929358
v -0.929358 0.005840 -0.000001
v -0.000002 0.005840 0.929355
v 0.929354 0.005840 -0.000001
v -0.000002 0.005840 -0.929358
v -0.000002 0.036401 -0.000001
v -0.929358 0.005840 0.464677
v 0.464676 0.005840 0.929355
v 0.929354 0.005840 -0.464680
v -0.464680 0.005840 -0.929358
v -0.929358 0.005840 -0.464680
v -0.464680 0.005840 0.929355
v 0.929354 0.005840 0.464677
v 0.464676 0.005840 -0.929358
v -0.000002 0.019584 -0.467363
v -0.000002 0.021123 0.467360
v -0.467364 0.008756 -0.000001
v 0.467360 0.026586 -0.000001
v 0.467360 0.020876 0.467360
v -0.467364 0.032295 0.467360
v -0.467364 0.027633 -0.467363
v 0.467360 0.030009 -0.467363
v -0.929358 0.005840 0.697016
v 0.697015 0.005840 0.929355
v 0.929354 0.005840 -0.697019
v -0.697019 0.005840 -0.929358
v -0.929358 0.005840 -0.232340
v -0.232341 0.005840 0.929355
v 0.929354 0.005840 0.232338
v 0.232337 0.005840 -0.929358
v -0.000002 0.015704 -0.701044
v -0.000002 0.033245 0.233679
v -0.701044 0.015320 -0.000001
v 0.233679 0.027492 -0.000001
v -0.929358 0.005840 0.232338
v 0.232337 0.005840 0.929355
v 0.929354 0.005840 -0.232340
v -0.232341 0.005840 -0.929358
v -0.929358 0.005840 -0.697019
v -0.697019 0.005840 0.929355
v 0.929354 0.005840 0.697016
v 0.697015 0.005840 -0.929358
v -0.000002 0.036492 -0.233682
v -0.000002 0.014670 0.701041
v -0.233683 0.028004 -0.000001
v 0.701040 0.017289 -0.000001
v 0.467360 0.030036 0.233679
v 0.467360 0.012907 0.701041
v 0.233679 0.024090 0.467360
v 0.701040 0.019349 0.467360
v -0.467364 0.021813 0.233679
v -0.467364 0.028476 0.701041
v -0.701044 0.024793 0.467360
v -0.233683 0.026885 0.467360
v -0.467364 0.022876 -0.701044
v -0.467364 0.028426 -0.233682
v -0.701044 0.021042 -0.467363
v -0.233683 0.027726 -0.467363
v 0.467360 0.023139 -0.701044
v 0.467360 0.025487 -0.233682
v 0.233679 0.026988 -0.467363
v 0.701040 0.023543 -0.467363
v 0.701040 0.019837 -0.233682
v 0.233679 0.025000 -0.233682
v 0.233679 0.018373 -0.701044
v -0.233683 0.020049 -0.233682
v -0.701044 0.017595 -0.233682
v -0.701044 0.018065 -0.701044
v -0.233683 0.021620 0.701041
v -0.701044 0.018441 0.701041
v -0.701044 0.019666 0.233679
v 0.701040 0.008756 0.701041
v 0.233679 0.008756 0.701041
v 0.233679 0.029953 0.233679
v 0.701040 0.022391 0.233679
v -0.233683 0.028680 0.233679
v -0.233683 0.025858 -0.701044
v 0.701040 0.017667 -0.701044
v -1.000002 0.000000 0.999999
v 0.999998 0.000000 0.999999
v -1.000002 -0.000000 -1.000001
v 0.999998 -0.000000 -1.000001
v -1.000002 -0.000000 -0.000001
v -0.000002 0.000000 0.999999
v 0.999998 -0.000000 -0.000001
v -0.000002 -0.000000 -1.000001
v -1.000002 0.000000 0.499999
v 0.499998 0.000000 0.999999
v 0.999998 0.000000 -0.500001
v -0.500002 -0.000000 -1.000001
v -1.000002 0.000000 -0.500001
v -0.500002 0.000000 0.999999
v 0.999998 0.000000 0.499999
v 0.499998 -0.000000 -1.000001
v -1.000002 0.000000 0.749999
v 0.749998 0.000000 0.999999
v 0.999998 0.000000 -0.750001
v -0.750002 -0.000000 -1.000001
v -1.000002 0.000000 -0.250001
v -0.250002 0.000000 0.999999
v 0.999998 -0.000000 0.249999
v 0.249998 -0.000000 -1.000001
v -1.000002 -0.000000 0.249999
v 0.249998 0.000000 0.999999
v 0.999998 0.000000 -0.250001
v -0.250002 -0.000000 -1.000001
v -1.000002 0.000000 -0.750001
v -0.750002 0.000000 0.999999
v 0.999998 0.000000 0.749999
v 0.749998 -0.000000 -1.000001
vn -0.0378 0.9986 0.0378
vn 0.0325 0.9989 0.0325
vn -0.0376 0.9986 -0.0376
vn 0.0374 0.9986 -0.0374
vn -0.0620 0.9981 -0.0000
vn -0.0000 0.9982 0.0605
vn 0.0662 0.9978 -0.0000
vn -0.0000 0.9980 -0.0628
vn 0.0011 1.0000 0.0069
vn -0.0798 0.9968 -0.0028
vn -0.0023 0.9985 0.0544
vn 0.0778 0.9970 0.0020
vn -0.0016 0.9968 -0.0800
vn -0.0725 0.9974 0.0019
vn 0.0037 0.9962 0.0868
vn 0.0724 0.9974 0.0017
vn -0.0026 0.9971 -0.0764
vn 0.0021 0.9997 -0.0227
vn 0.0099 0.9993 0.0357
vn -0.0362 0.9993 0.0047
vn 0.0182 0.9998 -0.0094
vn 0.0134 0.9994 0.0334
vn -0.0110 0.9999 -0.0077
vn -0.0158 0.9998 -0.0103
vn 0.0074 1.0000 -0.0050
vn -0.0723 0.9974 0.0035
vn 0.0023 0.9988 0.0499
vn 0.0703 0.9975 -0.0032
vn -0.0026 0.9975 -0.0706
vn -0.0657 0.9978 0.0012
vn 0.0038 0.9974 0.0719
vn 0.0746 0.9972 -0.0028
vn -0.0015 0.9977 -0.0672
vn 0.0120 0.9993 -0.0368
vn 0.0037 0.9997 0.0221
vn -0.0149 0.9999 -0.0080
vn 0.0188 0.9998 -0.0067
vn -0.0691 0.9976 -0.0024
vn 0.0032 0.9987 0.0508
vn 0.0704 0.9975 0.0014
vn 0.0055 0.9968 -0.0794
vn -0.0696 0.9976 -0.0016
vn -0.0055 0.9972 0.0743
vn 0.0535 0.9986 0.0058
vn 0.0030 0.9975 -0.0701
vn -0.0076 0.9991 -0.0415
vn 0.0158 0.9991 0.0384
vn -0.0399 0.9992 -0.0040
vn 0.0490 0.9988 -0.0041
vn 0.0185 0.9998 0.0110
vn 0.0003 0.9994 0.0356
vn -0.0004 0.9993 0.0384
vn 0.0286 0.9993 0.0220
vn -0.0241 0.9991 -0.0362
vn -0.0009 0.9985 0.0542
vn -0.0525 0.9986 -0.0050
vn 0.0191 0.9996 0.0199
vn -0.0150 0.9989 -0.0439
vn -0.0222 0.9992 0.0323
vn -0.0470 0.9989 -0.0007
vn 0.0217 0.9997 0.0079
vn 0.0001 0.9988 -0.0499
vn 0.0101 0.9999 0.0055
vn -0.0219 0.9997 -0.0119
vn 0.0483 0.9988 -0.0016
vn 0.0466 0.9989 0.0094
vn 0.0142 0.9998 -0.0104
vn -0.0158 0.9988 -0.0458
vn -0.0041 0.9999 -0.0137
vn -0.0414 0.9989 0.0197
vn -0.0303 0.9992 -0.0265
vn 0.0251 0.9984 0.0500
vn -0.0421 0.9985 0.0344
vn -0.0375 0.9991 -0.0175
vn 0.0138 0.9995 0.0274
vn 0.0060 0.9991 0.0414
vn 0.0035 0.9999 0.0106
vn 0.0485 0.9988 -0.0019
vn -0.0179 0.9998 -0.0042
vn 0.0173 0.9987 -0.0486
vn 0.0311 0.9990 -0.0320
vn -0.0413 0.9983 0.0413
vn 0.0413 0.9983 0.0413
vn -0.0413 0.9983 -0.0413
vn 0.0413 0.9983 -0.0413
vn -0.0824 0.9966 -0.0000
vn -0.0000 0.9966 0.0824
vn 0.0824 0.9966 -0.0000
vn -0.0000 0.9966 -0.0824
vt 0.082076 0.932329
vt 0.082078 0.934630
vt 0.082076 0.934630
vt 0.082070 0.932711
vt 0.082067 0.934630
vt 0.082067 0.930735
vt 0.082070 0.929298
vt 0.082067 0.930318
vt 0.082067 0.930186
vt 0.082076 0.932402
vt 0.082076 0.931410
vt 0.082074 0.929922
vt 0.082072 0.930417
vt 0.082072 0.929938
vt 0.082074 0.933255
vt 0.082072 0.931079
vt 0.082072 0.934063
vt 0.082076 0.932002
vt 0.082076 0.934063
vt 0.082065 0.931522
vt 0.082063 0.932786
vt 0.082063 0.931940
vt 0.082065 0.930226
vt 0.082063 0.930942
vt 0.082063 0.932178
vt 0.082067 0.931560
vt 0.082070 0.931656
vt 0.082067 0.930535
vt 0.082065 0.931315
vt 0.082063 0.934630
vt 0.082063 0.932251
vt 0.082065 0.930236
vt 0.082063 0.931672
vt 0.082063 0.932343
vt 0.082067 0.931866
vt 0.082070 0.931956
vt 0.082067 0.930372
vt 0.082072 0.932192
vt 0.082074 0.934630
vt 0.082072 0.934630
vt 0.082074 0.930808
vt 0.082072 0.930515
vt 0.082072 0.930902
vt 0.082076 0.931907
vt 0.082076 0.931185
vt 0.082074 0.929928
vt 0.082074 0.930594
vt 0.082070 0.928666
vt 0.082070 0.928684
vt 0.082070 0.934630
vt 0.082074 0.931264
vt 0.082065 0.930390
vt 0.082065 0.934063
vt 0.082061 0.934630
vt 0.082065 0.929483
vt 0.082065 0.934630
vt 0.082070 0.932912
vt 0.082074 0.931704
vt 0.082079 0.935767
vt 0.082067 0.935767
vt 0.082070 0.935767
vt 0.082077 0.935767
vt 0.082074 0.935767
vt 0.082072 0.935767
vt 0.082060 0.935767
vt 0.082065 0.935767
vt 0.082063 0.935767
s 1
usemtl Texture_Map
f 81/1/81 4/2/4 45/3/45
f 34/4/34 41/5/41 80/6/80
f 35/7/35 48/8/48 79/9/79
f 32/2/32 49/10/49 78/11/78
f 50/12/50 37/13/37 77/14/77
f 51/15/51 52/16/52 76/17/76
f 44/2/44 53/18/53 75/19/75
f 54/20/54 36/21/36 74/22/74
f 55/23/55 56/24/56 73/25/73
f 72/26/72 19/27/19 57/28/57
f 58/29/58 29/30/29 71/31/71
f 59/32/59 60/33/60 70/34/70
f 69/35/69 18/36/18 61/37/61
f 68/38/68 17/39/17 33/40/33
f 63/41/63 64/42/64 67/43/67
f 66/44/66 12/2/12 65/45/65
f 63/41/63 65/45/65 25/46/25
f 21/47/21 66/44/66 63/41/63
f 49/10/49 40/2/40 66/44/66
f 67/43/67 18/36/18 46/48/46
f 37/13/37 46/48/46 9/49/9
f 21/47/21 67/43/67 37/13/37
f 34/4/34 33/40/33 8/50/8
f 18/36/18 68/38/68 34/4/34
f 64/42/64 62/51/62 68/38/68
f 59/32/59 61/37/61 24/52/24
f 48/8/48 59/32/59 20/53/20
f 48/8/48 46/48/46 69/35/69
f 70/34/70 14/54/14 30/54/30
f 36/21/36 30/54/30 5/54/5
f 20/53/20 70/34/70 36/21/36
f 71/31/71 3/54/3 42/54/42
f 60/33/60 42/54/42 14/54/14
f 60/33/60 58/29/58 71/31/71
f 55/23/55 57/28/57 23/55/23
f 15/56/15 72/26/72 55/23/55
f 31/5/31 47/57/47 72/26/72
f 26/54/26 56/24/56 10/54/10
f 1/54/1 73/25/73 26/54/26
f 43/30/43 55/23/55 73/25/73
f 38/54/38 36/21/36 5/54/5
f 10/54/10 74/22/74 38/54/38
f 56/24/56 54/20/54 74/22/74
f 51/15/51 53/18/53 22/58/22
f 27/3/27 51/15/51 11/39/11
f 2/2/2 75/19/75 27/3/27
f 47/57/47 52/16/52 19/27/19
f 39/40/39 47/57/47 6/50/6
f 11/39/11 76/17/76 39/40/39
f 35/7/35 37/13/37 9/49/9
f 19/27/19 77/14/77 35/7/35
f 52/16/52 50/12/50 77/14/77
f 78/11/78 21/47/21 50/12/50
f 22/58/22 78/11/78 50/12/50
f 16/2/16 78/11/78 53/18/53
f 54/20/54 48/8/48 20/53/20
f 23/55/23 79/9/79 54/20/54
f 57/28/57 35/7/35 79/9/79
f 80/6/80 13/56/13 58/29/58
f 24/52/24 80/6/80 58/29/58
f 18/36/18 80/6/80 61/37/61
f 62/51/62 45/3/45 17/39/17
f 65/45/65 62/51/62 25/46/25
f 65/45/65 28/2/28 81/1/81
f 2/2/2 112/59/88 44/2/44
f 44/2/44 96/59/88 16/2/16
f 15/56/15 103/60/87 31/5/31
f 31/5/31 87/61/87 6/50/6
f 4/2/4 113/62/89 45/3/45
f 45/3/45 97/63/89 17/39/17
f 16/2/16 104/59/88 32/2/32
f 32/2/32 88/59/88 7/2/7
f 17/39/17 105/64/89 33/40/33
f 33/40/33 89/61/89 8/50/8
f 38/54/38 86/65/86 106/65/86
f 10/54/10 106/65/86 90/65/86
f 39/40/39 87/61/87 107/64/87
f 11/39/11 107/64/87 91/63/87
f 26/54/26 90/65/86 98/65/86
f 1/54/1 98/65/86 82/65/82
f 40/2/40 88/59/88 108/59/88
f 12/2/12 108/59/88 92/59/88
f 27/3/27 91/63/87 99/62/87
f 2/2/2 99/62/87 83/59/83
f 41/5/41 89/61/89 109/60/89
f 13/56/13 109/60/89 93/66/89
f 28/2/28 92/59/88 100/59/88
f 4/2/4 100/59/88 85/59/85
f 3/54/3 110/65/86 42/54/42
f 42/54/42 94/65/86 14/54/14
f 29/30/29 93/66/89 101/67/89
f 3/54/3 101/67/89 84/65/84
f 1/54/1 111/67/87 43/30/43
f 43/30/43 95/66/87 15/56/15
f 14/54/14 102/65/86 30/54/30
f 30/54/30 86/65/86 5/54/5
f 81/1/81 28/2/28 4/2/4
f 34/4/34 8/50/8 41/5/41
f 35/7/35 9/49/9 48/8/48
f 32/2/32 7/2/7 49/10/49
f 50/12/50 21/47/21 37/13/37
f 51/15/51 22/58/22 52/16/52
f 44/2/44 16/2/16 53/18/53
f 54/20/54 20/53/20 36/21/36
f 55/23/55 23/55/23 56/24/56
f 72/26/72 47/57/47 19/27/19
f 58/29/58 13/56/13 29/30/29
f 59/32/59 24/52/24 60/33/60
f 69/35/69 46/48/46 18/36/18
f 68/38/68 62/51/62 17/39/17
f 63/41/63 25/46/25 64/42/64
f 66/44/66 40/2/40 12/2/12
f 63/41/63 66/44/66 65/45/65
f 21/47/21 49/10/49 66/44/66
f 49/10/49 7/2/7 40/2/40
f 67/43/67 64/42/64 18/36/18
f 37/13/37 67/43/67 46/48/46
f 21/47/21 63/41/63 67/43/67
f 34/4/34 68/38/68 33/40/33
f 18/36/18 64/42/64 68/38/68
f 64/42/64 25/46/25 62/51/62
f 59/32/59 69/35/69 61/37/61
f 48/8/48 69/35/69 59/32/59
f 48/8/48 9/49/9 46/48/46
f 70/34/70 60/33/60 14/54/14
f 36/21/36 70/34/70 30/54/30
f 20/53/20 59/32/59 70/34/70
f 71/31/71 29/30/29 3/54/3
f 60/33/60 71/31/71 42/54/42
f 60/33/60 24/52/24 58/29/58
f 55/23/55 72/26/72 57/28/57
f 15/56/15 31/5/31 72/26/72
f 31/5/31 6/50/6 47/57/47
f 26/54/26 73/25/73 56/24/56
f 1/54/1 43/30/43 73/25/73
f 43/30/43 15/56/15 55/23/55
f 38/54/38 74/22/74 36/21/36
f 10/54/10 56/24/56 74/22/74
f 56/24/56 23/55/23 54/20/54
f 51/15/51 75/19/75 53/18/53
f 27/3/27 75/19/75 51/15/51
f 2/2/2 44/2/44 75/19/75
f 47/57/47 76/17/76 52/16/52
f 39/40/39 76/17/76 47/57/47
f 11/39/11 51/15/51 76/17/76
f 35/7/35 77/14/77 37/13/37
f 19/27/19 52/16/52 77/14/77
f 52/16/52 22/58/22 50/12/50
f 78/11/78 49/10/49 21/47/21
f 22/58/22 53/18/53 78/11/78
f 16/2/16 32/2/32 78/11/78
f 54/20/54 79/9/79 48/8/48
f 23/55/23 57/28/57 79/9/79
f 57/28/57 19/27/19 35/7/35
f 80/6/80 41/5/41 13/56/13
f 24/52/24 61/37/61 80/6/80
f 18/36/18 34/4/34 80/6/80
f 62/51/62 81/1/81 45/3/45
f 65/45/65 81/1/81 62/51/62
f 65/45/65 12/2/12 28/2/28
f 2/2/2 83/59/83 112/59/88
f 44/2/44 112/59/88 96/59/88
f 15/56/15 95/66/87 103/60/87
f 31/5/31 103/60/87 87/61/87
f 4/2/4 85/59/85 113/62/89
f 45/3/45 113/62/89 97/63/89
f 16/2/16 96/59/88 104/59/88
f 32/2/32 104/59/88 88/59/88
f 17/39/17 97/63/89 105/64/89
f 33/40/33 105/64/89 89/61/89
f 38/54/38 5/54/5 86/65/86
f 10/54/10 38/54/38 106/65/86
f 39/40/39 6/50/6 87/61/87
f 11/39/11 39/40/39 107/64/87
f 26/54/26 10/54/10 90/65/86
f 1/54/1 26/54/26 98/65/86
f 40/2/40 7/2/7 88/59/88
f 12/2/12 40/2/40 108/59/88
f 27/3/27 11/39/11 91/63/87
f 2/2/2 27/3/27 99/62/87
f 41/5/41 8/50/8 89/61/89
f 13/56/13 41/5/41 109/60/89
f 28/2/28 12/2/12 92/59/88
f 4/2/4 28/2/28 100/59/88
f 3/54/3 84/65/84 110/65/86
f 42/54/42 110/65/86 94/65/86
f 29/30/29 13/56/13 93/66/89
f 3/54/3 29/30/29 101/67/89
f 1/54/1 82/65/82 111/67/87
f 43/30/43 111/67/87 95/66/87
f 14/54/14 94/65/86 102/65/86
f 30/54/30 102/65/86 86/65/86
