# Blender 4.4.0
# www.blender.org
mtllib Env_Dirt_Mound_01.mtl
o Env_Dirt_Mound_01
v 0.129658 0.000000 -0.259316
v -0.129658 0.000000 -0.259316
v -0.259316 0.000000 0.000000
v -0.129658 0.000000 0.259316
v 0.129658 0.000000 0.259316
v 0.259316 0.000000 0.000000
v 0.088313 0.123642 -0.176626
v -0.088313 0.100605 -0.176626
v -0.176626 0.112006 0.000000
v -0.088313 0.084231 0.176626
v 0.088313 0.092919 0.176626
v 0.176626 0.115775 0.000000
v -0.023202 0.149842 0.000000
vn 0.3911 0.6165 -0.6834
vn -0.3779 0.6756 -0.6330
vn -0.7835 0.6213 0.0117
vn -0.3452 0.7383 0.5795
vn 0.3536 0.7121 0.6066
vn 0.8060 0.5916 0.0202
vn 0.2848 0.8151 -0.5045
vn -0.3423 0.7931 -0.5038
vn -0.6057 0.7952 0.0282
vn -0.3057 0.8123 0.4967
vn 0.2847 0.8156 0.5037
vn 0.5968 0.8005 0.0546
vn -0.0632 0.9962 0.0593
vt 0.232819 0.904391
vt 0.232808 0.858415
vt 0.232811 0.904391
vt 0.232786 0.904391
vt 0.232797 0.862715
vt 0.232792 0.848971
vt 0.232797 0.854611
vt 0.232808 0.843214
vt 0.232814 0.847108
vt 0.232795 0.904391
vt 0.232801 0.830249
s 1
usemtl Texture_Map
f 6/1/6 11/2/11 5/3/5
f 3/4/3 10/5/10 9/6/9
f 1/3/1 8/7/8 7/8/7
f 6/1/6 7/8/7 12/9/12
f 5/3/5 10/5/10 4/10/4
f 3/4/3 8/7/8 2/10/2
f 13/11/13 11/2/11 12/9/12
f 9/6/9 10/5/10 13/11/13
f 8/7/8 13/11/13 7/8/7
f 7/8/7 13/11/13 12/9/12
f 6/1/6 12/9/12 11/2/11
f 3/4/3 4/10/4 10/5/10
f 1/3/1 2/10/2 8/7/8
f 6/1/6 1/3/1 7/8/7
f 5/3/5 11/2/11 10/5/10
f 3/4/3 9/6/9 8/7/8
f 13/11/13 10/5/10 11/2/11
f 8/7/8 9/6/9 13/11/13
