# Blender 4.4.0
# www.blender.org
mtllib Env_Flowers_01.mtl
o Env_Flowers_01
v -0.046922 0.271761 -0.077750
v -0.122906 0.303847 -0.059931
v -0.093845 0.250530 0.000700
v -0.122906 0.266773 0.077061
v -0.046922 0.229299 0.079149
v 0.000000 0.248236 0.145556
v 0.046922 0.229299 0.079149
v 0.093845 0.250530 0.000700
v 0.122906 0.303847 -0.059931
v 0.046922 0.271761 -0.077750
v 0.000000 0.322384 -0.128426
v -0.046887 0.281359 -0.075303
v -0.093775 0.260144 0.003088
v -0.046887 0.238929 0.081479
v 0.046887 0.238929 0.081479
v 0.122906 0.266773 0.077061
v 0.093775 0.260144 0.003088
v 0.046887 0.281359 -0.075303
v 0.000000 0.263808 -0.042931
v -0.039299 0.257880 -0.021030
v -0.039299 0.246026 0.022773
v 0.000000 0.240099 0.044674
v 0.039299 0.246026 0.022773
v 0.039299 0.257880 -0.021030
v -0.000000 0.283635 -0.027205
v -0.030638 0.279014 -0.010130
v -0.030638 0.269772 0.024019
v 0.000000 0.265151 0.041094
v 0.030638 0.269772 0.024019
v 0.030638 0.279014 -0.010130
v -0.008522 0.253951 0.008522
v 0.008522 0.253951 0.008522
v -0.008522 0.253951 -0.008522
v 0.008522 0.253951 -0.008522
v -0.004952 0.000000 -0.004952
v -0.004952 0.000000 0.004952
v 0.004952 0.000000 0.004952
v 0.004952 0.000000 -0.004952
v 0.005992 0.169586 0.001756
v -0.005992 0.169586 0.001756
v 0.005992 0.169586 -0.010229
v -0.005992 0.169586 -0.010229
vn -0.0000 -0.9653 -0.2612
vn -0.0000 0.9653 0.2612
vn 0.9256 -0.0849 0.3689
vn 0.7889 -0.1418 0.5979
vn -0.9228 0.0992 -0.3723
vn 0.1218 0.2456 -0.9617
vn -0.7963 0.1521 -0.5854
vn 0.1410 -0.2324 0.9623
vn -0.1410 -0.2324 0.9624
vn 0.7963 0.1521 -0.5854
vn -0.1218 0.2456 -0.9617
vn 0.9228 0.0992 -0.3723
vn -0.7889 -0.1418 0.5979
vn -0.9256 -0.0849 0.3689
vn 0.4685 0.1250 0.8746
vn 0.9371 0.3370 0.0912
vn -0.4685 0.1250 0.8746
vn -0.9371 0.3370 0.0912
vn 0.4685 0.5490 -0.6922
vn -0.0000 0.0188 0.9998
vn 1.0000 -0.0061 -0.0000
vn -1.0000 -0.0061 -0.0000
vn -0.0000 -0.0311 -0.9995
vn -0.0000 0.0202 -0.9998
vn -0.9996 -0.0300 -0.0000
vn 0.9996 -0.0300 -0.0000
vn -0.0000 -0.0799 0.9968
vn -0.4685 0.5490 -0.6922
vn -0.0000 -0.7075 -0.7067
vn 0.4347 -0.7693 -0.4682
vn 0.4427 -0.8964 0.0222
vn -0.0000 -0.9617 0.2742
vn -0.4427 -0.8964 0.0222
vn -0.4347 -0.7693 -0.4682
vn 0.3349 0.8397 0.4275
vn 0.3409 0.9387 0.0501
vn -0.0000 0.9896 -0.1438
vn -0.3409 0.9387 0.0501
vn -0.3349 0.8397 0.4275
vn -0.0000 0.7915 0.6112
vt 0.835497 0.549906
vt 0.838999 0.545061
vt 0.842500 0.540217
vt 0.835606 0.552096
vt 0.842604 0.542414
vt 0.839105 0.547255
vt 0.836292 0.557228
vt 0.845465 0.544538
vt 0.842407 0.548768
vt 0.833235 0.561457
vt 0.586818 0.086067
vt 0.586000 0.081703
vt 0.586055 0.087122
vt 0.584531 0.089231
vt 0.584044 0.084408
vt 0.586977 0.080351
vt 0.583067 0.085761
vt 0.583769 0.090285
vt 0.210181 0.067233
vt 0.210038 0.105930
vt 0.209739 0.067233
vt 0.209503 0.105930
vt 0.209579 0.125181
vt 0.210340 0.125181
s 0
usemtl Texture_Map
f 1/1/1 8/2/1 5/3/1
f 12/4/2 14/5/2 17/6/2
f 8/2/3 9/7/3 17/6/3
f 6/8/4 7/3/4 15/5/4
f 3/2/5 4/9/5 13/6/5
f 9/7/6 10/1/6 18/4/6
f 11/10/7 1/1/7 12/4/7
f 7/3/8 16/9/8 15/5/8
f 4/9/9 5/3/9 14/5/9
f 10/1/10 11/10/10 18/4/10
f 1/1/11 2/7/11 12/4/11
f 16/9/12 8/2/12 17/6/12
f 5/3/13 6/8/13 14/5/13
f 2/7/14 3/2/14 13/6/14
f 28/11/15 23/12/15 29/13/15
f 30/14/16 23/12/16 24/15/16
f 28/11/17 21/12/17 22/16/17
f 26/14/18 21/12/18 27/13/18
f 30/14/19 19/17/19 25/18/19
f 29/13/2 30/14/2 25/18/2
f 36/19/20 39/20/20 40/20/20
f 39/20/21 38/21/21 41/22/21
f 35/21/22 40/20/22 42/22/22
f 38/21/23 42/22/23 41/22/23
f 41/22/24 33/23/24 34/23/24
f 33/23/25 40/20/25 31/24/25
f 39/20/26 34/23/26 32/24/26
f 40/20/27 32/24/27 31/24/27
f 26/14/28 19/17/28 20/15/28
f 1/1/29 11/10/29 10/1/29
f 10/1/30 9/7/30 8/2/30
f 8/2/31 16/9/31 7/3/31
f 7/3/32 6/8/32 5/3/32
f 5/3/33 4/9/33 3/2/33
f 3/2/34 2/7/34 1/1/34
f 1/1/1 10/1/1 8/2/1
f 8/2/1 7/3/1 5/3/1
f 5/3/1 3/2/1 1/1/1
f 12/4/35 2/7/35 13/6/35
f 13/6/36 4/9/36 14/5/36
f 14/5/37 6/8/37 15/5/37
f 15/5/38 16/9/38 17/6/38
f 17/6/39 9/7/39 18/4/39
f 18/4/40 11/10/40 12/4/40
f 12/4/2 13/6/2 14/5/2
f 14/5/2 15/5/2 17/6/2
f 17/6/2 18/4/2 12/4/2
f 28/11/15 22/16/15 23/12/15
f 30/14/16 29/13/16 23/12/16
f 28/11/17 27/13/17 21/12/17
f 26/14/18 20/15/18 21/12/18
f 30/14/19 24/15/19 19/17/19
f 25/18/2 26/14/2 29/13/2
f 26/14/2 27/13/2 29/13/2
f 27/13/2 28/11/2 29/13/2
f 36/19/20 37/19/20 39/20/20
f 39/20/21 37/19/21 38/21/21
f 35/21/22 36/19/22 40/20/22
f 38/21/23 35/21/23 42/22/23
f 41/22/24 42/22/24 33/23/24
f 33/23/25 42/22/25 40/20/25
f 39/20/26 41/22/26 34/23/26
f 40/20/27 39/20/27 32/24/27
f 26/14/28 25/18/28 19/17/28
