# Blender 4.4.0
# www.blender.org
mtllib Env_Grass_Patch_Yellow_01.mtl
o Env_Grass_Patch_Yellow_01
v -0.017433 -0.000000 -0.014034
v 0.019704 -0.000000 -0.014034
v 0.009414 0.342229 -0.023309
v 0.001136 -0.000000 -0.005141
v -0.017433 0.191906 -0.014034
v 0.019704 0.191906 -0.014034
v 0.001136 0.191906 -0.005141
v -0.017433 0.191877 -0.017515
v -0.017433 -0.000000 -0.015121
v 0.001136 -0.000000 -0.008621
v 0.019704 -0.000000 -0.015143
v 0.019704 0.191877 -0.017515
v 0.001136 0.377149 -0.032365
v -0.007143 0.342229 -0.023309
v 0.001136 0.191877 -0.008621
v 0.011050 0.239169 0.005330
v 0.016730 -0.000000 -0.007702
v 0.022843 -0.000000 0.020569
v 0.021265 0.250001 0.011209
v 0.013017 -0.000000 0.007898
v 0.007458 0.215766 -0.004409
v 0.011802 0.215766 0.015682
v 0.009784 0.239179 0.005603
v 0.008724 0.215755 -0.004683
v 0.017558 -0.000000 -0.007880
v 0.015666 -0.000000 0.007325
v 0.023687 -0.000000 0.020387
v 0.013069 0.215755 0.015409
v 0.033340 0.277907 0.003503
v 0.018540 0.250156 -0.001395
v 0.005139 -0.000000 0.011857
v -0.011476 0.000000 -0.001945
v -0.053413 0.188379 0.037475
v -0.000076 -0.000000 0.001062
v -0.029075 0.153827 0.033561
v -0.040883 0.152687 0.023752
v -0.039199 0.169983 0.031792
v -0.029652 0.153544 0.034288
v 0.004762 -0.000000 0.012332
v -0.001282 -0.000000 0.002583
v -0.011860 0.000000 -0.001460
v -0.041459 0.152404 0.024479
v -0.061887 0.207352 0.051320
v -0.046034 0.189206 0.043648
v -0.039775 0.169700 0.032519
v -0.053215 0.230313 0.023395
v -0.025131 0.000000 0.012972
v -0.011428 -0.000000 -0.012157
v -0.062057 0.259231 0.014265
v -0.012297 0.000000 0.003804
v -0.052807 0.206006 0.031419
v -0.043069 0.208965 0.013560
v -0.052098 0.230475 0.024031
v -0.053925 0.205844 0.030783
v -0.025861 0.000000 0.012557
v -0.014635 0.000000 0.002473
v -0.012173 -0.000000 -0.012581
v -0.044186 0.208803 0.012924
v -0.081191 0.286538 0.014088
v -0.068193 0.257528 0.025480
vn -0.4246 0.1316 0.8958
vn -0.4304 0.0849 0.8986
vn -0.4320 -0.0000 0.9019
vn 0.4320 -0.0000 0.9019
vn -0.4311 -0.0642 -0.9000
vn 0.4311 -0.0642 -0.9000
vn 0.3304 -0.0000 -0.9439
vn -0.3314 -0.0000 -0.9435
vn 1.0000 -0.0000 -0.0000
vn 0.9977 0.0683 -0.0006
vn -1.0000 -0.0000 -0.0000
vn -0.9977 0.0683 -0.0006
vn 0.6660 -0.2458 -0.7043
vn 0.8367 -0.2835 0.4686
vn 0.9916 0.0388 0.1233
vn 0.8518 0.0299 -0.5230
vn -0.6984 0.4548 0.5526
vn -0.7971 0.3026 -0.5225
vn -0.9721 -0.0382 -0.2314
vn -0.9853 -0.0117 0.1702
vn 0.2115 0.0329 0.9768
vn 0.2114 0.0690 0.9750
vn -0.2113 0.0058 -0.9774
vn -0.2077 0.1516 -0.9664
vn 0.6172 0.6247 -0.4783
vn 0.8213 0.4811 -0.3065
vn 0.8711 0.2531 -0.4208
vn 0.6297 0.2762 -0.7261
vn -0.2154 -0.3943 0.8934
vn -0.8070 -0.4660 0.3628
vn -0.8214 -0.2569 0.5092
vn -0.3481 -0.2226 0.9106
vn -0.7827 -0.0463 -0.6207
vn -0.7772 -0.0312 -0.6285
vn 0.7806 0.0863 0.6191
vn 0.7393 0.1685 0.6520
vn -0.9353 -0.3279 -0.1329
vn -0.5323 -0.2305 -0.8146
vn -0.6680 -0.0252 -0.7437
vn -0.9785 -0.1305 -0.1600
vn 0.6163 0.4361 0.6557
vn 0.4805 0.2407 0.8433
vn 0.5813 0.0052 0.8137
vn 0.8459 0.1001 0.5238
vn 0.4674 0.1774 -0.8661
vn 0.4652 0.1879 -0.8650
vn -0.4742 -0.1415 0.8690
vn -0.4892 -0.0457 0.8710
vn 0.4304 0.0849 0.8986
vn 0.4246 0.1316 0.8958
vn 0.4811 -0.1114 -0.8695
vn -0.4811 -0.1114 -0.8695
vn 0.4319 -0.0113 -0.9018
vn -0.4319 -0.0111 -0.9018
vn 0.7551 -0.4566 -0.4705
vn 0.8587 -0.4864 0.1615
vn 0.9648 0.0164 -0.2626
vn 0.9875 0.0178 -0.1565
vn -0.6141 0.2668 0.7428
vn -0.8292 0.4898 -0.2692
vn -0.9682 -0.0107 0.2499
vn -0.7899 -0.0265 0.6126
vn 0.2112 0.0329 0.9769
vn 0.1614 0.4030 -0.9008
vn 0.2870 0.5747 -0.7664
vn 0.5686 0.2713 -0.7766
vn 0.2495 0.2072 -0.9459
vn -0.6791 -0.6058 0.4145
vn -0.2181 -0.5355 0.8159
vn -0.5608 -0.2655 0.7842
vn -0.6397 -0.2719 0.7190
vn -0.7745 -0.0430 -0.6311
vn 0.7655 0.0803 0.6384
vn -0.5648 -0.4005 -0.7215
vn -0.8664 -0.4623 -0.1888
vn -0.8891 -0.1085 -0.4448
vn -0.8398 -0.0921 -0.5350
vn 0.9326 0.3511 0.0829
vn 0.8329 0.4808 0.2741
vn 0.8825 0.1123 0.4567
vn 0.9883 0.1430 0.0538
vn 0.4867 0.1791 -0.8550
vn -0.4896 -0.1429 0.8601
vt 0.838004 0.476024
vt 0.838088 0.505750
vt 0.838130 0.512655
vt 0.838045 0.476024
vt 0.838004 0.438075
vt 0.838045 0.438075
vt 0.838020 0.476018
vt 0.838061 0.476018
vt 0.838050 0.438075
vt 0.838020 0.438075
vt 0.838050 0.438075
vt 0.837955 0.485370
vt 0.837928 0.487512
vt 0.837909 0.480740
vt 0.837986 0.487543
vt 0.838002 0.480740
vt 0.837946 0.438075
vt 0.838017 0.438075
vt 0.837886 0.438075
vt 0.837954 0.485372
vt 0.837964 0.493030
vt 0.838000 0.480742
vt 0.837943 0.438075
vt 0.838016 0.438075
vt 0.837907 0.480742
vt 0.837885 0.438075
vt 0.837833 0.471689
vt 0.837806 0.475326
vt 0.837742 0.479078
vt 0.837778 0.475490
vt 0.837824 0.468494
vt 0.837975 0.438075
vt 0.837925 0.438075
vt 0.837870 0.468268
vt 0.837829 0.471633
vt 0.837867 0.468212
vt 0.837821 0.468438
vt 0.837968 0.438075
vt 0.837923 0.438075
vt 0.837987 0.438075
vt 0.837989 0.438075
vt 0.837872 0.483619
vt 0.837914 0.489337
vt 0.837920 0.479365
vt 0.837862 0.489000
vt 0.837837 0.478780
vt 0.837969 0.438075
vt 0.837922 0.438075
vt 0.838038 0.438075
vt 0.837869 0.483651
vt 0.837915 0.494737
vt 0.837834 0.478812
vt 0.837962 0.438075
vt 0.837920 0.438075
vt 0.837917 0.479397
vt 0.838036 0.438075
s 0
usemtl Texture_Map
f 7/1/1 3/2/1 13/3/1
f 7/1/2 14/2/2 5/4/2
f 4/5/3 5/4/3 1/6/3
f 2/6/4 7/1/4 4/5/4
f 15/7/5 3/2/5 12/8/5
f 14/2/6 15/7/6 8/8/6
f 9/9/7 15/7/7 10/10/7
f 15/7/8 11/11/8 10/10/8
f 2/6/9 12/8/9 6/4/9
f 6/4/10 12/8/10 3/2/10
f 8/8/11 1/6/11 5/4/11
f 14/2/12 8/8/12 5/4/12
f 16/12/13 19/13/13 28/14/13
f 30/15/14 16/12/14 24/16/14
f 24/16/15 26/17/15 25/18/15
f 26/17/16 28/14/16 27/19/16
f 23/20/17 19/13/17 29/21/17
f 23/20/18 30/15/18 21/22/18
f 20/23/19 21/22/19 17/24/19
f 20/23/20 22/25/20 23/20/20
f 18/26/21 28/14/21 22/25/21
f 22/25/22 28/14/22 19/13/22
f 24/16/23 17/24/23 21/22/23
f 30/15/24 24/16/24 21/22/24
f 37/27/25 33/28/25 43/29/25
f 37/27/26 44/30/26 35/31/26
f 34/32/27 35/31/27 31/33/27
f 34/32/28 36/34/28 37/27/28
f 45/35/29 33/28/29 42/36/29
f 44/30/30 45/35/30 38/37/30
f 38/37/31 40/38/31 39/39/31
f 40/38/32 42/36/32 41/40/32
f 41/40/33 36/34/33 32/41/33
f 36/34/34 42/36/34 33/28/34
f 35/31/35 39/39/35 31/33/35
f 44/30/36 38/37/36 35/31/36
f 46/42/37 49/43/37 58/44/37
f 60/45/38 46/42/38 54/46/38
f 54/46/39 56/47/39 55/48/39
f 56/47/40 58/44/40 57/49/40
f 53/50/41 49/43/41 59/51/41
f 53/50/42 60/45/42 51/52/42
f 50/53/43 51/52/43 47/54/43
f 50/53/44 52/55/44 53/50/44
f 48/56/45 58/44/45 52/55/45
f 52/55/46 58/44/46 49/43/46
f 54/46/47 47/54/47 51/52/47
f 60/45/48 54/46/48 51/52/48
f 7/1/49 6/4/49 3/2/49
f 7/1/50 13/3/50 14/2/50
f 4/5/3 7/1/3 5/4/3
f 2/6/4 6/4/4 7/1/4
f 15/7/51 13/3/51 3/2/51
f 14/2/52 13/3/52 15/7/52
f 9/9/53 8/8/53 15/7/53
f 15/7/54 12/8/54 11/11/54
f 2/6/9 11/11/9 12/8/9
f 8/8/11 9/9/11 1/6/11
f 16/12/55 29/21/55 19/13/55
f 30/15/56 29/21/56 16/12/56
f 24/16/57 16/12/57 26/17/57
f 26/17/58 16/12/58 28/14/58
f 23/20/59 22/25/59 19/13/59
f 23/20/60 29/21/60 30/15/60
f 20/23/61 23/20/61 21/22/61
f 20/23/62 18/26/62 22/25/62
f 18/26/63 27/19/63 28/14/63
f 24/16/23 25/18/23 17/24/23
f 37/27/64 36/34/64 33/28/64
f 37/27/65 43/29/65 44/30/65
f 34/32/66 37/27/66 35/31/66
f 34/32/67 32/41/67 36/34/67
f 45/35/68 43/29/68 33/28/68
f 44/30/69 43/29/69 45/35/69
f 38/37/70 45/35/70 40/38/70
f 40/38/71 45/35/71 42/36/71
f 41/40/72 42/36/72 36/34/72
f 35/31/73 38/37/73 39/39/73
f 46/42/74 59/51/74 49/43/74
f 60/45/75 59/51/75 46/42/75
f 54/46/76 46/42/76 56/47/76
f 56/47/77 46/42/77 58/44/77
f 53/50/78 52/55/78 49/43/78
f 53/50/79 59/51/79 60/45/79
f 50/53/80 53/50/80 51/52/80
f 50/53/81 48/56/81 52/55/81
f 48/56/82 57/49/82 58/44/82
f 54/46/83 55/48/83 47/54/83
