# Blender 4.4.0
# www.blender.org
mtllib Env_Daffodil_Low_Detail_01.mtl
o Env_Daffodil_Low_Detail_01
v 0.008375 0.365564 0.052079
v -0.002973 0.368655 0.052079
v -0.011325 0.360373 0.052079
v -0.008327 0.348999 0.052079
v 0.003021 0.345908 0.052079
v 0.011373 0.354190 0.052079
v 0.020761 0.377848 0.102709
v -0.007418 0.385523 0.108432
v -0.028155 0.364957 0.102709
v -0.020713 0.336715 0.108432
v 0.007466 0.329040 0.102709
v 0.028203 0.349606 0.108432
v 0.005162 0.337784 0.098226
v 0.019478 0.351982 0.098226
v -0.019430 0.362581 0.098226
v -0.014292 0.343083 0.098226
v 0.014340 0.371480 0.098226
v -0.005114 0.376779 0.098226
v 0.011995 0.369154 0.097950
v -0.004273 0.373585 0.097950
v -0.016244 0.361713 0.097950
v -0.011947 0.345409 0.097950
v 0.004320 0.340978 0.097950
v 0.016292 0.352850 0.097950
v 0.004897 0.362114 0.050218
v -0.001725 0.363918 0.050218
v -0.006598 0.359085 0.050218
v -0.004849 0.352449 0.050218
v 0.001773 0.350645 0.050218
v 0.006646 0.355478 0.050218
v 0.000473 0.374242 0.051340
v 0.016122 0.359020 0.051340
v 0.000405 0.343799 0.051340
v -0.015243 0.359020 0.051340
v 0.000843 0.359844 0.003219
v 0.014102 0.348916 0.010866
v 0.000764 0.338121 0.018565
v -0.012495 0.349049 0.010919
v 0.000004 0.313061 -0.022750
v 0.008833 0.310985 -0.014209
v 0.000044 0.309056 -0.005593
v -0.008785 0.311132 -0.014134
v -0.000008 0.096535 0.003206
v 0.009689 0.096573 0.012840
v 0.000056 0.096612 0.022536
v -0.009641 0.096573 0.012903
v -0.000003 0.000000 -0.006561
v 0.008119 0.000000 0.001452
v 0.000051 0.000000 0.009518
v -0.008071 0.000000 0.001505
v -0.013489 0.000000 0.002836
v -0.011008 0.263207 -0.025851
v 0.011887 0.263207 -0.025851
v 0.000440 0.303926 -0.047503
v -0.021960 0.156669 0.002250
v 0.022839 0.156669 0.002250
v 0.000440 0.151822 -0.020559
v 0.013425 0.000000 0.002834
v -0.000032 0.000000 -0.011585
v -0.021960 0.156455 0.001289
v 0.022839 0.156396 0.001024
v 0.000440 0.151299 -0.022908
v 0.043830 0.433156 0.064618
v 0.000024 0.417306 0.050455
v -0.043782 0.433156 0.064618
v -0.051959 0.387294 0.061248
v -0.087588 0.357282 0.064618
v -0.051959 0.327269 0.050455
v -0.043782 0.281407 0.064618
v 0.000024 0.297257 0.061248
v 0.043830 0.281407 0.064618
v 0.052007 0.327269 0.040973
v 0.087636 0.357282 0.055136
v 0.052007 0.387294 0.061248
v 0.042986 0.431694 0.067023
v 0.000024 0.416150 0.052987
v -0.042938 0.431694 0.067023
v -0.050958 0.386716 0.063780
v -0.085900 0.357282 0.067023
v -0.050958 0.327847 0.052987
v -0.042938 0.282869 0.067023
v 0.000024 0.298413 0.063780
v 0.042986 0.282869 0.067023
v 0.051005 0.327847 0.045410
v 0.085948 0.357282 0.059446
v 0.051005 0.386716 0.063780
v 0.010347 0.375162 0.054040
v 0.000024 0.377929 0.054040
v -0.010300 0.375162 0.054040
v -0.017857 0.367605 0.054040
v -0.020623 0.357282 0.054040
v -0.017857 0.346958 0.054040
v -0.010300 0.339401 0.054040
v 0.000024 0.336635 0.054040
v 0.010347 0.339401 0.054040
v 0.017905 0.346958 0.054040
v 0.020671 0.357282 0.054040
v 0.017905 0.367605 0.054040
v 0.000033 0.377684 0.049974
v -0.000415 0.358838 0.049863
v -0.000040 0.336534 0.044664
vn 0.3499 -0.3528 -0.8678
vn -0.4805 -0.1266 -0.8678
vn 0.1306 0.4794 -0.8678
vn 0.7664 0.0726 -0.6382
vn -0.3203 -0.7000 -0.6382
vn -0.4461 0.6274 -0.6382
vn -0.6956 0.7014 -0.1557
vn -0.2596 -0.9531 -0.1557
vn 0.9552 0.2517 -0.1557
vn 0.2596 0.9531 -0.1557
vn -0.9552 -0.2517 -0.1557
vn 0.6956 -0.7014 -0.1557
vn 0.3116 0.5869 0.7473
vn 0.3524 -0.5633 0.7473
vn -0.5604 0.3571 0.7473
vn 0.5894 0.3068 0.7473
vn -0.6640 -0.0236 0.7473
vn 0.2586 0.9494 0.1785
vn 0.6929 -0.6986 0.1785
vn -0.6929 0.6986 0.1785
vn 0.9515 0.2507 0.1785
vn -0.2586 -0.9494 0.1785
vn -0.9515 -0.2507 0.1785
vn -0.0290 -0.6638 0.7473
vn -0.6788 0.7009 -0.2190
vn 0.6819 0.7010 -0.2090
vn 0.6897 -0.7121 0.1309
vn -0.6926 -0.7120 0.1158
vn -0.6704 0.3693 -0.6436
vn 0.6681 0.3519 -0.6556
vn 0.6932 -0.4620 0.5532
vn -0.6932 -0.4433 0.5683
vn -0.6877 -0.0864 -0.7208
vn 0.6820 -0.0871 -0.7261
vn 0.6864 0.0937 0.7212
vn -0.6807 0.0943 0.7265
vn -0.7075 0.0715 -0.7031
vn 0.7028 0.0720 -0.7077
vn 0.7061 -0.0946 0.7018
vn -0.7014 -0.0952 0.7064
vn -0.7789 0.1094 0.6176
vn 0.7207 0.1066 0.6850
vn 0.7173 0.0414 0.6956
vn -0.7304 0.0426 0.6817
vn 0.7367 -0.0930 -0.6698
vn -0.7405 -0.0933 -0.6656
vn -0.7303 -0.0487 -0.6814
vn 0.7300 -0.0533 -0.6813
vn -0.9951 0.0966 -0.0216
vn 0.9981 -0.0599 0.0133
vn 0.9951 0.0966 -0.0215
vn -0.9985 -0.0539 0.0119
vn -0.9074 0.1325 0.3988
vn 0.5713 -0.7874 0.2315
vn 0.3390 -0.8521 0.3988
vn -0.5684 0.7196 0.3988
vn 0.6482 0.7179 0.2538
vn -0.4182 0.8340 0.3600
vn -0.3390 -0.8521 0.3988
vn -0.5132 -0.7791 0.3600
vn 0.9074 0.1325 0.3988
vn 0.4182 0.8340 0.3600
vn 0.9723 -0.0564 0.2268
vn -0.9313 -0.0549 0.3600
vn -0.2939 -0.0495 0.9545
vn 0.0094 0.2290 0.9734
vn 0.1898 -0.2298 0.9545
vn -0.2030 -0.1064 0.9734
vn 0.2939 -0.0495 0.9545
vn 0.2926 0.3713 0.8812
vn -0.1041 0.2793 0.9545
vn 0.2030 -0.1064 0.9734
vn -0.0772 -0.3530 0.9324
vn -0.0094 0.2290 0.9734
vn 0.1936 -0.1226 0.9734
vn -0.0802 -0.2377 0.9680
vn -0.0000 -0.0000 1.0000
vn 0.2666 0.1178 -0.9566
vn 0.2119 0.0007 -0.9773
vn 0.0621 0.3647 -0.9290
vn -0.1334 -0.3857 -0.9129
vn -0.2666 0.1178 -0.9566
vn -0.2100 0.0107 -0.9776
vn -0.1659 0.2529 -0.9532
vn -0.0333 -0.3888 -0.9207
vn 0.6237 -0.4513 -0.6382
vn -0.7027 -0.3145 -0.6382
vn 0.0790 0.7658 -0.6382
vn 0.4805 0.1266 -0.8678
vn -0.1306 -0.4794 -0.8678
vn -0.3499 0.3528 -0.8678
vn 0.1069 0.3924 0.9136
vn 0.2864 -0.2887 0.9136
vn -0.2864 0.2887 0.9136
vn 0.3932 0.1036 0.9136
vn -0.3932 -0.1036 0.9136
vn -0.1069 -0.3924 0.9136
vn -0.6861 0.6955 -0.2134
vn 0.6898 0.6951 -0.2027
vn 0.6723 -0.7254 0.1476
vn -0.6750 -0.7257 0.1331
vn -0.6940 0.3484 -0.6300
vn 0.6958 0.3263 -0.6398
vn 0.6633 -0.4880 0.5674
vn -0.6697 -0.4648 0.5792
vn -0.7070 -0.0856 -0.7020
vn 0.7023 -0.0863 -0.7066
vn 0.7065 0.0929 0.7015
vn -0.7019 0.0935 0.7061
vn -0.7052 0.0713 -0.7054
vn 0.7005 0.0719 -0.7100
vn 0.7038 -0.0945 0.7041
vn -0.6991 -0.0950 0.7086
vn -0.7207 0.1066 0.6850
vn 0.7789 0.1094 0.6175
vn 0.7306 0.0380 0.6817
vn -0.7176 0.0457 0.6950
vn 0.7929 -0.0969 -0.6016
vn -0.7929 -0.0969 -0.6015
vn -0.7380 -0.0466 -0.6732
vn 0.7346 -0.0520 -0.6765
vn -0.9107 0.1342 0.3906
vn 0.5735 -0.7879 0.2246
vn 0.3391 -0.8558 0.3906
vn -0.5716 0.7216 0.3906
vn 0.6192 0.6763 0.3991
vn -0.4215 0.8250 0.3765
vn -0.3391 -0.8558 0.3906
vn -0.5037 -0.7775 0.3765
vn 0.9107 0.1342 0.3906
vn 0.4215 0.8249 0.3766
vn 0.9422 -0.0071 0.3348
vn -0.9252 -0.0475 0.3765
vn 0.0074 0.0275 0.9996
vn -0.0660 0.2464 0.9669
vn -0.0275 -0.0074 0.9996
vn -0.1804 -0.1804 0.9669
vn -0.0074 0.0275 0.9996
vn 0.1610 -0.1610 0.9737
vn -0.0202 -0.0202 0.9996
vn 0.1804 -0.1804 0.9669
vn 0.2199 -0.0589 0.9737
vn 0.0660 0.2464 0.9669
vn 0.2464 -0.0660 0.9669
vn -0.2464 -0.0660 0.9669
vn 0.2099 0.0119 -0.9777
vn 0.0623 0.2696 -0.9609
vn -0.0287 0.2264 -0.9736
vn -0.0918 -0.4433 -0.8916
vn -0.2098 0.0118 -0.9777
vn -0.1678 0.0889 -0.9818
vn -0.1471 0.2222 -0.9638
vn 0.0313 -0.2898 -0.9566
vt 0.582234 0.055699
vt 0.582278 0.032586
vt 0.582234 0.041396
vt 0.582234 0.046734
vt 0.582278 0.068770
vt 0.582234 0.066376
vt 0.582234 0.080680
vt 0.582278 0.081756
vt 0.582234 0.075341
vt 0.582334 0.053305
vt 0.582334 0.040319
vt 0.582334 0.089489
vt 0.581778 0.064152
vt 0.581778 0.072496
vt 0.581778 0.049579
vt 0.581778 0.052694
vt 0.581778 0.057923
vt 0.581778 0.069382
vt 0.582231 0.049077
vt 0.582231 0.077462
vt 0.582231 0.056574
vt 0.581759 0.054352
vt 0.581759 0.056169
vt 0.582231 0.065502
vt 0.581759 0.067724
vt 0.582231 0.044613
vt 0.581759 0.059221
vt 0.581759 0.062855
vt 0.581759 0.065907
vt 0.582231 0.072999
vt 0.229232 0.166545
vt 0.228913 0.162670
vt 0.229232 0.164203
vt 0.228913 0.162649
vt 0.228974 0.160988
vt 0.229232 0.161862
vt 0.228648 0.157134
vt 0.228853 0.164330
vt 0.228715 0.156814
vt 0.228716 0.156837
vt 0.228852 0.123827
vt 0.228783 0.156518
vt 0.228928 0.123833
vt 0.228929 0.123833
vt 0.228839 0.108978
vt 0.228839 0.108978
vt 0.228902 0.108978
vt 0.229005 0.123839
vt 0.204855 0.059091
vt 0.204803 0.080550
vt 0.204589 0.088394
vt 0.205081 0.060025
vt 0.205086 0.029842
vt 0.204944 0.029842
vt 0.204832 0.058990
vt 0.205069 0.059972
vt 0.205071 0.059984
vt 0.703724 0.574723
vt 0.703768 0.583277
vt 0.703757 0.583558
vt 0.703663 0.568941
vt 0.703554 0.563270
vt 0.703524 0.563159
vt 0.703724 0.557377
vt 0.703768 0.554605
vt 0.703757 0.554323
vt 0.703768 0.568941
vt 0.703757 0.568941
vt 0.703693 0.568941
vt 0.703617 0.580505
vt 0.703617 0.563159
vt 0.703629 0.580282
vt 0.703627 0.572385
vt 0.703627 0.565496
vt 0.703736 0.557600
vt 0.703629 0.563270
vt 0.703627 0.568941
vt 0.703736 0.574611
vt 0.703690 0.568941
vt 0.703678 0.574723
vt 0.703643 0.563159
vt 0.228775 0.108978
vt 0.703627 0.572918
vt 0.703627 0.564963
vt 0.703627 0.566952
vt 0.703627 0.570930
s 0
usemtl Texture_Map
f 14/1/1 11/2/1 13/3/1
f 16/4/2 9/5/2 15/6/2
f 18/7/3 7/8/3 17/9/3
f 14/1/4 7/8/4 12/10/4
f 16/4/5 11/2/5 10/11/5
f 18/7/6 9/5/6 8/12/6
f 3/13/7 18/7/7 2/14/7
f 5/15/8 16/4/8 4/16/8
f 6/17/9 17/9/9 14/1/9
f 2/14/10 17/9/10 1/18/10
f 4/16/11 15/6/11 3/13/11
f 5/15/12 14/1/12 13/3/12
f 11/2/13 22/19/13 10/11/13
f 9/5/14 20/20/14 8/12/14
f 24/21/15 11/2/15 12/10/15
f 22/19/16 9/5/16 10/11/16
f 7/8/17 24/21/17 12/10/17
f 22/19/18 29/22/18 28/23/18
f 21/24/19 26/25/19 20/20/19
f 23/26/20 30/27/20 29/22/20
f 21/24/21 28/23/21 27/28/21
f 20/20/22 25/29/22 19/30/22
f 19/30/23 30/27/23 24/21/23
f 20/20/24 7/8/24 8/12/24
f 31/31/25 38/32/25 34/33/25
f 36/34/26 31/31/26 32/33/26
f 37/35/27 32/33/27 33/36/27
f 34/33/28 37/35/28 33/36/28
f 39/37/29 38/32/29 35/38/29
f 36/34/30 39/37/30 35/38/30
f 37/35/31 40/39/31 36/34/31
f 42/40/32 37/35/32 38/32/32
f 43/41/33 42/40/33 39/37/33
f 40/39/34 43/41/34 39/37/34
f 41/42/35 44/43/35 40/39/35
f 46/44/36 41/42/36 42/40/36
f 43/41/37 50/45/37 46/44/37
f 48/46/38 43/41/38 44/43/38
f 49/47/39 44/43/39 45/48/39
f 46/44/40 49/47/40 45/48/40
f 57/49/41 53/50/41 54/51/41
f 57/49/42 52/50/42 55/52/42
f 51/53/43 57/49/43 55/52/43
f 58/53/44 57/49/44 59/54/44
f 62/55/45 53/50/45 61/56/45
f 52/50/46 62/55/46 60/57/46
f 51/53/47 62/55/47 59/54/47
f 62/55/48 58/53/48 59/54/48
f 52/50/49 60/57/49 55/52/49
f 58/53/50 61/56/50 56/52/50
f 56/52/51 61/56/51 53/50/51
f 55/52/52 60/57/52 51/53/52
f 66/58/53 77/59/53 65/60/53
f 73/61/54 84/62/54 72/63/54
f 70/64/55 81/65/55 69/66/55
f 79/67/56 66/58/56 67/68/56
f 74/58/57 85/69/57 73/61/57
f 64/70/58 75/59/58 63/60/58
f 83/65/59 70/64/59 71/66/59
f 68/71/60 79/67/60 67/68/60
f 75/59/61 74/58/61 63/60/61
f 77/59/62 64/70/62 65/60/62
f 84/62/63 71/66/63 72/63/63
f 81/65/64 68/71/64 69/66/64
f 76/72/65 87/73/65 75/59/65
f 95/74/66 82/75/66 83/65/66
f 80/76/67 91/77/67 79/67/67
f 87/73/68 86/78/68 75/59/68
f 89/73/69 76/72/69 77/59/69
f 84/62/70 95/74/70 83/65/70
f 93/74/71 80/76/71 81/65/71
f 78/78/72 89/73/72 77/59/72
f 97/77/73 84/62/73 85/69/73
f 82/75/74 93/74/74 81/65/74
f 91/77/75 78/78/75 79/67/75
f 86/78/76 97/77/76 85/69/76
f 95/74/77 97/77/77 87/73/77
f 74/58/78 64/70/78 63/60/78
f 74/58/79 100/79/79 99/80/79
f 72/63/80 100/79/80 73/61/80
f 72/63/81 70/64/81 101/81/81
f 64/70/82 66/58/82 65/60/82
f 100/79/83 66/58/83 99/80/83
f 100/79/84 68/71/84 67/68/84
f 70/64/85 68/71/85 101/81/85
f 14/1/86 12/10/86 11/2/86
f 16/4/87 10/11/87 9/5/87
f 18/7/88 8/12/88 7/8/88
f 14/1/89 17/9/89 7/8/89
f 16/4/90 13/3/90 11/2/90
f 18/7/91 15/6/91 9/5/91
f 3/13/7 15/6/7 18/7/7
f 5/15/8 13/3/8 16/4/8
f 6/17/9 1/18/9 17/9/9
f 2/14/10 18/7/10 17/9/10
f 4/16/11 16/4/11 15/6/11
f 5/15/12 6/17/12 14/1/12
f 11/2/92 23/26/92 22/19/92
f 9/5/93 21/24/93 20/20/93
f 24/21/94 23/26/94 11/2/94
f 22/19/95 21/24/95 9/5/95
f 7/8/96 19/30/96 24/21/96
f 22/19/18 23/26/18 29/22/18
f 21/24/19 27/28/19 26/25/19
f 23/26/20 24/21/20 30/27/20
f 21/24/21 22/19/21 28/23/21
f 20/20/22 26/25/22 25/29/22
f 19/30/23 25/29/23 30/27/23
f 20/20/97 19/30/97 7/8/97
f 31/31/98 35/38/98 38/32/98
f 36/34/99 35/38/99 31/31/99
f 37/35/100 36/34/100 32/33/100
f 34/33/101 38/32/101 37/35/101
f 39/37/102 42/40/102 38/32/102
f 36/34/103 40/39/103 39/37/103
f 37/35/104 41/42/104 40/39/104
f 42/40/105 41/42/105 37/35/105
f 43/41/106 46/44/106 42/40/106
f 40/39/107 44/43/107 43/41/107
f 41/42/108 45/48/108 44/43/108
f 46/44/109 45/48/109 41/42/109
f 43/41/110 47/82/110 50/45/110
f 48/46/111 47/82/111 43/41/111
f 49/47/112 48/46/112 44/43/112
f 46/44/113 50/45/113 49/47/113
f 57/49/114 56/52/114 53/50/114
f 57/49/115 54/51/115 52/50/115
f 51/53/116 59/54/116 57/49/116
f 58/53/117 56/52/117 57/49/117
f 62/55/118 54/51/118 53/50/118
f 52/50/119 54/51/119 62/55/119
f 51/53/120 60/57/120 62/55/120
f 62/55/121 61/56/121 58/53/121
f 66/58/122 78/78/122 77/59/122
f 73/61/123 85/69/123 84/62/123
f 70/64/124 82/75/124 81/65/124
f 79/67/125 78/78/125 66/58/125
f 74/58/126 86/78/126 85/69/126
f 64/70/127 76/72/127 75/59/127
f 83/65/128 82/75/128 70/64/128
f 68/71/129 80/76/129 79/67/129
f 75/59/130 86/78/130 74/58/130
f 77/59/131 76/72/131 64/70/131
f 84/62/132 83/65/132 71/66/132
f 81/65/133 80/76/133 68/71/133
f 76/72/134 88/83/134 87/73/134
f 95/74/135 94/84/135 82/75/135
f 80/76/136 92/85/136 91/77/136
f 87/73/137 98/86/137 86/78/137
f 89/73/138 88/83/138 76/72/138
f 84/62/139 96/85/139 95/74/139
f 93/74/140 92/85/140 80/76/140
f 78/78/141 90/86/141 89/73/141
f 97/77/142 96/85/142 84/62/142
f 82/75/143 94/84/143 93/74/143
f 91/77/144 90/86/144 78/78/144
f 86/78/145 98/86/145 97/77/145
f 87/73/77 88/83/77 89/73/77
f 89/73/77 90/86/77 91/77/77
f 91/77/77 92/85/77 93/74/77
f 93/74/77 94/84/77 95/74/77
f 95/74/77 96/85/77 97/77/77
f 97/77/77 98/86/77 87/73/77
f 87/73/77 89/73/77 91/77/77
f 91/77/77 93/74/77 87/73/77
f 93/74/77 95/74/77 87/73/77
f 74/58/146 99/80/146 64/70/146
f 74/58/147 73/61/147 100/79/147
f 72/63/148 101/81/148 100/79/148
f 72/63/149 71/66/149 70/64/149
f 64/70/150 99/80/150 66/58/150
f 100/79/151 67/68/151 66/58/151
f 100/79/152 101/81/152 68/71/152
f 70/64/153 69/66/153 68/71/153
