# Blender 4.4.0
# www.blender.org
mtllib Env_Flowers_05.mtl
o Env_Flowers_05
v -0.000000 0.454852 0.069079
v -0.024766 0.452263 0.079005
v -0.035024 0.446014 0.102970
v -0.024766 0.439764 0.126934
v -0.000000 0.437176 0.136861
v 0.024766 0.439764 0.126934
v 0.035024 0.446014 0.102970
v 0.024766 0.452263 0.079005
v -0.030728 0.464391 0.076086
v -0.000000 0.467602 0.063770
v -0.043457 0.456637 0.105820
v -0.030728 0.448883 0.135554
v -0.000000 0.445671 0.147870
v 0.030728 0.448883 0.135554
v 0.043457 0.456637 0.105820
v 0.030728 0.464391 0.076086
v -0.016436 0.470891 0.092551
v -0.000000 0.472609 0.085963
v -0.023245 0.466743 0.108455
v -0.016436 0.462595 0.124360
v -0.000000 0.460877 0.130948
v 0.016436 0.462595 0.124360
v 0.023245 0.466743 0.108455
v 0.016436 0.470891 0.092551
v 0.000000 0.496613 0.025588
v -0.041347 0.511830 0.017054
v -0.062029 0.490129 0.050450
v -0.099821 0.497075 0.073635
v -0.087723 0.474477 0.110472
v -0.099821 0.476208 0.153654
v -0.062029 0.458824 0.170494
v -0.041347 0.461452 0.210235
v 0.000000 0.452341 0.195356
v 0.041347 0.461452 0.210235
v 0.062029 0.458824 0.170494
v 0.099821 0.476208 0.153654
v 0.087723 0.474477 0.110472
v 0.099821 0.497075 0.073635
v 0.062029 0.490129 0.050450
v 0.041347 0.511830 0.017054
v -0.000000 0.454179 0.076973
v -0.012864 0.455129 0.073331
v -0.019299 0.452162 0.084708
v -0.031057 0.450538 0.090935
v -0.027293 0.447292 0.103383
v -0.031057 0.444046 0.115831
v -0.019299 0.442422 0.122058
v -0.012864 0.439455 0.133435
v -0.000000 0.440405 0.129793
v 0.012864 0.439455 0.133435
v 0.019299 0.442422 0.122058
v 0.031057 0.444046 0.115831
v 0.027293 0.447292 0.103383
v 0.031057 0.450538 0.090935
v 0.019299 0.452162 0.084708
v 0.012864 0.455129 0.073331
v -0.041347 0.509021 0.016321
v 0.000000 0.493804 0.024856
v -0.062029 0.487320 0.049718
v -0.099821 0.494265 0.072903
v -0.087723 0.471668 0.109740
v -0.099821 0.473398 0.152921
v -0.062029 0.456015 0.169761
v -0.041347 0.458643 0.209503
v 0.000000 0.449532 0.194623
v 0.041347 0.458643 0.209503
v 0.062029 0.456015 0.169761
v 0.099821 0.473398 0.152921
v 0.087723 0.471668 0.109740
v 0.099821 0.494265 0.072903
v 0.062029 0.487320 0.049718
v 0.041347 0.509021 0.016321
v -0.012864 0.447660 0.071383
v -0.000000 0.446710 0.075025
v -0.019299 0.444693 0.082760
v -0.031057 0.443069 0.088987
v -0.027293 0.439823 0.101435
v -0.031057 0.436576 0.113883
v -0.019299 0.434953 0.120110
v -0.012864 0.431986 0.131487
v -0.000000 0.432935 0.127845
v 0.012864 0.431986 0.131487
v 0.019299 0.434953 0.120110
v 0.031057 0.436576 0.113883
v 0.027293 0.439823 0.101435
v 0.031057 0.443069 0.088987
v 0.019299 0.444693 0.082760
v 0.012864 0.447660 0.071383
v 0.004567 0.442140 0.094342
v -0.004567 0.442140 0.094342
v -0.009134 0.442140 0.102252
v -0.004567 0.442140 0.110162
v 0.004567 0.442140 0.110162
v 0.009134 0.442140 0.102252
v 0.004567 0.000000 -0.007910
v -0.004567 0.000000 -0.007910
v -0.009134 0.000000 0.000000
v -0.004567 0.000000 0.007910
v 0.004567 0.000000 0.007910
v 0.009134 0.000000 0.000000
v 0.013246 0.086598 -0.004237
v 0.013068 0.207879 0.017168
v 0.008502 0.207870 0.009257
v 0.008684 0.086680 -0.012190
v -0.000450 0.086680 0.003630
v -0.000632 0.207870 0.025076
v 0.008502 0.207875 0.025077
v 0.008683 0.086667 0.003636
v -0.000450 0.086667 -0.012183
v -0.000632 0.207875 0.009257
v -0.005199 0.207879 0.017168
v -0.005021 0.086598 -0.004237
v 0.010681 0.348939 0.058692
v 0.006115 0.352286 0.051525
v 0.006115 0.345587 0.065857
v -0.003019 0.352288 0.051526
v -0.003019 0.345585 0.065855
v -0.007586 0.348939 0.058692
vn -0.1868 0.7307 0.6566
vn -0.3132 -0.3651 -0.8767
vn 0.3132 -0.3651 -0.8767
vn 0.7530 -0.6394 0.1556
vn -0.3113 -0.7524 0.5805
vn -0.7549 -0.4790 -0.4480
vn 0.7549 -0.4790 -0.4480
vn 0.3113 -0.7524 0.5805
vn -0.7530 -0.6394 0.1556
vn -0.0000 0.9676 0.2523
vn -0.4510 0.8917 0.0395
vn 0.4510 0.8917 0.0395
vn 0.1868 0.7307 0.6566
vn -0.4510 0.7974 0.4010
vn -0.1868 0.9583 -0.2162
vn 0.1868 0.9583 -0.2162
vn 0.4510 0.7974 0.4010
vn 0.4640 0.8148 0.3475
vn -0.4640 0.8807 0.0947
vn 0.4640 0.8807 0.0947
vn -0.4640 0.8148 0.3475
vn 0.4205 0.9073 -0.0071
vn -0.4205 0.7883 0.4492
vn 0.2358 0.9539 -0.1858
vn -0.2358 0.7417 0.6279
vn 0.1306 0.9649 -0.2279
vn -0.1306 0.7307 0.6701
vn -0.1306 0.9649 -0.2279
vn 0.2358 0.7417 0.6279
vn -0.2358 0.9539 -0.1858
vn 0.4205 0.7883 0.4492
vn -0.4205 0.9073 -0.0071
vn -0.5174 -0.7947 -0.3176
vn 0.5174 -0.8485 -0.1109
vn -0.5174 -0.8485 -0.1109
vn 0.5174 -0.7947 -0.3176
vn -0.4413 -0.8949 0.0667
vn 0.4413 -0.7483 -0.4952
vn -0.2903 -0.9330 0.2128
vn 0.2903 -0.7102 -0.6413
vn -0.1068 -0.9522 0.2864
vn 0.1068 -0.6910 -0.7149
vn 0.1068 -0.9522 0.2864
vn -0.2903 -0.7102 -0.6413
vn 0.1306 0.7307 0.6701
vn 0.2903 -0.9330 0.2128
vn -0.4413 -0.7483 -0.4952
vn 0.4413 -0.8949 0.0667
vn -0.0000 -0.9676 -0.2523
vn -0.9598 0.0709 -0.2717
vn 0.9598 -0.0709 0.2717
vn -0.4801 -0.2214 0.8488
vn 0.4801 0.2214 -0.8488
vn -0.8772 -0.1211 0.4646
vn 0.8772 0.1211 -0.4645
vn 0.2808 -0.2422 0.9287
vn 0.2808 0.2422 -0.9287
vn -0.2808 0.2422 -0.9287
vn -0.2808 -0.2422 0.9287
vn -0.8772 0.1211 -0.4645
vn 0.8772 -0.1211 0.4646
vn -0.4801 0.2214 -0.8488
vn 0.4801 -0.2214 0.8488
vn -0.9598 -0.0709 0.2717
vn 0.9598 0.0709 -0.2717
vn -0.1068 -0.6910 -0.7149
vn 0.8650 -0.0165 0.5015
vn -0.8631 0.0655 0.5008
vn -0.0007 -0.0493 -0.9988
vn -0.8625 0.1294 -0.4892
vn -0.0001 0.2809 -0.9597
vn -0.0001 -0.2839 0.9588
vn -0.0007 0.0493 0.9988
vn 0.8652 -0.0656 -0.4971
vn -0.8668 0.0166 -0.4984
vn -0.8644 -0.1565 0.4778
vn 0.8625 -0.1299 0.4890
vn -0.0010 0.1743 -0.9847
vn -0.8607 -0.0897 0.5011
vn 0.8628 -0.0868 0.4981
vn -0.8639 0.0865 -0.4961
vn -0.0000 -0.1743 0.9847
vn 0.8626 0.0892 -0.4980
vn 0.8644 0.1554 -0.4782
vn 0.8405 0.2408 -0.4853
vn 0.8466 -0.2107 0.4888
vn -0.8415 -0.2364 0.4858
vn -0.0000 -0.4171 0.9089
vn -0.0000 0.4302 -0.9027
vn -0.8459 0.2142 -0.4884
vn 0.4184 0.9017 0.1086
vn -0.4184 0.8400 0.3456
vn 0.4184 0.8400 0.3456
vn -0.4184 0.9017 0.1086
vn 0.2093 0.9673 -0.1430
vn -0.2093 0.7743 0.5972
vn 0.3824 0.9237 0.0246
vn -0.3824 0.8180 0.4296
vn -0.1224 0.9764 -0.1778
vn 0.1224 0.7653 0.6320
vn 0.1224 0.9764 -0.1778
vn 0.3824 0.8180 0.4296
vn -0.3824 0.9237 0.0246
vn 0.2093 0.7743 0.5972
vn -0.2093 0.9673 -0.1430
vn -0.4737 -0.8766 -0.0854
vn 0.4737 -0.8066 -0.3536
vn -0.4737 -0.8066 -0.3536
vn 0.4737 -0.8766 -0.0854
vn -0.2369 -0.9508 0.1995
vn 0.2369 -0.7323 -0.6384
vn -0.4329 -0.9014 0.0098
vn 0.4329 -0.7818 -0.4487
vn 0.1386 -0.9611 0.2389
vn -0.1386 -0.7221 -0.6778
vn -0.1386 -0.9611 0.2389
vn -0.4329 -0.7818 -0.4487
vn -0.1224 0.7653 0.6320
vn 0.4329 -0.9014 0.0098
vn -0.2369 -0.7323 -0.6384
vn 0.2369 -0.9508 0.1995
vn -0.8772 -0.1211 0.4645
vn 0.8772 -0.1211 0.4645
vn 0.1386 -0.7221 -0.6778
vn 0.8659 -0.0165 0.4999
vn -0.8642 0.0657 0.4989
vn -0.0000 -0.0492 -0.9988
vn -0.8586 0.1309 -0.4957
vn 0.0001 0.2809 -0.9597
vn 0.0001 -0.2839 0.9588
vn -0.0000 0.0493 0.9988
vn 0.8642 -0.0655 -0.4989
vn -0.8659 0.0167 -0.4999
vn -0.8549 -0.1598 0.4935
vn 0.8585 -0.1314 0.4956
vn -0.0000 0.1742 -0.9847
vn -0.8625 -0.0894 0.4980
vn 0.8616 -0.0870 0.5001
vn -0.8628 0.0866 -0.4981
vn -0.0010 -0.1742 0.9847
vn 0.8644 0.0889 -0.4950
vn 0.8550 0.1586 -0.4937
vn 0.8659 0.2272 -0.4456
vn 0.8659 -0.1999 0.4585
vn -0.8659 -0.2235 0.4474
vn -0.8660 0.2029 -0.4571
vt 0.851521 0.541968
vt 0.850471 0.545830
vt 0.850971 0.542701
vt 0.848447 0.543472
vt 0.847767 0.546972
vt 0.848004 0.544063
vt 0.848316 0.546239
vt 0.850586 0.540620
vt 0.849644 0.544470
vt 0.851029 0.540029
vt 0.849517 0.542046
vt 0.849761 0.546776
vt 0.850765 0.545438
vt 0.849051 0.547722
vt 0.848757 0.548114
vt 0.724844 0.566399
vt 0.723971 0.560937
vt 0.723199 0.571556
vt 0.725083 0.559455
vt 0.726771 0.566794
vt 0.727523 0.562827
vt 0.722164 0.569971
vt 0.725869 0.558407
vt 0.729297 0.563427
vt 0.723186 0.561984
vt 0.720674 0.574923
vt 0.728633 0.561348
vt 0.721054 0.571450
vt 0.723884 0.559232
vt 0.724811 0.565758
vt 0.723167 0.570915
vt 0.724996 0.557751
vt 0.726738 0.566153
vt 0.727490 0.562186
vt 0.722132 0.569330
vt 0.725782 0.556703
vt 0.729264 0.562786
vt 0.723099 0.560280
vt 0.720641 0.574282
vt 0.728600 0.560707
vt 0.721022 0.570809
vt 0.724440 0.558491
vt 0.723607 0.559603
vt 0.725274 0.557380
vt 0.215495 0.076685
vt 0.215370 0.061489
vt 0.215225 0.076673
vt 0.215495 0.076687
vt 0.215099 0.061489
vt 0.214952 0.076685
vt 0.214952 0.076687
vt 0.217138 0.123258
vt 0.215959 0.097938
vt 0.217383 0.122671
vt 0.217138 0.123258
vt 0.215688 0.097937
vt 0.216230 0.097936
vt 0.217629 0.122083
vt 0.217629 0.122083
vt 0.215642 0.061489
vt 0.216230 0.097937
vt 0.215688 0.097936
vt 0.218606 0.139012
vt 0.218877 0.139012
vt 0.219149 0.139012
vt 0.724527 0.560196
vt 0.725361 0.559085
vt 0.723693 0.561307
vt 0.725706 0.558624
vt 0.723348 0.561767
vt 0.725619 0.556920
vt 0.723261 0.560063
s 0
usemtl Texture_Map
f 13/1/1 20/2/1 12/3/1
f 2/4/2 10/5/2 1/6/2
f 8/4/3 10/5/3 16/7/3
f 6/8/4 15/9/4 14/3/4
f 5/10/5 12/3/5 4/8/5
f 3/11/6 9/7/6 2/4/6
f 7/11/7 16/7/7 15/9/7
f 5/10/8 14/3/8 13/1/8
f 4/8/9 11/9/9 3/11/9
f 19/12/10 21/13/10 23/12/10
f 11/9/11 17/14/11 9/7/11
f 15/9/12 24/14/12 23/12/12
f 13/1/13 22/2/13 21/13/13
f 12/3/14 19/12/14 11/9/14
f 10/5/15 17/14/15 18/15/15
f 10/5/16 24/14/16 16/7/16
f 14/3/17 23/12/17 22/2/17
f 29/16/18 44/17/18 28/18/18
f 37/16/19 52/19/19 36/20/19
f 46/19/20 29/16/20 30/20/20
f 54/17/21 37/16/21 38/18/21
f 31/21/22 46/19/22 30/20/22
f 39/22/23 54/17/23 38/18/23
f 48/23/24 31/21/24 32/24/24
f 56/25/25 39/22/25 40/26/25
f 33/27/26 48/23/26 32/24/26
f 25/28/27 56/25/27 40/26/27
f 50/23/28 33/27/28 34/24/28
f 27/22/29 42/25/29 26/26/29
f 35/21/30 50/23/30 34/24/30
f 44/17/31 27/22/31 28/18/31
f 52/19/32 35/21/32 36/20/32
f 76/29/33 61/30/33 60/31/33
f 84/32/34 69/30/34 68/33/34
f 61/30/35 78/32/35 62/33/35
f 69/30/36 86/29/36 70/31/36
f 78/32/37 63/34/37 62/33/37
f 86/29/38 71/35/38 70/31/38
f 63/34/39 80/36/39 64/37/39
f 71/35/40 88/38/40 72/39/40
f 80/36/41 65/40/41 64/37/41
f 88/38/42 58/41/42 72/39/42
f 65/40/43 82/36/43 66/37/43
f 73/38/44 59/35/44 57/39/44
f 42/25/45 25/28/45 26/26/45
f 82/36/46 67/34/46 66/37/46
f 59/35/47 76/29/47 60/31/47
f 67/34/48 84/32/48 68/33/48
f 77/42/49 75/43/49 83/44/49
f 29/16/50 62/33/50 30/20/50
f 37/16/51 70/31/51 38/18/51
f 62/33/52 31/21/52 30/20/52
f 70/31/53 39/22/53 38/18/53
f 31/21/54 64/37/54 32/24/54
f 39/22/55 72/39/55 40/26/55
f 64/37/56 33/27/56 32/24/56
f 25/28/57 57/39/57 26/26/57
f 72/39/58 25/28/58 40/26/58
f 33/27/59 66/37/59 34/24/59
f 57/39/60 27/22/60 26/26/60
f 66/37/61 35/21/61 34/24/61
f 27/22/62 60/31/62 28/18/62
f 35/21/63 68/33/63 36/20/63
f 60/31/64 29/16/64 28/18/64
f 68/33/65 37/16/65 36/20/65
f 58/41/66 73/38/66 57/39/66
f 108/45/67 100/46/67 101/47/67
f 97/46/68 105/48/68 112/47/68
f 95/49/69 109/50/69 104/51/69
f 116/52/70 111/53/70 118/54/70
f 114/55/71 110/56/71 116/52/71
f 106/57/72 115/58/72 117/59/72
f 105/48/73 99/60/73 108/45/73
f 101/47/74 95/49/74 104/51/74
f 96/49/75 112/47/75 109/50/75
f 118/54/76 106/57/76 117/59/76
f 107/61/77 113/54/77 115/58/77
f 109/50/78 103/62/78 104/51/78
f 105/48/79 111/53/79 112/47/79
f 108/45/80 102/53/80 107/61/80
f 112/47/81 110/56/81 109/50/81
f 105/48/82 107/61/82 106/57/82
f 101/47/83 103/62/83 102/53/83
f 102/53/84 114/55/84 113/54/84
f 113/54/85 89/63/85 94/64/85
f 115/58/86 94/64/86 93/65/86
f 91/64/87 117/59/87 92/65/87
f 117/59/88 93/65/88 92/65/88
f 89/63/89 116/52/89 90/63/89
f 90/63/90 118/54/90 91/64/90
f 13/1/1 21/13/1 20/2/1
f 2/4/2 9/7/2 10/5/2
f 8/4/3 1/6/3 10/5/3
f 6/8/4 7/11/4 15/9/4
f 5/10/5 13/1/5 12/3/5
f 3/11/6 11/9/6 9/7/6
f 7/11/7 8/4/7 16/7/7
f 5/10/8 6/8/8 14/3/8
f 4/8/9 12/3/9 11/9/9
f 18/15/10 17/14/10 19/12/10
f 19/12/10 20/2/10 21/13/10
f 21/13/10 22/2/10 23/12/10
f 23/12/10 24/14/10 18/15/10
f 18/15/10 19/12/10 23/12/10
f 11/9/11 19/12/11 17/14/11
f 15/9/12 16/7/12 24/14/12
f 13/1/13 14/3/13 22/2/13
f 12/3/14 20/2/14 19/12/14
f 10/5/15 9/7/15 17/14/15
f 10/5/16 18/15/16 24/14/16
f 14/3/17 15/9/17 23/12/17
f 29/16/91 45/66/91 44/17/91
f 37/16/92 53/66/92 52/19/92
f 46/19/93 45/66/93 29/16/93
f 54/17/94 53/66/94 37/16/94
f 31/21/95 47/67/95 46/19/95
f 39/22/96 55/68/96 54/17/96
f 48/23/97 47/67/97 31/21/97
f 56/25/98 55/68/98 39/22/98
f 33/27/99 49/69/99 48/23/99
f 25/28/100 41/70/100 56/25/100
f 50/23/101 49/69/101 33/27/101
f 27/22/102 43/68/102 42/25/102
f 35/21/103 51/67/103 50/23/103
f 44/17/104 43/68/104 27/22/104
f 52/19/105 51/67/105 35/21/105
f 76/29/106 77/42/106 61/30/106
f 84/32/107 85/42/107 69/30/107
f 61/30/108 77/42/108 78/32/108
f 69/30/109 85/42/109 86/29/109
f 78/32/110 79/44/110 63/34/110
f 86/29/111 87/43/111 71/35/111
f 63/34/112 79/44/112 80/36/112
f 71/35/113 87/43/113 88/38/113
f 80/36/114 81/71/114 65/40/114
f 88/38/115 74/72/115 58/41/115
f 65/40/116 81/71/116 82/36/116
f 73/38/117 75/43/117 59/35/117
f 42/25/118 41/70/118 25/28/118
f 82/36/119 83/44/119 67/34/119
f 59/35/120 75/43/120 76/29/120
f 67/34/121 83/44/121 84/32/121
f 75/43/49 73/38/49 74/72/49
f 74/72/49 88/38/49 87/43/49
f 87/43/49 86/29/49 85/42/49
f 85/42/49 84/32/49 83/44/49
f 83/44/49 82/36/49 81/71/49
f 81/71/49 80/36/49 79/44/49
f 79/44/49 78/32/49 77/42/49
f 77/42/49 76/29/49 75/43/49
f 75/43/49 74/72/49 87/43/49
f 87/43/49 85/42/49 75/43/49
f 85/42/49 83/44/49 75/43/49
f 83/44/49 81/71/49 79/44/49
f 79/44/49 77/42/49 83/44/49
f 29/16/50 61/30/50 62/33/50
f 37/16/51 69/30/51 70/31/51
f 62/33/52 63/34/52 31/21/52
f 70/31/53 71/35/53 39/22/53
f 31/21/122 63/34/122 64/37/122
f 39/22/55 71/35/55 72/39/55
f 64/37/56 65/40/56 33/27/56
f 25/28/57 58/41/57 57/39/57
f 72/39/58 58/41/58 25/28/58
f 33/27/59 65/40/59 66/37/59
f 57/39/60 59/35/60 27/22/60
f 66/37/123 67/34/123 35/21/123
f 27/22/62 59/35/62 60/31/62
f 35/21/63 67/34/63 68/33/63
f 60/31/64 61/30/64 29/16/64
f 68/33/65 69/30/65 37/16/65
f 58/41/124 74/72/124 73/38/124
f 108/45/125 99/60/125 100/46/125
f 97/46/126 98/60/126 105/48/126
f 95/49/127 96/49/127 109/50/127
f 116/52/128 110/56/128 111/53/128
f 114/55/129 103/62/129 110/56/129
f 106/57/130 107/61/130 115/58/130
f 105/48/131 98/60/131 99/60/131
f 101/47/132 100/46/132 95/49/132
f 96/49/133 97/46/133 112/47/133
f 118/54/134 111/53/134 106/57/134
f 107/61/135 102/53/135 113/54/135
f 109/50/136 110/56/136 103/62/136
f 105/48/137 106/57/137 111/53/137
f 108/45/138 101/47/138 102/53/138
f 112/47/139 111/53/139 110/56/139
f 105/48/140 108/45/140 107/61/140
f 101/47/141 104/51/141 103/62/141
f 102/53/142 103/62/142 114/55/142
f 113/54/143 114/55/143 89/63/143
f 115/58/144 113/54/144 94/64/144
f 91/64/145 118/54/145 117/59/145
f 117/59/88 115/58/88 93/65/88
f 89/63/89 114/55/89 116/52/89
f 90/63/146 116/52/146 118/54/146
