# Blender 4.4.0
# www.blender.org
mtllib Env_Dirt_Rows_Long_Center_Watered_01.mtl
o Env_Dirt_Rows_Long_Center_Watered_01
v -1.966005 0.001892 -6.000001
v 1.966006 0.001892 -6.000001
v 1.324688 0.001892 -6.000001
v 1.738269 0.001892 -6.000001
v 0.558949 0.001892 -6.000049
v 0.972529 0.001892 -6.000001
v -0.206790 0.001892 -6.000049
v 0.206790 0.001892 -6.000049
v -0.972530 0.001892 -6.000001
v -0.558949 0.001892 -6.000049
v -1.738269 0.001892 -6.000001
v -1.324688 0.001892 -6.000001
v 1.364688 0.091355 -6.000001
v 1.461741 0.126172 -6.000001
v 1.601215 0.126172 -6.000001
v 1.698269 0.091355 -6.000001
v 0.598948 0.091355 -6.000001
v 0.696002 0.126172 -6.000001
v 0.835476 0.126172 -6.000049
v 0.932529 0.091355 -6.000049
v -0.166790 0.091355 -6.000001
v -0.069738 0.126172 -6.000001
v 0.069738 0.126172 -6.000049
v 0.166790 0.091355 -6.000049
v -0.932529 0.091355 -6.000049
v -0.835476 0.126172 -6.000001
v -0.696002 0.126172 -6.000001
v -0.598948 0.091355 -6.000001
v -1.698269 0.091355 -6.000049
v -1.601215 0.126172 -6.000001
v -1.461742 0.126172 -6.000001
v -1.364687 0.091355 -6.000001
v -2.000000 0.000000 -6.000001
v 2.000000 0.000000 -6.000001
v -1.966005 0.001892 -12.000001
v 1.966006 0.001892 -12.000001
v 1.324688 0.001892 -12.000001
v 1.738269 0.001892 -12.000001
v 0.558949 0.001892 -11.999953
v 0.972529 0.001892 -12.000001
v -0.206790 0.001892 -11.999953
v 0.206790 0.001892 -11.999953
v -0.972530 0.001892 -12.000001
v -0.558949 0.001892 -11.999953
v -1.738269 0.001892 -12.000001
v -1.324688 0.001892 -12.000001
v 1.364688 0.091355 -12.000001
v 1.461741 0.126172 -12.000001
v 1.601215 0.126172 -12.000001
v 1.698269 0.091355 -12.000001
v 0.598948 0.091355 -12.000001
v 0.696002 0.126172 -12.000001
v 0.835476 0.126172 -11.999953
v 0.932529 0.091355 -11.999953
v -0.166790 0.091355 -12.000001
v -0.069738 0.126172 -12.000001
v 0.069738 0.126172 -11.999953
v 0.166790 0.091355 -11.999953
v -0.932529 0.091355 -11.999953
v -0.835476 0.126172 -12.000001
v -0.696002 0.126172 -12.000001
v -0.598948 0.091355 -12.000001
v -1.698269 0.091355 -11.999953
v -1.601215 0.126172 -12.000001
v -1.461742 0.126172 -12.000001
v -1.364687 0.091355 -12.000001
v -2.000000 0.000000 -12.000001
v 2.000000 0.000000 -12.000001
vn -0.0000 1.0000 -0.0000
vn -0.9129 0.4082 -0.0000
vn 0.3377 0.9413 -0.0000
vn -0.3377 0.9413 -0.0000
vn 0.9129 0.4082 -0.0000
vn 0.0556 0.9985 -0.0000
vn -0.0556 0.9985 -0.0000
vt 0.085051 0.967573
vt 0.085084 0.967573
vt 0.085753 0.948584
vt 0.085669 0.948584
vt 0.085485 0.948584
vt 0.085569 0.948584
vt 0.085018 0.948584
vt 0.085027 0.962254
vt 0.085820 0.967573
vt 0.085843 0.962254
vt 0.085395 0.962254
vt 0.085418 0.967573
vt 0.085211 0.962254
vt 0.085202 0.948584
vt 0.084963 0.948584
vt 0.085852 0.948584
vt 0.085475 0.962254
vt 0.085907 0.948584
vt 0.085915 0.946445
vt 0.085117 0.948584
vt 0.085301 0.948584
vt 0.085385 0.948584
vt 0.085268 0.967573
vt 0.085291 0.962254
vt 0.085452 0.967573
vt 0.085108 0.962254
vt 0.085763 0.962254
vt 0.085636 0.967573
vt 0.085659 0.962254
vt 0.085579 0.962254
vt 0.085602 0.967573
vt 0.085786 0.967573
vt 0.085235 0.967573
vt 0.084955 0.946445
s 0
usemtl Texture_Map
f 30/1/1 65/2/1 64/1/1
f 37/3/1 6/4/1 3/3/1
f 42/5/1 5/6/1 39/6/1
f 45/7/2 29/8/2 63/8/2
f 49/9/3 16/10/3 50/10/3
f 21/11/4 56/12/4 55/11/4
f 59/13/2 9/14/2 25/13/2
f 35/15/1 11/7/1 45/7/1
f 50/10/5 4/16/5 38/16/5
f 58/17/5 8/5/5 42/5/5
f 2/18/6 68/19/6 36/18/6
f 43/14/1 12/20/1 9/14/1
f 44/21/1 7/22/1 41/22/1
f 29/8/4 64/1/4 63/8/4
f 61/23/3 28/24/3 62/24/3
f 22/12/1 57/25/1 56/12/1
f 62/24/5 10/21/5 44/21/5
f 66/26/5 12/20/5 46/20/5
f 47/27/2 3/3/2 13/27/2
f 53/28/3 20/29/3 54/29/3
f 17/30/4 52/31/4 51/30/4
f 18/31/1 53/28/1 52/31/1
f 14/32/1 49/9/1 48/32/1
f 25/13/4 60/33/4 59/13/4
f 13/27/4 48/32/4 47/27/4
f 65/2/3 32/26/3 66/26/3
f 57/25/3 24/17/3 58/17/3
f 26/33/1 61/23/1 60/33/1
f 51/30/2 5/6/2 17/30/2
f 55/11/2 7/22/2 21/11/2
f 67/34/7 1/15/7 35/15/7
f 38/16/1 2/18/1 36/18/1
f 54/29/5 6/4/5 40/4/5
f 30/1/1 31/2/1 65/2/1
f 37/3/1 40/4/1 6/4/1
f 42/5/1 8/5/1 5/6/1
f 45/7/2 11/7/2 29/8/2
f 49/9/3 15/9/3 16/10/3
f 21/11/4 22/12/4 56/12/4
f 59/13/2 43/14/2 9/14/2
f 35/15/1 1/15/1 11/7/1
f 50/10/5 16/10/5 4/16/5
f 58/17/5 24/17/5 8/5/5
f 2/18/6 34/19/6 68/19/6
f 43/14/1 46/20/1 12/20/1
f 44/21/1 10/21/1 7/22/1
f 29/8/4 30/1/4 64/1/4
f 61/23/3 27/23/3 28/24/3
f 22/12/1 23/25/1 57/25/1
f 62/24/5 28/24/5 10/21/5
f 66/26/5 32/26/5 12/20/5
f 47/27/2 37/3/2 3/3/2
f 53/28/3 19/28/3 20/29/3
f 17/30/4 18/31/4 52/31/4
f 18/31/1 19/28/1 53/28/1
f 14/32/1 15/9/1 49/9/1
f 25/13/4 26/33/4 60/33/4
f 13/27/4 14/32/4 48/32/4
f 65/2/3 31/2/3 32/26/3
f 57/25/3 23/25/3 24/17/3
f 26/33/1 27/23/1 61/23/1
f 51/30/2 39/6/2 5/6/2
f 55/11/2 41/22/2 7/22/2
f 67/34/7 33/34/7 1/15/7
f 38/16/1 4/16/1 2/18/1
f 54/29/5 20/29/5 6/4/5
