# Blender 4.4.0
# www.blender.org
mtllib Env_Dirt_Rows_Long_Dry_01.mtl
o Env_Dirt_Rows_Long_Dry_01
v -1.966005 0.001892 -0.000001
v 1.966006 0.001892 -0.000001
v 1.324688 0.001892 -0.000001
v 1.738269 0.001892 -0.000001
v 0.558949 0.001892 -0.000049
v 0.972529 0.001892 -0.000001
v -0.206790 0.001892 -0.000049
v 0.206790 0.001892 -0.000049
v -0.972530 0.001892 -0.000001
v -0.558949 0.001892 -0.000049
v -1.738269 0.001892 -0.000001
v -1.324688 0.001892 -0.000001
v 1.364688 0.091354 -0.000001
v 1.461741 0.126172 -0.000001
v 1.601215 0.126172 -0.000001
v 1.698269 0.091354 -0.000001
v 0.598948 0.091354 -0.000001
v 0.696002 0.126172 -0.000001
v 0.835476 0.126172 -0.000049
v 0.932529 0.091354 -0.000049
v -0.166790 0.091354 -0.000001
v -0.069738 0.126172 -0.000001
v 0.069738 0.126172 -0.000049
v 0.166790 0.091354 -0.000049
v -0.932529 0.091354 -0.000049
v -0.835476 0.126172 -0.000001
v -0.696002 0.126172 -0.000001
v -0.598948 0.091354 -0.000001
v -1.698269 0.091354 -0.000049
v -1.601215 0.126172 -0.000001
v -1.461742 0.126172 -0.000001
v -1.364687 0.091354 -0.000001
v -2.000000 -0.000001 -0.000001
v 2.000000 -0.000001 -0.000001
v -1.600408 0.001892 -0.000049
v -1.462548 0.001892 -0.000049
v -0.834669 0.001892 -0.000049
v -0.696809 0.001892 -0.000049
v -0.068930 0.001892 -0.000049
v 0.068930 0.001892 -0.000049
v 0.696809 0.001892 -0.000049
v 0.834669 0.001892 -0.000049
v 1.462548 0.001892 -0.000049
v 1.600409 0.001892 -0.000049
v -1.966005 0.001892 -6.000001
v 1.966006 0.001892 -6.000001
v 1.324688 0.001892 -6.000001
v 1.738269 0.001892 -6.000001
v 0.558949 0.001892 -5.999953
v 0.972529 0.001892 -6.000001
v -0.206790 0.001892 -5.999953
v 0.206790 0.001892 -5.999953
v -0.972530 0.001892 -6.000001
v -0.558949 0.001892 -5.999953
v -1.738269 0.001892 -6.000001
v -1.324688 0.001892 -6.000001
v 1.364688 0.091354 -6.000001
v 1.461741 0.126172 -6.000001
v 1.601215 0.126172 -6.000001
v 1.698269 0.091354 -6.000001
v 0.598948 0.091354 -6.000001
v 0.696002 0.126172 -6.000001
v 0.835476 0.126172 -5.999953
v 0.932529 0.091354 -5.999953
v -0.166790 0.091354 -6.000001
v -0.069738 0.126172 -6.000001
v 0.069738 0.126172 -5.999953
v 0.166790 0.091354 -5.999953
v -0.932529 0.091354 -5.999953
v -0.835476 0.126172 -6.000001
v -0.696002 0.126172 -6.000001
v -0.598948 0.091354 -6.000001
v -1.698269 0.091354 -5.999953
v -1.601215 0.126172 -6.000001
v -1.461742 0.126172 -6.000001
v -1.364687 0.091354 -6.000001
v -2.000000 -0.000001 -6.000001
v 2.000000 -0.000001 -6.000001
v -1.600408 0.001892 -5.999953
v -1.462548 0.001892 -5.999953
v -0.834669 0.001892 -5.999953
v -0.696809 0.001892 -5.999953
v -0.068930 0.001892 -5.999953
v 0.068930 0.001892 -5.999953
v 0.696809 0.001892 -5.999953
v 0.834669 0.001892 -5.999953
v 1.462548 0.001892 -5.999953
v 1.600409 0.001892 -5.999953
vn -0.0000 1.0000 -0.0000
vn -0.9129 0.4082 -0.0000
vn 0.3377 0.9413 -0.0000
vn -0.3377 0.9413 -0.0000
vn 0.9129 0.4082 -0.0000
vn 0.0556 0.9985 -0.0000
vn -0.0004 -0.0004 1.0000
vn -0.0000 -0.0004 1.0000
vn -0.0003 -0.0002 1.0000
vn -0.0000 -0.0005 1.0000
vn 0.0001 -0.0004 1.0000
vn -0.0000 -0.0000 1.0000
vn 0.0003 -0.0000 1.0000
vn -0.0003 0.0004 1.0000
vn -0.0556 0.9985 -0.0000
vn -0.0004 -0.0004 -1.0000
vn -0.0000 -0.0004 -1.0000
vn -0.0001 -0.0004 -1.0000
vn 0.0001 -0.0004 -1.0000
vn 0.0003 -0.0004 -1.0000
vn -0.0000 -0.0000 -1.0000
vn 0.0003 -0.0000 -1.0000
vn 0.0003 0.0004 1.0000
vn -0.0001 -0.0004 1.0000
vn 0.0003 -0.0004 1.0000
vn 0.0003 -0.0002 1.0000
vn 0.0003 0.0004 -1.0000
vn -0.0003 -0.0002 -1.0000
vn -0.0000 -0.0005 -1.0000
vn -0.0003 0.0004 -1.0000
vn 0.0003 -0.0002 -1.0000
vt 0.225966 0.920185
vt 0.226105 0.920185
vt 0.228886 0.841239
vt 0.228535 0.841239
vt 0.227771 0.841239
vt 0.228122 0.841239
vt 0.225829 0.841239
vt 0.225869 0.898068
vt 0.229162 0.920185
vt 0.229259 0.898068
vt 0.227398 0.898068
vt 0.227495 0.920185
vt 0.226634 0.898068
vt 0.226594 0.841239
vt 0.225602 0.841239
vt 0.229299 0.841239
vt 0.227731 0.898068
vt 0.229526 0.841239
vt 0.229560 0.832346
vt 0.225967 0.841239
vt 0.226105 0.841239
vt 0.226202 0.898068
vt 0.226242 0.841239
vt 0.226731 0.841239
vt 0.226730 0.920185
vt 0.226870 0.920185
vt 0.226869 0.841239
vt 0.226967 0.898068
vt 0.227006 0.841239
vt 0.227496 0.841239
vt 0.227634 0.920185
vt 0.227633 0.841239
vt 0.228162 0.898068
vt 0.228260 0.841239
vt 0.228259 0.920185
vt 0.228397 0.841239
vt 0.228398 0.920185
vt 0.228495 0.898068
vt 0.228926 0.898068
vt 0.229024 0.841239
vt 0.229023 0.920185
vt 0.229162 0.841239
vt 0.227358 0.841239
vt 0.225568 0.832346
s 0
usemtl Texture_Map
f 30/1/1 75/2/1 74/1/1
f 47/3/1 6/4/1 3/3/1
f 52/5/1 5/6/1 49/6/1
f 55/7/2 29/8/2 73/8/2
f 59/9/3 16/10/3 60/10/3
f 21/11/4 66/12/4 65/11/4
f 69/13/2 9/14/2 25/13/2
f 45/15/1 11/7/1 55/7/1
f 60/10/5 4/16/5 48/16/5
f 68/17/5 8/5/5 52/5/5
f 2/18/6 78/19/6 46/18/6
f 29/8/7 35/20/7 30/1/7
f 31/2/8 35/20/8 36/21/8
f 32/22/9 36/21/9 12/23/9
f 25/13/7 37/24/7 26/25/7
f 27/26/8 37/24/8 38/27/8
f 28/28/10 38/27/10 10/29/10
f 21/11/11 39/30/11 22/12/11
f 23/31/12 39/30/12 40/32/12
f 24/17/12 40/32/12 8/5/12
f 17/33/11 41/34/11 18/35/11
f 18/35/13 42/36/13 19/37/13
f 20/38/14 42/36/14 6/4/14
f 13/39/11 43/40/11 14/41/11
f 15/9/8 43/40/8 44/42/8
f 16/10/9 44/42/9 4/16/9
f 53/14/1 12/23/1 9/14/1
f 54/29/1 7/43/1 51/43/1
f 29/8/4 74/1/4 73/8/4
f 71/26/3 28/28/3 72/28/3
f 22/12/1 67/31/1 66/12/1
f 72/28/5 10/29/5 54/29/5
f 76/22/5 12/23/5 56/23/5
f 57/39/2 3/3/2 13/39/2
f 63/37/3 20/38/3 64/38/3
f 17/33/4 62/35/4 61/33/4
f 18/35/1 63/37/1 62/35/1
f 14/41/1 59/9/1 58/41/1
f 25/13/4 70/25/4 69/13/4
f 13/39/4 58/41/4 57/39/4
f 75/2/3 32/22/3 76/22/3
f 67/31/3 24/17/3 68/17/3
f 26/25/1 71/26/1 70/25/1
f 61/33/2 5/6/2 17/33/2
f 65/11/2 7/43/2 21/11/2
f 77/44/15 1/15/15 45/15/15
f 48/16/1 2/18/1 46/18/1
f 79/20/16 73/8/16 74/1/16
f 75/2/17 79/20/17 74/1/17
f 76/22/18 80/21/18 75/2/18
f 81/24/16 69/13/16 70/25/16
f 71/26/17 81/24/17 70/25/17
f 72/28/18 82/27/18 71/26/18
f 83/30/19 65/11/19 66/12/19
f 67/31/20 83/30/20 66/12/20
f 68/17/21 84/32/21 67/31/21
f 85/34/19 61/33/19 62/35/19
f 86/36/22 62/35/22 63/37/22
f 64/38/21 86/36/21 63/37/21
f 87/40/19 57/39/19 58/41/19
f 59/9/17 87/40/17 58/41/17
f 60/10/18 88/42/18 59/9/18
f 64/38/5 6/4/5 50/4/5
f 30/1/1 31/2/1 75/2/1
f 47/3/1 50/4/1 6/4/1
f 52/5/1 8/5/1 5/6/1
f 55/7/2 11/7/2 29/8/2
f 59/9/3 15/9/3 16/10/3
f 21/11/4 22/12/4 66/12/4
f 69/13/2 53/14/2 9/14/2
f 45/15/1 1/15/1 11/7/1
f 60/10/5 16/10/5 4/16/5
f 68/17/5 24/17/5 8/5/5
f 2/18/6 34/19/6 78/19/6
f 29/8/23 11/7/23 35/20/23
f 31/2/8 30/1/8 35/20/8
f 32/22/24 31/2/24 36/21/24
f 25/13/23 9/14/23 37/24/23
f 27/26/8 26/25/8 37/24/8
f 28/28/24 27/26/24 38/27/24
f 21/11/10 7/43/10 39/30/10
f 23/31/25 22/12/25 39/30/25
f 24/17/12 23/31/12 40/32/12
f 17/33/10 5/6/10 41/34/10
f 18/35/8 41/34/8 42/36/8
f 20/38/12 19/37/12 42/36/12
f 13/39/26 3/3/26 43/40/26
f 15/9/8 14/41/8 43/40/8
f 16/10/24 15/9/24 44/42/24
f 53/14/1 56/23/1 12/23/1
f 54/29/1 10/29/1 7/43/1
f 29/8/4 30/1/4 74/1/4
f 71/26/3 27/26/3 28/28/3
f 22/12/1 23/31/1 67/31/1
f 72/28/5 28/28/5 10/29/5
f 76/22/5 32/22/5 12/23/5
f 57/39/2 47/3/2 3/3/2
f 63/37/3 19/37/3 20/38/3
f 17/33/4 18/35/4 62/35/4
f 18/35/1 19/37/1 63/37/1
f 14/41/1 15/9/1 59/9/1
f 25/13/4 26/25/4 70/25/4
f 13/39/4 14/41/4 58/41/4
f 75/2/3 31/2/3 32/22/3
f 67/31/3 23/31/3 24/17/3
f 26/25/1 27/26/1 71/26/1
f 61/33/2 49/6/2 5/6/2
f 65/11/2 51/43/2 7/43/2
f 77/44/15 33/44/15 1/15/15
f 48/16/1 4/16/1 2/18/1
f 79/20/27 55/7/27 73/8/27
f 75/2/17 80/21/17 79/20/17
f 76/22/28 56/23/28 80/21/28
f 81/24/27 53/14/27 69/13/27
f 71/26/17 82/27/17 81/24/17
f 72/28/29 54/29/29 82/27/29
f 83/30/29 51/43/29 65/11/29
f 67/31/21 84/32/21 83/30/21
f 68/17/21 52/5/21 84/32/21
f 85/34/29 49/6/29 61/33/29
f 86/36/17 85/34/17 62/35/17
f 64/38/30 50/4/30 86/36/30
f 87/40/31 47/3/31 57/39/31
f 59/9/17 88/42/17 87/40/17
f 60/10/28 48/16/28 88/42/28
f 64/38/5 20/38/5 6/4/5
