# Blender 4.4.0
# www.blender.org
mtllib Env_Grass_Patch_Green_02.mtl
o Env_Grass_Patch_Green_02
v -0.011725 -0.000000 -0.014114
v 0.013246 -0.000000 -0.014114
v 0.006327 0.175229 -0.090324
v 0.000761 -0.000000 -0.008680
v -0.011725 0.127283 -0.043165
v 0.013246 0.127283 -0.043165
v 0.000761 0.129780 -0.037732
v -0.011725 0.126288 -0.045283
v -0.011725 -0.000000 -0.014778
v 0.000761 -0.000000 -0.010807
v 0.013246 -0.000000 -0.014791
v 0.013246 0.126288 -0.045283
v 0.000761 0.194022 -0.105661
v -0.004806 0.175229 -0.090324
v 0.000761 0.128785 -0.039850
v 0.072577 0.219408 0.005250
v 0.002734 -0.000000 -0.007781
v 0.008531 -0.000000 0.020489
v 0.085703 0.226437 0.011129
v -0.000788 -0.000000 0.007818
v 0.061741 0.198357 -0.004489
v 0.065860 0.196978 0.015603
v 0.071380 0.219821 0.005524
v 0.062938 0.197945 -0.004762
v 0.003518 -0.000000 -0.007960
v 0.001725 -0.000000 0.007245
v 0.009331 -0.000000 0.020307
v 0.067058 0.196566 0.015329
v 0.106013 0.249066 0.003424
v 0.083168 0.227450 -0.001475
v -0.063185 0.131312 0.028411
v -0.013146 -0.000000 0.017989
v 0.000556 -0.000000 -0.007141
v -0.077560 0.149488 0.019282
v -0.000312 -0.000000 0.008820
v -0.060717 0.122248 0.036436
v -0.050979 0.125207 0.018577
v -0.060832 0.136418 0.029047
v -0.061834 0.122086 0.035800
v -0.013876 -0.000000 0.017573
v -0.002650 -0.000000 0.007489
v -0.000188 -0.000000 -0.007565
v -0.052096 0.125045 0.017941
v -0.099661 0.160184 0.019104
v -0.083696 0.147785 0.030496
vn 0.4884 0.6340 0.5996
vn -0.4048 0.6702 0.6220
vn -0.3906 0.2048 0.8975
vn 0.4242 0.1978 0.8837
vn -0.4091 -0.6486 -0.6419
vn 0.4091 -0.6486 -0.6419
vn 0.2954 -0.2243 -0.9287
vn -0.2963 -0.2242 -0.9284
vn 1.0000 -0.0000 -0.0000
vn 0.9941 0.0981 -0.0461
vn -1.0000 -0.0000 -0.0000
vn -0.9941 0.0981 -0.0461
vn 0.5535 -0.4445 -0.7043
vn 0.7034 -0.5345 0.4686
vn 0.9512 -0.2874 0.1122
vn 0.8350 -0.2575 -0.4862
vn -0.5179 0.6530 0.5526
vn -0.6598 0.5401 -0.5225
vn -0.9359 0.2819 -0.2113
vn -0.9327 0.3081 0.1876
vn 0.2221 -0.0405 0.9742
vn 0.2224 -0.0017 0.9750
vn -0.2216 0.0820 -0.9717
vn -0.1488 0.2097 -0.9664
vn -0.6686 -0.6800 -0.3011
vn -0.5268 -0.5770 -0.6241
vn -0.6607 -0.1497 -0.7356
vn -0.9235 -0.3526 -0.1510
vn 0.3921 0.8173 0.4222
vn 0.2758 0.4462 0.8514
vn 0.5782 0.1029 0.8094
vn 0.8340 0.3015 0.4621
vn 0.4621 0.3570 -0.8118
vn 0.3912 0.4515 -0.8019
vn -0.4707 -0.3079 0.8268
vn -0.4598 -0.2133 0.8620
vn 0.4048 0.6702 0.6220
vn -0.4884 0.6340 0.5996
vn -0.4242 0.1978 0.8837
vn 0.3906 0.2048 0.8975
vn -0.4164 -0.6457 -0.6401
vn 0.4164 -0.6457 -0.6401
vn 0.4243 -0.1992 -0.8834
vn -0.4243 -0.1992 -0.8834
vn 0.5710 -0.6727 -0.4705
vn 0.6598 -0.7339 0.1615
vn 0.9220 -0.3000 -0.2446
vn 0.9363 -0.3039 -0.1761
vn -0.4976 0.4480 0.7428
vn -0.6308 0.7277 -0.2692
vn -0.9231 0.3055 0.2338
vn -0.7817 0.2418 0.5749
vn 0.2106 -0.0371 0.9769
vn -0.1976 0.0751 -0.9774
vn -0.2846 -0.6004 -0.7473
vn -0.6244 -0.7807 0.0253
vn -0.8858 -0.3621 -0.2902
vn -0.7344 -0.2373 -0.6358
vn 0.6636 0.7311 -0.1583
vn 0.4395 0.8452 0.3040
vn 0.8049 0.2795 0.5235
vn 0.9272 0.3713 0.0505
vn 0.4255 0.3471 -0.8357
vn -0.4391 -0.2990 0.8473
vt 0.203155 0.106239
vt 0.203399 0.115226
vt 0.203470 0.118942
vt 0.203180 0.105745
vt 0.203020 0.080575
vt 0.203046 0.080575
vt 0.203165 0.106042
vt 0.203190 0.105548
vt 0.203030 0.080575
vt 0.203049 0.080575
vt 0.203049 0.080575
vt 0.202956 0.123962
vt 0.202929 0.125352
vt 0.202909 0.119445
vt 0.202987 0.125553
vt 0.203002 0.119718
vt 0.202947 0.080575
vt 0.203017 0.080575
vt 0.202886 0.080575
vt 0.202955 0.124044
vt 0.202964 0.129827
vt 0.203001 0.119800
vt 0.202944 0.080575
vt 0.203016 0.080575
vt 0.202908 0.119527
vt 0.202885 0.080575
vt 0.202848 0.106542
vt 0.202891 0.110136
vt 0.202897 0.105302
vt 0.202839 0.109799
vt 0.202814 0.104717
vt 0.202945 0.080575
vt 0.202899 0.080575
vt 0.203015 0.080575
vt 0.202846 0.107551
vt 0.202892 0.112251
vt 0.202811 0.104749
vt 0.202939 0.080575
vt 0.202897 0.080575
vt 0.202894 0.105334
vt 0.203013 0.080575
s 0
usemtl Texture_Map
f 7/1/1 3/2/1 13/3/1
f 7/1/2 14/2/2 5/4/2
f 4/5/3 5/4/3 1/6/3
f 4/5/4 6/4/4 7/1/4
f 15/7/5 3/2/5 12/8/5
f 14/2/6 15/7/6 8/8/6
f 8/8/7 10/9/7 9/10/7
f 10/9/8 12/8/8 11/11/8
f 2/6/9 12/8/9 6/4/9
f 6/4/10 12/8/10 3/2/10
f 8/8/11 1/6/11 5/4/11
f 14/2/12 8/8/12 5/4/12
f 16/12/13 19/13/13 28/14/13
f 30/15/14 16/12/14 24/16/14
f 24/16/15 26/17/15 25/18/15
f 26/17/16 28/14/16 27/19/16
f 23/20/17 19/13/17 29/21/17
f 23/20/18 30/15/18 21/22/18
f 20/23/19 21/22/19 17/24/19
f 20/23/20 22/25/20 23/20/20
f 27/19/21 22/25/21 18/26/21
f 22/25/22 28/14/22 19/13/22
f 21/22/23 25/18/23 17/24/23
f 30/15/24 24/16/24 21/22/24
f 31/27/25 34/28/25 43/29/25
f 45/30/26 31/27/26 39/31/26
f 39/31/27 41/32/27 40/33/27
f 41/32/28 43/29/28 42/34/28
f 38/35/29 34/28/29 44/36/29
f 38/35/30 45/30/30 36/37/30
f 35/38/31 36/37/31 32/39/31
f 35/38/32 37/40/32 38/35/32
f 42/34/33 37/40/33 33/41/33
f 37/40/34 43/29/34 34/28/34
f 36/37/35 40/33/35 32/39/35
f 45/30/36 39/31/36 36/37/36
f 7/1/37 6/4/37 3/2/37
f 7/1/38 13/3/38 14/2/38
f 4/5/39 7/1/39 5/4/39
f 4/5/40 2/6/40 6/4/40
f 15/7/41 13/3/41 3/2/41
f 14/2/42 13/3/42 15/7/42
f 8/8/43 15/7/43 10/9/43
f 10/9/44 15/7/44 12/8/44
f 2/6/9 11/11/9 12/8/9
f 8/8/11 9/10/11 1/6/11
f 16/12/45 29/21/45 19/13/45
f 30/15/46 29/21/46 16/12/46
f 24/16/47 16/12/47 26/17/47
f 26/17/48 16/12/48 28/14/48
f 23/20/49 22/25/49 19/13/49
f 23/20/50 29/21/50 30/15/50
f 20/23/51 23/20/51 21/22/51
f 20/23/52 18/26/52 22/25/52
f 27/19/53 28/14/53 22/25/53
f 21/22/54 24/16/54 25/18/54
f 31/27/55 44/36/55 34/28/55
f 45/30/56 44/36/56 31/27/56
f 39/31/57 31/27/57 41/32/57
f 41/32/58 31/27/58 43/29/58
f 38/35/59 37/40/59 34/28/59
f 38/35/60 44/36/60 45/30/60
f 35/38/61 38/35/61 36/37/61
f 35/38/62 33/41/62 37/40/62
f 42/34/63 43/29/63 37/40/63
f 36/37/64 39/31/64 40/33/64
