# Blender 4.4.0
# www.blender.org
mtllib Prop_Tire_01.mtl
o Prop_Tire_01
v 0.107410 0.017427 -0.400859
v -0.107410 0.017427 -0.400859
v -0.293449 0.017427 -0.293449
v -0.400859 0.017427 -0.107410
v -0.400859 0.017427 0.107410
v -0.293449 0.017427 0.293449
v -0.107410 0.017427 0.400859
v 0.107410 0.017427 0.400859
v 0.293449 0.017427 0.293449
v 0.400859 0.017427 0.107410
v 0.400859 0.017427 -0.107410
v 0.293449 0.017427 -0.293449
v 0.107410 0.287427 -0.400859
v -0.107410 0.287427 -0.400859
v -0.293449 0.287427 -0.293449
v -0.400859 0.287427 -0.107410
v -0.400859 0.287427 0.107410
v -0.293449 0.287427 0.293449
v -0.107410 0.287427 0.400859
v 0.107410 0.287427 0.400859
v 0.293449 0.287427 0.293449
v 0.400859 0.287427 0.107410
v 0.400859 0.287427 -0.107410
v 0.293449 0.287427 -0.293449
v 0.098952 0.000000 -0.369295
v -0.098952 0.000000 -0.369295
v -0.270343 0.000000 -0.270343
v -0.369295 0.000000 -0.098952
v -0.369295 0.000000 0.098952
v -0.270343 0.000000 0.270343
v -0.098952 0.000000 0.369295
v 0.098952 0.000000 0.369295
v 0.270343 0.000000 0.270343
v 0.369295 0.000000 0.098952
v 0.369295 0.000000 -0.098952
v 0.270343 0.000000 -0.270343
v 0.098952 0.304855 -0.369295
v -0.098952 0.304855 -0.369295
v -0.270343 0.304855 -0.270343
v -0.369295 0.304855 -0.098952
v -0.369295 0.304855 0.098952
v -0.270343 0.304855 0.270343
v -0.098952 0.304855 0.369295
v 0.098952 0.304855 0.369295
v 0.270343 0.304855 0.270343
v 0.369295 0.304855 0.098952
v 0.369295 0.304855 -0.098952
v 0.270343 0.304855 -0.270343
v 0.088754 0.048587 -0.331233
v -0.088754 0.048587 -0.331233
v -0.242479 0.048587 -0.242479
v -0.331233 0.048587 -0.088754
v -0.331233 0.048587 0.088754
v -0.242479 0.048587 0.242479
v -0.088754 0.048587 0.331233
v 0.088754 0.048587 0.331233
v 0.242479 0.048587 0.242479
v 0.331233 0.048587 0.088754
v 0.331233 0.048587 -0.088754
v 0.242479 0.048587 -0.242479
v 0.084373 0.256267 -0.314885
v -0.084373 0.256267 -0.314885
v -0.230512 0.256267 -0.230512
v -0.314885 0.256267 -0.084373
v -0.314885 0.256267 0.084373
v -0.230512 0.256267 0.230512
v -0.084373 0.256267 0.314885
v 0.084373 0.256267 0.314885
v 0.230512 0.256267 0.230512
v 0.314885 0.256267 0.084373
v 0.314885 0.256267 -0.084373
v 0.230512 0.256267 -0.230512
v -0.088754 0.012436 -0.331233
v 0.088754 0.012436 -0.331233
v -0.242479 0.012436 -0.242479
v -0.331233 0.012436 -0.088754
v -0.331233 0.012436 0.088754
v -0.242479 0.012436 0.242479
v -0.088754 0.012436 0.331233
v 0.088754 0.012436 0.331233
v 0.242479 0.012436 0.242479
v 0.331233 0.012436 0.088754
v 0.331233 0.012436 -0.088754
v 0.242479 0.012436 -0.242479
v -0.084373 0.292419 -0.314885
v 0.084373 0.292419 -0.314885
v -0.230512 0.292419 -0.230512
v -0.314885 0.292419 -0.084373
v -0.314885 0.292419 0.084373
v -0.230512 0.292419 0.230512
v -0.084373 0.292419 0.314885
v 0.084373 0.292419 0.314885
v 0.230512 0.292419 0.230512
v 0.314885 0.292419 0.084373
v 0.314885 0.292419 -0.084373
v 0.230512 0.292419 -0.230512
v -0.102233 0.048587 -0.381540
v -0.102233 0.256267 -0.381540
v -0.279307 0.256267 -0.279307
v -0.279307 0.048587 -0.279307
v -0.381540 0.256267 -0.102233
v -0.381540 0.048587 -0.102233
v -0.381540 0.256267 0.102233
v -0.381540 0.048587 0.102233
v -0.279307 0.256267 0.279307
v -0.279307 0.048587 0.279307
v -0.102233 0.256267 0.381540
v -0.102233 0.048587 0.381540
v 0.102233 0.256267 0.381540
v 0.102233 0.048587 0.381540
v 0.279307 0.256267 0.279307
v 0.279307 0.048587 0.279307
v 0.381540 0.256267 0.102233
v 0.381540 0.048587 0.102233
v 0.381540 0.256267 -0.102233
v 0.381540 0.048587 -0.102233
v 0.279307 0.256267 -0.279307
v 0.279307 0.048587 -0.279307
v 0.102233 0.256267 -0.381540
v 0.102233 0.048587 -0.381540
vn -0.8660 -0.0000 0.5000
vn 0.5000 -0.0000 -0.8660
vn -0.5000 -0.0000 -0.8660
vn 0.8660 -0.0000 0.5000
vn -0.5000 -0.0000 0.8660
vn -0.8660 -0.0000 -0.5000
vn 1.0000 -0.0000 -0.0000
vn -0.0000 -0.0000 1.0000
vn -1.0000 -0.0000 -0.0000
vn 0.8660 -0.0000 -0.5000
vn -0.0000 -0.0000 -1.0000
vn 0.5000 -0.0000 0.8660
vn 0.4834 0.8754 -0.0000
vn -0.4186 0.8754 -0.2417
vn 0.2417 -0.8754 0.4186
vn 0.4186 0.8754 -0.2417
vn -0.0000 -0.8754 -0.4833
vn -0.4834 0.8754 -0.0000
vn 0.4186 -0.8754 0.2417
vn 0.2417 0.8754 -0.4186
vn -0.2417 -0.8754 -0.4186
vn -0.4186 0.8754 0.2417
vn 0.4833 -0.8754 -0.0000
vn -0.4186 -0.8754 -0.2417
vn -0.2417 0.8754 0.4186
vn 0.4186 -0.8754 -0.2417
vn -0.4833 -0.8754 -0.0000
vn -0.0000 0.8754 0.4834
vn 0.2417 -0.8754 -0.4186
vn -0.4186 -0.8754 0.2417
vn 0.2417 0.8754 0.4186
vn -0.0000 0.8754 -0.4834
vn -0.2417 -0.8754 0.4186
vn 0.4186 0.8754 0.2417
vn -0.2417 0.8754 -0.4186
vn -0.0000 -0.8754 0.4833
vn -0.1930 0.9749 0.1114
vn -0.0000 -0.9505 0.3106
vn 0.2228 0.9749 -0.0000
vn -0.2690 -0.9505 -0.1553
vn -0.1114 0.9749 0.1930
vn 0.1553 -0.9505 0.2690
vn 0.1930 0.9749 -0.1114
vn -0.3106 -0.9505 -0.0000
vn 0.2690 -0.9505 0.1553
vn 0.1114 0.9749 -0.1930
vn -0.2690 -0.9505 0.1553
vn 0.3106 -0.9505 -0.0000
vn -0.0000 0.9749 -0.2228
vn -0.1553 -0.9505 0.2690
vn 0.2690 -0.9505 -0.1553
vn -0.1114 0.9749 -0.1930
vn -0.0000 0.9749 0.2228
vn 0.1553 -0.9505 -0.2690
vn -0.1930 0.9749 -0.1114
vn 0.1114 0.9749 0.1930
vn -0.0000 -0.9505 -0.3106
vn -0.2228 0.9749 -0.0000
vn 0.1930 0.9749 0.1114
vn -0.1553 -0.9505 -0.2690
vn -0.0000 -1.0000 -0.0000
vn -0.0000 1.0000 -0.0000
vn 0.4833 0.8754 -0.0000
vn -0.0000 -0.8754 -0.4834
vn -0.4833 0.8754 -0.0000
vn 0.4834 -0.8754 -0.0000
vn -0.4834 -0.8754 -0.0000
vn -0.0000 0.8754 0.4833
vt 0.820605 0.705085
vt 0.820331 0.729949
vt 0.820331 0.705085
vt 0.821630 0.705085
vt 0.822105 0.729949
vt 0.822105 0.705085
vt 0.821081 0.729949
vt 0.821081 0.705085
vt 0.822379 0.705085
vt 0.820605 0.729949
vt 0.822379 0.729949
vt 0.821630 0.729949
vt 0.822299 0.731554
vt 0.820412 0.731554
vt 0.820665 0.731554
vt 0.821608 0.703480
vt 0.822046 0.703480
vt 0.821102 0.703480
vt 0.822299 0.703480
vt 0.821608 0.731554
vt 0.822046 0.731554
vt 0.820665 0.703480
vt 0.820412 0.703480
vt 0.821102 0.731554
vt 0.821944 0.730409
vt 0.822160 0.730409
vt 0.821582 0.704626
vt 0.821128 0.704626
vt 0.820551 0.730409
vt 0.822201 0.704626
vt 0.821571 0.730409
vt 0.820736 0.704626
vt 0.820766 0.730409
vt 0.820509 0.704626
vt 0.821140 0.730409
vt 0.821975 0.704626
vt 0.857145 0.692601
vt 0.857068 0.692601
vt 0.856961 0.692601
vt 0.856266 0.676291
vt 0.855851 0.676291
vt 0.856236 0.676291
vt 0.856643 0.692601
vt 0.856236 0.692601
vt 0.856682 0.692601
vt 0.855738 0.676291
vt 0.855931 0.676291
vt 0.856652 0.676291
vt 0.857068 0.676291
vt 0.856682 0.676291
vt 0.856275 0.692601
vt 0.855628 0.676291
vt 0.857181 0.676291
vt 0.856987 0.676291
vt 0.855851 0.692601
vt 0.855957 0.692601
vt 0.857290 0.676291
vt 0.856652 0.673451
vt 0.856266 0.673451
vt 0.855931 0.673451
vt 0.855738 0.673451
vt 0.856987 0.673451
vt 0.857181 0.673451
vt 0.856275 0.695440
vt 0.855957 0.695440
vt 0.855773 0.695440
vt 0.855773 0.692601
vt 0.856643 0.695440
vt 0.856961 0.695440
vt 0.857145 0.695440
vt 0.855628 0.692601
vt 0.857290 0.692601
s 0
usemtl Texture_Map
f 6/1/1 17/2/1 5/3/1
f 1/4/2 24/5/2 12/6/2
f 3/1/3 14/7/3 2/8/3
f 10/9/4 21/5/4 9/6/4
f 7/8/5 18/10/5 6/1/5
f 4/3/6 15/10/6 3/1/6
f 11/9/7 22/11/7 10/9/7
f 8/4/8 19/7/8 7/8/8
f 5/3/9 16/2/9 4/3/9
f 12/6/10 23/11/10 11/9/10
f 2/8/11 13/12/11 1/4/11
f 9/6/12 20/12/12 8/4/12
f 23/11/13 46/13/13 22/11/13
f 15/10/14 40/14/14 39/15/14
f 9/6/15 32/16/15 33/17/15
f 24/5/16 47/13/16 23/11/16
f 2/8/17 25/16/17 26/18/17
f 17/2/18 40/14/18 16/2/18
f 9/6/19 34/19/19 10/9/19
f 24/5/20 37/20/20 48/21/20
f 3/1/21 26/18/21 27/22/21
f 18/10/22 41/14/22 17/2/22
f 11/9/23 34/19/23 35/19/23
f 3/1/24 28/23/24 4/3/24
f 18/10/25 43/24/25 42/15/25
f 12/6/26 35/19/26 36/17/26
f 5/3/27 28/23/27 29/23/27
f 20/12/28 43/24/28 19/7/28
f 12/6/29 25/16/29 1/4/29
f 6/1/30 29/23/30 30/22/30
f 21/5/31 44/20/31 20/12/31
f 14/7/32 37/20/32 13/12/32
f 6/1/33 31/18/33 7/8/33
f 22/11/34 45/21/34 21/5/34
f 15/10/35 38/24/35 14/7/35
f 8/4/36 31/18/36 32/16/36
f 47/13/37 96/25/37 95/26/37
f 26/18/38 74/27/38 73/28/38
f 41/14/39 88/29/39 40/14/39
f 33/17/40 82/30/40 34/19/40
f 48/21/41 86/31/41 96/25/41
f 27/22/42 73/28/42 75/32/42
f 41/14/43 90/33/43 89/29/43
f 35/19/44 82/30/44 83/30/44
f 27/22/45 76/34/45 28/23/45
f 42/15/46 91/35/46 90/33/46
f 36/17/47 83/30/47 84/36/47
f 29/23/48 76/34/48 77/34/48
f 44/20/49 91/35/49 43/24/49
f 25/16/50 84/36/50 74/27/50
f 30/22/51 77/34/51 78/32/51
f 44/20/52 93/25/52 92/31/52
f 38/24/53 86/31/53 37/20/53
f 31/18/54 78/32/54 79/28/54
f 45/21/55 94/26/55 93/25/55
f 38/24/56 87/33/56 85/35/56
f 32/16/57 79/28/57 80/27/57
f 47/13/58 94/26/58 46/13/58
f 39/15/59 88/29/59 87/33/59
f 33/17/60 80/27/60 81/36/60
f 70/37/61 111/38/61 69/39/61
f 55/40/62 106/41/62 108/42/62
f 61/43/61 98/44/61 119/45/61
f 69/39/61 109/45/61 68/43/61
f 53/46/62 106/41/62 54/47/62
f 49/48/62 118/49/62 120/50/62
f 67/51/61 109/45/61 107/44/61
f 52/46/62 104/52/62 53/46/62
f 59/53/62 118/49/62 60/54/62
f 67/51/61 105/55/61 66/56/61
f 52/46/62 100/41/62 102/52/62
f 58/53/62 116/57/62 59/53/62
f 50/40/8 74/58/8 49/48/8
f 51/47/12 73/59/12 50/40/12
f 52/46/4 75/60/4 51/47/4
f 53/46/7 76/61/7 52/46/7
f 54/47/10 77/61/10 53/46/10
f 55/40/2 78/60/2 54/47/2
f 56/48/11 79/59/11 55/40/11
f 57/54/3 80/58/3 56/48/3
f 58/53/6 81/62/6 57/54/6
f 59/53/9 82/63/9 58/53/9
f 60/54/1 83/63/1 59/53/1
f 49/48/5 84/62/5 60/54/5
f 61/43/8 85/64/8 62/51/8
f 62/51/12 87/65/12 63/56/12
f 63/56/4 88/66/4 64/67/4
f 64/67/7 89/66/7 65/67/7
f 65/67/10 90/65/10 66/56/10
f 66/56/2 91/64/2 67/51/2
f 67/51/11 92/68/11 68/43/11
f 68/43/3 93/69/3 69/39/3
f 69/39/6 94/70/6 70/37/6
f 70/37/9 95/70/9 71/37/9
f 71/37/1 96/69/1 72/39/1
f 72/39/5 86/68/5 61/43/5
f 101/71/4 100/41/4 99/55/4
f 99/55/12 97/42/12 98/44/12
f 103/71/7 102/52/7 101/71/7
f 105/55/10 104/52/10 103/71/10
f 107/44/2 106/41/2 105/55/2
f 109/45/11 108/42/11 107/44/11
f 111/38/3 110/50/3 109/45/3
f 113/72/6 112/49/6 111/38/6
f 115/72/9 114/57/9 113/72/9
f 117/38/1 116/57/1 115/72/1
f 119/45/5 118/49/5 117/38/5
f 98/44/8 120/50/8 119/45/8
f 63/56/61 98/44/61 62/51/61
f 55/40/62 110/50/62 56/48/62
f 70/37/61 115/72/61 113/72/61
f 64/67/61 99/55/61 63/56/61
f 56/48/62 112/49/62 57/54/62
f 72/39/61 115/72/61 71/37/61
f 49/48/62 97/42/62 50/40/62
f 64/67/61 103/71/61 101/71/61
f 58/53/62 112/49/62 114/57/62
f 61/43/61 117/38/61 72/39/61
f 50/40/62 100/41/62 51/47/62
f 66/56/61 103/71/61 65/67/61
f 6/1/1 18/10/1 17/2/1
f 1/4/2 13/12/2 24/5/2
f 3/1/3 15/10/3 14/7/3
f 10/9/4 22/11/4 21/5/4
f 7/8/5 19/7/5 18/10/5
f 4/3/6 16/2/6 15/10/6
f 11/9/7 23/11/7 22/11/7
f 8/4/8 20/12/8 19/7/8
f 5/3/9 17/2/9 16/2/9
f 12/6/10 24/5/10 23/11/10
f 2/8/11 14/7/11 13/12/11
f 9/6/12 21/5/12 20/12/12
f 23/11/63 47/13/63 46/13/63
f 15/10/14 16/2/14 40/14/14
f 9/6/15 8/4/15 32/16/15
f 24/5/16 48/21/16 47/13/16
f 2/8/64 1/4/64 25/16/64
f 17/2/65 41/14/65 40/14/65
f 9/6/19 33/17/19 34/19/19
f 24/5/20 13/12/20 37/20/20
f 3/1/21 2/8/21 26/18/21
f 18/10/22 42/15/22 41/14/22
f 11/9/66 10/9/66 34/19/66
f 3/1/24 27/22/24 28/23/24
f 18/10/25 19/7/25 43/24/25
f 12/6/26 11/9/26 35/19/26
f 5/3/67 4/3/67 28/23/67
f 20/12/68 44/20/68 43/24/68
f 12/6/29 36/17/29 25/16/29
f 6/1/30 5/3/30 29/23/30
f 21/5/31 45/21/31 44/20/31
f 14/7/32 38/24/32 37/20/32
f 6/1/33 30/22/33 31/18/33
f 22/11/34 46/13/34 45/21/34
f 15/10/35 39/15/35 38/24/35
f 8/4/36 7/8/36 31/18/36
f 47/13/37 48/21/37 96/25/37
f 26/18/38 25/16/38 74/27/38
f 41/14/39 89/29/39 88/29/39
f 33/17/40 81/36/40 82/30/40
f 48/21/41 37/20/41 86/31/41
f 27/22/42 26/18/42 73/28/42
f 41/14/43 42/15/43 90/33/43
f 35/19/44 34/19/44 82/30/44
f 27/22/45 75/32/45 76/34/45
f 42/15/46 43/24/46 91/35/46
f 36/17/47 35/19/47 83/30/47
f 29/23/48 28/23/48 76/34/48
f 44/20/49 92/31/49 91/35/49
f 25/16/50 36/17/50 84/36/50
f 30/22/51 29/23/51 77/34/51
f 44/20/52 45/21/52 93/25/52
f 38/24/53 85/35/53 86/31/53
f 31/18/54 30/22/54 78/32/54
f 45/21/55 46/13/55 94/26/55
f 38/24/56 39/15/56 87/33/56
f 32/16/57 31/18/57 79/28/57
f 47/13/58 95/26/58 94/26/58
f 39/15/59 40/14/59 88/29/59
f 33/17/60 32/16/60 80/27/60
f 70/37/61 113/72/61 111/38/61
f 55/40/62 54/47/62 106/41/62
f 61/43/61 62/51/61 98/44/61
f 69/39/61 111/38/61 109/45/61
f 53/46/62 104/52/62 106/41/62
f 49/48/62 60/54/62 118/49/62
f 67/51/61 68/43/61 109/45/61
f 52/46/62 102/52/62 104/52/62
f 59/53/62 116/57/62 118/49/62
f 67/51/61 107/44/61 105/55/61
f 52/46/62 51/47/62 100/41/62
f 58/53/62 114/57/62 116/57/62
f 50/40/8 73/59/8 74/58/8
f 51/47/12 75/60/12 73/59/12
f 52/46/4 76/61/4 75/60/4
f 53/46/7 77/61/7 76/61/7
f 54/47/10 78/60/10 77/61/10
f 55/40/2 79/59/2 78/60/2
f 56/48/11 80/58/11 79/59/11
f 57/54/3 81/62/3 80/58/3
f 58/53/6 82/63/6 81/62/6
f 59/53/9 83/63/9 82/63/9
f 60/54/1 84/62/1 83/63/1
f 49/48/5 74/58/5 84/62/5
f 61/43/8 86/68/8 85/64/8
f 62/51/12 85/64/12 87/65/12
f 63/56/4 87/65/4 88/66/4
f 64/67/7 88/66/7 89/66/7
f 65/67/10 89/66/10 90/65/10
f 66/56/2 90/65/2 91/64/2
f 67/51/11 91/64/11 92/68/11
f 68/43/3 92/68/3 93/69/3
f 69/39/6 93/69/6 94/70/6
f 70/37/9 94/70/9 95/70/9
f 71/37/1 95/70/1 96/69/1
f 72/39/5 96/69/5 86/68/5
f 101/71/4 102/52/4 100/41/4
f 99/55/12 100/41/12 97/42/12
f 103/71/7 104/52/7 102/52/7
f 105/55/10 106/41/10 104/52/10
f 107/44/2 108/42/2 106/41/2
f 109/45/11 110/50/11 108/42/11
f 111/38/3 112/49/3 110/50/3
f 113/72/6 114/57/6 112/49/6
f 115/72/9 116/57/9 114/57/9
f 117/38/1 118/49/1 116/57/1
f 119/45/5 120/50/5 118/49/5
f 98/44/8 97/42/8 120/50/8
f 63/56/61 99/55/61 98/44/61
f 55/40/62 108/42/62 110/50/62
f 70/37/61 71/37/61 115/72/61
f 64/67/61 101/71/61 99/55/61
f 56/48/62 110/50/62 112/49/62
f 72/39/61 117/38/61 115/72/61
f 49/48/62 120/50/62 97/42/62
f 64/67/61 65/67/61 103/71/61
f 58/53/62 57/54/62 112/49/62
f 61/43/61 119/45/61 117/38/61
f 50/40/62 97/42/62 100/41/62
f 66/56/61 105/55/61 103/71/61
