# Blender 4.4.0
# www.blender.org
mtllib Prop_Plank_Stack_02.mtl
o Prop_Plank_Stack_02
v 0.155168 0.267331 1.737005
v 0.364082 0.267331 1.715851
v -0.197427 0.267331 -1.745190
v 0.011486 0.267331 -1.766344
v 0.155168 0.326559 1.737005
v 0.364082 0.326559 1.715851
v -0.197427 0.326559 -1.745190
v 0.011486 0.326559 -1.766344
v -0.554483 0.000000 1.691841
v -0.344501 0.000000 1.691841
v -0.554483 0.000000 -1.808159
v -0.344501 0.000000 -1.808159
v -0.554483 0.042933 1.691841
v -0.344501 0.042933 1.691841
v -0.554483 0.042933 -1.808159
v -0.344501 0.042933 -1.808159
v -0.222596 0.000000 1.837498
v -0.012614 0.000000 1.837498
v -0.222596 0.000000 -1.662502
v -0.012614 0.000000 -1.662502
v -0.222596 0.080000 1.837498
v -0.012614 0.080000 1.837498
v -0.222596 0.080000 -1.662502
v -0.012614 0.080000 -1.662502
v 0.070464 0.000000 1.735330
v 0.280446 0.000000 1.735330
v 0.070464 0.000000 -1.764670
v 0.280446 0.000000 -1.764670
v 0.070464 0.080000 1.735330
v 0.280446 0.080000 1.735330
v 0.070464 0.080000 -1.764670
v 0.280446 0.080000 -1.764670
v 0.286651 0.000000 1.735330
v 0.496633 0.000000 1.735330
v 0.286651 0.000000 -1.764670
v 0.496633 0.000000 -1.764670
v 0.286651 0.080000 1.735330
v 0.496633 0.080000 1.735330
v 0.286651 0.080000 -1.764670
v 0.496633 0.080000 -1.764670
v -0.442191 0.042933 1.735330
v -0.232209 0.042933 1.735330
v -0.442191 0.042933 -1.764670
v -0.232209 0.042933 -1.764670
v -0.442191 0.080000 1.735330
v -0.232209 0.080000 1.735330
v -0.442191 0.080000 -1.764670
v -0.232209 0.080000 -1.764670
v -0.319345 0.080000 1.775987
v -0.109364 0.080000 1.775987
v -0.319345 0.080000 -1.724013
v -0.109364 0.080000 -1.724013
v -0.319345 0.148131 1.775987
v -0.109364 0.148131 1.775987
v -0.319345 0.148131 -1.724013
v -0.109364 0.148131 -1.724013
v -0.220000 0.148131 1.703726
v -0.010019 0.148131 1.703726
v -0.220000 0.148131 -1.796274
v -0.010019 0.148131 -1.796274
v -0.220000 0.208102 1.703726
v -0.010019 0.208102 1.703726
v -0.220000 0.208102 -1.796274
v -0.010019 0.208102 -1.796274
v -0.127065 0.208102 1.735330
v 0.082917 0.208102 1.735330
v -0.127065 0.208102 -1.764670
v 0.082917 0.208102 -1.764670
v -0.127065 0.267331 1.735330
v 0.082917 0.267331 1.735330
v -0.127065 0.267331 -1.764670
v 0.082917 0.267331 -1.764670
v 0.085891 0.208102 1.812121
v 0.292899 0.208102 1.812121
v 0.085891 0.208102 -1.687879
v 0.292899 0.208102 -1.687879
v 0.085891 0.267331 1.812121
v 0.292899 0.267331 1.812121
v 0.085891 0.267331 -1.687879
v 0.292899 0.267331 -1.687879
v -0.057630 0.080000 1.802175
v 0.152352 0.080000 1.802175
v -0.057630 0.080000 -1.697825
v 0.152352 0.080000 -1.697825
v -0.057630 0.148131 1.802175
v 0.152352 0.148131 1.802175
v -0.057630 0.148131 -1.697825
v 0.152352 0.148131 -1.697825
v 0.098153 0.148131 1.735330
v 0.308135 0.148131 1.735330
v 0.098153 0.148131 -1.764670
v 0.308135 0.148131 -1.764670
v 0.098153 0.208102 1.735330
v 0.308135 0.208102 1.735330
v 0.098153 0.208102 -1.764670
v 0.308135 0.208102 -1.764670
v 0.241871 0.080000 1.729075
v 0.451853 0.080000 1.729075
v 0.241871 0.080000 -1.764670
v 0.451853 0.080000 -1.764670
v 0.241871 0.148131 1.729075
v 0.451853 0.148131 1.729075
v 0.241871 0.148131 -1.764670
v 0.451853 0.148131 -1.764670
vn -0.0000 -1.0000 -0.0000
vn -0.0000 1.0000 -0.0000
vn 0.9949 -0.0000 -0.1007
vn -0.9949 -0.0000 0.1007
vn -0.1007 -0.0000 -0.9949
vn 0.1007 -0.0000 0.9949
vn 1.0000 -0.0000 -0.0000
vn -1.0000 -0.0000 -0.0000
vn -0.0000 -0.0000 -1.0000
vn -0.0000 -0.0000 1.0000
vt 0.577633 0.920662
vt 0.578713 0.920662
vt 0.578311 0.920662
vt 0.578713 0.934888
vt 0.577633 0.934888
vt 0.578311 0.934888
vt 0.578035 0.920662
vt 0.578035 0.934888
vt 0.569860 0.904287
vt 0.570264 0.904287
vt 0.570264 0.914599
vt 0.569860 0.914599
vt 0.569860 0.914599
vt 0.570264 0.914599
vt 0.577585 0.856452
vt 0.577989 0.856452
vt 0.577585 0.856452
vt 0.577989 0.875667
vt 0.577585 0.875667
vt 0.577585 0.875667
vt 0.577989 0.856452
vt 0.577989 0.875667
vt 0.578148 0.856452
vt 0.578552 0.856452
vt 0.578148 0.856452
vt 0.578552 0.875667
vt 0.578148 0.875667
vt 0.578148 0.875667
vt 0.578552 0.856452
vt 0.578552 0.875667
vt 0.571478 0.904287
vt 0.571881 0.904287
vt 0.571478 0.904287
vt 0.571881 0.923502
vt 0.571478 0.923502
vt 0.571478 0.923502
vt 0.571881 0.904287
vt 0.571881 0.923502
vt 0.577163 0.866764
vt 0.577566 0.866764
vt 0.577163 0.866764
vt 0.577566 0.875667
vt 0.577163 0.875667
vt 0.577163 0.875667
vt 0.577566 0.866764
vt 0.577566 0.875667
vt 0.570312 0.923502
vt 0.570716 0.923502
vt 0.570312 0.923502
vt 0.570716 0.939867
vt 0.570312 0.939867
vt 0.570312 0.939867
vt 0.570716 0.923502
vt 0.570716 0.939867
vt 0.577590 0.892032
vt 0.577994 0.892032
vt 0.577590 0.892032
vt 0.577994 0.906436
vt 0.577590 0.906436
vt 0.577590 0.906436
vt 0.577994 0.892032
vt 0.577994 0.906436
vt 0.570682 0.954271
vt 0.571086 0.954271
vt 0.570682 0.954271
vt 0.571086 0.968497
vt 0.570682 0.968497
vt 0.570682 0.968497
vt 0.571086 0.954271
vt 0.571086 0.968497
vt 0.571091 0.954271
vt 0.571490 0.954271
vt 0.571091 0.954271
vt 0.571490 0.968497
vt 0.571091 0.968497
vt 0.571091 0.968497
vt 0.571490 0.954271
vt 0.571490 0.968497
vt 0.570815 0.923502
vt 0.571219 0.923502
vt 0.570815 0.923502
vt 0.571219 0.939867
vt 0.570815 0.939867
vt 0.570815 0.939867
vt 0.571219 0.923502
vt 0.571219 0.939867
vt 0.571115 0.939867
vt 0.571519 0.939867
vt 0.571115 0.939867
vt 0.571519 0.954271
vt 0.571115 0.954271
vt 0.571115 0.954271
vt 0.571519 0.939867
vt 0.571519 0.954271
vt 0.578478 0.875667
vt 0.578882 0.875667
vt 0.578478 0.875667
vt 0.578882 0.892032
vt 0.578478 0.892032
vt 0.578478 0.892032
vt 0.578882 0.875667
vt 0.578882 0.892032
s 0
usemtl Texture_Map
f 3/1/1 2/2/1 1/3/1
f 6/4/2 7/5/2 5/6/2
f 4/7/3 6/4/3 2/2/3
f 1/3/4 7/5/4 3/1/4
f 3/1/5 8/8/5 4/7/5
f 2/2/6 5/6/6 1/3/6
f 11/9/1 10/10/1 9/9/1
f 14/11/2 15/12/2 13/13/2
f 12/10/7 14/11/7 10/10/7
f 9/9/8 15/12/8 11/9/8
f 11/9/9 16/14/9 12/10/9
f 10/10/10 13/13/10 9/9/10
f 19/15/1 18/16/1 17/17/1
f 22/18/2 23/19/2 21/20/2
f 20/21/7 22/18/7 18/16/7
f 17/17/8 23/19/8 19/15/8
f 19/15/9 24/22/9 20/21/9
f 18/16/10 21/20/10 17/17/10
f 27/23/1 26/24/1 25/25/1
f 30/26/2 31/27/2 29/28/2
f 28/29/7 30/26/7 26/24/7
f 25/25/8 31/27/8 27/23/8
f 27/23/9 32/30/9 28/29/9
f 26/24/10 29/28/10 25/25/10
f 35/31/1 34/32/1 33/33/1
f 38/34/2 39/35/2 37/36/2
f 36/37/7 38/34/7 34/32/7
f 33/33/8 39/35/8 35/31/8
f 35/31/9 40/38/9 36/37/9
f 34/32/10 37/36/10 33/33/10
f 43/39/1 42/40/1 41/41/1
f 46/42/2 47/43/2 45/44/2
f 44/45/7 46/42/7 42/40/7
f 41/41/8 47/43/8 43/39/8
f 43/39/9 48/46/9 44/45/9
f 42/40/10 45/44/10 41/41/10
f 51/47/1 50/48/1 49/49/1
f 54/50/2 55/51/2 53/52/2
f 52/53/7 54/50/7 50/48/7
f 49/49/8 55/51/8 51/47/8
f 51/47/9 56/54/9 52/53/9
f 50/48/10 53/52/10 49/49/10
f 59/55/1 58/56/1 57/57/1
f 62/58/2 63/59/2 61/60/2
f 60/61/7 62/58/7 58/56/7
f 57/57/8 63/59/8 59/55/8
f 59/55/9 64/62/9 60/61/9
f 58/56/10 61/60/10 57/57/10
f 67/63/1 66/64/1 65/65/1
f 70/66/2 71/67/2 69/68/2
f 68/69/7 70/66/7 66/64/7
f 65/65/8 71/67/8 67/63/8
f 67/63/9 72/70/9 68/69/9
f 66/64/10 69/68/10 65/65/10
f 75/71/1 74/72/1 73/73/1
f 78/74/2 79/75/2 77/76/2
f 76/77/7 78/74/7 74/72/7
f 73/73/8 79/75/8 75/71/8
f 75/71/9 80/78/9 76/77/9
f 74/72/10 77/76/10 73/73/10
f 83/79/1 82/80/1 81/81/1
f 86/82/2 87/83/2 85/84/2
f 84/85/7 86/82/7 82/80/7
f 81/81/8 87/83/8 83/79/8
f 83/79/9 88/86/9 84/85/9
f 82/80/10 85/84/10 81/81/10
f 91/87/1 90/88/1 89/89/1
f 94/90/2 95/91/2 93/92/2
f 92/93/7 94/90/7 90/88/7
f 89/89/8 95/91/8 91/87/8
f 91/87/9 96/94/9 92/93/9
f 90/88/10 93/92/10 89/89/10
f 99/95/1 98/96/1 97/97/1
f 102/98/2 103/99/2 101/100/2
f 100/101/7 102/98/7 98/96/7
f 97/97/8 103/99/8 99/95/8
f 99/95/9 104/102/9 100/101/9
f 98/96/10 101/100/10 97/97/10
f 3/1/1 4/7/1 2/2/1
f 6/4/2 8/8/2 7/5/2
f 4/7/3 8/8/3 6/4/3
f 1/3/4 5/6/4 7/5/4
f 3/1/5 7/5/5 8/8/5
f 2/2/6 6/4/6 5/6/6
f 11/9/1 12/10/1 10/10/1
f 14/11/2 16/14/2 15/12/2
f 12/10/7 16/14/7 14/11/7
f 9/9/8 13/13/8 15/12/8
f 11/9/9 15/12/9 16/14/9
f 10/10/10 14/11/10 13/13/10
f 19/15/1 20/21/1 18/16/1
f 22/18/2 24/22/2 23/19/2
f 20/21/7 24/22/7 22/18/7
f 17/17/8 21/20/8 23/19/8
f 19/15/9 23/19/9 24/22/9
f 18/16/10 22/18/10 21/20/10
f 27/23/1 28/29/1 26/24/1
f 30/26/2 32/30/2 31/27/2
f 28/29/7 32/30/7 30/26/7
f 25/25/8 29/28/8 31/27/8
f 27/23/9 31/27/9 32/30/9
f 26/24/10 30/26/10 29/28/10
f 35/31/1 36/37/1 34/32/1
f 38/34/2 40/38/2 39/35/2
f 36/37/7 40/38/7 38/34/7
f 33/33/8 37/36/8 39/35/8
f 35/31/9 39/35/9 40/38/9
f 34/32/10 38/34/10 37/36/10
f 43/39/1 44/45/1 42/40/1
f 46/42/2 48/46/2 47/43/2
f 44/45/7 48/46/7 46/42/7
f 41/41/8 45/44/8 47/43/8
f 43/39/9 47/43/9 48/46/9
f 42/40/10 46/42/10 45/44/10
f 51/47/1 52/53/1 50/48/1
f 54/50/2 56/54/2 55/51/2
f 52/53/7 56/54/7 54/50/7
f 49/49/8 53/52/8 55/51/8
f 51/47/9 55/51/9 56/54/9
f 50/48/10 54/50/10 53/52/10
f 59/55/1 60/61/1 58/56/1
f 62/58/2 64/62/2 63/59/2
f 60/61/7 64/62/7 62/58/7
f 57/57/8 61/60/8 63/59/8
f 59/55/9 63/59/9 64/62/9
f 58/56/10 62/58/10 61/60/10
f 67/63/1 68/69/1 66/64/1
f 70/66/2 72/70/2 71/67/2
f 68/69/7 72/70/7 70/66/7
f 65/65/8 69/68/8 71/67/8
f 67/63/9 71/67/9 72/70/9
f 66/64/10 70/66/10 69/68/10
f 75/71/1 76/77/1 74/72/1
f 78/74/2 80/78/2 79/75/2
f 76/77/7 80/78/7 78/74/7
f 73/73/8 77/76/8 79/75/8
f 75/71/9 79/75/9 80/78/9
f 74/72/10 78/74/10 77/76/10
f 83/79/1 84/85/1 82/80/1
f 86/82/2 88/86/2 87/83/2
f 84/85/7 88/86/7 86/82/7
f 81/81/8 85/84/8 87/83/8
f 83/79/9 87/83/9 88/86/9
f 82/80/10 86/82/10 85/84/10
f 91/87/1 92/93/1 90/88/1
f 94/90/2 96/94/2 95/91/2
f 92/93/7 96/94/7 94/90/7
f 89/89/8 93/92/8 95/91/8
f 91/87/9 95/91/9 96/94/9
f 90/88/10 94/90/10 93/92/10
f 99/95/1 100/101/1 98/96/1
f 102/98/2 104/102/2 103/99/2
f 100/101/7 104/102/7 102/98/7
f 97/97/8 101/100/8 103/99/8
f 99/95/9 103/99/9 104/102/9
f 98/96/10 102/98/10 101/100/10
