# Blender 4.4.0
# www.blender.org
mtllib Prop_Wooden_Crate_01.mtl
o Prop_Wooden_Crate_01
v 0.335044 0.007948 0.213900
v 0.361254 0.007948 0.213900
v 0.361254 0.007948 0.187690
v 0.335044 0.393556 0.213900
v 0.361254 0.393556 0.213900
v 0.361254 0.393556 0.187690
v -0.335044 0.007948 0.213900
v -0.361254 0.007948 0.213900
v -0.361254 0.007948 0.187690
v -0.335044 0.393556 0.213900
v -0.361254 0.393556 0.213900
v -0.361254 0.393556 0.187690
v 0.335044 0.007948 -0.213900
v 0.361254 0.007948 -0.213900
v 0.361254 0.007948 -0.187690
v 0.335044 0.393556 -0.213900
v 0.361254 0.393556 -0.213900
v 0.361254 0.393556 -0.187690
v -0.335044 0.007948 -0.213900
v -0.361254 0.007948 -0.213900
v -0.361254 0.007948 -0.187690
v -0.335044 0.393556 -0.213900
v -0.361254 0.393556 -0.213900
v -0.361254 0.393556 -0.187690
v 0.380000 0.015895 0.213900
v 0.380000 0.390000 0.213900
v 0.361254 0.015895 0.213900
v 0.361254 0.015895 -0.213900
v 0.361254 0.390000 0.213900
v 0.361254 0.390000 -0.213900
v 0.380000 0.271161 -0.213900
v 0.380000 0.259436 -0.213900
v 0.380000 0.146459 0.213900
v 0.380000 0.259436 0.213900
v 0.361254 0.259436 -0.213900
v 0.361254 0.271161 -0.213900
v 0.361254 0.134735 -0.213900
v 0.361254 0.146459 -0.213900
v 0.361254 0.146459 0.213900
v 0.361254 0.134735 0.213900
v 0.361254 0.271161 0.213900
v 0.361254 0.259436 0.213900
v 0.361254 0.313911 -0.083274
v 0.380000 0.313910 -0.083274
v 0.361254 0.357097 -0.072195
v 0.380000 0.357097 -0.072195
v 0.361254 0.347250 -0.083274
v 0.380000 0.347250 -0.083274
v 0.361254 0.304063 -0.072195
v 0.380000 0.304063 -0.072195
v 0.361254 0.357097 0.072195
v 0.380000 0.357097 0.072195
v 0.361254 0.304063 0.072195
v 0.380000 0.304063 0.072195
v 0.361254 0.313911 0.083274
v 0.380000 0.313910 0.083274
v 0.361254 0.347250 0.083274
v 0.380000 0.347250 0.083274
v -0.380000 0.015895 0.213900
v -0.361254 0.015895 0.213900
v -0.361254 0.015895 -0.213900
v -0.361254 0.390000 0.213900
v -0.361254 0.390000 -0.213900
v -0.380000 0.259436 -0.213900
v -0.380000 0.146459 -0.213900
v -0.380000 0.134735 -0.213900
v -0.380000 0.134735 0.213900
v -0.361254 0.259436 -0.213900
v -0.361254 0.271161 -0.213900
v -0.361254 0.134735 -0.213900
v -0.361254 0.146459 -0.213900
v -0.361254 0.146459 0.213900
v -0.361254 0.134735 0.213900
v -0.361254 0.271161 0.213900
v -0.361254 0.259436 0.213900
v -0.361254 0.313911 -0.083274
v -0.380000 0.313910 -0.083274
v -0.361254 0.357097 -0.072195
v -0.380000 0.357097 -0.072195
v -0.361254 0.347250 -0.083274
v -0.380000 0.347250 -0.083274
v -0.361254 0.304063 -0.072195
v -0.380000 0.304063 -0.072195
v -0.361254 0.357097 0.072195
v -0.380000 0.357097 0.072195
v -0.361254 0.304063 0.072195
v -0.380000 0.304063 0.072195
v -0.361254 0.313911 0.083274
v -0.380000 0.313910 0.083274
v -0.361254 0.347250 0.083274
v -0.380000 0.347250 0.083274
v -0.383099 0.000000 0.226835
v 0.383099 0.000000 0.226835
v -0.383099 0.000000 -0.226835
v 0.383099 0.000000 -0.226835
v -0.383099 0.015895 -0.226835
v -0.383099 0.015895 0.226835
v 0.383099 0.015895 0.226835
v 0.383099 0.015895 -0.226835
v -0.383099 0.000000 -0.077487
v -0.383099 0.000000 -0.073737
v -0.383099 0.000000 0.073737
v -0.383099 0.000000 0.077487
v 0.383099 0.000000 0.077487
v 0.383099 0.000000 0.073737
v 0.383099 0.000000 -0.073737
v 0.383099 0.000000 -0.077487
v -0.383099 0.015895 -0.073737
v -0.383099 0.015895 -0.077487
v -0.383099 0.015895 0.077487
v -0.383099 0.015895 0.073737
v 0.383099 0.015895 0.073737
v 0.383099 0.015895 0.077487
v 0.383099 0.015895 -0.077487
v 0.383099 0.015895 -0.073737
v -0.380000 0.015895 0.225000
v 0.380000 0.015895 0.225000
v -0.380000 0.390000 0.225000
v 0.380000 0.390000 0.225000
v -0.380000 0.390000 0.213900
v -0.380000 0.134735 0.225000
v -0.380000 0.146459 0.225000
v -0.380000 0.259436 0.225000
v -0.380000 0.271161 0.225000
v 0.380000 0.146459 0.225000
v 0.380000 0.134735 0.225000
v 0.380000 0.271161 0.225000
v 0.380000 0.259436 0.225000
v -0.380000 0.146459 0.213900
v -0.380000 0.271161 0.213900
v -0.380000 0.259436 0.213900
v 0.380000 0.134735 0.213900
v 0.380000 0.271161 0.213900
v -0.380000 0.015895 -0.225000
v 0.380000 0.015895 -0.225000
v -0.380000 0.390000 -0.225000
v 0.380000 0.390000 -0.225000
v -0.380000 0.015895 -0.213900
v 0.380000 0.015895 -0.213900
v -0.380000 0.390000 -0.213900
v 0.380000 0.390000 -0.213900
v -0.380000 0.134735 -0.225000
v -0.380000 0.146459 -0.225000
v -0.380000 0.259436 -0.225000
v -0.380000 0.271161 -0.225000
v 0.380000 0.146459 -0.225000
v 0.380000 0.134735 -0.225000
v 0.380000 0.271161 -0.225000
v 0.380000 0.259436 -0.225000
v -0.380000 0.271161 -0.213900
v 0.380000 0.134735 -0.213900
v 0.380000 0.146459 -0.213900
vn -0.0000 -1.0000 -0.0000
vn -0.0000 1.0000 -0.0000
vn 1.0000 -0.0000 -0.0000
vn -0.0000 -0.0000 1.0000
vn -0.7071 -0.0000 -0.7071
vn -1.0000 -0.0000 -0.0000
vn 0.7071 -0.0000 -0.7071
vn -0.0000 -0.0000 -1.0000
vn -0.7071 -0.0000 0.7071
vn 0.7071 -0.0000 0.7071
vn -0.0000 -0.7474 -0.6643
vn -0.0000 0.7474 -0.6643
vn -0.0000 0.7474 0.6643
vn -0.0000 -0.7474 0.6643
vt 0.574938 0.890085
vt 0.574869 0.890085
vt 0.574938 0.925035
vt 0.574869 0.925035
vt 0.576711 0.890085
vt 0.576781 0.890085
vt 0.576711 0.925035
vt 0.576781 0.925035
vt 0.574869 0.912879
vt 0.574869 0.902639
vt 0.574869 0.924712
vt 0.574819 0.924712
vt 0.574819 0.902639
vt 0.574819 0.912879
vt 0.605946 0.879871
vt 0.605946 0.888684
vt 0.574869 0.913941
vt 0.574869 0.916923
vt 0.605986 0.888684
vt 0.605986 0.879871
vt 0.574819 0.921730
vt 0.574819 0.913941
vt 0.574819 0.890805
vt 0.574869 0.890805
vt 0.574869 0.920838
vt 0.574819 0.920838
vt 0.574819 0.916923
vt 0.574869 0.917816
vt 0.574819 0.917816
vt 0.574869 0.921730
vt 0.605910 0.889553
vt 0.605910 0.897931
vt 0.576830 0.924712
vt 0.576781 0.924712
vt 0.605951 0.897931
vt 0.605951 0.889553
vt 0.576830 0.901576
vt 0.576830 0.890805
vt 0.576781 0.913941
vt 0.576781 0.916923
vt 0.576781 0.917816
vt 0.576781 0.890805
vt 0.576781 0.901576
vt 0.576830 0.921730
vt 0.576830 0.920838
vt 0.576830 0.913941
vt 0.576781 0.920838
vt 0.576830 0.916923
vt 0.576830 0.917816
vt 0.576781 0.921730
vt 0.606379 0.879871
vt 0.606379 0.878692
vt 0.604720 0.879871
vt 0.604720 0.878692
vt 0.576838 0.890805
vt 0.574811 0.889364
vt 0.576838 0.889364
vt 0.574811 0.890805
vt 0.605338 0.879871
vt 0.605338 0.888684
vt 0.576830 0.912879
vt 0.576830 0.902639
vt 0.605338 0.907613
vt 0.606983 0.907613
vt 0.606983 0.888684
vt 0.606983 0.879871
vt 0.605338 0.898801
vt 0.606983 0.898801
vt 0.604994 0.888684
vt 0.604994 0.879871
vt 0.606639 0.907613
vt 0.604994 0.907613
vt 0.606639 0.888684
vt 0.606639 0.879871
vt 0.604994 0.898801
vt 0.606639 0.898801
s 0
usemtl Texture_Map
f 1/1/1 3/2/1 2/2/1
f 4/3/2 5/4/2 6/4/2
f 3/2/3 5/4/3 2/2/3
f 2/2/4 4/3/4 1/1/4
f 1/1/5 6/4/5 3/2/5
f 7/5/1 8/6/1 9/6/1
f 10/7/2 12/8/2 11/8/2
f 11/8/6 9/6/6 8/6/6
f 10/7/4 8/6/4 7/5/4
f 12/8/7 7/5/7 9/6/7
f 13/1/1 14/2/1 15/2/1
f 16/3/2 18/4/2 17/4/2
f 17/4/3 15/2/3 14/2/3
f 16/3/8 14/2/8 13/1/8
f 18/4/9 13/1/9 15/2/9
f 19/5/1 21/6/1 20/6/1
f 22/7/2 23/8/2 24/8/2
f 21/6/6 23/8/6 20/6/6
f 20/6/8 22/7/8 19/5/8
f 19/5/10 24/8/10 21/6/10
f 42/9/6 38/10/6 39/10/6
f 30/11/2 26/12/2 141/12/2
f 152/13/3 34/14/3 33/13/3
f 139/15/3 132/16/3 25/15/3
f 41/17/6 53/18/6 36/17/6
f 40/19/6 28/20/6 27/20/6
f 52/21/3 141/12/3 26/12/3
f 35/9/2 34/14/2 32/14/2
f 31/22/1 41/17/1 36/17/1
f 37/19/2 132/16/2 151/16/2
f 152/13/1 39/10/1 38/10/1
f 25/23/1 28/24/1 139/23/1
f 57/25/11 52/21/11 58/26/11
f 50/27/3 133/22/3 31/22/3
f 48/26/4 43/28/4 44/29/4
f 51/30/1 46/21/1 52/21/1
f 56/29/12 53/18/12 55/28/12
f 44/29/13 49/18/13 50/27/13
f 45/30/6 29/11/6 30/11/6
f 47/25/14 46/21/14 45/30/14
f 55/28/8 58/26/8 56/29/8
f 49/18/2 54/27/2 50/27/2
f 71/31/3 75/32/3 72/31/3
f 120/33/2 63/34/2 140/33/2
f 131/35/6 65/36/6 129/36/6
f 67/37/6 138/38/6 59/38/6
f 74/39/3 86/40/3 88/41/3
f 61/42/3 73/43/3 60/42/3
f 120/33/6 85/44/6 91/45/6
f 131/35/2 68/32/2 64/35/2
f 74/39/1 150/46/1 69/39/1
f 67/37/2 70/43/2 66/37/2
f 72/31/1 65/36/1 71/31/1
f 61/42/1 59/38/1 138/38/1
f 85/44/11 90/47/11 91/45/11
f 150/46/6 83/48/6 77/49/6
f 81/45/4 76/41/4 80/47/4
f 79/44/1 84/50/1 85/44/1
f 86/40/12 89/49/12 88/41/12
f 77/49/13 82/40/13 76/41/13
f 63/34/3 78/50/3 80/47/3
f 80/47/14 79/44/14 81/45/14
f 91/45/8 88/41/8 89/49/8
f 87/48/2 82/40/2 83/48/2
f 111/51/6 101/52/6 102/52/6
f 112/53/2 108/51/2 111/51/2
f 115/53/3 105/54/3 106/54/3
f 101/52/1 105/54/1 102/52/1
f 96/55/8 95/56/8 94/57/8
f 98/58/4 92/57/4 93/56/4
f 113/58/3 93/56/3 104/56/3
f 103/57/1 93/56/1 92/57/1
f 114/58/2 96/55/2 109/55/2
f 99/58/3 107/56/3 95/56/3
f 98/58/2 110/55/2 97/55/2
f 97/55/6 103/57/6 92/57/6
f 94/57/1 107/56/1 100/57/1
f 108/51/8 106/54/8 101/52/8
f 100/57/4 114/58/4 109/55/4
f 110/55/8 104/56/8 103/57/8
f 102/52/4 112/53/4 111/51/4
f 109/55/6 94/57/6 100/57/6
f 25/59/3 126/60/3 117/59/3
f 125/13/4 123/61/4 122/62/4
f 26/63/2 118/64/2 119/63/2
f 67/65/8 25/59/8 59/66/8
f 33/13/3 128/14/3 125/13/3
f 133/67/3 119/63/3 127/67/3
f 127/67/4 118/64/4 124/68/4
f 121/65/6 59/66/6 116/66/6
f 131/61/8 33/13/8 129/62/8
f 120/64/8 133/67/8 130/68/8
f 131/61/6 122/62/6 123/61/6
f 120/64/6 124/68/6 118/64/6
f 34/14/2 123/61/2 128/14/2
f 127/67/1 130/68/1 133/67/1
f 132/60/2 121/65/2 126/60/2
f 125/13/1 129/62/1 33/13/1
f 117/59/4 121/65/4 116/66/4
f 147/69/3 139/70/3 135/70/3
f 144/61/8 146/13/8 143/62/8
f 136/71/2 141/72/2 137/72/2
f 139/70/4 66/73/4 138/74/4
f 146/13/3 32/14/3 152/13/3
f 137/72/3 31/75/3 148/75/3
f 136/71/8 148/75/8 145/76/8
f 134/74/6 66/73/6 142/73/6
f 152/13/4 64/61/4 65/62/4
f 31/75/4 140/71/4 150/76/4
f 143/62/6 64/61/6 144/61/6
f 145/76/6 140/71/6 136/71/6
f 144/61/2 32/14/2 149/14/2
f 150/76/1 148/75/1 31/75/1
f 142/73/2 151/69/2 147/69/2
f 65/62/1 146/13/1 152/13/1
f 142/73/8 135/70/8 134/74/8
f 3/2/3 6/4/3 5/4/3
f 2/2/4 5/4/4 4/3/4
f 1/1/5 4/3/5 6/4/5
f 11/8/6 12/8/6 9/6/6
f 10/7/4 11/8/4 8/6/4
f 12/8/7 10/7/7 7/5/7
f 17/4/3 18/4/3 15/2/3
f 16/3/8 17/4/8 14/2/8
f 18/4/9 16/3/9 13/1/9
f 21/6/6 24/8/6 23/8/6
f 20/6/8 23/8/8 22/7/8
f 19/5/10 22/7/10 24/8/10
f 42/9/6 35/9/6 38/10/6
f 30/11/2 29/11/2 26/12/2
f 152/13/3 32/14/3 34/14/3
f 139/15/3 151/16/3 132/16/3
f 41/17/6 29/11/6 57/25/6
f 41/17/6 57/25/6 55/28/6
f 49/18/6 43/28/6 36/17/6
f 41/17/6 55/28/6 53/18/6
f 53/18/6 49/18/6 36/17/6
f 40/19/6 37/19/6 28/20/6
f 26/12/3 133/22/3 58/26/3
f 133/22/3 56/29/3 58/26/3
f 46/21/3 48/26/3 141/12/3
f 26/12/3 58/26/3 52/21/3
f 52/21/3 46/21/3 141/12/3
f 35/9/2 42/9/2 34/14/2
f 31/22/1 133/22/1 41/17/1
f 37/19/2 40/19/2 132/16/2
f 152/13/1 33/13/1 39/10/1
f 25/23/1 27/24/1 28/24/1
f 57/25/11 51/30/11 52/21/11
f 31/22/3 141/12/3 48/26/3
f 31/22/3 48/26/3 44/29/3
f 54/27/3 56/29/3 133/22/3
f 31/22/3 44/29/3 50/27/3
f 50/27/3 54/27/3 133/22/3
f 48/26/4 47/25/4 43/28/4
f 51/30/1 45/30/1 46/21/1
f 56/29/12 54/27/12 53/18/12
f 44/29/13 43/28/13 49/18/13
f 30/11/6 36/17/6 43/28/6
f 30/11/6 43/28/6 47/25/6
f 51/30/6 57/25/6 29/11/6
f 30/11/6 47/25/6 45/30/6
f 45/30/6 51/30/6 29/11/6
f 47/25/14 48/26/14 46/21/14
f 55/28/8 57/25/8 58/26/8
f 49/18/2 53/18/2 54/27/2
f 71/31/3 68/32/3 75/32/3
f 120/33/2 62/34/2 63/34/2
f 131/35/6 64/35/6 65/36/6
f 67/37/6 66/37/6 138/38/6
f 69/39/3 76/41/3 82/40/3
f 69/39/3 82/40/3 86/40/3
f 90/47/3 62/34/3 74/39/3
f 88/41/3 90/47/3 74/39/3
f 74/39/3 69/39/3 86/40/3
f 61/42/3 70/43/3 73/43/3
f 89/49/6 130/46/6 120/33/6
f 140/33/6 81/45/6 79/44/6
f 140/33/6 79/44/6 85/44/6
f 91/45/6 89/49/6 120/33/6
f 120/33/6 140/33/6 85/44/6
f 131/35/2 75/32/2 68/32/2
f 74/39/1 130/46/1 150/46/1
f 67/37/2 73/43/2 70/43/2
f 72/31/1 129/36/1 65/36/1
f 61/42/1 60/42/1 59/38/1
f 85/44/11 84/50/11 90/47/11
f 81/45/6 140/33/6 150/46/6
f 130/46/6 89/49/6 87/48/6
f 130/46/6 87/48/6 83/48/6
f 77/49/6 81/45/6 150/46/6
f 150/46/6 130/46/6 83/48/6
f 81/45/4 77/49/4 76/41/4
f 79/44/1 78/50/1 84/50/1
f 86/40/12 87/48/12 89/49/12
f 77/49/13 83/48/13 82/40/13
f 76/41/3 69/39/3 63/34/3
f 62/34/3 90/47/3 84/50/3
f 62/34/3 84/50/3 78/50/3
f 80/47/3 76/41/3 63/34/3
f 63/34/3 62/34/3 78/50/3
f 80/47/14 78/50/14 79/44/14
f 91/45/8 90/47/8 88/41/8
f 87/48/2 86/40/2 82/40/2
f 111/51/6 108/51/6 101/52/6
f 112/53/2 115/53/2 108/51/2
f 115/53/3 112/53/3 105/54/3
f 101/52/1 106/54/1 105/54/1
f 96/55/8 99/58/8 95/56/8
f 98/58/4 97/55/4 92/57/4
f 113/58/3 98/58/3 93/56/3
f 103/57/1 104/56/1 93/56/1
f 114/58/2 99/58/2 96/55/2
f 99/58/3 114/58/3 107/56/3
f 98/58/2 113/58/2 110/55/2
f 97/55/6 110/55/6 103/57/6
f 94/57/1 95/56/1 107/56/1
f 108/51/8 115/53/8 106/54/8
f 100/57/4 107/56/4 114/58/4
f 110/55/8 113/58/8 104/56/8
f 102/52/4 105/54/4 112/53/4
f 109/55/6 96/55/6 94/57/6
f 25/59/3 132/60/3 126/60/3
f 125/13/4 128/14/4 123/61/4
f 26/63/2 120/64/2 118/64/2
f 67/65/8 132/60/8 25/59/8
f 33/13/3 34/14/3 128/14/3
f 133/67/3 26/63/3 119/63/3
f 127/67/4 119/63/4 118/64/4
f 121/65/6 67/65/6 59/66/6
f 131/61/8 34/14/8 33/13/8
f 120/64/8 26/63/8 133/67/8
f 131/61/6 129/62/6 122/62/6
f 120/64/6 130/68/6 124/68/6
f 34/14/2 131/61/2 123/61/2
f 127/67/1 124/68/1 130/68/1
f 132/60/2 67/65/2 121/65/2
f 125/13/1 122/62/1 129/62/1
f 117/59/4 126/60/4 121/65/4
f 147/69/3 151/69/3 139/70/3
f 144/61/8 149/14/8 146/13/8
f 136/71/2 140/71/2 141/72/2
f 139/70/4 151/69/4 66/73/4
f 146/13/3 149/14/3 32/14/3
f 137/72/3 141/72/3 31/75/3
f 136/71/8 137/72/8 148/75/8
f 134/74/6 138/74/6 66/73/6
f 152/13/4 32/14/4 64/61/4
f 31/75/4 141/72/4 140/71/4
f 143/62/6 65/62/6 64/61/6
f 145/76/6 150/76/6 140/71/6
f 144/61/2 64/61/2 32/14/2
f 150/76/1 145/76/1 148/75/1
f 142/73/2 66/73/2 151/69/2
f 65/62/1 143/62/1 146/13/1
f 142/73/8 147/69/8 135/70/8
