# Blender 4.4.0
# www.blender.org
mtllib Prop_Wood_Pile_02.mtl
o Prop_Wood_Pile_02
v -0.049136 0.124110 0.235371
v -0.113118 0.123552 0.235371
v -0.144626 0.067862 0.235371
v -0.112151 0.012731 0.235371
v -0.048169 0.013290 0.235371
v -0.016661 0.068979 0.235371
v -0.049136 0.124110 -0.170231
v -0.113118 0.123552 -0.170231
v -0.144626 0.067862 -0.170231
v -0.112151 0.012731 -0.170231
v -0.048169 0.013290 -0.170231
v -0.016661 0.068979 -0.170231
v -0.120746 0.136501 0.237945
v -0.041736 0.137191 0.237945
v -0.159654 0.067731 0.237945
v -0.119552 -0.000349 0.237945
v -0.040541 0.000340 0.237945
v -0.001633 0.069110 0.237945
v -0.120746 0.136501 -0.172805
v -0.041736 0.137191 -0.172805
v -0.159654 0.067731 -0.172805
v -0.119552 -0.000349 -0.172805
v -0.040541 0.000340 -0.172805
v -0.001633 0.069110 -0.172805
v 0.573079 0.137008 0.254817
v 0.502466 0.136392 0.254817
v 0.467694 0.074931 0.254817
v 0.503534 0.014087 0.254817
v 0.574146 0.014703 0.254817
v 0.608919 0.076164 0.254817
v 0.573079 0.137008 -0.247553
v 0.502466 0.136392 -0.247553
v 0.467694 0.074931 -0.247553
v 0.503534 0.014087 -0.247553
v 0.574146 0.014703 -0.247553
v 0.608919 0.076164 -0.247553
v 0.494048 0.150683 0.258004
v 0.581246 0.151444 0.258004
v 0.451108 0.074786 0.258004
v 0.495366 -0.000349 0.258004
v 0.582564 0.000412 0.258004
v 0.625504 0.076308 0.258004
v 0.494048 0.150683 -0.250741
v 0.581246 0.151444 -0.250741
v 0.451108 0.074786 -0.250741
v 0.495366 -0.000349 -0.250741
v 0.582564 0.000412 -0.250741
v 0.625504 0.076308 -0.250741
v 0.261578 0.113823 0.274497
v 0.202884 0.113311 0.274497
v 0.173981 0.062225 0.274497
v 0.203771 0.011650 0.274497
v 0.262465 0.012163 0.274497
v 0.291368 0.063249 0.274497
v 0.261578 0.113823 -0.318099
v 0.202884 0.113311 -0.318099
v 0.173981 0.062225 -0.318099
v 0.203771 0.011650 -0.318099
v 0.262465 0.012163 -0.318099
v 0.291368 0.063249 -0.318099
v 0.195887 0.125190 0.278257
v 0.268366 0.125822 0.278257
v 0.160195 0.062104 0.278257
v 0.196982 -0.000349 0.278257
v 0.269462 0.000284 0.278257
v 0.305154 0.063369 0.278257
v 0.195887 0.125190 -0.321859
v 0.268366 0.125822 -0.321859
v 0.160195 0.062104 -0.321859
v 0.196982 -0.000349 -0.321859
v 0.269462 0.000284 -0.321859
v 0.305154 0.063369 -0.321859
v 0.409635 0.117420 0.241012
v 0.349093 0.116891 0.241012
v 0.319280 0.064196 0.241012
v 0.350008 0.012029 0.241012
v 0.410550 0.012558 0.241012
v 0.440364 0.065253 0.241012
v 0.409635 0.117420 -0.191729
v 0.349093 0.116891 -0.191729
v 0.319280 0.064196 -0.191729
v 0.350008 0.012029 -0.191729
v 0.410550 0.012558 -0.191729
v 0.440364 0.065253 -0.191729
v 0.341876 0.129144 0.243758
v 0.416638 0.129797 0.243758
v 0.305060 0.064072 0.243758
v 0.343006 -0.000348 0.243758
v 0.417768 0.000305 0.243758
v 0.454584 0.065377 0.243758
v 0.341876 0.129144 -0.194475
v 0.416638 0.129797 -0.194475
v 0.305060 0.064072 -0.194475
v 0.343006 -0.000348 -0.194475
v 0.417768 0.000305 -0.194475
v 0.454584 0.065377 -0.194475
v 0.117601 0.137008 0.240063
v 0.046988 0.136392 0.240063
v 0.012216 0.074931 0.240063
v 0.048056 0.014087 0.240063
v 0.118668 0.014703 0.240063
v 0.153441 0.076164 0.240063
v 0.117601 0.137008 -0.302648
v 0.046989 0.136392 -0.302648
v 0.012216 0.074931 -0.302648
v 0.048056 0.014087 -0.302648
v 0.118668 0.014703 -0.302648
v 0.153441 0.076164 -0.302648
v 0.038570 0.150683 0.243506
v 0.125768 0.151444 0.243506
v -0.004370 0.074786 0.243506
v 0.039888 -0.000349 0.243506
v 0.127086 0.000412 0.243506
v 0.170026 0.076308 0.243506
v 0.038570 0.150683 -0.306092
v 0.125768 0.151444 -0.306092
v -0.004370 0.074786 -0.306092
v 0.039888 -0.000349 -0.306092
v 0.127087 0.000412 -0.306092
v 0.170027 0.076308 -0.306092
v -0.201266 0.113823 0.205558
v -0.259960 0.113311 0.205558
v -0.288863 0.062225 0.205558
v -0.259073 0.011650 0.205558
v -0.200379 0.012163 0.205558
v -0.171476 0.063249 0.205558
v -0.201266 0.113823 -0.321931
v -0.259960 0.113311 -0.321931
v -0.288863 0.062225 -0.321931
v -0.259073 0.011650 -0.321931
v -0.200379 0.012163 -0.321931
v -0.171476 0.063249 -0.321931
v -0.266957 0.125190 0.208905
v -0.194477 0.125822 0.208905
v -0.302649 0.062104 0.208905
v -0.265861 -0.000349 0.208905
v -0.193382 0.000284 0.208905
v -0.157690 0.063369 0.208905
v -0.266957 0.125190 -0.325278
v -0.194477 0.125822 -0.325278
v -0.302649 0.062104 -0.325278
v -0.265861 -0.000349 -0.325278
v -0.193382 0.000284 -0.325278
v -0.157690 0.063369 -0.325278
v -0.347771 0.137008 0.251998
v -0.418383 0.136392 0.251998
v -0.453156 0.074931 0.251998
v -0.417316 0.014087 0.251998
v -0.346703 0.014703 0.251998
v -0.311931 0.076164 0.251998
v -0.347771 0.137008 -0.250372
v -0.418383 0.136392 -0.250372
v -0.453156 0.074931 -0.250372
v -0.417316 0.014087 -0.250372
v -0.346703 0.014703 -0.250372
v -0.311931 0.076164 -0.250372
v -0.426801 0.150683 0.255185
v -0.339603 0.151444 0.255185
v -0.469741 0.074786 0.255185
v -0.425483 -0.000349 0.255185
v -0.338285 0.000412 0.255185
v -0.295345 0.076308 0.255185
v -0.426801 0.150683 -0.253560
v -0.339603 0.151444 -0.253560
v -0.469741 0.074786 -0.253560
v -0.425483 -0.000349 -0.253560
v -0.338285 0.000412 -0.253560
v -0.295345 0.076308 -0.253560
v -0.513599 0.124110 0.252425
v -0.577582 0.123552 0.252425
v -0.609089 0.067862 0.252425
v -0.576615 0.012731 0.252425
v -0.512632 0.013290 0.252425
v -0.481125 0.068979 0.252425
v -0.513599 0.124110 -0.153177
v -0.577582 0.123552 -0.153177
v -0.609089 0.067862 -0.153177
v -0.576615 0.012731 -0.153177
v -0.512632 0.013290 -0.153177
v -0.481125 0.068979 -0.153177
v -0.585209 0.136501 0.254999
v -0.506199 0.137191 0.254999
v -0.624118 0.067731 0.254999
v -0.584015 -0.000349 0.254999
v -0.505005 0.000340 0.254999
v -0.466096 0.069110 0.254999
v -0.585209 0.136501 -0.155751
v -0.506199 0.137191 -0.155751
v -0.624117 0.067731 -0.155751
v -0.584015 -0.000349 -0.155751
v -0.505005 0.000340 -0.155751
v -0.466096 0.069110 -0.155751
v 0.520505 0.199395 0.270607
v 0.460100 0.200341 0.270607
v 0.430284 0.149164 0.270607
v 0.460873 0.097040 0.270607
v 0.520505 0.199395 -0.224977
v 0.460100 0.200341 -0.224977
v 0.430284 0.149164 -0.224977
v 0.460873 0.097040 -0.224977
v 0.527508 0.211415 0.273752
v 0.452915 0.212584 0.273752
v 0.416096 0.149386 0.273752
v 0.453870 0.085020 0.273752
v 0.527508 0.211415 -0.228122
v 0.452915 0.212584 -0.228122
v 0.416096 0.149386 -0.228122
v 0.453870 0.085020 -0.228122
v 0.496159 0.222001 0.273752
v 0.429029 0.107192 0.273752
v 0.496159 0.222001 -0.228122
v 0.429029 0.107192 -0.228122
v 0.495124 0.207976 0.270607
v 0.440762 0.115004 0.270607
v 0.495124 0.207976 -0.224977
v 0.440762 0.115004 -0.224977
v 0.352558 0.208317 0.267056
v 0.301453 0.237187 0.267056
v 0.250898 0.207364 0.267056
v 0.251448 0.148670 0.267056
v 0.302553 0.119800 0.267056
v 0.353108 0.149623 0.267056
v 0.352558 0.208317 -0.240258
v 0.301453 0.237187 -0.240258
v 0.250898 0.207364 -0.240258
v 0.251448 0.148670 -0.240258
v 0.302553 0.119800 -0.240258
v 0.353108 0.149623 -0.240258
v 0.301324 0.250973 0.270275
v 0.364432 0.215322 0.270275
v 0.238895 0.214145 0.270275
v 0.239574 0.141665 0.270275
v 0.302683 0.106014 0.270275
v 0.365112 0.142842 0.270275
v 0.301324 0.250973 -0.243477
v 0.364432 0.215322 -0.243477
v 0.238895 0.214145 -0.243477
v 0.239574 0.141665 -0.243477
v 0.302683 0.106014 -0.243477
v 0.365112 0.142842 -0.243477
v 0.197564 0.284355 0.240319
v 0.127116 0.289205 0.240319
v 0.087691 0.230619 0.240319
v 0.118715 0.167184 0.240319
v 0.189164 0.162334 0.240319
v 0.228588 0.220919 0.240319
v 0.197564 0.284355 -0.262051
v 0.127116 0.289205 -0.262051
v 0.087691 0.230619 -0.262051
v 0.118715 0.167184 -0.262051
v 0.189164 0.162334 -0.262051
v 0.228588 0.220919 -0.262051
v 0.119829 0.304104 0.243506
v 0.206824 0.298115 0.243506
v 0.071144 0.231759 0.243506
v 0.109455 0.153424 0.243506
v 0.196451 0.147435 0.243506
v 0.245135 0.219780 0.243506
v 0.119829 0.304104 -0.265239
v 0.206824 0.298115 -0.265239
v 0.071144 0.231759 -0.265239
v 0.109455 0.153424 -0.265239
v 0.196451 0.147435 -0.265239
v 0.245135 0.219780 -0.265239
v 0.468321 0.279985 0.238357
v 0.425762 0.320407 0.238357
v 0.369476 0.303761 0.238357
v 0.355749 0.246693 0.238357
v 0.398308 0.206271 0.238357
v 0.454594 0.222917 0.238357
v 0.468321 0.279985 -0.167839
v 0.425762 0.320407 -0.167839
v 0.369476 0.303761 -0.167839
v 0.355749 0.246693 -0.167839
v 0.398308 0.206271 -0.167839
v 0.454594 0.222917 -0.167839
v 0.428986 0.333811 0.240934
v 0.481542 0.283895 0.240934
v 0.359480 0.313255 0.240934
v 0.342529 0.242783 0.240934
v 0.395084 0.192867 0.240934
v 0.464590 0.213423 0.240934
v 0.428986 0.333811 -0.170417
v 0.481542 0.283895 -0.170417
v 0.359480 0.313255 -0.170417
v 0.342529 0.242783 -0.170417
v 0.395084 0.192866 -0.170417
v 0.464590 0.213423 -0.170417
v 0.023710 0.249783 0.210806
v -0.034981 0.250544 0.210806
v -0.064985 0.200096 0.210806
v -0.036299 0.148888 0.210806
v 0.022392 0.148127 0.210806
v 0.052397 0.198574 0.210806
v 0.023710 0.249783 -0.119135
v -0.034981 0.250544 -0.119135
v -0.064985 0.200096 -0.119135
v -0.036299 0.148888 -0.119135
v 0.022392 0.148127 -0.119135
v 0.052397 0.198574 -0.119135
v -0.041718 0.262571 0.212899
v 0.030758 0.261632 0.212899
v -0.078771 0.200275 0.212899
v -0.043346 0.137039 0.212899
v 0.029130 0.136099 0.212899
v 0.066182 0.198395 0.212899
v -0.041718 0.262571 -0.121228
v 0.030758 0.261632 -0.121228
v -0.078770 0.200275 -0.121228
v -0.043346 0.137039 -0.121228
v 0.029130 0.136099 -0.121228
v 0.066182 0.198395 -0.121228
v 0.108169 0.295459 0.250581
v 0.066615 0.296381 0.250581
v 0.045872 0.261305 0.250581
v 0.066683 0.225307 0.250581
v 0.108169 0.295459 -0.102417
v 0.066615 0.296382 -0.102417
v 0.045872 0.261306 -0.102417
v 0.066683 0.225307 -0.102417
v 0.113041 0.303698 0.252821
v 0.061727 0.304837 0.252821
v 0.036112 0.261522 0.252821
v 0.061811 0.217069 0.252821
v 0.113041 0.303698 -0.104656
v 0.061726 0.304837 -0.104656
v 0.036111 0.261522 -0.104656
v 0.061811 0.217069 -0.104656
v 0.091521 0.311122 0.252821
v 0.044821 0.232434 0.252821
v 0.091521 0.311122 -0.104656
v 0.044820 0.232434 -0.104656
v 0.090745 0.301477 0.250581
v 0.052928 0.237756 0.250581
v 0.090745 0.301477 -0.102417
v 0.052928 0.237756 -0.102417
v -0.169469 0.239991 0.186878
v -0.217831 0.206729 0.186878
v -0.213206 0.148215 0.186878
v -0.160220 0.122964 0.186878
v -0.111858 0.156226 0.186878
v -0.116483 0.214739 0.186878
v -0.169469 0.239991 -0.143062
v -0.217831 0.206729 -0.143062
v -0.213206 0.148215 -0.143062
v -0.160220 0.122964 -0.143062
v -0.111858 0.156226 -0.143062
v -0.116483 0.214739 -0.143062
v -0.230276 0.212660 0.188972
v -0.170555 0.253734 0.188972
v -0.224565 0.140403 0.188972
v -0.159133 0.109220 0.188972
v -0.099412 0.150294 0.188972
v -0.105123 0.222552 0.188972
v -0.230276 0.212660 -0.145155
v -0.170555 0.253734 -0.145155
v -0.224565 0.140403 -0.145155
v -0.159133 0.109220 -0.145155
v -0.099412 0.150294 -0.145155
v -0.105123 0.222552 -0.145155
v -0.245965 0.186508 0.239940
v -0.281748 0.211719 0.239940
v -0.321473 0.193335 0.239940
v -0.325415 0.149741 0.239940
v -0.289632 0.124529 0.239940
v -0.249907 0.142913 0.239940
v -0.245965 0.186508 -0.181865
v -0.281748 0.211719 -0.181865
v -0.321473 0.193335 -0.181865
v -0.325415 0.149741 -0.181865
v -0.289632 0.124529 -0.181865
v -0.249907 0.142913 -0.181865
v -0.280822 0.221958 0.242616
v -0.236634 0.190826 0.242616
v -0.329878 0.199257 0.242616
v -0.334745 0.145423 0.242616
v -0.290557 0.114290 0.242616
v -0.241502 0.136991 0.242616
v -0.280822 0.221958 -0.184542
v -0.236634 0.190826 -0.184542
v -0.329878 0.199257 -0.184542
v -0.334745 0.145423 -0.184542
v -0.290558 0.114290 -0.184542
v -0.241502 0.136991 -0.184542
v -0.497595 0.138771 0.248819
v -0.456984 0.129918 0.248819
v -0.429915 0.160379 0.248819
v -0.443458 0.199693 0.248819
v -0.497595 0.138771 -0.059102
v -0.456984 0.129918 -0.059102
v -0.429915 0.160379 -0.059102
v -0.443458 0.199693 -0.059102
v -0.503953 0.131616 0.250773
v -0.453803 0.120684 0.250773
v -0.420377 0.158300 0.250773
v -0.437100 0.206848 0.250773
v -0.503953 0.131616 -0.061056
v -0.453803 0.120684 -0.061056
v -0.420377 0.158300 -0.061056
v -0.437100 0.206848 -0.061056
v -0.484249 0.120213 0.250773
v -0.423362 0.188516 0.250773
v -0.484249 0.120213 -0.061056
v -0.423362 0.188516 -0.061056
v -0.481644 0.129532 0.248819
v -0.432337 0.184843 0.248819
v -0.481644 0.129532 -0.059102
v -0.432337 0.184843 -0.059102
v -0.358760 0.224911 0.270354
v -0.396586 0.224702 0.270354
v -0.415318 0.191840 0.270354
v -0.396224 0.159186 0.270354
v -0.358398 0.159395 0.270354
v -0.339666 0.192257 0.270354
v -0.358760 0.224911 -0.036462
v -0.396586 0.224702 -0.036462
v -0.415318 0.191840 -0.036462
v -0.396224 0.159186 -0.036462
v -0.358398 0.159395 -0.036462
v -0.339666 0.192257 -0.036462
v -0.401070 0.232372 0.272301
v -0.354360 0.232630 0.272301
v -0.424202 0.191791 0.272301
v -0.400624 0.151467 0.272301
v -0.353914 0.151725 0.272301
v -0.330782 0.192306 0.272301
v -0.401070 0.232372 -0.038409
v -0.354360 0.232630 -0.038409
v -0.424202 0.191791 -0.038409
v -0.400624 0.151467 -0.038409
v -0.353914 0.151725 -0.038409
v -0.330782 0.192306 -0.038409
v 0.301914 0.372618 0.282978
v 0.242041 0.360291 0.282978
v 0.222779 0.302276 0.282978
v 0.263391 0.256588 0.282978
v 0.323264 0.268914 0.282978
v 0.342526 0.326929 0.282978
v 0.301914 0.372618 -0.189739
v 0.242041 0.360291 -0.189739
v 0.222779 0.302276 -0.189739
v 0.263391 0.256588 -0.189739
v 0.323264 0.268914 -0.189739
v 0.342526 0.326929 -0.189739
v 0.232502 0.371023 0.285977
v 0.306438 0.386245 0.285977
v 0.208716 0.299381 0.285977
v 0.258867 0.242961 0.285977
v 0.332803 0.258183 0.285977
v 0.356589 0.329825 0.285977
v 0.232502 0.371023 -0.192738
v 0.306438 0.386245 -0.192738
v 0.208716 0.299381 -0.192738
v 0.258867 0.242961 -0.192738
v 0.332803 0.258183 -0.192738
v 0.356589 0.329825 -0.192738
v -0.063181 0.299305 0.240238
v -0.103937 0.315274 0.240238
v -0.138144 0.287962 0.240238
v -0.131596 0.244683 0.240238
v -0.090840 0.228714 0.240238
v -0.056633 0.256025 0.240238
v -0.063181 0.299305 -0.134600
v -0.103937 0.315274 -0.134600
v -0.138144 0.287962 -0.134600
v -0.131596 0.244683 -0.134600
v -0.090840 0.228714 -0.134600
v -0.056633 0.256025 -0.134600
v -0.105475 0.325439 0.242616
v -0.055147 0.305720 0.242616
v -0.147717 0.291713 0.242616
v -0.139630 0.238268 0.242616
v -0.089302 0.218548 0.242616
v -0.047060 0.252274 0.242616
v -0.105475 0.325439 -0.136978
v -0.055147 0.305720 -0.136978
v -0.147717 0.291713 -0.136978
v -0.139630 0.238268 -0.136978
v -0.089302 0.218548 -0.136978
v -0.047060 0.252274 -0.136978
v -0.211318 0.281195 0.270030
v -0.250041 0.301606 0.270030
v -0.287079 0.278278 0.270030
v -0.285394 0.234537 0.270030
v -0.246672 0.214126 0.270030
v -0.209634 0.237455 0.270030
v -0.211318 0.281195 -0.122835
v -0.250041 0.301606 -0.122835
v -0.287079 0.278277 -0.122835
v -0.285394 0.234537 -0.122835
v -0.246672 0.214126 -0.122835
v -0.209634 0.237455 -0.122835
v -0.250436 0.311880 0.272523
v -0.202619 0.286674 0.272523
v -0.296174 0.283072 0.272523
v -0.294094 0.229058 0.272523
v -0.246276 0.203852 0.272523
v -0.200539 0.232661 0.272523
v -0.250436 0.311880 -0.125328
v -0.202619 0.286674 -0.125328
v -0.296174 0.283072 -0.125328
v -0.294094 0.229058 -0.125328
v -0.246276 0.203852 -0.125328
v -0.200539 0.232661 -0.125328
v -0.484701 0.184359 0.240364
v -0.506623 0.222246 0.240364
v -0.550396 0.222204 0.240364
v -0.572246 0.184275 0.240364
v -0.550323 0.146388 0.240364
v -0.506551 0.146430 0.240364
v -0.484701 0.184359 -0.114683
v -0.506623 0.222246 -0.114683
v -0.550396 0.222204 -0.114683
v -0.572246 0.184275 -0.114683
v -0.550323 0.146388 -0.114683
v -0.506551 0.146430 -0.114683
v -0.501491 0.231155 0.242616
v -0.474419 0.184369 0.242616
v -0.555545 0.231103 0.242616
v -0.582527 0.184265 0.242616
v -0.555455 0.137479 0.242616
v -0.501401 0.137531 0.242616
v -0.501491 0.231155 -0.116936
v -0.474420 0.184369 -0.116936
v -0.555545 0.231103 -0.116936
v -0.582527 0.184265 -0.116936
v -0.555455 0.137479 -0.116936
v -0.501401 0.137531 -0.116936
v -0.413197 0.263750 0.267081
v -0.445508 0.293281 0.267081
v -0.487237 0.280064 0.267081
v -0.496656 0.237316 0.267081
v -0.464345 0.207786 0.267081
v -0.422615 0.221003 0.267081
v -0.413197 0.263750 -0.179000
v -0.445508 0.293281 -0.179000
v -0.487237 0.280064 -0.179000
v -0.496656 0.237316 -0.179000
v -0.464345 0.207786 -0.179000
v -0.422615 0.221003 -0.179000
v -0.443295 0.303321 0.269911
v -0.403395 0.266855 0.269911
v -0.494826 0.287000 0.269911
v -0.506457 0.234212 0.269911
v -0.466557 0.197746 0.269911
v -0.415026 0.214067 0.269911
v -0.443295 0.303321 -0.181830
v -0.403395 0.266855 -0.181830
v -0.494826 0.287000 -0.181830
v -0.506457 0.234212 -0.181830
v -0.466557 0.197746 -0.181830
v -0.415026 0.214067 -0.181830
v -0.307456 0.271119 0.239909
v -0.321343 0.312631 0.239909
v -0.364236 0.321361 0.239909
v -0.393243 0.288579 0.239909
v -0.379357 0.247068 0.239909
v -0.336463 0.238338 0.239909
v -0.307456 0.271119 -0.186828
v -0.321343 0.312631 -0.186828
v -0.364236 0.321361 -0.186828
v -0.393243 0.288579 -0.186828
v -0.379357 0.247068 -0.186828
v -0.336463 0.238338 -0.186828
v -0.314529 0.320331 0.242616
v -0.297382 0.269069 0.242616
v -0.367497 0.331111 0.242616
v -0.403317 0.290630 0.242616
v -0.386170 0.239368 0.242616
v -0.333202 0.228588 0.242616
v -0.314530 0.320331 -0.189536
v -0.297382 0.269069 -0.189536
v -0.367497 0.331111 -0.189536
v -0.403318 0.290630 -0.189536
v -0.386170 0.239368 -0.189536
v -0.333202 0.228588 -0.189536
v -0.168872 0.255867 0.248431
v -0.159333 0.297465 0.248431
v -0.190309 0.325594 0.248431
v -0.230823 0.312125 0.248431
v -0.168872 0.255867 -0.120652
v -0.159333 0.297465 -0.120652
v -0.190309 0.325594 -0.120652
v -0.230823 0.312125 -0.120652
v -0.161596 0.249260 0.250773
v -0.149817 0.300628 0.250773
v -0.188068 0.335364 0.250773
v -0.238099 0.318732 0.250773
v -0.161596 0.249260 -0.122994
v -0.149817 0.300628 -0.122994
v -0.188068 0.335364 -0.122994
v -0.238099 0.318732 -0.122994
v -0.149671 0.269363 0.250773
v -0.219125 0.332634 0.250773
v -0.149671 0.269363 -0.122994
v -0.219125 0.332634 -0.122994
v -0.159210 0.272142 0.248431
v -0.215453 0.323378 0.248431
v -0.159210 0.272142 -0.120652
v -0.215453 0.323378 -0.120652
vn 0.8616 0.5075 -0.0000
vn 0.0087 -1.0000 -0.0000
vn -0.8704 0.4924 -0.0000
vn 0.8704 -0.4924 -0.0000
vn -0.8616 -0.5075 -0.0000
vn -0.0087 1.0000 -0.0000
vn -0.0000 -0.0000 1.0000
vn -0.0000 -0.0000 -1.0000
vn 0.0017 -0.1940 0.9810
vn 0.1688 -0.0955 0.9810
vn 0.1671 0.0985 0.9810
vn -0.0017 0.1940 0.9810
vn -0.1688 0.0955 0.9810
vn -0.1671 -0.0985 0.9810
vn 0.0017 -0.1940 -0.9810
vn 0.1688 -0.0955 -0.9810
vn 0.1671 0.0985 -0.9810
vn -0.0017 0.1940 -0.9810
vn -0.1688 0.0955 -0.9810
vn -0.1671 -0.0985 -0.9810
vn 0.0019 -0.2166 0.9763
vn 0.1886 -0.1067 0.9763
vn 0.1867 0.1100 0.9763
vn -0.0019 0.2166 0.9763
vn -0.1886 0.1067 0.9763
vn -0.1867 -0.1100 0.9763
vn 0.0019 -0.2166 -0.9763
vn 0.1886 -0.1067 -0.9763
vn 0.1867 0.1100 -0.9763
vn -0.0019 0.2166 -0.9762
vn -0.1886 0.1067 -0.9762
vn -0.1867 -0.1100 -0.9763
vn 0.0026 -0.3004 0.9538
vn 0.2614 -0.1479 0.9538
vn 0.2588 0.1525 0.9538
vn -0.0026 0.3004 0.9538
vn -0.2614 0.1479 0.9538
vn -0.2588 -0.1525 0.9538
vn 0.0026 -0.3004 -0.9538
vn 0.2614 -0.1479 -0.9538
vn 0.2588 0.1525 -0.9538
vn -0.0026 0.3004 -0.9538
vn -0.2614 0.1479 -0.9538
vn -0.2588 -0.1525 -0.9538
vn 0.0019 -0.2176 0.9760
vn 0.1894 -0.1072 0.9760
vn 0.1875 0.1104 0.9760
vn -0.0019 0.2176 0.9760
vn -0.1894 0.1072 0.9760
vn -0.1875 -0.1104 0.9760
vn 0.0019 -0.2176 -0.9760
vn 0.1894 -0.1072 -0.9760
vn 0.1875 0.1104 -0.9760
vn -0.0019 0.2176 -0.9760
vn -0.1894 0.1072 -0.9760
vn -0.1875 -0.1104 -0.9760
vn 0.0020 -0.2331 0.9724
vn 0.2029 -0.1148 0.9724
vn 0.2009 0.1183 0.9724
vn -0.0020 0.2331 0.9724
vn -0.2029 0.1148 0.9724
vn -0.2009 -0.1183 0.9724
vn 0.0020 -0.2331 -0.9724
vn 0.2029 -0.1148 -0.9724
vn 0.2009 0.1183 -0.9724
vn -0.0020 0.2331 -0.9724
vn -0.2029 0.1148 -0.9724
vn -0.2009 -0.1183 -0.9724
vn 0.0024 -0.2699 0.9629
vn 0.2349 -0.1329 0.9629
vn 0.2326 0.1370 0.9629
vn -0.0024 0.2699 0.9629
vn -0.2349 0.1329 0.9629
vn -0.2326 -0.1370 0.9629
vn 0.0024 -0.2699 -0.9629
vn 0.2349 -0.1329 -0.9629
vn 0.2326 0.1370 -0.9629
vn -0.0024 0.2699 -0.9629
vn -0.2349 0.1329 -0.9629
vn -0.2326 -0.1370 -0.9629
vn -0.0019 0.2166 -0.9763
vn -0.1886 0.1067 -0.9763
vn -0.8641 0.5034 -0.0000
vn -0.6659 -0.7460 -0.0000
vn -0.2128 0.9771 -0.0000
vn -0.0720 -0.2131 0.9744
vn 0.2129 -0.1240 0.9692
vn 0.2168 0.0665 0.9740
vn 0.8641 -0.5034 -0.0000
vn 0.0484 -0.2219 -0.9739
vn 0.2129 -0.1240 -0.9692
vn 0.1496 0.1676 -0.9744
vn 0.2169 0.0665 -0.9739
vn -0.0720 -0.2130 -0.9744
vn 0.1498 0.1677 0.9744
vn 0.0483 -0.2218 0.9739
vn 0.3199 0.9474 -0.0000
vn -0.9561 -0.2931 -0.0000
vn 1.0000 0.0094 -0.0000
vn -0.4919 -0.8707 -0.0000
vn -0.5081 0.8613 -0.0000
vn 0.5081 -0.8613 -0.0000
vn -1.0000 -0.0094 -0.0000
vn 0.4919 0.8707 -0.0000
vn -0.1280 -0.2266 0.9655
vn 0.1323 -0.2242 0.9655
vn 0.2603 0.0024 0.9655
vn 0.1280 0.2266 0.9655
vn -0.1323 0.2242 0.9655
vn -0.2603 -0.0024 0.9655
vn -0.1280 -0.2266 -0.9655
vn 0.1323 -0.2242 -0.9655
vn 0.2603 0.0024 -0.9655
vn 0.1280 0.2266 -0.9655
vn -0.1323 0.2242 -0.9655
vn -0.2603 -0.0024 -0.9655
vn 0.8983 0.4393 -0.0000
vn -0.0687 -0.9976 -0.0000
vn -0.8296 0.5583 -0.0000
vn 0.8296 -0.5583 -0.0000
vn -0.8983 -0.4393 -0.0000
vn 0.0687 0.9976 -0.0000
vn -0.0149 -0.2161 0.9762
vn 0.1797 -0.1210 0.9763
vn 0.1946 0.0952 0.9763
vn 0.0149 0.2161 0.9763
vn -0.1797 0.1210 0.9763
vn -0.1946 -0.0952 0.9763
vn -0.0149 -0.2161 -0.9763
vn 0.1797 -0.1210 -0.9763
vn 0.1946 0.0952 -0.9763
vn 0.0149 0.2161 -0.9763
vn -0.1797 0.1210 -0.9763
vn -0.1946 -0.0952 -0.9763
vn 0.9723 -0.2339 -0.0000
vn -0.6887 -0.7251 -0.0000
vn -0.2836 0.9589 -0.0000
vn 0.2836 -0.9589 -0.0000
vn -0.9723 0.2339 -0.0000
vn 0.6887 0.7251 -0.0000
vn -0.1453 -0.1530 0.9775
vn 0.0598 -0.2023 0.9775
vn 0.2052 -0.0493 0.9775
vn 0.1453 0.1530 0.9775
vn -0.0598 0.2023 0.9775
vn -0.2052 0.0493 0.9775
vn -0.1453 -0.1530 -0.9775
vn 0.0598 -0.2023 -0.9775
vn 0.2052 -0.0493 -0.9775
vn 0.1453 0.1530 -0.9775
vn -0.0598 0.2023 -0.9775
vn -0.2052 0.0493 -0.9775
vn 0.8724 0.4887 -0.0000
vn -0.0130 -0.9999 -0.0000
vn -0.8595 0.5112 -0.0000
vn 0.8595 -0.5112 -0.0000
vn -0.8724 -0.4887 -0.0000
vn 0.0130 0.9999 -0.0000
vn -0.0022 -0.1727 0.9850
vn 0.1484 -0.0883 0.9850
vn 0.1507 0.0844 0.9850
vn 0.0022 0.1727 0.9850
vn -0.1484 0.0883 0.9850
vn -0.1507 -0.0844 0.9850
vn -0.0022 -0.1727 -0.9850
vn 0.1484 -0.0883 -0.9850
vn 0.1507 0.0844 -0.9850
vn 0.0022 0.1727 -0.9850
vn -0.1484 0.0883 -0.9850
vn -0.1507 -0.0844 -0.9850
vn -0.8608 0.5090 -0.0000
vn -0.6708 -0.7417 -0.0000
vn -0.2064 0.9785 -0.0000
vn -0.0758 -0.2198 0.9726
vn 0.2191 -0.1295 0.9671
vn 0.2244 0.0672 0.9722
vn 0.8608 -0.5090 -0.0000
vn 0.0485 -0.2296 -0.9721
vn 0.2191 -0.1295 -0.9671
vn 0.1557 0.1722 -0.9727
vn 0.2246 0.0672 -0.9721
vn -0.0758 -0.2196 -0.9726
vn 0.1559 0.1722 0.9726
vn 0.0484 -0.2295 0.9721
vn 0.3261 0.9453 -0.0000
vn -0.9580 -0.2868 -0.0000
vn 0.4302 0.9027 -0.0000
vn 0.5667 -0.8239 -0.0000
vn -0.9969 -0.0788 -0.0000
vn 0.9969 0.0788 -0.0000
vn -0.4302 -0.9027 -0.0000
vn -0.5667 0.8239 -0.0000
vn 0.0979 -0.1423 0.9850
vn 0.1722 0.0136 0.9850
vn 0.0743 0.1559 0.9850
vn -0.0979 0.1423 0.9850
vn -0.1722 -0.0136 0.9850
vn -0.0743 -0.1559 0.9850
vn 0.0979 -0.1423 -0.9850
vn 0.1722 0.0136 -0.9850
vn 0.0743 0.1559 -0.9850
vn -0.0979 0.1423 -0.9850
vn -0.1722 -0.0136 -0.9850
vn -0.0743 -0.1559 -0.9850
vn 0.9959 -0.0901 -0.0000
vn -0.5760 -0.8175 -0.0000
vn -0.4200 0.9075 -0.0000
vn 0.4200 -0.9075 -0.0000
vn -0.9959 0.0901 -0.0000
vn 0.5760 0.8175 -0.0000
vn -0.1658 -0.2353 0.9577
vn 0.1209 -0.2612 0.9577
vn 0.2867 -0.0259 0.9577
vn 0.1658 0.2353 0.9577
vn -0.1209 0.2612 0.9577
vn -0.2867 0.0259 0.9577
vn -0.1658 -0.2353 -0.9577
vn 0.1209 -0.2612 -0.9577
vn 0.2867 -0.0259 -0.9577
vn 0.1658 0.2353 -0.9577
vn -0.1209 0.2612 -0.9577
vn -0.2867 0.0259 -0.9577
vn 0.7475 -0.6643 -0.0000
vn 0.8002 0.5997 -0.0000
vn 0.0155 -0.9999 -0.0000
vn 0.1022 0.1767 0.9789
vn -0.1672 0.1486 0.9747
vn -0.2047 -0.0203 0.9786
vn -0.7475 0.6642 -0.0000
vn -0.7475 0.6643 -0.0000
vn -0.0032 0.2061 -0.9785
vn -0.1672 0.1486 -0.9747
vn -0.1631 -0.1222 -0.9790
vn -0.2049 -0.0202 -0.9786
vn 0.1022 0.1765 -0.9790
vn -0.1633 -0.1223 0.9790
vn -0.0032 0.2060 0.9786
vn -0.5009 -0.8655 -0.0000
vn 0.9952 0.0983 -0.0000
vn 0.8633 0.5048 -0.0000
vn 0.0055 -1.0000 -0.0000
vn -0.8688 0.4952 -0.0000
vn 0.8688 -0.4952 -0.0000
vn -0.8633 -0.5048 -0.0000
vn -0.0055 1.0000 -0.0000
vn 0.0014 -0.2453 0.9695
vn 0.2131 -0.1215 0.9695
vn 0.2117 0.1238 0.9695
vn -0.0014 0.2453 0.9695
vn -0.2131 0.1215 0.9695
vn -0.2117 -0.1238 0.9695
vn 0.0014 -0.2453 -0.9695
vn 0.2131 -0.1215 -0.9695
vn 0.2117 0.1238 -0.9695
vn -0.0014 0.2453 -0.9695
vn -0.2131 0.1215 -0.9695
vn -0.2117 -0.1238 -0.9695
vn 0.7474 0.6644 -0.0000
vn 0.2016 -0.9795 -0.0000
vn -0.9491 0.3151 -0.0000
vn 0.9491 -0.3151 -0.0000
vn -0.7474 -0.6644 -0.0000
vn -0.2016 0.9795 -0.0000
vn 0.0473 -0.2297 0.9721
vn 0.2225 -0.0739 0.9721
vn 0.1753 0.1558 0.9721
vn -0.0473 0.2297 0.9721
vn -0.2225 0.0739 0.9721
vn -0.1753 -0.1558 0.9721
vn 0.0473 -0.2297 -0.9721
vn 0.2226 -0.0739 -0.9721
vn 0.1753 0.1558 -0.9721
vn -0.0473 0.2297 -0.9721
vn -0.2226 0.0739 -0.9721
vn -0.1753 -0.1558 -0.9721
vn 0.9887 0.1496 -0.0000
vn -0.3648 -0.9311 -0.0000
vn -0.6239 0.7815 -0.0000
vn 0.6239 -0.7815 -0.0000
vn -0.9887 -0.1496 -0.0000
vn 0.3648 0.9311 -0.0000
vn -0.0941 -0.2403 0.9661
vn 0.1610 -0.2017 0.9661
vn 0.2552 0.0386 0.9661
vn 0.0941 0.2403 0.9661
vn -0.1610 0.2017 0.9661
vn -0.2552 -0.0386 0.9661
vn -0.0941 -0.2403 -0.9661
vn 0.1610 -0.2017 -0.9661
vn 0.2552 0.0386 -0.9661
vn 0.0941 0.2403 -0.9661
vn -0.1610 0.2017 -0.9661
vn -0.2552 -0.0386 -0.9661
vn 0.9993 0.0385 -0.0000
vn -0.4663 -0.8846 -0.0000
vn -0.5330 0.8461 -0.0000
vn 0.5330 -0.8461 -0.0000
vn -0.9993 -0.0385 -0.0000
vn 0.4663 0.8846 -0.0000
vn -0.1257 -0.2385 0.9630
vn 0.1437 -0.2281 0.9630
vn 0.2694 0.0104 0.9630
vn 0.1257 0.2385 0.9630
vn -0.1437 0.2281 0.9630
vn -0.2694 -0.0104 0.9630
vn -0.1257 -0.2385 -0.9630
vn 0.1437 -0.2281 -0.9630
vn 0.2694 0.0104 -0.9630
vn 0.1257 0.2385 -0.9630
vn -0.1437 0.2281 -0.9630
vn -0.2694 -0.0104 -0.9630
vn 0.8665 -0.4992 -0.0000
vn -0.8655 -0.5008 -0.0000
vn -0.0010 1.0000 -0.0000
vn 0.0010 -1.0000 -0.0000
vn -0.8665 0.4992 -0.0000
vn 0.8655 0.5008 -0.0000
vn -0.2123 -0.1228 0.9695
vn 0.0002 -0.2453 0.9695
vn 0.2125 -0.1224 0.9695
vn 0.2123 0.1228 0.9695
vn -0.0002 0.2453 0.9695
vn -0.2125 0.1224 0.9695
vn -0.2123 -0.1228 -0.9695
vn 0.0002 -0.2453 -0.9695
vn 0.2125 -0.1224 -0.9695
vn 0.2123 0.1228 -0.9695
vn -0.0002 0.2453 -0.9695
vn -0.2125 0.1224 -0.9695
vn 0.9766 -0.2152 -0.0000
vn -0.6746 -0.7382 -0.0000
vn -0.3019 0.9533 -0.0000
vn 0.3019 -0.9533 -0.0000
vn -0.9766 0.2152 -0.0000
vn 0.6746 0.7382 -0.0000
vn -0.2044 -0.2236 0.9530
vn 0.0915 -0.2888 0.9530
vn 0.2959 -0.0652 0.9530
vn 0.2044 0.2236 0.9530
vn -0.0915 0.2888 0.9530
vn -0.2959 0.0652 0.9530
vn -0.2044 -0.2236 -0.9530
vn 0.0915 -0.2888 -0.9530
vn 0.2959 -0.0652 -0.9530
vn 0.2044 0.2236 -0.9530
vn -0.0915 0.2888 -0.9530
vn -0.2959 0.0652 -0.9530
vn 0.7489 -0.6627 -0.0000
vn -0.9483 -0.3172 -0.0000
vn 0.1994 0.9799 -0.0000
vn -0.1994 -0.9799 -0.0000
vn -0.7489 0.6627 -0.0000
vn 0.9483 0.3172 -0.0000
vn -0.2759 -0.0923 0.9567
vn -0.0580 -0.2851 0.9567
vn 0.2179 -0.1928 0.9567
vn 0.2759 0.0923 0.9567
vn 0.0580 0.2851 0.9567
vn -0.2179 0.1928 0.9567
vn -0.2759 -0.0923 -0.9567
vn -0.0580 -0.2851 -0.9567
vn 0.2179 -0.1928 -0.9567
vn 0.2759 0.0923 -0.9567
vn 0.0580 0.2851 -0.9567
vn -0.2179 0.1928 -0.9567
vn 0.6723 0.7403 -0.0000
vn -0.5910 0.8066 -0.0000
vn 1.0000 0.0047 -0.0000
vn -0.2034 0.1207 0.9716
vn -0.1740 -0.1916 0.9659
vn 0.0209 -0.2374 0.9712
vn -0.6723 -0.7403 -0.0000
vn -0.2388 -0.0012 -0.9711
vn -0.1740 -0.1916 -0.9659
vn 0.1396 -0.1905 -0.9717
vn 0.0209 -0.2376 -0.9711
vn -0.2032 0.1206 -0.9717
vn 0.1396 -0.1907 0.9717
vn -0.2386 -0.0011 0.9711
vn 0.8601 -0.5102 -0.0000
vn -0.0876 0.9962 -0.0000
vn 0.0019 -0.2166 -0.9762
vn -0.1867 -0.1100 -0.9762
vn -0.1886 0.1067 0.9762
vn -0.0720 -0.2130 0.9744
vn 0.2169 0.0665 0.9739
vn 0.8640 -0.5034 -0.0000
vn 0.0483 -0.2218 -0.9739
vn 0.1498 0.1677 -0.9744
vn 0.2168 0.0665 -0.9740
vn -0.0720 -0.2131 -0.9744
vn 0.1496 0.1676 0.9744
vn 0.0484 -0.2219 0.9739
vn -0.0149 -0.2161 0.9763
vn 0.1797 -0.1210 0.9762
vn 0.1946 0.0952 0.9762
vn -0.1797 0.1210 0.9762
vn -0.0758 -0.2196 0.9726
vn 0.2246 0.0672 0.9721
vn 0.0484 -0.2295 -0.9721
vn 0.1559 0.1722 -0.9726
vn 0.2244 0.0672 -0.9722
vn -0.0758 -0.2198 -0.9726
vn 0.1557 0.1722 0.9727
vn 0.0485 -0.2296 0.9721
vn 0.1022 0.1765 0.9790
vn -0.2049 -0.0202 0.9786
vn -0.0032 0.2060 -0.9786
vn -0.1633 -0.1223 -0.9790
vn -0.2047 -0.0203 -0.9786
vn 0.1022 0.1767 -0.9789
vn -0.1631 -0.1222 0.9790
vn -0.0032 0.2061 0.9785
vn 0.2131 -0.1215 0.9694
vn 0.2226 -0.0739 0.9721
vn -0.2226 0.0739 0.9721
vn -0.2123 -0.1228 0.9694
vn -0.2032 0.1206 0.9717
vn 0.0209 -0.2376 0.9711
vn -0.2386 -0.0011 -0.9711
vn 0.1396 -0.1907 -0.9717
vn 0.0209 -0.2374 -0.9712
vn -0.2034 0.1207 -0.9716
vn 0.1396 -0.1905 0.9717
vn -0.2388 -0.0012 0.9711
vt 0.339821 0.817721
vt 0.339768 0.824840
vt 0.339666 0.810458
vt 0.339770 0.810530
vt 0.339665 0.824767
vt 0.339614 0.817577
vt 0.572340 0.942878
vt 0.572367 0.946660
vt 0.572339 0.950404
vt 0.572286 0.942840
vt 0.572258 0.946584
vt 0.339675 0.823413
vt 0.339633 0.817590
vt 0.339676 0.811826
vt 0.339760 0.811884
vt 0.339801 0.817707
vt 0.339759 0.823472
vt 0.340643 0.818474
vt 0.340585 0.826330
vt 0.340473 0.810458
vt 0.340587 0.810538
vt 0.340471 0.826250
vt 0.340415 0.818314
vt 0.572870 0.942974
vt 0.572900 0.947148
vt 0.572869 0.951280
vt 0.572810 0.942932
vt 0.572779 0.947064
vt 0.340482 0.824756
vt 0.340437 0.818330
vt 0.340484 0.811968
vt 0.340576 0.812032
vt 0.340622 0.818458
vt 0.340575 0.824820
vt 0.340575 0.824820
vt 0.083978 0.881383
vt 0.083923 0.888856
vt 0.083816 0.873759
vt 0.083925 0.873835
vt 0.083814 0.888780
vt 0.083761 0.881232
vt 0.572629 0.946271
vt 0.572604 0.949705
vt 0.572529 0.946201
vt 0.572605 0.942801
vt 0.572555 0.942766
vt 0.083825 0.887359
vt 0.083781 0.881246
vt 0.083826 0.875195
vt 0.083914 0.875256
vt 0.083958 0.881369
vt 0.083913 0.887420
vt 0.083826 0.875195
vt 0.084203 0.881623
vt 0.084146 0.889331
vt 0.084035 0.873759
vt 0.084147 0.873838
vt 0.084033 0.889253
vt 0.083978 0.881467
vt 0.572731 0.942828
vt 0.572756 0.946407
vt 0.572730 0.949949
vt 0.572679 0.942792
vt 0.572653 0.946335
vt 0.084044 0.887787
vt 0.083999 0.881482
vt 0.084046 0.875240
vt 0.084136 0.875304
vt 0.084181 0.881609
vt 0.084135 0.887850
vt 0.083775 0.882931
vt 0.083709 0.891921
vt 0.083580 0.873759
vt 0.083711 0.873850
vt 0.083578 0.891830
vt 0.083514 0.882749
vt 0.572392 0.947064
vt 0.572482 0.942974
vt 0.572481 0.951280
vt 0.572481 0.951280
vt 0.572392 0.947064
vt 0.083591 0.890120
vt 0.083539 0.882767
vt 0.083592 0.875487
vt 0.083698 0.875560
vt 0.083751 0.882914
vt 0.083697 0.890194
vt 0.083697 0.890194
vt 0.083539 0.882766
vt 0.083284 0.881383
vt 0.083228 0.888856
vt 0.083121 0.873759
vt 0.083230 0.873835
vt 0.083120 0.888780
vt 0.083066 0.881232
vt 0.572235 0.946271
vt 0.572210 0.949705
vt 0.572135 0.946201
vt 0.572210 0.942801
vt 0.083130 0.887359
vt 0.083087 0.881246
vt 0.083131 0.875195
vt 0.083220 0.875256
vt 0.083263 0.881369
vt 0.083218 0.887420
vt 0.083131 0.875195
vt 0.083077 0.882931
vt 0.083011 0.891921
vt 0.082882 0.873759
vt 0.083013 0.873850
vt 0.082880 0.891830
vt 0.082815 0.882749
vt 0.571995 0.947064
vt 0.572086 0.942974
vt 0.572085 0.951280
vt 0.572026 0.942932
vt 0.082892 0.890120
vt 0.082840 0.882767
vt 0.082894 0.875487
vt 0.083000 0.875560
vt 0.083052 0.882914
vt 0.082998 0.890194
vt 0.082998 0.890194
vt 0.082821 0.882070
vt 0.082761 0.890216
vt 0.082644 0.873759
vt 0.082762 0.873842
vt 0.082642 0.890133
vt 0.082584 0.881905
vt 0.571862 0.946584
vt 0.571944 0.942878
vt 0.571944 0.950404
vt 0.082750 0.888651
vt 0.082653 0.888584
vt 0.082606 0.881921
vt 0.082655 0.875324
vt 0.082751 0.875391
vt 0.082798 0.882054
vt 0.084200 0.899237
vt 0.084145 0.891675
vt 0.084164 0.886627
vt 0.084201 0.883974
vt 0.084265 0.900364
vt 0.572757 0.949785
vt 0.572773 0.955581
vt 0.572803 0.956099
vt 0.572774 0.948565
vt 0.572824 0.955517
vt 0.084263 0.898685
vt 0.084312 0.899097
vt 0.084211 0.897772
vt 0.084166 0.891649
vt 0.084182 0.887561
vt 0.084301 0.897659
vt 0.084212 0.885412
vt 0.340302 0.825430
vt 0.340301 0.833009
vt 0.340137 0.825307
vt 0.340220 0.821580
vt 0.340218 0.836737
vt 0.340136 0.832886
vt 0.340136 0.832886
vt 0.572639 0.950111
vt 0.572682 0.952136
vt 0.572681 0.956122
vt 0.572595 0.956058
vt 0.340286 0.832277
vt 0.340218 0.835295
vt 0.340152 0.832177
vt 0.340153 0.826040
vt 0.340220 0.823021
vt 0.340286 0.826139
vt 0.083888 0.900098
vt 0.083831 0.909470
vt 0.083685 0.892158
vt 0.083815 0.891442
vt 0.083700 0.910187
vt 0.083627 0.901531
vt 0.572542 0.953000
vt 0.572576 0.956978
vt 0.572549 0.961286
vt 0.572482 0.953329
vt 0.572456 0.957637
vt 0.083711 0.908404
vt 0.083652 0.901395
vt 0.083698 0.893805
vt 0.083804 0.893224
vt 0.083863 0.900234
vt 0.083817 0.907824
vt 0.084218 0.899337
vt 0.084243 0.907769
vt 0.084034 0.902850
vt 0.084113 0.896877
vt 0.084164 0.913742
vt 0.084060 0.911282
vt 0.572720 0.955983
vt 0.572768 0.957114
vt 0.572780 0.960990
vt 0.572684 0.958729
vt 0.572696 0.962604
vt 0.084159 0.912138
vt 0.084075 0.910146
vt 0.084054 0.903318
vt 0.084118 0.898481
vt 0.084203 0.900473
vt 0.084223 0.907301
vt 0.084075 0.910146
vt 0.084203 0.900473
vt 0.339910 0.831239
vt 0.339863 0.837851
vt 0.339766 0.824824
vt 0.339861 0.824725
vt 0.339768 0.837950
vt 0.339720 0.831436
vt 0.572426 0.955461
vt 0.572401 0.958938
vt 0.572326 0.955564
vt 0.572400 0.952035
vt 0.572350 0.952086
vt 0.339777 0.836692
vt 0.339738 0.831417
vt 0.339776 0.826063
vt 0.339852 0.825983
vt 0.339892 0.831258
vt 0.339854 0.836612
vt 0.339904 0.842369
vt 0.339870 0.837840
vt 0.339882 0.834798
vt 0.339904 0.833192
vt 0.339943 0.843026
vt 0.572426 0.958122
vt 0.572438 0.962103
vt 0.572458 0.962449
vt 0.572438 0.957276
vt 0.572473 0.962040
vt 0.339942 0.842017
vt 0.339971 0.842250
vt 0.339911 0.841485
vt 0.339883 0.837817
vt 0.339893 0.835355
vt 0.339965 0.841388
vt 0.339911 0.834053
vt 0.083363 0.900429
vt 0.083264 0.904160
vt 0.083281 0.886869
vt 0.083371 0.891784
vt 0.083175 0.899246
vt 0.083183 0.890600
vt 0.572199 0.952041
vt 0.572286 0.952585
vt 0.572237 0.958273
vt 0.572245 0.950326
vt 0.083193 0.898536
vt 0.083200 0.891535
vt 0.083280 0.888514
vt 0.083352 0.892493
vt 0.083345 0.899494
vt 0.083266 0.902516
vt 0.083371 0.891784
vt 0.083158 0.890192
vt 0.083165 0.896633
vt 0.083018 0.891201
vt 0.083084 0.887476
vt 0.083099 0.900358
vt 0.083025 0.897642
vt 0.083099 0.900358
vt 0.083084 0.887476
vt 0.083025 0.897642
vt 0.572134 0.950432
vt 0.572168 0.951681
vt 0.572172 0.954641
vt 0.572107 0.955105
vt 0.083097 0.899133
vt 0.083038 0.896934
vt 0.083032 0.891717
vt 0.083086 0.888701
vt 0.083145 0.890901
vt 0.083151 0.896117
vt 0.083038 0.896934
vt 0.082839 0.888241
vt 0.082889 0.892742
vt 0.082885 0.896357
vt 0.082864 0.898550
vt 0.082794 0.888185
vt 0.572013 0.954528
vt 0.571992 0.950798
vt 0.571971 0.950772
vt 0.572003 0.955537
vt 0.571957 0.951399
vt 0.082797 0.889300
vt 0.082764 0.889549
vt 0.082834 0.889346
vt 0.082875 0.892991
vt 0.082871 0.895917
vt 0.082774 0.890405
vt 0.082855 0.897694
vt 0.339389 0.830602
vt 0.339358 0.834819
vt 0.339298 0.826332
vt 0.339359 0.826359
vt 0.339298 0.826332
vt 0.339297 0.834792
vt 0.339267 0.830548
vt 0.339297 0.834792
vt 0.572076 0.952800
vt 0.572092 0.955032
vt 0.572075 0.957249
vt 0.572044 0.952786
vt 0.572027 0.955003
vt 0.339353 0.834012
vt 0.339303 0.833990
vt 0.339278 0.830554
vt 0.339303 0.827139
vt 0.339353 0.827161
vt 0.339378 0.830597
vt 0.084055 0.913265
vt 0.083980 0.920015
vt 0.083909 0.902871
vt 0.084020 0.904693
vt 0.083869 0.918194
vt 0.083834 0.909622
vt 0.572656 0.960238
vt 0.572673 0.964178
vt 0.572638 0.967280
vt 0.572605 0.959401
vt 0.572571 0.962503
vt 0.083884 0.916910
vt 0.083855 0.909968
vt 0.083916 0.904502
vt 0.084005 0.905977
vt 0.084034 0.912918
vt 0.083973 0.918385
vt 0.083450 0.903986
vt 0.083438 0.910380
vt 0.083311 0.902310
vt 0.083386 0.899950
vt 0.083362 0.912740
vt 0.083299 0.908705
vt 0.572333 0.959362
vt 0.572327 0.962302
vt 0.572263 0.961531
vt 0.572304 0.957508
vt 0.572269 0.958592
vt 0.083364 0.911523
vt 0.083313 0.908256
vt 0.083323 0.903077
vt 0.083384 0.901167
vt 0.083435 0.904434
vt 0.083425 0.909613
vt 0.083323 0.903077
vt 0.083219 0.901639
vt 0.083216 0.908102
vt 0.083079 0.901208
vt 0.083151 0.898192
vt 0.083144 0.911117
vt 0.083076 0.907670
vt 0.572171 0.956517
vt 0.572203 0.958101
vt 0.572201 0.961072
vt 0.572138 0.957903
vt 0.572137 0.960874
vt 0.083145 0.909888
vt 0.083089 0.907097
vt 0.083092 0.901863
vt 0.083150 0.899421
vt 0.083206 0.902213
vt 0.083203 0.907446
vt 0.083206 0.902212
vt 0.082768 0.890257
vt 0.082808 0.895861
vt 0.082646 0.895848
vt 0.082687 0.890250
vt 0.082768 0.901459
vt 0.082687 0.901453
vt 0.571912 0.951917
vt 0.571950 0.951920
vt 0.571968 0.954495
vt 0.571894 0.954490
vt 0.571912 0.957066
vt 0.082760 0.900393
vt 0.082694 0.900388
vt 0.082661 0.895850
vt 0.082694 0.891316
vt 0.082760 0.891321
vt 0.082793 0.895860
vt 0.339279 0.832878
vt 0.339294 0.838397
vt 0.339159 0.834984
vt 0.339211 0.831171
vt 0.339159 0.834984
vt 0.339242 0.842210
vt 0.339174 0.840504
vt 0.339242 0.842210
vt 0.571986 0.956086
vt 0.572021 0.956984
vt 0.572029 0.959887
vt 0.571958 0.958092
vt 0.571966 0.960995
vt 0.339281 0.838073
vt 0.339239 0.841160
vt 0.339184 0.839778
vt 0.339172 0.835309
vt 0.339214 0.832221
vt 0.339269 0.833603
vt 0.339386 0.834396
vt 0.339433 0.838629
vt 0.339294 0.840883
vt 0.339317 0.835523
vt 0.339411 0.843989
vt 0.339341 0.845116
vt 0.572095 0.958161
vt 0.572119 0.960387
vt 0.572071 0.963799
vt 0.572046 0.961573
vt 0.339402 0.843184
vt 0.339345 0.844097
vt 0.339307 0.840669
vt 0.339326 0.836328
vt 0.339382 0.835416
vt 0.339420 0.838843
vt 0.339627 0.841929
vt 0.339576 0.845561
vt 0.339536 0.845275
vt 0.339511 0.843822
vt 0.339627 0.838660
vt 0.572198 0.963936
vt 0.572245 0.962177
vt 0.572245 0.960457
vt 0.572184 0.963172
vt 0.572237 0.959352
vt 0.339614 0.838950
vt 0.339611 0.836558
vt 0.339614 0.841598
vt 0.339574 0.844539
vt 0.339541 0.844307
vt 0.339602 0.837248
vt 0.339520 0.843131
vt 0.572285 0.950366
vt 0.572809 0.951238
vt 0.572869 0.951280
vt 0.572554 0.949670
vt 0.572555 0.942766
vt 0.572678 0.949914
vt 0.572421 0.951238
vt 0.572422 0.942932
vt 0.572512 0.947148
vt 0.572160 0.949670
vt 0.572160 0.942766
vt 0.572160 0.942766
vt 0.572025 0.951238
vt 0.572115 0.947148
vt 0.572085 0.951280
vt 0.571889 0.950366
vt 0.571890 0.942840
vt 0.571971 0.946660
vt 0.572748 0.952105
vt 0.572638 0.958083
vt 0.572595 0.952072
vt 0.572489 0.961616
vt 0.572744 0.963735
vt 0.572696 0.962604
vt 0.572768 0.957114
vt 0.572351 0.958990
vt 0.572420 0.959721
vt 0.572196 0.956015
vt 0.572282 0.956559
vt 0.572141 0.956353
vt 0.572107 0.955105
vt 0.572104 0.952144
vt 0.572015 0.952867
vt 0.572043 0.957235
vt 0.572587 0.966443
vt 0.572293 0.963386
vt 0.572269 0.958592
vt 0.572168 0.962458
vt 0.572203 0.958101
vt 0.571950 0.957068
vt 0.572002 0.961892
vt 0.572107 0.963207
vt 0.572058 0.958754
vt 0.572219 0.964087
s 0
usemtl Texture_Map
f 24/1/1 14/2/1 18/1/1
f 22/3/2 17/4/2 16/3/2
f 19/5/3 15/6/3 13/5/3
f 23/4/4 18/1/4 17/4/4
f 21/6/5 16/3/5 15/6/5
f 20/2/6 13/5/6 14/2/6
f 5/7/7 6/8/7 1/9/7
f 11/7/8 10/10/8 9/11/8
f 2/12/9 14/2/9 13/5/9
f 3/13/10 13/5/10 15/6/10
f 3/13/11 16/3/11 4/14/11
f 5/15/12 16/3/12 17/4/12
f 6/16/13 17/4/13 18/1/13
f 1/17/14 18/1/14 14/2/14
f 8/12/15 20/2/15 7/17/15
f 9/13/16 19/5/16 8/12/16
f 10/14/17 21/6/17 9/13/17
f 11/15/18 22/3/18 10/14/18
f 12/16/19 23/4/19 11/15/19
f 7/17/20 24/1/20 12/16/20
f 42/18/1 44/19/1 38/19/1
f 46/20/2 41/21/2 40/20/2
f 43/22/3 39/23/3 37/22/3
f 41/21/4 48/18/4 42/18/4
f 45/23/5 40/20/5 39/23/5
f 38/19/6 43/22/6 37/22/6
f 29/24/7 30/25/7 25/26/7
f 35/24/8 34/27/8 33/28/8
f 26/29/21 38/19/21 37/22/21
f 26/29/22 39/23/22 27/30/22
f 28/31/23 39/23/23 40/20/23
f 28/31/24 41/21/24 29/32/24
f 29/32/25 42/18/25 30/33/25
f 30/33/26 38/19/26 25/34/26
f 32/29/27 44/19/27 31/35/27
f 33/30/28 43/22/28 32/29/28
f 34/31/29 45/23/29 33/30/29
f 35/32/30 46/20/30 34/31/30
f 36/33/31 47/21/31 35/32/31
f 36/33/32 44/19/32 48/18/32
f 72/36/1 62/37/1 66/36/1
f 70/38/2 65/39/2 64/38/2
f 67/40/3 63/41/3 61/40/3
f 71/39/4 66/36/4 65/39/4
f 69/41/5 64/38/5 63/41/5
f 62/37/6 67/40/6 61/40/6
f 54/42/7 49/43/7 51/44/7
f 59/45/8 58/46/8 57/44/8
f 50/47/33 62/37/33 61/40/33
f 50/47/34 63/41/34 51/48/34
f 52/49/35 63/41/35 64/38/35
f 53/50/36 64/38/36 65/39/36
f 53/50/37 66/36/37 54/51/37
f 49/52/38 66/36/38 62/37/38
f 56/47/39 68/37/39 55/52/39
f 57/48/40 67/40/40 56/47/40
f 57/48/41 70/38/41 69/41/41
f 59/50/42 70/38/42 58/53/42
f 60/51/43 71/39/43 59/50/43
f 55/52/44 72/36/44 60/51/44
f 90/54/1 92/55/1 86/55/1
f 94/56/2 89/57/2 88/56/2
f 91/58/3 87/59/3 85/58/3
f 89/57/4 96/54/4 90/54/4
f 93/59/5 88/56/5 87/59/5
f 86/55/6 91/58/6 85/58/6
f 77/60/7 78/61/7 73/62/7
f 83/60/8 82/63/8 81/64/8
f 74/65/45 86/55/45 85/58/45
f 75/66/46 85/58/46 87/59/46
f 76/67/47 87/59/47 88/56/47
f 76/67/48 89/57/48 77/68/48
f 77/68/49 90/54/49 78/69/49
f 73/70/50 90/54/50 86/55/50
f 80/65/51 92/55/51 79/70/51
f 80/65/52 93/59/52 91/58/52
f 82/67/53 93/59/53 81/66/53
f 83/68/54 94/56/54 82/67/54
f 83/68/55 96/54/55 95/57/55
f 79/70/56 96/54/56 84/69/56
f 114/71/1 116/72/1 110/72/1
f 118/73/2 113/74/2 112/73/2
f 115/75/3 111/76/3 109/75/3
f 113/74/4 120/71/4 114/71/4
f 117/76/5 112/73/5 111/76/5
f 116/72/6 109/75/6 110/72/6
f 99/77/7 101/78/7 97/79/7
f 103/80/8 107/78/8 105/81/8
f 98/82/57 110/72/57 109/75/57
f 99/83/58 109/75/58 111/76/58
f 99/83/59 112/73/59 100/84/59
f 100/84/60 113/74/60 101/85/60
f 101/85/61 114/71/61 102/86/61
f 97/87/62 114/71/62 110/72/62
f 104/82/63 116/72/63 103/88/63
f 104/82/64 117/76/64 115/75/64
f 106/84/65 117/76/65 105/89/65
f 107/85/66 118/73/66 106/84/66
f 108/86/67 119/74/67 107/85/67
f 108/86/68 116/72/68 120/71/68
f 144/90/1 134/91/1 138/90/1
f 142/92/2 137/93/2 136/92/2
f 139/94/3 135/95/3 133/94/3
f 143/93/4 138/90/4 137/93/4
f 141/95/5 136/92/5 135/95/5
f 134/91/6 139/94/6 133/94/6
f 126/96/7 121/97/7 123/98/7
f 127/97/8 131/99/8 129/98/8
f 122/100/69 134/91/69 133/94/69
f 123/101/70 133/94/70 135/95/70
f 123/101/71 136/92/71 124/102/71
f 125/103/72 136/92/72 137/93/72
f 126/104/73 137/93/73 138/90/73
f 126/104/74 134/91/74 121/105/74
f 127/105/75 139/94/75 140/91/75
f 129/101/76 139/94/76 128/100/76
f 129/101/77 142/92/77 141/95/77
f 131/103/78 142/92/78 130/106/78
f 132/104/79 143/93/79 131/103/79
f 132/104/80 140/91/80 144/90/80
f 168/107/1 158/108/1 162/107/1
f 166/109/2 161/110/2 160/109/2
f 163/111/3 159/112/3 157/111/3
f 161/110/4 168/107/4 162/107/4
f 165/112/5 160/109/5 159/112/5
f 164/108/6 157/111/6 158/108/6
f 147/113/7 149/114/7 145/115/7
f 155/114/8 154/116/8 153/113/8
f 146/117/21 158/108/21 157/111/21
f 147/118/22 157/111/22 159/112/22
f 147/118/23 160/109/23 148/119/23
f 149/120/24 160/109/24 161/110/24
f 150/121/25 161/110/25 162/107/25
f 150/121/26 158/108/26 145/122/26
f 152/117/27 164/108/27 151/123/27
f 153/118/28 163/111/28 152/117/28
f 153/118/29 166/109/29 165/112/29
f 155/120/81 166/109/81 154/119/81
f 156/121/82 167/110/82 155/120/82
f 156/121/32 164/108/32 168/107/32
f 186/124/1 188/125/1 182/125/1
f 190/126/2 185/127/2 184/126/2
f 181/128/3 189/129/3 183/129/3
f 191/127/4 186/124/4 185/127/4
f 189/129/5 184/126/5 183/129/5
f 188/125/6 181/128/6 182/125/6
f 171/130/7 173/131/7 169/132/7
f 175/132/8 179/131/8 177/130/8
f 169/133/9 181/128/9 170/134/9
f 171/135/10 181/128/10 183/129/10
f 171/135/11 184/126/11 172/136/11
f 172/136/12 185/127/12 173/137/12
f 173/137/13 186/124/13 174/138/13
f 174/138/14 182/125/14 169/133/14
f 176/134/15 188/125/15 175/133/15
f 176/134/16 189/129/16 187/128/16
f 178/136/17 189/129/17 177/135/17
f 179/137/18 190/126/18 178/136/18
f 180/138/19 191/127/19 179/137/19
f 175/133/20 192/124/20 180/138/20
f 206/139/83 203/140/83 202/139/83
f 210/141/84 208/142/84 204/142/84
f 211/143/85 202/139/85 209/143/85
f 216/144/8 198/145/8 215/146/8
f 213/146/7 196/147/7 193/148/7
f 213/149/86 201/150/86 209/143/86
f 194/151/87 203/140/87 195/152/87
f 195/152/88 210/141/88 214/153/88
f 201/150/89 197/154/89 205/150/89
f 204/142/89 200/155/89 196/155/89
f 198/151/90 211/143/90 215/149/90
f 198/151/91 207/140/91 206/139/91
f 216/153/92 208/142/92 212/141/92
f 200/147/89 193/148/89 196/147/89
f 199/152/93 212/141/93 207/140/93
f 215/149/94 205/150/94 197/154/94
f 214/153/95 204/142/95 196/155/95
f 194/151/96 209/143/96 202/139/96
f 194/145/7 214/144/7 213/146/7
f 200/147/8 215/146/8 197/148/8
f 205/150/97 209/143/97 201/150/97
f 207/140/98 210/141/98 203/140/98
f 240/156/99 230/157/99 234/156/99
f 238/158/100 233/159/100 232/158/100
f 235/160/101 231/161/101 229/160/101
f 239/159/102 234/156/102 233/159/102
f 237/162/103 232/158/103 231/161/103
f 236/157/104 229/160/104 230/157/104
f 221/163/7 222/164/7 217/165/7
f 223/165/8 227/163/8 225/166/8
f 217/167/105 229/160/105 218/168/105
f 219/169/106 229/160/106 231/161/106
f 220/170/107 231/161/107 232/158/107
f 221/171/108 232/158/108 233/159/108
f 222/172/109 233/159/109 234/156/109
f 217/167/110 234/156/110 230/157/110
f 224/168/111 236/157/111 223/167/111
f 225/169/112 235/160/112 224/168/112
f 226/170/113 237/162/113 225/169/113
f 227/171/114 238/158/114 226/170/114
f 227/171/115 240/156/115 239/159/115
f 228/172/116 236/157/116 240/156/116
f 264/173/117 254/174/117 258/173/117
f 262/175/118 257/176/118 256/175/118
f 259/177/119 255/178/119 253/177/119
f 257/176/120 264/173/120 258/173/120
f 261/178/121 256/175/121 255/178/121
f 260/174/122 253/177/122 254/174/122
f 245/179/7 246/180/7 241/181/7
f 251/179/8 250/182/8 249/183/8
f 242/184/123 254/174/123 253/177/123
f 243/185/124 253/177/124 255/178/124
f 244/186/125 255/178/125 256/175/125
f 245/187/126 256/175/126 257/176/126
f 246/188/127 257/176/127 258/173/127
f 246/188/128 254/174/128 241/189/128
f 248/184/129 260/174/129 247/189/129
f 249/185/130 259/177/130 248/184/130
f 249/185/131 262/175/131 261/178/131
f 251/187/132 262/175/132 250/186/132
f 252/188/133 263/176/133 251/187/133
f 252/188/134 260/174/134 264/173/134
f 282/190/135 284/191/135 278/191/135
f 286/192/136 281/193/136 280/192/136
f 283/194/137 279/195/137 277/194/137
f 281/193/138 288/190/138 282/190/138
f 285/195/139 280/192/139 279/195/139
f 284/191/140 277/194/140 278/191/140
f 269/196/7 270/197/7 265/198/7
f 275/196/8 274/199/8 273/200/8
f 266/201/141 278/191/141 277/194/141
f 267/202/142 277/194/142 279/195/142
f 268/203/143 279/195/143 280/192/143
f 269/204/144 280/192/144 281/193/144
f 269/204/145 282/190/145 270/205/145
f 270/205/146 278/191/146 265/206/146
f 272/201/147 284/191/147 271/206/147
f 273/207/148 283/194/148 272/201/148
f 274/203/149 285/195/149 273/207/149
f 275/204/150 286/192/150 274/203/150
f 275/204/151 288/190/151 287/193/151
f 271/206/152 288/190/152 276/208/152
f 306/209/153 308/210/153 302/210/153
f 310/211/154 305/212/154 304/211/154
f 307/213/155 303/214/155 301/213/155
f 305/212/156 312/209/156 306/209/156
f 309/214/157 304/211/157 303/214/157
f 302/210/158 307/213/158 301/213/158
f 294/215/7 289/216/7 291/217/7
f 299/218/8 298/219/8 297/217/8
f 290/220/159 302/210/159 301/213/159
f 291/221/160 301/213/160 303/214/160
f 292/222/161 303/214/161 304/211/161
f 293/223/162 304/211/162 305/212/162
f 294/224/163 305/212/163 306/209/163
f 294/224/164 302/210/164 289/225/164
f 296/220/165 308/210/165 295/225/165
f 297/221/166 307/213/166 296/220/166
f 298/222/167 309/214/167 297/221/167
f 299/223/168 310/211/168 298/222/168
f 300/224/169 311/212/169 299/223/169
f 300/224/170 308/210/170 312/209/170
f 322/226/171 327/227/171 323/227/171
f 330/228/172 328/229/172 324/229/172
f 331/230/173 322/226/173 329/230/173
f 336/231/8 318/232/8 335/233/8
f 333/233/7 316/234/7 313/235/7
f 333/236/174 321/237/174 329/230/174
f 314/238/175 323/227/175 315/239/175
f 315/239/176 330/228/176 334/240/176
f 313/241/177 325/237/177 321/237/177
f 328/229/177 316/242/177 324/229/177
f 318/238/178 331/230/178 335/236/178
f 318/238/179 327/227/179 326/226/179
f 336/240/180 328/229/180 332/228/180
f 320/234/177 313/235/177 316/234/177
f 319/239/181 332/228/181 327/227/181
f 335/236/182 325/237/182 317/241/182
f 334/240/183 324/229/183 316/242/183
f 314/238/184 329/230/184 322/226/184
f 314/232/7 334/231/7 333/233/7
f 320/234/8 335/233/8 317/235/8
f 325/237/185 329/230/185 321/237/185
f 327/227/186 330/228/186 323/227/186
f 354/243/187 356/244/187 350/244/187
f 358/245/188 353/246/188 352/245/188
f 355/247/189 351/248/189 349/247/189
f 353/246/190 360/243/190 354/243/190
f 357/248/191 352/245/191 351/248/191
f 350/244/192 355/247/192 349/247/192
f 339/249/7 341/250/7 337/251/7
f 347/250/8 346/252/8 345/249/8
f 338/253/193 350/244/193 349/247/193
f 339/254/194 349/247/194 351/248/194
f 340/255/195 351/248/195 352/245/195
f 341/256/196 352/245/196 353/246/196
f 342/257/197 353/246/197 354/243/197
f 337/258/198 354/243/198 350/244/198
f 343/258/199 355/247/199 356/244/199
f 345/254/200 355/247/200 344/253/200
f 346/255/201 357/248/201 345/254/201
f 347/256/202 358/245/202 346/255/202
f 348/257/203 359/259/203 347/256/203
f 343/258/204 360/243/204 348/257/204
f 384/260/205 374/261/205 378/260/205
f 382/262/206 377/263/206 376/262/206
f 379/264/207 375/265/207 373/266/207
f 383/267/208 378/260/208 377/263/208
f 381/268/209 376/262/209 375/265/209
f 380/261/210 373/266/210 374/261/210
f 365/269/7 366/270/7 361/271/7
f 367/271/8 371/269/8 369/272/8
f 362/273/211 374/261/211 373/266/211
f 363/274/212 373/266/212 375/265/212
f 364/275/213 375/265/213 376/262/213
f 365/276/214 376/262/214 377/263/214
f 366/277/215 377/263/215 378/260/215
f 361/278/216 378/260/216 374/261/216
f 367/278/217 379/264/217 380/261/217
f 368/273/218 381/268/218 379/264/218
f 369/279/219 382/262/219 381/268/219
f 371/276/220 382/262/220 370/275/220
f 371/276/221 384/260/221 383/267/221
f 367/278/222 384/260/222 372/277/222
f 398/280/223 395/281/223 394/280/223
f 404/282/224 396/283/224 402/282/224
f 401/284/225 398/280/225 394/280/225
f 408/285/8 390/286/8 407/287/8
f 405/287/7 388/288/7 385/289/7
f 405/290/226 393/291/226 401/284/226
f 386/292/227 395/281/227 387/293/227
f 387/293/228 402/282/228 406/294/228
f 385/295/229 397/291/229 393/291/229
f 400/283/230 388/296/230 396/283/230
f 390/292/231 403/284/231 407/290/231
f 390/292/232 399/281/232 398/280/232
f 408/294/233 400/283/233 404/282/233
f 388/288/230 389/289/230 385/289/230
f 391/293/234 404/282/234 399/281/234
f 407/290/235 397/291/235 389/295/235
f 406/294/236 396/283/236 388/296/236
f 386/292/237 401/284/237 394/280/237
f 386/286/7 406/285/7 405/287/7
f 392/288/8 407/287/8 389/289/8
f 397/291/238 401/284/238 393/291/238
f 399/281/239 402/282/239 395/281/239
f 432/297/240 422/298/240 426/297/240
f 430/299/241 425/300/241 424/301/241
f 427/302/242 423/303/242 421/304/242
f 425/300/243 432/297/243 426/297/243
f 429/303/244 424/301/244 423/303/244
f 428/298/245 421/304/245 422/298/245
f 413/305/7 414/306/7 409/307/7
f 418/308/8 417/309/8 415/307/8
f 409/310/246 421/304/246 410/311/246
f 411/312/247 421/304/247 423/303/247
f 411/312/248 424/301/248 412/313/248
f 412/313/249 425/300/249 413/314/249
f 414/315/250 425/300/250 426/297/250
f 414/315/251 422/298/251 409/310/251
f 416/311/252 428/298/252 415/310/252
f 416/311/253 429/303/253 427/302/253
f 418/313/254 429/303/254 417/312/254
f 418/313/255 431/300/255 430/299/255
f 420/315/256 431/300/256 419/314/256
f 415/310/257 432/297/257 420/315/257
f 450/316/258 452/317/258 446/317/258
f 454/318/259 449/319/259 448/318/259
f 451/320/260 447/321/260 445/320/260
f 455/319/261 450/316/261 449/319/261
f 453/321/262 448/318/262 447/321/262
f 452/317/263 445/320/263 446/317/263
f 437/322/7 438/323/7 433/324/7
f 443/322/8 442/325/8 441/326/8
f 434/327/264 446/317/264 445/320/264
f 435/328/265 445/320/265 447/321/265
f 436/329/266 447/321/266 448/318/266
f 437/330/267 448/318/267 449/319/267
f 438/331/268 449/319/268 450/316/268
f 433/332/269 450/316/269 446/317/269
f 440/327/270 452/317/270 439/332/270
f 441/328/271 451/320/271 440/327/271
f 442/329/272 453/321/272 441/328/272
f 443/330/273 454/318/273 442/329/273
f 444/331/274 455/319/274 443/330/274
f 444/331/275 452/317/275 456/316/275
f 474/333/276 476/334/276 470/334/276
f 478/335/277 473/336/277 472/335/277
f 475/337/278 471/338/278 469/337/278
f 479/336/279 474/333/279 473/336/279
f 477/338/280 472/335/280 471/338/280
f 476/334/281 469/337/281 470/334/281
f 462/339/7 457/340/7 459/341/7
f 467/342/8 466/343/8 465/341/8
f 458/344/282 470/334/282 469/337/282
f 458/344/283 471/338/283 459/345/283
f 459/345/284 472/335/284 460/346/284
f 460/346/285 473/336/285 461/347/285
f 462/348/286 473/336/286 474/333/286
f 457/349/287 474/333/287 470/334/287
f 464/344/288 476/334/288 463/349/288
f 465/345/289 475/337/289 464/344/289
f 465/345/290 478/335/290 477/338/290
f 467/347/291 478/335/291 466/350/291
f 467/347/292 480/333/292 479/336/292
f 468/348/293 476/334/293 480/333/293
f 504/351/294 494/352/294 498/351/294
f 502/353/295 497/354/295 496/353/295
f 499/355/296 495/356/296 493/355/296
f 503/354/297 498/351/297 497/354/297
f 501/356/298 496/353/298 495/356/298
f 494/352/299 499/355/299 493/355/299
f 485/357/7 486/358/7 481/359/7
f 491/357/8 490/360/8 489/361/8
f 482/362/300 494/352/300 493/355/300
f 483/363/301 493/355/301 495/356/301
f 484/364/302 495/356/302 496/353/302
f 485/365/303 496/353/303 497/354/303
f 485/365/304 498/351/304 486/366/304
f 486/366/305 494/352/305 481/367/305
f 487/367/306 499/355/306 500/352/306
f 488/362/307 501/356/307 499/355/307
f 489/363/308 502/353/308 501/356/308
f 491/365/309 502/353/309 490/364/309
f 492/368/310 503/354/310 491/365/310
f 487/367/311 504/351/311 492/368/311
f 528/369/312 518/370/312 522/369/312
f 526/371/313 521/372/313 520/371/313
f 523/373/314 519/374/314 517/373/314
f 521/372/315 528/369/315 522/369/315
f 525/374/316 520/371/316 519/374/316
f 524/370/317 517/373/317 518/370/317
f 509/375/7 510/376/7 505/377/7
f 514/378/8 513/379/8 511/377/8
f 506/380/318 518/370/318 517/373/318
f 506/380/319 519/374/319 507/381/319
f 507/381/320 520/371/320 508/382/320
f 509/383/321 520/371/321 521/372/321
f 510/384/322 521/372/322 522/369/322
f 505/385/323 522/369/323 518/370/323
f 512/380/324 524/370/324 511/385/324
f 513/381/325 523/373/325 512/380/325
f 514/382/326 525/374/326 513/381/326
f 514/382/327 527/372/327 526/371/327
f 516/384/328 527/372/328 515/383/328
f 516/384/329 524/370/329 528/369/329
f 546/386/330 548/387/330 542/387/330
f 550/388/331 545/389/331 544/390/331
f 547/391/332 543/392/332 541/393/332
f 551/389/333 546/386/333 545/389/333
f 549/392/334 544/390/334 543/392/334
f 548/387/335 541/393/335 542/387/335
f 533/394/7 534/395/7 529/396/7
f 539/394/8 538/397/8 537/398/8
f 529/399/336 541/393/336 530/400/336
f 530/400/337 543/392/337 531/401/337
f 531/401/338 544/390/338 532/402/338
f 533/403/339 544/390/339 545/389/339
f 534/404/340 545/389/340 546/386/340
f 534/404/341 542/387/341 529/399/341
f 535/399/342 547/391/342 548/387/342
f 536/400/343 549/392/343 547/391/343
f 537/401/344 550/388/344 549/392/344
f 539/403/345 550/388/345 538/402/345
f 540/404/346 551/389/346 539/403/346
f 535/399/347 552/386/347 540/404/347
f 576/405/348 566/406/348 570/405/348
f 574/407/349 569/408/349 568/407/349
f 571/409/350 567/410/350 565/409/350
f 569/408/351 576/405/351 570/405/351
f 573/410/352 568/407/352 567/410/352
f 572/406/353 565/409/353 566/406/353
f 558/411/7 553/412/7 555/413/7
f 562/414/8 561/413/8 559/412/8
f 554/415/354 566/406/354 565/409/354
f 555/416/355 565/409/355 567/410/355
f 555/416/356 568/407/356 556/417/356
f 557/418/357 568/407/357 569/408/357
f 558/419/358 569/408/358 570/405/358
f 553/420/359 570/405/359 566/406/359
f 559/420/360 571/409/360 572/406/360
f 561/416/361 571/409/361 560/415/361
f 562/417/362 573/410/362 561/416/362
f 563/418/363 574/407/363 562/417/363
f 564/419/364 575/408/364 563/418/364
f 564/419/365 572/406/365 576/405/365
f 590/421/366 587/422/366 586/421/366
f 594/423/367 592/424/367 588/424/367
f 595/425/368 586/421/368 593/425/368
f 600/426/8 582/427/8 599/428/8
f 597/428/7 580/429/7 577/430/7
f 597/431/369 585/432/369 593/425/369
f 578/433/370 587/422/370 579/434/370
f 579/434/371 594/423/371 598/435/371
f 577/436/372 589/432/372 585/432/372
f 592/424/372 580/437/372 588/424/372
f 582/433/373 595/425/373 599/431/373
f 582/433/374 591/422/374 590/421/374
f 600/435/375 592/424/375 596/423/375
f 584/429/372 577/430/372 580/429/372
f 583/434/376 596/423/376 591/422/376
f 599/431/377 589/432/377 581/436/377
f 598/435/378 588/424/378 580/437/378
f 578/433/379 593/425/379 586/421/379
f 578/427/7 598/426/7 597/428/7
f 584/429/8 599/428/8 581/430/8
f 589/432/380 593/425/380 585/432/380
f 591/422/381 594/423/381 587/422/381
f 24/1/1 20/2/1 14/2/1
f 22/3/2 23/4/2 17/4/2
f 19/5/3 21/6/3 15/6/3
f 23/4/4 24/1/4 18/1/4
f 21/6/5 22/3/5 16/3/5
f 20/2/6 19/5/6 13/5/6
f 1/9/7 2/438/7 5/7/7
f 2/438/7 3/11/7 5/7/7
f 3/11/7 4/10/7 5/7/7
f 9/11/8 8/438/8 11/7/8
f 8/438/8 7/9/8 11/7/8
f 7/9/8 12/8/8 11/7/8
f 2/12/9 1/17/9 14/2/9
f 3/13/10 2/12/10 13/5/10
f 3/13/11 15/6/11 16/3/11
f 5/15/12 4/14/12 16/3/12
f 6/16/13 5/15/13 17/4/13
f 1/17/14 6/16/14 18/1/14
f 8/12/15 19/5/15 20/2/15
f 9/13/16 21/6/16 19/5/16
f 10/14/17 22/3/17 21/6/17
f 11/15/18 23/4/18 22/3/18
f 12/16/19 24/1/19 23/4/19
f 7/17/20 20/2/20 24/1/20
f 42/18/1 48/18/1 44/19/1
f 46/20/2 47/21/2 41/21/2
f 43/22/3 45/23/3 39/23/3
f 41/21/4 47/21/4 48/18/4
f 45/23/5 46/20/5 40/20/5
f 38/19/6 44/19/6 43/22/6
f 25/26/7 26/439/7 27/28/7
f 27/28/7 28/27/7 25/26/7
f 28/27/7 29/24/7 25/26/7
f 33/28/8 32/439/8 31/440/8
f 31/440/8 36/25/8 33/28/8
f 36/25/8 35/24/8 33/28/8
f 26/29/21 25/34/21 38/19/21
f 26/29/22 37/22/22 39/23/22
f 28/31/23 27/30/23 39/23/23
f 28/31/24 40/20/24 41/21/24
f 29/32/25 41/21/25 42/18/25
f 30/33/26 42/18/26 38/19/26
f 32/29/382 43/22/382 44/19/382
f 33/30/28 45/23/28 43/22/28
f 34/31/29 46/20/29 45/23/29
f 35/32/30 47/21/30 46/20/30
f 36/33/82 48/18/82 47/21/82
f 36/33/383 31/35/383 44/19/383
f 72/36/1 68/37/1 62/37/1
f 70/38/2 71/39/2 65/39/2
f 67/40/3 69/41/3 63/41/3
f 71/39/4 72/36/4 66/36/4
f 69/41/5 70/38/5 64/38/5
f 62/37/6 68/37/6 67/40/6
f 49/43/7 50/441/7 51/44/7
f 51/44/7 52/442/7 53/45/7
f 53/45/7 54/42/7 51/44/7
f 57/44/8 56/441/8 59/45/8
f 56/441/8 55/43/8 59/45/8
f 55/43/8 60/42/8 59/45/8
f 50/47/33 49/52/33 62/37/33
f 50/47/34 61/40/34 63/41/34
f 52/49/35 51/48/35 63/41/35
f 53/50/36 52/49/36 64/38/36
f 53/50/37 65/39/37 66/36/37
f 49/52/38 54/51/38 66/36/38
f 56/47/39 67/40/39 68/37/39
f 57/48/40 69/41/40 67/40/40
f 57/48/41 58/53/41 70/38/41
f 59/50/42 71/39/42 70/38/42
f 60/51/43 72/36/43 71/39/43
f 55/52/44 68/37/44 72/36/44
f 90/54/1 96/54/1 92/55/1
f 94/56/2 95/57/2 89/57/2
f 91/58/3 93/59/3 87/59/3
f 89/57/4 95/57/4 96/54/4
f 93/59/5 94/56/5 88/56/5
f 86/55/6 92/55/6 91/58/6
f 73/62/7 74/443/7 77/60/7
f 74/443/7 75/64/7 77/60/7
f 75/64/7 76/63/7 77/60/7
f 81/64/8 80/443/8 83/60/8
f 80/443/8 79/62/8 83/60/8
f 79/62/8 84/61/8 83/60/8
f 74/65/45 73/70/45 86/55/45
f 75/66/46 74/65/46 85/58/46
f 76/67/47 75/66/47 87/59/47
f 76/67/48 88/56/48 89/57/48
f 77/68/49 89/57/49 90/54/49
f 73/70/50 78/69/50 90/54/50
f 80/65/51 91/58/51 92/55/51
f 80/65/52 81/66/52 93/59/52
f 82/67/53 94/56/53 93/59/53
f 83/68/54 95/57/54 94/56/54
f 83/68/55 84/69/55 96/54/55
f 79/70/56 92/55/56 96/54/56
f 114/71/1 120/71/1 116/72/1
f 118/73/2 119/74/2 113/74/2
f 115/75/3 117/76/3 111/76/3
f 113/74/4 119/74/4 120/71/4
f 117/76/5 118/73/5 112/73/5
f 116/72/6 115/75/6 109/75/6
f 97/79/7 98/444/7 99/77/7
f 99/77/7 100/445/7 101/78/7
f 101/78/7 102/446/7 97/79/7
f 105/81/8 104/444/8 103/80/8
f 103/80/8 108/446/8 107/78/8
f 107/78/8 106/445/8 105/81/8
f 98/82/57 97/87/57 110/72/57
f 99/83/58 98/82/58 109/75/58
f 99/83/59 111/76/59 112/73/59
f 100/84/60 112/73/60 113/74/60
f 101/85/61 113/74/61 114/71/61
f 97/87/62 102/86/62 114/71/62
f 104/82/63 115/75/63 116/72/63
f 104/82/64 105/89/64 117/76/64
f 106/84/65 118/73/65 117/76/65
f 107/85/66 119/74/66 118/73/66
f 108/86/67 120/71/67 119/74/67
f 108/86/68 103/88/68 116/72/68
f 144/90/1 140/91/1 134/91/1
f 142/92/2 143/93/2 137/93/2
f 139/94/3 141/95/3 135/95/3
f 143/93/4 144/90/4 138/90/4
f 141/95/5 142/92/5 136/92/5
f 134/91/6 140/91/6 139/94/6
f 121/97/7 122/447/7 123/98/7
f 123/98/7 124/448/7 125/99/7
f 125/99/7 126/96/7 123/98/7
f 129/98/8 128/447/8 127/97/8
f 127/97/8 132/96/8 131/99/8
f 131/99/8 130/449/8 129/98/8
f 122/100/69 121/105/69 134/91/69
f 123/101/70 122/100/70 133/94/70
f 123/101/71 135/95/71 136/92/71
f 125/103/72 124/102/72 136/92/72
f 126/104/73 125/103/73 137/93/73
f 126/104/74 138/90/74 134/91/74
f 127/105/75 128/100/75 139/94/75
f 129/101/76 141/95/76 139/94/76
f 129/101/77 130/106/77 142/92/77
f 131/103/78 143/93/78 142/92/78
f 132/104/79 144/90/79 143/93/79
f 132/104/80 127/105/80 140/91/80
f 168/107/1 164/108/1 158/108/1
f 166/109/2 167/110/2 161/110/2
f 163/111/3 165/112/3 159/112/3
f 161/110/4 167/110/4 168/107/4
f 165/112/5 166/109/5 160/109/5
f 164/108/6 163/111/6 157/111/6
f 145/115/7 146/450/7 147/113/7
f 147/113/7 148/116/7 149/114/7
f 149/114/7 150/451/7 145/115/7
f 153/113/8 152/450/8 155/114/8
f 152/450/8 151/452/8 155/114/8
f 151/452/8 156/451/8 155/114/8
f 146/117/21 145/122/21 158/108/21
f 147/118/22 146/117/22 157/111/22
f 147/118/23 159/112/23 160/109/23
f 149/120/24 148/119/24 160/109/24
f 150/121/384 149/120/384 161/110/384
f 150/121/26 162/107/26 158/108/26
f 152/117/27 163/111/27 164/108/27
f 153/118/28 165/112/28 163/111/28
f 153/118/29 154/119/29 166/109/29
f 155/120/81 167/110/81 166/109/81
f 156/121/82 168/107/82 167/110/82
f 156/121/32 151/123/32 164/108/32
f 186/124/1 192/124/1 188/125/1
f 190/126/2 191/127/2 185/127/2
f 181/128/3 187/128/3 189/129/3
f 191/127/4 192/124/4 186/124/4
f 189/129/5 190/126/5 184/126/5
f 188/125/6 187/128/6 181/128/6
f 169/132/7 170/453/7 171/130/7
f 171/130/7 172/454/7 173/131/7
f 173/131/7 174/455/7 169/132/7
f 177/130/8 176/453/8 175/132/8
f 175/132/8 180/455/8 179/131/8
f 179/131/8 178/454/8 177/130/8
f 169/133/9 182/125/9 181/128/9
f 171/135/10 170/134/10 181/128/10
f 171/135/11 183/129/11 184/126/11
f 172/136/12 184/126/12 185/127/12
f 173/137/13 185/127/13 186/124/13
f 174/138/14 186/124/14 182/125/14
f 176/134/15 187/128/15 188/125/15
f 176/134/16 177/135/16 189/129/16
f 178/136/17 190/126/17 189/129/17
f 179/137/18 191/127/18 190/126/18
f 180/138/19 192/124/19 191/127/19
f 175/133/20 188/125/20 192/124/20
f 206/139/83 207/140/83 203/140/83
f 210/141/84 212/141/84 208/142/84
f 211/143/85 206/139/85 202/139/85
f 216/144/8 199/456/8 198/145/8
f 213/146/7 214/144/7 196/147/7
f 213/149/385 193/154/385 201/150/385
f 194/151/87 202/139/87 203/140/87
f 195/152/386 203/140/386 210/141/386
f 201/150/387 193/154/387 197/154/387
f 204/142/387 208/142/387 200/155/387
f 198/151/388 206/139/388 211/143/388
f 198/151/91 199/152/91 207/140/91
f 216/153/389 200/155/389 208/142/389
f 200/147/89 197/148/89 193/148/89
f 199/152/390 216/153/390 212/141/390
f 215/149/391 211/143/391 205/150/391
f 214/153/392 210/141/392 204/142/392
f 194/151/393 213/149/393 209/143/393
f 194/145/7 195/456/7 214/144/7
f 200/147/8 216/144/8 215/146/8
f 205/150/97 211/143/97 209/143/97
f 207/140/98 212/141/98 210/141/98
f 240/156/99 236/157/99 230/157/99
f 238/158/100 239/159/100 233/159/100
f 235/160/101 237/162/101 231/161/101
f 239/159/102 240/156/102 234/156/102
f 237/162/103 238/158/103 232/158/103
f 236/157/104 235/160/104 229/160/104
f 217/165/7 218/457/7 221/163/7
f 218/457/7 219/166/7 221/163/7
f 219/166/7 220/458/7 221/163/7
f 225/166/8 224/457/8 223/165/8
f 223/165/8 228/164/8 227/163/8
f 227/163/8 226/458/8 225/166/8
f 217/167/105 230/157/105 229/160/105
f 219/169/106 218/168/106 229/160/106
f 220/170/107 219/169/107 231/161/107
f 221/171/108 220/170/108 232/158/108
f 222/172/109 221/171/109 233/159/109
f 217/167/110 222/172/110 234/156/110
f 224/168/111 235/160/111 236/157/111
f 225/169/112 237/162/112 235/160/112
f 226/170/113 238/158/113 237/162/113
f 227/171/114 239/159/114 238/158/114
f 227/171/115 228/172/115 240/156/115
f 228/172/116 223/167/116 236/157/116
f 264/173/117 260/174/117 254/174/117
f 262/175/118 263/176/118 257/176/118
f 259/177/119 261/178/119 255/178/119
f 257/176/120 263/176/120 264/173/120
f 261/178/121 262/175/121 256/175/121
f 260/174/122 259/177/122 253/177/122
f 241/181/7 242/459/7 243/183/7
f 243/183/7 244/182/7 241/181/7
f 244/182/7 245/179/7 241/181/7
f 249/183/8 248/459/8 251/179/8
f 248/459/8 247/181/8 251/179/8
f 247/181/8 252/180/8 251/179/8
f 242/184/394 241/189/394 254/174/394
f 243/185/395 242/184/395 253/177/395
f 244/186/396 243/185/396 255/178/396
f 245/187/126 244/186/126 256/175/126
f 246/188/397 245/187/397 257/176/397
f 246/188/128 258/173/128 254/174/128
f 248/184/129 259/177/129 260/174/129
f 249/185/130 261/178/130 259/177/130
f 249/185/131 250/186/131 262/175/131
f 251/187/132 263/176/132 262/175/132
f 252/188/133 264/173/133 263/176/133
f 252/188/134 247/189/134 260/174/134
f 282/190/135 288/190/135 284/191/135
f 286/192/136 287/193/136 281/193/136
f 283/194/137 285/195/137 279/195/137
f 281/193/138 287/193/138 288/190/138
f 285/195/139 286/192/139 280/192/139
f 284/191/140 283/194/140 277/194/140
f 265/198/7 266/460/7 269/196/7
f 266/460/7 267/461/7 269/196/7
f 267/461/7 268/199/7 269/196/7
f 273/200/8 272/460/8 271/198/8
f 271/198/8 276/462/8 273/200/8
f 276/462/8 275/196/8 273/200/8
f 266/201/141 265/206/141 278/191/141
f 267/202/142 266/201/142 277/194/142
f 268/203/143 267/202/143 279/195/143
f 269/204/144 268/203/144 280/192/144
f 269/204/145 281/193/145 282/190/145
f 270/205/146 282/190/146 278/191/146
f 272/201/147 283/194/147 284/191/147
f 273/207/148 285/195/148 283/194/148
f 274/203/149 286/192/149 285/195/149
f 275/204/150 287/193/150 286/192/150
f 275/204/151 276/208/151 288/190/151
f 271/206/152 284/191/152 288/190/152
f 306/209/153 312/209/153 308/210/153
f 310/211/154 311/212/154 305/212/154
f 307/213/155 309/214/155 303/214/155
f 305/212/156 311/212/156 312/209/156
f 309/214/157 310/211/157 304/211/157
f 302/210/158 308/210/158 307/213/158
f 289/216/7 290/463/7 291/217/7
f 291/217/7 292/219/7 293/218/7
f 293/218/7 294/215/7 291/217/7
f 297/217/8 296/463/8 295/216/8
f 295/216/8 300/215/8 297/217/8
f 300/215/8 299/218/8 297/217/8
f 290/220/159 289/225/159 302/210/159
f 291/221/160 290/220/160 301/213/160
f 292/222/161 291/221/161 303/214/161
f 293/223/162 292/222/162 304/211/162
f 294/224/163 293/223/163 305/212/163
f 294/224/164 306/209/164 302/210/164
f 296/220/165 307/213/165 308/210/165
f 297/221/166 309/214/166 307/213/166
f 298/222/167 310/211/167 309/214/167
f 299/223/168 311/212/168 310/211/168
f 300/224/169 312/209/169 311/212/169
f 300/224/170 295/225/170 308/210/170
f 322/226/171 326/226/171 327/227/171
f 330/228/172 332/228/172 328/229/172
f 331/230/173 326/226/173 322/226/173
f 336/231/8 319/464/8 318/232/8
f 333/233/7 334/231/7 316/234/7
f 333/236/398 313/241/398 321/237/398
f 314/238/175 322/226/175 323/227/175
f 315/239/399 323/227/399 330/228/399
f 313/241/177 317/241/177 325/237/177
f 328/229/177 320/242/177 316/242/177
f 318/238/400 326/226/400 331/230/400
f 318/238/179 319/239/179 327/227/179
f 336/240/401 320/242/401 328/229/401
f 320/234/177 317/235/177 313/235/177
f 319/239/402 336/240/402 332/228/402
f 335/236/403 331/230/403 325/237/403
f 334/240/404 330/228/404 324/229/404
f 314/238/405 333/236/405 329/230/405
f 314/232/7 315/464/7 334/231/7
f 320/234/8 336/231/8 335/233/8
f 325/237/185 331/230/185 329/230/185
f 327/227/186 332/228/186 330/228/186
f 354/243/187 360/243/187 356/244/187
f 358/245/188 359/259/188 353/246/188
f 355/247/189 357/248/189 351/248/189
f 353/246/190 359/259/190 360/243/190
f 357/248/191 358/245/191 352/245/191
f 350/244/192 356/244/192 355/247/192
f 337/251/7 338/465/7 339/249/7
f 339/249/7 340/252/7 341/250/7
f 341/250/7 342/466/7 337/251/7
f 345/249/8 344/465/8 343/251/8
f 343/251/8 348/466/8 345/249/8
f 348/466/8 347/250/8 345/249/8
f 338/253/193 337/258/193 350/244/193
f 339/254/194 338/253/194 349/247/194
f 340/255/195 339/254/195 351/248/195
f 341/256/196 340/255/196 352/245/196
f 342/257/197 341/256/197 353/246/197
f 337/258/198 342/257/198 354/243/198
f 343/258/199 344/253/199 355/247/199
f 345/254/200 357/248/200 355/247/200
f 346/255/201 358/245/201 357/248/201
f 347/256/202 359/259/202 358/245/202
f 348/257/203 360/243/203 359/259/203
f 343/258/204 356/244/204 360/243/204
f 384/260/205 380/261/205 374/261/205
f 382/262/206 383/267/206 377/263/206
f 379/264/207 381/268/207 375/265/207
f 383/267/208 384/260/208 378/260/208
f 381/268/209 382/262/209 376/262/209
f 380/261/210 379/264/210 373/266/210
f 361/271/7 362/467/7 363/468/7
f 363/468/7 364/469/7 361/271/7
f 364/469/7 365/269/7 361/271/7
f 369/272/8 368/467/8 367/271/8
f 367/271/8 372/270/8 371/269/8
f 371/269/8 370/469/8 369/272/8
f 362/273/211 361/278/211 374/261/211
f 363/274/212 362/273/212 373/266/212
f 364/275/213 363/274/213 375/265/213
f 365/276/214 364/275/214 376/262/214
f 366/277/215 365/276/215 377/263/215
f 361/278/216 366/277/216 378/260/216
f 367/278/217 368/273/217 379/264/217
f 368/273/218 369/279/218 381/268/218
f 369/279/219 370/275/219 382/262/219
f 371/276/220 383/267/220 382/262/220
f 371/276/221 372/277/221 384/260/221
f 367/278/222 380/261/222 384/260/222
f 398/280/223 399/281/223 395/281/223
f 404/282/224 400/283/224 396/283/224
f 401/284/225 403/284/225 398/280/225
f 408/285/8 391/470/8 390/286/8
f 405/287/7 406/285/7 388/288/7
f 405/290/406 385/295/406 393/291/406
f 386/292/227 394/280/227 395/281/227
f 387/293/407 395/281/407 402/282/407
f 385/295/230 389/295/230 397/291/230
f 400/283/230 392/296/230 388/296/230
f 390/292/408 398/280/408 403/284/408
f 390/292/232 391/293/232 399/281/232
f 408/294/409 392/296/409 400/283/409
f 388/288/230 392/288/230 389/289/230
f 391/293/410 408/294/410 404/282/410
f 407/290/411 403/284/411 397/291/411
f 406/294/412 402/282/412 396/283/412
f 386/292/413 405/290/413 401/284/413
f 386/286/7 387/470/7 406/285/7
f 392/288/8 408/285/8 407/287/8
f 397/291/238 403/284/238 401/284/238
f 399/281/239 404/282/239 402/282/239
f 432/297/240 428/298/240 422/298/240
f 430/299/241 431/300/241 425/300/241
f 427/302/242 429/303/242 423/303/242
f 425/300/243 431/300/243 432/297/243
f 429/303/244 430/299/244 424/301/244
f 428/298/245 427/302/245 421/304/245
f 409/307/7 410/471/7 413/305/7
f 410/471/7 411/309/7 413/305/7
f 411/309/7 412/308/7 413/305/7
f 417/309/8 416/471/8 415/307/8
f 415/307/8 420/306/8 419/305/8
f 419/305/8 418/308/8 415/307/8
f 409/310/246 422/298/246 421/304/246
f 411/312/414 410/311/414 421/304/414
f 411/312/248 423/303/248 424/301/248
f 412/313/249 424/301/249 425/300/249
f 414/315/250 413/314/250 425/300/250
f 414/315/251 426/297/251 422/298/251
f 416/311/252 427/302/252 428/298/252
f 416/311/253 417/312/253 429/303/253
f 418/313/254 430/299/254 429/303/254
f 418/313/255 419/314/255 431/300/255
f 420/315/256 432/297/256 431/300/256
f 415/310/257 428/298/257 432/297/257
f 450/316/258 456/316/258 452/317/258
f 454/318/259 455/319/259 449/319/259
f 451/320/260 453/321/260 447/321/260
f 455/319/261 456/316/261 450/316/261
f 453/321/262 454/318/262 448/318/262
f 452/317/263 451/320/263 445/320/263
f 433/324/7 434/472/7 437/322/7
f 434/472/7 435/326/7 437/322/7
f 435/326/7 436/325/7 437/322/7
f 441/326/8 440/472/8 439/324/8
f 439/324/8 444/323/8 441/326/8
f 444/323/8 443/322/8 441/326/8
f 434/327/264 433/332/264 446/317/264
f 435/328/415 434/327/415 445/320/415
f 436/329/266 435/328/266 447/321/266
f 437/330/267 436/329/267 448/318/267
f 438/331/416 437/330/416 449/319/416
f 433/332/269 438/331/269 450/316/269
f 440/327/270 451/320/270 452/317/270
f 441/328/271 453/321/271 451/320/271
f 442/329/272 454/318/272 453/321/272
f 443/330/273 455/319/273 454/318/273
f 444/331/274 456/316/274 455/319/274
f 444/331/275 439/332/275 452/317/275
f 474/333/276 480/333/276 476/334/276
f 478/335/277 479/336/277 473/336/277
f 475/337/278 477/338/278 471/338/278
f 479/336/279 480/333/279 474/333/279
f 477/338/280 478/335/280 472/335/280
f 476/334/281 475/337/281 469/337/281
f 457/340/7 458/473/7 459/341/7
f 459/341/7 460/474/7 461/342/7
f 461/342/7 462/339/7 459/341/7
f 465/341/8 464/473/8 463/340/8
f 463/340/8 468/339/8 465/341/8
f 468/339/8 467/342/8 465/341/8
f 458/344/282 457/349/282 470/334/282
f 458/344/283 469/337/283 471/338/283
f 459/345/284 471/338/284 472/335/284
f 460/346/285 472/335/285 473/336/285
f 462/348/286 461/347/286 473/336/286
f 457/349/287 462/348/287 474/333/287
f 464/344/288 475/337/288 476/334/288
f 465/345/289 477/338/289 475/337/289
f 465/345/290 466/350/290 478/335/290
f 467/347/291 479/336/291 478/335/291
f 467/347/292 468/348/292 480/333/292
f 468/348/293 463/349/293 476/334/293
f 504/351/294 500/352/294 494/352/294
f 502/353/295 503/354/295 497/354/295
f 499/355/296 501/356/296 495/356/296
f 503/354/297 504/351/297 498/351/297
f 501/356/298 502/353/298 496/353/298
f 494/352/299 500/352/299 499/355/299
f 481/359/7 482/475/7 483/361/7
f 483/361/7 484/360/7 481/359/7
f 484/360/7 485/357/7 481/359/7
f 489/361/8 488/475/8 487/359/8
f 487/359/8 492/476/8 489/361/8
f 492/476/8 491/357/8 489/361/8
f 482/362/300 481/367/300 494/352/300
f 483/363/301 482/362/301 493/355/301
f 484/364/302 483/363/302 495/356/302
f 485/365/303 484/364/303 496/353/303
f 485/365/304 497/354/304 498/351/304
f 486/366/305 498/351/305 494/352/305
f 487/367/306 488/362/306 499/355/306
f 488/362/307 489/363/307 501/356/307
f 489/363/308 490/364/308 502/353/308
f 491/365/309 503/354/309 502/353/309
f 492/368/310 504/351/310 503/354/310
f 487/367/311 500/352/311 504/351/311
f 528/369/312 524/370/312 518/370/312
f 526/371/313 527/372/313 521/372/313
f 523/373/314 525/374/314 519/374/314
f 521/372/315 527/372/315 528/369/315
f 525/374/316 526/371/316 520/371/316
f 524/370/317 523/373/317 517/373/317
f 505/377/7 506/477/7 507/379/7
f 507/379/7 508/378/7 505/377/7
f 508/378/7 509/375/7 505/377/7
f 513/379/8 512/477/8 511/377/8
f 511/377/8 516/376/8 515/375/8
f 515/375/8 514/378/8 511/377/8
f 506/380/417 505/385/417 518/370/417
f 506/380/319 517/373/319 519/374/319
f 507/381/320 519/374/320 520/371/320
f 509/383/321 508/382/321 520/371/321
f 510/384/322 509/383/322 521/372/322
f 505/385/323 510/384/323 522/369/323
f 512/380/324 523/373/324 524/370/324
f 513/381/325 525/374/325 523/373/325
f 514/382/326 526/371/326 525/374/326
f 514/382/327 515/383/327 527/372/327
f 516/384/328 528/369/328 527/372/328
f 516/384/329 511/385/329 524/370/329
f 546/386/330 552/386/330 548/387/330
f 550/388/331 551/389/331 545/389/331
f 547/391/332 549/392/332 543/392/332
f 551/389/333 552/386/333 546/386/333
f 549/392/334 550/388/334 544/390/334
f 548/387/335 547/391/335 541/393/335
f 529/396/7 530/478/7 531/398/7
f 531/398/7 532/397/7 529/396/7
f 532/397/7 533/394/7 529/396/7
f 537/398/8 536/478/8 539/394/8
f 536/478/8 535/396/8 539/394/8
f 535/396/8 540/395/8 539/394/8
f 529/399/336 542/387/336 541/393/336
f 530/400/337 541/393/337 543/392/337
f 531/401/338 543/392/338 544/390/338
f 533/403/339 532/402/339 544/390/339
f 534/404/340 533/403/340 545/389/340
f 534/404/341 546/386/341 542/387/341
f 535/399/342 536/400/342 547/391/342
f 536/400/343 537/401/343 549/392/343
f 537/401/344 538/402/344 550/388/344
f 539/403/345 551/389/345 550/388/345
f 540/404/346 552/386/346 551/389/346
f 535/399/347 548/387/347 552/386/347
f 576/405/348 572/406/348 566/406/348
f 574/407/349 575/408/349 569/408/349
f 571/409/350 573/410/350 567/410/350
f 569/408/351 575/408/351 576/405/351
f 573/410/352 574/407/352 568/407/352
f 572/406/353 571/409/353 565/409/353
f 553/412/7 554/479/7 555/413/7
f 555/413/7 556/414/7 557/480/7
f 557/480/7 558/411/7 555/413/7
f 561/413/8 560/479/8 559/412/8
f 559/412/8 564/411/8 563/480/8
f 563/480/8 562/414/8 559/412/8
f 554/415/354 553/420/354 566/406/354
f 555/416/355 554/415/355 565/409/355
f 555/416/356 567/410/356 568/407/356
f 557/418/357 556/417/357 568/407/357
f 558/419/358 557/418/358 569/408/358
f 553/420/359 558/419/359 570/405/359
f 559/420/360 560/415/360 571/409/360
f 561/416/361 573/410/361 571/409/361
f 562/417/362 574/407/362 573/410/362
f 563/418/363 575/408/363 574/407/363
f 564/419/364 576/405/364 575/408/364
f 564/419/365 559/420/365 572/406/365
f 590/421/366 591/422/366 587/422/366
f 594/423/367 596/423/367 592/424/367
f 595/425/368 590/421/368 586/421/368
f 600/426/8 583/481/8 582/427/8
f 597/428/7 598/426/7 580/429/7
f 597/431/418 577/436/418 585/432/418
f 578/433/370 586/421/370 587/422/370
f 579/434/419 587/422/419 594/423/419
f 577/436/372 581/436/372 589/432/372
f 592/424/372 584/437/372 580/437/372
f 582/433/420 590/421/420 595/425/420
f 582/433/374 583/434/374 591/422/374
f 600/435/421 584/437/421 592/424/421
f 584/429/372 581/430/372 577/430/372
f 583/434/422 600/435/422 596/423/422
f 599/431/423 595/425/423 589/432/423
f 598/435/424 594/423/424 588/424/424
f 578/433/425 597/431/425 593/425/425
f 578/427/7 579/481/7 598/426/7
f 584/429/8 600/426/8 599/428/8
f 589/432/380 595/425/380 593/425/380
f 591/422/381 596/423/381 594/423/381
