# Blender 4.4.0
# www.blender.org
mtllib Prop_Cardboard_Box_01.mtl
o Prop_Cardboard_Box_01
v -0.365000 0.000000 0.240583
v 0.365000 0.382077 0.240583
v 0.365000 0.382077 -0.240584
v -0.355584 0.000000 -0.240584
v 0.355584 0.382077 0.240583
v 0.355584 0.382077 -0.240584
v -0.355584 0.382077 -0.240584
v -0.355584 0.382077 0.240583
v -0.355584 0.006231 0.240584
v 0.355584 0.006231 0.240584
v -0.355584 0.006231 -0.240584
v 0.355584 0.006231 -0.240584
v 0.365000 0.382077 -0.250000
v -0.365000 0.382077 -0.250000
v 0.365000 0.000000 -0.250000
v -0.365000 0.000000 -0.250000
v -0.365000 0.382077 -0.240584
v -0.365000 0.000000 -0.240584
v 0.365000 0.000000 -0.240584
v -0.365000 0.523460 -0.419920
v -0.365000 0.516519 -0.426283
v 0.365000 0.523460 -0.419920
v 0.365000 0.516519 -0.426283
v 0.365000 0.403850 -0.245625
v 0.365000 0.403465 -0.254873
v -0.365000 0.403850 -0.245625
v -0.365000 0.403465 -0.254873
v 0.365000 0.382077 0.250000
v -0.365000 0.382077 0.250000
v 0.365000 0.000000 0.250000
v -0.365000 0.000000 0.250000
v -0.365000 0.382077 0.240583
v 0.365000 0.000000 0.240583
v -0.365000 0.523460 0.419920
v -0.365000 0.516519 0.426283
v 0.365000 0.523460 0.419920
v 0.365000 0.516519 0.426283
v 0.365000 0.403850 0.245625
v 0.365000 0.403465 0.254873
v -0.365000 0.403850 0.245625
v -0.365000 0.403465 0.254873
v -0.355584 0.000000 0.240584
v 0.355584 0.000000 0.240584
v 0.355584 0.000000 -0.240584
vn -1.0000 -0.0000 -0.0000
vn 1.0000 -0.0000 -0.0000
vn -0.0000 1.0000 -0.0000
vn -0.0000 -1.0000 -0.0000
vn -0.0000 0.8245 0.5658
vn -0.0000 -0.0000 -1.0000
vn -0.0000 -0.0000 1.0000
vn -0.0000 0.6758 -0.7371
vn -0.0000 -0.8348 -0.5506
vn -0.0000 0.2256 0.9742
vn -0.0000 -0.2221 -0.9750
vn -0.0000 0.8245 -0.5658
vn -0.0000 0.6758 0.7371
vn -0.0000 -0.8348 0.5506
vn -0.0000 0.2256 -0.9742
vn -0.0000 -0.2221 0.9750
vt 0.206019 0.815534
vt 0.206019 0.943173
vt 0.209972 0.815534
vt 0.209972 0.943173
vt 0.222641 0.825634
vt 0.222641 0.878201
vt 0.224228 0.878201
vt 0.224228 0.825634
vt 0.206070 0.943173
vt 0.206070 0.815534
vt 0.209921 0.943173
vt 0.209921 0.815534
vt 0.224228 0.826491
vt 0.222641 0.826491
vt 0.209972 0.950447
vt 0.206019 0.990405
vt 0.206019 0.950447
vt 0.224248 0.825634
vt 0.222620 0.878201
vt 0.222620 0.825634
vt 0.209972 0.988086
vt 0.209972 0.990405
vt 0.209972 0.950318
vt 0.206019 0.950318
vt 0.206019 0.988086
vt 0.224248 0.878201
vt 0.206019 0.988086
s 0
usemtl Texture_Map
f 1/1/1 17/2/1 18/1/1
f 19/3/2 2/4/2 33/3/2
f 4/5/2 8/6/2 42/5/2
f 5/7/1 44/8/1 43/8/1
f 8/9/3 17/2/3 32/2/3
f 4/10/4 1/1/4 18/1/4
f 6/11/3 2/4/3 3/4/3
f 33/3/4 44/12/4 19/3/4
f 10/13/3 11/14/3 9/14/3
f 24/15/5 20/16/5 26/17/5
f 14/2/1 18/1/1 17/2/1
f 16/1/4 19/3/4 18/1/4
f 15/3/2 3/4/2 19/3/2
f 14/2/6 15/3/6 16/1/6
f 19/18/7 17/19/7 18/20/7
f 23/21/8 20/16/8 22/22/8
f 25/23/2 22/22/2 24/15/2
f 27/24/1 20/16/1 21/25/1
f 27/24/9 23/21/9 25/23/9
f 26/17/1 14/2/1 17/2/1
f 13/4/2 24/15/2 3/4/2
f 24/15/10 17/2/10 3/4/10
f 27/24/11 13/4/11 14/2/11
f 34/16/12 38/15/12 40/17/12
f 1/1/1 29/2/1 32/2/1
f 33/3/4 31/1/4 1/1/4
f 2/4/2 30/3/2 33/3/2
f 30/3/7 29/2/7 31/1/7
f 32/19/6 33/18/6 1/20/6
f 34/16/13 37/21/13 36/22/13
f 36/22/2 39/23/2 38/15/2
f 41/24/1 34/16/1 40/17/1
f 37/21/14 41/24/14 39/23/14
f 29/2/1 40/17/1 32/2/1
f 28/4/2 38/15/2 39/23/2
f 32/2/15 38/15/15 2/4/15
f 28/4/16 41/24/16 29/2/16
f 4/10/4 43/12/4 42/10/4
f 1/1/1 32/2/1 17/2/1
f 19/3/2 3/4/2 2/4/2
f 4/5/2 7/6/2 8/6/2
f 5/7/1 6/7/1 44/8/1
f 8/9/3 7/9/3 17/2/3
f 4/10/4 42/10/4 1/1/4
f 6/11/3 5/11/3 2/4/3
f 33/3/4 43/12/4 44/12/4
f 10/13/3 12/13/3 11/14/3
f 24/15/5 22/22/5 20/16/5
f 14/2/1 16/1/1 18/1/1
f 16/1/4 15/3/4 19/3/4
f 15/3/2 13/4/2 3/4/2
f 14/2/6 13/4/6 15/3/6
f 19/18/7 3/26/7 17/19/7
f 23/21/8 21/25/8 20/16/8
f 25/23/2 23/21/2 22/22/2
f 27/24/1 26/17/1 20/16/1
f 27/24/9 21/25/9 23/21/9
f 26/17/1 27/24/1 14/2/1
f 13/4/2 25/23/2 24/15/2
f 24/15/10 26/17/10 17/2/10
f 27/24/11 25/23/11 13/4/11
f 34/16/12 36/22/12 38/15/12
f 1/1/1 31/1/1 29/2/1
f 33/3/4 30/3/4 31/1/4
f 2/4/2 28/4/2 30/3/2
f 30/3/7 28/4/7 29/2/7
f 32/19/6 2/26/6 33/18/6
f 34/16/13 35/27/13 37/21/13
f 36/22/2 37/21/2 39/23/2
f 41/24/1 35/27/1 34/16/1
f 37/21/14 35/27/14 41/24/14
f 29/2/1 41/24/1 40/17/1
f 28/4/2 2/4/2 38/15/2
f 32/2/15 40/17/15 38/15/15
f 28/4/16 39/23/16 41/24/16
f 4/10/4 44/12/4 43/12/4
