# Blender 4.4.0
# www.blender.org
mtllib Prop_Wooden_Chest_01.mtl
o Prop_Wooden_Chest_01
v 0.560603 -0.000000 0.332793
v -0.560603 -0.000000 0.332794
v 0.560603 0.388752 0.332793
v -0.560603 0.388752 0.332794
v -0.560603 -0.000000 0.306781
v 0.560603 -0.000000 -0.332794
v -0.560603 -0.000000 -0.332793
v 0.560603 0.388752 -0.332794
v -0.560603 0.388752 -0.332793
v -0.560603 -0.000000 -0.306780
v -0.560603 0.388752 -0.306780
v -0.560603 0.388752 0.306781
v -0.531224 -0.000000 0.306781
v 0.560603 -0.000000 -0.306781
v 0.560603 -0.000000 0.306780
v 0.560603 0.388752 -0.306781
v 0.560603 0.388752 0.306780
v 0.531224 -0.000000 -0.306781
v 0.531225 -0.000000 0.306780
v -0.531225 -0.000000 -0.306780
v 0.359418 0.395004 -0.329454
v 0.359418 0.395004 -0.339802
v 0.359418 0.386043 -0.344977
v 0.359418 0.377081 -0.339802
v 0.359418 0.377081 -0.329454
v 0.359418 0.386043 -0.324280
v 0.267909 0.395004 -0.329454
v 0.267909 0.395004 -0.339802
v 0.267909 0.386043 -0.344977
v 0.267909 0.377081 -0.339802
v 0.267909 0.377081 -0.329454
v 0.267909 0.386043 -0.324280
v -0.359419 0.395004 -0.329454
v -0.359419 0.395004 -0.339802
v -0.359419 0.386043 -0.344976
v -0.359419 0.377081 -0.339802
v -0.359419 0.377081 -0.329454
v -0.359419 0.386043 -0.324280
v -0.267909 0.395004 -0.329454
v -0.267909 0.395004 -0.339802
v -0.267909 0.386043 -0.344976
v -0.267909 0.377081 -0.339802
v -0.267909 0.377081 -0.329454
v -0.267909 0.386043 -0.324280
v -0.019308 0.318469 0.338472
v -0.036142 0.332250 0.338472
v 0.036143 0.332250 0.338472
v 0.019309 0.318469 0.338472
v 0.019309 0.318469 0.332794
v 0.036143 0.332250 0.332794
v -0.036142 0.332250 0.332794
v -0.019308 0.318469 0.332794
v 0.019309 0.359496 0.332794
v 0.036143 0.345714 0.332794
v -0.019308 0.359496 0.332794
v -0.036142 0.345714 0.332794
v 0.019309 0.359496 0.338472
v 0.036143 0.345714 0.338472
v -0.019308 0.359496 0.338472
v -0.036142 0.345714 0.338472
v 0.001500 0.357844 0.336975
v -0.001500 0.357844 0.336975
v -0.003000 0.355246 0.336975
v -0.001500 0.352648 0.336975
v 0.001500 0.352648 0.336975
v 0.003000 0.355246 0.336975
v 0.001500 0.357688 0.343876
v -0.001500 0.357688 0.343876
v -0.003000 0.355246 0.342989
v -0.001500 0.352804 0.342102
v 0.001500 0.352804 0.342102
v 0.003000 0.355246 0.342989
v 0.001500 0.352411 0.350302
v -0.001500 0.352411 0.350302
v -0.003000 0.350888 0.348197
v -0.001500 0.349365 0.346093
v 0.001500 0.349365 0.346093
v 0.003000 0.350888 0.348197
v 0.001500 0.343830 0.353756
v -0.001500 0.343830 0.353756
v -0.003000 0.343340 0.351204
v -0.001500 0.342851 0.348652
v 0.001500 0.342851 0.348652
v 0.003000 0.343340 0.351204
v 0.001500 0.334135 0.353756
v -0.001500 0.334135 0.353756
v -0.003000 0.334624 0.351204
v -0.001500 0.335114 0.348652
v 0.001500 0.335114 0.348652
v 0.003000 0.334624 0.351204
v 0.001500 0.325553 0.350302
v -0.001500 0.325553 0.350302
v -0.003000 0.327076 0.348197
v -0.001500 0.328600 0.346093
v 0.001500 0.328600 0.346093
v 0.003000 0.327076 0.348197
v 0.001500 0.320277 0.343876
v -0.001500 0.320277 0.343876
v -0.003000 0.322719 0.342989
v -0.001500 0.325161 0.342102
v 0.001500 0.325161 0.342102
v 0.003000 0.322719 0.342989
v 0.001500 0.320121 0.336975
v -0.001500 0.320121 0.336975
v -0.003000 0.322719 0.336975
v -0.001500 0.325317 0.336975
v 0.001500 0.325317 0.336975
v 0.003000 0.322719 0.336975
v 0.565445 0.388752 0.335655
v 0.565444 0.388752 -0.335680
v -0.565445 0.388752 -0.335680
v -0.565444 0.388752 0.335655
v 0.565445 0.388752 0.308881
v 0.565444 0.388752 -0.308907
v -0.565445 0.388752 -0.308907
v 0.565444 0.464898 -0.335680
v -0.565445 0.464898 -0.335680
v 0.565445 0.464898 0.335655
v -0.565444 0.388752 0.308882
v 0.525795 0.388752 -0.308907
v 0.525795 0.388752 0.308881
v -0.525795 0.388752 -0.308907
v -0.525795 0.388752 0.308882
v 0.565445 0.464898 0.308881
v 0.565444 0.464898 -0.308907
v -0.565445 0.464898 -0.308907
v -0.565444 0.464898 0.308882
v -0.565444 0.464898 0.335655
v -0.565444 0.460088 0.268070
v -0.565444 0.451306 0.268070
v -0.567266 0.451306 0.268070
v -0.567266 0.460088 0.268070
v -0.497859 0.460088 0.335655
v -0.497859 0.451306 0.335655
v -0.565444 0.460088 0.335655
v -0.565444 0.451306 0.335655
v -0.497859 0.460088 0.337477
v -0.567266 0.460088 0.337477
v -0.497859 0.451306 0.337477
v -0.567266 0.451306 0.337477
v -0.565444 0.404806 0.268070
v -0.565444 0.396023 0.268070
v -0.567266 0.396023 0.268070
v -0.567266 0.404806 0.268070
v -0.497859 0.404806 0.335655
v -0.497859 0.396023 0.335655
v -0.565444 0.404806 0.335655
v -0.565444 0.396023 0.335655
v -0.497859 0.404806 0.337477
v -0.567266 0.404806 0.337477
v -0.497859 0.396023 0.337477
v -0.567266 0.396023 0.337477
v 0.565445 0.460089 0.268070
v 0.565445 0.451306 0.268070
v 0.567267 0.451306 0.268070
v 0.567267 0.460089 0.268070
v 0.497860 0.460089 0.335655
v 0.497860 0.451306 0.335655
v 0.565445 0.460089 0.335655
v 0.565445 0.451306 0.335655
v 0.497860 0.460089 0.337477
v 0.567267 0.460089 0.337477
v 0.497860 0.451306 0.337477
v 0.567267 0.451306 0.337477
v 0.565445 0.404806 0.268070
v 0.565445 0.396023 0.268070
v 0.567267 0.396023 0.268070
v 0.567267 0.404806 0.268070
v 0.497860 0.404806 0.335655
v 0.497860 0.396023 0.335655
v 0.565445 0.404806 0.335655
v 0.565445 0.396023 0.335655
v 0.497860 0.404806 0.337477
v 0.567267 0.404806 0.337477
v 0.497860 0.396023 0.337477
v 0.567267 0.396023 0.337477
v -0.565444 0.460089 -0.268070
v -0.565444 0.451306 -0.268070
v -0.567267 0.451306 -0.268070
v -0.567267 0.460089 -0.268070
v -0.497859 0.460089 -0.335655
v -0.497859 0.451306 -0.335655
v -0.565444 0.460089 -0.335655
v -0.565444 0.451306 -0.335655
v -0.497859 0.460089 -0.337477
v -0.567267 0.460089 -0.337477
v -0.497859 0.451306 -0.337477
v -0.567267 0.451306 -0.337477
v -0.565444 0.404806 -0.268070
v -0.565444 0.396023 -0.268070
v -0.567267 0.396023 -0.268070
v -0.567267 0.404806 -0.268070
v -0.497859 0.404806 -0.335655
v -0.497859 0.396023 -0.335655
v -0.565444 0.404806 -0.335655
v -0.565444 0.396023 -0.335655
v -0.497859 0.404806 -0.337477
v -0.567267 0.404806 -0.337477
v -0.497859 0.396023 -0.337477
v -0.567267 0.396023 -0.337477
v 0.565444 0.460089 -0.268070
v 0.565444 0.451306 -0.268070
v 0.567267 0.451306 -0.268070
v 0.567267 0.460089 -0.268070
v 0.497859 0.460089 -0.335655
v 0.497859 0.451306 -0.335655
v 0.565444 0.460089 -0.335655
v 0.565444 0.451306 -0.335655
v 0.497859 0.460089 -0.337477
v 0.567267 0.460089 -0.337477
v 0.497859 0.451306 -0.337477
v 0.567267 0.451306 -0.337477
v 0.565444 0.404806 -0.268070
v 0.565444 0.396023 -0.268070
v 0.567267 0.396023 -0.268070
v 0.567267 0.404806 -0.268070
v 0.497859 0.404806 -0.335655
v 0.497859 0.396023 -0.335655
v 0.565444 0.404806 -0.335655
v 0.565444 0.396023 -0.335655
v 0.497859 0.404806 -0.337477
v 0.567267 0.404806 -0.337477
v 0.497859 0.396023 -0.337477
v 0.567267 0.396023 -0.337477
v 0.019611 0.394222 0.342003
v 0.019611 0.397167 0.342003
v 0.019611 0.399250 0.339920
v 0.019611 0.399250 0.336975
v 0.019611 0.397167 0.334893
v 0.019611 0.394222 0.334893
v 0.019611 0.392139 0.336975
v 0.019611 0.392139 0.339920
v -0.019611 0.394222 0.342003
v -0.019611 0.397167 0.342003
v -0.019611 0.399250 0.339920
v -0.019611 0.399250 0.336975
v -0.019611 0.397167 0.334893
v -0.019611 0.394222 0.334893
v -0.019611 0.392139 0.336975
v -0.019611 0.392139 0.339920
v 0.015244 0.319445 0.349540
v -0.015244 0.319445 0.349540
v 0.015803 0.359246 0.346726
v -0.015802 0.359246 0.346726
v 0.006235 0.301677 0.350796
v -0.006235 0.301677 0.350796
v 0.022117 0.371474 0.345861
v -0.022117 0.371474 0.345861
v 0.019503 0.392897 0.338511
v -0.019503 0.392897 0.338511
v 0.018166 0.395694 0.335655
v -0.018166 0.395694 0.335655
v 0.018166 0.413631 0.335655
v -0.018166 0.413631 0.335655
v 0.015803 0.359440 0.347921
v 0.015244 0.319639 0.350735
v -0.015244 0.319639 0.350735
v -0.015802 0.359440 0.347921
v 0.006235 0.301872 0.351991
v -0.006235 0.301872 0.351991
v -0.022117 0.371668 0.347056
v 0.022117 0.371668 0.347056
v -0.019503 0.393125 0.340189
v 0.019503 0.393125 0.340189
v -0.018166 0.395804 0.337592
v 0.018166 0.395804 0.337592
v -0.018166 0.413740 0.337592
v 0.018166 0.413740 0.337592
v -0.005352 0.359519 0.347915
v -0.005352 0.359434 0.346712
v -0.005163 0.319718 0.350729
v -0.005163 0.319633 0.349527
v 0.005352 0.359519 0.347915
v 0.005352 0.359434 0.346712
v 0.005163 0.319718 0.350729
v 0.005163 0.319633 0.349527
v -0.495879 0.327330 0.332794
v -0.560603 0.327330 0.332794
v -0.495879 0.357784 0.332794
v -0.560603 0.357784 0.332794
v -0.560603 0.327330 0.268070
v -0.560603 0.357784 0.268070
v -0.562227 0.065182 0.268070
v -0.562227 0.034728 0.268070
v -0.562227 0.065182 0.334418
v -0.562227 0.034728 0.334418
v -0.495879 0.034728 0.334418
v -0.495879 0.065182 0.334418
v -0.495879 0.034728 0.332794
v -0.560603 0.034728 0.332794
v -0.495879 0.065182 0.332794
v -0.560603 0.065182 0.332794
v -0.560603 0.034728 0.268070
v -0.560603 0.065182 0.268070
v -0.562227 0.357784 0.268070
v -0.562227 0.327330 0.268070
v -0.562227 0.357784 0.334418
v -0.562227 0.327330 0.334418
v -0.495879 0.327330 0.334418
v -0.495879 0.357784 0.334418
v 0.495879 0.327330 0.332794
v 0.560603 0.327330 0.332794
v 0.495879 0.357784 0.332794
v 0.560603 0.357784 0.332794
v 0.560603 0.327330 0.268070
v 0.560603 0.357784 0.268070
v 0.562227 0.065182 0.268070
v 0.562227 0.034728 0.268070
v 0.562227 0.065182 0.334418
v 0.562227 0.034728 0.334418
v 0.495879 0.034728 0.334418
v 0.495879 0.065182 0.334418
v 0.495879 0.034728 0.332794
v 0.560603 0.034728 0.332794
v 0.495879 0.065182 0.332794
v 0.560603 0.065182 0.332794
v 0.560603 0.034728 0.268070
v 0.560603 0.065182 0.268070
v 0.562227 0.357784 0.268070
v 0.562227 0.327330 0.268070
v 0.562227 0.357784 0.334418
v 0.562227 0.327330 0.334418
v 0.495879 0.327330 0.334418
v 0.495879 0.357784 0.334418
v -0.495879 0.327330 -0.332794
v -0.560603 0.327330 -0.332794
v -0.495879 0.357784 -0.332794
v -0.560603 0.357784 -0.332794
v -0.560603 0.327330 -0.268070
v -0.560603 0.357784 -0.268070
v -0.562227 0.065182 -0.268070
v -0.562227 0.034728 -0.268070
v -0.562227 0.065182 -0.334418
v -0.562227 0.034728 -0.334418
v -0.495879 0.034728 -0.334418
v -0.495879 0.065182 -0.334418
v -0.495879 0.034728 -0.332794
v -0.560603 0.034728 -0.332794
v -0.495879 0.065182 -0.332794
v -0.560603 0.065182 -0.332794
v -0.560603 0.034728 -0.268070
v -0.560603 0.065182 -0.268070
v -0.562227 0.357784 -0.268070
v -0.562227 0.327330 -0.268070
v -0.562227 0.357784 -0.334418
v -0.562227 0.327330 -0.334418
v -0.495879 0.327330 -0.334418
v -0.495879 0.357784 -0.334418
v 0.495879 0.327330 -0.332794
v 0.560603 0.327330 -0.332794
v 0.495879 0.357784 -0.332794
v 0.560603 0.357784 -0.332794
v 0.560603 0.327330 -0.268070
v 0.560603 0.357784 -0.268070
v 0.562227 0.065182 -0.268070
v 0.562227 0.034728 -0.268070
v 0.562227 0.065182 -0.334418
v 0.562227 0.034728 -0.334418
v 0.495879 0.034728 -0.334418
v 0.495879 0.065182 -0.334418
v 0.495879 0.034728 -0.332794
v 0.560603 0.034728 -0.332794
v 0.495879 0.065182 -0.332794
v 0.560603 0.065182 -0.332794
v 0.560603 0.034728 -0.268070
v 0.560603 0.065182 -0.268070
v 0.562227 0.357784 -0.268070
v 0.562227 0.327330 -0.268070
v 0.562227 0.357784 -0.334418
v 0.562227 0.327330 -0.334418
v 0.495879 0.327330 -0.334418
v 0.495879 0.357784 -0.334418
vn -0.0000 -0.0000 1.0000
vn -0.0000 -1.0000 -0.0000
vn -1.0000 -0.0000 -0.0000
vn 1.0000 -0.0000 -0.0000
vn -0.0000 -0.0000 -1.0000
vn -0.0000 1.0000 -0.0000
vn -0.0000 0.5000 -0.8660
vn -0.0000 -0.5000 -0.8660
vn 0.6335 0.7738 -0.0000
vn -0.6335 0.7738 -0.0000
vn -0.6335 -0.7738 -0.0000
vn 0.6335 -0.7738 -0.0000
vn 0.8660 0.5000 -0.0000
vn -0.0000 0.9997 0.0226
vn -0.8660 0.5000 -0.0000
vn -0.8659 -0.4999 0.0152
vn -0.0000 -0.9995 0.0304
vn 0.8659 -0.4999 0.0152
vn 0.8529 0.4035 0.3314
vn -0.0000 0.7728 0.6346
vn -0.8529 0.4035 0.3313
vn -0.8521 -0.4014 -0.3359
vn -0.0000 -0.7575 -0.6529
vn 0.8521 -0.4014 -0.3359
vn 0.8594 0.1909 0.4743
vn -0.0000 0.3734 0.9277
vn -0.8594 0.1909 0.4743
vn -0.8592 -0.1893 -0.4753
vn -0.0000 -0.3657 -0.9307
vn 0.8592 -0.1893 -0.4753
vn 0.8621 -0.0000 0.5068
vn -0.8621 -0.0000 0.5068
vn -0.8621 -0.0000 -0.5068
vn 0.8621 -0.0000 -0.5068
vn 0.8621 -0.1876 0.4708
vn -0.0000 -0.3734 0.9277
vn -0.8621 -0.1876 0.4708
vn -0.8623 0.1852 -0.4714
vn -0.0000 0.3657 -0.9307
vn 0.8623 0.1852 -0.4714
vn 0.8592 -0.3924 0.3283
vn -0.0000 -0.7728 0.6346
vn -0.8592 -0.3924 0.3283
vn -0.8600 0.3865 -0.3331
vn -0.0000 0.7575 -0.6529
vn 0.8600 0.3865 -0.3331
vn 0.8539 -0.5203 0.0118
vn -0.0000 -0.9997 0.0226
vn -0.8539 -0.5203 0.0118
vn -0.8521 0.5234 -0.0000
vn -0.0000 0.9995 0.0304
vn 0.8521 0.5234 -0.0000
vn -0.0000 -0.7071 0.7071
vn -0.0000 -0.7071 -0.7071
vn -0.0000 0.7071 -0.7071
vn -0.0000 0.7071 0.7071
vn -0.0000 -0.0703 -0.9975
vn -0.0000 -0.0705 -0.9975
vn -0.0000 -0.3245 -0.9459
vn -0.0000 -0.7144 -0.6997
vn -0.0000 0.0704 0.9975
vn -0.0000 0.0705 0.9975
vn -0.0000 0.3048 0.9524
vn -0.0000 0.6961 0.7180
vn 0.8916 -0.4470 0.0727
vn 0.9136 0.4029 -0.0549
vn 0.9999 -0.0139 0.0023
vn -0.9110 0.4117 -0.0233
vn 0.8882 -0.4535 0.0737
vn -0.0000 0.9984 -0.0565
vn -0.8882 -0.4535 0.0738
vn -0.9999 -0.0139 0.0023
vn 0.9932 0.1150 -0.0187
vn -0.0000 -0.9870 0.1606
vn -0.9932 0.1158 -0.0158
vn -0.8916 -0.4469 0.0727
vn 1.0000 0.0047 -0.0003
vn -0.0000 -0.9975 0.0705
vn -0.0000 0.9975 -0.0706
vn -1.0000 0.0047 -0.0003
vn 0.8539 0.5203 0.0118
vn -0.8539 0.5203 0.0118
vn -0.8521 -0.5234 -0.0000
vn 0.8521 -0.5234 -0.0000
vn 0.8592 0.3924 0.3283
vn -0.8592 0.3924 0.3283
vn -0.8600 -0.3865 -0.3331
vn 0.8600 -0.3865 -0.3331
vn 0.8621 0.1876 0.4708
vn -0.8621 0.1875 0.4708
vn -0.8623 -0.1852 -0.4714
vn 0.8623 -0.1852 -0.4714
vn 0.8594 -0.1909 0.4743
vn -0.8594 -0.1909 0.4743
vn -0.8592 0.1894 -0.4753
vn -0.0000 0.3658 -0.9307
vn 0.8592 0.1893 -0.4753
vn 0.8529 -0.4035 0.3313
vn -0.8529 -0.4035 0.3313
vn -0.8521 0.4014 -0.3359
vn 0.8521 0.4014 -0.3359
vn 0.8660 -0.5000 -0.0000
vn -0.8660 -0.5000 -0.0000
vn -0.8659 0.4999 0.0152
vn 0.8659 0.4999 0.0152
vn -0.0000 -0.0702 -0.9975
vn 0.8916 -0.4469 0.0727
vn 0.9110 0.4117 -0.0233
vn -0.9136 0.4029 -0.0549
vn 0.8882 -0.4535 0.0738
vn -0.8882 -0.4535 0.0737
vn 0.9932 0.1158 -0.0158
vn -0.9932 0.1150 -0.0187
vn -0.8916 -0.4470 0.0727
vn -0.0000 -0.9975 0.0706
vn -0.0000 0.9975 -0.0705
vt 0.574988 0.858302
vt 0.576259 0.901992
vt 0.576259 0.858302
vt 0.574988 0.901992
vt 0.576225 0.858302
vt 0.575022 0.858302
vt 0.575216 0.773373
vt 0.575320 0.773373
vt 0.575216 0.748624
vt 0.575320 0.748624
vt 0.575320 0.760998
vt 0.575216 0.760998
vt 0.575927 0.773373
vt 0.576031 0.773373
vt 0.576031 0.748624
vt 0.575927 0.748624
vt 0.576031 0.760998
vt 0.575927 0.760998
vt 0.454695 0.652524
vt 0.457228 0.652524
vt 0.454695 0.684931
vt 0.457228 0.684931
vt 0.453591 0.663410
vt 0.453591 0.674045
vt 0.458333 0.674045
vt 0.458333 0.663410
vt 0.456060 0.683626
vt 0.456159 0.681574
vt 0.455864 0.683503
vt 0.455864 0.683626
vt 0.455765 0.681574
vt 0.455864 0.679645
vt 0.455864 0.679522
vt 0.456060 0.679522
vt 0.456060 0.679645
vt 0.456060 0.679335
vt 0.456060 0.683503
vt 0.455864 0.679335
vt 0.455765 0.678132
vt 0.455864 0.676928
vt 0.456159 0.678132
vt 0.456060 0.672556
vt 0.455864 0.672556
vt 0.455765 0.672170
vt 0.456060 0.676928
vt 0.455864 0.671783
vt 0.456159 0.672170
vt 0.456159 0.665285
vt 0.456060 0.664898
vt 0.455765 0.665285
vt 0.456060 0.665672
vt 0.456060 0.671783
vt 0.456159 0.659323
vt 0.455864 0.664898
vt 0.456060 0.658119
vt 0.455765 0.659323
vt 0.455864 0.660526
vt 0.455864 0.665672
vt 0.456060 0.660526
vt 0.456159 0.655881
vt 0.455864 0.658119
vt 0.456060 0.653952
vt 0.455765 0.655881
vt 0.455864 0.657809
vt 0.456060 0.657809
vt 0.456060 0.653828
vt 0.455864 0.653952
vt 0.455864 0.653828
vt 0.456060 0.657933
vt 0.585637 0.938996
vt 0.584355 0.947553
vt 0.584355 0.938996
vt 0.585637 0.947553
vt 0.584400 0.938996
vt 0.585592 0.938996
vt 0.447785 0.720216
vt 0.447785 0.694529
vt 0.448305 0.720216
vt 0.448305 0.694529
vt 0.447798 0.720216
vt 0.447798 0.694529
vt 0.447785 0.724529
vt 0.447785 0.698841
vt 0.448305 0.724529
vt 0.448305 0.698841
vt 0.447798 0.724529
vt 0.447798 0.698841
vt 0.448309 0.694529
vt 0.448309 0.720216
vt 0.447789 0.720216
vt 0.447789 0.694529
vt 0.448296 0.720216
vt 0.448296 0.694529
vt 0.448309 0.698841
vt 0.448309 0.724528
vt 0.447789 0.724528
vt 0.447789 0.698841
vt 0.448296 0.724528
vt 0.448296 0.698841
vt 0.457248 0.712362
vt 0.454676 0.710717
vt 0.457248 0.710717
vt 0.454676 0.712362
vt 0.457248 0.714688
vt 0.454676 0.716333
vt 0.457248 0.716333
vt 0.454676 0.714688
vt 0.455623 0.653443
vt 0.456301 0.653443
vt 0.456962 0.653294
vt 0.455553 0.639260
vt 0.454962 0.653294
vt 0.455611 0.684882
vt 0.454511 0.694393
vt 0.457413 0.694393
vt 0.457241 0.711315
vt 0.454683 0.711315
vt 0.457153 0.713525
vt 0.456962 0.653448
vt 0.455623 0.653510
vt 0.454962 0.653448
vt 0.455553 0.639413
vt 0.455611 0.684949
vt 0.456313 0.684949
vt 0.457413 0.694546
vt 0.457241 0.711495
vt 0.454511 0.694546
vt 0.457153 0.713611
vt 0.454683 0.711495
vt 0.454770 0.727779
vt 0.454770 0.713611
vt 0.456371 0.639413
vt 0.456371 0.639260
vt 0.456998 0.684734
vt 0.454770 0.713525
vt 0.456998 0.684887
vt 0.454770 0.727693
vt 0.457153 0.727779
vt 0.457153 0.727693
vt 0.454925 0.684887
vt 0.454925 0.684734
vt 0.456301 0.653510
vt 0.445373 0.726131
vt 0.445395 0.726131
vt 0.445395 0.696594
vt 0.445373 0.696594
vt 0.445395 0.695328
vt 0.445373 0.695328
vt 0.446258 0.696594
vt 0.446258 0.695328
vt 0.445395 0.727397
vt 0.446258 0.727397
vt 0.446258 0.726131
vt 0.445373 0.727397
vt 0.455864 0.657933
vt 0.456313 0.684882
s 0
usemtl Texture_Map
f 1/1/1 4/2/1 2/3/1
f 5/3/2 1/1/2 2/3/2
f 12/2/3 2/3/3 4/2/3
f 15/1/4 3/4/4 1/1/4
f 9/2/5 6/1/5 7/3/5
f 7/3/2 14/1/2 10/3/2
f 7/3/3 11/2/3 9/2/3
f 8/4/4 14/1/4 6/1/4
f 5/3/3 11/2/3 10/3/3
f 20/5/2 5/3/2 10/3/2
f 16/4/4 15/1/4 14/1/4
f 14/1/2 19/6/2 18/6/2
f 18/6/2 13/5/2 20/5/2
f 21/7/6 28/8/6 27/8/6
f 25/9/2 30/10/2 24/9/2
f 22/7/7 29/11/7 28/8/7
f 24/9/8 29/11/8 23/12/8
f 25/9/4 24/9/4 23/12/4
f 31/10/3 32/11/3 27/8/3
f 39/13/6 34/14/6 33/14/6
f 36/15/2 43/16/2 37/15/2
f 40/13/7 35/17/7 34/14/7
f 35/17/8 42/16/8 36/15/8
f 37/15/3 38/17/3 33/14/3
f 43/16/4 42/16/4 41/18/4
f 45/19/1 48/20/1 59/21/1
f 59/21/6 53/22/6 55/21/6
f 46/23/3 56/24/3 51/23/3
f 49/20/2 45/19/2 52/19/2
f 58/25/4 50/26/4 54/25/4
f 57/22/9 54/25/9 53/22/9
f 60/24/10 55/21/10 56/24/10
f 52/19/11 46/23/11 51/23/11
f 50/26/12 48/20/12 49/20/12
f 61/27/13 72/28/13 66/28/13
f 68/29/14 61/27/14 62/30/14
f 69/31/15 62/30/15 63/31/15
f 70/32/16 63/31/16 64/33/16
f 65/34/17 70/32/17 64/33/17
f 66/28/18 71/35/18 65/34/18
f 73/36/19 72/28/19 67/37/19
f 74/38/20 67/37/20 68/29/20
f 69/31/21 74/38/21 68/29/21
f 70/32/22 75/39/22 69/31/22
f 71/35/23 76/40/23 70/32/23
f 78/41/24 71/35/24 72/28/24
f 79/42/25 78/41/25 73/36/25
f 80/43/26 73/36/26 74/38/26
f 75/39/27 80/43/27 74/38/27
f 76/40/28 81/44/28 75/39/28
f 77/45/29 82/46/29 76/40/29
f 84/47/30 77/45/30 78/41/30
f 79/42/31 90/48/31 84/47/31
f 80/43/1 85/49/1 79/42/1
f 87/50/32 80/43/32 81/44/32
f 82/46/33 87/50/33 81/44/33
f 89/51/5 82/46/5 83/52/5
f 90/48/34 83/52/34 84/47/34
f 85/49/35 96/53/35 90/48/35
f 86/54/36 91/55/36 85/49/36
f 93/56/37 86/54/37 87/50/37
f 94/57/38 87/50/38 88/58/38
f 89/51/39 94/57/39 88/58/39
f 90/48/40 95/59/40 89/51/40
f 91/55/41 102/60/41 96/53/41
f 92/61/42 97/62/42 91/55/42
f 99/63/43 92/61/43 93/56/43
f 100/64/44 93/56/44 94/57/44
f 95/59/45 100/64/45 94/57/45
f 96/53/46 101/65/46 95/59/46
f 103/66/47 102/60/47 97/62/47
f 98/67/48 103/66/48 97/62/48
f 99/63/49 104/68/49 98/67/49
f 100/64/50 105/63/50 99/63/50
f 107/69/51 100/64/51 101/65/51
f 108/60/52 101/65/52 102/60/52
f 111/70/5 116/71/5 110/72/5
f 112/70/3 127/73/3 119/70/3
f 109/72/1 128/73/1 112/70/1
f 113/72/4 118/71/4 109/72/4
f 115/70/3 117/73/3 111/70/3
f 114/72/2 111/70/2 110/72/2
f 112/70/2 113/72/2 109/72/2
f 110/72/4 125/71/4 114/72/4
f 114/72/2 121/74/2 120/74/2
f 122/75/2 119/70/2 115/70/2
f 119/70/3 126/73/3 115/70/3
f 114/72/4 124/71/4 113/72/4
f 116/71/6 128/73/6 118/71/6
f 131/76/3 138/77/3 132/77/3
f 138/77/1 139/78/1 137/79/1
f 130/80/5 132/77/5 129/81/5
f 135/81/6 132/77/6 138/77/6
f 136/80/2 139/78/2 140/76/2
f 135/81/6 137/79/6 133/79/6
f 136/80/2 131/76/2 130/80/2
f 133/79/4 139/78/4 134/78/4
f 143/82/3 150/83/3 144/83/3
f 150/83/1 151/84/1 149/85/1
f 142/86/5 144/83/5 141/87/5
f 147/87/6 144/83/6 150/83/6
f 148/86/2 151/84/2 152/82/2
f 147/87/6 149/85/6 145/85/6
f 148/86/2 143/82/2 142/86/2
f 145/85/4 151/84/4 146/84/4
f 162/88/4 155/89/4 156/88/4
f 163/90/1 162/88/1 161/91/1
f 156/88/5 154/92/5 153/93/5
f 159/93/6 156/88/6 153/93/6
f 160/92/2 163/90/2 158/90/2
f 161/91/6 159/93/6 157/91/6
f 155/89/2 160/92/2 154/92/2
f 163/90/3 157/91/3 158/90/3
f 174/94/4 167/95/4 168/94/4
f 175/96/1 174/94/1 173/97/1
f 168/94/5 166/98/5 165/99/5
f 171/99/6 168/94/6 165/99/6
f 172/98/2 175/96/2 170/96/2
f 173/97/6 171/99/6 169/97/6
f 167/95/2 172/98/2 166/98/2
f 175/96/3 169/97/3 170/96/3
f 186/77/3 179/76/3 180/77/3
f 187/78/5 186/77/5 185/79/5
f 180/77/1 178/80/1 177/81/1
f 183/81/6 180/77/6 177/81/6
f 184/80/2 187/78/2 182/78/2
f 185/79/6 183/81/6 181/79/6
f 179/76/2 184/80/2 178/80/2
f 187/78/4 181/79/4 182/78/4
f 198/83/3 191/82/3 192/83/3
f 199/84/5 198/83/5 197/85/5
f 192/83/1 190/86/1 189/87/1
f 195/87/6 192/83/6 189/87/6
f 196/86/2 199/84/2 194/84/2
f 197/85/6 195/87/6 193/85/6
f 191/82/2 196/86/2 190/86/2
f 199/84/4 193/85/4 194/84/4
f 203/89/4 210/88/4 204/88/4
f 210/88/5 211/90/5 209/91/5
f 202/92/1 204/88/1 201/93/1
f 207/93/6 204/88/6 210/88/6
f 208/92/2 211/90/2 212/89/2
f 207/93/6 209/91/6 205/91/6
f 208/92/2 203/89/2 202/92/2
f 205/91/3 211/90/3 206/90/3
f 215/95/4 222/94/4 216/94/4
f 222/94/5 223/96/5 221/97/5
f 214/98/1 216/94/1 213/99/1
f 219/99/6 216/94/6 222/94/6
f 220/98/2 223/96/2 224/95/2
f 219/99/6 221/97/6 217/97/6
f 220/98/2 215/95/2 214/98/2
f 217/97/3 223/96/3 218/96/3
f 225/100/53 240/101/53 232/102/53
f 231/102/54 238/103/54 230/100/54
f 229/104/55 236/105/55 228/106/55
f 227/106/56 234/107/56 226/104/56
f 232/102/2 239/101/2 231/102/2
f 228/106/6 235/105/6 227/106/6
f 226/104/1 233/103/1 225/100/1
f 225/100/4 231/102/4 229/104/4
f 239/101/3 240/101/3 233/103/3
f 272/108/57 276/109/57 241/110/57
f 241/110/58 246/111/58 242/112/58
f 270/113/58 248/114/58 247/115/58
f 248/114/59 249/116/59 247/115/59
f 250/117/60 251/118/60 249/116/60
f 256/119/61 271/120/61 257/121/61
f 260/122/62 256/119/62 257/121/62
f 269/123/62 273/124/62 262/125/62
f 264/126/63 261/127/63 262/125/63
f 266/128/64 263/129/64 264/126/64
f 266/128/1 267/130/1 265/131/1
f 241/110/65 259/132/65 245/133/65
f 249/116/66 266/128/66 264/126/66
f 243/134/67 256/119/67 241/110/67
f 250/117/68 265/131/68 252/135/68
f 247/115/69 255/136/69 243/134/69
f 254/137/70 268/138/70 253/139/70
f 248/114/71 258/140/71 261/127/71
f 244/141/72 257/121/72 258/140/72
f 254/137/3 265/131/3 267/130/3
f 253/139/4 266/128/4 251/118/4
f 247/115/73 264/126/73 262/125/73
f 245/133/74 260/122/74 246/111/74
f 248/114/75 263/129/75 250/117/75
f 242/112/76 260/122/76 257/121/76
f 272/108/77 269/123/77 271/120/77
f 270/113/78 273/124/78 269/123/78
f 276/109/79 271/120/79 275/142/79
f 273/124/80 276/109/80 275/142/80
f 283/143/6 292/144/6 294/144/6
f 278/145/2 296/146/2 281/145/2
f 290/147/2 284/148/2 293/147/2
f 299/149/2 278/145/2 277/149/2
f 287/150/2 290/147/2 289/150/2
f 296/146/5 282/151/5 281/145/5
f 284/148/5 294/144/5 293/147/5
f 300/152/4 277/149/4 279/152/4
f 288/153/4 289/150/4 291/153/4
f 280/151/6 300/152/6 279/152/6
f 292/144/6 288/153/6 291/153/6
f 295/154/6 280/151/6 282/151/6
f 286/148/3 283/143/3 284/148/3
f 288/153/1 286/148/1 287/150/1
f 298/146/3 295/154/3 296/146/3
f 300/152/1 298/146/1 299/149/1
f 316/144/6 307/143/6 318/144/6
f 302/145/2 320/146/2 322/146/2
f 314/147/2 308/148/2 310/148/2
f 302/145/2 323/149/2 301/149/2
f 314/147/2 311/150/2 313/150/2
f 306/151/5 320/146/5 305/145/5
f 318/144/5 308/148/5 317/147/5
f 301/149/3 324/152/3 303/152/3
f 313/150/3 312/153/3 315/153/3
f 304/151/6 324/152/6 321/154/6
f 316/144/6 312/153/6 309/143/6
f 304/151/6 319/154/6 306/151/6
f 307/143/4 310/148/4 308/148/4
f 310/148/1 312/153/1 311/150/1
f 319/154/4 322/146/4 320/146/4
f 322/146/1 324/152/1 323/149/1
f 340/144/6 331/143/6 342/144/6
f 326/145/2 344/146/2 346/146/2
f 338/147/2 332/148/2 334/148/2
f 326/145/2 347/149/2 325/149/2
f 338/147/2 335/150/2 337/150/2
f 330/151/1 344/146/1 329/145/1
f 342/144/1 332/148/1 341/147/1
f 325/149/4 348/152/4 327/152/4
f 337/150/4 336/153/4 339/153/4
f 328/151/6 348/152/6 345/154/6
f 340/144/6 336/153/6 333/143/6
f 328/151/6 343/154/6 330/151/6
f 331/143/3 334/148/3 332/148/3
f 334/148/5 336/153/5 335/150/5
f 343/154/3 346/146/3 344/146/3
f 346/146/5 348/152/5 347/149/5
f 355/143/6 364/144/6 366/144/6
f 350/145/2 368/146/2 353/145/2
f 362/147/2 356/148/2 365/147/2
f 371/149/2 350/145/2 349/149/2
f 359/150/2 362/147/2 361/150/2
f 368/146/1 354/151/1 353/145/1
f 356/148/1 366/144/1 365/147/1
f 372/152/3 349/149/3 351/152/3
f 360/153/3 361/150/3 363/153/3
f 352/151/6 372/152/6 351/152/6
f 364/144/6 360/153/6 363/153/6
f 367/154/6 352/151/6 354/151/6
f 358/148/4 355/143/4 356/148/4
f 360/153/5 358/148/5 359/150/5
f 370/146/4 367/154/4 368/146/4
f 372/152/5 370/146/5 371/149/5
f 1/1/1 3/4/1 4/2/1
f 5/3/2 15/1/2 1/1/2
f 12/2/3 5/3/3 2/3/3
f 15/1/4 17/4/4 3/4/4
f 9/2/5 8/4/5 6/1/5
f 7/3/2 6/1/2 14/1/2
f 7/3/3 10/3/3 11/2/3
f 8/4/4 16/4/4 14/1/4
f 5/3/3 12/2/3 11/2/3
f 20/5/2 13/5/2 5/3/2
f 16/4/4 17/4/4 15/1/4
f 14/1/2 15/1/2 19/6/2
f 18/6/2 19/6/2 13/5/2
f 21/7/6 22/7/6 28/8/6
f 25/9/2 31/10/2 30/10/2
f 22/7/7 23/12/7 29/11/7
f 24/9/8 30/10/8 29/11/8
f 23/12/4 22/7/4 25/9/4
f 22/7/4 21/7/4 25/9/4
f 21/7/4 26/12/4 25/9/4
f 27/8/3 28/8/3 29/11/3
f 29/11/3 30/10/3 27/8/3
f 30/10/3 31/10/3 27/8/3
f 39/13/6 40/13/6 34/14/6
f 36/15/2 42/16/2 43/16/2
f 40/13/7 41/18/7 35/17/7
f 35/17/8 41/18/8 42/16/8
f 33/14/3 34/14/3 35/17/3
f 35/17/3 36/15/3 33/14/3
f 36/15/3 37/15/3 33/14/3
f 41/18/4 40/13/4 43/16/4
f 40/13/4 39/13/4 43/16/4
f 39/13/4 44/18/4 43/16/4
f 48/20/1 47/26/1 58/25/1
f 58/25/1 57/22/1 48/20/1
f 57/22/1 59/21/1 48/20/1
f 59/21/1 60/24/1 46/23/1
f 46/23/1 45/19/1 59/21/1
f 59/21/6 57/22/6 53/22/6
f 46/23/3 60/24/3 56/24/3
f 49/20/2 48/20/2 45/19/2
f 58/25/4 47/26/4 50/26/4
f 57/22/9 58/25/9 54/25/9
f 60/24/10 59/21/10 55/21/10
f 52/19/11 45/19/11 46/23/11
f 50/26/12 47/26/12 48/20/12
f 61/27/81 67/37/81 72/28/81
f 68/29/14 67/37/14 61/27/14
f 69/31/82 68/29/82 62/30/82
f 70/32/83 69/31/83 63/31/83
f 65/34/17 71/35/17 70/32/17
f 66/28/84 72/28/84 71/35/84
f 73/36/85 78/41/85 72/28/85
f 74/38/20 73/36/20 67/37/20
f 69/31/86 75/39/86 74/38/86
f 70/32/87 76/40/87 75/39/87
f 71/35/23 77/45/23 76/40/23
f 78/41/88 77/45/88 71/35/88
f 79/42/89 84/47/89 78/41/89
f 80/43/26 79/42/26 73/36/26
f 75/39/90 81/44/90 80/43/90
f 76/40/91 82/46/91 81/44/91
f 77/45/29 83/52/29 82/46/29
f 84/47/92 83/52/92 77/45/92
f 79/42/31 85/49/31 90/48/31
f 80/43/1 86/54/1 85/49/1
f 87/50/32 86/54/32 80/43/32
f 82/46/33 88/58/33 87/50/33
f 89/51/5 88/58/5 82/46/5
f 90/48/34 89/51/34 83/52/34
f 85/49/93 91/55/93 96/53/93
f 86/54/36 92/61/36 91/55/36
f 93/56/94 92/61/94 86/54/94
f 94/57/95 93/56/95 87/50/95
f 89/51/96 95/59/96 94/57/96
f 90/48/97 96/53/97 95/59/97
f 91/55/98 97/62/98 102/60/98
f 92/61/42 98/67/42 97/62/42
f 99/63/99 98/67/99 92/61/99
f 100/64/100 99/63/100 93/56/100
f 95/59/45 101/65/45 100/64/45
f 96/53/101 102/60/101 101/65/101
f 103/66/102 108/60/102 102/60/102
f 98/67/48 104/68/48 103/66/48
f 99/63/103 105/63/103 104/68/103
f 100/64/104 106/155/104 105/63/104
f 107/69/51 106/155/51 100/64/51
f 108/60/105 107/69/105 101/65/105
f 111/70/5 117/73/5 116/71/5
f 112/70/3 128/73/3 127/73/3
f 109/72/1 118/71/1 128/73/1
f 113/72/4 124/71/4 118/71/4
f 115/70/3 126/73/3 117/73/3
f 114/72/2 115/70/2 111/70/2
f 112/70/2 119/70/2 113/72/2
f 110/72/4 116/71/4 125/71/4
f 114/72/2 113/72/2 121/74/2
f 122/75/2 123/75/2 119/70/2
f 119/70/3 127/73/3 126/73/3
f 114/72/4 125/71/4 124/71/4
f 116/71/6 117/73/6 128/73/6
f 131/76/3 140/76/3 138/77/3
f 138/77/1 140/76/1 139/78/1
f 130/80/5 131/76/5 132/77/5
f 135/81/6 129/81/6 132/77/6
f 136/80/2 134/78/2 139/78/2
f 135/81/6 138/77/6 137/79/6
f 136/80/2 140/76/2 131/76/2
f 133/79/4 137/79/4 139/78/4
f 143/82/3 152/82/3 150/83/3
f 150/83/1 152/82/1 151/84/1
f 142/86/5 143/82/5 144/83/5
f 147/87/6 141/87/6 144/83/6
f 148/86/2 146/84/2 151/84/2
f 147/87/6 150/83/6 149/85/6
f 148/86/2 152/82/2 143/82/2
f 145/85/4 149/85/4 151/84/4
f 162/88/4 164/89/4 155/89/4
f 163/90/1 164/89/1 162/88/1
f 156/88/5 155/89/5 154/92/5
f 159/93/6 162/88/6 156/88/6
f 160/92/2 164/89/2 163/90/2
f 161/91/6 162/88/6 159/93/6
f 155/89/2 164/89/2 160/92/2
f 163/90/3 161/91/3 157/91/3
f 174/94/4 176/95/4 167/95/4
f 175/96/1 176/95/1 174/94/1
f 168/94/5 167/95/5 166/98/5
f 171/99/6 174/94/6 168/94/6
f 172/98/2 176/95/2 175/96/2
f 173/97/6 174/94/6 171/99/6
f 167/95/2 176/95/2 172/98/2
f 175/96/3 173/97/3 169/97/3
f 186/77/3 188/76/3 179/76/3
f 187/78/5 188/76/5 186/77/5
f 180/77/1 179/76/1 178/80/1
f 183/81/6 186/77/6 180/77/6
f 184/80/2 188/76/2 187/78/2
f 185/79/6 186/77/6 183/81/6
f 179/76/2 188/76/2 184/80/2
f 187/78/4 185/79/4 181/79/4
f 198/83/3 200/82/3 191/82/3
f 199/84/5 200/82/5 198/83/5
f 192/83/1 191/82/1 190/86/1
f 195/87/6 198/83/6 192/83/6
f 196/86/2 200/82/2 199/84/2
f 197/85/6 198/83/6 195/87/6
f 191/82/2 200/82/2 196/86/2
f 199/84/4 197/85/4 193/85/4
f 203/89/4 212/89/4 210/88/4
f 210/88/5 212/89/5 211/90/5
f 202/92/1 203/89/1 204/88/1
f 207/93/6 201/93/6 204/88/6
f 208/92/2 206/90/2 211/90/2
f 207/93/6 210/88/6 209/91/6
f 208/92/2 212/89/2 203/89/2
f 205/91/3 209/91/3 211/90/3
f 215/95/4 224/95/4 222/94/4
f 222/94/5 224/95/5 223/96/5
f 214/98/1 215/95/1 216/94/1
f 219/99/6 213/99/6 216/94/6
f 220/98/2 218/96/2 223/96/2
f 219/99/6 222/94/6 221/97/6
f 220/98/2 224/95/2 215/95/2
f 217/97/3 221/97/3 223/96/3
f 225/100/53 233/103/53 240/101/53
f 231/102/54 239/101/54 238/103/54
f 229/104/55 237/107/55 236/105/55
f 227/106/56 235/105/56 234/107/56
f 232/102/2 240/101/2 239/101/2
f 228/106/6 236/105/6 235/105/6
f 226/104/1 234/107/1 233/103/1
f 227/106/4 226/104/4 225/100/4
f 225/100/4 232/102/4 231/102/4
f 231/102/4 230/100/4 229/104/4
f 229/104/4 228/106/4 227/106/4
f 227/106/4 225/100/4 229/104/4
f 233/103/3 234/107/3 237/107/3
f 234/107/3 235/105/3 237/107/3
f 235/105/3 236/105/3 237/107/3
f 237/107/3 238/103/3 233/103/3
f 238/103/3 239/101/3 233/103/3
f 242/112/58 244/141/58 272/108/58
f 244/141/58 270/113/58 272/108/58
f 274/156/58 243/134/58 276/109/58
f 243/134/58 241/110/58 276/109/58
f 242/112/106 272/108/106 241/110/106
f 241/110/58 245/133/58 246/111/58
f 247/115/58 243/134/58 274/156/58
f 270/113/58 244/141/58 248/114/58
f 247/115/58 274/156/58 270/113/58
f 248/114/59 250/117/59 249/116/59
f 250/117/60 252/135/60 251/118/60
f 256/119/62 255/136/62 273/124/62
f 256/119/62 273/124/62 275/142/62
f 269/123/62 258/140/62 257/121/62
f 256/119/61 275/142/61 271/120/61
f 271/120/62 269/123/62 257/121/62
f 260/122/62 259/132/62 256/119/62
f 273/124/62 255/136/62 262/125/62
f 262/125/62 261/127/62 269/123/62
f 261/127/62 258/140/62 269/123/62
f 264/126/63 263/129/63 261/127/63
f 266/128/64 265/131/64 263/129/64
f 266/128/1 268/138/1 267/130/1
f 241/110/107 256/119/107 259/132/107
f 249/116/108 251/118/108 266/128/108
f 243/134/67 255/136/67 256/119/67
f 250/117/109 263/129/109 265/131/109
f 247/115/110 262/125/110 255/136/110
f 254/137/70 267/130/70 268/138/70
f 248/114/111 244/141/111 258/140/111
f 244/141/72 242/112/72 257/121/72
f 254/137/3 252/135/3 265/131/3
f 253/139/4 268/138/4 266/128/4
f 247/115/112 249/116/112 264/126/112
f 245/133/74 259/132/74 260/122/74
f 248/114/113 261/127/113 263/129/113
f 242/112/114 246/111/114 260/122/114
f 272/108/77 270/113/77 269/123/77
f 270/113/115 274/156/115 273/124/115
f 276/109/116 272/108/116 271/120/116
f 273/124/80 274/156/80 276/109/80
f 283/143/6 285/143/6 292/144/6
f 278/145/2 298/146/2 296/146/2
f 290/147/2 286/148/2 284/148/2
f 299/149/2 298/146/2 278/145/2
f 287/150/2 286/148/2 290/147/2
f 296/146/5 295/154/5 282/151/5
f 284/148/5 283/143/5 294/144/5
f 300/152/4 299/149/4 277/149/4
f 288/153/4 287/150/4 289/150/4
f 280/151/6 297/154/6 300/152/6
f 292/144/6 285/143/6 288/153/6
f 295/154/6 297/154/6 280/151/6
f 286/148/3 285/143/3 283/143/3
f 288/153/1 285/143/1 286/148/1
f 298/146/3 297/154/3 295/154/3
f 300/152/1 297/154/1 298/146/1
f 316/144/6 309/143/6 307/143/6
f 302/145/2 305/145/2 320/146/2
f 314/147/2 317/147/2 308/148/2
f 302/145/2 322/146/2 323/149/2
f 314/147/2 310/148/2 311/150/2
f 306/151/5 319/154/5 320/146/5
f 318/144/5 307/143/5 308/148/5
f 301/149/3 323/149/3 324/152/3
f 313/150/3 311/150/3 312/153/3
f 304/151/6 303/152/6 324/152/6
f 316/144/6 315/153/6 312/153/6
f 304/151/6 321/154/6 319/154/6
f 307/143/4 309/143/4 310/148/4
f 310/148/1 309/143/1 312/153/1
f 319/154/4 321/154/4 322/146/4
f 322/146/1 321/154/1 324/152/1
f 340/144/6 333/143/6 331/143/6
f 326/145/2 329/145/2 344/146/2
f 338/147/2 341/147/2 332/148/2
f 326/145/2 346/146/2 347/149/2
f 338/147/2 334/148/2 335/150/2
f 330/151/1 343/154/1 344/146/1
f 342/144/1 331/143/1 332/148/1
f 325/149/4 347/149/4 348/152/4
f 337/150/4 335/150/4 336/153/4
f 328/151/6 327/152/6 348/152/6
f 340/144/6 339/153/6 336/153/6
f 328/151/6 345/154/6 343/154/6
f 331/143/3 333/143/3 334/148/3
f 334/148/5 333/143/5 336/153/5
f 343/154/3 345/154/3 346/146/3
f 346/146/5 345/154/5 348/152/5
f 355/143/6 357/143/6 364/144/6
f 350/145/2 370/146/2 368/146/2
f 362/147/2 358/148/2 356/148/2
f 371/149/2 370/146/2 350/145/2
f 359/150/2 358/148/2 362/147/2
f 368/146/1 367/154/1 354/151/1
f 356/148/1 355/143/1 366/144/1
f 372/152/3 371/149/3 349/149/3
f 360/153/3 359/150/3 361/150/3
f 352/151/6 369/154/6 372/152/6
f 364/144/6 357/143/6 360/153/6
f 367/154/6 369/154/6 352/151/6
f 358/148/4 357/143/4 355/143/4
f 360/153/5 357/143/5 358/148/5
f 370/146/4 369/154/4 367/154/4
f 372/152/5 369/154/5 370/146/5
