# Blender 4.4.0
# www.blender.org
mtllib Prop_Wood_Pile_01.mtl
o Prop_Wood_Pile_01
v -0.361117 0.110411 0.260089
v -0.419458 0.116861 0.260089
v -0.454214 0.069562 0.260089
v -0.430630 0.015812 0.260089
v -0.372289 0.009362 0.260089
v -0.337533 0.056661 0.260089
v -0.361117 0.110411 -0.159297
v -0.419458 0.116861 -0.159297
v -0.454214 0.069561 -0.159297
v -0.430630 0.015812 -0.159297
v -0.372289 0.009362 -0.159297
v -0.337533 0.056661 -0.159297
v -0.424997 0.129485 0.262750
v -0.352954 0.121520 0.262750
v -0.467917 0.071077 0.262750
v -0.438793 0.004702 0.262750
v -0.366750 -0.003263 0.262750
v -0.323830 0.055146 0.262750
v -0.424997 0.129485 -0.161958
v -0.352954 0.121520 -0.161958
v -0.467917 0.071077 -0.161958
v -0.438793 0.004702 -0.161958
v -0.366750 -0.003263 -0.161958
v -0.323830 0.055146 -0.161958
v 0.226479 0.085757 0.258991
v 0.266275 0.016386 0.258991
v 0.344681 0.017088 0.258991
v 0.383291 0.087162 0.258991
v 0.226479 0.085757 -0.333491
v 0.266275 0.016386 -0.333491
v 0.344681 0.017088 -0.333491
v 0.383292 0.087162 -0.333491
v 0.208063 0.085592 0.262750
v 0.257206 -0.000073 0.262750
v 0.354028 0.000794 0.262750
v 0.401707 0.087327 0.262750
v 0.208063 0.085592 -0.337250
v 0.257206 -0.000073 -0.337250
v 0.354028 0.000794 -0.337250
v 0.401708 0.087327 -0.337250
v 0.217230 0.042759 0.262750
v 0.393287 0.044061 0.262750
v 0.217230 0.042759 -0.337250
v 0.393287 0.044061 -0.337250
v 0.233889 0.051071 0.258991
v 0.376459 0.052125 0.258991
v 0.233889 0.051071 -0.333491
v 0.376459 0.052125 -0.333491
v 0.161106 0.114198 0.259562
v 0.102412 0.113685 0.259562
v 0.073509 0.062599 0.259562
v 0.103299 0.012025 0.259562
v 0.161993 0.012537 0.259562
v 0.190896 0.063624 0.259562
v 0.161106 0.114198 -0.242807
v 0.102412 0.113685 -0.242807
v 0.073509 0.062599 -0.242807
v 0.103299 0.012025 -0.242807
v 0.161993 0.012537 -0.242807
v 0.190896 0.063623 -0.242807
v 0.095415 0.125564 0.262750
v 0.167895 0.126197 0.262750
v 0.059723 0.062479 0.262750
v 0.096510 0.000026 0.262750
v 0.168990 0.000658 0.262750
v 0.204682 0.063744 0.262750
v 0.095415 0.125564 -0.245995
v 0.167895 0.126197 -0.245995
v 0.059723 0.062479 -0.245995
v 0.096510 0.000026 -0.245995
v 0.168990 0.000658 -0.245995
v 0.204682 0.063744 -0.245995
v -0.190124 0.156633 0.255625
v -0.270633 0.155930 0.255625
v -0.310279 0.085856 0.255625
v -0.269416 0.016485 0.255625
v -0.188907 0.017187 0.255625
v -0.149261 0.087261 0.255625
v -0.190123 0.156633 -0.214707
v -0.270633 0.155930 -0.214707
v -0.310279 0.085856 -0.214707
v -0.269416 0.016485 -0.214707
v -0.188907 0.017187 -0.214707
v -0.149261 0.087261 -0.214707
v -0.280230 0.172224 0.258610
v -0.180811 0.173092 0.258610
v -0.329189 0.085691 0.258610
v -0.278728 0.000026 0.258610
v -0.179309 0.000893 0.258610
v -0.130351 0.087426 0.258610
v -0.280230 0.172224 -0.217691
v -0.180811 0.173092 -0.217691
v -0.329188 0.085691 -0.217691
v -0.278728 0.000026 -0.217691
v -0.179309 0.000893 -0.217691
v -0.130351 0.087426 -0.217691
v 0.013817 0.160242 0.276203
v -0.068548 0.159523 0.276203
v -0.109107 0.087834 0.276203
v -0.067303 0.016864 0.276203
v 0.015062 0.017583 0.276203
v 0.055621 0.089272 0.276203
v 0.013817 0.160242 -0.309773
v -0.068548 0.159523 -0.309773
v -0.109107 0.087834 -0.309773
v -0.067303 0.016864 -0.309773
v 0.015062 0.017583 -0.309773
v 0.055621 0.089272 -0.309773
v -0.078367 0.176192 0.279921
v 0.023343 0.177080 0.279921
v -0.128453 0.087665 0.279921
v -0.076829 0.000026 0.279921
v 0.024881 0.000913 0.279921
v 0.074967 0.089441 0.279921
v -0.078367 0.176192 -0.313491
v 0.023343 0.177080 -0.313491
v -0.128453 0.087665 -0.313491
v -0.076829 0.000026 -0.313491
v 0.024881 0.000913 -0.313491
v 0.074967 0.089440 -0.313491
v 0.253001 0.202790 0.259562
v 0.194398 0.199479 0.259562
v 0.167965 0.147072 0.259562
v 0.200134 0.097976 0.259562
v 0.258736 0.101288 0.259562
v 0.285170 0.153695 0.259562
v 0.253001 0.202790 -0.242807
v 0.194398 0.199479 -0.242807
v 0.167965 0.147072 -0.242807
v 0.200134 0.097976 -0.242807
v 0.258736 0.101288 -0.242807
v 0.285170 0.153695 -0.242807
v 0.186842 0.211010 0.262750
v 0.259209 0.215100 0.262750
v 0.154200 0.146294 0.262750
v 0.193925 0.085667 0.262750
v 0.266292 0.089756 0.262750
v 0.298934 0.154472 0.262750
v 0.186842 0.211010 -0.245995
v 0.259209 0.215099 -0.245995
v 0.154200 0.146294 -0.245995
v 0.193925 0.085667 -0.245995
v 0.266292 0.089756 -0.245995
v 0.298934 0.154472 -0.245995
v 0.041328 0.173116 0.259532
v 0.090717 0.137055 0.259532
v 0.145258 0.161954 0.259532
v 0.150409 0.222914 0.259532
v 0.041328 0.173116 -0.247639
v 0.090717 0.137055 -0.247639
v 0.145258 0.161954 -0.247639
v 0.150409 0.222914 -0.247639
v 0.028517 0.167268 0.262750
v 0.089507 0.122737 0.262750
v 0.156858 0.153484 0.262750
v 0.163220 0.228762 0.262750
v 0.028517 0.167268 -0.250857
v 0.089507 0.122737 -0.250857
v 0.156858 0.153484 -0.250857
v 0.163220 0.228762 -0.250857
v 0.048253 0.140207 0.262750
v 0.170808 0.195923 0.262750
v 0.048253 0.140207 -0.250857
v 0.170808 0.195923 -0.250857
v 0.057301 0.151198 0.259532
v 0.156545 0.196317 0.259532
v 0.057301 0.151198 -0.247639
v 0.156545 0.196317 -0.247639
v -0.104769 0.214317 0.277375
v -0.145932 0.219969 0.277375
v -0.171408 0.187146 0.277375
v -0.155721 0.148672 0.277375
v -0.114557 0.143020 0.277375
v -0.089081 0.175843 0.277375
v -0.104769 0.214317 -0.123935
v -0.145932 0.219969 -0.123935
v -0.171408 0.187146 -0.123935
v -0.155721 0.148672 -0.123935
v -0.114557 0.143020 -0.123935
v -0.089081 0.175843 -0.123935
v -0.149617 0.229006 0.279921
v -0.098785 0.222027 0.279921
v -0.181077 0.188473 0.279921
v -0.161705 0.140962 0.279921
v -0.110873 0.133983 0.279921
v -0.079413 0.174515 0.279921
v -0.149617 0.229006 -0.126481
v -0.098785 0.222027 -0.126481
v -0.181077 0.188473 -0.126481
v -0.161705 0.140962 -0.126481
v -0.110873 0.133983 -0.126481
v -0.079413 0.174515 -0.126481
v -0.020257 0.264751 0.302451
v -0.065519 0.263952 0.302451
v -0.087459 0.224355 0.302451
v -0.064136 0.185556 0.302451
v -0.018873 0.186355 0.302451
v 0.003066 0.225953 0.302451
v -0.020257 0.264751 -0.134785
v -0.065519 0.263952 -0.134785
v -0.087459 0.224355 -0.134785
v -0.064136 0.185556 -0.134785
v -0.018873 0.186355 -0.134785
v 0.003066 0.225953 -0.134785
v -0.070998 0.273066 0.305225
v -0.015104 0.274052 0.305225
v -0.098090 0.224167 0.305225
v -0.069289 0.176255 0.305225
v -0.013395 0.177242 0.305225
v 0.013697 0.226140 0.305225
v -0.070998 0.273065 -0.137560
v -0.015104 0.274052 -0.137560
v -0.098090 0.224167 -0.137560
v -0.069289 0.176255 -0.137560
v -0.013395 0.177242 -0.137560
v 0.013697 0.226140 -0.137560
v -0.280901 0.229328 0.259985
v -0.254471 0.183924 0.259985
v -0.202969 0.184712 0.259985
v -0.177898 0.230904 0.259985
v -0.280901 0.229328 -0.175725
v -0.254471 0.183924 -0.175725
v -0.202969 0.184712 -0.175725
v -0.177898 0.230904 -0.175725
v -0.292998 0.229143 0.262750
v -0.260359 0.173074 0.262750
v -0.196761 0.174047 0.262750
v -0.165801 0.231089 0.262750
v -0.292998 0.229143 -0.178490
v -0.260359 0.173074 -0.178490
v -0.196761 0.174047 -0.178490
v -0.165801 0.231089 -0.178490
v -0.286798 0.201044 0.262750
v -0.171152 0.202632 0.262750
v -0.286798 0.201044 -0.178490
v -0.171152 0.202632 -0.178490
v -0.275889 0.206574 0.259985
v -0.182240 0.207860 0.259985
v -0.275889 0.206574 -0.175725
v -0.182240 0.207860 -0.175725
v -0.389459 0.187115 0.229201
v -0.382903 0.141221 0.229201
v -0.340527 0.124786 0.229201
v -0.304707 0.154245 0.229201
v -0.389459 0.187115 -0.155282
v -0.382903 0.141221 -0.155282
v -0.340527 0.124786 -0.155282
v -0.304707 0.154245 -0.155282
v -0.399413 0.190975 0.231640
v -0.391317 0.134302 0.231640
v -0.338987 0.114007 0.231640
v -0.294753 0.150385 0.231640
v -0.399413 0.190975 -0.157722
v -0.391317 0.134302 -0.157722
v -0.338987 0.114007 -0.157722
v -0.294753 0.150385 -0.157722
v -0.403661 0.165942 0.231640
v -0.308566 0.128889 0.231640
v -0.403661 0.165942 -0.157722
v -0.308566 0.128889 -0.157722
v -0.392907 0.166846 0.229201
v -0.315899 0.136841 0.229201
v -0.392907 0.166846 -0.155282
v -0.315899 0.136841 -0.155282
vn 0.9157 0.4018 -0.0000
vn -0.1099 -0.9939 -0.0000
vn -0.8058 0.5921 -0.0000
vn 0.8058 -0.5921 -0.0000
vn -0.9157 -0.4018 -0.0000
vn 0.1099 0.9939 -0.0000
vn -0.0000 -0.0000 1.0000
vn -0.0000 -0.0000 -1.0000
vn -0.0239 -0.2162 0.9761
vn 0.1753 -0.1288 0.9761
vn 0.1992 0.0874 0.9761
vn 0.0239 0.2162 0.9761
vn -0.1753 0.1288 0.9761
vn -0.1992 -0.0874 0.9761
vn -0.0239 -0.2162 -0.9761
vn 0.1753 -0.1288 -0.9761
vn 0.1992 0.0874 -0.9761
vn 0.0239 0.2162 -0.9761
vn -0.1753 0.1288 -0.9761
vn -0.1992 -0.0874 -0.9761
vn 0.0090 -1.0000 -0.0000
vn 0.9816 -0.1910 -0.0000
vn -0.7311 -0.6823 -0.0000
vn 0.1996 0.0427 0.9789
vn -0.0020 0.2237 0.9747
vn -0.1524 0.1382 0.9786
vn -0.0090 1.0000 -0.0000
vn 0.1506 0.1407 -0.9785
vn -0.0020 0.2237 -0.9747
vn -0.2001 0.0389 -0.9790
vn -0.1524 0.1383 -0.9786
vn 0.1995 0.0426 -0.9790
vn -0.2002 0.0390 0.9790
vn 0.1506 0.1405 0.9786
vn -0.9779 -0.2093 -0.0000
vn 0.7406 -0.6720 -0.0000
vn 0.8616 0.5075 -0.0000
vn 0.0087 -1.0000 -0.0000
vn -0.8704 0.4924 -0.0000
vn 0.8704 -0.4924 -0.0000
vn -0.8616 -0.5075 -0.0000
vn -0.0087 1.0000 -0.0000
vn 0.0023 -0.2579 0.9662
vn 0.2245 -0.1270 0.9662
vn 0.2223 0.1309 0.9662
vn -0.0023 0.2579 0.9662
vn -0.2245 0.1270 0.9662
vn -0.2223 -0.1309 0.9662
vn 0.0023 -0.2579 -0.9662
vn 0.2245 -0.1270 -0.9662
vn 0.2223 0.1309 -0.9662
vn -0.0023 0.2579 -0.9662
vn -0.2245 0.1270 -0.9662
vn -0.2223 -0.1309 -0.9662
vn 0.0016 -0.1793 0.9838
vn 0.1560 -0.0883 0.9838
vn 0.1545 0.0910 0.9838
vn -0.0016 0.1793 0.9838
vn -0.1560 0.0883 0.9838
vn -0.1545 -0.0910 0.9838
vn 0.0016 -0.1793 -0.9838
vn 0.1560 -0.0883 -0.9838
vn 0.1545 0.0910 -0.9838
vn -0.0016 0.1793 -0.9838
vn -0.1560 0.0883 -0.9838
vn -0.1545 -0.0910 -0.9838
vn 0.0019 -0.2166 0.9763
vn 0.1886 -0.1067 0.9763
vn 0.1867 0.1100 0.9762
vn -0.0019 0.2166 0.9763
vn -0.1886 0.1067 0.9763
vn -0.1867 -0.1100 0.9762
vn 0.0019 -0.2166 -0.9763
vn 0.1886 -0.1067 -0.9763
vn 0.1867 0.1100 -0.9763
vn -0.0019 0.2166 -0.9763
vn -0.1886 0.1067 -0.9763
vn -0.1867 -0.1100 -0.9763
vn 0.8364 0.5481 -0.0000
vn 0.0564 -0.9984 -0.0000
vn -0.8929 0.4503 -0.0000
vn 0.8929 -0.4503 -0.0000
vn -0.8364 -0.5481 -0.0000
vn -0.0564 0.9984 -0.0000
vn 0.0146 -0.2575 0.9662
vn 0.2303 -0.1162 0.9662
vn 0.2158 0.1414 0.9662
vn -0.0146 0.2575 0.9662
vn -0.2303 0.1162 0.9662
vn -0.2158 -0.1414 0.9662
vn 0.0146 -0.2575 -0.9662
vn 0.2303 -0.1162 -0.9662
vn 0.2158 0.1414 -0.9662
vn -0.0146 0.2575 -0.9662
vn -0.2303 0.1162 -0.9662
vn -0.2158 -0.1414 -0.9662
vn 0.4153 -0.9097 -0.0000
vn 0.9743 0.2251 -0.0000
vn -0.3900 -0.9208 -0.0000
vn 0.1837 0.1339 0.9738
vn -0.1034 0.2264 0.9685
vn -0.2176 0.0715 0.9734
vn -0.4153 0.9097 -0.0000
vn 0.0894 0.2113 -0.9733
vn -0.1034 0.2264 -0.9685
vn -0.2211 -0.0511 -0.9739
vn -0.2178 0.0716 -0.9734
vn 0.1836 0.1338 -0.9739
vn -0.2213 -0.0511 0.9739
vn 0.0894 0.2112 0.9733
vn -0.8080 -0.5893 -0.0000
vn 0.9500 -0.3123 -0.0000
vn 0.9260 0.3776 -0.0000
vn -0.1360 -0.9907 -0.0000
vn -0.7900 0.6132 -0.0000
vn 0.7900 -0.6132 -0.0000
vn -0.9260 -0.3776 -0.0000
vn 0.1360 0.9907 -0.0000
vn -0.0392 -0.2858 0.9575
vn 0.2279 -0.1769 0.9575
vn 0.2671 0.1089 0.9575
vn 0.0392 0.2858 0.9575
vn -0.2279 0.1769 0.9575
vn -0.2671 -0.1089 0.9575
vn -0.0392 -0.2858 -0.9575
vn 0.2279 -0.1769 -0.9575
vn 0.2671 0.1089 -0.9575
vn 0.0392 0.2858 -0.9575
vn -0.2279 0.1769 -0.9575
vn -0.2671 -0.1089 -0.9575
vn 0.8571 0.5152 -0.0000
vn 0.0176 -0.9998 -0.0000
vn -0.8747 0.4846 -0.0000
vn 0.8747 -0.4846 -0.0000
vn -0.8571 -0.5152 -0.0000
vn -0.0176 0.9998 -0.0000
vn 0.0051 -0.2884 0.9575
vn 0.2523 -0.1398 0.9575
vn 0.2472 0.1486 0.9575
vn -0.0051 0.2884 0.9575
vn -0.2523 0.1398 0.9575
vn -0.2472 -0.1486 0.9575
vn 0.0051 -0.2884 -0.9575
vn 0.2523 -0.1398 -0.9575
vn 0.2472 0.1486 -0.9575
vn -0.0051 0.2884 -0.9575
vn -0.2523 0.1398 -0.9575
vn -0.2472 -0.1486 -0.9575
vn 0.0153 -0.9999 -0.0000
vn 0.9828 -0.1848 -0.0000
vn -0.7267 -0.6869 -0.0000
vn 0.2220 0.0490 0.9738
vn -0.0038 0.2489 0.9685
vn -0.1707 0.1528 0.9734
vn -0.0153 0.9999 -0.0000
vn 0.1667 0.1577 -0.9733
vn -0.0038 0.2489 -0.9685
vn -0.2231 0.0419 -0.9739
vn -0.1707 0.1530 -0.9734
vn 0.2218 0.0489 -0.9739
vn -0.2232 0.0421 0.9739
vn 0.1667 0.1576 0.9733
vn -0.9765 -0.2155 -0.0000
vn 0.7448 -0.6673 -0.0000
vn -0.3616 -0.9323 -0.0000
vn 0.8413 -0.5406 -0.0000
vn -0.9316 -0.3635 -0.0000
vn 0.2241 -0.0380 0.9738
vn 0.0900 0.2321 0.9685
vn -0.1007 0.2058 0.9734
vn 0.3616 0.9323 -0.0000
vn 0.2138 0.0835 -0.9733
vn 0.0900 0.2321 -0.9685
vn -0.1909 0.1227 -0.9739
vn -0.1007 0.2059 -0.9734
vn 0.2239 -0.0381 -0.9739
vn -0.1910 0.1229 0.9739
vn 0.2137 0.0834 0.9733
vn -0.9859 0.1673 -0.0000
vn 0.4395 -0.8983 -0.0000
vn 0.1995 0.0426 0.9790
vn -0.1524 0.1383 0.9786
vn 0.1506 0.1405 -0.9786
vn -0.2002 0.0390 -0.9790
vn -0.1524 0.1382 -0.9786
vn 0.1996 0.0427 -0.9789
vn -0.2001 0.0389 0.9790
vn 0.1506 0.1407 0.9785
vn 0.1886 -0.1067 0.9762
vn 0.1867 0.1100 0.9763
vn 0.1836 0.1338 0.9739
vn -0.2178 0.0716 0.9734
vn 0.0894 0.2112 -0.9733
vn -0.2213 -0.0511 -0.9739
vn -0.2176 0.0715 -0.9734
vn 0.1837 0.1339 -0.9738
vn -0.2211 -0.0511 0.9739
vn 0.0894 0.2113 0.9733
vn 0.7900 -0.6131 -0.0000
vn 0.2218 0.0489 0.9739
vn -0.1707 0.1530 0.9734
vn 0.1667 0.1576 -0.9733
vn -0.2232 0.0421 -0.9739
vn -0.1707 0.1528 -0.9734
vn 0.2220 0.0490 -0.9738
vn -0.2231 0.0419 0.9739
vn 0.1667 0.1577 0.9733
vn 0.2239 -0.0381 0.9739
vn -0.1007 0.2059 0.9734
vn 0.2137 0.0834 -0.9733
vn -0.1910 0.1229 -0.9739
vn -0.1007 0.2058 -0.9734
vn 0.2241 -0.0380 -0.9738
vn -0.1909 0.1227 0.9739
vn 0.2138 0.0835 0.9733
vt 0.082962 0.880399
vt 0.082918 0.888341
vt 0.082962 0.880399
vt 0.082789 0.874364
vt 0.082898 0.873411
vt 0.082810 0.889294
vt 0.082746 0.882305
vt 0.572053 0.945823
vt 0.572032 0.949473
vt 0.571953 0.946699
vt 0.571973 0.943049
vt 0.082906 0.887012
vt 0.082819 0.887783
vt 0.082766 0.882124
vt 0.082802 0.875693
vt 0.082889 0.874921
vt 0.082941 0.880581
vt 0.083834 0.873792
vt 0.083979 0.873896
vt 0.084038 0.879073
vt 0.084051 0.884250
vt 0.083774 0.878917
vt 0.572661 0.945515
vt 0.572567 0.943088
vt 0.572539 0.945444
vt 0.572667 0.947895
vt 0.572533 0.947799
vt 0.083799 0.879912
vt 0.083760 0.884042
vt 0.083848 0.875762
vt 0.083965 0.875846
vt 0.084013 0.880038
vt 0.083788 0.884062
vt 0.084023 0.884230
vt 0.339661 0.819399
vt 0.339640 0.826496
vt 0.339600 0.812159
vt 0.339641 0.812231
vt 0.339599 0.826424
vt 0.339579 0.819256
vt 0.572478 0.942827
vt 0.572503 0.946296
vt 0.572477 0.949731
vt 0.572428 0.942792
vt 0.572403 0.946226
vt 0.339636 0.825132
vt 0.339603 0.825074
vt 0.339587 0.819269
vt 0.339604 0.813523
vt 0.339637 0.813581
vt 0.339653 0.819386
vt 0.083252 0.884262
vt 0.083177 0.894511
vt 0.083030 0.873804
vt 0.083179 0.873908
vt 0.083027 0.894408
vt 0.082954 0.884054
vt 0.572179 0.943142
vt 0.572213 0.947901
vt 0.572178 0.952612
vt 0.572111 0.943095
vt 0.572076 0.947806
vt 0.083163 0.892542
vt 0.083042 0.892458
vt 0.082982 0.884074
vt 0.083044 0.875773
vt 0.083165 0.875858
vt 0.083224 0.884242
vt 0.083561 0.884503
vt 0.083483 0.894989
vt 0.083333 0.873804
vt 0.083485 0.873910
vt 0.083330 0.894883
vt 0.083255 0.884290
vt 0.572387 0.948038
vt 0.572352 0.952858
vt 0.572247 0.947940
vt 0.572353 0.943169
vt 0.572247 0.947940
vt 0.083345 0.892888
vt 0.083284 0.884310
vt 0.083347 0.875819
vt 0.083471 0.875905
vt 0.083531 0.884482
vt 0.083469 0.892974
vt 0.083284 0.884310
vt 0.339714 0.829708
vt 0.339692 0.836597
vt 0.339655 0.821890
vt 0.339696 0.822355
vt 0.339651 0.836132
vt 0.339632 0.828779
vt 0.572560 0.948854
vt 0.572583 0.952413
vt 0.572556 0.955747
vt 0.572560 0.948854
vt 0.572511 0.948629
vt 0.572483 0.951963
vt 0.339688 0.835198
vt 0.339655 0.834822
vt 0.339640 0.828867
vt 0.339658 0.823289
vt 0.339692 0.823665
vt 0.339706 0.829620
vt 0.339692 0.823665
vt 0.083582 0.888487
vt 0.083683 0.892165
vt 0.083704 0.897243
vt 0.083693 0.901172
vt 0.083520 0.890577
vt 0.572473 0.955307
vt 0.572417 0.951283
vt 0.572389 0.952243
vt 0.572468 0.957114
vt 0.572375 0.953732
vt 0.083534 0.891892
vt 0.083491 0.893815
vt 0.083584 0.890200
vt 0.083666 0.893179
vt 0.083683 0.897290
vt 0.083510 0.894515
vt 0.083674 0.900473
vt 0.572375 0.953732
vt 0.083510 0.894514
vt 0.339500 0.831986
vt 0.339489 0.837384
vt 0.339453 0.828173
vt 0.339482 0.827380
vt 0.339460 0.838177
vt 0.339443 0.833572
vt 0.572242 0.951688
vt 0.572264 0.953917
vt 0.572251 0.956530
vt 0.572207 0.952072
vt 0.572194 0.954685
vt 0.339486 0.836508
vt 0.339462 0.837150
vt 0.339448 0.833421
vt 0.339457 0.829049
vt 0.339480 0.828407
vt 0.339495 0.832137
vt 0.339553 0.837851
vt 0.339536 0.843295
vt 0.339506 0.832183
vt 0.339537 0.832295
vt 0.339505 0.843183
vt 0.339490 0.837627
vt 0.572343 0.957320
vt 0.572323 0.959955
vt 0.572266 0.957211
vt 0.572324 0.954631
vt 0.339534 0.842239
vt 0.339508 0.842148
vt 0.339496 0.837649
vt 0.339509 0.833240
vt 0.339534 0.833331
vt 0.339547 0.837830
vt 0.083057 0.894509
vt 0.083153 0.894626
vt 0.083191 0.898046
vt 0.083199 0.901451
vt 0.083018 0.897856
vt 0.572185 0.956091
vt 0.572123 0.954466
vt 0.572105 0.956004
vt 0.572188 0.957656
vt 0.572101 0.957549
vt 0.083034 0.898518
vt 0.083008 0.901218
vt 0.083066 0.895808
vt 0.083143 0.895902
vt 0.083175 0.898671
vt 0.083026 0.901240
vt 0.083181 0.901429
vt 0.339324 0.827416
vt 0.339353 0.825111
vt 0.339370 0.826801
vt 0.339378 0.829244
vt 0.339317 0.831012
vt 0.572071 0.951268
vt 0.572014 0.951566
vt 0.572005 0.953306
vt 0.572080 0.952450
vt 0.572008 0.954682
vt 0.339323 0.831114
vt 0.339319 0.833856
vt 0.339328 0.828203
vt 0.339352 0.826335
vt 0.339366 0.827705
vt 0.339325 0.833417
vt 0.339373 0.829683
vt 0.339353 0.825110
vt 0.571983 0.949911
vt 0.572023 0.942611
vt 0.572634 0.943136
vt 0.572427 0.949696
vt 0.572110 0.952565
vt 0.572282 0.952809
vt 0.572283 0.943120
vt 0.572506 0.955522
vt 0.572464 0.952974
vt 0.572216 0.956914
vt 0.572284 0.959901
vt 0.572285 0.954577
vt 0.572167 0.954519
vt 0.572050 0.950450
s 0
usemtl Texture_Map
f 24/1/1 14/2/1 18/3/1
f 22/4/2 17/5/2 16/4/2
f 19/6/3 15/7/3 13/6/3
f 23/5/4 18/3/4 17/5/4
f 21/7/5 16/4/5 15/7/5
f 20/2/6 13/6/6 14/2/6
f 6/8/7 1/9/7 3/10/7
f 10/11/8 9/10/8 7/9/8
f 1/12/9 13/6/9 2/13/9
f 3/14/10 13/6/10 15/7/10
f 3/14/11 16/4/11 4/15/11
f 5/16/12 16/4/12 17/5/12
f 6/17/13 17/5/13 18/3/13
f 6/17/14 14/2/14 1/12/14
f 7/12/15 19/6/15 20/2/15
f 9/14/16 19/6/16 8/13/16
f 9/14/17 22/4/17 21/7/17
f 11/16/18 22/4/18 10/15/18
f 12/17/19 23/5/19 11/16/19
f 7/12/20 24/1/20 12/17/20
f 38/18/21 35/19/21 34/18/21
f 44/20/22 36/21/22 42/20/22
f 43/22/23 34/18/23 41/22/23
f 48/23/8 30/24/8 47/25/8
f 45/25/7 28/26/7 25/27/7
f 45/28/24 33/29/24 41/22/24
f 26/30/25 35/19/25 27/31/25
f 27/31/26 42/20/26 46/32/26
f 25/33/27 37/29/27 33/29/27
f 40/21/27 28/34/27 36/21/27
f 30/30/28 43/22/28 47/28/28
f 30/30/29 39/19/29 38/18/29
f 48/32/30 40/21/30 44/20/30
f 28/26/27 29/27/27 25/27/27
f 31/31/31 44/20/31 39/19/31
f 47/28/32 37/29/32 29/33/32
f 46/32/33 36/21/33 28/34/33
f 26/30/34 41/22/34 34/18/34
f 26/24/7 46/23/7 45/25/7
f 32/26/8 47/25/8 29/27/8
f 37/29/35 41/22/35 33/29/35
f 39/19/36 42/20/36 35/19/36
f 72/35/37 62/36/37 66/35/37
f 70/37/38 65/38/38 64/37/38
f 67/39/39 63/40/39 61/39/39
f 71/38/40 66/35/40 65/38/40
f 69/40/41 64/37/41 63/40/41
f 68/36/42 61/39/42 62/36/42
f 53/41/7 54/42/7 49/43/7
f 58/44/8 57/45/8 55/43/8
f 49/46/43 61/39/43 50/47/43
f 50/47/44 63/40/44 51/48/44
f 52/49/45 63/40/45 64/37/45
f 53/50/46 64/37/46 65/38/46
f 54/51/47 65/38/47 66/35/47
f 54/51/48 62/36/48 49/46/48
f 55/46/49 67/39/49 68/36/49
f 56/47/50 69/40/50 67/39/50
f 58/49/51 69/40/51 57/48/51
f 59/50/52 70/37/52 58/49/52
f 60/51/53 71/38/53 59/50/53
f 55/46/54 72/35/54 60/51/54
f 90/52/37 92/53/37 86/53/37
f 94/54/38 89/55/38 88/54/38
f 91/56/39 87/57/39 85/56/39
f 95/55/40 90/52/40 89/55/40
f 93/57/41 88/54/41 87/57/41
f 86/53/42 91/56/42 85/56/42
f 77/58/7 78/59/7 73/60/7
f 83/58/8 82/61/8 81/62/8
f 73/63/55 85/56/55 74/64/55
f 75/65/56 85/56/56 87/57/56
f 75/65/57 88/54/57 76/66/57
f 76/66/58 89/55/58 77/67/58
f 78/68/59 89/55/59 90/52/59
f 78/68/60 86/53/60 73/63/60
f 80/64/61 92/53/61 79/63/61
f 81/65/62 91/56/62 80/64/62
f 82/66/63 93/57/63 81/65/63
f 83/67/64 94/54/64 82/66/64
f 84/68/65 95/55/65 83/67/65
f 84/68/66 92/53/66 96/52/66
f 120/69/37 110/70/37 114/69/37
f 118/71/38 113/72/38 112/71/38
f 115/73/39 111/74/39 109/73/39
f 113/72/40 120/69/40 114/69/40
f 117/74/41 112/71/41 111/74/41
f 110/70/42 115/73/42 109/73/42
f 102/75/7 97/76/7 99/77/7
f 103/76/8 107/78/8 105/79/8
f 98/80/67 110/70/67 109/73/67
f 99/81/68 109/73/68 111/74/68
f 99/81/69 112/71/69 100/82/69
f 100/82/70 113/72/70 101/83/70
f 102/84/71 113/72/71 114/69/71
f 97/85/72 114/69/72 110/70/72
f 104/80/73 116/70/73 103/85/73
f 105/86/74 115/73/74 104/80/74
f 105/86/75 118/71/75 117/74/75
f 107/83/76 118/71/76 106/82/76
f 108/84/77 119/72/77 107/83/77
f 103/85/78 120/69/78 108/84/78
f 144/87/79 134/88/79 138/87/79
f 142/89/80 137/90/80 136/89/80
f 139/91/81 135/92/81 133/91/81
f 143/90/82 138/87/82 137/90/82
f 141/92/83 136/89/83 135/92/83
f 140/88/84 133/91/84 134/88/84
f 125/93/7 126/94/7 121/95/7
f 131/96/8 130/97/8 129/98/8
f 121/99/85 133/91/85 122/100/85
f 122/100/86 135/92/86 123/101/86
f 124/102/87 135/92/87 136/89/87
f 124/102/88 137/90/88 125/103/88
f 125/103/89 138/87/89 126/104/89
f 121/99/90 138/87/90 134/88/90
f 128/100/91 140/88/91 127/99/91
f 129/101/92 139/91/92 128/100/92
f 129/101/93 142/89/93 141/92/93
f 131/105/94 142/89/94 130/102/94
f 132/104/95 143/90/95 131/105/95
f 132/104/96 140/88/96 144/87/96
f 158/106/97 155/107/97 154/106/97
f 164/108/98 156/109/98 162/108/98
f 163/110/99 154/106/99 161/110/99
f 168/111/8 150/112/8 167/113/8
f 165/113/7 148/114/7 145/115/7
f 165/116/100 153/117/100 161/110/100
f 146/118/101 155/107/101 147/119/101
f 147/119/102 162/108/102 166/120/102
f 145/121/103 157/117/103 153/117/103
f 160/109/103 148/122/103 156/109/103
f 150/118/104 163/110/104 167/116/104
f 150/118/105 159/107/105 158/106/105
f 168/120/106 160/109/106 164/108/106
f 148/114/103 149/123/103 145/115/103
f 151/119/107 164/108/107 159/107/107
f 167/116/108 157/117/108 149/124/108
f 166/120/109 156/109/109 148/122/109
f 146/118/110 161/110/110 154/106/110
f 146/112/7 166/111/7 165/113/7
f 152/114/8 167/113/8 149/123/8
f 157/117/111 161/110/111 153/117/111
f 159/107/112 162/108/112 155/107/112
f 192/125/113 182/126/113 186/125/113
f 190/127/114 185/128/114 184/127/114
f 187/129/115 183/130/115 181/129/115
f 191/128/116 186/125/116 185/128/116
f 189/130/117 184/127/117 183/130/117
f 188/126/118 181/129/118 182/126/118
f 173/131/7 174/132/7 169/133/7
f 179/131/8 178/134/8 177/135/8
f 169/136/119 181/129/119 170/137/119
f 171/138/120 181/129/120 183/130/120
f 172/139/121 183/130/121 184/127/121
f 173/140/122 184/127/122 185/128/122
f 174/141/123 185/128/123 186/125/123
f 169/136/124 186/125/124 182/126/124
f 175/136/125 187/129/125 188/126/125
f 177/138/126 187/129/126 176/137/126
f 178/139/127 189/130/127 177/138/127
f 179/140/128 190/127/128 178/139/128
f 180/141/129 191/128/129 179/140/129
f 175/136/130 192/125/130 180/141/130
f 210/142/131 212/143/131 206/143/131
f 214/144/132 209/145/132 208/144/132
f 211/146/133 207/147/133 205/146/133
f 215/145/134 210/142/134 209/145/134
f 213/147/135 208/144/135 207/147/135
f 206/143/136 211/146/136 205/146/136
f 198/148/7 193/149/7 195/150/7
f 199/149/8 203/151/8 201/150/8
f 193/152/137 205/146/137 194/153/137
f 195/154/138 205/146/138 207/147/138
f 195/154/139 208/144/139 196/155/139
f 197/156/140 208/144/140 209/145/140
f 198/157/141 209/145/141 210/142/141
f 198/157/142 206/143/142 193/152/142
f 200/153/143 212/143/143 199/152/143
f 201/154/144 211/146/144 200/153/144
f 201/154/145 214/144/145 213/147/145
f 203/156/146 214/144/146 202/155/146
f 204/157/147 215/145/147 203/156/147
f 204/157/148 212/143/148 216/142/148
f 230/158/149 227/159/149 226/158/149
f 236/160/150 228/161/150 234/160/150
f 235/162/151 226/158/151 233/162/151
f 240/163/8 222/164/8 239/165/8
f 237/165/7 220/166/7 217/167/7
f 237/168/152 225/169/152 233/162/152
f 218/170/153 227/159/153 219/171/153
f 219/171/154 234/160/154 238/172/154
f 217/173/155 229/169/155 225/169/155
f 232/161/155 220/174/155 228/161/155
f 222/170/156 235/162/156 239/168/156
f 222/170/157 231/159/157 230/158/157
f 240/172/158 232/161/158 236/160/158
f 224/166/155 217/167/155 220/166/155
f 223/171/159 236/160/159 231/159/159
f 239/168/160 229/169/160 221/173/160
f 238/172/161 228/161/161 220/174/161
f 218/170/162 233/162/162 226/158/162
f 218/164/7 238/163/7 237/165/7
f 224/166/8 239/165/8 221/167/8
f 229/169/163 233/162/163 225/169/163
f 231/159/164 234/160/164 227/159/164
f 254/175/165 251/176/165 250/175/165
f 258/177/166 256/178/166 252/178/166
f 257/179/167 254/175/167 250/175/167
f 264/180/8 246/181/8 263/182/8
f 261/182/7 244/183/7 241/184/7
f 261/185/168 249/186/168 257/179/168
f 242/187/169 251/176/169 243/188/169
f 243/188/170 258/177/170 262/189/170
f 241/190/171 253/186/171 249/186/171
f 252/178/171 248/191/171 244/191/171
f 246/187/172 259/179/172 263/185/172
f 246/187/173 255/192/173 254/175/173
f 264/189/174 256/178/174 260/177/174
f 244/183/171 245/184/171 241/184/171
f 247/188/175 260/177/175 255/192/175
f 263/185/176 253/186/176 245/190/176
f 262/189/177 252/178/177 244/191/177
f 242/187/178 257/179/178 250/175/178
f 242/181/7 262/180/7 261/182/7
f 248/183/8 263/182/8 245/184/8
f 253/186/179 257/179/179 249/186/179
f 255/192/180 258/177/180 251/176/180
f 24/1/1 20/2/1 14/2/1
f 22/4/2 23/5/2 17/5/2
f 19/6/3 21/7/3 15/7/3
f 23/5/4 24/1/4 18/3/4
f 21/7/5 22/4/5 16/4/5
f 20/2/6 19/6/6 13/6/6
f 1/9/7 2/193/7 3/10/7
f 3/10/7 4/11/7 5/194/7
f 5/194/7 6/8/7 3/10/7
f 9/10/8 8/193/8 7/9/8
f 7/9/8 12/8/8 11/194/8
f 11/194/8 10/11/8 7/9/8
f 1/12/9 14/2/9 13/6/9
f 3/14/10 2/13/10 13/6/10
f 3/14/11 15/7/11 16/4/11
f 5/16/12 4/15/12 16/4/12
f 6/17/13 5/16/13 17/5/13
f 6/17/14 18/3/14 14/2/14
f 7/12/15 8/13/15 19/6/15
f 9/14/16 21/7/16 19/6/16
f 9/14/17 10/15/17 22/4/17
f 11/16/18 23/5/18 22/4/18
f 12/17/19 24/1/19 23/5/19
f 7/12/20 20/2/20 24/1/20
f 38/18/21 39/19/21 35/19/21
f 44/20/22 40/21/22 36/21/22
f 43/22/23 38/18/23 34/18/23
f 48/23/8 31/195/8 30/24/8
f 45/25/7 46/23/7 28/26/7
f 45/28/181 25/33/181 33/29/181
f 26/30/25 34/18/25 35/19/25
f 27/31/182 35/19/182 42/20/182
f 25/33/27 29/33/27 37/29/27
f 40/21/27 32/34/27 28/34/27
f 30/30/183 38/18/183 43/22/183
f 30/30/29 31/31/29 39/19/29
f 48/32/184 32/34/184 40/21/184
f 28/26/27 32/26/27 29/27/27
f 31/31/185 48/32/185 44/20/185
f 47/28/186 43/22/186 37/29/186
f 46/32/187 42/20/187 36/21/187
f 26/30/188 45/28/188 41/22/188
f 26/24/7 27/195/7 46/23/7
f 32/26/8 48/23/8 47/25/8
f 37/29/35 43/22/35 41/22/35
f 39/19/36 44/20/36 42/20/36
f 72/35/37 68/36/37 62/36/37
f 70/37/38 71/38/38 65/38/38
f 67/39/39 69/40/39 63/40/39
f 71/38/40 72/35/40 66/35/40
f 69/40/41 70/37/41 64/37/41
f 68/36/42 67/39/42 61/39/42
f 49/43/7 50/196/7 51/45/7
f 51/45/7 52/44/7 49/43/7
f 52/44/7 53/41/7 49/43/7
f 57/45/8 56/196/8 55/43/8
f 55/43/8 60/42/8 59/41/8
f 59/41/8 58/44/8 55/43/8
f 49/46/43 62/36/43 61/39/43
f 50/47/44 61/39/44 63/40/44
f 52/49/45 51/48/45 63/40/45
f 53/50/46 52/49/46 64/37/46
f 54/51/47 53/50/47 65/38/47
f 54/51/48 66/35/48 62/36/48
f 55/46/49 56/47/49 67/39/49
f 56/47/50 57/48/50 69/40/50
f 58/49/51 70/37/51 69/40/51
f 59/50/52 71/38/52 70/37/52
f 60/51/53 72/35/53 71/38/53
f 55/46/54 68/36/54 72/35/54
f 90/52/37 96/52/37 92/53/37
f 94/54/38 95/55/38 89/55/38
f 91/56/39 93/57/39 87/57/39
f 95/55/40 96/52/40 90/52/40
f 93/57/41 94/54/41 88/54/41
f 86/53/42 92/53/42 91/56/42
f 73/60/7 74/197/7 75/62/7
f 75/62/7 76/61/7 73/60/7
f 76/61/7 77/58/7 73/60/7
f 81/62/8 80/197/8 83/58/8
f 80/197/8 79/60/8 83/58/8
f 79/60/8 84/59/8 83/58/8
f 73/63/55 86/53/55 85/56/55
f 75/65/56 74/64/56 85/56/56
f 75/65/57 87/57/57 88/54/57
f 76/66/58 88/54/58 89/55/58
f 78/68/59 77/67/59 89/55/59
f 78/68/60 90/52/60 86/53/60
f 80/64/61 91/56/61 92/53/61
f 81/65/62 93/57/62 91/56/62
f 82/66/63 94/54/63 93/57/63
f 83/67/64 95/55/64 94/54/64
f 84/68/65 96/52/65 95/55/65
f 84/68/66 79/63/66 92/53/66
f 120/69/37 116/70/37 110/70/37
f 118/71/38 119/72/38 113/72/38
f 115/73/39 117/74/39 111/74/39
f 113/72/40 119/72/40 120/69/40
f 117/74/41 118/71/41 112/71/41
f 110/70/42 116/70/42 115/73/42
f 97/76/7 98/198/7 99/77/7
f 99/77/7 100/199/7 101/78/7
f 101/78/7 102/75/7 99/77/7
f 105/79/8 104/198/8 103/76/8
f 103/76/8 108/75/8 107/78/8
f 107/78/8 106/199/8 105/79/8
f 98/80/67 97/85/67 110/70/67
f 99/81/189 98/80/189 109/73/189
f 99/81/190 111/74/190 112/71/190
f 100/82/70 112/71/70 113/72/70
f 102/84/71 101/83/71 113/72/71
f 97/85/72 102/84/72 114/69/72
f 104/80/73 115/73/73 116/70/73
f 105/86/74 117/74/74 115/73/74
f 105/86/75 106/82/75 118/71/75
f 107/83/76 119/72/76 118/71/76
f 108/84/77 120/69/77 119/72/77
f 103/85/78 116/70/78 120/69/78
f 144/87/79 140/88/79 134/88/79
f 142/89/80 143/90/80 137/90/80
f 139/91/81 141/92/81 135/92/81
f 143/90/82 144/87/82 138/87/82
f 141/92/83 142/89/83 136/89/83
f 140/88/84 139/91/84 133/91/84
f 121/95/7 122/200/7 123/98/7
f 123/98/7 124/97/7 121/95/7
f 124/97/7 125/93/7 121/95/7
f 129/98/8 128/200/8 127/95/8
f 127/95/8 132/94/8 129/98/8
f 132/94/8 131/96/8 129/98/8
f 121/99/85 134/88/85 133/91/85
f 122/100/86 133/91/86 135/92/86
f 124/102/87 123/101/87 135/92/87
f 124/102/88 136/89/88 137/90/88
f 125/103/89 137/90/89 138/87/89
f 121/99/90 126/104/90 138/87/90
f 128/100/91 139/91/91 140/88/91
f 129/101/92 141/92/92 139/91/92
f 129/101/93 130/102/93 142/89/93
f 131/105/94 143/90/94 142/89/94
f 132/104/95 144/87/95 143/90/95
f 132/104/96 127/99/96 140/88/96
f 158/106/97 159/107/97 155/107/97
f 164/108/98 160/109/98 156/109/98
f 163/110/99 158/106/99 154/106/99
f 168/111/8 151/201/8 150/112/8
f 165/113/7 166/111/7 148/114/7
f 165/116/191 145/121/191 153/117/191
f 146/118/101 154/106/101 155/107/101
f 147/119/192 155/107/192 162/108/192
f 145/121/103 149/124/103 157/117/103
f 160/109/103 152/122/103 148/122/103
f 150/118/193 158/106/193 163/110/193
f 150/118/105 151/119/105 159/107/105
f 168/120/194 152/122/194 160/109/194
f 148/114/103 152/114/103 149/123/103
f 151/119/195 168/120/195 164/108/195
f 167/116/196 163/110/196 157/117/196
f 166/120/197 162/108/197 156/109/197
f 146/118/198 165/116/198 161/110/198
f 146/112/7 147/201/7 166/111/7
f 152/114/8 168/111/8 167/113/8
f 157/117/111 163/110/111 161/110/111
f 159/107/112 164/108/112 162/108/112
f 192/125/113 188/126/113 182/126/113
f 190/127/114 191/128/114 185/128/114
f 187/129/115 189/130/115 183/130/115
f 191/128/199 192/125/199 186/125/199
f 189/130/117 190/127/117 184/127/117
f 188/126/118 187/129/118 181/129/118
f 169/133/7 170/202/7 171/135/7
f 171/135/7 172/134/7 169/133/7
f 172/134/7 173/131/7 169/133/7
f 177/135/8 176/202/8 175/133/8
f 175/133/8 180/132/8 177/135/8
f 180/132/8 179/131/8 177/135/8
f 169/136/119 182/126/119 181/129/119
f 171/138/120 170/137/120 181/129/120
f 172/139/121 171/138/121 183/130/121
f 173/140/122 172/139/122 184/127/122
f 174/141/123 173/140/123 185/128/123
f 169/136/124 174/141/124 186/125/124
f 175/136/125 176/137/125 187/129/125
f 177/138/126 189/130/126 187/129/126
f 178/139/127 190/127/127 189/130/127
f 179/140/128 191/128/128 190/127/128
f 180/141/129 192/125/129 191/128/129
f 175/136/130 188/126/130 192/125/130
f 210/142/131 216/142/131 212/143/131
f 214/144/132 215/145/132 209/145/132
f 211/146/133 213/147/133 207/147/133
f 215/145/134 216/142/134 210/142/134
f 213/147/135 214/144/135 208/144/135
f 206/143/136 212/143/136 211/146/136
f 193/149/7 194/203/7 195/150/7
f 195/150/7 196/204/7 197/151/7
f 197/151/7 198/148/7 195/150/7
f 201/150/8 200/203/8 199/149/8
f 199/149/8 204/148/8 203/151/8
f 203/151/8 202/204/8 201/150/8
f 193/152/137 206/143/137 205/146/137
f 195/154/138 194/153/138 205/146/138
f 195/154/139 207/147/139 208/144/139
f 197/156/140 196/155/140 208/144/140
f 198/157/141 197/156/141 209/145/141
f 198/157/142 210/142/142 206/143/142
f 200/153/143 211/146/143 212/143/143
f 201/154/144 213/147/144 211/146/144
f 201/154/145 202/155/145 214/144/145
f 203/156/146 215/145/146 214/144/146
f 204/157/147 216/142/147 215/145/147
f 204/157/148 199/152/148 212/143/148
f 230/158/149 231/159/149 227/159/149
f 236/160/150 232/161/150 228/161/150
f 235/162/151 230/158/151 226/158/151
f 240/163/8 223/205/8 222/164/8
f 237/165/7 238/163/7 220/166/7
f 237/168/200 217/173/200 225/169/200
f 218/170/153 226/158/153 227/159/153
f 219/171/201 227/159/201 234/160/201
f 217/173/155 221/173/155 229/169/155
f 232/161/155 224/174/155 220/174/155
f 222/170/202 230/158/202 235/162/202
f 222/170/157 223/171/157 231/159/157
f 240/172/203 224/174/203 232/161/203
f 224/166/155 221/167/155 217/167/155
f 223/171/204 240/172/204 236/160/204
f 239/168/205 235/162/205 229/169/205
f 238/172/206 234/160/206 228/161/206
f 218/170/207 237/168/207 233/162/207
f 218/164/7 219/205/7 238/163/7
f 224/166/8 240/163/8 239/165/8
f 229/169/163 235/162/163 233/162/163
f 231/159/164 236/160/164 234/160/164
f 254/175/165 255/192/165 251/176/165
f 258/177/166 260/177/166 256/178/166
f 257/179/167 259/179/167 254/175/167
f 264/180/8 247/206/8 246/181/8
f 261/182/7 262/180/7 244/183/7
f 261/185/208 241/190/208 249/186/208
f 242/187/169 250/175/169 251/176/169
f 243/188/209 251/176/209 258/177/209
f 241/190/171 245/190/171 253/186/171
f 252/178/171 256/178/171 248/191/171
f 246/187/210 254/175/210 259/179/210
f 246/187/173 247/188/173 255/192/173
f 264/189/211 248/191/211 256/178/211
f 244/183/171 248/183/171 245/184/171
f 247/188/212 264/189/212 260/177/212
f 263/185/213 259/179/213 253/186/213
f 262/189/214 258/177/214 252/178/214
f 242/187/215 261/185/215 257/179/215
f 242/181/7 243/206/7 262/180/7
f 248/183/8 264/180/8 263/182/8
f 253/186/179 259/179/179 257/179/179
f 255/192/180 260/177/180 258/177/180
