# Blender 4.4.0
# www.blender.org
mtllib Prop_Sack_02.mtl
o Prop_Sack_02
v -0.213521 0.375774 0.069348
v -0.145103 0.366444 0.128509
v 0.041123 0.396716 -0.151442
v -0.051569 0.404418 -0.173096
v -0.144861 0.404918 -0.151442
v -0.213569 0.397230 -0.092281
v 0.107695 0.364736 0.069348
v 0.133116 0.376090 -0.011466
v -0.052686 0.359666 0.150163
v -0.238960 0.386004 -0.011466
v 0.108159 0.387219 -0.092281
v 0.039431 0.358215 0.128509
v -0.030568 0.017582 -0.020492
v -0.126516 0.018719 -0.017747
v -0.253897 -0.011109 -0.010246
v -0.280645 -0.014263 -0.000000
v -0.253897 -0.011109 0.010246
v -0.126516 0.018719 0.017747
v -0.030660 0.017357 0.020492
v 0.078268 0.003587 0.017747
v 0.200509 0.008553 0.010246
v 0.230869 0.012165 0.000000
v 0.200506 0.008544 -0.010246
v 0.078287 0.003633 -0.017747
v -0.033401 0.515953 -0.042174
v -0.020655 0.517510 -0.029195
v -0.014275 0.518643 -0.011465
v -0.021138 0.517527 0.006265
v -0.034192 0.515604 0.019244
v -0.051945 0.514817 0.023995
v -0.069747 0.513741 0.019244
v -0.082952 0.511996 0.006265
v -0.089385 0.511101 -0.011465
v -0.082952 0.511996 -0.029195
v -0.069704 0.513675 -0.042174
v -0.051482 0.514810 -0.046924
v -0.151226 0.272995 0.137889
v -0.158476 0.171969 0.118019
v -0.053240 0.289020 -0.168476
v -0.052802 0.187053 -0.141193
v -0.223716 0.290152 -0.086558
v -0.224940 0.185137 -0.070228
v 0.143385 0.270017 -0.004511
v 0.158498 0.172942 -0.000596
v -0.053234 0.266859 0.159956
v -0.052632 0.168199 0.137299
v -0.250545 0.284669 -0.004511
v -0.264700 0.181880 -0.000588
v 0.116502 0.275608 -0.086558
v 0.130509 0.175055 -0.070175
v 0.044356 0.262885 0.137889
v 0.053642 0.163152 0.118318
v -0.225641 0.175873 0.068450
v -0.223724 0.278941 0.077656
v 0.051925 0.179429 -0.121594
v 0.044343 0.282140 -0.146540
v -0.157068 0.188308 -0.121302
v -0.151219 0.292255 -0.146540
v 0.131552 0.166200 0.068499
v 0.116510 0.264396 0.077656
v -0.044655 0.079937 -0.084055
v -0.157404 0.081073 -0.073321
v -0.232605 0.070668 -0.042402
v -0.248867 0.069136 -0.000000
v -0.232605 0.070668 0.042402
v -0.157404 0.081073 0.073321
v -0.044822 0.079565 0.084055
v 0.072411 0.073892 0.073068
v 0.152270 0.064466 0.040058
v 0.175090 0.066382 -0.000000
v 0.161472 0.069000 -0.040058
v 0.072758 0.074512 -0.073068
v -0.050308 0.481302 -0.143989
v -0.050042 0.446455 -0.158205
v -0.134645 0.441018 -0.138897
v -0.120636 0.481162 -0.126466
v -0.196675 0.432307 -0.085095
v -0.172321 0.477168 -0.077921
v -0.222615 0.426314 -0.011499
v -0.195836 0.474350 -0.011471
v -0.194821 0.429902 0.061585
v -0.171517 0.476645 0.054733
v -0.133196 0.437391 0.114522
v -0.120081 0.480750 0.102859
v -0.051601 0.442038 0.133660
v -0.051904 0.480731 0.120294
v 0.029239 0.445841 0.114078
v 0.015692 0.479534 0.102522
v 0.088623 0.456044 0.060939
v 0.065762 0.484889 0.054292
v 0.116898 0.462314 -0.011499
v 0.091119 0.488190 -0.011471
v 0.091077 0.458206 -0.084206
v 0.067814 0.485026 -0.077379
v 0.032983 0.451375 -0.137983
v 0.018992 0.481499 -0.125917
v -0.051095 0.549080 -0.075969
v -0.083983 0.541448 -0.066885
v -0.107252 0.543209 -0.043098
v -0.118620 0.541702 -0.011467
v -0.107252 0.539002 0.020164
v -0.084078 0.546831 0.043980
v -0.051937 0.549094 0.053038
v -0.019466 0.545617 0.044702
v 0.005176 0.554862 0.021405
v 0.018784 0.557410 -0.011467
v 0.006121 0.554877 -0.044368
v -0.017903 0.546327 -0.067831
v -0.033401 0.515953 -0.042174
v -0.020655 0.517510 -0.029195
v -0.014275 0.518643 -0.011465
v -0.021138 0.517527 0.006265
v -0.034192 0.515604 0.019244
v -0.051945 0.514817 0.023995
v -0.069747 0.513741 0.019244
v -0.082952 0.511996 0.006265
v -0.089385 0.511101 -0.011465
v -0.082952 0.511996 -0.029195
v -0.069704 0.513675 -0.042174
v -0.051482 0.514810 -0.046924
v -0.100253 0.540835 -0.039140
v -0.068177 0.514080 -0.020812
v 0.010007 0.553258 -0.011468
v -0.031973 0.517584 -0.011466
v -0.051862 0.545983 0.044963
v -0.051831 0.515567 0.007227
v -0.110198 0.539516 -0.011468
v -0.071569 0.513609 -0.011466
v -0.042056 0.516166 -0.027655
v -0.022088 0.543562 -0.060777
v -0.001070 0.551042 -0.040251
v -0.035337 0.516987 -0.020812
v -0.061193 0.514966 -0.027655
v -0.079896 0.539294 -0.059949
v -0.051125 0.545971 -0.067896
v -0.051587 0.515564 -0.030159
v -0.035591 0.516996 -0.002119
v -0.001897 0.551029 0.017289
v -0.023455 0.542942 0.037671
v -0.042473 0.515982 0.004723
v -0.061216 0.515001 0.004723
v -0.079980 0.544003 0.037039
v -0.100253 0.537154 0.016204
v -0.068177 0.514080 -0.002119
v -0.052013 0.526144 -0.047239
v -0.051454 0.517354 -0.055419
v -0.050950 0.509189 -0.046610
v -0.051510 0.517980 -0.038430
v -0.070587 0.524983 -0.042395
v -0.073835 0.515907 -0.049576
v -0.068821 0.508081 -0.041952
v -0.065573 0.517157 -0.034771
v -0.084062 0.523280 -0.029200
v -0.090022 0.513919 -0.033820
v -0.081842 0.506425 -0.029189
v -0.075882 0.515786 -0.024569
v -0.090496 0.522385 -0.011465
v -0.097812 0.512847 -0.011465
v -0.088275 0.505531 -0.011465
v -0.080958 0.515068 -0.011465
v -0.084065 0.523279 0.006252
v -0.090026 0.513925 0.010886
v -0.081839 0.506426 0.006278
v -0.075878 0.515780 0.001644
v -0.070631 0.525050 0.019448
v -0.073906 0.515985 0.026632
v -0.068863 0.508147 0.019041
v -0.065588 0.517211 0.011856
v -0.052389 0.526156 0.024314
v -0.051925 0.517355 0.032489
v -0.051501 0.509191 0.023676
v -0.051965 0.517992 0.015501
v -0.034738 0.526936 0.019589
v -0.029956 0.518433 0.026614
v -0.033646 0.509985 0.018899
v -0.038427 0.518488 0.011875
v -0.021773 0.528850 0.006693
v -0.014039 0.520681 0.010930
v -0.020503 0.511919 0.005837
v -0.028238 0.520087 0.001600
v -0.014777 0.529985 -0.011477
v -0.005790 0.522002 -0.011364
v -0.013773 0.513014 -0.011452
v -0.022760 0.520997 -0.011566
v -0.021258 0.528838 -0.029562
v -0.013474 0.520682 -0.033731
v -0.020052 0.511896 -0.028827
v -0.027836 0.520052 -0.024658
v -0.033959 0.527285 -0.042496
v -0.029137 0.518811 -0.049527
v -0.032843 0.510334 -0.041851
v -0.037665 0.518809 -0.034820
v -0.081046 0.521402 -0.030251
v -0.084699 0.521565 -0.029076
v -0.076314 0.513043 -0.028538
v -0.076294 0.516674 -0.029177
v -0.085067 0.508439 -0.026590
v -0.081177 0.508289 -0.027948
v -0.090061 0.516683 -0.024398
v -0.089865 0.513046 -0.023923
v -0.078612 0.512110 -0.082400
v -0.082191 0.512408 -0.080963
v -0.074297 0.503410 -0.082065
v -0.074268 0.507153 -0.083005
v -0.082114 0.499656 -0.077834
v -0.078531 0.499358 -0.079273
v -0.086409 0.508372 -0.078182
v -0.086451 0.504605 -0.077230
v -0.130373 0.499853 -0.122880
v -0.127879 0.499170 -0.125506
v -0.124407 0.493647 -0.127521
v -0.124260 0.490130 -0.126430
v -0.127308 0.486453 -0.121604
v -0.129803 0.487136 -0.118978
v -0.133277 0.492662 -0.116961
v -0.133417 0.496181 -0.118061
vn 0.0330 -0.7098 -0.7036
vn -0.9299 0.1034 0.3529
vn 0.2512 -0.5833 -0.7724
vn 0.0726 -0.4198 0.9047
vn -0.6379 0.1323 0.7586
vn -0.6527 0.0039 -0.7576
vn 0.9433 0.1118 0.3125
vn 0.2292 0.1008 0.9682
vn -0.9411 0.1290 0.3126
vn 0.6606 -0.0136 -0.7507
vn 0.2240 -0.0422 -0.9737
vn 0.6437 0.1191 0.7559
vn 0.2667 0.9499 0.1630
vn 0.0843 0.9390 -0.3336
vn -0.2652 0.9426 0.2030
vn 0.1664 0.9373 0.3063
vn 0.1994 0.9422 -0.2691
vn -0.3251 0.9417 0.0868
vn 0.0474 0.9416 0.3333
vn 0.2747 0.9509 -0.1428
vn -0.3281 0.9419 -0.0715
vn -0.2301 0.3324 -0.9147
vn -0.0822 0.9430 0.3226
vn -0.5557 -0.3381 -0.7595
vn 0.2761 0.2840 0.9182
vn 0.1171 -0.9931 -0.0000
vn -0.1849 -0.7033 0.6864
vn 0.8643 0.4269 -0.2659
vn -0.3686 0.1404 -0.9189
vn 0.1289 -0.5023 0.8550
vn 0.9561 0.0567 -0.2875
vn -0.9543 0.0750 -0.2894
vn -0.2261 -0.0357 -0.9734
vn -0.2189 0.1116 0.9693
vn 0.5228 -0.2954 0.7996
vn -0.3481 -0.2035 0.9151
vn 0.0664 -0.4080 -0.9106
vn 0.9254 0.0852 0.3692
vn -0.0911 -0.4403 0.8932
vn 0.0328 -0.3731 -0.9272
vn -0.8654 -0.0629 -0.4971
vn 0.9397 0.1446 -0.3100
vn -0.0587 -0.6203 0.7821
vn -0.9245 -0.1280 0.3592
vn 0.3349 -0.1656 -0.9276
vn 0.2233 0.1836 0.9573
vn 0.9062 0.2563 -0.3363
vn -0.8477 0.4618 -0.2612
vn -0.2345 0.1939 0.9526
vn 0.9126 0.1718 0.3711
vn -0.6303 0.4079 -0.6606
vn -0.2971 0.9373 -0.1820
vn -0.6482 0.2506 0.7191
vn 0.6338 0.2012 0.7469
vn 0.2062 0.3201 -0.9247
vn 0.6362 0.2725 -0.7218
vn -0.8811 0.3500 0.3179
vn 0.6393 -0.0903 0.7636
vn -0.2193 -0.2531 -0.9423
vn 0.5442 -0.0605 -0.8368
vn -0.9382 0.1413 0.3161
vn 0.2068 -0.2178 0.9538
vn 0.9214 0.1287 -0.3667
vn -0.9491 -0.0376 -0.3129
vn -0.1825 -0.1771 0.9671
vn 0.9418 0.1148 0.3159
vn -0.6277 -0.1501 -0.7639
vn 0.1638 -0.2214 -0.9613
vn -0.5950 -0.0605 0.8014
vn -0.0301 -0.7177 0.6957
vn -0.0759 -0.6841 -0.7254
vn -0.1705 -0.4738 -0.8640
vn -0.2295 0.3601 -0.9042
vn -0.6225 0.4413 -0.6463
vn -0.8436 0.4704 -0.2590
vn -0.8382 0.4607 0.2919
vn -0.6493 0.3744 0.6620
vn -0.2350 0.3157 0.9193
vn 0.1996 0.3887 0.8995
vn 0.5018 0.5513 0.6666
vn 0.6714 0.6685 0.3199
vn 0.6901 0.6689 -0.2762
vn 0.5828 0.5206 -0.6240
vn 0.2336 0.3688 -0.8997
vn -0.1428 0.9350 -0.3245
vn 0.1221 -0.6761 -0.7266
vn -0.5372 -0.6978 -0.4738
vn 0.7417 -0.6233 0.2479
vn -0.1631 -0.6351 0.7550
vn -0.6910 -0.6646 -0.2843
vn 0.7394 -0.6305 -0.2360
vn 0.1256 -0.6413 0.7569
vn -0.7089 -0.6772 0.1970
vn 0.6436 -0.6348 -0.4276
vn -0.0608 -0.6450 -0.7618
vn 0.5669 -0.6767 0.4699
vn -0.4548 -0.6955 0.5563
vn -0.2090 0.7627 0.6120
vn 0.3261 0.8361 0.4411
vn -0.6370 0.7445 -0.1997
vn 0.1198 0.7724 -0.6237
vn 0.5392 0.8083 0.2364
vn -0.6392 0.7472 0.1823
vn -0.1848 0.8102 -0.5563
vn 0.4845 0.8471 -0.2185
vn -0.4761 0.7968 0.3720
vn 0.0957 0.8209 0.5630
vn -0.4842 0.7931 -0.3695
vn 0.3357 0.8261 -0.4526
vn 0.1346 -0.9909 0.0092
vn -0.1166 0.9270 0.3566
vn 0.0596 -0.9974 -0.0397
vn -0.4252 0.8988 -0.1063
vn 0.0738 -0.9962 0.0453
vn 0.2353 0.9588 0.1592
vn 0.0771 -0.9946 -0.0699
vn -0.4257 0.8999 0.0946
vn 0.2489 0.9590 0.1352
vn 0.0324 -0.9985 -0.0445
vn -0.4214 0.9010 0.1032
vn 0.2512 0.9679 -0.0077
vn 0.0720 -0.9964 -0.0441
vn -0.0107 0.9331 0.3594
vn 0.0470 0.9345 -0.3529
vn 0.1365 -0.9906 -0.0057
vn 0.0512 -0.9977 0.0452
vn 0.0355 0.9327 -0.3590
vn 0.1394 -0.9902 -0.0006
vn 0.0665 -0.9963 0.0543
vn 0.0076 0.9331 -0.3594
vn 0.1394 -0.9902 0.0006
vn 0.0596 -0.9973 0.0422
vn -0.4295 0.8977 -0.0980
vn -0.0863 0.9963 -0.0017
vn 0.1315 0.7308 0.6698
vn -0.2302 0.6550 -0.7197
vn -0.1293 -0.7309 -0.6701
vn 0.2283 -0.6554 0.7200
vn 0.4051 0.7578 0.5115
vn -0.5842 0.6218 -0.5217
vn -0.4049 -0.7578 -0.5116
vn 0.5876 -0.6209 0.5189
vn 0.5669 0.7809 0.2624
vn -0.7586 0.6038 -0.2447
vn -0.5744 -0.7802 -0.2478
vn 0.7522 -0.6063 0.2581
vn 0.5889 0.7677 -0.2525
vn -0.7703 0.5909 0.2399
vn -0.5905 -0.7697 0.2428
vn 0.7684 -0.5895 -0.2490
vn 0.4043 0.7569 -0.5135
vn -0.5837 0.6273 0.5155
vn -0.4045 -0.7569 0.5133
vn 0.5867 -0.6274 -0.5119
vn 0.1337 0.7325 -0.6675
vn -0.2317 0.6543 0.7199
vn -0.1324 -0.7322 0.6681
vn 0.2302 -0.6542 -0.7204
vn -0.2107 0.7121 -0.6697
vn 0.1625 0.6761 0.7187
vn 0.2139 -0.7115 0.6694
vn -0.1675 -0.6757 -0.7179
vn -0.5671 0.6766 -0.4697
vn 0.4442 0.7057 0.5519
vn 0.5623 -0.6780 0.4735
vn -0.4445 -0.7057 -0.5517
vn -0.7053 0.6642 -0.2476
vn 0.6184 0.7328 0.2839
vn 0.7118 -0.6618 0.2352
vn -0.6082 -0.7334 -0.3037
vn -0.7303 0.6464 0.2207
vn 0.6425 0.7196 -0.2632
vn 0.7316 -0.6476 -0.2131
vn -0.6400 -0.7166 0.2774
vn -0.5655 0.6822 0.4635
vn 0.4578 0.7103 -0.5347
vn 0.5610 -0.6820 -0.4692
vn -0.4600 -0.7110 0.5319
vn -0.2180 0.7057 0.6741
vn 0.1455 0.6794 -0.7192
vn 0.2214 -0.7060 -0.6727
vn -0.1460 -0.6795 0.7190
vn 0.7126 0.6957 -0.0907
vn 0.7000 -0.6966 0.1573
vn -0.6688 -0.7397 0.0743
vn -0.5130 0.7813 0.3556
vn 0.4881 0.5138 -0.7056
vn 0.5175 -0.7813 -0.3489
vn -0.4817 -0.5091 0.7133
vn -0.7348 -0.2289 -0.6385
vn -0.0121 0.9846 -0.1744
vn -0.9967 -0.0608 -0.0542
vn 0.9993 0.0011 0.0375
vn 0.0213 -0.9852 0.1701
vn -0.0247 0.9649 -0.2615
vn -0.6633 0.1902 0.7237
vn 0.6798 -0.1836 -0.7100
vn 0.0260 -0.9642 0.2640
vn -0.7347 0.6612 -0.1521
vn -0.0593 -0.6171 -0.7847
vn -0.3686 0.1404 0.9189
vn 0.0722 -0.4032 -0.9122
vn 0.2495 -0.5859 0.7710
vn -0.6288 0.1183 0.7685
vn -0.6377 0.0193 -0.7701
vn 0.9426 0.1090 0.3157
vn 0.2234 0.1069 0.9688
vn -0.9404 0.1262 0.3158
vn 0.6397 0.0084 -0.7686
vn 0.2168 -0.0356 -0.9756
vn 0.6358 0.1080 0.7643
vn 0.2743 0.9493 0.1534
vn 0.0259 0.9450 -0.3259
vn -0.3052 0.9342 0.1849
vn 0.1869 0.9361 0.2980
vn 0.1712 0.9442 -0.2814
vn -0.3345 0.9395 0.0740
vn 0.1062 0.9341 0.3410
vn 0.2645 0.9517 -0.1560
vn -0.3254 0.9426 -0.0752
vn -0.2079 0.3730 -0.9042
vn -0.1445 0.9328 0.3302
vn -0.3489 -0.1992 -0.9157
vn 0.7780 0.4241 0.4635
vn 0.2280 -0.9737 -0.0000
vn -0.0120 -0.9999 -0.0055
vn -0.1271 -0.9919 -0.0014
vn 0.0402 -0.9992 -0.0013
vn -0.1256 -0.9921 -0.0057
vn 0.1183 -0.9930 0.0004
vn 0.0406 -0.9992 0.0004
vn -0.0142 -0.9999 -0.0000
vn 0.0328 -0.3731 0.9272
vn 0.2760 0.2840 -0.9183
vn -0.9299 0.1034 -0.3529
vn 0.0626 -0.4408 0.8954
vn 0.9493 0.0718 -0.3061
vn -0.9485 0.0876 -0.3043
vn -0.2193 -0.0301 -0.9752
vn -0.2123 0.1038 0.9717
vn 0.3570 -0.1834 0.9159
vn -0.5656 -0.3693 0.7374
vn 0.1311 -0.4588 -0.8788
vn 0.8580 0.1364 0.4953
vn -0.1711 -0.5184 0.8379
vn -0.1849 -0.7033 -0.6864
vn -0.9240 -0.1316 -0.3591
vn 0.9169 0.1644 -0.3638
vn 0.0315 -0.7108 0.7027
vn -0.8710 -0.0630 0.4873
vn 0.5160 -0.2730 -0.8119
vn 0.2275 0.1884 0.9554
vn 0.9469 0.1780 -0.2679
vn -0.9014 0.3653 -0.2325
vn -0.2069 0.2225 0.9527
vn 0.9208 0.2219 0.3208
vn -0.6158 0.4316 -0.6591
vn -0.2598 0.9450 -0.1989
vn -0.5967 0.3122 0.7393
vn 0.6313 0.1970 0.7501
vn 0.2402 0.2657 -0.9337
vn 0.6612 0.2400 -0.7107
vn -0.8775 0.3561 0.3213
vn 0.5386 0.0039 0.8426
vn -0.1853 -0.2220 -0.9573
vn 0.6254 -0.1403 -0.7676
vn -0.8711 -0.0276 0.4904
vn 0.1650 -0.1751 0.9706
vn 0.9487 0.0824 -0.3052
vn -0.8660 0.1006 -0.4898
vn -0.2274 -0.2193 0.9488
vn 0.9147 0.1574 0.3721
vn -0.5937 -0.1169 -0.7962
vn 0.1952 -0.2527 -0.9476
vn -0.6406 -0.1037 0.7608
vn -0.0783 -0.6846 0.7247
vn -0.0284 -0.7167 -0.6968
vn -0.0906 -0.4065 -0.9091
vn -0.2256 0.3665 -0.9026
vn -0.6378 0.4221 -0.6443
vn -0.8269 0.4924 -0.2717
vn -0.8347 0.4652 0.2946
vn -0.6229 0.4083 0.6673
vn -0.2336 0.3178 0.9189
vn 0.2463 0.3182 0.9155
vn 0.5884 0.4637 0.6623
vn 0.7106 0.6337 0.3058
vn 0.6800 0.6777 -0.2798
vn 0.5059 0.5972 -0.6224
vn 0.1879 0.4392 -0.8785
vn -0.0806 0.9453 -0.3159
vn 0.2344 -0.6301 -0.7403
vn -0.4921 -0.6440 -0.5857
vn 0.7356 -0.6272 0.2559
vn -0.1671 -0.6373 0.7522
vn -0.6939 -0.6630 -0.2810
vn 0.7452 -0.6266 -0.2281
vn 0.2153 -0.6910 0.6901
vn -0.6428 -0.7171 0.2694
vn 0.5609 -0.6823 -0.4689
vn -0.1398 -0.6974 -0.7030
vn 0.6451 -0.6300 0.4323
vn -0.4243 -0.6529 0.6275
vn -0.0827 0.7918 0.6051
vn 0.4526 0.8052 0.3832
vn -0.6339 0.7459 -0.2046
vn 0.1211 0.7729 -0.6229
vn 0.5416 0.8076 0.2331
vn -0.6361 0.7486 0.1872
vn -0.0775 0.7762 -0.6257
vn 0.5524 0.8237 -0.1282
vn -0.5745 0.7565 0.3126
vn -0.0074 0.7787 0.6273
vn -0.5791 0.7524 -0.3140
vn 0.2891 0.7898 -0.5409
vn 0.0596 -0.9974 -0.0396
vn -0.0623 0.9981 -0.0005
vn -0.1258 0.9921 -0.0000
vn -0.1378 0.9905 -0.0000
vn -0.1299 0.9915 -0.0012
vn -0.0600 0.9982 -0.0011
vn -0.0444 0.9990 -0.0004
vn -0.1254 0.9919 0.0209
vn -0.1673 0.9859 -0.0028
vn -0.0425 0.9961 -0.0777
vn 0.1284 0.7330 0.6680
vn -0.2291 0.6531 -0.7218
vn -0.1272 -0.7327 -0.6685
vn 0.2263 -0.6529 0.7229
vn 0.4051 0.7581 0.5112
vn -0.5843 0.6266 -0.5158
vn -0.4049 -0.7580 -0.5114
vn 0.5886 -0.6268 0.5106
vn 0.5890 0.7677 0.2524
vn -0.7702 0.5909 -0.2401
vn -0.5905 -0.7697 -0.2427
vn 0.7684 -0.5895 0.2491
vn 0.5674 0.7806 -0.2622
vn -0.7582 0.6043 0.2447
vn -0.5748 -0.7798 0.2479
vn 0.7516 -0.6069 -0.2583
vn 0.4043 0.7571 -0.5132
vn -0.5889 0.6219 0.5162
vn -0.4044 -0.7571 0.5131
vn 0.5943 -0.6204 -0.5119
vn 0.1373 0.7299 -0.6696
vn -0.2323 0.6553 0.7187
vn -0.1349 -0.7301 0.6699
vn 0.2313 -0.6555 -0.7189
vn -0.2069 0.7075 -0.6758
vn 0.1580 0.6802 0.7158
vn 0.2118 -0.7079 0.6739
vn -0.1609 -0.6808 -0.7146
vn -0.5680 0.6846 -0.4568
vn 0.4441 0.7064 0.5512
vn 0.5621 -0.6845 0.4642
vn -0.4444 -0.7065 -0.5508
vn -0.7249 0.6462 -0.2387
vn 0.6360 0.7199 0.2780
vn 0.7264 -0.6474 0.2304
vn -0.6331 -0.7169 -0.2919
vn -0.7136 0.6621 0.2289
vn 0.6238 0.7334 -0.2701
vn 0.7192 -0.6599 -0.2175
vn -0.6135 -0.7342 0.2909
vn -0.5649 0.6758 0.4736
vn 0.4583 0.7073 -0.5382
vn 0.5613 -0.6768 -0.4764
vn -0.4602 -0.7072 0.5368
vn -0.2207 0.7090 0.6698
vn 0.1461 0.6789 -0.7196
vn 0.2230 -0.7086 -0.6695
vn -0.1470 -0.6788 0.7195
vn 0.7437 0.6626 -0.0892
vn 0.7327 -0.6644 0.1472
vn -0.7459 -0.6623 0.0705
vn -0.4816 0.8166 0.3181
vn 0.4654 0.5467 -0.6961
vn 0.4875 -0.8150 -0.3132
vn -0.4577 -0.5443 0.7030
vn 0.0117 0.9845 -0.1749
vn -0.9977 -0.0058 -0.0668
vn 0.9993 0.0017 0.0373
vn -0.0132 -0.9852 0.1708
vn -0.0180 0.9633 -0.2679
vn -0.6630 0.1992 0.7216
vn 0.6797 -0.1915 -0.7081
vn 0.0201 -0.9628 0.2696
vn -0.7338 0.6620 -0.1523
vt 0.842126 0.488938
vt 0.840785 0.478019
vt 0.840602 0.489979
vt 0.837952 0.487907
vt 0.837887 0.472516
vt 0.838163 0.488201
vt 0.843277 0.487881
vt 0.842197 0.475344
vt 0.843157 0.487011
vt 0.842197 0.475335
vt 0.843783 0.476287
vt 0.838278 0.528147
vt 0.839299 0.544930
vt 0.838411 0.546719
vt 0.839219 0.530701
vt 0.838410 0.550835
vt 0.839302 0.552309
vt 0.842579 0.544602
vt 0.843042 0.526435
vt 0.842909 0.546780
vt 0.840491 0.525830
vt 0.841693 0.543351
vt 0.840498 0.543630
vt 0.837930 0.529246
vt 0.838081 0.548681
vt 0.842585 0.548915
vt 0.841757 0.528761
vt 0.841715 0.550736
vt 0.840491 0.530080
vt 0.840512 0.552213
vt 0.842693 0.525357
vt 0.842035 0.567647
vt 0.840996 0.574121
vt 0.840907 0.573907
vt 0.840529 0.566959
vt 0.840748 0.573605
vt 0.841428 0.566997
vt 0.839623 0.566853
vt 0.840105 0.572846
vt 0.838956 0.566066
vt 0.841385 0.566620
vt 0.840738 0.573538
vt 0.840913 0.573904
vt 0.842062 0.567674
vt 0.840022 0.572675
vt 0.838640 0.565626
vt 0.840508 0.566850
vt 0.840507 0.573387
vt 0.842364 0.568281
vt 0.838945 0.566167
vt 0.839434 0.559233
vt 0.840532 0.560276
vt 0.840276 0.573181
vt 0.839139 0.490196
vt 0.838263 0.510156
vt 0.839143 0.510764
vt 0.843454 0.487379
vt 0.844177 0.476980
vt 0.837540 0.471911
vt 0.839540 0.478237
vt 0.843783 0.476286
vt 0.840600 0.489907
vt 0.841878 0.505939
vt 0.840499 0.506907
vt 0.842693 0.527508
vt 0.838278 0.530297
vt 0.839219 0.527007
vt 0.842121 0.488819
vt 0.842889 0.506524
vt 0.838253 0.508379
vt 0.841855 0.509061
vt 0.843238 0.507817
vt 0.839125 0.507630
vt 0.837747 0.509531
vt 0.840784 0.477976
vt 0.842875 0.508222
vt 0.840512 0.559429
vt 0.841561 0.560158
vt 0.842699 0.563318
vt 0.842363 0.562530
vt 0.838293 0.556413
vt 0.838629 0.557562
vt 0.839453 0.558537
vt 0.842332 0.562115
vt 0.839616 0.566932
vt 0.840277 0.573168
vt 0.838653 0.557101
vt 0.841610 0.561220
vt 0.841757 0.525068
vt 0.840496 0.510523
vt 0.840513 0.573386
vt 0.840518 0.579959
vt 0.840949 0.579431
vt 0.839790 0.578833
vt 0.840092 0.578495
vt 0.841249 0.581068
vt 0.840090 0.579527
vt 0.841261 0.581071
vt 0.841425 0.581557
vt 0.840929 0.579295
vt 0.840508 0.579962
vt 0.839790 0.578026
vt 0.839642 0.578544
vt 0.840636 0.573646
vt 0.840518 0.579363
vt 0.840512 0.573531
vt 0.840145 0.578082
vt 0.840297 0.573246
vt 0.840387 0.573416
vt 0.841157 0.580333
vt 0.840767 0.573918
vt 0.840720 0.573805
vt 0.840144 0.578985
vt 0.840509 0.573531
vt 0.840387 0.573423
vt 0.839881 0.578378
vt 0.840253 0.573156
vt 0.841168 0.580335
vt 0.840723 0.573804
vt 0.840877 0.578782
vt 0.840630 0.573611
vt 0.839881 0.577672
vt 0.840895 0.578901
vt 0.841311 0.580760
vt 0.839752 0.578125
vt 0.840509 0.579365
vt 0.695416 0.497837
vt 0.695240 0.496113
vt 0.695423 0.496271
vt 0.695133 0.495873
vt 0.695423 0.496151
vt 0.695198 0.494372
vt 0.695430 0.494585
vt 0.695000 0.497287
vt 0.695175 0.497614
vt 0.694923 0.495492
vt 0.695029 0.494055
vt 0.695041 0.495712
vt 0.695106 0.495850
vt 0.694917 0.497116
vt 0.694946 0.493883
vt 0.695000 0.497287
vt 0.694923 0.495493
vt 0.694822 0.495287
vt 0.695029 0.494055
vt 0.695240 0.496124
vt 0.695106 0.495849
vt 0.695132 0.495888
vt 0.695197 0.494385
vt 0.695411 0.497839
vt 0.695175 0.497627
vt 0.695417 0.496151
vt 0.695417 0.496273
vt 0.695640 0.497989
vt 0.695423 0.494585
vt 0.695702 0.496358
vt 0.695592 0.496368
vt 0.695809 0.498356
vt 0.695909 0.496789
vt 0.695655 0.494738
vt 0.695825 0.495108
vt 0.695796 0.496850
vt 0.695725 0.496675
vt 0.695899 0.498573
vt 0.695912 0.495319
vt 0.695815 0.498353
vt 0.695916 0.496789
vt 0.696016 0.497042
vt 0.695831 0.495104
vt 0.695602 0.496430
vt 0.695730 0.496668
vt 0.695650 0.498056
vt 0.695665 0.494805
vt 0.695713 0.496430
vt 0.695101 0.496021
vt 0.695071 0.495145
vt 0.695039 0.496927
vt 0.695072 0.492699
vt 0.695101 0.495324
vt 0.695038 0.494412
vt 0.694969 0.493706
vt 0.694987 0.494441
vt 0.694925 0.495325
vt 0.694399 0.492794
vt 0.694970 0.494428
vt 0.695024 0.495202
vt 0.694477 0.491604
vt 0.695127 0.494194
vt 0.694479 0.490929
vt 0.695127 0.493476
vt 0.694407 0.490355
vt 0.695026 0.492756
vt 0.694439 0.490224
vt 0.694360 0.492090
vt 0.694992 0.496959
vt 0.694922 0.496022
vt 0.694432 0.492663
vt 0.694362 0.491415
s 0
usemtl Texture_Map
f 72/1/1 13/2/1 61/3/1
f 64/4/2 17/5/2 65/6/2
f 71/7/3 24/8/3 72/1/3
f 69/9/4 20/10/4 21/11/4
f 54/12/5 2/13/5 1/14/5
f 58/15/6 6/16/6 5/17/6
f 7/18/7 43/19/7 8/20/7
f 45/21/8 12/22/8 9/23/8
f 47/24/9 1/14/9 10/25/9
f 11/26/10 56/27/10 3/28/10
f 3/28/11 39/29/11 4/30/11
f 12/22/12 60/31/12 7/18/12
f 90/32/13 27/33/13 28/34/13
f 73/35/14 25/36/14 96/37/14
f 84/38/15 32/39/15 82/40/15
f 88/41/16 28/34/16 29/42/16
f 96/37/17 26/43/17 94/44/17
f 82/40/18 33/45/18 80/46/18
f 86/47/19 29/42/19 30/48/19
f 94/44/20 27/33/20 92/49/20
f 78/50/21 33/45/21 34/39/21
f 4/30/22 75/51/22 74/52/22
f 86/47/23 31/53/23 84/38/23
f 62/54/24 42/55/24 57/56/24
f 70/57/25 21/11/25 22/58/25
f 17/5/26 16/59/26 15/5/26
f 65/6/27 18/60/27 66/54/27
f 70/57/28 23/61/28 71/7/28
f 64/4/29 15/5/29 16/59/29
f 67/62/30 52/63/30 46/64/30
f 8/20/31 49/65/31 11/26/31
f 41/66/32 10/25/32 6/16/32
f 39/29/33 5/17/33 4/30/33
f 37/67/34 9/23/34 2/13/34
f 68/68/35 59/69/35 52/63/35
f 66/54/36 53/70/36 65/6/36
f 61/3/37 55/71/37 72/1/37
f 69/9/38 44/72/38 59/69/38
f 67/62/39 38/73/39 66/54/39
f 63/6/40 14/60/40 15/5/40
f 63/6/41 48/74/41 42/55/41
f 71/7/42 44/72/42 70/57/42
f 68/68/43 19/75/43 20/10/43
f 65/6/44 48/74/44 64/4/44
f 72/1/45 50/76/45 71/7/45
f 85/77/46 12/22/46 87/78/46
f 91/79/47 11/26/47 93/80/47
f 6/16/48 79/81/48 77/82/48
f 83/83/49 9/23/49 85/77/49
f 89/84/50 8/20/50 91/79/50
f 5/17/51 77/82/51 75/51/51
f 76/85/52 34/39/52 35/86/52
f 81/87/53 2/13/53 83/83/53
f 87/78/54 7/18/54 89/84/54
f 95/88/55 4/30/55 74/52/55
f 93/80/56 3/28/56 95/88/56
f 79/81/57 1/14/57 81/87/57
f 52/63/58 60/31/58 51/89/58
f 40/90/59 58/15/59 39/29/59
f 55/71/60 49/65/60 50/76/60
f 48/74/61 54/12/61 47/24/61
f 46/64/62 51/89/62 45/21/62
f 50/76/63 43/19/63 44/72/63
f 42/55/64 47/24/64 41/66/64
f 46/64/65 37/67/65 38/73/65
f 59/69/66 43/19/66 60/31/66
f 57/56/67 41/66/67 58/15/67
f 40/90/68 56/27/68 55/71/68
f 38/73/69 54/12/69 53/70/69
f 67/62/70 18/60/70 19/75/70
f 61/3/71 14/60/71 62/54/71
f 61/3/72 57/56/72 40/90/72
f 76/85/73 74/52/73 75/51/73
f 78/50/74 75/51/74 77/82/74
f 80/46/75 77/82/75 79/81/75
f 80/46/76 81/87/76 82/40/76
f 82/40/77 83/83/77 84/38/77
f 84/38/78 85/77/78 86/47/78
f 88/41/79 85/77/79 87/78/79
f 90/32/80 87/78/80 89/84/80
f 92/49/81 89/84/81 91/79/81
f 92/49/82 93/80/82 94/44/82
f 94/44/83 95/88/83 96/37/83
f 96/37/84 74/52/84 73/35/84
f 73/35/85 35/86/85 36/91/85
f 109/36/86 97/92/86 108/93/86
f 119/86/87 99/94/87 98/95/87
f 111/33/88 105/96/88 112/34/88
f 114/48/89 102/97/89 115/53/89
f 117/45/90 99/94/90 118/39/90
f 111/33/91 107/98/91 106/99/91
f 114/48/92 104/100/92 103/101/92
f 117/45/93 101/102/93 100/103/93
f 110/43/94 108/93/94 107/98/94
f 120/91/95 98/95/95 97/92/95
f 112/34/96 104/100/96 113/42/96
f 115/53/97 101/102/97 116/39/97
f 129/104/98 135/105/98 136/106/98
f 134/107/99 122/108/99 133/109/99
f 138/110/100 124/111/100 137/112/100
f 142/113/101 126/114/101 141/115/101
f 121/116/102 128/117/102 122/108/102
f 124/111/103 131/118/103 132/119/103
f 126/114/104 139/120/104 140/121/104
f 128/117/105 143/122/105 144/108/105
f 132/119/106 130/123/106 129/104/106
f 136/106/107 134/107/107 133/109/107
f 139/120/108 137/112/108 140/121/108
f 143/122/109 141/115/109 144/108/109
f 119/86/110 122/108/110 118/39/110
f 98/95/111 135/105/111 97/92/111
f 112/34/112 124/111/112 111/33/112
f 123/124/113 105/96/113 106/99/113
f 120/91/114 133/109/114 119/86/114
f 121/116/115 98/95/115 99/94/115
f 140/121/116 112/34/116 113/42/116
f 107/98/117 123/124/117 106/99/117
f 127/125/118 99/94/118 100/103/118
f 126/114/119 113/42/119 114/48/119
f 108/93/120 131/118/120 107/98/120
f 101/102/121 127/125/121 100/103/121
f 141/115/122 114/48/122 115/53/122
f 97/92/123 130/123/123 108/93/123
f 142/113/124 101/102/124 102/97/124
f 144/108/125 115/53/125 116/39/125
f 129/104/126 120/91/126 109/36/126
f 125/126/127 102/97/127 103/101/127
f 128/117/128 116/39/128 117/45/128
f 132/119/129 109/36/129 110/43/129
f 104/100/130 125/126/130 103/101/130
f 118/39/131 128/117/131 117/45/131
f 124/111/132 110/43/132 111/33/132
f 138/110/133 104/100/133 105/96/133
f 137/112/134 132/119/134 136/106/134
f 145/127/135 152/128/135 148/129/135
f 150/130/136 145/127/136 146/131/136
f 151/132/137 146/131/137 147/133/137
f 148/129/138 151/132/138 147/133/138
f 153/134/139 152/128/139 149/135/139
f 154/136/140 149/135/140 150/130/140
f 151/132/141 154/136/141 150/130/141
f 152/128/142 155/137/142 151/132/142
f 153/134/143 160/138/143 156/139/143
f 154/136/144 157/140/144 153/134/144
f 159/141/145 154/136/145 155/137/145
f 160/138/146 155/137/146 156/139/146
f 161/142/147 160/138/147 157/140/147
f 162/143/148 157/140/148 158/144/148
f 159/141/149 162/143/149 158/144/149
f 160/138/150 163/145/150 159/141/150
f 161/142/151 168/146/151 164/147/151
f 166/148/152 161/142/152 162/143/152
f 167/149/153 162/143/153 163/145/153
f 164/147/154 167/149/154 163/145/154
f 169/150/155 168/146/155 165/151/155
f 166/148/156 169/150/156 165/151/156
f 167/149/157 170/152/157 166/148/157
f 172/153/158 167/149/158 168/146/158
f 173/154/159 172/153/159 169/150/159
f 170/152/160 173/154/160 169/150/160
f 171/155/161 174/156/161 170/152/161
f 176/157/162 171/155/162 172/153/162
f 177/158/163 176/157/163 173/154/163
f 178/159/164 173/154/164 174/156/164
f 175/160/165 178/159/165 174/156/165
f 176/157/166 179/161/166 175/160/166
f 177/158/167 184/162/167 180/163/167
f 178/159/168 181/164/168 177/158/168
f 183/165/169 178/159/169 179/161/169
f 184/162/170 179/161/170 180/163/170
f 185/166/171 184/162/171 181/164/171
f 186/167/172 181/164/172 182/168/172
f 183/165/173 186/167/173 182/168/173
f 184/162/174 187/169/174 183/165/174
f 185/166/175 192/170/175 188/171/175
f 186/167/176 189/172/176 185/166/176
f 191/173/177 186/167/177 187/169/177
f 192/170/178 187/169/178 188/171/178
f 189/172/179 148/129/179 192/170/179
f 146/131/180 189/172/180 190/174/180
f 147/133/181 190/174/181 191/173/181
f 192/170/182 147/133/182 191/173/182
f 196/175/183 201/176/183 193/177/183
f 206/178/184 195/179/184 198/180/184
f 208/181/185 197/182/185 200/183/185
f 209/184/186 207/185/186 202/186/186
f 211/187/187 201/176/187 204/188/187
f 206/178/188 212/189/188 203/190/188
f 208/181/189 214/191/189 205/192/189
f 213/193/190 214/191/190 216/194/190
f 193/177/191 202/186/191 194/195/191
f 199/196/192 208/181/192 200/183/192
f 203/190/193 196/175/193 195/179/193
f 205/192/194 198/180/194 197/182/194
f 210/197/195 202/186/195 201/176/195
f 216/194/196 208/181/196 207/185/196
f 203/190/197 211/187/197 204/188/197
f 205/192/198 213/193/198 206/178/198
f 194/195/199 207/185/199 199/196/199
f 72/1/200 24/8/200 13/2/200
f 64/4/201 16/59/201 17/5/201
f 71/7/202 23/61/202 24/8/202
f 69/9/203 68/68/203 20/10/203
f 54/12/204 37/67/204 2/13/204
f 58/15/205 41/66/205 6/16/205
f 7/18/206 60/31/206 43/19/206
f 45/21/207 51/89/207 12/22/207
f 47/24/208 54/12/208 1/14/208
f 11/26/209 49/65/209 56/27/209
f 3/28/210 56/27/210 39/29/210
f 12/22/211 51/89/211 60/31/211
f 90/32/212 92/49/212 27/33/212
f 73/35/213 36/91/213 25/36/213
f 84/38/214 31/53/214 32/39/214
f 88/41/215 90/32/215 28/34/215
f 96/37/216 25/36/216 26/43/216
f 82/40/217 32/39/217 33/45/217
f 86/47/218 88/41/218 29/42/218
f 94/44/219 26/43/219 27/33/219
f 78/50/220 80/46/220 33/45/220
f 4/30/221 5/17/221 75/51/221
f 86/47/222 30/48/222 31/53/222
f 62/54/223 63/6/223 42/55/223
f 70/57/224 69/9/224 21/11/224
f 15/5/225 14/60/225 18/60/225
f 14/60/226 13/2/226 19/75/226
f 13/2/227 24/8/227 20/10/227
f 24/8/228 23/61/228 20/10/228
f 13/2/229 20/10/229 19/75/229
f 23/61/230 22/58/230 21/11/230
f 21/11/231 20/10/231 23/61/231
f 19/75/232 18/60/232 14/60/232
f 18/60/225 17/5/225 15/5/225
f 65/6/233 17/5/233 18/60/233
f 70/57/234 22/58/234 23/61/234
f 64/4/235 63/6/235 15/5/235
f 67/62/236 68/68/236 52/63/236
f 8/20/237 43/19/237 49/65/237
f 41/66/238 47/24/238 10/25/238
f 39/29/239 58/15/239 5/17/239
f 37/67/240 45/21/240 9/23/240
f 68/68/241 69/9/241 59/69/241
f 66/54/242 38/73/242 53/70/242
f 61/3/243 40/90/243 55/71/243
f 69/9/244 70/57/244 44/72/244
f 67/62/245 46/64/245 38/73/245
f 63/6/246 62/54/246 14/60/246
f 63/6/247 64/4/247 48/74/247
f 71/7/248 50/76/248 44/72/248
f 68/68/249 67/62/249 19/75/249
f 65/6/250 53/70/250 48/74/250
f 72/1/251 55/71/251 50/76/251
f 85/77/252 9/23/252 12/22/252
f 91/79/253 8/20/253 11/26/253
f 6/16/254 10/25/254 79/81/254
f 83/83/255 2/13/255 9/23/255
f 89/84/256 7/18/256 8/20/256
f 5/17/257 6/16/257 77/82/257
f 76/85/258 78/50/258 34/39/258
f 81/87/259 1/14/259 2/13/259
f 87/78/260 12/22/260 7/18/260
f 95/88/261 3/28/261 4/30/261
f 93/80/262 11/26/262 3/28/262
f 79/81/263 10/25/263 1/14/263
f 52/63/264 59/69/264 60/31/264
f 40/90/265 57/56/265 58/15/265
f 55/71/266 56/27/266 49/65/266
f 48/74/267 53/70/267 54/12/267
f 46/64/268 52/63/268 51/89/268
f 50/76/269 49/65/269 43/19/269
f 42/55/270 48/74/270 47/24/270
f 46/64/271 45/21/271 37/67/271
f 59/69/272 44/72/272 43/19/272
f 57/56/273 42/55/273 41/66/273
f 40/90/274 39/29/274 56/27/274
f 38/73/275 37/67/275 54/12/275
f 67/62/276 66/54/276 18/60/276
f 61/3/277 13/2/277 14/60/277
f 61/3/278 62/54/278 57/56/278
f 76/85/279 73/35/279 74/52/279
f 78/50/280 76/85/280 75/51/280
f 80/46/281 78/50/281 77/82/281
f 80/46/282 79/81/282 81/87/282
f 82/40/283 81/87/283 83/83/283
f 84/38/284 83/83/284 85/77/284
f 88/41/285 86/47/285 85/77/285
f 90/32/286 88/41/286 87/78/286
f 92/49/287 90/32/287 89/84/287
f 92/49/288 91/79/288 93/80/288
f 94/44/289 93/80/289 95/88/289
f 96/37/290 95/88/290 74/52/290
f 73/35/291 76/85/291 35/86/291
f 109/36/292 120/91/292 97/92/292
f 119/86/293 118/39/293 99/94/293
f 111/33/294 106/99/294 105/96/294
f 114/48/295 103/101/295 102/97/295
f 117/45/296 100/103/296 99/94/296
f 111/33/297 110/43/297 107/98/297
f 114/48/298 113/42/298 104/100/298
f 117/45/299 116/39/299 101/102/299
f 110/43/300 109/36/300 108/93/300
f 120/91/301 119/86/301 98/95/301
f 112/34/302 105/96/302 104/100/302
f 115/53/303 102/97/303 101/102/303
f 129/104/304 130/123/304 135/105/304
f 134/107/305 121/116/305 122/108/305
f 138/110/306 123/124/306 124/111/306
f 142/113/307 125/126/307 126/114/307
f 121/116/308 127/125/308 128/117/308
f 124/111/309 123/124/309 131/118/309
f 126/114/310 125/126/310 139/120/310
f 128/117/311 127/125/311 143/122/311
f 132/119/312 131/118/312 130/123/312
f 136/106/313 135/105/313 134/107/313
f 139/120/314 138/110/314 137/112/314
f 143/122/315 142/113/315 141/115/315
f 119/86/110 133/109/110 122/108/110
f 98/95/111 134/107/111 135/105/111
f 112/34/316 137/112/316 124/111/316
f 123/124/113 138/110/113 105/96/113
f 120/91/114 136/106/114 133/109/114
f 121/116/115 134/107/115 98/95/115
f 140/121/116 137/112/116 112/34/116
f 107/98/117 131/118/117 123/124/117
f 127/125/118 121/116/118 99/94/118
f 126/114/119 140/121/119 113/42/119
f 108/93/120 130/123/120 131/118/120
f 101/102/121 143/122/121 127/125/121
f 141/115/122 126/114/122 114/48/122
f 97/92/123 135/105/123 130/123/123
f 142/113/124 143/122/124 101/102/124
f 144/108/125 141/115/125 115/53/125
f 129/104/126 136/106/126 120/91/126
f 125/126/127 142/113/127 102/97/127
f 128/117/128 144/108/128 116/39/128
f 132/119/129 129/104/129 109/36/129
f 104/100/130 139/120/130 125/126/130
f 118/39/131 122/108/131 128/117/131
f 124/111/132 132/119/132 110/43/132
f 138/110/133 139/120/133 104/100/133
f 136/106/317 133/109/317 126/114/317
f 133/109/318 122/108/318 144/108/318
f 122/108/319 128/117/319 144/108/319
f 144/108/320 141/115/320 133/109/320
f 141/115/321 126/114/321 133/109/321
f 126/114/322 140/121/322 136/106/322
f 140/121/323 137/112/323 136/106/323
f 137/112/324 124/111/324 132/119/324
f 132/119/325 129/104/325 136/106/325
f 145/127/326 149/135/326 152/128/326
f 150/130/327 149/135/327 145/127/327
f 151/132/328 150/130/328 146/131/328
f 148/129/329 152/128/329 151/132/329
f 153/134/330 156/139/330 152/128/330
f 154/136/331 153/134/331 149/135/331
f 151/132/332 155/137/332 154/136/332
f 152/128/333 156/139/333 155/137/333
f 153/134/334 157/140/334 160/138/334
f 154/136/335 158/144/335 157/140/335
f 159/141/336 158/144/336 154/136/336
f 160/138/337 159/141/337 155/137/337
f 161/142/338 164/147/338 160/138/338
f 162/143/339 161/142/339 157/140/339
f 159/141/340 163/145/340 162/143/340
f 160/138/341 164/147/341 163/145/341
f 161/142/342 165/151/342 168/146/342
f 166/148/343 165/151/343 161/142/343
f 167/149/344 166/148/344 162/143/344
f 164/147/345 168/146/345 167/149/345
f 169/150/346 172/153/346 168/146/346
f 166/148/347 170/152/347 169/150/347
f 167/149/348 171/155/348 170/152/348
f 172/153/349 171/155/349 167/149/349
f 173/154/350 176/157/350 172/153/350
f 170/152/351 174/156/351 173/154/351
f 171/155/352 175/160/352 174/156/352
f 176/157/353 175/160/353 171/155/353
f 177/158/354 180/163/354 176/157/354
f 178/159/355 177/158/355 173/154/355
f 175/160/356 179/161/356 178/159/356
f 176/157/357 180/163/357 179/161/357
f 177/158/358 181/164/358 184/162/358
f 178/159/359 182/168/359 181/164/359
f 183/165/360 182/168/360 178/159/360
f 184/162/361 183/165/361 179/161/361
f 185/166/362 188/171/362 184/162/362
f 186/167/363 185/166/363 181/164/363
f 183/165/364 187/169/364 186/167/364
f 184/162/365 188/171/365 187/169/365
f 185/166/366 189/172/366 192/170/366
f 186/167/367 190/174/367 189/172/367
f 191/173/368 190/174/368 186/167/368
f 192/170/369 191/173/369 187/169/369
f 189/172/370 145/127/370 148/129/370
f 146/131/371 145/127/371 189/172/371
f 147/133/372 146/131/372 190/174/372
f 192/170/373 148/129/373 147/133/373
f 196/175/374 204/188/374 201/176/374
f 206/178/375 203/190/375 195/179/375
f 208/181/376 205/192/376 197/182/376
f 209/184/377 216/194/377 207/185/377
f 211/187/378 210/197/378 201/176/378
f 206/178/379 213/193/379 212/189/379
f 208/181/380 215/198/380 214/191/380
f 214/191/190 215/198/190 216/194/190
f 216/194/190 209/184/190 212/189/190
f 209/184/190 210/197/190 212/189/190
f 210/197/190 211/187/190 212/189/190
f 212/189/190 213/193/190 216/194/190
f 193/177/381 201/176/381 202/186/381
f 199/196/382 207/185/382 208/181/382
f 203/190/383 204/188/383 196/175/383
f 205/192/384 206/178/384 198/180/384
f 210/197/385 209/184/385 202/186/385
f 216/194/386 215/198/386 208/181/386
f 203/190/387 212/189/387 211/187/387
f 205/192/388 214/191/388 213/193/388
f 194/195/389 202/186/389 207/185/389
