# Blender 4.4.0
# www.blender.org
mtllib Prop_Hay_Pile_01.mtl
o Prop_Hay_Pile_01
v -0.000006 0.122767 -1.442895
v -0.552331 0.081214 -1.333030
v -1.020570 0.169980 -1.020163
v -1.333437 0.122767 -0.551924
v -1.443302 0.138182 0.000401
v -1.333437 0.122767 0.552727
v -1.020570 0.146686 1.020966
v -0.552331 0.122767 1.333833
v -0.000006 0.149614 1.443698
v 0.552320 0.158488 1.333833
v 1.020559 0.122767 1.020966
v 1.333426 0.122767 0.552727
v 1.443291 0.134683 0.000401
v 1.333426 0.122767 -0.551924
v 1.020559 0.122767 -1.020163
v 0.552320 0.171243 -1.333030
v -1.025404 0.772143 0.425135
v 1.025393 0.772143 -0.424332
v -0.000006 0.772143 -1.109482
v -0.784811 0.772143 0.785207
v 0.784800 0.792912 -0.784405
v -0.000006 0.772143 1.110285
v -0.424739 0.772143 -1.024997
v 0.424728 0.772143 1.025800
v -0.793341 0.764196 -0.792998
v 0.784800 0.772143 0.785207
v -1.025404 0.782377 -0.424332
v 1.046351 0.754713 0.427799
v -1.109889 0.772143 0.000401
v 1.125237 0.785754 -0.002594
v -1.157604 0.439834 0.481858
v 1.171925 0.439834 -0.485028
v -0.000006 0.439834 -1.268087
v -0.910416 0.388605 0.911978
v 0.886951 0.439834 -0.875201
v -0.000006 0.439834 1.268890
v -0.483348 0.439834 -1.166620
v 0.483975 0.439834 1.156607
v 0.890476 0.439834 0.891767
v -1.171050 0.392444 -0.480204
v 1.171925 0.439834 0.485831
v -1.268494 0.439834 0.000401
v 1.268483 0.439834 0.000401
v -0.607670 0.000000 -1.466631
v -0.000006 0.000000 -1.587503
v -1.155999 0.000000 -1.137549
v -1.467038 0.000000 -0.607263
v -1.587910 0.026507 0.000401
v -1.391030 0.000000 0.593955
v -1.104733 0.000000 1.206604
v -0.671188 0.000000 1.349343
v -0.063370 0.000000 1.708688
v 0.607659 0.000000 1.467434
v 1.122813 0.000000 1.123219
v 1.467027 0.000000 0.608066
v 1.587899 0.046663 0.000401
v 1.467027 0.000000 -0.607263
v 1.068720 0.000000 -1.084709
v 0.616875 0.000000 -1.492400
v 0.430909 0.772500 -1.020868
v 0.418902 0.772143 -1.019201
v 0.473617 0.439834 -1.166977
v 0.491398 0.439834 -1.167121
v 0.505865 0.344062 -1.220878
v -0.882669 0.439834 -0.905889
v -0.954484 0.274954 -0.952010
v -0.899095 0.438217 -0.873064
v -0.817146 0.654943 -0.814673
v -0.430841 0.772143 1.021723
v -0.416566 0.772143 1.019996
v -0.464960 0.439834 1.169167
v -0.491641 0.439086 1.168531
v -0.526464 0.215203 1.271384
v -0.000006 1.829191 0.000401
v -0.714708 1.532342 0.296441
v -0.547015 1.532342 0.547411
v 0.714697 1.532342 -0.295638
v 0.547004 1.532342 -0.546608
v 0.296034 1.530634 -0.714301
v -0.000008 1.544813 0.773930
v -0.000006 1.543794 -0.773187
v 0.306740 1.499974 0.742277
v -0.563848 1.532342 -0.554377
v 0.547004 1.532342 0.547411
v -0.714708 1.532342 -0.295638
v 0.751644 1.493207 0.311432
v -0.773594 1.532342 0.000401
v 0.005067 1.721430 -0.573862
v -0.403537 1.721174 -0.404613
v -0.528800 1.740154 -0.217144
v -0.572787 1.721174 0.003991
v -0.528800 1.721061 0.225126
v -0.403537 1.728785 0.412595
v 0.003712 1.721174 0.570042
v 0.226202 1.743466 0.537858
v 0.413671 1.721190 0.412595
v 0.538934 1.704921 0.225126
v 0.538934 1.721287 -0.217144
v 0.413671 1.721174 -0.404613
v 0.226202 1.721174 -0.529876
v -0.153871 1.812809 -0.371062
v -0.000006 1.829551 -0.401668
v -0.284311 1.810571 -0.283905
v -0.371469 1.810915 -0.153464
v -0.402075 1.809381 0.000401
v -0.371469 1.801907 0.154267
v -0.284311 1.808794 0.284707
v -0.153871 1.805816 0.371865
v -0.000010 1.812260 0.402434
v 0.153860 1.829277 0.371865
v 0.371458 1.812149 0.154267
v 0.402064 1.813900 0.000401
v 0.371458 1.837385 -0.153464
v 0.284300 1.814252 -0.283905
v 0.153860 1.813177 -0.371062
v -0.288944 1.545597 0.718286
v -0.314878 1.534308 0.727929
v -0.228169 1.722623 0.529772
v -0.205018 1.726079 0.526706
v -0.177487 1.771716 0.434893
v 0.263660 1.825222 0.298499
v 0.299998 1.811929 0.300225
v 0.331054 1.817856 0.214735
v 0.116268 1.827256 0.116674
v 0.771730 1.527869 -0.008914
v 0.772924 1.531167 0.009743
v 0.581100 1.704528 0.013142
v 0.581084 1.701014 -0.005239
v 0.452742 1.780792 0.001407
v -0.307809 1.510072 -0.728174
v -0.299582 1.510123 -0.731137
v -0.211208 1.717365 -0.527319
v -0.235185 1.718482 -0.514798
v -0.177407 1.777688 -0.431159
v -0.703768 1.532342 0.291909
v -0.532819 1.526047 0.556436
v 0.699118 1.532342 -0.289272
v 0.538631 1.532342 -0.538235
v -0.291513 1.532342 0.704163
v 0.289594 1.532342 -0.727897
v -0.000006 1.532342 -0.761345
v -0.277480 1.527951 -0.681299
v 0.291502 1.532342 0.704163
v -0.538642 1.532342 -0.538235
v 0.538631 1.532342 0.539038
v -0.703768 1.532342 -0.291106
v 0.703756 1.532342 0.291909
v -0.786490 1.532342 -0.002139
v 0.761741 1.532342 0.000401
v -1.043077 0.793615 0.432456
v 1.043066 0.765527 -0.431653
v -0.000006 0.785386 -1.128611
v -0.798338 0.772143 0.798734
v 0.798327 0.793844 -0.797931
v -0.432060 0.772143 1.043473
v 0.432049 0.772143 -1.042670
v -0.000006 0.772143 1.129414
v -0.432060 0.772143 -1.042670
v 0.432049 0.772143 1.043473
v -0.798338 0.772484 -0.797931
v 0.798327 0.772143 0.798734
v -1.043077 0.794749 -0.431653
v 1.043066 0.760454 0.432456
v -1.129018 0.772143 0.000401
v 0.668479 1.152242 -0.668083
v -0.361787 1.152242 0.873818
v 0.353319 1.152242 -0.857410
v -0.361787 1.152242 -0.873015
v 0.353420 1.152242 0.857837
v -0.657374 1.152242 -0.652716
v 0.668479 1.152242 0.668886
v -0.873422 1.152242 -0.361380
v 0.864964 1.113550 0.359812
v -0.962492 1.068830 -0.006856
v -0.873422 1.152242 0.362182
v 0.849627 1.152242 -0.351955
v -0.000006 1.152242 -0.944978
v -0.011926 1.523063 0.763303
v 0.007496 1.523066 0.756050
v 0.006401 1.152242 0.935632
v -0.012955 1.152242 0.943205
v -0.000006 1.025730 1.006901
v -0.599714 1.348946 0.606335
v -0.677011 1.152242 0.639448
v -0.705200 1.029176 0.706682
v -0.636973 1.152242 0.675673
v 1.114498 0.794197 -0.020636
v 1.125051 0.795441 0.005676
v 0.941507 1.151772 0.005674
v 0.930045 1.152242 -0.016347
v 0.875030 1.297846 0.000401
v -0.105846 1.810990 0.025440
v -0.053905 1.802782 0.025440
v -0.105846 1.810990 -0.010279
v -0.053905 1.802782 -0.010279
v -0.002317 2.300000 -0.011718
v -0.002317 2.300000 0.011443
v 0.037194 2.293756 0.011443
v 0.037194 2.293756 -0.011718
v 0.060318 1.810241 -0.067619
v 0.112072 1.810241 -0.067619
v 0.060318 1.810241 -0.119372
v 0.112072 1.810241 -0.119372
v 0.023319 2.210047 -0.022831
v 0.023319 2.210047 0.015486
v 0.061636 2.210047 0.015486
v 0.061636 2.210047 -0.022831
v 0.039940 1.795369 0.056953
v 0.090209 1.806131 0.056953
v 0.039940 1.795369 0.028245
v 0.090209 1.806131 0.028245
v -0.016321 2.077441 0.021397
v -0.016321 2.077441 0.042877
v 0.021292 2.085493 0.042877
v 0.021292 2.085493 0.021397
v 0.508570 1.549916 0.508948
v 0.518932 1.547473 0.497204
v 0.518801 1.558507 0.515353
v 0.529163 1.556064 0.503609
v 0.627424 1.382199 0.659469
v 0.632466 1.381011 0.653754
v 0.632402 1.386379 0.662585
v 0.637445 1.385191 0.656871
v 0.523498 1.543259 0.498092
v 0.535440 1.547949 0.489196
v 0.528670 1.550325 0.510502
v 0.540612 1.555014 0.501606
v 0.689175 1.370001 0.579090
v 0.694986 1.372283 0.574761
v 0.691692 1.373439 0.585128
v 0.697503 1.375721 0.580800
v -0.593708 1.546879 0.406340
v -0.584079 1.544436 0.418692
v -0.601892 1.555470 0.415213
v -0.592264 1.553027 0.427565
v -0.743067 1.383543 0.466478
v -0.737785 1.382203 0.473254
v -0.747557 1.388256 0.471345
v -0.742275 1.386916 0.478122
v -0.583266 1.538064 0.424695
v -0.576727 1.542753 0.438074
v -0.596417 1.545129 0.427487
v -0.589879 1.549819 0.440866
v -0.675821 1.398674 0.543825
v -0.672025 1.401397 0.551593
v -0.683456 1.402776 0.545446
v -0.679660 1.405499 0.553214
v -0.612315 1.555090 0.370233
v -0.603699 1.549004 0.382064
v -0.621179 1.560974 0.380545
v -0.612562 1.554888 0.392376
v -0.730836 1.432656 0.386393
v -0.725192 1.428669 0.394143
v -0.736642 1.436510 0.393148
v -0.730998 1.432523 0.400898
v -0.660311 1.460231 0.510521
v -0.669467 1.465150 0.512465
v -0.664915 1.468415 0.521780
v -0.655759 1.463496 0.519836
v -0.724291 1.417956 0.474769
v -0.729245 1.423156 0.480140
v -0.723417 1.421678 0.487618
v -0.718463 1.416477 0.482247
v -0.264123 1.543696 -0.668561
v -0.278303 1.541254 -0.661912
v -0.270959 1.552287 -0.678509
v -0.285140 1.549845 -0.671861
v -0.289628 1.380361 -0.827540
v -0.297408 1.379021 -0.823892
v -0.293379 1.385074 -0.832997
v -0.301158 1.383734 -0.829350
v -0.284337 1.534881 -0.662451
v -0.298834 1.539571 -0.659043
v -0.284142 1.541947 -0.675894
v -0.298638 1.546636 -0.672487
v -0.379967 1.395492 -0.779128
v -0.388383 1.398215 -0.777149
v -0.379853 1.399594 -0.786932
v -0.388269 1.402317 -0.784954
v -0.224788 1.551908 -0.678695
v -0.238236 1.545822 -0.672918
v -0.232876 1.557792 -0.689625
v -0.246324 1.551706 -0.683848
v -0.214252 1.429473 -0.797847
v -0.223061 1.425487 -0.794063
v -0.219551 1.433328 -0.805007
v -0.228360 1.429341 -0.801223
v -0.350933 1.457049 -0.756616
v -0.350797 1.461967 -0.765975
v -0.360890 1.465232 -0.763603
v -0.361026 1.460314 -0.754244
v -0.301879 1.414773 -0.811071
v -0.306017 1.419974 -0.817093
v -0.314601 1.418496 -0.813069
v -0.310463 1.413295 -0.807046
v -0.413770 0.774530 1.005904
v -0.398363 0.775897 1.009368
v -0.416498 0.783615 1.017286
v -0.401091 0.784981 1.020750
v -0.452893 0.615845 1.159693
v -0.444440 0.616595 1.161594
v -0.454389 0.620829 1.165937
v -0.445937 0.621579 1.167838
v -0.392622 0.771030 1.013914
v -0.380552 0.779131 1.019608
v -0.402485 0.776764 1.023939
v -0.390415 0.784866 1.029634
v -0.358080 0.647925 1.174661
v -0.351072 0.652628 1.177967
v -0.363806 0.651254 1.180482
v -0.356799 0.655957 1.183788
v -0.451827 0.772802 0.989593
v -0.436675 0.770396 0.993579
v -0.453572 0.779463 1.002712
v -0.438421 0.777057 1.006698
v -0.503818 0.641977 1.086960
v -0.493892 0.640401 1.089571
v -0.504961 0.646340 1.095554
v -0.495035 0.644764 1.098164
v -0.380734 0.702938 1.134670
v -0.387601 0.706930 1.141650
v -0.379198 0.712570 1.145615
v -0.372331 0.708578 1.138635
v -0.436968 0.640330 1.127931
v -0.438793 0.646409 1.135546
v -0.428484 0.647323 1.137864
v -0.426659 0.641245 1.130249
v -1.059898 0.774530 -0.240275
v -1.060719 0.775897 -0.224505
v -1.071577 0.783615 -0.241048
v -1.072398 0.784981 -0.225278
v -1.218078 0.615845 -0.252954
v -1.218529 0.616595 -0.244302
v -1.224485 0.620829 -0.253377
v -1.224936 0.621579 -0.244726
v -1.064233 0.771030 -0.218081
v -1.067815 0.779131 -0.205224
v -1.075776 0.776764 -0.226115
v -1.079358 0.784866 -0.213259
v -1.216873 0.647925 -0.156974
v -1.218953 0.652628 -0.149510
v -1.223575 0.651254 -0.161639
v -1.225654 0.655957 -0.154175
v -1.050226 0.772802 -0.280535
v -1.051604 0.770396 -0.264928
v -1.063451 0.779463 -0.280047
v -1.064829 0.777057 -0.264440
v -1.154954 0.641977 -0.315394
v -1.155857 0.640401 -0.305171
v -1.163618 0.646340 -0.315075
v -1.164521 0.644764 -0.304851
v -1.181266 0.702938 -0.186036
v -1.189302 0.706930 -0.191630
v -1.191796 0.712570 -0.182679
v -1.183759 0.708578 -0.177086
v -1.184088 0.640330 -0.242603
v -1.191902 0.646409 -0.243120
v -1.192452 0.647323 -0.232568
v -1.184638 0.641245 -0.232050
v 1.001919 0.781203 0.429011
v 1.005593 0.782570 0.413652
v 1.013263 0.790287 0.431893
v 1.016936 0.791654 0.416535
v 1.155161 0.622518 0.470224
v 1.157177 0.623268 0.461798
v 1.161384 0.627502 0.471805
v 1.163400 0.628252 0.463379
v 1.010215 0.771030 0.407974
v 1.016074 0.779131 0.395982
v 1.020106 0.776764 0.417972
v 1.025964 0.784866 0.405981
v 1.171418 0.647925 0.375624
v 1.174820 0.652628 0.368662
v 1.177161 0.651254 0.381429
v 1.180562 0.655957 0.374467
v 0.985091 0.776515 0.466842
v 0.989283 0.774109 0.451746
v 0.998185 0.783175 0.468766
v 1.002377 0.780770 0.453670
v 1.081741 0.645690 0.520154
v 1.084486 0.644114 0.510265
v 1.090318 0.650053 0.521414
v 1.093064 0.648477 0.511525
v 1.131123 0.702938 0.397731
v 1.138008 0.706930 0.404692
v 1.142087 0.712570 0.396344
v 1.135201 0.708578 0.389383
v 1.123618 0.647003 0.453869
v 1.131208 0.653081 0.455797
v 1.133666 0.653996 0.445520
v 1.126076 0.647917 0.443592
v 0.497377 0.774530 -0.969060
v 0.482301 0.775897 -0.973763
v 0.501019 0.783615 -0.980183
v 0.485944 0.784981 -0.984886
v 0.548849 0.615845 -1.119167
v 0.540579 0.616595 -1.121748
v 0.550847 0.620829 -1.125269
v 0.542577 0.621579 -1.127849
v 0.533984 0.772802 -0.949715
v 0.519206 0.770396 -0.954917
v 0.536788 0.779463 -0.962648
v 0.522010 0.777057 -0.967851
v 0.593704 0.641977 -1.042541
v 0.584023 0.640401 -1.045949
v 0.595541 0.646340 -1.051014
v 0.585860 0.644764 -1.054422
v 0.530400 0.640330 -1.088802
v 0.532837 0.646409 -1.096244
v 0.522750 0.647323 -1.099391
v 0.520313 0.641245 -1.091949
vn -0.7651 0.3916 0.5112
vn 0.7326 0.4208 -0.5351
vn 0.0085 1.0000 0.0035
vn -0.5098 0.4233 0.7489
vn -0.5110 0.4160 0.7522
vn -0.1861 0.4232 -0.8867
vn 0.5066 0.3493 -0.7883
vn 0.2049 0.4216 0.8833
vn -0.7477 0.4770 -0.4620
vn 0.5111 0.3922 0.7649
vn -0.4943 0.4271 -0.7571
vn 0.7467 0.4063 0.5266
vn -0.9032 0.3688 -0.2195
vn 0.9020 0.3928 0.1794
vn -0.8836 0.4217 0.2035
vn 0.9009 0.3711 -0.2252
vn -0.0969 0.8678 -0.4874
vn 0.0993 0.7586 -0.6440
vn 0.1353 0.6658 0.7338
vn -0.3635 0.7079 -0.6057
vn 0.3636 0.7561 0.5442
vn -0.5613 0.7593 -0.3292
vn 0.5442 0.7561 0.3636
vn -0.6050 0.7834 -0.1422
vn 0.5161 0.8479 0.1210
vn -0.8644 0.4676 0.1850
vn 0.6233 0.7605 -0.1824
vn -0.6231 0.7260 0.2912
vn 0.7072 0.5259 -0.4725
vn -0.4527 0.5289 0.7179
vn 0.4873 0.6863 -0.5400
vn -0.1346 0.8763 0.4626
vn 0.5222 0.4761 -0.7076
vn 0.8551 0.4898 -0.1701
vn -0.8485 0.4917 0.1954
vn 0.8603 0.4765 0.1814
vn -0.8212 0.5420 -0.1785
vn 0.7142 0.4948 0.4952
vn 0.4555 0.5511 0.6992
vn -0.5166 0.2735 -0.8114
vn 0.1600 0.5093 0.8456
vn -0.1808 0.4749 -0.8613
vn 0.1774 0.5274 -0.8309
vn -0.1874 0.4489 0.8737
vn 0.7118 0.4723 -0.5199
vn -0.7206 0.5057 0.4744
vn -0.0070 0.4886 -0.8725
vn -0.0074 0.4013 -0.9159
vn 0.1907 0.4249 -0.8849
vn -0.8213 0.4158 -0.3905
vn -0.7679 0.3625 -0.5281
vn -0.0334 0.4215 0.9062
vn -0.0332 0.4082 0.9123
vn -0.1917 0.4250 0.8846
vn -0.5795 0.7171 0.3872
vn 0.5865 0.7086 -0.3923
vn -0.2082 0.9096 0.3594
vn 0.3894 0.7132 -0.5828
vn 0.6697 0.7295 0.1390
vn -0.1229 0.8596 -0.4960
vn 0.1373 0.7144 -0.6861
vn 0.0189 0.7560 0.6543
vn 0.0013 -0.9998 -0.0221
vn 0.4167 0.6614 0.6236
vn -0.5717 0.7497 -0.3333
vn 0.6241 0.6952 0.3567
vn -0.7262 0.6821 -0.0859
vn 0.5017 0.8595 0.0982
vn -0.6800 0.7206 0.1353
vn -0.1549 0.7395 -0.6551
vn -0.3818 0.6961 0.6080
vn -0.2661 0.8639 -0.4277
vn -0.3249 0.9199 -0.2195
vn -0.4592 0.8882 -0.0151
vn -0.4249 0.9013 0.0850
vn -0.3757 0.9017 0.2139
vn -0.0676 0.9014 0.4278
vn -0.0211 0.8843 0.4664
vn 0.0663 0.9966 -0.0497
vn 0.5269 0.8496 -0.0235
vn 0.3908 0.8825 -0.2617
vn 0.2563 0.8824 -0.3945
vn 0.1917 0.8337 -0.5178
vn -0.1080 0.9942 0.0009
vn -0.0365 0.9989 -0.0289
vn -0.0376 0.9989 -0.0278
vn -0.0492 0.9988 0.0002
vn -0.0491 0.9971 0.0582
vn -0.0744 0.9972 -0.0029
vn -0.0150 0.9983 0.0566
vn -0.0501 0.9979 0.0420
vn -0.1016 0.9939 0.0419
vn 0.2752 0.8977 0.3441
vn 0.4557 0.8599 0.2299
vn 0.0380 0.9991 0.0189
vn 0.0376 0.9889 0.1435
vn -0.0740 0.9893 -0.1260
vn 0.0161 0.9992 -0.0364
vn 0.1056 0.9944 0.0009
vn -0.0784 0.9019 0.4248
vn -0.0723 0.7386 0.6703
vn -0.1234 0.7487 0.6513
vn 0.0612 0.9974 -0.0385
vn 0.0288 0.9995 -0.0122
vn 0.5150 0.8419 -0.1614
vn 0.6605 0.7309 -0.1715
vn 0.6661 0.7360 -0.1210
vn -0.2042 0.8600 -0.4677
vn -0.2353 0.7307 -0.6409
vn -0.3406 0.7279 -0.5951
vn -0.9256 0.3500 0.1443
vn 0.8924 0.3906 -0.2258
vn -0.8667 0.4327 -0.2481
vn 0.7514 0.4282 0.5021
vn -0.7647 0.3927 -0.5109
vn 0.5110 0.3924 0.7648
vn -0.5251 0.4774 -0.7046
vn 0.0124 0.9999 0.0009
vn 0.2255 0.3479 -0.9100
vn -0.2576 0.4203 -0.8700
vn 0.1978 0.4268 0.8825
vn 0.4663 0.4244 -0.7762
vn 0.7743 0.3889 -0.4991
vn -0.5166 0.4672 0.7175
vn 0.8685 0.4499 -0.2081
vn 0.1926 0.4742 0.8591
vn -0.4950 0.4288 0.7557
vn 0.7499 0.4709 -0.4647
vn -0.7291 0.4491 0.5165
vn 0.4611 0.4452 -0.7676
vn -0.1751 0.4407 -0.8804
vn 0.1867 0.4614 -0.8673
vn -0.1763 0.4282 0.8863
vn -0.5018 0.4282 -0.7516
vn 0.4553 0.4650 0.7592
vn -0.7232 0.4640 -0.5115
vn 0.7880 0.4223 0.4481
vn -0.8878 0.4446 -0.1185
vn -0.0242 -0.9991 -0.0362
vn -0.8610 0.4869 0.1471
vn 0.8863 0.4282 0.1763
vn 0.3251 0.4516 0.8309
vn 0.3322 0.4110 0.8490
vn -0.1734 0.4280 0.8870
vn -0.6254 0.3621 0.6912
vn -0.7553 0.4257 0.4983
vn 0.8299 0.3624 -0.4242
vn 0.8315 0.4283 -0.3537
vn 0.8567 0.4740 0.2034
vn 0.1561 0.9877 -0.0000
vn -0.0005 -0.0028 -1.0000
vn 0.0044 0.0277 0.9996
vn 0.9832 -0.1824 -0.0000
vn -0.9783 0.2071 -0.0000
vn -0.0000 1.0000 -0.0000
vn -0.0000 0.2347 -0.9721
vn -0.0000 -0.2035 0.9791
vn 0.9921 0.1252 -0.0000
vn -0.9957 -0.0921 -0.0000
vn -0.2093 0.9778 -0.0000
vn 0.0050 -0.0233 -0.9997
vn -0.0102 0.0478 0.9988
vn 0.9709 0.2395 -0.0000
vn -0.9807 -0.1956 -0.0000
vn 0.3633 -0.7949 0.4859
vn -0.6395 0.2104 0.7394
vn 0.5931 0.7124 0.3752
vn -0.5790 -0.7322 -0.3586
vn 0.6502 -0.2358 -0.7223
vn 0.5116 -0.8208 0.2540
vn -0.7184 -0.4320 0.5453
vn 0.3133 0.5995 0.7366
vn -0.2959 -0.6219 -0.7250
vn 0.7373 0.4071 -0.5391
vn -0.5446 -0.7949 0.2673
vn -0.4232 0.4239 -0.8008
vn -0.7442 0.2327 0.6261
vn 0.7384 -0.2522 -0.6254
vn 0.4069 -0.4395 0.8008
vn -0.3442 -0.8208 0.4559
vn -0.3770 -0.3655 -0.8511
vn -0.8820 0.3592 0.3051
vn 0.8765 -0.3804 -0.2950
vn 0.3686 0.3449 0.8632
vn -0.5641 -0.8256 -0.0138
vn -0.5459 0.4338 -0.7168
vn -0.5175 0.5468 0.6582
vn 0.4979 -0.5684 -0.6550
vn 0.5266 -0.4599 0.7150
vn 0.4030 0.4310 0.8074
vn 0.6702 -0.7390 -0.0685
vn -0.6893 0.7195 0.0847
vn -0.4133 -0.4584 -0.7868
vn 0.5898 -0.2358 0.7724
vn 0.4594 -0.7322 -0.5029
vn -0.4782 0.7124 0.5136
vn -0.6086 0.2104 -0.7651
vn -0.1399 -0.7949 -0.5904
vn 0.8747 0.4239 -0.2350
vn -0.4454 0.2327 -0.8646
vn 0.4461 -0.2522 0.8587
vn -0.8711 -0.4395 0.2191
vn -0.3682 -0.8208 -0.4367
vn 0.9135 -0.3655 -0.1788
vn -0.1019 0.3592 -0.9277
vn 0.0932 -0.3804 0.9201
vn -0.9235 0.3449 0.1679
vn 0.1386 -0.8256 -0.5470
vn 0.8200 0.4338 -0.3733
vn -0.5270 0.5468 -0.6507
vn 0.5282 -0.5684 0.6308
vn -0.8140 -0.4599 0.3548
vn -0.8766 0.4310 0.2138
vn -0.0819 -0.7390 0.6687
vn 0.0704 0.7195 -0.6909
vn 0.8589 -0.4584 -0.2285
vn -0.8839 -0.2358 0.4038
vn 0.3884 -0.7322 0.5595
vn -0.3947 0.7124 -0.5803
vn 0.8810 0.2104 -0.4237
vn -0.0678 -0.7876 0.6124
vn -0.9258 0.1544 -0.3451
vn -0.1988 0.7977 0.5694
vn 0.1935 -0.8215 -0.5363
vn 0.9104 -0.1882 0.3684
vn 0.2053 -0.7488 0.6302
vn -0.7230 -0.5755 -0.3822
vn -0.5632 0.2971 0.7711
vn 0.5701 -0.3164 -0.7582
vn 0.7287 0.5570 0.3984
vn -0.2477 -0.8768 0.4122
vn -0.9509 0.2059 -0.2310
vn -0.1139 0.5975 0.7937
vn 0.1059 -0.6204 -0.7771
vn 0.9411 -0.2340 0.2440
vn 0.7010 0.6337 0.3272
vn 0.6341 -0.6452 -0.4262
vn -0.6343 0.6271 0.4522
vn -0.6900 -0.6575 -0.3028
vn 0.9730 0.0028 0.2309
vn 0.2181 -0.6769 -0.7030
vn -0.2204 0.6571 0.7208
vn -0.9766 -0.0255 -0.2137
vn -0.6151 -0.7876 0.0362
vn 0.1843 0.1544 -0.9707
vn -0.5947 0.7977 -0.1001
vn 0.5612 -0.8215 0.1004
vn -0.2099 -0.1882 0.9594
vn -0.5867 -0.7488 0.3084
vn 0.2550 -0.5755 -0.7770
vn -0.8549 0.2971 -0.4254
vn 0.8434 -0.3164 0.4343
vn -0.2700 0.5570 0.7854
vn -0.4480 -0.8768 -0.1747
vn 0.0677 0.2059 -0.9762
vn -0.8016 0.5975 0.0213
vn 0.7838 -0.6204 -0.0264
vn -0.0821 -0.2340 0.9688
vn -0.2045 0.6337 0.7461
vn 0.5269 -0.6452 0.5533
vn -0.5525 0.6271 -0.5491
vn 0.1823 -0.6575 -0.7311
vn -0.0639 0.0028 0.9980
vn 0.7297 -0.6769 0.0967
vn -0.7477 0.6571 -0.0959
vn 0.0462 -0.0255 -0.9986
vn 0.6114 -0.7876 0.0762
vn -0.3577 0.1545 0.9210
vn 0.5666 0.7977 0.2065
vn -0.5336 -0.8215 -0.2008
vn 0.3808 -0.1882 -0.9053
vn 0.6330 -0.7488 -0.1967
vn -0.3920 -0.5755 0.7177
vn 0.7633 0.2971 0.5737
vn -0.7504 -0.3164 -0.5803
vn 0.4083 0.5570 -0.7232
vn 0.4088 -0.8768 0.2532
vn -0.2440 0.2059 0.9477
vn 0.7921 0.5975 0.1247
vn -0.7756 -0.6204 -0.1165
vn 0.2568 -0.2340 -0.9377
vn 0.3367 0.6337 -0.6965
vn -0.4175 -0.6451 -0.6399
vn 0.4435 0.6271 0.6404
vn -0.3122 -0.6574 0.6858
vn 0.2442 0.0028 -0.9697
vn -0.7000 -0.6769 -0.2277
vn 0.7178 0.6571 0.2302
vn -0.2269 -0.0255 0.9736
vn 0.1173 -0.7876 -0.6049
vn 0.8947 0.1544 0.4191
vn 0.2443 0.7977 -0.5514
vn -0.2363 -0.8215 0.5188
vn -0.8775 -0.1882 -0.4411
vn 0.2803 -0.8768 -0.3908
vn 0.9290 0.2059 0.3074
vn 0.1780 0.5975 -0.7819
vn -0.1686 -0.6204 0.7659
vn -0.9182 -0.2340 -0.3196
vn -0.9510 0.0028 -0.3091
vn -0.2744 -0.6769 0.6830
vn 0.2781 0.6571 -0.7006
vn 0.9560 -0.0255 0.2922
vn -0.0000 -1.0000 -0.0000
vn -0.7674 0.4133 0.4902
vn 0.7860 0.3572 -0.5046
vn -0.0274 0.9995 0.0186
vn -0.0863 0.9909 -0.1032
vn -0.0345 0.9988 -0.0346
vn -0.0739 0.9972 -0.0147
vn -0.1598 0.9736 0.1629
vn 0.2139 0.9707 0.1092
vn 0.0001 0.9999 -0.0169
vn -0.4411 0.5278 0.7258
vn -0.4297 0.5850 0.6879
vn -0.5032 0.4238 0.7531
vn -0.1777 0.4122 -0.8936
vn 0.5391 0.4192 -0.7305
vn 0.1798 0.3879 0.9040
vn -0.6568 0.6555 -0.3728
vn -0.7024 0.5448 -0.4581
vn 0.4992 0.4045 0.7663
vn -0.4954 0.4422 -0.7477
vn -0.3321 0.6517 -0.6819
vn 0.7542 0.3972 0.5229
vn -0.8898 0.4247 -0.1668
vn 0.9059 0.3768 0.1932
vn -0.9031 0.3900 0.1796
vn 0.8883 0.4240 -0.1767
vn -0.1829 0.7495 -0.6363
vn 0.0810 0.6952 -0.7142
vn 0.1857 0.8360 0.5164
vn -0.1478 0.8711 -0.4683
vn 0.4506 0.6621 0.5988
vn -0.6102 0.7178 -0.3354
vn -0.6316 0.7589 -0.1587
vn 0.6233 0.7605 0.1824
vn -0.5946 0.7699 0.2316
vn 0.5161 0.8479 -0.1210
vn -0.7321 0.4991 0.4636
vn 0.5103 0.7472 -0.4257
vn -0.1834 0.8101 0.5569
vn 0.5031 0.5485 -0.6679
vn -0.4361 0.5154 0.7377
vn 0.4956 0.5251 -0.6918
vn 0.4989 0.5622 -0.6596
vn 0.8603 0.4765 -0.1814
vn -0.8422 0.5077 0.1817
vn 0.8551 0.4898 0.1701
vn -0.8441 0.4892 -0.2194
vn 0.7314 0.4756 0.4887
vn 0.5084 0.4955 0.7043
vn -0.5230 0.4106 -0.7469
vn -0.4847 0.4625 -0.7424
vn 0.1879 0.5558 0.8098
vn -0.2068 0.4443 -0.8717
vn 0.1136 0.5622 -0.8192
vn 0.1706 0.4757 -0.8629
vn -0.1855 0.5852 0.7894
vn -0.2112 0.5043 0.8373
vn 0.7116 0.5172 -0.4755
vn -0.7172 0.5303 0.4521
vn -0.1382 0.3834 -0.9132
vn 0.1892 0.4230 -0.8862
vn -0.8044 0.4567 -0.3800
vn -0.8064 0.2791 -0.5214
vn -0.7682 0.4205 -0.4828
vn 0.1104 0.3936 0.9126
vn -0.1900 0.4229 0.8860
vn -0.6061 0.7008 0.3761
vn 0.5865 0.7088 -0.3919
vn -0.2407 0.8886 0.3906
vn -0.2085 0.9047 0.3716
vn 0.3876 0.7105 -0.5873
vn 0.6660 0.7343 0.1311
vn -0.1834 0.8783 -0.4415
vn -0.1561 0.8344 -0.5285
vn 0.1637 0.7344 -0.6587
vn 0.1723 0.6662 0.7256
vn 0.0332 -0.9992 -0.0222
vn 0.3357 -0.9310 0.1431
vn -0.3404 -0.9297 -0.1410
vn -0.1714 -0.9157 -0.3634
vn -0.0234 -0.9997 -0.0014
vn -0.0247 -0.9931 0.1144
vn 0.2684 -0.9030 -0.3353
vn -0.0026 -1.0000 0.0018
vn -0.0029 -1.0000 0.0006
vn -0.0029 -1.0000 -0.0006
vn -0.1361 -0.9875 -0.0794
vn -0.0504 -0.9983 0.0300
vn 0.1064 -0.9544 0.2791
vn 0.1345 -0.9748 0.1780
vn 0.0172 -0.9997 -0.0155
vn 0.0098 -0.9995 0.0313
vn 0.4490 0.7070 0.5463
vn -0.5731 0.6835 -0.4521
vn 0.5727 0.7286 0.3758
vn -0.6775 0.7230 -0.1348
vn 0.5415 0.8325 0.1172
vn 0.5081 0.8561 0.0946
vn -0.6797 0.7208 0.1356
vn -0.1749 0.7273 -0.6637
vn -0.4146 0.7433 0.5250
vn -0.2661 0.8815 -0.3900
vn -0.2819 0.8724 -0.3994
vn -0.3415 0.8845 -0.3178
vn -0.3863 0.9199 -0.0677
vn -0.4528 0.8817 0.1329
vn -0.3741 0.9051 0.2021
vn -0.1121 0.8721 0.4764
vn -0.1239 0.8914 0.4359
vn -0.0023 0.8786 0.4775
vn 0.5700 0.8216 0.0011
vn 0.5466 0.8372 0.0191
vn 0.4061 0.8138 -0.4157
vn 0.2641 0.8798 -0.3953
vn 0.0939 0.8794 -0.4667
vn 0.3416 0.8696 0.3566
vn 0.2983 0.8673 0.3985
vn 0.4566 0.8611 0.2238
vn 0.4607 0.8581 0.2268
vn -0.0190 0.7319 0.6812
vn -0.1170 0.7522 0.6485
vn 0.3300 0.9259 0.1840
vn 0.6624 0.7357 -0.1412
vn 0.7143 0.6958 -0.0755
vn -0.2882 0.7322 -0.6171
vn -0.3556 0.7472 -0.5615
vn -0.8679 0.4325 0.2442
vn 0.8838 0.4270 -0.1911
vn 0.9047 0.3668 -0.2168
vn -0.9239 0.3523 -0.1492
vn 0.8005 0.3829 0.4610
vn -0.7273 0.4244 -0.5394
vn 0.4657 0.4244 0.7765
vn -0.4390 0.3821 -0.8132
vn -0.0061 1.0000 0.0039
vn -0.0045 1.0000 -0.0000
vn -0.0093 0.9997 0.0225
vn 0.0265 0.9995 0.0177
vn -0.0670 0.9955 0.0670
vn 0.0211 0.9982 0.0569
vn -0.0448 0.9967 -0.0671
vn 0.0375 0.9986 -0.0375
vn 0.0103 0.9999 -0.0000
vn -0.0098 0.9999 0.0053
vn -0.0240 0.9996 -0.0160
vn 0.1034 0.4327 -0.8956
vn -0.1714 0.4780 -0.8615
vn 0.1530 0.3917 0.9073
vn 0.5677 0.3492 -0.7455
vn 0.7864 0.4226 -0.4506
vn -0.4971 0.4466 0.7440
vn -0.5148 0.4270 0.7434
vn 0.8637 0.4697 -0.1829
vn 0.1763 0.4282 0.8863
vn 0.1986 0.4630 0.8638
vn -0.4857 0.4021 0.7762
vn -0.5431 0.3688 0.7543
vn 0.7778 0.4432 -0.4457
vn -0.7306 0.4468 0.5164
vn -0.7306 0.4490 0.5145
vn 0.4732 0.4632 -0.7493
vn -0.1888 0.4292 -0.8833
vn 0.2164 0.4370 -0.8730
vn -0.5284 0.4672 -0.7089
vn 0.5021 0.4282 0.7514
vn -0.7189 0.4460 -0.5331
vn 0.7400 0.4719 0.4794
vn -0.8641 0.4814 -0.1467
vn 0.0070 -0.9999 -0.0105
vn -0.0105 -0.9986 -0.0515
vn 0.0103 -0.9988 0.0476
vn 0.0093 -0.9987 -0.0504
vn -0.0105 -0.9985 0.0537
vn 0.0067 -0.9999 0.0114
vn 0.0268 -0.9995 -0.0191
vn -0.0402 -0.9980 0.0484
vn 0.0806 -0.9962 -0.0323
vn -0.2832 -0.9521 0.1156
vn 0.2127 -0.9763 -0.0392
vn -0.0047 -0.9997 -0.0237
vn 0.0032 -0.9999 -0.0161
vn -0.2029 -0.9736 -0.1045
vn -0.8892 0.4431 0.1145
vn 0.8977 0.3813 0.2207
vn 0.8815 0.4096 0.2347
vn 0.3186 0.4124 0.8535
vn -0.1761 0.4301 0.8855
vn -0.5857 0.4878 0.6473
vn -0.7532 0.4285 0.4992
vn -0.7529 0.3856 0.5333
vn 0.8081 0.4213 -0.4116
vn 0.8641 0.4451 0.2348
vn 0.5116 -0.8208 0.2541
vn -0.7183 -0.4320 0.5453
vn 0.3133 0.5995 0.7365
vn 0.8765 -0.3805 -0.2950
vn 0.3686 0.3449 0.8633
vn -0.6893 0.7195 0.0846
vn 0.5898 -0.2358 0.7723
vn 0.8747 0.4239 -0.2351
vn 0.4460 -0.2522 0.8588
vn -0.0679 -0.7876 0.6124
vn -0.7230 -0.5755 -0.3821
vn -0.2476 -0.8768 0.4122
vn -0.6900 -0.6574 -0.3028
vn -0.2204 0.6571 0.7209
vn 0.8433 -0.3164 0.4344
vn 0.1823 -0.6574 -0.7311
vn -0.0638 0.0028 0.9980
vn 0.0463 -0.0255 -0.9986
vn -0.3577 0.1544 0.9210
vn 0.6330 -0.7488 -0.1966
vn 0.7633 0.2971 0.5736
vn -0.7504 -0.3164 -0.5804
vn 0.4083 0.5570 -0.7233
vn -0.4175 -0.6452 -0.6399
vn 0.2441 0.0028 -0.9697
vn -0.2270 -0.0255 0.9736
vn 0.9290 0.2059 0.3075
vn 0.1779 0.5975 -0.7819
vn -0.1194 -0.9878 0.0996
vn 0.1740 -0.9839 -0.0409
vn -0.1641 -0.9864 0.0104
vt 0.836635 0.506148
vt 0.836648 0.524633
vt 0.836640 0.524633
vt 0.836703 0.506148
vt 0.836707 0.524633
vt 0.836712 0.506148
vt 0.838742 0.506286
vt 0.838718 0.506575
vt 0.838728 0.506286
vt 0.838726 0.490541
vt 0.838727 0.496870
vt 0.838720 0.495443
vt 0.838722 0.506286
vt 0.839787 0.470276
vt 0.839792 0.476218
vt 0.839792 0.470276
vt 0.836688 0.524653
vt 0.836699 0.525788
vt 0.838743 0.496891
vt 0.838735 0.506286
vt 0.838735 0.496891
vt 0.836635 0.503512
vt 0.836644 0.506058
vt 0.836642 0.496976
vt 0.836689 0.506148
vt 0.836699 0.524633
vt 0.836688 0.524633
vt 0.836644 0.506148
vt 0.836658 0.506148
vt 0.838750 0.496891
vt 0.838752 0.505793
vt 0.838748 0.506286
vt 0.838714 0.496891
vt 0.838715 0.495551
vt 0.836715 0.506148
vt 0.836708 0.523663
vt 0.838715 0.496891
vt 0.838716 0.506286
vt 0.836711 0.525390
vt 0.836655 0.486199
vt 0.836673 0.481682
vt 0.836653 0.481682
vt 0.836673 0.488511
vt 0.836694 0.481682
vt 0.836673 0.490004
vt 0.836694 0.481682
vt 0.836692 0.490498
vt 0.836640 0.491137
vt 0.836635 0.481682
vt 0.836707 0.488511
vt 0.836711 0.481682
vt 0.839778 0.464608
vt 0.839780 0.462413
vt 0.839776 0.462413
vt 0.836722 0.481682
vt 0.836718 0.488511
vt 0.836629 0.488511
vt 0.836621 0.483156
vt 0.836626 0.489368
vt 0.836726 0.484277
vt 0.836721 0.489174
vt 0.838711 0.488363
vt 0.838712 0.484457
vt 0.838713 0.487928
vt 0.838718 0.488604
vt 0.838716 0.484457
vt 0.836709 0.481682
vt 0.836640 0.489841
vt 0.836651 0.481682
vt 0.836655 0.488511
vt 0.838744 0.489298
vt 0.838753 0.484457
vt 0.838745 0.484457
vt 0.836671 0.481682
vt 0.839797 0.468564
vt 0.839797 0.470276
vt 0.839801 0.470276
vt 0.838759 0.488265
vt 0.838755 0.496891
vt 0.838756 0.496891
vt 0.836703 0.506148
vt 0.838721 0.502972
vt 0.838722 0.506061
vt 0.838728 0.506286
vt 0.838744 0.488938
vt 0.838735 0.488687
vt 0.838735 0.487928
vt 0.838727 0.496891
vt 0.838735 0.496891
vt 0.836673 0.506148
vt 0.836689 0.506148
vt 0.836690 0.500821
vt 0.838727 0.496891
vt 0.836643 0.503299
vt 0.839341 0.432292
vt 0.839342 0.432292
vt 0.839342 0.430378
vt 0.839341 0.438941
vt 0.836673 0.524633
vt 0.836687 0.524633
vt 0.839325 0.432292
vt 0.839325 0.432259
vt 0.839326 0.436591
vt 0.839330 0.432292
vt 0.839330 0.432277
vt 0.839329 0.427802
vt 0.839331 0.438934
vt 0.836658 0.506148
vt 0.836673 0.524633
vt 0.836660 0.524633
vt 0.836655 0.566920
vt 0.836656 0.577418
vt 0.836650 0.566920
vt 0.836697 0.566920
vt 0.836687 0.577424
vt 0.836691 0.577430
vt 0.839788 0.493321
vt 0.839789 0.493211
vt 0.839790 0.494088
vt 0.836692 0.566920
vt 0.836681 0.577424
vt 0.838748 0.527743
vt 0.838744 0.532655
vt 0.838748 0.526670
vt 0.838735 0.533122
vt 0.838731 0.533007
vt 0.838732 0.534712
vt 0.839795 0.489778
vt 0.839792 0.493189
vt 0.839794 0.493185
vt 0.838735 0.528129
vt 0.838739 0.533745
vt 0.838735 0.533115
vt 0.839336 0.454357
vt 0.839345 0.454039
vt 0.839327 0.454128
vt 0.836681 0.578664
vt 0.836684 0.565119
vt 0.836660 0.577424
vt 0.836655 0.566920
vt 0.836691 0.576520
vt 0.836687 0.577425
vt 0.839784 0.489809
vt 0.839786 0.493185
vt 0.839786 0.493524
vt 0.836693 0.576498
vt 0.836688 0.580740
vt 0.836655 0.577424
vt 0.836648 0.566920
vt 0.839792 0.490014
vt 0.839790 0.493117
vt 0.836666 0.577505
vt 0.836660 0.577847
vt 0.836668 0.580567
vt 0.836666 0.577274
vt 0.836664 0.582397
vt 0.836656 0.578480
vt 0.836661 0.582416
vt 0.838728 0.535608
vt 0.838726 0.533651
vt 0.838725 0.533115
vt 0.836661 0.581915
vt 0.838730 0.535592
vt 0.838726 0.533111
vt 0.838728 0.533330
vt 0.838732 0.534543
vt 0.838731 0.533253
vt 0.838737 0.536171
vt 0.836677 0.583325
vt 0.836686 0.582485
vt 0.836673 0.583432
vt 0.838742 0.534800
vt 0.838745 0.532545
vt 0.838744 0.533118
vt 0.839795 0.494849
vt 0.839798 0.493187
vt 0.839796 0.493185
vt 0.838740 0.535746
vt 0.838739 0.533115
vt 0.838737 0.535716
vt 0.836679 0.582542
vt 0.836674 0.577438
vt 0.836673 0.583452
vt 0.836668 0.582521
vt 0.839792 0.495116
vt 0.839790 0.494823
vt 0.839789 0.494783
vt 0.836660 0.582331
vt 0.838735 0.536168
vt 0.838729 0.535397
vt 0.836664 0.582298
vt 0.836668 0.582132
vt 0.836673 0.582491
vt 0.838735 0.535690
vt 0.836683 0.582472
vt 0.836679 0.583437
vt 0.836684 0.582802
vt 0.838741 0.535687
vt 0.838742 0.535736
vt 0.836687 0.582582
vt 0.836686 0.583888
vt 0.836683 0.582601
vt 0.839793 0.494830
vt 0.839792 0.495122
vt 0.839333 0.457932
vt 0.839333 0.458001
vt 0.839334 0.458913
vt 0.839332 0.454393
vt 0.839332 0.454168
vt 0.838730 0.528151
vt 0.839339 0.459982
vt 0.839340 0.459835
vt 0.839337 0.460023
vt 0.838737 0.536114
vt 0.839343 0.457570
vt 0.839343 0.457500
vt 0.839341 0.459094
vt 0.839345 0.454105
vt 0.836693 0.576303
vt 0.836699 0.566671
vt 0.839333 0.457826
vt 0.839333 0.457849
vt 0.839334 0.459032
vt 0.839332 0.453683
vt 0.839332 0.453684
vt 0.839786 0.489809
vt 0.839789 0.493137
vt 0.839789 0.489411
vt 0.836645 0.545777
vt 0.836648 0.566920
vt 0.836642 0.541137
vt 0.836697 0.566920
vt 0.836702 0.553876
vt 0.836702 0.545777
vt 0.838720 0.517031
vt 0.838722 0.527776
vt 0.838723 0.527776
vt 0.838746 0.517031
vt 0.838747 0.527776
vt 0.838744 0.527776
vt 0.838724 0.517031
vt 0.838726 0.527776
vt 0.836685 0.545777
vt 0.836691 0.566920
vt 0.836683 0.566920
vt 0.838730 0.527652
vt 0.838729 0.517031
vt 0.838735 0.527514
vt 0.836673 0.545777
vt 0.836683 0.566920
vt 0.836664 0.566676
vt 0.836673 0.566920
vt 0.836674 0.566404
vt 0.836674 0.545777
vt 0.838741 0.517031
vt 0.838749 0.517031
vt 0.838747 0.527776
vt 0.838724 0.517031
vt 0.838723 0.513552
vt 0.836710 0.525860
vt 0.836704 0.545777
vt 0.836673 0.538739
vt 0.836664 0.566920
vt 0.836654 0.556718
vt 0.836662 0.545777
vt 0.836700 0.525840
vt 0.836708 0.524265
vt 0.836650 0.538931
vt 0.836651 0.545777
vt 0.838748 0.506899
vt 0.836673 0.525370
vt 0.838735 0.506660
vt 0.838742 0.506286
vt 0.838735 0.513454
vt 0.838735 0.517031
vt 0.836647 0.524652
vt 0.836659 0.524633
vt 0.836688 0.524633
vt 0.836696 0.545777
vt 0.838717 0.506925
vt 0.838722 0.506295
vt 0.836700 0.524633
vt 0.836702 0.543624
vt 0.836639 0.525891
vt 0.839345 0.438934
vt 0.839341 0.438934
vt 0.839349 0.439375
vt 0.839781 0.476601
vt 0.839782 0.481522
vt 0.839780 0.476218
vt 0.836699 0.566920
vt 0.836697 0.566920
vt 0.839336 0.446531
vt 0.839336 0.446531
vt 0.839336 0.444002
vt 0.839336 0.453943
vt 0.836673 0.566404
vt 0.839328 0.446531
vt 0.839328 0.446531
vt 0.839329 0.450463
vt 0.836656 0.566570
vt 0.836650 0.566920
vt 0.839347 0.446522
vt 0.839347 0.446531
vt 0.839346 0.449441
vt 0.839349 0.439399
vt 0.838754 0.506944
vt 0.838749 0.515937
vt 0.838752 0.505955
vt 0.203802 0.944541
vt 0.203758 0.945930
vt 0.203699 0.835291
vt 0.203641 0.837117
vt 0.203830 0.925914
vt 0.203787 0.925914
vt 0.203828 0.836951
vt 0.203887 0.836951
vt 0.203784 0.898199
vt 0.203742 0.896407
vt 0.203805 0.833641
vt 0.203862 0.836036
vt 0.836694 0.558502
vt 0.836694 0.558801
vt 0.836694 0.558568
vt 0.836691 0.568376
vt 0.836695 0.558735
vt 0.836691 0.568239
vt 0.836690 0.567897
vt 0.836691 0.567762
vt 0.836696 0.557890
vt 0.836697 0.558208
vt 0.836696 0.558081
vt 0.836691 0.567920
vt 0.836691 0.568181
vt 0.836691 0.567788
vt 0.836691 0.567527
vt 0.836697 0.558016
vt 0.836649 0.558568
vt 0.836649 0.558905
vt 0.836649 0.558643
vt 0.836650 0.560557
vt 0.836649 0.560846
vt 0.836649 0.558831
vt 0.836650 0.560764
vt 0.836650 0.560475
vt 0.836651 0.559485
vt 0.836651 0.559864
vt 0.836651 0.559713
vt 0.836652 0.562909
vt 0.836651 0.563182
vt 0.836652 0.563364
vt 0.836652 0.563091
vt 0.836651 0.559636
vt 0.836650 0.561153
vt 0.836649 0.561589
vt 0.836649 0.561375
vt 0.836653 0.568513
vt 0.836649 0.561367
vt 0.836653 0.568174
vt 0.836653 0.568185
vt 0.836654 0.567847
vt 0.836654 0.567892
vt 0.836654 0.567499
vt 0.836654 0.567238
vt 0.836654 0.567631
vt 0.836654 0.568070
vt 0.836654 0.567593
vt 0.836654 0.567729
vt 0.836654 0.568206
vt 0.836664 0.558391
vt 0.836664 0.558728
vt 0.836664 0.558466
vt 0.836664 0.560380
vt 0.836663 0.560669
vt 0.836664 0.558653
vt 0.836663 0.560587
vt 0.836663 0.560298
vt 0.836661 0.559307
vt 0.836661 0.559687
vt 0.836661 0.559536
vt 0.836662 0.562732
vt 0.836662 0.563005
vt 0.836662 0.563187
vt 0.836662 0.562913
vt 0.836661 0.559459
vt 0.836666 0.560976
vt 0.836666 0.561412
vt 0.836666 0.561198
vt 0.836666 0.568336
vt 0.836666 0.561190
vt 0.836665 0.567997
vt 0.836666 0.568008
vt 0.836666 0.567670
vt 0.836664 0.567715
vt 0.836664 0.567322
vt 0.836664 0.567061
vt 0.836664 0.567454
vt 0.836664 0.567893
vt 0.836664 0.567416
vt 0.836665 0.567551
vt 0.836665 0.568029
vt 0.836659 0.515981
vt 0.836658 0.516216
vt 0.836659 0.515939
vt 0.836659 0.517639
vt 0.836659 0.516258
vt 0.836659 0.517690
vt 0.836659 0.517301
vt 0.836659 0.517352
vt 0.836662 0.517723
vt 0.836662 0.518170
vt 0.836661 0.517909
vt 0.836661 0.520783
vt 0.836661 0.521005
vt 0.836661 0.521319
vt 0.836661 0.521097
vt 0.836662 0.517985
vt 0.836657 0.517305
vt 0.836657 0.517635
vt 0.836657 0.517393
vt 0.836658 0.525040
vt 0.836657 0.517547
vt 0.836659 0.524906
vt 0.836659 0.524670
vt 0.836659 0.524536
vt 0.836661 0.525341
vt 0.836661 0.525022
vt 0.836661 0.524571
vt 0.836660 0.524890
vt 0.836660 0.525347
vt 0.836660 0.524842
vt 0.836660 0.524766
vt 0.836660 0.525271
vt 0.836633 0.515981
vt 0.836633 0.516216
vt 0.836633 0.515939
vt 0.836634 0.517639
vt 0.836633 0.516258
vt 0.836634 0.517690
vt 0.836634 0.517301
vt 0.836634 0.517352
vt 0.836633 0.517723
vt 0.836633 0.518170
vt 0.836633 0.517909
vt 0.836634 0.520783
vt 0.836634 0.521005
vt 0.836634 0.521319
vt 0.836634 0.521097
vt 0.836633 0.517985
vt 0.836635 0.517305
vt 0.836635 0.517635
vt 0.836635 0.517393
vt 0.836638 0.525040
vt 0.836635 0.517547
vt 0.836638 0.524906
vt 0.836639 0.524670
vt 0.836639 0.524536
vt 0.836638 0.525341
vt 0.836638 0.525022
vt 0.836638 0.524571
vt 0.836638 0.524890
vt 0.836638 0.525347
vt 0.836638 0.524842
vt 0.836638 0.524766
vt 0.836638 0.525271
vt 0.836712 0.516352
vt 0.836712 0.516587
vt 0.836712 0.516310
vt 0.836711 0.518010
vt 0.836712 0.516629
vt 0.836711 0.518061
vt 0.836711 0.517672
vt 0.836711 0.517723
vt 0.836712 0.517723
vt 0.836713 0.518170
vt 0.836712 0.517909
vt 0.836711 0.520783
vt 0.836711 0.521005
vt 0.836711 0.521319
vt 0.836711 0.521097
vt 0.836712 0.517985
vt 0.836709 0.517511
vt 0.836710 0.517842
vt 0.836709 0.517599
vt 0.836707 0.525247
vt 0.836710 0.517754
vt 0.836707 0.525113
vt 0.836706 0.524876
vt 0.836706 0.524742
vt 0.836707 0.525341
vt 0.836707 0.525022
vt 0.836707 0.524571
vt 0.836707 0.524890
vt 0.836707 0.525719
vt 0.836707 0.525213
vt 0.836707 0.525137
vt 0.836707 0.525642
vt 0.836691 0.515981
vt 0.836692 0.516216
vt 0.836692 0.515939
vt 0.836691 0.517639
vt 0.836691 0.516258
vt 0.836691 0.517690
vt 0.836691 0.517301
vt 0.836691 0.517352
vt 0.836693 0.517305
vt 0.836693 0.517635
vt 0.836693 0.517393
vt 0.836691 0.525040
vt 0.836693 0.517547
vt 0.836691 0.524906
vt 0.836691 0.524670
vt 0.836691 0.524536
vt 0.836690 0.525347
vt 0.836689 0.524842
vt 0.836690 0.524766
vt 0.836690 0.525271
vt 0.838724 0.484457
vt 0.838718 0.506286
vt 0.838728 0.506286
vt 0.838742 0.506286
vt 0.838748 0.506873
vt 0.838742 0.506296
vt 0.838754 0.506670
vt 0.838752 0.506286
vt 0.838726 0.487928
vt 0.839787 0.476218
vt 0.836690 0.506148
vt 0.836692 0.491207
vt 0.839781 0.465452
vt 0.836625 0.481682
vt 0.838708 0.485206
vt 0.836637 0.481682
vt 0.838752 0.487928
vt 0.839803 0.464608
vt 0.839798 0.465474
vt 0.838757 0.487928
vt 0.836632 0.506148
vt 0.838720 0.496891
vt 0.838726 0.486753
vt 0.839341 0.438934
vt 0.839324 0.428996
vt 0.838720 0.496845
vt 0.839331 0.438934
vt 0.836673 0.506148
vt 0.839790 0.494698
vt 0.839789 0.494751
vt 0.836683 0.566825
vt 0.838745 0.532644
vt 0.838732 0.535705
vt 0.838735 0.536178
vt 0.838740 0.526861
vt 0.839342 0.454128
vt 0.839344 0.454128
vt 0.839345 0.453346
vt 0.839339 0.453481
vt 0.839336 0.454378
vt 0.839329 0.454128
vt 0.839327 0.454128
vt 0.839329 0.454128
vt 0.839339 0.454094
vt 0.836698 0.564743
vt 0.839784 0.489809
vt 0.839789 0.489412
vt 0.836663 0.567029
vt 0.838729 0.535652
vt 0.838732 0.535507
vt 0.838741 0.536400
vt 0.839796 0.495263
vt 0.838742 0.533115
vt 0.836682 0.583212
vt 0.839339 0.459717
vt 0.838739 0.536056
vt 0.839788 0.493185
vt 0.838719 0.514673
vt 0.838748 0.527776
vt 0.838740 0.527776
vt 0.838735 0.527776
vt 0.838726 0.527598
vt 0.838730 0.527776
vt 0.838735 0.527514
vt 0.838740 0.527776
vt 0.838722 0.506286
vt 0.836652 0.545777
vt 0.836639 0.525827
vt 0.836647 0.524633
vt 0.838735 0.517031
vt 0.836652 0.545777
vt 0.836708 0.523983
vt 0.836636 0.524633
vt 0.839326 0.438934
vt 0.839323 0.439363
vt 0.839322 0.438934
vt 0.839323 0.439386
vt 0.839326 0.438941
vt 0.839331 0.438934
vt 0.839336 0.439199
vt 0.839341 0.438934
vt 0.839345 0.439368
vt 0.839348 0.438802
vt 0.839348 0.438700
vt 0.839336 0.438934
vt 0.839783 0.483013
vt 0.836705 0.545750
vt 0.839336 0.453943
vt 0.836673 0.545777
vt 0.839327 0.444071
vt 0.838751 0.517018
vt 0.838715 0.484457
vt 0.838725 0.484457
vt 0.838710 0.484457
vt 0.838735 0.484457
vt 0.838760 0.484457
vt 0.838762 0.485776
vt 0.838754 0.484457
vt 0.838745 0.484457
vt 0.838734 0.484457
s 0
usemtl Texture_Map
f 31/1/1 20/2/1 17/3/1
f 35/4/2 18/5/2 32/6/2
f 61/7/3 27/8/3 70/9/3
f 73/10/4 72/11/4 34/12/4
f 72/11/5 20/13/5 34/12/5
f 37/14/6 19/15/6 33/16/6
f 35/4/7 60/17/7 21/18/7
f 38/19/8 22/20/8 36/21/8
f 40/22/9 67/23/9 66/24/9
f 38/25/10 26/26/10 24/27/10
f 66/24/11 65/28/11 37/29/11
f 39/30/12 28/31/12 26/32/12
f 42/33/13 27/8/13 40/34/13
f 43/35/14 28/36/14 41/6/14
f 31/37/15 29/38/15 42/33/15
f 43/35/16 18/5/16 30/39/16
f 2/40/17 45/41/17 44/42/17
f 1/43/18 59/44/18 45/41/18
f 9/45/19 53/46/19 10/47/19
f 3/48/20 44/42/20 46/49/20
f 11/50/21 53/46/21 54/51/21
f 4/52/22 46/53/22 47/54/22
f 11/50/23 55/55/23 12/56/23
f 4/57/24 48/58/24 5/59/24
f 12/56/25 56/60/25 13/61/25
f 5/62/26 49/63/26 6/64/26
f 14/56/27 56/60/27 57/55/27
f 7/65/28 49/63/28 50/66/28
f 14/56/29 58/67/29 15/50/29
f 7/68/30 51/69/30 8/70/30
f 16/71/31 58/72/31 59/73/31
f 8/70/32 52/74/32 9/45/32
f 64/75/33 63/76/33 35/77/33
f 13/78/34 32/79/34 43/80/34
f 5/62/35 31/37/35 42/33/35
f 13/61/36 41/6/36 12/56/36
f 5/59/37 40/22/37 4/57/37
f 11/50/38 41/6/38 39/81/38
f 10/47/39 39/81/39 38/25/39
f 68/82/40 25/83/40 23/84/40
f 10/85/41 36/21/41 9/86/41
f 1/87/42 37/88/42 33/89/42
f 33/90/43 62/91/43 64/92/43
f 36/21/44 71/93/44 73/10/44
f 14/56/45 35/4/45 32/6/45
f 6/57/46 34/94/46 31/1/46
f 62/95/47 63/96/47 64/97/47
f 62/95/48 60/98/48 63/96/48
f 62/91/49 19/99/49 61/100/49
f 65/101/50 67/102/50 68/103/50
f 27/8/51 68/82/51 40/34/51
f 71/104/52 72/105/52 73/106/52
f 71/104/53 69/107/53 72/105/53
f 71/108/54 22/109/54 70/110/54
f 76/111/55 92/112/55 75/113/55
f 77/114/56 99/115/56 98/116/56
f 93/117/57 118/118/57 120/119/57
f 78/120/58 100/121/58 99/115/58
f 126/122/59 97/123/59 86/124/59
f 88/125/60 132/126/60 134/127/60
f 79/128/61 88/129/61 100/130/61
f 80/131/62 95/132/62 94/133/62
f 81/134/63 125/135/63 85/136/63
f 84/120/64 95/137/64 82/138/64
f 85/113/65 89/139/65 83/140/65
f 84/120/66 97/141/66 96/142/66
f 85/143/67 91/144/67 90/145/67
f 97/141/68 127/146/68 129/147/68
f 75/113/69 91/148/69 87/149/69
f 81/150/70 132/151/70 88/129/70
f 76/111/71 118/152/71 93/153/71
f 134/154/72 133/155/72 89/139/72
f 103/156/73 90/157/73 104/158/73
f 105/159/74 90/160/74 91/161/74
f 106/162/75 91/148/75 92/112/75
f 107/163/76 92/164/76 93/165/76
f 120/166/77 119/167/77 94/133/77
f 110/168/78 94/133/78 95/132/78
f 124/169/79 111/170/79 74/171/79
f 129/172/80 128/173/80 98/174/80
f 114/175/81 98/176/81 99/177/81
f 114/178/82 100/179/82 115/180/82
f 115/181/83 88/182/83 102/183/83
f 74/171/84 102/183/84 101/184/84
f 74/185/85 101/186/85 103/187/85
f 74/171/86 103/156/86 104/158/86
f 74/171/87 104/158/87 105/188/87
f 74/189/88 105/159/88 106/190/88
f 74/171/89 106/162/89 107/191/89
f 74/171/90 107/191/90 108/192/90
f 74/171/91 108/192/91 109/193/91
f 74/189/92 109/194/92 110/168/92
f 95/137/93 122/195/93 110/196/93
f 123/197/94 96/142/94 97/141/94
f 74/189/95 111/198/95 112/199/95
f 74/171/96 112/200/96 113/201/96
f 74/171/97 113/201/97 114/202/97
f 74/171/98 114/202/98 115/181/98
f 74/185/99 115/203/99 102/204/99
f 118/205/100 119/206/100 120/207/100
f 116/208/101 118/205/101 117/209/101
f 80/131/102 119/167/102 116/210/102
f 121/211/103 123/212/103 124/213/103
f 110/168/104 124/214/104 74/189/104
f 127/215/105 128/216/105 129/217/105
f 128/216/106 126/218/106 125/135/106
f 77/114/107 128/219/107 125/220/107
f 132/221/108 133/222/108 134/223/108
f 130/224/109 132/221/109 131/225/109
f 83/226/110 133/227/110 130/228/110
f 175/229/111 148/230/111 174/231/111
f 137/232/112 191/233/112 176/234/112
f 172/235/113 148/236/113 146/237/113
f 171/238/114 147/239/114 145/240/114
f 170/241/115 146/237/115 144/242/115
f 169/243/116 145/244/116 143/245/116
f 170/241/117 142/246/117 168/247/117
f 135/237/118 179/248/118 142/246/118
f 177/249/119 140/250/119 167/243/119
f 177/249/120 142/251/120 141/252/120
f 169/243/121 179/253/121 180/254/121
f 167/255/122 138/240/122 165/238/122
f 176/256/123 138/240/123 137/257/123
f 166/247/124 186/258/124 185/259/124
f 187/260/125 176/234/125 190/261/125
f 169/243/126 180/254/126 182/262/126
f 139/263/127 183/264/127 166/265/127
f 154/266/128 176/234/128 151/267/128
f 185/268/129 184/269/129 175/229/129
f 154/270/130 167/255/130 165/238/130
f 152/271/131 168/265/131 177/249/131
f 152/272/132 167/255/132 156/273/132
f 182/274/133 181/275/133 166/247/133
f 160/276/134 168/265/134 158/277/134
f 159/278/135 171/279/135 169/243/135
f 162/280/136 170/241/136 160/281/136
f 161/282/137 173/283/137 171/279/137
f 162/284/138 174/231/138 172/229/138
f 161/285/139 159/286/139 187/287/139
f 150/288/140 174/289/140 164/290/140
f 191/233/141 149/291/141 147/292/141
f 180/293/142 181/294/142 182/295/142
f 180/293/143 178/296/143 181/294/143
f 166/265/144 178/297/144 139/263/144
f 184/298/145 186/299/145 183/300/145
f 183/264/146 136/301/146 135/302/146
f 189/303/147 190/304/147 191/305/147
f 187/287/148 189/303/148 188/306/148
f 188/307/149 173/308/149 163/309/149
f 198/310/150 196/311/150 197/311/150
f 195/312/151 196/311/151 199/310/151
f 193/312/152 197/311/152 192/313/152
f 195/312/153 198/310/153 193/312/153
f 194/313/154 197/311/154 196/311/154
f 206/314/155 204/315/155 205/315/155
f 202/316/156 207/314/156 203/317/156
f 200/316/157 206/314/157 205/315/157
f 201/317/158 207/314/158 206/314/158
f 200/316/159 204/315/159 202/316/159
f 214/318/160 212/319/160 213/319/160
f 210/320/161 215/318/161 211/321/161
f 208/320/162 214/318/162 213/319/162
f 211/321/163 214/318/163 209/321/163
f 210/320/164 213/319/164 212/319/164
f 221/322/165 222/323/165 220/324/165
f 218/325/166 220/324/166 222/323/166
f 218/325/167 223/326/167 219/327/167
f 216/328/168 221/322/168 220/324/168
f 219/327/169 221/322/169 217/329/169
f 228/330/170 231/331/170 230/332/170
f 226/333/171 228/330/171 230/332/171
f 227/334/172 230/332/172 231/331/172
f 225/335/173 228/330/173 224/336/173
f 227/334/174 229/337/174 225/335/174
f 237/338/175 238/339/175 236/340/175
f 260/341/176 238/339/176 261/342/176
f 261/342/177 239/343/177 262/344/177
f 260/341/178 237/338/178 236/340/178
f 263/345/179 239/343/179 237/338/179
f 244/346/180 247/347/180 246/348/180
f 256/349/181 246/348/181 257/350/181
f 258/351/182 246/348/182 247/347/182
f 259/352/183 244/346/183 256/349/183
f 259/352/184 247/347/184 245/353/184
f 253/354/185 254/355/185 252/356/185
f 250/357/186 252/356/186 254/355/186
f 250/357/187 255/358/187 251/359/187
f 248/360/188 253/354/188 252/356/188
f 251/359/189 253/354/189 249/361/189
f 243/362/190 259/352/190 241/363/190
f 241/363/191 256/349/191 240/364/191
f 243/362/192 257/350/192 258/351/192
f 242/365/193 256/349/193 257/350/193
f 235/366/194 263/345/194 233/367/194
f 232/368/195 263/345/195 260/341/195
f 234/369/196 262/344/196 235/366/196
f 234/369/197 260/341/197 261/342/197
f 269/370/198 270/371/198 268/372/198
f 292/373/199 270/371/199 293/374/199
f 293/374/200 271/375/200 294/376/200
f 292/373/201 269/370/201 268/372/201
f 295/377/202 271/375/202 269/370/202
f 276/378/203 279/379/203 278/380/203
f 288/381/204 278/380/204 289/382/204
f 290/383/205 278/380/205 279/379/205
f 291/384/206 276/378/206 288/381/206
f 291/384/207 279/379/207 277/385/207
f 285/386/208 286/387/208 284/388/208
f 282/389/209 284/388/209 286/387/209
f 282/389/210 287/390/210 283/391/210
f 280/392/211 285/386/211 284/388/211
f 283/391/212 285/386/212 281/393/212
f 275/394/213 291/384/213 273/395/213
f 273/395/214 288/381/214 272/396/214
f 275/394/215 289/382/215 290/383/215
f 274/397/216 288/381/216 289/382/216
f 267/398/217 295/377/217 265/399/217
f 264/400/218 295/377/218 292/373/218
f 266/401/219 294/376/219 267/398/219
f 266/401/220 292/373/220 293/374/220
f 301/402/221 302/403/221 300/404/221
f 325/405/222 300/404/222 302/403/222
f 325/405/223 303/406/223 326/407/223
f 324/408/224 301/402/224 300/404/224
f 326/407/225 301/402/225 327/409/225
f 308/410/226 311/411/226 310/412/226
f 320/413/227 310/412/227 321/414/227
f 322/415/228 310/412/228 311/411/228
f 323/416/229 308/410/229 320/413/229
f 323/416/230 311/411/230 309/417/230
f 317/418/231 318/419/231 316/420/231
f 314/421/232 316/420/232 318/419/232
f 314/421/233 319/422/233 315/423/233
f 312/424/234 317/418/234 316/420/234
f 315/423/235 317/418/235 313/425/235
f 307/426/236 323/416/236 305/427/236
f 305/427/237 320/413/237 304/428/237
f 307/426/238 321/414/238 322/415/238
f 306/429/239 320/413/239 321/414/239
f 299/430/240 327/409/240 297/431/240
f 296/432/241 327/409/241 324/408/241
f 298/433/242 326/407/242 299/430/242
f 298/433/243 324/408/243 325/405/243
f 333/434/244 334/435/244 332/436/244
f 357/437/245 332/436/245 334/435/245
f 357/437/246 335/438/246 358/439/246
f 356/440/247 333/434/247 332/436/247
f 358/439/248 333/434/248 359/441/248
f 340/442/249 343/443/249 342/444/249
f 352/445/250 342/444/250 353/446/250
f 354/447/251 342/444/251 343/443/251
f 355/448/252 340/442/252 352/445/252
f 355/448/253 343/443/253 341/449/253
f 349/450/254 350/451/254 348/452/254
f 346/453/255 348/452/255 350/451/255
f 346/453/256 351/454/256 347/455/256
f 344/456/257 349/450/257 348/452/257
f 347/455/258 349/450/258 345/457/258
f 339/458/259 355/448/259 337/459/259
f 337/459/260 352/445/260 336/460/260
f 339/458/261 353/446/261 354/447/261
f 338/461/262 352/445/262 353/446/262
f 331/462/263 359/441/263 329/463/263
f 328/464/264 359/441/264 356/440/264
f 330/465/265 358/439/265 331/462/265
f 330/465/266 356/440/266 357/437/266
f 365/466/267 366/467/267 364/468/267
f 389/469/268 364/468/268 366/467/268
f 389/469/269 367/470/269 390/471/269
f 388/472/270 365/466/270 364/468/270
f 390/471/271 365/466/271 391/473/271
f 372/474/272 375/475/272 374/476/272
f 384/477/273 374/476/273 385/478/273
f 386/479/274 374/476/274 375/475/274
f 387/480/275 372/474/275 384/477/275
f 387/480/276 375/475/276 373/481/276
f 381/482/277 382/483/277 380/484/277
f 378/485/278 380/484/278 382/483/278
f 378/485/279 383/486/279 379/487/279
f 376/488/280 381/482/280 380/484/280
f 379/487/281 381/482/281 377/489/281
f 371/490/282 387/480/282 369/491/282
f 369/491/283 384/477/283 368/492/283
f 371/490/284 385/478/284 386/479/284
f 370/493/285 384/477/285 385/478/285
f 363/494/286 391/473/286 361/495/286
f 360/496/287 391/473/287 388/472/287
f 362/497/288 390/471/288 363/494/288
f 362/497/289 388/472/289 389/469/289
f 397/498/290 398/499/290 396/500/290
f 409/501/291 396/500/291 398/499/291
f 409/501/292 399/502/292 410/503/292
f 408/504/293 397/498/293 396/500/293
f 410/503/294 397/498/294 411/505/294
f 405/506/295 406/507/295 404/508/295
f 402/509/296 404/508/296 406/507/296
f 402/509/297 407/510/297 403/511/297
f 400/512/298 405/506/298 404/508/298
f 403/511/299 405/506/299 401/513/299
f 395/514/300 411/505/300 393/515/300
f 392/516/301 411/505/301 408/504/301
f 394/517/302 410/503/302 395/514/302
f 394/517/303 408/504/303 409/501/303
f 51/518/304 49/63/304 58/72/304
f 31/1/305 34/94/305 20/2/305
f 35/4/306 21/18/306 18/5/306
f 17/519/155 20/13/155 70/9/155
f 20/13/155 69/520/155 70/9/155
f 70/9/155 22/20/155 24/521/155
f 27/8/307 29/38/307 70/9/307
f 29/38/155 17/519/155 70/9/155
f 23/84/308 25/83/308 27/8/308
f 61/7/155 19/20/155 23/84/155
f 21/522/309 60/523/309 61/7/309
f 30/524/310 18/525/310 26/32/310
f 18/525/311 21/522/311 61/7/311
f 26/32/312 28/31/312 30/524/312
f 70/9/155 24/521/155 26/32/155
f 61/7/313 23/84/313 27/8/313
f 18/525/155 61/7/155 26/32/155
f 70/9/155 26/32/155 61/7/155
f 34/12/314 7/65/314 73/10/314
f 7/65/315 8/526/315 73/10/315
f 72/11/316 69/520/316 20/13/316
f 37/14/317 23/527/317 19/15/317
f 35/4/318 63/528/318 60/17/318
f 38/19/319 24/521/319 22/20/319
f 66/24/320 3/48/320 4/57/320
f 4/57/321 40/22/321 66/24/321
f 38/25/322 39/81/322 26/26/322
f 37/29/323 2/40/323 66/24/323
f 2/40/324 3/48/324 66/24/324
f 39/30/325 41/79/325 28/31/325
f 42/33/326 29/38/326 27/8/326
f 43/35/327 30/39/327 28/36/327
f 31/37/328 17/519/328 29/38/328
f 43/35/329 32/6/329 18/5/329
f 2/40/330 1/43/330 45/41/330
f 1/43/331 16/529/331 59/44/331
f 9/45/332 52/74/332 53/46/332
f 3/48/333 2/40/333 44/42/333
f 11/50/334 10/47/334 53/46/334
f 4/52/335 3/530/335 46/53/335
f 11/50/23 54/51/23 55/55/23
f 4/57/336 47/531/336 48/58/336
f 12/56/337 55/55/337 56/60/337
f 5/62/338 48/532/338 49/63/338
f 14/56/339 13/61/339 56/60/339
f 7/65/340 6/64/340 49/63/340
f 14/56/341 57/55/341 58/67/341
f 7/68/342 50/533/342 51/69/342
f 16/71/343 15/534/343 58/72/343
f 8/70/344 51/69/344 52/74/344
f 35/77/345 15/535/345 64/75/345
f 15/535/346 16/536/346 64/75/346
f 13/78/347 14/537/347 32/79/347
f 5/62/348 6/64/348 31/37/348
f 13/61/349 43/35/349 41/6/349
f 5/59/350 42/538/350 40/22/350
f 11/50/351 12/56/351 41/6/351
f 10/47/352 11/50/352 39/81/352
f 23/84/353 37/88/353 68/82/353
f 37/88/354 65/539/354 68/82/354
f 10/85/355 38/19/355 36/21/355
f 1/87/356 2/540/356 37/88/356
f 64/92/357 16/529/357 1/43/357
f 1/43/358 33/90/358 64/92/358
f 73/10/359 8/526/359 9/86/359
f 9/86/360 36/21/360 73/10/360
f 14/56/361 15/50/361 35/4/361
f 6/57/362 7/68/362 34/94/362
f 62/95/363 61/541/363 60/98/363
f 62/91/364 33/90/364 19/99/364
f 65/101/365 66/542/365 67/102/365
f 25/83/366 68/82/366 27/8/366
f 68/82/367 67/543/367 40/34/367
f 71/104/368 70/544/368 69/107/368
f 71/108/369 36/545/369 22/109/369
f 76/111/370 93/153/370 92/112/370
f 77/114/371 78/120/371 99/115/371
f 120/119/372 108/546/372 107/547/372
f 107/547/373 93/117/373 120/119/373
f 78/120/374 79/548/374 100/121/374
f 126/122/375 127/549/375 97/123/375
f 134/127/376 101/550/376 102/551/376
f 102/551/377 88/125/377 134/127/377
f 79/128/378 81/150/378 88/129/378
f 80/131/379 82/552/379 95/132/379
f 78/553/380 77/554/380 125/135/380
f 125/135/381 126/218/381 84/553/381
f 126/218/382 86/555/382 84/553/382
f 84/553/383 82/556/383 80/557/383
f 125/135/384 84/553/384 80/557/384
f 80/557/385 116/208/385 76/558/385
f 116/208/386 117/209/386 76/558/386
f 76/558/387 75/136/387 125/135/387
f 75/136/388 87/559/388 125/135/388
f 87/559/389 85/136/389 125/135/389
f 85/136/390 83/560/390 131/225/390
f 125/135/391 81/134/391 79/561/391
f 83/560/392 130/224/392 131/225/392
f 131/225/393 81/134/393 85/136/393
f 79/561/394 78/553/394 125/135/394
f 125/135/395 80/557/395 76/558/395
f 84/120/396 96/142/396 95/137/396
f 85/113/397 90/157/397 89/139/397
f 84/120/398 86/562/398 97/141/398
f 85/143/399 87/563/399 91/144/399
f 129/147/400 112/200/400 111/170/400
f 111/170/401 97/141/401 129/147/401
f 75/113/402 92/112/402 91/148/402
f 81/150/403 131/564/403 132/151/403
f 76/111/404 117/565/404 118/152/404
f 89/139/405 103/156/405 134/154/405
f 103/156/406 101/184/406 134/154/406
f 103/156/407 89/139/407 90/157/407
f 105/159/408 104/566/408 90/160/408
f 106/162/409 105/188/409 91/148/409
f 107/163/410 106/190/410 92/164/410
f 94/133/411 109/194/411 120/166/411
f 109/194/412 108/567/412 120/166/412
f 110/168/413 109/194/413 94/133/413
f 124/169/79 123/197/79 111/170/79
f 98/174/414 113/568/414 129/172/414
f 113/568/415 112/199/415 129/172/415
f 114/175/416 113/569/416 98/176/416
f 114/178/417 99/570/417 100/179/417
f 115/181/418 100/121/418 88/182/418
f 96/142/419 122/195/419 95/137/419
f 122/195/420 121/571/420 110/196/420
f 97/141/421 111/170/421 123/197/421
f 123/197/422 122/195/422 96/142/422
f 116/208/423 119/206/423 118/205/423
f 80/131/424 94/133/424 119/167/424
f 121/211/425 122/572/425 123/212/425
f 110/168/104 121/573/104 124/214/104
f 128/216/426 127/215/426 126/218/426
f 77/114/427 98/116/427 128/219/427
f 130/224/428 133/222/428 132/221/428
f 83/226/429 89/574/429 133/227/429
f 175/229/430 135/302/430 148/230/430
f 149/291/431 191/233/431 137/232/431
f 191/233/432 190/261/432 176/234/432
f 172/235/433 174/575/433 148/236/433
f 171/238/434 173/308/434 147/239/434
f 170/241/435 172/235/435 146/237/435
f 169/243/436 171/279/436 145/244/436
f 170/241/437 144/242/437 142/246/437
f 149/576/155 137/257/155 147/239/155
f 137/257/438 138/240/438 142/246/438
f 147/239/439 137/257/439 142/246/439
f 138/240/155 140/577/155 141/578/155
f 141/578/440 142/246/440 138/240/440
f 142/246/441 144/242/441 146/237/441
f 146/237/155 148/236/155 135/237/155
f 135/237/442 136/579/442 139/580/442
f 139/580/443 178/581/443 179/248/443
f 179/248/444 143/582/444 145/240/444
f 139/580/445 179/248/445 135/237/445
f 146/237/446 135/237/446 142/246/446
f 147/239/447 142/246/447 179/248/447
f 179/248/448 145/240/448 147/239/448
f 177/249/449 141/252/449 140/250/449
f 177/249/450 168/265/450 142/251/450
f 169/243/451 143/245/451 179/253/451
f 167/255/452 140/577/452 138/240/452
f 176/256/453 165/238/453 138/240/453
f 185/259/454 153/583/454 155/520/454
f 155/520/455 166/247/455 185/259/455
f 187/260/456 151/267/456 176/234/456
f 182/262/457 157/109/457 159/278/457
f 159/278/458 169/243/458 182/262/458
f 136/301/459 183/264/459 139/263/459
f 183/264/460 186/584/460 166/265/460
f 154/266/461 165/279/461 176/234/461
f 175/229/462 150/585/462 185/268/462
f 150/585/463 153/586/463 185/268/463
f 154/270/464 156/273/464 167/255/464
f 152/271/465 158/277/465 168/265/465
f 152/272/466 177/587/466 167/255/466
f 166/247/133 155/520/133 182/274/133
f 155/520/133 157/20/133 182/274/133
f 160/276/467 170/588/467 168/265/467
f 159/278/468 161/282/468 171/279/468
f 162/280/469 172/235/469 170/241/469
f 161/282/470 163/589/470 173/283/470
f 162/284/471 164/590/471 174/231/471
f 155/107/472 153/591/472 187/287/472
f 153/591/473 150/592/473 187/287/473
f 150/592/474 164/593/474 187/287/474
f 164/593/475 162/594/475 187/287/475
f 162/594/476 160/595/476 187/287/476
f 160/595/477 158/596/477 187/287/477
f 158/596/478 152/597/478 187/287/478
f 152/597/479 156/598/479 187/287/479
f 156/598/480 154/599/480 187/287/480
f 154/599/481 151/600/481 187/287/481
f 187/287/482 188/306/482 163/601/482
f 159/286/483 157/602/483 187/287/483
f 157/602/484 155/107/484 187/287/484
f 163/601/485 161/285/485 187/287/485
f 150/288/486 175/603/486 174/289/486
f 147/292/487 173/283/487 191/233/487
f 173/283/488 189/604/488 191/233/488
f 180/293/489 179/605/489 178/296/489
f 166/265/490 181/606/490 178/297/490
f 184/298/491 185/607/491 186/299/491
f 135/302/492 175/229/492 183/264/492
f 175/229/493 184/269/493 183/264/493
f 187/287/494 190/304/494 189/303/494
f 188/307/495 189/608/495 173/308/495
f 198/310/150 199/310/150 196/311/150
f 195/312/151 194/313/151 196/311/151
f 193/312/152 198/310/152 197/311/152
f 195/312/153 199/310/153 198/310/153
f 194/313/154 192/313/154 197/311/154
f 206/314/155 207/314/155 204/315/155
f 202/316/156 204/315/156 207/314/156
f 200/316/157 201/317/157 206/314/157
f 201/317/158 203/317/158 207/314/158
f 200/316/159 205/315/159 204/315/159
f 214/318/160 215/318/160 212/319/160
f 210/320/161 212/319/161 215/318/161
f 208/320/162 209/321/162 214/318/162
f 211/321/163 215/318/163 214/318/163
f 210/320/164 208/320/164 213/319/164
f 221/322/165 223/326/165 222/323/165
f 218/325/166 216/328/166 220/324/166
f 218/325/167 222/323/167 223/326/167
f 216/328/168 217/329/168 221/322/168
f 219/327/169 223/326/169 221/322/169
f 228/330/496 229/337/496 231/331/496
f 226/333/497 224/336/497 228/330/497
f 227/334/498 226/333/498 230/332/498
f 225/335/173 229/337/173 228/330/173
f 227/334/174 231/331/174 229/337/174
f 237/338/175 239/343/175 238/339/175
f 260/341/176 236/340/176 238/339/176
f 261/342/177 238/339/177 239/343/177
f 260/341/178 263/345/178 237/338/178
f 263/345/179 262/344/179 239/343/179
f 244/346/180 245/353/180 247/347/180
f 256/349/181 244/346/181 246/348/181
f 258/351/182 257/350/182 246/348/182
f 259/352/499 245/353/499 244/346/499
f 259/352/500 258/351/500 247/347/500
f 253/354/185 255/358/185 254/355/185
f 250/357/186 248/360/186 252/356/186
f 250/357/187 254/355/187 255/358/187
f 248/360/188 249/361/188 253/354/188
f 251/359/189 255/358/189 253/354/189
f 243/362/190 258/351/190 259/352/190
f 241/363/191 259/352/191 256/349/191
f 243/362/501 242/365/501 257/350/501
f 242/365/193 240/364/193 256/349/193
f 235/366/502 262/344/502 263/345/502
f 232/368/195 233/367/195 263/345/195
f 234/369/196 261/342/196 262/344/196
f 234/369/197 232/368/197 260/341/197
f 269/370/198 271/375/198 270/371/198
f 292/373/503 268/372/503 270/371/503
f 293/374/200 270/371/200 271/375/200
f 292/373/504 295/377/504 269/370/504
f 295/377/202 294/376/202 271/375/202
f 276/378/203 277/385/203 279/379/203
f 288/381/204 276/378/204 278/380/204
f 290/383/205 289/382/205 278/380/205
f 291/384/206 277/385/206 276/378/206
f 291/384/207 290/383/207 279/379/207
f 285/386/208 287/390/208 286/387/208
f 282/389/209 280/392/209 284/388/209
f 282/389/210 286/387/210 287/390/210
f 280/392/211 281/393/211 285/386/211
f 283/391/212 287/390/212 285/386/212
f 275/394/213 290/383/213 291/384/213
f 273/395/214 291/384/214 288/381/214
f 275/394/215 274/397/215 289/382/215
f 274/397/216 272/396/216 288/381/216
f 267/398/217 294/376/217 295/377/217
f 264/400/218 265/399/218 295/377/218
f 266/401/219 293/374/219 294/376/219
f 266/401/220 264/400/220 292/373/220
f 301/402/505 303/406/505 302/403/505
f 325/405/222 324/408/222 300/404/222
f 325/405/223 302/403/223 303/406/223
f 324/408/224 327/409/224 301/402/224
f 326/407/225 303/406/225 301/402/225
f 308/410/226 309/417/226 311/411/226
f 320/413/506 308/410/506 310/412/506
f 322/415/228 321/414/228 310/412/228
f 323/416/229 309/417/229 308/410/229
f 323/416/230 322/415/230 311/411/230
f 317/418/507 319/422/507 318/419/507
f 314/421/232 312/424/232 316/420/232
f 314/421/233 318/419/233 319/422/233
f 312/424/234 313/425/234 317/418/234
f 315/423/235 319/422/235 317/418/235
f 307/426/236 322/415/236 323/416/236
f 305/427/237 323/416/237 320/413/237
f 307/426/238 306/429/238 321/414/238
f 306/429/508 304/428/508 320/413/508
f 299/430/240 326/407/240 327/409/240
f 296/432/241 297/431/241 327/409/241
f 298/433/509 325/405/509 326/407/509
f 298/433/243 296/432/243 324/408/243
f 333/434/244 335/438/244 334/435/244
f 357/437/245 356/440/245 332/436/245
f 357/437/246 334/435/246 335/438/246
f 356/440/247 359/441/247 333/434/247
f 358/439/248 335/438/248 333/434/248
f 340/442/249 341/449/249 343/443/249
f 352/445/250 340/442/250 342/444/250
f 354/447/251 353/446/251 342/444/251
f 355/448/510 341/449/510 340/442/510
f 355/448/253 354/447/253 343/443/253
f 349/450/254 351/454/254 350/451/254
f 346/453/255 344/456/255 348/452/255
f 346/453/256 350/451/256 351/454/256
f 344/456/257 345/457/257 349/450/257
f 347/455/258 351/454/258 349/450/258
f 339/458/259 354/447/259 355/448/259
f 337/459/260 355/448/260 352/445/260
f 339/458/261 338/461/261 353/446/261
f 338/461/511 336/460/511 352/445/511
f 331/462/512 358/439/512 359/441/512
f 328/464/264 329/463/264 359/441/264
f 330/465/265 357/437/265 358/439/265
f 330/465/513 328/464/513 356/440/513
f 365/466/267 367/470/267 366/467/267
f 389/469/514 388/472/514 364/468/514
f 389/469/269 366/467/269 367/470/269
f 388/472/270 391/473/270 365/466/270
f 390/471/271 367/470/271 365/466/271
f 372/474/515 373/481/515 375/475/515
f 384/477/273 372/474/273 374/476/273
f 386/479/516 385/478/516 374/476/516
f 387/480/517 373/481/517 372/474/517
f 387/480/518 386/479/518 375/475/518
f 381/482/277 383/486/277 382/483/277
f 378/485/278 376/488/278 380/484/278
f 378/485/279 382/483/279 383/486/279
f 376/488/280 377/489/280 381/482/280
f 379/487/281 383/486/281 381/482/281
f 371/490/282 386/479/282 387/480/282
f 369/491/519 387/480/519 384/477/519
f 371/490/284 370/493/284 385/478/284
f 370/493/285 368/492/285 384/477/285
f 363/494/520 390/471/520 391/473/520
f 360/496/287 361/495/287 391/473/287
f 362/497/288 389/469/288 390/471/288
f 362/497/521 360/496/521 388/472/521
f 397/498/290 399/502/290 398/499/290
f 409/501/291 408/504/291 396/500/291
f 409/501/292 398/499/292 399/502/292
f 408/504/293 411/505/293 397/498/293
f 410/503/294 399/502/294 397/498/294
f 405/506/295 407/510/295 406/507/295
f 402/509/522 400/512/522 404/508/522
f 402/509/523 406/507/523 407/510/523
f 400/512/298 401/513/298 405/506/298
f 403/511/299 407/510/299 405/506/299
f 395/514/300 410/503/300 411/505/300
f 392/516/301 393/515/301 411/505/301
f 394/517/302 409/501/302 410/503/302
f 394/517/303 392/516/303 408/504/303
f 46/609/304 44/610/304 47/611/304
f 44/610/304 45/612/304 58/72/304
f 45/612/304 59/73/304 58/72/304
f 58/72/524 57/613/524 56/614/524
f 56/614/525 55/613/525 58/72/525
f 55/613/304 54/615/304 51/518/304
f 58/72/304 55/613/304 51/518/304
f 54/615/304 53/616/304 51/518/304
f 53/616/304 52/617/304 51/518/304
f 51/518/304 50/66/304 49/63/304
f 44/610/304 58/72/304 49/63/304
f 47/611/304 44/610/304 49/63/304
f 48/532/526 47/611/526 49/63/526
