# Blender 4.4.0
# www.blender.org
mtllib Prop_Wardrobe_01.mtl
o Prop_Wardrobe_01
v -0.354505 0.087487 -0.207318
v -0.354505 0.087487 0.270563
v 0.354505 0.087487 0.270563
v 0.354505 0.087487 -0.207318
v 0.354505 0.064136 0.270563
v -0.354505 0.064136 0.270563
v -0.354505 1.789505 0.276736
v 0.354505 1.789505 0.276736
v -0.354505 1.775051 -0.206372
v -0.354505 1.775051 0.276736
v 0.354505 1.775051 0.276736
v 0.354505 1.775051 -0.206372
v -0.361956 -0.000000 -0.207318
v 0.361956 -0.000000 -0.207318
v -0.361956 1.789781 -0.207318
v 0.361956 1.789781 -0.207318
v -0.361956 1.789781 -0.210296
v -0.361956 -0.000000 -0.210296
v 0.361956 -0.000000 -0.210296
v 0.361956 1.789781 -0.210296
v -0.375000 0.000000 0.277682
v 0.375000 0.000000 0.277682
v -0.375000 0.000000 -0.207318
v 0.375000 0.000000 -0.207318
v -0.375000 1.789505 -0.207318
v -0.375000 1.789505 0.277682
v 0.375000 1.789505 0.277682
v 0.375000 1.789505 -0.207318
v -0.354505 0.000000 0.277682
v 0.354505 0.000000 0.277682
v -0.354505 1.789505 -0.207318
v -0.354505 1.789505 0.277682
v 0.354505 1.789505 0.277682
v 0.354505 1.789505 -0.207318
v -0.354505 0.000000 0.275624
v 0.354505 0.000000 0.275624
v -0.354505 0.000000 -0.207318
v 0.354505 0.000000 -0.207318
v 0.354505 0.064136 0.275624
v -0.354505 0.064136 0.275624
v 0.354505 0.062071 -0.207318
v -0.354505 0.062071 -0.207318
v -0.381957 1.810000 -0.211817
v -0.381957 1.810000 0.282181
v 0.381957 1.810000 0.282181
v 0.381957 1.810000 -0.211817
v -0.381957 1.789505 -0.211817
v -0.381957 1.789505 0.282181
v 0.381957 1.789505 0.282181
v 0.381957 1.789505 -0.211817
v -0.354505 0.639668 0.274553
v 0.354505 0.639668 0.274553
v -0.354505 0.632870 -0.207318
v 0.354505 0.632870 -0.207318
v -0.354505 0.655051 -0.207318
v -0.354505 0.655051 0.274553
v 0.354505 0.655051 0.274553
v 0.354505 0.655051 -0.207318
v -0.354505 0.339285 0.274553
v 0.354505 0.339285 0.274553
v -0.354505 0.332487 -0.207318
v 0.354505 0.332487 -0.207318
v -0.354505 0.354668 -0.207318
v -0.354505 0.354668 0.274553
v 0.354505 0.354668 0.274553
v 0.354505 0.354668 -0.207318
v -0.354505 1.689533 0.046675
v -0.354505 1.695621 0.040587
v 0.354505 1.695621 0.040587
v 0.354505 1.689533 0.046675
v -0.354505 1.695621 0.026648
v -0.354505 1.689533 0.020560
v 0.354505 1.689533 0.020560
v 0.354505 1.695621 0.026648
v -0.354505 1.673807 0.040587
v -0.354505 1.679895 0.046675
v 0.354505 1.679895 0.046675
v 0.354505 1.673807 0.040587
v -0.354505 1.679895 0.020560
v -0.354505 1.673807 0.026648
v 0.354505 1.673807 0.026648
v 0.354505 1.679895 0.020560
vn -0.0000 1.0000 -0.0000
vn -0.0000 -0.0000 1.0000
vn -0.0000 -1.0000 -0.0000
vn -0.0000 -0.0000 -1.0000
vn 1.0000 -0.0000 -0.0000
vn -1.0000 -0.0000 -0.0000
vn -0.0000 1.0000 -0.0043
vn -0.0000 -0.9999 0.0141
vn -0.0000 0.7071 0.7071
vn -0.0000 0.7071 -0.7071
vn -0.0000 -0.7071 0.7071
vn -0.0000 -0.7071 -0.7071
vt 0.589710 0.986285
vt 0.586260 0.986285
vt 0.589710 0.905092
vt 0.586260 0.905092
vt 0.575192 0.814221
vt 0.573157 0.814221
vt 0.575192 0.863617
vt 0.573157 0.863617
vt 0.574877 0.935010
vt 0.571425 0.991687
vt 0.571425 0.935010
vt 0.574877 0.991687
vt 0.574940 0.935010
vt 0.574940 0.991679
vt 0.571363 0.935010
vt 0.571363 0.991679
vt 0.574842 0.991679
vt 0.574842 0.935010
vt 0.571461 0.991679
vt 0.571461 0.935010
vt 0.602554 0.815111
vt 0.604828 0.815111
vt 0.604828 0.877000
vt 0.602554 0.877000
vt 0.604828 0.879058
vt 0.602554 0.879058
vt 0.604916 0.858432
vt 0.602466 0.858432
vt 0.602466 0.837997
vt 0.604916 0.837997
vt 0.586260 0.900641
vt 0.589710 0.924277
vt 0.586260 0.924277
vt 0.589710 0.977764
vt 0.586260 0.977764
vt 0.586260 0.901036
vt 0.589710 0.924672
vt 0.586260 0.924672
vt 0.589710 0.978159
vt 0.586260 0.978159
vt 0.444141 0.653457
vt 0.444827 0.673686
vt 0.444141 0.673686
vt 0.444141 0.640678
vt 0.444827 0.640678
vt 0.444827 0.653457
vt 0.444827 0.686464
vt 0.444141 0.686464
vt 0.589710 0.900641
vt 0.589710 0.901036
s 0
usemtl Texture_Map
f 3/1/1 1/2/1 2/2/1
f 5/3/2 2/2/2 6/4/2
f 9/5/3 11/6/3 10/5/3
f 7/7/2 11/6/2 8/8/2
f 14/9/2 15/10/2 13/11/2
f 17/10/4 19/9/4 18/11/4
f 18/11/3 14/9/3 13/11/3
f 19/9/5 16/12/5 14/9/5
f 17/10/6 13/11/6 15/10/6
f 24/13/5 27/14/5 22/13/5
f 21/15/6 25/16/6 23/15/6
f 33/17/6 38/18/6 30/18/6
f 31/19/5 29/20/5 37/20/5
f 32/19/1 25/16/1 26/16/1
f 37/20/3 21/15/3 23/15/3
f 31/19/4 23/15/4 25/16/4
f 29/20/2 26/16/2 21/15/2
f 34/17/1 27/14/1 28/14/1
f 30/18/3 24/13/3 22/13/3
f 38/18/4 28/14/4 24/13/4
f 33/17/2 22/13/2 27/14/2
f 37/21/3 36/22/3 35/21/3
f 37/21/4 41/23/4 38/22/4
f 35/21/6 42/24/6 37/21/6
f 36/22/5 41/23/5 39/25/5
f 36/22/2 40/26/2 35/21/2
f 40/26/7 41/23/7 42/24/7
f 45/27/1 43/28/1 44/28/1
f 47/29/3 49/30/3 48/29/3
f 48/29/2 45/27/2 44/28/2
f 49/30/5 46/27/5 45/27/5
f 47/29/6 44/28/6 43/28/6
f 50/30/4 43/28/4 46/27/4
f 53/31/8 52/32/8 51/33/8
f 57/34/1 55/35/1 56/35/1
f 52/32/2 56/35/2 51/33/2
f 61/36/8 60/37/8 59/38/8
f 65/39/1 63/40/1 64/40/1
f 60/37/2 64/40/2 59/38/2
f 76/41/2 70/42/2 67/43/2
f 80/44/3 78/45/3 75/44/3
f 82/46/4 72/43/4 73/42/4
f 69/47/1 71/48/1 68/48/1
f 70/42/9 68/48/9 67/43/9
f 72/43/10 74/47/10 73/42/10
f 78/45/11 76/41/11 75/44/11
f 80/44/12 82/46/12 81/45/12
f 3/1/1 4/1/1 1/2/1
f 5/3/2 3/1/2 2/2/2
f 9/5/3 12/6/3 11/6/3
f 7/7/2 10/5/2 11/6/2
f 14/9/2 16/12/2 15/10/2
f 17/10/4 20/12/4 19/9/4
f 18/11/3 19/9/3 14/9/3
f 19/9/5 20/12/5 16/12/5
f 17/10/6 18/11/6 13/11/6
f 24/13/5 28/14/5 27/14/5
f 21/15/6 26/16/6 25/16/6
f 33/17/6 34/17/6 38/18/6
f 31/19/5 32/19/5 29/20/5
f 32/19/1 31/19/1 25/16/1
f 37/20/3 29/20/3 21/15/3
f 31/19/4 37/20/4 23/15/4
f 29/20/2 32/19/2 26/16/2
f 34/17/1 33/17/1 27/14/1
f 30/18/3 38/18/3 24/13/3
f 38/18/4 34/17/4 28/14/4
f 33/17/2 30/18/2 22/13/2
f 37/21/3 38/22/3 36/22/3
f 37/21/4 42/24/4 41/23/4
f 35/21/6 40/26/6 42/24/6
f 36/22/5 38/22/5 41/23/5
f 36/22/2 39/25/2 40/26/2
f 40/26/7 39/25/7 41/23/7
f 45/27/1 46/27/1 43/28/1
f 47/29/3 50/30/3 49/30/3
f 48/29/2 49/30/2 45/27/2
f 49/30/5 50/30/5 46/27/5
f 47/29/6 48/29/6 44/28/6
f 50/30/4 47/29/4 43/28/4
f 53/31/8 54/49/8 52/32/8
f 57/34/1 58/34/1 55/35/1
f 52/32/2 57/34/2 56/35/2
f 61/36/8 62/50/8 60/37/8
f 65/39/1 66/39/1 63/40/1
f 60/37/2 65/39/2 64/40/2
f 76/41/2 77/46/2 70/42/2
f 80/44/3 81/45/3 78/45/3
f 82/46/4 79/41/4 72/43/4
f 69/47/1 74/47/1 71/48/1
f 70/42/9 69/47/9 68/48/9
f 72/43/10 71/48/10 74/47/10
f 78/45/11 77/46/11 76/41/11
f 80/44/12 79/41/12 82/46/12
o Prop_Wardrobe_Left_01
v -0.354505 0.064136 0.277682
v -0.354505 1.789505 0.277682
v -0.001643 1.789505 0.277682
v -0.001643 0.064136 0.277682
v -0.354505 1.789505 0.285585
v -0.354505 0.064136 0.285585
v -0.001643 1.789505 0.285585
v -0.001643 0.064136 0.285585
v -0.031409 0.844463 0.278866
v -0.040647 0.839340 0.281989
v -0.031409 0.834216 0.285111
v -0.022171 0.839340 0.281989
v -0.031409 0.854848 0.296566
v -0.040647 0.851060 0.301219
v -0.031409 0.847271 0.305871
v -0.022171 0.851060 0.301219
v -0.031409 0.884386 0.306807
v -0.040647 0.883080 0.312663
v -0.031409 0.881774 0.318519
v -0.022171 0.883080 0.312663
v -0.031409 0.926820 0.310852
v -0.040647 0.926820 0.316852
v -0.031409 0.926820 0.322852
v -0.022171 0.926820 0.316852
v -0.031409 0.969255 0.306807
v -0.040647 0.970560 0.312663
v -0.031409 0.971866 0.318519
v -0.022171 0.970560 0.312663
v -0.031409 0.998792 0.296566
v -0.040647 1.002580 0.301219
v -0.031409 1.006369 0.305872
v -0.022171 1.002580 0.301219
v -0.031409 1.009177 0.278866
v -0.040647 1.014301 0.281989
v -0.031409 1.019424 0.285111
v -0.022171 1.014301 0.281989
vn -0.0000 -0.0000 -1.0000
vn -0.0000 -1.0000 -0.0000
vn -0.0000 -0.0000 1.0000
vn -1.0000 -0.0000 -0.0000
vn -0.0000 1.0000 -0.0000
vn 1.0000 -0.0000 -0.0000
vn 0.5446 0.7234 -0.4244
vn -0.5446 0.7233 -0.4244
vn -0.5447 -0.7161 0.4364
vn 0.5447 -0.7161 0.4364
vn 0.5222 0.2870 -0.8031
vn -0.5222 0.2870 -0.8031
vn -0.5233 -0.2933 0.8001
vn 0.5233 -0.2933 0.8001
vn 0.5418 0.0801 -0.8367
vn -0.5418 0.0801 -0.8367
vn -0.5418 -0.0805 0.8367
vn 0.5418 -0.0805 0.8367
vn 0.5430 -0.0797 -0.8360
vn -0.5430 -0.0797 -0.8360
vn -0.5430 0.0801 0.8359
vn 0.5430 0.0801 0.8359
vn 0.5422 -0.2753 -0.7939
vn -0.5422 -0.2753 -0.7939
vn -0.5418 0.2829 0.7915
vn 0.5418 0.2829 0.7915
vn 0.5222 -0.7282 -0.4438
vn -0.5222 -0.7282 -0.4438
vn -0.5240 0.7210 0.4534
vn 0.5240 0.7210 0.4534
vn 0.5222 0.7282 -0.4438
vn -0.5222 0.7282 -0.4438
vn -0.5240 -0.7210 0.4534
vn 0.5240 -0.7210 0.4534
vn 0.5422 0.2753 -0.7939
vn -0.5422 0.2753 -0.7939
vn -0.5418 -0.2829 0.7915
vn 0.5418 -0.2829 0.7915
vn 0.5430 0.0797 -0.8360
vn -0.5430 0.0797 -0.8360
vn -0.5430 -0.0801 0.8359
vn 0.5430 -0.0801 0.8359
vn 0.5418 -0.0801 -0.8367
vn -0.5418 -0.0801 -0.8367
vn -0.5418 0.0805 0.8367
vn 0.5418 0.0805 0.8367
vn 0.5222 -0.2870 -0.8031
vn -0.5222 -0.2870 -0.8031
vn -0.5233 0.2933 0.8001
vn 0.5233 0.2933 0.8001
vn 0.5446 -0.7234 -0.4244
vn -0.5446 -0.7233 -0.4244
vn -0.5447 0.7161 0.4364
vn 0.5447 0.7161 0.4364
vt 0.583411 0.877773
vt 0.582621 0.825954
vt 0.582621 0.877773
vt 0.583411 0.825954
vt 0.457130 0.648106
vt 0.458035 0.643040
vt 0.457130 0.644714
vt 0.456226 0.643040
vt 0.457130 0.641366
vt 0.456226 0.646869
vt 0.458035 0.646869
vt 0.458035 0.657329
vt 0.456226 0.657329
vt 0.457130 0.656902
vt 0.457130 0.645631
vt 0.457130 0.657755
vt 0.458035 0.671617
vt 0.456226 0.671617
vt 0.457130 0.671617
vt 0.457130 0.685479
vt 0.456226 0.685906
vt 0.458035 0.685906
vt 0.457130 0.695128
vt 0.457130 0.686332
vt 0.456226 0.696366
vt 0.458035 0.696366
vt 0.458035 0.700195
vt 0.456226 0.700195
vt 0.457130 0.701868
vt 0.457130 0.697604
vt 0.457130 0.698521
s 0
usemtl Texture_Map
f 85/51/13 83/52/13 84/53/13
f 86/54/14 88/52/14 83/52/14
f 88/52/15 89/51/15 87/53/15
f 83/52/16 87/53/16 84/53/16
f 84/53/17 89/51/17 85/51/17
f 85/51/18 90/54/18 86/54/18
f 95/55/19 94/56/19 91/57/19
f 92/58/20 95/55/20 91/57/20
f 93/59/21 96/60/21 92/58/21
f 98/61/22 93/59/22 94/56/22
f 95/55/23 102/62/23 98/61/23
f 100/63/24 95/55/24 96/60/24
f 101/64/25 96/60/25 97/65/25
f 98/61/26 101/64/26 97/65/26
f 99/66/27 106/67/27 102/62/27
f 104/68/28 99/66/28 100/63/28
f 105/69/29 100/63/29 101/64/29
f 102/62/30 105/69/30 101/64/30
f 107/70/31 106/67/31 103/69/31
f 104/68/32 107/70/32 103/69/32
f 105/69/33 108/71/33 104/68/33
f 110/72/34 105/69/34 106/67/34
f 111/73/35 110/72/35 107/70/35
f 108/71/36 111/73/36 107/70/36
f 109/74/37 112/75/37 108/71/37
f 114/76/38 109/74/38 110/72/38
f 111/73/39 118/77/39 114/76/39
f 116/78/40 111/73/40 112/75/40
f 117/79/41 112/75/41 113/80/41
f 114/76/42 117/79/42 113/80/42
f 85/51/13 86/54/13 83/52/13
f 86/54/14 90/54/14 88/52/14
f 88/52/15 90/54/15 89/51/15
f 83/52/16 88/52/16 87/53/16
f 84/53/17 87/53/17 89/51/17
f 85/51/18 89/51/18 90/54/18
f 95/55/43 98/61/43 94/56/43
f 92/58/44 96/60/44 95/55/44
f 93/59/45 97/65/45 96/60/45
f 98/61/46 97/65/46 93/59/46
f 95/55/47 99/66/47 102/62/47
f 100/63/48 99/66/48 95/55/48
f 101/64/49 100/63/49 96/60/49
f 98/61/50 102/62/50 101/64/50
f 99/66/51 103/69/51 106/67/51
f 104/68/52 103/69/52 99/66/52
f 105/69/53 104/68/53 100/63/53
f 102/62/54 106/67/54 105/69/54
f 107/70/55 110/72/55 106/67/55
f 104/68/56 108/71/56 107/70/56
f 105/69/57 109/74/57 108/71/57
f 110/72/58 109/74/58 105/69/58
f 111/73/59 114/76/59 110/72/59
f 108/71/60 112/75/60 111/73/60
f 109/74/61 113/80/61 112/75/61
f 114/76/62 113/80/62 109/74/62
f 111/73/63 115/81/63 118/77/63
f 116/78/64 115/81/64 111/73/64
f 117/79/65 116/78/65 112/75/65
f 114/76/66 118/77/66 117/79/66
o Prop_Wardrobe_Right_01
v 0.354505 0.064136 0.277682
v 0.354505 1.789505 0.277682
v 0.001643 1.789505 0.277682
v 0.001643 0.064136 0.277682
v 0.354505 1.789505 0.285585
v 0.354505 0.064136 0.285585
v 0.001643 1.789505 0.285585
v 0.001643 0.064136 0.285585
v 0.031409 0.844463 0.278866
v 0.040647 0.839340 0.281989
v 0.031409 0.834216 0.285111
v 0.022171 0.839340 0.281989
v 0.031409 0.854848 0.296566
v 0.040647 0.851060 0.301219
v 0.031409 0.847271 0.305871
v 0.022171 0.851060 0.301219
v 0.031409 0.884386 0.306807
v 0.040647 0.883080 0.312663
v 0.031409 0.881774 0.318519
v 0.022171 0.883080 0.312663
v 0.031409 0.926820 0.310852
v 0.040647 0.926820 0.316852
v 0.031409 0.926820 0.322852
v 0.022171 0.926820 0.316852
v 0.031409 0.969255 0.306807
v 0.040647 0.970560 0.312663
v 0.031409 0.971866 0.318519
v 0.022171 0.970560 0.312663
v 0.031409 0.998792 0.296566
v 0.040647 1.002580 0.301219
v 0.031409 1.006369 0.305872
v 0.022171 1.002580 0.301219
v 0.031409 1.009177 0.278866
v 0.040647 1.014301 0.281989
v 0.031409 1.019424 0.285111
v 0.022171 1.014301 0.281989
vn -0.0000 -0.0000 -1.0000
vn -0.0000 -1.0000 -0.0000
vn -0.0000 -0.0000 1.0000
vn 1.0000 -0.0000 -0.0000
vn -0.0000 1.0000 -0.0000
vn -1.0000 -0.0000 -0.0000
vn -0.5446 0.7234 -0.4244
vn 0.5222 0.7282 -0.4438
vn 0.5240 -0.7210 0.4534
vn -0.5447 -0.7161 0.4364
vn -0.5422 0.2753 -0.7939
vn 0.5222 0.2870 -0.8031
vn 0.5233 -0.2933 0.8001
vn -0.5418 -0.2829 0.7915
vn -0.5430 0.0797 -0.8360
vn 0.5418 0.0801 -0.8367
vn 0.5418 -0.0805 0.8367
vn -0.5430 -0.0801 0.8359
vn -0.5430 -0.0797 -0.8360
vn 0.5418 -0.0801 -0.8367
vn 0.5418 0.0805 0.8367
vn -0.5430 0.0801 0.8359
vn -0.5422 -0.2753 -0.7939
vn 0.5222 -0.2870 -0.8031
vn 0.5233 0.2933 0.8001
vn -0.5418 0.2829 0.7915
vn -0.5446 -0.7234 -0.4244
vn 0.5222 -0.7282 -0.4438
vn 0.5240 0.7210 0.4534
vn -0.5447 0.7161 0.4364
vn -0.5222 0.7282 -0.4438
vn 0.5446 0.7233 -0.4244
vn 0.5447 -0.7161 0.4364
vn -0.5240 -0.7210 0.4534
vn -0.5222 0.2870 -0.8031
vn 0.5422 0.2753 -0.7939
vn 0.5418 -0.2829 0.7915
vn -0.5233 -0.2933 0.8001
vn -0.5418 0.0801 -0.8367
vn 0.5430 0.0797 -0.8360
vn 0.5430 -0.0801 0.8359
vn -0.5418 -0.0805 0.8367
vn -0.5418 -0.0801 -0.8367
vn 0.5430 -0.0797 -0.8360
vn 0.5430 0.0801 0.8359
vn -0.5418 0.0805 0.8367
vn -0.5222 -0.2870 -0.8031
vn 0.5422 -0.2753 -0.7939
vn 0.5418 0.2829 0.7915
vn -0.5233 0.2933 0.8001
vn -0.5222 -0.7282 -0.4438
vn 0.5446 -0.7233 -0.4244
vn 0.5447 0.7161 0.4364
vn -0.5240 0.7210 0.4534
vt 0.584208 0.825954
vt 0.583418 0.877773
vt 0.584208 0.877773
vt 0.583418 0.825954
vt 0.456233 0.643040
vt 0.457137 0.648106
vt 0.457137 0.644714
vt 0.458042 0.643040
vt 0.458042 0.646869
vt 0.457137 0.641366
vt 0.457137 0.645631
vt 0.456233 0.646869
vt 0.456233 0.657329
vt 0.457137 0.657755
vt 0.458042 0.657329
vt 0.457137 0.656902
vt 0.456233 0.671617
vt 0.457137 0.671617
vt 0.458042 0.671617
vt 0.457137 0.685479
vt 0.458042 0.685906
vt 0.457137 0.686332
vt 0.456233 0.685906
vt 0.457137 0.695128
vt 0.458042 0.696366
vt 0.457137 0.697604
vt 0.456233 0.696366
vt 0.456233 0.700195
vt 0.457137 0.698521
vt 0.458042 0.700195
vt 0.457137 0.701868
s 0
usemtl Texture_Map
f 119/82/67 121/83/67 120/84/67
f 124/82/68 122/85/68 119/82/68
f 125/83/69 124/82/69 123/84/69
f 123/84/70 119/82/70 120/84/70
f 125/83/71 120/84/71 121/83/71
f 126/85/72 121/83/72 122/85/72
f 130/86/73 131/87/73 127/88/73
f 128/89/74 131/87/74 132/90/74
f 129/91/75 132/90/75 133/92/75
f 129/91/76 134/93/76 130/86/76
f 131/87/77 138/94/77 135/95/77
f 131/87/78 136/96/78 132/90/78
f 132/90/79 137/97/79 133/92/79
f 134/93/80 137/97/80 138/94/80
f 135/95/81 142/98/81 139/99/81
f 135/95/82 140/100/82 136/96/82
f 136/96/83 141/99/83 137/97/83
f 138/94/84 141/99/84 142/98/84
f 142/98/85 143/101/85 139/99/85
f 140/100/86 143/101/86 144/102/86
f 141/99/87 144/102/87 145/103/87
f 141/99/88 146/104/88 142/98/88
f 146/104/89 147/105/89 143/101/89
f 144/102/90 147/105/90 148/106/90
f 145/103/91 148/106/91 149/107/91
f 145/103/92 150/108/92 146/104/92
f 147/105/93 154/109/93 151/110/93
f 147/105/94 152/111/94 148/106/94
f 148/106/95 153/112/95 149/107/95
f 150/108/96 153/112/96 154/109/96
f 119/82/67 122/85/67 121/83/67
f 124/82/68 126/85/68 122/85/68
f 125/83/69 126/85/69 124/82/69
f 123/84/70 124/82/70 119/82/70
f 125/83/71 123/84/71 120/84/71
f 126/85/72 125/83/72 121/83/72
f 130/86/97 134/93/97 131/87/97
f 128/89/98 127/88/98 131/87/98
f 129/91/99 128/89/99 132/90/99
f 129/91/100 133/92/100 134/93/100
f 131/87/101 134/93/101 138/94/101
f 131/87/102 135/95/102 136/96/102
f 132/90/103 136/96/103 137/97/103
f 134/93/104 133/92/104 137/97/104
f 135/95/105 138/94/105 142/98/105
f 135/95/106 139/99/106 140/100/106
f 136/96/107 140/100/107 141/99/107
f 138/94/108 137/97/108 141/99/108
f 142/98/109 146/104/109 143/101/109
f 140/100/110 139/99/110 143/101/110
f 141/99/111 140/100/111 144/102/111
f 141/99/112 145/103/112 146/104/112
f 146/104/113 150/108/113 147/105/113
f 144/102/114 143/101/114 147/105/114
f 145/103/115 144/102/115 148/106/115
f 145/103/116 149/107/116 150/108/116
f 147/105/117 150/108/117 154/109/117
f 147/105/118 151/110/118 152/111/118
f 148/106/119 152/111/119 153/112/119
f 150/108/120 149/107/120 153/112/120
