# Blender 4.4.0
# www.blender.org
mtllib Prop_Rocking_Chair_01.mtl
o Prop_Rocking_Chair_01
v -0.254695 0.056930 0.233807
v -0.254695 0.072714 -0.234099
v -0.254695 0.041727 0.084647
v -0.254695 0.044748 -0.085878
v -0.213614 0.072714 -0.234099
v -0.213614 0.056930 0.233807
v -0.213614 0.044748 -0.085878
v -0.213614 0.041727 0.084647
v -0.254695 0.013692 0.234422
v -0.254695 0.029477 -0.233484
v -0.254695 -0.001510 0.085262
v -0.254695 0.001510 -0.085262
v -0.213614 0.029477 -0.233484
v -0.213614 0.013692 0.234422
v -0.213614 0.001510 -0.085262
v -0.213614 -0.001510 0.085262
v -0.254695 0.090783 -0.400688
v -0.213614 0.090783 -0.400688
v -0.254695 0.074704 -0.397401
v -0.213614 0.074704 -0.397401
v -0.254695 0.081392 0.404867
v -0.213614 0.081392 0.404867
v -0.254695 0.062833 0.404632
v -0.213614 0.062833 0.404632
v -0.213614 0.055385 0.386680
v -0.213614 0.092777 0.389272
v -0.254695 0.092777 0.389272
v -0.254695 0.055385 0.386680
v -0.254695 0.103917 -0.384008
v -0.213614 0.103917 -0.384008
v -0.213614 0.069361 -0.379564
v -0.254695 0.069361 -0.379564
v 0.254695 0.056930 0.233807
v 0.254695 0.072714 -0.234099
v 0.254695 0.041727 0.084647
v 0.254695 0.044748 -0.085878
v 0.213614 0.072714 -0.234099
v 0.213614 0.056930 0.233807
v 0.213614 0.044748 -0.085878
v 0.213614 0.041727 0.084647
v 0.254695 0.013692 0.234422
v 0.254695 0.029477 -0.233484
v 0.254695 -0.001510 0.085262
v 0.254695 0.001510 -0.085262
v 0.213614 0.029477 -0.233484
v 0.213614 0.013692 0.234422
v 0.213614 0.001510 -0.085262
v 0.213614 -0.001510 0.085262
v 0.254695 0.090783 -0.400688
v 0.213614 0.090783 -0.400688
v 0.254695 0.074704 -0.397401
v 0.213614 0.074704 -0.397401
v 0.254695 0.081392 0.404867
v 0.213614 0.081392 0.404867
v 0.254695 0.062833 0.404632
v 0.213614 0.062833 0.404632
v 0.213614 0.055385 0.386680
v 0.213614 0.092777 0.389272
v 0.254695 0.092777 0.389272
v 0.254695 0.055385 0.386680
v 0.254695 0.103917 -0.384008
v 0.213614 0.103917 -0.384008
v 0.213614 0.069361 -0.379564
v 0.254695 0.069361 -0.379564
v -0.252102 0.044285 -0.075724
v -0.252102 0.040482 -0.038075
v -0.216208 0.044285 -0.075724
v -0.216208 0.040482 -0.038075
v -0.252102 1.113612 -0.308382
v -0.252102 1.121558 -0.273207
v -0.216208 1.113612 -0.308382
v -0.216208 1.121558 -0.273207
v 0.252102 0.044285 -0.075724
v 0.252102 0.040482 -0.038075
v 0.216208 0.044285 -0.075724
v 0.216208 0.040482 -0.038075
v 0.252102 1.113612 -0.308382
v 0.252102 1.121558 -0.273207
v 0.216208 1.113612 -0.308382
v 0.216208 1.121558 -0.273207
v -0.252102 0.077677 0.321919
v -0.252102 0.086551 0.355240
v -0.216208 0.077677 0.321919
v -0.216208 0.086551 0.355240
v -0.252102 0.626406 0.245009
v -0.252102 0.630421 0.282331
v -0.216208 0.626406 0.245009
v -0.216208 0.630421 0.282331
v 0.252102 0.077677 0.321919
v 0.252102 0.086551 0.355240
v 0.216208 0.077677 0.321919
v 0.216208 0.086551 0.355240
v 0.252102 0.626406 0.245009
v 0.252102 0.630421 0.282331
v 0.216208 0.626406 0.245009
v 0.216208 0.630421 0.282331
v -0.248200 0.148030 -0.062940
v -0.248200 0.114153 -0.055179
v -0.220109 0.148030 -0.062940
v -0.220109 0.114153 -0.055179
v -0.248200 0.207171 0.304747
v -0.248200 0.169849 0.308762
v -0.220109 0.207171 0.304747
v -0.220109 0.169849 0.308762
v 0.248200 0.148030 -0.062940
v 0.248200 0.114153 -0.055179
v 0.220109 0.148030 -0.062940
v 0.220109 0.114153 -0.055179
v 0.248200 0.207171 0.304747
v 0.248200 0.169849 0.308762
v 0.220109 0.207171 0.304747
v 0.220109 0.169849 0.308762
v -0.216208 1.047690 -0.262414
v 0.215435 1.047690 -0.262414
v -0.216208 1.103083 -0.273587
v 0.215435 1.103083 -0.273587
v 0.152756 1.047690 -0.262414
v -0.152241 1.047690 -0.262414
v 0.000257 1.047690 -0.262414
v -0.152241 1.110992 -0.275182
v 0.152756 1.110992 -0.275182
v 0.000257 1.119437 -0.276886
v -0.216208 1.042154 -0.289861
v 0.215435 1.042154 -0.289861
v -0.216208 1.097546 -0.301034
v 0.215435 1.097546 -0.301034
v 0.152756 1.042154 -0.289861
v -0.152241 1.042154 -0.289861
v 0.000257 1.042154 -0.289861
v -0.152241 1.105455 -0.302630
v 0.152756 1.105455 -0.302630
v 0.000257 1.113900 -0.304333
v -0.216208 0.266979 0.325827
v -0.216208 0.231704 0.330626
v -0.216208 0.263304 0.298816
v -0.216208 0.228029 0.303614
v 0.213614 0.266979 0.325827
v 0.213614 0.231704 0.330626
v 0.213614 0.263304 0.298815
v 0.213614 0.228029 0.303614
v -0.216208 0.442670 0.298694
v -0.216208 0.395618 0.305475
v 0.216208 0.442670 0.298694
v 0.216208 0.395618 0.305475
v -0.216208 0.390685 0.284980
v -0.216208 0.442670 0.278198
v -0.164746 0.442670 0.299524
v 0.164745 0.442670 0.299524
v -0.001090 0.442670 0.300618
v 0.164745 0.405307 0.305475
v -0.164745 0.405307 0.305475
v -0.001090 0.395618 0.305475
v 0.216208 0.442670 0.278198
v 0.216208 0.390685 0.284980
v -0.164746 0.442670 0.279029
v 0.164745 0.442670 0.279029
v -0.001090 0.442670 0.280122
v 0.164745 0.400375 0.284980
v -0.164745 0.400375 0.284980
v -0.001090 0.390685 0.284980
v -0.001090 0.321316 -0.128135
v -0.164745 0.331005 -0.128135
v 0.164745 0.331005 -0.128135
v -0.001090 0.373472 -0.136735
v 0.164745 0.373472 -0.138671
v -0.164745 0.373472 -0.138671
v 0.216208 0.321316 -0.128135
v 0.216208 0.373472 -0.140142
v -0.001090 0.328023 -0.108150
v -0.164745 0.337712 -0.108150
v 0.164745 0.337712 -0.108150
v -0.001090 0.373472 -0.116750
v 0.164745 0.373472 -0.118686
v -0.164745 0.373472 -0.118686
v -0.216208 0.373472 -0.140142
v -0.216208 0.321316 -0.128135
v 0.216208 0.328023 -0.108150
v 0.216208 0.373472 -0.120157
v -0.216208 0.328023 -0.108150
v -0.216208 0.373472 -0.120157
v -0.247920 0.347444 -0.104397
v -0.247920 0.412640 0.275026
v -0.247920 0.393974 -0.113287
v -0.247920 0.463286 0.267329
v -0.247920 0.369511 0.024025
v -0.247920 0.408516 0.015539
v -0.247920 0.391075 0.149525
v -0.247920 0.441663 0.141434
v -0.220390 0.347444 -0.104397
v -0.220390 0.412640 0.275026
v -0.220390 0.393974 -0.113287
v -0.220390 0.463286 0.267329
v -0.220390 0.369511 0.024025
v -0.220390 0.408516 0.015539
v -0.220390 0.391075 0.149525
v -0.220390 0.441663 0.141434
v 0.247920 0.347444 -0.104397
v 0.247920 0.412640 0.275026
v 0.247920 0.393974 -0.113287
v 0.247920 0.463286 0.267329
v 0.247920 0.369511 0.024025
v 0.247920 0.408516 0.015539
v 0.247920 0.391075 0.149525
v 0.247920 0.441663 0.141434
v 0.220390 0.347444 -0.104397
v 0.220390 0.412640 0.275026
v 0.220390 0.393974 -0.113287
v 0.220390 0.463286 0.267329
v 0.220390 0.369511 0.024025
v 0.220390 0.408516 0.015539
v 0.220390 0.391075 0.149525
v 0.220390 0.441663 0.141434
v -0.250407 0.585346 -0.157938
v -0.216208 0.571044 -0.156000
v -0.216208 0.585346 -0.157938
v -0.250407 0.571044 -0.156000
v -0.264276 0.650698 0.324506
v -0.282223 0.648360 0.307247
v -0.276967 0.650013 0.319451
v -0.216208 0.648360 0.307247
v -0.234155 0.650698 0.324506
v -0.221464 0.650013 0.319451
v -0.264276 0.636396 0.326443
v -0.282223 0.634059 0.309185
v -0.276967 0.635712 0.321388
v -0.216208 0.634059 0.309185
v -0.234155 0.636396 0.326443
v -0.221464 0.635712 0.321388
v 0.250407 0.585346 -0.157938
v 0.216208 0.571044 -0.156000
v 0.216208 0.585346 -0.157938
v 0.250407 0.571044 -0.156000
v 0.264276 0.650698 0.324506
v 0.282223 0.648360 0.307247
v 0.276967 0.650013 0.319451
v 0.216208 0.648360 0.307247
v 0.234155 0.650698 0.324506
v 0.221464 0.650013 0.319451
v 0.264276 0.636396 0.326443
v 0.282223 0.634059 0.309185
v 0.276967 0.635712 0.321388
v 0.216208 0.634059 0.309185
v 0.234155 0.636396 0.326443
v 0.221464 0.635712 0.321388
v -0.216208 0.564819 -0.156511
v -0.216208 0.518901 -0.146316
v 0.214522 0.564819 -0.156510
v 0.214522 0.518901 -0.146316
v -0.216208 0.558750 -0.183845
v -0.216208 0.512832 -0.173650
v 0.214522 0.558750 -0.183845
v 0.214522 0.512832 -0.173650
v -0.166317 0.557947 -0.182328
v -0.166317 0.563571 -0.157244
v -0.129421 0.557947 -0.182328
v -0.129421 0.563571 -0.157244
v -0.166317 1.043505 -0.288503
v -0.166317 1.048158 -0.263574
v -0.129421 1.043505 -0.288503
v -0.129421 1.048158 -0.263574
v -0.092525 0.557947 -0.182328
v -0.092525 0.563571 -0.157244
v -0.055629 0.557947 -0.182328
v -0.055629 0.563571 -0.157244
v -0.092525 1.043505 -0.288503
v -0.092525 1.048158 -0.263574
v -0.055629 1.043505 -0.288503
v -0.055629 1.048158 -0.263574
v -0.018733 0.557947 -0.182328
v -0.018733 0.563571 -0.157244
v 0.018162 0.557947 -0.182328
v 0.018162 0.563571 -0.157244
v -0.018733 1.043505 -0.288503
v -0.018733 1.048158 -0.263574
v 0.018162 1.043505 -0.288503
v 0.018162 1.048158 -0.263574
v 0.055058 0.557947 -0.182328
v 0.055058 0.563571 -0.157244
v 0.091954 0.557947 -0.182328
v 0.091954 0.563571 -0.157244
v 0.055058 1.043505 -0.288503
v 0.055058 1.048158 -0.263574
v 0.091954 1.043505 -0.288503
v 0.091954 1.048158 -0.263574
v 0.128850 0.557947 -0.182328
v 0.128850 0.563571 -0.157244
v 0.165745 0.557947 -0.182328
v 0.165745 0.563571 -0.157244
v 0.128850 1.043505 -0.288503
v 0.128850 1.048158 -0.263574
v 0.165745 1.043505 -0.288503
v 0.165745 1.048158 -0.263574
v -0.206945 0.373101 -0.143693
v -0.206945 0.449325 0.322720
v -0.167496 0.373101 -0.143693
v -0.167496 0.449325 0.322720
v -0.167496 0.385043 -0.145447
v -0.206945 0.385043 -0.145447
v -0.206945 0.461267 0.320966
v -0.167496 0.461267 0.320966
v -0.206945 0.396152 0.079941
v -0.167496 0.396152 0.079941
v -0.167496 0.408094 0.078187
v -0.206945 0.408094 0.078187
v -0.167496 0.453747 0.274949
v -0.167496 0.389435 -0.118575
v -0.167496 0.441805 0.276703
v -0.167496 0.377492 -0.116821
v -0.206945 0.389435 -0.118575
v -0.206945 0.453747 0.274949
v -0.206945 0.441805 0.276703
v -0.206945 0.377492 -0.116821
v -0.155267 0.373101 -0.143693
v -0.155267 0.449325 0.322720
v -0.115818 0.373101 -0.143693
v -0.115818 0.449325 0.322720
v -0.115818 0.385043 -0.145447
v -0.155267 0.385043 -0.145447
v -0.155267 0.461267 0.320966
v -0.115818 0.461267 0.320966
v -0.155267 0.396152 0.079941
v -0.115818 0.396152 0.079941
v -0.115818 0.408094 0.078187
v -0.155267 0.408094 0.078187
v -0.115818 0.453747 0.274949
v -0.115818 0.389435 -0.118575
v -0.115818 0.441805 0.276703
v -0.115818 0.377492 -0.116821
v -0.155267 0.389435 -0.118575
v -0.155267 0.453747 0.274949
v -0.155267 0.441805 0.276703
v -0.155267 0.377492 -0.116821
v -0.103589 0.373101 -0.143693
v -0.103589 0.449325 0.322720
v -0.064140 0.373101 -0.143693
v -0.064140 0.449325 0.322720
v -0.064140 0.385043 -0.145447
v -0.103589 0.385043 -0.145447
v -0.103589 0.461267 0.320966
v -0.064140 0.461267 0.320966
v -0.103589 0.396152 0.079941
v -0.064140 0.396152 0.079941
v -0.064140 0.408094 0.078187
v -0.103589 0.408094 0.078187
v -0.064140 0.453747 0.274949
v -0.064140 0.389435 -0.118575
v -0.064140 0.441805 0.276703
v -0.064140 0.377492 -0.116821
v -0.103589 0.389435 -0.118575
v -0.103589 0.453747 0.274949
v -0.103589 0.441805 0.276703
v -0.103589 0.377492 -0.116821
v -0.051911 0.373101 -0.143693
v -0.051911 0.449325 0.322720
v -0.012462 0.373101 -0.143693
v -0.012462 0.449325 0.322720
v -0.012462 0.385043 -0.145447
v -0.051911 0.385043 -0.145447
v -0.051911 0.461267 0.320966
v -0.012462 0.461267 0.320966
v -0.051911 0.396152 0.079941
v -0.012462 0.396152 0.079941
v -0.012462 0.408094 0.078187
v -0.051911 0.408094 0.078187
v -0.012462 0.453747 0.274949
v -0.012462 0.389435 -0.118575
v -0.012462 0.441805 0.276703
v -0.012462 0.377492 -0.116821
v -0.051911 0.389435 -0.118575
v -0.051911 0.453747 0.274949
v -0.051911 0.441805 0.276703
v -0.051911 0.377492 -0.116821
v -0.000233 0.373101 -0.143693
v -0.000233 0.449325 0.322720
v 0.039216 0.373101 -0.143693
v 0.039216 0.449325 0.322720
v 0.039216 0.385043 -0.145447
v -0.000233 0.385043 -0.145447
v -0.000233 0.461267 0.320966
v 0.039216 0.461267 0.320966
v -0.000233 0.396152 0.079941
v 0.039216 0.396152 0.079941
v 0.039216 0.408094 0.078187
v -0.000233 0.408094 0.078187
v 0.039216 0.453747 0.274949
v 0.039216 0.389435 -0.118575
v 0.039216 0.441805 0.276703
v 0.039216 0.377492 -0.116821
v -0.000233 0.389435 -0.118575
v -0.000233 0.453747 0.274949
v -0.000233 0.441805 0.276703
v -0.000233 0.377492 -0.116821
v 0.051445 0.373101 -0.143693
v 0.051445 0.449325 0.322720
v 0.090894 0.373101 -0.143693
v 0.090894 0.449325 0.322720
v 0.090894 0.385043 -0.145447
v 0.051445 0.385043 -0.145447
v 0.051445 0.461267 0.320966
v 0.090894 0.461267 0.320966
v 0.051445 0.396152 0.079941
v 0.090894 0.396152 0.079941
v 0.090894 0.408094 0.078187
v 0.051445 0.408094 0.078187
v 0.090894 0.453747 0.274949
v 0.090894 0.389435 -0.118575
v 0.090894 0.441805 0.276703
v 0.090894 0.377492 -0.116821
v 0.051445 0.389435 -0.118575
v 0.051445 0.453747 0.274949
v 0.051445 0.441805 0.276703
v 0.051445 0.377492 -0.116821
v 0.103123 0.373101 -0.143693
v 0.103123 0.449325 0.322720
v 0.142572 0.373101 -0.143693
v 0.142572 0.449325 0.322720
v 0.142572 0.385043 -0.145447
v 0.103123 0.385043 -0.145447
v 0.103123 0.461267 0.320966
v 0.142572 0.461267 0.320966
v 0.103123 0.396152 0.079941
v 0.142572 0.396152 0.079941
v 0.142572 0.408094 0.078187
v 0.103123 0.408094 0.078187
v 0.142572 0.453747 0.274949
v 0.142572 0.389435 -0.118575
v 0.142572 0.441805 0.276703
v 0.142572 0.377492 -0.116821
v 0.103123 0.389435 -0.118575
v 0.103123 0.453747 0.274949
v 0.103123 0.441805 0.276703
v 0.103123 0.377492 -0.116821
v 0.154801 0.373101 -0.143693
v 0.154801 0.449325 0.322720
v 0.194250 0.373101 -0.143693
v 0.194250 0.449325 0.322720
v 0.194250 0.385043 -0.145447
v 0.154801 0.385043 -0.145447
v 0.154801 0.461267 0.320966
v 0.194250 0.461267 0.320966
v 0.154801 0.396152 0.079941
v 0.194250 0.396152 0.079941
v 0.194250 0.408094 0.078187
v 0.154801 0.408094 0.078187
v 0.194250 0.453747 0.274949
v 0.194250 0.389435 -0.118575
v 0.194250 0.441805 0.276703
v 0.194250 0.377492 -0.116821
v 0.154801 0.389435 -0.118575
v 0.154801 0.453747 0.274949
v 0.154801 0.441805 0.276703
v 0.154801 0.377492 -0.116821
vn -0.0000 0.9744 -0.2247
vn -1.0000 -0.0000 -0.0000
vn -0.0000 0.9948 -0.1014
vn -0.0000 0.9998 0.0177
vn -0.0000 0.9827 0.1854
vn -0.0000 -0.9645 0.2641
vn -0.0000 -0.9948 0.1014
vn -0.0000 -0.9998 -0.0177
vn -0.0000 -0.9827 -0.1854
vn -0.0000 -0.9647 -0.2634
vn 1.0000 -0.0000 -0.0000
vn -0.0000 0.7857 -0.6186
vn -0.0000 -0.2003 -0.9797
vn -0.0000 -0.9579 -0.2869
vn -0.0000 -0.0127 0.9999
vn -0.0000 0.8077 0.5896
vn -0.0000 -0.9237 0.3832
vn -0.0000 0.9790 0.2038
vn -0.0000 0.9754 -0.2203
vn -0.0000 0.2125 0.9772
vn -0.0000 -0.2126 -0.9771
vn -0.0000 0.1329 0.9911
vn -0.0000 -0.1388 -0.9903
vn -0.0000 -0.9885 0.1513
vn -0.0000 0.9873 -0.1588
vn -0.0000 0.1977 0.9803
vn -0.0000 -0.1977 -0.9803
vn -0.0000 -0.9803 0.1977
vn 0.0564 0.9787 -0.1974
vn -0.0564 0.9787 -0.1974
vn 0.1277 0.9722 -0.1961
vn -0.1251 0.9725 -0.1962
vn -0.0000 -0.9909 0.1348
vn -0.0000 0.9909 -0.1348
vn -0.0000 -0.1348 -0.9909
vn -0.0000 0.1348 0.9909
vn -0.0160 -0.1393 -0.9901
vn 0.0159 0.1573 0.9874
vn -0.0060 0.1027 0.9947
vn 0.0061 0.1027 0.9947
vn -0.0159 0.1573 0.9874
vn -0.0065 -0.1393 -0.9902
vn -0.0055 -0.0930 -0.9956
vn 0.0243 -0.1293 -0.9913
vn 0.0567 -0.9707 0.2336
vn -0.0000 1.0000 -0.0000
vn -0.0575 -0.9706 0.2336
vn 0.1801 -0.9564 0.2302
vn -0.1801 -0.9564 0.2302
vn -0.1757 -0.9333 0.3132
vn 0.1757 -0.9333 0.3132
vn -0.0560 -0.9466 0.3176
vn 0.0553 -0.9466 0.3177
vn 0.0422 -0.2241 -0.9736
vn -0.0096 -0.1627 -0.9866
vn -0.0113 -0.2408 -0.9705
vn -0.0274 0.2825 0.9589
vn 0.0110 0.1859 0.9825
vn -0.0109 0.1859 0.9825
vn 0.0274 0.2825 0.9589
vn -0.0277 -0.2407 -0.9702
vn -0.0000 -0.9856 0.1693
vn -0.0000 0.9937 -0.1122
vn -0.0000 0.9670 -0.2546
vn -0.0000 0.9856 -0.1693
vn -0.0000 -0.9909 0.1342
vn -0.0000 0.9909 -0.1342
vn 0.9197 0.0527 0.3890
vn -0.0000 0.1342 0.9909
vn -0.9197 0.0527 0.3890
vn 0.3730 0.1246 0.9194
vn -0.3730 0.1246 0.9195
vn -0.9977 -0.0091 -0.0670
vn 0.3730 0.1246 0.9195
vn 0.9977 -0.0091 -0.0670
vn -0.0000 0.2167 0.9762
vn -0.0000 -0.2167 -0.9762
vn -0.0000 0.9762 -0.2167
vn -0.0000 -0.9762 0.2167
vn -0.0000 0.2143 0.9768
vn -0.0000 -0.2136 -0.9769
vn -0.0000 0.9869 -0.1613
vn -0.0000 0.1453 0.9894
vn -0.0000 -0.1453 -0.9894
vn -0.0000 -0.9869 0.1613
vn -0.0000 0.9955 -0.0944
vn -0.0000 -0.9741 0.2260
vn -0.0000 -0.9955 0.0944
vn -0.0000 0.9741 -0.2260
vn -0.0243 -0.1293 -0.9913
vn 0.0268 0.1426 0.9894
vn 0.0065 0.1573 0.9875
vn -0.0066 0.1573 0.9875
vn -0.0268 0.1426 0.9894
vn 0.0054 -0.0930 -0.9956
vn 0.0066 -0.1393 -0.9902
vn 0.0160 -0.1393 -0.9901
vn -0.0560 -0.9465 0.3177
vn 0.0277 -0.2407 -0.9702
vn 0.0115 -0.2408 -0.9705
vn 0.0095 -0.1627 -0.9866
vn -0.0480 0.2551 0.9657
vn -0.0113 0.2826 0.9592
vn 0.0112 0.2826 0.9592
vn 0.0480 0.2551 0.9657
vn -0.0422 -0.2241 -0.9736
vn -0.0000 -0.9910 0.1342
vn -0.0000 0.9910 -0.1342
vt 0.573780 0.926674
vt 0.574310 0.928659
vt 0.574310 0.926674
vt 0.573780 0.927548
vt 0.573780 0.927362
vt 0.573780 0.925154
vt 0.573780 0.925832
vt 0.574310 0.925832
vt 0.573780 0.925999
vt 0.574310 0.925999
vt 0.574310 0.926588
vt 0.573780 0.924279
vt 0.574310 0.924279
vt 0.573780 0.923437
vt 0.573780 0.923605
vt 0.574310 0.923437
vt 0.574310 0.925154
vt 0.574310 0.923605
vt 0.574310 0.927548
vt 0.574310 0.928029
vt 0.574310 0.928549
vt 0.573780 0.929276
vt 0.574310 0.929276
vt 0.574310 0.927362
vt 0.573780 0.926588
vt 0.574310 0.927658
vt 0.573780 0.928549
vt 0.573780 0.927658
vt 0.573780 0.927001
vt 0.573780 0.928029
vt 0.573780 0.928659
vt 0.574310 0.927001
vt 0.579826 0.926674
vt 0.580356 0.928659
vt 0.580356 0.926674
vt 0.580356 0.927548
vt 0.580356 0.927362
vt 0.580356 0.929276
vt 0.580356 0.925832
vt 0.580356 0.925999
vt 0.579826 0.925832
vt 0.579826 0.927548
vt 0.579826 0.925999
vt 0.579826 0.924279
vt 0.580356 0.926588
vt 0.579826 0.926588
vt 0.580356 0.923437
vt 0.580356 0.924279
vt 0.579826 0.923437
vt 0.580356 0.923605
vt 0.579826 0.925154
vt 0.580356 0.925154
vt 0.579826 0.927362
vt 0.579826 0.923605
vt 0.579826 0.928659
vt 0.579826 0.928029
vt 0.579826 0.928549
vt 0.579826 0.929276
vt 0.580356 0.928549
vt 0.579826 0.927658
vt 0.580356 0.927658
vt 0.580356 0.927001
vt 0.580356 0.928029
vt 0.579826 0.927001
vt 0.573813 0.985634
vt 0.574277 0.985194
vt 0.573813 0.985194
vt 0.574277 0.925763
vt 0.573813 0.925763
vt 0.573813 0.925974
vt 0.574277 0.925974
vt 0.574277 0.985634
vt 0.589904 0.952828
vt 0.590368 0.953268
vt 0.590368 0.952828
vt 0.590368 0.893397
vt 0.589904 0.953268
vt 0.589904 0.893397
vt 0.590368 0.893607
vt 0.589904 0.893607
vt 0.574277 0.928314
vt 0.573813 0.958435
vt 0.573813 0.928314
vt 0.573813 0.927823
vt 0.574277 0.958212
vt 0.574277 0.927823
vt 0.574277 0.958435
vt 0.573813 0.958212
vt 0.580323 0.928314
vt 0.579860 0.958435
vt 0.579860 0.928314
vt 0.579860 0.958212
vt 0.580323 0.927823
vt 0.579860 0.927823
vt 0.580323 0.958212
vt 0.583909 0.897477
vt 0.584271 0.900561
vt 0.583909 0.900561
vt 0.583909 0.899353
vt 0.584271 0.902628
vt 0.584271 0.899353
vt 0.584271 0.897477
vt 0.583909 0.902628
vt 0.580273 0.929843
vt 0.579910 0.932928
vt 0.579910 0.929843
vt 0.579910 0.934994
vt 0.580273 0.931719
vt 0.579910 0.931719
vt 0.580273 0.934994
vt 0.575103 0.981544
vt 0.574277 0.984611
vt 0.574277 0.981544
vt 0.579040 0.985049
vt 0.577071 0.981544
vt 0.579040 0.981544
vt 0.575103 0.985049
vt 0.579850 0.984611
vt 0.574277 0.984305
vt 0.575103 0.981237
vt 0.574277 0.981237
vt 0.577071 0.981237
vt 0.579040 0.984743
vt 0.579040 0.981237
vt 0.575103 0.984743
vt 0.577071 0.985210
vt 0.579850 0.984305
vt 0.579850 0.981237
vt 0.577071 0.985517
vt 0.579850 0.981544
vt 0.574277 0.936150
vt 0.579826 0.936353
vt 0.574277 0.936353
vt 0.574277 0.938307
vt 0.579826 0.938103
vt 0.574277 0.938103
vt 0.579826 0.936150
vt 0.579826 0.938307
vt 0.579860 0.948037
vt 0.579195 0.945694
vt 0.579195 0.948037
vt 0.579195 0.945967
vt 0.577054 0.948037
vt 0.577054 0.945431
vt 0.574941 0.945967
vt 0.574277 0.948037
vt 0.574941 0.948037
vt 0.574941 0.945694
vt 0.577054 0.945158
vt 0.574277 0.945158
vt 0.574277 0.945431
vt 0.579860 0.945431
vt 0.579195 0.941853
vt 0.579860 0.941687
vt 0.579195 0.942224
vt 0.579860 0.944205
vt 0.579195 0.944205
vt 0.577054 0.944205
vt 0.574941 0.944205
vt 0.574277 0.941687
vt 0.574941 0.941853
vt 0.574941 0.942224
vt 0.577054 0.941687
vt 0.574277 0.944205
vt 0.574277 0.941316
vt 0.577054 0.941316
vt 0.573867 0.946374
vt 0.573867 0.947981
vt 0.573867 0.945179
vt 0.573867 0.942763
vt 0.573867 0.946145
vt 0.573867 0.945340
vt 0.573867 0.943985
vt 0.574223 0.947981
vt 0.574223 0.946374
vt 0.574223 0.945179
vt 0.574223 0.942763
vt 0.574223 0.946145
vt 0.574223 0.943985
vt 0.574223 0.945340
vt 0.574223 0.949179
vt 0.580269 0.947981
vt 0.580269 0.946374
vt 0.580269 0.945179
vt 0.580269 0.942763
vt 0.580269 0.946145
vt 0.580269 0.943985
vt 0.579914 0.946374
vt 0.579914 0.947981
vt 0.579914 0.945179
vt 0.579914 0.942763
vt 0.579914 0.946145
vt 0.579914 0.945340
vt 0.579914 0.943985
vt 0.580269 0.945340
vt 0.580269 0.949179
vt 0.573656 0.958766
vt 0.573492 0.958728
vt 0.573425 0.958636
vt 0.573425 0.959428
vt 0.573656 0.959558
vt 0.574277 0.959428
vt 0.574209 0.958728
vt 0.574209 0.959520
vt 0.574045 0.959558
vt 0.573492 0.959520
vt 0.574277 0.958636
vt 0.574277 0.955938
vt 0.573835 0.955146
vt 0.573835 0.955938
vt 0.590555 0.906149
vt 0.590323 0.906968
vt 0.589703 0.906149
vt 0.590323 0.911974
vt 0.590487 0.911734
vt 0.590555 0.911156
vt 0.589703 0.911156
vt 0.589771 0.906728
vt 0.589771 0.911734
vt 0.589934 0.911974
vt 0.590487 0.906728
vt 0.589703 0.889098
vt 0.589934 0.906968
vt 0.590144 0.884092
vt 0.590144 0.889098
vt 0.574277 0.952258
vt 0.579838 0.954801
vt 0.574277 0.954801
vt 0.579838 0.954465
vt 0.574277 0.951922
vt 0.574277 0.954465
vt 0.579838 0.952258
vt 0.579838 0.951922
vt 0.591022 0.910089
vt 0.590546 0.936926
vt 0.590546 0.910089
vt 0.590546 0.909778
vt 0.591022 0.936669
vt 0.591022 0.909778
vt 0.591022 0.936926
vt 0.590546 0.936669
vt 0.576350 0.954732
vt 0.575874 0.981569
vt 0.575874 0.954732
vt 0.575874 0.954421
vt 0.576350 0.981312
vt 0.576350 0.954421
vt 0.576350 0.981569
vt 0.575874 0.981312
vt 0.592928 0.910089
vt 0.592451 0.936926
vt 0.592451 0.910089
vt 0.592451 0.909778
vt 0.592928 0.936669
vt 0.592928 0.909778
vt 0.592928 0.936926
vt 0.592451 0.936669
vt 0.593880 0.910089
vt 0.593404 0.936926
vt 0.593404 0.910089
vt 0.593404 0.909778
vt 0.593880 0.936669
vt 0.593880 0.909778
vt 0.593880 0.936926
vt 0.593404 0.936669
vt 0.579208 0.954732
vt 0.578732 0.981569
vt 0.578732 0.954732
vt 0.578732 0.954421
vt 0.579208 0.981312
vt 0.579208 0.954421
vt 0.579208 0.981569
vt 0.578732 0.981312
vt 0.604084 0.865891
vt 0.604084 0.862571
vt 0.604084 0.860640
vt 0.603349 0.896100
vt 0.604084 0.899407
vt 0.604084 0.896100
vt 0.604084 0.894156
vt 0.603349 0.899407
vt 0.603349 0.894156
vt 0.603349 0.860640
vt 0.603349 0.862571
vt 0.603349 0.876027
vt 0.603349 0.867822
vt 0.604084 0.890849
vt 0.603349 0.865891
vt 0.603349 0.890849
vt 0.604084 0.876027
vt 0.604084 0.867822
vt 0.603349 0.870776
vt 0.605046 0.865891
vt 0.605046 0.862571
vt 0.605046 0.860640
vt 0.604312 0.896100
vt 0.605046 0.899407
vt 0.605046 0.896100
vt 0.605046 0.894156
vt 0.604312 0.899407
vt 0.604312 0.894156
vt 0.604312 0.860640
vt 0.604312 0.862571
vt 0.604312 0.876027
vt 0.604312 0.867822
vt 0.605046 0.890849
vt 0.604312 0.865891
vt 0.604312 0.890849
vt 0.605046 0.876027
vt 0.605046 0.867822
vt 0.604312 0.870776
vt 0.606009 0.865891
vt 0.606009 0.862571
vt 0.606009 0.860640
vt 0.605274 0.896100
vt 0.606009 0.899407
vt 0.606009 0.896100
vt 0.606009 0.894156
vt 0.605274 0.899407
vt 0.605274 0.894156
vt 0.605274 0.860640
vt 0.605274 0.862571
vt 0.605274 0.876027
vt 0.605274 0.867822
vt 0.606009 0.890849
vt 0.605274 0.865891
vt 0.605274 0.890849
vt 0.606009 0.876027
vt 0.606009 0.867822
vt 0.606009 0.870776
vt 0.605274 0.870776
vt 0.606971 0.865891
vt 0.606971 0.862571
vt 0.606971 0.860640
vt 0.606236 0.896100
vt 0.606971 0.899407
vt 0.606971 0.896100
vt 0.606971 0.894156
vt 0.606236 0.899407
vt 0.606236 0.894156
vt 0.606236 0.860640
vt 0.606236 0.862571
vt 0.606236 0.876027
vt 0.606236 0.867822
vt 0.606971 0.890849
vt 0.606236 0.865891
vt 0.606236 0.890849
vt 0.606971 0.876027
vt 0.606971 0.867822
vt 0.606236 0.870776
vt 0.606971 0.870776
vt 0.607933 0.865891
vt 0.607933 0.862571
vt 0.607933 0.860640
vt 0.607199 0.896100
vt 0.607933 0.899407
vt 0.607933 0.896100
vt 0.607933 0.894156
vt 0.607199 0.899407
vt 0.607199 0.894156
vt 0.607199 0.860640
vt 0.607199 0.862571
vt 0.607199 0.876027
vt 0.607199 0.867822
vt 0.607933 0.890849
vt 0.607199 0.865891
vt 0.607199 0.890849
vt 0.607933 0.876027
vt 0.607933 0.867822
vt 0.607933 0.870776
vt 0.607199 0.870776
vt 0.608896 0.865891
vt 0.608896 0.862571
vt 0.608896 0.860640
vt 0.608161 0.896100
vt 0.608896 0.899407
vt 0.608896 0.896100
vt 0.608896 0.894156
vt 0.608161 0.899407
vt 0.608161 0.894156
vt 0.608161 0.860640
vt 0.608161 0.862571
vt 0.608161 0.876027
vt 0.608161 0.867822
vt 0.608896 0.890849
vt 0.608161 0.865891
vt 0.608161 0.890849
vt 0.608896 0.876027
vt 0.608896 0.867822
vt 0.608896 0.870776
vt 0.608161 0.870776
vt 0.609858 0.865891
vt 0.609858 0.862571
vt 0.609858 0.860640
vt 0.609123 0.896100
vt 0.609858 0.899407
vt 0.609858 0.896100
vt 0.609858 0.894156
vt 0.609123 0.899407
vt 0.609123 0.894156
vt 0.609123 0.860640
vt 0.609123 0.862571
vt 0.609123 0.876027
vt 0.609123 0.867822
vt 0.609858 0.890849
vt 0.609123 0.865891
vt 0.609123 0.890849
vt 0.609858 0.876027
vt 0.609858 0.867822
vt 0.609123 0.870776
vt 0.610820 0.865891
vt 0.610820 0.862571
vt 0.610820 0.860640
vt 0.610086 0.896100
vt 0.610820 0.899407
vt 0.610820 0.896100
vt 0.610820 0.894156
vt 0.610086 0.899407
vt 0.610086 0.894156
vt 0.610086 0.860640
vt 0.610086 0.862571
vt 0.610086 0.876027
vt 0.610086 0.867822
vt 0.610820 0.890849
vt 0.610086 0.865891
vt 0.610086 0.890849
vt 0.610820 0.876027
vt 0.610820 0.867822
vt 0.610086 0.870776
vt 0.580323 0.958435
vt 0.580273 0.932928
vt 0.579860 0.945158
vt 0.579860 0.941316
vt 0.573867 0.949179
vt 0.579914 0.949179
vt 0.574277 0.955146
vt 0.574045 0.958766
vt 0.589703 0.884092
vt 0.604084 0.870776
vt 0.605046 0.870776
vt 0.609858 0.870776
vt 0.610820 0.870776
s 0
usemtl Texture_Map
f 1/1/1 26/2/1 6/3/1
f 2/4/2 32/5/2 10/6/2
f 6/3/3 3/7/3 1/1/3
f 8/8/4 4/9/4 3/7/4
f 7/10/5 2/4/5 4/9/5
f 25/11/6 9/12/6 14/13/6
f 11/14/7 14/13/7 9/12/7
f 12/15/8 16/16/8 11/14/8
f 12/15/9 13/17/9 15/18/9
f 32/5/10 13/17/10 10/6/10
f 7/10/11 13/17/11 5/19/11
f 8/8/11 15/18/11 7/10/11
f 6/3/11 25/11/11 14/13/11
f 22/20/11 25/11/11 26/2/11
f 14/13/11 8/8/11 6/3/11
f 18/21/12 29/22/12 30/23/12
f 31/24/11 5/19/11 13/17/11
f 3/7/2 9/12/2 1/1/2
f 10/6/2 4/9/2 2/4/2
f 12/15/2 3/7/2 4/9/2
f 28/25/2 1/1/2 9/12/2
f 20/26/13 17/27/13 18/21/13
f 31/24/11 18/21/11 30/23/11
f 19/28/14 31/24/14 32/5/14
f 17/27/2 32/5/2 29/22/2
f 23/29/15 22/20/15 21/30/15
f 21/30/16 26/2/16 27/31/16
f 28/25/2 21/30/2 27/31/2
f 24/32/17 28/25/17 25/11/17
f 5/19/18 29/22/18 2/4/18
f 38/33/1 59/34/1 33/35/1
f 34/36/11 64/37/11 61/38/11
f 35/39/3 38/33/3 33/35/3
f 36/40/4 40/41/4 35/39/4
f 36/40/5 37/42/5 39/43/5
f 46/44/6 60/45/6 57/46/6
f 46/44/7 43/47/7 41/48/7
f 48/49/8 44/50/8 43/47/8
f 44/50/9 45/51/9 42/52/9
f 42/52/10 63/53/10 64/37/10
f 39/43/2 45/51/2 47/54/2
f 40/41/2 47/54/2 48/49/2
f 38/33/2 57/46/2 58/55/2
f 57/46/2 54/56/2 58/55/2
f 40/41/2 46/44/2 38/33/2
f 61/38/12 50/57/12 62/58/12
f 37/42/2 63/53/2 45/51/2
f 35/39/11 41/48/11 43/47/11
f 36/40/11 42/52/11 34/36/11
f 35/39/11 44/50/11 36/40/11
f 33/35/11 60/45/11 41/48/11
f 49/59/13 52/60/13 50/57/13
f 63/53/2 50/57/2 52/60/2
f 63/53/14 51/61/14 64/37/14
f 64/37/11 49/59/11 61/38/11
f 54/56/15 55/62/15 53/63/15
f 58/55/16 53/63/16 59/34/16
f 60/45/11 53/63/11 55/62/11
f 60/45/17 56/64/17 57/46/17
f 34/36/18 62/58/18 37/42/18
f 70/65/19 71/66/19 69/67/19
f 68/68/20 70/65/20 66/69/20
f 65/70/21 71/66/21 67/71/21
f 67/71/11 72/72/11 68/68/11
f 65/70/2 70/65/2 69/67/2
f 79/73/19 78/74/19 77/75/19
f 74/76/20 80/77/20 76/78/20
f 79/73/21 73/79/21 75/80/21
f 80/77/2 75/80/2 76/78/2
f 73/79/11 78/74/11 74/76/11
f 84/81/22 86/82/22 82/83/22
f 81/84/23 87/85/23 83/86/23
f 84/81/11 87/85/11 88/87/11
f 82/83/2 85/88/2 81/84/2
f 90/89/22 96/90/22 92/91/22
f 95/92/23 89/93/23 91/94/23
f 92/91/2 95/92/2 91/94/2
f 93/95/11 90/89/11 89/93/11
f 98/96/24 104/97/24 102/98/24
f 97/99/25 103/100/25 99/101/25
f 100/102/11 103/100/11 104/97/11
f 98/96/2 101/103/2 97/99/2
f 106/104/24 112/105/24 108/106/24
f 111/107/25 105/108/25 107/109/25
f 108/106/2 111/107/2 107/109/2
f 109/110/11 106/104/11 105/108/11
f 118/111/26 115/112/26 113/113/26
f 121/114/26 119/115/26 117/116/26
f 119/115/26 120/117/26 118/111/26
f 117/116/26 116/118/26 121/114/26
f 125/119/27 128/120/27 123/121/27
f 129/122/27 131/123/27 127/124/27
f 129/122/27 130/125/27 132/126/27
f 127/124/27 126/127/27 124/128/27
f 119/115/28 127/124/28 117/116/28
f 121/114/29 132/126/29 122/129/29
f 118/111/28 129/122/28 119/115/28
f 122/129/30 130/125/30 120/117/30
f 117/116/28 124/128/28 114/130/28
f 116/118/31 131/123/31 121/114/31
f 113/113/28 128/120/28 118/111/28
f 115/112/32 130/125/32 125/119/32
f 136/131/33 138/132/33 134/133/33
f 133/134/34 139/135/34 135/136/34
f 135/136/35 140/137/35 136/131/35
f 134/133/36 137/138/36 133/134/36
f 153/139/37 158/140/37 156/141/37
f 150/142/38 143/139/38 148/141/38
f 150/142/39 149/143/39 152/144/39
f 149/143/40 151/145/40 152/144/40
f 141/146/41 151/145/41 147/147/41
f 158/140/42 157/143/42 156/141/42
f 159/148/43 157/143/43 160/149/43
f 146/146/44 159/148/44 145/150/44
f 152/144/45 158/140/45 150/142/45
f 155/147/46 141/146/46 147/147/46
f 159/148/47 152/144/47 151/145/47
f 142/151/48 159/148/48 151/145/48
f 157/143/46 147/147/46 149/143/46
f 148/141/46 157/143/46 149/143/46
f 143/139/46 156/141/46 148/141/46
f 158/140/49 144/152/49 150/142/49
f 163/153/50 177/154/50 171/155/50
f 178/156/46 165/157/46 173/157/46
f 173/157/46 164/158/46 172/158/46
f 164/158/46 174/159/46 172/158/46
f 179/160/51 162/161/51 170/162/51
f 162/161/52 169/163/52 170/162/52
f 166/159/46 180/164/46 174/159/46
f 169/163/53 163/153/53 171/155/53
f 175/164/54 162/161/54 176/165/54
f 162/161/55 164/158/55 161/166/55
f 163/153/56 164/158/56 165/157/56
f 180/164/57 170/162/57 174/159/57
f 172/158/58 170/162/58 169/163/58
f 171/155/59 172/158/59 169/163/59
f 171/155/60 178/156/60 173/157/60
f 168/156/61 163/153/61 165/157/61
f 182/167/2 188/168/2 187/169/2
f 181/170/2 186/171/2 183/172/2
f 187/169/2 186/171/2 185/173/2
f 196/174/11 190/175/11 195/176/11
f 189/177/11 194/178/11 193/179/11
f 194/178/11 195/176/11 193/179/11
f 187/169/62 190/175/62 182/167/62
f 186/171/63 191/180/63 183/172/63
f 181/170/62 193/179/62 185/173/62
f 188/168/64 194/178/64 186/171/64
f 185/173/62 195/176/62 187/169/62
f 188/168/65 192/181/65 196/174/65
f 204/182/11 198/183/11 203/184/11
f 197/185/11 202/186/11 201/187/11
f 202/186/11 203/184/11 201/187/11
f 206/188/2 212/189/2 211/190/2
f 205/191/2 210/192/2 207/193/2
f 211/190/2 210/192/2 209/194/2
f 198/183/62 211/190/62 203/184/62
f 199/195/63 210/192/63 202/186/63
f 209/194/62 197/185/62 201/187/62
f 202/186/64 212/189/64 204/182/64
f 211/190/62 201/187/62 203/184/62
f 212/189/65 200/196/65 204/182/65
f 223/197/66 225/198/66 224/199/66
f 218/200/67 217/201/67 220/202/67
f 228/203/68 220/202/68 222/204/68
f 223/197/69 221/205/69 217/201/69
f 218/200/70 225/198/70 219/206/70
f 226/207/11 215/208/11 220/202/11
f 221/205/71 228/203/71 222/204/71
f 225/198/72 217/201/72 219/206/72
f 216/209/73 218/200/73 213/210/73
f 240/211/66 239/212/66 242/213/66
f 233/214/67 235/215/67 234/216/67
f 236/217/70 244/218/70 238/219/70
f 237/220/69 239/212/69 233/214/69
f 234/216/68 241/221/68 240/211/68
f 231/222/2 242/213/2 236/217/2
f 237/220/72 244/218/72 243/223/72
f 233/214/74 241/221/74 235/215/74
f 234/216/75 232/224/75 229/225/75
f 246/226/76 247/227/76 245/228/76
f 251/229/77 250/230/77 249/231/77
f 247/227/78 249/231/78 245/228/78
f 248/232/79 250/230/79 252/233/79
f 256/234/80 258/235/80 254/236/80
f 253/237/81 259/238/81 255/239/81
f 255/239/11 260/240/11 256/234/11
f 253/237/2 258/235/2 257/241/2
f 264/242/80 266/243/80 262/244/80
f 261/245/81 267/246/81 263/247/81
f 263/247/11 268/248/11 264/242/11
f 261/245/2 266/243/2 265/249/2
f 272/250/80 274/251/80 270/252/80
f 269/253/81 275/254/81 271/255/81
f 271/255/11 276/256/11 272/250/11
f 269/253/2 274/251/2 273/257/2
f 280/258/80 282/259/80 278/260/80
f 277/261/81 283/262/81 279/263/81
f 279/263/11 284/264/11 280/258/11
f 277/261/2 282/259/2 281/265/2
f 288/266/80 290/267/80 286/268/80
f 285/269/81 291/270/81 287/271/81
f 287/271/11 292/272/11 288/266/11
f 285/269/2 290/267/2 289/273/2
f 297/274/11 308/275/11 295/276/11
f 310/277/82 300/278/82 305/279/82
f 296/280/83 299/281/83 294/282/83
f 293/283/84 297/274/84 295/276/84
f 312/284/2 304/285/2 309/286/2
f 305/279/11 296/280/11 307/287/11
f 312/284/2 298/288/2 293/283/2
f 312/284/85 295/276/85 308/275/85
f 311/289/85 296/280/85 294/282/85
f 294/282/2 310/277/2 311/289/2
f 303/290/86 309/286/86 304/285/86
f 303/290/11 308/275/11 306/291/11
f 301/292/87 307/287/87 311/289/87
f 304/285/2 311/289/2 310/277/2
f 297/274/82 309/286/82 306/291/82
f 308/275/88 301/292/88 312/284/88
f 307/287/11 303/290/11 305/279/11
f 305/279/89 304/285/89 310/277/89
f 317/293/11 328/294/11 315/295/11
f 330/296/82 320/297/82 325/298/82
f 316/299/83 319/300/83 314/301/83
f 313/302/84 317/293/84 315/295/84
f 332/303/2 324/304/2 329/305/2
f 325/298/11 316/299/11 327/306/11
f 332/303/2 318/307/2 313/302/2
f 313/302/85 328/294/85 332/303/85
f 331/308/85 316/299/85 314/301/85
f 314/301/2 330/296/2 331/308/2
f 323/309/86 329/305/86 324/304/86
f 323/309/11 328/294/11 326/310/11
f 321/311/87 327/306/87 331/308/87
f 324/304/2 331/308/2 330/296/2
f 318/307/82 326/310/82 317/293/82
f 328/294/88 321/311/88 332/303/88
f 327/306/11 323/309/11 325/298/11
f 325/298/89 324/304/89 330/296/89
f 337/312/11 348/313/11 335/314/11
f 350/315/82 340/316/82 345/317/82
f 336/318/83 339/319/83 334/320/83
f 333/321/84 337/312/84 335/314/84
f 352/322/2 344/323/2 349/324/2
f 345/317/11 336/318/11 347/325/11
f 352/322/2 338/326/2 333/321/2
f 352/322/85 335/314/85 348/313/85
f 351/327/85 336/318/85 334/320/85
f 334/320/2 350/315/2 351/327/2
f 343/328/86 349/324/86 344/323/86
f 343/328/11 348/313/11 346/329/11
f 342/330/87 351/327/87 341/331/87
f 344/323/2 351/327/2 350/315/2
f 337/312/82 349/324/82 346/329/82
f 348/313/88 341/331/88 352/322/88
f 347/325/11 343/328/11 345/317/11
f 350/315/89 343/328/89 344/323/89
f 357/332/11 368/333/11 355/334/11
f 370/335/82 360/336/82 365/337/82
f 356/338/83 359/339/83 354/340/83
f 353/341/84 357/332/84 355/334/84
f 372/342/2 364/343/2 369/344/2
f 365/337/11 356/338/11 367/345/11
f 372/342/2 358/346/2 353/341/2
f 353/341/85 368/333/85 372/342/85
f 371/347/85 356/338/85 354/340/85
f 354/340/2 370/335/2 371/347/2
f 363/348/86 369/344/86 364/343/86
f 363/348/11 368/333/11 366/349/11
f 361/350/87 367/345/87 371/347/87
f 364/343/2 371/347/2 370/335/2
f 358/346/82 366/349/82 357/332/82
f 372/342/88 362/351/88 361/350/88
f 367/345/11 363/348/11 365/337/11
f 365/337/89 364/343/89 370/335/89
f 377/352/11 388/353/11 375/354/11
f 390/355/82 380/356/82 385/357/82
f 376/358/83 379/359/83 374/360/83
f 373/361/84 377/352/84 375/354/84
f 392/362/2 384/363/2 389/364/2
f 385/357/11 376/358/11 387/365/11
f 392/362/2 378/366/2 373/361/2
f 373/361/85 388/353/85 392/362/85
f 391/367/85 376/358/85 374/360/85
f 374/360/2 390/355/2 391/367/2
f 383/368/86 389/364/86 384/363/86
f 383/368/11 388/353/11 386/369/11
f 382/370/87 391/367/87 381/371/87
f 384/363/2 391/367/2 390/355/2
f 378/366/82 386/369/82 377/352/82
f 388/353/88 381/371/88 392/362/88
f 387/365/11 383/368/11 385/357/11
f 385/357/89 384/363/89 390/355/89
f 397/372/11 408/373/11 395/374/11
f 410/375/82 400/376/82 405/377/82
f 396/378/83 399/379/83 394/380/83
f 393/381/84 397/372/84 395/374/84
f 412/382/2 404/383/2 409/384/2
f 405/377/11 396/378/11 407/385/11
f 412/382/2 398/386/2 393/381/2
f 412/382/85 395/374/85 408/373/85
f 411/387/85 396/378/85 394/380/85
f 394/380/2 410/375/2 411/387/2
f 403/388/86 409/384/86 404/383/86
f 403/388/11 408/373/11 406/389/11
f 402/390/87 411/387/87 401/391/87
f 404/383/2 411/387/2 410/375/2
f 397/372/82 409/384/82 406/389/82
f 408/373/88 401/391/88 412/382/88
f 407/385/11 403/388/11 405/377/11
f 410/375/89 403/388/89 404/383/89
f 417/392/11 428/393/11 415/394/11
f 430/395/82 420/396/82 425/397/82
f 416/398/83 419/399/83 414/400/83
f 413/401/84 417/392/84 415/394/84
f 432/402/2 424/403/2 429/404/2
f 425/397/11 416/398/11 427/405/11
f 432/402/2 418/406/2 413/401/2
f 413/401/85 428/393/85 432/402/85
f 431/407/85 416/398/85 414/400/85
f 414/400/2 430/395/2 431/407/2
f 423/408/86 429/404/86 424/403/86
f 423/408/11 428/393/11 426/409/11
f 421/410/87 427/405/87 431/407/87
f 424/403/2 431/407/2 430/395/2
f 418/406/82 426/409/82 417/392/82
f 428/393/88 421/410/88 432/402/88
f 427/405/11 423/408/11 425/397/11
f 425/397/89 424/403/89 430/395/89
f 437/411/11 448/412/11 435/413/11
f 450/414/82 440/415/82 445/416/82
f 436/417/83 439/418/83 434/419/83
f 433/420/84 437/411/84 435/413/84
f 452/421/2 444/422/2 449/423/2
f 445/416/11 436/417/11 447/424/11
f 452/421/2 438/425/2 433/420/2
f 452/421/85 435/413/85 448/412/85
f 451/426/85 436/417/85 434/419/85
f 434/419/2 450/414/2 451/426/2
f 443/427/86 449/423/86 444/422/86
f 443/427/11 448/412/11 446/428/11
f 441/429/87 447/424/87 451/426/87
f 444/422/2 451/426/2 450/414/2
f 437/411/82 449/423/82 446/428/82
f 448/412/88 441/429/88 452/421/88
f 447/424/11 443/427/11 445/416/11
f 445/416/89 444/422/89 450/414/89
f 1/1/1 27/31/1 26/2/1
f 2/4/2 29/22/2 32/5/2
f 6/3/3 8/8/3 3/7/3
f 8/8/4 7/10/4 4/9/4
f 7/10/5 5/19/5 2/4/5
f 25/11/6 28/25/6 9/12/6
f 11/14/7 16/16/7 14/13/7
f 12/15/8 15/18/8 16/16/8
f 12/15/9 10/6/9 13/17/9
f 32/5/10 31/24/10 13/17/10
f 7/10/11 15/18/11 13/17/11
f 8/8/11 16/16/11 15/18/11
f 6/3/11 26/2/11 25/11/11
f 22/20/11 24/32/11 25/11/11
f 14/13/11 16/16/11 8/8/11
f 18/21/12 17/27/12 29/22/12
f 31/24/11 30/23/11 5/19/11
f 3/7/2 11/14/2 9/12/2
f 10/6/2 12/15/2 4/9/2
f 12/15/2 11/14/2 3/7/2
f 28/25/2 27/31/2 1/1/2
f 20/26/13 19/28/13 17/27/13
f 31/24/11 20/26/11 18/21/11
f 19/28/14 20/26/14 31/24/14
f 17/27/2 19/28/2 32/5/2
f 23/29/15 24/32/15 22/20/15
f 21/30/16 22/20/16 26/2/16
f 28/25/2 23/29/2 21/30/2
f 24/32/17 23/29/17 28/25/17
f 5/19/18 30/23/18 29/22/18
f 38/33/1 58/55/1 59/34/1
f 34/36/11 42/52/11 64/37/11
f 35/39/3 40/41/3 38/33/3
f 36/40/4 39/43/4 40/41/4
f 36/40/5 34/36/5 37/42/5
f 46/44/6 41/48/6 60/45/6
f 46/44/7 48/49/7 43/47/7
f 48/49/8 47/54/8 44/50/8
f 44/50/9 47/54/9 45/51/9
f 42/52/10 45/51/10 63/53/10
f 39/43/2 37/42/2 45/51/2
f 40/41/2 39/43/2 47/54/2
f 38/33/2 46/44/2 57/46/2
f 57/46/2 56/64/2 54/56/2
f 40/41/2 48/49/2 46/44/2
f 61/38/12 49/59/12 50/57/12
f 37/42/2 62/58/2 63/53/2
f 35/39/11 33/35/11 41/48/11
f 36/40/11 44/50/11 42/52/11
f 35/39/11 43/47/11 44/50/11
f 33/35/11 59/34/11 60/45/11
f 49/59/13 51/61/13 52/60/13
f 63/53/2 62/58/2 50/57/2
f 63/53/14 52/60/14 51/61/14
f 64/37/11 51/61/11 49/59/11
f 54/56/15 56/64/15 55/62/15
f 58/55/16 54/56/16 53/63/16
f 60/45/11 59/34/11 53/63/11
f 60/45/17 55/62/17 56/64/17
f 34/36/18 61/38/18 62/58/18
f 70/65/19 72/72/19 71/66/19
f 68/68/20 72/72/20 70/65/20
f 65/70/21 69/67/21 71/66/21
f 67/71/11 71/66/11 72/72/11
f 65/70/2 66/69/2 70/65/2
f 79/73/19 80/77/19 78/74/19
f 74/76/20 78/74/20 80/77/20
f 79/73/21 77/75/21 73/79/21
f 80/77/2 79/73/2 75/80/2
f 73/79/11 77/75/11 78/74/11
f 84/81/22 88/87/22 86/82/22
f 81/84/23 85/88/23 87/85/23
f 84/81/11 83/86/11 87/85/11
f 82/83/2 86/82/2 85/88/2
f 90/89/22 94/430/22 96/90/22
f 95/92/23 93/95/23 89/93/23
f 92/91/2 96/90/2 95/92/2
f 93/95/11 94/430/11 90/89/11
f 98/96/24 100/102/24 104/97/24
f 97/99/25 101/103/25 103/100/25
f 100/102/11 99/101/11 103/100/11
f 98/96/2 102/98/2 101/103/2
f 106/104/24 110/431/24 112/105/24
f 111/107/25 109/110/25 105/108/25
f 108/106/2 112/105/2 111/107/2
f 109/110/11 110/431/11 106/104/11
f 118/111/26 120/117/26 115/112/26
f 121/114/26 122/129/26 119/115/26
f 119/115/26 122/129/26 120/117/26
f 117/116/26 114/130/26 116/118/26
f 125/119/27 130/125/27 128/120/27
f 129/122/27 132/126/27 131/123/27
f 129/122/27 128/120/27 130/125/27
f 127/124/27 131/123/27 126/127/27
f 119/115/28 129/122/28 127/124/28
f 121/114/29 131/123/29 132/126/29
f 118/111/28 128/120/28 129/122/28
f 122/129/30 132/126/30 130/125/30
f 117/116/28 127/124/28 124/128/28
f 116/118/31 126/127/31 131/123/31
f 113/113/28 123/121/28 128/120/28
f 115/112/32 120/117/32 130/125/32
f 136/131/33 140/137/33 138/132/33
f 133/134/34 137/138/34 139/135/34
f 135/136/35 139/135/35 140/137/35
f 134/133/36 138/132/36 137/138/36
f 153/139/90 154/432/90 158/140/90
f 150/142/91 144/152/91 143/139/91
f 150/142/92 148/141/92 149/143/92
f 149/143/93 147/147/93 151/145/93
f 141/146/94 142/151/94 151/145/94
f 158/140/95 160/149/95 157/143/95
f 159/148/96 155/147/96 157/143/96
f 146/146/97 155/147/97 159/148/97
f 152/144/45 160/149/45 158/140/45
f 155/147/46 146/146/46 141/146/46
f 159/148/47 160/149/47 152/144/47
f 142/151/48 145/150/48 159/148/48
f 157/143/46 155/147/46 147/147/46
f 148/141/46 156/141/46 157/143/46
f 143/139/46 153/139/46 156/141/46
f 158/140/49 154/432/49 144/152/49
f 163/153/50 167/433/50 177/154/50
f 178/156/46 168/156/46 165/157/46
f 173/157/46 165/157/46 164/158/46
f 164/158/46 166/159/46 174/159/46
f 179/160/51 176/165/51 162/161/51
f 162/161/98 161/166/98 169/163/98
f 166/159/46 175/164/46 180/164/46
f 169/163/53 161/166/53 163/153/53
f 175/164/99 166/159/99 162/161/99
f 162/161/100 166/159/100 164/158/100
f 163/153/101 161/166/101 164/158/101
f 180/164/102 179/160/102 170/162/102
f 172/158/103 174/159/103 170/162/103
f 171/155/104 173/157/104 172/158/104
f 171/155/105 177/154/105 178/156/105
f 168/156/106 167/433/106 163/153/106
f 182/167/2 184/434/2 188/168/2
f 181/170/2 185/173/2 186/171/2
f 187/169/2 188/168/2 186/171/2
f 196/174/11 192/181/11 190/175/11
f 189/177/11 191/180/11 194/178/11
f 194/178/11 196/174/11 195/176/11
f 187/169/62 195/176/62 190/175/62
f 186/171/63 194/178/63 191/180/63
f 181/170/62 189/177/62 193/179/62
f 188/168/64 196/174/64 194/178/64
f 185/173/62 193/179/62 195/176/62
f 188/168/65 184/434/65 192/181/65
f 204/182/11 200/196/11 198/183/11
f 197/185/11 199/195/11 202/186/11
f 202/186/11 204/182/11 203/184/11
f 206/188/2 208/435/2 212/189/2
f 205/191/2 209/194/2 210/192/2
f 211/190/2 212/189/2 210/192/2
f 198/183/62 206/188/62 211/190/62
f 199/195/63 207/193/63 210/192/63
f 209/194/62 205/191/62 197/185/62
f 202/186/64 210/192/64 212/189/64
f 211/190/62 209/194/62 201/187/62
f 212/189/65 208/435/65 200/196/65
f 224/199/66 216/209/66 226/207/66
f 216/209/66 214/436/66 226/207/66
f 226/207/66 228/203/66 227/437/66
f 224/199/107 226/207/107 223/197/107
f 227/437/66 223/197/66 226/207/66
f 215/208/67 213/210/67 220/202/67
f 213/210/67 218/200/67 220/202/67
f 218/200/67 219/206/67 217/201/67
f 217/201/67 221/205/67 220/202/67
f 221/205/108 222/204/108 220/202/108
f 228/203/68 226/207/68 220/202/68
f 223/197/69 227/437/69 221/205/69
f 218/200/70 224/199/70 225/198/70
f 226/207/11 214/436/11 215/208/11
f 221/205/74 227/437/74 228/203/74
f 225/198/72 223/197/72 217/201/72
f 216/209/73 224/199/73 218/200/73
f 230/438/66 232/224/66 242/213/66
f 232/224/66 240/211/66 242/213/66
f 240/211/66 241/221/66 239/212/66
f 239/212/66 243/223/66 242/213/66
f 243/223/66 244/218/66 242/213/66
f 234/216/67 229/225/67 236/217/67
f 229/225/67 231/222/67 236/217/67
f 236/217/67 238/219/67 237/220/67
f 234/216/67 236/217/67 233/214/67
f 237/220/67 233/214/67 236/217/67
f 236/217/70 242/213/70 244/218/70
f 237/220/69 243/223/69 239/212/69
f 234/216/68 235/215/68 241/221/68
f 231/222/2 230/438/2 242/213/2
f 237/220/72 238/219/72 244/218/72
f 233/214/74 239/212/74 241/221/74
f 234/216/75 240/211/75 232/224/75
f 246/226/76 248/232/76 247/227/76
f 251/229/77 252/233/77 250/230/77
f 247/227/78 251/229/78 249/231/78
f 248/232/79 246/226/79 250/230/79
f 256/234/80 260/240/80 258/235/80
f 253/237/81 257/241/81 259/238/81
f 255/239/11 259/238/11 260/240/11
f 253/237/2 254/236/2 258/235/2
f 264/242/80 268/248/80 266/243/80
f 261/245/81 265/249/81 267/246/81
f 263/247/11 267/246/11 268/248/11
f 261/245/2 262/244/2 266/243/2
f 272/250/80 276/256/80 274/251/80
f 269/253/81 273/257/81 275/254/81
f 271/255/11 275/254/11 276/256/11
f 269/253/2 270/252/2 274/251/2
f 280/258/80 284/264/80 282/259/80
f 277/261/81 281/265/81 283/262/81
f 279/263/11 283/262/11 284/264/11
f 277/261/2 278/260/2 282/259/2
f 288/266/80 292/272/80 290/267/80
f 285/269/81 289/273/81 291/270/81
f 287/271/11 291/270/11 292/272/11
f 285/269/2 286/268/2 290/267/2
f 297/274/11 306/291/11 308/275/11
f 310/277/82 299/281/82 300/278/82
f 296/280/83 300/278/83 299/281/83
f 293/283/84 298/288/84 297/274/84
f 312/284/2 301/292/2 304/285/2
f 305/279/11 300/278/11 296/280/11
f 312/284/2 309/286/2 298/288/2
f 312/284/85 293/283/85 295/276/85
f 311/289/85 307/287/85 296/280/85
f 294/282/2 299/281/2 310/277/2
f 303/290/86 306/291/86 309/286/86
f 303/290/11 302/439/11 308/275/11
f 301/292/87 302/439/87 307/287/87
f 304/285/2 301/292/2 311/289/2
f 297/274/82 298/288/82 309/286/82
f 308/275/88 302/439/88 301/292/88
f 307/287/11 302/439/11 303/290/11
f 305/279/89 303/290/89 304/285/89
f 317/293/11 326/310/11 328/294/11
f 330/296/82 319/300/82 320/297/82
f 316/299/83 320/297/83 319/300/83
f 313/302/84 318/307/84 317/293/84
f 332/303/2 321/311/2 324/304/2
f 325/298/11 320/297/11 316/299/11
f 332/303/2 329/305/2 318/307/2
f 313/302/85 315/295/85 328/294/85
f 331/308/85 327/306/85 316/299/85
f 314/301/2 319/300/2 330/296/2
f 323/309/86 326/310/86 329/305/86
f 323/309/11 322/440/11 328/294/11
f 321/311/87 322/440/87 327/306/87
f 324/304/2 321/311/2 331/308/2
f 318/307/82 329/305/82 326/310/82
f 328/294/88 322/440/88 321/311/88
f 327/306/11 322/440/11 323/309/11
f 325/298/89 323/309/89 324/304/89
f 337/312/11 346/329/11 348/313/11
f 350/315/82 339/319/82 340/316/82
f 336/318/83 340/316/83 339/319/83
f 333/321/84 338/326/84 337/312/84
f 352/322/2 341/331/2 344/323/2
f 345/317/11 340/316/11 336/318/11
f 352/322/2 349/324/2 338/326/2
f 352/322/85 333/321/85 335/314/85
f 351/327/85 347/325/85 336/318/85
f 334/320/2 339/319/2 350/315/2
f 343/328/86 346/329/86 349/324/86
f 343/328/11 342/330/11 348/313/11
f 342/330/87 347/325/87 351/327/87
f 344/323/2 341/331/2 351/327/2
f 337/312/82 338/326/82 349/324/82
f 348/313/88 342/330/88 341/331/88
f 347/325/11 342/330/11 343/328/11
f 350/315/89 345/317/89 343/328/89
f 357/332/11 366/349/11 368/333/11
f 370/335/82 359/339/82 360/336/82
f 356/338/83 360/336/83 359/339/83
f 353/341/84 358/346/84 357/332/84
f 372/342/2 361/350/2 364/343/2
f 365/337/11 360/336/11 356/338/11
f 372/342/2 369/344/2 358/346/2
f 353/341/85 355/334/85 368/333/85
f 371/347/85 367/345/85 356/338/85
f 354/340/2 359/339/2 370/335/2
f 363/348/86 366/349/86 369/344/86
f 363/348/11 362/351/11 368/333/11
f 361/350/87 362/351/87 367/345/87
f 364/343/2 361/350/2 371/347/2
f 358/346/82 369/344/82 366/349/82
f 372/342/88 368/333/88 362/351/88
f 367/345/11 362/351/11 363/348/11
f 365/337/89 363/348/89 364/343/89
f 377/352/11 386/369/11 388/353/11
f 390/355/82 379/359/82 380/356/82
f 376/358/83 380/356/83 379/359/83
f 373/361/84 378/366/84 377/352/84
f 392/362/2 381/371/2 384/363/2
f 385/357/11 380/356/11 376/358/11
f 392/362/2 389/364/2 378/366/2
f 373/361/85 375/354/85 388/353/85
f 391/367/85 387/365/85 376/358/85
f 374/360/2 379/359/2 390/355/2
f 383/368/86 386/369/86 389/364/86
f 383/368/11 382/370/11 388/353/11
f 382/370/87 387/365/87 391/367/87
f 384/363/2 381/371/2 391/367/2
f 378/366/82 389/364/82 386/369/82
f 388/353/88 382/370/88 381/371/88
f 387/365/11 382/370/11 383/368/11
f 385/357/89 383/368/89 384/363/89
f 397/372/11 406/389/11 408/373/11
f 410/375/82 399/379/82 400/376/82
f 396/378/83 400/376/83 399/379/83
f 393/381/84 398/386/84 397/372/84
f 412/382/2 401/391/2 404/383/2
f 405/377/11 400/376/11 396/378/11
f 412/382/2 409/384/2 398/386/2
f 412/382/85 393/381/85 395/374/85
f 411/387/85 407/385/85 396/378/85
f 394/380/2 399/379/2 410/375/2
f 403/388/86 406/389/86 409/384/86
f 403/388/11 402/390/11 408/373/11
f 402/390/87 407/385/87 411/387/87
f 404/383/2 401/391/2 411/387/2
f 397/372/82 398/386/82 409/384/82
f 408/373/88 402/390/88 401/391/88
f 407/385/11 402/390/11 403/388/11
f 410/375/89 405/377/89 403/388/89
f 417/392/11 426/409/11 428/393/11
f 430/395/82 419/399/82 420/396/82
f 416/398/83 420/396/83 419/399/83
f 413/401/84 418/406/84 417/392/84
f 432/402/2 421/410/2 424/403/2
f 425/397/11 420/396/11 416/398/11
f 432/402/2 429/404/2 418/406/2
f 413/401/85 415/394/85 428/393/85
f 431/407/85 427/405/85 416/398/85
f 414/400/2 419/399/2 430/395/2
f 423/408/86 426/409/86 429/404/86
f 423/408/11 422/441/11 428/393/11
f 421/410/87 422/441/87 427/405/87
f 424/403/2 421/410/2 431/407/2
f 418/406/82 429/404/82 426/409/82
f 428/393/88 422/441/88 421/410/88
f 427/405/11 422/441/11 423/408/11
f 425/397/89 423/408/89 424/403/89
f 437/411/11 446/428/11 448/412/11
f 450/414/82 439/418/82 440/415/82
f 436/417/83 440/415/83 439/418/83
f 433/420/84 438/425/84 437/411/84
f 452/421/2 441/429/2 444/422/2
f 445/416/11 440/415/11 436/417/11
f 452/421/2 449/423/2 438/425/2
f 452/421/85 433/420/85 435/413/85
f 451/426/85 447/424/85 436/417/85
f 434/419/2 439/418/2 450/414/2
f 443/427/86 446/428/86 449/423/86
f 443/427/11 442/442/11 448/412/11
f 441/429/87 442/442/87 447/424/87
f 444/422/2 441/429/2 451/426/2
f 437/411/82 438/425/82 449/423/82
f 448/412/88 442/442/88 441/429/88
f 447/424/11 442/442/11 443/427/11
f 445/416/89 443/427/89 444/422/89
