# Blender 4.4.0
# www.blender.org
mtllib Prop_Dumpster_01.mtl
o Prop_Dumpster_01
v 0.765447 0.143522 -0.600268
v 0.754418 0.143522 0.599349
v -0.754418 0.143522 0.599349
v -0.765447 0.143522 -0.600268
v -0.779899 0.088492 -0.611593
v -0.779899 0.088492 0.610674
v 0.779899 0.088492 0.610674
v 0.779899 0.088492 -0.611593
v 0.779899 0.143522 0.610674
v -0.779899 0.143522 -0.611593
v 0.779899 0.143522 -0.611593
v -0.779899 0.143522 0.610674
v -0.754418 1.118810 0.599349
v 0.754418 1.118810 0.599349
v -0.777805 1.575218 -0.609952
v -0.777805 1.172849 0.609033
v 0.777805 1.172849 0.609033
v 0.777805 1.575218 -0.609952
v 0.777805 1.497418 -0.609952
v -0.777805 1.124387 0.609033
v 0.777805 1.124387 0.609033
v -0.777805 1.497418 -0.609952
v -0.733082 1.566712 -0.574907
v -0.733082 1.181355 0.573988
v 0.733082 1.181355 0.573988
v 0.733082 1.566712 -0.574907
v -0.733082 0.116226 -0.574907
v -0.733082 0.116226 0.573988
v 0.733082 0.116226 0.573988
v 0.733082 0.116226 -0.574907
v 0.765447 1.124387 0.599349
v 0.765447 0.143522 0.599349
v -0.765447 0.143522 0.599349
v -0.765447 1.124387 0.599349
v 0.754418 1.118810 0.596872
v 0.754418 0.143522 0.596872
v -0.754418 0.143522 0.596872
v -0.754418 1.118810 0.596872
v -0.738126 1.484468 -0.600268
v 0.738126 1.484468 -0.600268
v -0.765447 1.497418 -0.600268
v 0.765447 1.497418 -0.600268
v -0.738126 0.143522 -0.600268
v 0.738126 0.143522 -0.600268
v -0.738126 0.143522 -0.592278
v 0.738126 0.143522 -0.592278
v -0.738126 1.484468 -0.592278
v 0.738126 1.484468 -0.592278
v -0.798018 1.586892 -0.622687
v -0.798018 1.594415 -0.622687
v -0.798018 1.599734 -0.617368
v -0.798018 1.599734 -0.609845
v -0.798018 1.594415 -0.604526
v -0.798018 1.586892 -0.604526
v -0.798018 1.581573 -0.609845
v -0.798018 1.581573 -0.617368
v 0.798018 1.594415 -0.622687
v 0.798018 1.586892 -0.622687
v 0.798018 1.599734 -0.617368
v 0.798018 1.599734 -0.609845
v 0.798018 1.594415 -0.604526
v 0.798018 1.586892 -0.604526
v 0.798018 1.581573 -0.609845
v 0.798018 1.581573 -0.617368
v -0.766029 1.563491 -0.609316
v -0.766029 1.578686 -0.607385
v -0.766029 1.570535 -0.601921
v -0.766029 1.578686 -0.619503
v -0.766029 1.585944 -0.602598
v -0.766029 1.603639 -0.609527
v -0.766029 1.598457 -0.602843
v -0.766029 1.585944 -0.624290
v -0.766029 1.603639 -0.617360
v -0.766029 1.598457 -0.624044
v -0.757384 1.563491 -0.609316
v -0.757384 1.578686 -0.607385
v -0.757384 1.570535 -0.601921
v -0.757384 1.578686 -0.619503
v -0.757384 1.585944 -0.602598
v -0.757384 1.603639 -0.609527
v -0.757384 1.598457 -0.602843
v -0.757384 1.585944 -0.624290
v -0.757384 1.603639 -0.617360
v -0.757384 1.598457 -0.624044
v 0.743522 1.563491 -0.609316
v 0.743522 1.578686 -0.607385
v 0.743522 1.570535 -0.601921
v 0.743522 1.578686 -0.619503
v 0.743522 1.585944 -0.602598
v 0.743522 1.603639 -0.609527
v 0.743522 1.598457 -0.602843
v 0.743522 1.585944 -0.624290
v 0.743522 1.603639 -0.617360
v 0.743522 1.598457 -0.624044
v 0.734877 1.563491 -0.609316
v 0.734877 1.578686 -0.607385
v 0.734877 1.570535 -0.601921
v 0.734877 1.578686 -0.619503
v 0.734877 1.585944 -0.602598
v 0.734877 1.603639 -0.609527
v 0.734877 1.598457 -0.602843
v 0.734877 1.585944 -0.624290
v 0.734877 1.603639 -0.617360
v 0.734877 1.598457 -0.624044
v -0.705709 0.036585 0.533192
v -0.705709 0.041491 0.535224
v -0.705709 0.039459 0.540130
v -0.705709 0.034553 0.538098
v -0.735196 0.036585 0.533192
v -0.735196 0.041491 0.535224
v -0.735196 0.039459 0.540130
v -0.735196 0.034553 0.538098
v -0.729565 0.022372 0.498880
v -0.729565 0.053671 0.498880
v -0.729565 0.075803 0.521012
v -0.729565 0.075803 0.552311
v -0.729565 0.053671 0.574443
v -0.729565 0.022372 0.574443
v -0.729565 0.000000 0.552311
v -0.729565 0.000000 0.521012
v -0.711375 0.022173 0.498399
v -0.711375 0.053871 0.498399
v -0.711375 0.076284 0.520812
v -0.711375 0.076284 0.552510
v -0.711375 0.053871 0.574923
v -0.711375 0.022173 0.574923
v -0.711375 0.000000 0.552510
v -0.711375 0.000000 0.520812
v -0.729066 0.049329 0.509364
v -0.729066 0.026715 0.509364
v -0.729066 0.065319 0.525354
v -0.729066 0.065319 0.547968
v -0.729066 0.049329 0.563959
v -0.729066 0.026715 0.563959
v -0.729066 0.010724 0.547968
v -0.729066 0.010724 0.525354
v -0.711874 0.049329 0.509364
v -0.711874 0.026715 0.509364
v -0.711874 0.065319 0.525354
v -0.711874 0.065319 0.547968
v -0.711874 0.049329 0.563959
v -0.711874 0.026715 0.563959
v -0.711874 0.010724 0.547968
v -0.711874 0.010724 0.525354
v -0.723065 0.041158 0.529090
v -0.723065 0.034885 0.529090
v -0.723065 0.045593 0.533525
v -0.723065 0.045593 0.539798
v -0.723065 0.041158 0.544233
v -0.723065 0.034885 0.544233
v -0.723065 0.030450 0.539798
v -0.723065 0.030450 0.533525
v -0.717875 0.041158 0.529090
v -0.717875 0.034885 0.529090
v -0.717875 0.045593 0.533525
v -0.717875 0.045593 0.539798
v -0.717875 0.041158 0.544233
v -0.717875 0.034885 0.544233
v -0.717875 0.030450 0.539798
v -0.717875 0.030450 0.533525
v -0.723065 0.041158 0.507708
v -0.723065 0.034885 0.507708
v -0.723065 0.066975 0.539798
v -0.723065 0.066975 0.533525
v -0.723065 0.034885 0.565614
v -0.723065 0.041158 0.565614
v -0.723065 0.009069 0.533525
v -0.723065 0.009069 0.539798
v -0.717875 0.041158 0.507708
v -0.717875 0.034885 0.507708
v -0.717875 0.066975 0.539798
v -0.717875 0.066975 0.533525
v -0.717875 0.034885 0.565614
v -0.717875 0.041158 0.565614
v -0.717875 0.009069 0.533525
v -0.717875 0.009069 0.539798
v -0.701721 0.086297 0.517008
v -0.701721 0.086297 0.556314
v -0.739219 0.086297 0.517008
v -0.739219 0.086297 0.556314
v -0.701721 0.088598 0.517008
v -0.701721 0.088598 0.556314
v -0.739219 0.088598 0.517008
v -0.739219 0.088598 0.556314
v -0.733796 0.028372 0.536661
v -0.730918 0.028372 0.536661
v -0.730918 0.038408 0.548427
v -0.730918 0.031311 0.544981
v -0.730918 0.038408 0.524895
v -0.730918 0.031311 0.528341
v -0.733796 0.038408 0.548427
v -0.733796 0.031311 0.544981
v -0.733796 0.038408 0.524895
v -0.733796 0.031311 0.528341
v -0.730543 0.086297 0.524895
v -0.730543 0.086297 0.548427
v -0.734207 0.086297 0.524895
v -0.734207 0.086297 0.548427
v -0.709987 0.028372 0.536661
v -0.707109 0.028372 0.536661
v -0.707109 0.038408 0.548427
v -0.707109 0.031311 0.544981
v -0.707109 0.038408 0.524895
v -0.707109 0.031311 0.528341
v -0.709987 0.038408 0.548427
v -0.709987 0.031311 0.544981
v -0.709987 0.038408 0.524895
v -0.709987 0.031311 0.528341
v -0.706733 0.086297 0.524895
v -0.706733 0.086297 0.548427
v -0.710397 0.086297 0.524895
v -0.710397 0.086297 0.548427
v 0.705709 0.036585 0.533192
v 0.705709 0.041491 0.535224
v 0.705709 0.039459 0.540130
v 0.705709 0.034553 0.538098
v 0.735196 0.036585 0.533192
v 0.735196 0.041491 0.535224
v 0.735196 0.039459 0.540130
v 0.735196 0.034553 0.538098
v 0.729565 0.022372 0.498880
v 0.729565 0.053671 0.498880
v 0.729565 0.075803 0.521012
v 0.729565 0.075803 0.552311
v 0.729565 0.053671 0.574443
v 0.729565 0.022372 0.574443
v 0.729565 0.000000 0.552311
v 0.729565 0.000000 0.521012
v 0.711375 0.022173 0.498399
v 0.711375 0.053871 0.498399
v 0.711375 0.076284 0.520812
v 0.711375 0.076284 0.552510
v 0.711375 0.053871 0.574923
v 0.711375 0.022173 0.574923
v 0.711375 0.000000 0.552510
v 0.711375 0.000000 0.520812
v 0.729066 0.049329 0.509364
v 0.729066 0.026715 0.509364
v 0.729066 0.065319 0.525354
v 0.729066 0.065319 0.547968
v 0.729066 0.049329 0.563959
v 0.729066 0.026715 0.563959
v 0.729066 0.010724 0.547968
v 0.729066 0.010724 0.525354
v 0.711874 0.049329 0.509364
v 0.711874 0.026715 0.509364
v 0.711874 0.065319 0.525354
v 0.711874 0.065319 0.547968
v 0.711874 0.049329 0.563959
v 0.711874 0.026715 0.563959
v 0.711874 0.010724 0.547968
v 0.711874 0.010724 0.525354
v 0.723065 0.041158 0.529090
v 0.723065 0.034885 0.529090
v 0.723065 0.045593 0.533525
v 0.723065 0.045593 0.539798
v 0.723065 0.041158 0.544233
v 0.723066 0.034885 0.544233
v 0.723066 0.030450 0.539798
v 0.723066 0.030450 0.533525
v 0.717875 0.041158 0.529090
v 0.717875 0.034885 0.529090
v 0.717875 0.045593 0.533525
v 0.717875 0.045593 0.539798
v 0.717875 0.041158 0.544233
v 0.717875 0.034885 0.544233
v 0.717875 0.030450 0.539798
v 0.717875 0.030450 0.533525
v 0.723065 0.041158 0.507708
v 0.723065 0.034885 0.507708
v 0.723065 0.066975 0.539798
v 0.723065 0.066975 0.533525
v 0.723066 0.034885 0.565614
v 0.723065 0.041158 0.565614
v 0.723066 0.009069 0.533525
v 0.723066 0.009069 0.539798
v 0.717875 0.041158 0.507708
v 0.717875 0.034885 0.507708
v 0.717875 0.066975 0.539798
v 0.717875 0.066975 0.533525
v 0.717875 0.034885 0.565614
v 0.717875 0.041158 0.565614
v 0.717875 0.009069 0.533525
v 0.717875 0.009069 0.539798
v 0.701721 0.086297 0.517008
v 0.701721 0.086297 0.556314
v 0.739218 0.086297 0.517008
v 0.739218 0.086297 0.556314
v 0.701721 0.088598 0.517008
v 0.701721 0.088598 0.556314
v 0.739218 0.088598 0.517008
v 0.739218 0.088598 0.556314
v 0.733796 0.028372 0.536661
v 0.730918 0.028372 0.536661
v 0.730918 0.038408 0.548427
v 0.730918 0.031311 0.544981
v 0.730918 0.038408 0.524895
v 0.730918 0.031311 0.528341
v 0.733796 0.038408 0.548427
v 0.733796 0.031311 0.544981
v 0.733796 0.038408 0.524895
v 0.733796 0.031311 0.528341
v 0.730543 0.086297 0.524895
v 0.730543 0.086297 0.548427
v 0.734207 0.086297 0.524895
v 0.734207 0.086297 0.548427
v 0.709987 0.028372 0.536661
v 0.707109 0.028372 0.536661
v 0.707109 0.038408 0.548427
v 0.707109 0.031311 0.544981
v 0.707109 0.038408 0.524895
v 0.707109 0.031311 0.528341
v 0.709987 0.038408 0.548427
v 0.709987 0.031311 0.544981
v 0.709987 0.038408 0.524895
v 0.709987 0.031311 0.528341
v 0.706733 0.086297 0.524895
v 0.706733 0.086297 0.548427
v 0.710397 0.086297 0.524895
v 0.710397 0.086297 0.548427
v -0.705709 0.036585 -0.533192
v -0.705709 0.041491 -0.535224
v -0.705709 0.039459 -0.540130
v -0.705709 0.034553 -0.538098
v -0.735196 0.036585 -0.533192
v -0.735196 0.041491 -0.535224
v -0.735196 0.039459 -0.540130
v -0.735196 0.034553 -0.538098
v -0.729565 0.022372 -0.498880
v -0.729565 0.053671 -0.498880
v -0.729565 0.075803 -0.521012
v -0.729565 0.075803 -0.552311
v -0.729565 0.053671 -0.574443
v -0.729565 0.022372 -0.574443
v -0.729565 0.000000 -0.552311
v -0.729565 0.000000 -0.521012
v -0.711375 0.022173 -0.498399
v -0.711375 0.053871 -0.498399
v -0.711375 0.076284 -0.520812
v -0.711375 0.076284 -0.552510
v -0.711375 0.053871 -0.574923
v -0.711375 0.022173 -0.574923
v -0.711375 0.000000 -0.552510
v -0.711375 0.000000 -0.520812
v -0.729066 0.049329 -0.509364
v -0.729066 0.026715 -0.509364
v -0.729066 0.065319 -0.525354
v -0.729066 0.065319 -0.547968
v -0.729066 0.049329 -0.563959
v -0.729066 0.026715 -0.563959
v -0.729066 0.010724 -0.547968
v -0.729066 0.010724 -0.525354
v -0.711874 0.049329 -0.509364
v -0.711874 0.026715 -0.509364
v -0.711874 0.065319 -0.525354
v -0.711874 0.065319 -0.547968
v -0.711874 0.049329 -0.563959
v -0.711874 0.026715 -0.563959
v -0.711874 0.010724 -0.547968
v -0.711874 0.010724 -0.525354
v -0.723065 0.041158 -0.529090
v -0.723065 0.034885 -0.529090
v -0.723065 0.045593 -0.533525
v -0.723065 0.045593 -0.539798
v -0.723065 0.041158 -0.544233
v -0.723065 0.034885 -0.544233
v -0.723065 0.030450 -0.539798
v -0.723065 0.030450 -0.533525
v -0.717875 0.041158 -0.529090
v -0.717875 0.034885 -0.529090
v -0.717875 0.045593 -0.533525
v -0.717875 0.045593 -0.539798
v -0.717875 0.041158 -0.544233
v -0.717875 0.034885 -0.544233
v -0.717875 0.030450 -0.539798
v -0.717875 0.030450 -0.533525
v -0.723065 0.041158 -0.507708
v -0.723065 0.034885 -0.507708
v -0.723065 0.066975 -0.539798
v -0.723065 0.066975 -0.533525
v -0.723065 0.034885 -0.565614
v -0.723065 0.041158 -0.565614
v -0.723065 0.009069 -0.533525
v -0.723065 0.009069 -0.539798
v -0.717875 0.041158 -0.507708
v -0.717875 0.034885 -0.507708
v -0.717875 0.066975 -0.539798
v -0.717875 0.066975 -0.533525
v -0.717875 0.034885 -0.565614
v -0.717875 0.041158 -0.565614
v -0.717875 0.009069 -0.533525
v -0.717875 0.009069 -0.539798
v -0.701721 0.086297 -0.517009
v -0.701721 0.086297 -0.556314
v -0.739219 0.086297 -0.517009
v -0.739219 0.086297 -0.556314
v -0.701721 0.088598 -0.517009
v -0.701721 0.088598 -0.556314
v -0.739219 0.088598 -0.517009
v -0.739219 0.088598 -0.556314
v -0.733796 0.028372 -0.536661
v -0.730918 0.028372 -0.536661
v -0.730918 0.038408 -0.548427
v -0.730918 0.031311 -0.544981
v -0.730918 0.038408 -0.524895
v -0.730918 0.031311 -0.528341
v -0.733796 0.038408 -0.548427
v -0.733796 0.031311 -0.544981
v -0.733796 0.038408 -0.524895
v -0.733796 0.031311 -0.528341
v -0.730543 0.086297 -0.524895
v -0.730543 0.086297 -0.548427
v -0.734207 0.086297 -0.524895
v -0.734207 0.086297 -0.548427
v -0.709987 0.028372 -0.536661
v -0.707109 0.028372 -0.536661
v -0.707109 0.038408 -0.548427
v -0.707109 0.031311 -0.544981
v -0.707109 0.038408 -0.524895
v -0.707109 0.031311 -0.528341
v -0.709987 0.038408 -0.548427
v -0.709987 0.031311 -0.544981
v -0.709987 0.038408 -0.524895
v -0.709987 0.031311 -0.528341
v -0.706733 0.086297 -0.524895
v -0.706733 0.086297 -0.548427
v -0.710397 0.086297 -0.524895
v -0.710397 0.086297 -0.548427
v 0.705709 0.036585 -0.533192
v 0.705709 0.041491 -0.535224
v 0.705709 0.039459 -0.540130
v 0.705709 0.034553 -0.538098
v 0.735196 0.036585 -0.533192
v 0.735196 0.041491 -0.535224
v 0.735196 0.039459 -0.540130
v 0.735196 0.034553 -0.538098
v 0.729565 0.022372 -0.498880
v 0.729565 0.053671 -0.498880
v 0.729565 0.075803 -0.521012
v 0.729565 0.075803 -0.552311
v 0.729565 0.053671 -0.574443
v 0.729565 0.022372 -0.574443
v 0.729565 0.000000 -0.552311
v 0.729565 0.000000 -0.521012
v 0.711375 0.022173 -0.498399
v 0.711375 0.053871 -0.498399
v 0.711375 0.076284 -0.520812
v 0.711375 0.076284 -0.552510
v 0.711375 0.053871 -0.574923
v 0.711375 0.022173 -0.574923
v 0.711375 0.000000 -0.552510
v 0.711375 0.000000 -0.520812
v 0.729066 0.049329 -0.509364
v 0.729066 0.026715 -0.509364
v 0.729066 0.065319 -0.525354
v 0.729066 0.065319 -0.547968
v 0.729066 0.049329 -0.563959
v 0.729066 0.026715 -0.563959
v 0.729066 0.010724 -0.547968
v 0.729066 0.010724 -0.525354
v 0.711874 0.049329 -0.509364
v 0.711874 0.026715 -0.509364
v 0.711874 0.065319 -0.525354
v 0.711874 0.065319 -0.547968
v 0.711874 0.049329 -0.563959
v 0.711874 0.026715 -0.563959
v 0.711874 0.010724 -0.547968
v 0.711874 0.010724 -0.525354
v 0.723065 0.041158 -0.529090
v 0.723065 0.034885 -0.529090
v 0.723065 0.045593 -0.533525
v 0.723065 0.045593 -0.539798
v 0.723065 0.041158 -0.544233
v 0.723066 0.034885 -0.544233
v 0.723066 0.030450 -0.539798
v 0.723066 0.030450 -0.533525
v 0.717875 0.041158 -0.529090
v 0.717875 0.034885 -0.529090
v 0.717875 0.045593 -0.533525
v 0.717875 0.045593 -0.539798
v 0.717875 0.041158 -0.544233
v 0.717875 0.034885 -0.544233
v 0.717875 0.030450 -0.539798
v 0.717875 0.030450 -0.533525
v 0.723065 0.041158 -0.507708
v 0.723065 0.034885 -0.507708
v 0.723065 0.066975 -0.539798
v 0.723065 0.066975 -0.533525
v 0.723066 0.034885 -0.565614
v 0.723065 0.041158 -0.565614
v 0.723066 0.009069 -0.533525
v 0.723066 0.009069 -0.539798
v 0.717875 0.041158 -0.507708
v 0.717875 0.034885 -0.507708
v 0.717875 0.066975 -0.539798
v 0.717875 0.066975 -0.533525
v 0.717875 0.034885 -0.565614
v 0.717875 0.041158 -0.565614
v 0.717875 0.009069 -0.533525
v 0.717875 0.009069 -0.539798
v 0.701721 0.086297 -0.517009
v 0.701721 0.086297 -0.556314
v 0.739218 0.086297 -0.517009
v 0.739218 0.086297 -0.556314
v 0.701721 0.088598 -0.517009
v 0.701721 0.088598 -0.556314
v 0.739218 0.088598 -0.517009
v 0.739218 0.088598 -0.556314
v 0.733796 0.028372 -0.536661
v 0.730918 0.028372 -0.536661
v 0.730918 0.038408 -0.548427
v 0.730918 0.031311 -0.544981
v 0.730918 0.038408 -0.524895
v 0.730918 0.031311 -0.528341
v 0.733796 0.038408 -0.548427
v 0.733796 0.031311 -0.544981
v 0.733796 0.038408 -0.524895
v 0.733796 0.031311 -0.528341
v 0.730543 0.086297 -0.524895
v 0.730543 0.086297 -0.548427
v 0.734207 0.086297 -0.524895
v 0.734207 0.086297 -0.548427
v 0.709987 0.028372 -0.536661
v 0.707109 0.028372 -0.536661
v 0.707109 0.038408 -0.548427
v 0.707109 0.031311 -0.544981
v 0.707109 0.038408 -0.524895
v 0.707109 0.031311 -0.528341
v 0.709987 0.038408 -0.548427
v 0.709987 0.031311 -0.544981
v 0.709987 0.038408 -0.524895
v 0.709987 0.031311 -0.528341
v 0.706733 0.086297 -0.524895
v 0.706733 0.086297 -0.548427
v 0.710397 0.086297 -0.524895
v 0.710397 0.086297 -0.548427
v -0.765447 1.042386 0.563965
v -0.872570 1.042386 -0.564884
v -0.765447 1.042386 -0.564884
v -0.872570 1.042386 0.563965
v -0.872570 0.840203 -0.564884
v -0.872570 0.840203 0.563965
v -0.765447 0.840203 -0.564884
v -0.765447 0.840203 0.563965
v -0.765447 1.053432 -0.564884
v -0.765447 1.053432 0.563965
v -0.884317 1.053432 -0.564884
v -0.884317 1.053432 0.563965
v -0.884317 0.829157 -0.564884
v -0.884317 0.829157 0.563965
v -0.765447 0.829157 -0.564884
v -0.765447 0.829157 0.563965
v 0.765447 1.042386 0.563965
v 0.872570 1.042386 -0.564884
v 0.765447 1.042386 -0.564884
v 0.872570 1.042386 0.563965
v 0.872570 0.840203 -0.564884
v 0.872570 0.840203 0.563965
v 0.765447 0.840203 -0.564884
v 0.765447 0.840203 0.563965
v 0.765447 1.053432 -0.564884
v 0.765447 1.053432 0.563965
v 0.884317 1.053432 -0.564884
v 0.884317 1.053432 0.563965
v 0.884317 0.829157 -0.564884
v 0.884317 0.829157 0.563965
v 0.765447 0.829157 -0.564884
v 0.765447 0.829157 0.563965
v -0.765447 1.053432 -0.531461
v -0.765447 1.053432 -0.541559
v -0.884317 1.053432 -0.541559
v -0.765447 1.132636 -0.541559
v -0.884317 1.053432 -0.531461
v -0.765447 1.132636 -0.531461
v -0.765447 1.053433 0.006895
v -0.765447 1.053433 -0.007814
v -0.884317 1.053433 -0.007814
v -0.884317 1.053433 0.006895
v -0.765447 1.053432 0.530542
v -0.765447 1.053432 0.540640
v -0.884317 1.053432 0.540640
v -0.765447 1.132636 0.540640
v -0.884317 1.053432 0.530542
v -0.765447 1.132636 0.530542
v -0.765447 1.132636 0.006895
v -0.765447 1.132636 -0.007814
v -0.765447 0.829157 -0.531461
v -0.765447 0.829157 -0.541559
v -0.884317 0.829157 -0.541559
v -0.765447 0.749953 -0.541559
v -0.884317 0.829157 -0.531461
v -0.765447 0.749953 -0.531461
v -0.765447 0.829157 0.006895
v -0.765447 0.829157 -0.007814
v -0.884317 0.829157 -0.007814
v -0.765447 0.829157 0.530542
v -0.765447 0.829157 0.540640
v -0.884317 0.829157 0.540640
v -0.765447 0.749953 0.540640
v -0.884317 0.829157 0.530542
v -0.765447 0.749953 0.530542
v -0.884317 0.829157 0.006895
v -0.765447 0.749953 0.006895
v -0.765447 0.749953 -0.007814
v 0.765447 1.053432 -0.531461
v 0.765447 1.053432 -0.541559
v 0.884317 1.053432 -0.541559
v 0.765447 1.132636 -0.541559
v 0.884317 1.053432 -0.531461
v 0.765447 1.132636 -0.531461
v 0.765447 1.053433 0.006895
v 0.765447 1.053433 -0.007814
v 0.765447 1.053432 0.530542
v 0.765447 1.053432 0.540640
v 0.884317 1.053432 0.540640
v 0.765447 1.132636 0.540640
v 0.884317 1.053432 0.530542
v 0.765447 1.132636 0.530542
v 0.884317 1.053433 0.006895
v 0.765447 1.132636 0.006895
v 0.884317 1.053433 -0.007814
v 0.765447 1.132636 -0.007814
v 0.765447 0.829157 -0.531461
v 0.765447 0.829157 -0.541559
v 0.884317 0.829157 -0.541559
v 0.765447 0.749953 -0.541559
v 0.884317 0.829157 -0.531461
v 0.765447 0.749953 -0.531461
v 0.765447 0.829157 -0.007814
v 0.884317 0.829157 -0.007814
v 0.884317 0.829157 0.006895
v 0.765447 0.749953 0.006895
v 0.765447 0.829157 0.530542
v 0.765447 0.829157 0.540640
v 0.884317 0.829157 0.540640
v 0.765447 0.749953 0.540640
v 0.884317 0.829157 0.530542
v 0.765447 0.749953 0.530542
v 0.765447 0.829157 0.006895
v 0.765447 0.749953 -0.007814
v -0.884317 1.053432 -0.529205
v -0.765447 1.132636 -0.529205
v -0.884317 1.053432 -0.569647
v -0.765447 1.132636 -0.569647
v -0.763768 1.139812 -0.529205
v -0.889400 1.055903 -0.529205
v -0.763768 1.139812 -0.569647
v -0.889400 1.055903 -0.569647
v -0.884317 1.053432 0.528286
v -0.765447 1.132636 0.528286
v -0.884317 1.053432 0.568728
v -0.765447 1.132636 0.568728
v -0.763768 1.139812 0.528286
v -0.889400 1.055903 0.528286
v -0.763768 1.139812 0.568728
v -0.889400 1.055903 0.568728
v -0.884317 0.829475 -0.529205
v -0.765447 0.750271 -0.529205
v -0.884317 0.829475 -0.569647
v -0.765447 0.750271 -0.569647
v -0.763768 0.743096 -0.529205
v -0.889400 0.827005 -0.529205
v -0.763768 0.743096 -0.569647
v -0.889400 0.827005 -0.569647
v -0.884317 0.829475 0.528286
v -0.765447 0.750271 0.528286
v -0.884317 0.829475 0.568728
v -0.765447 0.750271 0.568728
v -0.763768 0.743096 0.528286
v -0.889400 0.827005 0.528286
v -0.763768 0.743096 0.568728
v -0.889400 0.827005 0.568728
v 0.884317 1.053432 -0.529205
v 0.765447 1.132636 -0.529205
v 0.884317 1.053432 -0.569647
v 0.765447 1.132636 -0.569647
v 0.763768 1.139812 -0.529205
v 0.889400 1.055903 -0.529205
v 0.763768 1.139812 -0.569647
v 0.889400 1.055903 -0.569647
v 0.884317 1.053432 0.528286
v 0.765447 1.132636 0.528286
v 0.884317 1.053432 0.568728
v 0.765447 1.132636 0.568728
v 0.763768 1.139812 0.528286
v 0.889400 1.055903 0.528286
v 0.763768 1.139812 0.568728
v 0.889400 1.055903 0.568728
v 0.884317 0.829475 -0.529205
v 0.765447 0.750271 -0.529205
v 0.884317 0.829475 -0.569647
v 0.765447 0.750271 -0.569647
v 0.763768 0.743096 -0.529205
v 0.889400 0.827005 -0.529205
v 0.763768 0.743096 -0.569647
v 0.889400 0.827005 -0.569647
v 0.884317 0.829475 0.528286
v 0.765447 0.750271 0.528286
v 0.884317 0.829475 0.568728
v 0.765447 0.750271 0.568728
v 0.763768 0.743096 0.528286
v 0.889400 0.827005 0.528286
v 0.763768 0.743096 0.568728
v 0.889400 0.827005 0.568728
v -0.769550 0.840203 0.603207
v -0.769550 0.840203 -0.604126
v -0.769550 1.042386 -0.604126
v -0.769550 1.042386 0.603207
v -0.765447 1.042386 0.599349
v -0.765447 1.042386 -0.600268
v -0.765447 0.840203 -0.600268
v -0.765447 0.840203 0.599349
v -0.711961 1.042386 0.599349
v -0.711961 1.042386 -0.600268
v -0.711961 0.840203 -0.600268
v -0.711961 0.840203 0.599349
v -0.711961 1.042386 -0.604126
v -0.711961 0.840203 -0.604126
v -0.711961 1.042386 0.603207
v -0.711961 0.840203 0.603207
v 0.769550 0.840203 0.603207
v 0.769550 0.840203 -0.604126
v 0.769550 1.042386 -0.604126
v 0.769550 1.042386 0.603207
v 0.765447 1.042386 0.599349
v 0.765447 1.042386 -0.600268
v 0.765447 0.840203 -0.600268
v 0.765447 0.840203 0.599349
v 0.711961 1.042386 0.599349
v 0.711961 1.042386 -0.600268
v 0.711961 0.840203 -0.600268
v 0.711961 0.840203 0.599349
v 0.711961 1.042386 -0.604126
v 0.711961 0.840203 -0.604126
v 0.711961 1.042386 0.603207
v 0.711961 0.840203 0.603207
vn 0.2266 -0.9301 -0.2892
vn -0.0000 0.9718 0.2359
vn -0.0000 -1.0000 -0.0000
vn -0.0000 -0.0000 1.0000
vn -0.0000 -0.0000 -1.0000
vn -1.0000 -0.0000 -0.0000
vn 1.0000 -0.0000 -0.0000
vn -0.0000 1.0000 -0.0000
vn -0.0649 0.9476 0.3128
vn 0.0649 0.9476 0.3128
vn -0.0000 -0.7071 -0.7071
vn -0.0000 -0.7071 0.7071
vn -0.0000 0.7071 0.7071
vn -0.0000 0.7071 -0.7071
vn -0.0000 0.0196 -0.9998
vn -0.0000 0.0196 0.9998
vn -0.0000 0.7903 -0.6128
vn -0.0000 -0.5568 -0.8306
vn -0.0000 -0.5506 0.8348
vn -0.0000 0.5568 0.8306
vn -0.0000 -0.5506 -0.8348
vn -0.0000 0.7903 0.6128
vn -0.0000 0.7903 -0.6127
vn -0.0000 0.3827 -0.9239
vn -0.0000 -0.9239 -0.3827
vn -0.0000 -0.3827 0.9239
vn -0.0264 -0.7107 0.7030
vn -0.0264 0.7069 0.7069
vn -0.0264 0.7069 -0.7069
vn -0.0264 -0.0000 0.9997
vn -0.0264 0.9997 -0.0000
vn -0.0264 -0.0000 -0.9997
vn -0.9989 -0.0475 -0.0000
vn 0.9990 -0.0321 0.0321
vn -0.9989 -0.0000 0.0475
vn 0.9990 0.0324 0.0320
vn -0.9989 0.0330 0.0333
vn 0.9989 0.0465 -0.0000
vn 0.9990 -0.0454 -0.0000
vn -0.9989 -0.0336 -0.0336
vn 0.9990 -0.0321 -0.0321
vn -0.9989 -0.0000 -0.0475
vn 0.9990 -0.0000 -0.0454
vn -0.9989 0.0330 -0.0333
vn 0.9990 0.0324 -0.0320
vn -0.9989 0.0465 -0.0000
vn -0.9989 -0.0336 0.0336
vn -0.0000 0.9239 0.3827
vn -0.0078 -0.7033 -0.7109
vn 0.9990 -0.0000 0.0454
vn -0.0000 -0.4368 -0.8996
vn -0.0000 -0.4368 0.8996
vn -0.0000 -0.9429 -0.3332
vn -0.0000 -0.9429 0.3332
vn -0.0000 -0.9429 -0.3331
vn -0.0000 -0.9429 0.3331
vn 0.0078 -0.7033 0.7109
vn 0.0264 0.7069 0.7069
vn 0.0264 0.7069 -0.7069
vn 0.0264 -0.0000 0.9997
vn 0.0264 0.9997 -0.0000
vn 0.0264 -0.0000 -0.9997
vn 0.9989 -0.0475 -0.0000
vn -0.9990 -0.0321 0.0321
vn 0.9989 -0.0000 0.0475
vn -0.9990 0.0324 0.0320
vn 0.9989 0.0330 0.0333
vn -0.9990 -0.0454 -0.0000
vn 0.9989 -0.0336 -0.0336
vn -0.9990 -0.0321 -0.0321
vn 0.9989 -0.0000 -0.0475
vn -0.9990 -0.0000 -0.0454
vn 0.9989 0.0336 -0.0336
vn -0.9989 0.0326 -0.0326
vn 0.9989 -0.0336 0.0336
vn 0.0078 -0.7033 -0.7109
vn -0.9990 -0.0000 0.0454
vn -0.0000 0.3827 0.9239
vn -0.0000 -0.9239 0.3827
vn -0.0000 -0.3827 -0.9239
vn -0.9989 0.0336 0.0336
vn 0.9989 0.0326 0.0326
vn -0.0000 0.9239 -0.3827
vn -0.0078 -0.7033 0.7109
vn -0.0000 -0.4368 0.8995
vn -0.0000 -0.4368 -0.8995
vn 0.0264 -0.7107 -0.7030
vn -0.9990 0.0324 -0.0320
vn 0.9989 0.0330 -0.0333
vn -0.5545 0.8322 -0.0000
vn -0.5545 -0.8322 -0.0000
vn 0.5545 0.8322 -0.0000
vn 0.5545 -0.8322 -0.0000
vn -0.5554 0.8316 -0.0000
vn -0.5554 -0.8316 -0.0000
vn 0.5554 0.8316 -0.0000
vn 0.5554 -0.8316 -0.0000
vn -0.2235 -0.9320 -0.2852
vn 0.0687 0.9458 0.3173
vn -0.0687 0.9458 0.3173
vn -0.0000 0.7903 0.6127
vn -0.9989 0.0336 -0.0336
vn 0.9989 0.0326 -0.0326
vn -0.0264 -0.7107 -0.7030
vn 1.0000 -0.0078 -0.0000
vn -1.0000 -0.0086 -0.0000
vn 0.0264 -0.7107 0.7030
vn -0.9989 0.0326 0.0326
vn 0.9989 0.0336 0.0336
vn -1.0000 -0.0078 -0.0000
vn 1.0000 -0.0086 -0.0000
vt 0.200060 0.092290
vt 0.200080 0.079895
vt 0.200060 0.079895
vt 0.200008 0.081788
vt 0.197557 0.081506
vt 0.200080 0.081506
vt 0.197557 0.094874
vt 0.200008 0.094592
vt 0.200080 0.094874
vt 0.197557 0.079895
vt 0.197577 0.079895
vt 0.239679 0.009146
vt 0.237528 0.062463
vt 0.237528 0.009146
vt 0.237528 0.009146
vt 0.239679 0.062463
vt 0.239679 0.009146
vt 0.237528 0.062463
vt 0.239679 0.062463
vt 0.200043 0.079710
vt 0.200043 0.047305
vt 0.197577 0.047305
vt 0.197577 0.092290
vt 0.200060 0.047305
vt 0.200060 0.047305
vt 0.200080 0.092290
vt 0.197557 0.092290
vt 0.197630 0.046398
vt 0.200008 0.046398
vt 0.197630 0.046398
vt 0.214763 0.043373
vt 0.214763 0.017749
vt 0.217051 0.017749
vt 0.217051 0.043373
vt 0.197630 0.081788
vt 0.197595 0.079710
vt 0.197577 0.047305
vt 0.197595 0.047305
vt 0.217124 0.016931
vt 0.214690 0.044192
vt 0.217124 0.044192
vt 0.200016 0.047305
vt 0.200016 0.091859
vt 0.197621 0.091859
vt 0.197621 0.047305
vt 0.589275 0.654858
vt 0.588325 0.673461
vt 0.590619 0.681167
vt 0.590619 0.654858
vt 0.591570 0.662564
vt 0.588325 0.662564
vt 0.589275 0.681167
vt 0.591570 0.673461
vt 0.589181 0.628664
vt 0.588836 0.650676
vt 0.591001 0.650676
vt 0.591856 0.661190
vt 0.587981 0.661190
vt 0.590618 0.686823
vt 0.591812 0.679316
vt 0.588025 0.679316
vt 0.589219 0.686823
vt 0.587860 0.638868
vt 0.728196 0.686023
vt 0.728133 0.675747
vt 0.728240 0.678757
vt 0.728089 0.683014
vt 0.727342 0.657708
vt 0.727820 0.624574
vt 0.727332 0.657413
vt 0.727824 0.736841
vt 0.727332 0.704358
vt 0.727820 0.737553
vt 0.728986 0.704063
vt 0.728509 0.737553
vt 0.728997 0.704358
vt 0.728505 0.624574
vt 0.727824 0.624574
vt 0.727342 0.704063
vt 0.728505 0.736841
vt 0.728997 0.657413
vt 0.728986 0.657708
vt 0.728410 0.721314
vt 0.728758 0.697632
vt 0.728758 0.664140
vt 0.728509 0.624574
vt 0.728410 0.640457
vt 0.727918 0.721314
vt 0.727571 0.697632
vt 0.727918 0.640457
vt 0.727571 0.664140
vt 0.208166 0.098530
vt 0.208069 0.101865
vt 0.208069 0.106581
vt 0.208166 0.109917
vt 0.208302 0.109917
vt 0.208399 0.106581
vt 0.208399 0.101865
vt 0.208864 0.101865
vt 0.208864 0.106581
vt 0.208302 0.098530
vt 0.208302 0.082452
vt 0.207604 0.101865
vt 0.208302 0.125994
vt 0.208166 0.082452
vt 0.208166 0.125994
vt 0.207604 0.106581
vt 0.727737 0.752383
vt 0.728592 0.752383
vt 0.728592 0.755791
vt 0.727737 0.755791
vt 0.208490 0.104514
vt 0.207978 0.104514
vt 0.208234 0.096967
vt 0.208490 0.140524
vt 0.208415 0.099177
vt 0.208053 0.099177
vt 0.207978 0.140524
vt 0.728000 0.676240
vt 0.728096 0.669671
vt 0.728096 0.692100
vt 0.728000 0.685530
vt 0.728329 0.685530
vt 0.728233 0.692100
vt 0.728794 0.676240
vt 0.728329 0.676240
vt 0.728794 0.685530
vt 0.728233 0.638005
vt 0.728233 0.669671
vt 0.727535 0.676240
vt 0.728233 0.723766
vt 0.728096 0.638005
vt 0.728096 0.723766
vt 0.727535 0.685530
vt 0.728094 0.675747
vt 0.728031 0.686023
vt 0.727987 0.678757
vt 0.728138 0.683014
vt 0.728884 0.657708
vt 0.728407 0.624574
vt 0.728403 0.624574
vt 0.728403 0.736841
vt 0.728895 0.704358
vt 0.728884 0.704063
vt 0.727230 0.704358
vt 0.727722 0.736841
vt 0.727241 0.704063
vt 0.727722 0.624574
vt 0.728407 0.737553
vt 0.727230 0.657413
vt 0.727241 0.657708
vt 0.727816 0.721314
vt 0.727718 0.737553
vt 0.727469 0.664140
vt 0.727718 0.624574
vt 0.727816 0.640457
vt 0.728308 0.721314
vt 0.728656 0.697632
vt 0.728895 0.657413
vt 0.728656 0.664140
vt 0.728308 0.640457
vt 0.727469 0.697632
vt 0.208297 0.101865
vt 0.208200 0.098530
vt 0.208200 0.109917
vt 0.208297 0.106581
vt 0.207967 0.106581
vt 0.208064 0.109917
vt 0.207502 0.101865
vt 0.207967 0.101865
vt 0.207502 0.106581
vt 0.208064 0.082452
vt 0.208064 0.098530
vt 0.208762 0.101865
vt 0.208064 0.125994
vt 0.208200 0.082452
vt 0.208200 0.125994
vt 0.208762 0.106581
vt 0.727635 0.752383
vt 0.728490 0.752383
vt 0.727635 0.755791
vt 0.728490 0.755791
vt 0.208388 0.104514
vt 0.207876 0.104514
vt 0.208132 0.096967
vt 0.207876 0.140524
vt 0.207951 0.099177
vt 0.208313 0.099177
vt 0.208388 0.140524
vt 0.221795 0.137311
vt 0.222105 0.137311
vt 0.222105 0.137311
vt 0.221795 0.095749
vt 0.221795 0.137311
vt 0.222105 0.095749
vt 0.221795 0.095749
vt 0.222105 0.139582
vt 0.221761 0.139582
vt 0.222105 0.139582
vt 0.221761 0.139582
vt 0.221761 0.093478
vt 0.221761 0.093478
vt 0.222105 0.093478
vt 0.222105 0.093478
vt 0.221938 0.137311
vt 0.222248 0.137311
vt 0.221938 0.137311
vt 0.222248 0.137311
vt 0.222248 0.095749
vt 0.222248 0.095749
vt 0.221938 0.095749
vt 0.222283 0.139582
vt 0.221938 0.139582
vt 0.221938 0.139582
vt 0.222283 0.093478
vt 0.222283 0.139582
vt 0.222283 0.093478
vt 0.221938 0.093478
vt 0.221938 0.093478
vt 0.221938 0.095749
vt 0.222105 0.155864
vt 0.222105 0.155864
vt 0.222105 0.077196
vt 0.221761 0.093478
vt 0.222105 0.093478
vt 0.222105 0.077196
vt 0.222105 0.077196
vt 0.221938 0.155864
vt 0.221938 0.155864
vt 0.221938 0.077196
vt 0.222283 0.093478
vt 0.221938 0.077196
vt 0.221938 0.093478
vt 0.221938 0.077196
vt 0.222110 0.157339
vt 0.221746 0.140090
vt 0.221746 0.093036
vt 0.221761 0.093543
vt 0.221746 0.093036
vt 0.221761 0.093543
vt 0.221746 0.140090
vt 0.222110 0.157339
vt 0.222283 0.093543
vt 0.222297 0.140090
vt 0.222297 0.093036
vt 0.222105 0.077262
vt 0.222110 0.075787
vt 0.221933 0.157339
vt 0.222297 0.093036
vt 0.222283 0.093543
vt 0.221933 0.157339
vt 0.222297 0.140090
vt 0.221938 0.077262
vt 0.221933 0.075787
vt 0.222260 0.137311
vt 0.222093 0.095749
vt 0.222093 0.137311
vt 0.222093 0.095749
vt 0.222260 0.095749
vt 0.222105 0.095749
vt 0.222093 0.137311
vt 0.222260 0.095749
vt 0.222260 0.137311
vt 0.221950 0.095749
vt 0.221783 0.137311
vt 0.221950 0.137311
vt 0.221950 0.095749
vt 0.221783 0.095749
vt 0.221950 0.137311
vt 0.221783 0.095749
vt 0.221783 0.137311
vt 0.197630 0.094592
vt 0.200008 0.046398
vt 0.214690 0.016931
s 0
usemtl Texture_Map
f 42/1/1 21/2/1 31/3/1
f 25/4/2 16/5/2 17/6/2
f 15/7/2 26/8/2 18/9/2
f 31/3/3 20/10/3 34/11/3
f 7/12/4 12/13/4 6/14/4
f 5/15/5 11/16/5 8/17/5
f 6/14/6 10/18/6 5/15/6
f 8/17/7 9/19/7 7/12/7
f 8/17/3 6/14/3 5/15/3
f 14/20/6 36/21/6 2/21/6
f 4/22/6 34/11/6 41/23/6
f 1/24/7 31/3/7 32/25/7
f 19/26/7 17/6/7 21/2/7
f 22/27/6 16/5/6 15/7/6
f 22/27/5 18/9/5 19/26/5
f 21/2/4 16/5/4 20/10/4
f 42/1/3 22/27/3 19/26/3
f 28/28/8 30/29/8 27/30/8
f 18/9/9 25/4/9 17/6/9
f 34/11/1 22/27/1 41/23/1
f 24/31/7 27/32/7 23/32/7
f 23/32/4 30/33/4 26/33/4
f 25/34/5 28/31/5 24/31/5
f 25/34/6 30/33/6 29/34/6
f 24/35/10 15/7/10 16/5/10
f 14/20/4 32/25/4 31/3/4
f 13/36/4 33/37/4 3/38/4
f 14/20/4 34/11/4 13/36/4
f 36/21/4 38/36/4 37/38/4
f 13/36/3 35/20/3 14/20/3
f 3/38/7 38/36/7 13/36/7
f 11/39/8 12/40/8 9/41/8
f 44/42/6 48/43/6 40/43/6
f 39/44/5 4/22/5 41/23/5
f 40/43/5 1/24/5 44/42/5
f 39/44/5 42/1/5 40/43/5
f 48/43/5 45/45/5 47/44/5
f 40/43/3 47/44/3 39/44/3
f 39/44/7 45/45/7 43/45/7
f 55/46/6 53/47/6 51/48/6
f 64/49/7 58/50/7 61/47/7
f 54/51/4 61/47/4 53/47/4
f 52/52/8 59/48/8 51/48/8
f 50/53/5 58/50/5 49/50/5
f 49/50/11 64/49/11 56/49/11
f 55/46/12 62/51/12 54/51/12
f 53/47/13 60/52/13 52/52/13
f 51/48/14 57/53/14 50/53/14
f 56/49/3 63/46/3 55/46/3
f 65/54/6 66/55/6 68/56/6
f 72/57/6 69/58/6 73/59/6
f 76/55/7 75/54/7 78/56/7
f 82/57/7 84/60/7 83/59/7
f 74/60/15 82/57/15 72/57/15
f 69/58/16 81/61/16 71/61/16
f 73/59/17 84/60/17 74/60/17
f 68/56/18 75/54/18 65/54/18
f 66/55/19 79/58/19 69/58/19
f 70/62/8 83/59/8 73/59/8
f 67/63/20 76/55/20 66/55/20
f 68/56/21 82/57/21 78/56/21
f 71/61/22 80/62/22 70/62/22
f 86/55/7 85/54/7 88/56/7
f 92/57/7 94/60/7 93/59/7
f 95/54/6 96/55/6 98/56/6
f 102/57/6 99/58/6 103/59/6
f 102/57/15 94/60/15 92/57/15
f 101/61/16 89/58/16 91/61/16
f 104/60/23 93/59/23 94/60/23
f 95/54/18 88/56/18 85/54/18
f 99/58/19 86/55/19 89/58/19
f 103/59/8 90/62/8 93/59/8
f 96/55/20 87/63/20 86/55/20
f 98/56/21 92/57/21 88/56/21
f 100/62/22 91/61/22 90/62/22
f 106/64/7 108/65/7 105/66/7
f 112/65/6 110/64/6 109/66/6
f 109/66/24 106/64/24 105/66/24
f 109/66/25 108/65/25 112/65/25
f 112/65/26 107/67/26 111/67/26
f 118/68/27 127/69/27 126/70/27
f 116/71/28 125/72/28 124/73/28
f 114/74/29 123/75/29 122/76/29
f 120/77/3 127/69/3 119/78/3
f 118/68/30 125/72/30 117/79/30
f 115/80/31 124/73/31 123/75/31
f 114/74/32 121/81/32 113/82/32
f 131/83/33 116/71/33 115/80/33
f 123/75/34 137/84/34 122/76/34
f 130/85/35 114/74/35 113/82/35
f 138/85/36 128/86/36 121/81/36
f 136/87/37 113/82/37 120/77/37
f 144/87/38 127/69/38 128/86/38
f 124/73/39 139/83/39 123/75/39
f 132/88/40 117/79/40 116/71/40
f 125/72/41 140/88/41 124/73/41
f 133/89/42 118/68/42 117/79/42
f 126/70/43 141/89/43 125/72/43
f 118/68/44 135/90/44 119/78/44
f 127/69/45 142/91/45 126/70/45
f 135/90/46 120/77/46 119/78/46
f 129/84/47 115/80/47 114/74/47
f 142/91/14 135/90/14 134/91/14
f 140/88/11 133/89/11 132/88/11
f 137/84/12 131/83/12 129/84/12
f 143/90/8 136/87/8 135/90/8
f 133/89/5 142/91/5 134/91/5
f 139/83/3 132/88/3 131/83/3
f 138/85/4 129/84/4 130/85/4
f 144/87/13 130/85/13 136/87/13
f 151/92/12 158/93/12 150/93/12
f 149/94/13 156/95/13 148/95/13
f 147/96/14 153/97/14 145/97/14
f 146/98/3 170/99/3 154/98/3
f 154/98/7 169/100/7 153/97/7
f 145/97/6 162/99/6 146/98/6
f 160/101/5 167/102/5 152/101/5
f 146/98/11 160/101/11 152/101/11
f 151/92/6 149/94/6 147/96/6
f 160/101/7 154/98/7 157/94/7
f 158/93/3 165/103/3 150/93/3
f 148/95/6 164/104/6 147/96/6
f 151/92/4 176/105/4 159/92/4
f 155/96/7 171/106/7 156/95/7
f 156/95/4 163/106/4 148/95/4
f 150/93/6 166/107/6 149/94/6
f 149/94/8 174/107/8 157/94/8
f 157/94/7 173/103/7 158/93/7
f 153/97/8 161/100/8 145/97/8
f 152/101/6 168/105/6 151/92/6
f 147/96/5 172/104/5 155/96/5
f 159/92/7 175/102/7 160/101/7
f 178/108/3 179/109/3 177/109/3
f 179/109/5 181/110/5 177/109/5
f 177/109/7 182/111/7 178/108/7
f 178/108/4 184/111/4 180/108/4
f 180/108/6 183/110/6 179/109/6
f 110/64/48 107/67/48 106/64/48
f 113/82/49 128/86/49 120/77/49
f 137/84/50 121/81/50 122/76/50
f 189/112/7 187/113/7 186/114/7
f 193/112/5 195/115/5 189/112/5
f 191/113/6 193/112/6 185/114/6
f 194/116/51 189/112/51 190/116/51
f 191/113/52 188/117/52 187/113/52
f 185/114/53 190/116/53 186/114/53
f 196/118/4 191/113/4 187/113/4
f 192/117/54 186/114/54 188/117/54
f 203/112/7 201/113/7 200/114/7
f 207/112/5 209/115/5 203/112/5
f 205/113/6 207/112/6 199/114/6
f 208/116/51 203/112/51 204/116/51
f 205/113/52 202/117/52 201/113/52
f 199/114/55 204/116/55 200/114/55
f 210/118/4 205/113/4 201/113/4
f 206/117/56 200/114/56 202/117/56
f 216/65/6 214/64/6 213/66/6
f 218/64/7 220/65/7 217/66/7
f 214/64/24 217/66/24 213/66/24
f 216/65/25 217/66/25 220/65/25
f 215/67/26 220/65/26 219/67/26
f 226/68/57 235/69/57 227/78/57
f 224/71/58 233/72/58 225/79/58
f 222/74/59 231/75/59 223/80/59
f 235/69/3 228/77/3 227/78/3
f 233/72/60 226/68/60 225/79/60
f 223/80/61 232/73/61 224/71/61
f 229/81/62 222/74/62 221/82/62
f 224/71/63 239/83/63 223/80/63
f 231/75/64 245/84/64 247/83/64
f 222/74/65 238/85/65 221/82/65
f 236/86/66 246/85/66 229/81/66
f 221/82/67 244/87/67 228/77/67
f 235/69/46 252/87/46 236/86/46
f 232/73/68 247/83/68 248/88/68
f 225/79/69 240/88/69 224/71/69
f 233/72/70 248/88/70 249/89/70
f 226/68/71 241/89/71 225/79/71
f 234/70/72 249/89/72 250/91/72
f 226/68/73 243/90/73 242/91/73
f 235/69/74 250/91/74 251/90/74
f 228/77/38 243/90/38 227/78/38
f 223/80/75 237/84/75 222/74/75
f 243/90/14 250/91/14 242/91/14
f 241/89/11 248/88/11 240/88/11
f 239/83/12 245/84/12 237/84/12
f 244/87/8 251/90/8 243/90/8
f 242/91/5 249/89/5 241/89/5
f 240/88/3 247/83/3 239/83/3
f 237/84/4 246/85/4 238/85/4
f 238/85/13 252/87/13 244/87/13
f 266/119/12 259/120/12 258/119/12
f 264/121/13 257/122/13 256/121/13
f 261/123/14 255/124/14 253/123/14
f 278/125/3 254/126/3 262/126/3
f 277/127/6 262/126/6 261/123/6
f 270/125/7 253/123/7 254/126/7
f 275/128/5 268/129/5 260/129/5
f 268/129/11 254/126/11 260/129/11
f 260/129/7 254/126/7 257/122/7
f 267/120/6 265/122/6 263/124/6
f 273/130/3 266/119/3 258/119/3
f 272/131/7 256/121/7 255/124/7
f 284/132/4 259/120/4 267/120/4
f 279/133/6 263/124/6 264/121/6
f 271/133/4 264/121/4 256/121/4
f 274/134/7 258/119/7 257/122/7
f 282/134/8 257/122/8 265/122/8
f 281/130/6 265/122/6 266/119/6
f 269/127/8 261/123/8 253/123/8
f 276/132/7 260/129/7 259/120/7
f 280/131/5 255/124/5 263/124/5
f 283/128/6 267/120/6 268/129/6
f 287/109/3 286/108/3 285/109/3
f 289/110/5 287/109/5 285/109/5
f 290/111/6 285/109/6 286/108/6
f 292/111/4 286/108/4 288/108/4
f 291/110/7 288/108/7 287/109/7
f 215/67/48 218/64/48 214/64/48
f 236/86/76 221/82/76 228/77/76
f 229/81/77 245/84/77 230/76/77
f 295/113/6 297/112/6 294/114/6
f 301/112/5 303/115/5 305/115/5
f 301/112/7 299/113/7 293/114/7
f 297/112/51 302/116/51 298/116/51
f 296/117/52 299/113/52 295/113/52
f 298/116/53 293/114/53 294/114/53
f 299/113/4 304/118/4 295/113/4
f 294/114/54 300/117/54 296/117/54
f 309/113/6 311/112/6 308/114/6
f 315/112/5 317/115/5 319/115/5
f 315/112/7 313/113/7 307/114/7
f 311/112/51 316/116/51 312/116/51
f 310/117/52 313/113/52 309/113/52
f 312/116/55 307/114/55 308/114/55
f 313/113/4 318/118/4 309/113/4
f 308/114/56 314/117/56 310/117/56
f 324/135/7 322/136/7 321/137/7
f 325/137/6 327/138/6 328/135/6
f 322/136/78 325/137/78 321/137/78
f 324/135/79 325/137/79 328/135/79
f 323/138/80 328/135/80 327/138/80
f 334/139/49 343/140/49 335/141/49
f 332/142/29 341/143/29 333/144/29
f 338/145/28 331/146/28 330/147/28
f 343/140/3 336/148/3 335/141/3
f 341/143/32 334/139/32 333/144/32
f 331/146/31 340/149/31 332/142/31
f 337/150/30 330/147/30 329/151/30
f 332/142/33 347/152/33 331/146/33
f 338/145/41 355/152/41 339/153/41
f 330/147/42 346/154/42 329/151/42
f 344/155/45 354/154/45 337/150/45
f 329/151/44 352/156/44 336/148/44
f 343/140/38 360/156/38 344/155/38
f 340/149/39 355/152/39 356/157/39
f 333/144/47 348/157/47 332/142/47
f 341/143/34 356/157/34 357/158/34
f 334/139/35 349/158/35 333/144/35
f 342/159/50 357/158/50 358/160/50
f 334/139/81 351/161/81 350/160/81
f 343/140/82 358/160/82 359/161/82
f 336/148/46 351/161/46 335/141/46
f 331/146/40 345/162/40 330/147/40
f 351/161/13 358/160/13 350/160/13
f 349/158/12 356/157/12 348/157/12
f 347/152/11 353/162/11 345/162/11
f 352/156/8 359/161/8 351/161/8
f 349/158/4 358/160/4 357/158/4
f 348/157/3 355/152/3 347/152/3
f 345/162/5 354/154/5 346/154/5
f 346/154/14 360/156/14 352/156/14
f 374/163/11 367/164/11 366/163/11
f 372/165/14 365/166/14 364/165/14
f 369/167/13 363/168/13 361/167/13
f 386/169/3 362/170/3 370/170/3
f 385/171/7 370/170/7 369/167/7
f 378/169/6 361/167/6 362/170/6
f 383/172/4 376/173/4 368/173/4
f 376/173/12 362/170/12 368/173/12
f 365/166/6 367/164/6 362/170/6
f 370/170/7 375/164/7 373/166/7
f 381/174/3 374/163/3 366/163/3
f 380/175/6 364/165/6 363/168/6
f 392/176/5 367/164/5 375/164/5
f 387/177/7 371/168/7 372/165/7
f 379/177/5 372/165/5 364/165/5
f 382/178/6 366/163/6 365/166/6
f 390/178/8 365/166/8 373/166/8
f 389/174/7 373/166/7 374/163/7
f 377/171/8 369/167/8 361/167/8
f 384/176/6 368/173/6 367/164/6
f 388/175/4 363/168/4 371/168/4
f 391/172/7 375/164/7 376/173/7
f 395/179/3 394/180/3 393/179/3
f 397/181/4 395/179/4 393/179/4
f 398/182/7 393/179/7 394/180/7
f 400/182/5 394/180/5 396/180/5
f 399/181/6 396/180/6 395/179/6
f 323/138/83 326/136/83 322/136/83
f 344/155/84 329/151/84 336/148/84
f 337/150/43 353/162/43 338/145/43
f 403/183/7 405/184/7 402/185/7
f 409/184/4 411/186/4 413/186/4
f 409/184/6 407/183/6 401/185/6
f 405/184/52 410/187/52 406/187/52
f 404/188/51 407/183/51 403/183/51
f 406/187/54 401/185/54 402/185/54
f 407/183/5 412/189/5 403/183/5
f 402/185/53 408/188/53 404/188/53
f 417/183/7 419/184/7 416/185/7
f 423/184/4 425/186/4 427/186/4
f 423/184/6 421/183/6 415/185/6
f 419/184/85 424/187/85 420/187/85
f 418/188/86 421/183/86 417/183/86
f 420/187/56 415/185/56 416/185/56
f 421/183/5 426/189/5 417/183/5
f 416/185/55 422/188/55 418/188/55
f 430/136/6 432/135/6 429/137/6
f 433/137/7 435/138/7 434/136/7
f 433/137/78 430/136/78 429/137/78
f 433/137/79 432/135/79 436/135/79
f 436/135/80 431/138/80 435/138/80
f 442/139/87 451/140/87 450/159/87
f 440/142/59 449/143/59 448/149/59
f 439/146/58 446/145/58 438/147/58
f 444/148/3 451/140/3 443/141/3
f 442/139/62 449/143/62 441/144/62
f 439/146/61 448/149/61 447/153/61
f 438/147/60 445/150/60 437/151/60
f 455/152/63 440/142/63 439/146/63
f 463/152/70 446/145/70 447/153/70
f 454/154/71 438/147/71 437/151/71
f 462/154/88 452/155/88 445/150/88
f 460/156/89 437/151/89 444/148/89
f 468/156/46 451/140/46 452/155/46
f 448/149/68 463/152/68 447/153/68
f 456/157/75 441/144/75 440/142/75
f 449/143/64 464/157/64 448/149/64
f 457/158/65 442/139/65 441/144/65
f 450/159/77 465/158/77 449/143/77
f 442/139/67 459/161/67 443/141/67
f 451/140/66 466/160/66 450/159/66
f 459/161/38 444/148/38 443/141/38
f 453/162/69 439/146/69 438/147/69
f 466/160/13 459/161/13 458/160/13
f 464/157/12 457/158/12 456/157/12
f 461/162/11 455/152/11 453/162/11
f 467/161/8 460/156/8 459/161/8
f 465/158/4 458/160/4 457/158/4
f 463/152/3 456/157/3 455/152/3
f 462/154/5 453/162/5 454/154/5
f 468/156/14 454/154/14 460/156/14
f 475/164/11 482/163/11 474/163/11
f 473/166/14 480/165/14 472/165/14
f 471/168/13 477/167/13 469/167/13
f 470/170/3 494/169/3 478/170/3
f 478/170/6 493/171/6 477/167/6
f 469/167/7 486/169/7 470/170/7
f 484/173/4 491/172/4 476/173/4
f 470/170/12 484/173/12 476/173/12
f 470/170/7 475/164/7 473/166/7
f 481/166/6 483/164/6 478/170/6
f 482/163/3 489/174/3 474/163/3
f 472/165/7 488/175/7 471/168/7
f 475/164/5 500/176/5 483/164/5
f 479/168/6 495/177/6 480/165/6
f 480/165/5 487/177/5 472/165/5
f 474/163/7 490/178/7 473/166/7
f 473/166/8 498/178/8 481/166/8
f 481/166/6 497/174/6 482/163/6
f 477/167/8 485/171/8 469/167/8
f 476/173/7 492/176/7 475/164/7
f 471/168/4 496/175/4 479/168/4
f 483/164/6 499/172/6 484/173/6
f 502/180/3 503/179/3 501/179/3
f 503/179/4 505/181/4 501/179/4
f 501/179/6 506/182/6 502/180/6
f 502/180/5 508/182/5 504/180/5
f 504/180/7 507/181/7 503/179/7
f 434/136/83 431/138/83 430/136/83
f 437/151/57 452/155/57 444/148/57
f 461/162/72 445/150/72 446/145/72
f 513/184/6 511/183/6 510/185/6
f 517/184/4 519/186/4 513/184/4
f 515/183/7 517/184/7 509/185/7
f 518/187/52 513/184/52 514/187/52
f 515/183/51 512/188/51 511/183/51
f 509/185/54 514/187/54 510/185/54
f 520/189/5 515/183/5 511/183/5
f 516/188/53 510/185/53 512/188/53
f 527/184/6 525/183/6 524/185/6
f 531/184/4 533/186/4 527/184/4
f 529/183/7 531/184/7 523/185/7
f 532/187/85 527/184/85 528/187/85
f 529/183/86 526/188/86 525/183/86
f 523/185/56 528/187/56 524/185/56
f 534/189/5 529/183/5 525/183/5
f 530/188/55 524/185/55 526/188/55
f 540/190/3 539/191/3 537/192/3
f 542/193/7 538/194/7 540/190/7
f 544/195/8 541/196/8 542/193/8
f 545/197/8 548/198/8 546/199/8
f 547/200/6 550/201/6 548/198/6
f 538/194/5 549/202/5 547/200/5
f 540/190/4 546/199/4 548/198/4
f 549/202/3 552/203/3 550/201/3
f 541/196/5 551/204/5 549/202/5
f 540/190/4 550/201/4 542/193/4
f 538/194/5 545/197/5 539/191/5
f 542/193/4 552/203/4 544/195/4
f 555/205/3 556/206/3 553/207/3
f 554/208/6 558/209/6 556/206/6
f 557/210/8 560/211/8 558/209/8
f 564/212/8 561/213/8 562/214/8
f 566/215/7 563/216/7 564/212/7
f 554/208/5 565/217/5 557/210/5
f 556/206/4 562/214/4 553/207/4
f 568/218/3 565/217/3 566/215/3
f 557/210/5 567/219/5 559/220/5
f 566/215/4 556/206/4 558/209/4
f 561/213/5 554/208/5 555/205/5
f 568/218/4 558/209/4 560/211/4
f 571/200/5 572/221/5 570/197/5
f 573/200/4 569/197/4 574/221/4
f 577/198/5 586/222/5 576/199/5
f 578/198/4 575/199/4 585/222/4
f 586/222/90 578/198/90 585/222/90
f 581/198/4 580/199/4 582/221/4
f 583/198/5 584/221/5 579/199/5
f 589/202/5 588/204/5 590/223/5
f 591/202/4 592/223/4 587/204/4
f 595/224/5 594/225/5 604/226/5
f 602/224/4 603/226/4 593/225/4
f 604/226/91 602/224/91 595/224/91
f 598/201/4 599/227/4 597/203/4
f 600/201/5 596/203/5 601/227/5
f 607/216/5 606/213/5 608/228/5
f 609/216/4 610/228/4 605/213/4
f 621/212/5 612/214/5 622/229/5
f 619/212/4 620/229/4 611/214/4
f 615/212/4 616/228/4 614/214/4
f 617/212/5 613/214/5 618/228/5
f 619/212/92 622/229/92 620/229/92
f 625/217/5 626/230/5 624/219/5
f 627/217/4 623/219/4 628/230/4
f 630/231/5 640/232/5 629/233/5
f 631/231/4 639/233/4 632/232/4
f 630/231/93 632/232/93 640/232/93
f 635/215/4 634/218/4 636/234/4
f 637/215/5 638/234/5 633/218/5
f 643/200/93 642/221/93 641/200/93
f 645/235/94 648/236/94 646/236/94
f 646/236/6 664/237/6 662/237/6
f 644/221/5 648/236/5 647/235/5
f 642/221/4 646/236/4 641/200/4
f 646/236/4 657/238/4 641/200/4
f 659/238/7 641/200/7 657/238/7
f 651/198/4 672/239/4 667/240/4
f 650/222/93 651/198/93 649/198/93
f 656/241/94 653/242/94 654/241/94
f 672/239/6 654/241/6 670/239/6
f 652/222/4 656/241/4 651/198/4
f 654/241/5 650/222/5 649/198/5
f 665/240/5 654/241/5 649/198/5
f 649/198/7 667/240/7 665/240/7
f 691/243/5 680/244/5 696/245/5
f 658/246/92 659/238/92 657/238/92
f 664/237/95 661/247/95 662/237/95
f 660/246/5 664/237/5 659/238/5
f 662/237/4 658/246/4 657/238/4
f 667/240/92 666/246/92 665/240/92
f 669/247/95 672/239/95 670/239/95
f 668/246/4 672/239/4 671/247/4
f 666/246/5 670/239/5 665/240/5
f 674/228/91 675/216/91 673/216/91
f 680/244/96 677/248/96 678/244/96
f 696/245/7 678/244/7 694/245/7
f 676/228/5 680/244/5 675/216/5
f 678/244/4 674/228/4 673/216/4
f 689/243/4 678/244/4 673/216/4
f 673/216/6 691/243/6 689/243/6
f 704/249/4 683/212/4 699/250/4
f 683/212/91 682/229/91 681/212/91
f 685/251/96 688/252/96 686/252/96
f 686/252/7 704/249/7 702/249/7
f 684/229/4 688/252/4 687/251/4
f 682/229/5 686/252/5 681/212/5
f 702/249/5 681/212/5 686/252/5
f 699/250/6 681/212/6 697/250/6
f 691/243/90 690/253/90 689/243/90
f 693/254/97 696/245/97 694/245/97
f 692/253/5 696/245/5 695/254/5
f 690/253/4 694/245/4 689/243/4
f 698/253/90 699/250/90 697/250/90
f 704/249/97 701/254/97 702/249/97
f 700/253/4 704/249/4 699/250/4
f 702/249/5 698/253/5 697/250/5
f 659/238/5 648/236/5 643/200/5
f 717/255/5 706/256/5 707/257/5
f 705/258/6 707/257/6 706/256/6
f 709/192/5 716/259/5 712/195/5
f 711/260/4 714/255/4 710/191/4
f 720/259/4 708/261/4 705/258/4
f 710/191/8 717/255/8 707/257/8
f 712/195/3 720/259/3 705/258/3
f 715/262/7 717/255/7 714/255/7
f 712/195/3 706/256/3 711/260/3
f 711/260/3 718/262/3 715/262/3
f 709/192/8 719/263/8 713/263/8
f 713/263/7 720/259/7 716/259/7
f 710/191/8 708/261/8 709/192/8
f 722/264/5 733/265/5 723/266/5
f 723/266/7 721/267/7 722/264/7
f 732/268/5 725/207/5 728/211/5
f 730/265/4 727/220/4 726/205/4
f 724/269/4 736/268/4 721/267/4
f 726/205/8 733/265/8 730/265/8
f 728/211/3 736/268/3 732/268/3
f 733/265/6 731/270/6 730/265/6
f 722/264/3 728/211/3 727/220/3
f 734/270/3 727/220/3 731/270/3
f 735/271/8 725/207/8 729/271/8
f 736/268/6 729/271/6 732/268/6
f 724/269/8 726/205/8 725/207/8
f 42/1/98 19/26/98 21/2/98
f 25/4/2 24/35/2 16/5/2
f 15/7/2 23/272/2 26/8/2
f 31/3/3 21/2/3 20/10/3
f 7/12/4 9/19/4 12/13/4
f 5/15/5 10/18/5 11/16/5
f 6/14/6 12/13/6 10/18/6
f 8/17/7 11/16/7 9/19/7
f 8/17/3 7/12/3 6/14/3
f 14/20/6 35/20/6 36/21/6
f 4/22/6 33/37/6 34/11/6
f 1/24/7 42/1/7 31/3/7
f 19/26/7 18/9/7 17/6/7
f 22/27/6 20/10/6 16/5/6
f 22/27/5 15/7/5 18/9/5
f 21/2/4 17/6/4 16/5/4
f 42/1/3 41/23/3 22/27/3
f 28/28/8 29/273/8 30/29/8
f 18/9/99 26/8/99 25/4/99
f 34/11/98 20/10/98 22/27/98
f 24/31/7 28/31/7 27/32/7
f 23/32/4 27/32/4 30/33/4
f 25/34/5 29/34/5 28/31/5
f 25/34/6 26/33/6 30/33/6
f 24/35/100 23/272/100 15/7/100
f 14/20/4 2/21/4 32/25/4
f 13/36/4 34/11/4 33/37/4
f 14/20/4 31/3/4 34/11/4
f 36/21/4 35/20/4 38/36/4
f 13/36/3 38/36/3 35/20/3
f 3/38/7 37/38/7 38/36/7
f 11/39/8 10/274/8 12/40/8
f 44/42/6 46/42/6 48/43/6
f 39/44/5 43/45/5 4/22/5
f 40/43/5 42/1/5 1/24/5
f 39/44/5 41/23/5 42/1/5
f 48/43/5 46/42/5 45/45/5
f 40/43/3 48/43/3 47/44/3
f 39/44/7 47/44/7 45/45/7
f 51/48/6 50/53/6 55/46/6
f 50/53/6 49/50/6 55/46/6
f 49/50/6 56/49/6 55/46/6
f 55/46/6 54/51/6 53/47/6
f 53/47/6 52/52/6 51/48/6
f 58/50/7 57/53/7 61/47/7
f 57/53/7 59/48/7 61/47/7
f 59/48/7 60/52/7 61/47/7
f 61/47/7 62/51/7 63/46/7
f 63/46/7 64/49/7 61/47/7
f 54/51/4 62/51/4 61/47/4
f 52/52/8 60/52/8 59/48/8
f 50/53/5 57/53/5 58/50/5
f 49/50/11 58/50/11 64/49/11
f 55/46/12 63/46/12 62/51/12
f 53/47/13 61/47/13 60/52/13
f 51/48/14 59/48/14 57/53/14
f 56/49/3 64/49/3 63/46/3
f 65/54/6 67/63/6 66/55/6
f 71/61/6 70/62/6 69/58/6
f 70/62/6 73/59/6 69/58/6
f 73/59/6 74/60/6 72/57/6
f 72/57/6 68/56/6 66/55/6
f 66/55/6 69/58/6 72/57/6
f 76/55/7 77/63/7 75/54/7
f 83/59/7 80/62/7 79/58/7
f 80/62/7 81/61/7 79/58/7
f 79/58/7 76/55/7 82/57/7
f 83/59/7 79/58/7 82/57/7
f 76/55/7 78/56/7 82/57/7
f 74/60/15 84/60/15 82/57/15
f 69/58/16 79/58/16 81/61/16
f 73/59/17 83/59/17 84/60/17
f 68/56/18 78/56/18 75/54/18
f 66/55/19 76/55/19 79/58/19
f 70/62/8 80/62/8 83/59/8
f 67/63/20 77/63/20 76/55/20
f 68/56/21 72/57/21 82/57/21
f 71/61/22 81/61/22 80/62/22
f 86/55/7 87/63/7 85/54/7
f 93/59/7 90/62/7 89/58/7
f 90/62/7 91/61/7 89/58/7
f 89/58/7 86/55/7 92/57/7
f 93/59/7 89/58/7 92/57/7
f 86/55/7 88/56/7 92/57/7
f 95/54/6 97/63/6 96/55/6
f 101/61/6 100/62/6 99/58/6
f 100/62/6 103/59/6 99/58/6
f 103/59/6 104/60/6 102/57/6
f 102/57/6 98/56/6 96/55/6
f 96/55/6 99/58/6 102/57/6
f 102/57/15 104/60/15 94/60/15
f 101/61/16 99/58/16 89/58/16
f 104/60/17 103/59/17 93/59/17
f 95/54/18 98/56/18 88/56/18
f 99/58/19 96/55/19 86/55/19
f 103/59/8 100/62/8 90/62/8
f 96/55/20 97/63/20 87/63/20
f 98/56/21 102/57/21 92/57/21
f 100/62/101 101/61/101 91/61/101
f 106/64/7 107/67/7 108/65/7
f 112/65/6 111/67/6 110/64/6
f 109/66/24 110/64/24 106/64/24
f 109/66/25 105/66/25 108/65/25
f 112/65/26 108/65/26 107/67/26
f 118/68/84 119/78/84 127/69/84
f 116/71/28 117/79/28 125/72/28
f 114/74/29 115/80/29 123/75/29
f 120/77/3 128/86/3 127/69/3
f 118/68/30 126/70/30 125/72/30
f 115/80/31 116/71/31 124/73/31
f 114/74/32 122/76/32 121/81/32
f 131/83/33 132/88/33 116/71/33
f 123/75/34 139/83/34 137/84/34
f 130/85/35 129/84/35 114/74/35
f 138/85/82 144/87/82 128/86/82
f 136/87/81 130/85/81 113/82/81
f 144/87/38 143/90/38 127/69/38
f 124/73/39 140/88/39 139/83/39
f 132/88/40 133/89/40 117/79/40
f 125/72/41 141/89/41 140/88/41
f 133/89/42 134/91/42 118/68/42
f 126/70/43 142/91/43 141/89/43
f 118/68/102 134/91/102 135/90/102
f 127/69/103 143/90/103 142/91/103
f 135/90/46 136/87/46 120/77/46
f 129/84/47 131/83/47 115/80/47
f 142/91/14 143/90/14 135/90/14
f 140/88/11 141/89/11 133/89/11
f 137/84/12 139/83/12 131/83/12
f 143/90/8 144/87/8 136/87/8
f 133/89/5 141/89/5 142/91/5
f 139/83/3 140/88/3 132/88/3
f 138/85/4 137/84/4 129/84/4
f 144/87/13 138/85/13 130/85/13
f 151/92/12 159/92/12 158/93/12
f 149/94/13 157/94/13 156/95/13
f 147/96/14 155/96/14 153/97/14
f 146/98/3 162/99/3 170/99/3
f 154/98/7 170/99/7 169/100/7
f 145/97/6 161/100/6 162/99/6
f 160/101/5 175/102/5 167/102/5
f 146/98/11 154/98/11 160/101/11
f 147/96/6 145/97/6 151/92/6
f 145/97/6 146/98/6 151/92/6
f 146/98/6 152/101/6 151/92/6
f 151/92/6 150/93/6 149/94/6
f 149/94/6 148/95/6 147/96/6
f 154/98/7 153/97/7 157/94/7
f 153/97/7 155/96/7 157/94/7
f 155/96/7 156/95/7 157/94/7
f 157/94/7 158/93/7 159/92/7
f 159/92/7 160/101/7 157/94/7
f 158/93/3 173/103/3 165/103/3
f 148/95/6 163/106/6 164/104/6
f 151/92/4 168/105/4 176/105/4
f 155/96/7 172/104/7 171/106/7
f 156/95/4 171/106/4 163/106/4
f 150/93/6 165/103/6 166/107/6
f 149/94/8 166/107/8 174/107/8
f 157/94/7 174/107/7 173/103/7
f 153/97/8 169/100/8 161/100/8
f 152/101/6 167/102/6 168/105/6
f 147/96/5 164/104/5 172/104/5
f 159/92/7 176/105/7 175/102/7
f 178/108/3 180/108/3 179/109/3
f 179/109/5 183/110/5 181/110/5
f 177/109/7 181/110/7 182/111/7
f 178/108/4 182/111/4 184/111/4
f 180/108/6 184/111/6 183/110/6
f 110/64/48 111/67/48 107/67/48
f 113/82/104 121/81/104 128/86/104
f 137/84/50 138/85/50 121/81/50
f 190/116/7 189/112/7 186/114/7
f 189/112/105 195/115/105 187/113/105
f 195/115/105 196/118/105 187/113/105
f 187/113/7 188/117/7 186/114/7
f 193/112/5 197/115/5 195/115/5
f 192/117/6 191/113/6 185/114/6
f 191/113/106 198/118/106 193/112/106
f 198/118/106 197/115/106 193/112/106
f 193/112/6 194/116/6 185/114/6
f 194/116/51 193/112/51 189/112/51
f 191/113/52 192/117/52 188/117/52
f 185/114/53 194/116/53 190/116/53
f 196/118/4 198/118/4 191/113/4
f 192/117/56 185/114/56 186/114/56
f 204/116/7 203/112/7 200/114/7
f 203/112/105 209/115/105 201/113/105
f 209/115/105 210/118/105 201/113/105
f 201/113/7 202/117/7 200/114/7
f 207/112/5 211/115/5 209/115/5
f 206/117/6 205/113/6 199/114/6
f 205/113/106 212/118/106 207/112/106
f 212/118/106 211/115/106 207/112/106
f 207/112/6 208/116/6 199/114/6
f 208/116/51 207/112/51 203/112/51
f 205/113/52 206/117/52 202/117/52
f 199/114/53 208/116/53 204/116/53
f 210/118/4 212/118/4 205/113/4
f 206/117/54 199/114/54 200/114/54
f 216/65/6 215/67/6 214/64/6
f 218/64/7 219/67/7 220/65/7
f 214/64/24 218/64/24 217/66/24
f 216/65/25 213/66/25 217/66/25
f 215/67/26 216/65/26 220/65/26
f 226/68/107 234/70/107 235/69/107
f 224/71/58 232/73/58 233/72/58
f 222/74/59 230/76/59 231/75/59
f 235/69/3 236/86/3 228/77/3
f 233/72/60 234/70/60 226/68/60
f 223/80/61 231/75/61 232/73/61
f 229/81/62 230/76/62 222/74/62
f 224/71/63 240/88/63 239/83/63
f 231/75/64 230/76/64 245/84/64
f 222/74/65 237/84/65 238/85/65
f 236/86/108 252/87/108 246/85/108
f 221/82/109 238/85/109 244/87/109
f 235/69/46 251/90/46 252/87/46
f 232/73/68 231/75/68 247/83/68
f 225/79/69 241/89/69 240/88/69
f 233/72/70 232/73/70 248/88/70
f 226/68/71 242/91/71 241/89/71
f 234/70/72 233/72/72 249/89/72
f 226/68/89 227/78/89 243/90/89
f 235/69/88 234/70/88 250/91/88
f 228/77/38 244/87/38 243/90/38
f 223/80/75 239/83/75 237/84/75
f 243/90/14 251/90/14 250/91/14
f 241/89/11 249/89/11 248/88/11
f 239/83/12 247/83/12 245/84/12
f 244/87/8 252/87/8 251/90/8
f 242/91/5 250/91/5 249/89/5
f 240/88/3 248/88/3 247/83/3
f 237/84/4 245/84/4 246/85/4
f 238/85/13 246/85/13 252/87/13
f 266/119/12 267/120/12 259/120/12
f 264/121/13 265/122/13 257/122/13
f 261/123/14 263/124/14 255/124/14
f 278/125/3 270/125/3 254/126/3
f 277/127/6 278/125/6 262/126/6
f 270/125/7 269/127/7 253/123/7
f 275/128/5 283/128/5 268/129/5
f 268/129/11 262/126/11 254/126/11
f 254/126/7 253/123/7 257/122/7
f 253/123/7 255/124/7 257/122/7
f 255/124/7 256/121/7 257/122/7
f 257/122/7 258/119/7 259/120/7
f 259/120/7 260/129/7 257/122/7
f 263/124/6 261/123/6 267/120/6
f 261/123/6 262/126/6 267/120/6
f 262/126/6 268/129/6 267/120/6
f 267/120/6 266/119/6 265/122/6
f 265/122/6 264/121/6 263/124/6
f 273/130/3 281/130/3 266/119/3
f 272/131/7 271/133/7 256/121/7
f 284/132/4 276/132/4 259/120/4
f 279/133/6 280/131/6 263/124/6
f 271/133/4 279/133/4 264/121/4
f 274/134/7 273/130/7 258/119/7
f 282/134/8 274/134/8 257/122/8
f 281/130/6 282/134/6 265/122/6
f 269/127/8 277/127/8 261/123/8
f 276/132/7 275/128/7 260/129/7
f 280/131/5 272/131/5 255/124/5
f 283/128/6 284/132/6 267/120/6
f 287/109/3 288/108/3 286/108/3
f 289/110/5 291/110/5 287/109/5
f 290/111/6 289/110/6 285/109/6
f 292/111/4 290/111/4 286/108/4
f 291/110/7 292/111/7 288/108/7
f 215/67/48 219/67/48 218/64/48
f 236/86/87 229/81/87 221/82/87
f 229/81/77 246/85/77 245/84/77
f 303/115/110 297/112/110 304/118/110
f 297/112/6 298/116/6 294/114/6
f 304/118/110 297/112/110 295/113/110
f 294/114/6 296/117/6 295/113/6
f 301/112/5 297/112/5 303/115/5
f 306/118/111 299/113/111 305/115/111
f 299/113/7 300/117/7 293/114/7
f 305/115/111 299/113/111 301/112/111
f 293/114/7 302/116/7 301/112/7
f 297/112/51 301/112/51 302/116/51
f 296/117/52 300/117/52 299/113/52
f 298/116/55 302/116/55 293/114/55
f 299/113/4 306/118/4 304/118/4
f 294/114/56 293/114/56 300/117/56
f 317/115/110 311/112/110 318/118/110
f 311/112/6 312/116/6 308/114/6
f 318/118/110 311/112/110 309/113/110
f 308/114/6 310/117/6 309/113/6
f 315/112/5 311/112/5 317/115/5
f 320/118/111 313/113/111 319/115/111
f 313/113/7 314/117/7 307/114/7
f 319/115/111 313/113/111 315/112/111
f 307/114/7 316/116/7 315/112/7
f 311/112/51 315/112/51 316/116/51
f 310/117/52 314/117/52 313/113/52
f 312/116/53 316/116/53 307/114/53
f 313/113/4 320/118/4 318/118/4
f 308/114/54 307/114/54 314/117/54
f 324/135/7 323/138/7 322/136/7
f 325/137/6 326/136/6 327/138/6
f 322/136/78 326/136/78 325/137/78
f 324/135/79 321/137/79 325/137/79
f 323/138/80 324/135/80 328/135/80
f 334/139/104 342/159/104 343/140/104
f 332/142/29 340/149/29 341/143/29
f 338/145/28 339/153/28 331/146/28
f 343/140/3 344/155/3 336/148/3
f 341/143/32 342/159/32 334/139/32
f 331/146/31 339/153/31 340/149/31
f 337/150/30 338/145/30 330/147/30
f 332/142/33 348/157/33 347/152/33
f 338/145/41 353/162/41 355/152/41
f 330/147/42 345/162/42 346/154/42
f 344/155/103 360/156/103 354/154/103
f 329/151/102 346/154/102 352/156/102
f 343/140/38 359/161/38 360/156/38
f 340/149/39 339/153/39 355/152/39
f 333/144/47 349/158/47 348/157/47
f 341/143/34 340/149/34 356/157/34
f 334/139/35 350/160/35 349/158/35
f 342/159/50 341/143/50 357/158/50
f 334/139/37 335/141/37 351/161/37
f 343/140/36 342/159/36 358/160/36
f 336/148/46 352/156/46 351/161/46
f 331/146/40 347/152/40 345/162/40
f 351/161/13 359/161/13 358/160/13
f 349/158/12 357/158/12 356/157/12
f 347/152/11 355/152/11 353/162/11
f 352/156/8 360/156/8 359/161/8
f 349/158/4 350/160/4 358/160/4
f 348/157/3 356/157/3 355/152/3
f 345/162/5 353/162/5 354/154/5
f 346/154/14 354/154/14 360/156/14
f 374/163/11 375/164/11 367/164/11
f 372/165/14 373/166/14 365/166/14
f 369/167/13 371/168/13 363/168/13
f 386/169/3 378/169/3 362/170/3
f 385/171/7 386/169/7 370/170/7
f 378/169/6 377/171/6 361/167/6
f 383/172/4 391/172/4 376/173/4
f 376/173/12 370/170/12 362/170/12
f 362/170/6 361/167/6 365/166/6
f 361/167/6 363/168/6 365/166/6
f 363/168/6 364/165/6 365/166/6
f 365/166/6 366/163/6 367/164/6
f 367/164/6 368/173/6 362/170/6
f 371/168/7 369/167/7 370/170/7
f 370/170/7 376/173/7 375/164/7
f 375/164/7 374/163/7 373/166/7
f 373/166/7 372/165/7 371/168/7
f 371/168/7 370/170/7 373/166/7
f 381/174/3 389/174/3 374/163/3
f 380/175/6 379/177/6 364/165/6
f 392/176/5 384/176/5 367/164/5
f 387/177/7 388/175/7 371/168/7
f 379/177/5 387/177/5 372/165/5
f 382/178/6 381/174/6 366/163/6
f 390/178/8 382/178/8 365/166/8
f 389/174/7 390/178/7 373/166/7
f 377/171/8 385/171/8 369/167/8
f 384/176/6 383/172/6 368/173/6
f 388/175/4 380/175/4 363/168/4
f 391/172/7 392/176/7 375/164/7
f 395/179/3 396/180/3 394/180/3
f 397/181/4 399/181/4 395/179/4
f 398/182/7 397/181/7 393/179/7
f 400/182/5 398/182/5 394/180/5
f 399/181/6 400/182/6 396/180/6
f 323/138/83 327/138/83 326/136/83
f 344/155/27 337/150/27 329/151/27
f 337/150/43 354/154/43 353/162/43
f 411/186/105 405/184/105 412/189/105
f 405/184/7 406/187/7 402/185/7
f 412/189/105 405/184/105 403/183/105
f 402/185/7 404/188/7 403/183/7
f 409/184/4 405/184/4 411/186/4
f 414/189/106 407/183/106 413/186/106
f 407/183/6 408/188/6 401/185/6
f 413/186/106 407/183/106 409/184/106
f 401/185/6 410/187/6 409/184/6
f 405/184/52 409/184/52 410/187/52
f 404/188/51 408/188/51 407/183/51
f 406/187/56 410/187/56 401/185/56
f 407/183/5 414/189/5 412/189/5
f 402/185/53 401/185/53 408/188/53
f 425/186/105 419/184/105 426/189/105
f 419/184/7 420/187/7 416/185/7
f 426/189/105 419/184/105 417/183/105
f 416/185/7 418/188/7 417/183/7
f 423/184/4 419/184/4 425/186/4
f 428/189/106 421/183/106 427/186/106
f 421/183/6 422/188/6 415/185/6
f 427/186/106 421/183/106 423/184/106
f 415/185/6 424/187/6 423/184/6
f 419/184/52 423/184/52 424/187/52
f 418/188/51 422/188/51 421/183/51
f 420/187/54 424/187/54 415/185/54
f 421/183/5 428/189/5 426/189/5
f 416/185/53 415/185/53 422/188/53
f 430/136/6 431/138/6 432/135/6
f 433/137/7 436/135/7 435/138/7
f 433/137/78 434/136/78 430/136/78
f 433/137/79 429/137/79 432/135/79
f 436/135/80 432/135/80 431/138/80
f 442/139/76 443/141/76 451/140/76
f 440/142/59 441/144/59 449/143/59
f 439/146/58 447/153/58 446/145/58
f 444/148/3 452/155/3 451/140/3
f 442/139/62 450/159/62 449/143/62
f 439/146/61 440/142/61 448/149/61
f 438/147/60 446/145/60 445/150/60
f 455/152/63 456/157/63 440/142/63
f 463/152/70 461/162/70 446/145/70
f 454/154/71 453/162/71 438/147/71
f 462/154/74 468/156/74 452/155/74
f 460/156/73 454/154/73 437/151/73
f 468/156/46 467/161/46 451/140/46
f 448/149/68 464/157/68 463/152/68
f 456/157/75 457/158/75 441/144/75
f 449/143/64 465/158/64 464/157/64
f 457/158/65 458/160/65 442/139/65
f 450/159/77 466/160/77 465/158/77
f 442/139/109 458/160/109 459/161/109
f 451/140/108 467/161/108 466/160/108
f 459/161/38 460/156/38 444/148/38
f 453/162/69 455/152/69 439/146/69
f 466/160/13 467/161/13 459/161/13
f 464/157/12 465/158/12 457/158/12
f 461/162/11 463/152/11 455/152/11
f 467/161/8 468/156/8 460/156/8
f 465/158/4 466/160/4 458/160/4
f 463/152/3 464/157/3 456/157/3
f 462/154/5 461/162/5 453/162/5
f 468/156/14 462/154/14 454/154/14
f 475/164/11 483/164/11 482/163/11
f 473/166/14 481/166/14 480/165/14
f 471/168/13 479/168/13 477/167/13
f 470/170/3 486/169/3 494/169/3
f 478/170/6 494/169/6 493/171/6
f 469/167/7 485/171/7 486/169/7
f 484/173/4 499/172/4 491/172/4
f 470/170/12 478/170/12 484/173/12
f 471/168/7 469/167/7 470/170/7
f 470/170/7 476/173/7 475/164/7
f 475/164/7 474/163/7 473/166/7
f 473/166/7 472/165/7 471/168/7
f 471/168/7 470/170/7 473/166/7
f 478/170/6 477/167/6 481/166/6
f 477/167/6 479/168/6 481/166/6
f 479/168/6 480/165/6 481/166/6
f 481/166/6 482/163/6 483/164/6
f 483/164/6 484/173/6 478/170/6
f 482/163/3 497/174/3 489/174/3
f 472/165/7 487/177/7 488/175/7
f 475/164/5 492/176/5 500/176/5
f 479/168/6 496/175/6 495/177/6
f 480/165/5 495/177/5 487/177/5
f 474/163/7 489/174/7 490/178/7
f 473/166/8 490/178/8 498/178/8
f 481/166/6 498/178/6 497/174/6
f 477/167/8 493/171/8 485/171/8
f 476/173/7 491/172/7 492/176/7
f 471/168/4 488/175/4 496/175/4
f 483/164/6 500/176/6 499/172/6
f 502/180/3 504/180/3 503/179/3
f 503/179/4 507/181/4 505/181/4
f 501/179/6 505/181/6 506/182/6
f 502/180/5 506/182/5 508/182/5
f 504/180/7 508/182/7 507/181/7
f 434/136/83 435/138/83 431/138/83
f 437/151/107 445/150/107 452/155/107
f 461/162/72 462/154/72 445/150/72
f 514/187/6 513/184/6 510/185/6
f 513/184/110 519/186/110 511/183/110
f 519/186/110 520/189/110 511/183/110
f 511/183/6 512/188/6 510/185/6
f 517/184/4 521/186/4 519/186/4
f 516/188/7 515/183/7 509/185/7
f 515/183/111 522/189/111 517/184/111
f 522/189/111 521/186/111 517/184/111
f 517/184/7 518/187/7 509/185/7
f 518/187/85 517/184/85 513/184/85
f 515/183/86 516/188/86 512/188/86
f 509/185/56 518/187/56 514/187/56
f 520/189/5 522/189/5 515/183/5
f 516/188/55 509/185/55 510/185/55
f 528/187/6 527/184/6 524/185/6
f 527/184/110 533/186/110 525/183/110
f 533/186/110 534/189/110 525/183/110
f 525/183/6 526/188/6 524/185/6
f 531/184/4 535/186/4 533/186/4
f 530/188/7 529/183/7 523/185/7
f 529/183/111 536/189/111 531/184/111
f 536/189/111 535/186/111 531/184/111
f 531/184/7 532/187/7 523/185/7
f 532/187/52 531/184/52 527/184/52
f 529/183/51 530/188/51 526/188/51
f 523/185/54 532/187/54 528/187/54
f 534/189/5 536/189/5 529/183/5
f 530/188/53 523/185/53 524/185/53
f 540/190/3 538/194/3 539/191/3
f 542/193/7 541/196/7 538/194/7
f 544/195/8 543/260/8 541/196/8
f 545/197/8 547/200/8 548/198/8
f 547/200/6 549/202/6 550/201/6
f 538/194/5 541/196/5 549/202/5
f 540/190/4 537/192/4 546/199/4
f 549/202/3 551/204/3 552/203/3
f 541/196/5 543/260/5 551/204/5
f 540/190/4 548/198/4 550/201/4
f 538/194/5 547/200/5 545/197/5
f 542/193/4 550/201/4 552/203/4
f 555/205/3 554/208/3 556/206/3
f 554/208/6 557/210/6 558/209/6
f 557/210/8 559/220/8 560/211/8
f 564/212/8 563/216/8 561/213/8
f 566/215/7 565/217/7 563/216/7
f 554/208/5 563/216/5 565/217/5
f 556/206/4 564/212/4 562/214/4
f 568/218/3 567/219/3 565/217/3
f 557/210/5 565/217/5 567/219/5
f 566/215/4 564/212/4 556/206/4
f 561/213/5 563/216/5 554/208/5
f 568/218/4 566/215/4 558/209/4
f 586/222/90 577/198/90 578/198/90
f 604/226/91 603/226/91 602/224/91
f 619/212/92 621/212/92 622/229/92
f 630/231/93 631/231/93 632/232/93
f 643/200/93 644/221/93 642/221/93
f 645/235/94 647/235/94 648/236/94
f 646/236/6 648/236/6 664/237/6
f 644/221/5 643/200/5 648/236/5
f 642/221/4 645/235/4 646/236/4
f 646/236/4 662/237/4 657/238/4
f 659/238/7 643/200/7 641/200/7
f 651/198/4 656/241/4 672/239/4
f 650/222/93 652/222/93 651/198/93
f 656/241/94 655/242/94 653/242/94
f 672/239/6 656/241/6 654/241/6
f 652/222/4 655/242/4 656/241/4
f 654/241/5 653/242/5 650/222/5
f 665/240/5 670/239/5 654/241/5
f 649/198/7 651/198/7 667/240/7
f 691/243/5 675/216/5 680/244/5
f 658/246/92 660/246/92 659/238/92
f 664/237/95 663/247/95 661/247/95
f 660/246/5 663/247/5 664/237/5
f 662/237/4 661/247/4 658/246/4
f 667/240/92 668/246/92 666/246/92
f 669/247/95 671/247/95 672/239/95
f 668/246/4 667/240/4 672/239/4
f 666/246/5 669/247/5 670/239/5
f 674/228/91 676/228/91 675/216/91
f 680/244/96 679/248/96 677/248/96
f 696/245/7 680/244/7 678/244/7
f 676/228/5 679/248/5 680/244/5
f 678/244/4 677/248/4 674/228/4
f 689/243/4 694/245/4 678/244/4
f 673/216/6 675/216/6 691/243/6
f 704/249/4 688/252/4 683/212/4
f 683/212/91 684/229/91 682/229/91
f 685/251/96 687/251/96 688/252/96
f 686/252/7 688/252/7 704/249/7
f 684/229/4 683/212/4 688/252/4
f 682/229/5 685/251/5 686/252/5
f 702/249/5 697/250/5 681/212/5
f 699/250/6 683/212/6 681/212/6
f 691/243/90 692/253/90 690/253/90
f 693/254/97 695/254/97 696/245/97
f 692/253/5 691/243/5 696/245/5
f 690/253/4 693/254/4 694/245/4
f 698/253/90 700/253/90 699/250/90
f 704/249/97 703/254/97 701/254/97
f 700/253/4 703/254/4 704/249/4
f 702/249/5 701/254/5 698/253/5
f 659/238/5 664/237/5 648/236/5
f 717/255/5 718/262/5 706/256/5
f 705/258/6 708/261/6 707/257/6
f 709/192/5 713/263/5 716/259/5
f 711/260/4 715/262/4 714/255/4
f 720/259/4 719/263/4 708/261/4
f 710/191/8 714/255/8 717/255/8
f 712/195/3 716/259/3 720/259/3
f 715/262/7 718/262/7 717/255/7
f 712/195/3 705/258/3 706/256/3
f 711/260/3 706/256/3 718/262/3
f 709/192/8 708/261/8 719/263/8
f 713/263/7 719/263/7 720/259/7
f 710/191/8 707/257/8 708/261/8
f 722/264/5 734/270/5 733/265/5
f 723/266/7 724/269/7 721/267/7
f 732/268/5 729/271/5 725/207/5
f 730/265/4 731/270/4 727/220/4
f 724/269/4 735/271/4 736/268/4
f 726/205/8 723/266/8 733/265/8
f 728/211/3 721/267/3 736/268/3
f 733/265/6 734/270/6 731/270/6
f 722/264/3 721/267/3 728/211/3
f 734/270/3 722/264/3 727/220/3
f 735/271/8 724/269/8 725/207/8
f 736/268/6 735/271/6 729/271/6
f 724/269/8 723/266/8 726/205/8
o Prop_Dumpster_Top_Left_01
v -0.019523 1.180506 0.576519
v -0.019523 1.570272 -0.585523
v -0.743749 1.180506 0.576519
v -0.743749 1.570272 -0.585523
v -0.002984 1.195282 0.597878
v -0.002984 1.594939 -0.593653
v -0.760288 1.195282 0.597878
v -0.760288 1.594939 -0.593653
v -0.036877 1.205250 0.568160
v -0.036877 1.585719 -0.566166
v -0.725031 1.205250 0.568160
v -0.725031 1.585719 -0.566166
v -0.151709 1.603124 -0.508797
v -0.151709 1.256683 0.522911
v -0.197065 1.256683 0.522911
v -0.197065 1.603124 -0.508797
v -0.703776 1.603124 -0.508797
v -0.703776 1.256683 0.522911
v -0.058131 1.603124 -0.508797
v -0.058131 1.256683 0.522911
v -0.585855 1.205250 0.568160
v -0.588944 1.205250 0.568160
v -0.448224 1.205250 0.568160
v -0.451314 1.205250 0.568160
v -0.310594 1.205250 0.568160
v -0.313683 1.205250 0.568160
v -0.172963 1.205250 0.568160
v -0.176052 1.205250 0.568160
v -0.176052 1.585719 -0.566166
v -0.172963 1.585719 -0.566166
v -0.313683 1.585719 -0.566166
v -0.310594 1.585719 -0.566166
v -0.451314 1.585719 -0.566166
v -0.448224 1.585719 -0.566166
v -0.588944 1.585719 -0.566166
v -0.585855 1.585719 -0.566166
v -0.334696 1.603124 -0.508797
v -0.334696 1.256683 0.522911
v -0.289581 1.256683 0.522911
v -0.289581 1.603124 -0.508797
v -0.472327 1.603124 -0.508797
v -0.472327 1.256683 0.522911
v -0.427211 1.256683 0.522911
v -0.427211 1.603124 -0.508797
v -0.610199 1.603124 -0.508797
v -0.610199 1.256683 0.522911
v -0.564842 1.256683 0.522911
v -0.564842 1.603124 -0.508797
v -0.036877 1.398764 -0.008779
v -0.172963 1.398764 -0.008779
v -0.151709 1.450217 0.008479
v -0.058131 1.450217 0.008479
v -0.176052 1.398764 -0.008779
v -0.289581 1.450217 0.008479
v -0.310594 1.398764 -0.008779
v -0.197065 1.450217 0.008479
v -0.427211 1.450217 0.008479
v -0.313683 1.398764 -0.008779
v -0.334696 1.450217 0.008479
v -0.448224 1.398764 -0.008779
v -0.564842 1.450217 0.008479
v -0.472327 1.450217 0.008479
v -0.451314 1.398764 -0.008779
v -0.585855 1.398764 -0.008779
v -0.725031 1.398764 -0.008779
v -0.610199 1.450217 0.008479
v -0.703776 1.450217 0.008479
v -0.588944 1.398764 -0.008779
v -0.002984 1.175560 0.591263
v -0.002984 1.575218 -0.600268
v -0.760288 1.175560 0.591263
v -0.760288 1.575218 -0.600268
v -0.035422 1.205776 0.556615
v -0.035422 1.578430 -0.554408
v -0.727850 1.205776 0.556615
v -0.727850 1.578430 -0.554408
v -0.093805 1.604560 -0.622335
v -0.141228 1.604560 -0.622335
v -0.141228 1.584839 -0.628950
v -0.093805 1.584839 -0.628950
v -0.622044 1.604560 -0.622335
v -0.669467 1.604560 -0.622335
v -0.669467 1.584839 -0.628950
v -0.622044 1.584839 -0.628950
v -0.093805 1.594939 -0.593653
v -0.141228 1.594939 -0.593653
v -0.622044 1.594939 -0.593653
v -0.669467 1.594939 -0.593653
v -0.141228 1.575218 -0.600268
v -0.093805 1.575218 -0.600268
v -0.669467 1.575218 -0.600268
v -0.622044 1.575218 -0.600268
vn -0.0000 -0.9673 0.2536
vn 1.0000 -0.0000 -0.0000
vn -0.0000 -0.3180 0.9481
vn -1.0000 -0.0000 -0.0000
vn -0.0000 0.3180 -0.9481
vn -0.0000 0.9481 0.3180
vn -0.0000 0.9360 0.3521
vn -0.9325 0.3381 0.1272
vn -0.0000 0.6605 0.7508
vn 0.9325 0.3465 0.1024
vn -0.0000 0.9569 -0.2903
vn 0.9311 0.3499 0.1034
vn -0.9311 0.3415 0.1285
vn -0.8530 0.4947 0.1659
vn 0.8505 0.4986 0.1672
vn -0.0000 0.9590 0.2835
vn 0.8532 0.4945 0.1659
vn -0.8557 0.4906 0.1646
vn -0.0000 -0.9481 -0.3180
vn 0.7426 -0.6350 -0.2130
vn -0.0000 -0.6188 -0.7856
vn -0.7426 -0.6350 -0.2130
vn -0.8532 0.4945 0.1659
vn 0.8557 0.4906 0.1646
vn 0.8530 0.4947 0.1659
vn -0.8505 0.4986 0.1672
vn -0.9311 0.3499 0.1034
vn 0.9311 0.3415 0.1285
vn 0.9325 0.3381 0.1272
vn -0.9325 0.3465 0.1024
vt 0.702675 0.701112
vt 0.701605 0.702619
vt 0.701581 0.701112
vt 0.702700 0.628190
vt 0.702700 0.705669
vt 0.702700 0.631834
vt 0.701556 0.631834
vt 0.701556 0.628190
vt 0.701556 0.705669
vt 0.701556 0.702026
vt 0.702700 0.702026
vt 0.701641 0.678932
vt 0.701783 0.643177
vt 0.701783 0.678932
vt 0.702059 0.678932
vt 0.702199 0.643177
vt 0.702199 0.678932
vt 0.702267 0.678932
vt 0.702407 0.643177
vt 0.702407 0.678932
vt 0.702476 0.678932
vt 0.702617 0.643177
vt 0.702617 0.678932
vt 0.701851 0.678932
vt 0.701991 0.643177
vt 0.701991 0.678932
vt 0.702027 0.669426
vt 0.702059 0.643177
vt 0.701819 0.633676
vt 0.701851 0.643177
vt 0.702231 0.669426
vt 0.702199 0.707181
vt 0.702231 0.703966
vt 0.702059 0.707181
vt 0.701815 0.669426
vt 0.701783 0.707181
vt 0.702231 0.633676
vt 0.702027 0.633676
vt 0.702649 0.669426
vt 0.702617 0.707181
vt 0.702236 0.669426
vt 0.702267 0.643177
vt 0.702236 0.703966
vt 0.702407 0.707181
vt 0.702439 0.703966
vt 0.701609 0.669426
vt 0.701641 0.643177
vt 0.701819 0.669426
vt 0.702236 0.633676
vt 0.702439 0.669426
vt 0.701609 0.703966
vt 0.701815 0.703966
vt 0.702023 0.669426
vt 0.701991 0.707181
vt 0.702444 0.703966
vt 0.702649 0.703966
vt 0.701815 0.633676
vt 0.701609 0.633676
vt 0.702649 0.633676
vt 0.702476 0.643177
vt 0.702444 0.633676
vt 0.702444 0.669426
vt 0.702023 0.703966
vt 0.701851 0.707181
vt 0.702476 0.707181
vt 0.702439 0.633676
vt 0.702267 0.707181
vt 0.702027 0.703966
vt 0.702023 0.633676
vt 0.701819 0.703966
vt 0.701641 0.707181
vt 0.702675 0.629104
vt 0.701581 0.629104
vt 0.702651 0.633773
vt 0.701605 0.633773
vt 0.702651 0.702619
vt 0.587564 0.645652
vt 0.592689 0.659589
vt 0.586383 0.674221
vt 0.591507 0.688157
s 0
usemtl Texture_Map
f 738/275/112 812/276/112 740/277/112
f 805/278/113 742/279/113 741/280/113
f 805/278/114 743/281/114 807/282/114
f 807/282/115 744/283/115 808/284/115
f 808/284/116 742/279/116 806/285/116
f 744/283/117 741/280/117 742/279/117
f 803/286/118 782/287/118 802/288/118
f 793/289/118 774/290/118 795/291/118
f 790/292/118 751/293/118 792/294/118
f 787/295/118 756/296/118 788/297/118
f 797/298/118 778/299/118 798/300/118
f 796/301/119 779/302/119 793/289/119
f 757/303/120 778/299/120 783/304/120
f 794/305/121 773/306/121 795/291/121
f 767/307/122 780/308/122 773/306/122
f 804/309/123 781/310/123 802/288/123
f 762/311/120 779/302/120 759/312/120
f 785/313/123 755/314/123 788/297/123
f 791/315/119 775/316/119 790/292/119
f 768/317/122 752/318/122 765/319/122
f 801/320/124 754/321/124 803/286/124
f 800/322/119 783/304/119 797/298/119
f 761/323/120 751/293/120 775/316/120
f 789/324/121 752/318/121 792/294/121
f 748/325/122 781/310/122 771/326/122
f 799/327/121 777/328/121 798/300/121
f 766/329/122 755/314/122 746/330/122
f 758/331/120 754/321/120 747/332/120
f 745/333/120 750/334/120 763/335/120
f 786/336/124 750/334/124 787/295/124
f 769/337/122 784/338/122 777/328/122
f 786/336/125 749/339/125 766/329/125
f 785/313/126 756/296/126 745/333/126
f 749/339/127 788/297/127 755/314/127
f 789/324/128 751/293/128 764/340/128
f 791/315/129 776/341/129 768/317/129
f 776/341/127 792/294/127 752/318/127
f 794/305/128 774/290/128 762/311/128
f 796/301/129 780/308/129 770/342/129
f 780/308/127 795/291/127 773/306/127
f 799/327/128 778/299/128 760/343/128
f 800/322/129 784/338/129 772/344/129
f 784/338/127 798/300/127 777/328/127
f 801/320/125 753/345/125 748/325/125
f 804/309/126 782/287/126 758/331/126
f 753/345/127 802/288/127 781/310/127
f 738/275/130 805/278/130 737/346/130
f 740/277/130 807/282/130 808/284/130
f 737/346/130 807/282/130 739/347/130
f 738/275/130 808/284/130 806/285/130
f 812/276/130 809/348/130 811/349/130
f 740/277/131 811/349/131 739/347/131
f 739/347/132 809/348/132 737/346/132
f 738/275/133 809/348/133 810/350/133
f 827/351/130 820/352/130 828/351/130
f 823/353/117 818/354/117 824/353/117
f 818/354/116 820/352/116 819/352/116
f 814/354/116 816/352/116 815/352/116
f 821/353/117 814/354/117 822/353/117
f 825/351/130 816/352/130 826/351/130
f 828/351/113 817/354/113 823/353/113
f 827/351/115 818/354/115 819/352/115
f 826/351/113 813/354/113 821/353/113
f 825/351/115 814/354/115 815/352/115
f 738/275/112 810/350/112 812/276/112
f 805/278/113 806/285/113 742/279/113
f 805/278/114 741/280/114 743/281/114
f 807/282/115 743/281/115 744/283/115
f 808/284/116 744/283/116 742/279/116
f 744/283/117 743/281/117 741/280/117
f 803/286/118 754/321/118 782/287/118
f 793/289/118 779/302/118 774/290/118
f 790/292/118 775/316/118 751/293/118
f 787/295/118 750/334/118 756/296/118
f 797/298/118 783/304/118 778/299/118
f 796/301/134 759/312/134 779/302/134
f 757/303/120 760/343/120 778/299/120
f 794/305/135 767/307/135 773/306/135
f 767/307/122 770/342/122 780/308/122
f 804/309/136 771/326/136 781/310/136
f 762/311/120 774/290/120 779/302/120
f 785/313/136 746/330/136 755/314/136
f 791/315/134 761/323/134 775/316/134
f 768/317/122 776/341/122 752/318/122
f 801/320/137 747/332/137 754/321/137
f 800/322/134 757/303/134 783/304/134
f 761/323/120 764/340/120 751/293/120
f 789/324/135 765/319/135 752/318/135
f 748/325/122 753/345/122 781/310/122
f 799/327/135 769/337/135 777/328/135
f 766/329/122 749/339/122 755/314/122
f 758/331/120 782/287/120 754/321/120
f 745/333/120 756/296/120 750/334/120
f 786/336/137 763/335/137 750/334/137
f 769/337/122 772/344/122 784/338/122
f 786/336/138 787/295/138 749/339/138
f 785/313/139 788/297/139 756/296/139
f 749/339/127 787/295/127 788/297/127
f 789/324/140 792/294/140 751/293/140
f 791/315/141 790/292/141 776/341/141
f 776/341/127 790/292/127 792/294/127
f 794/305/140 795/291/140 774/290/140
f 796/301/141 793/289/141 780/308/141
f 780/308/127 793/289/127 795/291/127
f 799/327/140 798/300/140 778/299/140
f 800/322/141 797/298/141 784/338/141
f 784/338/127 797/298/127 798/300/127
f 801/320/138 803/286/138 753/345/138
f 804/309/139 802/288/139 782/287/139
f 753/345/127 803/286/127 802/288/127
f 738/275/130 806/285/130 805/278/130
f 740/277/130 739/347/130 807/282/130
f 737/346/130 805/278/130 807/282/130
f 738/275/130 740/277/130 808/284/130
f 812/276/130 810/350/130 809/348/130
f 740/277/131 812/276/131 811/349/131
f 739/347/132 811/349/132 809/348/132
f 738/275/133 737/346/133 809/348/133
f 827/351/130 819/352/130 820/352/130
f 823/353/117 817/354/117 818/354/117
f 818/354/116 817/354/116 820/352/116
f 814/354/116 813/354/116 816/352/116
f 821/353/117 813/354/117 814/354/117
f 825/351/130 815/352/130 816/352/130
f 828/351/113 820/352/113 817/354/113
f 827/351/115 824/353/115 818/354/115
f 826/351/113 816/352/113 813/354/113
f 825/351/115 822/353/115 814/354/115
o Prop_Dumpster_Top_Right_01
v 0.745092 1.180506 0.576519
v 0.745092 1.570272 -0.585523
v 0.020866 1.180506 0.576519
v 0.020866 1.570272 -0.585523
v 0.761630 1.195282 0.597878
v 0.761630 1.594939 -0.593653
v 0.004327 1.195282 0.597878
v 0.004327 1.594939 -0.593653
v 0.727738 1.205250 0.568160
v 0.727738 1.585719 -0.566166
v 0.039584 1.205250 0.568160
v 0.039584 1.585719 -0.566166
v 0.612906 1.603124 -0.508797
v 0.612906 1.256683 0.522911
v 0.567549 1.256683 0.522911
v 0.567549 1.603124 -0.508797
v 0.060838 1.603124 -0.508797
v 0.060838 1.256683 0.522911
v 0.706484 1.603124 -0.508797
v 0.706484 1.256683 0.522911
v 0.178759 1.205250 0.568160
v 0.175670 1.205250 0.568160
v 0.316390 1.205250 0.568160
v 0.313301 1.205250 0.568160
v 0.454021 1.205250 0.568160
v 0.450932 1.205250 0.568160
v 0.591652 1.205250 0.568160
v 0.588562 1.205250 0.568160
v 0.588562 1.585719 -0.566166
v 0.591652 1.585719 -0.566166
v 0.450932 1.585719 -0.566166
v 0.454021 1.585719 -0.566166
v 0.313301 1.585719 -0.566166
v 0.316390 1.585719 -0.566166
v 0.175670 1.585719 -0.566166
v 0.178759 1.585719 -0.566166
v 0.429919 1.603124 -0.508797
v 0.429919 1.256683 0.522911
v 0.475034 1.256683 0.522911
v 0.475034 1.603124 -0.508797
v 0.292288 1.603124 -0.508797
v 0.292288 1.256683 0.522911
v 0.337403 1.256683 0.522911
v 0.337403 1.603124 -0.508797
v 0.154416 1.603124 -0.508797
v 0.154416 1.256683 0.522911
v 0.199772 1.256683 0.522911
v 0.199772 1.603124 -0.508797
v 0.727738 1.398764 -0.008779
v 0.591652 1.398764 -0.008779
v 0.612906 1.450217 0.008479
v 0.706484 1.450217 0.008479
v 0.588562 1.398764 -0.008779
v 0.475034 1.450217 0.008479
v 0.454021 1.398764 -0.008779
v 0.567549 1.450217 0.008479
v 0.337403 1.450217 0.008479
v 0.450932 1.398764 -0.008779
v 0.429919 1.450217 0.008479
v 0.316390 1.398764 -0.008779
v 0.199772 1.450217 0.008479
v 0.292288 1.450217 0.008479
v 0.313301 1.398764 -0.008779
v 0.178759 1.398764 -0.008779
v 0.039584 1.398764 -0.008779
v 0.154416 1.450217 0.008479
v 0.060838 1.450217 0.008479
v 0.175670 1.398764 -0.008779
v 0.761630 1.175560 0.591263
v 0.761630 1.575218 -0.600268
v 0.004327 1.175560 0.591263
v 0.004327 1.575218 -0.600268
v 0.729193 1.205776 0.556615
v 0.729193 1.578430 -0.554408
v 0.036764 1.205776 0.556615
v 0.036764 1.578430 -0.554408
v 0.670810 1.604560 -0.622335
v 0.623387 1.604560 -0.622335
v 0.623387 1.584839 -0.628950
v 0.670810 1.584839 -0.628950
v 0.142570 1.604560 -0.622335
v 0.095147 1.604560 -0.622335
v 0.095147 1.584839 -0.628950
v 0.142570 1.584839 -0.628950
v 0.670810 1.594939 -0.593653
v 0.623387 1.594939 -0.593653
v 0.142570 1.594939 -0.593653
v 0.095147 1.594939 -0.593653
v 0.623387 1.575218 -0.600268
v 0.670810 1.575218 -0.600268
v 0.095147 1.575218 -0.600268
v 0.142570 1.575218 -0.600268
vn -0.0000 -0.9673 0.2536
vn 1.0000 -0.0000 -0.0000
vn -0.0000 -0.3180 0.9481
vn -1.0000 -0.0000 -0.0000
vn -0.0000 0.3180 -0.9481
vn -0.0000 0.9481 0.3180
vn -0.0000 0.9360 0.3521
vn -0.9325 0.3381 0.1272
vn -0.0000 0.6605 0.7508
vn 0.9325 0.3465 0.1024
vn -0.0000 0.9569 -0.2903
vn 0.9311 0.3499 0.1034
vn -0.9311 0.3415 0.1285
vn -0.8530 0.4947 0.1659
vn 0.8505 0.4986 0.1672
vn -0.0000 0.9590 0.2835
vn 0.8532 0.4945 0.1659
vn -0.8557 0.4906 0.1646
vn -0.0000 -0.9481 -0.3180
vn 0.7426 -0.6350 -0.2130
vn -0.0000 -0.6188 -0.7856
vn -0.7426 -0.6350 -0.2130
vn -0.8532 0.4945 0.1659
vn 0.8557 0.4906 0.1646
vn 0.8530 0.4947 0.1659
vn -0.8505 0.4986 0.1672
vn -0.9311 0.3499 0.1034
vn 0.9311 0.3415 0.1285
vn 0.9325 0.3381 0.1272
vn -0.9325 0.3465 0.1024
vt 0.702737 0.701112
vt 0.703807 0.702619
vt 0.702761 0.702619
vt 0.703856 0.628190
vt 0.703856 0.705669
vt 0.703856 0.631834
vt 0.702712 0.631834
vt 0.702712 0.628190
vt 0.702712 0.705669
vt 0.702712 0.702026
vt 0.703856 0.702026
vt 0.702797 0.678932
vt 0.702938 0.643177
vt 0.702938 0.678932
vt 0.703215 0.678932
vt 0.703355 0.643177
vt 0.703355 0.678932
vt 0.703423 0.678932
vt 0.703563 0.643177
vt 0.703563 0.678932
vt 0.703631 0.678932
vt 0.703773 0.643177
vt 0.703773 0.678932
vt 0.703007 0.678932
vt 0.703147 0.643177
vt 0.703147 0.678932
vt 0.703183 0.669426
vt 0.703215 0.643177
vt 0.703179 0.633676
vt 0.703007 0.643177
vt 0.702975 0.633676
vt 0.703387 0.669426
vt 0.703355 0.707181
vt 0.703183 0.703966
vt 0.703387 0.703966
vt 0.702971 0.669426
vt 0.702938 0.707181
vt 0.703387 0.633676
vt 0.703183 0.633676
vt 0.703805 0.669426
vt 0.703773 0.707181
vt 0.703391 0.669426
vt 0.703423 0.643177
vt 0.703391 0.703966
vt 0.703563 0.707181
vt 0.703595 0.703966
vt 0.702765 0.669426
vt 0.702797 0.643177
vt 0.702975 0.669426
vt 0.703391 0.633676
vt 0.703595 0.669426
vt 0.702765 0.703966
vt 0.702971 0.703966
vt 0.703179 0.669426
vt 0.703147 0.707181
vt 0.703599 0.703966
vt 0.703805 0.703966
vt 0.702765 0.633676
vt 0.703805 0.633676
vt 0.703631 0.643177
vt 0.703599 0.633676
vt 0.703599 0.669426
vt 0.703179 0.703966
vt 0.703007 0.707181
vt 0.703631 0.707181
vt 0.703595 0.633676
vt 0.703423 0.707181
vt 0.703215 0.707181
vt 0.702975 0.703966
vt 0.702797 0.707181
vt 0.702971 0.633676
vt 0.703831 0.701112
vt 0.703831 0.629104
vt 0.702737 0.629104
vt 0.703807 0.633773
vt 0.702761 0.633773
vt 0.587564 0.645652
vt 0.592689 0.659589
vt 0.586383 0.674221
vt 0.591507 0.688157
s 0
usemtl Texture_Map
f 832/355/142 902/356/142 904/357/142
f 897/358/143 834/359/143 833/360/143
f 897/358/144 835/361/144 899/362/144
f 899/362/145 836/363/145 900/364/145
f 900/364/146 834/359/146 898/365/146
f 836/363/147 833/360/147 834/359/147
f 895/366/148 874/367/148 894/368/148
f 885/369/148 866/370/148 887/371/148
f 882/372/148 843/373/148 884/374/148
f 879/375/148 848/376/148 880/377/148
f 889/378/148 870/379/148 890/380/148
f 888/381/149 871/382/149 885/369/149
f 852/383/150 875/384/150 849/385/150
f 886/386/151 865/387/151 887/371/151
f 862/388/152 865/387/152 859/389/152
f 896/390/153 873/391/153 894/368/153
f 854/392/150 871/382/150 851/393/150
f 877/394/153 847/395/153 880/377/153
f 883/396/149 867/397/149 882/372/149
f 860/398/152 844/399/152 857/400/152
f 893/401/154 846/402/154 895/366/154
f 892/403/149 875/384/149 889/378/149
f 853/404/150 843/373/150 867/397/150
f 881/405/151 844/399/151 884/374/151
f 840/406/152 873/391/152 863/407/152
f 891/408/151 869/409/151 890/380/151
f 858/410/152 847/395/152 838/411/152
f 839/412/150 874/367/150 846/402/150
f 837/413/150 842/414/150 855/415/150
f 878/416/154 842/414/154 879/375/154
f 861/417/152 876/418/152 869/409/152
f 878/416/155 841/419/155 858/410/155
f 877/394/156 848/376/156 837/413/156
f 841/419/157 880/377/157 847/395/157
f 881/405/158 843/373/158 856/420/158
f 883/396/159 868/421/159 860/398/159
f 868/421/157 884/374/157 844/399/157
f 886/386/158 866/370/158 854/392/158
f 888/381/159 872/422/159 862/388/159
f 872/422/157 887/371/157 865/387/157
f 891/408/158 870/379/158 852/383/158
f 892/403/159 876/418/159 864/423/159
f 876/418/157 890/380/157 869/409/157
f 893/401/155 845/424/155 840/406/155
f 896/390/156 874/367/156 850/425/156
f 845/424/157 894/368/157 873/391/157
f 830/426/160 897/358/160 829/427/160
f 832/355/160 899/362/160 900/364/160
f 831/428/160 897/358/160 899/362/160
f 832/355/160 898/365/160 830/426/160
f 904/357/160 901/429/160 903/430/160
f 832/355/161 903/430/161 831/428/161
f 831/428/162 901/429/162 829/427/162
f 830/426/163 901/429/163 902/356/163
f 919/431/160 912/432/160 920/431/160
f 915/433/147 910/434/147 916/433/147
f 910/434/146 912/432/146 911/432/146
f 906/434/146 908/432/146 907/432/146
f 913/433/147 906/434/147 914/433/147
f 917/431/160 908/432/160 918/431/160
f 920/431/143 909/434/143 915/433/143
f 919/431/145 910/434/145 911/432/145
f 918/431/143 905/434/143 913/433/143
f 917/431/145 906/434/145 907/432/145
f 832/355/142 830/426/142 902/356/142
f 897/358/143 898/365/143 834/359/143
f 897/358/144 833/360/144 835/361/144
f 899/362/145 835/361/145 836/363/145
f 900/364/146 836/363/146 834/359/146
f 836/363/147 835/361/147 833/360/147
f 895/366/148 846/402/148 874/367/148
f 885/369/148 871/382/148 866/370/148
f 882/372/148 867/397/148 843/373/148
f 879/375/148 842/414/148 848/376/148
f 889/378/148 875/384/148 870/379/148
f 888/381/164 851/393/164 871/382/164
f 852/383/150 870/379/150 875/384/150
f 886/386/165 859/389/165 865/387/165
f 862/388/152 872/422/152 865/387/152
f 896/390/166 863/407/166 873/391/166
f 854/392/150 866/370/150 871/382/150
f 877/394/166 838/411/166 847/395/166
f 883/396/164 853/404/164 867/397/164
f 860/398/152 868/421/152 844/399/152
f 893/401/167 839/412/167 846/402/167
f 892/403/164 849/385/164 875/384/164
f 853/404/150 856/420/150 843/373/150
f 881/405/165 857/400/165 844/399/165
f 840/406/152 845/424/152 873/391/152
f 891/408/165 861/417/165 869/409/165
f 858/410/152 841/419/152 847/395/152
f 839/412/150 850/425/150 874/367/150
f 837/413/150 848/376/150 842/414/150
f 878/416/167 855/415/167 842/414/167
f 861/417/152 864/423/152 876/418/152
f 878/416/168 879/375/168 841/419/168
f 877/394/169 880/377/169 848/376/169
f 841/419/157 879/375/157 880/377/157
f 881/405/170 884/374/170 843/373/170
f 883/396/171 882/372/171 868/421/171
f 868/421/157 882/372/157 884/374/157
f 886/386/170 887/371/170 866/370/170
f 888/381/171 885/369/171 872/422/171
f 872/422/157 885/369/157 887/371/157
f 891/408/170 890/380/170 870/379/170
f 892/403/171 889/378/171 876/418/171
f 876/418/157 889/378/157 890/380/157
f 893/401/168 895/366/168 845/424/168
f 896/390/169 894/368/169 874/367/169
f 845/424/157 895/366/157 894/368/157
f 830/426/160 898/365/160 897/358/160
f 832/355/160 831/428/160 899/362/160
f 831/428/160 829/427/160 897/358/160
f 832/355/160 900/364/160 898/365/160
f 904/357/160 902/356/160 901/429/160
f 832/355/161 904/357/161 903/430/161
f 831/428/162 903/430/162 901/429/162
f 830/426/163 829/427/163 901/429/163
f 919/431/160 911/432/160 912/432/160
f 915/433/147 909/434/147 910/434/147
f 910/434/146 909/434/146 912/432/146
f 906/434/146 905/434/146 908/432/146
f 913/433/147 905/434/147 906/434/147
f 917/431/160 907/432/160 908/432/160
f 920/431/143 912/432/143 909/434/143
f 919/431/145 916/433/145 910/434/145
f 918/431/143 908/432/143 905/434/143
f 917/431/145 914/433/145 906/434/145
