# Blender 4.4.0
# www.blender.org
mtllib Prop_Tractor_Tire_01.mtl
o Prop_Tractor_Tire_01
v 0.749484 -0.000000 -0.310446
v 0.817482 -0.000000 -0.166867
v 0.780551 -0.000000 -0.288613
v 0.795648 -0.000000 0.158264
v 0.795648 0.520000 0.158264
v 0.749484 0.520000 0.310446
v 0.750831 0.260000 0.307173
v 0.819112 -0.000000 0.158671
v 0.831582 -0.000000 0.032060
v 0.779717 0.520000 0.288605
v 0.816648 0.520000 0.166860
v 0.799183 0.260000 0.317889
v 0.737729 0.260000 0.436902
v 0.835583 0.260000 0.195984
v 0.749484 -0.000000 0.310446
v 0.674518 -0.000000 0.450698
v 0.573630 -0.000000 0.573630
v 0.674518 0.520000 0.450698
v 0.573630 0.520000 0.573630
v 0.676478 0.260000 0.447751
v 0.576128 0.260000 0.571122
v 0.453637 0.260000 0.672545
v 0.696040 -0.000000 0.460054
v 0.756013 -0.000000 0.347852
v 0.609920 0.520000 0.565021
v 0.690630 0.520000 0.466676
v 0.616698 0.260000 0.599526
v 0.514378 0.260000 0.685961
v 0.696978 0.260000 0.500829
v 0.450698 -0.000000 0.674518
v 0.450698 0.520000 0.674518
v 0.310446 0.520000 0.749484
v 0.313714 0.260000 0.748122
v 0.161734 0.260000 0.794950
v 0.467002 -0.000000 0.691397
v 0.565347 -0.000000 0.610687
v 0.347268 0.520000 0.755418
v 0.459469 0.520000 0.695445
v 0.340326 0.260000 0.789890
v 0.212717 0.260000 0.830590
v 0.452265 0.260000 0.729428
v 0.310446 -0.000000 0.749484
v 0.158264 -0.000000 0.795648
v -0.000000 -0.000000 0.811236
v 0.158264 0.520000 0.795648
v -0.000000 0.520000 0.811236
v 0.003539 0.260000 0.811228
v -0.154791 0.260000 0.796331
v 0.166867 -0.000000 0.817482
v 0.288613 -0.000000 0.780551
v 0.031748 0.520000 0.830809
v 0.158359 0.520000 0.818339
v 0.012143 0.260000 0.860000
v -0.121328 0.260000 0.848768
v 0.138698 0.260000 0.846978
v -0.158264 -0.000000 0.795648
v -0.158264 0.520000 0.795648
v -0.310447 0.520000 0.749484
v -0.307173 0.260000 0.750831
v -0.447751 0.260000 0.676478
v -0.158672 -0.000000 0.819112
v -0.032060 -0.000000 0.831582
v -0.288606 0.520000 0.779716
v -0.166860 0.520000 0.816648
v -0.317890 0.260000 0.799183
v -0.436902 0.260000 0.737729
v -0.195984 0.260000 0.835583
v -0.310447 -0.000000 0.749484
v -0.450698 -0.000000 0.674518
v -0.573630 -0.000000 0.573630
v -0.450699 0.519999 0.674518
v -0.573631 0.519999 0.573630
v -0.571122 0.260000 0.576127
v -0.672545 0.260000 0.453637
v -0.460054 -0.000000 0.696040
v -0.347853 -0.000000 0.756013
v -0.565021 0.519999 0.609920
v -0.466676 0.519999 0.690630
v -0.599526 0.260000 0.616698
v -0.685962 0.260000 0.514377
v -0.500829 0.260000 0.696978
v -0.674518 -0.000000 0.450698
v -0.674518 0.519999 0.450698
v -0.749484 0.519999 0.310446
v -0.748122 0.260000 0.313713
v -0.794950 0.260000 0.161734
v -0.691398 -0.000000 0.467002
v -0.610688 -0.000000 0.565347
v -0.755418 0.519999 0.347268
v -0.695445 0.519999 0.459469
v -0.789890 0.260000 0.340326
v -0.830590 0.260000 0.212717
v -0.729428 0.260000 0.452265
v -0.749484 -0.000000 0.310446
v -0.795648 -0.000000 0.158264
v -0.795648 0.519999 0.158264
v -0.811236 0.519999 -0.000000
v -0.811228 0.260000 0.003539
v -0.796331 0.260000 -0.154791
v -0.817482 -0.000000 0.166867
v -0.780551 -0.000000 0.288613
v -0.830809 0.519999 0.031748
v -0.818339 0.519999 0.158359
v -0.860000 0.260000 0.012143
v -0.848768 0.260000 -0.121328
v -0.846978 0.260000 0.138698
v -0.811236 -0.000000 -0.000000
v -0.795648 -0.000000 -0.158264
v -0.749484 -0.000000 -0.310447
v -0.795648 0.519999 -0.158264
v -0.749484 0.519999 -0.310447
v -0.750831 0.260000 -0.307173
v -0.819112 -0.000000 -0.158672
v -0.831582 -0.000000 -0.032060
v -0.779716 0.519999 -0.288606
v -0.816648 0.519999 -0.166860
v -0.799183 0.260000 -0.317890
v -0.737729 0.260000 -0.436902
v -0.835583 0.260000 -0.195984
v -0.674518 -0.000000 -0.450699
v -0.674518 0.519999 -0.450699
v -0.573630 0.519999 -0.573630
v -0.676478 0.260000 -0.447751
v -0.576127 0.260000 -0.571122
v -0.453637 0.260000 -0.672545
v -0.696040 -0.000000 -0.460054
v -0.756013 -0.000000 -0.347853
v -0.609919 0.519999 -0.565021
v -0.690630 0.519999 -0.466676
v -0.616698 0.260000 -0.599526
v -0.514377 0.260000 -0.685962
v -0.696978 0.260000 -0.500829
v -0.573630 -0.000000 -0.573630
v -0.450698 -0.000000 -0.674518
v -0.310446 -0.000000 -0.749484
v -0.450698 0.519999 -0.674518
v -0.310446 0.520000 -0.749484
v -0.313713 0.260000 -0.748122
v -0.467002 -0.000000 -0.691398
v -0.565347 -0.000000 -0.610687
v -0.347268 0.520000 -0.755418
v -0.459469 0.519999 -0.695445
v -0.340326 0.260000 -0.789890
v -0.212717 0.260000 -0.830590
v -0.452265 0.260000 -0.729428
v -0.158264 -0.000000 -0.795648
v -0.158264 0.520000 -0.795648
v 0.000000 0.520000 -0.811236
v -0.161734 0.260000 -0.794950
v -0.003539 0.260000 -0.811228
v 0.154791 0.260000 -0.796331
v -0.166867 -0.000000 -0.817482
v -0.288613 -0.000000 -0.780551
v -0.031748 0.520000 -0.830808
v -0.158359 0.520000 -0.818338
v -0.012143 0.260000 -0.860000
v 0.121328 0.260000 -0.848768
v -0.138698 0.260000 -0.846977
v 0.000000 -0.000000 -0.811236
v 0.158264 -0.000000 -0.795648
v 0.158264 0.520000 -0.795648
v 0.310447 0.520000 -0.749484
v 0.307173 0.260000 -0.750831
v 0.158672 -0.000000 -0.819112
v 0.032060 -0.000000 -0.831582
v 0.288606 0.520000 -0.779716
v 0.166860 0.520000 -0.816648
v 0.317889 0.260000 -0.799183
v 0.436902 0.260000 -0.737729
v 0.195984 0.260000 -0.835583
v 0.310447 -0.000000 -0.749484
v 0.450699 -0.000000 -0.674517
v 0.573630 -0.000000 -0.573630
v 0.450698 0.520000 -0.674517
v 0.573630 0.520000 -0.573630
v 0.447751 0.260000 -0.676477
v 0.571122 0.260000 -0.576127
v 0.460054 -0.000000 -0.696040
v 0.347853 -0.000000 -0.756013
v 0.565021 0.520000 -0.609919
v 0.466676 0.520000 -0.690629
v 0.599526 0.260000 -0.616698
v 0.685962 0.260000 -0.514377
v 0.500829 0.260000 -0.696978
v 0.674518 -0.000000 -0.450698
v 0.674518 0.520000 -0.450698
v 0.749484 0.520000 -0.310446
v 0.672545 0.260000 -0.453637
v 0.748122 0.260000 -0.313713
v 0.794950 0.260000 -0.161734
v 0.691398 -0.000000 -0.467002
v 0.610687 -0.000000 -0.565347
v 0.755418 0.520000 -0.347268
v 0.695445 0.520000 -0.459469
v 0.789890 0.260000 -0.340326
v 0.830589 0.260000 -0.212716
v 0.729428 0.260000 -0.452265
v 0.795648 -0.000000 -0.158264
v 0.811236 -0.000000 0.000000
v 0.795648 0.520000 -0.158264
v 0.811235 0.520000 0.000000
v 0.811228 0.260000 -0.003539
v 0.796330 0.260000 0.154791
v 0.830808 0.520000 -0.031748
v 0.818338 0.520000 -0.158359
v 0.860000 0.260000 -0.012142
v 0.848768 0.260000 0.121329
v 0.846977 0.260000 -0.138698
v 0.712071 0.022842 -0.294950
v 0.755931 0.022842 0.150364
v 0.755931 0.497158 0.150364
v 0.712071 0.497158 0.294950
v 0.712071 0.022842 0.294950
v 0.640847 0.022842 0.428200
v 0.544996 0.022842 0.544996
v 0.640847 0.497158 0.428200
v 0.544995 0.497158 0.544996
v 0.428200 0.022842 0.640847
v 0.428200 0.497158 0.640847
v 0.294949 0.497158 0.712071
v 0.294949 0.022842 0.712071
v 0.150364 0.022842 0.755931
v -0.000000 0.022842 0.770740
v 0.150364 0.497158 0.755931
v -0.000000 0.497158 0.770740
v -0.150364 0.022842 0.755931
v -0.150364 0.497158 0.755931
v -0.294950 0.497158 0.712071
v -0.294950 0.022842 0.712071
v -0.428200 0.022842 0.640847
v -0.544996 0.022842 0.544995
v -0.428201 0.497158 0.640847
v -0.544996 0.497158 0.544995
v -0.640847 0.022842 0.428200
v -0.640847 0.497158 0.428200
v -0.712071 0.497158 0.294949
v -0.712071 0.022842 0.294949
v -0.755931 0.022842 0.150364
v -0.755931 0.497158 0.150364
v -0.770740 0.497158 -0.000000
v -0.770740 0.022842 -0.000000
v -0.755931 0.022842 -0.150364
v -0.712071 0.022842 -0.294950
v -0.755931 0.497158 -0.150364
v -0.712071 0.497158 -0.294950
v -0.640847 0.022842 -0.428201
v -0.640847 0.497158 -0.428201
v -0.544996 0.497158 -0.544996
v -0.544995 0.022842 -0.544996
v -0.428200 0.022842 -0.640847
v -0.294949 0.022842 -0.712071
v -0.428200 0.497158 -0.640847
v -0.294949 0.497158 -0.712071
v -0.150364 0.022842 -0.755931
v -0.150364 0.497158 -0.755931
v 0.000000 0.497158 -0.770740
v 0.000000 0.022842 -0.770740
v 0.150364 0.022842 -0.755930
v 0.150364 0.497158 -0.755930
v 0.294950 0.497158 -0.712071
v 0.294950 0.022842 -0.712071
v 0.428201 0.022842 -0.640847
v 0.544996 0.022842 -0.544995
v 0.428200 0.497158 -0.640847
v 0.544996 0.497158 -0.544995
v 0.640847 0.022842 -0.428200
v 0.640847 0.497158 -0.428200
v 0.712071 0.497158 -0.294949
v 0.755931 0.022842 -0.150364
v 0.770740 0.022842 0.000000
v 0.755930 0.497158 -0.150364
v 0.770740 0.497158 0.000000
v 0.738740 0.021988 -0.305996
v 0.784242 0.498011 0.155995
v 0.738740 0.021988 0.305996
v 0.565407 0.021988 0.565407
v 0.664848 0.498011 0.444237
v 0.444237 0.498011 0.664848
v 0.305996 0.021988 0.738740
v -0.000000 0.021988 0.799606
v 0.155995 0.498011 0.784242
v -0.155996 0.498011 0.784242
v -0.305996 0.021988 0.738740
v -0.565407 0.021988 0.565407
v -0.444238 0.498011 0.664848
v -0.664848 0.498011 0.444237
v -0.738740 0.021988 0.305996
v -0.784242 0.498011 0.155995
v -0.799606 0.021988 -0.000000
v -0.738740 0.021988 -0.305996
v -0.784242 0.498011 -0.155996
v -0.664848 0.498011 -0.444238
v -0.565407 0.021988 -0.565407
v -0.305996 0.021988 -0.738740
v -0.444237 0.498011 -0.664848
v -0.155995 0.498011 -0.784242
v 0.000000 0.021988 -0.799606
v 0.155996 0.498011 -0.784242
v 0.305996 0.021988 -0.738739
v 0.565407 0.021988 -0.565407
v 0.444237 0.498011 -0.664848
v 0.664848 0.498011 -0.444237
v 0.799606 0.021988 0.000000
v 0.784242 0.498011 -0.155995
v 0.357596 0.074928 0.357596
v 0.467222 0.074928 0.193530
v -0.000000 0.074928 0.505718
v 0.193530 0.074928 0.467222
v -0.357597 0.074928 0.357596
v -0.193530 0.074928 0.467222
v -0.467222 0.074928 -0.193530
v -0.505718 0.074928 -0.000000
v -0.193530 0.074928 -0.467222
v -0.357596 0.074928 -0.357597
v 0.357597 0.074928 -0.357596
v 0.193530 0.074928 -0.467222
v 0.505717 0.074928 0.000000
v 0.467222 0.074928 -0.193530
v 0.496000 0.445071 -0.098660
v 0.420489 0.445071 -0.280961
v 0.496000 0.445071 0.098661
v 0.420489 0.445071 0.280962
v 0.280962 0.445071 0.420489
v 0.098660 0.445071 0.496000
v -0.098661 0.445071 0.496000
v -0.280962 0.445071 0.420489
v -0.467222 0.074928 0.193530
v -0.420489 0.445071 0.280961
v -0.496000 0.445071 0.098660
v -0.496000 0.445071 -0.098661
v -0.420489 0.445071 -0.280962
v -0.280962 0.445071 -0.420489
v 0.000000 0.074928 -0.505717
v -0.098661 0.445071 -0.496000
v 0.098661 0.445071 -0.496000
v 0.280962 0.445071 -0.420488
v 0.357596 0.021988 0.357596
v 0.467222 0.021988 0.193530
v -0.000000 0.021988 0.505718
v 0.193530 0.021988 0.467222
v -0.357597 0.021988 0.357596
v -0.193530 0.021988 0.467222
v -0.467222 0.021988 -0.193530
v -0.505718 0.021988 -0.000000
v -0.193530 0.021988 -0.467222
v -0.357596 0.021988 -0.357597
v 0.357597 0.021988 -0.357596
v 0.193530 0.021988 -0.467222
v 0.505717 0.021988 0.000000
v 0.467222 0.021988 -0.193530
v 0.496000 0.498011 -0.098660
v 0.420489 0.498011 -0.280961
v 0.496000 0.498011 0.098661
v 0.420489 0.498011 0.280962
v 0.280962 0.498011 0.420489
v 0.098660 0.498011 0.496000
v -0.098661 0.498011 0.496000
v -0.280962 0.498011 0.420489
v -0.467222 0.021988 0.193530
v -0.420489 0.498011 0.280961
v -0.496000 0.498011 0.098660
v -0.496000 0.498011 -0.098661
v -0.420489 0.498011 -0.280962
v -0.280962 0.498011 -0.420489
v 0.000000 0.021988 -0.505717
v -0.098661 0.498011 -0.496000
v 0.098661 0.498011 -0.496000
v 0.280962 0.498011 -0.420488
v 0.710547 0.074929 0.311474
v 0.653740 0.445071 0.417752
v 0.763843 0.445071 0.135778
v 0.775655 0.074929 0.015850
v 0.757659 0.445071 -0.166867
v 0.722678 0.074929 -0.282187
v 0.636128 0.445071 -0.444109
v 0.559679 0.074929 -0.537263
v 0.417753 0.445071 -0.653739
v 0.311474 0.074929 -0.710546
v 0.135778 0.445071 -0.763843
v 0.015850 0.074929 -0.775655
v -0.166868 0.445071 -0.757659
v -0.282187 0.074929 -0.722678
v -0.444109 0.445071 -0.636128
v -0.537264 0.074929 -0.559679
v -0.653740 0.445071 -0.417753
v -0.710547 0.074929 -0.311474
v -0.763844 0.445071 -0.135778
v -0.775656 0.074929 -0.015850
v -0.757659 0.445071 0.166868
v -0.722678 0.074929 0.282187
v -0.636129 0.445071 0.444109
v -0.559679 0.074928 0.537264
v -0.417753 0.445071 0.653739
v -0.311474 0.074929 0.710547
v -0.135778 0.445071 0.763843
v -0.015850 0.074929 0.775656
v 0.166868 0.445071 0.757659
v 0.282187 0.074929 0.722678
v 0.444110 0.445071 0.636128
v 0.537264 0.074929 0.559679
vn 0.9947 -0.0013 -0.1024
vn 0.1492 -0.5123 0.8458
vn -0.0000 1.0000 -0.0000
vn 0.9541 -0.0769 -0.2894
vn 0.5397 0.3449 -0.7680
vn -0.0000 -1.0000 -0.0000
vn 0.9582 -0.0013 0.2861
vn -0.1858 -0.5123 0.8385
vn 0.9569 -0.0013 0.2903
vn 0.8824 0.1174 0.4556
vn 0.9922 -0.0769 0.0977
vn 0.7925 0.3449 -0.5030
vn 0.5496 0.3452 0.7608
vn 0.1870 -0.5028 -0.8439
vn 0.7758 -0.0013 0.6310
vn -0.4926 -0.5123 0.7035
vn 0.7730 -0.0013 0.6344
vn 0.6409 0.1174 0.7586
vn 0.8793 -0.0769 0.4700
vn 0.9247 0.3449 -0.1614
vn 0.2166 0.3452 0.9132
vn 0.4958 -0.5028 -0.7081
vn 0.4752 -0.0013 0.8799
vn -0.7243 -0.5123 0.4615
vn 0.4714 -0.0013 0.8819
vn 0.3018 0.1174 0.9461
vn 0.6325 -0.0769 0.7707
vn 0.9160 0.3449 0.2047
vn -0.1493 0.3452 0.9266
vn 0.7290 -0.5028 -0.4645
vn 0.1024 -0.0013 0.9947
vn -0.8458 -0.5123 0.1492
vn 0.0980 -0.0013 0.9952
vn -0.0833 0.1174 0.9896
vn 0.2894 -0.0769 0.9541
vn 0.7680 0.3449 0.5397
vn -0.4925 0.3452 0.7989
vn 0.8513 -0.5028 -0.1502
vn -0.2861 -0.0013 0.9582
vn -0.8385 -0.5123 -0.1858
vn -0.2903 -0.0013 0.9569
vn -0.4556 0.1174 0.8824
vn -0.0977 -0.0769 0.9922
vn 0.5030 0.3449 0.7925
vn -0.7608 0.3452 0.5496
vn 0.8439 -0.5028 0.1870
vn -0.6310 -0.0013 0.7758
vn -0.7035 -0.5123 -0.4926
vn -0.6344 -0.0013 0.7730
vn -0.7586 0.1174 0.6409
vn -0.4700 -0.0769 0.8793
vn 0.1614 0.3449 0.9247
vn -0.9132 0.3452 0.2166
vn 0.7081 -0.5028 0.4958
vn -0.8799 -0.0013 0.4752
vn -0.4615 -0.5123 -0.7243
vn -0.8819 -0.0013 0.4714
vn -0.9461 0.1174 0.3018
vn -0.7707 -0.0769 0.6325
vn -0.2047 0.3449 0.9160
vn -0.9266 0.3452 -0.1493
vn 0.4645 -0.5028 0.7290
vn -0.9947 -0.0013 0.1024
vn -0.1492 -0.5123 -0.8458
vn -0.9952 -0.0013 0.0980
vn -0.9896 0.1174 -0.0833
vn -0.9541 -0.0769 0.2894
vn -0.5397 0.3449 0.7680
vn -0.7989 0.3452 -0.4925
vn 0.1502 -0.5028 0.8513
vn -0.9582 -0.0013 -0.2861
vn 0.1858 -0.5123 -0.8385
vn -0.9569 -0.0013 -0.2903
vn -0.8824 0.1174 -0.4556
vn -0.9922 -0.0769 -0.0977
vn -0.7925 0.3449 0.5030
vn -0.5496 0.3452 -0.7608
vn -0.1870 -0.5028 0.8439
vn -0.7758 -0.0013 -0.6310
vn 0.4926 -0.5123 -0.7035
vn -0.7730 -0.0013 -0.6344
vn -0.6409 0.1174 -0.7586
vn -0.8793 -0.0769 -0.4700
vn -0.9247 0.3449 0.1614
vn -0.2166 0.3452 -0.9132
vn -0.4958 -0.5028 0.7081
vn -0.4752 -0.0013 -0.8799
vn 0.7243 -0.5123 -0.4615
vn -0.4714 -0.0013 -0.8819
vn -0.3018 0.1174 -0.9461
vn -0.6325 -0.0769 -0.7707
vn -0.9160 0.3449 -0.2047
vn 0.1493 0.3452 -0.9266
vn -0.7290 -0.5028 0.4645
vn -0.1024 -0.0013 -0.9947
vn 0.8458 -0.5123 -0.1492
vn -0.0980 -0.0013 -0.9952
vn 0.0833 0.1174 -0.9896
vn -0.2894 -0.0769 -0.9541
vn -0.7680 0.3449 -0.5397
vn 0.4925 0.3452 -0.7989
vn -0.8513 -0.5028 0.1502
vn 0.2861 -0.0013 -0.9582
vn 0.8385 -0.5123 0.1858
vn 0.2903 -0.0013 -0.9569
vn 0.4556 0.1174 -0.8824
vn 0.0977 -0.0769 -0.9922
vn -0.5030 0.3449 -0.7925
vn 0.7608 0.3452 -0.5496
vn -0.8439 -0.5028 -0.1870
vn 0.6310 -0.0013 -0.7758
vn 0.7035 -0.5123 0.4926
vn 0.6344 -0.0013 -0.7730
vn 0.7586 0.1174 -0.6409
vn 0.4700 -0.0769 -0.8793
vn -0.1614 0.3449 -0.9247
vn 0.9132 0.3452 -0.2166
vn -0.7081 -0.5028 -0.4958
vn 0.8799 -0.0013 -0.4752
vn 0.4615 -0.5123 0.7243
vn 0.8819 -0.0013 -0.4714
vn 0.9461 0.1174 -0.3018
vn 0.7707 -0.0769 -0.6325
vn 0.2047 0.3449 -0.9160
vn 0.9266 0.3452 0.1493
vn -0.4645 -0.5028 -0.7290
vn 0.9952 -0.0013 -0.0980
vn 0.9896 0.1174 0.0833
vn 0.7989 0.3452 0.4925
vn -0.1502 -0.5028 -0.8513
vn -0.3812 -0.8700 -0.3128
vn -0.0483 0.8700 0.4907
vn -0.3128 -0.8700 0.3812
vn -0.3812 0.8700 -0.3128
vn -0.3128 0.8700 0.3812
vn 0.4907 0.8700 0.0483
vn -0.1431 0.8700 -0.4719
vn 0.3812 0.8700 0.3128
vn 0.2324 -0.8700 -0.4349
vn -0.4719 -0.8700 0.1431
vn 0.3128 -0.8700 -0.3812
vn -0.4719 0.8700 0.1431
vn 0.3128 0.8700 -0.3812
vn 0.0483 -0.8700 -0.4907
vn -0.2324 0.8700 0.4349
vn 0.1431 -0.8700 -0.4719
vn 0.0483 0.8700 -0.4907
vn 0.4349 -0.8700 0.2324
vn -0.0483 -0.8700 0.4907
vn 0.3812 -0.8700 0.3128
vn -0.1431 0.8700 0.4719
vn -0.4719 0.8700 -0.1431
vn 0.4349 0.8700 0.2324
vn 0.4907 -0.8700 0.0483
vn -0.3812 -0.8700 0.3128
vn 0.1431 0.8700 -0.4719
vn -0.4907 -0.8700 -0.0483
vn 0.4719 -0.8700 0.1431
vn -0.4349 -0.8700 0.2324
vn 0.2324 0.8700 -0.4349
vn -0.4719 -0.8700 -0.1431
vn 0.4719 0.8700 0.1431
vn -0.3812 0.8700 0.3128
vn 0.3128 0.8700 0.3812
vn -0.4907 0.8700 -0.0483
vn -0.4907 -0.8700 0.0483
vn 0.0483 0.8700 0.4907
vn -0.4907 0.8700 0.0483
vn 0.3812 -0.8700 -0.3128
vn -0.1431 -0.8700 -0.4719
vn 0.4349 -0.8700 -0.2324
vn -0.0483 -0.8700 -0.4907
vn 0.4719 -0.8700 -0.1431
vn 0.3812 0.8700 -0.3128
vn -0.0483 0.8700 -0.4907
vn 0.4907 0.8700 -0.0483
vn -0.4349 0.8700 0.2324
vn 0.1431 -0.8700 0.4719
vn -0.4349 0.8700 -0.2324
vn 0.0483 -0.8700 0.4907
vn -0.3128 -0.8700 -0.3812
vn 0.1431 0.8700 0.4719
vn 0.4907 -0.8700 -0.0483
vn -0.2324 -0.8700 -0.4349
vn 0.3128 -0.8700 0.3812
vn 0.4719 0.8700 -0.1431
vn -0.3128 0.8700 -0.3812
vn 0.2324 -0.8700 0.4349
vn -0.2324 0.8700 -0.4349
vn 0.2324 0.8700 0.4349
vn -0.4349 -0.8700 -0.2324
vn -0.1431 -0.8700 0.4719
vn 0.4349 0.8700 -0.2324
vn -0.2324 -0.8700 0.4349
vn -0.8315 -0.0000 -0.5556
vn -0.1951 -0.0000 -0.9808
vn 0.5556 -0.0000 -0.8315
vn 0.9808 -0.0000 0.1951
vn 0.5556 -0.0000 0.8315
vn -0.5556 -0.0000 0.8315
vn -0.9808 -0.0000 0.1951
vn -0.9239 -0.0000 0.3827
vn -0.9808 -0.0000 -0.1951
vn -1.0000 -0.0000 -0.0000
vn -0.9239 -0.0000 -0.3827
vn -0.5556 -0.0000 -0.8315
vn -0.7071 -0.0000 -0.7071
vn -0.3827 -0.0000 -0.9239
vn 0.1951 -0.0000 -0.9808
vn -0.0000 -0.0000 -1.0000
vn 0.3827 -0.0000 -0.9239
vn 0.8315 -0.0000 -0.5556
vn 0.7071 -0.0000 -0.7071
vn 0.9808 -0.0000 -0.1951
vn 0.9239 -0.0000 -0.3827
vn 1.0000 -0.0000 -0.0000
vn 0.8315 -0.0000 0.5556
vn 0.9239 -0.0000 0.3827
vn 0.7071 -0.0000 0.7071
vn 0.1951 -0.0000 0.9808
vn 0.3827 -0.0000 0.9239
vn -0.1951 -0.0000 0.9808
vn -0.0000 -0.0000 1.0000
vn -0.3827 -0.0000 0.9239
vn -0.8315 -0.0000 0.5556
vn -0.7071 -0.0000 0.7071
vn -0.9991 -0.0385 0.0204
vn -0.9308 -0.0385 -0.3635
vn -0.9152 -0.0385 0.4012
vn -0.6920 -0.0385 0.7209
vn -0.3635 -0.0385 0.9308
vn 0.0204 -0.0385 0.9991
vn 0.4012 -0.0385 0.9152
vn 0.7209 -0.0385 0.6920
vn 0.9308 -0.0385 0.3635
vn 0.9991 -0.0385 -0.0204
vn 0.9152 -0.0385 -0.4012
vn 0.6920 -0.0385 -0.7209
vn 0.3635 -0.0385 -0.9308
vn -0.0204 -0.0385 -0.9991
vn -0.4012 -0.0385 -0.9152
vn -0.7209 -0.0385 -0.6920
vn 0.9569 0.0013 -0.2903
vn 0.3125 -0.5230 0.7930
vn 0.9896 -0.1012 -0.1018
vn 0.3728 0.3902 -0.8419
vn 0.9952 0.0013 0.0980
vn -0.0148 -0.5230 0.8522
vn 0.8840 0.0013 0.4675
vn 0.9518 0.1038 0.2887
vn 0.9533 -0.1012 0.2846
vn 0.6666 0.3902 -0.6352
vn 0.1578 0.4261 0.8908
vn 0.3255 -0.5115 -0.7952
vn 0.8819 0.0013 0.4714
vn -0.3398 -0.5230 0.7817
vn 0.6378 0.0013 0.7702
vn 0.7688 0.1038 0.6310
vn 0.7718 -0.1012 0.6278
vn 0.8589 0.3902 -0.3317
vn -0.1951 0.4261 0.8834
vn 0.6050 -0.5115 -0.6101
vn 0.6344 0.0013 0.7730
vn -0.6131 -0.5230 0.5921
vn 0.2945 0.0013 0.9557
vn 0.4689 0.1038 0.8772
vn 0.4728 -0.1012 0.8753
vn 0.9205 0.3902 0.0222
vn -0.5183 0.4261 0.7415
vn 0.7925 -0.5115 -0.3321
vn 0.2903 0.0013 0.9569
vn -0.7930 -0.5230 0.3125
vn -0.0937 0.0013 0.9956
vn 0.0975 0.1038 0.9898
vn 0.1018 -0.1012 0.9896
vn 0.8419 0.3902 0.3728
vn -0.7626 0.4261 0.4867
vn 0.8592 -0.5115 -0.0036
vn -0.0980 0.0013 0.9952
vn -0.8522 -0.5230 -0.0148
vn -0.4675 0.0013 0.8840
vn -0.2887 0.1038 0.9518
vn -0.2846 -0.1012 0.9533
vn 0.6352 0.3902 0.6666
vn -0.8908 0.4261 0.1578
vn 0.7952 -0.5115 0.3255
vn -0.4714 0.0013 0.8819
vn -0.7817 -0.5230 -0.3398
vn -0.7702 0.0013 0.6378
vn -0.6310 0.1038 0.7688
vn -0.6278 -0.1012 0.7718
vn 0.3317 0.3902 0.8589
vn -0.8834 0.4261 -0.1951
vn 0.6101 -0.5116 0.6050
vn -0.7730 0.0013 0.6344
vn -0.5921 -0.5230 -0.6131
vn -0.9557 0.0013 0.2945
vn -0.8772 0.1038 0.4689
vn -0.8753 -0.1012 0.4728
vn -0.0222 0.3902 0.9205
vn -0.7415 0.4261 -0.5183
vn 0.3322 -0.5116 0.7925
vn -0.9569 0.0013 0.2903
vn -0.3125 -0.5230 -0.7930
vn -0.9956 0.0013 -0.0937
vn -0.9898 0.1038 0.0975
vn -0.9896 -0.1012 0.1018
vn -0.3728 0.3902 0.8419
vn -0.4867 0.4261 -0.7626
vn 0.0036 -0.5115 0.8592
vn -0.9952 0.0013 -0.0980
vn 0.0148 -0.5230 -0.8522
vn -0.8840 0.0013 -0.4675
vn -0.9518 0.1038 -0.2887
vn -0.9533 -0.1012 -0.2846
vn -0.6666 0.3902 0.6352
vn -0.1578 0.4261 -0.8908
vn -0.3255 -0.5115 0.7952
vn -0.8819 0.0013 -0.4714
vn 0.3398 -0.5230 -0.7817
vn -0.6378 0.0013 -0.7702
vn -0.7688 0.1038 -0.6310
vn -0.7718 -0.1012 -0.6278
vn -0.8589 0.3902 0.3317
vn 0.1951 0.4261 -0.8834
vn -0.6050 -0.5115 0.6101
vn -0.6344 0.0013 -0.7730
vn 0.6131 -0.5230 -0.5921
vn -0.2945 0.0013 -0.9557
vn -0.4689 0.1038 -0.8772
vn -0.4728 -0.1012 -0.8753
vn -0.9205 0.3902 -0.0222
vn 0.5183 0.4261 -0.7415
vn -0.7925 -0.5115 0.3322
vn -0.2903 0.0013 -0.9569
vn 0.7930 -0.5230 -0.3125
vn 0.0937 0.0013 -0.9956
vn -0.0975 0.1038 -0.9898
vn -0.1018 -0.1012 -0.9896
vn -0.8419 0.3902 -0.3728
vn 0.7626 0.4261 -0.4867
vn -0.8592 -0.5115 0.0036
vn 0.0980 0.0013 -0.9952
vn 0.8522 -0.5230 0.0148
vn 0.4675 0.0013 -0.8840
vn 0.2887 0.1038 -0.9518
vn 0.2846 -0.1012 -0.9533
vn -0.6352 0.3902 -0.6666
vn 0.8908 0.4261 -0.1578
vn -0.7952 -0.5115 -0.3255
vn 0.4714 0.0013 -0.8819
vn 0.7817 -0.5230 0.3398
vn 0.7702 0.0013 -0.6378
vn 0.6310 0.1038 -0.7688
vn 0.6278 -0.1012 -0.7718
vn -0.3317 0.3902 -0.8589
vn 0.8834 0.4261 0.1951
vn -0.6101 -0.5116 -0.6050
vn 0.7730 0.0013 -0.6344
vn 0.5921 -0.5230 0.6131
vn 0.9557 0.0013 -0.2945
vn 0.8772 0.1038 -0.4689
vn 0.8753 -0.1012 -0.4728
vn 0.0222 0.3902 -0.9205
vn 0.7415 0.4261 0.5183
vn -0.3321 -0.5116 -0.7925
vn 0.9956 0.0013 0.0937
vn 0.9898 0.1038 -0.0975
vn 0.4867 0.4261 0.7626
vn -0.0036 -0.5115 -0.8592
vn -0.9838 0.0385 0.1749
vn -0.9759 0.0385 -0.2149
vn -0.8420 0.0385 0.5381
vn -0.5720 0.0385 0.8193
vn -0.2149 0.0385 0.9759
vn 0.1749 0.0385 0.9838
vn 0.5381 0.0385 0.8420
vn 0.8193 0.0385 0.5720
vn 0.9759 0.0385 0.2149
vn 0.9838 0.0385 -0.1749
vn 0.8420 0.0385 -0.5381
vn 0.5720 0.0385 -0.8193
vn 0.2149 0.0385 -0.9759
vn -0.1749 0.0385 -0.9838
vn -0.5381 0.0385 -0.8420
vn -0.8193 0.0385 -0.5720
vt 0.822943 0.724740
vt 0.822945 0.748683
vt 0.822985 0.724740
vt 0.831874 0.724850
vt 0.832038 0.748792
vt 0.831913 0.748792
vt 0.832005 0.748792
vt 0.831872 0.748792
vt 0.831929 0.724850
vt 0.831835 0.724850
vt 0.831756 0.724850
vt 0.822947 0.724740
vt 0.822830 0.724740
vt 0.831883 0.748792
vt 0.831759 0.748792
vt 0.822827 0.700797
vt 0.822945 0.700797
vt 0.831976 0.748792
vt 0.831875 0.748792
vt 0.831833 0.772735
vt 0.831726 0.748792
vt 0.831933 0.724850
vt 0.831965 0.724850
vt 0.831569 0.748792
vt 0.831913 0.724850
vt 0.831874 0.772735
vt 0.831927 0.772735
vt 0.831756 0.772735
vt 0.822640 0.724740
vt 0.822636 0.748683
vt 0.822384 0.724740
vt 0.831564 0.724850
vt 0.831416 0.748792
vt 0.831313 0.748792
vt 0.822378 0.700797
vt 0.822636 0.700797
vt 0.831622 0.748792
vt 0.831399 0.772735
vt 0.831155 0.748792
vt 0.831619 0.724850
vt 0.831772 0.724850
vt 0.831000 0.748792
vt 0.831564 0.772735
vt 0.831605 0.772735
vt 0.831306 0.772735
vt 0.822071 0.724740
vt 0.822064 0.748683
vt 0.821714 0.724740
vt 0.830992 0.724850
vt 0.830710 0.748792
vt 0.830642 0.748792
vt 0.821705 0.700797
vt 0.822064 0.700797
vt 0.830996 0.748792
vt 0.830728 0.772735
vt 0.830384 0.748792
vt 0.831034 0.724850
vt 0.831285 0.724850
vt 0.830254 0.748792
vt 0.831306 0.724850
vt 0.830992 0.772735
vt 0.831015 0.772735
vt 0.830634 0.772735
vt 0.821326 0.724740
vt 0.821317 0.748683
vt 0.820921 0.724740
vt 0.830245 0.724850
vt 0.829872 0.748792
vt 0.829850 0.748792
vt 0.820912 0.700797
vt 0.821317 0.700797
vt 0.830195 0.748792
vt 0.829922 0.772735
vt 0.829531 0.748792
vt 0.830267 0.724850
vt 0.830578 0.724850
vt 0.829446 0.748792
vt 0.830634 0.724850
vt 0.830245 0.772735
vt 0.830246 0.772735
vt 0.829841 0.772735
vt 0.820517 0.724740
vt 0.820508 0.748683
vt 0.820128 0.724740
vt 0.829437 0.724850
vt 0.829029 0.748792
vt 0.829056 0.748792
vt 0.820119 0.700797
vt 0.820508 0.700797
vt 0.829340 0.748792
vt 0.829104 0.772735
vt 0.828725 0.748792
vt 0.829436 0.724850
vt 0.829759 0.724850
vt 0.828697 0.748792
vt 0.829841 0.724850
vt 0.829437 0.772735
vt 0.829415 0.772735
vt 0.829048 0.772735
vt 0.819769 0.724740
vt 0.819761 0.748683
vt 0.819453 0.724740
vt 0.828690 0.724850
vt 0.828310 0.748792
vt 0.828382 0.748792
vt 0.819447 0.700797
vt 0.819761 0.700797
vt 0.828562 0.748792
vt 0.828398 0.772735
vt 0.828089 0.748792
vt 0.828666 0.724850
vt 0.828952 0.724850
vt 0.828123 0.748792
vt 0.829048 0.724850
vt 0.828690 0.772735
vt 0.828649 0.772735
vt 0.828376 0.772735
vt 0.819194 0.724740
vt 0.819189 0.748683
vt 0.819001 0.724740
vt 0.828118 0.724850
vt 0.827823 0.748792
vt 0.827930 0.748792
vt 0.818998 0.700797
vt 0.819189 0.700797
vt 0.827978 0.748792
vt 0.827911 0.772735
vt 0.827719 0.748792
vt 0.828075 0.724850
vt 0.828281 0.724850
vt 0.827810 0.748792
vt 0.828376 0.724850
vt 0.828118 0.772735
vt 0.828065 0.772735
vt 0.827926 0.772735
vt 0.818882 0.724740
vt 0.818880 0.748683
vt 0.818840 0.724740
vt 0.827809 0.724850
vt 0.827644 0.748792
vt 0.827769 0.748792
vt 0.818840 0.700797
vt 0.818880 0.700797
vt 0.827677 0.748792
vt 0.827719 0.772735
vt 0.827673 0.748792
vt 0.827753 0.724850
vt 0.827847 0.724850
vt 0.827807 0.748792
vt 0.827926 0.724850
vt 0.827809 0.772735
vt 0.827751 0.772735
vt 0.827769 0.772735
vt 0.818878 0.724740
vt 0.818994 0.724740
vt 0.827799 0.748792
vt 0.827923 0.748792
vt 0.818998 0.700797
vt 0.827707 0.748792
vt 0.827849 0.772735
vt 0.827956 0.748792
vt 0.827749 0.724850
vt 0.827717 0.724850
vt 0.828113 0.748792
vt 0.827769 0.724850
vt 0.827755 0.772735
vt 0.819184 0.724740
vt 0.819441 0.724740
vt 0.828118 0.724850
vt 0.828266 0.748792
vt 0.828369 0.748792
vt 0.819447 0.700797
vt 0.819189 0.700797
vt 0.828061 0.748792
vt 0.828283 0.772735
vt 0.828527 0.748792
vt 0.828063 0.724850
vt 0.827910 0.724850
vt 0.828682 0.748792
vt 0.827926 0.724850
vt 0.828077 0.772735
vt 0.819754 0.724740
vt 0.820111 0.724740
vt 0.828690 0.724850
vt 0.828972 0.748792
vt 0.829040 0.748792
vt 0.820119 0.700797
vt 0.819761 0.700797
vt 0.828686 0.748792
vt 0.828954 0.772735
vt 0.829298 0.748792
vt 0.828648 0.724850
vt 0.828397 0.724850
vt 0.829428 0.748792
vt 0.828376 0.724850
vt 0.828667 0.772735
vt 0.829048 0.772735
vt 0.820499 0.724740
vt 0.820903 0.724740
vt 0.829437 0.724850
vt 0.829810 0.748792
vt 0.829832 0.748792
vt 0.820912 0.700797
vt 0.820508 0.700797
vt 0.829487 0.748792
vt 0.829760 0.772735
vt 0.830151 0.748792
vt 0.829415 0.724850
vt 0.829104 0.724850
vt 0.830236 0.748792
vt 0.829048 0.724850
vt 0.829437 0.772735
vt 0.821308 0.724740
vt 0.821697 0.724740
vt 0.830245 0.724850
vt 0.830653 0.748792
vt 0.830626 0.748792
vt 0.821705 0.700797
vt 0.821317 0.700797
vt 0.830342 0.748792
vt 0.830578 0.772735
vt 0.830957 0.748792
vt 0.830246 0.724850
vt 0.829923 0.724850
vt 0.830985 0.748792
vt 0.829841 0.724850
vt 0.830267 0.772735
vt 0.822056 0.724740
vt 0.822371 0.724740
vt 0.830992 0.724850
vt 0.831373 0.748792
vt 0.831300 0.748792
vt 0.822378 0.700797
vt 0.822064 0.700797
vt 0.831120 0.748792
vt 0.831284 0.772735
vt 0.831593 0.748792
vt 0.831016 0.724850
vt 0.830730 0.724850
vt 0.831559 0.748792
vt 0.830634 0.724850
vt 0.831033 0.772735
vt 0.822630 0.724740
vt 0.822824 0.724740
vt 0.831859 0.748792
vt 0.831752 0.748792
vt 0.831704 0.748792
vt 0.831771 0.772735
vt 0.831963 0.748792
vt 0.831607 0.724850
vt 0.831401 0.724850
vt 0.831306 0.724850
vt 0.831618 0.772735
vt 0.822985 0.700797
vt 0.831963 0.772735
vt 0.832009 0.748792
vt 0.831932 0.772735
vt 0.831913 0.772735
vt 0.822305 0.702901
vt 0.822549 0.702901
vt 0.820912 0.746580
vt 0.821297 0.746580
vt 0.822006 0.702901
vt 0.822305 0.746580
vt 0.822378 0.748683
vt 0.818944 0.746580
vt 0.818981 0.746580
vt 0.821666 0.746580
vt 0.819520 0.746580
vt 0.819447 0.748683
vt 0.820159 0.702901
vt 0.822731 0.702901
vt 0.819520 0.702901
vt 0.819818 0.702901
vt 0.822731 0.746580
vt 0.822843 0.746580
vt 0.820912 0.702901
vt 0.822006 0.746580
vt 0.820528 0.702901
vt 0.820528 0.746580
vt 0.819093 0.702901
vt 0.819275 0.702901
vt 0.821705 0.748683
vt 0.822827 0.748683
vt 0.819093 0.746580
vt 0.819275 0.746580
vt 0.818944 0.702901
vt 0.820159 0.746580
vt 0.820119 0.748683
vt 0.822843 0.702901
vt 0.822881 0.702901
vt 0.818981 0.702901
vt 0.819818 0.746580
vt 0.818998 0.748683
vt 0.822549 0.746580
vt 0.822985 0.748683
vt 0.820912 0.748683
vt 0.822881 0.746580
vt 0.821666 0.702901
vt 0.821297 0.702901
vt 0.818840 0.748683
vt 0.820119 0.748683
vt 0.821630 0.689403
vt 0.822537 0.689403
vt 0.821987 0.689403
vt 0.820418 0.655318
vt 0.819540 0.655318
vt 0.819999 0.655318
vt 0.822106 0.702822
vt 0.822357 0.702822
vt 0.821826 0.702822
vt 0.820912 0.702822
vt 0.821694 0.702822
vt 0.820418 0.702822
vt 0.819468 0.702822
vt 0.819999 0.702822
vt 0.819620 0.702822
vt 0.819025 0.702822
vt 0.819719 0.702822
vt 0.820131 0.702822
vt 0.822955 0.702822
vt 0.822204 0.702822
vt 0.821987 0.746658
vt 0.822916 0.746658
vt 0.822611 0.746658
vt 0.822800 0.702822
vt 0.822179 0.746658
vt 0.821407 0.702822
vt 0.821630 0.746658
vt 0.821164 0.746658
vt 0.822047 0.746658
vt 0.820514 0.746658
vt 0.821311 0.746658
vt 0.820195 0.746658
vt 0.820660 0.746658
vt 0.819214 0.746658
vt 0.819778 0.746658
vt 0.818870 0.702822
vt 0.819645 0.746658
vt 0.819838 0.746658
vt 0.818909 0.746658
vt 0.819719 0.655318
vt 0.819483 0.655318
vt 0.822106 0.655318
vt 0.822342 0.655318
vt 0.821826 0.655318
vt 0.818931 0.655318
vt 0.819620 0.655318
vt 0.820660 0.689403
vt 0.819845 0.689403
vt 0.820195 0.689403
vt 0.821164 0.689403
vt 0.821980 0.689403
vt 0.820117 0.655318
vt 0.820566 0.689403
vt 0.821259 0.689403
vt 0.820912 0.655318
vt 0.821633 0.655318
vt 0.821407 0.655318
vt 0.820872 0.655318
vt 0.820953 0.655318
vt 0.822728 0.655318
vt 0.821339 0.689403
vt 0.820486 0.689403
vt 0.821826 0.650442
vt 0.821407 0.650442
vt 0.820912 0.650442
vt 0.819999 0.650442
vt 0.819719 0.650442
vt 0.820418 0.650442
vt 0.822204 0.650442
vt 0.822204 0.655318
vt 0.822179 0.689403
vt 0.821987 0.694278
vt 0.822106 0.650442
vt 0.822179 0.694278
vt 0.821164 0.694278
vt 0.821630 0.694278
vt 0.820660 0.694278
vt 0.820195 0.694278
vt 0.819838 0.689403
vt 0.819620 0.650442
vt 0.819645 0.689403
vt 0.819838 0.694278
vt 0.819645 0.694278
vt 0.822848 0.689403
vt 0.822894 0.655318
vt 0.822864 0.689403
vt 0.822582 0.689403
vt 0.822758 0.655318
vt 0.821708 0.655318
vt 0.819778 0.689403
vt 0.820192 0.655318
vt 0.819242 0.689403
vt 0.818961 0.689403
vt 0.819097 0.655318
vt 0.818977 0.689403
vt 0.819287 0.689403
vt 0.819066 0.655318
vt 0.822047 0.689403
vt 0.822285 0.655318
s 0
usemtl Texture_Map
f 190/1/1 200/2/1 202/3/1
f 198/4/2 206/5/2 202/6/2
f 202/6/3 208/7/3 190/8/3
f 208/7/4 2/9/4 3/10/4
f 190/8/5 3/10/5 1/11/5
f 198/4/6 3/10/6 2/9/6
f 203/12/7 5/2/7 7/13/7
f 4/4/8 12/14/8 7/15/8
f 7/13/9 15/16/9 4/17/9
f 7/15/3 14/18/3 203/19/3
f 12/14/10 10/20/10 13/21/10
f 14/18/11 8/22/11 9/23/11
f 7/15/6 13/21/6 20/24/6
f 203/19/12 9/23/12 199/25/12
f 4/4/6 9/23/6 8/22/6
f 5/26/3 10/20/3 11/27/3
f 6/28/13 13/21/13 10/20/13
f 7/15/14 11/27/14 12/14/14
f 20/29/15 18/30/15 21/31/15
f 16/32/16 27/33/16 21/34/16
f 21/31/17 17/35/17 16/36/17
f 21/34/3 29/37/3 20/24/3
f 27/33/18 25/38/18 28/39/18
f 29/37/19 23/40/19 24/41/19
f 21/34/6 28/39/6 22/42/6
f 20/24/20 24/41/20 15/11/20
f 16/32/6 24/41/6 23/40/6
f 18/43/3 25/38/3 26/44/3
f 19/45/21 28/39/21 25/38/21
f 21/34/22 26/44/22 27/33/22
f 22/46/23 31/47/23 33/48/23
f 30/49/24 39/50/24 33/51/24
f 33/48/25 42/52/25 30/53/25
f 33/51/3 41/54/3 22/42/3
f 39/50/26 37/55/26 40/56/26
f 41/54/27 35/57/27 36/58/27
f 33/51/6 40/56/6 34/59/6
f 22/42/28 36/58/28 17/60/28
f 30/49/6 36/58/6 35/57/6
f 31/61/3 37/55/3 38/62/3
f 32/63/29 40/56/29 37/55/29
f 33/51/30 38/62/30 39/50/30
f 34/64/31 45/65/31 47/66/31
f 43/67/32 53/68/32 47/69/32
f 47/66/33 44/70/33 43/71/33
f 47/69/3 55/72/3 34/59/3
f 53/68/34 51/73/34 54/74/34
f 55/72/35 49/75/35 50/76/35
f 47/69/6 54/74/6 48/77/6
f 34/59/36 50/76/36 42/78/36
f 43/67/6 50/76/6 49/75/6
f 45/79/3 51/73/3 52/80/3
f 46/81/37 54/74/37 51/73/37
f 47/69/38 52/80/38 53/68/38
f 48/82/39 57/83/39 59/84/39
f 56/85/40 65/86/40 59/87/40
f 59/84/41 68/88/41 56/89/41
f 59/87/3 67/90/3 48/77/3
f 65/86/42 63/91/42 66/92/42
f 67/90/43 61/93/43 62/94/43
f 59/87/6 66/92/6 60/95/6
f 48/77/44 62/94/44 44/96/44
f 56/85/6 62/94/6 61/93/6
f 57/97/3 63/91/3 64/98/3
f 58/99/45 66/92/45 63/91/45
f 59/87/46 64/98/46 65/86/46
f 60/100/47 71/101/47 73/102/47
f 69/103/48 79/104/48 73/105/48
f 73/102/49 70/106/49 69/107/49
f 73/105/3 81/108/3 60/95/3
f 79/104/50 77/109/50 80/110/50
f 81/108/51 75/111/51 76/112/51
f 73/105/6 80/110/6 74/113/6
f 60/95/52 76/112/52 68/114/52
f 69/103/6 76/112/6 75/111/6
f 71/115/3 77/109/3 78/116/3
f 72/117/53 80/110/53 77/109/53
f 73/105/54 78/116/54 79/104/54
f 74/118/55 83/119/55 85/120/55
f 82/121/56 91/122/56 85/123/56
f 85/120/57 94/124/57 82/125/57
f 85/123/3 93/126/3 74/113/3
f 91/122/58 89/127/58 92/128/58
f 93/126/59 87/129/59 88/130/59
f 85/123/6 92/128/6 86/131/6
f 74/113/60 88/130/60 70/132/60
f 82/121/6 88/130/6 87/129/6
f 83/133/3 89/127/3 90/134/3
f 84/135/61 92/128/61 89/127/61
f 85/123/62 90/134/62 91/122/62
f 86/136/63 96/137/63 98/138/63
f 95/139/64 104/140/64 98/141/64
f 98/138/65 107/142/65 95/143/65
f 98/141/3 106/144/3 86/131/3
f 104/140/66 102/145/66 105/146/66
f 106/144/67 100/147/67 101/148/67
f 98/141/6 105/146/6 99/149/6
f 86/131/68 101/148/68 94/150/68
f 95/139/6 101/148/6 100/147/6
f 96/151/3 102/145/3 103/152/3
f 97/153/69 105/146/69 102/145/69
f 98/141/70 103/152/70 104/140/70
f 99/154/71 110/137/71 112/155/71
f 108/139/72 117/156/72 112/157/72
f 112/155/73 109/158/73 108/143/73
f 112/157/3 119/159/3 99/149/3
f 117/156/74 115/160/74 118/161/74
f 119/159/75 113/162/75 114/163/75
f 112/157/6 118/161/6 123/164/6
f 99/149/76 114/163/76 107/165/76
f 108/139/6 114/163/6 113/162/6
f 110/151/3 115/160/3 116/166/3
f 111/135/77 118/161/77 115/160/77
f 112/157/78 116/166/78 117/156/78
f 123/167/79 121/119/79 124/168/79
f 120/169/80 130/170/80 124/171/80
f 124/168/81 133/172/81 120/173/81
f 124/171/3 132/174/3 123/164/3
f 130/170/82 128/175/82 131/176/82
f 132/174/83 126/177/83 127/178/83
f 124/171/6 131/176/6 125/179/6
f 123/164/84 127/178/84 109/180/84
f 120/169/6 127/178/6 126/177/6
f 121/133/3 128/175/3 129/181/3
f 122/117/85 131/176/85 128/175/85
f 124/171/86 129/181/86 130/170/86
f 125/182/87 136/101/87 138/183/87
f 134/184/88 143/185/88 138/186/88
f 138/183/89 135/187/89 134/188/89
f 138/186/3 145/189/3 125/179/3
f 143/185/90 141/190/90 144/191/90
f 145/189/91 139/192/91 140/193/91
f 138/186/6 144/191/6 149/194/6
f 125/179/92 140/193/92 133/195/92
f 134/184/6 140/193/6 139/192/6
f 136/115/3 141/190/3 142/196/3
f 137/197/93 144/191/93 141/190/93
f 138/186/94 142/196/94 143/185/94
f 149/198/95 147/83/95 150/199/95
f 146/200/96 156/201/96 150/202/96
f 150/199/97 159/203/97 146/204/97
f 150/202/3 158/205/3 149/194/3
f 156/201/98 154/206/98 157/207/98
f 158/205/99 152/208/99 153/209/99
f 150/202/6 157/207/6 151/210/6
f 149/194/100 153/209/100 135/211/100
f 146/200/6 153/209/6 152/208/6
f 147/97/3 154/206/3 155/212/3
f 148/81/101 157/207/101 154/206/101
f 150/202/102 155/212/102 156/201/102
f 151/213/103 161/65/103 163/214/103
f 160/215/104 168/216/104 163/217/104
f 163/214/105 171/218/105 160/219/105
f 163/217/3 170/220/3 151/210/3
f 168/216/106 166/221/106 169/222/106
f 170/220/107 164/223/107 165/224/107
f 163/217/6 169/222/6 176/225/6
f 151/210/108 165/224/108 159/226/108
f 160/215/6 165/224/6 164/223/6
f 161/79/3 166/221/3 167/227/3
f 162/63/109 169/222/109 166/221/109
f 163/217/110 167/227/110 168/216/110
f 176/228/111 174/47/111 177/229/111
f 172/230/112 182/231/112 177/232/112
f 177/229/113 173/233/113 172/234/113
f 177/232/3 184/235/3 176/225/3
f 182/231/114 180/236/114 183/237/114
f 184/235/115 178/238/115 179/239/115
f 177/232/6 183/237/6 188/240/6
f 176/225/116 179/239/116 171/241/116
f 172/230/6 179/239/6 178/238/6
f 174/61/3 180/236/3 181/242/3
f 175/45/117 183/237/117 180/236/117
f 177/232/118 181/242/118 182/231/118
f 188/243/119 186/30/119 189/244/119
f 185/32/120 195/245/120 189/246/120
f 189/244/121 1/16/121 185/36/121
f 189/246/3 197/247/3 188/240/3
f 195/245/122 193/248/122 196/249/122
f 197/247/123 191/250/123 192/251/123
f 189/246/6 196/249/6 190/8/6
f 188/240/124 192/251/124 173/252/124
f 185/32/6 192/251/6 191/250/6
f 186/43/3 193/248/3 194/253/3
f 187/28/125 196/249/125 193/248/125
f 189/246/126 194/253/126 195/245/126
f 202/3/127 199/254/127 198/17/127
f 206/5/128 204/255/128 207/256/128
f 202/6/6 207/256/6 203/19/6
f 200/26/3 204/255/3 205/257/3
f 201/258/129 207/256/129 204/255/129
f 202/6/130 205/257/130 206/5/130
f 16/36/131 215/259/131 214/260/131
f 161/65/132 256/261/132 259/262/132
f 172/234/133 263/259/133 262/263/133
f 18/30/134 217/264/134 19/265/134
f 174/47/135 265/264/135 175/265/135
f 110/137/136 240/266/136 244/267/136
f 45/65/137 220/268/137 224/262/137
f 121/119/138 248/269/138 122/270/138
f 69/107/139 229/271/139 68/88/139
f 198/17/140 209/272/140 1/16/140
f 69/107/141 231/273/141 230/274/141
f 200/2/142 268/275/142 271/276/142
f 71/101/143 233/269/143 72/270/143
f 56/89/144 223/277/144 44/70/144
f 174/47/145 260/268/145 264/278/145
f 56/89/146 229/271/146 226/279/146
f 57/83/147 225/261/147 227/280/147
f 120/173/148 243/281/148 109/158/148
f 160/219/149 257/277/149 159/203/149
f 133/172/150 246/282/150 120/173/150
f 161/65/151 260/268/151 162/283/151
f 5/2/152 212/275/152 6/284/152
f 121/119/153 245/285/153 247/286/153
f 108/143/154 241/287/154 107/142/154
f 185/36/155 263/259/155 173/233/155
f 57/83/156 228/288/156 58/289/156
f 199/254/157 210/290/157 270/291/157
f 108/143/158 243/281/158 242/292/158
f 185/36/159 209/272/159 266/260/159
f 71/101/160 228/288/160 232/293/160
f 15/16/161 210/290/161 4/17/161
f 110/137/162 245/285/162 111/294/162
f 186/30/163 265/264/163 267/295/163
f 136/101/164 248/269/164 252/293/164
f 201/296/165 211/276/165 5/2/165
f 198/17/166 270/291/166 269/290/166
f 147/83/167 256/261/167 148/297/167
f 200/2/168 272/298/168 201/296/168
f 82/125/169 231/273/169 70/106/169
f 43/71/170 221/299/170 42/52/170
f 94/124/171 234/282/171 82/125/171
f 43/71/172 223/277/172 222/300/172
f 95/143/173 237/281/173 94/124/173
f 83/119/174 233/269/174 235/286/174
f 45/65/175 225/261/175 46/297/175
f 96/137/176 240/266/176 97/301/176
f 186/30/177 268/275/177 187/284/177
f 146/204/178 251/271/178 135/187/178
f 6/284/179 216/295/179 18/30/179
f 146/204/180 257/277/180 254/279/180
f 30/53/181 215/259/181 17/35/181
f 147/83/182 253/288/182 255/280/182
f 95/143/183 241/287/183 238/292/183
f 30/53/184 221/299/184 218/263/184
f 134/188/185 249/273/185 133/172/185
f 96/137/186 236/285/186 239/267/186
f 31/47/187 217/264/187 219/278/187
f 134/188/188 251/271/188 250/274/188
f 31/47/189 220/268/189 32/283/189
f 136/101/190 253/288/190 137/302/190
f 15/16/191 214/260/191 213/272/191
f 160/219/192 261/299/192 258/300/192
f 84/294/193 235/286/193 236/285/193
f 172/234/194 261/299/194 171/218/194
f 336/303/6 375/304/6 320/305/6
f 313/306/3 384/307/3 314/308/3
f 338/309/6 276/310/6 337/311/6
f 339/312/6 279/313/6 280/312/6
f 342/314/6 284/315/6 341/316/6
f 344/317/6 290/318/6 343/319/6
f 346/316/6 294/320/6 345/314/6
f 347/311/6 299/313/6 300/310/6
f 350/309/6 303/321/6 349/322/6
f 352/323/3 304/324/3 302/325/3
f 349/322/6 275/326/6 338/309/6
f 353/327/3 304/324/3 351/327/3
f 353/327/3 277/325/3 274/324/3
f 337/311/6 279/313/6 340/328/6
f 355/329/3 277/325/3 354/323/3
f 356/330/3 278/331/3 355/329/3
f 342/314/6 280/312/6 283/320/6
f 356/330/3 282/332/3 281/333/3
f 358/334/3 282/332/3 357/335/3
f 359/319/6 284/315/6 287/318/6
f 358/334/3 286/336/3 285/337/3
f 344/317/6 287/318/6 289/338/6
f 361/339/3 286/336/3 360/340/3
f 362/339/3 288/341/3 361/339/3
f 343/319/6 293/315/6 346/316/6
f 363/340/3 291/341/3 362/339/3
f 363/340/3 295/337/3 292/336/3
f 345/314/6 297/312/6 365/312/6
f 364/334/3 296/332/3 295/337/3
f 348/328/6 297/312/6 299/313/6
f 367/330/3 296/332/3 366/335/3
f 368/329/3 298/333/3 367/330/3
f 350/309/6 300/310/6 273/326/6
f 352/323/3 301/331/3 368/329/3
f 327/342/3 392/343/3 309/308/3
f 318/344/3 376/345/3 315/346/3
f 311/342/3 388/347/3 312/348/3
f 325/349/6 393/350/6 326/351/6
f 335/352/6 377/353/6 336/303/6
f 309/308/3 394/354/3 310/306/3
f 324/352/6 395/355/6 325/349/6
f 334/349/6 379/356/6 335/352/6
f 307/357/3 398/358/3 308/359/3
f 310/306/3 396/360/3 307/357/3
f 316/359/3 380/361/3 333/357/3
f 305/346/3 369/362/3 306/344/3
f 323/303/6 397/363/6 324/352/6
f 332/351/6 381/364/6 334/349/6
f 306/344/195 337/365/195 305/346/195
f 307/357/196 340/366/196 339/367/196
f 310/306/197 341/368/197 309/308/197
f 312/348/198 343/369/198 311/342/198
f 314/308/199 345/370/199 313/306/199
f 315/346/200 348/366/200 347/365/200
f 318/344/201 349/371/201 317/372/201
f 319/373/202 352/374/202 320/305/202
f 317/372/203 338/375/203 306/344/203
f 321/373/204 351/376/204 319/373/204
f 322/305/205 353/376/205 321/373/205
f 305/346/206 340/366/206 308/359/206
f 323/303/207 354/374/207 322/305/207
f 323/303/208 356/377/208 355/378/208
f 307/357/209 342/370/209 310/306/209
f 324/352/210 357/379/210 356/377/210
f 325/349/211 358/380/211 357/379/211
f 309/308/212 359/369/212 327/342/212
f 328/381/213 358/380/213 326/351/213
f 327/342/214 344/382/214 312/348/214
f 329/383/215 360/384/215 328/381/215
f 330/383/216 361/385/216 329/383/216
f 311/342/217 346/368/217 314/308/217
f 331/381/218 362/385/218 330/383/218
f 332/351/219 363/384/219 331/381/219
f 313/306/220 365/367/220 333/357/220
f 334/349/221 364/380/221 332/351/221
f 316/359/222 365/367/222 348/366/222
f 335/352/223 366/379/223 334/349/223
f 335/352/224 368/378/224 367/377/224
f 315/346/225 350/375/225 318/344/225
f 336/303/226 352/374/226 368/378/226
f 373/386/227 372/387/227 371/388/227
f 371/388/228 369/362/228 370/389/228
f 375/304/229 374/390/229 373/386/229
f 377/353/230 376/345/230 375/304/230
f 379/356/231 378/391/231 377/353/231
f 381/364/232 380/361/232 379/356/232
f 383/392/233 382/393/233 381/364/233
f 385/394/234 384/307/234 383/392/234
f 387/395/235 386/396/235 385/394/235
f 389/397/236 388/347/236 387/395/236
f 391/398/237 390/399/237 389/397/237
f 393/350/238 392/343/238 391/398/238
f 395/355/239 394/354/239 393/350/239
f 397/363/240 396/360/240 395/355/240
f 399/400/241 398/358/241 397/363/241
f 370/389/242 400/401/242 399/400/242
f 326/351/6 391/398/6 328/381/6
f 315/346/3 378/391/3 316/359/3
f 312/348/3 390/399/3 327/342/3
f 317/372/3 374/390/3 318/344/3
f 328/381/6 389/397/6 329/383/6
f 320/305/6 373/386/6 319/373/6
f 329/383/6 387/395/6 330/383/6
f 306/344/3 372/387/3 317/372/3
f 314/308/3 386/396/3 311/342/3
f 319/373/6 371/388/6 321/373/6
f 330/383/6 385/394/6 331/381/6
f 321/373/6 370/389/6 322/305/6
f 331/381/6 383/392/6 332/351/6
f 308/359/3 400/401/3 305/346/3
f 333/357/3 382/393/3 313/306/3
f 322/305/6 399/400/6 323/303/6
f 190/1/243 187/284/243 200/2/243
f 198/4/244 2/9/244 206/5/244
f 202/6/3 206/5/3 208/7/3
f 208/7/245 206/5/245 2/9/245
f 190/8/246 208/7/246 3/10/246
f 198/4/6 1/11/6 3/10/6
f 203/12/247 201/296/247 5/2/247
f 4/4/248 8/22/248 12/14/248
f 7/13/249 20/29/249 15/16/249
f 7/15/3 12/14/3 14/18/3
f 12/14/250 11/27/250 10/20/250
f 14/18/251 12/14/251 8/22/251
f 7/15/6 12/14/6 13/21/6
f 203/19/252 14/18/252 9/23/252
f 4/4/6 199/25/6 9/23/6
f 5/26/3 6/28/3 10/20/3
f 6/28/253 20/24/253 13/21/253
f 7/15/254 5/26/254 11/27/254
f 20/29/255 6/284/255 18/30/255
f 16/32/256 23/40/256 27/33/256
f 21/31/257 22/46/257 17/35/257
f 21/34/3 27/33/3 29/37/3
f 27/33/258 26/44/258 25/38/258
f 29/37/259 27/33/259 23/40/259
f 21/34/6 27/33/6 28/39/6
f 20/24/260 29/37/260 24/41/260
f 16/32/6 15/11/6 24/41/6
f 18/43/3 19/45/3 25/38/3
f 19/45/261 22/42/261 28/39/261
f 21/34/262 18/43/262 26/44/262
f 22/46/263 19/265/263 31/47/263
f 30/49/264 35/57/264 39/50/264
f 33/48/265 34/64/265 42/52/265
f 33/51/3 39/50/3 41/54/3
f 39/50/266 38/62/266 37/55/266
f 41/54/267 39/50/267 35/57/267
f 33/51/6 39/50/6 40/56/6
f 22/42/268 41/54/268 36/58/268
f 30/49/6 17/60/6 36/58/6
f 31/61/3 32/63/3 37/55/3
f 32/63/269 34/59/269 40/56/269
f 33/51/270 31/61/270 38/62/270
f 34/64/271 32/283/271 45/65/271
f 43/67/272 49/75/272 53/68/272
f 47/66/273 48/82/273 44/70/273
f 47/69/3 53/68/3 55/72/3
f 53/68/274 52/80/274 51/73/274
f 55/72/275 53/68/275 49/75/275
f 47/69/6 53/68/6 54/74/6
f 34/59/276 55/72/276 50/76/276
f 43/67/6 42/78/6 50/76/6
f 45/79/3 46/81/3 51/73/3
f 46/81/277 48/77/277 54/74/277
f 47/69/278 45/79/278 52/80/278
f 48/82/279 46/297/279 57/83/279
f 56/85/280 61/93/280 65/86/280
f 59/84/281 60/100/281 68/88/281
f 59/87/3 65/86/3 67/90/3
f 65/86/282 64/98/282 63/91/282
f 67/90/283 65/86/283 61/93/283
f 59/87/6 65/86/6 66/92/6
f 48/77/284 67/90/284 62/94/284
f 56/85/6 44/96/6 62/94/6
f 57/97/3 58/99/3 63/91/3
f 58/99/285 60/95/285 66/92/285
f 59/87/286 57/97/286 64/98/286
f 60/100/287 58/289/287 71/101/287
f 69/103/288 75/111/288 79/104/288
f 73/102/289 74/118/289 70/106/289
f 73/105/3 79/104/3 81/108/3
f 79/104/290 78/116/290 77/109/290
f 81/108/291 79/104/291 75/111/291
f 73/105/6 79/104/6 80/110/6
f 60/95/292 81/108/292 76/112/292
f 69/103/6 68/114/6 76/112/6
f 71/115/3 72/117/3 77/109/3
f 72/117/293 74/113/293 80/110/293
f 73/105/294 71/115/294 78/116/294
f 74/118/295 72/270/295 83/119/295
f 82/121/296 87/129/296 91/122/296
f 85/120/297 86/136/297 94/124/297
f 85/123/3 91/122/3 93/126/3
f 91/122/298 90/134/298 89/127/298
f 93/126/299 91/122/299 87/129/299
f 85/123/6 91/122/6 92/128/6
f 74/113/300 93/126/300 88/130/300
f 82/121/6 70/132/6 88/130/6
f 83/133/3 84/135/3 89/127/3
f 84/135/301 86/131/301 92/128/301
f 85/123/302 83/133/302 90/134/302
f 86/136/303 84/294/303 96/137/303
f 95/139/304 100/147/304 104/140/304
f 98/138/305 99/154/305 107/142/305
f 98/141/3 104/140/3 106/144/3
f 104/140/306 103/152/306 102/145/306
f 106/144/307 104/140/307 100/147/307
f 98/141/6 104/140/6 105/146/6
f 86/131/308 106/144/308 101/148/308
f 95/139/6 94/150/6 101/148/6
f 96/151/3 97/153/3 102/145/3
f 97/153/309 99/149/309 105/146/309
f 98/141/310 96/151/310 103/152/310
f 99/154/311 97/301/311 110/137/311
f 108/139/312 113/162/312 117/156/312
f 112/155/313 123/167/313 109/158/313
f 112/157/3 117/156/3 119/159/3
f 117/156/314 116/166/314 115/160/314
f 119/159/315 117/156/315 113/162/315
f 112/157/6 117/156/6 118/161/6
f 99/149/316 119/159/316 114/163/316
f 108/139/6 107/165/6 114/163/6
f 110/151/3 111/135/3 115/160/3
f 111/135/317 123/164/317 118/161/317
f 112/157/318 110/151/318 116/166/318
f 123/167/319 111/294/319 121/119/319
f 120/169/320 126/177/320 130/170/320
f 124/168/321 125/182/321 133/172/321
f 124/171/3 130/170/3 132/174/3
f 130/170/322 129/181/322 128/175/322
f 132/174/323 130/170/323 126/177/323
f 124/171/6 130/170/6 131/176/6
f 123/164/324 132/174/324 127/178/324
f 120/169/6 109/180/6 127/178/6
f 121/133/3 122/117/3 128/175/3
f 122/117/325 125/179/325 131/176/325
f 124/171/326 121/133/326 129/181/326
f 125/182/327 122/270/327 136/101/327
f 134/184/328 139/192/328 143/185/328
f 138/183/329 149/198/329 135/187/329
f 138/186/3 143/185/3 145/189/3
f 143/185/330 142/196/330 141/190/330
f 145/189/331 143/185/331 139/192/331
f 138/186/6 143/185/6 144/191/6
f 125/179/332 145/189/332 140/193/332
f 134/184/6 133/195/6 140/193/6
f 136/115/3 137/197/3 141/190/3
f 137/197/333 149/194/333 144/191/333
f 138/186/334 136/115/334 142/196/334
f 149/198/335 137/302/335 147/83/335
f 146/200/336 152/208/336 156/201/336
f 150/199/337 151/213/337 159/203/337
f 150/202/3 156/201/3 158/205/3
f 156/201/338 155/212/338 154/206/338
f 158/205/339 156/201/339 152/208/339
f 150/202/6 156/201/6 157/207/6
f 149/194/340 158/205/340 153/209/340
f 146/200/6 135/211/6 153/209/6
f 147/97/3 148/81/3 154/206/3
f 148/81/341 151/210/341 157/207/341
f 150/202/342 147/97/342 155/212/342
f 151/213/343 148/297/343 161/65/343
f 160/215/344 164/223/344 168/216/344
f 163/214/345 176/228/345 171/218/345
f 163/217/3 168/216/3 170/220/3
f 168/216/346 167/227/346 166/221/346
f 170/220/347 168/216/347 164/223/347
f 163/217/6 168/216/6 169/222/6
f 151/210/348 170/220/348 165/224/348
f 160/215/6 159/226/6 165/224/6
f 161/79/3 162/63/3 166/221/3
f 162/63/349 176/225/349 169/222/349
f 163/217/350 161/79/350 167/227/350
f 176/228/351 162/283/351 174/47/351
f 172/230/352 178/238/352 182/231/352
f 177/229/353 188/243/353 173/233/353
f 177/232/3 182/231/3 184/235/3
f 182/231/354 181/242/354 180/236/354
f 184/235/355 182/231/355 178/238/355
f 177/232/6 182/231/6 183/237/6
f 176/225/356 184/235/356 179/239/356
f 172/230/6 171/241/6 179/239/6
f 174/61/3 175/45/3 180/236/3
f 175/45/357 188/240/357 183/237/357
f 177/232/358 174/61/358 181/242/358
f 188/243/359 175/265/359 186/30/359
f 185/32/360 191/250/360 195/245/360
f 189/244/361 190/1/361 1/16/361
f 189/246/3 195/245/3 197/247/3
f 195/245/362 194/253/362 193/248/362
f 197/247/363 195/245/363 191/250/363
f 189/246/6 195/245/6 196/249/6
f 188/240/364 197/247/364 192/251/364
f 185/32/6 173/252/6 192/251/6
f 186/43/3 187/28/3 193/248/3
f 187/28/365 190/8/365 196/249/365
f 189/246/366 186/43/366 194/253/366
f 202/3/367 203/12/367 199/254/367
f 206/5/368 205/257/368 204/255/368
f 202/6/6 206/5/6 207/256/6
f 200/26/3 201/258/3 204/255/3
f 201/258/369 203/19/369 207/256/369
f 202/6/370 200/26/370 205/257/370
f 16/36/131 17/35/131 215/259/131
f 161/65/132 148/297/132 256/261/132
f 172/234/133 173/233/133 263/259/133
f 18/30/134 216/295/134 217/264/134
f 174/47/135 264/278/135 265/264/135
f 110/137/136 97/301/136 240/266/136
f 45/65/137 32/283/137 220/268/137
f 121/119/138 247/286/138 248/269/138
f 69/107/139 230/274/139 229/271/139
f 198/17/140 269/290/140 209/272/140
f 69/107/141 70/106/141 231/273/141
f 200/2/142 187/284/142 268/275/142
f 71/101/143 232/293/143 233/269/143
f 56/89/144 226/279/144 223/277/144
f 174/47/145 162/283/145 260/268/145
f 56/89/146 68/88/146 229/271/146
f 57/83/147 46/297/147 225/261/147
f 120/173/148 246/282/148 243/281/148
f 160/219/149 258/300/149 257/277/149
f 133/172/150 249/273/150 246/282/150
f 161/65/151 259/262/151 260/268/151
f 5/2/152 211/276/152 212/275/152
f 121/119/153 111/294/153 245/285/153
f 108/143/154 242/292/154 241/287/154
f 185/36/155 266/260/155 263/259/155
f 57/83/156 227/280/156 228/288/156
f 199/254/157 4/17/157 210/290/157
f 108/143/158 109/158/158 243/281/158
f 185/36/159 1/16/159 209/272/159
f 71/101/160 58/289/160 228/288/160
f 15/16/161 213/272/161 210/290/161
f 110/137/162 244/267/162 245/285/162
f 186/30/163 175/265/163 265/264/163
f 136/101/164 122/270/164 248/269/164
f 201/296/165 272/298/165 211/276/165
f 198/17/166 199/254/166 270/291/166
f 147/83/167 255/280/167 256/261/167
f 200/2/168 271/276/168 272/298/168
f 82/125/169 234/282/169 231/273/169
f 43/71/170 222/300/170 221/299/170
f 94/124/171 237/281/171 234/282/171
f 43/71/172 44/70/172 223/277/172
f 95/143/173 238/292/173 237/281/173
f 83/119/174 72/270/174 233/269/174
f 45/65/175 224/262/175 225/261/175
f 96/137/176 239/267/176 240/266/176
f 186/30/177 267/295/177 268/275/177
f 146/204/178 254/279/178 251/271/178
f 6/284/179 212/275/179 216/295/179
f 146/204/180 159/203/180 257/277/180
f 30/53/181 218/263/181 215/259/181
f 147/83/182 137/302/182 253/288/182
f 95/143/183 107/142/183 241/287/183
f 30/53/184 42/52/184 221/299/184
f 134/188/185 250/274/185 249/273/185
f 96/137/186 84/294/186 236/285/186
f 31/47/187 19/265/187 217/264/187
f 134/188/188 135/187/188 251/271/188
f 31/47/189 219/278/189 220/268/189
f 136/101/190 252/293/190 253/288/190
f 15/16/191 16/36/191 214/260/191
f 160/219/192 171/218/192 261/299/192
f 84/294/193 83/119/193 235/286/193
f 172/234/194 262/263/194 261/299/194
f 336/303/6 377/353/6 375/304/6
f 313/306/3 382/393/3 384/307/3
f 338/309/6 275/326/6 276/310/6
f 339/312/6 340/328/6 279/313/6
f 342/314/6 283/320/6 284/315/6
f 344/317/6 289/338/6 290/318/6
f 346/316/6 293/315/6 294/320/6
f 347/311/6 348/328/6 299/313/6
f 350/309/6 273/326/6 303/321/6
f 352/323/3 351/327/3 304/324/3
f 349/322/6 303/321/6 275/326/6
f 353/327/3 274/324/3 304/324/3
f 353/327/3 354/323/3 277/325/3
f 337/311/6 276/310/6 279/313/6
f 355/329/3 278/331/3 277/325/3
f 356/330/3 281/333/3 278/331/3
f 342/314/6 339/312/6 280/312/6
f 356/330/3 357/335/3 282/332/3
f 358/334/3 285/337/3 282/332/3
f 359/319/6 341/316/6 284/315/6
f 358/334/3 360/340/3 286/336/3
f 344/317/6 359/319/6 287/318/6
f 361/339/3 288/341/3 286/336/3
f 362/339/3 291/341/3 288/341/3
f 343/319/6 290/318/6 293/315/6
f 363/340/3 292/336/3 291/341/3
f 363/340/3 364/334/3 295/337/3
f 345/314/6 294/320/6 297/312/6
f 364/334/3 366/335/3 296/332/3
f 348/328/6 365/312/6 297/312/6
f 367/330/3 298/333/3 296/332/3
f 368/329/3 301/331/3 298/333/3
f 350/309/6 347/311/6 300/310/6
f 352/323/3 302/325/3 301/331/3
f 327/342/3 390/399/3 392/343/3
f 318/344/3 374/390/3 376/345/3
f 311/342/3 386/396/3 388/347/3
f 325/349/6 395/355/6 393/350/6
f 335/352/6 379/356/6 377/353/6
f 309/308/3 392/343/3 394/354/3
f 324/352/6 397/363/6 395/355/6
f 334/349/6 381/364/6 379/356/6
f 307/357/3 396/360/3 398/358/3
f 310/306/3 394/354/3 396/360/3
f 316/359/3 378/391/3 380/361/3
f 305/346/3 400/401/3 369/362/3
f 323/303/6 399/400/6 397/363/6
f 332/351/6 383/392/6 381/364/6
f 306/344/195 338/375/195 337/365/195
f 307/357/196 308/359/196 340/366/196
f 310/306/197 342/370/197 341/368/197
f 312/348/198 344/382/198 343/369/198
f 314/308/199 346/368/199 345/370/199
f 315/346/200 316/359/200 348/366/200
f 318/344/201 350/375/201 349/371/201
f 319/373/202 351/376/202 352/374/202
f 317/372/203 349/371/203 338/375/203
f 321/373/204 353/376/204 351/376/204
f 322/305/205 354/374/205 353/376/205
f 305/346/206 337/365/206 340/366/206
f 323/303/207 355/378/207 354/374/207
f 323/303/208 324/352/208 356/377/208
f 307/357/209 339/367/209 342/370/209
f 324/352/210 325/349/210 357/379/210
f 325/349/211 326/351/211 358/380/211
f 309/308/212 341/368/212 359/369/212
f 328/381/213 360/384/213 358/380/213
f 327/342/214 359/369/214 344/382/214
f 329/383/215 361/385/215 360/384/215
f 330/383/216 362/385/216 361/385/216
f 311/342/217 343/369/217 346/368/217
f 331/381/218 363/384/218 362/385/218
f 332/351/219 364/380/219 363/384/219
f 313/306/220 345/370/220 365/367/220
f 334/349/221 366/379/221 364/380/221
f 316/359/222 333/357/222 365/367/222
f 335/352/223 367/377/223 366/379/223
f 335/352/224 336/303/224 368/378/224
f 315/346/225 347/365/225 350/375/225
f 336/303/226 320/305/226 352/374/226
f 373/386/371 374/390/371 372/387/371
f 371/388/372 372/387/372 369/362/372
f 375/304/373 376/345/373 374/390/373
f 377/353/374 378/391/374 376/345/374
f 379/356/375 380/361/375 378/391/375
f 381/364/376 382/393/376 380/361/376
f 383/392/377 384/307/377 382/393/377
f 385/394/378 386/396/378 384/307/378
f 387/395/379 388/347/379 386/396/379
f 389/397/380 390/399/380 388/347/380
f 391/398/381 392/343/381 390/399/381
f 393/350/382 394/354/382 392/343/382
f 395/355/383 396/360/383 394/354/383
f 397/363/384 398/358/384 396/360/384
f 399/400/385 400/401/385 398/358/385
f 370/389/386 369/362/386 400/401/386
f 326/351/6 393/350/6 391/398/6
f 315/346/3 376/345/3 378/391/3
f 312/348/3 388/347/3 390/399/3
f 317/372/3 372/387/3 374/390/3
f 328/381/6 391/398/6 389/397/6
f 320/305/6 375/304/6 373/386/6
f 329/383/6 389/397/6 387/395/6
f 306/344/3 369/362/3 372/387/3
f 314/308/3 384/307/3 386/396/3
f 319/373/6 373/386/6 371/388/6
f 330/383/6 387/395/6 385/394/6
f 321/373/6 371/388/6 370/389/6
f 331/381/6 385/394/6 383/392/6
f 308/359/3 398/358/3 400/401/3
f 333/357/3 380/361/3 382/393/3
f 322/305/6 370/389/6 399/400/6
