# Blender 4.4.0
# www.blender.org
mtllib Prop_Cupboard_02.mtl
o Prop_Cupboard_02
v -0.200000 0.600000 -0.160930
v -0.200000 0.600000 0.160239
v 0.200000 0.600000 0.160239
v 0.200000 0.600000 -0.160930
v -0.200000 0.585231 -0.160930
v -0.200000 0.585231 0.160239
v 0.200000 0.585231 0.160239
v 0.200000 0.585231 -0.160930
v -0.200965 0.014769 -0.159654
v -0.200965 0.014769 0.159654
v 0.200965 0.014769 0.159654
v 0.200965 0.014769 -0.159654
v -0.200965 0.000000 -0.159654
v -0.200965 0.000000 0.159654
v 0.200965 0.000000 0.159654
v 0.200965 0.000000 -0.159654
v -0.198941 -0.000000 -0.160640
v 0.198941 -0.000000 -0.160640
v -0.198941 0.585231 -0.160640
v 0.198941 0.585231 -0.160640
v -0.198941 0.585231 -0.159654
v -0.198941 -0.000000 -0.159654
v 0.198941 -0.000000 -0.159654
v 0.198941 0.585231 -0.159654
v -0.200000 0.014769 0.158963
v 0.200000 0.014769 0.158963
v -0.200000 0.014769 -0.159654
v 0.200000 0.014769 -0.159654
v -0.200000 0.585231 -0.159654
v -0.200000 0.585231 0.158963
v 0.200000 0.585231 0.158963
v 0.200000 0.585231 -0.159654
v -0.167651 0.014769 -0.159654
v -0.167651 0.014769 0.158963
v 0.167651 0.014769 0.158963
v 0.167651 0.014769 -0.159654
v -0.167651 0.585231 -0.159654
v -0.167651 0.585231 0.158963
v 0.167651 0.585231 0.158963
v 0.167651 0.585231 -0.159654
v -0.167651 0.534769 0.156027
v 0.167651 0.534769 0.156027
v -0.167651 0.585231 0.156027
v 0.167651 0.585231 0.156027
v -0.167651 0.534769 -0.158039
v 0.167651 0.534769 -0.158039
v -0.167651 0.585231 -0.158039
v 0.167651 0.585231 -0.158039
v -0.167651 0.292616 0.132191
v 0.167651 0.292616 0.132191
v -0.167651 0.292616 -0.159654
v 0.167651 0.292616 -0.159654
v -0.167651 0.310098 -0.159654
v -0.167651 0.310098 0.132191
v 0.167651 0.310098 0.132191
v 0.167651 0.310098 -0.159654
vn -0.0000 1.0000 -0.0000
vn -0.0000 -1.0000 -0.0000
vn -0.0000 -0.0000 1.0000
vn 1.0000 -0.0000 -0.0000
vn -1.0000 -0.0000 -0.0000
vn -0.0000 -0.0000 -1.0000
vt 0.618115 0.991128
vt 0.617555 0.991128
vt 0.574167 0.960603
vt 0.575008 0.960603
vt 0.617555 0.956180
vt 0.618115 0.956180
vt 0.575010 0.890751
vt 0.574165 0.890751
vt 0.617554 0.946356
vt 0.618116 0.946356
vt 0.618116 0.981303
vt 0.617554 0.981303
vt 0.610419 0.952243
vt 0.613064 0.880583
vt 0.610419 0.880583
vt 0.575006 0.888943
vt 0.574169 0.960603
vt 0.574169 0.888943
vt 0.575006 0.960603
vt 0.575008 0.890751
vt 0.574167 0.890751
vt 0.574940 0.960603
vt 0.574940 0.890751
vt 0.574235 0.960603
vt 0.574235 0.890751
vt 0.613973 0.946238
vt 0.610866 0.940059
vt 0.613973 0.940059
vt 0.610866 0.946238
vt 0.611838 0.893006
vt 0.612205 0.893006
vt 0.612205 0.901767
vt 0.611838 0.928722
vt 0.610710 0.901767
vt 0.613064 0.952243
vt 0.612205 0.928722
s 0
usemtl Texture_Map
f 3/1/1 1/2/1 2/2/1
f 5/3/2 7/4/2 6/3/2
f 6/5/3 3/1/3 2/2/3
f 7/6/4 4/1/4 3/1/4
f 5/5/5 2/2/5 1/2/5
f 8/6/6 1/2/6 4/1/6
f 11/7/1 9/8/1 10/8/1
f 13/9/2 15/10/2 14/9/2
f 14/9/3 11/11/3 10/12/3
f 15/10/4 12/11/4 11/11/4
f 13/9/5 10/12/5 9/12/5
f 16/10/6 9/12/6 12/11/6
f 19/13/6 18/14/6 17/15/6
f 23/16/3 21/17/3 22/18/3
f 22/18/5 19/17/5 17/18/5
f 23/16/2 17/18/2 18/16/2
f 24/19/4 18/16/4 20/19/4
f 28/20/4 31/4/4 26/20/4
f 25/21/5 29/3/5 27/21/5
f 39/22/5 36/23/5 35/23/5
f 37/24/4 34/25/4 33/25/4
f 37/24/6 27/21/6 29/3/6
f 38/24/1 29/3/1 30/3/1
f 33/25/2 25/21/2 27/21/2
f 34/25/3 30/3/3 25/21/3
f 36/23/6 32/4/6 28/20/6
f 40/22/1 31/4/1 32/4/1
f 35/23/2 28/20/2 26/20/2
f 39/22/3 26/20/3 31/4/3
f 44/26/3 41/27/3 42/28/3
f 45/27/6 48/26/6 46/28/6
f 41/27/5 47/29/5 45/27/5
f 44/26/1 47/29/1 43/29/1
f 42/28/4 48/26/4 44/26/4
f 41/27/2 46/28/2 42/28/2
f 51/30/2 50/31/2 49/30/2
f 55/32/1 53/33/1 54/34/1
f 50/31/3 54/34/3 49/30/3
f 3/1/1 4/1/1 1/2/1
f 5/3/2 8/4/2 7/4/2
f 6/5/3 7/6/3 3/1/3
f 7/6/4 8/6/4 4/1/4
f 5/5/5 6/5/5 2/2/5
f 8/6/6 5/5/6 1/2/6
f 11/7/1 12/7/1 9/8/1
f 13/9/2 16/10/2 15/10/2
f 14/9/3 15/10/3 11/11/3
f 15/10/4 16/10/4 12/11/4
f 13/9/5 14/9/5 10/12/5
f 16/10/6 13/9/6 9/12/6
f 19/13/6 20/35/6 18/14/6
f 23/16/3 24/19/3 21/17/3
f 22/18/5 21/17/5 19/17/5
f 23/16/2 22/18/2 17/18/2
f 24/19/4 23/16/4 18/16/4
f 28/20/4 32/4/4 31/4/4
f 25/21/5 30/3/5 29/3/5
f 39/22/5 40/22/5 36/23/5
f 37/24/4 38/24/4 34/25/4
f 37/24/6 33/25/6 27/21/6
f 38/24/1 37/24/1 29/3/1
f 33/25/2 34/25/2 25/21/2
f 34/25/3 38/24/3 30/3/3
f 36/23/6 40/22/6 32/4/6
f 40/22/1 39/22/1 31/4/1
f 35/23/2 36/23/2 28/20/2
f 39/22/3 35/23/3 26/20/3
f 44/26/3 43/29/3 41/27/3
f 45/27/6 47/29/6 48/26/6
f 41/27/5 43/29/5 47/29/5
f 44/26/1 48/26/1 47/29/1
f 42/28/4 46/28/4 48/26/4
f 41/27/2 45/27/2 46/28/2
f 51/30/2 52/31/2 50/31/2
f 55/32/1 56/36/1 53/33/1
f 50/31/3 55/32/3 54/34/3
o Prop_Cupboard_Door_02
v -0.124240 0.050229 0.148319
v 0.124240 0.050229 0.148319
v -0.124240 0.499308 0.148319
v 0.124240 0.499308 0.148319
v 0.085869 0.096498 0.150487
v -0.085869 0.096498 0.150487
v 0.085869 0.453040 0.150487
v -0.085869 0.453040 0.150487
v 0.094043 0.088324 0.148319
v -0.094043 0.088324 0.148319
v 0.094043 0.461213 0.148319
v -0.094043 0.461213 0.148319
v -0.124240 0.050229 0.141517
v 0.124240 0.050229 0.141517
v -0.124240 0.499308 0.141517
v 0.124240 0.499308 0.141517
v -0.124240 0.014769 0.152985
v 0.124240 0.014769 0.152985
v 0.124240 0.534769 0.152985
v -0.124240 0.534769 0.152985
v -0.124240 0.050229 0.152985
v -0.124240 0.499308 0.152985
v 0.124240 0.050229 0.152985
v 0.124240 0.499308 0.152985
v -0.124240 0.014769 0.138709
v 0.124240 0.014769 0.138709
v 0.124240 0.534769 0.138709
v -0.124240 0.534769 0.138709
v -0.124240 0.499308 0.138709
v 0.124240 0.499308 0.138709
v -0.124240 0.050229 0.138709
v 0.124240 0.050229 0.138709
v -0.167651 0.014769 0.154147
v 0.167651 0.014769 0.154147
v -0.167651 0.534769 0.154147
v 0.167651 0.534769 0.154147
v -0.124240 0.014769 0.154147
v 0.124240 0.014769 0.154147
v 0.124240 0.534769 0.154147
v -0.124240 0.534769 0.154147
v -0.167651 0.014769 0.137546
v 0.124240 0.014769 0.137546
v 0.167651 0.014769 0.137546
v 0.167651 0.534769 0.137546
v -0.124240 0.534769 0.137546
v -0.167651 0.534769 0.137546
v -0.124240 0.014769 0.137546
v 0.124240 0.534769 0.137546
v -0.158513 0.281823 0.154141
v -0.134060 0.281823 0.154141
v -0.158513 0.306277 0.154141
v -0.134060 0.306277 0.154141
v -0.146286 0.303623 0.154277
v -0.146286 0.284476 0.154277
v -0.146286 0.291892 0.154141
v -0.146286 0.296208 0.154141
v -0.134060 0.296534 0.154141
v -0.134060 0.291566 0.154141
v -0.144128 0.296208 0.154141
v -0.148444 0.296208 0.154141
v -0.148444 0.291892 0.154141
v -0.144128 0.291892 0.154141
v -0.158513 0.291566 0.154141
v -0.158513 0.296534 0.154141
v -0.148770 0.306277 0.154141
v -0.143802 0.306277 0.154141
v -0.143802 0.281823 0.154141
v -0.148770 0.281823 0.154141
v -0.144128 0.294050 0.154141
v -0.148444 0.294050 0.154141
v -0.136713 0.294050 0.154277
v -0.155860 0.294050 0.154277
v -0.158513 0.281823 0.156912
v -0.134060 0.281823 0.156912
v -0.158513 0.306277 0.156912
v -0.134060 0.306277 0.156912
v -0.146286 0.303623 0.156775
v -0.146286 0.284476 0.156775
v -0.134060 0.296534 0.156912
v -0.134060 0.291566 0.156912
v -0.158513 0.291566 0.156912
v -0.158513 0.296534 0.156912
v -0.148770 0.306277 0.156912
v -0.143802 0.306277 0.156912
v -0.143802 0.281823 0.156912
v -0.148770 0.281823 0.156912
v -0.136713 0.294050 0.156775
v -0.155860 0.294050 0.156775
v -0.143278 0.301313 0.156878
v -0.149295 0.301313 0.156878
v -0.153550 0.297058 0.156878
v -0.153550 0.291041 0.156878
v -0.149295 0.286786 0.156878
v -0.143278 0.286786 0.156878
v -0.139023 0.291041 0.156878
v -0.139023 0.297058 0.156878
v -0.143278 0.301313 0.164734
v -0.149295 0.301313 0.164734
v -0.153550 0.297058 0.164734
v -0.153550 0.291041 0.164734
v -0.149295 0.286786 0.164734
v -0.143278 0.286786 0.164734
v -0.139023 0.291041 0.164734
v -0.139023 0.297058 0.164734
v -0.139866 0.296705 0.160806
v -0.140780 0.294868 0.162806
v -0.141694 0.293030 0.160806
v -0.140780 0.294868 0.158806
v -0.133651 0.290158 0.160806
v -0.135403 0.289193 0.162806
v -0.137155 0.288228 0.160806
v -0.135403 0.289193 0.158806
v -0.131719 0.282561 0.160806
v -0.133719 0.282561 0.162806
v -0.135719 0.282561 0.160806
v -0.133719 0.282561 0.158806
v -0.133651 0.274964 0.160806
v -0.135403 0.275929 0.162806
v -0.137155 0.276894 0.160806
v -0.135403 0.275929 0.158806
v -0.138968 0.269363 0.160806
v -0.140003 0.271074 0.162806
v -0.141038 0.272786 0.160806
v -0.140003 0.271074 0.158806
v -0.146286 0.267297 0.160806
v -0.146286 0.269297 0.162806
v -0.146286 0.271297 0.160806
v -0.146286 0.269297 0.158806
v -0.153605 0.269363 0.160806
v -0.152570 0.271074 0.162806
v -0.151535 0.272786 0.160806
v -0.152570 0.271074 0.158806
v -0.158922 0.274964 0.160806
v -0.157170 0.275929 0.162806
v -0.155418 0.276894 0.160806
v -0.157170 0.275929 0.158806
v -0.160854 0.282561 0.160806
v -0.158854 0.282561 0.162806
v -0.156854 0.282561 0.160806
v -0.158854 0.282561 0.158806
v -0.158922 0.290158 0.160806
v -0.157170 0.289193 0.162806
v -0.155418 0.288228 0.160806
v -0.157170 0.289193 0.158806
v -0.152675 0.296739 0.160806
v -0.151765 0.294897 0.162806
v -0.150856 0.293055 0.160806
v -0.151765 0.294897 0.158806
vn -0.0000 -0.0000 1.0000
vn -0.0000 -0.2564 0.9666
vn -0.0000 0.2564 0.9666
vn -0.2564 -0.0000 0.9666
vn 0.2564 -0.0000 0.9666
vn -0.0000 -0.0000 -1.0000
vn -0.0000 -1.0000 -0.0000
vn -0.0000 1.0000 -0.0000
vn -1.0000 -0.0000 -0.0000
vn 1.0000 -0.0000 -0.0000
vn 0.0570 0.0018 -0.9984
vn 0.0184 -0.0000 -0.9998
vn -0.0184 -0.0000 -0.9998
vn -0.0000 -0.0184 -0.9998
vn -0.0000 0.0184 -0.9998
vn 0.0570 -0.0018 -0.9984
vn -0.0018 0.0570 -0.9984
vn 0.0018 0.0570 -0.9984
vn 0.6834 -0.7300 -0.0000
vn 0.7300 0.6835 -0.0000
vn -0.7300 0.6835 -0.0000
vn -0.6835 0.7300 -0.0000
vn -0.6835 -0.7300 -0.0000
vn -0.7300 -0.6835 -0.0000
vn 0.6834 0.7300 -0.0000
vn 0.7300 -0.6834 -0.0000
vn 0.7071 0.7071 -0.0000
vn 0.7071 -0.7071 -0.0000
vn -0.7071 -0.7071 -0.0000
vn -0.7071 0.7071 -0.0000
vn 0.5222 0.4957 -0.6940
vn 0.5222 0.4957 0.6940
vn -0.5227 -0.4953 0.6939
vn -0.5227 -0.4953 -0.6939
vn 0.6964 0.1771 -0.6954
vn 0.6964 0.1771 0.6954
vn -0.6965 -0.1768 0.6954
vn -0.6965 -0.1768 -0.6954
vn 0.6960 -0.1767 -0.6960
vn 0.6960 -0.1767 0.6960
vn -0.6960 0.1763 0.6960
vn -0.6960 0.1763 -0.6960
vn 0.5216 -0.4943 -0.6954
vn 0.5216 -0.4943 0.6954
vn -0.5222 0.4935 0.6955
vn -0.5222 0.4935 -0.6955
vn 0.1959 -0.6927 -0.6941
vn 0.1959 -0.6927 0.6941
vn -0.1964 0.6925 0.6942
vn -0.1964 0.6925 -0.6942
vn -0.1957 -0.6934 -0.6934
vn -0.1957 -0.6934 0.6934
vn 0.1961 0.6934 0.6934
vn 0.1961 0.6934 -0.6934
vn -0.5220 -0.4955 -0.6942
vn -0.5220 -0.4955 0.6942
vn 0.5226 0.4951 0.6941
vn 0.5226 0.4951 -0.6941
vn -0.6964 -0.1771 -0.6954
vn -0.6964 -0.1771 0.6954
vn 0.6965 0.1768 0.6954
vn 0.6965 0.1768 -0.6954
vn -0.6960 0.1767 -0.6960
vn -0.6960 0.1767 0.6960
vn 0.6960 -0.1763 0.6960
vn 0.6960 -0.1763 -0.6960
vn -0.5216 0.4943 -0.6954
vn -0.5216 0.4943 0.6954
vn 0.5222 -0.4935 0.6955
vn 0.5222 -0.4935 -0.6955
vn 0.0018 -0.0570 -0.9984
vn -0.0018 -0.0570 -0.9984
vn -0.0570 -0.0018 -0.9984
vn -0.0570 0.0018 -0.9984
vn 0.6835 -0.7300 -0.0000
vn 0.7300 0.6834 -0.0000
vn -0.7300 0.6834 -0.0000
vn -0.6834 -0.7300 -0.0000
vn 0.7300 -0.6835 -0.0000
vn 0.0266 -0.0266 0.9993
vn 0.0266 0.0266 0.9993
vn -0.0266 0.0266 0.9993
vn -0.0266 -0.0266 0.9993
vn 0.5216 0.4943 -0.6954
vn 0.5216 0.4943 0.6954
vn -0.5222 -0.4935 0.6955
vn -0.5222 -0.4935 -0.6955
vn 0.6960 0.1767 -0.6960
vn 0.6960 0.1767 0.6960
vn -0.6960 -0.1763 0.6960
vn -0.6960 -0.1763 -0.6960
vn 0.6964 -0.1771 -0.6954
vn 0.6964 -0.1771 0.6954
vn -0.6965 0.1768 0.6954
vn -0.6965 0.1768 -0.6954
vn 0.5220 -0.4955 -0.6942
vn 0.5221 -0.4955 0.6942
vn -0.5226 0.4951 0.6941
vn -0.5226 0.4951 -0.6941
vn 0.1957 -0.6934 -0.6934
vn 0.1957 -0.6934 0.6934
vn -0.1961 0.6934 0.6934
vn -0.1961 0.6934 -0.6934
vn -0.1959 -0.6927 -0.6941
vn -0.1959 -0.6927 0.6941
vn 0.1964 0.6925 0.6942
vn 0.1964 0.6925 -0.6942
vn -0.5216 -0.4943 -0.6954
vn -0.5216 -0.4943 0.6954
vn 0.5222 0.4935 0.6955
vn 0.5222 0.4935 -0.6955
vn -0.6960 -0.1767 -0.6960
vn -0.6960 -0.1767 0.6960
vn 0.6960 0.1763 0.6960
vn 0.6960 0.1763 -0.6960
vn -0.6964 0.1771 -0.6954
vn -0.6964 0.1771 0.6954
vn 0.6965 -0.1768 0.6954
vn 0.6965 -0.1768 -0.6954
vn -0.5222 0.4957 -0.6940
vn -0.5222 0.4957 0.6940
vn 0.5227 -0.4953 0.6939
vn 0.5227 -0.4953 -0.6939
vt 0.613215 0.886394
vt 0.611624 0.930052
vt 0.611624 0.886394
vt 0.611548 0.885394
vt 0.613570 0.880729
vt 0.613291 0.885394
vt 0.613291 0.931053
vt 0.611268 0.935717
vt 0.611548 0.931053
vt 0.611268 0.880729
vt 0.613570 0.935717
vt 0.613215 0.930052
vt 0.611268 0.940059
vt 0.613570 0.876387
vt 0.611268 0.876387
vt 0.613570 0.940059
vt 0.613973 0.940059
vt 0.613973 0.876387
vt 0.610866 0.940059
vt 0.610866 0.876387
vt 0.596161 0.626297
vt 0.595433 0.637675
vt 0.596186 0.638056
vt 0.596347 0.651757
vt 0.596186 0.643097
vt 0.596161 0.654855
vt 0.597261 0.643477
vt 0.596533 0.654855
vt 0.597261 0.654855
vt 0.595433 0.643477
vt 0.595433 0.654855
vt 0.596508 0.643097
vt 0.597063 0.640576
vt 0.596508 0.640576
vt 0.595631 0.640576
vt 0.596186 0.640576
vt 0.596508 0.638056
vt 0.596347 0.629395
vt 0.596347 0.638056
vt 0.596347 0.643097
vt 0.597261 0.637675
vt 0.596533 0.626297
vt 0.595433 0.626297
vt 0.597261 0.626297
vt 0.596572 0.632094
vt 0.596122 0.632094
vt 0.595804 0.637063
vt 0.595804 0.644090
vt 0.596122 0.649059
vt 0.596572 0.649059
vt 0.596890 0.644090
vt 0.596890 0.637063
vt 0.597291 0.636031
vt 0.596759 0.641532
vt 0.596827 0.643678
vt 0.596690 0.639386
vt 0.597160 0.634904
vt 0.597436 0.627159
vt 0.597030 0.633777
vt 0.597286 0.627159
vt 0.597160 0.619414
vt 0.597030 0.620541
vt 0.597137 0.627159
vt 0.597291 0.618287
vt 0.596817 0.613744
vt 0.596739 0.615743
vt 0.596894 0.611746
vt 0.596347 0.611669
vt 0.596347 0.614005
vt 0.595800 0.611746
vt 0.596347 0.609333
vt 0.595877 0.613744
vt 0.595403 0.618287
vt 0.595955 0.615743
vt 0.595533 0.619414
vt 0.595258 0.627159
vt 0.595664 0.620541
vt 0.595408 0.627159
vt 0.595533 0.634904
vt 0.595664 0.633777
vt 0.595557 0.627159
vt 0.595403 0.636031
vt 0.595937 0.641566
vt 0.596005 0.639414
vt 0.595869 0.643716
s 0
usemtl Texture_Map
f 61/37/7 64/38/7 62/39/7
f 66/40/7 58/41/7 65/42/7
f 67/43/7 59/44/7 68/45/7
f 68/45/7 57/46/7 66/40/7
f 65/42/7 60/47/7 67/43/7
f 62/39/8 65/42/8 61/37/8
f 63/48/9 68/45/9 64/38/9
f 64/38/10 66/40/10 62/39/10
f 61/37/11 67/43/11 63/48/11
f 71/44/12 70/41/12 69/46/12
f 80/47/7 76/49/7 78/44/7
f 74/50/7 77/46/7 73/51/7
f 84/49/12 86/47/12 85/44/12
f 87/46/12 82/50/12 81/51/12
f 85/44/13 80/47/13 78/44/13
f 81/51/13 74/50/13 73/51/13
f 83/52/14 76/49/14 75/52/14
f 88/41/14 77/46/14 79/41/14
f 92/53/7 94/50/7 90/54/7
f 102/55/12 103/51/12 97/56/12
f 104/52/12 99/54/12 98/50/12
f 102/55/15 89/56/15 91/55/15
f 96/49/16 103/51/16 101/49/16
f 101/49/14 91/55/14 96/49/14
f 97/56/13 93/51/13 89/56/13
f 98/50/15 95/52/15 104/52/15
f 100/53/14 95/52/14 92/53/14
f 96/49/7 89/56/7 93/51/7
f 100/53/16 90/54/16 99/54/16
f 98/50/13 90/54/13 94/50/13
f 124/57/12 119/58/12 117/59/12
f 109/60/17 116/61/17 121/62/17
f 113/63/12 122/64/12 108/65/12
f 121/62/12 120/66/12 107/67/12
f 115/68/18 127/69/18 125/70/18
f 128/71/19 116/61/19 126/72/19
f 118/73/20 110/74/20 111/75/20
f 109/60/21 115/68/21 112/76/21
f 114/77/12 123/78/12 118/73/12
f 117/59/22 110/74/22 124/57/22
f 128/71/23 117/59/23 119/58/23
f 118/73/24 127/69/24 114/77/24
f 127/69/25 135/63/25 143/69/25
f 119/58/15 129/79/15 137/58/15
f 109/60/26 139/62/26 133/60/26
f 109/60/27 140/64/27 122/64/27
f 124/57/13 129/79/13 105/79/13
f 128/71/28 137/58/28 144/71/28
f 107/67/14 139/62/14 121/62/14
f 107/67/15 138/66/15 131/67/15
f 114/77/16 130/80/16 106/80/16
f 106/80/13 141/78/13 123/78/13
f 128/71/29 138/66/29 120/66/29
f 108/65/16 135/63/16 113/63/16
f 110/74/30 141/78/30 134/74/30
f 127/69/31 136/77/31 114/77/31
f 122/64/14 132/65/14 108/65/14
f 110/74/32 142/57/32 124/57/32
f 134/74/7 143/69/7 133/60/7
f 150/81/13 157/82/13 149/82/13
f 148/83/15 155/84/15 147/84/15
f 146/85/14 153/86/14 145/86/14
f 145/86/33 160/87/33 152/87/33
f 151/88/34 158/81/34 150/81/34
f 149/82/35 156/83/35 148/83/35
f 147/84/36 154/85/36 146/85/36
f 155/84/7 157/82/7 159/88/7
f 152/87/16 159/88/16 151/88/16
f 165/89/37 164/90/37 161/91/37
f 162/90/38 165/89/38 161/91/38
f 163/92/39 166/93/39 162/90/39
f 168/93/40 163/92/40 164/90/40
f 169/94/41 168/93/41 165/89/41
f 166/93/42 169/94/42 165/89/42
f 167/95/43 170/96/43 166/93/43
f 172/96/44 167/95/44 168/93/44
f 169/94/45 176/97/45 172/96/45
f 174/97/46 169/94/46 170/96/46
f 175/98/47 170/96/47 171/99/47
f 172/96/48 175/98/48 171/99/48
f 173/100/49 180/101/49 176/97/49
f 178/101/50 173/100/50 174/97/50
f 179/102/51 174/97/51 175/98/51
f 176/97/52 179/102/52 175/98/52
f 177/103/53 184/104/53 180/101/53
f 182/104/54 177/103/54 178/101/54
f 183/105/55 178/101/55 179/102/55
f 180/101/56 183/105/56 179/102/56
f 185/106/57 184/104/57 181/107/57
f 182/104/58 185/106/58 181/107/58
f 183/105/59 186/108/59 182/104/59
f 188/108/60 183/105/60 184/104/60
f 189/109/61 188/108/61 185/106/61
f 186/108/62 189/109/62 185/106/62
f 187/110/63 190/111/63 186/108/63
f 192/111/64 187/110/64 188/108/64
f 193/112/65 192/111/65 189/109/65
f 190/111/66 193/112/66 189/109/66
f 191/113/67 194/114/67 190/111/67
f 196/114/68 191/113/68 192/111/68
f 193/112/69 200/115/69 196/114/69
f 198/115/70 193/112/70 194/114/70
f 199/116/71 194/114/71 195/117/71
f 196/114/72 199/116/72 195/117/72
f 197/118/73 204/119/73 200/115/73
f 202/119/74 197/118/74 198/115/74
f 203/120/75 198/115/75 199/116/75
f 200/115/76 203/120/76 199/116/76
f 61/37/7 63/48/7 64/38/7
f 66/40/7 57/46/7 58/41/7
f 67/43/7 60/47/7 59/44/7
f 68/45/7 59/44/7 57/46/7
f 65/42/7 58/41/7 60/47/7
f 62/39/8 66/40/8 65/42/8
f 63/48/9 67/43/9 68/45/9
f 64/38/10 68/45/10 66/40/10
f 61/37/11 65/42/11 67/43/11
f 71/44/12 72/47/12 70/41/12
f 80/47/7 75/52/7 76/49/7
f 74/50/7 79/41/7 77/46/7
f 84/49/12 83/52/12 86/47/12
f 87/46/12 88/41/12 82/50/12
f 85/44/13 86/47/13 80/47/13
f 81/51/13 82/50/13 74/50/13
f 83/52/14 84/49/14 76/49/14
f 88/41/14 87/46/14 77/46/14
f 92/53/7 95/52/7 94/50/7
f 102/55/12 101/49/12 103/51/12
f 104/52/12 100/53/12 99/54/12
f 102/55/15 97/56/15 89/56/15
f 96/49/16 93/51/16 103/51/16
f 101/49/14 102/55/14 91/55/14
f 97/56/13 103/51/13 93/51/13
f 98/50/15 94/50/15 95/52/15
f 100/53/14 104/52/14 95/52/14
f 96/49/7 91/55/7 89/56/7
f 100/53/16 92/53/16 90/54/16
f 98/50/13 99/54/13 90/54/13
f 124/57/12 105/79/12 119/58/12
f 109/60/21 112/76/21 116/61/21
f 113/63/12 115/68/12 122/64/12
f 121/62/12 116/61/12 120/66/12
f 115/68/77 113/63/77 127/69/77
f 128/71/78 120/66/78 116/61/78
f 118/73/79 123/78/79 110/74/79
f 109/60/80 122/64/80 115/68/80
f 114/77/12 106/80/12 123/78/12
f 117/59/20 111/75/20 110/74/20
f 128/71/19 126/72/19 117/59/19
f 118/73/18 125/70/18 127/69/18
f 127/69/81 113/63/81 135/63/81
f 119/58/15 105/79/15 129/79/15
f 109/60/82 121/62/82 139/62/82
f 109/60/83 133/60/83 140/64/83
f 124/57/13 142/57/13 129/79/13
f 128/71/28 119/58/28 137/58/28
f 107/67/14 131/67/14 139/62/14
f 107/67/15 120/66/15 138/66/15
f 114/77/16 136/77/16 130/80/16
f 106/80/13 130/80/13 141/78/13
f 128/71/84 144/71/84 138/66/84
f 108/65/16 132/65/16 135/63/16
f 110/74/30 123/78/30 141/78/30
f 127/69/31 143/69/31 136/77/31
f 122/64/14 140/64/14 132/65/14
f 110/74/85 134/74/85 142/57/85
f 131/67/7 138/66/7 139/62/7
f 138/66/86 144/71/86 139/62/86
f 144/71/87 137/58/87 142/57/87
f 137/58/7 129/79/7 142/57/7
f 142/57/87 134/74/87 144/71/87
f 134/74/88 141/78/88 143/69/88
f 141/78/7 130/80/7 136/77/7
f 143/69/88 141/78/88 136/77/88
f 143/69/89 135/63/89 140/64/89
f 135/63/7 132/65/7 140/64/7
f 140/64/89 133/60/89 143/69/89
f 133/60/86 139/62/86 144/71/86
f 133/60/7 144/71/7 134/74/7
f 150/81/13 158/81/13 157/82/13
f 148/83/15 156/83/15 155/84/15
f 146/85/14 154/85/14 153/86/14
f 145/86/33 153/86/33 160/87/33
f 151/88/34 159/88/34 158/81/34
f 149/82/35 157/82/35 156/83/35
f 147/84/36 155/84/36 154/85/36
f 153/86/7 154/85/7 155/84/7
f 155/84/7 156/83/7 157/82/7
f 157/82/7 158/81/7 159/88/7
f 159/88/7 160/87/7 153/86/7
f 153/86/7 155/84/7 159/88/7
f 152/87/16 160/87/16 159/88/16
f 165/89/90 168/93/90 164/90/90
f 162/90/91 166/93/91 165/89/91
f 163/92/92 167/95/92 166/93/92
f 168/93/93 167/95/93 163/92/93
f 169/94/94 172/96/94 168/93/94
f 166/93/95 170/96/95 169/94/95
f 167/95/96 171/99/96 170/96/96
f 172/96/97 171/99/97 167/95/97
f 169/94/98 173/100/98 176/97/98
f 174/97/99 173/100/99 169/94/99
f 175/98/100 174/97/100 170/96/100
f 172/96/101 176/97/101 175/98/101
f 173/100/102 177/103/102 180/101/102
f 178/101/103 177/103/103 173/100/103
f 179/102/104 178/101/104 174/97/104
f 176/97/105 180/101/105 179/102/105
f 177/103/106 181/107/106 184/104/106
f 182/104/107 181/107/107 177/103/107
f 183/105/108 182/104/108 178/101/108
f 180/101/109 184/104/109 183/105/109
f 185/106/110 188/108/110 184/104/110
f 182/104/111 186/108/111 185/106/111
f 183/105/112 187/110/112 186/108/112
f 188/108/113 187/110/113 183/105/113
f 189/109/114 192/111/114 188/108/114
f 186/108/115 190/111/115 189/109/115
f 187/110/116 191/113/116 190/111/116
f 192/111/117 191/113/117 187/110/117
f 193/112/118 196/114/118 192/111/118
f 190/111/119 194/114/119 193/112/119
f 191/113/120 195/117/120 194/114/120
f 196/114/121 195/117/121 191/113/121
f 193/112/122 197/118/122 200/115/122
f 198/115/123 197/118/123 193/112/123
f 199/116/124 198/115/124 194/114/124
f 196/114/125 200/115/125 199/116/125
f 197/118/126 201/121/126 204/119/126
f 202/119/127 201/121/127 197/118/127
f 203/120/128 202/119/128 198/115/128
f 200/115/129 204/119/129 203/120/129
