# Blender 4.4.0
# www.blender.org
mtllib Prop_Plank_01.mtl
o Prop_Plank_01
v -0.104991 0.000000 1.750000
v 0.104991 0.000000 1.750000
v -0.104991 0.000000 -1.750000
v 0.104991 0.000000 -1.750000
v -0.104991 0.080000 1.750000
v 0.104991 0.080000 1.750000
v -0.104991 0.080000 -1.750000
v 0.104991 0.080000 -1.750000
vn -0.0000 -1.0000 -0.0000
vn -0.0000 1.0000 -0.0000
vn 1.0000 -0.0000 -0.0000
vn -1.0000 -0.0000 -0.0000
vn -0.0000 -0.0000 -1.0000
vn -0.0000 -0.0000 1.0000
vt 0.570921 0.904287
vt 0.571325 0.904287
vt 0.570921 0.904287
vt 0.571325 0.923502
vt 0.570921 0.923502
vt 0.570921 0.923502
vt 0.571325 0.904287
vt 0.571325 0.923502
s 0
usemtl Texture_Map
f 3/1/1 2/2/1 1/3/1
f 6/4/2 7/5/2 5/6/2
f 4/7/3 6/4/3 2/2/3
f 1/3/4 7/5/4 3/1/4
f 3/1/5 8/8/5 4/7/5
f 2/2/6 5/6/6 1/3/6
f 3/1/1 4/7/1 2/2/1
f 6/4/2 8/8/2 7/5/2
f 4/7/3 8/8/3 6/4/3
f 1/3/4 5/6/4 7/5/4
f 3/1/5 7/5/5 8/8/5
f 2/2/6 6/4/6 5/6/6
