# Blender 4.4.0
# www.blender.org
mtllib Prop_Metal_Sheet_01.mtl
o Prop_Metal_Sheet_01
v -0.532817 -0.000000 -0.019687
v 0.532817 -0.000000 -0.019687
v -0.532817 1.703404 -0.019687
v 0.532817 1.703404 -0.019687
v -0.426253 -0.000000 0.048207
v -0.319690 -0.000000 -0.019687
v -0.213127 -0.000000 0.048207
v -0.106563 -0.000000 -0.019687
v 0.000000 -0.000000 0.048207
v 0.106563 -0.000000 -0.019687
v 0.213127 -0.000000 0.048207
v 0.319690 -0.000000 -0.019687
v 0.426253 -0.000000 0.048207
v 0.426253 1.703404 0.048207
v 0.319690 1.703404 -0.019687
v 0.213127 1.703404 0.048207
v 0.106563 1.703404 -0.019687
v -0.000000 1.703404 0.048207
v -0.106563 1.703404 -0.019687
v -0.213127 1.703404 0.048207
v -0.319690 1.703404 -0.019687
v -0.426253 1.703404 0.048207
v -0.532817 1.703404 -0.042034
v -0.532817 0.000000 -0.042034
v 0.426253 0.000000 0.025860
v 0.532817 0.000000 -0.042034
v 0.532817 1.703404 -0.042034
v -0.426253 1.703404 0.025860
v -0.426253 0.000000 0.025860
v -0.319690 0.000000 -0.042034
v -0.213127 0.000000 0.025860
v -0.106563 0.000000 -0.042034
v 0.000000 0.000000 0.025860
v 0.106563 0.000000 -0.042034
v 0.213127 0.000000 0.025860
v 0.319690 0.000000 -0.042034
v 0.426253 1.703404 0.025860
v 0.319690 1.703404 -0.042034
v 0.213127 1.703404 0.025860
v 0.106563 1.703404 -0.042034
v -0.000000 1.703404 0.025860
v -0.106563 1.703404 -0.042034
v -0.213127 1.703404 0.025860
v -0.319690 1.703404 -0.042034
vn 0.5373 -0.0000 0.8434
vn -0.5373 -0.0000 0.8434
vn -0.5373 -0.0000 -0.8434
vn 0.5373 -0.0000 -0.8434
vn -0.0000 1.0000 -0.0000
vn -0.0000 -1.0000 -0.0000
vn 1.0000 -0.0000 -0.0000
vn -1.0000 -0.0000 -0.0000
vt 0.574142 0.626929
vt 0.574327 0.738337
vt 0.574142 0.738337
vt 0.572664 0.626929
vt 0.572479 0.738337
vt 0.572479 0.626929
vt 0.617619 0.614424
vt 0.617826 0.679291
vt 0.617619 0.679291
vt 0.573033 0.626929
vt 0.572848 0.738337
vt 0.572848 0.626929
vt 0.618032 0.614424
vt 0.618238 0.679291
vt 0.618032 0.679291
vt 0.573403 0.626929
vt 0.573218 0.738337
vt 0.573218 0.626929
vt 0.618444 0.614424
vt 0.618651 0.679291
vt 0.618444 0.679291
vt 0.573772 0.626929
vt 0.573588 0.738337
vt 0.573588 0.626929
vt 0.573957 0.738337
vt 0.573772 0.738337
vt 0.619269 0.614424
vt 0.619063 0.679291
vt 0.619063 0.614424
vt 0.574327 0.626929
vt 0.617826 0.614424
vt 0.618238 0.614424
vt 0.618651 0.614424
vt 0.573957 0.626929
vt 0.572664 0.738337
vt 0.573403 0.738337
vt 0.573033 0.738337
vt 0.619269 0.679291
s 0
usemtl Texture_Map
f 13/1/1 4/2/1 14/3/1
f 5/4/2 3/5/2 1/6/2
f 5/7/1 21/8/1 22/9/1
f 7/10/2 21/11/2 6/12/2
f 7/13/1 19/14/1 20/15/1
f 9/16/2 19/17/2 8/18/2
f 9/19/1 17/20/1 18/21/1
f 11/22/2 17/23/2 10/24/2
f 11/22/1 15/25/1 16/26/1
f 13/27/2 15/28/2 12/29/2
f 25/1/3 27/2/3 26/30/3
f 23/5/4 29/4/4 24/6/4
f 29/7/3 44/8/3 30/31/3
f 44/11/4 31/10/4 30/12/4
f 31/13/3 42/14/3 32/32/3
f 42/17/4 33/16/4 32/18/4
f 33/19/3 40/20/3 34/33/3
f 40/23/4 35/22/4 34/24/4
f 35/22/3 38/25/3 36/34/3
f 38/28/4 25/27/4 36/29/4
f 15/25/5 39/26/5 16/26/5
f 8/18/6 33/16/6 9/16/6
f 25/1/6 2/30/6 13/1/6
f 39/26/5 17/23/5 16/26/5
f 33/19/6 10/33/6 9/19/6
f 26/30/7 4/2/7 2/30/7
f 17/20/5 41/21/5 18/21/5
f 10/24/6 35/22/6 11/22/6
f 28/35/5 3/5/5 22/35/5
f 41/36/5 19/17/5 18/36/5
f 35/22/6 12/34/6 11/22/6
f 1/6/6 29/4/6 5/4/6
f 19/14/5 43/15/5 20/15/5
f 12/29/6 25/27/6 13/27/6
f 29/7/6 6/31/6 5/7/6
f 43/37/5 21/11/5 20/37/5
f 4/2/5 37/3/5 14/3/5
f 6/12/6 31/10/6 7/10/6
f 21/8/5 28/9/5 22/9/5
f 37/38/5 15/28/5 14/38/5
f 31/13/6 8/32/6 7/13/6
f 23/5/8 1/6/8 3/5/8
f 13/1/1 2/30/1 4/2/1
f 5/4/2 22/35/2 3/5/2
f 5/7/1 6/31/1 21/8/1
f 7/10/2 20/37/2 21/11/2
f 7/13/1 8/32/1 19/14/1
f 9/16/2 18/36/2 19/17/2
f 9/19/1 10/33/1 17/20/1
f 11/22/2 16/26/2 17/23/2
f 11/22/1 12/34/1 15/25/1
f 13/27/2 14/38/2 15/28/2
f 25/1/3 37/3/3 27/2/3
f 23/5/4 28/35/4 29/4/4
f 29/7/3 28/9/3 44/8/3
f 44/11/4 43/37/4 31/10/4
f 31/13/3 43/15/3 42/14/3
f 42/17/4 41/36/4 33/16/4
f 33/19/3 41/21/3 40/20/3
f 40/23/4 39/26/4 35/22/4
f 35/22/3 39/26/3 38/25/3
f 38/28/4 37/38/4 25/27/4
f 15/25/5 38/25/5 39/26/5
f 8/18/6 32/18/6 33/16/6
f 25/1/6 26/30/6 2/30/6
f 39/26/5 40/23/5 17/23/5
f 33/19/6 34/33/6 10/33/6
f 26/30/7 27/2/7 4/2/7
f 17/20/5 40/20/5 41/21/5
f 10/24/6 34/24/6 35/22/6
f 28/35/5 23/5/5 3/5/5
f 41/36/5 42/17/5 19/17/5
f 35/22/6 36/34/6 12/34/6
f 1/6/6 24/6/6 29/4/6
f 19/14/5 42/14/5 43/15/5
f 12/29/6 36/29/6 25/27/6
f 29/7/6 30/31/6 6/31/6
f 43/37/5 44/11/5 21/11/5
f 4/2/5 27/2/5 37/3/5
f 6/12/6 30/12/6 31/10/6
f 21/8/5 44/8/5 28/9/5
f 37/38/5 38/28/5 15/28/5
f 31/13/6 32/32/6 8/32/6
f 23/5/8 24/6/8 1/6/8
