# Blender 4.4.0
# www.blender.org
mtllib Prop_Bench_01.mtl
o Prop_Bench_01
v 0.136041 0.404488 1.092999
v 0.197097 0.404488 1.092999
v 0.136041 0.404488 1.054312
v 0.197097 0.404488 1.054312
v 0.136041 0.000000 1.092999
v 0.197097 0.000000 1.092999
v 0.136041 0.000000 1.054312
v 0.197097 0.000000 1.054312
v -0.136041 0.404488 1.092999
v -0.197097 0.404488 1.092999
v -0.136041 0.404488 1.054312
v -0.197097 0.404488 1.054312
v -0.136041 0.000000 1.092999
v -0.197097 0.000000 1.092999
v -0.136041 0.000000 1.054312
v -0.197097 0.000000 1.054312
v 0.136041 0.404488 -1.092999
v 0.197097 0.404488 -1.092999
v 0.136041 0.404488 -1.054312
v 0.197097 0.404488 -1.054312
v 0.136041 0.000000 -1.092999
v 0.197097 0.000000 -1.092999
v 0.136041 0.000000 -1.054312
v 0.197097 0.000000 -1.054312
v -0.136041 0.404488 -1.092999
v -0.197097 0.404488 -1.092999
v -0.136041 0.404488 -1.054312
v -0.197097 0.404488 -1.054312
v -0.136041 0.000000 -1.092999
v -0.197097 0.000000 -1.092999
v -0.136041 0.000000 -1.054312
v -0.197097 0.000000 -1.054312
v -0.200000 0.450000 1.100000
v 0.200000 0.450000 1.100000
v -0.200000 0.450000 -1.100000
v 0.200000 0.450000 -1.100000
v -0.200000 0.404488 -1.100000
v -0.200000 0.404488 1.100000
v 0.200000 0.404488 1.100000
v 0.200000 0.404488 -1.100000
v -0.189195 0.404488 -1.085770
v -0.189195 0.404488 1.085770
v 0.189195 0.404488 1.085770
v 0.189195 0.404488 -1.085770
v -0.187978 0.350023 -1.085877
v -0.187978 0.350023 1.085662
v 0.190412 0.350023 1.085662
v 0.190412 0.350023 -1.085877
vn -0.0000 -1.0000 -0.0000
vn -0.0000 -0.0000 -1.0000
vn -0.0000 -0.0000 1.0000
vn 1.0000 -0.0000 -0.0000
vn -1.0000 -0.0000 -0.0000
vn -0.0000 1.0000 -0.0000
vn 0.9998 0.0223 -0.0000
vn -0.9998 -0.0223 -0.0000
vn -0.0000 0.0020 -1.0000
vn -0.0000 -0.0020 1.0000
vt 0.207599 0.811276
vt 0.208409 0.811276
vt 0.207599 0.944757
vt 0.208409 0.944757
vt 0.203178 0.811276
vt 0.203988 0.811276
vt 0.203988 0.944757
vt 0.203178 0.944757
vt 0.208447 0.959776
vt 0.203140 0.959776
vt 0.203140 0.959776
vt 0.203140 0.944757
vt 0.208447 0.944757
vt 0.208447 0.959776
vt 0.203299 0.926784
vt 0.208320 0.926784
vt 0.208304 0.944757
vt 0.203283 0.944757
s 0
usemtl Texture_Map
f 7/1/1 6/2/1 5/1/1
f 8/2/2 3/3/2 4/4/2
f 5/1/3 2/4/3 1/3/3
f 6/2/4 4/4/4 2/4/4
f 7/1/5 1/3/5 3/3/5
f 14/5/1 15/6/1 13/6/1
f 11/7/2 16/5/2 12/8/2
f 10/8/3 13/6/3 9/7/3
f 12/8/5 14/5/5 10/8/5
f 9/7/4 15/6/4 11/7/4
f 22/2/1 23/1/1 21/1/1
f 19/3/3 24/2/3 20/4/3
f 18/4/2 21/1/2 17/3/2
f 20/4/4 22/2/4 18/4/4
f 17/3/5 23/1/5 19/3/5
f 31/6/1 30/5/1 29/6/1
f 32/5/3 27/7/3 28/8/3
f 29/6/2 26/8/2 25/7/2
f 30/5/5 28/8/5 26/8/5
f 31/6/4 25/7/4 27/7/4
f 34/9/6 35/10/6 33/11/6
f 37/12/1 39/13/1 38/12/1
f 39/13/4 36/14/4 34/9/4
f 37/12/5 33/11/5 35/10/5
f 40/13/2 35/10/2 36/14/2
f 38/12/3 34/9/3 33/11/3
f 45/15/1 47/16/1 46/15/1
f 44/17/7 47/16/7 48/16/7
f 41/18/8 46/15/8 42/18/8
f 44/17/9 45/15/9 41/18/9
f 43/17/10 46/15/10 47/16/10
f 7/1/1 8/2/1 6/2/1
f 8/2/2 7/1/2 3/3/2
f 5/1/3 6/2/3 2/4/3
f 6/2/4 8/2/4 4/4/4
f 7/1/5 5/1/5 1/3/5
f 14/5/1 16/5/1 15/6/1
f 11/7/2 15/6/2 16/5/2
f 10/8/3 14/5/3 13/6/3
f 12/8/5 16/5/5 14/5/5
f 9/7/4 13/6/4 15/6/4
f 22/2/1 24/2/1 23/1/1
f 19/3/3 23/1/3 24/2/3
f 18/4/2 22/2/2 21/1/2
f 20/4/4 24/2/4 22/2/4
f 17/3/5 21/1/5 23/1/5
f 31/6/1 32/5/1 30/5/1
f 32/5/3 31/6/3 27/7/3
f 29/6/2 30/5/2 26/8/2
f 30/5/5 32/5/5 28/8/5
f 31/6/4 29/6/4 25/7/4
f 34/9/6 36/14/6 35/10/6
f 37/12/1 40/13/1 39/13/1
f 39/13/4 40/13/4 36/14/4
f 37/12/5 38/12/5 33/11/5
f 40/13/2 37/12/2 35/10/2
f 38/12/3 39/13/3 34/9/3
f 45/15/1 48/16/1 47/16/1
f 44/17/7 43/17/7 47/16/7
f 41/18/8 45/15/8 46/15/8
f 44/17/9 48/16/9 45/15/9
f 43/17/10 42/18/10 46/15/10
