# Blender 4.4.0
# www.blender.org
mtllib Prop_Can_01.mtl
o Prop_Can_01
v 0.005346 -0.000000 -0.019951
v -0.005346 -0.000000 -0.019951
v -0.014605 -0.000000 -0.014605
v -0.019951 -0.000000 -0.005346
v -0.019951 -0.000000 0.005346
v -0.014605 -0.000000 0.014605
v -0.005346 -0.000000 0.019951
v 0.005346 -0.000000 0.019951
v 0.014605 -0.000000 0.014605
v 0.019951 -0.000000 0.005346
v 0.019951 -0.000000 -0.005346
v 0.014605 -0.000000 -0.014605
v 0.030000 0.086120 -0.008038
v -0.030000 0.086120 -0.008038
v -0.008038 0.086120 0.030000
v 0.030000 0.086120 0.008038
v -0.021962 0.086120 -0.021962
v -0.008038 0.086120 -0.030000
v 0.008038 0.086120 -0.030000
v 0.021962 0.086120 -0.021962
v -0.021962 0.086120 0.021962
v -0.030000 0.086120 0.008038
v 0.021962 0.086120 0.021962
v 0.008038 0.086120 0.030000
v 0.007815 0.006926 0.029165
v 0.021351 0.006926 0.021351
v -0.029165 0.006926 0.007815
v -0.021351 0.006926 0.021351
v 0.021351 0.006926 -0.021351
v 0.007815 0.006926 -0.029165
v -0.007815 0.006926 -0.029165
v -0.021351 0.006926 -0.021351
v 0.029165 0.006926 0.007815
v -0.007815 0.006926 0.029165
v -0.029165 0.006926 -0.007815
v 0.029165 0.006926 -0.007815
v 0.006074 0.102756 -0.022668
v -0.006074 0.102756 -0.022668
v 0.016594 0.102756 0.016594
v -0.006074 0.102756 0.022668
v 0.006074 0.102756 0.022668
v -0.016594 0.102756 -0.016594
v -0.022668 0.102756 -0.006074
v -0.022668 0.102756 0.006074
v -0.016594 0.102756 0.016594
v 0.016594 0.102756 -0.016594
v 0.022668 0.102756 0.006074
v 0.022668 0.102756 -0.006074
v 0.023527 0.099908 -0.006304
v 0.023527 0.099908 0.006304
v 0.017223 0.099908 -0.017223
v -0.017223 0.099908 0.017223
v -0.023527 0.099908 0.006304
v -0.023527 0.099908 -0.006304
v -0.017223 0.099908 -0.017223
v 0.006304 0.099908 0.023527
v -0.006304 0.099908 0.023527
v 0.017223 0.099908 0.017223
v -0.006304 0.099908 -0.023527
v 0.006304 0.099908 -0.023527
v 0.006101 0.099908 -0.022771
v -0.006101 0.099908 -0.022771
v 0.016669 0.099908 0.016669
v -0.006101 0.099908 0.022771
v 0.006101 0.099908 0.022771
v -0.016669 0.099908 -0.016669
v -0.022771 0.099908 -0.006101
v -0.022771 0.099908 0.006101
v -0.016669 0.099908 0.016669
v 0.016669 0.099908 -0.016669
v 0.022771 0.099908 0.006101
v 0.022771 0.099908 -0.006101
v 0.017223 0.102756 0.017223
v 0.006304 0.102756 0.023527
v 0.006304 0.102756 -0.023527
v 0.017223 0.102756 -0.017223
v -0.017223 0.102756 -0.017223
v -0.006304 0.102756 -0.023527
v -0.017223 0.102756 0.017223
v -0.023527 0.102756 0.006304
v -0.023527 0.102756 -0.006304
v 0.023527 0.102756 -0.006304
v -0.006304 0.102756 0.023527
v 0.023527 0.102756 0.006304
v 0.016244 0.101396 0.016244
v 0.005946 0.101396 0.022190
v 0.005946 0.101396 -0.022190
v 0.016244 0.101396 -0.016244
v -0.016244 0.101396 -0.016244
v -0.005946 0.101396 -0.022190
v -0.016244 0.101396 0.016244
v -0.022190 0.101396 0.005946
v -0.022190 0.101396 -0.005946
v 0.022190 0.101396 -0.005946
v -0.005946 0.101396 0.022190
v 0.022190 0.101396 0.005946
v -0.003732 0.101396 -0.001280
v 0.003732 0.101396 -0.001280
v -0.007273 0.101396 -0.015826
v 0.007273 0.101396 -0.015826
v -0.000000 0.101396 -0.001280
v -0.000000 0.101396 -0.019150
v -0.003732 0.101960 -0.001280
v 0.003732 0.101960 -0.001280
v -0.007273 0.101960 -0.015826
v 0.007273 0.101960 -0.015826
v -0.000000 0.101960 -0.001280
v -0.000000 0.101960 -0.019150
v -0.004042 0.101396 -0.012840
v -0.004042 0.101960 -0.012840
v 0.004042 0.101396 -0.012840
v 0.004042 0.101960 -0.012840
v -0.000000 0.101396 -0.014688
v -0.000000 0.101960 -0.014688
v -0.002074 0.101396 -0.004757
v -0.002074 0.101960 -0.004757
v 0.002074 0.101960 -0.004757
v 0.002074 0.101396 -0.004757
v -0.000000 0.101396 -0.004757
v -0.000000 0.101960 -0.004757
vn 0.9999 -0.0105 -0.0000
vn -0.5000 -0.0105 -0.8660
vn -0.5000 -0.0105 0.8660
vn 0.5000 -0.0105 -0.8660
vn 0.8660 -0.0105 0.5000
vn 0.8660 -0.0105 -0.5000
vn -0.9999 -0.0105 -0.0000
vn -0.0000 -0.0105 -0.9999
vn 0.5000 -0.0105 0.8660
vn -0.8660 -0.0105 -0.5000
vn -0.8660 -0.0105 0.5000
vn -0.0000 -0.0105 0.9999
vn -0.0000 -0.7994 -0.6009
vn 0.5204 -0.7994 -0.3004
vn -0.6009 -0.7994 -0.0000
vn -0.0000 -0.7994 0.6009
vn 0.6009 -0.7994 -0.0000
vn -0.5204 -0.7994 -0.3004
vn -0.3004 -0.7994 0.5204
vn 0.5204 -0.7994 0.3004
vn -0.3004 -0.7994 -0.5204
vn 0.3004 -0.7994 -0.5204
vn -0.5204 -0.7994 0.3004
vn -0.8660 -0.0000 0.5000
vn 0.8660 -0.0000 -0.5000
vn 0.8660 -0.0000 0.5000
vn -0.5000 -0.0000 0.8660
vn 0.5000 -0.0000 -0.8660
vn -1.0000 -0.0000 -0.0000
vn -0.4428 0.4644 0.7670
vn -0.0000 0.4644 -0.8856
vn 0.4428 0.4644 -0.7670
vn -0.4428 0.4644 -0.7670
vn 0.7670 0.4644 0.4428
vn -0.8856 0.4644 -0.0000
vn -0.0000 0.4644 0.8856
vn -0.7670 0.4644 -0.4428
vn -0.7670 0.4644 0.4428
vn 0.7670 0.4644 -0.4428
vn 0.8856 0.4644 -0.0000
vn 0.3004 -0.7994 0.5204
vn -0.5000 -0.0000 -0.8660
vn -0.8660 -0.0000 -0.5000
vn -0.0000 -0.0000 1.0000
vn -0.8169 0.3321 0.4716
vn -0.0000 -0.0000 -1.0000
vn 1.0000 -0.0000 -0.0000
vn 0.5000 -0.0000 0.8660
vn -0.0000 -1.0000 -0.0000
vn -0.0000 1.0000 -0.0000
vn 0.4716 0.3321 0.8169
vn -0.9433 0.3321 -0.0000
vn -0.0000 0.3321 -0.9433
vn 0.8169 0.3321 -0.4716
vn -0.0000 0.3321 0.9433
vn -0.4716 0.3321 -0.8169
vn 0.9433 0.3321 -0.0000
vn 0.8169 0.3321 0.4716
vn 0.4716 0.3321 -0.8169
vn -0.4716 0.3321 0.8169
vn -0.8169 0.3321 -0.4716
vn 0.4428 0.4644 0.7670
vn 0.4157 -0.0000 -0.9095
vn -0.4157 -0.0000 -0.9095
vn 0.9716 -0.0000 0.2366
vn -0.9716 -0.0000 0.2366
vn -0.4157 -0.0000 0.9095
vn -0.9716 -0.0000 -0.2365
vn 0.4157 -0.0000 0.9095
vn 0.9716 -0.0000 -0.2365
vn 0.5204 -0.7993 -0.3004
vn -0.6009 -0.7993 -0.0000
vn -0.5204 -0.7993 0.3004
vt 0.209684 0.436613
vt 0.209843 0.545251
vt 0.200096 0.436613
vt 0.202623 0.545251
vt 0.202665 0.436613
vt 0.202665 0.436613
vt 0.199980 0.545251
vt 0.200096 0.436613
vt 0.205632 0.436613
vt 0.208317 0.545251
vt 0.208201 0.436613
vt 0.208201 0.436613
vt 0.198613 0.436613
vt 0.198454 0.545251
vt 0.198613 0.436613
vt 0.205674 0.545251
vt 0.205632 0.436613
vt 0.203134 0.427112
vt 0.205163 0.427112
vt 0.207935 0.427112
vt 0.200362 0.427112
vt 0.201376 0.427112
vt 0.206921 0.427112
vt 0.202381 0.767012
vt 0.202341 0.779464
vt 0.202341 0.767012
vt 0.202601 0.767012
vt 0.202642 0.779464
vt 0.202642 0.767012
vt 0.202601 0.779464
vt 0.202451 0.767012
vt 0.202381 0.779464
vt 0.202532 0.767012
vt 0.202990 0.564165
vt 0.205307 0.564165
vt 0.208471 0.564165
vt 0.199826 0.564165
vt 0.202451 0.779464
vt 0.202597 0.779464
vt 0.202633 0.773520
vt 0.202636 0.779464
vt 0.202532 0.779464
vt 0.202530 0.779464
vt 0.202453 0.779464
vt 0.202385 0.779464
vt 0.202347 0.779464
vt 0.202388 0.773520
vt 0.202529 0.773520
vt 0.202595 0.773520
vt 0.202453 0.773520
vt 0.202350 0.773520
vt 0.202631 0.766129
vt 0.202469 0.766129
vt 0.202410 0.766129
vt 0.235837 0.705677
vt 0.235559 0.701035
vt 0.235793 0.699037
vt 0.234738 0.699037
vt 0.234694 0.705677
vt 0.234238 0.707392
vt 0.235266 0.709301
vt 0.236294 0.707392
vt 0.235266 0.699037
vt 0.235266 0.706738
vt 0.234973 0.701035
vt 0.235266 0.701035
vt 0.200984 0.564165
vt 0.207313 0.564165
vt 0.202537 0.766129
vt 0.202597 0.766129
vt 0.202376 0.766129
s 0
usemtl Texture_Map
f 36/1/1 16/2/1 33/1/1
f 32/3/2 18/4/2 31/5/2
f 34/6/3 21/7/3 28/8/3
f 30/9/4 20/10/4 29/11/4
f 33/1/5 23/10/5 26/12/5
f 29/11/6 13/2/6 36/1/6
f 27/13/7 14/14/7 35/15/7
f 31/5/8 19/16/8 30/9/8
f 26/12/9 24/16/9 25/17/9
f 35/15/10 17/7/10 32/3/10
f 28/8/11 22/14/11 27/13/11
f 25/17/12 15/4/12 34/6/12
f 2/18/13 30/9/13 1/19/13
f 11/20/14 29/11/14 36/1/14
f 5/21/15 35/15/15 4/21/15
f 8/19/16 34/6/16 7/18/16
f 11/20/17 33/1/17 10/20/17
f 4/21/18 32/3/18 3/22/18
f 7/18/19 28/8/19 6/22/19
f 10/20/20 26/12/20 9/23/20
f 2/18/21 32/3/21 31/5/21
f 12/23/22 30/9/22 29/11/22
f 5/21/23 28/8/23 27/13/23
f 52/24/24 80/25/24 53/26/24
f 51/27/25 82/28/25 49/29/25
f 50/29/26 73/30/26 58/27/26
f 57/31/27 79/32/27 52/24/27
f 60/33/28 76/30/28 51/27/28
f 53/26/29 81/25/29 54/26/29
f 64/34/30 21/7/30 15/4/30
f 18/4/31 61/35/31 19/16/31
f 61/35/32 20/10/32 19/16/32
f 17/7/33 62/34/33 18/4/33
f 71/36/34 23/10/34 16/2/34
f 22/14/35 67/37/35 14/14/35
f 24/16/36 64/34/36 15/4/36
f 67/37/37 17/7/37 14/14/37
f 21/7/38 68/37/38 22/14/38
f 20/10/39 72/36/39 13/2/39
f 13/2/40 71/36/40 16/2/40
f 8/19/41 26/12/41 25/17/41
f 55/24/42 78/38/42 59/31/42
f 54/26/43 77/32/43 55/24/43
f 56/33/44 83/38/44 57/31/44
f 46/39/45 94/40/45 48/41/45
f 59/31/46 75/42/46 60/33/46
f 49/29/47 84/28/47 50/29/47
f 58/27/48 74/42/48 56/33/48
f 52/24/49 54/26/49 51/27/49
f 41/43/50 73/30/50 39/39/50
f 46/39/50 75/42/50 37/43/50
f 38/44/50 77/32/50 42/45/50
f 44/46/50 79/32/50 45/45/50
f 42/45/50 81/25/50 43/46/50
f 48/41/50 76/30/50 46/39/50
f 40/44/50 74/42/50 41/43/50
f 43/46/50 80/25/50 44/46/50
f 39/39/50 84/28/50 47/41/50
f 47/41/50 82/28/50 48/41/50
f 37/43/50 78/38/50 38/44/50
f 45/45/50 83/38/50 40/44/50
f 91/47/50 86/48/50 88/49/50
f 42/45/51 90/50/51 38/44/51
f 48/41/52 96/40/52 47/41/52
f 41/43/53 95/50/53 40/44/53
f 45/45/54 92/51/54 44/46/54
f 38/44/55 87/48/55 37/43/55
f 39/39/56 86/48/56 41/43/56
f 44/46/57 93/51/57 43/46/57
f 43/46/58 89/47/58 42/45/58
f 45/45/59 95/50/59 91/47/59
f 37/43/60 88/49/60 46/39/60
f 47/41/61 85/49/61 39/39/61
f 11/52/49 7/53/49 3/54/49
f 23/10/62 65/35/62 24/16/62
f 112/55/50 117/56/50 104/57/50
f 103/58/50 110/59/50 105/60/50
f 102/61/63 106/62/63 100/62/63
f 99/60/64 108/61/64 102/61/64
f 98/57/44 107/63/44 101/63/44
f 101/63/44 103/58/44 97/58/44
f 100/62/65 104/57/65 98/57/65
f 97/58/66 105/60/66 99/60/66
f 112/55/67 113/64/67 111/55/67
f 117/56/68 111/55/68 118/56/68
f 114/64/69 109/59/69 113/64/69
f 116/65/46 119/66/46 115/65/46
f 110/59/70 115/65/70 109/59/70
f 120/66/46 118/56/46 119/66/46
f 36/1/1 13/2/1 16/2/1
f 32/3/2 17/7/2 18/4/2
f 34/6/3 15/4/3 21/7/3
f 30/9/4 19/16/4 20/10/4
f 33/1/5 16/2/5 23/10/5
f 29/11/6 20/10/6 13/2/6
f 27/13/7 22/14/7 14/14/7
f 31/5/8 18/4/8 19/16/8
f 26/12/9 23/10/9 24/16/9
f 35/15/10 14/14/10 17/7/10
f 28/8/11 21/7/11 22/14/11
f 25/17/12 24/16/12 15/4/12
f 2/18/13 31/5/13 30/9/13
f 11/20/71 12/23/71 29/11/71
f 5/21/72 27/13/72 35/15/72
f 8/19/16 25/17/16 34/6/16
f 11/20/17 36/1/17 33/1/17
f 4/21/18 35/15/18 32/3/18
f 7/18/19 34/6/19 28/8/19
f 10/20/20 33/1/20 26/12/20
f 2/18/21 3/22/21 32/3/21
f 12/23/22 1/19/22 30/9/22
f 5/21/73 6/22/73 28/8/73
f 52/24/24 79/32/24 80/25/24
f 51/27/25 76/30/25 82/28/25
f 50/29/26 84/28/26 73/30/26
f 57/31/27 83/38/27 79/32/27
f 60/33/28 75/42/28 76/30/28
f 53/26/29 80/25/29 81/25/29
f 64/34/30 69/67/30 21/7/30
f 18/4/31 62/34/31 61/35/31
f 61/35/32 70/68/32 20/10/32
f 17/7/33 66/67/33 62/34/33
f 71/36/34 63/68/34 23/10/34
f 22/14/35 68/37/35 67/37/35
f 24/16/36 65/35/36 64/34/36
f 67/37/37 66/67/37 17/7/37
f 21/7/38 69/67/38 68/37/38
f 20/10/39 70/68/39 72/36/39
f 13/2/40 72/36/40 71/36/40
f 8/19/41 9/23/41 26/12/41
f 55/24/42 77/32/42 78/38/42
f 54/26/43 81/25/43 77/32/43
f 56/33/44 74/42/44 83/38/44
f 46/39/45 88/49/45 94/40/45
f 59/31/46 78/38/46 75/42/46
f 49/29/47 82/28/47 84/28/47
f 58/27/48 73/30/48 74/42/48
f 56/33/49 57/31/49 52/24/49
f 52/24/49 53/26/49 54/26/49
f 54/26/49 55/24/49 51/27/49
f 55/24/49 59/31/49 51/27/49
f 59/31/49 60/33/49 51/27/49
f 51/27/49 49/29/49 50/29/49
f 50/29/49 58/27/49 51/27/49
f 58/27/49 56/33/49 51/27/49
f 56/33/49 52/24/49 51/27/49
f 41/43/50 74/42/50 73/30/50
f 46/39/50 76/30/50 75/42/50
f 38/44/50 78/38/50 77/32/50
f 44/46/50 80/25/50 79/32/50
f 42/45/50 77/32/50 81/25/50
f 48/41/50 82/28/50 76/30/50
f 40/44/50 83/38/50 74/42/50
f 43/46/50 81/25/50 80/25/50
f 39/39/50 73/30/50 84/28/50
f 47/41/50 84/28/50 82/28/50
f 37/43/50 75/42/50 78/38/50
f 45/45/50 79/32/50 83/38/50
f 86/48/50 85/49/50 88/49/50
f 85/49/50 96/40/50 88/49/50
f 96/40/50 94/40/50 88/49/50
f 88/49/50 87/48/50 90/50/50
f 90/50/50 89/47/50 88/49/50
f 89/47/50 93/51/50 88/49/50
f 93/51/50 92/51/50 91/47/50
f 91/47/50 95/50/50 86/48/50
f 93/51/50 91/47/50 88/49/50
f 42/45/51 89/47/51 90/50/51
f 48/41/52 94/40/52 96/40/52
f 41/43/53 86/48/53 95/50/53
f 45/45/54 91/47/54 92/51/54
f 38/44/55 90/50/55 87/48/55
f 39/39/56 85/49/56 86/48/56
f 44/46/57 92/51/57 93/51/57
f 43/46/58 93/51/58 89/47/58
f 45/45/59 40/44/59 95/50/59
f 37/43/60 87/48/60 88/49/60
f 47/41/61 96/40/61 85/49/61
f 3/54/49 2/53/49 1/69/49
f 1/69/49 12/70/49 11/52/49
f 11/52/49 10/52/49 7/53/49
f 10/52/49 9/70/49 7/53/49
f 9/70/49 8/69/49 7/53/49
f 7/53/49 6/54/49 5/71/49
f 5/71/49 4/71/49 7/53/49
f 4/71/49 3/54/49 7/53/49
f 3/54/49 1/69/49 11/52/49
f 23/10/62 63/68/62 65/35/62
f 120/66/50 107/63/50 117/56/50
f 107/63/50 104/57/50 117/56/50
f 106/62/50 108/61/50 114/64/50
f 106/62/50 114/64/50 112/55/50
f 106/62/50 112/55/50 104/57/50
f 103/58/50 107/63/50 116/65/50
f 107/63/50 120/66/50 116/65/50
f 114/64/50 108/61/50 105/60/50
f 103/58/50 116/65/50 110/59/50
f 110/59/50 114/64/50 105/60/50
f 102/61/63 108/61/63 106/62/63
f 99/60/64 105/60/64 108/61/64
f 98/57/44 104/57/44 107/63/44
f 101/63/44 107/63/44 103/58/44
f 100/62/65 106/62/65 104/57/65
f 97/58/66 103/58/66 105/60/66
f 112/55/67 114/64/67 113/64/67
f 117/56/68 112/55/68 111/55/68
f 114/64/69 110/59/69 109/59/69
f 116/65/46 120/66/46 119/66/46
f 110/59/70 116/65/70 115/65/70
f 120/66/46 117/56/46 118/56/46
