# Blender 4.4.0
# www.blender.org
mtllib Prop_Metal_Sheet_04.mtl
o Prop_Metal_Sheet_04
v -2.250000 0.000000 -0.031388
v 2.250000 0.000000 -0.031388
v -2.250000 2.200000 -0.031388
v 2.250000 2.200000 -0.031388
v -2.025000 0.000000 0.065933
v -1.800000 0.000000 -0.031388
v -1.575000 0.000000 0.065933
v -1.350000 0.000000 -0.031388
v -1.125000 0.000000 0.065933
v -0.900000 0.000000 -0.031388
v -0.675000 0.000000 0.065933
v -0.450000 0.000000 -0.031388
v -0.225000 0.000000 0.065933
v 0.000000 0.000000 -0.031388
v 0.225000 0.000000 0.065933
v 0.450000 0.000000 -0.031388
v 0.675000 0.000000 0.065933
v 0.900000 0.000000 -0.031388
v 1.125000 0.000000 0.065933
v 1.350000 0.000000 -0.031388
v 1.575000 0.000000 0.065933
v 1.800000 0.000000 -0.031388
v 2.025000 0.000000 0.065933
v 2.025000 2.200000 0.065933
v 1.800000 2.200000 -0.031388
v 1.575000 2.200000 0.065933
v 1.350000 2.200000 -0.031388
v 1.125000 2.200000 0.065933
v 0.900000 2.200000 -0.031388
v 0.675000 2.200000 0.065933
v 0.450000 2.200000 -0.031388
v 0.225000 2.200000 0.065933
v -0.000000 2.200000 -0.031388
v -0.225000 2.200000 0.065933
v -0.450000 2.200000 -0.031388
v -0.675000 2.200000 0.065933
v -0.900000 2.200000 -0.031388
v -1.125000 2.200000 0.065933
v -1.350000 2.200000 -0.031388
v -1.575000 2.200000 0.065933
v -1.800000 2.200000 -0.031388
v -2.025000 2.200000 0.065933
v -2.250000 2.200000 -0.061298
v -2.250000 0.000000 -0.061298
v 2.025000 0.000000 0.036023
v 2.250000 0.000000 -0.061298
v 2.250000 2.200000 -0.061298
v -2.025000 2.200000 0.036023
v -2.025000 0.000000 0.036023
v -1.800000 0.000000 -0.061298
v -1.575000 0.000000 0.036023
v -1.350000 0.000000 -0.061298
v -1.125000 0.000000 0.036023
v -0.900000 0.000000 -0.061298
v -0.675000 0.000000 0.036023
v -0.450000 0.000000 -0.061298
v -0.225000 0.000000 0.036023
v 0.000000 0.000000 -0.061298
v 0.225000 0.000000 0.036023
v 0.450000 0.000000 -0.061298
v 0.675000 0.000000 0.036023
v 0.900000 0.000000 -0.061298
v 1.125000 0.000000 0.036023
v 1.350000 0.000000 -0.061298
v 1.575000 0.000000 0.036023
v 1.800000 0.000000 -0.061298
v 2.025000 2.200000 0.036023
v 1.800000 2.200000 -0.061298
v 1.575000 2.200000 0.036023
v 1.350000 2.200000 -0.061298
v 1.125000 2.200000 0.036023
v 0.900000 2.200000 -0.061298
v 0.675000 2.200000 0.036023
v 0.450000 2.200000 -0.061298
v 0.225000 2.200000 0.036023
v -0.000000 2.200000 -0.061298
v -0.225000 2.200000 0.036023
v -0.450000 2.200000 -0.061298
v -0.675000 2.200000 0.036023
v -0.900000 2.200000 -0.061298
v -1.125000 2.200000 0.036023
v -1.350000 2.200000 -0.061298
v -1.575000 2.200000 0.036023
v -1.800000 2.200000 -0.061298
vn 0.3970 -0.0000 0.9178
vn -0.3970 -0.0000 0.9178
vn -0.3970 -0.0000 -0.9178
vn 0.3970 -0.0000 -0.9178
vn -0.0000 -1.0000 -0.0000
vn 1.0000 -0.0000 -0.0000
vn -0.0000 1.0000 -0.0000
vn -1.0000 -0.0000 -0.0000
vt 0.574301 0.626929
vt 0.574205 0.770817
vt 0.574205 0.626929
vt 0.572479 0.626929
vt 0.572383 0.770817
vt 0.572383 0.626929
vt 0.572574 0.626929
vt 0.572479 0.770817
vt 0.572670 0.626929
vt 0.572574 0.770817
vt 0.593084 0.644928
vt 0.593060 0.681117
vt 0.593060 0.644928
vt 0.572862 0.626929
vt 0.572766 0.770817
vt 0.572766 0.626929
vt 0.572958 0.626929
vt 0.572862 0.770817
vt 0.573054 0.626929
vt 0.572958 0.770817
vt 0.573150 0.626929
vt 0.573054 0.770817
vt 0.593204 0.644928
vt 0.593180 0.681117
vt 0.593180 0.644928
vt 0.573342 0.626929
vt 0.573246 0.770817
vt 0.573246 0.626929
vt 0.573438 0.626929
vt 0.573342 0.770817
vt 0.593277 0.644928
vt 0.593253 0.681117
vt 0.593253 0.644928
vt 0.573630 0.626929
vt 0.573534 0.770817
vt 0.573534 0.626929
vt 0.573726 0.626929
vt 0.573630 0.770817
vt 0.573822 0.626929
vt 0.573726 0.770817
vt 0.573918 0.626929
vt 0.573822 0.770817
vt 0.574014 0.626929
vt 0.573918 0.770817
vt 0.574109 0.626929
vt 0.574014 0.770817
vt 0.574109 0.770817
vt 0.593011 0.681117
vt 0.593035 0.644928
vt 0.593011 0.644928
vt 0.572670 0.770817
vt 0.593108 0.681117
vt 0.593132 0.644928
vt 0.593108 0.644928
vt 0.593132 0.681117
vt 0.593156 0.644928
vt 0.593156 0.681117
vt 0.573150 0.770817
vt 0.573438 0.770817
vt 0.593277 0.681117
vt 0.593301 0.644928
vt 0.574301 0.770817
vt 0.592987 0.681117
vt 0.593301 0.681117
vt 0.592987 0.644928
vt 0.593229 0.681117
vt 0.593204 0.681117
vt 0.593397 0.644928
vt 0.593422 0.644928
vt 0.593084 0.681117
vt 0.593422 0.681117
vt 0.593397 0.681117
vt 0.593035 0.681117
s 0
usemtl Texture_Map
f 2/1/1 24/2/1 23/3/1
f 5/4/2 3/5/2 1/6/2
f 6/7/1 42/8/1 5/4/1
f 7/9/2 41/10/2 6/7/2
f 8/11/1 40/12/1 7/13/1
f 9/14/2 39/15/2 8/16/2
f 10/17/1 38/18/1 9/14/1
f 11/19/2 37/20/2 10/17/2
f 12/21/1 36/22/1 11/19/1
f 13/23/2 35/24/2 12/25/2
f 14/26/1 34/27/1 13/28/1
f 15/29/2 33/30/2 14/26/2
f 16/31/1 32/32/1 15/33/1
f 17/34/2 31/35/2 16/36/2
f 18/37/1 30/38/1 17/34/1
f 19/39/2 29/40/2 18/37/2
f 20/41/1 28/42/1 19/39/1
f 21/43/2 27/44/2 20/41/2
f 22/45/1 26/46/1 21/43/1
f 23/3/2 25/47/2 22/45/2
f 67/2/3 46/1/3 45/3/3
f 43/5/4 49/4/4 44/6/4
f 48/48/3 50/49/3 49/50/3
f 84/10/4 51/9/4 50/7/4
f 83/51/3 52/16/3 51/9/3
f 82/15/4 53/14/4 52/16/4
f 81/52/3 54/53/3 53/54/3
f 80/55/4 55/56/4 54/53/4
f 79/57/3 56/25/3 55/56/3
f 78/58/4 57/28/4 56/21/4
f 77/27/3 58/26/3 57/28/3
f 76/30/4 59/29/4 58/26/4
f 75/59/3 60/36/3 59/29/3
f 74/60/4 61/61/4 60/31/4
f 73/38/3 62/37/3 61/34/3
f 72/40/4 63/39/4 62/37/4
f 71/42/3 64/41/3 63/39/3
f 70/44/4 65/43/4 64/41/4
f 69/46/3 66/45/3 65/43/3
f 68/47/4 45/3/4 66/45/4
f 59/29/5 16/36/5 15/29/5
f 46/1/6 4/62/6 2/1/6
f 29/40/7 73/38/7 30/38/7
f 16/36/5 61/34/5 17/34/5
f 48/48/7 3/63/7 42/48/7
f 73/64/7 31/60/7 30/64/7
f 61/34/5 18/37/5 17/34/5
f 1/65/5 49/50/5 5/50/5
f 31/35/7 75/59/7 32/59/7
f 18/37/5 63/39/5 19/39/5
f 49/4/5 6/7/5 5/4/5
f 75/32/7 33/66/7 32/32/7
f 63/39/5 20/41/5 19/39/5
f 6/7/5 51/9/5 7/9/5
f 33/66/7 77/67/7 34/67/7
f 20/41/5 65/43/5 21/43/5
f 51/9/5 8/16/5 7/9/5
f 77/27/7 35/58/7 34/27/7
f 65/68/5 22/69/5 21/68/5
f 8/11/5 53/54/5 9/54/5
f 35/58/7 79/22/7 36/22/7
f 22/45/5 45/3/5 23/3/5
f 53/14/5 10/17/5 9/14/5
f 79/22/7 37/20/7 36/22/7
f 4/62/7 67/2/7 24/2/7
f 10/17/5 55/19/5 11/19/5
f 37/20/7 81/18/7 38/18/7
f 67/2/7 25/47/7 24/2/7
f 55/56/5 12/25/5 11/56/5
f 81/52/7 39/70/7 38/52/7
f 25/71/7 69/72/7 26/72/7
f 12/21/5 57/28/5 13/28/5
f 39/15/7 83/51/7 40/51/7
f 69/46/7 27/44/7 26/46/7
f 57/28/5 14/26/5 13/28/5
f 83/51/7 41/10/7 40/51/7
f 43/5/8 1/6/8 3/5/8
f 27/44/7 71/42/7 28/42/7
f 14/26/5 59/29/5 15/29/5
f 41/10/7 48/8/7 42/8/7
f 45/3/5 2/1/5 23/3/5
f 71/42/7 29/40/7 28/42/7
f 2/1/1 4/62/1 24/2/1
f 5/4/2 42/8/2 3/5/2
f 6/7/1 41/10/1 42/8/1
f 7/9/2 40/51/2 41/10/2
f 8/11/1 39/70/1 40/12/1
f 9/14/2 38/18/2 39/15/2
f 10/17/1 37/20/1 38/18/1
f 11/19/2 36/22/2 37/20/2
f 12/21/1 35/58/1 36/22/1
f 13/23/2 34/67/2 35/24/2
f 14/26/1 33/30/1 34/27/1
f 15/29/2 32/59/2 33/30/2
f 16/31/1 31/60/1 32/32/1
f 17/34/2 30/38/2 31/35/2
f 18/37/1 29/40/1 30/38/1
f 19/39/2 28/42/2 29/40/2
f 20/41/1 27/44/1 28/42/1
f 21/43/2 26/46/2 27/44/2
f 22/45/1 25/47/1 26/46/1
f 23/3/2 24/2/2 25/47/2
f 67/2/3 47/62/3 46/1/3
f 43/5/4 48/8/4 49/4/4
f 48/48/3 84/73/3 50/49/3
f 84/10/4 83/51/4 51/9/4
f 83/51/3 82/15/3 52/16/3
f 82/15/4 81/18/4 53/14/4
f 81/52/3 80/55/3 54/53/3
f 80/55/4 79/57/4 55/56/4
f 79/57/3 78/24/3 56/25/3
f 78/58/4 77/27/4 57/28/4
f 77/27/3 76/30/3 58/26/3
f 76/30/4 75/59/4 59/29/4
f 75/59/3 74/35/3 60/36/3
f 74/60/4 73/64/4 61/61/4
f 73/38/3 72/40/3 62/37/3
f 72/40/4 71/42/4 63/39/4
f 71/42/3 70/44/3 64/41/3
f 70/44/4 69/46/4 65/43/4
f 69/46/3 68/47/3 66/45/3
f 68/47/4 67/2/4 45/3/4
f 59/29/5 60/36/5 16/36/5
f 46/1/6 47/62/6 4/62/6
f 29/40/7 72/40/7 73/38/7
f 16/36/5 60/36/5 61/34/5
f 48/48/7 43/63/7 3/63/7
f 73/64/7 74/60/7 31/60/7
f 61/34/5 62/37/5 18/37/5
f 1/65/5 44/65/5 49/50/5
f 31/35/7 74/35/7 75/59/7
f 18/37/5 62/37/5 63/39/5
f 49/4/5 50/7/5 6/7/5
f 75/32/7 76/66/7 33/66/7
f 63/39/5 64/41/5 20/41/5
f 6/7/5 50/7/5 51/9/5
f 33/66/7 76/66/7 77/67/7
f 20/41/5 64/41/5 65/43/5
f 51/9/5 52/16/5 8/16/5
f 77/27/7 78/58/7 35/58/7
f 65/68/5 66/69/5 22/69/5
f 8/11/5 52/11/5 53/54/5
f 35/58/7 78/58/7 79/22/7
f 22/45/5 66/45/5 45/3/5
f 53/14/5 54/17/5 10/17/5
f 79/22/7 80/20/7 37/20/7
f 4/62/7 47/62/7 67/2/7
f 10/17/5 54/17/5 55/19/5
f 37/20/7 80/20/7 81/18/7
f 67/2/7 68/47/7 25/47/7
f 55/56/5 56/25/5 12/25/5
f 81/52/7 82/70/7 39/70/7
f 25/71/7 68/71/7 69/72/7
f 12/21/5 56/21/5 57/28/5
f 39/15/7 82/15/7 83/51/7
f 69/46/7 70/44/7 27/44/7
f 57/28/5 58/26/5 14/26/5
f 83/51/7 84/10/7 41/10/7
f 43/5/8 44/6/8 1/6/8
f 27/44/7 70/44/7 71/42/7
f 14/26/5 58/26/5 59/29/5
f 41/10/7 84/10/7 48/8/7
f 45/3/5 46/1/5 2/1/5
f 71/42/7 72/40/7 29/40/7
