# Blender 4.4.0
# www.blender.org
mtllib Prop_Wooden_Pallet_02.mtl
o Prop_Wooden_Pallet_02
v -0.113620 0.000000 0.727812
v 0.113620 0.000000 0.727812
v -0.113620 0.000000 -0.727812
v 0.113620 0.000000 -0.727812
v -0.113620 0.026711 0.727812
v 0.113620 0.026711 0.727812
v -0.113620 0.026711 -0.727812
v 0.113620 0.026711 -0.727812
v -0.606161 0.026711 0.725372
v -0.454620 0.026711 0.725372
v -0.606161 0.026711 0.604477
v -0.454620 0.026711 0.604477
v -0.606161 0.115526 0.725372
v -0.454620 0.115526 0.725372
v -0.606161 0.115526 0.604477
v -0.454620 0.115526 0.604477
v -0.608749 0.000000 0.727812
v -0.452032 0.000000 0.727812
v -0.608749 0.000000 -0.727812
v -0.452032 0.000000 -0.727812
v -0.608749 0.026711 0.727812
v -0.452032 0.026711 0.727812
v -0.608749 0.026711 -0.727812
v -0.452032 0.026711 -0.727812
v 0.452032 0.000000 0.727812
v 0.608749 0.000000 0.727812
v 0.452032 0.000000 -0.727812
v 0.608749 0.000000 -0.727812
v 0.452032 0.026711 0.727812
v 0.608749 0.026711 0.727812
v 0.452032 0.026711 -0.727812
v 0.608749 0.026711 -0.727812
v -0.606161 0.142236 0.730000
v -0.386427 0.142236 0.730000
v -0.606161 0.142236 -0.730000
v -0.386427 0.142236 -0.730000
v -0.606161 0.168947 0.730000
v -0.386427 0.168947 0.730000
v -0.606161 0.168947 -0.730000
v -0.386427 0.168947 -0.730000
v 0.609500 0.115526 0.725373
v 0.609500 0.115526 0.604477
v -0.609500 0.115526 0.725373
v -0.609500 0.115526 0.604477
v 0.609500 0.142236 0.725373
v 0.609500 0.142236 0.604477
v -0.609500 0.142236 0.725373
v -0.609500 0.142236 0.604477
v 0.609500 0.115526 -0.604477
v 0.609500 0.115526 -0.725372
v -0.609500 0.115526 -0.604477
v -0.609500 0.115526 -0.725372
v 0.609500 0.142236 -0.604477
v 0.609500 0.142236 -0.725372
v -0.609500 0.142236 -0.604477
v -0.609500 0.142236 -0.725372
v 0.609500 0.115526 -0.664925
v -0.609500 0.115526 -0.664925
v 0.609500 0.142236 -0.664925
v -0.609500 0.142236 -0.664925
v 0.609500 0.115526 0.060448
v 0.609500 0.115526 -0.060448
v -0.609500 0.115526 0.060448
v -0.609500 0.115526 -0.060448
v 0.609500 0.142236 0.060448
v 0.609500 0.142236 -0.060448
v -0.609500 0.142236 0.060448
v -0.609500 0.142236 -0.060448
v 0.386427 0.142236 0.730000
v 0.606160 0.142236 0.730000
v 0.386427 0.142236 -0.730000
v 0.606160 0.142236 -0.730000
v 0.386427 0.168947 0.730000
v 0.606160 0.168947 0.730000
v 0.386427 0.168947 -0.730000
v 0.606160 0.168947 -0.730000
v -0.109867 0.142236 0.730000
v 0.109866 0.142236 0.730000
v -0.109867 0.142236 -0.730000
v 0.109866 0.142236 -0.730000
v -0.109867 0.168947 0.730000
v 0.109866 0.168947 0.730000
v -0.109867 0.168947 -0.730000
v 0.109866 0.168947 -0.730000
v 0.172377 0.142236 0.730000
v 0.323917 0.142236 0.730000
v 0.172377 0.142236 -0.730000
v 0.323917 0.142236 -0.730000
v 0.172377 0.168947 0.730000
v 0.323917 0.168947 0.730000
v 0.172377 0.168947 -0.730000
v 0.323917 0.168947 -0.730000
v -0.323917 0.142236 0.730000
v -0.172377 0.142236 0.730000
v -0.323917 0.142236 -0.730000
v -0.172377 0.142236 -0.730000
v -0.323917 0.168947 0.730000
v -0.172377 0.168947 0.730000
v -0.323917 0.168947 -0.730000
v -0.172377 0.168947 -0.730000
v -0.606161 0.026711 0.060448
v -0.454620 0.026711 0.060448
v -0.606161 0.026711 -0.060448
v -0.454620 0.026711 -0.060448
v -0.606161 0.115526 0.060448
v -0.454620 0.115526 0.060448
v -0.606161 0.115526 -0.060448
v -0.454620 0.115526 -0.060448
v -0.606161 0.026711 -0.604477
v -0.454620 0.026711 -0.604477
v -0.606161 0.026711 -0.725372
v -0.454620 0.026711 -0.725372
v -0.606161 0.115526 -0.604477
v -0.454620 0.115526 -0.604477
v -0.606161 0.115526 -0.725372
v -0.454620 0.115526 -0.725372
v 0.454620 0.026711 0.725372
v 0.606160 0.026711 0.725372
v 0.454620 0.026711 0.604477
v 0.606160 0.026711 0.604477
v 0.454620 0.115526 0.725372
v 0.606160 0.115526 0.725372
v 0.454620 0.115526 0.604477
v 0.606160 0.115526 0.604477
v 0.454620 0.026711 0.060448
v 0.606160 0.026711 0.060448
v 0.454620 0.026711 -0.060448
v 0.606160 0.026711 -0.060448
v 0.454620 0.115526 0.060448
v 0.606160 0.115526 0.060448
v 0.454620 0.115526 -0.060448
v 0.606160 0.115526 -0.060448
v 0.454620 0.026711 -0.604477
v 0.606160 0.026711 -0.604477
v 0.454620 0.026711 -0.725372
v 0.606160 0.026711 -0.725372
v 0.454620 0.115526 -0.604477
v 0.606160 0.115526 -0.604477
v 0.454620 0.115526 -0.725372
v 0.606160 0.115526 -0.725372
v -0.109867 0.026711 0.725372
v 0.109866 0.026711 0.725372
v -0.109867 0.026711 0.604477
v 0.109866 0.026711 0.604477
v -0.109867 0.115526 0.725372
v 0.109866 0.115526 0.725372
v -0.109867 0.115526 0.604477
v 0.109866 0.115526 0.604477
v -0.109867 0.026711 0.060448
v 0.109866 0.026711 0.060448
v -0.109867 0.026711 -0.060448
v 0.109866 0.026711 -0.060448
v -0.109867 0.115526 0.060448
v 0.109866 0.115526 0.060448
v -0.109867 0.115526 -0.060448
v 0.109866 0.115526 -0.060448
v -0.109867 0.026711 -0.604477
v 0.109866 0.026711 -0.604477
v -0.109867 0.026711 -0.725372
v 0.109866 0.026711 -0.725372
v -0.109867 0.115526 -0.604477
v 0.109866 0.115526 -0.604477
v -0.109867 0.115526 -0.725372
v 0.109866 0.115526 -0.725372
vn -0.0000 -1.0000 -0.0000
vn -0.0000 1.0000 -0.0000
vn 1.0000 -0.0000 -0.0000
vn -1.0000 -0.0000 -0.0000
vn -0.0000 -0.0000 -1.0000
vn -0.0000 -0.0000 1.0000
vt 0.610053 0.822115
vt 0.610010 0.822115
vt 0.610010 0.829788
vt 0.610053 0.829788
vt 0.610053 0.829788
vt 0.610010 0.829788
vt 0.583799 0.839849
vt 0.583799 0.890987
vt 0.583857 0.839849
vt 0.583857 0.890987
vt 0.583858 0.824469
vt 0.583798 0.824469
vt 0.583858 0.824469
vt 0.583798 0.839849
vt 0.583858 0.839849
vt 0.583858 0.839849
vt 0.583798 0.824469
vt 0.583798 0.839849
vt 0.583455 0.824469
vt 0.583395 0.824469
vt 0.583455 0.824469
vt 0.583395 0.839849
vt 0.583455 0.839849
vt 0.583455 0.839849
vt 0.583395 0.824469
vt 0.583395 0.839849
vt 0.610147 0.862975
vt 0.610105 0.862975
vt 0.610147 0.862975
vt 0.610105 0.870648
vt 0.610147 0.870648
vt 0.610105 0.862975
vt 0.583858 0.890987
vt 0.583858 0.906367
vt 0.583395 0.890987
vt 0.583395 0.906367
vt 0.583858 0.890987
vt 0.583395 0.890987
vt 0.583395 0.906367
vt 0.583858 0.906367
vt 0.583479 0.906367
vt 0.583396 0.906367
vt 0.583479 0.906367
vt 0.583396 0.921747
vt 0.583479 0.921747
vt 0.583396 0.906367
vt 0.610053 0.862975
vt 0.610011 0.862975
vt 0.610053 0.862975
vt 0.610011 0.862975
vt 0.610011 0.870648
vt 0.610053 0.870648
vt 0.609999 0.862975
vt 0.609970 0.862975
vt 0.609999 0.862975
vt 0.609970 0.862975
vt 0.609970 0.870648
vt 0.609999 0.870648
vt 0.583749 0.906367
vt 0.583692 0.906367
vt 0.583749 0.906367
vt 0.583692 0.906367
vt 0.583692 0.921747
vt 0.583749 0.921747
vt 0.583799 0.839849
vt 0.583857 0.839849
vt 0.583396 0.839849
vt 0.583396 0.890987
vt 0.583454 0.839849
vt 0.583454 0.890987
vt 0.583396 0.839849
vt 0.583454 0.839849
vt 0.583585 0.839849
vt 0.583585 0.890987
vt 0.583668 0.839849
vt 0.583668 0.890987
vt 0.583585 0.839849
vt 0.583668 0.839849
s 0
usemtl Texture_Map
f 3/1/1 2/2/1 1/1/1
f 6/3/2 7/4/2 5/5/2
f 4/2/3 6/3/3 2/2/3
f 1/1/4 7/4/4 3/1/4
f 3/1/5 8/6/5 4/2/5
f 2/2/6 5/5/6 1/1/6
f 12/7/3 14/8/3 10/7/3
f 11/9/5 16/8/5 12/7/5
f 10/7/6 13/10/6 9/9/6
f 9/9/4 15/10/4 11/9/4
f 19/11/1 18/12/1 17/13/1
f 22/14/2 23/15/2 21/16/2
f 20/17/3 22/14/3 18/12/3
f 17/13/4 23/15/4 19/11/4
f 19/11/5 24/18/5 20/17/5
f 18/12/6 21/16/6 17/13/6
f 27/19/1 26/20/1 25/21/1
f 30/22/2 31/23/2 29/24/2
f 28/25/3 30/22/3 26/20/3
f 25/21/4 31/23/4 27/19/4
f 27/19/5 32/26/5 28/25/5
f 26/20/6 29/24/6 25/21/6
f 35/27/1 34/28/1 33/29/1
f 38/30/2 39/31/2 37/31/2
f 36/32/3 38/30/3 34/28/3
f 33/29/4 39/31/4 35/27/4
f 35/27/5 40/30/5 36/32/5
f 34/28/6 37/31/6 33/29/6
f 43/33/4 48/34/4 44/33/4
f 42/35/3 45/36/3 41/35/3
f 47/34/6 41/35/6 45/36/6
f 41/35/1 44/33/1 42/35/1
f 48/34/2 45/36/2 46/36/2
f 46/36/5 44/33/5 48/34/5
f 58/37/1 50/38/1 57/38/1
f 54/39/2 60/40/2 59/39/2
f 52/37/5 54/39/5 50/38/5
f 49/38/6 55/40/6 51/37/6
f 51/37/4 60/40/4 58/37/4
f 50/38/3 59/39/3 57/38/3
f 57/38/3 53/39/3 49/38/3
f 58/37/4 56/40/4 52/37/4
f 59/39/2 55/40/2 53/39/2
f 51/37/1 57/38/1 49/38/1
f 63/37/1 62/38/1 61/38/1
f 64/37/5 66/36/5 62/38/5
f 61/38/6 67/34/6 63/37/6
f 66/36/2 67/34/2 65/36/2
f 63/37/4 68/34/4 64/37/4
f 62/38/3 65/36/3 61/38/3
f 71/41/1 70/42/1 69/43/1
f 74/44/2 75/45/2 73/45/2
f 72/46/3 74/44/3 70/42/3
f 69/43/4 75/45/4 71/41/4
f 71/41/5 76/44/5 72/46/5
f 70/42/6 73/45/6 69/43/6
f 79/47/1 78/48/1 77/49/1
f 80/50/3 82/51/3 78/48/3
f 77/49/4 83/52/4 79/47/4
f 82/51/2 83/52/2 81/52/2
f 79/47/5 84/51/5 80/50/5
f 78/48/6 81/52/6 77/49/6
f 87/53/1 86/54/1 85/55/1
f 88/56/3 90/57/3 86/54/3
f 85/55/4 91/58/4 87/53/4
f 90/57/2 91/58/2 89/58/2
f 87/53/5 92/57/5 88/56/5
f 86/54/6 89/58/6 85/55/6
f 95/59/1 94/60/1 93/61/1
f 96/62/3 98/63/3 94/60/3
f 93/61/4 99/64/4 95/59/4
f 98/63/2 99/64/2 97/64/2
f 95/59/5 100/63/5 96/62/5
f 94/60/6 97/64/6 93/61/6
f 104/65/3 106/8/3 102/7/3
f 103/66/5 108/8/5 104/65/5
f 102/7/6 105/10/6 101/9/6
f 101/9/4 107/10/4 103/66/4
f 112/65/3 114/8/3 110/65/3
f 111/66/5 116/8/5 112/65/5
f 110/65/6 113/10/6 109/66/6
f 109/66/4 115/10/4 111/66/4
f 120/67/3 122/68/3 118/67/3
f 119/69/5 124/68/5 120/67/5
f 118/67/6 121/70/6 117/69/6
f 117/69/4 123/70/4 119/69/4
f 128/71/3 130/68/3 126/67/3
f 127/72/5 132/68/5 128/71/5
f 126/67/6 129/70/6 125/69/6
f 125/69/4 131/70/4 127/72/4
f 136/71/3 138/68/3 134/71/3
f 135/72/5 140/68/5 136/71/5
f 134/71/6 137/70/6 133/72/6
f 133/72/4 139/70/4 135/72/4
f 144/73/3 146/74/3 142/73/3
f 143/75/5 148/74/5 144/73/5
f 142/73/6 145/76/6 141/75/6
f 141/75/4 147/76/4 143/75/4
f 152/77/3 154/74/3 150/73/3
f 151/78/5 156/74/5 152/77/5
f 150/73/6 153/76/6 149/75/6
f 149/75/4 155/76/4 151/78/4
f 160/77/3 162/74/3 158/77/3
f 159/78/5 164/74/5 160/77/5
f 158/77/6 161/76/6 157/78/6
f 157/78/4 163/76/4 159/78/4
f 3/1/1 4/2/1 2/2/1
f 6/3/2 8/6/2 7/4/2
f 4/2/3 8/6/3 6/3/3
f 1/1/4 5/5/4 7/4/4
f 3/1/5 7/4/5 8/6/5
f 2/2/6 6/3/6 5/5/6
f 12/7/3 16/8/3 14/8/3
f 11/9/5 15/10/5 16/8/5
f 10/7/6 14/8/6 13/10/6
f 9/9/4 13/10/4 15/10/4
f 19/11/1 20/17/1 18/12/1
f 22/14/2 24/18/2 23/15/2
f 20/17/3 24/18/3 22/14/3
f 17/13/4 21/16/4 23/15/4
f 19/11/5 23/15/5 24/18/5
f 18/12/6 22/14/6 21/16/6
f 27/19/1 28/25/1 26/20/1
f 30/22/2 32/26/2 31/23/2
f 28/25/3 32/26/3 30/22/3
f 25/21/4 29/24/4 31/23/4
f 27/19/5 31/23/5 32/26/5
f 26/20/6 30/22/6 29/24/6
f 35/27/1 36/32/1 34/28/1
f 38/30/2 40/30/2 39/31/2
f 36/32/3 40/30/3 38/30/3
f 33/29/4 37/31/4 39/31/4
f 35/27/5 39/31/5 40/30/5
f 34/28/6 38/30/6 37/31/6
f 43/33/4 47/34/4 48/34/4
f 42/35/3 46/36/3 45/36/3
f 47/34/6 43/33/6 41/35/6
f 41/35/1 43/33/1 44/33/1
f 48/34/2 47/34/2 45/36/2
f 46/36/5 42/35/5 44/33/5
f 58/37/1 52/37/1 50/38/1
f 54/39/2 56/40/2 60/40/2
f 52/37/5 56/40/5 54/39/5
f 49/38/6 53/39/6 55/40/6
f 51/37/4 55/40/4 60/40/4
f 50/38/3 54/39/3 59/39/3
f 57/38/3 59/39/3 53/39/3
f 58/37/4 60/40/4 56/40/4
f 59/39/2 60/40/2 55/40/2
f 51/37/1 58/37/1 57/38/1
f 63/37/1 64/37/1 62/38/1
f 64/37/5 68/34/5 66/36/5
f 61/38/6 65/36/6 67/34/6
f 66/36/2 68/34/2 67/34/2
f 63/37/4 67/34/4 68/34/4
f 62/38/3 66/36/3 65/36/3
f 71/41/1 72/46/1 70/42/1
f 74/44/2 76/44/2 75/45/2
f 72/46/3 76/44/3 74/44/3
f 69/43/4 73/45/4 75/45/4
f 71/41/5 75/45/5 76/44/5
f 70/42/6 74/44/6 73/45/6
f 79/47/1 80/50/1 78/48/1
f 80/50/3 84/51/3 82/51/3
f 77/49/4 81/52/4 83/52/4
f 82/51/2 84/51/2 83/52/2
f 79/47/5 83/52/5 84/51/5
f 78/48/6 82/51/6 81/52/6
f 87/53/1 88/56/1 86/54/1
f 88/56/3 92/57/3 90/57/3
f 85/55/4 89/58/4 91/58/4
f 90/57/2 92/57/2 91/58/2
f 87/53/5 91/58/5 92/57/5
f 86/54/6 90/57/6 89/58/6
f 95/59/1 96/62/1 94/60/1
f 96/62/3 100/63/3 98/63/3
f 93/61/4 97/64/4 99/64/4
f 98/63/2 100/63/2 99/64/2
f 95/59/5 99/64/5 100/63/5
f 94/60/6 98/63/6 97/64/6
f 104/65/3 108/8/3 106/8/3
f 103/66/5 107/10/5 108/8/5
f 102/7/6 106/8/6 105/10/6
f 101/9/4 105/10/4 107/10/4
f 112/65/3 116/8/3 114/8/3
f 111/66/5 115/10/5 116/8/5
f 110/65/6 114/8/6 113/10/6
f 109/66/4 113/10/4 115/10/4
f 120/67/3 124/68/3 122/68/3
f 119/69/5 123/70/5 124/68/5
f 118/67/6 122/68/6 121/70/6
f 117/69/4 121/70/4 123/70/4
f 128/71/3 132/68/3 130/68/3
f 127/72/5 131/70/5 132/68/5
f 126/67/6 130/68/6 129/70/6
f 125/69/4 129/70/4 131/70/4
f 136/71/3 140/68/3 138/68/3
f 135/72/5 139/70/5 140/68/5
f 134/71/6 138/68/6 137/70/6
f 133/72/4 137/70/4 139/70/4
f 144/73/3 148/74/3 146/74/3
f 143/75/5 147/76/5 148/74/5
f 142/73/6 146/74/6 145/76/6
f 141/75/4 145/76/4 147/76/4
f 152/77/3 156/74/3 154/74/3
f 151/78/5 155/76/5 156/74/5
f 150/73/6 154/74/6 153/76/6
f 149/75/4 153/76/4 155/76/4
f 160/77/3 164/74/3 162/74/3
f 159/78/5 163/76/5 164/74/5
f 158/77/6 162/74/6 161/76/6
f 157/78/4 161/76/4 163/76/4
