# Blender 4.4.0
# www.blender.org
mtllib Prop_Tire_Wall_01.mtl
o Prop_Tire_Wall_01
v 1.774985 0.400859 -0.135000
v 1.560165 0.400859 -0.135000
v 1.374126 0.293449 -0.135000
v 1.266716 0.107410 -0.135000
v 2.068434 0.107410 -0.135000
v 1.961024 0.293449 -0.135000
v 1.774985 0.400859 0.135000
v 1.560165 0.400859 0.135000
v 1.374126 0.293449 0.135000
v 1.266716 0.107410 0.135000
v 2.068434 0.107410 0.135000
v 1.961024 0.293449 0.135000
v 1.766527 0.369295 -0.152427
v 1.568622 0.369295 -0.152427
v 1.397232 0.270343 -0.152427
v 1.298280 0.098952 -0.152427
v 2.036870 0.098952 -0.152427
v 1.937918 0.270343 -0.152427
v 1.766527 0.369295 0.152427
v 1.568622 0.369295 0.152427
v 1.397232 0.270343 0.152427
v 1.298280 0.098952 0.152427
v 2.036870 0.098952 0.152427
v 1.937918 0.270343 0.152427
v 1.756328 0.331233 -0.103840
v 1.578821 0.331233 -0.103840
v 1.425096 0.242479 -0.103840
v 1.336342 0.088754 -0.103840
v 1.998808 0.088754 -0.103840
v 1.910054 0.242479 -0.103840
v 1.751948 0.314885 0.103840
v 1.583202 0.314885 0.103840
v 1.437063 0.230512 0.103840
v 1.352690 0.084373 0.103840
v 1.982460 0.084373 0.103840
v 1.898087 0.230512 0.103840
v 1.578821 0.331233 -0.139991
v 1.756328 0.331233 -0.139991
v 1.425096 0.242479 -0.139991
v 1.336342 0.088754 -0.139991
v 1.998808 0.088754 -0.139991
v 1.910054 0.242479 -0.139991
v 1.583202 0.314885 0.139991
v 1.751948 0.314885 0.139991
v 1.437063 0.230512 0.139991
v 1.352690 0.084373 0.139991
v 1.982460 0.084373 0.139991
v 1.898087 0.230512 0.139991
v 1.565341 0.381540 -0.103840
v 1.565341 0.381540 0.103840
v 1.388268 0.279307 0.103840
v 1.388268 0.279307 -0.103840
v 1.286035 0.102233 0.103840
v 1.286035 0.102233 -0.103840
v 2.049115 0.102233 0.103840
v 2.049115 0.102233 -0.103840
v 1.946882 0.279307 0.103840
v 1.946882 0.279307 -0.103840
v 1.769808 0.381540 0.103840
v 1.769808 0.381540 -0.103840
v 1.266716 0.000000 -0.135000
v 1.266716 -0.000000 0.135000
v 1.298280 0.000000 -0.152427
v 1.298280 -0.000000 0.152427
v 1.336342 0.000000 -0.139991
v 1.352690 -0.000000 0.139991
v 1.336342 0.000000 -0.103840
v 1.352690 -0.000000 0.103840
v 1.286035 0.000000 -0.103840
v 1.286035 -0.000000 0.103840
v 2.068434 0.000000 -0.135000
v 2.068434 -0.000000 0.135000
v 2.036870 0.000000 -0.152427
v 2.036870 -0.000000 0.152427
v 1.998808 0.000000 -0.139991
v 1.982460 0.000000 0.139991
v 1.998808 0.000000 -0.103840
v 1.982460 0.000000 0.103840
v 2.049115 0.000000 -0.103840
v 2.049115 -0.000000 0.103840
v 0.941198 0.400859 -0.135000
v 0.726378 0.400859 -0.135000
v 0.540338 0.293449 -0.135000
v 0.432929 0.107410 -0.135000
v 1.234647 0.107410 -0.135000
v 1.127237 0.293449 -0.135000
v 0.941198 0.400859 0.135000
v 0.726378 0.400859 0.135000
v 0.540338 0.293449 0.135000
v 0.432929 0.107410 0.135000
v 1.234647 0.107410 0.135000
v 1.127237 0.293449 0.135000
v 0.932740 0.369295 -0.152427
v 0.734835 0.369295 -0.152427
v 0.563445 0.270343 -0.152427
v 0.464492 0.098952 -0.152427
v 1.203083 0.098952 -0.152427
v 1.104131 0.270343 -0.152427
v 0.932740 0.369295 0.152427
v 0.734835 0.369295 0.152427
v 0.563445 0.270343 0.152427
v 0.464492 0.098952 0.152427
v 1.203083 0.098952 0.152427
v 1.104131 0.270343 0.152427
v 0.922541 0.331233 -0.103840
v 0.745034 0.331233 -0.103840
v 0.591308 0.242479 -0.103840
v 0.502555 0.088754 -0.103840
v 1.165021 0.088754 -0.103840
v 1.076267 0.242479 -0.103840
v 0.918161 0.314885 0.103840
v 0.749415 0.314885 0.103840
v 0.603276 0.230512 0.103840
v 0.518903 0.084373 0.103840
v 1.148672 0.084373 0.103840
v 1.064299 0.230512 0.103840
v 0.745034 0.331233 -0.139991
v 0.922541 0.331233 -0.139991
v 0.591308 0.242479 -0.139991
v 0.502555 0.088754 -0.139991
v 1.165021 0.088754 -0.139991
v 1.076267 0.242479 -0.139991
v 0.749415 0.314885 0.139991
v 0.918161 0.314885 0.139991
v 0.603276 0.230512 0.139991
v 0.518903 0.084373 0.139991
v 1.148672 0.084373 0.139991
v 1.064299 0.230512 0.139991
v 0.731554 0.381540 -0.103840
v 0.731554 0.381540 0.103840
v 0.554481 0.279307 0.103840
v 0.554481 0.279307 -0.103840
v 0.452247 0.102233 0.103840
v 0.452247 0.102233 -0.103840
v 1.215328 0.102233 0.103840
v 1.215328 0.102233 -0.103840
v 1.113095 0.279307 0.103840
v 1.113095 0.279307 -0.103840
v 0.936021 0.381540 0.103840
v 0.936021 0.381540 -0.103840
v 0.432929 0.000000 -0.135000
v 0.432929 -0.000000 0.135000
v 0.464493 0.000000 -0.152427
v 0.464493 -0.000000 0.152427
v 0.502555 0.000000 -0.139991
v 0.518903 -0.000000 0.139991
v 0.502555 0.000000 -0.103840
v 0.518903 -0.000000 0.103840
v 0.452247 0.000000 -0.103840
v 0.452247 -0.000000 0.103840
v 1.234647 0.000000 -0.135000
v 1.234647 -0.000000 0.135000
v 1.203083 0.000000 -0.152427
v 1.203083 -0.000000 0.152427
v 1.165021 0.000000 -0.139991
v 1.148672 0.000000 0.139991
v 1.165021 0.000000 -0.103840
v 1.148672 0.000000 0.103840
v 1.215328 0.000000 -0.103840
v 1.215328 -0.000000 0.103840
v 0.107411 0.400859 -0.135000
v -0.107409 0.400859 -0.135000
v -0.293449 0.293449 -0.135000
v -0.400859 0.107410 -0.135000
v 0.400860 0.107410 -0.135000
v 0.293450 0.293449 -0.135000
v 0.107411 0.400859 0.135000
v -0.107409 0.400859 0.135000
v -0.293449 0.293449 0.135000
v -0.400859 0.107410 0.135000
v 0.400860 0.107410 0.135000
v 0.293450 0.293449 0.135000
v 0.098953 0.369295 -0.152427
v -0.098952 0.369295 -0.152427
v -0.270342 0.270343 -0.152427
v -0.369295 0.098952 -0.152427
v 0.369296 0.098952 -0.152427
v 0.270344 0.270343 -0.152427
v 0.098953 0.369295 0.152427
v -0.098952 0.369295 0.152427
v -0.270342 0.270343 0.152427
v -0.369295 0.098952 0.152427
v 0.369296 0.098952 0.152427
v 0.270344 0.270343 0.152427
v 0.088754 0.331233 -0.103840
v -0.088753 0.331233 -0.103840
v -0.242479 0.242479 -0.103840
v -0.331232 0.088754 -0.103840
v 0.331234 0.088754 -0.103840
v 0.242480 0.242479 -0.103840
v 0.084374 0.314885 0.103840
v -0.084373 0.314885 0.103840
v -0.230511 0.230512 0.103840
v -0.314884 0.084373 0.103840
v 0.314885 0.084373 0.103840
v 0.230512 0.230512 0.103840
v -0.088753 0.331233 -0.139991
v 0.088754 0.331233 -0.139991
v -0.242479 0.242479 -0.139991
v -0.331232 0.088754 -0.139991
v 0.331234 0.088754 -0.139991
v 0.242480 0.242479 -0.139991
v -0.084373 0.314885 0.139991
v 0.084374 0.314885 0.139991
v -0.230511 0.230512 0.139991
v -0.314884 0.084373 0.139991
v 0.314885 0.084373 0.139991
v 0.230512 0.230512 0.139991
v -0.102233 0.381540 -0.103840
v -0.102233 0.381540 0.103840
v -0.279306 0.279307 0.103840
v -0.279306 0.279307 -0.103840
v -0.381540 0.102233 0.103840
v -0.381540 0.102233 -0.103840
v 0.381541 0.102233 0.103840
v 0.381541 0.102233 -0.103840
v 0.279307 0.279307 0.103840
v 0.279307 0.279307 -0.103840
v 0.102234 0.381540 0.103840
v 0.102234 0.381540 -0.103840
v -0.400859 0.000000 -0.135000
v -0.400859 -0.000000 0.135000
v -0.369295 0.000000 -0.152427
v -0.369295 -0.000000 0.152427
v -0.331232 0.000000 -0.139991
v -0.314884 -0.000000 0.139991
v -0.331232 0.000000 -0.103840
v -0.314884 -0.000000 0.103840
v -0.381540 0.000000 -0.103840
v -0.381540 -0.000000 0.103840
v 0.400860 0.000000 -0.135000
v 0.400860 -0.000000 0.135000
v 0.369296 0.000000 -0.152427
v 0.369296 -0.000000 0.152427
v 0.331234 0.000000 -0.139991
v 0.314885 0.000000 0.139991
v 0.331234 0.000000 -0.103840
v 0.314885 0.000000 0.103840
v 0.381541 0.000000 -0.103840
v 0.381541 -0.000000 0.103840
v -0.726377 0.400859 -0.135000
v -0.941196 0.400859 -0.135000
v -1.127236 0.293449 -0.135000
v -1.234646 0.107410 -0.135000
v -0.432927 0.107410 -0.135000
v -0.540337 0.293449 -0.135000
v -0.726377 0.400859 0.135000
v -0.941196 0.400859 0.135000
v -1.127236 0.293449 0.135000
v -1.234646 0.107410 0.135000
v -0.432927 0.107410 0.135000
v -0.540337 0.293449 0.135000
v -0.734834 0.369295 -0.152427
v -0.932739 0.369295 -0.152427
v -1.104129 0.270343 -0.152427
v -1.203082 0.098952 -0.152427
v -0.464491 0.098952 -0.152427
v -0.563444 0.270343 -0.152427
v -0.734834 0.369295 0.152427
v -0.932739 0.369295 0.152427
v -1.104129 0.270343 0.152427
v -1.203082 0.098952 0.152427
v -0.464491 0.098952 0.152427
v -0.563444 0.270343 0.152427
v -0.745033 0.331233 -0.103840
v -0.922540 0.331233 -0.103840
v -1.076266 0.242479 -0.103840
v -1.165020 0.088754 -0.103840
v -0.502553 0.088754 -0.103840
v -0.591307 0.242479 -0.103840
v -0.749413 0.314885 0.103840
v -0.918159 0.314885 0.103840
v -1.064298 0.230512 0.103840
v -1.148671 0.084373 0.103840
v -0.518902 0.084373 0.103840
v -0.603275 0.230512 0.103840
v -0.922540 0.331233 -0.139991
v -0.745033 0.331233 -0.139991
v -1.076266 0.242479 -0.139991
v -1.165020 0.088754 -0.139991
v -0.502553 0.088754 -0.139991
v -0.591307 0.242479 -0.139991
v -0.918159 0.314885 0.139991
v -0.749413 0.314885 0.139991
v -1.064298 0.230512 0.139991
v -1.148671 0.084373 0.139991
v -0.518902 0.084373 0.139991
v -0.603275 0.230512 0.139991
v -0.936020 0.381540 -0.103840
v -0.936020 0.381540 0.103840
v -1.113093 0.279307 0.103840
v -1.113093 0.279307 -0.103840
v -1.215327 0.102233 0.103840
v -1.215327 0.102233 -0.103840
v -0.452246 0.102233 0.103840
v -0.452246 0.102233 -0.103840
v -0.554480 0.279307 0.103840
v -0.554480 0.279307 -0.103840
v -0.731553 0.381540 0.103840
v -0.731553 0.381540 -0.103840
v -1.234646 0.000000 -0.135000
v -1.234646 -0.000000 0.135000
v -1.203082 0.000000 -0.152427
v -1.203082 -0.000000 0.152427
v -1.165020 0.000000 -0.139991
v -1.148671 -0.000000 0.139991
v -1.165020 0.000000 -0.103840
v -1.148671 -0.000000 0.103840
v -1.215327 0.000000 -0.103840
v -1.215327 -0.000000 0.103840
v -0.432927 0.000000 -0.135000
v -0.432927 -0.000000 0.135000
v -0.464491 0.000000 -0.152427
v -0.464491 -0.000000 0.152427
v -0.502553 0.000000 -0.139991
v -0.518902 0.000000 0.139991
v -0.502553 0.000000 -0.103840
v -0.518902 0.000000 0.103840
v -0.452246 0.000000 -0.103840
v -0.452246 -0.000000 0.103840
v -1.560164 0.400859 -0.135000
v -1.774984 0.400859 -0.135000
v -1.961023 0.293449 -0.135000
v -2.068433 0.107410 -0.135000
v -1.266715 0.107410 -0.135000
v -1.374124 0.293449 -0.135000
v -1.560164 0.400859 0.135000
v -1.774984 0.400859 0.135000
v -1.961023 0.293449 0.135000
v -2.068433 0.107410 0.135000
v -1.266715 0.107410 0.135000
v -1.374124 0.293449 0.135000
v -1.568621 0.369295 -0.152427
v -1.766526 0.369295 -0.152427
v -1.937917 0.270343 -0.152427
v -2.036869 0.098952 -0.152427
v -1.298278 0.098952 -0.152427
v -1.397231 0.270343 -0.152427
v -1.568621 0.369295 0.152427
v -1.766526 0.369295 0.152427
v -1.937917 0.270343 0.152427
v -2.036869 0.098952 0.152427
v -1.298278 0.098952 0.152427
v -1.397231 0.270343 0.152427
v -1.578820 0.331233 -0.103840
v -1.756327 0.331233 -0.103840
v -1.910053 0.242479 -0.103840
v -1.998807 0.088754 -0.103840
v -1.336341 0.088754 -0.103840
v -1.425094 0.242479 -0.103840
v -1.583201 0.314885 0.103840
v -1.751947 0.314885 0.103840
v -1.898085 0.230512 0.103840
v -1.982458 0.084373 0.103840
v -1.352689 0.084373 0.103840
v -1.437062 0.230512 0.103840
v -1.756327 0.331233 -0.139991
v -1.578820 0.331233 -0.139991
v -1.910053 0.242479 -0.139991
v -1.998807 0.088754 -0.139991
v -1.336341 0.088754 -0.139991
v -1.425094 0.242479 -0.139991
v -1.751947 0.314885 0.139991
v -1.583201 0.314885 0.139991
v -1.898085 0.230512 0.139991
v -1.982458 0.084373 0.139991
v -1.352689 0.084373 0.139991
v -1.437062 0.230512 0.139991
v -1.769807 0.381540 -0.103840
v -1.769807 0.381540 0.103840
v -1.946881 0.279307 0.103840
v -1.946881 0.279307 -0.103840
v -2.049114 0.102233 0.103840
v -2.049114 0.102233 -0.103840
v -1.286033 0.102233 0.103840
v -1.286033 0.102233 -0.103840
v -1.388267 0.279307 0.103840
v -1.388267 0.279307 -0.103840
v -1.565340 0.381540 0.103840
v -1.565340 0.381540 -0.103840
v -2.068433 0.000000 -0.135000
v -2.068433 -0.000000 0.135000
v -2.036869 0.000000 -0.152427
v -2.036869 -0.000000 0.152427
v -1.998807 0.000000 -0.139991
v -1.982458 -0.000000 0.139991
v -1.998807 0.000000 -0.103840
v -1.982458 -0.000000 0.103840
v -2.049114 0.000000 -0.103840
v -2.049114 -0.000000 0.103840
v -1.266715 0.000000 -0.135000
v -1.266715 -0.000000 0.135000
v -1.298278 0.000000 -0.152427
v -1.298278 -0.000000 0.152427
v -1.336341 0.000000 -0.139991
v -1.352689 0.000000 0.139991
v -1.336341 0.000000 -0.103840
v -1.352689 0.000000 0.103840
v -1.286033 0.000000 -0.103840
v -1.286033 -0.000000 0.103840
vn 0.5000 0.8660 -0.0000
vn -0.5000 0.8660 -0.0000
vn -0.8660 0.5000 -0.0000
vn 1.0000 -0.0000 -0.0000
vn 0.8660 0.5000 -0.0000
vn -0.0000 1.0000 -0.0000
vn 0.4834 -0.0000 0.8754
vn -0.4186 0.2417 0.8754
vn 0.4186 0.2417 0.8754
vn -0.0000 0.4833 -0.8754
vn 0.2417 0.4186 0.8754
vn -0.2417 0.4186 -0.8754
vn -0.4186 0.2417 -0.8754
vn 0.4186 0.2417 -0.8754
vn -0.4833 -0.0000 -0.8754
vn 0.2417 0.4186 -0.8754
vn -0.0000 0.4834 0.8754
vn -0.2417 0.4186 0.8754
vn -0.1930 -0.1114 0.9749
vn -0.0000 -0.3106 -0.9505
vn -0.1114 -0.1930 0.9749
vn 0.1553 -0.2690 -0.9505
vn 0.2690 -0.1553 -0.9505
vn -0.2690 -0.1553 -0.9505
vn 0.3106 -0.0000 -0.9505
vn -0.1553 -0.2690 -0.9505
vn -0.0000 -0.2228 0.9749
vn 0.1114 -0.1930 0.9749
vn -0.2228 -0.0000 0.9749
vn 0.1930 -0.1114 0.9749
vn -0.0000 -0.0000 -1.0000
vn -0.0000 -0.0000 1.0000
vn -0.0000 -1.0000 -0.0000
vn 0.5000 -0.8660 -0.0000
vn 0.8660 -0.5000 -0.0000
vn -1.0000 -0.0000 -0.0000
vn -0.8660 -0.5000 -0.0000
vn -0.5000 -0.8660 -0.0000
vn 0.2228 -0.0000 0.9749
vn -0.4834 -0.0000 0.8754
vn -0.3106 -0.0000 -0.9505
vn 0.4833 -0.0000 -0.8754
vn 0.4834 -0.0000 -0.8754
vn -0.4834 -0.0000 -0.8754
vn -0.0000 0.4834 -0.8754
vn -0.0000 0.4833 0.8754
vn -0.4833 -0.0000 0.8754
vt 0.849448 0.759686
vt 0.849653 0.735060
vt 0.849212 0.759686
vt 0.849007 0.735060
vt 0.848889 0.692406
vt 0.849771 0.692406
vt 0.849771 0.667779
vt 0.849736 0.690467
vt 0.849736 0.667779
vt 0.848923 0.690467
vt 0.849032 0.729762
vt 0.849439 0.752449
vt 0.849221 0.752449
vt 0.849627 0.729762
vt 0.848889 0.667779
vt 0.848923 0.667779
vt 0.849584 0.720630
vt 0.849676 0.687124
vt 0.849428 0.743723
vt 0.849232 0.743723
vt 0.849423 0.739974
vt 0.849063 0.723374
vt 0.848965 0.688128
vt 0.849597 0.723374
vt 0.848965 0.667779
vt 0.849076 0.720630
vt 0.849237 0.739974
vt 0.849676 0.667779
vt 0.848983 0.687124
vt 0.857222 0.707725
vt 0.857097 0.717024
vt 0.857234 0.717024
vt 0.857328 0.697624
vt 0.857225 0.710006
vt 0.856944 0.676178
vt 0.856910 0.663797
vt 0.856944 0.663797
vt 0.857388 0.676178
vt 0.857353 0.702762
vt 0.856979 0.702762
vt 0.856910 0.678059
vt 0.849694 0.667779
vt 0.849694 0.688128
vt 0.848983 0.667779
vt 0.856897 0.663797
vt 0.857421 0.678059
vt 0.857421 0.663797
vt 0.857011 0.695954
vt 0.857109 0.707725
vt 0.857377 0.675567
vt 0.857377 0.663797
vt 0.856955 0.675567
vt 0.857320 0.695954
vt 0.857106 0.710006
vt 0.857003 0.697624
vt 0.857434 0.663797
vt 0.848530 0.759686
vt 0.848735 0.735060
vt 0.848294 0.759686
vt 0.848089 0.735060
vt 0.847971 0.692406
vt 0.848853 0.692406
vt 0.848853 0.667779
vt 0.848818 0.690467
vt 0.848818 0.667779
vt 0.848114 0.729762
vt 0.848710 0.729762
vt 0.848521 0.752449
vt 0.848303 0.752449
vt 0.848005 0.690467
vt 0.847971 0.667779
vt 0.848005 0.667779
vt 0.848759 0.687124
vt 0.848510 0.743723
vt 0.848314 0.743723
vt 0.848505 0.739974
vt 0.848666 0.720630
vt 0.848145 0.723374
vt 0.848047 0.688128
vt 0.848777 0.688128
vt 0.848679 0.723374
vt 0.848047 0.667779
vt 0.848319 0.739974
vt 0.848759 0.667779
vt 0.848065 0.687124
vt 0.848158 0.720630
vt 0.856664 0.707725
vt 0.856539 0.717024
vt 0.856676 0.717024
vt 0.856667 0.710006
vt 0.856794 0.702762
vt 0.856385 0.676178
vt 0.856352 0.663797
vt 0.856385 0.663797
vt 0.856770 0.697624
vt 0.856863 0.678059
vt 0.856420 0.702762
vt 0.856352 0.678059
vt 0.848777 0.667779
vt 0.848065 0.667779
vt 0.856339 0.663797
vt 0.856863 0.663797
vt 0.856453 0.695954
vt 0.856551 0.707725
vt 0.856818 0.675567
vt 0.856818 0.663797
vt 0.856396 0.675567
vt 0.856762 0.695954
vt 0.856548 0.710006
vt 0.856445 0.697624
vt 0.856876 0.663797
vt 0.856829 0.676178
vt 0.847612 0.759686
vt 0.847817 0.735060
vt 0.847376 0.759686
vt 0.847171 0.735060
vt 0.847053 0.692406
vt 0.847935 0.692406
vt 0.847935 0.667779
vt 0.847901 0.690467
vt 0.847901 0.667779
vt 0.847196 0.729762
vt 0.847792 0.729762
vt 0.847603 0.752449
vt 0.847385 0.752449
vt 0.847088 0.690467
vt 0.847053 0.667779
vt 0.847088 0.667779
vt 0.847841 0.687124
vt 0.847592 0.743723
vt 0.847396 0.743723
vt 0.847748 0.720630
vt 0.847227 0.723374
vt 0.847129 0.688128
vt 0.847761 0.723374
vt 0.847129 0.667779
vt 0.847587 0.739974
vt 0.847240 0.720630
vt 0.847401 0.739974
vt 0.847841 0.667779
vt 0.847147 0.687124
vt 0.856105 0.707725
vt 0.855980 0.717024
vt 0.856117 0.717024
vt 0.856108 0.710006
vt 0.856236 0.702762
vt 0.855827 0.676178
vt 0.855793 0.663797
vt 0.855827 0.663797
vt 0.856211 0.697624
vt 0.856304 0.678059
vt 0.855862 0.702762
vt 0.855793 0.678059
vt 0.847859 0.667779
vt 0.847859 0.688128
vt 0.847147 0.667779
vt 0.855780 0.663797
vt 0.856304 0.663797
vt 0.855894 0.695954
vt 0.855992 0.707725
vt 0.856260 0.675567
vt 0.856260 0.663797
vt 0.855838 0.675567
vt 0.855989 0.710006
vt 0.856203 0.695954
vt 0.855886 0.697624
vt 0.856317 0.663797
vt 0.856271 0.676178
vt 0.846694 0.759686
vt 0.846899 0.735060
vt 0.846458 0.759686
vt 0.846253 0.735060
vt 0.846135 0.692406
vt 0.847017 0.692406
vt 0.847017 0.667779
vt 0.846983 0.690467
vt 0.846983 0.667779
vt 0.846279 0.729762
vt 0.846685 0.752449
vt 0.846467 0.752449
vt 0.846874 0.729762
vt 0.846170 0.690467
vt 0.846135 0.667779
vt 0.846170 0.667779
vt 0.846830 0.720630
vt 0.846923 0.687124
vt 0.846674 0.743723
vt 0.846479 0.743723
vt 0.846669 0.739974
vt 0.846309 0.723374
vt 0.846212 0.688128
vt 0.846843 0.723374
vt 0.846212 0.667779
vt 0.846483 0.739974
vt 0.846923 0.667779
vt 0.846230 0.687124
vt 0.846322 0.720630
vt 0.855547 0.707725
vt 0.855422 0.717024
vt 0.855559 0.717024
vt 0.855550 0.710006
vt 0.855677 0.702762
vt 0.855269 0.676178
vt 0.855235 0.663797
vt 0.855269 0.663797
vt 0.855712 0.676178
vt 0.855653 0.697624
vt 0.855303 0.702762
vt 0.855235 0.678059
vt 0.846941 0.667779
vt 0.846941 0.688128
vt 0.846230 0.667779
vt 0.855222 0.663797
vt 0.855746 0.678059
vt 0.855746 0.663797
vt 0.855336 0.695954
vt 0.855434 0.707725
vt 0.855701 0.675567
vt 0.855701 0.663797
vt 0.855645 0.695954
vt 0.855431 0.710006
vt 0.855328 0.697624
vt 0.855280 0.675567
vt 0.855759 0.663797
vt 0.845777 0.759686
vt 0.845981 0.735060
vt 0.845540 0.759686
vt 0.845335 0.735060
vt 0.845217 0.692406
vt 0.846100 0.692406
vt 0.846100 0.667779
vt 0.846065 0.690467
vt 0.846065 0.667779
vt 0.845361 0.729762
vt 0.845956 0.729762
vt 0.845767 0.752449
vt 0.845549 0.752449
vt 0.845252 0.690467
vt 0.845217 0.667779
vt 0.845252 0.667779
vt 0.846005 0.687124
vt 0.845756 0.743723
vt 0.845561 0.743723
vt 0.845751 0.739974
vt 0.845912 0.720630
vt 0.845391 0.723374
vt 0.845294 0.688128
vt 0.846023 0.688128
vt 0.845925 0.723374
vt 0.845294 0.667779
vt 0.845565 0.739974
vt 0.846005 0.667779
vt 0.845312 0.687124
vt 0.845405 0.720630
vt 0.854988 0.707725
vt 0.854863 0.717024
vt 0.855000 0.717024
vt 0.854991 0.710006
vt 0.855119 0.702762
vt 0.854710 0.676178
vt 0.854676 0.663797
vt 0.854710 0.663797
vt 0.855154 0.676178
vt 0.855094 0.697624
vt 0.854745 0.702762
vt 0.854676 0.678059
vt 0.846023 0.667779
vt 0.845312 0.667779
vt 0.854663 0.663797
vt 0.855187 0.678059
vt 0.855187 0.663797
vt 0.854875 0.707725
vt 0.855143 0.675567
vt 0.855143 0.663797
vt 0.854778 0.695954
vt 0.855086 0.695954
vt 0.854872 0.710006
vt 0.854769 0.697624
vt 0.854721 0.675567
vt 0.855200 0.663797
vt 0.856955 0.663797
vt 0.856918 0.663797
vt 0.857388 0.663797
vt 0.857413 0.663797
vt 0.856396 0.663797
vt 0.856360 0.663797
vt 0.856829 0.663797
vt 0.856855 0.663797
vt 0.855838 0.663797
vt 0.855802 0.663797
vt 0.856271 0.663797
vt 0.856296 0.663797
vt 0.855280 0.663797
vt 0.855243 0.663797
vt 0.855712 0.663797
vt 0.855738 0.663797
vt 0.854721 0.663797
vt 0.854685 0.663797
vt 0.855154 0.663797
vt 0.855179 0.663797
s 0
usemtl Texture_Map
f 1/1/1 12/2/1 6/2/1
f 2/3/2 9/4/2 8/3/2
f 3/4/3 10/5/3 9/4/3
f 5/6/4 72/7/4 71/7/4
f 6/2/5 11/6/5 5/6/5
f 2/3/6 7/1/6 1/1/6
f 72/7/7 23/8/7 74/9/7
f 9/4/8 22/10/8 21/11/8
f 12/2/9 23/8/9 11/6/9
f 2/3/10 13/12/10 14/13/10
f 7/1/11 24/14/11 12/2/11
f 2/3/12 15/11/12 3/4/12
f 3/4/13 16/10/13 4/5/13
f 6/2/14 17/8/14 18/14/14
f 61/15/15 16/10/15 63/16/15
f 1/1/16 18/14/16 13/12/16
f 8/3/17 19/12/17 7/1/17
f 8/3/18 21/11/18 20/13/18
f 23/8/19 48/17/19 47/18/19
f 14/13/20 38/19/20 37/20/20
f 24/14/21 44/21/21 48/17/21
f 14/13/22 39/22/22 15/11/22
f 15/11/23 40/23/23 16/10/23
f 17/8/24 42/24/24 18/14/24
f 63/16/25 40/23/25 65/25/25
f 13/12/26 42/24/26 38/19/26
f 20/13/27 44/21/27 19/12/27
f 20/13/28 45/26/28 43/27/28
f 74/9/29 47/18/29 76/28/29
f 21/11/30 46/29/30 45/26/30
f 31/30/31 50/31/31 59/32/31
f 30/33/32 60/32/32 25/34/32
f 28/35/32 69/36/32 67/37/32
f 29/38/32 58/39/32 30/33/32
f 28/35/32 52/40/32 54/41/32
f 26/20/33 38/19/33 25/19/33
f 27/22/34 37/20/34 26/20/34
f 28/23/35 39/22/35 27/22/35
f 77/42/36 41/43/36 75/42/36
f 29/43/37 42/24/37 41/43/37
f 25/19/38 42/24/38 30/24/38
f 31/21/33 43/27/33 32/27/33
f 32/27/34 45/26/34 33/26/34
f 33/26/35 46/29/35 34/29/35
f 34/29/4 66/44/4 68/44/4
f 35/18/37 48/17/37 36/17/37
f 36/17/38 44/21/38 31/21/38
f 53/41/35 52/40/35 51/40/35
f 51/40/34 49/31/34 50/31/34
f 62/45/33 61/45/33 69/36/33
f 55/46/36 79/47/36 80/47/36
f 57/39/37 56/46/37 55/46/37
f 57/39/38 60/32/38 58/39/38
f 50/31/33 60/32/33 59/32/33
f 33/48/31 50/31/31 32/49/31
f 35/50/31 80/47/31 78/51/31
f 34/52/31 51/40/31 33/48/31
f 36/53/31 55/46/31 35/50/31
f 25/34/32 49/31/32 26/54/32
f 31/30/31 57/39/31 36/53/31
f 27/55/32 49/31/32 52/40/32
f 34/52/31 70/36/31 53/41/31
f 53/41/4 69/36/4 54/41/4
f 67/25/4 40/23/4 28/23/4
f 64/16/39 46/29/39 22/10/39
f 62/15/40 22/10/40 10/5/40
f 61/15/36 10/5/36 4/5/36
f 79/47/33 71/56/33 72/56/33
f 78/28/36 47/18/36 35/18/36
f 29/38/32 79/47/32 56/46/32
f 73/9/41 41/43/41 17/8/41
f 71/7/42 17/8/42 5/6/42
f 81/57/1 92/58/1 86/58/1
f 82/59/2 89/60/2 88/59/2
f 83/60/3 90/61/3 89/60/3
f 85/62/4 152/63/4 151/63/4
f 86/58/5 91/62/5 85/62/5
f 82/59/6 87/57/6 81/57/6
f 152/63/7 103/64/7 154/65/7
f 90/61/8 101/66/8 89/60/8
f 91/62/9 104/67/9 103/64/9
f 82/59/10 93/68/10 94/69/10
f 87/57/11 104/67/11 92/58/11
f 82/59/12 95/66/12 83/60/12
f 84/61/13 95/66/13 96/70/13
f 85/62/14 98/67/14 86/58/14
f 141/71/15 96/70/15 143/72/15
f 81/57/16 98/67/16 93/68/16
f 88/59/17 99/68/17 87/57/17
f 88/59/18 101/66/18 100/69/18
f 104/67/19 127/73/19 103/64/19
f 94/69/20 118/74/20 117/75/20
f 104/67/21 124/76/21 128/77/21
f 95/66/22 117/75/22 119/78/22
f 95/66/23 120/79/23 96/70/23
f 98/67/24 121/80/24 122/81/24
f 143/72/25 120/79/25 145/82/25
f 98/67/26 118/74/26 93/68/26
f 100/69/27 124/76/27 99/68/27
f 101/66/28 123/83/28 100/69/28
f 154/65/29 127/73/29 156/84/29
f 101/66/30 126/85/30 125/86/30
f 111/87/31 130/88/31 139/89/31
f 105/90/32 138/91/32 140/89/32
f 108/92/32 149/93/32 147/94/32
f 110/95/32 136/96/32 138/91/32
f 108/92/32 132/97/32 134/98/32
f 106/75/33 118/74/33 105/74/33
f 107/78/34 117/75/34 106/75/34
f 108/79/35 119/78/35 107/78/35
f 157/99/36 121/80/36 155/99/36
f 110/81/37 121/80/37 109/80/37
f 105/74/38 122/81/38 110/81/38
f 111/76/33 123/83/33 112/83/33
f 112/83/34 125/86/34 113/86/34
f 113/86/35 126/85/35 114/85/35
f 114/85/4 146/100/4 148/100/4
f 115/73/37 128/77/37 116/77/37
f 116/77/38 124/76/38 111/76/38
f 133/98/35 132/97/35 131/97/35
f 131/97/34 129/88/34 130/88/34
f 142/101/33 141/101/33 149/93/33
f 135/96/36 159/102/36 160/102/36
f 137/91/37 136/96/37 135/96/37
f 137/91/38 140/89/38 138/91/38
f 130/88/33 140/89/33 139/89/33
f 113/103/31 130/88/31 112/104/31
f 115/105/31 160/102/31 158/106/31
f 114/107/31 131/97/31 113/103/31
f 116/108/31 135/96/31 115/105/31
f 105/90/32 129/88/32 106/109/32
f 111/87/31 137/91/31 116/108/31
f 107/110/32 129/88/32 132/97/32
f 114/107/31 150/93/31 133/98/31
f 133/98/4 149/93/4 134/98/4
f 147/82/4 120/79/4 108/79/4
f 144/72/39 126/85/39 102/70/39
f 142/71/40 102/70/40 90/61/40
f 141/71/36 90/61/36 84/61/36
f 160/102/33 151/111/33 152/111/33
f 158/84/36 127/73/36 115/73/36
f 109/112/32 159/102/32 136/96/32
f 153/65/41 121/80/41 97/64/41
f 151/63/43 97/64/43 85/62/43
f 161/113/1 172/114/1 166/114/1
f 162/115/2 169/116/2 168/115/2
f 163/116/3 170/117/3 169/116/3
f 165/118/4 232/119/4 231/119/4
f 166/114/5 171/118/5 165/118/5
f 162/115/6 167/113/6 161/113/6
f 232/119/7 183/120/7 234/121/7
f 170/117/8 181/122/8 169/116/8
f 171/118/9 184/123/9 183/120/9
f 162/115/10 173/124/10 174/125/10
f 172/114/11 179/124/11 184/123/11
f 163/116/12 174/125/12 175/122/12
f 164/117/13 175/122/13 176/126/13
f 165/118/14 178/123/14 166/114/14
f 221/127/15 176/126/15 223/128/15
f 166/114/16 173/124/16 161/113/16
f 168/115/17 179/124/17 167/113/17
f 169/116/18 180/125/18 168/115/18
f 184/123/19 207/129/19 183/120/19
f 174/125/20 198/130/20 197/131/20
f 179/124/21 208/132/21 184/123/21
f 174/125/22 199/133/22 175/122/22
f 175/122/23 200/134/23 176/126/23
f 177/120/24 202/135/24 178/123/24
f 223/128/25 200/134/25 225/136/25
f 173/124/26 202/135/26 198/130/26
f 180/125/27 204/137/27 179/124/27
f 180/125/28 205/138/28 203/139/28
f 234/121/29 207/129/29 236/140/29
f 181/122/30 206/141/30 205/138/30
f 191/142/31 210/143/31 219/144/31
f 185/145/32 218/146/32 220/144/32
f 188/147/32 229/148/32 227/149/32
f 190/150/32 216/151/32 218/146/32
f 188/147/32 212/152/32 214/153/32
f 186/131/33 198/130/33 185/130/33
f 187/133/34 197/131/34 186/131/34
f 188/134/35 199/133/35 187/133/35
f 237/154/36 201/155/36 235/154/36
f 190/135/37 201/155/37 189/155/37
f 185/130/38 202/135/38 190/135/38
f 191/137/33 203/139/33 192/139/33
f 192/139/34 205/138/34 193/138/34
f 193/138/35 206/141/35 194/141/35
f 194/141/4 226/156/4 228/156/4
f 195/129/37 208/132/37 196/132/37
f 196/132/38 204/137/38 191/137/38
f 213/153/35 212/152/35 211/152/35
f 211/152/34 209/143/34 210/143/34
f 222/157/33 221/157/33 229/148/33
f 215/151/36 239/158/36 240/158/36
f 217/146/37 216/151/37 215/151/37
f 217/146/38 220/144/38 218/146/38
f 210/143/33 220/144/33 219/144/33
f 193/159/31 210/143/31 192/160/31
f 195/161/31 240/158/31 238/162/31
f 194/163/31 211/152/31 193/159/31
f 195/161/31 217/146/31 215/151/31
f 185/145/32 209/143/32 186/164/32
f 191/142/31 217/146/31 196/165/31
f 187/166/32 209/143/32 212/152/32
f 194/163/31 230/148/31 213/153/31
f 213/153/4 229/148/4 214/153/4
f 227/136/4 200/134/4 188/134/4
f 224/128/39 206/141/39 182/126/39
f 222/127/40 182/126/40 170/117/40
f 221/127/36 170/117/36 164/117/36
f 240/158/33 231/167/33 232/167/33
f 238/140/36 207/129/36 195/129/36
f 189/168/32 239/158/32 216/151/32
f 233/121/41 201/155/41 177/120/41
f 231/119/42 177/120/42 165/118/42
f 241/169/1 252/170/1 246/170/1
f 242/171/2 249/172/2 248/171/2
f 243/172/3 250/173/3 249/172/3
f 245/174/4 312/175/4 311/175/4
f 246/170/5 251/174/5 245/174/5
f 242/171/6 247/169/6 241/169/6
f 312/175/7 263/176/7 314/177/7
f 250/173/8 261/178/8 249/172/8
f 252/170/9 263/176/9 251/174/9
f 242/171/10 253/179/10 254/180/10
f 247/169/11 264/181/11 252/170/11
f 242/171/12 255/178/12 243/172/12
f 244/173/13 255/178/13 256/182/13
f 246/170/14 257/176/14 258/181/14
f 301/183/15 256/182/15 303/184/15
f 241/169/16 258/181/16 253/179/16
f 248/171/17 259/179/17 247/169/17
f 248/171/18 261/178/18 260/180/18
f 263/176/19 288/185/19 287/186/19
f 254/180/20 278/187/20 277/188/20
f 264/181/21 284/189/21 288/185/21
f 255/178/22 277/188/22 279/190/22
f 255/178/23 280/191/23 256/182/23
f 257/176/24 282/192/24 258/181/24
f 303/184/25 280/191/25 305/193/25
f 258/181/26 278/187/26 253/179/26
f 260/180/27 284/189/27 259/179/27
f 261/178/28 283/194/28 260/180/28
f 314/177/29 287/186/29 316/195/29
f 261/178/30 286/196/30 285/197/30
f 271/198/31 290/199/31 299/200/31
f 265/201/32 298/202/32 300/200/32
f 268/203/32 309/204/32 307/205/32
f 269/206/32 298/202/32 270/207/32
f 268/203/32 292/208/32 294/209/32
f 266/188/33 278/187/33 265/187/33
f 267/190/34 277/188/34 266/188/34
f 268/191/35 279/190/35 267/190/35
f 317/210/36 281/211/36 315/210/36
f 269/211/37 282/192/37 281/211/37
f 265/187/38 282/192/38 270/192/38
f 271/189/33 283/194/33 272/194/33
f 272/194/34 285/197/34 273/197/34
f 273/197/35 286/196/35 274/196/35
f 274/196/4 306/212/4 308/212/4
f 275/186/37 288/185/37 276/185/37
f 276/185/38 284/189/38 271/189/38
f 293/209/35 292/208/35 291/208/35
f 291/208/34 289/199/34 290/199/34
f 302/213/33 301/213/33 309/204/33
f 295/214/36 319/215/36 320/215/36
f 297/202/37 296/214/37 295/214/37
f 297/202/38 300/200/38 298/202/38
f 290/199/33 300/200/33 299/200/33
f 273/216/31 290/199/31 272/217/31
f 275/218/31 320/215/31 318/219/31
f 273/216/31 293/209/31 291/208/31
f 276/220/31 295/214/31 275/218/31
f 265/201/32 289/199/32 266/221/32
f 276/220/31 299/200/31 297/202/31
f 266/221/32 292/208/32 267/222/32
f 274/223/31 310/204/31 293/209/31
f 293/209/4 309/204/4 294/209/4
f 307/193/4 280/191/4 268/191/4
f 304/184/39 286/196/39 262/182/39
f 302/183/40 262/182/40 250/173/40
f 301/183/36 250/173/36 244/173/36
f 319/215/33 311/224/33 312/224/33
f 318/195/36 287/186/36 275/186/36
f 269/206/32 319/215/32 296/214/32
f 313/177/41 281/211/41 257/176/41
f 311/175/42 257/176/42 245/174/42
f 321/225/1 332/226/1 326/226/1
f 322/227/2 329/228/2 328/227/2
f 323/228/3 330/229/3 329/228/3
f 325/230/4 392/231/4 391/231/4
f 326/226/5 331/230/5 325/230/5
f 322/227/6 327/225/6 321/225/6
f 392/231/7 343/232/7 394/233/7
f 330/229/8 341/234/8 329/228/8
f 331/230/9 344/235/9 343/232/9
f 322/227/10 333/236/10 334/237/10
f 327/225/11 344/235/11 332/226/11
f 322/227/12 335/234/12 323/228/12
f 324/229/13 335/234/13 336/238/13
f 325/230/14 338/235/14 326/226/14
f 381/239/44 336/238/44 383/240/44
f 321/225/16 338/235/16 333/236/16
f 328/227/17 339/236/17 327/225/17
f 328/227/18 341/234/18 340/237/18
f 344/235/19 367/241/19 343/232/19
f 334/237/20 358/242/20 357/243/20
f 344/235/21 364/244/21 368/245/21
f 335/234/22 357/243/22 359/246/22
f 335/234/23 360/247/23 336/238/23
f 338/235/24 361/248/24 362/249/24
f 383/240/25 360/247/25 385/250/25
f 338/235/26 358/242/26 333/236/26
f 340/237/27 364/244/27 339/236/27
f 341/234/28 363/251/28 340/237/28
f 394/233/29 367/241/29 396/252/29
f 341/234/30 366/253/30 365/254/30
f 351/255/31 370/256/31 379/257/31
f 345/258/32 378/259/32 380/257/32
f 348/260/32 389/261/32 387/262/32
f 349/263/32 378/259/32 350/264/32
f 348/260/32 372/265/32 374/266/32
f 346/243/33 358/242/33 345/242/33
f 347/246/34 357/243/34 346/243/34
f 348/247/35 359/246/35 347/246/35
f 397/267/36 361/248/36 395/267/36
f 349/248/37 362/249/37 361/248/37
f 345/242/38 362/249/38 350/249/38
f 351/244/33 363/251/33 352/251/33
f 352/251/34 365/254/34 353/254/34
f 353/254/35 366/253/35 354/253/35
f 354/253/4 386/268/4 388/268/4
f 355/241/37 368/245/37 356/245/37
f 356/245/38 364/244/38 351/244/38
f 373/266/35 372/265/35 371/265/35
f 371/265/34 369/256/34 370/256/34
f 382/269/33 381/269/33 389/261/33
f 375/270/36 399/271/36 400/271/36
f 377/259/37 376/270/37 375/270/37
f 377/259/38 380/257/38 378/259/38
f 370/256/33 380/257/33 379/257/33
f 352/272/31 371/265/31 370/256/31
f 355/273/31 400/271/31 398/274/31
f 353/275/31 373/266/31 371/265/31
f 356/276/31 375/270/31 355/273/31
f 345/258/32 369/256/32 346/277/32
f 356/276/31 379/257/31 377/259/31
f 346/277/32 372/265/32 347/278/32
f 354/279/31 390/261/31 373/266/31
f 373/266/4 389/261/4 374/266/4
f 387/250/4 360/247/4 348/247/4
f 384/240/39 366/253/39 342/238/39
f 382/239/40 342/238/40 330/229/40
f 381/239/36 330/229/36 324/229/36
f 399/271/33 391/280/33 392/280/33
f 398/252/36 367/241/36 355/241/36
f 349/263/32 399/271/32 376/270/32
f 393/233/41 361/248/41 337/232/41
f 391/231/43 337/232/43 325/230/43
f 1/1/1 7/1/1 12/2/1
f 2/3/2 3/4/2 9/4/2
f 3/4/3 4/5/3 10/5/3
f 5/6/4 11/6/4 72/7/4
f 6/2/5 12/2/5 11/6/5
f 2/3/6 8/3/6 7/1/6
f 72/7/7 11/6/7 23/8/7
f 9/4/8 10/5/8 22/10/8
f 12/2/9 24/14/9 23/8/9
f 2/3/45 1/1/45 13/12/45
f 7/1/11 19/12/11 24/14/11
f 2/3/12 14/13/12 15/11/12
f 3/4/13 15/11/13 16/10/13
f 6/2/14 5/6/14 17/8/14
f 61/15/15 4/5/15 16/10/15
f 1/1/16 6/2/16 18/14/16
f 8/3/46 20/13/46 19/12/46
f 8/3/18 9/4/18 21/11/18
f 23/8/19 24/14/19 48/17/19
f 14/13/20 13/12/20 38/19/20
f 24/14/21 19/12/21 44/21/21
f 14/13/22 37/20/22 39/22/22
f 15/11/23 39/22/23 40/23/23
f 17/8/24 41/43/24 42/24/24
f 63/16/25 16/10/25 40/23/25
f 13/12/26 18/14/26 42/24/26
f 20/13/27 43/27/27 44/21/27
f 20/13/28 21/11/28 45/26/28
f 74/9/29 23/8/29 47/18/29
f 21/11/30 22/10/30 46/29/30
f 31/30/31 32/49/31 50/31/31
f 30/33/32 58/39/32 60/32/32
f 28/35/32 54/41/32 69/36/32
f 29/38/32 56/46/32 58/39/32
f 28/35/32 27/55/32 52/40/32
f 26/20/33 37/20/33 38/19/33
f 27/22/34 39/22/34 37/20/34
f 28/23/35 40/23/35 39/22/35
f 77/42/36 29/43/36 41/43/36
f 29/43/37 30/24/37 42/24/37
f 25/19/38 38/19/38 42/24/38
f 31/21/33 44/21/33 43/27/33
f 32/27/34 43/27/34 45/26/34
f 33/26/35 45/26/35 46/29/35
f 34/29/4 46/29/4 66/44/4
f 35/18/37 47/18/37 48/17/37
f 36/17/38 48/17/38 44/21/38
f 53/41/35 54/41/35 52/40/35
f 51/40/34 52/40/34 49/31/34
f 70/36/33 68/281/33 64/282/33
f 68/281/33 66/281/33 64/282/33
f 64/282/33 62/45/33 70/36/33
f 61/45/33 63/282/33 69/36/33
f 63/282/33 65/37/33 69/36/33
f 65/37/33 67/37/33 69/36/33
f 69/36/33 70/36/33 62/45/33
f 55/46/36 56/46/36 79/47/36
f 57/39/37 58/39/37 56/46/37
f 57/39/38 59/32/38 60/32/38
f 50/31/33 49/31/33 60/32/33
f 33/48/31 51/40/31 50/31/31
f 35/50/31 55/46/31 80/47/31
f 34/52/31 53/41/31 51/40/31
f 36/53/31 57/39/31 55/46/31
f 25/34/32 60/32/32 49/31/32
f 31/30/31 59/32/31 57/39/31
f 27/55/32 26/54/32 49/31/32
f 34/52/31 68/281/31 70/36/31
f 53/41/4 70/36/4 69/36/4
f 67/25/4 65/25/4 40/23/4
f 64/16/39 66/44/39 46/29/39
f 62/15/47 64/16/47 22/10/47
f 61/15/36 62/15/36 10/5/36
f 79/47/33 77/283/33 75/283/33
f 75/283/33 73/284/33 79/47/33
f 73/284/33 71/56/33 79/47/33
f 72/56/33 74/284/33 80/47/33
f 74/284/33 76/51/33 78/51/33
f 80/47/33 74/284/33 78/51/33
f 80/47/33 79/47/33 72/56/33
f 78/28/36 76/28/36 47/18/36
f 29/38/32 77/283/32 79/47/32
f 73/9/41 75/42/41 41/43/41
f 71/7/42 73/9/42 17/8/42
f 81/57/1 87/57/1 92/58/1
f 82/59/2 83/60/2 89/60/2
f 83/60/3 84/61/3 90/61/3
f 85/62/4 91/62/4 152/63/4
f 86/58/5 92/58/5 91/62/5
f 82/59/6 88/59/6 87/57/6
f 152/63/7 91/62/7 103/64/7
f 90/61/8 102/70/8 101/66/8
f 91/62/9 92/58/9 104/67/9
f 82/59/45 81/57/45 93/68/45
f 87/57/11 99/68/11 104/67/11
f 82/59/12 94/69/12 95/66/12
f 84/61/13 83/60/13 95/66/13
f 85/62/14 97/64/14 98/67/14
f 141/71/44 84/61/44 96/70/44
f 81/57/16 86/58/16 98/67/16
f 88/59/46 100/69/46 99/68/46
f 88/59/18 89/60/18 101/66/18
f 104/67/19 128/77/19 127/73/19
f 94/69/20 93/68/20 118/74/20
f 104/67/21 99/68/21 124/76/21
f 95/66/22 94/69/22 117/75/22
f 95/66/23 119/78/23 120/79/23
f 98/67/24 97/64/24 121/80/24
f 143/72/25 96/70/25 120/79/25
f 98/67/26 122/81/26 118/74/26
f 100/69/27 123/83/27 124/76/27
f 101/66/28 125/86/28 123/83/28
f 154/65/29 103/64/29 127/73/29
f 101/66/30 102/70/30 126/85/30
f 111/87/31 112/104/31 130/88/31
f 105/90/32 110/95/32 138/91/32
f 108/92/32 134/98/32 149/93/32
f 110/95/32 109/112/32 136/96/32
f 108/92/32 107/110/32 132/97/32
f 106/75/33 117/75/33 118/74/33
f 107/78/34 119/78/34 117/75/34
f 108/79/35 120/79/35 119/78/35
f 157/99/36 109/80/36 121/80/36
f 110/81/37 122/81/37 121/80/37
f 105/74/38 118/74/38 122/81/38
f 111/76/33 124/76/33 123/83/33
f 112/83/34 123/83/34 125/86/34
f 113/86/35 125/86/35 126/85/35
f 114/85/4 126/85/4 146/100/4
f 115/73/37 127/73/37 128/77/37
f 116/77/38 128/77/38 124/76/38
f 133/98/35 134/98/35 132/97/35
f 131/97/34 132/97/34 129/88/34
f 150/93/33 148/285/33 144/286/33
f 148/285/33 146/285/33 144/286/33
f 144/286/33 142/101/33 150/93/33
f 141/101/33 143/286/33 149/93/33
f 143/286/33 145/94/33 149/93/33
f 145/94/33 147/94/33 149/93/33
f 149/93/33 150/93/33 142/101/33
f 135/96/36 136/96/36 159/102/36
f 137/91/37 138/91/37 136/96/37
f 137/91/38 139/89/38 140/89/38
f 130/88/33 129/88/33 140/89/33
f 113/103/31 131/97/31 130/88/31
f 115/105/31 135/96/31 160/102/31
f 114/107/31 133/98/31 131/97/31
f 116/108/31 137/91/31 135/96/31
f 105/90/32 140/89/32 129/88/32
f 111/87/31 139/89/31 137/91/31
f 107/110/32 106/109/32 129/88/32
f 114/107/31 148/285/31 150/93/31
f 133/98/4 150/93/4 149/93/4
f 147/82/4 145/82/4 120/79/4
f 144/72/39 146/100/39 126/85/39
f 142/71/47 144/72/47 102/70/47
f 141/71/36 142/71/36 90/61/36
f 159/102/33 157/287/33 155/287/33
f 155/287/33 153/288/33 159/102/33
f 153/288/33 151/111/33 159/102/33
f 152/111/33 154/288/33 160/102/33
f 154/288/33 156/106/33 158/106/33
f 160/102/33 154/288/33 158/106/33
f 160/102/33 159/102/33 151/111/33
f 158/84/36 156/84/36 127/73/36
f 109/112/32 157/287/32 159/102/32
f 153/65/41 155/99/41 121/80/41
f 151/63/43 153/65/43 97/64/43
f 161/113/1 167/113/1 172/114/1
f 162/115/2 163/116/2 169/116/2
f 163/116/3 164/117/3 170/117/3
f 165/118/4 171/118/4 232/119/4
f 166/114/5 172/114/5 171/118/5
f 162/115/6 168/115/6 167/113/6
f 232/119/7 171/118/7 183/120/7
f 170/117/8 182/126/8 181/122/8
f 171/118/9 172/114/9 184/123/9
f 162/115/45 161/113/45 173/124/45
f 172/114/11 167/113/11 179/124/11
f 163/116/12 162/115/12 174/125/12
f 164/117/13 163/116/13 175/122/13
f 165/118/14 177/120/14 178/123/14
f 221/127/15 164/117/15 176/126/15
f 166/114/16 178/123/16 173/124/16
f 168/115/46 180/125/46 179/124/46
f 169/116/18 181/122/18 180/125/18
f 184/123/19 208/132/19 207/129/19
f 174/125/20 173/124/20 198/130/20
f 179/124/21 204/137/21 208/132/21
f 174/125/22 197/131/22 199/133/22
f 175/122/23 199/133/23 200/134/23
f 177/120/24 201/155/24 202/135/24
f 223/128/25 176/126/25 200/134/25
f 173/124/26 178/123/26 202/135/26
f 180/125/27 203/139/27 204/137/27
f 180/125/28 181/122/28 205/138/28
f 234/121/29 183/120/29 207/129/29
f 181/122/30 182/126/30 206/141/30
f 191/142/31 192/160/31 210/143/31
f 185/145/32 190/150/32 218/146/32
f 188/147/32 214/153/32 229/148/32
f 190/150/32 189/168/32 216/151/32
f 188/147/32 187/166/32 212/152/32
f 186/131/33 197/131/33 198/130/33
f 187/133/34 199/133/34 197/131/34
f 188/134/35 200/134/35 199/133/35
f 237/154/36 189/155/36 201/155/36
f 190/135/37 202/135/37 201/155/37
f 185/130/38 198/130/38 202/135/38
f 191/137/33 204/137/33 203/139/33
f 192/139/34 203/139/34 205/138/34
f 193/138/35 205/138/35 206/141/35
f 194/141/4 206/141/4 226/156/4
f 195/129/37 207/129/37 208/132/37
f 196/132/38 208/132/38 204/137/38
f 213/153/35 214/153/35 212/152/35
f 211/152/34 212/152/34 209/143/34
f 230/148/33 228/289/33 224/290/33
f 228/289/33 226/289/33 224/290/33
f 224/290/33 222/157/33 230/148/33
f 221/157/33 223/290/33 229/148/33
f 223/290/33 225/149/33 229/148/33
f 225/149/33 227/149/33 229/148/33
f 229/148/33 230/148/33 222/157/33
f 215/151/36 216/151/36 239/158/36
f 217/146/37 218/146/37 216/151/37
f 217/146/38 219/144/38 220/144/38
f 210/143/33 209/143/33 220/144/33
f 193/159/31 211/152/31 210/143/31
f 195/161/31 215/151/31 240/158/31
f 194/163/31 213/153/31 211/152/31
f 195/161/31 196/165/31 217/146/31
f 185/145/32 220/144/32 209/143/32
f 191/142/31 219/144/31 217/146/31
f 187/166/32 186/164/32 209/143/32
f 194/163/31 228/289/31 230/148/31
f 213/153/4 230/148/4 229/148/4
f 227/136/4 225/136/4 200/134/4
f 224/128/39 226/156/39 206/141/39
f 222/127/47 224/128/47 182/126/47
f 221/127/36 222/127/36 170/117/36
f 239/158/33 237/291/33 235/291/33
f 235/291/33 233/292/33 239/158/33
f 233/292/33 231/167/33 239/158/33
f 232/167/33 234/292/33 240/158/33
f 234/292/33 236/162/33 238/162/33
f 240/158/33 234/292/33 238/162/33
f 240/158/33 239/158/33 231/167/33
f 238/140/36 236/140/36 207/129/36
f 189/168/32 237/291/32 239/158/32
f 233/121/41 235/154/41 201/155/41
f 231/119/42 233/121/42 177/120/42
f 241/169/1 247/169/1 252/170/1
f 242/171/2 243/172/2 249/172/2
f 243/172/3 244/173/3 250/173/3
f 245/174/4 251/174/4 312/175/4
f 246/170/5 252/170/5 251/174/5
f 242/171/6 248/171/6 247/169/6
f 312/175/7 251/174/7 263/176/7
f 250/173/8 262/182/8 261/178/8
f 252/170/9 264/181/9 263/176/9
f 242/171/45 241/169/45 253/179/45
f 247/169/11 259/179/11 264/181/11
f 242/171/12 254/180/12 255/178/12
f 244/173/13 243/172/13 255/178/13
f 246/170/14 245/174/14 257/176/14
f 301/183/44 244/173/44 256/182/44
f 241/169/16 246/170/16 258/181/16
f 248/171/46 260/180/46 259/179/46
f 248/171/18 249/172/18 261/178/18
f 263/176/19 264/181/19 288/185/19
f 254/180/20 253/179/20 278/187/20
f 264/181/21 259/179/21 284/189/21
f 255/178/22 254/180/22 277/188/22
f 255/178/23 279/190/23 280/191/23
f 257/176/24 281/211/24 282/192/24
f 303/184/25 256/182/25 280/191/25
f 258/181/26 282/192/26 278/187/26
f 260/180/27 283/194/27 284/189/27
f 261/178/28 285/197/28 283/194/28
f 314/177/29 263/176/29 287/186/29
f 261/178/30 262/182/30 286/196/30
f 271/198/31 272/217/31 290/199/31
f 265/201/32 270/207/32 298/202/32
f 268/203/32 294/209/32 309/204/32
f 269/206/32 296/214/32 298/202/32
f 268/203/32 267/222/32 292/208/32
f 266/188/33 277/188/33 278/187/33
f 267/190/34 279/190/34 277/188/34
f 268/191/35 280/191/35 279/190/35
f 317/210/36 269/211/36 281/211/36
f 269/211/37 270/192/37 282/192/37
f 265/187/38 278/187/38 282/192/38
f 271/189/33 284/189/33 283/194/33
f 272/194/34 283/194/34 285/197/34
f 273/197/35 285/197/35 286/196/35
f 274/196/4 286/196/4 306/212/4
f 275/186/37 287/186/37 288/185/37
f 276/185/38 288/185/38 284/189/38
f 293/209/35 294/209/35 292/208/35
f 291/208/34 292/208/34 289/199/34
f 310/204/33 308/293/33 304/294/33
f 308/293/33 306/293/33 304/294/33
f 304/294/33 302/213/33 310/204/33
f 301/213/33 303/294/33 309/204/33
f 303/294/33 305/205/33 309/204/33
f 305/205/33 307/205/33 309/204/33
f 309/204/33 310/204/33 302/213/33
f 295/214/36 296/214/36 319/215/36
f 297/202/37 298/202/37 296/214/37
f 297/202/38 299/200/38 300/200/38
f 290/199/33 289/199/33 300/200/33
f 273/216/31 291/208/31 290/199/31
f 275/218/31 295/214/31 320/215/31
f 273/216/31 274/223/31 293/209/31
f 276/220/31 297/202/31 295/214/31
f 265/201/32 300/200/32 289/199/32
f 276/220/31 271/198/31 299/200/31
f 266/221/32 289/199/32 292/208/32
f 274/223/31 308/293/31 310/204/31
f 293/209/4 310/204/4 309/204/4
f 307/193/4 305/193/4 280/191/4
f 304/184/39 306/212/39 286/196/39
f 302/183/47 304/184/47 262/182/47
f 301/183/36 302/183/36 250/173/36
f 319/215/33 317/295/33 315/295/33
f 315/295/33 313/296/33 319/215/33
f 313/296/33 311/224/33 319/215/33
f 312/224/33 314/296/33 320/215/33
f 314/296/33 316/219/33 318/219/33
f 320/215/33 314/296/33 318/219/33
f 320/215/33 319/215/33 312/224/33
f 318/195/36 316/195/36 287/186/36
f 269/206/32 317/295/32 319/215/32
f 313/177/41 315/210/41 281/211/41
f 311/175/42 313/177/42 257/176/42
f 321/225/1 327/225/1 332/226/1
f 322/227/2 323/228/2 329/228/2
f 323/228/3 324/229/3 330/229/3
f 325/230/4 331/230/4 392/231/4
f 326/226/5 332/226/5 331/230/5
f 322/227/6 328/227/6 327/225/6
f 392/231/7 331/230/7 343/232/7
f 330/229/8 342/238/8 341/234/8
f 331/230/9 332/226/9 344/235/9
f 322/227/45 321/225/45 333/236/45
f 327/225/11 339/236/11 344/235/11
f 322/227/12 334/237/12 335/234/12
f 324/229/13 323/228/13 335/234/13
f 325/230/14 337/232/14 338/235/14
f 381/239/44 324/229/44 336/238/44
f 321/225/16 326/226/16 338/235/16
f 328/227/46 340/237/46 339/236/46
f 328/227/18 329/228/18 341/234/18
f 344/235/19 368/245/19 367/241/19
f 334/237/20 333/236/20 358/242/20
f 344/235/21 339/236/21 364/244/21
f 335/234/22 334/237/22 357/243/22
f 335/234/23 359/246/23 360/247/23
f 338/235/24 337/232/24 361/248/24
f 383/240/25 336/238/25 360/247/25
f 338/235/26 362/249/26 358/242/26
f 340/237/27 363/251/27 364/244/27
f 341/234/28 365/254/28 363/251/28
f 394/233/29 343/232/29 367/241/29
f 341/234/30 342/238/30 366/253/30
f 351/255/31 352/272/31 370/256/31
f 345/258/32 350/264/32 378/259/32
f 348/260/32 374/266/32 389/261/32
f 349/263/32 376/270/32 378/259/32
f 348/260/32 347/278/32 372/265/32
f 346/243/33 357/243/33 358/242/33
f 347/246/34 359/246/34 357/243/34
f 348/247/35 360/247/35 359/246/35
f 397/267/36 349/248/36 361/248/36
f 349/248/37 350/249/37 362/249/37
f 345/242/38 358/242/38 362/249/38
f 351/244/33 364/244/33 363/251/33
f 352/251/34 363/251/34 365/254/34
f 353/254/35 365/254/35 366/253/35
f 354/253/4 366/253/4 386/268/4
f 355/241/37 367/241/37 368/245/37
f 356/245/38 368/245/38 364/244/38
f 373/266/35 374/266/35 372/265/35
f 371/265/34 372/265/34 369/256/34
f 390/261/33 388/297/33 384/298/33
f 388/297/33 386/297/33 384/298/33
f 384/298/33 382/269/33 390/261/33
f 381/269/33 383/298/33 389/261/33
f 383/298/33 385/262/33 389/261/33
f 385/262/33 387/262/33 389/261/33
f 389/261/33 390/261/33 382/269/33
f 375/270/36 376/270/36 399/271/36
f 377/259/37 378/259/37 376/270/37
f 377/259/38 379/257/38 380/257/38
f 370/256/33 369/256/33 380/257/33
f 352/272/31 353/275/31 371/265/31
f 355/273/31 375/270/31 400/271/31
f 353/275/31 354/279/31 373/266/31
f 356/276/31 377/259/31 375/270/31
f 345/258/32 380/257/32 369/256/32
f 356/276/31 351/255/31 379/257/31
f 346/277/32 369/256/32 372/265/32
f 354/279/31 388/297/31 390/261/31
f 373/266/4 390/261/4 389/261/4
f 387/250/4 385/250/4 360/247/4
f 384/240/39 386/268/39 366/253/39
f 382/239/40 384/240/40 342/238/40
f 381/239/36 382/239/36 330/229/36
f 399/271/33 397/299/33 395/299/33
f 395/299/33 393/300/33 399/271/33
f 393/300/33 391/280/33 399/271/33
f 392/280/33 394/300/33 400/271/33
f 394/300/33 396/274/33 398/274/33
f 400/271/33 394/300/33 398/274/33
f 400/271/33 399/271/33 392/280/33
f 398/252/36 396/252/36 367/241/36
f 349/263/32 397/299/32 399/271/32
f 393/233/41 395/267/41 361/248/41
f 391/231/43 393/233/43 337/232/43
