# Blender 4.4.0
# www.blender.org
mtllib Prop_Crate_Box_01.mtl
o Prop_Crate_Box_01
v -0.375147 0.684457 0.379064
v 0.374853 0.684457 0.379064
v -0.375147 0.000000 0.379064
v 0.374853 0.000000 0.379064
v 0.374853 0.065543 0.379064
v 0.313082 0.684457 0.379064
v 0.313082 0.065543 0.379064
v -0.375147 0.065543 0.379064
v -0.313375 0.684457 0.379064
v -0.313375 0.065543 0.379064
v 0.374853 0.750000 0.346849
v 0.374853 0.000000 0.346849
v 0.374853 0.065543 0.346849
v 0.313082 0.065543 0.346849
v 0.313082 0.684457 0.346849
v -0.313375 0.684457 0.346849
v -0.313375 0.065543 0.346849
v -0.342492 0.023161 0.346849
v 0.342639 0.023161 0.346849
v -0.342492 0.728389 0.346849
v 0.342639 0.728389 0.346849
v -0.223497 0.023161 0.346849
v -0.226796 0.023161 0.346849
v -0.073497 0.023161 0.346849
v -0.076796 0.023161 0.346849
v 0.076503 0.023161 0.346849
v 0.073204 0.023161 0.346849
v 0.226503 0.023161 0.346849
v 0.223204 0.023161 0.346849
v 0.223204 0.728389 0.346849
v 0.226503 0.728389 0.346849
v 0.073204 0.728389 0.346849
v 0.076503 0.728389 0.346849
v -0.076796 0.728389 0.346849
v -0.073497 0.728389 0.346849
v -0.226796 0.728389 0.346850
v -0.223497 0.728389 0.346850
v -0.225147 0.023161 0.337977
v -0.075147 0.023161 0.337977
v 0.074853 0.023161 0.337977
v 0.224853 0.023161 0.337977
v 0.224853 0.728389 0.337977
v 0.074853 0.728389 0.337977
v -0.075147 0.728389 0.337977
v -0.225147 0.728389 0.337977
v -0.350900 0.075310 0.346849
v -0.308380 0.031592 0.346849
v 0.310507 0.718593 0.346849
v 0.353027 0.674875 0.346849
v 0.310507 0.718593 0.368609
v -0.350900 0.075310 0.368609
v -0.308380 0.031592 0.368609
v 0.353027 0.674875 0.368609
v 0.353027 0.075310 0.346849
v 0.310507 0.031592 0.346849
v -0.308380 0.718593 0.346849
v -0.350900 0.674875 0.346849
v -0.308380 0.718593 0.367401
v 0.353027 0.075310 0.367401
v 0.310507 0.031592 0.367401
v -0.350900 0.674875 0.367401
v 0.374853 0.684457 -0.379358
v -0.375147 0.750000 -0.379356
v 0.374853 0.750000 -0.379358
v -0.375147 0.000000 -0.379356
v 0.374853 0.000000 -0.379358
v 0.313081 0.684457 -0.379357
v 0.313081 0.065543 -0.379357
v 0.374853 0.065543 -0.379358
v -0.375147 0.684457 -0.379356
v -0.375147 0.065543 -0.379356
v -0.313375 0.684457 -0.379356
v -0.313375 0.065543 -0.379356
v -0.375147 0.684457 -0.347142
v -0.375147 0.065543 -0.347142
v 0.313081 0.065543 -0.347143
v 0.313081 0.684457 -0.347143
v -0.313375 0.684457 -0.347142
v -0.313375 0.065543 -0.347142
v -0.342493 0.023161 -0.347142
v 0.342638 0.023161 -0.347143
v -0.342493 0.728389 -0.347142
v 0.342638 0.728389 -0.347143
v -0.223498 0.023161 -0.347142
v -0.226796 0.023161 -0.347142
v -0.073498 0.023161 -0.347142
v -0.076796 0.023161 -0.347142
v 0.076502 0.023161 -0.347142
v 0.073204 0.023161 -0.347142
v 0.226502 0.023161 -0.347143
v 0.223204 0.023161 -0.347143
v 0.223204 0.728389 -0.347143
v 0.226502 0.728389 -0.347143
v 0.073204 0.728389 -0.347142
v 0.076502 0.728389 -0.347142
v -0.076796 0.728389 -0.347142
v -0.073498 0.728389 -0.347142
v -0.226796 0.728389 -0.347142
v -0.223498 0.728389 -0.347142
v -0.225147 0.023161 -0.338270
v -0.075147 0.023161 -0.338270
v 0.074853 0.023161 -0.338270
v 0.224853 0.023161 -0.338270
v 0.224853 0.728389 -0.338270
v 0.074853 0.728389 -0.338270
v -0.075147 0.728389 -0.338270
v -0.225147 0.728389 -0.338270
v -0.350901 0.075310 -0.347142
v -0.308381 0.031592 -0.347142
v 0.310506 0.718593 -0.347143
v 0.353026 0.674875 -0.347143
v 0.310506 0.718593 -0.368902
v -0.350901 0.075310 -0.368901
v -0.308381 0.031592 -0.368901
v 0.353026 0.674875 -0.368902
v 0.353026 0.075310 -0.347143
v 0.310506 0.031592 -0.347143
v -0.308381 0.718593 -0.347142
v -0.350901 0.674875 -0.347142
v -0.308381 0.718593 -0.367693
v 0.353026 0.075310 -0.367694
v 0.310506 0.031592 -0.367694
v -0.350901 0.674875 -0.367693
v 0.374853 0.684457 0.346849
v 0.374853 0.684457 -0.347143
v 0.374853 0.750000 -0.347143
v 0.374853 0.000000 -0.347143
v 0.374853 0.684457 -0.313155
v 0.374853 0.065543 -0.313155
v 0.374853 0.065543 -0.347143
v 0.374853 0.684457 0.313302
v 0.374853 0.065543 0.313302
v 0.342639 0.684457 -0.347143
v 0.342639 0.750000 0.346850
v 0.342639 0.750000 -0.347143
v 0.342639 0.000000 -0.347143
v 0.342639 0.065543 0.346850
v 0.342639 0.065543 -0.313155
v 0.342639 0.684457 -0.313155
v 0.342639 0.065543 -0.347143
v 0.342639 0.684457 0.346850
v 0.342639 0.684457 0.313302
v 0.342639 0.065543 0.313302
v 0.342639 0.023161 0.337977
v 0.342639 0.023161 -0.338270
v 0.342639 0.728389 0.337977
v 0.342639 0.728389 -0.338270
v 0.342639 0.023161 0.223424
v 0.342639 0.023161 0.226722
v 0.342639 0.023161 0.073424
v 0.342639 0.023161 0.076722
v 0.342639 0.023161 -0.076576
v 0.342639 0.023161 -0.073278
v 0.342639 0.023161 -0.226576
v 0.342639 0.023161 -0.223278
v 0.342639 0.728389 -0.223278
v 0.342639 0.728389 -0.226576
v 0.342639 0.728389 -0.073278
v 0.342639 0.728389 -0.076576
v 0.342639 0.728389 0.076722
v 0.342639 0.728389 0.073424
v 0.342639 0.728389 0.226722
v 0.342639 0.728389 0.223424
v 0.333766 0.023161 0.225073
v 0.333766 0.023161 0.075073
v 0.333766 0.023161 -0.074927
v 0.333766 0.023161 -0.224927
v 0.333766 0.728389 -0.224927
v 0.333766 0.728389 -0.074927
v 0.333766 0.728389 0.075073
v 0.333766 0.728389 0.225073
v 0.342639 0.094308 0.331293
v 0.342639 0.038826 0.300869
v 0.342639 0.716768 -0.308703
v 0.342639 0.657021 -0.334743
v 0.364398 0.716768 -0.308703
v 0.364398 0.094308 0.331293
v 0.364398 0.038826 0.300869
v 0.364398 0.657021 -0.334743
v 0.342639 0.095580 -0.332258
v 0.342639 0.031592 -0.310580
v 0.342639 0.718593 0.308307
v 0.342639 0.653314 0.328658
v 0.363190 0.718593 0.308307
v 0.363190 0.095580 -0.332258
v 0.363190 0.031592 -0.310580
v 0.363190 0.653314 0.328658
v -0.375147 0.750000 0.346850
v -0.375147 0.750000 -0.347142
v -0.375147 0.000000 0.346850
v -0.375147 0.000000 -0.347142
v -0.375147 0.065543 0.346850
v -0.375147 0.684457 -0.313155
v -0.375147 0.065543 -0.313154
v -0.375147 0.684457 0.346850
v -0.375147 0.684457 0.313302
v -0.375147 0.065543 0.313302
v -0.342492 0.684457 0.346850
v -0.342493 0.684457 -0.347142
v -0.342492 0.750000 0.346850
v -0.342493 0.750000 -0.347142
v -0.342493 0.000000 -0.347142
v -0.342492 0.065543 0.346850
v -0.342493 0.065543 -0.313155
v -0.342493 0.684457 -0.313155
v -0.342493 0.065543 -0.347142
v -0.342492 0.684457 0.313302
v -0.342492 0.065543 0.313302
v -0.342492 0.023161 0.337978
v -0.342493 0.023161 -0.338270
v -0.342492 0.728389 0.337978
v -0.342493 0.728389 -0.338270
v -0.342492 0.023161 0.223425
v -0.342492 0.023161 0.226723
v -0.342492 0.023161 0.073425
v -0.342492 0.023161 0.076723
v -0.342492 0.023161 -0.076575
v -0.342492 0.023161 -0.073277
v -0.342493 0.023161 -0.226575
v -0.342493 0.023161 -0.223277
v -0.342493 0.728389 -0.223277
v -0.342493 0.728389 -0.226575
v -0.342492 0.728389 -0.073277
v -0.342492 0.728389 -0.076575
v -0.342492 0.728389 0.076723
v -0.342492 0.728389 0.073425
v -0.342492 0.728389 0.226723
v -0.342492 0.728389 0.223425
v -0.333620 0.023161 0.225074
v -0.333620 0.023161 0.075074
v -0.333620 0.023161 -0.074926
v -0.333620 0.023161 -0.224926
v -0.333620 0.728389 -0.224926
v -0.333620 0.728389 -0.074926
v -0.333620 0.728389 0.075074
v -0.333620 0.728389 0.225074
v -0.342492 0.094308 0.331294
v -0.342492 0.038826 0.300869
v -0.342493 0.716768 -0.308703
v -0.342493 0.657021 -0.334743
v -0.364252 0.716768 -0.308703
v -0.364251 0.094308 0.331294
v -0.364251 0.038826 0.300869
v -0.364252 0.657021 -0.334743
v -0.342493 0.095580 -0.332258
v -0.342493 0.031592 -0.310580
v -0.342492 0.718593 0.308307
v -0.342492 0.653314 0.328659
v -0.363044 0.718593 0.308307
v -0.363044 0.095580 -0.332258
v -0.363044 0.031592 -0.310580
v -0.363044 0.653314 0.328659
v 0.342639 0.000000 0.302508
v -0.342492 -0.000000 0.346850
v 0.342639 -0.000000 0.346849
v 0.342639 0.000000 -0.302361
v 0.305974 0.000000 0.302508
v 0.305974 0.000000 -0.302361
v -0.342492 -0.000000 0.302508
v -0.342492 0.000000 -0.302361
v -0.306267 -0.000000 0.302508
v -0.306267 0.000000 -0.302361
v -0.342492 0.031484 0.302508
v 0.342639 0.031484 0.302508
v -0.342492 0.031484 -0.302361
v 0.342639 0.031484 -0.302361
v 0.305974 0.031484 -0.302361
v 0.305974 0.031484 0.302508
v -0.306267 0.031484 0.302508
v -0.306267 0.031484 -0.302361
v -0.334723 0.031484 -0.338270
v 0.334860 0.031484 -0.338270
v -0.334723 0.031484 0.337977
v 0.334860 0.031484 0.337977
v -0.218429 0.031484 -0.338270
v -0.221652 0.031484 -0.338270
v -0.071833 0.031484 -0.338270
v -0.075056 0.031484 -0.338270
v 0.074763 0.031484 -0.338270
v 0.071540 0.031484 -0.338270
v 0.221359 0.031484 -0.338270
v 0.218136 0.031484 -0.338270
v 0.218136 0.031484 0.337977
v 0.221359 0.031484 0.337977
v 0.071540 0.031484 0.337977
v 0.074763 0.031484 0.337977
v -0.075056 0.031484 0.337977
v -0.071833 0.031484 0.337977
v -0.221652 0.031484 0.337977
v -0.218429 0.031484 0.337977
v -0.220041 0.040155 -0.338270
v -0.073445 0.040155 -0.338270
v 0.073151 0.040155 -0.338270
v 0.219747 0.040155 -0.338270
v 0.219748 0.040155 0.337977
v 0.073152 0.040155 0.337977
v -0.073445 0.040155 0.337977
v -0.220041 0.040155 0.337977
v -0.375147 0.770402 -0.313814
v 0.374853 0.770402 -0.313814
v -0.375147 0.770402 -0.379357
v 0.374853 0.770402 -0.379358
v -0.375146 0.770402 0.379064
v 0.374854 0.770402 0.379064
v -0.375146 0.770402 0.313521
v 0.374854 0.770402 0.313521
v 0.313082 0.770402 -0.313814
v 0.313082 0.770402 0.313521
v -0.313375 0.770402 -0.313814
v -0.313375 0.770402 0.313521
v -0.375147 0.750000 -0.313814
v 0.374853 0.750000 -0.313814
v 0.374853 0.750000 0.379064
v -0.375147 0.750000 0.379064
v 0.313082 0.750000 0.313521
v 0.313082 0.750000 -0.313814
v 0.374853 0.750000 0.313521
v -0.375147 0.750000 0.313521
v -0.313375 0.750000 -0.313814
v -0.313375 0.750000 0.313521
v -0.342492 0.750000 0.355903
v 0.342639 0.750000 0.355903
v -0.342492 0.750000 -0.357746
v 0.342639 0.750000 -0.357747
v -0.223497 0.750000 0.355903
v -0.226796 0.750000 0.355903
v -0.073497 0.750000 0.355903
v -0.076796 0.750000 0.355903
v 0.076503 0.750000 0.355903
v 0.073204 0.750000 0.355903
v 0.226503 0.750000 0.355903
v 0.223204 0.750000 0.355903
v 0.223204 0.750000 -0.357747
v 0.226503 0.750000 -0.357747
v 0.073204 0.750000 -0.357747
v 0.076503 0.750000 -0.357747
v -0.076796 0.750000 -0.357746
v -0.073497 0.750000 -0.357746
v -0.226796 0.750000 -0.357746
v -0.223497 0.750000 -0.357746
v -0.225146 0.741128 0.355903
v -0.075147 0.741128 0.355903
v 0.074854 0.741128 0.355903
v 0.224854 0.741128 0.355903
v 0.224853 0.741128 -0.357747
v 0.074853 0.741128 -0.357747
v -0.075147 0.741128 -0.357746
v -0.225147 0.741128 -0.357746
v -0.350900 0.750000 0.303755
v -0.308380 0.750000 0.347472
v 0.310507 0.750000 -0.347951
v 0.353027 0.750000 -0.304233
v 0.310507 0.759946 -0.347951
v -0.350900 0.759947 0.303755
v -0.308380 0.759947 0.347472
v 0.353027 0.759947 -0.304233
v 0.353027 0.750000 0.303754
v 0.310507 0.750000 0.347472
v -0.308380 0.750000 -0.347951
v -0.350900 0.750000 -0.304233
v -0.308380 0.758739 -0.347951
v 0.353027 0.758739 0.303754
v 0.310507 0.758739 0.347472
v -0.350900 0.758739 -0.304233
vn -0.0000 -0.0000 1.0000
vn 1.0000 -0.0000 -0.0000
vn -1.0000 -0.0000 -0.0000
vn -0.0000 -1.0000 -0.0000
vn -0.0000 1.0000 -0.0000
vn 0.9832 -0.0000 0.1827
vn -0.9832 -0.0000 0.1827
vn 0.6972 -0.7169 -0.0000
vn -0.6972 0.7169 -0.0000
vn -0.6972 -0.7169 -0.0000
vn 0.6972 0.7169 -0.0000
vn -0.0000 -0.0000 -1.0000
vn 0.9832 -0.0000 -0.1827
vn -0.9832 -0.0000 -0.1827
vn 0.1827 -0.0000 -0.9832
vn 0.1827 -0.0000 0.9832
vn -0.0000 -0.7169 -0.6972
vn -0.0000 0.7169 0.6972
vn -0.0000 -0.7169 0.6972
vn -0.0000 0.7169 -0.6972
vn -0.1827 -0.0000 -0.9832
vn -0.1827 -0.0000 0.9832
vn 0.9832 -0.1827 -0.0000
vn -0.9832 -0.1827 -0.0000
vn 0.9832 -0.1828 -0.0000
vn 0.9832 0.1827 -0.0000
vn -0.9832 0.1827 -0.0000
vn 0.7019 -0.0000 0.7123
vn -0.7019 -0.0000 -0.7123
vn -0.7019 -0.0000 0.7123
vn 0.7019 -0.0000 -0.7123
vn 0.1828 -0.0000 -0.9832
vn -0.1828 -0.0000 -0.9832
vn -0.0000 -0.0001 -1.0000
vt 0.106438 0.836626
vt 0.106405 0.838875
vt 0.106405 0.836626
vt 0.106405 0.813136
vt 0.106438 0.815385
vt 0.106405 0.815385
vt 0.106435 0.815385
vt 0.106435 0.836626
vt 0.106408 0.815385
vt 0.106408 0.836626
vt 0.106438 0.838875
vt 0.106438 0.813136
vt 0.592403 0.837400
vt 0.592368 0.863716
vt 0.592368 0.837400
vt 0.577493 0.840096
vt 0.577407 0.891806
vt 0.577407 0.840096
vt 0.592322 0.837400
vt 0.592278 0.863716
vt 0.592278 0.837400
vt 0.577670 0.840096
vt 0.577583 0.891806
vt 0.577583 0.840096
vt 0.577671 0.840096
vt 0.577670 0.891806
vt 0.577672 0.840096
vt 0.577671 0.891806
vt 0.577582 0.840096
vt 0.577581 0.891806
vt 0.577581 0.840096
vt 0.577582 0.891806
vt 0.577494 0.840096
vt 0.577493 0.891806
vt 0.577495 0.840096
vt 0.577494 0.891806
vt 0.577406 0.840096
vt 0.577405 0.891806
vt 0.577405 0.840096
vt 0.577406 0.891806
vt 0.592232 0.837400
vt 0.592198 0.863716
vt 0.592198 0.837400
vt 0.106406 0.815720
vt 0.106437 0.836297
vt 0.106435 0.837797
vt 0.106408 0.837797
vt 0.106435 0.814220
vt 0.106437 0.815720
vt 0.106408 0.814220
vt 0.106406 0.836297
vt 0.577672 0.891806
vt 0.577740 0.840096
vt 0.577495 0.891806
vt 0.592323 0.863716
vt 0.592367 0.837400
vt 0.592323 0.837400
vt 0.106436 0.836626
vt 0.106436 0.813136
vt 0.106436 0.815385
vt 0.577740 0.891806
vt 0.592403 0.863716
vt 0.577735 0.840096
vt 0.577735 0.891806
vt 0.106437 0.816372
vt 0.106437 0.835684
vt 0.106437 0.837735
vt 0.106437 0.816416
vt 0.106437 0.835557
vt 0.106437 0.814220
vt 0.106436 0.835684
vt 0.106437 0.814468
vt 0.106436 0.814468
vt 0.106436 0.837735
vt 0.106436 0.835557
vt 0.106436 0.837797
vt 0.106437 0.837797
vt 0.106407 0.838875
vt 0.106407 0.836626
vt 0.106407 0.813136
vt 0.106407 0.815385
vt 0.577337 0.891806
vt 0.577337 0.840096
vt 0.577342 0.840096
vt 0.577342 0.891806
vt 0.106406 0.816372
vt 0.106406 0.835684
vt 0.106406 0.814468
vt 0.106406 0.816416
vt 0.106406 0.835557
vt 0.106406 0.837797
vt 0.106407 0.835684
vt 0.106407 0.814468
vt 0.106406 0.837735
vt 0.106407 0.816372
vt 0.106407 0.837735
vt 0.106407 0.814220
vt 0.106407 0.835557
vt 0.106407 0.837797
vt 0.106435 0.813136
vt 0.106408 0.813136
vt 0.106407 0.814216
vt 0.106408 0.814216
vt 0.106435 0.814216
vt 0.577669 0.840707
vt 0.577735 0.840707
vt 0.592235 0.837710
vt 0.592278 0.837710
vt 0.577496 0.840707
vt 0.577580 0.840707
vt 0.592366 0.837710
vt 0.592323 0.837710
vt 0.577668 0.841342
vt 0.577667 0.840707
vt 0.577581 0.841342
vt 0.577582 0.840707
vt 0.577495 0.841342
vt 0.577494 0.840707
vt 0.577409 0.841342
vt 0.577408 0.840707
vt 0.577410 0.840707
vt 0.577341 0.840707
vt 0.106438 0.839575
vt 0.106405 0.839575
vt 0.106435 0.839575
vt 0.106408 0.839575
vt 0.106408 0.838875
vt 0.106435 0.838875
vt 0.577672 0.893390
vt 0.577740 0.893390
vt 0.592233 0.864522
vt 0.592277 0.864522
vt 0.577581 0.893390
vt 0.577495 0.893390
vt 0.592323 0.864522
vt 0.592367 0.864522
vt 0.577671 0.892740
vt 0.577670 0.893390
vt 0.577582 0.892740
vt 0.577583 0.893390
vt 0.577494 0.892740
vt 0.577493 0.893390
vt 0.577406 0.892740
vt 0.577405 0.893390
vt 0.577407 0.893390
vt 0.577337 0.893390
vt 0.106406 0.839217
vt 0.106437 0.839217
vt 0.106435 0.839217
vt 0.106437 0.839175
vt 0.106406 0.839175
vt 0.106435 0.839175
vt 0.106437 0.838875
vt 0.106408 0.839217
vt 0.106408 0.838875
vt 0.106406 0.838875
vt 0.106435 0.838875
vt 0.106408 0.839175
vt 0.592322 0.863716
vt 0.592232 0.863716
vt 0.592367 0.863716
vt 0.106436 0.838875
vt 0.106436 0.816372
vt 0.106436 0.814220
vt 0.106436 0.816416
vt 0.106406 0.814220
vt 0.106407 0.816416
vt 0.106436 0.814216
s 0
usemtl Texture_Map
f 2/1/1 314/2/1 1/3/1
f 3/4/1 5/5/1 8/6/1
f 7/7/1 2/1/1 6/8/1
f 1/3/1 10/9/1 9/10/1
f 124/1/2 313/11/2 2/1/2
f 188/2/3 1/3/3 314/2/3
f 190/4/4 4/12/4 3/4/4
f 195/3/3 8/6/3 1/3/3
f 5/5/5 192/6/5 8/6/5
f 17/9/2 9/10/2 10/9/2
f 12/12/2 5/5/2 4/12/2
f 192/6/3 3/4/3 8/6/3
f 195/3/4 2/1/4 1/3/4
f 15/8/3 7/7/3 6/8/3
f 13/5/2 2/1/2 5/5/2
f 19/13/1 31/14/1 28/15/1
f 25/16/1 37/17/1 22/18/1
f 27/19/1 35/20/1 24/21/1
f 29/22/1 33/23/1 26/24/1
f 41/25/6 30/26/6 29/22/6
f 28/27/7 42/28/7 41/25/7
f 40/29/6 32/30/6 27/31/6
f 26/24/7 43/32/7 40/29/7
f 39/33/6 34/34/6 25/16/6
f 24/35/7 44/36/7 39/33/7
f 38/37/6 36/38/6 23/39/6
f 22/18/7 45/40/7 38/37/7
f 23/41/1 20/42/1 18/43/1
f 51/44/1 53/45/1 50/46/1
f 58/47/1 60/48/1 59/49/1
f 49/45/8 52/50/8 47/50/8
f 46/44/9 50/46/9 48/46/9
f 57/51/10 60/48/10 61/51/10
f 59/49/11 56/47/11 58/47/11
f 63/2/12 62/1/12 70/3/12
f 65/4/12 69/5/12 66/12/12
f 62/1/12 68/7/12 67/8/12
f 70/3/12 73/9/12 71/6/12
f 64/11/2 125/1/2 62/1/2
f 70/3/3 189/2/3 63/2/3
f 66/12/4 191/4/4 65/4/4
f 71/6/3 74/3/3 70/3/3
f 69/5/5 75/6/5 130/5/5
f 72/10/2 79/9/2 73/9/2
f 69/5/2 127/12/2 66/12/2
f 71/6/3 191/4/3 75/6/3
f 62/1/4 74/3/4 70/3/4
f 68/7/3 77/8/3 67/8/3
f 62/1/2 130/5/2 69/5/2
f 93/52/12 81/53/12 90/27/12
f 99/17/12 87/16/12 84/18/12
f 97/54/12 89/31/12 86/35/12
f 95/55/12 91/56/12 88/57/12
f 92/26/13 103/25/13 91/22/13
f 104/28/14 90/27/14 103/25/14
f 94/30/13 102/29/13 89/31/13
f 105/32/14 88/24/14 102/29/14
f 96/34/13 101/33/13 87/16/13
f 106/36/14 86/35/14 101/33/14
f 98/38/13 100/37/13 85/39/13
f 107/40/14 84/18/14 100/37/14
f 82/42/12 85/41/12 80/43/12
f 113/44/12 115/45/12 114/50/12
f 122/48/12 120/47/12 121/49/12
f 114/50/8 111/45/8 109/50/8
f 110/46/9 113/44/9 108/44/9
f 123/51/10 117/48/10 119/51/10
f 120/47/11 116/49/11 121/49/11
f 125/1/2 11/11/2 124/1/2
f 127/12/2 13/5/2 12/12/2
f 129/5/2 125/1/2 128/1/2
f 13/5/2 131/1/2 124/1/2
f 133/58/12 126/11/12 125/1/12
f 11/11/1 141/58/1 124/1/1
f 255/59/4 127/12/4 12/12/4
f 141/58/1 13/5/1 124/1/1
f 140/60/5 13/5/5 130/5/5
f 143/60/12 131/1/12 132/5/12
f 136/59/12 130/5/12 127/12/12
f 137/60/1 12/12/1 13/5/1
f 124/1/4 133/58/4 125/1/4
f 139/58/1 129/5/1 128/1/1
f 140/60/12 125/1/12 130/5/12
f 145/53/2 157/61/2 154/53/2
f 151/13/2 163/62/2 148/13/2
f 153/53/2 161/61/2 150/53/2
f 155/13/2 159/62/2 152/13/2
f 167/63/15 156/61/15 155/53/15
f 154/53/16 168/64/16 167/63/16
f 166/63/15 158/61/15 153/53/15
f 152/53/16 169/64/16 166/63/16
f 165/63/15 160/61/15 151/53/15
f 150/53/16 170/64/16 165/63/16
f 164/63/15 162/61/15 149/53/15
f 148/53/16 171/64/16 164/63/16
f 149/53/2 146/61/2 144/53/2
f 177/65/2 179/66/2 176/67/2
f 185/68/2 187/69/2 186/70/2
f 175/71/17 178/72/17 173/73/17
f 174/74/18 177/65/18 176/67/18
f 183/75/19 186/70/19 187/69/19
f 185/68/20 182/76/20 184/77/20
f 188/2/3 74/3/3 195/3/3
f 190/4/3 75/6/3 191/4/3
f 74/3/3 194/6/3 193/3/3
f 196/3/3 192/6/3 195/3/3
f 74/3/12 201/78/12 199/79/12
f 195/3/1 200/78/1 188/2/1
f 191/4/4 254/80/4 190/4/4
f 192/6/1 198/79/1 195/3/1
f 75/6/5 203/81/5 206/81/5
f 196/3/12 208/81/12 197/6/12
f 75/6/12 202/80/12 191/4/12
f 190/4/1 203/81/1 192/6/1
f 74/3/4 198/79/4 195/3/4
f 194/6/1 205/79/1 193/3/1
f 74/3/12 206/81/12 75/6/12
f 222/82/3 210/83/3 219/83/3
f 228/42/3 216/43/3 213/43/3
f 226/82/3 218/83/3 215/83/3
f 224/42/3 220/43/3 217/43/3
f 221/82/21 232/84/21 220/83/21
f 233/85/22 219/83/22 232/84/22
f 223/82/21 231/84/21 218/83/21
f 234/85/22 217/83/22 231/84/22
f 225/82/21 230/84/21 216/83/21
f 235/85/22 215/83/22 230/84/22
f 227/82/21 229/84/21 214/83/21
f 236/85/22 213/83/22 229/84/22
f 211/82/3 214/83/3 209/83/3
f 242/86/3 244/87/3 243/88/3
f 250/89/3 252/90/3 249/91/3
f 243/88/17 240/92/17 238/93/17
f 241/94/18 237/95/18 239/96/18
f 252/90/19 246/97/19 248/98/19
f 247/99/20 250/89/20 249/91/20
f 259/80/4 255/59/4 254/80/4
f 136/59/4 260/80/4 202/80/4
f 257/100/4 256/59/4 253/59/4
f 259/80/4 262/101/4 261/101/4
f 256/59/1 265/102/1 260/80/1
f 270/103/2 261/101/2 262/101/2
f 263/102/12 253/59/12 259/80/12
f 268/104/3 258/100/3 257/100/3
f 281/105/4 274/106/4 284/105/4
f 275/107/4 287/108/4 290/107/4
f 277/109/4 285/110/4 288/109/4
f 282/111/4 286/112/4 279/112/4
f 294/113/23 283/114/23 282/114/23
f 281/105/24 295/113/24 294/113/24
f 293/115/23 285/110/23 280/110/23
f 279/116/24 296/115/24 293/115/24
f 292/117/23 287/118/23 278/118/23
f 277/109/24 297/117/24 292/117/24
f 291/119/25 289/120/25 276/120/25
f 275/121/24 298/119/24 291/119/24
f 271/122/4 289/120/4 273/122/4
f 300/123/5 301/124/5 299/124/5
f 304/123/5 305/124/5 303/124/5
f 308/125/5 300/123/5 307/125/5
f 305/124/5 309/126/5 299/124/5
f 300/123/2 64/11/2 302/123/2
f 63/2/3 299/124/3 301/124/3
f 314/2/1 304/123/1 303/124/1
f 311/2/3 305/124/3 299/124/3
f 317/11/12 305/124/12 306/123/12
f 320/127/2 309/126/2 310/126/2
f 313/11/2 306/123/2 304/123/2
f 318/2/3 303/124/3 305/124/3
f 311/2/1 300/123/1 299/124/1
f 64/11/12 301/124/12 302/123/12
f 316/128/3 308/125/3 307/125/3
f 317/11/2 300/123/2 306/123/2
f 331/129/5 324/130/5 334/129/5
f 325/131/5 337/132/5 340/131/5
f 330/133/5 338/134/5 327/134/5
f 329/135/5 333/136/5 336/135/5
f 344/137/26 333/138/26 332/138/26
f 331/129/27 345/137/27 344/137/27
f 343/139/26 335/133/26 330/133/26
f 329/140/27 346/139/27 343/139/27
f 342/141/26 337/142/26 328/142/26
f 327/134/27 347/141/27 342/141/27
f 341/143/26 339/144/26 326/144/26
f 325/145/27 348/143/27 341/143/27
f 326/144/5 323/146/5 321/146/5
f 354/147/5 356/148/5 353/149/5
f 362/150/5 364/151/5 363/152/5
f 352/153/28 355/154/28 350/155/28
f 349/156/29 353/149/29 351/157/29
f 360/156/30 363/152/30 364/151/30
f 362/150/31 359/155/31 361/158/31
f 2/1/1 313/11/1 314/2/1
f 3/4/1 4/12/1 5/5/1
f 7/7/1 5/5/1 2/1/1
f 1/3/1 8/6/1 10/9/1
f 124/1/2 11/11/2 313/11/2
f 188/2/3 195/3/3 1/3/3
f 190/4/4 12/12/4 4/12/4
f 195/3/3 192/6/3 8/6/3
f 5/5/5 13/5/5 192/6/5
f 17/9/2 16/10/2 9/10/2
f 12/12/2 13/5/2 5/5/2
f 192/6/3 190/4/3 3/4/3
f 195/3/4 124/1/4 2/1/4
f 15/8/3 14/7/3 7/7/3
f 13/5/2 124/1/2 2/1/2
f 19/13/1 21/62/1 31/14/1
f 25/16/1 34/34/1 37/17/1
f 27/19/1 32/159/1 35/20/1
f 29/22/1 30/26/1 33/23/1
f 41/25/6 42/28/6 30/26/6
f 28/27/7 31/52/7 42/28/7
f 40/29/6 43/32/6 32/30/6
f 26/24/7 33/23/7 43/32/7
f 39/33/6 44/36/6 34/34/6
f 24/35/7 35/54/7 44/36/7
f 38/37/6 45/40/6 36/38/6
f 22/18/7 37/17/7 45/40/7
f 23/41/1 36/160/1 20/42/1
f 51/44/1 52/50/1 53/45/1
f 58/47/1 61/51/1 60/48/1
f 49/45/8 53/45/8 52/50/8
f 46/44/9 51/44/9 50/46/9
f 57/51/10 55/48/10 60/48/10
f 59/49/11 54/49/11 56/47/11
f 63/2/12 64/11/12 62/1/12
f 65/4/12 71/6/12 69/5/12
f 62/1/12 69/5/12 68/7/12
f 70/3/12 72/10/12 73/9/12
f 64/11/2 126/11/2 125/1/2
f 70/3/3 74/3/3 189/2/3
f 66/12/4 127/12/4 191/4/4
f 71/6/3 75/6/3 74/3/3
f 69/5/5 71/6/5 75/6/5
f 72/10/2 78/10/2 79/9/2
f 69/5/2 130/5/2 127/12/2
f 71/6/3 65/4/3 191/4/3
f 62/1/4 125/1/4 74/3/4
f 68/7/3 76/7/3 77/8/3
f 62/1/2 125/1/2 130/5/2
f 93/52/12 83/61/12 81/53/12
f 99/17/12 96/34/12 87/16/12
f 97/54/12 94/30/12 89/31/12
f 95/55/12 92/161/12 91/56/12
f 92/26/13 104/28/13 103/25/13
f 104/28/14 93/52/14 90/27/14
f 94/30/13 105/32/13 102/29/13
f 105/32/14 95/23/14 88/24/14
f 96/34/13 106/36/13 101/33/13
f 106/36/14 97/54/14 86/35/14
f 98/38/13 107/40/13 100/37/13
f 107/40/14 99/17/14 84/18/14
f 82/42/12 98/160/12 85/41/12
f 113/44/12 112/46/12 115/45/12
f 122/48/12 123/51/12 120/47/12
f 114/50/8 115/45/8 111/45/8
f 110/46/9 112/46/9 113/44/9
f 123/51/10 122/48/10 117/48/10
f 120/47/11 118/47/11 116/49/11
f 125/1/2 126/11/2 11/11/2
f 127/12/2 130/5/2 13/5/2
f 129/5/2 130/5/2 125/1/2
f 13/5/2 132/5/2 131/1/2
f 133/58/12 135/162/12 126/11/12
f 11/11/1 134/162/1 141/58/1
f 255/59/4 136/59/4 127/12/4
f 141/58/1 137/60/1 13/5/1
f 140/60/5 137/60/5 13/5/5
f 143/60/12 142/58/12 131/1/12
f 136/59/12 140/60/12 130/5/12
f 137/60/1 255/59/1 12/12/1
f 124/1/4 141/58/4 133/58/4
f 139/58/1 138/60/1 129/5/1
f 140/60/12 133/58/12 125/1/12
f 145/53/2 147/61/2 157/61/2
f 151/13/2 160/62/2 163/62/2
f 153/53/2 158/61/2 161/61/2
f 155/13/2 156/62/2 159/62/2
f 167/63/15 168/64/15 156/61/15
f 154/53/16 157/61/16 168/64/16
f 166/63/15 169/64/15 158/61/15
f 152/53/16 159/61/16 169/64/16
f 165/63/15 170/64/15 160/61/15
f 150/53/16 161/61/16 170/64/16
f 164/63/32 171/64/32 162/61/32
f 148/53/16 163/61/16 171/64/16
f 149/53/2 162/61/2 146/61/2
f 177/65/2 178/72/2 179/66/2
f 185/68/2 184/77/2 187/69/2
f 175/71/17 179/66/17 178/72/17
f 174/74/18 172/163/18 177/65/18
f 183/75/19 181/164/19 186/70/19
f 185/68/20 180/165/20 182/76/20
f 188/2/3 189/2/3 74/3/3
f 190/4/3 192/6/3 75/6/3
f 74/3/3 75/6/3 194/6/3
f 196/3/3 197/6/3 192/6/3
f 74/3/12 189/2/12 201/78/12
f 195/3/1 198/79/1 200/78/1
f 191/4/4 202/80/4 254/80/4
f 192/6/1 203/81/1 198/79/1
f 75/6/5 192/6/5 203/81/5
f 196/3/12 207/79/12 208/81/12
f 75/6/12 206/81/12 202/80/12
f 190/4/1 254/80/1 203/81/1
f 74/3/4 199/79/4 198/79/4
f 194/6/1 204/81/1 205/79/1
f 74/3/12 199/79/12 206/81/12
f 222/82/3 212/82/3 210/83/3
f 228/42/3 225/42/3 216/43/3
f 226/82/3 223/82/3 218/83/3
f 224/42/3 221/42/3 220/43/3
f 221/82/21 233/85/21 232/84/21
f 233/85/22 222/82/22 219/83/22
f 223/82/21 234/85/21 231/84/21
f 234/85/22 224/82/22 217/83/22
f 225/82/21 235/85/21 230/84/21
f 235/85/22 226/82/22 215/83/22
f 227/82/33 236/85/33 229/84/33
f 236/85/22 228/82/22 213/83/22
f 211/82/3 227/82/3 214/83/3
f 242/86/3 241/94/3 244/87/3
f 250/89/3 251/166/3 252/90/3
f 243/88/17 244/87/17 240/92/17
f 241/94/18 242/86/18 237/95/18
f 252/90/19 251/166/19 246/97/19
f 247/99/20 245/167/20 250/89/20
f 259/80/4 253/59/4 255/59/4
f 136/59/4 256/59/4 260/80/4
f 257/100/4 258/100/4 256/59/4
f 259/80/4 260/80/4 262/101/4
f 256/59/1 266/168/1 265/102/1
f 270/103/2 269/103/2 261/101/2
f 263/102/12 264/168/12 253/59/12
f 268/104/3 267/104/3 258/100/3
f 281/105/4 272/106/4 274/106/4
f 275/107/4 278/108/4 287/108/4
f 277/109/4 280/110/4 285/110/4
f 282/111/4 283/111/4 286/112/4
f 294/113/25 295/113/25 283/114/25
f 281/105/24 284/105/24 295/113/24
f 293/115/23 296/115/23 285/110/23
f 279/116/24 286/116/24 296/115/24
f 292/117/23 297/117/23 287/118/23
f 277/109/24 288/109/24 297/117/24
f 291/119/23 298/119/23 289/120/23
f 275/121/24 290/121/24 298/119/24
f 271/122/4 276/120/4 289/120/4
f 300/123/5 302/123/5 301/124/5
f 304/123/5 306/123/5 305/124/5
f 308/125/5 306/123/5 300/123/5
f 305/124/5 310/126/5 309/126/5
f 300/123/2 312/11/2 64/11/2
f 63/2/3 311/2/3 299/124/3
f 314/2/1 313/11/1 304/123/1
f 311/2/3 318/2/3 305/124/3
f 317/11/12 318/2/12 305/124/12
f 320/127/2 319/127/2 309/126/2
f 313/11/2 317/11/2 306/123/2
f 318/2/3 314/2/3 303/124/3
f 311/2/1 312/11/1 300/123/1
f 64/11/34 63/2/34 301/124/34
f 316/128/3 315/128/3 308/125/3
f 317/11/2 312/11/2 300/123/2
f 331/129/5 322/130/5 324/130/5
f 325/131/5 328/132/5 337/132/5
f 330/133/5 335/133/5 338/134/5
f 329/135/5 332/136/5 333/136/5
f 344/137/26 345/137/26 333/138/26
f 331/129/27 334/129/27 345/137/27
f 343/139/26 346/139/26 335/133/26
f 329/140/27 336/140/27 346/139/27
f 342/141/26 347/141/26 337/142/26
f 327/134/27 338/134/27 347/141/27
f 341/143/26 348/143/26 339/144/26
f 325/145/27 340/145/27 348/143/27
f 326/144/5 339/144/5 323/146/5
f 354/147/5 355/154/5 356/148/5
f 362/150/5 361/158/5 364/151/5
f 352/153/28 356/148/28 355/154/28
f 349/156/29 354/147/29 353/149/29
f 360/156/30 358/157/30 363/152/30
f 362/150/31 357/153/31 359/155/31
