# Blender 4.4.0
# www.blender.org
mtllib Prop_Trashcan_01.mtl
o Prop_Trashcan_01
v -0.000000 0.716911 -0.247007
v -0.123503 0.716911 -0.213914
v -0.213914 0.716911 -0.123503
v -0.247007 0.716911 0.000000
v -0.213914 0.716911 0.123503
v -0.123503 0.716911 0.213914
v -0.000000 0.716911 0.247007
v 0.123503 0.716911 0.213914
v 0.213914 0.716911 0.123503
v 0.247007 0.716911 0.000000
v 0.213914 0.716911 -0.123503
v 0.123503 0.716911 -0.213914
v 0.123503 0.062303 0.213914
v 0.123503 0.654608 0.213914
v 0.213914 0.654608 0.123503
v 0.213914 0.062303 0.123503
v -0.213914 0.062303 0.123503
v -0.213914 0.654608 0.123503
v -0.123503 0.654608 0.213914
v -0.123503 0.062303 0.213914
v 0.123503 0.062303 -0.213914
v 0.123503 0.654608 -0.213914
v -0.000000 0.654608 -0.247007
v -0.000000 0.062303 -0.247007
v -0.123503 0.062303 -0.213914
v -0.123503 0.654608 -0.213914
v -0.213914 0.654608 -0.123503
v -0.213914 0.062303 -0.123503
v 0.247007 0.654608 0.000000
v 0.247007 0.062303 0.000000
v -0.000000 0.654608 0.247007
v -0.000000 0.062303 0.247007
v -0.247007 0.654608 0.000000
v -0.247007 0.062303 0.000000
v 0.213914 0.654608 -0.123503
v 0.213914 0.062303 -0.123503
v -0.101759 0.085086 -0.216689
v -0.101759 0.631824 -0.216689
v -0.020157 0.631824 -0.238555
v -0.020157 0.085086 -0.238555
v 0.136805 0.085086 -0.196497
v 0.136805 0.631824 -0.196497
v 0.196542 0.631824 -0.136760
v 0.196542 0.085086 -0.136760
v -0.216663 0.085086 0.101805
v -0.216663 0.631824 0.101805
v -0.238528 0.631824 0.020202
v -0.238528 0.085086 0.020202
v 0.101831 0.085086 0.216708
v 0.101831 0.631824 0.216708
v 0.020228 0.631824 0.238574
v 0.020228 0.085086 0.238574
v 0.216734 0.085086 -0.101786
v 0.216734 0.631824 -0.101786
v 0.238600 0.631824 -0.020183
v 0.238600 0.085086 -0.020183
v -0.238528 0.085086 -0.020183
v -0.238528 0.631824 -0.020183
v -0.216663 0.631824 -0.101786
v -0.216663 0.085086 -0.101786
v -0.020157 0.085086 0.238574
v -0.020157 0.631824 0.238574
v -0.101759 0.631824 0.216708
v -0.101759 0.085086 0.216708
v 0.238153 0.085086 0.020157
v 0.238153 0.631824 0.020157
v 0.216325 0.631824 0.101620
v 0.216325 0.085086 0.101620
v -0.196471 0.085086 -0.136760
v -0.196471 0.631824 -0.136760
v -0.136733 0.631824 -0.196497
v -0.136733 0.085086 -0.196497
v 0.020228 0.085086 -0.238555
v 0.020228 0.631824 -0.238555
v 0.101831 0.631824 -0.216689
v 0.101831 0.085086 -0.216689
v -0.136733 0.085086 0.196516
v -0.136733 0.631824 0.196516
v -0.196471 0.631824 0.136779
v -0.196471 0.085086 0.136779
v 0.196542 0.085086 0.136779
v 0.196542 0.631824 0.136779
v 0.136805 0.631824 0.196516
v 0.136805 0.085086 0.196516
v 0.123503 0.680253 0.213914
v -0.213914 0.680253 0.123503
v 0.123503 0.680253 -0.213914
v -0.123503 0.680253 -0.213914
v 0.213914 0.680253 0.123503
v -0.123503 0.680253 0.213914
v -0.000000 0.680253 -0.247007
v -0.213914 0.680253 -0.123503
v 0.247007 0.680253 0.000000
v -0.000000 0.680253 0.247007
v -0.247007 0.680253 0.000000
v 0.213914 0.680253 -0.123503
v 0.222191 0.680253 0.128282
v 0.222191 0.654608 0.128282
v -0.128282 0.680253 0.222191
v -0.128282 0.654608 0.222191
v -0.000000 0.680253 -0.256564
v -0.000000 0.654608 -0.256564
v -0.222191 0.680253 -0.128282
v -0.222191 0.654608 -0.128282
v 0.256564 0.680253 0.000000
v 0.256564 0.654608 0.000000
v -0.000000 0.680253 0.256564
v -0.000000 0.654608 0.256564
v -0.256564 0.680253 0.000000
v -0.256564 0.654608 0.000000
v 0.222191 0.680253 -0.128282
v 0.222191 0.654608 -0.128282
v -0.128282 0.654608 -0.222191
v 0.128282 0.654608 -0.222191
v -0.222191 0.654608 0.128282
v 0.128282 0.654608 0.222191
v 0.128282 0.680253 0.222191
v -0.222191 0.680253 0.128282
v 0.128282 0.680253 -0.222191
v -0.128282 0.680253 -0.222191
v 0.213914 0.037565 0.123503
v -0.123503 0.037565 0.213914
v -0.000000 0.037565 -0.247007
v -0.213914 0.037565 -0.123503
v 0.247007 0.037565 0.000000
v -0.000000 0.037565 0.247007
v -0.247007 0.037565 0.000000
v 0.213914 0.037565 -0.123503
v 0.123503 0.037565 0.213914
v -0.213914 0.037565 0.123503
v 0.123503 0.037565 -0.213914
v -0.123503 0.037565 -0.213914
v -0.127895 0.000000 -0.221520
v -0.000000 0.000000 -0.255789
v -0.221520 0.000000 -0.127895
v -0.255789 0.000000 0.000000
v -0.221520 0.000000 0.127895
v -0.127895 0.000000 0.221520
v -0.000000 0.000000 0.255789
v 0.127895 0.000000 0.221520
v 0.221520 0.000000 0.127895
v 0.255789 0.000000 0.000000
v 0.221520 0.000000 -0.127895
v 0.127895 0.000000 -0.221520
v 0.221520 0.037565 0.127895
v -0.127895 0.037565 0.221520
v -0.000000 0.037565 -0.255789
v -0.221520 0.037565 -0.127895
v 0.255789 0.037565 0.000000
v -0.000000 0.037565 0.255789
v -0.255789 0.037565 0.000000
v 0.221520 0.037565 -0.127895
v 0.127895 0.037565 0.221520
v -0.221520 0.037565 0.127895
v 0.127895 0.037565 -0.221520
v -0.127895 0.037565 -0.221520
v -0.000000 0.716911 -0.257947
v -0.128974 0.716911 -0.223389
v -0.223389 0.716911 -0.128974
v -0.257947 0.716911 0.000000
v -0.223389 0.716911 0.128974
v -0.128974 0.716911 0.223389
v -0.000000 0.716911 0.257947
v 0.128974 0.716911 0.223389
v 0.223389 0.716911 0.128974
v 0.257947 0.716911 0.000000
v 0.223389 0.716911 -0.128974
v 0.128974 0.716911 -0.223389
v -0.000000 0.744950 -0.257947
v -0.128974 0.744950 -0.223389
v -0.223389 0.744950 -0.128974
v -0.257947 0.744950 0.000000
v -0.223389 0.744950 0.128974
v -0.128974 0.744950 0.223389
v -0.000000 0.744950 0.257947
v 0.128974 0.744950 0.223389
v 0.223389 0.744950 0.128974
v 0.257947 0.744950 0.000000
v 0.223389 0.744950 -0.128974
v 0.128974 0.744950 -0.223389
v -0.000000 0.744950 -0.229480
v -0.114740 0.744950 -0.198736
v -0.198736 0.744950 -0.114740
v -0.229480 0.744950 0.000000
v -0.198736 0.744950 0.114740
v -0.114740 0.744950 0.198736
v -0.000000 0.744950 0.229480
v 0.114740 0.744950 0.198736
v 0.198736 0.744950 0.114740
v 0.229480 0.744950 0.000000
v 0.198736 0.744950 -0.114740
v 0.114740 0.744950 -0.198736
v -0.000000 0.044050 -0.229480
v -0.114740 0.044050 -0.198736
v -0.198736 0.044050 -0.114740
v -0.229480 0.044050 0.000000
v -0.198736 0.044050 0.114740
v -0.114740 0.044050 0.198736
v -0.000000 0.044050 0.229480
v 0.114740 0.044050 0.198736
v 0.198736 0.044050 0.114740
v 0.229480 0.044050 0.000000
v 0.198736 0.044050 -0.114740
v 0.114740 0.044050 -0.198736
vn 0.7071 -0.0000 0.7071
vn -0.7071 -0.0000 0.7071
vn 0.2588 -0.0000 -0.9659
vn -0.7071 -0.0000 -0.7071
vn 0.9659 -0.0000 0.2588
vn -0.2588 -0.0000 0.9659
vn -0.9659 -0.0000 -0.2588
vn 0.9659 -0.0000 -0.2588
vn 0.2588 -0.0000 0.9659
vn -0.9659 -0.0000 0.2588
vn 0.7071 -0.0000 -0.7071
vn -0.2588 -0.0000 -0.9659
vn -0.1266 -0.0000 -0.9920
vn -0.2567 -0.1283 -0.9579
vn -0.3867 -0.0000 -0.9222
vn -0.2567 0.1283 -0.9579
vn 0.7947 -0.0000 -0.6069
vn 0.7014 -0.1267 -0.7014
vn 0.6066 -0.0000 -0.7950
vn 0.7014 0.1267 -0.7014
vn -0.9921 -0.0000 0.1257
vn -0.9579 -0.1289 0.2567
vn -0.9221 -0.0000 0.3870
vn -0.9579 0.1289 0.2567
vn 0.1279 -0.0000 0.9918
vn 0.2567 -0.1267 0.9581
vn 0.3848 -0.0000 0.9230
vn 0.2567 0.1267 0.9581
vn 0.9917 -0.0000 -0.1288
vn 0.9582 -0.1261 -0.2568
vn 0.9231 -0.0000 -0.3845
vn 0.9582 0.1261 -0.2568
vn -0.9220 -0.0000 -0.3873
vn -0.9578 -0.1291 -0.2567
vn -0.9921 -0.0000 -0.1256
vn -0.9578 0.1291 -0.2567
vn -0.3860 -0.0000 0.9225
vn -0.2567 -0.1275 0.9580
vn -0.1275 -0.0000 0.9918
vn -0.2567 0.1275 0.9580
vn 0.9156 -0.0000 0.4021
vn 0.9557 -0.1448 0.2561
vn 0.9940 -0.0000 0.1095
vn 0.9557 0.1448 0.2561
vn -0.6051 -0.0000 -0.7962
vn -0.7012 -0.1289 -0.7012
vn -0.7963 -0.0000 -0.6049
vn -0.7012 0.1289 -0.7012
vn 0.3855 -0.0000 -0.9227
vn 0.2567 -0.1275 -0.9580
vn 0.1270 -0.0000 -0.9919
vn 0.2567 0.1275 -0.9580
vn -0.7960 -0.0000 0.6053
vn -0.7013 -0.1283 0.7013
vn -0.6056 -0.0000 0.7958
vn -0.7013 0.1283 0.7013
vn 0.6072 -0.0000 0.7946
vn 0.7015 -0.1261 0.7015
vn 0.7944 -0.0000 0.6074
vn 0.7015 0.1261 0.7015
vn -0.0000 -1.0000 -0.0000
vn -0.0000 1.0000 -0.0000
vt 0.468715 0.759543
vt 0.466485 0.752093
vt 0.468715 0.752093
vt 0.460394 0.759543
vt 0.458165 0.752093
vt 0.460394 0.752093
vt 0.463440 0.759543
vt 0.463440 0.752093
vt 0.458165 0.759543
vt 0.469531 0.759543
vt 0.469531 0.752093
vt 0.457349 0.759543
vt 0.457349 0.752093
vt 0.466485 0.759543
vt 0.460394 0.626513
vt 0.463440 0.621486
vt 0.460394 0.621486
vt 0.460930 0.742252
vt 0.462943 0.631143
vt 0.460930 0.631143
vt 0.466485 0.626513
vt 0.468715 0.621486
vt 0.466485 0.621486
vt 0.466813 0.742252
vt 0.468286 0.631143
vt 0.466813 0.631143
vt 0.458165 0.626513
vt 0.457349 0.621486
vt 0.458165 0.621486
vt 0.458097 0.742252
vt 0.457558 0.631143
vt 0.458097 0.631143
vt 0.465951 0.742252
vt 0.463938 0.631143
vt 0.465951 0.631143
vt 0.468715 0.626513
vt 0.469531 0.621486
vt 0.468784 0.742252
vt 0.469324 0.631143
vt 0.468784 0.631143
vt 0.457349 0.626513
vt 0.457558 0.742252
vt 0.463440 0.626513
vt 0.462943 0.742252
vt 0.460930 0.631143
vt 0.462943 0.631143
vt 0.469531 0.626513
vt 0.469312 0.742252
vt 0.468774 0.631143
vt 0.469312 0.631143
vt 0.458595 0.742252
vt 0.460068 0.631143
vt 0.458595 0.631143
vt 0.463938 0.742252
vt 0.465951 0.631143
vt 0.463938 0.631143
vt 0.460068 0.742252
vt 0.468286 0.742252
vt 0.463440 0.746882
vt 0.460394 0.746882
vt 0.468715 0.746882
vt 0.466485 0.746882
vt 0.458165 0.746882
vt 0.457349 0.746882
vt 0.463440 0.746882
vt 0.469531 0.746882
vt 0.469324 0.742252
vt 0.468774 0.742252
vt 0.460276 0.746882
vt 0.457113 0.746882
vt 0.466603 0.746882
vt 0.457113 0.752093
vt 0.457960 0.746882
vt 0.468919 0.746882
vt 0.469766 0.752093
vt 0.468919 0.752093
vt 0.466603 0.752093
vt 0.469766 0.746882
vt 0.460276 0.752093
vt 0.457960 0.752093
vt 0.468902 0.621486
vt 0.466594 0.613852
vt 0.468902 0.613852
vt 0.460286 0.621486
vt 0.457977 0.613852
vt 0.460286 0.613852
vt 0.463440 0.613852
vt 0.457977 0.621486
vt 0.469747 0.621486
vt 0.469747 0.613852
vt 0.457132 0.621486
vt 0.457132 0.613852
vt 0.466594 0.621486
vt 0.469801 0.759543
vt 0.457079 0.759543
vt 0.468948 0.759543
vt 0.466620 0.759543
vt 0.457931 0.759543
vt 0.460259 0.759543
vt 0.457079 0.765241
vt 0.468948 0.765241
vt 0.463440 0.765241
vt 0.466620 0.765241
vt 0.457931 0.765241
vt 0.460259 0.765241
vt 0.469801 0.765241
vt 0.457781 0.765241
vt 0.468340 0.765241
vt 0.466269 0.765241
vt 0.458539 0.765241
vt 0.460610 0.765241
vt 0.469099 0.765241
vt 0.478952 0.703902
vt 0.477501 0.630886
vt 0.477501 0.703902
vt 0.474989 0.703902
vt 0.474601 0.630886
vt 0.474601 0.703902
vt 0.480014 0.630886
vt 0.480014 0.703902
vt 0.476051 0.703902
vt 0.478952 0.630886
vt 0.474989 0.630886
vt 0.476051 0.630886
vt 0.480402 0.703902
vt 0.480402 0.630886
s 0
usemtl Texture_Map
f 9/1/1 85/2/1 89/3/1
f 6/4/2 86/5/2 90/6/2
f 1/7/3 87/2/3 91/8/3
f 3/9/4 88/6/4 92/5/4
f 10/10/5 89/3/5 93/11/5
f 7/7/6 90/6/6 94/8/6
f 4/12/7 92/5/7 95/13/7
f 11/1/8 93/11/8 96/3/8
f 8/14/9 94/8/9 85/2/9
f 5/9/10 95/13/10 86/5/10
f 12/14/11 96/3/11 87/2/11
f 2/4/12 91/8/12 88/6/12
f 25/15/12 123/16/12 132/17/12
f 38/18/12 40/19/12 37/20/12
f 21/21/11 128/22/11 131/23/11
f 42/24/11 44/25/11 41/26/11
f 17/27/10 127/28/10 130/29/10
f 46/30/10 48/31/10 45/32/10
f 13/21/9 126/16/9 129/23/9
f 50/33/9 52/34/9 49/35/9
f 36/36/8 125/37/8 128/22/8
f 54/38/8 56/39/8 53/40/8
f 34/41/7 124/29/7 127/28/7
f 58/42/7 60/32/7 57/31/7
f 32/43/6 122/17/6 126/16/6
f 62/44/6 64/45/6 61/46/6
f 30/47/5 121/22/5 125/37/5
f 66/48/5 68/49/5 65/50/5
f 28/27/4 132/17/4 124/29/4
f 70/51/4 72/52/4 69/53/4
f 24/43/3 131/23/3 123/16/3
f 74/54/3 76/55/3 73/56/3
f 20/15/2 130/29/2 122/17/2
f 78/57/2 80/53/2 77/52/2
f 16/36/1 129/23/1 121/22/1
f 82/58/1 84/26/1 81/25/1
f 25/15/13 38/18/13 37/20/13
f 23/59/14 38/18/14 26/60/14
f 24/43/15 39/44/15 23/59/15
f 24/43/16 37/20/16 40/19/16
f 21/21/17 42/24/17 41/26/17
f 35/61/18 42/24/18 22/62/18
f 36/36/19 43/58/19 35/61/19
f 36/36/20 41/26/20 44/25/20
f 17/27/21 46/30/21 45/32/21
f 18/63/22 47/42/22 46/30/22
f 34/41/23 47/42/23 33/64/23
f 17/27/24 48/31/24 34/41/24
f 13/21/25 50/33/25 49/35/25
f 14/62/26 51/54/26 50/33/26
f 32/43/27 51/54/27 31/65/27
f 13/21/28 52/34/28 32/43/28
f 36/36/29 54/38/29 53/40/29
f 29/66/30 54/38/30 35/61/30
f 30/47/31 55/67/31 29/66/31
f 30/47/32 53/40/32 56/39/32
f 34/41/33 58/42/33 57/31/33
f 33/64/34 59/30/34 58/42/34
f 28/27/35 59/30/35 27/63/35
f 34/41/36 60/32/36 28/27/36
f 32/43/37 62/44/37 61/46/37
f 31/65/38 63/18/38 62/44/38
f 20/15/39 63/18/39 19/60/39
f 32/43/40 64/45/40 20/15/40
f 30/47/41 66/48/41 65/50/41
f 15/61/42 66/48/42 29/66/42
f 16/36/43 67/68/43 15/61/43
f 16/36/44 65/50/44 68/49/44
f 28/27/45 70/51/45 69/53/45
f 26/60/46 70/51/46 27/63/46
f 25/15/47 71/57/47 26/60/47
f 25/15/48 69/53/48 72/52/48
f 24/43/49 74/54/49 73/56/49
f 22/62/50 74/54/50 23/59/50
f 21/21/51 75/33/51 22/62/51
f 21/21/52 73/56/52 76/55/52
f 20/15/53 78/57/53 77/52/53
f 19/60/54 79/51/54 78/57/54
f 17/27/55 79/51/55 18/63/55
f 20/15/56 80/53/56 17/27/56
f 16/36/57 82/58/57 81/25/57
f 15/61/58 83/24/58 82/58/58
f 13/21/59 83/24/59 14/62/59
f 16/36/60 84/26/60 13/21/60
f 19/60/61 108/65/61 100/69/61
f 18/63/61 110/70/61 33/64/61
f 90/6/62 107/8/62 94/8/62
f 22/62/61 102/59/61 114/71/61
f 92/5/62 109/72/62 95/13/62
f 27/63/61 110/70/61 104/73/61
f 22/62/61 112/74/61 35/61/61
f 96/3/62 105/75/62 111/76/62
f 85/2/62 97/76/62 89/3/62
f 27/63/61 113/69/61 26/60/61
f 85/2/62 107/8/62 117/77/62
f 35/61/61 106/78/61 29/66/61
f 120/79/12 102/59/12 113/69/12
f 119/77/11 112/74/11 114/71/11
f 118/80/10 110/70/10 115/73/10
f 117/77/9 108/65/9 116/71/9
f 111/76/8 106/78/8 112/74/8
f 109/72/7 104/73/7 110/70/7
f 107/8/6 100/69/6 108/65/6
f 105/75/5 98/74/5 106/78/5
f 103/80/4 113/69/4 104/73/4
f 101/8/3 114/71/3 102/59/3
f 99/79/2 115/73/2 100/69/2
f 97/76/1 116/71/1 98/74/1
f 89/3/62 105/75/62 93/11/62
f 88/6/62 101/8/62 120/79/62
f 19/60/61 115/73/61 18/63/61
f 88/6/62 103/80/62 92/5/62
f 14/62/61 108/65/61 31/65/61
f 96/3/62 119/77/62 87/2/62
f 15/61/61 106/78/61 98/74/61
f 87/2/62 101/8/62 91/8/62
f 86/5/62 109/72/62 118/80/62
f 15/61/61 116/71/61 14/62/61
f 26/60/61 102/59/61 23/59/61
f 86/5/62 99/79/62 90/6/62
f 145/81/1 140/82/1 141/83/1
f 146/84/2 137/85/2 138/86/2
f 147/16/3 144/82/3 134/87/3
f 148/88/4 133/86/4 135/85/4
f 149/89/5 141/83/5 142/90/5
f 150/16/6 138/86/6 139/87/6
f 151/91/7 135/85/7 136/92/7
f 152/81/8 142/90/8 143/83/8
f 153/93/9 139/87/9 140/82/9
f 154/88/10 136/92/10 137/85/10
f 155/93/11 143/83/11 144/82/11
f 156/84/12 134/87/12 133/86/12
f 143/83/61 139/87/61 135/85/61
f 11/1/61 166/94/61 10/10/61
f 8/14/61 163/7/61 7/7/61
f 5/9/61 160/95/61 4/12/61
f 12/14/61 167/96/61 11/1/61
f 2/4/61 157/7/61 1/7/61
f 9/1/61 164/97/61 8/14/61
f 6/4/61 161/98/61 5/9/61
f 1/7/61 168/97/61 12/14/61
f 3/9/61 158/99/61 2/4/61
f 10/10/61 165/96/61 9/1/61
f 7/7/61 162/99/61 6/4/61
f 4/12/61 159/98/61 3/9/61
f 161/98/10 172/100/10 160/95/10
f 168/97/11 179/101/11 167/96/11
f 158/99/12 169/102/12 157/7/12
f 165/96/1 176/103/1 164/97/1
f 162/99/2 173/104/2 161/98/2
f 157/7/3 180/103/3 168/97/3
f 159/98/4 170/105/4 158/99/4
f 166/94/5 177/101/5 165/96/5
f 163/7/6 174/105/6 162/99/6
f 160/95/7 171/104/7 159/98/7
f 167/96/8 178/106/8 166/94/8
f 164/97/9 175/102/9 163/7/9
f 173/104/62 184/107/62 172/100/62
f 180/103/62 191/108/62 179/101/62
f 170/105/62 181/102/62 169/102/62
f 177/101/62 188/109/62 176/103/62
f 174/105/62 185/110/62 173/104/62
f 180/103/62 181/102/62 192/109/62
f 171/104/62 182/111/62 170/105/62
f 177/101/62 190/112/62 189/108/62
f 174/105/62 187/102/62 186/111/62
f 171/104/62 184/107/62 183/110/62
f 179/101/62 190/112/62 178/106/62
f 176/103/62 187/102/62 175/102/62
f 188/113/12 199/114/12 187/115/12
f 185/116/8 196/117/8 184/118/8
f 192/113/2 203/119/2 191/120/2
f 182/121/9 193/114/9 181/115/9
f 189/120/4 200/122/4 188/113/4
f 186/121/11 197/123/11 185/116/11
f 181/115/6 204/122/6 192/113/6
f 183/116/1 194/124/1 182/121/1
f 190/125/7 201/119/7 189/120/7
f 187/115/3 198/124/3 186/121/3
f 184/118/5 195/123/5 183/116/5
f 191/120/10 202/126/10 190/125/10
f 197/123/62 201/119/62 193/114/62
f 155/93/62 151/91/62 153/93/62
f 9/1/1 8/14/1 85/2/1
f 6/4/2 5/9/2 86/5/2
f 1/7/3 12/14/3 87/2/3
f 3/9/4 2/4/4 88/6/4
f 10/10/5 9/1/5 89/3/5
f 7/7/6 6/4/6 90/6/6
f 4/12/7 3/9/7 92/5/7
f 11/1/8 10/10/8 93/11/8
f 8/14/9 7/7/9 94/8/9
f 5/9/10 4/12/10 95/13/10
f 12/14/11 11/1/11 96/3/11
f 2/4/12 1/7/12 91/8/12
f 25/15/12 24/43/12 123/16/12
f 38/18/12 39/44/12 40/19/12
f 21/21/11 36/36/11 128/22/11
f 42/24/11 43/58/11 44/25/11
f 17/27/10 34/41/10 127/28/10
f 46/30/10 47/42/10 48/31/10
f 13/21/9 32/43/9 126/16/9
f 50/33/9 51/54/9 52/34/9
f 36/36/8 30/47/8 125/37/8
f 54/38/8 55/67/8 56/39/8
f 34/41/7 28/27/7 124/29/7
f 58/42/7 59/30/7 60/32/7
f 32/43/6 20/15/6 122/17/6
f 62/44/6 63/18/6 64/45/6
f 30/47/5 16/36/5 121/22/5
f 66/48/5 67/68/5 68/49/5
f 28/27/4 25/15/4 132/17/4
f 70/51/4 71/57/4 72/52/4
f 24/43/3 21/21/3 131/23/3
f 74/54/3 75/33/3 76/55/3
f 20/15/2 17/27/2 130/29/2
f 78/57/2 79/51/2 80/53/2
f 16/36/1 13/21/1 129/23/1
f 82/58/1 83/24/1 84/26/1
f 25/15/13 26/60/13 38/18/13
f 23/59/14 39/44/14 38/18/14
f 24/43/15 40/19/15 39/44/15
f 24/43/16 25/15/16 37/20/16
f 21/21/17 22/62/17 42/24/17
f 35/61/18 43/58/18 42/24/18
f 36/36/19 44/25/19 43/58/19
f 36/36/20 21/21/20 41/26/20
f 17/27/21 18/63/21 46/30/21
f 18/63/22 33/64/22 47/42/22
f 34/41/23 48/31/23 47/42/23
f 17/27/24 45/32/24 48/31/24
f 13/21/25 14/62/25 50/33/25
f 14/62/26 31/65/26 51/54/26
f 32/43/27 52/34/27 51/54/27
f 13/21/28 49/35/28 52/34/28
f 36/36/29 35/61/29 54/38/29
f 29/66/30 55/67/30 54/38/30
f 30/47/31 56/39/31 55/67/31
f 30/47/32 36/36/32 53/40/32
f 34/41/33 33/64/33 58/42/33
f 33/64/34 27/63/34 59/30/34
f 28/27/35 60/32/35 59/30/35
f 34/41/36 57/31/36 60/32/36
f 32/43/37 31/65/37 62/44/37
f 31/65/38 19/60/38 63/18/38
f 20/15/39 64/45/39 63/18/39
f 32/43/40 61/46/40 64/45/40
f 30/47/41 29/66/41 66/48/41
f 15/61/42 67/68/42 66/48/42
f 16/36/43 68/49/43 67/68/43
f 16/36/44 30/47/44 65/50/44
f 28/27/45 27/63/45 70/51/45
f 26/60/46 71/57/46 70/51/46
f 25/15/47 72/52/47 71/57/47
f 25/15/48 28/27/48 69/53/48
f 24/43/49 23/59/49 74/54/49
f 22/62/50 75/33/50 74/54/50
f 21/21/51 76/55/51 75/33/51
f 21/21/52 24/43/52 73/56/52
f 20/15/53 19/60/53 78/57/53
f 19/60/54 18/63/54 79/51/54
f 17/27/55 80/53/55 79/51/55
f 20/15/56 77/52/56 80/53/56
f 16/36/57 15/61/57 82/58/57
f 15/61/58 14/62/58 83/24/58
f 13/21/59 84/26/59 83/24/59
f 16/36/60 81/25/60 84/26/60
f 19/60/61 31/65/61 108/65/61
f 18/63/61 115/73/61 110/70/61
f 90/6/62 99/79/62 107/8/62
f 22/62/61 23/59/61 102/59/61
f 92/5/62 103/80/62 109/72/62
f 27/63/61 33/64/61 110/70/61
f 22/62/61 114/71/61 112/74/61
f 96/3/62 93/11/62 105/75/62
f 85/2/62 117/77/62 97/76/62
f 27/63/61 104/73/61 113/69/61
f 85/2/62 94/8/62 107/8/62
f 35/61/61 112/74/61 106/78/61
f 120/79/12 101/8/12 102/59/12
f 119/77/11 111/76/11 112/74/11
f 118/80/10 109/72/10 110/70/10
f 117/77/9 107/8/9 108/65/9
f 111/76/8 105/75/8 106/78/8
f 109/72/7 103/80/7 104/73/7
f 107/8/6 99/79/6 100/69/6
f 105/75/5 97/76/5 98/74/5
f 103/80/4 120/79/4 113/69/4
f 101/8/3 119/77/3 114/71/3
f 99/79/2 118/80/2 115/73/2
f 97/76/1 117/77/1 116/71/1
f 89/3/62 97/76/62 105/75/62
f 88/6/62 91/8/62 101/8/62
f 19/60/61 100/69/61 115/73/61
f 88/6/62 120/79/62 103/80/62
f 14/62/61 116/71/61 108/65/61
f 96/3/62 111/76/62 119/77/62
f 15/61/61 29/66/61 106/78/61
f 87/2/62 119/77/62 101/8/62
f 86/5/62 95/13/62 109/72/62
f 15/61/61 98/74/61 116/71/61
f 26/60/61 113/69/61 102/59/61
f 86/5/62 118/80/62 99/79/62
f 145/81/1 153/93/1 140/82/1
f 146/84/2 154/88/2 137/85/2
f 147/16/3 155/93/3 144/82/3
f 148/88/4 156/84/4 133/86/4
f 149/89/5 145/81/5 141/83/5
f 150/16/6 146/84/6 138/86/6
f 151/91/7 148/88/7 135/85/7
f 152/81/8 149/89/8 142/90/8
f 153/93/9 150/16/9 139/87/9
f 154/88/10 151/91/10 136/92/10
f 155/93/11 152/81/11 143/83/11
f 156/84/12 147/16/12 134/87/12
f 135/85/61 133/86/61 134/87/61
f 134/87/61 144/82/61 143/83/61
f 143/83/61 142/90/61 141/83/61
f 141/83/61 140/82/61 139/87/61
f 139/87/61 138/86/61 135/85/61
f 138/86/61 137/85/61 135/85/61
f 137/85/61 136/92/61 135/85/61
f 135/85/61 134/87/61 143/83/61
f 143/83/61 141/83/61 139/87/61
f 11/1/61 167/96/61 166/94/61
f 8/14/61 164/97/61 163/7/61
f 5/9/61 161/98/61 160/95/61
f 12/14/61 168/97/61 167/96/61
f 2/4/61 158/99/61 157/7/61
f 9/1/61 165/96/61 164/97/61
f 6/4/61 162/99/61 161/98/61
f 1/7/61 157/7/61 168/97/61
f 3/9/61 159/98/61 158/99/61
f 10/10/61 166/94/61 165/96/61
f 7/7/61 163/7/61 162/99/61
f 4/12/61 160/95/61 159/98/61
f 161/98/10 173/104/10 172/100/10
f 168/97/11 180/103/11 179/101/11
f 158/99/12 170/105/12 169/102/12
f 165/96/1 177/101/1 176/103/1
f 162/99/2 174/105/2 173/104/2
f 157/7/3 169/102/3 180/103/3
f 159/98/4 171/104/4 170/105/4
f 166/94/5 178/106/5 177/101/5
f 163/7/6 175/102/6 174/105/6
f 160/95/7 172/100/7 171/104/7
f 167/96/8 179/101/8 178/106/8
f 164/97/9 176/103/9 175/102/9
f 173/104/62 185/110/62 184/107/62
f 180/103/62 192/109/62 191/108/62
f 170/105/62 182/111/62 181/102/62
f 177/101/62 189/108/62 188/109/62
f 174/105/62 186/111/62 185/110/62
f 180/103/62 169/102/62 181/102/62
f 171/104/62 183/110/62 182/111/62
f 177/101/62 178/106/62 190/112/62
f 174/105/62 175/102/62 187/102/62
f 171/104/62 172/100/62 184/107/62
f 179/101/62 191/108/62 190/112/62
f 176/103/62 188/109/62 187/102/62
f 188/113/12 200/122/12 199/114/12
f 185/116/8 197/123/8 196/117/8
f 192/113/2 204/122/2 203/119/2
f 182/121/9 194/124/9 193/114/9
f 189/120/4 201/119/4 200/122/4
f 186/121/11 198/124/11 197/123/11
f 181/115/6 193/114/6 204/122/6
f 183/116/1 195/123/1 194/124/1
f 190/125/7 202/126/7 201/119/7
f 187/115/3 199/114/3 198/124/3
f 184/118/5 196/117/5 195/123/5
f 191/120/10 203/119/10 202/126/10
f 193/114/62 194/124/62 195/123/62
f 195/123/62 196/117/62 193/114/62
f 196/117/62 197/123/62 193/114/62
f 197/123/62 198/124/62 201/119/62
f 198/124/62 199/114/62 201/119/62
f 199/114/62 200/122/62 201/119/62
f 201/119/62 202/126/62 203/119/62
f 203/119/62 204/122/62 201/119/62
f 204/122/62 193/114/62 201/119/62
f 153/93/62 145/81/62 149/89/62
f 149/89/62 152/81/62 155/93/62
f 155/93/62 147/16/62 156/84/62
f 156/84/62 148/88/62 151/91/62
f 151/91/62 154/88/62 153/93/62
f 154/88/62 146/84/62 153/93/62
f 146/84/62 150/16/62 153/93/62
f 153/93/62 149/89/62 155/93/62
f 155/93/62 156/84/62 151/91/62
o Prop_Trashcan_Top_01
v -0.000000 0.744951 -0.273568
v -0.136784 0.744950 -0.236917
v -0.236917 0.744950 -0.136784
v -0.273568 0.744950 -0.000000
v -0.236917 0.744950 0.136784
v -0.136784 0.744950 0.236917
v -0.000000 0.744950 0.273568
v 0.136784 0.744950 0.236917
v 0.236917 0.744950 0.136784
v 0.273568 0.744950 -0.000000
v 0.236917 0.744950 -0.136784
v 0.136784 0.744950 -0.236917
v -0.136784 0.758850 -0.236917
v -0.000000 0.758850 -0.273568
v -0.236917 0.758850 -0.136784
v -0.273568 0.758850 -0.000000
v -0.236917 0.758850 0.136784
v -0.136784 0.758850 0.236917
v -0.000000 0.758850 0.273568
v 0.136784 0.758850 0.236917
v 0.236917 0.758850 0.136784
v 0.273568 0.758850 -0.000000
v 0.236917 0.758850 -0.136784
v 0.136784 0.758850 -0.236917
v -0.067634 0.803653 -0.117146
v -0.000000 0.803653 -0.135268
v -0.117146 0.803653 -0.067634
v -0.135268 0.803653 -0.000000
v -0.117146 0.803653 0.067634
v -0.067634 0.803653 0.117146
v -0.000000 0.803653 0.135268
v 0.067634 0.803653 0.117146
v 0.117146 0.803653 0.067634
v 0.135268 0.803653 -0.000000
v 0.117146 0.803653 -0.067634
v 0.067634 0.803653 -0.117146
v 0.108394 0.783687 0.187743
v -0.000000 0.783687 0.216787
v -0.187743 0.783687 0.108394
v -0.216787 0.783687 -0.000000
v 0.108394 0.783687 -0.187743
v 0.187743 0.783687 -0.108394
v -0.108394 0.783687 -0.187743
v -0.000000 0.783687 -0.216787
v 0.187743 0.783687 0.108394
v -0.108394 0.783687 0.187743
v -0.187743 0.783687 -0.108394
v 0.216787 0.783687 -0.000000
v -0.012998 0.849873 0.068986
v 0.012998 0.849873 0.068986
v -0.012998 0.849873 -0.068986
v 0.012998 0.849873 -0.068986
v -0.012998 0.849873 -0.051064
v -0.012998 0.849873 0.051064
v 0.012998 0.849873 0.051064
v 0.012998 0.849873 -0.051064
v -0.012998 0.843062 0.051064
v -0.012998 0.843062 0.068986
v 0.012998 0.843062 0.068986
v 0.012998 0.843062 -0.051064
v 0.012998 0.843062 -0.068986
v -0.012998 0.843062 -0.068986
v -0.012998 0.843062 -0.051064
v 0.012998 0.843062 0.051064
v -0.012998 0.803653 0.051064
v -0.012998 0.803653 0.068986
v 0.012998 0.803653 0.068986
v 0.012998 0.803653 -0.051064
v 0.012998 0.803653 -0.068986
v -0.012998 0.803653 -0.068986
v -0.012998 0.803653 -0.051064
v 0.012998 0.803653 0.051064
v -0.128620 0.744950 -0.222776
v -0.000000 0.744951 -0.257240
v 0.128620 0.744950 -0.222776
v 0.222776 0.744950 -0.128620
v 0.257240 0.744950 -0.000000
v 0.222776 0.744950 0.128620
v 0.128620 0.744950 0.222776
v -0.000000 0.744950 0.257240
v -0.128620 0.744950 0.222776
v -0.222776 0.744950 0.128620
v -0.257240 0.744950 -0.000000
v -0.222776 0.744950 -0.128620
v -0.128473 0.763507 -0.222522
v -0.000000 0.763507 -0.256946
v -0.222522 0.763507 -0.128473
v 0.128473 0.763507 -0.222522
v 0.222522 0.763507 -0.128473
v 0.256946 0.763507 -0.000000
v 0.222522 0.763507 0.128473
v 0.128473 0.763507 0.222522
v -0.000000 0.763507 0.256946
v -0.128473 0.763507 0.222522
v -0.222522 0.763507 0.128473
v -0.256946 0.763507 -0.000000
v -0.054572 0.800367 -0.094522
v -0.000000 0.800367 -0.109144
v -0.094522 0.800367 -0.054572
v 0.054572 0.800367 -0.094522
v 0.094522 0.800367 -0.054572
v 0.109144 0.800367 -0.000000
v 0.094522 0.800367 0.054572
v 0.054572 0.800367 0.094522
v -0.000000 0.800367 0.109144
v -0.054572 0.800367 0.094522
v -0.094522 0.800367 0.054572
v -0.109144 0.800367 -0.000000
vn -0.9658 -0.0153 0.2588
vn 0.0636 0.9693 0.2374
vn 0.2588 -0.0000 -0.9659
vn -0.7071 -0.0000 -0.7071
vn 0.9659 -0.0000 0.2588
vn -0.2588 -0.0000 0.9659
vn -0.9659 -0.0000 -0.2588
vn 0.9659 -0.0000 -0.2588
vn 0.2588 -0.0000 0.9659
vn -0.9659 -0.0000 0.2588
vn 0.7071 -0.0000 -0.7071
vn -0.2588 -0.0000 -0.9659
vn 0.7071 -0.0000 0.7071
vn -0.7071 -0.0000 0.7071
vn -0.0000 1.0000 -0.0000
vn -0.2374 0.9693 0.0636
vn 0.1738 0.9693 -0.1738
vn -0.0636 0.9693 -0.2374
vn 0.1738 0.9693 0.1738
vn -0.1738 0.9693 0.1738
vn 0.0636 0.9693 -0.2374
vn -0.1738 0.9693 -0.1738
vn 0.2374 0.9693 0.0636
vn -0.0636 0.9693 0.2374
vn -0.2374 0.9693 -0.0636
vn 0.2374 0.9693 -0.0636
vn 0.3985 0.9109 -0.1068
vn -0.3985 0.9109 -0.1068
vn -0.1068 0.9109 0.3985
vn 0.3985 0.9109 0.1068
vn -0.2917 0.9109 -0.2917
vn 0.1068 0.9109 -0.3985
vn -0.2917 0.9109 0.2917
vn 0.2917 0.9109 0.2917
vn -0.1068 0.9109 -0.3985
vn 0.2917 0.9109 -0.2917
vn -0.3985 0.9109 0.1068
vn 0.1068 0.9109 0.3985
vn -0.0000 -0.0000 -1.0000
vn -0.0000 -0.0000 1.0000
vn -0.0000 -1.0000 -0.0000
vn 1.0000 -0.0000 -0.0000
vn -1.0000 -0.0000 -0.0000
vn 0.1768 -0.9682 0.1768
vn 0.9658 -0.0153 0.2588
vn 0.7070 -0.0153 0.7070
vn 0.2588 -0.0153 -0.9658
vn -0.9658 -0.0153 -0.2588
vn -0.2588 -0.0153 0.9658
vn 0.7070 -0.0153 -0.7070
vn -0.7070 -0.0153 -0.7070
vn -0.7070 -0.0153 0.7070
vn 0.9658 -0.0153 -0.2588
vn 0.2588 -0.0153 0.9658
vn -0.2588 -0.0153 -0.9658
vn 0.0647 -0.9682 -0.2415
vn -0.2415 -0.9682 -0.0647
vn -0.0647 -0.9682 0.2415
vn 0.1768 -0.9682 -0.1768
vn -0.1768 -0.9682 -0.1768
vn -0.1768 -0.9682 0.1768
vn 0.2415 -0.9682 -0.0647
vn 0.0647 -0.9682 0.2415
vn -0.0647 -0.9682 -0.2415
vn -0.2415 -0.9682 0.0647
vn 0.2415 -0.9682 0.0647
vt 0.450430 0.661312
vt 0.449909 0.680775
vt 0.449913 0.661312
vt 0.446566 0.701942
vt 0.447582 0.722884
vt 0.446566 0.722884
vt 0.446566 0.661312
vt 0.448621 0.675891
vt 0.448621 0.661312
vt 0.443006 0.661312
vt 0.444511 0.675891
vt 0.444511 0.661312
vt 0.450676 0.661312
vt 0.450125 0.675891
vt 0.450125 0.661312
vt 0.442455 0.661312
vt 0.443006 0.675891
vt 0.450676 0.675891
vt 0.446566 0.675891
vt 0.442455 0.675891
vt 0.448326 0.722884
vt 0.444806 0.722884
vt 0.443309 0.701942
vt 0.444533 0.722884
vt 0.449386 0.701942
vt 0.445549 0.722884
vt 0.448194 0.701942
vt 0.444937 0.701942
vt 0.443745 0.701942
vt 0.449823 0.701942
vt 0.448598 0.722884
vt 0.446761 0.771362
vt 0.446370 0.771362
vt 0.446761 0.764219
vt 0.446370 0.722884
vt 0.446370 0.764219
vt 0.446761 0.722884
vt 0.444633 0.661312
vt 0.448498 0.661312
vt 0.443219 0.661312
vt 0.442701 0.661312
vt 0.444635 0.680775
vt 0.445146 0.719437
vt 0.443222 0.680775
vt 0.442705 0.680775
vt 0.446566 0.680775
vt 0.450426 0.680775
vt 0.448496 0.680775
vt 0.447986 0.719437
vt 0.446566 0.719437
vt 0.445746 0.719437
vt 0.448205 0.719437
vt 0.447386 0.719437
vt 0.444926 0.719437
s 0
usemtl Texture_Map
f 281/127/63 293/128/63 280/129/63
f 242/130/64 236/131/64 235/132/64
f 205/133/65 228/134/65 216/135/65
f 207/136/66 217/137/66 206/138/66
f 214/139/67 225/140/67 213/141/67
f 211/133/68 222/137/68 210/138/68
f 208/142/69 219/143/69 207/136/69
f 215/141/70 226/144/70 214/139/70
f 212/135/71 223/145/71 211/133/71
f 209/136/72 220/146/72 208/142/72
f 216/135/73 227/140/73 215/141/73
f 206/138/74 218/145/74 205/133/74
f 213/141/75 224/134/75 212/135/75
f 210/138/76 221/143/76 209/136/76
f 239/147/77 230/132/77 233/148/77
f 244/149/78 233/148/78 232/150/78
f 246/151/79 240/131/79 239/147/79
f 248/130/80 229/152/80 230/132/80
f 241/153/81 237/147/81 236/131/81
f 250/154/82 233/148/82 243/155/82
f 248/130/83 240/131/83 245/153/83
f 251/155/84 229/152/84 247/154/84
f 252/156/85 237/147/85 249/151/85
f 242/130/86 234/152/86 250/154/86
f 244/149/87 231/148/87 251/155/87
f 252/156/88 239/147/88 238/157/88
f 226/144/89 246/151/89 252/156/89
f 220/146/90 251/155/90 219/143/90
f 223/145/91 250/154/91 222/137/91
f 226/144/92 249/151/92 225/140/92
f 219/143/93 247/154/93 217/137/93
f 218/145/94 245/153/94 228/134/94
f 222/137/95 243/155/95 221/143/95
f 224/134/96 249/151/96 241/153/96
f 218/145/97 247/154/97 248/130/97
f 228/134/98 246/151/98 227/140/98
f 220/146/99 243/155/99 244/149/99
f 223/145/100 241/153/100 242/130/100
f 260/158/77 255/159/77 257/159/77
f 254/158/77 258/159/77 253/159/77
f 259/158/77 257/159/77 258/159/77
f 265/160/101 274/161/101 266/162/101
f 267/162/102 272/163/102 264/160/102
f 267/162/103 268/160/103 261/162/103
f 263/160/104 259/158/104 254/158/104
f 266/162/105 257/159/105 255/159/105
f 264/160/104 256/158/104 260/158/104
f 261/162/105 253/159/105 258/159/105
f 268/160/104 260/158/104 259/158/104
f 267/162/105 258/159/105 257/159/105
f 265/160/101 255/159/101 256/158/101
f 262/162/102 254/158/102 253/159/102
f 262/162/102 271/163/102 263/160/102
f 268/160/101 269/161/101 261/162/101
f 263/160/104 276/163/104 268/160/104
f 266/162/105 275/161/105 267/162/105
f 264/160/104 273/163/104 265/160/104
f 261/162/105 270/161/105 262/162/105
f 206/138/103 278/133/103 277/164/103
f 205/133/103 279/165/103 278/133/103
f 216/135/103 280/129/103 279/165/103
f 214/139/103 280/129/103 215/141/103
f 214/139/103 282/129/103 281/127/103
f 212/135/103 282/129/103 213/141/103
f 211/133/103 283/165/103 212/135/103
f 210/138/103 284/133/103 211/133/103
f 209/136/103 285/164/103 210/138/103
f 208/142/103 286/166/103 209/136/103
f 208/142/103 288/166/103 287/167/103
f 207/136/103 277/164/103 288/166/103
f 289/168/106 303/169/106 291/170/106
f 288/166/107 300/171/107 287/167/107
f 277/164/108 291/170/108 288/166/108
f 284/133/109 298/168/109 297/172/109
f 282/129/110 294/173/110 281/127/110
f 279/165/111 290/172/111 278/133/111
f 286/166/112 298/168/112 285/164/112
f 282/129/113 296/174/113 295/128/113
f 280/129/114 292/174/114 279/165/114
f 287/167/115 299/170/115 286/166/115
f 278/133/116 289/168/116 277/164/116
f 283/165/117 297/172/117 296/174/117
f 307/175/103 309/176/103 303/169/103
f 297/172/118 310/177/118 309/176/118
f 294/173/119 307/175/119 306/178/119
f 290/172/120 304/179/120 302/176/120
f 299/170/121 310/177/121 298/168/121
f 296/174/122 307/175/122 295/128/122
f 292/174/123 305/175/123 304/179/123
f 300/171/124 311/169/124 299/170/124
f 290/172/125 301/177/125 289/168/125
f 297/172/126 308/179/126 296/174/126
f 294/173/127 305/175/127 293/128/127
f 300/171/128 303/169/128 312/180/128
f 281/127/63 294/173/63 293/128/63
f 242/130/64 241/153/64 236/131/64
f 205/133/65 218/145/65 228/134/65
f 207/136/66 219/143/66 217/137/66
f 214/139/67 226/144/67 225/140/67
f 211/133/68 223/145/68 222/137/68
f 208/142/69 220/146/69 219/143/69
f 215/141/70 227/140/70 226/144/70
f 212/135/71 224/134/71 223/145/71
f 209/136/72 221/143/72 220/146/72
f 216/135/73 228/134/73 227/140/73
f 206/138/74 217/137/74 218/145/74
f 213/141/75 225/140/75 224/134/75
f 210/138/76 222/137/76 221/143/76
f 230/132/77 229/152/77 231/148/77
f 231/148/77 232/150/77 230/132/77
f 232/150/77 233/148/77 230/132/77
f 233/148/77 234/152/77 235/132/77
f 235/132/77 236/131/77 237/147/77
f 237/147/77 238/157/77 239/147/77
f 239/147/77 240/131/77 230/132/77
f 233/148/77 235/132/77 237/147/77
f 237/147/77 239/147/77 233/148/77
f 244/149/78 243/155/78 233/148/78
f 246/151/79 245/153/79 240/131/79
f 248/130/80 247/154/80 229/152/80
f 241/153/81 249/151/81 237/147/81
f 250/154/82 234/152/82 233/148/82
f 248/130/83 230/132/83 240/131/83
f 251/155/84 231/148/84 229/152/84
f 252/156/85 238/157/85 237/147/85
f 242/130/86 235/132/86 234/152/86
f 244/149/87 232/150/87 231/148/87
f 252/156/88 246/151/88 239/147/88
f 226/144/89 227/140/89 246/151/89
f 220/146/90 244/149/90 251/155/90
f 223/145/91 242/130/91 250/154/91
f 226/144/92 252/156/92 249/151/92
f 219/143/93 251/155/93 247/154/93
f 218/145/94 248/130/94 245/153/94
f 222/137/95 250/154/95 243/155/95
f 224/134/96 225/140/96 249/151/96
f 218/145/97 217/137/97 247/154/97
f 228/134/98 245/153/98 246/151/98
f 220/146/99 221/143/99 243/155/99
f 223/145/100 224/134/100 241/153/100
f 260/158/77 256/158/77 255/159/77
f 254/158/77 259/158/77 258/159/77
f 259/158/77 260/158/77 257/159/77
f 265/160/101 273/163/101 274/161/101
f 267/162/102 275/161/102 272/163/102
f 267/162/103 264/160/103 268/160/103
f 263/160/104 268/160/104 259/158/104
f 266/162/105 267/162/105 257/159/105
f 264/160/104 265/160/104 256/158/104
f 261/162/105 262/162/105 253/159/105
f 268/160/104 264/160/104 260/158/104
f 267/162/105 261/162/105 258/159/105
f 265/160/101 266/162/101 255/159/101
f 262/162/102 263/160/102 254/158/102
f 262/162/102 270/161/102 271/163/102
f 268/160/101 276/163/101 269/161/101
f 263/160/104 271/163/104 276/163/104
f 266/162/105 274/161/105 275/161/105
f 264/160/104 272/163/104 273/163/104
f 261/162/105 269/161/105 270/161/105
f 206/138/103 205/133/103 278/133/103
f 205/133/103 216/135/103 279/165/103
f 216/135/103 215/141/103 280/129/103
f 214/139/103 281/127/103 280/129/103
f 214/139/103 213/141/103 282/129/103
f 212/135/103 283/165/103 282/129/103
f 211/133/103 284/133/103 283/165/103
f 210/138/103 285/164/103 284/133/103
f 209/136/103 286/166/103 285/164/103
f 208/142/103 287/167/103 286/166/103
f 208/142/103 207/136/103 288/166/103
f 207/136/103 206/138/103 277/164/103
f 289/168/106 301/177/106 303/169/106
f 288/166/107 291/170/107 300/171/107
f 277/164/108 289/168/108 291/170/108
f 284/133/109 285/164/109 298/168/109
f 282/129/110 295/128/110 294/173/110
f 279/165/111 292/174/111 290/172/111
f 286/166/112 299/170/112 298/168/112
f 282/129/113 283/165/113 296/174/113
f 280/129/114 293/128/114 292/174/114
f 287/167/115 300/171/115 299/170/115
f 278/133/116 290/172/116 289/168/116
f 283/165/117 284/133/117 297/172/117
f 303/169/103 301/177/103 302/176/103
f 302/176/103 304/179/103 305/175/103
f 305/175/103 306/178/103 307/175/103
f 307/175/103 308/179/103 309/176/103
f 309/176/103 310/177/103 311/169/103
f 311/169/103 312/180/103 309/176/103
f 312/180/103 303/169/103 309/176/103
f 303/169/103 302/176/103 305/175/103
f 305/175/103 307/175/103 303/169/103
f 297/172/118 298/168/118 310/177/118
f 294/173/119 295/128/119 307/175/119
f 290/172/120 292/174/120 304/179/120
f 299/170/121 311/169/121 310/177/121
f 296/174/122 308/179/122 307/175/122
f 292/174/123 293/128/123 305/175/123
f 300/171/124 312/180/124 311/169/124
f 290/172/125 302/176/125 301/177/125
f 297/172/126 309/176/126 308/179/126
f 294/173/127 306/178/127 305/175/127
f 300/171/128 291/170/128 303/169/128
