# Blender 4.4.0
# www.blender.org
mtllib Prop_Nightstand_02.mtl
o Prop_Nightstand_Top_02
v -0.217225 0.529585 -0.214437
v -0.217225 0.529585 0.206365
v 0.217299 0.529585 -0.214437
v -0.235280 0.520477 -0.231922
v -0.235280 0.520477 0.223850
v 0.235354 0.520477 -0.231922
v 0.235354 0.520477 0.223850
v 0.217299 0.529585 0.206365
v -0.235280 0.726488 -0.231922
v -0.235280 0.726488 0.223850
v 0.235354 0.726488 -0.231922
v 0.235354 0.726488 0.223850
v 0.217299 0.726488 0.206365
v 0.217299 0.726488 -0.214437
v -0.217225 0.726488 0.206365
v -0.217225 0.726488 -0.214437
v 0.246316 0.515651 0.223850
v -0.246242 0.515651 0.223850
v 0.246316 0.731314 0.223850
v 0.246316 0.515651 0.233874
v -0.246242 0.515651 0.233874
v 0.246316 0.731314 0.233874
v -0.246242 0.731314 0.233874
v -0.246242 0.731314 0.223850
v -0.073557 0.615381 0.233874
v -0.073557 0.631584 0.233874
v -0.059679 0.615381 0.233874
v -0.073557 0.615381 0.236656
v -0.073557 0.631584 0.236656
v -0.059679 0.615381 0.236656
v -0.059679 0.631584 0.236656
v -0.043097 0.615381 0.247804
v -0.043097 0.631584 0.247804
v -0.023307 0.615381 0.256694
v -0.043097 0.615381 0.245023
v -0.043097 0.631584 0.245023
v -0.023307 0.615381 0.253913
v -0.023307 0.631584 0.253913
v 0.000037 0.615381 0.257035
v 0.000037 0.631584 0.257035
v 0.023380 0.615381 0.253913
v 0.000037 0.615381 0.259816
v 0.000037 0.631584 0.259816
v 0.023380 0.615381 0.256694
v 0.023380 0.631584 0.256694
v 0.043170 0.615381 0.247804
v 0.043170 0.631584 0.247804
v 0.059752 0.615381 0.236656
v 0.043170 0.615381 0.245023
v 0.043170 0.631584 0.245023
v 0.059752 0.615381 0.233874
v 0.059752 0.631584 0.233874
v 0.073631 0.615381 0.233874
v 0.073631 0.631584 0.233874
v 0.073631 0.615381 0.236656
v 0.073631 0.631584 0.236656
v 0.059752 0.631584 0.236656
v 0.023380 0.631584 0.253913
v -0.023307 0.631584 0.256694
v -0.059679 0.631584 0.233874
vn -1.0000 -0.0000 -0.0000
vn -0.0000 -0.0000 1.0000
vn -0.0000 -0.0000 -1.0000
vn -0.0000 -1.0000 -0.0000
vn 1.0000 -0.0000 -0.0000
vn -0.0000 1.0000 -0.0000
vn -0.5579 -0.0000 0.8299
vn -0.4098 -0.0000 0.9122
vn 0.4098 -0.0000 -0.9122
vn 0.5579 -0.0000 -0.8299
vn 0.1326 -0.0000 -0.9912
vn -0.1326 -0.0000 -0.9912
vn -0.1326 -0.0000 0.9912
vn 0.1326 -0.0000 0.9912
vn 0.4098 -0.0000 0.9122
vn 0.5579 -0.0000 0.8299
vn -0.4098 -0.0000 -0.9122
vn -0.5579 -0.0000 -0.8299
vt 0.586538 0.923732
vt 0.586538 0.977492
vt 0.586585 0.977492
vt 0.587704 0.926109
vt 0.587704 0.977492
vt 0.587751 0.977492
vt 0.587751 0.923732
vt 0.586585 0.926109
vt 0.586585 0.926109
vt 0.587704 0.926109
vt 0.587779 0.922473
vt 0.586510 0.922473
vt 0.586510 0.978752
vt 0.587779 0.978752
vt 0.603554 0.739614
vt 0.603554 0.672731
vt 0.603422 0.739614
vt 0.603266 0.672731
vt 0.603266 0.739614
vt 0.603078 0.672731
vt 0.603078 0.739614
vt 0.602857 0.672731
vt 0.602857 0.739614
vt 0.602637 0.672731
vt 0.602637 0.739614
vt 0.602449 0.672731
vt 0.602449 0.739614
vt 0.602293 0.672731
vt 0.602293 0.739614
vt 0.602161 0.739614
vt 0.602161 0.672731
vt 0.603422 0.672731
s 0
usemtl Texture_Map
f 5/1/1 9/2/1 4/1/1
f 16/3/2 3/4/2 14/5/2
f 4/1/3 11/6/3 6/7/3
f 4/1/4 7/7/4 5/1/4
f 6/7/5 12/6/5 7/7/5
f 2/8/6 3/4/6 1/9/6
f 13/5/3 2/8/3 15/3/3
f 15/3/5 1/9/5 16/3/5
f 14/5/1 8/10/1 13/5/1
f 12/6/6 15/3/6 10/2/6
f 10/2/6 16/3/6 9/2/6
f 11/6/6 13/5/6 12/6/6
f 9/2/6 14/5/6 11/6/6
f 17/11/4 21/12/4 18/12/4
f 17/11/3 24/13/3 19/14/3
f 19/14/5 20/11/5 17/11/5
f 20/11/2 23/13/2 21/12/2
f 24/13/6 22/14/6 19/14/6
f 18/12/1 23/13/1 24/13/1
f 25/15/1 29/16/1 26/16/1
f 27/17/4 28/15/4 25/15/4
f 30/17/2 29/16/2 28/15/2
f 33/18/7 30/17/7 32/19/7
f 35/19/4 30/17/4 27/17/4
f 32/19/8 59/20/8 33/18/8
f 37/21/4 32/19/4 35/19/4
f 38/20/9 35/19/9 36/18/9
f 27/17/10 36/18/10 35/19/10
f 40/22/11 37/21/11 38/20/11
f 39/23/4 34/21/4 37/21/4
f 58/24/12 39/23/12 40/22/12
f 39/23/4 44/25/4 42/23/4
f 34/21/13 43/22/13 59/20/13
f 42/23/14 45/24/14 43/22/14
f 44/25/15 47/26/15 45/24/15
f 41/25/4 46/27/4 44/25/4
f 57/28/16 46/27/16 48/29/16
f 49/27/4 48/29/4 46/27/4
f 50/26/17 41/25/17 58/24/17
f 49/27/18 52/28/18 51/29/18
f 53/30/4 48/29/4 51/29/4
f 54/31/5 55/30/5 53/30/5
f 55/30/2 57/28/2 48/29/2
f 52/28/6 56/31/6 54/31/6
f 50/26/6 57/28/6 52/28/6
f 58/24/6 47/26/6 50/26/6
f 40/22/6 45/24/6 58/24/6
f 40/22/6 59/20/6 43/22/6
f 38/20/6 33/18/6 59/20/6
f 36/18/6 31/32/6 33/18/6
f 26/16/6 31/32/6 60/32/6
f 5/1/1 10/2/1 9/2/1
f 16/3/2 1/9/2 3/4/2
f 4/1/3 9/2/3 11/6/3
f 4/1/4 6/7/4 7/7/4
f 6/7/5 11/6/5 12/6/5
f 2/8/6 8/10/6 3/4/6
f 13/5/3 8/10/3 2/8/3
f 15/3/5 2/8/5 1/9/5
f 14/5/1 3/4/1 8/10/1
f 12/6/6 13/5/6 15/3/6
f 10/2/6 15/3/6 16/3/6
f 11/6/6 14/5/6 13/5/6
f 9/2/6 16/3/6 14/5/6
f 17/11/4 20/11/4 21/12/4
f 17/11/3 18/12/3 24/13/3
f 19/14/5 22/14/5 20/11/5
f 20/11/2 22/14/2 23/13/2
f 24/13/6 23/13/6 22/14/6
f 18/12/1 21/12/1 23/13/1
f 25/15/1 28/15/1 29/16/1
f 27/17/4 30/17/4 28/15/4
f 30/17/2 31/32/2 29/16/2
f 33/18/7 31/32/7 30/17/7
f 35/19/4 32/19/4 30/17/4
f 32/19/8 34/21/8 59/20/8
f 37/21/4 34/21/4 32/19/4
f 38/20/9 37/21/9 35/19/9
f 27/17/10 60/32/10 36/18/10
f 40/22/11 39/23/11 37/21/11
f 39/23/4 42/23/4 34/21/4
f 58/24/12 41/25/12 39/23/12
f 39/23/4 41/25/4 44/25/4
f 34/21/13 42/23/13 43/22/13
f 42/23/14 44/25/14 45/24/14
f 44/25/15 46/27/15 47/26/15
f 41/25/4 49/27/4 46/27/4
f 57/28/16 47/26/16 46/27/16
f 49/27/4 51/29/4 48/29/4
f 50/26/17 49/27/17 41/25/17
f 49/27/18 50/26/18 52/28/18
f 53/30/4 55/30/4 48/29/4
f 54/31/5 56/31/5 55/30/5
f 55/30/2 56/31/2 57/28/2
f 52/28/6 57/28/6 56/31/6
f 50/26/6 47/26/6 57/28/6
f 58/24/6 45/24/6 47/26/6
f 40/22/6 43/22/6 45/24/6
f 40/22/6 38/20/6 59/20/6
f 38/20/6 36/18/6 33/18/6
f 36/18/6 60/32/6 31/32/6
f 26/16/6 29/16/6 31/32/6
o Prop_Nightstand_02
v -0.246316 0.037643 -0.239436
v 0.246316 0.037643 -0.239436
v -0.246316 0.731314 -0.239437
v 0.246316 0.731314 -0.239437
v 0.246316 0.037643 -0.231922
v -0.246316 0.037643 -0.231922
v 0.246316 0.731314 -0.231922
v -0.246316 0.731314 -0.231922
v 0.246316 0.731314 0.235746
v 0.299660 0.731314 0.235746
v 0.246316 0.731314 0.182402
v 0.299660 0.731314 0.182402
v 0.246316 0.000000 0.235746
v 0.299660 0.000000 0.235746
v 0.246316 0.000000 0.182402
v 0.299660 0.000000 0.182402
v -0.246316 0.731314 0.235746
v -0.299660 0.731314 0.235746
v -0.246316 0.731314 0.182402
v -0.299660 0.731314 0.182402
v -0.246316 0.000000 0.235746
v -0.299660 0.000000 0.235746
v -0.246316 0.000000 0.182402
v -0.299660 0.000000 0.182402
v 0.246316 0.731314 -0.235746
v 0.299660 0.731314 -0.235746
v 0.246316 0.731314 -0.182402
v 0.299660 0.731314 -0.182402
v 0.246316 0.000000 -0.235746
v 0.299660 0.000000 -0.235746
v 0.246316 0.000000 -0.182402
v 0.299660 0.000000 -0.182402
v -0.246316 0.731314 -0.235746
v -0.299660 0.731314 -0.235746
v -0.246316 0.731314 -0.182402
v -0.299660 0.731314 -0.182402
v -0.246316 0.000000 -0.235746
v -0.299660 0.000000 -0.235746
v -0.246316 0.000000 -0.182402
v -0.299660 0.000000 -0.182402
v 0.286074 0.039641 0.182402
v 0.286074 0.039641 -0.182402
v 0.286074 0.731314 0.182402
v 0.286074 0.731314 -0.182402
v 0.248567 0.039641 0.182402
v 0.248567 0.039641 -0.182402
v 0.248567 0.731314 0.182402
v 0.248567 0.731314 -0.182402
v -0.286074 0.039641 0.182402
v -0.286074 0.039641 -0.182402
v -0.286074 0.731314 0.182402
v -0.286074 0.731314 -0.182402
v -0.248567 0.039641 0.182402
v -0.248567 0.039641 -0.182402
v -0.248567 0.731314 0.182402
v -0.248567 0.731314 -0.182402
v -0.304800 0.749300 0.241300
v 0.304800 0.749300 0.241300
v -0.304800 0.749300 -0.241300
v 0.304800 0.749300 -0.241300
v -0.304800 0.731314 -0.241300
v -0.304800 0.731314 0.241300
v 0.304800 0.731314 0.241300
v 0.304800 0.731314 -0.241300
v -0.246316 0.039641 0.235746
v 0.246316 0.039641 0.235746
v -0.246316 0.039641 -0.231922
v 0.246316 0.039641 -0.231922
v -0.246316 0.076656 -0.231922
v -0.246316 0.076656 0.235746
v 0.246316 0.076656 0.235746
v 0.246316 0.076656 -0.231922
vn -0.0000 -0.0000 -1.0000
vn -0.0000 -0.0000 1.0000
vn 1.0000 -0.0000 -0.0000
vn -0.0000 -1.0000 -0.0000
vn -1.0000 -0.0000 -0.0000
vn -0.0000 1.0000 -0.0000
vt 0.209800 0.917710
vt 0.211453 0.981974
vt 0.211453 0.917710
vt 0.209800 0.981974
vt 0.233466 0.825150
vt 0.236449 0.825150
vt 0.233466 0.932113
vt 0.236449 0.932113
vt 0.233836 0.825150
vt 0.236819 0.825150
vt 0.236819 0.932113
vt 0.233836 0.932113
vt 0.211587 0.917895
vt 0.211587 0.981974
vt 0.211461 0.981974
vt 0.211461 0.917895
vt 0.209666 0.981974
vt 0.209666 0.917895
vt 0.209792 0.917895
vt 0.209792 0.981974
vt 0.204259 0.851687
vt 0.202451 0.851687
vt 0.202451 0.826425
vt 0.204259 0.826425
vt 0.202625 0.819944
vt 0.204086 0.819944
vt 0.202625 0.819944
vt 0.204086 0.871936
vt 0.202625 0.871936
vt 0.202625 0.871936
vt 0.204086 0.871936
vt 0.204086 0.819944
s 0
usemtl Texture_Map
f 61/33/19 64/34/19 62/35/19
f 67/34/20 66/33/20 65/35/20
f 67/34/21 62/35/21 64/34/21
f 65/35/22 61/33/22 62/35/22
f 66/33/23 63/36/23 61/33/23
f 68/36/24 64/34/24 63/36/24
f 75/37/22 74/38/22 73/37/22
f 76/38/19 71/39/19 72/40/19
f 73/37/20 70/40/20 69/39/20
f 74/38/21 72/40/21 70/40/21
f 75/37/23 69/39/23 71/39/23
f 82/41/22 83/42/22 81/42/22
f 79/43/19 84/41/19 80/44/19
f 78/44/20 81/42/20 77/43/20
f 80/44/23 82/41/23 78/44/23
f 77/43/21 83/42/21 79/43/21
f 90/38/22 91/37/22 89/37/22
f 87/39/20 92/38/20 88/40/20
f 86/40/19 89/37/19 85/39/19
f 88/40/21 90/38/21 86/40/21
f 85/39/23 91/37/23 87/39/23
f 99/42/22 98/41/22 97/42/22
f 100/41/20 95/43/20 96/44/20
f 97/42/19 94/44/19 93/43/19
f 98/41/23 96/44/23 94/44/23
f 99/42/21 93/43/21 95/43/21
f 102/45/21 103/46/21 101/45/21
f 107/47/23 106/48/23 105/48/23
f 105/48/22 102/45/22 101/45/22
f 111/49/23 110/50/23 109/50/23
f 114/51/21 115/52/21 113/51/21
f 110/50/22 113/51/22 109/50/22
f 118/53/24 119/54/24 117/54/24
f 121/55/22 123/56/22 122/55/22
f 124/56/19 119/54/19 120/53/19
f 122/55/20 118/53/20 117/54/20
f 123/56/21 120/53/21 118/53/21
f 121/55/23 117/54/23 119/54/23
f 127/57/22 126/58/22 125/59/22
f 131/60/24 129/61/24 130/62/24
f 132/63/21 126/58/21 128/64/21
f 130/62/23 127/57/23 125/59/23
f 129/61/19 128/64/19 127/57/19
f 131/60/20 125/59/20 126/58/20
f 61/33/19 63/36/19 64/34/19
f 67/34/20 68/36/20 66/33/20
f 67/34/21 65/35/21 62/35/21
f 65/35/22 66/33/22 61/33/22
f 66/33/23 68/36/23 63/36/23
f 68/36/24 67/34/24 64/34/24
f 75/37/22 76/38/22 74/38/22
f 76/38/19 75/37/19 71/39/19
f 73/37/20 74/38/20 70/40/20
f 74/38/21 76/38/21 72/40/21
f 75/37/23 73/37/23 69/39/23
f 82/41/22 84/41/22 83/42/22
f 79/43/19 83/42/19 84/41/19
f 78/44/20 82/41/20 81/42/20
f 80/44/23 84/41/23 82/41/23
f 77/43/21 81/42/21 83/42/21
f 90/38/22 92/38/22 91/37/22
f 87/39/20 91/37/20 92/38/20
f 86/40/19 90/38/19 89/37/19
f 88/40/21 92/38/21 90/38/21
f 85/39/23 89/37/23 91/37/23
f 99/42/22 100/41/22 98/41/22
f 100/41/20 99/42/20 95/43/20
f 97/42/19 98/41/19 94/44/19
f 98/41/23 100/41/23 96/44/23
f 99/42/21 97/42/21 93/43/21
f 102/45/21 104/46/21 103/46/21
f 107/47/23 108/47/23 106/48/23
f 105/48/22 106/48/22 102/45/22
f 111/49/23 112/49/23 110/50/23
f 114/51/21 116/52/21 115/52/21
f 110/50/22 114/51/22 113/51/22
f 118/53/24 120/53/24 119/54/24
f 121/55/22 124/56/22 123/56/22
f 124/56/19 121/55/19 119/54/19
f 122/55/20 123/56/20 118/53/20
f 123/56/21 124/56/21 120/53/21
f 121/55/23 122/55/23 117/54/23
f 127/57/22 128/64/22 126/58/22
f 131/60/24 132/63/24 129/61/24
f 132/63/21 131/60/21 126/58/21
f 130/62/23 129/61/23 127/57/23
f 129/61/19 132/63/19 128/64/19
f 131/60/20 130/62/20 125/59/20
o Prop_Nightstand_Middle_02
v 0.246316 0.297832 0.223850
v -0.246242 0.297832 0.223850
v 0.246316 0.513495 0.223850
v 0.246316 0.297832 0.233874
v -0.246242 0.297832 0.233874
v 0.246316 0.513495 0.233874
v -0.246242 0.513495 0.233874
v -0.246242 0.513495 0.223850
v -0.217225 0.311766 -0.214437
v -0.217225 0.311766 0.206365
v 0.217299 0.311766 -0.214437
v -0.217225 0.508669 -0.214437
v -0.235280 0.508669 -0.231922
v 0.217299 0.508669 -0.214437
v -0.217225 0.508669 0.206365
v -0.235280 0.508669 0.223850
v 0.217299 0.508669 0.206365
v 0.217299 0.311766 0.206365
v 0.235354 0.508669 0.223850
v 0.235354 0.302658 0.223850
v 0.235354 0.508669 -0.231922
v 0.235354 0.302658 -0.231922
v -0.235280 0.302658 -0.231922
v -0.235280 0.302658 0.223850
v -0.073557 0.397562 0.233874
v -0.073557 0.413765 0.233874
v -0.059679 0.397562 0.233874
v -0.073557 0.397562 0.236655
v -0.073557 0.413765 0.236655
v -0.059679 0.397562 0.236655
v -0.059679 0.413765 0.236655
v -0.043097 0.397562 0.247804
v -0.043097 0.413765 0.247804
v -0.023307 0.397562 0.256694
v -0.043097 0.397562 0.245023
v -0.043097 0.413765 0.245023
v -0.023307 0.397562 0.253913
v -0.023307 0.413765 0.253913
v 0.000037 0.397562 0.257035
v 0.000037 0.413765 0.257035
v 0.023380 0.397562 0.253913
v 0.000037 0.397562 0.259816
v 0.000037 0.413765 0.259816
v 0.023380 0.397562 0.256694
v 0.023380 0.413765 0.256694
v 0.043170 0.397562 0.247804
v 0.043170 0.413765 0.247804
v 0.059752 0.397562 0.236655
v 0.043170 0.397562 0.245023
v 0.043170 0.413765 0.245023
v 0.059752 0.397562 0.233874
v 0.059752 0.413765 0.233874
v 0.073631 0.397562 0.233874
v 0.073631 0.413765 0.233874
v 0.073631 0.397562 0.236655
v 0.073631 0.413765 0.236655
v 0.059752 0.413765 0.236655
v 0.023380 0.413765 0.253913
v -0.023307 0.413765 0.256694
v -0.059679 0.413765 0.233874
vn -0.0000 -1.0000 -0.0000
vn -0.0000 -0.0000 -1.0000
vn 1.0000 -0.0000 -0.0000
vn -0.0000 -0.0000 1.0000
vn -0.0000 1.0000 -0.0000
vn -1.0000 -0.0000 -0.0000
vn -0.5579 -0.0000 0.8299
vn -0.4098 -0.0000 0.9122
vn 0.4098 -0.0000 -0.9122
vn 0.5579 -0.0000 -0.8299
vn 0.1326 -0.0000 -0.9912
vn -0.1326 -0.0000 -0.9912
vn -0.1326 -0.0000 0.9912
vn 0.1326 -0.0000 0.9912
vn 0.4098 -0.0000 0.9122
vn 0.5579 -0.0000 0.8299
vn -0.4098 -0.0000 -0.9122
vn -0.5579 -0.0000 -0.8299
vt 0.587627 0.922275
vt 0.586358 0.922274
vt 0.586358 0.978553
vt 0.587627 0.978553
vt 0.586433 0.977294
vt 0.586433 0.925911
vt 0.587552 0.925911
vt 0.587552 0.977294
vt 0.586386 0.977294
vt 0.587599 0.977294
vt 0.587599 0.923534
vt 0.586386 0.923534
vt 0.603554 0.749604
vt 0.603554 0.682723
vt 0.603422 0.749604
vt 0.603266 0.682723
vt 0.603266 0.749604
vt 0.603078 0.682723
vt 0.603078 0.749604
vt 0.602857 0.682723
vt 0.602857 0.749604
vt 0.602637 0.682723
vt 0.602637 0.749604
vt 0.602449 0.682723
vt 0.602449 0.749604
vt 0.602293 0.682723
vt 0.602293 0.749604
vt 0.602161 0.749604
vt 0.602161 0.682723
vt 0.603422 0.682723
s 0
usemtl Texture_Map
f 133/65/25 137/66/25 134/66/25
f 133/65/26 140/67/26 135/68/26
f 135/68/27 136/65/27 133/65/27
f 136/65/28 139/67/28 137/66/28
f 140/67/29 138/68/29 135/68/29
f 134/66/30 139/67/30 140/67/30
f 147/69/27 141/70/27 144/69/27
f 142/70/29 143/71/29 141/70/29
f 144/69/28 143/71/28 146/72/28
f 145/73/29 146/72/29 153/74/29
f 148/73/29 144/69/29 145/73/29
f 149/72/26 142/70/26 147/69/26
f 151/74/29 147/69/29 148/73/29
f 146/72/30 150/71/30 149/72/30
f 153/74/29 149/72/29 151/74/29
f 154/75/27 151/74/27 152/75/27
f 155/76/26 153/74/26 154/75/26
f 155/76/25 152/75/25 156/76/25
f 156/76/30 145/73/30 155/76/30
f 157/77/30 161/78/30 158/78/30
f 159/79/25 160/77/25 157/77/25
f 162/79/28 161/78/28 160/77/28
f 165/80/31 162/79/31 164/81/31
f 167/81/25 162/79/25 159/79/25
f 164/81/32 191/82/32 165/80/32
f 169/83/25 164/81/25 167/81/25
f 170/82/33 167/81/33 168/80/33
f 159/79/34 168/80/34 167/81/34
f 172/84/35 169/83/35 170/82/35
f 171/85/25 166/83/25 169/83/25
f 190/86/36 171/85/36 172/84/36
f 171/85/25 176/87/25 174/85/25
f 166/83/37 175/84/37 191/82/37
f 174/85/38 177/86/38 175/84/38
f 176/87/39 179/88/39 177/86/39
f 173/87/25 178/89/25 176/87/25
f 189/90/40 178/89/40 180/91/40
f 181/89/25 180/91/25 178/89/25
f 182/88/41 173/87/41 190/86/41
f 181/89/42 184/90/42 183/91/42
f 185/92/25 180/91/25 183/91/25
f 186/93/27 187/92/27 185/92/27
f 187/92/28 189/90/28 180/91/28
f 184/90/29 188/93/29 186/93/29
f 182/88/29 189/90/29 184/90/29
f 190/86/29 179/88/29 182/88/29
f 172/84/29 177/86/29 190/86/29
f 172/84/29 191/82/29 175/84/29
f 170/82/29 165/80/29 191/82/29
f 168/80/29 163/94/29 165/80/29
f 158/78/29 163/94/29 192/94/29
f 133/65/25 136/65/25 137/66/25
f 133/65/26 134/66/26 140/67/26
f 135/68/27 138/68/27 136/65/27
f 136/65/28 138/68/28 139/67/28
f 140/67/29 139/67/29 138/68/29
f 134/66/30 137/66/30 139/67/30
f 147/69/27 142/70/27 141/70/27
f 142/70/29 150/71/29 143/71/29
f 144/69/28 141/70/28 143/71/28
f 145/73/29 144/69/29 146/72/29
f 148/73/29 147/69/29 144/69/29
f 149/72/26 150/71/26 142/70/26
f 151/74/29 149/72/29 147/69/29
f 146/72/30 143/71/30 150/71/30
f 153/74/29 146/72/29 149/72/29
f 154/75/27 153/74/27 151/74/27
f 155/76/26 145/73/26 153/74/26
f 155/76/25 154/75/25 152/75/25
f 156/76/30 148/73/30 145/73/30
f 157/77/30 160/77/30 161/78/30
f 159/79/25 162/79/25 160/77/25
f 162/79/28 163/94/28 161/78/28
f 165/80/31 163/94/31 162/79/31
f 167/81/25 164/81/25 162/79/25
f 164/81/32 166/83/32 191/82/32
f 169/83/25 166/83/25 164/81/25
f 170/82/33 169/83/33 167/81/33
f 159/79/34 192/94/34 168/80/34
f 172/84/35 171/85/35 169/83/35
f 171/85/25 174/85/25 166/83/25
f 190/86/36 173/87/36 171/85/36
f 171/85/25 173/87/25 176/87/25
f 166/83/37 174/85/37 175/84/37
f 174/85/38 176/87/38 177/86/38
f 176/87/39 178/89/39 179/88/39
f 173/87/25 181/89/25 178/89/25
f 189/90/40 179/88/40 178/89/40
f 181/89/25 183/91/25 180/91/25
f 182/88/41 181/89/41 173/87/41
f 181/89/42 182/88/42 184/90/42
f 185/92/25 187/92/25 180/91/25
f 186/93/27 188/93/27 187/92/27
f 187/92/28 188/93/28 189/90/28
f 184/90/29 189/90/29 188/93/29
f 182/88/29 179/88/29 189/90/29
f 190/86/29 177/86/29 179/88/29
f 172/84/29 175/84/29 177/86/29
f 172/84/29 170/82/29 191/82/29
f 170/82/29 168/80/29 165/80/29
f 168/80/29 192/94/29 163/94/29
f 158/78/29 161/78/29 163/94/29
o Prop_Nightstand_Bottom_02
v -0.073557 0.179742 0.233874
v -0.073557 0.195945 0.233874
v -0.059679 0.179742 0.233874
v -0.073557 0.179742 0.236655
v -0.073557 0.195945 0.236655
v -0.059679 0.179742 0.236655
v -0.059679 0.195945 0.236655
v -0.043097 0.179742 0.247804
v -0.043097 0.195945 0.247804
v -0.023307 0.179742 0.256694
v -0.043097 0.179742 0.245023
v -0.043097 0.195945 0.245023
v -0.023307 0.179742 0.253913
v -0.023307 0.195945 0.253913
v 0.000037 0.179742 0.257035
v 0.000037 0.195945 0.257035
v 0.023380 0.179742 0.253913
v 0.000037 0.179742 0.259816
v 0.000037 0.195945 0.259816
v 0.023380 0.179742 0.256694
v 0.023380 0.195945 0.256694
v 0.043170 0.179742 0.247804
v 0.043170 0.195945 0.247804
v 0.059752 0.179742 0.236655
v 0.043170 0.179742 0.245023
v 0.043170 0.195945 0.245023
v 0.059752 0.179742 0.233874
v 0.059752 0.195945 0.233874
v 0.073631 0.179742 0.233874
v 0.073631 0.195945 0.233874
v 0.073631 0.179742 0.236655
v 0.073631 0.195945 0.236655
v 0.059752 0.195945 0.236655
v 0.023380 0.195945 0.253913
v -0.023307 0.195945 0.256694
v -0.059679 0.195945 0.233874
v -0.217225 0.093946 -0.214437
v -0.217225 0.093946 0.206365
v 0.217299 0.093946 -0.214437
v -0.217225 0.290849 -0.214437
v -0.235280 0.290849 -0.231922
v 0.217299 0.290849 -0.214437
v -0.217225 0.290849 0.206365
v -0.235280 0.290849 0.223850
v 0.217299 0.290849 0.206365
v 0.217299 0.093946 0.206365
v 0.235354 0.290849 0.223850
v 0.235354 0.084838 0.223850
v 0.235354 0.290849 -0.231922
v 0.235354 0.084838 -0.231922
v -0.235280 0.084838 -0.231922
v -0.235280 0.084838 0.223850
v 0.246316 0.080012 0.223850
v -0.246242 0.080012 0.223850
v 0.246316 0.295675 0.223850
v 0.246316 0.080012 0.233874
v -0.246242 0.080012 0.233874
v 0.246316 0.295675 0.233874
v -0.246242 0.295675 0.233874
v -0.246242 0.295675 0.223850
vn -1.0000 -0.0000 -0.0000
vn -0.0000 -1.0000 -0.0000
vn -0.0000 -0.0000 1.0000
vn -0.5579 -0.0000 0.8299
vn -0.4098 -0.0000 0.9122
vn 0.4098 -0.0000 -0.9122
vn 0.5579 -0.0000 -0.8299
vn 0.1326 -0.0000 -0.9912
vn -0.1326 -0.0000 -0.9912
vn -0.1326 -0.0000 0.9912
vn 0.1326 -0.0000 0.9912
vn 0.4098 -0.0000 0.9122
vn 0.5579 -0.0000 0.8299
vn -0.4098 -0.0000 -0.9122
vn -0.5579 -0.0000 -0.8299
vn 1.0000 -0.0000 -0.0000
vn -0.0000 1.0000 -0.0000
vn -0.0000 -0.0000 -1.0000
vt 0.603554 0.726664
vt 0.603554 0.659781
vt 0.603554 0.659782
vt 0.603422 0.726664
vt 0.603266 0.659781
vt 0.603266 0.726664
vt 0.603078 0.659781
vt 0.603078 0.726664
vt 0.602857 0.659781
vt 0.602857 0.726664
vt 0.602637 0.659781
vt 0.602637 0.726664
vt 0.602449 0.659781
vt 0.602449 0.726664
vt 0.602293 0.659781
vt 0.602293 0.726664
vt 0.602293 0.659782
vt 0.602161 0.726664
vt 0.602161 0.659782
vt 0.602161 0.659781
vt 0.603422 0.659781
vt 0.603422 0.659782
vt 0.586433 0.977095
vt 0.586433 0.925712
vt 0.587552 0.925712
vt 0.587552 0.977095
vt 0.586386 0.977095
vt 0.587599 0.977095
vt 0.587599 0.923335
vt 0.586386 0.923335
vt 0.587627 0.922076
vt 0.586358 0.922076
vt 0.586358 0.978354
vt 0.587627 0.978354
s 0
usemtl Texture_Map
f 193/95/43 197/96/43 194/97/43
f 195/98/44 196/95/44 193/95/44
f 198/98/45 197/96/45 196/95/45
f 201/99/46 198/98/46 200/100/46
f 203/100/44 198/98/44 195/98/44
f 200/100/47 227/101/47 201/99/47
f 205/102/44 200/100/44 203/100/44
f 206/101/48 203/100/48 204/99/48
f 195/98/49 204/99/49 203/100/49
f 208/103/50 205/102/50 206/101/50
f 207/104/44 202/102/44 205/102/44
f 226/105/51 207/104/51 208/103/51
f 207/104/44 212/106/44 210/104/44
f 202/102/52 211/103/52 227/101/52
f 210/104/53 213/105/53 211/103/53
f 212/106/54 215/107/54 213/105/54
f 209/106/44 214/108/44 212/106/44
f 225/109/55 214/108/55 216/110/55
f 217/108/44 216/110/44 214/108/44
f 218/107/56 209/106/56 226/105/56
f 217/108/57 220/111/57 219/110/57
f 221/112/44 216/110/44 219/110/44
f 222/113/58 223/112/58 221/112/58
f 223/112/45 225/109/45 216/110/45
f 220/111/59 224/114/59 222/113/59
f 218/107/59 225/109/59 220/111/59
f 226/105/59 215/107/59 218/107/59
f 208/103/59 213/105/59 226/105/59
f 208/103/59 227/101/59 211/103/59
f 206/101/59 201/99/59 227/101/59
f 204/99/59 199/115/59 201/99/59
f 194/97/59 199/115/59 228/116/59
f 235/117/58 229/118/58 232/117/58
f 230/118/59 231/119/59 229/118/59
f 232/117/45 231/119/45 234/120/45
f 233/121/59 234/120/59 241/122/59
f 236/121/59 232/117/59 233/121/59
f 237/120/60 230/118/60 235/117/60
f 239/122/59 235/117/59 236/121/59
f 234/120/43 238/119/43 237/120/43
f 241/122/59 237/120/59 239/122/59
f 242/123/58 239/122/58 240/123/58
f 243/124/60 241/122/60 242/123/60
f 243/124/44 240/123/44 244/124/44
f 244/124/43 233/121/43 243/124/43
f 245/125/44 249/126/44 246/126/44
f 245/125/60 252/127/60 247/128/60
f 247/128/58 248/125/58 245/125/58
f 248/125/45 251/127/45 249/126/45
f 252/127/59 250/128/59 247/128/59
f 246/126/43 251/127/43 252/127/43
f 193/95/43 196/95/43 197/96/43
f 195/98/44 198/98/44 196/95/44
f 198/98/45 199/115/45 197/96/45
f 201/99/46 199/115/46 198/98/46
f 203/100/44 200/100/44 198/98/44
f 200/100/47 202/102/47 227/101/47
f 205/102/44 202/102/44 200/100/44
f 206/101/48 205/102/48 203/100/48
f 195/98/49 228/116/49 204/99/49
f 208/103/50 207/104/50 205/102/50
f 207/104/44 210/104/44 202/102/44
f 226/105/51 209/106/51 207/104/51
f 207/104/44 209/106/44 212/106/44
f 202/102/52 210/104/52 211/103/52
f 210/104/53 212/106/53 213/105/53
f 212/106/54 214/108/54 215/107/54
f 209/106/44 217/108/44 214/108/44
f 225/109/55 215/107/55 214/108/55
f 217/108/44 219/110/44 216/110/44
f 218/107/56 217/108/56 209/106/56
f 217/108/57 218/107/57 220/111/57
f 221/112/44 223/112/44 216/110/44
f 222/113/58 224/114/58 223/112/58
f 223/112/45 224/114/45 225/109/45
f 220/111/59 225/109/59 224/114/59
f 218/107/59 215/107/59 225/109/59
f 226/105/59 213/105/59 215/107/59
f 208/103/59 211/103/59 213/105/59
f 208/103/59 206/101/59 227/101/59
f 206/101/59 204/99/59 201/99/59
f 204/99/59 228/116/59 199/115/59
f 194/97/59 197/96/59 199/115/59
f 235/117/58 230/118/58 229/118/58
f 230/118/59 238/119/59 231/119/59
f 232/117/45 229/118/45 231/119/45
f 233/121/59 232/117/59 234/120/59
f 236/121/59 235/117/59 232/117/59
f 237/120/60 238/119/60 230/118/60
f 239/122/59 237/120/59 235/117/59
f 234/120/43 231/119/43 238/119/43
f 241/122/59 234/120/59 237/120/59
f 242/123/58 241/122/58 239/122/58
f 243/124/60 233/121/60 241/122/60
f 243/124/44 242/123/44 240/123/44
f 244/124/43 236/121/43 233/121/43
f 245/125/44 248/125/44 249/126/44
f 245/125/60 246/126/60 252/127/60
f 247/128/58 250/128/58 248/125/58
f 248/125/45 250/128/45 251/127/45
f 252/127/59 251/127/59 250/128/59
f 246/126/43 249/126/43 251/127/43
