# Blender 4.4.0
# www.blender.org
mtllib Prop_Trough_01.mtl
o Prop_Trough_01
v -1.385566 0.375528 0.290000
v -1.286512 0.375528 0.290000
v -1.385566 0.375528 0.190946
v -1.286512 0.375528 0.190946
v -1.385566 0.000000 0.330018
v -1.385566 0.000000 0.429073
v -1.286512 0.000000 0.429073
v -1.286512 0.000000 0.330018
v 1.385566 0.375528 0.290000
v 1.286512 0.375528 0.290000
v 1.385566 0.375528 0.190946
v 1.286512 0.375528 0.190946
v 1.385566 0.000000 0.330018
v 1.385566 0.000000 0.429073
v 1.286512 0.000000 0.429073
v 1.286512 0.000000 0.330018
v -1.385566 0.375528 -0.290000
v -1.286512 0.375528 -0.290000
v -1.385566 0.375528 -0.190946
v -1.286512 0.375528 -0.190946
v -1.385566 0.000000 -0.330018
v -1.385566 0.000000 -0.429073
v -1.286512 0.000000 -0.429073
v -1.286512 0.000000 -0.330018
v 1.385566 0.375528 -0.290000
v 1.286512 0.375528 -0.290000
v 1.385566 0.375528 -0.190946
v 1.286512 0.375528 -0.190946
v 1.385566 0.000000 -0.330018
v 1.385566 0.000000 -0.429073
v 1.286512 0.000000 -0.429073
v 1.286512 0.000000 -0.330018
v -1.553074 0.361489 0.290000
v 1.553074 0.361489 0.290000
v -1.553074 0.361489 -0.290000
v 1.553074 0.361489 -0.290000
v -1.553074 0.404409 -0.290000
v -1.553074 0.404409 0.290000
v 1.553074 0.404409 0.290000
v 1.553074 0.404409 -0.290000
v -1.460274 0.404409 -0.238548
v -1.460274 0.404409 0.238362
v -1.460274 0.746618 -0.376528
v -1.460274 0.746618 0.374350
v -1.395274 0.404409 -0.238548
v -1.395274 0.404409 0.238362
v -1.395274 0.746618 -0.376528
v -1.395274 0.746618 0.374350
v 1.460274 0.404409 -0.238548
v 1.460274 0.404409 0.238362
v 1.460274 0.746618 -0.376528
v 1.460274 0.746618 0.374350
v 1.395274 0.404409 -0.238548
v 1.395274 0.404409 0.238362
v 1.395274 0.746618 -0.376528
v 1.395274 0.746618 0.374350
v -1.533828 0.404409 0.267519
v 1.533828 0.404409 0.267519
v -1.533828 0.746618 0.412116
v 1.533828 0.746618 0.412116
v -1.533828 0.404409 0.229752
v 1.533828 0.404409 0.229752
v -1.533828 0.762576 0.374350
v 1.533828 0.762576 0.374350
v -1.533828 0.404409 -0.267519
v 1.533828 0.404409 -0.267519
v -1.533828 0.746618 -0.412116
v 1.533828 0.746618 -0.412116
v -1.533828 0.404409 -0.229752
v 1.533828 0.404409 -0.229752
v -1.533828 0.762576 -0.374350
v 1.533828 0.762576 -0.374350
v -0.645761 0.404409 -0.235699
v -0.645761 0.404409 0.248473
v -0.645761 0.746618 -0.372158
v -0.645761 0.746618 0.370567
v -0.580761 0.404409 -0.235699
v -0.580761 0.404409 0.248473
v -0.580761 0.746618 -0.372158
v -0.580761 0.746618 0.370567
v -1.385566 0.361489 0.279504
v -1.385566 0.220342 0.327454
v -1.385566 0.361489 -0.279504
v -1.385566 0.220342 -0.327454
v -1.412412 0.361489 -0.279504
v -1.412412 0.361489 0.279504
v -1.412412 0.220342 0.327454
v -1.412412 0.220342 -0.327454
v 1.385566 0.361489 0.279504
v 1.385566 0.220342 0.327454
v 1.385566 0.361489 -0.279504
v 1.385566 0.220342 -0.327454
v 1.412412 0.361489 -0.279504
v 1.412412 0.361489 0.279504
v 1.412412 0.220342 0.327454
v 1.412412 0.220342 -0.327454
v -0.055078 0.361489 0.271968
v 0.055078 0.361489 0.271968
v -0.055078 0.361489 -0.271968
v 0.055078 0.361489 -0.271968
v -0.055078 0.328933 -0.271968
v -0.055078 0.328933 0.271968
v 0.055078 0.328933 0.271968
v 0.055078 0.328933 -0.271968
v 0.968217 0.361489 0.271968
v 1.078373 0.361489 0.271968
v 0.968217 0.361489 -0.271968
v 1.078373 0.361489 -0.271968
v 0.968217 0.328933 -0.271968
v 0.968217 0.328933 0.271968
v 1.078373 0.328933 0.271968
v 1.078373 0.328933 -0.271968
v -1.078483 0.361489 0.271968
v -0.968327 0.361489 0.271968
v -1.078483 0.361489 -0.271968
v -0.968327 0.361489 -0.271968
v -1.078483 0.328933 -0.271968
v -1.078483 0.328933 0.271968
v -0.968327 0.328933 0.271968
v -0.968327 0.328933 -0.271968
vn -0.0000 1.0000 -0.0000
vn -0.0000 -1.0000 -0.0000
vn 1.0000 -0.0000 -0.0000
vn -1.0000 -0.0000 -0.0000
vn -0.0000 -0.3473 -0.9378
vn -0.0000 0.3473 0.9378
vn -0.0000 -0.3473 0.9378
vn -0.0000 0.3473 -0.9378
vn -0.0000 -0.0000 -1.0000
vn -0.0000 -0.0000 1.0000
vn -0.0000 -0.3892 0.9211
vn -0.0000 0.3744 -0.9273
vn -0.0000 0.9211 0.3892
vn -0.0000 -0.3892 -0.9211
vn -0.0000 0.3744 0.9273
vn -0.0000 0.9211 -0.3892
vn -0.0000 0.3217 0.9469
vn -0.0000 0.3217 -0.9469
vt 0.220023 0.892509
vt 0.220154 0.892509
vt 0.220154 0.829679
vt 0.220023 0.829679
vt 0.216499 0.892509
vt 0.216630 0.892509
vt 0.216630 0.829679
vt 0.216499 0.829679
vt 0.220375 0.890160
vt 0.216278 0.890160
vt 0.216278 0.897341
vt 0.220375 0.897341
vt 0.239772 0.842128
vt 0.239772 0.893614
vt 0.239772 0.893613
vt 0.239695 0.842128
vt 0.239695 0.893614
vt 0.239695 0.893613
vt 0.236308 0.842128
vt 0.236308 0.893614
vt 0.236385 0.842128
vt 0.236385 0.893614
vt 0.236385 0.893613
vt 0.236308 0.893613
vt 0.216304 0.897341
vt 0.220349 0.954596
vt 0.220349 0.897341
vt 0.220349 0.957266
vt 0.216304 0.954596
vt 0.216304 0.957266
vt 0.220349 0.954596
vt 0.216304 0.954596
vt 0.238806 0.842128
vt 0.238806 0.893614
vt 0.238806 0.893613
vt 0.238729 0.842128
vt 0.238729 0.893614
vt 0.238729 0.893613
vt 0.239642 0.853257
vt 0.239642 0.876872
vt 0.239677 0.876872
vt 0.239677 0.853257
vt 0.235988 0.876872
vt 0.235988 0.853257
vt 0.235952 0.853257
vt 0.235952 0.876872
vt 0.218399 0.884713
vt 0.218254 0.884713
vt 0.218254 0.890160
vt 0.218399 0.890160
vt 0.217050 0.884713
vt 0.216904 0.884713
vt 0.216904 0.890160
vt 0.217050 0.890160
vt 0.219749 0.884713
vt 0.219603 0.884713
vt 0.219603 0.890160
vt 0.219749 0.890160
s 0
usemtl Texture_Map
f 2/1/1 3/2/1 1/2/1
f 5/3/2 7/4/2 6/3/2
f 2/1/3 8/4/3 4/1/3
f 5/3/4 1/2/4 3/2/4
f 8/4/5 3/2/5 4/1/5
f 6/3/6 2/1/6 1/2/6
f 11/5/1 10/6/1 9/5/1
f 15/7/2 13/8/2 14/8/2
f 10/6/4 16/7/4 15/7/4
f 9/5/3 13/8/3 11/5/3
f 11/5/5 16/7/5 12/6/5
f 10/6/6 14/8/6 9/5/6
f 19/2/1 18/1/1 17/2/1
f 23/4/2 21/3/2 22/3/2
f 18/1/3 24/4/3 23/4/3
f 17/2/4 21/3/4 19/2/4
f 19/2/7 24/4/7 20/1/7
f 18/1/8 22/3/8 17/2/8
f 26/6/1 27/5/1 25/5/1
f 29/8/2 31/7/2 30/8/2
f 26/6/4 32/7/4 28/6/4
f 29/8/3 25/5/3 27/5/3
f 32/7/7 27/5/7 28/6/7
f 30/8/8 26/6/8 25/5/8
f 35/9/2 34/10/2 33/9/2
f 39/11/1 37/12/1 38/12/1
f 36/10/3 39/11/3 34/10/3
f 33/9/4 37/12/4 35/9/4
f 35/9/9 40/11/9 36/10/9
f 34/10/10 38/12/10 33/9/10
f 41/13/4 44/14/4 43/15/4
f 45/16/3 48/17/3 46/16/3
f 44/14/1 47/18/1 43/15/1
f 49/19/3 52/20/3 50/19/3
f 53/21/4 56/22/4 55/23/4
f 55/23/1 52/20/1 51/24/1
f 58/25/11 59/26/11 57/27/11
f 63/28/12 62/25/12 61/27/12
f 60/29/13 63/28/13 59/26/13
f 58/25/3 64/30/3 60/29/3
f 57/27/4 63/28/4 61/27/4
f 67/31/14 66/25/14 65/27/14
f 70/25/15 71/28/15 69/27/15
f 71/28/16 68/32/16 67/31/16
f 72/30/3 66/25/3 68/32/3
f 65/27/4 71/28/4 67/31/4
f 73/33/4 76/34/4 75/35/4
f 77/36/3 80/37/3 78/36/3
f 76/34/1 79/38/1 75/35/1
f 82/39/3 83/40/3 81/40/3
f 85/41/4 87/42/4 86/41/4
f 81/40/17 87/42/17 82/39/17
f 87/42/2 84/39/2 82/39/2
f 88/42/18 83/40/18 84/39/18
f 91/43/4 90/44/4 89/43/4
f 95/45/3 93/46/3 94/46/3
f 90/44/17 94/46/17 89/43/17
f 92/44/2 95/45/2 90/44/2
f 91/43/18 96/45/18 92/44/18
f 101/47/2 103/48/2 102/47/2
f 102/47/10 98/49/10 97/50/10
f 103/48/3 100/49/3 98/49/3
f 101/47/4 97/50/4 99/50/4
f 104/48/9 99/50/9 100/49/9
f 109/51/2 111/52/2 110/51/2
f 110/51/10 106/53/10 105/54/10
f 111/52/3 108/53/3 106/53/3
f 109/51/4 105/54/4 107/54/4
f 112/52/9 107/54/9 108/53/9
f 117/55/2 119/56/2 118/55/2
f 118/55/10 114/57/10 113/58/10
f 119/56/3 116/57/3 114/57/3
f 117/55/4 113/58/4 115/58/4
f 120/56/9 115/58/9 116/57/9
f 2/1/1 4/1/1 3/2/1
f 5/3/2 8/4/2 7/4/2
f 2/1/3 7/4/3 8/4/3
f 5/3/4 6/3/4 1/2/4
f 8/4/5 5/3/5 3/2/5
f 6/3/6 7/4/6 2/1/6
f 11/5/1 12/6/1 10/6/1
f 15/7/2 16/7/2 13/8/2
f 10/6/4 12/6/4 16/7/4
f 9/5/3 14/8/3 13/8/3
f 11/5/5 13/8/5 16/7/5
f 10/6/6 15/7/6 14/8/6
f 19/2/1 20/1/1 18/1/1
f 23/4/2 24/4/2 21/3/2
f 18/1/3 20/1/3 24/4/3
f 17/2/4 22/3/4 21/3/4
f 19/2/7 21/3/7 24/4/7
f 18/1/8 23/4/8 22/3/8
f 26/6/1 28/6/1 27/5/1
f 29/8/2 32/7/2 31/7/2
f 26/6/4 31/7/4 32/7/4
f 29/8/3 30/8/3 25/5/3
f 32/7/7 29/8/7 27/5/7
f 30/8/8 31/7/8 26/6/8
f 35/9/2 36/10/2 34/10/2
f 39/11/1 40/11/1 37/12/1
f 36/10/3 40/11/3 39/11/3
f 33/9/4 38/12/4 37/12/4
f 35/9/9 37/12/9 40/11/9
f 34/10/10 39/11/10 38/12/10
f 41/13/4 42/13/4 44/14/4
f 45/16/3 47/18/3 48/17/3
f 44/14/1 48/17/1 47/18/1
f 49/19/3 51/24/3 52/20/3
f 53/21/4 54/21/4 56/22/4
f 55/23/1 56/22/1 52/20/1
f 58/25/11 60/29/11 59/26/11
f 63/28/12 64/30/12 62/25/12
f 60/29/13 64/30/13 63/28/13
f 58/25/3 62/25/3 64/30/3
f 57/27/4 59/26/4 63/28/4
f 67/31/14 68/32/14 66/25/14
f 70/25/15 72/30/15 71/28/15
f 71/28/16 72/30/16 68/32/16
f 72/30/3 70/25/3 66/25/3
f 65/27/4 69/27/4 71/28/4
f 73/33/4 74/33/4 76/34/4
f 77/36/3 79/38/3 80/37/3
f 76/34/1 80/37/1 79/38/1
f 82/39/3 84/39/3 83/40/3
f 85/41/4 88/42/4 87/42/4
f 81/40/17 86/41/17 87/42/17
f 87/42/2 88/42/2 84/39/2
f 88/42/18 85/41/18 83/40/18
f 91/43/4 92/44/4 90/44/4
f 95/45/3 96/45/3 93/46/3
f 90/44/17 95/45/17 94/46/17
f 92/44/2 96/45/2 95/45/2
f 91/43/18 93/46/18 96/45/18
f 101/47/2 104/48/2 103/48/2
f 102/47/10 103/48/10 98/49/10
f 103/48/3 104/48/3 100/49/3
f 101/47/4 102/47/4 97/50/4
f 104/48/9 101/47/9 99/50/9
f 109/51/2 112/52/2 111/52/2
f 110/51/10 111/52/10 106/53/10
f 111/52/3 112/52/3 108/53/3
f 109/51/4 110/51/4 105/54/4
f 112/52/9 109/51/9 107/54/9
f 117/55/2 120/56/2 119/56/2
f 118/55/10 119/56/10 114/57/10
f 119/56/3 120/56/3 116/57/3
f 117/55/4 118/55/4 113/58/4
f 120/56/9 117/55/9 115/58/9
