# Blender 4.4.0
# www.blender.org
mtllib Prop_Sack_01.mtl
o Prop_Sack_01
v -0.050270 0.486270 -0.166063
v -0.129714 0.480206 -0.145351
v -0.187473 0.471230 -0.088765
v -0.215520 0.466448 -0.011466
v -0.187473 0.471230 0.065832
v -0.129901 0.480559 0.122418
v -0.052289 0.486305 0.143130
v 0.025111 0.490512 0.122418
v 0.082023 0.500791 0.065832
v 0.111944 0.506751 -0.011466
v 0.084127 0.500699 -0.088765
v 0.028559 0.492378 -0.145351
v -0.213521 0.375774 0.073762
v -0.145103 0.366444 0.136154
v 0.041123 0.396716 -0.159087
v -0.051569 0.404418 -0.181924
v -0.144879 0.405202 -0.159087
v -0.213589 0.397550 -0.096695
v 0.107695 0.364736 0.073762
v 0.133116 0.376090 -0.011466
v -0.052686 0.359666 0.158991
v -0.238960 0.386004 -0.011466
v 0.108159 0.387219 -0.096695
v 0.039432 0.358215 0.136154
v -0.030568 0.017582 -0.020492
v -0.126516 0.018719 -0.017747
v -0.253897 -0.011109 -0.010246
v -0.280645 -0.014263 -0.000000
v -0.253897 -0.011109 0.010246
v -0.126516 0.018719 0.017747
v -0.030660 0.017357 0.020492
v 0.078268 0.003587 0.017747
v 0.200509 0.008553 0.010246
v 0.230869 0.012165 0.000000
v 0.200506 0.008544 -0.010246
v 0.078287 0.003633 -0.017747
v -0.049935 0.502463 -0.190284
v -0.141716 0.494676 -0.165915
v -0.207997 0.484433 -0.100499
v -0.243515 0.478866 -0.011466
v -0.207997 0.484433 0.077566
v -0.141818 0.494900 0.142919
v -0.052067 0.502425 0.167324
v 0.037866 0.507813 0.143763
v 0.104526 0.520265 0.078507
v 0.142956 0.527109 -0.011466
v 0.106630 0.520135 -0.101411
v 0.041703 0.510080 -0.166808
v -0.049377 0.528847 -0.193027
v -0.143206 0.520807 -0.168644
v -0.211004 0.510201 -0.102184
v -0.246344 0.504262 -0.011466
v -0.211004 0.510201 0.079251
v -0.143417 0.521154 0.145681
v -0.051835 0.528471 0.170089
v 0.039567 0.534157 0.145876
v 0.106787 0.547517 0.079480
v 0.144605 0.554509 -0.011466
v 0.109073 0.547609 -0.102382
v 0.043721 0.536979 -0.168823
v -0.049186 0.530666 -0.167011
v -0.129886 0.524196 -0.146172
v -0.188365 0.514847 -0.089239
v -0.218260 0.509543 -0.011466
v -0.188365 0.514847 0.066306
v -0.130297 0.524796 0.123239
v -0.051777 0.530002 0.144069
v 0.026492 0.534575 0.123228
v 0.083905 0.546409 0.066304
v 0.116446 0.553031 -0.011466
v 0.086365 0.546798 -0.089239
v 0.030604 0.537531 -0.146172
v 0.022704 0.498266 -0.133209
v 0.072925 0.506613 -0.081657
v 0.099560 0.512140 -0.011466
v 0.070674 0.506257 0.058705
v 0.018965 0.495594 0.110228
v -0.051749 0.491470 0.129266
v -0.122888 0.486758 0.110576
v -0.175613 0.477736 0.059061
v -0.202494 0.472940 -0.011466
v -0.175613 0.477736 -0.081993
v -0.122523 0.486214 -0.133522
v -0.049404 0.492071 -0.152271
v -0.145275 0.273269 0.137156
v -0.158476 0.171969 0.118019
v -0.053254 0.288318 -0.167630
v -0.052802 0.187053 -0.141193
v -0.213351 0.289382 -0.086134
v -0.224940 0.185137 -0.070228
v 0.131398 0.270472 -0.004511
v 0.158498 0.172942 -0.000596
v -0.053249 0.267507 0.159108
v -0.052632 0.168199 0.137299
v -0.238547 0.284232 -0.004511
v -0.264700 0.181880 -0.000588
v 0.106152 0.275722 -0.086134
v 0.130509 0.175055 -0.070175
v 0.038399 0.263774 0.137156
v 0.053642 0.163152 0.118318
v -0.225641 0.175873 0.068450
v -0.213359 0.278853 0.077233
v 0.051925 0.179429 -0.121594
v 0.038387 0.281857 -0.145807
v -0.157068 0.188308 -0.121302
v -0.145269 0.291356 -0.145807
v 0.131552 0.166200 0.068499
v 0.106160 0.265194 0.077233
v -0.044655 0.079937 -0.084055
v -0.157404 0.081073 -0.073321
v -0.232605 0.070668 -0.042402
v -0.248867 0.069136 -0.000000
v -0.232605 0.070668 0.042402
v -0.157404 0.081073 0.073321
v -0.044822 0.079565 0.084055
v 0.072411 0.073892 0.073068
v 0.152270 0.064466 0.040058
v 0.175090 0.066382 -0.000000
v 0.161472 0.069000 -0.040058
v 0.072758 0.074512 -0.073068
v 0.030417 0.510881 -0.146036
v 0.086026 0.519677 -0.089106
v 0.115679 0.525871 -0.011465
v 0.083605 0.519004 0.066195
v 0.026369 0.508182 0.123194
v -0.051878 0.502859 0.144106
v -0.130463 0.497028 0.123355
v -0.188678 0.487856 0.066430
v -0.218186 0.483009 -0.011465
v -0.188661 0.487819 -0.089351
v -0.130050 0.496623 -0.146284
v -0.049287 0.503616 -0.167038
v -0.053409 0.528849 -0.144842
v 0.015156 0.536189 -0.126991
v 0.063691 0.542568 -0.077494
v 0.089418 0.546854 -0.011612
v 0.061723 0.541176 0.054422
v 0.011262 0.535040 0.104446
v -0.055846 0.527819 0.122034
v -0.123278 0.521336 0.104275
v -0.174019 0.515604 0.054583
v -0.199339 0.511265 -0.011392
v -0.173982 0.515322 -0.077350
v -0.122969 0.521397 -0.126940
vn 0.0330 -0.7098 -0.7036
vn -0.9299 0.1034 0.3529
vn 0.2512 -0.5833 -0.7724
vn 0.0726 -0.4198 0.9047
vn -0.6717 0.0254 0.7404
vn -0.6647 -0.0843 -0.7423
vn 0.9582 0.0033 0.2862
vn 0.2406 -0.0002 0.9706
vn -0.9576 0.0158 0.2877
vn 0.6701 -0.1010 -0.7354
vn 0.2278 -0.1222 -0.9660
vn 0.6738 0.0154 0.7388
vn 0.6792 0.1698 0.7140
vn -0.2612 0.1876 -0.9469
vn 0.6862 0.1909 -0.7019
vn -0.9093 0.2741 0.3130
vn 0.2506 0.1195 0.9607
vn 0.9129 0.2175 -0.3455
vn -0.8882 0.3472 -0.3008
vn -0.2643 0.1207 0.9569
vn 0.9183 0.1488 0.3669
vn -0.6957 0.2631 -0.6684
vn 0.2368 0.1812 -0.9545
vn -0.7044 0.1766 0.6875
vn -0.5557 -0.3381 -0.7595
vn 0.2761 0.2840 0.9182
vn 0.1171 -0.9931 -0.0000
vn -0.1849 -0.7033 0.6864
vn 0.8643 0.4269 -0.2659
vn -0.3686 0.1404 -0.9189
vn 0.1289 -0.5023 0.8550
vn 0.9572 -0.0443 -0.2861
vn -0.9569 -0.0303 -0.2890
vn -0.2371 -0.1153 -0.9646
vn -0.2391 0.0109 0.9709
vn 0.5228 -0.2954 0.7996
vn -0.3481 -0.2035 0.9151
vn 0.0664 -0.4080 -0.9106
vn 0.9254 0.0852 0.3692
vn -0.0911 -0.4403 0.8932
vn 0.0328 -0.3731 -0.9272
vn -0.8654 -0.0629 -0.4971
vn 0.9397 0.1446 -0.3100
vn -0.0587 -0.6203 0.7821
vn -0.9245 -0.1280 0.3592
vn 0.3349 -0.1656 -0.9276
vn -0.0818 -0.8384 0.5389
vn -0.4394 -0.8726 -0.2134
vn 0.5421 -0.8259 -0.1549
vn 0.1898 -0.8179 0.5432
vn -0.3961 -0.8930 0.2139
vn 0.4858 -0.7966 -0.3598
vn -0.0770 -0.8284 -0.5549
vn 0.4928 -0.7962 0.3510
vn -0.2946 -0.8485 0.4396
vn 0.2070 -0.8131 -0.5440
vn -0.2926 -0.8540 -0.4302
vn 0.5896 -0.7902 0.1673
vn 0.2579 -0.1043 0.9605
vn -0.9217 -0.1026 0.3741
vn 0.7172 -0.0882 -0.6913
vn -0.2427 -0.0952 -0.9654
vn 0.7056 -0.1018 0.7013
vn -0.6867 -0.1270 0.7157
vn 0.2580 -0.0914 -0.9618
vn -0.6863 -0.1141 -0.7183
vn 0.9184 -0.0900 0.3854
vn -0.2515 -0.1164 0.9608
vn -0.9208 -0.1315 -0.3673
vn 0.9314 -0.0560 -0.3597
vn -0.0523 0.9971 -0.0552
vn -0.0465 0.9972 0.0586
vn -0.1848 0.9828 0.0076
vn -0.0824 0.9933 -0.0810
vn -0.0973 0.9929 -0.0687
vn -0.1182 0.9892 0.0865
vn -0.1860 0.9822 0.0273
vn -0.0701 0.9954 -0.0648
vn -0.1907 0.9810 -0.0348
vn -0.0782 0.9956 0.0521
vn -0.1054 0.9895 0.0990
vn -0.1963 0.9805 -0.0086
vn -0.6974 0.3443 -0.6286
vn 0.2082 0.3479 0.9141
vn -0.6969 0.3511 0.6254
vn 0.8594 0.3702 -0.3527
vn -0.2627 0.3459 -0.9008
vn -0.8785 0.3628 0.3107
vn 0.8604 0.3651 0.3556
vn 0.2169 0.3461 -0.9128
vn -0.8758 0.3513 -0.3311
vn 0.6230 0.3532 0.6979
vn -0.2648 0.3499 0.8986
vn 0.6231 0.3506 -0.6991
vn 0.6624 -0.0397 0.7481
vn -0.2313 -0.2467 -0.9411
vn 0.5475 -0.0002 -0.8368
vn -0.8376 0.2330 0.4941
vn 0.2198 -0.2080 0.9531
vn 0.9038 0.2368 -0.3564
vn -0.9548 0.0618 -0.2908
vn -0.1824 -0.1595 0.9702
vn 0.9298 0.2120 0.3008
vn -0.6539 -0.1034 -0.7495
vn 0.1655 -0.2061 -0.9644
vn -0.5937 0.0022 0.8047
vn -0.0301 -0.7177 0.6957
vn -0.0759 -0.6841 -0.7254
vn -0.1705 -0.4738 -0.8640
vn -0.1387 0.9903 0.0084
vn -0.8006 0.5347 -0.2705
vn -0.2429 0.6207 0.7455
vn 0.6093 0.7396 -0.2860
vn 0.5923 0.7435 0.3104
vn -0.6079 0.5670 -0.5559
vn -0.6086 0.5934 0.5268
vn 0.4423 0.7202 0.5345
vn -0.2552 0.6393 -0.7254
vn -0.7985 0.5376 0.2711
vn 0.1617 0.6244 0.7642
vn 0.4584 0.6941 -0.5550
vn 0.1385 0.6474 -0.7494
vn -0.0593 -0.6171 -0.7847
vn -0.3686 0.1404 0.9189
vn 0.0722 -0.4032 -0.9122
vn 0.2495 -0.5859 0.7710
vn -0.6602 0.0093 0.7510
vn -0.6561 -0.0748 -0.7510
vn 0.9556 -0.0045 0.2947
vn 0.2332 0.0078 0.9724
vn -0.9555 0.0090 0.2950
vn 0.6543 -0.0830 -0.7516
vn 0.2222 -0.1172 -0.9679
vn 0.6624 0.0007 0.7491
vn 0.6595 0.1479 0.7370
vn -0.2301 0.2201 -0.9479
vn 0.6829 0.1938 -0.7043
vn -0.9144 0.2664 0.3049
vn 0.2406 0.1260 0.9624
vn 0.9534 0.1545 -0.2590
vn -0.9319 0.2715 -0.2406
vn -0.2272 0.1462 0.9628
vn 0.9328 0.1937 0.3040
vn -0.6583 0.3073 -0.6872
vn 0.2490 0.1696 -0.9535
vn -0.6373 0.2349 0.7340
vn -0.3489 -0.1992 -0.9157
vn 0.7780 0.4241 0.4635
vn 0.2280 -0.9737 -0.0000
vn -0.0120 -0.9999 -0.0055
vn -0.1271 -0.9919 -0.0014
vn 0.0402 -0.9992 -0.0013
vn -0.1256 -0.9921 -0.0057
vn 0.1183 -0.9930 0.0004
vn 0.0406 -0.9992 0.0004
vn -0.0142 -0.9999 -0.0000
vn 0.0328 -0.3731 0.9272
vn 0.2760 0.2840 -0.9183
vn -0.9299 0.1034 -0.3529
vn 0.0626 -0.4408 0.8954
vn 0.9541 -0.0351 -0.2974
vn -0.9548 -0.0241 -0.2963
vn -0.2328 -0.1119 -0.9661
vn -0.2319 0.0027 0.9727
vn 0.3570 -0.1834 0.9159
vn -0.5656 -0.3693 0.7374
vn 0.1311 -0.4588 -0.8788
vn 0.8580 0.1364 0.4953
vn -0.1711 -0.5184 0.8379
vn -0.1849 -0.7033 -0.6864
vn -0.9240 -0.1316 -0.3591
vn 0.9169 0.1644 -0.3638
vn 0.0315 -0.7108 0.7027
vn -0.8710 -0.0630 0.4873
vn 0.5160 -0.2730 -0.8119
vn -0.0809 -0.8291 0.5532
vn -0.3961 -0.8930 -0.2139
vn 0.5955 -0.7887 -0.1525
vn 0.1920 -0.8154 0.5462
vn -0.4394 -0.8726 0.2134
vn 0.4856 -0.7967 -0.3598
vn -0.0777 -0.8361 -0.5430
vn 0.4921 -0.7968 0.3506
vn -0.2894 -0.8552 0.4300
vn 0.2055 -0.8149 -0.5420
vn -0.2963 -0.8492 -0.4372
vn 0.5409 -0.8240 0.1684
vn 0.2604 -0.0939 0.9609
vn -0.9208 -0.1315 0.3673
vn 0.7138 -0.1054 -0.6924
vn -0.2458 -0.1145 -0.9625
vn 0.7086 -0.0838 0.7006
vn -0.6864 -0.1173 0.7177
vn 0.2550 -0.1053 -0.9612
vn -0.6868 -0.1270 -0.7157
vn 0.9234 -0.0556 0.3797
vn -0.2488 -0.1001 0.9634
vn -0.9217 -0.1026 -0.3741
vn 0.9256 -0.0952 -0.3664
vn -0.0668 0.9963 -0.0540
vn -0.0463 0.9979 0.0451
vn -0.1963 0.9805 0.0086
vn -0.0862 0.9935 -0.0741
vn -0.1072 0.9905 -0.0858
vn -0.1027 0.9901 0.0952
vn -0.2054 0.9779 0.0386
vn -0.0676 0.9953 -0.0691
vn -0.1840 0.9825 -0.0309
vn -0.0523 0.9971 0.0549
vn -0.0815 0.9950 0.0584
vn -0.1848 0.9828 -0.0076
vn -0.6952 0.3481 -0.6288
vn 0.2071 0.3450 0.9155
vn -0.6992 0.3470 0.6250
vn 0.8604 0.3651 -0.3556
vn -0.2601 0.3503 -0.8998
vn -0.8835 0.3535 0.3074
vn 0.8594 0.3702 0.3527
vn 0.2184 0.3501 -0.9109
vn -0.8712 0.3598 -0.3339
vn 0.6228 0.3506 0.6994
vn -0.2675 0.3451 0.8996
vn 0.6233 0.3536 -0.6975
vn 0.5359 0.0632 0.8419
vn -0.1857 -0.2071 -0.9605
vn 0.6534 -0.0913 -0.7515
vn -0.9503 0.0879 0.2986
vn 0.1664 -0.1570 0.9735
vn 0.9424 0.1837 -0.2797
vn -0.8549 0.2001 -0.4787
vn -0.2393 -0.2097 0.9480
vn 0.8901 0.2623 0.3727
vn -0.5987 -0.0554 -0.7991
vn 0.2081 -0.2462 -0.9466
vn -0.6622 -0.0549 0.7473
vn -0.0783 -0.6846 0.7247
vn -0.0284 -0.7167 -0.6968
vn -0.0906 -0.4065 -0.9091
vn -0.1064 0.9943 -0.0000
vn -0.1058 0.9944 0.0029
vn -0.1063 0.9943 0.0029
vn -0.1203 0.9927 -0.0022
vn -0.1635 0.9865 -0.0022
vn -0.1124 0.9937 0.0001
vn -0.0957 0.9954 0.0001
vn -0.1155 0.9933 0.0053
vn -0.1833 0.9830 0.0076
vn -0.7946 0.5428 -0.2721
vn -0.2523 0.6425 0.7235
vn 0.5987 0.7473 -0.2883
vn 0.5887 0.7461 0.3110
vn -0.6065 0.5897 -0.5332
vn -0.6106 0.5612 0.5588
vn 0.4583 0.6675 0.5869
vn -0.2455 0.6173 -0.7474
vn -0.8013 0.5338 0.2703
vn 0.1205 0.6683 0.7341
vn 0.4524 0.7131 -0.5355
vn 0.1201 0.6667 -0.7356
vt 0.841766 0.490331
vt 0.840425 0.479412
vt 0.840243 0.491372
vt 0.837592 0.489300
vt 0.837527 0.473909
vt 0.837804 0.489594
vt 0.842917 0.489274
vt 0.841838 0.476737
vt 0.842798 0.488404
vt 0.841838 0.476728
vt 0.843424 0.477680
vt 0.838053 0.529523
vt 0.838939 0.546323
vt 0.838051 0.548112
vt 0.838937 0.531921
vt 0.838050 0.552289
vt 0.838942 0.553756
vt 0.842220 0.545995
vt 0.842527 0.527916
vt 0.842549 0.548173
vt 0.840131 0.527347
vt 0.841334 0.544745
vt 0.840138 0.545023
vt 0.837726 0.530555
vt 0.837721 0.550075
vt 0.842226 0.550308
vt 0.841320 0.530099
vt 0.841356 0.552129
vt 0.840131 0.531339
vt 0.840153 0.553606
vt 0.842200 0.526903
vt 0.841148 0.570119
vt 0.841886 0.572090
vt 0.839139 0.568142
vt 0.840170 0.569305
vt 0.841914 0.572073
vt 0.841193 0.570477
vt 0.838025 0.565503
vt 0.838389 0.566421
vt 0.840143 0.569312
vt 0.842275 0.573233
vt 0.839136 0.568210
vt 0.838779 0.491589
vt 0.837903 0.511549
vt 0.838784 0.512157
vt 0.843094 0.488772
vt 0.843818 0.478373
vt 0.837180 0.473304
vt 0.839180 0.479630
vt 0.843424 0.477679
vt 0.840240 0.491300
vt 0.841518 0.507332
vt 0.840139 0.508300
vt 0.842200 0.528923
vt 0.838053 0.531543
vt 0.838937 0.528452
vt 0.841762 0.490212
vt 0.842529 0.507917
vt 0.837894 0.509772
vt 0.841496 0.510454
vt 0.842879 0.509210
vt 0.838766 0.509023
vt 0.837387 0.510924
vt 0.840424 0.479369
vt 0.842516 0.509615
vt 0.838982 0.570960
vt 0.838123 0.568953
vt 0.842206 0.575800
vt 0.842677 0.577138
vt 0.840146 0.572404
vt 0.837662 0.567885
vt 0.841363 0.573872
vt 0.838983 0.570917
vt 0.840174 0.572411
vt 0.841313 0.573437
vt 0.842178 0.575825
vt 0.840149 0.577399
vt 0.837625 0.572756
vt 0.841389 0.579031
vt 0.842237 0.581070
vt 0.838964 0.575929
vt 0.840181 0.577471
vt 0.841335 0.578490
vt 0.838084 0.573895
vt 0.842208 0.581052
vt 0.838961 0.575996
vt 0.842699 0.582393
vt 0.842333 0.582110
vt 0.840150 0.577693
vt 0.837990 0.573769
vt 0.841219 0.579137
vt 0.841943 0.580914
vt 0.839136 0.576579
vt 0.840184 0.577820
vt 0.841911 0.580840
vt 0.841166 0.578570
vt 0.838378 0.574786
vt 0.839131 0.576694
vt 0.841739 0.573139
vt 0.841068 0.571093
vt 0.840181 0.570418
vt 0.841768 0.573207
vt 0.838543 0.567668
vt 0.838194 0.566748
vt 0.840150 0.570302
vt 0.842114 0.574267
vt 0.839227 0.569399
vt 0.839232 0.569294
vt 0.841117 0.571606
vt 0.841320 0.526631
vt 0.840137 0.511916
vt 0.578589 0.961072
vt 0.579042 0.964901
vt 0.579061 0.965970
vt 0.576502 0.941932
vt 0.576605 0.923926
vt 0.576318 0.920233
vt 0.577898 0.954644
vt 0.577172 0.930999
vt 0.577936 0.935476
vt 0.579311 0.969261
vt 0.579278 0.948391
vt 0.579255 0.947874
vt 0.579567 0.953148
vt 0.577245 0.949712
vt 0.576748 0.945047
vt 0.577242 0.949666
vt 0.576605 0.923955
vt 0.578551 0.960189
vt 0.577922 0.955435
vt 0.577176 0.930688
vt 0.576748 0.945264
vt 0.578698 0.939564
vt 0.578737 0.941636
vt 0.577962 0.936057
s 0
usemtl Texture_Map
f 120/1/1 25/2/1 109/3/1
f 112/4/2 29/5/2 113/6/2
f 119/7/3 36/8/3 120/1/3
f 117/9/4 32/10/4 33/11/4
f 102/12/5 14/13/5 13/14/5
f 106/15/6 18/16/6 17/17/6
f 19/18/7 91/19/7 20/20/7
f 93/21/8 24/22/8 21/23/8
f 95/24/9 13/14/9 22/25/9
f 23/26/10 104/27/10 15/28/10
f 15/28/11 87/29/11 16/30/11
f 24/22/12 108/31/12 19/18/12
f 8/32/13 19/18/13 9/33/13
f 16/30/14 2/34/14 1/35/14
f 11/36/15 15/28/15 12/37/15
f 4/38/16 13/14/16 5/39/16
f 21/23/17 8/32/17 7/40/17
f 10/41/18 23/26/18 11/36/18
f 18/16/19 4/38/19 3/39/19
f 6/42/20 21/23/20 7/40/20
f 9/33/21 20/20/21 10/41/21
f 17/17/22 3/39/22 2/34/22
f 12/37/23 16/30/23 1/35/23
f 5/39/24 14/13/24 6/42/24
f 110/43/25 90/44/25 105/45/25
f 118/46/26 33/11/26 34/47/26
f 29/5/27 28/48/27 27/5/27
f 113/6/28 30/49/28 114/43/28
f 118/46/29 35/50/29 119/7/29
f 112/4/30 27/5/30 28/48/30
f 115/51/31 100/52/31 94/53/31
f 20/20/32 97/54/32 23/26/32
f 89/55/33 22/25/33 18/16/33
f 87/29/34 17/17/34 16/30/34
f 85/56/35 21/23/35 14/13/35
f 116/57/36 107/58/36 100/52/36
f 114/43/37 101/59/37 113/6/37
f 109/3/38 103/60/38 120/1/38
f 117/9/39 92/61/39 107/58/39
f 115/51/40 86/62/40 114/43/40
f 111/6/41 26/49/41 27/5/41
f 111/6/42 96/63/42 90/44/42
f 119/7/43 92/61/43 118/46/43
f 116/57/44 31/64/44 32/10/44
f 113/6/45 96/63/45 112/4/45
f 120/1/46 98/65/46 119/7/46
f 7/40/47 42/66/47 6/42/47
f 4/38/48 39/67/48 3/39/48
f 10/41/49 47/68/49 46/69/49
f 8/32/50 43/70/50 7/40/50
f 4/38/51 41/67/51 40/71/51
f 11/36/52 48/72/52 47/68/52
f 1/35/53 38/73/53 37/74/53
f 9/33/54 44/75/54 8/32/54
f 6/42/55 41/67/55 5/39/55
f 12/37/56 37/74/56 48/72/56
f 2/34/57 39/67/57 38/73/57
f 10/41/58 45/76/58 9/33/58
f 44/75/59 55/77/59 43/70/59
f 41/67/60 52/78/60 40/71/60
f 47/68/61 60/79/61 59/80/61
f 37/74/62 50/81/62 49/82/62
f 45/76/63 56/83/63 44/75/63
f 42/66/64 53/84/64 41/67/64
f 48/72/65 49/82/65 60/79/65
f 38/73/66 51/84/66 50/81/66
f 46/69/67 57/85/67 45/76/67
f 43/70/68 54/86/68 42/66/68
f 39/67/69 52/78/69 51/84/69
f 46/69/70 59/80/70 58/87/70
f 59/80/71 70/88/71 58/87/71
f 56/83/72 67/89/72 55/77/72
f 53/84/73 64/90/73 52/78/73
f 59/80/74 72/91/74 71/92/74
f 49/82/75 62/93/75 61/94/75
f 56/83/76 69/95/76 68/96/76
f 54/86/77 65/97/77 53/84/77
f 49/82/78 72/91/78 60/79/78
f 50/81/79 63/97/79 62/93/79
f 57/85/80 70/88/80 69/95/80
f 55/77/81 66/98/81 54/86/81
f 51/84/82 64/90/82 63/97/82
f 68/96/83 76/99/83 77/100/83
f 62/93/84 84/101/84 61/94/84
f 72/91/85 74/102/85 71/92/85
f 64/90/86 80/103/86 81/104/86
f 67/89/87 77/100/87 78/105/87
f 71/92/88 75/106/88 70/88/88
f 64/90/89 82/103/89 63/97/89
f 66/98/90 78/105/90 79/107/90
f 69/95/91 75/106/91 76/99/91
f 63/97/92 83/108/92 62/93/92
f 61/94/93 73/109/93 72/91/93
f 65/97/94 79/107/94 80/103/94
f 100/52/95 108/31/95 99/110/95
f 88/111/96 106/15/96 87/29/96
f 103/60/97 97/54/97 98/65/97
f 101/59/98 95/24/98 96/63/98
f 94/53/99 99/110/99 93/21/99
f 98/65/100 91/19/100 92/61/100
f 90/44/101 95/24/101 89/55/101
f 94/53/102 85/56/102 86/62/102
f 107/58/103 91/19/103 108/31/103
f 105/45/104 89/55/104 106/15/104
f 88/111/105 104/27/105 103/60/105
f 86/62/106 102/12/106 101/59/106
f 115/51/107 30/49/107 31/64/107
f 109/3/108 26/49/108 110/43/108
f 109/3/109 105/45/109 88/111/109
f 134/112/110 137/113/110 135/114/110
f 142/115/111 130/116/111 129/117/111
f 139/118/112 127/119/112 126/120/112
f 136/121/113 122/122/113 135/114/113
f 136/121/114 124/123/114 123/124/114
f 144/125/115 130/116/115 143/126/115
f 140/127/116 128/128/116 127/119/116
f 138/129/117 124/123/117 137/113/117
f 133/130/118 131/131/118 144/125/118
f 142/115/119 128/128/119 141/132/119
f 138/129/120 126/120/120 125/133/120
f 134/112/121 122/122/121 121/134/121
f 132/135/122 134/112/122 121/134/122
f 120/1/123 36/8/123 25/2/123
f 112/4/124 28/48/124 29/5/124
f 119/7/125 35/50/125 36/8/125
f 117/9/126 116/57/126 32/10/126
f 102/12/127 85/56/127 14/13/127
f 106/15/128 89/55/128 18/16/128
f 19/18/129 108/31/129 91/19/129
f 93/21/130 99/110/130 24/22/130
f 95/24/131 102/12/131 13/14/131
f 23/26/132 97/54/132 104/27/132
f 15/28/133 104/27/133 87/29/133
f 24/22/134 99/110/134 108/31/134
f 8/32/135 24/22/135 19/18/135
f 16/30/136 17/17/136 2/34/136
f 11/36/137 23/26/137 15/28/137
f 4/38/138 22/25/138 13/14/138
f 21/23/139 24/22/139 8/32/139
f 10/41/140 20/20/140 23/26/140
f 18/16/141 22/25/141 4/38/141
f 6/42/142 14/13/142 21/23/142
f 9/33/143 19/18/143 20/20/143
f 17/17/144 18/16/144 3/39/144
f 12/37/145 15/28/145 16/30/145
f 5/39/146 13/14/146 14/13/146
f 110/43/147 111/6/147 90/44/147
f 118/46/148 117/9/148 33/11/148
f 27/5/149 26/49/149 30/49/149
f 26/49/150 25/2/150 31/64/150
f 25/2/151 36/8/151 32/10/151
f 36/8/152 35/50/152 32/10/152
f 25/2/153 32/10/153 31/64/153
f 35/50/154 34/47/154 33/11/154
f 33/11/155 32/10/155 35/50/155
f 31/64/156 30/49/156 26/49/156
f 30/49/149 29/5/149 27/5/149
f 113/6/157 29/5/157 30/49/157
f 118/46/158 34/47/158 35/50/158
f 112/4/159 111/6/159 27/5/159
f 115/51/160 116/57/160 100/52/160
f 20/20/161 91/19/161 97/54/161
f 89/55/162 95/24/162 22/25/162
f 87/29/163 106/15/163 17/17/163
f 85/56/164 93/21/164 21/23/164
f 116/57/165 117/9/165 107/58/165
f 114/43/166 86/62/166 101/59/166
f 109/3/167 88/111/167 103/60/167
f 117/9/168 118/46/168 92/61/168
f 115/51/169 94/53/169 86/62/169
f 111/6/170 110/43/170 26/49/170
f 111/6/171 112/4/171 96/63/171
f 119/7/172 98/65/172 92/61/172
f 116/57/173 115/51/173 31/64/173
f 113/6/174 101/59/174 96/63/174
f 120/1/175 103/60/175 98/65/175
f 7/40/176 43/70/176 42/66/176
f 4/38/177 40/71/177 39/67/177
f 10/41/178 11/36/178 47/68/178
f 8/32/179 44/75/179 43/70/179
f 4/38/180 5/39/180 41/67/180
f 11/36/181 12/37/181 48/72/181
f 1/35/182 2/34/182 38/73/182
f 9/33/183 45/76/183 44/75/183
f 6/42/184 42/66/184 41/67/184
f 12/37/185 1/35/185 37/74/185
f 2/34/186 3/39/186 39/67/186
f 10/41/187 46/69/187 45/76/187
f 44/75/188 56/83/188 55/77/188
f 41/67/189 53/84/189 52/78/189
f 47/68/190 48/72/190 60/79/190
f 37/74/191 38/73/191 50/81/191
f 45/76/192 57/85/192 56/83/192
f 42/66/193 54/86/193 53/84/193
f 48/72/194 37/74/194 49/82/194
f 38/73/195 39/67/195 51/84/195
f 46/69/196 58/87/196 57/85/196
f 43/70/197 55/77/197 54/86/197
f 39/67/198 40/71/198 52/78/198
f 46/69/199 47/68/199 59/80/199
f 59/80/200 71/92/200 70/88/200
f 56/83/201 68/96/201 67/89/201
f 53/84/202 65/97/202 64/90/202
f 59/80/203 60/79/203 72/91/203
f 49/82/204 50/81/204 62/93/204
f 56/83/205 57/85/205 69/95/205
f 54/86/206 66/98/206 65/97/206
f 49/82/207 61/94/207 72/91/207
f 50/81/208 51/84/208 63/97/208
f 57/85/209 58/87/209 70/88/209
f 55/77/210 67/89/210 66/98/210
f 51/84/211 52/78/211 64/90/211
f 68/96/212 69/95/212 76/99/212
f 62/93/213 83/108/213 84/101/213
f 72/91/214 73/109/214 74/102/214
f 64/90/215 65/97/215 80/103/215
f 67/89/216 68/96/216 77/100/216
f 71/92/217 74/102/217 75/106/217
f 64/90/218 81/104/218 82/103/218
f 66/98/219 67/89/219 78/105/219
f 69/95/220 70/88/220 75/106/220
f 63/97/221 82/103/221 83/108/221
f 61/94/222 84/101/222 73/109/222
f 65/97/223 66/98/223 79/107/223
f 100/52/224 107/58/224 108/31/224
f 88/111/225 105/45/225 106/15/225
f 103/60/226 104/27/226 97/54/226
f 101/59/227 102/12/227 95/24/227
f 94/53/228 100/52/228 99/110/228
f 98/65/229 97/54/229 91/19/229
f 90/44/230 96/63/230 95/24/230
f 94/53/231 93/21/231 85/56/231
f 107/58/232 92/61/232 91/19/232
f 105/45/233 90/44/233 89/55/233
f 88/111/234 87/29/234 104/27/234
f 86/62/235 85/56/235 102/12/235
f 115/51/236 114/43/236 30/49/236
f 109/3/237 25/2/237 26/49/237
f 109/3/238 110/43/238 105/45/238
f 134/112/239 133/130/239 137/113/239
f 133/130/240 144/125/240 139/118/240
f 138/129/241 133/130/241 139/118/241
f 144/125/242 143/126/242 141/132/242
f 143/126/243 142/115/243 141/132/243
f 141/132/244 140/127/244 144/125/244
f 140/127/245 139/118/245 144/125/245
f 138/129/246 137/113/246 133/130/246
f 137/113/247 136/121/247 135/114/247
f 142/115/248 143/126/248 130/116/248
f 139/118/249 140/127/249 127/119/249
f 136/121/250 123/124/250 122/122/250
f 136/121/251 137/113/251 124/123/251
f 144/125/252 131/131/252 130/116/252
f 140/127/253 141/132/253 128/128/253
f 138/129/254 125/133/254 124/123/254
f 133/130/255 132/135/255 131/131/255
f 142/115/256 129/117/256 128/128/256
f 138/129/257 139/118/257 126/120/257
f 134/112/258 135/114/258 122/122/258
f 132/135/259 133/130/259 134/112/259
