# Blender 4.4.0
# www.blender.org
mtllib Prop_Wooden_Crate_02.mtl
o Prop_Wooden_Crate_02
v 0.335044 0.007948 0.213900
v 0.361254 0.007948 0.213900
v 0.361254 0.007948 0.187690
v 0.335044 0.260507 0.213900
v 0.361254 0.260507 0.213900
v 0.361254 0.260507 0.187690
v -0.335044 0.007948 0.213900
v -0.361254 0.007948 0.213900
v -0.361254 0.007948 0.187690
v -0.335044 0.260507 0.213900
v -0.361254 0.260507 0.213900
v -0.361254 0.260507 0.187690
v 0.335044 0.007948 -0.213900
v 0.361254 0.007948 -0.213900
v 0.361254 0.007948 -0.187690
v 0.335044 0.260507 -0.213900
v 0.361254 0.260507 -0.213900
v 0.361254 0.260507 -0.187690
v -0.335044 0.007948 -0.213900
v -0.361254 0.007948 -0.213900
v -0.361254 0.007948 -0.187690
v -0.335044 0.260507 -0.213900
v -0.361254 0.260507 -0.213900
v -0.361254 0.260507 -0.187690
v 0.380000 0.015895 0.213900
v 0.380000 0.015895 -0.213900
v 0.361254 0.015895 0.213900
v 0.361254 0.015895 -0.213900
v 0.380000 0.259436 -0.213900
v 0.380000 0.146459 -0.213900
v 0.380000 0.134735 -0.213900
v 0.380000 0.134735 0.213900
v 0.380000 0.146459 0.213900
v 0.380000 0.259436 0.213900
v 0.361254 0.259436 -0.213900
v 0.361254 0.134735 -0.213900
v 0.361254 0.146459 -0.213900
v 0.361254 0.146459 0.213900
v 0.361254 0.134735 0.213900
v 0.361254 0.259436 0.213900
v -0.380000 0.015895 0.213900
v -0.380000 0.015895 -0.213900
v -0.361254 0.015895 0.213900
v -0.361254 0.015895 -0.213900
v -0.380000 0.259436 -0.213900
v -0.380000 0.146459 -0.213900
v -0.380000 0.134735 -0.213900
v -0.380000 0.134735 0.213900
v -0.380000 0.146459 0.213900
v -0.380000 0.259436 0.213900
v -0.361254 0.259436 -0.213900
v -0.361254 0.134735 -0.213900
v -0.361254 0.146459 -0.213900
v -0.361254 0.146459 0.213900
v -0.361254 0.134735 0.213900
v -0.361254 0.259436 0.213900
v -0.383099 0.000000 0.226835
v 0.383099 0.000000 0.226835
v -0.383099 0.000000 -0.226835
v 0.383099 0.000000 -0.226835
v -0.383099 0.015895 -0.226835
v -0.383099 0.015895 0.226835
v 0.383099 0.015895 0.226835
v 0.383099 0.015895 -0.226835
v -0.383099 0.000000 -0.077487
v -0.383099 0.000000 -0.073737
v -0.383099 0.000000 0.073737
v -0.383099 0.000000 0.077487
v 0.383099 0.000000 0.077487
v 0.383099 0.000000 0.073737
v 0.383099 0.000000 -0.073737
v 0.383099 0.000000 -0.077487
v -0.383099 0.015895 -0.073737
v -0.383099 0.015895 -0.077487
v -0.383099 0.015895 0.077487
v -0.383099 0.015895 0.073737
v 0.383099 0.015895 0.073737
v 0.383099 0.015895 0.077487
v 0.383099 0.015895 -0.077487
v 0.383099 0.015895 -0.073737
v -0.380000 0.015895 0.225000
v 0.380000 0.015895 0.225000
v -0.380000 0.015895 0.213900
v 0.380000 0.015895 0.213900
v -0.380000 0.134735 0.225000
v -0.380000 0.146459 0.225000
v -0.380000 0.259436 0.225000
v 0.380000 0.146459 0.225000
v 0.380000 0.134735 0.225000
v 0.380000 0.259436 0.225000
v -0.380000 0.146459 0.213900
v -0.380000 0.134735 0.213900
v -0.380000 0.259436 0.213900
v 0.380000 0.134735 0.213900
v 0.380000 0.146459 0.213900
v 0.380000 0.259436 0.213900
v -0.380000 0.015895 -0.225000
v 0.380000 0.015895 -0.225000
v -0.380000 0.015895 -0.213900
v 0.380000 0.015895 -0.213900
v -0.380000 0.134735 -0.225000
v -0.380000 0.146459 -0.225000
v -0.380000 0.259436 -0.225000
v 0.380000 0.146459 -0.225000
v 0.380000 0.134735 -0.225000
v 0.380000 0.259436 -0.225000
v -0.380000 0.146459 -0.213900
v -0.380000 0.134735 -0.213900
v -0.380000 0.259436 -0.213900
v 0.380000 0.134735 -0.213900
v 0.380000 0.146459 -0.213900
v 0.380000 0.259436 -0.213900
vn -0.0000 -1.0000 -0.0000
vn -0.0000 1.0000 -0.0000
vn 1.0000 -0.0000 -0.0000
vn -0.0000 -0.0000 1.0000
vn -0.7071 -0.0000 -0.7071
vn -1.0000 -0.0000 -0.0000
vn 0.7071 -0.0000 -0.7071
vn -0.0000 -0.0000 -1.0000
vn -0.7071 -0.0000 0.7071
vn 0.7071 -0.0000 0.7071
vt 0.574933 0.890085
vt 0.574863 0.890085
vt 0.574933 0.912976
vt 0.574863 0.912976
vt 0.576706 0.890085
vt 0.576775 0.890085
vt 0.576706 0.912976
vt 0.576775 0.912976
vt 0.574863 0.912879
vt 0.574863 0.902639
vt 0.574814 0.902639
vt 0.574814 0.912879
vt 0.604722 0.879871
vt 0.604722 0.888684
vt 0.604763 0.888684
vt 0.604763 0.879871
vt 0.576775 0.902639
vt 0.576775 0.912879
vt 0.576824 0.912879
vt 0.576824 0.902639
vt 0.606368 0.888684
vt 0.606368 0.879871
vt 0.606327 0.879871
vt 0.606327 0.888684
vt 0.606374 0.879871
vt 0.606374 0.878692
vt 0.604716 0.879871
vt 0.604716 0.878692
vt 0.576833 0.890805
vt 0.574805 0.889364
vt 0.576833 0.889364
vt 0.574805 0.890805
vt 0.574814 0.890805
vt 0.574814 0.901576
vt 0.604722 0.889553
vt 0.606368 0.897931
vt 0.606368 0.889553
vt 0.576824 0.901576
vt 0.576824 0.890805
vt 0.604722 0.897931
s 0
usemtl Texture_Map
f 1/1/1 3/2/1 2/2/1
f 4/3/2 5/4/2 6/4/2
f 3/2/3 5/4/3 2/2/3
f 2/2/4 4/3/4 1/1/4
f 1/1/5 6/4/5 3/2/5
f 7/5/1 8/6/1 9/6/1
f 10/7/2 12/8/2 11/8/2
f 11/8/6 9/6/6 8/6/6
f 10/7/4 8/6/4 7/5/4
f 12/8/7 7/5/7 9/6/7
f 13/1/1 14/2/1 15/2/1
f 16/3/2 18/4/2 17/4/2
f 17/4/3 15/2/3 14/2/3
f 16/3/8 14/2/8 13/1/8
f 18/4/9 13/1/9 15/2/9
f 19/5/1 21/6/1 20/6/1
f 22/7/2 23/8/2 24/8/2
f 21/6/6 23/8/6 20/6/6
f 20/6/8 22/7/8 19/5/8
f 19/5/10 24/8/10 21/6/10
f 40/9/6 37/10/6 38/10/6
f 30/11/3 34/12/3 33/11/3
f 26/13/3 32/14/3 25/13/3
f 39/15/6 28/16/6 27/16/6
f 35/9/2 34/12/2 29/12/2
f 36/15/2 32/14/2 31/14/2
f 30/11/1 38/10/1 37/10/1
f 25/13/1 28/16/1 26/13/1
f 53/17/3 56/18/3 54/17/3
f 50/19/6 46/20/6 49/20/6
f 48/21/6 42/22/6 41/22/6
f 44/23/3 55/24/3 43/23/3
f 50/19/2 51/18/2 45/19/2
f 48/21/2 52/24/2 47/21/2
f 54/17/1 46/20/1 53/17/1
f 44/23/1 41/22/1 42/22/1
f 76/25/6 66/26/6 67/26/6
f 77/27/2 73/25/2 76/25/2
f 80/27/3 70/28/3 71/28/3
f 66/26/1 70/28/1 67/26/1
f 61/29/8 60/30/8 59/31/8
f 63/32/4 57/31/4 58/30/4
f 78/32/3 58/30/3 69/30/3
f 68/31/1 58/30/1 57/31/1
f 79/32/2 61/29/2 74/29/2
f 64/32/3 72/30/3 60/30/3
f 63/32/2 75/29/2 62/29/2
f 62/29/6 68/31/6 57/31/6
f 59/31/1 72/30/1 65/31/1
f 73/25/8 71/28/8 66/26/8
f 65/31/4 79/32/4 74/29/4
f 75/29/8 69/30/8 68/31/8
f 67/26/4 77/27/4 76/25/4
f 74/29/6 59/31/6 65/31/6
f 84/33/3 89/34/3 82/33/3
f 88/35/4 87/36/4 86/37/4
f 92/38/8 84/33/8 83/39/8
f 95/35/3 90/40/3 88/35/3
f 92/38/6 81/39/6 85/38/6
f 93/36/8 95/35/8 91/37/8
f 93/36/6 86/37/6 87/36/6
f 96/40/2 87/36/2 90/40/2
f 94/34/2 85/38/2 89/34/2
f 88/35/1 91/37/1 95/35/1
f 82/33/4 85/38/4 81/39/4
f 105/34/3 100/33/3 98/33/3
f 103/36/8 104/35/8 102/37/8
f 100/33/4 108/38/4 99/39/4
f 106/40/3 111/35/3 104/35/3
f 97/39/6 108/38/6 101/38/6
f 111/35/4 109/36/4 107/37/4
f 102/37/6 109/36/6 103/36/6
f 103/36/2 112/40/2 106/40/2
f 101/38/2 110/34/2 105/34/2
f 107/37/1 104/35/1 111/35/1
f 101/38/8 98/33/8 97/39/8
f 3/2/3 6/4/3 5/4/3
f 2/2/4 5/4/4 4/3/4
f 1/1/5 4/3/5 6/4/5
f 11/8/6 12/8/6 9/6/6
f 10/7/4 11/8/4 8/6/4
f 12/8/7 10/7/7 7/5/7
f 17/4/3 18/4/3 15/2/3
f 16/3/8 17/4/8 14/2/8
f 18/4/9 16/3/9 13/1/9
f 21/6/6 24/8/6 23/8/6
f 20/6/8 23/8/8 22/7/8
f 19/5/10 22/7/10 24/8/10
f 40/9/6 35/9/6 37/10/6
f 30/11/3 29/12/3 34/12/3
f 26/13/3 31/14/3 32/14/3
f 39/15/6 36/15/6 28/16/6
f 35/9/2 40/9/2 34/12/2
f 36/15/2 39/15/2 32/14/2
f 30/11/1 33/11/1 38/10/1
f 25/13/1 27/16/1 28/16/1
f 53/17/3 51/18/3 56/18/3
f 50/19/6 45/19/6 46/20/6
f 48/21/6 47/21/6 42/22/6
f 44/23/3 52/24/3 55/24/3
f 50/19/2 56/18/2 51/18/2
f 48/21/2 55/24/2 52/24/2
f 54/17/1 49/20/1 46/20/1
f 44/23/1 43/23/1 41/22/1
f 76/25/6 73/25/6 66/26/6
f 77/27/2 80/27/2 73/25/2
f 80/27/3 77/27/3 70/28/3
f 66/26/1 71/28/1 70/28/1
f 61/29/8 64/32/8 60/30/8
f 63/32/4 62/29/4 57/31/4
f 78/32/3 63/32/3 58/30/3
f 68/31/1 69/30/1 58/30/1
f 79/32/2 64/32/2 61/29/2
f 64/32/3 79/32/3 72/30/3
f 63/32/2 78/32/2 75/29/2
f 62/29/6 75/29/6 68/31/6
f 59/31/1 60/30/1 72/30/1
f 73/25/8 80/27/8 71/28/8
f 65/31/4 72/30/4 79/32/4
f 75/29/8 78/32/8 69/30/8
f 67/26/4 70/28/4 77/27/4
f 74/29/6 61/29/6 59/31/6
f 84/33/3 94/34/3 89/34/3
f 88/35/4 90/40/4 87/36/4
f 92/38/8 94/34/8 84/33/8
f 95/35/3 96/40/3 90/40/3
f 92/38/6 83/39/6 81/39/6
f 93/36/8 96/40/8 95/35/8
f 93/36/6 91/37/6 86/37/6
f 96/40/2 93/36/2 87/36/2
f 94/34/2 92/38/2 85/38/2
f 88/35/1 86/37/1 91/37/1
f 82/33/4 89/34/4 85/38/4
f 105/34/3 110/34/3 100/33/3
f 103/36/8 106/40/8 104/35/8
f 100/33/4 110/34/4 108/38/4
f 106/40/3 112/40/3 111/35/3
f 97/39/6 99/39/6 108/38/6
f 111/35/4 112/40/4 109/36/4
f 102/37/6 107/37/6 109/36/6
f 103/36/2 109/36/2 112/40/2
f 101/38/2 108/38/2 110/34/2
f 107/37/1 102/37/1 104/35/1
f 101/38/8 105/34/8 98/33/8
