# Blender 4.4.0
# www.blender.org
mtllib Prop_Beer_Bottle_02.mtl
o Prop_Beer_Bottle_02
v -0.006941 0.245346 0.015972
v -0.016252 0.245346 0.006506
v 0.006336 0.245346 0.016081
v 0.015802 0.245346 0.006771
v 0.015911 0.245346 -0.006506
v 0.006601 0.245346 -0.015972
v -0.006676 0.245346 -0.016081
v -0.016142 0.245346 -0.006771
v -0.006141 0.249682 0.014085
v -0.014352 0.249682 0.005737
v 0.005567 0.249682 0.014182
v 0.013915 0.249682 0.005971
v 0.014012 0.249682 -0.005737
v 0.005801 0.249682 -0.014085
v -0.005907 0.249682 -0.014182
v -0.014255 0.249682 -0.005971
v 0.013617 0.028636 0.032121
v 0.032121 0.028636 0.013617
v -0.032121 0.028636 0.013617
v -0.013617 0.028636 0.032121
v -0.013617 0.131283 0.032121
v -0.032121 0.131283 0.013617
v 0.032121 0.131283 0.013617
v 0.013617 0.131283 0.032121
v -0.013617 0.131283 -0.032121
v -0.032121 0.131283 -0.013617
v 0.013617 0.131283 -0.032121
v 0.032121 0.131283 -0.013617
v -0.013617 0.028636 -0.032121
v -0.032121 0.028636 -0.013617
v 0.013617 0.028636 -0.032121
v 0.032121 0.028636 -0.013617
v 0.014010 0.014906 0.033046
v 0.033046 0.014906 0.014010
v -0.033046 0.014906 0.014010
v -0.014010 0.014906 0.033046
v -0.014010 0.014906 -0.033046
v -0.033046 0.014906 -0.014010
v 0.014010 0.014906 -0.033046
v 0.033046 0.014906 -0.014010
v 0.006072 0.000000 0.014322
v 0.014322 0.000000 0.006072
v -0.014322 0.000000 0.006072
v -0.006072 0.000000 0.014322
v -0.006072 0.000000 -0.014322
v -0.014322 0.000000 -0.006072
v 0.006072 0.000000 -0.014322
v 0.014322 0.000000 -0.006072
v -0.008103 0.162824 0.019113
v -0.019244 0.162824 0.007785
v 0.019113 0.162824 0.008103
v 0.007785 0.162824 0.019244
v -0.007785 0.162824 -0.019244
v -0.019113 0.162824 -0.008103
v 0.008103 0.162824 -0.019113
v 0.019244 0.162824 -0.007785
v 0.031743 0.144198 -0.013592
v 0.013274 0.144198 -0.032060
v 0.013274 0.144198 0.032060
v 0.031743 0.144198 0.013592
v -0.032378 0.144198 0.013592
v -0.013909 0.144198 0.032060
v -0.013909 0.144198 -0.032060
v -0.032378 0.144198 -0.013592
v -0.005610 0.230988 0.013232
v -0.013323 0.230988 0.005390
v 0.013232 0.230988 0.005610
v 0.005390 0.230988 0.013323
v -0.005390 0.230988 -0.013323
v -0.013232 0.230988 -0.005610
v 0.005610 0.230988 -0.013232
v 0.013323 0.230988 -0.005390
v -0.006381 0.232002 0.015051
v -0.015154 0.232002 0.006131
v 0.015051 0.232002 0.006381
v 0.006131 0.232002 0.015154
v -0.006131 0.232002 -0.015154
v -0.015051 0.232002 -0.006381
v 0.006381 0.232002 -0.015051
v 0.015154 0.232002 -0.006131
v -0.005662 0.245736 0.012554
v -0.012980 0.245736 0.005114
v 0.012214 0.245736 0.005322
v 0.004773 0.245736 0.012640
v -0.005454 0.245736 -0.012640
v -0.012894 0.245736 -0.005322
v 0.004982 0.245736 -0.012554
v 0.012300 0.245736 -0.005114
v -0.031628 0.001262 -0.013408
v -0.013408 0.001262 -0.031628
v 0.013408 0.001262 -0.031628
v 0.031628 0.001262 -0.013408
v -0.031628 0.001262 0.013408
v 0.013408 0.001262 0.031628
v -0.013408 0.001262 0.031628
v 0.031628 0.001262 0.013408
vn -0.0000 -1.0000 -0.0000
vn -0.0000 1.0000 -0.0000
vn 0.6534 0.4001 -0.6427
vn 0.6426 0.4001 0.6534
vn -0.6534 0.4001 0.6427
vn -0.9164 0.4001 -0.0076
vn 0.0076 0.4001 -0.9164
vn 0.9164 0.4001 0.0076
vn -0.0076 0.4001 0.9164
vn -0.6426 0.4001 -0.6534
vn -0.0000 0.0672 -0.9977
vn 0.5826 0.5667 -0.5826
vn 0.7071 -0.0000 -0.7071
vn 0.7071 -0.0000 0.7071
vn -0.7071 -0.0000 0.7071
vn -0.0000 -0.0000 -1.0000
vn 1.0000 -0.0000 -0.0000
vn -0.0000 -0.0000 1.0000
vn -1.0000 -0.0000 -0.0000
vn -0.7071 -0.0000 -0.7071
vn -0.0511 -0.9974 -0.0511
vn -0.9977 0.0672 -0.0000
vn 0.9977 0.0672 -0.0000
vn -0.0000 0.0672 0.9977
vn -0.7055 0.0677 -0.7055
vn 0.7055 0.0677 -0.7055
vn -0.7055 0.0677 0.7055
vn 0.7055 0.0677 0.7055
vn 0.0511 -0.9974 -0.0511
vn -0.0727 -0.9974 -0.0000
vn -0.0000 -0.9974 0.0727
vn -0.0000 -0.9974 -0.0727
vn 0.0727 -0.9974 -0.0000
vn -0.0511 -0.9974 0.0511
vn 0.0511 -0.9974 0.0511
vn 0.0082 0.0862 -0.9962
vn 0.5807 0.5707 0.5807
vn -0.5741 0.5838 0.5741
vn -0.0000 0.5668 -0.8238
vn 0.8304 0.5572 -0.0000
vn -0.0000 0.5708 0.8211
vn -0.8173 0.5763 -0.0000
vn -0.5760 0.5800 -0.5760
vn -0.7071 -0.0127 -0.7070
vn -0.9998 -0.0199 -0.0000
vn -0.0000 0.0047 1.0000
vn 0.9996 0.0293 -0.0000
vn -0.0000 0.0047 -1.0000
vn -0.7071 -0.0127 0.7071
vn 0.7069 0.0221 0.7069
vn 0.7069 0.0221 -0.7069
vn -0.3406 -0.8741 -0.3463
vn 0.9962 0.0862 0.0082
vn -0.0082 0.0862 0.9962
vn -0.9962 0.0862 -0.0082
vn -0.6986 0.0862 -0.7103
vn 0.7103 0.0862 -0.6986
vn 0.6986 0.0862 0.7103
vn -0.7103 0.0862 0.6986
vn 0.9792 0.2029 0.0081
vn 0.3463 -0.8741 -0.3406
vn 0.3406 -0.8741 0.3463
vn -0.3463 -0.8741 0.3406
vn 0.0040 -0.8741 -0.4857
vn 0.4857 -0.8741 0.0040
vn -0.0040 -0.8741 0.4857
vn -0.4857 -0.8741 -0.0040
vn -0.0081 0.1793 0.9838
vn -0.9878 0.1558 -0.0082
vn -0.6919 0.1629 -0.7034
vn 0.6991 0.1962 -0.6876
vn 0.6876 0.1959 0.6991
vn -0.7034 0.1626 0.6919
vn 0.0081 0.1797 -0.9837
vn 0.7033 -0.1041 0.7033
vn -0.7033 -0.1041 0.7033
vn 0.9946 -0.1034 -0.0000
vn -0.0000 -0.1034 -0.9946
vn -0.0000 -0.1034 0.9946
vn -0.9946 -0.1034 -0.0000
vn 0.7033 -0.1041 -0.7033
vn -0.7033 -0.1041 -0.7033
vn 0.6534 0.4001 -0.6426
vn 0.6427 0.4001 0.6534
vn -0.6534 0.4001 0.6426
vn -0.6427 0.4001 -0.6534
vn 0.5849 0.5718 -0.5753
vn 0.5784 0.5655 0.5880
vn -0.5814 0.5788 0.5719
vn 0.0068 0.5720 -0.8202
vn 0.8267 0.5626 0.0068
vn -0.0068 0.5655 0.8247
vn -0.8136 0.5814 -0.0067
vn -0.5688 0.5849 -0.5783
vn -0.7070 -0.0127 -0.7071
vn -0.7070 -0.0127 0.7071
vt 0.448135 0.841897
vt 0.447679 0.841897
vt 0.446604 0.841897
vt 0.447643 0.947549
vt 0.448045 0.947549
vt 0.447096 0.947549
vt 0.447654 0.947549
vt 0.448040 0.947549
vt 0.447085 0.947549
vt 0.446694 0.947549
vt 0.446699 0.947549
vt 0.446609 0.841897
vt 0.447692 0.841897
vt 0.448130 0.841897
vt 0.447047 0.841897
vt 0.447060 0.841897
vt 0.083673 0.828737
vt 0.080558 0.837491
vt 0.083629 0.837491
vt 0.083007 0.923043
vt 0.085673 0.911167
vt 0.083590 0.911167
vt 0.085716 0.837491
vt 0.083629 0.902934
vt 0.085716 0.902934
vt 0.214286 0.835182
vt 0.216372 0.900625
vt 0.214286 0.900625
vt 0.209128 0.835182
vt 0.211214 0.900625
vt 0.209128 0.900625
vt 0.080558 0.902934
vt 0.211214 0.835182
vt 0.078471 0.837491
vt 0.078471 0.902934
vt 0.080581 0.820038
vt 0.080478 0.819234
vt 0.078526 0.820038
vt 0.078367 0.828737
vt 0.085820 0.828737
vt 0.080513 0.828737
vt 0.081408 0.819234
vt 0.082778 0.819234
vt 0.083708 0.819234
vt 0.083605 0.820038
vt 0.085660 0.820038
vt 0.081485 0.966500
vt 0.081215 0.923043
vt 0.082971 0.923043
vt 0.080525 0.911167
vt 0.079923 0.923043
vt 0.078442 0.911167
vt 0.084263 0.923043
vt 0.081179 0.923043
vt 0.079938 0.923043
vt 0.080396 0.967147
vt 0.080601 0.966500
vt 0.083596 0.966500
vt 0.084249 0.923043
vt 0.082701 0.966500
vt 0.080591 0.966500
vt 0.082726 0.966500
vt 0.081461 0.966500
vt 0.083480 0.975903
vt 0.083791 0.967147
vt 0.083802 0.967147
vt 0.083585 0.966500
vt 0.080384 0.967147
vt 0.081402 0.967147
vt 0.082785 0.967147
vt 0.082631 0.975903
vt 0.081374 0.967147
vt 0.080639 0.975903
vt 0.081478 0.975903
vt 0.082813 0.967147
vt 0.083471 0.975903
vt 0.081455 0.975903
vt 0.082655 0.975903
vt 0.216372 0.835182
vt 0.080629 0.975903
s 0
usemtl Texture_Map
f 5/1/1 3/2/1 2/3/1
f 11/4/2 13/5/2 15/6/2
f 5/1/3 14/7/3 13/5/3
f 3/2/4 12/8/4 11/4/4
f 2/3/5 9/9/5 10/10/5
f 2/3/6 16/11/6 8/12/6
f 6/13/7 15/6/7 14/7/7
f 5/1/8 12/8/8 4/14/8
f 3/2/9 9/9/9 1/15/9
f 7/16/10 16/11/10 15/6/10
f 39/17/11 29/18/11 31/19/11
f 55/20/12 57/21/12 58/22/12
f 32/23/13 27/24/13 28/25/13
f 17/26/14 23/27/14 24/28/14
f 19/29/15 21/30/15 22/31/15
f 31/19/16 25/32/16 27/24/16
f 18/23/17 28/25/17 23/25/17
f 20/33/18 24/28/18 21/30/18
f 30/34/19 22/35/19 26/35/19
f 29/18/20 26/35/20 25/32/20
f 90/36/21 46/37/21 89/38/21
f 38/39/22 19/34/22 30/34/22
f 18/23/23 40/40/23 32/23/23
f 36/41/24 17/19/24 20/18/24
f 37/41/25 30/34/25 29/18/25
f 32/23/26 39/17/26 31/19/26
f 19/34/27 36/41/27 20/18/27
f 33/17/28 18/23/28 17/19/28
f 44/42/1 46/37/1 47/43/1
f 48/44/29 91/45/29 92/46/29
f 46/37/30 93/38/30 89/38/30
f 44/42/31 94/45/31 95/36/31
f 47/43/32 90/36/32 91/45/32
f 96/46/33 48/44/33 92/46/33
f 43/37/34 95/36/34 93/38/34
f 94/45/35 42/44/35 96/46/35
f 69/47/36 55/20/36 53/48/36
f 60/21/37 52/49/37 59/22/37
f 62/50/38 50/51/38 61/52/38
f 53/48/39 58/22/39 63/50/39
f 56/53/40 60/21/40 57/21/40
f 59/22/41 49/54/41 62/50/41
f 50/51/42 64/52/42 61/52/42
f 54/55/43 63/50/43 64/52/43
f 26/35/44 63/50/44 25/32/44
f 61/52/45 26/35/45 22/35/45
f 59/22/46 21/32/46 24/24/46
f 57/21/47 23/25/47 28/25/47
f 25/32/48 58/22/48 27/24/48
f 62/50/49 22/35/49 21/32/49
f 60/21/50 24/24/50 23/25/50
f 27/24/51 57/21/51 28/25/51
f 78/56/52 69/47/52 70/57/52
f 72/58/53 51/59/53 56/53/53
f 68/60/54 49/54/54 52/49/54
f 66/61/55 54/55/55 50/51/55
f 70/57/56 53/48/56 54/55/56
f 71/62/57 56/53/57 55/20/57
f 51/59/58 68/60/58 52/49/58
f 65/63/59 50/51/59 49/54/59
f 88/64/60 75/65/60 80/66/60
f 71/62/61 80/66/61 72/58/61
f 75/65/62 68/60/62 67/67/62
f 65/63/63 74/68/63 66/61/63
f 77/69/64 71/62/64 69/47/64
f 80/66/65 67/67/65 72/58/65
f 76/70/66 65/63/66 68/60/66
f 74/68/67 70/57/67 66/61/67
f 84/71/68 73/72/68 76/70/68
f 74/68/69 86/73/69 78/56/69
f 78/56/70 85/74/70 77/69/70
f 79/75/71 88/64/71 80/66/71
f 83/76/72 76/70/72 75/65/72
f 81/77/73 74/68/73 73/72/73
f 77/69/74 87/78/74 79/75/74
f 33/17/75 96/46/75 34/40/75
f 93/38/76 36/41/76 35/39/76
f 34/40/77 92/46/77 40/40/77
f 91/45/78 37/41/78 39/17/78
f 95/36/79 33/17/79 36/41/79
f 89/38/80 35/39/80 38/39/80
f 40/40/81 91/45/81 39/17/81
f 90/36/82 38/39/82 37/41/82
f 2/3/1 8/12/1 7/16/1
f 7/16/1 6/13/1 5/1/1
f 5/1/1 4/14/1 3/2/1
f 3/2/1 1/15/1 2/3/1
f 2/3/1 7/16/1 5/1/1
f 15/6/2 16/11/2 10/10/2
f 10/10/2 9/9/2 11/4/2
f 11/4/2 12/8/2 13/5/2
f 13/5/2 14/7/2 15/6/2
f 15/6/2 10/10/2 11/4/2
f 5/1/83 6/13/83 14/7/83
f 3/2/84 4/14/84 12/8/84
f 2/3/85 1/15/85 9/9/85
f 2/3/6 10/10/6 16/11/6
f 6/13/7 7/16/7 15/6/7
f 5/1/8 13/5/8 12/8/8
f 3/2/9 11/4/9 9/9/9
f 7/16/86 8/12/86 16/11/86
f 39/17/11 37/41/11 29/18/11
f 55/20/87 56/53/87 57/21/87
f 32/23/13 31/19/13 27/24/13
f 17/26/14 18/79/14 23/27/14
f 19/29/15 20/33/15 21/30/15
f 31/19/16 29/18/16 25/32/16
f 18/23/17 32/23/17 28/25/17
f 20/33/18 17/26/18 24/28/18
f 30/34/19 19/34/19 22/35/19
f 29/18/20 30/34/20 26/35/20
f 90/36/21 45/42/21 46/37/21
f 38/39/22 35/39/22 19/34/22
f 18/23/23 34/40/23 40/40/23
f 36/41/24 33/17/24 17/19/24
f 37/41/25 38/39/25 30/34/25
f 32/23/26 40/40/26 39/17/26
f 19/34/27 35/39/27 36/41/27
f 33/17/28 34/40/28 18/23/28
f 44/42/1 43/37/1 46/37/1
f 46/37/1 45/42/1 47/43/1
f 47/43/1 48/44/1 42/44/1
f 42/44/1 41/43/1 47/43/1
f 41/43/1 44/42/1 47/43/1
f 48/44/29 47/43/29 91/45/29
f 46/37/30 43/37/30 93/38/30
f 44/42/31 41/43/31 94/45/31
f 47/43/32 45/42/32 90/36/32
f 96/46/33 42/44/33 48/44/33
f 43/37/34 44/42/34 95/36/34
f 94/45/35 41/43/35 42/44/35
f 69/47/36 71/62/36 55/20/36
f 60/21/88 51/59/88 52/49/88
f 62/50/89 49/54/89 50/51/89
f 53/48/90 55/20/90 58/22/90
f 56/53/91 51/59/91 60/21/91
f 59/22/92 52/49/92 49/54/92
f 50/51/93 54/55/93 64/52/93
f 54/55/94 53/48/94 63/50/94
f 26/35/95 64/52/95 63/50/95
f 61/52/45 64/52/45 26/35/45
f 59/22/46 62/50/46 21/32/46
f 57/21/47 60/21/47 23/25/47
f 25/32/48 63/50/48 58/22/48
f 62/50/96 61/52/96 22/35/96
f 60/21/50 59/22/50 24/24/50
f 27/24/51 58/22/51 57/21/51
f 78/56/52 77/69/52 69/47/52
f 72/58/53 67/67/53 51/59/53
f 68/60/54 65/63/54 49/54/54
f 66/61/55 70/57/55 54/55/55
f 70/57/56 69/47/56 53/48/56
f 71/62/57 72/58/57 56/53/57
f 51/59/58 67/67/58 68/60/58
f 65/63/59 66/61/59 50/51/59
f 88/64/60 83/76/60 75/65/60
f 71/62/61 79/75/61 80/66/61
f 75/65/62 76/70/62 68/60/62
f 65/63/63 73/72/63 74/68/63
f 77/69/64 79/75/64 71/62/64
f 80/66/65 75/65/65 67/67/65
f 76/70/66 73/72/66 65/63/66
f 74/68/67 78/56/67 70/57/67
f 84/71/68 81/77/68 73/72/68
f 74/68/69 82/80/69 86/73/69
f 78/56/70 86/73/70 85/74/70
f 79/75/71 87/78/71 88/64/71
f 83/76/72 84/71/72 76/70/72
f 81/77/73 82/80/73 74/68/73
f 77/69/74 85/74/74 87/78/74
f 33/17/75 94/45/75 96/46/75
f 93/38/76 95/36/76 36/41/76
f 34/40/77 96/46/77 92/46/77
f 91/45/78 90/36/78 37/41/78
f 95/36/79 94/45/79 33/17/79
f 89/38/80 93/38/80 35/39/80
f 40/40/81 92/46/81 91/45/81
f 90/36/82 89/38/82 38/39/82
