# Blender 4.4.0
# www.blender.org
mtllib Prop_Letterbox_SignalFlag_01.mtl
o Prop_Letterbox_SignalFlag_01
v 0.006482 0.031433 -0.134608
v 0.006482 0.031433 -0.106074
v 0.010231 0.031433 -0.134608
v 0.010231 0.031433 -0.106074
v 0.006482 0.000001 -0.134608
v 0.006482 0.000001 -0.106074
v 0.010231 0.000001 -0.134608
v 0.010231 0.000001 -0.106074
v 0.006161 0.044871 -0.138577
v 0.006161 0.031432 -0.138577
v 0.010552 0.031432 -0.138577
v 0.010552 0.044871 -0.138577
v 0.005513 0.039445 0.011392
v 0.005513 0.047139 -0.003486
v 0.005513 0.043383 0.009399
v 0.005513 0.046200 0.003953
v 0.005513 0.029164 -0.003486
v 0.005513 0.036858 0.011392
v 0.005513 0.030103 0.003953
v 0.005513 0.032920 0.009399
v 0.011200 0.047139 -0.003486
v 0.011200 0.039445 0.011392
v 0.011200 0.046200 0.003953
v 0.011200 0.043383 0.009399
v 0.011200 0.036858 0.011392
v 0.011200 0.029164 -0.003486
v 0.011200 0.032920 0.009399
v 0.011200 0.030103 0.003953
v 0.013103 0.035597 -0.006149
v 0.013103 0.040409 -0.005468
v 0.013103 0.043329 -0.001583
v 0.013103 0.042647 0.003229
v 0.013103 0.038763 0.006149
v 0.013103 0.033951 0.005467
v 0.013103 0.031031 0.001582
v 0.013103 0.031713 -0.003229
v -0.009469 0.043329 -0.001583
v -0.009469 0.042647 0.003229
v -0.009469 0.035597 -0.006149
v -0.009469 0.040409 -0.005468
v -0.009469 0.031713 -0.003229
v -0.009469 0.033951 0.005467
v -0.009469 0.031031 0.001582
v -0.009469 0.038763 0.006149
v -0.020956 0.040943 -0.006371
v -0.020956 0.035336 -0.007166
v -0.020956 0.044346 -0.001845
v -0.020956 0.043551 0.003763
v -0.020956 0.039024 0.007166
v -0.020956 0.033417 0.006371
v -0.020956 0.030014 0.001844
v -0.020956 0.030809 -0.003763
v -0.009469 0.043551 0.003763
v -0.009469 0.040943 -0.006371
v -0.009469 0.030014 0.001844
v -0.009469 0.039024 0.007166
v -0.009469 0.044346 -0.001845
v -0.009469 0.035336 -0.007166
v -0.009469 0.030809 -0.003763
v -0.009469 0.033417 0.006371
vn -0.0000 -1.0000 -0.0000
vn -0.0000 -0.0000 1.0000
vn -1.0000 -0.0000 -0.0000
vn -0.0000 -0.0000 -1.0000
vn 1.0000 -0.0000 -0.0000
vn -0.0000 -0.9999 -0.0168
vn 1.0000 -0.0000 -0.0048
vn -0.0000 0.4516 0.8922
vn -0.0000 0.8883 0.4594
vn -0.0000 0.9921 0.1253
vn -0.0000 -0.9921 0.1253
vn -0.0000 -0.8883 0.4594
vn -0.0000 -0.4516 0.8922
vn -0.0000 0.9999 -0.0168
vn -0.0000 0.9901 0.1403
vn -0.0000 0.1403 -0.9901
vn -0.0000 -0.6009 -0.7993
vn -0.0000 -0.7993 0.6009
vn -0.0000 0.6009 0.7993
vn -0.0000 0.7993 -0.6009
vn -0.0000 -0.9901 -0.1403
vn -0.0000 -0.1403 0.9901
vn -1.0000 -0.0000 -0.0048
vt 0.208931 0.418068
vt 0.209787 0.418068
vt 0.208931 0.525441
vt 0.209787 0.525441
vt 0.208710 0.552812
vt 0.210008 0.543976
vt 0.210008 0.552812
vt 0.208710 0.575887
vt 0.208710 0.579097
vt 0.208710 0.520901
vt 0.208858 0.525440
vt 0.210008 0.517692
vt 0.208710 0.517692
vt 0.208858 0.571348
vt 0.209860 0.525440
vt 0.210008 0.579097
vt 0.208710 0.566267
vt 0.210008 0.575887
vt 0.210008 0.530522
vt 0.208710 0.530522
vt 0.208710 0.543976
vt 0.209860 0.571348
vt 0.475432 0.698292
vt 0.478773 0.699803
vt 0.475432 0.699803
vt 0.478773 0.693331
vt 0.475432 0.682667
vt 0.475432 0.693331
vt 0.478773 0.674057
vt 0.475432 0.674057
vt 0.475432 0.672546
vt 0.478773 0.679018
vt 0.475432 0.679018
vt 0.478773 0.689682
vt 0.475432 0.689682
vt 0.475432 0.690262
vt 0.475432 0.702056
vt 0.475432 0.672054
vt 0.475432 0.677835
vt 0.473732 0.677835
vt 0.473732 0.690262
vt 0.473732 0.670293
vt 0.473732 0.672054
vt 0.473732 0.702056
vt 0.475432 0.694514
vt 0.473732 0.694514
vt 0.473732 0.700295
vt 0.475432 0.670293
vt 0.475432 0.682087
vt 0.473732 0.682087
vt 0.475432 0.700295
vt 0.478773 0.682667
vt 0.210008 0.520901
vt 0.210008 0.566267
vt 0.478773 0.698292
vt 0.478773 0.672546
s 0
usemtl Texture_Map
f 5/1/1 8/2/1 6/1/1
f 2/3/2 8/2/2 4/4/2
f 1/3/3 6/1/3 2/3/3
f 3/4/4 5/1/4 1/3/4
f 4/4/5 7/2/5 3/4/5
f 13/5/2 25/6/2 22/7/2
f 16/8/3 14/9/3 19/10/3
f 10/11/6 26/12/6 17/13/6
f 9/14/4 11/15/4 10/11/4
f 26/12/7 11/15/7 21/16/7
f 22/7/8 15/17/8 13/5/8
f 15/17/9 23/18/9 16/8/9
f 16/8/10 21/16/10 14/9/10
f 26/12/11 19/10/11 17/13/11
f 19/10/12 27/19/12 20/20/12
f 27/19/13 18/21/13 20/20/13
f 14/9/14 12/22/14 9/14/14
f 38/23/15 31/24/15 37/25/15
f 30/26/16 39/27/16 40/28/16
f 39/27/17 36/29/17 41/30/17
f 43/31/18 34/32/18 42/33/18
f 33/34/19 38/23/19 44/35/19
f 31/24/20 40/28/20 37/25/20
f 36/29/21 43/31/21 41/30/21
f 42/33/22 33/34/22 44/35/22
f 38/23/5 56/36/5 44/35/5
f 40/28/5 57/37/5 37/25/5
f 43/31/5 59/38/5 41/30/5
f 42/33/5 56/36/5 60/39/5
f 50/40/22 56/36/22 49/41/22
f 59/38/21 51/42/21 52/43/21
f 47/44/20 54/45/20 45/46/20
f 56/36/19 48/47/19 49/41/19
f 55/48/18 50/40/18 51/42/18
f 58/49/17 52/43/17 46/50/17
f 54/45/16 46/50/16 45/46/16
f 53/51/15 47/44/15 48/47/15
f 43/31/5 60/39/5 55/48/5
f 41/30/5 58/49/5 39/27/5
f 39/27/5 54/45/5 40/28/5
f 38/23/5 57/37/5 53/51/5
f 36/29/5 29/52/5 33/34/5
f 5/1/1 7/2/1 8/2/1
f 2/3/2 6/1/2 8/2/2
f 1/3/3 5/1/3 6/1/3
f 3/4/4 7/2/4 5/1/4
f 4/4/5 8/2/5 7/2/5
f 13/5/2 18/21/2 25/6/2
f 14/9/23 9/14/23 10/11/23
f 10/11/23 17/13/23 14/9/23
f 17/13/3 19/10/3 14/9/3
f 19/10/3 20/20/3 15/17/3
f 20/20/3 18/21/3 15/17/3
f 18/21/3 13/5/3 15/17/3
f 15/17/3 16/8/3 19/10/3
f 10/11/6 11/15/6 26/12/6
f 9/14/4 12/22/4 11/15/4
f 11/15/7 12/22/7 21/16/7
f 21/16/5 23/18/5 28/53/5
f 23/18/5 24/54/5 28/53/5
f 24/54/5 22/7/5 25/6/5
f 25/6/5 27/19/5 24/54/5
f 27/19/5 28/53/5 24/54/5
f 28/53/5 26/12/5 21/16/5
f 22/7/8 24/54/8 15/17/8
f 15/17/9 24/54/9 23/18/9
f 16/8/10 23/18/10 21/16/10
f 26/12/11 28/53/11 19/10/11
f 19/10/12 28/53/12 27/19/12
f 27/19/13 25/6/13 18/21/13
f 14/9/14 21/16/14 12/22/14
f 38/23/15 32/55/15 31/24/15
f 30/26/16 29/52/16 39/27/16
f 39/27/17 29/52/17 36/29/17
f 43/31/18 35/56/18 34/32/18
f 33/34/19 32/55/19 38/23/19
f 31/24/20 30/26/20 40/28/20
f 36/29/21 35/56/21 43/31/21
f 42/33/22 34/32/22 33/34/22
f 38/23/5 53/51/5 56/36/5
f 40/28/5 54/45/5 57/37/5
f 43/31/5 55/48/5 59/38/5
f 42/33/5 44/35/5 56/36/5
f 50/40/22 60/39/22 56/36/22
f 59/38/21 55/48/21 51/42/21
f 47/44/20 57/37/20 54/45/20
f 56/36/19 53/51/19 48/47/19
f 55/48/18 60/39/18 50/40/18
f 58/49/17 59/38/17 52/43/17
f 54/45/16 58/49/16 46/50/16
f 53/51/15 57/37/15 47/44/15
f 43/31/5 42/33/5 60/39/5
f 41/30/5 59/38/5 58/49/5
f 39/27/5 58/49/5 54/45/5
f 38/23/5 37/25/5 57/37/5
f 29/52/5 30/26/5 31/24/5
f 31/24/5 32/55/5 29/52/5
f 32/55/5 33/34/5 29/52/5
f 33/34/5 34/32/5 35/56/5
f 35/56/5 36/29/5 33/34/5
