# Blender 4.4.0
# www.blender.org
mtllib Prop_Can_02.mtl
o Prop_Can_02
v 0.009801 -0.000000 -0.036577
v -0.009801 -0.000000 -0.036577
v -0.026776 -0.000000 -0.026776
v -0.036577 -0.000000 -0.009801
v -0.036577 -0.000000 0.009801
v -0.026776 -0.000000 0.026776
v -0.009801 -0.000000 0.036577
v 0.009801 -0.000000 0.036577
v 0.026776 -0.000000 0.026776
v 0.036577 -0.000000 0.009801
v 0.036577 -0.000000 -0.009801
v 0.026776 -0.000000 -0.026776
v 0.055000 0.159239 -0.014737
v -0.055000 0.159239 -0.014737
v -0.014737 0.159239 0.055000
v 0.055000 0.159239 0.014737
v -0.040263 0.159239 -0.040263
v -0.014737 0.159239 -0.055000
v 0.014737 0.159239 -0.055000
v 0.040263 0.159239 -0.040263
v -0.040263 0.159239 0.040263
v -0.055000 0.159239 0.014737
v 0.040263 0.159239 0.040263
v 0.014737 0.159239 0.055000
v 0.014327 0.012807 0.053470
v 0.039143 0.012807 0.039143
v -0.053470 0.012807 0.014327
v -0.039143 0.012807 0.039143
v 0.039143 0.012807 -0.039143
v 0.014327 0.012807 -0.053470
v -0.014327 0.012807 -0.053470
v -0.039143 0.012807 -0.039143
v 0.053470 0.012807 0.014327
v -0.014327 0.012807 0.053470
v -0.053470 0.012807 -0.014327
v 0.053470 0.012807 -0.014327
v 0.011136 0.190000 -0.041559
v -0.011136 0.190000 -0.041559
v 0.030423 0.190000 0.030423
v -0.011136 0.190000 0.041559
v 0.011136 0.190000 0.041559
v -0.030423 0.190000 -0.030423
v -0.041559 0.190000 -0.011136
v -0.041559 0.190000 0.011136
v -0.030423 0.190000 0.030423
v 0.030423 0.190000 -0.030423
v 0.041559 0.190000 0.011136
v 0.041559 0.190000 -0.011136
v 0.043133 0.184733 -0.011558
v 0.043133 0.184733 0.011558
v 0.031576 0.184733 -0.031576
v -0.031576 0.184733 0.031576
v -0.043133 0.184733 0.011558
v -0.043133 0.184733 -0.011558
v -0.031576 0.184733 -0.031576
v 0.011558 0.184733 0.043133
v -0.011558 0.184733 0.043133
v 0.031576 0.184733 0.031576
v -0.011558 0.184733 -0.043133
v 0.011558 0.184733 -0.043133
v 0.011186 0.184733 -0.041746
v -0.011186 0.184733 -0.041746
v 0.030561 0.184733 0.030561
v -0.011186 0.184733 0.041746
v 0.011186 0.184733 0.041746
v -0.030561 0.184733 -0.030561
v -0.041747 0.184733 -0.011186
v -0.041746 0.184733 0.011186
v -0.030561 0.184733 0.030561
v 0.030561 0.184733 -0.030561
v 0.041746 0.184733 0.011186
v 0.041746 0.184733 -0.011186
v 0.031576 0.190000 0.031576
v 0.011558 0.190000 0.043133
v 0.011558 0.190000 -0.043133
v 0.031576 0.190000 -0.031576
v -0.031576 0.190000 -0.031576
v -0.011558 0.190000 -0.043133
v -0.031576 0.190000 0.031576
v -0.043133 0.190000 0.011558
v -0.043133 0.190000 -0.011558
v 0.043133 0.190000 -0.011558
v -0.011558 0.190000 0.043133
v 0.043133 0.190000 0.011558
v 0.029781 0.187486 0.029781
v 0.010900 0.187486 0.040681
v 0.010900 0.187486 -0.040681
v 0.029781 0.187486 -0.029781
v -0.029781 0.187486 -0.029781
v -0.010901 0.187486 -0.040681
v -0.029781 0.187486 0.029781
v -0.040681 0.187486 0.010901
v -0.040681 0.187486 -0.010900
v 0.040681 0.187486 -0.010901
v -0.010901 0.187486 0.040681
v 0.040681 0.187486 0.010900
v -0.006841 0.187486 -0.002347
v 0.006841 0.187486 -0.002347
v -0.013334 0.187486 -0.029014
v 0.013334 0.187486 -0.029014
v -0.000000 0.187486 -0.035108
v -0.006841 0.188529 -0.002347
v 0.006841 0.188529 -0.002347
v -0.013334 0.188529 -0.029014
v 0.013334 0.188529 -0.029014
v -0.000000 0.188529 -0.002347
v -0.000000 0.188529 -0.035108
v -0.007409 0.187486 -0.023541
v -0.007409 0.188529 -0.023541
v 0.007409 0.187486 -0.023541
v 0.007409 0.188529 -0.023541
v -0.000000 0.187486 -0.026927
v -0.000000 0.188529 -0.026927
v -0.003802 0.187486 -0.008722
v -0.003802 0.188529 -0.008722
v 0.003802 0.188529 -0.008722
v 0.003802 0.187486 -0.008722
v -0.000000 0.188529 -0.008722
vn 0.9999 -0.0104 -0.0000
vn -0.5000 -0.0104 -0.8660
vn -0.5000 -0.0104 0.8660
vn 0.5000 -0.0104 -0.8660
vn 0.8660 -0.0104 0.5000
vn 0.8660 -0.0104 -0.5000
vn -0.9999 -0.0104 -0.0000
vn -0.0000 -0.0104 -0.9999
vn 0.5000 -0.0104 0.8660
vn -0.8660 -0.0104 -0.5000
vn -0.8660 -0.0104 0.5000
vn -0.0000 -0.0104 0.9999
vn -0.0000 -0.7969 -0.6041
vn 0.5232 -0.7969 -0.3021
vn -0.6041 -0.7969 -0.0000
vn -0.0000 -0.7969 0.6041
vn 0.6041 -0.7969 -0.0000
vn -0.5232 -0.7969 -0.3021
vn -0.3021 -0.7969 0.5232
vn 0.5232 -0.7969 0.3021
vn -0.3021 -0.7969 -0.5232
vn 0.3021 -0.7969 -0.5232
vn -0.5232 -0.7969 0.3021
vn -0.8660 -0.0000 0.5000
vn 0.8660 -0.0000 -0.5000
vn 0.8660 -0.0000 0.5000
vn -0.5000 -0.0000 0.8660
vn 0.5000 -0.0000 -0.8660
vn -1.0000 -0.0000 -0.0000
vn -0.4436 0.4613 0.7684
vn -0.0000 0.4613 -0.8873
vn 0.4436 0.4613 -0.7684
vn -0.4436 0.4613 -0.7684
vn 0.7684 0.4613 0.4436
vn -0.8873 0.4613 -0.0000
vn -0.0000 0.4613 0.8873
vn -0.7684 0.4613 -0.4436
vn -0.7684 0.4613 0.4436
vn 0.7684 0.4613 -0.4436
vn 0.8873 0.4613 -0.0000
vn 0.3021 -0.7969 0.5232
vn -0.5000 -0.0000 -0.8660
vn -0.8660 -0.0000 -0.5000
vn -0.0000 -0.0000 1.0000
vn -0.8176 0.3295 0.4721
vn -0.0000 -0.0000 -1.0000
vn 1.0000 -0.0000 -0.0000
vn 0.5000 -0.0000 0.8660
vn -0.0000 -1.0000 -0.0000
vn -0.0000 1.0000 -0.0000
vn 0.4721 0.3295 0.8176
vn -0.9441 0.3295 -0.0000
vn -0.0000 0.3295 -0.9441
vn 0.8177 0.3295 -0.4721
vn -0.0000 0.3296 0.9441
vn -0.4721 0.3295 -0.8176
vn 0.9441 0.3295 -0.0000
vn 0.8177 0.3295 0.4721
vn 0.4721 0.3295 -0.8176
vn -0.4721 0.3295 0.8177
vn -0.8176 0.3295 -0.4721
vn 0.4436 0.4613 0.7684
vn 0.4157 -0.0000 -0.9095
vn -0.4157 -0.0000 -0.9095
vn 0.9716 -0.0000 0.2365
vn -0.9716 -0.0000 0.2365
vn -0.4157 -0.0000 0.9095
vn -0.9716 -0.0000 -0.2365
vn 0.4157 -0.0000 0.9095
vn 0.9716 -0.0000 -0.2365
vn 0.4721 0.3295 0.8177
vn 0.8176 0.3295 -0.4721
vn -0.0000 0.3295 0.9441
vn 0.8176 0.3295 0.4721
vn -0.4721 0.3295 0.8176
vn -0.9716 -0.0000 0.2366
vn 0.9716 -0.0000 -0.2366
vt 0.336349 0.430299
vt 0.336479 0.514563
vt 0.328460 0.430299
vt 0.330539 0.514563
vt 0.330574 0.430299
vt 0.328365 0.514563
vt 0.333015 0.430299
vt 0.335224 0.514563
vt 0.335129 0.430299
vt 0.327240 0.430299
vt 0.327110 0.514563
vt 0.333050 0.514563
vt 0.333050 0.514563
vt 0.330539 0.514563
vt 0.202368 0.761189
vt 0.202944 0.763257
vt 0.202836 0.761189
vt 0.203242 0.761189
vt 0.203880 0.763257
vt 0.203476 0.761189
vt 0.201727 0.761189
vt 0.201324 0.763257
vt 0.202259 0.763257
vt 0.201962 0.761189
vt 0.201666 0.763257
vt 0.203538 0.763257
vt 0.202286 0.763641
vt 0.202212 0.786666
vt 0.202212 0.763641
vt 0.202689 0.763641
vt 0.202763 0.786666
vt 0.202763 0.763641
vt 0.202689 0.786666
vt 0.202414 0.763641
vt 0.202286 0.786666
vt 0.202562 0.763641
vt 0.202334 0.791023
vt 0.201639 0.786906
vt 0.202250 0.786906
vt 0.202869 0.791023
vt 0.202954 0.786906
vt 0.203564 0.786906
vt 0.203600 0.791023
vt 0.203917 0.786906
vt 0.201287 0.786906
vt 0.201604 0.791023
vt 0.201871 0.791023
vt 0.202414 0.786666
vt 0.202682 0.786666
vt 0.202748 0.775674
vt 0.202753 0.786666
vt 0.202562 0.786666
vt 0.202559 0.786666
vt 0.202417 0.786666
vt 0.202293 0.786666
vt 0.202222 0.786666
vt 0.202297 0.775674
vt 0.202557 0.775674
vt 0.202678 0.775674
vt 0.202418 0.775674
vt 0.202228 0.775674
vt 0.202659 0.774353
vt 0.202425 0.774353
vt 0.202317 0.774353
vt 0.236089 0.708644
vt 0.235579 0.700132
vt 0.236009 0.696470
vt 0.234075 0.696470
vt 0.233995 0.708644
vt 0.233157 0.711787
vt 0.235042 0.715288
vt 0.236927 0.711787
vt 0.234505 0.700132
vt 0.235042 0.700132
vt 0.235042 0.710589
vt 0.235042 0.696470
vt 0.203332 0.791023
vt 0.202550 0.774353
vt 0.202721 0.774353
vt 0.202254 0.774353
s 0
usemtl Texture_Map
f 36/1/1 16/2/1 33/1/1
f 32/3/2 18/4/2 31/5/2
f 34/5/3 21/6/3 28/3/3
f 30/7/4 20/8/4 29/9/4
f 33/1/5 23/8/5 26/9/5
f 29/9/6 13/2/6 36/1/6
f 27/10/7 14/11/7 35/10/7
f 31/5/8 19/12/8 30/7/8
f 26/9/9 24/13/9 25/7/9
f 35/10/10 17/6/10 32/3/10
f 28/3/11 22/11/11 27/10/11
f 25/7/12 15/14/12 34/5/12
f 2/15/13 30/16/13 1/17/13
f 12/18/14 36/19/14 11/20/14
f 5/21/15 35/22/15 4/21/15
f 8/17/16 34/23/16 7/15/16
f 11/20/17 33/19/17 10/20/17
f 3/24/18 35/22/18 32/25/18
f 6/24/19 34/23/19 28/25/19
f 10/20/20 26/26/20 9/18/20
f 3/24/21 31/23/21 2/15/21
f 12/18/22 30/16/22 29/26/22
f 6/24/23 27/22/23 5/21/23
f 52/27/24 80/28/24 53/29/24
f 51/30/25 82/31/25 49/32/25
f 50/32/26 73/33/26 58/30/26
f 57/34/27 79/35/27 52/27/27
f 60/36/28 76/33/28 51/30/28
f 53/29/29 81/28/29 54/29/29
f 64/37/30 21/38/30 15/39/30
f 18/39/31 61/40/31 19/41/31
f 61/40/32 20/42/32 19/41/32
f 17/38/33 62/37/33 18/39/33
f 71/43/34 23/42/34 16/44/34
f 22/45/35 67/46/35 14/45/35
f 24/41/36 64/37/36 15/39/36
f 67/46/37 17/38/37 14/45/37
f 69/47/38 22/45/38 21/38/38
f 20/42/39 72/43/39 13/44/39
f 13/44/40 71/43/40 16/44/40
f 9/18/41 25/16/41 8/17/41
f 55/27/42 78/48/42 59/34/42
f 54/29/43 77/35/43 55/27/43
f 56/36/44 83/48/44 57/34/44
f 46/49/45 94/50/45 48/51/45
f 59/34/46 75/52/46 60/36/46
f 49/32/47 84/31/47 50/32/47
f 58/30/48 74/52/48 56/36/48
f 52/27/49 54/29/49 51/30/49
f 41/53/50 73/33/50 39/49/50
f 46/49/50 75/52/50 37/53/50
f 38/54/50 77/35/50 42/55/50
f 44/56/50 79/35/50 45/55/50
f 42/55/50 81/28/50 43/56/50
f 48/51/50 76/33/50 46/49/50
f 40/54/50 74/52/50 41/53/50
f 43/56/50 80/28/50 44/56/50
f 39/49/50 84/31/50 47/51/50
f 47/51/50 82/31/50 48/51/50
f 37/53/50 78/48/50 38/54/50
f 45/55/50 83/48/50 40/54/50
f 91/57/50 86/58/50 88/59/50
f 42/55/51 90/60/51 38/54/51
f 48/51/52 96/50/52 47/51/52
f 41/53/53 95/60/53 40/54/53
f 45/55/54 92/61/54 44/56/54
f 38/54/55 87/58/55 37/53/55
f 39/49/56 86/58/56 41/53/56
f 44/56/57 93/61/57 43/56/57
f 43/56/58 89/57/58 42/55/58
f 40/54/59 91/57/59 45/55/59
f 37/53/60 88/59/60 46/49/60
f 39/49/61 96/50/61 85/59/61
f 9/62/49 7/63/49 3/64/49
f 23/42/62 65/40/62 24/41/62
f 111/65/50 116/66/50 103/67/50
f 102/68/50 109/69/50 104/70/50
f 101/71/63 105/72/63 100/72/63
f 99/70/64 107/71/64 101/71/64
f 114/73/46 115/73/46 118/74/46
f 100/72/65 103/67/65 98/67/65
f 97/68/66 104/70/66 99/70/66
f 111/65/67 112/75/67 110/65/67
f 116/66/68 110/65/68 117/66/68
f 113/75/69 108/69/69 112/75/69
f 109/69/70 114/73/70 108/69/70
f 98/67/44 103/67/44 106/76/44
f 36/1/1 13/2/1 16/2/1
f 32/3/2 17/6/2 18/4/2
f 34/5/3 15/14/3 21/6/3
f 30/7/4 19/12/4 20/8/4
f 33/1/5 16/2/5 23/8/5
f 29/9/6 20/8/6 13/2/6
f 27/10/7 22/11/7 14/11/7
f 31/5/8 18/4/8 19/12/8
f 26/9/9 23/8/9 24/13/9
f 35/10/10 14/11/10 17/6/10
f 28/3/11 21/6/11 22/11/11
f 25/7/12 24/13/12 15/14/12
f 2/15/13 31/23/13 30/16/13
f 12/18/14 29/26/14 36/19/14
f 5/21/15 27/22/15 35/22/15
f 8/17/16 25/16/16 34/23/16
f 11/20/17 36/19/17 33/19/17
f 3/24/18 4/21/18 35/22/18
f 6/24/19 7/15/19 34/23/19
f 10/20/20 33/19/20 26/26/20
f 3/24/21 32/25/21 31/23/21
f 12/18/22 1/17/22 30/16/22
f 6/24/23 28/25/23 27/22/23
f 52/27/24 79/35/24 80/28/24
f 51/30/25 76/33/25 82/31/25
f 50/32/26 84/31/26 73/33/26
f 57/34/27 83/48/27 79/35/27
f 60/36/28 75/52/28 76/33/28
f 53/29/29 80/28/29 81/28/29
f 64/37/30 69/47/30 21/38/30
f 18/39/31 62/37/31 61/40/31
f 61/40/32 70/77/32 20/42/32
f 17/38/33 66/47/33 62/37/33
f 71/43/34 63/77/34 23/42/34
f 22/45/35 68/46/35 67/46/35
f 24/41/36 65/40/36 64/37/36
f 67/46/37 66/47/37 17/38/37
f 69/47/38 68/46/38 22/45/38
f 20/42/39 70/77/39 72/43/39
f 13/44/40 72/43/40 71/43/40
f 9/18/41 26/26/41 25/16/41
f 55/27/42 77/35/42 78/48/42
f 54/29/43 81/28/43 77/35/43
f 56/36/44 74/52/44 83/48/44
f 46/49/45 88/59/45 94/50/45
f 59/34/46 78/48/46 75/52/46
f 49/32/47 82/31/47 84/31/47
f 58/30/48 73/33/48 74/52/48
f 56/36/49 57/34/49 52/27/49
f 52/27/49 53/29/49 54/29/49
f 54/29/49 55/27/49 51/30/49
f 55/27/49 59/34/49 51/30/49
f 59/34/49 60/36/49 51/30/49
f 51/30/49 49/32/49 50/32/49
f 50/32/49 58/30/49 51/30/49
f 58/30/49 56/36/49 51/30/49
f 56/36/49 52/27/49 51/30/49
f 41/53/50 74/52/50 73/33/50
f 46/49/50 76/33/50 75/52/50
f 38/54/50 78/48/50 77/35/50
f 44/56/50 80/28/50 79/35/50
f 42/55/50 77/35/50 81/28/50
f 48/51/50 82/31/50 76/33/50
f 40/54/50 83/48/50 74/52/50
f 43/56/50 81/28/50 80/28/50
f 39/49/50 73/33/50 84/31/50
f 47/51/50 84/31/50 82/31/50
f 37/53/50 75/52/50 78/48/50
f 45/55/50 79/35/50 83/48/50
f 86/58/50 85/59/50 88/59/50
f 85/59/50 96/50/50 88/59/50
f 96/50/50 94/50/50 88/59/50
f 88/59/50 87/58/50 90/60/50
f 90/60/50 89/57/50 88/59/50
f 89/57/50 93/61/50 88/59/50
f 93/61/50 92/61/50 91/57/50
f 91/57/50 95/60/50 86/58/50
f 93/61/50 91/57/50 88/59/50
f 42/55/71 89/57/71 90/60/71
f 48/51/52 94/50/52 96/50/52
f 41/53/53 86/58/53 95/60/53
f 45/55/72 91/57/72 92/61/72
f 38/54/73 90/60/73 87/58/73
f 39/49/56 85/59/56 86/58/56
f 44/56/57 92/61/57 93/61/57
f 43/56/74 93/61/74 89/57/74
f 40/54/59 95/60/59 91/57/59
f 37/53/75 87/58/75 88/59/75
f 39/49/61 47/51/61 96/50/61
f 3/64/49 2/63/49 1/78/49
f 1/78/49 12/62/49 11/79/49
f 11/79/49 10/79/49 9/62/49
f 9/62/49 8/78/49 7/63/49
f 7/63/49 6/64/49 3/64/49
f 6/64/49 5/80/49 3/64/49
f 5/80/49 4/80/49 3/64/49
f 3/64/49 1/78/49 11/79/49
f 11/79/49 9/62/49 3/64/49
f 23/42/62 63/77/62 65/40/62
f 118/74/50 106/76/50 116/66/50
f 106/76/50 103/67/50 116/66/50
f 105/72/50 107/71/50 113/75/50
f 105/72/50 113/75/50 111/65/50
f 105/72/50 111/65/50 103/67/50
f 102/68/50 106/76/50 115/73/50
f 106/76/50 118/74/50 115/73/50
f 113/75/50 107/71/50 104/70/50
f 102/68/50 115/73/50 109/69/50
f 109/69/50 113/75/50 104/70/50
f 101/71/63 107/71/63 105/72/63
f 99/70/64 104/70/64 107/71/64
f 118/74/46 116/66/46 117/66/46
f 117/66/46 114/73/46 118/74/46
f 100/72/65 105/72/65 103/67/65
f 97/68/76 102/68/76 104/70/76
f 111/65/67 113/75/67 112/75/67
f 116/66/68 111/65/68 110/65/68
f 113/75/69 109/69/69 108/69/69
f 109/69/77 115/73/77 114/73/77
f 102/68/44 97/68/44 106/76/44
f 97/68/44 98/67/44 106/76/44
