# Blender 4.4.0
# www.blender.org
mtllib Prop_Bed_02.mtl
o Prop_Bed_02
v -0.472963 0.174459 1.043379
v -0.472918 0.178997 -0.716044
v -0.512045 0.162842 1.025690
v -0.445584 0.416907 1.043379
v -0.471499 0.399226 1.043379
v -0.512865 0.411633 -0.623918
v -0.475920 0.397046 -0.702161
v -0.450013 0.414670 -0.699809
v -0.464010 0.410855 -0.702736
v -0.459352 0.413036 1.040976
v -0.450818 0.455751 1.025690
v -0.513058 0.160239 -0.625067
v -0.470446 0.394604 -0.621371
v -0.480159 0.446292 1.023287
v -0.459832 0.406716 -0.622433
v -0.508397 0.412526 1.025690
v -0.471679 0.169795 -0.625931
v -0.453137 0.451952 -0.619907
v -0.447608 0.413342 -0.619575
v -0.473561 0.395727 -0.621508
v -0.509966 0.163581 -0.625098
v -0.461559 0.409446 -0.622435
v -0.509813 0.410444 -0.623691
v -0.482453 0.439147 -0.623481
v -0.465673 0.164756 -0.629421
v -0.466661 0.172176 -0.704872
v -0.454150 0.458231 -0.623087
v -0.456257 0.459574 -0.690202
v -0.448941 0.408229 -0.689342
v -0.460369 0.405133 -0.692110
v -0.446859 0.407168 -0.622638
v -0.469614 0.394362 -0.691194
v -0.516164 0.156993 -0.628365
v -0.517815 0.169602 -0.704516
v -0.488259 0.449245 -0.693861
v -0.517821 0.413862 -0.695330
v -0.467425 0.393477 -0.624193
v -0.458206 0.403994 -0.625359
v -0.515994 0.412829 -0.627168
v -0.486079 0.444267 -0.626743
v -0.492502 0.168476 1.043379
v -0.492355 0.178227 -0.715937
v -0.489913 0.405852 1.043379
v -0.448167 0.436313 1.043379
v -0.469717 0.429646 1.040976
v -0.494087 0.404321 -0.703296
v -0.474652 0.427428 -0.702754
v -0.452923 0.434074 -0.699537
v -0.490713 0.165892 -0.625399
v -0.492175 0.170405 -0.704627
v -0.490727 0.159440 -0.628691
v -0.447188 0.410253 -0.619637
v -0.453597 0.455095 -0.620021
v -0.484213 0.441681 -0.623645
v -0.468674 0.167310 -0.626017
v -0.490718 0.162696 -0.625386
v -0.297497 0.411641 1.052673
v -0.148787 0.412438 1.066959
v -0.300855 0.458396 1.034298
v -0.150517 0.458124 1.049270
v -0.155157 0.418149 -0.692320
v -0.290946 0.418992 -0.701142
v -0.154715 0.453930 -0.610444
v -0.300076 0.458885 -0.613859
v -0.295975 0.422804 -0.613547
v -0.288448 0.413265 -0.690342
v -0.153129 0.463268 -0.682389
v -0.294927 0.465531 -0.690312
v -0.151350 0.463278 -0.612769
v -0.298606 0.469434 -0.616773
v -0.293171 0.416205 -0.616290
v -0.293145 0.438880 -0.700988
v -0.156001 0.437619 -0.691620
v -0.149650 0.432034 1.066959
v -0.299163 0.439670 1.052292
v -0.152966 0.460185 -0.610294
v -0.299433 0.466359 -0.613945
v -0.294688 0.419514 -0.613506
v -0.473444 0.395926 -0.530133
v -0.461433 0.409650 -0.531533
v -0.509732 0.410563 -0.532225
v -0.482322 0.439554 -0.532998
v -0.472973 0.184936 -0.532884
v -0.453006 0.452168 -0.530270
v -0.447493 0.413544 -0.529092
v -0.511994 0.182115 -0.533832
v -0.492491 0.183939 -0.532863
v -0.149331 0.417824 -0.526814
v -0.296062 0.422739 -0.525334
v -0.151209 0.463012 -0.527661
v -0.300120 0.458858 -0.526570
v 0.472963 0.174459 1.043379
v 0.472918 0.170827 -0.716044
v 0.512044 0.162842 1.025690
v 0.445584 0.416907 1.043379
v 0.471498 0.399226 1.043379
v 0.512865 0.411633 -0.623918
v 0.475920 0.397046 -0.702161
v 0.450013 0.414670 -0.699809
v 0.464010 0.410855 -0.702736
v 0.459352 0.413036 1.040976
v 0.450818 0.455751 1.025690
v 0.513058 0.175266 -0.625067
v 0.470445 0.394604 -0.621371
v 0.480159 0.446292 1.023287
v 0.459832 0.406716 -0.622433
v 0.508397 0.412526 1.025690
v 0.471679 0.192490 -0.625931
v 0.453137 0.451952 -0.619907
v 0.447608 0.413342 -0.619575
v 0.473561 0.395727 -0.621508
v 0.509966 0.178515 -0.625098
v 0.461558 0.409446 -0.622435
v 0.509813 0.410444 -0.623691
v 0.482453 0.439147 -0.623481
v 0.465673 0.187913 -0.629421
v 0.466661 0.165195 -0.704872
v 0.454150 0.458231 -0.623087
v 0.456256 0.459574 -0.690202
v 0.448941 0.408229 -0.689342
v 0.460368 0.405133 -0.692110
v 0.446859 0.407168 -0.622638
v 0.469614 0.394362 -0.691194
v 0.516164 0.171511 -0.628365
v 0.517815 0.161561 -0.704516
v 0.488258 0.449245 -0.693861
v 0.517820 0.413862 -0.695330
v 0.467425 0.393477 -0.624193
v 0.458206 0.403994 -0.625359
v 0.515994 0.412829 -0.627168
v 0.486079 0.444267 -0.626743
v 0.492502 0.168476 1.043379
v 0.492355 0.168991 -0.715937
v 0.489913 0.405852 1.043379
v 0.448167 0.436313 1.043379
v 0.469717 0.429646 1.040976
v 0.494087 0.404321 -0.703296
v 0.474651 0.427428 -0.702754
v 0.452923 0.434074 -0.699537
v 0.490713 0.185212 -0.625399
v 0.492175 0.162770 -0.704627
v 0.490727 0.178739 -0.628691
v 0.447188 0.410253 -0.619637
v 0.453596 0.455095 -0.620021
v 0.484213 0.441681 -0.623645
v 0.468674 0.190552 -0.626017
v 0.490718 0.182261 -0.625386
v 0.297497 0.411641 1.052673
v 0.148787 0.412438 1.066959
v 0.300855 0.458396 1.034298
v 0.150517 0.458124 1.049270
v 0.155157 0.418149 -0.692025
v 0.292131 0.418992 -0.709442
v 0.154715 0.453930 -0.610444
v 0.300076 0.458885 -0.613859
v 0.295975 0.422804 -0.613547
v 0.289449 0.413265 -0.697352
v 0.153128 0.463268 -0.664603
v 0.294933 0.465531 -0.690356
v 0.151350 0.463278 -0.612769
v 0.298606 0.469434 -0.616773
v 0.293170 0.416205 -0.616290
v 0.293914 0.438880 -0.706370
v 0.156000 0.437619 -0.683990
v 0.149650 0.432034 1.066959
v 0.299162 0.439670 1.052292
v 0.152966 0.460185 -0.610294
v 0.299433 0.466359 -0.613945
v 0.294688 0.419514 -0.613506
v 0.473443 0.395926 -0.530133
v 0.461433 0.409650 -0.531533
v 0.509732 0.410563 -0.532225
v 0.482322 0.439554 -0.532998
v 0.472973 0.184970 -0.532884
v 0.453005 0.452168 -0.530270
v 0.447493 0.413544 -0.529092
v 0.511994 0.182831 -0.533832
v 0.492491 0.184305 -0.532863
v 0.149331 0.417824 -0.526814
v 0.296061 0.422739 -0.525334
v 0.151208 0.463012 -0.527661
v 0.300120 0.458858 -0.526570
v -0.467500 0.200145 1.026693
v 0.467500 0.200145 1.026693
v -0.467500 0.200145 -0.995762
v 0.467500 0.200145 -0.995762
v -0.467500 0.413228 -0.995762
v -0.450000 0.413228 1.004238
v 0.450000 0.413228 1.004238
v 0.467500 0.413228 -0.995762
v -0.467500 0.413228 1.026693
v -0.450000 0.413228 -0.995762
v 0.467500 0.413228 1.026693
v -0.449921 0.207205 1.000581
v 0.450000 0.413228 -0.995762
v 0.450079 0.207205 1.000581
v -0.449921 0.207205 -0.995762
v 0.450079 0.207205 -0.995762
v 0.268526 0.200145 0.972689
v 0.405828 0.200145 0.972689
v 0.268526 0.200145 0.835387
v 0.405828 0.200145 0.835387
v 0.268526 0.000000 0.972689
v 0.405828 0.000000 0.972689
v 0.268526 0.000000 0.835387
v 0.405828 0.000000 0.835387
v -0.268526 0.200145 0.972689
v -0.405828 0.200145 0.972689
v -0.268526 0.200145 0.835387
v -0.405828 0.200145 0.835387
v -0.268526 0.000000 0.972689
v -0.405828 0.000000 0.972689
v -0.268526 0.000000 0.835387
v -0.405828 0.000000 0.835387
v -0.470076 0.000000 -1.026693
v 0.470075 0.000000 -1.026693
v -0.470076 0.700000 -1.026693
v 0.470075 0.700000 -1.026693
v -0.470076 0.000000 -0.995762
v 0.470075 0.000000 -0.995762
v -0.470076 0.700000 -0.995762
v 0.470075 0.700000 -0.995762
v -0.445222 0.207205 0.990157
v 0.445379 0.207205 0.990157
v -0.445222 0.207205 -0.985338
v 0.445379 0.207205 -0.985338
v -0.430278 0.441309 0.979989
v -0.445222 0.421306 0.990157
v 0.445379 0.421306 0.990157
v 0.430436 0.441309 0.979989
v -0.430278 0.441309 -0.975170
v -0.445222 0.421306 -0.985338
v 0.445379 0.421306 -0.985338
v 0.430436 0.441309 -0.975170
v -0.023580 0.435433 -0.732793
v -0.023580 0.457854 -0.707445
v -0.023580 0.466010 -0.954584
v -0.023580 0.441962 -0.930717
v -0.023580 0.507452 -0.706114
v -0.023580 0.537111 -0.729981
v -0.023580 0.543640 -0.927905
v -0.023580 0.515623 -0.953253
v -0.273789 0.464202 -0.707210
v -0.296241 0.455719 -0.732124
v -0.266645 0.457061 -0.707445
v -0.275945 0.435433 -0.732793
v 0.219485 0.457061 -0.707445
v 0.228785 0.435433 -0.732793
v 0.226630 0.464202 -0.707210
v 0.249081 0.455719 -0.732124
v -0.266645 0.465213 -0.954584
v -0.275945 0.441962 -0.930717
v -0.273789 0.472354 -0.954349
v -0.296241 0.462247 -0.930048
v 0.226630 0.472354 -0.954349
v 0.249081 0.462247 -0.930048
v 0.219485 0.465213 -0.954584
v 0.228785 0.441962 -0.930717
v -0.266645 0.497414 -0.706114
v -0.275945 0.520665 -0.729981
v -0.273789 0.490273 -0.706350
v -0.296241 0.500379 -0.730650
v 0.226630 0.490273 -0.706350
v 0.249081 0.500379 -0.730650
v 0.219485 0.497414 -0.706114
v 0.228785 0.520665 -0.729981
v -0.273789 0.498425 -0.953489
v -0.296241 0.506908 -0.928575
v -0.266645 0.505566 -0.953253
v -0.275945 0.527193 -0.927905
v 0.219485 0.505566 -0.953253
v 0.228785 0.527193 -0.927905
v 0.226630 0.498425 -0.953489
v 0.249081 0.506908 -0.928575
vn 0.0356 -0.6949 0.7182
vn 0.8821 0.0406 -0.4692
vn -0.3471 0.6064 0.7154
vn -0.4222 0.0474 -0.9053
vn 0.5688 -0.4202 0.7070
vn 0.6323 -0.5858 -0.5069
vn 0.0937 -0.9955 -0.0123
vn -0.6722 0.0073 0.7403
vn -0.2608 0.6214 0.7388
vn -0.5001 0.4961 0.7097
vn -0.0000 1.0000 -0.0001
vn -0.7266 -0.0027 0.6871
vn -0.0196 0.3707 -0.9286
vn -0.0568 0.0451 0.9974
vn -0.2312 0.2167 -0.9485
vn 0.0061 -0.6420 0.7667
vn -0.0437 0.9990 0.0003
vn -0.7266 0.6870 -0.0002
vn -1.0000 0.0099 0.0009
vn 0.7526 -0.6584 0.0004
vn -0.3951 0.9186 -0.0016
vn 0.2688 -0.9632 0.0018
vn 1.0000 0.0022 -0.0013
vn 0.9994 0.0153 -0.0325
vn 0.2746 -0.9613 -0.0239
vn -0.4035 0.9145 0.0310
vn 0.7568 -0.6527 -0.0357
vn -0.9998 0.0006 0.0218
vn 0.0316 -0.9986 0.0417
vn -0.7229 0.6869 0.0744
vn -0.0694 0.9960 -0.0563
vn 0.0302 -0.9860 -0.1639
vn -0.0510 -0.0200 0.9985
vn 0.0880 -0.7097 0.6990
vn 0.0286 0.0002 0.9996
vn 0.6807 -0.0097 0.7325
vn -0.0000 0.5612 0.8277
vn 0.3245 -0.7820 -0.5322
vn -0.0000 -0.0000 1.0000
vn -0.5286 0.4936 0.6906
vn 0.0294 -0.8219 -0.5689
vn 0.0233 -0.8221 -0.5689
vn 0.1705 -0.7100 0.6832
vn 0.0680 -0.9928 -0.0985
vn 0.1934 0.0427 -0.9802
vn -0.0086 0.0068 -0.9999
vn -0.0269 -0.0184 -0.9995
vn 0.0010 0.0360 -0.9994
vn 0.0847 0.0563 -0.9948
vn 0.0277 0.0771 0.9966
vn -0.0929 -0.0580 0.9940
vn 0.0510 -0.9987 -0.0066
vn 0.0181 0.3871 -0.9219
vn 0.0151 0.0040 0.9999
vn -0.0400 -0.0033 0.9992
vn 0.0150 -0.0046 0.9999
vn 0.0576 0.0370 0.9977
vn -0.1145 -0.0150 0.9933
vn -0.2031 -0.0473 0.9780
vn -0.0595 -0.0079 0.9982
vn -0.0972 0.0078 0.9952
vn -0.0000 0.9940 -0.1091
vn 0.0650 0.0387 -0.9971
vn -0.0408 0.0304 0.9987
vn -0.0230 0.0134 0.9996
vn -0.0788 0.6898 0.7197
vn 0.0101 0.6754 0.7374
vn 0.0230 0.3363 -0.9415
vn 0.0418 0.9991 -0.0012
vn -0.0285 0.9938 -0.1078
vn -0.0000 -0.0241 0.9997
vn 0.0579 0.3323 -0.9414
vn -0.0544 0.6680 0.7422
vn -0.0707 0.6878 0.7224
vn 0.0187 -0.8507 -0.5254
vn 0.0015 1.0000 0.0031
vn -0.0000 0.6248 0.7808
vn 0.0057 -1.0000 -0.0034
vn -0.0000 1.0000 0.0031
vn 0.2026 -0.9661 0.1600
vn 1.0000 -0.0065 -0.0012
vn 0.2704 -0.9628 0.0017
vn -0.3067 0.9518 -0.0018
vn 0.7525 -0.6586 0.0004
vn -0.9999 0.0146 0.0001
vn -0.0351 -0.9994 -0.0071
vn -0.7671 0.6415 -0.0002
vn -0.0177 0.9998 0.0003
vn 0.1198 -0.9724 0.2001
vn -0.0356 -0.6949 0.7182
vn -0.8705 0.0416 -0.4903
vn 0.3548 0.6209 0.6990
vn 0.3055 0.0346 -0.9516
vn -0.5380 -0.4067 0.7384
vn -0.6342 -0.5688 -0.5236
vn -0.2851 -0.9585 -0.0096
vn 0.6722 0.0073 0.7403
vn 0.2751 0.6263 0.7294
vn 0.5001 0.4961 0.7098
vn 0.7208 -0.0028 0.6931
vn 0.0523 0.5129 -0.8569
vn 0.0438 0.0344 0.9984
vn 0.2364 0.2367 -0.9424
vn -0.0135 -0.6965 0.7174
vn 0.0437 0.9990 0.0003
vn 0.7238 0.6900 -0.0021
vn 1.0000 0.0099 0.0009
vn -0.7525 -0.6585 0.0005
vn 0.3951 0.9186 -0.0016
vn -0.2688 -0.9632 0.0018
vn -0.9999 0.0020 0.0141
vn -0.9994 0.0093 -0.0325
vn -0.2746 -0.9613 -0.0239
vn 0.4035 0.9145 0.0310
vn -0.7498 -0.6609 -0.0332
vn 0.9996 0.0006 0.0268
vn -0.0594 -0.9981 -0.0177
vn 0.7229 0.6869 0.0744
vn 0.0695 0.9960 -0.0563
vn -0.2705 -0.9431 0.1932
vn 0.0519 -0.0222 0.9984
vn -0.2193 -0.6679 0.7112
vn -0.0263 0.0043 0.9996
vn -0.6804 -0.0108 0.7327
vn -0.3244 -0.7820 -0.5322
vn 0.5122 0.4819 0.7109
vn -0.0798 -0.8729 -0.4814
vn -0.0392 -0.8753 -0.4821
vn -0.2681 -0.6595 0.7022
vn -0.3382 -0.9023 0.2673
vn -0.1934 0.0427 -0.9802
vn 0.0642 0.1467 -0.9871
vn 0.0269 -0.0184 -0.9995
vn 0.0112 0.0611 -0.9981
vn -0.1147 0.0716 0.9908
vn 0.1659 -0.0221 0.9859
vn -0.0341 -0.9994 -0.0067
vn 0.0034 0.3434 -0.9392
vn -0.0141 0.0043 0.9999
vn 0.0381 -0.0252 0.9990
vn 0.0766 -0.0060 0.9970
vn 0.0148 0.0803 0.9967
vn 0.1145 -0.0150 0.9933
vn 0.1708 -0.1074 0.9794
vn 0.0623 0.0099 0.9980
vn 0.0956 -0.0042 0.9954
vn -0.1188 0.3832 -0.9160
vn 0.0408 0.0304 0.9987
vn 0.0230 0.0134 0.9996
vn 0.0788 0.6898 0.7197
vn -0.0101 0.6754 0.7374
vn -0.0418 0.9991 -0.0016
vn 0.0285 0.9938 -0.1078
vn -0.1420 0.5138 -0.8461
vn 0.0587 0.6889 0.7225
vn 0.0526 0.5592 0.8274
vn 0.0086 -0.8520 -0.5234
vn -0.0015 1.0000 0.0031
vn -0.0057 -1.0000 -0.0034
vn -0.3545 -0.9324 -0.0704
vn -1.0000 -0.0065 -0.0012
vn -0.2704 -0.9628 0.0017
vn 0.3067 0.9518 -0.0018
vn -0.7509 -0.6604 0.0005
vn 1.0000 0.0099 0.0008
vn 0.0351 -0.9994 -0.0071
vn 0.7267 0.6870 -0.0020
vn 0.0177 0.9998 0.0003
vn -0.0757 -0.9971 -0.0083
vn -0.0000 -1.0000 -0.0034
vn -0.0000 -1.0000 -0.0000
vn -0.0000 0.0177 -0.9998
vn 1.0000 -0.0000 -0.0000
vn -1.0000 -0.0000 -0.0000
vn -0.0000 1.0000 -0.0000
vn -1.0000 -0.0004 -0.0000
vn 1.0000 0.0004 -0.0000
vn -0.0000 -0.0000 -1.0000
vn -0.0000 0.4531 0.8914
vn -0.8011 0.5985 -0.0000
vn 0.8011 0.5985 -0.0000
vn -0.0000 0.4531 -0.8914
vn -0.7071 0.7067 0.0233
vn -0.0000 -0.9995 -0.0330
vn 0.0650 0.9973 0.0329
vn -0.0000 0.0330 -0.9995
vn -0.0000 -0.0330 0.9995
vn -0.7071 -0.7067 -0.0233
vn -0.0650 0.9973 0.0329
vn 0.7071 -0.7067 -0.0233
vn 0.7071 0.7067 0.0233
vn -0.5225 -0.5000 -0.6907
vn -0.5225 -0.5444 0.6562
vn 0.5225 -0.5444 0.6562
vn 0.5225 -0.5000 -0.6907
vn -0.5225 0.5444 -0.6562
vn -0.5225 0.5000 0.6907
vn 0.5225 0.5000 0.6907
vn 0.5225 0.5444 -0.6562
vn 0.0024 -0.7490 0.6625
vn -0.0000 -0.7163 -0.6978
vn -0.7389 0.0222 -0.6734
vn -0.7389 -0.0222 0.6734
vn -0.0259 0.6267 0.7788
vn -0.0024 -0.7490 0.6625
vn 0.7389 -0.0222 0.6734
vn 0.0460 0.7065 0.7062
vn -0.0023 -0.7044 -0.7098
vn 0.7389 0.0222 -0.6734
vn -0.0489 0.7509 -0.6586
vn 0.0277 0.6706 -0.7413
vn 0.0361 -0.7216 0.6913
vn 0.8706 0.0432 -0.4900
vn -0.3548 0.6209 0.6990
vn -0.3051 0.0358 -0.9517
vn 0.5380 -0.4067 0.7384
vn 0.6342 -0.5688 -0.5236
vn 0.2849 -0.9585 -0.0094
vn -0.6895 0.0101 0.7242
vn -0.2751 0.6263 0.7294
vn -0.4960 0.4669 0.7321
vn -0.0000 1.0000 -0.0002
vn -0.7208 -0.0026 0.6931
vn -0.0133 0.3422 -0.9395
vn -0.0438 0.0344 0.9984
vn -0.2364 0.2367 -0.9424
vn 0.0135 -0.6965 0.7174
vn -0.0452 0.9990 -0.0023
vn -0.7238 0.6900 -0.0021
vn -0.9997 0.0007 -0.0224
vn 0.7525 -0.6585 0.0005
vn -0.3999 0.9166 -0.0035
vn 0.2686 -0.9632 0.0018
vn 0.9999 0.0081 0.0126
vn 0.9999 0.0079 -0.0123
vn 0.2671 -0.9633 -0.0251
vn -0.3145 0.9459 0.0804
vn 0.7498 -0.6609 -0.0332
vn -0.9996 -0.0010 0.0268
vn 0.0594 -0.9981 -0.0177
vn -0.7677 0.6401 0.0303
vn -0.0369 0.9991 0.0212
vn 0.0929 -0.9852 -0.1440
vn 0.0116 -0.0203 0.9997
vn 0.0803 -0.7470 0.6599
vn 0.0272 0.0040 0.9996
vn 0.7466 -0.0095 0.6653
vn 0.3383 -0.7856 -0.5181
vn -0.5122 0.4819 0.7109
vn 0.0530 -0.8388 -0.5418
vn 0.1669 -0.7026 0.6918
vn 0.2014 -0.9689 -0.1437
vn 0.1227 0.0777 -0.9894
vn -0.0095 0.0126 -0.9999
vn 0.0537 -0.0217 -0.9983
vn 0.0226 0.3805 -0.9245
vn -0.0080 0.0634 -0.9980
vn 0.1147 0.0716 0.9908
vn -0.1659 -0.0221 0.9859
vn 0.2927 -0.9561 -0.0094
vn -0.0034 0.3434 -0.9392
vn 0.0147 -0.0043 0.9999
vn -0.0381 -0.0252 0.9990
vn -0.0765 -0.0056 0.9971
vn -0.0148 0.0803 0.9967
vn -0.1252 0.0178 0.9920
vn -0.1708 -0.1074 0.9794
vn -0.0623 0.0099 0.9980
vn -0.0956 -0.0042 0.9954
vn 0.0683 0.0153 -0.9975
vn -0.0405 0.0149 0.9991
vn -0.0256 -0.0169 0.9995
vn -0.0788 0.6862 0.7232
vn 0.0048 0.6232 0.7820
vn 0.0461 0.6056 -0.7944
vn 0.0188 0.9985 -0.0521
vn 0.0341 0.9994 0.0003
vn 0.0666 0.3749 -0.9247
vn -0.0587 0.6889 0.7225
vn -0.0526 0.5592 0.8274
vn 0.0247 -0.8808 -0.4728
vn -0.0279 0.9996 0.0003
vn -0.0335 -0.9994 -0.0071
vn 0.0503 -0.9801 0.1921
vn 1.0000 0.0022 -0.0000
vn 0.2688 -0.9632 0.0017
vn -0.3950 0.9187 -0.0034
vn 0.7509 -0.6604 0.0005
vn -1.0000 0.0099 0.0008
vn 0.0606 -0.9982 0.0021
vn -0.7267 0.6870 -0.0020
vn -0.0437 0.9990 -0.0022
vn 0.0819 -0.9779 0.1923
vn -0.0361 -0.7216 0.6913
vn -0.8802 0.0396 -0.4730
vn 0.3471 0.6064 0.7154
vn 0.4199 0.0456 -0.9064
vn -0.5688 -0.4202 0.7070
vn -0.6323 -0.5858 -0.5069
vn -0.0760 -0.9970 -0.0128
vn 0.6895 0.0101 0.7242
vn 0.2608 0.6214 0.7388
vn 0.4960 0.4669 0.7321
vn 0.7263 -0.0029 0.6874
vn 0.0135 0.3422 -0.9395
vn 0.0568 0.0451 0.9974
vn 0.2312 0.2167 -0.9485
vn -0.0061 -0.6420 0.7667
vn 0.0452 0.9990 -0.0023
vn 0.7266 0.6870 -0.0002
vn 0.9998 0.0008 -0.0223
vn -0.7526 -0.6584 0.0004
vn 0.3999 0.9166 -0.0035
vn -0.2686 -0.9632 0.0018
vn -1.0000 0.0093 -0.0013
vn -0.9998 0.0139 -0.0173
vn -0.2671 -0.9633 -0.0251
vn 0.3145 0.9459 0.0804
vn -0.7568 -0.6527 -0.0357
vn 0.9998 -0.0008 0.0218
vn -0.0334 -0.9987 0.0378
vn 0.7677 0.6401 0.0303
vn 0.0369 0.9991 0.0212
vn -0.0472 -0.9906 0.1284
vn -0.0138 -0.0226 0.9996
vn -0.2183 -0.7396 0.6367
vn -0.0285 0.0002 0.9996
vn -0.7460 -0.0106 0.6658
vn -0.3383 -0.7856 -0.5181
vn 0.5286 0.4936 0.6906
vn -0.0783 -0.8719 -0.4833
vn -0.2560 -0.6416 0.7230
vn -0.0946 -0.9746 0.2032
vn -0.1227 0.0777 -0.9894
vn 0.0432 0.0075 -0.9990
vn -0.0537 -0.0217 -0.9983
vn -0.0838 0.0541 -0.9950
vn -0.0277 0.0771 0.9966
vn 0.0929 -0.0580 0.9940
vn -0.2927 -0.9561 -0.0096
vn -0.0181 0.3871 -0.9219
vn -0.0160 -0.0057 0.9999
vn 0.0400 -0.0033 0.9992
vn -0.0152 -0.0049 0.9999
vn -0.0576 0.0370 0.9977
vn 0.1252 0.0178 0.9920
vn 0.2031 -0.0473 0.9780
vn 0.0595 -0.0079 0.9982
vn 0.0972 0.0078 0.9952
vn -0.1595 0.1646 -0.9734
vn 0.0405 0.0149 0.9991
vn 0.0256 -0.0169 0.9995
vn 0.0788 0.6862 0.7232
vn -0.0048 0.6232 0.7820
vn -0.0253 0.9983 -0.0517
vn -0.0341 0.9994 0.0003
vn -0.1540 0.5848 -0.7964
vn 0.0544 0.6680 0.7422
vn 0.0707 0.6878 0.7224
vn -0.0070 -0.9031 -0.4294
vn 0.0279 0.9996 0.0003
vn 0.0335 -0.9994 -0.0071
vn -0.0341 -0.9994 -0.0091
vn -1.0000 0.0022 -0.0000
vn -0.2688 -0.9632 0.0017
vn 0.3950 0.9187 -0.0034
vn -0.7525 -0.6586 0.0004
vn 0.9999 0.0146 0.0002
vn -0.0606 -0.9982 0.0021
vn 0.7671 0.6415 -0.0002
vn 0.0437 0.9990 -0.0022
vn -0.3288 -0.9430 0.0519
vn 0.0001 0.0330 -0.9995
vn 0.0011 0.0268 -0.9996
vn 0.0001 -0.0330 0.9995
vn 0.0011 -0.0268 0.9996
vn -0.0011 0.0268 -0.9996
vn -0.0001 0.0330 -0.9995
vn -0.0000 -0.7607 0.6491
vn 0.0023 -0.7044 -0.7098
vn -0.0460 0.7065 0.7062
vn 0.0259 0.6267 0.7788
vn -0.0277 0.6706 -0.7413
vn 0.0489 0.7509 -0.6586
vn -0.0011 -0.0268 0.9996
vn -0.0001 -0.0330 0.9995
vt 0.211651 0.567085
vt 0.211710 0.567104
vt 0.211709 0.566829
vt 0.211592 0.575639
vt 0.211607 0.573368
vt 0.211621 0.574618
vt 0.211541 0.567196
vt 0.211677 0.567145
vt 0.211533 0.567479
vt 0.211389 0.574586
vt 0.211496 0.574474
vt 0.211504 0.575630
vt 0.211617 0.567246
vt 0.211659 0.567352
vt 0.211579 0.574371
vt 0.211649 0.573452
vt 0.211503 0.558899
vt 0.211415 0.416470
vt 0.211415 0.558988
vt 0.211515 0.414854
vt 0.211503 0.414854
vt 0.211607 0.415073
vt 0.211692 0.416470
vt 0.211559 0.416690
vt 0.211431 0.416470
vt 0.213049 0.566202
vt 0.214429 0.570938
vt 0.213041 0.572564
vt 0.211410 0.567325
vt 0.211397 0.567517
vt 0.211396 0.567627
vt 0.211683 0.574131
vt 0.212399 0.573288
vt 0.212407 0.574264
vt 0.211425 0.567200
vt 0.211411 0.567220
vt 0.211389 0.573746
vt 0.211584 0.574425
vt 0.212400 0.566269
vt 0.212407 0.566523
vt 0.212375 0.566301
vt 0.211682 0.558662
vt 0.212375 0.558324
vt 0.211550 0.558912
vt 0.211425 0.558841
vt 0.211644 0.558778
vt 0.211589 0.567000
vt 0.211644 0.567085
vt 0.211682 0.566854
vt 0.211707 0.566823
vt 0.211707 0.558555
vt 0.211592 0.558901
vt 0.211590 0.558650
vt 0.211701 0.573199
vt 0.211668 0.573278
vt 0.212428 0.573291
vt 0.211523 0.573612
vt 0.212382 0.566567
vt 0.211505 0.574596
vt 0.211598 0.567404
vt 0.211603 0.566988
vt 0.211511 0.567657
vt 0.211512 0.567355
vt 0.211611 0.567412
vt 0.214417 0.414315
vt 0.213057 0.412699
vt 0.214413 0.412699
vt 0.211696 0.574156
vt 0.211633 0.574423
vt 0.213061 0.412699
vt 0.214409 0.412699
vt 0.211625 0.567723
vt 0.212417 0.574278
vt 0.213028 0.573407
vt 0.214438 0.573444
vt 0.213032 0.573471
vt 0.211599 0.414854
vt 0.211654 0.415073
vt 0.211704 0.414854
vt 0.211592 0.414854
vt 0.211424 0.567328
vt 0.211512 0.567356
vt 0.212394 0.566273
vt 0.211549 0.567181
vt 0.211716 0.414854
vt 0.212380 0.414039
vt 0.212387 0.414004
vt 0.214420 0.558424
vt 0.213034 0.565989
vt 0.213050 0.558424
vt 0.211680 0.566864
vt 0.212378 0.566309
vt 0.213042 0.565975
vt 0.214442 0.572710
vt 0.214428 0.565975
vt 0.214436 0.565989
vt 0.212372 0.415684
vt 0.213053 0.414315
vt 0.214421 0.566202
vt 0.213059 0.558347
vt 0.212394 0.558211
vt 0.215760 0.567104
vt 0.215819 0.567085
vt 0.215762 0.566829
vt 0.215878 0.575639
vt 0.215863 0.573368
vt 0.215892 0.574371
vt 0.215929 0.567196
vt 0.215793 0.567145
vt 0.215791 0.566864
vt 0.216082 0.574586
vt 0.215974 0.574474
vt 0.216082 0.573746
vt 0.215853 0.567246
vt 0.215867 0.566988
vt 0.215821 0.573452
vt 0.215838 0.574423
vt 0.215967 0.558899
vt 0.216056 0.416470
vt 0.215967 0.414854
vt 0.215955 0.414854
vt 0.215864 0.415073
vt 0.215778 0.416470
vt 0.215766 0.414854
vt 0.216039 0.416470
vt 0.216060 0.567325
vt 0.216073 0.567517
vt 0.216059 0.567220
vt 0.215072 0.573292
vt 0.215788 0.574131
vt 0.215067 0.574755
vt 0.216045 0.567200
vt 0.215922 0.567181
vt 0.215886 0.574425
vt 0.215948 0.573612
vt 0.215071 0.566269
vt 0.215788 0.558662
vt 0.215095 0.566301
vt 0.215095 0.558324
vt 0.215921 0.558912
vt 0.216055 0.558988
vt 0.216045 0.558841
vt 0.215826 0.558778
vt 0.215881 0.567000
vt 0.215881 0.558650
vt 0.215789 0.566854
vt 0.215764 0.566823
vt 0.215763 0.558555
vt 0.215873 0.567404
vt 0.215879 0.558901
vt 0.215845 0.567723
vt 0.215770 0.573199
vt 0.215812 0.567352
vt 0.215938 0.567479
vt 0.215803 0.573278
vt 0.216074 0.567627
vt 0.215064 0.566523
vt 0.215088 0.566567
vt 0.215966 0.574596
vt 0.215959 0.567657
vt 0.215959 0.567355
vt 0.215959 0.567356
vt 0.215859 0.567412
vt 0.215774 0.574156
vt 0.215966 0.575630
vt 0.215850 0.574618
vt 0.215059 0.575036
vt 0.215872 0.414854
vt 0.215817 0.415073
vt 0.215754 0.414854
vt 0.215878 0.414854
vt 0.216046 0.567328
vt 0.215076 0.566273
vt 0.215827 0.567085
vt 0.215091 0.414039
vt 0.215083 0.414004
vt 0.215092 0.566309
vt 0.215099 0.415684
vt 0.214412 0.558347
vt 0.215911 0.416690
vt 0.215077 0.558211
vt 0.203590 0.862051
vt 0.206232 0.862051
vt 0.206182 0.904662
vt 0.203640 0.863463
vt 0.203639 0.904662
vt 0.203590 0.904662
vt 0.206232 0.904662
vt 0.203590 0.904662
vt 0.206232 0.904662
vt 0.206182 0.904662
vt 0.206183 0.863463
vt 0.203639 0.904662
vt 0.205670 0.822027
vt 0.206058 0.822027
vt 0.205670 0.862051
vt 0.206058 0.862051
vt 0.203764 0.822027
vt 0.204152 0.822027
vt 0.204152 0.862051
vt 0.203764 0.862051
vt 0.203583 0.962009
vt 0.206239 0.822027
vt 0.203583 0.822027
vt 0.206239 0.962009
vt 0.228510 0.232549
vt 0.228510 0.266599
vt 0.229335 0.266599
vt 0.229335 0.232549
vt 0.229321 0.266424
vt 0.228524 0.232725
vt 0.229321 0.232725
vt 0.228524 0.266424
vt 0.708710 0.906927
vt 0.708939 0.950221
vt 0.708710 0.950367
vt 0.711781 0.950838
vt 0.714623 0.907397
vt 0.711781 0.907397
vt 0.711781 0.906780
vt 0.714623 0.950221
vt 0.711781 0.950221
vt 0.708939 0.950838
vt 0.708939 0.907397
vt 0.714518 0.955784
vt 0.714599 0.955836
vt 0.714518 0.956076
vt 0.709043 0.901542
vt 0.708963 0.901594
vt 0.709043 0.901834
vt 0.708710 0.950691
vt 0.708939 0.906780
vt 0.714851 0.950691
vt 0.714851 0.907251
vt 0.708710 0.907251
vt 0.714851 0.950367
vt 0.714851 0.906927
vt 0.714623 0.906780
vt 0.708963 0.955836
vt 0.709043 0.955784
vt 0.709043 0.956076
vt 0.708963 0.956024
vt 0.714518 0.901834
vt 0.714599 0.901783
vt 0.714599 0.956024
vt 0.714623 0.950838
vt 0.714518 0.901542
vt 0.711781 0.901834
vt 0.708963 0.901783
vt 0.711781 0.901542
vt 0.711781 0.956076
vt 0.711781 0.955784
vt 0.714599 0.901594
vt 0.215047 0.573931
s 0
usemtl Texture_Map
f 15/1/1 31/2/1 52/3/1
f 2/4/2 32/5/2 26/6/2
f 54/7/3 27/8/3 40/9/3
f 34/10/4 46/11/4 42/12/4
f 15/1/5 37/13/5 38/14/5
f 7/15/6 30/16/6 32/5/6
f 87/17/7 3/18/7 86/19/7
f 43/20/8 3/18/8 41/21/8
f 45/22/9 11/23/9 14/24/9
f 45/22/10 16/25/10 43/20/10
f 69/26/11 158/27/11 67/28/11
f 12/29/12 39/30/12 33/31/12
f 48/32/13 68/33/13 72/34/13
f 23/35/14 54/7/14 6/36/14
f 36/37/15 47/38/15 46/11/15
f 78/39/16 31/2/16 71/40/16
f 64/41/17 84/42/17 91/43/17
f 82/44/18 23/35/18 81/45/18
f 23/35/19 86/19/19 81/45/19
f 80/46/20 20/47/20 22/48/20
f 18/49/21 82/44/21 84/42/21
f 80/46/22 19/50/22 85/51/22
f 83/52/23 20/47/23 79/53/23
f 37/13/24 26/6/24 32/5/24
f 38/14/25 29/54/25 31/2/25
f 28/55/26 40/9/26 27/8/26
f 38/14/27 32/5/27 30/16/27
f 39/30/28 34/10/28 33/31/28
f 71/40/29 29/54/29 66/56/29
f 35/57/30 39/30/30 40/9/30
f 68/33/31 27/8/31 70/58/31
f 50/59/32 33/31/32 34/10/32
f 17/60/33 13/61/33 20/47/33
f 12/29/34 51/62/34 56/63/34
f 17/60/35 56/63/35 55/64/35
f 55/64/36 37/13/36 13/61/36
f 151/65/37 74/66/37 165/67/37
f 8/68/38 30/16/38 9/69/38
f 165/67/39 58/70/39 149/71/39
f 6/36/40 40/9/40 39/30/40
f 2/4/41 50/59/41 42/12/41
f 34/10/42 42/12/42 50/59/42
f 55/64/43 51/62/43 25/72/43
f 25/72/44 50/59/44 26/6/44
f 9/69/45 48/32/45 8/68/45
f 8/68/46 72/34/46 62/73/46
f 7/15/47 47/38/47 9/69/47
f 73/74/48 152/75/48 61/76/48
f 7/15/49 42/12/49 46/11/49
f 5/77/50 45/22/50 43/20/50
f 10/78/51 44/79/51 45/22/51
f 5/77/39 41/21/39 1/80/39
f 1/80/52 87/17/52 83/52/52
f 35/57/53 48/32/53 47/38/53
f 21/81/54 56/63/54 49/82/54
f 65/83/55 52/3/55 78/39/55
f 21/81/56 6/36/56 12/29/56
f 22/48/57 13/61/57 15/1/57
f 18/49/58 54/7/58 24/84/58
f 19/50/59 15/1/59 52/3/59
f 4/85/60 75/86/60 44/79/60
f 57/87/61 74/66/61 75/86/61
f 181/88/62 63/89/62 90/90/62
f 62/73/63 73/74/63 61/76/63
f 64/41/64 53/91/64 18/49/64
f 63/89/65 77/92/65 64/41/65
f 77/92/66 27/8/66 53/91/66
f 76/93/67 70/58/67 77/92/67
f 67/28/68 164/94/68 73/74/68
f 67/28/69 70/58/69 69/26/69
f 63/89/70 91/43/70 90/90/70
f 167/95/71 63/89/71 154/96/71
f 73/74/72 68/33/72 67/28/72
f 44/79/73 59/97/73 11/23/73
f 75/86/74 60/98/74 59/97/74
f 62/73/75 29/54/75 8/68/75
f 90/90/76 59/97/76 60/98/76
f 160/99/77 76/93/77 167/95/77
f 57/87/78 88/100/78 58/70/78
f 151/65/79 90/90/79 60/98/79
f 83/52/80 49/82/80 17/60/80
f 1/80/81 79/53/81 5/77/81
f 10/78/82 85/51/82 4/85/82
f 84/42/83 14/24/83 11/23/83
f 10/78/84 79/53/84 80/46/84
f 16/25/85 86/19/85 3/18/85
f 4/85/86 89/101/86 57/87/86
f 14/24/87 81/45/87 16/25/87
f 91/43/88 11/23/88 59/97/88
f 49/82/89 86/19/89 21/81/89
f 122/102/90 106/103/90 143/104/90
f 93/105/91 123/106/91 98/107/91
f 145/108/92 118/109/92 144/110/92
f 125/111/93 137/112/93 127/113/93
f 106/103/94 128/114/94 104/115/94
f 98/107/95 121/116/95 100/117/95
f 178/118/96 94/119/96 132/120/96
f 94/119/97 134/121/97 132/120/97
f 136/122/98 102/123/98 135/124/98
f 107/125/99 136/122/99 134/121/99
f 103/126/100 130/127/100 97/128/100
f 159/129/101 139/130/101 163/131/101
f 114/132/102 145/108/102 115/133/102
f 127/113/103 138/134/103 126/135/103
f 169/136/104 122/102/104 143/104/104
f 175/137/105 155/138/105 182/139/105
f 173/140/106 114/132/106 115/133/106
f 177/141/107 114/132/107 172/142/107
f 171/143/108 111/144/108 170/145/108
f 173/140/109 109/146/109 175/137/109
f 110/147/110 171/143/110 176/148/110
f 170/145/111 108/149/111 174/150/111
f 123/106/112 116/151/112 128/114/112
f 120/152/113 129/153/113 122/102/113
f 131/154/114 119/155/114 118/109/114
f 129/153/115 123/106/115 128/114/115
f 124/156/116 127/113/116 130/127/116
f 162/157/117 120/152/117 122/102/117
f 130/127/118 126/135/118 131/154/118
f 118/109/119 159/129/119 161/158/119
f 141/159/120 124/156/120 142/160/120
f 104/115/121 108/149/121 111/144/121
f 142/160/122 103/126/122 147/161/122
f 108/149/123 147/161/123 140/162/123
f 128/114/124 146/163/124 104/115/124
f 121/116/125 99/164/125 100/117/125
f 97/128/126 131/154/126 145/108/126
f 141/159/127 93/105/127 133/165/127
f 125/111/128 141/159/128 133/165/128
f 146/163/129 142/160/129 147/161/129
f 117/166/130 142/160/130 116/151/130
f 139/130/131 100/117/131 99/164/131
f 163/131/132 99/164/132 153/167/132
f 138/134/133 98/107/133 100/117/133
f 98/107/134 133/165/134 93/105/134
f 96/168/135 136/122/135 101/169/135
f 101/169/136 135/124/136 95/170/136
f 132/120/39 96/168/39 92/171/39
f 178/118/137 92/171/137 174/150/137
f 126/135/138 139/130/138 119/155/138
f 147/161/139 112/172/139 140/162/139
f 156/173/140 143/104/140 110/147/140
f 112/172/141 97/128/141 114/132/141
f 113/174/142 104/115/142 111/144/142
f 145/108/143 109/146/143 115/133/143
f 110/147/144 106/103/144 113/174/144
f 95/170/145 166/175/145 148/176/145
f 148/176/146 165/67/146 149/71/146
f 164/94/147 153/167/147 152/75/147
f 144/110/148 155/138/148 109/146/148
f 168/177/149 154/96/149 155/138/149
f 118/109/150 168/177/150 144/110/150
f 161/158/151 167/95/151 168/177/151
f 161/158/152 158/27/152 160/99/152
f 182/139/153 154/96/153 181/88/153
f 164/94/154 159/129/154 163/131/154
f 135/124/155 150/178/155 166/175/155
f 166/175/156 151/65/156 165/67/156
f 120/152/157 153/167/157 99/164/157
f 150/178/158 181/88/158 151/65/158
f 179/179/159 148/176/159 149/71/159
f 140/162/160 174/150/160 108/149/160
f 170/145/161 92/171/161 96/168/161
f 176/148/162 101/169/162 95/170/162
f 105/180/163 175/137/163 102/123/163
f 101/169/164 170/145/164 96/168/164
f 107/125/165 177/141/165 172/142/165
f 180/181/166 95/170/166 148/176/166
f 105/180/167 172/142/167 173/140/167
f 102/123/168 182/139/168 150/178/168
f 140/162/169 177/141/169 178/118/169
f 179/179/170 58/70/170 88/100/170
f 185/182/171 184/183/171 183/182/171
f 189/184/172 194/185/172 188/186/172
f 184/183/39 191/187/39 183/182/39
f 186/183/173 193/188/173 184/183/173
f 183/182/174 187/189/174 185/182/174
f 188/186/175 187/189/175 191/187/175
f 188/186/175 193/188/175 189/184/175
f 189/184/175 190/190/175 195/191/175
f 195/191/176 196/192/176 189/184/176
f 192/193/177 194/185/177 197/185/177
f 198/192/175 194/185/175 196/192/175
f 205/194/171 204/195/171 203/194/171
f 205/194/174 199/196/174 201/196/174
f 206/195/178 201/196/178 202/197/178
f 203/194/39 200/197/39 199/196/39
f 204/195/173 202/197/173 200/197/173
f 212/198/171 213/199/171 211/199/171
f 207/200/173 213/199/173 209/200/173
f 209/200/178 214/198/178 210/201/178
f 208/201/39 211/199/39 207/200/39
f 210/201/174 212/198/174 208/201/174
f 217/202/178 216/203/178 215/204/178
f 220/203/39 221/202/39 219/204/39
f 218/205/173 220/203/173 216/203/173
f 216/203/171 219/204/171 215/204/171
f 215/204/174 221/202/174 217/202/174
f 217/202/175 222/205/175 218/205/175
f 223/206/174 232/207/174 225/207/174
f 226/208/173 229/209/173 224/209/173
f 225/207/178 233/208/178 226/208/178
f 234/210/175 227/211/175 230/212/175
f 229/209/179 227/211/179 228/206/179
f 228/206/180 231/213/180 232/207/180
f 233/208/181 230/212/181 229/209/181
f 234/210/182 232/207/182 231/213/182
f 224/209/39 228/206/39 223/206/39
f 262/214/183 270/215/183 268/216/183
f 238/217/184 248/218/184 235/219/184
f 240/220/185 272/221/185 241/222/185
f 252/223/184 235/219/184 246/224/184
f 271/225/186 273/226/186 257/227/186
f 259/228/187 261/229/187 245/230/187
f 246/224/188 254/231/188 252/223/188
f 240/220/189 270/215/189 260/232/189
f 248/218/190 256/233/190 250/234/190
f 244/235/174 268/216/174 254/231/174
f 250/234/173 274/236/173 264/237/173
f 264/237/191 272/221/191 266/238/191
f 267/239/186 269/240/186 251/241/186
f 251/241/192 254/231/192 253/242/192
f 245/230/193 244/235/193 246/224/193
f 247/243/194 250/234/194 249/244/194
f 255/245/195 258/246/195 257/227/195
f 269/240/196 268/216/196 270/215/196
f 259/228/197 262/214/197 261/229/197
f 265/247/198 264/237/198 266/238/198
f 271/225/199 274/236/199 273/226/199
f 245/230/200 235/219/200 236/248/200
f 251/241/201 238/217/201 252/223/201
f 253/242/202 268/216/202 267/239/202
f 243/249/203 262/214/203 244/235/203
f 240/220/204 259/228/204 239/250/204
f 235/219/205 247/243/205 236/248/205
f 264/237/206 249/244/206 250/234/206
f 240/220/207 265/247/207 266/238/207
f 257/227/208 238/217/208 237/251/208
f 273/226/209 256/233/209 255/245/209
f 241/222/210 269/240/210 270/215/210
f 241/222/211 271/225/211 242/252/211
f 263/253/187 265/247/187 247/243/187
f 15/1/212 38/14/212 31/2/212
f 2/4/213 7/15/213 32/5/213
f 54/7/214 53/91/214 27/8/214
f 34/10/215 36/37/215 46/11/215
f 15/1/216 13/61/216 37/13/216
f 7/15/217 9/69/217 30/16/217
f 87/17/218 41/21/218 3/18/218
f 43/20/219 16/25/219 3/18/219
f 45/22/220 44/79/220 11/23/220
f 45/22/221 14/24/221 16/25/221
f 69/26/222 160/99/222 158/27/222
f 12/29/223 6/36/223 39/30/223
f 48/32/224 28/55/224 68/33/224
f 23/35/225 24/84/225 54/7/225
f 36/37/226 35/57/226 47/38/226
f 78/39/227 52/3/227 31/2/227
f 64/41/228 18/49/228 84/42/228
f 82/44/229 24/84/229 23/35/229
f 23/35/230 21/81/230 86/19/230
f 80/46/231 79/53/231 20/47/231
f 18/49/232 24/84/232 82/44/232
f 80/46/233 22/48/233 19/50/233
f 83/52/234 17/60/234 20/47/234
f 37/13/235 25/72/235 26/6/235
f 38/14/236 30/16/236 29/54/236
f 28/55/237 35/57/237 40/9/237
f 38/14/238 37/13/238 32/5/238
f 39/30/239 36/37/239 34/10/239
f 71/40/240 31/2/240 29/54/240
f 35/57/241 36/37/241 39/30/241
f 68/33/242 28/55/242 27/8/242
f 50/59/243 51/62/243 33/31/243
f 17/60/244 55/64/244 13/61/244
f 12/29/245 33/31/245 51/62/245
f 17/60/246 49/82/246 56/63/246
f 55/64/247 25/72/247 37/13/247
f 151/65/37 60/98/37 74/66/37
f 8/68/248 29/54/248 30/16/248
f 165/67/39 74/66/39 58/70/39
f 6/36/249 54/7/249 40/9/249
f 2/4/250 26/6/250 50/59/250
f 55/64/251 56/63/251 51/62/251
f 25/72/252 51/62/252 50/59/252
f 9/69/253 47/38/253 48/32/253
f 8/68/254 48/32/254 72/34/254
f 7/15/255 46/11/255 47/38/255
f 73/74/256 164/94/256 152/75/256
f 7/15/257 2/4/257 42/12/257
f 5/77/258 10/78/258 45/22/258
f 10/78/259 4/85/259 44/79/259
f 5/77/39 43/20/39 41/21/39
f 1/80/260 41/21/260 87/17/260
f 35/57/261 28/55/261 48/32/261
f 21/81/262 12/29/262 56/63/262
f 65/83/263 19/50/263 52/3/263
f 21/81/264 23/35/264 6/36/264
f 22/48/265 20/47/265 13/61/265
f 18/49/266 53/91/266 54/7/266
f 19/50/267 22/48/267 15/1/267
f 4/85/268 57/87/268 75/86/268
f 57/87/269 58/70/269 74/66/269
f 181/88/62 154/96/62 63/89/62
f 62/73/270 72/34/270 73/74/270
f 64/41/271 77/92/271 53/91/271
f 63/89/272 76/93/272 77/92/272
f 77/92/273 70/58/273 27/8/273
f 76/93/274 69/26/274 70/58/274
f 67/28/275 158/27/275 164/94/275
f 67/28/276 68/33/276 70/58/276
f 63/89/277 64/41/277 91/43/277
f 167/95/71 76/93/71 63/89/71
f 73/74/278 72/34/278 68/33/278
f 44/79/279 75/86/279 59/97/279
f 75/86/280 74/66/280 60/98/280
f 62/73/281 66/56/281 29/54/281
f 90/90/282 91/43/282 59/97/282
f 160/99/77 69/26/77 76/93/77
f 57/87/283 89/101/283 88/100/283
f 151/65/79 181/88/79 90/90/79
f 83/52/284 87/17/284 49/82/284
f 1/80/285 83/52/285 79/53/285
f 10/78/286 80/46/286 85/51/286
f 84/42/287 82/44/287 14/24/287
f 10/78/288 5/77/288 79/53/288
f 16/25/289 81/45/289 86/19/289
f 4/85/290 85/51/290 89/101/290
f 14/24/291 82/44/291 81/45/291
f 91/43/292 84/42/292 11/23/292
f 49/82/293 87/17/293 86/19/293
f 122/102/294 129/153/294 106/103/294
f 93/105/295 117/166/295 123/106/295
f 145/108/296 131/154/296 118/109/296
f 125/111/297 133/165/297 137/112/297
f 106/103/298 129/153/298 128/114/298
f 98/107/299 123/106/299 121/116/299
f 178/118/300 177/141/300 94/119/300
f 94/119/301 107/125/301 134/121/301
f 136/122/302 105/180/302 102/123/302
f 107/125/303 105/180/303 136/122/303
f 103/126/304 124/156/304 130/127/304
f 159/129/305 119/155/305 139/130/305
f 114/132/306 97/128/306 145/108/306
f 127/113/307 137/112/307 138/134/307
f 169/136/308 162/157/308 122/102/308
f 175/137/309 109/146/309 155/138/309
f 173/140/310 172/142/310 114/132/310
f 177/141/311 112/172/311 114/132/311
f 171/143/312 113/174/312 111/144/312
f 173/140/313 115/133/313 109/146/313
f 110/147/314 113/174/314 171/143/314
f 170/145/315 111/144/315 108/149/315
f 123/106/316 117/166/316 116/151/316
f 120/152/317 121/116/317 129/153/317
f 131/154/318 126/135/318 119/155/318
f 129/153/319 121/116/319 123/106/319
f 124/156/320 125/111/320 127/113/320
f 162/157/321 157/254/321 120/152/321
f 130/127/322 127/113/322 126/135/322
f 118/109/323 119/155/323 159/129/323
f 141/159/324 125/111/324 124/156/324
f 104/115/325 146/163/325 108/149/325
f 142/160/326 124/156/326 103/126/326
f 108/149/327 146/163/327 147/161/327
f 128/114/328 116/151/328 146/163/328
f 121/116/329 120/152/329 99/164/329
f 97/128/330 130/127/330 131/154/330
f 141/159/331 117/166/331 93/105/331
f 146/163/332 116/151/332 142/160/332
f 117/166/333 141/159/333 142/160/333
f 139/130/334 138/134/334 100/117/334
f 163/131/335 139/130/335 99/164/335
f 138/134/336 137/112/336 98/107/336
f 98/107/337 137/112/337 133/165/337
f 96/168/338 134/121/338 136/122/338
f 101/169/339 136/122/339 135/124/339
f 132/120/39 134/121/39 96/168/39
f 178/118/340 132/120/340 92/171/340
f 126/135/341 138/134/341 139/130/341
f 147/161/342 103/126/342 112/172/342
f 156/173/343 169/136/343 143/104/343
f 112/172/344 103/126/344 97/128/344
f 113/174/345 106/103/345 104/115/345
f 145/108/346 144/110/346 109/146/346
f 110/147/347 143/104/347 106/103/347
f 95/170/348 135/124/348 166/175/348
f 148/176/349 166/175/349 165/67/349
f 164/94/350 163/131/350 153/167/350
f 144/110/351 168/177/351 155/138/351
f 168/177/352 167/95/352 154/96/352
f 118/109/353 161/158/353 168/177/353
f 161/158/354 160/99/354 167/95/354
f 161/158/355 159/129/355 158/27/355
f 182/139/356 155/138/356 154/96/356
f 164/94/357 158/27/357 159/129/357
f 135/124/358 102/123/358 150/178/358
f 166/175/359 150/178/359 151/65/359
f 120/152/360 157/254/360 153/167/360
f 150/178/361 182/139/361 181/88/361
f 179/179/362 180/181/362 148/176/362
f 140/162/363 178/118/363 174/150/363
f 170/145/364 174/150/364 92/171/364
f 176/148/365 171/143/365 101/169/365
f 105/180/366 173/140/366 175/137/366
f 101/169/367 171/143/367 170/145/367
f 107/125/368 94/119/368 177/141/368
f 180/181/369 176/148/369 95/170/369
f 105/180/370 107/125/370 172/142/370
f 102/123/371 175/137/371 182/139/371
f 140/162/372 112/172/372 177/141/372
f 179/179/170 149/71/170 58/70/170
f 185/182/171 186/183/171 184/183/171
f 189/184/172 196/192/172 194/185/172
f 184/183/39 193/188/39 191/187/39
f 186/183/173 190/190/173 193/188/173
f 183/182/174 191/187/174 187/189/174
f 188/186/175 192/193/175 187/189/175
f 188/186/175 191/187/175 193/188/175
f 189/184/175 193/188/175 190/190/175
f 195/191/176 198/192/176 196/192/176
f 192/193/177 188/186/177 194/185/177
f 198/192/175 197/185/175 194/185/175
f 205/194/171 206/195/171 204/195/171
f 205/194/174 203/194/174 199/196/174
f 206/195/178 205/194/178 201/196/178
f 203/194/39 204/195/39 200/197/39
f 204/195/173 206/195/173 202/197/173
f 212/198/171 214/198/171 213/199/171
f 207/200/173 211/199/173 213/199/173
f 209/200/178 213/199/178 214/198/178
f 208/201/39 212/198/39 211/199/39
f 210/201/174 214/198/174 212/198/174
f 217/202/178 218/205/178 216/203/178
f 220/203/39 222/205/39 221/202/39
f 218/205/173 222/205/173 220/203/173
f 216/203/171 220/203/171 219/204/171
f 215/204/174 219/204/174 221/202/174
f 217/202/175 221/202/175 222/205/175
f 223/206/174 228/206/174 232/207/174
f 226/208/173 233/208/173 229/209/173
f 225/207/178 232/207/178 233/208/178
f 234/210/175 231/213/175 227/211/175
f 229/209/179 230/212/179 227/211/179
f 228/206/180 227/211/180 231/213/180
f 233/208/181 234/210/181 230/212/181
f 234/210/182 233/208/182 232/207/182
f 224/209/39 229/209/39 228/206/39
f 262/214/183 260/232/183 270/215/183
f 238/217/184 258/246/184 248/218/184
f 240/220/185 266/238/185 272/221/185
f 252/223/184 238/217/184 235/219/184
f 273/226/186 255/245/186 257/227/186
f 257/227/373 237/251/373 271/225/373
f 237/251/374 242/252/374 271/225/374
f 261/229/187 243/249/187 245/230/187
f 245/230/375 236/248/375 259/228/375
f 236/248/376 239/250/376 259/228/376
f 246/224/188 244/235/188 254/231/188
f 240/220/189 241/222/189 270/215/189
f 248/218/190 258/246/190 256/233/190
f 244/235/174 262/214/174 268/216/174
f 250/234/173 256/233/173 274/236/173
f 264/237/191 274/236/191 272/221/191
f 242/252/377 237/251/377 269/240/377
f 237/251/378 251/241/378 269/240/378
f 251/241/186 253/242/186 267/239/186
f 251/241/192 252/223/192 254/231/192
f 245/230/193 243/249/193 244/235/193
f 247/243/194 248/218/194 250/234/194
f 255/245/195 256/233/195 258/246/195
f 269/240/196 267/239/196 268/216/196
f 259/228/197 260/232/197 262/214/197
f 265/247/198 263/253/198 264/237/198
f 271/225/199 272/221/199 274/236/199
f 245/230/379 246/224/379 235/219/379
f 251/241/380 237/251/380 238/217/380
f 253/242/202 254/231/202 268/216/202
f 243/249/203 261/229/203 262/214/203
f 240/220/381 260/232/381 259/228/381
f 235/219/379 248/218/379 247/243/379
f 264/237/206 263/253/206 249/244/206
f 240/220/382 239/250/382 265/247/382
f 257/227/201 258/246/201 238/217/201
f 273/226/209 274/236/209 256/233/209
f 241/222/383 242/252/383 269/240/383
f 241/222/384 272/221/384 271/225/384
f 239/250/385 236/248/385 265/247/385
f 236/248/386 247/243/386 265/247/386
f 247/243/187 249/244/187 263/253/187
