# Blender 4.4.0
# www.blender.org
mtllib Prop_Beer_Bottle_03.mtl
o Prop_Beer_Bottle_03
v 0.013870 0.111970 -0.033485
v -0.013870 0.111970 -0.033485
v -0.033485 0.111970 -0.013870
v -0.033485 0.111970 0.013870
v -0.013870 0.111970 0.033485
v 0.013870 0.111970 0.033485
v 0.033485 0.111970 0.013870
v 0.033485 0.111970 -0.013870
v 0.008074 0.141484 -0.019493
v -0.008074 0.141484 -0.019493
v -0.019493 0.141484 -0.008074
v -0.019493 0.141484 0.008074
v -0.008074 0.141484 0.019493
v 0.008074 0.141484 0.019493
v 0.019493 0.141484 0.008074
v 0.019493 0.141484 -0.008074
v 0.013870 0.012665 -0.033485
v -0.013870 0.012665 -0.033485
v -0.033485 0.012665 -0.013870
v -0.033485 0.012665 0.013870
v -0.013870 0.012665 0.033485
v 0.013870 0.012665 0.033485
v 0.033485 0.012665 0.013870
v 0.033485 0.012665 -0.013870
v 0.009424 0.000000 -0.022750
v -0.009424 0.000000 -0.022750
v -0.022750 0.000000 -0.009424
v -0.022750 0.000000 0.009424
v -0.009424 0.000000 0.022750
v 0.009424 0.000000 0.022750
v 0.022750 0.000000 0.009424
v 0.022750 0.000000 -0.009424
v 0.012757 0.002992 -0.030799
v -0.012757 0.002992 -0.030799
v 0.030799 0.002992 -0.012757
v 0.012757 0.002992 0.030799
v 0.030799 0.002992 0.012757
v -0.030799 0.002992 0.012757
v -0.012757 0.002992 0.030799
v -0.030799 0.002992 -0.012757
v -0.029714 0.122380 -0.012308
v -0.029714 0.122380 0.012308
v 0.012308 0.122380 -0.029714
v -0.012308 0.122380 -0.029714
v 0.029714 0.122380 -0.012308
v 0.012308 0.122380 0.029714
v 0.029714 0.122380 0.012308
v -0.012308 0.122380 0.029714
v -0.022324 0.133309 0.009247
v -0.009247 0.133309 -0.022324
v 0.022324 0.133309 0.009247
v -0.009247 0.133309 0.022324
v -0.022324 0.133309 -0.009247
v 0.009247 0.133309 -0.022324
v 0.022324 0.133309 -0.009247
v 0.009247 0.133309 0.022324
v 0.020716 0.158143 0.008581
v 0.008581 0.158143 0.020716
v -0.008581 0.158143 0.020716
v -0.020716 0.158143 0.008581
v -0.020716 0.158143 -0.008581
v -0.008581 0.158143 -0.020716
v 0.020716 0.158143 -0.008581
v 0.008581 0.158143 -0.020716
v 0.005650 0.214006 -0.013641
v -0.005650 0.214006 -0.013641
v -0.013641 0.214006 -0.005650
v -0.013641 0.214006 0.005650
v -0.005650 0.214006 0.013641
v 0.005650 0.214006 0.013641
v 0.013641 0.214006 0.005650
v 0.013641 0.214006 -0.005650
v 0.005366 0.218248 -0.012955
v -0.005366 0.218248 -0.012955
v -0.012955 0.218248 -0.005366
v -0.012955 0.218248 0.005366
v -0.005366 0.218248 0.012955
v 0.005366 0.218248 0.012955
v 0.012955 0.218248 0.005366
v 0.012955 0.218248 -0.005366
v 0.015073 0.216127 -0.006243
v 0.015073 0.216127 0.006243
v 0.006243 0.216127 0.015073
v -0.006243 0.216127 0.015073
v -0.015073 0.216127 0.006243
v -0.015073 0.216127 -0.006243
v -0.006243 0.216127 -0.015073
v 0.006243 0.216127 -0.015073
v 0.005366 0.220732 -0.012955
v -0.005366 0.220732 -0.012955
v -0.012955 0.220732 -0.005366
v -0.012955 0.220732 0.005366
v -0.005366 0.220732 0.012955
v 0.005366 0.220732 0.012955
v 0.012955 0.220732 0.005366
v 0.012955 0.220732 -0.005366
v -0.033485 0.101994 -0.013870
v -0.033485 0.023201 -0.013870
v -0.033485 0.023201 0.013870
v -0.033485 0.101994 0.013870
v 0.013870 0.101994 -0.033485
v 0.013870 0.023201 -0.033485
v -0.013870 0.023201 -0.033485
v -0.013870 0.101994 -0.033485
v 0.033485 0.101994 -0.013870
v 0.033485 0.023201 -0.013870
v 0.013870 0.101994 0.033485
v 0.013870 0.023201 0.033485
v 0.033485 0.023201 0.013870
v 0.033485 0.101994 0.013870
v -0.013870 0.023201 0.033485
v -0.013870 0.101994 0.033485
v 0.006226 0.220732 -0.015031
v -0.006226 0.220732 -0.015031
v 0.015031 0.220732 -0.006226
v 0.015031 0.220732 0.006226
v 0.006226 0.220732 0.015031
v -0.006226 0.220732 0.015031
v -0.015031 0.220732 0.006226
v -0.015031 0.220732 -0.006226
v 0.005886 0.225632 -0.014209
v 0.004303 0.228020 -0.010389
v -0.004303 0.228020 -0.010389
v -0.005886 0.225632 -0.014209
v 0.014209 0.225632 -0.005886
v 0.010389 0.228020 -0.004303
v 0.014209 0.225632 0.005886
v 0.010389 0.228020 0.004303
v 0.005886 0.225632 0.014209
v 0.004303 0.228020 0.010389
v -0.005886 0.225632 0.014209
v -0.004303 0.228020 0.010389
v -0.014209 0.225632 0.005886
v -0.010389 0.228020 0.004303
v -0.014209 0.225632 -0.005886
v -0.010389 0.228020 -0.004303
vn -0.9450 0.3272 -0.0000
vn -0.0000 0.3272 -0.9450
vn 0.6682 0.3272 -0.6682
vn 0.6682 0.3272 0.6682
vn -0.6682 0.3272 0.6682
vn -0.6682 0.3272 -0.6682
vn 0.9450 0.3272 -0.0000
vn -0.0000 0.3272 0.9450
vn -1.0000 -0.0000 -0.0000
vn -0.0000 -0.0000 -1.0000
vn 0.7071 -0.0000 -0.7071
vn 0.7071 -0.0000 0.7071
vn -0.7071 -0.0000 0.7071
vn -0.7071 -0.0000 -0.7071
vn 1.0000 -0.0000 -0.0000
vn -0.0000 -0.0000 1.0000
vn -0.0000 -0.9373 -0.3485
vn 0.2464 -0.9373 -0.2464
vn 0.2464 -0.9373 0.2464
vn -0.2464 -0.9373 0.2464
vn -0.2464 -0.9373 -0.2464
vn 0.3485 -0.9373 -0.0000
vn -0.0000 -0.9373 0.3485
vn -0.3485 -0.9373 -0.0000
vn -0.9635 -0.2676 -0.0000
vn -0.0000 -0.2676 0.9635
vn 0.9635 -0.2676 -0.0000
vn -0.6813 -0.2676 -0.6813
vn -0.6813 -0.2676 0.6813
vn 0.6813 -0.2676 0.6813
vn 0.6813 -0.2676 -0.6813
vn -0.0000 -0.2676 -0.9635
vn -0.0000 0.3405 0.9402
vn 0.9402 0.3405 -0.0000
vn -0.6648 0.3405 -0.6648
vn -0.6648 0.3405 0.6648
vn 0.6648 0.3405 0.6648
vn 0.6648 0.3405 -0.6648
vn -0.0000 0.3405 -0.9402
vn -0.9402 0.3405 -0.0000
vn -0.0000 0.5602 0.8284
vn 0.8284 0.5602 -0.0000
vn -0.5858 0.5602 -0.5858
vn -0.5858 0.5602 0.5858
vn 0.5858 0.5602 0.5858
vn 0.5858 0.5602 -0.5858
vn -0.0000 0.5602 -0.8284
vn -0.8284 0.5602 -0.0000
vn 0.9921 0.1256 -0.0000
vn -0.0000 0.1256 0.9921
vn -0.9921 0.1256 -0.0000
vn 0.7015 0.1256 -0.7015
vn 0.7015 0.1256 0.7015
vn -0.7015 0.1256 0.7015
vn -0.7015 0.1256 -0.7015
vn 0.7052 -0.0732 -0.7052
vn -0.0000 -0.0732 -0.9973
vn -0.9973 -0.0732 -0.0000
vn -0.0000 -0.0732 0.9973
vn 0.9973 -0.0732 -0.0000
vn -0.7052 -0.0732 -0.7052
vn -0.7052 -0.0732 0.7052
vn 0.7052 -0.0732 0.7052
vn 0.7077 0.7065 -0.0000
vn -0.0000 0.7065 0.7077
vn -0.7077 0.7065 -0.0000
vn -0.0000 0.7065 -0.7077
vn 0.5004 0.7065 -0.5004
vn 0.5004 0.7065 0.5004
vn -0.5004 0.7065 0.5004
vn -0.5004 0.7065 -0.5004
vn -0.5861 -0.5594 -0.5861
vn -0.5861 -0.5594 0.5861
vn 0.5861 -0.5594 0.5861
vn 0.5861 -0.5594 -0.5861
vn -0.0000 -0.5594 -0.8289
vn -0.8289 -0.5594 -0.0000
vn -0.0000 -0.5594 0.8289
vn 0.8289 -0.5594 -0.0000
vn -0.0000 0.1256 -0.9921
vn -0.0000 -1.0000 -0.0000
vn -0.6974 0.1653 -0.6974
vn -0.6974 0.1653 0.6974
vn 0.6974 0.1653 0.6974
vn 0.6974 0.1653 -0.6974
vn -0.9862 0.1653 -0.0000
vn -0.0000 0.1653 0.9862
vn 0.9862 0.1653 -0.0000
vn -0.0000 0.8480 -0.5300
vn -0.0000 0.1653 -0.9862
vn 0.3748 0.8480 -0.3748
vn 0.5300 0.8480 -0.0000
vn 0.3748 0.8480 0.3748
vn -0.0000 0.8480 0.5300
vn -0.3748 0.8480 0.3748
vn -0.5300 0.8480 -0.0000
vn -0.3748 0.8480 -0.3748
vn -0.0000 1.0000 -0.0000
vn -0.0000 0.3406 0.9402
vt 0.456686 0.919420
vt 0.456662 0.925538
vt 0.456421 0.919420
vt 0.456566 0.925538
vt 0.456431 0.925538
vt 0.456311 0.919420
vt 0.456335 0.925538
vt 0.456576 0.919420
vt 0.456780 0.837014
vt 0.456780 0.829129
vt 0.456382 0.837014
vt 0.456615 0.829129
vt 0.456615 0.837014
vt 0.456217 0.837014
vt 0.456382 0.829129
vt 0.456217 0.829129
vt 0.456391 0.821890
vt 0.456578 0.819650
vt 0.456606 0.821890
vt 0.456240 0.821890
vt 0.456419 0.819650
vt 0.456307 0.819650
vt 0.456690 0.819650
vt 0.456757 0.821890
vt 0.456382 0.903450
vt 0.456602 0.911240
vt 0.456615 0.903450
vt 0.456217 0.903450
vt 0.456249 0.911240
vt 0.456748 0.911240
vt 0.456780 0.903450
vt 0.456395 0.911240
vt 0.456384 0.979813
vt 0.456324 0.938006
vt 0.456451 0.979813
vt 0.456571 0.938006
vt 0.456426 0.938006
vt 0.456613 0.979813
vt 0.456673 0.938006
vt 0.456546 0.979813
vt 0.456372 0.981401
vt 0.456390 0.982988
vt 0.456446 0.981401
vt 0.456544 0.982988
vt 0.456551 0.981401
vt 0.456625 0.981401
vt 0.456607 0.982988
vt 0.456453 0.982988
vt 0.456453 0.984847
vt 0.456607 0.984847
vt 0.456544 0.984847
vt 0.456390 0.984847
vt 0.456382 0.895983
vt 0.337566 0.986738
vt 0.337303 0.955117
vt 0.337303 0.986738
vt 0.456217 0.895983
vt 0.456780 0.895983
vt 0.456615 0.895983
vt 0.337752 0.986738
vt 0.337566 0.955117
vt 0.337117 0.955117
vt 0.337117 0.986738
vt 0.223070 0.420635
vt 0.225633 0.499091
vt 0.222960 0.499091
vt 0.225897 0.420635
vt 0.216244 0.420635
vt 0.219180 0.499091
vt 0.219071 0.420635
vt 0.216508 0.499091
vt 0.222452 0.537322
vt 0.219689 0.537322
vt 0.217734 0.537322
vt 0.224406 0.537322
vt 0.337752 0.955117
s 0
usemtl Texture_Map
f 49/1/1 11/2/1 53/1/1
f 54/3/2 10/4/2 9/5/2
f 55/6/3 9/5/3 16/7/3
f 51/6/4 14/5/4 56/3/4
f 52/8/5 12/2/5 49/1/5
f 50/8/6 11/2/6 10/4/6
f 55/6/7 15/7/7 51/6/7
f 56/3/8 13/4/8 52/8/8
f 98/9/9 20/10/9 99/9/9
f 102/11/10 18/12/10 103/13/10
f 106/14/11 17/15/11 102/11/11
f 108/11/12 23/16/12 109/14/12
f 99/9/13 21/12/13 111/13/13
f 103/13/14 19/10/14 98/9/14
f 109/14/15 24/16/15 106/14/15
f 111/13/16 22/15/16 108/11/16
f 33/17/17 26/18/17 34/19/17
f 35/20/18 25/21/18 33/17/18
f 37/20/19 30/21/19 31/22/19
f 39/19/20 28/23/20 29/18/20
f 34/19/21 27/23/21 40/24/21
f 35/20/22 31/22/22 32/22/22
f 36/17/23 29/18/23 30/21/23
f 38/24/24 27/23/24 28/23/24
f 19/10/25 38/24/25 20/10/25
f 22/15/26 39/19/26 36/17/26
f 23/16/27 35/20/27 24/16/27
f 18/12/28 40/24/28 19/10/28
f 21/12/29 38/24/29 39/19/29
f 23/16/30 36/17/30 37/20/30
f 24/16/31 33/17/31 17/15/31
f 17/15/32 34/19/32 18/12/32
f 6/25/33 48/26/33 5/27/33
f 8/28/34 47/29/34 7/28/34
f 2/27/35 41/30/35 44/26/35
f 5/27/36 42/30/36 4/31/36
f 7/28/37 46/32/37 6/25/37
f 8/28/38 43/32/38 45/29/38
f 1/25/39 44/26/39 43/32/39
f 4/31/40 41/30/40 3/31/40
f 46/32/41 52/8/41 48/26/41
f 45/29/42 51/6/42 47/29/42
f 44/26/43 53/1/43 50/8/43
f 48/26/44 49/1/44 42/30/44
f 47/29/45 56/3/45 46/32/45
f 45/29/46 54/3/46 55/6/46
f 43/32/47 50/8/47 54/3/47
f 42/30/48 53/1/48 41/30/48
f 72/33/49 57/34/49 63/34/49
f 70/35/50 59/36/50 58/37/50
f 68/38/51 61/39/51 60/39/51
f 64/37/52 72/33/52 63/34/52
f 71/33/53 58/37/53 57/34/53
f 69/40/54 60/39/54 59/36/54
f 61/39/55 66/40/55 62/36/55
f 16/7/56 64/37/56 63/34/56
f 10/4/57 64/37/57 9/5/57
f 12/2/58 61/39/58 11/2/58
f 14/5/59 59/36/59 13/4/59
f 16/7/60 57/34/60 15/7/60
f 10/4/61 61/39/61 62/36/61
f 12/2/62 59/36/62 60/39/62
f 15/7/63 58/37/63 14/5/63
f 81/41/64 79/42/64 82/41/64
f 83/43/65 77/44/65 84/45/65
f 85/46/66 75/47/66 86/46/66
f 88/43/67 74/44/67 73/48/67
f 81/41/68 73/48/68 80/42/68
f 82/41/69 78/48/69 83/43/69
f 84/45/70 76/47/70 85/46/70
f 87/45/71 75/47/71 74/44/71
f 66/40/72 86/46/72 87/45/72
f 69/40/73 85/46/73 68/38/73
f 71/33/74 83/43/74 70/35/74
f 72/33/75 88/43/75 81/41/75
f 65/35/76 87/45/76 88/43/76
f 68/38/77 86/46/77 67/38/77
f 70/35/78 84/45/78 69/40/78
f 71/33/79 81/41/79 82/41/79
f 79/42/12 94/49/12 78/48/12
f 77/44/13 92/50/13 76/47/13
f 75/47/14 90/51/14 74/44/14
f 80/42/15 95/52/15 79/42/15
f 78/48/16 93/51/16 77/44/16
f 76/47/9 91/50/9 75/47/9
f 74/44/10 89/49/10 73/48/10
f 73/48/11 96/52/11 80/42/11
f 5/27/16 107/53/16 6/25/16
f 112/54/16 108/55/16 107/56/16
f 7/28/15 105/57/15 8/28/15
f 110/57/15 106/14/15 105/57/15
f 2/27/14 97/58/14 3/31/14
f 104/59/14 98/9/14 97/58/14
f 4/31/13 112/59/13 5/27/13
f 100/60/13 111/61/13 112/54/13
f 6/25/12 110/57/12 7/28/12
f 107/56/12 109/62/12 110/63/12
f 8/28/11 101/53/11 1/25/11
f 105/57/11 102/11/11 101/53/11
f 1/25/10 104/59/10 2/27/10
f 101/53/10 103/13/10 104/59/10
f 3/31/9 100/58/9 4/31/9
f 97/58/9 99/9/9 100/58/9
f 62/36/80 65/35/80 64/37/80
f 31/22/81 29/18/81 27/23/81
f 114/64/82 135/65/82 124/66/82
f 118/64/83 133/65/83 119/67/83
f 116/68/84 129/69/84 117/70/84
f 115/68/85 121/69/85 125/71/85
f 119/67/86 135/65/86 120/67/86
f 117/70/87 131/66/87 118/64/87
f 115/68/88 127/71/88 116/68/88
f 121/69/89 123/72/89 122/73/89
f 113/70/90 124/66/90 121/69/90
f 125/71/91 122/73/91 126/74/91
f 128/74/92 125/71/92 126/74/92
f 130/73/93 127/71/93 128/74/93
f 132/72/94 129/69/94 130/73/94
f 134/75/95 131/66/95 132/72/95
f 136/75/96 133/65/96 134/75/96
f 124/66/97 136/75/97 123/72/97
f 134/75/98 130/73/98 126/74/98
f 117/70/81 119/67/81 114/64/81
f 49/1/1 12/2/1 11/2/1
f 54/3/2 50/8/2 10/4/2
f 55/6/3 54/3/3 9/5/3
f 51/6/4 15/7/4 14/5/4
f 52/8/5 13/4/5 12/2/5
f 50/8/6 53/1/6 11/2/6
f 55/6/7 16/7/7 15/7/7
f 56/3/8 14/5/8 13/4/8
f 98/9/9 19/10/9 20/10/9
f 102/11/10 17/15/10 18/12/10
f 106/14/11 24/16/11 17/15/11
f 108/11/12 22/15/12 23/16/12
f 99/9/13 20/10/13 21/12/13
f 103/13/14 18/12/14 19/10/14
f 109/14/15 23/16/15 24/16/15
f 111/13/16 21/12/16 22/15/16
f 33/17/17 25/21/17 26/18/17
f 35/20/18 32/22/18 25/21/18
f 37/20/19 36/17/19 30/21/19
f 39/19/20 38/24/20 28/23/20
f 34/19/21 26/18/21 27/23/21
f 35/20/22 37/20/22 31/22/22
f 36/17/23 39/19/23 29/18/23
f 38/24/24 40/24/24 27/23/24
f 19/10/25 40/24/25 38/24/25
f 22/15/26 21/12/26 39/19/26
f 23/16/27 37/20/27 35/20/27
f 18/12/28 34/19/28 40/24/28
f 21/12/29 20/10/29 38/24/29
f 23/16/30 22/15/30 36/17/30
f 24/16/31 35/20/31 33/17/31
f 17/15/32 33/17/32 34/19/32
f 6/25/99 46/32/99 48/26/99
f 8/28/34 45/29/34 47/29/34
f 2/27/35 3/31/35 41/30/35
f 5/27/36 48/26/36 42/30/36
f 7/28/37 47/29/37 46/32/37
f 8/28/38 1/25/38 43/32/38
f 1/25/39 2/27/39 44/26/39
f 4/31/40 42/30/40 41/30/40
f 46/32/41 56/3/41 52/8/41
f 45/29/42 55/6/42 51/6/42
f 44/26/43 41/30/43 53/1/43
f 48/26/44 52/8/44 49/1/44
f 47/29/45 51/6/45 56/3/45
f 45/29/46 43/32/46 54/3/46
f 43/32/47 44/26/47 50/8/47
f 42/30/48 49/1/48 53/1/48
f 72/33/49 71/33/49 57/34/49
f 70/35/50 69/40/50 59/36/50
f 68/38/51 67/38/51 61/39/51
f 64/37/52 65/35/52 72/33/52
f 71/33/53 70/35/53 58/37/53
f 69/40/54 68/38/54 60/39/54
f 61/39/55 67/38/55 66/40/55
f 16/7/56 9/5/56 64/37/56
f 10/4/57 62/36/57 64/37/57
f 12/2/58 60/39/58 61/39/58
f 14/5/59 58/37/59 59/36/59
f 16/7/60 63/34/60 57/34/60
f 10/4/61 11/2/61 61/39/61
f 12/2/62 13/4/62 59/36/62
f 15/7/63 57/34/63 58/37/63
f 81/41/64 80/42/64 79/42/64
f 83/43/65 78/48/65 77/44/65
f 85/46/66 76/47/66 75/47/66
f 88/43/67 87/45/67 74/44/67
f 81/41/68 88/43/68 73/48/68
f 82/41/69 79/42/69 78/48/69
f 84/45/70 77/44/70 76/47/70
f 87/45/71 86/46/71 75/47/71
f 66/40/72 67/38/72 86/46/72
f 69/40/73 84/45/73 85/46/73
f 71/33/74 82/41/74 83/43/74
f 72/33/75 65/35/75 88/43/75
f 65/35/76 66/40/76 87/45/76
f 68/38/77 85/46/77 86/46/77
f 70/35/78 83/43/78 84/45/78
f 71/33/79 72/33/79 81/41/79
f 79/42/12 95/52/12 94/49/12
f 77/44/13 93/51/13 92/50/13
f 75/47/14 91/50/14 90/51/14
f 80/42/15 96/52/15 95/52/15
f 78/48/16 94/49/16 93/51/16
f 76/47/9 92/50/9 91/50/9
f 74/44/10 90/51/10 89/49/10
f 73/48/11 89/49/11 96/52/11
f 5/27/16 112/59/16 107/53/16
f 112/54/16 111/61/16 108/55/16
f 7/28/15 110/57/15 105/57/15
f 110/57/15 109/14/15 106/14/15
f 2/27/14 104/59/14 97/58/14
f 104/59/14 103/13/14 98/9/14
f 4/31/13 100/58/13 112/59/13
f 100/60/13 99/76/13 111/61/13
f 6/25/12 107/53/12 110/57/12
f 107/56/12 108/55/12 109/62/12
f 8/28/11 105/57/11 101/53/11
f 105/57/11 106/14/11 102/11/11
f 1/25/10 101/53/10 104/59/10
f 101/53/10 102/11/10 103/13/10
f 3/31/9 97/58/9 100/58/9
f 97/58/9 98/9/9 99/9/9
f 62/36/80 66/40/80 65/35/80
f 27/23/81 26/18/81 25/21/81
f 25/21/81 32/22/81 27/23/81
f 32/22/81 31/22/81 27/23/81
f 31/22/81 30/21/81 29/18/81
f 29/18/81 28/23/81 27/23/81
f 114/64/82 120/67/82 135/65/82
f 118/64/83 131/66/83 133/65/83
f 116/68/84 127/71/84 129/69/84
f 115/68/85 113/70/85 121/69/85
f 119/67/86 133/65/86 135/65/86
f 117/70/87 129/69/87 131/66/87
f 115/68/88 125/71/88 127/71/88
f 121/69/89 124/66/89 123/72/89
f 113/70/90 114/64/90 124/66/90
f 125/71/91 121/69/91 122/73/91
f 128/74/92 127/71/92 125/71/92
f 130/73/93 129/69/93 127/71/93
f 132/72/94 131/66/94 129/69/94
f 134/75/95 133/65/95 131/66/95
f 136/75/96 135/65/96 133/65/96
f 124/66/97 135/65/97 136/75/97
f 126/74/98 122/73/98 123/72/98
f 123/72/98 136/75/98 134/75/98
f 134/75/98 132/72/98 130/73/98
f 130/73/98 128/74/98 126/74/98
f 126/74/98 123/72/98 134/75/98
f 114/64/81 113/70/81 115/68/81
f 115/68/81 116/68/81 117/70/81
f 117/70/81 118/64/81 119/67/81
f 119/67/81 120/67/81 114/64/81
f 114/64/81 115/68/81 117/70/81
