# Blender 4.4.0
# www.blender.org
mtllib Prop_Trash_Bag_02.mtl
o Prop_Trash_Bag_02
v 0.022274 0.596209 -0.008361
v -0.010591 0.629439 -0.052608
v -0.035001 0.634188 -0.036980
v -0.037582 0.628931 0.022658
v -0.014441 0.617000 0.034303
v 0.018558 0.626493 -0.035748
v -0.041393 0.611743 -0.039222
v -0.015145 0.600536 -0.052284
v -0.053949 0.610763 -0.013890
v -0.042755 0.601402 0.021443
v -0.017999 0.596614 0.032113
v 0.009306 0.586281 0.016032
v 0.021274 0.589775 -0.007413
v 0.013071 0.593006 -0.035068
v -0.039804 0.631950 -0.041379
v -0.010886 0.626380 -0.059152
v -0.053371 0.632848 -0.013205
v -0.042913 0.625186 0.026718
v -0.014542 0.612485 0.040221
v 0.017778 0.602499 0.020742
v 0.032075 0.603727 -0.008738
v 0.023254 0.624152 -0.040168
v -0.010635 0.515264 -0.093150
v -0.074911 0.535712 -0.072174
v -0.112641 0.542520 -0.021819
v -0.086181 0.530749 0.065840
v -0.018786 0.522245 0.094831
v 0.064436 0.515434 0.052481
v 0.087296 0.501359 -0.010091
v 0.051930 0.506334 -0.054901
v 0.109900 -0.005482 -0.076213
v 0.146810 -0.004978 -0.007778
v 0.098795 -0.004752 0.076094
v -0.013104 0.025415 0.128049
v -0.103124 0.003865 0.097681
v -0.143519 -0.004339 -0.019986
v -0.095752 -0.004558 -0.082934
v -0.000005 -0.005171 -0.114912
v 0.007014 0.186597 -0.256067
v -0.175910 0.165592 -0.175843
v -0.251019 0.158533 -0.051001
v -0.206618 0.147449 0.173472
v -0.024461 0.150983 0.232160
v 0.220337 0.172924 0.118659
v 0.265017 0.200668 -0.024280
v 0.216517 0.202833 -0.164926
v 0.165904 0.329962 -0.133134
v 0.218291 0.312234 -0.009770
v 0.178042 0.276182 0.120803
v -0.030047 0.264448 0.215947
v -0.194651 0.279701 0.156966
v -0.227847 0.307512 -0.044151
v -0.153123 0.323117 -0.165151
v 0.006775 0.337878 -0.221940
v -0.014354 0.608198 -0.051365
v -0.039933 0.615126 -0.039064
v -0.051356 0.615557 -0.013238
v -0.041122 0.608538 0.022078
v -0.018007 0.605318 0.033235
v 0.009723 0.591419 0.015993
v 0.014169 0.604186 -0.035605
v -0.046941 0.634791 -0.012703
v 0.014099 0.608710 0.016718
v 0.027041 0.610298 -0.009464
v 0.004456 0.690276 -0.112576
v -0.053170 0.697127 -0.075685
v -0.080321 0.699685 -0.018742
v -0.058051 0.695966 0.063302
v -0.005102 0.674187 0.090097
v 0.058733 0.646565 0.048182
v 0.088699 0.644957 -0.006776
v 0.071943 0.671409 -0.073137
v 0.009589 0.080147 -0.190144
v -0.143050 0.075584 -0.130935
v -0.213381 0.069387 -0.038501
v -0.159947 0.057511 0.134582
v -0.011995 0.059912 0.186335
v 0.181236 0.061844 0.109188
v 0.216254 0.074776 -0.019183
v 0.194341 0.080623 -0.121987
v -0.009931 0.601931 -0.015481
v -0.015337 0.602971 -0.012565
v -0.018107 0.603576 -0.007183
v -0.015902 0.604618 0.000900
v -0.010994 0.604944 0.003633
v -0.004736 0.603959 -0.000214
v -0.001946 0.603473 -0.005527
v -0.003906 0.604764 -0.011520
v 0.084485 0.645951 -0.006659
v 0.068933 0.674382 -0.069065
v -0.003440 0.676815 0.084065
v 0.056398 0.650525 0.044943
v -0.074120 0.702218 -0.017910
v -0.053011 0.698794 0.058973
v 0.005656 0.692369 -0.106104
v -0.048554 0.697568 -0.071341
v -0.002128 0.453449 -0.161607
v -0.121601 0.451851 -0.124125
v -0.186982 0.436189 -0.032856
v -0.157248 0.388313 0.125299
v -0.026184 0.365487 0.173726
v 0.135920 0.374508 0.096641
v 0.164661 0.403010 -0.011151
v 0.112027 0.428939 -0.096222
vn -0.9004 0.0244 -0.4344
vn 0.7430 -0.6028 -0.2908
vn 0.3363 -0.4855 0.8069
vn -0.9664 0.0173 0.2565
vn -0.4904 -0.1474 -0.8589
vn 0.4430 -0.2841 -0.8503
vn 0.7943 -0.5105 0.3294
vn -0.4905 -0.1918 0.8501
vn 0.0665 0.7927 0.6059
vn 0.5269 0.6595 0.5361
vn 0.7108 0.5873 0.3870
vn 0.6155 0.7441 0.2598
vn 0.2877 0.8625 -0.4162
vn -0.0709 0.9182 -0.3897
vn -0.2738 0.9480 -0.1620
vn -0.4048 0.8726 0.2735
vn -0.5731 -0.6638 -0.4806
vn 0.0344 -0.8604 0.5085
vn 0.7565 -0.6384 0.1421
vn 0.2490 -0.6562 -0.7124
vn -0.2561 -0.6034 -0.7552
vn -0.5732 -0.7799 0.2512
vn 0.2775 -0.6805 0.6781
vn 0.6524 -0.7360 -0.1809
vn 0.8767 0.3205 0.3587
vn -0.3066 0.1198 0.9443
vn -0.8503 0.1554 -0.5028
vn 0.8566 0.4170 -0.3038
vn 0.4052 0.1472 0.9023
vn -0.9737 0.1128 0.1982
vn -0.4103 0.1207 -0.9039
vn 0.4855 0.1931 -0.8527
vn -0.8275 0.3042 -0.4718
vn -0.2808 0.3792 0.8817
vn 0.8066 0.4818 0.3425
vn 0.5167 0.4272 -0.7420
vn -0.3416 0.3603 -0.8681
vn -0.9067 0.3708 0.2009
vn 0.3818 0.3715 0.8463
vn 0.7081 0.4946 -0.5039
vn 0.3974 0.6137 0.6822
vn -0.7402 0.5998 0.3040
vn -0.1674 0.3987 -0.9017
vn 0.5240 0.3549 -0.7743
vn 0.8139 0.5548 0.1726
vn -0.2604 0.5766 0.7744
vn -0.6136 0.5781 -0.5379
vn 0.7786 0.5419 -0.3166
vn 0.5381 -0.8146 0.2166
vn -0.5460 -0.5499 0.6320
vn -0.8099 -0.4586 -0.3656
vn 0.4212 -0.7051 -0.5704
vn 0.1522 -0.7028 0.6949
vn -0.8837 -0.4396 0.1610
vn -0.4975 -0.5434 -0.6762
vn 0.2533 -0.7788 -0.5739
vn 0.9073 -0.2761 -0.3171
vn 0.4264 -0.2248 0.8762
vn -0.8243 -0.5223 0.2186
vn -0.2975 -0.5110 -0.8064
vn 0.3810 -0.4801 -0.7902
vn 0.9129 -0.3448 0.2184
vn -0.2862 -0.4617 0.8396
vn -0.7217 -0.3854 -0.5750
vn 0.0599 -0.9970 0.0489
vn -0.4146 0.8522 0.3192
vn -0.1019 0.7465 -0.6575
vn 0.8457 0.4489 -0.2886
vn 0.4788 0.5789 0.6601
vn -0.5479 0.7931 0.2661
vn -0.4264 0.8526 -0.3020
vn 0.5576 0.5837 -0.5903
vn 0.8009 0.4927 0.3403
vn -0.0630 0.9958 0.0662
vn -0.0366 0.9974 -0.0622
vn 0.0570 0.8041 0.5917
vn 0.6834 0.6594 0.3135
vn 0.4231 0.8517 -0.3092
vn -0.0751 0.9528 -0.2942
vn -0.3909 0.9085 0.1478
vn 0.5878 0.6698 0.4537
vn 0.2238 0.9068 0.3573
vn 0.6064 0.6858 -0.4025
vn 0.3651 0.4419 0.8194
vn -0.7937 0.5246 0.3080
vn -0.0904 0.5604 -0.8233
vn 0.4462 0.6911 -0.5686
vn 0.7782 0.6106 0.1470
vn -0.2410 0.4454 0.8623
vn -0.7215 0.5483 -0.4228
vn -0.8959 0.0372 -0.4426
vn 0.8224 -0.3432 -0.4538
vn 0.3369 -0.4206 0.8424
vn -0.9561 -0.0695 0.2845
vn -0.5298 -0.0487 -0.8467
vn 0.4490 -0.2979 -0.8424
vn 0.7579 -0.5540 0.3445
vn -0.4269 -0.3359 0.8396
vn 0.0223 0.7201 0.6935
vn 0.5190 0.6752 0.5241
vn 0.6832 0.6365 0.3579
vn 0.7711 0.6106 0.1804
vn 0.2372 0.9398 -0.2458
vn -0.0833 0.9042 -0.4190
vn -0.2882 0.9432 -0.1651
vn -0.2979 0.9259 0.2323
vn -0.6135 -0.6395 -0.4633
vn -0.2248 -0.7025 0.6752
vn 0.5230 -0.7972 0.3015
vn 0.2665 -0.6430 -0.7180
vn -0.2675 -0.6202 -0.7374
vn -0.7362 -0.6517 0.1825
vn 0.0044 -0.8606 0.5093
vn 0.6773 -0.6413 -0.3606
vn 0.8725 0.3503 0.3407
vn -0.3217 0.1459 0.9355
vn -0.8492 0.1571 -0.5042
vn 0.8677 0.4015 -0.2930
vn 0.4042 0.1489 0.9025
vn -0.9731 0.1431 0.1804
vn -0.3443 0.2061 -0.9160
vn 0.3495 0.3559 -0.8667
vn -0.7881 0.3536 -0.5039
vn -0.2693 0.3539 0.8957
vn 0.8160 0.4413 0.3734
vn 0.4375 0.5135 -0.7382
vn -0.2757 0.4281 -0.8607
vn -0.9274 0.2720 0.2567
vn 0.3741 0.3454 0.8607
vn 0.9102 0.3825 -0.1587
vn 0.6236 0.4618 0.6307
vn -0.7417 0.5835 0.3309
vn -0.2756 0.4708 -0.8381
vn 0.4883 0.3741 -0.7885
vn 0.6123 0.6541 0.4441
vn -0.2830 0.5896 0.7565
vn -0.7903 0.4973 -0.3579
vn 0.8279 0.4848 -0.2819
vn 0.4617 -0.8429 0.2764
vn -0.5823 -0.5170 0.6274
vn -0.8056 -0.4502 -0.3851
vn 0.3903 -0.8171 -0.4243
vn 0.1793 -0.7452 0.6423
vn -0.8866 -0.4055 0.2223
vn -0.5234 -0.5509 -0.6501
vn 0.1947 -0.7126 -0.6741
vn 0.9079 -0.3603 -0.2140
vn 0.3457 -0.3836 0.8564
vn -0.9169 -0.3642 0.1634
vn -0.2964 -0.5080 -0.8088
vn 0.3230 -0.3654 -0.8730
vn 0.9152 -0.3405 0.2154
vn -0.2581 -0.4932 0.8308
vn -0.7296 -0.4994 -0.4672
vn 0.0360 -0.9913 0.1267
vn -0.0044 -1.0000 0.0045
vn 0.0042 -1.0000 0.0051
vn -0.2103 -0.9713 0.1109
vn 0.2151 -0.9751 0.0543
vn -0.3956 0.7946 0.4606
vn -0.2103 0.8088 -0.5492
vn 0.8565 0.4696 -0.2142
vn 0.4706 0.5790 0.6659
vn -0.1937 0.7109 0.6761
vn -0.4232 0.8528 -0.3059
vn 0.3151 0.6928 -0.6486
vn 0.7960 0.4906 0.3546
vn -0.0925 0.8711 -0.4822
vn -0.1363 0.9742 -0.1797
vn 0.0444 0.9892 -0.1396
vn 0.0392 0.9815 -0.1876
vn 0.3373 0.9369 0.0914
vn -0.3390 0.9093 -0.2414
vn 0.1492 0.8908 0.4292
vn 0.2310 0.9680 0.0976
vn 0.4359 0.8295 -0.3491
vn 0.0182 0.9926 -0.1200
vn -0.3858 0.9110 0.1460
vn 0.5826 0.6921 0.4261
vn 0.7492 0.6582 0.0732
vn 0.7521 0.5947 -0.2841
vn 0.4433 0.3862 0.8089
vn -0.7940 0.5230 0.3099
vn -0.2193 0.7104 -0.6687
vn 0.4716 0.6714 -0.5717
vn 0.7891 0.5083 0.3448
vn -0.2919 0.4888 0.8221
vn -0.5725 0.6379 -0.5152
vt 0.839964 0.754124
vt 0.839577 0.759008
vt 0.840015 0.758801
vt 0.841723 0.749789
vt 0.842337 0.752269
vt 0.841988 0.749041
vt 0.840720 0.750624
vt 0.841875 0.751985
vt 0.840831 0.754296
vt 0.839558 0.753898
vt 0.839915 0.757235
vt 0.840949 0.757511
vt 0.840812 0.751531
vt 0.842052 0.756996
vt 0.841602 0.748232
vt 0.839920 0.751732
vt 0.840835 0.755341
vt 0.841757 0.753423
vt 0.842175 0.753790
vt 0.841901 0.757538
vt 0.840959 0.758219
vt 0.840170 0.759318
vt 0.839785 0.759458
vt 0.840087 0.758102
vt 0.836680 0.630053
vt 0.836665 0.611558
vt 0.834408 0.628619
vt 0.840914 0.626426
vt 0.837970 0.613456
vt 0.840878 0.618443
vt 0.847156 0.626873
vt 0.846044 0.611410
vt 0.848287 0.629866
vt 0.841611 0.631109
vt 0.844851 0.611293
vt 0.841301 0.611365
vt 0.838208 0.611507
vt 0.836134 0.625870
vt 0.844492 0.611462
vt 0.847579 0.631219
vt 0.847052 0.676473
vt 0.849862 0.658998
vt 0.848353 0.684816
vt 0.840330 0.673757
vt 0.834626 0.646683
vt 0.840511 0.647501
vt 0.833941 0.683723
vt 0.835618 0.650881
vt 0.833192 0.649248
vt 0.848295 0.659499
vt 0.846660 0.688918
vt 0.848419 0.652578
vt 0.835013 0.677287
vt 0.836355 0.687334
vt 0.841528 0.655742
vt 0.841520 0.690750
vt 0.835261 0.713500
vt 0.840455 0.697139
vt 0.845692 0.699226
vt 0.846620 0.705822
vt 0.844920 0.711822
vt 0.841232 0.717494
vt 0.837373 0.717124
vt 0.836221 0.702421
vt 0.842979 0.729732
vt 0.842021 0.750530
vt 0.844121 0.728581
vt 0.841615 0.749421
vt 0.840694 0.733414
vt 0.843383 0.731838
vt 0.839973 0.753383
vt 0.837662 0.738106
vt 0.838517 0.735382
vt 0.838881 0.736530
vt 0.840837 0.753304
vt 0.840958 0.731798
vt 0.841759 0.752376
vt 0.840719 0.752638
vt 0.839642 0.755007
vt 0.843198 0.762183
vt 0.841136 0.768575
vt 0.839426 0.773614
vt 0.838706 0.774475
vt 0.839584 0.773883
vt 0.844166 0.761810
vt 0.841445 0.772298
vt 0.843625 0.767932
vt 0.844030 0.762040
vt 0.841175 0.752509
vt 0.841238 0.752211
vt 0.843123 0.763099
vt 0.840946 0.752551
vt 0.841190 0.769183
vt 0.838907 0.775061
vt 0.840787 0.752476
vt 0.840716 0.752235
vt 0.839733 0.773985
vt 0.840980 0.751854
vt 0.841484 0.772782
vt 0.843528 0.768620
vt 0.841148 0.752323
vt 0.839589 0.774269
vt 0.840806 0.752095
vt 0.840011 0.754907
s 0
usemtl Texture_Map
f 7/1/1 17/2/1 15/3/1
f 14/4/2 21/5/2 13/6/2
f 11/7/3 20/8/3 19/9/3
f 9/10/4 18/11/4 17/2/4
f 7/1/5 16/12/5 8/13/5
f 8/13/6 22/14/6 14/4/6
f 13/6/7 20/8/7 12/15/7
f 10/16/8 19/9/8 18/11/8
f 5/17/9 18/11/9 19/9/9
f 63/18/10 19/9/10 20/8/10
f 63/18/11 21/5/11 64/19/11
f 64/19/12 22/14/12 6/20/12
f 2/21/13 22/14/13 16/12/13
f 2/21/14 15/3/14 3/22/14
f 62/23/15 15/3/15 17/2/15
f 4/24/16 17/2/16 18/11/16
f 74/25/17 36/26/17 75/27/17
f 77/28/18 35/29/18 34/30/18
f 78/31/19 32/32/19 79/33/19
f 73/34/20 31/35/20 38/36/20
f 74/25/21 38/36/21 37/37/21
f 76/38/22 36/26/22 35/29/22
f 77/28/23 33/39/23 78/31/23
f 79/33/24 31/35/24 80/40/24
f 49/41/25 45/42/25 48/43/25
f 50/44/26 42/45/26 43/46/26
f 52/47/27 40/48/27 41/49/27
f 48/43/28 46/50/28 47/51/28
f 49/41/29 43/46/29 44/52/29
f 51/53/30 41/49/30 42/45/30
f 53/54/31 39/55/31 40/48/31
f 47/51/32 39/55/32 54/56/32
f 99/57/33 53/54/33 52/47/33
f 101/58/34 51/53/34 50/44/34
f 102/59/35 48/43/35 103/60/35
f 104/61/36 54/56/36 97/62/36
f 98/63/37 54/56/37 53/54/37
f 100/64/38 52/47/38 51/53/38
f 101/58/39 49/41/39 102/59/39
f 30/65/40 1/66/40 29/67/40
f 60/68/41 27/69/41 28/70/41
f 58/71/42 25/72/42 26/73/42
f 24/74/43 55/75/43 23/76/43
f 23/76/44 61/77/44 30/65/44
f 1/66/45 28/70/45 29/67/45
f 59/78/46 26/73/46 27/69/46
f 57/79/47 24/74/47 25/72/47
f 103/60/48 47/51/48 104/61/48
f 64/19/49 70/80/49 63/18/49
f 4/24/50 69/81/50 68/82/50
f 3/22/51 67/83/51 66/84/51
f 6/20/52 71/85/52 64/19/52
f 5/17/53 70/80/53 69/81/53
f 4/24/54 67/83/54 62/23/54
f 2/21/55 66/84/55 65/86/55
f 2/21/56 72/87/56 6/20/56
f 45/42/57 80/40/57 46/50/57
f 43/46/58 78/31/58 44/52/58
f 42/45/59 75/27/59 76/38/59
f 40/48/60 73/34/60 74/25/60
f 46/50/61 73/34/61 39/55/61
f 44/52/62 79/33/62 45/42/62
f 43/46/63 76/38/63 77/28/63
f 41/49/64 74/25/64 75/27/64
f 35/29/65 36/26/65 37/37/65
f 89/88/66 88/89/66 87/90/66
f 92/91/67 85/92/67 91/93/67
f 93/94/68 84/95/68 83/96/68
f 96/97/69 81/98/69 95/99/69
f 90/100/70 81/98/70 88/89/70
f 92/91/71 87/90/71 86/101/71
f 91/93/72 84/95/72 94/102/72
f 93/94/73 82/103/73 96/97/73
f 83/96/74 86/101/74 88/89/74
f 67/83/75 96/97/75 66/84/75
f 68/82/76 91/93/76 94/102/76
f 70/80/77 89/88/77 92/91/77
f 72/87/78 95/99/78 90/100/78
f 66/84/79 95/99/79 65/86/79
f 67/83/80 94/102/80 93/94/80
f 70/80/81 91/93/81 69/81/81
f 71/85/82 90/100/82 89/88/82
f 29/67/83 104/61/83 30/65/83
f 28/70/84 101/58/84 102/59/84
f 26/73/85 99/57/85 100/64/85
f 23/76/86 98/63/86 24/74/86
f 30/65/87 97/62/87 23/76/87
f 28/70/88 103/60/88 29/67/88
f 27/69/89 100/64/89 101/58/89
f 25/72/90 98/63/90 99/57/90
f 7/1/91 9/10/91 17/2/91
f 14/4/92 22/14/92 21/5/92
f 11/7/93 12/15/93 20/8/93
f 9/10/94 10/16/94 18/11/94
f 7/1/95 15/3/95 16/12/95
f 8/13/96 16/12/96 22/14/96
f 13/6/97 21/5/97 20/8/97
f 10/16/98 11/7/98 19/9/98
f 5/17/99 4/24/99 18/11/99
f 63/18/100 5/17/100 19/9/100
f 63/18/101 20/8/101 21/5/101
f 64/19/102 21/5/102 22/14/102
f 2/21/103 6/20/103 22/14/103
f 2/21/104 16/12/104 15/3/104
f 62/23/105 3/22/105 15/3/105
f 4/24/106 62/23/106 17/2/106
f 74/25/107 37/37/107 36/26/107
f 77/28/108 76/38/108 35/29/108
f 78/31/109 33/39/109 32/32/109
f 73/34/110 80/40/110 31/35/110
f 74/25/111 73/34/111 38/36/111
f 76/38/112 75/27/112 36/26/112
f 77/28/113 34/30/113 33/39/113
f 79/33/114 32/32/114 31/35/114
f 49/41/115 44/52/115 45/42/115
f 50/44/116 51/53/116 42/45/116
f 52/47/117 53/54/117 40/48/117
f 48/43/118 45/42/118 46/50/118
f 49/41/119 50/44/119 43/46/119
f 51/53/120 52/47/120 41/49/120
f 53/54/121 54/56/121 39/55/121
f 47/51/122 46/50/122 39/55/122
f 99/57/123 98/63/123 53/54/123
f 101/58/124 100/64/124 51/53/124
f 102/59/125 49/41/125 48/43/125
f 104/61/126 47/51/126 54/56/126
f 98/63/127 97/62/127 54/56/127
f 100/64/128 99/57/128 52/47/128
f 101/58/129 50/44/129 49/41/129
f 30/65/130 61/77/130 1/66/130
f 60/68/131 59/78/131 27/69/131
f 58/71/132 57/79/132 25/72/132
f 24/74/133 56/104/133 55/75/133
f 23/76/134 55/75/134 61/77/134
f 1/66/135 60/68/135 28/70/135
f 59/78/136 58/71/136 26/73/136
f 57/79/137 56/104/137 24/74/137
f 103/60/138 48/43/138 47/51/138
f 64/19/139 71/85/139 70/80/139
f 4/24/140 5/17/140 69/81/140
f 3/22/141 62/23/141 67/83/141
f 6/20/142 72/87/142 71/85/142
f 5/17/143 63/18/143 70/80/143
f 4/24/144 68/82/144 67/83/144
f 2/21/145 3/22/145 66/84/145
f 2/21/146 65/86/146 72/87/146
f 45/42/147 79/33/147 80/40/147
f 43/46/148 77/28/148 78/31/148
f 42/45/149 41/49/149 75/27/149
f 40/48/150 39/55/150 73/34/150
f 46/50/151 80/40/151 73/34/151
f 44/52/152 78/31/152 79/33/152
f 43/46/153 42/45/153 76/38/153
f 41/49/154 40/48/154 74/25/154
f 37/37/155 38/36/155 34/30/155
f 38/36/156 31/35/156 33/39/156
f 31/35/157 32/32/157 33/39/157
f 33/39/158 34/30/158 38/36/158
f 34/30/159 35/29/159 37/37/159
f 89/88/160 90/100/160 88/89/160
f 92/91/161 86/101/161 85/92/161
f 93/94/162 94/102/162 84/95/162
f 96/97/163 82/103/163 81/98/163
f 90/100/164 95/99/164 81/98/164
f 92/91/165 89/88/165 87/90/165
f 91/93/166 85/92/166 84/95/166
f 93/94/167 83/96/167 82/103/167
f 81/98/168 82/103/168 88/89/168
f 82/103/169 83/96/169 88/89/169
f 83/96/170 84/95/170 86/101/170
f 84/95/171 85/92/171 86/101/171
f 86/101/172 87/90/172 88/89/172
f 67/83/173 93/94/173 96/97/173
f 68/82/174 69/81/174 91/93/174
f 70/80/175 71/85/175 89/88/175
f 72/87/176 65/86/176 95/99/176
f 66/84/177 96/97/177 95/99/177
f 67/83/178 68/82/178 94/102/178
f 70/80/179 92/91/179 91/93/179
f 71/85/180 72/87/180 90/100/180
f 29/67/181 103/60/181 104/61/181
f 28/70/182 27/69/182 101/58/182
f 26/73/183 25/72/183 99/57/183
f 23/76/184 97/62/184 98/63/184
f 30/65/185 104/61/185 97/62/185
f 28/70/186 102/59/186 103/60/186
f 27/69/187 26/73/187 100/64/187
f 25/72/188 24/74/188 98/63/188
