# Blender 4.4.0
# www.blender.org
mtllib Prop_Metal_Sheet_03.mtl
o Prop_Metal_Sheet_03
v -0.495206 -0.000000 -0.008138
v 0.570427 -0.000000 -0.008138
v -0.495206 1.703404 -0.008138
v 0.570427 1.703404 -0.008138
v -0.388643 -0.000000 0.059756
v -0.282079 -0.000000 -0.008138
v -0.175592 0.030286 0.059650
v -0.068953 -0.000000 -0.008138
v 0.032463 0.015095 0.051417
v 0.144174 -0.000000 -0.008138
v 0.250737 -0.000000 0.059756
v 0.357301 -0.000000 -0.008138
v 0.463864 0.019051 0.059756
v 0.463864 1.703404 0.059756
v 0.357301 1.703404 -0.006442
v 0.250737 1.703404 0.075020
v 0.143973 1.703404 0.019885
v 0.037158 1.703404 0.097635
v -0.069154 1.703404 0.019885
v -0.175516 1.703404 0.075020
v -0.282079 1.703404 -0.006442
v -0.388643 1.703404 0.059756
v -0.495206 1.703404 -0.030485
v -0.495206 0.000000 -0.030485
v 0.463864 0.015054 0.037409
v 0.570427 0.000000 -0.030485
v 0.570427 1.703404 -0.030485
v -0.388643 1.703404 0.037409
v -0.388643 0.000000 0.037409
v -0.282079 0.000000 -0.030485
v -0.175516 0.000000 0.037409
v -0.068953 0.000000 -0.030485
v 0.033543 0.011928 0.030820
v 0.144174 0.000000 -0.030485
v 0.250737 0.000000 0.037409
v 0.357301 0.000000 -0.030485
v 0.463864 1.703404 0.037409
v 0.357301 1.703404 -0.029357
v 0.250737 1.703404 0.052238
v 0.144044 1.703404 -0.005501
v 0.037123 1.703404 0.074282
v -0.069083 1.703404 -0.005501
v -0.175516 1.703404 0.052238
v -0.282079 1.703404 -0.029357
v -0.495206 1.382800 -0.008138
v 0.570427 1.382800 -0.008138
v -0.388643 1.382800 0.059756
v -0.282459 1.382800 -0.008667
v -0.178990 1.382800 0.054904
v -0.075370 1.382800 -0.016417
v 0.028845 1.382800 0.049656
v 0.137756 1.382800 -0.016417
v 0.247263 1.382800 0.054904
v 0.356922 1.382800 -0.008667
v 0.463864 1.382800 0.059756
v -0.495206 1.382800 -0.030485
v 0.570427 1.382800 -0.030485
v -0.388643 1.382800 0.037409
v -0.282328 1.382800 -0.030832
v -0.178879 1.382800 0.032712
v -0.074639 1.382800 -0.038078
v 0.029064 1.382800 0.027472
v 0.138488 1.382800 -0.038078
v 0.247375 1.382800 0.032712
v 0.357052 1.382800 -0.030832
v 0.463864 1.382800 0.037409
v -0.464275 0.632519 -0.007490
v -0.468318 0.639917 -0.029922
v 0.570427 0.691400 -0.008138
v -0.387044 0.685059 0.059790
v -0.282269 0.691400 -0.008403
v -0.177291 0.706543 0.057277
v -0.072161 0.691400 -0.012278
v 0.030654 0.617065 0.047025
v 0.140965 0.691400 -0.012278
v 0.249000 0.691400 0.029886
v 0.357111 0.691400 -0.008403
v 0.463864 0.700926 0.059756
v 0.570427 0.691400 -0.030485
v -0.384176 0.678860 0.037503
v -0.282204 0.691400 -0.030658
v -0.177198 0.691400 0.035060
v -0.071796 0.691400 -0.034281
v 0.031304 0.640995 0.036198
v 0.141331 0.691400 -0.034281
v 0.249056 0.691400 0.013352
v 0.357177 0.691400 -0.030658
v 0.463864 0.698927 0.037409
v -0.177847 0.927910 0.056500
v -0.134195 0.700335 0.028764
v -0.282282 0.739807 -0.008421
v -0.221189 0.831166 0.029558
v -0.153117 0.858037 0.039878
v -0.108333 0.789964 0.010807
v -0.106541 0.748763 0.009993
v 0.357233 1.645881 -0.006841
v -0.282202 1.599347 -0.007164
v 0.463864 1.541773 0.059756
v -0.176807 1.584263 0.067545
v 0.463864 1.646564 0.037409
v -0.070747 1.621250 0.010583
v 0.035236 1.629300 0.086545
v 0.249056 1.543102 0.042475
v -0.495206 1.644513 -0.008138
v 0.570427 1.631872 -0.030485
v 0.140865 1.543102 0.001734
v 0.357221 1.599989 -0.029833
v 0.570427 1.611438 -0.008138
v 0.250374 1.669910 0.072919
v -0.388643 1.575724 0.059756
v -0.338754 1.614418 0.028765
v -0.226972 1.547779 0.034677
v -0.132388 1.616568 0.046727
v 0.104073 1.616568 0.034294
v 0.198514 1.647514 0.042282
v 0.342819 1.659954 0.001622
v 0.493344 1.516893 0.040974
v 0.534396 1.536797 0.014818
v -0.439787 1.618717 0.027171
v 0.143307 1.660889 -0.009821
v 0.034714 1.607584 0.060292
v 0.110783 1.630221 0.007260
v 0.201056 1.649628 0.022382
v -0.069699 1.667886 -0.009110
v -0.388643 1.595526 0.037409
v -0.176238 1.634554 0.048044
v -0.282144 1.620013 -0.029741
v -0.132633 1.644273 0.025036
v -0.012315 1.659419 0.031552
v -0.495206 1.658068 -0.030485
v -0.388160 0.207077 0.059766
v -0.069671 0.174571 -0.031444
v -0.070520 0.381069 -0.032577
v -0.282156 0.278730 -0.008245
v 0.032794 0.222350 0.032619
v 0.032621 0.270992 0.033035
v -0.175935 0.166824 0.059171
v -0.481762 0.319959 -0.030203
v -0.086701 0.000000 -0.019177
v -0.488471 0.137738 -0.007997
v -0.386410 0.339430 0.037456
v -0.282142 0.345700 -0.030572
v -0.176357 0.345700 0.036235
v -0.254732 0.312542 0.008907
v -0.202073 0.243364 0.042371
v -0.095923 0.404785 -0.016585
v 0.053586 0.251439 0.019422
v -0.361739 0.376337 0.021119
v -0.416970 0.171379 0.041462
v -0.488602 0.155274 -0.018030
v 0.463864 0.407315 0.059756
v 0.463864 0.639817 0.059756
v 0.357169 0.480592 -0.008322
v 0.417563 0.608869 0.030213
v 0.491459 0.660759 0.042175
v 0.529989 0.654806 0.017626
vn 0.5373 -0.0000 0.8434
vn -0.5373 -0.0000 0.8434
vn 0.5340 -0.0115 0.8454
vn -0.5229 -0.0477 0.8511
vn 0.4886 -0.1145 0.8650
vn -0.5335 -0.0849 0.8415
vn 0.5971 -0.0556 0.8002
vn -0.5088 -0.0527 0.8592
vn 0.6135 0.1637 0.7726
vn -0.5334 -0.0052 0.8458
vn -0.5373 -0.0000 -0.8434
vn 0.5373 -0.0000 -0.8434
vn -0.5402 -0.0000 -0.8416
vn 0.5234 0.0035 -0.8521
vn -0.5023 0.0960 -0.8594
vn 0.5843 0.0825 -0.8074
vn -0.5314 0.0947 -0.8418
vn 0.4950 0.0595 -0.8669
vn -0.5005 0.0579 -0.8638
vn 0.5384 0.0035 -0.8427
vn -0.0000 1.0000 -0.0000
vn 0.0560 -0.9864 0.1546
vn -0.0637 -0.9824 0.1757
vn -0.0540 -0.9874 0.1490
vn 1.0000 -0.0000 -0.0000
vn -0.0000 -1.0000 -0.0000
vn 0.0637 -0.9824 0.1757
vn -0.3256 -0.5602 0.7617
vn 0.3259 -0.5591 0.7624
vn -0.9940 0.0485 0.0978
vn -1.0000 -0.0000 -0.0000
vn 0.5379 -0.0001 -0.8430
vn -0.3770 -0.0003 -0.9262
vn 0.4044 -0.0034 -0.9146
vn -0.5356 -0.0115 -0.8444
vn 0.5616 -0.0080 -0.8273
vn -0.5496 -0.0068 -0.8354
vn 0.5305 -0.0016 -0.8477
vn -0.5554 -0.0036 -0.8316
vn 0.6190 0.0218 -0.7851
vn -0.5382 0.0002 0.8428
vn 0.5013 -0.0300 0.8647
vn -0.3636 0.0039 0.9316
vn 0.4745 -0.0019 0.8803
vn -0.5355 0.0026 0.8446
vn 0.5525 0.0076 0.8335
vn -0.5300 0.0019 0.8480
vn 0.5417 0.0005 0.8406
vn -0.6465 -0.0260 0.7625
vn -0.5670 -0.0058 0.8237
vn 0.5373 -0.0013 0.8434
vn -0.5332 0.0033 0.8460
vn 0.5373 0.0043 0.8434
vn -0.4981 0.0029 0.8671
vn 0.4713 0.0079 0.8820
vn 0.3338 0.0005 0.9426
vn -0.5378 0.0002 0.8431
vn 0.5372 -0.0218 -0.8432
vn -0.5464 -0.0003 -0.8375
vn 0.5373 -0.0016 -0.8434
vn -0.5435 -0.0068 -0.8394
vn 0.5135 -0.0026 -0.8581
vn -0.4970 -0.0068 -0.8677
vn 0.5371 -0.0280 -0.8430
vn -0.5371 -0.0306 -0.8430
vn 0.5373 -0.0001 -0.8434
vn -0.9856 -0.0405 0.1643
vn -0.5235 0.0017 0.8520
vn 0.5277 -0.0000 0.8494
vn -0.5820 -0.0446 0.8120
vn 0.4594 -0.0606 0.8862
vn -0.5766 -0.0809 0.8130
vn 0.5831 -0.1350 0.8011
vn -0.4569 -0.0913 0.8848
vn 0.6064 -0.0549 0.7933
vn -0.5277 -0.0053 0.8494
vn 0.5309 -0.0000 -0.8474
vn -0.6079 0.0041 -0.7940
vn -0.5929 0.1309 -0.7946
vn 0.4754 0.0485 -0.8784
vn -0.4760 0.0584 -0.8775
vn -0.5309 0.0043 -0.8474
vn 0.5975 0.1011 -0.7954
vn 0.6074 0.0419 -0.7933
vn 0.5406 -0.0013 0.8413
vn -0.5350 0.0014 0.8448
vn 0.5340 -0.0016 -0.8455
vn 0.5522 0.0043 0.8337
vn -0.5373 -0.0068 -0.8434
vn -0.5496 -0.0053 -0.8354
vn 0.5270 0.0091 -0.8498
vn 0.5436 0.0091 -0.8393
vn -0.5411 0.0053 -0.8409
vn -0.5560 0.0038 -0.8312
vn -0.6574 0.0015 0.7535
vn 0.6264 -0.0040 -0.7795
vn -0.9991 0.0420 0.0065
vn -0.5379 -0.0000 0.8430
vn 0.5417 -0.0000 0.8406
vn 0.5333 -0.0065 0.8459
vn -0.6067 -0.0048 0.7949
vn 0.5660 -0.0577 0.8224
vn 0.5090 -0.1066 0.8542
vn -0.5739 -0.1066 0.8120
vn 0.5494 -0.1376 0.8241
vn 0.5157 -0.1063 0.8501
vn -0.5438 -0.0840 0.8350
vn -0.4922 -0.0492 0.8691
vn 0.5889 -0.0570 0.8062
vn 0.5015 -0.0066 0.8651
vn -0.5389 -0.0000 0.8423
vn -0.5341 0.0043 -0.8454
vn 0.5876 0.0430 -0.8080
vn -0.5602 0.0749 -0.8250
vn 0.5311 0.1093 -0.8402
vn 0.5807 0.0723 -0.8109
vn -0.5114 0.0992 -0.8536
vn 0.5445 0.0453 -0.8375
vn 0.5105 0.0782 -0.8563
vn -0.5573 0.0043 -0.8303
vn 0.5334 -0.0000 -0.8459
vn 0.1156 -0.9933 -0.0000
vn -0.1399 -0.9902 -0.0000
vn -0.1072 -0.9942 -0.0000
vn 0.1399 -0.9902 -0.0000
vn -0.9809 0.0410 0.1903
vn 0.5384 -0.0000 -0.8427
vn -0.5012 0.0230 -0.8650
vn 0.5449 0.0248 -0.8381
vn -0.5139 -0.0068 -0.8578
vn 0.5343 -0.0024 -0.8453
vn -0.5618 -0.0042 -0.8273
vn 0.5234 -0.0001 -0.8521
vn -0.5402 -0.0003 -0.8416
vn 0.5373 0.0033 -0.8434
vn -0.5455 -0.0317 0.8375
vn 0.5187 0.0075 0.8549
vn -0.5019 -0.0042 0.8649
vn 0.5662 0.0043 0.8243
vn -0.5304 0.0002 0.8477
vn -0.5306 0.0016 0.8476
vn 0.5452 0.0013 0.8383
vn 0.5455 0.0005 0.8381
vn -0.5373 -0.0012 0.8434
vn -0.5372 0.0254 0.8431
vn -0.5373 0.0012 0.8434
vn 0.5398 0.0005 0.8418
vn -0.5357 0.0002 0.8444
vn -0.5373 0.0016 0.8434
vn -0.5331 0.0036 0.8460
vn -0.5069 0.0048 0.8620
vn 0.4696 0.0075 0.8829
vn -0.5370 0.0351 0.8429
vn 0.4021 0.0405 0.9147
vn 0.5373 0.0005 0.8434
vn 0.5792 -0.0037 -0.8152
vn -0.5373 0.0037 -0.8434
vn -0.5462 -0.0057 -0.8377
vn 0.5340 -0.0001 -0.8455
vn -0.5404 -0.0042 -0.8414
vn -0.5418 -0.0137 -0.8404
vn -0.4842 0.0058 -0.8749
vn -0.5186 -0.0171 -0.8549
vn 0.5379 -0.0000 -0.8430
vn -0.9993 -0.0362 -0.0000
vn -0.5282 0.0002 0.8491
vn 0.5670 0.0043 0.8237
vn 0.5283 -0.0149 0.8489
vn 0.5589 0.0070 0.8292
vn 0.5350 -0.0065 0.8448
vn -0.6073 -0.0048 0.7944
vn -0.5727 0.0504 0.8182
vn -0.5871 -0.1049 0.8027
vn 0.5327 -0.1054 0.8397
vn 0.6059 -0.0564 0.7935
vn -0.5297 -0.0000 0.8482
vn 0.5323 0.0035 -0.8466
vn -0.5750 0.0557 -0.8163
vn 0.4972 0.0792 -0.8640
vn -0.5334 -0.0000 -0.8459
vn 0.5837 0.0721 -0.8088
vn 0.5917 0.0033 -0.8062
vn 0.5305 -0.0001 -0.8477
vn 0.5409 0.0075 0.8410
vn -0.5468 -0.0042 -0.8373
vn 0.5349 -0.0024 -0.8449
vn 0.5636 -0.0022 -0.8260
vn -0.5447 -0.0003 -0.8386
vn -0.5724 0.0272 0.8195
vn -0.5866 0.0593 0.8077
vn 0.5817 -0.0237 -0.8130
vn -0.9988 0.0488 -0.0000
vn -0.9964 0.0363 0.0764
vt 0.574306 0.717369
vt 0.574243 0.727441
vt 0.574172 0.726139
vt 0.572554 0.732799
vt 0.572458 0.717369
vt 0.572643 0.729987
vt 0.593379 0.761353
vt 0.593329 0.761854
vt 0.593285 0.760567
vt 0.582778 0.668773
vt 0.582780 0.673323
vt 0.582751 0.672501
vt 0.573186 0.717369
vt 0.573085 0.732667
vt 0.573010 0.730545
vt 0.573367 0.717369
vt 0.573194 0.732964
vt 0.573378 0.733491
vt 0.573561 0.727853
vt 0.573499 0.732644
vt 0.573745 0.717369
vt 0.573660 0.734677
vt 0.573751 0.736147
vt 0.573936 0.734575
vt 0.573913 0.735492
vt 0.573935 0.717369
vt 0.574121 0.727766
vt 0.574121 0.717369
vt 0.574306 0.733659
vt 0.572643 0.731282
vt 0.572643 0.717369
vt 0.572827 0.717369
vt 0.572827 0.732883
vt 0.573006 0.717369
vt 0.573086 0.734475
vt 0.573196 0.736014
vt 0.573187 0.717369
vt 0.573295 0.735457
vt 0.573377 0.732070
vt 0.593726 0.762372
vt 0.593754 0.763400
vt 0.593750 0.754151
vt 0.573565 0.735557
vt 0.573666 0.734823
vt 0.573748 0.727853
vt 0.573936 0.717369
vt 0.573745 0.717369
vt 0.593942 0.761374
vt 0.594037 0.754151
vt 0.593942 0.754151
vt 0.085677 0.977731
vt 0.085868 0.977731
vt 0.573197 0.626929
vt 0.573375 0.627709
vt 0.573373 0.627916
vt 0.574121 0.627913
vt 0.574306 0.626929
vt 0.574121 0.628175
vt 0.086060 0.977731
vt 0.593657 0.708561
vt 0.593755 0.708164
vt 0.593656 0.708666
vt 0.574306 0.732322
vt 0.086252 0.977731
vt 0.086252 0.977731
vt 0.573567 0.626929
vt 0.573751 0.626929
vt 0.087016 0.977731
vt 0.087207 0.977731
vt 0.086442 0.977731
vt 0.573936 0.626929
vt 0.099997 0.969454
vt 0.099484 0.969454
vt 0.086633 0.977731
vt 0.098972 0.969454
vt 0.086824 0.977731
vt 0.085295 0.977731
vt 0.085486 0.977731
vt 0.098459 0.969454
vt 0.098460 0.965766
vt 0.097947 0.969454
vt 0.572481 0.647855
vt 0.572470 0.637083
vt 0.572469 0.635937
vt 0.087207 0.961357
vt 0.087207 0.965216
vt 0.087207 0.966371
vt 0.574306 0.672149
vt 0.574121 0.672641
vt 0.573936 0.672149
vt 0.573748 0.672149
vt 0.573557 0.717369
vt 0.573562 0.672149
vt 0.573367 0.717369
vt 0.573371 0.668852
vt 0.582842 0.653157
vt 0.582903 0.668773
vt 0.582904 0.652018
vt 0.573009 0.672149
vt 0.573192 0.672149
vt 0.572827 0.672149
vt 0.572650 0.671328
vt 0.572504 0.668782
vt 0.574121 0.672772
vt 0.573936 0.672149
vt 0.573748 0.672149
vt 0.573555 0.717369
vt 0.573561 0.672149
vt 0.573370 0.667287
vt 0.573191 0.672149
vt 0.085989 0.966168
vt 0.085986 0.969676
vt 0.085862 0.962574
vt 0.085783 0.973184
vt 0.085673 0.965406
vt 0.572827 0.675315
vt 0.572827 0.717369
vt 0.572645 0.671734
vt 0.572511 0.668298
vt 0.583163 0.653372
vt 0.583227 0.668773
vt 0.583163 0.668773
vt 0.574236 0.669755
vt 0.099617 0.948588
vt 0.099965 0.952682
vt 0.099482 0.944239
vt 0.098587 0.939821
vt 0.098841 0.931398
vt 0.098972 0.935515
vt 0.098461 0.949141
vt 0.582844 0.637541
vt 0.582904 0.651478
vt 0.582842 0.653157
vt 0.573936 0.658361
vt 0.583099 0.637541
vt 0.583163 0.646740
vt 0.583099 0.648395
vt 0.099932 0.930495
vt 0.099474 0.928124
vt 0.098972 0.927360
vt 0.098463 0.927360
vt 0.097954 0.923054
vt 0.097950 0.948198
vt 0.573196 0.638346
vt 0.573410 0.643374
vt 0.583099 0.653157
vt 0.583163 0.637881
vt 0.573008 0.687617
vt 0.573006 0.717369
vt 0.573129 0.678595
vt 0.573132 0.675900
vt 0.086926 0.945120
vt 0.086825 0.939597
vt 0.086636 0.934069
vt 0.086557 0.945960
vt 0.086255 0.950574
vt 0.086445 0.947624
vt 0.086130 0.945828
vt 0.085295 0.951516
vt 0.085295 0.944028
vt 0.085963 0.957219
vt 0.085701 0.961787
vt 0.085486 0.956900
vt 0.085677 0.956650
vt 0.087107 0.946696
vt 0.085677 0.939832
vt 0.086118 0.950829
vt 0.086060 0.977731
vt 0.085957 0.958041
vt 0.086557 0.956088
vt 0.086442 0.977731
vt 0.086825 0.947170
vt 0.086341 0.961592
vt 0.086635 0.952499
vt 0.593191 0.762855
vt 0.593191 0.754151
vt 0.087207 0.961117
vt 0.087016 0.938197
vt 0.572827 0.645159
vt 0.572643 0.640472
vt 0.593403 0.718558
vt 0.593449 0.716257
vt 0.593471 0.731661
vt 0.573166 0.626929
vt 0.572827 0.649539
vt 0.573011 0.649539
vt 0.573084 0.672733
vt 0.573011 0.637840
vt 0.573150 0.653403
vt 0.097458 0.936457
vt 0.097457 0.942380
vt 0.582843 0.646148
vt 0.582905 0.643661
vt 0.097354 0.938838
vt 0.572690 0.651542
vt 0.582654 0.645207
vt 0.582605 0.651994
vt 0.582655 0.652874
vt 0.099963 0.950550
vt 0.574041 0.666751
vt 0.106085 0.964474
vt 0.103868 0.939566
vt 0.106085 0.928103
vt 0.107459 0.966819
vt 0.572458 0.734486
vt 0.593285 0.754151
vt 0.593378 0.754151
vt 0.582716 0.673664
vt 0.582716 0.668773
vt 0.574121 0.734620
vt 0.572458 0.735372
vt 0.573011 0.733834
vt 0.593653 0.754151
vt 0.593658 0.761627
vt 0.573936 0.731574
vt 0.594037 0.762923
vt 0.098032 0.969454
vt 0.582841 0.668773
vt 0.085861 0.981420
vt 0.085906 0.975471
vt 0.085939 0.962045
vt 0.085673 0.961284
vt 0.572827 0.672149
vt 0.583227 0.653157
vt 0.574121 0.653569
vt 0.574121 0.668775
vt 0.574169 0.670145
vt 0.582905 0.637882
vt 0.583163 0.637971
vt 0.099354 0.923630
vt 0.098076 0.920166
vt 0.573373 0.641471
vt 0.573373 0.644653
vt 0.583163 0.653327
vt 0.572933 0.681290
vt 0.573051 0.683047
vt 0.087016 0.930940
vt 0.086722 0.920728
vt 0.086066 0.918985
vt 0.085869 0.965456
vt 0.085486 0.918499
vt 0.085433 0.909380
vt 0.085359 0.916675
vt 0.087207 0.956149
vt 0.085871 0.918985
vt 0.086061 0.962150
vt 0.086256 0.942616
vt 0.086443 0.964714
vt 0.593191 0.763306
vt 0.593379 0.731158
vt 0.593379 0.717434
vt 0.593472 0.713712
vt 0.573009 0.673139
vt 0.573194 0.651852
vt 0.572646 0.649129
vt 0.572595 0.638136
vt 0.582597 0.644767
vt 0.105123 0.959633
vt 0.106658 0.967750
s 0
usemtl Texture_Map
f 46/1/1 118/2/1 117/3/1
f 119/4/2 45/5/2 110/6/2
f 97/7/3 111/8/3 110/9/3
f 49/10/4 99/11/4 112/12/4
f 50/13/5 113/14/5 99/15/5
f 51/16/6 101/17/6 50/13/6
f 102/18/7 106/19/7 114/20/7
f 53/21/8 115/22/8 106/19/8
f 109/23/9 96/24/9 116/25/9
f 54/26/10 98/27/10 96/24/10
f 66/28/11 105/29/11 57/1/11
f 56/5/12 125/30/12 58/31/12
f 125/30/13 59/32/13 58/31/13
f 127/33/14 60/34/14 59/32/14
f 128/35/15 124/36/15 61/37/15
f 124/36/16 129/38/16 121/39/16
f 122/40/17 120/41/17 63/42/17
f 120/43/18 123/44/18 103/45/18
f 103/45/19 65/46/19 64/47/19
f 107/48/20 66/49/20 65/50/20
f 15/51/21 39/52/21 16/52/21
f 8/53/22 33/54/22 9/55/22
f 25/56/23 2/57/23 13/58/23
f 39/52/21 17/59/21 16/52/21
f 33/60/24 10/61/24 9/62/24
f 57/1/25 108/63/25 46/1/25
f 17/59/21 41/64/21 18/65/21
f 10/66/26 35/67/26 11/67/26
f 28/68/21 3/69/21 22/68/21
f 41/64/21 19/70/21 18/65/21
f 35/67/26 12/71/26 11/67/26
f 1/72/26 29/73/26 5/73/26
f 19/70/21 43/74/21 20/74/21
f 12/71/27 25/56/27 13/58/27
f 29/73/26 6/75/26 5/73/26
f 43/74/21 21/76/21 20/74/21
f 4/77/21 37/78/21 14/78/21
f 6/75/28 31/79/28 7/80/28
f 21/76/21 28/68/21 22/68/21
f 37/78/21 15/51/21 14/78/21
f 31/79/29 8/81/29 7/80/29
f 138/82/30 150/83/30 140/84/30
f 3/85/31 130/86/31 104/87/31
f 79/88/25 46/1/25 69/88/25
f 65/46/32 88/89/32 87/90/32
f 86/91/33 65/46/33 87/90/33
f 63/92/34 86/91/34 85/93/34
f 62/94/35 85/93/35 84/95/35
f 83/96/36 62/97/36 84/98/36
f 82/99/37 61/37/37 83/100/37
f 81/101/38 60/34/38 82/99/38
f 58/31/39 81/101/39 80/102/39
f 56/5/40 80/102/40 68/103/40
f 88/89/11 57/1/11 79/88/11
f 78/104/41 54/26/41 77/105/41
f 76/106/42 54/26/42 53/21/42
f 76/106/43 52/107/43 75/108/43
f 75/108/44 51/16/44 74/109/44
f 73/110/45 51/16/45 50/13/45
f 95/111/46 94/112/46 72/113/46
f 72/113/47 92/114/47 91/115/47
f 91/116/48 48/117/48 47/31/48
f 70/118/49 45/5/49 67/119/49
f 78/120/1 46/121/1 55/122/1
f 69/88/1 78/104/1 156/123/1
f 5/73/50 149/124/50 140/125/50
f 6/75/51 131/126/51 5/73/51
f 145/127/52 144/128/52 134/129/52
f 7/80/53 8/81/53 137/130/53
f 8/131/54 74/132/54 73/133/54
f 10/66/55 74/109/55 9/55/55
f 10/66/43 76/106/43 75/108/43
f 153/134/56 77/105/56 76/106/56
f 12/135/57 151/136/57 153/137/57
f 25/56/11 79/88/11 26/57/11
f 138/138/58 29/73/58 24/72/58
f 141/139/59 142/140/59 30/75/59
f 30/75/60 143/141/60 31/79/60
f 133/142/61 132/143/61 143/141/61
f 132/144/62 33/54/62 32/53/62
f 85/93/63 34/66/63 147/145/63
f 34/66/64 86/91/64 35/67/64
f 86/91/65 36/71/65 35/67/65
f 87/146/66 25/147/66 36/135/66
f 26/57/25 69/88/25 2/57/25
f 45/5/67 68/103/67 67/119/67
f 89/148/68 49/149/68 48/117/68
f 94/150/46 95/151/46 73/110/46
f 111/152/69 21/76/69 22/68/69
f 20/74/70 97/153/70 99/154/70
f 113/155/71 19/70/71 20/74/71
f 102/156/72 19/70/72 101/157/72
f 114/158/73 17/59/73 18/65/73
f 105/159/25 4/77/25 108/160/25
f 115/161/74 16/52/74 17/59/74
f 116/162/75 15/51/75 16/52/75
f 100/163/11 27/77/11 105/159/11
f 96/164/76 14/78/76 15/51/76
f 108/160/1 4/77/1 14/78/1
f 100/163/77 38/51/77 37/78/77
f 119/165/2 22/68/2 3/69/2
f 107/166/78 39/52/78 38/51/78
f 122/167/79 41/64/79 40/168/79
f 123/169/80 40/168/80 39/52/80
f 128/170/81 43/74/81 42/171/81
f 127/172/82 28/68/82 44/76/82
f 129/173/83 42/171/83 41/64/83
f 126/174/84 44/76/84 43/74/84
f 104/175/31 56/176/31 45/176/31
f 130/177/12 28/68/12 125/178/12
f 134/179/85 70/118/85 131/180/85
f 144/181/86 145/182/86 72/183/86
f 8/53/26 139/184/26 32/53/26
f 142/185/87 82/99/87 143/186/87
f 90/187/88 137/188/88 73/110/88
f 139/184/89 132/144/89 32/53/89
f 146/189/90 82/99/90 83/100/90
f 132/143/91 136/190/91 135/191/91
f 133/192/92 84/98/92 136/193/92
f 136/190/93 147/194/93 135/191/93
f 148/195/94 80/102/94 81/101/94
f 131/180/95 70/118/95 67/119/95
f 141/196/96 68/197/96 80/198/96
f 150/199/97 138/138/97 24/72/97
f 154/200/41 78/104/41 77/105/41
f 152/201/98 153/202/98 151/203/98
f 156/204/1 152/201/1 151/203/1
f 98/27/1 55/28/1 117/3/1
f 55/28/1 46/1/1 117/3/1
f 46/1/1 108/63/1 118/2/1
f 104/205/2 45/5/2 119/4/2
f 45/5/2 47/31/2 110/6/2
f 110/9/99 47/206/99 48/207/99
f 48/207/100 97/7/100 110/9/100
f 97/208/101 48/209/101 112/12/101
f 48/209/4 49/10/4 112/12/4
f 99/15/102 49/149/102 50/13/102
f 50/13/103 101/17/103 113/14/103
f 51/16/104 102/18/104 101/17/104
f 102/18/105 51/16/105 106/19/105
f 51/16/106 52/107/106 106/19/106
f 106/19/107 52/107/107 53/21/107
f 53/21/108 109/23/108 115/22/108
f 109/23/109 53/21/109 96/24/109
f 53/21/110 54/26/110 96/24/110
f 54/26/111 55/28/111 98/27/111
f 66/28/11 100/210/11 105/29/11
f 56/5/12 130/211/12 125/30/12
f 125/30/112 127/33/112 59/32/112
f 127/33/113 126/212/113 60/34/113
f 61/37/114 60/34/114 128/35/114
f 60/34/81 126/212/81 128/35/81
f 62/94/115 61/37/115 121/39/115
f 61/37/116 124/36/116 121/39/116
f 63/42/117 62/213/117 122/40/117
f 62/213/79 121/214/79 122/40/79
f 64/47/118 63/92/118 103/45/118
f 63/92/119 120/43/119 103/45/119
f 103/45/120 107/215/120 65/46/120
f 107/48/121 100/216/121 66/49/121
f 15/51/21 38/51/21 39/52/21
f 8/53/122 32/53/122 33/54/122
f 25/56/123 26/57/123 2/57/123
f 39/52/21 40/168/21 17/59/21
f 33/60/124 34/61/124 10/61/124
f 57/1/25 105/29/25 108/63/25
f 17/59/21 40/168/21 41/64/21
f 10/66/26 34/66/26 35/67/26
f 28/68/21 23/69/21 3/69/21
f 41/64/21 42/171/21 19/70/21
f 35/67/26 36/71/26 12/71/26
f 1/72/26 24/72/26 29/73/26
f 19/70/21 42/171/21 43/74/21
f 12/71/125 36/71/125 25/56/125
f 29/73/26 30/75/26 6/75/26
f 43/74/21 44/76/21 21/76/21
f 4/77/21 27/77/21 37/78/21
f 6/75/26 30/75/26 31/79/26
f 21/76/21 44/76/21 28/68/21
f 37/78/21 38/51/21 15/51/21
f 31/79/26 139/217/26 8/81/26
f 140/84/30 67/119/30 138/82/30
f 67/119/126 68/103/126 138/82/126
f 3/85/31 23/85/31 130/86/31
f 79/88/25 57/1/25 46/1/25
f 65/46/127 66/28/127 88/89/127
f 86/91/128 64/47/128 65/46/128
f 63/92/129 64/47/129 86/91/129
f 62/94/130 63/92/130 85/93/130
f 83/96/131 61/218/131 62/97/131
f 82/99/132 60/34/132 61/37/132
f 81/101/133 59/32/133 60/34/133
f 58/31/134 59/32/134 81/101/134
f 56/5/135 58/31/135 80/102/135
f 88/89/11 66/28/11 57/1/11
f 78/104/111 55/28/111 54/26/111
f 76/106/56 77/105/56 54/26/56
f 76/106/136 53/21/136 52/107/136
f 75/108/137 52/107/137 51/16/137
f 73/110/138 74/109/138 51/16/138
f 89/219/139 72/113/139 93/220/139
f 72/113/46 90/221/46 95/111/46
f 93/220/46 72/113/46 94/112/46
f 91/115/140 71/222/140 72/113/140
f 72/113/141 89/219/141 92/114/141
f 47/31/142 70/118/142 91/116/142
f 70/118/143 71/223/143 91/116/143
f 70/118/144 47/31/144 45/5/144
f 78/120/1 69/224/1 46/121/1
f 151/225/1 13/58/1 2/57/1
f 78/104/1 152/226/1 155/227/1
f 156/123/1 151/225/1 69/88/1
f 151/225/1 2/57/1 69/88/1
f 78/104/1 155/227/1 156/123/1
f 140/125/145 1/72/145 5/73/145
f 5/73/146 131/126/146 149/124/146
f 6/75/147 134/129/147 131/126/147
f 134/129/148 6/75/148 137/130/148
f 6/75/149 7/80/149 137/130/149
f 137/130/150 145/127/150 134/129/150
f 8/131/151 9/228/151 74/132/151
f 10/66/152 75/108/152 74/109/152
f 10/66/153 11/67/153 76/106/153
f 76/106/154 11/67/154 153/134/154
f 11/67/155 12/71/155 153/134/155
f 12/135/2 13/229/2 151/136/2
f 25/56/11 88/89/11 79/88/11
f 138/138/156 141/139/156 29/73/156
f 30/75/157 29/73/157 141/139/157
f 141/139/158 148/230/158 142/140/158
f 30/75/159 142/140/159 143/141/159
f 139/217/89 31/79/89 132/143/89
f 31/79/160 143/141/160 132/143/160
f 143/141/161 146/231/161 133/142/161
f 132/144/91 135/232/91 33/54/91
f 34/66/162 33/54/162 135/232/162
f 147/145/93 136/233/93 85/93/93
f 136/233/93 84/95/93 85/93/93
f 34/66/163 135/232/163 147/145/163
f 34/66/34 85/93/34 86/91/34
f 86/91/33 87/90/33 36/71/33
f 87/146/164 88/234/164 25/147/164
f 26/57/25 79/88/25 69/88/25
f 45/5/165 56/5/165 68/103/165
f 48/117/166 91/116/166 92/235/166
f 92/235/166 89/148/166 48/117/166
f 49/149/167 89/148/167 50/13/167
f 89/148/168 93/236/168 94/150/168
f 50/13/169 89/148/169 94/150/169
f 73/110/46 50/13/46 94/150/46
f 95/151/46 90/187/46 73/110/46
f 22/68/69 110/237/69 111/152/69
f 111/152/170 97/153/170 21/76/170
f 21/76/171 97/153/171 20/74/171
f 97/153/172 112/238/172 99/154/172
f 20/74/71 99/154/71 113/155/71
f 113/155/103 101/157/103 19/70/103
f 102/156/173 18/65/173 19/70/173
f 18/65/73 102/156/73 114/158/73
f 114/158/174 106/239/174 17/59/174
f 105/159/25 27/77/25 4/77/25
f 17/59/74 106/239/74 115/161/74
f 115/161/108 109/240/108 16/52/108
f 16/52/175 109/240/175 116/162/175
f 116/162/110 96/164/110 15/51/110
f 100/163/11 37/78/11 27/77/11
f 96/164/176 98/241/176 14/78/176
f 14/78/1 98/241/1 108/160/1
f 98/241/1 117/242/1 118/243/1
f 108/160/1 98/241/1 118/243/1
f 100/163/177 107/166/177 38/51/177
f 3/69/2 104/244/2 119/165/2
f 119/165/2 110/237/2 22/68/2
f 107/166/178 103/245/178 39/52/178
f 40/168/17 120/246/17 122/167/17
f 122/167/79 121/247/79 41/64/79
f 39/52/80 103/245/80 123/169/80
f 123/169/179 120/246/179 40/168/179
f 42/171/15 124/248/15 128/170/15
f 128/170/81 126/174/81 43/74/81
f 127/172/180 125/178/180 28/68/180
f 41/64/83 121/247/83 129/173/83
f 129/173/181 124/248/181 42/171/181
f 126/174/182 127/172/182 44/76/182
f 104/175/31 130/249/31 56/176/31
f 130/177/12 23/69/12 28/68/12
f 134/179/143 71/223/143 70/118/143
f 71/250/140 134/251/140 144/181/140
f 145/182/149 137/252/149 72/183/149
f 71/250/140 144/181/140 72/183/140
f 142/185/183 81/101/183 82/99/183
f 72/253/88 137/188/88 90/187/88
f 137/188/184 8/53/184 73/110/184
f 83/100/89 133/254/89 146/189/89
f 146/189/185 143/186/185 82/99/185
f 132/143/186 133/142/186 136/190/186
f 133/192/187 83/96/187 84/98/187
f 81/101/188 142/185/188 148/195/188
f 148/195/94 141/255/94 80/102/94
f 67/119/189 140/84/189 131/180/189
f 140/84/190 149/256/190 131/180/190
f 141/196/191 138/257/191 68/197/191
f 1/72/192 140/125/192 24/72/192
f 140/125/193 150/199/193 24/72/193
f 77/105/41 153/134/41 154/200/41
f 154/200/98 152/226/98 78/104/98
f 152/201/98 154/258/98 153/202/98
f 156/204/1 155/259/1 152/201/1
