# Blender 4.4.0
# www.blender.org
mtllib Prop_Water_Pump_01.mtl
o Prop_Water_Pump_Handle_01
v 0.020749 1.202092 -0.011800
v 0.033426 1.217353 -0.011800
v -0.022918 1.217353 -0.011800
v -0.010241 1.202092 -0.011800
v -0.010241 1.202092 0.019330
v -0.022918 1.217353 0.019330
v 0.033426 1.217353 0.019330
v 0.020749 1.202092 0.019330
v -0.010241 1.289219 0.019330
v -0.022918 1.273958 0.019330
v 0.020749 1.289219 0.019330
v 0.033426 1.273958 0.019330
v -0.010241 1.289219 -0.011800
v -0.022918 1.273958 -0.011800
v 0.020749 1.289219 -0.011800
v 0.033426 1.273958 -0.011800
v 0.179963 1.341861 -0.017658
v 0.078216 1.318127 -0.013779
v 0.039000 1.295947 -0.013779
v 0.534263 1.119227 -0.017658
v 0.445306 1.160099 -0.017658
v 0.371998 1.212599 -0.017658
v 0.311801 1.287253 -0.017658
v 0.251313 1.327669 -0.017658
v 0.179963 1.341861 0.016006
v 0.078216 1.318127 0.019886
v 0.039000 1.295947 0.019886
v 0.534263 1.119227 0.016006
v 0.445306 1.160099 0.016006
v 0.371998 1.212599 0.016006
v 0.311801 1.287253 0.016006
v 0.251313 1.327669 0.016006
v 0.078216 1.269026 -0.013779
v 0.179963 1.292760 -0.017658
v 0.048844 1.247843 -0.013779
v 0.534263 1.070125 -0.017658
v 0.445306 1.110998 -0.017658
v 0.371998 1.163497 -0.017658
v 0.311801 1.238151 -0.017658
v 0.251313 1.278568 -0.017658
v 0.078216 1.269026 0.019886
v 0.179963 1.292760 0.016006
v 0.048844 1.247843 0.019886
v 0.689009 1.010363 0.016006
v 0.689009 1.010363 -0.017658
v 0.688967 1.059464 0.016006
v 0.688967 1.059464 -0.017658
v 0.534263 1.070125 0.016006
v 0.445306 1.110998 0.016006
v 0.371998 1.163497 0.016006
v 0.311801 1.238151 0.016006
v 0.251313 1.278568 0.016006
v 0.801136 1.032442 -0.017658
v 0.818019 1.021186 -0.017658
v 0.801136 1.032442 0.016006
v 0.818019 1.021186 0.016006
v 0.825025 1.002142 -0.017658
v 0.801178 0.983341 -0.017658
v 0.818049 0.986466 -0.017658
v 0.801178 0.983341 0.016006
v 0.825025 1.002142 0.016006
v 0.818049 0.986466 0.016006
v -0.004025 1.251142 -0.010545
v -0.004025 1.251142 0.016652
v 0.014533 1.216532 -0.010546
v 0.014533 1.216532 0.016652
v 0.128529 1.334765 -0.015719
v 0.128529 1.334765 0.017946
v 0.128529 1.285664 -0.015719
v 0.128529 1.285664 0.017946
v 0.020749 1.202092 -0.017432
v 0.033426 1.217353 -0.017432
v -0.010241 1.202092 -0.017432
v -0.022918 1.217353 -0.017432
v -0.022918 1.273958 -0.017432
v -0.022918 1.273958 0.024962
v -0.022918 1.217353 0.024962
v -0.010241 1.202092 0.024962
v 0.020749 1.202092 0.024962
v 0.033426 1.217353 0.024962
v 0.033426 1.273958 0.024962
v 0.020749 1.289219 0.024962
v -0.010241 1.289219 0.024962
v 0.033426 1.273958 -0.017432
v 0.020749 1.289219 -0.017432
v -0.010241 1.289219 -0.017432
v -0.008998 1.204741 0.019330
v -0.008998 1.204741 -0.011800
v -0.020166 1.218347 -0.011800
v -0.020166 1.218347 0.019330
v -0.008998 1.286570 0.019330
v -0.008998 1.286570 -0.011800
v 0.019505 1.286570 -0.011800
v 0.019505 1.286570 0.019330
v 0.030674 1.272964 0.019330
v 0.030674 1.272964 -0.011800
v 0.030674 1.218347 -0.011800
v 0.030674 1.218347 0.019330
v 0.019505 1.204741 0.019330
v 0.019505 1.204741 -0.011800
v -0.020166 1.272964 -0.011800
v -0.020166 1.272964 0.019330
vn -0.0000 -0.0000 -1.0000
vn -0.0000 -0.0000 1.0000
vn 0.7784 0.6277 -0.0000
vn 0.5556 0.8315 -0.0000
vn -0.1367 0.9906 -0.0000
vn 0.4175 0.9087 -0.0000
vn 0.1951 0.9808 -0.0000
vn -0.4923 0.8704 -0.0000
vn 0.5822 0.8130 -0.0000
vn 0.2342 0.9722 -0.0000
vn -0.7784 -0.6277 -0.0000
vn 0.3604 0.9328 -0.0000
vn -0.5556 -0.8315 -0.0000
vn 0.1367 -0.9906 -0.0000
vn -0.4175 -0.9087 -0.0000
vn -0.3603 -0.9328 -0.0000
vn -0.1951 -0.9808 -0.0000
vn 0.5849 -0.8111 -0.0000
vn -0.5822 -0.8130 -0.0000
vn 0.0377 -0.0000 0.9993
vn -0.0385 -0.0000 -0.9993
vn -0.2342 -0.9722 -0.0000
vn 0.1821 -0.9833 -0.0000
vn 0.9136 -0.4066 -0.0000
vn 0.9385 0.3452 -0.0000
vn 0.5547 0.8320 -0.0000
vn -0.0631 -0.0338 0.9974
vn -0.0618 -0.0127 -0.9980
vn -0.7213 0.6926 -0.0000
vn 0.6741 -0.7387 -0.0000
vn -0.0377 -0.0000 -0.9993
vn 0.0385 -0.0000 0.9993
vn 0.3140 -0.9494 -0.0000
vn -0.3140 0.9494 -0.0000
vn 0.7692 -0.6390 -0.0000
vn -0.0000 -1.0000 -0.0000
vn -0.7692 -0.6390 -0.0000
vn -1.0000 -0.0000 -0.0000
vn 1.0000 -0.0000 -0.0000
vn 0.7692 0.6390 -0.0000
vn -0.0000 1.0000 -0.0000
vn -0.7692 0.6390 -0.0000
vn -0.7729 -0.6345 -0.0000
vn -0.7729 0.6345 -0.0000
vn 0.7729 0.6345 -0.0000
vn 0.7729 -0.6345 -0.0000
vn -0.0618 -0.0127 0.9980
vn -0.0631 -0.0338 -0.9974
vt 0.849534 0.693689
vt 0.849503 0.692359
vt 0.849426 0.692359
vt 0.849503 0.699951
vt 0.849426 0.699951
vt 0.849395 0.698621
vt 0.849401 0.693775
vt 0.849395 0.693689
vt 0.849429 0.699720
vt 0.849401 0.698535
vt 0.849429 0.692590
vt 0.849534 0.698621
vt 0.849500 0.699720
vt 0.849527 0.698535
vt 0.850224 0.699780
vt 0.850374 0.693274
vt 0.850074 0.703302
vt 0.849770 0.703920
vt 0.849898 0.704538
vt 0.850555 0.688700
vt 0.850776 0.685138
vt 0.849548 0.700538
vt 0.849645 0.702470
vt 0.851437 0.677576
vt 0.851159 0.679931
vt 0.850374 0.688996
vt 0.850224 0.695501
vt 0.850776 0.680860
vt 0.850074 0.699023
vt 0.849770 0.699641
vt 0.849898 0.700260
vt 0.850555 0.684421
vt 0.851159 0.675652
vt 0.849645 0.698192
vt 0.849573 0.696346
vt 0.851437 0.673297
vt 0.851479 0.676595
vt 0.851479 0.673570
vt 0.851496 0.674936
vt 0.849441 0.696633
vt 0.849487 0.693617
vt 0.849527 0.693775
vt 0.849500 0.692590
s 0
usemtl Texture_Map
f 72/1/1 71/2/1 73/3/1
f 82/4/2 83/5/2 76/6/2
f 10/6/1 90/7/1 6/8/1
f 10/6/1 91/9/1 102/10/1
f 3/8/2 101/10/2 14/6/2
f 11/4/1 91/9/1 9/5/1
f 3/8/2 88/11/2 89/7/2
f 12/12/1 94/13/1 11/4/1
f 1/2/2 88/11/2 4/3/2
f 7/1/1 95/14/1 12/12/1
f 23/15/3 30/16/3 22/16/3
f 32/17/4 23/15/4 24/17/4
f 67/18/5 25/19/5 17/19/5
f 21/20/6 28/21/6 20/21/6
f 25/19/7 24/17/7 17/19/7
f 27/22/8 18/23/8 19/22/8
f 22/16/9 29/20/9 21/20/9
f 55/24/10 47/25/10 46/25/10
f 38/26/11 51/27/11 39/27/11
f 46/25/12 20/21/12 28/21/12
f 47/25/1 36/28/1 20/21/1
f 40/29/13 51/27/13 52/29/13
f 69/30/14 42/31/14 70/30/14
f 37/32/15 48/28/15 49/32/15
f 36/28/16 44/33/16 48/28/16
f 40/29/17 42/31/17 34/31/17
f 33/34/18 43/35/18 35/35/18
f 38/26/19 49/32/19 50/26/19
f 48/28/2 46/25/2 28/21/2
f 68/18/20 42/31/20 25/19/20
f 50/26/2 29/20/2 30/16/2
f 27/22/2 41/34/2 26/23/2
f 51/27/2 30/16/2 31/15/2
f 20/21/1 37/32/1 21/20/1
f 52/29/2 31/15/2 32/17/2
f 69/30/21 18/23/21 67/18/21
f 58/36/22 44/33/22 45/33/22
f 21/20/1 38/26/1 22/16/1
f 42/31/2 32/17/2 25/19/2
f 33/34/1 19/22/1 18/23/1
f 56/37/2 55/24/2 60/36/2
f 22/16/1 39/27/1 23/15/1
f 23/15/1 40/29/1 24/17/1
f 24/17/1 34/31/1 17/19/1
f 49/32/2 28/21/2 29/20/2
f 58/36/23 62/38/23 60/36/23
f 59/38/24 61/39/24 62/38/24
f 57/39/25 56/37/25 61/39/25
f 54/37/26 55/24/26 56/37/26
f 58/36/1 45/33/1 53/24/1
f 43/35/27 64/40/27 66/41/27
f 35/35/28 63/40/28 19/22/28
f 19/22/29 64/40/29 27/22/29
f 35/35/30 66/41/30 65/41/30
f 34/31/31 67/18/31 17/19/31
f 26/23/32 70/30/32 68/18/32
f 33/34/33 70/30/33 41/34/33
f 18/23/34 68/18/34 67/18/34
f 1/2/35 72/1/35 2/1/35
f 4/3/36 71/2/36 1/2/36
f 3/8/37 73/3/37 4/3/37
f 14/6/38 74/8/38 3/8/38
f 6/8/38 76/6/38 10/6/38
f 5/3/37 77/8/37 6/8/37
f 8/2/36 78/3/36 5/3/36
f 7/1/35 79/2/35 8/2/35
f 12/12/39 80/1/39 7/1/39
f 12/12/40 82/4/40 81/12/40
f 9/5/41 82/4/41 11/4/41
f 10/6/42 83/5/42 9/5/42
f 2/1/39 84/12/39 16/12/39
f 16/12/40 85/4/40 15/4/40
f 15/4/41 86/5/41 13/5/41
f 13/5/42 75/6/42 14/6/42
f 89/7/43 87/11/43 90/7/43
f 93/13/41 91/9/41 94/13/41
f 98/42/39 96/14/39 95/14/39
f 88/11/36 99/43/36 87/11/36
f 101/10/38 90/7/38 102/10/38
f 92/9/44 102/10/44 91/9/44
f 95/14/45 93/13/45 94/13/45
f 99/43/46 97/42/46 98/42/46
f 16/12/2 97/42/2 2/1/2
f 6/8/1 87/11/1 5/3/1
f 16/12/2 93/13/2 96/14/2
f 8/2/1 87/11/1 99/43/1
f 15/4/2 92/9/2 93/13/2
f 7/1/1 99/43/1 98/42/1
f 2/1/2 100/43/2 1/2/2
f 14/6/2 92/9/2 13/5/2
f 73/3/1 74/8/1 72/1/1
f 74/8/1 75/6/1 72/1/1
f 75/6/1 86/5/1 85/4/1
f 85/4/1 84/12/1 75/6/1
f 84/12/1 72/1/1 75/6/1
f 76/6/2 77/8/2 80/1/2
f 77/8/2 78/3/2 80/1/2
f 78/3/2 79/2/2 80/1/2
f 80/1/2 81/12/2 76/6/2
f 81/12/2 82/4/2 76/6/2
f 10/6/1 102/10/1 90/7/1
f 10/6/1 9/5/1 91/9/1
f 3/8/2 89/7/2 101/10/2
f 11/4/1 94/13/1 91/9/1
f 3/8/2 4/3/2 88/11/2
f 12/12/1 95/14/1 94/13/1
f 1/2/2 100/43/2 88/11/2
f 7/1/1 98/42/1 95/14/1
f 23/15/3 31/15/3 30/16/3
f 32/17/4 31/15/4 23/15/4
f 67/18/5 68/18/5 25/19/5
f 21/20/6 29/20/6 28/21/6
f 25/19/7 32/17/7 24/17/7
f 27/22/8 26/23/8 18/23/8
f 22/16/9 30/16/9 29/20/9
f 55/24/10 53/24/10 47/25/10
f 38/26/11 50/26/11 51/27/11
f 46/25/12 47/25/12 20/21/12
f 47/25/1 45/33/1 36/28/1
f 40/29/13 39/27/13 51/27/13
f 69/30/14 34/31/14 42/31/14
f 37/32/15 36/28/15 48/28/15
f 36/28/16 45/33/16 44/33/16
f 40/29/17 52/29/17 42/31/17
f 33/34/18 41/34/18 43/35/18
f 38/26/19 37/32/19 49/32/19
f 48/28/2 44/33/2 46/25/2
f 68/18/20 70/30/20 42/31/20
f 50/26/2 49/32/2 29/20/2
f 27/22/2 43/35/2 41/34/2
f 51/27/2 50/26/2 30/16/2
f 20/21/1 36/28/1 37/32/1
f 52/29/2 51/27/2 31/15/2
f 69/30/21 33/34/21 18/23/21
f 58/36/22 60/36/22 44/33/22
f 21/20/1 37/32/1 38/26/1
f 42/31/2 52/29/2 32/17/2
f 33/34/1 35/35/1 19/22/1
f 46/25/2 44/33/2 55/24/2
f 44/33/2 60/36/2 55/24/2
f 60/36/2 62/38/2 61/39/2
f 61/39/2 56/37/2 60/36/2
f 22/16/1 38/26/1 39/27/1
f 23/15/1 39/27/1 40/29/1
f 24/17/1 40/29/1 34/31/1
f 49/32/2 48/28/2 28/21/2
f 58/36/23 59/38/23 62/38/23
f 59/38/24 57/39/24 61/39/24
f 57/39/25 54/37/25 56/37/25
f 54/37/26 53/24/26 55/24/26
f 45/33/1 47/25/1 53/24/1
f 53/24/1 54/37/1 58/36/1
f 54/37/1 57/39/1 58/36/1
f 57/39/1 59/38/1 58/36/1
f 43/35/47 27/22/47 64/40/47
f 35/35/48 65/41/48 63/40/48
f 19/22/29 63/40/29 64/40/29
f 35/35/30 43/35/30 66/41/30
f 34/31/31 69/30/31 67/18/31
f 26/23/32 41/34/32 70/30/32
f 33/34/33 69/30/33 70/30/33
f 18/23/34 26/23/34 68/18/34
f 1/2/35 71/2/35 72/1/35
f 4/3/36 73/3/36 71/2/36
f 3/8/37 74/8/37 73/3/37
f 14/6/38 75/6/38 74/8/38
f 6/8/38 77/8/38 76/6/38
f 5/3/37 78/3/37 77/8/37
f 8/2/36 79/2/36 78/3/36
f 7/1/35 80/1/35 79/2/35
f 12/12/39 81/12/39 80/1/39
f 12/12/40 11/4/40 82/4/40
f 9/5/41 83/5/41 82/4/41
f 10/6/42 76/6/42 83/5/42
f 2/1/39 72/1/39 84/12/39
f 16/12/40 84/12/40 85/4/40
f 15/4/41 85/4/41 86/5/41
f 13/5/42 86/5/42 75/6/42
f 89/7/43 88/11/43 87/11/43
f 93/13/41 92/9/41 91/9/41
f 98/42/39 97/42/39 96/14/39
f 88/11/36 100/43/36 99/43/36
f 101/10/38 89/7/38 90/7/38
f 92/9/44 101/10/44 102/10/44
f 95/14/45 96/14/45 93/13/45
f 99/43/46 100/43/46 97/42/46
f 16/12/2 96/14/2 97/42/2
f 6/8/1 90/7/1 87/11/1
f 16/12/2 15/4/2 93/13/2
f 8/2/1 5/3/1 87/11/1
f 15/4/2 13/5/2 92/9/2
f 7/1/1 8/2/1 99/43/1
f 2/1/2 97/42/2 100/43/2
f 14/6/2 101/10/2 92/9/2
o Prop_Water_Pump_01
v 0.273790 1.304128 0.063333
v 0.262667 1.304031 0.063333
v 0.254871 1.296097 0.063333
v 0.254968 1.284974 0.063333
v 0.262902 1.277177 0.063333
v 0.274025 1.277274 0.063333
v 0.281821 1.285208 0.063333
v 0.281724 1.296331 0.063333
v 0.273790 1.304128 -0.065027
v 0.262667 1.304031 -0.065027
v 0.254871 1.296097 -0.065027
v 0.254968 1.284974 -0.065027
v 0.262902 1.277177 -0.065027
v 0.274025 1.277274 -0.065027
v 0.281821 1.285208 -0.065027
v 0.281724 1.296331 -0.065027
v -0.104065 0.060206 0.021172
v -0.088041 0.060206 0.059385
v 0.104065 0.060206 -0.021172
v 0.088041 0.060206 -0.059385
v -0.058614 0.060206 0.088556
v 0.058614 0.060206 -0.088556
v -0.020263 0.060206 0.104246
v 0.020263 0.060206 -0.104246
v -0.021172 0.060206 -0.104065
v 0.021172 0.060206 0.104065
v -0.059385 0.060206 -0.088041
v 0.059385 0.060206 0.088041
v -0.088556 0.060206 -0.058614
v 0.088556 0.060206 0.058614
v -0.104246 0.060206 -0.020263
v 0.104246 0.060206 0.020263
v -0.026803 0.000000 -0.131738
v 0.025652 0.000000 -0.131967
v -0.075176 0.000000 -0.111454
v -0.112105 0.000000 -0.074201
v -0.131967 0.000000 -0.025652
v -0.131739 0.000000 0.026803
v -0.111454 0.000000 0.075176
v -0.074201 0.000000 0.112105
v -0.025652 0.000000 0.131967
v 0.026802 0.000000 0.131738
v 0.075176 0.000000 0.111454
v 0.112105 0.000000 0.074201
v 0.131967 0.000000 0.025652
v 0.131738 0.000000 -0.026802
v 0.111454 0.000000 -0.075176
v 0.074201 0.000000 -0.112105
v -0.111454 0.060206 0.075176
v 0.111454 0.060206 -0.075176
v -0.074201 0.060206 0.112105
v 0.074201 0.060206 -0.112105
v -0.025652 0.060206 0.131967
v -0.026803 0.060206 -0.131738
v 0.026802 0.060206 0.131738
v -0.075176 0.060206 -0.111454
v 0.075176 0.060206 0.111454
v -0.112105 0.060206 -0.074201
v 0.112105 0.060206 0.074201
v -0.131967 0.060206 -0.025652
v 0.131967 0.060206 0.025652
v -0.131739 0.060206 0.026803
v 0.131738 0.060206 -0.026802
v 0.025652 0.060206 -0.131967
v -0.104065 0.626862 0.021172
v 0.104065 0.626862 -0.021172
v 0.020263 0.626862 -0.104246
v -0.088041 0.626862 0.059385
v 0.088041 0.626862 -0.059385
v -0.058614 0.626862 0.088556
v 0.058614 0.626862 -0.088556
v -0.020263 0.626862 0.104246
v -0.021172 0.626862 -0.104065
v 0.021172 0.626862 0.104065
v -0.059385 0.626862 -0.088041
v 0.059385 0.626862 0.088041
v -0.088556 0.626862 -0.058614
v 0.088556 0.626862 0.058614
v -0.104246 0.626862 -0.020263
v 0.104246 0.626862 0.020263
v -0.025379 1.054537 -0.124742
v 0.024289 1.054537 -0.124958
v -0.071184 1.054537 -0.105534
v -0.106152 1.054537 -0.070260
v -0.124959 1.054537 -0.024289
v -0.124742 1.054537 0.025379
v -0.105534 1.054537 0.071184
v -0.070260 1.054537 0.106151
v -0.024290 1.054537 0.124959
v 0.025379 1.054537 0.124742
v 0.071184 1.054537 0.105534
v 0.106151 1.054537 0.070260
v 0.124958 1.054537 0.024290
v 0.124742 1.054537 -0.025379
v 0.105534 1.054537 -0.071184
v 0.070260 1.054537 -0.106151
v -0.124742 0.668488 0.025379
v 0.124742 0.668488 -0.025379
v 0.024289 0.668488 -0.124958
v -0.105534 0.668488 0.071184
v 0.105534 0.668488 -0.071184
v -0.070260 0.668488 0.106151
v 0.070260 0.668488 -0.106151
v -0.024290 0.668488 0.124959
v -0.025379 0.668488 -0.124742
v 0.025379 0.668488 0.124742
v -0.071184 0.668488 -0.105534
v 0.071184 0.668488 0.105534
v -0.106151 0.668488 -0.070260
v 0.106151 0.668488 0.070260
v -0.124959 0.668488 -0.024289
v 0.124958 0.668488 0.024290
v 0.197445 1.117692 0.036829
v 0.250000 1.105605 0.036829
v 0.272698 1.324593 0.058458
v 0.250000 1.105605 0.058458
v 0.272698 1.324593 0.036829
v 0.242049 1.311628 0.036829
v 0.252837 1.323299 0.036829
v 0.197445 1.117692 0.058458
v 0.294603 1.299541 0.036829
v 0.289998 1.314752 0.036829
v 0.242049 1.311628 0.058458
v 0.252837 1.323299 0.058458
v 0.294603 1.299541 0.058458
v 0.289998 1.314752 0.058458
v 0.197445 1.054537 0.036829
v 0.250000 1.054537 0.036829
v 0.197445 1.054537 0.058458
v 0.250000 1.054537 0.058458
v 0.174893 1.117692 0.058458
v 0.174893 1.117692 0.036829
v 0.174893 1.054537 0.058458
v 0.174893 1.054537 0.036829
v 0.197445 1.117692 -0.060110
v 0.250000 1.105605 -0.060110
v 0.272698 1.324593 -0.038481
v 0.250000 1.105605 -0.038481
v 0.272698 1.324593 -0.060110
v 0.242049 1.311628 -0.060110
v 0.252837 1.323299 -0.060110
v 0.197445 1.117692 -0.038481
v 0.294603 1.299541 -0.060110
v 0.289998 1.314752 -0.060110
v 0.242049 1.311628 -0.038481
v 0.252837 1.323299 -0.038481
v 0.294603 1.299541 -0.038481
v 0.289998 1.314752 -0.038481
v 0.197445 1.054537 -0.060110
v 0.250000 1.054537 -0.060110
v 0.197445 1.054537 -0.038481
v 0.250000 1.054537 -0.038481
v 0.174893 1.117692 -0.038481
v 0.174893 1.117692 -0.060110
v 0.174893 1.054537 -0.038481
v 0.174893 1.054537 -0.060110
v -0.173280 0.790367 -0.048719
v -0.173280 0.816767 -0.048719
v -0.173280 0.839631 -0.035519
v -0.173280 0.852831 -0.012656
v -0.173280 0.852831 0.013745
v -0.173280 0.839631 0.036609
v -0.173280 0.816767 0.049809
v -0.173280 0.790367 0.049809
v -0.173280 0.767503 0.036609
v -0.173280 0.754303 0.013745
v -0.173280 0.754303 -0.012656
v -0.173280 0.767503 -0.035519
v -0.173280 0.820834 -0.063896
v -0.173280 0.786300 -0.063896
v -0.173280 0.850741 -0.046629
v -0.173280 0.868008 -0.016722
v -0.173280 0.868008 0.017812
v -0.173280 0.850741 0.047719
v -0.173280 0.820834 0.064986
v -0.173280 0.786300 0.064986
v -0.173280 0.756393 0.047719
v -0.173280 0.739126 0.017812
v -0.173280 0.739126 -0.016722
v -0.173280 0.756393 -0.046629
v -0.149445 0.820834 -0.063896
v -0.149445 0.786300 -0.063896
v -0.149445 0.850741 -0.046629
v -0.149445 0.868008 -0.016722
v -0.149445 0.868008 0.017812
v -0.149445 0.850741 0.047719
v -0.149445 0.820834 0.064986
v -0.149445 0.786300 0.064986
v -0.149445 0.756393 0.047719
v -0.149445 0.739126 0.017812
v -0.149445 0.739126 -0.016722
v -0.149445 0.756393 -0.046629
v -0.149445 0.824530 -0.077692
v -0.149445 0.782604 -0.077692
v -0.149445 0.860840 -0.056728
v -0.149445 0.881803 -0.020419
v -0.149445 0.881803 0.021508
v -0.149445 0.860840 0.057818
v -0.149445 0.824530 0.078781
v -0.149445 0.782604 0.078781
v -0.149445 0.746294 0.057818
v -0.149445 0.725330 0.021508
v -0.149445 0.725330 -0.020419
v -0.149445 0.746294 -0.056728
v -0.093520 0.824530 -0.077692
v -0.093520 0.782604 -0.077692
v -0.093521 0.860840 -0.056728
v -0.093520 0.881803 -0.020419
v -0.093520 0.881803 0.021508
v -0.093521 0.860840 0.057818
v -0.093520 0.824530 0.078781
v -0.093520 0.782604 0.078781
v -0.093521 0.746294 0.057818
v -0.093520 0.725331 0.021508
v -0.093521 0.725330 -0.020419
v -0.093520 0.746294 -0.056728
v -0.447730 0.660971 -0.048719
v -0.474131 0.660971 -0.048719
v -0.424866 0.660971 -0.035519
v -0.411666 0.660971 -0.012656
v -0.411666 0.660971 0.013745
v -0.424866 0.660971 0.036609
v -0.447730 0.660971 0.049809
v -0.474131 0.660971 0.049809
v -0.496994 0.660971 0.036609
v -0.510195 0.660971 0.013745
v -0.510195 0.660971 -0.012656
v -0.496994 0.660971 -0.035519
v -0.421226 0.782521 -0.048719
v -0.445693 0.744512 -0.048719
v -0.409386 0.762963 -0.035519
v -0.423947 0.737453 -0.035519
v -0.402550 0.751670 -0.012656
v -0.411392 0.733377 -0.012656
v -0.402550 0.751670 0.013745
v -0.411392 0.733377 0.013745
v -0.409386 0.762963 0.036609
v -0.423947 0.737453 0.036609
v -0.421226 0.782521 0.049809
v -0.445693 0.744512 0.049809
v -0.434898 0.805106 0.049809
v -0.470804 0.752664 0.049809
v -0.446738 0.824665 0.036609
v -0.492550 0.759723 0.036609
v -0.453574 0.835958 0.013745
v -0.505106 0.763799 0.013745
v -0.453574 0.835958 -0.012656
v -0.505106 0.763799 -0.012656
v -0.446738 0.824665 -0.035519
v -0.492551 0.759723 -0.035519
v -0.470804 0.752664 -0.048719
v -0.434898 0.805106 -0.048719
v -0.495942 0.679382 -0.035519
v -0.508990 0.679382 -0.012656
v -0.508990 0.679382 0.013745
v -0.495942 0.679382 0.036609
v -0.473343 0.679382 0.049809
v -0.447248 0.679382 0.049809
v -0.424649 0.679382 0.036609
v -0.411601 0.679382 0.013745
v -0.411601 0.679382 -0.012656
v -0.424649 0.679382 -0.035519
v -0.447248 0.679382 -0.048719
v -0.473343 0.679382 -0.048719
v -0.445402 0.660933 -0.057488
v -0.476541 0.661074 -0.057465
v -0.418443 0.660906 -0.041926
v -0.402900 0.660930 -0.014994
v -0.402900 0.660930 0.016083
v -0.418443 0.660906 0.043015
v -0.445402 0.660933 0.058578
v -0.476541 0.661074 0.058555
v -0.503458 0.661288 0.042968
v -0.518954 0.661448 0.016059
v -0.518954 0.661448 -0.014969
v -0.503458 0.661288 -0.041878
v -0.502333 0.679694 -0.041951
v -0.517738 0.679858 -0.015011
v -0.517738 0.679858 0.016100
v -0.502333 0.679694 0.043041
v -0.475650 0.679481 0.058583
v -0.444857 0.679343 0.058561
v -0.418210 0.679317 0.043000
v -0.402835 0.679341 0.016081
v -0.402834 0.679341 -0.014992
v -0.418210 0.679317 -0.041911
v -0.444857 0.679343 -0.057471
v -0.475650 0.679481 -0.057493
v -0.451256 0.748644 -0.035562
v -0.470605 0.748644 -0.035562
v -0.434498 0.748644 -0.025887
v -0.424824 0.748644 -0.009130
v -0.424824 0.748644 0.010220
v -0.434498 0.748644 0.026977
v -0.451256 0.748644 0.036652
v -0.470605 0.748644 0.036652
v -0.487362 0.748644 0.026977
v -0.497037 0.748644 0.010220
v -0.497037 0.748644 -0.009130
v -0.487362 0.748644 -0.025887
v -0.023000 1.054537 -0.112860
v 0.021936 1.054537 -0.113056
v -0.064442 1.054537 -0.095482
v -0.096078 1.054537 -0.063568
v -0.113093 1.054537 -0.021977
v -0.112897 1.054537 0.022960
v -0.095520 1.054537 0.064401
v -0.063606 1.054537 0.096037
v -0.022015 1.054537 0.113053
v 0.022922 1.054537 0.112857
v 0.068079 1.054537 0.093921
v 0.099170 1.054537 0.069088
v 0.099170 1.054537 0.035132
v 0.099170 1.054537 -0.036711
v 0.099170 1.054537 -0.069829
v 0.067434 1.054537 -0.094442
v 0.036829 1.113728 -0.189467
v -0.038481 1.113728 -0.189138
v -0.107932 1.113728 -0.160015
v -0.160951 1.113728 -0.106531
v -0.189467 1.113728 -0.036829
v -0.189138 1.113728 0.038481
v -0.160015 1.113728 0.107932
v -0.106531 1.113728 0.160951
v -0.036829 1.113728 0.189467
v 0.038481 1.113728 0.189138
v 0.107931 1.113728 0.160015
v 0.174893 1.113728 0.106531
v 0.174893 1.113728 0.036829
v 0.174893 1.113728 -0.038481
v 0.174893 1.113728 -0.107932
v 0.106531 1.113728 -0.160951
v 0.014321 1.135197 -0.043176
v -0.002840 1.135197 -0.043101
v -0.018667 1.135197 -0.036465
v -0.030749 1.135197 -0.024277
v -0.037247 1.135197 -0.008393
v -0.037173 1.135197 0.008769
v -0.030536 1.135197 0.024596
v -0.018348 1.135197 0.036678
v -0.002464 1.135197 0.043176
v 0.014698 1.135197 0.043101
v 0.030524 1.135197 0.036465
v 0.042607 1.135197 0.024277
v 0.049105 1.135197 0.008393
v 0.049030 1.135197 -0.008769
v 0.042393 1.135197 -0.024596
v 0.030205 1.135197 -0.036678
v 0.027992 1.135197 -0.144008
v -0.029248 1.135197 -0.143758
v -0.082036 1.135197 -0.121623
v -0.122334 1.135197 -0.080971
v -0.144008 1.135198 -0.027992
v -0.143758 1.135197 0.029248
v -0.121623 1.135197 0.082035
v -0.080971 1.135197 0.122334
v -0.027992 1.135197 0.144008
v 0.029248 1.135197 0.143758
v 0.082035 1.135197 0.121623
v 0.122334 1.135197 0.080971
v 0.144008 1.135197 0.027992
v 0.143758 1.135197 -0.029248
v 0.121623 1.135197 -0.082036
v 0.080971 1.135197 -0.122334
v 0.009663 0.901254 -0.049715
v -0.010097 0.901254 -0.049628
v -0.028320 0.901254 -0.041987
v -0.042232 0.901254 -0.027953
v -0.049715 0.901254 -0.009664
v -0.049628 0.901254 0.010097
v -0.041987 0.901254 0.028320
v -0.027953 0.901254 0.042232
v -0.009664 0.901254 0.049714
v 0.010097 0.901254 0.049628
v 0.028320 0.901254 0.041987
v 0.042232 0.901254 0.027953
v 0.049714 0.901254 0.009663
v 0.049628 0.901254 -0.010097
v 0.041987 0.901254 -0.028320
v 0.027953 0.901254 -0.042232
v 0.036829 1.054537 -0.189467
v -0.038481 1.054537 -0.189138
v -0.107932 1.054537 -0.160015
v -0.160951 1.054537 -0.106531
v -0.189467 1.054537 -0.036829
v -0.189138 1.054537 0.038481
v -0.160015 1.054537 0.107932
v -0.106531 1.054537 0.160951
v -0.036829 1.054537 0.189467
v 0.038481 1.054537 0.189138
v 0.107931 1.054537 0.160015
v 0.174893 1.054537 0.106531
v 0.174893 1.054537 0.036829
v 0.174893 1.054537 -0.038481
v 0.174893 1.054537 -0.107932
v 0.106531 1.054537 -0.160951
vn 1.0000 0.0087 -0.0000
vn 0.0087 -1.0000 -0.0000
vn -1.0000 -0.0087 -0.0000
vn -0.0087 1.0000 -0.0000
vn 0.7009 0.7133 -0.0000
vn 0.7133 -0.7009 -0.0000
vn -0.7009 -0.7133 -0.0000
vn -0.7132 0.7009 -0.0000
vn -0.0000 -0.0000 1.0000
vn -0.0000 -0.0000 -1.0000
vn 0.3463 -0.4452 0.8258
vn -0.6359 -0.4452 -0.6304
vn 0.6359 -0.4452 0.6304
vn -0.8288 -0.4452 -0.3391
vn 0.8288 -0.4452 0.3391
vn -0.8258 -0.4452 0.3463
vn -0.8954 -0.4452 0.0039
vn 0.8258 -0.4452 -0.3463
vn -0.0000 1.0000 -0.0000
vn 1.0000 -0.0000 -0.0044
vn -1.0000 -0.0000 0.0044
vn 0.9255 -0.0000 0.3786
vn -0.9255 -0.0000 -0.3786
vn 0.7102 -0.0000 0.7040
vn -0.7102 -0.0000 -0.7040
vn 0.3867 -0.0000 0.9222
vn -0.3867 -0.0000 -0.9222
vn 0.0044 -0.0000 1.0000
vn 0.3786 -0.0000 -0.9255
vn -0.0044 -0.0000 -1.0000
vn -0.3786 -0.0000 0.9255
vn 0.7040 -0.0000 -0.7102
vn -0.7040 -0.0000 0.7102
vn 0.9222 -0.0000 -0.3867
vn -0.9222 -0.0000 0.3867
vn -0.3463 -0.4452 -0.8258
vn 0.0039 -0.4452 0.8954
vn 0.3391 -0.4452 -0.8288
vn -0.0039 -0.4452 -0.8954
vn -0.3391 -0.4452 0.8288
vn 0.6304 -0.4452 -0.6359
vn -0.6304 -0.4452 0.6359
vn 0.8954 -0.4452 -0.0039
vn -0.7343 0.6788 -0.0000
vn 0.9571 0.2898 -0.0000
vn -0.9746 0.2241 -0.0000
vn 0.4944 0.8692 -0.0000
vn -0.0650 0.9979 -0.0000
vn 0.9746 -0.2241 -0.0000
vn -0.0000 -1.0000 -0.0000
vn 1.0000 -0.0000 -0.0000
vn -1.0000 -0.0000 -0.0000
vn -0.5043 0.0175 -0.8634
vn -0.0601 0.9982 -0.0000
vn 0.0099 -0.8660 -0.5000
vn 0.0175 -0.5520 0.8336
vn -0.0535 0.8889 0.4550
vn 0.0096 -0.5000 -0.8660
vn -0.0223 0.4999 -0.8658
vn 0.0172 -0.8944 0.4469
vn -0.0299 0.5467 0.8368
vn -0.0473 0.8651 -0.4994
vn 0.0115 -0.9999 -0.0000
vn -0.0000 -0.8660 -0.5000
vn -0.0000 -0.5000 0.8660
vn -0.0000 0.8660 0.5000
vn -0.0000 -0.5000 -0.8660
vn -0.0000 0.5000 -0.8660
vn -0.0000 -0.8660 0.5000
vn -0.0000 0.5000 0.8660
vn -0.0000 0.8660 -0.5000
vn -0.0000 -0.1484 -0.9889
vn -0.8679 0.0366 -0.4953
vn -0.9989 0.0460 -0.0000
vn -0.8728 0.0402 0.4864
vn -0.5136 0.0217 0.8577
vn 0.5159 -0.0123 0.8565
vn 0.8757 -0.0106 0.4828
vn 1.0000 -0.0039 -0.0000
vn 0.8685 -0.0034 -0.4956
vn 0.5044 -0.0061 -0.8635
vn 0.4411 -0.2518 -0.8614
vn 0.7815 -0.3777 -0.4965
vn 0.9003 -0.4352 -0.0000
vn 0.7754 -0.4426 0.4504
vn 0.4546 -0.2926 0.8413
vn -0.4356 0.3073 0.8461
vn -0.7189 0.5134 0.4685
vn -0.8138 0.5812 -0.0000
vn -0.7155 0.5048 -0.4829
vn -0.4255 0.2913 -0.8568
vn -0.0064 -1.0000 -0.0037
vn -0.0059 -0.9999 -0.0102
vn 0.0031 1.0000 -0.0036
vn 0.0349 0.9993 -0.0139
vn -0.0047 -1.0000 -0.0000
vn -0.0000 0.9999 0.0113
vn -0.0313 -0.9993 -0.0181
vn 0.0126 0.9999 -0.0079
vn -0.0039 -1.0000 0.0031
vn -0.0544 -0.9985 -0.0000
vn 0.0045 1.0000 0.0032
vn -0.0037 -1.0000 0.0065
vn 0.0007 0.0009 -1.0000
vn 0.5043 -0.0057 -0.8635
vn 0.8683 -0.0030 -0.4960
vn 1.0000 -0.0036 -0.0000
vn 0.8661 -0.0105 0.4998
vn 0.4999 -0.0140 0.8660
vn -0.0007 -0.0015 1.0000
vn -0.5008 0.0272 0.8651
vn -0.8651 0.0560 0.4985
vn -0.9978 0.0659 -0.0000
vn -0.8668 0.0510 -0.4960
vn -0.5030 0.0230 -0.8640
vn 0.0544 0.9985 -0.0000
vn 0.0059 1.0000 -0.0043
vn -0.0030 -1.0000 -0.0035
vn 0.0471 0.9985 0.0269
vn 0.0047 1.0000 -0.0000
vn -0.0045 -0.9999 0.0105
vn 0.0179 0.9994 0.0307
vn 0.0041 1.0000 0.0023
vn -0.0232 -0.9994 0.0263
vn -0.0000 -1.0000 0.0043
vn 0.0038 1.0000 0.0064
vn -0.0486 -0.9986 0.0220
vn -0.9889 -0.1484 -0.0000
vn 0.8564 -0.1484 0.4945
vn -0.0000 -0.1484 0.9889
vn 0.4945 -0.1484 -0.8564
vn -0.8564 -0.1484 -0.4945
vn 0.4945 -0.1484 0.8564
vn -0.4945 -0.1484 0.8564
vn 0.8564 -0.1484 -0.4945
vn -0.4945 -0.1484 -0.8564
vn -0.8564 -0.1484 0.4945
vn 0.9889 -0.1484 -0.0000
vn -0.3009 0.9041 0.3035
vn 0.6241 -0.0000 0.7814
vn 0.6129 -0.0000 -0.7902
vn -0.9255 -0.0045 -0.3786
vn 0.2297 0.9271 -0.2961
vn -0.1618 0.9041 0.3955
vn -0.0019 0.9041 -0.4273
vn 0.1618 0.9041 -0.3955
vn 0.0019 0.9041 0.4273
vn -0.1653 0.9041 -0.3941
vn 0.1653 0.9041 0.3941
vn -0.3035 0.9041 -0.3009
vn 0.3035 0.9041 0.3009
vn -0.3955 0.9041 -0.1618
vn 0.3781 0.9257 -0.0000
vn -0.4273 0.9041 0.0019
vn 0.5713 0.8208 -0.0025
vn -0.3941 0.9041 0.1653
vn 0.5107 0.8327 -0.2141
vn 0.9986 -0.0532 -0.0044
vn -1.0000 -0.0026 0.0044
vn 0.9210 -0.0512 -0.3862
vn -0.9222 -0.0046 0.3867
vn 0.7033 -0.0457 -0.7094
vn -0.7040 -0.0101 0.7102
vn 0.3784 -0.0375 -0.9249
vn 0.0044 -0.0280 0.9996
vn -0.3786 -0.0183 0.9254
vn -0.0044 -0.0278 -0.9996
vn 0.3864 -0.0377 0.9215
vn -0.3866 -0.0181 -0.9220
vn 0.7094 -0.0459 0.7033
vn -0.7102 -0.0099 -0.7040
vn 0.9243 -0.0513 0.3781
vn 0.7132 -0.7009 -0.0000
vn -0.7133 0.7009 -0.0000
vn -0.5136 0.0217 -0.8577
vn 0.0172 -0.8944 -0.4469
vn 0.0096 -0.5000 0.8660
vn -0.0473 0.8651 0.4994
vn 0.0175 -0.5520 -0.8336
vn -0.0299 0.5467 -0.8368
vn 0.0099 -0.8660 0.5000
vn -0.0223 0.4999 0.8658
vn -0.0535 0.8889 -0.4550
vn -0.8728 0.0402 -0.4864
vn -0.8679 0.0366 0.4953
vn -0.5043 0.0175 0.8634
vn 0.5044 -0.0061 0.8635
vn 0.8685 -0.0034 0.4956
vn 0.8757 -0.0106 -0.4828
vn 0.5159 -0.0123 -0.8565
vn 0.4546 -0.2926 -0.8413
vn 0.7754 -0.4426 -0.4504
vn 0.7815 -0.3778 0.4965
vn 0.4411 -0.2518 0.8614
vn -0.4255 0.2913 0.8568
vn -0.7155 0.5048 0.4829
vn -0.7189 0.5134 -0.4685
vn -0.4356 0.3073 -0.8461
vn -0.0039 -1.0000 -0.0031
vn -0.0232 -0.9994 -0.0263
vn 0.0038 1.0000 -0.0064
vn 0.0471 0.9985 -0.0269
vn 0.0045 1.0000 -0.0032
vn -0.0486 -0.9986 -0.0220
vn 0.0179 0.9994 -0.0307
vn -0.0064 -1.0000 0.0037
vn -0.0000 0.9999 -0.0113
vn -0.0030 -1.0000 0.0035
vn -0.0007 -0.0015 -1.0000
vn 0.4999 -0.0140 -0.8660
vn 0.8661 -0.0105 -0.4998
vn 0.8683 -0.0030 0.4960
vn 0.5043 -0.0057 0.8635
vn 0.0007 0.0009 1.0000
vn -0.5030 0.0230 0.8640
vn -0.8668 0.0510 0.4960
vn -0.8651 0.0560 -0.4985
vn -0.5008 0.0272 -0.8651
vn 0.0041 1.0000 -0.0023
vn -0.0037 -1.0000 -0.0065
vn 0.0349 0.9993 0.0139
vn -0.0000 -1.0000 -0.0043
vn 0.0126 0.9999 0.0079
vn 0.0059 1.0000 0.0043
vn -0.0059 -0.9999 0.0102
vn -0.0045 -0.9999 -0.0106
vn 0.0031 1.0000 0.0036
vn -0.0313 -0.9993 0.0181
vn 0.3009 0.9041 -0.3035
vn 0.2352 0.9263 0.2944
vn 0.5164 0.8299 0.2113
vn 0.5677 0.8232 -0.0000
vn 0.3738 0.9275 -0.0000
vt 0.584289 0.737171
vt 0.584277 0.743939
vt 0.581929 0.732285
vt 0.583316 0.732344
vt 0.580927 0.743796
vt 0.580939 0.737028
vt 0.583287 0.748683
vt 0.581899 0.748624
vt 0.845806 0.701687
vt 0.845846 0.705922
vt 0.845809 0.705922
vt 0.845717 0.701687
vt 0.845731 0.705922
vt 0.845741 0.701687
vt 0.845860 0.701687
vt 0.845837 0.701687
vt 0.845704 0.701687
vt 0.845703 0.705922
vt 0.845890 0.705922
vt 0.845874 0.705922
vt 0.845718 0.701687
vt 0.845688 0.705922
vt 0.845705 0.701687
vt 0.845688 0.705922
vt 0.845873 0.701687
vt 0.845874 0.705922
vt 0.845889 0.705922
vt 0.845805 0.644029
vt 0.845849 0.644029
vt 0.845809 0.644029
vt 0.845772 0.644029
vt 0.845810 0.644029
vt 0.845806 0.644029
vt 0.845772 0.644029
vt 0.845728 0.644029
vt 0.845741 0.644029
vt 0.845849 0.644029
vt 0.845837 0.644029
vt 0.845698 0.644029
vt 0.845717 0.644029
vt 0.845879 0.644029
vt 0.845860 0.644029
vt 0.845682 0.644029
vt 0.845704 0.644029
vt 0.845895 0.637903
vt 0.845895 0.644029
vt 0.845895 0.637903
vt 0.845682 0.637903
vt 0.845682 0.637903
vt 0.845879 0.637903
vt 0.845698 0.637903
vt 0.845849 0.637903
vt 0.845728 0.637903
vt 0.845810 0.637903
vt 0.845767 0.637903
vt 0.845768 0.637903
vt 0.845809 0.637903
vt 0.845849 0.637903
vt 0.845767 0.644029
vt 0.845729 0.644029
vt 0.845729 0.637903
vt 0.845879 0.644029
vt 0.845879 0.637903
vt 0.845699 0.644029
vt 0.845699 0.637903
vt 0.845768 0.644029
vt 0.845836 0.644029
vt 0.845741 0.644029
vt 0.845873 0.644029
vt 0.845895 0.644029
vt 0.845873 0.644029
vt 0.845860 0.644029
vt 0.845682 0.644029
vt 0.845705 0.644029
vt 0.845718 0.644029
vt 0.845772 0.701687
vt 0.845805 0.701687
vt 0.845772 0.701687
vt 0.845860 0.701687
vt 0.845703 0.745203
vt 0.845703 0.705922
vt 0.845874 0.745203
vt 0.845732 0.745203
vt 0.845732 0.705922
vt 0.845845 0.745203
vt 0.845845 0.705922
vt 0.845769 0.745203
vt 0.845769 0.705922
vt 0.845768 0.745203
vt 0.845808 0.705922
vt 0.845768 0.705922
vt 0.845809 0.745203
vt 0.845731 0.745203
vt 0.845846 0.745203
vt 0.845703 0.745203
vt 0.845890 0.745203
vt 0.845688 0.745203
vt 0.845836 0.701687
vt 0.845741 0.701687
vt 0.845873 0.701687
vt 0.846027 0.770132
vt 0.846009 0.772681
vt 0.845984 0.771362
vt 0.845991 0.750399
vt 0.845948 0.745203
vt 0.845991 0.745203
vt 0.845993 0.772550
vt 0.846023 0.771680
vt 0.845948 0.751629
vt 0.845930 0.751629
vt 0.845930 0.745203
vt 0.845649 0.721010
vt 0.845649 0.724467
vt 0.845649 0.723336
vt 0.845388 0.707031
vt 0.845408 0.714487
vt 0.845406 0.707031
vt 0.845448 0.717526
vt 0.845437 0.719823
vt 0.845422 0.722962
vt 0.845649 0.724679
vt 0.845463 0.714386
vt 0.845649 0.715997
vt 0.845649 0.714654
vt 0.845458 0.715535
vt 0.845649 0.718324
vt 0.845428 0.721813
vt 0.845649 0.726224
vt 0.845668 0.726224
vt 0.845649 0.713110
vt 0.845649 0.717910
vt 0.845649 0.721424
vt 0.845649 0.714867
vt 0.845668 0.727627
vt 0.845668 0.713110
vt 0.845668 0.717910
vt 0.845668 0.714867
vt 0.845668 0.724467
vt 0.845668 0.721424
vt 0.845668 0.721800
vt 0.845713 0.717534
vt 0.845713 0.721800
vt 0.845668 0.713839
vt 0.845668 0.711706
vt 0.845668 0.717534
vt 0.845668 0.725494
vt 0.845713 0.727627
vt 0.845713 0.711706
vt 0.845713 0.725494
vt 0.845713 0.713839
vt 0.845408 0.714078
vt 0.845427 0.705158
vt 0.845406 0.705158
vt 0.845377 0.707031
vt 0.845391 0.715205
vt 0.845380 0.715620
vt 0.845428 0.713658
vt 0.845427 0.707031
vt 0.845446 0.712940
vt 0.845446 0.707031
vt 0.845456 0.712525
vt 0.845456 0.707031
vt 0.845456 0.705158
vt 0.845451 0.705151
vt 0.845445 0.705158
vt 0.845387 0.705158
vt 0.845404 0.705168
vt 0.845451 0.707024
vt 0.845429 0.707027
vt 0.845370 0.707079
vt 0.845383 0.707062
vt 0.845463 0.705153
vt 0.845404 0.707041
vt 0.845376 0.705158
vt 0.845382 0.705190
vt 0.845369 0.705206
vt 0.845429 0.705153
vt 0.845463 0.707027
vt 0.845424 0.714078
vt 0.845395 0.714078
vt 0.845445 0.714078
vt 0.845387 0.714078
vt 0.845438 0.714078
vt 0.845703 0.751226
vt 0.845690 0.753410
vt 0.845659 0.751226
vt 0.845818 0.745203
vt 0.845758 0.751226
vt 0.845818 0.751226
vt 0.845875 0.751226
vt 0.845875 0.745203
vt 0.845759 0.745203
vt 0.845820 0.751226
vt 0.845759 0.751226
vt 0.845701 0.745203
vt 0.845758 0.745203
vt 0.845876 0.745203
vt 0.845820 0.745203
vt 0.845659 0.751226
vt 0.845701 0.751226
vt 0.845930 0.751226
vt 0.845876 0.751226
vt 0.845659 0.745203
vt 0.845636 0.751226
vt 0.845636 0.745203
vt 0.845636 0.745203
vt 0.845636 0.751226
vt 0.845659 0.745203
vt 0.845703 0.745203
vt 0.598037 0.617243
vt 0.598050 0.609461
vt 0.598036 0.609461
vt 0.845887 0.753410
vt 0.845723 0.753410
vt 0.845765 0.753410
vt 0.845811 0.753410
vt 0.845854 0.753410
vt 0.845766 0.753410
vt 0.845722 0.753410
vt 0.845812 0.753410
vt 0.845690 0.753410
vt 0.845888 0.753410
vt 0.845855 0.753410
vt 0.845672 0.753410
vt 0.845672 0.753410
vt 0.845905 0.753410
vt 0.845905 0.753410
vt 0.845786 0.753410
vt 0.845774 0.753410
vt 0.845764 0.753410
vt 0.845759 0.753410
vt 0.845759 0.753410
vt 0.845764 0.753410
vt 0.845774 0.753410
vt 0.845787 0.753410
vt 0.845801 0.753410
vt 0.845813 0.753410
vt 0.845823 0.753410
vt 0.845828 0.753410
vt 0.845828 0.753410
vt 0.845823 0.753410
vt 0.845813 0.753410
vt 0.845800 0.753410
vt 0.597908 0.732303
vt 0.598036 0.732303
vt 0.598010 0.732303
vt 0.597892 0.617243
vt 0.597869 0.609461
vt 0.597869 0.609461
vt 0.598048 0.617243
vt 0.598048 0.617243
vt 0.597892 0.617243
vt 0.597883 0.609461
vt 0.598036 0.617243
vt 0.598049 0.609461
vt 0.597904 0.617243
vt 0.597908 0.609461
vt 0.598014 0.617243
vt 0.598036 0.609461
vt 0.597926 0.617243
vt 0.597942 0.609461
vt 0.597954 0.617243
vt 0.597977 0.609461
vt 0.597985 0.617243
vt 0.598010 0.609461
vt 0.597955 0.617243
vt 0.597978 0.609461
vt 0.597925 0.617243
vt 0.597941 0.609461
vt 0.597986 0.617243
vt 0.598011 0.609461
vt 0.597903 0.617243
vt 0.597908 0.609461
vt 0.598015 0.617243
vt 0.597883 0.609461
vt 0.845806 0.745203
vt 0.845770 0.745203
vt 0.845737 0.745203
vt 0.845711 0.745203
vt 0.845697 0.745203
vt 0.845697 0.745203
vt 0.845711 0.745203
vt 0.845737 0.745203
vt 0.845771 0.745203
vt 0.845807 0.745203
vt 0.845869 0.745203
vt 0.845844 0.745203
vt 0.845843 0.745203
vt 0.845889 0.745203
vt 0.845808 0.745203
vt 0.845874 0.745203
vt 0.845688 0.745203
vt 0.597977 0.732303
vt 0.597941 0.732303
vt 0.597908 0.732303
vt 0.597883 0.732303
vt 0.597869 0.732303
vt 0.597869 0.732303
vt 0.597883 0.732303
vt 0.597942 0.732303
vt 0.597978 0.732303
vt 0.598011 0.732303
vt 0.598050 0.732303
vt 0.598049 0.732303
vt 0.598036 0.732303
s 0
usemtl Texture_Map
f 117/44/49 110/45/49 109/44/49
f 115/46/50 108/47/50 107/46/50
f 113/48/51 106/49/51 105/48/51
f 111/50/52 104/51/52 103/50/52
f 118/45/53 103/50/53 110/45/53
f 116/47/54 109/44/54 108/47/54
f 114/49/55 107/46/55 106/49/55
f 112/51/56 105/48/56 104/51/56
f 107/46/57 109/44/57 103/50/57
f 111/50/58 117/44/58 115/46/58
f 176/52/59 210/53/59 208/54/59
f 179/55/60 209/56/60 177/57/60
f 180/58/61 210/53/61 178/59/61
f 181/60/62 211/61/62 179/55/62
f 180/58/63 214/62/63 212/63/63
f 170/64/64 199/65/64 167/66/64
f 181/60/65 199/65/65 213/67/65
f 168/68/66 203/69/66 200/70/66
f 126/71/67 154/72/67 166/73/67
f 125/74/67 157/75/67 128/76/67
f 127/77/67 158/78/67 129/79/67
f 128/76/67 159/80/67 130/81/67
f 129/79/67 160/82/67 131/83/67
f 130/81/67 161/84/67 132/85/67
f 131/83/67 162/86/67 133/87/67
f 148/88/68 163/89/68 147/90/68
f 140/91/69 162/86/69 139/92/69
f 163/89/70 146/93/70 147/90/70
f 162/86/71 138/94/71 139/92/71
f 161/84/72 145/95/72 146/93/72
f 160/82/73 137/96/73 138/94/73
f 145/95/74 157/75/74 144/97/74
f 158/78/75 135/98/75 137/96/75
f 157/75/76 143/99/76 144/97/76
f 136/100/77 154/72/77 150/101/77
f 156/102/78 136/100/78 135/98/78
f 143/99/79 153/103/79 142/104/79
f 150/101/80 152/105/80 149/106/80
f 142/104/81 151/107/81 141/108/81
f 152/105/82 148/88/82 149/106/82
f 151/107/83 140/91/83 141/108/83
f 126/71/67 156/102/67 127/77/67
f 125/74/67 153/103/67 155/109/67
f 124/110/67 152/105/67 154/72/67
f 123/111/67 151/107/67 153/103/67
f 134/112/67 165/113/67 121/114/67
f 121/114/67 152/105/67 122/115/67
f 133/87/67 164/116/67 119/117/67
f 120/118/67 164/116/67 151/107/67
f 132/85/67 163/89/67 134/112/67
f 168/68/68 134/112/68 121/114/68
f 167/66/69 133/87/69 119/117/69
f 134/112/70 180/58/70 132/85/70
f 133/87/71 179/55/71 131/83/71
f 180/58/72 130/81/72 132/85/72
f 179/55/73 129/79/73 131/83/73
f 178/59/74 128/76/74 130/81/74
f 129/79/75 175/119/75 127/77/75
f 176/52/76 125/74/76 128/76/76
f 169/120/77 124/110/77 126/71/77
f 175/119/78 126/71/78 127/77/78
f 174/121/79 123/111/79 125/74/79
f 124/110/80 171/122/80 122/115/80
f 123/111/81 170/64/81 120/118/81
f 171/122/82 121/114/82 122/115/82
f 170/64/83 119/117/83 120/118/83
f 189/123/83 199/65/83 202/124/83
f 197/125/82 200/70/82 203/69/82
f 190/126/81 202/124/81 204/127/81
f 198/128/80 203/69/80 205/129/80
f 191/130/79 204/127/79 206/131/79
f 183/132/78 201/133/78 207/134/78
f 201/133/77 198/128/77 205/129/77
f 192/135/76 206/131/76 208/54/76
f 185/136/75 207/134/75 209/56/75
f 193/137/74 208/54/74 210/53/74
f 186/138/73 209/56/73 211/61/73
f 212/63/72 193/137/72 210/53/72
f 213/67/71 186/138/71 211/61/71
f 195/139/70 212/63/70 214/62/70
f 188/140/69 213/67/69 199/65/69
f 200/70/68 195/139/68 214/62/68
f 175/119/84 209/56/84 207/134/84
f 174/121/85 208/54/85 206/131/85
f 169/120/86 205/129/86 173/141/86
f 175/119/87 201/133/87 169/120/87
f 172/142/88 206/131/88 204/127/88
f 171/122/89 205/129/89 203/69/89
f 170/64/90 204/127/90 202/124/90
f 168/68/91 214/62/91 182/143/91
f 227/144/57 217/145/57 225/146/57
f 220/146/58 219/145/58 223/144/58
f 218/147/57 231/148/57 232/149/57
f 220/146/92 226/150/92 221/150/92
f 224/151/93 227/144/93 223/144/93
f 215/152/94 225/146/94 220/146/94
f 224/151/95 217/145/95 228/151/95
f 221/150/96 217/145/96 219/145/96
f 223/144/97 218/147/97 216/147/97
f 230/149/98 231/148/98 229/148/98
f 215/152/67 233/153/67 222/152/67
f 218/147/99 230/149/99 216/147/99
f 216/147/58 229/148/58 215/152/58
f 234/153/100 235/154/100 233/153/100
f 231/148/98 236/154/98 229/148/98
f 229/148/58 234/153/58 215/152/58
f 222/152/57 235/154/57 231/148/57
f 249/144/57 239/145/57 247/146/57
f 242/146/58 241/145/58 245/144/58
f 240/147/57 253/148/57 254/149/57
f 243/150/92 247/146/92 248/150/92
f 246/151/93 249/144/93 245/144/93
f 242/146/94 244/152/94 247/146/94
f 241/145/95 250/151/95 246/151/95
f 241/145/96 248/150/96 239/145/96
f 245/144/97 240/147/97 238/147/97
f 252/149/98 253/148/98 251/148/98
f 244/152/67 256/153/67 255/153/67
f 238/147/99 254/149/99 252/149/99
f 238/147/58 251/148/58 237/152/58
f 256/153/100 257/154/100 255/153/100
f 253/148/98 258/154/98 251/148/98
f 251/148/58 256/153/58 237/152/58
f 244/152/57 257/154/57 253/148/57
f 265/155/100 276/156/100 264/157/100
f 355/158/101 353/159/101 366/160/101
f 341/161/57 265/155/57 343/162/57
f 347/163/102 262/164/102 349/163/102
f 335/165/103 270/166/103 269/167/103
f 339/168/104 266/169/104 341/161/104
f 345/170/105 263/164/105 347/163/105
f 333/168/106 259/169/106 270/166/106
f 354/162/107 261/157/107 260/155/107
f 337/165/108 267/166/108 339/168/108
f 343/162/109 264/157/109 345/170/109
f 351/170/110 262/164/110 261/157/110
f 335/165/111 268/167/111 337/165/111
f 274/171/67 287/172/67 286/172/67
f 262/164/100 273/156/100 261/157/100
f 269/167/100 280/173/100 268/167/100
f 265/155/100 278/174/100 277/175/100
f 262/164/100 275/171/100 274/171/100
f 270/166/100 281/173/100 269/167/100
f 259/169/100 271/175/100 272/174/100
f 267/166/100 278/174/100 266/169/100
f 263/164/100 276/156/100 275/171/100
f 270/166/100 272/174/100 282/176/100
f 261/157/100 271/175/100 260/155/100
f 268/167/100 279/176/100 267/166/100
f 286/172/100 299/177/100 298/177/100
f 282/176/112 293/178/112 281/173/112
f 271/175/58 284/179/58 272/174/58
f 279/176/113 290/179/113 278/174/113
f 276/156/114 287/172/114 275/171/114
f 272/174/115 294/180/115 282/176/115
f 271/175/116 285/181/116 283/182/116
f 280/173/117 291/180/117 279/176/117
f 277/175/118 288/181/118 276/156/118
f 273/156/119 286/172/119 285/181/119
f 281/173/98 292/178/98 280/173/98
f 278/174/57 289/182/57 277/175/57
f 301/183/57 314/184/57 313/185/57
f 293/178/100 306/186/100 305/187/100
f 284/179/100 295/183/100 296/188/100
f 290/179/100 303/186/100 302/188/100
f 287/172/100 300/189/100 299/177/100
f 284/179/100 306/186/100 294/180/100
f 285/181/100 295/183/100 283/182/100
f 292/178/100 303/186/100 291/180/100
f 288/181/100 301/183/100 300/189/100
f 285/181/100 298/177/100 297/189/100
f 293/178/100 304/187/100 292/178/100
f 289/182/100 302/188/100 301/183/100
f 298/177/67 311/190/67 310/190/67
f 306/186/112 317/191/112 305/187/112
f 295/183/58 308/184/58 296/188/58
f 303/186/113 314/184/113 302/188/113
f 299/177/114 312/192/114 311/190/114
f 296/188/115 318/193/115 306/186/115
f 297/189/116 307/185/116 295/183/116
f 304/187/117 315/193/117 303/186/117
f 301/183/118 312/192/118 300/189/118
f 298/177/119 309/192/119 297/189/119
f 304/187/98 317/191/98 316/191/98
f 398/194/120 325/195/120 326/196/120
f 356/197/121 352/198/121 355/158/121
f 356/197/122 348/199/122 350/199/122
f 357/197/123 346/198/123 348/199/123
f 358/158/124 344/159/124 346/198/124
f 359/160/57 342/200/57 344/159/57
f 360/201/125 340/202/125 342/200/125
f 361/203/126 338/204/126 340/202/126
f 363/205/127 338/204/127 362/205/127
f 364/203/128 336/204/128 363/205/128
f 365/201/129 334/202/129 364/203/129
f 366/160/58 332/200/58 365/201/58
f 332/200/130 333/168/130 334/202/130
f 334/202/131 335/165/131 336/204/131
f 336/204/132 337/165/132 338/204/132
f 340/202/133 337/165/133 339/168/133
f 342/200/134 339/168/134 341/161/134
f 344/159/57 341/161/57 343/162/57
f 346/198/135 343/162/135 345/170/135
f 348/199/136 345/170/136 347/163/136
f 348/199/137 349/163/137 350/199/137
f 350/199/138 351/170/138 352/198/138
f 352/198/139 354/162/139 353/159/139
f 353/159/58 331/161/58 332/200/58
f 323/206/140 372/207/140 324/208/140
f 330/209/141 368/210/141 320/196/141
f 365/201/142 388/211/142 389/212/142
f 358/158/143 381/213/143 382/214/143
f 323/206/144 370/215/144 371/215/144
f 365/201/145 390/216/145 366/160/145
f 329/217/146 378/218/146 330/209/146
f 359/160/147 382/214/147 383/216/147
f 322/206/148 369/207/148 370/215/148
f 328/217/149 377/219/149 329/217/149
f 360/201/150 383/216/150 384/212/150
f 319/195/151 369/207/151 321/208/151
f 367/220/152 390/216/152 389/212/152
f 369/207/153 389/212/153 388/211/153
f 370/215/154 388/211/154 387/221/154
f 371/215/155 387/221/155 386/221/155
f 371/215/156 385/211/156 372/207/156
f 372/207/157 384/212/157 373/220/157
f 373/220/158 383/216/158 374/210/158
f 374/210/159 382/214/159 375/218/159
f 375/218/160 381/213/160 376/219/160
f 376/219/161 380/213/161 377/219/161
f 378/218/162 380/213/162 379/214/162
f 368/210/163 379/214/163 390/216/163
f 356/197/164 381/213/164 357/197/164
f 364/203/165 387/221/165 388/211/165
f 325/195/166 372/207/166 373/220/166
f 355/158/167 380/213/167 356/197/167
f 363/205/168 386/221/168 387/221/168
f 326/196/169 373/220/169 374/210/169
f 366/160/170 379/214/170 355/158/170
f 361/203/171 386/221/171 362/205/171
f 327/209/172 374/210/172 375/218/172
f 320/196/173 367/220/173 319/195/173
f 360/201/174 385/211/174 361/203/174
f 328/217/175 375/218/175 376/219/175
f 397/222/98 399/223/98 392/194/98
f 323/206/176 394/224/176 322/206/176
f 330/209/177 401/225/177 329/217/177
f 391/222/178 320/196/178 319/195/178
f 399/223/179 326/196/179 327/209/179
f 396/226/180 323/206/180 324/208/180
f 320/196/181 402/223/181 330/209/181
f 393/226/182 319/195/182 321/208/182
f 400/225/183 327/209/183 328/217/183
f 397/222/184 324/208/184 325/195/184
f 322/206/185 393/226/185 321/208/185
f 401/225/186 328/217/186 329/217/186
f 426/227/187 457/228/187 425/229/187
f 483/230/78 420/231/78 419/232/78
f 483/230/77 434/233/77 498/234/77
f 491/235/76 428/236/76 427/237/76
f 485/238/75 420/231/75 484/239/75
f 493/240/74 428/236/74 492/241/74
f 485/238/73 422/242/73 421/243/73
f 493/240/188 430/244/188 429/245/188
f 486/246/71 423/247/71 422/242/71
f 495/154/99 430/244/99 494/154/99
f 488/248/69 423/247/69 487/249/69
f 496/154/99 431/244/99 495/154/99
f 488/248/83 425/229/83 424/250/83
f 496/154/99 433/244/99 432/244/99
f 489/251/81 426/227/81 425/229/81
f 497/154/189 434/233/189 433/244/189
f 490/252/79 427/237/79 426/227/79
f 446/253/190 479/254/190 478/255/190
f 434/233/191 465/256/191 433/244/191
f 427/237/192 458/257/192 426/227/192
f 419/232/193 452/258/193 451/259/193
f 434/233/194 451/259/194 466/260/194
f 428/236/195 459/261/195 427/237/195
f 420/231/196 453/262/196 452/258/196
f 429/245/197 460/263/197 428/236/197
f 421/243/198 454/264/198 453/262/198
f 429/245/199 462/265/199 461/266/199
f 422/242/200 455/267/200 454/264/200
f 431/244/201 462/265/201 430/244/201
f 423/247/202 456/268/202 455/267/202
f 431/244/203 464/269/203 463/270/203
f 424/250/204 457/228/204 456/268/204
f 432/244/205 465/256/205 464/269/205
f 436/271/67 451/259/67 452/258/67
f 437/272/67 452/258/67 453/262/67
f 438/273/67 453/262/67 454/264/67
f 439/274/67 454/264/67 455/267/67
f 439/274/67 456/268/67 440/275/67
f 440/275/67 457/228/67 441/276/67
f 441/276/67 458/257/67 442/277/67
f 442/277/67 459/261/67 443/278/67
f 443/278/67 460/263/67 444/279/67
f 444/279/67 461/266/67 445/280/67
f 445/280/67 462/265/67 446/281/67
f 446/281/67 463/270/67 447/282/67
f 448/283/67 463/270/67 464/269/67
f 449/284/67 464/269/67 465/256/67
f 450/285/67 465/256/67 466/260/67
f 435/286/67 466/260/67 451/259/67
f 474/287/67 478/288/67 482/289/67
f 439/290/206 472/291/206 471/292/206
f 448/293/207 479/254/207 447/294/207
f 440/295/208 473/296/208 472/291/208
f 449/297/209 480/298/209 448/293/209
f 441/299/210 474/300/210 473/296/210
f 450/301/211 481/302/211 449/297/211
f 442/303/212 475/304/212 474/300/212
f 436/305/213 467/306/213 435/307/213
f 435/307/214 482/308/214 450/301/214
f 443/309/215 476/310/215 475/304/215
f 437/311/216 468/312/216 436/305/216
f 444/313/217 477/314/217 476/310/217
f 438/315/218 469/316/218 437/311/218
f 445/317/219 478/255/219 477/314/219
f 439/290/220 470/318/220 438/315/220
f 404/319/98 484/239/98 483/230/98
f 403/320/98 485/238/98 484/239/98
f 405/321/98 486/246/98 485/238/98
f 406/322/98 487/249/98 486/246/98
f 408/323/98 487/249/98 407/324/98
f 409/325/98 488/248/98 408/323/98
f 410/326/98 489/251/98 409/325/98
f 411/327/98 490/252/98 410/326/98
f 412/328/98 491/235/98 411/327/98
f 412/328/98 493/240/98 492/241/98
f 414/329/98 493/240/98 413/330/98
f 414/329/98 495/154/98 494/154/98
f 416/329/98 495/154/98 415/329/98
f 417/329/98 496/154/98 416/329/98
f 417/329/98 498/234/98 497/154/98
f 404/319/98 498/234/98 418/331/98
f 331/161/58 260/155/58 259/169/58
f 117/44/49 118/45/49 110/45/49
f 115/46/50 116/47/50 108/47/50
f 113/48/51 114/49/51 106/49/51
f 111/50/52 112/51/52 104/51/52
f 118/45/53 111/50/53 103/50/53
f 116/47/221 117/44/221 109/44/221
f 114/49/55 115/46/55 107/46/55
f 112/51/222 113/48/222 105/48/222
f 103/50/57 104/51/57 105/48/57
f 105/48/57 106/49/57 107/46/57
f 107/46/57 108/47/57 109/44/57
f 109/44/57 110/45/57 103/50/57
f 103/50/57 105/48/57 107/46/57
f 113/48/58 112/51/58 111/50/58
f 111/50/58 118/45/58 117/44/58
f 117/44/58 116/47/58 115/46/58
f 115/46/58 114/49/58 113/48/58
f 113/48/58 111/50/58 115/46/58
f 176/52/59 178/59/59 210/53/59
f 179/55/60 211/61/60 209/56/60
f 180/58/61 212/63/61 210/53/61
f 181/60/62 213/67/62 211/61/62
f 180/58/63 182/143/63 214/62/63
f 170/64/64 202/124/64 199/65/64
f 181/60/65 167/66/65 199/65/65
f 168/68/66 171/122/66 203/69/66
f 126/71/67 124/110/67 154/72/67
f 125/74/67 155/109/67 157/75/67
f 127/77/67 156/102/67 158/78/67
f 128/76/67 157/75/67 159/80/67
f 129/79/67 158/78/67 160/82/67
f 130/81/67 159/80/67 161/84/67
f 131/83/67 160/82/67 162/86/67
f 148/88/68 165/113/68 163/89/68
f 140/91/69 164/116/69 162/86/69
f 163/89/70 161/84/70 146/93/70
f 162/86/71 160/82/71 138/94/71
f 161/84/72 159/80/72 145/95/72
f 160/82/73 158/78/73 137/96/73
f 145/95/74 159/80/74 157/75/74
f 158/78/75 156/102/75 135/98/75
f 157/75/76 155/109/76 143/99/76
f 136/100/77 166/73/77 154/72/77
f 156/102/78 166/73/78 136/100/78
f 143/99/79 155/109/79 153/103/79
f 150/101/80 154/72/80 152/105/80
f 142/104/81 153/103/81 151/107/81
f 152/105/82 165/113/82 148/88/82
f 151/107/83 164/116/83 140/91/83
f 126/71/67 166/73/67 156/102/67
f 125/74/67 123/111/67 153/103/67
f 124/110/67 122/115/67 152/105/67
f 123/111/67 120/118/67 151/107/67
f 134/112/67 163/89/67 165/113/67
f 121/114/67 165/113/67 152/105/67
f 133/87/67 162/86/67 164/116/67
f 120/118/67 119/117/67 164/116/67
f 132/85/67 161/84/67 163/89/67
f 168/68/68 182/143/68 134/112/68
f 167/66/69 181/60/69 133/87/69
f 134/112/70 182/143/70 180/58/70
f 133/87/71 181/60/71 179/55/71
f 180/58/72 178/59/72 130/81/72
f 179/55/73 177/57/73 129/79/73
f 178/59/74 176/52/74 128/76/74
f 129/79/75 177/57/75 175/119/75
f 176/52/76 174/121/76 125/74/76
f 169/120/77 173/141/77 124/110/77
f 175/119/78 169/120/78 126/71/78
f 174/121/79 172/142/79 123/111/79
f 124/110/80 173/141/80 171/122/80
f 123/111/81 172/142/81 170/64/81
f 171/122/82 168/68/82 121/114/82
f 170/64/83 167/66/83 119/117/83
f 189/123/83 188/140/83 199/65/83
f 197/125/82 196/332/82 200/70/82
f 190/126/81 189/123/81 202/124/81
f 198/128/80 197/125/80 203/69/80
f 191/130/79 190/126/79 204/127/79
f 183/132/78 184/333/78 201/133/78
f 201/133/77 184/333/77 198/128/77
f 192/135/76 191/130/76 206/131/76
f 185/136/75 183/132/75 207/134/75
f 193/137/74 192/135/74 208/54/74
f 186/138/73 185/136/73 209/56/73
f 212/63/72 194/334/72 193/137/72
f 213/67/71 187/335/71 186/138/71
f 195/139/70 194/334/70 212/63/70
f 188/140/69 187/335/69 213/67/69
f 200/70/68 196/332/68 195/139/68
f 175/119/84 177/57/84 209/56/84
f 174/121/85 176/52/85 208/54/85
f 169/120/86 201/133/86 205/129/86
f 175/119/87 207/134/87 201/133/87
f 172/142/88 174/121/88 206/131/88
f 171/122/89 173/141/89 205/129/89
f 170/64/90 172/142/90 204/127/90
f 168/68/91 200/70/91 214/62/91
f 225/146/57 222/152/57 218/147/57
f 218/147/57 227/144/57 225/146/57
f 227/144/57 228/151/57 217/145/57
f 225/146/57 217/145/57 226/150/57
f 216/147/58 215/152/58 223/144/58
f 215/152/58 220/146/58 223/144/58
f 220/146/58 221/150/58 219/145/58
f 219/145/58 224/151/58 223/144/58
f 218/147/57 222/152/57 231/148/57
f 220/146/92 225/146/92 226/150/92
f 224/151/93 228/151/93 227/144/93
f 215/152/94 222/152/94 225/146/94
f 224/151/95 219/145/95 217/145/95
f 221/150/96 226/150/96 217/145/96
f 223/144/97 227/144/97 218/147/97
f 230/149/98 232/149/98 231/148/98
f 215/152/67 234/153/67 233/153/67
f 218/147/99 232/149/99 230/149/99
f 216/147/58 230/149/58 229/148/58
f 234/153/100 236/154/100 235/154/100
f 231/148/98 235/154/98 236/154/98
f 229/148/58 236/154/58 234/153/58
f 222/152/57 233/153/57 235/154/57
f 247/146/57 244/152/57 240/147/57
f 240/147/57 249/144/57 247/146/57
f 249/144/57 250/151/57 239/145/57
f 247/146/57 239/145/57 248/150/57
f 238/147/58 237/152/58 242/146/58
f 242/146/58 243/150/58 241/145/58
f 241/145/58 246/151/58 245/144/58
f 245/144/58 238/147/58 242/146/58
f 240/147/57 244/152/57 253/148/57
f 243/150/92 242/146/92 247/146/92
f 246/151/93 250/151/93 249/144/93
f 242/146/94 237/152/94 244/152/94
f 241/145/95 239/145/95 250/151/95
f 241/145/96 243/150/96 248/150/96
f 245/144/97 249/144/97 240/147/97
f 252/149/98 254/149/98 253/148/98
f 244/152/67 237/152/67 256/153/67
f 238/147/99 240/147/99 254/149/99
f 238/147/58 252/149/58 251/148/58
f 256/153/100 258/154/100 257/154/100
f 253/148/98 257/154/98 258/154/98
f 251/148/58 258/154/58 256/153/58
f 244/152/57 255/153/57 257/154/57
f 265/155/100 277/175/100 276/156/100
f 355/158/223 352/198/223 353/159/223
f 341/161/57 266/169/57 265/155/57
f 347/163/102 263/164/102 262/164/102
f 335/165/224 333/168/224 270/166/224
f 339/168/225 267/166/225 266/169/225
f 345/170/226 264/157/226 263/164/226
f 333/168/227 331/161/227 259/169/227
f 354/162/228 351/170/228 261/157/228
f 337/165/229 268/167/229 267/166/229
f 343/162/230 265/155/230 264/157/230
f 351/170/231 349/163/231 262/164/231
f 335/165/111 269/167/111 268/167/111
f 274/171/67 275/171/67 287/172/67
f 262/164/100 274/171/100 273/156/100
f 269/167/100 281/173/100 280/173/100
f 265/155/100 266/169/100 278/174/100
f 262/164/100 263/164/100 275/171/100
f 270/166/100 282/176/100 281/173/100
f 259/169/100 260/155/100 271/175/100
f 267/166/100 279/176/100 278/174/100
f 263/164/100 264/157/100 276/156/100
f 270/166/100 259/169/100 272/174/100
f 261/157/100 273/156/100 271/175/100
f 268/167/100 280/173/100 279/176/100
f 286/172/100 287/172/100 299/177/100
f 282/176/112 294/180/112 293/178/112
f 271/175/58 283/182/58 284/179/58
f 279/176/113 291/180/113 290/179/113
f 276/156/114 288/181/114 287/172/114
f 272/174/115 284/179/115 294/180/115
f 271/175/116 273/156/116 285/181/116
f 280/173/117 292/178/117 291/180/117
f 277/175/118 289/182/118 288/181/118
f 273/156/119 274/171/119 286/172/119
f 281/173/98 293/178/98 292/178/98
f 278/174/57 290/179/57 289/182/57
f 301/183/57 302/188/57 314/184/57
f 293/178/100 294/180/100 306/186/100
f 284/179/100 283/182/100 295/183/100
f 290/179/100 291/180/100 303/186/100
f 287/172/100 288/181/100 300/189/100
f 284/179/100 296/188/100 306/186/100
f 285/181/100 297/189/100 295/183/100
f 292/178/100 304/187/100 303/186/100
f 288/181/100 289/182/100 301/183/100
f 285/181/100 286/172/100 298/177/100
f 293/178/100 305/187/100 304/187/100
f 289/182/100 290/179/100 302/188/100
f 298/177/67 299/177/67 311/190/67
f 306/186/112 318/193/112 317/191/112
f 295/183/58 307/185/58 308/184/58
f 303/186/113 315/193/113 314/184/113
f 299/177/114 300/189/114 312/192/114
f 296/188/115 308/184/115 318/193/115
f 297/189/116 309/192/116 307/185/116
f 304/187/117 316/191/117 315/193/117
f 301/183/118 313/185/118 312/192/118
f 298/177/119 310/190/119 309/192/119
f 304/187/98 305/187/98 317/191/98
f 398/194/120 397/222/120 325/195/120
f 356/197/232 350/199/232 352/198/232
f 356/197/122 357/197/122 348/199/122
f 357/197/233 358/158/233 346/198/233
f 358/158/234 359/160/234 344/159/234
f 359/160/57 360/201/57 342/200/57
f 360/201/235 361/203/235 340/202/235
f 361/203/236 362/205/236 338/204/236
f 363/205/127 336/204/127 338/204/127
f 364/203/237 334/202/237 336/204/237
f 365/201/238 332/200/238 334/202/238
f 366/160/58 353/159/58 332/200/58
f 332/200/239 331/161/239 333/168/239
f 334/202/240 333/168/240 335/165/240
f 336/204/132 335/165/132 337/165/132
f 340/202/241 338/204/241 337/165/241
f 342/200/242 340/202/242 339/168/242
f 344/159/57 342/200/57 341/161/57
f 346/198/243 344/159/243 343/162/243
f 348/199/244 346/198/244 345/170/244
f 348/199/137 347/163/137 349/163/137
f 350/199/245 349/163/245 351/170/245
f 352/198/246 351/170/246 354/162/246
f 353/159/58 354/162/58 331/161/58
f 323/206/247 371/215/247 372/207/247
f 330/209/248 378/218/248 368/210/248
f 365/201/249 364/203/249 388/211/249
f 358/158/250 357/197/250 381/213/250
f 323/206/144 322/206/144 370/215/144
f 365/201/251 389/212/251 390/216/251
f 329/217/252 377/219/252 378/218/252
f 359/160/253 358/158/253 382/214/253
f 322/206/254 321/208/254 369/207/254
f 328/217/149 376/219/149 377/219/149
f 360/201/255 359/160/255 383/216/255
f 319/195/256 367/220/256 369/207/256
f 367/220/257 368/210/257 390/216/257
f 369/207/258 367/220/258 389/212/258
f 370/215/259 369/207/259 388/211/259
f 371/215/155 370/215/155 387/221/155
f 371/215/260 386/221/260 385/211/260
f 372/207/261 385/211/261 384/212/261
f 373/220/262 384/212/262 383/216/262
f 374/210/263 383/216/263 382/214/263
f 375/218/264 382/214/264 381/213/264
f 376/219/161 381/213/161 380/213/161
f 378/218/265 377/219/265 380/213/265
f 368/210/266 378/218/266 379/214/266
f 356/197/164 380/213/164 381/213/164
f 364/203/267 363/205/267 387/221/267
f 325/195/268 324/208/268 372/207/268
f 355/158/269 379/214/269 380/213/269
f 363/205/168 362/205/168 386/221/168
f 326/196/270 325/195/270 373/220/270
f 366/160/271 390/216/271 379/214/271
f 361/203/272 385/211/272 386/221/272
f 327/209/273 326/196/273 374/210/273
f 320/196/274 368/210/274 367/220/274
f 360/201/275 384/212/275 385/211/275
f 328/217/276 327/209/276 375/218/276
f 392/194/98 391/222/98 395/224/98
f 391/222/98 393/226/98 395/224/98
f 393/226/98 394/224/98 395/224/98
f 395/224/98 396/226/98 397/222/98
f 397/222/98 398/194/98 399/223/98
f 399/223/98 400/225/98 401/225/98
f 401/225/98 402/223/98 399/223/98
f 402/223/98 392/194/98 399/223/98
f 395/224/98 397/222/98 392/194/98
f 323/206/176 395/224/176 394/224/176
f 330/209/177 402/223/177 401/225/177
f 391/222/178 392/194/178 320/196/178
f 399/223/179 398/194/179 326/196/179
f 396/226/180 395/224/180 323/206/180
f 320/196/181 392/194/181 402/223/181
f 393/226/182 391/222/182 319/195/182
f 400/225/183 399/223/183 327/209/183
f 397/222/184 396/226/184 324/208/184
f 322/206/185 394/224/185 393/226/185
f 401/225/186 400/225/186 328/217/186
f 426/227/187 458/257/187 457/228/187
f 483/230/78 484/239/78 420/231/78
f 483/230/77 419/232/77 434/233/77
f 491/235/76 492/241/76 428/236/76
f 485/238/75 421/243/75 420/231/75
f 493/240/74 429/245/74 428/236/74
f 485/238/73 486/246/73 422/242/73
f 493/240/188 494/154/188 430/244/188
f 486/246/71 487/249/71 423/247/71
f 495/154/99 431/244/99 430/244/99
f 488/248/69 424/250/69 423/247/69
f 496/154/99 432/244/99 431/244/99
f 488/248/83 489/251/83 425/229/83
f 496/154/99 497/154/99 433/244/99
f 489/251/81 490/252/81 426/227/81
f 497/154/189 498/234/189 434/233/189
f 490/252/79 491/235/79 427/237/79
f 446/253/190 447/294/190 479/254/190
f 434/233/277 466/260/277 465/256/277
f 427/237/192 459/261/192 458/257/192
f 419/232/193 420/231/193 452/258/193
f 434/233/194 419/232/194 451/259/194
f 428/236/195 460/263/195 459/261/195
f 420/231/196 421/243/196 453/262/196
f 429/245/197 461/266/197 460/263/197
f 421/243/198 422/242/198 454/264/198
f 429/245/278 430/244/278 462/265/278
f 422/242/200 423/247/200 455/267/200
f 431/244/279 463/270/279 462/265/279
f 423/247/202 424/250/202 456/268/202
f 431/244/280 432/244/280 464/269/280
f 424/250/204 425/229/204 457/228/204
f 432/244/281 433/244/281 465/256/281
f 436/271/67 435/286/67 451/259/67
f 437/272/67 436/271/67 452/258/67
f 438/273/67 437/272/67 453/262/67
f 439/274/67 438/273/67 454/264/67
f 439/274/67 455/267/67 456/268/67
f 440/275/67 456/268/67 457/228/67
f 441/276/67 457/228/67 458/257/67
f 442/277/67 458/257/67 459/261/67
f 443/278/67 459/261/67 460/263/67
f 444/279/67 460/263/67 461/266/67
f 445/280/67 461/266/67 462/265/67
f 446/281/67 462/265/67 463/270/67
f 448/283/67 447/282/67 463/270/67
f 449/284/67 448/283/67 464/269/67
f 450/285/67 449/284/67 465/256/67
f 435/286/67 450/285/67 466/260/67
f 482/289/67 467/336/67 468/337/67
f 468/337/67 469/338/67 470/339/67
f 470/339/67 471/340/67 474/287/67
f 471/340/67 472/341/67 474/287/67
f 472/341/67 473/342/67 474/287/67
f 474/287/67 475/343/67 476/344/67
f 476/344/67 477/345/67 474/287/67
f 477/345/67 478/288/67 474/287/67
f 478/288/67 479/346/67 480/347/67
f 480/347/67 481/348/67 482/289/67
f 482/289/67 468/337/67 474/287/67
f 468/337/67 470/339/67 474/287/67
f 478/288/67 480/347/67 482/289/67
f 439/290/206 440/295/206 472/291/206
f 448/293/207 480/298/207 479/254/207
f 440/295/208 441/299/208 473/296/208
f 449/297/209 481/302/209 480/298/209
f 441/299/210 442/303/210 474/300/210
f 450/301/211 482/308/211 481/302/211
f 442/303/212 443/309/212 475/304/212
f 436/305/213 468/312/213 467/306/213
f 435/307/214 467/306/214 482/308/214
f 443/309/215 444/313/215 476/310/215
f 437/311/216 469/316/216 468/312/216
f 444/313/217 445/317/217 477/314/217
f 438/315/218 470/318/218 469/316/218
f 445/317/219 446/253/219 478/255/219
f 439/290/220 471/292/220 470/318/220
f 404/319/98 403/320/98 484/239/98
f 403/320/98 405/321/98 485/238/98
f 405/321/98 406/322/98 486/246/98
f 406/322/98 407/324/98 487/249/98
f 408/323/98 488/248/98 487/249/98
f 409/325/98 489/251/98 488/248/98
f 410/326/98 490/252/98 489/251/98
f 411/327/98 491/235/98 490/252/98
f 412/328/98 492/241/98 491/235/98
f 412/328/98 413/330/98 493/240/98
f 414/329/98 494/154/98 493/240/98
f 414/329/98 415/329/98 495/154/98
f 416/329/98 496/154/98 495/154/98
f 417/329/98 497/154/98 496/154/98
f 417/329/98 418/331/98 498/234/98
f 404/319/98 483/230/98 498/234/98
f 331/161/58 354/162/58 260/155/58
o Prop_Water_Pump_Pipe_01
v 0.009345 1.214043 -0.007435
v 0.000099 1.214043 -0.007355
v -0.006381 1.214043 -0.000760
v -0.006301 1.214043 0.008485
v 0.000294 1.214043 0.014966
v 0.009539 1.214043 0.014885
v 0.016020 1.214043 0.008291
v 0.015939 1.214043 -0.000955
v 0.009345 0.096984 -0.007435
v 0.000099 0.096984 -0.007355
v -0.006381 0.096984 -0.000760
v -0.006301 0.096984 0.008485
v 0.000294 0.096984 0.014966
v 0.009539 0.096984 0.014885
v 0.016020 0.096984 0.008291
v 0.015939 0.096984 -0.000955
vn 0.0087 -0.0000 1.0000
vn -1.0000 -0.0000 0.0087
vn -0.0087 -0.0000 -1.0000
vn 0.7009 -0.0000 -0.7133
vn 0.7133 -0.0000 0.7009
vn -0.7009 -0.0000 0.7133
vn -0.7133 -0.0000 -0.7009
vn 1.0000 -0.0000 -0.0087
vt 0.573374 0.667687
vt 0.573425 0.699512
vt 0.573374 0.699512
vt 0.573336 0.667687
vt 0.573337 0.699512
vt 0.573336 0.699512
vt 0.573424 0.667687
vt 0.573372 0.699512
vt 0.573424 0.699512
vt 0.573461 0.667687
vt 0.573461 0.699512
vt 0.573425 0.667687
vt 0.573461 0.699512
vt 0.573337 0.667687
vt 0.573372 0.667687
vt 0.573461 0.667687
s 0
usemtl Texture_Map
f 511/349/282 504/350/282 503/351/282
f 509/352/283 502/353/283 501/354/283
f 507/355/284 500/356/284 499/357/284
f 514/358/285 499/357/285 506/359/285
f 512/360/286 505/361/286 504/350/286
f 510/362/287 503/351/287 502/353/287
f 508/363/288 501/354/288 500/356/288
f 513/364/289 506/359/289 505/361/289
f 511/349/282 512/360/282 504/350/282
f 509/352/283 510/362/283 502/353/283
f 507/355/284 508/363/284 500/356/284
f 514/358/285 507/355/285 499/357/285
f 512/360/286 513/364/286 505/361/286
f 510/362/287 511/349/287 503/351/287
f 508/363/288 509/352/288 501/354/288
f 513/364/289 514/358/289 506/359/289
