# Blender 4.4.0
# www.blender.org
mtllib Prop_Crate_Box_02.mtl
o Prop_Crate_Box_02
v 0.828461 0.041251 0.425301
v 0.828461 0.041251 -0.425301
v 0.828461 0.500369 0.425301
v 0.828461 0.500369 -0.425301
v 0.828461 0.344525 -0.425301
v 0.828461 0.350134 -0.425301
v 0.828461 0.191486 -0.425301
v 0.828461 0.197095 -0.425301
v 0.828461 0.197095 0.425301
v 0.828461 0.191486 0.425301
v 0.828461 0.350134 0.425301
v 0.828461 0.344525 0.425301
v 0.800497 0.194290 -0.425301
v -0.828461 0.041251 0.425301
v -0.828461 0.041251 -0.425301
v -0.828461 0.500369 0.425301
v -0.828461 0.500369 -0.425301
v -0.828461 0.344525 -0.425301
v -0.828461 0.350134 -0.425301
v -0.828461 0.191486 -0.425301
v -0.828461 0.197095 -0.425301
v -0.828461 0.197095 0.425301
v -0.828461 0.191486 0.425301
v -0.828461 0.350134 0.425301
v -0.828461 0.344525 0.425301
v -0.800497 0.347330 -0.425301
v -0.800497 0.347330 0.425301
v 0.800497 0.041251 0.451385
v 0.830029 0.041251 0.451385
v 0.800497 0.041251 0.425301
v 0.830029 0.041251 0.425301
v 0.800497 0.500369 0.425301
v 0.800497 0.500369 0.451385
v 0.830029 0.500369 0.451385
v 0.830029 0.500369 0.425301
v -0.800497 0.041251 0.451385
v -0.830029 0.041251 0.451385
v -0.800497 0.041251 0.425301
v -0.830029 0.041251 0.425301
v -0.800497 0.500369 0.425301
v -0.800497 0.500369 0.451385
v -0.830029 0.500369 0.451385
v -0.830029 0.500369 0.425301
v 0.800497 0.041251 -0.451385
v 0.830029 0.041251 -0.451385
v 0.800497 0.041251 -0.425301
v 0.830029 0.041251 -0.425301
v 0.800497 0.500369 -0.425301
v 0.800497 0.500369 -0.451385
v 0.830029 0.500369 -0.451385
v 0.830029 0.500369 -0.425301
v -0.800497 0.041251 -0.451385
v -0.830029 0.041251 -0.451385
v -0.800497 0.041251 -0.425301
v -0.830029 0.041251 -0.425301
v -0.800497 0.500369 -0.425301
v -0.800497 0.500369 -0.451385
v -0.830029 0.500369 -0.451385
v -0.830029 0.500369 -0.425301
v 0.848582 0.522662 -0.460929
v 0.848582 0.522662 0.460929
v -0.848582 0.522662 0.460929
v -0.848582 0.522662 -0.460929
v -0.848582 0.500369 -0.460929
v -0.848582 0.500369 0.460929
v 0.848582 0.500369 0.460929
v 0.848582 0.500369 -0.460929
v 0.848582 0.522662 0.227966
v 0.848582 0.522662 0.232964
v 0.848582 0.522662 -0.002499
v 0.848582 0.522662 0.002499
v 0.848582 0.522662 -0.232964
v 0.848582 0.522662 -0.227966
v -0.848582 0.522662 -0.227966
v -0.848582 0.522662 -0.232964
v -0.848582 0.522662 0.002499
v -0.848582 0.522662 -0.002499
v -0.848582 0.522662 0.232964
v -0.848582 0.522662 0.227966
v -0.848582 0.500369 -0.230465
v -0.848582 0.500369 0.000000
v -0.848582 0.500369 0.230465
v 0.848582 0.500369 0.230465
v 0.848582 0.500369 -0.000000
v 0.848582 0.500369 -0.230465
v -0.800497 0.500369 0.450000
v 0.800497 0.500369 0.450000
v 0.800497 0.041251 0.450000
v -0.800497 0.041251 0.450000
v 0.800497 0.194290 0.425301
v 0.800497 0.347330 0.425301
v -0.800497 0.194290 0.425301
v -0.800497 0.344525 0.450000
v -0.800497 0.350134 0.450000
v -0.800497 0.191486 0.450000
v -0.800497 0.197095 0.450000
v 0.800497 0.197095 0.450000
v 0.800497 0.191486 0.450000
v 0.800497 0.350134 0.450000
v 0.800497 0.344525 0.450000
v -0.800497 0.500369 -0.450000
v 0.800497 0.500369 -0.450000
v 0.800497 0.041251 -0.450000
v -0.800497 0.041251 -0.450000
v 0.800497 0.347330 -0.425301
v -0.800497 0.194290 -0.425301
v -0.800497 0.344525 -0.450000
v -0.800497 0.350134 -0.450000
v -0.800497 0.191486 -0.450000
v -0.800497 0.197095 -0.450000
v 0.800497 0.197095 -0.450000
v 0.800497 0.191486 -0.450000
v 0.800497 0.350134 -0.450000
v 0.800497 0.344525 -0.450000
v -0.819045 0.020626 0.391871
v 0.819045 0.020626 0.391871
v -0.819045 0.020626 0.291703
v 0.819045 0.020626 0.291703
v -0.819045 0.000000 0.291703
v -0.819045 0.000000 0.391871
v 0.819045 0.000000 0.391871
v 0.819045 0.000000 0.291703
v -0.819045 0.020626 -0.391871
v 0.819045 0.020626 -0.391871
v -0.819045 0.020626 -0.291703
v 0.819045 0.020626 -0.291703
v -0.819045 0.000000 -0.291703
v -0.819045 0.000000 -0.391871
v 0.819045 0.000000 -0.391871
v 0.819045 0.000000 -0.291703
v -0.833134 0.041251 0.452538
v 0.833134 0.041251 0.452538
v -0.833134 0.041251 -0.452538
v 0.833134 0.041251 -0.452538
v -0.833134 0.020626 -0.452538
v -0.833134 0.020626 0.452538
v 0.833134 0.020626 0.452538
v 0.833134 0.020626 -0.452538
vn 1.0000 -0.0000 -0.0000
vn 0.0998 0.9950 -0.0000
vn 0.0998 -0.9950 -0.0000
vn -1.0000 -0.0000 -0.0000
vn -0.0998 0.9950 -0.0000
vn -0.0998 -0.9950 -0.0000
vn -0.0000 -0.0000 1.0000
vn -0.0000 -0.0000 -1.0000
vn -0.0000 -1.0000 -0.0000
vn -0.0000 1.0000 -0.0000
vn -0.0000 0.1114 0.9938
vn -0.0000 0.1114 -0.9938
vn -0.0000 0.9936 0.1128
vn -0.0000 -0.9936 0.1128
vn -0.0000 0.9936 -0.1128
vn -0.0000 -0.9936 -0.1128
vt 0.613043 0.858867
vt 0.613043 0.826842
vt 0.602944 0.865767
vt 0.602944 0.848773
vt 0.613043 0.891489
vt 0.613000 0.892087
vt 0.613043 0.892684
vt 0.613000 0.892087
vt 0.613000 0.859464
vt 0.613043 0.860062
vt 0.613000 0.859464
vt 0.613043 0.924709
vt 0.610519 0.826842
vt 0.610519 0.858867
vt 0.601579 0.848773
vt 0.601579 0.865767
vt 0.610561 0.892087
vt 0.610519 0.891489
vt 0.610561 0.892087
vt 0.610519 0.892684
vt 0.610561 0.859464
vt 0.610519 0.860062
vt 0.610519 0.924709
vt 0.593344 0.815642
vt 0.592756 0.857143
vt 0.592756 0.815642
vt 0.593344 0.857143
vt 0.593393 0.857143
vt 0.592806 0.815642
vt 0.593393 0.815642
vt 0.592806 0.857143
vt 0.593344 0.815642
vt 0.593344 0.857143
vt 0.225171 0.891104
vt 0.225171 0.949403
vt 0.240330 0.881232
vt 0.242358 0.881232
vt 0.228348 0.949403
vt 0.228348 0.891104
vt 0.240330 0.918431
vt 0.242358 0.918431
vt 0.613000 0.860062
vt 0.610561 0.891489
vt 0.610561 0.860062
vt 0.602921 0.866413
vt 0.601602 0.883731
vt 0.601602 0.866413
vt 0.602921 0.830809
vt 0.601602 0.848126
vt 0.601602 0.830809
vt 0.613000 0.891489
vt 0.613000 0.892685
vt 0.610561 0.858867
vt 0.613000 0.858867
vt 0.613000 0.892684
vt 0.610561 0.859464
vt 0.203871 0.824057
vt 0.210685 0.824057
vt 0.203871 0.891801
vt 0.210685 0.891801
vt 0.210744 0.959544
vt 0.203812 0.959544
vt 0.203812 0.959544
vt 0.203812 0.891801
vt 0.210744 0.891801
vt 0.210744 0.959544
vt 0.602921 0.883731
vt 0.602921 0.848126
vt 0.610561 0.892685
vt 0.610561 0.892684
s 0
usemtl Texture_Map
f 7/1/1 1/2/1 2/2/1
f 5/3/1 9/4/1 8/4/1
f 5/5/2 91/6/2 12/5/2
f 6/7/3 91/6/3 105/8/3
f 7/1/2 90/9/2 10/1/2
f 9/10/3 13/11/3 8/10/3
f 4/12/1 11/7/1 6/7/1
f 14/13/4 20/14/4 15/13/4
f 22/15/4 18/16/4 21/15/4
f 27/17/5 18/18/5 25/18/5
f 26/19/6 24/20/6 19/20/6
f 92/21/5 20/14/5 23/14/5
f 21/22/6 92/21/6 22/22/6
f 24/20/4 17/23/4 19/20/4
f 29/24/7 33/25/7 28/26/7
f 31/24/1 34/27/1 29/24/1
f 28/26/4 32/25/4 30/26/4
f 30/26/8 35/27/8 31/24/8
f 41/28/7 37/29/7 36/30/7
f 42/31/4 39/29/4 37/29/4
f 40/28/1 36/30/1 38/30/1
f 43/31/8 38/30/8 39/29/8
f 49/25/8 45/32/8 44/26/8
f 50/33/1 47/32/1 45/32/1
f 48/25/4 44/26/4 46/26/4
f 51/33/7 46/26/7 47/32/7
f 53/29/8 57/28/8 52/30/8
f 55/29/4 58/31/4 53/29/4
f 52/30/1 56/28/1 54/30/1
f 54/30/7 59/31/7 55/29/7
f 64/34/4 75/35/4 63/35/4
f 80/36/9 84/37/9 81/36/9
f 64/34/8 60/38/8 67/39/8
f 66/37/7 62/40/7 65/36/7
f 72/38/10 63/35/10 75/35/10
f 64/34/9 85/39/9 80/34/9
f 81/36/4 74/40/4 80/36/4
f 82/34/4 76/35/4 81/34/4
f 65/36/4 78/40/4 82/36/4
f 68/38/10 76/35/10 79/35/10
f 70/41/10 74/40/10 77/40/10
f 67/39/1 72/38/1 85/39/1
f 82/36/9 66/37/9 65/36/9
f 81/34/9 83/39/9 82/34/9
f 66/37/1 69/41/1 61/41/1
f 84/39/1 68/38/1 83/39/1
f 85/37/1 70/41/1 84/37/1
f 82/34/11 68/38/11 79/35/11
f 78/35/12 83/39/12 82/34/12
f 81/34/11 70/38/11 77/35/11
f 76/35/12 84/39/12 81/34/12
f 80/34/11 72/38/11 75/35/11
f 74/35/12 85/39/12 80/34/12
f 61/41/10 78/40/10 62/40/10
f 97/42/7 93/43/7 96/44/7
f 99/45/7 86/46/7 94/47/7
f 88/48/7 95/49/7 89/50/7
f 91/6/13 93/43/13 100/51/13
f 99/52/14 27/17/14 91/6/14
f 90/9/13 95/53/13 98/54/13
f 97/42/14 92/21/14 90/9/14
f 107/43/8 111/42/8 110/44/8
f 101/46/8 113/45/8 108/47/8
f 109/49/8 103/48/8 104/50/8
f 107/43/15 105/8/15 114/51/15
f 26/19/16 113/55/16 105/8/16
f 109/53/15 13/11/15 112/54/15
f 106/56/16 111/42/16 13/11/16
f 119/57/9 121/58/9 120/57/9
f 122/58/8 117/59/8 118/60/8
f 120/57/7 116/60/7 115/59/7
f 121/58/1 118/60/1 116/60/1
f 119/57/4 115/59/4 117/59/4
f 129/58/9 127/57/9 128/57/9
f 125/59/7 130/58/7 126/60/7
f 124/60/8 128/57/8 123/59/8
f 126/60/1 129/58/1 124/60/1
f 123/59/4 127/57/4 125/59/4
f 132/61/10 133/62/10 131/63/10
f 135/64/9 137/65/9 136/64/9
f 138/65/8 133/62/8 134/66/8
f 136/64/7 132/61/7 131/63/7
f 137/65/1 134/66/1 132/61/1
f 135/64/4 131/63/4 133/62/4
f 7/1/1 10/1/1 1/2/1
f 5/3/1 12/3/1 9/4/1
f 5/5/2 105/8/2 91/6/2
f 6/7/3 11/7/3 91/6/3
f 7/1/2 13/11/2 90/9/2
f 9/10/3 90/9/3 13/11/3
f 4/12/1 3/12/1 11/7/1
f 14/13/4 23/14/4 20/14/4
f 22/15/4 25/16/4 18/16/4
f 27/17/5 26/19/5 18/18/5
f 26/19/6 27/17/6 24/20/6
f 92/21/5 106/56/5 20/14/5
f 21/22/6 106/56/6 92/21/6
f 24/20/4 16/23/4 17/23/4
f 29/24/7 34/27/7 33/25/7
f 31/24/1 35/27/1 34/27/1
f 28/26/4 33/25/4 32/25/4
f 30/26/8 32/25/8 35/27/8
f 41/28/7 42/31/7 37/29/7
f 42/31/4 43/31/4 39/29/4
f 40/28/1 41/28/1 36/30/1
f 43/31/8 40/28/8 38/30/8
f 49/25/8 50/33/8 45/32/8
f 50/33/1 51/33/1 47/32/1
f 48/25/4 49/25/4 44/26/4
f 51/33/7 48/25/7 46/26/7
f 53/29/8 58/31/8 57/28/8
f 55/29/4 59/31/4 58/31/4
f 52/30/1 57/28/1 56/28/1
f 54/30/7 56/28/7 59/31/7
f 64/34/4 80/34/4 75/35/4
f 80/36/9 85/37/9 84/37/9
f 64/34/8 63/35/8 60/38/8
f 66/37/7 61/41/7 62/40/7
f 72/38/10 60/38/10 63/35/10
f 64/34/9 67/39/9 85/39/9
f 81/36/4 77/40/4 74/40/4
f 82/34/4 79/35/4 76/35/4
f 65/36/4 62/40/4 78/40/4
f 68/38/10 71/38/10 76/35/10
f 70/41/10 73/41/10 74/40/10
f 67/39/1 60/38/1 72/38/1
f 82/36/9 83/37/9 66/37/9
f 81/34/9 84/39/9 83/39/9
f 66/37/1 83/37/1 69/41/1
f 84/39/1 71/38/1 68/38/1
f 85/37/1 73/41/1 70/41/1
f 82/34/11 83/39/11 68/38/11
f 78/35/12 69/38/12 83/39/12
f 81/34/11 84/39/11 70/38/11
f 76/35/12 71/38/12 84/39/12
f 80/34/11 85/39/11 72/38/11
f 74/35/12 73/38/12 85/39/12
f 61/41/10 69/41/10 78/40/10
f 97/42/7 100/51/7 93/43/7
f 99/45/7 87/67/7 86/46/7
f 88/48/7 98/68/7 95/49/7
f 91/6/13 27/17/13 93/43/13
f 99/52/14 94/69/14 27/17/14
f 90/9/13 92/21/13 95/53/13
f 97/42/14 96/44/14 92/21/14
f 107/43/8 114/51/8 111/42/8
f 101/46/8 102/67/8 113/45/8
f 109/49/8 112/68/8 103/48/8
f 107/43/15 26/19/15 105/8/15
f 26/19/16 108/70/16 113/55/16
f 109/53/15 106/56/15 13/11/15
f 106/56/16 110/44/16 111/42/16
f 119/57/9 122/58/9 121/58/9
f 122/58/8 119/57/8 117/59/8
f 120/57/7 121/58/7 116/60/7
f 121/58/1 122/58/1 118/60/1
f 119/57/4 120/57/4 115/59/4
f 129/58/9 130/58/9 127/57/9
f 125/59/7 127/57/7 130/58/7
f 124/60/8 129/58/8 128/57/8
f 126/60/1 130/58/1 129/58/1
f 123/59/4 128/57/4 127/57/4
f 132/61/10 134/66/10 133/62/10
f 135/64/9 138/65/9 137/65/9
f 138/65/8 135/64/8 133/62/8
f 136/64/7 137/65/7 132/61/7
f 137/65/1 138/65/1 134/66/1
f 135/64/4 136/64/4 131/63/4
