# Blender 4.4.0
# www.blender.org
mtllib Prop_Ladder_02.mtl
o Prop_Ladder_02
v -0.315942 0.064600 0.322537
v -0.315942 0.064600 0.387884
v -0.435432 0.064600 0.387884
v -0.435432 0.064600 0.322537
v -0.449987 0.001412 0.314570
v -0.449987 0.001412 0.395851
v -0.301387 -0.001412 0.395851
v -0.301387 -0.001412 0.314570
v -0.301374 0.064600 0.395851
v -0.450000 0.064600 0.314570
v -0.301374 0.064600 0.314570
v -0.450000 0.064600 0.395851
v -0.078529 1.272464 0.387884
v -0.078529 1.272464 0.322537
v -0.197322 1.272464 0.322537
v -0.197322 1.272464 0.387884
v -0.315942 0.064600 -0.387884
v -0.315942 0.064600 -0.322537
v -0.435432 0.064600 -0.322537
v -0.435432 0.064600 -0.387884
v -0.449987 0.001412 -0.395851
v -0.449987 0.001412 -0.314570
v -0.301387 -0.001412 -0.314570
v -0.301387 -0.001412 -0.395851
v -0.301374 0.064600 -0.314570
v -0.450000 0.064600 -0.395851
v -0.301374 0.064600 -0.395851
v -0.450000 0.064600 -0.314570
v -0.197322 1.272464 -0.387884
v -0.197322 1.272464 -0.322537
v -0.078529 1.272464 -0.322537
v -0.078529 1.272464 -0.387884
v 0.315942 0.064600 0.322537
v 0.315942 0.064600 0.387884
v 0.435432 0.064600 0.387884
v 0.435432 0.064600 0.322537
v 0.449987 0.001412 0.314570
v 0.449987 0.001412 0.395851
v 0.301387 -0.001412 0.395851
v 0.301387 -0.001412 0.314570
v 0.301374 0.064600 0.395851
v 0.450000 0.064600 0.314570
v 0.301374 0.064600 0.314570
v 0.450000 0.064600 0.395851
v 0.078530 1.272464 0.387884
v 0.078530 1.272464 0.322537
v 0.197322 1.272464 0.322537
v 0.197322 1.272464 0.387884
v 0.315942 0.064600 -0.387884
v 0.315942 0.064600 -0.322537
v 0.435432 0.064600 -0.322537
v 0.435432 0.064600 -0.387884
v 0.449987 0.001412 -0.395851
v 0.449987 0.001412 -0.314570
v 0.301387 -0.001412 -0.314570
v 0.301387 -0.001412 -0.395851
v 0.301374 0.064600 -0.314570
v 0.450000 0.064600 -0.395851
v 0.301374 0.064600 -0.395851
v 0.450000 0.064600 -0.314570
v 0.197322 1.272464 -0.387884
v 0.197322 1.272464 -0.322537
v 0.078530 1.272464 -0.322537
v 0.078530 1.272464 -0.387884
v -0.398457 0.246224 0.327314
v -0.281537 0.246224 0.327314
v -0.398457 0.246224 -0.322537
v -0.281537 0.246224 -0.322537
v -0.394096 0.268590 -0.322537
v -0.394096 0.268590 0.327314
v -0.277176 0.268590 0.327314
v -0.277176 0.268590 -0.322537
v -0.329239 0.597073 0.325294
v -0.211984 0.597073 0.325294
v -0.329239 0.597073 -0.321883
v -0.211984 0.597073 -0.321883
v -0.324877 0.619438 -0.321883
v -0.324877 0.619438 0.325294
v -0.207623 0.619438 0.325294
v -0.207623 0.619438 -0.321883
v -0.258948 0.947817 0.324773
v -0.143995 0.947817 0.324773
v -0.258948 0.947817 -0.322537
v -0.143995 0.947817 -0.322537
v -0.254586 0.970183 -0.322537
v -0.254586 0.970183 0.324773
v -0.139633 0.970183 0.324773
v -0.139633 0.970183 -0.322537
v 0.398457 0.246224 0.327314
v 0.281537 0.246224 0.327314
v 0.398457 0.246224 -0.322537
v 0.281537 0.246224 -0.322537
v 0.394096 0.268590 -0.322537
v 0.394096 0.268590 0.327314
v 0.277176 0.268590 0.327314
v 0.277176 0.268590 -0.322537
v 0.329239 0.597073 0.325294
v 0.211984 0.597073 0.325294
v 0.329239 0.597073 -0.322537
v 0.211984 0.597073 -0.322537
v 0.324877 0.619438 -0.322537
v 0.324877 0.619438 0.325294
v 0.207623 0.619438 0.325294
v 0.207623 0.619438 -0.322537
v 0.258948 0.947817 0.324773
v 0.143995 0.947817 0.324773
v 0.258948 0.947817 -0.322537
v 0.143995 0.947817 -0.322537
v 0.254586 0.970183 -0.322537
v 0.254586 0.970183 0.324773
v 0.139633 0.970183 0.324773
v 0.139633 0.970183 -0.322537
v -0.203486 1.269884 0.400000
v -0.203486 1.269884 -0.400000
v -0.203486 1.298588 -0.400000
v -0.203486 1.298588 0.400000
v 0.203486 1.269884 0.400000
v 0.203486 1.269884 -0.400000
v 0.203486 1.298588 -0.400000
v 0.203486 1.298588 0.400000
vn -0.0000 -0.0000 1.0000
vn -0.0000 -0.0000 -1.0000
vn -1.0000 -0.0002 -0.0000
vn 1.0000 -0.0002 -0.0000
vn -0.0000 1.0000 -0.0000
vn -0.0190 -0.9998 -0.0000
vn -0.9811 0.1934 -0.0000
vn 0.9812 -0.1929 -0.0000
vn 0.0190 -0.9998 -0.0000
vn 0.9811 0.1934 -0.0000
vn -0.9812 -0.1929 -0.0000
vn -0.0000 -1.0000 -0.0000
vn 0.9815 -0.1914 -0.0000
vn -0.9815 0.1914 -0.0000
vn -0.9815 -0.1914 -0.0000
vn 0.9815 0.1914 -0.0000
vn -1.0000 -0.0000 -0.0000
vn 1.0000 -0.0000 -0.0000
vt 0.461442 0.650051
vt 0.461936 0.771032
vt 0.461441 0.771032
vt 0.461936 0.644644
vt 0.461936 0.644645
vt 0.211592 0.421206
vt 0.213069 0.510102
vt 0.212334 0.421206
vt 0.213806 0.510102
vt 0.461936 0.771031
vt 0.461441 0.771031
vt 0.461442 0.650051
vt 0.464434 0.650051
vt 0.463940 0.771032
vt 0.463940 0.644645
vt 0.463940 0.644644
vt 0.464434 0.771032
vt 0.215517 0.510102
vt 0.216994 0.421206
vt 0.216253 0.421206
vt 0.463940 0.771031
vt 0.464434 0.650051
vt 0.464434 0.771031
vt 0.214780 0.510102
vt 0.858537 0.665181
vt 0.859136 0.665182
vt 0.858537 0.665182
vt 0.859159 0.693162
vt 0.858559 0.693162
vt 0.859136 0.665181
vt 0.858892 0.682420
vt 0.859493 0.682420
vt 0.858892 0.682420
vt 0.859515 0.710400
vt 0.858914 0.710400
vt 0.859493 0.682420
vt 0.859252 0.699652
vt 0.859841 0.699652
vt 0.859275 0.727633
vt 0.859864 0.727633
vt 0.862022 0.665182
vt 0.862622 0.665181
vt 0.862622 0.665182
vt 0.862599 0.693162
vt 0.862000 0.693162
vt 0.862022 0.665181
vt 0.861666 0.682420
vt 0.862267 0.682419
vt 0.862267 0.682420
vt 0.862245 0.710400
vt 0.861644 0.710400
vt 0.861666 0.682419
vt 0.861317 0.699652
vt 0.861907 0.699652
vt 0.861884 0.727633
vt 0.861295 0.727633
vt 0.835845 0.745405
vt 0.826696 0.653915
vt 0.826696 0.745405
vt 0.826696 0.653916
vt 0.835845 0.653916
vt 0.835845 0.653915
s 0
usemtl Texture_Map
f 6/1/1 9/2/1 12/3/1
f 5/1/2 11/2/2 8/4/2
f 6/1/3 10/3/3 5/1/3
f 8/4/4 9/2/4 7/5/4
f 11/2/5 12/3/5 9/2/5
f 8/4/6 6/1/6 5/1/6
f 19/6/7 29/7/7 20/6/7
f 2/8/1 16/7/1 3/6/1
f 3/6/7 15/7/7 4/6/7
f 1/8/2 15/7/2 14/9/2
f 22/1/1 25/10/1 28/11/1
f 21/12/2 27/10/2 24/4/2
f 22/1/3 26/11/3 21/12/3
f 24/4/4 25/10/4 23/4/4
f 27/10/5 28/11/5 25/10/5
f 24/4/6 22/1/6 21/12/6
f 17/8/2 29/7/2 32/9/2
f 17/8/8 31/9/8 18/8/8
f 18/8/1 30/7/1 19/6/1
f 1/8/8 13/9/8 2/8/8
f 38/13/1 41/14/1 39/15/1
f 43/14/2 37/13/2 40/16/2
f 42/17/4 38/13/4 37/13/4
f 41/14/3 40/16/3 39/15/3
f 44/17/5 43/14/5 41/14/5
f 38/13/9 40/16/9 37/13/9
f 61/18/10 51/19/10 52/19/10
f 48/18/1 34/20/1 35/19/1
f 47/18/10 35/19/10 36/19/10
f 33/20/2 47/18/2 36/19/2
f 54/13/1 57/21/1 55/16/1
f 59/21/2 53/22/2 56/16/2
f 58/23/4 54/13/4 53/22/4
f 57/21/3 56/16/3 55/16/3
f 60/23/5 59/21/5 57/21/5
f 54/13/9 56/16/9 53/22/9
f 49/20/2 61/18/2 52/19/2
f 63/24/11 49/20/11 50/20/11
f 62/18/1 50/20/1 51/19/1
f 45/24/11 33/20/11 34/20/11
f 67/25/12 66/26/12 65/27/12
f 71/28/5 69/29/5 70/29/5
f 68/30/13 71/28/13 66/26/13
f 65/27/14 69/29/14 67/25/14
f 75/31/12 74/32/12 73/33/12
f 79/34/5 77/35/5 78/35/5
f 76/36/13 79/34/13 74/32/13
f 73/33/14 77/35/14 75/31/14
f 83/37/12 82/38/12 81/37/12
f 86/39/5 88/40/5 85/39/5
f 84/38/13 87/40/13 82/38/13
f 81/37/14 85/39/14 83/37/14
f 90/41/12 91/42/12 89/43/12
f 93/44/5 95/45/5 94/44/5
f 95/45/15 92/46/15 90/41/15
f 93/44/16 89/43/16 91/42/16
f 98/47/12 99/48/12 97/49/12
f 101/50/5 103/51/5 102/50/5
f 103/51/15 100/52/15 98/47/15
f 101/50/16 97/49/16 99/48/16
f 106/53/12 107/54/12 105/54/12
f 109/55/5 111/56/5 110/55/5
f 111/56/15 108/53/15 106/53/15
f 109/55/16 105/54/16 107/54/16
f 119/57/2 114/58/2 115/59/2
f 113/60/17 115/59/17 114/58/17
f 120/57/1 113/60/1 117/61/1
f 119/57/18 117/61/18 118/62/18
f 113/60/12 118/62/12 117/61/12
f 119/57/5 116/59/5 120/57/5
f 6/1/1 7/5/1 9/2/1
f 5/1/2 10/3/2 11/2/2
f 6/1/3 12/3/3 10/3/3
f 8/4/4 11/2/4 9/2/4
f 11/2/5 10/3/5 12/3/5
f 8/4/6 7/5/6 6/1/6
f 19/6/7 30/7/7 29/7/7
f 2/8/1 13/9/1 16/7/1
f 3/6/7 16/7/7 15/7/7
f 1/8/2 4/6/2 15/7/2
f 22/1/1 23/4/1 25/10/1
f 21/12/2 26/11/2 27/10/2
f 22/1/3 28/11/3 26/11/3
f 24/4/4 27/10/4 25/10/4
f 27/10/5 26/11/5 28/11/5
f 24/4/6 23/4/6 22/1/6
f 17/8/2 20/6/2 29/7/2
f 17/8/8 32/9/8 31/9/8
f 18/8/1 31/9/1 30/7/1
f 1/8/8 14/9/8 13/9/8
f 38/13/1 44/17/1 41/14/1
f 43/14/2 42/17/2 37/13/2
f 42/17/4 44/17/4 38/13/4
f 41/14/3 43/14/3 40/16/3
f 44/17/5 42/17/5 43/14/5
f 38/13/9 39/15/9 40/16/9
f 61/18/10 62/18/10 51/19/10
f 48/18/1 45/24/1 34/20/1
f 47/18/10 48/18/10 35/19/10
f 33/20/2 46/24/2 47/18/2
f 54/13/1 60/23/1 57/21/1
f 59/21/2 58/23/2 53/22/2
f 58/23/4 60/23/4 54/13/4
f 57/21/3 59/21/3 56/16/3
f 60/23/5 58/23/5 59/21/5
f 54/13/9 55/16/9 56/16/9
f 49/20/2 64/24/2 61/18/2
f 63/24/11 64/24/11 49/20/11
f 62/18/1 63/24/1 50/20/1
f 45/24/11 46/24/11 33/20/11
f 67/25/12 68/30/12 66/26/12
f 71/28/5 72/28/5 69/29/5
f 68/30/13 72/28/13 71/28/13
f 65/27/14 70/29/14 69/29/14
f 75/31/12 76/36/12 74/32/12
f 79/34/5 80/34/5 77/35/5
f 76/36/13 80/34/13 79/34/13
f 73/33/14 78/35/14 77/35/14
f 83/37/12 84/38/12 82/38/12
f 86/39/5 87/40/5 88/40/5
f 84/38/13 88/40/13 87/40/13
f 81/37/14 86/39/14 85/39/14
f 90/41/12 92/46/12 91/42/12
f 93/44/5 96/45/5 95/45/5
f 95/45/15 96/45/15 92/46/15
f 93/44/16 94/44/16 89/43/16
f 98/47/12 100/52/12 99/48/12
f 101/50/5 104/51/5 103/51/5
f 103/51/15 104/51/15 100/52/15
f 101/50/16 102/50/16 97/49/16
f 106/53/12 108/53/12 107/54/12
f 109/55/5 112/56/5 111/56/5
f 111/56/15 112/56/15 108/53/15
f 109/55/16 110/55/16 105/54/16
f 119/57/2 118/62/2 114/58/2
f 113/60/17 116/59/17 115/59/17
f 120/57/1 116/59/1 113/60/1
f 119/57/18 120/57/18 117/61/18
f 113/60/12 114/58/12 118/62/12
f 119/57/5 115/59/5 116/59/5
