# Blender 4.4.0
# www.blender.org
mtllib Prop_Letterbox_01.mtl
o Prop_Letterbox_01
v -0.090946 1.048329 0.514568
v 0.090945 1.048329 0.514568
v -0.097916 1.041400 0.054868
v 0.097916 1.041400 0.054868
v -0.016235 1.286216 0.514568
v -0.090946 1.211954 0.514568
v -0.053926 1.276177 0.514568
v -0.080846 1.249419 0.514568
v 0.090945 1.211954 0.514568
v 0.016234 1.286216 0.514568
v 0.080846 1.249419 0.514568
v 0.053926 1.276177 0.514568
v -0.097916 1.041400 0.514568
v 0.097916 1.041400 0.514568
v -0.097916 1.212866 0.514568
v -0.087096 1.253005 0.514568
v -0.057534 1.282389 0.514568
v -0.017152 1.293145 0.514568
v 0.087096 1.253005 0.514568
v 0.097916 1.212866 0.514568
v 0.057534 1.282389 0.514568
v 0.017152 1.293145 0.514568
v -0.090946 1.048329 0.125146
v 0.090945 1.048329 0.125146
v -0.090946 1.211954 0.125146
v -0.080846 1.249419 0.125146
v -0.053926 1.276177 0.125146
v -0.016235 1.286216 0.125146
v 0.080846 1.249419 0.125146
v 0.090945 1.211954 0.125146
v 0.053926 1.276177 0.125146
v 0.016234 1.286216 0.125146
v -0.097916 1.041400 0.070796
v 0.097916 1.041400 0.070796
v -0.097916 1.212866 0.070796
v -0.087096 1.253005 0.070796
v -0.057534 1.282389 0.070796
v -0.017152 1.293145 0.070796
v 0.097916 1.212866 0.070796
v 0.087096 1.253005 0.070796
v 0.057534 1.282389 0.070796
v 0.017152 1.293145 0.070796
v 0.102700 1.041400 0.070796
v 0.102700 1.041400 0.054868
v -0.091385 1.255467 0.054868
v -0.102700 1.213492 0.054868
v -0.091385 1.255467 0.070796
v -0.060011 1.286653 0.054868
v -0.060011 1.286653 0.070796
v -0.017782 1.297900 0.054868
v -0.017782 1.297900 0.070796
v 0.102700 1.213492 0.070796
v 0.102700 1.213492 0.054868
v 0.091385 1.255467 0.054868
v 0.060010 1.286653 0.054868
v 0.017782 1.297900 0.054868
v -0.102700 1.041400 0.054868
v -0.102700 1.041400 0.070796
v -0.102700 1.213492 0.070796
v 0.091385 1.255467 0.070796
v 0.060010 1.286653 0.070796
v 0.017782 1.297900 0.070796
v -0.054868 0.000000 0.054868
v 0.054868 0.000000 0.054868
v -0.054868 0.000000 -0.054868
v 0.054868 0.000000 -0.054868
v -0.054868 1.443185 -0.054868
v -0.054868 1.443185 0.054868
v 0.054868 1.443185 0.054868
v 0.054868 1.443185 -0.054868
v -0.032455 0.971885 0.054868
v 0.032454 0.971885 0.054868
v -0.032455 1.041400 0.054868
v 0.032454 1.041400 0.054868
v -0.032455 1.041400 0.508174
v -0.032455 0.971885 0.508174
v 0.032454 0.971885 0.508174
v 0.032454 1.041400 0.508174
v -0.026880 0.737363 0.051057
v 0.026879 0.737363 0.051057
v -0.026880 0.813869 0.051057
v 0.026879 0.813869 0.051057
v -0.026880 0.979862 0.326728
v -0.026880 0.977152 0.452805
v 0.026879 0.977152 0.452805
v 0.026879 0.979862 0.326728
vn -0.0000 -1.0000 -0.0000
vn 0.7050 -0.7092 -0.0000
vn -0.9655 0.2603 -0.0000
vn -0.7050 0.7092 -0.0000
vn -0.2574 0.9663 -0.0000
vn -0.0000 -0.0000 1.0000
vn -1.0000 -0.0000 -0.0000
vn -0.2574 -0.9663 -0.0000
vn 0.2574 -0.9663 -0.0000
vn -0.0000 1.0000 -0.0000
vn 1.0000 -0.0000 -0.0000
vn -0.9655 -0.2603 -0.0000
vn 0.9655 -0.2603 -0.0000
vn -0.7050 -0.7092 -0.0000
vn 0.2574 0.9663 -0.0000
vn 0.7050 0.7092 -0.0000
vn 0.9655 0.2603 -0.0000
vn -0.0000 -0.0000 -1.0000
vn -0.0000 -0.8587 0.5125
vn -0.0000 0.8567 -0.5158
vt 0.486455 0.665145
vt 0.489499 0.665145
vt 0.465937 0.657324
vt 0.465550 0.651822
vt 0.465937 0.657323
vt 0.489573 0.665145
vt 0.451119 0.682752
vt 0.451354 0.695216
vt 0.451119 0.682752
vt 0.451996 0.704340
vt 0.451996 0.704340
vt 0.452873 0.707680
vt 0.489331 0.712159
vt 0.489573 0.703380
vt 0.489397 0.712706
vt 0.451119 0.629510
vt 0.486564 0.666684
vt 0.489391 0.666684
vt 0.486721 0.711362
vt 0.486455 0.703241
vt 0.486564 0.703038
vt 0.487083 0.718687
vt 0.486623 0.712159
vt 0.487139 0.717307
vt 0.487711 0.721077
vt 0.489234 0.711362
vt 0.489499 0.703241
vt 0.488871 0.718687
vt 0.488815 0.717307
vt 0.488244 0.721077
vt 0.488229 0.719537
vt 0.489391 0.703038
vt 0.465405 0.644119
vt 0.468021 0.644119
vt 0.468021 0.610476
vt 0.466947 0.659388
vt 0.467489 0.657323
vt 0.467489 0.657324
vt 0.466480 0.659387
vt 0.466480 0.659388
vt 0.465405 0.610476
vt 0.467876 0.651822
vt 0.487725 0.719537
vt 0.488910 0.719634
vt 0.488871 0.718687
vt 0.454496 0.704340
vt 0.453618 0.707680
vt 0.454496 0.704340
vt 0.455138 0.695216
vt 0.455373 0.682752
vt 0.455373 0.682752
vt 0.488253 0.722133
vt 0.489499 0.703241
vt 0.466947 0.659387
vt 0.455373 0.629510
vt 0.486381 0.665145
vt 0.486381 0.703380
vt 0.487044 0.719634
vt 0.487701 0.722133
vt 0.486557 0.712706
vt 0.487083 0.718687
vt 0.486455 0.703241
vt 0.233432 0.862098
vt 0.233467 0.862098
vt 0.233432 0.821318
vt 0.233467 0.821318
vt 0.233439 0.848780
vt 0.233460 0.850745
vt 0.233460 0.848780
vt 0.233439 0.850745
vt 0.233441 0.842153
vt 0.233458 0.848929
vt 0.233458 0.842153
vt 0.233441 0.849006
vt 0.233441 0.848929
vt 0.233458 0.849006
vt 0.233458 0.844315
vt 0.233441 0.844315
s 0
usemtl Texture_Map
f 3/1/1 34/2/1 33/1/1
f 7/3/2 26/4/2 27/5/2
f 4/2/1 43/6/1 34/2/1
f 15/7/3 36/8/3 35/9/3
f 16/8/4 37/10/4 36/8/4
f 17/11/5 38/12/5 37/10/5
f 40/13/6 52/14/6 60/15/6
f 13/16/7 35/9/7 33/16/7
f 1/17/6 14/2/6 2/18/6
f 8/19/6 15/20/6 6/21/6
f 8/19/6 17/22/6 16/23/6
f 7/24/6 18/25/6 17/22/6
f 11/26/6 20/27/6 19/13/6
f 11/26/6 21/28/6 12/29/6
f 12/29/6 22/30/6 10/31/6
f 1/17/6 15/20/6 13/1/6
f 2/18/6 20/27/6 9/32/6
f 27/5/6 26/4/6 25/33/6
f 9/34/7 24/35/7 2/35/7
f 10/36/8 31/37/8 12/38/8
f 7/3/9 28/39/9 5/40/9
f 2/35/10 23/41/10 1/41/10
f 6/33/11 23/41/11 25/33/11
f 11/42/12 30/34/12 9/34/12
f 8/4/13 25/33/13 26/4/13
f 10/31/6 18/25/6 5/43/6
f 12/38/14 29/42/14 11/42/14
f 40/13/6 61/44/6 41/45/6
f 41/46/15 22/47/15 21/48/15
f 40/49/16 21/48/16 19/49/16
f 39/50/17 19/49/17 20/51/17
f 41/45/6 62/52/6 42/30/6
f 39/53/6 43/6/6 52/14/6
f 5/40/1 32/54/1 10/36/1
f 34/55/11 20/51/11 14/55/11
f 33/16/1 14/55/1 13/16/1
f 44/6/11 52/14/11 43/6/11
f 22/47/10 38/12/10 18/12/10
f 53/14/17 60/15/17 52/14/17
f 54/15/16 61/44/16 60/15/16
f 55/44/15 62/52/15 61/44/15
f 58/56/7 46/57/7 57/56/7
f 49/58/5 50/59/5 48/58/5
f 47/60/4 48/58/4 45/60/4
f 59/57/3 45/60/3 46/57/3
f 37/61/6 51/59/6 49/58/6
f 33/1/1 57/56/1 3/1/1
f 36/23/6 49/58/6 47/60/6
f 36/23/6 59/57/6 35/62/6
f 62/52/10 50/59/10 51/59/10
f 35/62/6 58/56/6 33/1/6
f 46/57/18 56/52/18 53/14/18
f 38/25/6 62/52/6 51/59/6
f 69/63/10 67/64/10 68/64/10
f 66/65/11 69/63/11 64/65/11
f 63/66/7 67/64/7 65/66/7
f 64/65/6 68/64/6 63/66/6
f 77/67/6 75/68/6 76/69/6
f 72/67/1 76/69/1 71/69/1
f 74/70/11 77/67/11 72/67/11
f 71/69/7 75/68/7 73/68/7
f 80/71/19 84/72/19 79/73/19
f 80/71/11 86/74/11 85/75/11
f 79/73/7 83/76/7 81/77/7
f 81/77/20 86/74/20 82/78/20
f 65/66/18 70/63/18 66/65/18
f 3/1/1 4/2/1 34/2/1
f 7/3/2 8/4/2 26/4/2
f 4/2/1 44/6/1 43/6/1
f 15/7/3 16/8/3 36/8/3
f 16/8/4 17/11/4 37/10/4
f 17/11/5 18/12/5 38/12/5
f 40/13/6 39/53/6 52/14/6
f 13/16/7 15/7/7 35/9/7
f 1/17/6 13/1/6 14/2/6
f 8/19/6 16/23/6 15/20/6
f 8/19/6 7/24/6 17/22/6
f 7/24/6 5/43/6 18/25/6
f 11/26/6 9/32/6 20/27/6
f 11/26/6 19/13/6 21/28/6
f 12/29/6 21/28/6 22/30/6
f 1/17/6 6/21/6 15/20/6
f 2/18/6 14/2/6 20/27/6
f 25/33/6 23/41/6 24/35/6
f 24/35/6 30/34/6 25/33/6
f 30/34/6 29/42/6 31/37/6
f 25/33/6 30/34/6 32/54/6
f 31/37/6 32/54/6 30/34/6
f 32/54/6 28/39/6 25/33/6
f 28/39/6 27/5/6 25/33/6
f 9/34/7 30/34/7 24/35/7
f 10/36/8 32/54/8 31/37/8
f 7/3/9 27/5/9 28/39/9
f 2/35/10 24/35/10 23/41/10
f 6/33/11 1/41/11 23/41/11
f 11/42/12 29/42/12 30/34/12
f 8/4/13 6/33/13 25/33/13
f 10/31/6 22/30/6 18/25/6
f 12/38/14 31/37/14 29/42/14
f 40/13/6 60/15/6 61/44/6
f 41/46/15 42/47/15 22/47/15
f 40/49/16 41/46/16 21/48/16
f 39/50/17 40/49/17 19/49/17
f 41/45/6 61/44/6 62/52/6
f 39/53/6 34/2/6 43/6/6
f 5/40/1 28/39/1 32/54/1
f 34/55/11 39/50/11 20/51/11
f 33/16/1 34/55/1 14/55/1
f 44/6/11 53/14/11 52/14/11
f 22/47/10 42/47/10 38/12/10
f 53/14/17 54/15/17 60/15/17
f 54/15/16 55/44/16 61/44/16
f 55/44/15 56/52/15 62/52/15
f 58/56/7 59/57/7 46/57/7
f 49/58/5 51/59/5 50/59/5
f 47/60/4 49/58/4 48/58/4
f 59/57/3 47/60/3 45/60/3
f 37/61/6 38/25/6 51/59/6
f 33/1/1 58/56/1 57/56/1
f 36/23/6 37/61/6 49/58/6
f 36/23/6 47/60/6 59/57/6
f 62/52/10 56/52/10 50/59/10
f 35/62/6 59/57/6 58/56/6
f 3/1/18 57/56/18 46/57/18
f 46/57/18 45/60/18 48/58/18
f 48/58/18 50/59/18 46/57/18
f 50/59/18 56/52/18 46/57/18
f 56/52/18 55/44/18 53/14/18
f 55/44/18 54/15/18 53/14/18
f 53/14/18 44/6/18 4/2/18
f 4/2/18 3/1/18 46/57/18
f 53/14/18 4/2/18 46/57/18
f 38/25/6 42/30/6 62/52/6
f 69/63/10 70/63/10 67/64/10
f 66/65/11 70/63/11 69/63/11
f 63/66/7 68/64/7 67/64/7
f 64/65/6 69/63/6 68/64/6
f 77/67/6 78/70/6 75/68/6
f 72/67/1 77/67/1 76/69/1
f 74/70/11 78/70/11 77/67/11
f 71/69/7 76/69/7 75/68/7
f 80/71/19 85/75/19 84/72/19
f 80/71/11 82/78/11 86/74/11
f 79/73/7 84/72/7 83/76/7
f 81/77/20 83/76/20 86/74/20
f 65/66/18 67/64/18 70/63/18
o Prop_Letterbox_Door_01
v -0.097916 1.041400 0.514568
v 0.097916 1.041400 0.514568
v -0.094250 1.212380 0.514568
v -0.083812 1.251099 0.514568
v -0.055644 1.279099 0.514568
v -0.016672 1.289478 0.514568
v 0.083812 1.251099 0.514568
v 0.094250 1.212380 0.514568
v 0.055644 1.279099 0.514568
v 0.016672 1.289478 0.514568
v -0.097916 1.041400 0.522407
v 0.097916 1.041400 0.522407
v -0.094250 1.212380 0.522407
v -0.083812 1.251099 0.522407
v -0.055644 1.279099 0.522407
v -0.016672 1.289478 0.522407
v 0.083812 1.251099 0.522407
v 0.094250 1.212380 0.522407
v 0.055644 1.279099 0.522407
v 0.016672 1.289478 0.522407
v 0.094250 1.053024 0.514568
v 0.094250 1.053024 0.522407
v -0.094250 1.053024 0.514568
v -0.094250 1.053024 0.522407
v -0.097916 1.041400 0.527015
v 0.097916 1.041400 0.527015
v 0.097916 1.049357 0.527015
v -0.097916 1.049357 0.527015
v 0.030475 1.211743 0.522794
v 0.042294 1.211743 0.522794
v 0.030475 1.224562 0.522794
v 0.042294 1.224562 0.522794
v 0.000000 1.211743 0.536034
v 0.000000 1.224562 0.536034
v 0.030475 1.211743 0.529927
v 0.024368 1.211743 0.536034
v 0.024368 1.224562 0.536034
v 0.030475 1.224562 0.529927
v -0.030475 1.211743 0.522794
v -0.042294 1.211743 0.522794
v -0.030475 1.224562 0.522794
v -0.042294 1.224562 0.522794
v -0.030475 1.211743 0.529927
v -0.024368 1.211743 0.536034
v -0.024368 1.224562 0.536034
v -0.030475 1.224562 0.529927
v 0.029475 1.211743 0.521794
v 0.042294 1.211743 0.521794
v 0.029475 1.224562 0.521794
v 0.042294 1.224562 0.521794
v 0.000000 1.211743 0.535034
v 0.000000 1.224562 0.535034
v 0.029475 1.211743 0.529513
v 0.023954 1.211743 0.535034
v 0.023954 1.224562 0.535034
v 0.029475 1.224562 0.529513
v -0.029475 1.211743 0.521794
v -0.042294 1.211743 0.521794
v -0.029475 1.224562 0.521794
v -0.042294 1.224562 0.521794
v -0.029475 1.211743 0.529513
v -0.023954 1.211743 0.535034
v -0.023954 1.224562 0.535034
v -0.029475 1.224562 0.529513
v -0.097916 1.212866 0.514568
v -0.087096 1.253005 0.514568
v -0.057534 1.282389 0.514568
v -0.017152 1.293145 0.514568
v 0.087096 1.253005 0.514568
v 0.097916 1.212866 0.514568
v 0.057534 1.282389 0.514568
v 0.017152 1.293145 0.514568
v -0.097916 1.049357 0.514568
v 0.097916 1.049357 0.514568
v -0.097916 1.212866 0.522407
v -0.087096 1.253005 0.522407
v -0.057534 1.282389 0.522407
v -0.017152 1.293145 0.522407
v 0.087096 1.253005 0.522407
v 0.097916 1.212866 0.522407
v 0.057534 1.282389 0.522407
v 0.017152 1.293145 0.522407
v -0.097916 1.049357 0.522407
v 0.097916 1.049357 0.522407
v -0.094250 1.212380 0.515181
v -0.083812 1.251099 0.515181
v -0.055644 1.279099 0.515181
v -0.016672 1.289478 0.515181
v 0.083812 1.251099 0.515181
v 0.094250 1.212380 0.515181
v 0.055644 1.279099 0.515181
v 0.016672 1.289478 0.515181
v -0.094250 1.053024 0.515181
v 0.094250 1.053024 0.515181
v -0.094250 1.212380 0.521795
v -0.083812 1.251099 0.521795
v -0.055644 1.279099 0.521795
v -0.016672 1.289478 0.521795
v 0.083812 1.251099 0.521795
v 0.094250 1.212380 0.521795
v 0.055644 1.279099 0.521795
v 0.016672 1.289478 0.521795
v -0.094250 1.053024 0.521795
v 0.094250 1.053024 0.521795
vn 1.0000 -0.0000 -0.0000
vn -0.7050 -0.7092 -0.0000
vn 0.9655 0.2603 -0.0000
vn -0.9655 0.2603 -0.0000
vn 0.7050 0.7092 -0.0000
vn -0.7050 0.7092 -0.0000
vn -0.0000 1.0000 -0.0000
vn 0.2574 0.9663 -0.0000
vn -0.2574 0.9663 -0.0000
vn -0.0000 -1.0000 -0.0000
vn -1.0000 -0.0000 -0.0000
vn -0.0000 -0.0000 1.0000
vn 0.7071 -0.0000 0.7071
vn -0.7071 -0.0000 0.7071
vn -0.0000 -0.0000 -1.0000
vn -0.7071 -0.0000 -0.7071
vn 0.7071 -0.0000 -0.7071
vn -0.2574 -0.9663 -0.0000
vn 0.9655 -0.2603 -0.0000
vn 0.7050 -0.7092 -0.0000
vn 0.2574 -0.9663 -0.0000
vn -0.9655 -0.2603 -0.0000
vt 0.482006 0.654655
vt 0.482006 0.647957
vt 0.482006 0.648106
vt 0.484581 0.655500
vt 0.485064 0.654497
vt 0.485064 0.654349
vt 0.485121 0.656325
vt 0.485307 0.652778
vt 0.485307 0.654675
vt 0.481943 0.654675
vt 0.482129 0.654427
vt 0.482129 0.656325
vt 0.485307 0.646058
vt 0.485307 0.647955
vt 0.484613 0.657533
vt 0.485121 0.654427
vt 0.482637 0.655635
vt 0.482637 0.657533
vt 0.483330 0.657974
vt 0.483920 0.656077
vt 0.483920 0.657974
vt 0.484613 0.655635
vt 0.483330 0.656077
vt 0.485307 0.647628
vt 0.481943 0.645730
vt 0.481943 0.647628
vt 0.481943 0.646058
vt 0.481943 0.647955
vt 0.485307 0.645730
vt 0.481943 0.652778
vt 0.485307 0.644942
vt 0.481943 0.644615
vt 0.485307 0.644615
vt 0.481943 0.644942
vt 0.484351 0.786812
vt 0.484148 0.787339
vt 0.484148 0.786812
vt 0.484148 0.785085
vt 0.484043 0.783607
vt 0.484148 0.785612
vt 0.484043 0.784134
vt 0.483625 0.783607
vt 0.483102 0.787339
vt 0.482899 0.786812
vt 0.483102 0.786812
vt 0.483102 0.785085
vt 0.483102 0.785612
vt 0.483206 0.783607
vt 0.483206 0.784134
vt 0.484131 0.787581
vt 0.484351 0.787054
vt 0.484131 0.787054
vt 0.484131 0.785186
vt 0.484131 0.785713
vt 0.484036 0.783849
vt 0.484036 0.784376
vt 0.483625 0.783849
vt 0.482899 0.787054
vt 0.483119 0.787581
vt 0.483119 0.787054
vt 0.483119 0.785186
vt 0.483214 0.783849
vt 0.483119 0.785713
vt 0.483214 0.784376
vt 0.484351 0.787581
vt 0.484351 0.787339
vt 0.483625 0.784134
vt 0.483625 0.784376
vt 0.482899 0.787339
vt 0.482899 0.787581
vt 0.482185 0.656246
vt 0.482669 0.657397
vt 0.483339 0.657824
vt 0.485064 0.656246
vt 0.485244 0.654655
vt 0.484581 0.657397
vt 0.485244 0.648106
vt 0.483911 0.657824
vt 0.482185 0.654349
vt 0.482006 0.652758
vt 0.482669 0.655500
vt 0.483911 0.655926
vt 0.482006 0.646208
vt 0.485244 0.646208
vt 0.485244 0.652758
vt 0.483339 0.655926
vt 0.483888 0.611562
vt 0.484021 0.611245
vt 0.484070 0.610807
vt 0.485244 0.652906
vt 0.483339 0.656075
vt 0.482006 0.652906
vt 0.484581 0.655648
vt 0.485244 0.654507
vt 0.482006 0.654507
vt 0.483339 0.657676
vt 0.482185 0.656098
vt 0.485244 0.646357
vt 0.482185 0.654497
vt 0.482669 0.657249
vt 0.483911 0.656075
vt 0.482669 0.655648
vt 0.485064 0.656098
vt 0.482006 0.646357
vt 0.484581 0.657249
vt 0.485244 0.647957
vt 0.483911 0.657676
vt 0.484070 0.609005
vt 0.483180 0.609005
vt 0.483180 0.610807
vt 0.483229 0.611245
vt 0.483362 0.611562
vt 0.483546 0.611679
vt 0.483704 0.611679
s 0
usemtl Texture_Map
f 89/79/21 179/80/21 109/81/21
f 105/82/22 185/83/22 103/84/22
f 155/85/23 166/86/23 156/87/23
f 151/88/24 162/89/24 152/90/24
f 156/87/21 170/91/21 160/92/21
f 157/93/25 165/94/25 155/85/25
f 152/90/26 163/95/26 153/96/26
f 154/97/27 168/98/27 158/99/27
f 158/99/28 167/100/28 157/93/28
f 153/96/29 164/101/29 154/97/29
f 88/102/30 97/103/30 87/104/30
f 87/104/31 169/105/31 159/106/31
f 160/92/21 98/107/21 88/102/21
f 159/106/31 161/108/31 151/88/31
f 169/105/27 113/109/27 170/91/27
f 113/109/32 111/110/32 112/111/32
f 97/103/31 114/112/31 169/105/31
f 98/107/30 111/110/30 97/103/30
f 170/91/21 112/111/21 98/107/21
f 116/113/32 117/114/32 115/115/32
f 117/114/21 121/116/21 115/115/21
f 122/117/33 124/118/33 123/119/33
f 123/119/32 119/120/32 122/117/32
f 127/121/32 126/122/32 125/123/32
f 129/124/31 127/121/31 125/123/31
f 132/125/34 130/126/34 131/127/34
f 119/120/32 131/127/32 130/126/32
f 135/128/35 134/129/35 133/130/35
f 139/131/31 135/128/31 133/130/31
f 142/132/36 140/133/36 141/134/36
f 137/135/35 141/134/35 140/133/35
f 144/136/35 145/137/35 143/138/35
f 145/137/21 147/139/21 143/138/21
f 148/140/37 150/141/37 149/142/37
f 149/142/35 137/135/35 148/140/35
f 115/115/30 134/129/30 116/113/30
f 116/113/21 136/143/21 118/144/21
f 117/114/27 136/143/27 135/128/27
f 123/119/27 142/132/27 141/134/27
f 122/117/30 139/131/30 121/116/30
f 119/120/30 140/133/30 122/117/30
f 120/145/27 141/134/27 138/146/27
f 115/115/30 139/131/30 133/130/30
f 117/114/27 142/132/27 124/118/27
f 125/123/30 144/136/30 143/138/30
f 128/147/31 144/136/31 126/122/31
f 127/121/27 146/148/27 128/147/27
f 131/127/27 150/141/27 132/125/27
f 130/126/30 147/139/30 148/140/30
f 119/120/30 148/140/30 137/135/30
f 120/145/27 149/142/27 131/127/27
f 125/123/30 147/139/30 129/124/30
f 127/121/27 150/141/27 145/137/27
f 87/104/35 160/92/35 88/102/35
f 90/149/35 151/88/35 152/90/35
f 90/149/35 153/96/35 91/150/35
f 91/150/35 154/97/35 92/151/35
f 93/152/35 156/87/35 94/153/35
f 93/152/35 157/93/35 155/85/35
f 95/154/35 158/99/35 157/93/35
f 109/81/35 151/88/35 89/79/35
f 107/155/35 156/87/35 160/92/35
f 92/151/35 158/99/35 96/156/35
f 100/157/32 161/108/32 99/158/32
f 100/157/32 163/95/32 162/89/32
f 101/159/32 164/101/32 163/95/32
f 103/84/32 166/86/32 165/94/32
f 103/84/32 167/100/32 105/82/32
f 105/82/32 168/98/32 106/160/32
f 110/161/32 161/108/32 169/105/32
f 108/162/32 166/86/32 104/163/32
f 106/160/32 164/101/32 102/164/32
f 110/161/32 170/91/32 108/162/32
f 107/155/35 159/106/35 109/81/35
f 177/165/35 175/166/35 176/167/35
f 186/168/32 184/169/32 181/170/32
f 106/160/38 187/171/38 105/82/38
f 107/155/31 176/172/31 94/153/31
f 90/149/39 171/173/39 89/79/39
f 110/161/21 181/170/21 99/158/21
f 96/156/30 174/174/30 92/151/30
f 91/150/40 172/175/40 90/149/40
f 104/163/31 190/176/31 108/162/31
f 99/158/39 182/177/39 100/157/39
f 92/151/41 173/178/41 91/150/41
f 102/164/30 188/179/30 106/160/30
f 100/157/40 183/180/40 101/159/40
f 94/153/42 175/181/42 93/152/42
f 108/162/27 189/182/27 110/161/27
f 101/159/41 184/169/41 102/164/41
f 93/152/22 177/183/22 95/154/22
f 109/81/27 180/184/27 107/155/27
f 103/84/42 186/168/42 104/163/42
f 95/154/38 178/185/38 96/156/38
f 89/79/21 171/173/21 179/80/21
f 105/82/22 187/171/22 185/83/22
f 155/85/23 165/94/23 166/86/23
f 151/88/24 161/108/24 162/89/24
f 156/87/21 166/86/21 170/91/21
f 157/93/25 167/100/25 165/94/25
f 152/90/26 162/89/26 163/95/26
f 154/97/27 164/101/27 168/98/27
f 158/99/28 168/98/28 167/100/28
f 153/96/29 163/95/29 164/101/29
f 88/102/30 98/107/30 97/103/30
f 87/104/31 97/103/31 169/105/31
f 160/92/21 170/91/21 98/107/21
f 159/106/31 169/105/31 161/108/31
f 169/105/27 114/112/27 113/109/27
f 113/109/32 114/112/32 111/110/32
f 97/103/31 111/110/31 114/112/31
f 98/107/30 112/111/30 111/110/30
f 170/91/21 113/109/21 112/111/21
f 116/113/32 118/144/32 117/114/32
f 117/114/21 124/118/21 121/116/21
f 122/117/33 121/116/33 124/118/33
f 123/119/32 120/145/32 119/120/32
f 127/121/32 128/147/32 126/122/32
f 129/124/31 132/125/31 127/121/31
f 132/125/34 129/124/34 130/126/34
f 119/120/32 120/145/32 131/127/32
f 135/128/35 136/143/35 134/129/35
f 139/131/31 142/132/31 135/128/31
f 142/132/36 139/131/36 140/133/36
f 137/135/35 138/146/35 141/134/35
f 144/136/35 146/148/35 145/137/35
f 145/137/21 150/141/21 147/139/21
f 148/140/37 147/139/37 150/141/37
f 149/142/35 138/146/35 137/135/35
f 115/115/30 133/130/30 134/129/30
f 116/113/21 134/129/21 136/143/21
f 117/114/27 118/144/27 136/143/27
f 123/119/27 124/118/27 142/132/27
f 122/117/30 140/133/30 139/131/30
f 119/120/30 137/135/30 140/133/30
f 120/145/27 123/119/27 141/134/27
f 115/115/30 121/116/30 139/131/30
f 117/114/27 135/128/27 142/132/27
f 125/123/30 126/122/30 144/136/30
f 128/147/31 146/148/31 144/136/31
f 127/121/27 145/137/27 146/148/27
f 131/127/27 149/142/27 150/141/27
f 130/126/30 129/124/30 147/139/30
f 119/120/30 130/126/30 148/140/30
f 120/145/27 138/146/27 149/142/27
f 125/123/30 143/138/30 147/139/30
f 127/121/27 132/125/27 150/141/27
f 87/104/35 159/106/35 160/92/35
f 90/149/35 89/79/35 151/88/35
f 90/149/35 152/90/35 153/96/35
f 91/150/35 153/96/35 154/97/35
f 93/152/35 155/85/35 156/87/35
f 93/152/35 95/154/35 157/93/35
f 95/154/35 96/156/35 158/99/35
f 109/81/35 159/106/35 151/88/35
f 107/155/35 94/153/35 156/87/35
f 92/151/35 154/97/35 158/99/35
f 100/157/32 162/89/32 161/108/32
f 100/157/32 101/159/32 163/95/32
f 101/159/32 102/164/32 164/101/32
f 103/84/32 104/163/32 166/86/32
f 103/84/32 165/94/32 167/100/32
f 105/82/32 167/100/32 168/98/32
f 110/161/32 99/158/32 161/108/32
f 108/162/32 170/91/32 166/86/32
f 106/160/32 168/98/32 164/101/32
f 110/161/32 169/105/32 170/91/32
f 107/155/35 160/92/35 159/106/35
f 176/167/35 180/186/35 179/187/35
f 179/187/35 171/188/35 176/167/35
f 171/188/35 172/189/35 173/190/35
f 176/167/35 171/188/35 174/191/35
f 173/190/35 174/191/35 171/188/35
f 174/191/35 178/192/35 176/167/35
f 178/192/35 177/165/35 176/167/35
f 189/182/32 190/176/32 186/168/32
f 186/168/32 185/83/32 187/171/32
f 187/171/32 188/179/32 186/168/32
f 188/179/32 184/169/32 186/168/32
f 184/169/32 183/180/32 181/170/32
f 183/180/32 182/177/32 181/170/32
f 181/170/32 189/182/32 186/168/32
f 106/160/38 188/179/38 187/171/38
f 107/155/31 180/184/31 176/172/31
f 90/149/39 172/175/39 171/173/39
f 110/161/21 189/182/21 181/170/21
f 96/156/30 178/185/30 174/174/30
f 91/150/40 173/178/40 172/175/40
f 104/163/31 186/168/31 190/176/31
f 99/158/39 181/170/39 182/177/39
f 92/151/41 174/174/41 173/178/41
f 102/164/30 184/169/30 188/179/30
f 100/157/40 182/177/40 183/180/40
f 94/153/42 176/172/42 175/181/42
f 108/162/27 190/176/27 189/182/27
f 101/159/41 183/180/41 184/169/41
f 93/152/22 175/181/22 177/183/22
f 109/81/27 179/80/27 180/184/27
f 103/84/42 185/83/42 186/168/42
f 95/154/38 177/183/38 178/185/38
