# Blender 4.4.0
# www.blender.org
mtllib Prop_Tire_Pile_01.mtl
o Prop_Tire_Pile_01
v 0.147521 0.016265 -0.168891
v -0.067298 0.016265 -0.168891
v -0.253338 0.016265 -0.061481
v -0.360748 0.016265 0.124558
v -0.360748 0.016265 0.339378
v -0.253338 0.016265 0.525418
v -0.067298 0.016265 0.632827
v 0.147521 0.016265 0.632827
v 0.333561 0.016265 0.525418
v 0.440971 0.016265 0.339378
v 0.440971 0.016265 0.124558
v 0.333561 0.016265 -0.061481
v 0.147521 0.286265 -0.168891
v -0.067298 0.286265 -0.168891
v -0.253338 0.286265 -0.061481
v -0.360748 0.286265 0.124558
v -0.360748 0.286265 0.339378
v -0.253338 0.286265 0.525418
v -0.067298 0.286265 0.632827
v 0.147521 0.286265 0.632827
v 0.333561 0.286265 0.525418
v 0.440971 0.286265 0.339378
v 0.440971 0.286265 0.124558
v 0.333561 0.286265 -0.061481
v 0.139064 -0.001163 -0.137327
v -0.058841 -0.001163 -0.137327
v -0.230231 -0.001163 -0.038375
v -0.329184 -0.001163 0.133016
v -0.329184 -0.001163 0.330921
v -0.230231 -0.001163 0.502311
v -0.058841 -0.001163 0.601264
v 0.139064 -0.001163 0.601264
v 0.310454 -0.001163 0.502311
v 0.409407 -0.001163 0.330921
v 0.409407 -0.001163 0.133016
v 0.310454 -0.001163 -0.038375
v 0.139064 0.303692 -0.137327
v -0.058841 0.303692 -0.137327
v -0.230231 0.303692 -0.038375
v -0.329184 0.303692 0.133016
v -0.329184 0.303692 0.330921
v -0.230231 0.303692 0.502311
v -0.058841 0.303692 0.601264
v 0.139064 0.303692 0.601264
v 0.310454 0.303692 0.502311
v 0.409407 0.303692 0.330921
v 0.409407 0.303692 0.133016
v 0.310454 0.303692 -0.038375
v 0.128865 0.047425 -0.099265
v -0.048642 0.047425 -0.099265
v -0.202368 0.047425 -0.010511
v -0.291121 0.047425 0.143215
v -0.291121 0.047425 0.320722
v -0.202368 0.047425 0.474448
v -0.048642 0.047425 0.563201
v 0.128865 0.047425 0.563201
v 0.282591 0.047425 0.474448
v 0.371345 0.047425 0.320722
v 0.371345 0.047425 0.143215
v 0.282591 0.047425 -0.010511
v 0.124485 0.255105 -0.082916
v -0.044262 0.255105 -0.082916
v -0.190400 0.255105 0.001457
v -0.274773 0.255105 0.147595
v -0.274773 0.255105 0.316341
v -0.190400 0.255105 0.462480
v -0.044262 0.255105 0.546853
v 0.124485 0.255105 0.546853
v 0.270623 0.255105 0.462480
v 0.354996 0.255105 0.316341
v 0.354996 0.255105 0.147595
v 0.270623 0.255105 0.001457
v -0.048642 0.011274 -0.099265
v 0.128865 0.011274 -0.099265
v -0.202368 0.011274 -0.010511
v -0.291121 0.011274 0.143215
v -0.291121 0.011274 0.320722
v -0.202368 0.011274 0.474448
v -0.048642 0.011274 0.563201
v 0.128865 0.011274 0.563201
v 0.282591 0.011274 0.474448
v 0.371345 0.011274 0.320722
v 0.371345 0.011274 0.143215
v 0.282591 0.011274 -0.010511
v -0.044262 0.291256 -0.082916
v 0.124485 0.291256 -0.082916
v -0.190400 0.291256 0.001457
v -0.274773 0.291256 0.147595
v -0.274773 0.291256 0.316341
v -0.190400 0.291256 0.462480
v -0.044262 0.291256 0.546853
v 0.124485 0.291256 0.546853
v 0.270623 0.291256 0.462480
v 0.354996 0.291256 0.316341
v 0.354996 0.291256 0.147595
v 0.270623 0.291256 0.001457
v -0.062122 0.047425 -0.149572
v -0.062122 0.255105 -0.149572
v -0.239195 0.255105 -0.047339
v -0.239195 0.047425 -0.047339
v -0.341429 0.255105 0.129735
v -0.341429 0.047425 0.129735
v -0.341429 0.255105 0.334202
v -0.341429 0.047425 0.334202
v -0.239195 0.255105 0.511275
v -0.239195 0.047425 0.511275
v -0.062122 0.255105 0.613509
v -0.062122 0.047425 0.613509
v 0.142345 0.255105 0.613509
v 0.142345 0.047425 0.613509
v 0.319418 0.255105 0.511275
v 0.319418 0.047425 0.511275
v 0.421652 0.255105 0.334202
v 0.421652 0.047425 0.334202
v 0.421652 0.255105 0.129735
v 0.421652 0.047425 0.129735
v 0.319418 0.255105 -0.047339
v 0.319418 0.047425 -0.047339
v 0.142345 0.255105 -0.149572
v 0.142345 0.047425 -0.149572
v 0.293180 0.321120 -0.126390
v 0.085960 0.321120 -0.183027
v -0.121815 0.321120 -0.128466
v -0.274474 0.321120 0.022673
v -0.331110 0.321120 0.229892
v -0.276549 0.321120 0.437668
v -0.125411 0.321120 0.590326
v 0.081809 0.321120 0.646963
v 0.289584 0.321120 0.592402
v 0.442243 0.321120 0.441263
v 0.498879 0.321120 0.234044
v 0.444318 0.321120 0.026269
v 0.293180 0.591120 -0.126390
v 0.085960 0.591120 -0.183027
v -0.121815 0.591120 -0.128466
v -0.274474 0.591120 0.022673
v -0.331110 0.591120 0.229892
v -0.276549 0.591120 0.437668
v -0.125411 0.591120 0.590326
v 0.081809 0.591120 0.646963
v 0.289584 0.591120 0.592402
v 0.442243 0.591120 0.441263
v 0.498879 0.591120 0.234044
v 0.444318 0.591120 0.026269
v 0.276700 0.303692 -0.098173
v 0.085797 0.303692 -0.150350
v -0.105618 0.303692 -0.100085
v -0.246256 0.303692 0.039153
v -0.298433 0.303692 0.230056
v -0.248169 0.303692 0.421471
v -0.108931 0.303692 0.562109
v 0.081972 0.303692 0.614286
v 0.273387 0.303692 0.564021
v 0.414025 0.303692 0.424783
v 0.466202 0.303692 0.233881
v 0.415938 0.303692 0.042465
v 0.276700 0.608547 -0.098173
v 0.085797 0.608547 -0.150350
v -0.105618 0.608547 -0.100085
v -0.246256 0.608547 0.039153
v -0.298433 0.608547 0.230056
v -0.248169 0.608547 0.421471
v -0.108931 0.608547 0.562109
v 0.081972 0.608547 0.614286
v 0.273387 0.608547 0.564021
v 0.414025 0.608547 0.424783
v 0.466202 0.608547 0.233881
v 0.415938 0.608547 0.042465
v 0.256827 0.352280 -0.064146
v 0.085600 0.352280 -0.110945
v -0.086087 0.352280 -0.065861
v -0.212230 0.352280 0.059026
v -0.259029 0.352280 0.230253
v -0.213945 0.352280 0.401939
v -0.089058 0.352280 0.528082
v 0.082169 0.352280 0.574882
v 0.253856 0.352280 0.529798
v 0.379999 0.352280 0.404910
v 0.426798 0.352280 0.233683
v 0.381714 0.352280 0.061997
v 0.248291 0.559960 -0.049531
v 0.085515 0.559960 -0.094020
v -0.077698 0.559960 -0.051161
v -0.197615 0.559960 0.067562
v -0.242104 0.559960 0.230338
v -0.199245 0.559960 0.393550
v -0.080522 0.559960 0.513467
v 0.082254 0.559960 0.557957
v 0.245467 0.559960 0.515098
v 0.365384 0.559960 0.396375
v 0.409873 0.559960 0.233599
v 0.367014 0.559960 0.070386
v 0.085600 0.316128 -0.110945
v 0.256827 0.316128 -0.064146
v -0.086087 0.316128 -0.065861
v -0.212230 0.316128 0.059026
v -0.259029 0.316128 0.230253
v -0.213945 0.316128 0.401939
v -0.089058 0.316128 0.528082
v 0.082169 0.316128 0.574882
v 0.253856 0.316128 0.529798
v 0.379999 0.316128 0.404910
v 0.426798 0.316128 0.233683
v 0.381714 0.316128 0.061997
v 0.085515 0.596111 -0.094020
v 0.248291 0.596111 -0.049531
v -0.077698 0.596111 -0.051161
v -0.197615 0.596111 0.067562
v -0.242104 0.596111 0.230338
v -0.199245 0.596111 0.393550
v -0.080522 0.596111 0.513467
v 0.082254 0.596111 0.557957
v 0.245467 0.596111 0.515098
v 0.365384 0.596111 0.396375
v 0.409873 0.596111 0.233599
v 0.367014 0.596111 0.070386
v 0.085860 0.352280 -0.163026
v 0.085860 0.559960 -0.163026
v -0.111902 0.559960 -0.111095
v -0.111902 0.352280 -0.111095
v -0.257203 0.559960 0.032760
v -0.257203 0.352280 0.032760
v -0.311110 0.559960 0.229993
v -0.311110 0.352280 0.229993
v -0.259179 0.559960 0.427755
v -0.259179 0.352280 0.427755
v -0.115324 0.559960 0.573056
v -0.115324 0.352280 0.573056
v 0.081909 0.559960 0.626963
v 0.081909 0.352280 0.626963
v 0.279671 0.559960 0.575032
v 0.279671 0.352280 0.575032
v 0.424972 0.559960 0.431177
v 0.424972 0.352280 0.431177
v 0.478879 0.559960 0.233944
v 0.478879 0.352280 0.233944
v 0.426948 0.559960 0.036182
v 0.426948 0.352280 0.036182
v 0.283093 0.559960 -0.109119
v 0.283093 0.352280 -0.109119
v -0.068880 0.625974 -0.176505
v -0.280117 0.625974 -0.137432
v -0.443517 0.625974 0.002024
v -0.515297 0.625974 0.204496
v -0.476225 0.625974 0.415733
v -0.336769 0.625974 0.579133
v -0.134296 0.625974 0.650913
v 0.076940 0.625974 0.611841
v 0.240340 0.625974 0.472385
v 0.312121 0.625974 0.269912
v 0.273048 0.625974 0.058676
v 0.133592 0.625974 -0.104724
v -0.068880 0.895974 -0.176505
v -0.280117 0.895974 -0.137432
v -0.443517 0.895974 0.002024
v -0.515297 0.895974 0.204496
v -0.476225 0.895974 0.415733
v -0.336769 0.895974 0.579133
v -0.134296 0.895974 0.650913
v 0.076940 0.895974 0.611841
v 0.240340 0.895974 0.472385
v 0.312121 0.895974 0.269912
v 0.273048 0.895974 0.058676
v 0.133592 0.895974 -0.104724
v -0.071456 0.608547 -0.143929
v -0.266059 0.608547 -0.107933
v -0.416593 0.608547 0.020542
v -0.482722 0.608547 0.207072
v -0.446726 0.608547 0.401675
v -0.318250 0.608547 0.552209
v -0.131721 0.608547 0.618338
v 0.062883 0.608547 0.582342
v 0.213417 0.608547 0.453866
v 0.279545 0.608547 0.267337
v 0.243549 0.608547 0.072733
v 0.115074 0.608547 -0.077801
v -0.071456 0.913402 -0.143929
v -0.266059 0.913402 -0.107933
v -0.416593 0.913402 0.020542
v -0.482722 0.913402 0.207072
v -0.446726 0.913402 0.401675
v -0.318250 0.913402 0.552209
v -0.131721 0.913402 0.618338
v 0.062883 0.913402 0.582342
v 0.213417 0.913402 0.453866
v 0.279545 0.913402 0.267337
v 0.243549 0.913402 0.072733
v 0.115074 0.913402 -0.077801
v -0.074561 0.657134 -0.104647
v -0.249108 0.657134 -0.072361
v -0.384126 0.657134 0.042873
v -0.443439 0.657134 0.210177
v -0.411153 0.657134 0.384724
v -0.295920 0.657134 0.519742
v -0.128615 0.657134 0.579055
v 0.045931 0.657134 0.546769
v 0.180950 0.657134 0.431536
v 0.240263 0.657134 0.264231
v 0.207977 0.657134 0.089685
v 0.092743 0.657134 -0.045334
v -0.075895 0.864814 -0.087774
v -0.241827 0.864814 -0.057082
v -0.370181 0.864814 0.052464
v -0.426567 0.864814 0.211511
v -0.395874 0.864814 0.377443
v -0.286328 0.864814 0.505798
v -0.127281 0.864814 0.562183
v 0.038650 0.864814 0.531490
v 0.167005 0.864814 0.421944
v 0.223390 0.864814 0.262897
v 0.192698 0.864814 0.096966
v 0.083152 0.864814 -0.031389
v -0.249108 0.620983 -0.072361
v -0.074561 0.620983 -0.104647
v -0.384126 0.620983 0.042873
v -0.443439 0.620983 0.210177
v -0.411153 0.620983 0.384724
v -0.295920 0.620983 0.519742
v -0.128615 0.620983 0.579055
v 0.045931 0.620983 0.546769
v 0.180950 0.620983 0.431536
v 0.240263 0.620983 0.264231
v 0.207977 0.620983 0.089685
v 0.092743 0.620983 -0.045334
v -0.241827 0.900966 -0.057082
v -0.075895 0.900966 -0.087774
v -0.370181 0.900966 0.052464
v -0.426567 0.900966 0.211511
v -0.395874 0.900966 0.377443
v -0.286328 0.900966 0.505798
v -0.127281 0.900966 0.562183
v 0.038650 0.900966 0.531490
v 0.167005 0.900966 0.421944
v 0.223390 0.900966 0.262897
v 0.192698 0.900966 0.096966
v 0.083152 0.900966 -0.031389
v -0.271513 0.657134 -0.119377
v -0.271513 0.864814 -0.119377
v -0.427038 0.864814 0.013358
v -0.427038 0.657134 0.013358
v -0.495359 0.864814 0.206073
v -0.495359 0.657134 0.206073
v -0.458170 0.864814 0.407129
v -0.458170 0.657134 0.407129
v -0.325434 0.864814 0.562654
v -0.325434 0.657134 0.562654
v -0.132720 0.864814 0.630975
v -0.132720 0.657134 0.630975
v 0.068336 0.864814 0.593786
v 0.068336 0.657134 0.593786
v 0.223861 0.864814 0.461051
v 0.223861 0.657134 0.461051
v 0.292183 0.864814 0.268336
v 0.292183 0.657134 0.268336
v 0.254993 0.864814 0.067280
v 0.254993 0.657134 0.067280
v 0.122258 0.864814 -0.088245
v 0.122258 0.657134 -0.088245
v -0.070457 0.864814 -0.156567
v -0.070457 0.657134 -0.156567
v -0.011541 -0.001510 -0.694965
v -0.223318 -0.001510 -0.730996
v -0.419461 0.074441 -0.687326
v -0.547413 0.205990 -0.575655
v -0.572891 0.357891 -0.425907
v -0.489067 0.489441 -0.278205
v -0.318403 0.565391 -0.172127
v -0.106626 0.565391 -0.136095
v 0.089517 0.489441 -0.179766
v 0.217470 0.357891 -0.291436
v 0.242947 0.205990 -0.441185
v 0.159124 0.074441 -0.588887
v 0.020481 0.189409 -0.883179
v -0.191295 0.189409 -0.919210
v -0.387438 0.265359 -0.875540
v -0.515391 0.396909 -0.763869
v -0.540869 0.548810 -0.614121
v -0.457045 0.680359 -0.466419
v -0.286380 0.756310 -0.360341
v -0.074604 0.756310 -0.324310
v 0.121539 0.680359 -0.367980
v 0.249492 0.548810 -0.479651
v 0.274970 0.396909 -0.629399
v 0.191146 0.265359 -0.777101
v -0.025689 0.008486 -0.662232
v -0.220790 0.008486 -0.695426
v -0.401489 0.078456 -0.655194
v -0.519367 0.199648 -0.552317
v -0.542838 0.339587 -0.414360
v -0.465615 0.460779 -0.278288
v -0.308388 0.530749 -0.180562
v -0.113287 0.530749 -0.147368
v 0.067411 0.460779 -0.187600
v 0.185289 0.339587 -0.290478
v 0.208761 0.199648 -0.428435
v 0.131537 0.078456 -0.564507
v 0.010467 0.224051 -0.874743
v -0.184634 0.224051 -0.907937
v -0.365333 0.294021 -0.867705
v -0.483210 0.415213 -0.764828
v -0.506682 0.555152 -0.626871
v -0.429459 0.676344 -0.490799
v -0.272232 0.746314 -0.393074
v -0.077131 0.746314 -0.359880
v 0.103567 0.676344 -0.400111
v 0.221445 0.555152 -0.502989
v 0.244917 0.415213 -0.640946
v 0.167693 0.294021 -0.777018
v -0.034495 0.069757 -0.671280
v -0.209488 0.069757 -0.701053
v -0.371562 0.132515 -0.664967
v -0.477291 0.241216 -0.572693
v -0.498343 0.366732 -0.448955
v -0.429079 0.475433 -0.326908
v -0.288057 0.538191 -0.239255
v -0.113065 0.538191 -0.209482
v 0.049010 0.475433 -0.245567
v 0.154738 0.366732 -0.337841
v 0.175791 0.241216 -0.461579
v 0.106526 0.132515 -0.583627
v -0.016122 0.228169 -0.805390
v -0.182477 0.228169 -0.833693
v -0.336552 0.287830 -0.799389
v -0.437062 0.391165 -0.711669
v -0.457076 0.510487 -0.594038
v -0.391230 0.613822 -0.478015
v -0.257169 0.673483 -0.394687
v -0.090813 0.673483 -0.366384
v 0.063262 0.613822 -0.400688
v 0.163772 0.510487 -0.488408
v 0.183785 0.391165 -0.606039
v 0.117940 0.287830 -0.722063
v -0.213775 0.044194 -0.675852
v -0.038783 0.044194 -0.646079
v -0.375850 0.106952 -0.639767
v -0.481578 0.215653 -0.547493
v -0.502631 0.341170 -0.423754
v -0.433366 0.449870 -0.301707
v -0.292345 0.512628 -0.214054
v -0.117352 0.512628 -0.184281
v 0.044722 0.449870 -0.220366
v 0.150450 0.341170 -0.312640
v 0.171503 0.215653 -0.436379
v 0.102239 0.106952 -0.558426
v -0.178190 0.253732 -0.858894
v -0.011834 0.253732 -0.830590
v -0.332265 0.313392 -0.824590
v -0.432775 0.416728 -0.736870
v -0.452788 0.536049 -0.619238
v -0.386943 0.639385 -0.503215
v -0.252881 0.699046 -0.419888
v -0.086525 0.699046 -0.391585
v 0.067549 0.639385 -0.425889
v 0.168060 0.536049 -0.513609
v 0.188073 0.416728 -0.631240
v 0.122227 0.313392 -0.747263
v -0.216810 0.034184 -0.738382
v -0.192179 0.181036 -0.883154
v -0.378869 0.253326 -0.841588
v -0.403500 0.106474 -0.696816
v -0.500655 0.378536 -0.735299
v -0.525286 0.231684 -0.590528
v -0.524905 0.523116 -0.592767
v -0.549536 0.376264 -0.447996
v -0.445121 0.648326 -0.452184
v -0.469752 0.501474 -0.307413
v -0.282681 0.720616 -0.351218
v -0.307313 0.573764 -0.206447
v -0.081111 0.720616 -0.316924
v -0.105742 0.573764 -0.172152
v 0.105579 0.648326 -0.358489
v 0.080948 0.501474 -0.213718
v 0.227365 0.523116 -0.464778
v 0.202734 0.376264 -0.320006
v 0.251615 0.378536 -0.607310
v 0.226984 0.231684 -0.462538
v 0.171831 0.253326 -0.747893
v 0.147200 0.106474 -0.603122
v 0.009391 0.181036 -0.848859
v -0.015240 0.034184 -0.704087
vn -0.8660 -0.0000 0.5000
vn 0.5000 -0.0000 -0.8660
vn -0.5000 -0.0000 -0.8660
vn 0.8660 -0.0000 0.5000
vn -0.5000 -0.0000 0.8660
vn -0.8660 -0.0000 -0.5000
vn 1.0000 -0.0000 -0.0000
vn -0.0000 -0.0000 1.0000
vn -1.0000 -0.0000 -0.0000
vn 0.8660 -0.0000 -0.5000
vn -0.0000 -0.0000 -1.0000
vn 0.5000 -0.0000 0.8660
vn 0.4834 0.8754 -0.0000
vn -0.4186 0.8754 -0.2417
vn 0.2417 -0.8754 0.4186
vn 0.4186 0.8754 -0.2417
vn -0.0000 -0.8754 -0.4833
vn -0.4834 0.8754 -0.0000
vn 0.4186 -0.8754 0.2417
vn 0.2417 0.8754 -0.4186
vn -0.2417 -0.8754 -0.4186
vn -0.4186 0.8754 0.2417
vn 0.4834 -0.8754 -0.0000
vn -0.4186 -0.8754 -0.2417
vn -0.2417 0.8754 0.4186
vn 0.4186 -0.8754 -0.2417
vn -0.4833 -0.8754 -0.0000
vn -0.0000 0.8754 0.4834
vn 0.2417 -0.8754 -0.4186
vn -0.4186 -0.8754 0.2417
vn 0.2417 0.8754 0.4186
vn -0.0000 0.8754 -0.4834
vn -0.2417 -0.8754 0.4186
vn 0.4186 0.8754 0.2417
vn -0.2417 0.8754 -0.4186
vn -0.0000 -0.8754 0.4833
vn -0.1930 0.9749 0.1114
vn -0.0000 -0.9505 0.3106
vn 0.2228 0.9749 -0.0000
vn -0.2690 -0.9505 -0.1553
vn -0.1114 0.9749 0.1930
vn 0.1553 -0.9505 0.2690
vn 0.1930 0.9749 -0.1114
vn -0.3106 -0.9505 -0.0000
vn 0.2690 -0.9505 0.1553
vn 0.1114 0.9749 -0.1930
vn -0.2690 -0.9505 0.1553
vn 0.3106 -0.9505 -0.0000
vn -0.0000 0.9749 -0.2228
vn -0.1553 -0.9505 0.2690
vn 0.2690 -0.9505 -0.1553
vn -0.1114 0.9749 -0.1930
vn -0.0000 0.9749 0.2228
vn 0.1553 -0.9505 -0.2690
vn -0.1930 0.9749 -0.1114
vn 0.1114 0.9749 0.1930
vn -0.0000 -0.9505 -0.3106
vn -0.2228 0.9749 -0.0000
vn 0.1930 0.9749 0.1114
vn -0.1553 -0.9505 -0.2690
vn -0.0000 -1.0000 -0.0000
vn -0.0000 1.0000 -0.0000
vn -0.9672 -0.0000 0.2540
vn 0.7106 -0.0000 -0.7036
vn -0.2540 -0.0000 -0.9672
vn 0.7036 -0.0000 0.7106
vn -0.7106 -0.0000 0.7036
vn -0.7036 -0.0000 -0.7106
vn 0.9646 -0.0000 0.2636
vn -0.2636 -0.0000 0.9646
vn -0.9646 -0.0000 -0.2636
vn 0.9672 -0.0000 -0.2540
vn 0.2636 -0.0000 -0.9646
vn 0.2540 -0.0000 0.9672
vn 0.4662 0.8754 0.1274
vn -0.3401 0.8754 -0.3435
vn 0.1228 -0.8754 0.4675
vn 0.4675 0.8754 -0.1228
vn 0.1274 -0.8754 -0.4662
vn -0.4662 0.8754 -0.1274
vn 0.3401 -0.8754 0.3435
vn 0.3435 0.8754 -0.3401
vn -0.1228 -0.8754 -0.4675
vn -0.4675 0.8754 0.1228
vn 0.4662 -0.8754 0.1274
vn -0.3401 -0.8754 -0.3435
vn -0.3435 0.8754 0.3401
vn 0.4675 -0.8754 -0.1228
vn -0.4662 -0.8754 -0.1274
vn -0.1274 0.8754 0.4662
vn 0.3435 -0.8754 -0.3401
vn -0.4675 -0.8754 0.1228
vn 0.1228 0.8754 0.4675
vn 0.1274 0.8754 -0.4662
vn -0.3435 -0.8754 0.3401
vn 0.3401 0.8754 0.3435
vn -0.1228 0.8754 -0.4675
vn -0.1274 -0.8754 0.4663
vn -0.2155 0.9749 0.0566
vn -0.0819 -0.9505 0.2996
vn 0.2149 0.9749 0.0587
vn -0.2185 -0.9505 -0.2207
vn -0.1583 0.9749 0.1568
vn 0.0789 -0.9505 0.3004
vn 0.2155 0.9749 -0.0566
vn -0.2996 -0.9505 -0.0819
vn 0.2185 -0.9505 0.2207
vn 0.1583 0.9749 -0.1568
vn -0.3004 -0.9505 0.0789
vn 0.2996 -0.9505 0.0819
vn 0.0587 0.9749 -0.2149
vn -0.2207 -0.9505 0.2185
vn 0.3004 -0.9505 -0.0789
vn -0.0566 0.9749 -0.2155
vn -0.0587 0.9749 0.2149
vn 0.2207 -0.9505 -0.2185
vn -0.1568 0.9749 -0.1583
vn 0.0566 0.9749 0.2155
vn 0.0819 -0.9505 -0.2996
vn -0.2149 0.9749 -0.0587
vn 0.1568 0.9749 0.1583
vn -0.0789 -0.9505 -0.3004
vn -0.7606 -0.0000 0.6492
vn 0.3341 -0.0000 -0.9425
vn -0.6492 -0.0000 -0.7606
vn 0.9425 -0.0000 0.3341
vn -0.3341 -0.0000 0.9425
vn -0.9425 -0.0000 -0.3341
vn 0.9833 -0.0000 -0.1819
vn 0.1819 -0.0000 0.9833
vn -0.9833 -0.0000 0.1819
vn 0.7606 -0.0000 -0.6492
vn -0.1819 -0.0000 -0.9833
vn 0.6492 -0.0000 0.7606
vn 0.4753 0.8754 -0.0879
vn -0.4556 0.8754 -0.1615
vn 0.3138 -0.8754 0.3677
vn 0.3677 0.8754 -0.3138
vn -0.0879 -0.8754 -0.4753
vn -0.4753 0.8754 0.0879
vn 0.4556 -0.8754 0.1615
vn 0.1615 0.8754 -0.4556
vn -0.3138 -0.8754 -0.3677
vn -0.3677 0.8754 0.3138
vn 0.4753 -0.8754 -0.0879
vn -0.4556 -0.8754 -0.1615
vn -0.1615 0.8754 0.4556
vn 0.3677 -0.8754 -0.3138
vn -0.4753 -0.8754 0.0879
vn 0.0879 0.8754 0.4753
vn 0.1615 -0.8754 -0.4556
vn -0.3677 -0.8754 0.3138
vn 0.3138 0.8754 0.3677
vn -0.0879 0.8754 -0.4753
vn -0.1615 -0.8754 0.4556
vn 0.4556 0.8754 0.1615
vn -0.3138 0.8754 -0.3677
vn 0.0879 -0.8754 0.4753
vn -0.1695 0.9749 0.1446
vn 0.0565 -0.9505 0.3054
vn 0.2191 0.9749 -0.0405
vn -0.2927 -0.9505 -0.1038
vn -0.0745 0.9749 0.2100
vn 0.2016 -0.9505 0.2362
vn 0.1695 0.9749 -0.1446
vn -0.3054 -0.9505 0.0565
vn 0.2927 -0.9505 0.1038
vn 0.0745 0.9749 -0.2100
vn -0.2362 -0.9505 0.2016
vn 0.3054 -0.9505 -0.0565
vn -0.0405 0.9749 -0.2191
vn -0.1038 -0.9505 0.2927
vn 0.2362 -0.9505 -0.2016
vn -0.1446 0.9749 -0.1695
vn 0.0405 0.9749 0.2191
vn 0.1038 -0.9505 -0.2927
vn -0.2100 0.9749 -0.0745
vn 0.1446 0.9749 0.1695
vn -0.0565 -0.9505 -0.3054
vn -0.2191 0.9749 0.0405
vn 0.2100 0.9749 0.0745
vn -0.2016 -0.9505 -0.2362
vn -0.9131 0.3536 0.2033
vn 0.5956 -0.6124 -0.5198
vn -0.3902 -0.6124 -0.6876
vn 0.7945 0.3536 0.4938
vn -0.5956 0.6124 0.5198
vn -0.7945 -0.3536 -0.4938
vn 0.9858 -0.0000 0.1677
vn -0.1186 0.7071 0.6971
vn -0.9858 -0.0000 -0.1677
vn 0.9131 -0.3536 -0.2033
vn 0.1186 -0.7071 -0.6971
vn 0.3902 0.6124 0.6876
vn 0.5803 0.6190 -0.5292
vn -0.2802 0.4481 -0.8489
vn 0.0848 -0.3230 0.9426
vn 0.5452 0.4481 -0.7085
vn -0.0465 -0.9608 0.2733
vn -0.3727 0.6190 -0.6913
vn 0.2802 -0.4481 0.8489
vn 0.3917 0.3230 -0.8615
vn -0.2924 -0.9150 0.2779
vn -0.3375 0.7899 -0.5120
vn 0.3727 -0.6190 0.6913
vn -0.4878 -0.7899 0.3716
vn -0.1841 0.9150 -0.3590
vn 0.3375 -0.7899 0.5120
vn -0.5803 -0.6190 0.5292
vn 0.0465 0.9608 -0.2733
vn 0.1841 -0.9150 0.3590
vn -0.5452 -0.4481 0.7085
vn 0.2924 0.9150 -0.2779
vn 0.1612 0.2772 -0.9472
vn -0.3917 -0.3230 0.8615
vn 0.4878 0.7899 -0.3716
vn -0.0848 0.3230 -0.9426
vn -0.1612 -0.2772 0.9472
vn -0.0878 0.7681 -0.6343
vn -0.1496 -0.4525 0.8791
vn 0.3353 0.6893 -0.6422
vn -0.3595 -0.7819 0.5093
vn -0.0171 0.8258 -0.5637
vn 0.0085 -0.4819 0.8762
vn 0.3191 0.6106 -0.7249
vn -0.4189 -0.6721 0.6105
vn 0.1340 -0.5623 0.8160
vn 0.2483 0.5529 -0.7954
vn -0.3963 -0.5623 0.7258
vn 0.1934 -0.6721 0.7147
vn 0.1420 0.5318 -0.8349
vn -0.2977 -0.4819 0.8241
vn 0.1708 -0.7819 0.5995
vn 0.0287 0.5529 -0.8328
vn 0.0892 0.8469 -0.5242
vn 0.0723 -0.8623 0.5012
vn -0.0614 0.6106 -0.7896
vn 0.2026 0.8258 -0.5264
vn -0.0759 -0.8918 0.4461
vn -0.1040 0.6893 -0.7169
vn 0.2926 0.7681 -0.5695
vn -0.2339 -0.8623 0.4491
vn -0.1186 -0.7071 0.6971
vn 0.1186 0.7071 -0.6971
vn -0.4834 -0.8754 -0.0000
vn -0.1274 0.8754 0.4663
vn 0.1274 0.8754 -0.4663
vn -0.1274 -0.8754 0.4662
vt 0.820534 0.696317
vt 0.820343 0.713637
vt 0.820343 0.696317
vt 0.821248 0.696317
vt 0.821579 0.713637
vt 0.821579 0.696317
vt 0.820865 0.713637
vt 0.820865 0.696317
vt 0.821770 0.696317
vt 0.821579 0.713637
vt 0.820534 0.713637
vt 0.820534 0.713637
vt 0.821770 0.713637
vt 0.820865 0.713637
vt 0.820343 0.713637
vt 0.821770 0.713637
vt 0.821248 0.713637
vt 0.821248 0.713637
vt 0.821714 0.714755
vt 0.820399 0.714755
vt 0.820575 0.714755
vt 0.821232 0.695199
vt 0.821537 0.695199
vt 0.820880 0.695199
vt 0.821714 0.695199
vt 0.821537 0.714755
vt 0.820575 0.695199
vt 0.820399 0.695199
vt 0.820880 0.714755
vt 0.821232 0.714755
vt 0.821467 0.713958
vt 0.821617 0.713958
vt 0.821214 0.695996
vt 0.820898 0.695996
vt 0.820496 0.713958
vt 0.821646 0.695996
vt 0.821207 0.713958
vt 0.820625 0.695996
vt 0.820646 0.713958
vt 0.820467 0.695996
vt 0.820906 0.713958
vt 0.821488 0.695996
vt 0.856554 0.679432
vt 0.856783 0.679432
vt 0.856628 0.679432
vt 0.856070 0.668070
vt 0.855780 0.668070
vt 0.856049 0.668070
vt 0.856332 0.679432
vt 0.856049 0.679432
vt 0.856360 0.679432
vt 0.855836 0.668070
vt 0.855625 0.668070
vt 0.856339 0.668070
vt 0.856628 0.668070
vt 0.856360 0.668070
vt 0.856076 0.679432
vt 0.855702 0.668070
vt 0.856707 0.668070
vt 0.856572 0.668070
vt 0.855780 0.679432
vt 0.855855 0.679432
vt 0.856783 0.668070
vt 0.856339 0.666092
vt 0.856070 0.666092
vt 0.855836 0.666092
vt 0.855702 0.666092
vt 0.856572 0.666092
vt 0.856707 0.666092
vt 0.856076 0.681410
vt 0.855855 0.681410
vt 0.855726 0.681410
vt 0.855726 0.679432
vt 0.856332 0.681410
vt 0.856554 0.681410
vt 0.856682 0.681410
vt 0.856682 0.679432
vt 0.855625 0.679432
vt 0.820493 0.715873
vt 0.820396 0.733194
vt 0.820396 0.715873
vt 0.821507 0.715873
vt 0.821776 0.733194
vt 0.821776 0.715873
vt 0.820768 0.715873
vt 0.821138 0.733194
vt 0.821138 0.715873
vt 0.821772 0.715873
vt 0.821500 0.733194
vt 0.821500 0.715873
vt 0.820762 0.715873
vt 0.820493 0.733194
vt 0.820497 0.715873
vt 0.820768 0.733194
vt 0.821873 0.715873
vt 0.821772 0.733194
vt 0.821131 0.715873
vt 0.820762 0.733194
vt 0.820497 0.733194
vt 0.821873 0.733194
vt 0.821507 0.733194
vt 0.821131 0.733194
vt 0.821722 0.734312
vt 0.820547 0.734312
vt 0.820797 0.734312
vt 0.821472 0.714755
vt 0.821725 0.734312
vt 0.821815 0.734312
vt 0.821477 0.714755
vt 0.821138 0.714755
vt 0.821722 0.714755
vt 0.820797 0.714755
vt 0.820543 0.734312
vt 0.820454 0.734312
vt 0.821815 0.714755
vt 0.820547 0.714755
vt 0.820791 0.734312
vt 0.821725 0.714755
vt 0.820454 0.714755
vt 0.821131 0.734312
vt 0.820543 0.714755
vt 0.821472 0.734312
vt 0.821477 0.734312
vt 0.820791 0.714755
vt 0.821138 0.734312
vt 0.821131 0.714755
vt 0.821714 0.733514
vt 0.821137 0.715553
vt 0.820633 0.733514
vt 0.821661 0.715553
vt 0.821427 0.733514
vt 0.821638 0.733514
vt 0.820832 0.715553
vt 0.820554 0.733514
vt 0.821745 0.715553
vt 0.820607 0.715553
vt 0.820842 0.733514
vt 0.820630 0.733514
vt 0.821664 0.715553
vt 0.820524 0.715553
vt 0.821131 0.733514
vt 0.821442 0.715553
vt 0.820604 0.715553
vt 0.821422 0.733514
vt 0.820826 0.715553
vt 0.821635 0.733514
vt 0.821137 0.733514
vt 0.821131 0.715553
vt 0.820847 0.733514
vt 0.821437 0.715553
vt 0.856516 0.696111
vt 0.856788 0.696111
vt 0.856568 0.696111
vt 0.856008 0.684749
vt 0.855750 0.684749
vt 0.855968 0.684749
vt 0.856520 0.696111
vt 0.856274 0.696111
vt 0.856573 0.696111
vt 0.856268 0.696111
vt 0.856268 0.696111
vt 0.855750 0.684749
vt 0.855819 0.684749
vt 0.856533 0.684749
vt 0.856791 0.684749
vt 0.856573 0.684749
vt 0.855968 0.696111
vt 0.856021 0.696111
vt 0.855821 0.684749
vt 0.855671 0.684749
vt 0.856791 0.684749
vt 0.856723 0.684749
vt 0.855750 0.696111
vt 0.855841 0.696111
vt 0.855974 0.684749
vt 0.855753 0.684749
vt 0.856720 0.684749
vt 0.856870 0.684749
vt 0.856273 0.684749
vt 0.856533 0.682771
vt 0.856013 0.684749
vt 0.856273 0.682771
vt 0.856013 0.682771
vt 0.855821 0.682771
vt 0.855750 0.682771
vt 0.855819 0.682771
vt 0.856268 0.684749
vt 0.856008 0.682771
vt 0.856529 0.684749
vt 0.856268 0.682771
vt 0.856529 0.682771
vt 0.856720 0.682771
vt 0.856791 0.682771
vt 0.856723 0.682771
vt 0.856273 0.698089
vt 0.856273 0.696111
vt 0.856026 0.698089
vt 0.856026 0.696111
vt 0.855844 0.698089
vt 0.855844 0.696111
vt 0.855776 0.698089
vt 0.855776 0.696111
vt 0.855841 0.698089
vt 0.856021 0.698089
vt 0.856268 0.698089
vt 0.856516 0.698089
vt 0.856698 0.698089
vt 0.856698 0.696111
vt 0.856766 0.698089
vt 0.856766 0.696111
vt 0.856700 0.698089
vt 0.856700 0.696111
vt 0.856520 0.698089
vt 0.855753 0.696111
vt 0.855974 0.696111
vt 0.856274 0.684749
vt 0.855671 0.696111
vt 0.856268 0.684749
vt 0.856568 0.684749
vt 0.856870 0.696111
vt 0.856788 0.684749
vt 0.856791 0.696111
vt 0.820386 0.735430
vt 0.820138 0.752751
vt 0.820138 0.735430
vt 0.820862 0.735430
vt 0.821223 0.752751
vt 0.821223 0.735430
vt 0.820196 0.735430
vt 0.820486 0.752751
vt 0.820486 0.735430
vt 0.821540 0.735430
vt 0.821413 0.752751
vt 0.821413 0.735430
vt 0.820746 0.735430
vt 0.820386 0.752751
vt 0.820068 0.735430
vt 0.820196 0.752751
vt 0.821471 0.735430
vt 0.821540 0.752751
vt 0.821122 0.735430
vt 0.820746 0.752751
vt 0.820068 0.752751
vt 0.821471 0.752751
vt 0.820862 0.752751
vt 0.821122 0.752751
vt 0.821418 0.753869
vt 0.821482 0.753869
vt 0.820244 0.753869
vt 0.821365 0.734312
vt 0.821190 0.753869
vt 0.820512 0.734312
vt 0.820190 0.753869
vt 0.820126 0.753869
vt 0.821482 0.734312
vt 0.820858 0.753869
vt 0.820244 0.734312
vt 0.820419 0.753869
vt 0.821418 0.734312
vt 0.820126 0.734312
vt 0.821190 0.734312
vt 0.820190 0.734312
vt 0.820751 0.753869
vt 0.820858 0.734312
vt 0.820419 0.734312
vt 0.821365 0.753869
vt 0.821097 0.753869
vt 0.820512 0.753869
vt 0.820751 0.734312
vt 0.821097 0.734312
vt 0.821133 0.753071
vt 0.821328 0.753071
vt 0.820852 0.735110
vt 0.820542 0.735110
vt 0.820226 0.753071
vt 0.821413 0.735110
vt 0.820850 0.753071
vt 0.820301 0.735110
vt 0.820280 0.753071
vt 0.821355 0.735110
vt 0.820196 0.735110
vt 0.820758 0.753071
vt 0.820475 0.753071
vt 0.821150 0.735110
vt 0.820253 0.735110
vt 0.820458 0.735110
vt 0.821054 0.753071
vt 0.820756 0.735110
vt 0.821383 0.753071
vt 0.821282 0.753071
vt 0.820555 0.753071
vt 0.821067 0.735110
vt 0.820326 0.753071
vt 0.821307 0.735110
vt 0.856483 0.712790
vt 0.856483 0.712790
vt 0.856397 0.712790
vt 0.855694 0.701428
vt 0.855942 0.701428
vt 0.855948 0.701428
vt 0.856028 0.712790
vt 0.855731 0.712790
vt 0.856037 0.712790
vt 0.856247 0.712790
vt 0.856202 0.712790
vt 0.855519 0.701428
vt 0.855650 0.701428
vt 0.856030 0.701428
vt 0.856329 0.701428
vt 0.856037 0.701428
vt 0.855942 0.712790
vt 0.855950 0.712790
vt 0.855470 0.701428
vt 0.855448 0.701428
vt 0.856284 0.701428
vt 0.856530 0.701428
vt 0.855709 0.712790
vt 0.855650 0.712790
vt 0.855495 0.701428
vt 0.855392 0.701428
vt 0.856508 0.701428
vt 0.856459 0.701428
vt 0.855765 0.701428
vt 0.856030 0.699450
vt 0.855560 0.701428
vt 0.855765 0.699450
vt 0.855560 0.699450
vt 0.855470 0.699450
vt 0.855519 0.699450
vt 0.855694 0.699450
vt 0.856213 0.701428
vt 0.855948 0.699450
vt 0.856418 0.701428
vt 0.856213 0.699450
vt 0.856418 0.699450
vt 0.856508 0.699450
vt 0.856459 0.699450
vt 0.856284 0.699450
vt 0.855776 0.714768
vt 0.855776 0.712790
vt 0.855582 0.714768
vt 0.855582 0.712790
vt 0.855496 0.714768
vt 0.855496 0.712790
vt 0.855543 0.714768
vt 0.855543 0.712790
vt 0.855709 0.714768
vt 0.855950 0.714768
vt 0.856202 0.714768
vt 0.856397 0.714768
vt 0.856483 0.714768
vt 0.856436 0.714768
vt 0.856436 0.712790
vt 0.856270 0.714768
vt 0.856270 0.712790
vt 0.856028 0.714768
vt 0.855392 0.712790
vt 0.855495 0.712790
vt 0.855731 0.701428
vt 0.855448 0.712790
vt 0.856247 0.701428
vt 0.856587 0.712790
vt 0.856483 0.701428
vt 0.856530 0.712790
vt 0.856587 0.701428
vt 0.856329 0.712790
vt 0.819965 0.718232
vt 0.820172 0.738919
vt 0.820022 0.730480
vt 0.820964 0.695176
vt 0.821325 0.712296
vt 0.821268 0.700049
vt 0.820588 0.695176
vt 0.820296 0.712296
vt 0.820645 0.707424
vt 0.821372 0.718232
vt 0.821201 0.738919
vt 0.821144 0.726671
vt 0.820418 0.731543
vt 0.820115 0.726671
vt 0.820011 0.708488
vt 0.820239 0.700049
vt 0.821417 0.708488
vt 0.821429 0.730480
vt 0.820795 0.731543
vt 0.820475 0.743791
vt 0.820068 0.720735
vt 0.821474 0.720735
vt 0.821021 0.707424
vt 0.820852 0.743791
vt 0.821379 0.730887
vt 0.820335 0.714135
vt 0.820783 0.729321
vt 0.821105 0.724833
vt 0.821421 0.721909
vt 0.820939 0.695818
vt 0.820592 0.695818
vt 0.820083 0.730887
vt 0.820125 0.721909
vt 0.821315 0.717058
vt 0.821283 0.714135
vt 0.820271 0.700306
vt 0.820221 0.738661
vt 0.821357 0.708081
vt 0.820061 0.708081
vt 0.820501 0.743150
vt 0.821219 0.700306
vt 0.820019 0.717058
vt 0.820848 0.743150
vt 0.820156 0.724833
vt 0.820656 0.709646
vt 0.821004 0.709646
vt 0.820436 0.729321
vt 0.821169 0.738661
vt 0.821203 0.715378
vt 0.821320 0.722007
vt 0.820916 0.698108
vt 0.820605 0.698108
vt 0.820215 0.722007
vt 0.821065 0.724133
vt 0.821253 0.717160
vt 0.820316 0.702134
vt 0.820179 0.729661
vt 0.821290 0.709108
vt 0.820128 0.709108
vt 0.820535 0.740118
vt 0.820296 0.736290
vt 0.821167 0.702134
vt 0.820091 0.717160
vt 0.820214 0.724133
vt 0.821105 0.736290
vt 0.820831 0.740118
vt 0.820964 0.711550
vt 0.820465 0.728159
vt 0.821284 0.729661
vt 0.820394 0.715378
vt 0.820668 0.711550
vt 0.820776 0.728159
vt 0.856239 0.699058
vt 0.856489 0.694095
vt 0.856304 0.700946
vt 0.855492 0.691486
vt 0.855677 0.696866
vt 0.855706 0.694920
vt 0.856119 0.677958
vt 0.855852 0.675380
vt 0.856158 0.675380
vt 0.856020 0.704901
vt 0.856006 0.702322
vt 0.855309 0.686061
vt 0.855431 0.692911
vt 0.856305 0.672725
vt 0.856120 0.667345
vt 0.856091 0.669292
vt 0.855753 0.702322
vt 0.855714 0.704901
vt 0.855419 0.678672
vt 0.855387 0.685539
vt 0.856410 0.678672
vt 0.856367 0.671300
vt 0.855468 0.700946
vt 0.855550 0.699058
vt 0.855580 0.672725
vt 0.855346 0.678151
vt 0.856378 0.685539
vt 0.856488 0.678151
vt 0.855826 0.669292
vt 0.856085 0.667893
vt 0.855573 0.671327
vt 0.855819 0.667893
vt 0.855413 0.677274
vt 0.855381 0.684141
vt 0.855486 0.690088
vt 0.855965 0.693521
vt 0.855700 0.693521
vt 0.856218 0.691486
vt 0.855972 0.694920
vt 0.856372 0.684141
vt 0.856211 0.690088
vt 0.856404 0.677274
vt 0.856299 0.671327
vt 0.855867 0.677958
vt 0.856126 0.679357
vt 0.855873 0.679357
vt 0.855639 0.682621
vt 0.855633 0.681223
vt 0.855487 0.688275
vt 0.855480 0.686876
vt 0.855456 0.694803
vt 0.855450 0.693404
vt 0.855556 0.700457
vt 0.855760 0.703721
vt 0.856012 0.703721
vt 0.856246 0.700457
vt 0.856399 0.694803
vt 0.856392 0.693404
vt 0.856429 0.688275
vt 0.856422 0.686876
vt 0.856329 0.682621
vt 0.856323 0.681223
vt 0.855568 0.679335
vt 0.855531 0.671300
vt 0.855814 0.667345
vt 0.855384 0.686185
vt 0.855347 0.694095
vt 0.855983 0.696866
vt 0.856266 0.692911
vt 0.856525 0.686185
vt 0.856451 0.686061
vt 0.856404 0.679335
s 0
usemtl Texture_Map
f 6/1/1 17/2/1 5/3/1
f 1/4/2 24/5/2 12/6/2
f 3/1/3 14/7/3 2/8/3
f 10/9/4 21/10/4 9/6/4
f 7/8/5 18/11/5 6/1/5
f 4/3/6 15/12/6 3/1/6
f 11/9/7 22/13/7 10/9/7
f 8/4/8 19/14/8 7/8/8
f 5/3/9 16/15/9 4/3/9
f 12/6/10 23/16/10 11/9/10
f 2/8/11 13/17/11 1/4/11
f 9/6/12 20/18/12 8/4/12
f 23/16/13 46/19/13 22/13/13
f 15/12/14 40/20/14 39/21/14
f 9/6/15 32/22/15 33/23/15
f 24/5/16 47/19/16 23/16/16
f 2/8/17 25/22/17 26/24/17
f 17/2/18 40/20/18 16/15/18
f 10/9/19 33/23/19 34/25/19
f 13/17/20 48/26/20 24/5/20
f 3/1/21 26/24/21 27/27/21
f 18/11/22 41/20/22 17/2/22
f 11/9/23 34/25/23 35/25/23
f 3/1/24 28/28/24 4/3/24
f 18/11/25 43/29/25 42/21/25
f 12/6/26 35/25/26 36/23/26
f 5/3/27 28/28/27 29/28/27
f 20/18/28 43/29/28 19/14/28
f 12/6/29 25/22/29 1/4/29
f 5/3/30 30/27/30 6/1/30
f 21/10/31 44/30/31 20/18/31
f 14/7/32 37/30/32 13/17/32
f 6/1/33 31/24/33 7/8/33
f 22/13/34 45/26/34 21/10/34
f 15/12/35 38/29/35 14/7/35
f 7/8/36 32/22/36 8/4/36
f 47/19/37 96/31/37 95/32/37
f 26/24/38 74/33/38 73/34/38
f 41/20/39 88/35/39 40/20/39
f 33/23/40 82/36/40 34/25/40
f 48/26/41 86/37/41 96/31/41
f 26/24/42 75/38/42 27/27/42
f 41/20/43 90/39/43 89/35/43
f 35/25/44 82/36/44 83/36/44
f 27/27/45 76/40/45 28/28/45
f 42/21/46 91/41/46 90/39/46
f 35/25/47 84/42/47 36/23/47
f 29/28/48 76/40/48 77/40/48
f 44/30/49 91/41/49 43/29/49
f 36/23/50 74/33/50 25/22/50
f 30/27/51 77/40/51 78/38/51
f 44/30/52 93/31/52 92/37/52
f 38/29/53 86/37/53 37/30/53
f 31/24/54 78/38/54 79/34/54
f 45/26/55 94/32/55 93/31/55
f 38/29/56 87/39/56 85/41/56
f 32/22/57 79/34/57 80/33/57
f 47/19/58 94/32/58 46/19/58
f 39/21/59 88/35/59 87/39/59
f 33/23/60 80/33/60 81/42/60
f 69/43/61 113/44/61 111/45/61
f 55/46/62 106/47/62 108/48/62
f 61/49/61 98/50/61 119/51/61
f 69/43/61 109/51/61 68/49/61
f 54/52/62 104/53/62 106/47/62
f 49/54/62 118/55/62 120/56/62
f 67/57/61 109/51/61 107/50/61
f 52/58/62 104/53/62 53/58/62
f 59/59/62 118/55/62 60/60/62
f 67/57/61 105/61/61 66/62/61
f 52/58/62 100/47/62 102/53/62
f 58/59/62 116/63/62 59/59/62
f 50/46/8 74/64/8 49/54/8
f 51/52/12 73/65/12 50/46/12
f 52/58/4 75/66/4 51/52/4
f 53/58/7 76/67/7 52/58/7
f 54/52/10 77/67/10 53/58/10
f 55/46/2 78/66/2 54/52/2
f 56/54/11 79/65/11 55/46/11
f 57/60/3 80/64/3 56/54/3
f 58/59/6 81/68/6 57/60/6
f 59/59/9 82/69/9 58/59/9
f 60/60/1 83/69/1 59/59/1
f 49/54/5 84/68/5 60/60/5
f 61/49/8 85/70/8 62/57/8
f 62/57/12 87/71/12 63/62/12
f 63/62/4 88/72/4 64/73/4
f 64/73/7 89/72/7 65/73/7
f 65/73/10 90/71/10 66/62/10
f 66/62/2 91/70/2 67/57/2
f 67/57/11 92/74/11 68/49/11
f 68/49/3 93/75/3 69/43/3
f 69/43/6 94/76/6 70/77/6
f 70/77/9 95/76/9 71/77/9
f 71/77/1 96/75/1 72/43/1
f 72/43/5 86/74/5 61/49/5
f 101/78/4 100/47/4 99/61/4
f 99/61/12 97/48/12 98/50/12
f 103/78/7 102/53/7 101/78/7
f 105/61/10 104/53/10 103/78/10
f 107/50/2 106/47/2 105/61/2
f 109/51/11 108/48/11 107/50/11
f 111/45/3 110/56/3 109/51/3
f 113/44/6 112/55/6 111/45/6
f 115/44/9 114/63/9 113/44/9
f 117/45/1 116/63/1 115/44/1
f 119/51/5 118/55/5 117/45/5
f 98/50/8 120/56/8 119/51/8
f 63/62/61 98/50/61 62/57/61
f 55/46/62 110/56/62 56/54/62
f 70/77/61 115/44/61 113/44/61
f 64/73/61 99/61/61 63/62/61
f 56/54/62 112/55/62 57/60/62
f 72/43/61 115/44/61 71/77/61
f 49/54/62 97/48/62 50/46/62
f 65/73/61 101/78/61 64/73/61
f 57/60/62 114/63/62 58/59/62
f 61/49/61 117/45/61 72/43/61
f 51/52/62 97/48/62 100/47/62
f 66/62/61 103/78/61 65/73/61
f 126/79/63 137/80/63 125/81/63
f 121/82/64 144/83/64 132/84/64
f 123/85/65 134/86/65 122/87/65
f 130/88/66 141/89/66 129/90/66
f 127/91/67 138/92/67 126/79/67
f 124/93/68 135/94/68 123/85/68
f 131/95/69 142/96/69 130/88/69
f 128/97/70 139/98/70 127/91/70
f 125/81/71 136/99/71 124/93/71
f 132/84/72 143/100/72 131/95/72
f 122/87/73 133/101/73 121/82/73
f 129/90/74 140/102/74 128/97/74
f 143/100/75 166/103/75 142/96/75
f 135/94/76 160/104/76 159/105/76
f 128/97/77 153/106/77 129/90/77
f 143/100/78 168/107/78 167/108/78
f 122/87/79 145/109/79 146/110/79
f 137/80/80 160/104/80 136/99/80
f 130/88/81 153/106/81 154/111/81
f 133/101/82 168/107/82 144/83/82
f 122/87/83 147/112/83 123/85/83
f 137/80/84 162/113/84 161/114/84
f 131/95/85 154/111/85 155/115/85
f 123/85/86 148/116/86 124/93/86
f 138/92/87 163/117/87 162/113/87
f 131/95/88 156/118/88 132/84/88
f 124/93/89 149/119/89 125/81/89
f 139/98/90 164/120/90 163/117/90
f 121/82/91 156/118/91 145/109/91
f 125/81/92 150/121/92 126/79/92
f 140/102/93 165/122/93 164/120/93
f 134/86/94 157/123/94 133/101/94
f 126/79/95 151/124/95 127/91/95
f 142/96/96 165/122/96 141/89/96
f 134/86/97 159/105/97 158/125/97
f 127/91/98 152/126/98 128/97/98
f 168/107/99 215/127/99 167/108/99
f 145/109/100 193/128/100 146/110/100
f 161/114/101 208/129/101 160/104/101
f 153/106/102 202/130/102 154/111/102
f 168/107/103 206/131/103 216/132/103
f 147/112/104 193/128/104 195/133/104
f 162/113/105 209/134/105 161/114/105
f 154/111/106 203/135/106 155/115/106
f 147/112/107 196/136/107 148/116/107
f 162/113/108 211/137/108 210/138/108
f 156/118/109 203/135/109 204/139/109
f 149/119/110 196/136/110 197/140/110
f 163/117/111 212/141/111 211/137/111
f 156/118/112 194/142/112 145/109/112
f 150/121/113 197/140/113 198/143/113
f 164/120/114 213/144/114 212/141/114
f 158/125/115 206/131/115 157/123/115
f 151/124/116 198/143/116 199/145/116
f 165/122/117 214/146/117 213/144/117
f 159/105/118 205/147/118 158/125/118
f 151/124/119 200/148/119 152/126/119
f 167/108/120 214/146/120 166/103/120
f 159/105/121 208/129/121 207/149/121
f 152/126/122 201/150/122 153/106/122
f 189/151/61 233/152/61 231/153/61
f 175/154/62 226/155/62 228/156/62
f 181/157/61 218/158/61 239/159/61
f 189/151/61 229/160/61 188/161/61
f 173/162/62 226/155/62 174/163/62
f 169/164/62 238/165/62 240/166/62
f 188/161/61 227/167/61 187/168/61
f 172/169/62 224/170/62 173/162/62
f 179/171/62 238/165/62 180/172/62
f 187/168/61 225/173/61 186/174/61
f 172/169/62 220/175/62 222/176/62
f 178/177/62 236/178/62 179/171/62
f 170/179/70 194/180/70 169/164/70
f 171/181/74 193/182/74 170/179/74
f 172/169/66 195/183/66 171/181/66
f 173/162/69 196/184/69 172/169/69
f 174/163/72 197/185/72 173/162/72
f 175/154/64 198/186/64 174/163/64
f 176/187/73 199/188/73 175/154/73
f 177/189/65 200/190/65 176/187/65
f 178/177/68 201/191/68 177/189/68
f 179/171/71 202/192/71 178/177/71
f 180/172/63 203/193/63 179/171/63
f 169/164/67 204/194/67 180/172/67
f 181/157/70 205/195/70 182/196/70
f 182/196/74 207/197/74 183/198/74
f 183/198/66 208/199/66 184/200/66
f 184/200/69 209/201/69 185/202/69
f 185/202/72 210/203/72 186/174/72
f 186/174/64 211/204/64 187/168/64
f 187/168/73 212/205/73 188/161/73
f 188/161/65 213/206/65 189/151/65
f 189/151/68 214/207/68 190/208/68
f 190/208/71 215/209/71 191/210/71
f 191/210/63 216/211/63 192/212/63
f 192/212/67 206/213/67 181/157/67
f 221/214/66 220/175/66 219/215/66
f 219/215/74 217/216/74 218/158/74
f 223/217/69 222/176/69 221/214/69
f 225/173/72 224/170/72 223/217/72
f 227/167/64 226/155/64 225/173/64
f 229/160/73 228/156/73 227/167/73
f 231/153/65 230/218/65 229/160/65
f 233/152/68 232/219/68 231/153/68
f 235/220/71 234/221/71 233/152/71
f 237/222/63 236/178/63 235/220/63
f 239/159/67 238/165/67 237/222/67
f 218/158/70 240/166/70 239/159/70
f 182/196/61 219/215/61 218/158/61
f 175/154/62 230/218/62 176/187/62
f 190/208/61 235/220/61 233/152/61
f 184/200/61 219/215/61 183/198/61
f 176/187/62 232/219/62 177/189/62
f 192/212/61 235/220/61 191/210/61
f 169/164/62 217/216/62 170/179/62
f 184/200/61 223/217/61 221/214/61
f 178/177/62 232/219/62 234/221/62
f 181/157/61 237/222/61 192/212/61
f 170/179/62 220/175/62 171/181/62
f 186/174/61 223/217/61 185/202/61
f 246/223/123 257/224/123 245/225/123
f 241/226/124 264/227/124 252/228/124
f 243/229/125 254/230/125 242/231/125
f 250/232/126 261/233/126 249/234/126
f 247/235/127 258/236/127 246/223/127
f 244/237/128 255/238/128 243/229/128
f 251/239/129 262/240/129 250/232/129
f 248/241/130 259/242/130 247/235/130
f 245/225/131 256/243/131 244/237/131
f 252/228/132 263/244/132 251/239/132
f 242/231/133 253/245/133 241/226/133
f 249/234/134 260/246/134 248/241/134
f 262/240/135 287/247/135 286/248/135
f 256/243/136 279/249/136 255/238/136
f 248/241/137 273/250/137 249/234/137
f 263/244/138 288/251/138 287/247/138
f 241/226/139 266/252/139 242/231/139
f 256/243/140 281/253/140 280/254/140
f 249/234/141 274/255/141 250/232/141
f 264/227/142 277/256/142 288/251/142
f 242/231/143 267/257/143 243/229/143
f 257/224/144 282/258/144 281/253/144
f 250/232/145 275/259/145 251/239/145
f 244/237/146 267/257/146 268/260/146
f 259/242/147 282/258/147 258/236/147
f 251/239/148 276/261/148 252/228/148
f 244/237/149 269/262/149 245/225/149
f 260/246/150 283/263/150 259/242/150
f 252/228/151 265/264/151 241/226/151
f 245/225/152 270/265/152 246/223/152
f 260/246/153 285/266/153 284/267/153
f 253/245/154 278/268/154 277/256/154
f 247/235/155 270/265/155 271/269/155
f 261/233/156 286/248/156 285/266/156
f 255/238/157 278/268/157 254/230/157
f 247/235/158 272/270/158 248/241/158
f 287/247/159 336/271/159 335/272/159
f 266/252/160 314/273/160 313/274/160
f 281/253/161 328/275/161 280/254/161
f 273/250/162 322/276/162 274/255/162
f 288/251/163 326/277/163 336/271/163
f 267/257/164 313/274/164 315/278/164
f 282/258/165 329/279/165 281/253/165
f 275/259/166 322/276/166 323/280/166
f 267/257/167 316/281/167 268/260/167
f 282/258/168 331/282/168 330/283/168
f 276/261/169 323/280/169 324/284/169
f 269/262/170 316/281/170 317/285/170
f 284/267/171 331/282/171 283/263/171
f 276/261/172 314/273/172 265/264/172
f 270/265/173 317/285/173 318/286/173
f 285/266/174 332/287/174 284/267/174
f 278/268/175 326/277/175 277/256/175
f 270/265/176 319/288/176 271/269/176
f 285/266/177 334/289/177 333/290/177
f 279/249/178 325/291/178 278/268/178
f 272/270/179 319/288/179 320/292/179
f 287/247/180 334/289/180 286/248/180
f 279/249/181 328/275/181 327/293/181
f 273/250/182 320/292/182 321/294/182
f 310/295/61 351/296/61 309/297/61
f 294/298/62 348/299/62 295/300/62
f 301/301/61 338/302/61 359/303/61
f 309/297/61 349/304/61 308/305/61
f 293/306/62 346/307/62 294/298/62
f 289/308/62 358/309/62 360/310/62
f 308/305/61 347/311/61 307/312/61
f 292/313/62 344/314/62 293/306/62
f 300/315/62 356/316/62 358/309/62
f 306/317/61 347/311/61 345/318/61
f 292/313/62 340/319/62 342/320/62
f 298/321/62 356/316/62 299/322/62
f 290/323/130 314/324/130 289/308/130
f 291/325/134 313/326/134 290/323/134
f 292/313/126 315/327/126 291/325/126
f 293/306/129 316/328/129 292/313/129
f 294/298/132 317/329/132 293/306/132
f 295/300/124 318/330/124 294/298/124
f 296/331/133 319/332/133 295/300/133
f 297/333/125 320/334/125 296/331/125
f 298/321/128 321/335/128 297/333/128
f 299/322/131 322/336/131 298/321/131
f 300/315/123 323/337/123 299/322/123
f 289/308/127 324/338/127 300/315/127
f 301/301/130 325/339/130 302/340/130
f 302/340/134 327/341/134 303/342/134
f 303/342/126 328/343/126 304/344/126
f 304/344/129 329/345/129 305/346/129
f 305/346/132 330/347/132 306/317/132
f 306/317/124 331/348/124 307/312/124
f 307/312/133 332/349/133 308/305/133
f 308/305/125 333/350/125 309/297/125
f 309/297/128 334/351/128 310/295/128
f 310/295/131 335/352/131 311/353/131
f 311/353/123 336/354/123 312/355/123
f 312/355/127 326/356/127 301/301/127
f 341/357/126 340/319/126 339/358/126
f 339/358/134 337/359/134 338/302/134
f 343/360/129 342/320/129 341/357/129
f 345/318/132 344/314/132 343/360/132
f 347/311/124 346/307/124 345/318/124
f 349/304/133 348/299/133 347/311/133
f 351/296/125 350/361/125 349/304/125
f 353/362/128 352/363/128 351/296/128
f 355/364/131 354/365/131 353/362/131
f 357/366/123 356/316/123 355/364/123
f 359/303/127 358/309/127 357/366/127
f 338/302/130 360/310/130 359/303/130
f 303/342/61 338/302/61 302/340/61
f 295/300/62 350/361/62 296/331/62
f 310/295/61 355/364/61 353/362/61
f 304/344/61 339/358/61 303/342/61
f 297/333/62 350/361/62 352/363/62
f 312/355/61 355/364/61 311/353/61
f 289/308/62 337/359/62 290/323/62
f 304/344/61 343/360/61 341/357/61
f 298/321/62 352/363/62 354/365/62
f 301/301/61 357/366/61 312/355/61
f 291/325/62 337/359/62 340/319/62
f 305/346/61 345/318/61 343/360/61
f 365/367/183 378/368/183 377/369/183
f 361/370/184 384/371/184 372/372/184
f 362/373/185 375/374/185 374/375/185
f 370/376/186 381/377/186 369/378/186
f 367/379/187 378/368/187 366/380/187
f 364/381/188 375/374/188 363/382/188
f 371/383/189 382/384/189 370/376/189
f 368/385/190 379/386/190 367/379/190
f 364/381/191 377/369/191 376/387/191
f 371/383/192 384/371/192 383/388/192
f 362/373/193 373/389/193 361/370/193
f 368/385/194 381/377/194 380/390/194
f 383/388/195 406/391/195 382/384/195
f 376/387/196 399/392/196 375/374/196
f 369/378/197 392/393/197 393/394/197
f 384/371/198 407/395/198 383/388/198
f 362/373/199 385/396/199 386/397/199
f 376/387/200 401/398/200 400/399/200
f 369/378/201 394/400/201 370/376/201
f 373/389/202 408/401/202 384/371/202
f 363/382/203 386/397/203 387/402/203
f 377/369/204 402/403/204 401/398/204
f 370/376/205 395/404/205 371/383/205
f 364/381/206 387/402/206 388/405/206
f 378/368/207 403/406/207 402/403/207
f 372/372/208 395/404/208 396/407/208
f 365/367/209 388/405/209 389/408/209
f 379/386/210 404/409/210 403/406/210
f 361/370/211 396/407/211 385/396/211
f 365/367/212 390/410/212 366/380/212
f 381/377/213 404/409/213 380/390/213
f 373/389/214 398/411/214 397/412/214
f 366/380/215 391/413/215 367/379/215
f 382/384/216 405/414/216 381/377/216
f 375/374/217 398/411/217 374/375/217
f 367/379/218 392/393/218 368/385/218
f 407/395/219 456/415/219 455/416/219
f 386/397/220 434/417/220 433/418/220
f 401/398/221 448/419/221 400/399/221
f 394/400/222 441/420/222 442/421/222
f 397/412/223 456/415/223 408/401/223
f 386/397/224 435/422/224 387/402/224
f 402/403/225 449/423/225 401/398/225
f 395/404/226 442/421/226 443/424/226
f 387/402/227 436/425/227 388/405/227
f 402/403/228 451/426/228 450/427/228
f 396/407/229 443/424/229 444/428/229
f 388/405/230 437/429/230 389/408/230
f 404/409/231 451/426/231 403/406/231
f 385/396/232 444/428/232 434/417/232
f 390/410/233 437/429/233 438/430/233
f 404/409/234 453/431/234 452/432/234
f 398/411/235 446/433/235 397/412/235
f 390/410/236 439/434/236 391/413/236
f 405/414/237 454/435/237 453/431/237
f 398/411/238 447/436/238 445/437/238
f 392/393/239 439/434/239 440/438/239
f 406/391/240 455/416/240 454/435/240
f 399/392/241 448/419/241 447/436/241
f 393/394/242 440/438/242 441/420/242
f 429/439/243 473/440/243 471/441/243
f 414/442/244 468/443/244 415/444/244
f 421/445/243 458/446/243 479/447/243
f 429/439/243 469/448/243 428/449/243
f 414/442/244 464/450/244 466/451/244
f 420/452/244 480/453/244 409/454/244
f 427/455/243 469/448/243 467/456/243
f 412/457/244 464/450/244 413/458/244
f 419/459/244 478/460/244 420/452/244
f 427/455/243 465/461/243 426/462/243
f 411/463/244 462/464/244 412/457/244
f 418/465/244 476/466/244 419/459/244
f 410/467/190 434/468/190 409/454/190
f 410/467/194 435/469/194 433/470/194
f 412/457/186 435/469/186 411/463/186
f 413/458/189 436/471/189 412/457/189
f 414/442/192 437/472/192 413/458/192
f 415/444/184 438/473/184 414/442/184
f 415/444/193 440/474/193 439/475/193
f 417/476/185 440/474/185 416/477/185
f 417/476/188 442/478/188 441/479/188
f 418/465/191 443/480/191 442/478/191
f 420/452/183 443/480/183 419/459/183
f 409/454/187 444/481/187 420/452/187
f 422/482/190 446/483/190 445/484/190
f 422/482/194 447/485/194 423/486/194
f 423/486/186 448/487/186 424/488/186
f 424/488/189 449/489/189 425/490/189
f 425/490/192 450/491/192 426/462/192
f 426/462/184 451/492/184 427/455/184
f 427/455/193 452/493/193 428/449/193
f 428/449/185 453/494/185 429/439/185
f 429/439/188 454/495/188 430/496/188
f 430/496/191 455/497/191 431/498/191
f 431/498/183 456/499/183 432/500/183
f 432/500/187 446/483/187 421/445/187
f 459/501/186 462/464/186 460/502/186
f 459/501/194 457/503/194 458/446/194
f 461/504/189 464/450/189 462/464/189
f 463/505/192 466/451/192 464/450/192
f 467/456/184 466/451/184 465/461/184
f 467/456/193 470/506/193 468/443/193
f 471/441/185 470/506/185 469/448/185
f 473/440/188 472/507/188 471/441/188
f 475/508/191 474/509/191 473/440/191
f 475/508/183 478/460/183 476/466/183
f 479/447/187 478/460/187 477/510/187
f 479/447/190 457/503/190 480/453/190
f 423/486/243 458/446/243 422/482/243
f 415/444/244 470/506/244 416/477/244
f 430/496/243 475/508/243 473/440/243
f 424/488/243 459/501/243 423/486/243
f 417/476/244 470/506/244 472/507/244
f 432/500/243 475/508/243 431/498/243
f 409/454/244 457/503/244 410/467/244
f 424/488/243 463/505/243 461/504/243
f 417/476/244 474/509/244 418/465/244
f 432/500/243 479/447/243 477/510/243
f 411/463/244 457/503/244 460/502/244
f 426/462/243 463/505/243 425/490/243
f 6/1/1 18/11/1 17/2/1
f 1/4/2 13/17/2 24/5/2
f 3/1/3 15/12/3 14/7/3
f 10/9/4 22/13/4 21/10/4
f 7/8/5 19/14/5 18/11/5
f 4/3/6 16/15/6 15/12/6
f 11/9/7 23/16/7 22/13/7
f 8/4/8 20/18/8 19/14/8
f 5/3/9 17/2/9 16/15/9
f 12/6/10 24/5/10 23/16/10
f 2/8/11 14/7/11 13/17/11
f 9/6/12 21/10/12 20/18/12
f 23/16/13 47/19/13 46/19/13
f 15/12/14 16/15/14 40/20/14
f 9/6/15 8/4/15 32/22/15
f 24/5/16 48/26/16 47/19/16
f 2/8/17 1/4/17 25/22/17
f 17/2/18 41/20/18 40/20/18
f 10/9/19 9/6/19 33/23/19
f 13/17/20 37/30/20 48/26/20
f 3/1/21 2/8/21 26/24/21
f 18/11/22 42/21/22 41/20/22
f 11/9/23 10/9/23 34/25/23
f 3/1/24 27/27/24 28/28/24
f 18/11/25 19/14/25 43/29/25
f 12/6/26 11/9/26 35/25/26
f 5/3/245 4/3/245 28/28/245
f 20/18/28 44/30/28 43/29/28
f 12/6/29 36/23/29 25/22/29
f 5/3/30 29/28/30 30/27/30
f 21/10/31 45/26/31 44/30/31
f 14/7/32 38/29/32 37/30/32
f 6/1/33 30/27/33 31/24/33
f 22/13/34 46/19/34 45/26/34
f 15/12/35 39/21/35 38/29/35
f 7/8/36 31/24/36 32/22/36
f 47/19/37 48/26/37 96/31/37
f 26/24/38 25/22/38 74/33/38
f 41/20/39 89/35/39 88/35/39
f 33/23/40 81/42/40 82/36/40
f 48/26/41 37/30/41 86/37/41
f 26/24/42 73/34/42 75/38/42
f 41/20/43 42/21/43 90/39/43
f 35/25/44 34/25/44 82/36/44
f 27/27/45 75/38/45 76/40/45
f 42/21/46 43/29/46 91/41/46
f 35/25/47 83/36/47 84/42/47
f 29/28/48 28/28/48 76/40/48
f 44/30/49 92/37/49 91/41/49
f 36/23/50 84/42/50 74/33/50
f 30/27/51 29/28/51 77/40/51
f 44/30/52 45/26/52 93/31/52
f 38/29/53 85/41/53 86/37/53
f 31/24/54 30/27/54 78/38/54
f 45/26/55 46/19/55 94/32/55
f 38/29/56 39/21/56 87/39/56
f 32/22/57 31/24/57 79/34/57
f 47/19/58 95/32/58 94/32/58
f 39/21/59 40/20/59 88/35/59
f 33/23/60 32/22/60 80/33/60
f 69/43/61 70/77/61 113/44/61
f 55/46/62 54/52/62 106/47/62
f 61/49/61 62/57/61 98/50/61
f 69/43/61 111/45/61 109/51/61
f 54/52/62 53/58/62 104/53/62
f 49/54/62 60/60/62 118/55/62
f 67/57/61 68/49/61 109/51/61
f 52/58/62 102/53/62 104/53/62
f 59/59/62 116/63/62 118/55/62
f 67/57/61 107/50/61 105/61/61
f 52/58/62 51/52/62 100/47/62
f 58/59/62 114/63/62 116/63/62
f 50/46/8 73/65/8 74/64/8
f 51/52/12 75/66/12 73/65/12
f 52/58/4 76/67/4 75/66/4
f 53/58/7 77/67/7 76/67/7
f 54/52/10 78/66/10 77/67/10
f 55/46/2 79/65/2 78/66/2
f 56/54/11 80/64/11 79/65/11
f 57/60/3 81/68/3 80/64/3
f 58/59/6 82/69/6 81/68/6
f 59/59/9 83/69/9 82/69/9
f 60/60/1 84/68/1 83/69/1
f 49/54/5 74/64/5 84/68/5
f 61/49/8 86/74/8 85/70/8
f 62/57/12 85/70/12 87/71/12
f 63/62/4 87/71/4 88/72/4
f 64/73/7 88/72/7 89/72/7
f 65/73/10 89/72/10 90/71/10
f 66/62/2 90/71/2 91/70/2
f 67/57/11 91/70/11 92/74/11
f 68/49/3 92/74/3 93/75/3
f 69/43/6 93/75/6 94/76/6
f 70/77/9 94/76/9 95/76/9
f 71/77/1 95/76/1 96/75/1
f 72/43/5 96/75/5 86/74/5
f 101/78/4 102/53/4 100/47/4
f 99/61/12 100/47/12 97/48/12
f 103/78/7 104/53/7 102/53/7
f 105/61/10 106/47/10 104/53/10
f 107/50/2 108/48/2 106/47/2
f 109/51/11 110/56/11 108/48/11
f 111/45/3 112/55/3 110/56/3
f 113/44/6 114/63/6 112/55/6
f 115/44/9 116/63/9 114/63/9
f 117/45/1 118/55/1 116/63/1
f 119/51/5 120/56/5 118/55/5
f 98/50/8 97/48/8 120/56/8
f 63/62/61 99/61/61 98/50/61
f 55/46/62 108/48/62 110/56/62
f 70/77/61 71/77/61 115/44/61
f 64/73/61 101/78/61 99/61/61
f 56/54/62 110/56/62 112/55/62
f 72/43/61 117/45/61 115/44/61
f 49/54/62 120/56/62 97/48/62
f 65/73/61 103/78/61 101/78/61
f 57/60/62 112/55/62 114/63/62
f 61/49/61 119/51/61 117/45/61
f 51/52/62 50/46/62 97/48/62
f 66/62/61 105/61/61 103/78/61
f 126/79/63 138/92/63 137/80/63
f 121/82/64 133/101/64 144/83/64
f 123/85/65 135/94/65 134/86/65
f 130/88/66 142/96/66 141/89/66
f 127/91/67 139/98/67 138/92/67
f 124/93/68 136/99/68 135/94/68
f 131/95/69 143/100/69 142/96/69
f 128/97/70 140/102/70 139/98/70
f 125/81/71 137/80/71 136/99/71
f 132/84/72 144/83/72 143/100/72
f 122/87/73 134/86/73 133/101/73
f 129/90/74 141/89/74 140/102/74
f 143/100/75 167/108/75 166/103/75
f 135/94/76 136/99/76 160/104/76
f 128/97/77 152/126/77 153/106/77
f 143/100/78 144/83/78 168/107/78
f 122/87/79 121/82/79 145/109/79
f 137/80/80 161/114/80 160/104/80
f 130/88/81 129/90/81 153/106/81
f 133/101/82 157/123/82 168/107/82
f 122/87/83 146/110/83 147/112/83
f 137/80/84 138/92/84 162/113/84
f 131/95/85 130/88/85 154/111/85
f 123/85/86 147/112/86 148/116/86
f 138/92/87 139/98/87 163/117/87
f 131/95/88 155/115/88 156/118/88
f 124/93/89 148/116/89 149/119/89
f 139/98/246 140/102/246 164/120/246
f 121/82/91 132/84/91 156/118/91
f 125/81/92 149/119/92 150/121/92
f 140/102/93 141/89/93 165/122/93
f 134/86/247 158/125/247 157/123/247
f 126/79/95 150/121/95 151/124/95
f 142/96/96 166/103/96 165/122/96
f 134/86/97 135/94/97 159/105/97
f 127/91/248 151/124/248 152/126/248
f 168/107/99 216/132/99 215/127/99
f 145/109/100 194/142/100 193/128/100
f 161/114/101 209/134/101 208/129/101
f 153/106/102 201/150/102 202/130/102
f 168/107/103 157/123/103 206/131/103
f 147/112/104 146/110/104 193/128/104
f 162/113/105 210/138/105 209/134/105
f 154/111/106 202/130/106 203/135/106
f 147/112/107 195/133/107 196/136/107
f 162/113/108 163/117/108 211/137/108
f 156/118/109 155/115/109 203/135/109
f 149/119/110 148/116/110 196/136/110
f 163/117/111 164/120/111 212/141/111
f 156/118/112 204/139/112 194/142/112
f 150/121/113 149/119/113 197/140/113
f 164/120/114 165/122/114 213/144/114
f 158/125/115 205/147/115 206/131/115
f 151/124/116 150/121/116 198/143/116
f 165/122/117 166/103/117 214/146/117
f 159/105/118 207/149/118 205/147/118
f 151/124/119 199/145/119 200/148/119
f 167/108/120 215/127/120 214/146/120
f 159/105/121 160/104/121 208/129/121
f 152/126/122 200/148/122 201/150/122
f 189/151/61 190/208/61 233/152/61
f 175/154/62 174/163/62 226/155/62
f 181/157/61 182/196/61 218/158/61
f 189/151/61 231/153/61 229/160/61
f 173/162/62 224/170/62 226/155/62
f 169/164/62 180/172/62 238/165/62
f 188/161/61 229/160/61 227/167/61
f 172/169/62 222/176/62 224/170/62
f 179/171/62 236/178/62 238/165/62
f 187/168/61 227/167/61 225/173/61
f 172/169/62 171/181/62 220/175/62
f 178/177/62 234/221/62 236/178/62
f 170/179/70 193/182/70 194/180/70
f 171/181/74 195/183/74 193/182/74
f 172/169/66 196/184/66 195/183/66
f 173/162/69 197/185/69 196/184/69
f 174/163/72 198/186/72 197/185/72
f 175/154/64 199/188/64 198/186/64
f 176/187/73 200/190/73 199/188/73
f 177/189/65 201/191/65 200/190/65
f 178/177/68 202/192/68 201/191/68
f 179/171/71 203/193/71 202/192/71
f 180/172/63 204/194/63 203/193/63
f 169/164/67 194/180/67 204/194/67
f 181/157/70 206/213/70 205/195/70
f 182/196/74 205/195/74 207/197/74
f 183/198/66 207/197/66 208/199/66
f 184/200/69 208/199/69 209/201/69
f 185/202/72 209/201/72 210/203/72
f 186/174/64 210/203/64 211/204/64
f 187/168/73 211/204/73 212/205/73
f 188/161/65 212/205/65 213/206/65
f 189/151/68 213/206/68 214/207/68
f 190/208/71 214/207/71 215/209/71
f 191/210/63 215/209/63 216/211/63
f 192/212/67 216/211/67 206/213/67
f 221/214/66 222/176/66 220/175/66
f 219/215/74 220/175/74 217/216/74
f 223/217/69 224/170/69 222/176/69
f 225/173/72 226/155/72 224/170/72
f 227/167/64 228/156/64 226/155/64
f 229/160/73 230/218/73 228/156/73
f 231/153/65 232/219/65 230/218/65
f 233/152/68 234/221/68 232/219/68
f 235/220/71 236/178/71 234/221/71
f 237/222/63 238/165/63 236/178/63
f 239/159/67 240/166/67 238/165/67
f 218/158/70 217/216/70 240/166/70
f 182/196/61 183/198/61 219/215/61
f 175/154/62 228/156/62 230/218/62
f 190/208/61 191/210/61 235/220/61
f 184/200/61 221/214/61 219/215/61
f 176/187/62 230/218/62 232/219/62
f 192/212/61 237/222/61 235/220/61
f 169/164/62 240/166/62 217/216/62
f 184/200/61 185/202/61 223/217/61
f 178/177/62 177/189/62 232/219/62
f 181/157/61 239/159/61 237/222/61
f 170/179/62 217/216/62 220/175/62
f 186/174/61 225/173/61 223/217/61
f 246/223/123 258/236/123 257/224/123
f 241/226/124 253/245/124 264/227/124
f 243/229/125 255/238/125 254/230/125
f 250/232/126 262/240/126 261/233/126
f 247/235/127 259/242/127 258/236/127
f 244/237/128 256/243/128 255/238/128
f 251/239/129 263/244/129 262/240/129
f 248/241/130 260/246/130 259/242/130
f 245/225/131 257/224/131 256/243/131
f 252/228/132 264/227/132 263/244/132
f 242/231/133 254/230/133 253/245/133
f 249/234/134 261/233/134 260/246/134
f 262/240/135 263/244/135 287/247/135
f 256/243/136 280/254/136 279/249/136
f 248/241/137 272/270/137 273/250/137
f 263/244/138 264/227/138 288/251/138
f 241/226/139 265/264/139 266/252/139
f 256/243/140 257/224/140 281/253/140
f 249/234/141 273/250/141 274/255/141
f 264/227/142 253/245/142 277/256/142
f 242/231/143 266/252/143 267/257/143
f 257/224/144 258/236/144 282/258/144
f 250/232/145 274/255/145 275/259/145
f 244/237/146 243/229/146 267/257/146
f 259/242/147 283/263/147 282/258/147
f 251/239/148 275/259/148 276/261/148
f 244/237/149 268/260/149 269/262/149
f 260/246/150 284/267/150 283/263/150
f 252/228/151 276/261/151 265/264/151
f 245/225/152 269/262/152 270/265/152
f 260/246/153 261/233/153 285/266/153
f 253/245/154 254/230/154 278/268/154
f 247/235/155 246/223/155 270/265/155
f 261/233/156 262/240/156 286/248/156
f 255/238/157 279/249/157 278/268/157
f 247/235/158 271/269/158 272/270/158
f 287/247/159 288/251/159 336/271/159
f 266/252/160 265/264/160 314/273/160
f 281/253/161 329/279/161 328/275/161
f 273/250/162 321/294/162 322/276/162
f 288/251/163 277/256/163 326/277/163
f 267/257/164 266/252/164 313/274/164
f 282/258/165 330/283/165 329/279/165
f 275/259/166 274/255/166 322/276/166
f 267/257/167 315/278/167 316/281/167
f 282/258/168 283/263/168 331/282/168
f 276/261/169 275/259/169 323/280/169
f 269/262/170 268/260/170 316/281/170
f 284/267/171 332/287/171 331/282/171
f 276/261/172 324/284/172 314/273/172
f 270/265/173 269/262/173 317/285/173
f 285/266/174 333/290/174 332/287/174
f 278/268/175 325/291/175 326/277/175
f 270/265/176 318/286/176 319/288/176
f 285/266/177 286/248/177 334/289/177
f 279/249/178 327/293/178 325/291/178
f 272/270/179 271/269/179 319/288/179
f 287/247/180 335/272/180 334/289/180
f 279/249/181 280/254/181 328/275/181
f 273/250/182 272/270/182 320/292/182
f 310/295/61 353/362/61 351/296/61
f 294/298/62 346/307/62 348/299/62
f 301/301/61 302/340/61 338/302/61
f 309/297/61 351/296/61 349/304/61
f 293/306/62 344/314/62 346/307/62
f 289/308/62 300/315/62 358/309/62
f 308/305/61 349/304/61 347/311/61
f 292/313/62 342/320/62 344/314/62
f 300/315/62 299/322/62 356/316/62
f 306/317/61 307/312/61 347/311/61
f 292/313/62 291/325/62 340/319/62
f 298/321/62 354/365/62 356/316/62
f 290/323/130 313/326/130 314/324/130
f 291/325/134 315/327/134 313/326/134
f 292/313/126 316/328/126 315/327/126
f 293/306/129 317/329/129 316/328/129
f 294/298/132 318/330/132 317/329/132
f 295/300/124 319/332/124 318/330/124
f 296/331/133 320/334/133 319/332/133
f 297/333/125 321/335/125 320/334/125
f 298/321/128 322/336/128 321/335/128
f 299/322/131 323/337/131 322/336/131
f 300/315/123 324/338/123 323/337/123
f 289/308/127 314/324/127 324/338/127
f 301/301/130 326/356/130 325/339/130
f 302/340/134 325/339/134 327/341/134
f 303/342/126 327/341/126 328/343/126
f 304/344/129 328/343/129 329/345/129
f 305/346/132 329/345/132 330/347/132
f 306/317/124 330/347/124 331/348/124
f 307/312/133 331/348/133 332/349/133
f 308/305/125 332/349/125 333/350/125
f 309/297/128 333/350/128 334/351/128
f 310/295/131 334/351/131 335/352/131
f 311/353/123 335/352/123 336/354/123
f 312/355/127 336/354/127 326/356/127
f 341/357/126 342/320/126 340/319/126
f 339/358/134 340/319/134 337/359/134
f 343/360/129 344/314/129 342/320/129
f 345/318/132 346/307/132 344/314/132
f 347/311/124 348/299/124 346/307/124
f 349/304/133 350/361/133 348/299/133
f 351/296/125 352/363/125 350/361/125
f 353/362/128 354/365/128 352/363/128
f 355/364/131 356/316/131 354/365/131
f 357/366/123 358/309/123 356/316/123
f 359/303/127 360/310/127 358/309/127
f 338/302/130 337/359/130 360/310/130
f 303/342/61 339/358/61 338/302/61
f 295/300/62 348/299/62 350/361/62
f 310/295/61 311/353/61 355/364/61
f 304/344/61 341/357/61 339/358/61
f 297/333/62 296/331/62 350/361/62
f 312/355/61 357/366/61 355/364/61
f 289/308/62 360/310/62 337/359/62
f 304/344/61 305/346/61 343/360/61
f 298/321/62 297/333/62 352/363/62
f 301/301/61 359/303/61 357/366/61
f 291/325/62 290/323/62 337/359/62
f 305/346/61 306/317/61 345/318/61
f 365/367/183 366/380/183 378/368/183
f 361/370/184 373/389/184 384/371/184
f 362/373/185 363/382/185 375/374/185
f 370/376/186 382/384/186 381/377/186
f 367/379/187 379/386/187 378/368/187
f 364/381/188 376/387/188 375/374/188
f 371/383/189 383/388/189 382/384/189
f 368/385/190 380/390/190 379/386/190
f 364/381/191 365/367/191 377/369/191
f 371/383/192 372/372/192 384/371/192
f 362/373/193 374/375/193 373/389/193
f 368/385/194 369/378/194 381/377/194
f 383/388/195 407/395/195 406/391/195
f 376/387/196 400/399/196 399/392/196
f 369/378/197 368/385/197 392/393/197
f 384/371/198 408/401/198 407/395/198
f 362/373/199 361/370/199 385/396/199
f 376/387/200 377/369/200 401/398/200
f 369/378/201 393/394/201 394/400/201
f 373/389/202 397/412/202 408/401/202
f 363/382/203 362/373/203 386/397/203
f 377/369/204 378/368/204 402/403/204
f 370/376/205 394/400/205 395/404/205
f 364/381/206 363/382/206 387/402/206
f 378/368/207 379/386/207 403/406/207
f 372/372/208 371/383/208 395/404/208
f 365/367/209 364/381/209 388/405/209
f 379/386/210 380/390/210 404/409/210
f 361/370/211 372/372/211 396/407/211
f 365/367/212 389/408/212 390/410/212
f 381/377/213 405/414/213 404/409/213
f 373/389/214 374/375/214 398/411/214
f 366/380/215 390/410/215 391/413/215
f 382/384/216 406/391/216 405/414/216
f 375/374/217 399/392/217 398/411/217
f 367/379/218 391/413/218 392/393/218
f 407/395/219 408/401/219 456/415/219
f 386/397/220 385/396/220 434/417/220
f 401/398/221 449/423/221 448/419/221
f 394/400/222 393/394/222 441/420/222
f 397/412/223 446/433/223 456/415/223
f 386/397/224 433/418/224 435/422/224
f 402/403/225 450/427/225 449/423/225
f 395/404/226 394/400/226 442/421/226
f 387/402/227 435/422/227 436/425/227
f 402/403/228 403/406/228 451/426/228
f 396/407/229 395/404/229 443/424/229
f 388/405/230 436/425/230 437/429/230
f 404/409/231 452/432/231 451/426/231
f 385/396/232 396/407/232 444/428/232
f 390/410/233 389/408/233 437/429/233
f 404/409/234 405/414/234 453/431/234
f 398/411/235 445/437/235 446/433/235
f 390/410/236 438/430/236 439/434/236
f 405/414/237 406/391/237 454/435/237
f 398/411/238 399/392/238 447/436/238
f 392/393/239 391/413/239 439/434/239
f 406/391/240 407/395/240 455/416/240
f 399/392/241 400/399/241 448/419/241
f 393/394/242 392/393/242 440/438/242
f 429/439/243 430/496/243 473/440/243
f 414/442/244 466/451/244 468/443/244
f 421/445/243 422/482/243 458/446/243
f 429/439/243 471/441/243 469/448/243
f 414/442/244 413/458/244 464/450/244
f 420/452/244 478/460/244 480/453/244
f 427/455/243 428/449/243 469/448/243
f 412/457/244 462/464/244 464/450/244
f 419/459/244 476/466/244 478/460/244
f 427/455/243 467/456/243 465/461/243
f 411/463/244 460/502/244 462/464/244
f 418/465/244 474/509/244 476/466/244
f 410/467/190 433/470/190 434/468/190
f 410/467/194 411/463/194 435/469/194
f 412/457/186 436/471/186 435/469/186
f 413/458/189 437/472/189 436/471/189
f 414/442/192 438/473/192 437/472/192
f 415/444/184 439/475/184 438/473/184
f 415/444/193 416/477/193 440/474/193
f 417/476/185 441/479/185 440/474/185
f 417/476/188 418/465/188 442/478/188
f 418/465/191 419/459/191 443/480/191
f 420/452/183 444/481/183 443/480/183
f 409/454/187 434/468/187 444/481/187
f 422/482/190 421/445/190 446/483/190
f 422/482/194 445/484/194 447/485/194
f 423/486/186 447/485/186 448/487/186
f 424/488/189 448/487/189 449/489/189
f 425/490/192 449/489/192 450/491/192
f 426/462/184 450/491/184 451/492/184
f 427/455/193 451/492/193 452/493/193
f 428/449/185 452/493/185 453/494/185
f 429/439/188 453/494/188 454/495/188
f 430/496/191 454/495/191 455/497/191
f 431/498/183 455/497/183 456/499/183
f 432/500/187 456/499/187 446/483/187
f 459/501/186 461/504/186 462/464/186
f 459/501/194 460/502/194 457/503/194
f 461/504/189 463/505/189 464/450/189
f 463/505/192 465/461/192 466/451/192
f 467/456/184 468/443/184 466/451/184
f 467/456/193 469/448/193 470/506/193
f 471/441/185 472/507/185 470/506/185
f 473/440/188 474/509/188 472/507/188
f 475/508/191 476/466/191 474/509/191
f 475/508/183 477/510/183 478/460/183
f 479/447/187 480/453/187 478/460/187
f 479/447/190 458/446/190 457/503/190
f 423/486/243 459/501/243 458/446/243
f 415/444/244 468/443/244 470/506/244
f 430/496/243 431/498/243 475/508/243
f 424/488/243 461/504/243 459/501/243
f 417/476/244 416/477/244 470/506/244
f 432/500/243 477/510/243 475/508/243
f 409/454/244 480/453/244 457/503/244
f 424/488/243 425/490/243 463/505/243
f 417/476/244 472/507/244 474/509/244
f 432/500/243 421/445/243 479/447/243
f 411/463/244 410/467/244 457/503/244
f 426/462/243 465/461/243 463/505/243
