# Blender 4.4.0
# www.blender.org
mtllib Prop_Wooden_Table_01.mtl
o Prop_Wooden_Table_01
v 0.056075 0.692435 0.761540
v 0.165900 0.692435 0.761540
v 0.056075 0.692435 0.726450
v 0.165900 0.692435 0.726450
v 0.470964 0.000000 0.726450
v 0.470964 0.000000 0.761540
v 0.580789 0.000000 0.761540
v 0.580789 0.000000 0.726450
v -0.056075 0.692435 0.761540
v -0.165900 0.692435 0.761540
v -0.056075 0.692435 0.726450
v -0.165900 0.692435 0.726450
v -0.470964 0.000000 0.726450
v -0.470964 0.000000 0.761540
v -0.580789 0.000000 0.761540
v -0.580789 0.000000 0.726450
v 0.056075 0.692435 -0.761540
v 0.165900 0.692435 -0.761540
v 0.056075 0.692435 -0.726450
v 0.165900 0.692435 -0.726450
v 0.470964 0.000000 -0.726450
v 0.470964 0.000000 -0.761540
v 0.580789 0.000000 -0.761540
v 0.580789 0.000000 -0.726450
v -0.056075 0.692435 -0.761540
v -0.165900 0.692435 -0.761540
v -0.056075 0.692435 -0.726450
v -0.165900 0.692435 -0.726450
v -0.470964 0.000000 -0.726450
v -0.470964 0.000000 -0.761540
v -0.580789 0.000000 -0.761540
v -0.580789 0.000000 -0.726450
v 0.349250 0.736600 0.900000
v 0.349250 0.736600 -0.900000
v -0.349250 0.692435 -0.900000
v -0.349250 0.692435 0.900000
v 0.349250 0.692435 0.900000
v 0.349250 0.692435 -0.900000
v -0.176229 0.736600 0.900000
v 0.001604 0.736600 0.900000
v 0.173021 0.736600 0.900000
v 0.173021 0.736600 -0.900000
v 0.001604 0.736600 -0.900000
v -0.176229 0.736600 -0.900000
v -0.176229 0.692435 0.900000
v -0.173021 0.692435 0.900000
v -0.001604 0.692435 0.900000
v 0.001604 0.692435 0.900000
v 0.173021 0.692435 0.900000
v 0.176229 0.692435 0.900000
v 0.176229 0.692435 -0.900000
v 0.173021 0.692435 -0.900000
v 0.001604 0.692435 -0.900000
v -0.001604 0.692435 -0.900000
v -0.173021 0.692435 -0.900000
v -0.176229 0.692435 -0.900000
v 0.403413 0.414726 0.900000
v 0.645916 0.414726 0.900000
v 0.403413 0.414726 -0.900000
v 0.645916 0.414726 -0.900000
v 0.403413 0.370561 -0.900000
v 0.403413 0.370561 0.900000
v 0.645916 0.370561 0.900000
v 0.645916 0.370561 -0.900000
v 0.524664 0.412115 0.900000
v 0.524664 0.412115 -0.900000
v 0.524664 0.367949 0.900000
v 0.524664 0.367949 -0.900000
v -0.403413 0.414726 0.900000
v -0.645916 0.414726 0.900000
v -0.403413 0.414726 -0.900000
v -0.645916 0.414726 -0.900000
v -0.403413 0.370561 -0.900000
v -0.403413 0.370561 0.900000
v -0.645916 0.370561 0.900000
v -0.645916 0.370561 -0.900000
v -0.524664 0.412115 0.900000
v -0.524664 0.412115 -0.900000
v -0.524664 0.367949 0.900000
v -0.524664 0.367949 -0.900000
v -0.557394 0.279037 0.761540
v 0.557394 0.279037 0.761540
v -0.576416 0.367949 0.761540
v 0.576416 0.367949 0.761540
v -0.576416 0.367949 0.812439
v -0.557394 0.279037 0.812439
v 0.557394 0.279037 0.812439
v 0.576416 0.367949 0.812439
v -0.557393 0.279037 -0.761540
v 0.557393 0.279037 -0.761540
v -0.576416 0.367949 -0.761540
v 0.576416 0.367949 -0.761540
v -0.576416 0.367949 -0.812439
v -0.557393 0.279037 -0.812439
v 0.557393 0.279037 -0.812439
v 0.576416 0.367949 -0.812439
v -0.237329 0.692435 0.814341
v 0.237329 0.692435 0.814341
v -0.237329 0.692435 0.760954
v 0.237329 0.692435 0.760954
v -0.237329 0.667699 0.760954
v -0.237329 0.667699 0.814341
v 0.237329 0.667699 0.814341
v 0.237329 0.667699 0.760954
v -0.237329 0.692435 0.289005
v 0.237329 0.692435 0.289005
v -0.237329 0.692435 0.235617
v 0.237329 0.692435 0.235617
v -0.237329 0.667699 0.235617
v -0.237329 0.667699 0.289005
v 0.237329 0.667699 0.289005
v 0.237329 0.667699 0.235617
v -0.237329 0.692435 -0.236331
v 0.237329 0.692435 -0.236331
v -0.237329 0.692435 -0.289719
v 0.237329 0.692435 -0.289719
v -0.237329 0.667699 -0.289719
v -0.237329 0.667699 -0.236331
v 0.237329 0.667699 -0.236331
v 0.237329 0.667699 -0.289719
v -0.237329 0.692435 -0.761667
v 0.237329 0.692435 -0.761667
v -0.237329 0.692435 -0.815055
v 0.237329 0.692435 -0.815055
v -0.237329 0.667699 -0.815055
v -0.237329 0.667699 -0.761667
v 0.237329 0.667699 -0.761667
v 0.237329 0.667699 -0.815055
v -0.341176 0.736600 0.900000
v -0.349250 0.728526 0.900000
v -0.349250 0.728526 -0.900000
v -0.341176 0.736600 -0.900000
v -0.164947 0.736600 0.900000
v -0.173021 0.728526 0.900000
v -0.001604 0.728526 0.900000
v -0.009678 0.736600 0.900000
v 0.184303 0.736600 0.900000
v 0.176229 0.728526 0.900000
v 0.176229 0.728526 -0.900000
v 0.184303 0.736600 -0.900000
v -0.009678 0.736600 -0.900000
v -0.001604 0.728526 -0.900000
v -0.173021 0.728526 -0.900000
v -0.164947 0.736600 -0.900000
vn -0.0000 -1.0000 -0.0000
vn -0.8578 -0.5140 -0.0000
vn -0.0000 -0.0000 -1.0000
vn -0.0000 -0.0000 1.0000
vn 0.8578 0.5140 -0.0000
vn 0.8578 -0.5140 -0.0000
vn -0.8578 0.5140 -0.0000
vn 1.0000 -0.0000 -0.0000
vn -0.0000 1.0000 -0.0000
vn -1.0000 -0.0000 -0.0000
vn -0.0215 0.9998 -0.0000
vn 0.0215 -0.9998 -0.0000
vn -0.0215 -0.9998 -0.0000
vn 0.0215 0.9998 -0.0000
vn 0.9779 -0.2092 -0.0000
vn -0.9779 -0.2092 -0.0000
vn -0.7071 0.7071 -0.0000
vn 0.7071 0.7071 -0.0000
vt 0.590677 0.874089
vt 0.591707 0.874089
vt 0.586785 0.973697
vt 0.587815 0.973697
vt 0.580811 0.874089
vt 0.581841 0.874089
vt 0.585733 0.973697
vt 0.584703 0.973697
vt 0.591707 0.874089
vt 0.590677 0.874089
vt 0.586785 0.973697
vt 0.587815 0.973697
vt 0.581841 0.874089
vt 0.580811 0.874089
vt 0.585733 0.973697
vt 0.584703 0.973697
vt 0.604396 0.858650
vt 0.604396 0.939091
vt 0.604425 0.957085
vt 0.598801 0.881530
vt 0.599422 0.881532
vt 0.598801 0.881532
vt 0.606272 0.858652
vt 0.605680 0.957085
vt 0.605650 0.858652
vt 0.606272 0.957085
vt 0.598830 0.979965
vt 0.605012 0.858652
vt 0.605012 0.939091
vt 0.604983 0.957085
vt 0.600677 0.979965
vt 0.600061 0.979965
vt 0.605650 0.858650
vt 0.605650 0.939091
vt 0.600677 0.881530
vt 0.604396 0.858652
vt 0.600061 0.881530
vt 0.600677 0.881532
vt 0.600061 0.881532
vt 0.598801 0.961971
vt 0.599422 0.979965
vt 0.567080 0.926597
vt 0.565943 0.923388
vt 0.565943 0.869101
vt 0.567080 0.872312
vt 0.564805 0.872312
vt 0.564805 0.926596
vt 0.567080 0.926596
vt 0.564805 0.926597
vt 0.566299 0.923388
vt 0.565161 0.926597
vt 0.565161 0.872312
vt 0.566299 0.869101
vt 0.567436 0.872312
vt 0.565161 0.926596
vt 0.567436 0.926597
vt 0.567436 0.926596
vt 0.580852 0.927019
vt 0.591488 0.914229
vt 0.581030 0.914229
vt 0.591666 0.927019
vt 0.588486 0.973697
vt 0.584033 0.973697
vt 0.584033 0.970139
vt 0.588486 0.970139
vt 0.588486 0.973697
vt 0.584033 0.973697
vt 0.605012 0.858650
vt 0.599422 0.881530
vt 0.606272 0.858650
s 0
usemtl Texture_Map
f 5/1/1 7/2/1 6/1/1
f 5/1/2 1/3/2 3/3/2
f 4/4/3 5/1/3 3/3/3
f 6/1/4 2/4/4 1/3/4
f 7/2/5 4/4/5 2/4/5
f 15/5/1 13/6/1 14/6/1
f 9/7/6 13/6/6 11/7/6
f 12/8/3 13/6/3 16/5/3
f 10/8/4 14/6/4 9/7/4
f 12/8/7 15/5/7 10/8/7
f 23/9/1 21/10/1 22/10/1
f 17/11/2 21/10/2 19/11/2
f 20/12/4 21/10/4 24/9/4
f 18/12/3 22/10/3 17/11/3
f 20/12/5 23/9/5 18/12/5
f 29/13/1 31/14/1 30/13/1
f 29/13/6 25/15/6 27/15/6
f 28/16/4 29/13/4 27/15/4
f 30/13/3 26/16/3 25/15/3
f 31/14/7 28/16/7 26/16/7
f 55/17/3 143/18/3 144/19/3
f 35/20/1 45/21/1 36/22/1
f 37/23/4 137/24/4 50/25/4
f 37/23/8 34/26/8 33/26/8
f 45/21/4 129/27/4 36/22/4
f 47/28/4 135/29/4 136/30/4
f 41/31/9 43/32/9 40/32/9
f 51/33/3 139/34/3 140/24/3
f 52/35/3 43/32/3 42/31/3
f 134/18/10 55/17/10 46/36/10
f 55/17/1 47/28/1 46/36/1
f 53/37/1 49/38/1 48/39/1
f 51/33/1 37/23/1 50/25/1
f 35/20/3 131/40/3 132/27/3
f 47/28/8 142/29/8 135/29/8
f 48/39/4 41/31/4 40/32/4
f 49/38/8 42/31/8 41/31/8
f 33/26/9 140/24/9 137/24/9
f 138/34/10 51/33/10 50/25/10
f 40/32/10 53/37/10 48/39/10
f 45/21/8 44/41/8 39/41/8
f 136/30/9 144/19/9 133/19/9
f 35/20/10 130/40/10 131/40/10
f 58/42/11 66/43/11 65/43/11
f 68/44/12 63/45/12 67/44/12
f 66/43/3 61/46/3 59/47/3
f 65/43/4 63/45/4 58/42/4
f 63/45/8 60/48/8 58/42/8
f 61/46/10 57/49/10 59/47/10
f 62/46/4 65/43/4 57/49/4
f 64/45/3 66/43/3 60/48/3
f 61/46/13 67/44/13 62/46/13
f 65/43/14 59/47/14 57/49/14
f 78/50/14 70/51/14 77/50/14
f 75/52/13 80/53/13 79/53/13
f 78/50/3 73/54/3 80/53/3
f 77/50/4 75/52/4 79/53/4
f 72/55/10 75/52/10 70/51/10
f 69/56/8 73/54/8 71/57/8
f 77/50/4 74/54/4 69/56/4
f 78/50/3 76/52/3 72/55/3
f 79/53/12 73/54/12 74/54/12
f 71/57/11 77/50/11 69/56/11
f 83/58/3 82/59/3 81/60/3
f 87/59/4 85/58/4 86/60/4
f 83/58/9 88/61/9 84/61/9
f 82/59/1 86/60/1 81/60/1
f 84/61/15 87/59/15 82/59/15
f 81/60/16 85/58/16 83/58/16
f 90/59/4 91/58/4 89/60/4
f 93/58/3 95/59/3 94/60/3
f 96/61/9 91/58/9 92/61/9
f 94/60/1 90/59/1 89/60/1
f 95/59/15 92/61/15 90/59/15
f 93/58/16 89/60/16 91/58/16
f 98/62/9 99/63/9 97/63/9
f 101/64/1 103/65/1 102/64/1
f 103/65/8 100/62/8 98/62/8
f 101/64/10 97/63/10 99/63/10
f 104/65/3 99/63/3 100/62/3
f 102/64/4 98/62/4 97/63/4
f 106/66/9 107/67/9 105/67/9
f 109/64/1 111/65/1 110/64/1
f 111/65/8 108/66/8 106/66/8
f 109/64/10 105/67/10 107/67/10
f 112/65/3 107/67/3 108/66/3
f 110/64/4 106/66/4 105/67/4
f 114/66/9 115/67/9 113/67/9
f 117/64/1 119/65/1 118/64/1
f 119/65/8 116/66/8 114/66/8
f 117/64/10 113/67/10 115/67/10
f 120/65/3 115/67/3 116/66/3
f 118/64/4 114/66/4 113/67/4
f 122/66/9 123/67/9 121/67/9
f 125/64/1 127/65/1 126/64/1
f 127/65/8 124/66/8 122/66/8
f 125/64/10 121/67/10 123/67/10
f 128/65/3 123/67/3 124/66/3
f 126/64/4 122/66/4 121/67/4
f 130/40/17 132/27/17 131/40/17
f 144/19/17 134/18/17 133/19/17
f 136/30/18 142/29/18 141/30/18
f 140/24/17 138/34/17 137/24/17
f 39/41/9 132/27/9 129/27/9
f 5/1/1 8/2/1 7/2/1
f 5/1/2 6/1/2 1/3/2
f 4/4/3 8/2/3 5/1/3
f 6/1/4 7/2/4 2/4/4
f 7/2/5 8/2/5 4/4/5
f 15/5/1 16/5/1 13/6/1
f 9/7/6 14/6/6 13/6/6
f 12/8/3 11/7/3 13/6/3
f 10/8/4 15/5/4 14/6/4
f 12/8/7 16/5/7 15/5/7
f 23/9/1 24/9/1 21/10/1
f 17/11/2 22/10/2 21/10/2
f 20/12/4 19/11/4 21/10/4
f 18/12/3 23/9/3 22/10/3
f 20/12/5 24/9/5 23/9/5
f 29/13/1 32/14/1 31/14/1
f 29/13/6 30/13/6 25/15/6
f 28/16/4 32/14/4 29/13/4
f 30/13/3 31/14/3 26/16/3
f 31/14/7 32/14/7 28/16/7
f 144/19/3 141/30/3 55/17/3
f 141/30/3 142/29/3 54/68/3
f 55/17/3 141/30/3 54/68/3
f 35/20/1 56/69/1 45/21/1
f 33/26/4 137/24/4 37/23/4
f 137/24/4 138/34/4 50/25/4
f 37/23/8 38/70/8 34/26/8
f 39/41/4 129/27/4 45/21/4
f 129/27/4 130/40/4 36/22/4
f 136/30/4 133/19/4 47/28/4
f 133/19/4 134/18/4 46/36/4
f 47/28/4 133/19/4 46/36/4
f 41/31/9 42/31/9 43/32/9
f 140/24/3 34/26/3 38/70/3
f 38/70/3 51/33/3 140/24/3
f 52/35/3 53/37/3 43/32/3
f 134/18/10 143/18/10 55/17/10
f 55/17/1 54/68/1 47/28/1
f 53/37/1 52/35/1 49/38/1
f 51/33/1 38/70/1 37/23/1
f 132/27/3 44/41/3 56/69/3
f 56/69/3 35/20/3 132/27/3
f 47/28/8 54/68/8 142/29/8
f 48/39/4 49/38/4 41/31/4
f 49/38/8 52/35/8 42/31/8
f 33/26/9 34/26/9 140/24/9
f 138/34/10 139/34/10 51/33/10
f 40/32/10 43/32/10 53/37/10
f 45/21/8 56/69/8 44/41/8
f 136/30/9 141/30/9 144/19/9
f 35/20/10 36/22/10 130/40/10
f 58/42/11 60/48/11 66/43/11
f 68/44/12 64/45/12 63/45/12
f 66/43/3 68/44/3 61/46/3
f 65/43/4 67/44/4 63/45/4
f 63/45/8 64/45/8 60/48/8
f 61/46/10 62/46/10 57/49/10
f 62/46/4 67/44/4 65/43/4
f 64/45/3 68/44/3 66/43/3
f 61/46/13 68/44/13 67/44/13
f 65/43/14 66/43/14 59/47/14
f 78/50/14 72/55/14 70/51/14
f 75/52/13 76/52/13 80/53/13
f 78/50/3 71/57/3 73/54/3
f 77/50/4 70/51/4 75/52/4
f 72/55/10 76/52/10 75/52/10
f 69/56/8 74/54/8 73/54/8
f 77/50/4 79/53/4 74/54/4
f 78/50/3 80/53/3 76/52/3
f 79/53/12 80/53/12 73/54/12
f 71/57/11 78/50/11 77/50/11
f 83/58/3 84/61/3 82/59/3
f 87/59/4 88/61/4 85/58/4
f 83/58/9 85/58/9 88/61/9
f 82/59/1 87/59/1 86/60/1
f 84/61/15 88/61/15 87/59/15
f 81/60/16 86/60/16 85/58/16
f 90/59/4 92/61/4 91/58/4
f 93/58/3 96/61/3 95/59/3
f 96/61/9 93/58/9 91/58/9
f 94/60/1 95/59/1 90/59/1
f 95/59/15 96/61/15 92/61/15
f 93/58/16 94/60/16 89/60/16
f 98/62/9 100/62/9 99/63/9
f 101/64/1 104/65/1 103/65/1
f 103/65/8 104/65/8 100/62/8
f 101/64/10 102/64/10 97/63/10
f 104/65/3 101/64/3 99/63/3
f 102/64/4 103/65/4 98/62/4
f 106/66/9 108/66/9 107/67/9
f 109/64/1 112/65/1 111/65/1
f 111/65/8 112/65/8 108/66/8
f 109/64/10 110/64/10 105/67/10
f 112/65/3 109/64/3 107/67/3
f 110/64/4 111/65/4 106/66/4
f 114/66/9 116/66/9 115/67/9
f 117/64/1 120/65/1 119/65/1
f 119/65/8 120/65/8 116/66/8
f 117/64/10 118/64/10 113/67/10
f 120/65/3 117/64/3 115/67/3
f 118/64/4 119/65/4 114/66/4
f 122/66/9 124/66/9 123/67/9
f 125/64/1 128/65/1 127/65/1
f 127/65/8 128/65/8 124/66/8
f 125/64/10 126/64/10 121/67/10
f 128/65/3 125/64/3 123/67/3
f 126/64/4 127/65/4 122/66/4
f 130/40/17 129/27/17 132/27/17
f 144/19/17 143/18/17 134/18/17
f 136/30/18 135/29/18 142/29/18
f 140/24/17 139/34/17 138/34/17
f 39/41/9 44/41/9 132/27/9
