# Blender 4.4.0
# www.blender.org
mtllib Prop_Wooden_Stool_02.mtl
o Prop_Wooden_Stool_02
v -0.124451 -0.000028 0.120616
v -0.081539 -0.000028 0.120616
v -0.124451 -0.000028 0.082739
v -0.081539 -0.000028 0.082739
v -0.122512 0.220555 0.118678
v -0.088512 0.220555 0.118678
v -0.122512 0.220555 0.084678
v -0.088512 0.220555 0.084678
v 0.124451 -0.000028 0.120616
v 0.124451 -0.000028 0.082739
v 0.086573 -0.000028 0.082739
v 0.122512 0.220555 0.118678
v 0.088512 0.220555 0.118678
v 0.122512 0.220555 0.084678
v 0.088512 0.220555 0.084678
v -0.124451 -0.000028 -0.120616
v -0.086573 0.000477 -0.120616
v -0.124451 -0.000028 -0.082739
v -0.086573 -0.000028 -0.082739
v -0.122512 0.220555 -0.118678
v -0.088512 0.220555 -0.118678
v -0.122512 0.220555 -0.084678
v -0.088512 0.220555 -0.084678
v 0.124451 -0.000028 -0.120616
v 0.082458 -0.000028 -0.120616
v 0.082458 -0.000028 -0.082739
v 0.122512 0.220555 -0.118678
v 0.088512 0.220555 -0.118678
v 0.122512 0.220555 -0.084678
v 0.088512 0.220555 -0.084678
v -0.130000 0.247186 0.125000
v -0.130000 0.220555 -0.125000
v -0.130000 0.220555 0.125000
v 0.130000 0.220555 0.125000
v 0.130000 0.220555 -0.125000
v -0.088512 0.085182 0.091443
v 0.088512 0.085182 0.091443
v -0.088512 0.085182 0.111913
v -0.088512 0.068086 0.111913
v 0.088512 0.068086 0.111913
v 0.088512 0.085182 0.111913
v -0.088512 0.068086 -0.091443
v 0.088512 0.068086 -0.091443
v -0.088512 0.081829 -0.091443
v 0.088512 0.081829 -0.091443
v -0.088512 0.068086 -0.111913
v 0.088512 0.068086 -0.111913
v -0.115747 0.105518 0.087156
v -0.115747 0.105518 -0.084678
v -0.115747 0.118533 0.087156
v -0.115747 0.118533 -0.084678
v -0.095277 0.122613 0.087156
v -0.095277 0.105518 0.087156
v -0.095277 0.105518 -0.084678
v -0.095277 0.122613 -0.084678
v 0.115747 0.122613 0.087156
v 0.115747 0.122613 -0.084678
v 0.095277 0.122613 0.087156
v 0.095277 0.106152 0.087156
v 0.095277 0.106152 -0.084678
v 0.095277 0.122613 -0.084678
v -0.118475 0.220555 -0.113918
v -0.118475 0.220555 0.113918
v 0.118475 0.220555 0.113918
v 0.118475 0.220555 -0.113918
v -0.118475 0.201391 -0.113918
v -0.118475 0.201391 0.113918
v 0.118475 0.201391 0.113918
v 0.118475 0.201391 -0.113918
v 0.130000 0.232465 0.125000
v 0.130000 0.249972 0.107493
v 0.056347 0.249972 0.125000
v -0.130000 0.249972 -0.115177
v -0.130000 0.243946 -0.125000
v 0.130000 0.248037 -0.125000
v 0.130000 0.249972 -0.123064
v -0.123254 0.136187 0.117712
v -0.121546 0.136187 0.119419
v -0.122916 0.174603 0.119082
v -0.122002 0.084311 0.119875
v -0.123710 0.084311 0.118168
v -0.123907 0.061882 0.120072
v 0.086998 0.048319 0.120191
v 0.086573 -0.000028 0.111670
v 0.095520 -0.000028 0.120616
v -0.091426 0.073930 -0.119969
v -0.087221 0.073930 -0.115764
v -0.086814 0.027805 -0.120376
v -0.087865 0.147028 -0.115120
v -0.092070 0.147028 -0.119325
v -0.088189 0.183835 -0.119001
v 0.118993 -0.000028 -0.082739
v 0.124451 -0.000028 -0.088197
v 0.124146 0.034643 -0.083044
v 0.113643 0.105518 0.087156
v 0.115747 0.107621 0.087156
v 0.115747 0.107621 -0.084678
v 0.113643 0.105518 -0.084678
v -0.088512 0.071683 0.091443
v -0.088512 0.068086 0.095040
v 0.088512 0.068086 0.095040
v 0.088512 0.071683 0.091443
v -0.088512 0.085182 -0.108315
v -0.088512 0.081584 -0.111913
v 0.088512 0.081584 -0.111913
v 0.088512 0.085182 -0.108315
v 0.130000 0.220555 -0.011349
v 0.129383 0.249972 -0.017581
v 0.114211 0.249972 -0.014480
v 0.130000 0.249972 -0.002515
vn 0.9995 0.0316 -0.0000
vn -0.0000 0.0088 -1.0000
vn -0.0000 -1.0000 -0.0000
vn -0.0000 0.0088 1.0000
vn 1.0000 0.0088 -0.0000
vn -1.0000 0.0088 -0.0000
vn -0.9996 0.0274 -0.0000
vn -0.0000 -0.0000 -1.0000
vn -0.0000 1.0000 -0.0000
vn -0.0000 -0.0000 1.0000
vn -0.0000 0.9808 0.1949
vn -1.0000 -0.0000 -0.0000
vn 1.0000 -0.0000 -0.0000
vn -0.1955 0.9807 -0.0000
vn -0.0345 -0.9994 -0.0000
vn 0.1658 0.6973 0.6973
vn -0.0111 0.7071 -0.7071
vn -0.7070 -0.0190 0.7070
vn -0.7056 0.0661 0.7056
vn -0.7070 0.0124 0.7071
vn -0.7022 -0.1176 0.7022
vn -0.0001 0.0088 -1.0000
vn 0.7050 0.0767 -0.7050
vn 0.7055 -0.0682 -0.7055
vn 0.7071 0.0125 -0.7071
vn 1.0000 0.0088 0.0001
vn 0.7037 -0.0984 0.7037
vn 0.7071 -0.7071 -0.0000
vn -0.0000 -0.7071 -0.7071
vn -0.0000 0.7071 -0.7071
vn 0.9991 0.0123 -0.0409
vn 0.0133 -0.9998 -0.0133
vn -0.0149 0.9998 0.0116
vn -0.0159 0.8523 -0.5228
vn -0.7071 0.0124 0.7071
vn 1.0000 -0.0004 0.0059
vn 0.9998 0.0210 -0.0000
vt 0.222373 0.828572
vt 0.222335 0.878059
vt 0.222137 0.828572
vt 0.223299 0.828572
vt 0.223507 0.828572
vt 0.223309 0.878059
vt 0.223496 0.878059
vt 0.223301 0.839418
vt 0.222346 0.828572
vt 0.222148 0.878059
vt 0.223276 0.828572
vt 0.223505 0.836350
vt 0.223477 0.828572
vt 0.222107 0.878059
vt 0.223538 0.878059
vt 0.222107 0.883306
vt 0.223538 0.884224
vt 0.222107 0.884658
vt 0.223132 0.884658
vt 0.223451 0.884658
vt 0.223309 0.843853
vt 0.222335 0.843853
vt 0.222335 0.847688
vt 0.223309 0.847688
vt 0.222335 0.846881
vt 0.222335 0.846936
vt 0.223309 0.846936
vt 0.222185 0.855170
vt 0.222185 0.852250
vt 0.222298 0.852250
vt 0.222298 0.856086
vt 0.223347 0.852393
vt 0.223448 0.852250
vt 0.223347 0.856086
vt 0.223459 0.856086
vt 0.222170 0.873759
vt 0.223474 0.873759
vt 0.222170 0.878059
vt 0.223474 0.878059
vt 0.230151 0.817902
vt 0.230151 0.818603
vt 0.230078 0.818603
vt 0.223538 0.880731
vt 0.223538 0.884658
vt 0.222153 0.859131
vt 0.222151 0.847493
vt 0.222144 0.859131
vt 0.222146 0.867750
vt 0.222141 0.847493
vt 0.222140 0.842461
vt 0.223348 0.828572
vt 0.222319 0.845164
vt 0.222315 0.861563
vt 0.229933 0.811555
vt 0.229937 0.811555
vt 0.229938 0.809708
vt 0.229937 0.814481
vt 0.229933 0.814481
vt 0.229936 0.815955
vt 0.222342 0.845164
vt 0.222339 0.861563
vt 0.223459 0.852722
vt 0.223309 0.844660
vt 0.222335 0.844660
vt 0.223309 0.846881
vt 0.230150 0.818603
vt 0.230151 0.817425
vt 0.222346 0.828685
vt 0.222107 0.884033
vt 0.223534 0.884658
vt 0.222344 0.834816
vt 0.222337 0.869821
vt 0.230135 0.818603
s 0
usemtl Texture_Map
f 4/1/1 6/2/1 2/1/1
f 3/3/2 8/2/2 4/1/2
f 3/3/3 2/1/3 1/3/3
f 84/4/3 11/4/3 10/5/3
f 15/6/2 10/5/2 11/4/2
f 12/7/4 13/6/4 83/8/4
f 14/7/5 9/5/5 10/5/5
f 23/2/4 18/3/4 19/9/4
f 16/3/3 19/9/3 18/3/3
f 22/10/6 16/3/6 18/3/6
f 24/5/2 28/6/2 27/7/2
f 26/11/7 28/6/7 25/11/7
f 94/12/4 29/7/4 30/6/4
f 92/13/3 26/11/3 25/11/3
f 32/14/3 35/15/3 107/15/3
f 35/15/8 74/16/8 75/17/8
f 73/18/9 72/19/9 109/20/9
f 101/21/3 39/22/3 100/22/3
f 40/21/10 38/23/10 39/22/10
f 36/23/9 41/24/9 37/24/9
f 104/25/8 47/21/8 46/22/8
f 43/21/10 44/26/10 42/22/10
f 106/24/11 44/26/11 45/27/11
f 46/22/3 43/21/3 42/22/3
f 50/28/12 49/29/12 48/29/12
f 54/30/13 52/31/13 53/30/13
f 50/28/14 55/31/14 51/28/14
f 49/29/3 53/30/3 48/29/3
f 59/32/15 98/33/15 95/33/15
f 58/34/12 60/32/12 59/32/12
f 61/34/9 56/35/9 57/35/9
f 66/36/3 68/37/3 67/36/3
f 62/38/12 67/36/12 63/38/12
f 65/39/8 66/36/8 62/38/8
f 63/38/10 68/37/10 64/39/10
f 64/39/13 69/37/13 65/39/13
f 70/40/16 71/41/16 72/42/16
f 34/15/10 70/43/10 72/19/10
f 74/16/17 76/44/17 75/17/17
f 33/14/12 73/18/12 32/14/12
f 2/1/4 78/45/4 80/46/4
f 77/47/18 78/45/18 79/48/18
f 80/46/19 81/49/19 82/50/19
f 78/45/20 81/49/20 80/46/20
f 3/3/6 81/49/6 77/47/6
f 83/8/21 84/4/21 85/51/21
f 83/8/6 15/6/6 11/4/6
f 86/52/22 16/3/22 90/53/22
f 86/54/23 87/55/23 88/56/23
f 89/57/24 90/58/24 91/59/24
f 90/58/25 87/55/25 86/54/25
f 19/9/26 87/60/26 89/61/26
f 92/13/27 93/5/27 94/12/27
f 27/7/5 94/12/5 24/5/5
f 98/33/28 96/62/28 95/33/28
f 97/62/13 56/35/13 96/62/13
f 102/63/29 100/22/29 99/64/29
f 104/25/30 106/24/30 105/65/30
f 36/23/8 102/63/8 99/64/8
f 107/15/13 71/44/13 34/15/13
f 108/66/31 110/41/31 107/67/31
f 35/15/13 75/17/13 76/44/13
f 4/1/1 8/2/1 6/2/1
f 3/3/2 7/10/2 8/2/2
f 3/3/3 4/1/3 2/1/3
f 10/5/3 9/5/3 85/51/3
f 85/51/3 84/4/3 10/5/3
f 15/6/2 14/7/2 10/5/2
f 85/51/4 9/5/4 83/8/4
f 9/5/4 12/7/4 83/8/4
f 14/7/5 12/7/5 9/5/5
f 23/2/4 22/10/4 18/3/4
f 16/3/32 17/68/32 19/9/32
f 22/10/6 20/10/6 16/3/6
f 24/5/2 25/11/2 28/6/2
f 26/11/7 30/6/7 28/6/7
f 30/6/4 26/11/4 94/12/4
f 26/11/4 92/13/4 94/12/4
f 25/11/3 24/5/3 93/5/3
f 93/5/3 92/13/3 25/11/3
f 34/15/3 33/14/3 107/15/3
f 33/14/3 32/14/3 107/15/3
f 35/15/8 32/14/8 74/16/8
f 73/18/33 31/69/33 72/19/33
f 72/19/9 71/44/9 110/44/9
f 109/20/9 108/70/9 76/44/9
f 72/19/9 110/44/9 109/20/9
f 76/44/9 73/18/9 109/20/9
f 101/21/3 40/21/3 39/22/3
f 40/21/10 41/24/10 38/23/10
f 36/23/9 38/23/9 41/24/9
f 104/25/8 105/65/8 47/21/8
f 43/21/10 45/27/10 44/26/10
f 106/24/11 103/23/11 44/26/11
f 46/22/3 47/21/3 43/21/3
f 50/28/12 51/28/12 49/29/12
f 54/30/13 55/31/13 52/31/13
f 50/28/14 52/31/14 55/31/14
f 49/29/3 54/30/3 53/30/3
f 59/32/15 60/32/15 98/33/15
f 58/34/12 61/34/12 60/32/12
f 61/34/9 58/34/9 56/35/9
f 66/36/3 69/37/3 68/37/3
f 62/38/12 66/36/12 67/36/12
f 65/39/8 69/37/8 66/36/8
f 63/38/10 67/36/10 68/37/10
f 64/39/13 68/37/13 69/37/13
f 72/19/10 31/69/10 33/14/10
f 33/14/10 34/15/10 72/19/10
f 74/16/34 73/18/34 76/44/34
f 31/69/12 73/18/12 33/14/12
f 73/18/12 74/16/12 32/14/12
f 82/50/4 1/3/4 2/1/4
f 2/1/4 6/2/4 78/45/4
f 6/2/4 5/10/4 79/48/4
f 78/45/4 6/2/4 79/48/4
f 80/46/4 82/50/4 2/1/4
f 78/45/35 77/47/35 81/49/35
f 7/10/6 3/3/6 77/47/6
f 3/3/6 1/3/6 82/50/6
f 81/49/6 3/3/6 82/50/6
f 77/47/6 79/48/6 7/10/6
f 79/48/6 5/10/6 7/10/6
f 11/4/6 84/4/6 83/8/6
f 83/8/6 13/6/6 15/6/6
f 17/68/22 16/3/22 88/71/22
f 16/3/2 20/10/2 90/53/2
f 88/71/22 16/3/22 86/52/22
f 20/10/2 21/2/2 91/72/2
f 20/10/2 91/72/2 90/53/2
f 90/58/25 89/57/25 87/55/25
f 19/9/26 17/68/26 88/71/26
f 19/9/26 88/71/26 87/60/26
f 21/2/5 23/2/5 91/72/5
f 23/2/5 19/9/5 89/61/5
f 89/61/5 91/72/5 23/2/5
f 29/7/5 94/12/5 27/7/5
f 94/12/5 93/5/5 24/5/5
f 98/33/28 97/62/28 96/62/28
f 97/62/13 57/35/13 56/35/13
f 102/63/29 101/21/29 100/22/29
f 104/25/30 103/23/30 106/24/30
f 36/23/8 37/24/8 102/63/8
f 110/44/13 71/44/13 107/15/13
f 71/44/13 70/43/13 34/15/13
f 108/66/9 109/73/9 110/41/9
f 76/44/36 108/70/36 35/15/36
f 108/70/37 107/15/37 35/15/37
