# Blender 4.4.0
# www.blender.org
mtllib Prop_Shelf_02.mtl
o Prop_Shelf_02
v -0.385519 0.049647 -0.113711
v 0.385519 0.049647 -0.113711
v -0.385519 0.066793 -0.113711
v 0.385519 0.066793 -0.113711
v -0.385519 0.049647 0.155462
v 0.385519 0.049647 0.155462
v -0.385519 0.066793 0.155462
v 0.385519 0.066793 0.155462
v -0.385519 0.000000 0.149745
v 0.385519 0.000000 0.149745
v -0.385519 0.000000 -0.113711
v 0.385519 0.000000 -0.113711
v -0.385519 0.049647 0.149745
v 0.385519 0.049647 0.149745
v -0.398360 0.000000 0.155462
v 0.398360 0.000000 0.155462
v -0.398360 0.000000 -0.113711
v 0.398360 0.000000 -0.113711
v -0.398360 1.339222 0.155462
v 0.398360 1.339222 0.155462
v -0.398360 1.339222 -0.113711
v 0.398360 1.339222 -0.113711
v -0.385519 0.000000 0.155462
v 0.385519 0.000000 0.155462
v -0.385519 1.339222 -0.113711
v -0.385519 1.339222 0.155462
v 0.385519 1.339222 0.155462
v 0.385519 1.339222 -0.113711
v -0.385519 1.337324 0.153876
v 0.385519 1.337324 0.153876
v -0.385519 1.337324 -0.113711
v 0.385519 1.337324 -0.113711
v -0.385519 1.325518 -0.113711
v -0.385519 1.325518 0.153876
v 0.385519 1.325518 0.153876
v 0.385519 1.325518 -0.113711
v -0.385519 1.027519 0.155462
v 0.385519 1.027519 0.155462
v -0.385519 1.027519 -0.113711
v 0.385519 1.027519 -0.113711
v -0.385519 1.010274 -0.113711
v -0.385519 1.010274 0.155462
v 0.385519 1.010274 0.155462
v 0.385519 1.010274 -0.113711
v -0.385519 0.712273 0.155462
v 0.385519 0.712273 0.155462
v -0.385519 0.712273 -0.113711
v 0.385519 0.712273 -0.113711
v -0.385519 0.695029 -0.113711
v -0.385519 0.695029 0.155462
v 0.385519 0.695029 0.155462
v 0.385519 0.695029 -0.113711
v -0.385519 0.397028 0.155462
v 0.385519 0.397028 0.155462
v -0.385519 0.397028 -0.113711
v 0.385519 0.397028 -0.113711
v -0.385519 0.379784 -0.113711
v -0.385519 0.379784 0.155462
v 0.385519 0.379784 0.155462
v 0.385519 0.379784 -0.113711
v -0.400000 0.000000 -0.119538
v 0.400000 0.000000 -0.119538
v -0.400000 1.340000 -0.119538
v 0.400000 1.340000 -0.119538
v 0.400000 0.000000 -0.113711
v -0.400000 0.000000 -0.113711
v 0.400000 1.340000 -0.113711
v -0.400000 1.340000 -0.113711
vn -0.0000 -0.0000 1.0000
vn -0.0000 -1.0000 -0.0000
vn -0.0000 1.0000 -0.0000
vn 1.0000 -0.0000 -0.0000
vn -1.0000 -0.0000 -0.0000
vn -0.0000 -0.0000 -1.0000
vt 0.202544 0.864374
vt 0.200634 0.924748
vt 0.200634 0.864374
vt 0.204635 0.864374
vt 0.203018 0.864374
vt 0.203018 0.924748
vt 0.204635 0.924748
vt 0.104543 0.828738
vt 0.095770 0.950521
vt 0.095770 0.828738
vt 0.104543 0.828738
vt 0.095770 0.828738
vt 0.073812 0.926261
vt 0.073812 0.982919
vt 0.072772 0.926261
vt 0.072772 0.982919
vt 0.073795 0.982919
vt 0.073795 0.926261
vt 0.072789 0.982919
vt 0.072789 0.926261
vt 0.081503 0.970281
vt 0.083591 0.970281
vt 0.079586 0.970281
vt 0.083591 0.928713
vt 0.081503 0.928713
vt 0.079586 0.928713
vt 0.202544 0.943406
vt 0.204635 0.943406
vt 0.200634 0.943406
vt 0.204635 0.882686
vt 0.202544 0.882686
vt 0.200634 0.882686
vt 0.202544 0.916769
vt 0.204635 0.916769
vt 0.200634 0.916769
vt 0.204635 0.856048
vt 0.202544 0.856048
vt 0.200634 0.856048
vt 0.202544 0.918639
vt 0.204635 0.918639
vt 0.200634 0.918639
vt 0.204635 0.857919
vt 0.202544 0.857919
vt 0.200634 0.857919
vt 0.072770 0.926261
vt 0.073814 0.982951
vt 0.073814 0.926261
vt 0.072770 0.982951
vt 0.202544 0.924748
vt 0.104543 0.950521
vt 0.081973 0.970280
vt 0.081973 0.928713
vt 0.203018 0.943406
vt 0.203018 0.882686
vt 0.203018 0.916769
vt 0.203018 0.856046
vt 0.203018 0.918639
vt 0.203018 0.857919
s 0
usemtl Texture_Map
f 6/1/1 7/2/1 5/3/1
f 6/1/2 1/4/2 2/5/2
f 7/2/3 4/6/3 3/7/3
f 10/8/1 13/9/1 9/10/1
f 12/11/2 9/10/2 11/12/2
f 18/13/4 20/14/4 16/13/4
f 15/15/5 21/16/5 17/15/5
f 27/17/5 12/18/5 24/18/5
f 25/19/4 23/20/4 11/20/4
f 12/18/6 22/14/6 18/13/6
f 28/17/3 20/14/3 22/14/3
f 24/18/2 18/13/2 16/13/2
f 27/17/1 16/13/1 20/14/1
f 25/19/6 17/15/6 21/16/6
f 26/19/3 21/16/3 19/16/3
f 11/20/2 15/15/2 17/15/2
f 23/20/1 19/16/1 15/15/1
f 30/21/3 31/22/3 29/23/3
f 33/24/2 35/25/2 34/26/2
f 34/26/1 30/21/1 29/23/1
f 38/27/3 39/28/3 37/29/3
f 41/30/2 43/31/2 42/32/2
f 42/32/1 38/27/1 37/29/1
f 46/33/3 47/34/3 45/35/3
f 49/36/2 51/37/2 50/38/2
f 50/38/1 46/33/1 45/35/1
f 54/39/3 55/40/3 53/41/3
f 57/42/2 59/43/2 58/44/2
f 58/44/1 54/39/1 53/41/1
f 61/45/6 64/46/6 62/47/6
f 67/46/1 66/45/1 65/47/1
f 65/47/2 61/45/2 62/47/2
f 67/46/4 62/47/4 64/46/4
f 68/48/3 64/46/3 63/48/3
f 66/45/5 63/48/5 61/45/5
f 6/1/1 8/49/1 7/2/1
f 6/1/2 5/3/2 1/4/2
f 7/2/3 8/49/3 4/6/3
f 10/8/1 14/50/1 13/9/1
f 12/11/2 10/8/2 9/10/2
f 18/13/4 22/14/4 20/14/4
f 15/15/5 19/16/5 21/16/5
f 27/17/5 28/17/5 12/18/5
f 25/19/4 26/19/4 23/20/4
f 12/18/6 28/17/6 22/14/6
f 28/17/3 27/17/3 20/14/3
f 24/18/2 12/18/2 18/13/2
f 27/17/1 24/18/1 16/13/1
f 25/19/6 11/20/6 17/15/6
f 26/19/3 25/19/3 21/16/3
f 11/20/2 23/20/2 15/15/2
f 23/20/1 26/19/1 19/16/1
f 30/21/3 32/51/3 31/22/3
f 33/24/2 36/52/2 35/25/2
f 34/26/1 35/25/1 30/21/1
f 38/27/3 40/53/3 39/28/3
f 41/30/2 44/54/2 43/31/2
f 42/32/1 43/31/1 38/27/1
f 46/33/3 48/55/3 47/34/3
f 49/36/2 52/56/2 51/37/2
f 50/38/1 51/37/1 46/33/1
f 54/39/3 56/57/3 55/40/3
f 57/42/2 60/58/2 59/43/2
f 58/44/1 59/43/1 54/39/1
f 61/45/6 63/48/6 64/46/6
f 67/46/1 68/48/1 66/45/1
f 65/47/2 66/45/2 61/45/2
f 67/46/4 65/47/4 62/47/4
f 68/48/3 67/46/3 64/46/3
f 66/45/5 68/48/5 63/48/5
