# Blender 4.4.0
# www.blender.org
mtllib Prop_Metal_Sheet_02.mtl
o Prop_Metal_Sheet_02
v -0.495206 -0.000000 -0.008138
v 0.570427 -0.000000 -0.008138
v -0.495206 1.703404 -0.008138
v 0.570427 1.703404 -0.008138
v -0.388643 -0.000000 0.059756
v -0.282079 -0.000000 -0.008138
v -0.175592 0.030286 0.059650
v -0.068953 -0.000000 -0.008138
v 0.032463 0.015095 0.051417
v 0.144174 -0.000000 -0.008138
v 0.250737 -0.000000 0.059756
v 0.357301 -0.000000 -0.008138
v 0.463864 0.019051 0.059756
v 0.463864 1.703404 0.059756
v 0.357301 1.703404 -0.006442
v 0.250737 1.703404 0.075020
v 0.143973 1.703404 0.019885
v 0.037158 1.703404 0.097635
v -0.069154 1.703404 0.019885
v -0.175516 1.703404 0.075020
v -0.282079 1.703404 -0.006442
v -0.388643 1.703404 0.059756
v -0.495206 1.703404 -0.030485
v -0.495206 0.000000 -0.030485
v 0.463864 0.015054 0.037409
v 0.570427 0.000000 -0.030485
v 0.570427 1.703404 -0.030485
v -0.388643 1.703404 0.037409
v -0.388643 0.000000 0.037409
v -0.282079 0.000000 -0.030485
v -0.175516 0.000000 0.037409
v -0.068953 0.000000 -0.030485
v 0.033543 0.011928 0.030820
v 0.144174 0.000000 -0.030485
v 0.250737 0.000000 0.037409
v 0.357301 0.000000 -0.030485
v 0.463864 1.703404 0.037409
v 0.357301 1.703404 -0.029357
v 0.250737 1.703404 0.052238
v 0.144044 1.703404 -0.005501
v 0.037123 1.703404 0.074282
v -0.069083 1.703404 -0.005501
v -0.175516 1.703404 0.052238
v -0.282079 1.703404 -0.029357
v -0.495206 1.382800 -0.008138
v 0.570427 1.382800 -0.008138
v -0.388643 1.382800 0.059756
v -0.282459 1.382800 -0.008667
v -0.178990 1.382800 0.054904
v -0.075370 1.382800 -0.016417
v 0.028845 1.382800 0.049656
v 0.137756 1.382800 -0.016417
v 0.247263 1.382800 0.054904
v 0.356922 1.382800 -0.008667
v 0.463864 1.382800 0.059756
v -0.495206 1.382800 -0.030485
v 0.570427 1.382800 -0.030485
v -0.388643 1.382800 0.037409
v -0.282328 1.382800 -0.030832
v -0.178879 1.382800 0.032712
v -0.074639 1.382800 -0.038078
v 0.029064 1.382800 0.027472
v 0.138488 1.382800 -0.038078
v 0.247375 1.382800 0.032712
v 0.357052 1.382800 -0.030832
v 0.463864 1.382800 0.037409
v -0.464275 0.632519 -0.007490
v -0.468318 0.639917 -0.029922
v 0.570427 0.691400 -0.008138
v -0.387044 0.685059 0.059790
v -0.282269 0.691400 -0.008403
v -0.177291 0.706543 0.057277
v -0.072161 0.691400 -0.012278
v 0.030654 0.617065 0.047025
v 0.140965 0.691400 -0.012278
v 0.249000 0.691400 0.029886
v 0.357111 0.691400 -0.008403
v 0.463864 0.700926 0.059756
v 0.570427 0.691400 -0.030485
v -0.384176 0.678860 0.037503
v -0.282204 0.691400 -0.030658
v -0.177198 0.691400 0.035060
v -0.071796 0.691400 -0.034281
v 0.031304 0.640995 0.036198
v 0.141331 0.691400 -0.034281
v 0.249056 0.691400 0.013352
v 0.357177 0.691400 -0.030658
v 0.463864 0.698927 0.037409
vn 0.5373 -0.0000 0.8434
vn -0.5373 -0.0000 0.8434
vn 0.5277 -0.0000 0.8494
vn -0.5235 -0.0053 0.8520
vn 0.4594 -0.0606 0.8862
vn -0.5335 -0.0849 0.8415
vn 0.5831 -0.1350 0.8011
vn -0.5438 -0.0840 0.8350
vn 0.6064 -0.0563 0.7932
vn -0.5389 -0.0052 0.8423
vn -0.5373 -0.0000 -0.8434
vn 0.5373 -0.0000 -0.8434
vn -0.5402 0.0043 -0.8415
vn 0.5234 0.0035 -0.8521
vn -0.5593 0.0934 -0.8237
vn 0.5327 0.0764 -0.8428
vn -0.5115 0.0956 -0.8539
vn 0.5435 0.0755 -0.8360
vn -0.5013 0.0044 -0.8653
vn 0.5384 0.0035 -0.8427
vn -0.0000 1.0000 -0.0000
vn 0.0560 -0.9864 0.1546
vn -0.0637 -0.9824 0.1757
vn -0.0540 -0.9874 0.1490
vn 1.0000 -0.0000 -0.0000
vn -0.0000 -1.0000 -0.0000
vn 0.0637 -0.9824 0.1757
vn -0.3256 -0.5602 0.7617
vn 0.3259 -0.5591 0.7624
vn -0.9988 0.0488 -0.0000
vn -1.0000 -0.0000 -0.0000
vn 0.5379 -0.0001 -0.8430
vn -0.3770 -0.0003 -0.9262
vn 0.4044 -0.0034 -0.9146
vn -0.5356 -0.0115 -0.8444
vn 0.5616 -0.0080 -0.8273
vn -0.5496 -0.0068 -0.8354
vn 0.5305 -0.0016 -0.8477
vn -0.5554 -0.0036 -0.8316
vn 0.6190 0.0218 -0.7851
vn -0.5382 0.0002 0.8428
vn 0.5013 -0.0300 0.8647
vn -0.3636 0.0039 0.9316
vn 0.4745 -0.0019 0.8803
vn -0.5355 0.0026 0.8446
vn 0.5670 0.0043 0.8237
vn -0.5304 0.0002 0.8477
vn 0.5454 0.0013 0.8382
vn -0.6465 -0.0260 0.7625
vn -0.5372 0.0254 0.8431
vn 0.5373 -0.0013 0.8434
vn -0.5370 0.0002 0.8436
vn 0.5522 0.0043 0.8337
vn -0.4981 0.0029 0.8671
vn 0.4713 0.0079 0.8820
vn 0.5369 0.0378 0.8428
vn -0.5374 0.0002 0.8434
vn 0.5372 -0.0218 -0.8432
vn -0.5373 0.0037 -0.8434
vn 0.5373 -0.0016 -0.8434
vn -0.5373 -0.0068 -0.8434
vn 0.5125 0.0092 -0.8586
vn -0.4842 0.0058 -0.8749
vn 0.5371 -0.0280 -0.8430
vn -0.5371 -0.0306 -0.8430
vn 0.5373 -0.0001 -0.8434
vn -0.9856 -0.0405 0.1643
vn 0.5417 -0.0065 0.8406
vn -0.6068 -0.0432 0.7937
vn 0.5639 -0.1037 0.8193
vn -0.5871 -0.1049 0.8027
vn 0.5157 -0.1063 0.8501
vn -0.4583 -0.0507 0.8874
vn 0.5015 -0.0066 0.8651
vn -0.5277 -0.0000 0.8494
vn -0.5309 -0.0000 -0.8474
vn 0.6074 0.0419 -0.7933
vn -0.4760 0.0584 -0.8775
vn 0.5975 0.1011 -0.7954
vn -0.5929 0.1309 -0.7946
vn 0.4754 0.0485 -0.8784
vn -0.6070 0.0547 -0.7928
vn 0.5309 -0.0000 -0.8474
vn 0.1156 -0.9933 -0.0000
vn -0.1399 -0.9902 -0.0000
vn -0.1072 -0.9942 -0.0000
vn 0.1399 -0.9902 -0.0000
vn -0.9809 0.0410 0.1903
vn 0.5384 -0.0000 -0.8427
vn -0.5012 0.0230 -0.8650
vn 0.5449 0.0248 -0.8381
vn -0.5139 -0.0068 -0.8578
vn 0.5343 -0.0024 -0.8453
vn -0.5618 -0.0042 -0.8273
vn 0.5234 -0.0001 -0.8521
vn -0.5402 -0.0003 -0.8416
vn 0.5373 0.0033 -0.8434
vn -0.5389 -0.0000 0.8423
vn 0.3338 0.0005 0.9426
vn -0.5455 -0.0317 0.8375
vn 0.5187 0.0075 0.8549
vn -0.5019 -0.0042 0.8649
vn 0.5525 0.0076 0.8335
vn -0.5235 0.0017 0.8520
vn 0.5417 0.0005 0.8406
vn -0.5373 -0.0012 0.8434
vn -0.6574 0.0015 0.7535
vn 0.5455 0.0005 0.8381
vn -0.5306 0.0016 0.8476
vn 0.5380 0.0075 0.8429
vn -0.5069 0.0048 0.8620
vn 0.4696 0.0075 0.8829
vn -0.5370 0.0351 0.8429
vn -0.5381 -0.0000 0.8429
vn 0.6264 -0.0040 -0.7795
vn -0.5557 -0.0003 -0.8314
vn 0.5305 -0.0001 -0.8477
vn -0.5496 -0.0042 -0.8354
vn 0.5636 -0.0022 -0.8260
vn -0.5372 -0.0068 -0.8435
vn 0.5379 -0.0000 -0.8430
vn -0.9993 -0.0362 -0.0000
vt 0.574121 0.717369
vt 0.574306 0.738337
vt 0.574121 0.738337
vt 0.586144 0.666351
vt 0.586096 0.671825
vt 0.586096 0.666351
vt 0.572643 0.717369
vt 0.572827 0.738337
vt 0.572643 0.738337
vt 0.573006 0.717369
vt 0.572827 0.717369
vt 0.586239 0.666351
vt 0.586289 0.671825
vt 0.586241 0.671825
vt 0.573367 0.717369
vt 0.573197 0.738337
vt 0.573186 0.717369
vt 0.573566 0.738337
vt 0.573381 0.738337
vt 0.586432 0.666351
vt 0.586385 0.671825
vt 0.586383 0.666351
vt 0.573745 0.717369
vt 0.573936 0.738337
vt 0.573751 0.738337
vt 0.573935 0.717369
vt 0.574306 0.717369
vt 0.572458 0.738337
vt 0.572458 0.717369
vt 0.572827 0.717369
vt 0.586192 0.671825
vt 0.586239 0.666351
vt 0.586192 0.666351
vt 0.573006 0.717369
vt 0.573197 0.738337
vt 0.573187 0.717369
vt 0.573367 0.717369
vt 0.573566 0.738337
vt 0.573557 0.717369
vt 0.594148 0.767292
vt 0.594254 0.754827
vt 0.594142 0.754827
vt 0.573745 0.717369
vt 0.573936 0.717369
vt 0.586482 0.671825
vt 0.586530 0.666351
vt 0.586482 0.666351
vt 0.573197 0.626929
vt 0.573375 0.627709
vt 0.573373 0.627916
vt 0.574121 0.627913
vt 0.574306 0.626929
vt 0.574121 0.628175
vt 0.573567 0.626929
vt 0.573381 0.738337
vt 0.573751 0.626929
vt 0.594037 0.767292
vt 0.593928 0.767292
vt 0.573936 0.626929
vt 0.586096 0.642737
vt 0.586144 0.642737
vt 0.573012 0.738337
vt 0.572643 0.626929
vt 0.572827 0.626929
vt 0.593708 0.701068
vt 0.593818 0.701068
vt 0.593818 0.702246
vt 0.573012 0.626929
vt 0.573012 0.628909
vt 0.593520 0.725659
vt 0.593489 0.701068
vt 0.593489 0.767292
vt 0.593489 0.754827
vt 0.586578 0.654544
vt 0.586578 0.666351
vt 0.594367 0.754827
vt 0.594477 0.728241
vt 0.594367 0.727948
vt 0.573748 0.672149
vt 0.573936 0.672149
vt 0.586383 0.666351
vt 0.586433 0.654544
vt 0.586384 0.654544
vt 0.573562 0.672149
vt 0.573371 0.668852
vt 0.573192 0.672149
vt 0.586240 0.654544
vt 0.586286 0.666351
vt 0.586288 0.654544
vt 0.572827 0.672149
vt 0.573009 0.672149
vt 0.572650 0.671328
vt 0.593603 0.727460
vt 0.593516 0.725946
vt 0.574121 0.672641
vt 0.574306 0.672149
vt 0.574121 0.672772
vt 0.573936 0.672149
vt 0.573748 0.672149
vt 0.594256 0.727948
vt 0.594141 0.754827
vt 0.594144 0.727948
vt 0.573561 0.672149
vt 0.573370 0.667287
vt 0.593925 0.727948
vt 0.594029 0.754827
vt 0.593921 0.754827
vt 0.573009 0.673139
vt 0.572827 0.672149
vt 0.572645 0.671734
vt 0.572511 0.668298
vt 0.572458 0.626929
vt 0.586241 0.643254
vt 0.586287 0.654544
vt 0.586240 0.654803
vt 0.593928 0.701068
vt 0.594031 0.725058
vt 0.572504 0.668782
vt 0.594031 0.725988
vt 0.594034 0.701532
vt 0.586334 0.653683
vt 0.586385 0.642737
vt 0.586335 0.642941
vt 0.586144 0.671825
vt 0.586286 0.666351
vt 0.573555 0.717369
vt 0.586434 0.671825
vt 0.594257 0.767292
vt 0.586530 0.671825
vt 0.593928 0.767292
vt 0.594477 0.754827
vt 0.593598 0.754827
vt 0.594254 0.754827
vt 0.573191 0.672149
vt 0.586289 0.642737
vt 0.594032 0.701655
vt 0.593925 0.727948
s 0
usemtl Texture_Map
f 55/1/1 4/2/1 14/3/1
f 47/4/2 3/5/2 45/6/2
f 47/7/3 21/8/3 22/9/3
f 49/10/4 21/8/4 48/11/4
f 49/12/5 19/13/5 20/14/5
f 51/15/6 19/16/6 50/17/6
f 51/15/7 17/18/7 18/19/7
f 53/20/8 17/21/8 52/22/8
f 53/23/9 15/24/9 16/25/9
f 55/1/10 15/24/10 54/26/10
f 66/1/11 27/2/11 57/27/11
f 23/28/12 58/7/12 56/29/12
f 58/7/13 44/8/13 59/30/13
f 44/31/14 60/32/14 59/33/14
f 60/34/15 42/35/15 61/36/15
f 42/35/16 62/37/16 61/36/16
f 62/37/17 40/38/17 63/39/17
f 40/40/18 64/41/18 63/42/18
f 64/43/19 38/24/19 65/44/19
f 38/45/20 66/46/20 65/47/20
f 15/24/21 39/25/21 16/25/21
f 8/48/22 33/49/22 9/50/22
f 25/51/23 2/52/23 13/53/23
f 39/25/21 17/18/21 16/25/21
f 33/49/24 10/54/24 9/50/24
f 57/27/25 4/2/25 46/27/25
f 17/18/21 41/55/21 18/19/21
f 10/54/26 35/56/26 11/56/26
f 28/9/21 3/28/21 22/9/21
f 41/57/21 19/58/21 18/57/21
f 35/56/26 12/59/26 11/56/26
f 1/60/26 29/61/26 5/61/26
f 19/16/21 43/62/21 20/62/21
f 12/59/27 25/51/27 13/53/27
f 29/63/26 6/64/26 5/63/26
f 43/62/21 21/8/21 20/62/21
f 4/2/21 37/3/21 14/3/21
f 6/65/28 31/66/28 7/67/28
f 21/8/21 28/9/21 22/9/21
f 37/3/21 15/24/21 14/3/21
f 31/68/29 8/48/29 7/69/29
f 67/70/30 24/71/30 1/71/30
f 23/72/31 45/73/31 3/72/31
f 79/74/25 46/75/25 69/74/25
f 65/76/32 88/77/32 87/78/32
f 86/79/33 65/44/33 87/80/33
f 63/81/34 86/82/34 85/83/34
f 62/37/35 85/84/35 84/85/35
f 83/86/36 62/37/36 84/85/36
f 82/87/37 61/88/37 83/89/37
f 81/90/38 60/34/38 82/91/38
f 58/7/39 81/90/39 80/92/39
f 56/73/40 80/93/40 68/94/40
f 88/95/11 57/27/11 79/96/11
f 78/97/41 54/26/41 77/98/41
f 76/99/42 54/26/42 53/23/42
f 76/100/43 52/101/43 75/102/43
f 75/103/44 51/15/44 74/104/44
f 73/105/45 51/106/45 50/107/45
f 72/108/46 50/17/46 49/10/46
f 72/108/47 48/11/47 71/109/47
f 71/109/48 47/7/48 70/110/48
f 70/110/49 45/29/49 67/111/49
f 78/97/1 46/27/1 55/1/1
f 13/53/1 69/96/1 78/97/1
f 5/63/50 67/111/50 1/112/50
f 6/64/51 70/110/51 5/63/51
f 7/69/52 71/109/52 6/64/52
f 7/113/53 73/114/53 72/115/53
f 8/116/54 74/117/54 73/105/54
f 10/54/55 74/104/55 9/50/55
f 10/54/43 76/99/43 75/103/43
f 12/59/56 76/99/56 11/56/56
f 13/53/57 77/98/57 12/59/57
f 25/51/11 79/96/11 26/52/11
f 68/118/58 29/63/58 24/112/58
f 80/92/59 30/64/59 29/63/59
f 30/64/60 82/91/60 31/68/60
f 31/68/61 83/86/61 32/48/61
f 32/116/62 84/119/62 33/120/62
f 84/121/63 34/122/63 33/123/63
f 34/54/64 86/79/64 35/56/64
f 86/79/65 36/59/65 35/56/65
f 87/80/66 25/51/66 36/59/66
f 26/52/25 69/96/25 2/52/25
f 45/29/67 68/118/67 67/111/67
f 55/1/1 46/27/1 4/2/1
f 47/4/2 22/124/2 3/5/2
f 47/7/68 48/11/68 21/8/68
f 49/10/69 20/62/69 21/8/69
f 49/12/70 50/125/70 19/13/70
f 51/15/71 18/19/71 19/16/71
f 51/15/72 52/126/72 17/18/72
f 53/20/73 16/127/73 17/21/73
f 53/23/74 54/26/74 15/24/74
f 55/1/75 14/3/75 15/24/75
f 66/1/11 37/3/11 27/2/11
f 23/28/12 28/9/12 58/7/12
f 58/7/76 28/9/76 44/8/76
f 44/31/77 43/14/77 60/32/77
f 60/34/78 43/62/78 42/35/78
f 42/35/79 41/55/79 62/37/79
f 62/37/80 41/55/80 40/38/80
f 40/40/81 39/128/81 64/41/81
f 64/43/82 39/25/82 38/24/82
f 38/45/83 37/129/83 66/46/83
f 15/24/21 38/24/21 39/25/21
f 8/48/84 32/48/84 33/49/84
f 25/51/85 26/52/85 2/52/85
f 39/25/21 40/38/21 17/18/21
f 33/49/86 34/54/86 10/54/86
f 57/27/25 27/2/25 4/2/25
f 17/18/21 40/38/21 41/55/21
f 10/54/26 34/54/26 35/56/26
f 28/9/21 23/28/21 3/28/21
f 41/57/21 42/130/21 19/58/21
f 35/56/26 36/59/26 12/59/26
f 1/60/26 24/60/26 29/61/26
f 19/16/21 42/35/21 43/62/21
f 12/59/87 36/59/87 25/51/87
f 29/63/26 30/64/26 6/64/26
f 43/62/21 44/8/21 21/8/21
f 4/2/21 27/2/21 37/3/21
f 6/65/26 30/65/26 31/66/26
f 21/8/21 44/8/21 28/9/21
f 37/3/21 38/24/21 15/24/21
f 31/68/26 32/48/26 8/48/26
f 67/70/88 68/94/88 24/71/88
f 23/72/31 56/73/31 45/73/31
f 79/74/25 57/75/25 46/75/25
f 65/76/89 66/131/89 88/77/89
f 86/79/90 64/43/90 65/44/90
f 63/81/91 64/20/91 86/82/91
f 62/37/92 63/39/92 85/84/92
f 83/86/93 61/36/93 62/37/93
f 82/87/94 60/32/94 61/88/94
f 81/90/95 59/30/95 60/34/95
f 58/7/96 59/30/96 81/90/96
f 56/73/97 58/132/97 80/93/97
f 88/95/11 66/1/11 57/27/11
f 78/97/98 55/1/98 54/26/98
f 76/99/99 77/98/99 54/26/99
f 76/100/100 53/133/100 52/101/100
f 75/103/101 52/126/101 51/15/101
f 73/105/102 74/117/102 51/106/102
f 72/108/103 73/134/103 50/17/103
f 72/108/104 49/10/104 48/11/104
f 71/109/105 48/11/105 47/7/105
f 70/110/106 47/7/106 45/29/106
f 78/97/1 69/96/1 46/27/1
f 13/53/1 2/52/1 69/96/1
f 5/63/107 70/110/107 67/111/107
f 6/64/108 71/109/108 70/110/108
f 7/69/109 72/108/109 71/109/109
f 7/113/110 8/135/110 73/114/110
f 8/116/111 9/136/111 74/117/111
f 10/54/112 75/103/112 74/104/112
f 10/54/113 11/56/113 76/99/113
f 12/59/99 77/98/99 76/99/99
f 13/53/114 78/97/114 77/98/114
f 25/51/11 88/95/11 79/96/11
f 68/118/115 80/92/115 29/63/115
f 80/92/116 81/90/116 30/64/116
f 30/64/117 81/90/117 82/91/117
f 31/68/118 82/91/118 83/86/118
f 32/116/119 83/137/119 84/119/119
f 84/121/120 85/83/120 34/122/120
f 34/54/34 85/84/34 86/79/34
f 86/79/33 87/80/33 36/59/33
f 87/80/121 88/95/121 25/51/121
f 26/52/25 79/96/25 69/96/25
f 45/29/122 56/29/122 68/118/122
