# Blender 4.4.0
# www.blender.org
mtllib Prop_Weathervane_04.mtl
o Prop_Weathervane_04
v -0.007853 0.282068 0.016796
v -0.016796 0.282068 0.007853
v 0.007853 0.282068 0.016796
v 0.016796 0.282068 0.007853
v 0.007853 0.282068 -0.016796
v 0.016796 0.282068 -0.007853
v -0.007853 0.282068 -0.016796
v -0.016796 0.282068 -0.007853
v -0.007853 0.686832 -0.016796
v -0.016796 0.686832 -0.007853
v -0.016796 0.686832 0.007853
v -0.007853 0.686832 0.016796
v 0.007853 0.686832 0.016796
v 0.016796 0.686832 0.007853
v 0.016796 0.686832 -0.007853
v 0.007853 0.686832 -0.016796
v 0.007853 0.257349 -0.016796
v -0.016796 0.257349 -0.007853
v 0.016796 0.257349 0.007853
v -0.007853 0.257349 0.016796
v -0.007853 0.257349 -0.016796
v 0.016796 0.257349 -0.007853
v 0.007853 0.257349 0.016796
v -0.016796 0.257349 0.007853
v 0.019642 0.282068 -0.008901
v 0.008901 0.282068 -0.019642
v 0.019642 0.282068 0.008901
v 0.008901 0.282068 0.019642
v -0.019642 0.282068 0.008901
v -0.019642 0.282068 -0.008901
v 0.008901 0.257349 -0.019642
v -0.019642 0.257349 -0.008901
v 0.019642 0.257349 0.008901
v -0.008901 0.257349 0.019642
v -0.008901 0.282068 0.019642
v -0.008901 0.282068 -0.019642
v -0.008901 0.257349 -0.019642
v 0.019642 0.257349 -0.008901
v 0.008901 0.257349 0.019642
v -0.019642 0.257349 0.008901
v -0.007853 0.036536 -0.016796
v 0.016796 0.036536 -0.007853
v 0.007853 0.036536 0.016796
v -0.016796 0.036536 0.007853
v 0.007853 0.036536 -0.016796
v -0.016796 0.036536 -0.007853
v 0.016796 0.036536 0.007853
v -0.007853 0.036536 0.016796
v -0.009871 0.000000 -0.021667
v -0.021667 0.000000 -0.009871
v -0.009871 0.036536 -0.021667
v 0.021667 0.036536 -0.009871
v 0.021667 0.000000 -0.009871
v 0.009871 0.000000 -0.021667
v 0.009871 0.000000 0.021667
v 0.021667 0.000000 0.009871
v 0.009871 0.036536 0.021667
v -0.021667 0.036536 0.009871
v -0.021667 0.000000 0.009871
v -0.009871 0.000000 0.021667
v 0.009871 0.036536 -0.021667
v -0.021667 0.036536 -0.009871
v 0.021667 0.036536 0.009871
v -0.009871 0.036536 0.021667
v -0.181498 0.217291 0.008520
v -0.156464 0.305802 0.008520
v -0.144754 0.305802 0.008520
v -0.144754 0.318321 0.008520
v -0.181494 0.318321 0.008520
v -0.181494 0.305802 0.008520
v -0.169488 0.305802 0.008520
v -0.188169 0.240349 0.008520
v -0.206516 0.305802 0.008520
v -0.194806 0.305802 0.008520
v -0.194806 0.318321 0.008520
v -0.240690 0.318321 0.008520
v -0.240690 0.305802 0.008520
v -0.228747 0.305802 0.008520
v -0.246951 0.240349 0.008520
v -0.265918 0.305802 0.008520
v -0.253897 0.305802 0.008520
v -0.253897 0.318321 0.008520
v -0.292100 0.318321 0.008520
v -0.292100 0.305802 0.008520
v -0.280079 0.305802 0.008520
v -0.254647 0.217291 0.008520
v -0.240664 0.217291 0.008520
v -0.218321 0.296365 0.008520
v -0.195795 0.217291 0.008520
v -0.181498 0.217291 -0.008054
v -0.156464 0.305802 -0.008054
v -0.144754 0.305802 -0.008054
v -0.144754 0.318321 -0.008054
v -0.181494 0.318321 -0.008054
v -0.181494 0.305802 -0.008054
v -0.169488 0.305802 -0.008054
v -0.188169 0.240349 -0.008054
v -0.206516 0.305802 -0.008054
v -0.194806 0.305802 -0.008054
v -0.194806 0.318321 -0.008054
v -0.240690 0.318321 -0.008054
v -0.240690 0.305802 -0.008054
v -0.228747 0.305802 -0.008054
v -0.246951 0.240349 -0.008054
v -0.265918 0.305802 -0.008054
v -0.253897 0.305802 -0.008054
v -0.253897 0.318321 -0.008054
v -0.292100 0.318321 -0.008054
v -0.292100 0.305802 -0.008054
v -0.280079 0.305802 -0.008054
v -0.254647 0.217291 -0.008054
v -0.240664 0.217291 -0.008054
v -0.218321 0.296365 -0.008054
v -0.195795 0.217291 -0.008054
v 0.009760 0.305804 -0.191722
v 0.009760 0.305804 -0.176991
v 0.009760 0.318283 -0.176991
v 0.009760 0.318283 -0.217992
v 0.009760 0.305804 -0.217992
v 0.009760 0.305804 -0.203835
v 0.009760 0.240561 -0.203835
v 0.009760 0.318283 -0.247778
v 0.009760 0.318283 -0.281873
v 0.009760 0.305804 -0.281873
v 0.009760 0.305804 -0.267525
v 0.009760 0.230768 -0.267525
v 0.009760 0.230768 -0.281871
v 0.009760 0.218291 -0.281871
v 0.009760 0.218291 -0.240924
v 0.009760 0.230768 -0.240924
v 0.009760 0.230768 -0.255194
v 0.009760 0.302576 -0.255194
v 0.009760 0.217291 -0.207239
v 0.009760 0.217291 -0.191760
v -0.006814 0.305804 -0.191722
v -0.006814 0.305804 -0.176991
v -0.006814 0.318283 -0.176991
v -0.006814 0.318283 -0.217992
v -0.006814 0.305804 -0.217992
v -0.006814 0.305804 -0.203835
v -0.006814 0.240561 -0.203835
v -0.006814 0.318283 -0.247778
v -0.006814 0.318283 -0.281873
v -0.006814 0.305804 -0.281873
v -0.006814 0.305804 -0.267525
v -0.006814 0.230768 -0.267525
v -0.006814 0.230768 -0.281871
v -0.006814 0.218291 -0.281871
v -0.006814 0.218291 -0.240924
v -0.006814 0.230768 -0.240924
v -0.006814 0.230768 -0.255194
v -0.006814 0.302576 -0.255194
v -0.006814 0.217291 -0.207239
v -0.006814 0.217291 -0.191760
v 0.221669 0.304493 0.007545
v 0.221669 0.229481 0.007545
v 0.208579 0.229481 0.007545
v 0.208579 0.217291 0.007545
v 0.292100 0.217291 0.007545
v 0.292100 0.247707 0.007545
v 0.279485 0.247707 0.007545
v 0.279485 0.229481 0.007545
v 0.236731 0.229481 0.007545
v 0.236731 0.262219 0.007545
v 0.273916 0.262219 0.007545
v 0.273916 0.274706 0.007545
v 0.236731 0.274706 0.007545
v 0.236731 0.304493 0.007545
v 0.279485 0.304493 0.007545
v 0.279485 0.286974 0.007545
v 0.292100 0.286974 0.007545
v 0.292100 0.316958 0.007545
v 0.208579 0.316958 0.007545
v 0.208579 0.304493 0.007545
v 0.221669 0.304493 -0.009029
v 0.221669 0.229481 -0.009029
v 0.208579 0.229481 -0.009029
v 0.208579 0.217291 -0.004046
v 0.292100 0.217291 -0.004046
v 0.292100 0.247707 -0.009029
v 0.279485 0.247707 -0.009029
v 0.279485 0.229481 -0.009029
v 0.236731 0.229481 -0.009029
v 0.236731 0.262219 -0.009029
v 0.273916 0.262219 -0.009029
v 0.273916 0.274706 -0.009029
v 0.236731 0.274706 -0.009029
v 0.236731 0.304493 -0.009029
v 0.279485 0.304493 -0.009029
v 0.279485 0.286974 -0.009029
v 0.292100 0.286974 -0.009029
v 0.292100 0.316958 -0.009029
v 0.208579 0.316958 -0.009029
v 0.208579 0.304493 -0.009029
v 0.009772 0.289099 0.288058
v 0.009772 0.319396 0.288058
v 0.009772 0.319396 0.275865
v 0.009772 0.312704 0.275865
v 0.009772 0.319744 0.260722
v 0.009772 0.289099 0.275891
v 0.009772 0.296025 0.275891
v 0.009772 0.317159 0.238703
v 0.009772 0.301654 0.225405
v 0.009772 0.281652 0.226521
v 0.009772 0.274316 0.231762
v 0.009772 0.265279 0.249868
v 0.009772 0.258879 0.270206
v 0.009772 0.251765 0.277580
v 0.009772 0.239225 0.276827
v 0.009772 0.231330 0.267934
v 0.009772 0.231514 0.251980
v 0.009772 0.246292 0.236926
v 0.009772 0.255198 0.236926
v 0.009772 0.255198 0.224541
v 0.009772 0.218903 0.224541
v 0.009772 0.218903 0.237014
v 0.009772 0.227133 0.237014
v 0.009772 0.219783 0.248681
v 0.009772 0.217291 0.262109
v 0.009772 0.220874 0.277251
v 0.009772 0.225301 0.283669
v 0.009772 0.236639 0.291302
v 0.009772 0.249020 0.292810
v 0.009772 0.259115 0.290523
v 0.009772 0.272437 0.278809
v 0.009772 0.278045 0.263480
v 0.009772 0.283903 0.243945
v 0.009772 0.296770 0.237807
v 0.009772 0.305899 0.245285
v 0.009772 0.307021 0.260551
v -0.006802 0.289099 0.288058
v -0.006802 0.319396 0.288058
v -0.006802 0.319396 0.275865
v -0.006802 0.312704 0.275865
v -0.006802 0.319744 0.260722
v -0.006802 0.289099 0.275891
v -0.006802 0.296025 0.275891
v -0.006802 0.317159 0.238703
v -0.006802 0.301654 0.225405
v -0.006802 0.281652 0.226521
v -0.006802 0.274316 0.231762
v -0.006802 0.265279 0.249868
v -0.006802 0.258879 0.270206
v -0.006802 0.251765 0.277580
v -0.006802 0.239225 0.276827
v -0.006802 0.231330 0.267934
v -0.006802 0.231514 0.251980
v -0.006802 0.246292 0.236926
v -0.006802 0.255198 0.236926
v -0.006802 0.255198 0.224541
v -0.006802 0.218903 0.224541
v -0.006802 0.218903 0.237014
v -0.006802 0.227133 0.237014
v -0.006802 0.219783 0.248681
v -0.006802 0.217291 0.262109
v -0.006802 0.220874 0.277251
v -0.006802 0.225301 0.283669
v -0.006802 0.236639 0.291302
v -0.006802 0.249020 0.292810
v -0.006802 0.259115 0.290523
v -0.006802 0.272437 0.278809
v -0.006802 0.278045 0.263480
v -0.006802 0.283903 0.243945
v -0.006802 0.296770 0.237807
v -0.006802 0.305899 0.245285
v -0.006802 0.307021 0.260551
v -0.170740 0.279244 0.006360
v 0.221638 0.279244 0.006360
v -0.170740 0.279244 -0.006360
v 0.221638 0.279244 -0.006360
v -0.170740 0.260285 0.006360
v 0.221638 0.260285 0.006360
v -0.170740 0.260285 -0.006360
v 0.221638 0.260285 -0.006360
v -0.006360 0.260285 -0.201263
v -0.006360 0.260285 0.271697
v 0.006360 0.260285 -0.201263
v 0.006360 0.260285 0.271697
v -0.006360 0.279244 -0.201263
v -0.006360 0.279244 0.253144
v 0.006360 0.279244 -0.201263
v 0.006360 0.279244 0.253144
vn -0.0000 -0.0000 1.0000
vn 1.0000 -0.0000 -0.0000
vn -0.0000 -0.0000 -1.0000
vn -0.7071 -0.0000 -0.7071
vn 0.7071 -0.0000 0.7071
vn -1.0000 -0.0000 -0.0000
vn -0.7071 -0.0000 0.7071
vn 0.7071 -0.0000 -0.7071
vn -0.0000 1.0000 -0.0000
vn -0.0000 -1.0000 -0.0000
vn -0.9611 -0.2762 -0.0000
vn -0.9634 0.2679 -0.0000
vn -0.9616 0.2744 -0.0000
vn 0.9605 0.2783 -0.0000
vn 0.9629 0.2699 -0.0000
vn 0.9623 -0.2719 -0.0000
vn 0.9623 -0.2722 -0.0000
vn -0.9617 -0.2740 -0.0000
vn -0.0000 -0.0004 1.0000
vn -0.0000 0.4922 0.8705
vn -0.0000 -0.4901 -0.8717
vn -0.0000 -0.3783 -0.9257
vn -0.0000 0.2209 0.9753
vn -0.0000 -0.1209 0.9927
vn -0.0000 0.0599 -0.9982
vn -0.0000 -0.9731 0.2303
vn -0.0000 -0.8947 -0.4466
vn -0.0000 0.9999 0.0116
vn -0.0000 0.6603 0.7510
vn -0.0000 -0.7197 -0.6943
vn -0.0000 0.9579 0.2872
vn -0.0000 0.7136 0.7006
vn -0.0000 -0.6337 0.7736
vn -0.0000 -0.9539 -0.3002
vn -0.0000 -0.9832 -0.1825
vn -0.0000 0.9068 0.4216
vn -0.0000 -0.0557 -0.9984
vn -0.0000 0.9932 -0.1166
vn -0.0000 -0.8232 0.5678
vn -0.0000 -0.5813 -0.8137
vn -0.0000 -0.5585 0.8295
vn -0.0000 -0.8461 -0.5330
vn -0.0000 -0.9973 0.0733
vn -0.0000 0.7478 -0.6639
vn -0.0000 0.9391 0.3436
vn -0.0000 0.6510 -0.7591
vn -0.0000 0.4305 0.9026
vn -0.0000 -0.8128 -0.5826
vn 0.2274 -0.1574 -0.9610
vt 0.739048 0.653045
vt 0.739043 0.687274
vt 0.739048 0.687274
vt 0.739040 0.653045
vt 0.739040 0.687274
vt 0.739043 0.653045
vt 0.739050 0.653045
vt 0.739050 0.687274
vt 0.739048 0.632281
vt 0.739043 0.650954
vt 0.739048 0.650954
vt 0.739040 0.632281
vt 0.739040 0.650954
vt 0.739043 0.632281
vt 0.739050 0.632281
vt 0.739050 0.650954
vt 0.739051 0.650954
vt 0.739051 0.653045
vt 0.739039 0.650954
vt 0.739042 0.653045
vt 0.739042 0.650954
vt 0.739048 0.653045
vt 0.739048 0.650954
vt 0.739039 0.653045
vt 0.739038 0.632281
vt 0.739042 0.629191
vt 0.739042 0.632281
vt 0.739052 0.632281
vt 0.739048 0.629191
vt 0.739048 0.632281
vt 0.739052 0.629191
vt 0.739038 0.629191
vt 0.739122 0.649516
vt 0.739127 0.655052
vt 0.739132 0.655052
vt 0.739113 0.654254
vt 0.739116 0.655052
vt 0.739105 0.656110
vt 0.739120 0.656110
vt 0.739090 0.656110
vt 0.739101 0.656110
vt 0.739135 0.656110
vt 0.739135 0.655052
vt 0.739120 0.655052
vt 0.739101 0.655052
vt 0.739098 0.655052
vt 0.739124 0.647566
vt 0.739103 0.649516
vt 0.739120 0.647566
vt 0.739109 0.655052
vt 0.739101 0.647566
vt 0.739094 0.655052
vt 0.739124 0.655052
vt 0.739105 0.655052
vt 0.739106 0.647566
vt 0.739090 0.655052
vt 0.739124 0.656110
vt 0.739042 0.647566
vt 0.739042 0.654779
vt 0.739042 0.649534
vt 0.739047 0.649534
vt 0.739047 0.656107
vt 0.739047 0.654779
vt 0.739042 0.655052
vt 0.739047 0.655052
vt 0.739047 0.647566
vt 0.739042 0.647651
vt 0.739047 0.648706
vt 0.739042 0.648706
vt 0.739047 0.647651
vt 0.739042 0.656107
vt 0.738972 0.654941
vt 0.738959 0.654941
vt 0.738955 0.655995
vt 0.738972 0.648597
vt 0.738959 0.648597
vt 0.738955 0.647566
vt 0.738977 0.654941
vt 0.738977 0.648597
vt 0.738959 0.653459
vt 0.738955 0.653459
vt 0.738972 0.651366
vt 0.738981 0.648597
vt 0.738960 0.651366
vt 0.738981 0.647566
vt 0.738981 0.655995
vt 0.738960 0.652422
vt 0.738981 0.654941
vt 0.738972 0.652422
vt 0.738955 0.650139
vt 0.738959 0.650139
vt 0.739042 0.653009
vt 0.739042 0.654288
vt 0.739042 0.653200
vt 0.739047 0.653009
vt 0.739047 0.653200
vt 0.739047 0.654288
vt 0.739042 0.650250
vt 0.739047 0.651103
vt 0.739047 0.650250
vt 0.739047 0.649203
vt 0.739042 0.649203
vt 0.739042 0.650482
vt 0.739047 0.649421
vt 0.739047 0.650482
vt 0.739042 0.647869
vt 0.739047 0.652389
vt 0.739042 0.651625
vt 0.739047 0.651625
vt 0.739042 0.648754
vt 0.739047 0.648769
vt 0.739047 0.648754
vt 0.739047 0.652230
vt 0.739042 0.651103
vt 0.739042 0.652230
vt 0.739042 0.651083
vt 0.739047 0.651083
vt 0.739047 0.652704
vt 0.739042 0.652704
vt 0.739042 0.650019
vt 0.739042 0.648769
vt 0.739042 0.656201
vt 0.739047 0.653639
vt 0.739042 0.653639
vt 0.739047 0.656201
vt 0.739042 0.650772
vt 0.739047 0.650019
vt 0.739042 0.655635
vt 0.739042 0.655060
vt 0.739047 0.650772
vt 0.739042 0.647703
vt 0.739047 0.647703
vt 0.739042 0.648399
vt 0.739047 0.654225
vt 0.739042 0.654225
vt 0.739047 0.647777
vt 0.739042 0.647777
vt 0.739042 0.656231
vt 0.739047 0.655635
vt 0.739047 0.654701
vt 0.739042 0.654701
vt 0.739042 0.656012
vt 0.739047 0.656231
vt 0.739042 0.648244
vt 0.739047 0.647869
vt 0.739042 0.652389
vt 0.739047 0.648244
vt 0.739047 0.648399
vt 0.739047 0.655154
vt 0.739047 0.655060
vt 0.739042 0.649421
vt 0.739047 0.656012
vt 0.739042 0.655154
vt 0.739098 0.651202
vt 0.738977 0.652806
vt 0.738977 0.651202
vt 0.739098 0.652806
vt 0.739047 0.651202
vt 0.739043 0.651202
vt 0.739047 0.652806
vt 0.739043 0.652806
s 0
usemtl Texture_Map
f 1/1/1 13/2/1 12/3/1
f 4/4/2 15/5/2 14/5/2
f 5/6/3 9/3/3 16/2/3
f 8/7/4 9/3/4 7/1/4
f 4/4/5 13/2/5 3/6/5
f 8/7/6 11/8/6 10/8/6
f 11/8/7 1/1/7 12/3/7
f 15/5/8 5/6/8 16/2/8
f 48/9/1 23/10/1 20/11/1
f 47/12/2 22/13/2 19/13/2
f 45/14/3 21/11/3 17/10/3
f 46/15/4 21/11/4 41/9/4
f 47/12/5 23/10/5 43/14/5
f 46/15/6 24/16/6 18/16/6
f 32/17/6 29/18/6 30/18/6
f 33/19/5 28/20/5 39/21/5
f 32/17/4 36/22/4 37/23/4
f 31/21/3 36/22/3 26/20/3
f 33/19/2 25/24/2 27/24/2
f 34/23/1 28/20/1 35/22/1
f 29/18/7 34/23/7 35/22/7
f 25/24/8 31/21/8 26/20/8
f 28/20/9 27/24/9 30/18/9
f 38/19/10 33/19/10 32/17/10
f 24/16/7 48/9/7 20/11/7
f 22/13/8 45/14/8 17/10/8
f 52/25/8 54/26/8 61/27/8
f 58/28/7 60/29/7 64/30/7
f 50/31/6 58/28/6 62/28/6
f 56/32/5 57/27/5 55/26/5
f 50/31/4 51/30/4 49/29/4
f 54/26/3 51/30/3 61/27/3
f 56/32/2 52/25/2 63/25/2
f 60/29/1 57/27/1 64/30/1
f 59/31/10 50/31/10 56/32/10
f 62/28/9 64/30/9 63/25/9
f 79/33/1 80/34/1 85/35/1
f 113/36/3 104/33/3 103/37/3
f 100/38/9 76/39/9 75/38/9
f 93/40/9 69/41/9 68/40/9
f 108/42/6 84/43/6 83/42/6
f 101/39/6 77/44/6 76/39/6
f 94/41/6 70/45/6 69/41/6
f 109/43/10 85/35/10 84/43/10
f 102/44/10 78/37/10 77/44/10
f 95/45/10 71/46/10 70/45/10
f 110/35/11 86/47/11 85/35/11
f 103/37/12 79/33/12 78/37/12
f 96/46/13 72/48/13 71/46/13
f 111/47/10 87/49/10 86/47/10
f 79/33/14 105/34/14 80/34/14
f 72/48/15 98/50/15 73/50/15
f 87/49/16 113/36/16 88/36/16
f 65/51/17 91/52/17 66/52/17
f 105/34/10 81/53/10 80/34/10
f 98/50/10 74/54/10 73/50/10
f 113/36/18 89/55/18 88/36/18
f 91/52/10 67/56/10 66/52/10
f 106/53/2 82/57/2 81/53/2
f 99/54/2 75/38/2 74/54/2
f 114/55/10 65/51/10 89/55/10
f 92/56/2 68/40/2 67/56/2
f 107/57/9 83/42/9 82/57/9
f 133/58/2 132/59/2 121/60/2
f 141/61/6 142/62/6 152/63/6
f 120/64/10 139/65/10 119/64/10
f 115/64/19 154/66/19 134/58/19
f 128/67/3 147/68/3 127/69/3
f 121/60/3 140/65/3 120/64/3
f 129/67/10 148/70/10 128/67/10
f 121/60/20 142/62/20 141/61/20
f 130/69/1 149/70/1 129/67/1
f 123/71/9 142/62/9 122/71/9
f 116/64/10 135/65/10 115/64/10
f 131/69/9 150/68/9 130/69/9
f 124/64/3 143/62/3 123/71/3
f 117/71/1 136/65/1 116/64/1
f 132/59/1 151/68/1 131/69/1
f 125/64/10 144/65/10 124/64/10
f 118/71/9 137/62/9 117/71/9
f 133/58/21 152/63/21 132/59/21
f 126/69/3 145/65/3 125/64/3
f 119/64/3 138/62/3 118/71/3
f 134/58/10 153/66/10 133/58/10
f 127/69/9 146/68/9 126/69/9
f 168/72/1 169/73/1 172/74/1
f 183/75/22 182/76/22 179/77/22
f 182/76/9 163/75/9 162/76/9
f 175/78/6 156/79/6 155/78/6
f 190/80/10 171/81/10 170/80/10
f 163/75/2 184/82/2 164/82/2
f 176/79/9 157/83/9 156/79/9
f 191/81/2 172/74/2 171/81/2
f 184/82/10 165/84/10 164/82/10
f 157/83/6 178/85/6 158/85/6
f 192/74/9 173/86/9 172/74/9
f 185/84/2 166/87/2 165/84/2
f 178/85/10 159/77/10 158/85/10
f 193/86/6 174/88/6 173/86/6
f 166/87/9 187/89/9 167/89/9
f 179/77/2 160/90/2 159/77/2
f 174/88/10 175/78/10 155/78/10
f 187/89/2 168/72/2 167/89/2
f 180/90/9 161/91/9 160/90/9
f 188/72/10 169/73/10 168/72/10
f 181/91/6 162/76/6 161/91/6
f 169/73/6 190/80/6 170/80/6
f 204/92/2 228/93/2 227/94/2
f 240/95/6 263/96/6 264/97/6
f 223/98/23 260/99/23 259/100/23
f 223/98/24 258/101/24 222/102/24
f 208/103/25 245/104/25 244/105/25
f 220/106/26 255/66/26 219/58/26
f 241/107/27 206/108/27 242/109/27
f 210/110/28 247/111/28 246/112/28
f 261/113/29 224/114/29 225/115/29
f 207/116/30 244/105/30 243/117/30
f 227/94/31 262/118/31 226/119/31
f 212/120/32 247/111/32 211/121/32
f 196/122/1 231/123/1 195/124/1
f 197/122/9 232/125/9 196/122/9
f 213/126/1 248/127/1 212/120/1
f 198/128/3 233/125/3 197/122/3
f 229/129/33 264/97/33 228/93/33
f 213/126/9 250/130/9 249/130/9
f 207/116/34 242/109/34 206/108/34
f 215/131/3 250/130/3 214/126/3
f 216/131/10 251/132/10 215/131/10
f 195/124/10 236/123/10 200/124/10
f 217/133/1 252/132/1 216/131/1
f 200/124/3 237/134/3 201/135/3
f 219/58/35 254/136/35 218/137/35
f 199/138/36 234/139/36 198/128/36
f 204/92/37 239/140/37 203/141/37
f 202/142/38 235/143/38 199/138/38
f 221/144/39 256/145/39 220/106/39
f 205/146/40 240/95/40 204/92/40
f 222/102/41 257/147/41 221/144/41
f 217/133/42 254/136/42 253/148/42
f 229/129/43 266/149/43 265/150/43
f 209/151/44 246/112/44 245/104/44
f 226/119/45 261/113/45 225/115/45
f 203/141/46 238/152/46 202/142/46
f 263/96/47 228/93/47 264/97/47
f 230/153/48 237/134/48 266/149/48
f 273/154/3 270/155/3 274/156/3
f 272/156/1 267/157/1 271/154/1
f 270/155/9 267/157/9 268/155/9
f 274/156/10 271/154/10 273/154/10
f 275/158/10 278/159/10 276/158/10
f 279/160/9 282/161/9 281/161/9
f 277/159/2 282/161/2 278/159/2
f 275/158/6 280/160/6 279/160/6
f 1/1/1 3/6/1 13/2/1
f 4/4/2 6/4/2 15/5/2
f 5/6/3 7/1/3 9/3/3
f 8/7/4 10/8/4 9/3/4
f 4/4/5 14/5/5 13/2/5
f 8/7/6 2/7/6 11/8/6
f 11/8/7 2/7/7 1/1/7
f 15/5/8 6/4/8 5/6/8
f 48/9/1 43/14/1 23/10/1
f 47/12/2 42/12/2 22/13/2
f 45/14/3 41/9/3 21/11/3
f 46/15/4 18/16/4 21/11/4
f 47/12/5 19/13/5 23/10/5
f 46/15/6 44/15/6 24/16/6
f 32/17/6 40/17/6 29/18/6
f 33/19/5 27/24/5 28/20/5
f 32/17/4 30/18/4 36/22/4
f 31/21/3 37/23/3 36/22/3
f 33/19/2 38/19/2 25/24/2
f 34/23/1 39/21/1 28/20/1
f 29/18/7 40/17/7 34/23/7
f 25/24/8 38/19/8 31/21/8
f 27/24/9 25/24/9 30/18/9
f 25/24/9 26/20/9 30/18/9
f 26/20/9 36/22/9 30/18/9
f 30/18/9 29/18/9 35/22/9
f 35/22/9 28/20/9 30/18/9
f 33/19/10 39/21/10 32/17/10
f 39/21/10 34/23/10 32/17/10
f 34/23/10 40/17/10 32/17/10
f 32/17/10 37/23/10 31/21/10
f 31/21/10 38/19/10 32/17/10
f 24/16/7 44/15/7 48/9/7
f 22/13/8 42/12/8 45/14/8
f 52/25/8 53/32/8 54/26/8
f 58/28/7 59/31/7 60/29/7
f 50/31/6 59/31/6 58/28/6
f 56/32/5 63/25/5 57/27/5
f 50/31/4 62/28/4 51/30/4
f 54/26/3 49/29/3 51/30/3
f 56/32/2 53/32/2 52/25/2
f 60/29/1 55/26/1 57/27/1
f 50/31/10 49/29/10 54/26/10
f 54/26/10 53/32/10 50/31/10
f 53/32/10 56/32/10 50/31/10
f 56/32/10 55/26/10 60/29/10
f 60/29/10 59/31/10 56/32/10
f 62/28/9 58/28/9 64/30/9
f 64/30/9 57/27/9 63/25/9
f 63/25/9 52/25/9 62/28/9
f 52/25/9 61/27/9 62/28/9
f 61/27/9 51/30/9 62/28/9
f 66/52/1 67/56/1 68/40/1
f 68/40/1 69/41/1 71/46/1
f 69/41/1 70/45/1 71/46/1
f 89/55/1 65/51/1 72/48/1
f 65/51/1 66/52/1 72/48/1
f 66/52/1 68/40/1 71/46/1
f 66/52/1 71/46/1 72/48/1
f 86/47/1 87/49/1 79/33/1
f 87/49/1 88/36/1 79/33/1
f 83/42/1 84/43/1 85/35/1
f 73/50/1 74/54/1 75/38/1
f 89/55/1 72/48/1 88/36/1
f 72/48/1 73/50/1 88/36/1
f 73/50/1 75/38/1 78/37/1
f 75/38/1 76/39/1 78/37/1
f 76/39/1 77/44/1 78/37/1
f 88/36/1 73/50/1 78/37/1
f 88/36/1 78/37/1 79/33/1
f 82/57/1 83/42/1 85/35/1
f 80/34/1 81/53/1 82/57/1
f 80/34/1 82/57/1 85/35/1
f 86/47/1 79/33/1 85/35/1
f 91/52/3 90/51/3 97/48/3
f 90/51/3 114/55/3 97/48/3
f 113/36/3 112/49/3 104/33/3
f 112/49/3 111/47/3 104/33/3
f 93/40/3 92/56/3 91/52/3
f 95/45/3 94/41/3 96/46/3
f 94/41/3 93/40/3 96/46/3
f 96/46/3 93/40/3 91/52/3
f 97/48/3 96/46/3 91/52/3
f 110/35/3 109/43/3 108/42/3
f 108/42/3 107/57/3 105/34/3
f 107/57/3 106/53/3 105/34/3
f 110/35/3 108/42/3 105/34/3
f 110/35/3 105/34/3 104/33/3
f 100/38/3 99/54/3 98/50/3
f 98/50/3 97/48/3 113/36/3
f 97/48/3 114/55/3 113/36/3
f 101/39/3 100/38/3 103/37/3
f 100/38/3 98/50/3 103/37/3
f 103/37/3 102/44/3 101/39/3
f 111/47/3 110/35/3 104/33/3
f 103/37/3 98/50/3 113/36/3
f 100/38/9 101/39/9 76/39/9
f 93/40/9 94/41/9 69/41/9
f 108/42/6 109/43/6 84/43/6
f 101/39/6 102/44/6 77/44/6
f 94/41/6 95/45/6 70/45/6
f 109/43/10 110/35/10 85/35/10
f 102/44/10 103/37/10 78/37/10
f 95/45/10 96/46/10 71/46/10
f 110/35/11 111/47/11 86/47/11
f 103/37/12 104/33/12 79/33/12
f 96/46/13 97/48/13 72/48/13
f 111/47/10 112/49/10 87/49/10
f 79/33/14 104/33/14 105/34/14
f 72/48/15 97/48/15 98/50/15
f 87/49/16 112/49/16 113/36/16
f 65/51/17 90/51/17 91/52/17
f 105/34/10 106/53/10 81/53/10
f 98/50/10 99/54/10 74/54/10
f 113/36/18 114/55/18 89/55/18
f 91/52/10 92/56/10 67/56/10
f 106/53/2 107/57/2 82/57/2
f 99/54/2 100/38/2 75/38/2
f 114/55/10 90/51/10 65/51/10
f 92/56/2 93/40/2 68/40/2
f 107/57/9 108/42/9 83/42/9
f 117/71/2 116/64/2 115/64/2
f 115/64/2 134/58/2 121/60/2
f 134/58/2 133/58/2 121/60/2
f 118/71/2 117/71/2 115/64/2
f 120/64/2 119/64/2 118/71/2
f 120/64/2 118/71/2 115/64/2
f 131/69/2 130/69/2 129/67/2
f 129/67/2 128/67/2 126/69/2
f 128/67/2 127/69/2 126/69/2
f 131/69/2 129/67/2 126/69/2
f 125/64/2 124/64/2 123/71/2
f 131/69/2 126/69/2 132/59/2
f 126/69/2 125/64/2 132/59/2
f 125/64/2 123/71/2 122/71/2
f 121/60/2 120/64/2 115/64/2
f 132/59/2 125/64/2 122/71/2
f 132/59/2 122/71/2 121/60/2
f 135/65/6 136/65/6 137/62/6
f 137/62/6 138/62/6 135/65/6
f 138/62/6 139/65/6 140/65/6
f 138/62/6 140/65/6 135/65/6
f 153/66/6 154/66/6 141/61/6
f 154/66/6 135/65/6 141/61/6
f 135/65/6 140/65/6 141/61/6
f 149/70/6 150/68/6 151/68/6
f 147/68/6 148/70/6 146/68/6
f 148/70/6 149/70/6 146/68/6
f 146/68/6 149/70/6 151/68/6
f 143/62/6 144/65/6 145/65/6
f 145/65/6 146/68/6 152/63/6
f 146/68/6 151/68/6 152/63/6
f 142/62/6 143/62/6 145/65/6
f 142/62/6 145/65/6 152/63/6
f 152/63/6 153/66/6 141/61/6
f 120/64/10 140/65/10 139/65/10
f 115/64/19 135/65/19 154/66/19
f 128/67/3 148/70/3 147/68/3
f 121/60/3 141/61/3 140/65/3
f 129/67/10 149/70/10 148/70/10
f 121/60/20 122/71/20 142/62/20
f 130/69/1 150/68/1 149/70/1
f 123/71/9 143/62/9 142/62/9
f 116/64/10 136/65/10 135/65/10
f 131/69/9 151/68/9 150/68/9
f 124/64/3 144/65/3 143/62/3
f 117/71/1 137/62/1 136/65/1
f 132/59/1 152/63/1 151/68/1
f 125/64/10 145/65/10 144/65/10
f 118/71/9 138/62/9 137/62/9
f 133/58/21 153/66/21 152/63/21
f 126/69/3 146/68/3 145/65/3
f 119/64/3 139/65/3 138/62/3
f 134/58/10 154/66/10 153/66/10
f 127/69/9 147/68/9 146/68/9
f 156/79/1 157/83/1 158/85/1
f 159/77/1 160/90/1 162/76/1
f 160/90/1 161/91/1 162/76/1
f 156/79/1 158/85/1 163/75/1
f 158/85/1 159/77/1 163/75/1
f 173/86/1 174/88/1 155/78/1
f 159/77/1 162/76/1 163/75/1
f 164/82/1 165/84/1 166/87/1
f 164/82/1 166/87/1 167/89/1
f 156/79/1 163/75/1 164/82/1
f 172/74/1 173/86/1 168/72/1
f 173/86/1 155/78/1 168/72/1
f 155/78/1 156/79/1 164/82/1
f 155/78/1 164/82/1 167/89/1
f 170/80/1 171/81/1 169/73/1
f 171/81/1 172/74/1 169/73/1
f 155/78/1 167/89/1 168/72/1
f 175/78/3 194/88/3 193/86/3
f 192/74/3 191/81/3 189/73/3
f 191/81/3 190/80/3 189/73/3
f 175/78/3 193/86/3 188/72/3
f 193/86/3 192/74/3 188/72/3
f 178/85/22 177/83/22 176/79/22
f 192/74/3 189/73/3 188/72/3
f 187/89/3 186/87/3 185/84/3
f 187/89/3 185/84/3 184/82/3
f 175/78/3 188/72/3 187/89/3
f 179/77/22 178/85/22 183/75/22
f 178/85/22 176/79/22 183/75/22
f 176/79/3 175/78/3 184/82/3
f 175/78/3 187/89/3 184/82/3
f 181/91/3 180/90/3 182/76/3
f 180/90/49 179/77/49 182/76/49
f 176/79/3 184/82/3 183/75/3
f 182/76/9 183/75/9 163/75/9
f 175/78/6 176/79/6 156/79/6
f 190/80/10 191/81/10 171/81/10
f 163/75/2 183/75/2 184/82/2
f 176/79/9 177/83/9 157/83/9
f 191/81/2 192/74/2 172/74/2
f 184/82/10 185/84/10 165/84/10
f 157/83/6 177/83/6 178/85/6
f 192/74/9 193/86/9 173/86/9
f 185/84/2 186/87/2 166/87/2
f 178/85/10 179/77/10 159/77/10
f 193/86/6 194/88/6 174/88/6
f 166/87/9 186/87/9 187/89/9
f 179/77/2 180/90/2 160/90/2
f 174/88/10 194/88/10 175/78/10
f 187/89/2 188/72/2 168/72/2
f 180/90/9 181/91/9 161/91/9
f 188/72/10 189/73/10 169/73/10
f 181/91/6 182/76/6 162/76/6
f 169/73/6 189/73/6 190/80/6
f 196/122/2 195/124/2 201/135/2
f 195/124/2 200/124/2 201/135/2
f 198/128/2 197/122/2 196/122/2
f 202/142/2 199/138/2 229/129/2
f 199/138/2 198/128/2 230/153/2
f 229/129/2 199/138/2 230/153/2
f 204/92/2 203/141/2 228/93/2
f 203/141/2 202/142/2 229/129/2
f 228/93/2 203/141/2 229/129/2
f 206/108/2 205/146/2 227/94/2
f 205/146/2 204/92/2 227/94/2
f 207/116/2 206/108/2 226/119/2
f 198/128/2 196/122/2 201/135/2
f 198/128/2 201/135/2 230/153/2
f 214/126/2 213/126/2 212/120/2
f 216/131/2 215/131/2 217/133/2
f 215/131/2 214/126/2 212/120/2
f 217/133/2 215/131/2 212/120/2
f 219/58/2 218/137/2 211/121/2
f 218/137/2 217/133/2 211/121/2
f 212/120/2 211/121/2 217/133/2
f 220/106/2 219/58/2 210/110/2
f 222/102/2 221/144/2 209/151/2
f 221/144/2 220/106/2 210/110/2
f 209/151/2 221/144/2 210/110/2
f 224/114/2 223/98/2 208/103/2
f 223/98/2 222/102/2 209/151/2
f 208/103/2 223/98/2 209/151/2
f 226/119/2 225/115/2 207/116/2
f 225/115/2 224/114/2 208/103/2
f 207/116/2 225/115/2 208/103/2
f 227/94/2 226/119/2 206/108/2
f 219/58/2 211/121/2 210/110/2
f 236/123/6 231/123/6 237/134/6
f 231/123/6 232/125/6 237/134/6
f 232/125/6 233/125/6 234/139/6
f 234/139/6 235/143/6 266/149/6
f 235/143/6 238/152/6 265/150/6
f 238/152/6 239/140/6 265/150/6
f 239/140/6 240/95/6 264/97/6
f 240/95/6 241/107/6 263/96/6
f 241/107/6 242/109/6 263/96/6
f 242/109/6 243/117/6 262/118/6
f 263/96/6 242/109/6 262/118/6
f 237/134/6 232/125/6 234/139/6
f 248/127/6 249/130/6 250/130/6
f 250/130/6 251/132/6 248/127/6
f 251/132/6 252/132/6 253/148/6
f 253/148/6 254/136/6 247/111/6
f 254/136/6 255/66/6 247/111/6
f 251/132/6 253/148/6 248/127/6
f 247/111/6 248/127/6 253/148/6
f 255/66/6 256/145/6 246/112/6
f 247/111/6 255/66/6 246/112/6
f 256/145/6 257/147/6 246/112/6
f 257/147/6 258/101/6 245/104/6
f 258/101/6 259/100/6 245/104/6
f 259/100/6 260/99/6 244/105/6
f 260/99/6 261/113/6 244/105/6
f 261/113/6 262/118/6 243/117/6
f 261/113/6 243/117/6 244/105/6
f 257/147/6 245/104/6 246/112/6
f 259/100/6 244/105/6 245/104/6
f 266/149/6 237/134/6 234/139/6
f 265/150/6 266/149/6 235/143/6
f 264/97/6 265/150/6 239/140/6
f 223/98/23 224/114/23 260/99/23
f 223/98/24 259/100/24 258/101/24
f 208/103/25 209/151/25 245/104/25
f 220/106/26 256/145/26 255/66/26
f 241/107/27 205/146/27 206/108/27
f 210/110/28 211/121/28 247/111/28
f 261/113/29 260/99/29 224/114/29
f 207/116/30 208/103/30 244/105/30
f 227/94/31 263/96/31 262/118/31
f 212/120/32 248/127/32 247/111/32
f 196/122/1 232/125/1 231/123/1
f 197/122/9 233/125/9 232/125/9
f 213/126/1 249/130/1 248/127/1
f 198/128/3 234/139/3 233/125/3
f 229/129/33 265/150/33 264/97/33
f 213/126/9 214/126/9 250/130/9
f 207/116/34 243/117/34 242/109/34
f 215/131/3 251/132/3 250/130/3
f 216/131/10 252/132/10 251/132/10
f 195/124/10 231/123/10 236/123/10
f 217/133/1 253/148/1 252/132/1
f 200/124/3 236/123/3 237/134/3
f 219/58/35 255/66/35 254/136/35
f 199/138/36 235/143/36 234/139/36
f 204/92/37 240/95/37 239/140/37
f 202/142/38 238/152/38 235/143/38
f 221/144/39 257/147/39 256/145/39
f 205/146/40 241/107/40 240/95/40
f 222/102/41 258/101/41 257/147/41
f 217/133/42 218/137/42 254/136/42
f 229/129/43 230/153/43 266/149/43
f 209/151/44 210/110/44 246/112/44
f 226/119/45 262/118/45 261/113/45
f 203/141/46 239/140/46 238/152/46
f 263/96/47 227/94/47 228/93/47
f 230/153/48 201/135/48 237/134/48
f 273/154/3 269/157/3 270/155/3
f 272/156/1 268/155/1 267/157/1
f 270/155/9 269/157/9 267/157/9
f 274/156/10 272/156/10 271/154/10
f 275/158/10 277/159/10 278/159/10
f 279/160/9 280/160/9 282/161/9
f 277/159/2 281/161/2 282/161/2
f 275/158/6 276/158/6 280/160/6
o Prop_Weathervane_Top_04
v 0.262972 0.877759 -0.019976
v 0.281670 0.887269 -0.019976
v 0.288802 0.900184 -0.019976
v 0.287003 0.914449 -0.019976
v 0.269783 0.937709 -0.019976
v 0.243888 0.959941 -0.019976
v 0.202572 0.974977 -0.019976
v 0.184252 0.974755 -0.019976
v 0.113969 0.957212 -0.019976
v 0.086211 0.961764 -0.019976
v 0.074108 0.970536 -0.019976
v 0.066780 0.970091 -0.019976
v 0.049459 0.979640 -0.019976
v 0.036468 0.979085 -0.019976
v 0.040478 0.984868 -0.019976
v 0.038704 0.988646 -0.019976
v 0.020045 0.986796 -0.019976
v 0.016189 0.990420 -0.019976
v 0.016883 0.997822 -0.019976
v 0.002850 0.992810 -0.019976
v -0.007791 0.997667 -0.019976
v -0.002702 1.009927 -0.019976
v -0.028532 1.001137 -0.019976
v -0.042411 1.001831 -0.019976
v -0.041948 1.008385 -0.019976
v -0.045727 1.013089 -0.019976
v -0.068087 1.006149 -0.019976
v -0.076260 1.010544 -0.019976
v -0.076029 1.018100 -0.019976
v -0.078882 1.023806 -0.019976
v -0.109107 1.017098 -0.019976
v -0.110341 1.025194 -0.019976
v -0.114273 1.029820 -0.019976
v -0.144730 1.015093 -0.019976
v -0.140142 1.013397 -0.019976
v -0.105676 1.014091 -0.019976
v -0.146889 1.019565 -0.019976
v -0.151001 1.022136 -0.019976
v -0.179274 1.006136 -0.019976
v -0.180559 1.016610 -0.019976
v -0.217425 0.960155 -0.019976
v -0.263041 0.955252 -0.019976
v -0.307276 0.944326 -0.019976
v -0.398450 0.904210 -0.019976
v -0.464427 0.856136 -0.019976
v -0.498962 0.812161 -0.019976
v -0.497120 0.789828 -0.019976
v -0.480083 0.773942 -0.019976
v -0.406177 0.725592 -0.019976
v -0.320989 0.684380 -0.019976
v -0.230046 0.663658 -0.019976
v -0.211397 0.614618 -0.019976
v -0.139793 0.550612 -0.019976
v -0.131735 0.553836 -0.019976
v -0.117921 0.580543 -0.019976
v -0.137261 0.633728 -0.019976
v -0.121374 0.609898 -0.019976
v -0.159363 0.646161 -0.019976
v -0.163738 0.658133 -0.019976
v 0.090554 0.682667 -0.019976
v 0.104176 0.646021 -0.019976
v 0.108589 0.646980 -0.019976
v 0.114345 0.659259 -0.019976
v 0.168259 0.619160 -0.019976
v 0.153485 0.646596 -0.019976
v 0.154061 0.660411 -0.019976
v 0.245963 0.631439 -0.019976
v 0.269755 0.635852 -0.019976
v 0.277728 0.679224 -0.019976
v 0.276662 0.708536 -0.019976
v 0.252545 0.738115 -0.019976
v 0.269000 0.727723 -0.019976
v 0.228429 0.736517 -0.019976
v 0.267735 0.761299 -0.019976
v 0.313969 0.778620 -0.019976
v 0.361268 0.783550 -0.019976
v 0.398975 0.765030 -0.019976
v 0.444809 0.739581 -0.019976
v 0.501036 0.722127 -0.019976
v 0.508364 0.845239 -0.019976
v 0.493814 0.925502 -0.019976
v 0.416915 0.891197 -0.019976
v 0.298113 0.865180 -0.019976
v 0.347384 0.865296 -0.019976
v 0.262972 0.877759 0.019976
v 0.281670 0.887269 0.019976
v 0.288802 0.900184 0.019976
v 0.287003 0.914449 0.019976
v 0.269783 0.937709 0.019976
v 0.243888 0.959941 0.019976
v 0.202572 0.974977 0.019976
v 0.184252 0.974755 0.019976
v 0.113969 0.957212 0.019976
v 0.086211 0.961764 0.019976
v 0.074108 0.970536 0.019976
v 0.066780 0.970091 0.019976
v 0.049459 0.979640 0.019976
v 0.036468 0.979085 0.019976
v 0.040478 0.984868 0.019976
v 0.038704 0.988646 0.019976
v 0.020045 0.986796 0.019976
v 0.016189 0.990420 0.019976
v 0.016883 0.997822 0.019976
v 0.002850 0.992810 0.019976
v -0.007791 0.997667 0.019976
v -0.002702 1.009927 0.019976
v -0.028532 1.001137 0.019976
v -0.042411 1.001831 0.019976
v -0.041948 1.008385 0.019976
v -0.045727 1.013089 0.019976
v -0.068087 1.006149 0.019976
v -0.076260 1.010544 0.019976
v -0.076029 1.018100 0.019976
v -0.078882 1.023806 0.019976
v -0.109107 1.017098 0.019976
v -0.110341 1.025194 0.019976
v -0.114273 1.029820 0.019976
v -0.144730 1.015093 0.019976
v -0.140142 1.013397 0.019976
v -0.105676 1.014091 0.019976
v -0.146889 1.019565 0.019976
v -0.151001 1.022136 0.019976
v -0.179274 1.006136 0.019976
v -0.180559 1.016610 0.019976
v -0.217425 0.960155 0.019976
v -0.263041 0.955252 0.019976
v -0.307276 0.944326 0.019976
v -0.398450 0.904210 0.019976
v -0.464427 0.856136 0.019976
v -0.498962 0.812161 0.019976
v -0.497120 0.789828 0.019976
v -0.480083 0.773942 0.019976
v -0.406177 0.725592 0.019976
v -0.320989 0.684380 0.019976
v -0.230046 0.663658 0.019976
v -0.211397 0.614618 0.019976
v -0.139793 0.550612 0.019976
v -0.131735 0.553836 0.019976
v -0.117921 0.580543 0.019976
v -0.137261 0.633728 0.019976
v -0.121374 0.609898 0.019976
v -0.159363 0.646161 0.019976
v -0.163738 0.658133 0.019976
v 0.090554 0.682667 0.019976
v 0.104176 0.646021 0.019976
v 0.108589 0.646980 0.019976
v 0.114345 0.659259 0.019976
v 0.168259 0.619160 0.019976
v 0.153485 0.646596 0.019976
v 0.154061 0.660411 0.019976
v 0.245963 0.631439 0.019976
v 0.269755 0.635852 0.019976
v 0.277728 0.679224 0.019976
v 0.276662 0.708536 0.019976
v 0.252545 0.738115 0.019976
v 0.269000 0.727723 0.019976
v 0.228429 0.736517 0.019976
v 0.267735 0.761299 0.019976
v 0.313969 0.778620 0.019976
v 0.361268 0.783550 0.019976
v 0.398975 0.765030 0.019976
v 0.444809 0.739581 0.019976
v 0.501036 0.722127 0.019976
v 0.508364 0.845239 0.019976
v 0.493814 0.925502 0.019976
v 0.416915 0.891197 0.019976
v 0.298113 0.865180 0.019976
v 0.347384 0.865296 0.019976
vn -0.0000 -0.0000 -1.0000
vn -0.0000 -0.0000 1.0000
vn 0.4533 -0.8913 -0.0000
vn 0.8754 -0.4834 -0.0000
vn 0.9921 0.1251 -0.0000
vn 0.8037 0.5950 -0.0000
vn 0.6514 0.7587 -0.0000
vn 0.3420 0.9397 -0.0000
vn -0.0121 0.9999 -0.0000
vn -0.2422 0.9702 -0.0000
vn 0.1618 0.9868 -0.0000
vn 0.5868 0.8097 -0.0000
vn -0.0605 0.9982 -0.0000
vn -0.2964 0.9551 -0.0000
vn -0.0427 0.9991 -0.0000
vn 0.8218 -0.5698 -0.0000
vn 0.9052 0.4249 -0.0000
vn -0.0987 0.9951 -0.0000
vn 0.6849 0.7286 -0.0000
vn 0.9956 -0.0933 -0.0000
vn -0.3363 0.9417 -0.0000
vn 0.4153 0.9097 -0.0000
vn 0.9236 -0.3834 -0.0000
vn -0.3222 0.9467 -0.0000
vn 0.0499 0.9988 -0.0000
vn 0.9975 -0.0704 -0.0000
vn 0.7796 0.6263 -0.0000
vn 0.4736 0.8807 -0.0000
vn 0.9995 -0.0306 -0.0000
vn 0.8944 0.4472 -0.0000
vn -0.8373 0.5468 -0.0000
vn 0.6591 0.7521 -0.0000
vn 0.9886 0.1506 -0.0000
vn 0.7619 0.6477 -0.0000
vn -0.3409 0.9401 -0.0000
vn 0.3468 0.9379 -0.0000
vn 0.9005 0.4348 -0.0000
vn 0.5300 0.8480 -0.0000
vn -0.5360 0.8442 -0.0000
vn -0.4925 0.8703 -0.0000
vn 0.9926 0.1218 -0.0000
vn -0.9966 -0.0822 -0.0000
vn -0.1069 0.9943 -0.0000
vn -0.2398 0.9708 -0.0000
vn -0.4027 0.9153 -0.0000
vn -0.5889 0.8082 -0.0000
vn -0.7865 0.6176 -0.0000
vn -0.6664 -0.7456 -0.0000
vn -0.6820 -0.7314 -0.0000
vn -0.5475 -0.8368 -0.0000
vn -0.4355 -0.9002 -0.0000
vn -0.2222 -0.9750 -0.0000
vn -0.9373 -0.3484 -0.0000
vn -0.9347 -0.3554 -0.0000
vn 0.3714 -0.9285 -0.0000
vn 0.8882 -0.4594 -0.0000
vn 0.8320 0.5547 -0.0000
vn 0.9932 0.1168 -0.0000
vn 0.4903 0.8716 -0.0000
vn 0.9393 0.3432 -0.0000
vn 0.0960 -0.9954 -0.0000
vn 0.2124 -0.9772 -0.0000
vn 0.9055 -0.4244 -0.0000
vn -0.5968 -0.8024 -0.0000
vn 0.8805 0.4741 -0.0000
vn 0.9991 -0.0416 -0.0000
vn 0.1824 -0.9832 -0.0000
vn 0.9835 -0.1808 -0.0000
vn 0.9993 0.0363 -0.0000
vn 0.5340 0.8455 -0.0000
vn 0.9287 0.3708 -0.0000
vn -0.0662 0.9978 -0.0000
vn 0.5333 -0.8459 -0.0000
vn 0.3508 -0.9364 -0.0000
vn 0.1037 -0.9946 -0.0000
vn -0.4409 -0.8976 -0.0000
vn -0.4854 -0.8743 -0.0000
vn -0.2965 -0.9550 -0.0000
vn 0.9840 0.1784 -0.0000
vn -0.4074 0.9132 -0.0000
vn -0.0023 1.0000 -0.0000
vn -0.3491 0.9371 -0.0000
vn 0.3370 0.9415 -0.0000
vn 0.9982 -0.0594 -0.0000
vn 0.4828 0.8757 -0.0000
vn -0.3007 -0.9537 -0.0000
vn 0.8321 0.5547 -0.0000
vt 0.738948 0.695037
vt 0.738962 0.693572
vt 0.738953 0.702357
vt 0.738958 0.704225
vt 0.738964 0.703421
vt 0.738956 0.705317
vt 0.738956 0.706523
vt 0.738962 0.708490
vt 0.738970 0.710370
vt 0.738983 0.711642
vt 0.738988 0.711623
vt 0.739010 0.710140
vt 0.739018 0.710525
vt 0.739022 0.711267
vt 0.739025 0.711229
vt 0.739059 0.714865
vt 0.739066 0.714278
vt 0.739034 0.711989
vt 0.739030 0.712036
vt 0.739033 0.712479
vt 0.739033 0.712798
vt 0.739039 0.712641
vt 0.739040 0.712948
vt 0.739040 0.713574
vt 0.739044 0.713150
vt 0.739048 0.713561
vt 0.739046 0.714598
vt 0.739054 0.713854
vt 0.739058 0.713913
vt 0.739058 0.714467
vt 0.739069 0.714650
vt 0.739069 0.715289
vt 0.739070 0.715772
vt 0.739101 0.715163
vt 0.739112 0.710389
vt 0.739079 0.715204
vt 0.739078 0.714950
vt 0.739079 0.715889
vt 0.739081 0.716280
vt 0.739090 0.715035
vt 0.739089 0.714891
vt 0.739091 0.715413
vt 0.739092 0.715630
vt 0.739101 0.714277
vt 0.739199 0.695985
vt 0.739199 0.697873
vt 0.739127 0.709974
vt 0.739140 0.709050
vt 0.739168 0.705657
vt 0.739189 0.701592
vt 0.739110 0.681167
vt 0.739088 0.675755
vt 0.739194 0.694641
vt 0.739171 0.690552
vt 0.739144 0.687067
vt 0.739116 0.685315
vt 0.739017 0.686922
vt 0.739013 0.683823
vt 0.739086 0.676027
vt 0.739082 0.678286
vt 0.739088 0.682783
vt 0.739083 0.680768
vt 0.739094 0.683835
vt 0.739096 0.684847
vt 0.739012 0.683904
vt 0.739010 0.684943
vt 0.738993 0.681552
vt 0.738998 0.683872
vt 0.738998 0.685040
vt 0.738962 0.682963
vt 0.738969 0.682590
vt 0.738959 0.686631
vt 0.738960 0.689110
vt 0.738967 0.691611
vt 0.738962 0.690732
vt 0.738975 0.691476
vt 0.738933 0.695454
vt 0.738922 0.693887
vt 0.738908 0.691735
vt 0.738890 0.690259
vt 0.738892 0.707458
vt 0.738888 0.700670
vt 0.738916 0.704557
vt 0.738938 0.702366
s 0
usemtl Texture_Map
f 357/162/50 356/163/50 365/164/50
f 440/163/51 441/162/51 449/164/51
f 284/165/52 367/166/52 283/166/52
f 285/167/53 368/165/53 284/165/53
f 286/168/54 369/167/54 285/167/54
f 287/169/55 370/168/55 286/168/55
f 288/170/56 371/169/56 287/169/56
f 289/171/57 372/170/57 288/170/57
f 290/172/58 373/171/58 289/171/58
f 290/172/59 375/173/59 374/172/59
f 292/174/60 375/173/60 291/173/60
f 293/175/61 376/174/61 292/174/61
f 294/176/62 377/175/62 293/175/62
f 308/177/63 393/178/63 392/177/63
f 296/179/64 379/180/64 295/180/64
f 297/181/65 380/179/65 296/179/65
f 298/182/66 381/181/66 297/181/66
f 298/182/67 383/183/67 382/182/67
f 300/184/68 383/183/68 299/183/68
f 301/185/69 384/184/69 300/184/69
f 302/186/70 385/185/70 301/185/70
f 303/187/71 386/186/71 302/186/71
f 304/188/72 387/187/72 303/187/72
f 305/189/73 388/188/73 304/188/73
f 306/190/74 389/189/74 305/189/74
f 307/191/75 390/190/75 306/190/75
f 308/177/76 391/191/76 307/191/76
f 310/192/77 393/178/77 309/178/77
f 311/193/78 394/192/78 310/192/78
f 312/194/79 395/193/79 311/193/79
f 322/195/80 407/196/80 406/195/80
f 313/197/81 402/198/81 318/198/81
f 314/199/82 397/197/82 313/197/82
f 315/200/83 398/199/83 314/199/83
f 318/198/84 396/194/84 312/194/84
f 316/201/85 401/202/85 317/202/85
f 319/203/86 400/201/86 316/201/86
f 320/204/87 403/203/87 319/203/87
f 315/200/88 401/202/88 399/200/88
f 320/204/89 405/205/89 404/204/89
f 322/195/90 405/205/90 321/205/90
f 329/206/91 412/207/91 328/207/91
f 324/208/92 407/196/92 323/196/92
f 324/208/93 409/209/93 408/208/93
f 326/210/94 409/209/94 325/209/94
f 326/210/95 411/211/95 410/210/95
f 328/207/96 411/211/96 327/211/96
f 334/212/97 419/213/97 418/212/97
f 329/206/98 414/214/98 413/206/98
f 330/214/99 415/215/99 414/214/99
f 331/215/100 416/216/100 415/215/100
f 332/216/101 417/217/101 416/216/101
f 342/218/102 427/219/102 426/218/102
f 333/217/103 418/212/103 417/217/103
f 336/220/104 419/213/104 335/213/104
f 337/221/105 420/220/105 336/220/105
f 338/222/106 423/223/106 339/223/106
f 339/223/107 421/221/107 337/221/107
f 340/224/108 422/222/108 338/222/108
f 341/225/109 424/224/109 340/224/109
f 342/218/110 425/225/110 341/225/110
f 344/226/111 427/219/111 343/219/111
f 345/227/112 428/226/112 344/226/112
f 345/227/113 430/228/113 429/227/113
f 347/229/114 430/228/114 346/228/114
f 348/230/115 431/229/115 347/229/115
f 350/231/116 433/232/116 349/232/116
f 351/233/117 434/231/117 350/231/117
f 352/234/118 435/233/118 351/233/118
f 353/235/119 438/236/119 354/236/119
f 354/236/120 436/234/120 352/234/120
f 355/237/121 437/235/121 353/235/121
f 356/163/122 439/237/122 355/237/122
f 357/162/123 440/163/123 356/163/123
f 357/162/124 442/238/124 441/162/124
f 359/239/125 442/238/125 358/238/125
f 360/240/126 443/239/126 359/239/126
f 360/240/127 445/241/127 444/240/127
f 363/242/128 446/243/128 362/243/128
f 363/242/129 448/244/129 447/242/129
f 365/164/130 450/245/130 366/245/130
f 364/244/131 450/245/131 448/244/131
f 283/166/132 449/164/132 365/164/132
f 361/241/133 446/243/133 445/241/133
f 295/180/134 378/176/134 294/176/134
f 349/232/135 432/230/135 348/230/135
f 285/167/50 284/165/50 286/168/50
f 284/165/50 283/166/50 286/168/50
f 288/170/50 287/169/50 283/166/50
f 287/169/50 286/168/50 283/166/50
f 290/172/50 289/171/50 283/166/50
f 289/171/50 288/170/50 283/166/50
f 291/173/50 290/172/50 283/166/50
f 294/176/50 293/175/50 292/174/50
f 292/174/50 291/173/50 342/218/50
f 291/173/50 283/166/50 355/237/50
f 342/218/50 291/173/50 355/237/50
f 294/176/50 292/174/50 342/218/50
f 296/179/50 295/180/50 294/176/50
f 298/182/50 297/181/50 296/179/50
f 299/183/50 298/182/50 296/179/50
f 296/179/50 294/176/50 342/218/50
f 302/186/50 301/185/50 300/184/50
f 305/189/50 304/188/50 303/187/50
f 302/186/50 300/184/50 299/183/50
f 305/189/50 303/187/50 302/186/50
f 308/177/50 307/191/50 306/190/50
f 306/190/50 305/189/50 302/186/50
f 302/186/50 299/183/50 296/179/50
f 302/186/50 296/179/50 341/225/50
f 309/178/50 308/177/50 306/190/50
f 306/190/50 302/186/50 341/225/50
f 296/179/50 342/218/50 341/225/50
f 309/178/50 306/190/50 341/225/50
f 312/194/50 311/193/50 310/192/50
f 318/198/50 312/194/50 310/192/50
f 315/200/50 314/199/50 313/197/50
f 318/198/50 310/192/50 309/178/50
f 317/202/50 315/200/50 313/197/50
f 318/198/50 309/178/50 323/196/50
f 317/202/50 313/197/50 318/198/50
f 320/204/50 319/203/50 316/201/50
f 317/202/50 318/198/50 323/196/50
f 321/205/50 320/204/50 316/201/50
f 309/178/50 341/225/50 323/196/50
f 283/166/50 365/164/50 356/163/50
f 321/205/50 316/201/50 317/202/50
f 323/196/50 322/195/50 321/205/50
f 325/209/50 324/208/50 332/216/50
f 324/208/50 323/196/50 333/217/50
f 332/216/50 324/208/50 333/217/50
f 327/211/50 326/210/50 331/215/50
f 326/210/50 325/209/50 332/216/50
f 331/215/50 326/210/50 332/216/50
f 329/206/50 328/207/50 330/214/50
f 328/207/50 327/211/50 330/214/50
f 331/215/50 330/214/50 327/211/50
f 335/213/50 334/212/50 339/223/50
f 334/212/50 333/217/50 341/225/50
f 335/213/50 339/223/50 337/221/50
f 337/221/50 336/220/50 335/213/50
f 338/222/50 339/223/50 334/212/50
f 340/224/50 338/222/50 334/212/50
f 340/224/50 334/212/50 341/225/50
f 323/196/50 321/205/50 317/202/50
f 333/217/50 323/196/50 341/225/50
f 344/226/50 343/219/50 345/227/50
f 343/219/50 342/218/50 345/227/50
f 365/164/50 366/245/50 357/162/50
f 364/244/50 363/242/50 362/243/50
f 355/237/50 283/166/50 356/163/50
f 366/245/50 364/244/50 358/238/50
f 364/244/50 362/243/50 359/239/50
f 362/243/50 361/241/50 360/240/50
f 362/243/50 360/240/50 359/239/50
f 347/229/50 346/228/50 345/227/50
f 350/231/50 349/232/50 351/233/50
f 349/232/50 348/230/50 355/237/50
f 351/233/50 349/232/50 355/237/50
f 348/230/50 347/229/50 345/227/50
f 345/227/50 342/218/50 348/230/50
f 364/244/50 359/239/50 358/238/50
f 342/218/50 355/237/50 348/230/50
f 354/236/50 352/234/50 353/235/50
f 352/234/50 351/233/50 355/237/50
f 355/237/50 353/235/50 352/234/50
f 366/245/50 358/238/50 357/162/50
f 367/166/51 368/165/51 370/168/51
f 368/165/51 369/167/51 370/168/51
f 370/168/51 371/169/51 367/166/51
f 371/169/51 372/170/51 367/166/51
f 372/170/51 373/171/51 367/166/51
f 373/171/51 374/172/51 367/166/51
f 374/172/51 375/173/51 367/166/51
f 376/174/51 377/175/51 378/176/51
f 367/166/51 375/173/51 439/237/51
f 375/173/51 376/174/51 426/218/51
f 375/173/51 426/218/51 439/237/51
f 376/174/51 378/176/51 426/218/51
f 378/176/51 379/180/51 380/179/51
f 380/179/51 381/181/51 382/182/51
f 380/179/51 382/182/51 383/183/51
f 378/176/51 380/179/51 426/218/51
f 384/184/51 385/185/51 386/186/51
f 387/187/51 388/188/51 389/189/51
f 383/183/51 384/184/51 386/186/51
f 386/186/51 387/187/51 389/189/51
f 390/190/51 391/191/51 392/177/51
f 386/186/51 389/189/51 390/190/51
f 380/179/51 383/183/51 386/186/51
f 380/179/51 386/186/51 425/225/51
f 426/218/51 380/179/51 425/225/51
f 390/190/51 392/177/51 393/178/51
f 386/186/51 390/190/51 425/225/51
f 390/190/51 393/178/51 425/225/51
f 394/192/51 395/193/51 396/194/51
f 394/192/51 396/194/51 402/198/51
f 397/197/51 398/199/51 399/200/51
f 393/178/51 394/192/51 402/198/51
f 397/197/51 399/200/51 401/202/51
f 393/178/51 402/198/51 407/196/51
f 402/198/51 397/197/51 401/202/51
f 400/201/51 403/203/51 404/204/51
f 402/198/51 401/202/51 407/196/51
f 400/201/51 404/204/51 405/205/51
f 449/164/51 367/166/51 440/163/51
f 425/225/51 393/178/51 407/196/51
f 401/202/51 400/201/51 405/205/51
f 405/205/51 406/195/51 407/196/51
f 407/196/51 408/208/51 417/217/51
f 408/208/51 409/209/51 416/216/51
f 409/209/51 410/210/51 416/216/51
f 410/210/51 411/211/51 415/215/51
f 411/211/51 412/207/51 414/214/51
f 412/207/51 413/206/51 414/214/51
f 414/214/51 415/215/51 411/211/51
f 415/215/51 416/216/51 410/210/51
f 416/216/51 417/217/51 408/208/51
f 417/217/51 418/212/51 425/225/51
f 418/212/51 419/213/51 423/223/51
f 423/223/51 419/213/51 421/221/51
f 419/213/51 420/220/51 421/221/51
f 423/223/51 422/222/51 418/212/51
f 422/222/51 424/224/51 418/212/51
f 401/202/51 405/205/51 407/196/51
f 418/212/51 424/224/51 425/225/51
f 407/196/51 417/217/51 425/225/51
f 426/218/51 427/219/51 429/227/51
f 427/219/51 428/226/51 429/227/51
f 450/245/51 449/164/51 441/162/51
f 446/243/51 447/242/51 448/244/51
f 367/166/51 439/237/51 440/163/51
f 446/243/51 448/244/51 443/239/51
f 448/244/51 450/245/51 442/238/51
f 443/239/51 448/244/51 442/238/51
f 444/240/51 445/241/51 446/243/51
f 443/239/51 444/240/51 446/243/51
f 429/227/51 430/228/51 431/229/51
f 432/230/51 433/232/51 439/237/51
f 433/232/51 434/231/51 435/233/51
f 429/227/51 431/229/51 432/230/51
f 426/218/51 429/227/51 432/230/51
f 439/237/51 426/218/51 432/230/51
f 433/232/51 435/233/51 439/237/51
f 435/233/51 436/234/51 439/237/51
f 436/234/51 438/236/51 437/235/51
f 439/237/51 436/234/51 437/235/51
f 441/162/51 442/238/51 450/245/51
f 284/165/52 368/165/52 367/166/52
f 285/167/53 369/167/53 368/165/53
f 286/168/54 370/168/54 369/167/54
f 287/169/55 371/169/55 370/168/55
f 288/170/56 372/170/56 371/169/56
f 289/171/57 373/171/57 372/170/57
f 290/172/58 374/172/58 373/171/58
f 290/172/59 291/173/59 375/173/59
f 292/174/60 376/174/60 375/173/60
f 293/175/61 377/175/61 376/174/61
f 294/176/62 378/176/62 377/175/62
f 308/177/63 309/178/63 393/178/63
f 296/179/64 380/179/64 379/180/64
f 297/181/65 381/181/65 380/179/65
f 298/182/66 382/182/66 381/181/66
f 298/182/67 299/183/67 383/183/67
f 300/184/68 384/184/68 383/183/68
f 301/185/69 385/185/69 384/184/69
f 302/186/70 386/186/70 385/185/70
f 303/187/71 387/187/71 386/186/71
f 304/188/72 388/188/72 387/187/72
f 305/189/73 389/189/73 388/188/73
f 306/190/74 390/190/74 389/189/74
f 307/191/75 391/191/75 390/190/75
f 308/177/76 392/177/76 391/191/76
f 310/192/77 394/192/77 393/178/77
f 311/193/78 395/193/78 394/192/78
f 312/194/79 396/194/79 395/193/79
f 322/195/80 323/196/80 407/196/80
f 313/197/81 397/197/81 402/198/81
f 314/199/82 398/199/82 397/197/82
f 315/200/83 399/200/83 398/199/83
f 318/198/84 402/198/84 396/194/84
f 316/201/85 400/201/85 401/202/85
f 319/203/86 403/203/86 400/201/86
f 320/204/87 404/204/87 403/203/87
f 315/200/88 317/202/88 401/202/88
f 320/204/89 321/205/89 405/205/89
f 322/195/90 406/195/90 405/205/90
f 329/206/91 413/206/91 412/207/91
f 324/208/92 408/208/92 407/196/92
f 324/208/93 325/209/93 409/209/93
f 326/210/94 410/210/94 409/209/94
f 326/210/95 327/211/95 411/211/95
f 328/207/96 412/207/96 411/211/96
f 334/212/97 335/213/97 419/213/97
f 329/206/98 330/214/98 414/214/98
f 330/214/99 331/215/99 415/215/99
f 331/215/100 332/216/100 416/216/100
f 332/216/101 333/217/101 417/217/101
f 342/218/102 343/219/102 427/219/102
f 333/217/103 334/212/103 418/212/103
f 336/220/104 420/220/104 419/213/104
f 337/221/105 421/221/105 420/220/105
f 338/222/136 422/222/136 423/223/136
f 339/223/107 423/223/107 421/221/107
f 340/224/108 424/224/108 422/222/108
f 341/225/109 425/225/109 424/224/109
f 342/218/110 426/218/110 425/225/110
f 344/226/111 428/226/111 427/219/111
f 345/227/112 429/227/112 428/226/112
f 345/227/113 346/228/113 430/228/113
f 347/229/114 431/229/114 430/228/114
f 348/230/115 432/230/115 431/229/115
f 350/231/116 434/231/116 433/232/116
f 351/233/117 435/233/117 434/231/117
f 352/234/118 436/234/118 435/233/118
f 353/235/119 437/235/119 438/236/119
f 354/236/120 438/236/120 436/234/120
f 355/237/121 439/237/121 437/235/121
f 356/163/122 440/163/122 439/237/122
f 357/162/123 441/162/123 440/163/123
f 357/162/124 358/238/124 442/238/124
f 359/239/125 443/239/125 442/238/125
f 360/240/126 444/240/126 443/239/126
f 360/240/127 361/241/127 445/241/127
f 363/242/128 447/242/128 446/243/128
f 363/242/129 364/244/129 448/244/129
f 365/164/130 449/164/130 450/245/130
f 364/244/131 366/245/131 450/245/131
f 283/166/132 367/166/132 449/164/132
f 361/241/133 362/243/133 446/243/133
f 295/180/134 379/180/134 378/176/134
f 349/232/135 433/232/135 432/230/135
