# Blender 4.4.0
# www.blender.org
mtllib Prop_Hay_Bale_Square_01.mtl
o Prop_Hay_Bale_Square_01
v -0.815653 0.005434 0.463049
v -0.815501 0.042914 0.513118
v -0.865511 0.038361 0.465132
v 0.815501 0.042914 0.513118
v 0.815653 0.005434 0.463049
v 0.865511 0.038361 0.465132
v -0.865511 0.038361 -0.465132
v -0.815501 0.042914 -0.513118
v -0.815653 0.005434 -0.463049
v 0.815653 0.005434 -0.463049
v 0.815501 0.042914 -0.513118
v 0.865511 0.038361 -0.465132
v -0.815653 0.799402 0.463049
v -0.865511 0.747467 0.465132
v -0.815501 0.742392 0.513118
v 0.815501 0.727086 0.513118
v 0.865511 0.731639 0.465132
v 0.815653 0.764501 0.463049
v -0.865511 0.731639 -0.418576
v -0.815653 0.777275 -0.463049
v -0.815501 0.727086 -0.513118
v 0.815653 0.712922 -0.463049
v 0.865511 0.685607 -0.465132
v 0.815501 0.682570 -0.513118
v -0.498091 0.005434 0.449926
v -0.498091 0.071034 0.500000
v 0.498091 0.071034 0.500000
v 0.498091 0.005434 0.449926
v 0.498091 0.005434 -0.449926
v 0.498091 0.071034 -0.500000
v -0.498091 0.071034 -0.500000
v -0.498091 0.005434 -0.449926
v -0.498091 0.698966 0.500000
v -0.498091 0.749139 0.449926
v 0.498091 0.749139 0.449926
v 0.498091 0.698966 0.500000
v 0.498091 0.698966 -0.500000
v 0.498091 0.749139 -0.449926
v -0.498091 0.749139 -0.449926
v -0.498091 0.698966 -0.500000
v 0.000000 0.055471 0.500000
v 0.000000 0.012811 0.449927
v 0.000000 0.055012 -0.500000
v 0.000000 0.012172 -0.449927
v 0.000000 0.789184 0.449927
v 0.000000 0.733102 0.500000
v 0.000000 0.770000 -0.449927
v 0.000000 0.719830 -0.500000
v -0.865511 0.385000 -0.465132
v -0.815501 0.385000 -0.513118
v 0.865511 0.385000 -0.465132
v 0.815501 0.385000 -0.513118
v 0.865511 0.385000 0.465132
v 0.815501 0.385000 0.513118
v -0.848770 0.385000 0.455143
v -0.803728 0.385000 0.506094
v 0.493994 0.385000 0.481257
v -0.498091 0.385000 -0.500000
v 0.498091 0.385000 -0.500000
v 0.000000 0.385000 0.500000
v 0.000000 0.385000 -0.500000
v -0.815653 0.009748 0.000000
v -0.865511 0.041681 0.000000
v 0.815653 0.005434 0.000000
v 0.865511 0.038361 0.000000
v -0.899500 0.722921 0.003243
v -0.839974 0.771037 0.002320
v 0.872401 0.731639 0.000000
v 0.820486 0.780146 0.000000
v -0.498091 0.005434 0.000000
v 0.498091 0.005434 0.000000
v 0.498091 0.749139 0.000000
v 0.000000 0.005434 0.000000
v -0.871441 0.385000 0.000000
v 0.851173 0.385000 -0.000162
v -0.498091 0.634205 0.500000
v -0.519841 0.385000 0.497765
v -0.498091 0.209822 0.500000
v -0.457393 0.385000 0.490735
v 0.249045 0.005434 0.449926
v 0.249045 0.060602 0.500000
v 0.249045 0.759570 0.449926
v 0.249045 0.005434 -0.449926
v 0.249045 0.060602 -0.500000
v 0.249045 0.698527 -0.500000
v 0.249045 0.743854 -0.449926
v 0.249045 0.759570 0.000000
v 0.249045 0.021381 0.000000
v 0.241934 0.710205 0.495414
v 0.275261 0.708003 0.491377
v 0.249045 0.745140 0.464327
v 0.258706 0.385000 0.480713
v 0.239894 0.385000 0.486773
v 0.248096 0.210916 0.495657
v 0.254800 0.385000 -0.497497
v 0.249045 0.189007 -0.500000
v 0.218666 0.385000 -0.490687
v 0.249045 0.573373 -0.500000
v -0.498091 0.746348 0.015824
v -0.498091 0.752232 -0.015824
v -0.513853 0.750536 0.000000
v 0.000000 0.770739 -0.003165
v 0.000000 0.767209 0.015824
v 0.156703 0.763437 0.000000
v -0.249045 0.005434 -0.449926
v -0.249045 0.060602 -0.500000
v -0.249045 0.693132 -0.500000
v -0.249045 0.736056 -0.449926
v -0.249045 0.005434 0.449926
v -0.249045 0.060602 0.500000
v -0.249045 0.709398 0.500000
v -0.249045 0.759570 0.449926
v -0.249045 0.385000 -0.500000
v -0.249045 0.012896 0.000000
v -0.249045 0.761486 -0.009495
v -0.249045 0.756778 0.015824
v -0.247081 0.385000 0.498706
v -0.489063 0.385000 0.506039
v -0.512127 0.385000 0.506587
v 0.486292 0.760589 0.000000
v 0.509356 0.761126 0.000000
v -0.486287 0.760589 0.000000
v -0.509353 0.761126 0.000000
v 0.486317 0.385000 -0.510967
v 0.509388 0.385000 -0.511443
v -0.486315 0.385000 -0.510967
v -0.509385 0.385000 -0.511443
v 0.486537 -0.005535 0.000000
v 0.509650 -0.005535 0.000000
v 0.482000 0.385005 0.492190
v 0.505024 0.385005 0.493353
v -0.486537 -0.005535 0.000000
v -0.509647 -0.005535 0.000000
v 0.509289 0.760277 -0.454627
v 0.486223 0.759761 -0.454101
v 0.486238 0.703607 -0.510146
v 0.509306 0.704211 -0.510595
v -0.509286 0.760277 0.454627
v -0.486220 0.759761 0.454101
v -0.486225 0.703538 0.510174
v -0.509293 0.704120 0.510632
v 0.509358 0.066439 -0.510844
v 0.486287 0.067042 -0.510390
v 0.486396 -0.004436 -0.454710
v 0.509505 -0.004385 -0.455290
v -0.509346 0.066530 0.510874
v -0.486276 0.067115 0.510414
v -0.486395 -0.004435 0.454710
v -0.509502 -0.004385 0.455289
v -0.509303 0.704211 -0.510595
v -0.486235 0.703607 -0.510146
v -0.486220 0.759761 -0.454101
v -0.509286 0.760277 -0.454627
v 0.509119 0.703915 0.510706
v 0.486049 0.703280 0.509814
v 0.486184 0.759755 0.454112
v 0.509247 0.760271 0.454638
v -0.509502 -0.004385 -0.455289
v -0.486396 -0.004435 -0.454710
v -0.486286 0.067042 -0.510390
v -0.509355 0.066439 -0.510844
v 0.509506 -0.004385 0.455290
v 0.486395 -0.004435 0.454710
v 0.486197 0.067365 0.510491
v 0.509276 0.066719 0.510934
vn 0.9981 -0.0611 -0.0087
vn -0.0413 -0.0000 -0.9991
vn -0.0000 -1.0000 -0.0000
vn 0.0413 -0.0000 -0.9991
vn -0.0052 0.0040 1.0000
vn -0.0985 -0.0580 0.9934
vn 0.0425 0.0540 -0.9976
vn -0.0418 0.9991 -0.0064
vn 0.0629 0.9785 0.1963
vn -0.0957 0.9954 -0.0000
vn -0.9953 -0.0831 0.0496
vn 0.0550 0.0535 0.9971
vn -0.0639 -0.9973 0.0353
vn 0.0418 0.9985 -0.0349
vn -0.0000 -0.0000 -1.0000
vn -0.0299 -0.9994 0.0166
vn -0.4494 -0.7145 0.5362
vn 0.4494 -0.7145 0.5362
vn -0.4494 -0.7145 -0.5362
vn 0.4494 -0.7145 -0.5362
vn -0.5479 0.5512 0.6293
vn 0.4490 0.7151 0.5358
vn -0.7875 0.4340 -0.4375
vn 0.4077 0.7803 -0.4743
vn -0.5393 -0.8421 -0.0078
vn -0.0863 -0.6045 0.7919
vn 0.5511 -0.8345 -0.0000
vn 0.0863 -0.6045 -0.7919
vn -0.6286 0.7777 0.0049
vn -0.0914 0.7035 0.7048
vn 0.6784 0.7260 -0.1125
vn 0.0914 0.7035 -0.7048
vn -0.6924 -0.0000 -0.7216
vn 0.6924 -0.0000 -0.7216
vn 0.6924 -0.0000 0.7216
vn -0.7486 0.0394 0.6618
vn 0.0248 -0.8003 0.5990
vn -0.0000 -0.6721 0.7405
vn -0.0248 -0.8003 -0.5990
vn -0.0000 -0.6721 -0.7405
vn 0.1343 0.6541 0.7444
vn 0.0190 -0.0000 0.9998
vn 0.0227 0.8549 -0.5183
vn 0.0178 0.7591 -0.6507
vn 0.0199 -0.6720 0.7403
vn -0.0182 -0.6720 -0.7403
vn -0.0671 0.7048 0.7062
vn 0.0633 0.7399 -0.6698
vn -0.0136 -0.9999 -0.0000
vn -0.6942 -0.0518 0.7180
vn -0.9986 -0.0173 0.0497
vn -0.0985 0.0580 0.9934
vn -0.0000 -0.0000 1.0000
vn 0.0293 0.0164 0.9994
vn 0.9987 0.0413 0.0308
vn 1.0000 -0.0000 -0.0000
vn -1.0000 -0.0000 -0.0000
vn -0.0004 -1.0000 -0.0093
vn 0.5501 0.8351 0.0081
vn -0.6876 0.7256 -0.0262
vn -0.5512 -0.8343 0.0060
vn 0.0296 -0.9994 0.0164
vn 0.0418 0.9991 -0.0000
vn -0.9999 0.0017 -0.0127
vn 0.1044 0.9943 -0.0219
vn 0.0885 0.9960 -0.0071
vn 0.9999 -0.0000 0.0148
vn 0.1119 -0.0187 0.9935
vn 0.0413 -0.0000 0.9991
vn -0.0296 -0.9994 0.0164
vn -0.0023 0.0857 0.9963
vn -0.0150 0.7063 -0.7077
vn 0.0254 -0.6066 -0.7946
vn -0.0023 -0.0329 0.9995
vn 0.0157 -0.7611 0.6484
vn 0.0639 -0.9973 0.0353
vn 0.0837 0.7039 0.7053
vn -0.0103 0.0131 -0.9999
vn 0.1338 0.6434 0.7537
vn 0.3060 0.0629 0.9499
vn 0.3063 -0.0471 0.9508
vn 0.0266 0.6345 0.7725
vn -0.1852 -0.0187 -0.9825
vn 0.0775 0.9802 0.1823
vn 0.0421 0.9823 0.1826
vn -0.0411 0.9823 0.1826
vn -0.1348 0.9892 -0.0571
vn 0.0525 0.9986 -0.0071
vn -0.0411 0.9823 0.1827
vn -0.0296 0.7061 0.7075
vn -0.0254 -0.6066 0.7946
vn -0.0958 0.7032 -0.7045
vn -0.0171 -0.7597 -0.6500
vn 0.0299 -0.9994 0.0166
vn 0.0012 -0.0040 1.0000
vn -0.0378 0.0615 0.9974
vn -1.0000 0.0004 -0.0002
vn 1.0000 -0.0003 0.0002
vn 1.0000 0.0004 -0.0002
vn -1.0000 -0.0003 -0.0090
vn 0.0238 0.0140 0.9996
vn 0.0238 -0.0132 0.9996
vn -0.0224 0.9997 -0.0019
vn 0.0224 0.9997 0.0019
vn 0.0021 -1.0000 0.0025
vn -0.0021 -1.0000 -0.0025
vn -0.0197 -0.0019 -0.9998
vn 0.0195 0.0027 -0.9998
vn -0.0371 -0.0538 0.9979
vn -0.0233 0.9997 0.0018
vn 0.0233 0.9997 -0.0018
vn -0.0206 0.0026 -0.9998
vn 0.0206 -0.0018 -0.9998
vn -0.0000 -1.0000 -0.0024
vn -0.0504 0.0568 0.9971
vn -0.0000 -1.0000 0.0024
vn -0.0322 0.7060 -0.7074
vn 0.0319 0.7058 0.7077
vn -0.0184 -0.6144 -0.7887
vn 0.0184 -0.6142 0.7889
vn 0.0319 0.7061 -0.7074
vn -0.0320 0.7019 0.7116
vn 0.0316 -0.6169 -0.7864
vn -0.0323 -0.6160 0.7871
vn 0.9995 -0.0000 0.0308
vn -0.0413 -0.0000 0.9991
vn -0.1179 0.9918 -0.0502
vn 0.0744 0.9951 -0.0652
vn 0.1561 0.9877 -0.0064
vn 0.1063 0.9839 -0.1439
vn -0.9960 -0.0481 0.0758
vn 0.0175 -0.0000 0.9998
vn -0.0006 0.0289 0.9996
vn -0.0212 0.9998 -0.0000
vn 0.0270 -0.9995 -0.0150
vn -0.5512 -0.8343 -0.0060
vn -0.0248 -0.8003 0.5990
vn 0.0248 -0.8003 -0.5990
vn -0.7215 0.6924 -0.0045
vn -0.0634 0.7995 0.5973
vn 0.4754 0.8748 -0.0936
vn 0.0915 0.7034 -0.7048
vn -0.8809 0.0630 -0.4690
vn -0.6939 0.0542 0.7180
vn 0.0863 -0.6045 0.7919
vn 0.0254 -0.6066 0.7946
vn -0.0863 -0.6045 -0.7919
vn -0.0254 -0.6066 -0.7946
vn 0.1249 0.7009 0.7023
vn 0.0550 -0.0269 0.9981
vn 0.0512 0.7055 -0.7069
vn 0.0371 0.7059 -0.7073
vn -0.0157 -0.7611 0.6484
vn 0.0171 -0.7597 -0.6500
vn -0.0790 0.6639 0.7436
vn 0.0740 0.7045 -0.7058
vn -0.0004 -1.0000 0.0093
vn -0.7487 -0.0377 0.6619
vn -0.9988 0.0482 0.0003
vn -0.0052 -0.0040 1.0000
vn 0.0311 0.0195 0.9993
vn 0.9987 0.0413 -0.0308
vn -0.9998 -0.0173 -0.0127
vn 0.6824 0.7303 0.0318
vn -0.6286 0.7770 -0.0346
vn -0.5393 -0.8421 0.0078
vn -0.0299 -0.9994 -0.0166
vn -0.0639 -0.9973 -0.0353
vn -0.9933 -0.0817 -0.0817
vn -0.0497 0.9982 0.0332
vn 0.0466 0.9989 -0.0017
vn 0.0558 0.9983 0.0163
vn 0.0630 0.9837 0.1683
vn 0.9977 -0.0611 -0.0307
vn 0.1118 0.0266 0.9934
vn 0.0350 -0.0185 0.9992
vn 0.0293 -0.0115 0.9995
vn 0.0639 -0.9973 -0.0353
vn 0.0425 -0.0562 -0.9975
vn -0.0012 0.0289 0.9996
vn 0.0161 0.0598 0.9981
vn -0.0013 0.7414 -0.6711
vn -0.0410 -0.0590 0.9974
vn -0.0199 -0.6720 0.7403
vn 0.0189 0.9985 -0.0505
vn 0.1181 0.9929 -0.0157
vn -0.0270 -0.9995 -0.0150
vn 0.0744 0.6642 0.7439
vn 0.0762 0.6541 0.7525
vn 0.1185 -0.0271 0.9926
vn 0.2610 0.6819 0.6833
vn 0.0013 0.7064 0.7078
vn -0.1852 0.0180 -0.9825
vn -0.0103 -0.0136 -0.9999
vn -0.0371 0.9993 -0.0017
vn -0.0356 0.9977 -0.0576
vn 0.0299 -0.9994 -0.0166
vn -0.0811 0.7567 -0.6487
vn 0.0182 -0.6720 -0.7403
vn -0.0378 -0.0433 0.9983
vn 0.0024 0.0040 1.0000
vn -0.9999 0.0088 0.0087
vn -1.0000 0.0076 0.0002
vn -1.0000 0.0003 -0.0001
vn -1.0000 0.0004 -0.0052
vn -1.0000 0.0003 -0.0000
vn -1.0000 -0.0001 -0.0028
vn -1.0000 0.0003 -0.0003
vn -1.0000 -0.0068 0.0003
vn -0.9999 -0.0085 0.0137
vn 0.9999 0.0086 -0.0132
vn 1.0000 0.0069 -0.0003
vn 1.0000 -0.0002 0.0003
vn 1.0000 -0.0003 0.0052
vn 1.0000 0.0001 0.0021
vn 1.0000 -0.0002 -0.0000
vn 1.0000 -0.0003 0.0001
vn 1.0000 -0.0076 -0.0002
vn 0.9999 -0.0088 -0.0087
vn 1.0000 0.0003 -0.0001
vn 0.9999 -0.0112 0.0002
vn 0.9999 -0.0123 -0.0101
vn 0.9998 0.0127 -0.0121
vn 0.9999 0.0115 0.0003
vn 1.0000 0.0003 -0.0003
vn 1.0000 0.0004 0.0091
vn 1.0000 -0.0001 -0.0028
vn 1.0000 0.0003 -0.0000
vn -1.0000 -0.0003 0.0002
vn -1.0000 -0.0002 -0.0000
vn -1.0000 0.0001 0.0021
vn -1.0000 -0.0002 0.0003
vn -0.9999 -0.0113 -0.0003
vn -0.9998 -0.0125 0.0125
vn -0.9999 0.0122 0.0099
vn -0.9999 0.0111 -0.0002
vn 0.0196 0.0136 0.9997
vn 0.0195 -0.0128 0.9997
vn -0.0233 0.9997 -0.0018
vn 0.0233 0.9997 0.0018
vn -0.0206 -0.0018 -0.9998
vn 0.0206 0.0026 -0.9998
vn -0.0504 -0.0546 0.9972
vn -0.0224 0.9997 0.0019
vn 0.0224 0.9997 -0.0019
vn -0.0195 0.0027 -0.9998
vn 0.0197 -0.0019 -0.9998
vn 0.0021 -1.0000 -0.0025
vn -0.0176 0.0549 0.9983
vn -0.0021 -1.0000 0.0025
vn -0.0319 0.7061 -0.7074
vn -0.0316 -0.6169 -0.7864
vn 0.0313 -0.6166 0.7866
vn 0.0322 0.7060 -0.7074
vn -0.0468 0.7046 0.7081
vn 0.0184 -0.6144 -0.7887
vn -0.0185 -0.6134 0.7895
vt 0.836702 0.503098
vt 0.836703 0.519819
vt 0.836703 0.522380
vt 0.836690 0.503098
vt 0.836701 0.519650
vt 0.836701 0.503098
vt 0.837705 0.498713
vt 0.837715 0.498713
vt 0.836647 0.503098
vt 0.836658 0.520563
vt 0.836658 0.503098
vt 0.836666 0.485053
vt 0.836674 0.503098
vt 0.836666 0.503098
vt 0.837685 0.523720
vt 0.837674 0.541185
vt 0.837674 0.523720
vt 0.836681 0.503098
vt 0.836682 0.492196
vt 0.837680 0.540662
vt 0.837688 0.541087
vt 0.837680 0.540507
vt 0.837660 0.541301
vt 0.837672 0.539927
vt 0.837671 0.540160
vt 0.837715 0.541807
vt 0.837705 0.540082
vt 0.836119 0.498939
vt 0.836117 0.517736
vt 0.836118 0.498939
vt 0.837666 0.514036
vt 0.837666 0.523720
vt 0.837658 0.523720
vt 0.837696 0.498713
vt 0.837696 0.499600
vt 0.837696 0.539788
vt 0.837696 0.540662
vt 0.836666 0.520238
vt 0.836666 0.503098
vt 0.836666 0.481984
vt 0.836674 0.481984
vt 0.836666 0.482399
vt 0.836647 0.481984
vt 0.836647 0.484069
vt 0.836645 0.483816
vt 0.836701 0.484069
vt 0.836701 0.481984
vt 0.836703 0.483816
vt 0.836647 0.526149
vt 0.836645 0.523260
vt 0.836647 0.522978
vt 0.836701 0.522127
vt 0.836703 0.522380
vt 0.836701 0.524208
vt 0.836645 0.522380
vt 0.836647 0.524918
vt 0.836647 0.522127
vt 0.836701 0.521339
vt 0.836120 0.477825
vt 0.836119 0.479842
vt 0.836120 0.478065
vt 0.836690 0.481984
vt 0.836690 0.485633
vt 0.837717 0.500545
vt 0.837672 0.498713
vt 0.837661 0.500798
vt 0.837672 0.502362
vt 0.836646 0.524572
vt 0.836644 0.521895
vt 0.836174 0.517968
vt 0.836164 0.519195
vt 0.836164 0.516404
vt 0.836701 0.525078
vt 0.836658 0.523354
vt 0.836645 0.503098
vt 0.836703 0.503098
vt 0.836646 0.503098
vt 0.836647 0.503098
vt 0.836658 0.481984
vt 0.836164 0.477825
vt 0.836155 0.480894
vt 0.836155 0.477825
vt 0.837680 0.501782
vt 0.837680 0.498713
vt 0.836147 0.498939
vt 0.836155 0.517029
vt 0.836147 0.518303
vt 0.836690 0.520563
vt 0.836666 0.522626
vt 0.836674 0.482394
vt 0.837688 0.499088
vt 0.837696 0.501782
vt 0.837688 0.539190
vt 0.837680 0.537872
vt 0.837688 0.538452
vt 0.837696 0.537267
vt 0.837661 0.498953
vt 0.837659 0.519827
vt 0.837659 0.500545
vt 0.836658 0.485633
vt 0.836645 0.484000
vt 0.836645 0.503098
vt 0.836690 0.503098
vt 0.836666 0.521143
vt 0.836674 0.522461
vt 0.837661 0.519827
vt 0.837672 0.519827
vt 0.837672 0.510082
vt 0.837671 0.519827
vt 0.837662 0.519827
vt 0.836176 0.479657
vt 0.836176 0.498939
vt 0.836175 0.498939
vt 0.836119 0.498939
vt 0.836119 0.479657
vt 0.836647 0.482224
vt 0.837661 0.498713
vt 0.837659 0.500729
vt 0.837688 0.498713
vt 0.837688 0.499123
vt 0.836690 0.523354
vt 0.836682 0.523934
vt 0.837659 0.519827
vt 0.837659 0.539109
vt 0.836679 0.524149
vt 0.836682 0.523060
vt 0.836674 0.524514
vt 0.836658 0.523525
vt 0.839956 0.436699
vt 0.839959 0.436699
vt 0.839957 0.447605
vt 0.836658 0.516960
vt 0.836682 0.481984
vt 0.836674 0.521723
vt 0.836682 0.513576
vt 0.836683 0.503098
vt 0.836682 0.493414
vt 0.837705 0.537291
vt 0.837705 0.502362
vt 0.836683 0.521065
vt 0.836682 0.485053
vt 0.836674 0.484768
vt 0.836682 0.482871
vt 0.837696 0.539860
vt 0.837688 0.542310
vt 0.836155 0.488037
vt 0.836156 0.498939
vt 0.836164 0.498939
vt 0.839997 0.450932
vt 0.839999 0.450835
vt 0.839998 0.452460
vt 0.839998 0.436699
vt 0.839997 0.436699
vt 0.839998 0.429080
vt 0.839998 0.436699
vt 0.839996 0.436699
vt 0.839998 0.444943
vt 0.836682 0.520538
vt 0.839957 0.452513
vt 0.839957 0.452771
vt 0.839956 0.452697
vt 0.839984 0.453581
vt 0.839984 0.453426
vt 0.839993 0.453261
vt 0.839971 0.453176
vt 0.839971 0.452970
vt 0.836666 0.524040
vt 0.836674 0.484742
vt 0.836139 0.516984
vt 0.836131 0.519195
vt 0.836131 0.516404
vt 0.837680 0.539355
vt 0.837688 0.541243
vt 0.837688 0.501471
vt 0.836666 0.523778
vt 0.836658 0.523198
vt 0.837672 0.533689
vt 0.837680 0.519827
vt 0.836659 0.503098
vt 0.836658 0.493353
vt 0.088794 0.898078
vt 0.088794 0.889611
vt 0.088794 0.880821
vt 0.088804 0.898066
vt 0.088804 0.880821
vt 0.088804 0.889611
vt 0.089240 0.898078
vt 0.089240 0.880821
vt 0.089240 0.889611
vt 0.089230 0.880821
vt 0.089228 0.889611
vt 0.089230 0.898066
vt 0.088793 0.889611
vt 0.088804 0.882456
vt 0.088803 0.889611
vt 0.088804 0.896782
vt 0.089230 0.898047
vt 0.089240 0.898059
vt 0.088804 0.898047
vt 0.088794 0.898059
vt 0.089230 0.880845
vt 0.089240 0.880846
vt 0.088804 0.880845
vt 0.088794 0.880846
vt 0.089230 0.882454
vt 0.089240 0.882441
vt 0.088804 0.896783
vt 0.088794 0.896797
vt 0.089230 0.896776
vt 0.089238 0.889611
vt 0.089240 0.896790
vt 0.089230 0.898047
vt 0.089230 0.896783
vt 0.089230 0.889611
vt 0.088804 0.882454
vt 0.089230 0.882461
vt 0.089240 0.896797
vt 0.088794 0.896795
vt 0.089240 0.898059
vt 0.088794 0.882441
vt 0.089240 0.882447
vt 0.837685 0.542749
vt 0.837661 0.542878
vt 0.837672 0.540082
vt 0.837715 0.538068
vt 0.836119 0.519102
vt 0.837658 0.505390
vt 0.837666 0.505675
vt 0.836674 0.482359
vt 0.836174 0.520049
vt 0.836164 0.481474
vt 0.836155 0.498939
vt 0.837680 0.499128
vt 0.837658 0.538624
vt 0.836674 0.524555
vt 0.836657 0.523431
vt 0.839957 0.429032
vt 0.836657 0.503098
vt 0.836674 0.524358
vt 0.836674 0.525581
vt 0.837696 0.537916
vt 0.836682 0.523131
vt 0.839998 0.428121
vt 0.836682 0.503098
vt 0.836139 0.519775
vt 0.837680 0.536967
vt 0.836666 0.523934
vt 0.837672 0.537291
vt 0.837673 0.519827
vt 0.088794 0.882443
s 0
usemtl Texture_Map
f 75/1/1 23/2/1 68/3/1
f 59/4/2 24/5/2 52/6/2
f 29/7/3 64/8/3 71/7/3
f 50/9/4 40/10/4 58/11/4
f 110/12/5 60/13/5 117/14/5
f 54/15/6 36/16/6 57/17/6
f 61/13/7 97/18/7 96/19/7
f 112/20/8 103/21/8 116/22/8
f 67/23/9 99/24/9 101/25/9
f 69/26/10 38/27/10 72/27/10
f 55/28/11 66/29/11 74/30/11
f 94/31/12 93/32/12 60/33/12
f 83/34/13 71/7/13 88/35/13
f 72/27/14 86/36/14 87/37/14
f 58/11/15 107/38/15 113/39/15
f 105/40/16 73/41/16 114/42/16
f 1/43/17 2/44/17 3/45/17
f 4/46/18 5/47/18 6/48/18
f 7/45/19 8/44/19 9/43/19
f 10/47/20 11/46/20 12/48/20
f 13/49/21 14/50/21 15/51/21
f 16/52/22 17/53/22 18/54/22
f 19/55/23 20/56/23 21/57/23
f 22/58/24 23/2/24 24/5/24
f 1/59/25 63/60/25 62/61/25
f 28/62/26 4/46/26 27/63/26
f 10/8/27 65/64/27 64/8/27
f 32/65/28 8/66/28 31/67/28
f 14/50/29 67/68/29 66/69/29
f 16/70/30 35/71/30 36/72/30
f 68/3/31 22/58/31 69/73/31
f 21/57/32 39/74/32 40/10/32
f 49/75/33 21/57/33 50/9/33
f 51/76/34 11/46/34 52/6/34
f 53/76/35 16/52/35 54/6/35
f 55/77/36 2/44/36 56/78/36
f 25/79/37 2/44/37 1/43/37
f 28/80/38 81/81/38 80/82/38
f 29/62/39 11/46/39 10/47/39
f 32/65/40 106/83/40 105/84/40
f 15/51/41 34/74/41 13/49/41
f 60/85/42 89/86/42 46/87/42
f 37/88/43 22/58/43 24/5/43
f 40/10/44 108/89/44 107/38/44
f 42/90/45 110/12/45 109/40/45
f 44/91/46 84/92/46 83/34/46
f 46/93/47 112/20/47 111/94/47
f 48/95/48 86/36/48 85/96/48
f 62/97/49 32/65/49 70/65/49
f 55/77/50 15/51/50 14/50/50
f 53/76/35 4/46/35 6/48/35
f 51/76/34 24/5/34 23/2/34
f 49/98/33 8/66/33 7/99/33
f 31/100/15 113/39/15 106/12/15
f 63/101/51 55/77/51 74/102/51
f 27/63/52 54/6/52 57/103/52
f 111/104/53 60/13/53 46/105/53
f 31/67/4 50/106/4 58/107/4
f 30/63/2 52/6/2 11/46/2
f 78/108/54 77/109/54 56/110/54
f 65/111/55 51/112/55 75/113/55
f 65/111/56 53/112/56 6/111/56
f 63/60/57 49/114/57 7/115/57
f 62/116/58 25/79/58 1/43/58
f 68/3/59 18/54/59 17/53/59
f 19/55/60 67/68/60 20/56/60
f 5/47/27 65/48/27 6/48/27
f 9/117/61 63/118/61 7/99/61
f 109/84/62 73/119/62 42/120/62
f 35/121/63 87/122/63 82/122/63
f 80/34/3 71/7/3 28/7/3
f 74/123/64 19/124/64 49/98/64
f 35/121/10 69/73/10 72/121/10
f 104/125/65 86/126/65 47/127/65
f 100/128/66 39/74/66 20/56/66
f 28/7/3 64/8/3 5/8/3
f 53/76/67 68/3/67 17/53/67
f 77/129/68 79/130/68 76/131/68
f 76/132/69 33/10/69 15/51/69
f 73/41/70 80/133/70 42/90/70
f 48/134/15 98/135/15 61/13/15
f 57/103/71 92/136/71 94/137/71
f 37/138/72 86/36/72 38/27/72
f 29/7/73 84/92/73 30/139/73
f 57/103/74 90/140/74 92/136/74
f 42/90/75 81/141/75 41/142/75
f 82/122/63 87/122/63 104/125/63
f 73/41/76 83/133/76 88/143/76
f 91/144/77 82/37/77 45/145/77
f 96/146/78 95/147/78 59/148/78
f 89/149/79 90/150/79 91/151/79
f 92/152/80 93/153/80 94/154/80
f 90/150/81 93/153/81 92/152/81
f 90/140/82 35/121/82 82/122/82
f 95/155/83 97/156/83 98/157/83
f 98/135/15 85/158/15 37/88/15
f 99/159/84 100/160/84 101/161/84
f 102/162/85 103/163/85 104/164/85
f 115/165/86 99/159/86 116/166/86
f 115/167/87 47/127/87 108/89/87
f 100/128/88 108/89/88 39/74/88
f 102/162/89 116/166/89 103/163/89
f 70/79/3 109/40/3 25/79/3
f 106/12/15 61/13/15 43/168/15
f 111/169/90 34/170/90 33/171/90
f 25/79/91 110/12/91 26/100/91
f 48/95/92 108/172/92 47/173/92
f 44/91/93 106/83/93 43/174/93
f 70/79/94 105/40/94 114/42/94
f 61/13/15 107/38/15 48/134/15
f 34/74/8 116/175/8 99/176/8
f 111/94/95 76/177/95 117/178/95
f 117/14/96 79/179/96 78/180/96
f 123/181/97 127/182/97 133/183/97
f 122/184/98 132/185/98 126/186/98
f 121/187/99 129/188/99 125/189/99
f 128/190/100 130/191/100 120/192/100
f 119/193/101 147/194/101 118/195/101
f 140/196/102 119/193/102 118/195/102
f 135/197/103 121/187/103 134/198/103
f 139/199/104 123/181/104 138/200/104
f 163/201/105 129/188/105 162/202/105
f 159/203/106 133/183/106 158/204/106
f 143/205/107 125/189/107 142/206/107
f 151/207/108 127/182/108 150/208/108
f 155/209/109 131/210/109 154/211/109
f 156/212/110 121/187/110 120/192/110
f 152/199/111 123/181/111 122/184/111
f 136/213/112 125/189/112 124/214/112
f 160/215/113 127/182/113 126/186/113
f 144/201/114 129/188/114 128/190/114
f 164/216/115 131/210/115 130/191/115
f 148/203/116 133/183/116 132/185/116
f 135/197/117 137/217/117 136/213/117
f 139/199/118 141/218/118 140/196/118
f 143/205/119 145/202/119 144/201/119
f 147/194/120 149/204/120 148/203/120
f 152/199/121 150/208/121 153/200/121
f 155/209/122 157/219/122 156/212/122
f 160/215/123 158/204/123 161/220/123
f 164/216/124 162/202/124 165/221/124
f 75/1/125 51/76/125 23/2/125
f 59/4/2 37/88/2 24/5/2
f 29/7/3 10/8/3 64/8/3
f 50/9/4 21/57/4 40/10/4
f 110/12/53 41/142/53 60/13/53
f 54/15/126 16/222/126 36/16/126
f 96/19/15 84/141/15 43/168/15
f 43/168/15 61/13/15 96/19/15
f 112/20/127 45/145/127 103/21/127
f 67/23/128 13/223/128 99/24/128
f 13/223/129 34/224/129 99/24/129
f 69/26/130 22/225/130 38/27/130
f 55/28/131 14/226/131 66/29/131
f 60/33/132 41/227/132 94/31/132
f 41/227/133 81/228/133 94/31/133
f 83/34/3 29/7/3 71/7/3
f 72/27/134 38/27/134 86/36/134
f 58/11/15 40/10/15 107/38/15
f 105/40/135 44/229/135 73/41/135
f 1/59/136 3/115/136 63/60/136
f 28/62/137 5/47/137 4/46/137
f 10/8/27 12/64/27 65/64/27
f 32/65/138 9/117/138 8/66/138
f 14/50/139 13/49/139 67/68/139
f 16/70/140 18/230/140 35/71/140
f 68/3/141 23/2/141 22/58/141
f 21/57/142 20/56/142 39/74/142
f 49/75/143 19/55/143 21/57/143
f 51/76/34 12/48/34 11/46/34
f 53/76/35 17/53/35 16/52/35
f 55/77/144 3/45/144 2/44/144
f 25/79/145 26/100/145 2/44/145
f 28/80/146 27/231/146 81/81/146
f 29/62/147 30/63/147 11/46/147
f 32/65/148 31/67/148 106/83/148
f 15/51/149 33/10/149 34/74/149
f 60/85/150 93/232/150 89/86/150
f 37/88/151 38/121/151 22/58/151
f 40/10/152 39/74/152 108/89/152
f 42/90/153 41/142/153 110/12/153
f 44/91/154 43/174/154 84/92/154
f 46/93/155 45/145/155 112/20/155
f 48/95/156 47/173/156 86/36/156
f 62/97/157 9/117/157 32/65/157
f 55/77/158 56/78/158 15/51/158
f 53/76/35 54/6/35 4/46/35
f 51/76/34 52/6/34 24/5/34
f 49/98/33 50/106/33 8/66/33
f 31/100/15 58/11/15 113/39/15
f 63/101/159 3/45/159 55/77/159
f 27/63/126 4/46/126 54/6/126
f 111/104/160 117/14/160 60/13/160
f 31/67/4 8/66/4 50/106/4
f 30/63/2 59/4/2 52/6/2
f 56/110/161 2/66/161 78/108/161
f 2/66/69 26/67/69 78/108/69
f 65/111/56 12/111/56 51/112/56
f 65/111/162 75/113/162 53/112/162
f 63/60/163 74/30/163 49/114/163
f 62/116/49 70/79/49 25/79/49
f 68/3/164 69/73/164 18/54/164
f 19/55/165 66/69/165 67/68/165
f 5/47/27 64/47/27 65/48/27
f 9/117/166 62/97/166 63/118/166
f 109/84/167 114/233/167 73/119/167
f 35/121/63 72/121/63 87/122/63
f 80/34/168 88/35/168 71/7/168
f 74/123/169 66/234/169 19/124/169
f 35/121/170 18/54/170 69/73/170
f 47/127/171 102/235/171 104/125/171
f 104/125/14 87/122/14 86/126/14
f 20/56/172 67/68/172 100/128/172
f 67/68/173 101/236/173 100/128/173
f 28/7/3 71/7/3 64/8/3
f 53/76/174 75/1/174 68/3/174
f 77/129/175 78/237/175 79/130/175
f 15/51/176 56/78/176 76/132/176
f 56/78/177 77/238/177 76/132/177
f 73/41/178 88/143/178 80/133/178
f 85/158/15 98/135/15 48/134/15
f 98/135/179 97/18/179 61/13/179
f 94/137/180 81/141/180 27/63/180
f 27/63/181 57/103/181 94/137/181
f 37/138/182 85/96/182 86/36/182
f 29/7/40 83/34/40 84/92/40
f 57/103/183 36/88/183 90/140/183
f 42/90/184 80/133/184 81/141/184
f 103/239/185 45/240/185 104/125/185
f 45/240/186 82/122/186 104/125/186
f 73/41/187 44/229/187 83/133/187
f 45/145/188 46/93/188 91/144/188
f 46/93/189 89/241/189 91/144/189
f 59/148/15 30/231/15 96/146/15
f 30/231/15 84/81/15 96/146/15
f 90/150/190 89/149/190 93/153/190
f 82/122/191 91/242/191 90/140/191
f 90/140/192 36/88/192 35/121/192
f 95/155/193 96/243/193 97/156/193
f 37/88/15 59/4/15 98/135/15
f 59/4/194 95/244/194 98/135/194
f 115/165/86 100/160/86 99/159/86
f 115/167/195 102/235/195 47/127/195
f 100/128/196 115/167/196 108/89/196
f 102/162/86 115/165/86 116/166/86
f 70/79/197 114/42/197 109/40/197
f 106/12/15 113/39/15 61/13/15
f 111/169/90 112/245/90 34/170/90
f 25/79/38 109/40/38 110/12/38
f 48/95/198 107/246/198 108/172/198
f 44/91/199 105/84/199 106/83/199
f 70/79/3 32/79/3 105/40/3
f 61/13/15 113/39/15 107/38/15
f 34/74/8 112/247/8 116/175/8
f 33/248/53 76/177/53 111/94/53
f 76/177/200 79/249/200 117/178/200
f 78/180/53 26/100/53 110/12/53
f 110/12/201 117/14/201 78/180/201
f 119/193/202 141/218/202 138/200/202
f 138/200/203 123/181/203 119/193/203
f 123/181/204 153/200/204 127/182/204
f 119/193/205 123/181/205 133/183/205
f 153/200/206 150/208/206 127/182/206
f 127/182/207 161/220/207 158/204/207
f 158/204/208 133/183/208 127/182/208
f 133/183/209 149/204/209 119/193/209
f 149/204/210 146/250/210 119/193/210
f 118/195/211 147/194/211 148/203/211
f 148/203/212 132/185/212 118/195/212
f 132/185/213 159/203/213 126/186/213
f 118/195/214 132/185/214 122/184/214
f 159/203/215 160/215/215 126/186/215
f 126/186/216 151/207/216 152/199/216
f 152/199/217 122/184/217 126/186/217
f 122/184/218 139/199/218 118/195/218
f 139/199/219 140/196/219 118/195/219
f 134/198/220 121/187/220 125/189/220
f 121/187/221 157/219/221 131/210/221
f 157/219/222 154/211/222 131/210/222
f 131/210/223 165/221/223 162/202/223
f 162/202/224 129/188/224 131/210/224
f 129/188/225 145/202/225 125/189/225
f 131/210/226 129/188/226 121/187/226
f 145/202/227 142/206/227 125/189/227
f 125/189/228 137/217/228 134/198/228
f 120/192/229 135/197/229 124/214/229
f 135/197/230 136/213/230 124/214/230
f 124/214/231 143/205/231 144/201/231
f 128/190/232 124/214/232 144/201/232
f 128/190/233 163/201/233 130/191/233
f 163/201/234 164/216/234 130/191/234
f 130/191/235 155/209/235 156/212/235
f 124/214/229 128/190/229 120/192/229
f 156/212/236 120/192/236 130/191/236
f 119/193/237 146/250/237 147/194/237
f 140/196/238 141/218/238 119/193/238
f 135/197/239 120/192/239 121/187/239
f 139/199/240 122/184/240 123/181/240
f 163/201/116 128/190/116 129/188/116
f 159/203/114 132/185/114 133/183/114
f 143/205/241 124/214/241 125/189/241
f 151/207/242 126/186/242 127/182/242
f 155/209/243 130/191/243 131/210/243
f 156/212/244 157/219/244 121/187/244
f 152/199/245 153/200/245 123/181/245
f 136/213/246 137/217/246 125/189/246
f 160/215/247 161/220/247 127/182/247
f 144/201/248 145/202/248 129/188/248
f 164/216/249 165/221/249 131/210/249
f 148/203/250 149/204/250 133/183/250
f 135/197/251 134/198/251 137/217/251
f 139/199/118 138/200/118 141/218/118
f 143/205/252 142/206/252 145/202/252
f 147/194/253 146/250/253 149/204/253
f 152/199/254 151/207/254 150/208/254
f 155/209/255 154/211/255 157/219/255
f 160/215/256 159/203/256 158/204/256
f 164/216/257 163/201/257 162/202/257
