# Blender 4.4.0
# www.blender.org
mtllib Prop_Tire_Half_01.mtl
o Prop_Tire_Half_01
v 0.107410 0.400859 -0.135000
v -0.107410 0.400859 -0.135000
v -0.293449 0.293449 -0.135000
v -0.400859 0.107410 -0.135000
v 0.400859 0.107410 -0.135000
v 0.293449 0.293449 -0.135000
v 0.107410 0.400859 0.135000
v -0.107410 0.400859 0.135000
v -0.293449 0.293449 0.135000
v -0.400859 0.107410 0.135000
v 0.400859 0.107410 0.135000
v 0.293449 0.293449 0.135000
v 0.098952 0.369295 -0.152427
v -0.098952 0.369295 -0.152427
v -0.270343 0.270343 -0.152427
v -0.369295 0.098952 -0.152427
v 0.369295 0.098952 -0.152427
v 0.270343 0.270343 -0.152427
v 0.098952 0.369295 0.152427
v -0.098952 0.369295 0.152427
v -0.270343 0.270343 0.152427
v -0.369295 0.098952 0.152427
v 0.369295 0.098952 0.152427
v 0.270343 0.270343 0.152427
v 0.088754 0.331233 -0.103840
v -0.088754 0.331233 -0.103840
v -0.242479 0.242479 -0.103840
v -0.331233 0.088754 -0.103840
v 0.331233 0.088754 -0.103840
v 0.242479 0.242479 -0.103840
v 0.084373 0.314885 0.103840
v -0.084373 0.314885 0.103840
v -0.230512 0.230512 0.103840
v -0.314885 0.084373 0.103840
v 0.314885 0.084373 0.103840
v 0.230512 0.230512 0.103840
v -0.088754 0.331233 -0.139991
v 0.088754 0.331233 -0.139991
v -0.242479 0.242479 -0.139991
v -0.331233 0.088754 -0.139991
v 0.331233 0.088754 -0.139991
v 0.242479 0.242479 -0.139991
v -0.084373 0.314885 0.139991
v 0.084373 0.314885 0.139991
v -0.230512 0.230512 0.139991
v -0.314885 0.084373 0.139991
v 0.314885 0.084373 0.139991
v 0.230512 0.230512 0.139991
v -0.102233 0.381540 -0.103840
v -0.102233 0.381540 0.103840
v -0.279307 0.279307 0.103840
v -0.279307 0.279307 -0.103840
v -0.381540 0.102233 0.103840
v -0.381540 0.102233 -0.103840
v 0.381540 0.102233 0.103840
v 0.381540 0.102233 -0.103840
v 0.279307 0.279307 0.103840
v 0.279307 0.279307 -0.103840
v 0.102233 0.381540 0.103840
v 0.102233 0.381540 -0.103840
v -0.400859 0.000000 -0.135000
v -0.400859 -0.000000 0.135000
v -0.369295 0.000000 -0.152427
v -0.369295 -0.000000 0.152427
v -0.331233 0.000000 -0.139991
v -0.314885 -0.000000 0.139991
v -0.331233 0.000000 -0.103840
v -0.314885 -0.000000 0.103840
v -0.381540 0.000000 -0.103840
v -0.381540 -0.000000 0.103840
v 0.400859 0.000000 -0.135000
v 0.400859 -0.000000 0.135000
v 0.369295 0.000000 -0.152427
v 0.369295 -0.000000 0.152427
v 0.331233 0.000000 -0.139991
v 0.314885 0.000000 0.139991
v 0.331233 0.000000 -0.103840
v 0.314885 0.000000 0.103840
v 0.381540 0.000000 -0.103840
v 0.381540 -0.000000 0.103840
vn 0.5000 0.8660 -0.0000
vn -0.5000 0.8660 -0.0000
vn -0.8660 0.5000 -0.0000
vn 1.0000 -0.0000 -0.0000
vn 0.8660 0.5000 -0.0000
vn -0.0000 1.0000 -0.0000
vn 0.4834 -0.0000 0.8754
vn -0.4186 0.2417 0.8754
vn 0.4186 0.2417 0.8754
vn -0.0000 0.4833 -0.8754
vn 0.2417 0.4186 0.8754
vn -0.2417 0.4186 -0.8754
vn -0.4186 0.2417 -0.8754
vn 0.4186 0.2417 -0.8754
vn -0.4833 -0.0000 -0.8754
vn 0.2417 0.4186 -0.8754
vn -0.0000 0.4834 0.8754
vn -0.2417 0.4186 0.8754
vn -0.1930 -0.1114 0.9749
vn -0.0000 -0.3106 -0.9505
vn -0.1114 -0.1930 0.9749
vn 0.1553 -0.2690 -0.9505
vn 0.2690 -0.1553 -0.9505
vn -0.2690 -0.1553 -0.9505
vn 0.3106 -0.0000 -0.9505
vn -0.1553 -0.2690 -0.9505
vn -0.0000 -0.2228 0.9749
vn 0.1114 -0.1930 0.9749
vn -0.2228 -0.0000 0.9749
vn 0.1930 -0.1114 0.9749
vn -0.0000 -0.0000 -1.0000
vn -0.0000 -0.0000 1.0000
vn -0.0000 -1.0000 -0.0000
vn 0.5000 -0.8660 -0.0000
vn 0.8660 -0.5000 -0.0000
vn -1.0000 -0.0000 -0.0000
vn -0.8660 -0.5000 -0.0000
vn -0.5000 -0.8660 -0.0000
vn 0.2228 -0.0000 0.9749
vn -0.4834 -0.0000 0.8754
vn -0.3106 -0.0000 -0.9505
vn 0.4833 -0.0000 -0.8754
vn -0.0000 0.4834 -0.8754
vn -0.4834 -0.0000 -0.8754
vn -0.0000 0.4833 0.8754
vt 0.844031 0.759686
vt 0.844236 0.735060
vt 0.843794 0.759686
vt 0.843589 0.735060
vt 0.843471 0.692406
vt 0.844354 0.692406
vt 0.844354 0.667779
vt 0.844319 0.690467
vt 0.844319 0.667779
vt 0.843615 0.729762
vt 0.844021 0.752449
vt 0.843804 0.752449
vt 0.844210 0.729762
vt 0.843506 0.690467
vt 0.843471 0.667779
vt 0.843506 0.667779
vt 0.844166 0.720630
vt 0.844259 0.687124
vt 0.844010 0.743723
vt 0.843815 0.743723
vt 0.844005 0.739974
vt 0.843646 0.723374
vt 0.843548 0.688128
vt 0.844277 0.688128
vt 0.844179 0.723374
vt 0.843548 0.667779
vt 0.843659 0.720630
vt 0.843820 0.739974
vt 0.844259 0.667779
vt 0.853926 0.707725
vt 0.853801 0.717024
vt 0.853938 0.717024
vt 0.853929 0.710006
vt 0.854057 0.702762
vt 0.853648 0.676178
vt 0.853614 0.663797
vt 0.853648 0.663797
vt 0.854092 0.676178
vt 0.854032 0.697624
vt 0.853683 0.702762
vt 0.853614 0.678059
vt 0.844277 0.667779
vt 0.843566 0.687124
vt 0.843566 0.667779
vt 0.853601 0.663797
vt 0.854125 0.678059
vt 0.854125 0.663797
vt 0.853715 0.695954
vt 0.853813 0.707725
vt 0.854081 0.675567
vt 0.854081 0.663797
vt 0.853659 0.675567
vt 0.854024 0.695954
vt 0.853810 0.710006
vt 0.853707 0.697624
vt 0.854138 0.663797
vt 0.853659 0.663797
vt 0.853622 0.663797
vt 0.854092 0.663797
vt 0.854117 0.663797
s 0
usemtl Texture_Map
f 1/1/1 12/2/1 6/2/1
f 2/3/2 9/4/2 8/3/2
f 4/5/3 9/4/3 3/4/3
f 5/6/4 72/7/4 71/7/4
f 6/2/5 11/6/5 5/6/5
f 2/3/6 7/1/6 1/1/6
f 72/7/7 23/8/7 74/9/7
f 10/5/8 21/10/8 9/4/8
f 12/2/9 23/8/9 11/6/9
f 2/3/10 13/11/10 14/12/10
f 12/2/11 19/11/11 24/13/11
f 3/4/12 14/12/12 15/10/12
f 3/4/13 16/14/13 4/5/13
f 6/2/14 17/8/14 18/13/14
f 61/15/15 16/14/15 63/16/15
f 6/2/16 13/11/16 1/1/16
f 8/3/17 19/11/17 7/1/17
f 9/4/18 20/12/18 8/3/18
f 23/8/19 48/17/19 47/18/19
f 14/12/20 38/19/20 37/20/20
f 24/13/21 44/21/21 48/17/21
f 15/10/22 37/20/22 39/22/22
f 15/10/23 40/23/23 16/14/23
f 18/13/24 41/24/24 42/25/24
f 63/16/25 40/23/25 65/26/25
f 18/13/26 38/19/26 13/11/26
f 20/12/27 44/21/27 19/11/27
f 20/12/28 45/27/28 43/28/28
f 74/9/29 47/18/29 76/29/29
f 22/14/30 45/27/30 21/10/30
f 31/30/31 50/31/31 59/32/31
f 25/33/32 58/34/32 60/32/32
f 28/35/32 69/36/32 67/37/32
f 29/38/32 58/34/32 30/39/32
f 28/35/32 52/40/32 54/41/32
f 26/20/33 38/19/33 25/19/33
f 27/22/34 37/20/34 26/20/34
f 28/23/35 39/22/35 27/22/35
f 77/42/36 41/24/36 75/42/36
f 30/25/37 41/24/37 29/24/37
f 25/19/38 42/25/38 30/25/38
f 31/21/33 43/28/33 32/28/33
f 32/28/34 45/27/34 33/27/34
f 33/27/35 46/43/35 34/43/35
f 34/43/4 66/44/4 68/44/4
f 35/18/37 48/17/37 36/17/37
f 36/17/38 44/21/38 31/21/38
f 53/41/35 52/40/35 51/40/35
f 51/40/34 49/31/34 50/31/34
f 62/45/33 61/45/33 69/36/33
f 55/46/36 79/47/36 80/47/36
f 57/34/37 56/46/37 55/46/37
f 57/34/38 60/32/38 58/34/38
f 50/31/33 60/32/33 59/32/33
f 33/48/31 50/31/31 32/49/31
f 35/50/31 80/47/31 78/51/31
f 34/52/31 51/40/31 33/48/31
f 36/53/31 55/46/31 35/50/31
f 25/33/32 49/31/32 26/54/32
f 31/30/31 57/34/31 36/53/31
f 26/54/32 52/40/32 27/55/32
f 34/52/31 70/36/31 53/41/31
f 53/41/4 69/36/4 54/41/4
f 67/26/4 40/23/4 28/23/4
f 64/16/39 46/43/39 22/14/39
f 62/15/40 22/14/40 10/5/40
f 61/15/36 10/5/36 4/5/36
f 79/47/33 71/56/33 72/56/33
f 78/29/36 47/18/36 35/18/36
f 29/38/32 79/47/32 56/46/32
f 73/9/41 41/24/41 17/8/41
f 71/7/42 17/8/42 5/6/42
f 1/1/1 7/1/1 12/2/1
f 2/3/2 3/4/2 9/4/2
f 4/5/3 10/5/3 9/4/3
f 5/6/4 11/6/4 72/7/4
f 6/2/5 12/2/5 11/6/5
f 2/3/6 8/3/6 7/1/6
f 72/7/7 11/6/7 23/8/7
f 10/5/8 22/14/8 21/10/8
f 12/2/9 24/13/9 23/8/9
f 2/3/43 1/1/43 13/11/43
f 12/2/11 7/1/11 19/11/11
f 3/4/12 2/3/12 14/12/12
f 3/4/13 15/10/13 16/14/13
f 6/2/14 5/6/14 17/8/14
f 61/15/44 4/5/44 16/14/44
f 6/2/16 18/13/16 13/11/16
f 8/3/45 20/12/45 19/11/45
f 9/4/18 21/10/18 20/12/18
f 23/8/19 24/13/19 48/17/19
f 14/12/20 13/11/20 38/19/20
f 24/13/21 19/11/21 44/21/21
f 15/10/22 14/12/22 37/20/22
f 15/10/23 39/22/23 40/23/23
f 18/13/24 17/8/24 41/24/24
f 63/16/25 16/14/25 40/23/25
f 18/13/26 42/25/26 38/19/26
f 20/12/27 43/28/27 44/21/27
f 20/12/28 21/10/28 45/27/28
f 74/9/29 23/8/29 47/18/29
f 22/14/30 46/43/30 45/27/30
f 31/30/31 32/49/31 50/31/31
f 25/33/32 30/39/32 58/34/32
f 28/35/32 54/41/32 69/36/32
f 29/38/32 56/46/32 58/34/32
f 28/35/32 27/55/32 52/40/32
f 26/20/33 37/20/33 38/19/33
f 27/22/34 39/22/34 37/20/34
f 28/23/35 40/23/35 39/22/35
f 77/42/36 29/24/36 41/24/36
f 30/25/37 42/25/37 41/24/37
f 25/19/38 38/19/38 42/25/38
f 31/21/33 44/21/33 43/28/33
f 32/28/34 43/28/34 45/27/34
f 33/27/35 45/27/35 46/43/35
f 34/43/4 46/43/4 66/44/4
f 35/18/37 47/18/37 48/17/37
f 36/17/38 48/17/38 44/21/38
f 53/41/35 54/41/35 52/40/35
f 51/40/34 52/40/34 49/31/34
f 70/36/33 68/57/33 64/58/33
f 68/57/33 66/57/33 64/58/33
f 64/58/33 62/45/33 70/36/33
f 61/45/33 63/58/33 69/36/33
f 63/58/33 65/37/33 69/36/33
f 65/37/33 67/37/33 69/36/33
f 69/36/33 70/36/33 62/45/33
f 55/46/36 56/46/36 79/47/36
f 57/34/37 58/34/37 56/46/37
f 57/34/38 59/32/38 60/32/38
f 50/31/33 49/31/33 60/32/33
f 33/48/31 51/40/31 50/31/31
f 35/50/31 55/46/31 80/47/31
f 34/52/31 53/41/31 51/40/31
f 36/53/31 57/34/31 55/46/31
f 25/33/32 60/32/32 49/31/32
f 31/30/31 59/32/31 57/34/31
f 26/54/32 49/31/32 52/40/32
f 34/52/31 68/57/31 70/36/31
f 53/41/4 70/36/4 69/36/4
f 67/26/4 65/26/4 40/23/4
f 64/16/39 66/44/39 46/43/39
f 62/15/40 64/16/40 22/14/40
f 61/15/36 62/15/36 10/5/36
f 79/47/33 77/59/33 75/59/33
f 75/59/33 73/60/33 79/47/33
f 73/60/33 71/56/33 79/47/33
f 72/56/33 74/60/33 80/47/33
f 74/60/33 76/51/33 78/51/33
f 80/47/33 74/60/33 78/51/33
f 80/47/33 79/47/33 72/56/33
f 78/29/36 76/29/36 47/18/36
f 29/38/32 77/59/32 79/47/32
f 73/9/41 75/42/41 41/24/41
f 71/7/42 73/9/42 17/8/42
