# Blender 4.4.0
# www.blender.org
mtllib Prop_Basket_01.mtl
o Prop_Basket_01
v -0.000199 0.000000 -0.207296
v -0.108336 0.000000 -0.191501
v -0.200010 0.000000 -0.146519
v -0.261265 0.000000 -0.079199
v -0.282775 0.000000 0.000210
v -0.261265 0.000000 0.079620
v -0.196833 0.000000 0.143576
v -0.108336 0.000000 0.191921
v -0.000199 0.000000 0.207717
v 0.107939 0.000000 0.191921
v 0.199613 0.000000 0.146939
v 0.260868 0.000000 0.079620
v 0.282378 0.000000 0.000210
v 0.260868 0.000000 -0.079199
v 0.199613 0.000000 -0.146519
v 0.107939 0.000000 -0.191501
v -0.000199 0.225813 -0.217344
v -0.113572 0.225813 -0.200784
v -0.209686 0.225813 -0.153624
v -0.273906 0.225813 -0.083044
v -0.296458 0.225813 0.000210
v -0.273906 0.225813 0.083465
v -0.209686 0.225813 0.154044
v -0.113572 0.225813 0.201204
v -0.000199 0.225813 0.217764
v 0.113175 0.225813 0.201204
v 0.209288 0.225813 0.154044
v 0.273509 0.225813 0.083465
v 0.296050 0.225813 0.000210
v 0.273509 0.225813 -0.083044
v 0.209288 0.225813 -0.153624
v 0.113175 0.225813 -0.200784
v 0.121272 0.225813 -0.215138
v 0.224250 0.225813 -0.164611
v 0.293057 0.225813 -0.088990
v 0.317216 0.225813 0.000210
v 0.293057 0.225813 0.089411
v 0.224250 0.225813 0.165031
v 0.121272 0.225813 0.215559
v -0.000199 0.225813 0.233302
v -0.121669 0.225813 0.215559
v -0.224647 0.225813 0.165031
v -0.293454 0.225813 0.089411
v -0.317616 0.225813 0.000210
v -0.293454 0.225813 -0.088990
v -0.224647 0.225813 -0.164611
v -0.121669 0.225813 -0.215138
v -0.000199 0.225813 -0.232881
v 0.271914 0.027517 0.082979
v 0.277899 0.200560 0.084800
v 0.283966 0.089217 0.086645
v 0.280298 0.148266 0.085530
v 0.299673 0.200506 0.000210
v 0.294334 0.027517 0.000210
v 0.299328 0.148073 0.000210
v 0.306680 0.089184 0.000210
v -0.294731 0.027517 0.000210
v -0.301209 0.200560 0.000210
v -0.307776 0.089217 0.000210
v -0.278296 0.200560 0.084800
v -0.272311 0.027517 0.082979
v -0.284363 0.089217 0.086645
v 0.277899 0.200560 -0.084379
v 0.271914 0.027517 -0.082559
v 0.280298 0.148266 -0.085109
v -0.213045 0.200560 0.156512
v -0.203883 0.027517 0.148298
v -0.214881 0.148266 0.157860
v -0.217130 0.089217 0.159330
v 0.212648 0.200560 -0.156091
v 0.208067 0.027517 -0.152727
v 0.214484 0.148266 -0.157439
v 0.217292 0.089217 -0.159501
v -0.115390 0.200560 0.204428
v -0.112911 0.027517 0.200033
v 0.114993 0.200560 -0.204007
v 0.112514 0.027517 -0.199612
v 0.115987 0.148266 -0.205769
v 0.117506 0.089217 -0.208463
v -0.000199 0.200560 0.221254
v -0.000199 0.027517 0.216496
v -0.000199 0.148266 0.223160
v -0.000199 0.089217 0.226076
v -0.000199 0.027517 -0.216076
v -0.000199 0.200560 -0.220833
v -0.115390 0.200560 -0.204007
v -0.112911 0.027517 -0.199612
v -0.116384 0.148266 -0.205769
v -0.117904 0.089217 -0.208463
v 0.114993 0.200560 0.204428
v 0.112514 0.027517 0.200033
v 0.117506 0.089217 0.208883
v -0.213045 0.200560 -0.156091
v -0.208464 0.027517 -0.152727
v -0.214881 0.148266 -0.157439
v -0.217689 0.089217 -0.159501
v 0.212648 0.200560 0.156512
v 0.208067 0.027517 0.153148
v 0.214484 0.148266 0.157860
v 0.217292 0.089217 0.159922
v -0.278296 0.200560 -0.084379
v -0.272311 0.027517 -0.082559
v -0.280695 0.148266 -0.085109
v -0.284364 0.089217 -0.086225
v 0.118369 0.245655 -0.209992
v 0.218885 0.245655 -0.160671
v 0.286048 0.245655 -0.086858
v 0.309633 0.245655 0.000210
v 0.286048 0.245655 0.087279
v 0.218885 0.245655 0.161092
v 0.118369 0.245655 0.210412
v -0.000199 0.245655 0.227731
v -0.118766 0.245655 0.210412
v -0.219283 0.245655 0.161092
v -0.286446 0.245655 0.087279
v -0.310030 0.245655 0.000210
v -0.286446 0.245655 -0.086858
v -0.219283 0.245655 -0.160671
v -0.118766 0.245655 -0.209992
v -0.000199 0.245655 -0.227311
v 0.114385 0.245655 -0.195191
v 0.211525 0.245655 -0.149344
v 0.276432 0.245655 -0.080728
v 0.299224 0.245655 0.000210
v 0.276432 0.245655 0.081148
v 0.211525 0.245655 0.149764
v 0.114385 0.245655 0.195612
v -0.000199 0.245655 0.211711
v -0.114783 0.245655 0.195612
v -0.211922 0.245655 0.149764
v -0.276829 0.245655 0.081148
v -0.299621 0.245655 0.000210
v -0.276829 0.245655 -0.080728
v -0.211922 0.245655 -0.149344
v -0.114783 0.245655 -0.195191
v -0.000199 0.245655 -0.211291
v 0.106164 0.235302 -0.181171
v 0.196334 0.235302 -0.138613
v 0.256584 0.235302 -0.074921
v 0.277741 0.235302 0.000210
v 0.256584 0.235302 0.075341
v 0.196334 0.235302 0.139034
v 0.106164 0.235302 0.181592
v -0.000199 0.235302 0.196536
v -0.106561 0.235302 0.181592
v -0.196731 0.235302 0.139034
v -0.256981 0.235302 0.075341
v -0.278138 0.235302 0.000210
v -0.256981 0.235302 -0.074921
v -0.196731 0.235302 -0.138613
v -0.106561 0.235302 -0.181171
v -0.000199 0.235302 -0.196116
v -0.106109 0.156250 0.187973
v -0.104259 0.082568 0.184694
v -0.272123 0.082568 0.000210
v -0.276955 0.156250 0.000210
v -0.255888 0.156250 -0.077563
v -0.251424 0.082568 -0.076205
v 0.192081 0.082568 -0.140988
v 0.103862 0.082568 0.184694
v 0.105712 0.156250 0.187973
v -0.000199 0.156250 0.203443
v -0.000199 0.082568 0.199894
v -0.000199 0.082568 -0.199474
v -0.000199 0.156250 -0.203022
v 0.103862 0.082568 -0.184274
v 0.096757 0.008885 -0.171677
v 0.178952 0.008885 -0.131346
v 0.233872 0.008885 -0.070988
v 0.253158 0.008885 0.000210
v 0.233872 0.008885 0.071408
v 0.178952 0.008885 0.131767
v 0.096757 0.008885 0.172097
v -0.000199 0.008885 0.186259
v -0.097154 0.008885 0.172097
v -0.177177 0.008885 0.129468
v -0.234270 0.008885 0.071408
v -0.253555 0.008885 0.000210
v -0.234270 0.008885 -0.070988
v -0.179349 0.008885 -0.131346
v -0.097154 0.008885 -0.171677
v -0.000199 0.008885 -0.185839
v 0.271648 0.082564 0.000210
v 0.273725 0.156116 0.000210
v 0.255491 0.156250 -0.077563
v 0.251026 0.082568 -0.076205
v 0.195498 0.156250 0.143917
v 0.192081 0.082568 0.141408
v 0.255491 0.156250 0.077984
v 0.251026 0.082568 0.076626
v -0.251424 0.082568 0.076626
v -0.255888 0.156250 0.077984
v -0.195895 0.156250 -0.143497
v -0.106109 0.156250 -0.187552
v 0.114068 0.148266 0.204000
v 0.116842 0.115020 0.207706
v 0.126127 0.143816 0.198586
v 0.115279 0.185516 0.204934
v -0.119023 0.148266 0.204894
v -0.113901 0.148266 0.205077
v -0.115784 0.179852 0.205125
v -0.115421 0.089217 0.207770
v -0.120542 0.089217 0.207588
v -0.116614 0.073274 0.206596
v -0.303244 0.142182 -0.000340
v -0.303688 0.150645 0.000210
v -0.303169 0.148266 -0.002142
v -0.280586 0.150645 0.085496
v -0.280843 0.145890 0.085574
v -0.262427 0.148266 0.105606
v -0.002889 0.089217 -0.223962
v 0.002492 0.089217 -0.225263
v -0.000199 0.066325 -0.222101
v 0.002492 0.148266 -0.222347
v -0.002889 0.148266 -0.221047
v -0.000199 0.163352 -0.222190
v 0.285550 0.089217 -0.077914
v 0.282399 0.081191 -0.085748
v 0.244576 0.089217 -0.129516
v 0.281748 0.115064 -0.085533
v 0.195773 0.158746 -0.144264
v 0.195382 0.153755 -0.143412
v 0.197160 0.156250 -0.141670
v 0.105649 0.153755 -0.187441
v 0.105860 0.158748 -0.188322
v 0.056963 0.156250 -0.194673
v -0.192720 0.080598 -0.141559
v -0.192571 0.084571 -0.141056
v -0.204356 0.082568 -0.127934
v -0.104310 0.084571 -0.184363
v -0.104663 0.080598 -0.184766
v -0.086966 0.082568 -0.186800
v -0.194425 0.156250 0.144639
v -0.197847 0.156250 0.143514
v -0.199188 0.186143 0.144022
v -0.193580 0.082568 0.140105
v -0.190213 0.082568 0.141288
v -0.185783 0.057925 0.135744
v -0.000199 0.244992 0.223546
v 0.009047 0.239656 0.215101
v -0.000199 0.234319 0.206656
v -0.009444 0.239656 0.215101
v -0.000199 0.300189 0.186486
v 0.009047 0.294036 0.178653
v -0.000199 0.287883 0.170819
v -0.009444 0.294036 0.178653
v -0.000199 0.373815 0.110317
v 0.009047 0.365089 0.105761
v -0.000199 0.356362 0.101205
v -0.009444 0.365089 0.105761
v -0.000199 0.392676 -0.001082
v 0.009047 0.383004 -0.001082
v -0.000199 0.373331 -0.001082
v -0.009444 0.383004 -0.001082
v -0.000199 0.244992 -0.225710
v 0.009047 0.239656 -0.217265
v -0.000199 0.234319 -0.208820
v -0.009444 0.239656 -0.217265
v -0.000199 0.300189 -0.188650
v 0.009047 0.294036 -0.180817
v -0.000199 0.287883 -0.172983
v -0.009444 0.294036 -0.180817
v -0.000199 0.373815 -0.112481
v 0.009047 0.365089 -0.107925
v -0.000199 0.356362 -0.103369
v -0.009444 0.365089 -0.107925
vn 0.9593 0.1373 -0.2468
vn -0.7299 0.1620 0.6641
vn 0.8901 -0.3867 -0.2411
vn -0.6485 -0.3433 0.6794
vn 0.6916 -0.3545 -0.6293
vn -0.4765 -0.2659 0.8380
vn 0.4173 -0.3201 -0.8505
vn -0.1378 -0.3011 0.9436
vn -0.4359 0.1448 -0.8883
vn 0.1378 -0.3011 -0.9436
vn 0.1378 -0.3011 0.9436
vn -0.4173 -0.3201 -0.8505
vn 0.4173 -0.3201 0.8505
vn -0.6916 -0.3545 -0.6293
vn 0.6916 -0.3545 0.6293
vn -0.8901 -0.3867 -0.2411
vn -0.9497 0.1787 0.2572
vn 0.9497 0.1787 0.2571
vn -0.0000 -1.0000 -0.0000
vn -0.7299 0.1620 -0.6641
vn 0.4359 0.1448 0.8883
vn -0.1378 -0.3011 -0.9436
vn 0.1432 0.1355 0.9804
vn -0.1432 0.1355 -0.9804
vn 0.1432 0.1355 -0.9804
vn -0.1432 0.1355 0.9804
vn 0.4359 0.1448 -0.8883
vn -0.4359 0.1448 0.8883
vn 0.7299 0.1620 -0.6641
vn -0.8901 -0.3868 0.2411
vn -0.9497 0.1787 -0.2572
vn 0.7299 0.1620 0.6641
vn -0.9655 0.0647 -0.2522
vn -0.9663 0.0647 0.2492
vn -0.9457 -0.2000 -0.2562
vn 0.7389 0.0433 0.6724
vn 0.7384 0.0586 0.6718
vn 0.7274 -0.1814 0.6618
vn -0.7389 0.0433 -0.6724
vn -0.7384 0.0586 -0.6718
vn -0.7274 -0.1814 -0.6618
vn 0.4399 0.0522 0.8965
vn 0.1444 0.0488 0.9883
vn 0.4347 -0.1622 0.8859
vn -0.4402 0.0386 -0.8971
vn -0.4399 0.0522 -0.8965
vn -0.4347 -0.1622 -0.8859
vn 0.4476 -0.0197 0.8940
vn 0.1429 -0.1519 0.9780
vn 0.1429 -0.1519 -0.9780
vn -0.1429 -0.1519 -0.9780
vn 0.1444 0.0361 -0.9889
vn 0.1444 0.0488 -0.9883
vn -0.1332 -0.0512 -0.9898
vn -0.1569 0.0487 0.9864
vn -0.4399 0.0522 0.8965
vn -0.4442 -0.2492 0.8606
vn 0.4402 0.0386 -0.8971
vn 0.4399 0.0522 -0.8965
vn 0.4347 -0.1622 -0.8859
vn -0.1571 -0.0109 0.9875
vn -0.1429 -0.1519 0.9780
vn 0.7389 0.0433 -0.6724
vn 0.7274 -0.1814 -0.6618
vn 0.9476 -0.1901 -0.2567
vn -0.7330 0.0546 0.6780
vn -0.6653 -0.2675 0.6970
vn 0.9749 0.0478 -0.2173
vn 0.7510 0.0412 -0.6590
vn -0.9641 0.0479 -0.2612
vn -0.7389 0.0433 0.6724
vn -0.9457 -0.2000 0.2562
vn 0.9684 -0.0064 0.2493
vn 0.9602 0.1199 0.2523
vn 0.9495 -0.1901 0.2496
vn 0.8901 -0.3868 0.2411
vn -0.4222 0.2850 -0.8605
vn -0.7016 0.3164 -0.6384
vn -0.1393 0.2677 -0.9534
vn 0.7016 0.3164 -0.6384
vn 0.1393 0.2677 -0.9534
vn 0.9056 0.3461 -0.2453
vn 0.4222 0.2850 -0.8605
vn -0.9055 0.3462 0.2453
vn 0.4222 0.2850 0.8605
vn 0.9055 0.3462 0.2453
vn -0.1393 0.2677 0.9534
vn -0.4222 0.2850 0.8605
vn 0.1393 0.2677 0.9534
vn 0.7016 0.3164 0.6384
vn -0.9055 0.3462 -0.2453
vn -0.7016 0.3164 0.6384
vn -0.0000 1.0000 -0.0000
vn 0.2300 0.8424 0.4872
vn -0.4309 0.8942 -0.1213
vn -0.3561 0.8716 0.3368
vn 0.4309 0.8942 -0.1213
vn 0.2300 0.8424 -0.4872
vn 0.0789 0.8235 0.5618
vn -0.0789 0.8235 0.5618
vn -0.0789 0.8235 -0.5618
vn -0.2300 0.8424 0.4872
vn 0.4309 0.8942 0.1213
vn 0.0789 0.8235 -0.5618
vn -0.4309 0.8942 0.1213
vn -0.2300 0.8424 -0.4872
vn -0.3561 0.8716 -0.3368
vn 0.3561 0.8716 -0.3368
vn 0.3561 0.8716 0.3368
vn -0.7224 0.2147 -0.6573
vn 0.1444 0.0476 0.9884
vn 0.4399 0.0509 0.8966
vn -0.9383 0.2355 -0.2532
vn 0.9379 0.2363 -0.2540
vn 0.6967 0.2108 -0.6857
vn -0.4399 0.0509 0.8966
vn -0.1422 0.1801 0.9733
vn -0.1422 0.1801 -0.9733
vn -0.4323 0.1923 0.8810
vn 0.9379 0.2363 0.2540
vn 0.1422 0.1801 -0.9733
vn -0.9383 0.2355 0.2532
vn -0.4323 0.1923 -0.8810
vn 0.1444 0.0476 -0.9884
vn 0.1387 -0.0789 -0.9872
vn -0.1444 0.0476 -0.9884
vn -0.9732 0.0275 0.2282
vn -0.1387 -0.0789 -0.9872
vn -0.9614 0.0488 0.2707
vn -0.1444 0.0476 0.9884
vn -0.4399 0.0509 -0.8966
vn -0.7392 -0.0337 0.6726
vn -0.4263 -0.0513 -0.9031
vn 0.9633 0.0632 0.2609
vn 0.1387 -0.0789 0.9872
vn -0.4260 -0.0635 0.9025
vn 0.9625 0.0144 0.2710
vn -0.1236 -0.0918 0.9881
vn -0.7224 0.2147 0.6573
vn 0.1422 0.1801 0.9733
vn 0.4395 0.0659 -0.8958
vn 0.7612 -0.0112 -0.6485
vn 0.9625 0.0144 -0.2710
vn 0.9633 0.0632 -0.2609
vn -0.9614 0.0488 -0.2707
vn -0.9732 0.0275 -0.2282
vn 0.4263 -0.0513 0.9031
vn 0.7564 0.2283 0.6130
vn 0.7264 -0.0129 0.6871
vn 0.4311 0.2055 0.8786
vn 0.4614 0.1918 -0.8662
vn 0.4399 0.0516 -0.8966
vn -0.7264 -0.0129 -0.6871
vn -0.7384 0.0571 -0.6719
vn 0.3982 -0.0360 0.9166
vn 0.1653 -0.0301 0.9858
vn -0.0355 -0.0037 0.9994
vn -0.0354 -0.0708 0.9969
vn -0.0355 0.0465 0.9983
vn -0.4402 0.0386 0.8971
vn -0.9835 -0.0401 -0.1765
vn -0.7382 0.0509 0.6726
vn -0.9648 -0.0671 0.2544
vn -0.9641 0.0479 0.2612
vn -0.2335 -0.1060 -0.9666
vn -0.2347 -0.0318 -0.9715
vn -0.2346 0.0479 -0.9709
vn -0.1334 0.0486 -0.9899
vn 0.9202 0.0201 -0.3908
vn 0.9633 0.0649 -0.2605
vn -0.7970 0.1618 0.5819
vn -0.1357 0.1778 0.9747
vn -0.4333 0.1744 0.8842
vn -0.7384 0.0571 0.6719
vn 0.7478 -0.1110 0.6546
vn 0.1257 -0.1112 0.9858
vn 0.4368 -0.1291 0.8902
vn 0.7384 0.0571 0.6719
vn 0.3120 0.0301 -0.9496
vn 0.3198 0.2623 -0.9104
vn 0.3115 0.0619 -0.9482
vn 0.7474 0.0575 -0.6619
vn -0.7338 0.3782 0.5643
vn 0.7338 0.3782 0.5643
vn 0.7338 -0.3778 -0.5646
vn -0.7338 -0.3778 -0.5646
vn -0.7300 0.4894 0.4771
vn 0.7300 0.4894 0.4771
vn 0.7302 -0.4871 -0.4792
vn -0.7302 -0.4871 -0.4792
vn -0.7116 0.6927 0.1173
vn 0.7116 0.6927 0.1173
vn 0.7114 -0.6931 -0.1162
vn -0.7114 -0.6931 -0.1162
vn -0.7320 0.3798 -0.5656
vn 0.7338 0.3782 -0.5643
vn 0.7338 -0.3778 0.5646
vn -0.7320 -0.3793 0.5660
vn -0.7144 0.5031 -0.4863
vn 0.7300 0.4894 -0.4771
vn 0.7302 -0.4871 0.4792
vn -0.7140 -0.5014 0.4887
vn -0.7116 0.6927 -0.1173
vn 0.7181 0.6864 -0.1151
vn 0.7182 -0.6865 0.1139
vn -0.7114 -0.6931 0.1162
vn 0.9497 0.1787 -0.2571
vn 0.8901 -0.3868 -0.2411
vn -0.6743 -0.2894 0.6794
vn -0.4541 -0.3206 0.8313
vn -0.8901 -0.3868 -0.2411
vn 0.9593 0.1373 0.2468
vn -0.8901 -0.3867 0.2411
vn -0.9622 0.0796 -0.2606
vn -0.9632 -0.0654 -0.2609
vn -0.9617 0.0850 0.2605
vn 0.4159 0.0515 0.9079
vn 0.4534 0.1329 0.8813
vn 0.1641 0.1228 0.9788
vn 0.4167 0.0380 0.9082
vn 0.4402 0.0386 0.8971
vn -0.1329 -0.0958 -0.9865
vn -0.1444 0.0361 -0.9889
vn -0.1567 0.0490 0.9864
vn -0.4466 0.0393 0.8939
vn -0.4878 -0.1625 0.8577
vn -0.4409 -0.1636 0.8825
vn -0.1444 0.0361 0.9889
vn -0.1566 -0.0609 0.9858
vn 0.9627 -0.1990 -0.1835
vn 0.9478 -0.1898 -0.2564
vn -0.7389 0.0449 0.6723
vn -0.7384 0.0586 0.6718
vn -0.7220 -0.1807 0.6679
vn 0.9684 -0.0064 -0.2493
vn 0.7384 0.0586 -0.6718
vn 0.9749 0.0478 0.2173
vn 0.9740 0.0646 0.2171
vn 0.9457 -0.2000 0.2562
vn 0.8901 -0.3867 0.2411
vn 0.9055 0.3462 -0.2453
vn 0.9056 0.3461 0.2453
vn -0.9379 0.2363 -0.2540
vn 0.6970 0.3329 -0.6351
vn 0.6971 0.2101 -0.6855
vn -0.9379 0.2363 0.2540
vn 0.1440 -0.0861 -0.9858
vn -0.9635 0.0632 0.2600
vn -0.1440 -0.0861 -0.9858
vn -0.9736 0.0058 0.2283
vn -0.7264 -0.0129 0.6871
vn -0.8920 -0.0268 0.4513
vn -0.4394 -0.0698 -0.8956
vn 0.1440 -0.0861 0.9858
vn -0.4385 -0.0819 0.8950
vn 0.9652 0.0046 0.2614
vn -0.1387 -0.0823 0.9869
vn -0.1440 -0.0861 0.9858
vn 0.0915 0.1881 0.9779
vn 0.4502 0.0510 -0.8915
vn 0.7224 -0.1054 -0.6834
vn 0.7478 0.0448 -0.6624
vn 0.9652 0.0046 -0.2614
vn -0.9736 0.0058 -0.2283
vn -0.9635 0.0632 -0.2600
vn 0.4394 -0.0698 0.8956
vn 0.7224 0.2147 0.6573
vn 0.7392 -0.0337 0.6726
vn 0.4339 0.2713 -0.8592
vn 0.4617 0.1926 -0.8659
vn 0.4241 -0.1124 -0.8986
vn 0.4071 -0.0712 -0.9106
vn -0.7392 -0.0337 -0.6726
vn 0.4471 0.1359 0.8841
vn 0.1444 0.0361 0.9889
vn -0.9637 0.0563 0.2610
vn -0.1332 0.0489 -0.9899
vn 0.7582 0.0187 -0.6518
vn 0.9750 0.0454 -0.2174
vn 0.9624 0.1202 -0.2436
vn -0.4329 0.1846 0.8823
vn 0.3308 0.0617 -0.9417
vn 0.7371 0.0738 -0.6717
vn -0.7320 0.3798 0.5656
vn 0.7320 0.3798 0.5656
vn 0.7320 -0.3793 -0.5660
vn -0.7320 -0.3793 -0.5660
vn -0.7144 0.5031 0.4863
vn 0.7144 0.5031 0.4863
vn 0.7140 -0.5014 -0.4887
vn -0.7140 -0.5014 -0.4887
vn -0.7181 0.6864 0.1151
vn 0.7181 0.6864 0.1151
vn 0.7182 -0.6865 -0.1139
vn -0.7182 -0.6865 -0.1139
vn -0.7338 0.3782 -0.5643
vn 0.7320 0.3798 -0.5656
vn 0.7320 -0.3793 0.5660
vn -0.7338 -0.3778 0.5646
vn -0.7300 0.4894 -0.4771
vn 0.7144 0.5031 -0.4863
vn 0.7140 -0.5014 0.4887
vn -0.7302 -0.4871 0.4792
vn -0.7181 0.6864 -0.1151
vn 0.7116 0.6927 -0.1173
vn 0.7114 -0.6931 0.1162
vn -0.7182 -0.6865 0.1139
vt 0.213756 0.988051
vt 0.213761 0.989582
vt 0.213762 0.988048
vt 0.213626 0.988051
vt 0.213610 0.989582
vt 0.213609 0.988051
vt 0.213758 0.975894
vt 0.213755 0.977562
vt 0.213761 0.977562
vt 0.213614 0.975894
vt 0.213629 0.977562
vt 0.213611 0.977562
vt 0.213752 0.975894
vt 0.213738 0.977562
vt 0.213631 0.975894
vt 0.213653 0.977562
vt 0.213736 0.975894
vt 0.213713 0.977562
vt 0.213654 0.975894
vt 0.213683 0.977562
vt 0.213652 0.988051
vt 0.213627 0.989582
vt 0.213653 0.989582
vt 0.213711 0.975894
vt 0.213683 0.975894
vt 0.213630 0.975894
vt 0.213628 0.977562
vt 0.213608 0.975894
vt 0.213604 0.989582
vt 0.213603 0.988051
vt 0.213755 0.989582
vt 0.213651 0.989582
vt 0.213713 0.988051
vt 0.213738 0.989582
vt 0.213713 0.989582
vt 0.213683 0.988051
vt 0.213683 0.989582
vt 0.215308 0.970172
vt 0.215278 0.971703
vt 0.215278 0.970172
vt 0.213739 0.988051
vt 0.215233 0.958014
vt 0.215236 0.959682
vt 0.215230 0.959682
vt 0.215233 0.963422
vt 0.215228 0.966633
vt 0.215234 0.967002
vt 0.213602 0.984513
vt 0.213607 0.981302
vt 0.213608 0.984738
vt 0.215227 0.963422
vt 0.213740 0.984882
vt 0.213757 0.984882
vt 0.213740 0.981302
vt 0.213758 0.981302
vt 0.213626 0.984882
vt 0.213608 0.984882
vt 0.213625 0.981302
vt 0.213714 0.982866
vt 0.213714 0.981302
vt 0.213683 0.981302
vt 0.213683 0.984882
vt 0.215252 0.970172
vt 0.215277 0.967002
vt 0.215251 0.967002
vt 0.213652 0.981302
vt 0.215277 0.963422
vt 0.215253 0.959682
vt 0.215251 0.963422
vt 0.215342 0.966732
vt 0.215365 0.970172
vt 0.215339 0.969260
vt 0.215308 0.963422
vt 0.215338 0.959682
vt 0.215339 0.963422
vt 0.213683 0.979915
vt 0.215339 0.967002
vt 0.215309 0.967002
vt 0.215308 0.967916
vt 0.213714 0.984882
vt 0.213683 0.981302
vt 0.213683 0.984882
vt 0.213683 0.985796
vt 0.213682 0.984882
vt 0.213652 0.984882
vt 0.213653 0.984882
vt 0.213651 0.981302
vt 0.213651 0.984882
vt 0.215254 0.959682
vt 0.215277 0.962456
vt 0.215251 0.963422
vt 0.215363 0.959682
vt 0.213652 0.986796
vt 0.213652 0.980336
vt 0.213748 0.981302
vt 0.213758 0.981302
vt 0.213613 0.984882
vt 0.213625 0.981302
vt 0.215382 0.970172
vt 0.215388 0.966990
vt 0.215383 0.967002
vt 0.213757 0.982869
vt 0.213602 0.984882
vt 0.215234 0.970172
vt 0.215234 0.967146
vt 0.215239 0.967002
vt 0.213605 0.977562
vt 0.213762 0.984870
vt 0.213764 0.981300
vt 0.215383 0.963422
vt 0.215386 0.959682
vt 0.215390 0.963420
vt 0.213715 0.989582
vt 0.213623 0.989582
vt 0.213742 0.989582
vt 0.213605 0.989582
vt 0.213760 0.989582
vt 0.213599 0.989582
vt 0.213767 0.989582
vt 0.213625 0.990785
vt 0.213651 0.990785
vt 0.213607 0.990785
vt 0.213683 0.990785
vt 0.213759 0.990785
vt 0.213714 0.990785
vt 0.213765 0.990785
vt 0.213741 0.990785
vt 0.213601 0.990785
vt 0.215308 0.971703
vt 0.215277 0.972905
vt 0.215276 0.971703
vt 0.213739 0.990785
vt 0.213756 0.990785
vt 0.213627 0.990785
vt 0.213609 0.990785
vt 0.213652 0.990785
vt 0.213713 0.990785
vt 0.213603 0.990785
vt 0.213762 0.990785
vt 0.213631 0.990157
vt 0.213655 0.990157
vt 0.213756 0.990157
vt 0.213751 0.990157
vt 0.213609 0.990157
vt 0.213683 0.990157
vt 0.213711 0.990157
vt 0.213735 0.990157
vt 0.213615 0.990157
vt 0.215252 0.972905
vt 0.215240 0.972278
vt 0.215256 0.972278
vt 0.213745 0.976433
vt 0.213734 0.980899
vt 0.213749 0.980899
vt 0.213660 0.980899
vt 0.213683 0.980899
vt 0.213683 0.985366
vt 0.215257 0.963141
vt 0.215280 0.967486
vt 0.215256 0.967486
vt 0.213750 0.976433
vt 0.213755 0.980899
vt 0.213616 0.980899
vt 0.213616 0.976433
vt 0.213611 0.980899
vt 0.213634 0.979405
vt 0.213621 0.976433
vt 0.213711 0.985214
vt 0.213735 0.985214
vt 0.215308 0.963019
vt 0.215334 0.958553
vt 0.215336 0.963019
vt 0.213708 0.976433
vt 0.213710 0.980899
vt 0.213730 0.976433
vt 0.213657 0.976433
vt 0.213655 0.980899
vt 0.215356 0.958553
vt 0.215359 0.963019
vt 0.213655 0.985366
vt 0.213711 0.985366
vt 0.213750 0.985366
vt 0.213755 0.985357
vt 0.213698 0.985366
vt 0.213735 0.985366
vt 0.215376 0.967486
vt 0.215360 0.972278
vt 0.215360 0.967486
vt 0.213615 0.985366
vt 0.213609 0.985366
vt 0.213735 0.985517
vt 0.215323 0.967486
vt 0.215336 0.967637
vt 0.215336 0.972278
vt 0.213133 0.907334
vt 0.213140 0.907334
vt 0.215370 0.958553
vt 0.215375 0.963019
vt 0.213683 0.976433
vt 0.215258 0.963019
vt 0.215257 0.967486
vt 0.213630 0.987178
vt 0.215240 0.967486
vt 0.215236 0.963019
vt 0.215235 0.967486
vt 0.215381 0.967478
vt 0.215376 0.972278
vt 0.215382 0.972278
vt 0.215280 0.972278
vt 0.213635 0.976433
vt 0.213632 0.980780
vt 0.213629 0.980899
vt 0.213655 0.980780
vt 0.213636 0.976433
vt 0.213631 0.985366
vt 0.215360 0.967486
vt 0.233158 0.895213
vt 0.233178 0.891210
vt 0.233160 0.928720
vt 0.213713 0.984882
vt 0.213713 0.987140
vt 0.232774 0.895213
vt 0.232782 0.895213
vt 0.232779 0.923626
vt 0.232780 0.842096
vt 0.232771 0.842096
vt 0.232778 0.827755
vt 0.215277 0.967002
vt 0.215278 0.968916
vt 0.232470 0.889740
vt 0.232469 0.897353
vt 0.232470 0.895213
vt 0.232507 0.897353
vt 0.232507 0.893076
vt 0.232537 0.895213
vt 0.213608 0.985026
vt 0.232965 0.842096
vt 0.232974 0.842096
vt 0.232970 0.821504
vt 0.232974 0.895213
vt 0.232965 0.895213
vt 0.232970 0.908784
vt 0.213682 0.981302
vt 0.233436 0.834877
vt 0.233435 0.865346
vt 0.233441 0.842096
vt 0.232939 0.929254
vt 0.232939 0.864826
vt 0.232939 0.897045
vt 0.232907 0.864826
vt 0.232907 0.929273
vt 0.232890 0.897045
vt 0.213735 0.985366
vt 0.232802 0.874461
vt 0.232802 0.925740
vt 0.232798 0.899890
vt 0.232833 0.925740
vt 0.232833 0.874461
vt 0.232839 0.899890
vt 0.215254 0.963019
vt 0.213630 0.985366
vt 0.213631 0.980899
vt 0.213632 0.980899
vt 0.207906 0.849378
vt 0.207845 0.853444
vt 0.207845 0.848936
vt 0.207968 0.853444
vt 0.207968 0.848936
vt 0.207906 0.852934
vt 0.207906 0.848494
vt 0.207906 0.853954
vt 0.207845 0.859333
vt 0.207968 0.859333
vt 0.207906 0.858610
vt 0.207906 0.861620
vt 0.207906 0.860057
vt 0.207968 0.860818
vt 0.207845 0.860818
vt 0.207906 0.860017
vt 0.215239 0.958014
vt 0.215228 0.967002
vt 0.213601 0.981302
vt 0.213716 0.984612
vt 0.215278 0.959682
vt 0.215365 0.967002
vt 0.215339 0.970172
vt 0.215308 0.959682
vt 0.213652 0.981302
vt 0.215276 0.963422
vt 0.215366 0.963422
vt 0.213758 0.980816
vt 0.215388 0.970168
vt 0.213602 0.985026
vt 0.215380 0.959682
vt 0.215308 0.972905
vt 0.215235 0.972905
vt 0.213655 0.981021
vt 0.215281 0.963141
vt 0.215308 0.958553
vt 0.215360 0.967637
vt 0.213711 0.985517
vt 0.215308 0.972278
vt 0.215308 0.967486
vt 0.213114 0.907334
vt 0.213085 0.907334
vt 0.213051 0.907334
vt 0.213017 0.907334
vt 0.212988 0.907334
vt 0.212988 0.907334
vt 0.212968 0.907334
vt 0.212962 0.907334
vt 0.215281 0.963019
vt 0.215242 0.963019
vt 0.213631 0.985366
vt 0.233163 0.865307
vt 0.233374 0.842096
s 0
usemtl Texture_Map
f 63/1/1 29/2/1 53/3/1
f 66/4/2 22/5/2 60/6/2
f 13/7/3 64/8/3 54/9/3
f 6/10/4 67/11/4 61/12/4
f 14/13/5 71/14/5 64/8/5
f 7/15/6 75/16/6 67/11/6
f 15/17/7 77/18/7 71/14/7
f 8/19/8 81/20/8 75/16/8
f 86/21/9 19/22/9 18/23/9
f 16/24/10 84/20/10 77/18/10
f 10/24/11 81/20/11 9/25/11
f 3/26/12 87/16/12 2/19/12
f 11/17/13 91/18/13 10/24/13
f 4/10/14 94/27/14 3/26/14
f 12/13/15 98/14/15 11/17/15
f 5/28/16 102/12/16 4/10/16
f 60/6/17 21/29/17 58/30/17
f 50/1/18 29/2/18 28/31/18
f 19/22/19 47/32/19 18/23/19
f 93/4/20 20/5/20 19/22/20
f 90/33/21 27/34/21 26/35/21
f 2/19/22 84/20/22 1/25/22
f 80/36/23 26/35/23 25/37/23
f 85/36/24 18/23/24 17/37/24
f 85/36/25 32/35/25 76/33/25
f 80/38/26 24/39/26 74/40/26
f 76/33/27 31/34/27 70/41/27
f 74/21/28 23/22/28 66/4/28
f 70/41/29 30/31/29 63/1/29
f 5/42/30 61/43/30 57/44/30
f 101/6/31 21/29/31 20/5/31
f 97/41/32 28/31/32 27/34/32
f 104/45/33 205/46/33 103/47/33
f 205/48/34 62/49/34 209/50/34
f 104/45/35 57/44/35 59/51/35
f 50/1/36 99/52/36 52/53/36
f 52/53/37 100/54/37 51/55/37
f 100/54/38 49/8/38 51/55/38
f 101/6/39 95/56/39 103/57/39
f 103/57/40 96/58/40 104/49/40
f 96/58/41 102/12/41 104/49/41
f 196/59/42 92/60/42 100/54/42
f 83/61/43 196/59/43 82/62/43
f 92/60/44 98/14/44 100/54/44
f 93/63/45 88/64/45 95/65/45
f 95/56/46 89/66/46 96/58/46
f 89/67/47 94/68/47 96/69/47
f 197/70/48 97/71/48 198/72/48
f 83/73/49 91/74/49 92/75/49
f 77/18/50 213/76/50 79/60/50
f 213/76/51 84/20/51 87/16/51
f 78/77/52 214/78/52 216/79/52
f 78/80/53 212/81/53 214/82/53
f 216/83/54 215/84/54 88/85/54
f 200/86/55 83/61/55 82/62/55
f 68/56/56 203/87/56 199/88/56
f 67/89/57 204/90/57 69/91/57
f 70/41/58 78/80/58 76/33/58
f 72/52/59 79/60/59 78/80/59
f 79/75/60 71/92/60 77/74/60
f 201/93/61 200/86/61 82/62/61
f 204/94/62 75/16/62 81/20/62
f 63/1/63 72/52/63 70/41/63
f 219/95/64 64/8/64 71/14/64
f 217/96/65 54/9/65 64/8/65
f 210/97/66 62/49/66 69/98/66
f 69/98/67 61/12/67 67/11/67
f 63/99/68 55/100/68 65/101/68
f 65/53/69 220/102/69 219/95/69
f 101/6/70 103/57/70 207/103/70
f 60/104/71 208/105/71 210/106/71
f 62/49/72 57/107/72 61/12/72
f 50/1/73 55/108/73 53/3/73
f 55/108/74 51/55/74 56/109/74
f 51/110/75 54/111/75 56/112/75
f 13/7/76 49/8/76 12/13/76
f 27/34/19 39/113/19 26/35/19
f 20/5/19 46/114/19 19/22/19
f 28/31/19 38/115/19 27/34/19
f 21/29/19 45/116/19 20/5/19
f 29/2/19 37/117/19 28/31/19
f 21/29/19 43/116/19 44/118/19
f 29/2/19 35/117/19 36/119/19
f 22/5/19 42/114/19 43/116/19
f 30/31/19 34/115/19 35/117/19
f 23/22/19 41/32/19 42/114/19
f 31/34/19 33/113/19 34/115/19
f 24/23/19 40/37/19 41/32/19
f 18/23/19 48/37/19 17/37/19
f 32/35/19 48/37/19 33/113/19
f 26/35/19 40/37/19 25/37/19
f 47/32/77 118/120/77 119/121/77
f 46/114/78 117/122/78 118/120/78
f 48/37/79 119/121/79 120/123/79
f 34/115/80 107/124/80 35/117/80
f 48/37/81 105/125/81 33/113/81
f 35/117/82 108/126/82 36/119/82
f 33/113/83 106/127/83 34/115/83
f 43/116/84 116/128/84 44/118/84
f 39/113/85 110/127/85 111/125/85
f 37/117/86 108/126/86 109/124/86
f 40/129/87 113/130/87 41/131/87
f 41/32/88 114/120/88 42/114/88
f 40/37/89 111/125/89 112/123/89
f 38/115/90 109/124/90 110/127/90
f 45/116/91 116/128/91 117/122/91
f 42/114/92 115/122/92 43/116/92
f 107/124/93 122/132/93 123/133/93
f 115/122/93 130/134/93 131/135/93
f 119/121/93 136/123/93 120/123/93
f 109/124/93 126/132/93 110/127/93
f 118/120/93 135/136/93 119/121/93
f 111/125/93 128/123/93 112/123/93
f 117/122/93 134/134/93 118/120/93
f 106/127/93 121/137/93 122/132/93
f 116/128/93 131/135/93 132/138/93
f 116/128/93 133/135/93 117/122/93
f 108/126/93 125/133/93 109/124/93
f 113/121/93 128/123/93 129/136/93
f 108/126/93 123/133/93 124/139/93
f 114/120/93 129/136/93 130/134/93
f 105/125/93 136/123/93 121/137/93
f 110/127/93 127/137/93 111/125/93
f 135/136/94 150/140/94 151/141/94
f 125/133/95 140/142/95 141/143/95
f 122/132/96 139/143/96 123/133/96
f 131/135/97 148/144/97 132/138/97
f 129/136/98 146/140/98 130/134/98
f 136/123/99 151/141/99 152/145/99
f 136/123/100 137/146/100 121/137/100
f 128/123/101 143/146/101 144/145/101
f 121/137/102 138/147/102 122/132/102
f 133/135/103 148/144/103 149/148/103
f 128/123/104 145/141/104 129/136/104
f 123/133/105 140/142/105 124/139/105
f 127/137/106 142/147/106 143/146/106
f 126/132/107 141/143/107 142/147/107
f 130/134/108 147/148/108 131/135/108
f 134/149/109 149/150/109 150/151/109
f 171/152/110 188/153/110 190/154/110
f 232/155/111 164/156/111 165/157/111
f 228/158/112 194/159/112 193/160/112
f 170/161/113 190/154/113 183/162/113
f 191/163/114 178/164/114 155/165/114
f 238/166/115 177/167/115 191/163/115
f 224/168/116 159/153/116 222/169/116
f 164/170/117 167/171/117 166/172/117
f 173/173/118 163/156/118 160/174/118
f 166/174/119 168/175/119 159/153/119
f 178/164/120 158/163/120 155/165/120
f 163/156/121 175/176/121 154/177/121
f 186/154/122 170/161/122 183/162/122
f 172/178/123 160/172/123 188/179/123
f 162/157/124 154/177/124 153/180/124
f 144/145/125 153/180/125 145/141/125
f 160/174/126 162/157/126 161/181/126
f 185/182/127 183/162/127 184/183/127
f 161/181/128 144/145/128 143/146/128
f 139/143/129 184/183/129 140/142/129
f 166/174/130 224/168/130 226/184/130
f 188/153/131 161/181/131 187/185/131
f 185/186/132 138/187/132 223/188/132
f 187/185/133 143/146/133 142/147/133
f 155/165/134 157/189/134 156/190/134
f 194/180/135 152/145/135 151/141/135
f 137/146/136 221/191/136 138/147/136
f 156/190/137 149/148/137 148/144/137
f 226/192/138 225/193/138 137/194/138
f 171/195/93 170/196/93 169/195/93
f 4/10/19 3/26/19 7/15/19
f 159/179/139 169/197/139 186/198/139
f 182/199/140 232/155/140 181/176/140
f 153/159/141 237/200/141 233/201/141
f 235/202/142 192/189/142 147/148/142
f 147/148/143 156/190/143 148/144/143
f 192/203/144 155/204/144 156/205/144
f 184/206/145 141/207/145 140/208/145
f 183/162/146 189/182/146 184/183/146
f 193/160/147 151/209/147 150/151/147
f 180/210/148 227/211/148 229/212/148
f 157/189/149 150/140/149 149/148/149
f 180/210/150 231/213/150 227/211/150
f 175/176/151 176/214/151 238/166/151
f 153/180/152 233/215/152 235/202/152
f 189/182/153 142/147/153 141/143/153
f 190/198/154 187/216/154 189/186/154
f 195/217/155 197/218/155 198/219/155
f 82/62/156 195/220/156 198/221/156
f 199/222/157 200/223/157 201/224/157
f 202/225/158 203/226/158 204/227/158
f 199/222/159 202/225/159 200/223/159
f 68/65/160 199/228/160 201/229/160
f 205/230/161 206/231/161 207/232/161
f 208/233/162 209/234/162 210/235/162
f 209/234/163 206/231/163 205/230/163
f 58/30/164 208/236/164 60/6/164
f 211/237/165 212/238/165 213/239/165
f 214/240/166 215/241/166 216/242/166
f 211/237/167 214/240/167 212/238/167
f 88/85/168 211/243/168 89/66/168
f 218/244/169 220/245/169 217/246/169
f 56/109/170 217/96/170 220/102/170
f 221/247/171 222/248/171 223/249/171
f 224/250/172 225/251/172 226/252/172
f 224/250/173 221/247/173 225/251/173
f 186/154/174 223/253/174 159/153/174
f 227/254/175 228/255/175 229/256/175
f 230/257/176 231/258/176 232/259/176
f 231/258/177 228/255/177 227/254/177
f 229/260/178 228/158/178 193/160/178
f 233/215/179 234/261/179 235/202/179
f 236/262/180 237/263/180 238/166/180
f 233/215/181 236/262/181 234/261/181
f 234/261/182 191/163/182 192/189/182
f 239/264/183 246/265/183 242/266/183
f 244/267/184 239/264/184 240/268/184
f 245/269/185 240/268/185 241/270/185
f 242/266/186 245/269/186 241/270/186
f 243/271/187 250/272/187 246/265/187
f 248/273/188 243/271/188 244/267/188
f 249/274/189 244/267/189 245/269/189
f 246/265/190 249/274/190 245/269/190
f 251/275/191 250/272/191 247/276/191
f 248/273/192 251/275/192 247/276/192
f 249/274/193 252/277/193 248/273/193
f 254/278/194 249/274/194 250/272/194
f 255/264/195 262/265/195 259/271/195
f 255/264/196 260/267/196 256/268/196
f 256/268/197 261/269/197 257/270/197
f 258/266/198 261/269/198 262/265/198
f 259/271/199 266/272/199 263/276/199
f 259/271/200 264/273/200 260/267/200
f 260/267/201 265/274/201 261/269/201
f 262/265/202 265/274/202 266/272/202
f 266/272/203 251/275/203 263/276/203
f 264/273/204 251/275/204 252/277/204
f 265/274/205 252/277/205 253/279/205
f 265/274/206 254/278/206 266/272/206
f 63/1/207 30/31/207 29/2/207
f 66/4/2 23/22/2 22/5/2
f 13/7/208 14/13/208 64/8/208
f 6/10/209 7/15/209 67/11/209
f 14/13/5 15/17/5 71/14/5
f 7/15/210 8/19/210 75/16/210
f 15/17/7 16/24/7 77/18/7
f 8/19/8 9/25/8 81/20/8
f 86/21/9 93/4/9 19/22/9
f 16/24/10 1/25/10 84/20/10
f 10/24/11 91/18/11 81/20/11
f 3/26/12 94/27/12 87/16/12
f 11/17/13 98/14/13 91/18/13
f 4/10/14 102/12/14 94/27/14
f 12/13/15 49/8/15 98/14/15
f 5/28/211 57/107/211 102/12/211
f 60/6/17 22/5/17 21/29/17
f 50/1/212 53/3/212 29/2/212
f 19/22/19 46/114/19 47/32/19
f 93/4/20 101/6/20 20/5/20
f 90/33/21 97/41/21 27/34/21
f 2/19/22 87/16/22 84/20/22
f 80/36/23 90/33/23 26/35/23
f 85/36/24 86/21/24 18/23/24
f 85/36/25 17/37/25 32/35/25
f 80/38/26 25/129/26 24/39/26
f 76/33/27 32/35/27 31/34/27
f 74/21/28 24/23/28 23/22/28
f 70/41/29 31/34/29 30/31/29
f 5/42/213 6/280/213 61/43/213
f 101/6/31 58/30/31 21/29/31
f 97/41/32 50/1/32 28/31/32
f 59/51/214 205/46/214 104/45/214
f 205/46/215 207/281/215 103/47/215
f 205/48/216 59/282/216 62/49/216
f 104/45/35 102/43/35 57/44/35
f 50/1/36 97/41/36 99/52/36
f 52/53/37 99/52/37 100/54/37
f 100/54/38 98/14/38 49/8/38
f 101/6/39 93/4/39 95/56/39
f 103/57/40 95/56/40 96/58/40
f 96/58/41 94/27/41 102/12/41
f 100/54/217 99/52/217 197/283/217
f 197/283/218 196/59/218 100/54/218
f 92/60/43 196/59/43 83/61/43
f 196/59/219 195/220/219 82/62/219
f 92/60/44 91/18/44 98/14/44
f 93/63/45 86/40/45 88/64/45
f 95/56/46 88/85/46 89/66/46
f 89/67/47 87/284/47 94/68/47
f 99/285/220 97/71/220 197/70/220
f 97/71/221 90/286/221 198/72/221
f 83/73/49 81/287/49 91/74/49
f 84/20/50 213/76/50 77/18/50
f 213/76/50 212/81/50 79/60/50
f 87/16/51 89/66/51 213/76/51
f 89/66/222 211/243/222 213/76/222
f 216/79/52 85/38/52 76/286/52
f 76/286/52 78/77/52 216/79/52
f 78/80/53 79/60/53 212/81/53
f 88/85/223 86/21/223 216/83/223
f 86/21/223 85/36/223 216/83/223
f 200/86/224 202/288/224 83/61/224
f 68/56/225 69/98/225 203/87/225
f 75/284/226 204/90/226 67/89/226
f 204/90/227 203/289/227 69/91/227
f 70/41/58 72/52/58 78/80/58
f 72/52/59 73/54/59 79/60/59
f 79/75/60 73/290/60 71/92/60
f 82/62/228 80/36/228 201/93/228
f 80/36/228 74/21/228 201/93/228
f 81/20/62 83/61/62 204/94/62
f 83/61/229 202/288/229 204/94/229
f 63/1/63 65/53/63 72/52/63
f 71/14/64 73/54/64 219/95/64
f 219/95/64 218/291/64 64/8/64
f 64/8/230 218/291/230 217/96/230
f 217/96/231 56/109/231 54/9/231
f 69/98/232 68/56/232 210/97/232
f 210/97/233 209/50/233 62/49/233
f 69/98/234 62/49/234 61/12/234
f 63/99/235 53/292/235 55/100/235
f 73/54/236 72/52/236 219/95/236
f 72/52/236 65/53/236 219/95/236
f 206/293/70 58/30/70 207/103/70
f 58/30/70 101/6/70 207/103/70
f 68/65/71 66/63/71 210/106/71
f 66/63/71 60/104/71 210/106/71
f 62/49/72 59/282/72 57/107/72
f 50/1/237 52/53/237 55/108/237
f 55/108/238 52/53/238 51/55/238
f 51/110/239 49/294/239 54/111/239
f 13/7/240 54/9/240 49/8/240
f 27/34/19 38/115/19 39/113/19
f 20/5/19 45/116/19 46/114/19
f 28/31/19 37/117/19 38/115/19
f 21/29/19 44/118/19 45/116/19
f 29/2/19 36/119/19 37/117/19
f 21/29/19 22/5/19 43/116/19
f 29/2/19 30/31/19 35/117/19
f 22/5/19 23/22/19 42/114/19
f 30/31/19 31/34/19 34/115/19
f 23/22/19 24/23/19 41/32/19
f 31/34/19 32/35/19 33/113/19
f 24/23/19 25/37/19 40/37/19
f 18/23/19 47/32/19 48/37/19
f 32/35/19 17/37/19 48/37/19
f 26/35/19 39/113/19 40/37/19
f 47/32/77 46/114/77 118/120/77
f 46/114/78 45/116/78 117/122/78
f 48/37/79 47/32/79 119/121/79
f 34/115/80 106/127/80 107/124/80
f 48/37/81 120/123/81 105/125/81
f 35/117/241 107/124/241 108/126/241
f 33/113/83 105/125/83 106/127/83
f 43/116/84 115/122/84 116/128/84
f 39/113/85 38/115/85 110/127/85
f 37/117/242 36/119/242 108/126/242
f 40/129/87 112/295/87 113/130/87
f 41/32/88 113/121/88 114/120/88
f 40/37/89 39/113/89 111/125/89
f 38/115/90 37/117/90 109/124/90
f 45/116/91 44/118/91 116/128/91
f 42/114/92 114/120/92 115/122/92
f 107/124/93 106/127/93 122/132/93
f 115/122/93 114/120/93 130/134/93
f 119/121/93 135/136/93 136/123/93
f 109/124/93 125/133/93 126/132/93
f 118/120/93 134/134/93 135/136/93
f 111/125/93 127/137/93 128/123/93
f 117/122/93 133/135/93 134/134/93
f 106/127/93 105/125/93 121/137/93
f 116/128/93 115/122/93 131/135/93
f 116/128/93 132/138/93 133/135/93
f 108/126/93 124/139/93 125/133/93
f 113/121/93 112/123/93 128/123/93
f 108/126/93 107/124/93 123/133/93
f 114/120/93 113/121/93 129/136/93
f 105/125/93 120/123/93 136/123/93
f 110/127/93 126/132/93 127/137/93
f 135/136/94 134/134/94 150/140/94
f 125/133/95 124/139/95 140/142/95
f 122/132/96 138/147/96 139/143/96
f 131/135/97 147/148/97 148/144/97
f 129/136/98 145/141/98 146/140/98
f 136/123/99 135/136/99 151/141/99
f 136/123/100 152/145/100 137/146/100
f 128/123/101 127/137/101 143/146/101
f 121/137/102 137/146/102 138/147/102
f 133/135/103 132/138/103 148/144/103
f 128/123/104 144/145/104 145/141/104
f 123/133/105 139/143/105 140/142/105
f 127/137/106 126/132/106 142/147/106
f 126/132/107 125/133/107 141/143/107
f 130/134/108 146/140/108 147/148/108
f 134/149/109 133/296/109 149/150/109
f 171/152/110 172/175/110 188/153/110
f 165/157/111 194/180/111 232/155/111
f 194/180/111 230/297/111 232/155/111
f 228/158/112 230/298/112 194/159/112
f 170/161/243 171/152/243 190/154/243
f 191/163/114 177/167/114 178/164/114
f 191/163/244 236/262/244 238/166/244
f 238/166/245 176/214/245 177/167/245
f 224/168/116 166/174/116 159/153/116
f 164/170/117 182/299/117 167/171/117
f 173/173/118 174/199/118 163/156/118
f 166/174/119 167/173/119 168/175/119
f 178/164/120 179/167/120 158/163/120
f 163/156/121 174/199/121 175/176/121
f 186/154/246 169/152/246 170/161/246
f 172/178/123 173/171/123 160/172/123
f 162/157/124 163/156/124 154/177/124
f 144/145/247 162/157/247 153/180/247
f 160/174/126 163/156/126 162/157/126
f 185/182/248 186/154/248 183/162/248
f 161/181/249 162/157/249 144/145/249
f 139/143/250 185/182/250 184/183/250
f 226/184/130 165/157/130 164/156/130
f 164/156/130 166/174/130 226/184/130
f 188/153/131 160/174/131 161/181/131
f 139/207/251 138/187/251 185/186/251
f 138/187/252 221/300/252 223/188/252
f 187/185/253 161/181/253 143/146/253
f 155/165/134 158/163/134 157/189/134
f 194/180/254 165/157/254 152/145/254
f 137/146/255 225/301/255 221/191/255
f 156/190/256 157/189/256 149/148/256
f 137/194/257 152/302/257 226/192/257
f 152/302/258 165/303/258 226/192/258
f 169/195/93 168/304/93 172/304/93
f 168/304/93 167/305/93 173/305/93
f 167/305/93 182/306/93 173/305/93
f 182/306/93 181/307/93 174/306/93
f 173/305/93 182/306/93 174/306/93
f 181/307/93 180/308/93 176/309/93
f 180/308/93 179/310/93 176/309/93
f 176/309/93 179/310/93 177/310/93
f 179/310/93 178/311/93 177/310/93
f 176/309/93 175/307/93 181/307/93
f 175/307/93 174/306/93 181/307/93
f 173/305/93 172/304/93 168/304/93
f 172/304/93 171/195/93 169/195/93
f 3/26/19 2/19/19 7/15/19
f 2/19/19 1/25/19 9/25/19
f 1/25/19 16/24/19 10/24/19
f 16/24/19 15/17/19 11/17/19
f 15/17/19 14/13/19 12/13/19
f 14/13/19 13/7/19 12/13/19
f 12/13/19 11/17/19 15/17/19
f 11/17/19 10/24/19 16/24/19
f 10/24/19 9/25/19 1/25/19
f 9/25/19 8/19/19 2/19/19
f 8/19/19 7/15/19 2/19/19
f 7/15/19 6/10/19 4/10/19
f 6/10/19 5/28/19 4/10/19
f 159/179/139 168/178/139 169/197/139
f 164/156/140 232/155/140 182/199/140
f 232/155/259 231/213/259 181/176/259
f 153/159/260 154/312/260 237/200/260
f 147/148/261 146/140/261 235/202/261
f 235/202/262 234/261/262 192/189/262
f 147/148/263 192/189/263 156/190/263
f 192/203/144 191/313/144 155/204/144
f 184/206/264 189/186/264 141/207/264
f 183/162/265 190/154/265 189/182/265
f 193/160/266 194/159/266 151/209/266
f 229/212/267 158/163/267 179/167/267
f 179/167/267 180/210/267 229/212/267
f 157/189/268 193/314/268 150/140/268
f 180/210/150 181/176/150 231/213/150
f 237/263/269 154/177/269 238/166/269
f 154/177/270 175/176/270 238/166/270
f 146/140/271 145/141/271 235/202/271
f 145/141/272 153/180/272 235/202/272
f 189/182/273 187/185/273 142/147/273
f 190/198/154 188/179/154 187/216/154
f 195/217/274 196/315/274 197/218/274
f 198/221/275 90/33/275 80/36/275
f 80/36/275 82/62/275 198/221/275
f 199/222/159 203/226/159 202/225/159
f 201/229/160 74/40/160 66/63/160
f 66/63/160 68/65/160 201/229/160
f 209/234/276 208/233/276 206/231/276
f 58/30/164 206/293/164 208/236/164
f 211/237/167 215/241/167 214/240/167
f 88/85/277 215/84/277 211/243/277
f 218/244/278 219/316/278 220/245/278
f 220/102/279 65/53/279 55/108/279
f 55/108/280 56/109/280 220/102/280
f 224/250/281 222/248/281 221/247/281
f 185/182/174 223/253/174 186/154/174
f 223/253/174 222/169/174 159/153/174
f 231/258/177 230/257/177 228/255/177
f 193/160/178 157/203/178 229/260/178
f 157/203/178 158/313/178 229/260/178
f 233/215/282 237/263/282 236/262/282
f 234/261/283 236/262/283 191/163/283
f 239/264/284 243/271/284 246/265/284
f 244/267/285 243/271/285 239/264/285
f 245/269/286 244/267/286 240/268/286
f 242/266/287 246/265/287 245/269/287
f 243/271/288 247/276/288 250/272/288
f 248/273/289 247/276/289 243/271/289
f 249/274/290 248/273/290 244/267/290
f 246/265/291 250/272/291 249/274/291
f 251/275/292 254/278/292 250/272/292
f 248/273/293 252/277/293 251/275/293
f 249/274/294 253/279/294 252/277/294
f 254/278/295 253/279/295 249/274/295
f 255/264/296 258/266/296 262/265/296
f 255/264/297 259/271/297 260/267/297
f 256/268/298 260/267/298 261/269/298
f 258/266/299 257/270/299 261/269/299
f 259/271/300 262/265/300 266/272/300
f 259/271/301 263/276/301 264/273/301
f 260/267/302 264/273/302 265/274/302
f 262/265/303 261/269/303 265/274/303
f 266/272/304 254/278/304 251/275/304
f 264/273/305 263/276/305 251/275/305
f 265/274/306 264/273/306 252/277/306
f 265/274/307 253/279/307 254/278/307
