# Blender 4.4.0
# www.blender.org
mtllib Prop_Trash_Bag_01.mtl
o Prop_Trash_Bag_01
v 0.026306 0.572034 -0.008503
v -0.003819 0.593094 -0.044193
v -0.024573 0.594704 -0.033272
v -0.026142 0.594857 0.016501
v -0.007040 0.593378 0.026138
v 0.019842 0.591326 -0.030736
v -0.029062 0.569511 -0.036210
v -0.005154 0.567663 -0.048331
v -0.040606 0.570416 -0.013354
v -0.030875 0.569682 0.019032
v -0.008124 0.567927 0.030241
v 0.018815 0.565497 0.014403
v 0.030523 0.564976 -0.008128
v 0.021681 0.565653 -0.033435
v -0.028514 0.592128 -0.037188
v -0.003729 0.590212 -0.049756
v -0.040479 0.593065 -0.013494
v -0.030393 0.592305 0.020076
v -0.006837 0.590488 0.031697
v 0.021121 0.587966 0.015276
v 0.033258 0.587426 -0.008105
v 0.024092 0.588128 -0.034313
v -0.000753 0.524985 -0.142970
v -0.094605 0.525227 -0.103648
v -0.152836 0.520766 -0.030673
v -0.115949 0.504563 0.097759
v -0.018035 0.491411 0.140717
v 0.104198 0.485490 0.078218
v 0.149847 0.504535 -0.014435
v 0.096379 0.513753 -0.082239
v 0.110432 -0.000000 -0.077766
v 0.147403 -0.000000 -0.009240
v 0.099348 -0.000000 0.074785
v -0.014460 -0.000000 0.138655
v -0.103192 -0.000000 0.096706
v -0.144011 -0.000000 -0.021481
v -0.095940 -0.000000 -0.084823
v 0.000419 -0.000000 -0.116836
v 0.008276 0.177902 -0.289366
v -0.208738 0.176331 -0.200182
v -0.297269 0.175057 -0.055904
v -0.243479 0.164213 0.207622
v -0.030461 0.150736 0.271905
v 0.251059 0.148740 0.135049
v 0.295397 0.170198 -0.025359
v 0.245175 0.174170 -0.180342
v 0.173307 0.423844 -0.138168
v 0.232044 0.399218 -0.006501
v 0.188056 0.357299 0.133793
v -0.031459 0.346335 0.235117
v -0.208988 0.368969 0.169880
v -0.242590 0.406361 -0.045890
v -0.160567 0.427101 -0.177593
v 0.009595 0.438037 -0.234804
v -0.005238 0.574407 -0.044193
v -0.025992 0.576017 -0.033272
v -0.036374 0.576834 -0.012986
v -0.027561 0.576171 0.016501
v -0.008459 0.574692 0.026138
v 0.015672 0.572461 0.011453
v 0.018423 0.572639 -0.030736
v -0.034955 0.595521 -0.012986
v 0.017091 0.591147 0.011453
v 0.027725 0.590721 -0.008503
v 0.002239 0.644641 -0.089884
v -0.045343 0.648332 -0.064846
v -0.069146 0.650205 -0.018336
v -0.048941 0.648684 0.049269
v -0.005145 0.645293 0.071364
v 0.050181 0.640178 0.037697
v 0.074561 0.639201 -0.008057
v 0.056488 0.640587 -0.059032
v 0.006617 0.075352 -0.220929
v -0.179417 0.070979 -0.155692
v -0.267757 0.065322 -0.043677
v -0.205198 0.049865 0.171150
v -0.023256 0.039092 0.245529
v 0.207286 0.043046 0.132411
v 0.248396 0.061384 -0.019900
v 0.223889 0.068717 -0.141401
v -0.001872 0.574192 -0.014381
v -0.006375 0.574541 -0.012012
v -0.008627 0.574718 -0.007611
v -0.006715 0.574574 -0.001214
v -0.002571 0.574253 0.000877
v 0.002664 0.573769 -0.002309
v 0.004971 0.573677 -0.006638
v 0.003261 0.573808 -0.011462
v 0.070754 0.642690 -0.007980
v 0.053775 0.643993 -0.055867
v -0.004126 0.648413 0.066633
v 0.047849 0.643608 0.035004
v -0.064251 0.653028 -0.017635
v -0.045270 0.651599 0.045876
v 0.002811 0.647801 -0.084851
v -0.041890 0.651268 -0.061329
vn -0.8926 0.0021 -0.4509
vn 0.9370 -0.1138 -0.3304
vn 0.4990 -0.0842 0.8625
vn -0.9576 0.0071 0.2879
vn -0.4537 -0.0276 -0.8907
vn 0.4787 -0.0855 -0.8738
vn 0.8811 -0.1083 0.4603
vn -0.4442 -0.0318 0.8954
vn -0.1595 0.8735 0.4600
vn 0.3159 0.8660 0.3876
vn 0.4852 0.8429 0.2324
vn 0.5064 0.8480 -0.1565
vn 0.3045 0.8478 -0.4342
vn -0.1563 0.8901 -0.4282
vn -0.3782 0.8976 -0.2265
vn -0.4165 0.8974 0.1455
vn -0.3878 -0.8532 -0.3489
vn -0.1551 -0.9318 0.3281
vn 0.5220 -0.8521 0.0383
vn 0.2012 -0.7991 -0.5665
vn -0.1843 -0.7945 -0.5787
vn -0.3609 -0.9243 0.1246
vn 0.1841 -0.9211 0.3431
vn 0.4522 -0.8802 -0.1443
vn 0.9093 0.2226 0.3516
vn -0.2741 0.1764 0.9454
vn -0.8325 0.2188 -0.5089
vn 0.8879 0.3126 -0.3376
vn 0.4339 0.1364 0.8906
vn -0.9586 0.1990 0.2038
vn -0.3765 0.1546 -0.9134
vn 0.5117 0.1739 -0.8414
vn -0.7141 0.6067 -0.3492
vn -0.2755 0.5421 0.7939
vn 0.6852 0.5690 0.4546
vn 0.4459 0.6745 -0.5884
vn -0.2704 0.6887 -0.6727
vn -0.7435 0.6298 0.2249
vn 0.3956 0.5707 0.7196
vn 0.4561 0.8561 -0.2432
vn 0.3293 0.7505 0.5730
vn -0.4671 0.8506 0.2415
vn -0.1848 0.8755 -0.4465
vn 0.3569 0.8364 -0.4161
vn 0.4560 0.8004 0.3892
vn -0.1435 0.8062 0.5740
vn -0.3877 0.8858 -0.2552
vn 0.5847 0.7258 -0.3624
vn 0.6667 -0.6475 0.3691
vn -0.3985 -0.5941 0.6987
vn -0.7698 -0.5178 -0.3731
vn 0.6948 -0.6688 -0.2645
vn 0.3658 -0.6189 0.6951
vn -0.8338 -0.4981 0.2380
vn -0.4153 -0.5756 -0.7044
vn 0.3404 -0.6458 -0.6834
vn 0.9069 -0.2944 -0.3014
vn 0.4273 -0.1990 0.8819
vn -0.8970 -0.3750 0.2342
vn -0.2880 -0.4395 -0.8508
vn 0.3492 -0.5240 -0.7768
vn 0.9033 -0.3802 0.1988
vn -0.3797 -0.2358 0.8946
vn -0.7496 -0.2690 -0.6048
vn -0.0000 -1.0000 -0.0000
vn -0.6954 0.6680 0.2648
vn -0.3689 0.6123 -0.6993
vn 0.8072 0.5440 -0.2290
vn 0.4026 0.6195 0.6739
vn -0.3319 0.6633 0.6708
vn -0.6751 0.6363 -0.3733
vn 0.3927 0.6147 -0.6840
vn 0.7399 0.5711 0.3556
vn 0.0753 0.9971 0.0091
vn -0.4528 0.8510 -0.2660
vn -0.1929 0.8377 0.5109
vn 0.6420 0.6933 0.3273
vn 0.3566 0.7725 -0.5255
vn -0.2003 0.8399 -0.5045
vn -0.5105 0.8426 0.1715
vn 0.4086 0.7191 0.5622
vn 0.6576 0.7224 -0.2135
vn -0.8926 0.0022 -0.4508
vn 0.9369 -0.1134 -0.3307
vn 0.4993 -0.0848 0.8623
vn -0.4538 -0.0275 -0.8907
vn 0.8814 -0.1079 0.4600
vn -0.4437 -0.0325 0.8956
vn -0.1559 0.8821 0.4444
vn 0.3266 0.8434 0.4265
vn 0.4612 0.8577 0.2274
vn 0.5136 0.8435 -0.1570
vn 0.2993 0.8600 -0.4133
vn -0.1635 0.8749 -0.4559
vn -0.3672 0.9027 -0.2243
vn -0.4130 0.8993 0.1437
vn -0.4337 -0.8388 -0.3292
vn -0.1959 -0.9175 0.3462
vn 0.2882 -0.9433 0.1648
vn 0.1790 -0.8112 -0.5568
vn -0.1936 -0.7892 -0.5828
vn -0.4761 -0.8762 0.0756
vn 0.1970 -0.9154 0.3510
vn 0.4814 -0.8371 -0.2597
vn 0.9156 0.2783 0.2903
vn -0.3111 0.2227 0.9239
vn -0.8448 0.2067 -0.4936
vn 0.9161 0.2773 -0.2897
vn 0.4059 0.1709 0.8978
vn -0.9578 0.2183 0.1870
vn -0.3238 0.1958 -0.9256
vn 0.4066 0.2647 -0.8744
vn -0.5768 0.7022 -0.4173
vn -0.2181 0.5707 0.7916
vn 0.6795 0.6168 0.3973
vn 0.4040 0.7069 -0.5806
vn -0.2816 0.6807 -0.6762
vn -0.7708 0.5658 0.2928
vn 0.3453 0.4892 0.8009
vn 0.5239 0.8361 -0.1630
vn 0.3795 0.7746 0.5059
vn -0.4475 0.8810 0.1536
vn -0.1740 0.8712 -0.4591
vn 0.3006 0.8583 -0.4158
vn 0.5569 0.7819 0.2801
vn -0.1972 0.8319 0.5186
vn -0.4042 0.8820 -0.2424
vn 0.7746 0.5868 -0.2358
vn 0.8949 -0.3968 -0.2044
vn 0.4358 -0.1802 0.8818
vn -0.9540 -0.2360 0.1850
vn -0.3209 -0.5221 -0.7902
vn 0.3071 -0.3836 -0.8709
vn 0.9038 -0.3793 0.1983
vn -0.2893 -0.3774 0.8797
vn -0.7730 -0.4170 -0.4780
vn -0.6954 0.6680 0.2647
vn 0.7399 0.5711 0.3557
vn 0.0760 0.9971 -0.0026
vn 0.0827 0.9966 0.0022
vn 0.0547 0.9985 0.0078
vn 0.0851 0.9964 -0.0030
vn 0.0839 0.9964 -0.0134
vn -0.2003 0.8398 -0.5045
vt 0.839395 0.745998
vt 0.839785 0.751022
vt 0.839768 0.745789
vt 0.841407 0.744896
vt 0.841781 0.749934
vt 0.841692 0.744739
vt 0.840444 0.745422
vt 0.841389 0.750059
vt 0.840486 0.750643
vt 0.839709 0.745828
vt 0.839399 0.751239
vt 0.840586 0.750579
vt 0.840540 0.745361
vt 0.841485 0.750097
vt 0.841314 0.744860
vt 0.839725 0.751063
vt 0.840479 0.751312
vt 0.841259 0.750795
vt 0.841602 0.750697
vt 0.841347 0.750837
vt 0.840583 0.751246
vt 0.839913 0.751618
vt 0.839577 0.751808
vt 0.839862 0.751654
vt 0.834911 0.630424
vt 0.836054 0.613999
vt 0.832057 0.629115
vt 0.839955 0.623045
vt 0.837373 0.613999
vt 0.840239 0.613999
vt 0.847403 0.623960
vt 0.845468 0.613999
vt 0.848731 0.628204
vt 0.840920 0.631436
vt 0.844274 0.613999
vt 0.840720 0.613999
vt 0.837607 0.613999
vt 0.834078 0.625538
vt 0.843916 0.613999
vt 0.847939 0.629901
vt 0.846781 0.696681
vt 0.850249 0.653384
vt 0.848202 0.706381
vt 0.839690 0.694144
vt 0.832841 0.651999
vt 0.839722 0.648881
vt 0.832870 0.708034
vt 0.833963 0.654804
vt 0.831104 0.654509
vt 0.848627 0.654303
vt 0.846305 0.712080
vt 0.848817 0.648419
vt 0.833955 0.699382
vt 0.835520 0.712834
vt 0.840974 0.655167
vt 0.841016 0.715364
vt 0.835769 0.734509
vt 0.836961 0.730759
vt 0.840124 0.727716
vt 0.844072 0.726345
vt 0.845547 0.730753
vt 0.843820 0.732886
vt 0.840682 0.735485
vt 0.837650 0.735541
vt 0.841556 0.746373
vt 0.840433 0.746988
vt 0.839816 0.747330
vt 0.840537 0.746922
vt 0.841302 0.746513
vt 0.839531 0.747483
vt 0.842327 0.762142
vt 0.839125 0.764110
vt 0.838473 0.764462
vt 0.839242 0.764028
vt 0.843115 0.761915
vt 0.840540 0.763325
vt 0.840779 0.763174
vt 0.842531 0.762236
vt 0.842992 0.762723
vt 0.840812 0.746783
vt 0.840867 0.746753
vt 0.842252 0.762935
vt 0.840623 0.746886
vt 0.840573 0.764047
vt 0.838631 0.765115
vt 0.840490 0.746960
vt 0.840428 0.746994
vt 0.839353 0.764708
vt 0.840646 0.746872
vt 0.840797 0.763906
vt 0.842444 0.763024
vt 0.840793 0.746774
vt 0.839244 0.764785
vt 0.840500 0.746953
vt 0.841213 0.746471
vt 0.839867 0.747294
s 0
usemtl Texture_Map
f 9/1/1 15/2/1 7/3/1
f 14/4/2 21/5/2 13/6/2
f 11/7/3 20/8/3 19/9/3
f 10/10/4 17/11/4 9/1/4
f 7/3/5 16/12/5 8/13/5
f 8/13/6 22/14/6 14/4/6
f 13/6/7 20/8/7 12/15/7
f 10/10/8 19/9/8 18/16/8
f 5/17/9 18/16/9 19/9/9
f 5/17/10 20/8/10 63/18/10
f 64/19/11 20/8/11 21/5/11
f 64/19/12 22/14/12 6/20/12
f 2/21/13 22/14/13 16/12/13
f 2/21/14 15/2/14 3/22/14
f 62/23/15 15/2/15 17/11/15
f 4/24/16 17/11/16 18/16/16
f 74/25/17 36/26/17 75/27/17
f 77/28/18 35/29/18 34/30/18
f 78/31/19 32/32/19 79/33/19
f 73/34/20 31/35/20 38/36/20
f 73/34/21 37/37/21 74/25/21
f 76/38/22 36/26/22 35/29/22
f 77/28/23 33/39/23 78/31/23
f 79/33/24 31/35/24 80/40/24
f 49/41/25 45/42/25 48/43/25
f 50/44/26 42/45/26 43/46/26
f 52/47/27 40/48/27 41/49/27
f 48/43/28 46/50/28 47/51/28
f 49/41/29 43/46/29 44/52/29
f 51/53/30 41/49/30 42/45/30
f 53/54/31 39/55/31 40/48/31
f 47/51/32 39/55/32 54/56/32
f 25/57/33 53/54/33 52/47/33
f 26/58/34 50/44/34 27/59/34
f 28/60/35 48/43/35 29/61/35
f 30/62/36 54/56/36 23/63/36
f 24/64/37 54/56/37 53/54/37
f 26/58/38 52/47/38 51/53/38
f 27/59/39 49/41/39 28/60/39
f 30/62/40 1/65/40 29/61/40
f 28/60/41 59/66/41 27/59/41
f 58/67/42 25/57/42 26/58/42
f 24/64/43 55/68/43 23/63/43
f 23/63/44 61/69/44 30/62/44
f 1/65/45 28/60/45 29/61/45
f 59/66/46 26/58/46 27/59/46
f 57/70/47 24/64/47 25/57/47
f 29/61/48 47/51/48 30/62/48
f 64/19/49 70/71/49 63/18/49
f 5/17/50 68/72/50 4/24/50
f 3/22/51 67/73/51 66/74/51
f 6/20/52 71/75/52 64/19/52
f 5/17/53 70/71/53 69/76/53
f 4/24/54 67/73/54 62/23/54
f 2/21/55 66/74/55 65/77/55
f 2/21/56 72/78/56 6/20/56
f 45/42/57 80/40/57 46/50/57
f 43/46/58 78/31/58 44/52/58
f 42/45/59 75/27/59 76/38/59
f 40/48/60 73/34/60 74/25/60
f 46/50/61 73/34/61 39/55/61
f 44/52/62 79/33/62 45/42/62
f 43/46/63 76/38/63 77/28/63
f 41/49/64 74/25/64 75/27/64
f 38/36/65 33/39/65 35/29/65
f 89/79/66 88/80/66 87/81/66
f 92/82/67 85/83/67 91/84/67
f 93/85/68 84/86/68 83/87/68
f 96/88/69 81/89/69 95/90/69
f 90/91/70 81/89/70 88/80/70
f 92/82/71 87/81/71 86/92/71
f 94/93/72 85/83/72 84/86/72
f 93/85/73 82/94/73 96/88/73
f 86/92/74 88/80/74 82/94/74
f 67/73/75 96/88/75 66/74/75
f 69/76/76 94/93/76 68/72/76
f 70/71/77 89/79/77 92/82/77
f 72/78/78 95/90/78 90/91/78
f 66/74/79 95/90/79 65/77/79
f 67/73/80 94/93/80 93/85/80
f 70/71/81 91/84/81 69/76/81
f 71/75/82 90/91/82 89/79/82
f 9/1/83 17/11/83 15/2/83
f 14/4/84 22/14/84 21/5/84
f 11/7/85 12/15/85 20/8/85
f 10/10/4 18/16/4 17/11/4
f 7/3/86 15/2/86 16/12/86
f 8/13/6 16/12/6 22/14/6
f 13/6/87 21/5/87 20/8/87
f 10/10/88 11/7/88 19/9/88
f 5/17/89 4/24/89 18/16/89
f 5/17/90 19/9/90 20/8/90
f 64/19/91 63/18/91 20/8/91
f 64/19/92 21/5/92 22/14/92
f 2/21/93 6/20/93 22/14/93
f 2/21/94 16/12/94 15/2/94
f 62/23/95 3/22/95 15/2/95
f 4/24/96 62/23/96 17/11/96
f 74/25/97 37/37/97 36/26/97
f 77/28/98 76/38/98 35/29/98
f 78/31/99 33/39/99 32/32/99
f 73/34/100 80/40/100 31/35/100
f 73/34/101 38/36/101 37/37/101
f 76/38/102 75/27/102 36/26/102
f 77/28/103 34/30/103 33/39/103
f 79/33/104 32/32/104 31/35/104
f 49/41/105 44/52/105 45/42/105
f 50/44/106 51/53/106 42/45/106
f 52/47/107 53/54/107 40/48/107
f 48/43/108 45/42/108 46/50/108
f 49/41/109 50/44/109 43/46/109
f 51/53/110 52/47/110 41/49/110
f 53/54/111 54/56/111 39/55/111
f 47/51/112 46/50/112 39/55/112
f 25/57/113 24/64/113 53/54/113
f 26/58/114 51/53/114 50/44/114
f 28/60/115 49/41/115 48/43/115
f 30/62/116 47/51/116 54/56/116
f 24/64/117 23/63/117 54/56/117
f 26/58/118 25/57/118 52/47/118
f 27/59/119 50/44/119 49/41/119
f 30/62/120 61/69/120 1/65/120
f 28/60/121 60/95/121 59/66/121
f 58/67/122 57/70/122 25/57/122
f 24/64/123 56/96/123 55/68/123
f 23/63/124 55/68/124 61/69/124
f 1/65/125 60/95/125 28/60/125
f 59/66/126 58/67/126 26/58/126
f 57/70/127 56/96/127 24/64/127
f 29/61/128 48/43/128 47/51/128
f 64/19/49 71/75/49 70/71/49
f 5/17/50 69/76/50 68/72/50
f 3/22/51 62/23/51 67/73/51
f 6/20/52 72/78/52 71/75/52
f 5/17/53 63/18/53 70/71/53
f 4/24/54 68/72/54 67/73/54
f 2/21/55 3/22/55 66/74/55
f 2/21/56 65/77/56 72/78/56
f 45/42/129 79/33/129 80/40/129
f 43/46/130 77/28/130 78/31/130
f 42/45/131 41/49/131 75/27/131
f 40/48/132 39/55/132 73/34/132
f 46/50/133 80/40/133 73/34/133
f 44/52/134 78/31/134 79/33/134
f 43/46/135 42/45/135 76/38/135
f 41/49/136 40/48/136 74/25/136
f 37/37/65 38/36/65 35/29/65
f 38/36/65 31/35/65 33/39/65
f 31/35/65 32/32/65 33/39/65
f 33/39/65 34/30/65 35/29/65
f 35/29/65 36/26/65 37/37/65
f 89/79/137 90/91/137 88/80/137
f 92/82/67 86/92/67 85/83/67
f 93/85/68 94/93/68 84/86/68
f 96/88/69 82/94/69 81/89/69
f 90/91/70 95/90/70 81/89/70
f 92/82/71 89/79/71 87/81/71
f 94/93/72 91/84/72 85/83/72
f 93/85/138 83/87/138 82/94/138
f 81/89/139 82/94/139 88/80/139
f 82/94/140 83/87/140 86/92/140
f 88/80/141 86/92/141 87/81/141
f 83/87/142 84/86/142 86/92/142
f 84/86/143 85/83/143 86/92/143
f 67/73/75 93/85/75 96/88/75
f 69/76/76 91/84/76 94/93/76
f 70/71/77 71/75/77 89/79/77
f 72/78/78 65/77/78 95/90/78
f 66/74/144 96/88/144 95/90/144
f 67/73/80 68/72/80 94/93/80
f 70/71/81 92/82/81 91/84/81
f 71/75/82 72/78/82 90/91/82
