# Blender 4.4.0
# www.blender.org
mtllib Prop_Letterbox_04.mtl
o Prop_Letterbox_04
v -0.054868 0.000000 0.054868
v 0.054868 0.000000 0.054868
v -0.054868 0.000000 -0.054868
v 0.054868 0.000000 -0.054868
v -0.054868 1.443185 -0.054868
v -0.054868 1.443185 0.054868
v 0.054868 1.443185 0.054868
v 0.054868 1.443185 -0.054868
v -0.032454 0.971885 0.054868
v 0.032455 0.971885 0.054868
v -0.032454 1.041400 0.054868
v 0.032455 1.041400 0.054868
v -0.032454 1.041400 0.464252
v -0.032454 0.971885 0.464252
v 0.032455 0.971885 0.464252
v 0.032455 1.041400 0.464252
v -0.026879 0.737363 0.051057
v 0.026880 0.737363 0.051057
v -0.026879 0.813869 0.051057
v 0.026880 0.813869 0.051057
v -0.026879 0.979862 0.282806
v -0.026879 0.977152 0.408883
v 0.026880 0.977152 0.408883
v 0.026880 0.979862 0.282806
v 0.137651 1.211601 0.486832
v 0.000000 1.324729 0.486832
v 0.140247 1.215085 0.486832
v 0.140247 1.215085 0.052598
v 0.000000 1.324729 0.052598
v 0.137651 1.211601 0.414459
v 0.137651 1.211601 0.342087
v 0.137651 1.211601 0.269715
v 0.137651 1.211601 0.197342
v 0.137651 1.211601 0.124970
v 0.000000 1.321246 0.414459
v 0.000000 1.321246 0.342087
v 0.000000 1.321246 0.269715
v 0.000000 1.321246 0.197342
v 0.000000 1.321246 0.124970
v 0.140247 1.215085 0.413491
v 0.140247 1.215085 0.415428
v 0.140247 1.215085 0.341119
v 0.140247 1.215085 0.343055
v 0.140247 1.215085 0.268746
v 0.140247 1.215085 0.270683
v 0.140247 1.215085 0.196374
v 0.140247 1.215085 0.198311
v 0.140247 1.215085 0.124002
v 0.140247 1.215085 0.125938
v 0.000000 1.324729 0.415428
v 0.000000 1.324729 0.413491
v 0.000000 1.324729 0.343055
v 0.000000 1.324729 0.341119
v 0.000000 1.324729 0.270683
v 0.000000 1.324729 0.268746
v 0.000000 1.324729 0.198311
v 0.000000 1.324729 0.196374
v 0.000000 1.324729 0.125938
v 0.000000 1.324729 0.124002
v -0.140247 1.215085 0.486832
v -0.140247 1.215085 0.052598
v -0.137651 1.211601 0.414459
v -0.137651 1.211601 0.342087
v -0.137651 1.211601 0.269715
v -0.137651 1.211601 0.197342
v -0.137651 1.211601 0.124970
v -0.140247 1.215085 0.413491
v -0.140247 1.215085 0.415428
v -0.140247 1.215085 0.341119
v -0.140247 1.215085 0.343055
v -0.140247 1.215085 0.268746
v -0.140247 1.215085 0.270683
v -0.140247 1.215085 0.196374
v -0.140247 1.215085 0.198311
v -0.140247 1.215085 0.124002
v -0.140247 1.215085 0.125938
v 0.137651 1.211601 0.052598
v 0.000000 1.321246 0.486832
v 0.000000 1.321246 0.052598
v -0.137651 1.211601 0.486832
v -0.137651 1.211601 0.052598
v -0.116513 1.047164 0.464252
v 0.116513 1.047164 0.464252
v -0.116513 1.047164 0.054868
v 0.116513 1.047164 0.054868
v -0.116513 1.215896 0.054868
v -0.116513 1.215896 0.464252
v 0.116513 1.215896 0.464252
v 0.116513 1.215896 0.054868
v 0.000790 1.047164 0.464252
v -0.000790 1.047164 0.464252
v -0.000790 1.047164 0.054868
v 0.000790 1.047164 0.054868
v -0.000790 1.312503 0.464252
v 0.000790 1.312503 0.464252
v 0.000790 1.312503 0.054868
v -0.000790 1.312503 0.054868
v 0.039628 1.047164 0.464252
v 0.038048 1.047164 0.464252
v 0.078465 1.047164 0.464252
v 0.076885 1.047164 0.464252
v 0.038048 1.281400 0.464252
v 0.039628 1.280081 0.464252
v 0.076885 1.248978 0.464252
v 0.078465 1.247659 0.464252
v -0.076886 1.047164 0.464252
v -0.078466 1.047164 0.464252
v -0.038048 1.047164 0.464252
v -0.039628 1.047164 0.464252
v -0.078466 1.247659 0.464252
v -0.076886 1.248978 0.464252
v -0.039628 1.280081 0.464252
v -0.038048 1.281400 0.464252
v 0.076885 1.047164 0.054868
v 0.078465 1.047164 0.054868
v 0.038048 1.047164 0.054868
v 0.039628 1.047164 0.054868
v 0.078465 1.247659 0.054868
v 0.076885 1.248978 0.054868
v 0.039628 1.280081 0.054868
v 0.038048 1.281400 0.054868
v -0.039628 1.047164 0.054868
v -0.038048 1.047164 0.054868
v -0.078466 1.047164 0.054868
v -0.076886 1.047164 0.054868
v -0.038048 1.281400 0.054868
v -0.039628 1.280081 0.054868
v -0.076886 1.248978 0.054868
v -0.078466 1.247659 0.054868
v -0.116513 1.047164 0.458252
v 0.116513 1.047164 0.458252
v -0.116513 1.047164 0.060868
v 0.116513 1.047164 0.060868
v -0.116513 1.215896 0.060868
v 0.116513 1.215896 0.458252
v 0.116513 1.215896 0.060868
v -0.000000 1.047164 0.458252
v -0.000000 1.047164 0.060868
v -0.000000 1.312503 0.458252
v -0.000000 1.312503 0.060868
v 0.038838 1.047164 0.458252
v 0.077675 1.047164 0.458252
v 0.038838 1.280741 0.458252
v 0.077675 1.248319 0.458252
v -0.077676 1.047164 0.458252
v -0.038838 1.047164 0.458252
v -0.077676 1.248319 0.458252
v -0.038838 1.280741 0.458252
v 0.077675 1.047164 0.060868
v 0.038838 1.047164 0.060868
v 0.077675 1.248319 0.060868
v 0.038838 1.280741 0.060868
v -0.038838 1.047164 0.060868
v -0.077676 1.047164 0.060868
v -0.038838 1.280741 0.060868
v -0.077676 1.248319 0.060868
v 0.038838 1.222735 0.458252
v 0.000790 1.222735 0.464252
v -0.000790 1.222735 0.464252
v 0.038048 1.222735 0.464252
v 0.039628 1.222735 0.464252
v 0.061088 1.222735 0.464252
v 0.061088 1.222735 0.458252
v -0.000000 1.222735 0.458252
v -0.061087 1.222735 0.458252
v -0.038838 1.222735 0.458252
v -0.038048 1.222735 0.464252
v -0.061087 1.222735 0.464252
v -0.039628 1.222735 0.464252
v -0.061087 1.053362 0.458252
v -0.061087 1.053362 0.464252
v 0.061088 1.053362 0.464252
v 0.061088 1.053362 0.458252
v -0.000000 1.053362 0.458252
v 0.038838 1.053362 0.458252
v 0.038048 1.053362 0.464252
v 0.039628 1.053362 0.464252
v -0.038838 1.053362 0.458252
v 0.000790 1.053362 0.464252
v -0.000790 1.053362 0.464252
v -0.038048 1.053362 0.464252
v -0.039628 1.053362 0.464252
v 0.127733 1.206530 0.484562
v 0.127733 1.206530 0.054868
v 0.000000 1.313163 0.484562
v 0.000000 1.313163 0.054868
v 0.133871 1.214612 0.484562
v 0.133871 1.214612 0.054868
v 0.000000 1.321246 0.484562
v 0.000000 1.321246 0.054868
v -0.127733 1.206530 0.484562
v -0.127733 1.206530 0.054868
v -0.133871 1.214612 0.484562
v -0.133871 1.214612 0.054868
v -0.117215 1.041400 0.465891
v 0.117215 1.041400 0.465891
v -0.117215 1.041400 0.053229
v 0.117215 1.041400 0.053229
v -0.117215 1.047400 0.465891
v 0.117215 1.047400 0.465891
v -0.117215 1.047400 0.053229
v 0.117215 1.047400 0.053229
v 0.110513 1.047400 0.458252
v 0.110513 1.222078 0.060868
v -0.116513 1.047400 0.458252
v 0.116513 1.047400 0.458252
v -0.116513 1.047400 0.060868
v 0.116513 1.047400 0.060868
v -0.116513 1.215896 0.458252
v 0.116513 1.047400 0.391237
v 0.116513 1.047400 0.392806
v 0.116513 1.047400 0.325006
v 0.116513 1.047400 0.326575
v 0.116513 1.047400 0.258776
v 0.116513 1.047400 0.260344
v 0.116513 1.047400 0.192545
v 0.116513 1.047400 0.194114
v 0.116513 1.047400 0.126315
v 0.116513 1.047400 0.127883
v 0.116513 1.215896 0.392806
v 0.116513 1.215896 0.391237
v 0.116513 1.215896 0.326575
v 0.116513 1.215896 0.325006
v 0.116513 1.215896 0.260344
v 0.116513 1.215896 0.258776
v 0.116513 1.215896 0.194114
v 0.116513 1.215896 0.192545
v 0.116513 1.215896 0.127883
v 0.116513 1.215896 0.126315
v -0.116513 1.047400 0.127883
v -0.116513 1.047400 0.126315
v -0.116513 1.047400 0.194114
v -0.116513 1.047400 0.192545
v -0.116513 1.047400 0.260344
v -0.116513 1.047400 0.258776
v -0.116513 1.047400 0.326575
v -0.116513 1.047400 0.325006
v -0.116513 1.047400 0.392806
v -0.116513 1.047400 0.391237
v -0.116513 1.215896 0.126315
v -0.116513 1.215896 0.127883
v -0.116513 1.215896 0.192545
v -0.116513 1.215896 0.194114
v -0.116513 1.215896 0.258776
v -0.116513 1.215896 0.260344
v -0.116513 1.215896 0.325006
v -0.116513 1.215896 0.326575
v -0.116513 1.215896 0.391237
v -0.116513 1.215896 0.392806
v -0.110513 1.047400 0.060868
v 0.110513 1.047400 0.060868
v -0.110513 1.222078 0.458252
v 0.110513 1.222078 0.458252
v 0.110513 1.047400 0.392021
v 0.110513 1.047400 0.325791
v 0.110513 1.047400 0.259560
v 0.110513 1.047400 0.193330
v 0.110513 1.047400 0.127099
v 0.110513 1.222078 0.392021
v 0.110513 1.222078 0.325791
v 0.110513 1.222078 0.259560
v 0.110513 1.222078 0.193330
v 0.110513 1.222078 0.127099
v -0.110513 1.047400 0.127099
v -0.110513 1.047400 0.193330
v -0.110513 1.047400 0.259560
v -0.110513 1.047400 0.325791
v -0.110513 1.047400 0.392021
v -0.110513 1.222078 0.127099
v -0.110513 1.222078 0.193330
v -0.110513 1.222078 0.259560
v -0.110513 1.222078 0.325791
v -0.110513 1.222078 0.392021
v -0.110513 1.047400 0.458252
v -0.110513 1.222078 0.060868
vn -0.0000 1.0000 -0.0000
vn 1.0000 -0.0000 -0.0000
vn -1.0000 -0.0000 -0.0000
vn -0.0000 -0.0000 1.0000
vn -0.0000 -1.0000 -0.0000
vn -0.0000 -0.8307 0.5567
vn -0.0000 0.8130 -0.5823
vn -0.0000 -0.0000 -1.0000
vn 0.6159 0.7878 -0.0000
vn 0.8019 -0.5974 -0.0000
vn 0.2049 0.2621 0.9430
vn 0.1356 0.1702 -0.9760
vn -0.6159 0.7878 -0.0000
vn -0.8019 -0.5974 -0.0000
vn -0.2049 0.2621 0.9430
vn -0.2049 0.2621 -0.9430
vn 0.6230 -0.7822 -0.0000
vn -0.6230 -0.7822 -0.0000
vn -0.9914 -0.0000 0.1305
vn 0.9914 -0.0000 0.1305
vn 0.9914 -0.0000 -0.1305
vn -0.9914 -0.0000 -0.1305
vn -0.6409 -0.7677 -0.0000
vn 0.6230 0.7822 -0.0000
vn 0.7964 -0.6048 -0.0000
vn 0.6409 -0.7677 -0.0000
vn -0.6230 0.7822 -0.0000
vn -0.7964 -0.6048 -0.0000
vn -0.0001 -0.0000 -1.0000
vn 0.1296 -0.0000 0.9916
vn 0.1296 -0.0000 -0.9916
vn -0.1296 -0.0000 -0.9916
vn -0.1296 -0.0000 0.9916
vn 0.7176 0.6965 -0.0000
vn -0.7176 0.6965 -0.0000
vn 0.1356 0.1702 0.9760
vn 0.2049 0.2621 -0.9430
vn -0.1356 0.1702 0.9760
vn -0.1356 0.1702 -0.9760
vn -0.0001 -0.0000 1.0000
vn 0.0001 -0.0000 -1.0000
vt 0.233085 0.862098
vt 0.233120 0.862098
vt 0.233085 0.821318
vt 0.233120 0.821318
vt 0.233092 0.848780
vt 0.233113 0.850745
vt 0.233113 0.848780
vt 0.233092 0.850745
vt 0.233094 0.842153
vt 0.233111 0.848929
vt 0.233111 0.842153
vt 0.233094 0.849006
vt 0.233094 0.848929
vt 0.233111 0.849006
vt 0.233111 0.844315
vt 0.233094 0.844315
vt 0.444479 0.941334
vt 0.443036 0.870395
vt 0.443062 0.868067
vt 0.444479 0.941334
vt 0.443036 0.870395
vt 0.444479 0.943662
vt 0.455332 0.868013
vt 0.456293 0.916790
vt 0.443062 0.868067
vt 0.444479 0.943662
vt 0.450745 0.897306
vt 0.451793 0.950505
vt 0.456293 0.916790
vt 0.445922 0.870395
vt 0.445896 0.868067
vt 0.445922 0.870395
vt 0.445896 0.868067
vt 0.452841 0.897306
vt 0.457254 0.868013
vt 0.098637 0.894749
vt 0.098428 0.934994
vt 0.098428 0.894749
vt 0.086336 0.918939
vt 0.086132 0.920418
vt 0.086132 0.918939
vt 0.086123 0.918939
vt 0.085919 0.974809
vt 0.086123 0.982228
vt 0.086336 0.974809
vt 0.073419 0.961040
vt 0.073531 0.982672
vt 0.073419 0.986745
vt 0.072962 0.961040
vt 0.073008 0.983549
vt 0.072962 0.986914
vt 0.086557 0.918939
vt 0.086766 0.959185
vt 0.086766 0.918939
vt 0.099284 0.894749
vt 0.099488 0.942885
vt 0.099488 0.894749
vt 0.073071 0.961040
vt 0.073071 0.990901
vt 0.099401 0.936626
vt 0.099401 0.896227
vt 0.098637 0.942570
vt 0.085919 0.920418
vt 0.085919 0.918939
vt 0.085489 0.959185
vt 0.085702 0.918939
vt 0.085489 0.918939
vt 0.086127 0.920418
vt 0.086340 0.918939
vt 0.086127 0.918939
vt 0.096491 0.813320
vt 0.096399 0.837504
vt 0.096399 0.813320
vt 0.096583 0.837504
vt 0.096583 0.813320
vt 0.086553 0.918939
vt 0.085793 0.960816
vt 0.085793 0.920418
vt 0.096768 0.830790
vt 0.096676 0.813320
vt 0.096768 0.813320
vt 0.096676 0.834147
vt 0.096306 0.834147
vt 0.096306 0.813320
vt 0.086462 0.960816
vt 0.086553 0.966918
vt 0.096214 0.830790
vt 0.096214 0.813320
vt 0.085915 0.920418
vt 0.085915 0.918939
vt 0.086123 0.960816
vt 0.086127 0.982228
vt 0.086132 0.982228
vt 0.086344 0.920418
vt 0.086344 0.918939
vt 0.086336 0.960816
vt 0.086340 0.974651
vt 0.086557 0.966761
vt 0.086549 0.918939
vt 0.086549 0.967076
vt 0.085706 0.918939
vt 0.085702 0.966918
vt 0.085697 0.966761
vt 0.085910 0.974494
vt 0.085915 0.960816
vt 0.085915 0.974651
vt 0.086344 0.974494
vt 0.085910 0.918939
vt 0.085697 0.918939
vt 0.085706 0.967076
vt 0.085910 0.960816
vt 0.086344 0.960816
vt 0.086340 0.960816
vt 0.086132 0.960816
vt 0.086127 0.960816
vt 0.085919 0.960816
vt 0.086462 0.920418
vt 0.085910 0.920418
vt 0.086340 0.920418
vt 0.099062 0.936626
vt 0.098858 0.950618
vt 0.098858 0.936626
vt 0.086336 0.920418
vt 0.086123 0.920418
vt 0.468056 0.850684
vt 0.466486 0.816877
vt 0.466411 0.819439
vt 0.468056 0.853246
vt 0.468056 0.850684
vt 0.466411 0.819439
vt 0.469625 0.816877
vt 0.469700 0.819439
vt 0.469700 0.819439
vt 0.470564 0.833958
vt 0.467684 0.833959
vt 0.470564 0.833959
vt 0.099590 0.816550
vt 0.100840 0.816550
vt 0.470564 0.835861
vt 0.467684 0.833958
vt 0.467684 0.835861
vt 0.470564 0.835861
vt 0.467684 0.835861
vt 0.096754 0.813344
vt 0.096754 0.831430
vt 0.085489 0.918995
vt 0.099705 0.894805
vt 0.099705 0.934994
vt 0.073531 0.961070
vt 0.098428 0.894805
vt 0.072845 0.961070
vt 0.072845 0.982672
vt 0.086766 0.918995
vt 0.086733 0.918995
vt 0.086733 0.960660
vt 0.085522 0.918995
vt 0.085522 0.960660
vt 0.096228 0.831430
vt 0.096228 0.813344
vt 0.073531 0.961040
vt 0.073008 0.961835
vt 0.073071 0.961835
vt 0.073071 0.983549
vt 0.099284 0.950303
vt 0.099284 0.896227
vt 0.099284 0.936626
vt 0.096491 0.840793
vt 0.099062 0.958037
s 0
usemtl Texture_Map
f 7/1/1 5/2/1 6/2/1
f 4/3/2 7/1/2 2/3/2
f 1/4/3 5/2/3 3/4/3
f 2/3/4 6/2/4 1/4/4
f 15/5/4 13/6/4 14/7/4
f 10/5/5 14/7/5 9/7/5
f 12/8/2 15/5/2 10/5/2
f 9/7/3 13/6/3 11/6/3
f 18/9/6 22/10/6 17/11/6
f 18/9/2 24/12/2 23/13/2
f 17/11/3 21/14/3 19/15/3
f 19/15/7 24/12/7 20/16/7
f 3/4/8 8/1/8 4/3/8
f 79/17/8 28/18/8 77/19/8
f 78/20/4 27/21/4 26/22/4
f 41/23/9 26/24/9 27/23/9
f 25/25/10 41/18/10 27/21/10
f 77/19/10 48/18/10 34/19/10
f 43/18/9 51/26/9 40/18/9
f 45/27/9 53/28/9 42/27/9
f 47/23/9 55/29/9 44/23/9
f 49/23/9 57/29/9 46/23/9
f 28/27/9 59/28/9 48/27/9
f 30/19/10 43/18/10 40/18/10
f 32/19/10 42/18/10 31/19/10
f 33/19/10 44/18/10 32/19/10
f 34/19/10 46/18/10 33/19/10
f 35/17/11 40/18/11 51/26/11
f 35/17/12 41/18/12 30/19/12
f 36/17/11 42/18/11 53/26/11
f 36/17/12 43/18/12 31/19/12
f 37/17/11 44/18/11 55/26/11
f 37/17/12 45/18/12 32/19/12
f 38/17/11 46/18/11 57/26/11
f 38/17/12 47/18/12 33/19/12
f 39/17/11 48/18/11 59/26/11
f 39/17/12 49/18/12 34/19/12
f 61/30/8 79/17/8 81/31/8
f 78/20/4 60/32/4 80/33/4
f 26/22/13 68/30/13 60/32/13
f 80/33/14 68/30/14 62/31/14
f 75/30/14 81/31/14 66/31/14
f 51/28/13 70/34/13 67/34/13
f 53/29/13 72/35/13 69/35/13
f 55/28/13 74/34/13 71/34/13
f 57/26/13 76/30/13 73/30/13
f 59/29/13 61/35/13 75/35/13
f 62/31/14 70/30/14 63/31/14
f 69/30/14 64/31/14 63/31/14
f 71/30/14 65/31/14 64/31/14
f 73/30/14 66/31/14 65/31/14
f 67/30/15 35/17/15 51/26/15
f 35/17/16 68/30/16 50/26/16
f 69/30/15 36/17/15 53/26/15
f 36/17/16 70/30/16 52/26/16
f 71/30/15 37/17/15 55/26/15
f 37/17/16 72/30/16 54/26/16
f 73/30/15 38/17/15 57/26/15
f 38/17/16 74/30/16 56/26/16
f 75/30/15 39/17/15 59/26/15
f 39/17/16 76/30/16 58/26/16
f 80/33/17 79/17/17 78/20/17
f 79/17/18 25/25/18 78/20/18
f 107/36/4 87/37/4 82/38/4
f 99/39/4 179/40/4 90/41/4
f 92/42/8 126/43/8 97/44/8
f 93/41/8 121/45/8 116/39/8
f 100/46/4 88/47/4 105/48/4
f 106/49/4 168/50/4 111/51/4
f 115/52/8 89/53/8 85/54/8
f 117/55/8 119/56/8 114/57/8
f 122/58/8 128/51/8 127/59/8
f 162/60/4 172/61/4 101/57/4
f 124/36/8 86/37/8 129/62/8
f 91/42/4 181/63/4 108/64/4
f 209/65/8 145/66/8 130/67/8
f 174/68/8 141/69/8 137/70/8
f 138/71/4 155/72/4 153/73/4
f 152/74/4 138/71/4 150/75/4
f 142/76/8 135/53/8 131/54/8
f 165/77/8 170/78/8 145/66/8
f 136/79/4 149/80/4 133/81/4
f 151/82/4 150/75/4 149/80/4
f 153/73/4 156/83/4 154/84/4
f 163/85/8 144/86/8 142/76/8
f 154/84/4 134/87/4 132/88/4
f 178/89/8 137/70/8 146/90/8
f 89/53/2 133/54/2 85/54/2
f 83/54/2 135/53/2 88/53/2
f 87/65/3 130/67/3 82/67/3
f 84/67/3 134/65/3 86/65/3
f 179/40/19 137/70/19 90/41/19
f 159/91/20 139/92/20 94/44/20
f 97/44/21 138/70/21 92/42/21
f 93/41/22 140/92/22 96/93/22
f 177/94/19 141/69/19 98/95/19
f 160/96/20 143/97/20 102/45/20
f 105/98/19 142/76/19 100/52/19
f 101/99/20 144/86/20 104/100/20
f 106/101/19 147/102/19 145/66/19
f 110/103/20 145/66/20 147/102/20
f 181/63/19 146/90/19 108/64/19
f 112/104/20 166/105/20 148/106/20
f 114/99/21 151/86/21 149/76/21
f 118/98/22 149/76/22 151/86/22
f 116/39/21 152/97/21 150/69/21
f 120/107/22 150/69/22 152/97/22
f 127/104/21 153/90/21 122/108/21
f 123/64/22 155/106/22 126/43/22
f 129/103/21 154/66/21 124/109/21
f 125/101/22 156/102/22 128/110/22
f 170/78/2 168/77/2 171/78/2
f 165/77/5 169/111/5 168/77/5
f 163/85/5 161/112/5 157/113/5
f 157/113/5 158/114/5 164/115/5
f 167/116/5 164/115/5 159/91/5
f 158/114/4 102/45/4 95/93/4
f 173/117/1 177/94/1 172/117/1
f 170/78/1 182/118/1 178/89/1
f 181/63/1 174/68/1 178/89/1
f 179/40/1 175/119/1 174/68/1
f 159/120/4 113/121/4 167/122/4
f 164/115/8 148/106/8 139/92/8
f 176/123/20 141/69/20 175/119/20
f 157/113/19 103/107/19 143/97/19
f 182/118/20 146/90/20 178/89/20
f 164/115/8 143/97/8 157/113/8
f 158/114/19 139/92/19 164/115/19
f 180/124/20 137/70/20 174/68/20
f 167/116/19 148/106/19 166/105/19
f 163/85/3 172/117/3 162/85/3
f 185/125/23 184/126/23 183/126/23
f 187/127/24 190/128/24 189/128/24
f 186/129/8 188/130/8 184/126/8
f 185/125/4 187/127/4 189/128/4
f 184/126/25 187/127/25 183/126/25
f 185/125/26 192/131/26 186/129/26
f 190/128/27 193/132/27 189/128/27
f 194/133/8 186/129/8 192/131/8
f 185/125/4 193/132/4 191/131/4
f 193/132/28 192/131/28 191/131/28
f 197/134/5 196/135/5 195/136/5
f 200/137/1 201/138/1 199/138/1
f 195/136/3 201/139/3 197/134/3
f 198/140/2 200/141/2 196/135/2
f 196/135/4 199/142/4 195/136/4
f 197/134/8 202/143/8 198/140/8
f 251/144/3 253/145/3 204/145/3
f 207/146/3 240/65/3 134/65/3
f 213/147/2 221/148/2 210/147/2
f 215/149/2 223/47/2 212/149/2
f 217/147/2 225/148/2 214/147/2
f 219/147/2 227/148/2 216/147/2
f 208/149/2 229/47/2 218/149/2
f 233/150/3 241/37/3 230/150/3
f 235/151/3 243/152/3 232/151/3
f 237/146/3 245/65/3 234/146/3
f 239/150/3 247/37/3 236/150/3
f 205/151/3 249/152/3 238/151/3
f 206/153/2 220/53/2 135/53/2
f 136/53/29 251/154/29 204/155/29
f 135/53/4 203/154/4 206/153/4
f 209/65/4 274/156/4 252/157/4
f 134/65/8 250/156/8 207/146/8
f 221/53/30 254/154/30 210/153/30
f 220/53/31 254/154/31 259/155/31
f 223/53/30 255/154/30 212/153/30
f 222/53/31 255/154/31 260/155/31
f 225/53/30 256/154/30 214/153/30
f 224/53/31 256/154/31 261/155/31
f 227/53/30 257/154/30 216/153/30
f 226/53/31 257/154/31 262/155/31
f 229/53/30 258/154/30 218/153/30
f 228/53/31 258/154/31 263/155/31
f 241/65/32 264/156/32 230/146/32
f 240/65/33 264/156/33 269/157/33
f 243/65/32 265/156/32 232/146/32
f 242/65/33 265/156/33 270/157/33
f 245/65/32 266/156/32 234/146/32
f 244/65/33 266/156/33 271/157/33
f 247/65/32 267/156/32 236/146/32
f 246/65/33 267/156/33 272/157/33
f 249/65/32 268/156/32 238/146/32
f 248/65/33 268/156/33 273/157/33
f 211/153/5 203/154/5 254/154/5
f 220/53/34 253/155/34 135/53/34
f 210/153/5 255/154/5 213/153/5
f 222/53/34 259/155/34 221/53/34
f 212/153/5 256/154/5 215/153/5
f 224/53/34 260/155/34 223/53/34
f 214/153/5 257/154/5 217/153/5
f 226/53/34 261/155/34 225/53/34
f 216/153/5 258/154/5 219/153/5
f 228/53/34 262/155/34 227/53/34
f 218/153/5 251/154/5 208/153/5
f 229/53/34 204/155/34 263/155/34
f 231/146/5 250/156/5 264/156/5
f 240/65/35 275/157/35 134/65/35
f 230/146/5 265/156/5 233/146/5
f 242/65/35 269/157/35 241/65/35
f 232/146/5 266/156/5 235/146/5
f 243/65/35 271/157/35 270/157/35
f 234/146/5 267/156/5 237/146/5
f 246/65/35 271/157/35 245/65/35
f 236/146/5 268/156/5 239/146/5
f 248/65/35 272/157/35 247/65/35
f 238/146/5 274/156/5 205/146/5
f 249/65/35 252/157/35 273/157/35
f 252/158/2 250/159/2 275/158/2
f 7/1/1 8/1/1 5/2/1
f 4/3/2 8/1/2 7/1/2
f 1/4/3 6/2/3 5/2/3
f 2/3/4 7/1/4 6/2/4
f 15/5/4 16/8/4 13/6/4
f 10/5/5 15/5/5 14/7/5
f 12/8/2 16/8/2 15/5/2
f 9/7/3 14/7/3 13/6/3
f 18/9/6 23/13/6 22/10/6
f 18/9/2 20/16/2 24/12/2
f 17/11/3 22/10/3 21/14/3
f 19/15/7 21/14/7 24/12/7
f 3/4/8 5/2/8 8/1/8
f 79/17/8 29/26/8 28/18/8
f 78/20/4 25/25/4 27/21/4
f 41/23/9 50/29/9 26/24/9
f 25/25/10 30/19/10 41/18/10
f 77/19/10 28/18/10 48/18/10
f 43/18/9 52/26/9 51/26/9
f 45/27/9 54/28/9 53/28/9
f 47/23/9 56/29/9 55/29/9
f 49/23/9 58/29/9 57/29/9
f 28/27/9 29/28/9 59/28/9
f 30/19/10 31/19/10 43/18/10
f 32/19/10 45/18/10 42/18/10
f 33/19/10 47/18/10 44/18/10
f 34/19/10 49/18/10 46/18/10
f 35/17/36 30/19/36 40/18/36
f 35/17/37 50/26/37 41/18/37
f 36/17/36 31/19/36 42/18/36
f 36/17/37 52/26/37 43/18/37
f 37/17/36 32/19/36 44/18/36
f 37/17/37 54/26/37 45/18/37
f 38/17/36 33/19/36 46/18/36
f 38/17/37 56/26/37 47/18/37
f 39/17/36 34/19/36 48/18/36
f 39/17/37 58/26/37 49/18/37
f 61/30/8 29/26/8 79/17/8
f 78/20/4 26/22/4 60/32/4
f 26/22/13 50/26/13 68/30/13
f 80/33/14 60/32/14 68/30/14
f 75/30/14 61/30/14 81/31/14
f 51/28/13 52/28/13 70/34/13
f 53/29/13 54/29/13 72/35/13
f 55/28/13 56/28/13 74/34/13
f 57/26/13 58/26/13 76/30/13
f 59/29/13 29/29/13 61/35/13
f 62/31/14 67/30/14 70/30/14
f 69/30/14 72/30/14 64/31/14
f 71/30/14 74/30/14 65/31/14
f 73/30/14 76/30/14 66/31/14
f 67/30/38 62/31/38 35/17/38
f 35/17/39 62/31/39 68/30/39
f 69/30/38 63/31/38 36/17/38
f 36/17/39 63/31/39 70/30/39
f 71/30/38 64/31/38 37/17/38
f 37/17/39 64/31/39 72/30/39
f 73/30/38 65/31/38 38/17/38
f 38/17/39 65/31/39 74/30/39
f 75/30/38 66/31/38 39/17/38
f 39/17/39 66/31/39 76/30/39
f 80/33/17 81/31/17 79/17/17
f 79/17/18 77/19/18 25/25/18
f 107/36/4 110/62/4 87/37/4
f 99/39/4 176/123/4 179/40/4
f 92/42/8 123/64/8 126/43/8
f 93/41/8 96/93/8 121/45/8
f 100/46/4 83/160/4 88/47/4
f 106/49/4 109/58/4 171/161/4
f 109/58/4 182/162/4 171/161/4
f 169/163/4 112/59/4 111/51/4
f 106/49/4 171/161/4 168/50/4
f 168/50/4 169/163/4 111/51/4
f 115/52/8 118/98/8 89/53/8
f 117/55/8 120/164/8 119/56/8
f 122/58/8 125/49/8 128/51/8
f 177/165/4 98/55/4 172/61/4
f 98/55/4 101/57/4 172/61/4
f 104/56/4 103/164/4 161/166/4
f 104/56/4 161/166/4 162/60/4
f 104/56/4 162/60/4 101/57/4
f 124/36/8 84/38/8 86/37/8
f 91/42/4 180/124/4 181/63/4
f 209/65/8 147/102/8 145/66/8
f 174/68/8 175/119/8 141/69/8
f 138/71/4 140/167/4 155/72/4
f 152/74/4 140/167/4 138/71/4
f 142/76/8 144/86/8 135/53/8
f 147/102/8 148/106/8 166/105/8
f 147/102/8 166/105/8 165/77/8
f 178/89/8 146/90/8 170/78/8
f 146/90/8 145/66/8 170/78/8
f 147/102/8 165/77/8 145/66/8
f 136/79/4 151/82/4 149/80/4
f 151/82/4 152/74/4 150/75/4
f 153/73/4 155/72/4 156/83/4
f 142/76/8 141/69/8 173/117/8
f 141/69/8 175/119/8 173/117/8
f 157/113/8 143/97/8 144/86/8
f 142/76/8 173/117/8 163/85/8
f 163/85/8 157/113/8 144/86/8
f 154/84/4 156/83/4 134/87/4
f 178/89/8 174/68/8 137/70/8
f 89/53/2 136/53/2 133/54/2
f 83/54/2 131/54/2 135/53/2
f 87/65/3 209/65/3 130/67/3
f 84/67/3 132/67/3 134/65/3
f 179/40/19 174/68/19 137/70/19
f 159/91/20 164/115/20 139/92/20
f 97/44/21 140/92/21 138/70/21
f 93/41/22 138/70/22 140/92/22
f 177/94/19 175/119/19 141/69/19
f 160/96/20 157/113/20 143/97/20
f 105/98/19 144/86/19 142/76/19
f 101/99/20 142/76/20 144/86/20
f 106/101/19 111/110/19 147/102/19
f 110/103/20 107/109/20 145/66/20
f 181/63/19 178/89/19 146/90/19
f 112/104/20 169/111/20 166/105/20
f 114/99/21 119/100/21 151/86/21
f 118/98/22 115/52/22 149/76/22
f 116/39/21 121/45/21 152/97/21
f 120/107/22 117/95/22 150/69/22
f 127/104/21 155/106/21 153/90/21
f 123/64/22 153/90/22 155/106/22
f 129/103/21 156/102/21 154/66/21
f 125/101/22 154/66/22 156/102/22
f 170/78/2 165/77/2 168/77/2
f 165/77/5 166/105/5 169/111/5
f 163/85/5 162/85/5 161/112/5
f 157/113/5 160/96/5 158/114/5
f 167/116/5 166/105/5 164/115/5
f 158/114/4 160/96/4 102/45/4
f 173/117/1 175/119/1 177/94/1
f 170/78/1 171/78/1 182/118/1
f 181/63/1 180/124/1 174/68/1
f 179/40/1 176/123/1 175/119/1
f 159/120/4 94/168/4 113/121/4
f 164/115/8 166/105/8 148/106/8
f 176/123/20 99/39/20 141/69/20
f 157/113/19 161/112/19 103/107/19
f 182/118/20 109/108/20 146/90/20
f 164/115/8 139/92/8 143/97/8
f 158/114/19 95/93/19 139/92/19
f 180/124/20 91/42/20 137/70/20
f 167/116/19 113/43/19 148/106/19
f 163/85/3 173/117/3 172/117/3
f 185/125/23 186/129/23 184/126/23
f 187/127/24 188/130/24 190/128/24
f 186/129/8 190/128/8 188/130/8
f 185/125/4 183/126/4 187/127/4
f 184/126/25 188/130/25 187/127/25
f 185/125/26 191/131/26 192/131/26
f 190/128/27 194/133/27 193/132/27
f 194/133/8 190/128/8 186/129/8
f 185/125/4 189/128/4 193/132/4
f 193/132/28 194/133/28 192/131/28
f 197/134/5 198/140/5 196/135/5
f 200/137/1 202/137/1 201/138/1
f 195/136/3 199/142/3 201/139/3
f 198/140/2 202/143/2 200/141/2
f 196/135/4 200/141/4 199/142/4
f 197/134/8 201/139/8 202/143/8
f 251/144/3 203/144/3 253/145/3
f 207/146/3 231/146/3 240/65/3
f 213/147/2 222/148/2 221/148/2
f 215/149/2 224/47/2 223/47/2
f 217/147/2 226/148/2 225/148/2
f 219/147/2 228/148/2 227/148/2
f 208/149/2 136/47/2 229/47/2
f 233/150/3 242/37/3 241/37/3
f 235/151/3 244/152/3 243/152/3
f 237/146/3 246/65/3 245/65/3
f 239/150/3 248/37/3 247/37/3
f 205/151/3 209/152/3 249/152/3
f 206/153/2 211/153/2 220/53/2
f 136/53/8 208/153/8 251/154/8
f 135/53/40 253/155/40 203/154/40
f 209/65/4 205/146/4 274/156/4
f 134/65/41 275/157/41 250/156/41
f 221/53/30 259/155/30 254/154/30
f 220/53/31 211/153/31 254/154/31
f 223/53/30 260/155/30 255/154/30
f 222/53/31 213/153/31 255/154/31
f 225/53/30 261/155/30 256/154/30
f 224/53/31 215/153/31 256/154/31
f 227/53/30 262/155/30 257/154/30
f 226/53/31 217/153/31 257/154/31
f 229/53/30 263/155/30 258/154/30
f 228/53/31 219/153/31 258/154/31
f 241/65/32 269/157/32 264/156/32
f 240/65/33 231/146/33 264/156/33
f 243/65/32 270/157/32 265/156/32
f 242/65/33 233/146/33 265/156/33
f 245/65/32 271/157/32 266/156/32
f 244/65/33 235/146/33 266/156/33
f 247/65/32 272/157/32 267/156/32
f 246/65/33 237/146/33 267/156/33
f 249/65/32 273/157/32 268/156/32
f 248/65/33 239/146/33 268/156/33
f 211/153/5 206/153/5 203/154/5
f 220/53/34 259/155/34 253/155/34
f 210/153/5 254/154/5 255/154/5
f 222/53/34 260/155/34 259/155/34
f 212/153/5 255/154/5 256/154/5
f 224/53/34 261/155/34 260/155/34
f 214/153/5 256/154/5 257/154/5
f 226/53/34 262/155/34 261/155/34
f 216/153/5 257/154/5 258/154/5
f 228/53/34 263/155/34 262/155/34
f 218/153/5 258/154/5 251/154/5
f 229/53/34 136/53/34 204/155/34
f 231/146/5 207/146/5 250/156/5
f 240/65/35 269/157/35 275/157/35
f 230/146/5 264/156/5 265/156/5
f 242/65/35 270/157/35 269/157/35
f 232/146/5 265/156/5 266/156/5
f 243/65/35 244/65/35 271/157/35
f 234/146/5 266/156/5 267/156/5
f 246/65/35 272/157/35 271/157/35
f 236/146/5 267/156/5 268/156/5
f 248/65/35 273/157/35 272/157/35
f 238/146/5 268/156/5 274/156/5
f 249/65/35 209/65/35 252/157/35
f 252/158/2 274/159/2 250/159/2
o Prop_Letterbox_Door_04
v -0.061088 1.053362 0.464253
v -0.061088 1.222735 0.464253
v 0.061088 1.222735 0.464253
v 0.061088 1.053362 0.464253
v -0.061088 1.053362 0.468140
v 0.061088 1.053362 0.468140
v -0.061088 1.222735 0.468140
v 0.061088 1.222735 0.468140
v -0.020362 1.053362 0.464253
v 0.020363 1.053362 0.464253
v 0.020363 1.222735 0.464253
v -0.020362 1.222735 0.464253
v -0.019977 1.053362 0.468140
v -0.020748 1.053362 0.468140
v 0.020748 1.053362 0.468140
v 0.019978 1.053362 0.468140
v 0.019978 1.222735 0.468140
v 0.020748 1.222735 0.468140
v -0.020748 1.222735 0.468140
v -0.019977 1.222735 0.468140
v 0.029426 1.202776 0.468140
v 0.034604 1.202776 0.468140
v 0.029426 1.213538 0.468140
v 0.034604 1.213538 0.468140
v 0.029426 1.213538 0.469301
v 0.029426 1.202776 0.469301
v 0.034604 1.202776 0.469301
v 0.034604 1.213538 0.469301
v 0.027099 1.213538 0.468140
v 0.027099 1.202776 0.468140
v 0.027099 1.213538 0.469301
v 0.027099 1.202776 0.469301
v 0.029426 1.213538 0.483450
v 0.029426 1.202776 0.483450
v 0.027099 1.213538 0.483450
v 0.027099 1.202776 0.483450
v 0.029426 1.213538 0.481287
v 0.029426 1.202776 0.481287
v 0.027099 1.202776 0.481287
v 0.027099 1.213538 0.481287
v 0.000000 1.215171 0.488488
v 0.000000 1.201143 0.488488
v 0.000000 1.201143 0.486325
v 0.000000 1.215171 0.486325
v -0.029426 1.202776 0.468140
v -0.034604 1.202776 0.468140
v -0.029426 1.213538 0.468140
v -0.034604 1.213538 0.468140
v -0.029426 1.213538 0.469301
v -0.029426 1.202776 0.469301
v -0.034604 1.202776 0.469301
v -0.034604 1.213538 0.469301
v -0.027099 1.213538 0.468140
v -0.027099 1.202776 0.468140
v -0.027099 1.213538 0.469301
v -0.027099 1.202776 0.469301
v -0.029426 1.213538 0.483450
v -0.029426 1.202776 0.483450
v -0.027099 1.213538 0.483450
v -0.027099 1.202776 0.483450
v -0.029426 1.213538 0.481287
v -0.029426 1.202776 0.481287
v -0.027099 1.202776 0.481287
v -0.027099 1.213538 0.481287
vn -0.0000 -0.0000 -1.0000
vn -0.0000 1.0000 -0.0000
vn 1.0000 -0.0000 -0.0000
vn -1.0000 -0.0000 -0.0000
vn -0.0000 -0.0000 1.0000
vn -0.0000 -1.0000 -0.0000
vn 0.9951 -0.0000 0.0986
vn -0.9951 -0.0000 0.0986
vn 0.0602 -0.9982 -0.0000
vn 0.0602 0.9982 -0.0000
vn -0.1828 -0.0000 -0.9832
vn 0.1828 -0.0000 0.9832
vn -0.0602 -0.9982 -0.0000
vn -0.0602 0.9982 -0.0000
vn 0.1828 -0.0000 -0.9832
vn -0.1828 -0.0000 0.9832
vt 0.085793 0.960816
vt 0.086462 0.920418
vt 0.085793 0.920418
vt 0.086462 0.960816
vt 0.086241 0.960816
vt 0.086014 0.920418
vt 0.086016 0.960816
vt 0.086237 0.960816
vt 0.086239 0.960816
vt 0.086014 0.960816
vt 0.086237 0.920418
vt 0.086018 0.960816
vt 0.086018 0.920418
vt 0.086241 0.920418
vt 0.086239 0.920418
vt 0.086016 0.920418
vt 0.447801 0.647279
vt 0.447588 0.695646
vt 0.447588 0.647279
vt 0.447801 0.695646
vt 0.447491 0.647279
vt 0.447491 0.695646
vt 0.446373 0.639940
vt 0.446373 0.702985
vt 0.445158 0.695646
vt 0.444944 0.647279
vt 0.445158 0.647279
vt 0.444944 0.695646
vt 0.445254 0.695646
vt 0.445254 0.647279
s 0
usemtl Texture_Map
f 277/169/42 279/170/42 276/171/42
f 278/172/43 293/173/43 283/172/43
f 278/172/44 281/170/44 279/170/44
f 276/171/45 282/169/45 277/169/45
f 289/174/46 282/169/46 280/171/46
f 276/171/47 289/174/47 280/171/47
f 287/175/43 292/176/43 286/177/43
f 277/169/43 294/178/43 287/175/43
f 291/179/46 295/180/46 288/181/46
f 281/170/46 293/173/46 290/182/46
f 285/183/47 288/181/47 284/184/47
f 279/170/47 290/182/47 285/183/47
f 285/183/48 292/176/48 291/179/48
f 290/182/49 286/177/49 285/183/49
f 284/184/48 294/178/48 289/174/48
f 288/181/49 287/175/49 284/184/49
f 302/185/46 300/186/46 301/187/46
f 298/186/43 303/188/43 299/188/43
f 297/185/47 301/187/47 296/187/47
f 299/188/44 302/185/44 297/185/44
f 312/186/44 309/187/44 313/187/44
f 305/189/45 306/190/45 304/190/45
f 301/187/47 305/189/47 296/187/47
f 298/186/43 306/190/43 300/186/43
f 308/186/46 311/189/46 309/187/46
f 311/189/50 318/191/50 314/189/50
f 315/190/43 308/186/43 312/186/43
f 313/187/47 311/189/47 314/189/47
f 301/187/47 314/189/47 307/189/47
f 306/190/43 312/186/43 300/186/43
f 306/190/45 314/189/45 315/190/45
f 300/186/44 313/187/44 301/187/44
f 310/190/51 319/192/51 316/192/51
f 314/189/52 319/192/52 315/190/52
f 310/190/53 317/191/53 311/189/53
f 324/193/46 326/194/46 325/195/46
f 327/196/43 322/193/43 323/196/43
f 325/195/47 321/194/47 320/195/47
f 326/194/45 323/196/45 321/194/45
f 333/195/45 336/193/45 337/195/45
f 330/197/44 329/198/44 328/197/44
f 329/198/47 325/195/47 320/195/47
f 330/197/43 322/193/43 324/193/43
f 335/198/46 332/193/46 333/195/46
f 318/191/54 335/198/54 338/198/54
f 332/193/43 339/197/43 336/193/43
f 335/198/47 337/195/47 338/198/47
f 338/198/47 325/195/47 331/198/47
f 336/193/43 330/197/43 324/193/43
f 330/197/44 338/198/44 331/198/44
f 337/195/45 324/193/45 325/195/45
f 334/197/55 319/192/55 339/197/55
f 319/192/56 338/198/56 339/197/56
f 317/191/57 334/197/57 335/198/57
f 277/169/42 278/172/42 279/170/42
f 278/172/43 286/177/43 293/173/43
f 278/172/44 283/172/44 281/170/44
f 276/171/45 280/171/45 282/169/45
f 289/174/46 294/178/46 282/169/46
f 276/171/47 284/184/47 289/174/47
f 287/175/43 295/180/43 292/176/43
f 277/169/43 282/169/43 294/178/43
f 291/179/46 292/176/46 295/180/46
f 281/170/46 283/172/46 293/173/46
f 285/183/47 291/179/47 288/181/47
f 279/170/47 281/170/47 290/182/47
f 285/183/48 286/177/48 292/176/48
f 290/182/49 293/173/49 286/177/49
f 284/184/48 287/175/48 294/178/48
f 288/181/49 295/180/49 287/175/49
f 302/185/46 303/188/46 300/186/46
f 298/186/43 300/186/43 303/188/43
f 297/185/47 302/185/47 301/187/47
f 299/188/44 303/188/44 302/185/44
f 312/186/44 308/186/44 309/187/44
f 305/189/45 307/189/45 306/190/45
f 301/187/47 307/189/47 305/189/47
f 298/186/43 304/190/43 306/190/43
f 308/186/46 310/190/46 311/189/46
f 311/189/50 317/191/50 318/191/50
f 315/190/43 310/190/43 308/186/43
f 313/187/47 309/187/47 311/189/47
f 301/187/47 313/187/47 314/189/47
f 306/190/43 315/190/43 312/186/43
f 306/190/45 307/189/45 314/189/45
f 300/186/44 312/186/44 313/187/44
f 310/190/51 315/190/51 319/192/51
f 314/189/52 318/191/52 319/192/52
f 310/190/53 316/192/53 317/191/53
f 324/193/46 327/196/46 326/194/46
f 327/196/43 324/193/43 322/193/43
f 325/195/47 326/194/47 321/194/47
f 326/194/45 327/196/45 323/196/45
f 333/195/45 332/193/45 336/193/45
f 330/197/44 331/198/44 329/198/44
f 329/198/47 331/198/47 325/195/47
f 330/197/43 328/197/43 322/193/43
f 335/198/46 334/197/46 332/193/46
f 318/191/54 317/191/54 335/198/54
f 332/193/43 334/197/43 339/197/43
f 335/198/47 333/195/47 337/195/47
f 338/198/47 337/195/47 325/195/47
f 336/193/43 339/197/43 330/197/43
f 330/197/44 339/197/44 338/198/44
f 337/195/45 336/193/45 324/193/45
f 334/197/55 316/192/55 319/192/55
f 319/192/56 318/191/56 338/198/56
f 317/191/57 316/192/57 334/197/57
