# Blender 4.4.0
# www.blender.org
mtllib Prop_Shelf_01.mtl
o Prop_Shelf_01
v 0.232640 0.000000 0.238332
v 0.306939 0.000000 0.238332
v 0.306939 0.000000 0.164033
v 0.232640 1.472928 0.238332
v 0.306939 1.472928 0.238332
v 0.306939 1.472928 0.164033
v 0.232640 0.000000 0.224761
v 0.293368 0.000000 0.224761
v 0.293368 0.000000 0.164033
v 0.232640 1.472928 0.224761
v 0.293368 1.472928 0.224761
v 0.293368 1.472928 0.164033
v -0.232640 0.000000 0.238332
v -0.306939 0.000000 0.238332
v -0.306939 0.000000 0.164033
v -0.232640 1.472928 0.238332
v -0.306939 1.472928 0.238332
v -0.306939 1.472928 0.164033
v -0.232640 0.000000 0.224761
v -0.293368 0.000000 0.224761
v -0.293368 0.000000 0.164033
v -0.232640 1.472928 0.224761
v -0.293368 1.472928 0.224761
v -0.293368 1.472928 0.164033
v 0.232640 0.000000 -0.238332
v 0.306939 0.000000 -0.238332
v 0.306939 0.000000 -0.164033
v 0.232640 1.472928 -0.238332
v 0.306939 1.472928 -0.238332
v 0.306939 1.472928 -0.164033
v 0.232640 0.000000 -0.224761
v 0.293368 0.000000 -0.224761
v 0.293368 0.000000 -0.164033
v 0.232640 1.472928 -0.224761
v 0.293368 1.472928 -0.224761
v 0.293368 1.472928 -0.164033
v -0.232640 0.000000 -0.238332
v -0.306939 0.000000 -0.238332
v -0.306939 0.000000 -0.164033
v -0.232640 1.472928 -0.238332
v -0.306939 1.472928 -0.238332
v -0.306939 1.472928 -0.164033
v -0.232640 0.000000 -0.224761
v -0.293368 0.000000 -0.224761
v -0.293368 0.000000 -0.164033
v -0.232640 1.472928 -0.224761
v -0.293368 1.472928 -0.224761
v -0.293368 1.472928 -0.164033
v -0.293368 1.459948 0.224761
v 0.293368 1.459948 0.224761
v -0.293368 1.459948 -0.224761
v 0.293368 1.459948 -0.224761
v -0.293368 1.431767 -0.224761
v -0.293368 1.431767 0.224761
v 0.293368 1.431767 0.224761
v 0.293368 1.431767 -0.224761
v -0.293368 1.108248 0.224761
v 0.293368 1.108248 0.224761
v -0.293368 1.108248 -0.224761
v 0.293368 1.108248 -0.224761
v -0.293368 1.080067 -0.224761
v -0.293368 1.080067 0.224761
v 0.293368 1.080067 0.224761
v 0.293368 1.080067 -0.224761
v -0.293368 0.756548 0.224761
v 0.293368 0.756548 0.224761
v -0.293368 0.756548 -0.224761
v 0.293368 0.756548 -0.224761
v -0.293368 0.728367 -0.224761
v -0.293368 0.728367 0.224761
v 0.293368 0.728367 0.224761
v 0.293368 0.728367 -0.224761
v -0.293368 0.404848 0.224761
v 0.293368 0.404848 0.224761
v -0.293368 0.404848 -0.224761
v 0.293368 0.404848 -0.224761
v -0.293368 0.376667 -0.224761
v -0.293368 0.376667 0.224761
v 0.293368 0.376667 0.224761
v 0.293368 0.376667 -0.224761
v -0.293368 0.028181 0.224761
v 0.293368 0.028181 0.224761
v -0.293368 0.028181 -0.224761
v 0.293368 0.028181 -0.224761
v -0.293368 0.055757 -0.224761
v -0.293368 0.055757 0.224761
v 0.293368 0.055757 0.224761
v 0.293368 0.055757 -0.224761
v -0.288440 0.028181 -0.219833
v -0.288440 0.028181 0.219833
v 0.288440 0.028181 0.219833
v 0.288440 0.028181 -0.219833
v -0.288440 0.000000 -0.219833
v -0.288440 0.000000 0.219833
v 0.288440 0.000000 0.219833
v 0.288440 0.000000 -0.219833
vn 1.0000 -0.0000 -0.0000
vn -0.0000 -0.0000 1.0000
vn -1.0000 -0.0000 -0.0000
vn -0.0000 -0.0000 -1.0000
vn -0.0000 1.0000 -0.0000
vn -0.0000 -1.0000 -0.0000
vt 0.211699 0.822615
vt 0.211699 0.987233
vt 0.207748 0.987233
vt 0.207748 0.822615
vt 0.210977 0.987233
vt 0.210977 0.822615
vt 0.207778 0.987233
vt 0.207778 0.822615
vt 0.211728 0.987233
vt 0.211728 0.822615
vt 0.208499 0.822615
vt 0.208499 0.987233
vt 0.211699 0.987233
vt 0.207748 0.987233
vt 0.210977 0.987233
vt 0.207778 0.987233
vt 0.211728 0.987233
vt 0.208499 0.987233
vt 0.582155 0.963542
vt 0.578680 0.963542
vt 0.578680 0.878801
vt 0.582155 0.878801
vt 0.578680 0.878801
vt 0.582155 0.878801
vt 0.582155 0.973034
vt 0.578680 0.973034
vt 0.578680 0.973034
vt 0.578680 0.888293
vt 0.582155 0.888293
vt 0.582155 0.973034
vt 0.582155 0.963640
vt 0.578680 0.963639
vt 0.578680 0.963640
vt 0.578680 0.878898
vt 0.582155 0.878898
vt 0.582155 0.963639
vt 0.582155 0.963688
vt 0.578680 0.963688
vt 0.578680 0.963688
vt 0.578680 0.878947
vt 0.582155 0.878947
vt 0.582155 0.963688
vt 0.582155 0.879217
vt 0.578680 0.962139
vt 0.578680 0.879217
vt 0.582155 0.962139
vt 0.228273 0.817200
vt 0.228273 0.864567
vt 0.228273 0.864567
vt 0.226664 0.817200
vt 0.226664 0.864567
vt 0.226664 0.864567
vt 0.228273 0.817200
vt 0.226664 0.817200
s 0
usemtl Texture_Map
f 3/1/1 5/2/1 2/1/1
f 2/1/2 4/3/2 1/4/2
f 11/5/3 9/6/3 8/6/3
f 10/3/4 8/6/4 7/4/4
f 6/2/5 11/5/5 5/2/5
f 8/6/6 3/1/6 2/1/6
f 10/3/3 1/4/3 4/3/3
f 9/6/4 6/2/4 3/1/4
f 11/5/5 4/3/5 5/2/5
f 1/4/6 8/6/6 2/1/6
f 17/7/3 15/8/3 14/8/3
f 16/9/2 14/8/2 13/10/2
f 21/11/1 23/12/1 20/11/1
f 20/11/4 22/9/4 19/10/4
f 18/7/5 23/12/5 24/12/5
f 15/8/6 20/11/6 14/8/6
f 13/10/1 22/9/1 16/9/1
f 18/7/4 21/11/4 15/8/4
f 16/9/5 23/12/5 17/7/5
f 13/10/6 20/11/6 19/10/6
f 29/13/1 27/1/1 26/1/1
f 28/14/4 26/1/4 25/4/4
f 33/6/3 35/15/3 32/6/3
f 32/6/2 34/14/2 31/4/2
f 30/2/5 35/15/5 36/5/5
f 27/1/6 32/6/6 26/1/6
f 25/4/3 34/14/3 28/14/3
f 30/2/2 33/6/2 27/1/2
f 28/14/5 35/15/5 29/13/5
f 25/4/6 32/6/6 31/4/6
f 39/8/3 41/16/3 38/8/3
f 38/8/4 40/17/4 37/10/4
f 47/18/1 45/11/1 44/11/1
f 46/17/2 44/11/2 43/10/2
f 42/7/5 47/18/5 41/16/5
f 44/11/6 39/8/6 38/8/6
f 46/17/1 37/10/1 40/17/1
f 45/11/2 42/7/2 39/8/2
f 47/18/5 40/17/5 41/16/5
f 37/10/6 44/11/6 38/8/6
f 50/19/5 51/20/5 49/20/5
f 53/21/6 55/22/6 54/23/6
f 55/22/1 52/19/1 50/19/1
f 53/21/3 49/20/3 51/20/3
f 56/24/4 51/20/4 52/19/4
f 54/23/2 50/19/2 49/20/2
f 58/25/5 59/26/5 57/27/5
f 61/28/6 63/29/6 62/28/6
f 63/29/1 60/30/1 58/25/1
f 61/28/3 57/27/3 59/26/3
f 64/29/4 59/26/4 60/30/4
f 62/28/2 58/25/2 57/27/2
f 66/31/5 67/32/5 65/33/5
f 69/34/6 71/35/6 70/34/6
f 71/35/1 68/36/1 66/31/1
f 69/34/3 65/33/3 67/32/3
f 72/35/4 67/32/4 68/36/4
f 70/34/2 66/31/2 65/33/2
f 74/37/5 75/38/5 73/39/5
f 77/40/6 79/41/6 78/40/6
f 79/41/1 76/42/1 74/37/1
f 77/40/3 73/39/3 75/38/3
f 80/41/4 75/38/4 76/42/4
f 78/40/2 74/37/2 73/39/2
f 82/43/2 86/44/2 81/45/2
f 87/46/5 85/44/5 86/44/5
f 84/43/1 87/46/1 82/43/1
f 81/45/3 85/44/3 83/45/3
f 83/45/4 88/46/4 84/43/4
f 95/47/1 92/48/1 91/49/1
f 93/50/3 90/51/3 89/52/3
f 96/53/4 89/52/4 92/48/4
f 94/54/2 91/49/2 90/51/2
f 96/53/6 94/54/6 93/50/6
f 84/43/6 81/45/6 83/45/6
f 3/1/1 6/2/1 5/2/1
f 2/1/2 5/2/2 4/3/2
f 11/5/3 12/5/3 9/6/3
f 10/3/4 11/5/4 8/6/4
f 6/2/5 12/5/5 11/5/5
f 8/6/6 9/6/6 3/1/6
f 10/3/3 7/4/3 1/4/3
f 9/6/4 12/5/4 6/2/4
f 11/5/5 10/3/5 4/3/5
f 1/4/6 7/4/6 8/6/6
f 17/7/3 18/7/3 15/8/3
f 16/9/2 17/7/2 14/8/2
f 21/11/1 24/12/1 23/12/1
f 20/11/4 23/12/4 22/9/4
f 18/7/5 17/7/5 23/12/5
f 15/8/6 21/11/6 20/11/6
f 13/10/1 19/10/1 22/9/1
f 18/7/4 24/12/4 21/11/4
f 16/9/5 22/9/5 23/12/5
f 13/10/6 14/8/6 20/11/6
f 29/13/1 30/2/1 27/1/1
f 28/14/4 29/13/4 26/1/4
f 33/6/3 36/5/3 35/15/3
f 32/6/2 35/15/2 34/14/2
f 30/2/5 29/13/5 35/15/5
f 27/1/6 33/6/6 32/6/6
f 25/4/3 31/4/3 34/14/3
f 30/2/2 36/5/2 33/6/2
f 28/14/5 34/14/5 35/15/5
f 25/4/6 26/1/6 32/6/6
f 39/8/3 42/7/3 41/16/3
f 38/8/4 41/16/4 40/17/4
f 47/18/1 48/12/1 45/11/1
f 46/17/2 47/18/2 44/11/2
f 42/7/5 48/12/5 47/18/5
f 44/11/6 45/11/6 39/8/6
f 46/17/1 43/10/1 37/10/1
f 45/11/2 48/12/2 42/7/2
f 47/18/5 46/17/5 40/17/5
f 37/10/6 43/10/6 44/11/6
f 50/19/5 52/19/5 51/20/5
f 53/21/6 56/24/6 55/22/6
f 55/22/1 56/24/1 52/19/1
f 53/21/3 54/23/3 49/20/3
f 56/24/4 53/21/4 51/20/4
f 54/23/2 55/22/2 50/19/2
f 58/25/5 60/30/5 59/26/5
f 61/28/6 64/29/6 63/29/6
f 63/29/1 64/29/1 60/30/1
f 61/28/3 62/28/3 57/27/3
f 64/29/4 61/28/4 59/26/4
f 62/28/2 63/29/2 58/25/2
f 66/31/5 68/36/5 67/32/5
f 69/34/6 72/35/6 71/35/6
f 71/35/1 72/35/1 68/36/1
f 69/34/3 70/34/3 65/33/3
f 72/35/4 69/34/4 67/32/4
f 70/34/2 71/35/2 66/31/2
f 74/37/5 76/42/5 75/38/5
f 77/40/6 80/41/6 79/41/6
f 79/41/1 80/41/1 76/42/1
f 77/40/3 78/40/3 73/39/3
f 80/41/4 77/40/4 75/38/4
f 78/40/2 79/41/2 74/37/2
f 82/43/2 87/46/2 86/44/2
f 87/46/5 88/46/5 85/44/5
f 84/43/1 88/46/1 87/46/1
f 81/45/3 86/44/3 85/44/3
f 83/45/4 85/44/4 88/46/4
f 95/47/1 96/53/1 92/48/1
f 93/50/3 94/54/3 90/51/3
f 96/53/4 93/50/4 89/52/4
f 94/54/2 95/47/2 91/49/2
f 96/53/6 95/47/6 94/54/6
f 84/43/6 82/43/6 81/45/6
