# Blender 4.4.0
# www.blender.org
mtllib Prop_Water_Barrel_01.mtl
o Prop_Water_Barrel_01
v 0.000000 0.860000 -0.285000
v -0.142500 0.860000 -0.246817
v -0.246817 0.860000 -0.142500
v -0.285000 0.860000 0.000000
v -0.246817 0.860000 0.142500
v -0.142500 0.860000 0.246817
v 0.000000 0.860000 0.285000
v 0.142500 0.860000 0.246817
v 0.246817 0.860000 0.142500
v 0.285000 0.860000 0.000000
v 0.246817 0.860000 -0.142500
v 0.142500 0.860000 -0.246817
v -0.252884 0.019553 0.146003
v -0.146003 0.019553 0.252884
v 0.000000 0.019553 0.292006
v 0.146003 0.019553 0.252884
v 0.252884 0.019553 0.146003
v 0.292006 0.019553 0.000000
v -0.292006 0.019553 0.000000
v -0.252884 0.019553 -0.146003
v -0.146003 0.019553 -0.252884
v 0.000000 0.019553 -0.292006
v 0.252884 0.019553 -0.146003
v 0.146003 0.019553 -0.252884
v 0.172160 0.165560 -0.298190
v 0.172160 0.694440 -0.298190
v 0.000000 0.286300 -0.354125
v 0.000000 0.694440 -0.344321
v 0.000000 0.165560 -0.344321
v 0.000000 0.573700 -0.354125
v -0.172160 0.165560 -0.298190
v -0.172160 0.694440 -0.298190
v -0.177063 0.573700 -0.306681
v -0.298190 0.694440 -0.172160
v -0.298190 0.165560 -0.172160
v -0.177063 0.286300 -0.306681
v 0.298190 0.165560 0.172160
v 0.298190 0.694440 0.172160
v 0.177063 0.286300 0.306681
v 0.344321 0.694440 0.000000
v 0.344321 0.165560 0.000000
v 0.177063 0.573700 0.306681
v -0.172160 0.165560 0.298190
v -0.172160 0.694440 0.298190
v 0.306681 0.573700 0.177063
v 0.000000 0.694440 0.344321
v 0.000000 0.165560 0.344321
v 0.306681 0.286300 0.177063
v -0.344321 0.694440 0.000000
v -0.344321 0.165560 0.000000
v -0.306681 0.286300 0.177063
v 0.298190 0.694440 -0.172160
v 0.298190 0.165560 -0.172160
v -0.306681 0.573700 0.177063
v 0.172160 0.694440 0.298190
v 0.172160 0.165560 0.298190
v -0.177063 0.573700 0.306681
v -0.298190 0.694440 0.172160
v -0.298190 0.165560 0.172160
v -0.177063 0.286300 0.306681
v -0.147430 0.000000 -0.255356
v 0.000000 0.000000 -0.294860
v -0.255356 0.000000 -0.147430
v -0.294860 0.000000 -0.000000
v -0.255356 0.000000 0.147430
v -0.147430 0.000000 0.255356
v 0.000000 0.000000 0.294860
v 0.147430 0.000000 0.255356
v 0.255356 0.000000 0.147430
v 0.294860 0.000000 -0.000000
v 0.255356 0.000000 -0.147430
v 0.147430 0.000000 -0.255356
v 0.000000 0.019553 0.302108
v 0.151054 0.019553 0.261633
v -0.261633 0.019553 -0.151054
v -0.302108 0.019553 -0.000000
v 0.261633 0.019553 0.151054
v -0.261633 0.019553 0.151054
v -0.151054 0.019553 -0.261633
v 0.151054 0.019553 -0.261633
v 0.000000 0.019553 -0.302108
v 0.302108 0.019553 -0.000000
v 0.261633 0.019553 -0.151054
v -0.151054 0.019553 0.261633
v 0.178570 0.251933 -0.309292
v 0.178570 0.608067 -0.309292
v 0.000000 0.608067 -0.357140
v 0.000000 0.251933 -0.357140
v -0.178570 0.251933 -0.309292
v -0.178570 0.608067 -0.309292
v -0.309292 0.608067 -0.178570
v -0.309292 0.251933 -0.178570
v 0.309292 0.251933 0.178570
v 0.309292 0.608067 0.178570
v 0.357140 0.608067 0.000000
v 0.357140 0.251933 0.000000
v -0.178570 0.251933 0.309292
v -0.178570 0.608067 0.309292
v 0.000000 0.608067 0.357140
v 0.000000 0.251933 0.357140
v -0.357140 0.608067 0.000000
v -0.357140 0.251933 0.000000
v 0.309292 0.608067 -0.178570
v 0.309292 0.251933 -0.178570
v 0.178570 0.608067 0.309292
v 0.178570 0.251933 0.309292
v -0.309292 0.608067 0.178570
v -0.309292 0.251933 0.178570
v 0.177063 0.286300 -0.306681
v 0.177063 0.573700 -0.306681
v 0.306681 0.573700 -0.177063
v 0.306681 0.286300 -0.177063
v -0.354125 0.573700 0.000000
v -0.354125 0.286300 0.000000
v 0.000000 0.573700 0.354125
v 0.000000 0.286300 0.354125
v 0.354125 0.573700 0.000000
v 0.354125 0.286300 0.000000
v -0.306681 0.573700 -0.177063
v -0.306681 0.286300 -0.177063
v 0.155814 0.860000 -0.269877
v 0.269877 0.860000 -0.155814
v 0.311627 0.860000 -0.000000
v 0.269877 0.860000 0.155814
v 0.155814 0.860000 0.269877
v 0.000000 0.860000 0.311627
v -0.155814 0.860000 0.269877
v -0.269877 0.860000 0.155814
v -0.311627 0.860000 -0.000000
v -0.269877 0.860000 -0.155814
v -0.155814 0.860000 -0.269877
v 0.000000 0.860000 -0.311627
v 0.147702 0.876571 -0.255827
v 0.000000 0.876571 -0.295403
v 0.255827 0.876571 0.147702
v 0.295403 0.876571 -0.000000
v -0.147702 0.876571 0.255827
v 0.000000 0.876571 0.295403
v -0.295403 0.876571 -0.000000
v -0.255827 0.876571 0.147702
v -0.147702 0.876571 -0.255827
v -0.255827 0.876571 -0.147702
v 0.255827 0.876571 -0.147702
v 0.147702 0.876571 0.255827
v 0.151236 0.876571 -0.261948
v 0.000000 0.876571 -0.302472
v 0.261948 0.876571 0.151236
v 0.302472 0.876571 -0.000000
v -0.151236 0.876571 0.261948
v 0.000000 0.876571 0.302472
v -0.302472 0.876571 -0.000000
v -0.261948 0.876571 0.151236
v -0.151236 0.876571 -0.261948
v -0.261948 0.876571 -0.151236
v 0.261948 0.876571 -0.151236
v 0.151236 0.876571 0.261948
v 0.147702 0.904337 -0.255827
v 0.000000 0.904337 -0.295403
v 0.255827 0.904337 0.147702
v 0.295403 0.904337 -0.000000
v -0.147702 0.904337 0.255827
v 0.000000 0.904337 0.295403
v -0.295403 0.904337 -0.000000
v -0.255827 0.904337 0.147702
v -0.147702 0.904337 -0.255827
v -0.255827 0.904337 -0.147702
v 0.255827 0.904337 -0.147702
v 0.147702 0.904337 0.255827
v 0.153878 0.904337 -0.266524
v 0.000000 0.904337 -0.307756
v 0.266524 0.904337 0.153878
v 0.307756 0.904337 -0.000000
v -0.153878 0.904337 0.266524
v 0.000000 0.904337 0.307756
v -0.307756 0.904337 -0.000000
v -0.266524 0.904337 0.153878
v -0.153878 0.904337 -0.266524
v -0.266524 0.904337 -0.153878
v 0.266524 0.904337 -0.153878
v 0.153878 0.904337 0.266524
v 0.144125 0.921920 -0.249632
v 0.000000 0.921920 -0.288250
v 0.249632 0.921920 0.144125
v 0.288250 0.921920 -0.000000
v -0.144125 0.921920 0.249632
v 0.000000 0.921920 0.288250
v -0.288250 0.921920 -0.000000
v -0.249632 0.921920 0.144125
v -0.144125 0.921920 -0.249632
v -0.249632 0.921920 -0.144125
v 0.249632 0.921920 -0.144125
v 0.144125 0.921920 0.249632
v 0.151122 0.921920 -0.261752
v 0.000000 0.921920 -0.302245
v 0.261752 0.921920 0.151122
v 0.302245 0.921920 -0.000000
v -0.151122 0.921920 0.261752
v 0.000000 0.921920 0.302245
v -0.302245 0.921920 -0.000000
v -0.261752 0.921920 0.151122
v -0.151122 0.921920 -0.261752
v -0.261752 0.921920 -0.151122
v 0.261752 0.921920 -0.151122
v 0.151122 0.921920 0.261752
v 0.136624 0.902539 -0.236640
v 0.000000 0.902539 -0.273248
v 0.236640 0.902539 0.136624
v 0.273248 0.902539 -0.000000
v -0.136624 0.902539 0.236640
v 0.000000 0.902539 0.273248
v -0.273248 0.902539 -0.000000
v -0.236640 0.902539 0.136624
v -0.136624 0.902539 -0.236640
v -0.236640 0.902539 -0.136624
v 0.236640 0.902539 -0.136624
v 0.136624 0.902539 0.236640
vn 0.6682 0.3271 -0.6682
vn 0.6682 0.3271 0.6682
vn -0.6682 0.3271 0.6682
vn 0.9128 0.3271 0.2446
vn -0.2446 0.3271 0.9128
vn -0.9128 0.3271 0.2446
vn -0.6682 0.3271 -0.6682
vn -0.2446 0.3271 -0.9128
vn 0.6682 -0.3271 -0.6682
vn 0.2446 0.3271 0.9128
vn 0.9128 0.3271 -0.2446
vn -0.9128 0.3271 -0.2446
vn 0.2446 0.3271 -0.9128
vn -0.7000 0.1419 0.7000
vn -0.2562 0.1419 0.9562
vn 0.7000 0.1419 0.7000
vn 0.9562 0.1419 0.2562
vn -0.2562 0.1419 -0.9562
vn -0.7000 -0.1419 -0.7000
vn 0.7000 0.1419 -0.7000
vn 0.2562 0.1419 -0.9562
vn -0.9562 0.1419 0.2562
vn -0.7071 -0.0000 0.7071
vn 0.2562 0.1419 0.9562
vn -0.9562 -0.1419 0.2562
vn 0.9562 0.1419 -0.2562
vn -0.2562 -0.1419 0.9562
vn -0.9562 0.1419 -0.2562
vn 0.9562 -0.1419 0.2562
vn -0.7000 -0.1419 0.7000
vn 0.2562 -0.1419 0.9562
vn 0.7000 -0.1419 0.7000
vn 0.9562 -0.1419 -0.2562
vn -0.7000 0.1419 -0.7000
vn -0.9562 -0.1419 -0.2562
vn 0.7000 -0.1419 -0.7000
vn -0.2562 -0.1419 -0.9562
vn -0.2446 -0.3271 0.9128
vn -0.9128 -0.3271 0.2446
vn 0.2446 -0.3271 0.9128
vn -0.2446 -0.3271 -0.9128
vn 0.9128 -0.3271 0.2446
vn 0.6682 -0.3271 0.6682
vn -0.6682 -0.3271 0.6682
vn 0.9128 -0.3271 -0.2446
vn -0.6682 -0.3271 -0.6682
vn -0.9128 -0.3271 -0.2446
vn 0.2446 -0.3271 -0.9128
vn 0.2437 -0.3371 -0.9094
vn -0.9094 -0.3371 -0.2437
vn -0.6657 -0.3371 -0.6657
vn 0.9094 -0.3371 -0.2437
vn -0.6657 -0.3371 0.6657
vn 0.6657 -0.3371 0.6657
vn 0.9094 -0.3371 0.2437
vn -0.2437 -0.3371 -0.9094
vn 0.2437 -0.3371 0.9094
vn -0.9094 -0.3371 0.2437
vn -0.2437 -0.3371 0.9094
vn 0.6657 -0.3371 -0.6657
vn -0.0000 1.0000 -0.0000
vn -0.0000 -1.0000 -0.0000
vn -0.7046 -0.0844 0.7046
vn 0.9625 -0.0844 0.2579
vn 0.7046 0.0844 -0.7046
vn 0.9625 -0.0844 -0.2579
vn 0.7046 0.0844 0.7046
vn -0.2579 0.0844 0.9625
vn 0.2579 0.0844 0.9625
vn -0.2579 -0.0844 0.9625
vn 0.7046 -0.0844 -0.7046
vn 0.2579 0.0844 -0.9625
vn 0.7046 -0.0844 0.7046
vn -0.9625 0.0844 -0.2579
vn 0.2562 -0.1419 -0.9562
vn 0.7071 -0.0000 0.7071
vn -0.2588 -0.0000 -0.9659
vn 0.7071 -0.0000 -0.7071
vn -0.9659 -0.0000 0.2588
vn 0.2588 -0.0000 0.9659
vn 0.9659 -0.0000 -0.2588
vn -0.9659 -0.0000 -0.2588
vn -0.2588 -0.0000 0.9659
vn 0.9659 -0.0000 0.2588
vn -0.7071 -0.0000 -0.7071
vn 0.2588 -0.0000 -0.9659
vn -0.9625 -0.0844 0.2579
vn 0.9625 0.0844 0.2579
vn -0.2579 -0.0844 -0.9625
vn 0.9625 0.0844 -0.2579
vn -0.7046 -0.0844 -0.7046
vn -0.9625 -0.0844 -0.2579
vn -0.7046 0.0844 0.7046
vn -0.9625 0.0844 0.2579
vn -0.7046 0.0844 -0.7046
vn -0.2579 0.0844 -0.9625
vn 0.2579 -0.0844 0.9625
vn 0.2579 -0.0844 -0.9625
vn 0.6238 0.4708 0.6238
vn -0.8522 0.4708 0.2283
vn 0.2283 0.4708 0.8522
vn 0.2283 0.4708 -0.8522
vn -0.6238 0.4708 0.6238
vn -0.6238 0.4708 -0.6238
vn 0.8522 0.4708 -0.2283
vn 0.8522 0.4708 0.2283
vn -0.8522 0.4708 -0.2283
vn 0.6238 0.4708 -0.6238
vn -0.2283 0.4708 0.8522
vn -0.2283 0.4708 -0.8522
vn 0.6768 0.2898 0.6768
vn 0.5663 0.5988 -0.5663
vn -0.9245 0.2898 0.2477
vn 0.2477 0.2898 0.9245
vn 0.2477 0.2898 -0.9245
vn -0.6768 0.2898 0.6768
vn -0.6768 0.2898 -0.6768
vn 0.9245 0.2898 -0.2477
vn 0.9245 0.2898 0.2477
vn -0.9245 0.2898 -0.2477
vn 0.6768 0.2898 -0.6768
vn -0.2477 0.2898 0.9245
vn -0.2477 0.2898 -0.9245
vn 0.5663 0.5988 0.5663
vn -0.7736 0.5988 0.2073
vn -0.7736 0.5988 -0.2073
vn 0.7736 0.5988 0.2073
vn -0.5663 0.5988 0.5663
vn 0.2073 0.5988 -0.7736
vn 0.2073 0.5988 0.7736
vn -0.5663 0.5988 -0.5663
vn 0.7736 0.5988 -0.2073
vn -0.2073 0.5988 -0.7736
vn -0.2073 0.5988 0.7736
vt 0.348098 0.508216
vt 0.349867 0.495057
vt 0.348435 0.495057
vt 0.349283 0.508216
vt 0.343089 0.495057
vt 0.344858 0.508216
vt 0.343673 0.508216
vt 0.350391 0.495057
vt 0.346478 0.495057
vt 0.344521 0.495057
vt 0.342565 0.495057
vt 0.343239 0.508216
vt 0.346478 0.508216
vt 0.349867 0.453021
vt 0.348137 0.441416
vt 0.348435 0.453021
vt 0.349717 0.508216
vt 0.342963 0.488192
vt 0.346478 0.488192
vt 0.344449 0.488192
vt 0.348508 0.488192
vt 0.350537 0.488192
vt 0.349993 0.488192
vt 0.343089 0.453021
vt 0.344449 0.459886
vt 0.344521 0.453021
vt 0.342419 0.488192
vt 0.342993 0.485460
vt 0.344466 0.462617
vt 0.344466 0.485460
vt 0.342419 0.459886
vt 0.342565 0.453021
vt 0.346478 0.453021
vt 0.350391 0.453021
vt 0.349993 0.459886
vt 0.342963 0.459886
vt 0.346478 0.459886
vt 0.348508 0.459886
vt 0.350537 0.459886
vt 0.346478 0.441416
vt 0.343159 0.441416
vt 0.343604 0.441416
vt 0.344819 0.441416
vt 0.349797 0.441416
vt 0.349352 0.441416
vt 0.348195 0.441416
vt 0.346478 0.439862
vt 0.343504 0.441416
vt 0.343127 0.439862
vt 0.343045 0.441416
vt 0.344761 0.441416
vt 0.343576 0.439862
vt 0.349912 0.441416
vt 0.349380 0.439862
vt 0.349452 0.441416
vt 0.344802 0.439862
vt 0.349829 0.439862
vt 0.348154 0.439862
vt 0.350503 0.485460
vt 0.348490 0.462617
vt 0.349964 0.462617
vt 0.349964 0.485460
vt 0.349964 0.462617
vt 0.348490 0.462617
vt 0.346478 0.462617
vt 0.346478 0.485460
vt 0.348490 0.485460
vt 0.346478 0.462617
vt 0.342453 0.462617
vt 0.342993 0.462617
vt 0.344466 0.462617
vt 0.342453 0.485460
vt 0.342993 0.462617
vt 0.350503 0.462617
vt 0.459120 0.639182
vt 0.456569 0.639182
vt 0.457845 0.639182
vt 0.708403 0.624910
vt 0.709395 0.705767
vt 0.709395 0.624910
vt 0.459083 0.769501
vt 0.458581 0.639182
vt 0.456606 0.769501
vt 0.456372 0.639182
vt 0.458559 0.769501
vt 0.457845 0.769501
vt 0.457130 0.769501
vt 0.457108 0.639182
vt 0.459317 0.639182
vt 0.459274 0.769501
vt 0.456415 0.769501
vt 0.454867 0.694912
vt 0.457845 0.694912
vt 0.460822 0.694912
vt 0.708403 0.705767
vt 0.709494 0.705767
vt 0.707046 0.624910
vt 0.705690 0.705767
vt 0.705690 0.624910
vt 0.707046 0.705767
vt 0.704697 0.624910
vt 0.704334 0.705767
vt 0.704334 0.624910
vt 0.704697 0.705767
vt 0.709759 0.705767
vt 0.709759 0.624910
vt 0.708434 0.756975
vt 0.708459 0.705767
vt 0.705633 0.705767
vt 0.704220 0.705767
vt 0.704599 0.705767
vt 0.709872 0.705767
vt 0.705723 0.756975
vt 0.704873 0.700534
vt 0.704754 0.756975
vt 0.704271 0.756975
vt 0.707046 0.756975
vt 0.704643 0.756975
vt 0.705658 0.756975
vt 0.709822 0.756975
vt 0.709450 0.756975
vt 0.709693 0.756975
vt 0.704399 0.756975
vt 0.709339 0.756975
vt 0.708370 0.756975
vt 0.707046 0.700534
vt 0.709219 0.700534
vt 0.705792 0.700534
vt 0.709555 0.700534
vt 0.708301 0.700534
vt 0.704537 0.700534
vt 0.459563 0.694912
vt 0.456126 0.694912
vt 0.454407 0.694912
vt 0.461282 0.694912
s 0
usemtl Texture_Map
f 12/1/1 52/2/1 26/3/1
f 55/3/2 9/4/2 8/1/2
f 58/5/3 6/6/3 5/7/3
f 40/8/4 9/4/4 38/2/4
f 46/9/5 6/6/5 44/10/5
f 49/11/6 5/7/6 4/12/6
f 34/5/7 2/6/7 32/10/7
f 28/9/8 2/6/8 1/13/8
f 53/14/9 24/15/9 25/16/9
f 55/3/10 7/13/10 46/9/10
f 40/8/11 11/4/11 10/17/11
f 49/11/12 3/7/12 34/5/12
f 28/9/13 12/1/13 26/3/13
f 107/18/14 44/10/14 58/5/14
f 99/19/15 44/10/15 98/20/15
f 105/21/16 38/2/16 55/3/16
f 95/22/17 38/2/17 94/23/17
f 87/19/18 32/10/18 28/9/18
f 35/24/19 89/25/19 31/26/19
f 103/23/20 26/3/20 52/2/20
f 87/19/21 26/3/21 86/21/21
f 101/27/22 58/5/22 49/11/22
f 54/28/23 60/29/23 57/30/23
f 105/21/24 46/9/24 99/19/24
f 59/24/25 102/31/25 50/32/25
f 95/22/26 52/2/26 40/8/26
f 47/33/27 97/25/27 43/26/27
f 101/27/28 34/5/28 91/18/28
f 41/34/29 93/35/29 37/14/29
f 59/24/30 97/25/30 108/36/30
f 56/16/31 100/37/31 47/33/31
f 56/16/32 93/35/32 106/38/32
f 41/34/33 104/35/33 96/39/33
f 91/18/34 32/10/34 90/20/34
f 50/32/35 92/36/35 35/24/35
f 53/14/36 85/38/36 104/35/36
f 29/33/37 89/25/37 88/37/37
f 43/26/38 15/40/38 47/33/38
f 59/24/39 19/41/39 13/42/39
f 56/16/40 15/40/40 16/15/40
f 31/26/41 22/40/41 21/43/41
f 37/14/42 18/44/42 41/34/42
f 37/14/43 16/15/43 17/45/43
f 43/26/44 13/42/44 14/43/44
f 53/14/45 18/44/45 23/45/45
f 31/26/46 20/42/46 35/24/46
f 35/24/47 19/41/47 50/32/47
f 25/16/48 22/40/48 29/33/48
f 80/46/49 62/47/49 81/40/49
f 75/48/50 64/49/50 76/50/50
f 79/51/51 63/52/51 75/48/51
f 82/53/52 71/54/52 83/55/52
f 78/48/53 66/56/53 84/51/53
f 74/46/54 69/54/54 77/55/54
f 77/55/55 70/57/55 82/53/55
f 81/40/56 61/56/56 79/51/56
f 73/40/57 68/58/57 74/46/57
f 76/50/58 65/52/58 78/48/58
f 84/51/59 67/47/59 73/40/59
f 83/55/60 72/58/60 80/46/60
f 82/53/61 79/51/61 84/51/61
f 65/52/62 63/52/62 71/54/62
f 98/20/63 54/28/63 57/30/63
f 94/23/64 117/59/64 95/22/64
f 104/35/65 109/60/65 112/61/65
f 103/23/66 117/59/66 111/62/66
f 106/38/67 48/63/67 39/64/67
f 100/37/68 60/29/68 97/25/68
f 106/38/69 116/65/69 100/37/69
f 98/20/70 115/66/70 99/19/70
f 86/21/71 111/62/71 110/67/71
f 85/38/72 27/68/72 109/60/72
f 94/23/73 42/67/73 45/62/73
f 92/36/74 114/69/74 120/70/74
f 29/33/75 85/38/75 25/16/75
f 45/62/76 39/64/76 48/63/76
f 30/66/77 36/71/77 33/30/77
f 110/67/78 112/61/78 109/60/78
f 113/72/79 51/73/79 54/28/79
f 115/66/80 39/64/80 42/67/80
f 117/59/81 112/61/81 111/62/81
f 113/72/82 120/70/82 114/69/82
f 57/30/83 116/65/83 115/66/83
f 45/62/84 118/74/84 117/59/84
f 33/30/85 120/70/85 119/28/85
f 110/67/86 27/68/86 30/66/86
f 107/18/87 113/72/87 54/28/87
f 93/35/88 118/74/88 48/63/88
f 90/20/89 30/66/89 33/30/89
f 104/35/90 118/74/90 96/39/90
f 90/20/91 119/28/91 91/18/91
f 91/18/92 113/72/92 101/27/92
f 108/36/93 60/29/93 51/73/93
f 108/36/94 114/69/94 102/31/94
f 92/36/95 36/71/95 89/25/95
f 89/25/96 27/68/96 88/37/96
f 105/21/97 115/66/97 42/67/97
f 86/21/98 30/66/98 87/19/98
f 124/75/62 128/76/62 132/77/62
f 133/78/78 167/79/78 143/80/78
f 147/81/99 125/82/99 124/75/99
f 152/83/100 129/84/100 128/76/100
f 156/85/101 126/77/101 125/82/101
f 146/86/102 121/82/102 132/77/102
f 149/87/103 128/76/103 127/88/103
f 154/83/104 131/88/104 130/76/104
f 155/81/105 123/89/105 122/75/105
f 148/90/106 124/75/106 123/89/106
f 151/91/107 130/76/107 129/84/107
f 145/85/108 122/75/108 121/82/108
f 150/86/109 127/88/109 126/77/109
f 153/87/110 132/77/110 131/88/110
f 154/92/61 150/93/61 155/94/61
f 157/95/62 179/96/62 167/79/62
f 138/97/83 161/98/83 137/99/83
f 141/99/77 158/100/77 134/97/77
f 135/80/76 168/95/76 144/78/76
f 140/101/79 163/102/79 139/103/79
f 144/78/80 162/100/80 138/97/80
f 134/97/86 157/95/86 133/78/86
f 137/99/23 164/104/23 140/101/23
f 142/101/85 165/98/85 141/99/85
f 143/80/81 160/105/81 136/106/81
f 136/106/84 159/79/84 135/80/84
f 139/103/82 166/104/82 142/101/82
f 171/96/111 204/107/111 180/108/111
f 162/100/62 173/109/62 161/98/62
f 165/98/62 170/100/62 158/100/62
f 159/79/62 180/108/62 168/95/62
f 164/104/62 175/110/62 163/102/62
f 168/95/62 174/100/62 162/100/62
f 158/100/62 169/108/62 157/95/62
f 161/98/62 176/111/62 164/104/62
f 166/104/62 177/109/62 165/98/62
f 167/79/62 172/112/62 160/105/62
f 160/105/62 171/96/62 159/79/62
f 163/102/62 178/111/62 166/104/62
f 185/113/112 212/114/112 188/115/112
f 176/111/113 199/116/113 175/110/113
f 180/108/114 198/117/114 174/100/114
f 170/100/115 193/107/115 169/108/115
f 173/109/116 200/118/116 176/111/116
f 178/111/117 201/119/117 177/109/117
f 179/96/118 196/120/118 172/112/118
f 172/112/119 195/121/119 171/96/119
f 175/110/120 202/118/120 178/111/120
f 169/108/121 203/121/121 179/96/121
f 174/100/122 197/119/122 173/109/122
f 177/109/123 194/117/123 170/100/123
f 182/117/61 193/107/61 194/117/61
f 184/122/61 195/121/61 196/120/61
f 186/117/61 197/119/61 198/117/61
f 187/123/61 200/118/61 188/115/61
f 189/113/61 202/118/61 190/115/61
f 191/124/61 193/107/61 181/125/61
f 192/125/61 195/121/61 183/124/61
f 188/115/61 197/119/61 185/113/61
f 187/123/61 202/118/61 199/116/61
f 182/117/61 201/119/61 189/113/61
f 186/117/61 204/107/61 192/125/61
f 184/122/61 203/121/61 191/124/61
f 214/114/61 210/126/61 215/127/61
f 190/115/124 213/128/124 189/113/124
f 184/122/125 215/127/125 208/129/125
f 184/122/126 207/127/126 183/124/126
f 187/123/127 214/114/127 190/115/127
f 181/125/128 215/127/128 191/124/128
f 186/117/129 209/128/129 185/113/129
f 182/117/130 213/128/130 206/126/130
f 183/124/131 216/130/131 192/125/131
f 187/123/132 212/114/132 211/131/132
f 186/117/133 216/130/133 210/126/133
f 182/117/134 205/130/134 181/125/134
f 12/1/1 11/4/1 52/2/1
f 55/3/2 38/2/2 9/4/2
f 58/5/3 44/10/3 6/6/3
f 40/8/4 10/17/4 9/4/4
f 46/9/5 7/13/5 6/6/5
f 49/11/6 58/5/6 5/7/6
f 34/5/7 3/7/7 2/6/7
f 28/9/8 32/10/8 2/6/8
f 53/14/9 23/45/9 24/15/9
f 55/3/10 8/1/10 7/13/10
f 40/8/11 52/2/11 11/4/11
f 49/11/12 4/12/12 3/7/12
f 28/9/13 1/13/13 12/1/13
f 107/18/14 98/20/14 44/10/14
f 99/19/15 46/9/15 44/10/15
f 105/21/16 94/23/16 38/2/16
f 95/22/17 40/8/17 38/2/17
f 87/19/18 90/20/18 32/10/18
f 35/24/19 92/36/19 89/25/19
f 103/23/20 86/21/20 26/3/20
f 87/19/21 28/9/21 26/3/21
f 101/27/22 107/18/22 58/5/22
f 54/28/23 51/73/23 60/29/23
f 105/21/24 55/3/24 46/9/24
f 59/24/25 108/36/25 102/31/25
f 95/22/26 103/23/26 52/2/26
f 47/33/27 100/37/27 97/25/27
f 101/27/28 49/11/28 34/5/28
f 41/34/29 96/39/29 93/35/29
f 59/24/30 43/26/30 97/25/30
f 56/16/31 106/38/31 100/37/31
f 56/16/32 37/14/32 93/35/32
f 41/34/33 53/14/33 104/35/33
f 91/18/34 34/5/34 32/10/34
f 50/32/35 102/31/35 92/36/35
f 53/14/36 25/16/36 85/38/36
f 29/33/37 31/26/37 89/25/37
f 43/26/38 14/43/38 15/40/38
f 59/24/39 50/32/39 19/41/39
f 56/16/40 47/33/40 15/40/40
f 31/26/41 29/33/41 22/40/41
f 37/14/42 17/45/42 18/44/42
f 37/14/43 56/16/43 16/15/43
f 43/26/44 59/24/44 13/42/44
f 53/14/45 41/34/45 18/44/45
f 31/26/46 21/43/46 20/42/46
f 35/24/47 20/42/47 19/41/47
f 25/16/48 24/15/48 22/40/48
f 80/46/49 72/58/49 62/47/49
f 75/48/50 63/52/50 64/49/50
f 79/51/51 61/56/51 63/52/51
f 82/53/52 70/57/52 71/54/52
f 78/48/53 65/52/53 66/56/53
f 74/46/54 68/58/54 69/54/54
f 77/55/55 69/54/55 70/57/55
f 81/40/56 62/47/56 61/56/56
f 73/40/57 67/47/57 68/58/57
f 76/50/58 64/49/58 65/52/58
f 84/51/59 66/56/59 67/47/59
f 83/55/60 71/54/60 72/58/60
f 84/51/61 73/40/61 74/46/61
f 74/46/61 77/55/61 82/53/61
f 82/53/61 83/55/61 80/46/61
f 80/46/61 81/40/61 79/51/61
f 79/51/61 75/48/61 76/50/61
f 76/50/61 78/48/61 79/51/61
f 78/48/61 84/51/61 79/51/61
f 84/51/61 74/46/61 82/53/61
f 82/53/61 80/46/61 79/51/61
f 63/52/62 61/56/62 62/47/62
f 62/47/62 72/58/62 71/54/62
f 71/54/62 70/57/62 69/54/62
f 69/54/62 68/58/62 67/47/62
f 67/47/62 66/56/62 65/52/62
f 65/52/62 64/49/62 63/52/62
f 63/52/62 62/47/62 71/54/62
f 71/54/62 69/54/62 67/47/62
f 67/47/62 65/52/62 71/54/62
f 98/20/63 107/18/63 54/28/63
f 94/23/64 45/62/64 117/59/64
f 104/35/65 85/38/65 109/60/65
f 103/23/66 95/22/66 117/59/66
f 106/38/67 93/35/67 48/63/67
f 100/37/68 116/65/68 60/29/68
f 106/38/69 39/64/69 116/65/69
f 98/20/70 57/30/70 115/66/70
f 86/21/71 103/23/71 111/62/71
f 85/38/72 88/37/72 27/68/72
f 94/23/73 105/21/73 42/67/73
f 92/36/74 102/31/74 114/69/74
f 29/33/75 88/37/75 85/38/75
f 45/62/76 42/67/76 39/64/76
f 30/66/77 27/68/77 36/71/77
f 110/67/78 111/62/78 112/61/78
f 113/72/79 114/69/79 51/73/79
f 115/66/80 116/65/80 39/64/80
f 117/59/81 118/74/81 112/61/81
f 113/72/82 119/28/82 120/70/82
f 57/30/83 60/29/83 116/65/83
f 45/62/84 48/63/84 118/74/84
f 33/30/85 36/71/85 120/70/85
f 110/67/86 109/60/86 27/68/86
f 107/18/87 101/27/87 113/72/87
f 93/35/88 96/39/88 118/74/88
f 90/20/89 87/19/89 30/66/89
f 104/35/90 112/61/90 118/74/90
f 90/20/91 33/30/91 119/28/91
f 91/18/92 119/28/92 113/72/92
f 108/36/93 97/25/93 60/29/93
f 108/36/94 51/73/94 114/69/94
f 92/36/95 120/70/95 36/71/95
f 89/25/96 36/71/96 27/68/96
f 105/21/97 99/19/97 115/66/97
f 86/21/98 110/67/98 30/66/98
f 132/77/62 121/82/62 124/75/62
f 121/82/62 122/75/62 124/75/62
f 122/75/62 123/89/62 124/75/62
f 124/75/62 125/82/62 126/77/62
f 126/77/62 127/88/62 128/76/62
f 128/76/62 129/84/62 130/76/62
f 130/76/62 131/88/62 132/77/62
f 124/75/62 126/77/62 128/76/62
f 128/76/62 130/76/62 132/77/62
f 133/78/78 157/95/78 167/79/78
f 147/81/99 156/85/99 125/82/99
f 152/83/100 151/91/100 129/84/100
f 156/85/101 150/86/101 126/77/101
f 146/86/102 145/85/102 121/82/102
f 149/87/103 152/83/103 128/76/103
f 154/83/104 153/87/104 131/88/104
f 155/81/105 148/90/105 123/89/105
f 148/90/106 147/81/106 124/75/106
f 151/91/107 154/83/107 130/76/107
f 145/85/108 155/81/108 122/75/108
f 150/86/109 149/87/109 127/88/109
f 153/87/110 146/86/110 132/77/110
f 155/94/61 145/132/61 146/93/61
f 146/93/61 153/133/61 155/94/61
f 153/133/61 154/92/61 155/94/61
f 154/92/61 151/134/61 152/92/61
f 152/92/61 149/133/61 150/93/61
f 150/93/61 156/132/61 147/94/61
f 147/94/61 148/135/61 155/94/61
f 154/92/61 152/92/61 150/93/61
f 150/93/61 147/94/61 155/94/61
f 157/95/62 169/108/62 179/96/62
f 138/97/83 162/100/83 161/98/83
f 141/99/77 165/98/77 158/100/77
f 135/80/76 159/79/76 168/95/76
f 140/101/79 164/104/79 163/102/79
f 144/78/80 168/95/80 162/100/80
f 134/97/86 158/100/86 157/95/86
f 137/99/23 161/98/23 164/104/23
f 142/101/85 166/104/85 165/98/85
f 143/80/81 167/79/81 160/105/81
f 136/106/84 160/105/84 159/79/84
f 139/103/82 163/102/82 166/104/82
f 171/96/111 195/121/111 204/107/111
f 162/100/62 174/100/62 173/109/62
f 165/98/62 177/109/62 170/100/62
f 159/79/62 171/96/62 180/108/62
f 164/104/62 176/111/62 175/110/62
f 168/95/62 180/108/62 174/100/62
f 158/100/62 170/100/62 169/108/62
f 161/98/62 173/109/62 176/111/62
f 166/104/62 178/111/62 177/109/62
f 167/79/62 179/96/62 172/112/62
f 160/105/62 172/112/62 171/96/62
f 163/102/62 175/110/62 178/111/62
f 185/113/112 209/128/112 212/114/112
f 176/111/113 200/118/113 199/116/113
f 180/108/114 204/107/114 198/117/114
f 170/100/115 194/117/115 193/107/115
f 173/109/116 197/119/116 200/118/116
f 178/111/117 202/118/117 201/119/117
f 179/96/118 203/121/118 196/120/118
f 172/112/119 196/120/119 195/121/119
f 175/110/120 199/116/120 202/118/120
f 169/108/121 193/107/121 203/121/121
f 174/100/122 198/117/122 197/119/122
f 177/109/123 201/119/123 194/117/123
f 182/117/61 181/125/61 193/107/61
f 184/122/61 183/124/61 195/121/61
f 186/117/61 185/113/61 197/119/61
f 187/123/61 199/116/61 200/118/61
f 189/113/61 201/119/61 202/118/61
f 191/124/61 203/121/61 193/107/61
f 192/125/61 204/107/61 195/121/61
f 188/115/61 200/118/61 197/119/61
f 187/123/61 190/115/61 202/118/61
f 182/117/61 194/117/61 201/119/61
f 186/117/61 198/117/61 204/107/61
f 184/122/61 196/120/61 203/121/61
f 215/127/61 205/130/61 206/126/61
f 206/126/61 213/128/61 214/114/61
f 214/114/61 211/131/61 212/114/61
f 212/114/61 209/128/61 210/126/61
f 210/126/61 216/130/61 207/127/61
f 207/127/61 208/129/61 215/127/61
f 215/127/61 206/126/61 214/114/61
f 214/114/61 212/114/61 210/126/61
f 210/126/61 207/127/61 215/127/61
f 190/115/124 214/114/124 213/128/124
f 184/122/125 191/124/125 215/127/125
f 184/122/126 208/129/126 207/127/126
f 187/123/127 211/131/127 214/114/127
f 181/125/128 205/130/128 215/127/128
f 186/117/129 210/126/129 209/128/129
f 182/117/130 189/113/130 213/128/130
f 183/124/131 207/127/131 216/130/131
f 187/123/132 188/115/132 212/114/132
f 186/117/133 192/125/133 216/130/133
f 182/117/134 206/126/134 205/130/134
