# Blender 4.4.0
# www.blender.org
mtllib Prop_Crate_Box_Open_02.mtl
o Prop_Crate_Box_Open_02
v -0.828461 0.041251 0.425301
v -0.828461 0.041251 -0.425301
v -0.828461 0.500369 0.425301
v -0.828461 0.500369 -0.425301
v -0.828461 0.344525 -0.425301
v -0.828461 0.350134 -0.425301
v -0.828461 0.191486 -0.425301
v -0.828461 0.197095 -0.425301
v -0.828461 0.197095 0.425301
v -0.828461 0.191486 0.425301
v -0.828461 0.350134 0.425301
v -0.828461 0.344525 0.425301
v -0.800497 0.041251 -0.425301
v -0.800497 0.500369 0.425301
v 0.828461 0.041251 0.425301
v 0.828461 0.041251 -0.425301
v 0.828461 0.500369 0.425301
v 0.828461 0.500369 -0.425301
v 0.828461 0.344525 -0.425301
v 0.828461 0.350134 -0.425301
v 0.828461 0.191486 -0.425301
v 0.828461 0.197095 -0.425301
v 0.828461 0.197095 0.425301
v 0.828461 0.191486 0.425301
v 0.828461 0.350134 0.425301
v 0.828461 0.344525 0.425301
v 0.800497 0.041251 -0.425301
v 0.800497 0.500369 -0.425301
v 0.800497 0.197095 -0.425301
v 0.800497 0.197095 0.425301
v 0.800497 0.191486 -0.425301
v 0.800497 0.041251 0.451385
v 0.830029 0.041251 0.451385
v 0.830029 0.041251 0.425301
v 0.800497 0.500369 0.451385
v 0.830029 0.500369 0.451385
v 0.830029 0.500369 0.425301
v -0.800497 0.041251 0.451385
v -0.830029 0.041251 0.451385
v -0.830029 0.041251 0.425301
v -0.800497 0.500369 0.451385
v -0.830029 0.500369 0.451385
v -0.830029 0.500369 0.425301
v 0.800497 0.041251 -0.451385
v 0.830029 0.041251 -0.451385
v 0.830029 0.041251 -0.425301
v 0.800497 0.500369 -0.451385
v 0.830029 0.500369 -0.451385
v 0.830029 0.500369 -0.425301
v -0.800497 0.041251 -0.451385
v -0.830029 0.041251 -0.451385
v -0.830029 0.041251 -0.425301
v -0.800497 0.500369 -0.451385
v -0.830029 0.500369 -0.451385
v -0.830029 0.500369 -0.425301
v -0.819045 0.020626 0.391871
v 0.819045 0.020626 0.391871
v -0.819045 0.020626 0.291703
v 0.819045 0.020626 0.291703
v -0.819045 0.000000 0.291703
v -0.819045 0.000000 0.391871
v 0.819045 0.000000 0.391871
v 0.819045 0.000000 0.291703
v -0.819045 0.020626 -0.391871
v 0.819045 0.020626 -0.391871
v -0.819045 0.020626 -0.291703
v 0.819045 0.020626 -0.291703
v -0.819045 0.000000 -0.291703
v -0.819045 0.000000 -0.391871
v 0.819045 0.000000 -0.391871
v 0.819045 0.000000 -0.291703
v -0.833134 0.041251 0.452538
v 0.833134 0.041251 0.452538
v -0.833134 0.041251 -0.452538
v 0.833134 0.041251 -0.452538
v -0.833134 0.020626 -0.452538
v -0.833134 0.020626 0.452538
v 0.833134 0.020626 0.452538
v 0.833134 0.020626 -0.452538
v -0.800497 0.500369 0.450000
v 0.800497 0.500369 0.450000
v 0.800497 0.041251 0.450000
v -0.800497 0.041251 0.450000
v -0.800497 0.344525 0.450000
v -0.800497 0.350134 0.450000
v -0.800497 0.191486 0.450000
v -0.800497 0.197095 0.450000
v 0.800497 0.197095 0.450000
v 0.800497 0.191486 0.450000
v 0.800497 0.350134 0.450000
v 0.800497 0.344525 0.450000
v 0.800497 0.500369 0.425301
v 0.800497 0.041251 0.425301
v -0.800497 0.041251 0.425301
v -0.800497 0.197095 0.425301
v -0.800497 0.191486 0.425301
v 0.800497 0.191486 0.425301
v 0.800497 0.350134 0.425301
v -0.800497 0.350134 0.425301
v -0.800497 0.344525 0.425301
v 0.800497 0.344525 0.425301
v -0.800497 0.500369 -0.450000
v 0.800497 0.500369 -0.450000
v 0.800497 0.041251 -0.450000
v -0.800497 0.041251 -0.450000
v -0.800497 0.344525 -0.450000
v -0.800497 0.350134 -0.450000
v -0.800497 0.191486 -0.450000
v -0.800497 0.197095 -0.450000
v 0.800497 0.197095 -0.450000
v 0.800497 0.191486 -0.450000
v 0.800497 0.350134 -0.450000
v 0.800497 0.344525 -0.450000
v -0.800497 0.500369 -0.425301
v -0.800497 0.197095 -0.425301
v -0.800497 0.191486 -0.425301
v 0.800497 0.350134 -0.425301
v -0.800497 0.350134 -0.425301
v -0.800497 0.344525 -0.425301
v 0.800497 0.344525 -0.425301
vn -1.0000 -0.0000 -0.0000
vn 1.0000 -0.0000 -0.0000
vn -0.0000 1.0000 -0.0000
vn -0.0000 -1.0000 -0.0000
vn -0.0000 -0.0000 1.0000
vn -0.0000 -0.0000 -1.0000
vt 0.610526 0.863030
vt 0.610526 0.895055
vt 0.601583 0.881531
vt 0.601583 0.898525
vt 0.610526 0.928872
vt 0.610526 0.960897
vt 0.610568 0.895055
vt 0.610568 0.863030
vt 0.601606 0.898525
vt 0.601606 0.881531
vt 0.610568 0.960897
vt 0.610568 0.928872
vt 0.613050 0.895055
vt 0.613050 0.863030
vt 0.602948 0.898525
vt 0.602948 0.881531
vt 0.613050 0.960897
vt 0.613050 0.928872
vt 0.613007 0.863030
vt 0.613007 0.895055
vt 0.602925 0.881531
vt 0.602925 0.898525
vt 0.613007 0.928872
vt 0.613007 0.960897
vt 0.593779 0.815642
vt 0.593192 0.857143
vt 0.593192 0.815642
vt 0.593779 0.857143
vt 0.593465 0.857143
vt 0.592877 0.815642
vt 0.593465 0.815642
vt 0.592877 0.857143
vt 0.203844 0.824057
vt 0.210658 0.824057
vt 0.203844 0.891801
vt 0.210658 0.891801
vt 0.225292 0.869519
vt 0.218361 0.869519
vt 0.218361 0.869519
vt 0.203785 0.891801
vt 0.210717 0.891801
vt 0.203785 0.959544
vt 0.210717 0.959544
vt 0.210717 0.959544
vt 0.203785 0.959544
vt 0.613007 0.896250
vt 0.610568 0.927677
vt 0.610568 0.896250
vt 0.602925 0.899172
vt 0.601606 0.916489
vt 0.601606 0.899172
vt 0.602925 0.863567
vt 0.601606 0.880885
vt 0.601606 0.863567
vt 0.613007 0.927677
vt 0.602925 0.916489
vt 0.602925 0.880885
vt 0.225292 0.869519
s 0
usemtl Texture_Map
f 1/1/1 7/2/1 2/1/1
f 9/3/1 5/4/1 8/3/1
f 11/5/1 4/6/1 6/5/1
f 116/7/2 94/8/2 13/8/2
f 119/9/2 95/10/2 115/10/2
f 114/11/2 99/12/2 118/12/2
f 14/11/3 4/6/3 3/6/3
f 100/9/3 5/4/3 12/4/3
f 115/10/4 9/3/4 8/3/4
f 96/7/3 7/2/3 10/2/3
f 118/12/4 11/5/4 6/5/4
f 21/13/2 15/14/2 16/14/2
f 19/15/2 23/16/2 22/16/2
f 18/17/2 25/18/2 20/18/2
f 93/19/1 31/20/1 27/19/1
f 30/21/1 120/22/1 29/21/1
f 98/23/1 28/24/1 117/23/1
f 17/17/3 28/24/3 92/24/3
f 19/15/3 101/22/3 26/15/3
f 23/16/4 29/21/4 22/16/4
f 24/13/3 31/20/3 97/20/3
f 25/18/4 117/23/4 20/18/4
f 33/25/5 35/26/5 32/27/5
f 34/25/2 36/28/2 33/25/2
f 32/27/1 92/26/1 93/27/1
f 34/25/6 92/26/6 37/28/6
f 41/29/5 39/30/5 38/31/5
f 42/32/1 40/30/1 39/30/1
f 14/29/2 38/31/2 94/31/2
f 40/30/6 14/29/6 94/31/6
f 47/26/6 45/25/6 44/27/6
f 48/28/2 46/25/2 45/25/2
f 28/26/1 44/27/1 27/27/1
f 49/28/5 27/27/5 46/25/5
f 51/30/6 53/29/6 50/31/6
f 52/30/1 54/32/1 51/30/1
f 50/31/2 114/29/2 13/31/2
f 13/31/5 55/32/5 52/30/5
f 60/33/4 62/34/4 61/33/4
f 63/34/6 58/35/6 59/36/6
f 61/33/5 57/36/5 56/35/5
f 62/34/2 59/36/2 57/36/2
f 60/33/1 56/35/1 58/35/1
f 70/34/4 68/33/4 69/33/4
f 66/35/5 71/34/5 67/36/5
f 65/36/6 69/33/6 64/35/6
f 67/36/2 70/34/2 65/36/2
f 64/35/1 68/33/1 66/35/1
f 73/37/3 74/38/3 72/39/3
f 76/40/4 78/41/4 77/40/4
f 79/41/6 74/42/6 75/43/6
f 77/40/5 73/44/5 72/45/5
f 78/41/2 75/43/2 73/44/2
f 76/40/1 72/45/1 74/42/1
f 92/26/3 36/28/3 37/28/3
f 43/32/3 41/29/3 14/29/3
f 49/28/3 47/26/3 28/26/3
f 53/29/3 55/32/3 114/29/3
f 88/46/5 84/47/5 87/48/5
f 90/49/5 80/50/5 85/51/5
f 82/52/5 86/53/5 83/54/5
f 95/48/6 101/55/6 30/46/6
f 14/50/6 98/49/6 99/51/6
f 96/53/6 93/52/6 94/54/6
f 92/56/3 80/50/3 81/56/3
f 99/51/4 90/49/4 85/51/4
f 101/55/3 84/47/3 91/55/3
f 95/48/4 88/46/4 87/48/4
f 97/57/3 86/53/3 89/57/3
f 106/47/6 110/46/6 109/48/6
f 102/50/6 112/49/6 107/51/6
f 108/53/6 104/52/6 105/54/6
f 115/48/5 120/55/5 119/47/5
f 117/49/5 114/50/5 118/51/5
f 27/52/5 116/53/5 13/54/5
f 103/56/3 114/50/3 28/56/3
f 112/49/4 118/51/4 107/51/4
f 106/47/3 120/55/3 113/55/3
f 110/46/4 115/48/4 109/48/4
f 111/57/3 116/53/3 31/57/3
f 1/1/1 10/2/1 7/2/1
f 9/3/1 12/4/1 5/4/1
f 11/5/1 3/6/1 4/6/1
f 116/7/2 96/7/2 94/8/2
f 119/9/2 100/9/2 95/10/2
f 114/11/2 14/11/2 99/12/2
f 14/11/3 114/11/3 4/6/3
f 100/9/3 119/9/3 5/4/3
f 115/10/4 95/10/4 9/3/4
f 96/7/3 116/7/3 7/2/3
f 118/12/4 99/12/4 11/5/4
f 21/13/2 24/13/2 15/14/2
f 19/15/2 26/15/2 23/16/2
f 18/17/2 17/17/2 25/18/2
f 93/19/1 97/20/1 31/20/1
f 30/21/1 101/22/1 120/22/1
f 98/23/1 92/24/1 28/24/1
f 17/17/3 18/17/3 28/24/3
f 19/15/3 120/22/3 101/22/3
f 23/16/4 30/21/4 29/21/4
f 24/13/3 21/13/3 31/20/3
f 25/18/4 98/23/4 117/23/4
f 33/25/5 36/28/5 35/26/5
f 34/25/2 37/28/2 36/28/2
f 32/27/1 35/26/1 92/26/1
f 34/25/6 93/27/6 92/26/6
f 41/29/5 42/32/5 39/30/5
f 42/32/1 43/32/1 40/30/1
f 14/29/2 41/29/2 38/31/2
f 40/30/6 43/32/6 14/29/6
f 47/26/6 48/28/6 45/25/6
f 48/28/2 49/28/2 46/25/2
f 28/26/1 47/26/1 44/27/1
f 49/28/5 28/26/5 27/27/5
f 51/30/6 54/32/6 53/29/6
f 52/30/1 55/32/1 54/32/1
f 50/31/2 53/29/2 114/29/2
f 13/31/5 114/29/5 55/32/5
f 60/33/4 63/34/4 62/34/4
f 63/34/6 60/33/6 58/35/6
f 61/33/5 62/34/5 57/36/5
f 62/34/2 63/34/2 59/36/2
f 60/33/1 61/33/1 56/35/1
f 70/34/4 71/34/4 68/33/4
f 66/35/5 68/33/5 71/34/5
f 65/36/6 70/34/6 69/33/6
f 67/36/2 71/34/2 70/34/2
f 64/35/1 69/33/1 68/33/1
f 73/37/3 75/58/3 74/38/3
f 76/40/4 79/41/4 78/41/4
f 79/41/6 76/40/6 74/42/6
f 77/40/5 78/41/5 73/44/5
f 78/41/2 79/41/2 75/43/2
f 76/40/1 77/40/1 72/45/1
f 92/26/3 35/26/3 36/28/3
f 43/32/3 42/32/3 41/29/3
f 49/28/3 48/28/3 47/26/3
f 53/29/3 54/32/3 55/32/3
f 88/46/5 91/55/5 84/47/5
f 90/49/5 81/56/5 80/50/5
f 82/52/5 89/57/5 86/53/5
f 95/48/6 100/47/6 101/55/6
f 14/50/6 92/56/6 98/49/6
f 96/53/6 97/57/6 93/52/6
f 92/56/3 14/50/3 80/50/3
f 99/51/4 98/49/4 90/49/4
f 101/55/3 100/47/3 84/47/3
f 95/48/4 30/46/4 88/46/4
f 97/57/3 96/53/3 86/53/3
f 106/47/6 113/55/6 110/46/6
f 102/50/6 103/56/6 112/49/6
f 108/53/6 111/57/6 104/52/6
f 115/48/5 29/46/5 120/55/5
f 117/49/5 28/56/5 114/50/5
f 27/52/5 31/57/5 116/53/5
f 103/56/3 102/50/3 114/50/3
f 112/49/4 117/49/4 118/51/4
f 106/47/3 119/47/3 120/55/3
f 110/46/4 29/46/4 115/48/4
f 111/57/3 108/53/3 116/53/3
o Prop_Crate_Box_Open_Top_02
v 0.848583 0.522662 -0.460929
v 0.848583 0.522662 0.460929
v -0.848582 0.522662 0.460929
v -0.848582 0.522662 -0.460929
v 0.848583 0.522662 0.227966
v 0.848583 0.522662 0.232964
v 0.848583 0.522662 -0.002499
v 0.848583 0.522662 0.002499
v 0.848583 0.522662 -0.232964
v 0.848583 0.522662 -0.227966
v -0.848582 0.522662 -0.227966
v -0.848582 0.522662 -0.232964
v -0.848582 0.522662 0.002499
v -0.848582 0.522662 -0.002499
v -0.848582 0.522662 0.232964
v -0.848582 0.522662 0.227966
v 0.848583 0.500369 -0.460929
v -0.848582 0.500369 -0.460929
v -0.848582 0.500369 0.460929
v 0.848583 0.500369 0.460929
v 0.848583 0.500369 0.227966
v -0.848582 0.500369 0.227966
v -0.848582 0.500369 0.232964
v 0.848583 0.500369 0.232964
v 0.848583 0.500369 -0.002499
v -0.848582 0.500369 -0.002499
v -0.848582 0.500369 0.002499
v 0.848583 0.500369 0.002499
v 0.848583 0.500369 -0.232964
v -0.848582 0.500369 -0.232964
v -0.848582 0.500369 -0.227966
v 0.848583 0.500369 -0.227966
v 0.585729 0.500369 0.425301
v 0.637065 0.500369 0.425301
v 0.585729 0.500369 -0.425301
v 0.637065 0.500369 -0.425301
v 0.585729 0.483354 -0.425301
v 0.585729 0.483354 0.425301
v 0.637065 0.483354 0.425301
v 0.637065 0.483354 -0.425301
v -0.585729 0.500369 0.425301
v -0.637065 0.500369 0.425301
v -0.585729 0.500369 -0.425301
v -0.637065 0.500369 -0.425301
v -0.585729 0.483354 -0.425301
v -0.585729 0.483354 0.425301
v -0.637065 0.483354 0.425301
v -0.637065 0.483354 -0.425301
vn -0.0000 1.0000 -0.0000
vn -0.0000 -1.0000 -0.0000
vn 1.0000 -0.0000 -0.0000
vn -0.0000 -0.0000 1.0000
vn -0.0000 -0.0000 -1.0000
vn -1.0000 -0.0000 -0.0000
vt 0.228355 0.949403
vt 0.225177 0.949403
vt 0.242362 0.918431
vt 0.240334 0.918431
vt 0.225177 0.891104
vt 0.228355 0.891104
vt 0.240334 0.881232
vt 0.242362 0.881232
vt 0.196603 0.977677
vt 0.196603 0.925310
vt 0.195556 0.925310
vt 0.195556 0.977677
s 0
usemtl Texture_Map
f 129/59/7 124/60/7 132/60/7
f 125/59/7 133/60/7 136/60/7
f 127/61/7 131/62/7 134/62/7
f 122/61/7 135/62/7 123/62/7
f 138/63/8 149/64/8 150/63/8
f 147/63/8 141/64/8 142/63/8
f 151/65/8 145/66/8 146/65/8
f 143/65/8 140/66/8 139/65/8
f 145/66/9 130/61/9 127/61/9
f 150/63/10 129/59/10 132/60/10
f 149/64/9 121/59/9 129/59/9
f 152/66/11 131/62/11 130/61/11
f 137/64/11 124/60/11 121/59/11
f 138/63/12 132/60/12 124/60/12
f 143/65/12 123/62/12 135/62/12
f 139/65/10 122/61/10 123/62/10
f 140/66/9 126/61/9 122/61/9
f 142/63/10 125/59/10 136/60/10
f 147/63/12 136/60/12 133/60/12
f 144/66/11 135/62/11 126/61/11
f 141/64/9 128/59/9 125/59/9
f 146/65/10 127/61/10 134/62/10
f 151/65/12 134/62/12 131/62/12
f 148/64/11 133/60/11 128/59/11
f 154/67/7 155/68/7 153/67/7
f 157/69/8 159/70/8 158/70/8
f 160/69/11 155/68/11 156/68/11
f 158/70/10 154/67/10 153/67/10
f 159/70/9 156/68/9 154/67/9
f 157/69/12 153/67/12 155/68/12
f 163/68/7 162/67/7 161/67/7
f 167/70/8 165/69/8 166/70/8
f 163/68/11 168/69/11 164/68/11
f 162/67/10 166/70/10 161/67/10
f 164/68/12 167/70/12 162/67/12
f 161/67/9 165/69/9 163/68/9
f 129/59/7 121/59/7 124/60/7
f 125/59/7 128/59/7 133/60/7
f 127/61/7 130/61/7 131/62/7
f 122/61/7 126/61/7 135/62/7
f 138/63/8 137/64/8 149/64/8
f 147/63/8 148/64/8 141/64/8
f 151/65/8 152/66/8 145/66/8
f 143/65/8 144/66/8 140/66/8
f 145/66/9 152/66/9 130/61/9
f 150/63/10 149/64/10 129/59/10
f 149/64/9 137/64/9 121/59/9
f 152/66/11 151/65/11 131/62/11
f 137/64/11 138/63/11 124/60/11
f 138/63/12 150/63/12 132/60/12
f 143/65/12 139/65/12 123/62/12
f 139/65/10 140/66/10 122/61/10
f 140/66/9 144/66/9 126/61/9
f 142/63/10 141/64/10 125/59/10
f 147/63/12 142/63/12 136/60/12
f 144/66/11 143/65/11 135/62/11
f 141/64/9 148/64/9 128/59/9
f 146/65/10 145/66/10 127/61/10
f 151/65/12 146/65/12 134/62/12
f 148/64/11 147/63/11 133/60/11
f 154/67/7 156/68/7 155/68/7
f 157/69/8 160/69/8 159/70/8
f 160/69/11 157/69/11 155/68/11
f 158/70/10 159/70/10 154/67/10
f 159/70/9 160/69/9 156/68/9
f 157/69/12 158/70/12 153/67/12
f 163/68/7 164/68/7 162/67/7
f 167/70/8 168/69/8 165/69/8
f 163/68/11 165/69/11 168/69/11
f 162/67/10 167/70/10 166/70/10
f 164/68/12 168/69/12 167/70/12
f 161/67/9 166/70/9 165/69/9
