# Blender 4.4.0
# www.blender.org
mtllib Prop_Bed_01.mtl
o Prop_Bed_01
v 0.399829 0.000000 1.010719
v 0.399829 0.405379 1.010719
v 0.489035 0.000000 0.921513
v 0.489035 0.000000 1.010719
v 0.489035 0.405379 0.921513
v 0.489035 0.405379 1.010719
v 0.399829 0.405379 1.020341
v 0.399829 0.000000 1.020341
v 0.498657 0.000000 0.921513
v 0.498656 0.405379 0.921513
v 0.498656 0.000000 1.020341
v 0.498656 0.405379 1.020341
v -0.399829 0.000000 1.010719
v -0.399829 0.405379 1.010719
v -0.489035 0.000000 0.921513
v -0.489035 0.000000 1.010719
v -0.489035 0.405379 0.921513
v -0.489035 0.405379 1.010719
v -0.399829 0.405379 1.020341
v -0.399829 0.000000 1.020341
v -0.498657 0.000000 0.921513
v -0.498657 0.405379 0.921513
v -0.498657 0.000000 1.020341
v -0.498657 0.405379 1.020341
v -0.482048 0.404005 0.970348
v 0.482048 0.404005 0.970348
v -0.482048 0.404005 -0.973667
v 0.482048 0.404005 -0.973667
v -0.482048 0.520151 0.970348
v 0.482048 0.520151 0.970348
v -0.482048 0.404005 -0.513072
v 0.482048 0.404005 -0.513072
v -0.482048 0.482987 -0.973667
v -0.449166 0.520151 -0.973667
v 0.449166 0.520151 -0.973667
v 0.482048 0.482987 -0.973667
v -0.449166 0.520151 -0.513072
v -0.482048 0.482987 -0.513072
v -0.482048 0.520151 -0.480190
v 0.482048 0.482987 -0.513072
v 0.449166 0.520151 -0.513072
v 0.482048 0.520151 -0.480190
v -0.489035 0.404005 1.010719
v 0.489035 0.404005 1.010719
v -0.489035 0.404005 -0.994425
v 0.489035 0.404005 -0.994425
v -0.489035 0.241773 -0.994425
v -0.489035 0.241773 1.010719
v 0.489035 0.241773 1.010719
v 0.489035 0.241773 -0.994425
v 0.399829 0.000000 -0.994425
v 0.399829 0.624747 -0.994425
v 0.489035 -0.000000 -0.905219
v 0.489035 0.000000 -0.994425
v 0.489035 0.624747 -0.905219
v 0.489035 0.624747 -0.994425
v 0.399829 0.624747 -1.020341
v 0.399829 0.000000 -1.020341
v 0.508093 -0.000000 -0.905219
v 0.508093 0.624747 -0.905219
v 0.508093 0.000000 -1.020341
v 0.508093 0.624747 -1.020341
v 0.489035 0.759164 -0.967471
v 0.489035 0.759164 -0.994425
v 0.399829 0.759164 -0.994425
v 0.508093 0.759164 -0.967471
v 0.508093 0.759164 -1.020341
v 0.399829 0.759164 -1.020341
v 0.399829 0.404005 -0.994425
v 0.399829 0.404005 -1.020341
v -0.399829 0.000000 -0.994425
v -0.399829 0.624747 -0.994425
v -0.489035 -0.000000 -0.905219
v -0.489035 0.000000 -0.994425
v -0.489035 0.624747 -0.905219
v -0.489035 0.624747 -0.994425
v -0.399829 0.624747 -1.020341
v -0.399829 0.000000 -1.020341
v -0.508093 -0.000000 -0.905219
v -0.508093 0.624747 -0.905219
v -0.508093 0.000000 -1.020341
v -0.508093 0.624747 -1.020341
v -0.489035 0.759164 -0.967471
v -0.489035 0.759164 -0.994425
v -0.399829 0.759164 -0.994425
v -0.508093 0.759164 -0.967471
v -0.508093 0.759164 -1.020341
v -0.399829 0.759164 -1.020341
v -0.399829 0.404005 -0.994425
v -0.399829 0.404005 -1.020341
v -0.491891 0.539587 0.968481
v -0.502972 0.520718 0.959615
v -0.485943 0.179240 0.998427
v -0.540789 0.246798 0.920395
v -0.529553 0.424094 0.933029
v -0.328809 0.400813 0.998427
v -0.328809 0.467405 0.993984
v -0.328809 0.558703 0.968314
v -0.485791 0.513779 0.975283
v -0.516738 0.501638 0.952146
v -0.328809 0.534796 0.975998
v -0.164405 0.400813 0.998427
v -0.164405 0.571850 0.968314
v -0.164405 0.467699 0.993984
v -0.164405 0.546063 0.975998
v -0.472791 0.541990 -0.546391
v -0.512788 0.514196 -0.538715
v -0.504328 0.202570 -0.575184
v -0.541144 0.243076 -0.553296
v -0.532192 0.422031 -0.564807
v -0.332094 0.574718 -0.567979
v -0.522027 0.495900 -0.563282
v -0.480860 0.434704 -0.599967
v -0.179235 0.583661 -0.579607
v -0.469887 0.535839 -0.638239
v -0.517723 0.513202 -0.629564
v -0.512244 0.204964 -0.663524
v -0.543558 0.200167 -0.634532
v -0.486287 0.436655 -0.664193
v -0.535215 0.424598 -0.648205
v -0.332594 0.557172 -0.660374
v -0.526563 0.501087 -0.648031
v -0.180219 0.554016 -0.672374
v -0.180474 0.518914 -0.687382
v -0.473000 0.545903 -0.569222
v -0.513925 0.516075 -0.561158
v -0.510019 0.203012 -0.599298
v -0.544190 0.200901 -0.575568
v -0.535732 0.422281 -0.587602
v -0.332309 0.578482 -0.591193
v -0.527333 0.497528 -0.586441
v -0.179436 0.585266 -0.603009
v -0.474965 0.434175 -0.575848
v -0.460147 0.506299 -0.591516
v -0.460806 0.504173 -0.655743
v -0.488044 0.402187 0.991539
v -0.332720 0.519262 -0.676097
v -0.494171 0.455176 0.990387
v 0.491891 0.539587 0.968481
v 0.502971 0.520718 0.959615
v 0.485943 0.179240 0.998427
v 0.540789 0.246798 0.920395
v 0.529553 0.424094 0.933029
v 0.328809 0.400813 0.998427
v 0.328809 0.467405 0.993984
v 0.328809 0.558703 0.968314
v 0.485791 0.513779 0.975283
v 0.516738 0.501638 0.952146
v 0.328809 0.534796 0.975998
v 0.164405 0.400813 0.998427
v 0.164405 0.571850 0.968314
v 0.164405 0.467699 0.993984
v 0.164405 0.546063 0.975998
v 0.472791 0.541990 -0.546391
v 0.512788 0.514196 -0.538715
v 0.504328 0.202570 -0.575184
v 0.541144 0.243076 -0.553296
v 0.532192 0.422031 -0.564807
v 0.332094 0.574718 -0.567979
v 0.522027 0.495900 -0.563282
v 0.480860 0.434704 -0.599967
v 0.179234 0.583661 -0.579607
v 0.469887 0.535839 -0.638239
v 0.517723 0.513202 -0.629564
v 0.512244 0.204964 -0.663524
v 0.543558 0.200167 -0.634532
v 0.486287 0.436655 -0.664193
v 0.535215 0.424598 -0.648205
v 0.332594 0.557172 -0.660374
v 0.526563 0.501087 -0.648031
v 0.180219 0.554016 -0.672374
v 0.180474 0.518914 -0.687382
v 0.473000 0.545903 -0.569222
v 0.513925 0.516075 -0.561158
v 0.510019 0.203012 -0.599298
v 0.544190 0.200901 -0.575568
v 0.535732 0.422281 -0.587602
v 0.332309 0.578482 -0.591193
v 0.527333 0.497528 -0.586441
v 0.179436 0.585266 -0.603009
v 0.474965 0.434175 -0.575848
v 0.460147 0.506299 -0.591516
v 0.460806 0.504173 -0.655743
v 0.488044 0.402187 0.991539
v 0.332720 0.519262 -0.676097
v 0.494171 0.455176 0.990387
v -0.014214 0.612979 -0.968839
v -0.014214 0.545805 -0.974701
v -0.014214 0.583365 -0.703190
v -0.014214 0.516191 -0.709052
v -0.014214 0.610610 -0.724134
v -0.014214 0.635074 -0.943590
v -0.014214 0.632449 -0.833023
v -0.014214 0.520466 -0.953478
v -0.014214 0.507821 -0.843899
v -0.014214 0.496026 -0.734246
v -0.306911 0.540116 -0.841081
v -0.282755 0.522165 -0.842648
v 0.254327 0.522165 -0.842648
v 0.278482 0.540116 -0.841081
v -0.282755 0.617975 -0.834286
v -0.306911 0.599938 -0.835860
v 0.278482 0.599938 -0.835860
v 0.254327 0.617975 -0.834286
v -0.306911 0.529006 -0.741422
v -0.282755 0.509945 -0.733032
v -0.306911 0.534804 -0.731700
v -0.282755 0.524689 -0.708310
v 0.278482 0.534804 -0.731700
v 0.254327 0.524689 -0.708310
v 0.278482 0.529006 -0.741422
v 0.254327 0.509945 -0.733032
v -0.306911 0.559058 -0.949272
v -0.282755 0.554303 -0.973960
v -0.306911 0.551225 -0.940740
v -0.282755 0.534385 -0.952263
v 0.278482 0.551225 -0.940740
v 0.254327 0.534385 -0.952263
v 0.278482 0.559058 -0.949272
v 0.254327 0.554303 -0.973960
v -0.306911 0.571812 -0.728471
v -0.282755 0.576056 -0.703828
v -0.306911 0.581770 -0.738350
v -0.282755 0.597663 -0.725264
v 0.278482 0.581770 -0.738350
v 0.254327 0.597663 -0.725264
v 0.278482 0.571812 -0.728471
v 0.254327 0.576056 -0.703828
v -0.306911 0.603651 -0.934633
v -0.282755 0.622127 -0.944719
v -0.306911 0.596067 -0.946042
v -0.282755 0.605670 -0.969477
v 0.278482 0.596067 -0.946042
v 0.254327 0.605670 -0.969477
v 0.278482 0.603651 -0.934633
v 0.254327 0.622127 -0.944719
vn -0.0000 -0.0000 -1.0000
vn -1.0000 -0.0000 -0.0000
vn -0.0000 -0.0000 1.0000
vn 1.0000 -0.0000 -0.0000
vn -0.0000 1.0000 -0.0000
vn -0.0000 -1.0000 -0.0000
vn -0.5995 0.5304 -0.5995
vn 0.5995 0.5304 -0.5995
vn 0.7489 0.6626 -0.0000
vn -0.7489 0.6626 -0.0000
vn -0.0000 0.4202 0.9074
vn -0.3178 0.0329 -0.9476
vn -0.8934 0.4492 0.0014
vn -0.7395 -0.6732 0.0019
vn -0.9980 0.0631 0.0017
vn -0.0455 0.9860 0.1603
vn -0.0000 0.0666 0.9978
vn -0.9974 0.0413 0.0583
vn -0.6301 0.1570 0.7605
vn -0.0000 1.0000 0.0076
vn -0.0399 0.2547 0.9662
vn -0.0000 0.0663 0.9978
vn -0.0210 0.3059 0.9518
vn -0.8542 0.0130 0.5199
vn -0.9907 0.1363 0.0016
vn -0.8138 0.0102 0.5811
vn -0.0000 0.9117 -0.4108
vn -0.0000 0.2856 0.9584
vn -0.1989 0.9656 0.1673
vn -0.0005 0.2579 0.9662
vn -0.0374 0.2464 0.9684
vn 0.9914 -0.1249 -0.0381
vn -0.9823 0.1073 0.1537
vn -0.0000 0.9977 0.0684
vn -0.5553 0.8259 0.0973
vn -0.0797 0.9968 0.0106
vn -0.1164 0.9932 0.0001
vn 0.0421 -0.9987 -0.0282
vn -0.8602 0.5099 -0.0100
vn -0.5892 0.8080 -0.0012
vn -0.1226 0.1687 -0.9780
vn -0.0000 0.3931 -0.9195
vn -0.2453 0.9577 -0.1507
vn -0.8236 0.5667 0.0224
vn -0.9993 0.0367 -0.0071
vn -0.3361 0.3800 -0.8618
vn -0.2082 0.4268 -0.8801
vn -0.0647 0.3825 -0.9217
vn -0.0650 0.9537 -0.2935
vn -0.9936 0.1124 -0.0059
vn 0.1202 -0.9922 -0.0343
vn -0.0232 0.0191 0.9996
vn -0.9107 0.3412 0.2327
vn 0.9634 -0.1228 -0.2382
vn 0.9606 -0.2778 -0.0007
vn 0.9999 0.0091 -0.0115
vn 0.3178 0.0329 -0.9476
vn 0.8934 0.4492 0.0014
vn 0.7762 -0.6305 -0.0003
vn 0.9988 0.0500 0.0001
vn 0.0455 0.9860 0.1603
vn 0.0001 0.0663 0.9978
vn 0.9863 0.0592 0.1538
vn 0.6645 0.0396 0.7462
vn 0.0399 0.2547 0.9662
vn 0.0210 0.3059 0.9518
vn 0.6426 0.2761 0.7147
vn 0.9907 0.1363 0.0016
vn 0.8138 0.0102 0.5811
vn 0.1989 0.9656 0.1673
vn 0.0005 0.2579 0.9662
vn 0.0374 0.2464 0.9684
vn -0.9914 -0.1249 -0.0381
vn 0.9647 0.1280 0.2300
vn 0.5553 0.8259 0.0973
vn 0.0797 0.9968 0.0106
vn 0.1164 0.9932 0.0001
vn -0.0111 -0.4676 0.8839
vn 0.8602 0.5099 -0.0100
vn 0.4449 0.8831 -0.1488
vn 0.1226 0.1687 -0.9780
vn 0.2453 0.9577 -0.1507
vn 0.8242 0.5659 0.0220
vn 0.9992 0.0376 -0.0112
vn 0.3361 0.3800 -0.8618
vn 0.1885 0.3768 -0.9069
vn 0.0671 0.3927 -0.9172
vn 0.0650 0.9537 -0.2935
vn 0.9938 0.1110 -0.0042
vn -0.1202 -0.9922 -0.0343
vn 0.0425 0.0665 0.9969
vn 0.9280 0.3645 0.0775
vn -0.9655 -0.1222 -0.2301
vn -0.9355 -0.3419 -0.0894
vn -0.9999 0.0091 -0.0115
vn -0.0000 0.2237 0.9747
vn 0.0539 0.9983 0.0237
vn 0.0535 -0.9920 -0.1145
vn 0.0376 -0.7802 0.6244
vn 0.0519 -0.9929 -0.1068
vn 0.0327 0.6091 0.7924
vn 0.0537 0.9791 0.1964
vn -0.0367 -0.6417 -0.7661
vn -0.0000 -0.0869 0.9962
vn -0.0000 0.0869 -0.9962
vn -0.0335 0.7521 -0.6582
vn 0.0213 0.8326 -0.5535
vn -0.6501 -0.6526 0.3892
vn 0.6501 -0.6526 0.3892
vn 0.6415 -0.5651 -0.5188
vn -0.6415 -0.5651 -0.5188
vn -0.6468 0.5372 0.5414
vn 0.6467 0.5372 0.5415
vn 0.6556 0.6289 -0.4180
vn -0.6556 0.6289 -0.4180
vn -0.5978 -0.7967 -0.0888
vn 0.5978 -0.7967 -0.0888
vn -0.7075 -0.0614 0.7041
vn 0.7075 -0.0614 0.7041
vn -0.5980 0.7880 0.1468
vn 0.5980 0.7880 0.1468
vn 0.7075 0.0614 -0.7041
vn -0.7075 0.0614 -0.7041
vn -0.5993 0.8000 0.0301
vn 0.5993 0.8000 0.0301
vn 0.0252 -0.7364 -0.6761
vn -0.0481 0.9819 0.1830
vn -0.0208 0.7041 0.7097
vn -0.0519 -0.9929 -0.1068
vn -0.0258 -0.8586 0.5120
vn -0.0535 -0.9920 -0.1145
vn -0.0483 0.9981 0.0375
vn -0.6776 -0.0196 -0.7352
vn -0.8115 0.5844 0.0028
vn -0.7762 -0.6305 -0.0003
vn -0.9988 0.0500 0.0001
vn -0.0389 0.9969 0.0687
vn -0.0001 0.0663 0.9978
vn -0.9863 0.0592 0.1538
vn -0.6645 0.0396 0.7462
vn -0.0389 0.2577 0.9654
vn -0.0228 0.2855 0.9581
vn -0.6426 0.2761 0.7147
vn -0.9867 0.1624 0.0028
vn -0.8139 0.0103 0.5809
vn -0.8273 -0.0836 0.5556
vn -0.1992 0.9670 0.1586
vn -0.0153 0.2237 0.9745
vn -0.0349 0.3058 0.9515
vn 0.9900 -0.1112 -0.0870
vn -0.9647 0.1280 0.2300
vn -0.5641 0.8130 0.1445
vn -0.0578 0.9983 0.0082
vn -0.2250 0.9743 0.0106
vn 0.0111 -0.4676 0.8839
vn -0.5706 0.8212 0.0002
vn -0.4449 0.8831 -0.1488
vn -0.3189 0.0382 -0.9470
vn -0.1922 0.9381 -0.2882
vn -0.8242 0.5659 0.0220
vn -0.9992 0.0376 -0.0112
vn -0.1001 0.8532 -0.5119
vn -0.1885 0.3768 -0.9069
vn -0.0671 0.3927 -0.9172
vn -0.0135 0.9117 -0.4106
vn -0.9938 0.1110 -0.0042
vn 0.0708 -0.9974 0.0132
vn -0.0425 0.0665 0.9969
vn -0.9280 0.3645 0.0775
vn 0.9655 -0.1222 -0.2301
vn 0.9355 -0.3419 -0.0894
vn 0.9920 -0.1258 0.0057
vn 0.6776 -0.0196 -0.7352
vn 0.8115 0.5844 0.0028
vn 0.7395 -0.6732 0.0019
vn 0.9980 0.0631 0.0017
vn 0.0389 0.9969 0.0687
vn 0.9974 0.0413 0.0583
vn 0.6301 0.1570 0.7605
vn 0.0389 0.2577 0.9654
vn 0.0228 0.2855 0.9581
vn 0.8542 0.0130 0.5199
vn 0.9867 0.1624 0.0028
vn 0.8273 -0.0836 0.5556
vn 0.8139 0.0103 0.5809
vn 0.1992 0.9670 0.1586
vn 0.0153 0.2237 0.9745
vn 0.0349 0.3058 0.9515
vn -0.9900 -0.1112 -0.0870
vn 0.9823 0.1073 0.1537
vn 0.5641 0.8130 0.1445
vn 0.0578 0.9983 0.0082
vn 0.2250 0.9743 0.0106
vn -0.0421 -0.9987 -0.0282
vn 0.5706 0.8212 0.0002
vn 0.5892 0.8080 -0.0012
vn 0.3189 0.0382 -0.9470
vn 0.1922 0.9381 -0.2882
vn 0.8236 0.5667 0.0224
vn 0.9993 0.0367 -0.0071
vn 0.1001 0.8532 -0.5119
vn 0.2082 0.4268 -0.8801
vn 0.0647 0.3825 -0.9217
vn 0.0135 0.9117 -0.4106
vn 0.9936 0.1124 -0.0059
vn -0.0708 -0.9974 0.0132
vn 0.0232 0.0191 0.9996
vn 0.9107 0.3412 0.2327
vn -0.9634 -0.1228 -0.2382
vn -0.9606 -0.2778 -0.0007
vn -0.9920 -0.1258 0.0057
vn 0.0483 0.9981 0.0375
vn 0.0519 -0.9925 -0.1106
vn 0.0258 -0.8586 0.5120
vn 0.0535 -0.9924 -0.1106
vn 0.0208 0.7041 0.7097
vn 0.0481 0.9819 0.1830
vn -0.0252 -0.7364 -0.6761
vn -0.0213 0.8326 -0.5534
vn 0.0335 0.7521 -0.6582
vn -0.6467 0.5372 0.5414
vn 0.6468 0.5372 0.5414
vn 0.0367 -0.6417 -0.7661
vn -0.0537 0.9791 0.1964
vn -0.0327 0.6091 0.7924
vn -0.0535 -0.9924 -0.1106
vn -0.0376 -0.7802 0.6244
vn -0.0519 -0.9925 -0.1106
vn -0.0539 0.9983 0.0237
vt 0.205969 0.898368
vt 0.206221 0.817303
vt 0.205969 0.817303
vt 0.206221 0.898368
vt 0.206249 0.817303
vt 0.206249 0.898368
vt 0.203458 0.817303
vt 0.203710 0.898368
vt 0.203710 0.817303
vt 0.203458 0.898368
vt 0.203430 0.817303
vt 0.203430 0.898368
vt 0.228458 0.266494
vt 0.229351 0.258556
vt 0.228458 0.258556
vt 0.229351 0.266494
vt 0.229351 0.232987
vt 0.228458 0.232987
vt 0.229321 0.258556
vt 0.228489 0.258556
vt 0.228458 0.257989
vt 0.229351 0.257989
vt 0.228489 0.266494
vt 0.229321 0.266494
vt 0.206221 0.898093
vt 0.203458 0.898093
vt 0.203458 0.865651
vt 0.206221 0.865651
vt 0.203458 0.865651
vt 0.206221 0.865651
vt 0.203458 0.942236
vt 0.203404 0.817303
vt 0.203458 0.817303
vt 0.206221 0.942236
vt 0.205969 0.942236
vt 0.205969 0.898093
vt 0.206221 0.817303
vt 0.206275 0.942236
vt 0.206275 0.817303
vt 0.206221 0.969116
vt 0.203710 0.942236
vt 0.203710 0.898093
vt 0.205969 0.817303
vt 0.205969 0.969116
vt 0.206275 0.969116
vt 0.203710 0.969116
vt 0.203404 0.942236
vt 0.203458 0.969116
vt 0.203710 0.817303
vt 0.203404 0.969116
vt 0.211460 0.572250
vt 0.211356 0.570851
vt 0.211578 0.572312
vt 0.211440 0.424602
vt 0.211458 0.560845
vt 0.211416 0.563090
vt 0.211496 0.564178
vt 0.211331 0.427503
vt 0.211329 0.562177
vt 0.211370 0.563229
vt 0.211382 0.426349
vt 0.212969 0.564582
vt 0.212275 0.565641
vt 0.212276 0.563519
vt 0.213036 0.420372
vt 0.212291 0.420778
vt 0.212291 0.420372
vt 0.211354 0.565312
vt 0.211315 0.564213
vt 0.211580 0.422487
vt 0.211502 0.423919
vt 0.214594 0.564582
vt 0.213036 0.423124
vt 0.214526 0.423124
vt 0.211542 0.421107
vt 0.214526 0.420778
vt 0.214526 0.420372
vt 0.213036 0.422422
vt 0.212291 0.423124
vt 0.212291 0.422422
vt 0.211570 0.421002
vt 0.214594 0.566720
vt 0.212965 0.573059
vt 0.212968 0.566720
vt 0.214526 0.422422
vt 0.211638 0.563633
vt 0.211639 0.561546
vt 0.213036 0.420778
vt 0.211552 0.423109
vt 0.211602 0.566442
vt 0.211470 0.566381
vt 0.211392 0.565206
vt 0.211452 0.562896
vt 0.211435 0.569147
vt 0.211395 0.570835
vt 0.211693 0.571539
vt 0.214599 0.574431
vt 0.212963 0.574431
vt 0.211652 0.569940
vt 0.211318 0.569601
vt 0.212274 0.571963
vt 0.212274 0.573399
vt 0.211629 0.564238
vt 0.211696 0.565670
vt 0.211579 0.420372
vt 0.216207 0.570851
vt 0.216103 0.572250
vt 0.215985 0.572312
vt 0.216105 0.560845
vt 0.216123 0.424602
vt 0.216147 0.563090
vt 0.216067 0.564178
vt 0.216232 0.427503
vt 0.215983 0.420372
vt 0.216193 0.563229
vt 0.216234 0.562177
vt 0.215287 0.565641
vt 0.215286 0.563519
vt 0.215271 0.420778
vt 0.216209 0.565312
vt 0.215983 0.422487
vt 0.216061 0.423919
vt 0.216010 0.423109
vt 0.216021 0.421107
vt 0.215271 0.423124
vt 0.215271 0.422422
vt 0.216181 0.426349
vt 0.215993 0.421002
vt 0.215925 0.563633
vt 0.215924 0.561546
vt 0.215960 0.566442
vt 0.216092 0.566381
vt 0.216171 0.565206
vt 0.216110 0.562896
vt 0.216247 0.564213
vt 0.216127 0.569147
vt 0.215911 0.569940
vt 0.216167 0.570835
vt 0.215869 0.571539
vt 0.216244 0.569601
vt 0.215288 0.571963
vt 0.215289 0.573399
vt 0.214598 0.573059
vt 0.215271 0.420372
vt 0.714914 0.928740
vt 0.711890 0.952730
vt 0.711890 0.928463
vt 0.711890 0.954900
vt 0.714914 0.930575
vt 0.711890 0.930850
vt 0.714914 0.906517
vt 0.711890 0.901254
vt 0.711890 0.906784
vt 0.715186 0.953268
vt 0.715186 0.950764
vt 0.715186 0.952105
vt 0.715186 0.907684
vt 0.715186 0.905516
vt 0.715186 0.908358
vt 0.711890 0.899967
vt 0.714914 0.904812
vt 0.711890 0.904564
vt 0.708866 0.954634
vt 0.711890 0.959558
vt 0.714914 0.901091
vt 0.708866 0.959396
vt 0.711890 0.958272
vt 0.708866 0.952978
vt 0.714914 0.952978
vt 0.714914 0.958412
vt 0.708593 0.905516
vt 0.708593 0.907684
vt 0.708593 0.908359
vt 0.708593 0.906225
vt 0.708866 0.906517
vt 0.708866 0.901091
vt 0.715186 0.906225
vt 0.715186 0.953977
vt 0.714914 0.954634
vt 0.714914 0.959396
vt 0.708593 0.953977
vt 0.708593 0.952105
vt 0.708866 0.904812
vt 0.714914 0.900107
vt 0.708593 0.953268
vt 0.708866 0.958412
vt 0.708866 0.930575
vt 0.715186 0.930232
vt 0.708866 0.900107
vt 0.708866 0.928740
vt 0.715186 0.929086
vt 0.708593 0.950764
vt 0.708593 0.929086
vt 0.215934 0.564238
vt 0.215866 0.565670
vt 0.708593 0.930232
s 0
usemtl Texture_Map
f 2/1/1 4/2/1 1/3/1
f 4/2/2 5/4/2 3/2/2
f 11/5/3 7/1/3 8/3/3
f 10/6/4 11/5/4 9/5/4
f 3/2/1 10/6/1 9/5/1
f 6/4/5 7/1/5 12/6/5
f 6/4/5 10/6/5 5/4/5
f 4/2/6 9/5/6 11/5/6
f 1/3/2 7/1/2 2/1/2
f 4/2/6 8/3/6 1/3/6
f 16/7/1 14/8/1 13/9/1
f 17/10/4 16/7/4 15/7/4
f 19/8/3 23/11/3 20/9/3
f 23/11/2 22/12/2 21/11/2
f 21/11/1 17/10/1 15/7/1
f 18/10/5 19/8/5 14/8/5
f 22/12/5 18/10/5 17/10/5
f 16/7/6 21/11/6 15/7/6
f 19/8/4 13/9/4 14/8/4
f 20/9/6 16/7/6 13/9/6
f 27/13/6 32/14/6 31/15/6
f 28/16/4 40/14/4 32/14/4
f 31/15/2 33/13/2 27/13/2
f 26/17/3 29/18/3 25/18/3
f 41/19/5 37/20/5 39/21/5
f 32/14/4 40/14/4 42/22/4
f 41/19/5 34/23/5 37/20/5
f 25/18/2 29/18/2 39/21/2
f 31/15/6 26/17/6 25/18/6
f 37/20/7 38/15/7 39/21/7
f 40/14/8 41/19/8 42/22/8
f 36/16/9 41/19/9 40/14/9
f 38/15/10 34/23/10 33/13/10
f 34/23/1 35/24/1 28/16/1
f 44/25/5 45/26/5 43/26/5
f 47/27/6 49/28/6 48/29/6
f 46/25/1 47/27/1 45/26/1
f 43/26/3 49/28/3 44/25/3
f 44/25/4 50/30/4 46/25/4
f 45/26/2 48/29/2 43/26/2
f 75/31/3 79/32/3 73/33/3
f 56/34/3 52/35/3 69/36/3
f 55/34/2 54/37/2 53/37/2
f 70/36/1 62/38/1 61/39/1
f 61/39/4 60/38/4 59/39/4
f 60/38/11 63/40/11 55/34/11
f 69/36/3 72/41/3 89/42/3
f 54/37/6 59/39/6 53/37/6
f 70/36/2 51/43/2 69/36/2
f 58/43/6 54/37/6 51/43/6
f 64/40/5 68/44/5 65/44/5
f 66/45/5 64/40/5 63/40/5
f 56/34/3 65/44/3 52/35/3
f 56/34/2 63/40/2 64/40/2
f 57/35/1 67/45/1 62/38/1
f 62/38/4 66/45/4 60/38/4
f 68/44/1 77/41/1 88/46/1
f 57/35/1 90/42/1 77/41/1
f 65/44/5 88/46/5 85/46/5
f 70/36/6 89/42/6 90/42/6
f 89/42/3 76/31/3 74/33/3
f 74/33/4 75/31/4 73/33/4
f 82/47/1 77/41/1 90/42/1
f 80/47/2 81/32/2 79/32/2
f 83/48/11 80/47/11 75/31/11
f 74/33/6 79/32/6 81/32/6
f 71/49/4 90/42/4 89/42/4
f 74/33/6 78/49/6 71/49/6
f 84/48/5 88/46/5 87/50/5
f 84/48/5 86/50/5 83/48/5
f 85/46/3 76/31/3 72/41/3
f 76/31/4 83/48/4 75/31/4
f 87/50/1 77/41/1 82/47/1
f 86/50/2 82/47/2 80/47/2
f 52/35/3 85/46/3 72/41/3
f 117/51/12 120/52/12 119/53/12
f 100/54/13 107/55/13 112/56/13
f 108/57/14 94/58/14 109/59/14
f 110/60/15 94/58/15 95/61/15
f 114/62/16 130/63/16 111/64/16
f 102/65/17 97/66/17 96/67/17
f 109/59/18 129/68/18 128/69/18
f 99/70/19 92/71/19 100/54/19
f 162/72/20 103/73/20 151/74/20
f 97/66/21 99/70/21 138/75/21
f 152/76/22 102/65/22 150/77/22
f 105/78/23 98/79/23 101/80/23
f 138/75/24 100/54/24 95/61/24
f 95/61/25 112/56/25 110/60/25
f 94/58/26 136/81/26 95/61/26
f 180/82/27 123/83/27 132/84/27
f 151/74/28 105/78/28 153/85/28
f 111/64/29 125/86/29 106/87/29
f 104/88/30 101/80/30 97/66/30
f 101/80/31 91/89/31 99/70/31
f 117/51/32 113/90/32 127/91/32
f 110/60/33 131/92/33 129/68/33
f 162/72/34 132/84/34 114/62/34
f 106/87/35 126/93/35 107/55/35
f 103/73/36 111/64/36 98/79/36
f 98/79/37 106/87/37 91/89/37
f 108/57/38 128/69/38 127/91/38
f 106/87/39 92/71/39 91/89/39
f 125/86/40 116/94/40 126/93/40
f 119/53/41 122/95/41 135/96/41
f 123/83/42 172/97/42 124/98/42
f 130/63/43 115/99/43 125/86/43
f 131/92/44 116/94/44 122/95/44
f 118/100/45 129/68/45 120/52/45
f 135/96/46 116/94/46 115/99/46
f 121/101/47 135/96/47 115/99/47
f 123/83/48 137/102/48 121/101/48
f 132/84/49 121/101/49 130/63/49
f 120/52/50 131/92/50 122/95/50
f 127/91/51 118/100/51 117/51/51
f 136/81/52 97/66/52 138/75/52
f 112/56/53 126/93/53 131/92/53
f 108/57/54 113/90/54 133/103/54
f 113/90/55 135/96/55 134/104/55
f 108/57/56 136/81/56 93/105/56
f 168/106/57 165/107/57 167/108/57
f 155/109/58 148/110/58 160/111/58
f 156/112/59 142/113/59 141/114/59
f 158/115/60 142/113/60 157/116/60
f 178/117/61 162/72/61 159/118/61
f 150/77/62 145/119/62 152/76/62
f 157/116/63 177/120/63 158/115/63
f 147/121/64 140/122/64 139/123/64
f 147/121/65 145/119/65 186/124/65
f 146/125/66 153/85/66 149/126/66
f 186/124/67 148/110/67 147/121/67
f 160/111/68 143/127/68 158/115/68
f 143/127/69 184/128/69 142/113/69
f 173/129/70 159/118/70 154/130/70
f 149/126/71 152/76/71 145/119/71
f 139/123/72 149/126/72 147/121/72
f 161/131/73 165/107/73 175/132/73
f 158/115/74 179/133/74 160/111/74
f 174/134/75 154/130/75 155/109/75
f 159/118/76 151/74/76 146/125/76
f 154/130/77 146/125/77 139/123/77
f 156/112/78 176/135/78 157/116/78
f 140/122/79 154/130/79 139/123/79
f 173/129/80 164/136/80 163/137/80
f 170/138/81 167/108/81 183/139/81
f 163/137/82 178/117/82 173/129/82
f 179/133/83 164/136/83 174/134/83
f 166/140/84 177/120/84 176/135/84
f 164/136/85 183/139/85 163/137/85
f 169/141/86 183/139/86 185/142/86
f 171/143/87 185/142/87 172/97/87
f 169/141/88 180/82/88 178/117/88
f 168/106/89 179/133/89 177/120/89
f 166/140/90 175/132/90 165/107/90
f 184/128/91 145/119/91 144/144/91
f 160/111/92 174/134/92 155/109/92
f 156/112/93 161/131/93 175/132/93
f 161/131/94 183/139/94 167/108/94
f 184/128/95 156/112/95 141/114/95
f 153/85/96 104/88/96 152/76/96
f 204/145/97 192/146/97 193/147/97
f 194/148/98 199/149/98 195/150/98
f 212/151/99 190/152/99 196/153/99
f 233/154/4 235/155/4 217/156/4
f 195/150/100 212/151/100 196/153/100
f 225/157/4 227/158/4 211/159/4
f 189/160/101 226/161/101 191/162/101
f 191/162/102 204/145/102 193/147/102
f 216/163/103 188/164/103 194/148/103
f 210/165/104 189/160/104 190/152/104
f 214/166/105 187/167/105 188/164/105
f 187/167/106 230/168/106 192/146/106
f 187/167/107 236/169/107 234/170/107
f 221/171/2 223/172/2 205/173/2
f 207/174/108 206/175/108 208/176/108
f 209/177/109 212/151/109 211/159/109
f 219/178/110 218/179/110 220/180/110
f 213/181/111 216/163/111 215/182/111
f 221/171/112 224/183/112 223/172/112
f 227/158/113 226/161/113 228/184/113
f 233/154/114 236/169/114 235/155/114
f 231/185/115 230/168/115 232/186/115
f 205/173/116 198/187/116 206/175/116
f 211/159/117 199/149/117 200/188/117
f 207/174/118 222/189/118 221/171/118
f 209/177/119 228/184/119 210/165/119
f 201/190/120 223/172/120 224/183/120
f 204/145/121 225/157/121 203/191/121
f 233/154/122 220/180/122 234/170/122
f 231/185/123 214/166/123 213/181/123
f 198/187/116 215/182/116 216/163/116
f 201/190/124 229/192/124 202/193/124
f 217/156/117 199/149/117 218/179/117
f 204/145/125 235/155/125 236/169/125
f 229/192/2 231/185/2 215/182/2
f 220/180/105 187/167/105 234/170/105
f 208/176/104 189/160/104 222/189/104
f 218/179/126 188/164/126 220/180/126
f 191/162/127 201/190/127 224/183/127
f 189/160/128 224/183/128 222/189/128
f 206/175/129 195/150/129 196/153/129
f 206/175/130 190/152/130 208/176/130
f 198/187/131 194/148/131 195/150/131
f 201/190/132 192/146/132 230/168/132
f 59/39/3 55/34/3 53/37/3
f 2/1/1 6/4/1 4/2/1
f 4/2/2 6/4/2 5/4/2
f 11/5/3 12/6/3 7/1/3
f 10/6/4 12/6/4 11/5/4
f 3/2/1 5/4/1 10/6/1
f 6/4/5 2/1/5 7/1/5
f 6/4/5 12/6/5 10/6/5
f 4/2/6 3/2/6 9/5/6
f 1/3/2 8/3/2 7/1/2
f 4/2/6 11/5/6 8/3/6
f 16/7/1 18/10/1 14/8/1
f 17/10/4 18/10/4 16/7/4
f 19/8/3 24/12/3 23/11/3
f 23/11/2 24/12/2 22/12/2
f 21/11/1 22/12/1 17/10/1
f 18/10/5 24/12/5 19/8/5
f 22/12/5 24/12/5 18/10/5
f 16/7/6 23/11/6 21/11/6
f 19/8/4 20/9/4 13/9/4
f 20/9/6 23/11/6 16/7/6
f 27/13/6 28/16/6 32/14/6
f 28/16/4 36/16/4 40/14/4
f 31/15/2 38/15/2 33/13/2
f 26/17/3 30/17/3 29/18/3
f 39/21/5 29/18/5 30/17/5
f 30/17/5 42/22/5 39/21/5
f 42/22/5 41/19/5 39/21/5
f 30/17/4 26/17/4 42/22/4
f 26/17/4 32/14/4 42/22/4
f 41/19/5 35/24/5 34/23/5
f 38/15/2 31/15/2 39/21/2
f 31/15/2 25/18/2 39/21/2
f 31/15/6 32/14/6 26/17/6
f 36/16/9 35/24/9 41/19/9
f 38/15/10 37/20/10 34/23/10
f 36/16/1 28/16/1 35/24/1
f 28/16/1 27/13/1 34/23/1
f 27/13/1 33/13/1 34/23/1
f 44/25/5 46/25/5 45/26/5
f 47/27/6 50/30/6 49/28/6
f 46/25/1 50/30/1 47/27/1
f 43/26/3 48/29/3 49/28/3
f 44/25/4 49/28/4 50/30/4
f 45/26/2 47/27/2 48/29/2
f 75/31/3 80/47/3 79/32/3
f 69/36/3 51/43/3 54/37/3
f 54/37/3 56/34/3 69/36/3
f 55/34/2 56/34/2 54/37/2
f 61/39/1 58/43/1 70/36/1
f 70/36/1 57/35/1 62/38/1
f 61/39/4 62/38/4 60/38/4
f 60/38/11 66/45/11 63/40/11
f 69/36/3 52/35/3 72/41/3
f 54/37/6 61/39/6 59/39/6
f 70/36/2 58/43/2 51/43/2
f 58/43/6 61/39/6 54/37/6
f 64/40/5 67/45/5 68/44/5
f 66/45/5 67/45/5 64/40/5
f 56/34/3 64/40/3 65/44/3
f 56/34/2 55/34/2 63/40/2
f 57/35/1 68/44/1 67/45/1
f 62/38/4 67/45/4 66/45/4
f 68/44/1 57/35/1 77/41/1
f 57/35/1 70/36/1 90/42/1
f 65/44/5 68/44/5 88/46/5
f 70/36/6 69/36/6 89/42/6
f 74/33/3 71/49/3 89/42/3
f 89/42/3 72/41/3 76/31/3
f 74/33/4 76/31/4 75/31/4
f 90/42/1 78/49/1 81/32/1
f 81/32/1 82/47/1 90/42/1
f 80/47/2 82/47/2 81/32/2
f 83/48/11 86/50/11 80/47/11
f 74/33/6 73/33/6 79/32/6
f 71/49/4 78/49/4 90/42/4
f 74/33/6 81/32/6 78/49/6
f 84/48/5 85/46/5 88/46/5
f 84/48/5 87/50/5 86/50/5
f 85/46/3 84/48/3 76/31/3
f 76/31/4 84/48/4 83/48/4
f 87/50/1 88/46/1 77/41/1
f 86/50/2 87/50/2 82/47/2
f 52/35/3 65/44/3 85/46/3
f 117/51/133 118/100/133 120/52/133
f 100/54/134 92/71/134 107/55/134
f 108/57/135 93/105/135 94/58/135
f 110/60/136 109/59/136 94/58/136
f 114/62/137 132/84/137 130/63/137
f 102/65/138 104/88/138 97/66/138
f 109/59/139 110/60/139 129/68/139
f 99/70/140 91/89/140 92/71/140
f 162/72/20 114/62/20 103/73/20
f 97/66/141 101/80/141 99/70/141
f 152/76/22 104/88/22 102/65/22
f 105/78/142 103/73/142 98/79/142
f 138/75/143 99/70/143 100/54/143
f 95/61/144 100/54/144 112/56/144
f 93/105/145 136/81/145 94/58/145
f 136/81/146 138/75/146 95/61/146
f 180/82/27 171/143/27 123/83/27
f 151/74/28 103/73/28 105/78/28
f 111/64/147 130/63/147 125/86/147
f 104/88/148 105/78/148 101/80/148
f 101/80/149 98/79/149 91/89/149
f 117/51/150 119/53/150 113/90/150
f 110/60/151 112/56/151 131/92/151
f 162/72/34 180/82/34 132/84/34
f 106/87/152 125/86/152 126/93/152
f 103/73/153 114/62/153 111/64/153
f 98/79/154 111/64/154 106/87/154
f 108/57/155 109/59/155 128/69/155
f 106/87/156 107/55/156 92/71/156
f 125/86/157 115/99/157 116/94/157
f 119/53/158 120/52/158 122/95/158
f 123/83/42 171/143/42 172/97/42
f 130/63/159 121/101/159 115/99/159
f 131/92/160 126/93/160 116/94/160
f 118/100/161 128/69/161 129/68/161
f 135/96/162 122/95/162 116/94/162
f 121/101/163 137/102/163 135/96/163
f 123/83/164 124/98/164 137/102/164
f 132/84/165 123/83/165 121/101/165
f 120/52/166 129/68/166 131/92/166
f 127/91/167 128/69/167 118/100/167
f 136/81/168 96/67/168 97/66/168
f 112/56/169 107/55/169 126/93/169
f 108/57/170 127/91/170 113/90/170
f 113/90/171 119/53/171 135/96/171
f 108/57/172 133/103/172 136/81/172
f 168/106/173 166/140/173 165/107/173
f 155/109/174 140/122/174 148/110/174
f 156/112/175 157/116/175 142/113/175
f 158/115/176 143/127/176 142/113/176
f 178/117/177 180/82/177 162/72/177
f 150/77/17 144/144/17 145/119/17
f 157/116/178 176/135/178 177/120/178
f 147/121/179 148/110/179 140/122/179
f 147/121/180 149/126/180 145/119/180
f 146/125/181 151/74/181 153/85/181
f 186/124/182 143/127/182 148/110/182
f 160/111/183 148/110/183 143/127/183
f 186/124/184 184/128/184 143/127/184
f 184/128/185 141/114/185 142/113/185
f 173/129/186 178/117/186 159/118/186
f 149/126/187 153/85/187 152/76/187
f 139/123/188 146/125/188 149/126/188
f 161/131/189 167/108/189 165/107/189
f 158/115/190 177/120/190 179/133/190
f 174/134/191 173/129/191 154/130/191
f 159/118/192 162/72/192 151/74/192
f 154/130/193 159/118/193 146/125/193
f 156/112/194 175/132/194 176/135/194
f 140/122/195 155/109/195 154/130/195
f 173/129/196 174/134/196 164/136/196
f 170/138/197 168/106/197 167/108/197
f 163/137/198 169/141/198 178/117/198
f 179/133/199 170/138/199 164/136/199
f 166/140/200 168/106/200 177/120/200
f 164/136/201 170/138/201 183/139/201
f 169/141/202 163/137/202 183/139/202
f 171/143/203 169/141/203 185/142/203
f 169/141/204 171/143/204 180/82/204
f 168/106/205 170/138/205 179/133/205
f 166/140/206 176/135/206 175/132/206
f 184/128/207 186/124/207 145/119/207
f 160/111/208 179/133/208 174/134/208
f 156/112/209 181/194/209 161/131/209
f 161/131/210 182/195/210 183/139/210
f 184/128/211 181/194/211 156/112/211
f 153/85/96 105/78/96 104/88/96
f 204/145/212 236/169/212 192/146/212
f 194/148/213 218/179/213 199/149/213
f 212/151/214 210/165/214 190/152/214
f 203/191/4 200/188/4 235/155/4
f 200/188/4 217/156/4 235/155/4
f 217/156/4 219/178/4 233/154/4
f 195/150/215 199/149/215 212/151/215
f 227/158/4 209/177/4 211/159/4
f 211/159/4 200/188/4 225/157/4
f 200/188/4 203/191/4 225/157/4
f 189/160/216 228/184/216 226/161/216
f 191/162/217 226/161/217 204/145/217
f 216/163/218 214/166/218 188/164/218
f 210/165/104 228/184/104 189/160/104
f 214/166/105 232/186/105 187/167/105
f 187/167/219 232/186/219 230/168/219
f 187/167/220 192/146/220 236/169/220
f 202/193/2 197/196/2 223/172/2
f 197/196/2 205/173/2 223/172/2
f 205/173/2 207/174/2 221/171/2
f 207/174/108 205/173/108 206/175/108
f 209/177/109 210/165/109 212/151/109
f 219/178/110 217/156/110 218/179/110
f 213/181/111 214/166/111 216/163/111
f 221/171/221 222/189/221 224/183/221
f 227/158/222 225/157/222 226/161/222
f 233/154/114 234/170/114 236/169/114
f 231/185/115 229/192/115 230/168/115
f 205/173/116 197/196/116 198/187/116
f 211/159/117 212/151/117 199/149/117
f 207/174/118 208/176/118 222/189/118
f 209/177/119 227/158/119 228/184/119
f 201/190/120 202/193/120 223/172/120
f 204/145/121 226/161/121 225/157/121
f 233/154/122 219/178/122 220/180/122
f 231/185/123 232/186/123 214/166/123
f 198/187/116 197/196/116 215/182/116
f 201/190/124 230/168/124 229/192/124
f 217/156/117 200/188/117 199/149/117
f 204/145/125 203/191/125 235/155/125
f 231/185/2 213/181/2 215/182/2
f 215/182/2 197/196/2 229/192/2
f 197/196/2 202/193/2 229/192/2
f 220/180/105 188/164/105 187/167/105
f 208/176/104 190/152/104 189/160/104
f 218/179/223 194/148/223 188/164/223
f 191/162/224 193/147/224 201/190/224
f 189/160/225 191/162/225 224/183/225
f 206/175/226 198/187/226 195/150/226
f 206/175/227 196/153/227 190/152/227
f 198/187/228 216/163/228 194/148/228
f 201/190/229 193/147/229 192/146/229
f 59/39/3 60/38/3 55/34/3
