# Blender 4.4.0
# www.blender.org
mtllib Prop_Hay_Bale_Round_02.mtl
o Prop_Hay_Bale_Round_02
v 0.010021 0.004536 -0.512032
v -0.214965 0.016482 -0.518367
v -0.397699 0.001638 -0.396858
v -0.465887 0.000390 -0.194215
v -0.562534 0.001593 0.000941
v -0.534615 0.013306 0.215006
v -0.397700 0.001612 0.398747
v -0.187093 0.000409 0.478758
v 0.000816 0.003812 0.563334
v 0.214360 0.031306 0.519818
v 0.374082 0.005616 0.366971
v 0.485580 0.009882 0.199900
v 0.561596 0.024030 0.001005
v 0.485807 0.000434 -0.194167
v 0.384742 0.021821 -0.374667
v 0.215402 0.000470 -0.518844
v -0.000456 1.219099 -0.588880
v -0.225799 1.195297 -0.543048
v -0.393084 1.224727 -0.391041
v -0.514349 1.247371 -0.216385
v -0.587965 1.234706 0.001146
v -0.537541 1.242201 0.213800
v -0.394400 1.223086 0.400880
v -0.226381 1.249145 0.546264
v 0.000325 1.223614 0.564048
v 0.208587 1.247848 0.496926
v 0.415938 1.225583 0.415408
v 0.544281 1.219277 0.226368
v 0.543845 1.212325 0.004491
v 0.543330 1.224262 -0.223855
v 0.401993 1.219514 -0.401646
v 0.214521 1.210858 -0.511730
v 0.385842 1.002043 -0.385083
v 0.391106 0.206554 -0.389116
v 0.449953 0.605000 -0.449111
v 0.212004 0.206554 -0.508788
v 0.209995 1.001112 -0.507344
v 0.220917 0.635985 -0.550305
v -0.210545 1.002787 0.508055
v -0.210525 0.206554 0.511288
v -0.243568 0.605000 0.588816
v -0.000764 1.002180 0.551331
v -0.000769 1.002057 -0.548607
v 0.000740 0.206554 -0.550811
v -0.000036 0.605000 -0.635503
v -0.210525 0.207420 -0.508788
v -0.212151 1.001235 -0.508748
v 0.212004 0.202409 0.511288
v 0.208389 1.002897 0.505771
v 0.239683 0.605000 0.579539
v -0.389626 0.206554 -0.389116
v -0.389435 1.002236 -0.387149
v -0.450024 0.605000 -0.449111
v 0.391106 0.206428 0.391616
v 0.387953 1.002212 0.390239
v -0.509298 0.206554 -0.210014
v -0.504613 1.008664 -0.207554
v -0.608096 0.605000 -0.243096
v 0.510777 0.206554 0.212515
v 0.507470 1.002062 0.212038
v 0.587903 0.605000 0.244410
v -0.530417 0.206554 -0.001440
v -0.549698 1.002515 0.001532
v 0.549818 1.001875 0.001513
v -0.509298 0.207401 0.212515
v -0.506562 1.009508 0.209494
v -0.587974 0.605000 0.244410
v 0.510777 0.206554 -0.210014
v 0.507108 1.002216 -0.208844
v 0.587903 0.605000 -0.242655
v -0.389626 0.206554 0.391616
v -0.000331 1.214535 -0.361199
v -0.138788 1.211376 -0.333658
v -0.256165 1.213561 -0.255229
v -0.332025 1.226056 -0.137127
v -0.362135 1.214445 0.000606
v -0.334417 1.213806 0.138783
v -0.256141 1.213808 0.256415
v -0.138788 1.211916 0.334869
v -0.000343 1.213758 0.362370
v 0.136829 1.213158 0.330283
v 0.333932 1.210866 0.139062
v 0.361473 1.203218 0.000606
v 0.333932 1.214477 -0.137851
v 0.254318 1.210365 -0.254038
v 0.138125 1.212708 -0.333658
v -0.000331 1.193454 0.000606
v 0.293521 0.002093 -0.292350
v 0.384080 0.000063 -0.158212
v 0.415580 0.003429 0.000898
v 0.383940 0.018701 0.159929
v 0.293883 0.014363 0.294777
v 0.158966 0.037838 0.384577
v 0.000015 0.011160 0.416418
v -0.159116 0.000063 0.384983
v -0.293895 0.012788 0.294788
v -0.383695 0.036973 0.159861
v -0.415411 0.012878 0.000907
v -0.384115 0.000063 -0.158212
v -0.293893 0.013080 -0.292998
v -0.158904 0.037818 -0.382809
v -0.000001 0.013080 -0.414732
v 0.159081 0.000063 -0.383211
v -0.000036 0.000000 0.000878
v 0.014742 0.205779 0.538750
v -0.012603 0.206554 0.550657
v 0.000709 0.176637 0.554219
v -0.013564 0.605000 0.634549
v 0.013666 0.605000 0.622149
v -0.000305 0.848015 0.584538
v -0.389124 0.998045 0.388699
v -0.387320 0.987901 0.395985
v -0.391682 1.056862 0.393619
v -0.420764 0.605000 0.452729
v -0.445230 0.605000 0.443434
v -0.426139 0.433660 0.427074
v -0.625643 0.605000 -0.012454
v -0.572480 0.358467 -0.000642
v -0.619963 0.605000 0.037752
v -0.582242 0.853899 0.001171
v -0.219568 0.605000 -0.591835
v -0.220774 0.389521 -0.553936
v -0.276819 0.605000 -0.560301
v -0.253585 0.778604 -0.556548
v 0.550477 0.206554 -0.010432
v 0.533213 0.206554 0.011528
v 0.553071 0.194081 0.001250
v 0.616495 0.605000 0.011292
v 0.627146 0.605000 -0.045368
v 0.585796 0.837289 0.001111
v 0.451634 0.605000 0.449593
v 0.424618 0.423249 0.425485
v 0.463734 0.605000 0.417414
v 0.430201 0.741678 0.431123
v 0.206899 1.208332 0.287033
v 0.296026 1.202296 0.296097
v 0.287680 1.209258 0.208283
v 0.214549 1.201632 0.215486
v -0.324827 1.213705 -0.323366
v -0.420607 1.236964 -0.176094
v 0.440819 1.207883 0.162903
v -0.474432 1.208196 0.001034
v 0.453144 1.210127 0.002521
v -0.435879 1.235718 0.175814
v 0.438516 1.211958 -0.180627
v -0.325653 1.225473 0.329067
v 0.326991 1.203196 -0.326671
v -0.182529 1.210212 0.440394
v 0.176527 1.208562 -0.423140
v -0.000298 1.212941 0.462409
v -0.000387 1.209131 -0.475275
v -0.182467 1.200138 -0.438858
v 0.171945 1.230055 0.410743
v -0.405115 1.023682 0.405957
v -0.406868 0.984633 0.407710
v -0.220212 0.984633 0.532429
v -0.219263 1.023678 0.530139
v -0.220566 0.186121 0.533285
v -0.221834 0.225520 0.536345
v -0.409865 0.225520 0.410707
v -0.407523 0.186121 0.408365
v 0.529226 1.023680 -0.218350
v 0.531516 0.984633 -0.219298
v 0.406797 0.984633 -0.405955
v 0.405044 1.023702 -0.404202
v 0.407451 0.186121 -0.406609
v 0.409793 0.225520 -0.408952
v 0.535432 0.225520 -0.220920
v 0.532372 0.186121 -0.219653
v -0.529297 1.023678 0.220105
v -0.531588 0.984633 0.221054
v -0.535503 0.225520 0.222676
v -0.532443 0.186121 0.221408
v 0.572833 1.023736 0.000878
v 0.575312 0.984633 0.000878
v 0.579550 0.225520 0.000878
v 0.576238 0.186121 0.000878
v -0.572904 1.023678 0.000878
v -0.575383 0.984633 0.000878
v -0.579622 0.225520 0.000878
v -0.576309 0.186121 0.000878
v 0.529226 1.023702 0.220105
v 0.531516 0.984633 0.221054
v 0.535432 0.225520 0.222676
v 0.532372 0.186121 0.221408
v -0.529297 1.023678 -0.218350
v -0.531588 0.984633 -0.219298
v -0.535503 0.225520 -0.220920
v -0.532443 0.186121 -0.219653
v 0.405044 1.023681 0.405957
v 0.406797 0.984633 0.407710
v 0.409793 0.225520 0.410707
v 0.407451 0.186121 0.408365
v -0.405115 1.023678 -0.404202
v -0.406868 0.984633 -0.405955
v -0.409865 0.225520 -0.408952
v -0.407523 0.186121 -0.406609
v 0.219192 1.023678 0.530139
v 0.220140 0.984633 0.532429
v 0.221762 0.225520 0.536345
v 0.220495 0.186121 0.533285
v -0.219263 1.024101 -0.528384
v -0.220212 0.984633 -0.530674
v -0.221834 0.225520 -0.534590
v -0.220566 0.186121 -0.531530
v -0.000036 1.023681 0.573746
v -0.000036 0.984633 0.576225
v -0.000036 0.225520 0.580464
v -0.000036 0.186121 0.577151
v 0.219192 1.023775 -0.528384
v 0.220140 0.984633 -0.530674
v -0.000036 0.984633 -0.574470
v -0.000036 1.023703 -0.571991
v -0.000036 0.186121 -0.575396
v -0.000036 0.225520 -0.578708
v 0.221762 0.225520 -0.534590
v 0.220495 0.186121 -0.531530
v -0.259899 1.124055 0.001338
v -0.247486 1.124055 -0.007043
v -0.268280 1.124055 -0.011076
v -0.255867 1.124055 -0.019457
v -0.269313 1.370876 -0.027638
v -0.265179 1.370876 -0.030429
v -0.272103 1.370876 -0.031772
v -0.267970 1.370876 -0.034562
v -0.266027 1.263069 -0.018018
v -0.254210 1.264406 -0.027419
v -0.247555 1.263531 -0.015325
v -0.259266 1.262317 -0.005600
v -0.240484 1.081964 -0.011058
v -0.228466 1.079741 -0.019717
v -0.249240 1.081964 -0.023210
v -0.237223 1.079741 -0.031869
v -0.230445 1.316862 -0.077734
v -0.226444 1.316122 -0.080617
v -0.233361 1.316862 -0.081780
v -0.229360 1.316122 -0.084663
v -0.235436 1.221462 -0.036002
v -0.224208 1.219602 -0.044186
v -0.215854 1.218333 -0.032212
v -0.227212 1.220243 -0.023910
v -0.004048 1.117800 0.331103
v -0.015371 1.117800 0.340908
v 0.005757 1.117800 0.342426
v -0.005566 1.117800 0.352231
v 0.008762 1.364621 0.358746
v 0.004992 1.364621 0.362011
v 0.012027 1.364621 0.362516
v 0.008257 1.364621 0.365781
v 0.004350 1.256814 0.349588
v -0.006259 1.258152 0.360334
v -0.014311 1.257276 0.349122
v -0.003847 1.256063 0.338067
v -0.029745 1.172110 0.355471
v -0.040225 1.170099 0.365210
v -0.019961 1.172937 0.366492
v -0.030364 1.170961 0.376141
v -0.023837 1.313134 0.413129
v -0.027465 1.312394 0.416470
v -0.020459 1.313134 0.416798
v -0.024087 1.312394 0.420139
v -0.023871 1.217734 0.371100
v -0.034040 1.215874 0.380568
v -0.043766 1.214605 0.369678
v -0.033483 1.216515 0.360078
v 0.304601 1.100106 -0.139227
v 0.318140 1.098456 -0.133038
v 0.311006 1.103594 -0.152309
v 0.324545 1.101944 -0.146120
v 0.324727 1.344489 -0.097744
v 0.329236 1.343939 -0.095683
v 0.326860 1.345650 -0.102100
v 0.331368 1.345101 -0.100039
v 0.318127 1.238328 -0.118045
v 0.332240 1.238237 -0.112510
v 0.325229 1.234328 -0.101245
v 0.310892 1.234473 -0.106501
v 0.490224 1.219179 -0.216126
v 0.497408 1.202501 -0.207220
v 0.483853 1.212393 -0.227799
v 0.491125 1.195559 -0.218474
v 0.614524 1.076783 -0.176869
v 0.611417 1.074372 -0.173802
v 0.612402 1.074538 -0.180784
v 0.609295 1.072127 -0.177718
v 0.552758 1.180454 -0.226406
v 0.543756 1.171639 -0.217974
v 0.549810 1.179090 -0.208017
v 0.559092 1.188004 -0.216239
v 0.559151 1.124372 -0.213851
v 0.557185 1.123607 -0.201166
v 0.553097 1.118759 -0.208102
v 0.563379 1.129270 -0.206811
v -0.213744 1.002767 0.493841
v -0.207251 1.021869 0.495271
v -0.227845 1.005928 0.490093
v -0.220969 1.025268 0.491457
v -0.177188 1.173568 0.576052
v -0.175612 1.175715 0.571836
v -0.181907 1.174602 0.574814
v -0.180331 1.176748 0.570598
v -0.218140 1.059132 0.542551
v -0.214405 1.067031 0.530163
v -0.201853 1.062874 0.534220
v -0.205298 1.054976 0.546828
v -0.222645 1.101895 0.564161
v -0.211353 1.104323 0.558506
v -0.219989 1.106918 0.555858
v -0.213864 1.099301 0.566919
v 0.000126 0.714975 0.563941
v 0.010907 0.700286 0.572722
v 0.004297 0.726001 0.573102
v 0.015294 0.710928 0.581767
v 0.040341 0.596414 0.687004
v 0.045069 0.595907 0.685500
v 0.041709 0.600108 0.690062
v 0.046437 0.599602 0.688558
v -0.004567 0.696685 0.624515
v 0.010244 0.695142 0.621676
v 0.005144 0.685666 0.612986
v -0.009825 0.686893 0.615743
v 0.003989 0.627238 0.664330
v 0.010525 0.619628 0.656284
v 0.013759 0.626213 0.662158
v 0.000676 0.620495 0.658415
v -0.231425 0.648076 -0.516499
v -0.244890 0.633388 -0.519969
v -0.239043 0.659102 -0.523078
v -0.252656 0.644029 -0.526353
v -0.319395 0.529515 -0.611488
v -0.323062 0.529009 -0.608146
v -0.321916 0.533210 -0.613694
v -0.325583 0.532703 -0.610352
v -0.252480 0.629786 -0.573490
v -0.264748 0.628243 -0.564720
v -0.256483 0.618767 -0.558956
v -0.244036 0.619995 -0.567718
v -0.276894 0.560339 -0.606083
v -0.279469 0.552729 -0.596042
v -0.284862 0.559314 -0.600027
v -0.271412 0.553596 -0.602094
v -0.178535 0.683953 -0.559517
v -0.180643 0.667430 -0.570991
v -0.175942 0.676882 -0.546626
v -0.177973 0.660227 -0.558529
v -0.258492 0.541037 -0.622765
v -0.254311 0.539077 -0.624652
v -0.257639 0.538695 -0.618445
v -0.253459 0.536736 -0.620332
v -0.221008 0.637696 -0.550460
v -0.208882 0.630171 -0.555573
v -0.211829 0.637810 -0.566720
v -0.224154 0.645428 -0.561897
v -0.262238 0.587511 -0.598031
v -0.255985 0.587760 -0.609264
v -0.254084 0.582769 -0.601531
v -0.264237 0.592548 -0.605909
v 0.578668 0.734623 -0.005881
v 0.582148 0.717931 -0.016760
v 0.590842 0.742136 -0.010154
v 0.594086 0.725118 -0.021247
v 0.656673 0.582952 -0.047466
v 0.655037 0.582972 -0.052178
v 0.660741 0.585473 -0.048869
v 0.659105 0.585494 -0.053580
v 0.630198 0.697823 -0.001864
v 0.626857 0.697327 -0.016643
v 0.615637 0.691128 -0.011446
v 0.618800 0.691351 0.003492
v 0.645492 0.619297 -0.010864
v 0.635359 0.614699 -0.017310
v 0.643003 0.619059 -0.020609
v 0.637759 0.614800 -0.007485
v 0.204857 0.159317 0.446124
v 0.216979 0.147742 0.457444
v 0.209631 0.172497 0.451260
v 0.221968 0.160521 0.462554
v 0.261779 0.080766 0.592439
v 0.266333 0.079852 0.590622
v 0.263349 0.085179 0.594152
v 0.267902 0.084265 0.592335
v 0.207264 0.159058 0.509527
v 0.221727 0.156769 0.505604
v 0.216031 0.145209 0.500582
v 0.201411 0.147171 0.504533
v 0.222244 0.103845 0.566171
v 0.228120 0.094257 0.559933
v 0.231753 0.102244 0.563301
v 0.218533 0.095696 0.562817
v 0.182737 0.124943 -0.464755
v 0.181897 0.117413 -0.483507
v 0.182964 0.139365 -0.468607
v 0.181950 0.131474 -0.487578
v 0.243682 0.080779 -0.623353
v 0.239148 0.080333 -0.625382
v 0.243774 0.085602 -0.624619
v 0.239240 0.085157 -0.626647
v 0.225253 0.135128 -0.510737
v 0.212145 0.134605 -0.518334
v 0.212665 0.121631 -0.513569
v 0.225903 0.121816 -0.505960
v 0.253782 0.092734 -0.572947
v 0.245175 0.083351 -0.574745
v 0.244961 0.092249 -0.577760
v 0.254061 0.083666 -0.569926
vn 0.8564 -0.1419 -0.4964
vn -0.3500 -0.1847 0.9184
vn 0.0177 -0.1877 -0.9821
vn -0.5350 -0.2039 0.8199
vn -0.1815 -0.1835 -0.9661
vn 0.6716 -0.1461 0.7264
vn -0.9467 0.0493 -0.3183
vn 0.8251 -0.1408 0.5471
vn -0.8877 0.1340 -0.4405
vn 0.9849 0.0496 -0.1657
vn -0.9807 0.1551 0.1194
vn 0.9834 0.1353 0.1206
vn -0.7935 0.1112 0.5983
vn 0.6440 0.0479 -0.7635
vn 0.1324 0.4142 0.9005
vn -0.1908 0.2078 0.9594
vn -0.0322 0.0482 -0.9983
vn -0.5360 0.2105 0.8175
vn 0.9796 0.0306 -0.1988
vn -0.9657 -0.1588 0.2056
vn 0.9801 0.0250 0.1971
vn -0.9641 -0.1592 -0.2126
vn 0.8177 -0.1748 0.5485
vn -0.8419 -0.0232 -0.5391
vn 0.5336 -0.1604 0.8304
vn -0.5568 -0.1824 -0.8103
vn 0.2127 -0.0571 0.9755
vn 0.1920 -0.0247 -0.9811
vn -0.5559 0.0532 -0.8295
vn -0.2019 -0.0552 0.9779
vn 0.5707 -0.0295 -0.8206
vn -0.6498 -0.0438 0.7588
vn -0.8125 -0.2152 0.5418
vn 0.8052 0.2110 -0.5542
vn 0.8143 -0.2022 -0.5441
vn -0.8280 -0.1204 0.5476
vn 0.9850 -0.1332 0.1099
vn -0.9686 -0.2032 0.1431
vn -0.9560 -0.2640 -0.1280
vn 0.9582 0.2113 -0.1931
vn 0.9606 -0.2016 -0.1911
vn -0.9588 0.2095 0.1918
vn -0.9640 -0.2471 -0.0976
vn 0.8194 -0.2016 0.5366
vn 0.5463 -0.2111 0.8105
vn -0.8199 0.2082 -0.5333
vn -0.7702 -0.2400 -0.5909
vn 0.8172 0.2093 0.5370
vn -0.5603 -0.2057 -0.8024
vn -0.1900 -0.2463 -0.9504
vn -0.2200 -0.1764 0.9594
vn 0.1913 0.1203 -0.9741
vn 0.3699 -0.0970 -0.9240
vn -0.6065 0.2120 -0.7663
vn 0.2168 0.1944 0.9567
vn 0.1815 -0.2006 0.9627
vn 0.5668 0.1130 -0.8161
vn 0.3913 -0.0966 -0.9152
vn 0.8194 -0.1038 -0.5637
vn 0.0957 0.9909 -0.0943
vn 0.0779 0.9919 0.1006
vn 0.0384 0.9981 -0.0475
vn -0.0555 0.9881 -0.1433
vn -0.0768 0.9924 0.0960
vn 0.1866 0.9800 -0.0687
vn -0.0003 0.9982 -0.0596
vn 0.0748 0.9933 -0.0879
vn 0.0601 0.9975 -0.0383
vn -0.0161 0.9998 0.0095
vn -0.0322 0.9984 -0.0473
vn 0.0206 0.9991 -0.0374
vn -0.0964 0.9953 0.0082
vn 0.0064 0.9940 -0.1089
vn -0.0619 0.9978 0.0239
vn -0.0112 0.9982 0.0582
vn 0.0016 0.9983 0.0582
vn -0.0087 0.9984 -0.0560
vn 0.0426 0.9984 0.0359
vn -0.0470 0.9815 -0.1856
vn 0.1115 0.9932 -0.0334
vn 0.0315 0.9966 0.0760
vn 0.0577 0.9937 0.0964
vn -0.0269 0.9978 -0.0605
vn 0.0579 0.9983 -0.0070
vn -0.0269 0.9959 0.0863
vn 0.0477 0.9984 -0.0317
vn -0.0603 0.9982 0.0060
vn 0.0415 0.9984 -0.0380
vn -0.0150 0.9986 0.0513
vn -0.0021 0.9984 -0.0560
vn 0.1397 -0.9900 -0.0170
vn 0.1663 -0.9855 0.0322
vn 0.0104 -0.9998 0.0191
vn -0.0426 -0.9880 -0.1487
vn 0.0716 -0.9850 -0.1568
vn -0.0805 -0.9965 -0.0203
vn 0.0945 -0.9949 0.0363
vn 0.0406 -0.9979 -0.0501
vn -0.0572 -0.9823 0.1783
vn -0.0965 -0.9923 0.0772
vn 0.1438 -0.9839 -0.1064
vn 0.0924 -0.9956 0.0173
vn -0.1447 -0.9886 0.0410
vn 0.0297 -0.9966 -0.0764
vn -0.0605 -0.9960 -0.0658
vn 0.0764 -0.9961 0.0440
vn -0.0306 -0.9873 0.1558
vn 0.0082 -0.9952 0.0972
vn -0.0309 -0.9968 0.0742
vn 0.0485 -0.9988 0.0003
vn 0.0311 -0.9967 -0.0754
vn -0.0839 -0.9877 0.1322
vn -0.0753 -0.9967 -0.0314
vn 0.0910 -0.9867 -0.1349
vn 0.1706 -0.9850 0.0264
vn -0.1598 -0.9867 -0.0311
vn 0.0643 -0.9976 0.0268
vn 0.0119 -0.9999 0.0048
vn -0.0738 -0.9968 -0.0304
vn -0.0048 -0.9999 -0.0119
vn -0.1320 -0.9872 -0.0891
vn 0.0082 -0.9998 0.0195
vn 0.3901 0.2781 0.8778
vn 0.4089 0.1625 0.8980
vn 0.3877 -0.1875 0.9025
vn -0.1910 -0.2027 0.9604
vn -0.9847 -0.0566 0.1650
vn -0.3522 -0.1278 0.9271
vn -0.3501 0.1672 0.9217
vn -0.8115 0.2104 0.5452
vn -0.9801 0.1648 0.1109
vn -0.9817 0.1753 -0.0747
vn -0.4808 0.0832 -0.8729
vn -0.1926 0.1591 -0.9683
vn 0.6312 0.5961 0.4963
vn 0.9736 0.1367 0.1830
vn 0.7758 -0.1618 0.6099
vn 0.9729 -0.1979 0.1193
vn 0.9188 0.1908 0.3455
vn 0.5128 0.1934 0.8364
vn -0.1133 0.9880 -0.1046
vn 0.0370 0.9965 -0.0750
vn 0.0962 0.9916 -0.0861
vn -0.1475 0.9838 -0.1024
vn -0.0039 0.9997 0.0242
vn -0.0871 0.9924 0.0871
vn 0.1297 0.9468 -0.2944
vn -0.1083 0.9884 0.1068
vn 0.0461 0.9959 0.0773
vn -0.0961 0.9941 0.0499
vn 0.0790 0.9960 0.0413
vn -0.0245 0.9996 0.0120
vn 0.2264 0.9701 -0.0879
vn -0.0906 0.9954 -0.0310
vn 0.0359 0.9846 0.1708
vn 0.1898 0.9813 -0.0316
vn -0.5545 0.0621 0.8299
vn -0.5537 -0.0822 0.8287
vn 0.8299 0.0621 -0.5545
vn 0.8287 -0.0822 -0.5537
vn -0.8299 0.0621 0.5545
vn -0.8287 -0.0822 0.5537
vn 0.9789 0.0621 -0.1947
vn 0.9775 -0.0822 -0.1944
vn -0.9789 0.0621 0.1947
vn -0.9775 -0.0822 0.1944
vn 0.9789 0.0621 0.1947
vn 0.9775 -0.0822 0.1944
vn -0.9789 0.0621 -0.1947
vn -0.9775 -0.0822 -0.1944
vn 0.8299 0.0621 0.5545
vn 0.8287 -0.0822 0.5537
vn -0.8299 0.0621 -0.5545
vn -0.8287 -0.0822 -0.5537
vn 0.5545 0.0622 0.8299
vn 0.5537 -0.0822 0.8287
vn -0.5546 0.0615 -0.8298
vn -0.5537 -0.0822 -0.8287
vn 0.1947 0.0621 0.9789
vn 0.1944 -0.0822 0.9775
vn 0.1947 0.0620 -0.9789
vn 0.1944 -0.0822 -0.9775
vn -0.1947 0.0621 -0.9789
vn -0.1944 -0.0822 -0.9775
vn -0.1947 0.0621 0.9789
vn -0.1944 -0.0822 0.9775
vn 0.5545 0.0621 -0.8299
vn 0.5537 -0.0822 -0.8287
vn -0.0000 1.0000 -0.0000
vn -0.0000 -1.0000 -0.0000
vn 0.1204 0.9889 -0.0867
vn -0.5550 -0.1269 -0.8221
vn 0.6114 0.2114 0.7626
vn 0.8759 0.0768 -0.4764
vn -0.8285 0.0247 0.5594
vn -0.8767 0.0382 0.4796
vn 0.8284 -0.0328 -0.5592
vn 0.5591 0.0390 0.8282
vn -0.6196 -0.0372 -0.7841
vn -0.5905 -0.3387 -0.7325
vn 0.5821 0.4105 0.7019
vn 0.7938 -0.1986 -0.5748
vn -0.7775 0.2857 0.5602
vn -0.8133 0.1324 0.5665
vn 0.8049 -0.1255 -0.5800
vn 0.5920 0.0181 0.8057
vn -0.5866 -0.0167 -0.8097
vn -0.1092 0.9889 0.1005
vn 0.6493 -0.1269 0.7498
vn -0.6982 0.2114 -0.6840
vn -0.8127 0.0768 0.5777
vn 0.7557 0.0247 -0.6544
vn 0.8130 0.0382 -0.5809
vn -0.7556 -0.0328 0.6543
vn -0.6541 0.0390 -0.7554
vn 0.7088 -0.0372 0.7044
vn 0.6738 -0.3387 0.6567
vn -0.6618 0.4105 -0.6273
vn -0.7194 -0.1986 0.6656
vn 0.7049 0.2857 -0.6492
vn 0.7398 0.1324 -0.6597
vn -0.7317 -0.1255 0.6700
vn -0.6841 0.0181 -0.7292
vn 0.6816 -0.0163 0.7315
vn -0.0000 0.9662 0.2576
vn 0.4242 0.1084 -0.8991
vn -0.3443 -0.0314 0.9383
vn 0.8564 -0.0573 0.5131
vn -0.9037 0.1340 -0.4067
vn -0.8596 0.1682 -0.4826
vn 0.9035 -0.1418 0.4045
vn -0.4273 -0.1950 0.8828
vn 0.3586 0.2044 -0.9109
vn 0.6564 -0.7507 0.0746
vn -0.1773 -0.6783 -0.7131
vn 0.1611 0.6028 0.7815
vn -0.6804 -0.4129 0.6055
vn 0.6975 0.3198 -0.6413
vn 0.3448 0.7175 -0.6053
vn -0.2903 -0.6731 0.6802
vn 0.2442 0.5365 0.8078
vn -0.2356 -0.5353 -0.8112
vn 0.8619 -0.0152 -0.5069
vn -0.8385 -0.0444 0.5431
vn 0.5561 0.1712 0.8133
vn -0.5380 -0.2456 -0.8064
vn 0.0684 0.8785 0.4728
vn -0.8616 0.5033 -0.0660
vn 0.8965 -0.4431 0.0030
vn 0.2633 0.0481 -0.9635
vn -0.2930 0.0241 0.9558
vn -0.3283 -0.6322 0.7019
vn 0.4188 0.5958 -0.6853
vn 0.9280 -0.3286 0.1758
vn -0.9573 0.2627 -0.1211
vn -0.3857 -0.4482 0.8065
vn 0.4145 0.5289 -0.7405
vn 0.9547 0.0516 0.2932
vn -0.9592 0.0456 -0.2792
vn 0.1611 -0.6640 0.7302
vn 0.2515 0.8196 0.5148
vn -0.1789 -0.8607 -0.4767
vn 0.7165 0.2342 -0.6571
vn -0.6765 -0.3045 0.6706
vn -0.9064 0.4148 0.0803
vn 0.9259 -0.3777 -0.0046
vn -0.5473 -0.6873 -0.4777
vn 0.1678 0.9093 0.3809
vn -0.9054 0.1217 0.4068
vn 0.9273 -0.1494 -0.3431
vn -0.1946 -0.5519 -0.8109
vn 0.2376 0.5009 0.8323
vn -0.4516 -0.6640 -0.5960
vn -0.4437 0.8196 -0.3625
vn 0.3618 -0.8606 0.3583
vn -0.3763 0.2342 0.8964
vn 0.3343 -0.3045 -0.8919
vn 0.7898 0.4148 -0.4517
vn -0.8392 -0.3777 0.3912
vn 0.6968 -0.6873 0.2052
vn -0.3116 0.9093 -0.2759
vn 0.6524 0.1217 -0.7480
vn -0.6991 -0.1494 0.6993
vn 0.5157 -0.5519 0.6553
vn -0.5637 0.5009 -0.6568
vn -0.5179 -0.7907 -0.3264
vn 0.2358 -0.3647 0.9008
vn -0.2166 0.2817 -0.9347
vn 0.9791 0.0911 -0.1818
vn -0.9829 -0.1417 0.1173
vn -0.5694 0.5998 0.5621
vn 0.5587 -0.6605 -0.5015
vn -0.4285 0.5516 -0.7156
vn 0.2773 -0.1926 0.9413
vn -0.8534 0.2917 0.4319
vn 0.8259 -0.3591 -0.4347
vn 0.0663 0.6081 -0.7911
vn -0.0646 -0.6622 0.7466
vn 0.4763 -0.8628 -0.1693
vn 0.7482 0.6116 -0.2572
vn -0.7261 -0.6625 0.1842
vn -0.5545 0.4355 -0.7092
vn 0.5443 -0.5062 0.6689
vn 0.2189 0.3638 0.9054
vn -0.1356 -0.3529 -0.9258
vn -0.6674 -0.4993 0.5526
vn 0.6511 0.7393 -0.1720
vn 0.4339 -0.0187 0.9008
vn -0.3827 -0.0279 -0.9235
vn -0.9431 -0.2628 0.2036
vn 0.9465 0.2078 -0.2468
vn 0.2595 -0.4282 0.8656
vn 0.2790 0.9323 0.2300
vn -0.2014 -0.9609 -0.1902
vn 0.6342 0.0371 -0.7723
vn -0.5907 -0.1006 0.8006
vn -0.9053 0.4205 0.0602
vn 0.9316 -0.3634 -0.0009
vn -0.5731 -0.7949 -0.1991
vn 0.1785 0.9801 0.0864
vn -0.8600 0.2326 0.4542
vn 0.8896 -0.2410 -0.3881
vn -0.2627 -0.7602 -0.5942
vn 0.3092 0.7174 0.6242
vn 0.4161 -0.2382 -0.8776
vn -0.0348 0.9896 -0.1395
vn 0.0069 -0.9986 0.0526
vn -0.9930 0.0159 0.1172
vn 0.9813 -0.0662 -0.1809
vn 0.6925 0.2734 0.6676
vn -0.6697 -0.2042 -0.7140
vn 0.2678 -0.8982 0.3487
vn -0.0629 0.9972 0.0398
vn 0.9341 0.1602 0.3192
vn -0.9091 -0.1531 -0.3873
vn -0.2302 -0.8770 0.4217
vn 0.2175 0.8476 -0.4840
vn 0.8293 -0.0719 -0.5541
vn -0.5549 0.0507 0.8304
vn -0.1946 0.0537 -0.9794
vn -0.6061 -0.0992 0.7892
vn -0.5427 -0.2141 0.8122
vn -0.1779 -0.1793 -0.9676
vn 0.5541 0.0491 0.8310
vn -0.8124 -0.2127 -0.5429
vn 0.8236 -0.1374 0.5502
vn -0.9722 -0.2123 -0.0984
vn 0.9303 0.0338 -0.3653
vn 0.9721 -0.1326 -0.1934
vn -0.9868 0.1300 0.0969
vn 0.9587 0.2091 0.1927
vn 0.9587 0.2099 0.1921
vn -0.8302 0.0520 0.5550
vn 0.5536 -0.0839 -0.8285
vn 0.1930 0.0518 0.9798
vn 0.1928 0.0515 0.9799
vn -0.1971 0.2059 0.9585
vn -0.1935 0.2106 0.9582
vn 0.1920 -0.1765 -0.9654
vn -0.6004 0.1683 0.7818
vn 0.9868 -0.1617 -0.0107
vn -0.9634 -0.1326 0.2331
vn 0.9859 -0.1673 0.0033
vn -0.9451 -0.0505 -0.3228
vn 0.8135 -0.1648 0.5578
vn -0.8235 -0.0545 -0.5647
vn 0.3688 0.0332 0.9289
vn -0.6746 -0.0240 -0.7378
vn 0.3030 0.0341 0.9524
vn 0.3268 -0.1729 -0.9291
vn -0.5549 0.0545 -0.8301
vn -0.0949 -0.1585 0.9828
vn 0.5072 -0.1028 -0.8557
vn -0.5351 -0.0049 0.8448
vn -0.5612 -0.1620 0.8117
vn -0.8041 -0.1447 0.5767
vn -0.8201 -0.2051 0.5342
vn 0.8114 0.2184 -0.5422
vn -0.8360 -0.0817 0.5426
vn -0.7955 -0.0394 0.6046
vn 0.9241 0.1228 0.3619
vn 0.4705 0.0223 0.8821
vn -0.9663 -0.2094 0.1496
vn -0.9592 -0.2661 0.0957
vn -0.9741 -0.2136 -0.0741
vn 0.9582 0.2099 -0.1942
vn 0.9591 0.2089 -0.1908
vn -0.9739 0.1697 0.1507
vn 0.8035 -0.1473 0.5767
vn 0.8129 -0.2105 0.5430
vn 0.5134 -0.1874 0.8374
vn 0.5211 -0.1774 0.8348
vn -0.7684 0.2489 -0.5896
vn -0.8138 -0.2052 -0.5437
vn 0.8108 0.2168 0.5436
vn 0.8045 0.1395 0.5774
vn -0.5330 -0.1632 -0.8302
vn -0.5398 -0.2311 -0.8095
vn -0.1923 -0.1689 -0.9667
vn -0.1562 -0.2056 -0.9661
vn -0.4107 0.0478 0.9105
vn -0.1950 0.0299 0.9803
vn 0.3275 0.2026 -0.9229
vn 0.1910 -0.2037 -0.9602
vn -0.5433 0.2717 -0.7944
vn -0.5380 0.0901 -0.8381
vn 0.2076 0.2066 0.9562
vn 0.1829 0.1606 0.9699
vn 0.1328 -0.1745 0.9756
vn 0.4188 0.2101 -0.8835
vn 0.5440 -0.2029 -0.8142
vn 0.7739 -0.1675 -0.6107
vn 0.1311 0.9912 -0.0206
vn -0.0544 0.9881 0.1439
vn -0.0753 0.9971 0.0082
vn 0.1986 0.9794 -0.0353
vn 0.0273 0.9996 0.0078
vn 0.0983 0.9930 -0.0654
vn 0.0375 0.9974 -0.0610
vn 0.0709 0.9964 0.0455
vn 0.0401 0.9988 -0.0291
vn -0.0149 0.9999 0.0082
vn -0.0650 0.9947 -0.0793
vn 0.0172 0.9987 -0.0473
vn -0.0398 0.9812 -0.1887
vn 0.0120 0.9999 -0.0099
vn -0.1084 0.9929 -0.0494
vn 0.0231 0.9771 -0.2116
vn 0.0215 0.9770 -0.2123
vn 0.0820 0.9853 -0.1499
vn -0.1123 0.9904 -0.0805
vn -0.0630 0.9951 -0.0760
vn 0.0198 0.9991 0.0364
vn -0.1144 -0.9908 0.0724
vn 0.0758 -0.9880 0.1346
vn 0.1394 -0.9881 0.0653
vn 0.1034 -0.9848 -0.1397
vn -0.0014 -0.9999 -0.0142
vn 0.0254 -0.9963 -0.0818
vn 0.0999 -0.9870 -0.1258
vn 0.0650 -0.9976 0.0231
vn -0.1392 -0.9876 0.0724
vn -0.0202 -0.9997 -0.0114
vn 0.1175 -0.9918 -0.0502
vn 0.2199 -0.9735 0.0623
vn -0.1471 -0.9890 0.0125
vn 0.0867 -0.9960 0.0230
vn -0.0499 -0.9966 -0.0654
vn -0.0362 -0.9967 0.0731
vn 0.4071 -0.1872 0.8940
vn -0.8591 0.1889 0.4757
vn -0.7973 0.1934 0.5718
vn -0.9727 -0.2045 0.1101
vn -0.9570 0.2100 -0.2002
vn -0.9523 0.2584 -0.1625
vn -0.4770 -0.1497 -0.8661
vn -0.1808 0.2385 -0.9542
vn -0.1561 0.2109 -0.9650
vn 0.9684 -0.1704 0.1820
vn 0.9731 -0.2033 0.1086
vn 0.9203 -0.1827 0.3460
vn 0.5291 0.2146 0.8210
vn 0.5116 0.1954 0.8367
vn 0.0600 0.9955 0.0732
vn 0.0118 0.9957 -0.0920
vn 0.1240 0.9916 0.0364
vn -0.1402 0.9798 -0.1427
vn 0.0068 0.9961 0.0874
vn -0.0541 0.9983 -0.0239
vn -0.0023 0.9945 -0.1044
vn 0.0149 0.9994 0.0323
vn 0.1137 0.9468 -0.3011
vn -0.1552 0.9861 0.0594
vn 0.0200 0.9984 0.0523
vn -0.0952 0.9941 0.0522
vn 0.0045 0.9877 -0.1565
vn -0.0245 0.9996 0.0121
vn 0.2255 0.9652 0.1325
vn 0.1273 0.9911 -0.0401
vn 0.5545 0.0621 0.8299
vn -0.5545 0.0621 -0.8299
vn 0.1947 0.0622 0.9789
vn 0.1947 0.0621 -0.9789
vn -0.1946 0.0615 -0.9790
vn 0.5545 0.0620 -0.8299
vn -0.0000 1.0000 0.0001
vn 0.0001 1.0000 0.0002
vn 0.0008 1.0000 -0.0004
vn -0.0006 1.0000 0.0015
vn 0.0012 1.0000 -0.0030
vn -0.0000 1.0000 0.0034
vn -0.0003 1.0000 -0.0000
vn 0.1204 0.9889 -0.0868
vn -0.6076 -0.1341 -0.7828
vn 0.5478 0.2041 0.8114
vn 0.8268 0.0694 -0.5582
vn -0.8778 0.0160 0.4788
vn -0.8284 0.0319 0.5593
vn 0.8744 -0.0378 -0.4838
vn 0.6353 0.0461 0.7708
vn -0.5593 -0.0323 -0.8284
vn -0.5902 -0.3388 -0.7327
vn 0.5818 0.4105 0.7021
vn 0.7953 -0.1979 -0.5731
vn -0.7789 0.2851 0.5585
vn -0.8043 0.1311 0.5796
vn 0.8073 -0.1259 -0.5765
vn 0.5869 0.0196 0.8094
vn -0.5906 -0.0155 -0.8068
vn 0.6968 -0.1341 0.7046
vn -0.6408 0.2041 -0.7400
vn -0.7541 0.0694 0.6530
vn 0.8142 0.0160 -0.5803
vn 0.7556 0.0319 -0.6543
vn -0.8102 -0.0378 0.5849
vn -0.7230 0.0461 -0.6894
vn 0.6543 -0.0323 0.7556
vn 0.6736 -0.3388 0.6569
vn -0.6616 0.4105 -0.6275
vn -0.7211 -0.1979 0.6640
vn 0.7066 0.2851 -0.6477
vn 0.7365 0.1309 -0.6636
vn -0.7326 -0.1259 0.6689
vn -0.6826 0.0190 -0.7306
vn 0.6829 -0.0155 0.7304
vn -0.0000 0.9663 0.2575
vn 0.3636 0.1079 -0.9253
vn -0.4186 -0.0308 0.9076
vn 0.9018 -0.0428 0.4301
vn -0.8595 0.1471 -0.4896
vn -0.9035 0.1409 -0.4048
vn 0.8620 -0.1667 0.4787
vn -0.3391 -0.1975 0.9198
vn 0.4274 0.2015 -0.8813
vn 0.6564 -0.7507 0.0747
vn -0.1274 -0.6393 -0.7583
vn 0.2188 0.6470 0.7304
vn -0.6614 -0.3731 0.6506
vn 0.7181 0.3600 -0.5956
vn 0.3006 0.6665 -0.6823
vn -0.3289 -0.7106 0.6220
vn 0.2407 0.5107 0.8254
vn -0.2374 -0.5472 -0.8026
vn 0.8554 -0.0206 -0.5176
vn -0.8448 -0.0498 0.5327
vn 0.5710 0.1749 0.8021
vn -0.5261 -0.2424 -0.8152
vn 0.0683 0.8785 0.4728
vn -0.8733 0.4870 0.0154
vn 0.8828 -0.4599 0.0959
vn 0.3013 0.0301 -0.9531
vn -0.2526 0.0057 0.9676
vn -0.4210 -0.6117 0.6698
vn 0.3489 0.6070 -0.7141
vn 0.9647 -0.2366 0.1154
vn -0.9238 0.3408 -0.1747
vn -0.4088 -0.4411 0.7989
vn 0.3906 0.5366 -0.7480
vn 0.9510 0.0383 0.3067
vn -0.9627 0.0342 -0.2684
vn 0.1611 -0.6639 0.7302
vn 0.2071 0.8093 0.5497
vn -0.2312 -0.8709 -0.4337
vn 0.7257 0.2588 -0.6374
vn -0.6671 -0.2784 0.6910
vn -0.9376 0.3477 0.0084
vn 0.9000 -0.4321 -0.0570
vn -0.1413 -0.9239 -0.3557
vn 0.5516 0.6801 0.4829
vn -0.9143 0.1065 0.3907
vn 0.9185 -0.1644 -0.3597
vn -0.2227 -0.5472 -0.8069
vn 0.2130 0.5056 0.8361
vn -0.4179 0.8093 -0.4128
vn 0.3913 -0.8709 0.2974
vn -0.3929 0.2588 0.8824
vn 0.3172 -0.2784 -0.9066
vn 0.8482 0.3477 -0.3995
vn -0.7938 -0.4321 0.4280
vn 0.2770 -0.9239 0.2641
vn -0.7030 0.6801 -0.2081
vn 0.6673 0.1065 -0.7371
vn -0.6841 -0.1644 0.7107
vn 0.5395 -0.5472 0.6399
vn -0.5429 0.5056 -0.6705
vn 0.1798 -0.3651 0.9135
vn -0.2829 0.2802 -0.9173
vn 0.9853 0.0760 -0.1533
vn -0.9765 -0.1571 0.1474
vn -0.5811 0.6586 0.4781
vn 0.5457 -0.6170 -0.5671
vn -0.2761 0.1539 -0.9487
vn 0.4263 -0.5598 0.7105
vn -0.8576 0.3061 0.4133
vn 0.8221 -0.3444 -0.4534
vn 0.0447 0.6238 -0.7803
vn -0.0835 -0.6486 0.7566
vn 0.4764 -0.8628 -0.1693
vn 0.7784 0.5905 -0.2132
vn -0.6881 -0.6862 0.2360
vn -0.5281 0.4525 -0.7186
vn 0.5719 -0.4880 0.6593
vn 0.1296 0.3232 0.9374
vn -0.2023 -0.3876 -0.8993
vn -0.6322 -0.7611 0.1452
vn 0.6700 0.4908 -0.5570
vn 0.4139 -0.0280 0.9099
vn -0.4031 -0.0368 -0.9144
vn -0.9375 -0.2597 0.2317
vn 0.9519 0.2109 -0.2223
vn 0.2389 0.9324 0.2711
vn -0.2485 -0.9584 -0.1405
vn 0.6447 0.0663 -0.7616
vn -0.5800 -0.0698 0.8116
vn -0.9419 0.3357 0.0142
vn 0.9021 -0.4304 -0.0325
vn -0.1490 -0.9869 -0.0612
vn 0.5782 0.7895 0.2056
vn -0.8701 0.2135 0.4442
vn 0.8794 -0.2602 -0.3987
vn -0.2903 -0.7545 -0.5886
vn 0.2851 0.7230 0.6293
vn 0.4161 -0.2381 -0.8776
vn 0.0226 0.9898 -0.1410
vn 0.0753 -0.9959 0.0504
vn -0.9929 0.0476 0.1093
vn 0.9815 -0.0327 -0.1889
vn 0.6862 0.1776 0.7054
vn -0.6709 -0.2792 -0.6870
vn 0.0593 -0.9951 -0.0789
vn -0.2669 0.8948 -0.3579
vn 0.9342 0.1383 0.3288
vn -0.9094 -0.1750 -0.3774
vn -0.2064 -0.8750 0.4378
vn 0.2384 0.8499 -0.4699
vt 0.839338 0.470689
vt 0.839340 0.476507
vt 0.839340 0.470016
vt 0.836669 0.493172
vt 0.836663 0.481771
vt 0.836670 0.481705
vt 0.837920 0.479705
vt 0.837926 0.487537
vt 0.837926 0.479213
vt 0.836662 0.505805
vt 0.836668 0.515336
vt 0.836669 0.548171
vt 0.836676 0.537422
vt 0.836669 0.537376
vt 0.836689 0.493165
vt 0.836683 0.483423
vt 0.836689 0.481994
vt 0.836661 0.481704
vt 0.836663 0.493172
vt 0.836663 0.481773
vt 0.839338 0.470179
vt 0.839340 0.470314
vt 0.836659 0.493172
vt 0.836658 0.481770
vt 0.836695 0.493172
vt 0.836695 0.492478
vt 0.836695 0.483019
vt 0.839321 0.470421
vt 0.839321 0.476507
vt 0.839320 0.470052
vt 0.837940 0.503954
vt 0.837941 0.503954
vt 0.837940 0.513524
vt 0.837916 0.479093
vt 0.837913 0.487572
vt 0.837913 0.479575
vt 0.836683 0.493172
vt 0.836689 0.482896
vt 0.836683 0.481708
vt 0.839335 0.476377
vt 0.839331 0.476483
vt 0.839331 0.475565
vt 0.837920 0.503954
vt 0.837925 0.503954
vt 0.837926 0.513966
vt 0.836677 0.481934
vt 0.837916 0.519730
vt 0.837920 0.520343
vt 0.836693 0.537431
vt 0.836694 0.549119
vt 0.836694 0.537412
vt 0.836660 0.537837
vt 0.836657 0.550363
vt 0.836658 0.537448
vt 0.836693 0.537423
vt 0.839320 0.508888
vt 0.839321 0.501769
vt 0.839320 0.501575
vt 0.839341 0.508402
vt 0.839338 0.501566
vt 0.839340 0.501561
vt 0.836660 0.537790
vt 0.836663 0.549809
vt 0.836663 0.537432
vt 0.836690 0.549856
vt 0.836683 0.537469
vt 0.836689 0.537431
vt 0.836676 0.549747
vt 0.836676 0.537429
vt 0.836683 0.549037
vt 0.836683 0.537370
vt 0.836669 0.482599
vt 0.836669 0.537463
vt 0.839335 0.508137
vt 0.839338 0.501560
vt 0.839334 0.501531
vt 0.837920 0.530494
vt 0.837916 0.529420
vt 0.837916 0.522571
vt 0.836659 0.493219
vt 0.836696 0.515336
vt 0.836689 0.537422
vt 0.836689 0.493172
vt 0.836691 0.515336
vt 0.836663 0.540471
vt 0.836659 0.550781
vt 0.837939 0.487537
vt 0.837938 0.487537
vt 0.837938 0.479434
vt 0.836657 0.501622
vt 0.836657 0.515336
vt 0.839320 0.481292
vt 0.839319 0.489056
vt 0.837938 0.520320
vt 0.837941 0.503954
vt 0.836657 0.529181
vt 0.836656 0.515336
vt 0.836659 0.493172
vt 0.836690 0.505226
vt 0.836693 0.493172
vt 0.836683 0.492941
vt 0.837915 0.503954
vt 0.837913 0.520585
vt 0.837916 0.520321
vt 0.839322 0.489056
vt 0.839321 0.476507
vt 0.836691 0.522938
vt 0.839326 0.482270
vt 0.839323 0.476507
vt 0.836676 0.493172
vt 0.836669 0.493220
vt 0.836669 0.503349
vt 0.837926 0.486304
vt 0.837920 0.487537
vt 0.837921 0.479043
vt 0.836684 0.517059
vt 0.836676 0.515336
vt 0.836668 0.524992
vt 0.836661 0.515336
vt 0.837932 0.503954
vt 0.837931 0.520348
vt 0.836677 0.493129
vt 0.836684 0.515336
vt 0.836677 0.515336
vt 0.837935 0.520313
vt 0.837931 0.505230
vt 0.837931 0.520274
vt 0.836690 0.549519
vt 0.836662 0.550489
vt 0.836668 0.549187
vt 0.836666 0.549195
vt 0.837915 0.529992
vt 0.837917 0.529064
vt 0.837918 0.529542
vt 0.837936 0.528794
vt 0.837934 0.528601
vt 0.837934 0.528916
vt 0.837915 0.529941
vt 0.837914 0.528807
vt 0.839339 0.508114
vt 0.839337 0.508250
vt 0.839337 0.507896
vt 0.836666 0.549850
vt 0.836665 0.549201
vt 0.836662 0.550420
vt 0.837934 0.528601
vt 0.837934 0.529065
vt 0.837936 0.528961
vt 0.836672 0.549096
vt 0.836668 0.549201
vt 0.839334 0.508064
vt 0.839335 0.508121
vt 0.839337 0.507895
vt 0.836676 0.549153
vt 0.836670 0.549001
vt 0.836676 0.548941
vt 0.836672 0.549066
vt 0.836676 0.549241
vt 0.837930 0.528822
vt 0.837926 0.529068
vt 0.837929 0.528992
vt 0.836682 0.550105
vt 0.836676 0.549198
vt 0.836670 0.548441
vt 0.836683 0.548524
vt 0.836687 0.549037
vt 0.836676 0.548069
vt 0.839333 0.508195
vt 0.839331 0.508252
vt 0.839331 0.507588
vt 0.839331 0.508228
vt 0.839333 0.508209
vt 0.837922 0.528938
vt 0.837919 0.529028
vt 0.837926 0.528199
vt 0.837931 0.528812
vt 0.837929 0.529011
vt 0.837930 0.529707
vt 0.836665 0.549882
vt 0.836686 0.548561
vt 0.836691 0.548871
vt 0.836686 0.548948
vt 0.836688 0.548612
vt 0.836664 0.549237
vt 0.836687 0.549238
vt 0.837917 0.529038
vt 0.837919 0.529038
vt 0.836685 0.549010
vt 0.836681 0.549140
vt 0.837922 0.528960
vt 0.837926 0.529036
vt 0.836692 0.482231
vt 0.836690 0.481872
vt 0.837912 0.479092
vt 0.837916 0.480550
vt 0.837938 0.479044
vt 0.837936 0.479168
vt 0.837935 0.479029
vt 0.836664 0.483738
vt 0.836667 0.482393
vt 0.837933 0.479113
vt 0.837935 0.479925
vt 0.837918 0.479553
vt 0.837922 0.479029
vt 0.836682 0.481685
vt 0.837926 0.479486
vt 0.837926 0.479183
vt 0.836671 0.483785
vt 0.836676 0.482409
vt 0.837931 0.480316
vt 0.837930 0.480585
vt 0.837918 0.479565
vt 0.837916 0.479094
vt 0.837935 0.479258
vt 0.837933 0.479618
vt 0.839322 0.470015
vt 0.839325 0.470414
vt 0.839323 0.470004
vt 0.837935 0.479797
vt 0.837914 0.479043
vt 0.837915 0.479557
vt 0.836663 0.482398
vt 0.836676 0.481682
vt 0.836689 0.482722
vt 0.836664 0.481685
vt 0.837926 0.479026
vt 0.836667 0.482409
vt 0.836686 0.482481
vt 0.836682 0.483787
vt 0.837922 0.480585
vt 0.837926 0.479565
vt 0.836676 0.482302
vt 0.836671 0.481685
vt 0.839334 0.470004
vt 0.839336 0.470068
vt 0.839331 0.470002
vt 0.836686 0.481798
vt 0.836689 0.481685
vt 0.839338 0.470004
vt 0.839338 0.470110
vt 0.836676 0.493172
vt 0.836676 0.491507
vt 0.839667 0.443336
vt 0.839667 0.443336
vt 0.839667 0.450034
vt 0.839667 0.432354
vt 0.839667 0.432333
vt 0.836676 0.515336
vt 0.839323 0.501434
vt 0.839323 0.501115
vt 0.839323 0.503287
vt 0.839660 0.443336
vt 0.839660 0.443336
vt 0.839660 0.438614
vt 0.839661 0.453889
vt 0.839320 0.489056
vt 0.839321 0.501795
vt 0.839657 0.443336
vt 0.839657 0.443336
vt 0.839657 0.450196
vt 0.837911 0.503954
vt 0.837910 0.503954
vt 0.837911 0.514209
vt 0.839663 0.443336
vt 0.839662 0.443336
vt 0.839663 0.448121
vt 0.836669 0.515336
vt 0.837939 0.487537
vt 0.837939 0.487023
vt 0.839677 0.443336
vt 0.839677 0.443336
vt 0.839677 0.449738
vt 0.839676 0.432354
vt 0.839676 0.432354
vt 0.836697 0.515336
vt 0.839674 0.443336
vt 0.839675 0.443336
vt 0.839674 0.447103
vt 0.837937 0.503954
vt 0.837936 0.509585
vt 0.839670 0.459965
vt 0.839672 0.459990
vt 0.839671 0.459780
vt 0.836681 0.549165
vt 0.837916 0.529488
vt 0.837921 0.528475
vt 0.837920 0.528275
vt 0.836683 0.551095
vt 0.836682 0.548909
vt 0.836676 0.549496
vt 0.836669 0.551167
vt 0.836687 0.548611
vt 0.836663 0.549717
vt 0.839338 0.508409
vt 0.839339 0.508171
vt 0.839341 0.508559
vt 0.837912 0.530208
vt 0.836691 0.549098
vt 0.836691 0.548996
vt 0.839321 0.509124
vt 0.839322 0.508053
vt 0.837939 0.528977
vt 0.837939 0.529263
vt 0.839321 0.509286
vt 0.839323 0.508959
vt 0.837918 0.529034
vt 0.088870 0.903109
vt 0.088952 0.903988
vt 0.088870 0.903988
vt 0.088951 0.886022
vt 0.088869 0.885135
vt 0.088951 0.885135
vt 0.089226 0.903109
vt 0.089279 0.903988
vt 0.089280 0.903109
vt 0.089282 0.886022
vt 0.089226 0.885135
vt 0.089227 0.886022
vt 0.088816 0.903988
vt 0.088815 0.903109
vt 0.088868 0.886022
vt 0.088815 0.885135
vt 0.089300 0.903109
vt 0.089299 0.903989
vt 0.089301 0.886022
vt 0.089281 0.885135
vt 0.088797 0.903988
vt 0.088796 0.903109
vt 0.088794 0.886022
vt 0.088813 0.886022
vt 0.089279 0.903988
vt 0.089300 0.885135
vt 0.088795 0.885135
vt 0.089225 0.903988
vt 0.088870 0.903988
vt 0.089144 0.903988
vt 0.089144 0.903109
vt 0.089144 0.885135
vt 0.088951 0.903109
vt 0.088952 0.903997
vt 0.089048 0.903109
vt 0.089048 0.903988
vt 0.089048 0.886022
vt 0.089145 0.886022
vt 0.089048 0.903988
vt 0.089144 0.903990
vt 0.089048 0.885135
vt 0.089225 0.903988
vt 0.836669 0.554892
vt 0.836669 0.554934
vt 0.836669 0.554934
vt 0.840079 0.456375
vt 0.840079 0.456375
vt 0.840079 0.454930
vt 0.840079 0.454918
vt 0.840079 0.454902
vt 0.840079 0.454912
vt 0.840079 0.453026
vt 0.840079 0.453026
vt 0.840079 0.453026
vt 0.840079 0.453026
vt 0.836669 0.549524
vt 0.836669 0.554892
vt 0.836669 0.549453
vt 0.836669 0.549559
vt 0.836669 0.549627
vt 0.836668 0.541867
vt 0.836668 0.541743
vt 0.836669 0.541743
vt 0.836668 0.541867
vt 0.840080 0.455591
vt 0.840080 0.455581
vt 0.840081 0.455591
vt 0.836677 0.557590
vt 0.836677 0.557590
vt 0.836676 0.551668
vt 0.836676 0.551619
vt 0.836676 0.551552
vt 0.836676 0.557590
vt 0.836676 0.551593
vt 0.836677 0.543861
vt 0.836676 0.543861
vt 0.836676 0.543861
vt 0.836676 0.543861
vt 0.840080 0.454272
vt 0.840080 0.454255
vt 0.840080 0.454281
vt 0.840080 0.454297
vt 0.840081 0.453689
vt 0.840080 0.453663
vt 0.840080 0.453651
vt 0.840080 0.453678
vt 0.836687 0.556470
vt 0.836687 0.556505
vt 0.836687 0.556535
vt 0.836687 0.550560
vt 0.836687 0.550343
vt 0.836687 0.550351
vt 0.836687 0.556440
vt 0.836687 0.550565
vt 0.836687 0.543070
vt 0.836687 0.542979
vt 0.836687 0.542785
vt 0.836686 0.542876
vt 0.836697 0.541579
vt 0.836696 0.541320
vt 0.836697 0.541454
vt 0.836695 0.543914
vt 0.836695 0.544184
vt 0.836695 0.544499
vt 0.836697 0.541445
vt 0.836695 0.544226
vt 0.836693 0.549500
vt 0.836695 0.547346
vt 0.836692 0.549122
vt 0.836693 0.548572
vt 0.836694 0.546856
vt 0.836694 0.547270
vt 0.836695 0.547766
vt 0.836693 0.548186
vt 0.836670 0.546963
vt 0.836670 0.547140
vt 0.836670 0.547020
vt 0.836669 0.543255
vt 0.836669 0.543111
vt 0.836669 0.542831
vt 0.836671 0.547082
vt 0.836669 0.542976
vt 0.836669 0.537462
vt 0.836669 0.540597
vt 0.836669 0.537638
vt 0.836670 0.538524
vt 0.836669 0.541036
vt 0.836670 0.540805
vt 0.836670 0.540366
vt 0.836669 0.538714
vt 0.840081 0.445868
vt 0.840081 0.445911
vt 0.840081 0.445918
vt 0.840081 0.446272
vt 0.840081 0.446183
vt 0.840081 0.446195
vt 0.840081 0.445861
vt 0.840081 0.446286
vt 0.840081 0.447626
vt 0.840081 0.447096
vt 0.840081 0.447229
vt 0.840081 0.447422
vt 0.840081 0.447079
vt 0.840081 0.447277
vt 0.840081 0.447477
vt 0.840081 0.447208
vt 0.836666 0.511137
vt 0.836666 0.511314
vt 0.836666 0.511342
vt 0.836667 0.512794
vt 0.836667 0.512428
vt 0.836667 0.512476
vt 0.836666 0.511108
vt 0.836667 0.512851
vt 0.836668 0.518345
vt 0.836668 0.516170
vt 0.836668 0.516714
vt 0.836668 0.517507
vt 0.836668 0.516101
vt 0.836668 0.516915
vt 0.836669 0.517732
vt 0.836668 0.516628
vt 0.836668 0.511778
vt 0.836668 0.511538
vt 0.836668 0.511647
vt 0.836668 0.514099
vt 0.836668 0.514376
vt 0.836668 0.514643
vt 0.836668 0.511669
vt 0.836668 0.514363
vt 0.836671 0.519334
vt 0.836669 0.517584
vt 0.836669 0.517154
vt 0.836670 0.518408
vt 0.836669 0.517161
vt 0.836670 0.518808
vt 0.836670 0.519727
vt 0.836669 0.516736
vt 0.836698 0.514109
vt 0.836698 0.514250
vt 0.836698 0.514249
vt 0.836698 0.516118
vt 0.836697 0.515875
vt 0.836697 0.515881
vt 0.836698 0.514110
vt 0.836698 0.516131
vt 0.836696 0.522964
vt 0.836697 0.520139
vt 0.836697 0.520499
vt 0.836696 0.522017
vt 0.836697 0.520127
vt 0.836696 0.521617
vt 0.836695 0.522546
vt 0.836697 0.520471
vt 0.840083 0.438860
vt 0.840083 0.438933
vt 0.840083 0.438873
vt 0.840083 0.439164
vt 0.840083 0.438920
vt 0.840083 0.439056
vt 0.840082 0.439075
vt 0.840082 0.439186
vt 0.840082 0.440117
vt 0.840082 0.439774
vt 0.840082 0.439935
vt 0.840082 0.439955
vt 0.840082 0.439747
vt 0.840082 0.439781
vt 0.840082 0.439938
vt 0.840082 0.439904
vt 0.840083 0.438867
vt 0.840083 0.438938
vt 0.840083 0.438873
vt 0.840083 0.439029
vt 0.840083 0.438932
vt 0.840083 0.438908
vt 0.840083 0.438912
vt 0.840083 0.439035
vt 0.840082 0.439668
vt 0.840083 0.439430
vt 0.840083 0.439610
vt 0.840082 0.439561
vt 0.840082 0.439427
vt 0.840082 0.439370
vt 0.840082 0.439472
vt 0.840082 0.439603
vt 0.839338 0.476507
vt 0.837920 0.487573
vt 0.836662 0.515336
vt 0.839338 0.476503
vt 0.836692 0.481706
vt 0.839321 0.476534
vt 0.837939 0.520306
vt 0.837938 0.520313
vt 0.837916 0.487537
vt 0.839331 0.470122
vt 0.839335 0.470988
vt 0.837926 0.520318
vt 0.837915 0.503954
vt 0.836694 0.549783
vt 0.836694 0.549505
vt 0.839338 0.508600
vt 0.836659 0.551068
vt 0.836662 0.515336
vt 0.836663 0.537199
vt 0.837939 0.480016
vt 0.836656 0.515336
vt 0.839319 0.489056
vt 0.836692 0.515336
vt 0.836691 0.515336
vt 0.839325 0.489056
vt 0.839327 0.476535
vt 0.837925 0.487537
vt 0.836667 0.515336
vt 0.837926 0.503954
vt 0.837937 0.528886
vt 0.837932 0.528896
vt 0.837926 0.528845
vt 0.837931 0.530440
vt 0.837933 0.528563
vt 0.837936 0.529523
vt 0.836659 0.482422
vt 0.839323 0.470054
vt 0.837916 0.479029
vt 0.839661 0.454169
vt 0.839322 0.489056
vt 0.839658 0.436541
vt 0.837912 0.520332
vt 0.839663 0.437397
vt 0.836694 0.493172
vt 0.839674 0.438327
vt 0.837935 0.520320
vt 0.839672 0.459799
vt 0.836683 0.548897
vt 0.837918 0.529518
vt 0.839322 0.508919
vt 0.837913 0.530421
s 0
usemtl Texture_Map
f 15/1/1 68/2/1 14/3/1
f 40/4/2 7/5/2 8/6/2
f 2/7/3 44/8/3 1/9/3
f 116/10/4 40/4/4 41/11/4
f 18/12/5 43/13/5 47/14/5
f 54/15/6 10/16/6 11/17/6
f 4/18/7 51/19/7 3/20/7
f 59/2/8 11/21/8 12/22/8
f 62/23/9 4/18/9 5/24/9
f 125/25/10 127/26/10 13/27/10
f 6/28/11 62/29/11 5/30/11
f 61/31/12 128/32/12 130/33/12
f 7/34/13 65/35/13 6/36/13
f 36/37/14 15/38/14 16/39/14
f 48/40/15 105/41/15 107/42/15
f 41/43/16 108/44/16 110/45/16
f 1/46/17 36/37/17 16/39/17
f 112/47/18 41/43/18 39/48/18
f 69/49/19 29/50/19 64/51/19
f 66/52/20 21/53/20 63/54/20
f 29/50/21 60/55/21 64/51/21
f 21/56/22 57/57/22 63/58/22
f 28/59/23 55/60/23 60/61/23
f 57/62/24 19/63/24 52/64/24
f 27/65/25 49/66/25 55/67/25
f 52/64/26 18/12/26 47/14/26
f 49/66/27 25/68/27 42/69/27
f 43/13/28 32/70/28 37/71/28
f 51/19/29 2/72/29 3/20/29
f 25/68/30 39/73/30 42/69/30
f 32/74/31 33/75/31 37/76/31
f 24/77/32 23/78/32 113/79/32
f 65/80/33 71/19/33 116/10/33
f 70/81/34 33/82/34 69/49/34
f 70/81/35 34/83/35 35/84/35
f 113/85/36 22/86/36 66/52/36
f 126/87/37 59/88/37 12/89/37
f 118/90/38 65/80/38 67/91/38
f 118/92/39 58/93/39 62/29/39
f 130/33/40 70/31/40 69/94/40
f 129/95/41 68/88/41 70/31/41
f 120/96/42 67/91/42 66/52/42
f 58/97/43 56/98/43 62/23/43
f 132/99/44 59/100/44 61/81/44
f 48/101/45 54/15/45 132/99/45
f 53/102/46 57/103/46 52/104/46
f 53/105/47 56/106/47 58/93/47
f 134/107/48 61/81/48 60/55/48
f 122/108/49 51/109/49 53/105/49
f 44/110/50 46/111/50 122/112/50
f 107/113/51 40/114/51 8/115/51
f 38/116/52 43/13/52 37/71/52
f 36/37/53 45/117/53 38/116/53
f 124/118/54 53/119/54 52/64/54
f 110/45/55 50/120/55 49/121/55
f 105/122/56 50/123/56 109/124/56
f 33/125/57 38/126/57 37/127/57
f 35/84/58 36/37/58 38/116/58
f 31/128/59 69/49/59 33/82/59
f 140/129/60 74/130/60 139/131/60
f 140/132/61 76/133/61 75/134/61
f 141/135/62 83/136/62 82/137/62
f 144/138/63 76/133/63 142/139/63
f 143/140/64 84/141/64 83/142/64
f 146/143/65 77/144/65 144/145/65
f 147/146/66 84/147/66 145/148/66
f 146/143/67 79/149/67 78/150/67
f 149/151/68 85/152/68 147/153/68
f 150/154/69 79/149/69 148/155/69
f 151/156/70 73/157/70 72/158/70
f 149/159/71 72/160/71 86/161/71
f 153/162/72 80/163/72 150/154/72
f 139/131/73 73/157/73 152/164/73
f 138/165/74 82/166/74 87/167/74
f 72/158/75 73/157/75 87/167/75
f 86/168/76 72/169/76 87/170/76
f 80/171/77 81/172/77 87/170/77
f 73/173/78 74/174/78 87/175/78
f 135/176/79 81/177/79 153/178/79
f 74/130/80 75/179/80 87/167/80
f 136/180/81 141/181/81 137/182/81
f 75/134/82 76/133/82 87/175/82
f 82/166/83 83/183/83 87/167/83
f 76/184/84 77/144/84 87/167/84
f 83/183/85 84/185/85 87/167/85
f 77/186/86 78/187/86 87/175/86
f 84/185/87 85/188/87 87/167/87
f 78/150/88 79/149/88 87/167/88
f 85/188/89 86/189/89 87/167/89
f 79/190/90 80/191/90 87/175/90
f 12/192/91 90/193/91 13/27/91
f 5/194/92 97/195/92 6/36/92
f 14/196/93 90/197/93 89/198/93
f 7/5/94 97/199/94 96/200/94
f 14/196/95 88/201/95 15/202/95
f 8/115/96 96/203/96 95/204/96
f 15/38/97 103/205/97 16/39/97
f 8/115/98 94/206/98 9/207/98
f 1/46/99 101/208/99 2/72/99
f 1/46/100 103/205/100 102/209/100
f 10/210/101 94/206/101 93/211/101
f 2/7/102 100/212/102 3/213/102
f 11/214/103 93/211/103 92/215/103
f 4/216/104 100/217/104 99/218/104
f 11/214/105 91/219/105 12/89/105
f 4/220/106 98/221/106 5/194/106
f 97/199/107 98/222/107 104/223/107
f 90/193/108 91/224/108 104/223/108
f 98/222/109 99/225/109 104/223/109
f 91/219/110 92/215/110 104/226/110
f 99/225/111 100/227/111 104/223/111
f 92/228/112 93/229/112 104/223/112
f 102/209/113 103/205/113 104/223/113
f 100/227/114 101/208/114 104/223/114
f 93/211/115 94/206/115 104/226/115
f 101/230/116 102/231/116 104/226/116
f 94/232/117 95/233/117 104/223/117
f 103/234/118 88/235/118 104/236/118
f 95/233/119 96/200/119 104/223/119
f 88/237/120 89/238/120 104/223/120
f 96/203/121 97/195/121 104/226/121
f 89/239/122 90/240/122 104/236/122
f 105/122/123 106/241/123 107/242/123
f 108/243/124 109/244/124 110/245/124
f 109/244/125 106/246/125 105/247/125
f 40/4/126 108/248/126 41/11/126
f 111/249/127 112/250/127 113/251/127
f 114/252/128 115/253/128 116/254/128
f 112/255/129 115/253/129 114/252/129
f 67/256/130 111/249/130 66/257/130
f 117/258/131 119/259/131 120/260/131
f 58/261/132 117/262/132 120/263/132
f 121/264/133 123/265/133 124/266/133
f 45/117/134 121/267/134 124/118/134
f 125/268/135 126/87/135 127/269/135
f 128/270/136 129/271/136 130/272/136
f 125/273/137 128/270/137 126/274/137
f 59/100/138 128/275/138 61/81/138
f 131/276/139 133/277/139 134/278/139
f 50/120/140 131/279/140 134/280/140
f 135/281/141 137/282/141 138/283/141
f 81/284/142 138/165/142 87/167/142
f 19/285/143 152/286/143 18/287/143
f 26/288/144 150/154/144 25/68/144
f 32/70/145 151/156/145 149/289/145
f 18/12/146 151/156/146 17/290/146
f 25/68/147 148/155/147 24/291/147
f 32/70/148 147/292/148 31/128/148
f 23/293/149 148/155/149 146/143/149
f 31/294/150 145/295/150 30/296/150
f 23/78/151 144/138/151 22/297/151
f 29/50/152 145/298/152 143/299/152
f 22/300/153 142/301/153 21/56/153
f 29/302/154 141/135/154 28/303/154
f 20/304/155 142/301/155 140/305/155
f 19/285/156 140/132/156 139/306/156
f 155/307/157 157/308/157 154/309/157
f 159/310/158 161/311/158 158/312/158
f 164/313/159 162/314/159 163/315/159
f 168/316/160 166/317/160 167/318/160
f 155/307/161 170/319/161 171/320/161
f 160/321/162 173/322/162 161/311/162
f 175/323/163 162/314/163 174/324/163
f 176/325/164 169/326/164 168/316/164
f 171/320/165 178/327/165 179/328/165
f 180/329/166 173/322/166 172/330/166
f 175/323/167 182/331/167 183/315/167
f 176/325/168 185/326/168 177/332/168
f 187/320/169 178/327/169 186/319/169
f 180/329/170 189/322/170 181/333/170
f 183/315/171 190/334/171 191/313/171
f 192/318/172 185/326/172 184/316/172
f 195/307/173 186/319/173 194/335/173
f 188/330/174 197/311/174 189/322/174
f 191/313/175 198/336/175 199/337/175
f 192/318/176 201/338/176 193/317/176
f 203/339/177 194/335/177 202/340/177
f 204/310/178 197/311/178 196/321/178
f 207/341/179 198/336/179 206/342/179
f 208/343/180 201/338/180 200/344/180
f 211/337/181 213/345/181 210/346/181
f 215/343/182 217/338/182 214/347/182
f 203/339/183 213/345/183 212/341/183
f 215/343/184 205/312/184 204/310/184
f 207/341/185 157/308/185 156/339/185
f 208/343/186 158/312/186 209/347/186
f 211/337/187 165/348/187 164/313/187
f 167/318/188 217/338/188 216/344/188
f 165/348/189 194/335/189 154/309/189
f 217/338/190 185/326/190 158/312/190
f 167/318/189 196/321/189 160/321/189
f 187/320/190 211/337/190 183/315/190
f 235/349/191 236/350/191 234/351/191
f 223/352/189 224/353/189 222/353/189
f 227/354/192 224/353/192 225/353/192
f 228/355/193 222/353/193 229/356/193
f 227/354/194 223/352/194 228/355/194
f 226/357/195 222/353/195 224/353/195
f 220/358/196 229/356/196 226/357/196
f 221/359/197 228/355/197 219/360/197
f 219/360/198 229/356/198 218/361/198
f 221/359/199 226/357/199 227/354/199
f 239/362/200 236/350/200 237/363/200
f 240/364/201 234/351/201 241/365/201
f 239/362/202 235/349/202 240/364/202
f 238/366/203 234/351/203 236/350/203
f 232/367/204 241/365/204 238/366/204
f 233/368/205 240/364/205 231/369/205
f 230/370/206 240/364/206 241/365/206
f 232/367/207 239/362/207 233/368/207
f 258/371/208 261/372/208 260/373/208
f 246/374/189 249/374/189 248/375/189
f 251/376/209 248/375/209 249/374/209
f 252/377/210 246/374/210 253/378/210
f 251/376/211 247/379/211 252/377/211
f 250/380/212 246/374/212 248/375/212
f 244/381/213 253/378/213 250/380/213
f 245/382/214 252/377/214 243/383/214
f 243/383/215 253/378/215 242/384/215
f 245/382/216 250/380/216 251/376/216
f 263/385/217 260/373/217 261/372/217
f 264/386/218 258/371/218 265/387/218
f 263/385/219 259/372/219 264/386/219
f 262/388/220 258/371/220 260/373/220
f 256/389/221 265/387/221 262/388/221
f 257/390/222 264/386/222 255/391/222
f 254/392/223 264/386/223 265/387/223
f 256/389/224 263/385/224 257/390/224
f 270/393/225 273/394/225 272/395/225
f 275/396/226 272/395/226 273/394/226
f 276/397/227 270/393/227 277/398/227
f 275/396/228 271/399/228 276/397/228
f 274/400/229 270/393/229 272/395/229
f 268/401/230 277/398/230 274/400/230
f 269/402/231 276/397/231 267/403/231
f 267/403/232 277/398/232 266/404/232
f 269/402/233 274/400/233 275/396/233
f 282/405/234 285/406/234 284/407/234
f 292/408/235 284/407/235 285/406/235
f 291/409/236 282/405/236 293/410/236
f 291/409/237 285/406/237 283/411/237
f 293/410/238 284/407/238 290/412/238
f 278/413/239 286/414/239 280/415/239
f 279/416/240 287/417/240 288/418/240
f 279/416/241 289/419/241 278/413/241
f 281/420/242 286/414/242 287/417/242
f 286/414/243 293/410/243 290/412/243
f 287/417/244 291/409/244 288/418/244
f 288/418/245 293/410/245 289/419/245
f 287/417/246 290/412/246 292/408/246
f 298/421/247 301/422/247 300/423/247
f 308/424/248 300/423/248 301/422/248
f 307/425/249 298/421/249 309/426/249
f 307/425/250 301/422/250 299/427/250
f 309/426/251 300/423/251 306/428/251
f 294/429/252 302/430/252 296/431/252
f 295/432/253 303/433/253 304/434/253
f 295/432/254 305/435/254 294/429/254
f 297/436/255 302/430/255 303/433/255
f 302/430/256 309/426/256 306/428/256
f 303/433/257 307/425/257 304/434/257
f 304/434/258 309/426/258 305/435/258
f 303/433/259 306/428/259 308/424/259
f 314/437/260 317/438/260 316/439/260
f 324/440/261 316/439/261 317/438/261
f 323/441/262 314/437/262 325/442/262
f 324/440/263 315/443/263 323/441/263
f 322/444/264 314/437/264 316/439/264
f 312/445/265 321/446/265 318/447/265
f 313/448/266 320/449/266 311/450/266
f 311/450/267 321/446/267 310/451/267
f 313/448/268 318/447/268 319/452/268
f 321/446/269 322/444/269 318/447/269
f 320/449/270 324/440/270 323/441/270
f 320/449/271 325/442/271 321/446/271
f 319/452/272 322/444/272 324/440/272
f 330/453/273 333/454/273 332/455/273
f 340/456/274 332/455/274 333/454/274
f 339/457/275 330/453/275 341/458/275
f 340/456/276 331/459/276 339/457/276
f 338/460/277 330/453/277 332/455/277
f 328/461/278 337/462/278 334/463/278
f 329/464/279 336/465/279 327/466/279
f 327/466/280 337/462/280 326/467/280
f 329/464/281 334/463/281 335/468/281
f 337/462/282 338/460/282 334/463/282
f 336/465/283 340/456/283 339/457/283
f 336/465/284 341/458/284 337/462/284
f 335/468/285 338/460/285 340/456/285
f 346/469/286 349/470/286 348/471/286
f 356/472/287 348/471/287 349/470/287
f 355/473/288 346/469/288 357/474/288
f 356/472/289 347/475/289 355/473/289
f 354/476/290 346/469/290 348/471/290
f 344/477/291 353/478/291 350/479/291
f 345/480/292 352/481/292 343/482/292
f 343/482/293 353/478/293 342/483/293
f 345/480/294 350/479/294 351/484/294
f 353/478/295 354/476/295 350/479/295
f 352/481/296 356/472/296 355/473/296
f 352/481/297 357/474/297 353/478/297
f 351/484/298 354/476/298 356/472/298
f 362/485/299 365/486/299 364/487/299
f 372/488/300 364/487/300 365/486/300
f 371/489/301 362/485/301 373/490/301
f 372/488/302 363/491/302 371/489/302
f 370/492/303 362/485/303 364/487/303
f 360/493/304 369/494/304 366/495/304
f 361/496/305 368/497/305 359/498/305
f 359/498/306 369/494/306 358/499/306
f 361/496/307 366/495/307 367/500/307
f 369/494/308 370/492/308 366/495/308
f 368/497/309 372/488/309 371/489/309
f 368/497/310 373/490/310 369/494/310
f 367/500/311 370/492/311 372/488/311
f 379/501/312 380/502/312 378/503/312
f 388/504/313 380/502/313 381/505/313
f 387/506/314 378/503/314 389/507/314
f 388/504/315 379/501/315 387/506/315
f 386/508/316 378/503/316 380/502/316
f 376/509/317 385/510/317 382/511/317
f 377/512/318 384/513/318 375/514/318
f 375/514/319 385/510/319 374/515/319
f 377/512/320 382/511/320 383/516/320
f 385/510/321 386/508/321 382/511/321
f 384/513/322 388/504/322 387/506/322
f 384/513/323 389/507/323 385/510/323
f 383/516/324 386/508/324 388/504/324
f 395/517/325 396/518/325 394/519/325
f 404/520/326 396/518/326 397/521/326
f 403/522/327 394/519/327 405/523/327
f 404/520/328 395/517/328 403/522/328
f 402/524/329 394/519/329 396/518/329
f 392/525/330 401/526/330 398/527/330
f 393/528/331 400/529/331 391/530/331
f 391/530/332 401/526/332 390/531/332
f 393/528/333 398/527/333 399/532/333
f 401/526/334 402/524/334 398/527/334
f 400/529/335 404/520/335 403/522/335
f 400/529/336 405/523/336 401/526/336
f 399/532/337 402/524/337 404/520/337
f 15/1/338 34/533/338 68/2/338
f 40/4/339 71/19/339 7/5/339
f 2/7/340 46/534/340 44/8/340
f 41/11/341 114/535/341 116/10/341
f 116/10/342 71/19/342 40/4/342
f 18/12/343 17/290/343 43/13/343
f 54/15/344 48/101/344 10/16/344
f 4/18/345 56/98/345 51/19/345
f 59/2/346 54/536/346 11/21/346
f 62/23/347 56/98/347 4/18/347
f 13/27/348 14/537/348 125/25/348
f 14/537/349 68/100/349 125/25/349
f 6/28/350 65/538/350 62/29/350
f 64/539/351 60/540/351 130/33/351
f 60/540/352 61/31/352 130/33/352
f 7/34/353 71/541/353 65/35/353
f 36/37/354 34/83/354 15/38/354
f 9/542/355 10/543/355 107/42/355
f 10/543/356 48/40/356 107/42/356
f 42/544/357 39/48/357 110/45/357
f 39/48/358 41/43/358 110/45/358
f 1/46/359 44/110/359 36/37/359
f 112/47/360 114/545/360 41/43/360
f 69/49/361 30/546/361 29/50/361
f 66/52/362 22/86/362 21/53/362
f 29/50/363 28/547/363 60/55/363
f 21/56/364 20/304/364 57/57/364
f 28/59/365 27/548/365 55/60/365
f 57/62/366 20/549/366 19/63/366
f 27/65/367 26/288/367 49/66/367
f 52/64/368 19/63/368 18/12/368
f 49/66/369 26/288/369 25/68/369
f 43/13/370 17/290/370 32/70/370
f 51/19/371 46/111/371 2/72/371
f 25/68/372 24/291/372 39/73/372
f 32/74/373 31/294/373 33/75/373
f 112/47/374 39/48/374 113/79/374
f 39/48/375 24/77/375 113/79/375
f 115/550/376 67/91/376 116/10/376
f 67/91/377 65/80/377 116/10/377
f 70/81/378 35/84/378 33/82/378
f 70/81/35 68/100/35 34/83/35
f 66/52/379 111/551/379 113/85/379
f 113/85/380 23/293/380 22/86/380
f 12/89/381 13/552/381 126/87/381
f 13/552/382 127/269/382 126/87/382
f 67/91/383 119/553/383 118/90/383
f 118/90/384 62/23/384 65/80/384
f 118/92/385 117/554/385 58/93/385
f 69/94/386 64/539/386 130/33/386
f 130/33/387 129/95/387 70/31/387
f 129/95/41 125/268/41 68/88/41
f 66/52/42 63/54/42 120/96/42
f 120/96/388 119/553/388 67/91/388
f 61/81/389 133/555/389 132/99/389
f 132/99/390 54/15/390 59/100/390
f 131/556/391 50/123/391 132/99/391
f 50/123/392 48/101/392 132/99/392
f 53/102/393 58/261/393 57/103/393
f 53/105/394 51/109/394 56/106/394
f 60/55/395 55/67/395 134/107/395
f 134/107/396 133/555/396 61/81/396
f 53/105/397 123/557/397 122/108/397
f 122/108/398 46/558/398 51/109/398
f 121/267/399 45/117/399 122/112/399
f 45/117/400 44/110/400 122/112/400
f 8/115/401 9/207/401 107/113/401
f 107/113/402 106/559/402 40/114/402
f 38/116/403 45/117/403 43/13/403
f 36/37/404 44/110/404 45/117/404
f 52/64/405 47/14/405 124/118/405
f 124/118/406 123/560/406 53/119/406
f 49/121/407 42/544/407 110/45/407
f 110/45/408 109/561/408 50/120/408
f 105/122/409 48/101/409 50/123/409
f 33/125/410 35/279/410 38/126/410
f 35/84/411 34/83/411 36/37/411
f 31/128/412 30/546/412 69/49/412
f 140/129/413 75/179/413 74/130/413
f 140/132/414 142/139/414 76/133/414
f 141/135/415 143/562/415 83/136/415
f 144/138/416 77/186/416 76/133/416
f 143/140/417 145/295/417 84/141/417
f 146/143/418 78/150/418 77/144/418
f 147/146/419 85/563/419 84/147/419
f 146/143/420 148/155/420 79/149/420
f 149/151/421 86/168/421 85/152/421
f 150/154/422 80/163/422 79/149/422
f 151/156/423 152/164/423 73/157/423
f 149/159/424 151/564/424 72/160/424
f 153/162/425 81/284/425 80/163/425
f 139/131/426 74/130/426 73/157/426
f 138/165/427 137/182/427 82/166/427
f 153/178/428 26/565/428 136/566/428
f 26/565/429 27/567/429 136/566/429
f 136/566/430 135/176/430 153/178/430
f 136/180/431 27/65/431 141/181/431
f 27/65/432 28/547/432 141/181/432
f 141/181/433 82/166/433 137/182/433
f 12/192/434 91/224/434 90/193/434
f 5/194/435 98/221/435 97/195/435
f 14/196/436 13/552/436 90/197/436
f 7/5/437 6/568/437 97/199/437
f 14/196/438 89/198/438 88/201/438
f 8/115/439 7/34/439 96/203/439
f 15/38/440 88/237/440 103/205/440
f 8/115/441 95/204/441 94/206/441
f 1/46/442 102/209/442 101/208/442
f 1/46/443 16/39/443 103/205/443
f 10/210/444 9/207/444 94/206/444
f 2/7/445 101/230/445 100/212/445
f 11/214/446 10/210/446 93/211/446
f 4/216/447 3/569/447 100/217/447
f 11/214/448 92/215/448 91/219/448
f 4/220/449 99/570/449 98/221/449
f 109/244/450 108/243/450 106/246/450
f 40/4/126 106/241/126 108/248/126
f 112/255/451 111/571/451 115/253/451
f 67/256/452 115/572/452 111/249/452
f 117/258/453 118/573/453 119/259/453
f 63/574/454 57/103/454 120/263/454
f 57/103/455 58/261/455 120/263/455
f 121/264/456 122/575/456 123/265/456
f 47/14/457 43/13/457 124/118/457
f 43/13/458 45/117/458 124/118/458
f 125/273/459 129/271/459 128/270/459
f 59/100/460 126/576/460 128/275/460
f 131/276/461 132/577/461 133/277/461
f 55/578/462 49/121/462 134/280/462
f 49/121/463 50/120/463 134/280/463
f 135/281/464 136/579/464 137/282/464
f 81/284/465 135/580/465 138/165/465
f 19/285/466 139/306/466 152/286/466
f 26/288/467 153/162/467 150/154/467
f 32/70/468 17/290/468 151/156/468
f 18/12/469 152/164/469 151/156/469
f 25/68/470 150/154/470 148/155/470
f 32/70/471 149/289/471 147/292/471
f 23/293/472 24/291/472 148/155/472
f 31/294/473 147/153/473 145/295/473
f 23/78/474 146/581/474 144/138/474
f 29/50/475 30/546/475 145/298/475
f 22/300/476 144/582/476 142/301/476
f 29/302/477 143/562/477 141/135/477
f 20/304/478 21/56/478 142/301/478
f 19/285/479 20/583/479 140/132/479
f 155/307/157 156/339/157 157/308/157
f 159/310/158 160/321/158 161/311/158
f 164/313/159 165/348/159 162/314/159
f 168/316/160 169/326/160 166/317/160
f 155/307/161 154/309/161 170/319/161
f 160/321/162 172/330/162 173/322/162
f 175/323/163 163/315/163 162/314/163
f 176/325/164 177/332/164 169/326/164
f 171/320/165 170/319/165 178/327/165
f 180/329/166 181/333/166 173/322/166
f 175/323/167 174/324/167 182/331/167
f 176/325/168 184/316/168 185/326/168
f 187/320/169 179/328/169 178/327/169
f 180/329/170 188/330/170 189/322/170
f 183/315/171 182/331/171 190/334/171
f 192/318/172 193/317/172 185/326/172
f 195/307/173 187/320/173 186/319/173
f 188/330/174 196/321/174 197/311/174
f 191/313/480 190/334/480 198/336/480
f 192/318/176 200/344/176 201/338/176
f 203/339/481 195/307/481 194/335/481
f 204/310/178 205/312/178 197/311/178
f 207/341/482 199/337/482 198/336/482
f 208/343/180 209/347/180 201/338/180
f 211/337/483 212/341/483 213/345/483
f 215/343/182 216/344/182 217/338/182
f 203/339/484 202/340/484 213/345/484
f 215/343/184 214/347/184 205/312/184
f 207/341/185 206/342/185 157/308/185
f 208/343/186 159/310/186 158/312/186
f 211/337/485 210/346/485 165/348/485
f 167/318/188 166/317/188 217/338/188
f 154/309/486 157/308/486 206/342/486
f 206/342/189 198/336/189 154/309/189
f 198/336/189 190/334/189 154/309/189
f 190/334/487 182/331/487 174/324/487
f 174/324/488 162/314/488 165/348/488
f 165/348/489 210/346/489 213/345/489
f 213/345/490 202/340/490 165/348/490
f 202/340/491 194/335/491 165/348/491
f 194/335/189 186/319/189 178/327/189
f 178/327/189 170/319/189 194/335/189
f 170/319/189 154/309/189 194/335/189
f 190/334/492 174/324/492 165/348/492
f 154/309/189 190/334/189 165/348/189
f 158/312/190 161/311/190 189/322/190
f 161/311/190 173/322/190 189/322/190
f 173/322/190 181/333/190 189/322/190
f 189/322/190 197/311/190 205/312/190
f 205/312/190 214/347/190 217/338/190
f 217/338/190 166/317/190 185/326/190
f 166/317/190 169/326/190 185/326/190
f 169/326/190 177/332/190 185/326/190
f 185/326/190 193/317/190 158/312/190
f 193/317/190 201/338/190 158/312/190
f 201/338/190 209/347/190 158/312/190
f 189/322/190 205/312/190 158/312/190
f 205/312/190 217/338/190 158/312/190
f 160/321/189 159/310/189 208/343/189
f 208/343/189 200/344/189 192/318/189
f 192/318/189 184/316/189 176/325/189
f 176/325/189 168/316/189 167/318/189
f 167/318/189 216/344/189 196/321/189
f 216/344/189 215/343/189 196/321/189
f 215/343/189 204/310/189 196/321/189
f 196/321/189 188/330/189 160/321/189
f 188/330/189 180/329/189 160/321/189
f 180/329/189 172/330/189 160/321/189
f 160/321/189 208/343/189 167/318/189
f 208/343/189 192/318/189 167/318/189
f 192/318/189 176/325/189 167/318/189
f 156/339/190 155/307/190 171/320/190
f 171/320/190 179/328/190 187/320/190
f 187/320/190 195/307/190 203/339/190
f 203/339/190 212/341/190 211/337/190
f 211/337/190 164/313/190 163/315/190
f 163/315/190 175/323/190 183/315/190
f 183/315/190 191/313/190 199/337/190
f 199/337/190 207/341/190 156/339/190
f 156/339/190 171/320/190 187/320/190
f 187/320/190 203/339/190 211/337/190
f 211/337/190 163/315/190 183/315/190
f 183/315/190 199/337/190 156/339/190
f 156/339/190 187/320/190 183/315/190
f 235/349/493 237/363/493 236/350/493
f 223/352/189 225/353/189 224/353/189
f 227/354/494 226/357/494 224/353/494
f 228/355/495 223/352/495 222/353/495
f 227/354/496 225/353/496 223/352/496
f 226/357/497 229/356/497 222/353/497
f 220/358/498 218/361/498 229/356/498
f 221/359/499 227/354/499 228/355/499
f 219/360/500 228/355/500 229/356/500
f 221/359/501 220/358/501 226/357/501
f 239/362/502 238/366/502 236/350/502
f 240/364/503 235/349/503 234/351/503
f 239/362/504 237/363/504 235/349/504
f 238/366/505 241/365/505 234/351/505
f 232/367/506 230/370/506 241/365/506
f 233/368/507 239/362/507 240/364/507
f 230/370/508 231/369/508 240/364/508
f 232/367/509 238/366/509 239/362/509
f 258/371/208 259/372/208 261/372/208
f 246/374/189 247/379/189 249/374/189
f 251/376/510 250/380/510 248/375/510
f 252/377/511 247/379/511 246/374/511
f 251/376/512 249/374/512 247/379/512
f 250/380/513 253/378/513 246/374/513
f 244/381/514 242/384/514 253/378/514
f 245/382/515 251/376/515 252/377/515
f 243/383/516 252/377/516 253/378/516
f 245/382/517 244/381/517 250/380/517
f 263/385/518 262/388/518 260/373/518
f 264/386/519 259/372/519 258/371/519
f 263/385/520 261/372/520 259/372/520
f 262/388/521 265/387/521 258/371/521
f 256/389/522 254/392/522 265/387/522
f 257/390/523 263/385/523 264/386/523
f 254/392/524 255/391/524 264/386/524
f 256/389/525 262/388/525 263/385/525
f 270/393/526 271/399/526 273/394/526
f 275/396/527 274/400/527 272/395/527
f 276/397/528 271/399/528 270/393/528
f 275/396/529 273/394/529 271/399/529
f 274/400/530 277/398/530 270/393/530
f 268/401/531 266/404/531 277/398/531
f 269/402/532 275/396/532 276/397/532
f 267/403/533 276/397/533 277/398/533
f 269/402/534 268/401/534 274/400/534
f 282/405/535 283/411/535 285/406/535
f 292/408/536 290/412/536 284/407/536
f 291/409/537 283/411/537 282/405/537
f 291/409/538 292/408/538 285/406/538
f 293/410/539 282/405/539 284/407/539
f 278/413/540 289/419/540 286/414/540
f 279/416/541 281/420/541 287/417/541
f 279/416/542 288/418/542 289/419/542
f 281/420/543 280/415/543 286/414/543
f 286/414/544 289/419/544 293/410/544
f 287/417/545 292/408/545 291/409/545
f 288/418/546 291/409/546 293/410/546
f 287/417/547 286/414/547 290/412/547
f 298/421/548 299/427/548 301/422/548
f 308/424/549 306/428/549 300/423/549
f 307/425/550 299/427/550 298/421/550
f 307/425/551 308/424/551 301/422/551
f 309/426/552 298/421/552 300/423/552
f 294/429/553 305/435/553 302/430/553
f 295/432/554 297/436/554 303/433/554
f 295/432/555 304/434/555 305/435/555
f 297/436/556 296/431/556 302/430/556
f 302/430/557 305/435/557 309/426/557
f 303/433/558 308/424/558 307/425/558
f 304/434/559 307/425/559 309/426/559
f 303/433/560 302/430/560 306/428/560
f 314/437/561 315/443/561 317/438/561
f 324/440/562 322/444/562 316/439/562
f 323/441/563 315/443/563 314/437/563
f 324/440/564 317/438/564 315/443/564
f 322/444/565 325/442/565 314/437/565
f 312/445/566 310/451/566 321/446/566
f 313/448/567 319/452/567 320/449/567
f 311/450/568 320/449/568 321/446/568
f 313/448/569 312/445/569 318/447/569
f 321/446/570 325/442/570 322/444/570
f 320/449/571 319/452/571 324/440/571
f 320/449/572 323/441/572 325/442/572
f 319/452/573 318/447/573 322/444/573
f 330/453/273 331/459/273 333/454/273
f 340/456/574 338/460/574 332/455/574
f 339/457/575 331/459/575 330/453/575
f 340/456/576 333/454/576 331/459/576
f 338/460/577 341/458/577 330/453/577
f 328/461/578 326/467/578 337/462/578
f 329/464/579 335/468/579 336/465/579
f 327/466/580 336/465/580 337/462/580
f 329/464/581 328/461/581 334/463/581
f 337/462/582 341/458/582 338/460/582
f 336/465/583 335/468/583 340/456/583
f 336/465/584 339/457/584 341/458/584
f 335/468/585 334/463/585 338/460/585
f 346/469/286 347/475/286 349/470/286
f 356/472/586 354/476/586 348/471/586
f 355/473/587 347/475/587 346/469/587
f 356/472/588 349/470/588 347/475/588
f 354/476/589 357/474/589 346/469/589
f 344/477/590 342/483/590 353/478/590
f 345/480/591 351/484/591 352/481/591
f 343/482/592 352/481/592 353/478/592
f 345/480/593 344/477/593 350/479/593
f 353/478/594 357/474/594 354/476/594
f 352/481/595 351/484/595 356/472/595
f 352/481/596 355/473/596 357/474/596
f 351/484/597 350/479/597 354/476/597
f 362/485/598 363/491/598 365/486/598
f 372/488/599 370/492/599 364/487/599
f 371/489/600 363/491/600 362/485/600
f 372/488/601 365/486/601 363/491/601
f 370/492/602 373/490/602 362/485/602
f 360/493/603 358/499/603 369/494/603
f 361/496/604 367/500/604 368/497/604
f 359/498/605 368/497/605 369/494/605
f 361/496/606 360/493/606 366/495/606
f 369/494/607 373/490/607 370/492/607
f 368/497/608 367/500/608 372/488/608
f 368/497/609 371/489/609 373/490/609
f 367/500/610 366/495/610 370/492/610
f 379/501/312 381/505/312 380/502/312
f 388/504/611 386/508/611 380/502/611
f 387/506/612 379/501/612 378/503/612
f 388/504/613 381/505/613 379/501/613
f 386/508/614 389/507/614 378/503/614
f 376/509/615 374/515/615 385/510/615
f 377/512/616 383/516/616 384/513/616
f 375/514/617 384/513/617 385/510/617
f 377/512/618 376/509/618 382/511/618
f 385/510/619 389/507/619 386/508/619
f 384/513/620 383/516/620 388/504/620
f 384/513/621 387/506/621 389/507/621
f 383/516/622 382/511/622 386/508/622
f 395/517/623 397/521/623 396/518/623
f 404/520/624 402/524/624 396/518/624
f 403/522/625 395/517/625 394/519/625
f 404/520/626 397/521/626 395/517/626
f 402/524/627 405/523/627 394/519/627
f 392/525/628 390/531/628 401/526/628
f 393/528/629 399/532/629 400/529/629
f 391/530/630 400/529/630 401/526/630
f 393/528/631 392/525/631 398/527/631
f 401/526/632 405/523/632 402/524/632
f 400/529/633 399/532/633 404/520/633
f 400/529/634 403/522/634 405/523/634
f 399/532/635 398/527/635 402/524/635
