# Blender 4.4.0
# www.blender.org
mtllib Prop_Crate_Box_Open_01.mtl
o Prop_Crate_Box_Open_01
v 0.346776 0.004610 0.302654
v -0.346776 0.004610 0.346996
v 0.346776 0.004610 0.346996
v -0.346776 0.004610 -0.346996
v 0.346776 0.004610 -0.346996
v 0.346776 0.004610 -0.302215
v 0.306120 0.004610 0.302654
v 0.306120 0.004610 -0.302215
v -0.346776 0.004610 0.302654
v -0.346776 0.004610 -0.302215
v -0.310551 0.004610 0.302654
v -0.310551 0.004610 -0.302215
v 0.346776 0.036093 0.302654
v -0.346776 0.036093 0.346996
v 0.346776 0.036093 0.346996
v 0.346776 0.036093 -0.346996
v -0.346776 0.036093 -0.346996
v 0.346776 0.036093 -0.302215
v 0.306120 0.036093 -0.302215
v 0.306120 0.036093 0.302654
v -0.346776 0.036093 -0.302215
v -0.346776 0.036093 0.302654
v -0.310551 0.036093 0.302654
v -0.310551 0.036093 -0.302215
v -0.339007 0.036093 -0.338123
v 0.338998 0.036093 -0.338123
v -0.339007 0.036093 0.338124
v 0.338998 0.036093 0.338124
v -0.339007 0.044764 -0.338123
v 0.338998 0.044764 -0.338123
v -0.339007 0.044764 0.338124
v 0.338998 0.044764 0.338124
v -0.218282 0.036093 -0.338123
v -0.221506 0.036093 -0.338123
v -0.071686 0.036093 -0.338123
v -0.074910 0.036093 -0.338123
v 0.074910 0.036093 -0.338123
v 0.071686 0.036093 -0.338123
v 0.221506 0.036093 -0.338123
v 0.218282 0.036093 -0.338123
v 0.218283 0.036093 0.338124
v 0.221506 0.036093 0.338124
v 0.071686 0.036093 0.338124
v 0.074910 0.036093 0.338124
v -0.074910 0.036093 0.338124
v -0.071686 0.036093 0.338124
v -0.221506 0.036093 0.338124
v -0.218282 0.036093 0.338124
v -0.221506 0.044764 -0.338123
v -0.218282 0.044764 -0.338123
v -0.074910 0.044764 -0.338123
v -0.071686 0.044764 -0.338123
v 0.071686 0.044764 -0.338123
v 0.074910 0.044764 -0.338123
v 0.218282 0.044764 -0.338123
v 0.221506 0.044764 -0.338123
v 0.221506 0.044764 0.338124
v 0.218283 0.044764 0.338124
v 0.074910 0.044764 0.338124
v 0.071686 0.044764 0.338124
v -0.071686 0.044764 0.338124
v -0.074910 0.044764 0.338124
v -0.218282 0.044764 0.338124
v -0.221506 0.044764 0.338124
v 0.378991 -0.000000 0.346996
v 0.378991 -0.000000 -0.346996
v 0.378991 0.065543 0.346996
v 0.378991 0.684457 -0.313008
v 0.378991 0.065543 -0.313008
v 0.378991 0.684457 0.313448
v 0.378991 0.065543 0.313448
v 0.346776 0.750000 0.346996
v 0.346776 0.750000 -0.346996
v 0.346776 -0.000000 -0.346996
v 0.346776 -0.000000 0.346996
v 0.346776 0.065543 0.346996
v 0.346776 0.065543 -0.313008
v 0.346776 0.684457 -0.313008
v 0.346776 0.684457 -0.346996
v 0.346776 0.065543 -0.346996
v 0.346776 0.684457 0.346996
v 0.346776 0.684457 0.313448
v 0.346776 0.065543 0.313448
v 0.346776 0.023161 0.346996
v 0.346776 0.023161 -0.346996
v 0.346776 0.728389 0.346996
v 0.346776 0.728389 -0.346996
v 0.337904 0.023161 0.346996
v 0.337904 0.023161 -0.346996
v 0.337904 0.728389 -0.346996
v 0.346776 0.023161 0.223571
v 0.346776 0.023161 0.226869
v 0.346776 0.023161 0.073571
v 0.346776 0.023161 0.076869
v 0.346776 0.023161 -0.076429
v 0.346776 0.023161 -0.073131
v 0.346776 0.023161 -0.226429
v 0.346776 0.023161 -0.223131
v 0.346776 0.728389 -0.223131
v 0.346776 0.728389 -0.226429
v 0.346776 0.728389 -0.073131
v 0.346776 0.728389 -0.076429
v 0.346776 0.728389 0.076869
v 0.346776 0.728389 0.073571
v 0.346776 0.728389 0.226869
v 0.346776 0.728389 0.223571
v 0.337904 0.023161 0.226869
v 0.337904 0.023161 0.223571
v 0.337904 0.023161 0.076869
v 0.337904 0.023161 0.073571
v 0.337904 0.023161 -0.073131
v 0.337904 0.023161 -0.076429
v 0.337904 0.023161 -0.223131
v 0.337904 0.023161 -0.226429
v 0.337904 0.728389 -0.226429
v 0.337904 0.728389 -0.223131
v 0.337904 0.728389 -0.076429
v 0.337904 0.728389 -0.073131
v 0.337904 0.728389 0.073571
v 0.337904 0.728389 0.076869
v 0.337904 0.728389 0.223571
v 0.337904 0.728389 0.226869
v 0.358508 0.091518 0.334309
v 0.358508 0.031592 0.308453
v 0.358508 0.718593 -0.310434
v 0.358508 0.665322 -0.343131
v 0.368535 0.718593 -0.310434
v 0.368536 0.091518 0.334309
v 0.368536 0.031592 0.308453
v 0.368535 0.665322 -0.343131
v 0.358508 0.086246 -0.341709
v 0.358508 0.031592 -0.310434
v 0.358508 0.718593 0.308453
v 0.358508 0.663592 0.339372
v 0.367328 0.718593 0.308453
v 0.367328 0.086246 -0.341709
v 0.367328 0.031592 -0.310434
v 0.367328 0.663592 0.339372
v -0.378991 0.684457 -0.346996
v -0.378991 0.750000 -0.346996
v -0.378991 -0.000000 -0.346996
v -0.378991 -0.000000 0.346996
v -0.378991 0.684457 0.313448
v -0.378991 0.065543 0.313448
v -0.378991 0.065543 -0.346996
v -0.378991 0.684457 -0.313008
v -0.378991 0.065543 -0.313008
v -0.346776 0.684457 0.346996
v -0.346776 0.750000 -0.346996
v -0.346776 0.750000 0.346996
v -0.346776 -0.000000 0.346996
v -0.346776 -0.000000 -0.346996
v -0.346776 0.065543 -0.346996
v -0.346776 0.065543 0.313448
v -0.346776 0.684457 0.313448
v -0.346776 0.065543 0.346996
v -0.346776 0.684457 -0.346996
v -0.346776 0.684457 -0.313008
v -0.346776 0.065543 -0.313008
v -0.346776 0.023161 -0.346996
v -0.346776 0.023161 0.346996
v -0.346776 0.728389 -0.346996
v -0.346776 0.728389 0.346996
v -0.337904 0.728389 -0.346996
v -0.337903 0.728389 0.346996
v -0.346776 0.023161 -0.223131
v -0.346776 0.023161 -0.226429
v -0.346776 0.023161 -0.073131
v -0.346776 0.023161 -0.076429
v -0.346776 0.023161 0.076869
v -0.346776 0.023161 0.073571
v -0.346776 0.023161 0.226869
v -0.346776 0.023161 0.223571
v -0.346776 0.728389 0.223571
v -0.346776 0.728389 0.226869
v -0.346776 0.728389 0.073571
v -0.346776 0.728389 0.076869
v -0.346776 0.728389 -0.076429
v -0.346776 0.728389 -0.073131
v -0.346776 0.728389 -0.226429
v -0.346776 0.728389 -0.223131
v -0.337904 0.023161 -0.226429
v -0.337904 0.023161 -0.223131
v -0.337904 0.023161 -0.076429
v -0.337904 0.023161 -0.073131
v -0.337904 0.023161 0.073571
v -0.337904 0.023161 0.076869
v -0.337904 0.023161 0.223571
v -0.337904 0.023161 0.226869
v -0.337904 0.728389 0.226869
v -0.337904 0.728389 0.223571
v -0.337904 0.728389 0.076869
v -0.337904 0.728389 0.073571
v -0.337904 0.728389 -0.073131
v -0.337904 0.728389 -0.076429
v -0.337904 0.728389 -0.223131
v -0.337904 0.728389 -0.226429
v -0.358508 0.086246 -0.339289
v -0.358508 0.031592 -0.308014
v -0.358508 0.718593 0.310874
v -0.358508 0.663592 0.341792
v -0.368535 0.718593 0.310874
v -0.368535 0.086246 -0.339289
v -0.368535 0.031592 -0.308014
v -0.368535 0.663592 0.341792
v -0.358508 0.091518 0.336729
v -0.358508 0.031592 0.310874
v -0.358508 0.718593 -0.308014
v -0.358508 0.665322 -0.340711
v -0.367328 0.718593 -0.308014
v -0.367328 0.091518 0.336729
v -0.367328 0.031592 0.310874
v -0.367328 0.665322 -0.340711
v 0.378991 0.684457 0.379211
v -0.378991 0.750000 0.379211
v 0.378991 0.750000 0.379211
v -0.378991 -0.000000 0.379211
v 0.378991 0.000000 0.379211
v -0.378991 0.065543 0.379211
v 0.378991 0.065543 0.379211
v 0.313228 0.684457 0.379211
v 0.313228 0.065543 0.379211
v -0.378991 0.684457 0.379211
v -0.313228 0.684457 0.379211
v -0.313228 0.065543 0.379211
v -0.378991 0.684457 0.346996
v 0.378991 0.684457 0.346996
v -0.378991 0.750000 0.346996
v 0.378991 0.750000 0.346996
v 0.313228 0.065543 0.346996
v 0.313228 0.684457 0.346996
v -0.378991 0.065543 0.346996
v -0.313228 0.684457 0.346996
v -0.313228 0.065543 0.346996
v -0.337903 0.023161 0.346996
v 0.337904 0.728389 0.346996
v -0.337903 0.023161 0.338124
v 0.337904 0.023161 0.338124
v -0.337903 0.728389 0.338124
v 0.337904 0.728389 0.338124
v -0.223351 0.023161 0.346996
v -0.226649 0.023161 0.346996
v -0.073351 0.023161 0.346996
v -0.076649 0.023161 0.346996
v 0.076649 0.023161 0.346996
v 0.073351 0.023161 0.346996
v 0.226649 0.023161 0.346996
v 0.223351 0.023161 0.346996
v 0.223351 0.728389 0.346996
v 0.226649 0.728389 0.346996
v 0.073351 0.728389 0.346996
v 0.076649 0.728389 0.346996
v -0.076649 0.728389 0.346996
v -0.073351 0.728389 0.346996
v -0.226649 0.728389 0.346996
v -0.223351 0.728389 0.346996
v -0.226649 0.023161 0.338124
v -0.223351 0.023161 0.338124
v -0.076649 0.023161 0.338124
v -0.073351 0.023161 0.338124
v 0.073351 0.023161 0.338124
v 0.076649 0.023161 0.338124
v 0.223351 0.023161 0.338124
v 0.226649 0.023161 0.338124
v 0.226649 0.728389 0.338124
v 0.223351 0.728389 0.338124
v 0.076649 0.728389 0.338124
v 0.073351 0.728389 0.338124
v -0.073351 0.728389 0.338124
v -0.076649 0.728389 0.338124
v -0.223351 0.728389 0.338124
v -0.226649 0.728389 0.338124
v -0.350754 0.075310 0.346996
v -0.308234 0.031592 0.346996
v 0.310654 0.718593 0.346996
v 0.353174 0.674875 0.346996
v 0.310654 0.718593 0.368755
v -0.350754 0.075310 0.368755
v -0.308234 0.031592 0.368755
v 0.353174 0.674875 0.368755
v 0.357164 0.075310 0.346996
v 0.310654 0.031592 0.346996
v -0.308234 0.718593 0.346996
v -0.350754 0.674875 0.346996
v -0.308234 0.718593 0.367548
v 0.357164 0.075310 0.367548
v 0.310654 0.031592 0.367548
v -0.350754 0.674875 0.367548
v -0.378991 0.684457 -0.379210
v 0.378990 0.684457 -0.379211
v -0.378991 0.750000 -0.379210
v 0.378990 0.750000 -0.379211
v -0.378991 0.000000 -0.379210
v 0.378990 0.000000 -0.379211
v 0.313228 0.684457 -0.379211
v 0.313228 0.065543 -0.379211
v 0.378990 0.065543 -0.379211
v -0.378991 0.065543 -0.379210
v -0.313229 0.684457 -0.379210
v -0.313229 0.065543 -0.379210
v 0.378990 0.684457 -0.346996
v 0.378990 0.750000 -0.346996
v 0.313228 0.065543 -0.346996
v 0.313228 0.684457 -0.346996
v 0.378990 0.065543 -0.346996
v -0.313229 0.684457 -0.346995
v -0.313229 0.065543 -0.346995
v -0.337904 0.023161 -0.346995
v -0.337904 0.023161 -0.338123
v 0.337903 0.023161 -0.338124
v -0.337904 0.728389 -0.338123
v 0.337903 0.728389 -0.338124
v -0.223351 0.023161 -0.346995
v -0.226650 0.023161 -0.346995
v -0.073351 0.023161 -0.346996
v -0.076650 0.023161 -0.346996
v 0.076649 0.023161 -0.346996
v 0.073350 0.023161 -0.346996
v 0.226649 0.023161 -0.346996
v 0.223350 0.023161 -0.346996
v 0.223350 0.728389 -0.346996
v 0.226649 0.728389 -0.346996
v 0.073350 0.728389 -0.346996
v 0.076649 0.728389 -0.346996
v -0.076650 0.728389 -0.346996
v -0.073351 0.728389 -0.346996
v -0.226650 0.728389 -0.346995
v -0.223351 0.728389 -0.346995
v -0.226650 0.023161 -0.338123
v -0.223351 0.023161 -0.338123
v -0.076650 0.023161 -0.338123
v -0.073351 0.023161 -0.338123
v 0.073350 0.023161 -0.338124
v 0.076649 0.023161 -0.338124
v 0.223350 0.023161 -0.338124
v 0.226649 0.023161 -0.338124
v 0.226649 0.728389 -0.338124
v 0.223350 0.728389 -0.338124
v 0.076649 0.728389 -0.338124
v 0.073350 0.728389 -0.338124
v -0.073351 0.728389 -0.338123
v -0.076650 0.728389 -0.338123
v -0.223351 0.728389 -0.338123
v -0.226650 0.728389 -0.338123
v -0.350754 0.075310 -0.346995
v -0.308234 0.031592 -0.346995
v 0.310653 0.718593 -0.346996
v 0.353173 0.674875 -0.346996
v 0.310653 0.718593 -0.368755
v -0.350754 0.075310 -0.368754
v -0.308234 0.031592 -0.368755
v 0.353173 0.674875 -0.368756
v 0.357164 0.075310 -0.346996
v 0.310653 0.031592 -0.346996
v -0.308234 0.718593 -0.346995
v -0.350754 0.674875 -0.346995
v -0.308234 0.718593 -0.367547
v 0.357164 0.075310 -0.367548
v 0.310653 0.031592 -0.367548
v -0.350754 0.674875 -0.367547
vn -0.0000 -1.0000 -0.0000
vn -0.0000 1.0000 -0.0000
vn 1.0000 -0.0000 -0.0000
vn -1.0000 -0.0000 -0.0000
vn -0.0000 -0.0000 -1.0000
vn -0.0000 -0.0000 1.0000
vn -0.0000 -0.7169 -0.6972
vn -0.0000 0.7169 0.6972
vn -0.0000 -0.7169 0.6972
vn -0.0000 0.7169 -0.6972
vn 0.6972 -0.7169 -0.0000
vn -0.6972 0.7169 -0.0000
vn -0.6972 -0.7169 -0.0000
vn 0.6951 0.7190 -0.0000
vt 0.106458 0.813294
vt 0.106488 0.813294
vt 0.106486 0.813294
vt 0.106459 0.813294
vt 0.106458 0.814375
vt 0.106488 0.814375
vt 0.106486 0.814375
vt 0.106459 0.814375
vt 0.578432 0.841680
vt 0.578362 0.841045
vt 0.578432 0.841045
vt 0.578032 0.841680
vt 0.578102 0.841680
vt 0.578032 0.841045
vt 0.592588 0.837882
vt 0.592631 0.837882
vt 0.578274 0.841045
vt 0.578190 0.841045
vt 0.592719 0.837882
vt 0.592676 0.837882
vt 0.578361 0.841045
vt 0.578276 0.841680
vt 0.578276 0.841045
vt 0.578274 0.841680
vt 0.578188 0.841045
vt 0.578103 0.841680
vt 0.578103 0.841045
vt 0.578102 0.841045
vt 0.578188 0.841680
vt 0.578190 0.841680
vt 0.578361 0.841680
vt 0.578362 0.841680
vt 0.106489 0.836626
vt 0.106489 0.838875
vt 0.106489 0.813136
vt 0.106489 0.815385
vt 0.106488 0.836626
vt 0.106488 0.838875
vt 0.106488 0.815385
vt 0.106488 0.813136
vt 0.578436 0.891806
vt 0.578431 0.891806
vt 0.578431 0.840096
vt 0.578436 0.840096
vt 0.592757 0.837400
vt 0.592757 0.863716
vt 0.106488 0.816277
vt 0.106488 0.835969
vt 0.106488 0.814220
vt 0.106489 0.816277
vt 0.106489 0.835969
vt 0.106489 0.837797
vt 0.106489 0.816096
vt 0.106489 0.835910
vt 0.106489 0.814220
vt 0.106489 0.814220
vt 0.106488 0.837797
vt 0.106488 0.835910
vt 0.106488 0.816096
vt 0.106489 0.837797
vt 0.106456 0.836626
vt 0.106456 0.838875
vt 0.106456 0.813136
vt 0.106456 0.815385
vt 0.106458 0.838875
vt 0.106458 0.836626
vt 0.106458 0.815385
vt 0.106458 0.813136
vt 0.578028 0.891806
vt 0.578033 0.891806
vt 0.578033 0.840096
vt 0.578028 0.840096
vt 0.106457 0.816096
vt 0.106457 0.835910
vt 0.106457 0.814220
vt 0.106457 0.816096
vt 0.106457 0.835910
vt 0.106457 0.837797
vt 0.106457 0.816277
vt 0.106457 0.835969
vt 0.106457 0.814220
vt 0.106457 0.814220
vt 0.106457 0.837797
vt 0.106457 0.835969
vt 0.106457 0.816277
vt 0.106457 0.837797
vt 0.106486 0.836626
vt 0.106459 0.815385
vt 0.106459 0.836626
vt 0.106486 0.815385
vt 0.578366 0.891806
vt 0.578099 0.840096
vt 0.592721 0.837400
vt 0.592755 0.863716
vt 0.592721 0.863716
vt 0.578101 0.840096
vt 0.578187 0.891806
vt 0.578101 0.891806
vt 0.592631 0.837400
vt 0.592675 0.863716
vt 0.592631 0.863716
vt 0.578364 0.840096
vt 0.578277 0.891806
vt 0.578277 0.840096
vt 0.578364 0.891806
vt 0.578275 0.891806
vt 0.578189 0.891806
vt 0.578099 0.891806
vt 0.578187 0.840096
vt 0.578189 0.840096
vt 0.578275 0.840096
vt 0.578366 0.840096
vt 0.592585 0.837400
vt 0.592552 0.863716
vt 0.592552 0.837400
vt 0.106486 0.837797
vt 0.106459 0.814220
vt 0.106457 0.815720
vt 0.106459 0.837797
vt 0.106486 0.814220
vt 0.106488 0.815720
vt 0.106488 0.836297
vt 0.106457 0.836297
vt 0.592676 0.863716
vt 0.592720 0.837400
vt 0.592676 0.837400
vt 0.578277 0.891806
vt 0.578277 0.840096
vt 0.592755 0.837400
vt 0.592675 0.837400
vt 0.592585 0.863716
vt 0.592720 0.863716
s 0
usemtl Texture_Map
f 9/1/1 3/2/1 2/1/1
f 4/1/1 6/2/1 10/1/1
f 7/3/1 6/2/1 1/2/1
f 9/1/1 12/4/1 11/4/1
f 22/5/2 15/6/2 13/6/2
f 17/5/2 18/6/2 16/6/2
f 20/7/2 18/6/2 19/7/2
f 22/5/2 24/8/2 21/5/2
f 1/2/3 15/6/3 3/2/3
f 14/5/4 9/1/4 2/1/4
f 17/5/5 5/2/5 4/1/5
f 22/5/4 10/1/4 9/1/4
f 18/6/6 10/1/6 6/2/6
f 24/8/3 11/4/3 12/4/3
f 5/2/3 18/6/3 6/2/3
f 21/5/4 4/1/4 10/1/4
f 22/5/5 1/2/5 9/1/5
f 15/6/6 2/1/6 3/2/6
f 20/7/4 8/3/4 7/3/4
f 18/6/3 1/2/3 6/2/3
f 32/9/6 42/10/6 28/11/6
f 29/12/2 64/13/2 49/13/2
f 39/10/1 28/11/1 42/10/1
f 30/9/3 28/11/3 26/11/3
f 31/12/4 25/14/4 27/14/4
f 33/15/1 45/16/1 48/15/1
f 38/17/1 46/18/1 35/18/1
f 40/19/1 44/20/1 37/20/1
f 39/10/5 30/9/5 26/11/5
f 41/21/6 59/22/6 44/23/6
f 60/24/6 46/18/6 43/17/6
f 45/25/6 63/26/6 48/27/6
f 64/13/6 27/14/6 47/28/6
f 50/26/2 62/29/2 51/29/2
f 61/30/2 53/24/2 52/30/2
f 54/22/2 58/31/2 55/31/2
f 56/32/2 32/9/2 30/9/2
f 25/14/5 49/13/5 34/28/5
f 50/26/5 36/25/5 33/27/5
f 35/18/5 53/24/5 38/17/5
f 54/22/5 40/21/5 37/23/5
f 55/31/3 41/21/3 40/21/3
f 39/10/4 57/32/4 56/32/4
f 53/24/3 43/17/3 38/17/3
f 37/23/4 59/22/4 54/22/4
f 51/29/3 45/25/3 36/25/3
f 35/18/4 61/30/4 52/30/4
f 49/13/3 47/28/3 34/28/3
f 33/27/4 63/26/4 50/26/4
f 25/14/1 47/28/1 27/14/1
f 301/33/3 229/34/3 227/33/3
f 66/35/3 67/36/3 65/35/3
f 68/33/3 305/36/3 301/33/3
f 67/36/3 70/33/3 227/33/3
f 81/37/4 73/38/4 79/37/4
f 76/39/4 74/40/4 75/40/4
f 78/37/4 80/39/4 77/39/4
f 82/37/4 76/39/4 81/37/4
f 79/37/5 302/34/5 301/33/5
f 229/34/6 81/37/6 227/33/6
f 75/40/1 66/35/1 65/35/1
f 227/33/6 76/39/6 67/36/6
f 305/36/2 76/39/2 67/36/2
f 83/39/5 70/33/5 71/36/5
f 74/40/5 305/36/5 66/35/5
f 76/39/6 65/35/6 67/36/6
f 81/37/1 301/33/1 227/33/1
f 73/38/2 229/34/2 302/34/2
f 68/33/6 77/39/6 69/36/6
f 80/39/5 301/33/5 305/36/5
f 87/41/2 115/42/2 100/41/2
f 236/42/4 107/43/4 88/43/4
f 85/44/3 100/41/3 97/44/3
f 94/45/3 106/46/3 91/45/3
f 96/44/3 104/41/3 93/44/3
f 98/45/3 102/46/3 95/45/3
f 99/41/2 117/42/2 102/41/2
f 118/42/2 104/41/2 101/41/2
f 120/42/2 106/41/2 103/41/2
f 105/41/2 236/42/2 86/41/2
f 121/42/4 109/43/4 108/43/4
f 119/42/4 111/43/4 110/43/4
f 117/42/4 113/43/4 112/43/4
f 115/42/4 89/43/4 114/43/4
f 113/43/5 99/41/5 98/44/5
f 97/44/6 115/42/6 114/43/6
f 111/43/5 101/41/5 96/44/5
f 95/44/6 117/42/6 112/43/6
f 109/43/5 103/41/5 94/44/5
f 93/44/6 119/42/6 110/43/6
f 107/43/5 105/41/5 92/44/5
f 91/44/6 121/42/6 108/43/6
f 92/44/3 86/41/3 84/44/3
f 123/47/4 126/48/4 124/49/4
f 128/50/3 130/51/3 127/52/3
f 136/53/3 138/54/3 137/55/3
f 126/48/7 129/56/7 124/49/7
f 123/47/8 127/52/8 125/57/8
f 134/58/4 131/59/4 132/49/4
f 134/58/9 137/55/9 138/54/9
f 136/53/10 133/57/10 135/60/10
f 139/61/4 228/62/4 140/62/4
f 141/63/4 232/64/4 145/64/4
f 143/61/4 232/64/4 226/61/4
f 139/61/4 147/64/4 146/61/4
f 149/65/3 148/66/3 157/66/3
f 153/67/3 151/68/3 152/68/3
f 148/66/3 154/67/3 155/66/3
f 158/66/3 153/67/3 157/66/3
f 226/61/6 150/65/6 228/62/6
f 149/65/5 139/61/5 140/62/5
f 152/68/1 142/63/1 141/63/1
f 157/66/5 145/64/5 139/61/5
f 232/64/2 153/67/2 145/64/2
f 159/67/6 146/61/6 147/64/6
f 142/63/6 156/67/6 232/64/6
f 153/67/5 141/63/5 145/64/5
f 157/66/1 226/61/1 139/61/1
f 228/62/2 149/65/2 140/62/2
f 155/66/5 144/64/5 143/61/5
f 232/64/6 148/66/6 226/61/6
f 163/69/2 190/70/2 175/69/2
f 308/71/3 197/70/3 182/71/3
f 161/72/4 175/69/4 172/72/4
f 169/72/4 181/69/4 166/72/4
f 171/72/4 179/69/4 168/72/4
f 173/72/4 177/69/4 170/72/4
f 191/70/2 177/69/2 174/69/2
f 176/69/2 194/70/2 179/69/2
f 178/69/2 196/70/2 181/69/2
f 180/69/2 164/70/2 162/69/2
f 196/70/3 184/71/3 183/71/3
f 194/70/3 186/71/3 185/71/3
f 192/70/3 188/71/3 187/71/3
f 190/70/3 235/71/3 189/71/3
f 188/71/6 174/69/6 173/72/6
f 172/72/5 190/70/5 189/71/5
f 186/71/6 176/69/6 171/72/6
f 170/72/5 192/70/5 187/71/5
f 184/71/6 178/69/6 169/72/6
f 168/72/5 194/70/5 185/71/5
f 182/71/6 180/69/6 167/72/6
f 166/72/5 196/70/5 183/71/5
f 167/72/4 162/69/4 160/72/4
f 198/73/3 201/74/3 199/75/3
f 203/76/4 205/77/4 202/78/4
f 211/79/4 213/80/4 212/81/4
f 201/74/9 204/82/9 199/75/9
f 198/73/10 202/78/10 200/83/10
f 209/84/3 206/85/3 207/75/3
f 209/84/7 212/81/7 213/80/7
f 211/79/8 208/83/8 210/86/8
f 214/33/6 215/62/6 223/61/6
f 218/35/6 219/64/6 217/63/6
f 221/87/6 220/36/6 214/33/6
f 223/61/6 225/88/6 224/89/6
f 228/62/5 227/33/5 226/61/5
f 142/63/5 67/36/5 65/35/5
f 231/87/5 67/36/5 230/90/5
f 226/61/5 234/88/5 232/64/5
f 227/33/3 216/34/3 214/33/3
f 215/62/4 226/61/4 223/61/4
f 142/63/1 218/35/1 217/63/1
f 226/61/4 219/64/4 223/61/4
f 67/36/2 219/64/2 220/36/2
f 234/88/3 224/89/3 225/88/3
f 218/35/3 67/36/3 220/36/3
f 219/64/4 142/63/4 217/63/4
f 226/61/1 214/33/1 223/61/1
f 229/34/2 215/62/2 216/34/2
f 231/87/4 222/90/4 221/87/4
f 220/36/3 227/33/3 214/33/3
f 236/42/2 265/91/2 250/91/2
f 239/70/5 257/92/5 237/71/5
f 247/93/6 236/94/6 250/95/6
f 241/96/6 253/97/6 256/98/6
f 243/99/6 251/100/6 254/101/6
f 248/102/6 252/103/6 245/104/6
f 266/105/2 252/103/2 249/105/2
f 268/106/2 254/107/2 251/106/2
f 253/97/2 271/98/2 256/98/2
f 255/108/2 239/70/2 165/70/2
f 271/98/5 259/109/5 258/96/5
f 260/110/5 268/106/5 261/111/5
f 267/103/5 263/102/5 262/104/5
f 265/91/5 238/43/5 264/112/5
f 263/102/3 249/105/3 248/102/3
f 247/112/4 265/91/4 264/112/4
f 261/111/3 251/106/3 246/111/3
f 245/104/4 267/103/4 262/104/4
f 259/109/3 253/97/3 244/109/3
f 243/110/4 269/107/4 260/110/4
f 257/92/3 255/108/3 242/92/3
f 241/96/4 271/98/4 258/96/4
f 242/113/6 165/114/6 235/115/6
f 275/116/5 274/117/5 273/118/5
f 279/117/6 277/116/6 278/118/6
f 285/119/6 287/120/6 286/121/6
f 276/122/11 279/117/11 274/117/11
f 273/118/12 277/116/12 275/116/12
f 283/119/5 282/120/5 284/123/5
f 284/123/13 287/120/13 288/123/13
f 286/121/14 283/119/14 285/119/14
f 291/62/5 290/33/5 289/61/5
f 293/63/5 297/36/5 294/35/5
f 295/87/5 297/36/5 296/90/5
f 289/61/5 300/88/5 298/64/5
f 139/61/6 302/34/6 140/62/6
f 141/63/6 305/36/6 145/64/6
f 304/87/6 305/36/6 301/33/6
f 139/61/6 307/88/6 306/89/6
f 292/34/3 301/33/3 290/33/3
f 289/61/4 140/62/4 291/62/4
f 294/35/1 141/63/1 293/63/1
f 298/64/4 139/61/4 289/61/4
f 297/36/2 145/64/2 305/36/2
f 299/89/3 307/88/3 300/88/3
f 294/35/3 305/36/3 66/35/3
f 293/63/4 145/64/4 298/64/4
f 290/33/1 139/61/1 289/61/1
f 292/34/2 140/62/2 302/34/2
f 296/90/4 304/87/4 295/87/4
f 290/33/3 305/36/3 297/36/3
f 322/91/2 312/42/2 90/42/2
f 329/92/6 311/70/6 309/71/6
f 322/91/5 89/43/5 319/112/5
f 313/96/5 325/97/5 316/109/5
f 315/110/5 323/106/5 318/111/5
f 324/124/5 320/125/5 317/126/5
f 321/105/2 339/127/2 338/105/2
f 323/106/2 341/107/2 340/106/2
f 325/97/2 343/98/2 342/97/2
f 164/70/2 344/108/2 327/108/2
f 330/96/6 342/97/6 343/98/6
f 332/110/6 340/106/6 341/107/6
f 335/102/6 339/127/6 334/128/6
f 310/43/6 337/91/6 336/112/6
f 321/105/3 335/102/3 320/102/3
f 337/91/4 319/112/4 336/112/4
f 323/106/3 333/111/3 318/111/3
f 339/127/4 317/128/4 334/128/4
f 325/97/3 331/109/3 316/109/3
f 341/107/4 315/110/4 332/110/4
f 327/108/3 329/92/3 314/92/3
f 343/98/4 313/96/4 330/96/4
f 164/114/5 314/113/5 308/115/5
f 346/117/6 347/116/6 345/118/6
f 349/116/5 351/117/5 350/118/5
f 359/120/5 357/119/5 358/121/5
f 351/117/11 348/122/11 346/117/11
f 349/116/12 345/118/12 347/116/12
f 354/120/6 355/119/6 356/123/6
f 359/120/13 356/123/13 360/123/13
f 357/119/14 353/121/14 358/121/14
f 9/1/1 1/2/1 3/2/1
f 4/1/1 5/2/1 6/2/1
f 7/3/1 8/3/1 6/2/1
f 9/1/1 10/1/1 12/4/1
f 22/5/2 14/5/2 15/6/2
f 17/5/2 21/5/2 18/6/2
f 20/7/2 13/6/2 18/6/2
f 22/5/2 23/8/2 24/8/2
f 1/2/3 13/6/3 15/6/3
f 14/5/4 22/5/4 9/1/4
f 17/5/5 16/6/5 5/2/5
f 22/5/4 21/5/4 10/1/4
f 18/6/6 21/5/6 10/1/6
f 24/8/3 23/8/3 11/4/3
f 5/2/3 16/6/3 18/6/3
f 21/5/4 17/5/4 4/1/4
f 22/5/5 13/6/5 1/2/5
f 15/6/6 14/5/6 2/1/6
f 20/7/4 19/7/4 8/3/4
f 18/6/3 13/6/3 1/2/3
f 32/9/6 57/32/6 42/10/6
f 29/12/2 31/12/2 64/13/2
f 39/10/1 26/11/1 28/11/1
f 30/9/3 32/9/3 28/11/3
f 31/12/4 29/12/4 25/14/4
f 33/15/1 36/16/1 45/16/1
f 38/17/1 43/17/1 46/18/1
f 40/19/1 41/19/1 44/20/1
f 39/10/5 56/32/5 30/9/5
f 41/21/6 58/31/6 59/22/6
f 60/24/6 61/30/6 46/18/6
f 45/25/6 62/29/6 63/26/6
f 64/13/6 31/12/6 27/14/6
f 50/26/2 63/26/2 62/29/2
f 61/30/2 60/24/2 53/24/2
f 54/22/2 59/22/2 58/31/2
f 56/32/2 57/32/2 32/9/2
f 25/14/5 29/12/5 49/13/5
f 50/26/5 51/29/5 36/25/5
f 35/18/5 52/30/5 53/24/5
f 54/22/5 55/31/5 40/21/5
f 55/31/3 58/31/3 41/21/3
f 39/10/4 42/10/4 57/32/4
f 53/24/3 60/24/3 43/17/3
f 37/23/4 44/23/4 59/22/4
f 51/29/3 62/29/3 45/25/3
f 35/18/4 46/18/4 61/30/4
f 49/13/3 64/13/3 47/28/3
f 33/27/4 48/27/4 63/26/4
f 25/14/1 34/28/1 47/28/1
f 301/33/3 302/34/3 229/34/3
f 66/35/3 305/36/3 67/36/3
f 68/33/3 69/36/3 305/36/3
f 67/36/3 71/36/3 70/33/3
f 81/37/4 72/38/4 73/38/4
f 76/39/4 80/39/4 74/40/4
f 78/37/4 79/37/4 80/39/4
f 82/37/4 83/39/4 76/39/4
f 79/37/5 73/38/5 302/34/5
f 229/34/6 72/38/6 81/37/6
f 75/40/1 74/40/1 66/35/1
f 227/33/6 81/37/6 76/39/6
f 305/36/2 80/39/2 76/39/2
f 83/39/5 82/37/5 70/33/5
f 74/40/5 80/39/5 305/36/5
f 76/39/6 75/40/6 65/35/6
f 81/37/1 79/37/1 301/33/1
f 73/38/2 72/38/2 229/34/2
f 68/33/6 78/37/6 77/39/6
f 80/39/5 79/37/5 301/33/5
f 87/41/2 90/42/2 115/42/2
f 236/42/4 122/42/4 107/43/4
f 85/44/3 87/41/3 100/41/3
f 94/45/3 103/46/3 106/46/3
f 96/44/3 101/41/3 104/41/3
f 98/45/3 99/46/3 102/46/3
f 99/41/2 116/42/2 117/42/2
f 118/42/2 119/42/2 104/41/2
f 120/42/2 121/42/2 106/41/2
f 105/41/2 122/42/2 236/42/2
f 121/42/4 120/42/4 109/43/4
f 119/42/4 118/42/4 111/43/4
f 117/42/4 116/42/4 113/43/4
f 115/42/4 90/42/4 89/43/4
f 113/43/5 116/42/5 99/41/5
f 97/44/6 100/41/6 115/42/6
f 111/43/5 118/42/5 101/41/5
f 95/44/6 102/41/6 117/42/6
f 109/43/5 120/42/5 103/41/5
f 93/44/6 104/41/6 119/42/6
f 107/43/5 122/42/5 105/41/5
f 91/44/6 106/41/6 121/42/6
f 92/44/3 105/41/3 86/41/3
f 123/47/4 125/57/4 126/48/4
f 128/50/3 129/56/3 130/51/3
f 136/53/3 135/60/3 138/54/3
f 126/48/7 130/51/7 129/56/7
f 123/47/8 128/50/8 127/52/8
f 134/58/4 133/57/4 131/59/4
f 134/58/9 132/49/9 137/55/9
f 136/53/10 131/59/10 133/57/10
f 139/61/4 226/61/4 228/62/4
f 141/63/4 142/63/4 232/64/4
f 143/61/4 144/64/4 232/64/4
f 139/61/4 145/64/4 147/64/4
f 149/65/3 150/65/3 148/66/3
f 153/67/3 156/67/3 151/68/3
f 148/66/3 156/67/3 154/67/3
f 158/66/3 159/67/3 153/67/3
f 226/61/6 148/66/6 150/65/6
f 149/65/5 157/66/5 139/61/5
f 152/68/1 151/68/1 142/63/1
f 157/66/5 153/67/5 145/64/5
f 232/64/2 156/67/2 153/67/2
f 159/67/6 158/66/6 146/61/6
f 142/63/6 151/68/6 156/67/6
f 153/67/5 152/68/5 141/63/5
f 157/66/1 148/66/1 226/61/1
f 228/62/2 150/65/2 149/65/2
f 155/66/5 154/67/5 144/64/5
f 232/64/6 156/67/6 148/66/6
f 163/69/2 165/70/2 190/70/2
f 308/71/3 164/70/3 197/70/3
f 161/72/4 163/69/4 175/69/4
f 169/72/4 178/69/4 181/69/4
f 171/72/4 176/69/4 179/69/4
f 173/72/4 174/69/4 177/69/4
f 191/70/2 192/70/2 177/69/2
f 176/69/2 193/70/2 194/70/2
f 178/69/2 195/70/2 196/70/2
f 180/69/2 197/70/2 164/70/2
f 196/70/3 195/70/3 184/71/3
f 194/70/3 193/70/3 186/71/3
f 192/70/3 191/70/3 188/71/3
f 190/70/3 165/70/3 235/71/3
f 188/71/6 191/70/6 174/69/6
f 172/72/5 175/69/5 190/70/5
f 186/71/6 193/70/6 176/69/6
f 170/72/5 177/69/5 192/70/5
f 184/71/6 195/70/6 178/69/6
f 168/72/5 179/69/5 194/70/5
f 182/71/6 197/70/6 180/69/6
f 166/72/5 181/69/5 196/70/5
f 167/72/4 180/69/4 162/69/4
f 198/73/3 200/83/3 201/74/3
f 203/76/4 204/82/4 205/77/4
f 211/79/4 210/86/4 213/80/4
f 201/74/9 205/77/9 204/82/9
f 198/73/10 203/76/10 202/78/10
f 209/84/3 208/83/3 206/85/3
f 209/84/7 207/75/7 212/81/7
f 211/79/8 206/85/8 208/83/8
f 214/33/6 216/34/6 215/62/6
f 218/35/6 220/36/6 219/64/6
f 221/87/6 222/90/6 220/36/6
f 223/61/6 219/64/6 225/88/6
f 228/62/5 229/34/5 227/33/5
f 142/63/5 232/64/5 67/36/5
f 231/87/5 227/33/5 67/36/5
f 226/61/5 233/89/5 234/88/5
f 227/33/3 229/34/3 216/34/3
f 215/62/4 228/62/4 226/61/4
f 142/63/1 65/35/1 218/35/1
f 226/61/4 232/64/4 219/64/4
f 67/36/2 232/64/2 219/64/2
f 234/88/3 233/89/3 224/89/3
f 218/35/3 65/35/3 67/36/3
f 219/64/4 232/64/4 142/63/4
f 226/61/1 227/33/1 214/33/1
f 229/34/2 228/62/2 215/62/2
f 231/87/4 230/90/4 222/90/4
f 220/36/3 67/36/3 227/33/3
f 236/42/2 240/42/2 265/91/2
f 239/70/5 272/108/5 257/92/5
f 247/93/6 88/129/6 236/94/6
f 241/96/6 244/109/6 253/97/6
f 243/99/6 246/130/6 251/100/6
f 248/102/6 249/105/6 252/103/6
f 266/105/2 267/103/2 252/103/2
f 268/106/2 269/107/2 254/107/2
f 253/97/2 270/97/2 271/98/2
f 255/108/2 272/108/2 239/70/2
f 271/98/5 270/97/5 259/109/5
f 260/110/5 269/107/5 268/106/5
f 267/103/5 266/105/5 263/102/5
f 265/91/5 240/42/5 238/43/5
f 263/102/3 266/105/3 249/105/3
f 247/112/4 250/91/4 265/91/4
f 261/111/3 268/106/3 251/106/3
f 245/104/4 252/103/4 267/103/4
f 259/109/3 270/97/3 253/97/3
f 243/110/4 254/107/4 269/107/4
f 257/92/3 272/108/3 255/108/3
f 241/96/4 256/98/4 271/98/4
f 242/113/6 255/131/6 165/114/6
f 275/116/5 276/122/5 274/117/5
f 279/117/6 280/122/6 277/116/6
f 285/119/6 288/123/6 287/120/6
f 276/122/11 280/122/11 279/117/11
f 273/118/12 278/118/12 277/116/12
f 283/119/5 281/121/5 282/120/5
f 284/123/13 282/120/13 287/120/13
f 286/121/14 281/121/14 283/119/14
f 291/62/5 292/34/5 290/33/5
f 293/63/5 298/64/5 297/36/5
f 295/87/5 290/33/5 297/36/5
f 289/61/5 299/89/5 300/88/5
f 139/61/6 301/33/6 302/34/6
f 141/63/6 66/35/6 305/36/6
f 304/87/6 303/90/6 305/36/6
f 139/61/6 145/64/6 307/88/6
f 292/34/3 302/34/3 301/33/3
f 289/61/4 139/61/4 140/62/4
f 294/35/1 66/35/1 141/63/1
f 298/64/4 145/64/4 139/61/4
f 297/36/2 298/64/2 145/64/2
f 299/89/3 306/89/3 307/88/3
f 294/35/3 297/36/3 305/36/3
f 293/63/4 141/63/4 145/64/4
f 290/33/1 301/33/1 139/61/1
f 292/34/2 291/62/2 140/62/2
f 296/90/4 303/90/4 304/87/4
f 290/33/3 301/33/3 305/36/3
f 322/91/2 337/91/2 312/42/2
f 329/92/6 344/108/6 311/70/6
f 322/91/5 90/42/5 89/43/5
f 313/96/5 328/98/5 325/97/5
f 315/110/5 326/107/5 323/106/5
f 324/124/5 321/132/5 320/125/5
f 321/105/2 324/127/2 339/127/2
f 323/106/2 326/107/2 341/107/2
f 325/97/2 328/98/2 343/98/2
f 164/70/2 311/70/2 344/108/2
f 330/96/6 331/109/6 342/97/6
f 332/110/6 333/111/6 340/106/6
f 335/102/6 338/105/6 339/127/6
f 310/43/6 312/42/6 337/91/6
f 321/105/3 338/105/3 335/102/3
f 337/91/4 322/91/4 319/112/4
f 323/106/3 340/106/3 333/111/3
f 339/127/4 324/127/4 317/128/4
f 325/97/3 342/97/3 331/109/3
f 341/107/4 326/107/4 315/110/4
f 327/108/3 344/108/3 329/92/3
f 343/98/4 328/98/4 313/96/4
f 164/114/5 327/131/5 314/113/5
f 346/117/6 348/122/6 347/116/6
f 349/116/5 352/122/5 351/117/5
f 359/120/5 360/123/5 357/119/5
f 351/117/11 352/122/11 348/122/11
f 349/116/12 350/118/12 345/118/12
f 354/120/6 353/121/6 355/119/6
f 359/120/13 354/120/13 356/123/13
f 357/119/14 355/119/14 353/121/14
o Prop_Crate_Box_Open_Top_01
v 0.381743 0.770402 -0.315948
v -0.381750 0.770402 -0.381968
v 0.381743 0.770402 -0.381968
v -0.381749 0.770402 0.381968
v 0.381743 0.770402 0.381968
v 0.381743 0.770402 0.315948
v 0.315503 0.770402 -0.315948
v 0.315503 0.770402 0.315948
v -0.381750 0.770402 -0.315948
v -0.381749 0.770402 0.315948
v -0.315509 0.770402 -0.315948
v -0.315508 0.770402 0.315948
v -0.381750 0.750000 -0.315948
v -0.381750 0.750000 -0.381968
v 0.381743 0.750000 -0.381968
v 0.381743 0.750000 0.381968
v -0.381749 0.750000 0.381968
v -0.381749 0.750000 0.315948
v 0.315503 0.750000 0.315948
v 0.315503 0.750000 -0.315948
v 0.381743 0.750000 -0.315948
v 0.381743 0.750000 0.315948
v -0.315509 0.750000 -0.315948
v -0.315508 0.750000 0.315948
v -0.342345 0.750000 0.356050
v 0.342786 0.750000 0.356050
v -0.342345 0.750000 -0.357600
v 0.342785 0.750000 -0.357600
v -0.342345 0.741128 0.356050
v 0.342786 0.741128 0.356050
v -0.342345 0.741128 -0.357600
v 0.342785 0.741128 -0.357600
v -0.223351 0.750000 0.356050
v -0.226649 0.750000 0.356050
v -0.073351 0.750000 0.356050
v -0.076649 0.750000 0.356050
v 0.076649 0.750000 0.356050
v 0.073351 0.750000 0.356050
v 0.226649 0.750000 0.356050
v 0.223351 0.750000 0.356050
v 0.223351 0.750000 -0.357600
v 0.226649 0.750000 -0.357600
v 0.073351 0.750000 -0.357600
v 0.076649 0.750000 -0.357600
v -0.076649 0.750000 -0.357600
v -0.073351 0.750000 -0.357600
v -0.226649 0.750000 -0.357600
v -0.223351 0.750000 -0.357600
v -0.226649 0.741128 0.356050
v -0.223351 0.741128 0.356050
v -0.076649 0.741128 0.356050
v -0.073351 0.741128 0.356050
v 0.073351 0.741128 0.356050
v 0.076649 0.741128 0.356050
v 0.223351 0.741128 0.356050
v 0.226649 0.741128 0.356050
v 0.226649 0.741128 -0.357600
v 0.223351 0.741128 -0.357600
v 0.076649 0.741128 -0.357600
v 0.073351 0.741128 -0.357600
v -0.073351 0.741128 -0.357600
v -0.076649 0.741128 -0.357600
v -0.223351 0.741128 -0.357600
v -0.226649 0.741128 -0.357600
v -0.353307 0.750000 0.306111
v -0.310477 0.750000 0.350147
v 0.312909 0.750000 -0.350333
v 0.355738 0.750000 -0.306297
v 0.312909 0.759946 -0.350333
v -0.353307 0.759947 0.306111
v -0.310477 0.759947 0.350147
v 0.355738 0.759947 -0.306297
v 0.355738 0.750000 0.306111
v 0.312909 0.750000 0.350147
v -0.310478 0.750000 -0.350333
v -0.353307 0.750000 -0.306297
v -0.310478 0.758739 -0.350333
v 0.355738 0.758739 0.306111
v 0.312909 0.758739 0.350147
v -0.353307 0.758739 -0.306297
vn -0.0000 1.0000 -0.0000
vn -0.0000 -1.0000 -0.0000
vn 1.0000 -0.0000 -0.0000
vn -1.0000 -0.0000 -0.0000
vn -0.0000 -0.0000 1.0000
vn -0.0000 -0.0000 -1.0000
vn 0.7019 -0.0000 0.7123
vn -0.7019 -0.0000 -0.7123
vn -0.7019 -0.0000 0.7123
vn 0.7019 -0.0000 -0.7123
vt 0.106489 0.839880
vt 0.106456 0.839880
vt 0.106486 0.839880
vt 0.106459 0.839880
vt 0.106456 0.839180
vt 0.106489 0.839180
vt 0.106486 0.839180
vt 0.106459 0.839180
vt 0.578434 0.894041
vt 0.578366 0.893390
vt 0.578366 0.894041
vt 0.578030 0.893390
vt 0.578099 0.893390
vt 0.578434 0.893390
vt 0.578030 0.894041
vt 0.592630 0.864853
vt 0.592586 0.864853
vt 0.578189 0.894041
vt 0.578275 0.894041
vt 0.592720 0.864853
vt 0.592676 0.864853
vt 0.578364 0.894041
vt 0.578277 0.893390
vt 0.578277 0.894041
vt 0.578275 0.893390
vt 0.578187 0.894041
vt 0.578101 0.893390
vt 0.578101 0.894041
vt 0.578099 0.894041
vt 0.578187 0.893390
vt 0.578189 0.893390
vt 0.578364 0.893390
vt 0.106457 0.839180
vt 0.106488 0.839180
vt 0.106459 0.839180
vt 0.106457 0.839521
vt 0.106488 0.839521
vt 0.106486 0.839521
vt 0.106488 0.839480
vt 0.106457 0.839480
vt 0.106486 0.839480
vt 0.106459 0.839521
vt 0.106486 0.839180
vt 0.106459 0.839480
s 0
usemtl Texture_Map
f 361/133/15 362/134/15 369/134/15
f 364/134/15 366/133/15 370/134/15
f 368/135/15 361/133/15 367/135/15
f 370/134/15 371/136/15 369/134/15
f 373/137/16 375/138/16 381/138/16
f 378/137/16 376/138/16 377/137/16
f 381/138/16 379/139/16 380/139/16
f 383/140/16 378/137/16 373/137/16
f 381/138/17 363/133/17 361/133/17
f 362/134/18 373/137/18 369/134/18
f 377/137/19 365/133/19 364/134/19
f 373/137/18 370/134/18 369/134/18
f 366/133/20 378/137/20 370/134/20
f 384/140/17 371/136/17 372/136/17
f 376/138/17 366/133/17 365/133/17
f 370/134/18 377/137/18 364/134/18
f 373/137/19 361/133/19 369/134/19
f 375/138/20 362/134/20 363/133/20
f 380/139/18 368/135/18 367/135/18
f 382/138/17 361/133/17 366/133/17
f 388/141/20 417/142/20 402/143/20
f 391/144/16 409/145/16 389/144/16
f 386/141/15 402/143/15 399/143/15
f 390/146/17 388/141/17 386/141/17
f 391/144/18 385/147/18 387/147/18
f 396/148/15 408/149/15 393/149/15
f 395/150/15 403/151/15 406/150/15
f 400/152/15 404/153/15 397/153/15
f 416/142/19 386/141/19 399/143/19
f 401/154/20 419/155/20 404/156/20
f 420/157/20 406/150/20 403/151/20
f 405/158/20 423/159/20 408/160/20
f 407/161/20 391/144/20 387/147/20
f 423/159/16 411/162/16 410/159/16
f 412/163/16 420/157/16 413/157/16
f 419/155/16 415/164/16 414/155/16
f 417/142/16 390/146/16 416/142/16
f 389/144/19 394/161/19 385/147/19
f 410/159/19 396/158/19 393/160/19
f 412/163/19 398/151/19 395/150/19
f 414/155/19 400/154/19 397/156/19
f 415/164/17 401/154/17 400/154/17
f 399/143/18 417/142/18 416/142/18
f 413/157/17 403/151/17 398/151/17
f 397/156/18 419/155/18 414/155/18
f 411/162/17 405/158/17 396/158/17
f 395/150/18 421/163/18 412/163/18
f 409/145/17 407/161/17 394/161/17
f 393/160/18 423/159/18 410/159/18
f 394/161/15 387/147/15 385/147/15
f 425/165/16 428/166/16 426/167/16
f 430/168/15 432/169/15 429/170/15
f 438/171/15 440/172/15 439/173/15
f 428/166/21 431/174/21 426/167/21
f 425/165/22 429/170/22 427/175/22
f 436/165/16 433/166/16 434/175/16
f 436/165/23 439/173/23 440/172/23
f 438/171/24 435/167/24 437/176/24
f 361/133/15 363/133/15 362/134/15
f 364/134/15 365/133/15 366/133/15
f 368/135/15 366/133/15 361/133/15
f 370/134/15 372/136/15 371/136/15
f 373/137/16 374/137/16 375/138/16
f 378/137/16 382/138/16 376/138/16
f 381/138/16 382/138/16 379/139/16
f 383/140/16 384/140/16 378/137/16
f 381/138/17 375/138/17 363/133/17
f 362/134/18 374/137/18 373/137/18
f 377/137/19 376/138/19 365/133/19
f 373/137/18 378/137/18 370/134/18
f 366/133/20 382/138/20 378/137/20
f 384/140/17 383/140/17 371/136/17
f 376/138/17 382/138/17 366/133/17
f 370/134/18 378/137/18 377/137/18
f 373/137/19 381/138/19 361/133/19
f 375/138/20 374/137/20 362/134/20
f 380/139/18 379/139/18 368/135/18
f 382/138/17 381/138/17 361/133/17
f 388/141/20 392/146/20 417/142/20
f 391/144/16 424/145/16 409/145/16
f 386/141/15 388/141/15 402/143/15
f 390/146/17 392/146/17 388/141/17
f 391/144/18 389/144/18 385/147/18
f 396/148/15 405/148/15 408/149/15
f 395/150/15 398/151/15 403/151/15
f 400/152/15 401/152/15 404/153/15
f 416/142/19 390/146/19 386/141/19
f 401/154/20 418/164/20 419/155/20
f 420/157/20 421/163/20 406/150/20
f 405/158/20 422/162/20 423/159/20
f 407/161/20 424/145/20 391/144/20
f 423/159/16 422/162/16 411/162/16
f 412/163/16 421/163/16 420/157/16
f 419/155/16 418/164/16 415/164/16
f 417/142/16 392/146/16 390/146/16
f 389/144/19 409/145/19 394/161/19
f 410/159/19 411/162/19 396/158/19
f 412/163/19 413/157/19 398/151/19
f 414/155/19 415/164/19 400/154/19
f 415/164/17 418/164/17 401/154/17
f 399/143/18 402/143/18 417/142/18
f 413/157/17 420/157/17 403/151/17
f 397/156/18 404/156/18 419/155/18
f 411/162/17 422/162/17 405/158/17
f 395/150/18 406/150/18 421/163/18
f 409/145/17 424/145/17 407/161/17
f 393/160/18 408/160/18 423/159/18
f 394/161/15 407/161/15 387/147/15
f 425/165/16 427/175/16 428/166/16
f 430/168/15 431/174/15 432/169/15
f 438/171/15 437/176/15 440/172/15
f 428/166/21 432/169/21 431/174/21
f 425/165/22 430/168/22 429/170/22
f 436/165/16 435/167/16 433/166/16
f 436/165/23 434/175/23 439/173/23
f 438/171/24 433/166/24 435/167/24
