# Blender 4.4.0
# www.blender.org
mtllib Prop_Bench_02.mtl
o Prop_Bench_02
v -0.927484 0.329714 0.240675
v 0.927484 0.329714 0.240675
v -0.927484 0.329714 -0.242100
v 0.927484 0.329714 -0.242100
v -0.927484 0.371674 0.240675
v 0.927484 0.371674 0.240675
v -0.927484 0.371674 -0.242100
v 0.927484 0.371674 -0.242100
v -0.943846 0.000000 0.251341
v -0.890444 0.000000 0.251341
v -0.943846 0.000000 0.205923
v -0.890444 0.000000 0.205923
v -0.943846 0.583624 0.205923
v -0.943846 0.583624 0.251341
v -0.890444 0.583624 0.251341
v -0.890444 0.583624 0.205923
v 0.943846 0.000000 0.251341
v 0.890444 0.000000 0.251341
v 0.943846 0.000000 0.205923
v 0.890444 0.000000 0.205923
v 0.943846 0.583624 0.205923
v 0.943846 0.583624 0.251341
v 0.890444 0.583624 0.251341
v 0.890444 0.583624 0.205923
v -0.955000 0.000000 -0.199647
v -0.878458 0.000000 -0.199647
v -0.955000 0.000000 -0.257617
v -0.878458 0.000000 -0.257617
v -0.955000 0.371674 -0.257617
v -0.955000 0.371674 -0.199647
v -0.878458 0.371674 -0.199647
v -0.878458 0.371674 -0.257617
v -0.955000 0.900000 -0.381950
v -0.955000 0.900000 -0.323980
v -0.878458 0.900000 -0.323980
v -0.878458 0.900000 -0.381950
v 0.955000 0.000000 -0.199647
v 0.878458 0.000000 -0.199647
v 0.955000 0.000000 -0.257617
v 0.878458 0.000000 -0.257617
v 0.955000 0.371674 -0.257617
v 0.955000 0.371674 -0.199647
v 0.878458 0.371674 -0.199647
v 0.878458 0.371674 -0.257617
v 0.955000 0.900000 -0.381950
v 0.955000 0.900000 -0.323980
v 0.878458 0.900000 -0.323980
v 0.878458 0.900000 -0.381950
v -0.880460 0.371674 -0.254543
v 0.880460 0.371674 -0.254543
v -0.880460 0.414066 -0.262244
v 0.880460 0.414066 -0.262244
v -0.880460 0.414066 -0.211532
v -0.880460 0.371674 -0.202382
v 0.880460 0.371674 -0.202382
v 0.880460 0.414066 -0.211532
v -0.887326 0.812193 -0.311738
v -0.887326 0.812193 -0.357848
v -0.887326 0.872697 -0.319754
v -0.887326 0.872697 -0.365864
v 0.887326 0.812193 -0.311738
v 0.887326 0.812193 -0.357848
v 0.887326 0.872697 -0.319754
v 0.887326 0.872697 -0.365864
v -0.758968 0.414066 -0.220301
v -0.805318 0.414066 -0.220301
v -0.805318 0.414066 -0.244845
v -0.758968 0.414066 -0.244845
v -0.805318 0.818256 -0.340052
v -0.805318 0.818256 -0.315509
v -0.758968 0.818256 -0.315509
v -0.758968 0.818256 -0.340052
v -0.629652 0.414066 -0.220301
v -0.676002 0.414066 -0.220301
v -0.676002 0.414066 -0.244845
v -0.629652 0.414066 -0.244845
v -0.676002 0.818256 -0.340052
v -0.676002 0.818256 -0.315509
v -0.629652 0.818256 -0.315509
v -0.629652 0.818256 -0.340052
v -0.500335 0.414066 -0.220301
v -0.546685 0.414066 -0.220301
v -0.546685 0.414066 -0.244845
v -0.500335 0.414066 -0.244845
v -0.546685 0.818256 -0.340052
v -0.546685 0.818256 -0.315509
v -0.500335 0.818256 -0.315509
v -0.500335 0.818256 -0.340052
v -0.371019 0.414066 -0.220301
v -0.417369 0.414066 -0.220301
v -0.417369 0.414066 -0.244845
v -0.371019 0.414066 -0.244845
v -0.417369 0.818256 -0.340052
v -0.417369 0.818256 -0.315509
v -0.371019 0.818256 -0.315509
v -0.371019 0.818256 -0.340052
v -0.241702 0.414066 -0.220301
v -0.288052 0.414066 -0.220301
v -0.288052 0.414066 -0.244845
v -0.241702 0.414066 -0.244845
v -0.288052 0.818256 -0.340052
v -0.288052 0.818256 -0.315509
v -0.241702 0.818256 -0.315509
v -0.241702 0.818256 -0.340052
v -0.112386 0.414066 -0.220301
v -0.158736 0.414066 -0.220301
v -0.158736 0.414066 -0.244845
v -0.112386 0.414066 -0.244845
v -0.158736 0.818256 -0.340052
v -0.158736 0.818256 -0.315509
v -0.112386 0.818256 -0.315509
v -0.112386 0.818256 -0.340052
v 0.016931 0.414066 -0.220301
v -0.029419 0.414066 -0.220301
v -0.029419 0.414066 -0.244845
v 0.016931 0.414066 -0.244845
v -0.029419 0.818256 -0.340052
v -0.029419 0.818256 -0.315509
v 0.016931 0.818256 -0.315509
v 0.016931 0.818256 -0.340052
v 0.146248 0.414066 -0.220301
v 0.099898 0.414066 -0.220301
v 0.099898 0.414066 -0.244845
v 0.146248 0.414066 -0.244845
v 0.099898 0.818256 -0.340052
v 0.099898 0.818256 -0.315509
v 0.146248 0.818256 -0.315509
v 0.146248 0.818256 -0.340052
v 0.275564 0.414066 -0.220301
v 0.229214 0.414066 -0.220301
v 0.229214 0.414066 -0.244845
v 0.275564 0.414066 -0.244845
v 0.229214 0.818256 -0.340052
v 0.229214 0.818256 -0.315509
v 0.275564 0.818256 -0.315509
v 0.275564 0.818256 -0.340052
v 0.404881 0.414066 -0.220301
v 0.358531 0.414066 -0.220301
v 0.358531 0.414066 -0.244845
v 0.404881 0.414066 -0.244845
v 0.358531 0.818256 -0.340052
v 0.358531 0.818256 -0.315509
v 0.404881 0.818256 -0.315509
v 0.404881 0.818256 -0.340052
v 0.534197 0.414066 -0.220301
v 0.487847 0.414066 -0.220301
v 0.487847 0.414066 -0.244845
v 0.534197 0.414066 -0.244845
v 0.487847 0.818256 -0.340052
v 0.487847 0.818256 -0.315509
v 0.534197 0.818256 -0.315509
v 0.534197 0.818256 -0.340052
v 0.663514 0.414066 -0.220301
v 0.617164 0.414066 -0.220301
v 0.617164 0.414066 -0.244845
v 0.663514 0.414066 -0.244845
v 0.617164 0.818256 -0.340052
v 0.617164 0.818256 -0.315509
v 0.663514 0.818256 -0.315509
v 0.663514 0.818256 -0.340052
v 0.792831 0.414066 -0.220301
v 0.746481 0.414066 -0.220301
v 0.746481 0.414066 -0.244845
v 0.792831 0.414066 -0.244845
v 0.746481 0.818256 -0.340052
v 0.746481 0.818256 -0.315509
v 0.792831 0.818256 -0.315509
v 0.792831 0.818256 -0.340052
v -0.950904 0.583624 -0.260397
v -0.879633 0.616931 -0.260397
v -0.950904 0.616931 -0.260397
v -0.879633 0.583624 -0.260397
v -0.935336 0.583624 0.258050
v -0.950904 0.583624 0.245537
v -0.879633 0.583624 0.245537
v -0.895201 0.583624 0.258050
v -0.935336 0.616931 0.258050
v -0.950904 0.616931 0.245537
v -0.879633 0.616931 0.245537
v -0.895201 0.616931 0.258050
v 0.950904 0.583624 -0.260397
v 0.879633 0.616931 -0.260397
v 0.950904 0.616931 -0.260397
v 0.879633 0.583624 -0.260397
v 0.935336 0.583624 0.258050
v 0.950904 0.583624 0.245537
v 0.879633 0.583624 0.245537
v 0.895201 0.583624 0.258050
v 0.935336 0.616931 0.258050
v 0.950904 0.616931 0.245537
v 0.879633 0.616931 0.245537
v 0.895201 0.616931 0.258050
v -0.940760 0.371674 0.248078
v 0.940760 0.371674 0.248078
v -0.940760 0.371674 -0.199647
v 0.940760 0.371674 -0.199647
v 0.940760 0.395378 0.159583
v -0.940760 0.395378 0.159583
v -0.940760 0.395378 0.157484
v 0.940760 0.395378 0.157484
v -0.940760 0.395378 -0.199647
v 0.940760 0.395378 -0.199647
v 0.940760 0.395378 0.248078
v -0.940760 0.395378 0.248078
v -0.940760 0.371674 -0.109053
v -0.940760 0.371674 -0.111151
v -0.940760 0.371674 -0.019507
v -0.940760 0.371674 -0.021606
v -0.940760 0.371674 0.070038
v -0.940760 0.371674 0.067939
v -0.940760 0.371674 0.159583
v -0.940760 0.371674 0.157484
v 0.940760 0.371674 0.157484
v 0.940760 0.371674 0.159583
v 0.940760 0.371674 0.067939
v 0.940760 0.371674 0.070038
v 0.940760 0.371674 -0.021606
v 0.940760 0.371674 -0.019507
v 0.940760 0.371674 -0.111151
v 0.940760 0.371674 -0.109053
v 0.940760 0.395378 0.067939
v -0.940760 0.395378 0.067939
v -0.940760 0.395378 0.070038
v 0.940760 0.395378 0.070038
v 0.940760 0.395378 -0.021606
v -0.940760 0.395378 -0.021606
v -0.940760 0.395378 -0.019507
v 0.940760 0.395378 -0.019507
v 0.940760 0.395378 -0.111151
v -0.940760 0.395378 -0.111151
v -0.940760 0.395378 -0.109053
v 0.940760 0.395378 -0.109053
v -0.938879 0.164827 -0.199647
v -0.894579 0.164827 -0.199647
v -0.938879 0.206846 -0.199647
v -0.894579 0.206846 -0.199647
v -0.938879 0.206846 0.213163
v -0.938879 0.164827 0.213163
v -0.894579 0.164827 0.213163
v -0.894579 0.206846 0.213163
v 0.938879 0.164827 -0.199647
v 0.894579 0.164827 -0.199647
v 0.938879 0.206846 -0.199647
v 0.894579 0.206846 -0.199647
v 0.938879 0.206846 0.213163
v 0.938879 0.164827 0.213163
v 0.894579 0.164827 0.213163
v 0.894579 0.206846 0.213163
vn -0.0000 -1.0000 -0.0000
vn -0.0000 1.0000 -0.0000
vn -0.0000 -0.0000 -1.0000
vn -0.0000 -0.0000 1.0000
vn 1.0000 -0.0000 -0.0000
vn -1.0000 -0.0000 -0.0000
vn -0.0000 0.2291 0.9734
vn -0.0000 -0.2291 -0.9734
vn -0.0000 -0.1787 -0.9839
vn -0.0000 0.2110 0.9775
vn -0.0000 0.1313 0.9913
vn -0.0000 -0.1313 -0.9913
vn -0.0000 -0.2293 -0.9734
vn -0.0000 0.2293 0.9734
vn 0.6265 -0.0000 0.7794
vn -0.6265 -0.0000 0.7794
vt 0.588450 0.824049
vt 0.582048 0.824049
vt 0.588450 0.824049
vt 0.582048 0.944736
vt 0.588450 0.944736
vt 0.588450 0.944736
vt 0.582048 0.944736
vt 0.582048 0.824049
vt 0.574942 0.830781
vt 0.574805 0.830781
vt 0.574805 0.923257
vt 0.574942 0.923257
vt 0.570262 0.830781
vt 0.570126 0.830781
vt 0.570262 0.923257
vt 0.570126 0.923257
vt 0.605354 0.840186
vt 0.605266 0.840186
vt 0.605266 0.877147
vt 0.605354 0.877147
vt 0.605266 0.929687
vt 0.605354 0.929687
vt 0.603247 0.840186
vt 0.603159 0.840186
vt 0.603247 0.877147
vt 0.603159 0.877147
vt 0.603159 0.929687
vt 0.603247 0.929687
vt 0.570287 0.896390
vt 0.574780 0.896390
vt 0.574780 0.889673
vt 0.570287 0.889673
vt 0.574797 0.969060
vt 0.570270 0.959474
vt 0.570270 0.969060
vt 0.574797 0.959474
vt 0.227460 0.830469
vt 0.227438 0.923406
vt 0.227438 0.830469
vt 0.227460 0.923406
vt 0.217472 0.821025
vt 0.217463 0.859913
vt 0.217463 0.821025
vt 0.217472 0.859913
vt 0.227337 0.830469
vt 0.227314 0.923406
vt 0.227314 0.830469
vt 0.227337 0.923406
vt 0.217421 0.821025
vt 0.217411 0.859913
vt 0.217411 0.821025
vt 0.217421 0.859913
vt 0.227213 0.830469
vt 0.227191 0.923406
vt 0.227191 0.830469
vt 0.227213 0.923406
vt 0.227151 0.830469
vt 0.227129 0.923406
vt 0.227129 0.830469
vt 0.227151 0.923406
vt 0.217343 0.821025
vt 0.217334 0.859913
vt 0.217334 0.821025
vt 0.217343 0.859913
vt 0.227028 0.830469
vt 0.227006 0.923406
vt 0.227006 0.830469
vt 0.227028 0.923406
vt 0.226966 0.830469
vt 0.226944 0.923406
vt 0.226944 0.830469
vt 0.226966 0.923406
vt 0.217265 0.821025
vt 0.217256 0.859913
vt 0.217256 0.821025
vt 0.217265 0.859913
vt 0.217240 0.821025
vt 0.217230 0.859913
vt 0.217230 0.821025
vt 0.217240 0.859913
vt 0.226781 0.830469
vt 0.226758 0.923406
vt 0.226758 0.830469
vt 0.226781 0.923406
vt 0.217188 0.821025
vt 0.217179 0.859913
vt 0.217179 0.821025
vt 0.217188 0.859913
vt 0.574778 0.928534
vt 0.574778 0.928534
vt 0.574960 0.928534
vt 0.574778 0.923257
vt 0.574817 0.923257
vt 0.574920 0.923257
vt 0.574817 0.928534
vt 0.574960 0.928534
vt 0.574960 0.923257
vt 0.574920 0.928534
vt 0.570290 0.928534
vt 0.570250 0.928534
vt 0.570147 0.928534
vt 0.570290 0.923257
vt 0.570108 0.923257
vt 0.570250 0.923257
vt 0.570108 0.928534
vt 0.570147 0.923257
vt 0.570108 0.928534
vt 0.243541 0.879639
vt 0.246531 0.865013
vt 0.243541 0.865013
vt 0.240154 0.913408
vt 0.235627 0.935819
vt 0.235627 0.913408
vt 0.235627 0.844841
vt 0.240154 0.822430
vt 0.235627 0.822430
vt 0.243541 0.849684
vt 0.246531 0.835057
vt 0.243541 0.835057
vt 0.235627 0.890198
vt 0.240154 0.868051
vt 0.235627 0.868051
vt 0.240154 0.890198
vt 0.246531 0.849684
vt 0.246531 0.879639
vt 0.240154 0.935819
vt 0.240154 0.844841
vt 0.574816 0.863556
vt 0.574816 0.856898
vt 0.574816 0.856898
vt 0.574929 0.856898
vt 0.574929 0.863556
vt 0.574929 0.856898
vt 0.570251 0.856898
vt 0.570251 0.863556
vt 0.570138 0.863556
vt 0.570138 0.856898
vt 0.570138 0.856898
vt 0.570290 0.928534
vt 0.570251 0.856898
s 0
usemtl Texture_Map
f 3/1/1 2/2/1 1/3/1
f 6/4/2 7/5/2 5/6/2
f 3/1/3 8/7/3 4/8/3
f 2/2/4 5/6/4 1/3/4
f 4/8/5 6/4/5 2/2/5
f 1/3/6 7/5/6 3/1/6
f 11/9/1 10/10/1 9/9/1
f 12/10/5 15/11/5 10/10/5
f 9/9/6 13/12/6 11/9/6
f 11/9/3 16/11/3 12/10/3
f 10/10/4 14/12/4 9/9/4
f 18/13/1 19/14/1 17/14/1
f 23/15/6 20/13/6 18/13/6
f 21/16/5 17/14/5 19/14/5
f 24/15/3 19/14/3 20/13/3
f 22/16/4 18/13/4 17/14/4
f 27/17/1 26/18/1 25/17/1
f 28/18/5 31/19/5 26/18/5
f 25/17/6 29/20/6 27/17/6
f 27/17/3 32/19/3 28/18/3
f 26/18/4 30/20/4 25/17/4
f 35/21/2 33/22/2 34/22/2
f 35/21/7 30/20/7 31/19/7
f 32/19/5 35/21/5 31/19/5
f 34/22/6 29/20/6 30/20/6
f 33/22/8 32/19/8 29/20/8
f 38/23/1 39/24/1 37/24/1
f 43/25/6 40/23/6 38/23/6
f 41/26/5 37/24/5 39/24/5
f 44/25/3 39/24/3 40/23/3
f 42/26/4 38/23/4 37/24/4
f 45/27/2 47/28/2 46/27/2
f 42/26/7 47/28/7 43/25/7
f 44/25/6 47/28/6 48/28/6
f 41/26/5 46/27/5 42/26/5
f 44/25/8 45/27/8 41/26/8
f 52/29/2 53/30/2 56/29/2
f 49/31/9 52/29/9 50/32/9
f 53/30/10 55/32/10 56/29/10
f 55/32/1 49/31/1 50/32/1
f 59/33/11 61/34/11 63/35/11
f 58/36/12 64/35/12 62/34/12
f 60/33/2 63/35/2 64/35/2
f 57/36/1 62/34/1 61/34/1
f 67/37/13 72/38/13 68/39/13
f 67/37/6 70/40/6 69/40/6
f 65/39/14 70/40/14 66/37/14
f 68/39/5 71/38/5 65/39/5
f 75/41/13 80/42/13 76/43/13
f 75/41/6 78/44/6 77/44/6
f 73/43/14 78/44/14 74/41/14
f 76/43/5 79/42/5 73/43/5
f 83/45/13 88/46/13 84/47/13
f 83/45/6 86/48/6 85/48/6
f 81/47/14 86/48/14 82/45/14
f 84/47/5 87/46/5 81/47/5
f 91/49/13 96/50/13 92/51/13
f 91/49/6 94/52/6 93/52/6
f 89/51/14 94/52/14 90/49/14
f 92/51/5 95/50/5 89/51/5
f 99/53/13 104/54/13 100/55/13
f 99/53/6 102/56/6 101/56/6
f 97/55/14 102/56/14 98/53/14
f 100/55/5 103/54/5 97/55/5
f 107/57/13 112/58/13 108/59/13
f 107/57/6 110/60/6 109/60/6
f 105/59/14 110/60/14 106/57/14
f 108/59/5 111/58/5 105/59/5
f 115/61/13 120/62/13 116/63/13
f 115/61/6 118/64/6 117/64/6
f 113/63/14 118/64/14 114/61/14
f 116/63/5 119/62/5 113/63/5
f 123/65/13 128/66/13 124/67/13
f 123/65/6 126/68/6 125/68/6
f 121/67/14 126/68/14 122/65/14
f 124/67/5 127/66/5 121/67/5
f 131/69/13 136/70/13 132/71/13
f 131/69/6 134/72/6 133/72/6
f 129/71/14 134/72/14 130/69/14
f 132/71/5 135/70/5 129/71/5
f 139/73/13 144/74/13 140/75/13
f 139/73/6 142/76/6 141/76/6
f 137/75/14 142/76/14 138/73/14
f 140/75/5 143/74/5 137/75/5
f 147/77/13 152/78/13 148/79/13
f 147/77/6 150/80/6 149/80/6
f 145/79/14 150/80/14 146/77/14
f 148/79/5 151/78/5 145/79/5
f 155/81/13 160/82/13 156/83/13
f 155/81/6 158/84/6 157/84/6
f 153/83/14 158/84/14 154/81/14
f 156/83/5 159/82/5 153/83/5
f 163/85/13 168/86/13 164/87/13
f 163/85/6 166/88/6 165/88/6
f 161/87/14 166/88/14 162/85/14
f 164/87/5 167/86/5 161/87/5
f 179/89/2 170/90/2 171/91/2
f 175/92/1 176/93/1 173/94/1
f 175/92/15 180/95/15 176/93/15
f 173/94/16 178/96/16 174/97/16
f 172/92/5 179/89/5 175/92/5
f 176/93/4 177/98/4 173/94/4
f 174/97/6 171/91/6 169/97/6
f 191/99/2 192/100/2 189/101/2
f 187/102/1 184/102/1 181/103/1
f 192/100/16 187/102/16 188/104/16
f 190/105/15 185/106/15 186/103/15
f 191/99/6 184/102/6 187/102/6
f 189/101/4 188/104/4 185/106/4
f 183/107/5 186/103/5 181/103/5
f 205/108/1 217/109/1 208/110/1
f 229/111/2 201/112/2 230/113/2
f 211/114/1 194/115/1 193/116/1
f 209/117/1 213/118/1 212/119/1
f 207/120/1 215/121/1 210/122/1
f 221/121/2 227/120/2 222/122/2
f 200/118/2 223/117/2 199/119/2
f 203/115/2 198/114/2 204/116/2
f 225/109/2 231/108/2 226/110/2
f 195/112/1 219/111/1 206/113/1
f 215/121/4 222/122/4 210/122/4
f 210/122/6 227/120/6 207/120/6
f 219/111/4 230/113/4 206/113/4
f 218/123/5 221/121/5 215/121/5
f 209/117/3 224/124/3 216/124/3
f 212/119/6 223/117/6 209/117/6
f 194/115/4 204/116/4 193/116/4
f 205/108/3 232/125/3 220/125/3
f 216/124/5 200/118/5 213/118/5
f 213/118/4 199/119/4 212/119/4
f 206/113/6 201/112/6 195/112/6
f 217/109/4 226/110/4 208/110/4
f 193/116/6 198/114/6 211/114/6
f 195/112/3 202/126/3 196/126/3
f 196/126/5 229/111/5 219/111/5
f 214/127/5 203/115/5 194/115/5
f 211/114/3 197/127/3 214/127/3
f 208/110/6 231/108/6 205/108/6
f 207/120/3 228/123/3 218/123/3
f 220/125/5 225/109/5 217/109/5
f 236/128/5 239/129/5 234/130/5
f 233/131/6 237/132/6 235/132/6
f 235/132/2 240/128/2 236/128/2
f 234/130/1 238/133/1 233/131/1
f 242/134/6 248/135/6 244/135/6
f 245/136/5 241/137/5 243/136/5
f 248/135/2 243/136/2 244/135/2
f 246/138/1 242/134/1 241/137/1
f 3/1/1 4/8/1 2/2/1
f 6/4/2 8/7/2 7/5/2
f 3/1/3 7/5/3 8/7/3
f 2/2/4 6/4/4 5/6/4
f 4/8/5 8/7/5 6/4/5
f 1/3/6 5/6/6 7/5/6
f 11/9/1 12/10/1 10/10/1
f 12/10/5 16/11/5 15/11/5
f 9/9/6 14/12/6 13/12/6
f 11/9/3 13/12/3 16/11/3
f 10/10/4 15/11/4 14/12/4
f 18/13/1 20/13/1 19/14/1
f 23/15/6 24/15/6 20/13/6
f 21/16/5 22/16/5 17/14/5
f 24/15/3 21/16/3 19/14/3
f 22/16/4 23/15/4 18/13/4
f 27/17/1 28/18/1 26/18/1
f 28/18/5 32/19/5 31/19/5
f 25/17/6 30/20/6 29/20/6
f 27/17/3 29/20/3 32/19/3
f 26/18/4 31/19/4 30/20/4
f 35/21/2 36/21/2 33/22/2
f 35/21/7 34/22/7 30/20/7
f 32/19/5 36/21/5 35/21/5
f 34/22/6 33/22/6 29/20/6
f 33/22/8 36/21/8 32/19/8
f 38/23/1 40/23/1 39/24/1
f 43/25/6 44/25/6 40/23/6
f 41/26/5 42/26/5 37/24/5
f 44/25/3 41/26/3 39/24/3
f 42/26/4 43/25/4 38/23/4
f 45/27/2 48/28/2 47/28/2
f 42/26/7 46/27/7 47/28/7
f 44/25/6 43/25/6 47/28/6
f 41/26/5 45/27/5 46/27/5
f 44/25/8 48/28/8 45/27/8
f 52/29/2 51/30/2 53/30/2
f 49/31/9 51/30/9 52/29/9
f 53/30/10 54/31/10 55/32/10
f 55/32/1 54/31/1 49/31/1
f 59/33/11 57/36/11 61/34/11
f 58/36/12 60/33/12 64/35/12
f 60/33/2 59/33/2 63/35/2
f 57/36/1 58/36/1 62/34/1
f 67/37/13 69/40/13 72/38/13
f 67/37/6 66/37/6 70/40/6
f 65/39/14 71/38/14 70/40/14
f 68/39/5 72/38/5 71/38/5
f 75/41/13 77/44/13 80/42/13
f 75/41/6 74/41/6 78/44/6
f 73/43/14 79/42/14 78/44/14
f 76/43/5 80/42/5 79/42/5
f 83/45/13 85/48/13 88/46/13
f 83/45/6 82/45/6 86/48/6
f 81/47/14 87/46/14 86/48/14
f 84/47/5 88/46/5 87/46/5
f 91/49/13 93/52/13 96/50/13
f 91/49/6 90/49/6 94/52/6
f 89/51/14 95/50/14 94/52/14
f 92/51/5 96/50/5 95/50/5
f 99/53/13 101/56/13 104/54/13
f 99/53/6 98/53/6 102/56/6
f 97/55/14 103/54/14 102/56/14
f 100/55/5 104/54/5 103/54/5
f 107/57/13 109/60/13 112/58/13
f 107/57/6 106/57/6 110/60/6
f 105/59/14 111/58/14 110/60/14
f 108/59/5 112/58/5 111/58/5
f 115/61/13 117/64/13 120/62/13
f 115/61/6 114/61/6 118/64/6
f 113/63/14 119/62/14 118/64/14
f 116/63/5 120/62/5 119/62/5
f 123/65/13 125/68/13 128/66/13
f 123/65/6 122/65/6 126/68/6
f 121/67/14 127/66/14 126/68/14
f 124/67/5 128/66/5 127/66/5
f 131/69/13 133/72/13 136/70/13
f 131/69/6 130/69/6 134/72/6
f 129/71/14 135/70/14 134/72/14
f 132/71/5 136/70/5 135/70/5
f 139/73/13 141/76/13 144/74/13
f 139/73/6 138/73/6 142/76/6
f 137/75/14 143/74/14 142/76/14
f 140/75/5 144/74/5 143/74/5
f 147/77/13 149/80/13 152/78/13
f 147/77/6 146/77/6 150/80/6
f 145/79/14 151/78/14 150/80/14
f 148/79/5 152/78/5 151/78/5
f 155/81/13 157/84/13 160/82/13
f 155/81/6 154/81/6 158/84/6
f 153/83/14 159/82/14 158/84/14
f 156/83/5 160/82/5 159/82/5
f 163/85/13 165/88/13 168/86/13
f 163/85/6 162/85/6 166/88/6
f 161/87/14 167/86/14 166/88/14
f 164/87/5 168/86/5 167/86/5
f 171/91/2 178/96/2 179/89/2
f 178/96/2 177/98/2 179/89/2
f 177/98/2 180/95/2 179/89/2
f 173/94/1 174/97/1 175/92/1
f 174/97/1 169/97/1 175/92/1
f 169/97/1 172/92/1 175/92/1
f 175/92/15 179/89/15 180/95/15
f 173/94/16 177/98/16 178/96/16
f 172/92/5 170/90/5 179/89/5
f 176/93/4 180/95/4 177/98/4
f 174/97/6 178/96/6 171/91/6
f 189/101/2 190/105/2 191/99/2
f 190/105/2 183/107/2 191/99/2
f 183/107/2 182/139/2 191/99/2
f 181/103/1 186/103/1 187/102/1
f 186/103/1 185/106/1 187/102/1
f 185/106/1 188/104/1 187/102/1
f 192/100/16 191/99/16 187/102/16
f 190/105/15 189/101/15 185/106/15
f 191/99/6 182/139/6 184/102/6
f 189/101/4 192/100/4 188/104/4
f 183/107/5 190/105/5 186/103/5
f 205/108/1 220/125/1 217/109/1
f 229/111/2 202/126/2 201/112/2
f 211/114/1 214/127/1 194/115/1
f 209/117/1 216/124/1 213/118/1
f 207/120/1 218/123/1 215/121/1
f 221/121/2 228/123/2 227/120/2
f 200/118/2 224/124/2 223/117/2
f 203/115/2 197/127/2 198/114/2
f 225/109/2 232/125/2 231/108/2
f 195/112/1 196/126/1 219/111/1
f 215/121/4 221/121/4 222/122/4
f 210/122/6 222/122/6 227/120/6
f 219/111/4 229/111/4 230/113/4
f 218/123/5 228/123/5 221/121/5
f 209/117/3 223/117/3 224/124/3
f 212/119/6 199/119/6 223/117/6
f 194/115/4 203/115/4 204/116/4
f 205/108/3 231/108/3 232/125/3
f 216/124/5 224/124/5 200/118/5
f 213/118/4 200/118/4 199/119/4
f 206/113/6 230/113/6 201/112/6
f 217/109/4 225/109/4 226/110/4
f 193/116/6 204/116/6 198/114/6
f 195/112/3 201/112/3 202/126/3
f 196/126/5 202/126/5 229/111/5
f 214/127/5 197/127/5 203/115/5
f 211/114/3 198/114/3 197/127/3
f 208/110/6 226/110/6 231/108/6
f 207/120/3 227/120/3 228/123/3
f 220/125/5 232/125/5 225/109/5
f 236/128/5 240/128/5 239/129/5
f 233/131/6 238/133/6 237/132/6
f 235/132/2 237/132/2 240/128/2
f 234/130/1 239/129/1 238/133/1
f 242/134/6 247/140/6 248/135/6
f 245/136/5 246/138/5 241/137/5
f 248/135/2 245/136/2 243/136/2
f 246/138/1 247/140/1 242/134/1
