# Blender 4.4.0
# www.blender.org
mtllib Prop_Gas_Can_01.mtl
o Prop_Gas_Can_01
v -0.017027 0.271404 0.081360
v 0.061283 0.271404 0.081360
v 0.057976 0.230213 0.081360
v 0.056773 0.118364 0.081359
v 0.007163 0.126382 0.081359
v -0.069207 0.125179 0.081359
v -0.067403 0.163064 0.081359
v -0.069507 0.278821 0.081360
v 0.134605 0.365875 0.081360
v 0.132391 0.380246 0.081360
v 0.121112 0.378482 0.081360
v -0.139095 0.334381 0.081360
v -0.139563 0.345268 0.081360
v -0.126700 0.346303 0.081360
v 0.108524 0.080471 0.081359
v 0.111269 0.065998 0.081359
v 0.097617 0.063248 0.081359
v -0.110878 0.051771 0.081359
v -0.119719 0.050764 0.081359
v -0.121251 0.062979 0.081359
v -0.017027 0.271404 -0.081360
v 0.061283 0.271404 -0.081360
v 0.057976 0.230213 -0.081360
v 0.056773 0.118364 -0.081360
v 0.007163 0.126382 -0.081360
v -0.069207 0.125179 -0.081360
v -0.067403 0.163064 -0.081360
v -0.069507 0.278821 -0.081360
v 0.134605 0.365875 -0.081360
v 0.132391 0.380246 -0.081360
v 0.121112 0.378482 -0.081360
v -0.139095 0.334381 -0.081360
v -0.139563 0.345268 -0.081360
v -0.126700 0.346303 -0.081360
v 0.108524 0.080471 -0.081360
v 0.111269 0.065998 -0.081360
v 0.097617 0.063248 -0.081360
v -0.110878 0.051771 -0.081360
v -0.119719 0.050764 -0.081360
v -0.121251 0.062979 -0.081360
v 0.093876 0.457359 0.085000
v 0.126007 0.473425 0.085000
v 0.151933 0.466291 0.085000
v 0.169507 0.441584 0.085000
v 0.172291 0.406784 0.085000
v 0.167958 0.047001 0.085000
v 0.063194 0.430970 0.085000
v 0.018129 0.410786 0.085000
v -0.066058 0.408982 0.085000
v -0.089811 0.407779 0.085000
v -0.156559 0.374706 0.085000
v -0.178274 0.334199 0.085000
v -0.174056 0.358127 0.085000
v -0.167958 0.047001 0.085000
v 0.127713 0.002579 0.085000
v -0.127713 0.002579 0.085000
v 0.161248 0.024790 0.085000
v -0.161248 0.024790 0.085000
v 0.093876 0.457359 -0.085000
v 0.126007 0.473425 -0.085000
v 0.151933 0.466291 -0.085000
v 0.169507 0.441584 -0.085000
v 0.172291 0.406784 -0.085000
v 0.167958 0.047001 -0.085000
v 0.063194 0.430970 -0.085000
v 0.018129 0.410786 -0.085000
v -0.066058 0.408982 -0.085000
v -0.089811 0.407779 -0.085000
v -0.156559 0.374706 -0.085000
v -0.178274 0.334199 -0.085000
v -0.174056 0.358127 -0.085000
v -0.167958 0.047001 -0.085000
v 0.127713 0.002579 -0.085000
v -0.127713 0.002579 -0.085000
v 0.161248 0.024790 -0.085000
v -0.161248 0.024790 -0.085000
v 0.167958 0.047001 -0.000612
v 0.167958 0.047001 0.000612
v 0.172291 0.406784 0.000612
v 0.172291 0.406784 -0.000612
v 0.151933 0.466291 -0.000612
v 0.151933 0.466291 0.000612
v -0.178274 0.334199 -0.000612
v -0.178274 0.334199 0.000612
v -0.167958 0.047001 0.000612
v -0.167958 0.047001 -0.000612
v 0.169507 0.441584 0.000612
v 0.169507 0.441584 -0.000612
v 0.126007 0.473425 -0.000612
v 0.126007 0.473425 0.000612
v 0.161248 0.024790 -0.000612
v 0.161248 0.024790 0.000612
v 0.063194 0.430970 -0.000612
v 0.063194 0.430970 0.000612
v -0.161248 0.024790 -0.000612
v -0.161248 0.024790 0.000612
v -0.127713 0.002579 0.000612
v -0.127713 0.002579 -0.000612
v 0.018129 0.410786 -0.000612
v 0.018129 0.410786 0.000612
v -0.066058 0.408982 0.000612
v -0.066058 0.408982 -0.000612
v 0.127713 0.002579 0.000612
v 0.127713 0.002579 -0.000612
v -0.089811 0.407779 0.000612
v -0.089811 0.407779 -0.000612
v 0.093876 0.457359 -0.000612
v 0.093876 0.457359 0.000612
v -0.156559 0.374706 0.000612
v -0.156559 0.374706 -0.000612
v -0.174056 0.358127 -0.000612
v -0.174056 0.358127 0.000612
v 0.170532 0.046605 -0.000612
v 0.170532 0.046605 0.000612
v 0.174871 0.406872 0.000612
v 0.174871 0.406872 -0.000612
v 0.153382 0.468481 -0.000612
v 0.153382 0.468481 0.000612
v -0.180861 0.334379 -0.000612
v -0.180861 0.334379 0.000612
v -0.170523 0.046575 0.000612
v -0.170523 0.046575 -0.000612
v 0.172039 0.442269 0.000612
v 0.172039 0.442269 -0.000612
v 0.125599 0.476062 -0.000612
v 0.125599 0.476062 0.000612
v 0.163447 0.023154 -0.000612
v 0.163447 0.023154 0.000612
v 0.061717 0.433101 -0.000612
v 0.061717 0.433101 0.000612
v -0.163447 0.023154 -0.000612
v -0.163447 0.023154 0.000612
v -0.128490 0.000000 0.000612
v -0.128490 0.000000 -0.000612
v 0.017659 0.413356 -0.000612
v 0.017659 0.413356 0.000612
v -0.066151 0.411560 0.000612
v -0.066151 0.411560 -0.000612
v 0.128490 0.000000 0.000612
v 0.128490 0.000000 -0.000612
v -0.090476 0.410328 0.000612
v -0.090476 0.410328 -0.000612
v 0.092390 0.459483 -0.000612
v 0.092390 0.459483 0.000612
v -0.158052 0.376845 0.000612
v -0.158052 0.376845 -0.000612
v -0.176448 0.359414 -0.000612
v -0.176448 0.359414 0.000612
v 0.121112 0.378482 0.085000
v 0.132391 0.380246 0.085000
v 0.134605 0.365875 0.085000
v 0.121112 0.378482 -0.085000
v 0.132391 0.380246 -0.085000
v 0.134605 0.365875 -0.085000
v 0.061283 0.271404 0.085000
v 0.057976 0.230213 -0.085000
v 0.061283 0.271404 -0.085000
v 0.057976 0.230213 0.085000
v -0.139563 0.345268 0.085000
v -0.126700 0.346303 0.085000
v -0.126700 0.346303 -0.085000
v -0.139563 0.345268 -0.085000
v -0.017027 0.271404 0.085000
v -0.017027 0.271404 -0.085000
v -0.139095 0.334381 0.085000
v -0.069507 0.278821 0.085000
v -0.069507 0.278821 -0.085000
v -0.139095 0.334381 -0.085000
v -0.067403 0.163064 0.085000
v -0.067403 0.163064 -0.085000
v 0.056773 0.118364 0.085000
v 0.056773 0.118364 -0.085000
v 0.111269 0.065998 0.085000
v 0.108524 0.080471 0.085000
v 0.097617 0.063248 -0.085000
v 0.108524 0.080471 -0.085000
v 0.111269 0.065998 -0.085000
v 0.097617 0.063248 0.085000
v 0.007163 0.126382 0.085000
v -0.069207 0.125179 0.085000
v 0.007163 0.126382 -0.085000
v -0.069207 0.125179 -0.085000
v -0.121251 0.062979 0.085000
v -0.110878 0.051771 0.085000
v -0.121251 0.062979 -0.085000
v -0.110878 0.051771 -0.085000
v -0.119719 0.050764 -0.085000
v -0.119719 0.050764 0.085000
v 0.125290 0.452353 0.028937
v 0.125290 0.463843 0.028937
v 0.125290 0.471967 0.037061
v 0.125290 0.471967 0.048551
v 0.125290 0.463843 0.056675
v 0.125290 0.452353 0.056675
v 0.125290 0.444229 0.048551
v 0.125290 0.444229 0.037061
v -0.040846 0.452353 0.028937
v -0.040846 0.463843 0.028937
v -0.040846 0.471967 0.037061
v -0.040846 0.471967 0.048551
v -0.040846 0.463843 0.056675
v -0.040846 0.452353 0.056675
v -0.040846 0.444229 0.048551
v -0.040846 0.444229 0.037061
v -0.077699 0.402441 0.028218
v -0.089784 0.402441 0.028218
v -0.098329 0.402441 0.036764
v -0.098329 0.402441 0.048849
v -0.089784 0.402441 0.057394
v -0.077699 0.402441 0.057394
v -0.069154 0.402441 0.048849
v -0.069154 0.402441 0.036764
v -0.052420 0.440410 0.035647
v -0.055878 0.447076 0.025523
v -0.055878 0.447076 0.060089
v -0.052420 0.440410 0.049965
v -0.064226 0.463170 0.049965
v -0.060768 0.456504 0.060089
v -0.060768 0.456504 0.025523
v -0.064226 0.463170 0.035647
v 0.125290 0.452353 -0.028937
v 0.125290 0.463843 -0.028937
v 0.125290 0.471967 -0.037061
v 0.125290 0.471967 -0.048551
v 0.125290 0.463843 -0.056675
v 0.125290 0.452353 -0.056675
v 0.125290 0.444229 -0.048551
v 0.125290 0.444229 -0.037061
v -0.040846 0.452353 -0.028937
v -0.040846 0.463843 -0.028937
v -0.040846 0.471967 -0.037061
v -0.040846 0.471967 -0.048551
v -0.040846 0.463843 -0.056675
v -0.040846 0.452353 -0.056675
v -0.040846 0.444229 -0.048551
v -0.040846 0.444229 -0.037061
v -0.077699 0.402441 -0.028218
v -0.089784 0.402441 -0.028218
v -0.098329 0.402441 -0.036764
v -0.098329 0.402441 -0.048849
v -0.089784 0.402441 -0.057394
v -0.077699 0.402441 -0.057394
v -0.069154 0.402441 -0.048849
v -0.069154 0.402441 -0.036764
v -0.052420 0.440410 -0.035647
v -0.055878 0.447076 -0.025523
v -0.055878 0.447076 -0.060089
v -0.052420 0.440410 -0.049965
v -0.064226 0.463170 -0.049965
v -0.060768 0.456504 -0.060089
v -0.060768 0.456504 -0.025523
v -0.064226 0.463170 -0.035647
v -0.113471 0.391824 -0.013590
v -0.113471 0.391824 0.003925
v -0.124701 0.386599 -0.025976
v -0.140582 0.379210 -0.025976
v -0.151811 0.373986 -0.013590
v -0.151811 0.373986 0.003925
v -0.140582 0.379210 0.016311
v -0.124701 0.386599 0.016311
v -0.131576 0.430738 -0.013590
v -0.131576 0.430738 0.003925
v -0.142806 0.425513 -0.025976
v -0.158687 0.418124 -0.025976
v -0.169916 0.412900 -0.013590
v -0.169916 0.412900 0.003925
v -0.158687 0.418124 0.016311
v -0.142806 0.425513 0.016311
v -0.122979 0.434737 -0.017518
v -0.122979 0.434737 0.007853
v -0.139245 0.427170 -0.035457
v -0.162247 0.416468 -0.035457
v -0.178513 0.408900 -0.017518
v -0.178513 0.408900 0.007853
v -0.162247 0.416468 0.025792
v -0.139245 0.427170 0.025792
v -0.127750 0.444991 -0.017518
v -0.127750 0.444991 0.007853
v -0.144016 0.437424 -0.035457
v -0.167018 0.426722 -0.035457
v -0.183284 0.419154 -0.017518
v -0.183284 0.419154 0.007853
v -0.167018 0.426722 0.025792
v -0.144016 0.437424 0.025792
v 0.029636 0.144556 0.086565
v -0.034791 0.144556 0.086565
v -0.044066 0.153830 0.086565
v -0.044066 0.247752 0.086565
v -0.034791 0.144556 0.081346
v -0.044066 0.153830 0.081346
v 0.038910 0.153830 0.081346
v 0.029636 0.144556 0.081346
v -0.034791 0.257027 0.081346
v -0.044066 0.247752 0.081346
v 0.029636 0.257027 0.081346
v 0.038910 0.247752 0.081346
v 0.038910 0.153830 0.086565
v 0.038910 0.247752 0.086565
v 0.029636 0.257027 0.086565
v -0.034791 0.257027 0.086565
v 0.029636 0.144556 -0.086565
v -0.034791 0.144556 -0.086565
v -0.044066 0.153830 -0.086565
v -0.044066 0.247752 -0.086565
v -0.034791 0.144556 -0.081346
v -0.044066 0.153830 -0.081346
v 0.038910 0.153830 -0.081346
v 0.029636 0.144556 -0.081346
v -0.034791 0.257027 -0.081346
v -0.044066 0.247752 -0.081346
v 0.029636 0.257027 -0.081346
v 0.038910 0.247752 -0.081346
v 0.038910 0.153830 -0.086565
v 0.038910 0.247752 -0.086565
v 0.029636 0.257027 -0.086565
v -0.034791 0.257027 -0.086565
vn -0.0000 -0.0000 1.0000
vn -0.0000 -0.0000 -1.0000
vn 0.9573 -0.2892 -0.0000
vn -0.4472 0.8944 -0.0000
vn -0.9848 0.1736 -0.0000
vn 0.2653 0.9642 -0.0000
vn -0.4088 0.9126 -0.0000
vn 0.9999 -0.0120 -0.0000
vn 0.8149 0.5796 -0.0000
vn -0.6521 0.7581 -0.0000
vn -0.5522 -0.8337 -0.0000
vn -0.0214 0.9998 -0.0000
vn -0.4440 0.8960 -0.0000
vn 0.5522 -0.8337 -0.0000
vn -0.6878 0.7259 -0.0000
vn -0.9994 -0.0359 -0.0000
vn -0.9573 -0.2892 -0.0000
vn -0.0506 0.9987 -0.0000
vn -0.0000 -1.0000 -0.0000
vn 0.9968 0.0797 -0.0000
vn -0.4467 0.8947 -0.0000
vn -0.4090 0.9125 -0.0000
vn 0.8147 0.5799 -0.0000
vn -0.9999 0.0108 -0.0000
vn -0.8696 0.4937 -0.0000
vn -0.0157 0.9999 -0.0000
vn 0.8730 -0.4878 -0.0000
vn 0.9998 0.0182 -0.0000
vn 0.5723 0.8200 -0.0000
vn -0.8707 0.4918 -0.0000
vn 0.1545 -0.9880 -0.0000
vn 0.6239 0.7815 -0.0000
vn 0.8806 -0.4738 -0.0000
vn -0.1132 0.9936 -0.0000
vn -0.5908 -0.8068 -0.0000
vn 0.9922 0.1245 -0.0000
vn 0.9991 0.0430 -0.0000
vn -0.5640 -0.8258 -0.0000
vn -0.9825 -0.1864 -0.0000
vn 0.0802 -0.9968 -0.0000
vn -0.1975 0.9803 -0.0000
vn -0.9883 -0.1523 -0.0000
vn -0.9883 -0.1522 -0.0000
vn 0.2632 0.9647 -0.0000
vn -0.0000 1.0000 -0.0000
vn -0.0000 -0.7071 -0.7071
vn -0.0000 -0.7071 0.7071
vn -0.0000 0.7071 0.7071
vn -0.0000 0.7071 -0.7071
vn 0.7540 -0.4001 -0.5210
vn 0.6710 -0.3155 0.6710
vn -0.7656 0.3852 0.5152
vn -0.6601 0.3585 -0.6601
vn 0.9151 -0.4033 -0.0000
vn -0.0000 -0.0603 0.9982
vn -0.8719 0.4896 -0.0000
vn -0.0472 -0.0245 -0.9986
vn 0.1689 -0.0000 -0.9856
vn -0.3522 0.9359 -0.0000
vn 0.1878 0.0974 0.9774
vn 0.3133 -0.9496 -0.0000
vn -0.2179 0.6901 -0.6901
vn -0.1904 0.7888 0.5844
vn 0.3045 -0.6735 0.6735
vn 0.3831 -0.7060 -0.5957
vn 0.7540 -0.4001 0.5210
vn -0.7656 0.3852 -0.5152
vn -0.0472 -0.0245 0.9986
vn 0.1689 -0.0000 0.9856
vn -0.2179 0.6901 0.6901
vn 0.3045 -0.6735 -0.6735
vn -0.6411 -0.2983 -0.7071
vn 0.6411 0.2983 -0.7071
vn -0.9067 -0.4218 -0.0000
vn 0.9067 0.4218 -0.0000
vn 0.6411 0.2983 0.7071
vn -0.6411 -0.2983 0.7071
vn 0.4218 -0.9067 -0.0000
vn -0.4218 0.9067 -0.0000
vn 1.0000 -0.0000 -0.0000
vn -1.0000 -0.0000 -0.0000
vn -0.7071 0.7071 -0.0000
vn 0.7071 0.7071 -0.0000
vn 0.7071 -0.7071 -0.0000
vn -0.7071 -0.7071 -0.0000
vn 0.6710 -0.3155 -0.6710
vn -0.6601 0.3585 0.6601
vn -0.0000 -0.0603 -0.9982
vn 0.1878 0.0974 -0.9774
vn -0.1904 0.7888 -0.5844
vn 0.3831 -0.7060 0.5957
vt 0.244919 0.462315
vt 0.245823 0.461404
vt 0.245845 0.474109
vt 0.244919 0.462315
vt 0.243528 0.462178
vt 0.243561 0.466482
vt 0.200964 0.580110
vt 0.200832 0.574359
vt 0.201082 0.562920
vt 0.199886 0.562097
vt 0.200173 0.569305
vt 0.200014 0.555908
vt 0.201284 0.490682
vt 0.201255 0.485842
vt 0.201103 0.583611
vt 0.199810 0.558484
vt 0.199792 0.553270
vt 0.201215 0.582056
vt 0.200638 0.569960
vt 0.201302 0.569088
vt 0.201290 0.576672
vt 0.199865 0.485842
vt 0.200010 0.481001
vt 0.200275 0.569567
vt 0.201110 0.481001
vt 0.199836 0.490682
vt 0.245346 0.484414
vt 0.245375 0.485815
vt 0.245773 0.492457
vt 0.245826 0.493789
vt 0.245339 0.482402
vt 0.245367 0.457389
vt 0.245355 0.459272
vt 0.245654 0.488750
vt 0.245724 0.490337
vt 0.245483 0.488506
vt 0.245886 0.457389
vt 0.245831 0.455528
vt 0.245521 0.488605
vt 0.245422 0.455528
vt 0.245870 0.493180
vt 0.245900 0.491073
vt 0.245897 0.459274
vt 0.245904 0.488228
vt 0.242769 0.453840
vt 0.245905 0.478788
vt 0.246995 0.490952
vt 0.243523 0.479631
vt 0.246567 0.455144
vt 0.247241 0.489520
vt 0.247200 0.491152
vt 0.242255 0.485942
vt 0.242580 0.455113
vt 0.242608 0.453725
vt 0.246766 0.457100
vt 0.200082 0.491721
vt 0.200981 0.494222
vt 0.242769 0.453840
vt 0.242246 0.487179
vt 0.242481 0.487296
vt 0.244479 0.478788
vt 0.246816 0.455456
vt 0.200044 0.491502
vt 0.200082 0.491721
vt 0.201100 0.577248
vt 0.200384 0.577248
vt 0.201100 0.581523
vt 0.200384 0.579019
vt 0.201100 0.579019
vt 0.201100 0.583293
vt 0.200384 0.583293
vt 0.200384 0.581523
vt 0.200334 0.576416
vt 0.200225 0.568142
vt 0.200319 0.577869
vt 0.200262 0.568142
vt 0.200283 0.581376
vt 0.200173 0.568142
vt 0.200298 0.579923
vt 0.200136 0.568142
vt 0.573491 0.723720
vt 0.573125 0.738340
vt 0.574087 0.725451
vt 0.573969 0.740788
vt 0.575527 0.729629
vt 0.574931 0.727898
vt 0.574087 0.725451
vt 0.572529 0.736610
vt 0.574565 0.742518
vt 0.572936 0.737792
vt 0.574158 0.741337
vt 0.575022 0.743843
vt 0.574769 0.747240
vt 0.572683 0.741188
vt 0.571819 0.738682
vt 0.572072 0.735285
vt 0.573905 0.744733
vt 0.200688 0.536452
vt 0.200410 0.536452
vt 0.200370 0.534431
vt 0.244155 0.477155
vt 0.245329 0.477155
vt 0.245497 0.476102
vt 0.245497 0.465433
vt 0.245329 0.464380
vt 0.244155 0.464380
vt 0.243986 0.465433
vt 0.243986 0.476102
vt 0.200728 0.513963
vt 0.200688 0.511942
vt 0.200410 0.511942
vt 0.200487 0.539585
vt 0.199959 0.555682
vt 0.200824 0.539585
vt 0.201130 0.563305
vt 0.201140 0.560173
vt 0.199961 0.553309
vt 0.200261 0.541201
vt 0.200270 0.515975
vt 0.200038 0.494164
vt 0.201039 0.494822
vt 0.200805 0.506234
vt 0.200810 0.530609
vt 0.201028 0.497976
vt 0.200262 0.507719
vt 0.200591 0.507981
vt 0.200270 0.515975
vt 0.199961 0.553309
vt 0.200591 0.507981
vt 0.200370 0.513963
vt 0.200728 0.513963
vt 0.200728 0.534431
vt 0.200370 0.513963
s 0
usemtl Texture_Map
f 5/1/1 4/2/1 3/3/1
f 25/4/2 26/5/2 27/6/2
f 41/7/1 47/8/1 149/9/1
f 69/10/2 68/11/2 161/12/2
f 46/13/3 92/14/3 78/13/3
f 41/7/4 90/15/4 108/7/4
f 53/16/5 84/17/5 52/17/5
f 81/18/6 60/15/6 89/15/6
f 47/8/7 100/19/7 48/19/7
f 45/20/8 78/13/8 79/20/8
f 44/21/9 82/18/9 43/18/9
f 41/7/10 94/8/10 47/8/10
f 58/22/11 97/23/11 56/23/11
f 49/24/12 100/19/12 101/24/12
f 95/22/11 74/23/11 98/23/11
f 102/24/12 66/19/12 67/24/12
f 50/11/13 109/10/13 51/10/13
f 55/25/14 92/14/14 57/14/14
f 51/10/15 112/16/15 53/16/15
f 91/14/14 73/25/14 75/14/14
f 52/17/16 85/26/16 54/26/16
f 111/16/5 70/17/5 83/17/5
f 93/8/7 66/19/7 99/19/7
f 110/10/15 71/16/15 111/16/15
f 107/7/4 60/15/4 59/7/4
f 54/26/17 96/22/17 58/22/17
f 86/26/17 76/22/17 95/22/17
f 106/11/13 69/10/13 110/10/13
f 93/8/10 59/7/10 65/8/10
f 102/24/18 68/11/18 106/11/18
f 98/23/19 73/25/19 104/25/19
f 49/24/18 105/11/18 50/11/18
f 56/23/19 103/25/19 55/25/19
f 45/20/20 87/21/20 44/21/20
f 80/20/20 62/21/20 88/21/20
f 86/26/16 70/17/16 72/26/16
f 77/13/8 63/20/8 80/20/8
f 77/13/3 75/14/3 64/13/3
f 147/27/15 145/28/15 146/28/15
f 143/29/21 126/30/21 125/30/21
f 119/31/5 148/27/5 147/27/5
f 131/32/17 121/33/17 122/33/17
f 135/34/22 130/35/22 129/35/22
f 146/28/13 141/36/13 142/36/13
f 127/37/14 139/38/14 140/38/14
f 129/35/10 144/29/10 143/29/10
f 142/36/18 137/39/18 138/39/18
f 140/38/19 133/40/19 134/40/19
f 117/41/23 123/42/23 124/42/23
f 138/39/12 136/34/12 135/34/12
f 134/40/11 132/32/11 131/32/11
f 113/43/3 128/37/3 127/37/3
f 124/42/20 115/44/20 116/44/20
f 122/33/16 120/31/16 119/31/16
f 116/44/8 114/43/8 113/43/8
f 136/34/1 121/33/1 114/43/1
f 113/43/2 134/40/2 122/33/2
f 3/3/24 171/2/24 158/3/24
f 38/45/25 182/5/25 186/45/25
f 26/5/26 181/4/26 182/5/26
f 179/1/26 6/5/26 180/5/26
f 2/46/27 149/47/27 155/46/27
f 167/48/28 27/6/28 170/6/28
f 17/49/29 179/1/29 178/49/29
f 9/50/30 158/3/30 151/50/30
f 11/47/31 150/51/31 149/47/31
f 31/47/27 157/46/27 152/47/27
f 8/48/32 165/52/32 166/48/32
f 30/51/31 152/47/31 153/51/31
f 20/53/33 169/6/33 183/53/33
f 39/54/34 186/45/34 187/54/34
f 4/2/35 174/55/35 171/2/35
f 188/54/36 20/53/36 183/53/36
f 74/23/2 186/56/2 175/57/2
f 7/6/28 166/48/28 169/6/28
f 6/5/25 184/58/25 180/5/25
f 25/4/29 175/49/29 181/4/29
f 35/55/35 172/2/35 176/55/35
f 24/2/24 156/3/24 172/2/24
f 162/59/37 32/52/37 168/52/37
f 32/52/32 167/48/32 168/52/32
f 12/52/37 159/59/37 165/52/37
f 14/60/38 163/61/38 160/60/38
f 15/55/39 173/62/39 174/55/39
f 1/61/19 155/46/19 163/61/19
f 18/58/34 188/54/34 184/58/34
f 21/61/38 161/60/38 164/61/38
f 13/59/40 160/60/40 159/59/40
f 27/6/33 185/53/33 170/6/33
f 188/63/1 56/23/1 184/64/1
f 23/3/30 154/50/30 156/3/30
f 16/62/41 178/49/41 173/62/41
f 22/46/19 164/61/19 157/46/19
f 185/53/36 39/54/36 187/54/36
f 34/60/40 162/59/40 161/60/40
f 36/62/39 176/55/39 177/62/39
f 10/51/42 151/50/42 150/51/42
f 29/50/43 153/51/43 154/50/43
f 37/49/41 177/62/41 175/49/41
f 43/18/6 90/15/6 42/15/6
f 62/21/9 81/18/9 88/21/9
f 125/30/44 118/41/44 117/41/44
f 195/65/19 204/66/19 196/65/19
f 193/67/1 202/68/1 194/69/1
f 191/70/45 200/71/45 192/70/45
f 189/69/2 198/72/2 190/67/2
f 196/65/46 197/68/46 189/69/46
f 194/69/47 203/66/47 195/65/47
f 192/70/48 201/72/48 193/67/48
f 190/67/49 199/71/49 191/70/49
f 213/73/50 205/74/50 214/75/50
f 216/73/51 210/74/51 211/76/51
f 217/77/52 209/78/52 218/79/52
f 220/77/53 206/78/53 207/80/53
f 213/73/54 211/76/54 212/76/54
f 215/75/55 209/78/55 210/74/55
f 220/77/56 208/80/56 217/77/56
f 214/75/57 206/78/57 219/79/57
f 197/68/58 219/79/58 198/72/58
f 199/71/59 217/77/59 200/71/59
f 202/68/60 218/79/60 215/75/60
f 203/66/61 213/73/61 204/66/61
f 198/72/62 220/77/62 199/71/62
f 201/72/63 217/77/63 218/79/63
f 202/68/64 216/73/64 203/66/64
f 197/68/65 213/73/65 214/75/65
f 236/66/19 227/65/19 228/65/19
f 234/68/2 225/67/2 226/69/2
f 232/71/45 223/70/45 224/70/45
f 230/72/1 221/69/1 222/67/1
f 229/68/47 228/65/47 221/69/47
f 235/66/46 226/69/46 227/65/46
f 233/72/49 224/70/49 225/67/49
f 231/71/48 222/67/48 223/70/48
f 237/74/66 245/73/66 246/75/66
f 248/73/50 242/74/50 247/75/50
f 241/78/67 249/77/67 250/79/67
f 252/77/52 238/78/52 251/79/52
f 245/73/54 243/76/54 248/73/54
f 247/75/57 241/78/57 250/79/57
f 240/80/56 252/77/56 249/77/56
f 238/78/68 246/75/68 251/79/68
f 251/79/69 229/68/69 230/72/69
f 249/77/59 231/71/59 232/71/59
f 234/68/58 250/79/58 233/72/58
f 245/73/61 235/66/61 236/66/61
f 252/77/70 230/72/70 231/71/70
f 233/72/62 249/77/62 232/71/62
f 248/73/71 234/68/71 235/66/71
f 229/68/64 245/73/64 236/66/64
f 257/81/72 264/82/72 256/83/72
f 263/84/73 253/85/73 255/86/73
f 260/86/1 267/82/1 259/87/1
f 258/81/74 265/88/74 257/81/74
f 256/83/2 263/84/2 255/86/2
f 261/89/75 254/85/75 253/85/75
f 254/85/76 268/84/76 260/86/76
f 267/82/77 258/81/77 259/87/77
f 272/90/78 271/91/78 269/92/78
f 271/91/73 277/93/73 269/92/73
f 276/91/1 283/94/1 275/90/1
f 282/95/74 273/96/74 274/96/74
f 272/90/2 279/97/2 271/91/2
f 269/92/75 278/93/75 270/92/75
f 278/93/76 276/91/76 270/92/76
f 275/90/77 282/95/77 274/96/77
f 273/96/72 280/94/72 272/90/72
f 277/93/79 280/94/79 282/95/79
f 299/98/1 300/99/1 288/100/1
f 293/101/45 299/102/45 295/102/45
f 296/103/80 297/104/80 291/104/80
f 292/105/19 286/106/19 289/106/19
f 290/107/81 288/108/81 294/108/81
f 294/108/82 300/101/82 293/101/82
f 295/102/83 298/103/83 296/103/83
f 291/104/84 285/105/84 292/105/84
f 289/106/85 287/107/85 290/107/85
f 313/109/2 301/110/2 302/111/2
f 315/102/45 309/101/45 311/102/45
f 313/104/80 312/103/80 307/104/80
f 302/106/19 308/105/19 305/106/19
f 304/108/81 306/107/81 310/108/81
f 316/101/82 310/108/82 309/101/82
f 314/103/83 311/102/83 312/103/83
f 301/105/84 307/104/84 308/105/84
f 303/107/85 305/106/85 306/107/85
f 1/61/1 14/60/1 8/48/1
f 14/60/1 13/59/1 12/52/1
f 8/48/1 14/60/1 12/52/1
f 7/6/1 20/53/1 6/5/1
f 20/53/1 19/54/1 18/58/1
f 20/53/1 18/58/1 6/5/1
f 1/61/1 8/48/1 7/6/1
f 10/51/1 11/47/1 9/50/1
f 11/47/1 2/46/1 9/50/1
f 2/46/1 1/61/1 3/3/1
f 1/61/1 7/6/1 3/3/1
f 5/1/1 17/49/1 4/2/1
f 17/49/1 16/62/1 15/55/1
f 7/6/1 6/5/1 5/1/1
f 7/6/1 5/1/1 3/3/1
f 17/49/1 15/55/1 4/2/1
f 3/3/1 9/50/1 2/46/1
f 22/46/2 31/47/2 29/50/2
f 31/47/2 30/51/2 29/50/2
f 29/50/2 23/3/2 22/46/2
f 24/2/2 35/55/2 37/49/2
f 35/55/2 36/62/2 37/49/2
f 21/61/2 22/46/2 23/3/2
f 24/2/2 37/49/2 25/4/2
f 21/61/2 23/3/2 27/6/2
f 23/3/2 24/2/2 25/4/2
f 33/59/2 34/60/2 32/52/2
f 34/60/2 21/61/2 28/48/2
f 28/48/2 32/52/2 34/60/2
f 39/54/2 40/53/2 38/45/2
f 40/53/2 27/6/2 26/5/2
f 38/45/2 40/53/2 26/5/2
f 27/6/2 28/48/2 21/61/2
f 23/3/2 25/4/2 27/6/2
f 48/19/1 49/24/1 163/112/1
f 49/24/1 50/11/1 160/12/1
f 50/11/1 51/10/1 160/12/1
f 51/10/1 53/16/1 159/113/1
f 160/12/1 51/10/1 159/113/1
f 160/12/1 163/112/1 49/24/1
f 163/112/1 155/114/1 48/19/1
f 48/19/1 155/114/1 149/9/1
f 149/9/1 150/115/1 41/7/1
f 48/19/1 149/9/1 47/8/1
f 150/115/1 151/116/1 45/20/1
f 45/20/1 44/21/1 150/115/1
f 44/21/1 43/18/1 42/15/1
f 150/115/1 44/21/1 41/7/1
f 42/15/1 41/7/1 44/21/1
f 65/8/2 59/7/2 152/9/2
f 59/7/2 60/15/2 62/21/2
f 60/15/2 61/18/2 62/21/2
f 62/21/2 63/20/2 153/115/2
f 63/20/2 154/116/2 153/115/2
f 59/7/2 62/21/2 153/115/2
f 152/9/2 59/7/2 153/115/2
f 68/11/2 67/24/2 161/12/2
f 67/24/2 66/19/2 164/112/2
f 161/12/2 67/24/2 164/112/2
f 66/19/2 65/8/2 152/9/2
f 152/9/2 157/114/2 66/19/2
f 157/114/2 164/112/2 66/19/2
f 161/12/2 162/113/2 69/10/2
f 162/113/2 71/16/2 69/10/2
f 46/13/3 57/14/3 92/14/3
f 41/7/4 42/15/4 90/15/4
f 53/16/5 112/16/5 84/17/5
f 81/18/6 61/18/6 60/15/6
f 47/8/7 94/8/7 100/19/7
f 45/20/8 46/13/8 78/13/8
f 44/21/9 87/21/9 82/18/9
f 41/7/10 108/7/10 94/8/10
f 58/22/11 96/22/11 97/23/11
f 49/24/12 48/19/12 100/19/12
f 95/22/11 76/22/11 74/23/11
f 102/24/12 99/19/12 66/19/12
f 50/11/13 105/11/13 109/10/13
f 55/25/14 103/25/14 92/14/14
f 51/10/15 109/10/15 112/16/15
f 91/14/14 104/25/14 73/25/14
f 52/17/16 84/17/16 85/26/16
f 111/16/5 71/16/5 70/17/5
f 93/8/7 65/8/7 66/19/7
f 110/10/15 69/10/15 71/16/15
f 107/7/4 89/15/4 60/15/4
f 54/26/17 85/26/17 96/22/17
f 86/26/17 72/26/17 76/22/17
f 106/11/13 68/11/13 69/10/13
f 93/8/10 107/7/10 59/7/10
f 102/24/18 67/24/18 68/11/18
f 98/23/19 74/23/19 73/25/19
f 49/24/18 101/24/18 105/11/18
f 56/23/19 97/23/19 103/25/19
f 45/20/20 79/20/20 87/21/20
f 80/20/20 63/20/20 62/21/20
f 86/26/16 83/17/16 70/17/16
f 77/13/8 64/13/8 63/20/8
f 77/13/3 91/14/3 75/14/3
f 147/27/15 148/27/15 145/28/15
f 143/29/21 144/29/21 126/30/21
f 119/31/5 120/31/5 148/27/5
f 131/32/17 132/32/17 121/33/17
f 135/34/22 136/34/22 130/35/22
f 146/28/13 145/28/13 141/36/13
f 127/37/14 128/37/14 139/38/14
f 129/35/10 130/35/10 144/29/10
f 142/36/18 141/36/18 137/39/18
f 140/38/19 139/38/19 133/40/19
f 117/41/23 118/41/23 123/42/23
f 138/39/12 137/39/12 136/34/12
f 134/40/11 133/40/11 132/32/11
f 113/43/3 114/43/3 128/37/3
f 124/42/20 123/42/20 115/44/20
f 122/33/16 121/33/16 120/31/16
f 116/44/8 115/44/8 114/43/8
f 145/28/1 148/27/1 120/31/1
f 120/31/1 121/33/1 136/34/1
f 121/33/1 132/32/1 133/40/1
f 139/38/1 121/33/1 133/40/1
f 139/38/1 128/37/1 114/43/1
f 114/43/1 115/44/1 136/34/1
f 115/44/1 123/42/1 144/29/1
f 136/34/1 115/44/1 130/35/1
f 123/42/1 118/41/1 126/30/1
f 126/30/1 144/29/1 123/42/1
f 144/29/1 130/35/1 115/44/1
f 136/34/1 137/39/1 120/31/1
f 137/39/1 141/36/1 120/31/1
f 141/36/1 145/28/1 120/31/1
f 139/38/1 114/43/1 121/33/1
f 147/27/2 146/28/2 119/31/2
f 146/28/2 142/36/2 119/31/2
f 142/36/2 138/39/2 119/31/2
f 138/39/2 135/34/2 119/31/2
f 129/35/2 143/29/2 116/44/2
f 143/29/2 125/30/2 124/42/2
f 124/42/2 125/30/2 117/41/2
f 116/44/2 143/29/2 124/42/2
f 135/34/2 129/35/2 116/44/2
f 116/44/2 113/43/2 135/34/2
f 113/43/2 127/37/2 140/38/2
f 135/34/2 113/43/2 122/33/2
f 140/38/2 134/40/2 113/43/2
f 134/40/2 131/32/2 122/33/2
f 122/33/2 119/31/2 135/34/2
f 3/3/24 4/2/24 171/2/24
f 38/45/25 26/5/25 182/5/25
f 26/5/26 25/4/26 181/4/26
f 179/1/26 5/1/26 6/5/26
f 2/46/27 11/47/27 149/47/27
f 167/48/28 28/48/28 27/6/28
f 17/49/29 5/1/29 179/1/29
f 9/50/30 3/3/30 158/3/30
f 11/47/31 10/51/31 150/51/31
f 31/47/27 22/46/27 157/46/27
f 8/48/32 12/52/32 165/52/32
f 30/51/31 31/47/31 152/47/31
f 20/53/33 7/6/33 169/6/33
f 39/54/34 38/45/34 186/45/34
f 4/2/35 15/55/35 174/55/35
f 188/54/36 19/54/36 20/53/36
f 70/17/2 71/16/2 162/113/2
f 168/117/2 167/118/2 70/17/2
f 167/118/2 170/119/2 70/17/2
f 70/17/2 162/113/2 168/117/2
f 76/22/2 72/26/2 187/63/2
f 72/26/2 70/17/2 170/119/2
f 185/120/2 72/26/2 170/119/2
f 73/25/2 74/23/2 175/57/2
f 74/23/2 76/22/2 187/63/2
f 186/56/2 74/23/2 187/63/2
f 64/13/2 75/14/2 177/121/2
f 75/14/2 73/25/2 177/121/2
f 154/116/2 63/20/2 64/13/2
f 172/122/2 156/123/2 176/124/2
f 156/123/2 154/116/2 64/13/2
f 176/124/2 156/123/2 64/13/2
f 176/124/2 64/13/2 177/121/2
f 72/26/2 185/120/2 187/63/2
f 186/56/2 182/125/2 181/126/2
f 175/57/2 177/121/2 73/25/2
f 186/56/2 181/126/2 175/57/2
f 7/6/28 8/48/28 166/48/28
f 6/5/25 18/58/25 184/58/25
f 25/4/29 37/49/29 175/49/29
f 35/55/35 24/2/35 172/2/35
f 24/2/24 23/3/24 156/3/24
f 162/59/37 33/59/37 32/52/37
f 32/52/32 28/48/32 167/48/32
f 12/52/37 13/59/37 159/59/37
f 14/60/38 1/61/38 163/61/38
f 15/55/39 16/62/39 173/62/39
f 1/61/19 2/46/19 155/46/19
f 18/58/34 19/54/34 188/54/34
f 21/61/38 34/60/38 161/60/38
f 13/59/40 14/60/40 160/60/40
f 27/6/33 40/53/33 185/53/33
f 46/13/1 45/20/1 151/116/1
f 151/116/1 158/123/1 46/13/1
f 158/123/1 171/122/1 174/124/1
f 158/123/1 174/124/1 46/13/1
f 57/14/1 46/13/1 173/121/1
f 56/23/1 55/25/1 178/57/1
f 55/25/1 57/14/1 173/121/1
f 178/57/1 55/25/1 173/121/1
f 54/26/1 58/22/1 188/63/1
f 58/22/1 56/23/1 188/63/1
f 53/16/1 52/17/1 159/113/1
f 52/17/1 54/26/1 169/127/1
f 165/128/1 52/17/1 166/118/1
f 165/128/1 159/113/1 52/17/1
f 169/127/1 166/118/1 52/17/1
f 183/120/1 169/127/1 54/26/1
f 46/13/1 174/124/1 173/121/1
f 188/63/1 183/120/1 54/26/1
f 178/57/1 179/129/1 184/64/1
f 179/129/1 180/125/1 184/64/1
f 56/23/1 178/57/1 184/64/1
f 23/3/30 29/50/30 154/50/30
f 16/62/41 17/49/41 178/49/41
f 22/46/19 21/61/19 164/61/19
f 185/53/36 40/53/36 39/54/36
f 34/60/40 33/59/40 162/59/40
f 36/62/39 35/55/39 176/55/39
f 10/51/43 9/50/43 151/50/43
f 29/50/42 30/51/42 153/51/42
f 37/49/41 36/62/41 177/62/41
f 43/18/6 82/18/6 90/15/6
f 62/21/9 61/18/9 81/18/9
f 125/30/44 126/30/44 118/41/44
f 195/65/19 203/66/19 204/66/19
f 193/67/1 201/72/1 202/68/1
f 191/70/45 199/71/45 200/71/45
f 189/69/2 197/68/2 198/72/2
f 196/65/46 204/66/46 197/68/46
f 194/69/47 202/68/47 203/66/47
f 192/70/48 200/71/48 201/72/48
f 190/67/49 198/72/49 199/71/49
f 213/73/86 212/76/86 205/74/86
f 216/73/66 215/75/66 210/74/66
f 217/77/87 208/80/87 209/78/87
f 220/77/67 219/79/67 206/78/67
f 213/73/54 216/73/54 211/76/54
f 215/75/68 218/79/68 209/78/68
f 220/77/56 207/80/56 208/80/56
f 214/75/88 205/74/88 206/78/88
f 197/68/89 214/75/89 219/79/89
f 199/71/59 220/77/59 217/77/59
f 202/68/69 201/72/69 218/79/69
f 203/66/61 216/73/61 213/73/61
f 198/72/90 219/79/90 220/77/90
f 201/72/70 200/71/70 217/77/70
f 202/68/91 215/75/91 216/73/91
f 197/68/71 204/66/71 213/73/71
f 236/66/19 235/66/19 227/65/19
f 234/68/2 233/72/2 225/67/2
f 232/71/45 231/71/45 223/70/45
f 230/72/1 229/68/1 221/69/1
f 229/68/47 236/66/47 228/65/47
f 235/66/46 234/68/46 226/69/46
f 233/72/49 232/71/49 224/70/49
f 231/71/48 230/72/48 222/67/48
f 237/74/51 244/76/51 245/73/51
f 248/73/86 243/76/86 242/74/86
f 241/78/53 240/80/53 249/77/53
f 252/77/87 239/80/87 238/78/87
f 245/73/54 244/76/54 243/76/54
f 247/75/88 242/74/88 241/78/88
f 240/80/56 239/80/56 252/77/56
f 238/78/55 237/74/55 246/75/55
f 251/79/60 246/75/60 229/68/60
f 249/77/59 252/77/59 231/71/59
f 234/68/89 247/75/89 250/79/89
f 245/73/61 248/73/61 235/66/61
f 252/77/63 251/79/63 230/72/63
f 233/72/90 250/79/90 249/77/90
f 248/73/65 247/75/65 234/68/65
f 229/68/91 246/75/91 245/73/91
f 257/81/72 265/88/72 264/82/72
f 263/84/73 261/89/73 253/85/73
f 260/86/1 268/84/1 267/82/1
f 258/81/74 266/88/74 265/88/74
f 256/83/2 264/82/2 263/84/2
f 261/89/75 262/89/75 254/85/75
f 254/85/76 262/89/76 268/84/76
f 267/82/77 266/88/77 258/81/77
f 269/92/78 270/92/78 274/96/78
f 270/92/78 276/91/78 274/96/78
f 276/91/78 275/90/78 274/96/78
f 274/96/78 273/96/78 269/92/78
f 273/96/78 272/90/78 269/92/78
f 271/91/73 279/97/73 277/93/73
f 276/91/1 284/97/1 283/94/1
f 282/95/74 281/95/74 273/96/74
f 272/90/2 280/94/2 279/97/2
f 269/92/75 277/93/75 278/93/75
f 278/93/76 284/97/76 276/91/76
f 275/90/77 283/94/77 282/95/77
f 273/96/72 281/95/72 280/94/72
f 284/97/79 278/93/79 277/93/79
f 277/93/79 279/97/79 280/94/79
f 280/94/79 281/95/79 282/95/79
f 282/95/79 283/94/79 284/97/79
f 284/97/79 277/93/79 282/95/79
f 288/100/1 287/130/1 297/131/1
f 287/130/1 286/111/1 297/131/1
f 286/111/1 285/110/1 297/131/1
f 297/131/1 298/132/1 288/100/1
f 298/132/1 299/98/1 288/100/1
f 293/101/45 300/101/45 299/102/45
f 296/103/80 298/103/80 297/104/80
f 292/105/19 285/105/19 286/106/19
f 290/107/81 287/107/81 288/108/81
f 294/108/82 288/108/82 300/101/82
f 295/102/83 299/102/83 298/103/83
f 291/104/84 297/104/84 285/105/84
f 289/106/85 286/106/85 287/107/85
f 302/111/2 303/133/2 313/109/2
f 303/133/2 304/100/2 313/109/2
f 304/100/2 316/99/2 315/98/2
f 315/98/2 314/132/2 304/100/2
f 314/132/2 313/109/2 304/100/2
f 315/102/45 316/101/45 309/101/45
f 313/104/80 314/103/80 312/103/80
f 302/106/19 301/105/19 308/105/19
f 304/108/81 303/107/81 306/107/81
f 316/101/82 304/108/82 310/108/82
f 314/103/83 315/102/83 311/102/83
f 301/105/84 313/104/84 307/104/84
f 303/107/85 302/106/85 305/106/85
