# Blender 4.4.0
# www.blender.org
mtllib Prop_Barrel_01.mtl
o Prop_Barrel_01
v -0.284117 0.882738 -0.171168
v -0.331637 0.882738 -0.006177
v -0.290294 0.882738 0.160469
v 0.284117 0.882738 0.171168
v 0.331637 0.882738 0.006177
v 0.290294 0.882738 -0.160469
v 0.290132 0.012589 -0.159346
v 0.330935 0.012589 0.007068
v 0.283064 0.012588 0.171589
v -0.290132 0.012589 0.159346
v -0.330935 0.012589 -0.007068
v -0.283064 0.012589 -0.171589
v 0.004290 0.882738 -0.331169
v 0.008044 0.882738 -0.331099
v -0.162381 0.882738 -0.288452
v -0.158583 0.882738 -0.290762
v -0.169300 0.882738 0.284655
v -0.173010 0.882738 0.282206
v -0.004290 0.882738 0.331169
v -0.008044 0.882738 0.331099
v 0.162381 0.882738 0.288452
v 0.158583 0.882738 0.290762
v 0.169300 0.882738 -0.284655
v 0.173010 0.882738 -0.282206
v 0.008934 0.012589 -0.330392
v 0.005181 0.012589 -0.330472
v 0.173426 0.012589 -0.281147
v 0.169723 0.012589 -0.283607
v 0.157459 0.012588 0.290595
v 0.161263 0.012588 0.288296
v -0.008934 0.012588 0.330392
v -0.005181 0.012588 0.330472
v -0.173426 0.012588 0.281147
v -0.169723 0.012588 0.283607
v -0.157459 0.012589 -0.290595
v -0.161263 0.012589 -0.288296
v -0.160482 0.867310 -0.289607
v -0.171155 0.867310 0.283430
v 0.006167 0.867310 -0.331134
v -0.006167 0.867310 0.331134
v 0.171155 0.867310 -0.283430
v 0.160482 0.867310 0.289607
v -0.171574 0.028016 0.282377
v -0.159361 0.028016 -0.289445
v -0.007058 0.028016 0.330432
v 0.007058 0.028016 -0.330432
v 0.171574 0.028016 -0.282377
v 0.159361 0.028016 0.289445
v 0.004588 0.000000 -0.344421
v -0.004588 0.000000 -0.344421
v -0.168237 0.000000 -0.300571
v -0.176184 0.000000 -0.295984
v -0.295984 0.000000 -0.176184
v -0.300571 0.000000 -0.168237
v -0.344421 0.000000 -0.004588
v -0.344421 0.000000 0.004588
v -0.300571 0.000000 0.168237
v -0.295984 0.000000 0.176184
v -0.176184 0.000000 0.295984
v -0.168237 0.000000 0.300571
v -0.004588 0.000000 0.344421
v 0.004588 0.000000 0.344421
v 0.168237 0.000000 0.300571
v 0.176184 0.000000 0.295984
v 0.295984 0.000000 0.176184
v 0.300571 0.000000 0.168237
v 0.344421 0.000000 0.004588
v 0.344421 0.000000 -0.004588
v 0.300571 0.000000 -0.168237
v 0.295984 0.000000 -0.176184
v 0.176184 0.000000 -0.295984
v 0.168237 0.000000 -0.300571
v -0.004588 0.900000 -0.344421
v 0.004588 0.900000 -0.344421
v -0.176184 0.900000 -0.295984
v -0.168237 0.900000 -0.300571
v -0.300571 0.900000 -0.168237
v -0.295984 0.900000 -0.176184
v -0.344421 0.900000 0.004588
v -0.344421 0.900000 -0.004588
v -0.295984 0.900000 0.176184
v -0.300571 0.900000 0.168237
v -0.168237 0.900000 0.300571
v -0.176184 0.900000 0.295984
v 0.004588 0.900000 0.344421
v -0.004588 0.900000 0.344421
v 0.176184 0.900000 0.295984
v 0.168237 0.900000 0.300571
v 0.300571 0.900000 0.168237
v 0.295984 0.900000 0.176184
v 0.344421 0.900000 -0.004588
v 0.344421 0.900000 0.004588
v 0.295984 0.900000 -0.176184
v 0.300571 0.900000 -0.168237
v 0.168237 0.900000 -0.300571
v 0.176184 0.900000 -0.295984
v -0.004586 0.077403 0.368025
v 0.004586 0.077403 0.368025
v 0.004586 0.822598 0.368025
v -0.004586 0.822598 0.368025
v -0.004585 0.450000 0.415090
v 0.004585 0.450000 0.415090
v 0.187984 0.822598 0.316426
v 0.180041 0.822598 0.321012
v 0.180041 0.077403 0.321012
v 0.187984 0.077403 0.316426
v 0.203574 0.450000 0.361771
v 0.211516 0.450000 0.357186
v -0.368025 0.077403 -0.004586
v -0.368025 0.077403 0.004586
v -0.368025 0.822598 0.004586
v -0.368025 0.822598 -0.004586
v -0.415090 0.450000 -0.004585
v -0.415090 0.450000 0.004585
v -0.316426 0.822598 0.187984
v -0.321012 0.822598 0.180041
v -0.321012 0.077403 0.180041
v -0.316426 0.077403 0.187984
v -0.361771 0.450000 0.203574
v -0.357186 0.450000 0.211516
v 0.321012 0.077403 -0.180041
v 0.316426 0.077403 -0.187984
v 0.316426 0.822598 -0.187984
v 0.321012 0.822598 -0.180041
v 0.361771 0.450000 -0.203574
v 0.357186 0.450000 -0.211516
v 0.180041 0.822598 -0.321012
v 0.187984 0.822598 -0.316426
v 0.187984 0.077403 -0.316426
v 0.180041 0.077403 -0.321012
v 0.211516 0.450000 -0.357186
v 0.203574 0.450000 -0.361771
v 0.004586 0.077403 -0.368025
v -0.004586 0.077403 -0.368025
v -0.004586 0.822598 -0.368025
v 0.004586 0.822598 -0.368025
v 0.004585 0.450000 -0.415090
v -0.004585 0.450000 -0.415090
v -0.187984 0.822598 -0.316426
v -0.180041 0.822598 -0.321012
v -0.180041 0.077403 -0.321012
v -0.187984 0.077403 -0.316426
v -0.203574 0.450000 -0.361771
v -0.211516 0.450000 -0.357186
v 0.321012 0.822598 0.180041
v 0.316426 0.822598 0.187984
v 0.316426 0.077403 0.187984
v 0.321012 0.077403 0.180041
v 0.357186 0.450000 0.211516
v 0.361771 0.450000 0.203574
v -0.180041 0.822598 0.321012
v -0.187984 0.822598 0.316426
v -0.187984 0.077403 0.316426
v -0.180041 0.077403 0.321012
v -0.211516 0.450000 0.357186
v -0.203574 0.450000 0.361771
v -0.321012 0.822598 -0.180041
v -0.316426 0.822598 -0.187984
v -0.316426 0.077403 -0.187984
v -0.321012 0.077403 -0.180041
v -0.357186 0.450000 -0.211516
v -0.361771 0.450000 -0.203574
v 0.368025 0.822598 -0.004586
v 0.368025 0.822598 0.004586
v 0.368025 0.077403 0.004586
v 0.368025 0.077403 -0.004586
v 0.415090 0.450000 0.004585
v 0.415090 0.450000 -0.004585
v -0.163913 0.005134 -0.283906
v -0.000000 0.005134 -0.327826
v -0.283906 0.005134 -0.163913
v -0.327826 0.005134 -0.000000
v -0.283906 0.005134 0.163913
v -0.163913 0.005134 0.283906
v -0.000000 0.005134 0.327826
v 0.163913 0.005134 0.283906
v 0.283906 0.005134 0.163913
v 0.327826 0.005134 -0.000000
v 0.283906 0.005134 -0.163913
v 0.163913 0.005134 -0.283906
v -0.163913 0.894866 -0.283906
v -0.000000 0.894866 -0.327826
v -0.283906 0.894866 -0.163913
v -0.327826 0.894866 -0.000000
v -0.283906 0.894866 0.163913
v -0.163913 0.894866 0.283906
v -0.000000 0.894866 0.327826
v 0.163913 0.894866 0.283906
v 0.283906 0.894866 0.163913
v 0.327826 0.894866 -0.000000
v 0.283906 0.894866 -0.163913
v 0.163913 0.894866 -0.283906
v 0.345620 0.450000 -0.199544
v 0.304384 0.818944 -0.175736
v 0.351472 0.818944 -0.000000
v 0.399087 0.450000 -0.000000
v 0.304384 0.081056 -0.175736
v 0.351472 0.081056 -0.000000
v -0.399087 0.450000 -0.000000
v -0.351472 0.818944 -0.000000
v -0.304384 0.818944 -0.175736
v -0.345620 0.450000 -0.199544
v -0.351472 0.081056 -0.000000
v -0.304384 0.081056 -0.175736
v -0.000000 0.450000 0.399087
v -0.000000 0.818944 0.351472
v -0.175736 0.818944 0.304384
v -0.199544 0.450000 0.345620
v -0.000000 0.081056 0.351472
v -0.175736 0.081056 0.304384
v 0.304384 0.818944 0.175736
v 0.345620 0.450000 0.199544
v 0.304384 0.081056 0.175736
v -0.175736 0.818944 -0.304384
v -0.199544 0.450000 -0.345620
v -0.175736 0.081056 -0.304384
v -0.000000 0.450000 -0.399087
v -0.000000 0.818944 -0.351472
v 0.175736 0.818944 -0.304384
v 0.199544 0.450000 -0.345620
v -0.000000 0.081056 -0.351472
v 0.175736 0.081056 -0.304384
v -0.304384 0.818944 0.175736
v -0.345620 0.450000 0.199544
v -0.304384 0.081056 0.175736
v 0.175736 0.818944 0.304384
v 0.199544 0.450000 0.345620
v 0.175736 0.081056 0.304384
v 0.329359 0.810129 -0.190155
v 0.323959 0.838633 -0.187038
v 0.374075 0.838633 -0.000000
v 0.380311 0.810129 -0.000000
v 0.380311 0.089871 -0.000000
v 0.374075 0.061367 -0.000000
v 0.323959 0.061367 -0.187038
v 0.329359 0.089871 -0.190155
v -0.380311 0.810129 -0.000000
v -0.374075 0.838633 -0.000000
v -0.323959 0.838633 -0.187038
v -0.329359 0.810129 -0.190155
v -0.329359 0.089871 -0.190155
v -0.323959 0.061367 -0.187038
v -0.374075 0.061367 -0.000000
v -0.380311 0.089871 -0.000000
v -0.000000 0.810129 0.380311
v -0.000000 0.838633 0.374075
v -0.187038 0.838633 0.323959
v -0.190155 0.810129 0.329359
v -0.190155 0.089871 0.329359
v -0.187038 0.061367 0.323959
v -0.000000 0.061367 0.374075
v -0.000000 0.089871 0.380311
v 0.323959 0.838633 0.187038
v 0.329359 0.810129 0.190155
v 0.329359 0.089871 0.190155
v 0.323959 0.061367 0.187038
v -0.187038 0.838633 -0.323959
v -0.190155 0.810129 -0.329359
v -0.190155 0.089871 -0.329359
v -0.187038 0.061367 -0.323959
v -0.000000 0.810129 -0.380311
v -0.000000 0.838633 -0.374075
v 0.187038 0.838633 -0.323959
v 0.190155 0.810129 -0.329359
v 0.190155 0.089871 -0.329359
v 0.187038 0.061367 -0.323959
v -0.000000 0.061367 -0.374075
v -0.000000 0.089871 -0.380311
v -0.323959 0.838633 0.187038
v -0.329359 0.810129 0.190155
v -0.329359 0.089871 0.190155
v -0.323959 0.061367 0.187038
v 0.187038 0.838633 0.323959
v 0.190155 0.810129 0.329359
v 0.190155 0.089871 0.329359
v 0.187038 0.061367 0.323959
v -0.000000 0.765552 0.386112
v -0.000000 0.736540 0.389857
v 0.194929 0.736540 0.337626
v 0.193056 0.765552 0.334382
v -0.386112 0.765552 -0.000000
v -0.389857 0.736540 -0.000000
v -0.337626 0.736540 0.194929
v -0.334382 0.765552 0.193056
v 0.334382 0.765552 -0.193056
v 0.337626 0.736540 -0.194929
v 0.194929 0.736540 -0.337626
v 0.193056 0.765552 -0.334382
v -0.000000 0.765552 -0.386112
v -0.000000 0.736540 -0.389857
v -0.194929 0.736540 -0.337626
v -0.193056 0.765552 -0.334382
v 0.337626 0.736540 0.194929
v 0.334382 0.765552 0.193056
v -0.194929 0.736540 0.337626
v -0.193056 0.765552 0.334382
v -0.337626 0.736540 -0.194929
v -0.334382 0.765552 -0.193056
v 0.389857 0.736540 -0.000000
v 0.386112 0.765552 -0.000000
v -0.000000 0.163136 0.389815
v -0.000000 0.134124 0.386070
v 0.193035 0.134124 0.334346
v 0.194908 0.163136 0.337590
v -0.389815 0.163136 -0.000000
v -0.386070 0.134124 -0.000000
v -0.334346 0.134124 0.193035
v -0.337590 0.163136 0.194908
v 0.337590 0.163136 -0.194908
v 0.334346 0.134124 -0.193035
v 0.193035 0.134124 -0.334346
v 0.194908 0.163136 -0.337590
v -0.000000 0.163136 -0.389815
v -0.000000 0.134124 -0.386070
v -0.193035 0.134124 -0.334346
v -0.194908 0.163136 -0.337590
v 0.334346 0.134124 0.193035
v 0.337590 0.163136 0.194908
v -0.193035 0.134124 0.334346
v -0.194908 0.163136 0.337590
v -0.334346 0.134124 -0.193035
v -0.337590 0.163136 -0.194908
v 0.386070 0.134124 -0.000000
v 0.389815 0.163136 -0.000000
vn -0.0000 1.0000 -0.0000
vn -0.0000 -1.0000 -0.0000
vn 0.9925 0.1208 0.0185
vn -0.9925 -0.1208 -0.0212
vn -0.9925 0.1208 -0.0185
vn 0.9925 -0.1208 0.0212
vn -0.2760 -0.9583 -0.0740
vn 0.0740 -0.9583 -0.2760
vn 0.2021 -0.9583 0.2021
vn -0.0740 -0.9583 0.2760
vn 0.2760 0.9583 -0.0740
vn -0.2021 0.9583 0.2021
vn -0.0740 0.9583 0.2760
vn -0.2760 -0.9583 0.0740
vn -0.2021 -0.9583 -0.2021
vn 0.2021 -0.9583 -0.2021
vn 0.0740 0.9583 0.2760
vn 0.2569 -0.1211 0.9588
vn 0.2021 0.9583 -0.2021
vn -0.2021 0.9583 -0.2021
vn -0.2760 0.9583 0.0740
vn 0.2760 0.9583 0.0740
vn -0.2483 0.2826 -0.9266
vn 0.0740 0.9583 -0.2760
vn -0.2760 0.9583 -0.0740
vn 0.2760 -0.9583 0.0740
vn -0.2021 -0.9583 0.2021
vn 0.2760 -0.9583 -0.0740
vn -0.0740 -0.9583 -0.2760
vn 0.2569 0.1211 -0.9588
vn 0.7019 0.1211 -0.7019
vn -0.7019 0.1211 0.7019
vn -0.9588 0.1211 0.2569
vn 0.7019 0.1211 0.7019
vn 0.2569 0.1211 0.9588
vn 0.9588 -0.1211 0.2569
vn 0.2478 0.2881 0.9250
vn -0.7019 -0.1211 -0.7019
vn 0.9588 0.1211 0.2569
vn 0.2569 -0.1211 -0.9588
vn -0.2569 -0.1211 -0.9588
vn -0.7019 -0.1211 0.7019
vn 0.7019 -0.1211 -0.7019
vn 0.7019 -0.1211 0.7019
vn -0.9588 -0.1211 0.2569
vn -0.7019 0.1211 -0.7019
vn -0.2569 0.1211 -0.9588
vn 0.9588 0.1211 -0.2569
vn 0.9588 -0.1211 -0.2569
vn -0.9588 0.1211 -0.2569
vn -0.9588 -0.1211 -0.2569
vn -0.2569 0.1211 0.9588
vn -0.2569 -0.1211 0.9588
vn -0.0740 0.9583 -0.2760
vn -0.9250 0.2881 -0.2478
vn 0.2478 0.2881 -0.9250
vn 0.9250 0.2881 0.2478
vn 0.6771 0.2881 0.6771
vn 0.9250 -0.2881 -0.2478
vn -0.6771 -0.2881 0.6771
vn 0.6771 -0.2881 0.6771
vn -0.9250 0.2881 0.2478
vn -0.6771 0.2881 -0.6771
vn 0.6771 0.2881 -0.6771
vn 0.2478 -0.2881 0.9250
vn 0.6771 -0.2881 -0.6771
vn -0.6771 -0.2881 -0.6771
vn -0.9250 -0.2881 0.2478
vn -0.2478 -0.2881 0.9250
vn 0.9250 -0.2881 0.2478
vn 0.2478 -0.2881 -0.9250
vn -0.9250 -0.2881 -0.2478
vn -0.2478 0.2881 0.9250
vn -0.6771 0.2881 0.6771
vn 0.9250 0.2881 -0.2478
vn -0.2478 0.2881 -0.9250
vn -0.2478 -0.2881 -0.9250
vn 0.9266 -0.2826 -0.2483
vn -0.9266 -0.2826 -0.2483
vn -0.2483 0.2826 0.9266
vn 0.6783 -0.2826 -0.6783
vn -0.9266 -0.2826 0.2483
vn 0.2483 0.2826 0.9266
vn 0.2483 -0.2826 -0.9266
vn -0.6783 -0.2826 0.6783
vn 0.6783 0.2826 0.6783
vn 0.2483 0.2826 -0.9266
vn -0.2483 -0.2826 0.9266
vn 0.9266 0.2826 0.2483
vn -0.6783 0.2826 -0.6783
vn 0.2483 -0.2826 0.9266
vn 0.9266 0.2826 -0.2483
vn -0.9266 0.2826 -0.2483
vn 0.6783 -0.2826 0.6783
vn 0.6783 0.2826 -0.6783
vn -0.2483 -0.2826 -0.9266
vn -0.9266 0.2826 0.2483
vn 0.9266 -0.2826 0.2483
vn 0.2021 0.9583 0.2021
vn -0.6783 -0.2826 -0.6783
vn -0.6783 0.2826 0.6783
vn -0.7058 -0.0335 0.7076
vn 0.9657 0.0335 -0.2574
vn -0.7076 -0.0335 -0.7058
vn 0.2574 0.0335 0.9657
vn 0.9657 -0.0335 0.2574
vn -0.7058 0.0335 -0.7076
vn -0.9650 0.0335 -0.2599
vn 0.9650 -0.0335 -0.2599
vn 0.7058 -0.0335 -0.7076
vn -0.9657 0.0335 0.2574
vn -0.2574 -0.0335 0.9657
vn 0.7076 0.0335 -0.7058
vn -0.9657 -0.0335 -0.2574
vn 0.7058 0.0335 0.7076
vn 0.9650 0.0335 0.2599
vn -0.9650 -0.0335 0.2599
vn 0.2574 -0.0335 -0.9657
vn -0.7076 0.0335 0.7058
vn -0.2599 0.0335 0.9650
vn -0.2599 -0.0335 -0.9650
vn 0.2599 -0.0335 0.9650
vn 0.2599 0.0335 -0.9650
vn -0.2574 0.0335 -0.9657
vn 0.7076 -0.0335 0.7058
vn 0.0740 -0.9583 0.2760
vn 0.9451 0.2067 -0.2532
vn 0.9451 -0.2067 -0.2532
vn -0.9451 0.2067 -0.2532
vn -0.9451 -0.2067 -0.2532
vn -0.2532 0.2067 0.9451
vn -0.2532 -0.2067 0.9451
vn 0.9451 0.2067 0.2532
vn 0.9451 -0.2067 0.2532
vn -0.6918 0.2067 -0.6918
vn -0.6918 -0.2067 -0.6918
vn 0.2532 0.2067 -0.9451
vn 0.2532 -0.2067 -0.9451
vn -0.6918 0.2067 0.6918
vn -0.6918 -0.2067 0.6918
vn 0.6918 0.2067 0.6918
vn 0.6918 -0.2067 0.6918
vn -0.2532 0.2067 -0.9451
vn -0.2532 -0.2067 -0.9451
vn 0.6918 0.2067 -0.6918
vn 0.6918 -0.2067 -0.6918
vn -0.9451 0.2067 0.2532
vn -0.9451 -0.2067 0.2532
vn 0.2532 0.2067 0.9451
vn 0.2532 -0.2067 0.9451
vn 0.2568 0.1237 0.9585
vn -0.9585 0.1237 0.2568
vn 0.7017 0.1237 -0.7017
vn -0.2568 0.1237 -0.9585
vn 0.7017 0.1237 0.7017
vn -0.7017 0.1237 0.7017
vn 0.2568 0.1237 -0.9585
vn -0.7017 0.1237 -0.7017
vn 0.9585 0.1237 0.2568
vn -0.2568 0.1237 0.9585
vn -0.9585 0.1237 -0.2568
vn 0.9585 0.1237 -0.2568
vn 0.2568 -0.1237 0.9585
vn -0.9585 -0.1237 0.2568
vn 0.7017 -0.1237 -0.7017
vn -0.2568 -0.1237 -0.9585
vn 0.7017 -0.1237 0.7017
vn -0.7017 -0.1237 0.7017
vn 0.2568 -0.1237 -0.9585
vn -0.7017 -0.1237 -0.7017
vn 0.9585 -0.1237 0.2568
vn -0.2568 -0.1237 0.9585
vn -0.9585 -0.1237 -0.2568
vn 0.9585 -0.1237 -0.2568
vn -0.6944 0.0348 0.7188
vn -0.7105 0.0764 0.6995
vn -0.7058 0.0335 0.7076
vn -0.7154 0.0759 0.6946
vn -0.7105 -0.0764 0.6995
vn -0.6944 -0.0348 0.7188
vn -0.7154 -0.0759 0.6946
vn 0.9610 0.0764 -0.2656
vn 0.9697 0.0348 -0.2420
vn 0.9697 -0.0348 -0.2420
vn 0.9610 -0.0764 -0.2656
vn 0.9657 -0.0335 -0.2574
vn 0.9592 -0.0759 -0.2723
vn 0.9592 0.0759 -0.2723
vn -0.7188 0.0348 -0.6944
vn -0.6995 0.0764 -0.7105
vn -0.7076 0.0335 -0.7058
vn -0.6946 0.0759 -0.7154
vn -0.6995 -0.0764 -0.7105
vn -0.7188 -0.0348 -0.6944
vn -0.6946 -0.0759 -0.7154
vn 0.2656 0.0764 0.9610
vn 0.2420 0.0348 0.9697
vn 0.2420 -0.0348 0.9697
vn 0.2656 -0.0764 0.9610
vn 0.2574 -0.0335 0.9657
vn 0.2723 -0.0759 0.9592
vn 0.2723 0.0759 0.9592
vn 0.9697 0.0348 0.2420
vn 0.9610 0.0764 0.2656
vn 0.9657 0.0335 0.2574
vn 0.9592 0.0759 0.2723
vn 0.9610 -0.0764 0.2656
vn 0.9697 -0.0348 0.2420
vn 0.9592 -0.0759 0.2723
vn -0.7105 0.0764 -0.6995
vn -0.6944 0.0348 -0.7188
vn -0.6944 -0.0348 -0.7188
vn -0.7105 -0.0764 -0.6995
vn -0.7058 -0.0335 -0.7076
vn -0.7154 -0.0759 -0.6946
vn -0.7154 0.0759 -0.6946
vn -0.9651 0.0764 -0.2505
vn -0.9607 0.0348 -0.2753
vn -0.9607 -0.0348 -0.2753
vn -0.9651 -0.0764 -0.2505
vn -0.9650 -0.0335 -0.2599
vn -0.9669 -0.0759 -0.2438
vn -0.9668 0.0759 -0.2438
vn 0.9607 0.0348 -0.2753
vn 0.9651 0.0764 -0.2505
vn 0.9650 0.0335 -0.2599
vn 0.9668 0.0759 -0.2438
vn 0.9651 -0.0764 -0.2505
vn 0.9607 -0.0348 -0.2753
vn 0.9669 -0.0759 -0.2438
vn 0.6944 0.0348 -0.7188
vn 0.7105 0.0764 -0.6995
vn 0.7058 0.0335 -0.7076
vn 0.7154 0.0759 -0.6946
vn 0.7105 -0.0764 -0.6995
vn 0.6944 -0.0348 -0.7188
vn 0.7154 -0.0759 -0.6946
vn -0.9610 0.0764 0.2656
vn -0.9697 0.0348 0.2420
vn -0.9697 -0.0348 0.2420
vn -0.9610 -0.0764 0.2656
vn -0.9657 -0.0335 0.2574
vn -0.9592 -0.0759 0.2723
vn -0.9592 0.0759 0.2723
vn -0.2420 0.0348 0.9697
vn -0.2656 0.0764 0.9610
vn -0.2574 0.0335 0.9657
vn -0.2723 0.0759 0.9592
vn -0.2656 -0.0764 0.9610
vn -0.2420 -0.0348 0.9697
vn -0.2723 -0.0759 0.9592
vn 0.6995 0.0764 -0.7105
vn 0.7188 0.0348 -0.6944
vn 0.7188 -0.0348 -0.6944
vn 0.6995 -0.0764 -0.7105
vn 0.7076 -0.0335 -0.7058
vn 0.6946 -0.0759 -0.7154
vn 0.6946 0.0759 -0.7154
vn -0.9697 0.0348 -0.2420
vn -0.9610 0.0764 -0.2656
vn -0.9657 0.0335 -0.2574
vn -0.9592 0.0759 -0.2723
vn -0.9610 -0.0764 -0.2656
vn -0.9697 -0.0348 -0.2420
vn -0.9592 -0.0759 -0.2723
vn 0.7105 0.0764 0.6995
vn 0.6944 0.0348 0.7188
vn 0.6944 -0.0348 0.7188
vn 0.7105 -0.0764 0.6995
vn 0.7058 -0.0335 0.7076
vn 0.7154 -0.0759 0.6946
vn 0.7154 0.0759 0.6946
vn 0.9651 0.0764 0.2505
vn 0.9607 0.0348 0.2753
vn 0.9607 -0.0348 0.2753
vn 0.9651 -0.0764 0.2505
vn 0.9650 -0.0335 0.2599
vn 0.9668 -0.0759 0.2438
vn 0.9668 0.0759 0.2438
vn -0.9607 0.0348 0.2753
vn -0.9651 0.0764 0.2505
vn -0.9650 0.0335 0.2599
vn -0.9668 0.0759 0.2438
vn -0.9651 -0.0764 0.2505
vn -0.9607 -0.0348 0.2753
vn -0.9669 -0.0759 0.2438
vn 0.2420 0.0348 -0.9697
vn 0.2656 0.0764 -0.9610
vn 0.2574 0.0335 -0.9657
vn 0.2723 0.0759 -0.9592
vn 0.2656 -0.0764 -0.9610
vn 0.2420 -0.0348 -0.9697
vn 0.2723 -0.0759 -0.9592
vn -0.6995 0.0764 0.7105
vn -0.7188 0.0348 0.6944
vn -0.7188 -0.0348 0.6944
vn -0.6995 -0.0764 0.7105
vn -0.7076 -0.0335 0.7058
vn -0.6946 -0.0759 0.7154
vn -0.6946 0.0759 0.7154
vn -0.2505 0.0764 0.9651
vn -0.2753 0.0348 0.9607
vn -0.2753 -0.0348 0.9607
vn -0.2505 -0.0764 0.9651
vn -0.2599 -0.0335 0.9650
vn -0.2438 -0.0759 0.9668
vn -0.2438 0.0759 0.9668
vn -0.2753 0.0348 -0.9607
vn -0.2505 0.0764 -0.9651
vn -0.2599 0.0335 -0.9650
vn -0.2438 0.0759 -0.9669
vn -0.2505 -0.0764 -0.9651
vn -0.2753 -0.0348 -0.9607
vn -0.2438 -0.0759 -0.9668
vn 0.2753 0.0348 0.9607
vn 0.2505 0.0764 0.9651
vn 0.2599 0.0335 0.9650
vn 0.2438 0.0759 0.9669
vn 0.2505 -0.0764 0.9651
vn 0.2753 -0.0348 0.9607
vn 0.2438 -0.0759 0.9668
vn 0.2505 0.0764 -0.9651
vn 0.2753 0.0348 -0.9607
vn 0.2753 -0.0348 -0.9607
vn 0.2505 -0.0764 -0.9651
vn 0.2599 -0.0335 -0.9650
vn 0.2438 -0.0759 -0.9669
vn 0.2438 0.0759 -0.9669
vn -0.2656 0.0764 -0.9610
vn -0.2420 0.0348 -0.9697
vn -0.2420 -0.0348 -0.9697
vn -0.2656 -0.0764 -0.9610
vn -0.2574 -0.0335 -0.9657
vn -0.2723 -0.0759 -0.9592
vn -0.2723 0.0759 -0.9592
vn 0.7188 0.0348 0.6944
vn 0.6995 0.0764 0.7105
vn 0.7076 0.0335 0.7058
vn 0.6946 0.0759 0.7154
vn 0.6995 -0.0764 0.7105
vn 0.7188 -0.0348 0.6944
vn 0.6946 -0.0759 0.7154
vt 0.602150 0.875634
vt 0.602222 0.879534
vt 0.602250 0.885019
vt 0.609871 0.919553
vt 0.609769 0.899078
vt 0.609865 0.900421
vt 0.609577 0.910294
vt 0.609601 0.904753
vt 0.609670 0.900706
vt 0.610300 0.917803
vt 0.610197 0.897386
vt 0.610205 0.919359
vt 0.602249 0.884990
vt 0.602221 0.879520
vt 0.602150 0.875639
vt 0.610098 0.899026
vt 0.610030 0.903076
vt 0.610006 0.908609
vt 0.602058 0.896212
vt 0.601955 0.875795
vt 0.601963 0.894886
vt 0.602058 0.896235
vt 0.601956 0.875760
vt 0.602050 0.874216
vt 0.601955 0.875801
vt 0.601960 0.894815
vt 0.601954 0.875842
vt 0.601954 0.875836
vt 0.601961 0.894853
vt 0.601962 0.894892
vt 0.602051 0.874238
vt 0.602050 0.874240
vt 0.602059 0.896234
vt 0.602052 0.874237
vt 0.602059 0.896211
vt 0.602060 0.896209
vt 0.602060 0.896233
vt 0.602051 0.874215
vt 0.602053 0.874214
vt 0.602156 0.894613
vt 0.602157 0.894572
vt 0.602149 0.875596
vt 0.602154 0.894689
vt 0.602148 0.875557
vt 0.602147 0.875563
vt 0.602155 0.894654
vt 0.602156 0.894648
vt 0.602157 0.894607
vt 0.601960 0.894810
vt 0.601953 0.875877
vt 0.588956 0.947563
vt 0.588907 0.948178
vt 0.588943 0.948178
vt 0.589321 0.947563
vt 0.589191 0.948178
vt 0.589324 0.948178
vt 0.589321 0.947563
vt 0.589428 0.948178
vt 0.589330 0.948178
vt 0.589054 0.947563
vt 0.589184 0.948178
vt 0.589050 0.948178
vt 0.589418 0.840963
vt 0.589467 0.840348
vt 0.589432 0.840348
vt 0.589054 0.840963
vt 0.588947 0.840348
vt 0.589044 0.840348
vt 0.589184 0.840348
vt 0.589050 0.840348
vt 0.589054 0.947563
vt 0.588947 0.948178
vt 0.589044 0.948178
vt 0.589418 0.947563
vt 0.589321 0.840963
vt 0.589191 0.840348
vt 0.589324 0.840348
vt 0.593724 0.849143
vt 0.593777 0.863672
vt 0.593731 0.863672
vt 0.589428 0.840348
vt 0.589330 0.840348
vt 0.588956 0.840963
vt 0.588907 0.840348
vt 0.588943 0.840348
vt 0.589191 0.849621
vt 0.589334 0.849621
vt 0.589467 0.948178
vt 0.589432 0.948178
vt 0.593731 0.834614
vt 0.593777 0.849143
vt 0.593777 0.834614
vt 0.588930 0.849621
vt 0.589015 0.894263
vt 0.589034 0.849621
vt 0.589445 0.849621
vt 0.589359 0.894263
vt 0.589340 0.849621
vt 0.593876 0.834614
vt 0.593874 0.849143
vt 0.593863 0.834614
vt 0.588897 0.894263
vt 0.593682 0.849143
vt 0.593681 0.863672
vt 0.593668 0.849143
vt 0.589187 0.938467
vt 0.589330 0.938467
vt 0.593834 0.849143
vt 0.593862 0.863672
vt 0.593873 0.849143
vt 0.593693 0.834614
vt 0.593681 0.834614
vt 0.589353 0.894263
vt 0.589191 0.938905
vt 0.589334 0.938905
vt 0.589478 0.894263
vt 0.589340 0.938905
vt 0.589034 0.938905
vt 0.588930 0.938905
vt 0.593876 0.863672
vt 0.593863 0.863672
vt 0.593828 0.834614
vt 0.593862 0.834614
vt 0.588888 0.849621
vt 0.588893 0.894263
vt 0.588926 0.849621
vt 0.588888 0.938905
vt 0.588926 0.938905
vt 0.589448 0.849621
vt 0.589525 0.894263
vt 0.589487 0.849621
vt 0.589481 0.894263
vt 0.589487 0.938905
vt 0.589191 0.894263
vt 0.588901 0.938467
vt 0.588921 0.947563
vt 0.589187 0.947563
vt 0.589473 0.938467
vt 0.589454 0.947563
vt 0.589435 0.938467
vt 0.589473 0.850059
vt 0.589435 0.850059
vt 0.588940 0.850059
vt 0.589044 0.850059
vt 0.589330 0.850059
vt 0.588940 0.938467
vt 0.589187 0.850059
vt 0.588901 0.850059
vt 0.589187 0.840963
vt 0.589454 0.840963
vt 0.588921 0.840963
vt 0.589187 0.947563
vt 0.589044 0.938467
vt 0.589448 0.938905
vt 0.593869 0.866690
vt 0.593858 0.866690
vt 0.593777 0.831595
vt 0.593777 0.866690
vt 0.593734 0.866690
vt 0.593687 0.831595
vt 0.593857 0.831595
vt 0.593869 0.831595
vt 0.593687 0.866690
vt 0.593693 0.863672
vt 0.593699 0.866690
vt 0.593825 0.866690
vt 0.593857 0.866690
vt 0.589025 0.894263
vt 0.589041 0.849621
vt 0.589468 0.894263
vt 0.589445 0.938905
vt 0.589041 0.938905
vt 0.589187 0.894263
vt 0.589184 0.849621
vt 0.589350 0.894263
vt 0.588906 0.894263
vt 0.589184 0.938905
vt 0.589512 0.894263
vt 0.588863 0.894263
vt 0.453169 0.742037
vt 0.452833 0.707649
vt 0.452792 0.742037
vt 0.452792 0.701185
vt 0.453216 0.735572
vt 0.453169 0.701185
vt 0.447919 0.742037
vt 0.447496 0.707649
vt 0.447543 0.742037
vt 0.447543 0.701185
vt 0.447879 0.735572
vt 0.447919 0.701185
vt 0.448949 0.742037
vt 0.450356 0.707649
vt 0.450356 0.742037
vt 0.450356 0.701185
vt 0.448926 0.735572
vt 0.448949 0.701185
vt 0.453216 0.707649
vt 0.452833 0.735572
vt 0.448949 0.742035
vt 0.447879 0.707649
vt 0.451762 0.742035
vt 0.450356 0.742035
vt 0.451786 0.735572
vt 0.451762 0.701185
vt 0.448926 0.707649
vt 0.451762 0.742037
vt 0.450356 0.735572
vt 0.451786 0.707649
vt 0.447496 0.735572
vt 0.451822 0.707726
vt 0.450356 0.742726
vt 0.450356 0.707726
vt 0.447817 0.707726
vt 0.447452 0.742726
vt 0.447424 0.707726
vt 0.452870 0.742726
vt 0.452895 0.707726
vt 0.448890 0.707726
vt 0.451808 0.742726
vt 0.447841 0.742726
vt 0.448904 0.742726
vt 0.453259 0.742726
vt 0.453288 0.707726
vt 0.451807 0.700104
vt 0.450356 0.735103
vt 0.450356 0.700104
vt 0.447841 0.700104
vt 0.447424 0.735103
vt 0.447452 0.700103
vt 0.451807 0.700103
vt 0.452894 0.735103
vt 0.452870 0.700103
vt 0.448904 0.700103
vt 0.450356 0.700103
vt 0.452870 0.700104
vt 0.451821 0.735103
vt 0.448904 0.700104
vt 0.447817 0.735103
vt 0.447841 0.700103
vt 0.448890 0.735103
vt 0.453259 0.700103
vt 0.453287 0.735103
vt 0.602225 0.890560
vt 0.609776 0.921097
vt 0.609676 0.919679
vt 0.609605 0.915780
vt 0.610293 0.898712
vt 0.602225 0.890522
vt 0.610034 0.914079
vt 0.610106 0.917959
vt 0.601961 0.894848
vt 0.602149 0.875601
vt 0.593888 0.849143
vt 0.593828 0.863672
vt 0.588850 0.894263
vt 0.593734 0.831595
vt 0.593699 0.831595
vt 0.593825 0.831595
vt 0.593858 0.831595
vt 0.589022 0.894263
vt 0.589184 0.894263
s 0
usemtl Texture_Map
f 21/1/1 4/2/1 5/3/1
f 23/4/1 19/5/1 22/6/1
f 2/7/1 3/8/1 18/9/1
f 28/10/2 32/11/2 25/12/2
f 8/13/2 9/14/2 30/15/2
f 33/16/2 10/17/2 11/18/2
f 26/19/2 34/20/2 35/21/2
f 13/22/1 17/23/1 20/24/1
f 38/25/3 15/26/3 18/27/3
f 43/28/4 35/21/4 34/20/4
f 37/29/5 17/23/5 16/30/5
f 26/19/6 45/31/6 31/32/6
f 20/24/3 39/33/3 13/22/3
f 32/34/4 46/35/4 25/36/4
f 14/37/5 40/38/5 19/39/5
f 30/15/4 47/40/4 27/41/4
f 42/42/3 23/43/3 22/44/3
f 47/40/6 29/45/6 28/46/6
f 41/47/5 21/1/5 24/48/5
f 36/49/6 43/28/6 33/50/6
f 177/51/7 67/52/7 66/53/7
f 174/54/8 61/55/8 60/56/8
f 169/57/9 53/58/9 52/59/9
f 180/60/10 49/61/10 72/62/10
f 185/63/11 79/64/11 82/65/11
f 192/66/12 93/67/12 96/68/12
f 74/69/13 192/66/13 95/70/13
f 68/52/14 179/51/14 69/53/14
f 176/71/15 65/72/15 64/73/15
f 173/74/16 59/59/16 58/58/16
f 181/75/17 73/76/17 76/77/17
f 107/78/18 98/79/18 105/80/18
f 186/75/19 81/81/19 84/82/19
f 189/83/20 87/68/20 90/67/20
f 191/83/21 91/84/21 94/85/21
f 80/64/22 183/63/22 77/65/22
f 76/77/23 135/86/23 140/87/23
f 86/76/24 186/75/24 83/77/24
f 92/84/25 189/83/25 89/85/25
f 171/74/26 55/88/26 54/89/26
f 179/51/27 71/73/27 70/72/27
f 56/88/28 173/74/28 57/89/28
f 62/61/29 176/71/29 63/62/29
f 127/90/30 137/91/30 136/92/30
f 123/93/31 131/94/31 128/95/31
f 115/96/32 155/97/32 152/98/32
f 111/99/33 119/100/33 116/101/33
f 103/95/34 149/102/34 146/93/34
f 99/92/35 107/78/35 104/90/35
f 150/103/36 165/104/36 167/105/36
f 169/57/37 221/106/37 216/107/37
f 144/108/38 159/109/38 161/110/38
f 145/111/39 167/105/39 164/112/39
f 132/78/40 133/79/40 137/91/40
f 143/113/41 134/114/41 141/115/41
f 120/116/42 153/117/42 155/97/42
f 126/102/43 129/118/43 131/94/43
f 108/94/44 147/119/44 149/102/44
f 119/100/45 110/120/45 117/121/45
f 139/122/46 161/110/46 158/123/46
f 135/86/47 143/113/47 140/87/47
f 163/124/48 125/125/48 124/126/48
f 125/125/49 166/127/49 121/128/49
f 157/129/50 113/130/50 112/131/50
f 162/132/51 109/133/51 113/130/51
f 151/87/52 101/134/52 100/86/52
f 156/113/53 97/114/53 101/134/53
f 188/66/54 85/69/54 88/70/54
f 177/51/55 198/135/55 178/136/55
f 174/54/56 209/106/56 175/137/56
f 171/74/57 203/138/57 172/139/57
f 169/57/58 204/140/58 171/74/58
f 200/141/59 185/63/59 223/142/59
f 194/143/60 192/66/60 219/144/60
f 214/145/61 183/63/61 201/142/61
f 179/51/62 198/135/62 197/146/62
f 176/71/63 213/146/63 177/51/63
f 173/74/64 210/107/64 174/54/64
f 218/147/65 181/75/65 214/145/65
f 223/142/66 186/75/66 207/145/66
f 226/144/67 189/83/67 211/143/67
f 195/148/68 191/83/68 194/143/68
f 218/147/69 192/66/69 182/149/69
f 200/141/70 183/63/70 184/150/70
f 206/147/71 186/75/71 187/149/71
f 195/148/72 189/83/72 190/151/72
f 180/60/73 221/106/73 170/152/73
f 179/51/74 222/153/74 180/60/74
f 173/74/75 203/138/75 225/140/75
f 176/71/76 209/106/76 228/153/76
f 206/147/77 188/66/77 226/144/77
f 121/128/78 68/52/78 69/53/78
f 55/88/79 160/154/79 54/89/79
f 86/76/80 151/87/80 100/86/80
f 129/118/81 70/72/81 71/73/81
f 117/121/82 56/155/82 57/156/82
f 104/90/83 85/157/83 99/92/83
f 49/158/84 130/80/84 72/159/84
f 153/117/85 58/58/85 59/59/85
f 90/67/86 103/95/86 146/93/86
f 74/157/87 127/90/87 136/92/87
f 97/114/88 60/56/88 61/55/88
f 92/160/89 145/111/89 164/112/89
f 78/161/90 139/122/90 158/123/90
f 105/80/91 62/158/91 63/159/91
f 124/126/92 91/84/92 163/124/92
f 80/64/93 157/129/93 112/131/93
f 147/119/94 64/73/94 65/72/94
f 96/68/95 123/93/95 128/95/95
f 141/115/96 50/55/96 51/56/96
f 116/101/97 79/162/97 111/99/97
f 67/163/98 148/164/98 66/165/98
f 183/63/99 75/82/99 78/81/99
f 159/109/100 52/166/100 53/167/100
f 84/82/101 115/96/101 152/98/101
f 227/168/102 228/153/102 106/118/102
f 227/168/103 226/144/103 104/169/103
f 224/170/104 225/140/104 118/171/104
f 224/170/105 223/142/105 116/129/105
f 220/168/106 222/153/106 130/172/106
f 220/168/107 219/144/107 128/95/107
f 217/173/108 218/147/108 136/174/108
f 217/173/109 221/106/109 134/114/109
f 215/175/110 216/107/110 142/117/110
f 215/175/111 214/145/111 140/87/111
f 212/176/112 213/146/112 148/128/112
f 212/176/113 211/143/113 146/93/113
f 208/175/114 210/107/114 154/115/114
f 208/175/115 207/145/115 152/98/115
f 205/173/116 206/147/116 100/86/116
f 205/173/117 209/106/117 98/177/117
f 202/170/118 204/140/118 160/154/118
f 202/170/119 201/142/119 158/96/119
f 199/178/120 200/141/120 112/131/120
f 199/178/121 203/138/121 110/133/121
f 196/179/122 198/135/122 166/127/122
f 196/179/123 195/148/123 164/124/123
f 193/176/124 194/143/124 124/126/124
f 193/176/125 197/146/125 122/119/125
f 50/55/126 169/57/126 51/56/126
f 231/180/127 229/181/127 230/182/127
f 235/183/128 233/184/128 234/185/128
f 239/186/129 237/187/129 238/188/129
f 243/189/130 241/190/130 242/191/130
f 247/192/131 245/193/131 246/194/131
f 251/195/132 249/196/132 250/197/132
f 253/182/133 232/198/133 231/180/133
f 234/185/134 255/199/134 256/183/134
f 257/200/135 240/201/135 239/186/135
f 242/191/136 259/196/136 260/197/136
f 263/202/137 261/193/137 262/203/137
f 267/195/138 265/204/138 266/205/138
f 269/186/139 248/206/139 247/192/139
f 250/197/140 271/190/140 272/191/140
f 273/207/141 254/181/141 253/182/141
f 256/183/142 275/204/142 276/205/142
f 262/203/143 258/206/143 257/200/143
f 260/197/144 268/208/144 267/195/144
f 230/182/145 264/209/145 263/202/145
f 266/205/146 236/199/146 235/183/146
f 238/188/147 270/201/147 269/186/147
f 272/191/148 244/210/148 243/189/148
f 246/194/149 274/209/149 273/207/149
f 276/205/150 252/208/150 251/195/150
f 279/211/151 277/212/151 278/213/151
f 283/214/152 281/215/152 282/216/152
f 287/211/153 285/217/153 286/218/153
f 291/219/154 289/212/154 290/213/154
f 293/218/155 280/220/155 279/211/155
f 295/219/156 284/221/156 283/214/156
f 287/211/157 289/212/157 288/220/157
f 297/214/158 292/222/158 291/219/158
f 293/218/159 300/223/159 294/217/159
f 295/219/160 277/212/160 296/222/160
f 297/214/161 281/215/161 298/221/161
f 286/218/162 300/223/162 299/224/162
f 303/225/163 301/226/163 302/227/163
f 307/228/164 305/229/164 306/230/164
f 311/231/165 309/232/165 310/233/165
f 315/234/166 313/226/166 314/235/166
f 317/236/167 304/237/167 303/225/167
f 319/238/168 308/239/168 307/228/168
f 314/235/169 312/237/169 311/231/169
f 321/240/170 316/241/170 315/234/170
f 323/242/171 318/232/171 317/236/171
f 302/227/172 320/241/172 319/238/172
f 306/230/173 322/239/173 321/240/173
f 310/233/174 324/243/174 323/242/174
f 245/193/2 240/201/2 229/181/2
f 309/232/1 322/239/1 301/226/1
f 282/216/2 287/211/2 279/211/2
f 257/200/1 247/192/1 231/180/1
f 306/230/2 311/231/2 303/225/2
f 285/217/1 298/221/1 277/212/1
f 259/196/1 249/196/1 233/184/1
f 251/195/2 242/191/2 235/183/2
f 5/3/1 6/244/1 24/48/1
f 24/48/1 21/1/1 5/3/1
f 23/4/1 14/245/1 19/5/1
f 18/9/1 15/246/1 2/7/1
f 15/246/1 1/247/1 2/7/1
f 28/10/2 29/248/2 32/11/2
f 30/15/2 27/41/2 8/13/2
f 27/41/2 7/249/2 8/13/2
f 12/250/2 36/251/2 11/18/2
f 36/251/2 33/16/2 11/18/2
f 26/19/2 31/32/2 34/20/2
f 13/22/1 16/30/1 17/23/1
f 38/25/3 37/29/3 15/26/3
f 43/28/4 44/252/4 35/21/4
f 37/29/5 38/25/5 17/23/5
f 26/19/6 46/35/6 45/31/6
f 20/24/3 40/38/3 39/33/3
f 32/34/4 45/31/4 46/35/4
f 14/37/5 39/33/5 40/38/5
f 30/15/4 48/253/4 47/40/4
f 42/42/3 41/47/3 23/43/3
f 47/40/6 48/253/6 29/45/6
f 41/47/5 42/42/5 21/1/5
f 36/49/6 44/252/6 43/28/6
f 177/51/7 178/136/7 67/52/7
f 174/54/8 175/137/8 61/55/8
f 169/57/9 171/74/9 53/58/9
f 180/60/10 170/152/10 49/61/10
f 185/63/11 184/150/11 79/64/11
f 192/66/12 191/83/12 93/67/12
f 74/69/13 182/149/13 192/66/13
f 68/52/14 178/136/14 179/51/14
f 176/71/15 177/51/15 65/72/15
f 173/74/16 174/54/16 59/59/16
f 181/75/17 182/149/17 73/76/17
f 107/78/18 102/91/18 98/79/18
f 186/75/19 185/63/19 81/81/19
f 189/83/20 188/66/20 87/68/20
f 191/83/21 190/151/21 91/84/21
f 80/64/22 184/150/22 183/63/22
f 76/77/23 73/76/23 135/86/23
f 86/76/24 187/149/24 186/75/24
f 92/84/25 190/151/25 189/83/25
f 171/74/26 172/139/26 55/88/26
f 179/51/27 180/60/27 71/73/27
f 56/88/28 172/139/28 173/74/28
f 62/61/29 175/137/29 176/71/29
f 127/90/30 132/78/30 137/91/30
f 123/93/31 126/102/31 131/94/31
f 115/96/32 120/116/32 155/97/32
f 111/99/33 114/254/33 119/100/33
f 103/95/34 108/94/34 149/102/34
f 99/92/35 102/91/35 107/78/35
f 150/103/36 148/164/36 165/104/36
f 169/57/37 170/152/37 221/106/37
f 144/108/38 142/255/38 159/109/38
f 145/111/39 150/103/39 167/105/39
f 132/78/40 130/80/40 133/79/40
f 143/113/41 138/134/41 134/114/41
f 120/116/42 118/171/42 153/117/42
f 126/102/43 122/119/43 129/118/43
f 108/94/44 106/118/44 147/119/44
f 119/100/45 114/254/45 110/120/45
f 139/122/46 144/108/46 161/110/46
f 135/86/47 138/134/47 143/113/47
f 163/124/48 168/256/48 125/125/48
f 125/125/49 168/256/49 166/127/49
f 157/129/50 162/132/50 113/130/50
f 162/132/51 160/154/51 109/133/51
f 151/87/52 156/113/52 101/134/52
f 156/113/53 154/115/53 97/114/53
f 188/66/54 187/149/54 85/69/54
f 177/51/55 213/146/55 198/135/55
f 174/54/56 210/107/56 209/106/56
f 171/74/57 204/140/57 203/138/57
f 169/57/58 216/107/58 204/140/58
f 200/141/59 184/150/59 185/63/59
f 194/143/60 191/83/60 192/66/60
f 214/145/61 181/75/61 183/63/61
f 179/51/62 178/136/62 198/135/62
f 176/71/63 228/153/63 213/146/63
f 173/74/64 225/140/64 210/107/64
f 218/147/65 182/149/65 181/75/65
f 223/142/66 185/63/66 186/75/66
f 226/144/67 188/66/67 189/83/67
f 195/148/68 190/151/68 191/83/68
f 218/147/69 219/144/69 192/66/69
f 200/141/70 201/142/70 183/63/70
f 206/147/71 207/145/71 186/75/71
f 195/148/72 211/143/72 189/83/72
f 180/60/73 222/153/73 221/106/73
f 179/51/74 197/146/74 222/153/74
f 173/74/75 172/139/75 203/138/75
f 176/71/76 175/137/76 209/106/76
f 206/147/77 187/149/77 188/66/77
f 121/128/78 166/127/78 68/52/78
f 55/88/79 109/133/79 160/154/79
f 86/76/80 83/77/80 151/87/80
f 129/118/81 122/119/81 70/72/81
f 117/121/82 110/120/82 56/155/82
f 104/90/83 88/257/83 85/157/83
f 49/158/84 133/79/84 130/80/84
f 153/117/85 118/171/85 58/58/85
f 90/67/86 87/68/86 103/95/86
f 74/157/87 95/257/87 127/90/87
f 97/114/88 154/115/88 60/56/88
f 92/160/89 89/258/89 145/111/89
f 78/161/90 75/259/90 139/122/90
f 105/80/91 98/79/91 62/158/91
f 124/126/92 94/85/92 91/84/92
f 80/64/93 77/65/93 157/129/93
f 147/119/94 106/118/94 64/73/94
f 96/68/95 93/67/95 123/93/95
f 141/115/96 134/114/96 50/55/96
f 116/101/97 82/260/97 79/162/97
f 67/163/98 165/104/98 148/164/98
f 183/63/99 181/75/99 75/82/99
f 159/109/100 142/255/100 52/166/100
f 84/82/101 81/81/101 115/96/101
f 108/94/175 103/95/175 227/168/175
f 103/95/176 87/68/176 226/144/176
f 227/168/177 103/95/177 226/144/177
f 87/68/178 188/66/178 226/144/178
f 64/73/179 106/118/179 228/153/179
f 106/118/180 108/94/180 227/168/180
f 228/153/181 176/71/181 64/73/181
f 88/70/182 104/169/182 226/144/182
f 104/169/183 107/261/183 227/168/183
f 107/261/184 105/172/184 227/168/184
f 105/172/185 63/62/185 228/153/185
f 227/168/186 105/172/186 228/153/186
f 63/62/187 176/71/187 228/153/187
f 226/144/188 188/66/188 88/70/188
f 120/116/189 115/96/189 224/170/189
f 115/96/190 81/81/190 223/142/190
f 224/170/191 115/96/191 223/142/191
f 81/81/192 185/63/192 223/142/192
f 58/58/193 118/171/193 225/140/193
f 118/171/194 120/116/194 224/170/194
f 225/140/195 173/74/195 58/58/195
f 82/65/196 116/129/196 223/142/196
f 116/129/197 119/132/197 224/170/197
f 119/132/198 117/154/198 224/170/198
f 117/154/199 57/89/199 225/140/199
f 224/170/200 117/154/200 225/140/200
f 57/89/201 173/74/201 225/140/201
f 223/142/202 185/63/202 82/65/202
f 132/261/203 127/169/203 220/168/203
f 127/169/204 95/70/204 219/144/204
f 220/168/205 127/169/205 219/144/205
f 95/70/206 192/66/206 219/144/206
f 72/62/207 130/172/207 222/153/207
f 130/172/208 132/261/208 220/168/208
f 222/153/209 180/60/209 72/62/209
f 96/68/210 128/95/210 219/144/210
f 128/95/211 131/94/211 220/168/211
f 131/94/212 129/118/212 220/168/212
f 129/118/213 71/73/213 222/153/213
f 220/168/214 129/118/214 222/153/214
f 71/73/215 180/60/215 222/153/215
f 219/144/216 192/66/216 96/68/216
f 74/69/217 136/174/217 218/147/217
f 136/174/218 137/262/218 217/173/218
f 137/262/219 133/177/219 217/173/219
f 133/177/220 49/61/220 221/106/220
f 217/173/221 133/177/221 221/106/221
f 49/61/222 170/152/222 221/106/222
f 218/147/223 182/149/223 74/69/223
f 138/134/224 135/86/224 217/173/224
f 135/86/225 73/76/225 218/147/225
f 217/173/226 135/86/226 218/147/226
f 73/76/227 182/149/227 218/147/227
f 50/55/228 134/114/228 221/106/228
f 134/114/229 138/134/229 217/173/229
f 221/106/230 170/152/230 50/55/230
f 144/97/231 139/98/231 215/175/231
f 139/98/232 75/82/232 214/145/232
f 215/175/233 139/98/233 214/145/233
f 75/82/234 181/75/234 214/145/234
f 52/59/235 142/117/235 216/107/235
f 142/117/236 144/97/236 215/175/236
f 216/107/237 169/57/237 52/59/237
f 76/77/238 140/87/238 214/145/238
f 140/87/239 143/113/239 215/175/239
f 143/113/240 141/115/240 215/175/240
f 141/115/241 51/56/241 216/107/241
f 215/175/242 141/115/242 216/107/242
f 51/56/243 169/57/243 216/107/243
f 214/145/244 181/75/244 76/77/244
f 150/125/245 145/126/245 212/176/245
f 145/126/246 89/85/246 211/143/246
f 212/176/247 145/126/247 211/143/247
f 89/85/248 189/83/248 211/143/248
f 66/53/249 148/128/249 213/146/249
f 148/128/250 150/125/250 212/176/250
f 213/146/251 177/51/251 66/53/251
f 90/67/252 146/93/252 211/143/252
f 146/93/253 149/102/253 212/176/253
f 149/102/254 147/119/254 212/176/254
f 147/119/255 65/72/255 213/146/255
f 212/176/256 147/119/256 213/146/256
f 65/72/257 177/51/257 213/146/257
f 211/143/258 189/83/258 90/67/258
f 156/113/259 151/87/259 208/175/259
f 151/87/260 83/77/260 207/145/260
f 208/175/261 151/87/261 207/145/261
f 83/77/262 186/75/262 207/145/262
f 60/56/263 154/115/263 210/107/263
f 154/115/264 156/113/264 208/175/264
f 210/107/265 174/54/265 60/56/265
f 84/82/266 152/98/266 207/145/266
f 152/98/267 155/97/267 208/175/267
f 155/97/268 153/117/268 208/175/268
f 153/117/269 59/59/269 210/107/269
f 208/175/270 153/117/270 210/107/270
f 59/59/271 174/54/271 210/107/271
f 207/145/272 186/75/272 84/82/272
f 86/76/273 100/86/273 206/147/273
f 100/86/274 101/134/274 205/173/274
f 101/134/275 97/114/275 205/173/275
f 97/114/276 61/55/276 209/106/276
f 205/173/277 97/114/277 209/106/277
f 61/55/278 175/137/278 209/106/278
f 206/147/279 187/149/279 86/76/279
f 102/262/280 99/174/280 205/173/280
f 99/174/281 85/69/281 206/147/281
f 205/173/282 99/174/282 206/147/282
f 85/69/283 187/149/283 206/147/283
f 62/61/284 98/177/284 209/106/284
f 98/177/285 102/262/285 205/173/285
f 209/106/286 175/137/286 62/61/286
f 162/132/287 157/129/287 202/170/287
f 157/129/288 77/65/288 201/142/288
f 202/170/289 157/129/289 201/142/289
f 77/65/290 183/63/290 201/142/290
f 54/89/291 160/154/291 204/140/291
f 160/154/292 162/132/292 202/170/292
f 204/140/293 171/74/293 54/89/293
f 78/81/294 158/96/294 201/142/294
f 158/96/295 161/116/295 202/170/295
f 161/116/296 159/171/296 202/170/296
f 159/171/297 53/58/297 204/140/297
f 202/170/298 159/171/298 204/140/298
f 53/58/299 171/74/299 204/140/299
f 201/142/300 183/63/300 78/81/300
f 80/64/301 112/131/301 200/141/301
f 112/131/302 113/130/302 199/178/302
f 113/130/303 109/133/303 199/178/303
f 109/133/304 55/88/304 203/138/304
f 199/178/305 109/133/305 203/138/305
f 55/88/306 172/139/306 203/138/306
f 200/141/307 184/150/307 80/64/307
f 114/130/308 111/131/308 199/178/308
f 111/131/309 79/64/309 200/141/309
f 199/178/310 111/131/310 200/141/310
f 79/64/311 184/150/311 200/141/311
f 56/88/312 110/133/312 203/138/312
f 110/133/313 114/130/313 199/178/313
f 203/138/314 172/139/314 56/88/314
f 168/256/315 163/124/315 196/179/315
f 163/124/316 91/84/316 195/148/316
f 196/179/317 163/124/317 195/148/317
f 91/84/318 190/151/318 195/148/318
f 68/52/319 166/127/319 198/135/319
f 166/127/320 168/256/320 196/179/320
f 198/135/321 178/136/321 68/52/321
f 92/84/322 164/124/322 195/148/322
f 164/124/323 167/256/323 196/179/323
f 167/256/324 165/127/324 196/179/324
f 165/127/325 67/52/325 198/135/325
f 196/179/326 165/127/326 198/135/326
f 67/52/327 178/136/327 198/135/327
f 195/148/328 190/151/328 92/84/328
f 94/85/329 124/126/329 194/143/329
f 124/126/330 125/125/330 193/176/330
f 125/125/331 121/128/331 193/176/331
f 121/128/332 69/53/332 197/146/332
f 193/176/333 121/128/333 197/146/333
f 69/53/334 179/51/334 197/146/334
f 194/143/335 191/83/335 94/85/335
f 126/102/336 123/93/336 193/176/336
f 123/93/337 93/67/337 194/143/337
f 193/176/338 123/93/338 194/143/338
f 93/67/339 191/83/339 194/143/339
f 70/72/340 122/119/340 197/146/340
f 122/119/341 126/102/341 193/176/341
f 197/146/342 179/51/342 70/72/342
f 50/55/126 170/152/126 169/57/126
f 231/180/127 232/198/127 229/181/127
f 235/183/128 236/199/128 233/184/128
f 239/186/129 240/201/129 237/187/129
f 243/189/130 244/210/130 241/190/130
f 247/192/131 248/206/131 245/193/131
f 251/195/132 252/208/132 249/196/132
f 253/182/133 254/181/133 232/198/133
f 234/185/134 233/184/134 255/199/134
f 257/200/135 258/206/135 240/201/135
f 242/191/136 241/190/136 259/196/136
f 263/202/137 264/209/137 261/193/137
f 267/195/138 268/208/138 265/204/138
f 269/186/139 270/201/139 248/206/139
f 250/197/140 249/196/140 271/190/140
f 273/207/141 274/209/141 254/181/141
f 256/183/142 255/199/142 275/204/142
f 262/203/143 261/193/143 258/206/143
f 260/197/144 259/196/144 268/208/144
f 230/182/145 229/181/145 264/209/145
f 266/205/146 265/204/146 236/199/146
f 238/188/147 237/187/147 270/201/147
f 272/191/148 271/190/148 244/210/148
f 246/194/149 245/193/149 274/209/149
f 276/205/150 275/204/150 252/208/150
f 279/211/151 280/220/151 277/212/151
f 283/214/152 284/221/152 281/215/152
f 287/211/153 288/220/153 285/217/153
f 291/219/154 292/222/154 289/212/154
f 293/218/155 294/217/155 280/220/155
f 295/219/156 296/222/156 284/221/156
f 287/211/157 290/213/157 289/212/157
f 297/214/158 298/221/158 292/222/158
f 293/218/159 299/224/159 300/223/159
f 295/219/160 278/213/160 277/212/160
f 297/214/161 282/216/161 281/215/161
f 286/218/162 285/217/162 300/223/162
f 303/225/163 304/237/163 301/226/163
f 307/228/164 308/239/164 305/229/164
f 311/231/165 312/237/165 309/232/165
f 315/234/166 316/241/166 313/226/166
f 317/236/167 318/232/167 304/237/167
f 319/238/168 320/241/168 308/239/168
f 314/235/169 313/226/169 312/237/169
f 321/240/170 322/239/170 316/241/170
f 323/242/171 324/243/171 318/232/171
f 302/227/172 301/226/172 320/241/172
f 306/230/173 305/229/173 322/239/173
f 310/233/174 309/232/174 324/243/174
f 229/181/2 232/198/2 254/181/2
f 254/181/2 274/209/2 229/181/2
f 274/209/2 245/193/2 229/181/2
f 245/193/2 248/206/2 240/201/2
f 248/206/2 270/201/2 240/201/2
f 270/201/2 237/187/2 240/201/2
f 240/201/2 258/206/2 229/181/2
f 258/206/2 261/193/2 229/181/2
f 261/193/2 264/209/2 229/181/2
f 301/226/1 304/237/1 318/232/1
f 318/232/1 324/243/1 309/232/1
f 309/232/1 312/237/1 313/226/1
f 313/226/1 316/241/1 322/239/1
f 322/239/1 305/229/1 308/239/1
f 308/239/1 320/241/1 301/226/1
f 301/226/1 318/232/1 309/232/1
f 309/232/1 313/226/1 322/239/1
f 322/239/1 308/239/1 301/226/1
f 279/211/2 278/213/2 295/219/2
f 295/219/2 283/214/2 282/216/2
f 282/216/2 297/214/2 291/219/2
f 291/219/2 290/213/2 287/211/2
f 287/211/2 286/218/2 299/224/2
f 299/224/2 293/218/2 287/211/2
f 293/218/2 279/211/2 287/211/2
f 279/211/2 295/219/2 282/216/2
f 282/216/2 291/219/2 287/211/2
f 231/180/1 230/182/1 257/200/1
f 230/182/1 263/202/1 257/200/1
f 263/202/1 262/203/1 257/200/1
f 257/200/1 239/186/1 238/188/1
f 238/188/1 269/186/1 247/192/1
f 247/192/1 246/194/1 273/207/1
f 273/207/1 253/182/1 231/180/1
f 257/200/1 238/188/1 247/192/1
f 247/192/1 273/207/1 231/180/1
f 303/225/2 302/227/2 319/238/2
f 319/238/2 307/228/2 303/225/2
f 307/228/2 306/230/2 303/225/2
f 306/230/2 321/240/2 315/234/2
f 315/234/2 314/235/2 306/230/2
f 314/235/2 311/231/2 306/230/2
f 311/231/2 310/233/2 303/225/2
f 310/233/2 323/242/2 303/225/2
f 323/242/2 317/236/2 303/225/2
f 277/212/1 280/220/1 294/217/1
f 294/217/1 300/223/1 285/217/1
f 285/217/1 288/220/1 289/212/1
f 289/212/1 292/222/1 298/221/1
f 298/221/1 281/215/1 284/221/1
f 284/221/1 296/222/1 277/212/1
f 277/212/1 294/217/1 285/217/1
f 285/217/1 289/212/1 298/221/1
f 298/221/1 284/221/1 277/212/1
f 233/184/1 236/199/1 259/196/1
f 236/199/1 265/204/1 259/196/1
f 265/204/1 268/208/1 259/196/1
f 259/196/1 241/190/1 244/210/1
f 244/210/1 271/190/1 259/196/1
f 271/190/1 249/196/1 259/196/1
f 249/196/1 252/208/1 275/204/1
f 275/204/1 255/199/1 249/196/1
f 255/199/1 233/184/1 249/196/1
f 235/183/2 234/185/2 256/183/2
f 256/183/2 276/205/2 251/195/2
f 251/195/2 250/197/2 242/191/2
f 250/197/2 272/191/2 242/191/2
f 272/191/2 243/189/2 242/191/2
f 242/191/2 260/197/2 267/195/2
f 267/195/2 266/205/2 235/183/2
f 235/183/2 256/183/2 251/195/2
f 242/191/2 267/195/2 235/183/2
