# Blender 4.4.0
# www.blender.org
mtllib Prop_Bucket_01.mtl
o Prop_Bucket_Handle_01
v -0.182476 0.329315 0.039924
v -0.170660 0.329964 0.037935
v -0.165800 0.324061 0.028686
v -0.172755 0.317510 0.021427
v -0.184571 0.316861 0.023416
v -0.189432 0.322764 0.032665
v -0.188790 0.370345 0.009956
v -0.180660 0.376588 0.003717
v -0.177161 0.372752 -0.007102
v -0.181793 0.362673 -0.011681
v -0.189923 0.356431 -0.005442
v -0.193422 0.360266 0.005377
v -0.201960 0.370489 0.009351
v -0.205790 0.377763 0.000610
v -0.205271 0.374184 -0.010832
v -0.200920 0.363331 -0.013533
v -0.197090 0.356057 -0.004791
v -0.197610 0.359636 0.006651
v -0.219576 0.350395 0.014524
v -0.230517 0.351256 0.009671
v -0.233356 0.344647 0.000066
v -0.225255 0.337177 -0.004686
v -0.214314 0.336316 0.000168
v -0.211475 0.342925 0.009773
v -0.208130 0.278254 0.114796
v -0.218645 0.272954 0.117109
v -0.221206 0.262307 0.112202
v -0.213251 0.256959 0.104982
v -0.202736 0.262259 0.102669
v -0.200176 0.272906 0.107576
v -0.113965 0.228961 0.205637
v -0.119631 0.220842 0.212418
v -0.121376 0.209721 0.208262
v -0.117455 0.206718 0.197326
v -0.111789 0.214837 0.190545
v -0.110044 0.225958 0.194700
v 0.000000 0.214450 0.218236
v 0.000000 0.205492 0.225795
v 0.000000 0.194479 0.221539
v 0.000000 0.192422 0.209725
v 0.000000 0.201379 0.202166
v 0.000000 0.212393 0.206421
v 0.182476 0.329315 0.039924
v 0.170660 0.329964 0.037935
v 0.165800 0.324061 0.028686
v 0.172755 0.317510 0.021427
v 0.184571 0.316861 0.023416
v 0.189432 0.322764 0.032665
v 0.188790 0.370345 0.009956
v 0.180660 0.376588 0.003717
v 0.177161 0.372752 -0.007102
v 0.181793 0.362673 -0.011681
v 0.189923 0.356431 -0.005442
v 0.193422 0.360266 0.005377
v 0.201960 0.370489 0.009351
v 0.205790 0.377763 0.000610
v 0.205271 0.374184 -0.010832
v 0.200920 0.363331 -0.013533
v 0.197090 0.356057 -0.004791
v 0.197610 0.359636 0.006651
v 0.219576 0.350395 0.014524
v 0.230517 0.351256 0.009671
v 0.233356 0.344647 0.000066
v 0.225255 0.337177 -0.004686
v 0.214314 0.336316 0.000168
v 0.211475 0.342925 0.009773
v 0.208130 0.278254 0.114796
v 0.218645 0.272954 0.117109
v 0.221206 0.262307 0.112202
v 0.213251 0.256959 0.104982
v 0.202736 0.262259 0.102669
v 0.200176 0.272906 0.107576
v 0.113965 0.228961 0.205637
v 0.119631 0.220842 0.212418
v 0.121376 0.209721 0.208262
v 0.117455 0.206718 0.197326
v 0.111789 0.214837 0.190545
v 0.110044 0.225958 0.194700
vn -0.8079 0.2881 0.5141
vn 0.1012 0.5969 0.7959
vn 0.8991 0.3675 0.2380
vn 0.8004 -0.2420 -0.5485
vn -0.1015 -0.5951 -0.7972
vn -0.9094 -0.3036 -0.2842
vn -0.0464 -0.3955 0.9173
vn -0.0489 0.7372 0.6739
vn 0.0890 0.9475 -0.3071
vn 0.1407 0.3552 -0.9241
vn 0.0406 -0.7323 -0.6798
vn 0.0809 -0.9309 0.3562
vn 0.3671 -0.0834 0.9264
vn -0.4567 0.5751 0.6787
vn -0.7496 0.6212 -0.2284
vn -0.4149 0.0596 -0.9079
vn 0.4608 -0.5724 -0.6782
vn 0.7704 -0.5977 0.2220
vn 0.7373 0.5867 0.3348
vn -0.2009 0.7810 0.5914
vn -0.9716 0.1279 0.1992
vn -0.7376 -0.5810 -0.3442
vn 0.2015 -0.7799 -0.5925
vn 0.9715 -0.1258 -0.2007
vn 0.5126 0.8558 -0.0691
vn -0.2292 0.7339 0.6394
vn -0.7235 -0.1378 0.6765
vn -0.5137 -0.8553 0.0676
vn 0.2299 -0.7347 -0.6382
vn 0.7244 0.1372 -0.6756
vn 0.1465 0.9661 -0.2127
vn -0.0033 0.6424 0.7664
vn -0.1463 -0.3260 0.9340
vn -0.1447 -0.9662 0.2134
vn 0.0028 -0.6422 -0.7666
vn 0.1399 0.3273 -0.9345
vn 0.1423 -0.7988 0.5846
vn 0.8709 0.1953 0.4509
vn -0.1373 0.6050 0.7843
vn -0.9221 0.3446 0.1760
vn -0.8004 -0.2420 -0.5485
vn 0.1015 -0.5951 -0.7972
vn 0.9094 -0.3036 -0.2842
vn 0.0464 -0.3955 0.9173
vn 0.0489 0.7372 0.6739
vn -0.0890 0.9475 -0.3071
vn -0.1020 0.2785 -0.9550
vn 0.0174 -0.7723 -0.6350
vn -0.2307 -0.9256 0.3000
vn -0.3671 -0.0834 0.9264
vn 0.3026 0.5487 0.7794
vn 0.7461 0.6307 -0.2134
vn 0.4332 0.1000 -0.8958
vn -0.4608 -0.5724 -0.6782
vn -0.7704 -0.5977 0.2220
vn -0.7201 0.5996 0.3492
vn 0.2009 0.7810 0.5914
vn 0.9716 0.1279 0.1992
vn 0.7376 -0.5810 -0.3442
vn -0.2589 -0.7688 -0.5847
vn -0.9683 -0.1363 -0.2095
vn -0.5046 0.8615 -0.0556
vn 0.2292 0.7339 0.6394
vn 0.7235 -0.1378 0.6765
vn 0.5137 -0.8553 0.0676
vn -0.2524 -0.7180 -0.6487
vn -0.7247 0.1385 -0.6750
vn -0.1465 0.9661 -0.2127
vn 0.0033 0.6424 0.7664
vn 0.1457 -0.3566 0.9228
vn 0.1367 -0.9759 0.1699
vn -0.0018 -0.6449 -0.7642
vn -0.1399 0.3273 -0.9345
vn -0.1423 -0.7988 0.5846
vn -0.8709 0.1953 0.4509
vn 0.1373 0.6050 0.7843
vn 0.9221 0.3446 0.1760
vn 0.8521 -0.1660 -0.4964
vn -0.1392 -0.6034 -0.7852
vn -0.9387 -0.2768 -0.2054
vn 0.3048 -0.1131 0.9457
vn -0.0213 0.7639 0.6450
vn 0.0809 0.9523 -0.2942
vn 0.1020 0.2785 -0.9550
vn -0.0174 -0.7723 -0.6350
vn 0.2307 -0.9256 0.3000
vn 0.3902 -0.1542 0.9077
vn -0.3026 0.5487 0.7794
vn -0.7461 0.6307 -0.2134
vn -0.4332 0.1000 -0.8958
vn 0.3034 -0.5463 -0.7807
vn 0.7627 -0.6157 0.1982
vn 0.7201 0.5996 0.3492
vn -0.2596 0.7696 0.5833
vn -0.9686 0.1375 0.2072
vn -0.7222 -0.5925 -0.3568
vn 0.2589 -0.7688 -0.5847
vn 0.9683 -0.1363 -0.2095
vn 0.5046 0.8615 -0.0556
vn -0.2510 0.7177 0.6496
vn -0.7238 -0.1390 0.6759
vn -0.5062 -0.8607 0.0548
vn 0.2524 -0.7180 -0.6487
vn 0.7247 0.1385 -0.6750
vn 0.1384 0.9757 -0.1699
vn -0.0024 0.6449 0.7642
vn -0.1457 -0.3566 0.9228
vn -0.1367 -0.9759 0.1699
vn 0.0018 -0.6449 -0.7642
vn 0.1390 0.3569 -0.9237
vn 0.8079 0.2881 0.5141
vn -0.1012 0.5969 0.7959
vn -0.8991 0.3675 0.2380
vn -0.8521 -0.1660 -0.4964
vn 0.1392 -0.6034 -0.7852
vn 0.9387 -0.2768 -0.2054
vn -0.3048 -0.1131 0.9457
vn 0.0213 0.7639 0.6450
vn -0.0809 0.9523 -0.2942
vn -0.1407 0.3552 -0.9241
vn -0.0406 -0.7323 -0.6798
vn -0.0809 -0.9309 0.3562
vn -0.3902 -0.1542 0.9077
vn 0.4567 0.5751 0.6787
vn 0.7496 0.6212 -0.2284
vn 0.4149 0.0596 -0.9079
vn -0.3034 -0.5463 -0.7807
vn -0.7627 -0.6157 0.1982
vn -0.7374 0.5867 0.3348
vn 0.2596 0.7696 0.5833
vn 0.9686 0.1375 0.2072
vn 0.7222 -0.5925 -0.3568
vn -0.2015 -0.7799 -0.5925
vn -0.9715 -0.1258 -0.2007
vn -0.5126 0.8558 -0.0691
vn 0.2510 0.7177 0.6496
vn 0.7238 -0.1390 0.6759
vn 0.5062 -0.8607 0.0548
vn -0.2299 -0.7347 -0.6382
vn -0.7244 0.1372 -0.6756
vn -0.1384 0.9757 -0.1699
vn 0.0024 0.6449 0.7642
vn 0.1463 -0.3260 0.9340
vn 0.1447 -0.9662 0.2134
vn -0.0028 -0.6422 -0.7666
vn -0.1390 0.3569 -0.9237
vt 0.597784 0.648544
vt 0.597826 0.625178
vt 0.597811 0.648046
vt 0.597740 0.647582
vt 0.597808 0.623483
vt 0.597721 0.646121
vt 0.597777 0.619043
vt 0.597782 0.617992
vt 0.597748 0.645623
vt 0.597812 0.622432
vt 0.597792 0.646585
vt 0.597858 0.623209
vt 0.597872 0.617485
vt 0.597870 0.614420
vt 0.597764 0.616297
vt 0.597854 0.617078
vt 0.597839 0.622802
vt 0.597924 0.631931
vt 0.597841 0.625867
vt 0.597966 0.629827
vt 0.597976 0.628472
vt 0.597904 0.631325
vt 0.597894 0.632680
vt 0.597851 0.692881
vt 0.597921 0.696426
vt 0.597930 0.698190
vt 0.597900 0.697300
vt 0.597946 0.629221
vt 0.597861 0.694645
vt 0.597881 0.693771
vt 0.597511 0.741295
vt 0.597547 0.749643
vt 0.597554 0.751848
vt 0.597539 0.748777
vt 0.597517 0.743500
vt 0.597095 0.753977
vt 0.597526 0.744366
vt 0.597095 0.759827
vt 0.597095 0.761959
vt 0.597095 0.758240
vt 0.597095 0.750258
vt 0.596407 0.648544
vt 0.596365 0.625178
vt 0.596383 0.623483
vt 0.596451 0.647582
vt 0.596413 0.619043
vt 0.596470 0.646121
vt 0.596427 0.616297
vt 0.596409 0.617992
vt 0.596443 0.645623
vt 0.596378 0.622432
vt 0.596399 0.646585
vt 0.596380 0.648046
vt 0.596333 0.623209
vt 0.596319 0.617485
vt 0.596321 0.614420
vt 0.596337 0.617078
vt 0.596351 0.622802
vt 0.596349 0.625867
vt 0.596267 0.631931
vt 0.596225 0.629827
vt 0.596215 0.628472
vt 0.596245 0.629221
vt 0.596286 0.631325
vt 0.596297 0.632680
vt 0.596340 0.692881
vt 0.596310 0.693771
vt 0.596270 0.696426
vt 0.596260 0.698190
vt 0.596290 0.697300
vt 0.596330 0.694645
vt 0.596680 0.741295
vt 0.596665 0.744366
vt 0.596644 0.749643
vt 0.596637 0.751848
vt 0.596652 0.748777
vt 0.596673 0.743500
vt 0.597095 0.752390
s 0
usemtl Texture_Map
f 1/1/1 12/2/1 6/3/1
f 2/4/2 7/5/2 1/1/2
f 3/6/3 8/7/3 2/4/3
f 10/8/4 3/6/4 4/9/4
f 11/10/5 4/9/5 5/11/5
f 12/2/6 5/11/6 6/3/6
f 13/12/7 12/2/7 7/5/7
f 14/13/8 7/5/8 8/7/8
f 15/14/9 8/7/9 9/15/9
f 10/8/10 15/14/10 9/15/10
f 11/10/11 16/16/11 10/8/11
f 12/2/12 17/17/12 11/10/12
f 19/18/13 18/19/13 13/12/13
f 14/13/14 19/18/14 13/12/14
f 15/14/15 20/20/15 14/13/15
f 16/16/16 21/21/16 15/14/16
f 23/22/17 16/16/17 17/17/17
f 24/23/18 17/17/18 18/19/18
f 19/18/19 30/24/19 24/23/19
f 26/25/20 19/18/20 20/20/20
f 27/26/21 20/20/21 21/21/21
f 28/27/22 21/21/22 22/28/22
f 23/22/23 28/27/23 22/28/23
f 24/23/24 29/29/24 23/22/24
f 25/30/25 36/31/25 30/24/25
f 32/32/26 25/30/26 26/25/26
f 33/33/27 26/25/27 27/26/27
f 34/34/28 27/26/28 28/27/28
f 29/29/29 34/34/29 28/27/29
f 30/24/30 35/35/30 29/29/30
f 37/36/31 36/31/31 31/37/31
f 38/38/32 31/37/32 32/32/32
f 33/33/33 38/38/33 32/32/33
f 34/34/34 39/39/34 33/33/34
f 35/35/35 40/40/35 34/34/35
f 42/41/36 35/35/36 36/31/36
f 2/4/37 1/1/37 5/11/37
f 43/42/38 54/43/38 49/44/38
f 44/45/39 49/44/39 50/46/39
f 45/47/40 50/46/40 51/48/40
f 45/47/41 52/49/41 46/50/41
f 46/50/42 53/51/42 47/52/42
f 47/52/43 54/43/43 48/53/43
f 54/43/44 55/54/44 49/44/44
f 49/44/45 56/55/45 50/46/45
f 50/46/46 57/56/46 51/48/46
f 52/49/47 57/56/47 58/57/47
f 53/51/48 58/57/48 59/58/48
f 54/43/49 59/58/49 60/59/49
f 60/59/50 61/60/50 55/54/50
f 56/55/51 61/60/51 62/61/51
f 57/56/52 62/61/52 63/62/52
f 58/57/53 63/62/53 64/63/53
f 58/57/54 65/64/54 59/58/54
f 59/58/55 66/65/55 60/59/55
f 61/60/56 72/66/56 67/67/56
f 61/60/57 68/68/57 62/61/57
f 62/61/58 69/69/58 63/62/58
f 63/62/59 70/70/59 64/63/59
f 65/64/60 70/70/60 71/71/60
f 66/65/61 71/71/61 72/66/61
f 67/67/62 78/72/62 73/73/62
f 67/67/63 74/74/63 68/68/63
f 68/68/64 75/75/64 69/69/64
f 69/69/65 76/76/65 70/70/65
f 71/71/66 76/76/66 77/77/66
f 72/66/67 77/77/67 78/72/67
f 78/72/68 37/36/68 73/73/68
f 73/73/69 38/38/69 74/74/69
f 75/75/70 38/38/70 39/39/70
f 76/76/71 39/39/71 40/40/71
f 77/77/72 40/40/72 41/78/72
f 77/77/73 42/41/73 78/72/73
f 45/47/74 46/50/74 47/52/74
f 1/1/75 7/5/75 12/2/75
f 2/4/76 8/7/76 7/5/76
f 3/6/77 9/15/77 8/7/77
f 10/8/78 9/15/78 3/6/78
f 11/10/79 10/8/79 4/9/79
f 12/2/80 11/10/80 5/11/80
f 13/12/81 18/19/81 12/2/81
f 14/13/82 13/12/82 7/5/82
f 15/14/83 14/13/83 8/7/83
f 10/8/84 16/16/84 15/14/84
f 11/10/85 17/17/85 16/16/85
f 12/2/86 18/19/86 17/17/86
f 19/18/87 24/23/87 18/19/87
f 14/13/88 20/20/88 19/18/88
f 15/14/89 21/21/89 20/20/89
f 16/16/90 22/28/90 21/21/90
f 23/22/91 22/28/91 16/16/91
f 24/23/92 23/22/92 17/17/92
f 19/18/93 25/30/93 30/24/93
f 26/25/94 25/30/94 19/18/94
f 27/26/95 26/25/95 20/20/95
f 28/27/96 27/26/96 21/21/96
f 23/22/97 29/29/97 28/27/97
f 24/23/98 30/24/98 29/29/98
f 25/30/99 31/37/99 36/31/99
f 32/32/100 31/37/100 25/30/100
f 33/33/101 32/32/101 26/25/101
f 34/34/102 33/33/102 27/26/102
f 29/29/103 35/35/103 34/34/103
f 30/24/104 36/31/104 35/35/104
f 37/36/105 42/41/105 36/31/105
f 38/38/106 37/36/106 31/37/106
f 33/33/107 39/39/107 38/38/107
f 34/34/108 40/40/108 39/39/108
f 35/35/109 41/78/109 40/40/109
f 42/41/110 41/78/110 35/35/110
f 1/1/37 6/3/37 5/11/37
f 5/11/37 4/9/37 3/6/37
f 3/6/37 2/4/37 5/11/37
f 43/42/111 48/53/111 54/43/111
f 44/45/112 43/42/112 49/44/112
f 45/47/113 44/45/113 50/46/113
f 45/47/114 51/48/114 52/49/114
f 46/50/115 52/49/115 53/51/115
f 47/52/116 53/51/116 54/43/116
f 54/43/117 60/59/117 55/54/117
f 49/44/118 55/54/118 56/55/118
f 50/46/119 56/55/119 57/56/119
f 52/49/120 51/48/120 57/56/120
f 53/51/121 52/49/121 58/57/121
f 54/43/122 53/51/122 59/58/122
f 60/59/123 66/65/123 61/60/123
f 56/55/124 55/54/124 61/60/124
f 57/56/125 56/55/125 62/61/125
f 58/57/126 57/56/126 63/62/126
f 58/57/127 64/63/127 65/64/127
f 59/58/128 65/64/128 66/65/128
f 61/60/129 66/65/129 72/66/129
f 61/60/130 67/67/130 68/68/130
f 62/61/131 68/68/131 69/69/131
f 63/62/132 69/69/132 70/70/132
f 65/64/133 64/63/133 70/70/133
f 66/65/134 65/64/134 71/71/134
f 67/67/135 72/66/135 78/72/135
f 67/67/136 73/73/136 74/74/136
f 68/68/137 74/74/137 75/75/137
f 69/69/138 75/75/138 76/76/138
f 71/71/139 70/70/139 76/76/139
f 72/66/140 71/71/140 77/77/140
f 78/72/141 42/41/141 37/36/141
f 73/73/142 37/36/142 38/38/142
f 75/75/143 74/74/143 38/38/143
f 76/76/144 75/75/144 39/39/144
f 77/77/145 76/76/145 40/40/145
f 77/77/146 41/78/146 42/41/146
f 47/52/74 48/53/74 45/47/74
f 48/53/74 43/42/74 45/47/74
f 43/42/74 44/45/74 45/47/74
o Prop_Bucket_01
v 0.142905 0.013575 -0.038291
v 0.104614 0.013575 -0.104614
v 0.038291 0.013575 -0.142905
v -0.038291 0.013575 -0.142905
v 0.038291 0.013575 0.142905
v 0.104614 0.013575 0.104614
v -0.142905 0.013575 0.038291
v -0.104614 0.013575 0.104614
v -0.104614 0.013575 -0.104614
v 0.142905 0.013575 0.038291
v -0.038291 0.013575 0.142905
v -0.142905 0.013575 -0.038291
v 0.107286 0.037376 -0.107286
v -0.039269 0.037376 -0.146555
v 0.107286 0.037376 0.107286
v -0.107286 0.037376 0.107286
v -0.107286 0.037376 -0.107286
v 0.146555 0.037376 0.039269
v -0.039269 0.037376 0.146555
v -0.146555 0.037376 -0.039269
v 0.146555 0.037376 -0.039269
v 0.039269 0.037376 -0.146555
v 0.039269 0.037376 0.146555
v -0.146555 0.037376 0.039269
v 0.043761 0.000000 -0.155255
v 0.039729 0.000000 -0.156335
v -0.043761 0.000000 -0.155255
v -0.039729 0.000000 -0.156335
v -0.115526 0.000000 -0.112574
v -0.112574 0.000000 -0.115526
v -0.156335 0.000000 -0.039729
v -0.155255 0.000000 -0.043761
v -0.156335 0.000000 0.039729
v -0.155255 0.000000 0.043761
v -0.112574 0.000000 0.115526
v -0.115526 0.000000 0.112574
v -0.039729 0.000000 0.156335
v -0.043761 0.000000 0.155255
v 0.039729 0.000000 0.156335
v 0.043761 0.000000 0.155255
v 0.115526 0.000000 0.112574
v 0.112574 0.000000 0.115526
v 0.156335 0.000000 0.039729
v 0.155255 0.000000 0.043761
v 0.156335 0.000000 -0.039729
v 0.155255 0.000000 -0.043761
v 0.112574 0.000000 -0.115526
v 0.115526 0.000000 -0.112574
v 0.057517 0.334795 -0.206594
v 0.053485 0.334795 -0.207674
v -0.057517 0.334795 -0.206594
v -0.053485 0.334795 -0.207674
v -0.153108 0.334795 -0.150157
v -0.150157 0.334795 -0.153108
v -0.207674 0.334795 -0.053485
v -0.206594 0.334795 -0.057517
v -0.207674 0.334795 0.053485
v -0.206594 0.334795 0.057517
v -0.150157 0.334795 0.153108
v -0.153108 0.334795 0.150157
v -0.053485 0.334795 0.207674
v -0.057517 0.334795 0.206594
v 0.053485 0.334795 0.207674
v 0.057517 0.334795 0.206594
v 0.153108 0.334795 0.150157
v 0.150157 0.334795 0.153108
v 0.207674 0.334795 0.053485
v 0.206594 0.334795 0.057517
v 0.207674 0.334795 -0.053485
v 0.206594 0.334795 -0.057517
v 0.150157 0.334795 -0.153108
v 0.153108 0.334795 -0.150157
v -0.037691 0.002487 -0.140665
v 0.037691 0.002487 -0.140665
v -0.102974 0.002487 -0.102974
v -0.140665 0.002487 -0.037691
v -0.140665 0.002487 0.037691
v -0.102974 0.002487 0.102974
v -0.037691 0.002487 0.140665
v 0.037691 0.002487 0.140665
v 0.102974 0.002487 0.102974
v 0.140665 0.002487 0.037691
v 0.140665 0.002487 -0.037691
v 0.102974 0.002487 -0.102974
v -0.051447 0.337282 -0.192003
v 0.051447 0.337282 -0.192003
v -0.140556 0.337282 -0.140556
v -0.192003 0.337282 -0.051447
v -0.192003 0.337282 0.051447
v -0.140556 0.337282 0.140556
v -0.051447 0.337282 0.192003
v 0.051447 0.337282 0.192003
v 0.140556 0.337282 0.140556
v 0.192003 0.337282 0.051447
v 0.192003 0.337282 -0.051447
v 0.140556 0.337282 -0.140556
v 0.146844 0.278996 -0.143894
v 0.143894 0.278996 -0.146844
v -0.051194 0.278996 -0.199118
v -0.055223 0.278996 -0.198038
v 0.143894 0.278996 0.146844
v 0.146844 0.278996 0.143894
v -0.146844 0.278996 0.143894
v -0.143894 0.278996 0.146844
v -0.143894 0.278996 -0.146844
v -0.146844 0.278996 -0.143894
v 0.198038 0.278996 0.055223
v 0.199118 0.278996 0.051194
v -0.055223 0.278996 0.198038
v -0.051194 0.278996 0.199118
v -0.198038 0.278996 -0.055223
v -0.199118 0.278996 -0.051194
v 0.199118 0.278996 -0.051194
v 0.198038 0.278996 -0.055223
v 0.055223 0.278996 -0.198038
v 0.051194 0.278996 -0.199118
v 0.051194 0.278996 0.199118
v 0.055223 0.278996 0.198038
v -0.199118 0.278996 0.051194
v -0.198038 0.278996 0.055223
v 0.163812 0.055799 -0.046052
v 0.164892 0.055799 -0.042024
v 0.042024 0.055799 -0.164892
v 0.046052 0.055799 -0.163812
v 0.046052 0.055799 0.163812
v 0.042024 0.055799 0.164892
v -0.163812 0.055799 0.046052
v -0.164892 0.055799 0.042024
v 0.121789 0.055799 -0.118839
v 0.118839 0.055799 -0.121789
v -0.042024 0.055799 -0.164892
v -0.046052 0.055799 -0.163812
v 0.118839 0.055799 0.121789
v 0.121789 0.055799 0.118839
v -0.121789 0.055799 0.118839
v -0.118839 0.055799 0.121789
v -0.118839 0.055799 -0.121789
v -0.121789 0.055799 -0.118839
v 0.163812 0.055799 0.046052
v 0.164892 0.055799 0.042024
v -0.046052 0.055799 0.163812
v -0.042024 0.055799 0.164892
v -0.163812 0.055799 -0.046052
v -0.164892 0.055799 -0.042024
v -0.207674 0.400796 -0.053485
v -0.192544 0.400796 -0.049430
v -0.192544 0.400796 0.049430
v -0.207674 0.400796 0.053485
v 0.207674 0.400796 0.053485
v 0.192544 0.400796 0.049430
v 0.192544 0.400796 -0.049430
v 0.207674 0.400796 -0.053485
v 0.207674 0.371053 0.014376
v 0.207674 0.372183 0.014376
v 0.192285 0.370404 0.010080
v 0.207674 0.360274 0.014376
v 0.192214 0.362061 0.010060
v 0.207674 0.380604 -0.005955
v 0.192336 0.376323 -0.004181
v 0.207674 0.360274 -0.014376
v 0.192214 0.362061 -0.010060
v 0.207674 0.372183 -0.014376
v 0.192285 0.370404 -0.010080
v 0.207674 0.351853 -0.005955
v 0.192164 0.356182 -0.004161
v 0.207674 0.351853 0.005955
v 0.192164 0.356182 0.004161
v 0.207674 0.380604 0.005955
v 0.192336 0.376323 0.004181
v -0.192285 0.370369 -0.009996
v -0.207674 0.372148 -0.014291
v -0.192214 0.362096 -0.009976
v -0.207674 0.360309 -0.014291
v -0.192335 0.376238 0.004146
v -0.207674 0.380520 0.005920
v -0.192285 0.370369 0.009996
v -0.207674 0.372148 0.014291
v -0.192214 0.362096 0.009976
v -0.207674 0.360309 0.014291
v -0.192165 0.356266 -0.004126
v -0.207674 0.351937 -0.005920
v -0.192335 0.376238 -0.004146
v -0.207674 0.380520 -0.005920
v -0.192165 0.356266 0.004126
v -0.207674 0.351937 0.005920
v -0.173636 0.067166 -0.046526
v -0.169806 0.042187 -0.045499
v -0.046526 0.067166 0.173636
v -0.045499 0.042187 0.169806
v 0.173636 0.067166 0.046526
v 0.169806 0.042187 0.045499
v -0.127110 0.067166 -0.127110
v -0.124306 0.042187 -0.124306
v -0.169806 0.042187 0.045499
v -0.173636 0.067166 0.046526
v -0.127110 0.067166 0.127110
v -0.124306 0.042187 0.124306
v 0.045499 0.042187 0.169806
v 0.046526 0.067166 0.173636
v 0.127110 0.067166 0.127110
v 0.124306 0.042187 0.124306
v 0.045499 0.042187 -0.169806
v 0.046526 0.067166 -0.173636
v -0.046526 0.067166 -0.173636
v -0.045499 0.042187 -0.169806
v 0.169806 0.042187 -0.045499
v 0.173636 0.067166 -0.046526
v 0.127110 0.067166 -0.127110
v 0.124306 0.042187 -0.124306
v 0.149361 0.265384 -0.149361
v 0.152166 0.290363 -0.152166
v 0.055696 0.290363 -0.207862
v 0.054670 0.265384 -0.204032
v -0.054670 0.265384 -0.204032
v -0.055696 0.290363 -0.207862
v 0.149361 0.265384 0.149361
v 0.152166 0.290363 0.152166
v -0.149361 0.265384 0.149361
v -0.152166 0.290363 0.152166
v -0.149361 0.265384 -0.149361
v -0.152166 0.290363 -0.152166
v 0.204032 0.265384 0.054670
v 0.207862 0.290363 0.055696
v 0.207862 0.290363 -0.055696
v 0.204032 0.265384 -0.054670
v -0.054670 0.265384 0.204032
v -0.055696 0.290363 0.207862
v 0.055696 0.290363 0.207862
v 0.054670 0.265384 0.204032
v -0.204032 0.265384 -0.054670
v -0.207862 0.290363 -0.055696
v -0.207862 0.290363 0.055696
v -0.204032 0.265384 0.054670
v 0.136028 0.291485 -0.136028
v 0.133436 0.266506 -0.133436
v -0.049790 0.291485 -0.185817
v -0.048841 0.266506 -0.182277
v 0.136028 0.291485 0.136028
v 0.133436 0.266506 0.133436
v -0.136028 0.291485 0.136028
v -0.133436 0.266506 0.133436
v -0.136028 0.291485 -0.136028
v -0.133436 0.266506 -0.133436
v 0.185817 0.291485 0.049790
v 0.182277 0.266506 0.048841
v -0.049790 0.291485 0.185817
v -0.048841 0.266506 0.182277
v -0.185817 0.291485 -0.049790
v -0.182277 0.266506 -0.048841
v 0.182277 0.266506 -0.048841
v 0.185817 0.291485 -0.049790
v 0.048841 0.266506 -0.182277
v 0.049790 0.291485 -0.185817
v 0.048841 0.266506 0.182277
v 0.049790 0.291485 0.185817
v -0.182277 0.266506 0.048841
v -0.185817 0.291485 0.049790
v 0.154182 0.068289 -0.041313
v 0.150641 0.043309 -0.040364
v 0.041313 0.068289 -0.154182
v 0.040364 0.043309 -0.150641
v 0.041313 0.068289 0.154182
v 0.040364 0.043309 0.150641
v -0.154182 0.068289 0.041313
v -0.150641 0.043309 0.040364
v 0.110277 0.043309 -0.110277
v 0.112869 0.068289 -0.112869
v -0.040364 0.043309 -0.150641
v -0.041313 0.068289 -0.154182
v 0.110277 0.043309 0.110277
v 0.112869 0.068289 0.112869
v -0.110277 0.043309 0.110277
v -0.112869 0.068289 0.112869
v -0.110277 0.043309 -0.110277
v -0.112869 0.068289 -0.112869
v 0.150641 0.043309 0.040364
v 0.154182 0.068289 0.041313
v -0.040364 0.043309 0.150641
v -0.041313 0.068289 0.154182
v -0.150641 0.043309 -0.040364
v -0.154182 0.068289 -0.041313
vn -0.0000 -1.0000 -0.0000
vn -0.0000 1.0000 -0.0000
vn -0.0000 0.1516 0.9884
vn -0.0784 0.9876 -0.1357
vn 0.1357 0.9876 0.0784
vn -0.0784 0.9876 0.1357
vn 0.0784 0.9876 -0.1357
vn -0.1357 0.9876 -0.0784
vn 1.0000 -0.0000 -0.0000
vn -0.0000 0.9876 0.1567
vn -1.0000 -0.0000 -0.0000
vn 0.1357 0.9876 -0.0784
vn 0.0784 0.9876 0.1357
vn -0.1357 0.9876 0.0784
vn 0.8560 -0.1516 -0.4942
vn 0.4942 0.1516 0.8560
vn -0.8560 0.1516 -0.4942
vn 0.4942 0.1516 -0.8560
vn 0.8560 0.1516 0.4942
vn -0.4942 0.1516 0.8560
vn -0.9884 0.1516 -0.0000
vn -0.0000 0.1516 -0.9884
vn 0.9884 0.1516 -0.0000
vn -0.8560 0.1516 0.4942
vn -0.4942 0.1516 -0.8560
vn 0.8560 0.1516 -0.4942
vn -0.4942 -0.1516 -0.8560
vn 0.9884 -0.1516 -0.0000
vn -0.0000 -0.1516 -0.9884
vn -0.8560 -0.1516 -0.4942
vn -0.8560 -0.1516 0.4942
vn -0.9884 -0.1516 -0.0000
vn -0.4942 -0.1516 0.8560
vn -0.0000 0.9876 -0.1567
vn -0.0000 -0.1516 0.9884
vn 0.4942 -0.1516 -0.8560
vn 0.4942 -0.1516 0.8560
vn 0.8560 -0.1516 0.4942
vn -0.1357 -0.9876 0.0784
vn -0.0784 -0.9876 0.1357
vn -0.0784 -0.9876 -0.1357
vn 0.1357 -0.9876 -0.0784
vn -0.0000 -0.9876 0.1567
vn 0.0784 -0.9876 0.1357
vn -0.1357 -0.9876 -0.0784
vn 0.0784 -0.9876 -0.1357
vn 0.1357 -0.9876 0.0784
vn -0.1567 -0.9876 -0.0000
vn -0.0000 -0.9876 -0.1567
vn 0.1567 -0.9876 -0.0000
vn -0.3810 -0.0204 0.9244
vn 0.1322 -0.0205 -0.9910
vn 0.9244 -0.0204 0.3810
vn -0.9910 -0.0205 -0.1322
vn 0.3810 -0.0204 -0.9244
vn -0.1322 -0.0205 0.9910
vn -0.7921 -0.0204 0.6100
vn 0.6100 -0.0205 -0.7922
vn 0.6100 -0.0204 0.7921
vn -0.7922 -0.0205 -0.6100
vn -0.3810 -0.0204 -0.9244
vn 0.1321 -0.0204 0.9910
vn 0.7921 -0.0204 -0.6100
vn -0.6100 -0.0205 0.7922
vn -0.9244 -0.0204 0.3810
vn 0.9910 -0.0204 -0.1321
vn -0.9910 -0.0204 0.1322
vn 0.9243 -0.0205 -0.3811
vn 0.9910 -0.0204 0.1322
vn -0.9243 -0.0204 -0.3811
vn -0.6100 -0.0204 -0.7921
vn 0.7922 -0.0205 0.6100
vn 0.3810 -0.0204 0.9244
vn -0.1321 -0.0204 -0.9910
vn -0.2587 0.0329 0.9654
vn 0.1290 -0.0000 0.9916
vn 0.2587 0.0329 -0.9654
vn 1.0000 0.0085 -0.0000
vn -0.1290 -0.0000 -0.9916
vn -1.0000 0.0085 -0.0000
vn -0.2689 0.6811 0.6811
vn -0.2689 -0.9632 -0.0000
vn -0.2689 -0.0000 -0.9632
vn 0.2689 -0.6811 0.6811
vn 0.2689 -0.0000 0.9632
vn -0.2689 -0.6811 0.6811
vn -0.2689 -0.0000 0.9632
vn 0.2689 0.6811 0.6811
vn 0.2689 0.6811 -0.6811
vn 0.2689 -0.0000 -0.9632
vn 0.2689 -0.6811 -0.6811
vn -0.2689 0.6811 -0.6811
vn 0.2689 0.9632 -0.0000
vn 0.2689 -0.9632 -0.0000
vn -0.2689 -0.6811 -0.6811
vn -0.2689 0.9632 -0.0000
vn -0.0000 -0.9987 -0.0515
vn -0.0292 -0.9983 -0.0506
vn -0.0446 -0.9987 -0.0258
vn -0.0000 -0.9987 0.0515
vn -0.0506 -0.9983 -0.0292
vn -0.0000 0.9987 -0.0508
vn -0.0000 0.9987 0.0508
vn 0.0288 0.9983 0.0499
vn 0.0440 0.9987 0.0254
vn 0.0499 0.9983 0.0288
vn -0.0258 -0.9987 -0.0446
vn 0.0585 -0.9983 -0.0000
vn 0.0258 -0.9987 -0.0446
vn 0.0254 0.9987 0.0440
vn 0.0515 -0.9987 -0.0000
vn -0.0576 0.9983 -0.0000
vn -0.0000 -0.9983 0.0585
vn 0.0292 -0.9983 0.0506
vn 0.0446 -0.9987 -0.0258
vn -0.0000 -0.9983 -0.0585
vn -0.0254 0.9987 0.0440
vn -0.0288 0.9983 -0.0499
vn -0.0440 0.9987 0.0254
vn -0.0508 0.9987 -0.0000
vn -0.0000 0.9983 0.0576
vn -0.0000 0.9983 -0.0576
vn 0.0446 -0.9987 0.0258
vn -0.0258 -0.9987 0.0446
vn -0.0585 -0.9983 -0.0000
vn -0.0292 -0.9983 0.0506
vn 0.0576 0.9983 -0.0000
vn -0.0506 -0.9983 0.0292
vn -0.0440 0.9987 -0.0254
vn 0.0288 0.9983 -0.0499
vn 0.0254 0.9987 -0.0440
vn 0.0506 -0.9983 0.0292
vn -0.0515 -0.9987 -0.0000
vn 0.0506 -0.9983 -0.0292
vn -0.0499 0.9983 -0.0288
vn 0.0499 0.9983 -0.0288
vn 0.0258 -0.9987 0.0446
vn 0.0508 0.9987 -0.0000
vn -0.0499 0.9983 0.0288
vn 0.0292 -0.9983 -0.0506
vn -0.0446 -0.9987 0.0258
vn -0.0254 0.9987 -0.0440
vn -0.0288 0.9983 0.0499
vn 0.0440 0.9987 -0.0254
vn -0.3811 -0.0204 0.9243
vn -0.3811 -0.0205 0.9243
vn 0.1322 -0.0204 -0.9910
vn 0.1321 -0.0204 -0.9910
vn 0.9243 -0.0204 0.3811
vn 0.9243 -0.0205 0.3811
vn -0.9910 -0.0204 -0.1322
vn -0.9910 -0.0204 -0.1321
vn 0.3811 -0.0204 -0.9243
vn 0.3811 -0.0205 -0.9243
vn -0.1322 -0.0204 0.9910
vn -0.1321 -0.0204 0.9910
vn -0.7922 -0.0204 0.6099
vn -0.7922 -0.0205 0.6100
vn 0.6100 -0.0204 -0.7921
vn 0.6099 -0.0204 -0.7922
vn 0.6099 -0.0204 0.7922
vn 0.6100 -0.0205 0.7922
vn -0.7921 -0.0204 -0.6100
vn -0.7922 -0.0204 -0.6099
vn -0.3811 -0.0205 -0.9243
vn -0.3811 -0.0204 -0.9243
vn 0.1322 -0.0204 0.9910
vn 0.1321 -0.0205 0.9910
vn 0.7922 -0.0204 -0.6099
vn 0.7922 -0.0205 -0.6100
vn -0.6100 -0.0204 0.7921
vn -0.6099 -0.0204 0.7922
vn -0.9243 -0.0205 0.3811
vn -0.9243 -0.0204 0.3811
vn 0.9910 -0.0204 -0.1322
vn 0.9910 -0.0205 -0.1321
vn -0.9910 -0.0204 0.1321
vn -0.9910 -0.0205 0.1321
vn 0.9244 -0.0204 -0.3810
vn 0.9243 -0.0204 -0.3811
vn 0.9910 -0.0205 0.1322
vn 0.9910 -0.0204 0.1321
vn -0.9244 -0.0204 -0.3810
vn -0.9243 -0.0205 -0.3811
vn -0.6099 -0.0204 -0.7922
vn -0.6100 -0.0205 -0.7922
vn 0.7921 -0.0204 0.6100
vn 0.7922 -0.0204 0.6099
vn 0.3811 -0.0205 0.9243
vn 0.3811 -0.0204 0.9243
vn -0.1322 -0.0204 -0.9910
vn -0.1322 -0.0205 -0.9910
vn -0.1290 -0.0000 0.9916
vn 0.2587 0.0329 0.9654
vn 0.1290 -0.0000 -0.9916
vn -0.2587 0.0329 -0.9654
vt 0.109759 0.982232
vt 0.110506 0.916479
vt 0.107717 0.934098
vt 0.110979 0.954701
vt 0.109770 0.983201
vt 0.108118 0.972770
vt 0.097178 0.900943
vt 0.095308 0.825448
vt 0.096890 0.825448
vt 0.074684 0.946166
vt 0.077712 0.945191
vt 0.074334 0.945191
vt 0.100127 0.900943
vt 0.099311 0.900382
vt 0.100433 0.900382
vt 0.095020 0.900943
vt 0.092949 0.900382
vt 0.094893 0.900382
vt 0.099249 0.900382
vt 0.097306 0.900382
vt 0.092072 0.900943
vt 0.092887 0.900382
vt 0.091765 0.900382
vt 0.087381 0.945191
vt 0.087381 0.951877
vt 0.081685 0.946166
vt 0.077859 0.945191
vt 0.081759 0.945191
vt 0.072236 0.963114
vt 0.072236 0.971062
vt 0.084934 0.946166
vt 0.087342 0.945191
vt 0.085392 0.945191
vt 0.081906 0.945191
vt 0.085284 0.945191
vt 0.072276 0.945191
vt 0.074226 0.945191
vt 0.084250 0.835832
vt 0.087030 0.923319
vt 0.085782 0.835832
vt 0.077933 0.946166
vt 0.076054 0.814935
vt 0.078434 0.814935
vt 0.099047 0.900943
vt 0.099050 0.825448
vt 0.098259 0.825448
vt 0.093151 0.900943
vt 0.093939 0.825448
vt 0.093148 0.825448
vt 0.086810 0.946166
vt 0.084938 0.814935
vt 0.081183 0.814935
vt 0.072808 0.946166
vt 0.074680 0.814935
vt 0.083563 0.814935
vt 0.075704 0.813960
vt 0.078130 0.835832
vt 0.078213 0.813960
vt 0.085509 0.813960
vt 0.085821 0.835832
vt 0.095025 0.887800
vt 0.097221 0.900382
vt 0.097173 0.887800
vt 0.092842 0.824887
vt 0.093544 0.837470
vt 0.093676 0.824887
vt 0.074454 0.923319
vt 0.072588 0.923319
vt 0.084021 0.813960
vt 0.085470 0.813960
vt 0.074108 0.813960
vt 0.073796 0.835832
vt 0.094941 0.887800
vt 0.093081 0.887800
vt 0.094977 0.900382
vt 0.075596 0.813960
vt 0.073836 0.835832
vt 0.074148 0.813960
vt 0.081675 0.923319
vt 0.077942 0.923319
vt 0.097017 0.824887
vt 0.098592 0.837470
vt 0.098460 0.824887
vt 0.095181 0.824887
vt 0.093606 0.837470
vt 0.093738 0.824887
vt 0.085056 0.923319
vt 0.081822 0.923319
vt 0.097257 0.887800
vt 0.099117 0.887800
vt 0.081257 0.813960
vt 0.078277 0.835832
vt 0.078360 0.813960
vt 0.100253 0.887800
vt 0.099179 0.887800
vt 0.074562 0.923319
vt 0.077795 0.923319
vt 0.083914 0.813960
vt 0.081488 0.835832
vt 0.081404 0.813960
vt 0.091945 0.887800
vt 0.093019 0.887800
vt 0.099356 0.824887
vt 0.098654 0.837470
vt 0.098522 0.824887
vt 0.085163 0.923319
vt 0.087069 0.923319
vt 0.072548 0.923319
vt 0.072236 0.945191
vt 0.081341 0.835832
vt 0.092663 0.837470
vt 0.075368 0.835832
vt 0.084142 0.835832
vt 0.095218 0.837470
vt 0.096981 0.837470
vt 0.095133 0.837470
vt 0.099535 0.837470
vt 0.075476 0.835832
vt 0.097065 0.837470
vt 0.095266 0.824887
vt 0.096932 0.824887
vt 0.077795 0.923319
vt 0.077942 0.923319
vt 0.081822 0.923319
vt 0.087381 0.971062
vt 0.086829 0.971062
vt 0.072788 0.971062
vt 0.072802 0.953607
vt 0.086816 0.953574
vt 0.072796 0.961436
vt 0.072236 0.951910
vt 0.072800 0.955893
vt 0.072236 0.955192
vt 0.087381 0.963147
vt 0.072798 0.959135
vt 0.072236 0.959833
vt 0.087381 0.959846
vt 0.086822 0.961469
vt 0.086820 0.959149
vt 0.087381 0.955178
vt 0.086817 0.955879
vt 0.087381 0.959403
vt 0.474749 0.737809
vt 0.474179 0.735571
vt 0.474211 0.737809
vt 0.475087 0.735895
vt 0.474731 0.733658
vt 0.474703 0.735895
vt 0.475484 0.737809
vt 0.475303 0.735571
vt 0.475215 0.737809
vt 0.474781 0.735571
vt 0.475415 0.733658
vt 0.475165 0.733658
vt 0.474206 0.787602
vt 0.474787 0.785365
vt 0.474174 0.785365
vt 0.474754 0.787603
vt 0.474174 0.785365
vt 0.474787 0.785365
vt 0.475102 0.785689
vt 0.474736 0.783452
vt 0.475180 0.783452
vt 0.475229 0.787603
vt 0.475625 0.785365
vt 0.475503 0.787602
vt 0.475436 0.783452
vt 0.475329 0.785689
vt 0.474781 0.735571
vt 0.473651 0.735895
vt 0.473545 0.733658
vt 0.473658 0.735571
vt 0.473746 0.737809
vt 0.475318 0.785365
vt 0.473477 0.737809
vt 0.473357 0.735571
vt 0.473631 0.785689
vt 0.473524 0.783452
vt 0.474258 0.735895
vt 0.474731 0.733658
vt 0.474703 0.735895
vt 0.473873 0.735895
vt 0.474230 0.733658
vt 0.474230 0.733658
vt 0.474258 0.735895
vt 0.473731 0.787603
vt 0.474206 0.787603
vt 0.473859 0.785689
vt 0.474224 0.783452
vt 0.473780 0.783452
vt 0.473336 0.785365
vt 0.473642 0.785365
vt 0.473457 0.787602
vt 0.474253 0.785689
vt 0.474708 0.785689
vt 0.475310 0.735895
vt 0.475087 0.735895
vt 0.473731 0.787602
vt 0.475229 0.787602
vt 0.474754 0.787602
vt 0.473796 0.733658
vt 0.475604 0.735571
vt 0.473873 0.735895
vt 0.474179 0.735571
vt 0.473642 0.785365
vt 0.475318 0.785365
vt 0.107717 0.954441
vt 0.108149 0.972060
vt 0.108896 0.982232
vt 0.110506 0.972060
vt 0.110938 0.954441
vt 0.110938 0.934098
vt 0.109759 0.906307
vt 0.108896 0.906307
vt 0.108149 0.916479
vt 0.107676 0.954701
vt 0.107676 0.933838
vt 0.108118 0.915770
vt 0.108885 0.905338
vt 0.109770 0.905338
vt 0.110537 0.915770
vt 0.110979 0.933838
vt 0.110537 0.972770
vt 0.108885 0.983201
vt 0.074454 0.923319
vt 0.074226 0.945191
vt 0.074562 0.923319
vt 0.085163 0.923319
vt 0.081675 0.923319
vt 0.085056 0.923319
vt 0.085284 0.945191
s 0
usemtl Texture_Map
f 81/79/147 84/80/147 85/81/147
f 99/82/148 100/83/148 95/84/148
f 164/85/149 151/86/149 152/87/149
f 165/88/150 129/89/150 132/90/150
f 172/91/151 143/92/151 146/93/151
f 169/94/152 137/95/152 140/96/152
f 164/85/153 149/97/153 127/98/153
f 166/99/154 131/100/154 134/101/154
f 145/102/155 147/102/155 244/103/155
f 170/104/156 139/105/156 141/106/156
f 261/107/157 226/108/157 223/108/157
f 174/109/158 148/110/158 150/111/158
f 171/109/159 142/112/159 144/113/159
f 168/88/160 136/114/160 138/115/160
f 207/116/161 192/117/161 199/118/161
f 163/119/162 153/120/162 151/121/162
f 171/122/163 160/123/163 159/124/163
f 168/125/164 157/86/164 156/126/164
f 165/125/165 154/127/165 153/126/165
f 174/122/166 152/87/166 162/124/166
f 172/128/167 161/129/167 160/129/167
f 169/119/168 158/130/168 157/121/168
f 166/131/169 155/132/169 154/132/169
f 173/128/170 162/133/170 161/129/170
f 170/104/171 159/133/171 158/130/171
f 167/131/172 156/120/172 155/132/172
f 108/134/173 210/135/173 105/136/173
f 123/137/174 218/138/174 121/137/174
f 177/139/175 128/140/175 194/141/175
f 110/142/176 216/143/176 107/144/176
f 181/145/177 136/114/177 198/146/177
f 126/147/161 199/118/161 124/148/161
f 111/149/178 222/150/178 109/149/178
f 187/151/179 137/95/179 182/152/179
f 163/94/180 128/140/180 130/153/180
f 114/154/177 205/155/177 112/156/177
f 195/157/181 139/105/181 188/158/181
f 103/159/182 208/160/182 125/161/182
f 116/162/179 214/163/179 113/164/179
f 179/165/183 142/112/183 196/166/183
f 193/167/182 149/97/182 176/168/182
f 117/169/181 220/170/181 115/171/181
f 185/172/184 143/92/184 180/173/184
f 183/174/173 129/89/173 178/175/173
f 120/176/183 203/177/183 118/178/183
f 189/179/176 131/100/176 184/180/176
f 122/181/184 212/182/184 119/183/184
f 175/184/161 148/110/161 192/117/161
f 191/185/174 145/102/174 186/185/174
f 197/186/178 133/187/178 190/186/178
f 206/150/178 190/186/178 222/150/178
f 204/188/181 188/158/181 220/170/181
f 200/138/174 186/185/174 218/138/174
f 221/189/176 184/180/176 216/143/176
f 213/190/177 198/146/177 205/155/177
f 211/191/183 196/166/183 203/177/183
f 209/192/175 194/141/175 201/193/175
f 219/194/179 182/152/179 214/163/179
f 217/195/184 180/173/184 212/182/184
f 215/196/173 178/175/173 210/135/173
f 202/197/182 176/168/182 208/160/182
f 124/148/185 162/133/185 126/147/185
f 162/124/186 103/159/186 125/161/186
f 118/178/187 159/133/187 120/176/187
f 112/156/188 156/120/188 114/154/188
f 152/87/189 106/198/189 104/199/189
f 105/136/190 153/120/190 108/134/190
f 159/124/191 122/181/191 119/183/191
f 156/126/192 116/162/192 113/164/192
f 153/126/193 110/142/193 107/144/193
f 160/129/194 123/137/194 121/137/194
f 157/121/195 117/169/195 115/171/195
f 154/132/196 111/149/196 109/149/196
f 154/132/197 166/131/197 189/146/197
f 154/132/198 109/149/198 222/150/198
f 157/121/199 169/119/199 187/200/199
f 157/121/200 115/171/200 220/170/200
f 160/129/201 172/128/201 185/117/201
f 160/129/202 121/137/202 218/138/202
f 153/120/203 165/88/203 183/174/203
f 153/120/204 107/154/204 216/190/204
f 156/120/205 168/88/205 181/145/205
f 156/120/206 113/134/206 214/196/206
f 167/131/207 155/132/207 205/155/207
f 167/131/208 135/187/208 197/186/208
f 159/133/209 171/109/209 179/165/209
f 159/133/210 119/147/210 212/116/210
f 170/104/211 158/130/211 203/177/211
f 170/104/212 141/106/212 195/157/212
f 151/121/213 163/119/213 177/201/213
f 151/121/214 105/136/214 210/135/214
f 164/104/215 152/130/215 201/188/215
f 164/104/216 127/112/216 193/202/216
f 162/133/217 174/109/217 175/184/217
f 162/133/218 125/176/218 208/191/218
f 173/128/219 161/129/219 199/118/219
f 173/128/220 147/102/220 191/185/220
f 106/198/175 201/193/175 104/199/175
f 230/203/148 228/204/148 227/203/148
f 226/108/148 224/205/148 223/108/148
f 172/128/221 227/203/221 228/204/221
f 167/131/222 226/108/222 135/187/222
f 166/131/223 223/108/223 224/205/223
f 167/131/224 166/131/224 262/206/224
f 173/128/225 230/203/225 147/102/225
f 173/128/226 172/128/226 243/207/226
f 225/205/224 260/208/224 224/205/224
f 259/209/227 250/210/227 251/211/227
f 227/203/155 236/212/155 230/203/155
f 260/208/228 253/107/228 261/107/228
f 254/213/229 257/211/229 255/214/229
f 263/209/157 133/187/157 135/187/157
f 240/215/230 237/216/230 241/217/230
f 238/218/231 241/217/231 239/219/231
f 229/204/226 247/216/226 228/204/226
f 249/214/232 260/208/232 261/107/232
f 251/211/233 248/213/233 249/214/233
f 242/103/234 239/219/234 243/207/234
f 235/219/235 244/103/235 245/207/235
f 231/220/236 234/218/236 235/219/236
f 247/216/237 232/215/237 233/217/237
f 256/210/238 263/209/238 257/211/238
f 244/103/239 243/207/239 245/207/239
f 236/212/240 247/216/240 237/216/240
f 252/208/241 255/214/241 253/107/241
f 262/206/242 259/209/242 263/209/242
f 332/221/243 304/222/243 325/223/243
f 348/224/244 276/225/244 341/226/244
f 323/227/245 294/228/245 317/229/245
f 315/223/246 291/230/246 330/221/246
f 348/224/247 269/231/247 279/232/247
f 314/233/248 290/234/248 293/235/248
f 333/236/249 305/237/249 306/238/249
f 349/239/250 277/240/250 278/241/250
f 316/242/251 301/243/251 322/244/251
f 349/239/252 268/245/252 355/246/252
f 317/229/253 307/247/253 332/221/253
f 343/248/254 265/249/254 358/248/254
f 325/223/255 296/250/255 319/251/255
f 316/242/256 306/238/256 295/252/256
f 334/253/257 308/254/257 327/253/257
f 359/255/258 273/256/258 342/255/258
f 346/257/259 280/258/259 339/259/259
f 352/260/260 283/261/260 346/257/260
f 319/251/261 311/254/261 334/253/261
f 341/226/262 267/262/262 356/263/262
f 318/264/263 305/237/263 324/265/263
f 353/266/264 282/267/264 270/268/264
f 318/264/265 310/269/265 297/270/265
f 335/271/266 309/269/266 310/269/266
f 357/272/267 277/240/267 340/273/267
f 338/273/268 282/267/268 347/272/268
f 327/253/269 298/250/269 321/251/269
f 330/221/270 288/228/270 313/229/270
f 337/274/271 269/231/271 354/274/271
f 344/275/272 280/258/272 287/232/272
f 355/246/273 285/245/273 336/246/273
f 344/275/274 284/231/274 337/274/274
f 320/276/275 309/269/275 326/271/275
f 345/239/276 281/240/276 338/273/276
f 312/277/277 290/234/277 331/278/277
f 352/260/278 265/249/278 271/279/278
f 328/227/279 300/280/279 323/227/279
f 350/281/280 272/249/280 343/248/280
f 353/266/281 264/256/281 359/255/281
f 345/239/282 285/245/282 286/241/282
f 321/251/283 292/282/283 315/223/283
f 329/244/284 301/243/284 302/243/284
f 351/266/285 273/256/285 274/268/285
f 350/281/286 267/262/286 275/279/286
f 313/229/287 303/280/287 328/227/287
f 320/276/288 293/235/288 299/283/288
f 351/266/289 266/267/289 357/272/289
f 312/277/290 302/243/290 289/284/290
f 264/256/178 272/249/178 273/256/178
f 266/267/181 276/225/181 277/240/181
f 268/245/174 284/231/174 285/245/174
f 270/268/176 265/249/176 264/256/176
f 274/268/179 267/262/179 266/267/179
f 278/241/184 269/231/184 268/245/184
f 282/267/173 271/279/173 270/268/173
f 286/241/182 280/258/182 281/240/182
f 273/256/177 275/279/177 274/268/177
f 277/240/183 279/232/183 278/241/183
f 281/240/175 283/261/175 282/267/175
f 285/245/161 287/232/161 286/241/161
f 289/284/161 303/280/161 288/228/161
f 290/234/175 292/282/175 293/235/175
f 295/252/183 307/247/183 294/228/183
f 297/270/177 311/254/177 296/250/177
f 290/234/182 288/228/182 291/230/182
f 299/283/173 292/282/173 298/250/173
f 301/243/184 294/228/184 300/280/184
f 305/237/179 296/250/179 304/222/179
f 309/269/176 298/250/176 308/254/176
f 301/243/174 303/280/174 302/243/174
f 305/237/181 307/247/181 306/238/181
f 309/269/178 311/254/178 310/269/178
f 85/81/147 90/285/147 87/286/147
f 87/286/147 82/287/147 81/79/147
f 81/79/147 80/288/147 79/289/147
f 79/289/147 88/290/147 84/80/147
f 84/80/147 83/291/147 89/292/147
f 89/292/147 86/293/147 85/81/147
f 85/81/147 87/286/147 81/79/147
f 81/79/147 79/289/147 84/80/147
f 84/80/147 89/292/147 85/81/147
f 95/84/148 98/294/148 102/295/148
f 102/295/148 94/296/148 95/84/148
f 94/296/148 97/297/148 95/84/148
f 97/297/148 101/298/148 93/299/148
f 93/299/148 96/300/148 99/82/148
f 99/82/148 91/301/148 100/83/148
f 100/83/148 92/302/148 95/84/148
f 97/297/148 93/299/148 95/84/148
f 93/299/148 99/82/148 95/84/148
f 164/85/149 163/94/149 151/86/149
f 165/88/150 163/119/150 129/89/150
f 172/91/151 171/122/151 143/92/151
f 169/94/152 168/125/152 137/95/152
f 164/85/153 174/122/153 149/97/153
f 166/99/154 165/125/154 131/100/154
f 147/102/155 230/203/155 240/215/155
f 147/102/155 240/215/155 238/218/155
f 231/220/155 227/203/155 145/102/155
f 234/218/155 231/220/155 145/102/155
f 147/102/155 238/218/155 242/103/155
f 244/103/155 234/218/155 145/102/155
f 147/102/155 242/103/155 244/103/155
f 170/104/156 169/119/156 139/105/156
f 223/108/157 133/187/157 249/214/157
f 133/187/157 251/211/157 249/214/157
f 253/107/157 255/214/157 226/108/157
f 223/108/157 249/214/157 261/107/157
f 261/107/157 253/107/157 226/108/157
f 174/109/158 173/128/158 148/110/158
f 171/109/159 170/104/159 142/112/159
f 168/88/160 167/131/160 136/114/160
f 207/116/161 175/184/161 192/117/161
f 163/119/162 165/88/162 153/120/162
f 171/122/163 172/91/163 160/123/163
f 168/125/164 169/94/164 157/86/164
f 165/125/165 166/99/165 154/127/165
f 174/122/166 164/85/166 152/87/166
f 172/128/167 173/128/167 161/129/167
f 169/119/168 170/104/168 158/130/168
f 166/131/169 167/131/169 155/132/169
f 173/128/170 174/109/170 162/133/170
f 170/104/171 171/109/171 159/133/171
f 167/131/172 168/88/172 156/120/172
f 108/134/173 215/196/173 210/135/173
f 123/137/174 200/138/174 218/138/174
f 177/139/175 130/153/175 128/140/175
f 110/142/176 221/189/176 216/143/176
f 181/145/177 138/115/177 136/114/177
f 126/147/161 207/116/161 199/118/161
f 111/149/178 206/150/178 222/150/178
f 187/151/179 140/96/179 137/95/179
f 163/94/180 164/85/180 128/140/180
f 114/154/177 213/190/177 205/155/177
f 195/157/181 141/106/181 139/105/181
f 103/159/182 202/197/182 208/160/182
f 116/162/179 219/194/179 214/163/179
f 179/165/183 144/113/183 142/112/183
f 193/167/182 127/98/182 149/97/182
f 117/169/181 204/188/181 220/170/181
f 185/172/184 146/93/184 143/92/184
f 183/174/173 132/90/173 129/89/173
f 120/176/183 211/191/183 203/177/183
f 189/179/176 134/101/176 131/100/176
f 122/181/184 217/195/184 212/182/184
f 175/184/161 150/111/161 148/110/161
f 191/185/174 147/102/174 145/102/174
f 197/186/178 135/187/178 133/187/178
f 206/150/178 197/186/178 190/186/178
f 204/188/181 195/157/181 188/158/181
f 200/138/174 191/185/174 186/185/174
f 221/189/176 189/179/176 184/180/176
f 213/190/177 181/145/177 198/146/177
f 211/191/183 179/165/183 196/166/183
f 209/192/175 177/139/175 194/141/175
f 219/194/179 187/151/179 182/152/179
f 217/195/184 185/172/184 180/173/184
f 215/196/173 183/174/173 178/175/173
f 202/197/182 193/167/182 176/168/182
f 124/148/185 161/129/185 162/133/185
f 162/124/186 152/87/186 103/159/186
f 118/178/187 158/130/187 159/133/187
f 112/156/188 155/132/188 156/120/188
f 152/87/189 151/86/189 106/198/189
f 105/136/190 151/121/190 153/120/190
f 159/124/191 160/123/191 122/181/191
f 156/126/192 157/86/192 116/162/192
f 153/126/193 154/127/193 110/142/193
f 160/129/194 161/129/194 123/137/194
f 157/121/195 158/130/195 117/169/195
f 154/132/196 155/132/196 111/149/196
f 166/131/291 134/114/291 189/146/291
f 189/146/197 221/155/197 154/132/197
f 221/155/292 110/156/292 154/132/292
f 222/150/293 190/186/293 166/131/293
f 190/186/294 133/187/294 166/131/294
f 166/131/293 154/132/293 222/150/293
f 169/119/295 140/89/295 187/200/295
f 187/200/199 219/135/199 157/121/199
f 219/135/296 116/136/296 157/121/296
f 220/170/297 188/158/297 169/119/297
f 188/158/298 139/105/298 169/119/298
f 169/119/297 157/121/297 220/170/297
f 172/128/299 146/110/299 185/117/299
f 185/117/201 217/118/201 160/129/201
f 217/118/300 122/148/300 160/129/300
f 218/138/301 186/185/301 172/128/301
f 186/185/302 145/102/302 172/128/302
f 172/128/301 160/129/301 218/138/301
f 165/88/303 132/90/303 183/174/303
f 183/174/203 215/196/203 153/120/203
f 215/196/304 108/134/304 153/120/304
f 216/190/305 184/303/305 165/88/305
f 184/303/306 131/304/306 165/88/306
f 165/88/305 153/120/305 216/190/305
f 168/88/307 138/115/307 181/145/307
f 181/145/205 213/190/205 156/120/205
f 213/190/308 114/154/308 156/120/308
f 214/196/309 182/305/309 168/88/309
f 182/305/310 137/90/310 168/88/310
f 168/88/309 156/120/309 214/196/309
f 155/132/311 112/156/311 205/155/311
f 205/155/207 198/146/207 167/131/207
f 198/146/312 136/114/312 167/131/312
f 197/186/313 206/150/313 155/132/313
f 206/150/314 111/149/314 155/132/314
f 155/132/313 167/131/313 197/186/313
f 171/109/315 144/113/315 179/165/315
f 179/165/209 211/191/209 159/133/209
f 211/191/316 120/176/316 159/133/316
f 212/116/317 180/306/317 171/109/317
f 180/306/318 143/111/318 171/109/318
f 171/109/317 159/133/317 212/116/317
f 158/130/319 118/178/319 203/177/319
f 203/177/211 196/166/211 170/104/211
f 196/166/320 142/112/320 170/104/320
f 195/157/321 204/188/321 158/130/321
f 204/188/322 117/169/322 158/130/322
f 158/130/321 170/104/321 195/157/321
f 163/119/323 130/105/323 177/201/323
f 177/201/213 209/170/213 151/121/213
f 209/170/324 106/171/324 151/121/324
f 210/135/325 178/175/325 163/119/325
f 178/175/326 129/89/326 163/119/326
f 163/119/325 151/121/325 210/135/325
f 152/130/327 104/169/327 201/188/327
f 201/188/215 194/307/215 164/104/215
f 194/307/328 128/106/328 164/104/328
f 193/202/329 202/177/329 152/130/329
f 202/177/330 103/178/330 152/130/330
f 152/130/329 164/104/329 193/202/329
f 174/109/331 150/111/331 175/184/331
f 175/184/217 207/116/217 162/133/217
f 207/116/332 126/147/332 162/133/332
f 208/191/333 176/308/333 174/109/333
f 176/308/334 149/309/334 174/109/334
f 174/109/333 162/133/333 208/191/333
f 161/129/335 124/148/335 199/118/335
f 199/118/219 192/117/219 173/128/219
f 192/117/336 148/110/336 173/128/336
f 191/185/337 200/138/337 161/129/337
f 200/138/338 123/137/338 161/129/338
f 161/129/337 173/128/337 191/185/337
f 106/198/175 209/192/175 201/193/175
f 230/203/148 229/204/148 228/204/148
f 226/108/148 225/205/148 224/205/148
f 172/128/339 145/102/339 227/203/339
f 167/131/340 225/205/340 226/108/340
f 166/131/341 133/187/341 223/108/341
f 166/131/224 224/205/224 248/213/224
f 166/131/224 248/213/224 250/210/224
f 254/213/224 225/205/224 167/131/224
f 256/210/224 254/213/224 167/131/224
f 166/131/224 250/210/224 258/206/224
f 262/206/224 256/210/224 167/131/224
f 166/131/224 258/206/224 262/206/224
f 173/128/342 229/204/342 230/203/342
f 172/128/226 228/204/226 233/217/226
f 172/128/226 233/217/226 235/219/226
f 241/217/226 229/204/226 173/128/226
f 239/219/226 241/217/226 173/128/226
f 172/128/226 235/219/226 245/207/226
f 243/207/226 239/219/226 173/128/226
f 172/128/226 245/207/226 243/207/226
f 225/205/224 254/213/224 252/208/224
f 260/208/224 248/213/224 224/205/224
f 225/205/224 252/208/224 260/208/224
f 259/209/227 258/206/227 250/210/227
f 227/203/155 231/220/155 232/215/155
f 227/203/155 232/215/155 246/212/155
f 236/212/155 240/215/155 230/203/155
f 227/203/155 246/212/155 236/212/155
f 260/208/228 252/208/228 253/107/228
f 254/213/229 256/210/229 257/211/229
f 135/187/157 226/108/157 255/214/157
f 135/187/157 255/214/157 257/211/157
f 259/209/157 251/211/157 133/187/157
f 135/187/157 257/211/157 263/209/157
f 263/209/157 259/209/157 133/187/157
f 240/215/230 236/212/230 237/216/230
f 238/218/231 240/215/231 241/217/231
f 229/204/226 241/217/226 237/216/226
f 247/216/226 233/217/226 228/204/226
f 229/204/226 237/216/226 247/216/226
f 249/214/232 248/213/232 260/208/232
f 251/211/233 250/210/233 248/213/233
f 242/103/234 238/218/234 239/219/234
f 235/219/235 234/218/235 244/103/235
f 235/219/236 233/217/236 231/220/236
f 233/217/236 232/215/236 231/220/236
f 247/216/237 246/212/237 232/215/237
f 256/210/238 262/206/238 263/209/238
f 244/103/239 242/103/239 243/207/239
f 236/212/240 246/212/240 247/216/240
f 252/208/241 254/213/241 255/214/241
f 262/206/242 258/206/242 259/209/242
f 332/221/243 307/247/243 304/222/243
f 348/224/244 279/232/244 276/225/244
f 323/227/245 300/280/245 294/228/245
f 315/223/246 292/282/246 291/230/246
f 348/224/247 354/274/247 269/231/247
f 314/233/248 331/278/248 290/234/248
f 333/236/249 324/265/249 305/237/249
f 349/239/250 340/273/250 277/240/250
f 316/242/251 295/252/251 301/243/251
f 349/239/252 278/241/252 268/245/252
f 317/229/253 294/228/253 307/247/253
f 343/248/254 272/249/254 265/249/254
f 325/223/255 304/222/255 296/250/255
f 316/242/256 333/236/256 306/238/256
f 334/253/257 311/254/257 308/254/257
f 359/255/258 264/256/258 273/256/258
f 346/257/259 283/261/259 280/258/259
f 352/260/260 271/279/260 283/261/260
f 319/251/261 296/250/261 311/254/261
f 341/226/262 276/225/262 267/262/262
f 318/264/263 297/270/263 305/237/263
f 353/266/264 347/272/264 282/267/264
f 318/264/265 335/271/265 310/269/265
f 335/271/266 326/271/266 309/269/266
f 357/272/267 266/267/267 277/240/267
f 338/273/268 281/240/268 282/267/268
f 327/253/269 308/254/269 298/250/269
f 330/221/270 291/230/270 288/228/270
f 337/274/271 284/231/271 269/231/271
f 344/275/272 339/259/272 280/258/272
f 355/246/273 268/245/273 285/245/273
f 344/275/274 287/232/274 284/231/274
f 320/276/275 299/283/275 309/269/275
f 345/239/276 286/241/276 281/240/276
f 312/277/277 289/284/277 290/234/277
f 352/260/278 358/248/278 265/249/278
f 328/227/279 303/280/279 300/280/279
f 350/281/280 275/279/280 272/249/280
f 353/266/281 270/268/281 264/256/281
f 345/239/282 336/246/282 285/245/282
f 321/251/283 298/250/283 292/282/283
f 329/244/284 322/244/284 301/243/284
f 351/266/285 342/255/285 273/256/285
f 350/281/286 356/263/286 267/262/286
f 313/229/287 288/228/287 303/280/287
f 320/276/288 314/233/288 293/235/288
f 351/266/289 274/268/289 266/267/289
f 312/277/290 329/244/290 302/243/290
f 264/256/178 265/249/178 272/249/178
f 266/267/181 267/262/181 276/225/181
f 268/245/174 269/231/174 284/231/174
f 270/268/176 271/279/176 265/249/176
f 274/268/179 275/279/179 267/262/179
f 278/241/184 279/232/184 269/231/184
f 282/267/173 283/261/173 271/279/173
f 286/241/182 287/232/182 280/258/182
f 273/256/177 272/249/177 275/279/177
f 277/240/183 276/225/183 279/232/183
f 281/240/175 280/258/175 283/261/175
f 285/245/161 284/231/161 287/232/161
f 289/284/161 302/243/161 303/280/161
f 290/234/175 291/230/175 292/282/175
f 295/252/183 306/238/183 307/247/183
f 297/270/177 310/269/177 311/254/177
f 290/234/182 289/284/182 288/228/182
f 299/283/173 293/235/173 292/282/173
f 301/243/184 295/252/184 294/228/184
f 305/237/179 297/270/179 296/250/179
f 309/269/176 299/283/176 298/250/176
f 301/243/174 300/280/174 303/280/174
f 305/237/181 304/222/181 307/247/181
f 309/269/178 308/254/178 311/254/178
