# Blender 4.4.0
# www.blender.org
mtllib Tool_Broom_01.mtl
o Tool_Broom_01
v 0.008445 0.567254 -0.010751
v 0.015889 0.567254 0.000270
v 0.008445 0.567254 0.011291
v -0.009527 0.567254 0.015856
v -0.027500 0.567254 0.011291
v -0.034944 0.567254 0.000270
v -0.027500 0.567254 -0.010751
v -0.009527 0.567254 -0.015316
v 0.030247 0.551195 -0.024121
v 0.046722 0.551195 0.000270
v 0.030247 0.551195 0.024661
v -0.009527 0.551195 0.034764
v -0.049302 0.551195 0.024661
v -0.065777 0.551195 0.000270
v -0.049302 0.551195 -0.024121
v -0.009527 0.551195 -0.034224
v 0.085510 0.462874 -0.058010
v 0.124876 0.462874 0.000270
v 0.085510 0.462874 0.058550
v -0.009527 0.462874 0.082691
v -0.104565 0.462874 0.058550
v -0.143931 0.462874 0.000270
v -0.104565 0.462874 -0.058010
v -0.009527 0.462874 -0.082151
v -0.009527 0.226077 -0.108949
v 0.116791 0.226077 -0.077193
v -0.135846 0.226077 -0.075913
v -0.009527 0.226077 0.113826
v 0.169585 0.226077 0.000270
v 0.116791 0.226077 0.078535
v -0.135846 0.226077 0.082423
v -0.188169 0.226077 0.002949
v 0.180093 -0.011216 -0.107704
v 0.290894 -0.009005 0.000370
v 0.200674 -0.011167 0.105478
v -0.006035 0.018217 0.139693
v -0.192356 0.008564 0.117610
v -0.274944 0.027173 -0.005832
v -0.181154 -0.006792 -0.103381
v -0.010150 0.000098 -0.174845
v -0.072939 0.250448 0.096475
v -0.069321 0.226077 0.097506
v 0.049600 0.218993 0.097363
v 0.052399 0.233682 0.092461
v 0.088346 -0.010184 0.129530
v 0.076420 -0.001450 0.134810
v -0.082870 -0.004487 0.140186
v -0.103852 -0.010101 0.140659
v 0.151751 0.183421 0.044472
v 0.139587 0.226077 0.036169
v 0.255225 0.006558 0.048897
v 0.253967 -0.011015 0.055483
v 0.144633 0.226077 -0.036021
v 0.133030 0.273071 -0.039067
v 0.252494 -0.010961 -0.051726
v 0.259950 -0.010800 -0.048504
v 0.055655 0.226077 -0.092601
v 0.049019 0.260385 -0.088696
v 0.081488 0.003019 -0.138254
v 0.090205 -0.012367 -0.138944
v -0.070661 0.226077 -0.092848
v -0.069330 0.283694 -0.084965
v -0.102373 -0.010761 -0.135591
v -0.098138 -0.012562 -0.139999
v -0.160748 0.226077 -0.038288
v -0.153338 0.256832 -0.032561
v -0.246744 0.011244 -0.042018
v -0.245911 0.008643 -0.047716
v -0.170811 0.192780 0.043292
v -0.160976 0.220380 0.044089
v -0.240115 0.024089 0.062872
v -0.245123 0.025263 0.058924
v -0.009527 0.634031 -0.020823
v -0.024442 0.634031 -0.014645
v -0.030620 0.634031 0.000270
v -0.024442 0.634031 0.015185
v -0.009527 0.634031 0.021363
v 0.005387 0.634031 0.015185
v 0.011565 0.634031 0.000270
v 0.005387 0.634031 -0.014645
v -0.009527 0.634031 -0.025599
v -0.027820 0.634031 -0.018022
v -0.035397 0.634031 0.000270
v -0.027820 0.634031 0.018562
v -0.009527 0.634031 0.026139
v 0.008765 0.634031 0.018562
v 0.016342 0.634031 0.000270
v 0.008765 0.634031 -0.018022
v -0.009527 0.613860 -0.018038
v -0.022473 0.613860 -0.012676
v -0.027836 0.613860 0.000270
v -0.022473 0.613860 0.013216
v -0.009527 0.613860 0.018578
v 0.003418 0.613860 0.013216
v 0.008781 0.613860 0.000270
v 0.003418 0.613860 -0.012676
v -0.009527 0.605988 -0.025641
v -0.027849 0.605988 -0.018052
v -0.035439 0.605988 0.000270
v -0.027849 0.605988 0.018592
v -0.009527 0.605988 0.026181
v 0.008794 0.605988 0.018592
v 0.016384 0.605988 0.000270
v 0.008794 0.605988 -0.018052
v -0.009527 0.551883 -0.025147
v -0.027500 0.551883 -0.017702
v -0.034944 0.551883 0.000270
v -0.027500 0.551883 0.018242
v -0.009527 0.551883 0.025687
v 0.008445 0.551883 0.018242
v 0.015889 0.551883 0.000270
v 0.008445 0.551883 -0.017702
v -0.009545 1.700747 -0.010981
v -0.009544 1.689146 -0.018841
v -0.023046 1.689146 -0.013248
v -0.017489 1.700747 -0.007690
v -0.028639 1.689146 0.000254
v -0.020779 1.700747 0.000254
v -0.023046 1.689146 0.013756
v -0.017489 1.700747 0.008198
v -0.009544 1.689146 0.019349
v -0.009545 1.700747 0.011488
v 0.003958 1.689146 0.013756
v -0.001601 1.700747 0.008198
v 0.009551 1.689146 0.000254
v 0.001690 1.700747 0.000254
v 0.003958 1.689146 -0.013248
v -0.001601 1.700747 -0.007690
vn -0.1623 0.7521 0.6388
vn -0.4410 0.8467 -0.2978
vn 0.1623 0.7521 0.6388
vn 0.1623 0.7521 -0.6388
vn 0.4410 0.8467 -0.2978
vn -0.1623 0.7521 -0.6388
vn -0.4410 0.8467 0.2978
vn 0.4410 0.8467 0.2978
vn 0.2179 0.4655 0.8578
vn 0.2179 0.4655 -0.8578
vn 0.6683 0.5913 -0.4514
vn -0.2179 0.4655 -0.8578
vn -0.6683 0.5913 0.4514
vn 0.6683 0.5913 0.4514
vn -0.2179 0.4655 0.8578
vn -0.6683 0.5913 -0.4514
vn 0.3190 0.2041 -0.9255
vn -0.7573 0.3049 0.5775
vn 0.7567 0.3958 -0.5203
vn -0.8131 0.2217 -0.5382
vn 0.8361 0.3441 0.4272
vn -0.2451 0.2720 -0.9306
vn 0.2799 0.1232 0.9521
vn -0.2845 0.1930 0.9390
vn 0.2226 0.1111 0.9686
vn -0.7634 0.1355 -0.6315
vn -0.2160 0.1273 0.9681
vn 0.2281 0.1791 0.9570
vn 0.7594 0.1434 0.6346
vn -0.8367 0.1538 0.5256
vn 0.0729 -0.9920 -0.1033
vn -0.2208 0.1025 -0.9699
vn 0.8270 0.1531 -0.5409
vn 0.2677 0.1084 -0.9574
vn 0.5174 0.2041 0.8310
vn -0.0269 0.1835 0.9827
vn -0.2616 0.1149 0.9583
vn 0.4506 0.2848 0.8461
vn 0.7020 0.4038 0.5866
vn 0.3815 0.2329 -0.8945
vn 0.6719 0.3125 -0.6714
vn 0.3256 0.2256 -0.9182
vn 0.2074 0.2101 -0.9554
vn -0.6577 0.2182 -0.7210
vn -0.2953 0.1940 -0.9355
vn -0.8857 0.3596 -0.2937
vn -0.8003 0.3238 -0.5046
vn -0.5416 0.3131 0.7801
vn -0.8191 0.2926 0.4935
vn 0.9239 0.0018 0.3827
vn -0.3827 0.0018 0.9239
vn 0.9239 0.0018 -0.3827
vn 0.3827 0.0018 0.9239
vn -0.9239 0.0017 0.3827
vn -0.9239 0.0017 -0.3827
vn -0.0000 1.0000 -0.0000
vn 0.8730 -0.3272 0.3616
vn -0.3616 -0.3272 0.8730
vn -0.8730 -0.3272 -0.3616
vn 0.8730 -0.3272 -0.3616
vn 0.3616 -0.3272 0.8730
vn -0.8730 -0.3272 0.3616
vn -0.3616 -0.3272 -0.8730
vn 0.3616 -0.3272 -0.8730
vn -0.2855 0.6658 -0.6893
vn 0.2855 0.6658 -0.6893
vn 0.6893 0.6658 0.2855
vn -0.2855 0.6658 0.6893
vn -0.6893 0.6658 -0.2855
vn 0.6893 0.6658 -0.2855
vn 0.2855 0.6658 0.6893
vn -0.6893 0.6658 0.2855
vn 0.9238 -0.0084 -0.3827
vn 0.3827 -0.0084 0.9238
vn -0.9238 -0.0084 0.3827
vn -0.3827 -0.0084 -0.9238
vn 0.3827 -0.0084 -0.9238
vn 0.9238 -0.0084 0.3827
vn -0.3827 -0.0084 0.9238
vn -0.9238 -0.0084 -0.3827
vn -0.3827 0.0017 -0.9239
vn 0.3827 0.0017 -0.9239
vn -0.3244 0.5306 -0.7831
vn -0.7831 0.5306 -0.3244
vn -0.7831 0.5306 0.3244
vn -0.3244 0.5306 0.7831
vn 0.3244 0.5306 0.7831
vn 0.7831 0.5306 0.3244
vn 0.7831 0.5306 -0.3244
vn 0.3244 0.5306 -0.7831
vn 0.2385 0.2185 -0.9463
vn -0.8266 0.4033 0.3926
vn 0.7690 0.3966 -0.5014
vn -0.5916 0.2647 -0.7616
vn 0.6345 0.3719 0.6775
vn -0.3864 0.2214 -0.8953
vn 0.1006 0.1785 0.9788
vn -0.2052 0.2080 0.9564
vn 0.2448 0.1072 0.9636
vn 0.3100 0.1239 0.9426
vn 0.2875 0.2535 0.9236
vn -0.8221 0.1260 -0.5553
vn -0.8752 0.1504 -0.4598
vn -0.7979 0.2906 -0.5281
vn -0.2439 0.1351 0.9603
vn -0.2643 0.1312 0.9555
vn -0.2633 0.0017 0.9647
vn 0.2074 0.1825 0.9611
vn 0.8211 0.1351 0.5546
vn 0.8700 0.1544 0.4682
vn 0.8329 0.3247 0.4482
vn -0.8175 0.1637 0.5522
vn -0.8135 0.1583 0.5596
vn -0.7873 0.2644 0.5570
vn -0.0990 -0.6104 0.7859
vn 0.2553 -0.9623 -0.0939
vn -0.2201 -0.9738 0.0565
vn -0.2918 -0.9556 -0.0396
vn 0.2834 -0.9590 0.0018
vn -0.6672 -0.2190 -0.7119
vn -0.0085 -1.0000 0.0011
vn 0.2833 -0.9586 -0.0271
vn -0.2005 -0.9661 0.1625
vn 0.0756 -0.9941 0.0782
vn -0.3258 -0.9357 0.1352
vn -0.3511 -0.9267 0.1343
vn -0.0399 -0.9989 0.0255
vn -0.3569 -0.9330 0.0467
vn -0.0534 -0.9835 0.1727
vn -0.1307 -0.9761 0.1735
vn -0.3176 -0.2213 0.9220
vn 0.1567 -0.8896 0.4290
vn -0.1485 -0.9804 0.1294
vn -0.1289 -0.9906 -0.0455
vn 0.3470 -0.7032 0.6206
vn -0.2450 0.0969 -0.9647
vn -0.2787 0.1080 -0.9543
vn -0.2523 0.1369 -0.9579
vn 0.8193 0.1499 -0.5534
vn 0.8082 0.1526 -0.5687
vn 0.8128 0.1644 -0.5588
vn 0.2449 0.1020 -0.9642
vn 0.2190 0.1075 -0.9698
vn 0.2414 0.1557 -0.9578
vn 0.4641 0.1996 0.8630
vn 0.4279 0.1015 0.8981
vn -0.0482 0.1845 0.9816
vn 0.4703 0.2959 0.8314
vn 0.7929 0.4093 0.4515
vn 0.5239 0.1833 0.8319
vn 0.5907 0.2560 -0.7652
vn 0.7424 0.2158 -0.6342
vn 0.3508 0.2613 -0.8993
vn 0.3640 0.1180 -0.9239
vn -0.3646 0.1787 -0.9138
vn -0.6961 0.2900 -0.6568
vn -0.6724 0.3228 -0.6661
vn -0.8851 0.3250 -0.3330
vn -0.6624 0.3313 0.6719
vn -0.0000 1.0000 0.0001
vn -0.0000 1.0000 -0.0001
vt 0.840218 0.576854
vt 0.840222 0.576424
vt 0.840222 0.576854
vt 0.840216 0.576854
vt 0.840212 0.576424
vt 0.840208 0.576424
vt 0.840227 0.576854
vt 0.840232 0.576424
vt 0.840229 0.576854
vt 0.840236 0.576424
vt 0.840222 0.574060
vt 0.840246 0.574060
vt 0.840199 0.574060
vt 0.840256 0.574060
vt 0.840189 0.574060
vt 0.840247 0.561337
vt 0.840254 0.567720
vt 0.840270 0.561367
vt 0.840156 0.562395
vt 0.840182 0.566829
vt 0.840178 0.567720
vt 0.840267 0.567720
vt 0.840289 0.561379
vt 0.840261 0.567720
vt 0.840180 0.561486
vt 0.840185 0.567720
vt 0.840191 0.567720
vt 0.840275 0.561369
vt 0.840262 0.566578
vt 0.840222 0.561670
vt 0.840207 0.567720
vt 0.840222 0.567720
vt 0.840223 0.562155
vt 0.840237 0.567531
vt 0.840199 0.561397
vt 0.840207 0.568373
vt 0.840238 0.567924
vt 0.840187 0.568544
vt 0.840247 0.561395
vt 0.840259 0.567720
vt 0.840185 0.567568
vt 0.848684 0.467538
vt 0.848697 0.468026
vt 0.848672 0.465722
vt 0.840207 0.569263
vt 0.840258 0.568978
vt 0.840237 0.568639
vt 0.848698 0.465999
vt 0.848684 0.470109
vt 0.848693 0.466155
vt 0.848641 0.470236
vt 0.848628 0.466000
vt 0.848636 0.466101
vt 0.840207 0.567720
vt 0.848758 0.466299
vt 0.848721 0.469471
vt 0.848758 0.465984
vt 0.840288 0.561843
vt 0.848757 0.465985
vt 0.848718 0.470236
vt 0.848760 0.465988
vt 0.840288 0.561374
vt 0.848695 0.466236
vt 0.848686 0.470236
vt 0.848698 0.465960
vt 0.840245 0.561749
vt 0.848629 0.465988
vt 0.848640 0.470236
vt 0.848630 0.465956
vt 0.840199 0.561380
vt 0.848577 0.466383
vt 0.848608 0.470236
vt 0.848577 0.466336
vt 0.840163 0.561969
vt 0.848579 0.466613
vt 0.848604 0.469638
vt 0.848577 0.466634
vt 0.840177 0.561897
vt 0.568764 0.876832
vt 0.568904 0.987147
vt 0.568919 0.876832
vt 0.568962 0.987147
vt 0.568608 0.876832
vt 0.568763 0.987147
vt 0.568983 0.876832
vt 0.568623 0.987147
vt 0.824478 0.503878
vt 0.824982 0.503878
vt 0.824835 0.503878
vt 0.824835 0.492476
vt 0.824225 0.492476
vt 0.824478 0.492476
vt 0.823973 0.503878
vt 0.824121 0.492476
vt 0.824730 0.492476
vt 0.824121 0.503878
vt 0.824478 0.488025
vt 0.824120 0.488025
vt 0.824983 0.488025
vt 0.823972 0.488025
vt 0.824835 0.488025
vt 0.824828 0.457440
vt 0.824127 0.457440
vt 0.824478 0.457440
vt 0.824973 0.457440
vt 0.823982 0.457440
vt 0.568565 0.987147
vt 0.568544 0.876832
vt 0.568646 0.988360
vt 0.568763 0.988360
vt 0.568681 0.988360
vt 0.568846 0.988360
vt 0.568880 0.988360
vt 0.840239 0.567720
vt 0.840164 0.562344
vt 0.840297 0.561427
vt 0.840164 0.561899
vt 0.840288 0.561373
vt 0.840200 0.561331
vt 0.840244 0.561629
vt 0.848697 0.465819
vt 0.848696 0.467279
vt 0.848685 0.470567
vt 0.848675 0.466771
vt 0.848672 0.465833
vt 0.848662 0.466386
vt 0.848660 0.468953
vt 0.848719 0.465680
vt 0.848712 0.465654
vt 0.848720 0.468618
vt 0.848710 0.465646
vt 0.848720 0.465716
vt 0.848724 0.466016
vt 0.848654 0.471549
vt 0.848653 0.471745
vt 0.848653 0.469402
vt 0.848649 0.472065
vt 0.848719 0.465689
vt 0.848698 0.465454
vt 0.848653 0.468967
vt 0.848673 0.465421
vt 0.848685 0.470372
vt 0.848639 0.470673
vt 0.840204 0.561548
vt 0.848716 0.470236
vt 0.848714 0.471078
vt 0.848684 0.470851
vt 0.848641 0.471269
vt 0.848610 0.470787
vt 0.848608 0.470133
vt 0.840165 0.562313
s 0
usemtl Texture_Map
f 5/1/1 12/2/1 4/3/1
f 6/4/2 15/5/2 14/6/2
f 3/7/3 12/2/3 11/8/3
f 1/7/4 16/2/4 8/3/4
f 2/9/5 9/8/5 1/7/5
f 7/1/6 16/2/6 15/5/6
f 6/4/7 13/5/7 5/1/7
f 2/9/8 11/8/8 10/10/8
f 11/8/9 20/11/9 19/12/9
f 9/8/10 24/11/10 16/2/10
f 10/10/11 17/12/11 9/8/11
f 15/5/12 24/11/12 23/13/12
f 14/6/13 21/13/13 13/5/13
f 10/10/14 19/12/14 18/14/14
f 13/5/15 20/11/15 12/2/15
f 14/6/16 23/13/16 22/15/16
f 60/16/17 26/17/17 33/18/17
f 38/19/18 69/20/18 32/21/18
f 29/22/19 56/23/19 53/24/19
f 39/25/20 65/26/20 27/27/20
f 35/28/21 49/29/21 30/17/21
f 40/30/22 61/31/22 25/32/22
f 36/33/23 43/34/23 28/32/23
f 31/27/24 48/35/24 41/36/24
f 44/37/25 30/17/25 19/12/25
f 66/38/26 32/21/26 22/15/26
f 41/36/27 28/32/27 20/11/27
f 45/39/28 30/17/28 44/37/28
f 50/40/29 29/22/29 18/14/29
f 70/41/30 31/27/30 22/15/30
f 40/42/31 59/43/31 63/44/31
f 62/45/32 27/27/32 23/13/32
f 54/46/33 26/17/33 17/12/33
f 58/47/34 25/32/34 24/11/34
f 45/48/35 43/49/35 46/50/35
f 42/51/36 48/52/36 47/53/36
f 42/54/37 36/33/37 28/32/37
f 51/55/38 49/56/38 52/57/38
f 51/58/39 29/22/39 50/40/39
f 55/59/40 53/60/40 56/61/40
f 55/62/41 26/17/41 54/46/41
f 59/63/42 57/64/42 60/65/42
f 59/66/43 25/32/43 58/47/43
f 63/67/44 61/68/44 64/69/44
f 63/70/45 27/27/45 62/45/45
f 67/71/46 65/72/46 68/73/46
f 67/74/47 32/21/47 66/38/47
f 71/75/48 69/76/48 72/77/48
f 70/41/49 37/78/49 31/27/49
f 79/79/50 123/80/50 78/81/50
f 76/81/51 121/82/51 119/80/51
f 80/83/52 125/84/52 79/79/52
f 77/85/53 123/80/53 121/82/53
f 75/79/54 119/80/54 117/84/54
f 74/83/55 117/84/55 115/86/55
f 85/87/56 87/88/56 81/87/56
f 86/89/57 95/90/57 87/88/57
f 85/87/58 92/91/58 93/92/58
f 83/93/59 90/91/59 91/94/59
f 87/88/60 96/95/60 88/89/60
f 85/87/61 94/95/61 86/89/61
f 83/93/62 92/91/62 84/96/62
f 81/87/63 90/91/63 82/96/63
f 81/87/64 96/95/64 89/92/64
f 90/91/65 97/97/65 98/98/65
f 96/95/66 97/97/66 89/92/66
f 94/95/67 103/99/67 95/90/67
f 92/91/68 101/97/68 93/92/68
f 90/91/69 99/100/69 91/94/69
f 96/95/70 103/99/70 104/101/70
f 94/95/71 101/97/71 102/101/71
f 92/91/72 99/100/72 100/98/72
f 103/99/73 112/102/73 104/101/73
f 101/97/74 110/102/74 102/101/74
f 99/100/75 108/103/75 100/98/75
f 97/97/76 106/103/76 98/98/76
f 104/101/77 105/104/77 97/97/77
f 102/101/78 111/105/78 103/99/78
f 100/98/79 109/104/79 101/97/79
f 99/100/80 106/103/80 107/106/80
f 74/83/81 114/107/81 73/108/81
f 73/108/82 127/86/82 80/83/82
f 115/86/83 113/109/83 114/107/83
f 115/86/84 118/110/84 116/111/84
f 117/84/85 120/112/85 118/110/85
f 119/80/86 122/113/86 120/112/86
f 121/82/87 124/112/87 122/113/87
f 125/84/88 124/112/88 123/80/88
f 127/86/89 126/110/89 125/84/89
f 114/107/90 128/111/90 127/86/90
f 126/110/56 128/111/56 120/112/56
f 5/1/1 13/5/1 12/2/1
f 6/4/2 7/1/2 15/5/2
f 3/7/3 4/3/3 12/2/3
f 1/7/4 9/8/4 16/2/4
f 2/9/5 10/10/5 9/8/5
f 7/1/6 8/3/6 16/2/6
f 6/4/7 14/6/7 13/5/7
f 2/9/8 3/7/8 11/8/8
f 11/8/9 12/2/9 20/11/9
f 9/8/10 17/12/10 24/11/10
f 10/10/11 18/14/11 17/12/11
f 15/5/12 16/2/12 24/11/12
f 14/6/13 22/15/13 21/13/13
f 10/10/14 11/8/14 19/12/14
f 13/5/15 21/13/15 20/11/15
f 14/6/16 15/5/16 23/13/16
f 60/16/91 57/114/91 26/17/91
f 38/19/92 72/115/92 69/20/92
f 29/22/93 34/116/93 56/23/93
f 39/25/94 68/117/94 65/26/94
f 35/28/95 52/118/95 49/29/95
f 40/30/96 64/119/96 61/31/96
f 36/33/97 46/120/97 43/34/97
f 31/27/98 37/78/98 48/35/98
f 19/12/99 20/11/99 44/37/99
f 20/11/100 28/32/100 44/37/100
f 28/32/101 43/34/101 44/37/101
f 22/15/102 23/13/102 66/38/102
f 23/13/103 27/27/103 66/38/103
f 27/27/104 65/26/104 66/38/104
f 20/11/105 21/13/105 41/36/105
f 21/13/106 31/27/106 41/36/106
f 41/36/107 42/54/107 28/32/107
f 45/39/108 35/28/108 30/17/108
f 18/14/109 19/12/109 50/40/109
f 19/12/110 30/17/110 50/40/110
f 30/17/111 49/29/111 50/40/111
f 21/13/112 22/15/112 31/27/112
f 22/15/113 32/21/113 70/41/113
f 32/21/114 69/20/114 70/41/114
f 45/121/115 46/122/115 36/123/115
f 47/124/116 48/125/116 39/126/116
f 48/125/117 37/127/117 39/126/117
f 45/121/118 36/123/118 59/43/118
f 36/123/119 47/124/119 63/44/119
f 52/128/120 35/129/120 51/130/120
f 35/129/121 45/121/121 33/131/121
f 51/130/122 35/129/122 33/131/122
f 56/132/123 34/133/123 51/130/123
f 36/123/124 63/44/124 59/43/124
f 71/134/125 72/135/125 67/136/125
f 72/135/126 38/137/126 67/136/126
f 47/124/127 39/126/127 63/44/127
f 37/127/128 71/134/128 39/126/128
f 56/132/129 51/130/129 55/138/129
f 55/138/130 51/130/130 33/131/130
f 60/139/131 33/131/131 59/43/131
f 67/136/132 68/140/132 39/126/132
f 71/134/133 67/136/133 39/126/133
f 33/131/134 45/121/134 59/43/134
f 64/141/135 40/42/135 63/44/135
f 23/13/136 24/11/136 62/45/136
f 24/11/137 25/32/137 62/45/137
f 25/32/138 61/31/138 62/45/138
f 17/12/139 18/14/139 54/46/139
f 18/14/140 29/22/140 54/46/140
f 29/22/141 53/24/141 54/46/141
f 24/11/142 17/12/142 58/47/142
f 17/12/143 26/17/143 58/47/143
f 26/17/144 57/114/144 58/47/144
f 45/48/145 44/142/145 43/49/145
f 42/51/146 41/143/146 48/52/146
f 42/54/147 47/144/147 36/33/147
f 51/55/148 50/145/148 49/56/148
f 51/58/149 34/116/149 29/22/149
f 55/59/150 54/146/150 53/60/150
f 55/62/151 33/18/151 26/17/151
f 59/63/152 58/147/152 57/64/152
f 59/66/153 40/30/153 25/32/153
f 63/67/154 62/148/154 61/68/154
f 63/70/155 39/25/155 27/27/155
f 67/71/156 66/149/156 65/72/156
f 67/74/157 38/19/157 32/21/157
f 71/75/158 70/150/158 69/76/158
f 70/41/159 71/151/159 37/78/159
f 79/79/50 125/84/50 123/80/50
f 76/81/51 77/85/51 121/82/51
f 80/83/52 127/86/52 125/84/52
f 77/85/53 78/81/53 123/80/53
f 75/79/54 76/81/54 119/80/54
f 74/83/55 75/79/55 117/84/55
f 81/87/56 82/96/56 83/93/56
f 83/93/56 84/96/56 85/87/56
f 85/87/56 86/89/56 87/88/56
f 87/88/56 88/89/56 81/87/56
f 81/87/56 83/93/56 85/87/56
f 86/89/57 94/95/57 95/90/57
f 85/87/58 84/96/58 92/91/58
f 83/93/59 82/96/59 90/91/59
f 87/88/60 95/90/60 96/95/60
f 85/87/61 93/92/61 94/95/61
f 83/93/62 91/94/62 92/91/62
f 81/87/63 89/92/63 90/91/63
f 81/87/64 88/89/64 96/95/64
f 90/91/65 89/92/65 97/97/65
f 96/95/66 104/101/66 97/97/66
f 94/95/67 102/101/67 103/99/67
f 92/91/68 100/98/68 101/97/68
f 90/91/69 98/98/69 99/100/69
f 96/95/70 95/90/70 103/99/70
f 94/95/71 93/92/71 101/97/71
f 92/91/72 91/94/72 99/100/72
f 103/99/73 111/105/73 112/102/73
f 101/97/74 109/104/74 110/102/74
f 99/100/75 107/106/75 108/103/75
f 97/97/76 105/104/76 106/103/76
f 104/101/77 112/102/77 105/104/77
f 102/101/78 110/102/78 111/105/78
f 100/98/79 108/103/79 109/104/79
f 99/100/80 98/98/80 106/103/80
f 74/83/81 115/86/81 114/107/81
f 73/108/82 114/107/82 127/86/82
f 115/86/83 116/111/83 113/109/83
f 115/86/84 117/84/84 118/110/84
f 117/84/85 119/80/85 120/112/85
f 119/80/86 121/82/86 122/113/86
f 121/82/87 123/80/87 124/112/87
f 125/84/88 126/110/88 124/112/88
f 127/86/89 128/111/89 126/110/89
f 114/107/90 113/109/90 128/111/90
f 128/111/56 113/109/56 116/111/56
f 116/111/160 118/110/160 128/111/160
f 118/110/56 120/112/56 128/111/56
f 120/112/56 122/113/56 124/112/56
f 124/112/161 126/110/161 120/112/161
