# Blender 4.4.0
# www.blender.org
mtllib Tool_Rake_02.mtl
o Tool_Rake_02
v 0.003319 0.000000 -0.010831
v 0.010831 0.000000 -0.003319
v -0.010831 0.000000 -0.003319
v -0.003319 0.000000 -0.010831
v 0.010831 0.000000 0.003319
v 0.003319 0.000000 0.010831
v -0.003319 0.000000 0.010831
v -0.010831 0.000000 0.003319
v 0.003319 1.014734 0.010831
v 0.010831 1.014734 0.003319
v 0.010831 1.014734 -0.003319
v 0.003319 1.014734 -0.010831
v -0.003319 1.014734 -0.010831
v -0.010831 1.014734 -0.003319
v -0.010831 1.014734 0.003319
v -0.003319 1.014734 0.010831
v 0.013195 1.014734 0.004043
v 0.004043 1.014734 0.013195
v -0.004043 1.014734 0.013195
v -0.013195 1.014734 0.004043
v -0.013195 1.014734 -0.004043
v -0.004043 1.014734 -0.013195
v 0.004043 1.014734 -0.013195
v 0.013195 1.014734 -0.004043
v 0.006914 1.174610 0.002119
v 0.002118 1.174610 0.006914
v -0.002119 1.174610 0.006914
v -0.006914 1.174610 0.002119
v -0.006914 1.174610 -0.002119
v -0.002119 1.174610 -0.006914
v 0.002118 1.174610 -0.006914
v 0.006914 1.174610 -0.002119
v -0.036791 1.463510 0.001958
v -0.029566 1.464620 0.001958
v 0.005623 1.491688 0.014532
v -0.001665 1.491688 0.014532
v -0.001665 1.468907 0.001958
v 0.005623 1.468907 0.001958
v -0.000798 1.284059 -0.001726
v 0.004756 1.284059 -0.001726
v 0.005623 1.492646 0.010820
v -0.001665 1.492646 0.010820
v -0.021911 1.280866 -0.001726
v -0.016393 1.281523 -0.001726
v -0.043035 1.277672 -0.001726
v -0.037530 1.278326 -0.001726
v -0.064171 1.274475 -0.001726
v -0.058655 1.275132 -0.001726
v -0.085320 1.271277 -0.001726
v -0.079768 1.271939 -0.001726
v -0.106480 1.268077 -0.001726
v -0.100869 1.268748 -0.001726
v -0.127651 1.264875 -0.001726
v -0.121959 1.265559 -0.001726
v -0.148833 1.261671 -0.001726
v -0.143039 1.262371 -0.001726
v -0.170025 1.258466 -0.001726
v -0.164108 1.259185 -0.001726
v -0.288011 1.448552 0.010820
v -0.295920 1.447334 0.010820
v -0.251373 1.454194 0.010820
v -0.259071 1.453008 0.010820
v -0.214718 1.459838 0.010820
v -0.222240 1.458680 0.010820
v -0.178045 1.465485 0.010820
v -0.185428 1.464348 0.010820
v -0.141352 1.471135 0.010820
v -0.148635 1.470014 0.010820
v -0.104639 1.476789 0.010820
v -0.111861 1.475677 0.010820
v -0.067906 1.482445 0.010820
v -0.075109 1.481336 0.010820
v -0.031152 1.488105 0.010820
v -0.038377 1.486992 0.010820
v 0.042334 1.486992 0.010820
v 0.035109 1.488105 0.010820
v 0.079066 1.481336 0.010820
v 0.071863 1.482445 0.010820
v 0.115819 1.475677 0.010820
v 0.108597 1.476789 0.010820
v 0.152592 1.470014 0.010820
v 0.145310 1.471135 0.010820
v 0.189385 1.464348 0.010820
v 0.182002 1.465485 0.010820
v 0.226198 1.458680 0.010820
v 0.218676 1.459838 0.010820
v 0.263029 1.453008 0.010820
v 0.255331 1.454194 0.010820
v 0.299877 1.447334 0.010820
v 0.291969 1.448552 0.010820
v 0.168066 1.259185 -0.001726
v 0.173982 1.258466 -0.001726
v 0.146996 1.262371 -0.001726
v 0.152790 1.261671 -0.001726
v 0.125917 1.265559 -0.001726
v 0.131608 1.264875 -0.001726
v 0.104827 1.268748 -0.001726
v 0.110437 1.268077 -0.001726
v 0.083725 1.271939 -0.001726
v 0.089277 1.271277 -0.001726
v 0.062612 1.275132 -0.001726
v 0.068129 1.274475 -0.001726
v 0.041487 1.278326 -0.001726
v 0.046993 1.277672 -0.001726
v 0.020350 1.281523 -0.001726
v 0.025868 1.280866 -0.001726
v 0.005623 1.469865 -0.001755
v -0.001665 1.469865 -0.001755
v -0.029566 1.465577 -0.001755
v -0.036791 1.464467 -0.001755
v -0.064735 1.460173 -0.001755
v -0.071938 1.459066 -0.001755
v -0.099883 1.454772 -0.001755
v -0.107105 1.453662 -0.001755
v -0.135010 1.449374 -0.001755
v -0.142293 1.448255 -0.001755
v -0.170117 1.443979 -0.001755
v -0.177501 1.442845 -0.001755
v -0.205205 1.438588 -0.001755
v -0.212728 1.437432 -0.001755
v -0.240275 1.433199 -0.001755
v -0.247974 1.432016 -0.001755
v -0.275327 1.427812 -0.001755
v -0.283237 1.426597 -0.001755
v 0.287195 1.426597 -0.001755
v 0.279285 1.427812 -0.001755
v 0.251932 1.432016 -0.001755
v 0.244233 1.433199 -0.001755
v 0.216686 1.437432 -0.001755
v 0.209163 1.438588 -0.001755
v 0.181459 1.442845 -0.001755
v 0.174075 1.443979 -0.001755
v 0.146251 1.448255 -0.001755
v 0.138968 1.449374 -0.001755
v 0.111063 1.453662 -0.001755
v 0.103840 1.454772 -0.001755
v 0.075896 1.459066 -0.001755
v 0.068692 1.460173 -0.001755
v 0.040749 1.464467 -0.001755
v 0.033524 1.465577 -0.001755
v -0.038377 1.486035 0.014532
v -0.031152 1.487148 0.014532
v -0.064735 1.459216 0.001958
v -0.071938 1.458109 0.001958
v -0.075109 1.480379 0.014532
v -0.067906 1.481488 0.014532
v -0.099883 1.453815 0.001958
v -0.107105 1.452705 0.001958
v -0.111861 1.474720 0.014533
v -0.104639 1.475832 0.014532
v -0.135010 1.448417 0.001958
v -0.142293 1.447298 0.001958
v -0.148635 1.469057 0.014533
v -0.141352 1.470178 0.014533
v -0.170117 1.443022 0.001958
v -0.177501 1.441888 0.001958
v -0.185428 1.463391 0.014533
v -0.178045 1.464528 0.014533
v -0.205205 1.437631 0.001958
v -0.212728 1.436474 0.001958
v -0.222240 1.457723 0.014533
v -0.214718 1.458881 0.014533
v -0.240275 1.432242 0.001958
v -0.247974 1.431058 0.001958
v -0.259071 1.452051 0.014533
v -0.251373 1.453237 0.014533
v -0.275327 1.426855 0.001958
v -0.283237 1.425640 0.001958
v -0.295920 1.446377 0.014533
v -0.288011 1.447595 0.014533
v 0.287195 1.425640 0.001957
v 0.279285 1.426855 0.001957
v 0.291969 1.447595 0.014532
v 0.299877 1.446377 0.014532
v 0.251932 1.431058 0.001957
v 0.244233 1.432242 0.001957
v 0.255331 1.453237 0.014532
v 0.263029 1.452051 0.014532
v 0.216686 1.436474 0.001958
v 0.209163 1.437631 0.001958
v 0.218676 1.458881 0.014532
v 0.226198 1.457723 0.014532
v 0.181459 1.441888 0.001958
v 0.174075 1.443022 0.001958
v 0.182002 1.464528 0.014532
v 0.189385 1.463391 0.014532
v 0.146251 1.447298 0.001958
v 0.138968 1.448417 0.001958
v 0.145310 1.470178 0.014532
v 0.152592 1.469057 0.014532
v 0.111063 1.452705 0.001958
v 0.103840 1.453815 0.001958
v 0.108597 1.475832 0.014532
v 0.115819 1.474720 0.014532
v 0.075896 1.458109 0.001958
v 0.068692 1.459216 0.001958
v 0.071863 1.481488 0.014532
v 0.079066 1.480379 0.014532
v 0.040749 1.463510 0.001958
v 0.033524 1.464620 0.001958
v 0.035109 1.487148 0.014532
v 0.042334 1.486035 0.014532
v 0.004756 1.283102 0.001929
v -0.000798 1.283102 0.001929
v -0.016393 1.280566 0.001929
v -0.021911 1.279909 0.001929
v -0.037530 1.277369 0.001929
v -0.043035 1.276714 0.001929
v -0.058655 1.274175 0.001929
v -0.064171 1.273518 0.001929
v -0.079768 1.270982 0.001929
v -0.085320 1.270320 0.001929
v -0.100869 1.267791 0.001929
v -0.106480 1.267120 0.001929
v -0.121959 1.264602 0.001929
v -0.127651 1.263918 0.001929
v -0.143039 1.261414 0.001929
v -0.148833 1.260714 0.001929
v -0.164108 1.258228 0.001929
v -0.170025 1.257509 0.001929
v 0.173982 1.257509 0.001929
v 0.168066 1.258228 0.001929
v 0.152790 1.260714 0.001929
v 0.146996 1.261414 0.001929
v 0.131608 1.263918 0.001929
v 0.125917 1.264602 0.001929
v 0.110437 1.267120 0.001929
v 0.104827 1.267791 0.001929
v 0.089277 1.270320 0.001929
v 0.083725 1.270982 0.001929
v 0.068129 1.273518 0.001929
v 0.062612 1.274175 0.001929
v 0.046993 1.276714 0.001929
v 0.041487 1.277369 0.001929
v 0.025868 1.279909 0.001929
v 0.020350 1.280566 0.001929
v -0.183463 1.248089 -0.001726
v -0.177597 1.249150 -0.001726
v -0.312330 1.431278 0.010820
v -0.320156 1.429610 0.010820
v -0.298482 1.411297 -0.001755
v -0.306310 1.409631 -0.001755
v -0.298428 1.410341 0.001958
v -0.306255 1.408676 0.001958
v -0.320101 1.428655 0.014533
v -0.312276 1.430322 0.014533
v -0.177543 1.248194 0.001929
v -0.183409 1.247133 0.001929
v 0.323964 1.429726 0.010820
v 0.316138 1.431391 0.010820
v 0.181471 1.249216 -0.001726
v 0.187338 1.248157 -0.001726
v 0.310125 1.409742 -0.001755
v 0.302297 1.411405 -0.001755
v 0.310071 1.408787 0.001957
v 0.302243 1.410449 0.001957
v 0.316083 1.430436 0.014532
v 0.323910 1.428771 0.014532
v 0.187285 1.247201 0.001929
v 0.181418 1.248260 0.001929
v 0.011860 1.015022 -0.002493
v -0.012207 1.014734 -0.002493
v -0.000316 1.014734 -0.002493
v 0.199247 1.259356 -0.002493
v -0.195289 1.259356 -0.002493
v 0.001979 1.288768 -0.002493
v -0.000316 1.014734 0.002745
v -0.012207 1.014734 0.002745
v 0.011860 1.015022 0.002745
v 0.199247 1.259356 0.002745
v 0.001979 1.288768 0.002745
v -0.195289 1.259356 0.002746
v 0.275219 1.362232 -0.002027
v 0.281571 1.370761 -0.002027
v -0.277602 1.370763 -0.002027
v -0.271250 1.362234 -0.002027
v 0.001979 1.403929 -0.002027
v 0.001979 1.413427 -0.002027
v 0.001979 1.403929 0.002159
v 0.001979 1.413427 0.002159
v 0.281571 1.370761 0.002159
v 0.275219 1.362232 0.002159
v -0.271250 1.362234 0.002160
v -0.277602 1.370763 0.002160
vn -0.0000 -0.0000 -1.0000
vn -1.0000 -0.0000 -0.0000
vn -0.0000 -0.0000 1.0000
vn -0.0000 -1.0000 -0.0000
vn 0.7071 -0.0000 0.7071
vn -0.7071 -0.0000 0.7071
vn -0.7071 -0.0000 -0.7071
vn 0.7071 -0.0000 -0.7071
vn 1.0000 -0.0000 -0.0000
vn -0.7066 0.0363 -0.7066
vn -0.0000 1.0000 -0.0000
vn 0.7066 0.0363 0.7066
vn -0.0000 0.0393 0.9992
vn -0.0000 0.0393 -0.9992
vn 0.7066 0.0363 -0.7066
vn -0.7066 0.0363 0.7066
vn -0.9992 0.0393 -0.0000
vn 0.9992 0.0393 -0.0000
vn -0.0000 -0.0002 1.0000
vn -0.0742 -0.4821 0.8730
vn -0.0743 -0.4823 0.8729
vn -0.0741 -0.4825 0.8728
vn -0.0742 -0.4827 0.8727
vn -0.0742 -0.4828 0.8726
vn -0.0742 -0.4830 0.8724
vn -0.0743 -0.4832 0.8723
vn -0.0743 -0.4834 0.8722
vn 0.0744 -0.4834 0.8722
vn 0.0744 -0.4832 0.8723
vn 0.0744 -0.4830 0.8724
vn 0.0743 -0.4828 0.8725
vn 0.0743 -0.4827 0.8727
vn 0.0743 -0.4825 0.8728
vn 0.0741 -0.4823 0.8729
vn 0.0741 -0.4821 0.8730
vn -0.0000 0.4833 -0.8755
vn -0.0741 0.4821 -0.8730
vn -0.0741 0.4823 -0.8729
vn -0.0741 0.4825 -0.8728
vn -0.0742 0.4827 -0.8727
vn -0.0742 0.4828 -0.8726
vn -0.0742 0.4830 -0.8724
vn -0.0743 0.4832 -0.8723
vn -0.0743 0.4834 -0.8722
vn 0.0743 0.4834 -0.8722
vn 0.0743 0.4832 -0.8723
vn 0.0742 0.4830 -0.8724
vn 0.0742 0.4828 -0.8726
vn 0.0742 0.4827 -0.8727
vn 0.0741 0.4825 -0.8728
vn 0.0741 0.4823 -0.8729
vn 0.0741 0.4821 -0.8730
vn -0.0000 -0.0002 -1.0000
vn -0.0000 -0.4833 0.8755
vn -0.9674 0.2454 0.0632
vn -0.0000 0.9684 0.2496
vn -0.9259 0.3659 0.0943
vn 0.1475 0.9578 0.2468
vn 0.9221 -0.3747 -0.0966
vn 0.9674 -0.2454 -0.0632
vn -0.9980 -0.0614 -0.0158
vn -0.9520 0.2964 0.0764
vn -0.9816 0.1849 0.0477
vn -0.1475 0.9578 0.2469
vn 0.9489 -0.3055 -0.0787
vn 0.1475 0.9577 0.2469
vn 0.9980 0.0614 0.0158
vn 0.9816 -0.1848 -0.0477
vn -0.9730 0.2233 0.0576
vn -0.9919 -0.1233 -0.0318
vn 0.9707 -0.2326 -0.0600
vn -0.9919 0.1233 0.0318
vn 0.9919 0.1233 0.0318
vn -0.9883 0.1479 0.0381
vn 0.9919 -0.1233 -0.0318
vn 0.9867 -0.1572 -0.0405
vn -0.9816 -0.1848 -0.0477
vn -0.9980 0.0614 0.0158
vn -0.9973 0.0714 0.0184
vn 0.1475 0.9578 0.2469
vn 0.9816 0.1849 0.0477
vn 0.9965 -0.0808 -0.0208
vn 0.9980 -0.0614 -0.0158
vn -0.9674 -0.2454 -0.0632
vn -1.0000 -0.0047 -0.0012
vn 1.0000 -0.0047 -0.0012
vn 0.9674 0.2454 0.0632
vn -0.9965 -0.0808 -0.0208
vn -0.9494 -0.3041 -0.0784
vn 0.9973 0.0714 0.0184
vn -0.1475 0.9577 0.2469
vn 0.9494 0.3041 0.0784
vn -0.9867 -0.1572 -0.0405
vn 0.9883 0.1479 0.0381
vn -0.9281 -0.3605 -0.0929
vn -0.1475 0.9578 0.2468
vn -0.9707 -0.2326 -0.0600
vn 0.9281 0.3605 0.0929
vn 0.9730 0.2233 0.0576
vn -0.9040 -0.4140 -0.1067
vn -0.9489 -0.3055 -0.0787
vn 0.9520 0.2964 0.0764
vn 0.9040 0.4140 0.1067
vn -0.9221 -0.3747 -0.0966
vn -0.8776 -0.4642 -0.1197
vn 0.9259 0.3659 0.0943
vn 0.8776 0.4642 0.1196
vn -0.8911 -0.4394 -0.1133
vn 0.8955 0.4309 0.1111
vn -0.8776 0.4642 0.1196
vn -0.8571 -0.4989 -0.1286
vn 0.8776 -0.4642 -0.1197
vn 0.8621 0.4907 0.1265
vn -0.9040 0.4140 0.1067
vn -0.8210 -0.5529 -0.1425
vn 0.8265 0.5451 0.1405
vn 0.9040 -0.4140 -0.1068
vn -0.8265 0.5451 0.1405
vn -0.9281 0.3605 0.0929
vn 0.8210 -0.5529 -0.1425
vn 0.9281 -0.3605 -0.0929
vn -0.8621 0.4907 0.1265
vn 0.8571 -0.4989 -0.1286
vn -0.9494 0.3041 0.0784
vn -0.8956 0.4309 0.1111
vn 0.9494 -0.3041 -0.0784
vn 0.8911 -0.4394 -0.1133
vn 0.1019 -0.4783 0.8722
vn -0.1018 0.4784 -0.8722
vn -0.8497 -0.5136 -0.1196
vn -0.2019 0.9478 0.2469
vn 0.8497 0.5135 0.1197
vn -0.7878 -0.5991 -0.1426
vn 0.7937 0.5918 0.1406
vn -0.1016 -0.4784 0.8722
vn 0.1016 0.4784 -0.8722
vn -0.8499 0.5132 0.1197
vn 0.2016 0.9478 0.2469
vn 0.8499 -0.5132 -0.1197
vn -0.7940 0.5915 0.1406
vn 0.7881 -0.5989 -0.1426
vn -0.8006 -0.5992 -0.0000
vn 0.7935 -0.6086 -0.0000
vn 0.1475 0.9891 -0.0000
vn -0.1475 0.9891 -0.0000
vn 0.0237 -0.9997 -0.0000
vn -0.1509 0.9886 -0.0000
vn -0.1509 -0.9886 -0.0000
vn 0.1509 0.9886 -0.0000
vn 0.1509 -0.9886 -0.0000
vn -0.8020 -0.5973 -0.0000
vn 0.8020 -0.5973 -0.0000
vn -0.0000 1.0000 0.0001
vn -0.0000 1.0000 -0.0001
vn -0.0741 -0.4821 0.8730
vn -0.0741 -0.4823 0.8729
vn -0.0743 -0.4825 0.8728
vn -0.0743 -0.4827 0.8727
vn -0.0743 -0.4828 0.8725
vn -0.0744 -0.4830 0.8724
vn -0.0744 -0.4832 0.8723
vn -0.0744 -0.4834 0.8722
vn 0.0743 -0.4834 0.8722
vn 0.0743 -0.4832 0.8723
vn 0.0742 -0.4830 0.8724
vn 0.0742 -0.4829 0.8726
vn 0.0742 -0.4827 0.8727
vn 0.0741 -0.4825 0.8728
vn 0.0743 -0.4823 0.8729
vn 0.0742 -0.4821 0.8730
vn -0.0742 0.4821 -0.8730
vn -0.0743 0.4823 -0.8729
vn -0.0743 0.4825 -0.8728
vn -0.0743 0.4827 -0.8727
vn -0.0744 0.4828 -0.8725
vn -0.0744 0.4830 -0.8724
vn -0.0744 0.4832 -0.8723
vn -0.0744 0.4834 -0.8722
vn 0.0744 0.4834 -0.8722
vn 0.0744 0.4832 -0.8723
vn 0.0744 0.4830 -0.8724
vn 0.0744 0.4828 -0.8725
vn 0.0743 0.4827 -0.8727
vn 0.0743 0.4825 -0.8728
vn 0.0743 0.4822 -0.8729
vn 0.0742 0.4821 -0.8730
vn -0.9674 0.2454 0.0633
vn -0.0000 0.9683 0.2497
vn -0.9257 0.3658 0.0958
vn 0.9220 -0.3746 -0.0981
vn -0.9519 0.2964 0.0776
vn -0.9816 0.1849 0.0476
vn 0.9488 -0.3054 -0.0800
vn 0.9816 -0.1848 -0.0476
vn -0.9730 0.2233 0.0585
vn 0.9707 -0.2326 -0.0609
vn -0.9883 0.1478 0.0387
vn 0.9867 -0.1572 -0.0412
vn -0.9816 -0.1848 -0.0476
vn -0.9973 0.0714 0.0187
vn 0.9816 0.1849 0.0476
vn 0.9965 -0.0808 -0.0211
vn 0.9674 0.2454 0.0633
vn -0.9965 -0.0808 -0.0211
vn 0.9973 0.0714 0.0187
vn -0.9867 -0.1572 -0.0412
vn 0.9883 0.1478 0.0387
vn -0.9707 -0.2326 -0.0609
vn 0.9730 0.2233 0.0585
vn -0.9488 -0.3054 -0.0800
vn 0.9519 0.2964 0.0776
vn -0.9220 -0.3746 -0.0981
vn 0.9257 0.3658 0.0958
vn 0.8776 0.4642 0.1197
vn -0.8910 -0.4393 -0.1150
vn 0.8954 0.4308 0.1128
vn -0.8776 0.4642 0.1197
vn -0.8569 -0.4987 -0.1306
vn 0.8619 0.4906 0.1285
vn -0.8208 -0.5526 -0.1447
vn 0.8262 0.5449 0.1427
vn 0.9040 -0.4140 -0.1067
vn -0.8262 0.5449 0.1427
vn 0.8208 -0.5526 -0.1447
vn -0.8619 0.4906 0.1285
vn 0.8569 -0.4987 -0.1306
vn -0.8954 0.4308 0.1128
vn 0.8910 -0.4393 -0.1150
vn 0.1018 -0.4784 0.8722
vn -0.1019 0.4783 -0.8722
vn -0.8497 -0.5136 -0.1197
vn -0.2020 0.9478 0.2469
vn 0.8497 0.5136 0.1197
vn -0.7876 -0.5989 -0.1450
vn 0.7935 0.5915 0.1429
vn -0.1018 -0.4784 0.8722
vn 0.1018 0.4784 -0.8722
vn -0.8499 0.5132 0.1196
vn 0.8499 -0.5133 -0.1196
vn -0.7937 0.5913 0.1429
vn 0.7878 -0.5986 -0.1449
vt 0.568648 0.884861
vt 0.568648 0.990954
vt 0.568795 0.884861
vt 0.568726 0.990954
vt 0.568726 0.884861
vt 0.568873 0.884861
vt 0.568873 0.990954
vt 0.568795 0.990954
vt 0.208349 0.071535
vt 0.208361 0.109064
vt 0.208389 0.071535
vt 0.208322 0.109064
vt 0.208341 0.109064
vt 0.208274 0.071535
vt 0.208301 0.109064
vt 0.208314 0.071535
vt 0.208323 0.178145
vt 0.208284 0.183717
vt 0.208339 0.178370
vt 0.208323 0.133935
vt 0.208323 0.176878
vt 0.208323 0.177139
vt 0.208323 0.133031
vt 0.208323 0.175870
vt 0.208323 0.133185
vt 0.208323 0.132281
vt 0.208323 0.174602
vt 0.208323 0.132435
vt 0.208323 0.131530
vt 0.208323 0.173335
vt 0.208323 0.131685
vt 0.208323 0.130779
vt 0.208323 0.172069
vt 0.208323 0.130936
vt 0.208323 0.130027
vt 0.208323 0.170803
vt 0.208323 0.130188
vt 0.208323 0.129275
vt 0.208323 0.169538
vt 0.208323 0.129439
vt 0.208323 0.128523
vt 0.208323 0.168274
vt 0.208323 0.128692
vt 0.208323 0.167989
vt 0.208323 0.169261
vt 0.208323 0.170532
vt 0.208323 0.171803
vt 0.208323 0.173073
vt 0.208323 0.174342
vt 0.208323 0.175610
vt 0.208323 0.133781
vt 0.208323 0.134530
vt 0.208268 0.182165
vt 0.208268 0.182427
vt 0.208268 0.180838
vt 0.208268 0.181098
vt 0.208268 0.179770
vt 0.208268 0.178443
vt 0.208268 0.177117
vt 0.208268 0.175792
vt 0.208268 0.174467
vt 0.208268 0.173142
vt 0.208268 0.172856
vt 0.208268 0.174188
vt 0.208268 0.175520
vt 0.208268 0.176850
vt 0.208268 0.178180
vt 0.208268 0.179509
vt 0.208284 0.182390
vt 0.208339 0.177363
vt 0.208339 0.177103
vt 0.208284 0.181062
vt 0.208339 0.176095
vt 0.208339 0.175835
vt 0.208339 0.174567
vt 0.208284 0.179995
vt 0.208339 0.174827
vt 0.208339 0.173297
vt 0.208284 0.178668
vt 0.208339 0.173560
vt 0.208339 0.172027
vt 0.208284 0.177342
vt 0.208339 0.172293
vt 0.208339 0.170757
vt 0.208284 0.176016
vt 0.208339 0.171028
vt 0.208339 0.169485
vt 0.208284 0.174691
vt 0.208339 0.169763
vt 0.208339 0.168213
vt 0.208284 0.173367
vt 0.208339 0.168499
vt 0.208339 0.134755
vt 0.208339 0.134159
vt 0.208339 0.134005
vt 0.208339 0.133256
vt 0.208339 0.133409
vt 0.208339 0.132505
vt 0.208339 0.132659
vt 0.208339 0.131754
vt 0.208339 0.131910
vt 0.208339 0.131003
vt 0.208339 0.131161
vt 0.208339 0.130252
vt 0.208339 0.130412
vt 0.208339 0.129500
vt 0.208339 0.129664
vt 0.208339 0.128747
vt 0.208339 0.128916
vt 0.208268 0.183493
vt 0.208284 0.178405
vt 0.208284 0.182651
vt 0.208284 0.179734
vt 0.208284 0.181323
vt 0.208284 0.177075
vt 0.208284 0.175744
vt 0.208284 0.174413
vt 0.208284 0.173081
vt 0.208323 0.126087
vt 0.208323 0.164398
vt 0.208323 0.164007
vt 0.208268 0.169088
vt 0.208268 0.168696
vt 0.208339 0.164231
vt 0.208284 0.169312
vt 0.208339 0.164622
vt 0.208339 0.126312
vt 0.208339 0.126561
vt 0.208284 0.168921
vt 0.208323 0.126103
vt 0.208323 0.164423
vt 0.208323 0.126352
vt 0.208323 0.164033
vt 0.208268 0.169114
vt 0.208284 0.169339
vt 0.208339 0.164257
vt 0.208339 0.164647
vt 0.208339 0.126327
vt 0.208339 0.126576
vt 0.208284 0.168948
vt 0.208342 0.071535
vt 0.208342 0.135860
vt 0.208342 0.071603
vt 0.208342 0.128956
vt 0.208319 0.135860
vt 0.208319 0.071535
vt 0.208319 0.071603
vt 0.208319 0.128956
vt 0.208340 0.165122
vt 0.208340 0.153105
vt 0.208340 0.162892
vt 0.208340 0.153105
vt 0.208340 0.155107
vt 0.208322 0.165122
vt 0.208322 0.153105
vt 0.208322 0.155107
vt 0.208322 0.153105
vt 0.208322 0.155107
vt 0.208340 0.155107
vt 0.208322 0.162892
vt 0.208323 0.126336
vt 0.208268 0.168723
s 0
usemtl Texture_Map
f 4/1/1 12/2/1 1/1/1
f 8/3/2 14/4/2 3/5/2
f 6/6/3 16/7/3 7/6/3
f 3/5/4 4/1/4 6/6/4
f 10/8/5 6/6/5 5/3/5
f 8/3/6 16/7/6 15/8/6
f 14/4/7 4/1/7 3/5/7
f 2/5/8 12/2/8 11/4/8
f 2/5/9 10/8/9 5/3/9
f 21/9/10 30/10/10 22/11/10
f 22/11/4 23/11/4 24/9/4
f 25/12/11 31/10/11 29/13/11
f 18/14/12 25/12/12 26/15/12
f 19/14/13 26/15/13 27/15/13
f 22/11/14 31/10/14 23/11/14
f 23/11/15 32/13/15 24/9/15
f 20/16/16 27/15/16 28/12/16
f 20/16/17 29/13/17 21/9/17
f 24/9/18 25/12/18 17/16/18
f 37/17/2 42/18/2 108/19/2
f 236/20/19 199/21/19 200/22/19
f 233/23/19 196/24/19 234/25/19
f 231/26/19 192/27/19 232/28/19
f 229/29/19 188/30/19 230/31/19
f 227/32/19 184/33/19 228/34/19
f 225/35/19 180/36/19 226/37/19
f 223/38/19 176/39/19 224/40/19
f 221/41/19 172/42/19 222/43/19
f 220/41/19 167/42/19 168/44/19
f 218/38/19 163/39/19 164/45/19
f 216/35/19 159/36/19 160/46/19
f 214/32/19 155/33/19 156/47/19
f 212/29/19 151/30/19 152/48/19
f 210/26/19 147/27/19 148/49/19
f 208/23/19 143/24/19 144/50/19
f 205/20/19 33/21/19 206/51/19
f 203/52/19 37/17/19 204/52/19
f 200/22/20 202/53/20 201/54/20
f 196/24/21 198/55/21 197/56/21
f 191/49/22 193/57/22 192/27/22
f 187/48/23 189/58/23 188/30/23
f 183/47/24 185/59/24 184/33/24
f 179/46/25 181/60/25 180/36/25
f 175/45/26 177/61/26 176/39/26
f 171/44/27 173/62/27 172/42/27
f 168/44/28 170/62/28 169/63/28
f 164/45/29 166/61/29 165/64/29
f 160/46/30 162/60/30 161/65/30
f 156/47/31 158/59/31 157/66/31
f 152/48/32 154/58/32 153/67/32
f 148/49/33 150/57/33 149/68/33
f 143/24/34 145/55/34 144/50/34
f 34/22/35 141/53/35 33/21/35
f 42/18/36 107/19/36 108/19/36
f 74/69/37 109/70/37 110/71/37
f 72/72/38 111/73/38 112/74/38
f 114/75/39 69/76/39 113/77/39
f 116/78/40 67/79/40 115/80/40
f 118/81/41 65/82/41 117/83/41
f 120/84/42 63/85/42 119/86/42
f 122/87/43 61/88/43 121/89/43
f 124/90/44 59/91/44 123/92/44
f 90/91/45 125/90/45 126/92/45
f 88/88/46 127/87/46 128/89/46
f 86/85/47 129/84/47 130/86/47
f 84/82/48 131/81/48 132/83/48
f 82/79/49 133/78/49 134/80/49
f 80/76/50 135/75/50 136/77/50
f 138/73/51 77/72/51 137/74/51
f 140/70/52 75/69/52 139/71/52
f 108/19/53 40/93/53 39/93/53
f 110/71/53 44/94/53 43/95/53
f 45/96/53 111/73/53 46/97/53
f 47/98/53 113/77/53 48/99/53
f 49/100/53 115/80/53 50/101/53
f 51/102/53 117/83/53 52/103/53
f 53/104/53 119/86/53 54/105/53
f 55/106/53 121/89/53 56/107/53
f 57/108/53 123/92/53 58/109/53
f 126/92/53 92/108/53 91/109/53
f 128/89/53 94/106/53 93/107/53
f 130/86/53 96/104/53 95/105/53
f 132/83/53 98/102/53 97/103/53
f 134/80/53 100/100/53 99/101/53
f 136/77/53 102/98/53 101/99/53
f 138/73/53 104/96/53 103/97/53
f 105/94/53 139/71/53 106/95/53
f 38/17/54 36/110/54 37/17/54
f 188/30/55 82/79/55 134/80/55
f 42/18/56 35/110/56 41/18/56
f 97/103/57 184/33/57 132/83/57
f 189/58/58 81/111/58 82/79/58
f 41/18/9 38/17/9 107/19/9
f 183/47/59 98/102/59 131/81/59
f 81/111/60 187/48/60 133/78/60
f 33/21/61 74/69/61 110/71/61
f 99/101/62 188/30/62 134/80/62
f 192/27/63 80/76/63 136/77/63
f 74/69/64 142/54/64 73/112/64
f 187/48/65 100/100/65 133/78/65
f 193/57/66 79/113/66 80/76/66
f 73/112/67 34/22/67 109/70/67
f 79/113/68 191/49/68 135/75/68
f 101/99/69 192/27/69 136/77/69
f 144/50/70 72/72/70 112/74/70
f 191/49/71 102/98/71 135/75/71
f 196/24/72 78/114/72 138/73/72
f 72/72/64 146/56/64 71/114/64
f 197/56/58 77/72/58 78/114/58
f 71/114/73 143/24/73 111/73/73
f 103/97/74 196/24/74 138/73/74
f 77/72/75 195/50/75 137/74/75
f 195/50/76 104/96/76 137/74/76
f 148/49/77 70/113/77 114/75/77
f 200/22/78 76/112/78 140/70/78
f 70/113/64 150/57/64 69/76/64
f 105/94/79 200/22/79 140/70/79
f 201/54/80 75/69/80 76/112/80
f 69/76/81 147/27/81 113/77/81
f 199/21/82 106/95/82 139/71/82
f 75/69/83 199/21/83 139/71/83
f 152/48/84 68/111/84 116/78/84
f 39/93/85 37/17/85 108/19/85
f 68/111/64 154/58/64 67/79/64
f 38/17/86 40/93/86 107/19/86
f 67/79/87 151/30/87 115/80/87
f 43/95/88 33/21/88 110/71/88
f 156/47/89 66/115/89 118/81/89
f 34/22/90 44/94/90 109/70/90
f 66/115/91 158/59/91 65/82/91
f 65/82/92 155/33/92 117/83/92
f 45/96/93 144/50/93 112/74/93
f 143/24/94 46/97/94 111/73/94
f 160/46/95 64/116/95 120/84/95
f 64/116/96 162/60/96 63/85/96
f 47/98/97 148/49/97 114/75/97
f 63/85/98 159/36/98 119/86/98
f 147/27/99 48/99/99 113/77/99
f 164/45/100 62/117/100 122/87/100
f 49/100/101 152/48/101 116/78/101
f 62/117/91 166/61/91 61/88/91
f 151/30/102 50/101/102 115/80/102
f 61/88/103 163/39/103 121/89/103
f 51/102/104 156/47/104 118/81/104
f 168/44/105 60/118/105 124/90/105
f 155/33/106 52/103/106 117/83/106
f 60/118/64 170/62/64 59/91/64
f 59/91/107 167/42/107 123/92/107
f 53/104/108 160/46/108 120/84/108
f 159/36/109 54/105/109 119/86/109
f 172/42/110 90/91/110 126/92/110
f 173/62/80 89/118/80 90/91/80
f 55/106/111 164/45/111 122/87/111
f 89/118/112 171/44/112 125/90/112
f 163/39/113 56/107/113 121/89/113
f 176/39/114 88/88/114 128/89/114
f 57/108/115 168/44/115 124/90/115
f 177/61/66 87/117/66 88/88/66
f 167/42/116 58/109/116 123/92/116
f 87/117/117 175/45/117 127/87/117
f 91/109/118 172/42/118 126/92/118
f 180/36/119 86/85/119 130/86/119
f 171/44/120 92/108/120 125/90/120
f 181/60/58 85/116/58 86/85/58
f 85/116/121 179/46/121 129/84/121
f 93/107/122 176/39/122 128/89/122
f 175/45/123 94/106/123 127/87/123
f 184/33/124 84/82/124 132/83/124
f 185/59/66 83/115/66 84/82/66
f 95/105/125 180/36/125 130/86/125
f 83/115/126 183/47/126 131/81/126
f 179/46/127 96/104/127 129/84/127
f 248/119/19 243/120/19 244/121/19
f 244/121/128 246/122/128 245/123/128
f 242/124/129 239/125/129 241/126/129
f 237/127/53 241/126/53 238/128/53
f 244/121/130 240/129/130 242/124/130
f 240/129/131 246/122/131 239/125/131
f 239/125/132 243/120/132 241/126/132
f 237/127/133 244/121/133 242/124/133
f 243/120/134 238/128/134 241/126/134
f 259/130/19 256/131/19 260/132/19
f 255/133/135 257/134/135 256/131/135
f 250/135/136 253/136/136 254/137/136
f 254/137/53 252/138/53 251/139/53
f 256/131/137 250/135/137 254/137/137
f 257/134/138 249/140/138 250/135/138
f 249/140/139 255/133/139 253/136/139
f 251/139/140 256/131/140 254/137/140
f 255/133/141 252/138/141 253/136/141
f 262/141/1 266/142/1 263/141/1
f 261/143/1 266/142/1 264/144/1
f 271/145/3 268/146/3 267/146/3
f 269/147/3 271/145/3 267/146/3
f 268/146/142 265/144/142 262/141/142
f 270/148/143 261/143/143 264/144/143
f 266/142/144 270/148/144 264/144/144
f 265/144/145 271/145/145 266/142/145
f 269/147/146 263/141/146 261/143/146
f 278/149/1 273/150/1 277/151/1
f 278/149/1 276/152/1 275/153/1
f 280/154/3 282/155/3 281/156/3
f 283/157/3 280/154/3 284/158/3
f 284/158/147 278/149/147 275/153/147
f 282/155/148 277/151/148 273/150/148
f 280/154/149 274/159/149 278/149/149
f 279/160/150 276/152/150 277/151/150
f 283/157/151 275/153/151 276/152/151
f 281/156/152 273/150/152 274/159/152
f 4/1/1 13/2/1 12/2/1
f 8/3/2 15/8/2 14/4/2
f 6/6/3 9/7/3 16/7/3
f 4/1/4 1/1/4 2/5/4
f 2/5/4 5/3/4 4/1/4
f 5/3/4 6/6/4 4/1/4
f 6/6/4 7/6/4 8/3/4
f 8/3/4 3/5/4 6/6/4
f 10/8/5 9/7/5 6/6/5
f 8/3/6 7/6/6 16/7/6
f 14/4/7 13/2/7 4/1/7
f 2/5/8 1/1/8 12/2/8
f 2/5/9 11/4/9 10/8/9
f 21/9/10 29/13/10 30/10/10
f 24/9/4 17/16/4 20/16/4
f 17/16/4 18/14/4 20/16/4
f 18/14/4 19/14/4 20/16/4
f 20/16/4 21/9/4 24/9/4
f 21/9/4 22/11/4 24/9/4
f 25/12/11 32/13/11 31/10/11
f 31/10/153 30/10/153 29/13/153
f 29/13/154 28/12/154 25/12/154
f 28/12/11 27/15/11 25/12/11
f 27/15/153 26/15/153 25/12/153
f 18/14/12 17/16/12 25/12/12
f 19/14/13 18/14/13 26/15/13
f 22/11/14 30/10/14 31/10/14
f 23/11/15 31/10/15 32/13/15
f 20/16/16 19/14/16 27/15/16
f 20/16/17 28/12/17 29/13/17
f 24/9/18 32/13/18 25/12/18
f 37/17/2 36/110/2 42/18/2
f 236/20/19 235/51/19 199/21/19
f 233/23/19 195/50/19 196/24/19
f 231/26/19 191/49/19 192/27/19
f 229/29/19 187/48/19 188/30/19
f 227/32/19 183/47/19 184/33/19
f 225/35/19 179/46/19 180/36/19
f 223/38/19 175/45/19 176/39/19
f 221/41/19 171/44/19 172/42/19
f 220/41/19 219/43/19 167/42/19
f 218/38/19 217/40/19 163/39/19
f 216/35/19 215/37/19 159/36/19
f 214/32/19 213/34/19 155/33/19
f 212/29/19 211/31/19 151/30/19
f 210/26/19 209/28/19 147/27/19
f 208/23/19 207/25/19 143/24/19
f 205/20/19 34/22/19 33/21/19
f 203/52/19 38/17/19 37/17/19
f 200/22/155 199/21/155 202/53/155
f 196/24/156 195/50/156 198/55/156
f 191/49/157 194/68/157 193/57/157
f 187/48/158 190/67/158 189/58/158
f 183/47/159 186/66/159 185/59/159
f 179/46/160 182/65/160 181/60/160
f 175/45/161 178/64/161 177/61/161
f 171/44/162 174/63/162 173/62/162
f 168/44/163 167/42/163 170/62/163
f 164/45/164 163/39/164 166/61/164
f 160/46/165 159/36/165 162/60/165
f 156/47/166 155/33/166 158/59/166
f 152/48/167 151/30/167 154/58/167
f 148/49/168 147/27/168 150/57/168
f 143/24/169 146/56/169 145/55/169
f 34/22/170 142/54/170 141/53/170
f 42/18/36 41/18/36 107/19/36
f 74/69/171 73/112/171 109/70/171
f 72/72/172 71/114/172 111/73/172
f 114/75/173 70/113/173 69/76/173
f 116/78/174 68/111/174 67/79/174
f 118/81/175 66/115/175 65/82/175
f 120/84/176 64/116/176 63/85/176
f 122/87/177 62/117/177 61/88/177
f 124/90/178 60/118/178 59/91/178
f 90/91/179 89/118/179 125/90/179
f 88/88/180 87/117/180 127/87/180
f 86/85/181 85/116/181 129/84/181
f 84/82/182 83/115/182 131/81/182
f 82/79/183 81/111/183 133/78/183
f 80/76/184 79/113/184 135/75/184
f 138/73/185 78/114/185 77/72/185
f 140/70/186 76/112/186 75/69/186
f 108/19/53 107/19/53 40/93/53
f 110/71/53 109/70/53 44/94/53
f 45/96/53 112/74/53 111/73/53
f 47/98/53 114/75/53 113/77/53
f 49/100/53 116/78/53 115/80/53
f 51/102/53 118/81/53 117/83/53
f 53/104/53 120/84/53 119/86/53
f 55/106/53 122/87/53 121/89/53
f 57/108/53 124/90/53 123/92/53
f 126/92/53 125/90/53 92/108/53
f 128/89/53 127/87/53 94/106/53
f 130/86/53 129/84/53 96/104/53
f 132/83/53 131/81/53 98/102/53
f 134/80/53 133/78/53 100/100/53
f 136/77/53 135/75/53 102/98/53
f 138/73/53 137/74/53 104/96/53
f 105/94/53 140/70/53 139/71/53
f 38/17/54 35/110/54 36/110/54
f 188/30/187 189/58/187 82/79/187
f 42/18/188 36/110/188 35/110/188
f 97/103/189 228/34/189 184/33/189
f 189/58/66 190/67/66 81/111/66
f 41/18/9 35/110/9 38/17/9
f 183/47/190 227/32/190 98/102/190
f 81/111/60 190/67/60 187/48/60
f 33/21/61 141/53/61 74/69/61
f 99/101/191 230/31/191 188/30/191
f 192/27/192 193/57/192 80/76/192
f 74/69/64 141/53/64 142/54/64
f 187/48/193 229/29/193 100/100/193
f 193/57/58 194/68/58 79/113/58
f 73/112/67 142/54/67 34/22/67
f 79/113/194 194/68/194 191/49/194
f 101/99/195 232/28/195 192/27/195
f 144/50/70 145/55/70 72/72/70
f 191/49/196 231/26/196 102/98/196
f 196/24/72 197/56/72 78/114/72
f 72/72/96 145/55/96 146/56/96
f 197/56/80 198/55/80 77/72/80
f 71/114/73 146/56/73 143/24/73
f 103/97/197 234/25/197 196/24/197
f 77/72/75 198/55/75 195/50/75
f 195/50/198 233/23/198 104/96/198
f 148/49/199 149/68/199 70/113/199
f 200/22/78 201/54/78 76/112/78
f 70/113/96 149/68/96 150/57/96
f 105/94/200 236/20/200 200/22/200
f 201/54/80 202/53/80 75/69/80
f 69/76/201 150/57/201 147/27/201
f 199/21/202 235/51/202 106/95/202
f 75/69/83 202/53/83 199/21/83
f 152/48/84 153/67/84 68/111/84
f 39/93/85 204/52/85 37/17/85
f 68/111/91 153/67/91 154/58/91
f 38/17/86 203/52/86 40/93/86
f 67/79/203 154/58/203 151/30/203
f 43/95/204 206/51/204 33/21/204
f 156/47/89 157/66/89 66/115/89
f 34/22/205 205/20/205 44/94/205
f 66/115/64 157/66/64 158/59/64
f 65/82/92 158/59/92 155/33/92
f 45/96/206 208/23/206 144/50/206
f 143/24/207 207/25/207 46/97/207
f 160/46/95 161/65/95 64/116/95
f 64/116/64 161/65/64 162/60/64
f 47/98/208 210/26/208 148/49/208
f 63/85/98 162/60/98 159/36/98
f 147/27/209 209/28/209 48/99/209
f 164/45/100 165/64/100 62/117/100
f 49/100/210 212/29/210 152/48/210
f 62/117/64 165/64/64 166/61/64
f 151/30/211 211/31/211 50/101/211
f 61/88/103 166/61/103 163/39/103
f 51/102/212 214/32/212 156/47/212
f 168/44/105 169/63/105 60/118/105
f 155/33/213 213/34/213 52/103/213
f 60/118/64 169/63/64 170/62/64
f 59/91/214 170/62/214 167/42/214
f 53/104/215 216/35/215 160/46/215
f 159/36/216 215/37/216 54/105/216
f 172/42/217 173/62/217 90/91/217
f 173/62/80 174/63/80 89/118/80
f 55/106/218 218/38/218 164/45/218
f 89/118/112 174/63/112 171/44/112
f 163/39/219 217/40/219 56/107/219
f 176/39/114 177/61/114 88/88/114
f 57/108/220 220/41/220 168/44/220
f 177/61/80 178/64/80 87/117/80
f 167/42/221 219/43/221 58/109/221
f 87/117/222 178/64/222 175/45/222
f 91/109/223 222/43/223 172/42/223
f 180/36/119 181/60/119 86/85/119
f 171/44/224 221/41/224 92/108/224
f 181/60/80 182/65/80 85/116/80
f 85/116/121 182/65/121 179/46/121
f 93/107/225 224/40/225 176/39/225
f 175/45/226 223/38/226 94/106/226
f 184/33/124 185/59/124 84/82/124
f 185/59/80 186/66/80 83/115/80
f 95/105/227 226/37/227 180/36/227
f 83/115/126 186/66/126 183/47/126
f 179/46/228 225/35/228 96/104/228
f 248/119/19 247/161/19 243/120/19
f 244/121/229 243/120/229 246/122/229
f 242/124/230 240/129/230 239/125/230
f 237/127/53 242/124/53 241/126/53
f 244/121/231 245/123/231 240/129/231
f 240/129/232 245/123/232 246/122/232
f 239/125/233 246/122/233 243/120/233
f 237/127/234 248/119/234 244/121/234
f 243/120/235 247/161/235 238/128/235
f 259/130/19 255/133/19 256/131/19
f 255/133/236 258/162/236 257/134/236
f 250/135/237 249/140/237 253/136/237
f 254/137/53 253/136/53 252/138/53
f 256/131/238 257/134/238 250/135/238
f 257/134/138 258/162/138 249/140/138
f 249/140/239 258/162/239 255/133/239
f 251/139/240 260/132/240 256/131/240
f 255/133/241 259/130/241 252/138/241
f 262/141/1 265/144/1 266/142/1
f 261/143/1 263/141/1 266/142/1
f 271/145/3 272/148/3 268/146/3
f 269/147/3 270/148/3 271/145/3
f 268/146/142 272/148/142 265/144/142
f 270/148/143 269/147/143 261/143/143
f 266/142/144 271/145/144 270/148/144
f 265/144/145 272/148/145 271/145/145
f 269/147/146 267/146/146 263/141/146
f 278/149/1 274/159/1 273/150/1
f 278/149/1 277/151/1 276/152/1
f 280/154/3 279/160/3 282/155/3
f 283/157/3 279/160/3 280/154/3
f 284/158/147 280/154/147 278/149/147
f 282/155/148 279/160/148 277/151/148
f 280/154/149 281/156/149 274/159/149
f 279/160/150 283/157/150 276/152/150
f 283/157/151 284/158/151 275/153/151
f 281/156/152 282/155/152 273/150/152
