# Blender 4.4.0
# www.blender.org
mtllib Tool_Tool_Wall_01.mtl
o Tool_Tool_Wall_01
v -0.935000 0.058307 -0.013852
v 0.935000 0.058307 -0.013852
v -0.935000 1.018307 -0.013852
v 0.935000 1.018307 -0.013852
v -0.935000 0.058307 -0.013852
v -0.993307 1.018307 -0.013852
v -0.935000 1.018307 -0.013852
v -0.993307 1.076614 -0.013852
v 0.993307 1.076614 -0.013852
v -0.993307 0.058307 -0.013852
v -0.993307 0.000000 -0.013852
v 0.993307 0.058307 -0.013852
v 0.993307 -0.000000 -0.013852
v 0.935000 0.058307 -0.013852
v 0.935000 1.018307 -0.013852
v 0.993307 1.018307 -0.013852
v -0.993307 1.018307 0.013852
v -0.935000 0.058307 0.013852
v -0.935000 1.018307 0.013852
v -0.993307 1.076614 0.013852
v 0.993307 1.076614 0.013852
v -0.993307 0.058307 0.013852
v 0.993307 0.058307 0.013852
v -0.993307 -0.000000 0.013852
v 0.993307 -0.000000 0.013852
v 0.935000 0.058307 0.013852
v 0.935000 1.018307 0.013852
v 0.993307 1.018307 0.013852
vn -0.0000 -0.0000 1.0000
vn 1.0000 -0.0000 -0.0000
vn -1.0000 -0.0000 -0.0000
vn -0.0000 1.0000 -0.0000
vn -0.0000 -1.0000 -0.0000
vt 0.573241 0.867872
vt 0.568869 0.983230
vt 0.568869 0.867872
vt 0.335091 0.887284
vt 0.335148 0.975603
vt 0.335148 0.887284
vt 0.357419 0.945238
vt 0.356200 0.948608
vt 0.357419 0.948608
vt 0.357419 0.870189
vt 0.356200 0.873559
vt 0.357419 0.873559
vt 0.333207 0.887284
vt 0.333264 0.975603
vt 0.333264 0.887284
vt 0.356200 0.945238
vt 0.335091 0.975603
vt 0.356200 0.870189
vt 0.333207 0.975603
vt 0.573241 0.983230
s 0
usemtl Texture_Map
f 2/1/1 3/2/1 1/3/1
f 18/4/1 17/5/1 22/6/1
f 17/7/1 21/8/1 20/9/1
f 24/10/1 23/11/1 22/12/1
f 23/13/1 27/14/1 26/15/1
f 16/16/2 21/8/2 28/16/2
f 10/6/3 17/5/3 6/5/3
f 10/12/4 23/11/4 12/11/4
f 11/10/3 22/12/3 10/12/3
f 7/17/2 18/4/2 5/4/2
f 13/18/5 24/10/5 11/10/5
f 12/11/2 25/18/2 13/18/2
f 8/9/4 21/8/4 9/8/4
f 14/15/3 27/14/3 15/14/3
f 6/7/3 20/9/3 8/9/3
f 16/16/5 17/7/5 6/7/5
f 16/19/2 23/13/2 12/13/2
f 2/1/1 4/20/1 3/2/1
f 18/4/1 19/17/1 17/5/1
f 17/7/1 28/16/1 21/8/1
f 24/10/1 25/18/1 23/11/1
f 23/13/1 28/19/1 27/14/1
f 16/16/2 9/8/2 21/8/2
f 10/6/3 22/6/3 17/5/3
f 10/12/4 22/12/4 23/11/4
f 11/10/3 24/10/3 22/12/3
f 7/17/2 19/17/2 18/4/2
f 13/18/5 25/18/5 24/10/5
f 12/11/2 23/11/2 25/18/2
f 8/9/4 20/9/4 21/8/4
f 14/15/3 26/15/3 27/14/3
f 6/7/3 17/7/3 20/9/3
f 16/16/5 28/16/5 17/7/5
f 16/19/2 28/19/2 23/13/2
