# Blender 4.4.0
# www.blender.org
mtllib Tool_Hand_Scythe_03.mtl
o Tool_Hand_Scythe_03
v 0.012484 0.117509 -0.003541
v 0.003541 0.117509 -0.012484
v 0.012484 0.117509 0.003541
v 0.003541 0.117509 0.012484
v -0.012484 0.117509 0.003541
v -0.003541 0.117509 0.012484
v -0.012484 0.117509 -0.003541
v -0.003541 0.117509 -0.012484
v -0.016495 0.155357 0.006812
v -0.020345 0.151173 0.008304
v -0.006812 0.155357 0.016495
v -0.008304 0.151173 0.020345
v 0.006812 0.155357 0.016495
v 0.008304 0.151173 0.020345
v 0.016495 0.155357 0.006812
v 0.020345 0.151173 0.008304
v -0.006812 0.155357 -0.016495
v -0.008304 0.151173 -0.020345
v -0.016495 0.155357 -0.006812
v -0.020345 0.151173 -0.008304
v 0.016495 0.155357 -0.006812
v 0.020345 0.151173 -0.008304
v 0.006812 0.155357 -0.016495
v 0.008304 0.151173 -0.020345
v 0.017410 0.077370 -0.004938
v 0.004938 0.077370 -0.017410
v 0.017410 0.077370 0.004938
v 0.004938 0.077370 0.017410
v -0.017410 0.077370 0.004938
v -0.004938 0.077370 0.017410
v -0.017410 0.077370 -0.004938
v -0.004938 0.077370 -0.017410
v 0.015178 0.006945 -0.004305
v 0.007536 0.000000 -0.001226
v 0.001226 0.000000 -0.007536
v 0.004305 0.006945 -0.015178
v 0.007536 -0.000000 0.001226
v 0.015178 0.006945 0.004305
v 0.004305 0.006945 0.015178
v 0.001226 -0.000000 0.007536
v -0.015179 0.006945 0.004305
v -0.007536 -0.000000 0.001226
v -0.001226 -0.000000 0.007536
v -0.004305 0.006945 0.015178
v -0.007536 0.000000 -0.001226
v -0.015179 0.006945 -0.004305
v -0.004305 0.006945 -0.015178
v -0.001226 0.000000 -0.007536
v -0.012655 0.155357 0.005226
v -0.005226 0.155357 0.012655
v 0.005226 0.155357 0.012655
v 0.012655 0.155357 0.005226
v -0.005226 0.155357 -0.012655
v -0.012655 0.155357 -0.005226
v 0.012655 0.155357 -0.005226
v 0.005226 0.155357 -0.012655
v 0.004422 0.167263 -0.010708
v 0.010708 0.167263 -0.004422
v -0.004422 0.167263 0.010708
v -0.010708 0.167263 0.004422
v 0.010708 0.167263 0.004422
v 0.004422 0.167263 0.010708
v -0.010708 0.167263 -0.004422
v -0.004422 0.167263 -0.010708
v -0.008946 0.167478 0.003587
v 0.007599 0.167520 0.003587
v -0.011979 0.177990 0.003587
v 0.007790 0.174858 0.003587
v -0.015633 0.193753 0.000000
v 0.011561 0.178720 0.003587
v -0.001018 0.200017 0.000000
v 0.020644 0.184984 0.003587
v 0.026292 0.216678 0.000000
v 0.045323 0.203149 0.003587
v 0.064608 0.274260 0.000000
v 0.094029 0.249907 0.001850
v 0.048373 0.241963 0.000000
v 0.071408 0.225251 0.001850
v 0.077077 0.328206 0.000000
v 0.121435 0.299739 0.001850
v 0.075951 0.369942 0.000000
v 0.131609 0.364465 0.001850
v 0.059950 0.416570 0.000000
v 0.120503 0.419302 0.001850
v 0.028258 0.451379 0.000000
v 0.089111 0.466061 0.001199
v 0.000982 0.466706 0.000000
v 0.045989 0.496713 0.001409
v -0.043659 0.477571 0.000000
v -0.021397 0.509990 0.001481
v -0.131240 0.475018 0.000000
v -0.135329 0.497233 0.001176
v -0.179167 0.466338 0.000000
v -0.181048 0.479828 0.001062
v -0.207901 0.460536 0.000000
v -0.201713 0.466097 0.001192
v -0.086665 0.478685 0.000000
v -0.084533 0.508558 0.001245
v -0.019019 0.473482 0.000000
v 0.016155 0.505844 0.001244
v -0.008946 0.167478 -0.003587
v 0.007599 0.167520 -0.003587
v -0.011979 0.177990 -0.003587
v 0.007790 0.174858 -0.003587
v 0.011561 0.178720 -0.003587
v 0.020644 0.184984 -0.003587
v 0.045323 0.203149 -0.003587
v 0.094029 0.249907 -0.001850
v 0.071408 0.225251 -0.001850
v 0.121435 0.299739 -0.001850
v 0.131609 0.364465 -0.001850
v 0.120503 0.419302 -0.001850
v 0.089111 0.466061 -0.001199
v 0.045989 0.496713 -0.001409
v -0.021397 0.509990 -0.001481
v -0.135329 0.497233 -0.001176
v -0.181048 0.479828 -0.001062
v -0.201713 0.466097 -0.001192
v -0.084533 0.508558 -0.001245
v 0.016155 0.505844 -0.001244
v -0.005991 0.167485 0.003587
v 0.002851 0.197333 0.000641
v 0.029691 0.214262 0.000641
v 0.069862 0.269912 0.000330
v 0.052486 0.238978 0.000330
v 0.084998 0.323122 0.000330
v 0.085890 0.368964 0.000330
v 0.070763 0.417058 0.000330
v 0.039124 0.454001 0.000214
v 0.009019 0.472064 0.000252
v -0.039684 0.483360 0.000265
v -0.131970 0.478985 0.000210
v -0.179503 0.468747 0.000190
v -0.206796 0.461529 0.000213
v -0.086285 0.484019 0.000222
v -0.012738 0.479261 0.000222
v -0.005991 0.167485 -0.003587
v 0.052486 0.238978 -0.000330
v 0.002851 0.197333 -0.000641
v -0.012738 0.479261 -0.000222
v 0.084998 0.323122 -0.000330
v 0.069862 0.269912 -0.000330
v 0.085890 0.368964 -0.000330
v 0.070763 0.417058 -0.000330
v 0.039124 0.454001 -0.000214
v 0.009019 0.472064 -0.000251
v -0.086285 0.484019 -0.000222
v -0.179503 0.468747 -0.000190
v -0.206796 0.461529 -0.000213
v -0.131970 0.478985 -0.000210
v -0.039684 0.483360 -0.000264
v 0.029691 0.214262 -0.000641
vn 0.6835 -0.2563 0.6835
vn 0.6835 -0.2563 -0.6835
vn -0.0000 -0.2274 0.9738
vn -0.6835 -0.2563 -0.6835
vn -0.0000 1.0000 -0.0000
vn -0.9738 -0.2274 -0.0000
vn -0.6835 -0.2563 0.6835
vn 0.9738 -0.2274 -0.0000
vn -0.0000 -0.2274 -0.9738
vn 0.5248 0.6701 -0.5249
vn -0.5249 0.6701 0.5249
vn 0.5249 0.6701 0.5249
vn -0.5249 0.6701 -0.5249
vn -0.7359 0.6771 -0.0000
vn -0.0000 0.6771 0.7359
vn 0.7359 0.6771 -0.0000
vn -0.0000 0.6771 -0.7359
vn 0.7028 0.1107 0.7028
vn 0.9926 0.1218 -0.0000
vn -0.9926 0.1218 -0.0000
vn -0.7028 0.1107 0.7028
vn 0.7028 0.1107 -0.7028
vn -0.0000 0.1218 -0.9926
vn -0.0000 0.1218 0.9926
vn -0.7028 0.1107 -0.7028
vn -0.7068 -0.0288 0.7068
vn -0.0000 -0.0317 0.9995
vn 0.7068 -0.0288 -0.7068
vn -0.7068 -0.0288 -0.7068
vn -0.9995 -0.0317 -0.0000
vn -0.0000 -0.0317 -0.9995
vn 0.7068 -0.0288 0.7068
vn 0.9995 -0.0317 -0.0000
vn 0.4777 -0.7373 -0.4777
vn 0.4777 -0.7373 0.4777
vn -0.4777 -0.7373 0.4777
vn -0.4777 -0.7373 -0.4777
vn -0.6725 -0.7401 -0.0000
vn -0.0000 -0.7401 0.6725
vn 0.6725 -0.7401 -0.0000
vn -0.0000 -0.7401 -0.6725
vn -0.0000 -1.0000 -0.0000
vn -0.6978 0.1613 0.6979
vn 0.9869 0.1614 -0.0000
vn -0.9869 0.1614 -0.0000
vn 0.6978 0.1613 0.6979
vn 0.6978 0.1613 -0.6979
vn -0.0000 0.1614 -0.9869
vn -0.0000 0.1614 0.9869
vn -0.6978 0.1613 -0.6979
vn -0.0000 -0.0000 1.0000
vn -0.0593 0.1290 0.9899
vn -0.0780 0.1237 0.9893
vn -0.0429 0.0241 0.9988
vn -0.1071 0.1112 0.9880
vn -0.0352 0.0100 0.9993
vn -0.0332 0.0006 0.9995
vn -0.0301 -0.0095 0.9995
vn -0.0170 -0.0114 0.9998
vn -0.0142 -0.0257 0.9996
vn -0.0049 -0.0423 0.9991
vn 0.0054 -0.0519 0.9986
vn 0.0160 -0.0763 0.9970
vn 0.0777 -0.2909 0.9536
vn -0.0015 -0.0415 0.9991
vn -0.0103 -0.0272 0.9996
vn -0.0068 0.2204 0.9754
vn -0.0000 -0.0000 -1.0000
vn -0.0593 0.1290 -0.9899
vn -0.0780 0.1237 -0.9893
vn -0.0481 0.0441 -0.9979
vn -0.1071 0.1112 -0.9880
vn -0.0431 0.0237 -0.9988
vn -0.0379 0.0059 -0.9993
vn -0.0339 -0.0069 -0.9994
vn -0.0302 -0.0064 -0.9995
vn -0.0135 -0.0258 -0.9996
vn 0.0019 -0.0404 -0.9992
vn 0.0081 -0.0422 -0.9991
vn 0.0165 -0.0498 -0.9986
vn 0.0534 -0.0710 -0.9960
vn -0.0028 -0.0438 -0.9990
vn -0.0136 -0.0265 -0.9996
vn -0.9608 -0.2773 -0.0000
vn 0.0025 -1.0000 -0.0000
vn 0.9997 -0.0261 -0.0000
vn -0.9742 -0.2258 -0.0000
vn 0.7155 -0.6986 -0.0000
vn 0.5677 -0.8232 -0.0000
vn 0.5928 -0.8054 -0.0000
vn 0.7369 -0.6760 -0.0000
vn 0.6465 -0.7630 -0.0000
vn 0.8762 -0.4819 -0.0000
vn 0.9879 -0.1553 -0.0000
vn 0.9801 0.1985 -0.0000
vn 0.8302 0.5574 -0.0000
vn 0.5794 0.8151 -0.0000
vn 0.1097 0.9940 -0.0000
vn -0.2176 0.9760 -0.0000
vn -0.3558 0.9346 -0.0000
vn -0.6684 0.7438 -0.0000
vn -0.5534 0.8329 -0.0000
vn -0.0227 0.9997 -0.0000
vn 0.2927 0.9562 -0.0000
vn -0.0113 -0.0300 -0.9995
vn -0.0015 -0.0446 -0.9990
vn 0.0208 -0.0756 -0.9969
vn 0.0105 -0.0509 -0.9986
vn 0.0044 -0.0419 -0.9991
vn -0.0037 -0.0344 -0.9994
vn -0.0137 -0.0249 -0.9996
vn -0.0295 -0.0221 -0.9993
vn -0.0343 -0.0108 -0.9994
vn -0.0411 0.0008 -0.9992
vn -0.0508 0.0145 -0.9986
vn -0.1149 0.1004 -0.9883
vn -0.0569 0.0320 -0.9979
vn -0.0766 0.1256 -0.9891
vn -0.0624 0.1456 -0.9874
vn -0.0095 -0.0281 0.9996
vn -0.0011 -0.0416 0.9991
vn 0.0537 -0.2661 0.9624
vn 0.0139 -0.0766 0.9970
vn 0.0043 -0.0521 0.9986
vn -0.0068 -0.0410 0.9991
vn -0.0143 -0.0255 0.9996
vn -0.0162 -0.0147 0.9998
vn -0.0301 -0.0103 0.9995
vn -0.0333 -0.0009 0.9994
vn -0.0363 0.0084 0.9993
vn -0.1149 0.1004 0.9883
vn -0.0443 0.0223 0.9988
vn -0.0766 0.1256 0.9891
vn -0.0624 0.1456 0.9874
vn 0.5249 0.6701 -0.5249
vn 0.5248 0.6701 0.5249
vn -0.0817 0.1184 0.9896
vn -0.0946 0.1286 0.9872
vn -0.0481 0.0441 0.9979
vn -0.0125 0.0930 0.9956
vn -0.0431 0.0237 0.9988
vn -0.0379 0.0059 0.9993
vn -0.0339 -0.0069 0.9994
vn -0.0302 -0.0064 0.9995
vn -0.0135 -0.0258 0.9996
vn 0.0019 -0.0404 0.9992
vn 0.0081 -0.0422 0.9991
vn 0.0165 -0.0498 0.9986
vn 0.0534 -0.0710 0.9960
vn -0.0028 -0.0438 0.9990
vn -0.0136 -0.0265 0.9996
vn -0.0817 0.1184 -0.9896
vn -0.0946 0.1286 -0.9872
vn -0.0429 0.0241 -0.9988
vn -0.0125 0.0930 -0.9956
vn -0.0352 0.0100 -0.9993
vn -0.0332 0.0006 -0.9995
vn -0.0301 -0.0095 -0.9995
vn -0.0170 -0.0114 -0.9998
vn -0.0142 -0.0257 -0.9996
vn -0.0049 -0.0423 -0.9991
vn 0.0054 -0.0519 -0.9986
vn 0.0160 -0.0763 -0.9970
vn 0.0777 -0.2909 -0.9536
vn -0.0015 -0.0415 -0.9991
vn -0.0103 -0.0272 -0.9996
vn -0.0095 -0.0281 -0.9996
vn -0.0011 -0.0416 -0.9991
vn 0.0537 -0.2661 -0.9624
vn 0.0139 -0.0766 -0.9970
vn 0.0043 -0.0521 -0.9986
vn -0.0068 -0.0410 -0.9991
vn -0.0143 -0.0255 -0.9996
vn -0.0162 -0.0147 -0.9998
vn -0.0301 -0.0103 -0.9995
vn -0.0333 -0.0009 -0.9994
vn -0.0363 0.0084 -0.9993
vn -0.0426 0.0518 -0.9978
vn -0.0443 0.0223 -0.9988
vn -0.0874 0.1386 -0.9865
vn -0.0113 -0.0300 0.9995
vn -0.0015 -0.0446 0.9990
vn 0.0208 -0.0756 0.9969
vn 0.0105 -0.0509 0.9986
vn 0.0044 -0.0419 0.9991
vn -0.0037 -0.0344 0.9994
vn -0.0137 -0.0249 0.9996
vn -0.0295 -0.0221 0.9993
vn -0.0343 -0.0108 0.9994
vn -0.0411 0.0008 0.9992
vn -0.0508 0.0145 0.9986
vn -0.0426 0.0518 0.9978
vn -0.0569 0.0320 0.9979
vn -0.0874 0.1386 0.9865
vn -0.0068 0.2204 -0.9754
vt 0.576060 0.912081
vt 0.575885 0.889210
vt 0.575934 0.912081
vt 0.575636 0.912081
vt 0.575811 0.889210
vt 0.575718 0.889210
vt 0.575978 0.889210
vt 0.575761 0.912081
vt 0.576019 0.914923
vt 0.575919 0.914923
vt 0.575676 0.914923
vt 0.575777 0.914923
vt 0.576029 0.861940
vt 0.575899 0.861940
vt 0.575796 0.861940
vt 0.575667 0.861940
vt 0.576006 0.814095
vt 0.575690 0.814095
vt 0.575803 0.814095
vt 0.575893 0.814095
vt 0.575835 0.809376
vt 0.575861 0.809376
vt 0.575926 0.809376
vt 0.575769 0.809376
vt 0.455688 0.614195
vt 0.455694 0.614195
vt 0.455709 0.614195
vt 0.455693 0.609920
vt 0.455703 0.614195
vt 0.455704 0.609920
vt 0.455686 0.609920
vt 0.455711 0.609920
vt 0.455695 0.636597
vt 0.455695 0.639244
vt 0.455695 0.640368
vt 0.455695 0.640630
vt 0.455698 0.647313
vt 0.455699 0.646027
vt 0.455695 0.642879
vt 0.455698 0.653389
vt 0.455698 0.662261
vt 0.455697 0.666185
vt 0.455698 0.673366
vt 0.455695 0.649399
vt 0.455697 0.684073
vt 0.455698 0.692467
vt 0.455697 0.707308
vt 0.455698 0.708923
vt 0.455697 0.726993
vt 0.455698 0.726188
vt 0.455697 0.743778
vt 0.455698 0.739449
vt 0.455697 0.754781
vt 0.455698 0.745933
vt 0.455698 0.748517
vt 0.455697 0.759548
vt 0.455698 0.749988
vt 0.455698 0.750225
vt 0.455697 0.754968
vt 0.455698 0.748418
vt 0.455698 0.748720
vt 0.455698 0.744744
vt 0.455697 0.743791
vt 0.455698 0.742151
vt 0.455697 0.759033
vt 0.455697 0.758059
vt 0.455702 0.639244
vt 0.455702 0.636609
vt 0.455702 0.636597
vt 0.455699 0.647313
vt 0.455702 0.640630
vt 0.455699 0.653389
vt 0.455702 0.642879
vt 0.455699 0.662261
vt 0.455700 0.666185
vt 0.455700 0.657333
vt 0.455702 0.649399
vt 0.455699 0.673366
vt 0.455700 0.684073
vt 0.455699 0.692467
vt 0.455700 0.707308
vt 0.455699 0.708923
vt 0.455700 0.726993
vt 0.455699 0.726188
vt 0.455700 0.743778
vt 0.455699 0.739449
vt 0.455700 0.754781
vt 0.455699 0.748517
vt 0.455700 0.759548
vt 0.455700 0.758059
vt 0.455699 0.750225
vt 0.455700 0.754968
vt 0.455700 0.759033
vt 0.455699 0.748418
vt 0.455700 0.748720
vt 0.455699 0.744744
vt 0.455700 0.743791
vt 0.455699 0.749988
vt 0.455699 0.745933
vt 0.455695 0.636594
vt 0.455702 0.640368
vt 0.455702 0.636594
vt 0.455695 0.636609
vt 0.455697 0.657333
vt 0.455699 0.742151
vt 0.455699 0.741795
vt 0.467108 0.781688
vt 0.467108 0.783570
vt 0.467108 0.782491
vt 0.467108 0.783316
vt 0.467108 0.784283
vt 0.467108 0.784184
vt 0.467108 0.781633
vt 0.467108 0.780912
vt 0.467108 0.781994
vt 0.467108 0.782934
vt 0.467108 0.783529
vt 0.467108 0.783483
vt 0.467108 0.782704
vt 0.467108 0.779390
vt 0.467108 0.779783
vt 0.467108 0.774172
vt 0.467108 0.774246
vt 0.467108 0.767183
vt 0.467108 0.767036
vt 0.467108 0.760926
vt 0.467108 0.760164
vt 0.467108 0.752840
vt 0.467108 0.752188
vt 0.467108 0.747998
vt 0.467108 0.743846
vt 0.467108 0.744208
vt 0.467108 0.747551
vt 0.467108 0.741309
vt 0.467108 0.741711
vt 0.467108 0.740772
vt 0.467108 0.783570
vt 0.467108 0.784283
vt 0.467108 0.780912
vt 0.467108 0.780763
vt 0.467108 0.781994
vt 0.467108 0.783529
vt 0.467108 0.784184
vt 0.467108 0.782491
vt 0.467108 0.779783
vt 0.467108 0.774246
vt 0.467108 0.767036
vt 0.467108 0.760164
vt 0.467108 0.743846
vt 0.467108 0.752188
vt 0.467108 0.741309
vt 0.467108 0.747551
s 0
usemtl Texture_Map
f 14/1/1 3/2/1 16/3/1
f 24/4/2 1/5/2 2/6/2
f 4/7/3 12/1/3 6/7/3
f 8/6/4 20/8/4 18/4/4
f 11/9/5 15/10/5 23/11/5
f 7/5/6 10/3/6 20/8/6
f 6/7/7 10/3/7 5/2/7
f 1/5/8 16/3/8 3/2/8
f 2/6/9 18/4/9 24/4/9
f 21/12/10 24/4/10 23/11/10
f 11/9/11 10/3/11 12/1/11
f 15/10/12 14/1/12 16/3/12
f 17/11/13 20/8/13 19/12/13
f 19/12/14 10/3/14 9/10/14
f 12/1/15 13/9/15 11/9/15
f 22/8/16 15/10/16 16/3/16
f 18/4/17 23/11/17 24/4/17
f 3/2/18 28/13/18 27/14/18
f 3/2/19 25/15/19 1/5/19
f 7/5/20 29/14/20 5/2/20
f 6/7/21 29/14/21 30/13/21
f 1/5/22 26/16/22 2/6/22
f 2/6/23 32/16/23 8/6/23
f 6/7/24 28/13/24 4/7/24
f 8/6/25 31/15/25 7/5/25
f 29/14/26 44/17/26 30/13/26
f 28/13/27 44/17/27 39/17/27
f 25/15/28 36/18/28 26/16/28
f 31/15/29 47/18/29 46/19/29
f 31/15/30 41/20/30 29/14/30
f 26/16/31 47/18/31 32/16/31
f 27/14/32 39/17/32 38/20/32
f 27/14/33 33/19/33 25/15/33
f 34/21/34 36/18/34 33/19/34
f 39/17/35 37/22/35 38/20/35
f 42/22/36 44/17/36 41/20/36
f 47/18/37 45/21/37 46/19/37
f 41/20/38 45/21/38 42/22/38
f 44/17/39 40/23/39 39/17/39
f 38/20/40 34/21/40 33/19/40
f 47/18/41 35/24/41 48/24/41
f 48/24/42 35/24/42 43/23/42
f 59/25/5 61/26/5 57/27/5
f 49/28/43 59/25/43 60/26/43
f 52/28/44 58/29/44 61/26/44
f 49/28/45 63/29/45 54/30/45
f 52/28/46 62/25/46 51/31/46
f 55/30/47 57/27/47 58/29/47
f 53/32/48 57/27/48 56/32/48
f 51/31/49 59/25/49 50/31/49
f 54/30/50 64/27/50 53/32/50
f 121/33/51 68/34/51 67/35/51
f 70/36/52 122/37/52 69/38/52
f 72/39/53 123/40/53 122/37/53
f 125/41/54 76/42/54 124/43/54
f 74/44/55 125/41/55 123/40/55
f 124/43/56 80/45/56 126/46/56
f 126/46/57 82/47/57 127/48/57
f 127/48/58 84/49/58 128/50/58
f 128/50/59 86/51/59 129/52/59
f 129/52/60 88/53/60 130/54/60
f 136/55/61 90/56/61 131/57/61
f 135/58/62 92/59/62 132/60/62
f 132/60/63 94/61/63 133/62/63
f 133/62/64 96/63/64 134/64/64
f 131/57/65 98/65/65 135/58/65
f 130/54/66 100/66/66 136/55/66
f 67/35/67 70/36/67 69/38/67
f 104/67/68 102/68/68 137/69/68
f 139/70/69 105/71/69 69/38/69
f 152/72/70 106/73/70 139/70/70
f 138/74/71 108/75/71 109/76/71
f 138/74/72 107/77/72 152/72/72
f 142/78/73 110/79/73 108/75/73
f 141/80/74 111/81/74 110/79/74
f 143/82/75 112/83/75 111/81/75
f 144/84/76 113/85/76 112/83/76
f 145/86/77 114/87/77 113/85/77
f 140/88/78 115/89/78 120/90/78
f 147/91/79 116/92/79 119/93/79
f 150/94/80 117/95/80 116/92/80
f 148/96/81 118/97/81 117/95/81
f 151/98/82 119/93/82 115/89/82
f 146/99/83 120/90/83 114/87/83
f 65/100/84 103/101/84 101/102/84
f 65/100/85 137/69/85 121/33/85
f 66/103/86 104/67/86 68/34/86
f 67/35/87 69/38/87 103/101/87
f 68/34/88 105/71/88 70/36/88
f 70/36/89 106/73/89 72/39/89
f 72/39/90 107/77/90 74/44/90
f 78/104/91 108/75/91 76/42/91
f 74/44/92 109/76/92 78/104/92
f 76/42/93 110/79/93 80/45/93
f 80/45/94 111/81/94 82/47/94
f 82/47/95 112/83/95 84/49/95
f 84/49/96 113/85/96 86/51/96
f 86/51/97 114/87/97 88/53/97
f 100/66/98 115/89/98 90/56/98
f 98/65/99 116/92/99 92/59/99
f 92/59/100 117/95/100 94/61/100
f 134/64/101 118/97/101 149/105/101
f 96/63/102 117/95/102 118/97/102
f 90/56/103 119/93/103 98/65/103
f 88/53/104 120/90/104 100/66/104
f 95/106/101 134/64/101 149/105/101
f 121/33/85 102/68/85 66/103/85
f 87/107/105 140/108/105 146/109/105
f 89/110/106 147/111/106 151/112/106
f 93/113/107 149/114/107 148/115/107
f 91/116/108 148/115/108 150/117/108
f 97/118/109 150/117/109 147/111/109
f 99/119/110 151/112/110 140/108/110
f 85/120/111 146/109/111 145/121/111
f 83/122/112 145/121/112 144/123/112
f 81/124/113 144/123/113 143/125/113
f 79/126/114 143/125/114 141/127/114
f 75/128/115 141/127/115 142/129/115
f 77/130/116 152/131/116 73/132/116
f 77/130/117 142/129/117 138/133/117
f 73/132/118 139/134/118 71/135/118
f 69/136/119 71/135/119 139/134/119
f 87/107/120 136/137/120 99/119/120
f 89/110/121 135/138/121 97/118/121
f 93/113/122 134/139/122 95/140/122
f 91/116/123 133/141/123 93/113/123
f 97/118/124 132/142/124 91/116/124
f 99/119/125 131/143/125 89/110/125
f 85/120/126 130/144/126 87/107/126
f 83/122/127 129/145/127 85/120/127
f 81/124/128 128/146/128 83/122/128
f 79/126/129 127/147/129 81/124/129
f 75/128/130 126/148/130 79/126/130
f 123/149/131 77/130/131 73/132/131
f 77/130/132 124/150/132 75/128/132
f 122/151/133 73/132/133 71/135/133
f 69/136/134 122/151/134 71/135/134
f 103/101/68 105/71/68 104/67/68
f 14/1/1 4/7/1 3/2/1
f 24/4/2 22/8/2 1/5/2
f 4/7/3 14/1/3 12/1/3
f 8/6/4 7/5/4 20/8/4
f 19/12/5 9/10/5 11/9/5
f 11/9/5 13/9/5 15/10/5
f 15/10/5 21/12/5 23/11/5
f 23/11/5 17/11/5 19/12/5
f 19/12/5 11/9/5 23/11/5
f 7/5/6 5/2/6 10/3/6
f 6/7/7 12/1/7 10/3/7
f 1/5/8 22/8/8 16/3/8
f 2/6/9 8/6/9 18/4/9
f 21/12/135 22/8/135 24/4/135
f 11/9/11 9/10/11 10/3/11
f 15/10/136 13/9/136 14/1/136
f 17/11/13 18/4/13 20/8/13
f 19/12/14 20/8/14 10/3/14
f 12/1/15 14/1/15 13/9/15
f 22/8/16 21/12/16 15/10/16
f 18/4/17 17/11/17 23/11/17
f 3/2/18 4/7/18 28/13/18
f 3/2/19 27/14/19 25/15/19
f 7/5/20 31/15/20 29/14/20
f 6/7/21 5/2/21 29/14/21
f 1/5/22 25/15/22 26/16/22
f 2/6/23 26/16/23 32/16/23
f 6/7/24 30/13/24 28/13/24
f 8/6/25 32/16/25 31/15/25
f 29/14/26 41/20/26 44/17/26
f 28/13/27 30/13/27 44/17/27
f 25/15/28 33/19/28 36/18/28
f 31/15/29 32/16/29 47/18/29
f 31/15/30 46/19/30 41/20/30
f 26/16/31 36/18/31 47/18/31
f 27/14/32 28/13/32 39/17/32
f 27/14/33 38/20/33 33/19/33
f 34/21/34 35/24/34 36/18/34
f 39/17/35 40/23/35 37/22/35
f 42/22/36 43/23/36 44/17/36
f 47/18/37 48/24/37 45/21/37
f 41/20/38 46/19/38 45/21/38
f 44/17/39 43/23/39 40/23/39
f 38/20/40 37/22/40 34/21/40
f 47/18/41 36/18/41 35/24/41
f 35/24/42 34/21/42 37/22/42
f 37/22/42 40/23/42 35/24/42
f 40/23/42 43/23/42 35/24/42
f 43/23/42 42/22/42 45/21/42
f 45/21/42 48/24/42 43/23/42
f 63/29/5 60/26/5 59/25/5
f 59/25/5 62/25/5 61/26/5
f 61/26/5 58/29/5 57/27/5
f 57/27/5 64/27/5 63/29/5
f 63/29/5 59/25/5 57/27/5
f 49/28/43 50/31/43 59/25/43
f 52/28/44 55/30/44 58/29/44
f 49/28/45 60/26/45 63/29/45
f 52/28/46 61/26/46 62/25/46
f 55/30/47 56/32/47 57/27/47
f 53/32/48 64/27/48 57/27/48
f 51/31/49 62/25/49 59/25/49
f 54/30/50 63/29/50 64/27/50
f 67/35/51 65/100/51 121/33/51
f 121/33/51 66/103/51 68/34/51
f 70/36/137 72/39/137 122/37/137
f 72/39/138 74/44/138 123/40/138
f 125/41/139 78/104/139 76/42/139
f 74/44/140 78/104/140 125/41/140
f 124/43/141 76/42/141 80/45/141
f 126/46/142 80/45/142 82/47/142
f 127/48/143 82/47/143 84/49/143
f 128/50/144 84/49/144 86/51/144
f 129/52/145 86/51/145 88/53/145
f 136/55/146 100/66/146 90/56/146
f 135/58/147 98/65/147 92/59/147
f 132/60/148 92/59/148 94/61/148
f 133/62/149 94/61/149 96/63/149
f 131/57/150 90/56/150 98/65/150
f 130/54/151 88/53/151 100/66/151
f 67/35/51 68/34/51 70/36/51
f 137/69/68 101/102/68 103/101/68
f 103/101/68 104/67/68 137/69/68
f 139/70/152 106/73/152 105/71/152
f 152/72/153 107/77/153 106/73/153
f 138/74/154 142/78/154 108/75/154
f 138/74/155 109/76/155 107/77/155
f 142/78/156 141/80/156 110/79/156
f 141/80/157 143/82/157 111/81/157
f 143/82/158 144/84/158 112/83/158
f 144/84/159 145/86/159 113/85/159
f 145/86/160 146/99/160 114/87/160
f 140/88/161 151/98/161 115/89/161
f 147/91/162 150/94/162 116/92/162
f 150/94/163 148/96/163 117/95/163
f 148/96/164 149/105/164 118/97/164
f 151/98/165 147/91/165 119/93/165
f 146/99/166 140/88/166 120/90/166
f 65/100/84 67/35/84 103/101/84
f 65/100/85 101/102/85 137/69/85
f 66/103/86 102/68/86 104/67/86
f 68/34/88 104/67/88 105/71/88
f 70/36/89 105/71/89 106/73/89
f 72/39/90 106/73/90 107/77/90
f 78/104/91 109/76/91 108/75/91
f 74/44/92 107/77/92 109/76/92
f 76/42/93 108/75/93 110/79/93
f 80/45/94 110/79/94 111/81/94
f 82/47/95 111/81/95 112/83/95
f 84/49/96 112/83/96 113/85/96
f 86/51/97 113/85/97 114/87/97
f 100/66/98 120/90/98 115/89/98
f 98/65/99 119/93/99 116/92/99
f 92/59/100 116/92/100 117/95/100
f 134/64/101 96/63/101 118/97/101
f 96/63/102 94/61/102 117/95/102
f 90/56/103 115/89/103 119/93/103
f 88/53/104 114/87/104 120/90/104
f 121/33/85 137/69/85 102/68/85
f 87/107/167 99/119/167 140/108/167
f 89/110/168 97/118/168 147/111/168
f 93/113/169 95/140/169 149/114/169
f 91/116/170 93/113/170 148/115/170
f 97/118/171 91/116/171 150/117/171
f 99/119/172 89/110/172 151/112/172
f 85/120/173 87/107/173 146/109/173
f 83/122/174 85/120/174 145/121/174
f 81/124/175 83/122/175 144/123/175
f 79/126/176 81/124/176 143/125/176
f 75/128/177 79/126/177 141/127/177
f 77/130/178 138/133/178 152/131/178
f 77/130/179 75/128/179 142/129/179
f 73/132/180 152/131/180 139/134/180
f 87/107/181 130/144/181 136/137/181
f 89/110/182 131/143/182 135/138/182
f 93/113/183 133/141/183 134/139/183
f 91/116/184 132/142/184 133/141/184
f 97/118/185 135/138/185 132/142/185
f 99/119/186 136/137/186 131/143/186
f 85/120/187 129/145/187 130/144/187
f 83/122/188 128/146/188 129/145/188
f 81/124/189 127/147/189 128/146/189
f 79/126/190 126/148/190 127/147/190
f 75/128/191 124/150/191 126/148/191
f 123/149/192 125/152/192 77/130/192
f 77/130/193 125/152/193 124/150/193
f 122/151/194 123/149/194 73/132/194
f 103/101/195 69/38/195 105/71/195
