# Blender 4.4.0
# www.blender.org
mtllib Tool_Hammer_05.mtl
o Tool_Hammer_05
v -0.008208 0.000000 0.019191
v -0.019191 0.000000 0.008208
v 0.019191 0.000000 0.008208
v 0.008208 0.000000 0.019191
v -0.019191 0.000000 -0.008208
v -0.008208 0.000000 -0.019191
v 0.008208 0.000000 -0.019191
v 0.019191 0.000000 -0.008208
v -0.008208 0.300000 -0.019191
v -0.019191 0.300000 -0.008208
v -0.019191 0.300000 0.008208
v -0.008208 0.300000 0.019191
v 0.008208 0.300000 0.019191
v 0.019191 0.300000 0.008208
v 0.019191 0.300000 -0.008208
v 0.008208 0.300000 -0.019191
v -0.065597 0.284700 -0.029038
v -0.061525 0.288770 -0.029224
v -0.061527 0.284704 -0.033113
v -0.065597 0.284700 0.029038
v -0.061527 0.284704 0.033113
v -0.061525 0.288770 0.029224
v 0.061613 0.284704 0.033113
v 0.065683 0.284700 0.029038
v 0.061595 0.288770 0.029224
v 0.065683 0.284700 -0.029038
v 0.061613 0.284704 -0.033113
v 0.061595 0.288770 -0.029224
v -0.065633 0.221294 -0.026215
v -0.061563 0.221290 -0.030288
v -0.061565 0.217224 -0.026037
v -0.065633 0.221294 0.026215
v -0.061565 0.217224 0.026037
v -0.061563 0.221290 0.030288
v 0.061891 0.221290 0.030288
v 0.061909 0.217224 0.026037
v 0.065961 0.221294 0.026215
v 0.065961 0.221294 -0.026215
v 0.061909 0.217224 -0.026037
v 0.061891 0.221290 -0.030288
vn -0.0000 -0.0000 1.0000
vn -0.0000 1.0000 -0.0000
vn 1.0000 -0.0000 -0.0000
vn -0.0000 -0.0000 -1.0000
vn -0.0000 -1.0000 -0.0000
vn -0.7071 -0.0000 -0.7071
vn 0.7071 -0.0000 -0.7071
vn 0.7071 -0.0000 0.7071
vn -0.7071 -0.0000 0.7071
vn -1.0000 -0.0000 -0.0000
vn -0.0000 -0.0445 -0.9990
vn -0.0000 -0.0445 0.9990
vn 1.0000 0.0044 -0.0000
vn -0.5864 0.5601 -0.5852
vn -0.5864 0.5601 0.5852
vn 0.5856 0.5616 0.5845
vn 0.5856 0.5616 -0.5845
vn -0.5695 -0.5939 -0.5683
vn -0.5695 -0.5939 0.5683
vn 0.5702 -0.5925 0.5691
vn 0.5702 -0.5925 -0.5691
vn -0.7069 0.7073 -0.0000
vn -0.0000 0.6912 0.7227
vn 0.7056 0.7087 -0.0000
vn -0.0000 0.6912 -0.7227
vn -0.7073 -0.7069 -0.0000
vn -0.0000 -0.7227 0.6912
vn 0.7087 -0.7056 -0.0000
vn -0.0000 -0.7227 -0.6912
vn 0.7072 -0.0284 -0.7065
vn 0.7072 -0.0284 0.7065
vn -0.7071 -0.0311 0.7064
vn -0.7071 -0.0311 -0.7064
vn -1.0000 0.0006 -0.0000
vt 0.576399 0.895585
vt 0.576399 0.974493
vt 0.576285 0.974493
vt 0.576000 0.974493
vt 0.576114 0.974493
vt 0.576114 0.895585
vt 0.576285 0.895585
vt 0.576000 0.895585
vt 0.575424 0.703090
vt 0.575421 0.616336
vt 0.575417 0.610773
vt 0.575365 0.610773
vt 0.575362 0.708654
vt 0.575420 0.708654
vt 0.575361 0.616336
vt 0.575359 0.703090
vt 0.575365 0.616341
vt 0.575420 0.703085
vt 0.575363 0.703085
vt 0.575417 0.616341
s 0
usemtl Texture_Map
f 4/1/1 12/2/1 1/1/1
f 14/3/2 16/4/2 10/5/2
f 8/6/3 14/3/3 3/7/3
f 6/8/4 16/4/4 7/8/4
f 6/8/5 8/6/5 4/1/5
f 10/5/6 6/8/6 5/6/6
f 8/6/7 16/4/7 15/5/7
f 14/3/8 4/1/8 3/7/8
f 2/7/9 12/2/9 11/3/9
f 2/7/10 10/5/10 5/6/10
f 27/9/11 30/10/11 19/9/11
f 31/11/5 36/12/5 33/12/5
f 25/13/2 18/14/2 22/13/2
f 34/15/12 23/16/12 21/16/12
f 37/17/13 26/18/13 24/19/13
f 17/18/14 18/14/14 19/9/14
f 20/19/15 21/16/15 22/13/15
f 23/16/16 24/19/16 25/13/16
f 26/18/17 27/9/17 28/14/17
f 29/20/18 30/10/18 31/11/18
f 32/17/19 33/12/19 34/15/19
f 35/15/20 36/12/20 37/17/20
f 38/20/21 39/11/21 40/10/21
f 20/19/22 18/14/22 17/18/22
f 21/16/23 25/13/23 22/13/23
f 26/18/24 25/13/24 24/19/24
f 19/9/25 28/14/25 27/9/25
f 31/11/26 32/17/26 29/20/26
f 33/12/27 35/15/27 34/15/27
f 39/11/28 37/17/28 36/12/28
f 31/11/29 40/10/29 39/11/29
f 26/18/30 40/10/30 27/9/30
f 24/19/31 35/15/31 37/17/31
f 20/19/32 34/15/32 21/16/32
f 17/18/33 30/10/33 29/20/33
f 17/18/34 32/17/34 20/19/34
f 4/1/1 13/2/1 12/2/1
f 10/5/2 11/3/2 12/2/2
f 12/2/2 13/2/2 14/3/2
f 14/3/2 15/5/2 16/4/2
f 16/4/2 9/4/2 10/5/2
f 10/5/2 12/2/2 14/3/2
f 8/6/3 15/5/3 14/3/3
f 6/8/4 9/4/4 16/4/4
f 4/1/5 1/1/5 2/7/5
f 2/7/5 5/6/5 6/8/5
f 6/8/5 7/8/5 8/6/5
f 8/6/5 3/7/5 4/1/5
f 4/1/5 2/7/5 6/8/5
f 10/5/6 9/4/6 6/8/6
f 8/6/7 7/8/7 16/4/7
f 14/3/8 13/2/8 4/1/8
f 2/7/9 1/1/9 12/2/9
f 2/7/10 11/3/10 10/5/10
f 27/9/11 40/10/11 30/10/11
f 31/11/5 39/11/5 36/12/5
f 25/13/2 28/14/2 18/14/2
f 34/15/12 35/15/12 23/16/12
f 37/17/13 38/20/13 26/18/13
f 20/19/22 22/13/22 18/14/22
f 21/16/23 23/16/23 25/13/23
f 26/18/24 28/14/24 25/13/24
f 19/9/25 18/14/25 28/14/25
f 31/11/26 33/12/26 32/17/26
f 33/12/27 36/12/27 35/15/27
f 39/11/28 38/20/28 37/17/28
f 31/11/29 30/10/29 40/10/29
f 26/18/30 38/20/30 40/10/30
f 24/19/31 23/16/31 35/15/31
f 20/19/32 32/17/32 34/15/32
f 17/18/33 19/9/33 30/10/33
f 17/18/34 29/20/34 32/17/34
