# Blender 4.4.0
# www.blender.org
mtllib Tool_Broom_03.mtl
o Tool_Broom_03
v 0.185856 0.100084 -0.023406
v 0.160052 0.100084 -0.037609
v -0.154317 0.100084 -0.037609
v -0.180120 0.100084 -0.023406
v 0.160052 0.100084 0.037315
v 0.185856 0.100084 0.023112
v -0.180120 0.100084 0.023112
v -0.154317 0.100084 0.037315
v 0.206454 -0.001073 -0.039697
v -0.200718 0.001023 -0.039697
v 0.239874 -0.001073 0.024408
v 0.239874 -0.001073 -0.024702
v -0.234139 -0.001073 -0.024702
v -0.234139 -0.001073 0.024408
v -0.200718 0.001023 0.039403
v 0.206454 -0.001073 0.039403
v 0.002868 1.606289 -0.018946
v -0.010425 1.606289 -0.013440
v -0.015931 1.606289 -0.000147
v -0.010425 1.606289 0.013146
v 0.002868 1.606289 0.018652
v 0.016160 1.606289 0.013146
v 0.021666 1.606289 -0.000147
v 0.016160 1.606289 -0.013440
v -0.208284 0.148541 0.024121
v -0.181466 0.148541 0.036990
v -0.200430 0.148541 0.033221
v 0.187202 0.148541 0.036990
v 0.214020 0.148541 0.024121
v 0.206165 0.148541 0.033221
v -0.181466 0.148541 -0.037284
v -0.208284 0.148541 -0.024415
v -0.200430 0.148541 -0.033515
v 0.214020 0.148541 -0.024415
v 0.187202 0.148541 -0.037284
v 0.206165 0.148541 -0.033515
v -0.213452 0.119604 0.027691
v -0.186500 0.119604 0.041930
v -0.205558 0.119604 0.037759
v 0.192236 0.119604 0.041930
v 0.219188 0.119604 0.027691
v 0.211294 0.119604 0.037759
v -0.186500 0.119604 -0.042224
v -0.213452 0.119604 -0.027985
v -0.205558 0.119604 -0.038053
v 0.219188 0.119604 -0.027985
v 0.192236 0.119604 -0.042224
v 0.211294 0.119604 -0.038053
v -0.163079 0.100084 0.039403
v -0.190320 0.100084 0.024408
v -0.182341 0.100084 0.035012
v 0.196056 0.100084 0.024408
v 0.168814 0.100084 0.039403
v 0.188077 0.100084 0.035012
v -0.190320 0.100084 -0.024702
v -0.163079 0.100084 -0.039697
v -0.182341 0.100084 -0.035305
v 0.168814 0.100084 -0.039697
v 0.196056 0.100084 -0.024702
v 0.188077 0.100084 -0.035305
v 0.016160 0.181407 -0.013440
v 0.002868 0.181407 -0.018946
v 0.016160 0.181407 0.013146
v 0.021666 0.181407 -0.000147
v -0.010425 0.181407 0.013146
v 0.002868 0.181407 0.018652
v -0.010425 0.181407 -0.013440
v -0.015931 0.181407 -0.000147
v -0.012928 0.148541 -0.015943
v 0.002868 0.148541 -0.022486
v -0.019471 0.148541 -0.000147
v -0.012928 0.148541 0.015649
v 0.002868 0.148541 0.022192
v 0.018664 0.148541 0.015649
v 0.025207 0.148541 -0.000147
v 0.018664 0.148541 -0.015943
v 0.002868 0.181407 -0.022486
v 0.025207 0.181407 -0.000147
v 0.002868 0.181407 0.022192
v -0.019471 0.181407 -0.000147
v 0.018664 0.181407 -0.015943
v 0.018664 0.181407 0.015649
v -0.012928 0.181407 0.015649
v -0.012928 0.181407 -0.015943
v -0.033404 -0.001073 0.038193
v -0.042025 0.000347 0.039403
v -0.032744 0.100084 0.037315
v -0.024124 0.100084 0.036105
v -0.114978 0.000048 0.039403
v -0.123531 -0.001073 0.037092
v 0.033541 -0.001073 0.037151
v 0.004946 0.003068 0.038796
v 0.129325 0.000896 0.038502
v 0.120713 -0.001073 0.039383
v -0.095690 0.100084 0.035004
v -0.087137 0.100084 0.037315
v 0.003981 0.100084 0.036687
v 0.011958 0.100084 0.034540
v 0.092872 0.100084 0.037289
v 0.101485 0.100084 0.036414
v -0.086948 0.100084 -0.037609
v -0.095468 0.100084 -0.035080
v -0.024217 0.100084 -0.037609
v -0.032927 0.100084 -0.034699
v 0.038657 0.100084 -0.037609
v 0.028330 0.100084 -0.033464
v 0.101673 0.100084 -0.037609
v 0.091699 0.100084 -0.034759
v 0.099289 0.000357 -0.037653
v 0.129514 0.000896 -0.039697
v 0.037611 0.002446 -0.038163
v 0.047937 -0.001073 -0.039697
v -0.041315 -0.001073 -0.037523
v -0.033497 0.004353 -0.039697
v -0.122289 -0.001073 -0.034620
v -0.114789 -0.000502 -0.039697
v 0.002868 1.606289 -0.022593
v -0.013004 1.606289 -0.016019
v -0.019578 1.606289 -0.000147
v -0.013004 1.606289 0.015725
v 0.002868 1.606289 0.022299
v 0.018740 1.606289 0.015725
v 0.025314 1.606289 -0.000147
v 0.018740 1.606289 -0.016019
v -0.013004 1.697058 -0.016019
v -0.008623 1.707382 -0.011638
v 0.002868 1.707382 -0.016397
v -0.019578 1.697058 -0.000147
v -0.013382 1.707382 -0.000147
v -0.013004 1.697058 0.015725
v -0.008623 1.707382 0.011344
v 0.002868 1.707382 0.016103
v 0.018740 1.697058 0.015725
v 0.014358 1.707382 0.011344
v 0.025314 1.697058 -0.000147
v 0.019118 1.707382 -0.000147
v 0.018740 1.697058 -0.016019
v 0.014358 1.707382 -0.011638
v 0.002868 1.697303 0.022047
v 0.012991 1.697058 0.018106
v 0.002868 1.697303 -0.022341
v -0.007255 1.697058 0.018106
v -0.007255 1.660009 0.018106
v 0.002868 1.660009 0.022299
v -0.007255 1.660009 -0.018400
v -0.007255 1.697058 -0.018400
v 0.012991 1.697058 -0.018400
v 0.012991 1.660009 0.018106
v 0.012991 1.660009 -0.018400
v 0.002868 1.660009 -0.022593
vn -0.0113 0.0155 0.9998
vn -0.4103 0.2304 -0.8823
vn -0.4684 0.2374 0.8510
vn 0.4690 0.2327 -0.8520
vn 0.0276 -0.9996 0.0052
vn -0.0000 0.0210 -0.9998
vn 0.0536 0.0255 -0.9982
vn 0.0786 0.0141 -0.9968
vn 0.0297 0.0125 -0.9995
vn -0.0000 0.0209 0.9998
vn -0.8821 0.4711 -0.0000
vn -0.0207 0.0215 0.9996
vn 0.0394 0.0098 0.9992
vn 0.3827 -0.0000 -0.9239
vn 0.9239 -0.0000 0.3827
vn -0.3827 -0.0000 0.9239
vn -0.9239 -0.0000 -0.3827
vn 0.9239 -0.0000 -0.3827
vn 0.3827 -0.0000 0.9239
vn -0.9239 -0.0000 0.3827
vn -0.3827 -0.0000 -0.9239
vn -0.0000 0.1683 0.9857
vn -0.0000 0.1683 -0.9857
vn -0.0000 1.0000 -0.0000
vn -0.6449 -0.7642 -0.0000
vn 0.9844 0.1758 -0.0000
vn 0.6449 -0.7642 -0.0000
vn -0.0000 -0.1284 -0.9917
vn -0.0000 -0.1284 0.9917
vn 0.7366 0.2303 -0.6359
vn 0.1911 0.1974 -0.9615
vn 0.7691 0.2117 0.6030
vn 0.2100 0.1877 0.9595
vn -0.7366 0.2303 0.6359
vn -0.1911 0.1974 0.9615
vn -0.7691 0.2117 -0.6030
vn -0.2100 0.1877 -0.9595
vn -0.1990 -0.3648 -0.9096
vn -0.5465 -0.7196 -0.4284
vn 0.2069 -0.3657 -0.9074
vn 0.5552 -0.7192 -0.4178
vn 0.1990 -0.3648 0.9096
vn 0.5465 -0.7196 0.4284
vn -0.2069 -0.3657 0.9074
vn -0.5552 -0.7192 0.4178
vn -0.9844 0.1758 -0.0000
vn -0.0000 -1.0000 -0.0000
vn 0.1390 0.0077 0.9903
vn -0.0256 0.0136 0.9996
vn 0.1010 0.0484 0.9937
vn 0.2598 0.0236 0.9654
vn -0.2598 0.0924 0.9612
vn 0.8821 0.4711 -0.0000
vn -0.2747 0.0070 -0.9615
vn -0.3725 0.0093 -0.9280
vn -0.3165 0.0513 -0.9472
vn -0.2832 0.0982 -0.9540
vn 0.0644 -0.0091 -0.9979
vn -0.3283 0.4798 -0.8136
vn -0.8080 0.4849 -0.3347
vn -0.8080 0.4849 0.3347
vn -0.3347 0.4849 0.8080
vn 0.3283 0.4798 0.8136
vn 0.8080 0.4849 0.3347
vn 0.8080 0.4849 -0.3347
vn 0.3347 0.4849 -0.8080
vn 1.0000 -0.0000 -0.0000
vn -1.0000 -0.0000 -0.0000
vn 0.3989 0.2244 0.8891
vn -0.0154 0.0167 0.9997
vn -0.4684 0.2374 -0.8510
vn -0.4103 0.2304 0.8823
vn 0.3989 0.2244 -0.8891
vn -0.0272 -0.9996 -0.0005
vn 0.0626 -0.9980 -0.0000
vn -0.0267 -0.9996 -0.0000
vn 0.0808 -0.9967 0.0071
vn -0.0080 -0.9999 0.0069
vn 0.0041 -0.9998 0.0185
vn 0.1294 -0.9916 0.0022
vn 0.5582 -0.8277 -0.0583
vn -0.0267 -0.9996 -0.0033
vn -0.1602 -0.9869 0.0167
vn -0.1462 -0.9878 -0.0541
vn 0.1082 -0.9917 -0.0692
vn 0.2229 -0.9748 0.0005
vn 0.0005 -0.9998 -0.0187
vn -0.0255 -0.9997 -0.0000
vn 0.0163 -0.9996 -0.0231
vn -0.0256 -0.9997 -0.0001
vn -0.3302 -0.9419 -0.0619
vn 0.0005 0.0209 -0.9998
vn 0.0389 0.0319 -0.9987
vn 0.0229 0.0502 -0.9985
vn 0.0538 0.0234 -0.9983
vn -0.0001 0.0209 0.9998
vn -0.0181 0.0223 0.9996
vn 0.0301 0.0070 0.9995
vn 0.7691 0.2117 -0.6030
vn 0.2100 0.1877 -0.9595
vn 0.7366 0.2303 0.6359
vn 0.1911 0.1974 0.9615
vn -0.7691 0.2117 0.6030
vn -0.2100 0.1877 0.9595
vn -0.7366 0.2303 -0.6359
vn -0.1911 0.1974 -0.9615
vn -0.2069 -0.3657 -0.9074
vn -0.5552 -0.7192 -0.4178
vn 0.1990 -0.3648 -0.9096
vn 0.5465 -0.7196 -0.4284
vn 0.2069 -0.3657 0.9074
vn 0.5552 -0.7192 0.4178
vn -0.1990 -0.3648 0.9096
vn -0.5465 -0.7196 0.4284
vn 0.1403 0.0077 0.9901
vn -0.0339 0.0185 0.9993
vn 0.0911 0.0465 0.9948
vn 0.0631 0.0392 0.9972
vn -0.2713 0.0944 0.9579
vn -0.0675 0.0021 -0.9977
vn -0.1446 0.0072 -0.9895
vn -0.3006 0.0515 -0.9523
vn -0.5622 0.1454 -0.8141
vn 0.0429 -0.0159 -0.9990
vn -0.3347 0.4849 -0.8080
vn -0.3283 0.4798 0.8136
vn 0.3347 0.4849 0.8080
vn 0.3283 0.4798 -0.8136
vn -0.0000 -0.9981 0.0619
vn -0.0000 -0.9981 -0.0619
vn -0.0000 1.0000 -0.0001
vn 0.4690 0.2327 0.8520
vt 0.840274 0.576591
vt 0.840264 0.557891
vt 0.840288 0.557520
vt 0.840167 0.576591
vt 0.840160 0.557915
vt 0.840149 0.557520
vt 0.840175 0.576591
vt 0.840282 0.576591
vt 0.853876 0.479087
vt 0.853922 0.479852
vt 0.853863 0.479087
vt 0.840264 0.557891
vt 0.840255 0.576591
vt 0.840252 0.576591
vt 0.840238 0.557520
vt 0.840235 0.576591
vt 0.840232 0.576591
vt 0.840213 0.558543
vt 0.840216 0.576591
vt 0.840196 0.576591
vt 0.840210 0.557520
vt 0.840187 0.557627
vt 0.840196 0.576591
vt 0.840210 0.557788
vt 0.840213 0.576591
vt 0.840216 0.576591
vt 0.840225 0.558300
vt 0.840224 0.576591
vt 0.840184 0.557520
vt 0.840193 0.576591
vt 0.568564 0.978484
vt 0.568621 0.829509
vt 0.568564 0.829509
vt 0.568759 0.978484
vt 0.568898 0.829509
vt 0.568759 0.829509
vt 0.568955 0.978484
vt 0.568955 0.829509
vt 0.568621 0.978484
vt 0.568898 0.978484
vt 0.577960 0.863029
vt 0.579030 0.922641
vt 0.577975 0.922641
vt 0.579044 0.863029
vt 0.579107 0.922641
vt 0.577950 0.822818
vt 0.577883 0.863029
vt 0.579121 0.863029
vt 0.579055 0.822818
vt 0.578977 0.822818
vt 0.578028 0.822818
vt 0.579099 0.863029
vt 0.579084 0.922641
vt 0.577898 0.922641
vt 0.577906 0.863029
vt 0.577921 0.922641
vt 0.577972 0.822818
vt 0.579032 0.822818
vt 0.578457 0.990346
vt 0.578502 0.922641
vt 0.578457 0.922641
vt 0.578439 0.922641
vt 0.578548 0.990346
vt 0.578548 0.922641
vt 0.578566 0.922641
vt 0.578439 0.990346
vt 0.578502 0.990346
vt 0.578566 0.990346
vt 0.852173 0.492318
vt 0.852173 0.475686
vt 0.852175 0.492318
vt 0.840252 0.576591
vt 0.840234 0.557520
vt 0.840261 0.557520
vt 0.852215 0.475686
vt 0.852210 0.492318
vt 0.852207 0.492318
vt 0.852183 0.476367
vt 0.852185 0.492318
vt 0.852183 0.492318
vt 0.852156 0.492318
vt 0.852150 0.475870
vt 0.852158 0.492318
vt 0.840299 0.557520
vt 0.852209 0.475921
vt 0.852207 0.492318
vt 0.852192 0.492318
vt 0.852192 0.476265
vt 0.852190 0.492318
vt 0.852173 0.476578
vt 0.852173 0.492318
vt 0.852150 0.475780
vt 0.852156 0.492318
vt 0.852158 0.492318
vt 0.840185 0.557520
vt 0.706985 0.717736
vt 0.706675 0.717736
vt 0.706547 0.717736
vt 0.706675 0.753516
vt 0.707295 0.753516
vt 0.707182 0.753516
vt 0.707182 0.738912
vt 0.707295 0.717736
vt 0.707423 0.717736
vt 0.706788 0.738912
vt 0.706985 0.757585
vt 0.707302 0.757585
vt 0.706547 0.753516
vt 0.707423 0.753516
vt 0.706985 0.753612
vt 0.706788 0.753516
vt 0.706668 0.757585
vt 0.706761 0.757585
vt 0.707209 0.757585
vt 0.840255 0.576591
vt 0.853723 0.479087
vt 0.853654 0.480207
vt 0.853724 0.479087
vt 0.853625 0.479087
vt 0.853731 0.479392
vt 0.853731 0.479686
vt 0.853797 0.479087
vt 0.853796 0.479847
vt 0.853804 0.481988
vt 0.853804 0.479087
vt 0.853867 0.480969
vt 0.853838 0.481300
vt 0.853949 0.480139
vt 0.853941 0.479087
vt 0.853949 0.480139
vt 0.854048 0.479087
vt 0.854018 0.479087
vt 0.840254 0.557789
vt 0.840235 0.558183
vt 0.840213 0.576591
vt 0.840187 0.557731
vt 0.840213 0.557520
vt 0.852170 0.475919
vt 0.840227 0.576591
vt 0.852217 0.476009
vt 0.852191 0.475686
vt 0.852148 0.475686
vt 0.852217 0.476009
vt 0.852195 0.475686
vt 0.852171 0.475686
vt 0.852148 0.475686
vt 0.840193 0.576591
vt 0.706985 0.738912
s 0
usemtl Texture_Map
f 5/1/1 93/2/1 16/3/1
f 4/4/2 10/5/2 13/6/2
f 7/4/3 15/5/3 8/7/3
f 1/8/4 9/3/4 2/1/4
f 112/9/5 109/10/5 91/11/5
f 2/1/6 110/12/6 107/13/6
f 108/14/7 112/15/7 105/16/7
f 106/17/8 114/18/8 103/19/8
f 101/20/9 113/21/9 116/22/9
f 96/23/10 86/24/10 87/25/10
f 4/4/11 14/6/11 7/4/11
f 88/26/12 92/27/12 97/28/12
f 8/7/13 90/29/13 95/30/13
f 17/31/14 61/32/14 62/33/14
f 23/34/15 63/35/15 64/36/15
f 21/37/16 65/35/16 66/38/16
f 19/34/17 67/32/17 68/36/17
f 24/39/18 64/36/18 61/32/18
f 22/40/19 66/38/19 63/35/19
f 20/40/20 68/36/20 65/35/20
f 18/39/21 62/33/21 67/32/21
f 38/41/22 28/42/22 26/43/22
f 47/44/23 31/43/23 35/42/23
f 28/42/24 29/45/24 35/42/24
f 55/46/25 37/47/25 44/47/25
f 41/48/26 34/45/26 29/45/26
f 41/48/27 59/49/27 46/48/27
f 58/50/28 43/41/28 47/44/28
f 49/51/29 40/44/29 38/41/29
f 34/45/30 48/52/30 36/53/30
f 36/53/31 47/44/31 35/42/31
f 29/45/32 42/52/32 41/48/32
f 30/53/33 40/44/33 42/52/33
f 25/54/34 39/55/34 27/56/34
f 27/56/35 38/41/35 26/43/35
f 32/54/36 45/55/36 44/47/36
f 33/56/37 43/41/37 45/55/37
f 43/41/38 57/57/38 45/55/38
f 45/55/39 55/46/39 44/47/39
f 47/44/40 60/58/40 58/50/40
f 48/52/41 59/49/41 60/58/41
f 40/44/42 54/58/42 42/52/42
f 42/52/43 52/49/43 41/48/43
f 38/41/44 51/57/44 49/51/44
f 39/55/45 50/46/45 51/57/45
f 44/47/46 25/54/46 32/54/46
f 56/51/47 49/51/47 50/46/47
f 84/59/21 70/60/21 69/61/21
f 83/59/20 71/62/20 72/61/20
f 82/63/19 73/60/19 74/64/19
f 81/63/18 75/65/18 76/64/18
f 80/66/17 69/61/17 71/62/17
f 79/67/16 72/61/16 73/60/16
f 78/68/15 74/64/15 75/65/15
f 77/67/14 76/64/14 70/60/14
f 78/68/24 81/63/24 77/67/24
f 87/69/48 85/70/48 88/71/48
f 99/72/49 91/73/49 94/74/49
f 94/75/50 100/76/50 99/77/50
f 92/78/51 98/79/51 97/80/51
f 95/81/52 89/82/52 96/83/52
f 6/8/53 12/84/53 1/8/53
f 107/76/54 109/85/54 108/86/54
f 105/87/55 111/88/55 106/89/55
f 114/90/56 104/91/56 103/71/56
f 116/92/57 102/93/57 101/94/57
f 3/7/58 115/95/58 10/5/58
f 121/96/47 120/97/47 119/98/47
f 119/98/17 125/99/17 118/97/17
f 133/100/19 140/101/19 148/102/19
f 124/103/14 149/102/14 137/100/14
f 123/104/15 133/100/15 122/103/15
f 120/97/16 143/105/16 130/99/16
f 132/106/24 136/107/24 127/106/24
f 120/97/20 128/108/20 119/98/20
f 124/103/18 135/109/18 123/104/18
f 127/106/59 141/110/59 146/111/59
f 129/112/60 125/99/60 128/108/60
f 129/112/61 130/99/61 131/113/61
f 131/113/62 130/99/62 142/111/62
f 132/106/63 139/110/63 140/101/63
f 136/107/64 133/100/64 135/109/64
f 136/107/65 137/100/65 138/114/65
f 138/114/66 137/100/66 147/101/66
f 125/99/21 146/111/21 145/105/21
f 145/105/67 142/111/67 143/105/67
f 147/101/47 140/101/47 142/111/47
f 145/105/24 143/105/24 148/102/24
f 147/101/68 148/102/68 140/101/68
f 6/8/69 16/3/69 11/84/69
f 5/1/70 100/115/70 93/2/70
f 4/4/71 3/7/71 10/5/71
f 7/4/72 14/6/72 15/5/72
f 1/8/73 12/84/73 9/3/73
f 90/116/74 15/117/74 115/118/74
f 15/117/75 14/119/75 13/119/75
f 115/118/76 15/117/76 10/117/76
f 13/119/75 10/117/75 15/117/75
f 115/118/77 116/120/77 89/121/77
f 116/120/78 113/122/78 89/121/78
f 86/123/79 89/121/79 113/122/79
f 89/121/80 90/116/80 115/118/80
f 113/122/81 114/124/81 85/125/81
f 114/124/82 111/126/82 92/127/82
f 85/125/83 86/123/83 113/122/83
f 91/11/84 92/127/84 111/126/84
f 92/127/85 85/125/85 114/124/85
f 93/128/86 94/129/86 110/130/86
f 94/129/87 91/11/87 109/10/87
f 11/131/47 16/132/47 9/132/47
f 16/132/88 93/128/88 9/132/88
f 9/132/47 12/131/47 11/131/47
f 109/10/89 110/130/89 94/129/89
f 110/130/90 9/132/90 93/128/90
f 111/126/91 112/9/91 91/11/91
f 2/1/92 9/3/92 110/12/92
f 108/14/93 109/133/93 112/15/93
f 106/17/94 111/134/94 114/18/94
f 101/20/95 104/135/95 113/21/95
f 96/23/96 89/136/96 86/24/96
f 4/4/11 13/6/11 14/6/11
f 88/26/97 85/137/97 92/27/97
f 8/7/98 15/5/98 90/29/98
f 17/31/14 24/39/14 61/32/14
f 23/34/15 22/40/15 63/35/15
f 21/37/16 20/40/16 65/35/16
f 19/34/17 18/39/17 67/32/17
f 24/39/18 23/34/18 64/36/18
f 22/40/19 21/37/19 66/38/19
f 20/40/20 19/34/20 68/36/20
f 18/39/21 17/31/21 62/33/21
f 38/41/22 40/44/22 28/42/22
f 47/44/23 43/41/23 31/43/23
f 32/54/24 25/54/24 26/43/24
f 25/54/24 27/56/24 26/43/24
f 26/43/24 28/42/24 31/43/24
f 32/54/24 26/43/24 31/43/24
f 28/42/24 30/53/24 29/45/24
f 29/45/24 34/45/24 35/42/24
f 34/45/24 36/53/24 35/42/24
f 35/42/24 31/43/24 28/42/24
f 31/43/24 33/56/24 32/54/24
f 55/46/25 50/46/25 37/47/25
f 41/48/26 46/48/26 34/45/26
f 41/48/27 52/49/27 59/49/27
f 58/50/28 56/51/28 43/41/28
f 49/51/29 53/50/29 40/44/29
f 34/45/99 46/48/99 48/52/99
f 36/53/100 48/52/100 47/44/100
f 29/45/101 30/53/101 42/52/101
f 30/53/102 28/42/102 40/44/102
f 25/54/103 37/47/103 39/55/103
f 27/56/104 39/55/104 38/41/104
f 32/54/105 33/56/105 45/55/105
f 33/56/106 31/43/106 43/41/106
f 43/41/107 56/51/107 57/57/107
f 45/55/108 57/57/108 55/46/108
f 47/44/109 48/52/109 60/58/109
f 48/52/110 46/48/110 59/49/110
f 40/44/111 53/50/111 54/58/111
f 42/52/112 54/58/112 52/49/112
f 38/41/113 39/55/113 51/57/113
f 39/55/114 37/47/114 50/46/114
f 44/47/46 37/47/46 25/54/46
f 57/57/47 56/51/47 55/46/47
f 56/51/47 58/50/47 49/51/47
f 58/50/47 60/58/47 59/49/47
f 59/49/47 52/49/47 53/50/47
f 52/49/47 54/58/47 53/50/47
f 53/50/47 49/51/47 58/50/47
f 59/49/47 53/50/47 58/50/47
f 49/51/47 51/57/47 50/46/47
f 50/46/47 55/46/47 56/51/47
f 84/59/21 77/67/21 70/60/21
f 83/59/20 80/66/20 71/62/20
f 82/63/19 79/67/19 73/60/19
f 81/63/18 78/68/18 75/65/18
f 80/66/17 84/59/17 69/61/17
f 79/67/16 83/59/16 72/61/16
f 78/68/15 82/63/15 74/64/15
f 77/67/14 81/63/14 76/64/14
f 77/67/24 84/59/24 79/67/24
f 84/59/24 80/66/24 79/67/24
f 80/66/24 83/59/24 79/67/24
f 79/67/24 82/63/24 77/67/24
f 82/63/24 78/68/24 77/67/24
f 87/69/115 86/138/115 85/70/115
f 99/72/116 98/139/116 91/73/116
f 94/75/117 93/140/117 100/76/117
f 92/78/118 91/141/118 98/79/118
f 95/81/119 90/142/119 89/82/119
f 6/8/53 11/84/53 12/84/53
f 107/76/120 110/143/120 109/85/120
f 105/87/121 112/144/121 111/88/121
f 114/90/122 113/145/122 104/91/122
f 116/92/123 115/146/123 102/93/123
f 3/7/124 102/147/124 115/95/124
f 119/98/47 118/97/47 117/96/47
f 117/96/47 124/103/47 119/98/47
f 124/103/47 123/104/47 119/98/47
f 123/104/47 122/103/47 119/98/47
f 122/103/47 121/96/47 119/98/47
f 119/98/17 128/108/17 125/99/17
f 144/148/19 121/96/19 148/102/19
f 121/96/19 122/103/19 148/102/19
f 122/103/19 133/100/19 148/102/19
f 124/103/14 117/96/14 149/102/14
f 117/96/14 150/148/14 149/102/14
f 149/102/14 147/101/14 137/100/14
f 123/104/15 135/109/15 133/100/15
f 120/97/16 121/96/16 143/105/16
f 121/96/16 144/148/16 143/105/16
f 143/105/16 142/111/16 130/99/16
f 127/106/24 126/113/24 129/112/24
f 129/112/24 131/113/24 132/106/24
f 132/106/24 134/114/24 136/107/24
f 136/107/24 138/114/24 127/106/24
f 127/106/24 129/112/24 132/106/24
f 120/97/20 130/99/20 128/108/20
f 124/103/18 137/100/18 135/109/18
f 125/99/125 126/113/125 146/111/125
f 126/113/125 127/106/125 146/111/125
f 129/112/60 126/113/60 125/99/60
f 129/112/61 128/108/61 130/99/61
f 139/110/126 132/106/126 142/111/126
f 132/106/62 131/113/62 142/111/62
f 133/100/127 134/114/127 140/101/127
f 134/114/127 132/106/127 140/101/127
f 136/107/64 134/114/64 133/100/64
f 136/107/65 135/109/65 137/100/65
f 141/110/128 127/106/128 147/101/128
f 127/106/66 138/114/66 147/101/66
f 150/148/21 117/96/21 145/105/21
f 117/96/21 118/97/21 145/105/21
f 118/97/21 125/99/21 145/105/21
f 145/105/67 146/111/67 142/111/67
f 139/110/129 142/111/129 140/101/129
f 142/111/47 146/111/47 147/101/47
f 146/111/130 141/110/130 147/101/130
f 144/148/131 148/102/131 143/105/131
f 148/102/24 149/102/24 145/105/24
f 149/102/24 150/148/24 145/105/24
f 147/101/68 149/102/68 148/102/68
f 6/8/132 5/1/132 16/3/132
