# Blender 4.4.0
# www.blender.org
mtllib Tool_Hammer_06.mtl
o Tool_Hammer_06
v -0.010656 0.000000 0.019314
v -0.019314 0.000000 0.010656
v 0.019314 0.000000 0.010656
v 0.010656 0.000000 0.019314
v -0.019314 0.000000 -0.010656
v -0.010656 0.000000 -0.019314
v 0.010656 0.000000 -0.019314
v 0.019314 0.000000 -0.010656
v -0.005356 0.247656 -0.014015
v -0.014015 0.247656 -0.005356
v -0.014015 0.247656 0.005356
v -0.005356 0.247656 0.014015
v 0.005356 0.247656 0.014015
v 0.014015 0.247656 0.005356
v 0.014015 0.247656 -0.005356
v 0.005356 0.247656 -0.014015
v -0.014828 0.211789 0.006169
v -0.006169 0.211789 0.014828
v -0.006169 0.211789 -0.014828
v -0.014828 0.211789 -0.006169
v 0.014828 0.211789 -0.006169
v 0.006169 0.211789 -0.014828
v 0.006169 0.211789 0.014828
v 0.014828 0.211789 0.006169
v -0.015398 0.121186 -0.006739
v -0.006739 0.121186 -0.015398
v 0.006739 0.121186 -0.015398
v 0.015398 0.121186 -0.006739
v -0.015398 0.121186 0.006739
v -0.006739 0.121186 0.015398
v 0.006739 0.121186 0.015398
v 0.015398 0.121186 0.006739
v -0.064588 0.265629 -0.034891
v -0.064588 0.284327 -0.034891
v -0.064588 0.300520 -0.025542
v -0.064588 0.309869 -0.009349
v -0.064588 0.309869 0.009349
v -0.064588 0.300520 0.025542
v -0.064588 0.284327 0.034891
v -0.064588 0.265629 0.034891
v -0.064588 0.249436 0.025542
v -0.064588 0.240087 0.009349
v -0.064588 0.240087 -0.009349
v -0.064588 0.249436 -0.025542
v 0.064599 0.265629 -0.034891
v 0.064599 0.284327 -0.034891
v 0.064599 0.300520 -0.025542
v 0.064599 0.309869 -0.009349
v 0.064599 0.309869 0.009349
v 0.064599 0.300520 0.025542
v 0.064599 0.284327 0.034891
v 0.064599 0.265629 0.034891
v 0.064599 0.249436 0.025542
v 0.064599 0.240087 0.009349
v 0.064599 0.240087 -0.009349
v 0.064599 0.249436 -0.025542
v -0.071392 0.267970 -0.026153
v -0.071392 0.281986 -0.026153
v -0.071392 0.294124 -0.019146
v -0.071392 0.301131 -0.007008
v -0.071392 0.301131 0.007008
v -0.071392 0.294124 0.019146
v -0.071392 0.281986 0.026153
v -0.071392 0.267970 0.026153
v -0.071392 0.255832 0.019146
v -0.071392 0.248825 0.007008
v -0.071392 0.248825 -0.007008
v -0.071392 0.255832 -0.019146
v 0.071404 0.267970 -0.026153
v 0.071404 0.281986 -0.026153
v 0.071404 0.294124 -0.019146
v 0.071404 0.301131 -0.007008
v 0.071404 0.301131 0.007008
v 0.071404 0.294124 0.019146
v 0.071404 0.281986 0.026153
v 0.071404 0.267970 0.026153
v 0.071404 0.255832 0.019146
v 0.071404 0.248825 0.007008
v 0.071404 0.248825 -0.007008
v 0.071404 0.255832 -0.019146
vn 0.9995 0.0323 -0.0000
vn -0.0000 0.0227 -0.9997
vn -0.9997 0.0227 -0.0000
vn -0.0000 0.0227 0.9997
vn -1.0000 0.0063 -0.0000
vn 0.9997 0.0227 -0.0000
vn -0.0000 0.0063 -1.0000
vn -0.0000 0.0063 1.0000
vn -0.0000 0.0323 0.9995
vn 1.0000 0.0063 -0.0000
vn -0.0000 0.0323 -0.9995
vn -0.0000 -1.0000 -0.0000
vn -0.7067 0.0321 0.7067
vn -0.7064 0.0457 -0.7064
vn 0.7064 0.0457 -0.7064
vn 0.7067 0.0321 0.7067
vn -0.7071 0.0089 0.7071
vn -0.7067 0.0321 -0.7067
vn 0.7067 0.0321 -0.7067
vn 0.7071 0.0089 0.7071
vn -0.7071 0.0089 -0.7071
vn 0.7071 0.0089 -0.7071
vn -0.7064 0.0457 0.7064
vn 0.7064 0.0457 0.7064
vn -0.9995 0.0323 -0.0000
vn -0.0000 -0.0000 1.0000
vn -0.0000 1.0000 -0.0000
vn -0.0000 -0.8660 -0.5000
vn -0.0000 -0.0000 -1.0000
vn -0.0000 -0.5000 0.8660
vn -0.0000 0.8660 0.5000
vn -0.0000 -0.5000 -0.8660
vn -0.0000 0.5000 -0.8660
vn -0.0000 -0.8660 0.5000
vn -0.0000 0.5000 0.8660
vn -0.0000 0.8660 -0.5000
vn 0.7890 -0.3072 -0.5321
vn -0.7890 -0.5321 0.3072
vn 1.0000 -0.0000 -0.0000
vn -1.0000 -0.0000 -0.0000
vn -0.7890 0.3072 -0.5321
vn 0.7890 0.5321 0.3072
vn -0.7890 -0.6144 -0.0000
vn -0.7890 0.5321 -0.3072
vn 0.7890 0.3072 0.5321
vn -0.7890 -0.5321 -0.3072
vn -0.7890 0.6144 -0.0000
vn 0.7890 -0.0000 0.6144
vn -0.7890 -0.3072 -0.5321
vn -0.7890 0.5321 0.3072
vn 0.7890 -0.3072 0.5321
vn 0.7890 -0.0000 -0.6144
vn -0.7890 0.3072 0.5321
vn 0.7890 -0.5321 0.3072
vn 0.7890 0.3072 -0.5321
vn -0.7890 -0.0000 0.6144
vn 0.7890 -0.6144 -0.0000
vn 0.7890 0.5321 -0.3072
vn -0.7890 -0.3072 0.5321
vn 0.7890 -0.5321 -0.3072
vn -0.7890 -0.0000 -0.6144
vn 0.7890 0.6144 -0.0000
vt 0.568650 0.810542
vt 0.568831 0.823213
vt 0.568872 0.810542
vt 0.568606 0.832685
vt 0.568615 0.836435
vt 0.568825 0.832685
vt 0.568705 0.836435
vt 0.568697 0.832685
vt 0.568915 0.832685
vt 0.568907 0.836435
vt 0.568691 0.823213
vt 0.568817 0.836435
vt 0.568600 0.823213
vt 0.568921 0.823213
vt 0.568962 0.810542
vt 0.568560 0.810542
vt 0.575357 0.676994
vt 0.575357 0.702575
vt 0.575382 0.737517
vt 0.575400 0.737517
vt 0.575416 0.654841
vt 0.575400 0.642050
vt 0.575425 0.702575
vt 0.575425 0.676994
vt 0.575366 0.654841
vt 0.575366 0.724727
vt 0.575416 0.724727
vt 0.575382 0.642050
vt 0.575417 0.680197
vt 0.575410 0.663592
vt 0.575384 0.654004
vt 0.575384 0.725563
vt 0.575372 0.663592
vt 0.575398 0.654004
vt 0.575365 0.699371
vt 0.575410 0.715977
vt 0.575398 0.725563
vt 0.575372 0.715977
vt 0.575365 0.680197
vt 0.575417 0.699371
s 0
usemtl Texture_Map
f 8/1/1 32/2/1 3/3/1
f 19/4/2 16/5/2 22/4/2
f 17/6/3 10/7/3 20/8/3
f 23/9/4 12/10/4 18/9/4
f 29/2/5 20/8/5 25/11/5
f 21/8/6 14/12/6 24/6/6
f 26/13/7 22/4/7 27/13/7
f 31/14/8 18/9/8 30/14/8
f 4/15/9 30/14/9 1/15/9
f 28/11/10 24/6/10 32/2/10
f 6/16/11 27/13/11 7/16/11
f 3/3/12 4/15/12 6/16/12
f 12/10/13 17/6/13 18/9/13
f 6/16/14 25/11/14 26/13/14
f 8/1/15 27/13/15 28/11/15
f 14/12/16 23/9/16 24/6/16
f 18/9/17 29/2/17 30/14/17
f 19/4/18 10/7/18 9/5/18
f 21/8/19 16/5/19 15/7/19
f 24/6/20 31/14/20 32/2/20
f 26/13/21 20/8/21 19/4/21
f 28/11/22 22/4/22 21/8/22
f 30/14/23 2/3/23 1/15/23
f 32/2/24 4/15/24 3/3/24
f 2/3/25 25/11/25 5/1/25
f 52/17/26 39/18/26 40/17/26
f 49/19/27 36/20/27 37/19/27
f 56/21/28 43/22/28 44/21/28
f 46/23/29 33/24/29 34/23/29
f 53/25/30 40/17/30 41/25/30
f 50/26/31 37/19/31 38/26/31
f 45/24/32 44/21/32 33/24/32
f 47/27/33 34/23/33 35/27/33
f 54/28/34 41/25/34 42/28/34
f 51/18/35 38/26/35 39/18/35
f 48/20/36 35/27/36 36/20/36
f 56/21/37 69/29/37 80/30/37
f 41/25/38 66/31/38 42/28/38
f 73/32/39 77/33/39 69/29/39
f 67/34/40 63/35/40 59/36/40
f 34/23/41 59/36/41 35/27/41
f 50/26/42 73/32/42 49/19/42
f 43/22/43 66/31/43 67/34/43
f 35/27/44 60/37/44 36/20/44
f 51/18/45 74/38/45 50/26/45
f 44/21/46 67/34/46 68/30/46
f 36/20/47 61/32/47 37/19/47
f 51/18/48 76/39/48 75/35/48
f 44/21/49 57/29/49 33/24/49
f 38/26/50 61/32/50 62/38/50
f 53/25/51 76/39/51 52/17/51
f 46/23/52 69/29/52 45/24/52
f 39/18/53 62/38/53 63/35/53
f 53/25/54 78/31/54 77/33/54
f 46/23/55 71/36/55 70/40/55
f 39/18/56 64/39/56 40/17/56
f 55/22/57 78/31/57 54/28/57
f 48/20/58 71/36/58 47/27/58
f 41/25/59 64/39/59 65/33/59
f 56/21/60 79/34/60 55/22/60
f 33/24/61 58/40/61 34/23/61
f 48/20/62 73/32/62 72/37/62
f 55/22/12 42/28/12 43/22/12
f 8/1/1 28/11/1 32/2/1
f 19/4/2 9/5/2 16/5/2
f 17/6/3 11/12/3 10/7/3
f 23/9/4 13/10/4 12/10/4
f 29/2/5 17/6/5 20/8/5
f 21/8/6 15/7/6 14/12/6
f 26/13/7 19/4/7 22/4/7
f 31/14/8 23/9/8 18/9/8
f 4/15/9 31/14/9 30/14/9
f 28/11/10 21/8/10 24/6/10
f 6/16/11 26/13/11 27/13/11
f 4/15/12 1/15/12 2/3/12
f 2/3/12 5/1/12 4/15/12
f 5/1/12 6/16/12 4/15/12
f 6/16/12 7/16/12 8/1/12
f 8/1/12 3/3/12 6/16/12
f 12/10/13 11/12/13 17/6/13
f 6/16/14 5/1/14 25/11/14
f 8/1/15 7/16/15 27/13/15
f 14/12/16 13/10/16 23/9/16
f 18/9/17 17/6/17 29/2/17
f 19/4/18 20/8/18 10/7/18
f 21/8/19 22/4/19 16/5/19
f 24/6/20 23/9/20 31/14/20
f 26/13/21 25/11/21 20/8/21
f 28/11/22 27/13/22 22/4/22
f 30/14/23 29/2/23 2/3/23
f 32/2/24 31/14/24 4/15/24
f 2/3/25 29/2/25 25/11/25
f 52/17/26 51/18/26 39/18/26
f 49/19/27 48/20/27 36/20/27
f 56/21/28 55/22/28 43/22/28
f 46/23/29 45/24/29 33/24/29
f 53/25/30 52/17/30 40/17/30
f 50/26/31 49/19/31 37/19/31
f 45/24/32 56/21/32 44/21/32
f 47/27/33 46/23/33 34/23/33
f 54/28/34 53/25/34 41/25/34
f 51/18/35 50/26/35 38/26/35
f 48/20/36 47/27/36 35/27/36
f 56/21/37 45/24/37 69/29/37
f 41/25/38 65/33/38 66/31/38
f 69/29/39 70/40/39 71/36/39
f 71/36/39 72/37/39 73/32/39
f 73/32/39 74/38/39 77/33/39
f 74/38/39 75/35/39 77/33/39
f 75/35/39 76/39/39 77/33/39
f 77/33/39 78/31/39 79/34/39
f 79/34/39 80/30/39 77/33/39
f 80/30/39 69/29/39 77/33/39
f 69/29/39 71/36/39 73/32/39
f 59/36/40 58/40/40 57/29/40
f 57/29/40 68/30/40 59/36/40
f 68/30/40 67/34/40 59/36/40
f 67/34/40 66/31/40 65/33/40
f 65/33/40 64/39/40 63/35/40
f 63/35/40 62/38/40 59/36/40
f 62/38/40 61/32/40 59/36/40
f 61/32/40 60/37/40 59/36/40
f 67/34/40 65/33/40 63/35/40
f 34/23/41 58/40/41 59/36/41
f 50/26/42 74/38/42 73/32/42
f 43/22/43 42/28/43 66/31/43
f 35/27/44 59/36/44 60/37/44
f 51/18/45 75/35/45 74/38/45
f 44/21/46 43/22/46 67/34/46
f 36/20/47 60/37/47 61/32/47
f 51/18/48 52/17/48 76/39/48
f 44/21/49 68/30/49 57/29/49
f 38/26/50 37/19/50 61/32/50
f 53/25/51 77/33/51 76/39/51
f 46/23/52 70/40/52 69/29/52
f 39/18/53 38/26/53 62/38/53
f 53/25/54 54/28/54 78/31/54
f 46/23/55 47/27/55 71/36/55
f 39/18/56 63/35/56 64/39/56
f 55/22/57 79/34/57 78/31/57
f 48/20/58 72/37/58 71/36/58
f 41/25/59 40/17/59 64/39/59
f 56/21/60 80/30/60 79/34/60
f 33/24/61 57/29/61 58/40/61
f 48/20/62 49/19/62 73/32/62
f 55/22/12 54/28/12 42/28/12
