# Blender 4.4.0
# www.blender.org
mtllib Tool_Trowel_01.mtl
o Tool_Trowel_01
v -0.002647 0.135542 -0.002647
v -0.000969 0.135542 -0.003616
v -0.000969 0.135542 0.003616
v 0.003616 0.135542 0.000969
v 0.002647 0.135542 0.002647
v 0.002647 0.135542 -0.002647
v -0.002647 0.135542 0.002647
v 0.002512 0.147153 0.002589
v -0.000919 0.147153 -0.003354
v -0.002512 0.147153 0.002589
v 0.000919 0.147153 0.003509
v -0.000919 0.147153 0.003509
v 0.000919 0.147153 -0.003354
v 0.012482 0.158745 0.000894
v 0.012482 0.158745 -0.000894
v -0.009137 0.158745 -0.002442
v 0.003344 0.158745 -0.003336
v -0.012482 0.158745 0.000894
v -0.001980 0.189434 -0.004215
v -0.001980 0.189434 -0.002355
v 0.001980 0.189434 -0.004215
v -0.002705 0.189434 -0.002945
v 0.000969 0.135542 -0.003616
v 0.000969 0.135542 0.003616
v -0.003616 0.135542 0.000969
v -0.003616 0.135542 -0.000969
v 0.003616 0.135542 -0.000969
v -0.003431 0.147153 0.000997
v 0.002512 0.147153 -0.002434
v 0.003431 0.147153 0.000997
v 0.003431 0.147153 -0.000842
v -0.003431 0.147153 -0.000842
v -0.002512 0.147153 -0.002434
v 0.003344 0.158745 0.003336
v -0.003344 0.158745 0.003336
v -0.012482 0.158745 -0.000894
v 0.009137 0.158745 -0.002442
v -0.003344 0.158745 -0.003336
v 0.009137 0.158745 0.002442
v -0.009137 0.158745 0.002442
v 0.000725 0.189434 -0.002015
v -0.000725 0.189434 -0.002015
v -0.002705 0.189434 -0.003625
v 0.002705 0.189434 -0.003625
v 0.000725 0.189434 -0.004555
v -0.000725 0.189434 -0.004555
v 0.001980 0.189434 -0.002355
v 0.002705 0.189434 -0.002945
v -0.002849 0.064287 -0.010631
v 0.007783 0.064287 -0.007783
v 0.010631 0.064287 0.002849
v 0.002849 0.064287 0.010631
v -0.002849 0.064287 0.010631
v -0.007783 0.064287 0.007783
v -0.007216 0.120759 -0.007216
v -0.009858 0.120759 0.002641
v -0.007216 0.120759 0.007216
v -0.002641 0.120759 0.009858
v 0.009858 0.120759 -0.002641
v 0.002641 0.120759 -0.009858
v -0.007216 0.135575 -0.007216
v 0.009858 0.135575 0.002641
v 0.007216 0.135575 0.007216
v 0.007216 0.135575 -0.007216
v -0.002992 0.120759 -0.011167
v 0.002992 0.120759 -0.011167
v 0.008175 0.120759 -0.008175
v 0.008175 0.120759 0.008175
v -0.002992 0.120759 0.011167
v -0.008175 0.120759 0.008175
v -0.011167 0.120759 -0.002992
v -0.008175 0.120759 -0.008175
v -0.011053 0.011839 -0.011053
v -0.008943 0.003468 -0.008943
v -0.003845 0.000000 -0.001030
v -0.015099 0.011839 0.004046
v -0.012216 0.003468 0.003273
v -0.002815 0.000000 0.002815
v -0.011053 0.011839 0.011053
v -0.008943 0.003468 0.008943
v -0.001030 0.000000 0.003845
v -0.004046 0.011839 0.015099
v -0.003273 0.003468 0.012216
v 0.004046 0.011839 0.015099
v 0.003273 0.003468 0.012216
v 0.002815 0.000000 0.002815
v 0.008943 0.003468 0.008943
v 0.003845 0.000000 0.001030
v 0.015099 0.011839 0.004046
v 0.012216 0.003468 0.003273
v 0.003845 0.000000 -0.001030
v 0.008943 0.003468 -0.008943
v 0.004046 0.011839 -0.015099
v 0.003273 0.003468 -0.012216
v -0.004046 0.011839 -0.015099
v -0.003273 0.003468 -0.012216
v 0.002849 0.064287 -0.010631
v -0.007783 0.064287 -0.007783
v -0.010631 0.064287 -0.002849
v -0.010631 0.064287 0.002849
v 0.007783 0.064287 0.007783
v 0.010631 0.064287 -0.002849
v 0.007216 0.120759 -0.007216
v 0.009858 0.120759 0.002641
v 0.007216 0.120759 0.007216
v 0.002641 0.120759 0.009858
v -0.009858 0.120759 -0.002641
v -0.002641 0.120759 -0.009858
v 0.002641 0.135575 -0.009858
v 0.002641 0.135575 0.009858
v -0.009858 0.135575 0.002641
v -0.007216 0.135575 0.007216
v -0.002641 0.135575 0.009858
v -0.002641 0.135575 -0.009858
v -0.009858 0.135575 -0.002641
v 0.009858 0.135575 -0.002641
v -0.011167 0.120759 0.002992
v 0.002992 0.120759 0.011167
v 0.011167 0.120759 0.002992
v 0.011167 0.120759 -0.002992
v 0.002815 0.000000 -0.002815
v 0.011053 0.011839 -0.011053
v 0.015099 0.011839 -0.004046
v 0.012216 0.003468 -0.003273
v 0.011053 0.011839 0.011053
v 0.001030 0.000000 0.003845
v -0.003845 0.000000 0.001030
v -0.015099 0.011839 -0.004046
v -0.012216 0.003468 -0.003273
v -0.002815 0.000000 -0.002815
v -0.001030 0.000000 -0.003845
v 0.001030 0.000000 -0.003845
v -0.022661 0.214665 -0.000546
v -0.023040 0.159731 0.001785
v 0.000000 0.156949 0.000271
v -0.000000 0.213169 -0.002705
v -0.039472 0.224475 0.005499
v -0.044621 0.174034 0.005653
v -0.016198 0.243433 0.000111
v -0.000000 0.240800 -0.002142
v -0.031850 0.249042 0.005542
v -0.009228 0.270193 0.001425
v -0.000000 0.266187 -0.001242
v -0.018308 0.274518 0.005389
v -0.005218 0.292614 0.005095
v 0.000000 0.297312 0.004246
v -0.011620 0.284378 0.005610
v -0.022851 0.186488 -0.001164
v -0.000000 0.181300 -0.002778
v -0.044527 0.199993 0.005458
v -0.023035 0.214759 -0.002537
v -0.023414 0.159881 0.000286
v -0.000000 0.157071 -0.001052
v -0.000000 0.213222 -0.005270
v -0.040953 0.225276 0.003134
v -0.046439 0.175163 0.002297
v -0.016571 0.243531 -0.002550
v -0.000000 0.240859 -0.005245
v -0.033250 0.249541 0.003534
v -0.009602 0.270299 -0.002114
v -0.000000 0.266257 -0.004839
v -0.019244 0.274926 0.003691
v -0.005174 0.294300 0.003691
v 0.000000 0.299624 0.003058
v -0.012084 0.285476 0.004099
v -0.023224 0.186575 -0.002695
v -0.000000 0.181357 -0.004483
v -0.046352 0.201060 0.002732
v 0.022661 0.214665 -0.000546
v 0.023040 0.159731 0.001785
v 0.039472 0.224475 0.005499
v 0.044621 0.174034 0.005653
v 0.016198 0.243433 0.000111
v 0.031850 0.249042 0.005542
v 0.009228 0.270193 0.001425
v 0.018308 0.274518 0.005389
v 0.005218 0.292614 0.005095
v 0.011620 0.284378 0.005610
v 0.022851 0.186488 -0.001164
v 0.044527 0.199993 0.005458
v 0.023035 0.214759 -0.002537
v 0.023414 0.159881 0.000286
v 0.040953 0.225276 0.003134
v 0.046439 0.175163 0.002297
v 0.016571 0.243531 -0.002550
v 0.033250 0.249541 0.003534
v 0.009602 0.270299 -0.002114
v 0.019244 0.274926 0.003691
v 0.005174 0.294300 0.003691
v 0.012084 0.285476 0.004099
v 0.023224 0.186575 -0.002695
v 0.046352 0.201060 0.002732
vn -0.7882 -0.6154 -0.0000
vn 0.4979 -0.0913 0.8624
vn 0.7882 -0.6154 -0.0000
vn -0.7760 -0.4438 -0.4481
vn -0.4001 -0.3047 0.8643
vn -0.4974 -0.1027 -0.8614
vn -0.0000 0.0015 -1.0000
vn 0.7760 -0.4438 -0.4481
vn 0.7781 -0.4390 0.4492
vn 0.8659 0.0192 -0.4999
vn -0.8659 0.0192 -0.4999
vn -0.5000 0.0101 0.8660
vn 0.4999 0.0217 -0.8658
vn 0.9999 0.0159 -0.0000
vn -0.0000 0.0225 -0.9997
vn 0.5000 0.0101 0.8660
vn -0.0000 0.0092 1.0000
vn -0.8660 0.0126 0.5000
vn -0.4999 0.0217 -0.8658
vn 0.8660 0.0126 0.5000
vn 0.4078 0.2401 0.8809
vn -0.0000 0.0149 0.9999
vn 0.4974 -0.1027 -0.8614
vn -0.6093 0.2592 0.7493
vn 0.4195 0.0530 -0.9062
vn 0.9528 0.3035 -0.0000
vn 0.1498 0.1867 0.9709
vn -0.4195 0.0530 -0.9062
vn -0.0000 -0.0397 -0.9992
vn -0.1525 -0.0215 -0.9881
vn 0.2616 -0.0160 -0.9650
vn -0.9528 0.3035 -0.0000
vn -0.0000 1.0000 -0.0000
vn -0.9999 0.0159 -0.0000
vn -0.0000 0.1718 0.9851
vn -0.1498 0.1867 0.9709
vn -0.4979 -0.0913 0.8624
vn 0.9964 0.0849 -0.0000
vn -0.8629 0.0849 -0.4982
vn -0.4982 0.0849 0.8629
vn 0.8629 0.0849 0.4982
vn -0.4982 0.0849 -0.8629
vn 0.4982 0.0849 -0.8629
vn -0.8629 0.0849 0.4982
vn 0.4982 0.0849 0.8629
vn 0.8629 0.0849 -0.4982
vn -0.9964 0.0849 -0.0000
vn -0.0000 0.0849 0.9964
vn -0.5000 -0.0000 0.8660
vn 0.8660 -0.0000 0.5000
vn 1.0000 -0.0000 -0.0000
vn 0.5000 -0.0000 -0.8660
vn -0.0000 -1.0000 -0.0000
vn -1.0000 -0.0000 -0.0000
vn -0.0000 -0.0000 1.0000
vn -0.5000 -0.0000 -0.8660
vn -0.8660 -0.0000 0.5000
vn 0.5000 -0.0000 0.8660
vn -0.0000 -0.0000 -1.0000
vn -0.0000 0.0849 -0.9964
vn 0.8660 -0.0095 0.5000
vn 1.0000 -0.0095 -0.0000
vn -0.0000 -0.0095 -1.0000
vn -0.5000 -0.0095 -0.8660
vn 0.8660 -0.0095 -0.5000
vn -0.8660 -0.0095 0.5000
vn 0.5000 -0.0095 0.8660
vn -1.0000 -0.0095 -0.0000
vn -0.8660 -0.0095 -0.5000
vn -0.5000 -0.0095 0.8660
vn -0.0000 -0.0095 1.0000
vn -0.3314 -0.9239 0.1913
vn -0.8188 -0.3256 0.4727
vn -0.3314 -0.9239 -0.1913
vn -0.8188 -0.3256 -0.4727
vn -0.0000 -0.9239 0.3827
vn -0.0000 -0.3256 0.9455
vn 0.3314 -0.9239 0.1913
vn 0.8188 -0.3256 0.4727
vn 0.3314 -0.9239 -0.1913
vn 0.8188 -0.3256 -0.4727
vn 0.1913 -0.9239 -0.3314
vn 0.4727 -0.3256 -0.8188
vn -0.0000 -0.9239 -0.3827
vn -0.0000 -0.3256 -0.9455
vn -0.3827 -0.9239 -0.0000
vn -0.9455 -0.3256 -0.0000
vn 0.3827 -0.9239 -0.0000
vn 0.9455 -0.3256 -0.0000
vn 0.1913 -0.9239 0.3314
vn 0.4727 -0.3256 0.8188
vn -0.1913 -0.9239 0.3314
vn -0.4727 -0.3256 0.8188
vn -0.1913 -0.9239 -0.3314
vn -0.4727 -0.3256 -0.8188
vn 0.8660 -0.0000 -0.5000
vn -0.8660 -0.0000 -0.5000
vn 0.5000 -0.0095 -0.8660
vn -0.0732 -0.1395 -0.9875
vn 0.2790 -0.0229 0.9600
vn 0.2963 -0.0936 0.9505
vn 0.2324 -0.1080 0.9666
vn 0.3262 -0.1678 0.9303
vn 0.1945 -0.1923 0.9619
vn 0.2986 -0.2234 0.9278
vn 0.0700 -0.0023 0.9975
vn 0.2422 0.1046 0.9646
vn 0.0919 -0.0434 0.9948
vn -0.1227 -0.9901 -0.0686
vn -0.2243 0.0070 -0.9745
vn -0.2690 0.0600 -0.9613
vn -0.1580 0.0158 -0.9873
vn -0.3103 0.0962 -0.9458
vn -0.1608 0.2600 -0.9521
vn -0.3849 0.2951 -0.8745
vn -0.1174 0.0064 -0.9931
vn -0.1577 -0.1085 -0.9815
vn -0.1161 0.0256 -0.9929
vn -0.4167 0.5881 0.6932
vn -0.5452 -0.8367 0.0521
vn -0.6288 0.5247 0.5739
vn -0.7896 0.1620 0.5919
vn -0.7174 0.4752 0.5094
vn -0.7562 0.4051 0.5139
vn -0.7833 0.2420 0.5726
vn -0.8782 0.0068 0.4782
vn 0.0799 0.1239 0.9891
vn 0.1008 -0.1097 -0.9888
vn -0.2790 -0.0229 0.9600
vn -0.2916 -0.0873 0.9525
vn -0.1321 -0.0351 0.9906
vn -0.2864 -0.1212 0.9504
vn -0.1945 -0.1923 0.9619
vn -0.2986 -0.2234 0.9278
vn -0.0700 -0.0023 0.9975
vn -0.2422 0.1046 0.9646
vn -0.0919 -0.0434 0.9948
vn 0.1227 -0.9901 -0.0686
vn 0.2243 0.0070 -0.9745
vn 0.3046 0.1123 -0.9459
vn 0.2414 0.0786 -0.9672
vn 0.4161 0.2350 -0.8784
vn 0.1608 0.2600 -0.9521
vn 0.3849 0.2951 -0.8745
vn 0.1174 0.0064 -0.9931
vn 0.1577 -0.1085 -0.9815
vn 0.1161 0.0256 -0.9929
vn 0.3400 0.4299 0.8364
vn 0.5518 -0.8338 0.0184
vn 0.6188 0.5121 0.5956
vn 0.8080 0.1708 0.5639
vn 0.7026 0.4557 0.5465
vn 0.7562 0.4051 0.5139
vn 0.7693 0.2345 0.5943
vn 0.8322 -0.0065 0.5544
vn -0.0945 0.1084 0.9896
vn 0.1521 -0.0744 0.9856
vn -0.3987 -0.3151 -0.8612
vn -0.7781 -0.4390 0.4492
vn -0.1519 -0.0875 -0.9845
vn 0.3987 -0.3151 -0.8612
vn 0.4001 -0.3047 0.8643
vn 0.6094 0.2592 0.7493
vn 0.1519 -0.0875 -0.9845
vn -0.4078 0.2401 0.8809
vn 0.6276 0.1018 -0.7718
vn 0.2570 0.1872 0.9481
vn -0.6277 0.1018 -0.7718
vn -0.2616 -0.0160 -0.9650
vn 0.1525 -0.0215 -0.9881
vn -0.2570 0.1873 0.9481
vn -0.1521 -0.0744 0.9856
vn -0.1008 -0.1097 -0.9888
vn 0.3042 -0.0644 0.9504
vn 0.2916 -0.0873 0.9525
vn 0.1321 -0.0351 0.9906
vn 0.2864 -0.1212 0.9504
vn 0.3019 -0.1655 0.9389
vn 0.3456 -0.2115 0.9142
vn 0.0933 -0.0224 0.9954
vn 0.2956 0.0061 0.9553
vn 0.1345 -0.0202 0.9907
vn -0.1253 -0.9879 -0.0914
vn -0.2611 0.0742 -0.9625
vn -0.3046 0.1123 -0.9459
vn -0.2414 0.0786 -0.9672
vn -0.4161 0.2350 -0.8784
vn -0.3355 0.2170 -0.9167
vn -0.4157 0.2855 -0.8635
vn -0.0823 -0.0246 -0.9963
vn -0.2182 0.0171 -0.9757
vn -0.1604 0.0009 -0.9871
vn -0.3400 0.4299 0.8364
vn -0.5518 -0.8338 0.0184
vn -0.6188 0.5121 0.5956
vn -0.8080 0.1708 0.5639
vn -0.7026 0.4557 0.5465
vn -0.7085 0.3873 0.5899
vn -0.7693 0.2345 0.5943
vn -0.8322 -0.0065 0.5544
vn 0.0945 0.1084 0.9896
vn 0.0732 -0.1395 -0.9875
vn -0.3042 -0.0644 0.9504
vn -0.2963 -0.0936 0.9505
vn -0.2324 -0.1080 0.9666
vn -0.3262 -0.1678 0.9303
vn -0.3019 -0.1655 0.9389
vn -0.3456 -0.2115 0.9142
vn -0.0933 -0.0224 0.9954
vn -0.2956 0.0061 0.9553
vn -0.1345 -0.0202 0.9907
vn 0.1253 -0.9879 -0.0914
vn 0.2611 0.0742 -0.9625
vn 0.2690 0.0600 -0.9613
vn 0.1580 0.0158 -0.9873
vn 0.3103 0.0962 -0.9458
vn 0.3355 0.2170 -0.9167
vn 0.4157 0.2855 -0.8635
vn 0.0822 -0.0246 -0.9963
vn 0.2182 0.0171 -0.9757
vn 0.1604 0.0009 -0.9871
vn 0.4167 0.5881 0.6932
vn 0.5452 -0.8367 0.0521
vn 0.6288 0.5247 0.5739
vn 0.7896 0.1620 0.5919
vn 0.7174 0.4752 0.5094
vn 0.7085 0.3873 0.5899
vn 0.7833 0.2420 0.5726
vn 0.8782 0.0068 0.4782
vn -0.0799 0.1239 0.9891
vt 0.467414 0.650330
vt 0.467416 0.640999
vt 0.467414 0.640999
vt 0.467412 0.640999
vt 0.467411 0.650330
vt 0.467411 0.640999
vt 0.467417 0.650330
vt 0.467417 0.640999
vt 0.467412 0.650330
vt 0.467418 0.650330
vt 0.467418 0.640999
vt 0.467416 0.631655
vt 0.467417 0.631655
vt 0.467411 0.631655
vt 0.467412 0.631655
vt 0.467414 0.631655
vt 0.467418 0.631655
vt 0.467418 0.675029
vt 0.467417 0.675029
vt 0.467418 0.675029
vt 0.467416 0.650330
vt 0.467419 0.675029
vt 0.467419 0.675029
vt 0.467417 0.675029
vt 0.597472 0.901193
vt 0.597400 0.831403
vt 0.597412 0.901193
vt 0.597327 0.831403
vt 0.597361 0.901193
vt 0.597557 0.831403
vt 0.597553 0.901193
vt 0.597523 0.901193
vt 0.597484 0.831403
vt 0.597285 0.831403
vt 0.597331 0.901193
vt 0.597472 0.901193
vt 0.597599 0.831403
vt 0.597411 0.976341
vt 0.597558 0.976341
vt 0.597357 0.976341
vt 0.467408 0.619756
vt 0.467405 0.631681
vt 0.467408 0.631681
vt 0.467412 0.619756
vt 0.467417 0.619756
vt 0.467412 0.631681
vt 0.467424 0.619756
vt 0.467422 0.631681
vt 0.467422 0.619756
vt 0.467417 0.631681
vt 0.467405 0.619756
vt 0.467424 0.631681
vt 0.597482 0.815650
vt 0.597471 0.815650
vt 0.597402 0.815650
vt 0.597527 0.976341
vt 0.597473 0.976341
vt 0.597326 0.976341
vt 0.597476 0.820262
vt 0.597453 0.815650
vt 0.597535 0.820262
vt 0.597413 0.815650
vt 0.597408 0.820262
vt 0.597349 0.820262
vt 0.597569 0.820262
vt 0.597431 0.815650
vt 0.597315 0.820262
vt 0.467414 0.651243
vt 0.467419 0.668528
vt 0.467416 0.648982
vt 0.467415 0.695336
vt 0.467409 0.683527
vt 0.467416 0.672658
vt 0.467409 0.703233
vt 0.467415 0.718490
vt 0.467409 0.723005
vt 0.467416 0.736804
vt 0.467413 0.740028
vt 0.467409 0.743510
vt 0.467410 0.758074
vt 0.467409 0.751445
vt 0.467417 0.694133
vt 0.467418 0.668482
vt 0.467409 0.662635
vt 0.467413 0.651122
vt 0.467412 0.684386
vt 0.467417 0.695412
vt 0.467417 0.672729
vt 0.467412 0.703876
vt 0.467417 0.718570
vt 0.467420 0.736861
vt 0.467420 0.716418
vt 0.467411 0.723407
vt 0.467417 0.740113
vt 0.467411 0.759431
vt 0.467411 0.752329
vt 0.467411 0.743838
vt 0.467420 0.694174
vt 0.467412 0.663543
vt 0.467411 0.761855
vt 0.467414 0.648883
vt 0.467417 0.716372
vt 0.467412 0.763716
s 0
usemtl Texture_Map
f 18/1/1 32/2/1 28/3/1
f 8/4/2 34/5/2 11/6/2
f 31/2/3 14/1/3 30/3/3
f 32/2/4 16/7/4 33/8/4
f 28/3/5 40/9/5 18/1/5
f 33/8/6 38/10/6 9/11/6
f 38/10/7 13/11/7 9/11/7
f 37/7/8 31/2/8 29/8/8
f 30/3/9 39/9/9 8/4/9
f 27/12/10 29/8/10 31/2/10
f 26/12/11 33/8/11 1/13/11
f 3/14/12 10/4/12 7/15/12
f 6/13/13 13/11/13 29/8/13
f 4/16/14 31/2/14 30/3/14
f 2/17/15 13/11/15 23/17/15
f 24/14/16 8/4/16 11/6/16
f 3/14/17 11/6/17 12/6/17
f 7/15/18 28/3/18 25/16/18
f 1/13/19 9/11/19 2/17/19
f 5/15/20 30/3/20 8/4/20
f 48/18/21 39/9/21 14/1/21
f 35/5/22 11/6/22 34/5/22
f 17/10/23 29/8/23 13/11/23
f 22/18/24 40/9/24 20/19/24
f 37/7/25 44/20/25 15/21/25
f 48/18/26 15/21/26 44/20/26
f 47/19/27 34/5/27 39/9/27
f 43/20/28 16/7/28 36/21/28
f 46/22/29 17/10/29 38/10/29
f 19/23/30 38/10/30 16/7/30
f 21/23/31 17/10/31 45/22/31
f 22/18/32 36/21/32 18/1/32
f 48/18/33 44/20/33 21/23/33
f 25/16/34 32/2/34 26/12/34
f 41/24/35 35/5/35 34/5/35
f 35/5/36 20/19/36 40/9/36
f 35/5/37 10/4/37 12/6/37
f 51/25/38 123/26/38 102/27/38
f 73/28/39 99/27/39 98/29/39
f 79/30/40 53/31/40 54/32/40
f 101/32/41 89/33/41 51/25/41
f 95/34/42 98/29/42 49/35/42
f 50/29/43 93/34/43 97/35/43
f 76/33/44 54/32/44 100/36/44
f 84/37/45 101/32/45 52/31/45
f 71/38/33 118/39/33 67/40/33
f 102/27/46 122/28/46 50/29/46
f 128/26/47 100/36/47 99/27/47
f 82/37/48 52/31/48 53/31/48
f 57/41/49 113/42/49 112/43/49
f 104/44/50 63/43/50 105/41/50
f 59/45/51 62/46/51 104/44/51
f 60/47/52 64/48/52 103/49/52
f 103/49/53 104/44/53 57/41/53
f 107/45/54 111/46/54 115/50/54
f 58/51/55 110/42/55 113/42/55
f 108/47/56 61/48/56 114/52/56
f 56/44/57 112/43/57 111/46/57
f 126/53/53 78/54/53 131/55/53
f 105/41/58 110/42/58 106/51/58
f 108/47/59 109/52/59 60/47/59
f 93/34/60 49/35/60 97/35/60
f 68/56/61 51/25/61 119/57/61
f 120/38/62 51/25/62 102/27/62
f 65/58/63 97/35/63 49/35/63
f 65/58/64 98/29/64 72/40/64
f 67/40/65 102/27/65 50/29/65
f 70/56/66 100/36/66 54/32/66
f 118/39/67 101/32/67 68/56/67
f 117/57/68 99/27/68 100/36/68
f 71/38/69 98/29/69 99/27/69
f 69/39/70 54/32/70 53/31/70
f 69/39/71 52/31/71 118/39/71
f 78/54/72 77/59/72 127/60/72
f 80/61/73 76/33/73 77/59/73
f 130/62/74 129/63/74 74/64/74
f 74/64/75 128/26/75 73/28/75
f 126/53/76 83/65/76 81/53/76
f 85/65/77 82/37/77 83/65/77
f 86/54/78 90/59/78 87/61/78
f 90/59/79 125/30/79 87/61/79
f 121/62/80 124/63/80 91/66/80
f 92/64/81 123/26/81 124/63/81
f 121/62/82 94/67/82 92/64/82
f 94/67/83 122/28/83 92/64/83
f 131/55/84 94/67/84 132/55/84
f 96/67/85 93/34/85 94/67/85
f 127/60/86 129/63/86 75/66/86
f 129/63/87 76/33/87 128/26/87
f 91/66/88 90/59/88 88/60/88
f 124/63/89 89/33/89 90/59/89
f 86/54/90 85/65/90 126/53/90
f 87/61/91 84/37/91 85/65/91
f 78/54/92 83/65/92 80/61/92
f 80/61/93 82/37/93 79/30/93
f 130/62/94 96/67/94 131/55/94
f 74/64/95 95/34/95 96/67/95
f 115/50/33 112/43/33 110/42/33
f 103/49/96 116/50/96 59/45/96
f 55/49/97 115/50/97 61/48/97
f 67/40/98 97/35/98 66/58/98
f 152/68/99 167/69/99 153/70/99
f 133/71/100 150/72/100 148/73/100
f 137/74/101 139/75/101 141/76/101
f 139/75/102 143/77/102 142/78/102
f 141/76/103 142/78/103 144/79/103
f 143/77/104 145/80/104 142/78/104
f 142/78/105 147/81/105 144/79/105
f 136/82/106 148/73/106 149/83/106
f 148/73/107 138/84/107 134/85/107
f 136/82/108 139/75/108 133/71/108
f 153/70/109 134/85/109 152/68/109
f 168/86/110 151/87/110 166/88/110
f 155/89/111 157/90/111 151/87/111
f 157/90/112 161/91/112 158/92/112
f 159/93/113 160/94/113 157/90/113
f 163/95/114 161/91/114 160/94/114
f 165/96/115 160/94/115 162/97/115
f 154/98/116 166/88/116 151/87/116
f 156/99/117 166/88/117 152/68/117
f 157/90/118 154/98/118 151/87/118
f 146/100/119 163/95/119 145/80/119
f 138/84/120 152/68/120 134/85/120
f 145/80/121 165/96/121 147/81/121
f 137/74/122 168/86/122 150/72/122
f 147/81/123 162/97/123 144/79/123
f 162/97/124 141/76/124 144/79/124
f 141/76/125 155/89/125 137/74/125
f 150/72/126 156/99/126 138/84/126
f 149/83/127 134/85/127 135/101/127
f 182/68/128 167/69/128 191/88/128
f 180/72/129 169/71/129 179/73/129
f 171/74/130 173/75/130 169/71/130
f 173/75/131 143/77/131 140/102/131
f 174/76/132 175/78/132 173/75/132
f 177/80/133 143/77/133 175/78/133
f 178/81/134 175/78/134 176/79/134
f 179/73/135 136/82/135 149/83/135
f 172/84/136 179/73/136 170/85/136
f 173/75/137 136/82/137 169/71/137
f 170/85/138 153/70/138 182/68/138
f 181/87/139 192/86/139 191/88/139
f 183/89/140 185/90/140 186/93/140
f 185/90/141 161/91/141 187/94/141
f 186/93/142 187/94/142 188/97/142
f 161/91/143 189/95/143 187/94/143
f 187/94/144 190/96/144 188/97/144
f 191/88/145 154/98/145 181/87/145
f 191/88/146 184/99/146 182/68/146
f 154/98/147 185/90/147 181/87/147
f 146/100/148 189/95/148 164/103/148
f 172/84/149 182/68/149 184/99/149
f 177/80/150 190/96/150 189/95/150
f 171/74/151 192/86/151 183/89/151
f 178/81/152 188/97/152 190/96/152
f 174/76/153 188/97/153 176/79/153
f 174/76/154 183/89/154 186/93/154
f 180/72/155 184/99/155 192/86/155
f 149/83/156 170/85/156 179/73/156
f 18/1/1 36/21/1 32/2/1
f 8/4/157 39/9/157 34/5/157
f 31/2/3 15/21/3 14/1/3
f 32/2/158 36/21/158 16/7/158
f 28/3/159 10/4/159 40/9/159
f 33/8/160 16/7/160 38/10/160
f 38/10/7 17/10/7 13/11/7
f 37/7/161 15/21/161 31/2/161
f 30/3/162 14/1/162 39/9/162
f 27/12/10 6/13/10 29/8/10
f 26/12/11 32/2/11 33/8/11
f 3/14/12 12/6/12 10/4/12
f 6/13/13 23/17/13 13/11/13
f 4/16/14 27/12/14 31/2/14
f 2/17/15 9/11/15 13/11/15
f 24/14/16 5/15/16 8/4/16
f 3/14/17 24/14/17 11/6/17
f 7/15/18 10/4/18 28/3/18
f 1/13/19 33/8/19 9/11/19
f 5/15/20 4/16/20 30/3/20
f 48/18/163 47/19/163 39/9/163
f 35/5/22 12/6/22 11/6/22
f 17/10/164 37/7/164 29/8/164
f 22/18/165 18/1/165 40/9/165
f 37/7/166 21/23/166 44/20/166
f 48/18/26 14/1/26 15/21/26
f 47/19/167 41/24/167 34/5/167
f 43/20/168 19/23/168 16/7/168
f 46/22/29 45/22/29 17/10/29
f 19/23/169 46/22/169 38/10/169
f 21/23/170 37/7/170 17/10/170
f 22/18/32 43/20/32 36/21/32
f 21/23/33 45/22/33 41/24/33
f 45/22/33 46/22/33 41/24/33
f 46/22/33 19/23/33 20/19/33
f 19/23/33 43/20/33 20/19/33
f 43/20/33 22/18/33 20/19/33
f 20/19/33 42/24/33 46/22/33
f 42/24/33 41/24/33 46/22/33
f 41/24/33 47/19/33 21/23/33
f 47/19/33 48/18/33 21/23/33
f 25/16/34 28/3/34 32/2/34
f 41/24/35 42/24/35 35/5/35
f 35/5/171 42/24/171 20/19/171
f 35/5/172 40/9/172 10/4/172
f 51/25/38 89/33/38 123/26/38
f 73/28/39 128/26/39 99/27/39
f 79/30/40 82/37/40 53/31/40
f 101/32/41 125/30/41 89/33/41
f 95/34/42 73/28/42 98/29/42
f 50/29/43 122/28/43 93/34/43
f 76/33/44 79/30/44 54/32/44
f 84/37/45 125/30/45 101/32/45
f 67/40/33 66/58/33 65/58/33
f 65/58/33 72/40/33 67/40/33
f 72/40/33 71/38/33 67/40/33
f 71/38/33 117/57/33 70/56/33
f 70/56/33 69/39/33 118/39/33
f 118/39/33 68/56/33 67/40/33
f 68/56/33 119/57/33 67/40/33
f 119/57/33 120/38/33 67/40/33
f 71/38/33 70/56/33 118/39/33
f 102/27/46 123/26/46 122/28/46
f 128/26/47 76/33/47 100/36/47
f 82/37/48 84/37/48 52/31/48
f 57/41/49 58/51/49 113/42/49
f 104/44/50 62/46/50 63/43/50
f 59/45/51 116/50/51 62/46/51
f 60/47/52 109/52/52 64/48/52
f 108/47/53 60/47/53 103/49/53
f 103/49/53 59/45/53 104/44/53
f 104/44/53 105/41/53 57/41/53
f 105/41/53 106/51/53 57/41/53
f 106/51/53 58/51/53 57/41/53
f 57/41/53 56/44/53 107/45/53
f 107/45/53 55/49/53 57/41/53
f 55/49/53 108/47/53 57/41/53
f 108/47/53 103/49/53 57/41/53
f 107/45/54 56/44/54 111/46/54
f 58/51/55 106/51/55 110/42/55
f 108/47/56 55/49/56 61/48/56
f 56/44/57 57/41/57 112/43/57
f 78/54/53 127/60/53 131/55/53
f 127/60/53 75/66/53 131/55/53
f 75/66/53 130/62/53 131/55/53
f 131/55/53 132/55/53 88/60/53
f 132/55/53 121/62/53 88/60/53
f 121/62/53 91/66/53 88/60/53
f 88/60/53 86/54/53 126/53/53
f 126/53/53 81/53/53 78/54/53
f 88/60/53 126/53/53 131/55/53
f 105/41/58 63/43/58 110/42/58
f 108/47/59 114/52/59 109/52/59
f 93/34/60 95/34/60 49/35/60
f 68/56/61 101/32/61 51/25/61
f 120/38/62 119/57/62 51/25/62
f 65/58/63 66/58/63 97/35/63
f 65/58/64 49/35/64 98/29/64
f 67/40/65 120/38/65 102/27/65
f 70/56/66 117/57/66 100/36/66
f 118/39/67 52/31/67 101/32/67
f 117/57/68 71/38/68 99/27/68
f 71/38/69 72/40/69 98/29/69
f 69/39/70 70/56/70 54/32/70
f 69/39/71 53/31/71 52/31/71
f 78/54/72 80/61/72 77/59/72
f 80/61/73 79/30/73 76/33/73
f 130/62/74 75/66/74 129/63/74
f 74/64/75 129/63/75 128/26/75
f 126/53/76 85/65/76 83/65/76
f 85/65/77 84/37/77 82/37/77
f 86/54/78 88/60/78 90/59/78
f 90/59/79 89/33/79 125/30/79
f 121/62/80 92/64/80 124/63/80
f 92/64/81 122/28/81 123/26/81
f 121/62/82 132/55/82 94/67/82
f 94/67/83 93/34/83 122/28/83
f 131/55/84 96/67/84 94/67/84
f 96/67/85 95/34/85 93/34/85
f 127/60/86 77/59/86 129/63/86
f 129/63/87 77/59/87 76/33/87
f 91/66/88 124/63/88 90/59/88
f 124/63/89 123/26/89 89/33/89
f 86/54/90 87/61/90 85/65/90
f 87/61/91 125/30/91 84/37/91
f 78/54/92 81/53/92 83/65/92
f 80/61/93 83/65/93 82/37/93
f 130/62/94 74/64/94 96/67/94
f 74/64/95 73/28/95 95/34/95
f 64/48/33 109/52/33 114/52/33
f 114/52/33 61/48/33 115/50/33
f 115/50/33 111/46/33 112/43/33
f 112/43/33 113/42/33 110/42/33
f 110/42/33 63/43/33 62/46/33
f 62/46/33 116/50/33 110/42/33
f 116/50/33 64/48/33 110/42/33
f 64/48/33 114/52/33 110/42/33
f 114/52/33 115/50/33 110/42/33
f 103/49/96 64/48/96 116/50/96
f 55/49/97 107/45/97 115/50/97
f 67/40/98 50/29/98 97/35/98
f 152/68/173 166/88/173 167/69/173
f 133/71/174 137/74/174 150/72/174
f 137/74/175 133/71/175 139/75/175
f 139/75/176 140/102/176 143/77/176
f 141/76/177 139/75/177 142/78/177
f 143/77/178 146/100/178 145/80/178
f 142/78/179 145/80/179 147/81/179
f 136/82/180 133/71/180 148/73/180
f 148/73/181 150/72/181 138/84/181
f 136/82/182 140/102/182 139/75/182
f 153/70/183 135/101/183 134/85/183
f 168/86/184 155/89/184 151/87/184
f 155/89/185 159/93/185 157/90/185
f 157/90/186 160/94/186 161/91/186
f 159/93/187 162/97/187 160/94/187
f 163/95/188 164/103/188 161/91/188
f 165/96/189 163/95/189 160/94/189
f 154/98/190 167/69/190 166/88/190
f 156/99/191 168/86/191 166/88/191
f 157/90/192 158/92/192 154/98/192
f 146/100/193 164/103/193 163/95/193
f 138/84/194 156/99/194 152/68/194
f 145/80/195 163/95/195 165/96/195
f 137/74/196 155/89/196 168/86/196
f 147/81/197 165/96/197 162/97/197
f 162/97/198 159/93/198 141/76/198
f 141/76/199 159/93/199 155/89/199
f 150/72/200 168/86/200 156/99/200
f 149/83/201 148/73/201 134/85/201
f 182/68/202 153/70/202 167/69/202
f 180/72/203 171/74/203 169/71/203
f 171/74/204 174/76/204 173/75/204
f 173/75/205 175/78/205 143/77/205
f 174/76/206 176/79/206 175/78/206
f 177/80/207 146/100/207 143/77/207
f 178/81/208 177/80/208 175/78/208
f 179/73/209 169/71/209 136/82/209
f 172/84/210 180/72/210 179/73/210
f 173/75/211 140/102/211 136/82/211
f 170/85/212 135/101/212 153/70/212
f 181/87/213 183/89/213 192/86/213
f 183/89/214 181/87/214 185/90/214
f 185/90/215 158/92/215 161/91/215
f 186/93/216 185/90/216 187/94/216
f 161/91/217 164/103/217 189/95/217
f 187/94/218 189/95/218 190/96/218
f 191/88/219 167/69/219 154/98/219
f 191/88/220 192/86/220 184/99/220
f 154/98/221 158/92/221 185/90/221
f 146/100/222 177/80/222 189/95/222
f 172/84/223 170/85/223 182/68/223
f 177/80/224 178/81/224 190/96/224
f 171/74/225 180/72/225 192/86/225
f 178/81/226 176/79/226 188/97/226
f 174/76/227 186/93/227 188/97/227
f 174/76/228 171/74/228 183/89/228
f 180/72/229 172/84/229 184/99/229
f 149/83/230 135/101/230 170/85/230
