# Blender 4.4.0
# www.blender.org
mtllib Tool_Hoe_02.mtl
o Tool_Hoe_02
v 0.010299 1.070907 0.028227
v 0.028227 1.070907 0.010299
v -0.010299 1.070907 0.028227
v -0.028227 1.070907 0.010299
v -0.028227 1.070907 -0.010299
v -0.010299 1.240323 -0.028227
v -0.010299 1.070907 -0.028227
v 0.010299 1.240323 0.028227
v 0.028227 1.240323 -0.010299
v 0.028227 1.070907 -0.010299
v -0.028227 1.240323 0.010299
v 0.010299 1.070907 -0.028227
v 0.010299 1.240323 -0.028227
v 0.028227 1.240323 0.010299
v -0.010299 1.240323 0.028227
v -0.028227 1.240323 -0.010299
v -0.023639 1.241522 -0.008399
v -0.008399 1.241522 -0.023639
v -0.023639 1.241522 0.008399
v -0.008399 1.241522 0.023639
v 0.023639 1.241522 0.008399
v 0.008399 1.241522 0.023639
v 0.023639 1.241522 -0.008399
v 0.008399 1.241522 -0.023639
v -0.008399 0.000000 0.023639
v -0.023639 0.000000 0.008399
v 0.023639 0.000000 0.008399
v 0.008399 0.000000 0.023639
v -0.023639 0.000000 -0.008399
v -0.008399 0.000000 -0.023639
v 0.008399 0.000000 -0.023639
v 0.023639 0.000000 -0.008399
v -0.141217 1.391600 0.251102
v 0.141217 1.391600 0.251102
v 0.000000 1.391603 0.250261
v 0.000000 1.397823 0.074210
v -0.076152 1.397823 0.068308
v -0.134869 1.397839 0.106049
v -0.116980 1.397826 0.075659
v 0.076152 1.397823 0.068308
v 0.134869 1.397839 0.106049
v 0.116980 1.397826 0.075659
v 0.000000 1.388175 0.068843
v -0.074894 1.388175 0.062853
v -0.136883 1.388175 0.105224
v -0.118727 1.388175 0.071037
v 0.074894 1.388175 0.062853
v 0.136884 1.388175 0.105224
v 0.118727 1.388175 0.071037
v -0.011920 1.240851 -0.006673
v -0.011920 1.298100 -0.005619
v -0.011920 1.307811 -0.025454
v -0.011920 1.338094 -0.035248
v -0.011920 1.367565 -0.026045
v -0.011920 1.391506 -0.000811
v -0.011920 1.407596 0.035617
v -0.011920 1.412233 0.080892
v 0.011926 1.240851 -0.006673
v 0.011926 1.298100 -0.005619
v 0.011926 1.307811 -0.025454
v 0.011926 1.338094 -0.035248
v 0.011926 1.367565 -0.026045
v 0.011926 1.391506 -0.000811
v 0.011926 1.407596 0.035617
v 0.011926 1.412233 0.080892
v -0.011920 1.240851 0.006362
v -0.011920 1.304873 0.005518
v -0.011920 1.316202 -0.015479
v -0.011920 1.338094 -0.022213
v -0.011920 1.360635 -0.015005
v -0.011920 1.380581 0.006300
v -0.011920 1.395004 0.038986
v -0.011920 1.399299 0.080892
v 0.011926 1.240851 0.006362
v 0.011926 1.304873 0.005518
v 0.011926 1.316202 -0.015479
v 0.011926 1.338094 -0.022213
v 0.011926 1.360635 -0.015005
v 0.011926 1.380581 0.006300
v 0.011926 1.395004 0.038986
v 0.011926 1.399299 0.080892
v -0.017112 1.396118 0.080181
v 0.017112 1.396118 0.080181
v -0.017112 1.414278 0.080181
v 0.017112 1.414278 0.080181
v -0.017112 1.396118 0.111557
v 0.017112 1.396118 0.111557
v -0.017112 1.414278 0.091532
v 0.017112 1.414278 0.091532
vn -0.0000 -0.0000 1.0000
vn -0.0000 -0.0000 -1.0000
vn 1.0000 -0.0000 -0.0000
vn 0.7071 -0.0000 -0.7071
vn -0.7071 -0.0000 0.7071
vn -1.0000 -0.0000 -0.0000
vn -0.7071 -0.0000 -0.7071
vn 0.7071 -0.0000 0.7071
vn -0.0000 1.0000 -0.0000
vn -0.0000 -1.0000 -0.0000
vn -0.0175 0.9995 0.0268
vn 0.0175 0.9995 0.0268
vn 0.0098 -0.9998 0.0144
vn -0.9778 0.2067 -0.0339
vn -0.0670 0.4977 -0.8648
vn 0.9778 0.2067 -0.0339
vn 0.0670 0.4977 -0.8648
vn 0.8411 0.2176 -0.4952
vn -0.1582 0.4497 -0.8791
vn 0.1582 0.4497 -0.8791
vn -0.8411 0.2176 -0.4952
vn -0.0000 0.7255 -0.6883
vn -0.0000 -0.3077 -0.9515
vn -0.0000 0.0184 -0.9998
vn -0.0000 0.9147 -0.4040
vn -0.0000 0.2981 -0.9545
vn -0.0000 -0.8981 -0.4397
vn -0.0000 -0.7300 0.6834
vn -0.0000 0.2940 0.9558
vn -0.0000 0.0132 0.9999
vn -0.0000 -0.9149 0.4037
vn -0.0000 -0.3046 0.9525
vn -0.0000 0.8801 0.4748
vn -0.0000 -0.9948 0.1020
vn -0.0000 0.9948 -0.1019
vn -0.0000 0.7407 0.6718
vn 0.0027 0.9994 0.0353
vn -0.0002 0.9991 0.0430
vn -0.0000 1.0000 -0.0004
vn 0.0002 0.9991 0.0430
vn -0.0027 0.9994 0.0353
vn -0.0002 -0.9997 0.0235
vn 0.0015 -0.9998 0.0189
vn -0.0098 -0.9998 0.0144
vn 0.0002 -0.9997 0.0235
vn -0.0015 -0.9998 0.0189
vn -0.0697 0.4850 -0.8718
vn 0.0697 0.4850 -0.8718
vn 0.8243 0.3589 -0.4378
vn -0.1620 0.4696 -0.8679
vn 0.1620 0.4696 -0.8679
vn -0.8243 0.3589 -0.4378
vt 0.589258 0.621140
vt 0.589258 0.670096
vt 0.589303 0.621140
vt 0.589303 0.670096
vt 0.589289 0.621140
vt 0.589273 0.670096
vt 0.589273 0.621140
vt 0.589289 0.670096
vt 0.208196 0.810542
vt 0.208021 0.940346
vt 0.208021 0.810542
vt 0.568515 0.810542
vt 0.568673 0.810542
vt 0.569007 0.810542
vt 0.208354 0.810542
vt 0.208196 0.940346
vt 0.208354 0.940346
vt 0.207862 0.810542
vt 0.207862 0.940346
vt 0.574770 0.759515
vt 0.575260 0.778756
vt 0.575896 0.685997
vt 0.576532 0.778756
vt 0.577023 0.759515
vt 0.575271 0.781537
vt 0.574905 0.777365
vt 0.574753 0.759936
vt 0.577039 0.759936
vt 0.576522 0.781537
vt 0.577076 0.685569
vt 0.575896 0.775747
vt 0.574717 0.685569
vt 0.574919 0.775008
vt 0.576888 0.777365
vt 0.576873 0.775008
vt 0.575435 0.779154
vt 0.575454 0.772786
vt 0.575460 0.764946
vt 0.575453 0.756891
vt 0.575439 0.754308
vt 0.575440 0.739079
vt 0.575409 0.783434
vt 0.575430 0.776248
vt 0.575446 0.770942
vt 0.575446 0.759123
vt 0.575451 0.764946
vt 0.575430 0.739079
vt 0.575431 0.756110
vt 0.575406 0.780084
vt 0.575375 0.781227
vt 0.575375 0.784667
vt 0.575376 0.785212
vt 0.575376 0.780381
vt 0.575353 0.780381
vt 0.575368 0.785212
vt 0.568848 0.810542
vt 0.575896 0.778483
s 0
usemtl Texture_Map
f 1/1/1 15/2/1 3/1/1
f 7/3/2 13/4/2 12/3/2
f 10/5/3 14/6/3 2/7/3
f 13/4/4 10/5/4 12/3/4
f 15/2/5 4/7/5 3/1/5
f 4/7/6 16/8/6 5/5/6
f 7/3/7 16/8/7 6/4/7
f 1/1/8 14/6/8 8/2/8
f 8/2/9 14/6/9 9/8/9
f 12/3/10 10/5/10 2/7/10
f 26/9/6 17/10/6 29/11/6
f 30/12/10 32/13/10 28/14/10
f 28/15/8 21/16/8 22/17/8
f 30/18/7 17/10/7 18/19/7
f 20/17/5 26/9/5 25/15/5
f 24/19/4 32/11/4 31/18/4
f 32/11/3 21/16/3 27/9/3
f 30/18/2 24/19/2 31/18/2
f 28/15/1 20/17/1 25/15/1
f 24/19/9 17/10/9 20/17/9
f 41/20/11 40/21/11 35/22/11
f 35/22/12 37/23/12 38/24/12
f 47/25/10 49/26/10 48/27/10
f 45/28/13 44/29/13 35/22/13
f 38/24/14 45/28/14 33/30/14
f 47/25/15 36/31/15 40/21/15
f 34/32/16 48/27/16 41/20/16
f 36/31/17 44/29/17 37/23/17
f 48/27/18 42/33/18 41/20/18
f 37/23/19 46/34/19 39/35/19
f 49/26/20 40/21/20 42/33/20
f 39/35/21 45/28/21 38/24/21
f 55/36/22 62/37/22 54/37/22
f 61/38/23 52/39/23 53/38/23
f 59/40/24 50/41/24 51/40/24
f 56/42/25 63/36/25 55/36/25
f 54/37/26 61/38/26 53/38/26
f 60/39/27 51/40/27 52/39/27
f 71/43/28 78/44/28 79/43/28
f 68/45/29 77/46/29 69/46/29
f 66/47/30 75/48/30 67/48/30
f 72/49/31 79/43/31 80/49/31
f 70/44/32 77/46/32 78/44/32
f 67/48/33 76/45/33 68/45/33
f 73/50/34 80/49/34 81/50/34
f 64/42/3 79/43/3 63/36/3
f 71/43/6 56/42/6 55/36/6
f 65/51/3 80/49/3 64/42/3
f 72/49/6 57/51/6 56/42/6
f 59/40/3 74/47/3 58/41/3
f 66/47/6 51/40/6 50/41/6
f 76/45/3 59/40/3 60/39/3
f 51/40/6 68/45/6 52/39/6
f 61/38/3 76/45/3 60/39/3
f 68/45/6 53/38/6 52/39/6
f 62/37/3 77/46/3 61/38/3
f 69/46/6 54/37/6 53/38/6
f 63/36/3 78/44/3 62/37/3
f 70/44/6 55/36/6 54/37/6
f 57/51/35 64/42/35 56/42/35
f 84/52/2 83/53/2 82/53/2
f 87/54/36 88/55/36 86/54/36
f 82/53/6 88/55/6 84/52/6
f 84/52/9 89/55/9 85/52/9
f 83/53/3 89/55/3 87/54/3
f 1/1/1 8/2/1 15/2/1
f 7/3/2 6/4/2 13/4/2
f 10/5/3 9/8/3 14/6/3
f 13/4/4 9/8/4 10/5/4
f 15/2/5 11/6/5 4/7/5
f 4/7/6 11/6/6 16/8/6
f 7/3/7 5/5/7 16/8/7
f 1/1/8 2/7/8 14/6/8
f 9/8/9 13/4/9 11/6/9
f 13/4/9 6/4/9 11/6/9
f 6/4/9 16/8/9 11/6/9
f 11/6/9 15/2/9 9/8/9
f 15/2/9 8/2/9 9/8/9
f 2/7/10 1/1/10 5/5/10
f 1/1/10 3/1/10 5/5/10
f 3/1/10 4/7/10 5/5/10
f 5/5/10 7/3/10 2/7/10
f 7/3/10 12/3/10 2/7/10
f 26/9/6 19/16/6 17/10/6
f 28/14/10 25/14/10 26/56/10
f 26/56/10 29/13/10 30/12/10
f 30/12/10 31/12/10 32/13/10
f 32/13/10 27/56/10 28/14/10
f 28/14/10 26/56/10 30/12/10
f 28/15/8 27/9/8 21/16/8
f 30/18/7 29/11/7 17/10/7
f 20/17/5 19/16/5 26/9/5
f 24/19/4 23/10/4 32/11/4
f 32/11/3 23/10/3 21/16/3
f 30/18/2 18/19/2 24/19/2
f 28/15/1 22/17/1 20/17/1
f 20/17/9 22/17/9 21/16/9
f 21/16/9 23/10/9 24/19/9
f 24/19/9 18/19/9 17/10/9
f 17/10/9 19/16/9 20/17/9
f 20/17/9 21/16/9 24/19/9
f 36/31/37 35/22/37 40/21/37
f 35/22/38 34/32/38 41/20/38
f 41/20/39 42/33/39 40/21/39
f 38/24/40 33/30/40 35/22/40
f 35/22/41 36/31/41 37/23/41
f 37/23/39 39/35/39 38/24/39
f 34/32/42 35/22/42 48/27/42
f 35/22/43 43/57/43 47/25/43
f 48/27/44 35/22/44 47/25/44
f 35/22/45 33/30/45 45/28/45
f 45/28/10 46/34/10 44/29/10
f 44/29/46 43/57/46 35/22/46
f 47/25/47 43/57/47 36/31/47
f 36/31/48 43/57/48 44/29/48
f 48/27/49 49/26/49 42/33/49
f 37/23/50 44/29/50 46/34/50
f 49/26/51 47/25/51 40/21/51
f 39/35/52 46/34/52 45/28/52
f 55/36/22 63/36/22 62/37/22
f 61/38/23 60/39/23 52/39/23
f 59/40/24 58/41/24 50/41/24
f 56/42/25 64/42/25 63/36/25
f 54/37/26 62/37/26 61/38/26
f 60/39/27 59/40/27 51/40/27
f 71/43/28 70/44/28 78/44/28
f 68/45/29 76/45/29 77/46/29
f 66/47/30 74/47/30 75/48/30
f 72/49/31 71/43/31 79/43/31
f 70/44/32 69/46/32 77/46/32
f 67/48/33 75/48/33 76/45/33
f 73/50/34 72/49/34 80/49/34
f 64/42/3 80/49/3 79/43/3
f 71/43/6 72/49/6 56/42/6
f 65/51/3 81/50/3 80/49/3
f 72/49/6 73/50/6 57/51/6
f 59/40/3 75/48/3 74/47/3
f 66/47/6 67/48/6 51/40/6
f 76/45/3 75/48/3 59/40/3
f 51/40/6 67/48/6 68/45/6
f 61/38/3 77/46/3 76/45/3
f 68/45/6 69/46/6 53/38/6
f 62/37/3 78/44/3 77/46/3
f 69/46/6 70/44/6 54/37/6
f 63/36/3 79/43/3 78/44/3
f 70/44/6 71/43/6 55/36/6
f 57/51/35 65/51/35 64/42/35
f 84/52/2 85/52/2 83/53/2
f 87/54/36 89/55/36 88/55/36
f 82/53/6 86/54/6 88/55/6
f 84/52/9 88/55/9 89/55/9
f 83/53/3 85/52/3 89/55/3
