# Blender 4.4.0
# www.blender.org
mtllib Tool_Scythe_01.mtl
o Tool_Scythe_01
v 0.047942 0.239962 0.003335
v 0.057991 0.229675 0.007491
v 0.060181 0.213790 0.004362
v 0.053041 0.203613 -0.003768
v 0.027608 0.229675 -0.014319
v 0.034674 0.239919 -0.006210
v 0.039753 0.203656 -0.013285
v 0.029872 0.213790 -0.017395
v -0.045829 0.201126 0.103265
v -0.052457 0.191864 0.093979
v -0.023038 0.191864 0.115097
v -0.032701 0.200616 0.112440
v -0.024891 0.166898 0.101559
v -0.019139 0.176953 0.110604
v -0.049448 0.176953 0.088848
v -0.037783 0.166388 0.092056
v 0.037818 0.243871 0.023340
v 0.021181 0.243871 0.006703
v 0.051224 0.243871 0.023340
v 0.067862 0.243871 0.006703
v 0.051224 0.243871 -0.023340
v 0.067862 0.243871 -0.006703
v 0.037818 0.243871 -0.023340
v 0.021181 0.243871 -0.006703
v -0.006703 0.000000 0.023340
v -0.023340 0.000000 0.006703
v 0.023340 0.000000 0.006703
v 0.006703 0.000000 0.023340
v -0.023340 0.000000 -0.006703
v -0.006703 0.000000 -0.023340
v 0.006703 0.000000 -0.023340
v 0.023340 0.000000 -0.006703
v 0.176475 1.475121 0.006703
v 0.193113 1.475121 0.023340
v 0.206519 1.475121 0.023340
v 0.223156 1.475121 0.006703
v 0.193113 1.475121 -0.023340
v 0.176475 1.475121 -0.006703
v 0.223156 1.475121 -0.006703
v 0.206519 1.475121 -0.023340
v 0.143563 1.197347 0.006703
v 0.190244 1.197347 -0.006703
v 0.160201 1.197347 -0.023340
v 0.173607 1.197347 0.023340
v 0.143563 1.197347 -0.006703
v 0.173607 1.197347 -0.023340
v 0.190244 1.197347 0.006703
v 0.160201 1.197347 0.023340
v 0.089333 0.441804 0.006703
v 0.139322 0.722314 0.006703
v 0.136014 0.441804 -0.006703
v 0.186003 0.722314 -0.006703
v 0.105943 0.441686 -0.023340
v 0.155963 0.722343 -0.023340
v 0.119349 0.441686 0.023340
v 0.169369 0.722343 0.023340
v 0.089333 0.441804 -0.006703
v 0.139322 0.722314 -0.006703
v 0.169369 0.722343 -0.023340
v 0.119349 0.441687 -0.023340
v 0.186003 0.722314 0.006703
v 0.136014 0.441804 0.006703
v 0.155963 0.722343 0.023340
v 0.105943 0.441686 0.023340
v 0.208265 1.472890 -0.027985
v 0.228213 1.472890 -0.008037
v 0.172243 1.472890 -0.008037
v 0.192191 1.472890 -0.027985
v 0.228213 1.472890 0.008037
v 0.208265 1.472890 0.027985
v 0.192191 1.472890 0.027985
v 0.172243 1.472890 0.008037
v 0.192191 1.518781 -0.027985
v 0.193927 1.524206 -0.023795
v 0.206529 1.524206 -0.023795
v 0.208265 1.518781 -0.027985
v 0.208265 1.518781 0.027985
v 0.206529 1.524206 0.023795
v 0.193927 1.524206 0.023795
v 0.192191 1.518781 0.027985
v 0.176433 1.524206 0.006301
v 0.172243 1.518781 0.008037
v 0.224023 1.524206 -0.006301
v 0.228213 1.518781 -0.008037
v 0.224023 1.524206 0.006301
v 0.228213 1.518781 0.008037
v 0.176433 1.524206 -0.006301
v 0.172243 1.518781 -0.008037
v 0.185000 1.522419 0.005452
v 0.218265 1.522148 0.005452
v 0.176309 1.535543 0.005452
v 0.210118 1.547221 0.005452
v 0.173727 1.571934 0.005452
v 0.124843 1.502108 0.000000
v 0.123805 1.596103 0.003296
v -0.106348 1.569298 0.000000
v -0.111452 1.638731 0.004213
v 0.002661 1.620343 0.003666
v 0.007297 1.541096 -0.000000
v -0.264107 1.584502 -0.000000
v -0.269133 1.652066 0.004019
v -0.431156 1.559161 0.000000
v -0.436182 1.626162 0.003489
v -0.525200 1.527770 0.000000
v -0.529399 1.595239 0.002596
v -0.639757 1.478419 -0.000000
v -0.606545 1.549596 0.003090
v 0.185000 1.522419 -0.005452
v 0.218265 1.522148 -0.005452
v 0.176309 1.535543 -0.005452
v 0.210118 1.547221 -0.005452
v 0.173727 1.571934 -0.005452
v 0.123805 1.596103 -0.003296
v -0.111452 1.638731 -0.004213
v 0.002661 1.620343 -0.003666
v -0.269133 1.652067 -0.004019
v -0.436182 1.626162 -0.003489
v -0.529399 1.595239 -0.002596
v -0.606545 1.549596 -0.003090
v 0.140538 0.606312 0.008989
v 0.135953 0.595706 0.020551
v 0.128824 0.579214 0.020551
v 0.124239 0.568608 0.008989
v 0.135953 0.595706 -0.020551
v 0.140538 0.606312 -0.008989
v 0.124239 0.568608 -0.008989
v 0.128824 0.579214 -0.020551
v -0.023376 0.674763 -0.008989
v -0.026289 0.663535 -0.020551
v -0.026289 0.663535 0.020551
v -0.023376 0.674763 0.008989
v -0.033730 0.634846 0.008989
v -0.030818 0.646075 0.020551
v -0.030818 0.646075 -0.020551
v -0.033730 0.634846 -0.008989
v 0.168162 1.535000 -0.005452
v 0.006500 1.554715 -0.000630
v -0.264971 1.596113 -0.000691
v -0.432020 1.570675 -0.000600
v -0.525922 1.539365 -0.000446
v -0.634050 1.490651 -0.000531
v 0.124664 1.518261 -0.000566
v -0.107225 1.581230 -0.000724
v 0.168162 1.535000 0.005452
v 0.124664 1.518261 0.000566
v -0.107225 1.581230 0.000724
v 0.006500 1.554715 0.000630
v -0.264971 1.596113 0.000691
v -0.432020 1.570675 0.000600
v -0.525922 1.539365 0.000446
v -0.634050 1.490651 0.000531
vn 0.8024 -0.0069 0.5967
vn -0.5420 -0.3692 0.7550
vn 0.1551 -0.9629 -0.2209
vn -0.8016 0.0015 -0.5979
vn -0.6819 0.6812 -0.2663
vn -0.4562 -0.6785 -0.5758
vn 0.6785 -0.6860 0.2629
vn 0.4538 0.6770 0.5795
vn -0.1647 0.9604 0.2246
vn -0.0000 -0.0000 1.0000
vn -0.9837 0.1796 -0.0000
vn 0.9931 -0.1177 -0.0000
vn -0.0000 -0.0000 -1.0000
vn -0.0000 -1.0000 -0.0000
vn -0.7046 0.0835 -0.7046
vn 0.7013 -0.1280 -0.7013
vn 0.7046 -0.0835 0.7046
vn -0.7013 0.1280 0.7013
vn -0.9931 0.1177 -0.0000
vn -1.0000 0.0089 -0.0000
vn 0.7013 -0.1280 0.7013
vn 1.0000 -0.0089 -0.0000
vn -0.7013 0.1280 -0.7013
vn 0.9837 -0.1796 -0.0000
vn 0.7046 -0.0835 -0.7046
vn -0.7046 0.0835 0.7046
vn 0.9455 -0.3256 -0.0000
vn 0.6870 -0.2366 0.6870
vn -0.6870 0.2366 -0.6870
vn 0.7072 -0.0063 0.7070
vn 0.7071 -0.0063 -0.7071
vn -0.7070 0.0063 -0.7072
vn -0.7071 0.0063 0.7071
vn 0.6873 -0.2366 -0.6868
vn -0.6868 0.2365 0.6873
vn 0.9845 -0.1754 -0.0000
vn -0.7017 0.1250 -0.7014
vn 0.7015 -0.1250 0.7016
vn -0.9845 0.1754 -0.0000
vn 0.7015 -0.1250 -0.7016
vn -0.7017 0.1250 0.7014
vn -0.9455 0.3256 -0.0000
vn -0.7071 -0.0000 -0.7071
vn 1.0000 -0.0000 -0.0000
vn 0.7071 -0.0000 0.7071
vn -0.7071 -0.0000 0.7071
vn -1.0000 -0.0000 -0.0000
vn -0.0000 1.0000 -0.0000
vn 0.7071 -0.0000 -0.7071
vn -0.0000 0.6113 -0.7914
vn -0.0000 0.6113 0.7914
vn -0.5596 0.6113 0.5596
vn 0.5596 0.6113 -0.5596
vn 0.7914 0.6113 -0.0000
vn -0.7914 0.6113 -0.0000
vn 0.5596 0.6113 0.5596
vn -0.5596 0.6113 -0.5596
vn -0.1184 0.0178 0.9928
vn -0.0101 -0.0468 0.9989
vn -0.0060 -0.0610 0.9981
vn 0.0073 -0.0515 0.9986
vn 0.0110 -0.0378 0.9992
vn 0.0257 -0.0553 0.9981
vn -0.0117 -0.0352 0.9993
vn -0.1184 0.0178 -0.9928
vn -0.0101 -0.0468 -0.9989
vn -0.0060 -0.0610 -0.9981
vn 0.0060 -0.0589 -0.9982
vn 0.0075 -0.0514 -0.9986
vn -0.0140 -0.0470 -0.9988
vn -0.8338 -0.5521 -0.0000
vn 0.9511 0.3090 -0.0000
vn 0.5618 0.8273 -0.0000
vn 0.0665 -0.9978 -0.0000
vn 0.6047 -0.7964 -0.0000
vn 0.4358 0.9001 -0.0000
vn 0.1591 0.9873 -0.0000
vn 0.1962 0.9806 -0.0000
vn 0.0843 0.9964 -0.0000
vn -0.1532 0.9882 -0.0000
vn -0.3149 0.9491 -0.0000
vn 0.0281 -0.0367 -0.9989
vn -0.5092 0.8606 -0.0000
vn -0.9680 0.2511 -0.0000
vn -0.3867 -0.9222 -0.0000
vn 0.2728 0.6526 -0.7069
vn -0.2741 -0.6545 -0.7047
vn -0.2735 -0.6523 0.7069
vn 0.2734 0.6547 0.7047
vn 0.3854 0.9228 -0.0000
vn -0.9062 0.4229 -0.0000
vn 0.0176 -0.0373 -0.9991
vn 0.0153 -0.0508 -0.9986
vn 0.0084 -0.0588 -0.9982
vn -0.0059 -0.0610 -0.9981
vn -0.0116 -0.0469 -0.9988
vn -0.0979 -0.0360 -0.9945
vn -0.0103 -0.0352 0.9993
vn 0.0234 -0.0542 0.9983
vn 0.0126 -0.0377 0.9992
vn 0.0078 -0.0514 0.9986
vn -0.0059 -0.0610 0.9981
vn -0.0116 -0.0469 0.9988
vn -0.0979 -0.0360 0.9945
vn -0.0063 -0.0466 -0.9989
vn 0.7944 0.0249 0.6069
vn 0.1872 -0.9613 -0.2023
vn -0.8098 0.0380 -0.5854
vn -0.6629 0.7107 -0.2356
vn -0.4563 -0.6784 -0.5758
vn 0.6945 -0.6584 0.2902
vn 0.4535 0.6772 0.5795
vn -0.1325 0.9609 0.2431
vn 0.6873 -0.2366 0.6868
vn -0.6868 0.2365 -0.6873
vn 0.7071 -0.0063 0.7071
vn 0.7072 -0.0063 -0.7070
vn -0.7071 0.0063 -0.7071
vn -0.7070 0.0063 0.7072
vn 0.6870 -0.2366 -0.6870
vn -0.6870 0.2366 0.6870
vn -0.7016 0.1250 -0.7015
vn 0.7014 -0.1250 0.7017
vn 0.7014 -0.1250 -0.7017
vn -0.7016 0.1250 0.7015
vn -0.0604 -0.0356 0.9975
vn -0.0050 -0.0609 0.9981
vn -0.0063 -0.0598 0.9982
vn 0.0060 -0.0589 0.9982
vn 0.0075 -0.0514 0.9986
vn 0.0281 -0.0367 0.9989
vn -0.0140 -0.0470 0.9988
vn -0.0604 -0.0356 -0.9975
vn -0.0050 -0.0609 -0.9981
vn -0.0063 -0.0598 -0.9982
vn 0.0073 -0.0515 -0.9986
vn 0.0110 -0.0378 -0.9992
vn -0.0117 -0.0352 -0.9993
vn 0.0257 -0.0553 -0.9981
vn 0.2734 0.6547 -0.7047
vn -0.2735 -0.6523 -0.7069
vn -0.2741 -0.6545 0.7047
vn 0.2728 0.6526 0.7069
vn -0.9062 0.4228 -0.0000
vn 0.0234 -0.0542 -0.9983
vn 0.0126 -0.0377 -0.9992
vn 0.0078 -0.0514 -0.9986
vn -0.0059 -0.0598 -0.9982
vn -0.0135 -0.0616 -0.9980
vn -0.0063 -0.0466 0.9989
vn 0.0176 -0.0373 0.9991
vn 0.0153 -0.0508 0.9986
vn 0.0084 -0.0588 0.9982
vn -0.0059 -0.0598 0.9982
vn -0.0135 -0.0616 0.9980
vn -0.0103 -0.0352 -0.9993
vt 0.231425 0.815733
vt 0.231688 0.813447
vt 0.231417 0.815045
vt 0.231641 0.812989
vt 0.231665 0.813011
vt 0.231372 0.814605
vt 0.231396 0.814603
vt 0.231632 0.813447
vt 0.231369 0.815733
vt 0.231361 0.815045
vt 0.231645 0.814094
vt 0.231390 0.816177
vt 0.231699 0.814094
vt 0.231414 0.816179
vt 0.231692 0.814473
vt 0.231465 0.857690
vt 0.231465 0.869734
vt 0.231423 0.805775
vt 0.231389 0.816349
vt 0.231389 0.805775
vt 0.231423 0.857690
vt 0.231389 0.869734
vt 0.231423 0.869734
vt 0.231346 0.857690
vt 0.231346 0.869734
vt 0.231346 0.805775
vt 0.231389 0.857690
vt 0.231346 0.816349
vt 0.231423 0.816349
vt 0.231465 0.805775
vt 0.231465 0.816349
vt 0.231423 0.837093
vt 0.231389 0.837093
vt 0.231389 0.824931
vt 0.231423 0.824931
vt 0.231465 0.824926
vt 0.231346 0.824926
vt 0.231465 0.837095
vt 0.231346 0.837095
vt 0.573410 0.678363
vt 0.573375 0.678363
vt 0.573355 0.678363
vt 0.573390 0.678363
vt 0.573410 0.697969
vt 0.573390 0.697969
vt 0.573375 0.697969
vt 0.573355 0.697969
vt 0.573406 0.700287
vt 0.573389 0.700287
vt 0.573359 0.700287
vt 0.573376 0.700287
vt 0.573377 0.739277
vt 0.573377 0.754825
vt 0.573377 0.739045
vt 0.573382 0.731894
vt 0.573379 0.775507
vt 0.573382 0.758796
vt 0.573382 0.747468
vt 0.573378 0.783363
vt 0.573382 0.765155
vt 0.573379 0.777993
vt 0.573382 0.754287
vt 0.573380 0.764781
vt 0.573382 0.740909
vt 0.573379 0.745281
vt 0.573382 0.720098
vt 0.444161 0.733450
vt 0.444162 0.740822
vt 0.444162 0.728236
vt 0.573388 0.754825
vt 0.573388 0.739277
vt 0.573388 0.739045
vt 0.573383 0.731894
vt 0.573383 0.758796
vt 0.573386 0.775507
vt 0.573383 0.747468
vt 0.573383 0.765155
vt 0.573387 0.783363
vt 0.573386 0.777993
vt 0.573386 0.789061
vt 0.573383 0.754288
vt 0.573385 0.764781
vt 0.444162 0.733450
vt 0.444162 0.745219
vt 0.573388 0.733670
vt 0.573377 0.733670
vt 0.573377 0.733554
vt 0.573388 0.744267
vt 0.573377 0.744267
vt 0.444156 0.738854
vt 0.444167 0.738854
vt 0.573386 0.765151
vt 0.573379 0.765151
vt 0.573379 0.789060
vt 0.573383 0.740910
vt 0.573386 0.745281
vt 0.231458 0.831604
vt 0.231458 0.833788
vt 0.231458 0.830889
vt 0.231383 0.833301
vt 0.231429 0.833301
vt 0.231383 0.830429
vt 0.231429 0.830429
vt 0.231353 0.833788
vt 0.231353 0.831604
vt 0.231353 0.830889
vt 0.231353 0.834545
vt 0.231383 0.832064
vt 0.231458 0.834545
vt 0.231429 0.832064
vt 0.231429 0.835032
vt 0.573383 0.720098
vt 0.444162 0.736520
vt 0.444162 0.724537
vt 0.444162 0.740263
vt 0.444162 0.746654
vt 0.444162 0.750372
vt 0.444162 0.754835
vt 0.444162 0.758584
vt 0.444162 0.753779
vt 0.444162 0.749927
vt 0.444161 0.724537
vt 0.444162 0.720588
vt 0.444161 0.740263
vt 0.444161 0.750371
vt 0.444161 0.753778
vt 0.444161 0.745218
vt 0.231669 0.814495
vt 0.573388 0.733554
vt 0.231383 0.835032
vt 0.573382 0.714872
vt 0.444161 0.758584
s 0
usemtl Texture_Map
f 2/1/1 14/2/1 3/3/1
f 16/4/2 13/5/2 14/2/2
f 13/5/3 7/6/3 4/7/3
f 15/8/4 5/9/4 8/10/4
f 10/11/5 6/12/5 5/9/5
f 8/10/6 16/4/6 15/8/6
f 3/3/7 13/5/7 4/7/7
f 11/13/8 1/14/8 12/15/8
f 6/12/9 12/15/9 1/14/9
f 44/16/10 34/17/10 48/16/10
f 26/18/11 24/19/11 29/20/11
f 47/21/12 39/22/12 36/23/12
f 46/24/13 37/25/13 40/25/13
f 26/18/14 30/26/14 32/20/14
f 38/22/15 43/24/15 45/27/15
f 32/20/16 21/28/16 22/19/16
f 47/21/17 35/17/17 44/16/17
f 18/29/18 25/30/18 17/31/18
f 41/21/19 38/22/19 45/27/19
f 50/32/20 45/27/20 58/33/20
f 27/18/21 19/31/21 28/30/21
f 52/33/22 47/21/22 61/32/22
f 24/19/23 30/26/23 29/20/23
f 31/26/13 23/28/13 21/28/13
f 32/20/24 20/29/24 27/18/24
f 28/30/10 17/31/10 25/30/10
f 42/27/25 40/25/25 39/22/25
f 33/23/26 48/16/26 34/17/26
f 20/29/27 51/34/27 62/35/27
f 20/29/28 55/36/28 19/31/28
f 21/28/13 53/37/13 60/37/13
f 57/34/29 23/28/29 24/19/29
f 19/31/10 64/36/10 17/31/10
f 61/32/30 44/16/30 56/38/30
f 52/33/31 46/24/31 42/27/31
f 45/27/32 54/39/32 58/33/32
f 59/39/13 43/24/13 46/24/13
f 56/38/10 48/16/10 63/38/10
f 41/21/33 63/38/33 48/16/33
f 22/19/34 60/37/34 51/34/34
f 49/35/35 17/31/35 64/36/35
f 63/38/10 55/36/10 56/38/10
f 61/32/36 51/34/36 52/33/36
f 54/39/13 60/37/13 53/37/13
f 58/33/37 53/37/37 57/34/37
f 56/38/38 62/35/38 61/32/38
f 58/33/39 49/35/39 50/32/39
f 51/34/40 59/39/40 52/33/40
f 64/36/41 50/32/41 49/35/41
f 18/29/42 57/34/42 24/19/42
f 65/40/14 69/41/14 71/42/14
f 67/43/43 73/44/43 68/40/43
f 69/41/44 84/45/44 86/46/44
f 71/42/10 77/47/10 80/47/10
f 70/42/45 86/46/45 77/47/45
f 72/41/46 80/47/46 82/46/46
f 67/43/47 82/46/47 88/45/47
f 75/48/48 74/48/48 87/49/48
f 65/40/49 84/45/49 66/43/49
f 74/48/50 76/44/50 73/44/50
f 79/50/51 77/47/51 78/50/51
f 81/51/52 80/47/52 79/50/52
f 75/48/53 84/45/53 76/44/53
f 83/49/54 86/46/54 84/45/54
f 87/49/55 82/46/55 81/51/55
f 78/50/56 86/46/56 85/51/56
f 87/49/57 73/44/57 88/45/57
f 65/40/13 73/44/13 76/44/13
f 91/52/10 93/53/10 144/54/10
f 93/53/58 145/55/58 144/54/58
f 98/56/59 146/57/59 147/58/59
f 97/59/60 148/60/60 146/57/60
f 148/60/61 103/61/61 149/62/61
f 149/62/62 105/63/62 150/64/62
f 150/64/63 107/65/63 151/66/63
f 145/67/64 99/68/64 94/69/64
f 112/70/13 110/71/13 136/72/13
f 142/73/65 112/70/65 136/72/65
f 143/74/66 115/75/66 137/76/66
f 138/77/67 114/78/67 143/74/67
f 138/77/68 117/79/68 116/80/68
f 139/81/69 118/82/69 117/79/69
f 142/83/70 99/68/70 137/84/70
f 91/52/71 108/85/71 89/86/71
f 90/87/72 111/88/72 92/89/72
f 92/89/73 112/70/73 93/53/73
f 91/52/74 136/72/74 110/71/74
f 144/90/75 94/69/75 136/91/75
f 93/53/76 113/92/76 95/93/76
f 98/56/77 114/78/77 97/59/77
f 95/93/78 115/75/78 98/56/78
f 101/94/79 114/78/79 116/80/79
f 101/94/80 117/79/80 103/61/80
f 103/61/81 118/82/81 105/63/81
f 140/95/82 119/96/82 118/82/82
f 107/65/83 118/82/83 119/96/83
f 121/97/10 133/98/10 122/99/10
f 135/100/84 132/101/84 133/98/84
f 132/101/85 126/102/85 123/103/85
f 134/104/13 124/105/13 127/106/13
f 129/107/86 125/108/86 124/105/86
f 127/106/87 135/100/87 134/104/87
f 122/99/88 132/101/88 123/103/88
f 130/109/89 120/110/89 131/111/89
f 125/108/90 131/111/90 120/110/90
f 151/66/91 119/96/91 141/112/91
f 104/113/92 141/114/92 140/115/92
f 102/116/93 140/115/93 139/117/93
f 100/118/94 139/117/94 138/119/94
f 100/118/95 143/120/95 96/121/95
f 96/121/96 137/84/96 99/68/96
f 136/91/97 94/69/97 142/83/97
f 111/88/13 108/85/13 110/71/13
f 89/86/10 92/89/10 91/52/10
f 95/93/98 147/58/98 145/55/98
f 104/113/99 151/122/99 106/123/99
f 102/116/100 150/124/100 104/113/100
f 100/118/101 149/125/101 102/116/101
f 146/126/102 100/118/102 96/121/102
f 147/127/103 96/121/103 99/68/103
f 144/90/104 145/67/104 94/69/104
f 113/92/105 137/76/105 115/75/105
f 2/1/106 11/13/106 14/2/106
f 14/2/2 11/13/2 9/128/2
f 11/13/2 12/15/2 9/128/2
f 9/128/2 10/11/2 15/8/2
f 14/2/2 9/128/2 15/8/2
f 15/8/2 16/4/2 14/2/2
f 13/5/107 16/4/107 7/6/107
f 15/8/108 10/11/108 5/9/108
f 10/11/109 9/128/109 6/12/109
f 8/10/110 7/6/110 16/4/110
f 3/3/111 14/2/111 13/5/111
f 11/13/112 2/1/112 1/14/112
f 6/12/113 9/128/113 12/15/113
f 44/16/10 35/17/10 34/17/10
f 26/18/11 18/29/11 24/19/11
f 47/21/12 42/27/12 39/22/12
f 46/24/13 43/24/13 37/25/13
f 28/30/14 25/30/14 26/18/14
f 26/18/14 29/20/14 30/26/14
f 30/26/14 31/26/14 32/20/14
f 32/20/14 27/18/14 28/30/14
f 28/30/14 26/18/14 32/20/14
f 38/22/15 37/25/15 43/24/15
f 32/20/16 31/26/16 21/28/16
f 47/21/17 36/23/17 35/17/17
f 18/29/18 26/18/18 25/30/18
f 41/21/19 33/23/19 38/22/19
f 50/32/20 41/21/20 45/27/20
f 27/18/21 20/29/21 19/31/21
f 52/33/22 42/27/22 47/21/22
f 24/19/23 23/28/23 30/26/23
f 31/26/13 30/26/13 23/28/13
f 32/20/24 22/19/24 20/29/24
f 28/30/10 19/31/10 17/31/10
f 42/27/25 46/24/25 40/25/25
f 33/23/26 41/21/26 48/16/26
f 20/29/27 22/19/27 51/34/27
f 20/29/114 62/35/114 55/36/114
f 21/28/13 23/28/13 53/37/13
f 57/34/115 53/37/115 23/28/115
f 19/31/10 55/36/10 64/36/10
f 61/32/116 47/21/116 44/16/116
f 52/33/117 59/39/117 46/24/117
f 45/27/118 43/24/118 54/39/118
f 59/39/13 54/39/13 43/24/13
f 56/38/10 44/16/10 48/16/10
f 41/21/119 50/32/119 63/38/119
f 22/19/120 21/28/120 60/37/120
f 49/35/121 18/29/121 17/31/121
f 63/38/10 64/36/10 55/36/10
f 61/32/36 62/35/36 51/34/36
f 54/39/13 59/39/13 60/37/13
f 58/33/122 54/39/122 53/37/122
f 56/38/123 55/36/123 62/35/123
f 58/33/39 57/34/39 49/35/39
f 51/34/124 60/37/124 59/39/124
f 64/36/125 63/38/125 50/32/125
f 18/29/42 49/35/42 57/34/42
f 71/42/14 72/41/14 67/43/14
f 67/43/14 68/40/14 65/40/14
f 65/40/14 66/43/14 69/41/14
f 69/41/14 70/42/14 71/42/14
f 71/42/14 67/43/14 65/40/14
f 67/43/43 88/45/43 73/44/43
f 69/41/44 66/43/44 84/45/44
f 71/42/10 70/42/10 77/47/10
f 70/42/45 69/41/45 86/46/45
f 72/41/46 71/42/46 80/47/46
f 67/43/47 72/41/47 82/46/47
f 87/49/48 81/51/48 85/51/48
f 81/51/48 79/50/48 85/51/48
f 79/50/48 78/50/48 85/51/48
f 85/51/48 83/49/48 87/49/48
f 83/49/48 75/48/48 87/49/48
f 65/40/49 76/44/49 84/45/49
f 74/48/50 75/48/50 76/44/50
f 79/50/51 80/47/51 77/47/51
f 81/51/52 82/46/52 80/47/52
f 75/48/53 83/49/53 84/45/53
f 83/49/54 85/51/54 86/46/54
f 87/49/55 88/45/55 82/46/55
f 78/50/56 77/47/56 86/46/56
f 87/49/57 74/48/57 73/44/57
f 65/40/13 68/40/13 73/44/13
f 91/52/10 92/89/10 93/53/10
f 93/53/126 95/93/126 145/55/126
f 98/56/127 97/59/127 146/57/127
f 97/59/128 101/94/128 148/60/128
f 148/60/129 101/94/129 103/61/129
f 149/62/130 103/61/130 105/63/130
f 150/64/131 105/63/131 107/65/131
f 145/67/132 147/127/132 99/68/132
f 112/70/13 111/88/13 110/71/13
f 142/73/133 113/92/133 112/70/133
f 143/74/134 114/78/134 115/75/134
f 138/77/135 116/80/135 114/78/135
f 138/77/136 139/81/136 117/79/136
f 139/81/137 140/95/137 118/82/137
f 142/83/138 94/69/138 99/68/138
f 91/52/71 110/71/71 108/85/71
f 90/87/72 109/129/72 111/88/72
f 92/89/73 111/88/73 112/70/73
f 91/52/74 144/54/74 136/72/74
f 93/53/76 112/70/76 113/92/76
f 98/56/77 115/75/77 114/78/77
f 95/93/78 113/92/78 115/75/78
f 101/94/79 97/59/79 114/78/79
f 101/94/80 116/80/80 117/79/80
f 103/61/81 117/79/81 118/82/81
f 140/95/139 141/112/139 119/96/139
f 107/65/83 105/63/83 118/82/83
f 121/97/10 130/109/10 133/98/10
f 133/98/84 130/109/84 129/107/84
f 130/109/84 131/111/84 129/107/84
f 131/111/84 128/130/84 129/107/84
f 129/107/84 134/104/84 133/98/84
f 134/104/84 135/100/84 133/98/84
f 132/101/85 135/100/85 126/102/85
f 134/104/13 129/107/13 124/105/13
f 129/107/140 128/130/140 125/108/140
f 127/106/141 126/102/141 135/100/141
f 122/99/142 133/98/142 132/101/142
f 130/109/143 121/97/143 120/110/143
f 125/108/90 128/130/90 131/111/90
f 141/112/144 106/131/144 151/66/144
f 151/66/144 107/65/144 119/96/144
f 104/113/145 106/123/145 141/114/145
f 102/116/146 104/113/146 140/115/146
f 100/118/147 102/116/147 139/117/147
f 100/118/148 138/119/148 143/120/148
f 96/121/149 143/120/149 137/84/149
f 111/88/13 109/129/13 108/85/13
f 89/86/10 90/87/10 92/89/10
f 95/93/150 98/56/150 147/58/150
f 104/113/151 150/124/151 151/122/151
f 102/116/152 149/125/152 150/124/152
f 100/118/153 148/132/153 149/125/153
f 146/126/154 148/132/154 100/118/154
f 147/127/155 146/126/155 96/121/155
f 113/92/156 142/73/156 137/76/156
