# Blender 4.4.0
# www.blender.org
mtllib Tool_Hoe_01.mtl
o Tool_Hoe_01
v -0.013805 1.228079 -0.031055
v -0.031056 1.228079 -0.013804
v 0.031054 1.237635 -0.013804
v 0.013803 1.228079 -0.031055
v -0.031056 1.240425 0.013804
v -0.013804 1.240425 0.031055
v 0.013803 1.240425 0.031055
v 0.031054 1.240425 0.013804
v -0.031055 -0.000000 -0.013804
v -0.013804 -0.000000 -0.031055
v 0.013804 0.000000 -0.031055
v 0.031055 0.000000 -0.013804
v -0.013804 -0.000000 0.031055
v -0.031055 -0.000000 0.013804
v 0.031055 0.000000 0.013804
v 0.013804 0.000000 0.031055
v 0.031054 1.045917 -0.013804
v 0.031054 1.217566 -0.013804
v 0.013803 1.217566 -0.031055
v 0.013803 1.045917 -0.031055
v 0.031054 1.217566 0.013804
v 0.031054 1.129357 0.013804
v 0.013803 1.129357 0.031055
v 0.013803 1.217566 0.031055
v -0.013804 1.217566 -0.031055
v -0.013804 1.045917 -0.031055
v -0.031056 1.217566 -0.013804
v -0.031055 1.045917 -0.013804
v -0.013804 1.129357 0.031055
v -0.013804 1.217566 0.031055
v -0.031055 1.129357 0.013804
v -0.031056 1.217566 0.013804
v -0.016573 1.217566 -0.037738
v 0.016571 1.217566 -0.037738
v 0.037737 1.217566 -0.016572
v 0.037737 1.217711 0.016572
v 0.037737 1.129357 0.016572
v 0.037737 1.045917 -0.016572
v 0.016571 1.045917 -0.037738
v -0.016572 1.045917 -0.037738
v -0.016572 1.129357 0.037738
v -0.016572 1.217711 0.037738
v -0.037738 1.045917 -0.016572
v -0.037738 1.129357 0.016572
v 0.016571 1.129357 0.037738
v -0.037738 1.217566 -0.016572
v -0.037738 1.217711 0.016572
v 0.016571 1.217711 0.037738
v 0.037737 1.201651 0.016572
v 0.037737 1.196944 -0.016572
v 0.016571 1.196944 -0.037738
v -0.016572 1.196944 -0.037738
v -0.016572 1.201651 0.037738
v -0.037738 1.196944 -0.016572
v -0.037738 1.201651 0.016572
v 0.016571 1.201651 0.037738
v 0.062763 1.205573 0.047755
v 0.062763 1.213790 0.047755
v -0.027562 1.205573 0.084910
v -0.027562 1.213790 0.084910
v -0.062765 1.213790 0.047755
v -0.062765 1.205573 0.047755
v 0.027561 1.213790 0.084910
v 0.027561 1.205573 0.084910
v 0.109424 1.217712 0.236380
v -0.048053 1.217711 0.236380
v -0.109426 1.217711 0.236380
v 0.048051 1.217711 0.236380
v -0.043672 1.213859 0.162086
v -0.099449 1.213859 0.140627
v 0.099447 1.213859 0.140627
v 0.099447 1.205503 0.140627
v -0.043672 1.205503 0.162086
v -0.099449 1.205503 0.140627
v 0.043670 1.205503 0.162086
v 0.043670 1.213859 0.162086
vn -0.1000 0.9899 -0.1000
vn -0.0000 -1.0000 -0.0000
vn -0.0000 -0.0000 -1.0000
vn -0.7071 -0.0000 0.7071
vn -1.0000 -0.0000 -0.0000
vn -0.7071 -0.0000 -0.7071
vn -0.0000 -0.0000 1.0000
vn 1.0000 -0.0000 -0.0000
vn 0.7071 -0.0000 -0.7071
vn 0.7071 -0.0000 0.7071
vn -0.7799 -0.0000 -0.6259
vn 0.0694 0.9952 0.0694
vn -0.3660 -0.2923 0.8835
vn -0.0000 1.0000 -0.0000
vn -0.0000 0.9998 -0.0217
vn -0.0154 0.9998 -0.0154
vn 0.0199 0.9998 -0.0044
vn 0.0154 0.9998 -0.0154
vn -0.0694 -0.9952 0.0694
vn -0.0468 -0.9915 0.1215
vn 0.9946 -0.0000 -0.1036
vn -0.0000 0.9987 -0.0518
vn 0.7799 -0.0000 -0.6259
vn -0.0000 0.9966 0.0828
vn 0.0701 -0.9953 0.0664
vn -0.0000 -0.9966 0.0829
vn -0.0701 0.9953 0.0664
vn -0.0000 -0.9868 0.1621
vn -0.0149 0.9991 -0.0386
vn -0.9946 -0.0000 -0.1036
vn -0.0000 1.0000 -0.0009
vn -0.0003 -1.0000 -0.0008
vn -0.9301 -0.0000 -0.3674
vn -0.0006 1.0000 -0.0005
vn -0.0000 -1.0000 -0.0009
vn 0.0003 1.0000 -0.0008
vn 0.9301 -0.0000 -0.3674
vn 0.0006 -1.0000 -0.0005
vn -0.0000 0.8748 -0.4845
vn -0.3779 0.8452 -0.3779
vn -0.0888 0.9511 -0.2959
vn 0.0208 0.9983 -0.0541
vn 0.0701 0.9953 0.0664
vn 0.3593 -0.3445 0.8673
vn -0.0199 0.9998 -0.0044
vn -0.0701 -0.9953 0.0664
vn 0.0149 0.9991 -0.0386
vn -0.0000 0.9966 0.0829
vn 0.0694 -0.9952 0.0694
vn -0.0694 0.9952 0.0694
vn -0.0000 -0.9868 0.1622
vn 0.0468 -0.9915 0.1215
vn -0.0006 -1.0000 -0.0005
vn -0.0003 1.0000 -0.0008
vn 0.0006 1.0000 -0.0005
vn 0.0003 -1.0000 -0.0008
vt 0.595209 0.893879
vt 0.595099 0.893879
vt 0.594922 0.893699
vt 0.595209 0.814195
vt 0.595099 0.814195
vt 0.594922 0.814195
vt 0.594812 0.814195
vt 0.594812 0.893086
vt 0.594922 0.893086
vt 0.475434 0.759584
vt 0.475434 0.771516
vt 0.475609 0.751965
vt 0.475609 0.779135
vt 0.476056 0.771516
vt 0.475882 0.779135
vt 0.475228 0.748359
vt 0.476056 0.759584
vt 0.475882 0.751965
vt 0.476262 0.748359
vt 0.476001 0.770519
vt 0.476001 0.760581
vt 0.475859 0.754371
vt 0.475632 0.776729
vt 0.475859 0.776729
vt 0.475489 0.770519
vt 0.475632 0.754371
vt 0.475489 0.760581
vt 0.475386 0.707202
vt 0.474844 0.680457
vt 0.474926 0.714927
vt 0.476564 0.714927
vt 0.476646 0.680457
vt 0.475350 0.680457
vt 0.475972 0.734984
vt 0.475518 0.734984
vt 0.476141 0.680457
vt 0.476105 0.707202
s 0
usemtl Texture_Map
f 7/1/1 8/2/1 3/3/1
f 13/4/2 14/5/2 12/6/2
f 10/7/3 4/8/3 11/7/3
f 14/5/4 6/1/4 5/2/4
f 2/9/5 14/5/5 5/2/5
f 2/9/6 10/7/6 9/6/6
f 7/1/7 13/4/7 16/4/7
f 3/3/8 15/5/8 12/6/8
f 12/6/9 4/8/9 3/3/9
f 15/5/10 7/1/10 16/4/10
f 55/10/5 46/11/5 54/11/5
f 53/12/4 44/10/4 41/12/4
f 54/11/6 33/13/6 52/13/6
f 50/14/9 39/15/9 51/15/9
f 47/10/11 62/16/11 61/16/11
f 49/17/8 35/14/8 36/17/8
f 48/18/12 58/19/12 36/17/12
f 52/13/3 34/15/3 51/15/3
f 17/20/13 37/17/13 22/21/13
f 22/21/2 45/18/2 23/22/2
f 26/23/2 43/11/2 40/13/2
f 18/20/14 34/15/14 19/24/14
f 25/23/14 46/11/14 27/25/14
f 24/22/15 42/12/15 48/18/15
f 29/26/2 44/10/2 31/27/2
f 21/21/16 48/18/16 36/17/16
f 32/27/17 46/11/17 47/10/17
f 31/27/13 43/11/13 28/25/13
f 23/22/2 41/12/2 29/26/2
f 25/23/14 34/15/14 33/13/14
f 26/23/2 39/15/2 20/24/2
f 17/20/2 39/15/2 38/14/2
f 21/21/14 35/14/14 18/20/14
f 32/27/18 42/12/18 30/26/18
f 40/13/3 51/15/3 39/15/3
f 41/12/7 56/18/7 53/12/7
f 37/17/8 50/14/8 49/17/8
f 45/18/10 49/17/10 56/18/10
f 35/14/9 51/15/9 34/15/9
f 43/11/6 52/13/6 40/13/6
f 53/12/19 62/16/19 55/10/19
f 44/10/5 54/11/5 43/11/5
f 73/28/20 67/29/20 74/30/20
f 72/31/21 71/31/21 65/32/21
f 69/28/22 67/29/22 66/33/22
f 49/17/23 58/19/23 57/19/23
f 42/12/24 63/34/24 48/18/24
f 56/18/25 57/19/25 64/34/25
f 53/12/26 64/34/26 59/35/26
f 42/12/27 61/16/27 60/35/27
f 73/28/28 68/36/28 66/33/28
f 76/37/29 65/32/29 71/31/29
f 70/30/30 74/30/30 67/29/30
f 75/37/28 65/32/28 68/36/28
f 69/28/22 68/36/22 76/37/22
f 60/35/31 76/37/31 63/34/31
f 64/34/32 72/31/32 75/37/32
f 61/16/33 74/30/33 70/30/33
f 63/34/34 71/31/34 58/19/34
f 59/35/35 75/37/35 73/28/35
f 60/35/36 70/30/36 69/28/36
f 57/19/37 71/31/37 72/31/37
f 59/35/38 74/30/38 62/16/38
f 4/8/39 1/8/39 3/3/39
f 1/8/40 2/9/40 5/2/40
f 3/3/41 1/8/41 5/2/41
f 5/2/14 6/1/14 7/1/14
f 3/3/42 5/2/42 7/1/42
f 14/5/2 9/6/2 10/7/2
f 10/7/2 11/7/2 14/5/2
f 11/7/2 12/6/2 14/5/2
f 12/6/2 15/5/2 16/4/2
f 16/4/2 13/4/2 12/6/2
f 10/7/3 1/8/3 4/8/3
f 14/5/4 13/4/4 6/1/4
f 2/9/5 9/6/5 14/5/5
f 2/9/6 1/8/6 10/7/6
f 7/1/7 6/1/7 13/4/7
f 3/3/8 8/2/8 15/5/8
f 12/6/9 11/7/9 4/8/9
f 15/5/10 8/2/10 7/1/10
f 55/10/5 47/10/5 46/11/5
f 53/12/4 55/10/4 44/10/4
f 54/11/6 46/11/6 33/13/6
f 50/14/9 38/14/9 39/15/9
f 47/10/11 55/10/11 62/16/11
f 49/17/8 50/14/8 35/14/8
f 48/18/43 63/34/43 58/19/43
f 52/13/3 33/13/3 34/15/3
f 17/20/44 38/14/44 37/17/44
f 22/21/2 37/17/2 45/18/2
f 26/23/2 28/25/2 43/11/2
f 18/20/14 35/14/14 34/15/14
f 25/23/14 33/13/14 46/11/14
f 24/22/15 30/26/15 42/12/15
f 29/26/2 41/12/2 44/10/2
f 21/21/16 24/22/16 48/18/16
f 32/27/14 27/25/14 46/11/14
f 31/27/44 44/10/44 43/11/44
f 23/22/2 45/18/2 41/12/2
f 25/23/14 19/24/14 34/15/14
f 26/23/2 40/13/2 39/15/2
f 17/20/2 20/24/2 39/15/2
f 21/21/45 36/17/45 35/14/45
f 32/27/18 47/10/18 42/12/18
f 40/13/3 52/13/3 51/15/3
f 41/12/7 45/18/7 56/18/7
f 37/17/8 38/14/8 50/14/8
f 45/18/10 37/17/10 49/17/10
f 35/14/9 50/14/9 51/15/9
f 43/11/6 54/11/6 52/13/6
f 53/12/46 59/35/46 62/16/46
f 44/10/5 55/10/5 54/11/5
f 73/28/28 66/33/28 67/29/28
f 69/28/47 70/30/47 67/29/47
f 49/17/23 36/17/23 58/19/23
f 42/12/48 60/35/48 63/34/48
f 56/18/49 49/17/49 57/19/49
f 53/12/26 56/18/26 64/34/26
f 42/12/50 47/10/50 61/16/50
f 73/28/51 75/37/51 68/36/51
f 76/37/22 68/36/22 65/32/22
f 75/37/52 72/31/52 65/32/52
f 69/28/22 66/33/22 68/36/22
f 60/35/31 69/28/31 76/37/31
f 64/34/53 57/19/53 72/31/53
f 61/16/33 62/16/33 74/30/33
f 63/34/54 76/37/54 71/31/54
f 59/35/35 64/34/35 75/37/35
f 60/35/55 61/16/55 70/30/55
f 57/19/37 58/19/37 71/31/37
f 59/35/56 73/28/56 74/30/56
