# Blender 4.4.0
# www.blender.org
mtllib Tool_Hand_Scythe_01.mtl
o Tool_Hand_Scythe_01
v -0.009916 0.221363 0.002568
v 0.015681 0.221363 0.002568
v -0.011411 0.241342 -0.000000
v 0.000277 0.257069 -0.000000
v 0.061118 0.280301 0.002568
v 0.030404 0.320844 -0.000000
v 0.076649 0.336023 0.002568
v 0.031380 0.362011 -0.000000
v 0.070454 0.390962 0.002568
v 0.027957 0.381900 -0.000000
v 0.032893 0.454151 0.002568
v -0.000409 0.428656 -0.000000
v -0.031665 0.496642 0.002568
v -0.048534 0.461052 -0.000000
v -0.108740 0.510164 0.002568
v -0.118238 0.473649 -0.000000
v -0.188009 0.489857 0.002568
v -0.207871 0.470806 -0.000000
v -0.163217 0.472358 -0.000000
v -0.151465 0.504060 0.002568
v -0.009916 0.221363 -0.002569
v 0.015681 0.221363 -0.002569
v 0.061118 0.280301 -0.002569
v 0.076649 0.336023 -0.002569
v 0.070454 0.390962 -0.002569
v 0.032893 0.454151 -0.002569
v -0.031665 0.496642 -0.002569
v -0.108740 0.510164 -0.002569
v -0.188009 0.489857 -0.002569
v -0.151465 0.504060 -0.002569
v 0.013774 0.405278 -0.000000
v 0.053956 0.423655 0.002568
v 0.053956 0.423655 -0.002569
v -0.083386 0.467351 -0.000000
v -0.070202 0.506141 0.002568
v -0.070202 0.506141 -0.002569
v -0.024472 0.444854 -0.000000
v 0.001899 0.477289 0.002568
v 0.001899 0.477289 -0.002569
v 0.015340 0.288957 -0.000000
v 0.039244 0.250258 0.002568
v 0.039244 0.250258 -0.002569
v 0.020470 0.100292 -0.005806
v 0.005806 0.100292 -0.020470
v 0.020470 0.100292 0.005806
v 0.005806 0.100292 0.020470
v -0.020470 0.100292 0.005806
v -0.005806 0.100292 0.020470
v -0.020470 0.100292 -0.005806
v -0.005806 0.100292 -0.020470
v -0.019203 0.202804 0.007935
v -0.007935 0.202804 0.019203
v 0.007935 0.202804 0.019203
v 0.019203 0.202804 0.007935
v -0.007935 0.202804 -0.019203
v -0.019203 0.202804 -0.007935
v 0.019203 0.202804 -0.007935
v 0.007935 0.202804 -0.019203
v 0.007935 0.221976 -0.019203
v 0.019203 0.221976 -0.007935
v -0.007935 0.221976 0.019203
v -0.019203 0.221976 0.007935
v 0.019203 0.221976 0.007935
v 0.007935 0.221976 0.019203
v -0.019203 0.221976 -0.007935
v -0.007935 0.221976 -0.019203
v 0.006491 0.212390 -0.015708
v 0.015708 0.212390 -0.006491
v -0.006491 0.212390 -0.015708
v 0.006491 0.212390 0.015708
v -0.006491 0.212390 0.015708
v -0.015708 0.212390 -0.006491
v -0.015708 0.212390 0.006491
v 0.015708 0.212390 0.006491
v -0.009243 -0.000000 0.022381
v -0.011267 0.003457 0.027604
v -0.022381 -0.000000 0.009243
v -0.027604 0.003457 0.011267
v 0.022381 -0.000000 0.009243
v 0.027604 0.003457 0.011267
v 0.009243 -0.000000 0.022381
v 0.011267 0.003457 0.027604
v -0.022381 0.000000 -0.009243
v -0.027604 0.003457 -0.011267
v -0.009243 0.000000 -0.022381
v -0.011267 0.003457 -0.027604
v 0.009243 0.000000 -0.022381
v 0.011267 0.003457 -0.027604
v 0.022381 0.000000 -0.009243
v 0.027604 0.003457 -0.011267
v -0.022381 0.203747 0.009243
v -0.027604 0.198070 0.011267
v -0.009243 0.203747 0.022381
v -0.011267 0.198070 0.027604
v 0.009243 0.203747 0.022381
v 0.011267 0.198070 0.027604
v 0.022381 0.203747 0.009243
v 0.027604 0.198070 0.011267
v -0.009243 0.203747 -0.022381
v -0.011267 0.198070 -0.027604
v -0.022381 0.203747 -0.009243
v -0.027604 0.198070 -0.011267
v 0.022381 0.203747 -0.009243
v 0.027604 0.198070 -0.011267
v 0.009243 0.203747 -0.022381
v 0.011267 0.198070 -0.027604
v 0.002983 0.250796 -0.000452
v -0.161153 0.477927 -0.000452
v 0.039333 0.357446 -0.000452
v 0.035423 0.383492 -0.000452
v 0.005441 0.433135 -0.000452
v -0.045571 0.467304 -0.000452
v -0.116569 0.480064 -0.000452
v -0.204382 0.474152 -0.000452
v -0.011148 0.237832 -0.000452
v 0.035800 0.313722 -0.000452
v 0.020833 0.408507 -0.000452
v -0.081070 0.474165 -0.000452
v -0.019839 0.450552 -0.000452
v 0.019540 0.282158 -0.000452
v -0.011148 0.237832 0.000451
v 0.002983 0.250796 0.000451
v 0.035800 0.313722 0.000451
v 0.039333 0.357446 0.000451
v 0.035423 0.383492 0.000451
v 0.005441 0.433135 0.000451
v -0.045571 0.467304 0.000451
v -0.116569 0.480064 0.000451
v -0.204382 0.474152 0.000451
v -0.161153 0.477927 0.000451
v 0.020833 0.408507 0.000451
v -0.081070 0.474165 0.000451
v -0.019839 0.450552 0.000451
v 0.019540 0.282158 0.000451
vn -0.1089 0.1187 0.9869
vn -0.0497 0.0256 0.9984
vn -0.0585 -0.0088 0.9983
vn -0.0521 -0.0325 0.9981
vn -0.0358 -0.0550 0.9978
vn -0.0112 -0.0673 0.9977
vn 0.0128 -0.1467 0.9891
vn 0.0039 -0.0822 0.9966
vn -0.1089 0.1187 -0.9869
vn -0.9972 -0.0746 -0.0000
vn -0.0541 0.0044 0.9985
vn -0.0492 0.0358 -0.9981
vn -0.0606 -0.0068 -0.9981
vn -0.0485 -0.0335 -0.9983
vn -0.0310 -0.0538 -0.9981
vn -0.0067 -0.0638 -0.9979
vn 0.0366 -0.0942 -0.9949
vn 0.7750 -0.6320 -0.0000
vn 0.0104 -0.0729 -0.9973
vn 0.9937 0.1120 -0.0000
vn 0.8928 0.4505 -0.0000
vn 0.5982 0.8013 -0.0000
vn 0.2393 0.9709 -0.0000
vn -0.0610 0.0170 -0.9980
vn -0.3623 0.9321 -0.0000
vn -0.1414 0.9899 -0.0000
vn 0.8228 0.5683 -0.0000
vn -0.6922 0.7217 -0.0000
vn -0.0504 -0.0294 0.9983
vn 0.1038 0.9946 -0.0000
vn -0.0545 -0.0275 -0.9981
vn -0.0120 -0.0620 0.9980
vn 0.4995 0.8663 -0.0000
vn -0.0159 -0.0645 -0.9978
vn -0.0349 -0.0507 0.9981
vn 0.8084 -0.5886 -0.0000
vn -0.0380 -0.0509 -0.9980
vn -0.0578 0.0305 0.9979
vn 0.9633 -0.2685 -0.0000
vn -0.0000 -1.0000 -0.0000
vn 0.7042 -0.0907 0.7042
vn 0.7042 -0.0907 -0.7042
vn -0.0000 -0.0728 0.9973
vn -0.7042 -0.0907 -0.7042
vn -0.7041 0.0916 -0.7041
vn -0.0000 1.0000 -0.0000
vn -0.9973 0.0735 -0.0000
vn 0.7041 0.0916 -0.7041
vn 0.9973 0.0735 -0.0000
vn -0.9973 -0.0728 -0.0000
vn -0.0000 0.0735 -0.9973
vn -0.7042 -0.0907 0.7042
vn 0.9973 -0.0728 -0.0000
vn -0.0000 0.0735 0.9973
vn -0.0000 -0.0728 -0.9973
vn 0.7041 0.0916 0.7041
vn 0.6644 -0.3423 -0.6644
vn -0.0000 -0.3426 -0.9395
vn -0.0000 -0.3426 0.9395
vn -0.6644 -0.3423 -0.6644
vn -0.6644 -0.3423 0.6644
vn 0.9395 -0.3426 -0.0000
vn -0.9395 -0.3426 -0.0000
vn 0.6644 -0.3423 0.6644
vn 0.6644 0.3423 0.6644
vn -0.9395 0.3426 -0.0000
vn 0.9395 0.3426 -0.0000
vn -0.6644 0.3423 0.6644
vn -0.6644 0.3423 -0.6644
vn -0.0000 0.3426 0.9395
vn -0.0000 0.3426 -0.9395
vn 0.6644 0.3423 -0.6644
vn 0.5249 0.6701 -0.5249
vn 0.3954 -0.8290 0.3954
vn -0.5249 0.6701 0.5249
vn -0.3954 -0.8290 -0.3954
vn 0.3954 -0.8290 -0.3954
vn 0.5249 0.6701 0.5249
vn -0.3954 -0.8290 0.3954
vn -0.5249 0.6701 -0.5249
vn -0.5519 -0.8339 -0.0000
vn -0.0000 -0.8339 0.5519
vn -0.0000 -0.8339 -0.5519
vn 0.5519 -0.8339 -0.0000
vn -0.7359 0.6771 -0.0000
vn -0.0000 0.6771 0.7359
vn 0.7359 0.6771 -0.0000
vn -0.0000 0.6771 -0.7359
vn -0.7041 0.0916 0.7041
vn -0.0747 0.0394 -0.9964
vn -0.0365 -0.0529 -0.9979
vn -0.0127 -0.0660 -0.9977
vn -0.0537 -0.0313 -0.9981
vn -0.0754 0.0061 -0.9971
vn 0.0034 -0.0711 -0.9975
vn 0.0073 -0.0834 -0.9965
vn -0.0104 -0.0626 -0.9980
vn -0.0344 -0.0511 -0.9981
vn -0.0496 -0.0310 -0.9983
vn -0.0620 -0.0093 -0.9980
vn -0.0585 0.0301 -0.9978
vn -0.0575 0.0469 -0.9972
vn -0.0608 0.0287 0.9977
vn -0.0344 -0.0511 0.9981
vn -0.0113 -0.0623 0.9980
vn -0.0500 -0.0303 0.9983
vn -0.0559 0.0013 0.9984
vn 0.0023 -0.0816 0.9967
vn 0.0048 -0.1385 0.9903
vn -0.0121 -0.0670 0.9977
vn -0.0526 -0.0319 0.9981
vn -0.0582 -0.0100 0.9983
vn -0.0514 0.0243 0.9984
vn -0.0000 0.1275 0.9918
vn -0.0000 0.1275 -0.9918
vn -0.0611 0.0454 0.9971
vn -0.0492 0.0358 0.9981
vn -0.0606 -0.0068 0.9981
vn -0.0485 -0.0335 0.9983
vn -0.0310 -0.0538 0.9981
vn -0.0067 -0.0638 0.9979
vn 0.0366 -0.0942 0.9949
vn 0.0104 -0.0729 0.9973
vn -0.0611 0.0454 -0.9971
vn -0.0610 0.0170 0.9980
vn -0.0497 0.0256 -0.9984
vn -0.0585 -0.0088 -0.9983
vn -0.0521 -0.0325 -0.9981
vn -0.0358 -0.0550 -0.9978
vn -0.0112 -0.0673 -0.9977
vn 0.0128 -0.1467 -0.9891
vn 0.0039 -0.0822 -0.9966
vn -0.0541 0.0044 -0.9985
vn -0.0545 -0.0275 0.9981
vn -0.0504 -0.0294 -0.9983
vn -0.0159 -0.0645 0.9978
vn -0.0120 -0.0620 -0.9980
vn -0.0380 -0.0509 0.9980
vn -0.0349 -0.0507 -0.9981
vn -0.0575 0.0469 0.9972
vn -0.0608 0.0287 -0.9977
vn -0.0113 -0.0623 -0.9980
vn -0.0500 -0.0303 -0.9983
vn -0.0559 0.0013 -0.9984
vn 0.0023 -0.0816 -0.9967
vn 0.0048 -0.1385 -0.9903
vn -0.0121 -0.0670 -0.9977
vn -0.0526 -0.0319 -0.9981
vn -0.0582 -0.0100 -0.9983
vn -0.0514 0.0243 -0.9984
vn -0.0578 0.0305 -0.9979
vn -0.0747 0.0394 0.9964
vn -0.0365 -0.0529 0.9979
vn -0.0127 -0.0660 0.9977
vn -0.0537 -0.0313 0.9981
vn -0.0754 0.0061 0.9971
vn 0.0034 -0.0711 0.9975
vn 0.0073 -0.0834 0.9965
vn -0.0104 -0.0626 0.9980
vn -0.0496 -0.0310 0.9983
vn -0.0620 -0.0093 0.9980
vn -0.0585 0.0301 0.9978
vn -0.0472 0.0514 0.9976
vn -0.0472 0.0514 -0.9976
vt 0.478199 0.747855
vt 0.478199 0.746173
vt 0.478199 0.745550
vt 0.455698 0.678100
vt 0.455696 0.677434
vt 0.455698 0.689431
vt 0.455698 0.705127
vt 0.455696 0.717159
vt 0.455698 0.714477
vt 0.455698 0.723456
vt 0.455696 0.739841
vt 0.455698 0.732297
vt 0.455698 0.738549
vt 0.455696 0.755095
vt 0.455698 0.744563
vt 0.455698 0.747026
vt 0.455696 0.759949
vt 0.455698 0.749144
vt 0.455698 0.748377
vt 0.455696 0.752659
vt 0.455698 0.747021
vt 0.455696 0.757758
vt 0.478199 0.747855
vt 0.478199 0.745550
vt 0.455698 0.662191
vt 0.455699 0.662191
vt 0.455701 0.656276
vt 0.455696 0.697437
vt 0.455699 0.678100
vt 0.455701 0.677434
vt 0.455701 0.666649
vt 0.455699 0.705127
vt 0.455701 0.717159
vt 0.455701 0.697437
vt 0.455699 0.723456
vt 0.455701 0.739841
vt 0.455701 0.728894
vt 0.455699 0.738549
vt 0.455701 0.755095
vt 0.455701 0.748148
vt 0.455699 0.747026
vt 0.455701 0.759949
vt 0.455701 0.758504
vt 0.455699 0.748377
vt 0.455701 0.752659
vt 0.455701 0.757758
vt 0.455696 0.656276
vt 0.455696 0.666649
vt 0.455699 0.749144
vt 0.455696 0.728894
vt 0.455696 0.748148
vt 0.455696 0.758504
vt 0.455699 0.689431
vt 0.455699 0.747021
vt 0.455699 0.714477
vt 0.455699 0.744563
vt 0.455699 0.732297
vt 0.455698 0.666842
vt 0.073482 0.950334
vt 0.073387 0.950334
vt 0.073427 0.950334
vt 0.073516 0.970001
vt 0.073488 0.989175
vt 0.073537 0.989175
vt 0.073371 0.989175
vt 0.073437 0.970001
vt 0.073393 0.970001
vt 0.073420 0.989175
vt 0.073371 0.951012
vt 0.073482 0.990288
vt 0.073387 0.990288
vt 0.073427 0.990288
vt 0.073420 0.951012
vt 0.073472 0.970001
vt 0.073488 0.951012
vt 0.073537 0.951012
vt 0.455718 0.621489
vt 0.455691 0.621489
vt 0.455680 0.621489
vt 0.455691 0.628371
vt 0.455718 0.628371
vt 0.455706 0.628371
vt 0.455705 0.624930
vt 0.455714 0.624930
vt 0.455683 0.624930
vt 0.455680 0.628371
vt 0.455692 0.624930
vt 0.455706 0.621489
vt 0.073522 0.950334
vt 0.073522 0.990288
vt 0.478199 0.748971
vt 0.478199 0.753434
vt 0.478199 0.779492
vt 0.478199 0.783387
vt 0.478199 0.780289
vt 0.478199 0.785255
vt 0.478199 0.787587
vt 0.478199 0.786367
vt 0.478199 0.771175
vt 0.478199 0.775908
vt 0.478199 0.771459
vt 0.478199 0.760315
vt 0.478199 0.766826
vt 0.478199 0.759048
vt 0.478199 0.787495
vt 0.478199 0.788256
vt 0.478199 0.788636
vt 0.478199 0.787266
vt 0.478199 0.787584
vt 0.478199 0.786375
vt 0.478199 0.782373
vt 0.478199 0.775334
vt 0.478199 0.767638
vt 0.478199 0.754643
vt 0.455699 0.666842
vt 0.478199 0.753434
vt 0.478199 0.783387
vt 0.478199 0.787587
vt 0.478199 0.775908
vt 0.478199 0.766826
vt 0.478199 0.788256
vt 0.478199 0.787584
vt 0.478199 0.786990
vt 0.478199 0.788636
vt 0.478199 0.780289
vt 0.478199 0.771459
vt 0.478199 0.759048
vt 0.455699 0.663448
vt 0.455699 0.745820
vt 0.478199 0.786367
s 0
usemtl Texture_Map
f 122/1/1 3/2/1 121/3/1
f 134/4/2 5/5/2 123/6/2
f 124/7/3 9/8/3 125/9/3
f 131/10/4 11/11/4 126/12/4
f 133/13/5 13/14/5 127/15/5
f 132/16/6 15/17/6 128/18/6
f 130/19/7 17/20/7 129/21/7
f 128/18/8 20/22/8 130/19/8
f 3/2/9 107/23/9 115/24/9
f 121/25/10 115/26/10 21/27/10
f 123/6/11 7/28/11 124/7/11
f 120/29/12 23/30/12 42/31/12
f 109/32/13 25/33/13 24/34/13
f 117/35/14 26/36/14 33/37/14
f 119/38/15 27/39/15 39/40/15
f 118/41/16 28/42/16 36/43/16
f 108/44/17 29/45/17 30/46/17
f 2/47/18 42/31/18 41/48/18
f 113/49/19 30/46/19 28/42/19
f 7/28/20 25/33/20 9/8/20
f 9/8/21 33/37/21 32/50/21
f 11/11/22 39/40/22 38/51/22
f 13/14/23 36/43/23 35/52/23
f 116/53/24 24/34/24 23/30/24
f 17/20/25 30/46/25 29/45/25
f 15/17/26 30/46/26 20/22/26
f 32/50/27 26/36/27 11/11/27
f 129/21/28 29/45/28 114/54/28
f 125/9/29 32/50/29 131/10/29
f 35/52/30 28/42/30 15/17/30
f 110/55/31 33/37/31 25/33/31
f 127/15/32 35/52/32 132/16/32
f 38/51/33 27/39/33 13/14/33
f 112/56/34 36/43/34 27/39/34
f 126/12/35 38/51/35 133/13/35
f 41/48/36 23/30/36 5/5/36
f 111/57/37 39/40/37 26/36/37
f 122/58/38 41/48/38 134/4/38
f 5/5/39 24/34/39 7/28/39
f 77/59/40 85/60/40 89/61/40
f 46/62/41 98/63/41 96/64/41
f 106/65/42 43/66/42 44/67/42
f 46/62/43 94/64/43 48/62/43
f 50/67/44 102/68/44 100/65/44
f 86/69/45 49/66/45 50/67/45
f 97/70/46 105/71/46 101/72/46
f 84/73/47 47/74/47 49/66/47
f 44/67/48 90/73/48 88/69/48
f 90/73/49 45/74/49 80/75/49
f 47/74/50 102/68/50 49/66/50
f 86/69/51 44/67/51 88/69/51
f 94/64/52 47/74/52 48/62/52
f 43/66/53 98/63/53 45/74/53
f 82/76/54 48/62/54 76/76/54
f 50/67/55 106/65/55 44/67/55
f 82/76/56 45/74/56 46/62/56
f 58/77/40 54/78/40 52/79/40
f 63/80/46 59/81/46 65/82/46
f 68/83/57 59/81/57 60/82/57
f 67/84/58 66/81/58 59/81/58
f 70/85/59 61/86/59 71/85/59
f 69/84/60 65/82/60 66/81/60
f 71/85/61 62/80/61 73/87/61
f 74/87/62 60/82/62 63/80/62
f 72/83/63 62/80/63 65/82/63
f 74/87/64 64/86/64 70/85/64
f 54/78/65 70/85/65 53/79/65
f 51/78/66 72/83/66 56/88/66
f 57/88/67 74/87/67 54/78/67
f 52/79/68 73/87/68 51/78/68
f 55/77/69 72/83/69 69/84/69
f 53/79/70 71/85/70 52/79/70
f 58/77/71 69/84/71 67/84/71
f 57/88/72 67/84/72 68/83/72
f 105/71/73 104/68/73 106/65/73
f 81/89/74 80/75/74 82/76/74
f 93/90/75 92/63/75 94/64/75
f 83/61/76 86/69/76 85/60/76
f 87/60/77 90/73/77 89/61/77
f 95/90/78 98/63/78 97/70/78
f 77/59/79 76/76/79 78/75/79
f 99/71/80 102/68/80 101/72/80
f 83/61/81 78/75/81 84/73/81
f 76/76/82 81/89/82 82/76/82
f 88/69/83 85/60/83 86/69/83
f 80/75/84 89/61/84 90/73/84
f 101/72/85 92/63/85 91/70/85
f 96/64/86 93/90/86 94/64/86
f 104/68/87 97/70/87 98/63/87
f 100/65/88 105/71/88 106/65/88
f 48/62/89 78/75/89 76/76/89
f 4/91/90 120/92/90 107/23/90
f 12/93/91 119/94/91 111/95/91
f 14/96/92 118/97/92 112/98/92
f 10/99/93 117/100/93 110/101/93
f 6/102/94 109/103/94 116/104/94
f 16/105/95 108/106/95 113/107/95
f 19/108/96 114/109/96 108/106/96
f 34/110/97 113/107/97 118/97/97
f 14/96/98 119/94/98 37/111/98
f 31/112/99 111/95/99 117/100/99
f 8/113/100 110/101/100 109/103/100
f 40/114/101 116/104/101 120/92/101
f 107/115/102 42/31/102 22/27/102
f 4/91/103 134/116/103 40/114/103
f 12/93/104 133/117/104 37/111/104
f 14/96/105 132/118/105 34/110/105
f 10/99/106 131/119/106 31/112/106
f 6/102/107 124/120/107 8/113/107
f 16/105/108 130/121/108 19/108/108
f 19/108/109 129/122/109 18/123/109
f 34/110/110 128/124/110 16/105/110
f 133/117/104 14/96/104 37/111/104
f 31/112/111 126/125/111 12/93/111
f 8/113/112 125/126/112 10/99/112
f 40/114/113 123/127/113 6/102/113
f 2/47/114 121/25/114 1/47/114
f 115/26/115 22/27/115 21/27/115
f 122/1/116 4/91/116 3/2/116
f 134/4/117 41/48/117 5/5/117
f 124/7/118 7/28/118 9/8/118
f 131/10/119 32/50/119 11/11/119
f 133/13/120 38/51/120 13/14/120
f 132/16/121 35/52/121 15/17/121
f 130/19/122 20/22/122 17/20/122
f 128/18/123 15/17/123 20/22/123
f 3/2/124 4/91/124 107/23/124
f 21/27/10 1/47/10 121/25/10
f 121/25/10 3/128/10 115/26/10
f 123/6/125 5/5/125 7/28/125
f 120/29/126 116/53/126 23/30/126
f 109/32/127 110/55/127 25/33/127
f 117/35/128 111/57/128 26/36/128
f 119/38/129 112/56/129 27/39/129
f 118/41/130 113/49/130 28/42/130
f 108/44/131 114/54/131 29/45/131
f 2/47/18 22/27/18 42/31/18
f 113/49/132 108/44/132 30/46/132
f 7/28/20 24/34/20 25/33/20
f 9/8/21 25/33/21 33/37/21
f 11/11/22 26/36/22 39/40/22
f 13/14/23 27/39/23 36/43/23
f 116/53/133 109/32/133 24/34/133
f 17/20/25 20/22/25 30/46/25
f 15/17/26 28/42/26 30/46/26
f 32/50/27 33/37/27 26/36/27
f 114/54/28 18/129/28 129/21/28
f 129/21/28 17/20/28 29/45/28
f 125/9/134 9/8/134 32/50/134
f 35/52/30 36/43/30 28/42/30
f 110/55/135 117/35/135 33/37/135
f 127/15/136 13/14/136 35/52/136
f 38/51/33 39/40/33 27/39/33
f 112/56/137 118/41/137 36/43/137
f 126/12/138 11/11/138 38/51/138
f 41/48/36 42/31/36 23/30/36
f 111/57/139 119/38/139 39/40/139
f 122/58/140 2/47/140 41/48/140
f 5/5/39 23/30/39 24/34/39
f 81/89/40 75/89/40 77/59/40
f 77/59/40 83/61/40 85/60/40
f 85/60/40 87/60/40 89/61/40
f 89/61/40 79/59/40 81/89/40
f 81/89/40 77/59/40 89/61/40
f 46/62/41 45/74/41 98/63/41
f 106/65/42 104/68/42 43/66/42
f 46/62/43 96/64/43 94/64/43
f 50/67/44 49/66/44 102/68/44
f 86/69/45 84/73/45 49/66/45
f 101/72/46 91/70/46 93/90/46
f 93/90/46 95/90/46 97/70/46
f 97/70/46 103/72/46 105/71/46
f 105/71/46 99/71/46 101/72/46
f 101/72/46 93/90/46 97/70/46
f 84/73/47 78/75/47 47/74/47
f 44/67/48 43/66/48 90/73/48
f 90/73/49 43/66/49 45/74/49
f 47/74/50 92/63/50 102/68/50
f 86/69/51 50/67/51 44/67/51
f 94/64/52 92/63/52 47/74/52
f 43/66/53 104/68/53 98/63/53
f 82/76/54 46/62/54 48/62/54
f 50/67/55 100/65/55 106/65/55
f 82/76/56 80/75/56 45/74/56
f 52/79/40 51/78/40 58/77/40
f 51/78/40 56/88/40 58/77/40
f 56/88/40 55/77/40 58/77/40
f 58/77/40 57/88/40 54/78/40
f 54/78/40 53/79/40 52/79/40
f 65/82/46 62/80/46 61/86/46
f 61/86/46 64/86/46 65/82/46
f 64/86/46 63/80/46 65/82/46
f 63/80/46 60/82/46 59/81/46
f 59/81/46 66/81/46 65/82/46
f 68/83/57 67/84/57 59/81/57
f 67/84/58 69/84/58 66/81/58
f 70/85/59 64/86/59 61/86/59
f 69/84/60 72/83/60 65/82/60
f 71/85/61 61/86/61 62/80/61
f 74/87/62 68/83/62 60/82/62
f 72/83/63 73/87/63 62/80/63
f 74/87/64 63/80/64 64/86/64
f 54/78/65 74/87/65 70/85/65
f 51/78/66 73/87/66 72/83/66
f 57/88/67 68/83/67 74/87/67
f 52/79/68 71/85/68 73/87/68
f 55/77/69 56/88/69 72/83/69
f 53/79/70 70/85/70 71/85/70
f 58/77/71 55/77/71 69/84/71
f 57/88/72 58/77/72 67/84/72
f 105/71/73 103/72/73 104/68/73
f 81/89/74 79/59/74 80/75/74
f 93/90/75 91/70/75 92/63/75
f 83/61/76 84/73/76 86/69/76
f 87/60/77 88/69/77 90/73/77
f 95/90/78 96/64/78 98/63/78
f 77/59/79 75/89/79 76/76/79
f 99/71/80 100/65/80 102/68/80
f 83/61/81 77/59/81 78/75/81
f 76/76/82 75/89/82 81/89/82
f 88/69/83 87/60/83 85/60/83
f 80/75/84 79/59/84 89/61/84
f 101/72/85 102/68/85 92/63/85
f 96/64/86 95/90/86 93/90/86
f 104/68/87 103/72/87 97/70/87
f 100/65/88 99/71/88 105/71/88
f 48/62/89 47/74/89 78/75/89
f 4/91/141 40/114/141 120/92/141
f 12/93/98 37/111/98 119/94/98
f 14/96/142 34/110/142 118/97/142
f 10/99/143 31/112/143 117/100/143
f 6/102/144 8/113/144 109/103/144
f 16/105/145 19/108/145 108/106/145
f 19/108/146 18/123/146 114/109/146
f 34/110/147 16/105/147 113/107/147
f 14/96/129 112/98/129 119/94/129
f 31/112/148 12/93/148 111/95/148
f 8/113/149 10/99/149 110/101/149
f 40/114/150 6/102/150 116/104/150
f 107/115/151 120/29/151 42/31/151
f 4/91/152 122/1/152 134/116/152
f 12/93/153 126/125/153 133/117/153
f 14/96/154 127/130/154 132/118/154
f 10/99/155 125/126/155 131/119/155
f 6/102/156 123/127/156 124/120/156
f 16/105/157 128/124/157 130/121/157
f 19/108/158 130/121/158 129/122/158
f 34/110/159 132/118/159 128/124/159
f 133/117/5 127/130/5 14/96/5
f 31/112/160 131/119/160 126/125/160
f 8/113/161 124/120/161 125/126/161
f 40/114/162 134/116/162 123/127/162
f 2/47/163 122/58/163 121/25/163
f 115/26/164 107/115/164 22/27/164
