# Blender 4.4.0
# www.blender.org
mtllib Tool_Sledge_Hammer_01.mtl
o Tool_Sledge_Hammer_01
v -0.020400 0.914746 0.010873
v -0.010873 0.914746 0.020400
v 0.010873 0.914746 0.020400
v 0.020400 0.914746 0.010873
v -0.010873 0.914746 -0.020400
v -0.020400 0.914746 -0.010873
v 0.020400 0.914746 -0.010873
v 0.010873 0.914746 -0.020400
v -0.023732 0.000000 -0.012649
v -0.012649 0.000000 -0.023732
v -0.012649 0.000000 0.023732
v -0.023732 0.000000 0.012649
v 0.023732 0.000000 0.012649
v 0.012649 0.000000 0.023732
v 0.012649 0.000000 -0.023732
v 0.023732 0.000000 -0.012649
v -0.010174 0.658616 -0.019088
v -0.019088 0.658616 -0.010174
v 0.010174 0.658616 -0.019088
v 0.019088 0.658616 -0.010174
v 0.010174 0.658616 0.019088
v 0.019088 0.658616 0.010174
v -0.010174 0.658616 0.019088
v -0.019088 0.658616 0.010174
v -0.020155 0.817181 -0.010742
v 0.010742 0.817181 -0.020155
v 0.020155 0.817181 0.010742
v -0.010742 0.817181 0.020155
v -0.010742 0.817181 -0.020155
v 0.020155 0.817181 -0.010742
v 0.010742 0.817181 0.020155
v -0.020155 0.817181 0.010742
v 0.094973 0.905919 0.013131
v 0.094973 0.894996 0.024055
v 0.094973 0.848797 -0.013131
v 0.094973 0.859721 -0.024055
v 0.094973 0.894996 -0.024055
v 0.094973 0.905919 -0.013131
v 0.094973 0.877358 -0.024055
v -0.094973 0.877358 0.024055
v -0.094973 0.877358 -0.024055
v 0.094973 0.877358 0.024055
v 0.094973 0.848797 0.000000
v -0.094973 0.848797 0.000000
v 0.094973 0.905919 0.000000
v 0.094973 0.877358 0.000000
v -0.094973 0.905919 0.000000
v -0.094973 0.877358 0.000000
v -0.028712 0.911449 0.000000
v 0.028712 0.911449 0.000000
v -0.028712 0.843268 0.000000
v 0.028712 0.843268 0.000000
v -0.088540 0.911449 0.000000
v 0.088540 0.911449 0.000000
v -0.088540 0.843268 0.000000
v 0.088540 0.843268 0.000000
v 0.028712 0.877358 0.028712
v -0.028712 0.877358 0.028712
v 0.028712 0.877358 -0.028712
v -0.028712 0.877358 -0.028712
v -0.088540 0.877358 0.028712
v 0.088540 0.877358 -0.028712
v 0.088540 0.877358 0.028712
v -0.088540 0.877358 -0.028712
v -0.028712 0.911449 0.015673
v -0.028712 0.898410 0.028712
v -0.015673 0.911449 0.028712
v 0.028712 0.898410 0.028712
v 0.028712 0.911449 0.015673
v 0.015673 0.911449 0.028712
v -0.028712 0.898410 -0.028712
v -0.028712 0.911449 -0.015673
v -0.015673 0.911449 -0.028712
v 0.028712 0.911449 -0.015673
v 0.028712 0.898410 -0.028712
v 0.015673 0.911449 -0.028712
v -0.028712 0.856306 0.028712
v -0.028712 0.843268 0.015673
v -0.015673 0.843268 0.028712
v 0.028712 0.843268 0.015673
v 0.028712 0.856306 0.028712
v 0.015673 0.843268 0.028712
v -0.028712 0.843268 -0.015673
v -0.028712 0.856306 -0.028712
v -0.015673 0.843268 -0.028712
v 0.028712 0.856306 -0.028712
v 0.028712 0.843268 -0.015673
v 0.015673 0.843268 -0.028712
v -0.088540 0.911449 -0.015673
v -0.088540 0.898410 -0.028712
v -0.088540 0.898410 0.028712
v -0.088540 0.911449 0.015673
v 0.088540 0.911449 0.015673
v 0.088540 0.898410 0.028712
v 0.088540 0.898410 -0.028712
v 0.088540 0.911449 -0.015673
v -0.088540 0.843268 0.015673
v -0.088540 0.856306 0.028712
v 0.088540 0.843268 -0.015673
v 0.088540 0.856306 -0.028712
v -0.088540 0.856306 -0.028712
v -0.088540 0.843268 -0.015673
v 0.088540 0.856306 0.028712
v 0.088540 0.843268 0.015673
v -0.094973 0.859721 0.024055
v -0.094973 0.848797 0.013131
v -0.094973 0.894996 -0.024055
v -0.094973 0.905919 -0.013131
v -0.094973 0.905919 0.013131
v -0.094973 0.894996 0.024055
v 0.094973 0.848797 0.013131
v 0.094973 0.859721 0.024055
v -0.094973 0.848797 -0.013131
v -0.094973 0.859721 -0.024055
vn -0.0000 0.0071 1.0000
vn -0.0000 -1.0000 -0.0000
vn 1.0000 0.0071 -0.0000
vn -0.0000 0.0071 -1.0000
vn -0.0000 1.0000 -0.0000
vn -0.7071 0.0076 -0.7071
vn 0.7071 -0.0027 -0.7071
vn 0.7071 0.0076 0.7071
vn -0.7071 -0.0027 0.7071
vn -1.0000 0.0071 -0.0000
vn -1.0000 -0.0067 -0.0000
vn -0.7071 0.0076 0.7071
vn 0.7071 -0.0073 0.7071
vn 0.7071 0.0076 -0.7071
vn -0.7071 -0.0073 -0.7071
vn -0.0000 -0.0067 -1.0000
vn 1.0000 -0.0067 -0.0000
vn -0.0000 -0.0067 1.0000
vn -0.0000 -0.0025 1.0000
vn 1.0000 -0.0025 -0.0000
vn -0.0000 -0.0025 -1.0000
vn -0.7071 -0.0027 -0.7071
vn 0.7071 -0.0027 0.7071
vn -1.0000 -0.0025 -0.0000
vn -0.7071 -0.0073 0.7071
vn 0.7071 -0.0073 -0.7071
vn -0.0000 -0.0000 -1.0000
vn -0.0000 -0.0000 1.0000
vn -0.6636 0.5290 -0.5290
vn 0.5864 -0.0000 0.8100
vn 0.6636 -0.5290 0.5290
vn -1.0000 -0.0000 -0.0000
vn -0.5864 -0.0000 -0.8100
vn 0.5864 -0.0000 -0.8100
vn -0.5864 -0.0000 0.8100
vn 0.6636 -0.5290 -0.5289
vn 0.6518 0.7584 -0.0000
vn -0.5773 0.5774 0.5774
vn 0.5773 0.5774 0.5774
vn -0.5773 0.5774 -0.5774
vn 0.5773 0.5774 -0.5774
vn -0.5773 -0.5773 0.5774
vn 0.5773 -0.5773 0.5774
vn -0.5773 -0.5773 -0.5774
vn 0.5773 -0.5773 -0.5774
vn -0.0000 0.7071 -0.7071
vn -0.0000 -0.7071 -0.7071
vn -0.0000 0.7071 0.7071
vn -0.0000 -0.7071 0.7071
vn 1.0000 -0.0000 -0.0000
vn -0.6518 -0.7584 -0.0000
vn 0.6518 -0.7584 -0.0000
vn 0.6636 0.5290 0.5290
vn -0.6636 -0.5290 -0.5290
vn -0.6636 0.5289 0.5289
vn -0.6518 0.7584 -0.0000
vn 0.6636 0.5290 -0.5289
vn -0.6636 -0.5290 0.5289
vn -0.6636 0.5289 -0.5289
vn 0.6636 -0.5290 0.5289
vn 0.6636 -0.5289 -0.5290
vn 0.6636 0.5290 0.5289
vn -0.6636 -0.5290 -0.5289
vn -0.6636 0.5290 0.5290
vn 0.6636 0.5290 -0.5290
vn -0.6636 -0.5289 0.5290
vt 0.243716 0.811671
vt 0.243701 0.878396
vt 0.243558 0.811671
vt 0.243595 0.811671
vt 0.243679 0.811671
vt 0.243603 0.878396
vt 0.243671 0.878396
vt 0.243573 0.878396
vt 0.243673 0.942852
vt 0.243569 0.942852
vt 0.243601 0.942852
vt 0.243569 0.904344
vt 0.243601 0.894460
vt 0.243570 0.894460
vt 0.243705 0.904344
vt 0.243673 0.894460
vt 0.243704 0.894460
vt 0.243601 0.904344
vt 0.243673 0.904344
vt 0.575391 0.756933
vt 0.575407 0.756933
vt 0.575419 0.681495
vt 0.575419 0.710296
vt 0.575376 0.663657
vt 0.575391 0.663657
vt 0.575363 0.663657
vt 0.575419 0.663657
vt 0.575407 0.663657
vt 0.575363 0.710296
vt 0.575363 0.681495
vt 0.575419 0.739096
vt 0.575419 0.756933
vt 0.575376 0.756933
vt 0.575404 0.749369
vt 0.575367 0.686167
vt 0.575367 0.710296
vt 0.575378 0.671222
vt 0.575404 0.671222
vt 0.575391 0.671222
vt 0.575391 0.710296
vt 0.575363 0.739096
vt 0.575363 0.756933
vt 0.575415 0.686167
vt 0.575415 0.710296
vt 0.575415 0.734424
vt 0.575367 0.734424
vt 0.575378 0.749369
vt 0.575391 0.749369
vt 0.243705 0.942852
s 0
usemtl Texture_Map
f 11/1/1 21/2/1 23/2/1
f 10/3/2 16/4/2 14/1/2
f 13/5/3 20/6/3 22/7/3
f 15/3/4 17/8/4 19/8/4
f 4/9/5 8/10/5 6/11/5
f 10/3/6 18/6/6 17/8/6
f 8/12/7 30/13/7 26/14/7
f 14/1/8 22/7/8 21/2/8
f 2/15/9 32/16/9 28/17/9
f 9/4/10 24/7/10 18/6/10
f 18/6/11 32/16/11 25/13/11
f 23/2/12 12/5/12 11/1/12
f 21/2/13 27/16/13 31/17/13
f 19/8/14 16/4/14 15/3/14
f 17/8/15 25/13/15 29/14/15
f 19/8/16 29/14/16 26/14/16
f 22/7/17 30/13/17 27/16/17
f 23/2/18 31/17/18 28/17/18
f 28/17/19 3/15/19 2/15/19
f 27/16/20 7/18/20 4/19/20
f 26/14/21 5/12/21 8/12/21
f 29/14/22 6/18/22 5/12/22
f 31/17/23 4/19/23 3/15/23
f 25/13/24 1/19/24 6/18/24
f 28/17/25 24/7/25 23/2/25
f 26/14/26 20/6/26 19/8/26
f 50/20/5 96/21/5 74/21/5
f 84/22/27 64/23/27 60/23/27
f 78/24/2 55/25/2 51/25/2
f 52/25/2 104/24/2 80/24/2
f 52/25/2 80/24/2 82/26/2
f 88/27/2 87/28/2 52/25/2
f 59/23/27 100/22/27 86/22/27
f 58/29/28 98/30/28 77/30/28
f 60/23/27 71/31/27 73/32/27
f 51/25/2 102/28/2 83/28/2
f 76/32/5 73/32/5 49/20/5
f 49/20/5 92/33/5 65/33/5
f 90/31/29 108/34/29 89/21/29
f 63/29/30 112/35/30 42/36/30
f 103/30/31 111/37/31 112/35/31
f 113/38/32 44/39/32 48/40/32
f 57/29/28 94/41/28 68/41/28
f 75/31/27 62/23/27 59/23/27
f 87/28/2 56/25/2 52/25/2
f 85/27/27 84/22/27 60/23/27
f 82/26/28 81/30/28 57/29/28
f 57/29/28 68/41/28 70/42/28
f 64/23/33 114/43/33 41/44/33
f 62/23/34 37/45/34 39/44/34
f 61/29/35 105/35/35 98/30/35
f 100/22/36 35/38/36 99/28/36
f 81/30/28 63/29/28 57/29/28
f 72/21/5 53/20/5 49/20/5
f 60/23/27 90/31/27 71/31/27
f 54/20/37 38/34/37 96/21/37
f 69/33/5 54/20/5 50/20/5
f 66/41/28 61/29/28 58/29/28
f 65/33/38 66/41/38 67/42/38
f 68/41/39 69/33/39 70/42/39
f 71/31/40 72/21/40 73/32/40
f 74/21/41 75/31/41 76/32/41
f 77/30/42 78/24/42 79/26/42
f 80/24/43 81/30/43 82/26/43
f 83/28/44 84/22/44 85/27/44
f 86/22/45 87/28/45 88/27/45
f 96/21/46 75/31/46 74/21/46
f 87/28/47 100/22/47 99/28/47
f 69/33/48 94/41/48 93/33/48
f 98/30/49 78/24/49 77/30/49
f 72/21/46 90/31/46 89/21/46
f 66/41/48 92/33/48 91/41/48
f 104/24/49 81/30/49 80/24/49
f 84/22/47 102/28/47 101/22/47
f 50/20/5 49/20/5 67/42/5
f 36/43/50 46/40/50 35/38/50
f 111/37/50 43/39/50 46/40/50
f 46/40/50 37/45/50 38/34/50
f 48/40/32 110/46/32 109/47/32
f 34/46/50 42/36/50 46/40/50
f 105/35/32 48/40/32 106/37/32
f 107/45/32 41/44/32 48/40/32
f 55/25/51 113/38/51 102/28/51
f 56/25/52 111/37/52 104/24/52
f 94/41/53 33/47/53 93/33/53
f 56/25/52 35/38/52 43/39/52
f 101/22/54 113/38/54 114/43/54
f 64/23/33 107/45/33 90/31/33
f 61/29/35 110/46/35 40/36/35
f 62/23/34 36/43/34 100/22/34
f 91/41/55 109/47/55 110/46/55
f 53/20/56 109/47/56 92/33/56
f 53/20/56 108/34/56 47/48/56
f 95/31/57 38/34/57 37/45/57
f 63/29/30 34/46/30 94/41/30
f 54/20/37 33/47/37 45/48/37
f 55/25/51 106/37/51 44/39/51
f 98/30/58 106/37/58 97/24/58
f 11/1/1 14/1/1 21/2/1
f 14/1/2 11/1/2 12/5/2
f 12/5/2 9/4/2 14/1/2
f 9/4/2 10/3/2 14/1/2
f 10/3/2 15/3/2 16/4/2
f 16/4/2 13/5/2 14/1/2
f 13/5/3 16/4/3 20/6/3
f 15/3/4 10/3/4 17/8/4
f 6/11/5 1/9/5 2/49/5
f 2/49/5 3/49/5 4/9/5
f 4/9/5 7/11/5 8/10/5
f 8/10/5 5/10/5 6/11/5
f 6/11/5 2/49/5 4/9/5
f 10/3/6 9/4/6 18/6/6
f 8/12/7 7/18/7 30/13/7
f 14/1/8 13/5/8 22/7/8
f 2/15/9 1/19/9 32/16/9
f 9/4/10 12/5/10 24/7/10
f 18/6/11 24/7/11 32/16/11
f 23/2/12 24/7/12 12/5/12
f 21/2/13 22/7/13 27/16/13
f 19/8/14 20/6/14 16/4/14
f 17/8/15 18/6/15 25/13/15
f 19/8/16 17/8/16 29/14/16
f 22/7/17 20/6/17 30/13/17
f 23/2/18 21/2/18 31/17/18
f 28/17/19 31/17/19 3/15/19
f 27/16/20 30/13/20 7/18/20
f 26/14/21 29/14/21 5/12/21
f 29/14/22 25/13/22 6/18/22
f 31/17/23 27/16/23 4/19/23
f 25/13/24 32/16/24 1/19/24
f 28/17/25 32/16/25 24/7/25
f 26/14/26 30/13/26 20/6/26
f 50/20/5 54/20/5 96/21/5
f 84/22/27 101/22/27 64/23/27
f 78/24/2 97/24/2 55/25/2
f 52/25/2 56/25/2 104/24/2
f 82/26/2 79/26/2 51/25/2
f 79/26/2 78/24/2 51/25/2
f 51/25/2 52/25/2 82/26/2
f 52/25/2 51/25/2 88/27/2
f 51/25/2 83/28/2 85/27/2
f 88/27/2 51/25/2 85/27/2
f 59/23/27 62/23/27 100/22/27
f 58/29/28 61/29/28 98/30/28
f 73/32/27 76/32/27 59/23/27
f 76/32/27 75/31/27 59/23/27
f 59/23/27 60/23/27 73/32/27
f 51/25/2 55/25/2 102/28/2
f 72/21/5 49/20/5 73/32/5
f 49/20/5 50/20/5 76/32/5
f 50/20/5 74/21/5 76/32/5
f 49/20/5 53/20/5 92/33/5
f 90/31/59 107/45/59 108/34/59
f 63/29/30 103/30/30 112/35/30
f 103/30/60 104/24/60 111/37/60
f 48/40/32 41/44/32 114/43/32
f 114/43/32 113/38/32 48/40/32
f 57/29/28 63/29/28 94/41/28
f 75/31/27 95/31/27 62/23/27
f 87/28/2 99/28/2 56/25/2
f 60/23/27 59/23/27 85/27/27
f 59/23/27 86/22/27 88/27/27
f 85/27/27 59/23/27 88/27/27
f 57/29/28 58/29/28 82/26/28
f 58/29/28 77/30/28 79/26/28
f 82/26/28 58/29/28 79/26/28
f 70/42/28 67/42/28 58/29/28
f 67/42/28 66/41/28 58/29/28
f 58/29/28 57/29/28 70/42/28
f 64/23/33 101/22/33 114/43/33
f 62/23/34 95/31/34 37/45/34
f 61/29/35 40/36/35 105/35/35
f 100/22/61 36/43/61 35/38/61
f 81/30/28 103/30/28 63/29/28
f 72/21/5 89/21/5 53/20/5
f 60/23/27 64/23/27 90/31/27
f 54/20/37 45/48/37 38/34/37
f 69/33/5 93/33/5 54/20/5
f 66/41/28 91/41/28 61/29/28
f 96/21/46 95/31/46 75/31/46
f 87/28/47 86/22/47 100/22/47
f 69/33/48 68/41/48 94/41/48
f 98/30/49 97/24/49 78/24/49
f 72/21/46 71/31/46 90/31/46
f 66/41/48 65/33/48 92/33/48
f 104/24/49 103/30/49 81/30/49
f 84/22/47 83/28/47 102/28/47
f 49/20/5 65/33/5 67/42/5
f 67/42/5 70/42/5 50/20/5
f 70/42/5 69/33/5 50/20/5
f 39/44/50 46/40/50 36/43/50
f 46/40/50 43/39/50 35/38/50
f 46/40/50 42/36/50 112/35/50
f 112/35/50 111/37/50 46/40/50
f 38/34/50 45/48/50 46/40/50
f 46/40/50 39/44/50 37/45/50
f 109/47/32 47/48/32 48/40/32
f 48/40/32 40/36/32 110/46/32
f 45/48/50 33/47/50 46/40/50
f 33/47/50 34/46/50 46/40/50
f 40/36/32 48/40/32 105/35/32
f 48/40/32 44/39/32 106/37/32
f 47/48/32 108/34/32 48/40/32
f 108/34/32 107/45/32 48/40/32
f 55/25/51 44/39/51 113/38/51
f 56/25/52 43/39/52 111/37/52
f 94/41/62 34/46/62 33/47/62
f 56/25/52 99/28/52 35/38/52
f 101/22/63 102/28/63 113/38/63
f 64/23/33 41/44/33 107/45/33
f 61/29/35 91/41/35 110/46/35
f 62/23/34 39/44/34 36/43/34
f 91/41/64 92/33/64 109/47/64
f 53/20/56 47/48/56 109/47/56
f 53/20/56 89/21/56 108/34/56
f 95/31/65 96/21/65 38/34/65
f 63/29/30 42/36/30 34/46/30
f 54/20/37 93/33/37 33/47/37
f 55/25/51 97/24/51 106/37/51
f 98/30/66 105/35/66 106/37/66
