# Blender 4.4.0
# www.blender.org
mtllib Tool_Pitchfork_02.mtl
o Tool_Pitchfork_02
v -0.021754 1.190563 0.008122
v -0.008122 1.190563 0.021754
v 0.005172 1.429743 0.013854
v 0.013854 1.429743 0.005172
v 0.021754 1.190563 0.008122
v 0.008122 1.190563 0.021754
v 0.021754 1.190563 -0.008122
v 0.008122 1.190563 -0.021754
v -0.005172 1.429743 -0.013854
v -0.013854 1.429743 -0.005172
v -0.021754 1.190563 -0.008122
v -0.008122 1.190563 -0.021754
v -0.006891 0.000000 0.018783
v -0.018783 0.000000 0.006891
v 0.018783 0.000000 0.006891
v 0.006891 0.000000 0.018783
v -0.018783 0.000000 -0.006891
v -0.006891 0.000000 -0.018783
v 0.006891 0.000000 -0.018783
v 0.018783 0.000000 -0.006891
v -0.006891 1.190563 -0.018783
v -0.018783 1.190563 -0.006891
v 0.006891 1.190563 -0.018783
v 0.018783 1.190563 -0.006891
v 0.006891 1.190563 0.018783
v 0.018783 1.190563 0.006891
v -0.006891 1.190563 0.018783
v -0.018783 1.190563 0.006891
v 0.005172 1.429743 -0.013854
v 0.013854 1.429743 -0.005172
v -0.005172 1.429743 0.013854
v -0.013854 1.429743 0.005172
v 0.003333 1.229186 0.022741
v -0.003650 1.229003 0.022741
v -0.006982 1.222865 0.022741
v -0.003333 1.216910 0.022741
v 0.003650 1.217093 0.022741
v 0.006982 1.223231 0.022741
v -0.003650 1.229003 0.018961
v 0.003333 1.229186 0.018961
v -0.006982 1.222865 0.018961
v -0.003333 1.216910 0.018961
v 0.003650 1.217093 0.018961
v 0.006982 1.223231 0.018961
v 0.002767 1.364350 0.017997
v -0.003029 1.364198 0.017997
v -0.005796 1.359102 0.017997
v -0.002767 1.354159 0.017997
v 0.003029 1.354311 0.017997
v 0.005796 1.359406 0.017997
v -0.003029 1.364198 0.014859
v 0.002767 1.364350 0.014859
v -0.005796 1.359102 0.014859
v -0.002767 1.354159 0.014859
v 0.003029 1.354311 0.014859
v 0.005796 1.359406 0.014859
v -0.000000 1.441483 0.009618
v 0.000000 1.418556 0.009618
v -0.000000 1.441483 -0.009618
v 0.000000 1.418556 -0.009618
v 0.043286 1.442598 0.009618
v 0.040738 1.426157 0.009618
v 0.043286 1.442598 -0.009618
v 0.040738 1.426157 -0.009618
v 0.077927 1.447246 0.009618
v 0.087207 1.434448 0.009618
v 0.077927 1.447246 -0.009618
v 0.087207 1.434448 -0.009618
v 0.095222 1.461385 0.008791
v 0.106087 1.461385 0.008791
v 0.095222 1.461385 -0.008791
v 0.106087 1.461385 -0.008791
v 0.129173 1.800211 0.002193
v 0.132420 1.800211 0.002193
v 0.129173 1.800211 -0.003060
v 0.132420 1.800211 -0.003060
v 0.122050 1.631923 -0.038957
v 0.118384 1.590230 -0.035155
v 0.118390 1.590329 -0.017812
v 0.122057 1.632057 -0.021794
v 0.111465 1.632020 -0.021799
v 0.107678 1.590286 -0.017816
v 0.107667 1.590189 -0.035162
v 0.111449 1.631887 -0.038965
v 0.128434 1.716209 -0.031845
v 0.125682 1.676516 -0.038461
v 0.119098 1.716283 -0.016707
v 0.115235 1.676622 -0.021517
v 0.125687 1.676647 -0.021513
v 0.128436 1.716296 -0.016704
v 0.115219 1.676491 -0.038468
v 0.119086 1.716196 -0.031850
v -0.043286 1.442598 0.009618
v -0.040738 1.426157 0.009618
v -0.043286 1.442598 -0.009618
v -0.040738 1.426157 -0.009618
v -0.077927 1.447246 0.009618
v -0.087207 1.434448 0.009618
v -0.077927 1.447246 -0.009618
v -0.087207 1.434448 -0.009618
v -0.095222 1.461385 0.008791
v -0.106087 1.461385 0.008791
v -0.095222 1.461385 -0.008791
v -0.106087 1.461385 -0.008791
v -0.129173 1.800211 0.002193
v -0.132420 1.800211 0.002193
v -0.129173 1.800211 -0.003060
v -0.132420 1.800211 -0.003060
v -0.122050 1.631923 -0.038957
v -0.118384 1.590230 -0.035155
v -0.118390 1.590329 -0.017812
v -0.122057 1.632057 -0.021794
v -0.111465 1.632020 -0.021799
v -0.107678 1.590286 -0.017816
v -0.107667 1.590189 -0.035162
v -0.111449 1.631887 -0.038965
v -0.128434 1.716209 -0.031845
v -0.125682 1.676516 -0.038461
v -0.119098 1.716283 -0.016707
v -0.115235 1.676622 -0.021517
v -0.125687 1.676647 -0.021513
v -0.128436 1.716296 -0.016704
v -0.115219 1.676491 -0.038468
v -0.119086 1.716196 -0.031850
v -0.010134 1.438178 0.006393
v 0.010099 1.438178 0.006393
v -0.010134 1.438178 -0.006393
v 0.010099 1.438178 -0.006393
v -0.003686 1.799804 0.006358
v 0.004080 1.799804 0.006358
v -0.003686 1.799804 0.001450
v 0.004080 1.799804 0.001450
v -0.007670 1.631196 -0.035121
v -0.008213 1.589360 -0.032157
v -0.006391 1.720439 -0.027091
v -0.007052 1.680950 -0.034242
v 0.007642 1.631286 -0.025426
v 0.008181 1.589435 -0.021787
v 0.006452 1.720491 -0.018957
v 0.007029 1.681031 -0.025321
v -0.007047 1.681031 -0.025321
v -0.006387 1.720491 -0.018957
v -0.008210 1.589435 -0.021787
v -0.007665 1.631286 -0.025426
v 0.007034 1.680950 -0.034242
v 0.006456 1.720439 -0.027091
v 0.008184 1.589361 -0.032157
v 0.007646 1.631196 -0.035121
vn -0.0000 0.0330 0.9995
vn -0.0000 -1.0000 -0.0000
vn -0.0000 -0.0000 1.0000
vn -0.0000 -0.0000 -1.0000
vn 1.0000 -0.0000 -0.0000
vn 0.7071 -0.0000 -0.7071
vn -0.7071 -0.0000 0.7071
vn -0.7071 -0.0000 -0.7071
vn 0.7071 -0.0000 0.7071
vn 0.9995 0.0330 -0.0000
vn -0.0000 0.0330 -0.9995
vn -0.9995 0.0330 -0.0000
vn -0.7067 0.0321 -0.7067
vn 0.7067 0.0321 0.7067
vn 0.7067 0.0321 -0.7067
vn -0.7067 0.0321 0.7067
vn -0.0000 1.0000 -0.0000
vn -1.0000 -0.0000 -0.0000
vn -0.8526 -0.5225 -0.0000
vn -0.0262 0.9997 -0.0001
vn 0.8526 0.5225 -0.0000
vn 0.0262 -0.9997 -0.0000
vn -0.8788 0.4772 -0.0000
vn 0.8788 -0.4772 -0.0000
vn -0.0262 0.9997 -0.0000
vn 0.1757 -0.9845 -0.0000
vn 0.1834 -0.9830 -0.0000
vn -0.0258 0.9997 -0.0000
vn 0.8189 -0.5740 -0.0000
vn -0.1330 0.9911 -0.0000
vn -0.6329 0.7742 -0.0000
vn -0.0000 0.0307 -0.9995
vn 0.0300 0.0218 0.9993
vn -0.0000 -0.2197 0.9756
vn 0.9989 -0.0474 -0.0000
vn -0.0004 -0.0063 1.0000
vn 0.0007 0.0111 -0.9999
vn -0.9964 0.0842 0.0002
vn 0.9967 -0.0811 0.0003
vn -0.9954 0.0962 0.0001
vn -0.0000 0.2021 0.9794
vn -0.9929 0.1192 0.0001
vn 0.0014 -0.2006 -0.9797
vn -0.0008 0.0951 0.9955
vn 0.0010 -0.0909 -0.9959
vn -0.9959 0.0904 0.0001
vn 0.9962 -0.0876 0.0003
vn -0.0001 -0.1204 0.9927
vn 0.0003 0.1644 -0.9864
vn -0.9953 0.0969 0.0002
vn 0.9976 -0.0692 0.0002
vn 0.9955 -0.0950 -0.0000
vn -0.0000 0.3242 -0.9460
vn -0.1757 -0.9845 -0.0000
vn -0.1834 -0.9830 -0.0000
vn 0.0258 0.9997 -0.0000
vn -0.8189 -0.5740 -0.0000
vn 0.1330 0.9911 -0.0000
vn 0.6329 0.7742 -0.0000
vn -0.0300 0.0218 -0.9993
vn -0.0300 0.0218 0.9993
vn -0.9989 -0.0474 0.0001
vn 0.0004 -0.0063 1.0000
vn -0.0007 0.0111 -0.9999
vn 0.9964 0.0842 0.0002
vn -0.9967 -0.0812 0.0002
vn 0.9954 0.0962 -0.0000
vn 0.9929 0.1192 0.0001
vn -0.0000 -0.2006 -0.9797
vn 0.0008 0.0951 0.9955
vn -0.0011 -0.0909 -0.9959
vn 0.9959 0.0904 0.0002
vn -0.9962 -0.0876 0.0003
vn 0.0001 -0.1204 0.9927
vn -0.0003 0.1644 -0.9864
vn 0.9953 0.0969 0.0002
vn -0.9976 -0.0692 0.0002
vn -0.9955 -0.0950 -0.0000
vn -0.0000 -0.0021 1.0000
vn -0.0000 -0.3041 0.9527
vn 0.9999 0.0127 -0.0000
vn -0.0000 0.1832 0.9831
vn -0.9999 0.0127 0.0002
vn -0.9999 0.0124 0.0003
vn -0.9994 0.0340 0.0003
vn 0.9999 0.0123 0.0004
vn -0.0000 0.3384 -0.9410
vn -0.0000 -0.1680 -0.9858
vn 0.9999 0.0146 0.0004
vn 0.9999 0.0129 0.0003
vn -0.9999 0.0167 0.0004
vn -0.9999 0.0130 0.0002
vn -0.0000 0.1782 -0.9840
vn -0.0000 -0.0707 -0.9975
vn -0.0000 -0.1592 0.9872
vn -0.0000 0.0866 0.9962
vn -0.0000 0.0177 -0.9998
vn 0.9996 0.0299 -0.0000
vn -0.0000 1.0000 0.0001
vn -0.0000 1.0000 -0.0001
vn -0.0262 0.9997 0.0001
vn 0.0300 0.0218 -0.9993
vn -0.0000 0.0307 0.9995
vn 0.9989 -0.0474 0.0001
vn -0.9964 0.0842 0.0003
vn 0.9967 -0.0812 0.0002
vn -0.9954 0.0962 -0.0000
vn -0.0011 0.2022 0.9794
vn -0.9929 0.1192 -0.0000
vn -0.0007 0.0951 0.9955
vn 0.0011 -0.0909 -0.9959
vn -0.9959 0.0904 0.0002
vn 0.9962 -0.0875 0.0002
vn 0.9955 -0.0950 0.0002
vn -0.9989 -0.0474 -0.0000
vn 0.9964 0.0842 0.0003
vn -0.9967 -0.0811 0.0003
vn 0.9954 0.0962 0.0001
vn 0.0011 0.2022 0.9794
vn 0.9929 0.1192 -0.0000
vn -0.0014 -0.2006 -0.9797
vn 0.0007 0.0951 0.9955
vn -0.0010 -0.0909 -0.9959
vn 0.9959 0.0904 0.0001
vn -0.9962 -0.0875 0.0002
vn -0.9955 -0.0950 0.0002
vn 0.9999 0.0127 0.0002
vn -0.9999 0.0127 -0.0000
vn -0.9999 0.0124 0.0004
vn -0.9994 0.0340 -0.0000
vn 0.9999 0.0123 0.0003
vn 0.9999 0.0129 0.0002
vn -0.9999 0.0130 0.0003
vn 0.9996 0.0298 0.0003
vt 0.575370 0.682377
vt 0.575377 0.723406
vt 0.568656 0.905184
vt 0.568722 0.905184
vt 0.568865 0.905184
vt 0.568865 0.971639
vt 0.568656 0.971639
vt 0.568799 0.971639
vt 0.568799 0.905184
vt 0.568722 0.971639
vt 0.575399 0.682377
vt 0.575386 0.723406
vt 0.575383 0.682377
vt 0.575413 0.682377
vt 0.575405 0.723406
vt 0.575396 0.723406
vt 0.601164 0.613510
vt 0.601164 0.614563
vt 0.601164 0.615585
vt 0.601168 0.614500
vt 0.601164 0.613479
vt 0.601164 0.614500
vt 0.601168 0.615585
vt 0.601164 0.615553
vt 0.601168 0.614563
vt 0.601168 0.613510
vt 0.601168 0.615553
vt 0.601169 0.637871
vt 0.601169 0.637049
vt 0.601169 0.638771
vt 0.601172 0.637871
vt 0.601169 0.637023
vt 0.601172 0.638771
vt 0.601169 0.638745
vt 0.601172 0.637923
vt 0.601169 0.637923
vt 0.601172 0.637023
vt 0.601172 0.638745
vt 0.601172 0.637049
vt 0.601196 0.649374
vt 0.601177 0.650796
vt 0.601177 0.649374
vt 0.601177 0.652003
vt 0.601177 0.652194
vt 0.601196 0.648070
vt 0.601177 0.648070
vt 0.601196 0.652194
vt 0.601196 0.652003
vt 0.601196 0.650796
vt 0.601178 0.655417
vt 0.601196 0.652991
vt 0.601177 0.652991
vt 0.601195 0.655417
vt 0.601184 0.713540
vt 0.601189 0.713540
vt 0.601203 0.699145
vt 0.601203 0.699143
vt 0.601208 0.684695
vt 0.601208 0.692339
vt 0.601208 0.684688
vt 0.601225 0.684672
vt 0.601224 0.692317
vt 0.601224 0.692321
vt 0.601225 0.684665
vt 0.601208 0.692344
vt 0.601204 0.677529
vt 0.601221 0.677512
vt 0.601218 0.699128
vt 0.601221 0.677520
vt 0.601204 0.677536
vt 0.601218 0.699130
vt 0.601193 0.651436
vt 0.601180 0.651436
vt 0.601180 0.713471
vt 0.601185 0.713471
vt 0.601211 0.684562
vt 0.601211 0.693096
vt 0.601205 0.699865
vt 0.601208 0.677383
vt 0.601218 0.677370
vt 0.601220 0.693082
vt 0.601221 0.684547
vt 0.601213 0.699856
vt 0.601168 0.613479
s 0
usemtl Texture_Map
f 6/1/1 31/2/1 2/1/1
f 18/3/2 20/4/2 16/5/2
f 16/5/3 27/6/3 13/5/3
f 18/3/4 23/7/4 19/3/4
f 20/4/5 26/8/5 15/9/5
f 20/4/6 23/7/6 24/10/6
f 14/9/7 27/6/7 28/8/7
f 22/10/8 18/3/8 17/4/8
f 26/8/9 16/5/9 15/9/9
f 7/11/10 4/12/10 5/13/10
f 12/14/11 29/15/11 8/14/11
f 1/13/12 10/16/12 11/11/12
f 10/16/13 12/14/13 11/11/13
f 4/12/14 6/1/14 5/13/14
f 7/11/15 29/15/15 30/16/15
f 1/13/16 31/2/16 32/12/16
f 5/13/2 2/1/2 11/11/2
f 32/12/17 3/2/17 30/16/17
f 14/9/18 22/10/18 17/4/18
f 37/17/3 38/18/3 33/19/3
f 41/20/19 36/21/19 35/22/19
f 40/23/20 34/24/20 33/19/20
f 44/25/21 33/19/21 38/18/21
f 36/21/22 43/26/22 37/17/22
f 39/27/23 35/22/23 34/24/23
f 37/17/24 44/25/24 38/18/24
f 47/28/3 49/29/3 45/30/3
f 53/31/19 48/32/19 47/28/19
f 52/33/25 46/34/25 45/30/25
f 56/35/21 45/30/21 50/36/21
f 54/37/22 49/29/22 48/32/22
f 51/38/23 47/28/23 46/34/23
f 55/39/24 50/36/24 49/29/24
f 64/40/26 66/41/26 62/42/26
f 57/43/3 62/42/3 61/44/3
f 60/45/27 62/42/27 58/46/27
f 57/43/28 63/47/28 59/48/28
f 59/48/4 64/40/4 60/45/4
f 68/49/29 70/50/29 66/41/29
f 61/44/30 67/51/30 63/47/30
f 64/40/4 67/51/4 68/49/4
f 62/42/3 65/52/3 61/44/3
f 65/52/31 71/53/31 67/51/31
f 68/49/32 71/53/32 72/53/32
f 66/41/33 69/50/33 65/52/33
f 74/54/17 75/55/17 73/54/17
f 90/56/34 73/54/34 87/57/34
f 90/56/35 76/55/35 74/54/35
f 80/58/36 88/59/36 81/60/36
f 77/61/37 91/62/37 86/63/37
f 81/60/38 91/62/38 84/64/38
f 80/58/39 86/63/39 89/65/39
f 71/53/40 82/66/40 83/67/40
f 70/50/41 82/66/41 69/50/41
f 87/57/42 75/55/42 92/68/42
f 72/53/43 83/67/43 78/69/43
f 81/60/44 79/70/44 80/58/44
f 84/64/45 78/69/45 83/67/45
f 81/60/46 83/67/46 82/66/46
f 80/58/47 78/69/47 77/61/47
f 87/57/48 89/65/48 90/56/48
f 92/68/49 86/63/49 91/62/49
f 92/68/50 88/59/50 87/57/50
f 85/71/51 89/65/51 86/63/51
f 72/53/52 79/70/52 70/50/52
f 85/71/53 75/55/53 76/55/53
f 98/41/54 96/40/54 94/42/54
f 57/43/3 94/42/3 58/46/3
f 94/42/55 60/45/55 58/46/55
f 95/47/56 57/43/56 59/48/56
f 96/40/4 59/48/4 60/45/4
f 102/50/57 100/49/57 98/41/57
f 99/51/58 93/44/58 95/47/58
f 96/40/4 99/51/4 95/47/4
f 97/52/3 94/42/3 93/44/3
f 103/53/59 97/52/59 99/51/59
f 100/49/60 103/53/60 99/51/60
f 101/50/61 98/41/61 97/52/61
f 107/55/17 106/54/17 105/54/17
f 105/54/34 122/56/34 119/57/34
f 122/56/62 108/55/62 117/71/62
f 120/59/63 112/58/63 113/60/63
f 109/61/64 123/62/64 116/64/64
f 123/62/65 113/60/65 116/64/65
f 112/58/66 118/63/66 109/61/66
f 103/53/67 114/66/67 101/50/67
f 114/66/41 102/50/41 101/50/41
f 107/55/68 119/57/68 124/68/68
f 104/53/69 115/67/69 103/53/69
f 111/70/70 113/60/70 112/58/70
f 116/64/71 110/69/71 109/61/71
f 113/60/72 115/67/72 116/64/72
f 110/69/73 112/58/73 109/61/73
f 121/65/74 119/57/74 122/56/74
f 124/68/75 118/63/75 117/71/75
f 120/59/76 124/68/76 119/57/76
f 117/71/77 121/65/77 122/56/77
f 111/70/78 104/53/78 102/50/78
f 117/71/53 107/55/53 124/68/53
f 127/72/2 126/73/2 125/73/2
f 130/74/17 131/75/17 129/74/17
f 137/76/79 141/77/79 144/76/79
f 139/78/80 129/74/80 142/78/80
f 128/72/81 138/79/81 126/73/81
f 126/73/82 143/79/82 125/73/82
f 127/72/83 143/79/83 134/80/83
f 144/76/84 136/81/84 133/82/84
f 142/78/85 131/75/85 135/83/85
f 137/76/86 145/81/86 140/77/86
f 146/83/87 131/75/87 132/75/87
f 128/72/88 134/80/88 147/80/88
f 146/83/89 140/77/89 145/81/89
f 137/76/90 147/80/90 148/82/90
f 135/83/91 141/77/91 142/78/91
f 144/76/92 134/80/92 143/79/92
f 135/83/93 145/81/93 136/81/93
f 133/82/94 147/80/94 134/80/94
f 142/78/95 140/77/95 139/78/95
f 144/76/96 138/79/96 137/76/96
f 148/82/97 136/81/97 145/81/97
f 139/78/98 132/75/98 130/74/98
f 6/1/1 3/2/1 31/2/1
f 16/5/2 13/5/2 14/9/2
f 14/9/2 17/4/2 16/5/2
f 17/4/2 18/3/2 16/5/2
f 18/3/2 19/3/2 20/4/2
f 20/4/2 15/9/2 16/5/2
f 16/5/3 25/6/3 27/6/3
f 18/3/4 21/7/4 23/7/4
f 20/4/5 24/10/5 26/8/5
f 20/4/6 19/3/6 23/7/6
f 14/9/7 13/5/7 27/6/7
f 22/10/8 21/7/8 18/3/8
f 26/8/9 25/6/9 16/5/9
f 7/11/10 30/16/10 4/12/10
f 12/14/11 9/15/11 29/15/11
f 1/13/12 32/12/12 10/16/12
f 10/16/13 9/15/13 12/14/13
f 4/12/14 3/2/14 6/1/14
f 7/11/15 8/14/15 29/15/15
f 1/13/16 2/1/16 31/2/16
f 11/11/2 12/14/2 8/14/2
f 8/14/2 7/11/2 5/13/2
f 5/13/2 6/1/2 2/1/2
f 2/1/2 1/13/2 11/11/2
f 11/11/2 8/14/2 5/13/2
f 30/16/99 29/15/99 9/15/99
f 9/15/17 10/16/17 32/12/17
f 32/12/100 31/2/100 3/2/100
f 3/2/17 4/12/17 30/16/17
f 30/16/17 9/15/17 32/12/17
f 14/9/18 28/8/18 22/10/18
f 33/19/3 34/24/3 37/17/3
f 34/24/3 35/22/3 37/17/3
f 35/22/3 36/21/3 37/17/3
f 41/20/19 42/84/19 36/21/19
f 40/23/101 39/27/101 34/24/101
f 44/25/21 40/23/21 33/19/21
f 36/21/22 42/84/22 43/26/22
f 39/27/23 41/20/23 35/22/23
f 37/17/24 43/26/24 44/25/24
f 45/30/3 46/34/3 47/28/3
f 47/28/3 48/32/3 49/29/3
f 49/29/3 50/36/3 45/30/3
f 53/31/19 54/37/19 48/32/19
f 52/33/25 51/38/25 46/34/25
f 56/35/21 52/33/21 45/30/21
f 54/37/22 55/39/22 49/29/22
f 51/38/23 53/31/23 47/28/23
f 55/39/24 56/35/24 50/36/24
f 64/40/26 68/49/26 66/41/26
f 57/43/3 58/46/3 62/42/3
f 60/45/27 64/40/27 62/42/27
f 57/43/28 61/44/28 63/47/28
f 59/48/4 63/47/4 64/40/4
f 68/49/29 72/53/29 70/50/29
f 61/44/30 65/52/30 67/51/30
f 64/40/4 63/47/4 67/51/4
f 62/42/3 66/41/3 65/52/3
f 65/52/31 69/50/31 71/53/31
f 68/49/102 67/51/102 71/53/102
f 66/41/103 70/50/103 69/50/103
f 74/54/17 76/55/17 75/55/17
f 90/56/34 74/54/34 73/54/34
f 90/56/104 85/71/104 76/55/104
f 80/58/36 89/65/36 88/59/36
f 77/61/37 84/64/37 91/62/37
f 81/60/105 88/59/105 91/62/105
f 80/58/106 77/61/106 86/63/106
f 71/53/107 69/50/107 82/66/107
f 70/50/108 79/70/108 82/66/108
f 87/57/109 73/54/109 75/55/109
f 72/53/69 71/53/69 83/67/69
f 81/60/110 82/66/110 79/70/110
f 84/64/111 77/61/111 78/69/111
f 81/60/112 84/64/112 83/67/112
f 80/58/113 79/70/113 78/69/113
f 87/57/48 88/59/48 89/65/48
f 92/68/49 85/71/49 86/63/49
f 92/68/50 91/62/50 88/59/50
f 85/71/51 90/56/51 89/65/51
f 72/53/114 78/69/114 79/70/114
f 85/71/53 92/68/53 75/55/53
f 98/41/54 100/49/54 96/40/54
f 57/43/3 93/44/3 94/42/3
f 94/42/55 96/40/55 60/45/55
f 95/47/56 93/44/56 57/43/56
f 96/40/4 95/47/4 59/48/4
f 102/50/57 104/53/57 100/49/57
f 99/51/58 97/52/58 93/44/58
f 96/40/4 100/49/4 99/51/4
f 97/52/3 98/41/3 94/42/3
f 103/53/59 101/50/59 97/52/59
f 100/49/32 104/53/32 103/53/32
f 101/50/103 102/50/103 98/41/103
f 107/55/17 108/55/17 106/54/17
f 105/54/34 106/54/34 122/56/34
f 122/56/115 106/54/115 108/55/115
f 120/59/63 121/65/63 112/58/63
f 109/61/64 118/63/64 123/62/64
f 123/62/116 120/59/116 113/60/116
f 112/58/117 121/65/117 118/63/117
f 103/53/118 115/67/118 114/66/118
f 114/66/119 111/70/119 102/50/119
f 107/55/120 105/54/120 119/57/120
f 104/53/121 110/69/121 115/67/121
f 111/70/122 114/66/122 113/60/122
f 116/64/123 115/67/123 110/69/123
f 113/60/124 114/66/124 115/67/124
f 110/69/125 111/70/125 112/58/125
f 121/65/74 120/59/74 119/57/74
f 124/68/75 123/62/75 118/63/75
f 120/59/76 123/62/76 124/68/76
f 117/71/77 118/63/77 121/65/77
f 111/70/126 110/69/126 104/53/126
f 117/71/53 108/55/53 107/55/53
f 127/72/2 128/72/2 126/73/2
f 130/74/17 132/75/17 131/75/17
f 137/76/79 140/77/79 141/77/79
f 139/78/80 130/74/80 129/74/80
f 128/72/127 147/80/127 138/79/127
f 126/73/82 138/79/82 143/79/82
f 127/72/128 125/73/128 143/79/128
f 144/76/129 141/77/129 136/81/129
f 142/78/130 129/74/130 131/75/130
f 137/76/131 148/82/131 145/81/131
f 146/83/87 135/83/87 131/75/87
f 128/72/88 127/72/88 134/80/88
f 146/83/89 139/78/89 140/77/89
f 137/76/132 138/79/132 147/80/132
f 135/83/91 136/81/91 141/77/91
f 144/76/133 133/82/133 134/80/133
f 135/83/93 146/83/93 145/81/93
f 133/82/94 148/82/94 147/80/94
f 142/78/95 141/77/95 140/77/95
f 144/76/96 143/79/96 138/79/96
f 148/82/97 133/82/97 136/81/97
f 139/78/134 146/83/134 132/75/134
