# Blender 4.4.0
# www.blender.org
mtllib Tool_Pickaxe_02.mtl
o Tool_Pickaxe_02
v 0.041205 0.793572 0.029632
v 0.109744 0.793572 0.025960
v 0.041205 0.793572 -0.029632
v 0.109744 0.793572 -0.025960
v 0.180151 0.787503 0.021668
v 0.180151 0.787503 -0.021668
v 0.263911 0.773341 0.013540
v 0.263911 0.773341 -0.013540
v 0.367903 0.729640 0.002877
v 0.367903 0.729640 -0.002877
v 0.041205 0.820894 0.029632
v 0.114223 0.820894 0.025960
v 0.041205 0.820894 -0.029632
v 0.114223 0.820894 -0.025960
v 0.184602 0.813476 0.021668
v 0.184602 0.813476 -0.021668
v 0.266423 0.795492 0.013540
v 0.266423 0.795492 -0.013540
v 0.362507 0.737017 0.002877
v 0.362507 0.737017 -0.002877
v -0.041206 0.793572 -0.029632
v -0.109744 0.793572 -0.019664
v -0.041206 0.793572 0.029632
v -0.109744 0.793572 0.019664
v -0.214181 0.780197 -0.017954
v -0.214181 0.780197 0.017954
v -0.304690 0.760766 -0.027082
v -0.304690 0.760766 0.027082
v -0.357787 0.741104 -0.031151
v -0.357787 0.741104 0.031151
v -0.041206 0.820894 -0.029632
v -0.114223 0.820894 -0.019664
v -0.041206 0.820894 0.029632
v -0.114223 0.820894 0.019664
v -0.219272 0.802934 -0.018249
v -0.219272 0.802934 0.018249
v -0.311483 0.774897 -0.028405
v -0.311483 0.774897 0.028405
v -0.371342 0.747539 -0.034231
v -0.371342 0.747539 0.034231
v -0.055665 0.845386 0.019432
v -0.052668 0.753467 0.018430
v -0.019432 0.845386 -0.055664
v -0.018430 0.753467 -0.052668
v 0.055664 0.845386 -0.019432
v 0.052667 0.753467 -0.018430
v 0.019432 0.845386 0.055664
v 0.018430 0.753467 0.052668
v -0.052668 0.753467 -0.018430
v 0.018430 0.753467 -0.052668
v 0.052667 0.753467 0.018430
v -0.018430 0.753467 0.052668
v -0.019432 0.845386 0.055664
v -0.055665 0.845386 -0.019432
v 0.019432 0.845386 -0.055664
v 0.055664 0.845386 0.019432
v -0.016268 0.868211 -0.048146
v -0.048146 0.868211 -0.016267
v -0.048146 0.868211 0.016267
v -0.016268 0.868211 0.048146
v 0.016267 0.868211 0.048146
v 0.048146 0.868211 0.016267
v 0.048146 0.868211 -0.016267
v 0.016267 0.868211 -0.048146
v -0.007176 0.041864 0.021239
v -0.021239 0.041864 -0.007176
v 0.007176 0.041864 -0.021239
v 0.021239 0.041864 0.007176
v -0.021239 0.041864 0.007176
v -0.007176 0.041864 -0.021239
v 0.021239 0.041864 -0.007176
v 0.007176 0.041864 0.021239
v -0.021531 -0.000000 0.007486
v -0.007486 -0.000000 0.021530
v -0.007486 -0.000000 -0.021530
v -0.021531 -0.000000 -0.007486
v 0.021530 -0.000000 -0.007486
v 0.007485 -0.000000 -0.021530
v 0.007485 -0.000000 0.021530
v 0.021530 -0.000000 0.007486
v -0.022817 0.041756 0.007917
v -0.007917 0.041756 -0.022817
v 0.022817 0.041756 -0.007917
v 0.007917 0.041756 0.022817
v -0.007917 0.041756 0.022817
v -0.022817 0.041756 -0.007917
v 0.007917 0.041756 -0.022817
v 0.022817 0.041756 0.007917
vn -0.0000 -1.0000 -0.0000
vn -0.0859 -0.9963 -0.0000
vn -0.1667 -0.9860 -0.0000
vn -0.3874 -0.9219 -0.0000
vn -0.0000 1.0000 -0.0000
vn 0.1048 0.9945 -0.0000
vn 0.2147 0.9767 -0.0000
vn 0.5199 0.8542 -0.0000
vn 0.1032 -0.0117 0.9946
vn 0.0535 -0.0000 0.9986
vn 0.0953 -0.0163 0.9953
vn 0.0600 -0.0098 0.9981
vn 0.1456 0.1065 -0.9836
vn 0.0948 -0.0107 -0.9954
vn 0.0598 -0.0102 -0.9982
vn 0.0502 -0.0082 -0.9987
vn 0.8071 0.5904 -0.0000
vn 0.1270 -0.9919 -0.0000
vn 0.2099 -0.9777 -0.0000
vn 0.3472 -0.9378 -0.0000
vn -0.1685 0.9857 -0.0000
vn -0.2909 0.9568 -0.0000
vn -0.4157 0.9095 -0.0000
vn 0.0940 -0.0479 -0.9944
vn -0.1439 -0.0000 -0.9896
vn 0.0984 0.0091 -0.9951
vn -0.0160 -0.0026 -0.9999
vn 0.1575 -0.1363 0.9781
vn 0.1200 -0.0352 0.9922
vn -0.0108 -0.0154 0.9998
vn -0.1352 -0.0222 0.9906
vn -0.4288 -0.9034 -0.0000
vn -0.9995 -0.0326 -0.0000
vn 0.7068 -0.0307 -0.7068
vn -0.7068 -0.0307 -0.7068
vn 0.7068 -0.0307 0.7068
vn -0.7068 -0.0307 0.7068
vn -0.0000 -0.0326 -0.9995
vn 0.9995 -0.0326 -0.0000
vn -0.0000 -0.0326 0.9995
vn -0.0000 -0.0325 0.9995
vn 0.9995 -0.0325 -0.0000
vn -0.0000 -0.0325 -0.9995
vn -0.7068 -0.0308 0.7068
vn 0.7068 -0.0308 0.7068
vn -0.7068 -0.0308 -0.7068
vn 0.7068 -0.0308 -0.7068
vn -0.9995 -0.0325 -0.0000
vn -0.9995 -0.0308 -0.0000
vn 0.7068 -0.0291 -0.7068
vn -0.7068 -0.0291 -0.7068
vn 0.7068 -0.0291 0.7068
vn -0.7068 -0.0291 0.7068
vn -0.0000 -0.0308 -0.9995
vn 0.9995 -0.0308 -0.0000
vn -0.0000 -0.0308 0.9995
vn 0.1456 0.1065 0.9836
vn 0.0502 -0.0082 0.9987
vn 0.0948 -0.0107 0.9954
vn 0.0598 -0.0102 0.9982
vn 0.1032 -0.0117 -0.9946
vn 0.0953 -0.0163 -0.9953
vn 0.0600 -0.0098 -0.9982
vn 0.0535 -0.0000 -0.9986
vn 0.1575 -0.1363 -0.9781
vn -0.1352 -0.0222 -0.9906
vn 0.1200 -0.0352 -0.9922
vn -0.0108 -0.0154 -0.9998
vn 0.0940 -0.0479 0.9944
vn 0.0984 0.0091 0.9951
vn -0.0160 -0.0026 0.9999
vn -0.1439 -0.0000 0.9896
vt 0.600619 0.683087
vt 0.600564 0.683087
vt 0.600560 0.683087
vt 0.600611 0.677696
vt 0.600615 0.683087
vt 0.600603 0.665115
vt 0.600568 0.677696
vt 0.588004 0.739954
vt 0.587987 0.701131
vt 0.587977 0.739954
vt 0.600564 0.707359
vt 0.600619 0.707359
vt 0.600560 0.707359
vt 0.600611 0.700768
vt 0.600615 0.707359
vt 0.600576 0.684793
vt 0.600603 0.684793
vt 0.588004 0.759632
vt 0.587987 0.707685
vt 0.587993 0.707685
vt 0.587977 0.759632
vt 0.600568 0.700768
vt 0.587993 0.701131
vt 0.600570 0.683087
vt 0.600609 0.683087
vt 0.600572 0.671206
vt 0.600563 0.653943
vt 0.600607 0.671206
vt 0.587960 0.711316
vt 0.588017 0.728782
vt 0.587964 0.728782
vt 0.600570 0.707359
vt 0.600609 0.707359
vt 0.600572 0.691404
vt 0.600607 0.691404
vt 0.600561 0.666497
vt 0.588018 0.741336
vt 0.587957 0.717033
vt 0.587962 0.741336
vt 0.588021 0.711316
vt 0.600616 0.653943
vt 0.588024 0.717033
vt 0.600570 0.729116
vt 0.600608 0.647459
vt 0.600571 0.647459
vt 0.600644 0.729116
vt 0.600609 0.729116
vt 0.600641 0.647459
vt 0.600535 0.729116
vt 0.600538 0.647459
vt 0.609655 0.905348
vt 0.609732 0.905348
vt 0.609886 0.857726
vt 0.609822 0.813281
vt 0.609732 0.857726
vt 0.609788 0.813281
vt 0.609753 0.813281
vt 0.609655 0.857726
vt 0.609720 0.813281
vt 0.609810 0.857726
vt 0.575384 0.613448
vt 0.575399 0.645993
vt 0.575398 0.613448
vt 0.575414 0.645993
vt 0.575412 0.613448
vt 0.575369 0.645993
vt 0.575370 0.613448
vt 0.575383 0.645993
vt 0.600576 0.665115
vt 0.600617 0.666497
vt 0.609810 0.905348
vt 0.609886 0.905348
s 0
usemtl Texture_Map
f 3/1/1 2/2/1 1/3/1
f 6/4/2 2/2/2 4/5/2
f 8/6/3 5/7/3 6/4/3
f 8/8/4 9/9/4 7/10/4
f 12/11/5 13/12/5 11/13/5
f 12/11/6 16/14/6 14/15/6
f 16/14/7 17/16/7 18/17/7
f 18/18/8 19/19/8 20/20/8
f 7/10/9 19/19/9 17/21/9
f 2/2/10 11/13/10 1/3/10
f 5/7/11 17/16/11 15/22/11
f 5/7/12 12/11/12 2/2/12
f 8/8/13 20/20/13 10/23/13
f 6/4/14 18/17/14 8/6/14
f 6/4/15 14/15/15 16/14/15
f 4/5/16 13/12/16 14/15/16
f 10/23/17 19/19/17 9/9/17
f 21/1/1 24/24/1 22/25/1
f 26/26/18 22/25/18 24/24/18
f 28/27/19 25/28/19 26/26/19
f 30/29/20 27/30/20 28/31/20
f 31/12/5 34/32/5 33/13/5
f 32/33/21 36/34/21 34/32/21
f 35/35/22 38/36/22 36/34/22
f 37/37/23 40/38/23 38/39/23
f 29/40/24 37/37/24 27/30/24
f 22/25/25 31/12/25 21/1/25
f 27/41/26 35/35/26 25/28/26
f 25/28/27 32/33/27 22/25/27
f 30/29/28 38/39/28 40/38/28
f 28/27/29 36/34/29 38/36/29
f 26/26/30 34/32/30 36/34/30
f 24/24/31 33/13/31 34/32/31
f 29/40/32 40/38/32 39/42/32
f 41/43/33 49/44/33 42/45/33
f 46/44/34 55/46/34 45/47/34
f 49/44/35 43/46/35 44/48/35
f 51/45/36 47/49/36 48/50/36
f 53/49/37 42/45/37 52/50/37
f 43/46/38 50/48/38 44/48/38
f 46/44/39 56/43/39 51/45/39
f 47/49/40 52/50/40 48/50/40
f 49/44/1 50/48/1 51/45/1
f 55/46/5 43/46/5 54/47/5
f 64/51/5 57/51/5 58/52/5
f 61/53/41 65/54/41 72/54/41
f 63/55/42 68/56/42 71/57/42
f 57/58/43 67/59/43 70/59/43
f 60/53/44 69/56/44 65/54/44
f 62/60/45 72/54/45 68/56/45
f 58/55/46 70/59/46 66/57/46
f 64/58/47 71/57/47 67/59/47
f 59/60/48 66/57/48 69/56/48
f 73/61/49 86/62/49 76/63/49
f 77/63/50 87/64/50 83/62/50
f 76/63/51 82/64/51 75/65/51
f 80/61/52 84/66/52 79/67/52
f 85/66/53 73/61/53 74/67/53
f 82/64/54 78/65/54 75/65/54
f 83/62/55 80/61/55 77/63/55
f 84/66/56 74/67/56 79/67/56
f 85/66/5 88/68/5 87/64/5
f 79/67/1 74/67/1 78/65/1
f 3/1/1 4/5/1 2/2/1
f 6/4/2 5/7/2 2/2/2
f 8/6/3 7/69/3 5/7/3
f 8/8/4 10/23/4 9/9/4
f 12/11/5 14/15/5 13/12/5
f 12/11/6 15/22/6 16/14/6
f 16/14/7 15/22/7 17/16/7
f 18/18/8 17/21/8 19/19/8
f 7/10/57 9/9/57 19/19/57
f 2/2/58 12/11/58 11/13/58
f 5/7/59 7/69/59 17/16/59
f 5/7/60 15/22/60 12/11/60
f 8/8/61 18/18/61 20/20/61
f 6/4/62 16/14/62 18/17/62
f 6/4/63 4/5/63 14/15/63
f 4/5/64 3/1/64 13/12/64
f 10/23/17 20/20/17 19/19/17
f 21/1/1 23/3/1 24/24/1
f 26/26/18 25/28/18 22/25/18
f 28/27/19 27/41/19 25/28/19
f 30/29/20 29/40/20 27/30/20
f 31/12/5 32/33/5 34/32/5
f 32/33/21 35/35/21 36/34/21
f 35/35/22 37/70/22 38/36/22
f 37/37/23 39/42/23 40/38/23
f 29/40/65 39/42/65 37/37/65
f 22/25/66 32/33/66 31/12/66
f 27/41/67 37/70/67 35/35/67
f 25/28/68 35/35/68 32/33/68
f 30/29/69 28/31/69 38/39/69
f 28/27/70 26/26/70 36/34/70
f 26/26/71 24/24/71 34/32/71
f 24/24/72 23/3/72 33/13/72
f 29/40/32 30/29/32 40/38/32
f 41/43/33 54/47/33 49/44/33
f 46/44/34 50/48/34 55/46/34
f 49/44/35 54/47/35 43/46/35
f 51/45/36 56/43/36 47/49/36
f 53/49/37 41/43/37 42/45/37
f 43/46/38 55/46/38 50/48/38
f 46/44/39 45/47/39 56/43/39
f 47/49/40 53/49/40 52/50/40
f 52/50/1 42/45/1 49/44/1
f 49/44/1 44/48/1 50/48/1
f 50/48/1 46/44/1 51/45/1
f 51/45/1 48/50/1 52/50/1
f 52/50/1 49/44/1 51/45/1
f 54/47/5 41/43/5 56/43/5
f 41/43/5 53/49/5 56/43/5
f 53/49/5 47/49/5 56/43/5
f 56/43/5 45/47/5 54/47/5
f 45/47/5 55/46/5 54/47/5
f 58/52/5 59/71/5 62/71/5
f 59/71/5 60/72/5 62/71/5
f 60/72/5 61/72/5 62/71/5
f 62/71/5 63/52/5 58/52/5
f 63/52/5 64/51/5 58/52/5
f 61/53/41 60/53/41 65/54/41
f 63/55/42 62/60/42 68/56/42
f 57/58/43 64/58/43 67/59/43
f 60/53/44 59/60/44 69/56/44
f 62/60/45 61/53/45 72/54/45
f 58/55/46 57/58/46 70/59/46
f 64/58/47 63/55/47 71/57/47
f 59/60/48 58/55/48 66/57/48
f 73/61/49 81/68/49 86/62/49
f 77/63/50 78/65/50 87/64/50
f 76/63/51 86/62/51 82/64/51
f 80/61/52 88/68/52 84/66/52
f 85/66/53 81/68/53 73/61/53
f 82/64/54 87/64/54 78/65/54
f 83/62/55 88/68/55 80/61/55
f 84/66/56 85/66/56 74/67/56
f 86/62/5 81/68/5 85/66/5
f 85/66/5 84/66/5 88/68/5
f 88/68/5 83/62/5 87/64/5
f 87/64/5 82/64/5 86/62/5
f 86/62/5 85/66/5 87/64/5
f 74/67/1 73/61/1 76/63/1
f 76/63/1 75/65/1 74/67/1
f 75/65/1 78/65/1 74/67/1
f 78/65/1 77/63/1 80/61/1
f 80/61/1 79/67/1 78/65/1
