# Blender 4.4.0
# www.blender.org
mtllib Tool_Wheelbarrow_01.mtl
o Tool_Wheelbarrow_01
v 0.008242 0.326084 -0.314710
v -0.008242 0.326084 -0.314710
v -0.019898 0.314428 -0.314710
v -0.019898 0.297944 -0.314710
v -0.008242 0.286288 -0.314710
v 0.008242 0.286288 -0.314710
v 0.019898 0.297944 -0.314710
v 0.019898 0.314428 -0.314710
v 0.008242 0.326084 0.317049
v -0.008242 0.326084 0.317049
v -0.019898 0.314428 0.317049
v -0.019898 0.297944 0.317049
v -0.008242 0.286288 0.317049
v 0.008242 0.286288 0.317049
v 0.019898 0.297944 0.317049
v 0.019898 0.314428 0.317049
v 0.298422 0.363486 0.309162
v 1.232245 0.404110 0.309162
v 0.298429 0.363311 0.276351
v 1.232252 0.403936 0.276351
v 0.286027 0.648400 0.276351
v 0.286027 0.648400 0.309162
v 1.219850 0.689025 0.309162
v 1.219850 0.689025 0.276351
v 1.227994 0.501825 0.276351
v 1.228063 0.500241 0.276351
v 1.223905 0.595821 0.276351
v 1.223974 0.594237 0.309162
v 1.227994 0.501825 0.309162
v 0.294171 0.461200 0.309162
v 0.290151 0.553613 0.309162
v 0.290082 0.555196 0.276351
v 0.294240 0.459617 0.276351
v 0.294171 0.461200 0.276351
v 1.223676 0.601070 0.309162
v 1.223905 0.595821 0.303908
v 1.228063 0.500241 0.303908
v 1.228291 0.494992 0.309162
v 0.294468 0.454368 0.309162
v 0.294240 0.459617 0.303908
v 0.290082 0.555196 0.303908
v 0.289853 0.560445 0.309162
v 1.224261 0.587645 0.276351
v 1.223974 0.594237 0.282949
v 0.290151 0.553613 0.282949
v 0.290437 0.547021 0.276351
v 0.298422 0.363486 -0.309162
v 1.232245 0.404110 -0.309162
v 0.298429 0.363311 -0.276351
v 1.232253 0.403936 -0.276351
v 0.286027 0.648400 -0.276351
v 0.286027 0.648400 -0.309162
v 1.219850 0.689025 -0.309162
v 1.219850 0.689025 -0.276351
v 1.227994 0.501825 -0.276351
v 1.228063 0.500241 -0.276351
v 1.223905 0.595821 -0.276351
v 1.223974 0.594237 -0.309162
v 1.227994 0.501825 -0.309162
v 0.294171 0.461200 -0.309162
v 0.290151 0.553613 -0.309162
v 0.290082 0.555196 -0.276351
v 0.294240 0.459617 -0.276351
v 0.294171 0.461200 -0.276351
v 1.223677 0.601070 -0.309162
v 1.223905 0.595821 -0.303909
v 1.228063 0.500241 -0.303909
v 1.228291 0.494993 -0.309162
v 0.294468 0.454368 -0.309162
v 0.294240 0.459617 -0.303909
v 0.290082 0.555196 -0.303909
v 0.289853 0.560445 -0.309162
v 1.224261 0.587645 -0.276351
v 1.223974 0.594237 -0.282950
v 0.290151 0.553613 -0.282950
v 0.290437 0.547021 -0.276351
v 0.300630 0.353391 -0.276351
v 0.300630 0.353391 0.276351
v 0.333441 0.353391 -0.276351
v 0.333441 0.353391 0.276351
v 0.333441 0.629072 -0.276351
v 0.300630 0.629072 -0.276351
v 0.300630 0.629072 0.276351
v 0.333441 0.629072 0.276351
v 0.333441 0.490484 0.276351
v 0.300630 0.491979 0.276351
v 0.300630 0.491979 -0.276351
v 0.333441 0.490484 -0.276351
v 0.303963 0.490484 0.276351
v 0.300630 0.487152 0.276351
v 0.300630 0.487152 -0.276351
v 0.303963 0.490484 -0.276351
v 0.326403 0.491979 0.276351
v 0.333441 0.499017 0.276351
v 0.333441 0.499017 -0.276351
v 0.326403 0.491979 -0.276351
v -0.034177 0.330399 0.309162
v 2.049471 0.410553 0.309162
v -0.034177 0.330399 0.276351
v 2.049471 0.410553 0.276351
v -0.031928 0.278713 0.276351
v -0.031928 0.278713 0.309162
v 2.051719 0.358867 0.309162
v 2.051719 0.358867 0.276351
v 1.537312 0.398764 0.309162
v 1.537312 0.398764 0.276351
v 1.539561 0.347078 0.309162
v 1.539561 0.347078 0.276351
v 1.876234 0.403017 0.309162
v 1.878037 0.361573 0.309162
v 1.876234 0.403017 0.276351
v 1.878037 0.361573 0.276351
v -0.034177 0.330399 -0.309162
v 2.049471 0.410553 -0.309162
v -0.034177 0.330399 -0.276351
v 2.049471 0.410553 -0.276351
v -0.031928 0.278713 -0.276351
v -0.031928 0.278713 -0.309162
v 2.051719 0.358867 -0.309162
v 2.051719 0.358867 -0.276351
v 1.537312 0.398764 -0.309162
v 1.537312 0.398764 -0.276351
v 1.539561 0.347078 -0.309162
v 1.539561 0.347078 -0.276351
v 1.876234 0.403017 -0.309162
v 1.878037 0.361573 -0.309162
v 1.876234 0.403017 -0.276351
v 1.878037 0.361573 -0.276351
v 1.213168 -0.000000 0.301166
v 1.248690 -0.000000 0.301166
v 1.186491 0.340153 0.301166
v 1.244617 0.342682 0.301166
v 1.186491 0.340153 0.315757
v 1.213168 -0.000000 0.315757
v 1.248690 -0.000000 0.315757
v 1.244617 0.342682 0.315757
v 1.213168 -0.000000 -0.301167
v 1.248690 -0.000000 -0.301167
v 1.186491 0.340153 -0.301167
v 1.244617 0.342682 -0.301167
v 1.186491 0.340153 -0.315757
v 1.213168 -0.000000 -0.315757
v 1.248690 -0.000000 -0.315757
v 1.244617 0.342682 -0.315757
v 0.299230 0.344903 0.309162
v 1.247043 0.385528 0.309162
v 0.299230 0.344903 -0.309162
v 1.247043 0.385528 -0.309162
v 0.298294 0.366413 0.309162
v 1.246107 0.407037 0.309162
v 0.298294 0.366413 -0.309162
v 1.246107 0.407037 -0.309162
vn 1.0000 -0.0000 -0.0000
vn -0.0000 -1.0000 -0.0000
vn -1.0000 -0.0000 -0.0000
vn -0.0000 1.0000 -0.0000
vn 0.7071 0.7071 -0.0000
vn 0.7071 -0.7071 -0.0000
vn -0.7071 -0.7071 -0.0000
vn -0.7071 0.7071 -0.0000
vn -0.0000 -0.0000 -1.0000
vn -0.0000 -0.0000 1.0000
vn -0.0435 0.9991 -0.0000
vn -0.9991 -0.0435 -0.0000
vn 0.9991 0.0435 -0.0000
vn 0.0435 -0.9991 -0.0000
vn -0.0307 0.7064 0.7071
vn 0.0307 -0.7064 0.7071
vn -0.0307 0.7064 -0.7071
vn 0.0307 -0.7064 -0.7071
vn -0.0156 -0.9999 -0.0000
vn 0.0428 -0.9991 -0.0000
vn -0.0125 0.9999 -0.0000
vn 0.9999 0.0119 -0.0000
vn -0.9969 -0.0782 -0.0000
vn -0.0428 0.9991 -0.0000
vt 0.607342 0.896367
vt 0.607342 0.928244
vt 0.607342 0.928245
vt 0.604677 0.873826
vt 0.606238 0.873826
vt 0.603573 0.928244
vt 0.603573 0.896367
vt 0.603573 0.928245
vt 0.606238 0.950787
vt 0.604677 0.950787
vt 0.198003 0.878746
vt 0.198843 0.885469
vt 0.198010 0.847504
vt 0.198850 0.854227
vt 0.198006 0.864190
vt 0.198846 0.870913
vt 0.203699 0.835514
vt 0.204539 0.842237
vt 0.204535 0.857530
vt 0.203695 0.850807
vt 0.198006 0.863321
vt 0.198014 0.831567
vt 0.198014 0.831595
vt 0.198010 0.846636
vt 0.203695 0.849716
vt 0.204536 0.856439
vt 0.198847 0.870044
vt 0.198854 0.838289
vt 0.198854 0.838318
vt 0.198851 0.853358
vt 0.203691 0.866493
vt 0.204532 0.873216
vt 0.203699 0.835252
vt 0.204539 0.841975
vt 0.203695 0.851938
vt 0.204535 0.858661
vt 0.198010 0.847766
vt 0.198006 0.863059
vt 0.198847 0.869782
vt 0.198850 0.854489
vt 0.203695 0.851069
vt 0.203702 0.819314
vt 0.203699 0.834383
vt 0.203702 0.819343
vt 0.198847 0.868691
vt 0.198007 0.861968
vt 0.204535 0.857792
vt 0.204543 0.826037
vt 0.204543 0.826066
vt 0.204539 0.841106
vt 0.203734 0.817673
vt 0.203734 0.840360
vt 0.203734 0.840360
vt 0.203704 0.863295
vt 0.203734 0.863295
vt 0.203704 0.817673
vt 0.203704 0.839808
vt 0.203704 0.840607
vt 0.203704 0.840607
vt 0.203707 0.840360
vt 0.203734 0.841772
vt 0.203728 0.840607
vt 0.203707 0.840360
vt 0.203728 0.840607
vt 0.203734 0.841772
vt 0.189775 0.965818
vt 0.189697 0.974416
vt 0.189774 0.918533
vt 0.189696 0.915446
vt 0.189929 0.960966
vt 0.189928 0.901996
vt 0.190641 0.823994
vt 0.190642 0.882965
vt 0.189696 0.915445
vt 0.189928 0.901995
vt 0.245858 0.815068
vt 0.244823 0.869414
vt 0.247079 0.869817
vt 0.247237 0.815068
vt 0.219169 0.828673
vt 0.216747 0.913696
vt 0.219171 0.873690
vt 0.216749 0.958713
s 0
usemtl Texture_Map
f 7/1/1 8/2/1 16/3/1 15/1/1
f 5/4/2 6/5/2 14/5/2 13/4/2
f 3/6/3 4/7/3 12/7/3 11/8/3
f 1/9/4 2/10/4 10/10/4 9/9/4
f 8/2/5 1/9/5 9/9/5 16/3/5
f 6/5/6 7/1/6 15/1/6 14/5/6
f 4/7/7 5/4/7 13/4/7 12/7/7
f 2/10/8 3/6/8 11/8/8 10/10/8
f 2/10/9 1/9/9 8/2/9 7/1/9 6/5/9 5/4/9 4/7/9 3/6/9
f 10/10/10 11/8/10 12/7/10 13/4/10 14/5/10 15/1/10 16/3/10 9/9/10
f 22/11/11 23/12/11 24/12/11 21/11/11
f 40/13/11 37/14/11 26/14/11 33/13/11
f 42/15/10 35/16/10 23/12/10 22/11/10
f 30/17/10 29/18/10 28/19/10 31/20/10
f 32/21/12 41/21/12 42/15/12 22/11/12 21/11/12
f 19/22/12 17/23/12 39/24/12 40/13/12 33/13/12
f 25/18/9 34/17/9 46/25/9 43/26/9
f 27/27/9 32/21/9 21/11/9 24/12/9
f 20/28/9 19/22/9 33/13/9 26/14/9
f 34/17/12 30/17/12 31/20/12 45/20/12 46/25/12
f 29/18/13 25/18/13 43/26/13 44/19/13 28/19/13
f 35/16/13 36/27/13 27/27/13 24/12/13 23/12/13
f 18/29/13 20/28/13 26/14/13 37/14/13 38/30/13
f 29/18/14 30/17/14 34/17/14 25/18/14
f 17/23/10 18/29/10 38/30/10 39/24/10
f 39/24/15 38/30/15 37/14/15 40/13/15
f 35/16/16 42/15/16 41/21/16 36/27/16
f 36/27/14 41/21/14 32/21/14 27/27/14
f 43/26/17 46/25/17 45/20/17 44/19/17
f 31/20/11 28/19/11 44/19/11 45/20/11
f 52/31/11 51/31/11 54/32/11 53/32/11
f 70/33/11 63/33/11 56/34/11 67/34/11
f 72/35/9 52/31/9 53/32/9 65/36/9
f 60/37/9 61/38/9 58/39/9 59/40/9
f 62/41/12 51/31/12 52/31/12 72/35/12 71/41/12
f 49/42/12 63/33/12 70/33/12 69/43/12 47/44/12
f 55/40/10 73/45/10 76/46/10 64/37/10
f 57/47/10 54/32/10 51/31/10 62/41/10
f 50/48/10 56/34/10 63/33/10 49/42/10
f 64/37/12 76/46/12 75/38/12 61/38/12 60/37/12
f 59/40/13 58/39/13 74/39/13 73/45/13 55/40/13
f 65/36/13 53/32/13 54/32/13 57/47/13 66/47/13
f 48/49/13 68/50/13 67/34/13 56/34/13 50/48/13
f 59/40/14 55/40/14 64/37/14 60/37/14
f 47/44/9 69/43/9 68/50/9 48/49/9
f 69/43/17 70/33/17 67/34/17 68/50/17
f 65/36/18 66/47/18 71/41/18 72/35/18
f 66/47/14 57/47/14 62/41/14 71/41/14
f 73/45/15 74/39/15 75/38/15 76/46/15
f 61/38/11 75/38/11 74/39/11 58/39/11
f 80/51/1 79/51/1 88/52/1 85/53/1
f 82/54/4 83/54/4 84/55/4 81/55/4
f 77/56/3 78/56/3 90/57/3 91/57/3
f 87/58/3 86/59/3 83/54/3 82/54/3
f 79/51/9 77/56/9 91/57/9 92/60/9 88/52/9
f 95/61/9 96/62/9 87/58/9 82/54/9 81/55/9
f 78/56/10 80/51/10 85/53/10 89/63/10 90/57/10
f 86/59/10 93/64/10 94/65/10 84/55/10 83/54/10
f 86/59/2 87/58/2 96/62/2 93/64/2
f 91/57/8 90/57/8 89/63/8 92/60/8
f 92/60/4 89/63/4 85/53/4 88/52/4
f 95/61/6 94/65/6 93/64/6 96/62/6
f 94/65/1 95/61/1 81/55/1 84/55/1
f 109/66/11 98/67/11 100/67/11 111/66/11
f 110/68/19 112/68/19 104/69/19 103/69/19
f 106/70/9 108/71/9 101/72/9 99/73/9
f 109/66/10 110/68/10 103/69/10 98/67/10
f 98/67/13 103/69/13 104/69/13 100/67/13
f 99/73/12 101/72/12 102/72/12 97/73/12
f 97/73/10 102/72/10 107/71/10 105/70/10
f 111/66/9 112/68/9 108/71/9 106/70/9
f 102/72/14 101/72/14 108/71/14 107/71/14
f 97/73/11 105/70/11 106/70/11 99/73/11
f 100/67/9 104/69/9 112/68/9 111/66/9
f 105/70/10 107/71/10 110/68/10 109/66/10
f 107/71/20 108/71/20 112/68/20 110/68/20
f 105/70/21 109/66/21 111/66/21 106/70/21
f 125/66/11 127/66/11 116/67/11 114/67/11
f 126/68/19 119/74/19 120/74/19 128/68/19
f 122/70/10 115/73/10 117/72/10 124/75/10
f 125/66/9 114/67/9 119/74/9 126/68/9
f 114/67/13 116/67/13 120/74/13 119/74/13
f 115/73/12 113/73/12 118/72/12 117/72/12
f 113/73/9 121/70/9 123/75/9 118/72/9
f 127/66/10 122/70/10 124/75/10 128/68/10
f 118/72/14 123/75/14 124/75/14 117/72/14
f 113/73/11 115/73/11 122/70/11 121/70/11
f 116/67/10 127/66/10 128/68/10 120/74/10
f 121/70/9 125/66/9 126/68/9 123/75/9
f 123/75/20 126/68/20 128/68/20 124/75/20
f 121/70/21 122/70/21 127/66/21 125/66/21
f 129/76/9 131/77/9 132/78/9 130/79/9
f 134/76/10 135/79/10 136/78/10 133/77/10
f 132/78/11 131/77/11 133/77/11 136/78/11
f 129/76/2 130/79/2 135/79/2 134/76/2
f 130/79/22 132/78/22 136/78/22 135/79/22
f 131/77/23 129/76/23 134/76/23 133/77/23
f 137/76/10 138/79/10 140/78/10 139/77/10
f 142/76/9 141/77/9 144/78/9 143/79/9
f 140/78/11 144/78/11 141/77/11 139/77/11
f 137/76/2 142/76/2 143/79/2 138/79/2
f 138/79/22 143/79/22 144/78/22 140/78/22
f 139/77/23 141/77/23 142/76/23 137/76/23
f 145/80/20 147/80/20 148/81/20 146/81/20
f 149/82/24 150/83/24 152/83/24 151/82/24
f 148/81/9 147/80/9 151/82/9 152/83/9
f 145/80/10 146/81/10 150/83/10 149/82/10
f 146/81/13 148/81/13 152/83/13 150/83/13
f 147/80/12 145/80/12 149/82/12 151/82/12
o Tool_Wheelbarrow_Wheel_01
v 0.080696 0.607345 -0.031603
v -0.080695 0.607345 -0.031603
v -0.220464 0.526650 -0.031603
v -0.301159 0.386881 -0.031603
v -0.301159 0.225491 -0.031603
v -0.220464 0.085722 -0.031603
v -0.080695 0.005027 -0.031603
v 0.080696 0.005027 -0.031603
v 0.220464 0.085722 -0.031603
v 0.301159 0.225491 -0.031603
v 0.301159 0.386881 -0.031603
v 0.220464 0.526650 -0.031603
v 0.080696 0.607345 0.031603
v -0.080695 0.607345 0.031603
v -0.220464 0.526650 0.031603
v -0.301159 0.386881 0.031603
v -0.301159 0.225491 0.031603
v -0.220464 0.085722 0.031603
v -0.080695 0.005027 0.031603
v 0.080696 0.005027 0.031603
v 0.220464 0.085722 0.031603
v 0.301159 0.225491 0.031603
v 0.301159 0.386881 0.031603
v 0.220464 0.526650 0.031603
v -0.069316 0.564876 -0.031603
v 0.069316 0.564876 -0.031603
v -0.189374 0.495560 -0.031603
v -0.258690 0.375502 -0.031603
v -0.258690 0.236870 -0.031603
v -0.189374 0.116812 -0.031603
v -0.069316 0.047496 -0.031603
v 0.069316 0.047496 -0.031603
v 0.189374 0.116812 -0.031603
v 0.258690 0.236870 -0.031603
v 0.258690 0.375502 -0.031603
v 0.189374 0.495560 -0.031603
v -0.069316 0.564876 0.031603
v 0.069316 0.564876 0.031603
v -0.189374 0.495560 0.031603
v -0.258690 0.375502 0.031603
v -0.258690 0.236870 0.031603
v -0.189374 0.116812 0.031603
v -0.069316 0.047496 0.031603
v 0.069316 0.047496 0.031603
v 0.189374 0.116812 0.031603
v 0.258690 0.236870 0.031603
v 0.258690 0.375502 0.031603
v 0.189374 0.495560 0.031603
v 0.036988 0.269199 -0.028570
v -0.013538 0.356712 -0.028570
v 0.013538 0.356712 -0.028570
v 0.036988 0.343173 -0.028570
v -0.050526 0.292648 -0.028570
v 0.013538 0.255660 -0.028570
v 0.050526 0.319724 -0.028570
v 0.050526 0.292648 -0.028570
v -0.050526 0.319724 -0.028570
v -0.036987 0.343173 -0.028570
v -0.013538 0.255660 -0.028570
v -0.036987 0.269199 -0.028570
v -0.036987 0.269199 0.028570
v -0.013538 0.255660 0.028570
v -0.036987 0.343173 0.028570
v -0.050526 0.319724 0.028570
v 0.050526 0.292648 0.028570
v 0.050526 0.319724 0.028570
v 0.013538 0.255660 0.028570
v -0.050526 0.292648 0.028570
v 0.036988 0.343173 0.028570
v 0.013538 0.356712 0.028570
v -0.013538 0.356712 0.028570
v 0.036988 0.269199 0.028570
v -0.012118 0.356712 0.012119
v 0.012119 0.356712 0.012119
v -0.012118 0.356712 -0.012119
v 0.012119 0.356712 -0.012119
v -0.023907 0.576563 -0.024340
v -0.023907 0.576563 0.023475
v 0.023907 0.576563 0.023475
v 0.023907 0.576563 -0.024340
v 0.050526 0.318305 0.012119
v 0.050526 0.294067 0.012119
v 0.050526 0.318305 -0.012119
v 0.050526 0.294067 -0.012119
v 0.270378 0.330093 -0.024340
v 0.270378 0.330093 0.023475
v 0.270378 0.282279 0.023475
v 0.270378 0.282279 -0.024340
v 0.012119 0.255660 0.012119
v -0.012118 0.255660 0.012119
v 0.012119 0.255660 -0.012119
v -0.012118 0.255660 -0.012119
v 0.023907 0.035809 -0.024340
v 0.023907 0.035809 0.023474
v -0.023907 0.035809 0.023474
v -0.023907 0.035809 -0.024340
v -0.050526 0.294067 0.012119
v -0.050526 0.318305 0.012119
v -0.050526 0.294067 -0.012119
v -0.050526 0.318305 -0.012119
v -0.270377 0.282279 -0.024340
v -0.270377 0.282279 0.023475
v -0.270377 0.330093 0.023475
v -0.270377 0.330093 -0.024340
v -0.044296 0.333344 0.012119
v -0.027158 0.350482 0.012119
v -0.044296 0.333344 -0.012119
v -0.027158 0.350482 -0.012119
v -0.208090 0.480467 -0.024340
v -0.208090 0.480467 0.023475
v -0.174281 0.514277 0.023475
v -0.174281 0.514277 -0.024340
v 0.027158 0.350482 0.012119
v 0.044296 0.333344 0.012119
v 0.027158 0.350482 -0.012119
v 0.044296 0.333344 -0.012119
v 0.174281 0.514277 -0.024340
v 0.174281 0.514277 0.023475
v 0.208091 0.480467 0.023475
v 0.208091 0.480467 -0.024340
v 0.044296 0.279028 0.012119
v 0.027158 0.261890 0.012119
v 0.044296 0.279028 -0.012119
v 0.027158 0.261890 -0.012119
v 0.208091 0.131905 -0.024340
v 0.208091 0.131905 0.023474
v 0.174281 0.098095 0.023474
v 0.174281 0.098095 -0.024340
v -0.027158 0.261890 0.012119
v -0.044296 0.279028 0.012119
v -0.027158 0.261890 -0.012119
v -0.044296 0.279028 -0.012119
v -0.174281 0.098096 -0.024340
v -0.174281 0.098096 0.023474
v -0.208091 0.131905 0.023474
v -0.208091 0.131905 -0.024340
vn -0.5000 -0.8660 -0.0000
vn -0.8660 0.5000 -0.0000
vn 1.0000 -0.0000 -0.0000
vn -0.0000 -1.0000 -0.0000
vn -1.0000 -0.0000 -0.0000
vn 0.8660 0.5000 -0.0000
vn -0.0000 1.0000 -0.0000
vn 0.5000 -0.8660 -0.0000
vn -0.8660 -0.5000 -0.0000
vn 0.5000 0.8660 -0.0000
vn -0.5000 0.8660 -0.0000
vn 0.8660 -0.5000 -0.0000
vn -0.0000 -0.0000 -1.0000
vn -0.0000 -0.0000 1.0000
vn -0.0000 -0.0555 -0.9985
vn -0.0000 -0.0516 0.9987
vn 0.9986 -0.0535 -0.0000
vn -0.9986 -0.0535 -0.0000
vn -0.0555 -0.0000 -0.9985
vn -0.0516 -0.0000 0.9987
vn -0.0535 -0.9986 -0.0000
vn -0.0535 0.9986 -0.0000
vn -0.0000 0.0555 -0.9985
vn -0.0000 0.0516 0.9987
vn -0.9986 0.0535 -0.0000
vn 0.9986 0.0535 -0.0000
vn 0.0555 -0.0000 -0.9985
vn 0.0516 -0.0000 0.9987
vn 0.0535 0.9986 -0.0000
vn 0.0535 -0.9986 -0.0000
vn 0.7071 -0.7071 -0.0000
vn 0.0392 -0.0392 -0.9985
vn 0.0365 -0.0365 0.9987
vn 0.7440 0.6682 -0.0000
vn -0.6682 -0.7440 -0.0000
vn -0.7071 -0.7071 -0.0000
vn -0.0392 -0.0392 -0.9985
vn -0.0365 -0.0365 0.9987
vn 0.6682 -0.7440 -0.0000
vn -0.7440 0.6682 -0.0000
vn -0.7071 0.7071 -0.0000
vn -0.0392 0.0392 -0.9985
vn -0.0365 0.0365 0.9987
vn -0.7440 -0.6682 -0.0000
vn 0.6682 0.7440 -0.0000
vn 0.7071 0.7071 -0.0000
vn 0.0392 0.0392 -0.9985
vn 0.0365 0.0365 0.9987
vn -0.6682 0.7440 -0.0000
vn 0.7440 -0.6682 -0.0000
vt 0.238052 0.859464
vt 0.238022 0.855179
vt 0.238052 0.882878
vt 0.238070 0.875456
vt 0.237939 0.866886
vt 0.237939 0.875456
vt 0.237987 0.855179
vt 0.238070 0.866886
vt 0.237956 0.882878
vt 0.237987 0.887163
vt 0.238022 0.887163
vt 0.237956 0.859464
vt 0.606523 0.926968
vt 0.606523 0.905344
vt 0.582664 0.846747
vt 0.582582 0.835265
vt 0.582664 0.909487
vt 0.582711 0.889599
vt 0.582360 0.866635
vt 0.582360 0.889599
vt 0.582488 0.835265
vt 0.582711 0.866635
vt 0.582407 0.909487
vt 0.582488 0.920969
vt 0.582582 0.920969
vt 0.582407 0.846747
vt 0.582685 0.841597
vt 0.582590 0.828230
vt 0.582331 0.864750
vt 0.582386 0.841597
vt 0.582685 0.914637
vt 0.582590 0.928005
vt 0.582481 0.828230
vt 0.582331 0.891484
vt 0.582740 0.891484
vt 0.582386 0.914637
vt 0.582481 0.928005
vt 0.582740 0.864750
vt 0.606126 0.886616
vt 0.606126 0.945695
vt 0.605437 0.956507
vt 0.604642 0.956507
vt 0.603954 0.945695
vt 0.603556 0.926968
vt 0.603556 0.905344
vt 0.603954 0.886616
vt 0.604642 0.875804
vt 0.605437 0.875804
vt 0.231074 0.852500
vt 0.231196 0.852500
vt 0.231015 0.896533
vt 0.231255 0.896533
vt 0.224541 0.895371
vt 0.224541 0.883692
vt 0.224541 0.883692
vt 0.227187 0.901052
vt 0.227187 0.878011
vt 0.225933 0.912059
vt 0.225641 0.912059
vt 0.226075 0.806117
vt 0.225499 0.806117
vt 0.231625 0.859973
vt 0.231625 0.864827
vt 0.230526 0.857612
vt 0.230526 0.867188
vt 0.226473 0.863556
vt 0.226680 0.871814
vt 0.224502 0.934452
vt 0.224909 0.950744
vt 0.224581 0.859313
vt 0.224788 0.851054
vt 0.226352 0.938242
vt 0.226759 0.921950
vt 0.226759 0.921950
vt 0.230883 0.874820
vt 0.230798 0.871387
vt 0.231703 0.845353
vt 0.231533 0.838582
vt 0.226631 0.909202
vt 0.226425 0.917461
vt 0.224860 0.830272
vt 0.224453 0.846565
s 0
usemtl Texture_Map
f 158/84/25 159/85/25 171/85/25 170/84/25
f 155/86/26 156/87/26 168/87/26 167/86/26
f 162/88/27 163/89/27 175/89/27 174/88/27
f 159/85/28 160/90/28 172/90/28 171/85/28
f 156/87/29 157/91/29 169/91/29 168/87/29
f 163/89/30 164/92/30 176/92/30 175/89/30
f 153/93/31 154/94/31 166/94/31 165/93/31
f 160/90/32 161/95/32 173/95/32 172/90/32
f 157/91/33 158/84/33 170/84/33 169/91/33
f 164/92/34 153/93/34 165/93/34 176/92/34
f 154/94/35 155/86/35 167/86/35 166/94/35
f 218/96/27 217/97/27 208/97/27 207/96/27
f 182/98/34 194/98/34 195/99/34 183/99/34
f 179/100/36 191/100/36 192/101/36 180/101/36
f 186/102/29 198/102/29 199/103/29 187/103/29
f 183/99/31 195/99/31 196/104/31 184/104/31
f 180/101/27 192/101/27 193/105/27 181/105/27
f 187/103/33 199/103/33 200/106/33 188/106/33
f 178/107/28 190/107/28 189/108/28 177/108/28
f 184/104/35 196/104/35 197/109/35 185/109/35
f 181/105/30 193/105/30 194/98/30 182/98/30
f 188/106/25 200/106/25 190/107/25 178/107/25
f 177/108/32 189/108/32 191/100/32 179/100/32
f 158/110/37 182/98/37 183/99/37 159/111/37
f 174/112/38 198/102/38 197/109/38 173/113/38
f 167/114/38 191/100/38 189/108/38 166/115/38
f 159/111/37 183/99/37 184/104/37 160/116/37
f 175/117/38 199/103/38 198/102/38 174/112/38
f 168/118/38 192/101/38 191/100/38 167/114/38
f 160/116/37 184/104/37 185/109/37 161/113/37
f 176/119/38 200/106/38 199/103/38 175/117/38
f 153/120/37 178/107/37 177/108/37 154/115/37
f 169/121/38 193/105/38 192/101/38 168/118/38
f 161/113/37 185/109/37 186/102/37 162/112/37
f 165/120/38 190/107/38 200/106/38 176/119/38
f 154/115/37 177/108/37 179/100/37 155/114/37
f 170/110/38 194/98/38 193/105/38 169/121/38
f 162/112/37 186/102/37 187/103/37 163/117/37
f 155/114/37 179/100/37 180/101/37 156/118/37
f 171/111/38 195/99/38 194/98/38 170/110/38
f 163/117/37 187/103/37 188/106/37 164/119/37
f 156/118/37 180/101/37 181/105/37 157/121/37
f 172/116/38 196/104/38 195/99/38 171/111/38
f 164/119/37 188/106/37 178/107/37 153/120/37
f 157/121/37 181/105/37 182/98/37 158/110/37
f 173/113/38 197/109/38 196/104/38 172/116/38
f 166/115/38 189/108/38 190/107/38 165/120/38
f 224/122/38 217/97/38 218/96/38 221/123/38 222/124/38 223/125/38 215/126/38 216/127/38 220/128/38 213/129/38 214/130/38 219/131/38
f 222/124/34 221/123/34 204/123/34 203/124/34
f 223/125/31 222/124/31 203/124/31 202/125/31
f 219/131/28 214/130/28 211/130/28 206/131/28
f 215/126/35 223/125/35 202/125/35 210/126/35
f 214/130/25 213/129/25 212/129/25 211/130/25
f 224/122/32 219/131/32 206/131/32 201/122/32
f 220/128/29 216/127/29 209/127/29 205/128/29
f 217/97/36 224/122/36 201/122/36 208/97/36
f 216/127/26 215/126/26 210/126/26 209/127/26
f 213/129/33 220/128/33 205/128/33 212/129/33
f 221/123/30 218/96/30 207/96/30 204/123/30
f 185/109/26 197/109/26 198/102/26 186/102/26
f 212/129/37 205/128/37 209/127/37 210/126/37 202/125/37 203/124/37 204/123/37 207/96/37 208/97/37 201/122/37 206/131/37 211/130/37
f 225/132/28 227/132/28 228/133/28 226/133/28
f 228/133/39 227/132/39 229/134/39 232/135/39
f 225/132/40 226/133/40 231/135/40 230/134/40
f 226/133/41 228/133/41 232/135/41 231/135/41
f 227/132/42 225/132/42 230/134/42 229/134/42
f 233/136/29 235/136/29 236/137/29 234/138/29
f 236/137/43 235/136/43 237/139/43 240/140/43
f 233/136/44 234/138/44 239/140/44 238/139/44
f 234/138/45 236/137/45 240/140/45 239/140/45
f 235/136/46 233/136/46 238/139/46 237/139/46
f 241/141/31 243/141/31 244/142/31 242/142/31
f 244/142/47 243/141/47 245/143/47 248/144/47
f 241/141/48 242/142/48 247/144/48 246/143/48
f 242/142/49 244/142/49 248/144/49 247/144/49
f 243/141/50 241/141/50 246/143/50 245/143/50
f 249/145/27 251/145/27 252/146/27 250/146/27
f 252/146/51 251/145/51 253/147/51 256/148/51
f 249/145/52 250/146/52 255/148/52 254/147/52
f 250/146/53 252/146/53 256/148/53 255/148/53
f 251/145/54 249/145/54 254/147/54 253/147/54
f 257/149/55 259/149/55 260/150/55 258/150/55
f 260/150/56 259/149/56 261/151/56 264/152/56
f 257/149/57 258/150/57 263/152/57 262/151/57
f 258/150/58 260/150/58 264/152/58 263/152/58
f 259/149/59 257/149/59 262/151/59 261/151/59
f 265/153/60 267/153/60 268/154/60 266/154/60
f 268/154/61 267/153/61 269/155/61 272/156/61
f 265/153/62 266/154/62 271/157/62 270/155/62
f 266/154/63 268/154/63 272/156/63 271/157/63
f 267/153/64 265/153/64 270/155/64 269/155/64
f 273/158/65 275/158/65 276/159/65 274/159/65
f 276/159/66 275/158/66 277/160/66 280/161/66
f 273/158/67 274/159/67 279/161/67 278/160/67
f 274/159/68 276/159/68 280/161/68 279/161/68
f 275/158/69 273/158/69 278/160/69 277/160/69
f 281/162/70 283/162/70 284/163/70 282/163/70
f 284/163/71 283/162/71 285/164/71 288/165/71
f 281/162/72 282/163/72 287/165/72 286/164/72
f 282/163/73 284/163/73 288/165/73 287/165/73
f 283/162/74 281/162/74 286/164/74 285/164/74
f 161/95/36 162/88/36 174/88/36 173/95/36
