# Blender 4.4.0
# www.blender.org
mtllib Tool_01_Tool_Box_01.mtl
o Tool_01_Tool_Box_01
v 0.222250 0.000000 0.092314
v 0.222250 0.000000 -0.092314
v 0.222250 0.125000 0.092314
v 0.222250 0.125000 -0.092314
v 0.222250 0.250000 0.030573
v 0.222250 0.250000 -0.030573
v 0.211250 0.000000 0.092314
v 0.211250 0.000000 -0.092314
v 0.211250 0.125000 0.092314
v 0.211250 0.125000 -0.092314
v 0.211250 0.250000 0.030573
v 0.211250 0.250000 -0.030573
v -0.222250 0.000000 0.092314
v -0.222250 0.000000 -0.092314
v -0.222250 0.125000 0.092314
v -0.222250 0.125000 -0.092314
v -0.222250 0.250000 0.030573
v -0.222250 0.250000 -0.030573
v -0.211250 0.000000 0.092314
v -0.211250 0.000000 -0.092314
v -0.211250 0.125000 0.092314
v -0.211250 0.125000 -0.092314
v -0.211250 0.250000 0.030573
v -0.211250 0.250000 -0.030573
v -0.211250 0.006762 0.079069
v 0.211250 0.006762 0.079069
v -0.211250 0.006762 -0.079069
v 0.211250 0.006762 -0.079069
v -0.211250 0.000617 -0.079069
v -0.211250 0.000617 0.079069
v 0.211250 0.000617 0.079069
v 0.211250 0.000617 -0.079069
v -0.228346 0.221596 -0.012714
v -0.228346 0.232128 -0.012714
v -0.228346 0.239576 -0.005266
v -0.228346 0.239576 0.005266
v -0.228346 0.232128 0.012714
v -0.228346 0.221596 0.012714
v -0.228346 0.214148 0.005266
v -0.228346 0.214148 -0.005266
v 0.228346 0.221596 -0.012714
v 0.228346 0.232128 -0.012714
v 0.228346 0.239576 -0.005266
v 0.228346 0.239576 0.005266
v 0.228346 0.232128 0.012714
v 0.228346 0.221596 0.012714
v 0.228346 0.214148 0.005266
v 0.228346 0.214148 -0.005266
v -0.211250 0.000000 0.090069
v 0.211250 0.000000 0.090069
v -0.211250 0.000000 -0.090069
v 0.211250 0.000000 -0.090069
v -0.211250 0.125000 0.090069
v 0.211250 0.125000 0.090069
v -0.211250 0.125000 -0.090069
v 0.211250 0.125000 -0.090069
v -0.211250 0.000000 0.079069
v 0.211250 0.000000 0.079069
v -0.211250 0.000000 -0.079069
v 0.211250 0.000000 -0.079069
v -0.211250 0.125000 0.079069
v 0.211250 0.125000 0.079069
v -0.211250 0.125000 -0.079069
v 0.211250 0.125000 -0.079069
v 0.222250 0.187500 0.061444
v 0.222250 0.187500 -0.061444
v 0.211250 0.187500 0.061444
v 0.211250 0.187500 -0.061444
vn 1.0000 -0.0000 -0.0000
vn -1.0000 -0.0000 -0.0000
vn -0.0000 -1.0000 -0.0000
vn -0.0000 -0.0000 -1.0000
vn -0.0000 -0.0000 1.0000
vn -0.0000 1.0000 -0.0000
vn -0.0000 0.4429 0.8966
vn -0.0000 0.4429 -0.8966
vn -0.0000 -0.7071 -0.7071
vn -0.0000 -0.7071 0.7071
vn -0.0000 0.7071 0.7071
vn -0.0000 0.7071 -0.7071
vn -0.0000 0.4428 0.8966
vt 0.574236 0.813048
vt 0.574236 0.904790
vt 0.574236 0.950661
vt 0.574236 0.996532
vt 0.574340 0.904790
vt 0.574340 0.813048
vt 0.574340 0.996532
vt 0.574340 0.950661
vt 0.578441 0.904790
vt 0.578441 0.813048
vt 0.578441 0.996532
vt 0.578337 0.813048
vt 0.578337 0.904790
vt 0.578337 0.996532
vt 0.581231 0.805334
vt 0.585229 0.805329
vt 0.585229 0.805334
vt 0.578337 0.813501
vt 0.574340 0.813501
vt 0.578337 0.813501
vt 0.595170 0.840953
vt 0.590849 0.840953
vt 0.595170 0.880231
vt 0.590849 0.935778
vt 0.595170 0.935778
vt 0.595170 0.975057
vt 0.590849 0.975057
vt 0.590849 0.880231
vt 0.604733 0.809578
vt 0.600735 0.976333
vt 0.600735 0.809578
vt 0.604733 0.976333
vt 0.581231 0.805329
vt 0.574340 0.813501
s 0
usemtl Texture_Map
f 2/1/1 3/2/1 1/1/1
f 66/3/1 5/4/1 65/3/1
f 9/5/2 8/6/2 7/6/2
f 11/7/2 68/8/2 67/8/2
f 1/1/3 8/6/3 2/1/3
f 2/1/4 10/5/4 4/2/4
f 3/2/5 7/6/5 1/1/5
f 6/4/6 11/7/6 5/4/6
f 5/4/7 67/8/7 65/3/7
f 4/2/8 68/8/8 66/3/8
f 15/9/2 14/10/2 13/10/2
f 15/9/2 18/11/2 16/9/2
f 20/12/1 21/13/1 19/12/1
f 21/13/1 24/14/1 23/14/1
f 20/12/3 13/10/3 14/10/3
f 22/13/4 14/10/4 16/9/4
f 19/12/5 15/9/5 13/10/5
f 23/14/6 18/11/6 17/11/6
f 21/13/7 17/11/7 15/9/7
f 24/14/8 16/9/8 18/11/8
f 26/15/6 27/16/6 25/17/6
f 29/18/3 31/19/3 30/20/3
f 40/21/3 47/22/3 39/21/3
f 38/23/5 45/24/5 37/25/5
f 36/26/6 43/27/6 35/26/6
f 34/25/4 41/28/4 33/23/4
f 33/23/9 48/22/9 40/21/9
f 39/21/10 46/28/10 38/23/10
f 37/25/11 44/27/11 36/26/11
f 35/26/12 42/24/12 34/25/12
f 39/21/2 37/25/2 35/26/2
f 48/22/1 41/28/1 45/24/1
f 51/29/4 56/30/4 52/31/4
f 50/31/5 53/32/5 49/29/5
f 64/30/5 59/29/5 60/31/5
f 61/32/4 58/31/4 57/29/4
f 49/29/3 58/31/3 50/31/3
f 52/31/3 59/29/3 51/29/3
f 54/30/6 61/32/6 53/32/6
f 55/32/6 64/30/6 56/30/6
f 66/3/8 12/7/8 6/4/8
f 65/3/7 9/5/7 3/2/7
f 9/5/2 68/8/2 10/5/2
f 3/2/1 66/3/1 65/3/1
f 2/1/1 4/2/1 3/2/1
f 66/3/1 6/4/1 5/4/1
f 9/5/2 10/5/2 8/6/2
f 11/7/2 12/7/2 68/8/2
f 1/1/3 7/6/3 8/6/3
f 2/1/4 8/6/4 10/5/4
f 3/2/5 9/5/5 7/6/5
f 6/4/6 12/7/6 11/7/6
f 5/4/7 11/7/7 67/8/7
f 4/2/8 10/5/8 68/8/8
f 15/9/2 16/9/2 14/10/2
f 15/9/2 17/11/2 18/11/2
f 20/12/1 22/13/1 21/13/1
f 21/13/1 22/13/1 24/14/1
f 20/12/3 19/12/3 13/10/3
f 22/13/4 20/12/4 14/10/4
f 19/12/5 21/13/5 15/9/5
f 23/14/6 24/14/6 18/11/6
f 21/13/13 23/14/13 17/11/13
f 24/14/8 22/13/8 16/9/8
f 26/15/6 28/33/6 27/16/6
f 29/18/3 32/34/3 31/19/3
f 40/21/3 48/22/3 47/22/3
f 38/23/5 46/28/5 45/24/5
f 36/26/6 44/27/6 43/27/6
f 34/25/4 42/24/4 41/28/4
f 33/23/9 41/28/9 48/22/9
f 39/21/10 47/22/10 46/28/10
f 37/25/11 45/24/11 44/27/11
f 35/26/12 43/27/12 42/24/12
f 35/26/2 34/25/2 39/21/2
f 34/25/2 33/23/2 39/21/2
f 33/23/2 40/21/2 39/21/2
f 39/21/2 38/23/2 37/25/2
f 37/25/2 36/26/2 35/26/2
f 41/28/1 42/24/1 45/24/1
f 42/24/1 43/27/1 45/24/1
f 43/27/1 44/27/1 45/24/1
f 45/24/1 46/28/1 47/22/1
f 47/22/1 48/22/1 45/24/1
f 51/29/4 55/32/4 56/30/4
f 50/31/5 54/30/5 53/32/5
f 64/30/5 63/32/5 59/29/5
f 61/32/4 62/30/4 58/31/4
f 49/29/3 57/29/3 58/31/3
f 52/31/3 60/31/3 59/29/3
f 54/30/6 62/30/6 61/32/6
f 55/32/6 63/32/6 64/30/6
f 66/3/8 68/8/8 12/7/8
f 65/3/7 67/8/7 9/5/7
f 9/5/2 67/8/2 68/8/2
f 3/2/1 4/2/1 66/3/1
