# Blender 4.4.0
# www.blender.org
mtllib Tool_Hammer_04.mtl
o Tool_Hammer_04
v -0.010289 0.000000 0.015923
v -0.019938 0.000000 0.008218
v 0.019938 0.000000 0.008218
v 0.010289 0.000000 0.015923
v -0.019938 0.000000 -0.008218
v -0.010289 0.000000 -0.015923
v 0.010289 0.000000 -0.015923
v 0.019938 0.000000 -0.008218
v -0.019938 0.280424 0.008218
v -0.010289 0.280424 0.015923
v 0.010289 0.280424 0.015923
v 0.019938 0.280424 0.008218
v -0.010289 0.280424 -0.015923
v -0.019938 0.280424 -0.008218
v 0.019938 0.280424 -0.008218
v 0.010289 0.280424 -0.015923
v 0.009156 0.140212 -0.014170
v 0.017742 0.140212 -0.007313
v 0.009156 0.140212 0.014170
v 0.017742 0.140212 0.007313
v -0.009156 0.140212 0.014170
v -0.017742 0.140212 0.007313
v -0.009156 0.140212 -0.014170
v -0.017742 0.140212 -0.007313
v -0.042636 0.274514 0.029944
v 0.042636 0.274514 0.029944
v -0.042636 0.274514 -0.029944
v 0.042636 0.274514 -0.029944
v -0.042636 0.225718 0.029944
v 0.042636 0.225718 0.029944
v -0.042636 0.225718 -0.029944
v 0.042636 0.225718 -0.029944
v 0.060999 0.233799 -0.021193
v 0.060999 0.233799 0.021193
v -0.060999 0.233799 0.021193
v -0.060999 0.233799 -0.021193
v 0.060999 0.266432 -0.021193
v 0.060999 0.266432 0.021193
v -0.060999 0.266432 0.021193
v -0.060999 0.266432 -0.021193
v 0.000000 0.224389 -0.031574
v 0.000000 0.224389 0.031574
v 0.000000 0.278594 -0.031574
v 0.000000 0.278594 0.031574
vn -0.0000 -0.0125 0.9999
vn -0.0000 -0.0125 -0.9999
vn -0.0000 -1.0000 -0.0000
vn -0.0000 1.0000 -0.0000
vn 0.9999 -0.0157 -0.0000
vn 0.6240 -0.0148 -0.7813
vn 0.6240 0.0148 0.7813
vn -0.6240 -0.0148 0.7813
vn -0.6240 0.0148 -0.7813
vn -0.9999 -0.0157 -0.0000
vn -0.9999 0.0157 -0.0000
vn -0.6240 -0.0148 -0.7813
vn -0.6240 0.0148 0.7813
vn 0.6240 -0.0148 0.7813
vn 0.6240 0.0148 -0.7813
vn 0.9999 0.0157 -0.0000
vn -0.0000 0.0125 -0.9999
vn -0.0000 0.0125 0.9999
vn -0.0382 -0.0000 0.9993
vn 0.0953 0.9955 -0.0000
vn 0.0311 -0.9995 -0.0000
vn -0.0382 -0.0000 -0.9993
vn -0.4302 -0.0000 -0.9027
vn -0.4028 0.9153 -0.0000
vn 0.4302 -0.0000 0.9027
vn 0.4028 0.9153 -0.0000
vn -0.4028 -0.9153 -0.0000
vn 0.4028 -0.9153 -0.0000
vn -1.0000 -0.0000 -0.0000
vn 1.0000 -0.0000 -0.0000
vn -0.4302 -0.0000 0.9027
vn 0.4302 -0.0000 -0.9027
vn -0.0953 0.9955 -0.0000
vn -0.0311 -0.9995 -0.0000
vn 0.0382 -0.0000 -0.9993
vn 0.0382 -0.0000 0.9993
vt 0.568908 0.825202
vt 0.568926 0.839861
vt 0.568613 0.825202
vt 0.568595 0.839861
vt 0.568675 0.810542
vt 0.568846 0.810542
vt 0.568926 0.810542
vt 0.585961 0.882233
vt 0.586041 0.882233
vt 0.586292 0.882233
vt 0.568685 0.825202
vt 0.568846 0.839861
vt 0.568837 0.825202
vt 0.568595 0.810542
vt 0.568675 0.839861
vt 0.575362 0.689148
vt 0.575360 0.620576
vt 0.575360 0.694731
vt 0.575422 0.694731
vt 0.575422 0.620576
vt 0.575362 0.622392
vt 0.575421 0.689148
vt 0.575421 0.622392
vt 0.575412 0.678093
vt 0.575370 0.678093
vt 0.575412 0.633448
vt 0.575370 0.633448
vt 0.586212 0.882233
s 0
usemtl Texture_Map
f 19/1/1 10/2/1 21/1/1
f 23/3/2 16/4/2 17/3/2
f 8/5/3 3/6/3 4/7/3
f 13/8/4 14/9/4 10/10/4
f 18/11/5 12/12/5 20/13/5
f 16/4/6 18/11/6 17/3/6
f 4/7/7 20/13/7 19/1/7
f 10/2/8 22/13/8 21/1/8
f 6/14/9 24/11/9 23/3/9
f 22/13/10 14/15/10 24/11/10
f 2/6/11 24/11/11 5/5/11
f 13/4/12 24/11/12 14/15/12
f 1/7/13 22/13/13 2/6/13
f 11/2/14 20/13/14 12/12/14
f 7/14/15 18/11/15 8/5/15
f 8/5/16 20/13/16 3/6/16
f 6/14/17 17/3/17 7/14/17
f 4/7/18 21/1/18 1/7/18
f 25/16/19 42/17/19 44/18/19
f 26/16/20 43/19/20 44/18/20
f 41/20/21 30/21/21 42/17/21
f 41/20/22 27/22/22 43/19/22
f 31/23/23 40/24/23 27/22/23
f 27/22/24 39/25/24 25/16/24
f 30/21/25 38/25/25 26/16/25
f 26/16/26 37/24/26 28/22/26
f 29/21/27 36/26/27 31/23/27
f 32/23/28 34/27/28 30/21/28
f 40/24/29 35/27/29 39/25/29
f 38/25/30 33/26/30 37/24/30
f 29/21/31 39/25/31 35/27/31
f 32/23/32 37/24/32 33/26/32
f 44/18/33 27/22/33 25/16/33
f 31/23/34 42/17/34 29/21/34
f 28/22/35 41/20/35 43/19/35
f 42/17/36 26/16/36 44/18/36
f 19/1/1 11/2/1 10/2/1
f 23/3/2 13/4/2 16/4/2
f 4/7/3 1/7/3 6/14/3
f 1/7/3 2/6/3 6/14/3
f 2/6/3 5/5/3 6/14/3
f 6/14/3 7/14/3 4/7/3
f 7/14/3 8/5/3 4/7/3
f 14/9/4 9/28/4 10/10/4
f 10/10/4 11/10/4 16/8/4
f 11/10/4 12/28/4 16/8/4
f 12/28/4 15/9/4 16/8/4
f 16/8/4 13/8/4 10/10/4
f 18/11/5 15/15/5 12/12/5
f 16/4/6 15/15/6 18/11/6
f 4/7/7 3/6/7 20/13/7
f 10/2/8 9/12/8 22/13/8
f 6/14/9 5/5/9 24/11/9
f 22/13/10 9/12/10 14/15/10
f 2/6/11 22/13/11 24/11/11
f 13/4/12 23/3/12 24/11/12
f 1/7/13 21/1/13 22/13/13
f 11/2/14 19/1/14 20/13/14
f 7/14/15 17/3/15 18/11/15
f 8/5/16 18/11/16 20/13/16
f 6/14/17 23/3/17 17/3/17
f 4/7/18 19/1/18 21/1/18
f 25/16/19 29/21/19 42/17/19
f 26/16/20 28/22/20 43/19/20
f 41/20/21 32/23/21 30/21/21
f 41/20/22 31/23/22 27/22/22
f 31/23/23 36/26/23 40/24/23
f 27/22/24 40/24/24 39/25/24
f 30/21/25 34/27/25 38/25/25
f 26/16/26 38/25/26 37/24/26
f 29/21/27 35/27/27 36/26/27
f 32/23/28 33/26/28 34/27/28
f 40/24/29 36/26/29 35/27/29
f 38/25/30 34/27/30 33/26/30
f 29/21/31 25/16/31 39/25/31
f 32/23/32 28/22/32 37/24/32
f 44/18/33 43/19/33 27/22/33
f 31/23/34 41/20/34 42/17/34
f 28/22/35 32/23/35 41/20/35
f 42/17/36 30/21/36 26/16/36
