# Blender 4.4.0
# www.blender.org
mtllib Tool_Shovel_01.mtl
o Tool_Shovel_01
v 0.000000 0.081630 -0.006221
v 0.107299 0.158053 0.017259
v 0.091878 0.082096 0.019001
v 0.107299 0.283476 0.014383
v 0.000000 0.157982 -0.006221
v 0.000000 0.283439 -0.002041
v 0.000000 0.000047 0.001158
v 0.065891 0.042379 0.019912
v 0.107299 0.272233 0.014641
v 0.000000 0.272192 -0.006221
v 0.069999 0.042602 0.016863
v 0.000000 -0.000047 -0.001158
v 0.000000 0.271930 -0.013236
v 0.000000 0.283247 -0.009251
v 0.000000 0.081395 -0.009944
v 0.111407 0.283568 0.007171
v 0.111407 0.272330 0.007623
v 0.000000 0.157737 -0.011263
v 0.111407 0.158213 0.012213
v 0.095986 0.082298 0.015266
v 0.105198 0.282991 0.019850
v 0.105100 0.277244 0.020541
v 0.000000 0.277205 0.001887
v 0.000000 0.282953 0.003426
v -0.107299 0.158053 0.017259
v -0.091878 0.082096 0.019001
v -0.107299 0.283476 0.014383
v -0.065891 0.042379 0.019912
v -0.107299 0.272233 0.014641
v -0.069999 0.042602 0.016863
v -0.111407 0.283568 0.007171
v -0.111407 0.272330 0.007623
v -0.111407 0.158213 0.012213
v -0.095986 0.082298 0.015266
v -0.105198 0.282991 0.019850
v -0.105100 0.277244 0.020541
v -0.008801 0.825041 -0.024850
v -0.021396 0.825041 -0.012256
v -0.021396 0.825041 0.005347
v -0.008801 0.825041 0.017941
v 0.008801 0.825041 0.017941
v 0.021395 0.825041 0.005347
v 0.021395 0.825041 -0.012256
v 0.008801 0.825041 -0.024850
v -0.021396 0.882893 -0.012256
v -0.008801 0.882893 -0.024850
v 0.008801 0.882893 -0.024850
v 0.021395 0.882893 -0.012256
v 0.021395 0.882893 0.005347
v 0.008801 0.882893 0.017941
v -0.008801 0.882893 0.017941
v -0.021396 0.882893 0.005347
v -0.008137 0.510907 0.016325
v -0.019780 0.510907 0.004682
v 0.019780 0.510907 0.004682
v 0.008137 0.510907 0.016325
v -0.019780 0.510907 -0.011591
v -0.008137 0.510907 -0.023234
v 0.008137 0.510907 -0.023234
v 0.019780 0.510907 -0.011591
v -0.008137 0.825041 -0.023234
v -0.019780 0.825041 -0.011591
v -0.019780 0.825041 0.004682
v -0.008137 0.825041 0.016325
v 0.008137 0.825041 0.016325
v 0.019780 0.825041 0.004682
v 0.019780 0.825041 -0.011591
v 0.008137 0.825041 -0.023234
v -0.008572 0.510907 0.017382
v -0.020837 0.510907 0.005117
v 0.020837 0.510907 0.005117
v 0.008571 0.510907 0.017382
v -0.020837 0.510907 -0.012026
v -0.008572 0.510907 -0.024292
v 0.008571 0.510907 -0.024292
v 0.020837 0.510907 -0.012026
v -0.007607 0.256623 0.013609
v -0.018493 0.256623 0.003565
v 0.018492 0.256623 0.003565
v 0.007607 0.256623 0.013609
v 0.007607 0.256623 -0.020519
v 0.018492 0.256623 -0.010474
v -0.018493 0.256623 -0.010474
v -0.007607 0.256623 -0.020519
v -0.002652 0.143473 -0.005039
v -0.006448 0.143473 -0.007033
v 0.006448 0.143473 -0.007033
v 0.002652 0.143473 -0.005039
v 0.002652 0.143473 -0.011813
v 0.006448 0.143473 -0.009820
v -0.006448 0.143473 -0.009820
v -0.002652 0.143473 -0.011813
v 0.009797 0.908987 0.013026
v 0.002393 0.882893 0.013026
v 0.009797 0.908987 -0.019935
v 0.002393 0.882893 -0.019935
v 0.036732 0.945776 0.013026
v 0.036732 0.945776 -0.019935
v 0.047697 0.974757 0.011038
v 0.047697 0.974757 -0.017948
v 0.051841 1.006644 0.004584
v 0.051841 1.006644 -0.011493
v 0.026221 0.906561 0.004181
v 0.021395 0.882893 0.004308
v 0.026221 0.906561 -0.011091
v 0.021395 0.882893 -0.011218
v 0.050124 0.944714 0.004027
v 0.050124 0.944714 -0.010936
v 0.059877 0.972635 0.003286
v 0.059877 0.972635 -0.010196
v 0.060079 1.007554 -0.000024
v 0.060079 1.007554 -0.006886
v -0.009797 0.908987 0.013026
v -0.002394 0.882893 0.013026
v -0.009797 0.908987 -0.019935
v -0.002394 0.882893 -0.019935
v -0.036732 0.945776 0.013026
v -0.036732 0.945776 -0.019935
v -0.047698 0.974757 0.011038
v -0.047698 0.974757 -0.017948
v -0.051841 1.006644 0.004584
v -0.051841 1.006644 -0.011493
v -0.026222 0.906561 0.004181
v -0.021396 0.882893 0.004308
v -0.026222 0.906561 -0.011091
v -0.021396 0.882893 -0.011218
v -0.050124 0.944714 0.004027
v -0.050124 0.944714 -0.010936
v -0.059877 0.972635 0.003286
v -0.059877 0.972635 -0.010196
v -0.060080 1.007554 -0.000024
v -0.060080 1.007554 -0.006886
v -0.061672 1.010483 -0.017677
v -0.061672 1.022265 -0.017677
v -0.061672 1.030596 -0.009346
v -0.061672 1.030596 0.002436
v -0.061672 1.022265 0.010768
v -0.061672 1.010483 0.010768
v -0.061672 1.002151 0.002436
v -0.061672 1.002151 -0.009346
v 0.061672 1.010483 -0.017677
v 0.061672 1.022265 -0.017677
v 0.061672 1.030596 -0.009346
v 0.061672 1.030596 0.002436
v 0.061672 1.022265 0.010768
v 0.061672 1.010483 0.010768
v 0.061672 1.002151 0.002436
v 0.061672 1.002151 -0.009346
v -0.050097 1.002151 0.002436
v 0.050097 1.002151 0.002436
v 0.050097 1.002151 -0.009346
v -0.050097 1.002151 -0.009346
v -0.050097 1.022265 0.010768
v 0.050097 1.022265 0.010768
v 0.050097 1.010483 0.010768
v -0.050097 1.010483 0.010768
v -0.050097 1.030596 -0.009346
v 0.050097 1.030596 -0.009346
v 0.050097 1.030596 0.002436
v -0.050097 1.030596 0.002436
v -0.050097 1.010483 -0.017677
v 0.050097 1.010483 -0.017677
v 0.050097 1.022265 -0.017677
v -0.050097 1.022265 -0.017677
v -0.050097 1.003658 0.001813
v 0.050097 1.003658 0.001813
v 0.050097 1.003658 -0.008722
v -0.050097 1.003658 -0.008722
v -0.050097 1.021641 0.009262
v 0.050097 1.021641 0.009262
v 0.050097 1.011107 0.009262
v -0.050097 1.011107 0.009262
v -0.050097 1.029090 -0.008722
v 0.050097 1.029090 -0.008722
v 0.050097 1.029090 0.001813
v -0.050097 1.029090 0.001813
v -0.050097 1.011107 -0.016171
v 0.050097 1.011107 -0.016171
v 0.050097 1.021641 -0.016171
v -0.050097 1.021641 -0.016171
vn -0.1689 -0.2548 0.9521
vn -0.2134 0.0657 0.9748
vn -0.2607 0.1923 0.9461
vn -0.1909 -0.0000 0.9816
vn 0.5332 -0.8453 0.0345
vn 0.6711 -0.1195 0.7317
vn 0.7752 0.0145 0.6315
vn 0.5694 -0.3556 0.7412
vn 0.8629 0.0116 0.5052
vn 0.0037 0.9996 -0.0266
vn 0.2062 -0.0393 -0.9777
vn 0.2506 -0.2021 -0.9468
vn 0.2058 -0.0810 -0.9752
vn 0.1728 0.3271 -0.9290
vn -0.1014 -0.8462 0.5232
vn 0.9392 0.0079 0.3433
vn -0.0131 0.9964 0.0834
vn 0.1532 0.1206 0.9808
vn 0.2134 0.0657 0.9748
vn 0.2607 0.1923 0.9461
vn 0.2137 0.0224 0.9766
vn -0.5332 -0.8453 0.0345
vn -0.6711 -0.1195 0.7317
vn -0.7752 0.0145 0.6315
vn -0.5694 -0.3556 0.7412
vn -0.8629 0.0116 0.5052
vn 0.0044 0.9999 0.0102
vn -0.1841 -0.0170 -0.9828
vn -0.2506 -0.2021 -0.9468
vn -0.2058 -0.0810 -0.9752
vn -0.1728 0.3271 -0.9290
vn 0.1014 -0.8462 0.5232
vn -0.9392 0.0079 0.3433
vn 0.0131 0.9964 0.0834
vn -0.0000 -1.0000 -0.0000
vn -0.0000 1.0000 -0.0000
vn -0.7071 -0.0000 0.7071
vn 0.7071 -0.0000 -0.7071
vn 1.0000 -0.0000 -0.0000
vn -1.0000 -0.0000 -0.0000
vn 0.7071 -0.0000 0.7071
vn -0.7071 -0.0000 -0.7071
vn -0.0000 -0.0000 -1.0000
vn -0.0000 -0.0000 1.0000
vn 0.7070 -0.0132 0.7070
vn 1.0000 -0.0092 -0.0000
vn -0.0000 -0.0148 0.9999
vn -0.7070 -0.0132 0.7070
vn 0.7070 -0.0132 -0.7070
vn -0.0000 -0.0148 -0.9999
vn -1.0000 -0.0092 -0.0000
vn -0.0000 -0.0767 -0.9971
vn 0.6762 -0.0762 -0.7328
vn -0.4610 -0.1313 0.8776
vn -0.0000 -0.1626 0.9867
vn 0.9944 -0.1059 -0.0000
vn -0.6762 -0.0762 -0.7328
vn 0.6706 -0.1491 0.7267
vn -0.9944 -0.1059 -0.0000
vn -0.7070 -0.0132 -0.7070
vn -0.9620 0.2729 -0.0000
vn -0.8069 0.5907 -0.0000
vn -0.9353 0.3539 -0.0000
vn -0.9917 0.1289 -0.0000
vn 0.9798 -0.1998 -0.0000
vn 0.8474 -0.5309 -0.0000
vn 0.9441 -0.3298 -0.0000
vn 1.0000 -0.0058 -0.0000
vn 0.5464 0.0974 -0.8318
vn 0.4620 -0.0894 0.8824
vn 0.5434 -0.1489 -0.8262
vn 0.4163 -0.3048 -0.8566
vn 0.4798 0.0800 0.8737
vn 0.5109 -0.1560 0.8454
vn 0.5115 -0.3172 0.7986
vn 0.4141 -0.1175 -0.9026
vn 0.9620 0.2729 -0.0000
vn 0.8069 0.5907 -0.0000
vn 0.9353 0.3539 -0.0000
vn 0.9917 0.1289 -0.0000
vn -0.9798 -0.1998 -0.0000
vn -0.8474 -0.5309 -0.0000
vn -0.9441 -0.3298 -0.0000
vn -1.0000 -0.0058 -0.0000
vn -0.5464 0.0974 -0.8318
vn -0.4141 -0.1175 0.9026
vn -0.5434 -0.1489 -0.8262
vn -0.4163 -0.3048 -0.8566
vn -0.5464 0.0974 0.8318
vn -0.5434 -0.1489 0.8262
vn -0.4163 -0.3048 0.8566
vn -0.4141 -0.1175 -0.9026
vn -0.0000 -0.7071 -0.7071
vn -0.0000 -0.7071 0.7071
vn -0.0000 0.7071 0.7071
vn -0.0000 0.7071 -0.7071
vn -0.1532 0.1206 0.9808
vn -0.2647 -0.0000 0.9643
vn -0.3230 0.0852 0.9425
vn -0.2137 0.0224 0.9766
vn 0.3776 -0.8096 0.4495
vn 0.7708 -0.1315 0.6233
vn 0.8627 0.0203 0.5053
vn 0.6309 -0.3859 0.6731
vn 0.8687 0.0199 0.4950
vn -0.0044 0.9999 0.0102
vn 0.1841 -0.0170 -0.9828
vn 0.3059 -0.1021 -0.9466
vn 0.2541 -0.0167 -0.9670
vn 0.1458 -0.0398 -0.9885
vn -0.1097 -0.7774 0.6194
vn 0.9323 0.0276 0.3607
vn -0.0142 0.9960 0.0884
vn 0.1689 -0.2548 0.9521
vn 0.2647 -0.0000 0.9643
vn 0.3230 0.0852 0.9425
vn 0.1909 -0.0000 0.9816
vn -0.3776 -0.8096 0.4495
vn -0.7708 -0.1315 0.6233
vn -0.8627 0.0203 0.5053
vn -0.6309 -0.3859 0.6731
vn -0.8687 0.0199 0.4950
vn -0.0037 0.9996 -0.0266
vn -0.2062 -0.0393 -0.9777
vn -0.3059 -0.1021 -0.9466
vn -0.2541 -0.0167 -0.9670
vn -0.1458 -0.0398 -0.9885
vn 0.1097 -0.7774 0.6194
vn -0.9323 0.0276 0.3607
vn 0.0142 0.9960 0.0884
vn 0.6781 -0.0107 0.7349
vn -0.6781 -0.0107 0.7349
vn 0.6781 -0.0107 -0.7349
vn 0.4633 -0.0881 -0.8818
vn -0.6706 -0.1491 0.7267
vn -0.4633 -0.0881 -0.8818
vn 0.4610 -0.1313 0.8776
vn -0.6781 -0.0107 -0.7349
vn 0.4798 0.0800 -0.8737
vn 0.4141 -0.1175 0.9026
vn 0.5109 -0.1560 -0.8454
vn 0.5115 -0.3172 -0.7986
vn 0.5464 0.0974 0.8318
vn 0.5434 -0.1489 0.8262
vn 0.4163 -0.3048 0.8566
vn 0.4620 -0.0894 -0.8824
vn -0.4798 0.0800 -0.8737
vn -0.4620 -0.0894 0.8824
vn -0.5109 -0.1560 -0.8454
vn -0.5115 -0.3172 -0.7986
vn -0.4798 0.0800 0.8737
vn -0.5109 -0.1560 0.8454
vn -0.5115 -0.3172 0.7986
vn -0.4620 -0.0894 -0.8824
vt 0.575371 0.673751
vt 0.575388 0.674888
vt 0.575389 0.673743
vt 0.575397 0.649988
vt 0.575372 0.634868
vt 0.575374 0.650002
vt 0.575397 0.634775
vt 0.575372 0.626955
vt 0.575377 0.672752
vt 0.575397 0.672744
vt 0.575392 0.618502
vt 0.575390 0.618521
vt 0.575376 0.634909
vt 0.575379 0.650034
vt 0.575374 0.627000
vt 0.575384 0.672772
vt 0.575377 0.674992
vt 0.575400 0.674947
vt 0.575393 0.674985
vt 0.575402 0.649939
vt 0.575401 0.634729
vt 0.575404 0.672692
vt 0.575372 0.674896
vt 0.575384 0.675011
vt 0.589232 0.625930
vt 0.589203 0.625930
vt 0.589190 0.625930
vt 0.589203 0.663075
vt 0.589232 0.663075
vt 0.589220 0.663075
vt 0.589190 0.663075
vt 0.589220 0.625930
vt 0.568931 0.863959
vt 0.568931 0.896802
vt 0.568640 0.863959
vt 0.568810 0.896802
vt 0.568810 0.863959
vt 0.568519 0.863959
vt 0.568519 0.896802
vt 0.568640 0.896802
vt 0.575403 0.720306
vt 0.575415 0.720306
vt 0.575386 0.720306
vt 0.575378 0.669642
vt 0.575374 0.720306
vt 0.575388 0.669642
vt 0.575411 0.669642
vt 0.575401 0.669642
vt 0.575403 0.647097
vt 0.575401 0.647097
vt 0.575396 0.647097
vt 0.575398 0.647097
vt 0.589227 0.679829
vt 0.589195 0.663075
vt 0.589195 0.679829
vt 0.589227 0.703451
vt 0.589195 0.703451
vt 0.589225 0.722059
vt 0.589203 0.742533
vt 0.589197 0.722059
vt 0.589204 0.663075
vt 0.589219 0.678272
vt 0.589204 0.678272
vt 0.589219 0.702769
vt 0.589204 0.702769
vt 0.589218 0.720696
vt 0.589205 0.720696
vt 0.589208 0.743117
vt 0.589219 0.742533
vt 0.589219 0.663075
vt 0.589227 0.663075
vt 0.589217 0.739648
vt 0.589205 0.739648
vt 0.589197 0.744997
vt 0.589197 0.752562
vt 0.589205 0.757911
vt 0.589217 0.757911
vt 0.589225 0.752562
vt 0.589225 0.744997
vt 0.589224 0.752161
vt 0.589224 0.745397
vt 0.589216 0.740614
vt 0.589206 0.740614
vt 0.589199 0.745397
vt 0.589199 0.752161
vt 0.599845 0.943821
vt 0.599852 0.934293
vt 0.599827 0.934293
vt 0.599834 0.943821
vt 0.599834 0.911295
vt 0.599827 0.920821
vt 0.599852 0.920821
vt 0.599845 0.911295
vt 0.589216 0.756944
vt 0.589206 0.756944
vt 0.589215 0.743117
s 0
usemtl Texture_Map
f 22/1/1 24/2/1 23/3/1
f 5/4/2 3/5/2 2/6/2
f 1/7/3 8/8/3 3/5/3
f 5/4/4 9/9/4 10/10/4
f 12/11/5 8/8/5 7/12/5
f 20/13/6 2/6/6 3/5/6
f 19/14/7 9/9/7 2/6/7
f 11/15/8 3/5/8 8/8/8
f 17/16/9 4/17/9 9/9/9
f 4/17/10 14/18/10 6/19/10
f 18/20/11 17/16/11 19/14/11
f 11/15/12 15/21/12 20/13/12
f 20/13/13 18/20/13 19/14/13
f 14/18/14 17/16/14 13/22/14
f 9/9/15 23/3/15 10/10/15
f 4/17/16 22/1/16 9/9/16
f 6/19/17 21/23/17 4/17/17
f 36/1/18 24/2/18 35/23/18
f 26/5/19 5/4/19 25/6/19
f 28/8/20 1/7/20 26/5/20
f 5/4/21 29/9/21 25/6/21
f 28/8/22 12/11/22 7/12/22
f 25/6/23 34/13/23 26/5/23
f 29/9/24 33/14/24 25/6/24
f 26/5/25 30/15/25 28/8/25
f 27/17/26 32/16/26 29/9/26
f 27/17/27 14/18/27 31/24/27
f 18/20/28 32/16/28 13/22/28
f 15/21/29 30/15/29 34/13/29
f 18/20/30 34/13/30 33/14/30
f 32/16/31 14/18/31 13/22/31
f 23/3/32 29/9/32 10/10/32
f 36/1/33 27/17/33 29/9/33
f 35/23/34 6/19/34 27/17/34
f 44/25/35 42/26/35 40/27/35
f 49/28/36 47/29/36 45/30/36
f 39/26/37 51/31/37 52/28/37
f 44/25/38 48/30/38 43/32/38
f 43/32/39 49/28/39 42/26/39
f 39/26/40 45/30/40 38/32/40
f 41/27/41 49/28/41 50/31/41
f 38/32/42 46/29/42 37/25/42
f 37/25/43 47/29/43 44/25/43
f 40/27/44 50/31/44 51/31/44
f 56/33/44 64/34/44 53/33/44
f 60/35/39 66/36/39 55/37/39
f 58/38/43 68/39/43 59/38/43
f 62/40/42 58/38/42 57/35/42
f 60/35/38 68/39/38 67/40/38
f 66/36/41 56/33/41 55/37/41
f 54/37/37 64/34/37 63/36/37
f 54/37/40 62/40/40 57/35/40
f 76/41/36 74/42/36 70/43/36
f 80/44/45 71/43/45 72/45/45
f 79/46/46 76/41/46 71/43/46
f 77/44/47 72/45/47 69/45/47
f 70/43/48 77/44/48 69/45/48
f 76/41/49 81/47/49 75/42/49
f 75/42/50 84/47/50 74/42/50
f 83/48/51 70/43/51 73/41/51
f 92/49/52 81/47/52 89/49/52
f 90/50/53 81/47/53 82/48/53
f 85/51/54 78/46/54 86/52/54
f 85/51/55 80/44/55 77/44/55
f 87/52/56 82/48/56 79/46/56
f 84/47/57 91/50/57 83/48/57
f 88/51/58 79/46/58 80/44/58
f 83/48/59 86/52/59 78/46/59
f 89/49/35 90/50/35 88/51/35
f 84/47/60 73/41/60 74/42/60
f 95/53/61 94/54/61 93/55/61
f 93/55/62 98/56/62 95/53/62
f 97/57/63 100/58/63 98/56/63
f 101/59/64 100/58/64 99/60/64
f 104/61/65 105/62/65 103/63/65
f 103/63/66 108/64/66 107/65/66
f 107/65/67 110/66/67 109/67/67
f 110/66/68 111/68/68 109/67/68
f 102/69/69 110/66/69 100/58/69
f 93/55/70 104/61/70 103/63/70
f 100/58/71 108/64/71 98/56/71
f 98/56/72 105/62/72 95/53/72
f 101/59/73 109/67/73 111/68/73
f 99/60/74 107/65/74 109/67/74
f 97/57/75 103/63/75 107/65/75
f 95/53/76 106/70/76 96/71/76
f 114/54/77 115/53/77 113/55/77
f 113/55/78 118/56/78 117/57/78
f 117/57/79 120/58/79 119/60/79
f 120/58/80 121/59/80 119/60/80
f 125/62/81 124/61/81 123/63/81
f 123/63/82 128/64/82 125/62/82
f 127/65/83 130/66/83 128/64/83
f 131/68/84 130/66/84 129/67/84
f 130/66/85 122/69/85 120/58/85
f 113/55/86 124/61/86 114/54/86
f 128/64/87 120/58/87 118/56/87
f 125/62/88 118/56/88 115/53/88
f 121/59/89 129/67/89 119/60/89
f 119/60/90 127/65/90 117/57/90
f 117/57/91 123/63/91 113/55/91
f 126/70/92 115/53/92 116/71/92
f 148/72/35 150/73/35 151/72/35
f 146/74/44 154/75/44 155/74/44
f 144/76/36 158/77/36 159/76/36
f 142/78/43 162/79/43 163/78/43
f 162/79/93 148/72/93 151/72/93
f 150/73/94 146/74/94 155/74/94
f 154/75/95 144/76/95 159/76/95
f 158/77/96 142/78/96 163/78/96
f 135/77/96 164/78/96 134/78/96
f 157/77/39 180/80/39 164/78/39
f 137/75/95 160/76/95 136/76/95
f 151/72/40 178/81/40 162/79/40
f 139/73/94 156/74/94 138/74/94
f 149/73/39 168/82/39 165/83/39
f 133/79/93 152/72/93 140/72/93
f 152/72/39 177/81/39 168/82/39
f 164/78/43 133/79/43 134/78/43
f 154/75/40 171/84/40 155/74/40
f 160/76/36 135/77/36 136/76/36
f 150/73/40 171/84/40 166/83/40
f 156/74/44 137/75/44 138/74/44
f 156/74/39 169/85/39 153/75/39
f 152/72/35 139/73/35 140/72/35
f 149/73/39 172/84/39 156/74/39
f 173/86/96 179/87/96 180/87/96
f 169/88/95 175/89/95 176/89/95
f 165/90/94 171/91/94 172/91/94
f 177/92/93 167/93/93 168/93/93
f 179/87/43 177/92/43 180/87/43
f 175/89/36 173/86/36 176/89/36
f 171/91/44 169/88/44 172/91/44
f 167/93/35 165/90/35 168/93/35
f 150/73/40 167/82/40 151/72/40
f 164/78/39 177/81/39 161/79/39
f 158/77/40 179/80/40 174/94/40
f 162/79/40 179/80/40 163/78/40
f 160/76/39 169/85/39 176/95/39
f 157/77/39 176/95/39 173/94/39
f 159/76/40 170/85/40 154/75/40
f 158/77/40 175/95/40 159/76/40
f 143/77/39 145/75/39 147/73/39
f 136/76/40 135/77/40 139/73/40
f 22/1/97 21/23/97 24/2/97
f 5/4/98 1/7/98 3/5/98
f 1/7/99 7/12/99 8/8/99
f 5/4/100 2/6/100 9/9/100
f 12/11/101 11/15/101 8/8/101
f 20/13/102 19/14/102 2/6/102
f 19/14/103 17/16/103 9/9/103
f 11/15/104 20/13/104 3/5/104
f 17/16/105 16/24/105 4/17/105
f 4/17/106 16/24/106 14/18/106
f 18/20/107 13/22/107 17/16/107
f 11/15/108 12/11/108 15/21/108
f 20/13/109 15/21/109 18/20/109
f 14/18/110 16/24/110 17/16/110
f 9/9/111 22/1/111 23/3/111
f 4/17/112 21/23/112 22/1/112
f 6/19/113 24/2/113 21/23/113
f 36/1/114 23/3/114 24/2/114
f 26/5/115 1/7/115 5/4/115
f 28/8/116 7/12/116 1/7/116
f 5/4/117 10/10/117 29/9/117
f 28/8/118 30/15/118 12/11/118
f 25/6/119 33/14/119 34/13/119
f 29/9/120 32/16/120 33/14/120
f 26/5/121 34/13/121 30/15/121
f 27/17/122 31/24/122 32/16/122
f 27/17/123 6/19/123 14/18/123
f 18/20/124 33/14/124 32/16/124
f 15/21/125 12/11/125 30/15/125
f 18/20/126 15/21/126 34/13/126
f 32/16/127 31/24/127 14/18/127
f 23/3/128 36/1/128 29/9/128
f 36/1/129 35/23/129 27/17/129
f 35/23/130 24/2/130 6/19/130
f 40/27/35 39/26/35 38/32/35
f 38/32/35 37/25/35 40/27/35
f 37/25/35 44/25/35 40/27/35
f 44/25/35 43/32/35 42/26/35
f 42/26/35 41/27/35 40/27/35
f 45/30/36 52/28/36 51/31/36
f 51/31/36 50/31/36 49/28/36
f 49/28/36 48/30/36 47/29/36
f 47/29/36 46/29/36 45/30/36
f 45/30/36 51/31/36 49/28/36
f 39/26/37 40/27/37 51/31/37
f 44/25/38 47/29/38 48/30/38
f 43/32/39 48/30/39 49/28/39
f 39/26/40 52/28/40 45/30/40
f 41/27/41 42/26/41 49/28/41
f 38/32/42 45/30/42 46/29/42
f 37/25/43 46/29/43 47/29/43
f 40/27/44 41/27/44 50/31/44
f 56/33/44 65/34/44 64/34/44
f 60/35/39 67/40/39 66/36/39
f 58/38/43 61/39/43 68/39/43
f 62/40/42 61/39/42 58/38/42
f 60/35/38 59/38/38 68/39/38
f 66/36/41 65/34/41 56/33/41
f 54/37/37 53/33/37 64/34/37
f 54/37/40 63/36/40 62/40/40
f 70/43/36 69/45/36 72/45/36
f 72/45/36 71/43/36 70/43/36
f 71/43/36 76/41/36 70/43/36
f 76/41/36 75/42/36 74/42/36
f 74/42/36 73/41/36 70/43/36
f 80/44/131 79/46/131 71/43/131
f 79/46/46 82/48/46 76/41/46
f 77/44/47 80/44/47 72/45/47
f 70/43/132 78/46/132 77/44/132
f 76/41/133 82/48/133 81/47/133
f 75/42/50 81/47/50 84/47/50
f 83/48/51 78/46/51 70/43/51
f 92/49/52 84/47/52 81/47/52
f 90/50/134 89/49/134 81/47/134
f 85/51/135 77/44/135 78/46/135
f 85/51/55 88/51/55 80/44/55
f 87/52/56 90/50/56 82/48/56
f 84/47/136 92/49/136 91/50/136
f 88/51/137 87/52/137 79/46/137
f 83/48/59 91/50/59 86/52/59
f 90/50/35 87/52/35 88/51/35
f 88/51/35 85/51/35 92/49/35
f 85/51/35 86/52/35 92/49/35
f 86/52/35 91/50/35 92/49/35
f 92/49/35 89/49/35 88/51/35
f 84/47/138 83/48/138 73/41/138
f 95/53/61 96/71/61 94/54/61
f 93/55/62 97/57/62 98/56/62
f 97/57/63 99/60/63 100/58/63
f 101/59/64 102/69/64 100/58/64
f 104/61/65 106/70/65 105/62/65
f 103/63/66 105/62/66 108/64/66
f 107/65/67 108/64/67 110/66/67
f 110/66/68 112/96/68 111/68/68
f 102/69/139 112/96/139 110/66/139
f 93/55/140 94/54/140 104/61/140
f 100/58/141 110/66/141 108/64/141
f 98/56/142 108/64/142 105/62/142
f 101/59/143 99/60/143 109/67/143
f 99/60/144 97/57/144 107/65/144
f 97/57/145 93/55/145 103/63/145
f 95/53/146 105/62/146 106/70/146
f 114/54/77 116/71/77 115/53/77
f 113/55/78 115/53/78 118/56/78
f 117/57/79 118/56/79 120/58/79
f 120/58/80 122/69/80 121/59/80
f 125/62/81 126/70/81 124/61/81
f 123/63/82 127/65/82 128/64/82
f 127/65/83 129/67/83 130/66/83
f 131/68/84 132/96/84 130/66/84
f 130/66/147 132/96/147 122/69/147
f 113/55/148 123/63/148 124/61/148
f 128/64/149 130/66/149 120/58/149
f 125/62/150 128/64/150 118/56/150
f 121/59/151 131/68/151 129/67/151
f 119/60/152 129/67/152 127/65/152
f 117/57/153 127/65/153 123/63/153
f 126/70/154 125/62/154 115/53/154
f 148/72/35 147/73/35 150/73/35
f 146/74/44 145/75/44 154/75/44
f 144/76/36 143/77/36 158/77/36
f 142/78/43 141/79/43 162/79/43
f 162/79/93 141/79/93 148/72/93
f 150/73/94 147/73/94 146/74/94
f 154/75/95 145/75/95 144/76/95
f 158/77/96 143/77/96 142/78/96
f 135/77/96 157/77/96 164/78/96
f 157/77/39 173/94/39 180/80/39
f 137/75/95 153/75/95 160/76/95
f 151/72/40 167/82/40 178/81/40
f 139/73/94 149/73/94 156/74/94
f 149/73/39 152/72/39 168/82/39
f 133/79/93 161/79/93 152/72/93
f 152/72/39 161/79/39 177/81/39
f 164/78/43 161/79/43 133/79/43
f 154/75/40 170/85/40 171/84/40
f 160/76/36 157/77/36 135/77/36
f 150/73/40 155/74/40 171/84/40
f 156/74/44 153/75/44 137/75/44
f 156/74/39 172/84/39 169/85/39
f 152/72/35 149/73/35 139/73/35
f 149/73/39 165/83/39 172/84/39
f 173/86/96 174/86/96 179/87/96
f 169/88/95 170/88/95 175/89/95
f 165/90/94 166/90/94 171/91/94
f 177/92/93 178/92/93 167/93/93
f 179/87/43 178/92/43 177/92/43
f 175/89/36 174/86/36 173/86/36
f 171/91/44 170/88/44 169/88/44
f 167/93/35 166/90/35 165/90/35
f 150/73/40 166/83/40 167/82/40
f 164/78/39 180/80/39 177/81/39
f 158/77/40 163/78/40 179/80/40
f 162/79/40 178/81/40 179/80/40
f 160/76/39 153/75/39 169/85/39
f 157/77/39 160/76/39 176/95/39
f 159/76/40 175/95/40 170/85/40
f 158/77/40 174/94/40 175/95/40
f 141/79/39 142/78/39 143/77/39
f 143/77/39 144/76/39 145/75/39
f 145/75/39 146/74/39 147/73/39
f 147/73/39 148/72/39 141/79/39
f 141/79/39 143/77/39 147/73/39
f 135/77/40 134/78/40 133/79/40
f 133/79/40 140/72/40 135/77/40
f 140/72/40 139/73/40 135/77/40
f 139/73/40 138/74/40 137/75/40
f 137/75/40 136/76/40 139/73/40
