# Blender 4.4.0
# www.blender.org
mtllib Tool_Axe_02.mtl
o Tool_Axe_02
v -0.047298 0.884071 0.026952
v -0.047298 0.984300 0.026952
v -0.131833 0.870460 0.014815
v -0.128871 0.984808 0.014815
v -0.180988 0.854138 0.008325
v -0.185924 0.988458 0.008325
v -0.216886 0.986218 -0.004972
v -0.215603 0.839580 -0.004972
v -0.047298 0.884071 -0.026952
v -0.047298 0.984300 -0.026952
v -0.131833 0.870460 -0.014815
v -0.128871 0.984808 -0.014815
v -0.180988 0.854138 -0.008325
v -0.185924 0.988458 -0.008325
v -0.216886 0.986218 0.004972
v -0.215603 0.839580 0.004972
v 0.111424 0.884699 0.006557
v 0.082746 0.888151 0.035234
v 0.082746 0.986333 0.035234
v 0.111424 0.988638 0.006557
v 0.082746 0.888151 -0.035234
v 0.111424 0.884699 -0.006557
v 0.111424 0.988638 -0.006557
v 0.082746 0.986333 -0.035234
v -0.242413 0.985604 0.000000
v -0.244526 0.891242 0.000000
v 0.046745 0.738807 0.025099
v 0.064529 0.738807 0.010589
v -0.023826 0.738807 0.010589
v -0.006042 0.738807 0.025099
v 0.003564 0.885717 0.029326
v -0.017216 0.885717 0.012373
v 0.086022 0.885717 0.012373
v 0.065242 0.885717 0.029326
v 0.003564 0.885717 -0.029326
v -0.017216 0.885717 -0.012372
v 0.065242 0.885717 -0.029326
v 0.086022 0.885717 -0.012372
v -0.006042 0.738807 -0.025099
v -0.023826 0.738807 -0.010589
v 0.046745 0.738807 -0.025099
v 0.064529 0.738807 -0.010589
v 0.062835 0.325873 0.024694
v 0.080332 0.325873 0.010418
v -0.006599 0.325873 0.010418
v 0.010898 0.325873 0.024694
v 0.010898 0.325873 -0.024694
v -0.006599 0.325873 -0.010418
v 0.062835 0.325873 -0.024694
v 0.080332 0.325873 -0.010418
v 0.035169 0.077201 0.029969
v 0.055354 0.070607 0.012644
v -0.044932 0.103364 0.012644
v -0.024746 0.096771 0.029969
v -0.024746 0.096771 -0.029969
v -0.044932 0.103364 -0.012644
v 0.035169 0.077201 -0.029969
v 0.055354 0.070607 -0.012644
v 0.033341 0.032268 0.033474
v 0.055887 0.024904 0.014122
v -0.056127 0.061491 0.014122
v -0.033581 0.054127 0.033474
v -0.033581 0.054127 -0.033474
v -0.056127 0.061491 -0.014122
v 0.033341 0.032268 -0.033474
v 0.055887 0.024904 -0.014122
v 0.003670 0.999345 0.029326
v -0.017038 0.997910 0.012373
v 0.085844 1.005042 0.012373
v 0.065136 1.003607 0.029326
v 0.003670 0.999345 -0.029326
v -0.017038 0.997910 -0.012372
v 0.065136 1.003607 -0.029326
v 0.085844 1.005042 -0.012372
v 0.033523 -0.006434 0.035006
v 0.030858 -0.014288 0.026587
v 0.048463 -0.022440 0.010757
v 0.056274 -0.016932 0.014777
v -0.056900 0.035337 0.014718
v -0.048463 0.022440 0.010757
v -0.034087 0.024869 0.034922
v -0.030858 0.014288 0.026587
v -0.030858 0.014288 -0.026587
v -0.034087 0.024869 -0.034922
v -0.056900 0.035337 -0.014718
v -0.048463 0.022440 -0.010757
v 0.030858 -0.014288 -0.026587
v 0.033523 -0.006434 -0.035006
v 0.048463 -0.022440 -0.010757
v 0.056274 -0.016932 -0.014777
vn 1.0000 -0.0000 -0.0000
vn -0.1294 -0.0048 -0.9916
vn -0.1427 0.0037 0.9898
vn -0.1074 -0.0039 -0.9942
vn -0.1472 -0.0000 -0.9891
vn 0.3877 -0.9218 -0.0000
vn -0.0636 -0.0000 0.9980
vn -0.0156 0.9999 -0.0000
vn -0.0636 -0.0000 -0.9980
vn 0.1590 -0.9873 -0.0000
vn 0.0062 1.0000 -0.0000
vn 0.3151 -0.9490 -0.0000
vn 0.0639 0.9980 -0.0000
vn -0.0961 -0.0008 0.9954
vn 0.7071 -0.0000 0.7071
vn 0.7071 -0.0000 -0.7071
vn -0.1195 -0.9928 -0.0000
vn -0.0722 0.9974 -0.0000
vn -0.1720 -0.0015 0.9851
vn -0.8726 -0.4885 -0.0000
vn -0.1913 0.0043 -0.9815
vn -0.0240 0.9997 -0.0000
vn -0.6320 -0.0267 -0.7745
vn -0.0000 -0.0000 -1.0000
vn 0.6289 -0.1014 -0.7708
vn 0.6289 -0.1014 0.7708
vn -0.6321 0.0190 0.7747
vn -0.0000 -0.0288 -0.9996
vn 0.9895 -0.1448 -0.0000
vn -0.0000 -0.0288 0.9996
vn -0.9990 0.0449 -0.0000
vn -0.6321 0.0190 -0.7747
vn 0.6313 -0.0538 0.7737
vn 0.9993 0.0382 -0.0000
vn 0.6320 0.0239 -0.7746
vn -0.6320 -0.0267 0.7745
vn -0.0000 -0.0010 -1.0000
vn -0.9991 -0.0417 -0.0000
vn -0.0000 -0.0010 1.0000
vn -0.9855 0.1698 -0.0000
vn -0.6279 0.1159 -0.7696
vn -0.0000 0.0230 0.9997
vn -0.0000 0.0230 -0.9997
vn 0.9952 -0.0974 -0.0000
vn -0.6279 0.1159 0.7696
vn 0.6313 -0.0538 -0.7737
vn -0.9661 0.2583 -0.0000
vn 0.0251 0.0767 0.9967
vn 0.0251 0.0767 -0.9967
vn 0.9999 0.0116 -0.0000
vn -0.6034 0.1887 0.7748
vn 0.6570 0.0320 0.7532
vn -0.6034 0.1887 -0.7748
vn 0.6570 0.0320 -0.7532
vn 0.0161 0.0492 0.9987
vn 0.6571 0.0329 -0.7531
vn 0.0161 0.0492 -0.9987
vn 1.0000 0.0093 -0.0000
vn -0.6440 0.0364 -0.7642
vn -0.6440 0.0364 0.7642
vn -0.9996 0.0296 -0.0000
vn -0.0692 0.9976 -0.0000
vn 1.0000 0.0015 -0.0000
vn -0.0000 -0.0000 1.0000
vn -1.0000 0.0016 -0.0000
vn -0.6335 0.0006 -0.7737
vn 0.6334 0.0009 -0.7738
vn 0.6322 0.0006 0.7748
vn -0.6322 0.0010 0.7748
vn -0.4202 -0.9074 -0.0000
vn 0.2146 -0.7472 0.6291
vn -0.2996 -0.6451 0.7029
vn -0.6726 -0.5808 0.4586
vn -0.8369 -0.5474 -0.0000
vn 0.5763 -0.8172 -0.0000
vn 0.2110 -0.7535 -0.6227
vn -0.3002 -0.6483 -0.6998
vn -0.6792 -0.5708 -0.4615
vn 0.6571 0.0329 0.7531
vn 0.6320 0.0239 0.7746
vn -0.1294 -0.0048 0.9916
vn -0.1128 0.0029 -0.9936
vn -0.1472 -0.0000 0.9891
vn -0.0961 -0.0008 -0.9954
vn -0.1427 0.0037 -0.9898
vn -0.0801 0.9968 -0.0000
vn -0.1074 -0.0039 0.9942
vn 0.0314 -0.9995 -0.0000
vn -0.1913 0.0043 0.9815
vn -0.1720 -0.0015 -0.9851
vn 0.6397 -0.0559 0.7666
vn -0.6251 0.1150 -0.7720
vn 0.0067 0.0205 0.9998
vn 0.0067 0.0205 -0.9998
vn -0.6251 0.1150 0.7720
vn 0.6397 -0.0559 -0.7666
vn 0.0171 0.0396 0.9991
vn 0.6690 0.0178 -0.7431
vn 0.0171 0.0396 -0.9991
vn -0.6496 0.0488 -0.7587
vn -0.6496 0.0488 0.7587
vn -0.9996 0.0295 -0.0000
vn -0.6322 0.0010 -0.7748
vn 0.6322 0.0006 -0.7748
vn 0.6334 0.0009 0.7738
vn -0.6335 0.0006 0.7737
vn 0.2110 -0.7535 0.6227
vn -0.3002 -0.6483 0.6998
vn -0.6792 -0.5708 0.4615
vn 0.2146 -0.7472 -0.6291
vn -0.2996 -0.6451 -0.7029
vn -0.6726 -0.5808 -0.4586
vn 0.6690 0.0178 0.7431
vn -0.1128 0.0029 0.9936
vt 0.597437 0.629757
vt 0.597450 0.661529
vt 0.597437 0.661529
vt 0.597452 0.661474
vt 0.597458 0.625404
vt 0.597452 0.620415
vt 0.597417 0.629565
vt 0.597429 0.660358
vt 0.597429 0.625404
vt 0.444041 0.736452
vt 0.444155 0.783143
vt 0.444041 0.783935
vt 0.597470 0.629565
vt 0.597458 0.660358
vt 0.597470 0.660203
vt 0.444491 0.731306
vt 0.444155 0.731306
vt 0.597409 0.630812
vt 0.597417 0.660203
vt 0.597479 0.660824
vt 0.597409 0.660824
vt 0.597479 0.630812
vt 0.597436 0.661474
vt 0.444605 0.736452
vt 0.444491 0.783143
vt 0.597450 0.629757
vt 0.444605 0.783935
vt 0.444323 0.749569
vt 0.444323 0.782926
vt 0.211093 0.859475
vt 0.211163 0.839771
vt 0.211162 0.859475
vt 0.219894 0.825688
vt 0.219894 0.831110
vt 0.219894 0.831313
vt 0.211073 0.866485
vt 0.211154 0.866485
vt 0.211352 0.866485
vt 0.211263 0.859475
vt 0.211271 0.866485
vt 0.211332 0.859475
vt 0.211355 0.827905
vt 0.211262 0.839771
vt 0.211330 0.839771
vt 0.211095 0.839771
vt 0.211273 0.829153
vt 0.211152 0.829153
vt 0.211355 0.828838
vt 0.211070 0.828838
vt 0.211273 0.827590
vt 0.211070 0.827905
vt 0.211145 0.827155
vt 0.211371 0.826803
vt 0.211053 0.826803
vt 0.211145 0.825409
vt 0.211152 0.827590
vt 0.211280 0.827155
vt 0.211371 0.825760
vt 0.211053 0.825760
vt 0.211378 0.825407
vt 0.211046 0.823914
vt 0.211047 0.825407
vt 0.211283 0.823413
vt 0.211280 0.825409
vt 0.211143 0.825907
vt 0.211282 0.825907
vt 0.219975 0.831041
vt 0.220173 0.831110
vt 0.219975 0.825688
vt 0.220092 0.831382
vt 0.220092 0.825688
vt 0.220173 0.825688
vt 0.219975 0.831382
vt 0.220173 0.831313
vt 0.220092 0.831041
vt 0.211339 0.823539
vt 0.211339 0.824902
vt 0.211086 0.823539
vt 0.211379 0.823914
vt 0.211264 0.825291
vt 0.211161 0.825291
vt 0.211161 0.823150
vt 0.211264 0.823150
vt 0.211142 0.823413
vt 0.211086 0.824902
vt 0.597436 0.620415
s 0
usemtl Texture_Map
f 17/1/1 23/2/1 20/3/1
f 14/4/2 11/5/2 13/6/2
f 1/7/3 4/8/3 3/9/3
f 13/10/4 7/11/4 14/12/4
f 9/13/5 12/14/5 10/15/5
f 13/10/6 16/16/6 8/17/6
f 18/18/7 2/19/7 1/7/7
f 24/20/8 10/15/8 19/21/8
f 10/15/9 21/22/9 9/13/9
f 1/7/10 11/5/10 9/13/10
f 2/19/11 12/14/11 4/8/11
f 3/9/12 13/6/12 11/5/12
f 4/8/13 14/4/13 6/23/13
f 5/24/14 15/25/14 16/16/14
f 20/3/15 18/18/15 17/1/15
f 21/22/16 23/2/16 22/26/16
f 21/22/17 22/26/17 18/18/17
f 14/12/18 15/25/18 6/27/18
f 15/25/19 26/28/19 16/16/19
f 8/17/20 16/16/20 26/28/20
f 7/11/21 26/28/21 25/29/21
f 15/25/22 7/11/22 25/29/22
f 39/30/23 48/31/23 40/32/23
f 37/33/24 71/34/24 73/35/24
f 42/32/25 37/36/25 38/37/25
f 34/38/26 28/39/26 33/40/26
f 32/40/27 30/41/27 31/38/27
f 41/30/28 35/36/28 37/36/28
f 28/39/29 38/37/29 33/40/29
f 31/38/30 27/41/30 34/38/30
f 40/32/31 32/40/31 36/37/31
f 39/30/32 36/37/32 35/36/32
f 51/42/33 44/43/33 43/44/33
f 44/43/34 42/32/34 28/39/34
f 42/32/35 49/45/35 41/30/35
f 45/43/36 30/41/36 29/39/36
f 41/30/37 47/45/37 39/30/37
f 48/31/38 29/39/38 40/32/38
f 46/44/39 27/41/39 30/41/39
f 48/31/40 53/46/40 45/43/40
f 47/45/41 56/47/41 48/31/41
f 54/48/42 43/44/42 46/44/42
f 49/45/43 55/49/43 47/45/43
f 52/50/44 50/31/44 44/43/44
f 53/46/45 46/44/45 45/43/45
f 50/31/46 57/51/46 49/45/46
f 64/52/47 53/46/47 56/47/47
f 62/53/48 51/42/48 54/48/48
f 57/51/49 63/54/49 55/49/49
f 52/50/50 66/55/50 58/56/50
f 61/57/51 54/48/51 53/46/51
f 59/58/52 52/50/52 51/42/52
f 55/49/53 64/52/53 56/47/53
f 58/56/54 65/59/54 57/51/54
f 81/60/55 59/58/55 62/53/55
f 66/55/56 88/61/56 65/59/56
f 65/59/57 84/62/57 63/54/57
f 78/63/58 66/55/58 60/64/58
f 63/54/59 85/65/59 64/52/59
f 79/66/60 62/53/60 61/57/60
f 85/65/61 61/57/61 64/52/61
f 71/34/62 72/67/62 67/68/62
f 38/69/63 69/70/63 33/71/63
f 34/72/64 67/68/64 31/72/64
f 32/71/65 72/67/65 36/69/65
f 35/33/66 72/67/66 71/34/66
f 38/69/67 73/35/67 74/73/67
f 33/71/68 70/74/68 34/72/68
f 31/72/69 68/75/69 32/71/69
f 76/76/70 82/77/70 87/78/70
f 76/76/71 78/63/71 75/79/71
f 82/77/72 75/79/72 81/60/72
f 80/80/73 81/60/73 79/66/73
f 80/80/74 85/65/74 86/81/74
f 89/82/75 78/63/75 77/83/75
f 87/78/76 90/84/76 89/82/76
f 83/85/77 88/61/77 87/78/77
f 86/81/78 84/62/78 83/85/78
f 75/79/79 60/64/79 59/58/79
f 43/44/80 28/39/80 27/41/80
f 3/9/81 6/23/81 5/86/81
f 17/1/1 22/26/1 23/2/1
f 14/4/82 12/14/82 11/5/82
f 1/7/83 2/19/83 4/8/83
f 13/10/84 8/17/84 7/11/84
f 9/13/85 11/5/85 12/14/85
f 13/10/6 5/24/6 16/16/6
f 18/18/7 19/21/7 2/19/7
f 10/15/8 2/19/8 19/21/8
f 19/21/86 20/3/86 23/2/86
f 23/2/86 24/20/86 19/21/86
f 10/15/9 24/20/9 21/22/9
f 1/7/10 3/9/10 11/5/10
f 2/19/11 10/15/11 12/14/11
f 3/9/12 5/86/12 13/6/12
f 4/8/13 12/14/13 14/4/13
f 5/24/87 6/27/87 15/25/87
f 20/3/15 19/21/15 18/18/15
f 21/22/16 24/20/16 23/2/16
f 22/26/17 17/1/17 18/18/17
f 18/18/88 1/7/88 9/13/88
f 9/13/88 21/22/88 18/18/88
f 14/12/18 7/11/18 15/25/18
f 15/25/89 25/29/89 26/28/89
f 7/11/90 8/17/90 26/28/90
f 39/30/23 47/45/23 48/31/23
f 37/33/24 35/33/24 71/34/24
f 42/32/25 41/30/25 37/36/25
f 34/38/26 27/41/26 28/39/26
f 32/40/27 29/39/27 30/41/27
f 41/30/28 39/30/28 35/36/28
f 28/39/29 42/32/29 38/37/29
f 31/38/30 30/41/30 27/41/30
f 40/32/31 29/39/31 32/40/31
f 39/30/32 40/32/32 36/37/32
f 51/42/91 52/50/91 44/43/91
f 44/43/34 50/31/34 42/32/34
f 42/32/35 50/31/35 49/45/35
f 45/43/36 46/44/36 30/41/36
f 41/30/37 49/45/37 47/45/37
f 48/31/38 45/43/38 29/39/38
f 46/44/39 43/44/39 27/41/39
f 48/31/40 56/47/40 53/46/40
f 47/45/92 55/49/92 56/47/92
f 54/48/93 51/42/93 43/44/93
f 49/45/94 57/51/94 55/49/94
f 52/50/44 58/56/44 50/31/44
f 53/46/95 54/48/95 46/44/95
f 50/31/96 58/56/96 57/51/96
f 64/52/47 61/57/47 53/46/47
f 62/53/48 59/58/48 51/42/48
f 57/51/49 65/59/49 63/54/49
f 52/50/50 60/64/50 66/55/50
f 61/57/51 62/53/51 54/48/51
f 59/58/52 60/64/52 52/50/52
f 55/49/53 63/54/53 64/52/53
f 58/56/54 66/55/54 65/59/54
f 81/60/97 75/79/97 59/58/97
f 66/55/98 90/84/98 88/61/98
f 65/59/99 88/61/99 84/62/99
f 78/63/58 90/84/58 66/55/58
f 63/54/100 84/62/100 85/65/100
f 79/66/101 81/60/101 62/53/101
f 85/65/102 79/66/102 61/57/102
f 72/67/62 68/75/62 67/68/62
f 67/68/62 70/74/62 73/35/62
f 70/74/62 69/70/62 73/35/62
f 69/70/62 74/73/62 73/35/62
f 73/35/62 71/34/62 67/68/62
f 38/69/63 74/73/63 69/70/63
f 34/72/64 70/74/64 67/68/64
f 32/71/65 68/75/65 72/67/65
f 35/33/103 36/69/103 72/67/103
f 38/69/104 37/33/104 73/35/104
f 33/71/105 69/70/105 70/74/105
f 31/72/106 67/68/106 68/75/106
f 82/77/70 80/80/70 86/81/70
f 86/81/70 83/85/70 82/77/70
f 83/85/70 87/78/70 82/77/70
f 87/78/70 89/82/70 77/83/70
f 77/83/70 76/76/70 87/78/70
f 76/76/107 77/83/107 78/63/107
f 82/77/108 76/76/108 75/79/108
f 80/80/109 82/77/109 81/60/109
f 80/80/74 79/66/74 85/65/74
f 89/82/75 90/84/75 78/63/75
f 87/78/110 88/61/110 90/84/110
f 83/85/111 84/62/111 88/61/111
f 86/81/112 85/65/112 84/62/112
f 75/79/113 78/63/113 60/64/113
f 43/44/80 44/43/80 28/39/80
f 3/9/114 4/8/114 6/23/114
