# Blender 4.4.0
# www.blender.org
mtllib Tool_Shovel_02.mtl
o Tool_Shovel_02
v 0.000000 0.133886 -0.017583
v 0.126318 0.223224 0.009866
v 0.120927 0.134431 0.011902
v 0.125432 0.358389 0.006504
v 0.000000 0.223142 -0.017583
v 0.000000 0.369801 -0.012696
v 0.000000 0.000055 0.001353
v 0.065882 0.024937 0.012967
v 0.125432 0.345245 0.006805
v 0.000000 0.356654 -0.017582
v 0.069989 0.025198 0.009403
v 0.000000 -0.000055 -0.001353
v 0.000000 0.356347 -0.025783
v 0.000000 0.369576 -0.021124
v 0.000000 0.133612 -0.021935
v 0.130235 0.358496 -0.001928
v 0.130235 0.345360 -0.001399
v 0.000000 0.222855 -0.023476
v 0.131154 0.223412 0.003967
v 0.126334 0.134667 0.007536
v 0.122976 0.357822 0.012894
v 0.122862 0.351104 0.013702
v 0.000000 0.362514 -0.008104
v 0.000000 0.369233 -0.006306
v -0.126318 0.223224 0.009866
v -0.120927 0.134431 0.011902
v -0.125432 0.358389 0.006504
v -0.065882 0.024937 0.012967
v -0.125432 0.345245 0.006805
v -0.069989 0.025198 0.009403
v -0.130234 0.358496 -0.001928
v -0.130234 0.345360 -0.001399
v -0.131154 0.223412 0.003967
v -0.126333 0.134667 0.007536
v -0.122976 0.357822 0.012894
v -0.122862 0.351104 0.013702
v -0.008278 0.441576 0.007063
v -0.020128 0.441576 -0.004787
v 0.020128 0.441576 -0.004787
v 0.008278 0.441576 0.007063
v -0.020128 0.441576 -0.021343
v -0.008278 0.441576 -0.033193
v 0.008278 0.441576 -0.033193
v 0.020128 0.441576 -0.021343
v -0.007906 1.503121 -0.032288
v -0.019223 1.503121 -0.020971
v -0.019223 1.503121 -0.005159
v -0.007906 1.503121 0.006158
v 0.007906 1.503121 0.006158
v 0.019223 1.503121 -0.005159
v 0.019223 1.503121 -0.020971
v 0.007906 1.503121 -0.032288
v -0.009033 0.441577 0.008894
v -0.021959 0.441577 -0.004032
v 0.021959 0.441577 -0.004032
v 0.009033 0.441577 0.008894
v -0.021959 0.441577 -0.022098
v -0.009033 0.441577 -0.035024
v 0.009033 0.441577 -0.035024
v 0.021959 0.441577 -0.022098
v -0.008893 0.338453 0.005599
v -0.021618 0.338453 -0.006143
v 0.021618 0.338453 -0.006143
v 0.008893 0.338453 0.005599
v 0.008893 0.338453 -0.034297
v 0.021618 0.338453 -0.022555
v -0.021618 0.338453 -0.022555
v -0.008893 0.338453 -0.034297
v -0.003101 0.152561 -0.016394
v -0.007537 0.152561 -0.018258
v 0.007537 0.152561 -0.018258
v 0.003101 0.152561 -0.016394
v 0.003101 0.152561 -0.022730
v 0.007537 0.152561 -0.020865
v -0.007537 0.152561 -0.020865
v -0.003101 0.152561 -0.022730
vn -0.1626 0.1205 0.9793
vn -0.2122 0.0353 0.9766
vn -0.2355 0.1278 0.9634
vn -0.1909 -0.0000 0.9816
vn 0.3472 -0.9370 0.0382
vn 0.6287 -0.0203 0.7774
vn 0.7728 0.0215 0.6342
vn 0.6339 -0.3118 0.7077
vn 0.8629 0.0116 0.5052
vn 0.0946 0.9952 -0.0265
vn 0.2048 -0.0415 -0.9779
vn 0.2262 -0.1329 -0.9650
vn 0.2048 -0.0504 -0.9775
vn 0.1807 -0.0395 -0.9828
vn -0.1698 -0.8382 0.5182
vn 0.9392 0.0079 0.3433
vn 0.0724 0.9906 0.1158
vn 0.1626 0.1205 0.9793
vn 0.2122 0.0353 0.9766
vn 0.2355 0.1278 0.9634
vn 0.2123 0.0230 0.9769
vn -0.3472 -0.9370 0.0382
vn -0.6287 -0.0203 0.7774
vn -0.7728 0.0215 0.6342
vn -0.6339 -0.3118 0.7077
vn -0.8629 0.0116 0.5052
vn -0.0764 0.9955 0.0562
vn -0.1826 -0.0170 -0.9830
vn -0.2262 -0.1329 -0.9650
vn -0.2048 -0.0504 -0.9775
vn -0.1650 0.3276 -0.9303
vn 0.1867 -0.7820 0.5946
vn -0.9392 0.0079 0.3433
vn -0.0724 0.9906 0.1158
vn -0.0000 1.0000 -0.0000
vn -0.0000 0.0009 1.0000
vn 1.0000 0.0009 -0.0000
vn -0.0000 0.0009 -1.0000
vn -0.7071 0.0009 -0.7071
vn 0.7071 0.0009 -0.7071
vn 0.7071 0.0009 0.7071
vn -0.7071 0.0009 0.7071
vn -1.0000 0.0009 -0.0000
vn 0.7069 -0.0235 0.7069
vn 1.0000 -0.0033 -0.0000
vn -0.0000 -0.0319 0.9995
vn -0.7069 -0.0236 0.7069
vn 0.7071 0.0008 -0.7071
vn -0.0000 -0.0071 -1.0000
vn -1.0000 -0.0033 -0.0000
vn -0.0000 -0.0621 -0.9981
vn 0.6770 -0.0579 -0.7337
vn -0.3859 -0.0891 0.9182
vn -0.0000 -0.1175 0.9931
vn 0.9971 -0.0755 -0.0000
vn -0.6770 -0.0579 -0.7337
vn 0.6742 -0.1075 0.7307
vn -0.9971 -0.0755 -0.0000
vn -0.0000 -1.0000 -0.0000
vn -0.7071 0.0008 -0.7071
vn -0.1722 -0.2547 0.9516
vn -0.2369 -0.0000 0.9715
vn -0.2218 0.1366 0.9655
vn -0.2123 0.0230 0.9769
vn 0.2904 -0.9188 0.2674
vn 0.7735 -0.0165 0.6336
vn 0.8625 0.0287 0.5052
vn 0.6072 -0.3000 0.7358
vn 0.8687 0.0199 0.4950
vn 0.0764 0.9955 0.0562
vn 0.1826 -0.0170 -0.9830
vn 0.2025 -0.1490 -0.9679
vn 0.2273 -0.0168 -0.9737
vn 0.1650 0.3276 -0.9303
vn -0.1867 -0.7820 0.5946
vn 0.9323 0.0276 0.3607
vn 0.0784 0.9930 0.0881
vn 0.1722 -0.2547 0.9516
vn 0.2369 -0.0000 0.9715
vn 0.2218 0.1366 0.9655
vn 0.1909 -0.0000 0.9816
vn -0.2904 -0.9188 0.2674
vn -0.7735 -0.0165 0.6336
vn -0.8625 0.0287 0.5052
vn -0.6072 -0.3000 0.7358
vn -0.8687 0.0199 0.4950
vn -0.0946 0.9952 -0.0265
vn -0.2048 -0.0415 -0.9779
vn -0.2025 -0.1490 -0.9679
vn -0.2273 -0.0168 -0.9737
vn -0.1807 -0.0395 -0.9828
vn 0.1698 -0.8382 0.5182
vn -0.9323 0.0276 0.3607
vn -0.0784 0.9930 0.0881
vn 0.6781 -0.0173 0.7348
vn -0.6781 -0.0173 0.7348
vn 0.6781 -0.0061 -0.7349
vn 0.3865 -0.0693 -0.9197
vn -0.6742 -0.1075 0.7307
vn -0.3865 -0.0693 -0.9197
vn 0.3859 -0.0891 0.9182
vn -0.6781 -0.0061 -0.7349
vt 0.575378 0.689805
vt 0.575399 0.690740
vt 0.575378 0.688467
vt 0.575408 0.662971
vt 0.575379 0.645296
vt 0.575381 0.662988
vt 0.575408 0.645187
vt 0.575378 0.623480
vt 0.575384 0.687300
vt 0.575408 0.689572
vt 0.575392 0.618500
vt 0.575390 0.618522
vt 0.575384 0.645343
vt 0.575387 0.663025
vt 0.575382 0.623532
vt 0.575392 0.687322
vt 0.575385 0.689918
vt 0.575412 0.692147
vt 0.575404 0.692192
vt 0.575414 0.662914
vt 0.575413 0.645133
vt 0.575417 0.689511
vt 0.575393 0.689940
vt 0.230622 0.844554
vt 0.230693 0.844554
vt 0.230723 0.844554
vt 0.230726 0.816385
vt 0.230651 0.816385
vt 0.230694 0.816385
vt 0.230619 0.816385
vt 0.230652 0.844554
vt 0.575413 0.706493
vt 0.575426 0.706493
vt 0.575395 0.706493
vt 0.575386 0.685946
vt 0.575382 0.706493
vt 0.575397 0.685946
vt 0.575413 0.685946
vt 0.575425 0.685946
vt 0.575413 0.648908
vt 0.575412 0.648908
vt 0.575407 0.648908
vt 0.575409 0.648908
vt 0.575397 0.692079
s 0
usemtl Texture_Map
f 21/1/1 23/2/1 22/3/1
f 5/4/2 3/5/2 2/6/2
f 1/7/3 8/8/3 3/5/3
f 5/4/4 9/9/4 10/10/4
f 12/11/5 8/8/5 7/12/5
f 20/13/6 2/6/6 3/5/6
f 19/14/7 9/9/7 2/6/7
f 11/15/8 3/5/8 8/8/8
f 17/16/9 4/17/9 9/9/9
f 4/17/10 14/18/10 6/19/10
f 18/20/11 17/16/11 19/14/11
f 11/15/12 15/21/12 20/13/12
f 20/13/13 18/20/13 19/14/13
f 13/22/14 16/23/14 17/16/14
f 10/10/15 22/3/15 23/2/15
f 4/17/16 22/3/16 9/9/16
f 6/19/17 21/1/17 4/17/17
f 23/2/18 35/1/18 36/3/18
f 26/5/19 5/4/19 25/6/19
f 28/8/20 1/7/20 26/5/20
f 5/4/21 29/9/21 25/6/21
f 28/8/22 12/11/22 7/12/22
f 25/6/23 34/13/23 26/5/23
f 29/9/24 33/14/24 25/6/24
f 26/5/25 30/15/25 28/8/25
f 27/17/26 32/16/26 29/9/26
f 27/17/27 14/18/27 31/23/27
f 18/20/28 32/16/28 13/22/28
f 15/21/29 30/15/29 34/13/29
f 18/20/30 34/13/30 33/14/30
f 13/22/31 31/23/31 14/18/31
f 10/10/32 36/3/32 29/9/32
f 36/3/33 27/17/33 29/9/33
f 35/1/34 6/19/34 27/17/34
f 45/24/35 47/25/35 49/26/35
f 40/27/36 48/26/36 37/27/36
f 44/28/37 50/25/37 39/29/37
f 42/30/38 52/24/38 43/30/38
f 46/31/39 42/30/39 41/28/39
f 44/28/40 52/24/40 51/31/40
f 50/25/41 40/27/41 39/29/41
f 38/29/42 48/26/42 47/25/42
f 38/29/43 46/31/43 41/28/43
f 60/32/35 58/33/35 54/34/35
f 64/35/44 55/34/44 56/36/44
f 63/37/45 60/32/45 55/34/45
f 61/35/46 56/36/46 53/36/46
f 54/34/47 61/35/47 53/36/47
f 66/38/48 59/33/48 60/32/48
f 59/33/49 68/39/49 58/33/49
f 57/32/50 62/37/50 54/34/50
f 76/40/51 65/39/51 73/40/51
f 74/41/52 65/39/52 66/38/52
f 69/42/53 62/37/53 70/43/53
f 69/42/54 64/35/54 61/35/54
f 71/43/55 66/38/55 63/37/55
f 68/39/56 75/41/56 67/38/56
f 72/42/57 63/37/57 64/35/57
f 67/38/58 70/43/58 62/37/58
f 73/40/59 74/41/59 72/42/59
f 58/33/60 67/38/60 57/32/60
f 21/1/61 24/44/61 23/2/61
f 5/4/62 1/7/62 3/5/62
f 1/7/63 7/12/63 8/8/63
f 5/4/64 2/6/64 9/9/64
f 12/11/65 11/15/65 8/8/65
f 20/13/66 19/14/66 2/6/66
f 19/14/67 17/16/67 9/9/67
f 11/15/68 20/13/68 3/5/68
f 17/16/69 16/23/69 4/17/69
f 4/17/70 16/23/70 14/18/70
f 18/20/71 13/22/71 17/16/71
f 11/15/72 12/11/72 15/21/72
f 20/13/73 15/21/73 18/20/73
f 13/22/74 14/18/74 16/23/74
f 10/10/75 9/9/75 22/3/75
f 4/17/76 21/1/76 22/3/76
f 6/19/77 24/44/77 21/1/77
f 23/2/78 24/44/78 35/1/78
f 26/5/79 1/7/79 5/4/79
f 28/8/80 7/12/80 1/7/80
f 5/4/81 10/10/81 29/9/81
f 28/8/82 30/15/82 12/11/82
f 25/6/83 33/14/83 34/13/83
f 29/9/84 32/16/84 33/14/84
f 26/5/85 34/13/85 30/15/85
f 27/17/86 31/23/86 32/16/86
f 27/17/87 6/19/87 14/18/87
f 18/20/88 33/14/88 32/16/88
f 15/21/89 12/11/89 30/15/89
f 18/20/90 15/21/90 34/13/90
f 13/22/91 32/16/91 31/23/91
f 10/10/92 23/2/92 36/3/92
f 36/3/93 35/1/93 27/17/93
f 35/1/94 24/44/94 6/19/94
f 45/24/35 46/31/35 47/25/35
f 47/25/35 48/26/35 49/26/35
f 49/26/35 50/25/35 45/24/35
f 50/25/35 51/31/35 45/24/35
f 51/31/35 52/24/35 45/24/35
f 40/27/36 49/26/36 48/26/36
f 44/28/37 51/31/37 50/25/37
f 42/30/38 45/24/38 52/24/38
f 46/31/39 45/24/39 42/30/39
f 44/28/40 43/30/40 52/24/40
f 50/25/41 49/26/41 40/27/41
f 38/29/42 37/27/42 48/26/42
f 38/29/43 47/25/43 46/31/43
f 54/34/35 53/36/35 56/36/35
f 56/36/35 55/34/35 60/32/35
f 60/32/35 59/33/35 58/33/35
f 58/33/35 57/32/35 54/34/35
f 54/34/35 56/36/35 60/32/35
f 64/35/95 63/37/95 55/34/95
f 63/37/45 66/38/45 60/32/45
f 61/35/46 64/35/46 56/36/46
f 54/34/96 62/37/96 61/35/96
f 66/38/97 65/39/97 59/33/97
f 59/33/49 65/39/49 68/39/49
f 57/32/50 67/38/50 62/37/50
f 76/40/51 68/39/51 65/39/51
f 74/41/98 73/40/98 65/39/98
f 69/42/99 61/35/99 62/37/99
f 69/42/54 72/42/54 64/35/54
f 71/43/55 74/41/55 66/38/55
f 68/39/100 76/40/100 75/41/100
f 72/42/101 71/43/101 63/37/101
f 67/38/58 75/41/58 70/43/58
f 74/41/59 71/43/59 72/42/59
f 72/42/59 69/42/59 76/40/59
f 69/42/59 70/43/59 76/40/59
f 70/43/59 75/41/59 76/40/59
f 76/40/59 73/40/59 72/42/59
f 58/33/102 68/39/102 67/38/102
