# Blender 4.4.0
# www.blender.org
mtllib Tool_Pitchfork_01.mtl
o Tool_Pitchfork_01
v -0.021754 1.190563 0.008122
v -0.008122 1.190563 0.021754
v 0.005172 1.421550 0.013854
v 0.013854 1.421550 0.005172
v 0.021754 1.190563 0.008122
v 0.008122 1.190563 0.021754
v 0.021754 1.190563 -0.008122
v 0.008122 1.190563 -0.021754
v -0.005172 1.421550 -0.013854
v -0.013854 1.421550 -0.005172
v -0.021754 1.190563 -0.008122
v -0.008122 1.190563 -0.021754
v -0.006891 0.000000 0.018783
v -0.018783 0.000000 0.006891
v 0.018783 0.000000 0.006891
v 0.006891 0.000000 0.018783
v -0.018783 0.000000 -0.006891
v -0.006891 0.000000 -0.018783
v 0.006891 0.000000 -0.018783
v 0.018783 0.000000 -0.006891
v -0.006891 1.190563 -0.018783
v -0.018783 1.190563 -0.006891
v 0.006891 1.190563 -0.018783
v 0.018783 1.190563 -0.006891
v 0.006891 1.190563 0.018783
v 0.018783 1.190563 0.006891
v -0.006891 1.190563 0.018783
v -0.018783 1.190563 0.006891
v 0.005172 1.421550 -0.013854
v 0.013854 1.421550 -0.005172
v -0.005172 1.421550 0.013854
v -0.013854 1.421550 0.005172
v -0.000000 1.424294 0.009063
v -0.000000 1.428761 0.004595
v 0.000000 1.410636 0.004595
v 0.000000 1.415103 0.009063
v -0.000000 1.424294 -0.009063
v -0.000000 1.428761 -0.004595
v 0.000000 1.415103 -0.009063
v 0.000000 1.410636 -0.004595
v 0.039516 1.426585 0.007157
v 0.039888 1.430093 0.003629
v 0.038380 1.415859 0.003629
v 0.038752 1.419367 0.007157
v 0.039516 1.426585 -0.007157
v 0.039888 1.430093 -0.003629
v 0.038752 1.419367 -0.007157
v 0.038380 1.415859 -0.003629
v 0.071833 1.427222 0.005050
v 0.070952 1.429550 0.002561
v 0.074526 1.420104 0.002561
v 0.073645 1.422432 0.005050
v 0.071833 1.427222 -0.005050
v 0.070952 1.429550 -0.002561
v 0.073645 1.422432 -0.005050
v 0.074526 1.420104 -0.002561
v 0.097169 1.442860 -0.004754
v 0.098705 1.441627 -0.002410
v 0.098705 1.441627 0.002410
v 0.097169 1.442860 0.004754
v 0.094007 1.445397 0.004754
v 0.092470 1.446630 0.002410
v 0.094007 1.445397 -0.004754
v 0.092470 1.446630 -0.002410
v 0.130517 1.793329 0.000000
v 0.112897 1.596810 -0.011451
v 0.123111 1.723894 -0.007510
v 0.110900 1.596896 -0.013460
v 0.121709 1.723954 -0.008917
v 0.118998 1.596534 -0.013438
v 0.127395 1.723704 -0.008908
v 0.117003 1.596624 -0.011439
v 0.125994 1.723761 -0.007507
v 0.112895 1.596792 -0.019585
v 0.123105 1.723833 -0.013218
v 0.121705 1.723923 -0.011811
v 0.110899 1.596886 -0.017585
v 0.117002 1.596615 -0.019573
v 0.125991 1.723719 -0.013210
v 0.118998 1.596533 -0.017561
v 0.127394 1.723692 -0.011798
v -0.039516 1.426585 0.007157
v -0.039888 1.430093 0.003629
v -0.038380 1.415859 0.003629
v -0.038752 1.419367 0.007157
v -0.039516 1.426585 -0.007157
v -0.039888 1.430093 -0.003629
v -0.038752 1.419367 -0.007157
v -0.038380 1.415859 -0.003629
v -0.071833 1.427222 0.005050
v -0.070952 1.429550 0.002561
v -0.074526 1.420104 0.002561
v -0.073645 1.422432 0.005050
v -0.071833 1.427222 -0.005050
v -0.070952 1.429550 -0.002561
v -0.073645 1.422432 -0.005050
v -0.074526 1.420104 -0.002561
v -0.097169 1.442860 -0.004754
v -0.098705 1.441627 -0.002410
v -0.098705 1.441627 0.002410
v -0.097169 1.442860 0.004754
v -0.094007 1.445397 0.004754
v -0.092470 1.446630 0.002410
v -0.094007 1.445397 -0.004754
v -0.092470 1.446630 -0.002410
v -0.130517 1.793329 0.000000
v -0.112897 1.596810 -0.011451
v -0.123111 1.723894 -0.007510
v -0.110900 1.596896 -0.013460
v -0.121709 1.723954 -0.008917
v -0.118998 1.596534 -0.013438
v -0.127395 1.723704 -0.008908
v -0.117003 1.596624 -0.011439
v -0.125994 1.723761 -0.007507
v -0.112895 1.596792 -0.019585
v -0.123105 1.723833 -0.013218
v -0.121705 1.723923 -0.011811
v -0.110899 1.596886 -0.017585
v -0.117002 1.596615 -0.019573
v -0.125991 1.723719 -0.013210
v -0.118998 1.596533 -0.017561
v -0.127394 1.723692 -0.011798
v 0.034148 1.426472 0.006346
v 0.037276 1.426472 0.003218
v 0.024584 1.426472 0.003218
v 0.027713 1.426472 0.006346
v 0.034148 1.426472 -0.006346
v 0.037276 1.426472 -0.003218
v 0.027713 1.426472 -0.006346
v 0.024584 1.426472 -0.003218
v 0.041812 1.799658 0.000000
v 0.038785 1.600925 -0.017628
v 0.041740 1.728376 -0.012056
v 0.041741 1.728400 -0.008921
v 0.038785 1.600934 -0.013294
v 0.040223 1.728483 -0.007393
v 0.036682 1.601054 -0.011190
v 0.037102 1.728656 -0.007381
v 0.032357 1.601294 -0.011193
v 0.035587 1.728745 -0.008894
v 0.030256 1.601411 -0.013299
v 0.035586 1.728727 -0.012024
v 0.030255 1.601410 -0.017632
v 0.037100 1.728609 -0.013558
v 0.032357 1.601285 -0.019738
v 0.040221 1.728431 -0.013575
v 0.036682 1.601038 -0.019736
v -0.034148 1.426472 0.006346
v -0.037276 1.426472 0.003218
v -0.024584 1.426472 0.003218
v -0.027713 1.426472 0.006346
v -0.034148 1.426472 -0.006346
v -0.037276 1.426472 -0.003218
v -0.027713 1.426472 -0.006346
v -0.024584 1.426472 -0.003218
v -0.041812 1.799658 0.000000
v -0.038785 1.600925 -0.017628
v -0.041740 1.728376 -0.012056
v -0.041741 1.728400 -0.008921
v -0.038785 1.600934 -0.013294
v -0.040223 1.728483 -0.007393
v -0.036682 1.601054 -0.011190
v -0.037102 1.728656 -0.007381
v -0.032357 1.601294 -0.011193
v -0.035587 1.728745 -0.008894
v -0.030256 1.601411 -0.013299
v -0.035586 1.728727 -0.012024
v -0.030255 1.601410 -0.017632
v -0.037100 1.728609 -0.013558
v -0.032357 1.601285 -0.019738
v -0.040221 1.728431 -0.013575
v -0.036682 1.601038 -0.019736
v 0.003333 1.229186 0.022741
v -0.003650 1.229003 0.022741
v -0.006982 1.222865 0.022741
v -0.003333 1.216910 0.022741
v 0.003650 1.217093 0.022741
v 0.006982 1.223231 0.022741
v -0.003650 1.229003 0.018961
v 0.003333 1.229186 0.018961
v -0.006982 1.222865 0.018961
v -0.003333 1.216910 0.018961
v 0.003650 1.217093 0.018961
v 0.006982 1.223231 0.018961
v 0.002767 1.364350 0.017997
v -0.003029 1.364198 0.017997
v -0.005796 1.359102 0.017997
v -0.002767 1.354159 0.017997
v 0.003029 1.354311 0.017997
v 0.005796 1.359406 0.017997
v -0.003029 1.364198 0.014859
v 0.002767 1.364350 0.014859
v -0.005796 1.359102 0.014859
v -0.002767 1.354159 0.014859
v 0.003029 1.354311 0.014859
v 0.005796 1.359406 0.014859
vn -0.0000 0.0342 0.9994
vn -0.0000 -1.0000 -0.0000
vn -0.0000 -0.0000 1.0000
vn -0.0000 -0.0000 -1.0000
vn 1.0000 -0.0000 -0.0000
vn 0.7071 -0.0000 -0.7071
vn -0.7071 -0.0000 0.7071
vn -0.7071 -0.0000 -0.7071
vn 0.7071 -0.0000 0.7071
vn 0.9994 0.0342 -0.0000
vn -0.0000 0.0342 -0.9994
vn -0.9994 0.0342 -0.0000
vn -0.7067 0.0332 -0.7067
vn 0.7067 0.0332 0.7067
vn 0.7067 0.0332 -0.7067
vn -0.7067 0.0332 0.7067
vn -0.0000 1.0000 -0.0000
vn -1.0000 -0.0000 -0.0000
vn 0.0583 0.0221 -0.9981
vn -0.0069 0.7071 -0.7071
vn 0.1133 -0.7025 -0.7026
vn 0.1123 -0.7105 0.6947
vn -0.0066 0.7094 0.7048
vn 0.0491 -0.0000 -0.9988
vn 0.1349 -0.9909 -0.0000
vn 0.0485 -0.0051 0.9988
vn -0.0334 0.9994 -0.0000
vn 1.0000 -0.0086 -0.0000
vn 0.1166 -0.9932 -0.0000
vn 0.0652 -0.0069 0.9978
vn 0.0175 0.9998 -0.0000
vn 0.0296 0.7353 -0.6771
vn 0.1038 -0.7078 -0.6987
vn 0.1044 -0.7107 0.6957
vn 0.0366 0.7067 0.7066
vn -0.0696 -0.0868 -0.9938
vn 0.9915 -0.1299 -0.0000
vn 0.0760 0.0947 0.9926
vn -0.8236 0.0474 -0.5651
vn 0.7842 -0.1613 -0.5992
vn 0.8229 -0.0499 0.5660
vn -0.4539 0.5650 -0.6890
vn -0.6217 0.7832 -0.0000
vn 0.0066 0.0082 0.9999
vn 0.6649 -0.7469 -0.0000
vn 0.0095 0.0036 -0.9999
vn -0.4782 0.6081 0.6337
vn 0.5095 -0.5774 0.6380
vn 0.4887 -0.5442 -0.6819
vn -0.6871 0.2058 -0.6968
vn 0.0099 0.1858 -0.9825
vn -0.9920 0.1260 -0.0002
vn 0.6993 -0.1215 0.7044
vn 0.7073 0.0871 -0.7015
vn 0.9990 -0.0448 -0.0001
vn -0.0060 -0.1069 0.9943
vn -0.9964 0.0848 -0.0000
vn -0.7083 0.0350 0.7051
vn -0.0041 -0.0307 0.9995
vn 0.7038 -0.0716 0.7068
vn 0.9978 -0.0659 -0.0000
vn 0.7090 -0.0149 -0.7051
vn 0.0045 0.0497 -0.9988
vn -0.7028 0.0918 -0.7055
vn -0.7082 -0.0008 0.7060
vn -0.7839 0.1619 0.5994
vn -0.0652 -0.0069 -0.9978
vn 0.0069 0.7071 -0.7071
vn -0.1133 -0.7025 -0.7026
vn -0.1133 -0.7025 0.7026
vn 0.0069 0.7071 0.7071
vn -0.0491 -0.0000 -0.9988
vn -0.1349 -0.9909 -0.0000
vn -0.0491 -0.0000 0.9988
vn 0.0334 0.9994 -0.0000
vn -0.1166 -0.9932 -0.0000
vn -0.0652 -0.0069 0.9978
vn -0.0175 0.9998 -0.0000
vn -0.0366 0.7067 -0.7066
vn -0.1044 -0.7107 -0.6957
vn -0.1044 -0.7107 0.6957
vn -0.0366 0.7067 0.7066
vn 0.0013 -0.0973 -0.9953
vn -0.9915 -0.1299 -0.0000
vn -0.0760 0.0947 0.9926
vn 0.7075 0.0154 -0.7066
vn -0.6977 -0.1574 -0.6989
vn -0.8229 -0.0499 0.5660
vn 0.4539 0.5650 -0.6890
vn 0.6217 0.7832 -0.0000
vn -0.0095 0.0036 0.9999
vn -0.6649 -0.7469 -0.0000
vn -0.0095 0.0036 -0.9999
vn 0.4539 0.5650 0.6890
vn -0.4887 -0.5442 0.6819
vn -0.4887 -0.5442 -0.6819
vn 0.6871 0.2058 -0.6968
vn -0.0099 0.1858 -0.9825
vn 0.9920 0.1260 -0.0002
vn -0.6993 -0.1215 0.7044
vn -0.7073 0.0871 -0.7015
vn -0.9990 -0.0448 -0.0001
vn 0.0060 -0.1069 0.9943
vn 0.9964 0.0848 -0.0000
vn 0.7083 0.0350 0.7051
vn 0.0041 -0.0307 0.9995
vn -0.7041 -0.0717 0.7065
vn -0.9978 -0.0659 -0.0000
vn -0.7094 -0.0149 -0.7047
vn -0.0051 0.0496 -0.9988
vn 0.7028 0.0918 -0.7055
vn 0.7082 -0.0008 0.7060
vn 0.7839 0.1619 0.5994
vn -1.0000 -0.0086 -0.0000
vn -0.9995 0.0324 -0.0000
vn -0.0000 0.0999 0.9950
vn 0.7056 -0.0644 -0.7056
vn -0.7067 -0.0353 -0.7067
vn -0.7043 0.0894 0.7043
vn 0.7058 0.0606 0.7058
vn -0.0018 -0.1033 0.9947
vn -0.6933 0.1792 -0.6980
vn -0.7072 -0.0265 0.7065
vn 0.7043 0.1177 -0.7001
vn 0.0054 0.1871 -0.9823
vn -0.9962 0.0875 -0.0001
vn 0.7041 -0.0889 0.7045
vn 0.9997 -0.0232 -0.0000
vn 0.7057 -0.0406 0.7074
vn -0.0023 -0.0297 0.9996
vn -0.7065 0.0051 0.7077
vn -0.9991 0.0418 0.0001
vn -0.7081 0.0606 -0.7035
vn -0.0026 0.0486 -0.9988
vn 0.7084 0.0145 -0.7057
vn 1.0000 -0.0010 -0.0002
vn -0.0000 -0.0765 -0.9971
vn 0.9926 0.1217 -0.0000
vn 0.9995 0.0324 -0.0000
vn -0.7048 -0.0644 -0.7064
vn 0.7067 -0.0353 -0.7067
vn 0.7043 0.0894 0.7043
vn -0.7078 0.0605 0.7038
vn 0.0018 -0.1033 0.9947
vn 0.6933 0.1792 -0.6980
vn 0.7072 -0.0265 0.7065
vn -0.7043 0.1177 -0.7001
vn -0.0054 0.1871 -0.9823
vn 0.9962 0.0875 -0.0001
vn -0.7041 -0.0889 0.7045
vn -0.9997 -0.0232 -0.0000
vn -0.7077 -0.0407 0.7054
vn -0.0023 -0.0300 0.9995
vn 0.7065 0.0051 0.7077
vn 0.9991 0.0418 0.0001
vn 0.7081 0.0606 -0.7035
vn 0.0026 0.0486 -0.9988
vn -0.7073 0.0145 -0.7068
vn -1.0000 -0.0010 -0.0002
vn 0.0039 -0.0763 -0.9971
vn -0.8526 -0.5225 -0.0000
vn -0.0262 0.9997 -0.0001
vn 0.8526 0.5225 -0.0000
vn 0.0262 -0.9997 -0.0000
vn -0.8788 0.4772 -0.0000
vn 0.8788 -0.4772 -0.0000
vn -0.0262 0.9997 -0.0000
vn -0.9926 0.1217 -0.0000
vn -0.0000 1.0000 0.0001
vn -0.0000 1.0000 -0.0001
vn 0.0652 -0.0069 -0.9978
vn -0.0066 0.7094 -0.7048
vn 0.1123 -0.7105 -0.6947
vn 0.1133 -0.7025 0.7026
vn -0.0069 0.7071 0.7071
vn 0.0485 -0.0051 -0.9988
vn 0.0491 -0.0000 0.9988
vn 0.0583 0.0221 0.9981
vn 0.0366 0.7067 -0.7066
vn 0.1044 -0.7107 -0.6957
vn 0.1038 -0.7078 0.6987
vn 0.0296 0.7353 0.6771
vn -0.0013 -0.0973 -0.9953
vn 0.0021 0.1062 0.9943
vn -0.7075 0.0154 -0.7066
vn 0.6977 -0.1574 -0.6989
vn 0.7071 -0.0168 0.7069
vn -0.4782 0.6081 -0.6337
vn 0.0095 0.0036 0.9999
vn 0.0066 0.0082 -0.9999
vn -0.4539 0.5650 0.6890
vn 0.4887 -0.5442 0.6819
vn 0.5095 -0.5774 -0.6380
vn -0.9964 0.0848 0.0002
vn -0.7070 0.0349 0.7063
vn -0.0025 -0.0307 0.9995
vn 0.7041 -0.0717 0.7065
vn 0.7094 -0.0149 -0.7047
vn 0.0051 0.0496 -0.9988
vn -0.7030 0.0918 -0.7052
vn -0.6970 0.1593 0.6992
vn -0.0583 0.0221 -0.9981
vn 0.0066 0.7094 -0.7048
vn -0.1123 -0.7105 -0.6947
vn -0.1123 -0.7105 0.6947
vn 0.0066 0.7094 0.7048
vn -0.0485 -0.0051 -0.9988
vn -0.0485 -0.0051 0.9988
vn -0.0583 0.0221 0.9981
vn -0.0296 0.7353 -0.6771
vn -0.1038 -0.7078 -0.6987
vn -0.1038 -0.7078 0.6987
vn -0.0296 0.7353 0.6771
vn 0.0696 -0.0868 -0.9938
vn -0.0021 0.1062 0.9943
vn 0.8236 0.0474 -0.5651
vn -0.7842 -0.1613 -0.5992
vn -0.7071 -0.0168 0.7069
vn 0.4783 0.6081 -0.6336
vn -0.0066 0.0082 0.9999
vn -0.0066 0.0082 -0.9999
vn 0.4783 0.6081 0.6336
vn -0.5095 -0.5774 0.6380
vn -0.5095 -0.5774 -0.6380
vn 0.9964 0.0848 0.0002
vn 0.7070 0.0349 0.7063
vn 0.0025 -0.0307 0.9995
vn -0.7038 -0.0716 0.7068
vn -0.7090 -0.0149 -0.7051
vn -0.0045 0.0497 -0.9988
vn 0.7030 0.0919 -0.7052
vn 0.6970 0.1593 0.6992
vn 0.0049 0.0997 0.9950
vn 0.7048 -0.0644 -0.7064
vn -0.7085 -0.0352 -0.7048
vn -0.7026 0.0894 0.7060
vn 0.7078 0.0605 0.7038
vn 0.7077 -0.0407 0.7054
vn 0.0023 -0.0300 0.9995
vn -0.7078 0.0052 0.7064
vn -0.9991 0.0418 -0.0000
vn -0.7048 0.0606 -0.7068
vn 0.0032 0.0482 -0.9988
vn 0.7073 0.0145 -0.7068
vn -0.0039 -0.0763 -0.9971
vn 0.9926 0.1217 -0.0001
vn -0.0049 0.0997 0.9950
vn -0.7056 -0.0644 -0.7056
vn 0.7085 -0.0352 -0.7048
vn 0.7026 0.0894 0.7060
vn -0.7058 0.0606 0.7058
vn -0.7057 -0.0406 0.7074
vn 0.0023 -0.0297 0.9996
vn 0.7078 0.0052 0.7064
vn 0.9991 0.0418 -0.0000
vn 0.7048 0.0606 -0.7068
vn -0.0032 0.0482 -0.9988
vn -0.7084 0.0145 -0.7057
vn -0.0262 0.9997 0.0001
vn -0.9926 0.1217 -0.0001
vt 0.575370 0.682377
vt 0.575377 0.722001
vt 0.568656 0.905184
vt 0.568722 0.905184
vt 0.568865 0.905184
vt 0.568865 0.971639
vt 0.568656 0.971639
vt 0.568799 0.971639
vt 0.568799 0.905184
vt 0.568722 0.971639
vt 0.575399 0.682377
vt 0.575386 0.722001
vt 0.575383 0.682377
vt 0.575413 0.682377
vt 0.575405 0.722001
vt 0.575396 0.722001
vt 0.601193 0.648209
vt 0.601191 0.649557
vt 0.601191 0.648735
vt 0.601191 0.649821
vt 0.601193 0.649447
vt 0.601195 0.649054
vt 0.601195 0.647478
vt 0.601190 0.647607
vt 0.601191 0.646711
vt 0.601177 0.647478
vt 0.601183 0.647607
vt 0.601179 0.648209
vt 0.601182 0.649821
vt 0.601179 0.649447
vt 0.601183 0.650049
vt 0.601182 0.646711
vt 0.601177 0.649054
vt 0.601190 0.650049
vt 0.601190 0.649428
vt 0.601199 0.679356
vt 0.601183 0.649428
vt 0.601184 0.648335
vt 0.601181 0.649557
vt 0.601189 0.649956
vt 0.601189 0.648335
vt 0.601181 0.648735
vt 0.601184 0.649956
vt 0.601191 0.652674
vt 0.601206 0.678615
vt 0.601191 0.652239
vt 0.601189 0.652028
vt 0.601200 0.678601
vt 0.601184 0.652028
vt 0.601198 0.678616
vt 0.601182 0.652674
vt 0.601182 0.652239
vt 0.601189 0.652886
vt 0.601206 0.678645
vt 0.601204 0.678601
vt 0.601184 0.652886
vt 0.601199 0.700438
vt 0.601198 0.700454
vt 0.601186 0.712360
vt 0.601199 0.700419
vt 0.601195 0.700459
vt 0.601194 0.700426
vt 0.601195 0.700416
vt 0.601198 0.700414
vt 0.601194 0.700449
vt 0.601200 0.678663
vt 0.601204 0.678661
vt 0.601198 0.678648
vt 0.601204 0.679354
vt 0.601199 0.679438
vt 0.601197 0.679376
vt 0.601180 0.649428
vt 0.601193 0.649428
vt 0.601204 0.679437
vt 0.601197 0.679417
vt 0.601194 0.701266
vt 0.601194 0.701236
vt 0.601186 0.713446
vt 0.601200 0.701257
vt 0.601198 0.701278
vt 0.601195 0.701281
vt 0.601198 0.701217
vt 0.601200 0.701227
vt 0.601195 0.701221
vt 0.601206 0.679416
vt 0.601206 0.679373
vt 0.601164 0.613510
vt 0.601164 0.614563
vt 0.601164 0.615585
vt 0.601168 0.614500
vt 0.601164 0.613479
vt 0.601164 0.614500
vt 0.601168 0.615585
vt 0.601164 0.615553
vt 0.601168 0.614563
vt 0.601168 0.613510
vt 0.601168 0.615553
vt 0.601169 0.637871
vt 0.601169 0.637049
vt 0.601169 0.638771
vt 0.601172 0.637871
vt 0.601169 0.637023
vt 0.601172 0.638771
vt 0.601169 0.638745
vt 0.601172 0.637923
vt 0.601169 0.637923
vt 0.601172 0.637023
vt 0.601172 0.638745
vt 0.601172 0.637049
vt 0.601168 0.613479
s 0
usemtl Texture_Map
f 6/1/1 31/2/1 2/1/1
f 18/3/2 20/4/2 16/5/2
f 16/5/3 27/6/3 13/5/3
f 18/3/4 23/7/4 19/3/4
f 20/4/5 26/8/5 15/9/5
f 20/4/6 23/7/6 24/10/6
f 14/9/7 27/6/7 28/8/7
f 22/10/8 18/3/8 17/4/8
f 26/8/9 16/5/9 15/9/9
f 7/11/10 4/12/10 5/13/10
f 12/14/11 29/15/11 8/14/11
f 1/13/12 10/16/12 11/11/12
f 10/16/13 12/14/13 11/11/13
f 4/12/14 6/1/14 5/13/14
f 7/11/15 29/15/15 30/16/15
f 1/13/16 31/2/16 32/12/16
f 5/13/2 2/1/2 11/11/2
f 32/12/17 3/2/17 30/16/17
f 14/9/18 22/10/18 17/4/18
f 47/17/19 53/18/19 55/19/19
f 38/20/20 45/21/20 37/22/20
f 39/23/21 48/24/21 40/25/21
f 36/26/22 43/27/22 44/28/22
f 34/29/23 41/30/23 42/31/23
f 37/22/24 47/17/24 39/23/24
f 40/25/25 43/27/25 35/32/25
f 33/33/26 44/28/26 41/30/26
f 34/29/27 46/34/27 38/20/27
f 128/35/28 135/36/28 124/37/28
f 48/24/29 51/38/29 43/27/29
f 44/28/30 49/39/30 41/30/30
f 42/31/31 54/40/31 46/34/31
f 45/21/32 54/40/32 53/18/32
f 48/24/33 55/19/33 56/41/33
f 43/27/34 52/42/34 44/28/34
f 41/30/35 50/43/35 42/31/35
f 63/44/36 78/45/36 57/46/36
f 58/47/37 70/48/37 59/49/37
f 72/50/38 61/51/38 60/52/38
f 64/53/39 74/54/39 63/44/39
f 57/46/40 80/55/40 58/47/40
f 70/48/41 60/52/41 59/49/41
f 54/40/42 63/44/42 53/18/42
f 50/43/43 64/53/43 54/40/43
f 49/39/44 60/52/44 61/51/44
f 56/41/45 59/49/45 51/38/45
f 53/18/46 57/46/46 55/19/46
f 50/43/47 61/51/47 62/56/47
f 52/42/48 59/49/48 60/52/48
f 55/19/49 58/47/49 56/41/49
f 75/57/50 76/58/50 65/59/50
f 79/60/51 75/57/51 65/59/51
f 76/58/52 69/61/52 65/59/52
f 73/62/53 71/63/53 65/59/53
f 81/64/54 79/60/54 65/59/54
f 71/63/55 81/64/55 65/59/55
f 67/65/56 73/62/56 65/59/56
f 68/66/57 76/58/57 77/67/57
f 66/68/58 69/61/58 68/66/58
f 72/50/59 67/65/59 66/68/59
f 72/50/60 71/63/60 73/62/60
f 70/48/61 81/64/61 71/63/61
f 80/55/62 79/60/62 81/64/62
f 78/45/63 75/57/63 79/60/63
f 77/67/64 75/57/64 74/54/64
f 69/61/65 67/65/65 65/59/65
f 66/68/66 62/56/66 61/51/66
f 88/17/67 94/18/67 86/21/67
f 86/21/68 38/20/68 37/22/68
f 89/24/69 39/23/69 40/25/69
f 36/26/70 84/27/70 35/32/70
f 34/29/71 82/30/71 33/33/71
f 88/17/72 37/22/72 39/23/72
f 84/27/73 40/25/73 35/32/73
f 33/33/74 85/28/74 36/26/74
f 87/34/75 34/29/75 38/20/75
f 92/38/76 89/24/76 84/27/76
f 90/39/77 85/28/77 82/30/77
f 95/40/78 83/31/78 87/34/78
f 86/21/79 95/40/79 87/34/79
f 89/24/80 96/19/80 88/17/80
f 93/42/81 84/27/81 85/28/81
f 91/43/82 82/30/82 83/31/82
f 104/44/83 119/45/83 115/54/83
f 99/47/84 111/48/84 121/55/84
f 102/51/85 113/50/85 101/52/85
f 105/53/86 115/54/86 118/67/86
f 98/46/87 121/55/87 119/45/87
f 101/52/88 111/48/88 100/49/88
f 104/44/89 95/40/89 94/18/89
f 105/53/90 91/43/90 95/40/90
f 90/39/91 101/52/91 93/42/91
f 100/49/92 97/41/92 92/38/92
f 98/46/93 94/18/93 96/19/93
f 91/43/94 102/51/94 90/39/94
f 93/42/95 100/49/95 92/38/95
f 99/47/96 96/19/96 97/41/96
f 116/57/97 106/59/97 117/58/97
f 120/60/98 106/59/98 116/57/98
f 117/58/99 106/59/99 110/61/99
f 114/62/100 106/59/100 112/63/100
f 122/64/101 106/59/101 120/60/101
f 112/63/102 106/59/102 122/64/102
f 108/65/103 106/59/103 114/62/103
f 117/58/104 109/66/104 118/67/104
f 110/61/105 107/68/105 109/66/105
f 108/65/106 113/50/106 107/68/106
f 113/50/107 112/63/107 111/48/107
f 111/48/108 122/64/108 121/55/108
f 121/55/109 120/60/109 119/45/109
f 119/45/110 116/57/110 115/54/110
f 116/57/111 118/67/111 115/54/111
f 110/61/112 106/59/112 108/65/112
f 103/56/113 107/68/113 102/51/113
f 153/35/114 160/36/114 157/69/114
f 141/70/115 130/35/115 125/37/115
f 137/71/116 126/72/116 123/72/116
f 127/73/117 132/69/117 128/35/117
f 143/74/118 129/73/118 130/35/118
f 139/75/119 125/37/119 126/72/119
f 124/37/120 137/71/120 123/72/120
f 138/76/121 136/77/121 131/78/121
f 144/79/122 142/80/122 131/78/122
f 140/81/123 138/76/123 131/78/123
f 133/82/124 146/83/124 131/78/124
f 146/83/125 144/79/125 131/78/125
f 142/80/126 140/81/126 131/78/126
f 136/77/127 134/84/127 131/78/127
f 133/82/128 135/36/128 132/69/128
f 134/84/129 137/71/129 135/36/129
f 136/77/130 139/75/130 137/71/130
f 140/81/131 139/75/131 138/76/131
f 142/80/132 141/70/132 140/81/132
f 144/79/133 143/74/133 142/80/133
f 146/83/134 145/85/134 144/79/134
f 146/83/135 132/69/135 147/86/135
f 134/84/136 133/82/136 131/78/136
f 129/73/137 147/86/137 127/73/137
f 105/53/138 109/66/138 103/56/138
f 155/35/139 166/70/139 150/37/139
f 151/72/116 162/71/116 148/72/116
f 152/73/140 157/69/140 172/86/140
f 154/73/141 168/74/141 155/35/141
f 150/37/142 164/75/142 151/72/142
f 149/37/143 162/71/143 160/36/143
f 163/76/144 156/78/144 161/77/144
f 169/79/145 156/78/145 167/80/145
f 165/81/146 156/78/146 163/76/146
f 158/82/147 156/78/147 171/83/147
f 171/83/148 156/78/148 169/79/148
f 167/80/149 156/78/149 165/81/149
f 161/77/150 156/78/150 159/84/150
f 158/82/151 160/36/151 159/84/151
f 159/84/152 162/71/152 161/77/152
f 161/77/153 164/75/153 163/76/153
f 164/75/154 165/81/154 163/76/154
f 166/70/155 167/80/155 165/81/155
f 168/74/156 169/79/156 167/80/156
f 170/85/157 171/83/157 169/79/157
f 171/83/158 157/69/158 158/82/158
f 159/84/159 156/78/159 158/82/159
f 154/73/160 172/86/160 170/85/160
f 177/87/3 178/88/3 173/89/3
f 181/90/161 176/91/161 175/92/161
f 180/93/162 174/94/162 173/89/162
f 184/95/163 173/89/163 178/88/163
f 176/91/164 183/96/164 177/87/164
f 179/97/165 175/92/165 174/94/165
f 177/87/166 184/95/166 178/88/166
f 187/98/3 189/99/3 185/100/3
f 193/101/161 188/102/161 187/98/161
f 192/103/167 186/104/167 185/100/167
f 196/105/163 185/100/163 190/106/163
f 194/107/164 189/99/164 188/102/164
f 191/108/165 187/98/165 186/104/165
f 195/109/166 190/106/166 189/99/166
f 68/66/168 64/53/168 62/56/168
f 6/1/1 3/2/1 31/2/1
f 16/5/2 13/5/2 14/9/2
f 14/9/2 17/4/2 16/5/2
f 17/4/2 18/3/2 16/5/2
f 18/3/2 19/3/2 20/4/2
f 20/4/2 15/9/2 16/5/2
f 16/5/3 25/6/3 27/6/3
f 18/3/4 21/7/4 23/7/4
f 20/4/5 24/10/5 26/8/5
f 20/4/6 19/3/6 23/7/6
f 14/9/7 13/5/7 27/6/7
f 22/10/8 21/7/8 18/3/8
f 26/8/9 25/6/9 16/5/9
f 7/11/10 30/16/10 4/12/10
f 12/14/11 9/15/11 29/15/11
f 1/13/12 32/12/12 10/16/12
f 10/16/13 9/15/13 12/14/13
f 4/12/14 3/2/14 6/1/14
f 7/11/15 8/14/15 29/15/15
f 1/13/16 2/1/16 31/2/16
f 11/11/2 12/14/2 8/14/2
f 8/14/2 7/11/2 5/13/2
f 5/13/2 6/1/2 2/1/2
f 2/1/2 1/13/2 11/11/2
f 11/11/2 8/14/2 5/13/2
f 30/16/169 29/15/169 9/15/169
f 9/15/17 10/16/17 32/12/17
f 32/12/170 31/2/170 3/2/170
f 3/2/17 4/12/17 30/16/17
f 30/16/17 9/15/17 32/12/17
f 14/9/18 28/8/18 22/10/18
f 47/17/171 45/21/171 53/18/171
f 38/20/172 46/34/172 45/21/172
f 39/23/173 47/17/173 48/24/173
f 36/26/174 35/32/174 43/27/174
f 34/29/175 33/33/175 41/30/175
f 37/22/176 45/21/176 47/17/176
f 40/25/25 48/24/25 43/27/25
f 33/33/177 36/26/177 44/28/177
f 34/29/27 42/31/27 46/34/27
f 128/35/28 132/69/28 135/36/28
f 48/24/29 56/41/29 51/38/29
f 44/28/178 52/42/178 49/39/178
f 42/31/31 50/43/31 54/40/31
f 45/21/179 46/34/179 54/40/179
f 48/24/180 47/17/180 55/19/180
f 43/27/181 51/38/181 52/42/181
f 41/30/182 49/39/182 50/43/182
f 63/44/183 74/54/183 78/45/183
f 58/47/37 80/55/37 70/48/37
f 72/50/184 66/68/184 61/51/184
f 64/53/185 77/67/185 74/54/185
f 57/46/186 78/45/186 80/55/186
f 70/48/187 72/50/187 60/52/187
f 54/40/188 64/53/188 63/44/188
f 50/43/43 62/56/43 64/53/43
f 49/39/189 52/42/189 60/52/189
f 56/41/45 58/47/45 59/49/45
f 53/18/190 63/44/190 57/46/190
f 50/43/191 49/39/191 61/51/191
f 52/42/192 51/38/192 59/49/192
f 55/19/193 57/46/193 58/47/193
f 68/66/194 69/61/194 76/58/194
f 66/68/195 67/65/195 69/61/195
f 72/50/196 73/62/196 67/65/196
f 72/50/197 70/48/197 71/63/197
f 70/48/61 80/55/61 81/64/61
f 80/55/198 78/45/198 79/60/198
f 78/45/199 74/54/199 75/57/199
f 77/67/200 76/58/200 75/57/200
f 66/68/201 68/66/201 62/56/201
f 88/17/202 96/19/202 94/18/202
f 86/21/203 87/34/203 38/20/203
f 89/24/204 88/17/204 39/23/204
f 36/26/205 85/28/205 84/27/205
f 34/29/206 83/31/206 82/30/206
f 88/17/207 86/21/207 37/22/207
f 84/27/73 89/24/73 40/25/73
f 33/33/208 82/30/208 85/28/208
f 87/34/75 83/31/75 34/29/75
f 92/38/76 97/41/76 89/24/76
f 90/39/209 93/42/209 85/28/209
f 95/40/78 91/43/78 83/31/78
f 86/21/210 94/18/210 95/40/210
f 89/24/211 97/41/211 96/19/211
f 93/42/212 92/38/212 84/27/212
f 91/43/213 90/39/213 82/30/213
f 104/44/214 98/46/214 119/45/214
f 99/47/84 100/49/84 111/48/84
f 102/51/215 107/68/215 113/50/215
f 105/53/216 104/44/216 115/54/216
f 98/46/217 99/47/217 121/55/217
f 101/52/218 113/50/218 111/48/218
f 104/44/219 105/53/219 95/40/219
f 105/53/90 103/56/90 91/43/90
f 90/39/220 102/51/220 101/52/220
f 100/49/92 99/47/92 97/41/92
f 98/46/221 104/44/221 94/18/221
f 91/43/222 103/56/222 102/51/222
f 93/42/223 101/52/223 100/49/223
f 99/47/224 98/46/224 96/19/224
f 117/58/225 110/61/225 109/66/225
f 110/61/226 108/65/226 107/68/226
f 108/65/227 114/62/227 113/50/227
f 113/50/228 114/62/228 112/63/228
f 111/48/108 112/63/108 122/64/108
f 121/55/229 122/64/229 120/60/229
f 119/45/230 120/60/230 116/57/230
f 116/57/231 117/58/231 118/67/231
f 103/56/232 109/66/232 107/68/232
f 153/35/114 149/37/114 160/36/114
f 141/70/115 143/74/115 130/35/115
f 137/71/233 139/75/233 126/72/233
f 127/73/234 147/86/234 132/69/234
f 143/74/235 145/85/235 129/73/235
f 139/75/236 141/70/236 125/37/236
f 124/37/237 135/36/237 137/71/237
f 133/82/128 134/84/128 135/36/128
f 134/84/238 136/77/238 137/71/238
f 136/77/239 138/76/239 139/75/239
f 140/81/240 141/70/240 139/75/240
f 142/80/241 143/74/241 141/70/241
f 144/79/242 145/85/242 143/74/242
f 146/83/243 147/86/243 145/85/243
f 146/83/244 133/82/244 132/69/244
f 129/73/245 145/85/245 147/86/245
f 105/53/246 118/67/246 109/66/246
f 155/35/139 168/74/139 166/70/139
f 151/72/247 164/75/247 162/71/247
f 152/73/248 153/35/248 157/69/248
f 154/73/249 170/85/249 168/74/249
f 150/37/250 166/70/250 164/75/250
f 149/37/251 148/72/251 162/71/251
f 158/82/151 157/69/151 160/36/151
f 159/84/252 160/36/252 162/71/252
f 161/77/253 162/71/253 164/75/253
f 164/75/254 166/70/254 165/81/254
f 166/70/255 168/74/255 167/80/255
f 168/74/256 170/85/256 169/79/256
f 170/85/257 172/86/257 171/83/257
f 171/83/258 172/86/258 157/69/258
f 154/73/137 152/73/137 172/86/137
f 173/89/3 174/94/3 177/87/3
f 174/94/3 175/92/3 177/87/3
f 175/92/3 176/91/3 177/87/3
f 181/90/161 182/110/161 176/91/161
f 180/93/259 179/97/259 174/94/259
f 184/95/163 180/93/163 173/89/163
f 176/91/164 182/110/164 183/96/164
f 179/97/165 181/90/165 175/92/165
f 177/87/166 183/96/166 184/95/166
f 185/100/3 186/104/3 187/98/3
f 187/98/3 188/102/3 189/99/3
f 189/99/3 190/106/3 185/100/3
f 193/101/161 194/107/161 188/102/161
f 192/103/167 191/108/167 186/104/167
f 196/105/163 192/103/163 185/100/163
f 194/107/164 195/109/164 189/99/164
f 191/108/165 193/101/165 187/98/165
f 195/109/166 196/105/166 190/106/166
f 68/66/260 77/67/260 64/53/260
