# Blender 4.4.0
# www.blender.org
mtllib Tool_Hammer_02.mtl
o Tool_Hammer_02
v 0.004639 0.272123 0.011023
v 0.011023 0.272123 0.004639
v -0.004639 0.272123 -0.011023
v -0.011023 0.272123 -0.004639
v -0.004639 0.272123 0.011023
v -0.011023 0.272123 0.004639
v 0.004639 0.272123 -0.011023
v 0.011023 0.272123 -0.004639
v -0.015333 0.000000 -0.006456
v -0.006456 0.000000 -0.015333
v -0.006456 0.000000 0.015333
v -0.015333 0.000000 0.006456
v 0.015333 0.000000 0.006456
v 0.006456 0.000000 0.015333
v 0.006456 0.000000 -0.015333
v 0.015333 0.000000 -0.006456
v -0.010982 0.136923 -0.004623
v -0.004623 0.136923 -0.010982
v 0.004623 0.136923 -0.010982
v 0.010982 0.136923 -0.004623
v 0.010982 0.136923 0.004623
v 0.004623 0.136923 0.010982
v -0.004623 0.136923 0.010982
v -0.010982 0.136923 0.004623
v 0.013859 0.260378 -0.005833
v 0.005833 0.260378 -0.013859
v -0.013859 0.260378 0.005833
v -0.005833 0.260378 0.013859
v -0.013859 0.260378 -0.005833
v -0.005833 0.260378 -0.013859
v 0.013859 0.260378 0.005833
v 0.005833 0.260378 0.013859
v -0.000252 0.310241 0.016652
v -0.018931 0.299456 0.016652
v -0.021821 0.288671 0.016652
v -0.018931 0.277887 0.016652
v -0.000252 0.267102 0.016652
v 0.010533 0.269992 0.016652
v 0.018428 0.277887 0.016652
v 0.021317 0.288671 0.016652
v 0.018428 0.299456 0.016652
v 0.010533 0.307351 0.016652
v -0.011037 0.307351 -0.018979
v -0.000252 0.310241 -0.018979
v -0.018931 0.299456 -0.018979
v -0.021821 0.288671 -0.018979
v -0.018931 0.277887 -0.018979
v -0.011037 0.269992 -0.018979
v -0.000252 0.267102 -0.018979
v 0.010533 0.269992 -0.018979
v 0.018428 0.277887 -0.018979
v 0.021317 0.288671 -0.018979
v 0.018428 0.299456 -0.018979
v 0.010533 0.307351 -0.018979
v -0.024612 0.296800 0.012264
v -0.024612 0.288671 0.012264
v -0.024612 0.280543 0.012264
v -0.024612 0.296800 -0.014591
v -0.024612 0.288671 -0.014591
v -0.024612 0.280543 -0.014591
v -0.011037 0.269992 0.007744
v -0.011037 0.269992 -0.001163
v -0.011037 0.269992 -0.010071
v -0.000252 0.310241 0.007744
v -0.000252 0.310241 -0.001163
v -0.000252 0.310241 -0.010071
v 0.010533 0.307351 -0.010071
v 0.010533 0.307351 -0.001163
v 0.010533 0.307351 0.007744
v -0.011037 0.307351 -0.010071
v -0.011037 0.307351 -0.001163
v -0.011037 0.307351 0.007744
v -0.000252 0.267102 0.007744
v -0.000252 0.267102 -0.001163
v -0.000252 0.267102 -0.010071
v 0.010533 0.269992 0.007744
v 0.010533 0.269992 -0.001163
v 0.010533 0.269992 -0.010071
v -0.024612 0.274593 0.005550
v -0.024612 0.274593 -0.001163
v -0.024612 0.274593 -0.007877
v -0.024612 0.302750 -0.007877
v -0.024612 0.302750 -0.001163
v -0.024612 0.302750 0.005550
v -0.037058 0.296800 0.012264
v -0.037058 0.288671 0.012264
v -0.037058 0.280543 0.012264
v -0.037058 0.288671 -0.014591
v -0.037058 0.280543 -0.014591
v -0.037058 0.274593 -0.007877
v -0.037058 0.274593 -0.001163
v -0.037058 0.302750 -0.001163
v -0.011037 0.307351 0.016652
v -0.011037 0.269992 0.016652
v -0.037058 0.302750 0.005550
v -0.037058 0.274593 0.005550
v -0.037058 0.302750 -0.007877
v -0.037058 0.296800 -0.014591
v -0.041840 0.299419 0.017452
v -0.041840 0.288671 0.020332
v -0.041840 0.277924 0.017452
v -0.041840 0.288671 -0.022659
v -0.041840 0.277924 -0.019779
v -0.041840 0.270056 -0.011911
v -0.056334 0.299419 -0.019779
v -0.056334 0.270056 0.009584
v -0.056334 0.288671 -0.022659
v -0.041840 0.267176 -0.001163
v -0.056334 0.310167 -0.001163
v -0.056334 0.307287 0.009584
v -0.056334 0.299419 0.017452
v -0.056334 0.288671 0.020332
v -0.041840 0.310167 -0.001163
v -0.056334 0.267176 -0.001163
v -0.056334 0.307287 -0.011911
v -0.041840 0.307287 0.009584
v -0.041840 0.270056 0.009584
v -0.041840 0.307287 -0.011911
v -0.041840 0.299419 -0.019779
v -0.056334 0.277924 0.017452
v -0.056334 0.277924 -0.019779
v -0.056334 0.270056 -0.011911
v 0.021458 0.282755 0.008863
v 0.021458 0.288671 0.008863
v 0.021458 0.294588 0.008863
v 0.021458 0.282755 -0.011190
v 0.021458 0.288671 -0.011190
v 0.021458 0.294588 -0.011190
v 0.021458 0.298919 0.003850
v 0.021458 0.278424 -0.006177
v 0.021458 0.298919 -0.006177
v 0.021458 0.298919 -0.001163
v 0.021458 0.278424 0.003850
v 0.021458 0.278424 -0.001163
v 0.030810 0.284156 0.006488
v 0.030810 0.288671 0.006488
v 0.030810 0.293187 0.006488
v 0.030810 0.284156 -0.008815
v 0.030810 0.288671 -0.008815
v 0.030810 0.293187 -0.008815
v 0.030810 0.296492 0.002662
v 0.030810 0.280851 -0.004989
v 0.030810 0.296492 -0.004989
v 0.030810 0.296492 -0.001163
v 0.030810 0.280851 0.002662
v 0.030810 0.280851 -0.001163
v 0.035208 0.283179 0.011025
v 0.035208 0.278695 0.008757
v 0.035208 0.288671 0.011821
v 0.035208 0.294164 0.011025
v 0.035208 0.298648 0.008757
v 0.035208 0.283179 -0.013352
v 0.035208 0.278695 -0.011084
v 0.035208 0.288671 -0.014148
v 0.035208 0.294164 -0.013352
v 0.035208 0.298648 -0.011084
v 0.035208 0.300916 0.004102
v 0.035208 0.276427 -0.006429
v 0.035208 0.300916 -0.006429
v 0.035208 0.301712 -0.001163
v 0.035208 0.276427 0.004102
v 0.035208 0.275631 -0.001163
v 0.045497 0.286487 0.004110
v 0.045497 0.284636 0.002872
v 0.045497 0.288672 0.004544
v 0.045497 0.290856 0.004110
v 0.045497 0.292707 0.002872
v 0.045497 0.286487 -0.006437
v 0.045497 0.284636 -0.005199
v 0.045497 0.288672 -0.006871
v 0.045497 0.290856 -0.006437
v 0.045497 0.292707 -0.005199
v 0.045497 0.293945 0.001021
v 0.045497 0.283399 -0.003348
v 0.045497 0.293945 -0.003348
v 0.045497 0.294379 -0.001163
v 0.045497 0.283399 0.001021
v 0.045497 0.282964 -0.001163
v 0.041080 0.297053 -0.009545
v 0.041080 0.293207 -0.012114
v 0.041080 0.280290 0.007218
v 0.041080 0.284136 0.009787
v 0.041080 0.277721 -0.005699
v 0.041080 0.276819 -0.001163
v 0.041080 0.297053 0.007218
v 0.041080 0.299622 0.003372
v 0.041080 0.288672 0.010689
v 0.041080 0.280290 -0.009545
v 0.041080 0.293207 0.009787
v 0.041080 0.299622 -0.005699
v 0.041080 0.300524 -0.001163
v 0.041080 0.284136 -0.012114
v 0.041080 0.288672 -0.013016
v 0.041080 0.277721 0.003372
v 0.021458 0.278424 0.005752
v 0.021458 0.281536 0.008863
v 0.019369 0.276886 0.010279
v 0.021458 0.295807 0.008863
v 0.021458 0.298919 0.005752
v 0.019369 0.300457 0.010279
v 0.021458 0.281536 -0.011190
v 0.021458 0.278424 -0.008079
v 0.019369 0.276886 -0.012606
v 0.021458 0.298919 -0.008079
v 0.021458 0.295807 -0.011190
v 0.019369 0.300457 -0.012606
v 0.030810 0.283748 0.006488
v 0.030810 0.280851 0.003593
v 0.033480 0.279343 0.008060
v 0.030810 0.296492 0.003593
v 0.030810 0.293595 0.006488
v 0.033480 0.298000 0.008060
v 0.030810 0.280851 -0.005920
v 0.030810 0.283748 -0.008815
v 0.033480 0.279343 -0.010387
v 0.030810 0.293595 -0.008815
v 0.030810 0.296492 -0.005920
v 0.033480 0.298000 -0.010387
vn -0.9721 0.2348 -0.0000
vn -0.0000 0.0318 -0.9995
vn -0.0000 0.0318 0.9995
vn 0.9995 0.0318 -0.0000
vn -0.0000 -0.0233 -0.9997
vn -0.0000 -1.0000 -0.0000
vn 0.9997 -0.0233 -0.0000
vn -0.0000 -0.0233 0.9997
vn -0.9997 -0.0233 -0.0000
vn -0.9995 0.0318 -0.0000
vn -0.6872 0.2358 0.6872
vn -0.0000 0.2348 -0.9721
vn -0.7067 0.0319 -0.7067
vn -0.6872 0.2358 -0.6872
vn 0.7067 0.0319 0.7067
vn 0.9721 0.2348 -0.0000
vn -0.7069 -0.0234 -0.7069
vn 0.7067 0.0319 -0.7067
vn 0.7069 -0.0234 0.7069
vn -0.7067 0.0319 0.7067
vn 0.7069 -0.0234 -0.7069
vn -0.7069 -0.0234 0.7069
vn -0.0000 0.2348 0.9721
vn 0.6872 0.2358 0.6872
vn 0.6872 0.2358 -0.6872
vn -0.0000 -0.0000 1.0000
vn -0.0000 -0.0000 -1.0000
vn 0.2588 0.9659 -0.0000
vn 0.9445 -0.2531 -0.2092
vn -0.2588 -0.9659 -0.0000
vn -0.8438 -0.0000 0.5366
vn 0.6110 0.7916 -0.0000
vn 0.2588 -0.9659 -0.0000
vn 0.2512 0.9679 -0.0000
vn -0.2588 0.9659 -0.0000
vn -0.0000 1.0000 -0.0000
vn -0.6356 0.6356 -0.4381
vn -0.6518 -0.1746 0.7380
vn -0.6518 0.1746 -0.7380
vn -0.3210 -0.9471 -0.0000
vn -0.8438 -0.0000 -0.5366
vn -0.6356 -0.6356 0.4381
vn -0.3210 0.9471 -0.0000
vn -0.6356 -0.6356 -0.4381
vn 0.2461 -0.0000 -0.9692
vn 0.2512 -0.9679 -0.0000
vn -0.4678 -0.3989 0.7887
vn 0.2461 -0.0000 0.9692
vn 0.9445 0.2531 0.2092
vn 0.6110 -0.7916 -0.0000
vn -0.6356 0.6356 0.4381
vn 0.9998 -0.0000 0.0180
vn 0.9158 -0.3534 0.1907
vn 0.9998 -0.0000 -0.0180
vn 0.8405 0.5419 -0.0000
vn 0.7559 0.4629 0.4629
vn 0.8405 -0.5419 -0.0000
vn 0.7655 0.1665 -0.6215
vn 0.7655 -0.1665 0.6215
vn 0.7503 -0.6386 -0.1711
vn 0.8603 -0.0000 -0.5099
vn 0.7856 -0.4631 0.4104
vn 0.7503 0.6386 0.1711
vn 0.7856 0.4631 -0.4104
vn 0.8603 -0.0000 0.5099
vn 0.7559 -0.4629 -0.4629
vn -0.6228 0.5855 0.5189
vn -0.6228 -0.5855 0.5189
vn -0.6228 0.5855 -0.5189
vn -0.6228 -0.5855 -0.5189
vn -0.0000 0.7484 -0.6633
vn -0.0000 -0.7484 0.6633
vn -0.0000 0.7484 0.6633
vn -0.0000 -0.7484 -0.6633
vn -1.0000 -0.0000 -0.0000
vn -0.0000 0.7071 -0.7071
vn -0.0000 0.7071 0.7071
vn -0.0000 -0.7071 0.7071
vn -0.0000 -0.2588 0.9659
vn -0.0000 0.2588 0.9659
vn -0.0000 -0.9659 0.2588
vn -0.0000 -0.7071 -0.7071
vn -0.0000 -0.9659 -0.2588
vn -0.0000 0.9659 -0.2588
vn -0.0000 0.9659 0.2588
vn -0.0000 -0.2588 -0.9659
vn -0.0000 0.2588 -0.9659
vn 0.5928 -0.8054 -0.0000
vn 0.9158 0.3534 0.1907
vn 0.5928 0.8054 -0.0000
vn 0.9158 -0.3534 -0.1907
vn 0.9158 0.3534 -0.1907
vn -0.7648 0.6443 -0.0000
vn -0.7092 -0.7050 -0.0000
vn -0.7092 0.7050 -0.0000
vn -0.7220 0.6841 -0.1035
vn -0.7715 -0.0000 -0.6362
vn -0.7251 -0.0988 -0.6815
vn -0.7648 -0.6443 -0.0000
vn -0.4678 0.3989 -0.7887
vn -0.4571 -0.7996 -0.3895
vn -0.7220 -0.6841 0.1035
vn -0.4571 0.7996 0.3895
vn -0.7180 -0.0000 0.6960
vn -0.7251 0.0988 0.6815
vn -0.7715 -0.0000 0.6362
vn -0.7180 -0.0000 -0.6960
vn 0.8066 0.3284 -0.4915
vn 1.0000 -0.0000 -0.0000
vn 0.8066 -0.3284 0.4915
vn 0.8066 -0.5798 -0.1153
vn 0.8066 0.4915 0.3284
vn 0.8066 -0.1153 0.5798
vn 0.8066 -0.4915 -0.3284
vn 0.8066 0.1153 0.5798
vn 0.8066 0.4915 -0.3284
vn 0.8066 0.3284 0.4915
vn 0.8066 0.5798 -0.1153
vn 0.8066 -0.3284 -0.4915
vn 0.8066 0.5798 0.1153
vn 0.8066 -0.1153 -0.5798
vn 0.8066 -0.4915 0.3284
vn 0.8066 0.1153 -0.5798
vn 0.8066 -0.5798 0.1153
vn 0.2301 -0.9622 0.1455
vn 0.1858 0.1917 -0.9637
vn 0.3379 -0.8461 0.4122
vn 0.2260 -0.1398 -0.9640
vn 0.1946 0.9620 0.1914
vn 0.3358 -0.4251 -0.8405
vn 0.2301 0.9622 -0.1455
vn 0.3358 0.4251 0.8405
vn 0.3379 0.8461 -0.4122
vn 0.2260 0.1398 0.9640
vn 0.2445 -0.8062 -0.5387
vn 0.1858 -0.1917 0.9637
vn 0.2445 0.8062 0.5387
vn 0.1946 -0.9620 -0.1914
vn 0.2569 -0.5369 0.8036
vn 0.2569 0.5369 -0.8036
vn 0.8990 -0.3095 0.3097
vn 0.8990 0.3096 0.3097
vn 0.8990 -0.3095 -0.3097
vn 0.8990 0.3096 -0.3097
vn -0.8454 -0.3776 0.3778
vn -0.8454 0.3776 0.3778
vn -0.8454 -0.3776 -0.3778
vn -0.8454 0.3776 -0.3778
vn 0.3276 0.6679 -0.6683
vn 0.3276 -0.6679 -0.6683
vn 0.3276 0.6679 0.6683
vn 0.3276 -0.6679 0.6683
vn -0.6518 0.1746 0.7380
vn -0.6518 -0.1746 -0.7380
vn -0.7164 -0.1951 0.6699
vn 0.9445 -0.2531 0.2092
vn 0.9320 -0.0000 0.3625
vn 0.6912 -0.6912 0.2106
vn 0.9445 0.2531 -0.2092
vn 0.7503 0.6386 -0.1711
vn 0.7856 0.4631 0.4104
vn 0.7503 -0.6386 0.1711
vn 0.7655 -0.1665 -0.6215
vn 0.7559 -0.4629 0.4629
vn 0.7559 0.4629 -0.4629
vn 0.7655 0.1665 0.6215
vn 0.7856 -0.4631 -0.4104
vn 0.6133 -0.7898 -0.0104
vn 0.6152 -0.7884 -0.0000
vn 0.6912 0.6912 0.2106
vn 0.6152 0.7884 -0.0000
vn 0.6133 0.7898 -0.0104
vn 0.6912 -0.6912 -0.2106
vn 0.9320 -0.0000 -0.3625
vn 0.6912 0.6912 -0.2106
vn 0.6133 0.7898 0.0104
vn -0.7220 0.6841 0.1035
vn -0.4571 -0.7996 0.3895
vn -0.7069 -0.6805 0.1928
vn -0.4571 0.7996 -0.3895
vn -0.7069 0.6805 -0.1928
vn -0.7251 0.0988 -0.6815
vn -0.7220 -0.6841 -0.1035
vn -0.7164 0.1951 -0.6699
vn -0.7069 -0.6805 -0.1928
vn -0.7069 0.6805 0.1928
vn -0.4678 0.3989 0.7887
vn -0.7164 0.1951 0.6699
vn -0.7251 -0.0988 0.6815
vn -0.4678 -0.3989 -0.7887
vn -0.7164 -0.1951 -0.6699
vn 0.1946 -0.9620 0.1914
vn 0.2260 0.1398 -0.9640
vn 0.2445 -0.8062 0.5387
vn 0.1858 -0.1917 -0.9637
vn 0.2301 0.9622 0.1455
vn 0.2569 -0.5369 -0.8036
vn 0.1946 0.9620 -0.1914
vn 0.2569 0.5369 0.8036
vn 0.2445 0.8062 -0.5387
vn 0.1858 0.1917 0.9637
vn 0.3379 -0.8461 -0.4122
vn 0.2260 -0.1398 0.9640
vn 0.3379 0.8461 0.4122
vn 0.2301 -0.9622 -0.1455
vn 0.3358 -0.4251 0.8405
vn 0.3358 0.4251 -0.8405
vn 0.6133 -0.7898 0.0104
vt 0.570572 0.935433
vt 0.570463 0.939020
vt 0.570450 0.935433
vt 0.570351 0.855904
vt 0.570397 0.897725
vt 0.570671 0.855904
vt 0.570625 0.897725
vt 0.570578 0.855904
vt 0.570463 0.897725
vt 0.570559 0.897725
vt 0.570367 0.935433
vt 0.570444 0.855904
vt 0.570655 0.935433
vt 0.570559 0.939020
vt 0.570396 0.939020
vt 0.570626 0.939020
vt 0.575375 0.679009
vt 0.575375 0.693764
vt 0.575375 0.738026
vt 0.575410 0.738026
vt 0.575410 0.723272
vt 0.575410 0.679009
vt 0.575401 0.734073
vt 0.575401 0.738026
vt 0.575410 0.708518
vt 0.575402 0.700423
vt 0.575410 0.693764
vt 0.575410 0.682963
vt 0.575401 0.679009
vt 0.575401 0.682963
vt 0.575375 0.708518
vt 0.575379 0.719638
vt 0.575379 0.708518
vt 0.575392 0.734073
vt 0.575387 0.722538
vt 0.575392 0.722538
vt 0.575388 0.719217
vt 0.575388 0.719217
vt 0.575397 0.722538
vt 0.575399 0.727778
vt 0.575392 0.727778
vt 0.575405 0.708518
vt 0.575405 0.719638
vt 0.575392 0.689256
vt 0.575399 0.689256
vt 0.575410 0.734073
vt 0.575379 0.697398
vt 0.575383 0.682963
vt 0.575375 0.682963
vt 0.575386 0.689256
vt 0.575405 0.697398
vt 0.575392 0.682963
vt 0.575386 0.727778
vt 0.575400 0.701781
vt 0.575402 0.698756
vt 0.575397 0.694498
vt 0.575397 0.697819
vt 0.575396 0.697819
vt 0.575383 0.695756
vt 0.575382 0.694870
vt 0.575380 0.701004
vt 0.575383 0.738026
vt 0.575375 0.734073
vt 0.575392 0.738026
vt 0.575383 0.734073
vt 0.575382 0.716612
vt 0.575385 0.715254
vt 0.575382 0.718280
vt 0.575375 0.723272
vt 0.575392 0.694498
vt 0.575383 0.679009
vt 0.575392 0.679009
vt 0.575382 0.700423
vt 0.575382 0.708518
vt 0.575387 0.694498
vt 0.575397 0.719217
vt 0.575399 0.722538
vt 0.575388 0.697819
vt 0.575385 0.694498
vt 0.575382 0.698756
vt 0.575381 0.692394
vt 0.575402 0.716612
vt 0.575402 0.708518
vt 0.575392 0.737926
vt 0.575382 0.733985
vt 0.575374 0.723221
vt 0.575392 0.679111
vt 0.575413 0.708518
vt 0.575411 0.723221
vt 0.575371 0.708518
vt 0.575374 0.693814
vt 0.575403 0.683050
vt 0.575382 0.683050
vt 0.575403 0.733985
vt 0.575411 0.693814
vt 0.575404 0.692394
vt 0.575399 0.694498
vt 0.575392 0.719217
vt 0.575381 0.724641
vt 0.575404 0.724641
vt 0.575396 0.719217
vt 0.575400 0.714696
vt 0.575400 0.708518
vt 0.575400 0.715254
vt 0.575400 0.702341
vt 0.575392 0.697819
vt 0.575402 0.718280
vt 0.575388 0.697819
vt 0.575385 0.722538
vt 0.575385 0.701781
vt 0.575385 0.702341
vt 0.575385 0.714696
vt 0.575385 0.708518
vt 0.575392 0.726358
vt 0.575387 0.691766
vt 0.575397 0.725268
vt 0.575405 0.708518
vt 0.575404 0.701004
vt 0.575392 0.690678
vt 0.575401 0.721280
vt 0.575402 0.722165
vt 0.575404 0.716032
vt 0.575401 0.695756
vt 0.575402 0.694870
vt 0.575397 0.691766
vt 0.575383 0.721280
vt 0.575382 0.722165
vt 0.575387 0.725268
vt 0.575380 0.716032
vt 0.575379 0.708518
vt 0.575400 0.719984
vt 0.575397 0.711506
vt 0.575403 0.714723
vt 0.575388 0.714039
vt 0.575388 0.702996
vt 0.575396 0.702996
vt 0.575384 0.697051
vt 0.575387 0.705530
vt 0.575381 0.702313
vt 0.575397 0.693536
vt 0.575392 0.700709
vt 0.575392 0.692303
vt 0.575384 0.719984
vt 0.575390 0.715732
vt 0.575388 0.723499
vt 0.575387 0.708518
vt 0.575381 0.708518
vt 0.575400 0.697051
vt 0.575394 0.701304
vt 0.575381 0.714723
vt 0.575387 0.711506
vt 0.575394 0.715732
vt 0.575396 0.714039
vt 0.575397 0.723499
vt 0.575392 0.716327
vt 0.575397 0.705530
vt 0.575392 0.724733
vt 0.575403 0.702313
vt 0.575398 0.708518
vt 0.575390 0.701304
vt 0.575404 0.708518
vt 0.575388 0.693536
s 0
usemtl Texture_Map
f 27/1/1 4/2/1 29/3/1
f 15/4/2 18/5/2 19/5/2
f 11/6/3 22/7/3 23/7/3
f 13/8/4 20/9/4 21/10/4
f 19/5/5 30/11/5 26/11/5
f 10/4/6 16/12/6 14/6/6
f 21/10/7 25/3/7 31/1/7
f 23/7/8 32/13/8 28/13/8
f 17/9/9 27/1/9 29/3/9
f 9/12/10 24/10/10 17/9/10
f 28/13/11 6/14/11 27/1/11
f 30/11/12 7/15/12 26/11/12
f 10/4/13 17/9/13 18/5/13
f 29/3/14 3/15/14 30/11/14
f 14/6/15 21/10/15 22/7/15
f 25/3/16 2/14/16 31/1/16
f 18/5/17 29/3/17 30/11/17
f 19/5/18 16/12/18 15/4/18
f 22/7/19 31/1/19 32/13/19
f 23/7/20 12/8/20 11/6/20
f 26/11/21 20/9/21 19/5/21
f 28/13/22 24/10/22 23/7/22
f 32/13/23 5/16/23 28/13/23
f 31/1/24 1/16/24 32/13/24
f 26/11/25 8/2/25 25/3/25
f 37/17/26 39/18/26 33/19/26
f 44/20/27 53/21/27 49/22/27
f 67/23/28 44/20/28 66/24/28
f 52/25/29 126/26/29 51/27/29
f 48/28/30 75/29/30 63/30/30
f 35/31/31 55/32/31 56/33/31
f 68/34/32 129/35/32 132/36/32
f 75/29/33 50/28/33 78/30/33
f 129/35/34 210/37/34 141/38/34
f 44/20/35 70/23/35 66/24/35
f 68/34/32 131/39/32 67/23/32
f 82/40/36 92/41/36 83/41/36
f 59/42/27 98/43/27 58/43/27
f 80/44/6 90/45/6 81/45/6
f 43/46/37 45/21/37 58/43/37
f 35/31/38 57/47/38 36/18/38
f 46/25/39 58/43/39 45/21/39
f 61/48/40 94/49/40 79/50/40
f 46/25/41 60/51/41 59/42/41
f 62/52/40 81/45/40 63/30/40
f 62/52/40 79/50/40 80/44/40
f 79/50/6 91/44/6 80/44/6
f 94/49/42 36/18/42 57/47/42
f 70/23/43 43/46/43 82/40/43
f 56/33/26 87/47/26 57/47/26
f 55/32/26 86/33/26 56/33/26
f 48/28/40 63/30/40 81/45/40
f 47/27/44 48/28/44 60/51/44
f 83/41/36 95/53/36 84/53/36
f 60/51/27 88/42/27 59/42/27
f 126/26/45 214/54/45 201/55/45
f 130/56/46 213/57/46 142/58/46
f 209/59/47 148/60/47 147/61/47
f 64/62/35 93/63/35 33/19/35
f 65/64/35 72/65/35 64/62/35
f 66/24/35 71/34/35 65/64/35
f 125/66/48 211/67/48 198/68/48
f 40/31/49 125/66/49 41/69/49
f 77/52/50 130/56/50 134/70/50
f 34/69/51 93/63/51 55/32/51
f 71/34/43 84/53/43 72/65/43
f 71/34/43 82/40/43 83/41/43
f 73/71/33 38/49/33 37/17/33
f 73/71/33 77/52/33 76/48/33
f 74/72/33 78/30/33 77/52/33
f 40/31/52 123/73/52 124/74/52
f 77/52/50 133/75/50 76/48/50
f 131/39/34 217/76/34 204/77/34
f 61/48/30 37/17/30 94/49/30
f 62/52/30 73/71/30 61/48/30
f 63/30/30 74/72/30 62/52/30
f 133/75/46 208/78/46 195/79/46
f 196/80/53 39/18/53 197/81/53
f 52/25/54 128/82/54 127/83/54
f 69/65/28 33/19/28 42/63/28
f 69/65/28 65/64/28 64/62/28
f 68/34/28 66/24/28 65/64/28
f 97/40/55 113/84/55 92/41/55
f 85/32/56 116/85/56 99/86/56
f 96/50/57 108/87/57 91/44/57
f 98/43/58 102/88/58 119/89/58
f 87/47/59 100/90/59 101/91/59
f 90/45/60 108/87/60 104/92/60
f 89/51/61 102/88/61 88/42/61
f 87/47/62 117/93/62 96/50/62
f 95/53/63 113/84/63 116/85/63
f 98/43/64 118/94/64 97/40/64
f 85/32/65 100/90/65 86/33/65
f 89/51/66 104/92/66 103/95/66
f 84/53/67 55/32/67 93/63/67
f 57/47/68 79/50/68 94/49/68
f 58/43/69 82/40/69 43/46/69
f 81/45/70 60/51/70 48/28/70
f 82/40/71 98/43/71 97/40/71
f 87/47/72 79/50/72 57/47/72
f 95/53/73 55/32/73 84/53/73
f 90/45/74 60/51/74 81/45/74
f 93/63/43 72/65/43 84/53/43
f 107/88/75 122/92/75 112/90/75
f 119/89/76 115/94/76 118/94/76
f 116/85/77 111/86/77 99/86/77
f 101/91/78 106/93/78 117/93/78
f 100/90/79 120/91/79 101/91/79
f 99/86/80 112/90/80 100/90/80
f 117/93/81 114/87/81 108/87/81
f 104/92/82 121/95/82 103/95/82
f 108/87/83 122/92/83 104/92/83
f 118/94/84 109/84/84 113/84/84
f 113/84/85 110/85/85 116/85/85
f 103/95/86 107/88/86 102/88/86
f 102/88/87 105/89/87 119/89/87
f 130/56/88 203/96/88 202/97/88
f 132/36/34 141/38/34 144/98/34
f 41/69/89 198/68/89 200/99/89
f 131/39/90 204/77/90 206/100/90
f 132/36/34 143/101/34 131/39/34
f 127/83/45 140/102/45 139/103/45
f 128/82/45 216/104/45 140/102/45
f 127/83/45 138/105/45 126/26/45
f 134/70/46 142/58/46 146/106/46
f 51/27/91 201/55/91 203/96/91
f 205/107/92 53/21/92 206/100/92
f 134/70/46 145/108/46 133/75/46
f 129/35/90 200/99/90 199/109/90
f 123/73/48 207/110/48 135/111/48
f 124/74/48 137/112/48 125/66/48
f 124/74/48 135/111/48 136/113/48
f 141/38/93 160/114/93 144/98/93
f 208/78/94 145/108/94 161/115/94
f 217/76/95 143/101/95 159/116/95
f 143/101/96 160/114/96 159/116/96
f 140/102/97 154/117/97 139/103/97
f 138/105/98 154/117/98 152/118/98
f 142/58/99 162/119/99 146/106/99
f 218/120/100 156/121/100 155/122/100
f 215/123/101 153/124/101 158/125/101
f 145/108/102 162/119/102 161/115/102
f 212/126/103 151/127/103 157/128/103
f 211/67/104 137/112/104 150/129/104
f 137/112/105 149/130/105 150/129/105
f 135/111/106 149/130/106 136/113/106
f 214/54/107 138/105/107 152/118/107
f 179/131/108 171/132/108 180/133/108
f 167/134/109 164/135/109 169/136/109
f 181/137/110 163/138/110 182/139/110
f 183/140/111 178/141/111 184/142/111
f 185/143/112 173/144/112 186/145/112
f 182/139/113 165/146/113 187/147/113
f 188/148/114 174/149/114 183/140/114
f 189/150/115 165/146/115 166/151/115
f 179/131/116 175/152/116 172/153/116
f 185/143/117 166/151/117 167/134/117
f 190/154/118 176/155/118 175/152/118
f 188/148/119 168/156/119 169/136/119
f 186/145/120 176/155/120 191/157/120
f 192/158/121 170/159/121 168/156/121
f 181/137/122 177/160/122 164/135/122
f 180/133/123 170/159/123 193/161/123
f 194/162/124 178/141/124 177/160/124
f 162/119/125 194/162/125 161/115/125
f 154/117/126 180/133/126 193/161/126
f 161/115/127 181/137/127 148/60/127
f 154/117/128 192/158/128 152/118/128
f 160/114/129 186/145/129 191/157/129
f 152/118/130 188/148/130 153/124/130
f 160/114/131 190/154/131 159/116/131
f 150/129/132 185/143/132 151/127/132
f 159/116/133 179/131/133 156/121/133
f 149/130/134 189/150/134 150/129/134
f 158/125/135 188/148/135 183/140/135
f 149/130/136 182/139/136 187/147/136
f 157/128/137 185/143/137 186/145/137
f 162/119/138 183/140/138 184/142/138
f 147/61/139 181/137/139 182/139/139
f 155/122/140 179/131/140 180/133/140
f 195/79/141 196/80/141 197/81/141
f 198/68/142 199/109/142 200/99/142
f 201/55/143 202/97/143 203/96/143
f 204/77/144 205/107/144 206/100/144
f 207/110/145 208/78/145 209/59/145
f 210/37/146 211/67/146 212/126/146
f 213/57/147 214/54/147 215/123/147
f 216/104/148 217/76/148 218/120/148
f 205/107/149 217/76/149 216/104/149
f 213/57/150 201/55/150 214/54/150
f 210/37/151 198/68/151 211/67/151
f 196/80/152 208/78/152 207/110/152
f 133/75/88 195/79/88 197/81/88
f 27/1/1 6/14/1 4/2/1
f 15/4/2 10/4/2 18/5/2
f 11/6/3 14/6/3 22/7/3
f 13/8/4 16/12/4 20/9/4
f 19/5/5 18/5/5 30/11/5
f 14/6/6 11/6/6 12/8/6
f 12/8/6 9/12/6 10/4/6
f 10/4/6 15/4/6 16/12/6
f 16/12/6 13/8/6 14/6/6
f 14/6/6 12/8/6 10/4/6
f 21/10/7 20/9/7 25/3/7
f 23/7/8 22/7/8 32/13/8
f 17/9/9 24/10/9 27/1/9
f 9/12/10 12/8/10 24/10/10
f 28/13/11 5/16/11 6/14/11
f 30/11/12 3/15/12 7/15/12
f 10/4/13 9/12/13 17/9/13
f 29/3/14 4/2/14 3/15/14
f 14/6/15 13/8/15 21/10/15
f 25/3/16 8/2/16 2/14/16
f 18/5/17 17/9/17 29/3/17
f 19/5/18 20/9/18 16/12/18
f 22/7/19 21/10/19 31/1/19
f 23/7/20 24/10/20 12/8/20
f 26/11/21 25/3/21 20/9/21
f 28/13/22 27/1/22 24/10/22
f 32/13/23 1/16/23 5/16/23
f 31/1/24 2/14/24 1/16/24
f 26/11/25 7/15/25 8/2/25
f 33/19/26 93/63/26 36/18/26
f 93/63/26 34/69/26 36/18/26
f 34/69/26 35/31/26 36/18/26
f 36/18/26 94/49/26 37/17/26
f 37/17/26 38/49/26 39/18/26
f 39/18/26 40/31/26 41/69/26
f 41/69/26 42/63/26 39/18/26
f 42/63/26 33/19/26 39/18/26
f 36/18/26 37/17/26 33/19/26
f 45/21/27 43/46/27 44/20/27
f 44/20/27 54/46/27 53/21/27
f 53/21/27 52/25/27 49/22/27
f 52/25/27 51/27/27 49/22/27
f 51/27/27 50/28/27 49/22/27
f 49/22/27 48/28/27 47/27/27
f 47/27/27 46/25/27 49/22/27
f 46/25/27 45/21/27 49/22/27
f 45/21/27 44/20/27 49/22/27
f 67/23/28 54/46/28 44/20/28
f 52/25/54 127/83/54 126/26/54
f 48/28/30 49/22/30 75/29/30
f 35/31/153 34/69/153 55/32/153
f 68/34/32 69/65/32 129/35/32
f 75/29/33 49/22/33 50/28/33
f 129/35/34 199/109/34 210/37/34
f 44/20/35 43/46/35 70/23/35
f 68/34/32 132/36/32 131/39/32
f 82/40/36 97/40/36 92/41/36
f 59/42/27 88/42/27 98/43/27
f 80/44/6 91/44/6 90/45/6
f 35/31/31 56/33/31 57/47/31
f 46/25/41 59/42/41 58/43/41
f 46/25/154 47/27/154 60/51/154
f 62/52/40 80/44/40 81/45/40
f 62/52/40 61/48/40 79/50/40
f 79/50/6 96/50/6 91/44/6
f 56/33/26 86/33/26 87/47/26
f 55/32/26 85/32/26 86/33/26
f 83/41/36 92/41/36 95/53/36
f 60/51/27 89/51/27 88/42/27
f 126/26/45 138/105/45 214/54/45
f 130/56/46 202/97/46 213/57/46
f 147/61/104 135/111/104 207/110/104
f 207/110/155 209/59/155 147/61/155
f 64/62/35 72/65/35 93/63/35
f 65/64/35 71/34/35 72/65/35
f 66/24/35 70/23/35 71/34/35
f 125/66/48 137/112/48 211/67/48
f 40/31/52 124/74/52 125/66/52
f 77/52/50 78/30/50 130/56/50
f 71/34/43 83/41/43 84/53/43
f 71/34/43 70/23/43 82/40/43
f 73/71/33 76/48/33 38/49/33
f 73/71/33 74/72/33 77/52/33
f 74/72/33 75/29/33 78/30/33
f 40/31/156 39/18/156 123/73/156
f 77/52/50 134/70/50 133/75/50
f 131/39/34 143/101/34 217/76/34
f 61/48/30 73/71/30 37/17/30
f 62/52/30 74/72/30 73/71/30
f 63/30/30 75/29/30 74/72/30
f 133/75/46 145/108/46 208/78/46
f 123/73/157 39/18/157 196/80/157
f 39/18/158 38/49/158 197/81/158
f 52/25/159 53/21/159 128/82/159
f 69/65/28 64/62/28 33/19/28
f 69/65/28 68/34/28 65/64/28
f 68/34/28 67/23/28 66/24/28
f 97/40/160 118/94/160 113/84/160
f 85/32/161 95/53/161 116/85/161
f 96/50/162 117/93/162 108/87/162
f 98/43/61 88/42/61 102/88/61
f 87/47/65 86/33/65 100/90/65
f 90/45/57 91/44/57 108/87/57
f 89/51/163 103/95/163 102/88/163
f 87/47/164 101/91/164 117/93/164
f 95/53/55 92/41/55 113/84/55
f 98/43/165 119/89/165 118/94/165
f 85/32/166 99/86/166 100/90/166
f 89/51/167 90/45/167 104/92/167
f 82/40/71 58/43/71 98/43/71
f 87/47/72 96/50/72 79/50/72
f 95/53/73 85/32/73 55/32/73
f 90/45/74 89/51/74 60/51/74
f 112/90/75 111/86/75 110/85/75
f 110/85/75 109/84/75 112/90/75
f 109/84/75 115/94/75 112/90/75
f 115/94/75 105/89/75 107/88/75
f 107/88/75 121/95/75 122/92/75
f 122/92/75 114/87/75 106/93/75
f 106/93/75 120/91/75 122/92/75
f 120/91/75 112/90/75 122/92/75
f 115/94/75 107/88/75 112/90/75
f 119/89/76 105/89/76 115/94/76
f 116/85/77 110/85/77 111/86/77
f 101/91/78 120/91/78 106/93/78
f 100/90/79 112/90/79 120/91/79
f 99/86/80 111/86/80 112/90/80
f 117/93/81 106/93/81 114/87/81
f 104/92/82 122/92/82 121/95/82
f 108/87/83 114/87/83 122/92/83
f 118/94/84 115/94/84 109/84/84
f 113/84/85 109/84/85 110/85/85
f 103/95/86 121/95/86 107/88/86
f 102/88/87 107/88/87 105/89/87
f 130/56/168 78/30/168 203/96/168
f 78/30/169 50/28/169 203/96/169
f 132/36/34 129/35/34 141/38/34
f 200/99/170 42/63/170 41/69/170
f 41/69/157 125/66/157 198/68/157
f 206/100/171 54/46/171 67/23/171
f 67/23/172 131/39/172 206/100/172
f 132/36/34 144/98/34 143/101/34
f 127/83/45 128/82/45 140/102/45
f 128/82/45 205/107/45 216/104/45
f 127/83/45 139/103/45 138/105/45
f 134/70/46 130/56/46 142/58/46
f 203/96/173 50/28/173 51/27/173
f 51/27/174 126/26/174 201/55/174
f 128/82/174 53/21/174 205/107/174
f 53/21/175 54/46/175 206/100/175
f 134/70/46 146/106/46 145/108/46
f 129/35/176 69/65/176 200/99/176
f 69/65/171 42/63/171 200/99/171
f 123/73/48 196/80/48 207/110/48
f 124/74/48 136/113/48 137/112/48
f 124/74/48 123/73/48 135/111/48
f 141/38/177 157/128/177 160/114/177
f 148/60/178 209/59/178 161/115/178
f 209/59/179 208/78/179 161/115/179
f 156/121/180 218/120/180 159/116/180
f 218/120/181 217/76/181 159/116/181
f 143/101/93 144/98/93 160/114/93
f 140/102/182 155/122/182 154/117/182
f 138/105/97 139/103/97 154/117/97
f 142/58/183 158/125/183 162/119/183
f 155/122/107 140/102/107 216/104/107
f 216/104/184 218/120/184 155/122/184
f 158/125/94 142/58/94 213/57/94
f 213/57/185 215/123/185 158/125/185
f 145/108/99 146/106/99 162/119/99
f 157/128/95 141/38/95 210/37/95
f 210/37/186 212/126/186 157/128/186
f 151/127/187 212/126/187 150/129/187
f 212/126/188 211/67/188 150/129/188
f 137/112/106 136/113/106 149/130/106
f 135/111/189 147/61/189 149/130/189
f 153/124/190 215/123/190 152/118/190
f 215/123/191 214/54/191 152/118/191
f 179/131/108 172/153/108 171/132/108
f 169/136/109 168/156/109 170/159/109
f 170/159/109 171/132/109 172/153/109
f 172/153/109 175/152/109 167/134/109
f 175/152/109 176/155/109 167/134/109
f 176/155/109 173/144/109 167/134/109
f 167/134/109 166/151/109 165/146/109
f 165/146/109 163/138/109 164/135/109
f 164/135/109 177/160/109 178/141/109
f 178/141/109 174/149/109 164/135/109
f 174/149/109 169/136/109 164/135/109
f 169/136/109 170/159/109 172/153/109
f 167/134/109 165/146/109 164/135/109
f 169/136/109 172/153/109 167/134/109
f 181/137/110 164/135/110 163/138/110
f 183/140/111 174/149/111 178/141/111
f 185/143/112 167/134/112 173/144/112
f 182/139/113 163/138/113 165/146/113
f 188/148/114 169/136/114 174/149/114
f 189/150/115 187/147/115 165/146/115
f 179/131/116 190/154/116 175/152/116
f 185/143/117 189/150/117 166/151/117
f 190/154/118 191/157/118 176/155/118
f 188/148/119 192/158/119 168/156/119
f 186/145/120 173/144/120 176/155/120
f 192/158/121 193/161/121 170/159/121
f 181/137/122 194/162/122 177/160/122
f 180/133/123 171/132/123 170/159/123
f 194/162/124 184/142/124 178/141/124
f 162/119/192 184/142/192 194/162/192
f 154/117/193 155/122/193 180/133/193
f 161/115/194 194/162/194 181/137/194
f 154/117/195 193/161/195 192/158/195
f 160/114/196 157/128/196 186/145/196
f 152/118/197 192/158/197 188/148/197
f 160/114/198 191/157/198 190/154/198
f 150/129/199 189/150/199 185/143/199
f 159/116/200 190/154/200 179/131/200
f 149/130/201 187/147/201 189/150/201
f 158/125/202 153/124/202 188/148/202
f 149/130/203 147/61/203 182/139/203
f 157/128/204 151/127/204 185/143/204
f 162/119/205 158/125/205 183/140/205
f 147/61/206 148/60/206 181/137/206
f 155/122/207 156/121/207 179/131/207
f 205/107/149 204/77/149 217/76/149
f 213/57/150 202/97/150 201/55/150
f 210/37/151 199/109/151 198/68/151
f 196/80/152 195/79/152 208/78/152
f 197/81/169 38/49/169 76/48/169
f 76/48/208 133/75/208 197/81/208
