# Blender 4.4.0
# www.blender.org
mtllib Tool_Hammer_03.mtl
o Tool_Hammer_03
v -0.009569 0.313222 0.004690
v -0.004690 0.313222 0.009569
v 0.004690 0.313222 0.009569
v 0.009569 0.313222 0.004690
v -0.004690 0.313222 -0.009569
v -0.009569 0.313222 -0.004690
v 0.009569 0.313222 -0.004690
v 0.004690 0.313222 -0.009569
v -0.016104 0.000000 -0.011734
v -0.011734 0.000000 -0.016104
v -0.011734 0.000000 0.016104
v -0.016104 0.000000 0.011734
v 0.016104 0.000000 0.011734
v 0.011734 0.000000 0.016104
v 0.011734 0.000000 -0.016104
v 0.016104 0.000000 -0.011734
v -0.010958 0.164924 -0.006588
v -0.006588 0.164924 -0.010958
v 0.010958 0.164924 -0.006588
v 0.006588 0.164924 -0.010958
v 0.010958 0.164924 0.006588
v 0.006588 0.164924 0.010958
v -0.010958 0.164924 0.006588
v -0.006588 0.164924 0.010958
v -0.019949 0.270457 0.019949
v -0.019949 0.310356 0.019949
v -0.019949 0.270457 -0.019949
v -0.019949 0.310356 -0.019949
v 0.019949 0.270457 0.019949
v 0.019949 0.310356 0.019949
v 0.019949 0.270457 -0.019949
v 0.019949 0.310356 -0.019949
v -0.030068 0.278457 -0.013991
v -0.030068 0.278457 0.013991
v -0.030068 0.302356 0.013991
v -0.030068 0.302356 -0.013991
v 0.030068 0.302356 -0.013991
v 0.030068 0.278457 -0.013991
v 0.030068 0.278457 0.013991
v 0.030068 0.302356 0.013991
v -0.019949 0.270457 -0.006650
v -0.019949 0.270457 0.006650
v -0.019949 0.310356 0.006650
v -0.019949 0.310356 -0.006650
v 0.019949 0.270457 0.006650
v 0.019949 0.270457 -0.006650
v 0.019949 0.310356 -0.006650
v 0.019949 0.310356 0.006650
v -0.030068 0.278457 -0.004664
v -0.030068 0.278457 0.004664
v -0.030068 0.302356 0.004664
v -0.030068 0.302356 -0.004664
v 0.030068 0.278457 0.004664
v 0.030068 0.278457 -0.004664
v 0.030068 0.302356 -0.004664
v 0.030068 0.302356 0.004664
v -0.019949 0.283757 0.019949
v -0.019949 0.297057 0.019949
v -0.019949 0.297057 -0.019949
v -0.019949 0.283757 -0.019949
v 0.019949 0.297057 -0.019949
v 0.019949 0.283757 -0.019949
v 0.019949 0.297057 0.019949
v 0.019949 0.283757 0.019949
v -0.030068 0.286424 0.013991
v -0.030068 0.294390 0.013991
v -0.030068 0.294390 -0.013991
v -0.030068 0.286424 -0.013991
v 0.030068 0.294390 -0.013991
v 0.030068 0.286424 -0.013991
v 0.030068 0.294390 0.013991
v 0.030068 0.286424 0.013991
v -0.038693 0.271394 0.003891
v -0.038693 0.275887 0.012876
v -0.038693 0.294297 0.019013
v -0.038693 0.303283 0.014520
v -0.038693 0.309420 -0.003891
v -0.038693 0.304927 -0.012876
v -0.038693 0.286516 -0.019013
v -0.038693 0.277531 -0.014520
v 0.038693 0.286516 -0.019013
v 0.038693 0.277531 -0.014520
v 0.038693 0.271996 -0.006137
v 0.038693 0.308818 0.006137
v 0.038693 0.303283 0.014520
v 0.038693 0.284270 0.018411
v 0.038693 0.275887 0.012876
v -0.038693 0.271996 -0.006137
v -0.038693 0.308818 0.006137
v 0.038693 0.271394 0.003891
v 0.038693 0.304927 -0.012876
v 0.038693 0.309420 -0.003891
v -0.052635 0.271394 0.003891
v -0.052635 0.275887 0.012876
v -0.052635 0.309420 -0.003891
v -0.052635 0.304927 -0.012876
v -0.038693 0.284270 0.018411
v -0.038693 0.296544 -0.018411
v 0.038693 0.296544 -0.018411
v 0.038693 0.294297 0.019013
v -0.052635 0.294297 0.019013
v -0.052635 0.303283 0.014520
v -0.052635 0.286516 -0.019013
v -0.052635 0.277531 -0.014520
v 0.052635 0.286516 -0.019013
v 0.052635 0.277531 -0.014520
v 0.052635 0.271996 -0.006137
v 0.052635 0.308818 0.006137
v 0.052635 0.303283 0.014520
v 0.052635 0.284270 0.018411
v 0.052635 0.275887 0.012876
v -0.052635 0.271996 -0.006137
v -0.052635 0.308818 0.006137
v 0.052635 0.271394 0.003891
v 0.052635 0.304927 -0.012876
v 0.052635 0.309420 -0.003891
v -0.052635 0.284270 0.018411
v -0.052635 0.296544 -0.018411
v 0.052635 0.296544 -0.018411
v 0.052635 0.294297 0.019013
vn -0.0000 0.0094 1.0000
vn -0.0000 0.0312 -0.9995
vn -0.0000 0.0312 0.9995
vn 0.9995 0.0312 -0.0000
vn -0.0000 -1.0000 -0.0000
vn -0.0000 1.0000 -0.0000
vn -0.0000 0.0094 -1.0000
vn 1.0000 0.0094 -0.0000
vn -0.9995 0.0312 -0.0000
vn -0.7064 0.0441 -0.7064
vn 0.7070 0.0157 -0.7070
vn 0.7064 0.0441 0.7064
vn -0.7070 0.0157 0.7070
vn -0.7070 0.0157 -0.7070
vn 0.7064 0.0441 -0.7064
vn 0.7070 0.0157 0.7070
vn -0.7064 0.0441 0.7064
vn -1.0000 0.0094 -0.0000
vn 0.6202 -0.7844 -0.0000
vn -0.0000 -0.0000 -1.0000
vn 0.5074 -0.0000 0.8617
vn -0.0000 -0.0000 1.0000
vn -0.0613 -0.0000 -0.9981
vn 0.1068 0.9943 -0.0000
vn -0.5074 -0.0000 -0.8617
vn -0.5075 -0.0000 0.8617
vn 0.6202 0.7844 -0.0000
vn 0.5075 -0.0000 -0.8617
vn -0.6202 0.7844 -0.0000
vn -0.6202 -0.7844 -0.0000
vn -0.5032 -0.0000 0.8642
vn 0.4585 -0.3974 -0.7949
vn 0.6041 -0.7955 -0.0477
vn -0.0613 -0.0000 0.9981
vn 0.5692 0.7354 -0.3677
vn 0.1068 -0.9943 -0.0000
vn -0.5032 -0.0000 -0.8642
vn -0.6336 0.7737 -0.0000
vn 0.4585 0.3974 0.7949
vn -0.4561 -0.0000 -0.8899
vn -0.2856 0.9583 -0.0000
vn 0.5692 -0.7354 0.3677
vn 0.5074 -0.0000 -0.8617
vn -0.5074 -0.0000 0.8617
vn -0.5075 -0.0000 -0.8617
vn 0.4659 0.0530 -0.8833
vn -0.4561 -0.0000 0.8899
vn -0.6336 -0.7737 -0.0000
vn 0.0563 0.5501 -0.8332
vn -0.0000 -0.9982 -0.0599
vn -0.0000 -0.4472 -0.8944
vn -0.0000 0.8944 -0.4472
vn -0.0000 0.9982 0.0599
vn -0.0000 -0.0599 0.9982
vn -0.0000 0.8345 0.5510
vn -0.0000 0.4472 0.8944
vn -0.0000 -0.8345 -0.5510
vn -0.0000 -0.8944 0.4472
vn -1.0000 -0.0000 -0.0000
vn 1.0000 -0.0000 -0.0000
vn -0.0000 0.5510 -0.8345
vn -0.0000 0.0599 -0.9982
vn -0.0000 -0.5510 0.8345
vn 0.0563 -0.5501 0.8332
vn 0.6041 0.7955 0.0477
vn -0.5839 -0.6775 -0.4473
vn 0.4659 -0.0530 0.8833
vn -0.2856 -0.9583 -0.0000
vn -0.5839 0.6775 0.4473
vn 0.5075 -0.0000 0.8617
vn -0.4585 -0.3974 -0.7949
vn 0.5839 0.6775 0.4473
vn -0.4659 -0.0530 0.8833
vn 0.0613 -0.0000 -0.9981
vn 0.6336 -0.7737 -0.0000
vn -0.4585 0.3974 0.7949
vn 0.2856 0.9583 -0.0000
vn 0.5839 -0.6775 -0.4473
vn -0.4659 0.0530 -0.8833
vn -0.6041 0.7955 0.0477
vn 0.0613 -0.0000 0.9981
vn -0.0563 0.5501 -0.8332
vn -0.5692 0.7354 -0.3677
vn 0.2856 -0.9583 -0.0000
vn 0.5032 -0.0000 -0.8642
vn -0.0563 -0.5501 0.8332
vn -0.6041 -0.7955 -0.0477
vn 0.4561 -0.0000 -0.8899
vn 0.4561 -0.0000 0.8899
vn 0.6336 0.7737 -0.0000
vn -0.1068 -0.9943 -0.0000
vn 0.5032 -0.0000 0.8642
vn -0.5692 -0.7354 0.3677
vn -0.1068 0.9943 -0.0000
vt 0.586167 0.824813
vt 0.586162 0.839549
vt 0.586066 0.808426
vt 0.586085 0.824813
vt 0.586186 0.808426
vt 0.586170 0.808426
vt 0.586102 0.824813
vt 0.586151 0.824813
vt 0.586082 0.808426
vt 0.586109 0.883657
vt 0.586162 0.883657
vt 0.586144 0.883657
vt 0.586091 0.839549
vt 0.586109 0.839549
vt 0.586144 0.839549
vt 0.575398 0.683600
vt 0.575405 0.694544
vt 0.575396 0.694544
vt 0.575411 0.738183
vt 0.575411 0.719988
vt 0.575371 0.701795
vt 0.575377 0.694544
vt 0.575377 0.705442
vt 0.575371 0.738183
vt 0.575371 0.719988
vt 0.575385 0.683600
vt 0.575371 0.683600
vt 0.575385 0.738183
vt 0.575405 0.705442
vt 0.575405 0.693277
vt 0.575386 0.727240
vt 0.575377 0.728506
vt 0.575377 0.727240
vt 0.575411 0.701795
vt 0.575377 0.716340
vt 0.575405 0.727240
vt 0.575405 0.716340
vt 0.575398 0.738183
vt 0.575396 0.727240
vt 0.575386 0.694544
vt 0.575411 0.683600
vt 0.575372 0.716214
vt 0.575410 0.705569
vt 0.575387 0.684881
vt 0.575397 0.685704
vt 0.575404 0.730757
vt 0.575395 0.736902
vt 0.575409 0.719287
vt 0.575378 0.691026
vt 0.575373 0.702496
vt 0.575385 0.736079
vt 0.586091 0.883657
s 0
usemtl Texture_Map
f 24/1/1 3/2/1 2/2/1
f 15/3/2 18/4/2 20/4/2
f 11/5/3 22/1/3 24/1/3
f 13/6/4 19/7/4 21/8/4
f 10/3/5 16/9/5 14/5/5
f 6/10/6 2/11/6 4/12/6
f 20/4/7 5/13/7 8/13/7
f 21/8/8 7/14/8 4/15/8
f 9/9/9 23/8/9 17/7/9
f 10/3/10 17/7/10 18/4/10
f 8/13/11 19/7/11 20/4/11
f 14/5/12 21/8/12 22/1/12
f 2/2/13 23/8/13 24/1/13
f 18/4/14 6/14/14 5/13/14
f 20/4/15 16/9/15 15/3/15
f 22/1/16 4/15/16 3/2/16
f 24/1/17 12/6/17 11/5/17
f 17/7/18 1/15/18 6/14/18
f 46/16/19 38/17/19 54/18/19
f 28/19/20 61/20/20 59/20/20
f 64/21/21 39/22/21 72/23/21
f 30/24/22 58/25/22 63/25/22
f 45/26/5 25/27/5 42/26/5
f 43/28/6 30/24/6 48/28/6
f 70/29/23 82/30/23 38/17/23
f 51/31/24 76/32/24 35/33/24
f 60/34/25 33/17/25 68/29/25
f 58/25/26 35/33/26 66/35/26
f 48/28/27 40/33/27 56/31/27
f 61/20/28 37/36/28 69/37/28
f 44/38/29 36/36/29 52/39/29
f 42/26/30 34/22/30 50/40/30
f 41/16/30 33/17/30 27/41/30
f 42/26/30 49/18/30 41/16/30
f 43/28/29 35/33/29 26/24/29
f 44/38/29 51/31/29 43/28/29
f 47/38/27 37/36/27 32/19/27
f 48/28/27 55/39/27 47/38/27
f 72/23/31 100/42/31 71/35/31
f 68/29/32 80/30/32 79/43/32
f 49/18/33 73/44/33 88/45/33
f 71/35/34 85/32/34 40/33/34
f 28/19/6 47/38/6 32/19/6
f 44/38/6 48/28/6 47/38/6
f 31/41/5 41/16/5 27/41/5
f 46/16/5 42/26/5 41/16/5
f 45/26/19 39/22/19 29/27/19
f 46/16/19 53/40/19 45/26/19
f 52/39/35 78/46/35 77/47/35
f 49/18/36 80/30/36 33/17/36
f 69/37/37 81/43/37 70/29/37
f 56/31/38 92/47/38 55/39/38
f 66/35/39 76/32/39 75/42/39
f 37/36/40 99/48/40 69/37/40
f 55/39/41 91/46/41 37/36/41
f 50/40/42 74/49/42 73/44/42
f 62/34/43 38/17/43 31/41/43
f 61/20/43 70/29/43 62/34/43
f 57/21/26 34/22/26 25/27/26
f 58/25/44 65/23/44 57/21/44
f 59/20/45 36/36/45 28/19/45
f 60/34/25 67/37/25 59/20/25
f 67/37/46 79/43/46 98/48/46
f 39/22/47 86/50/47 72/23/47
f 54/18/48 90/44/48 53/40/48
f 36/36/49 98/48/49 78/46/49
f 64/21/22 25/27/22 29/27/22
f 63/25/22 57/21/22 64/21/22
f 63/25/21 40/33/21 30/24/21
f 64/21/21 71/35/21 63/25/21
f 60/34/20 31/41/20 27/41/20
f 59/20/20 62/34/20 60/34/20
f 90/44/50 107/45/50 114/44/50
f 80/30/51 103/43/51 79/43/51
f 78/46/52 95/47/52 77/47/52
f 77/47/53 113/51/53 89/51/53
f 86/50/54 120/42/54 100/42/54
f 85/32/55 108/51/55 84/51/55
f 100/42/56 109/32/56 85/32/56
f 83/45/57 106/30/57 107/45/57
f 76/32/56 101/42/56 75/42/56
f 90/44/58 111/49/58 87/49/58
f 103/43/59 94/49/59 113/51/59
f 89/51/55 102/32/55 76/32/55
f 114/44/60 106/30/60 116/47/60
f 91/46/61 119/48/61 99/48/61
f 73/44/50 112/45/50 88/45/50
f 99/48/62 105/43/62 81/43/62
f 81/43/51 106/30/51 82/30/51
f 97/50/63 94/49/63 74/49/63
f 34/22/64 97/50/64 74/49/64
f 51/31/65 77/47/65 89/51/65
f 54/18/66 82/30/66 83/45/66
f 65/23/67 75/42/67 97/50/67
f 53/40/68 87/49/68 39/22/68
f 56/31/69 85/32/69 84/51/69
f 79/43/62 118/48/62 98/48/62
f 75/42/54 117/50/54 97/50/54
f 92/47/52 115/46/52 91/46/52
f 86/50/63 111/49/63 110/50/63
f 98/48/61 96/46/61 78/46/61
f 74/49/58 93/44/58 73/44/58
f 84/51/53 116/47/53 92/47/53
f 88/45/57 104/30/57 80/30/57
f 24/1/1 22/1/1 3/2/1
f 15/3/2 10/3/2 18/4/2
f 11/5/3 14/5/3 22/1/3
f 13/6/4 16/9/4 19/7/4
f 14/5/5 11/5/5 12/6/5
f 12/6/5 9/9/5 14/5/5
f 9/9/5 10/3/5 14/5/5
f 10/3/5 15/3/5 16/9/5
f 16/9/5 13/6/5 14/5/5
f 6/10/6 1/12/6 2/11/6
f 2/11/6 3/11/6 4/12/6
f 4/12/6 7/10/6 6/10/6
f 7/10/6 8/52/6 6/10/6
f 8/52/6 5/52/6 6/10/6
f 20/4/7 18/4/7 5/13/7
f 21/8/8 19/7/8 7/14/8
f 9/9/9 12/6/9 23/8/9
f 10/3/10 9/9/10 17/7/10
f 8/13/11 7/14/11 19/7/11
f 14/5/12 13/6/12 21/8/12
f 2/2/13 1/15/13 23/8/13
f 18/4/14 17/7/14 6/14/14
f 20/4/15 19/7/15 16/9/15
f 22/1/16 21/8/16 4/15/16
f 24/1/17 23/8/17 12/6/17
f 17/7/18 23/8/18 1/15/18
f 46/16/19 31/41/19 38/17/19
f 28/19/20 32/19/20 61/20/20
f 64/21/70 29/27/70 39/22/70
f 30/24/22 26/24/22 58/25/22
f 45/26/5 29/27/5 25/27/5
f 43/28/6 26/24/6 30/24/6
f 70/29/71 81/43/71 82/30/71
f 51/31/72 89/51/72 76/32/72
f 60/34/45 27/41/45 33/17/45
f 58/25/26 26/24/26 35/33/26
f 48/28/27 30/24/27 40/33/27
f 61/20/28 32/19/28 37/36/28
f 44/38/29 28/19/29 36/36/29
f 42/26/30 25/27/30 34/22/30
f 41/16/30 49/18/30 33/17/30
f 42/26/30 50/40/30 49/18/30
f 43/28/29 51/31/29 35/33/29
f 44/38/29 52/39/29 51/31/29
f 47/38/27 55/39/27 37/36/27
f 48/28/27 56/31/27 55/39/27
f 72/23/73 86/50/73 100/42/73
f 68/29/74 33/17/74 80/30/74
f 49/18/75 50/40/75 73/44/75
f 71/35/76 100/42/76 85/32/76
f 28/19/6 44/38/6 47/38/6
f 44/38/6 43/28/6 48/28/6
f 31/41/5 46/16/5 41/16/5
f 46/16/5 45/26/5 42/26/5
f 45/26/19 53/40/19 39/22/19
f 46/16/19 54/18/19 53/40/19
f 52/39/77 36/36/77 78/46/77
f 49/18/78 88/45/78 80/30/78
f 69/37/79 99/48/79 81/43/79
f 56/31/80 84/51/80 92/47/80
f 66/35/81 35/33/81 76/32/81
f 37/36/82 91/46/82 99/48/82
f 55/39/83 92/47/83 91/46/83
f 50/40/84 34/22/84 74/49/84
f 62/34/43 70/29/43 38/17/43
f 61/20/43 69/37/43 70/29/43
f 57/21/44 65/23/44 34/22/44
f 58/25/44 66/35/44 65/23/44
f 59/20/45 67/37/45 36/36/45
f 60/34/45 68/29/45 67/37/45
f 67/37/85 68/29/85 79/43/85
f 39/22/86 87/49/86 86/50/86
f 54/18/87 83/45/87 90/44/87
f 36/36/88 67/37/88 98/48/88
f 64/21/22 57/21/22 25/27/22
f 63/25/22 58/25/22 57/21/22
f 63/25/70 71/35/70 40/33/70
f 64/21/21 72/23/21 71/35/21
f 60/34/20 62/34/20 31/41/20
f 59/20/20 61/20/20 62/34/20
f 90/44/50 83/45/50 107/45/50
f 80/30/51 104/30/51 103/43/51
f 78/46/52 96/46/52 95/47/52
f 77/47/53 95/47/53 113/51/53
f 86/50/54 110/50/54 120/42/54
f 85/32/55 109/32/55 108/51/55
f 100/42/56 120/42/56 109/32/56
f 83/45/57 82/30/57 106/30/57
f 76/32/56 102/32/56 101/42/56
f 90/44/58 114/44/58 111/49/58
f 113/51/59 95/47/59 96/46/59
f 96/46/59 118/48/59 103/43/59
f 103/43/59 104/30/59 112/45/59
f 112/45/59 93/44/59 103/43/59
f 93/44/59 94/49/59 103/43/59
f 94/49/59 117/50/59 101/42/59
f 101/42/59 102/32/59 94/49/59
f 102/32/59 113/51/59 94/49/59
f 113/51/59 96/46/59 103/43/59
f 89/51/55 113/51/55 102/32/55
f 116/47/60 108/51/60 109/32/60
f 109/32/60 120/42/60 110/50/60
f 110/50/60 111/49/60 114/44/60
f 114/44/60 107/45/60 106/30/60
f 106/30/60 105/43/60 116/47/60
f 105/43/60 119/48/60 116/47/60
f 119/48/60 115/46/60 116/47/60
f 116/47/60 109/32/60 110/50/60
f 110/50/60 114/44/60 116/47/60
f 91/46/61 115/46/61 119/48/61
f 73/44/50 93/44/50 112/45/50
f 99/48/62 119/48/62 105/43/62
f 81/43/51 105/43/51 106/30/51
f 97/50/63 117/50/63 94/49/63
f 34/22/89 65/23/89 97/50/89
f 51/31/90 52/39/90 77/47/90
f 54/18/91 38/17/91 82/30/91
f 65/23/92 66/35/92 75/42/92
f 53/40/93 90/44/93 87/49/93
f 56/31/94 40/33/94 85/32/94
f 79/43/62 103/43/62 118/48/62
f 75/42/54 101/42/54 117/50/54
f 92/47/52 116/47/52 115/46/52
f 86/50/63 87/49/63 111/49/63
f 98/48/61 118/48/61 96/46/61
f 74/49/58 94/49/58 93/44/58
f 84/51/53 108/51/53 116/47/53
f 88/45/57 112/45/57 104/30/57
