# Blender 4.4.0
# www.blender.org
mtllib Tool_Hand_Cultivator_01.mtl
o Tool_Hand_Cultivator_01
v 0.001568 0.203737 0.003786
v -0.001568 0.203737 0.003786
v -0.003786 0.203737 0.001568
v -0.003786 0.203737 -0.001568
v -0.001568 0.203737 -0.003786
v 0.001568 0.203737 -0.003786
v 0.003786 0.203737 -0.001568
v 0.003786 0.203737 0.001568
v 0.001568 0.273116 0.003786
v -0.001568 0.273116 0.003786
v -0.003786 0.273116 0.001568
v -0.003786 0.273116 -0.001568
v -0.001568 0.273116 -0.003786
v 0.001568 0.273116 -0.003786
v 0.003786 0.273116 -0.001568
v 0.003786 0.273116 0.001568
v 0.003786 0.289349 0.016681
v 0.003786 0.292485 0.016681
v 0.001568 0.294702 0.016681
v -0.001568 0.294702 0.016681
v -0.003786 0.292485 0.016681
v -0.003786 0.289349 0.016681
v -0.001568 0.287131 0.016681
v 0.001568 0.287131 0.016681
v 0.004321 0.285607 0.002651
v 0.004321 0.284024 0.004626
v -0.001790 0.286726 0.001254
v 0.001790 0.286726 0.001254
v -0.004321 0.284024 0.004626
v -0.004321 0.285607 0.002651
v 0.001790 0.282905 0.006023
v -0.001790 0.282905 0.006023
v 0.002765 0.289771 0.066746
v 0.002765 0.292062 0.066746
v 0.001145 0.293682 0.066746
v -0.001145 0.293682 0.066746
v -0.002765 0.292062 0.066746
v -0.002765 0.289771 0.066746
v -0.001145 0.288152 0.066746
v 0.001145 0.288152 0.066746
v 0.000000 0.290917 0.084676
v 0.030317 0.242822 -0.000171
v 0.027181 0.242822 -0.000171
v 0.024963 0.242822 -0.002388
v 0.024963 0.242822 -0.005525
v 0.027181 0.242822 -0.007742
v 0.030317 0.242822 -0.007742
v 0.032535 0.242822 -0.005525
v 0.032535 0.242822 -0.002388
v 0.030317 0.273116 -0.000171
v 0.027181 0.273116 -0.000171
v 0.024963 0.273116 -0.002388
v 0.024963 0.273116 -0.005525
v 0.027181 0.273116 -0.007742
v 0.030317 0.273116 -0.007742
v 0.032535 0.273116 -0.005525
v 0.032535 0.273116 -0.002388
v 0.032535 0.289349 0.012725
v 0.032535 0.292485 0.012725
v 0.030317 0.294702 0.012725
v 0.027181 0.294702 0.012725
v 0.024963 0.292485 0.012725
v 0.024963 0.289349 0.012725
v 0.027181 0.287131 0.012725
v 0.030317 0.287131 0.012725
v 0.033070 0.285607 -0.001306
v 0.033070 0.284024 0.000670
v 0.026959 0.286726 -0.002703
v 0.030539 0.286726 -0.002703
v 0.024428 0.284024 0.000670
v 0.024428 0.285607 -0.001306
v 0.030539 0.282905 0.002066
v 0.026959 0.282905 0.002066
v 0.031514 0.289771 0.062789
v 0.031514 0.292062 0.062789
v 0.029894 0.293682 0.062789
v 0.027604 0.293682 0.062789
v 0.025984 0.292062 0.062789
v 0.025984 0.289771 0.062789
v 0.027604 0.288152 0.062789
v 0.029894 0.288152 0.062789
v 0.028749 0.290917 0.080720
v 0.000000 0.222054 -0.000171
v 0.000000 0.225191 -0.000171
v 0.000000 0.227408 -0.002388
v 0.000000 0.227408 -0.005525
v 0.000000 0.225191 -0.007742
v 0.000000 0.222054 -0.007742
v 0.000000 0.219837 -0.005525
v 0.000000 0.219837 -0.002388
v 0.021772 0.226291 -0.002388
v 0.021772 0.226291 -0.005525
v 0.020663 0.227400 -0.007742
v 0.019095 0.228968 -0.007742
v 0.017986 0.230077 -0.005525
v 0.017986 0.230077 -0.002388
v 0.019095 0.228968 -0.000171
v 0.020663 0.227400 -0.000171
v -0.030317 0.242822 -0.000171
v -0.027181 0.242822 -0.000171
v -0.024963 0.242822 -0.002388
v -0.024963 0.242822 -0.005525
v -0.027181 0.242822 -0.007742
v -0.030317 0.242822 -0.007742
v -0.032535 0.242822 -0.005525
v -0.032535 0.242822 -0.002388
v -0.030317 0.273116 -0.000171
v -0.027181 0.273116 -0.000171
v -0.024963 0.273116 -0.002388
v -0.024963 0.273116 -0.005525
v -0.027181 0.273116 -0.007742
v -0.030317 0.273116 -0.007742
v -0.032535 0.273116 -0.005525
v -0.032535 0.273116 -0.002388
v -0.032535 0.289349 0.012725
v -0.032535 0.292485 0.012725
v -0.030317 0.294702 0.012725
v -0.027181 0.294702 0.012725
v -0.024963 0.292485 0.012725
v -0.024963 0.289349 0.012725
v -0.027181 0.287131 0.012725
v -0.030317 0.287131 0.012725
v -0.033070 0.285607 -0.001306
v -0.033070 0.284024 0.000670
v -0.026959 0.286726 -0.002703
v -0.030539 0.286726 -0.002703
v -0.024428 0.284024 0.000670
v -0.024428 0.285607 -0.001306
v -0.030539 0.282905 0.002066
v -0.026959 0.282905 0.002066
v -0.031514 0.289771 0.062789
v -0.031514 0.292062 0.062789
v -0.029894 0.293682 0.062789
v -0.027604 0.293682 0.062789
v -0.025984 0.292062 0.062789
v -0.025984 0.289771 0.062789
v -0.027604 0.288152 0.062789
v -0.029894 0.288152 0.062789
v -0.028749 0.290917 0.080720
v -0.021772 0.226291 -0.002388
v -0.021772 0.226291 -0.005525
v -0.020663 0.227400 -0.007742
v -0.019095 0.228968 -0.007742
v -0.017986 0.230077 -0.005525
v -0.017986 0.230077 -0.002388
v -0.019095 0.228968 -0.000171
v -0.020663 0.227400 -0.000171
v 0.013853 0.126307 0.005738
v 0.005738 0.126307 0.013853
v 0.005738 0.126307 -0.013853
v 0.013853 0.126307 -0.005738
v -0.013853 0.126307 -0.005738
v -0.005738 0.126307 -0.013853
v -0.005738 0.126307 0.013853
v -0.013853 0.126307 0.005738
v 0.020465 0.019285 0.008477
v 0.008477 0.019285 -0.020465
v -0.020465 0.019285 -0.008477
v -0.008477 0.019285 0.020465
v 0.008477 0.019285 0.020465
v 0.020465 0.019285 -0.008477
v -0.008477 0.019285 -0.020465
v -0.020465 0.019285 0.008477
v 0.006290 0.197662 0.015187
v 0.003402 0.204783 0.008214
v -0.003402 0.204783 0.008214
v -0.006290 0.197662 0.015187
v -0.008214 0.204783 0.003402
v -0.015186 0.197662 0.006291
v -0.008214 0.204783 -0.003402
v -0.015186 0.197662 -0.006290
v -0.003402 0.204783 -0.008214
v -0.006290 0.197662 -0.015186
v 0.003402 0.204783 -0.008214
v 0.006290 0.197662 -0.015186
v 0.008214 0.204783 -0.003402
v 0.015186 0.197662 -0.006290
v 0.008214 0.204783 0.003402
v 0.015186 0.197662 0.006291
v 0.001637 -0.001093 0.003952
v 0.006015 0.005799 0.014522
v -0.006015 0.005799 0.014522
v -0.001637 -0.001093 0.003952
v -0.014522 0.005799 0.006015
v -0.003952 -0.001093 0.001637
v -0.014522 0.005799 -0.006015
v -0.003952 -0.001093 -0.001637
v -0.006015 0.005799 -0.014522
v -0.001637 -0.001093 -0.003952
v 0.006015 0.005799 -0.014522
v 0.001637 -0.001093 -0.003952
v 0.014522 0.005799 -0.006015
v 0.003952 -0.001093 -0.001637
v 0.014522 0.005799 0.006015
v 0.003952 -0.001093 0.001637
vn -0.0000 -0.0000 -1.0000
vn -1.0000 -0.0000 -0.0000
vn -0.0000 -0.0000 1.0000
vn 0.7071 -0.0000 0.7071
vn 0.7071 -0.0000 -0.7071
vn -0.7071 -0.0000 -0.7071
vn -0.7071 -0.0000 0.7071
vn 1.0000 -0.0000 -0.0000
vn 0.9990 0.0357 0.0286
vn -0.0000 0.8883 -0.4593
vn -0.9993 -0.0000 0.0381
vn -0.0000 -0.9296 0.3686
vn 0.6782 -0.6782 0.2830
vn 0.5350 0.7665 -0.3554
vn -0.6663 0.6663 -0.3349
vn -0.5364 -0.7629 0.3608
vn -0.5503 -0.2503 0.7966
vn -0.6859 0.2428 -0.6859
vn 0.5494 0.2461 -0.7985
vn 0.6962 -0.1749 0.6962
vn -0.0000 -0.2228 0.9749
vn -0.9991 -0.0428 -0.0000
vn -0.0000 0.3473 -0.9378
vn 0.9987 -0.0400 -0.0321
vn -0.0000 -0.9998 0.0204
vn -0.9998 -0.0000 0.0204
vn -0.0000 0.9998 0.0204
vn 0.7070 -0.7070 0.0204
vn 0.9998 -0.0000 0.0204
vn -0.7070 -0.7070 0.0204
vn -0.7070 0.7070 0.0204
vn 0.7070 0.7070 0.0204
vn 0.9883 -0.0000 0.1524
vn -0.6988 -0.6988 0.1524
vn -0.6988 0.6988 0.1524
vn 0.6988 0.6988 0.1524
vn -0.0000 -0.9883 0.1524
vn -0.9883 -0.0000 0.1524
vn -0.0000 0.9883 0.1524
vn 0.6988 -0.6988 0.1524
vn 0.2842 -0.9588 -0.0000
vn -0.1468 0.9892 -0.0000
vn 0.2414 -0.8143 0.5279
vn 0.1800 -0.6956 -0.6956
vn -0.1044 0.7032 -0.7032
vn -0.1673 0.8458 0.5066
vn -0.6536 0.3815 0.6536
vn -0.7258 0.3973 -0.5616
vn 0.6979 -0.4369 -0.5674
vn 0.6423 -0.4182 0.6423
vn -0.8772 0.4802 -0.0000
vn 0.8380 -0.5456 -0.0000
vn -0.9990 0.0357 0.0286
vn -0.5350 0.7665 -0.3554
vn 0.5364 -0.7629 0.3608
vn 0.6859 0.2428 -0.6859
vn -0.6962 -0.1749 0.6962
vn 0.9991 -0.0428 -0.0000
vn -0.2842 -0.9588 -0.0000
vn 0.1468 0.9892 -0.0000
vn -0.2414 -0.8143 0.5279
vn -0.2414 -0.8143 -0.5279
vn 0.1673 0.8458 -0.5066
vn 0.1673 0.8458 0.5066
vn 0.6536 0.3815 0.6536
vn 0.6536 0.3815 -0.6536
vn -0.6423 -0.4182 -0.6423
vn -0.6423 -0.4182 0.6423
vn 0.8772 0.4802 -0.0000
vn -0.8380 -0.5456 -0.0000
vn 0.6471 -0.4033 -0.6471
vn -0.6471 -0.4033 -0.6471
vn -0.0000 -0.4033 0.9151
vn 0.9151 -0.4033 -0.0000
vn -0.0000 -0.4033 -0.9151
vn -0.9151 -0.4033 -0.0000
vn 0.7070 -0.0187 0.7070
vn -0.0000 1.0000 -0.0000
vn -0.7070 -0.0187 -0.7070
vn 0.7070 -0.0187 -0.7070
vn -0.6471 -0.4033 0.6470
vn -0.9998 -0.0187 -0.0000
vn -0.0000 -0.0187 -0.9998
vn 0.9998 -0.0187 -0.0000
vn 0.6471 -0.4033 0.6470
vn -0.0000 0.0617 0.9981
vn -0.9981 0.0617 -0.0000
vn -0.0000 0.0617 -0.9981
vn 0.9981 0.0617 -0.0000
vn -0.7058 0.0617 0.7058
vn -0.7058 0.0617 -0.7058
vn 0.7058 0.0617 -0.7058
vn 0.7058 0.0617 0.7058
vn -0.7070 -0.0187 0.7070
vn -0.0000 0.6996 0.7145
vn -0.5052 0.6996 0.5052
vn -0.7145 0.6996 -0.0000
vn -0.5052 0.6996 -0.5052
vn -0.0000 0.6996 -0.7145
vn 0.5052 0.6996 -0.5052
vn 0.7145 0.6996 -0.0000
vn 0.5052 0.6996 0.5052
vn -0.0000 -0.0187 0.9998
vn -0.0000 -0.8376 0.5462
vn -0.3862 -0.8376 0.3862
vn -0.5462 -0.8376 -0.0000
vn -0.3862 -0.8376 -0.3862
vn -0.0000 -0.8376 -0.5462
vn 0.3862 -0.8376 -0.3862
vn 0.5462 -0.8376 -0.0000
vn 0.3862 -0.8376 0.3862
vn -0.0000 -1.0000 -0.0000
vn 0.9993 -0.0000 0.0381
vn 0.6663 0.6663 -0.3349
vn -0.6782 -0.6782 0.2830
vn -0.5494 0.2461 -0.7985
vn 0.5503 -0.2503 0.7966
vn -0.9987 -0.0400 -0.0321
vn 0.1800 -0.6956 0.6956
vn 0.2414 -0.8143 -0.5279
vn -0.1673 0.8458 -0.5066
vn -0.1044 0.7032 0.7032
vn -0.7258 0.3973 0.5616
vn -0.6536 0.3815 -0.6536
vn 0.6423 -0.4182 -0.6423
vn 0.6979 -0.4369 0.5674
vn -0.1800 -0.6956 0.6956
vn -0.1800 -0.6956 -0.6956
vn 0.1044 0.7032 -0.7032
vn 0.1044 0.7032 0.7032
vn 0.7258 0.3973 0.5616
vn 0.7258 0.3973 -0.5616
vn -0.6979 -0.4369 -0.5674
vn -0.6979 -0.4369 0.5674
vn 0.6470 -0.4033 -0.6471
vt 0.459755 0.685020
vt 0.459755 0.609964
vt 0.459754 0.685020
vt 0.459755 0.609964
vt 0.459754 0.609964
vt 0.459754 0.685020
vt 0.459754 0.609964
vt 0.459755 0.685020
vt 0.459754 0.698533
vt 0.459751 0.702581
vt 0.459753 0.696821
vt 0.459754 0.699743
vt 0.459751 0.708373
vt 0.459751 0.705974
vt 0.459753 0.695609
vt 0.459751 0.700182
vt 0.459740 0.701286
vt 0.459740 0.705516
vt 0.459740 0.707269
vt 0.459740 0.703038
vt 0.459736 0.704277
vt 0.459756 0.685020
vt 0.459756 0.652247
vt 0.459755 0.652247
vt 0.459756 0.685020
vt 0.459756 0.652247
vt 0.459754 0.685020
vt 0.459754 0.652247
vt 0.459755 0.685020
vt 0.459755 0.698533
vt 0.459752 0.702581
vt 0.459754 0.696821
vt 0.459755 0.699743
vt 0.459752 0.708373
vt 0.459752 0.705974
vt 0.459754 0.695609
vt 0.459752 0.700182
vt 0.459741 0.701286
vt 0.459741 0.705516
vt 0.459741 0.707269
vt 0.459741 0.703038
vt 0.459737 0.704277
vt 0.459755 0.634364
vt 0.459756 0.627382
vt 0.459756 0.634364
vt 0.459756 0.637260
vt 0.459756 0.629781
vt 0.459756 0.633174
vt 0.459756 0.638460
vt 0.459755 0.635573
vt 0.459755 0.638460
vt 0.459754 0.637260
vt 0.459754 0.629781
vt 0.459754 0.635563
vt 0.459755 0.627382
vt 0.459756 0.635563
vt 0.459756 0.635573
vt 0.459754 0.633174
vt 0.207957 0.823214
vt 0.208020 0.832069
vt 0.208046 0.823214
vt 0.207895 0.832069
vt 0.208259 0.823214
vt 0.208321 0.832069
vt 0.208171 0.823214
vt 0.208197 0.832069
vt 0.208253 0.902337
vt 0.208174 0.949187
vt 0.208266 0.949187
vt 0.208194 0.953862
vt 0.208073 0.953862
vt 0.208023 0.953862
vt 0.207950 0.949187
vt 0.208049 0.902337
vt 0.208043 0.949187
vt 0.208168 0.902337
vt 0.207964 0.902337
vt 0.208144 0.953862
vt 0.208150 0.818690
vt 0.208125 0.818690
vt 0.208091 0.818690
vt 0.208067 0.818690
s 0
usemtl Texture_Map
f 13/1/1 6/2/1 5/2/1
f 11/3/2 4/4/2 3/5/2
f 9/6/3 2/7/3 1/7/3
f 16/3/4 1/7/4 8/5/4
f 14/1/5 7/4/5 6/2/5
f 12/8/6 5/2/6 4/4/6
f 10/6/7 3/5/7 2/7/7
f 15/8/8 8/5/8 7/4/8
f 25/9/9 17/10/9 26/11/9
f 27/12/10 19/13/10 28/12/10
f 30/9/11 22/10/11 21/14/11
f 31/15/12 23/16/12 32/15/12
f 31/15/13 17/10/13 24/16/13
f 28/12/14 18/14/14 25/9/14
f 27/12/15 21/14/15 20/13/15
f 32/15/16 22/10/16 29/11/16
f 11/3/17 32/15/17 29/11/17
f 12/8/18 27/12/18 13/1/18
f 15/8/19 28/12/19 25/9/19
f 16/3/20 31/15/20 9/6/20
f 9/6/21 32/15/21 10/6/21
f 11/3/22 30/9/22 12/8/22
f 13/1/23 28/12/23 14/1/23
f 16/3/24 25/9/24 26/11/24
f 24/16/25 39/17/25 23/16/25
f 22/10/26 37/18/26 21/14/26
f 20/13/27 35/19/27 19/13/27
f 17/10/28 40/17/28 24/16/28
f 18/14/29 33/20/29 17/10/29
f 23/16/30 38/20/30 22/10/30
f 20/13/31 37/18/31 36/19/31
f 18/14/32 35/19/32 34/18/32
f 33/20/33 34/18/33 41/21/33
f 38/20/34 39/17/34 41/21/34
f 36/19/35 37/18/35 41/21/35
f 34/18/36 35/19/36 41/21/36
f 39/17/37 40/17/37 41/21/37
f 37/18/38 38/20/38 41/21/38
f 35/19/39 36/19/39 41/21/39
f 40/17/40 33/20/40 41/21/40
f 54/22/1 47/23/1 46/23/1
f 44/24/2 53/25/2 45/26/2
f 50/27/3 43/28/3 42/28/3
f 57/29/4 42/28/4 49/24/4
f 55/22/5 48/26/5 47/23/5
f 45/26/6 54/22/6 46/23/6
f 43/28/7 52/29/7 44/24/7
f 56/25/8 49/24/8 48/26/8
f 66/30/9 58/31/9 67/32/9
f 68/33/10 60/34/10 69/33/10
f 71/30/11 63/31/11 62/35/11
f 73/36/12 65/37/12 64/37/12
f 72/36/13 58/31/13 65/37/13
f 69/33/14 59/35/14 66/30/14
f 68/33/15 62/35/15 61/34/15
f 73/36/16 63/31/16 70/32/16
f 52/29/17 73/36/17 70/32/17
f 53/25/18 68/33/18 54/22/18
f 56/25/19 69/33/19 66/30/19
f 57/29/20 72/36/20 50/27/20
f 51/27/21 72/36/21 73/36/21
f 52/29/22 71/30/22 53/25/22
f 55/22/23 68/33/23 69/33/23
f 57/29/24 66/30/24 67/32/24
f 65/37/25 80/38/25 64/37/25
f 63/31/26 78/39/26 62/35/26
f 61/34/27 76/40/27 60/34/27
f 58/31/28 81/38/28 65/37/28
f 58/31/29 75/39/29 74/41/29
f 64/37/30 79/41/30 63/31/30
f 62/35/31 77/40/31 61/34/31
f 59/35/32 76/40/32 75/39/32
f 74/41/33 75/39/33 82/42/33
f 79/41/34 80/38/34 82/42/34
f 77/40/35 78/39/35 82/42/35
f 75/39/36 76/40/36 82/42/36
f 80/38/37 81/38/37 82/42/37
f 78/39/38 79/41/38 82/42/38
f 76/40/39 77/40/39 82/42/39
f 81/38/40 74/41/40 82/42/40
f 91/43/41 89/44/41 92/45/41
f 94/46/1 88/47/1 87/48/1
f 95/49/42 85/50/42 96/51/42
f 97/52/3 83/53/3 98/54/3
f 98/54/43 90/55/43 91/43/43
f 93/56/44 89/44/44 88/47/44
f 95/49/45 87/48/45 86/57/45
f 96/51/46 84/58/46 97/52/46
f 44/24/47 97/52/47 43/28/47
f 45/26/48 94/46/48 95/49/48
f 47/23/49 92/45/49 93/56/49
f 42/28/50 91/43/50 49/24/50
f 43/28/3 98/54/3 42/28/3
f 45/26/51 96/51/51 44/24/51
f 46/23/1 93/56/1 94/46/1
f 48/26/52 91/43/52 92/45/52
f 104/23/1 111/22/1 103/23/1
f 101/24/8 110/25/8 109/29/8
f 100/28/3 107/27/3 99/28/3
f 99/28/7 114/29/7 106/24/7
f 105/26/6 112/22/6 104/23/6
f 102/26/5 111/22/5 110/25/5
f 100/28/4 109/29/4 108/27/4
f 106/24/2 113/25/2 105/26/2
f 115/31/53 123/30/53 124/32/53
f 117/34/10 125/33/10 126/33/10
f 128/30/9 120/31/9 127/32/9
f 130/36/12 122/37/12 129/36/12
f 129/36/16 115/31/16 124/32/16
f 116/35/54 126/33/54 123/30/54
f 125/33/14 119/35/14 128/30/14
f 120/31/55 130/36/55 127/32/55
f 109/29/20 130/36/20 108/27/20
f 125/33/56 110/25/56 111/22/56
f 113/25/18 126/33/18 112/22/18
f 129/36/57 114/29/57 107/27/57
f 108/27/21 129/36/21 107/27/21
f 128/30/58 109/29/58 110/25/58
f 112/22/23 125/33/23 111/22/23
f 114/29/22 123/30/22 113/25/22
f 137/38/25 122/37/25 121/37/25
f 135/39/29 120/31/29 119/35/29
f 133/40/27 118/34/27 117/34/27
f 138/38/30 115/31/30 122/37/30
f 115/31/26 132/39/26 116/35/26
f 136/41/28 121/37/28 120/31/28
f 134/40/32 119/35/32 118/34/32
f 116/35/31 133/40/31 117/34/31
f 131/41/38 139/42/38 132/39/38
f 136/41/40 139/42/40 137/38/40
f 134/40/36 139/42/36 135/39/36
f 132/39/35 139/42/35 133/40/35
f 137/38/37 139/42/37 138/38/37
f 135/39/33 139/42/33 136/41/33
f 133/40/39 139/42/39 134/40/39
f 138/38/34 139/42/34 131/41/34
f 89/44/59 140/43/59 141/45/59
f 143/46/1 88/47/1 142/56/1
f 85/50/60 144/49/60 145/51/60
f 83/53/3 146/52/3 147/54/3
f 90/55/61 147/54/61 140/43/61
f 142/56/62 89/44/62 141/45/62
f 144/49/63 87/48/63 143/46/63
f 84/58/64 145/51/64 146/52/64
f 146/52/65 101/24/65 100/28/65
f 102/26/66 143/46/66 103/23/66
f 104/23/67 141/45/67 105/26/67
f 140/43/68 99/28/68 106/24/68
f 147/54/3 100/28/3 99/28/3
f 145/51/69 102/26/69 101/24/69
f 103/23/1 142/56/1 104/23/1
f 105/26/70 140/43/70 106/24/70
f 190/59/71 161/60/71 192/61/71
f 186/61/72 162/62/72 188/59/72
f 182/63/73 160/64/73 159/64/73
f 194/65/74 161/60/74 156/66/74
f 157/62/75 188/59/75 162/62/75
f 158/60/76 184/65/76 163/66/76
f 149/67/77 179/68/77 164/69/77
f 165/70/78 176/71/78 172/72/78
f 173/73/79 152/74/79 171/75/79
f 151/74/80 175/73/80 177/75/80
f 184/65/81 159/64/81 163/66/81
f 171/75/82 155/76/82 169/68/82
f 150/77/83 173/73/83 175/73/83
f 148/76/84 177/75/84 179/68/84
f 181/63/85 156/66/85 160/64/85
f 159/64/86 149/67/86 154/67/86
f 158/60/87 155/76/87 152/74/87
f 150/77/88 162/62/88 153/77/88
f 148/76/89 161/60/89 151/74/89
f 163/66/90 154/67/90 155/76/90
f 153/77/91 158/60/91 152/74/91
f 161/60/92 150/77/92 151/74/92
f 149/67/93 156/66/93 148/76/93
f 169/68/94 154/67/94 167/69/94
f 167/69/95 165/70/95 166/70/95
f 167/69/96 168/78/96 169/68/96
f 169/68/97 170/71/97 171/75/97
f 171/75/98 172/72/98 173/73/98
f 173/73/99 174/72/99 175/73/99
f 177/75/100 174/72/100 176/71/100
f 179/68/101 176/71/101 178/78/101
f 164/69/102 178/78/102 165/70/102
f 154/67/103 164/69/103 167/69/103
f 180/79/104 182/63/104 183/79/104
f 183/79/105 184/65/105 185/80/105
f 185/80/106 186/61/106 187/81/106
f 189/82/107 186/61/107 188/59/107
f 189/82/108 190/59/108 191/82/108
f 193/81/109 190/59/109 192/61/109
f 193/81/110 194/65/110 195/80/110
f 180/79/111 194/65/111 181/63/111
f 189/82/112 193/81/112 180/79/112
f 13/1/1 14/1/1 6/2/1
f 11/3/2 12/8/2 4/4/2
f 9/6/3 10/6/3 2/7/3
f 16/3/4 9/6/4 1/7/4
f 14/1/5 15/8/5 7/4/5
f 12/8/6 13/1/6 5/2/6
f 10/6/7 11/3/7 3/5/7
f 15/8/8 16/3/8 8/5/8
f 25/9/113 18/14/113 17/10/113
f 27/12/10 20/13/10 19/13/10
f 30/9/53 29/11/53 22/10/53
f 31/15/12 24/16/12 23/16/12
f 31/15/55 26/11/55 17/10/55
f 28/12/114 19/13/114 18/14/114
f 27/12/54 30/9/54 21/14/54
f 32/15/115 23/16/115 22/10/115
f 11/3/57 10/6/57 32/15/57
f 12/8/116 30/9/116 27/12/116
f 15/8/56 14/1/56 28/12/56
f 16/3/117 26/11/117 31/15/117
f 9/6/21 31/15/21 32/15/21
f 11/3/118 29/11/118 30/9/118
f 13/1/23 27/12/23 28/12/23
f 16/3/58 15/8/58 25/9/58
f 24/16/25 40/17/25 39/17/25
f 22/10/26 38/20/26 37/18/26
f 20/13/27 36/19/27 35/19/27
f 17/10/28 33/20/28 40/17/28
f 18/14/29 34/18/29 33/20/29
f 23/16/30 39/17/30 38/20/30
f 20/13/31 21/14/31 37/18/31
f 18/14/32 19/13/32 35/19/32
f 54/22/1 55/22/1 47/23/1
f 44/24/2 52/29/2 53/25/2
f 50/27/3 51/27/3 43/28/3
f 57/29/4 50/27/4 42/28/4
f 55/22/5 56/25/5 48/26/5
f 45/26/6 53/25/6 54/22/6
f 43/28/7 51/27/7 52/29/7
f 56/25/8 57/29/8 49/24/8
f 66/30/113 59/35/113 58/31/113
f 68/33/10 61/34/10 60/34/10
f 71/30/53 70/32/53 63/31/53
f 73/36/12 72/36/12 65/37/12
f 72/36/55 67/32/55 58/31/55
f 69/33/114 60/34/114 59/35/114
f 68/33/54 71/30/54 62/35/54
f 73/36/115 64/37/115 63/31/115
f 52/29/57 51/27/57 73/36/57
f 53/25/116 71/30/116 68/33/116
f 56/25/56 55/22/56 69/33/56
f 57/29/117 67/32/117 72/36/117
f 51/27/21 50/27/21 72/36/21
f 52/29/118 70/32/118 71/30/118
f 55/22/23 54/22/23 68/33/23
f 57/29/58 56/25/58 66/30/58
f 65/37/25 81/38/25 80/38/25
f 63/31/26 79/41/26 78/39/26
f 61/34/27 77/40/27 76/40/27
f 58/31/28 74/41/28 81/38/28
f 58/31/29 59/35/29 75/39/29
f 64/37/30 80/38/30 79/41/30
f 62/35/31 78/39/31 77/40/31
f 59/35/32 60/34/32 76/40/32
f 91/43/41 90/55/41 89/44/41
f 94/46/1 93/56/1 88/47/1
f 95/49/42 86/57/42 85/50/42
f 97/52/3 84/58/3 83/53/3
f 98/54/119 83/53/119 90/55/119
f 93/56/120 92/45/120 89/44/120
f 95/49/121 94/46/121 87/48/121
f 96/51/122 85/50/122 84/58/122
f 44/24/123 96/51/123 97/52/123
f 45/26/124 46/23/124 94/46/124
f 47/23/125 48/26/125 92/45/125
f 42/28/126 98/54/126 91/43/126
f 43/28/3 97/52/3 98/54/3
f 45/26/51 95/49/51 96/51/51
f 46/23/1 47/23/1 93/56/1
f 48/26/52 49/24/52 91/43/52
f 104/23/1 112/22/1 111/22/1
f 101/24/8 102/26/8 110/25/8
f 100/28/3 108/27/3 107/27/3
f 99/28/7 107/27/7 114/29/7
f 105/26/6 113/25/6 112/22/6
f 102/26/5 103/23/5 111/22/5
f 100/28/4 101/24/4 109/29/4
f 106/24/2 114/29/2 113/25/2
f 115/31/11 116/35/11 123/30/11
f 117/34/10 118/34/10 125/33/10
f 128/30/113 119/35/113 120/31/113
f 130/36/12 121/37/12 122/37/12
f 129/36/115 122/37/115 115/31/115
f 116/35/15 117/34/15 126/33/15
f 125/33/114 118/34/114 119/35/114
f 120/31/13 121/37/13 130/36/13
f 109/29/117 127/32/117 130/36/117
f 125/33/19 128/30/19 110/25/19
f 113/25/116 123/30/116 126/33/116
f 129/36/17 124/32/17 114/29/17
f 108/27/21 130/36/21 129/36/21
f 128/30/24 127/32/24 109/29/24
f 112/22/23 126/33/23 125/33/23
f 114/29/118 124/32/118 123/30/118
f 137/38/25 138/38/25 122/37/25
f 135/39/29 136/41/29 120/31/29
f 133/40/27 134/40/27 118/34/27
f 138/38/30 131/41/30 115/31/30
f 115/31/26 131/41/26 132/39/26
f 136/41/28 137/38/28 121/37/28
f 134/40/32 135/39/32 119/35/32
f 116/35/31 132/39/31 133/40/31
f 89/44/59 90/55/59 140/43/59
f 143/46/1 87/48/1 88/47/1
f 85/50/60 86/57/60 144/49/60
f 83/53/3 84/58/3 146/52/3
f 90/55/127 83/53/127 147/54/127
f 142/56/128 88/47/128 89/44/128
f 144/49/129 86/57/129 87/48/129
f 84/58/130 85/50/130 145/51/130
f 146/52/131 145/51/131 101/24/131
f 102/26/132 144/49/132 143/46/132
f 104/23/133 142/56/133 141/45/133
f 140/43/134 147/54/134 99/28/134
f 147/54/3 146/52/3 100/28/3
f 145/51/69 144/49/69 102/26/69
f 103/23/1 143/46/1 142/56/1
f 105/26/70 141/45/70 140/43/70
f 190/59/135 157/62/135 161/60/135
f 186/61/72 158/60/72 162/62/72
f 182/63/73 181/63/73 160/64/73
f 194/65/74 192/61/74 161/60/74
f 157/62/75 190/59/75 188/59/75
f 158/60/76 186/61/76 184/65/76
f 149/67/77 148/76/77 179/68/77
f 168/78/78 166/70/78 165/70/78
f 165/70/78 178/78/78 176/71/78
f 176/71/78 174/72/78 172/72/78
f 172/72/78 170/71/78 168/78/78
f 168/78/78 165/70/78 172/72/78
f 173/73/79 153/77/79 152/74/79
f 151/74/80 150/77/80 175/73/80
f 184/65/81 182/63/81 159/64/81
f 171/75/82 152/74/82 155/76/82
f 150/77/83 153/77/83 173/73/83
f 148/76/84 151/74/84 177/75/84
f 181/63/85 194/65/85 156/66/85
f 159/64/86 160/64/86 149/67/86
f 158/60/87 163/66/87 155/76/87
f 150/77/88 157/62/88 162/62/88
f 148/76/89 156/66/89 161/60/89
f 163/66/90 159/64/90 154/67/90
f 153/77/91 162/62/91 158/60/91
f 161/60/92 157/62/92 150/77/92
f 149/67/93 160/64/93 156/66/93
f 169/68/94 155/76/94 154/67/94
f 167/69/95 164/69/95 165/70/95
f 167/69/96 166/70/96 168/78/96
f 169/68/97 168/78/97 170/71/97
f 171/75/98 170/71/98 172/72/98
f 173/73/99 172/72/99 174/72/99
f 177/75/100 175/73/100 174/72/100
f 179/68/101 177/75/101 176/71/101
f 164/69/102 179/68/102 178/78/102
f 154/67/103 149/67/103 164/69/103
f 180/79/104 181/63/104 182/63/104
f 183/79/105 182/63/105 184/65/105
f 185/80/106 184/65/106 186/61/106
f 189/82/107 187/81/107 186/61/107
f 189/82/108 188/59/108 190/59/108
f 193/81/109 191/82/109 190/59/109
f 193/81/110 192/61/110 194/65/110
f 180/79/111 195/80/111 194/65/111
f 180/79/112 183/79/112 185/80/112
f 185/80/112 187/81/112 180/79/112
f 187/81/112 189/82/112 180/79/112
f 189/82/112 191/82/112 193/81/112
f 193/81/112 195/80/112 180/79/112
