# Blender 4.4.0
# www.blender.org
mtllib Tool_Watering_Can_01.mtl
o Tool_Watering_Can_01
v 0.000000 0.000000 -0.085353
v -0.049496 0.000000 -0.078856
v -0.091456 0.000000 -0.060353
v -0.119494 0.000000 -0.032663
v -0.129339 0.000000 -0.000000
v -0.119494 0.000000 0.032663
v -0.091456 0.000000 0.060353
v -0.049496 0.000000 0.078856
v 0.000000 0.000000 0.085353
v 0.049496 0.000000 0.078856
v 0.091456 0.000000 0.060353
v 0.119494 0.000000 0.032663
v 0.129339 0.000000 -0.000000
v 0.119494 0.000000 -0.032663
v 0.091456 0.000000 -0.060353
v 0.049496 0.000000 -0.078856
v 0.000000 0.009378 -0.083238
v -0.048996 0.009378 -0.076807
v -0.090388 0.009378 -0.058555
v -0.117789 0.009378 -0.031493
v -0.127282 0.009378 -0.000000
v -0.117789 0.009378 0.031493
v -0.090388 0.009378 0.058555
v -0.048996 0.009378 0.076807
v 0.000000 0.009378 0.083238
v 0.048996 0.009378 0.076807
v 0.090388 0.009378 0.058555
v 0.117789 0.009378 0.031493
v 0.127282 0.009378 -0.000000
v 0.117789 0.009378 -0.031493
v 0.090388 0.009378 -0.058555
v 0.048996 0.009378 -0.076807
v -0.049496 0.009378 -0.078856
v 0.000000 0.009378 -0.085353
v -0.091456 0.009378 -0.060353
v -0.119494 0.009378 -0.032663
v -0.129339 0.009378 -0.000000
v -0.119494 0.009378 0.032663
v -0.091456 0.009378 0.060353
v -0.049496 0.009378 0.078856
v 0.000000 0.009378 0.085353
v 0.049496 0.009378 0.078856
v 0.091456 0.009378 0.060353
v 0.119494 0.009378 0.032663
v 0.129339 0.009378 -0.000000
v 0.119494 0.009378 -0.032663
v 0.091456 0.009378 -0.060353
v 0.049496 0.009378 -0.078856
v -0.048996 0.305631 -0.076807
v 0.000000 0.305631 -0.083238
v -0.090388 0.305631 -0.058555
v -0.117789 0.305631 -0.031493
v -0.127282 0.305631 -0.000000
v -0.117789 0.305631 0.031493
v -0.090388 0.305631 0.058555
v -0.048996 0.305631 0.076807
v 0.000000 0.305631 0.083238
v 0.048996 0.305631 0.076807
v 0.090388 0.305631 0.058555
v 0.117789 0.305631 0.031493
v 0.127282 0.305631 -0.000000
v 0.117789 0.305631 -0.031493
v 0.090388 0.305631 -0.058555
v 0.048996 0.305631 -0.076807
v 0.090388 0.285533 0.058555
v 0.048996 0.285533 0.076807
v -0.117789 0.285533 -0.031493
v -0.090388 0.285533 -0.058555
v 0.117789 0.285533 0.031493
v -0.127282 0.285533 -0.000000
v 0.127282 0.285533 -0.000000
v -0.117789 0.285533 0.031493
v 0.117789 0.285533 -0.031493
v -0.090388 0.285533 0.058555
v 0.090388 0.285533 -0.058555
v -0.048996 0.285533 0.076807
v 0.048996 0.285533 -0.076807
v 0.000000 0.285533 0.083238
v -0.048996 0.285533 -0.076807
v 0.000000 0.285533 -0.083238
v -0.050630 0.302586 -0.082645
v 0.000000 0.302586 -0.089301
v -0.093798 0.302586 -0.063568
v -0.122983 0.302586 -0.034621
v -0.133345 0.302586 -0.000000
v -0.122983 0.302586 0.034621
v -0.093798 0.302586 0.063568
v -0.050630 0.302586 0.082645
v 0.000000 0.302586 0.089301
v 0.050630 0.302586 0.082645
v 0.093798 0.302586 0.063568
v 0.122983 0.302586 0.034621
v 0.133345 0.302586 -0.000000
v 0.122983 0.302586 -0.034621
v 0.093798 0.302586 -0.063568
v 0.050630 0.302586 -0.082645
v 0.093798 0.285533 0.063568
v -0.122983 0.285533 -0.034621
v 0.122983 0.285533 0.034621
v -0.133345 0.285533 -0.000000
v 0.133345 0.285533 -0.000000
v -0.122983 0.285533 0.034621
v 0.122983 0.285533 -0.034621
v -0.093798 0.285533 0.063568
v 0.093798 0.285533 -0.063568
v -0.050630 0.285533 0.082645
v 0.050630 0.285533 -0.082645
v 0.000000 0.285533 0.089301
v -0.050630 0.285533 -0.082645
v 0.050630 0.285533 0.082645
v -0.093798 0.285533 -0.063568
v 0.000000 0.285533 -0.089301
v -0.046719 0.292791 -0.068672
v 0.000000 0.292791 -0.074805
v -0.085607 0.292791 -0.051525
v -0.110398 0.292791 -0.027040
v -0.118549 0.292791 -0.000000
v -0.110398 0.292791 0.027040
v -0.085607 0.292791 0.051525
v -0.046719 0.292791 0.068672
v 0.000000 0.292791 0.074805
v 0.046719 0.292791 0.068672
v 0.085607 0.292791 0.051525
v 0.110398 0.292791 0.027040
v 0.118549 0.292791 -0.000000
v 0.110398 0.292791 -0.027040
v 0.085607 0.292791 -0.051525
v 0.046719 0.292791 -0.068672
v -0.048996 0.292791 -0.076807
v 0.000000 0.292791 -0.083238
v -0.090388 0.292791 -0.058555
v -0.117789 0.292791 -0.031493
v -0.127282 0.292791 -0.000000
v -0.117789 0.292791 0.031493
v -0.090388 0.292791 0.058555
v -0.048996 0.292791 0.076807
v 0.000000 0.292791 0.083238
v 0.048996 0.292791 0.076807
v 0.090388 0.292791 0.058555
v 0.117789 0.292791 0.031493
v 0.127282 0.292791 -0.000000
v 0.117789 0.292791 -0.031493
v 0.090388 0.292791 -0.058555
v 0.048996 0.292791 -0.076807
v -0.120565 0.288699 -0.000000
v -0.087063 0.288699 0.052401
v 0.118549 0.288699 -0.000000
v 0.085607 0.288699 -0.051525
v 0.046719 0.288699 -0.068672
v -0.087063 0.288699 -0.052401
v -0.047514 0.288699 0.069840
v 0.000000 0.288699 0.076077
v 0.046719 0.288699 0.068672
v 0.085607 0.288699 0.051525
v 0.110398 0.288699 0.027040
v 0.110398 0.288699 -0.027040
v -0.047514 0.288699 -0.069840
v 0.000000 0.288699 -0.076077
v -0.112276 0.288699 -0.027500
v -0.112276 0.288699 0.027500
v 0.047514 0.288699 0.069840
v 0.087063 0.288699 0.052401
v 0.112276 0.288699 0.027500
v 0.120565 0.288699 -0.000000
v 0.112276 0.288699 -0.027500
v 0.087063 0.288699 -0.052401
v 0.047514 0.288699 -0.069840
v -0.047514 0.019435 -0.069840
v 0.000000 0.019435 -0.076077
v -0.087063 0.019435 -0.052401
v -0.112276 0.019435 -0.027500
v -0.120565 0.019435 -0.000000
v -0.112276 0.019435 0.027500
v -0.087063 0.019435 0.052401
v -0.047514 0.019435 0.069840
v 0.000000 0.019435 0.076077
v 0.047514 0.019435 0.069840
v 0.087063 0.019435 0.052401
v 0.112276 0.019435 0.027500
v 0.120565 0.019435 -0.000000
v 0.112276 0.019435 -0.027500
v 0.087063 0.019435 -0.052401
v 0.047514 0.019435 -0.069840
v 0.090519 0.151054 -0.059929
v 0.090519 0.155906 -0.059929
v -0.048969 0.151054 0.078269
v -0.048969 0.155906 0.078269
v 0.048969 0.151054 -0.078269
v 0.048969 0.155906 -0.078269
v 0.000000 0.155906 -0.084702
v 0.000000 0.151054 -0.084702
v 0.000000 0.151054 0.084702
v 0.000000 0.155906 0.084702
v 0.048969 0.155906 0.078269
v 0.048969 0.151054 0.078269
v -0.048969 0.151054 -0.078269
v -0.048969 0.155906 -0.078269
v -0.090519 0.155906 -0.059929
v -0.090519 0.151054 -0.059929
v 0.000000 0.207403 -0.084702
v 0.000000 0.212255 -0.084702
v -0.048969 0.212255 -0.078269
v -0.048969 0.207403 -0.078269
v 0.000000 0.212255 0.084702
v 0.000000 0.207403 0.084702
v 0.048969 0.212255 -0.078269
v 0.048969 0.207403 -0.078269
v -0.048969 0.212255 0.078269
v -0.048969 0.207403 0.078269
v 0.090519 0.212255 -0.059929
v 0.090519 0.207403 -0.059929
v -0.090519 0.212255 0.059929
v -0.090519 0.207403 0.059929
v 0.118305 0.212255 -0.032430
v 0.118305 0.207403 -0.032430
v -0.118305 0.212255 0.032430
v -0.118305 0.207403 0.032430
v 0.128046 0.212255 -0.000000
v 0.128046 0.207403 -0.000000
v -0.128046 0.212255 -0.000000
v -0.128046 0.207403 -0.000000
v 0.118305 0.212255 0.032430
v 0.118305 0.207403 0.032430
v -0.090519 0.207403 -0.059929
v -0.090519 0.212255 -0.059929
v -0.118305 0.212255 -0.032430
v -0.118305 0.207403 -0.032430
v 0.048969 0.207403 0.078269
v 0.048969 0.212255 0.078269
v 0.090519 0.212255 0.059929
v 0.090519 0.207403 0.059929
v 0.048996 0.212255 0.076807
v 0.048996 0.207403 0.076807
v -0.090388 0.212255 -0.058555
v -0.090388 0.207403 -0.058555
v 0.000000 0.212255 -0.083238
v 0.000000 0.207403 -0.083238
v 0.090388 0.207403 0.058555
v 0.090388 0.212255 0.058555
v -0.117789 0.207403 -0.031493
v -0.117789 0.212255 -0.031493
v 0.117789 0.207403 0.031493
v 0.117789 0.212255 0.031493
v -0.127282 0.207403 -0.000000
v -0.127282 0.212255 -0.000000
v 0.127282 0.207403 -0.000000
v 0.127282 0.212255 -0.000000
v -0.117789 0.207403 0.031493
v -0.117789 0.212255 0.031493
v 0.117789 0.207403 -0.031493
v 0.117789 0.212255 -0.031493
v -0.090388 0.207403 0.058555
v -0.090388 0.212255 0.058555
v 0.090388 0.207403 -0.058555
v 0.090388 0.212255 -0.058555
v -0.048996 0.207403 0.076807
v -0.048996 0.212255 0.076807
v 0.048996 0.207403 -0.076807
v 0.048996 0.212255 -0.076807
v 0.000000 0.207403 0.083238
v 0.000000 0.212255 0.083238
v -0.048996 0.207403 -0.076807
v -0.048996 0.212255 -0.076807
v 0.048996 0.151054 0.076807
v 0.048996 0.155906 0.076807
v -0.090388 0.151054 -0.058555
v -0.090388 0.155906 -0.058555
v 0.000000 0.151054 -0.083238
v 0.000000 0.155906 -0.083238
v 0.090388 0.155906 0.058555
v 0.090388 0.151054 0.058555
v -0.117789 0.155906 -0.031493
v -0.117789 0.151054 -0.031493
v 0.117789 0.155906 0.031493
v 0.117789 0.151054 0.031493
v -0.127282 0.155906 -0.000000
v -0.127282 0.151054 -0.000000
v 0.127282 0.155906 -0.000000
v 0.127282 0.151054 -0.000000
v -0.117789 0.155906 0.031493
v -0.117789 0.151054 0.031493
v 0.117789 0.155906 -0.031493
v 0.117789 0.151054 -0.031493
v -0.090388 0.155906 0.058555
v -0.090388 0.151054 0.058555
v 0.090388 0.155906 -0.058555
v 0.090388 0.151054 -0.058555
v -0.048996 0.155906 0.076807
v -0.048996 0.151054 0.076807
v 0.048996 0.155906 -0.076807
v 0.048996 0.151054 -0.076807
v 0.000000 0.155906 0.083238
v 0.000000 0.151054 0.083238
v -0.048996 0.155906 -0.076807
v -0.048996 0.151054 -0.076807
v 0.090388 0.184080 0.058555
v 0.090388 0.179228 0.058555
v -0.117789 0.184080 -0.031493
v -0.117789 0.179228 -0.031493
v 0.117789 0.184080 0.031493
v 0.117789 0.179228 0.031493
v -0.127282 0.184080 -0.000000
v -0.127282 0.179228 -0.000000
v 0.127282 0.184080 -0.000000
v 0.127282 0.179228 -0.000000
v -0.117789 0.184080 0.031493
v -0.117789 0.179228 0.031493
v 0.117789 0.184080 -0.031493
v 0.117789 0.179228 -0.031493
v -0.090388 0.184080 0.058555
v -0.090388 0.179228 0.058555
v 0.090388 0.184080 -0.058555
v 0.090388 0.179228 -0.058555
v -0.048996 0.184080 0.076807
v -0.048996 0.179228 0.076807
v 0.048996 0.184080 -0.076807
v 0.048996 0.179228 -0.076807
v 0.000000 0.184080 0.083238
v 0.000000 0.179228 0.083238
v -0.048996 0.184080 -0.076807
v -0.048996 0.179228 -0.076807
v 0.048996 0.179228 0.076807
v 0.048996 0.184080 0.076807
v -0.090388 0.179228 -0.058555
v -0.090388 0.184080 -0.058555
v 0.000000 0.179228 -0.083238
v 0.000000 0.184080 -0.083238
v -0.090519 0.155906 0.059929
v -0.090519 0.151054 0.059929
v 0.118305 0.155906 -0.032430
v 0.118305 0.151054 -0.032430
v -0.118305 0.155906 0.032430
v -0.118305 0.151054 0.032430
v 0.128046 0.155906 -0.000000
v 0.128046 0.151054 -0.000000
v -0.128046 0.155906 -0.000000
v -0.128046 0.151054 -0.000000
v 0.118305 0.155906 0.032430
v 0.118305 0.151054 0.032430
v -0.118305 0.155906 -0.032430
v -0.118305 0.151054 -0.032430
v 0.090519 0.155906 0.059929
v 0.090519 0.151054 0.059929
v -0.090519 0.179228 -0.059929
v -0.090519 0.184080 -0.059929
v -0.048969 0.184080 -0.078269
v -0.048969 0.179228 -0.078269
v 0.048969 0.179228 0.078269
v 0.048969 0.184080 0.078269
v 0.000000 0.184080 0.084702
v 0.000000 0.179228 0.084702
v 0.000000 0.179228 -0.084702
v 0.000000 0.184080 -0.084702
v 0.048969 0.184080 -0.078269
v 0.048969 0.179228 -0.078269
v -0.048969 0.184080 0.078269
v -0.048969 0.179228 0.078269
v 0.090519 0.184080 -0.059929
v 0.090519 0.179228 -0.059929
v -0.090519 0.184080 0.059929
v -0.090519 0.179228 0.059929
v 0.118305 0.184080 -0.032430
v 0.118305 0.179228 -0.032430
v -0.118305 0.184080 0.032430
v -0.118305 0.179228 0.032430
v 0.128046 0.184080 -0.000000
v 0.128046 0.179228 -0.000000
v -0.128046 0.184080 -0.000000
v -0.128046 0.179228 -0.000000
v 0.118305 0.184080 0.032430
v 0.118305 0.179228 0.032430
v -0.118305 0.184080 -0.032430
v -0.118305 0.179228 -0.032430
v 0.090519 0.184080 0.059929
v 0.090519 0.179228 0.059929
v -0.329973 0.288033 -0.006684
v -0.327377 0.291132 -0.004962
v -0.326301 0.292415 -0.000805
v -0.327377 0.291132 0.003353
v -0.329973 0.288033 0.005075
v -0.332570 0.284934 0.003353
v -0.333646 0.283651 -0.000805
v -0.332570 0.284934 -0.004962
v -0.314995 0.305907 0.009345
v -0.312398 0.309006 0.011067
v -0.311323 0.310289 0.015225
v -0.312398 0.309006 0.019382
v -0.314995 0.305907 0.021104
v -0.317592 0.302808 0.019382
v -0.318667 0.301525 0.015225
v -0.317592 0.302808 0.011067
v -0.313293 0.307939 -0.018418
v -0.310696 0.311038 -0.016696
v -0.309620 0.312321 -0.012538
v -0.310696 0.311038 -0.008381
v -0.313292 0.307939 -0.006659
v -0.315889 0.304840 -0.008381
v -0.316965 0.303557 -0.012538
v -0.315889 0.304840 -0.016696
v -0.329449 0.288659 -0.036226
v -0.326852 0.291758 -0.034504
v -0.325777 0.293041 -0.030347
v -0.326852 0.291758 -0.026189
v -0.329449 0.288659 -0.024467
v -0.332046 0.285560 -0.026189
v -0.333121 0.284277 -0.030347
v -0.332046 0.285560 -0.034504
v -0.347807 0.266752 -0.019751
v -0.345210 0.269851 -0.018029
v -0.344135 0.271135 -0.013871
v -0.345210 0.269851 -0.009714
v -0.347807 0.266752 -0.007992
v -0.350404 0.263654 -0.009714
v -0.351479 0.262370 -0.013871
v -0.350404 0.263654 -0.018029
v -0.349940 0.264206 0.006899
v -0.347343 0.267305 0.008621
v -0.346268 0.268589 0.012778
v -0.347343 0.267305 0.016936
v -0.349940 0.264206 0.018658
v -0.352537 0.261108 0.016936
v -0.353612 0.259824 0.012778
v -0.352537 0.261108 0.008621
v -0.331902 0.285732 0.021470
v -0.329305 0.288831 0.023192
v -0.328230 0.290114 0.027350
v -0.329305 0.288831 0.031507
v -0.331902 0.285732 0.033229
v -0.334499 0.282633 0.031507
v -0.335574 0.281350 0.027350
v -0.334499 0.282633 0.023192
v -0.120614 0.073502 -0.021953
v -0.120614 0.088928 -0.015523
v -0.120614 0.095317 -0.000000
v -0.120614 0.088928 0.015523
v -0.120614 0.073502 0.021953
v -0.120614 0.058077 0.015523
v -0.120614 0.051688 -0.000000
v -0.120614 0.058077 -0.015523
v -0.328856 0.283956 -0.022317
v -0.319160 0.295526 -0.015887
v -0.315144 0.300318 -0.000364
v -0.319160 0.295526 0.015159
v -0.328856 0.283956 0.021589
v -0.338552 0.272386 0.015159
v -0.342568 0.267593 -0.000364
v -0.338552 0.272386 -0.015887
v -0.328856 0.283956 -0.050976
v -0.306503 0.310630 -0.036152
v -0.297244 0.321679 -0.000364
v -0.306503 0.310630 0.035424
v -0.328856 0.283956 0.050248
v -0.351209 0.257281 0.035424
v -0.360468 0.246233 -0.000364
v -0.351209 0.257281 -0.036152
v -0.341574 0.297562 -0.048427
v -0.320384 0.322847 -0.034375
v -0.311585 0.333347 -0.000364
v -0.320384 0.322847 0.033647
v -0.341573 0.297562 0.047699
v -0.362763 0.272277 0.033647
v -0.371562 0.261776 -0.000364
v -0.362763 0.272277 -0.034375
v -0.319220 0.324236 -0.036152
v -0.341574 0.297562 -0.050976
v -0.309961 0.335285 -0.000364
v -0.319220 0.324236 0.035424
v -0.341573 0.297562 0.050248
v -0.363927 0.270887 0.035424
v -0.373185 0.259839 -0.000364
v -0.363927 0.270887 -0.036152
v -0.337558 0.302354 -0.035785
v -0.340955 0.298300 -0.038038
v -0.344351 0.294247 -0.035785
v -0.336151 0.304033 -0.030347
v -0.345758 0.292568 -0.030347
v -0.337558 0.302354 -0.024908
v -0.344351 0.294247 -0.024908
v -0.359312 0.276394 -0.021562
v -0.340955 0.298300 -0.022656
v -0.362709 0.272340 -0.019309
v -0.355915 0.280447 -0.019309
v -0.324798 0.317580 -0.020229
v -0.364116 0.270661 -0.013871
v -0.354508 0.282126 -0.013871
v -0.355915 0.280447 -0.008433
v -0.362709 0.272340 -0.008433
v -0.328195 0.313527 -0.017977
v -0.329602 0.311848 -0.012538
v -0.319994 0.323313 -0.012538
v -0.321401 0.321634 -0.017977
v -0.364842 0.269795 0.007340
v -0.366249 0.268116 0.012778
v -0.356642 0.279581 0.012778
v -0.358049 0.277902 0.007340
v -0.359312 0.276394 -0.006180
v -0.361063 0.274305 -0.007341
v -0.361446 0.273848 0.005087
v -0.346283 0.291942 -0.000805
v -0.344876 0.293621 0.004634
v -0.344876 0.293621 -0.006243
v -0.336675 0.303407 -0.000805
v -0.338082 0.301728 0.004634
v -0.338082 0.301728 -0.006243
v -0.341479 0.297675 0.006886
v -0.341479 0.297675 -0.008496
v -0.328195 0.313527 -0.007100
v -0.324798 0.317580 -0.004847
v -0.329897 0.311495 0.009786
v -0.326501 0.315549 0.007534
v -0.321401 0.321634 -0.007100
v -0.358049 0.277902 0.018217
v -0.361446 0.273848 0.020469
v -0.364842 0.269795 0.018217
v -0.348211 0.289641 0.027350
v -0.346804 0.291320 0.032788
v -0.346804 0.291320 0.021911
v -0.340010 0.299427 0.021911
v -0.340010 0.299427 0.032788
v -0.343407 0.295373 0.035041
v -0.343407 0.295373 0.019659
v -0.338603 0.301106 0.027350
v -0.329897 0.311495 0.020663
v -0.331304 0.309816 0.015225
v -0.323104 0.319602 0.009786
v -0.323104 0.319602 0.020663
v -0.326501 0.315549 0.022916
v -0.321697 0.321281 0.015225
v -0.122734 0.229258 -0.010656
v -0.122734 0.236136 -0.007535
v -0.122734 0.238985 0.000000
v -0.122734 0.236136 0.007535
v -0.122734 0.229258 0.010656
v -0.122734 0.222380 0.007535
v -0.122734 0.219531 0.000000
v -0.122734 0.222380 -0.007535
v -0.227465 0.184169 -0.010656
v -0.230542 0.191047 -0.007535
v -0.231816 0.193896 -0.000000
v -0.230542 0.191047 0.007535
v -0.227465 0.184169 0.010656
v -0.224388 0.177291 0.007535
v -0.223114 0.174442 -0.000000
v -0.224388 0.177291 -0.007535
v 0.003451 0.276470 0.085541
v 0.003451 0.279852 0.083434
v 0.000000 0.281543 0.082381
v -0.003451 0.279852 0.083434
v -0.003451 0.276470 0.085541
v 0.000000 0.274779 0.086594
v 0.005412 0.283114 0.097950
v 0.005412 0.286868 0.092954
v 0.000000 0.288745 0.090457
v -0.005412 0.286868 0.092954
v -0.005412 0.283114 0.097950
v 0.000000 0.281236 0.100447
v 0.006120 0.299418 0.103065
v 0.006120 0.299452 0.095998
v 0.000000 0.299470 0.092465
v -0.006120 0.299452 0.095998
v -0.006120 0.299418 0.103065
v 0.000000 0.299400 0.106599
v 0.007161 0.334078 0.094331
v 0.007161 0.330539 0.086858
v -0.000000 0.328770 0.083122
v -0.007161 0.330539 0.086858
v -0.007161 0.334078 0.094331
v -0.000000 0.335847 0.098068
v 0.007161 0.365151 0.072174
v 0.007161 0.359134 0.066503
v -0.000000 0.356125 0.063668
v -0.007161 0.359134 0.066503
v -0.007161 0.365151 0.072174
v -0.000000 0.368160 0.075009
v 0.007161 0.385928 0.039029
v 0.007161 0.378225 0.036023
v -0.000000 0.374374 0.034520
v -0.007161 0.378225 0.036023
v -0.007161 0.385928 0.039029
v -0.000000 0.389779 0.040532
v 0.007161 0.393141 0.000000
v 0.007161 0.385013 0.000000
v -0.000000 0.380949 0.000000
v -0.007161 0.385013 0.000000
v -0.007161 0.393141 0.000000
v -0.000000 0.397205 0.000000
v 0.003451 0.276470 -0.085541
v 0.003451 0.279852 -0.083434
v 0.000000 0.281543 -0.082381
v -0.003451 0.279852 -0.083434
v -0.003451 0.276470 -0.085541
v 0.000000 0.274779 -0.086594
v 0.005412 0.283114 -0.097950
v 0.005412 0.286868 -0.092954
v 0.000000 0.288745 -0.090457
v -0.005412 0.286868 -0.092954
v -0.005412 0.283114 -0.097950
v 0.000000 0.281236 -0.100447
v 0.006120 0.299418 -0.103065
v 0.006120 0.299452 -0.095998
v 0.000000 0.299470 -0.092465
v -0.006120 0.299452 -0.095998
v -0.006120 0.299418 -0.103065
v 0.000000 0.299400 -0.106599
v 0.007161 0.334078 -0.094331
v 0.007161 0.330539 -0.086858
v -0.000000 0.328770 -0.083122
v -0.007161 0.330539 -0.086858
v -0.007161 0.334078 -0.094331
v -0.000000 0.335847 -0.098068
v 0.007161 0.365151 -0.072174
v 0.007161 0.359134 -0.066503
v -0.000000 0.356125 -0.063668
v -0.007161 0.359134 -0.066503
v -0.007161 0.365151 -0.072174
v -0.000000 0.368160 -0.075009
v 0.007161 0.385928 -0.039029
v 0.007161 0.378225 -0.036023
v -0.000000 0.374374 -0.034520
v -0.007161 0.378225 -0.036023
v -0.007161 0.385928 -0.039029
v -0.000000 0.389779 -0.040532
v 0.123205 0.271919 0.010025
v 0.123511 0.260347 0.010025
v 0.123664 0.254561 -0.000000
v 0.123511 0.260347 -0.010025
v 0.123205 0.271919 -0.010025
v 0.123053 0.277704 0.000000
v 0.150836 0.292489 0.010025
v 0.156593 0.282446 0.010025
v 0.159471 0.277425 0.000000
v 0.156593 0.282446 -0.010025
v 0.150836 0.292489 -0.010025
v 0.147957 0.297510 0.000000
v 0.183363 0.307864 0.010025
v 0.185871 0.296564 0.010025
v 0.187125 0.290913 0.000000
v 0.185871 0.296564 -0.010025
v 0.183363 0.307864 -0.010025
v 0.182109 0.313515 0.000000
v 0.220543 0.307339 0.010025
v 0.216440 0.296515 0.010025
v 0.214388 0.291103 0.000000
v 0.216440 0.296515 -0.010025
v 0.220543 0.307339 -0.010025
v 0.222594 0.312751 0.000000
v 0.247737 0.283749 0.010025
v 0.237760 0.277880 0.010025
v 0.232771 0.274945 0.000000
v 0.237760 0.277880 -0.010025
v 0.247737 0.283749 -0.010025
v 0.252726 0.286684 0.000000
v 0.258610 0.233183 0.010025
v 0.247036 0.233382 0.010025
v 0.241249 0.233482 0.000000
v 0.247036 0.233382 -0.010025
v 0.258610 0.233183 -0.010025
v 0.264397 0.233083 0.000000
v 0.246686 0.184575 0.010025
v 0.235638 0.188028 0.010025
v 0.230113 0.189755 0.000000
v 0.235638 0.188028 -0.010025
v 0.246686 0.184575 -0.010025
v 0.252210 0.182848 -0.000000
v 0.232467 0.147084 0.010025
v 0.221868 0.151738 0.010025
v 0.216568 0.154065 0.000000
v 0.221868 0.151738 -0.010025
v 0.232467 0.147084 -0.010025
v 0.237766 0.144757 -0.000000
v 0.215531 0.113413 0.010025
v 0.205966 0.119933 0.010025
v 0.201184 0.123194 0.000000
v 0.205966 0.119933 -0.010025
v 0.215531 0.113413 -0.010025
v 0.220313 0.110153 -0.000000
v 0.194706 0.090283 0.010025
v 0.187559 0.099389 0.010025
v 0.183986 0.103942 0.000000
v 0.187559 0.099389 -0.010025
v 0.194706 0.090283 -0.010025
v 0.198279 0.085730 -0.000000
v 0.166203 0.075004 0.010025
v 0.162520 0.085978 0.010025
v 0.160679 0.091465 -0.000000
v 0.162520 0.085978 -0.010025
v 0.166203 0.075004 -0.010025
v 0.168044 0.069516 -0.000000
v 0.124630 0.068398 0.010025
v 0.122836 0.079834 0.010025
v 0.121939 0.085552 -0.000000
v 0.122836 0.079834 -0.010025
v 0.124630 0.068398 -0.010025
v 0.125527 0.062681 -0.000000
v 0.010900 0.284638 0.087547
v -0.010900 0.284638 0.087547
v -0.010900 0.284638 0.083614
v 0.010900 0.284638 0.083614
v -0.006876 0.268208 0.083614
v -0.010900 0.272231 0.083614
v 0.010900 0.272231 0.083614
v 0.006876 0.268208 0.083614
v -0.006876 0.268208 0.087547
v -0.010900 0.272231 0.087547
v 0.010900 0.272231 0.087547
v 0.006876 0.268208 0.087547
v 0.010900 0.284638 -0.087547
v -0.010900 0.284638 -0.087547
v -0.010900 0.284638 -0.083614
v 0.010900 0.284638 -0.083614
v -0.006876 0.268208 -0.083614
v -0.010900 0.272231 -0.083614
v 0.010900 0.272231 -0.083614
v 0.006876 0.268208 -0.083614
v -0.006876 0.268208 -0.087547
v -0.010900 0.272231 -0.087547
v 0.010900 0.272231 -0.087547
v 0.006876 0.268208 -0.087547
vn 0.9575 -0.0000 -0.2886
vn -0.7027 -0.0000 0.7115
vn 0.7027 -0.0000 -0.7115
vn -0.4035 -0.0000 0.9150
vn 0.4035 -0.0000 -0.9150
vn -0.1301 -0.0000 0.9915
vn -0.1301 -0.0000 -0.9915
vn 0.1301 -0.0000 -0.9915
vn 0.1301 -0.0000 0.9915
vn -0.4035 -0.0000 -0.9150
vn 0.4035 -0.0000 0.9150
vn -0.7027 -0.0000 -0.7115
vn 0.7027 -0.0000 0.7115
vn -0.9575 -0.0000 -0.2886
vn 0.9575 -0.0000 0.2886
vn -0.9575 -0.0000 0.2886
vn -0.0000 -1.0000 -0.0000
vn -0.0000 1.0000 -0.0000
vn -0.4042 -0.0000 -0.9147
vn -0.4406 0.8878 0.1328
vn -0.4449 0.8857 -0.1331
vn -0.3239 0.8879 -0.3266
vn 0.0588 0.8921 -0.4481
vn -0.1838 0.8906 -0.4160
vn 0.1826 0.8918 -0.4140
vn -0.0590 0.8918 -0.4486
vn 0.3196 0.8906 -0.3236
vn 0.4406 0.8878 -0.1328
vn 0.4042 -0.0000 0.9147
vn -0.7042 -0.0000 -0.7100
vn 0.7042 -0.0000 0.7100
vn -0.9580 -0.0000 -0.2867
vn 0.9580 -0.0000 0.2867
vn -0.9580 -0.0000 0.2867
vn 0.9580 -0.0000 -0.2867
vn -0.7042 -0.0000 0.7100
vn 0.7042 -0.0000 -0.7100
vn -0.4042 -0.0000 0.9147
vn 0.4042 -0.0000 -0.9147
vn -0.1303 -0.0000 0.9915
vn -0.1303 -0.0000 -0.9915
vn 0.1303 -0.0000 -0.9915
vn 0.1303 -0.0000 0.9915
vn 0.4449 0.8857 0.1331
vn -0.3196 0.8906 0.3236
vn -0.1826 0.8918 0.4140
vn -0.0588 0.8921 0.4481
vn 0.0590 0.8918 0.4486
vn 0.1838 0.8906 0.4160
vn 1.0000 -0.0000 -0.0000
vn -0.1497 -0.2936 -0.9441
vn 0.4038 -0.0000 0.9148
vn -0.7034 -0.0000 -0.7108
vn 0.7034 -0.0000 0.7108
vn -0.9577 -0.0000 -0.2877
vn 0.9577 -0.0000 0.2877
vn -0.9577 -0.0000 0.2877
vn 0.9577 -0.0000 -0.2877
vn -0.7034 -0.0000 0.7108
vn 0.7034 -0.0000 -0.7108
vn -0.4038 -0.0000 0.9148
vn 0.4038 -0.0000 -0.9148
vn -0.1302 -0.0000 0.9915
vn -0.1302 -0.0000 -0.9915
vn 0.1302 -0.0000 -0.9915
vn 0.1302 -0.0000 0.9915
vn -0.4038 -0.0000 -0.9148
vn 0.3239 0.8879 0.3266
vn -0.7665 0.6423 -0.0000
vn -0.6752 -0.6373 0.3714
vn 0.1656 0.3694 0.9144
vn -0.6752 -0.6373 -0.3714
vn -0.3347 -0.2276 0.9144
vn -0.3347 -0.2276 -0.9144
vn 0.1656 0.3694 -0.9144
vn 0.5093 0.7763 -0.3714
vn 0.5093 0.7763 0.3714
vn -0.3348 -0.2276 -0.9144
vn -0.6685 -0.6877 -0.2831
vn -0.3551 -0.3597 0.8629
vn 0.6731 0.6394 0.3716
vn -0.3526 -0.3600 -0.8637
vn 0.3637 0.3584 -0.8598
vn -0.6690 -0.6873 0.2829
vn 0.6936 0.6661 -0.2742
vn 0.7665 -0.6423 -0.0000
vn -0.6784 -0.6340 0.3712
vn 0.2881 0.2693 0.9190
vn 0.6784 0.6340 -0.3713
vn -0.6784 -0.6340 -0.3712
vn -0.2881 -0.2693 0.9190
vn 0.6784 0.6340 0.3713
vn 0.2881 0.2693 -0.9190
vn -0.2881 -0.2693 -0.9190
vn 0.3832 -0.8640 -0.3267
vn 0.1751 -0.4068 0.8966
vn -0.3606 0.8724 0.3299
vn -0.1703 0.4072 -0.8973
vn 0.1751 -0.4068 -0.8966
vn 0.3832 -0.8640 0.3267
vn -0.1703 0.4072 0.8973
vn -0.3606 0.8724 -0.3299
vn 0.4960 -0.7957 0.3476
vn 0.9864 -0.0867 -0.1393
vn 0.4945 0.6487 -0.5785
vn -0.4945 0.6487 -0.5785
vn -0.9864 -0.0867 -0.1393
vn -0.4960 -0.7957 0.3476
vn 0.4808 -0.2812 0.8305
vn 0.9990 -0.0351 -0.0264
vn 0.4637 0.1835 -0.8668
vn -0.4637 0.1835 -0.8668
vn -0.9990 -0.0351 -0.0264
vn -0.4808 -0.2812 0.8305
vn 0.4896 0.1987 0.8490
vn 0.9995 -0.0300 -0.0001
vn 0.4820 -0.2619 -0.8361
vn -0.4820 -0.2620 -0.8361
vn -0.9995 -0.0300 -0.0001
vn -0.4896 0.1987 0.8490
vn 0.4941 0.5048 0.7079
vn 0.4942 -0.5038 -0.7085
vn -0.4942 -0.5038 -0.7085
vn -1.0000 -0.0000 -0.0000
vn -0.4941 0.5048 0.7079
vn 0.4928 0.7372 0.4623
vn 0.4928 -0.7374 -0.4619
vn -0.4928 -0.7374 -0.4619
vn -0.4928 0.7372 0.4623
vn 0.4931 0.8557 0.1568
vn 0.4935 -0.8547 -0.1610
vn -0.4935 -0.8547 -0.1610
vn -0.4931 0.8557 0.1568
vn 0.4960 -0.7957 -0.3476
vn 0.9864 -0.0868 0.1393
vn 0.4945 0.6487 0.5785
vn -0.4927 0.6490 0.5797
vn -0.9884 -0.1214 0.0912
vn -0.4539 -0.8076 -0.3764
vn 0.4804 -0.2815 -0.8307
vn 0.9984 -0.0562 0.0003
vn 0.4939 0.1600 0.8547
vn -0.4637 0.1835 0.8668
vn -0.9990 -0.0351 0.0264
vn -0.4808 -0.2812 -0.8305
vn 0.4915 0.1989 -0.8478
vn 0.9995 -0.0294 -0.0139
vn 0.4966 -0.2637 0.8269
vn -0.4820 -0.2620 0.8361
vn -0.9995 -0.0300 0.0001
vn -0.4896 0.1987 -0.8490
vn 0.4941 0.5048 -0.7079
vn 0.4942 -0.5038 0.7085
vn -0.4927 -0.5046 0.7089
vn -0.4928 0.5054 -0.7083
vn 0.4934 0.7370 -0.4620
vn 0.4934 -0.7372 0.4616
vn -0.4928 -0.7374 0.4619
vn -0.4928 0.7372 -0.4623
vn 0.4873 0.8587 -0.1587
vn 0.4870 -0.8580 0.1634
vn -0.4935 -0.8547 0.1610
vn -0.4931 0.8557 -0.1568
vn -0.5400 0.7254 0.4269
vn -0.0000 -0.0000 1.0000
vn 0.4824 -0.7555 0.4434
vn 0.4824 -0.7555 -0.4434
vn -0.0000 -0.0000 -1.0000
vn -0.5400 0.7254 -0.4269
vn -0.3704 0.7836 0.4988
vn 0.3799 -0.7788 0.4992
vn 0.3799 -0.7788 -0.4992
vn -0.3704 0.7836 -0.4988
vn 0.0123 0.8717 0.4898
vn 0.0060 -0.8708 0.4916
vn 0.0060 -0.8708 -0.4916
vn 0.0123 0.8717 -0.4898
vn 0.5752 0.6648 0.4766
vn -0.5788 -0.6622 0.4759
vn -0.5788 -0.6622 -0.4759
vn 0.5752 0.6648 -0.4766
vn 0.8567 0.1865 0.4809
vn -0.8589 -0.1791 0.4798
vn -0.8589 -0.1791 -0.4798
vn 0.8567 0.1865 -0.4809
vn 0.8467 -0.2054 0.4908
vn -0.8454 0.2125 0.4901
vn -0.8454 0.2125 -0.4901
vn 0.8467 -0.2054 -0.4908
vn 0.8101 -0.3072 0.4993
vn -0.8101 0.3074 0.4993
vn -0.8101 0.3074 -0.4993
vn 0.8101 -0.3072 -0.4993
vn 0.7739 -0.3893 0.4995
vn -0.7753 0.3864 0.4996
vn -0.7753 0.3864 -0.4996
vn 0.7739 -0.3893 -0.4995
vn 0.6451 -0.5808 0.4966
vn -0.6472 0.5782 0.4968
vn -0.6472 0.5782 -0.4968
vn 0.6451 -0.5808 -0.4966
vn 0.4108 -0.7661 0.4944
vn -0.4104 0.7663 0.4943
vn -0.4104 0.7663 -0.4943
vn 0.4108 -0.7661 -0.4944
vn 0.1379 -0.8579 0.4949
vn -0.1330 0.8589 0.4946
vn -0.1330 0.8589 -0.4946
vn 0.1379 -0.8579 -0.4949
vn 0.3611 0.3588 0.8607
vn 0.7071 -0.7071 -0.0000
vn -0.7071 -0.7071 -0.0000
vn -0.4448 0.8857 0.1331
vn -0.4406 0.8878 -0.1328
vn -0.3196 0.8906 -0.3236
vn 0.0590 0.8918 -0.4486
vn -0.1826 0.8918 -0.4140
vn 0.1838 0.8906 -0.4160
vn -0.0588 0.8921 -0.4481
vn 0.3239 0.8879 -0.3266
vn 0.4449 0.8857 -0.1331
vn 0.4406 0.8878 0.1328
vn -0.3239 0.8879 0.3266
vn -0.1838 0.8906 0.4160
vn -0.0590 0.8918 0.4486
vn 0.0588 0.8921 0.4481
vn 0.1826 0.8918 0.4140
vn -0.1497 -0.2936 0.9441
vn 0.3196 0.8906 0.3236
vn -0.3347 -0.2277 0.9144
vn -0.6503 -0.6620 -0.3726
vn -0.2804 -0.2759 0.9194
vn 0.6931 0.6666 0.2744
vn -0.2787 -0.2774 -0.9194
vn 0.2848 0.2721 -0.9191
vn -0.6510 -0.6614 0.3726
vn 0.6738 0.6387 -0.3715
vn -0.7664 0.6423 -0.0000
vn 0.3786 -0.8428 -0.3827
vn 0.1552 -0.3498 0.9239
vn -0.3565 0.8524 0.3826
vn -0.1513 0.3515 -0.9239
vn 0.1552 -0.3498 -0.9239
vn 0.3786 -0.8428 0.3827
vn -0.1513 0.3515 0.9239
vn -0.3565 0.8524 -0.3826
vn 0.4539 -0.8076 0.3764
vn 0.9884 -0.1214 -0.0912
vn 0.4927 0.6490 -0.5797
vn -0.4927 0.6490 -0.5797
vn -0.9884 -0.1214 -0.0912
vn -0.4539 -0.8076 0.3764
vn 0.4804 -0.2815 0.8307
vn 0.9984 -0.0562 -0.0003
vn 0.4939 0.1600 -0.8547
vn -0.4939 0.1600 -0.8547
vn -0.9984 -0.0562 -0.0003
vn -0.4804 -0.2815 0.8307
vn 0.4915 0.1989 0.8478
vn 0.9995 -0.0294 0.0139
vn 0.4966 -0.2637 -0.8269
vn -0.4966 -0.2637 -0.8269
vn -0.9995 -0.0294 0.0139
vn -0.4915 0.1989 0.8478
vn 0.4928 0.5054 0.7083
vn 0.4927 -0.5046 -0.7089
vn -0.4927 -0.5046 -0.7089
vn -0.4928 0.5054 0.7083
vn 0.4934 0.7370 0.4620
vn 0.4934 -0.7372 -0.4616
vn -0.4934 -0.7372 -0.4616
vn -0.4934 0.7370 0.4620
vn 0.4873 0.8587 0.1587
vn 0.4870 -0.8580 -0.1634
vn -0.4870 -0.8580 -0.1634
vn -0.4873 0.8587 0.1587
vn 0.4539 -0.8076 -0.3764
vn 0.9884 -0.1214 0.0912
vn 0.4927 0.6490 0.5797
vn -0.4945 0.6487 0.5785
vn -0.9864 -0.0867 0.1393
vn -0.4960 -0.7957 -0.3476
vn 0.4808 -0.2812 -0.8305
vn 0.9990 -0.0351 0.0264
vn 0.4637 0.1835 0.8668
vn -0.4939 0.1600 0.8547
vn -0.9984 -0.0562 0.0003
vn -0.4804 -0.2815 -0.8307
vn 0.4896 0.1987 -0.8490
vn 0.9995 -0.0300 0.0001
vn 0.4820 -0.2619 0.8361
vn -0.4966 -0.2637 0.8269
vn -0.9995 -0.0294 -0.0139
vn -0.4915 0.1989 -0.8478
vn 0.4928 0.5054 -0.7083
vn 0.4927 -0.5046 0.7089
vn -0.4942 -0.5038 0.7085
vn -0.4941 0.5048 -0.7079
vn 0.4928 0.7372 -0.4623
vn 0.4928 -0.7374 0.4619
vn -0.4934 -0.7372 0.4616
vn -0.4934 0.7370 -0.4620
vn 0.4931 0.8557 -0.1568
vn 0.4935 -0.8547 0.1610
vn -0.4870 -0.8580 0.1634
vn -0.4873 0.8587 -0.1587
vn -0.5406 0.6797 0.4957
vn 0.4813 -0.7205 0.4991
vn 0.4813 -0.7205 -0.4991
vn -0.5406 0.6797 -0.4957
vn -0.3697 0.7889 0.4909
vn 0.3786 -0.7852 0.4899
vn 0.3786 -0.7852 -0.4899
vn -0.3697 0.7889 -0.4909
vn 0.0166 0.8784 0.4776
vn -0.0014 -0.8798 0.4753
vn -0.0014 -0.8798 -0.4753
vn 0.0166 0.8784 -0.4776
vn 0.5748 0.6627 0.4800
vn -0.5788 -0.6586 0.4808
vn -0.5788 -0.6586 -0.4808
vn 0.5748 0.6627 -0.4800
vn 0.8522 0.1832 0.4901
vn -0.8535 -0.1745 0.4910
vn -0.8535 -0.1745 -0.4910
vn 0.8522 0.1832 -0.4901
vn 0.8415 -0.2064 0.4993
vn -0.8395 0.2138 0.4995
vn -0.8395 0.2138 -0.4995
vn 0.8415 -0.2064 -0.4993
vn 0.8100 -0.3072 0.4995
vn -0.8099 0.3074 0.4995
vn -0.8099 0.3074 -0.4995
vn 0.8100 -0.3072 -0.4995
vn 0.7749 -0.3908 0.4968
vn -0.7764 0.3882 0.4966
vn -0.7764 0.3882 -0.4966
vn 0.7749 -0.3908 -0.4968
vn 0.6454 -0.5822 0.4945
vn -0.6475 0.5801 0.4943
vn -0.6475 0.5801 -0.4943
vn 0.6454 -0.5822 -0.4945
vn 0.4106 -0.7660 0.4947
vn -0.4102 0.7662 0.4947
vn -0.4102 0.7662 -0.4947
vn 0.4106 -0.7660 -0.4947
vn 0.1359 -0.8553 0.5000
vn -0.1307 0.8561 0.5000
vn -0.1307 0.8561 -0.5000
vn 0.1359 -0.8553 -0.5000
vn 0.2831 0.2736 0.9192
vt 0.216074 0.065132
vt 0.216053 0.024254
vt 0.216074 0.024254
vt 0.216523 0.024254
vt 0.216582 0.065132
vt 0.216582 0.024254
vt 0.216134 0.065132
vt 0.216134 0.024254
vt 0.216433 0.065132
vt 0.216433 0.024254
vt 0.216223 0.065132
vt 0.216223 0.024254
vt 0.216328 0.065132
vt 0.216328 0.024254
vt 0.216328 0.024254
vt 0.216433 0.024254
vt 0.216223 0.024254
vt 0.216523 0.065132
vt 0.216603 0.065132
vt 0.216603 0.024254
vt 0.216053 0.065132
vt 0.216432 0.065132
vt 0.216520 0.065132
vt 0.216579 0.065132
vt 0.216599 0.065132
vt 0.216224 0.065132
vt 0.216136 0.065132
vt 0.216078 0.065132
vt 0.216057 0.065132
vt 0.213530 0.100379
vt 0.213433 0.130350
vt 0.213433 0.100379
vt 0.213032 0.100379
vt 0.213042 0.100379
vt 0.213019 0.100379
vt 0.213605 0.135702
vt 0.213595 0.130350
vt 0.213584 0.135702
vt 0.213584 0.100379
vt 0.213595 0.100379
vt 0.213619 0.130350
vt 0.213530 0.130350
vt 0.213054 0.100379
vt 0.213108 0.100379
vt 0.213209 0.135702
vt 0.213319 0.130350
vt 0.213319 0.135702
vt 0.213522 0.135702
vt 0.213522 0.100379
vt 0.213115 0.135702
vt 0.213205 0.130350
vt 0.213429 0.135702
vt 0.213115 0.100379
vt 0.213205 0.100379
vt 0.213054 0.135702
vt 0.213108 0.130350
vt 0.213429 0.100379
vt 0.213319 0.100379
vt 0.213032 0.135702
vt 0.213042 0.130350
vt 0.201741 0.140178
vt 0.201851 0.159768
vt 0.201741 0.159768
vt 0.201944 0.140178
vt 0.202006 0.159768
vt 0.201944 0.159768
vt 0.201476 0.140178
vt 0.201538 0.159768
vt 0.201538 0.140178
vt 0.201741 0.132646
vt 0.201631 0.138881
vt 0.201631 0.132646
vt 0.201851 0.138881
vt 0.201851 0.132646
vt 0.201538 0.138881
vt 0.201538 0.132646
vt 0.201944 0.138881
vt 0.201944 0.132646
vt 0.201476 0.138881
vt 0.201476 0.132646
vt 0.202006 0.138881
vt 0.202006 0.132646
vt 0.201455 0.138881
vt 0.201455 0.132646
vt 0.202027 0.138881
vt 0.202027 0.132646
vt 0.213619 0.100379
vt 0.213019 0.130350
vt 0.213605 0.100379
vt 0.213209 0.100379
vt 0.213319 0.113134
vt 0.213209 0.113134
vt 0.213429 0.113134
vt 0.213115 0.113134
vt 0.213522 0.113134
vt 0.213054 0.113134
vt 0.213584 0.113134
vt 0.213032 0.113134
vt 0.213605 0.113134
vt 0.201846 0.161709
vt 0.201741 0.161709
vt 0.201851 0.161709
vt 0.201934 0.161709
vt 0.201944 0.161709
vt 0.201989 0.161709
vt 0.202006 0.161709
vt 0.202008 0.161709
vt 0.202027 0.161709
vt 0.201636 0.161709
vt 0.201631 0.161709
vt 0.201548 0.161709
vt 0.201538 0.161709
vt 0.201493 0.161709
vt 0.201476 0.161709
vt 0.201474 0.161709
vt 0.201455 0.161709
vt 0.201741 0.138881
vt 0.201636 0.160615
vt 0.201548 0.160615
vt 0.201474 0.160615
vt 0.201493 0.160615
vt 0.201493 0.160615
vt 0.201548 0.160615
vt 0.201741 0.160615
vt 0.201741 0.160615
vt 0.201636 0.160615
vt 0.201634 0.160615
vt 0.201634 0.160615
vt 0.201545 0.160615
vt 0.201488 0.160615
vt 0.201488 0.160615
vt 0.201470 0.160615
vt 0.201545 0.160615
vt 0.215066 0.068040
vt 0.215101 0.023454
vt 0.215101 0.068040
vt 0.214823 0.068040
vt 0.214788 0.023454
vt 0.214788 0.068040
vt 0.215011 0.068040
vt 0.215066 0.023454
vt 0.214879 0.068040
vt 0.214823 0.023454
vt 0.214945 0.068040
vt 0.215011 0.023454
vt 0.215011 0.068040
vt 0.214945 0.023454
vt 0.214945 0.068040
vt 0.214879 0.023454
vt 0.214879 0.068040
vt 0.214823 0.068040
vt 0.215066 0.068040
vt 0.214788 0.068040
vt 0.215113 0.068040
vt 0.215101 0.068040
vt 0.214777 0.068040
vt 0.215113 0.023454
vt 0.214777 0.023454
vt 0.201631 0.140178
vt 0.201851 0.140178
vt 0.202006 0.140178
vt 0.202027 0.159768
vt 0.201455 0.140178
vt 0.201476 0.159768
vt 0.202027 0.140178
vt 0.201455 0.159768
vt 0.201538 0.085941
vt 0.201631 0.123817
vt 0.201631 0.085941
vt 0.201631 0.159768
vt 0.202006 0.125114
vt 0.201944 0.131349
vt 0.201944 0.125114
vt 0.201538 0.125114
vt 0.201631 0.131349
vt 0.201631 0.125114
vt 0.201851 0.125114
vt 0.201741 0.131349
vt 0.201741 0.125114
vt 0.201631 0.125114
vt 0.201741 0.125114
vt 0.201851 0.131349
vt 0.201851 0.125114
vt 0.201538 0.131349
vt 0.201538 0.125114
vt 0.201944 0.125114
vt 0.201476 0.131349
vt 0.201476 0.125114
vt 0.202006 0.131349
vt 0.202006 0.125114
vt 0.201455 0.131349
vt 0.201455 0.125114
vt 0.202027 0.131349
vt 0.202027 0.125114
vt 0.201476 0.125114
vt 0.201944 0.085941
vt 0.201851 0.123817
vt 0.201851 0.085941
vt 0.201741 0.123817
vt 0.201741 0.085941
vt 0.201476 0.085941
vt 0.201538 0.123817
vt 0.216224 0.050491
vt 0.216136 0.029341
vt 0.216136 0.050491
vt 0.201944 0.123817
vt 0.201476 0.123817
vt 0.202006 0.123817
vt 0.202006 0.085941
vt 0.201455 0.123817
vt 0.201455 0.085941
vt 0.202027 0.085941
vt 0.202027 0.123817
vt 0.216136 0.047450
vt 0.216076 0.047450
vt 0.216136 0.047450
vt 0.216432 0.056106
vt 0.216521 0.056106
vt 0.216520 0.056106
vt 0.216579 0.050491
vt 0.216600 0.050491
vt 0.216580 0.050491
vt 0.216328 0.050491
vt 0.216224 0.050491
vt 0.216432 0.026300
vt 0.216521 0.026300
vt 0.216520 0.026300
vt 0.216580 0.056106
vt 0.216328 0.029341
vt 0.216224 0.029341
vt 0.216224 0.029341
vt 0.216224 0.026300
vt 0.216136 0.026300
vt 0.216224 0.026300
vt 0.216136 0.034956
vt 0.216076 0.034956
vt 0.216078 0.034956
vt 0.216078 0.029341
vt 0.216056 0.029341
vt 0.216076 0.029341
vt 0.216432 0.047451
vt 0.216521 0.047451
vt 0.216432 0.047451
vt 0.216224 0.047451
vt 0.216136 0.047451
vt 0.216136 0.047451
vt 0.216078 0.050491
vt 0.216056 0.050491
vt 0.216057 0.050491
vt 0.216432 0.029341
vt 0.216136 0.026300
vt 0.216580 0.026300
vt 0.216136 0.056106
vt 0.216076 0.056106
vt 0.216136 0.056106
vt 0.216520 0.047450
vt 0.216580 0.047450
vt 0.216579 0.047450
vt 0.216432 0.034956
vt 0.216521 0.034956
vt 0.216520 0.034956
vt 0.216579 0.029341
vt 0.216600 0.029341
vt 0.216580 0.029341
vt 0.216432 0.050491
vt 0.216432 0.050491
vt 0.216224 0.047450
vt 0.216224 0.047450
vt 0.216076 0.026300
vt 0.216599 0.050491
vt 0.216224 0.034956
vt 0.216136 0.034956
vt 0.216224 0.034956
vt 0.216328 0.026300
vt 0.216432 0.026300
vt 0.216432 0.056106
vt 0.216224 0.056106
vt 0.216432 0.029341
vt 0.216076 0.047451
vt 0.216078 0.047451
vt 0.216136 0.029341
vt 0.216580 0.034956
vt 0.216328 0.047451
vt 0.216579 0.026300
vt 0.216600 0.026300
vt 0.216136 0.050491
vt 0.216076 0.050491
vt 0.216579 0.056106
vt 0.216224 0.056106
vt 0.216328 0.047450
vt 0.216432 0.047450
vt 0.216432 0.047450
vt 0.216600 0.047450
vt 0.216599 0.047450
vt 0.216328 0.034956
vt 0.216432 0.034956
vt 0.216520 0.029341
vt 0.216521 0.029341
vt 0.216521 0.050491
vt 0.216521 0.047450
vt 0.216224 0.047451
vt 0.216580 0.047451
vt 0.216056 0.047450
vt 0.216056 0.026300
vt 0.216328 0.056106
vt 0.216056 0.056106
vt 0.216600 0.056106
vt 0.216056 0.034956
vt 0.216600 0.034956
vt 0.216599 0.029341
vt 0.216579 0.034956
vt 0.216520 0.050491
vt 0.216078 0.056106
vt 0.216078 0.026300
vt 0.216520 0.047451
vt 0.216057 0.029341
vt 0.216057 0.034956
vt 0.216078 0.047450
vt 0.216599 0.034956
vt 0.216057 0.056106
vt 0.216057 0.026300
vt 0.216579 0.047451
vt 0.216599 0.056106
vt 0.216599 0.026300
vt 0.216057 0.047450
vt 0.472641 0.633256
vt 0.472641 0.633934
vt 0.472643 0.629303
vt 0.472637 0.642701
vt 0.472636 0.643379
vt 0.472638 0.638748
vt 0.472636 0.643775
vt 0.472636 0.644453
vt 0.472638 0.639822
vt 0.472641 0.633587
vt 0.472640 0.634265
vt 0.472643 0.629633
vt 0.472646 0.622011
vt 0.472646 0.622689
vt 0.472648 0.618057
vt 0.472647 0.620665
vt 0.472646 0.621344
vt 0.472648 0.616712
vt 0.472641 0.632040
vt 0.472641 0.632718
vt 0.472643 0.628087
vt 0.472649 0.628497
vt 0.472642 0.631619
vt 0.472646 0.634572
vt 0.472642 0.629981
vt 0.472640 0.648301
vt 0.472637 0.641064
vt 0.472647 0.620373
vt 0.472649 0.627610
vt 0.472639 0.649188
vt 0.472650 0.624364
vt 0.472650 0.625468
vt 0.472651 0.622439
vt 0.472647 0.618736
vt 0.472642 0.644017
vt 0.472638 0.639426
vt 0.472651 0.623326
vt 0.472642 0.643129
vt 0.472650 0.626265
vt 0.472647 0.619028
vt 0.472649 0.627152
vt 0.472639 0.649374
vt 0.472637 0.642137
vt 0.472639 0.650261
vt 0.472652 0.621981
vt 0.472648 0.617390
vt 0.472652 0.621094
vt 0.472641 0.645090
vt 0.472638 0.640500
vt 0.472642 0.644203
vt 0.472644 0.637639
vt 0.472642 0.630403
vt 0.472644 0.638527
vt 0.472644 0.639186
vt 0.472641 0.631949
vt 0.472643 0.640073
vt 0.472646 0.633355
vt 0.472643 0.628765
vt 0.472644 0.638856
vt 0.472647 0.632468
vt 0.472644 0.639743
vt 0.472646 0.634902
vt 0.472642 0.630312
vt 0.472646 0.634015
vt 0.472646 0.634902
vt 0.472646 0.633684
vt 0.202512 0.154972
vt 0.202012 0.098960
vt 0.202012 0.097252
vt 0.202012 0.103084
vt 0.202503 0.156254
vt 0.202459 0.162440
vt 0.202012 0.108916
vt 0.202450 0.163721
vt 0.202503 0.156254
vt 0.202481 0.159347
vt 0.202012 0.107208
vt 0.458315 0.702139
vt 0.458364 0.666810
vt 0.458344 0.681735
vt 0.458293 0.717769
vt 0.458271 0.733398
vt 0.458222 0.768727
vt 0.458243 0.753802
vt 0.458324 0.695665
vt 0.458262 0.739872
vt 0.458393 0.685190
vt 0.458322 0.736148
vt 0.458272 0.772182
vt 0.458251 0.787107
vt 0.458372 0.700115
vt 0.458322 0.736149
vt 0.458277 0.768666
vt 0.458280 0.765922
vt 0.458254 0.784490
vt 0.458274 0.770305
vt 0.458370 0.701992
vt 0.458389 0.687807
vt 0.458313 0.742622
vt 0.458310 0.744890
vt 0.458331 0.729402
vt 0.458328 0.731670
vt 0.458374 0.698638
vt 0.458369 0.702078
vt 0.210331 0.118494
vt 0.210560 0.107201
vt 0.210331 0.119255
vt 0.210567 0.109040
vt 0.210331 0.121094
vt 0.210577 0.111641
vt 0.210331 0.122933
vt 0.210331 0.123695
vt 0.210574 0.110879
vt 0.201729 0.159122
vt 0.201741 0.156894
vt 0.201733 0.157346
vt 0.201729 0.160125
vt 0.201733 0.158250
vt 0.201741 0.160627
vt 0.201741 0.158702
vt 0.201749 0.158250
vt 0.201749 0.157346
vt 0.201753 0.160125
vt 0.201753 0.159122
vt 0.201741 0.163476
vt 0.201741 0.158620
vt 0.201727 0.163480
vt 0.201727 0.163490
vt 0.201755 0.163490
vt 0.201755 0.163480
vt 0.201741 0.173219
vt 0.201725 0.172746
vt 0.201741 0.163494
vt 0.201725 0.171800
vt 0.201757 0.171800
vt 0.201757 0.172746
vt 0.201725 0.181054
vt 0.201725 0.179445
vt 0.201741 0.178640
vt 0.201741 0.171327
vt 0.201757 0.179445
vt 0.201757 0.181054
vt 0.201741 0.187638
vt 0.201741 0.181858
vt 0.201725 0.186608
vt 0.201725 0.184549
vt 0.201757 0.184549
vt 0.201757 0.186608
vt 0.201741 0.189623
vt 0.201725 0.188536
vt 0.201741 0.183519
vt 0.201725 0.186363
vt 0.201757 0.186363
vt 0.201757 0.188536
vt 0.201741 0.156893
vt 0.201741 0.160627
vt 0.201741 0.163476
vt 0.201741 0.178640
vt 0.201741 0.185277
vt 0.201402 0.161628
vt 0.201464 0.157676
vt 0.201464 0.156129
vt 0.201389 0.158943
vt 0.201463 0.153035
vt 0.201382 0.157601
vt 0.201463 0.151488
vt 0.201328 0.165739
vt 0.201408 0.162970
vt 0.201323 0.162717
vt 0.201320 0.161207
vt 0.201245 0.165598
vt 0.201331 0.167249
vt 0.201254 0.162704
vt 0.201259 0.161257
vt 0.201172 0.160076
vt 0.201240 0.167045
vt 0.201184 0.159291
vt 0.201206 0.157722
vt 0.201146 0.145746
vt 0.201159 0.145773
vt 0.201217 0.156938
vt 0.201185 0.145826
vt 0.201173 0.132316
vt 0.201186 0.132778
vt 0.201198 0.145853
vt 0.201211 0.133701
vt 0.201206 0.122133
vt 0.201218 0.122755
vt 0.201223 0.134163
vt 0.201242 0.123999
vt 0.201256 0.113753
vt 0.201278 0.115497
vt 0.201288 0.116368
vt 0.201254 0.124621
vt 0.201303 0.107570
vt 0.201245 0.112882
vt 0.201319 0.110004
vt 0.201327 0.111222
vt 0.201363 0.102018
vt 0.201295 0.106353
vt 0.201367 0.103485
vt 0.201375 0.106419
vt 0.201459 0.100191
vt 0.201461 0.101719
vt 0.201379 0.107886
vt 0.201465 0.104776
vt 0.201717 0.075729
vt 0.201766 0.075729
vt 0.201757 0.071336
vt 0.201726 0.071336
vt 0.201717 0.072412
vt 0.201766 0.072412
vt 0.472645 0.636714
vt 0.472641 0.646159
vt 0.472651 0.624123
vt 0.472640 0.647232
vt 0.472645 0.635497
vt 0.472645 0.637044
vt 0.458284 0.763191
vt 0.458273 0.770935
vt 0.458288 0.760446
vt 0.458277 0.768190
vt 0.458318 0.738668
vt 0.458296 0.754971
vt 0.458315 0.740936
vt 0.458326 0.733192
vt 0.458299 0.752703
vt 0.458292 0.757716
vt 0.458314 0.741777
vt 0.458311 0.744045
vt 0.458295 0.755447
vt 0.458322 0.736301
vt 0.458321 0.737146
vt 0.458334 0.727717
vt 0.458359 0.709590
vt 0.458367 0.704114
vt 0.458337 0.725449
vt 0.458356 0.711858
vt 0.458329 0.730826
vt 0.458366 0.704731
vt 0.458362 0.707553
vt 0.458333 0.728557
vt 0.458354 0.713029
vt 0.458328 0.731671
vt 0.458351 0.715297
vt 0.458377 0.696371
vt 0.458373 0.699809
vt 0.210557 0.106440
vt 0.201467 0.106305
s 0
usemtl Texture_Map
f 46/1/1 13/2/1 14/3/1
f 7/4/2 38/5/2 6/6/2
f 47/7/3 14/3/3 15/8/3
f 40/9/4 7/4/4 8/10/4
f 48/11/5 15/8/5 16/12/5
f 41/13/6 8/10/6 9/14/6
f 33/9/7 1/15/7 2/16/7
f 34/13/8 16/12/8 1/15/8
f 42/11/9 9/14/9 10/17/9
f 35/18/10 2/16/10 3/4/10
f 43/7/11 10/17/11 11/8/11
f 36/5/12 3/4/12 4/6/12
f 44/1/13 11/8/13 12/3/13
f 37/19/14 4/6/14 5/20/14
f 45/21/15 12/3/15 13/2/15
f 38/5/16 5/20/16 6/6/16
f 3/4/17 6/6/17 4/6/17
f 17/13/18 33/9/18 18/22/18
f 18/22/18 35/18/18 19/23/18
f 19/23/18 36/5/18 20/24/18
f 20/24/18 37/19/18 21/25/18
f 22/24/18 37/19/18 38/5/18
f 23/23/18 38/5/18 39/18/18
f 24/22/18 39/18/18 40/9/18
f 25/13/18 40/9/18 41/13/18
f 25/13/18 42/11/18 26/26/18
f 26/26/18 43/7/18 27/27/18
f 27/27/18 44/1/18 28/28/18
f 28/28/18 45/21/18 29/29/18
f 30/28/18 45/21/18 46/1/18
f 31/27/18 46/1/18 47/7/18
f 32/26/18 47/7/18 48/11/18
f 17/13/18 48/11/18 34/13/18
f 111/30/19 81/31/19 109/32/19
f 71/33/17 103/34/17 101/35/17
f 53/36/20 86/37/20 54/38/20
f 72/39/17 104/30/17 102/40/17
f 53/36/21 84/37/21 85/41/21
f 52/38/22 83/42/22 84/37/22
f 73/43/17 105/44/17 103/34/17
f 64/45/23 82/46/23 50/47/23
f 51/48/24 81/31/24 83/42/24
f 74/49/17 106/32/17 104/30/17
f 63/50/25 96/51/25 64/45/25
f 49/52/26 82/46/26 81/31/26
f 75/53/17 107/54/17 105/44/17
f 62/55/27 95/56/27 63/50/27
f 76/57/17 108/58/17 106/32/17
f 61/59/28 94/60/28 62/55/28
f 236/61/7 79/62/7 80/63/7
f 234/64/12 67/65/12 68/66/12
f 243/67/13 65/68/13 239/69/13
f 327/70/8 258/71/8 316/72/8
f 318/70/6 256/73/6 314/74/6
f 316/72/5 254/75/5 312/76/5
f 314/74/4 252/77/4 310/78/4
f 312/76/3 250/79/3 308/80/3
f 310/78/2 248/81/2 306/82/2
f 308/80/1 246/83/1 304/84/1
f 306/82/16 244/85/16 302/86/16
f 304/84/15 242/79/15 300/80/15
f 302/86/14 240/81/14 298/82/14
f 300/80/13 238/75/13 296/76/13
f 325/78/10 262/73/10 320/74/10
f 97/44/29 90/51/29 110/54/29
f 111/30/30 84/37/30 83/42/30
f 99/34/31 91/56/31 97/44/31
f 98/40/32 85/41/32 84/37/32
f 101/35/33 92/60/33 99/34/33
f 100/87/34 86/37/34 85/41/34
f 103/34/35 93/88/35 101/35/35
f 102/40/36 87/42/36 86/37/36
f 105/44/37 94/60/37 103/34/37
f 106/32/38 87/42/38 104/30/38
f 107/54/39 95/56/39 105/44/39
f 108/58/40 88/31/40 106/32/40
f 109/32/41 82/46/41 112/58/41
f 112/58/42 96/51/42 107/54/42
f 110/54/43 89/46/43 108/58/43
f 70/89/17 102/40/17 100/87/17
f 61/59/44 92/60/44 93/88/44
f 71/33/17 99/34/17 69/43/17
f 54/38/45 87/42/45 55/48/45
f 70/89/17 98/40/17 67/39/17
f 55/48/46 88/31/46 56/52/46
f 69/43/17 97/44/17 65/53/17
f 68/49/17 109/32/17 79/57/17
f 56/52/47 89/46/47 57/47/47
f 67/39/17 111/30/17 68/49/17
f 66/90/17 108/58/17 78/58/17
f 58/45/48 89/46/48 90/51/48
f 65/53/17 110/54/17 66/90/17
f 77/90/17 112/58/17 107/54/17
f 59/50/49 90/51/49 91/56/49
f 79/57/17 112/58/17 80/58/17
f 49/52/9 130/91/9 50/47/9
f 50/47/6 144/92/6 64/45/6
f 58/45/7 137/91/7 57/47/7
f 51/48/11 129/93/11 49/52/11
f 58/45/10 139/94/10 138/92/10
f 52/38/13 131/95/13 51/48/13
f 59/50/12 140/96/12 139/94/12
f 53/36/15 132/97/15 52/38/15
f 60/55/14 141/98/14 140/96/14
f 54/38/1 133/99/1 53/36/1
f 61/59/16 142/96/16 141/98/16
f 55/48/3 134/97/3 54/38/3
f 62/55/2 143/94/2 142/96/2
f 56/52/5 135/95/5 55/48/5
f 64/45/4 143/94/4 63/50/4
f 113/100/18 130/101/18 129/102/18
f 115/103/18 129/102/18 131/104/18
f 116/105/18 131/104/18 132/106/18
f 117/107/18 132/106/18 133/108/18
f 117/107/18 134/106/18 118/105/18
f 118/105/18 135/104/18 119/103/18
f 119/103/18 136/102/18 120/100/18
f 120/100/18 137/101/18 121/101/18
f 122/109/18 137/101/18 138/110/18
f 123/111/18 138/110/18 139/112/18
f 124/113/18 139/112/18 140/114/18
f 125/115/18 140/114/18 141/116/18
f 125/115/18 142/114/18 126/113/18
f 126/113/18 143/112/18 127/111/18
f 127/111/18 144/110/18 128/109/18
f 128/109/18 130/101/18 114/101/18
f 323/72/9 260/117/9 318/70/9
f 123/111/10 153/118/10 122/109/10
f 124/113/12 154/119/12 123/111/12
f 124/113/14 147/120/14 155/121/14
f 125/115/16 156/122/16 147/120/16
f 127/111/2 156/122/2 126/113/2
f 128/109/4 148/123/4 127/111/4
f 158/124/50 121/101/50 152/125/50
f 114/101/6 149/126/6 128/109/6
f 121/101/51 153/118/51 152/125/51
f 149/126/17 158/124/17 167/127/17
f 152/125/17 153/118/17 161/128/17
f 154/119/17 161/128/17 153/118/17
f 155/121/17 162/129/17 154/119/17
f 147/120/17 163/130/17 155/121/17
f 147/120/17 165/131/17 164/132/17
f 156/122/17 166/133/17 165/131/17
f 148/123/17 167/127/17 166/133/17
f 146/134/3 173/135/3 160/136/3
f 166/137/2 181/138/2 165/139/2
f 151/140/5 174/141/5 146/134/5
f 167/142/4 182/143/4 166/137/4
f 152/144/8 175/145/8 151/140/8
f 157/146/9 169/147/9 158/148/9
f 158/148/6 183/149/6 167/142/6
f 161/150/7 176/147/7 152/144/7
f 157/146/11 170/141/11 168/145/11
f 162/151/10 177/149/10 161/150/10
f 150/152/13 171/135/13 170/141/13
f 163/153/12 178/143/12 162/151/12
f 145/154/15 171/135/15 159/155/15
f 164/156/14 179/138/14 163/153/14
f 160/136/1 172/157/1 145/154/1
f 165/139/16 180/158/16 164/156/16
f 183/149/18 169/147/18 176/147/18
f 114/101/18 113/100/18 120/100/18
f 160/136/17 145/154/17 159/155/17
f 232/159/9 78/63/9 261/61/9
f 234/64/10 79/62/10 263/160/10
f 241/161/14 70/162/14 67/65/14
f 247/163/15 69/164/15 243/67/15
f 245/165/16 72/65/16 70/162/16
f 251/67/1 71/166/1 247/163/1
f 249/161/2 74/66/2 72/65/2
f 255/69/3 73/164/3 251/67/3
f 253/64/4 76/62/4 74/66/4
f 259/159/5 75/68/5 255/69/5
f 261/61/6 76/62/6 257/160/6
f 27/167/11 264/168/11 26/169/11
f 236/61/8 77/170/8 259/159/8
f 320/74/7 237/117/7 327/70/7
f 296/76/11 233/71/11 323/72/11
f 298/82/12 235/77/12 325/78/12
f 272/171/12 324/172/12 267/173/12
f 270/174/11 322/175/11 265/176/11
f 294/177/7 326/178/7 269/179/7
f 269/179/8 317/175/8 290/180/8
f 292/181/6 315/182/6 288/183/6
f 290/180/5 313/184/5 286/185/5
f 288/183/4 311/172/4 284/186/4
f 286/185/3 309/187/3 282/188/3
f 284/186/2 307/189/2 280/190/2
f 282/188/1 305/191/1 278/192/1
f 280/190/16 303/193/16 276/194/16
f 278/192/15 301/187/15 274/195/15
f 276/194/14 299/189/14 272/171/14
f 274/195/13 297/184/13 270/174/13
f 267/173/10 321/182/10 294/177/10
f 265/176/9 319/178/9 292/181/9
f 19/196/10 295/197/10 18/198/10
f 26/169/9 293/199/9 25/200/9
f 17/200/8 291/168/8 32/169/8
f 28/201/13 271/202/13 27/167/13
f 229/203/52 231/204/52 230/205/52
f 25/200/6 289/197/6 24/198/6
f 32/169/5 287/202/5 31/167/5
f 24/198/4 285/206/4 23/196/4
f 31/167/3 283/207/3 30/201/3
f 23/196/2 281/208/2 22/209/2
f 30/201/1 279/210/1 29/211/1
f 21/212/16 281/208/16 277/213/16
f 29/211/15 275/207/15 28/201/15
f 20/209/14 277/213/14 273/208/14
f 18/198/7 268/199/7 17/200/7
f 20/209/12 266/206/12 19/196/12
f 286/214/18 330/215/18 185/216/18
f 320/217/18 345/218/18 325/219/18
f 249/220/18 220/221/18 216/222/18
f 261/223/18 229/203/18 232/224/18
f 289/225/17 329/226/17 285/227/17
f 310/219/18 364/228/18 360/218/18
f 237/229/17 207/230/17 258/231/17
f 264/232/17 343/233/17 195/234/17
f 313/235/17 363/236/17 309/237/17
f 242/238/17 219/239/17 223/240/17
f 236/223/18 206/203/18 201/223/18
f 288/241/18 328/242/18 187/243/18
f 265/244/18 342/245/18 270/246/18
f 243/247/18 218/248/18 247/249/18
f 237/229/17 203/250/17 200/229/17
f 291/232/17 184/233/17 287/251/17
f 266/227/17 341/252/17 199/226/17
f 312/253/18 362/254/18 358/255/18
f 267/256/18 340/257/18 272/258/18
f 315/259/17 361/260/17 311/261/17
f 240/262/17 221/263/17 227/264/17
f 236/223/18 202/265/18 263/266/18
f 290/267/18 185/216/18 189/268/18
f 271/251/17 339/269/17 343/233/17
f 241/220/18 220/221/18 245/270/18
f 322/271/17 375/272/17 348/273/17
f 293/274/17 186/275/17 289/225/17
f 314/217/18 360/218/18 356/276/18
f 323/277/18 374/255/18 296/253/18
f 260/229/17 209/250/17 256/278/17
f 270/246/18 338/279/18 274/280/18
f 317/271/17 359/272/17 313/235/17
f 238/281/17 223/240/17 231/204/17
f 324/261/17 373/282/17 344/260/17
f 261/223/18 208/265/18 204/223/18
f 292/283/18 187/243/18 193/283/18
f 273/284/17 337/285/17 341/252/17
f 239/286/18 222/287/18 243/247/18
f 325/219/18 372/228/18 298/288/18
f 268/274/17 196/275/17 191/274/17
f 316/277/18 358/255/18 354/289/18
f 297/235/17 371/236/17 375/272/17
f 258/231/17 211/204/17 254/281/17
f 269/290/18 197/291/18 294/292/18
f 272/258/18 336/293/18 276/294/18
f 319/295/17 357/296/17 315/259/17
f 235/297/17 227/264/17 224/298/17
f 259/224/18 210/205/18 206/203/18
f 239/69/11 66/170/11 232/159/11
f 225/299/53 227/264/53 226/222/53
f 230/205/54 223/240/54 222/287/54
f 226/222/55 221/263/55 220/221/55
f 222/287/56 219/239/56 218/248/56
f 220/221/57 217/264/57 216/222/57
f 218/248/58 215/240/58 214/287/58
f 216/222/59 213/298/59 212/299/59
f 214/287/60 211/204/60 210/205/60
f 212/299/61 209/250/61 208/265/61
f 210/205/62 207/230/62 206/203/62
f 208/265/63 205/229/63 204/223/63
f 201/223/64 203/250/64 202/265/64
f 206/203/65 200/229/65 201/223/65
f 204/223/66 228/230/66 229/203/66
f 202/265/67 224/298/67 225/299/67
f 197/291/67 199/226/67 198/300/67
f 193/283/66 195/234/66 194/301/66
f 189/268/65 191/274/65 190/290/65
f 190/290/64 196/275/64 197/291/64
f 187/243/63 192/274/63 193/283/63
f 185/216/62 188/234/62 189/268/62
f 328/242/61 186/275/61 187/243/61
f 330/215/60 184/233/60 185/216/60
f 332/302/59 329/226/59 328/242/59
f 334/303/58 331/269/58 330/215/58
f 336/293/57 333/252/57 332/302/57
f 338/279/56 335/304/56 334/303/56
f 340/257/55 337/285/55 336/293/55
f 342/245/54 339/269/54 338/279/54
f 198/300/53 341/252/53 340/257/53
f 194/301/52 343/233/52 342/245/52
f 346/276/67 344/260/67 345/218/67
f 350/305/66 348/273/66 349/289/66
f 354/289/65 352/295/65 353/305/65
f 353/305/64 347/296/64 346/276/64
f 356/276/63 351/295/63 350/305/63
f 358/255/62 355/273/62 354/289/62
f 360/218/61 357/296/61 356/276/61
f 362/254/60 359/272/60 358/255/60
f 364/228/59 361/260/59 360/218/59
f 366/306/58 363/236/58 362/254/58
f 368/307/57 365/282/57 364/228/57
f 370/254/56 367/308/56 366/306/56
f 372/228/55 369/309/55 368/307/55
f 374/255/54 371/236/54 370/254/54
f 345/218/53 373/282/53 372/228/53
f 349/289/52 375/272/52 374/255/52
f 260/229/17 228/230/17 205/229/17
f 248/262/17 221/263/17 244/310/17
f 311/261/17 365/282/17 307/311/17
f 263/266/18 225/299/18 234/312/18
f 308/313/18 366/306/18 362/254/18
f 321/259/17 344/260/17 347/296/17
f 287/251/17 331/269/17 283/314/17
f 262/278/17 224/298/17 203/250/17
f 251/247/18 218/248/18 214/287/18
f 284/315/18 332/302/18 328/242/18
f 250/238/17 219/239/17 246/316/17
f 309/237/17 367/308/17 305/317/17
f 318/305/18 349/289/18 323/277/18
f 294/292/18 198/300/18 267/256/18
f 306/288/18 368/307/18 364/228/18
f 285/227/17 333/252/17 281/284/17
f 253/312/18 216/222/18 212/299/18
f 319/295/17 348/273/17 351/295/17
f 282/318/18 334/303/18 330/215/18
f 295/225/17 199/226/17 196/275/17
f 252/297/17 217/264/17 248/262/17
f 307/311/17 369/309/17 303/319/17
f 300/313/18 366/306/18 304/320/18
f 327/305/18 354/289/18 353/305/18
f 283/314/17 335/304/17 279/321/17
f 292/283/18 194/301/18 265/244/18
f 255/286/18 214/287/18 210/205/18
f 232/224/18 230/205/18 239/286/18
f 280/322/18 336/293/18 332/302/18
f 254/281/17 215/240/17 250/238/17
f 301/237/17 367/308/17 371/236/17
f 326/295/17 355/273/17 317/271/17
f 293/274/17 195/234/17 192/274/17
f 298/288/18 368/307/18 302/323/18
f 233/231/17 231/204/17 228/230/17
f 327/305/18 346/276/18 320/217/18
f 281/284/17 337/285/17 277/324/17
f 257/266/18 212/299/18 208/265/18
f 326/295/17 347/296/17 352/295/17
f 274/280/18 334/303/18 278/325/18
f 269/290/18 189/268/18 190/290/18
f 256/278/17 213/298/17 252/297/17
f 299/311/17 369/309/17 373/282/17
f 234/312/18 226/222/18 241/220/18
f 318/305/18 356/276/18 350/305/18
f 296/253/18 370/254/18 300/313/18
f 275/314/17 335/304/17 339/269/17
f 268/274/17 188/234/17 291/232/17
f 57/47/8 136/93/8 56/52/8
f 60/55/68 91/56/68 92/60/68
f 379/326/69 378/327/69 382/328/69
f 387/329/69 386/330/69 390/331/69
f 395/332/69 394/333/69 398/334/69
f 403/335/69 402/336/69 406/337/69
f 411/338/69 410/339/69 414/340/69
f 419/341/69 418/342/69 422/343/69
f 427/344/69 426/345/69 430/346/69
f 485/347/70 409/338/70 410/339/70
f 376/348/71 501/349/71 383/350/71
f 411/338/72 485/347/72 410/339/72
f 525/351/73 384/352/73 385/329/73
f 412/353/74 486/354/74 411/338/74
f 528/355/70 385/329/70 386/330/70
f 497/356/75 496/357/75 412/353/75
f 387/329/72 528/355/72 386/330/72
f 484/358/76 413/359/76 414/340/76
f 388/352/74 526/351/74 387/329/74
f 415/359/77 484/358/77 414/340/77
f 523/360/75 388/352/75 389/361/75
f 408/353/71 481/362/71 415/359/71
f 524/363/76 389/361/76 390/331/76
f 495/364/73 416/365/73 417/341/73
f 391/361/77 524/363/77 390/331/77
f 494/366/70 417/341/70 418/342/70
f 384/352/71 509/360/71 391/361/71
f 419/341/72 494/366/72 418/342/72
f 491/367/73 392/368/73 393/332/73
f 420/365/74 512/364/74 419/341/74
f 490/369/70 393/332/70 394/333/70
f 514/370/75 420/365/75 421/371/75
f 395/332/72 490/369/72 394/333/72
f 493/372/76 421/371/76 422/343/76
f 396/368/74 511/367/74 395/332/74
f 423/371/77 493/372/77 422/343/77
f 507/373/75 396/368/75 397/374/75
f 416/365/71 492/370/71 423/371/71
f 489/375/76 397/374/76 398/334/76
f 518/376/73 424/377/73 425/344/73
f 399/374/77 489/375/77 398/334/77
f 522/378/70 425/344/70 426/345/70
f 392/368/71 488/373/71 399/374/71
f 427/344/72 522/378/72 426/345/72
f 472/379/73 400/380/73 401/335/73
f 428/377/74 519/376/74 427/344/74
f 475/381/70 401/335/70 402/336/70
f 516/382/75 428/377/75 429/383/75
f 403/335/72 475/381/72 402/336/72
f 504/384/73 376/348/73 377/326/73
f 515/385/76 429/383/76 430/346/76
f 404/380/74 477/379/74 403/335/74
f 502/386/70 377/326/70 378/327/70
f 431/383/77 515/385/77 430/346/77
f 478/387/75 404/380/75 405/388/75
f 379/326/72 502/386/72 378/327/72
f 424/377/71 517/382/71 431/383/71
f 476/389/76 405/388/76 406/337/76
f 380/348/78 503/384/78 379/326/78
f 407/388/77 476/389/77 406/337/77
f 500/349/75 380/348/75 381/350/75
f 400/380/71 474/390/71 407/388/71
f 499/391/76 381/350/76 382/328/76
f 482/354/73 408/353/73 409/338/73
f 383/350/77 499/391/77 382/328/77
f 446/392/79 439/393/79 438/394/79
f 436/395/80 445/396/80 437/393/80
f 443/397/81 434/398/81 442/399/81
f 447/400/82 432/395/82 439/393/82
f 440/401/83 433/402/83 432/395/83
f 437/393/84 446/392/84 438/394/84
f 441/397/85 434/398/85 433/402/85
f 447/403/86 454/404/86 455/405/86
f 444/406/86 453/405/86 445/403/86
f 443/407/86 450/408/86 451/409/86
f 440/406/86 449/409/86 441/407/86
f 440/406/86 455/405/86 448/406/86
f 445/403/86 454/404/86 446/410/86
f 444/406/86 451/409/86 452/406/86
f 441/407/86 450/408/86 442/411/86
f 453/405/87 470/412/87 454/404/87
f 451/409/88 468/413/88 452/406/88
f 450/408/89 464/414/89 466/415/89
f 455/405/90 470/412/90 471/416/90
f 452/406/91 469/416/91 453/405/91
f 450/408/92 467/414/92 451/409/92
f 449/409/93 465/417/93 464/414/93
f 448/406/94 471/416/94 465/417/94
f 511/418/69 525/419/69 458/420/69
f 456/417/69 464/414/69 465/417/69
f 457/421/69 466/415/69 464/414/69
f 459/421/69 466/415/69 458/420/69
f 460/413/69 467/414/69 459/421/69
f 460/413/69 469/416/69 468/413/69
f 461/422/69 470/412/69 469/416/69
f 463/422/69 470/412/69 462/423/69
f 456/417/69 471/416/69 463/422/69
f 457/421/69 472/424/69 475/425/69
f 476/426/69 474/427/69 463/422/69
f 492/428/69 487/429/69 462/423/69
f 535/430/95 544/431/95 536/432/95
f 541/433/96 534/432/96 533/434/96
f 539/435/97 532/436/97 531/437/97
f 529/434/98 538/438/98 530/436/98
f 536/432/99 537/433/99 529/434/99
f 542/431/100 535/430/100 534/432/100
f 540/438/101 533/434/101 532/436/101
f 530/436/102 539/435/102 531/437/102
f 551/439/103 550/440/103 545/441/103
f 552/442/104 545/441/104 546/443/104
f 553/444/105 546/443/105 547/445/105
f 548/446/106 553/444/106 547/445/106
f 549/447/107 554/448/107 548/446/107
f 550/440/108 555/449/108 549/447/108
f 551/439/109 562/450/109 556/451/109
f 552/442/110 557/452/110 551/439/110
f 553/444/111 558/453/111 552/442/111
f 560/454/112 553/444/112 554/448/112
f 561/455/113 554/448/113 555/449/113
f 562/450/114 555/449/114 556/451/114
f 557/452/115 568/456/115 562/450/115
f 558/453/116 563/457/116 557/452/116
f 559/458/117 564/459/117 558/453/117
f 566/460/118 559/458/118 560/454/118
f 567/461/119 560/454/119 561/455/119
f 568/456/120 561/455/120 562/450/120
f 569/462/121 568/456/121 563/457/121
f 570/463/50 563/457/50 564/459/50
f 571/464/122 564/459/122 565/465/122
f 566/460/123 571/464/123 565/465/123
f 567/461/124 572/466/124 566/460/124
f 568/456/125 573/467/125 567/461/125
f 569/462/126 580/468/126 574/469/126
f 570/463/50 575/470/50 569/462/50
f 571/464/127 576/471/127 570/463/127
f 578/472/128 571/464/128 572/466/128
f 579/473/124 572/466/124 573/467/124
f 580/468/129 573/467/129 574/469/129
f 575/470/130 586/474/130 580/468/130
f 576/471/50 581/475/50 575/470/50
f 577/476/131 582/477/131 576/471/131
f 584/478/132 577/476/132 578/472/132
f 585/479/124 578/472/124 579/473/124
f 586/474/133 579/473/133 580/468/133
f 592/480/134 593/439/134 587/441/134
f 587/441/135 594/442/135 588/443/135
f 588/443/136 595/481/136 589/445/136
f 590/446/137 595/481/137 596/448/137
f 591/447/138 596/448/138 597/449/138
f 592/480/139 597/449/139 598/451/139
f 593/439/140 604/482/140 599/452/140
f 594/442/141 599/452/141 600/453/141
f 595/481/142 600/453/142 601/458/142
f 595/481/143 602/454/143 596/448/143
f 596/448/144 603/455/144 597/449/144
f 597/449/145 604/482/145 598/451/145
f 599/452/146 610/456/146 605/457/146
f 600/453/147 605/457/147 606/459/147
f 601/458/148 606/459/148 607/465/148
f 601/458/149 608/460/149 602/454/149
f 602/454/150 609/461/150 603/455/150
f 603/455/151 610/456/151 604/482/151
f 610/456/152 611/462/152 605/457/152
f 605/457/50 612/463/50 606/459/50
f 606/459/153 613/483/153 607/465/153
f 608/460/154 613/483/154 614/466/154
f 609/461/124 614/466/124 615/467/124
f 610/456/155 615/467/155 616/469/155
f 611/462/156 622/468/156 617/470/156
f 612/463/50 617/470/50 618/471/50
f 613/483/157 618/471/157 619/476/157
f 613/483/158 620/472/158 614/466/158
f 614/466/124 621/473/124 615/467/124
f 615/467/159 622/468/159 616/469/159
f 617/470/160 586/474/160 581/475/160
f 618/471/50 581/475/50 582/477/50
f 619/476/161 582/477/161 583/484/161
f 619/476/162 584/478/162 620/472/162
f 620/472/124 585/479/124 621/473/124
f 621/473/163 586/474/163 622/468/163
f 629/485/164 628/486/164 623/487/164
f 630/488/165 623/487/165 624/489/165
f 631/490/166 624/489/166 625/491/166
f 626/489/167 631/490/167 625/491/167
f 627/487/168 632/488/168 626/489/168
f 628/486/169 633/485/169 627/487/169
f 635/492/170 634/493/170 629/485/170
f 636/494/165 629/485/165 630/488/165
f 637/495/171 630/488/171 631/490/171
f 632/488/172 637/495/172 631/490/172
f 633/485/168 638/494/168 632/488/168
f 634/493/173 639/492/173 633/485/173
f 641/496/174 640/497/174 635/492/174
f 642/498/165 635/492/165 636/494/165
f 643/499/175 636/494/175 637/495/175
f 638/494/176 643/499/176 637/495/176
f 639/492/168 644/498/168 638/494/168
f 640/497/177 645/496/177 639/492/177
f 641/496/178 652/500/178 646/501/178
f 642/498/165 647/502/165 641/496/165
f 643/499/179 648/503/179 642/498/179
f 650/503/180 643/499/180 644/498/180
f 651/502/168 644/498/168 645/496/168
f 652/500/181 645/496/181 646/501/181
f 647/502/182 658/504/182 652/500/182
f 648/503/165 653/505/165 647/502/165
f 649/506/183 654/507/183 648/503/183
f 656/507/184 649/506/184 650/503/184
f 657/505/168 650/503/168 651/502/168
f 658/504/185 651/502/185 652/500/185
f 653/505/186 664/508/186 658/504/186
f 654/507/165 659/509/165 653/505/165
f 655/510/187 660/511/187 654/507/187
f 662/511/188 655/510/188 656/507/188
f 663/509/168 656/507/168 657/505/168
f 664/508/189 657/505/189 658/504/189
f 659/509/190 670/512/190 664/508/190
f 660/511/165 665/513/165 659/509/165
f 661/514/191 666/515/191 660/511/191
f 668/515/192 661/514/192 662/511/192
f 669/513/168 662/511/168 663/509/168
f 670/512/193 663/509/193 664/508/193
f 671/516/194 670/512/194 665/513/194
f 672/517/165 665/513/165 666/515/165
f 673/518/195 666/515/195 667/519/195
f 668/515/196 673/518/196 667/519/196
f 669/513/168 674/517/168 668/515/168
f 670/512/197 675/516/197 669/513/197
f 677/520/198 676/521/198 671/516/198
f 678/522/165 671/516/165 672/517/165
f 679/523/199 672/517/199 673/518/199
f 674/517/200 679/523/200 673/518/200
f 675/516/168 680/522/168 674/517/168
f 676/521/201 681/520/201 675/516/201
f 677/520/202 688/524/202 682/525/202
f 678/522/165 683/526/165 677/520/165
f 679/523/203 684/527/203 678/522/203
f 686/527/204 679/523/204 680/522/204
f 687/526/168 680/522/168 681/520/168
f 688/524/205 681/520/205 682/525/205
f 683/526/206 694/528/206 688/524/206
f 684/527/165 689/529/165 683/526/165
f 685/530/207 690/531/207 684/527/207
f 692/531/208 685/530/208 686/527/208
f 693/529/168 686/527/168 687/526/168
f 694/528/209 687/526/209 688/524/209
f 435/402/210 444/401/210 436/395/210
f 695/532/165 696/533/165 703/534/165
f 699/534/168 698/532/168 702/535/168
f 701/536/211 706/535/211 702/535/211
f 699/534/212 704/537/212 700/537/212
f 697/533/18 695/532/18 698/532/18
f 698/532/50 705/536/50 701/536/50
f 702/535/17 703/534/17 699/534/17
f 697/533/124 704/537/124 696/533/124
f 715/534/168 707/532/168 718/535/168
f 710/532/165 709/533/165 711/534/165
f 718/535/211 713/536/211 714/535/211
f 716/537/212 711/534/212 712/537/212
f 707/532/18 709/533/18 710/532/18
f 717/536/50 710/532/50 713/536/50
f 715/534/17 714/535/17 711/534/17
f 709/533/124 716/537/124 712/537/124
f 46/1/1 45/21/1 13/2/1
f 7/4/2 39/18/2 38/5/2
f 47/7/3 46/1/3 14/3/3
f 40/9/4 39/18/4 7/4/4
f 48/11/5 47/7/5 15/8/5
f 41/13/6 40/9/6 8/10/6
f 33/9/7 34/13/7 1/15/7
f 34/13/8 48/11/8 16/12/8
f 42/11/9 41/13/9 9/14/9
f 35/18/10 33/9/10 2/16/10
f 43/7/11 42/11/11 10/17/11
f 36/5/12 35/18/12 3/4/12
f 44/1/13 43/7/13 11/8/13
f 37/19/14 36/5/14 4/6/14
f 45/21/15 44/1/15 12/3/15
f 38/5/16 37/19/16 5/20/16
f 3/4/17 2/16/17 8/10/17
f 2/16/17 1/15/17 9/14/17
f 1/15/17 16/12/17 10/17/17
f 16/12/17 15/8/17 11/8/17
f 15/8/17 14/3/17 12/3/17
f 14/3/17 13/2/17 12/3/17
f 12/3/17 11/8/17 15/8/17
f 11/8/17 10/17/17 16/12/17
f 10/17/17 9/14/17 1/15/17
f 9/14/17 8/10/17 2/16/17
f 8/10/17 7/4/17 3/4/17
f 7/4/17 6/6/17 3/4/17
f 6/6/17 5/20/17 4/6/17
f 17/13/18 34/13/18 33/9/18
f 18/22/18 33/9/18 35/18/18
f 19/23/18 35/18/18 36/5/18
f 20/24/18 36/5/18 37/19/18
f 22/24/18 21/25/18 37/19/18
f 23/23/18 22/24/18 38/5/18
f 24/22/18 23/23/18 39/18/18
f 25/13/18 24/22/18 40/9/18
f 25/13/18 41/13/18 42/11/18
f 26/26/18 42/11/18 43/7/18
f 27/27/18 43/7/18 44/1/18
f 28/28/18 44/1/18 45/21/18
f 30/28/18 29/29/18 45/21/18
f 31/27/18 30/28/18 46/1/18
f 32/26/18 31/27/18 47/7/18
f 17/13/18 32/26/18 48/11/18
f 111/30/19 83/42/19 81/31/19
f 71/33/17 73/43/17 103/34/17
f 53/36/213 85/41/213 86/37/213
f 72/39/17 74/49/17 104/30/17
f 53/36/214 52/38/214 84/37/214
f 52/38/215 51/48/215 83/42/215
f 73/43/17 75/53/17 105/44/17
f 64/45/216 96/51/216 82/46/216
f 51/48/217 49/52/217 81/31/217
f 74/49/17 76/57/17 106/32/17
f 63/50/218 95/56/218 96/51/218
f 49/52/219 50/47/219 82/46/219
f 75/53/17 77/90/17 107/54/17
f 62/55/220 94/60/220 95/56/220
f 76/57/17 78/58/17 108/58/17
f 61/59/221 93/88/221 94/60/221
f 236/61/7 263/160/7 79/62/7
f 234/64/12 241/161/12 67/65/12
f 243/67/13 69/164/13 65/68/13
f 327/70/8 237/117/8 258/71/8
f 318/70/6 260/117/6 256/73/6
f 316/72/5 258/71/5 254/75/5
f 314/74/4 256/73/4 252/77/4
f 312/76/3 254/75/3 250/79/3
f 310/78/2 252/77/2 248/81/2
f 308/80/1 250/79/1 246/83/1
f 306/82/16 248/81/16 244/85/16
f 304/84/15 246/83/15 242/79/15
f 302/86/14 244/85/14 240/81/14
f 300/80/13 242/79/13 238/75/13
f 325/78/10 235/77/10 262/73/10
f 97/44/29 91/56/29 90/51/29
f 111/30/30 98/40/30 84/37/30
f 99/34/31 92/60/31 91/56/31
f 98/40/32 100/87/32 85/41/32
f 101/35/33 93/88/33 92/60/33
f 100/87/34 102/40/34 86/37/34
f 103/34/35 94/60/35 93/88/35
f 102/40/36 104/30/36 87/42/36
f 105/44/37 95/56/37 94/60/37
f 106/32/38 88/31/38 87/42/38
f 107/54/39 96/51/39 95/56/39
f 108/58/40 89/46/40 88/31/40
f 109/32/41 81/31/41 82/46/41
f 112/58/42 82/46/42 96/51/42
f 110/54/43 90/51/43 89/46/43
f 70/89/17 72/39/17 102/40/17
f 61/59/222 60/55/222 92/60/222
f 71/33/17 101/35/17 99/34/17
f 54/38/223 86/37/223 87/42/223
f 70/89/17 100/87/17 98/40/17
f 55/48/224 87/42/224 88/31/224
f 69/43/17 99/34/17 97/44/17
f 68/49/17 111/30/17 109/32/17
f 56/52/225 88/31/225 89/46/225
f 67/39/17 98/40/17 111/30/17
f 66/90/17 110/54/17 108/58/17
f 58/45/226 57/47/226 89/46/226
f 65/53/17 97/44/17 110/54/17
f 77/90/17 80/58/17 112/58/17
f 59/50/227 58/45/227 90/51/227
f 79/57/17 109/32/17 112/58/17
f 49/52/9 129/93/9 130/91/9
f 50/47/6 130/91/6 144/92/6
f 58/45/7 138/92/7 137/91/7
f 51/48/11 131/95/11 129/93/11
f 58/45/10 59/50/10 139/94/10
f 52/38/13 132/97/13 131/95/13
f 59/50/12 60/55/12 140/96/12
f 53/36/15 133/99/15 132/97/15
f 60/55/14 61/59/14 141/98/14
f 54/38/1 134/97/1 133/99/1
f 61/59/16 62/55/16 142/96/16
f 55/48/3 135/95/3 134/97/3
f 62/55/2 63/50/2 143/94/2
f 56/52/5 136/93/5 135/95/5
f 64/45/4 144/92/4 143/94/4
f 113/100/18 114/101/18 130/101/18
f 115/103/18 113/100/18 129/102/18
f 116/105/18 115/103/18 131/104/18
f 117/107/18 116/105/18 132/106/18
f 117/107/18 133/108/18 134/106/18
f 118/105/18 134/106/18 135/104/18
f 119/103/18 135/104/18 136/102/18
f 120/100/18 136/102/18 137/101/18
f 122/109/18 121/101/18 137/101/18
f 123/111/18 122/109/18 138/110/18
f 124/113/18 123/111/18 139/112/18
f 125/115/18 124/113/18 140/114/18
f 125/115/18 141/116/18 142/114/18
f 126/113/18 142/114/18 143/112/18
f 127/111/18 143/112/18 144/110/18
f 128/109/18 144/110/18 130/101/18
f 323/72/9 233/71/9 260/117/9
f 123/111/10 154/119/10 153/118/10
f 124/113/12 155/121/12 154/119/12
f 124/113/14 125/115/14 147/120/14
f 125/115/16 126/113/16 156/122/16
f 127/111/2 148/123/2 156/122/2
f 128/109/4 149/126/4 148/123/4
f 158/124/50 114/101/50 121/101/50
f 114/101/228 158/124/228 149/126/228
f 121/101/7 122/109/7 153/118/7
f 154/119/17 162/129/17 161/128/17
f 155/121/17 163/130/17 162/129/17
f 147/120/17 164/132/17 163/130/17
f 147/120/17 156/122/17 165/131/17
f 156/122/17 148/123/17 166/133/17
f 148/123/17 149/126/17 167/127/17
f 146/134/3 174/141/3 173/135/3
f 166/137/2 182/143/2 181/138/2
f 151/140/5 175/145/5 174/141/5
f 167/142/4 183/149/4 182/143/4
f 152/144/8 176/147/8 175/145/8
f 157/146/9 168/145/9 169/147/9
f 158/148/6 169/147/6 183/149/6
f 161/150/7 177/149/7 176/147/7
f 157/146/11 150/152/11 170/141/11
f 162/151/10 178/143/10 177/149/10
f 150/152/13 159/155/13 171/135/13
f 163/153/12 179/138/12 178/143/12
f 145/154/15 172/157/15 171/135/15
f 164/156/14 180/158/14 179/138/14
f 160/136/1 173/135/1 172/157/1
f 165/139/16 181/138/16 180/158/16
f 169/147/18 168/145/18 175/145/18
f 168/145/18 170/141/18 174/141/18
f 170/141/18 171/135/18 174/141/18
f 171/135/18 172/157/18 173/135/18
f 174/141/18 171/135/18 173/135/18
f 174/141/18 175/145/18 168/145/18
f 175/145/18 176/147/18 169/147/18
f 176/147/18 177/149/18 183/149/18
f 177/149/18 178/143/18 182/143/18
f 178/143/18 179/138/18 182/143/18
f 179/138/18 180/158/18 181/138/18
f 182/143/18 179/138/18 181/138/18
f 182/143/18 183/149/18 177/149/18
f 113/100/18 115/103/18 120/100/18
f 115/103/18 116/105/18 119/103/18
f 120/100/18 115/103/18 119/103/18
f 116/105/18 117/107/18 118/105/18
f 118/105/18 119/103/18 116/105/18
f 120/100/18 121/101/18 114/101/18
f 159/155/17 150/152/17 146/134/17
f 150/152/17 157/146/17 146/134/17
f 157/146/17 158/148/17 152/144/17
f 152/144/17 151/140/17 157/146/17
f 151/140/17 146/134/17 157/146/17
f 146/134/17 160/136/17 159/155/17
f 232/159/9 66/170/9 78/63/9
f 234/64/10 68/66/10 79/62/10
f 241/161/14 245/165/14 70/162/14
f 247/163/15 71/166/15 69/164/15
f 245/165/16 249/161/16 72/65/16
f 251/67/1 73/164/1 71/166/1
f 249/161/2 253/64/2 74/66/2
f 255/69/3 75/68/3 73/164/3
f 253/64/4 257/160/4 76/62/4
f 259/159/5 77/170/5 75/68/5
f 261/61/6 78/63/6 76/62/6
f 27/167/11 271/202/11 264/168/11
f 236/61/8 80/63/8 77/170/8
f 320/74/7 262/73/7 237/117/7
f 296/76/11 238/75/11 233/71/11
f 298/82/12 240/81/12 235/77/12
f 272/171/12 299/189/12 324/172/12
f 270/174/11 297/184/11 322/175/11
f 294/177/7 321/182/7 326/178/7
f 269/179/8 326/178/8 317/175/8
f 292/181/6 319/178/6 315/182/6
f 290/180/5 317/175/5 313/184/5
f 288/183/4 315/182/4 311/172/4
f 286/185/3 313/184/3 309/187/3
f 284/186/2 311/172/2 307/189/2
f 282/188/1 309/187/1 305/191/1
f 280/190/16 307/189/16 303/193/16
f 278/192/15 305/191/15 301/187/15
f 276/194/14 303/193/14 299/189/14
f 274/195/13 301/187/13 297/184/13
f 267/173/10 324/172/10 321/182/10
f 265/176/9 322/175/9 319/178/9
f 19/196/10 266/206/10 295/197/10
f 26/169/9 264/168/9 293/199/9
f 17/200/8 268/199/8 291/168/8
f 28/201/13 275/207/13 271/202/13
f 229/203/52 228/230/52 231/204/52
f 25/200/6 293/199/6 289/197/6
f 32/169/5 291/168/5 287/202/5
f 24/198/4 289/197/4 285/206/4
f 31/167/3 287/202/3 283/207/3
f 23/196/2 285/206/2 281/208/2
f 30/201/1 283/207/1 279/210/1
f 21/212/16 22/209/16 281/208/16
f 29/211/15 279/210/15 275/207/15
f 20/209/14 21/212/14 277/213/14
f 18/198/7 295/197/7 268/199/7
f 20/209/12 273/208/12 266/206/12
f 286/214/18 282/318/18 330/215/18
f 320/217/18 346/276/18 345/218/18
f 249/220/18 245/270/18 220/221/18
f 261/223/18 204/223/18 229/203/18
f 289/225/17 186/275/17 329/226/17
f 310/219/18 306/288/18 364/228/18
f 237/229/17 200/229/17 207/230/17
f 264/232/17 271/251/17 343/233/17
f 313/235/17 359/272/17 363/236/17
f 242/238/17 246/316/17 219/239/17
f 236/223/18 259/224/18 206/203/18
f 288/241/18 284/315/18 328/242/18
f 265/244/18 194/301/18 342/245/18
f 243/247/18 222/287/18 218/248/18
f 237/229/17 262/278/17 203/250/17
f 291/232/17 188/234/17 184/233/17
f 266/227/17 273/284/17 341/252/17
f 312/253/18 308/313/18 362/254/18
f 267/256/18 198/300/18 340/257/18
f 315/259/17 357/296/17 361/260/17
f 240/262/17 244/310/17 221/263/17
f 236/223/18 201/223/18 202/265/18
f 290/267/18 286/214/18 185/216/18
f 271/251/17 275/314/17 339/269/17
f 241/220/18 226/222/18 220/221/18
f 322/271/17 297/235/17 375/272/17
f 293/274/17 192/274/17 186/275/17
f 314/217/18 310/219/18 360/218/18
f 323/277/18 349/289/18 374/255/18
f 260/229/17 205/229/17 209/250/17
f 270/246/18 342/245/18 338/279/18
f 317/271/17 355/273/17 359/272/17
f 238/281/17 242/238/17 223/240/17
f 324/261/17 299/311/17 373/282/17
f 261/223/18 257/266/18 208/265/18
f 292/283/18 288/241/18 187/243/18
f 273/284/17 277/324/17 337/285/17
f 239/286/18 230/205/18 222/287/18
f 325/219/18 345/218/18 372/228/18
f 268/274/17 295/225/17 196/275/17
f 316/277/18 312/253/18 358/255/18
f 297/235/17 301/237/17 371/236/17
f 258/231/17 207/230/17 211/204/17
f 269/290/18 190/290/18 197/291/18
f 272/258/18 340/257/18 336/293/18
f 319/295/17 351/295/17 357/296/17
f 235/297/17 240/262/17 227/264/17
f 259/224/18 255/286/18 210/205/18
f 239/69/11 65/68/11 66/170/11
f 225/299/53 224/298/53 227/264/53
f 230/205/54 231/204/54 223/240/54
f 226/222/55 227/264/55 221/263/55
f 222/287/56 223/240/56 219/239/56
f 220/221/57 221/263/57 217/264/57
f 218/248/58 219/239/58 215/240/58
f 216/222/59 217/264/59 213/298/59
f 214/287/60 215/240/60 211/204/60
f 212/299/61 213/298/61 209/250/61
f 210/205/62 211/204/62 207/230/62
f 208/265/63 209/250/63 205/229/63
f 201/223/64 200/229/64 203/250/64
f 206/203/65 207/230/65 200/229/65
f 204/223/66 205/229/66 228/230/66
f 202/265/67 203/250/67 224/298/67
f 197/291/67 196/275/67 199/226/67
f 193/283/66 192/274/66 195/234/66
f 189/268/65 188/234/65 191/274/65
f 190/290/64 191/274/64 196/275/64
f 187/243/63 186/275/63 192/274/63
f 185/216/62 184/233/62 188/234/62
f 328/242/61 329/226/61 186/275/61
f 330/215/60 331/269/60 184/233/60
f 332/302/59 333/252/59 329/226/59
f 334/303/58 335/304/58 331/269/58
f 336/293/57 337/285/57 333/252/57
f 338/279/56 339/269/56 335/304/56
f 340/257/55 341/252/55 337/285/55
f 342/245/54 343/233/54 339/269/54
f 198/300/53 199/226/53 341/252/53
f 194/301/52 195/234/52 343/233/52
f 346/276/67 347/296/67 344/260/67
f 350/305/66 351/295/66 348/273/66
f 354/289/65 355/273/65 352/295/65
f 353/305/64 352/295/64 347/296/64
f 356/276/63 357/296/63 351/295/63
f 358/255/62 359/272/62 355/273/62
f 360/218/61 361/260/61 357/296/61
f 362/254/60 363/236/60 359/272/60
f 364/228/59 365/282/59 361/260/59
f 366/306/58 367/308/58 363/236/58
f 368/307/57 369/309/57 365/282/57
f 370/254/56 371/236/56 367/308/56
f 372/228/55 373/282/55 369/309/55
f 374/255/54 375/272/54 371/236/54
f 345/218/53 344/260/53 373/282/53
f 349/289/52 348/273/52 375/272/52
f 260/229/17 233/231/17 228/230/17
f 248/262/17 217/264/17 221/263/17
f 311/261/17 361/260/17 365/282/17
f 263/266/18 202/265/18 225/299/18
f 308/313/18 304/320/18 366/306/18
f 321/259/17 324/261/17 344/260/17
f 287/251/17 184/233/17 331/269/17
f 262/278/17 235/297/17 224/298/17
f 251/247/18 247/249/18 218/248/18
f 284/315/18 280/322/18 332/302/18
f 250/238/17 215/240/17 219/239/17
f 309/237/17 363/236/17 367/308/17
f 318/305/18 350/305/18 349/289/18
f 294/292/18 197/291/18 198/300/18
f 306/288/18 302/323/18 368/307/18
f 285/227/17 329/226/17 333/252/17
f 253/312/18 249/220/18 216/222/18
f 319/295/17 322/271/17 348/273/17
f 282/318/18 278/325/18 334/303/18
f 295/225/17 266/227/17 199/226/17
f 252/297/17 213/298/17 217/264/17
f 307/311/17 365/282/17 369/309/17
f 300/313/18 370/254/18 366/306/18
f 327/305/18 316/277/18 354/289/18
f 283/314/17 331/269/17 335/304/17
f 292/283/18 193/283/18 194/301/18
f 255/286/18 251/247/18 214/287/18
f 232/224/18 229/203/18 230/205/18
f 280/322/18 276/294/18 336/293/18
f 254/281/17 211/204/17 215/240/17
f 301/237/17 305/317/17 367/308/17
f 326/295/17 352/295/17 355/273/17
f 293/274/17 264/232/17 195/234/17
f 298/288/18 372/228/18 368/307/18
f 233/231/17 238/281/17 231/204/17
f 327/305/18 353/305/18 346/276/18
f 281/284/17 333/252/17 337/285/17
f 257/266/18 253/312/18 212/299/18
f 326/295/17 321/259/17 347/296/17
f 274/280/18 338/279/18 334/303/18
f 269/290/18 290/267/18 189/268/18
f 256/278/17 209/250/17 213/298/17
f 299/311/17 303/319/17 369/309/17
f 234/312/18 225/299/18 226/222/18
f 318/305/18 314/217/18 356/276/18
f 296/253/18 374/255/18 370/254/18
f 275/314/17 279/321/17 335/304/17
f 268/274/17 191/274/17 188/234/17
f 57/47/8 137/91/8 136/93/8
f 60/55/229 59/50/229 91/56/229
f 378/327/69 377/326/69 382/328/69
f 377/326/69 376/348/69 383/350/69
f 382/328/69 377/326/69 383/350/69
f 382/328/69 381/350/69 379/326/69
f 381/350/69 380/348/69 379/326/69
f 386/330/69 385/329/69 390/331/69
f 385/329/69 384/352/69 391/361/69
f 390/331/69 385/329/69 391/361/69
f 390/331/69 389/361/69 387/329/69
f 389/361/69 388/352/69 387/329/69
f 394/333/69 393/332/69 398/334/69
f 393/332/69 392/368/69 399/374/69
f 398/334/69 393/332/69 399/374/69
f 398/334/69 397/374/69 395/332/69
f 397/374/69 396/368/69 395/332/69
f 402/336/69 401/335/69 406/337/69
f 401/335/69 400/380/69 407/388/69
f 406/337/69 401/335/69 407/388/69
f 406/337/69 405/388/69 403/335/69
f 405/388/69 404/380/69 403/335/69
f 410/339/69 409/338/69 415/359/69
f 409/338/69 408/353/69 415/359/69
f 415/359/69 414/340/69 410/339/69
f 414/340/69 413/359/69 411/338/69
f 413/359/69 412/353/69 411/338/69
f 418/342/69 417/341/69 422/343/69
f 417/341/69 416/365/69 423/371/69
f 422/343/69 417/341/69 423/371/69
f 422/343/69 421/371/69 419/341/69
f 421/371/69 420/365/69 419/341/69
f 426/345/69 425/344/69 430/346/69
f 425/344/69 424/377/69 431/383/69
f 430/346/69 425/344/69 431/383/69
f 430/346/69 429/383/69 427/344/69
f 429/383/69 428/377/69 427/344/69
f 485/347/70 482/354/70 409/338/70
f 376/348/71 506/538/71 501/349/71
f 411/338/72 486/354/72 485/347/72
f 525/351/73 510/539/73 384/352/73
f 412/353/74 496/357/74 486/354/74
f 528/355/70 525/351/70 385/329/70
f 412/353/75 413/359/75 497/356/75
f 413/359/75 487/362/75 497/356/75
f 387/329/72 526/351/72 528/355/72
f 484/358/76 487/362/76 413/359/76
f 388/352/74 527/539/74 526/351/74
f 415/359/77 481/362/77 484/358/77
f 523/360/75 527/539/75 388/352/75
f 408/353/71 479/357/71 481/362/71
f 524/363/76 523/360/76 389/361/76
f 495/364/73 498/540/73 416/365/73
f 391/361/77 509/360/77 524/363/77
f 494/366/70 495/364/70 417/341/70
f 384/352/71 510/539/71 509/360/71
f 419/341/72 512/364/72 494/366/72
f 491/367/73 483/541/73 392/368/73
f 420/365/74 513/540/74 512/364/74
f 490/369/70 491/367/70 393/332/70
f 514/370/75 513/540/75 420/365/75
f 395/332/72 511/367/72 490/369/72
f 493/372/76 514/370/76 421/371/76
f 396/368/74 508/541/74 511/367/74
f 423/371/77 492/370/77 493/372/77
f 507/373/75 508/541/75 396/368/75
f 416/365/71 498/540/71 492/370/71
f 489/375/76 507/373/76 397/374/76
f 518/376/73 521/542/73 424/377/73
f 399/374/77 488/373/77 489/375/77
f 522/378/70 518/376/70 425/344/70
f 392/368/71 483/541/71 488/373/71
f 427/344/72 519/376/72 522/378/72
f 472/379/73 473/543/73 400/380/73
f 428/377/74 520/542/74 519/376/74
f 475/381/70 472/379/70 401/335/70
f 516/382/75 520/542/75 428/377/75
f 403/335/72 477/379/72 475/381/72
f 504/384/73 506/538/73 376/348/73
f 515/385/76 516/382/76 429/383/76
f 404/380/74 480/543/74 477/379/74
f 502/386/70 504/384/70 377/326/70
f 431/383/77 517/382/77 515/385/77
f 478/387/75 480/543/75 404/380/75
f 379/326/72 503/384/72 502/386/72
f 424/377/71 521/542/71 517/382/71
f 476/389/76 478/387/76 405/388/76
f 380/348/74 505/538/74 503/384/74
f 407/388/77 474/390/77 476/389/77
f 500/349/75 505/538/75 380/348/75
f 400/380/71 473/543/71 474/390/71
f 499/391/76 500/349/76 381/350/76
f 482/354/230 479/357/230 408/353/230
f 383/350/77 501/349/77 499/391/77
f 446/392/231 447/400/231 439/393/231
f 436/395/232 444/401/232 445/396/232
f 443/397/233 435/402/233 434/398/233
f 447/400/234 440/401/234 432/395/234
f 440/401/235 441/397/235 433/402/235
f 437/393/236 445/396/236 446/392/236
f 441/397/237 442/399/237 434/398/237
f 447/403/86 446/410/86 454/404/86
f 444/406/86 452/406/86 453/405/86
f 443/407/86 442/411/86 450/408/86
f 440/406/86 448/406/86 449/409/86
f 440/406/86 447/403/86 455/405/86
f 445/403/86 453/405/86 454/404/86
f 444/406/86 443/407/86 451/409/86
f 441/407/86 449/409/86 450/408/86
f 453/405/87 469/416/87 470/412/87
f 451/409/88 467/414/88 468/413/88
f 450/408/89 449/409/89 464/414/89
f 455/405/90 454/404/90 470/412/90
f 452/406/91 468/413/91 469/416/91
f 450/408/92 466/415/92 467/414/92
f 449/409/93 448/406/93 465/417/93
f 448/406/94 455/405/94 471/416/94
f 457/421/69 483/544/69 491/418/69
f 457/421/69 491/418/69 490/545/69
f 526/419/69 527/546/69 459/421/69
f 528/547/69 526/419/69 459/421/69
f 458/420/69 457/421/69 490/545/69
f 511/418/69 508/544/69 525/419/69
f 508/544/69 510/546/69 525/419/69
f 458/420/69 490/545/69 511/418/69
f 528/547/69 459/421/69 458/420/69
f 525/419/69 528/547/69 458/420/69
f 456/417/69 457/421/69 464/414/69
f 457/421/69 458/420/69 466/415/69
f 459/421/69 467/414/69 466/415/69
f 460/413/69 468/413/69 467/414/69
f 460/413/69 461/422/69 469/416/69
f 461/422/69 462/423/69 470/412/69
f 463/422/69 471/416/69 470/412/69
f 456/417/69 465/417/69 471/416/69
f 460/413/69 459/421/69 519/548/69
f 459/421/69 527/546/69 519/548/69
f 527/546/69 523/549/69 522/550/69
f 519/548/69 527/546/69 522/550/69
f 519/548/69 520/551/69 460/413/69
f 523/549/69 524/552/69 518/548/69
f 522/550/69 523/549/69 518/548/69
f 509/549/238 510/546/238 507/553/238
f 510/546/69 508/544/69 507/553/69
f 524/552/69 509/549/69 503/554/69
f 518/548/69 524/552/69 503/554/69
f 509/549/69 507/553/69 502/555/69
f 507/553/69 489/556/69 504/554/69
f 502/555/69 507/553/69 504/554/69
f 505/557/69 521/551/69 518/548/69
f 503/554/69 505/557/69 518/548/69
f 488/553/69 483/544/69 475/425/69
f 483/544/69 457/421/69 475/425/69
f 509/549/69 502/555/69 503/554/69
f 489/556/69 488/553/69 477/424/69
f 480/558/69 506/557/69 504/554/69
f 480/558/69 504/554/69 477/424/69
f 477/424/69 504/554/69 489/556/69
f 477/424/69 488/553/69 475/425/69
f 457/421/69 456/417/69 472/424/69
f 456/417/69 473/558/69 472/424/69
f 461/422/69 460/413/69 516/559/69
f 460/413/69 520/551/69 516/559/69
f 512/560/69 513/561/69 461/422/69
f 512/560/69 461/422/69 515/562/69
f 461/422/69 516/559/69 515/562/69
f 494/563/69 512/560/69 517/559/69
f 512/560/69 515/562/69 517/559/69
f 517/559/69 521/551/69 500/564/69
f 521/551/69 505/557/69 500/564/69
f 497/565/69 498/561/69 496/566/69
f 498/561/69 495/560/69 496/566/69
f 495/560/69 494/563/69 500/564/69
f 494/563/69 517/559/69 500/564/69
f 500/564/69 499/567/69 495/560/69
f 496/566/69 495/560/69 486/568/69
f 495/560/69 499/567/69 486/568/69
f 501/564/69 506/557/69 478/569/69
f 506/557/69 480/558/69 478/569/69
f 486/568/69 499/567/69 501/564/69
f 485/570/69 486/568/69 501/564/69
f 501/564/69 478/569/69 485/570/69
f 478/569/69 476/426/69 482/568/69
f 482/568/69 485/570/69 478/569/69
f 463/422/69 479/566/69 482/568/69
f 473/558/69 456/417/69 474/427/69
f 456/417/69 463/422/69 474/427/69
f 463/422/69 482/568/69 476/426/69
f 461/422/69 513/561/69 514/428/69
f 461/422/69 514/428/69 462/423/69
f 514/428/238 493/571/238 462/423/238
f 481/429/69 479/566/69 463/422/69
f 484/572/238 481/429/238 463/422/238
f 492/428/238 498/561/238 487/429/238
f 498/561/69 497/565/69 487/429/69
f 462/423/69 493/571/69 492/428/69
f 484/572/69 463/422/69 462/423/69
f 487/429/69 484/572/69 462/423/69
f 535/430/239 543/573/239 544/431/239
f 541/433/240 542/431/240 534/432/240
f 539/435/241 540/438/241 532/436/241
f 529/434/242 537/433/242 538/438/242
f 536/432/243 544/431/243 537/433/243
f 542/431/244 543/573/244 535/430/244
f 540/438/245 541/433/245 533/434/245
f 530/436/246 538/438/246 539/435/246
f 551/439/247 556/451/247 550/440/247
f 552/442/248 551/439/248 545/441/248
f 553/444/249 552/442/249 546/443/249
f 548/446/250 554/448/250 553/444/250
f 549/447/251 555/449/251 554/448/251
f 550/440/252 556/451/252 555/449/252
f 551/439/253 557/452/253 562/450/253
f 552/442/254 558/453/254 557/452/254
f 553/444/255 559/458/255 558/453/255
f 560/454/256 559/458/256 553/444/256
f 561/455/257 560/454/257 554/448/257
f 562/450/258 561/455/258 555/449/258
f 557/452/259 563/457/259 568/456/259
f 558/453/260 564/459/260 563/457/260
f 559/458/261 565/465/261 564/459/261
f 566/460/262 565/465/262 559/458/262
f 567/461/263 566/460/263 560/454/263
f 568/456/264 567/461/264 561/455/264
f 569/462/265 574/469/265 568/456/265
f 570/463/50 569/462/50 563/457/50
f 571/464/266 570/463/266 564/459/266
f 566/460/267 572/466/267 571/464/267
f 567/461/124 573/467/124 572/466/124
f 568/456/268 574/469/268 573/467/268
f 569/462/269 575/470/269 580/468/269
f 570/463/50 576/471/50 575/470/50
f 571/464/270 577/476/270 576/471/270
f 578/472/271 577/476/271 571/464/271
f 579/473/124 578/472/124 572/466/124
f 580/468/272 579/473/272 573/467/272
f 575/470/273 581/475/273 586/474/273
f 576/471/50 582/477/50 581/475/50
f 577/476/274 583/484/274 582/477/274
f 584/478/275 583/484/275 577/476/275
f 585/479/124 584/478/124 578/472/124
f 586/474/276 585/479/276 579/473/276
f 592/480/277 598/451/277 593/439/277
f 587/441/278 593/439/278 594/442/278
f 588/443/279 594/442/279 595/481/279
f 590/446/280 589/445/280 595/481/280
f 591/447/281 590/446/281 596/448/281
f 592/480/282 591/447/282 597/449/282
f 593/439/283 598/451/283 604/482/283
f 594/442/284 593/439/284 599/452/284
f 595/481/285 594/442/285 600/453/285
f 595/481/286 601/458/286 602/454/286
f 596/448/287 602/454/287 603/455/287
f 597/449/288 603/455/288 604/482/288
f 599/452/289 604/482/289 610/456/289
f 600/453/290 599/452/290 605/457/290
f 601/458/291 600/453/291 606/459/291
f 601/458/292 607/465/292 608/460/292
f 602/454/293 608/460/293 609/461/293
f 603/455/294 609/461/294 610/456/294
f 610/456/295 616/469/295 611/462/295
f 605/457/50 611/462/50 612/463/50
f 606/459/296 612/463/296 613/483/296
f 608/460/297 607/465/297 613/483/297
f 609/461/124 608/460/124 614/466/124
f 610/456/298 609/461/298 615/467/298
f 611/462/299 616/469/299 622/468/299
f 612/463/50 611/462/50 617/470/50
f 613/483/300 612/463/300 618/471/300
f 613/483/301 619/476/301 620/472/301
f 614/466/124 620/472/124 621/473/124
f 615/467/302 621/473/302 622/468/302
f 617/470/303 622/468/303 586/474/303
f 618/471/50 617/470/50 581/475/50
f 619/476/304 618/471/304 582/477/304
f 619/476/305 583/484/305 584/478/305
f 620/472/124 584/478/124 585/479/124
f 621/473/306 585/479/306 586/474/306
f 629/485/307 634/493/307 628/486/307
f 630/488/165 629/485/165 623/487/165
f 631/490/308 630/488/308 624/489/308
f 626/489/309 632/488/309 631/490/309
f 627/487/168 633/485/168 632/488/168
f 628/486/310 634/493/310 633/485/310
f 635/492/311 640/497/311 634/493/311
f 636/494/165 635/492/165 629/485/165
f 637/495/312 636/494/312 630/488/312
f 632/488/313 638/494/313 637/495/313
f 633/485/168 639/492/168 638/494/168
f 634/493/314 640/497/314 639/492/314
f 641/496/315 646/501/315 640/497/315
f 642/498/165 641/496/165 635/492/165
f 643/499/316 642/498/316 636/494/316
f 638/494/317 644/498/317 643/499/317
f 639/492/168 645/496/168 644/498/168
f 640/497/318 646/501/318 645/496/318
f 641/496/319 647/502/319 652/500/319
f 642/498/165 648/503/165 647/502/165
f 643/499/320 649/506/320 648/503/320
f 650/503/321 649/506/321 643/499/321
f 651/502/168 650/503/168 644/498/168
f 652/500/322 651/502/322 645/496/322
f 647/502/323 653/505/323 658/504/323
f 648/503/165 654/507/165 653/505/165
f 649/506/324 655/510/324 654/507/324
f 656/507/325 655/510/325 649/506/325
f 657/505/168 656/507/168 650/503/168
f 658/504/326 657/505/326 651/502/326
f 653/505/327 659/509/327 664/508/327
f 654/507/165 660/511/165 659/509/165
f 655/510/328 661/514/328 660/511/328
f 662/511/329 661/514/329 655/510/329
f 663/509/168 662/511/168 656/507/168
f 664/508/330 663/509/330 657/505/330
f 659/509/331 665/513/331 670/512/331
f 660/511/165 666/515/165 665/513/165
f 661/514/332 667/519/332 666/515/332
f 668/515/333 667/519/333 661/514/333
f 669/513/168 668/515/168 662/511/168
f 670/512/334 669/513/334 663/509/334
f 671/516/335 676/521/335 670/512/335
f 672/517/165 671/516/165 665/513/165
f 673/518/336 672/517/336 666/515/336
f 668/515/337 674/517/337 673/518/337
f 669/513/168 675/516/168 674/517/168
f 670/512/338 676/521/338 675/516/338
f 677/520/339 682/525/339 676/521/339
f 678/522/165 677/520/165 671/516/165
f 679/523/340 678/522/340 672/517/340
f 674/517/341 680/522/341 679/523/341
f 675/516/168 681/520/168 680/522/168
f 676/521/342 682/525/342 681/520/342
f 677/520/343 683/526/343 688/524/343
f 678/522/165 684/527/165 683/526/165
f 679/523/344 685/530/344 684/527/344
f 686/527/345 685/530/345 679/523/345
f 687/526/168 686/527/168 680/522/168
f 688/524/346 687/526/346 681/520/346
f 683/526/347 689/529/347 694/528/347
f 684/527/165 690/531/165 689/529/165
f 685/530/348 691/574/348 690/531/348
f 692/531/349 691/574/349 685/530/349
f 693/529/168 692/531/168 686/527/168
f 694/528/350 693/529/350 687/526/350
f 435/402/351 443/397/351 444/401/351
f 696/533/165 704/537/165 703/534/165
f 703/534/165 706/535/165 695/532/165
f 706/535/165 705/536/165 695/532/165
f 699/534/168 700/537/168 697/533/168
f 697/533/168 698/532/168 699/534/168
f 698/532/168 701/536/168 702/535/168
f 701/536/211 705/536/211 706/535/211
f 699/534/212 703/534/212 704/537/212
f 697/533/18 696/533/18 695/532/18
f 698/532/50 695/532/50 705/536/50
f 702/535/17 706/535/17 703/534/17
f 697/533/124 700/537/124 704/537/124
f 715/534/168 716/537/168 708/533/168
f 708/533/168 707/532/168 715/534/168
f 707/532/168 717/536/168 718/535/168
f 709/533/165 712/537/165 711/534/165
f 711/534/165 714/535/165 710/532/165
f 714/535/165 713/536/165 710/532/165
f 718/535/211 717/536/211 713/536/211
f 716/537/212 715/534/212 711/534/212
f 707/532/18 708/533/18 709/533/18
f 717/536/50 707/532/50 710/532/50
f 715/534/17 718/535/17 714/535/17
f 709/533/124 708/533/124 716/537/124
