# Blender 4.4.0
# www.blender.org
mtllib Tool_Shear_01.mtl
o Tool_Shear_Right_01
v 0.009057 0.229702 0.003004
v 0.038410 0.241965 0.003002
v 0.005010 0.261725 0.003004
v 0.026904 0.268990 0.003002
v 0.022286 0.229432 0.003003
v 0.043048 0.236178 0.003008
v -0.007019 0.271568 0.003005
v 0.023233 0.280287 0.002002
v -0.015025 0.296596 0.003005
v 0.017047 0.305149 0.002002
v -0.019999 0.327342 0.003004
v 0.013146 0.332207 0.002002
v -0.028690 0.375991 0.003004
v 0.004454 0.380856 0.002001
v -0.042272 0.462878 0.003003
v -0.009128 0.467743 0.002000
v -0.023656 0.516010 0.003000
v -0.018606 0.520679 0.002000
v -0.013867 0.494211 0.002000
v -0.035922 0.489694 0.003002
v 0.009057 0.229702 0.001004
v 0.038410 0.241965 0.001002
v 0.005010 0.261725 0.001004
v 0.026904 0.268990 0.001002
v 0.022286 0.229431 0.001003
v 0.043049 0.236177 0.001008
v -0.007019 0.271568 0.001005
v -0.015025 0.296596 0.001005
v -0.019999 0.327342 0.001004
v -0.028691 0.375991 0.001004
v -0.042272 0.462878 0.001003
v -0.023656 0.516010 0.001000
v -0.035922 0.489694 0.001002
v 0.101900 0.004424 -0.012414
v 0.095032 0.002192 -0.010479
v 0.090004 0.000559 -0.005192
v 0.088163 -0.000039 0.002030
v 0.090004 0.000559 0.009252
v 0.095032 0.002192 0.014539
v 0.101900 0.004424 0.016474
v 0.108768 0.006656 0.014539
v 0.113796 0.008289 0.009252
v 0.115637 0.008887 0.002030
v 0.113796 0.008289 -0.005192
v 0.108768 0.006656 -0.010479
v 0.034359 0.212294 -0.014626
v 0.026439 0.209721 -0.012394
v 0.020640 0.207837 -0.006298
v 0.018518 0.207147 0.002030
v 0.020640 0.207837 0.010358
v 0.026439 0.209721 0.016454
v 0.034359 0.212294 0.018686
v 0.042279 0.214867 0.016454
v 0.048077 0.216751 0.010358
v 0.050199 0.217441 0.002030
v 0.048077 0.216751 -0.006298
v 0.042279 0.214867 -0.012394
v 0.034359 0.212294 -0.016447
v 0.025573 0.209439 -0.013971
v 0.019141 0.207349 -0.007208
v 0.016787 0.206584 0.002030
v 0.019141 0.207349 0.011268
v 0.025573 0.209439 0.018031
v 0.034359 0.212294 0.020507
v 0.043145 0.215149 0.018031
v 0.049577 0.217239 0.011268
v 0.051931 0.218004 0.002030
v 0.049577 0.217239 -0.007208
v 0.043145 0.215149 -0.013971
v 0.028029 0.231775 -0.016447
v 0.019243 0.228920 -0.013971
v 0.012811 0.226830 -0.007208
v 0.010457 0.226065 0.002030
v 0.012811 0.226830 0.011268
v 0.019243 0.228920 0.018031
v 0.028029 0.231775 0.020507
v 0.036815 0.234630 0.018031
v 0.043247 0.236720 0.011268
v 0.045601 0.237485 0.002030
v 0.043247 0.236720 -0.007208
v 0.036815 0.234630 -0.013971
v 0.078827 0.111835 0.002030
v 0.077393 0.111369 -0.003594
v 0.068129 0.108359 0.013278
v 0.073478 0.110097 0.011771
v 0.057432 0.104883 0.002030
v 0.058865 0.105349 0.007654
v 0.073478 0.110097 -0.007711
v 0.068129 0.108359 -0.009218
v 0.062781 0.106621 -0.007711
v 0.077393 0.111369 0.007654
v 0.062781 0.106621 0.011771
v 0.058865 0.105349 -0.003594
v -0.018456 0.466374 0.002282
v -0.004020 0.379612 0.002258
v -0.022290 0.492486 0.002382
v -0.018197 0.466412 0.001727
v -0.020975 0.492755 0.001678
v -0.003876 0.379633 0.001751
vn 0.0001 -0.0000 1.0000
vn -0.0005 0.0007 1.0000
vn 0.0245 0.0299 0.9993
vn 0.0288 0.0092 0.9995
vn 0.0299 0.0049 0.9995
vn 0.0295 0.0053 0.9996
vn 0.0296 0.0046 0.9996
vn 0.0438 0.0078 0.9990
vn 0.0313 -0.0074 0.9995
vn -0.0001 -0.0000 -1.0000
vn -0.0265 0.0796 -0.9965
vn 0.0308 0.0076 -0.9995
vn 0.0298 0.0048 -0.9995
vn 0.0293 0.0052 -0.9996
vn 0.0294 0.0046 -0.9996
vn 0.0436 0.0078 -0.9990
vn 0.0312 -0.0074 -0.9995
vn -0.9921 -0.1254 -0.0000
vn 0.9201 0.3917 -0.0001
vn -0.0205 -0.9998 0.0003
vn 0.7803 0.6254 -0.0001
vn 0.9511 0.3090 -0.0001
vn -0.6333 -0.7739 0.0001
vn -0.9525 -0.3047 0.0001
vn -0.9872 -0.1597 0.0001
vn -0.9844 -0.1759 0.0001
vn -0.9880 -0.1544 0.0001
vn -0.6789 0.7343 -0.0000
vn -0.9731 0.2304 0.0001
vn -0.9064 0.4225 0.0001
vn 0.9324 0.2527 -0.2585
vn 0.2606 0.0345 0.9648
vn -0.9028 -0.3436 0.2585
vn 0.6865 0.1729 -0.7063
vn -0.2311 -0.1253 -0.9648
vn 0.6865 0.1729 0.7063
vn -0.6570 -0.2637 0.7063
vn 0.2606 0.0345 -0.9648
vn -0.6570 -0.2637 -0.7063
vn 0.9324 0.2527 0.2585
vn -0.2311 -0.1253 0.9648
vn 0.3090 -0.9511 -0.0000
vn 0.6725 0.2185 0.7071
vn -0.6725 -0.2185 0.7071
vn 0.2462 0.0800 -0.9659
vn -0.6725 -0.2185 -0.7071
vn 0.9186 0.2985 0.2588
vn -0.2462 -0.0800 0.9659
vn -0.9187 -0.2985 -0.2588
vn 0.9187 0.2985 -0.2588
vn 0.2462 0.0800 0.9659
vn -0.9187 -0.2985 0.2588
vn 0.6725 0.2185 -0.7071
vn -0.2462 -0.0800 -0.9659
vn -0.3090 0.9511 -0.0000
vn -0.9270 -0.2715 -0.2587
vn -0.2548 -0.0531 0.9655
vn 0.9096 0.3252 0.2587
vn -0.6810 -0.1916 -0.7068
vn 0.2373 0.1068 -0.9655
vn -0.6810 -0.1916 0.7068
vn 0.6635 0.2453 0.7068
vn -0.2548 -0.0531 -0.9655
vn 0.6635 0.2453 -0.7068
vn -0.9270 -0.2715 0.2587
vn 0.2373 0.1068 0.9655
vn 0.9096 0.3252 -0.2587
vn -0.9028 -0.3436 -0.2585
vn 0.0501 -0.0233 0.9985
vn 0.0500 -0.0234 -0.9985
vn 0.0299 0.0013 -0.9996
vn -0.0263 0.0796 0.9965
vn 0.0309 0.0077 0.9995
vn 0.0296 0.0043 0.9996
vn 0.0448 0.0027 0.9990
vn 0.0005 -0.0007 -1.0000
vn 0.0244 0.0298 -0.9993
vn 0.0286 0.0092 -0.9995
vn 0.0295 0.0042 -0.9996
vn 0.0446 0.0028 -0.9990
vn -0.9921 -0.1254 0.0001
vn 0.9201 0.3917 -0.0000
vn -0.0204 -0.9998 0.0001
vn 0.9186 0.2985 -0.2588
vn 0.2065 -0.0137 0.9783
vn 0.0301 0.0006 0.9995
vn 0.1992 -0.0056 -0.9800
vt 0.486815 0.629140
vt 0.486815 0.633899
vt 0.486815 0.626187
vt 0.486815 0.626122
vt 0.486815 0.627747
vt 0.486815 0.638370
vt 0.486815 0.636270
vt 0.486815 0.644357
vt 0.486815 0.642297
vt 0.486815 0.649702
vt 0.486815 0.662290
vt 0.486815 0.661417
vt 0.486815 0.683184
vt 0.486815 0.682342
vt 0.455602 0.753633
vt 0.455603 0.754367
vt 0.455603 0.765628
vt 0.486815 0.688800
vt 0.486816 0.633899
vt 0.486816 0.629140
vt 0.486816 0.626187
vt 0.486816 0.626122
vt 0.486816 0.635649
vt 0.486816 0.636270
vt 0.486816 0.649702
vt 0.486816 0.642297
vt 0.486815 0.662295
vt 0.486815 0.650873
vt 0.486816 0.661417
vt 0.486815 0.683193
vt 0.453073 0.753748
vt 0.453072 0.765628
vt 0.453072 0.754367
vt 0.486816 0.688800
vt 0.486816 0.682342
vt 0.486815 0.635649
vt 0.486816 0.627747
vt 0.486815 0.695138
vt 0.486815 0.696262
vt 0.486816 0.695138
vt 0.568723 0.898518
vt 0.568782 0.973574
vt 0.568782 0.898849
vt 0.568883 0.897617
vt 0.568955 0.969931
vt 0.568899 0.896388
vt 0.568841 0.894259
vt 0.568782 0.966290
vt 0.568782 0.893929
vt 0.568681 0.897617
vt 0.568695 0.973086
vt 0.568681 0.895159
vt 0.568609 0.969931
vt 0.568665 0.896388
vt 0.568841 0.898518
vt 0.568932 0.971753
vt 0.568883 0.895159
vt 0.568869 0.966777
vt 0.568632 0.971753
vt 0.568723 0.894259
vt 0.568632 0.968111
vt 0.568869 0.973086
vt 0.568932 0.968111
vt 0.584062 0.904307
vt 0.584158 0.892250
vt 0.583870 0.880198
vt 0.584133 0.946699
vt 0.584133 0.899212
vt 0.584133 0.885293
vt 0.584062 0.927688
vt 0.584062 0.880198
vt 0.583774 0.892250
vt 0.583800 0.946699
vt 0.583800 0.899212
vt 0.583800 0.932780
vt 0.583800 0.885293
vt 0.583966 0.906172
vt 0.584062 0.951793
vt 0.584133 0.932780
vt 0.583966 0.878335
vt 0.583870 0.927688
vt 0.583870 0.904307
vt 0.583966 0.953659
vt 0.584158 0.939739
vt 0.583966 0.925820
vt 0.583870 0.951793
vt 0.583774 0.939739
vt 0.568782 0.819687
vt 0.568707 0.820111
vt 0.568932 0.822845
vt 0.568912 0.821267
vt 0.568782 0.826004
vt 0.568857 0.825581
vt 0.568652 0.821267
vt 0.568652 0.824425
vt 0.568857 0.820111
vt 0.568912 0.824425
vt 0.568632 0.822845
vt 0.568707 0.825581
vt 0.568695 0.966777
vt 0.486815 0.689473
vt 0.455603 0.743106
vt 0.455603 0.705611
vt 0.455603 0.742524
vt 0.455603 0.685442
vt 0.455603 0.706140
vt 0.486815 0.689538
vt 0.453072 0.743106
vt 0.453072 0.742540
vt 0.453072 0.705620
vt 0.453072 0.706140
vt 0.453072 0.685442
s 0
usemtl Texture_Map
f 2/1/1 3/2/1 1/3/1
f 2/1/2 5/4/2 6/5/2
f 3/2/3 8/6/3 7/7/3
f 7/7/4 10/8/4 9/9/4
f 10/8/5 11/10/5 9/9/5
f 11/10/6 95/11/6 13/12/6
f 13/12/7 94/13/7 15/14/7
f 96/15/8 19/16/8 18/17/8
f 94/13/9 20/18/9 15/14/9
f 23/19/10 22/20/10 21/21/10
f 22/20/10 25/22/10 21/21/10
f 23/19/11 8/6/11 24/23/11
f 27/24/12 10/8/12 8/6/12
f 29/25/13 10/8/13 28/26/13
f 29/25/14 99/27/14 12/28/14
f 30/29/15 97/30/15 99/27/15
f 98/31/16 18/32/16 19/33/16
f 33/34/17 97/30/17 31/35/17
f 1/3/18 23/19/18 21/21/18
f 2/1/19 24/23/19 4/36/19
f 5/4/20 21/21/20 25/22/20
f 2/1/21 26/37/21 22/20/21
f 8/6/22 4/36/22 24/23/22
f 3/2/23 27/24/23 23/19/23
f 9/9/24 27/24/24 7/7/24
f 11/10/25 28/26/25 9/9/25
f 11/10/26 30/29/26 29/25/26
f 13/12/27 31/35/27 30/29/27
f 17/38/28 18/39/28 32/40/28
f 15/14/29 33/34/29 31/35/29
f 17/38/30 33/34/30 20/18/30
f 83/41/31 55/42/31 82/43/31
f 85/44/32 52/45/32 84/46/32
f 87/47/33 49/48/33 86/49/33
f 88/50/34 56/51/34 83/41/34
f 90/52/35 46/53/35 89/54/35
f 91/55/36 53/56/36 85/44/36
f 92/57/37 50/58/37 87/47/37
f 89/54/38 57/59/38 88/50/38
f 93/60/39 47/61/39 90/52/39
f 82/43/40 54/62/40 91/55/40
f 84/46/41 51/63/41 92/57/41
f 66/64/42 64/65/42 60/66/42
f 66/64/43 77/67/43 65/68/43
f 63/69/44 74/70/44 62/71/44
f 58/72/45 81/73/45 69/74/45
f 60/66/46 71/75/46 59/76/46
f 67/77/47 78/78/47 66/64/47
f 64/65/48 75/79/48 63/69/48
f 61/80/49 72/81/49 60/66/49
f 68/82/50 79/83/50 67/77/50
f 65/68/51 76/84/51 64/65/51
f 62/71/52 73/85/52 61/80/52
f 69/74/53 80/86/53 68/82/53
f 59/76/54 70/87/54 58/72/54
f 72/81/55 74/70/55 78/78/55
f 37/88/56 93/60/56 36/89/56
f 40/90/57 92/57/57 39/91/57
f 43/92/58 91/55/58 42/93/58
f 35/94/59 93/60/59 90/52/59
f 45/95/60 89/54/60 88/50/60
f 39/91/61 87/47/61 38/96/61
f 42/93/62 85/44/62 41/97/62
f 34/98/63 90/52/63 89/54/63
f 44/99/64 88/50/64 83/41/64
f 38/96/65 86/49/65 37/88/65
f 41/97/66 84/46/66 40/90/66
f 43/92/67 83/41/67 82/43/67
f 44/99/42 42/93/42 40/90/42
f 86/49/68 48/100/68 93/60/68
f 96/101/69 17/38/69 20/18/69
f 96/15/8 16/102/8 19/16/8
f 95/103/7 16/102/7 94/104/7
f 95/103/6 12/105/6 14/106/6
f 32/40/70 98/107/70 33/34/70
f 98/31/71 16/108/71 97/109/71
f 99/110/15 16/108/15 14/111/15
f 12/112/14 99/110/14 14/111/14
f 2/1/1 4/36/1 3/2/1
f 2/1/1 1/3/1 5/4/1
f 3/2/72 4/36/72 8/6/72
f 7/7/73 8/6/73 10/8/73
f 10/8/74 12/28/74 11/10/74
f 11/10/6 12/28/6 95/11/6
f 13/12/7 95/11/7 94/13/7
f 94/13/75 96/101/75 20/18/75
f 23/19/10 24/23/10 22/20/10
f 22/20/76 26/37/76 25/22/76
f 23/19/77 27/24/77 8/6/77
f 27/24/78 28/26/78 10/8/78
f 29/25/79 12/28/79 10/8/79
f 29/25/14 30/29/14 99/27/14
f 30/29/15 31/35/15 97/30/15
f 33/34/80 98/107/80 97/30/80
f 1/3/81 3/2/81 23/19/81
f 2/1/82 22/20/82 24/23/82
f 5/4/83 1/3/83 21/21/83
f 2/1/21 6/5/21 26/37/21
f 3/2/23 7/7/23 27/24/23
f 9/9/24 28/26/24 27/24/24
f 11/10/25 29/25/25 28/26/25
f 11/10/26 13/12/26 30/29/26
f 13/12/27 15/14/27 31/35/27
f 15/14/29 20/18/29 33/34/29
f 17/38/30 32/40/30 33/34/30
f 83/41/31 56/51/31 55/42/31
f 85/44/32 53/56/32 52/45/32
f 87/47/33 50/58/33 49/48/33
f 88/50/34 57/59/34 56/51/34
f 90/52/35 47/61/35 46/53/35
f 91/55/36 54/62/36 53/56/36
f 92/57/37 51/63/37 50/58/37
f 89/54/38 46/53/38 57/59/38
f 93/60/39 48/100/39 47/61/39
f 82/43/40 55/42/40 54/62/40
f 84/46/41 52/45/41 51/63/41
f 60/66/42 59/76/42 68/82/42
f 59/76/42 58/72/42 68/82/42
f 58/72/42 69/74/42 68/82/42
f 68/82/42 67/77/42 66/64/42
f 66/64/42 65/68/42 64/65/42
f 64/65/42 63/69/42 60/66/42
f 63/69/42 62/71/42 60/66/42
f 62/71/42 61/80/42 60/66/42
f 68/82/42 66/64/42 60/66/42
f 66/64/43 78/78/43 77/67/43
f 63/69/44 75/79/44 74/70/44
f 58/72/45 70/87/45 81/73/45
f 60/66/46 72/81/46 71/75/46
f 67/77/47 79/83/47 78/78/47
f 64/65/48 76/84/48 75/79/48
f 61/80/49 73/85/49 72/81/49
f 68/82/84 80/86/84 79/83/84
f 65/68/51 77/67/51 76/84/51
f 62/71/52 74/70/52 73/85/52
f 69/74/53 81/73/53 80/86/53
f 59/76/54 71/75/54 70/87/54
f 70/87/55 71/75/55 72/81/55
f 72/81/55 73/85/55 74/70/55
f 74/70/55 75/79/55 78/78/55
f 75/79/55 76/84/55 78/78/55
f 76/84/55 77/67/55 78/78/55
f 78/78/55 79/83/55 80/86/55
f 80/86/55 81/73/55 78/78/55
f 81/73/55 70/87/55 78/78/55
f 70/87/55 72/81/55 78/78/55
f 37/88/56 86/49/56 93/60/56
f 40/90/57 84/46/57 92/57/57
f 43/92/58 82/43/58 91/55/58
f 35/94/59 36/89/59 93/60/59
f 45/95/60 34/98/60 89/54/60
f 39/91/61 92/57/61 87/47/61
f 42/93/62 91/55/62 85/44/62
f 34/98/63 35/94/63 90/52/63
f 44/99/64 45/95/64 88/50/64
f 38/96/65 87/47/65 86/49/65
f 41/97/66 85/44/66 84/46/66
f 43/92/67 44/99/67 83/41/67
f 36/89/42 35/94/42 34/98/42
f 34/98/42 45/95/42 44/99/42
f 44/99/42 43/92/42 42/93/42
f 42/93/42 41/97/42 40/90/42
f 40/90/42 39/91/42 36/89/42
f 39/91/42 38/96/42 36/89/42
f 38/96/42 37/88/42 36/89/42
f 36/89/42 34/98/42 40/90/42
f 34/98/42 44/99/42 40/90/42
f 86/49/68 49/48/68 48/100/68
f 96/101/85 18/39/85 17/38/85
f 96/15/86 94/104/86 16/102/86
f 95/103/7 14/106/7 16/102/7
f 32/40/87 18/39/87 98/107/87
f 98/31/16 19/33/16 16/108/16
f 99/110/15 97/109/15 16/108/15
o Tool_Shear_01
v 0.000000 0.310368 0.003562
v -0.006546 0.307657 0.003562
v -0.009258 0.301110 0.003562
v -0.006546 0.294564 0.003562
v 0.000000 0.291852 0.003562
v 0.006546 0.294564 0.003562
v 0.009258 0.301110 0.003562
v 0.006546 0.307657 0.003562
v 0.000000 0.310368 -0.003562
v -0.006546 0.307657 -0.003562
v -0.009258 0.301110 -0.003562
v -0.006546 0.294564 -0.003562
v 0.000000 0.291852 -0.003562
v 0.006546 0.294564 -0.003562
v 0.009258 0.301110 -0.003562
v 0.006546 0.307657 -0.003562
vn -0.9239 -0.3827 -0.0000
vn -0.3827 0.9239 -0.0000
vn 0.3827 0.9239 -0.0000
vn 0.9239 -0.3827 -0.0000
vn -0.3827 -0.9239 -0.0000
vn -0.9239 0.3827 -0.0000
vn 0.9239 0.3827 -0.0000
vn 0.3827 -0.9239 -0.0000
vn -0.0000 -0.0000 1.0000
vn -0.0000 -0.0000 -1.0000
vt 0.592126 0.617952
vt 0.592133 0.620737
vt 0.592133 0.617952
vt 0.592126 0.624676
vt 0.592133 0.623522
vt 0.592126 0.623522
vt 0.592133 0.624676
vt 0.592126 0.620737
vt 0.592126 0.616798
vt 0.592133 0.616798
s 0
usemtl Texture_Map
f 103/113/88 110/114/88 111/115/88
f 100/116/89 109/117/89 101/118/89
f 107/118/90 108/119/90 100/116/90
f 105/113/91 114/114/91 106/120/91
f 104/121/92 111/115/92 112/122/92
f 101/118/93 110/114/93 102/120/93
f 106/120/94 115/117/94 107/118/94
f 104/121/95 113/115/95 105/113/95
f 107/118/96 100/116/96 104/121/96
f 114/114/97 112/122/97 110/114/97
f 103/113/88 102/120/88 110/114/88
f 100/116/89 108/119/89 109/117/89
f 107/118/90 115/117/90 108/119/90
f 105/113/91 113/115/91 114/114/91
f 104/121/92 103/113/92 111/115/92
f 101/118/93 109/117/93 110/114/93
f 106/120/94 114/114/94 115/117/94
f 104/121/95 112/122/95 113/115/95
f 100/116/96 101/118/96 102/120/96
f 102/120/96 103/113/96 100/116/96
f 103/113/96 104/121/96 100/116/96
f 104/121/96 105/113/96 106/120/96
f 106/120/96 107/118/96 104/121/96
f 110/114/97 109/117/97 108/119/97
f 108/119/97 115/117/97 110/114/97
f 115/117/97 114/114/97 110/114/97
f 114/114/97 113/115/97 112/122/97
f 112/122/97 111/115/97 110/114/97
o Tool_Shear_Left_01
v -0.006612 0.229808 -0.001005
v -0.035965 0.242070 -0.001007
v -0.002565 0.261830 -0.001005
v -0.024459 0.269095 -0.001007
v -0.019841 0.229537 -0.001006
v -0.040603 0.236283 -0.001001
v 0.009464 0.271673 -0.001005
v -0.020788 0.280392 -0.002007
v 0.017470 0.296701 -0.001005
v -0.014602 0.305255 -0.002007
v 0.022444 0.327447 -0.001005
v -0.010701 0.332312 -0.002007
v 0.031135 0.376096 -0.001005
v -0.002009 0.380961 -0.002008
v 0.044717 0.462984 -0.001007
v 0.011572 0.467849 -0.002009
v 0.026100 0.516115 -0.001009
v 0.021051 0.520784 -0.002010
v 0.016312 0.494316 -0.002009
v 0.038366 0.489800 -0.001008
v -0.006612 0.229807 -0.003005
v -0.035965 0.242070 -0.003007
v -0.002565 0.261830 -0.003005
v -0.024459 0.269095 -0.003007
v -0.019841 0.229537 -0.003006
v -0.040604 0.236283 -0.003001
v 0.009464 0.271673 -0.003005
v 0.017470 0.296701 -0.003005
v 0.022444 0.327447 -0.003005
v 0.031135 0.376096 -0.003005
v 0.044717 0.462984 -0.003007
v 0.026101 0.516115 -0.003009
v 0.038367 0.489800 -0.003008
v -0.099455 0.004529 -0.016423
v -0.092587 0.002298 -0.014488
v -0.087559 0.000664 -0.009201
v -0.085718 0.000066 -0.001979
v -0.087559 0.000664 0.005243
v -0.092587 0.002298 0.010529
v -0.099455 0.004529 0.012464
v -0.106323 0.006761 0.010529
v -0.111351 0.008395 0.005243
v -0.113192 0.008993 -0.001979
v -0.111351 0.008395 -0.009201
v -0.106323 0.006761 -0.014488
v -0.031914 0.212399 -0.018635
v -0.023994 0.209826 -0.016404
v -0.018196 0.207942 -0.010307
v -0.016073 0.207252 -0.001979
v -0.018196 0.207942 0.006349
v -0.023994 0.209826 0.012445
v -0.031914 0.212399 0.014677
v -0.039834 0.214973 0.012445
v -0.045632 0.216857 0.006349
v -0.047755 0.217546 -0.001979
v -0.045632 0.216857 -0.010307
v -0.039834 0.214973 -0.016404
v -0.031914 0.212399 -0.020456
v -0.023128 0.209544 -0.017980
v -0.016696 0.207455 -0.011218
v -0.014342 0.206690 -0.001979
v -0.016696 0.207455 0.007259
v -0.023128 0.209544 0.014022
v -0.031914 0.212399 0.016497
v -0.040700 0.215254 0.014022
v -0.047132 0.217344 0.007259
v -0.049486 0.218109 -0.001979
v -0.047132 0.217344 -0.011218
v -0.040700 0.215254 -0.017980
v -0.025584 0.231880 -0.020456
v -0.016798 0.229025 -0.017980
v -0.010366 0.226936 -0.011218
v -0.008012 0.226171 -0.001979
v -0.010366 0.226936 0.007259
v -0.016798 0.229025 0.014022
v -0.025584 0.231880 0.016497
v -0.034370 0.234735 0.014022
v -0.040802 0.236825 0.007259
v -0.043157 0.237590 -0.001979
v -0.040802 0.236825 -0.011218
v -0.034370 0.234735 -0.017980
v -0.076382 0.111940 -0.001979
v -0.074949 0.111474 -0.007603
v -0.065685 0.108464 0.009269
v -0.071033 0.110202 0.007762
v -0.054987 0.104989 -0.001979
v -0.056420 0.105454 0.003645
v -0.071033 0.110202 -0.011720
v -0.065684 0.108464 -0.013227
v -0.060336 0.106726 -0.011720
v -0.074949 0.111474 0.003645
v -0.060336 0.106726 0.007762
v -0.056420 0.105454 -0.007603
v 0.019415 0.466698 -0.001772
v 0.006904 0.379653 -0.001738
v 0.022543 0.493040 -0.001726
v 0.002323 0.363441 -0.001788
v 0.007595 0.379552 -0.002297
v 0.019667 0.466661 -0.002253
v 0.023653 0.492813 -0.002342
vn -0.0001 -0.0000 1.0000
vn 0.0263 0.0796 0.9965
vn -0.0309 0.0077 0.9995
vn -0.0299 0.0049 0.9995
vn -0.0295 0.0053 0.9996
vn -0.0296 0.0046 0.9996
vn -0.0438 0.0078 0.9990
vn -0.0313 -0.0074 0.9995
vn 0.0001 -0.0000 -1.0000
vn -0.0005 -0.0007 -1.0000
vn -0.0244 0.0298 -0.9993
vn -0.0286 0.0092 -0.9995
vn -0.0298 0.0048 -0.9995
vn -0.0293 0.0052 -0.9996
vn -0.0294 0.0046 -0.9996
vn -0.0436 0.0078 -0.9990
vn -0.0312 -0.0074 -0.9995
vn 0.9921 -0.1254 0.0001
vn -0.9201 0.3917 -0.0001
vn 0.0204 -0.9998 0.0001
vn -0.7803 0.6254 -0.0001
vn -0.9511 0.3090 -0.0001
vn 0.6333 -0.7739 0.0001
vn 0.9525 -0.3047 0.0001
vn 0.9872 -0.1597 0.0001
vn 0.9844 -0.1759 0.0001
vn 0.9880 -0.1544 0.0001
vn 0.6789 0.7343 -0.0000
vn 0.9731 0.2304 0.0001
vn 0.9064 0.4225 0.0001
vn -0.9324 0.2527 -0.2585
vn -0.2606 0.0345 0.9648
vn 0.9028 -0.3436 0.2585
vn -0.6865 0.1729 -0.7063
vn 0.2311 -0.1253 -0.9648
vn -0.6865 0.1729 0.7063
vn 0.6570 -0.2637 0.7063
vn -0.2606 0.0345 -0.9648
vn 0.6570 -0.2637 -0.7063
vn -0.9324 0.2527 0.2585
vn 0.2311 -0.1253 0.9648
vn -0.3090 -0.9511 -0.0000
vn -0.6725 0.2185 0.7071
vn 0.6725 -0.2185 0.7071
vn -0.2462 0.0800 -0.9659
vn 0.6725 -0.2185 -0.7071
vn -0.9186 0.2985 0.2588
vn 0.2462 -0.0800 0.9659
vn 0.9186 -0.2985 -0.2588
vn -0.9187 0.2985 -0.2588
vn -0.2462 0.0800 0.9659
vn 0.9187 -0.2985 0.2588
vn -0.6725 0.2185 -0.7071
vn 0.2462 -0.0800 -0.9659
vn 0.3090 0.9511 -0.0000
vn 0.9270 -0.2715 -0.2587
vn 0.2548 -0.0531 0.9655
vn -0.9096 0.3252 0.2587
vn 0.6810 -0.1916 -0.7068
vn -0.2373 0.1068 -0.9655
vn 0.6810 -0.1916 0.7068
vn -0.6635 0.2453 0.7068
vn 0.2548 -0.0531 -0.9655
vn -0.6635 0.2453 -0.7068
vn 0.9270 -0.2715 0.2587
vn -0.2373 0.1068 0.9655
vn -0.9096 0.3252 -0.2587
vn 0.9028 -0.3436 -0.2585
vn -0.0501 -0.0233 0.9985
vn -0.0300 0.0018 0.9995
vn -0.0500 -0.0234 -0.9985
vn 0.0005 0.0007 1.0000
vn -0.0245 0.0299 0.9993
vn -0.0288 0.0092 0.9995
vn -0.0296 0.0043 0.9996
vn -0.0446 0.0036 0.9990
vn 0.0265 0.0796 -0.9965
vn -0.0308 0.0076 -0.9995
vn -0.0295 0.0042 -0.9996
vn -0.0445 0.0034 -0.9990
vn 0.9921 -0.1254 -0.0000
vn -0.9201 0.3917 -0.0000
vn 0.0205 -0.9998 0.0003
vn -0.9187 0.2985 0.2588
vn -0.9186 0.2985 -0.2588
vn 0.9186 -0.2985 0.2588
vn -0.1948 -0.0005 0.9808
vn -0.2004 -0.0070 -0.9797
vn -0.0299 0.0012 -0.9996
vt 0.486817 0.633925
vt 0.486817 0.629166
vt 0.486817 0.626213
vt 0.486817 0.626148
vt 0.486817 0.638395
vt 0.486817 0.635674
vt 0.486817 0.636295
vt 0.486817 0.644382
vt 0.486817 0.649727
vt 0.486817 0.642322
vt 0.486817 0.661443
vt 0.486817 0.662300
vt 0.486817 0.658395
vt 0.486817 0.683262
vt 0.453076 0.753869
vt 0.453076 0.765673
vt 0.453076 0.754412
vt 0.486817 0.688826
vt 0.486817 0.682368
vt 0.486818 0.629166
vt 0.486818 0.633925
vt 0.486818 0.626213
vt 0.486818 0.626148
vt 0.486818 0.627772
vt 0.486818 0.636295
vt 0.486818 0.642322
vt 0.486818 0.649727
vt 0.486818 0.662275
vt 0.486818 0.661443
vt 0.486818 0.683253
vt 0.486818 0.682368
vt 0.453076 0.753773
vt 0.486818 0.688826
vt 0.486818 0.635674
vt 0.486817 0.627772
vt 0.486817 0.695163
vt 0.486818 0.695163
vt 0.486817 0.696288
vt 0.568740 0.973649
vt 0.568682 0.898593
vt 0.568740 0.898922
vt 0.568914 0.970006
vt 0.568842 0.897693
vt 0.568857 0.896464
vt 0.568740 0.966364
vt 0.568799 0.894333
vt 0.568740 0.894004
vt 0.568654 0.973160
vt 0.568639 0.897693
vt 0.568567 0.970006
vt 0.568639 0.895233
vt 0.568623 0.896464
vt 0.568890 0.971828
vt 0.568799 0.898593
vt 0.568827 0.966853
vt 0.568842 0.895233
vt 0.568590 0.971828
vt 0.568590 0.968186
vt 0.568682 0.894333
vt 0.568827 0.973160
vt 0.568890 0.968186
vt 0.583828 0.880455
vt 0.584021 0.880455
vt 0.584021 0.904564
vt 0.584091 0.946959
vt 0.584091 0.899469
vt 0.584021 0.927942
vt 0.584091 0.885550
vt 0.583758 0.946959
vt 0.583732 0.892510
vt 0.583758 0.899469
vt 0.583758 0.885550
vt 0.583828 0.927942
vt 0.584021 0.952051
vt 0.583924 0.906429
vt 0.584091 0.933040
vt 0.584117 0.892510
vt 0.583924 0.926080
vt 0.583924 0.878592
vt 0.583924 0.953916
vt 0.583828 0.904564
vt 0.584117 0.939999
vt 0.583828 0.952051
vt 0.583732 0.939999
vt 0.568665 0.820184
vt 0.568740 0.819762
vt 0.568891 0.822920
vt 0.568870 0.821341
vt 0.568740 0.826078
vt 0.568815 0.825654
vt 0.568610 0.821341
vt 0.568610 0.824500
vt 0.568590 0.822920
vt 0.568815 0.820184
vt 0.568870 0.824500
vt 0.568665 0.825654
vt 0.568654 0.966853
vt 0.486817 0.689606
vt 0.453076 0.698731
vt 0.453076 0.706185
vt 0.453076 0.685487
vt 0.453076 0.743151
vt 0.453076 0.742662
vt 0.453076 0.705628
vt 0.486818 0.689552
vt 0.453076 0.705585
vt 0.453076 0.742646
vt 0.486817 0.650898
vt 0.583758 0.933040
s 0
usemtl Texture_Map
f 118/123/98 117/124/98 116/125/98
f 117/124/98 120/126/98 116/125/98
f 118/123/99 123/127/99 119/128/99
f 122/129/100 125/130/100 123/127/100
f 126/131/101 125/130/101 124/132/101
f 128/133/102 210/134/102 212/135/102
f 128/133/103 209/136/103 210/134/103
f 211/137/104 133/138/104 134/139/104
f 135/140/105 209/136/105 130/141/105
f 137/142/106 138/143/106 136/144/106
f 137/142/107 140/145/107 141/146/107
f 138/143/108 123/127/108 142/147/108
f 142/147/109 125/130/109 143/148/109
f 125/130/110 144/149/110 143/148/110
f 144/149/111 213/150/111 145/151/111
f 145/151/112 214/152/112 146/153/112
f 215/154/113 134/139/113 133/138/113
f 214/152/114 148/155/114 146/153/114
f 116/125/115 138/143/115 118/123/115
f 139/156/116 117/124/116 119/128/116
f 120/126/117 136/144/117 116/125/117
f 117/124/118 141/146/118 121/157/118
f 123/127/119 139/156/119 119/128/119
f 138/143/120 122/129/120 118/123/120
f 142/147/121 124/132/121 122/129/121
f 124/132/122 144/149/122 126/131/122
f 144/149/123 128/133/123 126/131/123
f 145/151/124 130/141/124 128/133/124
f 132/158/125 147/159/125 133/160/125
f 130/141/126 148/155/126 135/140/126
f 148/155/127 132/158/127 135/140/127
f 170/161/128 198/162/128 197/163/128
f 167/164/129 200/165/129 199/166/129
f 164/167/130 202/168/130 201/169/130
f 171/170/131 203/171/131 198/162/131
f 161/172/132 205/173/132 204/174/132
f 168/175/133 206/176/133 200/165/133
f 165/177/134 207/178/134 202/168/134
f 172/179/135 204/174/135 203/171/135
f 162/180/136 208/181/136 205/173/136
f 169/182/137 197/163/137 206/176/137
f 166/183/138 199/166/138 207/178/138
f 175/184/139 177/185/139 181/186/139
f 192/187/140 181/186/140 180/188/140
f 189/189/141 178/190/141 177/185/141
f 196/191/142 173/192/142 184/193/142
f 174/194/143 187/195/143 175/184/143
f 193/196/144 182/197/144 181/186/144
f 190/198/145 179/199/145 178/190/145
f 175/184/146 188/200/146 176/201/146
f 194/202/147 183/203/147 182/197/147
f 191/204/148 180/188/148 179/199/148
f 176/201/149 189/189/149 177/185/149
f 195/205/150 184/193/150 183/203/150
f 185/206/151 174/194/151 173/192/151
f 193/196/152 191/204/152 187/195/152
f 151/207/153 201/169/153 152/208/153
f 207/178/154 155/209/154 154/210/154
f 206/176/155 158/211/155 157/212/155
f 150/213/156 208/181/156 151/207/156
f 160/214/157 204/174/157 149/215/157
f 202/168/158 154/210/158 153/216/158
f 200/165/159 157/212/159 156/217/159
f 149/215/160 205/173/160 150/213/160
f 198/162/161 160/214/161 159/218/161
f 201/169/162 153/216/162 152/208/162
f 199/166/163 156/217/163 155/209/163
f 197/163/164 159/218/164 158/211/164
f 153/216/139 157/212/139 149/215/139
f 163/219/165 201/169/165 208/181/165
f 132/158/166 211/220/166 135/140/166
f 212/221/102 129/222/102 127/223/102
f 211/137/167 131/224/167 209/225/167
f 210/226/103 131/224/103 129/222/103
f 215/227/168 147/159/168 148/155/168
f 213/228/111 127/223/111 129/222/111
f 215/154/113 131/224/113 134/139/113
f 213/228/112 131/224/112 214/229/112
f 118/123/98 119/128/98 117/124/98
f 117/124/169 121/157/169 120/126/169
f 118/123/170 122/129/170 123/127/170
f 122/129/171 124/132/171 125/130/171
f 126/131/172 127/230/172 125/130/172
f 127/230/102 126/131/102 212/135/102
f 126/131/102 128/133/102 212/135/102
f 128/133/103 130/141/103 209/136/103
f 135/140/173 211/220/173 209/136/173
f 137/142/106 139/156/106 138/143/106
f 137/142/106 136/144/106 140/145/106
f 138/143/174 139/156/174 123/127/174
f 142/147/175 123/127/175 125/130/175
f 125/130/176 127/230/176 144/149/176
f 144/149/111 127/230/111 213/150/111
f 145/151/112 213/150/112 214/152/112
f 214/152/177 215/227/177 148/155/177
f 116/125/178 136/144/178 138/143/178
f 139/156/179 137/142/179 117/124/179
f 120/126/180 140/145/180 136/144/180
f 117/124/118 137/142/118 141/146/118
f 138/143/120 142/147/120 122/129/120
f 142/147/121 143/148/121 124/132/121
f 124/132/122 143/148/122 144/149/122
f 144/149/123 145/151/123 128/133/123
f 145/151/124 146/153/124 130/141/124
f 130/141/126 146/153/126 148/155/126
f 148/155/127 147/159/127 132/158/127
f 170/161/128 171/170/128 198/162/128
f 167/164/129 168/175/129 200/165/129
f 164/167/130 165/177/130 202/168/130
f 171/170/131 172/179/131 203/171/131
f 161/172/132 162/180/132 205/173/132
f 168/175/133 169/182/133 206/176/133
f 165/177/134 166/183/134 207/178/134
f 172/179/135 161/172/135 204/174/135
f 162/180/136 163/219/136 208/181/136
f 169/182/137 170/161/137 197/163/137
f 166/183/138 167/164/138 199/166/138
f 173/192/139 174/194/139 175/184/139
f 175/184/139 176/201/139 177/185/139
f 177/185/139 178/190/139 181/186/139
f 178/190/139 179/199/139 181/186/139
f 179/199/139 180/188/139 181/186/139
f 181/186/139 182/197/139 183/203/139
f 183/203/139 184/193/139 181/186/139
f 184/193/139 173/192/139 181/186/139
f 173/192/139 175/184/139 181/186/139
f 192/187/140 193/196/140 181/186/140
f 189/189/141 190/198/141 178/190/141
f 196/191/142 185/206/142 173/192/142
f 174/194/143 186/231/143 187/195/143
f 193/196/181 194/202/181 182/197/181
f 190/198/145 191/204/145 179/199/145
f 175/184/146 187/195/146 188/200/146
f 194/202/182 195/205/182 183/203/182
f 191/204/148 192/187/148 180/188/148
f 176/201/183 188/200/183 189/189/183
f 195/205/150 196/191/150 184/193/150
f 185/206/151 186/231/151 174/194/151
f 187/195/152 186/231/152 185/206/152
f 185/206/152 196/191/152 187/195/152
f 196/191/152 195/205/152 187/195/152
f 195/205/152 194/202/152 193/196/152
f 193/196/152 192/187/152 191/204/152
f 191/204/152 190/198/152 187/195/152
f 190/198/152 189/189/152 187/195/152
f 189/189/152 188/200/152 187/195/152
f 195/205/152 193/196/152 187/195/152
f 151/207/153 208/181/153 201/169/153
f 207/178/154 199/166/154 155/209/154
f 206/176/155 197/163/155 158/211/155
f 150/213/156 205/173/156 208/181/156
f 160/214/157 203/171/157 204/174/157
f 202/168/158 207/178/158 154/210/158
f 200/165/159 206/176/159 157/212/159
f 149/215/160 204/174/160 205/173/160
f 198/162/161 203/171/161 160/214/161
f 201/169/162 202/168/162 153/216/162
f 199/166/163 200/165/163 156/217/163
f 197/163/164 198/162/164 159/218/164
f 149/215/139 150/213/139 151/207/139
f 151/207/139 152/208/139 153/216/139
f 153/216/139 154/210/139 157/212/139
f 154/210/139 155/209/139 157/212/139
f 155/209/139 156/217/139 157/212/139
f 157/212/139 158/211/139 159/218/139
f 159/218/139 160/214/139 149/215/139
f 149/215/139 151/207/139 153/216/139
f 157/212/139 159/218/139 149/215/139
f 163/219/165 164/167/165 201/169/165
f 132/158/184 133/160/184 211/220/184
f 212/221/102 210/226/102 129/222/102
f 211/137/104 134/139/104 131/224/104
f 210/226/103 209/225/103 131/224/103
f 215/227/185 133/160/185 147/159/185
f 215/154/186 214/229/186 131/224/186
f 213/228/112 129/222/112 131/224/112
