# Blender 4.4.0
# www.blender.org
mtllib Tool_Hand_Scythe_02.mtl
o Tool_Hand_Scythe_02
v 0.019738 0.103188 -0.005598
v 0.005598 0.103188 -0.019738
v 0.019738 0.103188 0.005598
v 0.005598 0.103188 0.019738
v -0.019738 0.103188 0.005598
v -0.005598 0.103188 0.019738
v -0.019738 0.103188 -0.005598
v -0.005598 0.103188 -0.019738
v 0.017708 0.000000 0.004257
v 0.004257 0.000000 0.017708
v -0.004257 0.000000 0.017708
v -0.017708 0.000000 0.004257
v -0.017708 0.000000 -0.004257
v -0.004257 0.000000 -0.017708
v 0.004257 0.000000 -0.017708
v 0.017708 0.000000 -0.004257
v -0.006684 0.031948 -0.023567
v -0.023567 0.031948 -0.006684
v -0.006684 0.031948 0.023567
v -0.023567 0.031948 0.006684
v 0.006684 0.031948 0.023567
v 0.023567 0.031948 0.006684
v 0.006684 0.031948 -0.023567
v 0.023567 0.031948 -0.006684
v -0.015698 0.210795 0.006483
v -0.019362 0.206813 0.007903
v -0.006483 0.210795 0.015698
v -0.007903 0.206813 0.019362
v 0.006483 0.210795 0.015698
v 0.007903 0.206813 0.019362
v 0.015698 0.210795 0.006483
v 0.019362 0.206813 0.007903
v -0.006483 0.210795 -0.015698
v -0.007903 0.206813 -0.019362
v -0.015698 0.210795 -0.006483
v -0.019362 0.206813 -0.007903
v 0.015698 0.210795 -0.006483
v 0.019362 0.206813 -0.007903
v 0.006483 0.210795 -0.015698
v 0.007903 0.206813 -0.019362
v 0.017708 0.002469 -0.004257
v 0.023567 0.008328 -0.006684
v 0.004257 0.002469 -0.017708
v 0.006684 0.008328 -0.023567
v 0.017708 0.002469 0.004257
v 0.023567 0.008328 0.006684
v 0.004257 0.002469 0.017708
v 0.006684 0.008328 0.023567
v -0.017708 0.002469 0.004257
v -0.023567 0.008328 0.006684
v -0.004257 0.002469 0.017708
v -0.006684 0.008328 0.023567
v -0.017708 0.002469 -0.004257
v -0.023567 0.008328 -0.006684
v -0.004257 0.002469 -0.017708
v -0.006684 0.008328 -0.023567
v -0.015151 0.210795 0.006257
v -0.006257 0.210795 0.015151
v 0.006257 0.210795 0.015151
v 0.015151 0.210795 0.006257
v -0.006257 0.210795 -0.015151
v -0.015151 0.210795 -0.006257
v 0.015151 0.210795 -0.006257
v 0.006257 0.210795 -0.015151
v 0.006257 0.228264 -0.015151
v 0.005221 0.230461 -0.012648
v 0.012648 0.230461 -0.005220
v 0.015151 0.228264 -0.006257
v -0.006257 0.228264 0.015151
v -0.005220 0.230461 0.012648
v -0.012648 0.230461 0.005221
v -0.015151 0.228264 0.006257
v 0.015151 0.228264 0.006257
v 0.012648 0.230461 0.005221
v 0.005221 0.230461 0.012648
v 0.006257 0.228264 0.015151
v -0.015151 0.228264 -0.006257
v -0.012648 0.230461 -0.005220
v -0.005220 0.230461 -0.012648
v -0.006257 0.228264 -0.015151
v -0.006804 0.230179 0.005482
v 0.007415 0.230179 0.005482
v -0.006804 0.230179 -0.005482
v 0.007415 0.230179 -0.005482
v -0.005863 0.246702 -0.005482
v -0.005863 0.246702 0.005482
v 0.008120 0.244124 0.005482
v 0.008120 0.244124 -0.005482
v 0.012292 0.283345 -0.005482
v 0.012292 0.283345 0.005482
v 0.026133 0.276218 0.005482
v 0.026133 0.276218 -0.005482
v 0.113821 0.417014 -0.005482
v 0.113821 0.417014 0.005482
v 0.125922 0.409989 0.005482
v 0.125922 0.409989 -0.005482
v 0.124521 0.430601 -0.005482
v 0.124521 0.430601 0.005482
v 0.134745 0.424941 0.005482
v 0.134745 0.424941 -0.005482
v 0.125743 0.437459 -0.004203
v 0.125743 0.437459 0.004203
v 0.138100 0.435495 0.004203
v 0.138100 0.435495 -0.004203
v 0.119725 0.441149 -0.002726
v 0.119725 0.441149 0.002726
v 0.125226 0.452485 0.002726
v 0.125226 0.452485 -0.002726
v 0.123420 0.439921 -0.003071
v 0.134200 0.446116 -0.003071
v 0.134200 0.446116 0.003071
v 0.123420 0.439921 0.003071
v 0.115135 0.438142 -0.001977
v 0.115135 0.438142 0.001977
v 0.114836 0.456644 0.001797
v 0.114836 0.456644 -0.001797
v 0.094597 0.451228 -0.001977
v 0.094597 0.451228 0.001977
v 0.095838 0.464517 0.001318
v 0.095838 0.464517 -0.001318
v 0.034428 0.471272 -0.001977
v 0.034428 0.471272 0.001977
v 0.034986 0.483196 0.001285
v 0.034986 0.483196 -0.001285
v -0.036129 0.488216 -0.001977
v -0.036129 0.488216 0.001977
v -0.033524 0.501163 0.001511
v -0.033524 0.501163 -0.001511
v -0.125268 0.497273 -0.001977
v -0.125268 0.497273 0.001977
v -0.125119 0.510425 0.001192
v -0.125119 0.510425 -0.001192
v -0.175039 0.487566 -0.001977
v -0.175039 0.487566 0.001977
v -0.175709 0.498057 0.001347
v -0.175709 0.498057 -0.001347
v -0.210547 0.469505 -0.001977
v -0.210547 0.469505 0.001977
v -0.213469 0.479996 0.001295
v -0.213469 0.479996 -0.001295
v -0.245071 0.449854 -0.000797
v -0.245071 0.449854 0.000797
v -0.234117 0.463302 0.001149
v -0.234117 0.463302 -0.001149
v 0.077806 0.392113 -0.000000
v 0.040031 0.406587 -0.000000
v -0.003194 0.419679 0.000000
v -0.046992 0.431979 0.000000
v -0.106277 0.442545 0.000000
v -0.150797 0.445345 0.000000
v -0.187101 0.444722 0.000000
v -0.245215 0.443644 0.000000
v 0.049428 0.443285 -0.001253
v 0.049428 0.443285 0.001253
v 0.055608 0.458203 -0.001788
v 0.055608 0.458203 0.001788
v 0.049428 0.458203 -0.001723
v 0.049428 0.458203 0.001723
v 0.059977 0.453834 -0.001696
v 0.059977 0.453834 0.001696
v 0.045059 0.447655 -0.001345
v 0.045059 0.447655 0.001345
v 0.059977 0.447655 -0.001502
v 0.059977 0.447655 0.001502
v 0.055608 0.443285 -0.001318
v 0.055608 0.443285 0.001318
v 0.045059 0.453834 -0.001540
v 0.045059 0.453834 0.001540
v -0.044152 0.446685 0.000517
v 0.006644 0.433170 0.000517
v -0.157136 0.456386 0.000517
v -0.111243 0.456856 0.000517
v -0.245178 0.445268 0.000208
v -0.193232 0.451202 0.000517
v -0.044152 0.446685 -0.000517
v -0.245178 0.445268 -0.000208
v -0.111243 0.456856 -0.000517
v -0.193232 0.451202 -0.000517
v 0.006644 0.433170 -0.000517
v -0.157136 0.456386 -0.000517
v 0.048252 0.413313 0.000298
v 0.078226 0.392630 -0.000022
v 0.048176 0.413251 -0.000295
vn 0.7071 -0.0000 0.7071
vn 0.7070 -0.0132 0.7070
vn 0.7070 -0.0132 -0.7070
vn -0.0000 0.0036 1.0000
vn -0.7070 -0.0132 -0.7070
vn -0.9986 0.0537 -0.0000
vn -0.0000 1.0000 -0.0000
vn -1.0000 -0.0000 -0.0000
vn -0.0000 0.0537 0.9986
vn 0.7063 0.0487 -0.7063
vn -1.0000 0.0036 -0.0000
vn 0.7063 0.0487 0.7063
vn -0.7070 -0.0132 0.7070
vn 1.0000 0.0036 -0.0000
vn 1.0000 -0.0000 -0.0000
vn -0.0000 0.0036 -1.0000
vn -0.0000 0.0537 -0.9986
vn 0.5249 0.6701 -0.5249
vn -0.0000 -1.0000 -0.0000
vn -0.5249 0.6701 0.5249
vn -0.7063 0.0487 0.7063
vn -0.7063 0.0487 -0.7063
vn 0.5249 0.6701 0.5249
vn 0.7071 -0.0000 -0.7071
vn -0.5249 0.6701 -0.5249
vn -0.7071 -0.0000 -0.7071
vn -0.0000 -0.0000 1.0000
vn 0.9986 0.0537 -0.0000
vn -0.0000 -0.0000 -1.0000
vn -0.7359 0.6771 -0.0000
vn -0.0000 0.6771 0.7359
vn 0.7359 0.6771 -0.0000
vn -0.0000 0.6771 -0.7359
vn -0.7071 -0.0000 0.7071
vn 0.5000 -0.7071 -0.5000
vn -0.0000 -0.7071 -0.7071
vn -0.7071 -0.7071 -0.0000
vn -0.5000 -0.7071 0.5000
vn -0.0000 -0.7071 0.7071
vn -0.5000 -0.7071 -0.5000
vn 0.7071 -0.7071 -0.0000
vn 0.5000 -0.7071 0.5000
vn 0.4665 0.7515 -0.4665
vn -0.4665 0.7515 0.4665
vn 0.4665 0.7515 0.4665
vn -0.4665 0.7515 -0.4665
vn -0.6598 0.7515 -0.0000
vn -0.0000 0.7515 0.6598
vn 0.6598 0.7515 -0.0000
vn -0.0000 0.7515 -0.6598
vn 0.8720 -0.4894 -0.0000
vn 0.9987 -0.0505 -0.0000
vn -0.9984 0.0568 -0.0000
vn -0.8960 0.4440 -0.0000
vn 0.8015 -0.5979 -0.0000
vn 0.8612 -0.5082 -0.0000
vn 0.0566 0.1023 -0.9931
vn -0.7856 0.6187 -0.0000
vn -0.0172 0.0299 -0.9994
vn 0.0283 0.1783 0.9836
vn 0.9530 -0.3029 -0.0000
vn -0.9845 0.1755 -0.0000
vn -0.1655 0.0069 0.9862
vn -0.0801 0.0389 0.9960
vn 0.5788 0.8155 -0.0000
vn -0.3153 -0.9490 -0.0000
vn -0.7272 -0.6864 -0.0000
vn 0.9387 0.3447 -0.0000
vn -0.1621 0.2820 0.9456
vn 0.0179 0.1125 -0.9935
vn -0.0045 0.0499 -0.9987
vn 0.3716 0.9284 -0.0000
vn 0.5479 -0.8365 -0.0000
vn -0.0746 0.0362 -0.9966
vn 0.2934 0.9560 -0.0000
vn 0.0062 0.0098 0.9999
vn 0.3828 0.9238 -0.0000
vn -0.0180 -0.0283 0.9994
vn 0.2537 0.9673 -0.0000
vn 0.7767 -0.6299 -0.0000
vn 0.0170 0.0571 -0.9982
vn 0.0160 0.0480 0.9987
vn 0.0001 0.0359 -0.9994
vn -0.0105 -0.0315 0.9995
vn 0.0121 0.0335 -0.9994
vn 0.0138 0.0573 0.9983
vn -0.2375 0.9714 -0.0000
vn 0.0060 0.0595 0.9982
vn 0.1006 0.9949 -0.0000
vn -0.0058 -0.0381 -0.9993
vn -0.0116 -0.0301 -0.9995
vn -0.0115 0.0597 -0.9981
vn -0.0115 0.0592 0.9982
vn -0.0485 0.0513 -0.9975
vn -0.0291 0.0581 -0.9979
vn -0.0289 0.0568 0.9980
vn -0.4315 0.9021 -0.0000
vn -0.7754 0.6315 -0.0000
vn -0.0359 0.0030 0.9994
vn -0.6287 0.7776 -0.0000
vn 0.0014 -0.0782 0.9969
vn 0.0008 -0.0463 0.9989
vn -0.0085 -0.0321 0.9994
vn 0.0087 -0.1275 -0.9918
vn -0.0105 -0.0315 -0.9995
vn 0.0101 -0.0701 -0.9975
vn -0.0094 -0.0333 -0.9994
vn -0.0023 -0.0369 0.9993
vn -0.0061 -0.0340 0.9994
vn 0.0005 -0.0465 -0.9989
vn -0.7071 0.7071 -0.0000
vn 0.7071 0.7071 -0.0000
vn -0.7963 0.6049 -0.0000
vn -0.9997 0.0233 -0.0000
vn -0.0052 -0.0341 0.9994
vn 0.0004 -0.0360 0.9994
vn -0.0078 -0.0326 0.9994
vn 0.0062 -0.0432 0.9990
vn -0.0100 -0.0320 0.9994
vn 0.0082 -0.0421 -0.9991
vn -0.0089 -0.0334 -0.9994
vn 0.0273 -0.0538 -0.9982
vn 0.0390 -0.1281 -0.9910
vn -0.0116 -0.0301 0.9995
vn -0.0038 -0.0374 -0.9993
vn 0.0029 -0.0768 0.9970
vn -0.0095 -0.0314 -0.9995
vn 0.0283 0.1783 -0.9836
vn -0.0801 0.0389 -0.9960
vn 0.0566 0.1023 0.9931
vn -0.0746 0.0362 0.9966
vn -0.0172 0.0299 0.9994
vn 0.9387 0.3448 -0.0000
vn 0.0179 0.1125 0.9935
vn -0.1621 0.2820 -0.9456
vn 0.0062 0.0098 -0.9999
vn -0.1655 0.0069 -0.9862
vn -0.0045 0.0499 0.9987
vn 0.7767 -0.6299 -0.0005
vn 0.0160 0.0480 -0.9987
vn 0.0170 0.0571 0.9982
vn 0.0060 0.0595 -0.9982
vn -0.0097 -0.0314 0.9995
vn -0.0098 -0.0312 0.9995
vn 0.0138 0.0573 -0.9983
vn 0.0121 0.0335 0.9994
vn 0.0001 0.0359 0.9994
vn -0.0061 -0.0340 -0.9994
vn -0.0180 -0.0283 -0.9994
vn -0.0115 0.0592 -0.9982
vn -0.0115 0.0597 0.9981
vn -0.0359 0.0030 -0.9994
vn -0.0289 0.0568 -0.9980
vn -0.0291 0.0581 0.9979
vn -0.0485 0.0513 0.9975
vn 0.0087 -0.1275 0.9918
vn 0.0101 -0.0701 0.9975
vn -0.0094 -0.0333 0.9994
vn 0.0014 -0.0782 -0.9969
vn -0.0098 -0.0312 -0.9995
vn -0.0097 -0.0314 -0.9995
vn 0.0008 -0.0463 -0.9989
vn -0.0085 -0.0321 -0.9994
vn 0.0005 -0.0465 0.9989
vn -0.0058 -0.0381 0.9993
vn -0.0023 -0.0369 -0.9993
vn -0.0038 -0.0374 0.9993
vn 0.0082 -0.0421 0.9991
vn -0.0089 -0.0334 0.9994
vn 0.0273 -0.0538 0.9982
vn -0.0095 -0.0314 0.9995
vn 0.0004 -0.0360 -0.9994
vn -0.0078 -0.0326 -0.9994
vn 0.0062 -0.0432 -0.9990
vn 0.0029 -0.0768 -0.9970
vn -0.0052 -0.0341 -0.9994
vn 0.0390 -0.1281 0.9910
vn -0.0131 -0.0323 -0.9994
vn -0.0100 -0.0320 -0.9994
vt 0.202842 0.831080
vt 0.202666 0.815033
vt 0.202666 0.831080
vt 0.202802 0.879480
vt 0.202679 0.949883
vt 0.202798 0.949883
vt 0.202395 0.949883
vt 0.202538 0.879480
vt 0.202391 0.879480
vt 0.202514 0.949883
vt 0.202654 0.879480
vt 0.202664 0.952587
vt 0.202433 0.952587
vt 0.202529 0.952587
vt 0.202527 0.815033
vt 0.202527 0.831080
vt 0.202351 0.831080
vt 0.202780 0.809376
vt 0.202552 0.809376
vt 0.202412 0.809376
vt 0.202760 0.952587
vt 0.202351 0.815033
vt 0.202842 0.815033
vt 0.202552 0.811054
vt 0.202412 0.811054
vt 0.202641 0.811054
vt 0.202780 0.811054
vt 0.202641 0.809376
vt 0.455714 0.614085
vt 0.455714 0.620356
vt 0.455684 0.614085
vt 0.455692 0.620356
vt 0.455684 0.620356
vt 0.455705 0.614085
vt 0.455711 0.621144
vt 0.455704 0.621144
vt 0.455692 0.614085
vt 0.455705 0.620356
vt 0.455693 0.621144
vt 0.455686 0.621144
vt 0.455704 0.660697
vt 0.455693 0.672218
vt 0.455693 0.660697
vt 0.455704 0.655691
vt 0.455693 0.655691
vt 0.455704 0.661623
vt 0.455693 0.661623
vt 0.455704 0.674776
vt 0.455704 0.672218
vt 0.455693 0.674776
vt 0.455704 0.722760
vt 0.455693 0.720239
vt 0.455693 0.722760
vt 0.455704 0.720239
vt 0.455693 0.725606
vt 0.455704 0.727637
vt 0.455703 0.729394
vt 0.455704 0.725606
vt 0.455693 0.727637
vt 0.455702 0.730983
vt 0.455701 0.735493
vt 0.455702 0.733207
vt 0.455694 0.729394
vt 0.455694 0.730099
vt 0.455703 0.730099
vt 0.455696 0.731424
vt 0.455697 0.736986
vt 0.455697 0.730345
vt 0.455696 0.730983
vt 0.455696 0.735493
vt 0.455696 0.733207
vt 0.455701 0.731424
vt 0.455700 0.736986
vt 0.455701 0.735042
vt 0.455700 0.739812
vt 0.455701 0.730345
vt 0.455697 0.746518
vt 0.455697 0.739812
vt 0.455697 0.735042
vt 0.455699 0.713822
vt 0.455700 0.746518
vt 0.455697 0.752968
vt 0.455699 0.714007
vt 0.455701 0.742237
vt 0.455697 0.742237
vt 0.455701 0.748320
vt 0.455700 0.756292
vt 0.455700 0.752968
vt 0.455698 0.721432
vt 0.455697 0.732191
vt 0.455697 0.732191
vt 0.455697 0.748320
vt 0.455697 0.751853
vt 0.455697 0.756292
vt 0.455697 0.751571
vt 0.468199 0.773411
vt 0.468199 0.771925
vt 0.468199 0.777062
vt 0.455699 0.721409
vt 0.455701 0.751571
vt 0.455700 0.751853
vt 0.455697 0.748086
vt 0.455701 0.741603
vt 0.455700 0.739377
vt 0.455700 0.745369
vt 0.455701 0.748086
vt 0.455697 0.745369
vt 0.455697 0.741603
vt 0.455697 0.739377
vt 0.455699 0.734549
vt 0.455698 0.734549
vt 0.468198 0.775033
vt 0.468199 0.772320
vt 0.468199 0.772706
vt 0.468198 0.776894
vt 0.468199 0.772930
vt 0.468198 0.773411
vt 0.468199 0.763717
vt 0.468198 0.768560
vt 0.468199 0.775033
vt 0.468199 0.772903
vt 0.455700 0.732191
vt 0.455700 0.733759
vt 0.468199 0.776894
vt 0.468199 0.768132
vt 0.468198 0.777062
vt 0.455697 0.737546
vt 0.455697 0.733759
vt 0.455700 0.735977
vt 0.455697 0.735977
vt 0.455700 0.737546
vt 0.455697 0.735977
vt 0.455700 0.737546
vt 0.455700 0.735977
vt 0.455697 0.733759
vt 0.455700 0.733759
vt 0.455697 0.737546
vt 0.455699 0.732903
vt 0.455698 0.732903
vt 0.455698 0.737063
vt 0.455698 0.733411
vt 0.455698 0.736894
vt 0.455698 0.728560
vt 0.455698 0.735033
vt 0.468199 0.759017
vt 0.468198 0.761432
vt 0.455699 0.736894
vt 0.455699 0.728560
vt 0.455699 0.733411
vt 0.455699 0.735033
vt 0.468199 0.753822
vt 0.455699 0.737063
vt 0.468199 0.761409
vt 0.468199 0.768560
vt 0.468198 0.772903
vt 0.455700 0.732191
vt 0.455699 0.732320
vt 0.468199 0.754007
s 0
usemtl Texture_Map
f 21/1/1 46/2/1 22/3/1
f 4/4/2 32/5/2 30/6/2
f 40/7/3 1/8/3 2/9/3
f 6/4/4 30/6/4 28/6/4
f 8/9/5 36/10/5 34/7/5
f 7/8/6 20/3/6 5/11/6
f 31/12/7 39/13/7 35/14/7
f 20/3/8 54/15/8 50/2/8
f 6/4/9 21/1/9 4/4/9
f 2/9/10 24/16/10 23/17/10
f 5/11/11 36/10/11 7/8/11
f 4/4/12 22/3/12 3/11/12
f 28/6/13 5/11/13 6/4/13
f 1/8/14 32/5/14 3/11/14
f 22/3/15 42/15/15 24/16/15
f 8/9/16 40/7/16 2/9/16
f 2/9/17 17/17/17 8/9/17
f 37/14/18 40/7/18 39/13/18
f 11/18/19 13/19/19 15/20/19
f 25/12/20 28/6/20 27/21/20
f 5/11/21 19/1/21 6/4/21
f 7/8/22 17/17/22 18/16/22
f 29/21/23 32/5/23 31/12/23
f 24/16/24 44/22/24 23/17/24
f 35/14/25 34/7/25 36/10/25
f 17/17/26 54/15/26 18/16/26
f 19/1/27 48/23/27 21/1/27
f 3/11/28 24/16/28 1/8/28
f 23/17/29 56/22/29 17/17/29
f 35/14/30 26/5/30 25/12/30
f 30/6/31 27/21/31 28/6/31
f 32/5/32 37/14/32 31/12/32
f 34/7/33 39/13/33 40/7/33
f 20/3/34 52/23/34 19/1/34
f 41/24/35 44/22/35 42/15/35
f 44/22/36 55/25/36 56/22/36
f 54/15/37 49/26/37 50/2/37
f 49/26/38 52/23/38 50/2/38
f 52/23/39 47/27/39 48/23/39
f 56/22/40 53/24/40 54/15/40
f 42/15/41 45/26/41 41/24/41
f 48/23/42 45/26/42 46/2/42
f 43/25/29 14/20/29 55/25/29
f 49/26/34 11/18/34 51/27/34
f 55/25/26 13/19/26 53/24/26
f 51/27/27 10/18/27 47/27/27
f 47/27/1 9/28/1 45/26/1
f 41/24/24 15/20/24 43/25/24
f 45/26/15 16/19/15 41/24/15
f 53/24/8 12/28/8 49/26/8
f 61/29/29 65/30/29 64/29/29
f 59/31/1 73/32/1 76/33/1
f 62/34/26 80/30/26 61/29/26
f 66/35/7 79/35/7 78/36/7
f 60/37/15 68/38/15 73/32/15
f 57/37/8 77/38/8 62/34/8
f 59/31/27 69/33/27 58/31/27
f 58/31/34 72/32/34 57/37/34
f 66/35/43 68/38/43 65/30/43
f 71/39/44 69/33/44 70/40/44
f 74/39/45 76/33/45 73/32/45
f 79/35/46 77/38/46 78/36/46
f 78/36/47 72/32/47 71/39/47
f 75/40/48 69/33/48 76/33/48
f 67/36/49 73/32/49 68/38/49
f 66/35/50 80/30/50 79/35/50
f 63/34/24 65/30/24 68/38/24
f 88/41/51 91/42/51 87/43/51
f 84/44/52 87/43/52 82/45/52
f 81/45/53 85/46/53 83/44/53
f 83/44/29 88/41/29 84/44/29
f 81/45/27 87/43/27 86/47/27
f 86/47/54 89/48/54 85/46/54
f 88/41/29 89/48/29 92/49/29
f 87/43/27 90/50/27 86/47/27
f 93/51/29 92/49/29 89/48/29
f 92/49/55 95/52/55 91/42/55
f 91/42/27 94/53/27 90/50/27
f 96/54/56 99/55/56 95/52/56
f 97/56/57 104/57/57 100/58/57
f 94/53/58 97/56/58 93/51/58
f 96/54/29 97/56/29 100/58/29
f 95/52/27 98/59/27 94/53/27
f 109/60/59 108/61/59 110/62/59
f 98/59/60 103/63/60 102/64/60
f 99/55/61 104/57/61 103/63/61
f 98/59/62 101/65/62 97/56/62
f 106/66/63 115/67/63 114/68/63
f 112/69/64 107/70/64 106/66/64
f 111/71/65 108/61/65 107/70/65
f 112/69/66 105/72/66 109/60/66
f 102/64/67 109/60/67 101/65/67
f 103/63/68 110/62/68 111/71/68
f 102/64/69 111/71/69 112/69/69
f 101/65/70 110/62/70 104/57/70
f 116/73/71 117/74/71 120/75/71
f 108/61/72 115/67/72 107/70/72
f 105/72/73 114/68/73 113/76/73
f 105/72/74 116/73/74 108/61/74
f 120/75/75 123/77/75 119/78/75
f 115/67/76 118/79/76 114/68/76
f 116/73/77 119/78/77 115/67/77
f 118/79/78 145/80/78 114/68/78
f 124/81/79 127/82/79 123/77/79
f 114/68/80 182/83/80 113/76/80
f 120/75/81 121/84/81 124/81/81
f 119/78/82 122/85/82 118/79/82
f 125/86/83 132/87/83 128/88/83
f 181/89/84 166/90/84 154/91/84
f 124/81/85 125/86/85 128/88/85
f 123/77/86 126/92/86 122/85/86
f 132/87/87 135/93/87 131/94/87
f 126/92/88 131/94/88 130/95/88
f 128/88/89 131/94/89 127/82/89
f 175/96/90 149/97/90 177/98/90
f 117/74/91 182/83/91 183/99/91
f 129/100/92 136/101/92 132/87/92
f 130/95/93 135/93/93 134/102/93
f 137/103/94 144/104/94 140/105/94
f 133/106/95 140/105/95 136/101/95
f 134/102/96 139/107/96 138/108/96
f 136/101/97 139/107/97 135/93/97
f 143/109/98 141/110/98 142/111/98
f 138/108/99 143/109/99 142/111/99
f 140/105/100 143/109/100 139/107/100
f 174/112/101 152/113/101 151/114/101
f 171/115/102 151/114/102 150/116/102
f 169/117/103 147/118/103 170/119/103
f 178/120/104 152/113/104 176/121/104
f 165/122/105 163/123/105 117/74/105
f 180/124/106 151/114/106 178/120/106
f 175/96/107 147/118/107 148/125/107
f 172/126/108 150/116/108 149/97/108
f 169/117/109 149/97/109 148/125/109
f 177/98/110 150/116/110 180/124/110
f 122/85/84 156/127/84 118/79/84
f 162/128/15 167/129/15 168/130/15
f 155/131/37 160/132/37 156/127/37
f 157/133/105 167/129/105 121/84/105
f 159/134/8 164/135/8 160/132/8
f 165/122/7 154/91/7 166/90/7
f 164/135/111 165/122/111 166/90/111
f 154/91/112 161/136/112 162/128/112
f 157/133/19 156/127/19 158/137/19
f 167/129/41 158/137/41 168/130/41
f 94/53/113 89/48/113 90/50/113
f 141/110/114 176/138/114 173/139/114
f 126/92/115 172/140/115 169/141/115
f 130/95/116 171/142/116 172/140/116
f 126/92/117 170/143/117 122/85/117
f 134/102/118 174/144/118 171/142/118
f 170/119/119 146/145/119 181/146/119
f 129/100/120 180/147/120 133/106/120
f 125/86/121 179/148/121 175/149/121
f 133/106/122 178/150/122 137/103/122
f 137/103/123 176/138/123 141/110/123
f 145/151/124 181/146/124 146/145/124
f 125/86/125 177/152/125 129/100/125
f 138/108/126 173/139/126 174/144/126
f 183/153/91 145/151/91 146/145/91
f 179/154/127 146/145/127 147/118/127
f 21/1/1 48/23/1 46/2/1
f 4/4/2 3/11/2 32/5/2
f 40/7/3 38/10/3 1/8/3
f 6/4/4 4/4/4 30/6/4
f 8/9/5 7/8/5 36/10/5
f 7/8/6 18/16/6 20/3/6
f 35/14/7 25/12/7 27/21/7
f 27/21/7 29/21/7 31/12/7
f 31/12/7 37/14/7 39/13/7
f 39/13/7 33/13/7 35/14/7
f 35/14/7 27/21/7 31/12/7
f 20/3/8 18/16/8 54/15/8
f 6/4/9 19/1/9 21/1/9
f 2/9/10 1/8/10 24/16/10
f 5/11/11 26/5/11 36/10/11
f 4/4/12 21/1/12 22/3/12
f 28/6/13 26/5/13 5/11/13
f 1/8/14 38/10/14 32/5/14
f 22/3/15 46/2/15 42/15/15
f 8/9/16 34/7/16 40/7/16
f 2/9/17 23/17/17 17/17/17
f 37/14/18 38/10/18 40/7/18
f 15/20/19 16/19/19 9/28/19
f 9/28/19 10/18/19 11/18/19
f 11/18/19 12/28/19 13/19/19
f 13/19/19 14/20/19 15/20/19
f 15/20/19 9/28/19 11/18/19
f 25/12/20 26/5/20 28/6/20
f 5/11/21 20/3/21 19/1/21
f 7/8/22 8/9/22 17/17/22
f 29/21/23 30/6/23 32/5/23
f 24/16/24 42/15/24 44/22/24
f 35/14/25 33/13/25 34/7/25
f 17/17/26 56/22/26 54/15/26
f 19/1/27 52/23/27 48/23/27
f 3/11/28 22/3/28 24/16/28
f 23/17/29 44/22/29 56/22/29
f 35/14/30 36/10/30 26/5/30
f 30/6/31 29/21/31 27/21/31
f 32/5/32 38/10/32 37/14/32
f 34/7/33 33/13/33 39/13/33
f 20/3/34 50/2/34 52/23/34
f 41/24/35 43/25/35 44/22/35
f 44/22/36 43/25/36 55/25/36
f 54/15/37 53/24/37 49/26/37
f 49/26/38 51/27/38 52/23/38
f 52/23/39 51/27/39 47/27/39
f 56/22/40 55/25/40 53/24/40
f 42/15/41 46/2/41 45/26/41
f 48/23/42 47/27/42 45/26/42
f 43/25/29 15/20/29 14/20/29
f 49/26/34 12/28/34 11/18/34
f 55/25/26 14/20/26 13/19/26
f 51/27/27 11/18/27 10/18/27
f 47/27/1 10/18/1 9/28/1
f 41/24/24 16/19/24 15/20/24
f 45/26/15 9/28/15 16/19/15
f 53/24/8 13/19/8 12/28/8
f 61/29/29 80/30/29 65/30/29
f 59/31/1 60/37/1 73/32/1
f 62/34/26 77/38/26 80/30/26
f 78/36/7 71/39/7 70/40/7
f 70/40/7 75/40/7 78/36/7
f 75/40/7 74/39/7 78/36/7
f 74/39/7 67/36/7 78/36/7
f 67/36/7 66/35/7 78/36/7
f 60/37/15 63/34/15 68/38/15
f 57/37/8 72/32/8 77/38/8
f 59/31/27 76/33/27 69/33/27
f 58/31/34 69/33/34 72/32/34
f 66/35/43 67/36/43 68/38/43
f 71/39/44 72/32/44 69/33/44
f 74/39/45 75/40/45 76/33/45
f 79/35/46 80/30/46 77/38/46
f 78/36/47 77/38/47 72/32/47
f 75/40/48 70/40/48 69/33/48
f 67/36/49 74/39/49 73/32/49
f 66/35/50 65/30/50 80/30/50
f 63/34/24 64/29/24 65/30/24
f 88/41/51 92/49/51 91/42/51
f 84/44/52 88/41/52 87/43/52
f 81/45/53 86/47/53 85/46/53
f 83/44/29 85/46/29 88/41/29
f 81/45/27 82/45/27 87/43/27
f 86/47/54 90/50/54 89/48/54
f 88/41/29 85/46/29 89/48/29
f 87/43/27 91/42/27 90/50/27
f 93/51/29 96/54/29 92/49/29
f 92/49/55 96/54/55 95/52/55
f 91/42/27 95/52/27 94/53/27
f 96/54/56 100/58/56 99/55/56
f 97/56/128 101/65/128 104/57/128
f 94/53/58 98/59/58 97/56/58
f 96/54/29 93/51/29 97/56/29
f 95/52/27 99/55/27 98/59/27
f 109/60/129 105/72/129 108/61/129
f 98/59/130 99/55/130 103/63/130
f 99/55/61 100/58/61 104/57/61
f 98/59/62 102/64/62 101/65/62
f 106/66/131 107/70/131 115/67/131
f 112/69/132 111/71/132 107/70/132
f 111/71/65 110/62/65 108/61/65
f 112/69/66 106/66/66 105/72/66
f 102/64/67 112/69/67 109/60/67
f 103/63/133 104/57/133 110/62/133
f 102/64/134 103/63/134 111/71/134
f 101/65/135 109/60/135 110/62/135
f 116/73/136 113/76/136 117/74/136
f 108/61/72 116/73/72 115/67/72
f 105/72/73 106/66/73 114/68/73
f 105/72/137 113/76/137 116/73/137
f 120/75/75 124/81/75 123/77/75
f 115/67/138 119/78/138 118/79/138
f 116/73/77 120/75/77 119/78/77
f 118/79/124 181/89/124 145/80/124
f 124/81/79 128/88/79 127/82/79
f 114/68/139 145/80/139 182/83/139
f 120/75/140 117/74/140 121/84/140
f 119/78/141 123/77/141 122/85/141
f 125/86/142 129/100/142 132/87/142
f 118/79/84 160/132/84 164/135/84
f 118/79/84 164/135/84 166/90/84
f 170/143/143 181/89/143 162/128/143
f 181/89/84 118/79/84 166/90/84
f 162/128/144 122/85/144 170/143/144
f 154/91/84 162/128/84 181/89/84
f 124/81/145 121/84/145 125/86/145
f 123/77/146 127/82/146 126/92/146
f 132/87/87 136/101/87 135/93/87
f 126/92/147 127/82/147 131/94/147
f 128/88/89 132/87/89 131/94/89
f 175/96/148 148/125/148 149/97/148
f 117/74/149 113/76/149 182/83/149
f 129/100/150 133/106/150 136/101/150
f 130/95/151 131/94/151 135/93/151
f 137/103/152 141/110/152 144/104/152
f 133/106/153 137/103/153 140/105/153
f 134/102/154 135/93/154 139/107/154
f 136/101/97 140/105/97 139/107/97
f 143/109/98 144/104/98 141/110/98
f 138/108/155 139/107/155 143/109/155
f 140/105/100 144/104/100 143/109/100
f 174/112/156 173/155/156 152/113/156
f 171/115/157 174/112/157 151/114/157
f 169/117/158 148/125/158 147/118/158
f 178/120/159 151/114/159 152/113/159
f 179/148/160 121/84/160 161/136/160
f 179/148/161 161/136/161 183/99/161
f 161/136/105 153/156/105 183/99/105
f 117/74/105 183/99/105 165/122/105
f 165/122/105 183/99/105 153/156/105
f 163/123/105 159/134/105 117/74/105
f 180/124/162 150/116/162 151/114/162
f 175/96/163 179/154/163 147/118/163
f 172/126/164 171/115/164 150/116/164
f 169/117/165 172/126/165 149/97/165
f 177/98/166 149/97/166 150/116/166
f 122/85/84 162/128/84 168/130/84
f 122/85/84 168/130/84 158/137/84
f 156/127/84 160/132/84 118/79/84
f 122/85/84 158/137/84 156/127/84
f 162/128/15 161/136/15 167/129/15
f 155/131/37 159/134/37 160/132/37
f 117/74/105 159/134/105 155/131/105
f 121/84/105 117/74/105 155/131/105
f 167/129/105 161/136/105 121/84/105
f 121/84/105 155/131/105 157/133/105
f 159/134/8 163/123/8 164/135/8
f 165/122/7 153/156/7 154/91/7
f 164/135/111 163/123/111 165/122/111
f 154/91/112 153/156/112 161/136/112
f 157/133/19 155/131/19 156/127/19
f 167/129/41 157/133/41 158/137/41
f 94/53/113 93/51/113 89/48/113
f 173/139/114 142/111/114 141/110/114
f 176/138/114 152/157/114 173/139/114
f 126/92/167 130/95/167 172/140/167
f 130/95/168 134/102/168 171/142/168
f 126/92/169 169/141/169 170/143/169
f 134/102/170 138/108/170 174/144/170
f 170/119/171 147/118/171 146/145/171
f 129/100/172 177/152/172 180/147/172
f 125/86/173 121/84/173 179/148/173
f 133/106/174 180/147/174 178/150/174
f 137/103/175 178/150/175 176/138/175
f 125/86/176 175/149/176 177/152/176
f 138/108/177 142/111/177 173/139/177
f 183/153/178 182/158/178 145/151/178
f 179/154/179 183/153/179 146/145/179
