# Blender 4.4.0
# www.blender.org
mtllib Tool_Pruning_Shear_01.mtl
o Tool_Pruning_Shear_Right_01
v 0.011808 0.145461 0.014796
v 0.026411 0.147512 0.014796
v 0.007090 0.150007 0.014796
v 0.024515 0.158947 0.014796
v 0.016447 0.122784 0.014796
v 0.029666 0.125269 0.014796
v 0.021227 0.119653 0.014796
v 0.027633 0.121478 0.014796
v 0.002279 0.157072 0.014796
v 0.021023 0.168923 0.014796
v -0.004093 0.159929 0.014796
v 0.017617 0.178702 0.014796
v -0.008598 0.163555 0.014404
v 0.012673 0.186174 0.014796
v -0.013048 0.173059 0.014437
v 0.000587 0.187932 0.014612
v -0.018487 0.181904 0.014435
v -0.006610 0.195183 0.014638
v -0.024036 0.194759 0.014475
v -0.013258 0.207544 0.014581
v -0.026398 0.210471 0.014448
v -0.015406 0.215730 0.014653
v -0.023541 0.226953 0.014528
v -0.015845 0.226443 0.014631
v -0.019476 0.236731 0.014547
v -0.013373 0.234958 0.014566
v -0.015048 0.241681 0.014484
v -0.012131 0.237650 0.014654
v -0.011840 0.242665 0.014231
v -0.011362 0.240177 0.014419
v 0.011808 0.145461 0.012796
v 0.026411 0.147512 0.012796
v 0.007090 0.150007 0.012796
v 0.024515 0.158947 0.012796
v 0.016447 0.122784 0.012796
v 0.029666 0.125269 0.012796
v 0.021227 0.119653 0.012796
v 0.027633 0.121478 0.012796
v 0.002279 0.157072 0.012796
v 0.021023 0.168923 0.012796
v -0.004093 0.159929 0.012796
v 0.017617 0.178702 0.012796
v -0.008598 0.163555 0.013187
v 0.012673 0.186174 0.012796
v -0.013048 0.173059 0.013155
v 0.000587 0.187932 0.012979
v -0.018487 0.181904 0.013156
v -0.006610 0.195183 0.012954
v -0.024036 0.194759 0.013117
v -0.013258 0.207544 0.013010
v -0.026398 0.210471 0.013143
v -0.015406 0.215730 0.012939
v -0.023541 0.226953 0.013063
v -0.015845 0.226443 0.012960
v -0.019476 0.236731 0.013044
v -0.013373 0.234958 0.013026
v -0.015048 0.241681 0.013108
v -0.012131 0.237650 0.012937
v -0.011840 0.242665 0.013360
v -0.011362 0.240177 0.013173
v 0.009125 0.105587 0.013604
v 0.021873 0.106368 0.013429
v 0.008991 0.113083 0.013858
v 0.025983 0.113465 0.013666
v 0.010167 0.095844 0.013455
v 0.021477 0.099549 0.013290
v 0.012427 0.085579 0.013338
v 0.023546 0.089877 0.013180
v 0.016907 0.061450 0.013643
v 0.029460 0.064546 0.013465
v 0.018186 0.045114 0.013598
v 0.030803 0.047738 0.013423
v 0.017435 0.024116 0.013236
v 0.029841 0.025341 0.013085
v 0.015826 0.009556 0.013547
v 0.026706 0.007692 0.013376
v 0.016062 0.003621 0.012810
v 0.021722 0.000201 0.012687
v 0.008145 0.105557 0.008194
v 0.021873 0.106368 0.008618
v 0.007566 0.113051 0.007928
v 0.025983 0.113465 0.008393
v 0.009597 0.095755 0.008350
v 0.021477 0.099549 0.008750
v 0.011988 0.085561 0.008472
v 0.023546 0.089877 0.008854
v 0.016360 0.061368 0.008153
v 0.029460 0.064546 0.008583
v 0.017642 0.045012 0.008200
v 0.030803 0.047738 0.008623
v 0.016987 0.024065 0.008579
v 0.029841 0.025341 0.008944
v 0.015396 0.009600 0.008253
v 0.026706 0.007692 0.008668
v 0.015792 0.003758 0.009025
v 0.021722 0.000201 0.009322
v 0.009064 0.120761 0.013529
v 0.036197 0.120920 0.013368
v 0.008065 0.120720 0.008052
v 0.036197 0.120920 0.008498
v 0.009017 0.127213 0.013595
v 0.037436 0.127323 0.013446
v 0.008064 0.127172 0.007666
v 0.037436 0.127323 0.008173
v 0.010098 0.141493 0.013595
v 0.032544 0.141005 0.013446
v 0.008903 0.141424 0.007666
v 0.032544 0.141005 0.008173
v 0.012576 0.150166 0.012884
v 0.027465 0.149773 0.012792
v 0.011474 0.150111 0.008093
v 0.027465 0.149773 0.008531
v 0.017182 0.154524 0.012091
v 0.025450 0.154288 0.012029
v 0.016493 0.154491 0.009217
v 0.025450 0.154288 0.009473
v 0.035581 0.134251 0.008173
v 0.035581 0.134251 0.013446
v 0.009557 0.134353 0.013595
v 0.008483 0.134298 0.007666
vn -0.0000 -0.0000 1.0000
vn -0.0000 -0.0000 -1.0000
vn -0.0449 0.0520 0.9976
vn -0.0060 -0.0063 1.0000
vn -0.0078 -0.0046 1.0000
vn -0.0092 -0.0071 0.9999
vn -0.0101 0.0002 0.9999
vn -0.0177 -0.0018 0.9998
vn -0.0131 0.0035 0.9999
vn 0.0005 0.0123 0.9999
vn 0.0523 0.0852 0.9950
vn -0.9797 -0.2004 -0.0000
vn -0.0449 0.0520 -0.9976
vn -0.0155 -0.0027 -0.9999
vn -0.0079 -0.0046 -1.0000
vn -0.0092 -0.0071 -0.9999
vn -0.0101 0.0002 -0.9999
vn -0.0177 -0.0018 -0.9998
vn -0.0131 0.0035 -0.9999
vn 0.0005 0.0123 -0.9999
vn 0.0493 0.0778 -0.9958
vn 0.9865 0.1636 -0.0000
vn -0.6938 -0.7202 -0.0000
vn 0.9895 0.1448 -0.0000
vn 0.2740 -0.9617 -0.0000
vn -0.5480 -0.8365 -0.0000
vn 0.8813 -0.4726 -0.0000
vn -0.8266 -0.5628 -0.0000
vn 0.9439 0.3304 -0.0000
vn -0.4091 -0.9125 -0.0000
vn 0.9444 0.3289 -0.0000
vn -0.6270 -0.7790 -0.0000
vn 0.8339 0.5519 -0.0000
vn -0.9056 -0.4240 -0.0000
vn 0.1439 0.9896 -0.0000
vn -0.8518 -0.5238 -0.0000
vn 0.7098 0.7044 -0.0000
vn -0.9181 -0.3963 -0.0000
vn 0.8807 0.4736 -0.0000
vn -0.9889 -0.1487 -0.0000
vn 0.9673 0.2538 -0.0000
vn -0.9853 0.1708 -0.0000
vn 0.9992 0.0410 -0.0000
vn 0.9603 -0.2788 -0.0000
vn -0.9234 0.3839 -0.0000
vn 0.9081 -0.4188 -0.0000
vn -0.7453 0.6667 -0.0000
vn 0.9821 0.1885 -0.0000
vn 0.9567 -0.2912 -0.0000
vn -0.2930 0.9561 -0.0000
vn -0.9678 -0.2256 0.1119
vn -0.9799 -0.1783 0.0891
vn -0.9919 -0.0779 0.1000
vn -0.9945 0.0338 0.0995
vn -0.9893 0.1113 0.0940
vn -0.9951 -0.0569 0.0804
vn -0.9707 0.0594 0.2328
vn 0.0321 -0.0212 -0.9993
vn 0.0347 -0.0033 -0.9994
vn 0.0267 0.0169 -0.9995
vn 0.0328 0.0002 -0.9995
vn 0.0354 -0.0158 -0.9992
vn 0.0273 0.0108 -0.9996
vn 0.0196 -0.0999 -0.9948
vn 0.0171 -0.0158 0.9997
vn 0.0328 -0.0329 -0.9989
vn 0.0090 0.0133 0.9999
vn 0.8654 -0.5011 -0.0000
vn -0.5172 -0.8559 -0.0000
vn 0.0171 -0.0077 0.9998
vn 0.0107 0.0145 0.9998
vn 0.0145 -0.0014 0.9999
vn 0.0150 -0.0213 0.9997
vn -0.0000 -0.0915 0.9958
vn -0.9739 -0.1415 0.1772
vn 0.9983 -0.0581 -0.0000
vn 0.9779 0.2092 -0.0000
vn 0.9738 0.2273 -0.0000
vn 0.9968 0.0796 -0.0000
vn 0.9991 -0.0429 -0.0000
vn 0.9846 -0.1749 -0.0000
vn 0.8326 -0.5539 -0.0000
vn 0.0058 0.0320 0.9995
vn 0.5895 -0.8078 -0.0000
vn -0.9873 0.0092 0.1587
vn 0.0249 0.0146 -0.9996
vn 0.9818 -0.1900 -0.0000
vn 0.9121 0.4101 -0.0000
vn -0.9824 0.0578 0.1774
vn 0.0175 -0.0541 -0.9984
vn 0.0060 -0.0102 0.9999
vn 0.0224 0.0538 -0.9983
vn 0.0067 -0.0005 1.0000
vn -0.9444 0.2703 0.1872
vn 0.0083 0.0793 0.9968
vn 0.0187 0.0084 -0.9998
vn 0.8653 0.5013 -0.0000
vn 0.0106 0.1683 0.9857
vn -0.6689 0.7290 0.1454
vn 0.0285 0.9996 -0.0000
vn 0.9132 0.4076 -0.0000
vn 0.0328 0.2182 -0.9753
vn -0.9837 -0.0237 0.1783
vn 0.0122 -0.0404 0.9991
vn 0.0172 0.0046 -0.9998
vn 0.0057 -0.0004 1.0000
vn -0.9857 0.0580 0.1581
vn 0.9660 0.2587 -0.0000
vn -0.0108 -0.0072 0.9999
vn -0.0155 -0.0027 0.9999
vn -0.0062 -0.0097 0.9999
vn -0.0093 -0.0005 1.0000
vn -0.0128 -0.0121 0.9998
vn -0.0133 0.0015 0.9999
vn -0.0008 0.0079 1.0000
vn -0.0633 -0.0036 0.9980
vn 0.0493 0.0778 0.9958
vn -0.0108 -0.0072 -0.9999
vn -0.0060 -0.0063 -1.0000
vn -0.0062 -0.0097 -0.9999
vn -0.0093 -0.0005 -1.0000
vn -0.0128 -0.0121 -0.9998
vn -0.0133 0.0015 -0.9999
vn -0.0008 0.0079 -1.0000
vn -0.0633 -0.0036 -0.9980
vn 0.0523 0.0852 -0.9950
vn -0.9726 -0.2151 0.0885
vn -0.9785 -0.1804 0.1002
vn -0.9918 -0.0775 0.1013
vn -0.9949 0.0328 0.0954
vn -0.9909 0.1072 0.0814
vn -0.9964 -0.0483 0.0694
vn -0.9837 0.0170 0.1792
vn 0.0370 -0.0104 -0.9993
vn 0.0345 -0.0040 -0.9994
vn 0.0284 0.0183 -0.9994
vn 0.0322 -0.0004 -0.9995
vn 0.0303 -0.0190 -0.9994
vn 0.0397 0.0181 -0.9990
vn -0.0302 -0.1330 -0.9907
vn 0.0139 -0.0177 0.9997
vn 0.0263 -0.0468 -0.9986
vn 0.0106 0.0146 0.9998
vn -0.5146 -0.8574 0.0056
vn 0.0191 0.0192 0.9996
vn 0.0142 -0.0017 0.9999
vn 0.0190 -0.0133 0.9997
vn -0.0542 -0.1252 0.9907
vn -0.9879 -0.1074 0.1121
vn 0.0103 0.0426 0.9990
vn 0.5895 -0.8077 -0.0000
vn -0.9837 -0.0090 0.1794
vn 0.0159 -0.0077 -0.9998
vn -0.9778 0.0740 0.1962
vn 0.0162 -0.0598 -0.9981
vn 0.0053 -0.0132 0.9999
vn 0.0282 0.0408 -0.9988
vn 0.0058 0.0026 1.0000
vn -0.9350 0.2845 0.2118
vn 0.0084 0.0792 0.9968
vn 0.0214 -0.0013 -0.9998
vn 0.0123 0.1719 0.9850
vn -0.6656 0.7309 0.1511
vn 0.0231 0.9996 -0.0171
vn 0.0313 0.2147 -0.9762
vn -0.9701 -0.0666 0.2333
vn 0.0158 -0.0335 0.9993
vn 0.0187 -0.0011 -0.9998
vn 0.0053 0.0014 1.0000
vn -0.9814 0.0743 0.1771
vt 0.446575 0.645957
vt 0.446772 0.660954
vt 0.446502 0.651012
vt 0.446801 0.648237
vt 0.446647 0.620739
vt 0.446851 0.623502
vt 0.446721 0.617256
vt 0.446820 0.619286
vt 0.446428 0.658869
vt 0.446665 0.682923
vt 0.446330 0.662046
vt 0.446260 0.666078
vt 0.446402 0.693187
vt 0.446191 0.676647
vt 0.446107 0.686484
vt 0.458827 0.743525
vt 0.458626 0.743196
vt 0.458690 0.733217
vt 0.458750 0.753120
vt 0.458598 0.755392
vt 0.458725 0.759474
vt 0.458631 0.768185
vt 0.458720 0.767789
vt 0.458678 0.775775
vt 0.458749 0.774399
vt 0.458730 0.779617
vt 0.458772 0.778450
vt 0.458767 0.780381
vt 0.446718 0.672048
vt 0.446589 0.691232
vt 0.446021 0.700780
vt 0.446291 0.701251
vt 0.445985 0.718252
vt 0.446188 0.714997
vt 0.446029 0.736581
vt 0.446155 0.724100
vt 0.446092 0.747455
vt 0.446148 0.736014
vt 0.446160 0.752960
vt 0.446186 0.745483
vt 0.446217 0.751287
vt 0.446205 0.748477
vt 0.446210 0.754054
vt 0.214509 0.501259
vt 0.214276 0.511794
vt 0.214203 0.511703
vt 0.215069 0.476471
vt 0.214565 0.501278
vt 0.215303 0.459817
vt 0.215139 0.476555
vt 0.215233 0.459713
vt 0.215207 0.438303
vt 0.215149 0.438251
vt 0.215001 0.423386
vt 0.214996 0.417445
vt 0.214946 0.423431
vt 0.214125 0.529457
vt 0.214006 0.537282
vt 0.213942 0.529424
vt 0.215725 0.515591
vt 0.214017 0.521746
vt 0.215775 0.522577
vt 0.215990 0.505681
vt 0.216747 0.479727
vt 0.216919 0.462506
vt 0.216796 0.439559
vt 0.216395 0.421475
vt 0.215756 0.413801
vt 0.216302 0.529849
vt 0.215031 0.417305
vt 0.214142 0.521777
vt 0.214134 0.537324
vt 0.217611 0.537486
vt 0.214128 0.543935
vt 0.214006 0.543892
vt 0.217769 0.544047
vt 0.217532 0.551146
vt 0.217143 0.558066
vt 0.214198 0.551250
vt 0.214114 0.558495
vt 0.214060 0.551193
vt 0.216492 0.567049
vt 0.214267 0.558565
vt 0.214443 0.567395
vt 0.214584 0.567452
vt 0.215174 0.571917
vt 0.215086 0.571883
vt 0.216234 0.571675
vt 0.458763 0.776488
s 0
usemtl Texture_Map
f 1/1/1 4/2/1 3/3/1
f 32/4/2 35/5/2 31/1/2
f 6/6/1 7/7/1 8/8/1
f 4/2/1 9/9/1 3/3/1
f 9/9/1 12/10/1 11/11/1
f 12/10/3 13/12/3 11/11/3
f 13/12/4 16/13/4 15/14/4
f 16/13/5 17/15/5 15/14/5
f 18/16/6 19/17/6 17/18/6
f 20/19/7 21/20/7 19/17/7
f 22/21/8 23/22/8 21/20/8
f 24/23/9 25/24/9 23/22/9
f 26/25/10 27/26/10 25/24/10
f 27/26/11 30/27/11 29/28/11
f 31/1/2 34/2/2 32/4/2
f 5/5/12 31/1/12 35/5/12
f 36/6/2 37/7/2 35/5/2
f 39/9/2 34/2/2 33/3/2
f 39/9/2 42/10/2 40/29/2
f 43/12/13 42/10/13 41/11/13
f 43/12/14 46/13/14 44/30/14
f 47/15/15 46/13/15 45/14/15
f 49/31/16 48/32/16 47/15/16
f 51/33/17 50/34/17 49/31/17
f 53/35/18 52/36/18 51/33/18
f 55/37/19 54/38/19 53/35/19
f 57/39/20 56/40/20 55/37/20
f 57/39/21 60/41/21 58/42/21
f 4/2/22 32/4/22 34/2/22
f 3/3/23 31/1/23 1/1/23
f 6/6/24 32/4/24 2/4/24
f 7/7/25 38/8/25 8/8/25
f 7/7/26 35/5/26 37/7/26
f 8/8/27 36/6/27 6/6/27
f 3/3/28 39/9/28 33/3/28
f 4/2/29 40/29/29 10/29/29
f 9/9/30 41/11/30 39/9/30
f 12/10/31 40/29/31 42/10/31
f 13/12/32 41/11/32 11/11/32
f 12/10/33 44/30/33 14/30/33
f 13/12/34 45/14/34 43/12/34
f 14/30/35 46/13/35 16/13/35
f 15/14/36 47/15/36 45/14/36
f 16/13/37 48/32/37 18/32/37
f 17/18/38 49/17/38 47/18/38
f 18/32/39 50/34/39 20/34/39
f 21/20/40 49/17/40 19/17/40
f 20/34/41 52/36/41 22/36/41
f 23/22/42 51/20/42 21/20/42
f 22/36/43 54/38/43 24/38/43
f 24/38/44 56/40/44 26/40/44
f 25/24/45 53/22/45 23/22/45
f 26/40/46 58/42/46 28/42/46
f 25/24/47 57/26/47 55/24/47
f 30/41/48 59/43/48 29/43/48
f 28/42/49 60/41/49 30/41/49
f 27/26/50 59/28/50 57/26/50
f 5/5/1 2/4/1 1/1/1
f 85/44/51 65/45/51 83/46/51
f 87/47/52 67/48/52 85/44/52
f 87/47/53 71/49/53 69/50/53
f 89/51/54 73/52/54 71/49/54
f 91/53/55 75/54/55 73/52/55
f 95/55/56 75/54/56 93/56/56
f 63/57/57 99/58/57 81/59/57
f 84/60/58 79/61/58 80/62/58
f 86/63/59 83/46/59 84/60/59
f 88/64/60 85/44/60 86/63/60
f 90/65/61 87/47/61 88/64/61
f 92/66/62 89/51/62 90/65/62
f 94/67/63 91/53/63 92/66/63
f 96/68/64 93/56/64 94/67/64
f 71/49/65 74/66/65 72/65/65
f 81/59/66 80/62/66 79/61/66
f 67/48/67 70/64/67 68/63/67
f 62/62/68 82/69/68 64/69/68
f 77/70/69 96/68/69 78/68/69
f 65/45/70 68/63/70 66/60/70
f 73/52/71 76/67/71 74/66/71
f 69/50/72 72/65/72 70/64/72
f 61/71/73 66/60/73 62/62/73
f 75/54/74 78/68/74 76/67/74
f 83/46/75 61/71/75 79/61/75
f 66/60/76 80/62/76 62/62/76
f 68/63/77 84/60/77 66/60/77
f 68/63/78 88/64/78 86/63/78
f 72/65/79 88/64/79 70/64/79
f 74/66/80 90/65/80 72/65/80
f 74/66/81 94/67/81 92/66/81
f 78/68/82 94/67/82 76/67/82
f 97/72/83 64/69/83 98/73/83
f 98/73/84 82/69/84 100/73/84
f 99/58/85 101/74/85 103/75/85
f 99/58/86 82/69/86 81/59/86
f 100/73/87 102/76/87 98/73/87
f 117/77/88 106/78/88 118/77/88
f 119/79/89 107/80/89 120/81/89
f 100/73/90 103/75/90 104/76/90
f 98/73/91 101/74/91 97/72/91
f 107/80/92 112/82/92 108/78/92
f 119/79/93 106/78/93 105/83/93
f 105/83/94 111/84/94 107/80/94
f 105/83/95 110/82/95 109/85/95
f 120/81/96 108/78/96 117/77/96
f 108/78/97 110/82/97 106/78/97
f 110/82/98 113/86/98 109/85/98
f 109/85/99 115/87/99 111/84/99
f 116/88/100 113/86/100 114/88/100
f 110/82/101 116/88/101 114/88/101
f 112/82/102 115/87/102 116/88/102
f 63/57/103 79/61/103 61/71/103
f 63/57/104 62/62/104 64/69/104
f 103/75/105 117/77/105 104/76/105
f 101/74/106 118/77/106 119/79/106
f 101/74/107 120/81/107 103/75/107
f 104/76/108 118/77/108 102/76/108
f 1/1/1 2/4/1 4/2/1
f 32/4/2 36/6/2 35/5/2
f 6/6/1 5/5/1 7/7/1
f 4/2/1 10/29/1 9/9/1
f 9/9/1 10/29/1 12/10/1
f 12/10/109 14/30/109 13/12/109
f 13/12/110 14/30/110 16/13/110
f 16/13/111 18/32/111 17/15/111
f 18/16/112 20/19/112 19/17/112
f 20/19/113 22/21/113 21/20/113
f 22/21/114 24/23/114 23/22/114
f 24/23/115 26/25/115 25/24/115
f 26/25/116 28/89/116 27/26/116
f 27/26/117 28/89/117 30/27/117
f 31/1/2 33/3/2 34/2/2
f 5/5/12 1/1/12 31/1/12
f 36/6/2 38/8/2 37/7/2
f 39/9/2 40/29/2 34/2/2
f 39/9/2 41/11/2 42/10/2
f 43/12/118 44/30/118 42/10/118
f 43/12/119 45/14/119 46/13/119
f 47/15/120 48/32/120 46/13/120
f 49/31/121 50/34/121 48/32/121
f 51/33/122 52/36/122 50/34/122
f 53/35/123 54/38/123 52/36/123
f 55/37/124 56/40/124 54/38/124
f 57/39/125 58/42/125 56/40/125
f 57/39/126 59/43/126 60/41/126
f 4/2/22 2/4/22 32/4/22
f 3/3/23 33/3/23 31/1/23
f 6/6/24 36/6/24 32/4/24
f 7/7/25 37/7/25 38/8/25
f 7/7/26 5/5/26 35/5/26
f 8/8/27 38/8/27 36/6/27
f 3/3/28 9/9/28 39/9/28
f 4/2/29 34/2/29 40/29/29
f 9/9/30 11/11/30 41/11/30
f 12/10/31 10/29/31 40/29/31
f 13/12/32 43/12/32 41/11/32
f 12/10/33 42/10/33 44/30/33
f 13/12/34 15/14/34 45/14/34
f 14/30/35 44/30/35 46/13/35
f 15/14/36 17/15/36 47/15/36
f 16/13/37 46/13/37 48/32/37
f 17/18/38 19/17/38 49/17/38
f 18/32/39 48/32/39 50/34/39
f 21/20/40 51/20/40 49/17/40
f 20/34/41 50/34/41 52/36/41
f 23/22/42 53/22/42 51/20/42
f 22/36/43 52/36/43 54/38/43
f 24/38/44 54/38/44 56/40/44
f 25/24/45 55/24/45 53/22/45
f 26/40/46 56/40/46 58/42/46
f 25/24/47 27/26/47 57/26/47
f 30/41/48 60/41/48 59/43/48
f 28/42/49 58/42/49 60/41/49
f 27/26/50 29/28/50 59/28/50
f 5/5/1 6/6/1 2/4/1
f 85/44/127 67/48/127 65/45/127
f 87/47/128 69/50/128 67/48/128
f 87/47/129 89/51/129 71/49/129
f 89/51/130 91/53/130 73/52/130
f 91/53/131 93/56/131 75/54/131
f 95/55/132 77/70/132 75/54/132
f 63/57/133 97/72/133 99/58/133
f 84/60/134 83/46/134 79/61/134
f 86/63/135 85/44/135 83/46/135
f 88/64/136 87/47/136 85/44/136
f 90/65/137 89/51/137 87/47/137
f 92/66/138 91/53/138 89/51/138
f 94/67/139 93/56/139 91/53/139
f 96/68/140 95/55/140 93/56/140
f 71/49/141 73/52/141 74/66/141
f 81/59/142 82/69/142 80/62/142
f 67/48/143 69/50/143 70/64/143
f 62/62/68 80/62/68 82/69/68
f 77/70/144 95/55/144 96/68/144
f 65/45/70 67/48/70 68/63/70
f 73/52/145 75/54/145 76/67/145
f 69/50/146 71/49/146 72/65/146
f 61/71/147 65/45/147 66/60/147
f 75/54/148 77/70/148 78/68/148
f 83/46/149 65/45/149 61/71/149
f 66/60/76 84/60/76 80/62/76
f 68/63/77 86/63/77 84/60/77
f 68/63/78 70/64/78 88/64/78
f 72/65/79 90/65/79 88/64/79
f 74/66/80 92/66/80 90/65/80
f 74/66/81 76/67/81 94/67/81
f 78/68/82 96/68/82 94/67/82
f 97/72/150 63/57/150 64/69/150
f 98/73/151 64/69/151 82/69/151
f 99/58/152 97/72/152 101/74/152
f 99/58/153 100/73/153 82/69/153
f 100/73/87 104/76/87 102/76/87
f 117/77/88 108/78/88 106/78/88
f 119/79/154 105/83/154 107/80/154
f 100/73/155 99/58/155 103/75/155
f 98/73/156 102/76/156 101/74/156
f 107/80/157 111/84/157 112/82/157
f 119/79/158 118/77/158 106/78/158
f 105/83/159 109/85/159 111/84/159
f 105/83/160 106/78/160 110/82/160
f 120/81/161 107/80/161 108/78/161
f 108/78/97 112/82/97 110/82/97
f 110/82/162 114/88/162 113/86/162
f 109/85/163 113/86/163 115/87/163
f 116/88/164 115/87/164 113/86/164
f 110/82/101 112/82/101 116/88/101
f 112/82/165 111/84/165 115/87/165
f 63/57/166 81/59/166 79/61/166
f 63/57/167 61/71/167 62/62/167
f 103/75/168 120/81/168 117/77/168
f 101/74/169 102/76/169 118/77/169
f 101/74/170 119/79/170 120/81/170
f 104/76/108 117/77/108 118/77/108
o Tool_Pruning_Shear_01
v 0.003271 0.181998 0.016197
v -0.003888 0.177865 0.016197
v -0.003888 0.169598 0.016197
v 0.003271 0.165465 0.016197
v 0.010430 0.169598 0.016197
v 0.010430 0.177865 0.016197
v 0.003271 0.181998 0.009001
v -0.003888 0.177865 0.009001
v -0.003888 0.169598 0.009001
v 0.003271 0.165465 0.009001
v 0.010430 0.169598 0.009001
v 0.010430 0.177865 0.009001
v -0.027817 0.140514 0.009786
v -0.027251 0.144048 0.010102
v -0.027251 0.144048 0.010736
v -0.027817 0.140514 0.011053
v -0.028383 0.136979 0.010736
v -0.028383 0.136979 0.010102
v 0.030373 0.139304 0.009786
v 0.029222 0.142693 0.010102
v 0.029222 0.142693 0.010736
v 0.030373 0.139304 0.011053
v 0.031524 0.135914 0.010736
v 0.031524 0.135914 0.010102
v -0.005681 0.131289 0.011757
v -0.004835 0.131157 0.011757
v -0.004760 0.131382 0.011688
v 0.008264 0.131143 0.011757
v 0.009110 0.131275 0.011757
v 0.008190 0.131368 0.011688
v 0.000772 0.130352 0.011757
v 0.001623 0.130352 0.011757
v 0.001197 0.130552 0.011688
v 0.009110 0.131275 0.009081
v 0.008264 0.131143 0.009081
v 0.008190 0.131368 0.009150
v -0.004835 0.131157 0.009081
v -0.005681 0.131289 0.009081
v -0.004760 0.131382 0.009150
v 0.001623 0.130352 0.009081
v 0.000772 0.130352 0.009081
v 0.001197 0.130552 0.009150
v -0.005681 0.138448 0.011757
v -0.004835 0.138316 0.011757
v -0.004760 0.138170 0.011688
v 0.008264 0.138302 0.011757
v 0.009110 0.138434 0.011757
v 0.008190 0.138157 0.011688
v 0.000772 0.137512 0.011757
v 0.001623 0.137512 0.011757
v 0.001197 0.137340 0.011688
v 0.009113 0.134855 0.013096
v 0.008267 0.134723 0.013096
v 0.008192 0.134763 0.012957
v -0.004837 0.134737 0.013096
v -0.005683 0.134869 0.013096
v -0.004763 0.134776 0.012957
v 0.001623 0.133932 0.013096
v 0.000772 0.133932 0.013096
v 0.001197 0.133946 0.012957
v -0.005683 0.134869 0.007742
v -0.004837 0.134737 0.007742
v -0.004763 0.134776 0.007881
v 0.008267 0.134723 0.007742
v 0.009113 0.134855 0.007742
v 0.008192 0.134763 0.007881
v 0.000772 0.133932 0.007742
v 0.001623 0.133932 0.007742
v 0.001197 0.133946 0.007881
v 0.009110 0.138434 0.009081
v 0.008264 0.138302 0.009081
v 0.008190 0.138157 0.009150
v -0.004835 0.138316 0.009081
v -0.005681 0.138448 0.009081
v -0.004760 0.138170 0.009150
v 0.001622 0.137512 0.009081
v 0.000772 0.137512 0.009081
v 0.001197 0.137340 0.009150
vn 0.5000 -0.8660 -0.0000
vn -1.0000 -0.0000 -0.0000
vn 1.0000 -0.0000 -0.0000
vn -0.5000 -0.8660 -0.0000
vn -0.5000 0.8660 -0.0000
vn 0.5000 0.8660 -0.0000
vn -0.0000 -0.0000 1.0000
vn -0.0000 -0.0000 -1.0000
vn -0.0502 -0.3498 -0.9355
vn -0.0417 0.3499 -0.9358
vn 0.0502 0.3498 0.9355
vn 0.1182 -0.9930 -0.0000
vn -0.0417 0.3499 0.9358
vn -0.2072 0.9783 -0.0000
vn 0.1072 -0.0564 0.9926
vn 0.1420 0.9899 -0.0000
vn 0.0502 0.3498 -0.9355
vn 0.0417 -0.3499 -0.9359
vn 0.0288 0.1027 0.9943
vn 0.2513 0.9679 -0.0000
vn 0.2027 -0.9792 -0.0000
vn -0.1097 -0.0713 0.9914
vn 0.1144 -0.3479 -0.9305
vn -0.1289 -0.3473 -0.9288
vn 0.0167 0.3502 -0.9365
vn 0.0029 0.3503 -0.9366
vn -0.1182 0.9930 -0.0000
vn -0.0230 0.0929 0.9954
vn 0.0417 -0.3499 0.9359
vn -0.2431 -0.9700 -0.0000
vn -0.0502 -0.3498 0.9355
vn -0.2890 0.9573 -0.0000
vn 0.8914 -0.4532 -0.0000
vn 0.3737 0.9276 -0.0000
vn -0.3737 0.9276 -0.0000
vn 0.2890 0.9573 -0.0000
vn -0.8914 -0.4532 -0.0000
vn -0.1053 -0.3482 0.9315
vn 0.8888 0.1600 -0.4295
vn 0.3021 -0.3338 0.8929
vn -0.3021 -0.3338 0.8929
vn 0.1053 -0.3482 0.9315
vn -0.8889 0.1599 -0.4293
vn -0.1053 -0.3482 -0.9315
vn 0.8889 0.1599 0.4293
vn 0.3021 -0.3338 -0.8929
vn -0.3021 -0.3338 -0.8929
vn 0.1053 -0.3482 -0.9315
vn -0.8888 0.1600 0.4295
vn -0.1736 0.3448 -0.9225
vn 0.8426 -0.1882 0.5047
vn 0.2819 0.3360 -0.8987
vn -0.2819 0.3360 -0.8987
vn 0.1736 0.3448 -0.9225
vn -0.8427 -0.1881 0.5045
vn -0.1736 0.3448 0.9225
vn 0.8427 -0.1881 -0.5045
vn 0.2819 0.3360 0.8987
vn -0.2819 0.3360 0.8987
vn 0.1736 0.3448 0.9225
vn -0.8426 -0.1882 -0.5047
vn -0.1005 -0.9949 -0.0000
vn 0.9500 0.3123 -0.0000
vn 0.4246 -0.9054 -0.0000
vn -0.4246 -0.9054 -0.0000
vn 0.1005 -0.9949 -0.0000
vn -0.9500 0.3124 -0.0000
vn -0.1420 -0.9899 -0.0000
vn -0.0502 -0.3497 -0.9355
vn 0.1144 -0.3479 0.9305
vn 0.0167 0.3502 0.9365
vn -0.1289 -0.3473 0.9288
vn 0.1072 -0.0564 -0.9926
vn -0.1097 -0.0713 -0.9914
vn 0.0288 0.1027 -0.9943
vn -0.0230 0.0929 -0.9954
vn 0.0029 0.3503 0.9366
vn 0.8889 0.1599 -0.4294
vn -0.8888 0.1600 -0.4295
vn 0.8888 0.1600 0.4295
vn -0.8889 0.1599 0.4293
vn 0.8427 -0.1881 0.5045
vn -0.8426 -0.1882 0.5047
vn 0.8426 -0.1882 -0.5047
vn -0.8427 -0.1881 -0.5045
vn -0.9500 0.3123 -0.0000
vt 0.589713 0.634480
vt 0.590630 0.637703
vt 0.588796 0.644150
vt 0.588796 0.637703
vt 0.590630 0.644150
vt 0.589713 0.647374
vt 0.844941 0.674525
vt 0.844223 0.650209
vt 0.844223 0.681570
vt 0.845901 0.681452
vt 0.845050 0.705878
vt 0.845901 0.712804
vt 0.844941 0.705878
vt 0.845901 0.650091
vt 0.845050 0.643165
vt 0.845050 0.674525
vt 0.846009 0.713962
vt 0.848586 0.751267
vt 0.846010 0.682611
vt 0.848881 0.691886
vt 0.848734 0.721576
vt 0.844223 0.712922
vt 0.841351 0.763139
vt 0.844114 0.714080
vt 0.846009 0.651249
vt 0.841206 0.701215
vt 0.844114 0.682728
vt 0.841278 0.732177
vt 0.844114 0.651368
vt 0.844941 0.643165
vt 0.845892 0.711528
vt 0.844996 0.704376
vt 0.844232 0.711646
vt 0.845892 0.681800
vt 0.845892 0.652064
vt 0.844996 0.644912
vt 0.844996 0.674647
vt 0.844232 0.681918
vt 0.844232 0.652181
s 0
usemtl Texture_Map
f 124/90/171 131/91/171 125/91/171
f 122/92/172 129/93/172 123/93/172
f 125/91/173 132/94/173 126/94/173
f 123/93/174 130/90/174 124/90/174
f 121/95/175 128/92/175 122/92/175
f 126/94/176 127/95/176 121/95/176
f 123/93/177 125/91/177 121/95/177
f 127/95/178 131/91/178 129/93/178
f 187/96/179 157/97/179 182/98/179
f 184/99/180 196/100/180 191/101/180
f 169/102/181 175/98/181 179/96/181
f 148/103/182 160/104/182 155/103/182
f 173/99/183 170/100/183 178/105/183
f 167/106/184 140/107/184 190/106/184
f 172/108/185 143/109/185 142/110/185
f 197/102/186 164/111/186 169/102/186
f 197/102/187 182/98/187 193/111/187
f 155/103/188 188/105/188 184/99/188
f 167/106/189 142/110/189 141/107/189
f 135/112/190 194/113/190 134/112/190
f 154/114/191 143/109/191 149/114/191
f 137/115/192 176/116/192 136/117/192
f 185/108/193 144/109/193 154/114/193
f 138/115/194 181/116/194 158/118/194
f 190/106/195 139/110/195 185/108/195
f 133/117/196 194/113/196 181/116/196
f 191/101/197 170/100/197 166/101/197
f 136/117/198 163/113/198 135/112/198
f 148/103/199 178/105/199 152/104/199
f 138/115/200 145/118/200 137/115/200
f 179/96/201 146/97/201 151/119/201
f 190/106/202 168/120/202 167/106/202
f 192/120/203 166/101/203 168/120/203
f 169/102/204 198/121/204 197/102/204
f 171/121/205 196/100/205 198/121/205
f 163/113/206 195/122/206 194/113/206
f 165/122/207 193/111/207 195/122/207
f 149/114/208 174/123/208 150/124/208
f 150/124/209 173/99/209 148/103/209
f 179/96/210 153/125/210 180/126/210
f 153/125/211 178/105/211 180/126/211
f 145/118/212 177/127/212 176/116/212
f 147/128/213 175/98/213 177/127/213
f 154/114/214 186/123/214 185/108/214
f 156/124/215 184/99/215 186/123/215
f 187/96/216 162/125/216 161/119/216
f 162/125/217 188/105/217 160/104/217
f 158/118/218 183/127/218 159/128/218
f 159/128/219 182/98/219 157/97/219
f 185/108/220 192/120/220 190/106/220
f 192/120/221 184/99/221 191/101/221
f 187/96/222 198/121/222 189/126/222
f 198/121/223 188/105/223 189/126/223
f 181/116/224 195/122/224 183/127/224
f 195/122/225 182/98/225 183/127/225
f 172/108/226 168/120/226 174/123/226
f 168/120/227 173/99/227 174/123/227
f 179/96/228 171/121/228 169/102/228
f 171/121/229 178/105/229 170/100/229
f 176/116/230 165/122/230 163/113/230
f 165/122/231 175/98/231 164/111/231
f 149/114/232 156/124/232 154/114/232
f 156/124/233 148/103/233 155/103/233
f 161/119/234 153/125/234 151/119/234
f 162/125/235 152/104/235 153/125/235
f 145/118/236 159/128/236 147/128/236
f 159/128/237 146/97/237 147/128/237
f 151/119/238 157/97/238 161/119/238
f 124/90/171 130/90/171 131/91/171
f 122/92/172 128/92/172 129/93/172
f 125/91/173 131/91/173 132/94/173
f 123/93/174 129/93/174 130/90/174
f 121/95/175 127/95/175 128/92/175
f 126/94/176 132/94/176 127/95/176
f 121/95/177 122/92/177 123/93/177
f 123/93/177 124/90/177 125/91/177
f 125/91/177 126/94/177 121/95/177
f 129/93/178 128/92/178 127/95/178
f 127/95/178 132/94/178 131/91/178
f 131/91/178 130/90/178 129/93/178
f 187/96/239 161/119/239 157/97/239
f 184/99/180 188/105/180 196/100/180
f 169/102/181 164/111/181 175/98/181
f 148/103/182 152/104/182 160/104/182
f 173/99/183 166/101/183 170/100/183
f 167/106/184 141/107/184 140/107/184
f 172/108/240 149/114/240 143/109/240
f 197/102/186 193/111/186 164/111/186
f 197/102/187 187/96/187 182/98/187
f 155/103/188 160/104/188 188/105/188
f 167/106/241 172/108/241 142/110/241
f 135/112/190 163/113/190 194/113/190
f 154/114/191 144/109/191 143/109/191
f 137/115/242 145/118/242 176/116/242
f 185/108/243 139/110/243 144/109/243
f 138/115/244 133/117/244 181/116/244
f 190/106/245 140/107/245 139/110/245
f 133/117/246 134/112/246 194/113/246
f 191/101/197 196/100/197 170/100/197
f 136/117/247 176/116/247 163/113/247
f 148/103/199 173/99/199 178/105/199
f 138/115/200 158/118/200 145/118/200
f 179/96/201 175/98/201 146/97/201
f 190/106/202 192/120/202 168/120/202
f 192/120/203 191/101/203 166/101/203
f 169/102/204 171/121/204 198/121/204
f 171/121/205 170/100/205 196/100/205
f 163/113/206 165/122/206 195/122/206
f 165/122/207 164/111/207 193/111/207
f 149/114/208 172/108/208 174/123/208
f 150/124/248 174/123/248 173/99/248
f 179/96/210 151/119/210 153/125/210
f 153/125/211 152/104/211 178/105/211
f 145/118/212 147/128/212 177/127/212
f 147/128/249 146/97/249 175/98/249
f 154/114/214 156/124/214 186/123/214
f 156/124/250 155/103/250 184/99/250
f 187/96/216 189/126/216 162/125/216
f 162/125/217 189/126/217 188/105/217
f 158/118/218 181/116/218 183/127/218
f 159/128/251 183/127/251 182/98/251
f 185/108/220 186/123/220 192/120/220
f 192/120/252 186/123/252 184/99/252
f 187/96/222 197/102/222 198/121/222
f 198/121/223 196/100/223 188/105/223
f 181/116/224 194/113/224 195/122/224
f 195/122/253 193/111/253 182/98/253
f 172/108/226 167/106/226 168/120/226
f 168/120/254 166/101/254 173/99/254
f 179/96/228 180/126/228 171/121/228
f 171/121/229 180/126/229 178/105/229
f 176/116/230 177/127/230 165/122/230
f 165/122/255 177/127/255 175/98/255
f 149/114/232 150/124/232 156/124/232
f 156/124/233 150/124/233 148/103/233
f 161/119/234 162/125/234 153/125/234
f 162/125/235 160/104/235 152/104/235
f 145/118/236 158/118/236 159/128/236
f 159/128/256 157/97/256 146/97/256
f 151/119/238 146/97/238 157/97/238
o Tool_Pruning_Shear_Left_01
v -0.007786 0.149894 0.012411
v -0.020991 0.161772 0.012411
v 0.001666 0.154824 0.012411
v -0.019897 0.165769 0.012411
v 0.007014 0.162236 0.012411
v -0.014747 0.174543 0.012411
v 0.010992 0.168274 0.012411
v -0.012373 0.180537 0.012411
v 0.014661 0.178412 0.012411
v -0.016827 0.187577 0.011411
v 0.013911 0.188913 0.012411
v -0.020299 0.196626 0.011411
v 0.005756 0.205549 0.012411
v -0.022812 0.206522 0.011411
v -0.000441 0.217409 0.012194
v -0.022338 0.223844 0.011411
v -0.007128 0.232633 0.012031
v -0.019777 0.231256 0.011411
v -0.010681 0.241250 0.012042
v -0.016452 0.238590 0.011411
v -0.011371 0.242357 0.011972
v -0.013145 0.243670 0.011705
v -0.007786 0.149894 0.010411
v -0.020991 0.161772 0.010411
v 0.001666 0.154824 0.010411
v -0.019897 0.165769 0.010411
v 0.007014 0.162236 0.010411
v -0.014747 0.174543 0.010411
v 0.010992 0.168274 0.010411
v -0.012373 0.180537 0.010411
v 0.014661 0.178412 0.010411
v 0.013911 0.188913 0.010411
v 0.005756 0.205549 0.010411
v -0.000441 0.217409 0.010627
v -0.007128 0.232633 0.010791
v -0.010681 0.241250 0.010780
v -0.011371 0.242357 0.010850
v -0.013145 0.243670 0.011117
v -0.020452 0.066110 0.015431
v -0.009852 0.066110 0.015431
v -0.020455 0.082762 0.014942
v -0.009851 0.082762 0.014942
v -0.020527 0.099929 0.013839
v -0.009572 0.103390 0.013839
v -0.024692 0.115528 0.014099
v -0.008610 0.115901 0.014099
v -0.017858 0.042951 0.015576
v -0.007666 0.043894 0.015576
v -0.014472 0.025314 0.015456
v -0.006214 0.026356 0.015456
v -0.014972 0.018194 0.014600
v -0.006846 0.016862 0.014600
v -0.017647 0.010662 0.014876
v -0.010539 0.006971 0.014876
v -0.019873 0.005182 0.015058
v -0.016365 0.001381 0.015058
v -0.020452 0.066110 0.006705
v -0.009852 0.066110 0.006705
v -0.020455 0.082762 0.007194
v -0.009851 0.082762 0.007194
v -0.020527 0.099929 0.008296
v -0.009572 0.103390 0.008296
v -0.024692 0.115528 0.008037
v -0.008610 0.115901 0.008037
v -0.017858 0.042951 0.006559
v -0.007666 0.043894 0.006559
v -0.014472 0.025314 0.006679
v -0.006214 0.026356 0.006679
v -0.014972 0.018194 0.007536
v -0.006846 0.016862 0.007536
v -0.017647 0.010662 0.007259
v -0.010539 0.006971 0.007259
v -0.019873 0.005182 0.007078
v -0.016365 0.001381 0.007078
v -0.031146 0.128759 0.014220
v -0.007642 0.130664 0.014220
v -0.031146 0.128759 0.007916
v -0.007642 0.130664 0.007916
v -0.029648 0.147327 0.014220
v -0.006155 0.146409 0.014220
v -0.029648 0.147327 0.007916
v -0.006155 0.146409 0.007916
v -0.025535 0.157910 0.014220
v -0.009110 0.157718 0.014220
v -0.025535 0.157910 0.007916
v -0.009110 0.157718 0.007916
v -0.020379 0.163095 0.014220
v -0.014188 0.162903 0.014220
v -0.020379 0.163095 0.007916
v -0.014188 0.162903 0.007916
v -0.006898 0.138537 0.014220
v -0.031303 0.138101 0.007916
v -0.006898 0.138537 0.007916
v -0.031303 0.138101 0.014220
v -0.003252 0.175749 0.010411
v -0.010545 0.232261 0.010959
v -0.008937 0.219906 0.010931
v -0.005456 0.193279 0.010977
v -0.007131 0.205988 0.010862
v -0.011669 0.240795 0.010888
v -0.013145 0.243670 0.011117
v -0.004229 0.183910 0.011011
v 0.001881 0.168993 0.010411
v -0.008999 0.175146 0.010411
vn -0.0000 -0.0000 1.0000
vn -0.0324 -0.0023 0.9995
vn -0.0328 -0.0161 0.9993
vn -0.0350 -0.0000 0.9994
vn -0.0374 -0.0057 0.9993
vn -0.0515 0.0233 0.9984
vn -0.1174 0.0191 0.9929
vn -0.0000 -0.0000 -1.0000
vn -0.0324 -0.0023 -0.9995
vn -0.0328 -0.0161 -0.9993
vn -0.0350 -0.0000 -0.9994
vn -0.0374 -0.0057 -0.9993
vn -0.0467 -0.0206 -0.9987
vn -0.1072 -0.0034 -0.9942
vn 0.4624 -0.8867 -0.0000
vn -0.9645 0.2640 -0.0000
vn 0.8109 -0.5851 -0.0000
vn -0.8624 0.5062 -0.0000
vn 0.8350 -0.5502 -0.0000
vn -0.9298 0.3682 -0.0000
vn 0.9403 -0.3403 -0.0000
vn -0.8451 -0.5346 -0.0000
vn 0.9975 0.0712 -0.0000
vn 0.8979 0.4402 -0.0000
vn 0.8863 0.4631 -0.0000
vn 0.9156 0.4021 -0.0000
vn 0.9245 0.3812 -0.0000
vn 0.5949 0.8038 -0.0000
vn 0.8488 0.5287 -0.0000
vn -0.8380 0.5457 -0.0000
vn -0.0006 0.0065 1.0000
vn -0.0000 0.0063 -1.0000
vn 0.0049 -0.0154 -0.9999
vn 0.0006 -0.0067 -1.0000
vn -0.0000 0.0641 -0.9979
vn 0.0114 -0.0906 -0.9958
vn 0.0043 0.0263 -0.9996
vn 0.0110 0.0211 -0.9997
vn -0.7350 -0.6781 -0.0000
vn 0.0043 0.0263 0.9996
vn -0.0000 0.0641 0.9979
vn 0.0049 -0.0154 0.9999
vn 0.0110 0.0211 0.9997
vn 0.0009 -0.0068 1.0000
vn -0.0000 0.0293 -0.9996
vn -0.0000 0.0293 0.9996
vn 0.0114 -0.0906 0.9958
vn -1.0000 -0.0002 -0.0000
vn 1.0000 -0.0001 -0.0000
vn 0.9999 -0.0135 -0.0000
vn -1.0000 -0.0042 -0.0000
vn 0.9971 -0.0767 -0.0000
vn -0.9661 -0.2580 -0.0000
vn -0.9938 -0.1113 -0.0000
vn 0.9952 0.0979 -0.0000
vn -0.9821 -0.1885 -0.0000
vn 0.9966 0.0825 -0.0000
vn -0.9975 0.0700 -0.0000
vn 0.9978 -0.0664 -0.0000
vn -0.9423 0.3348 -0.0000
vn 0.9368 -0.3498 -0.0000
vn -0.9265 0.3763 -0.0000
vn 0.6924 -0.7215 -0.0000
vn 0.9979 -0.0654 -0.0000
vn 0.0002 -0.0082 -1.0000
vn -0.8988 -0.4384 -0.0000
vn 0.9675 0.2529 -0.0000
vn -0.9843 0.1766 -0.0000
vn 0.9956 -0.0941 -0.0000
vn -0.9321 0.3623 -0.0000
vn 0.0310 0.9995 -0.0000
vn 0.7145 0.6996 -0.0000
vn -0.7091 0.7051 -0.0000
vn -0.9999 -0.0168 -0.0000
vn 0.0002 -0.0082 1.0000
vn -0.0355 0.0010 -0.9994
vn -0.0508 0.0176 -0.9986
vn 0.0116 0.1478 -0.9889
vn -0.0990 -0.0213 -0.9949
vn -0.0320 -0.0123 -0.9994
vn -0.0000 1.0000 -0.0000
vn -0.0353 -0.0090 -0.9993
vn 0.0116 0.1478 0.9889
vn -0.0320 -0.0123 0.9994
vn -0.0353 -0.0090 0.9993
vn -0.0355 0.0010 0.9994
vn -0.0508 0.0176 0.9986
vn -0.0910 -0.0389 0.9951
vn -0.1881 -0.0547 0.9806
vn -0.0107 0.0720 -0.9973
vn -0.0309 -0.0077 -0.9995
vn -0.0354 -0.0137 -0.9993
vn -0.0357 0.0004 -0.9994
vn -0.0485 -0.0041 -0.9988
vn -0.1459 0.0041 -0.9893
vn -0.0000 0.0063 1.0000
vn -0.0006 0.0065 -1.0000
vn 0.0005 -0.0208 -0.9998
vn 0.0009 -0.0068 -1.0000
vn -0.0169 0.0536 -0.9984
vn -0.0194 -0.1181 -0.9928
vn 0.0161 0.0310 -0.9994
vn 0.0250 0.0230 -0.9994
vn 0.0161 0.0309 0.9994
vn -0.0169 0.0536 0.9984
vn 0.0005 -0.0208 0.9998
vn 0.0250 0.0230 0.9994
vn 0.0006 -0.0067 1.0000
vn -0.0194 -0.1181 0.9928
vn 0.0007 -0.0088 -1.0000
vn 0.0007 -0.0088 1.0000
vn -0.0350 0.0004 -0.9994
vn -0.0365 -0.0025 -0.9993
vn 0.0410 0.0781 -0.9961
vn -0.0515 0.0233 -0.9984
vn -0.0341 -0.0081 -0.9994
vn -0.1174 0.0191 -0.9929
vn -0.0322 -0.0133 -0.9994
vt 0.446272 0.650886
vt 0.446085 0.668540
vt 0.446068 0.664096
vt 0.446418 0.656368
vt 0.446165 0.678298
vt 0.446563 0.671326
vt 0.446501 0.664612
vt 0.446619 0.682601
vt 0.446202 0.684963
vt 0.446608 0.694278
vt 0.446133 0.692793
vt 0.446482 0.712779
vt 0.446079 0.702855
vt 0.446386 0.725968
vt 0.446040 0.713860
vt 0.446283 0.742898
vt 0.446048 0.733124
vt 0.446139 0.749522
vt 0.446087 0.741367
vt 0.446228 0.752480
vt 0.446190 0.755171
vt 0.446254 0.678969
vt 0.446343 0.679639
vt 0.446327 0.688715
vt 0.446308 0.699134
vt 0.446283 0.713266
vt 0.446255 0.728745
vt 0.446230 0.742484
vt 0.446212 0.751974
vt 0.446217 0.753711
vt 0.211711 0.481329
vt 0.210685 0.457602
vt 0.211991 0.458568
vt 0.210353 0.481329
vt 0.209810 0.531963
vt 0.211747 0.519526
vt 0.210343 0.515980
vt 0.211119 0.439531
vt 0.211711 0.498391
vt 0.210352 0.498391
vt 0.212096 0.430871
vt 0.212177 0.440599
vt 0.211623 0.420737
vt 0.211055 0.432236
vt 0.210876 0.415009
vt 0.210712 0.424519
vt 0.210427 0.418904
vt 0.211870 0.532344
vt 0.211870 0.532344
vt 0.211994 0.547471
vt 0.208983 0.545518
vt 0.211806 0.575189
vt 0.212185 0.563602
vt 0.212089 0.555537
vt 0.209175 0.564543
vt 0.208963 0.555090
vt 0.209702 0.575385
vt 0.211155 0.580502
vt 0.210362 0.580698
vt 0.456361 0.765142
vt 0.456202 0.754846
vt 0.456208 0.768171
vt 0.456343 0.774646
vt 0.456237 0.773873
vt 0.456415 0.737453
vt 0.456322 0.734858
vt 0.456271 0.740274
vt 0.456275 0.779514
vt 0.456330 0.781210
vt 0.456401 0.744660
vt 0.456231 0.747234
vt 0.456313 0.783421
vt 0.456382 0.754436
vt 0.446422 0.672126
vt 0.456426 0.731176
s 0
usemtl Texture_Map
f 199/129/257 202/130/257 200/131/257
f 201/132/257 204/133/257 202/130/257
f 205/134/257 204/133/257 203/135/257
f 207/136/257 206/137/257 205/134/257
f 209/138/258 208/139/258 207/136/258
f 211/140/259 210/141/259 209/138/259
f 213/142/260 212/143/260 211/140/260
f 215/144/261 214/145/261 213/142/261
f 215/144/262 218/146/262 216/147/262
f 217/148/263 220/149/263 218/146/263
f 221/129/264 224/130/264 223/132/264
f 223/132/264 226/133/264 225/135/264
f 228/137/264 302/150/264 226/133/264
f 293/151/264 229/136/264 227/134/264
f 300/152/265 230/138/265 229/136/265
f 296/153/266 231/140/266 230/138/266
f 297/154/267 232/142/267 231/140/267
f 295/155/268 233/144/268 232/142/268
f 294/156/269 234/148/269 233/144/269
f 298/157/270 235/158/270 234/148/270
f 199/129/271 223/132/271 201/132/271
f 200/131/272 224/130/272 222/131/272
f 201/132/273 225/135/273 203/135/273
f 202/130/274 226/133/274 224/130/274
f 205/134/275 225/135/275 227/134/275
f 206/137/276 226/133/276 204/133/276
f 205/134/277 229/136/277 207/136/277
f 206/137/278 208/139/278 228/137/278
f 207/136/279 230/138/279 209/138/279
f 209/138/280 231/140/280 211/140/280
f 211/140/281 232/142/281 213/142/281
f 213/142/282 233/144/282 215/144/282
f 215/144/283 234/148/283 217/148/283
f 220/149/284 235/158/284 299/149/284
f 217/148/285 235/158/285 219/158/285
f 218/146/286 220/149/286 236/149/286
f 238/159/287 245/160/287 246/161/287
f 256/159/288 263/160/288 255/162/288
f 261/163/289 260/164/289 259/165/289
f 264/161/290 265/166/290 263/160/290
f 259/165/291 258/167/291 257/168/291
f 268/169/292 265/166/292 266/170/292
f 270/171/293 267/172/293 268/169/293
f 272/173/294 269/174/294 270/171/294
f 271/175/295 254/173/295 253/175/295
f 249/172/296 252/171/296 250/169/296
f 240/167/297 241/165/297 239/168/297
f 242/164/298 243/163/298 241/165/298
f 251/174/299 254/173/299 252/171/299
f 246/161/300 247/166/300 248/170/300
f 255/162/301 258/167/301 256/159/301
f 237/162/302 240/167/302 239/168/302
f 247/166/303 250/169/303 248/170/303
f 257/168/304 237/162/304 239/168/304
f 238/159/305 258/167/305 240/167/305
f 240/167/306 260/164/306 242/164/306
f 241/165/307 257/168/307 239/168/307
f 242/164/308 262/176/308 244/177/308
f 241/165/309 261/163/309 259/165/309
f 245/160/310 255/162/310 263/160/310
f 246/161/311 256/159/311 238/159/311
f 247/166/312 263/160/312 265/166/312
f 248/170/313 264/161/313 246/161/313
f 249/172/314 265/166/314 267/172/314
f 250/169/315 266/170/315 248/170/315
f 251/174/316 267/172/316 269/174/316
f 252/171/317 268/169/317 250/169/317
f 253/175/318 269/174/318 271/175/318
f 254/173/319 270/171/319 252/171/319
f 276/178/320 244/177/320 262/176/320
f 261/163/321 276/178/321 262/176/321
f 243/163/322 275/179/322 261/163/322
f 284/180/323 278/181/323 280/181/323
f 291/182/264 279/183/264 280/181/264
f 277/183/324 290/184/324 292/184/324
f 291/182/325 278/181/325 289/182/325
f 289/182/257 277/183/257 292/184/257
f 278/181/257 281/185/257 277/183/257
f 280/181/264 283/185/264 284/180/264
f 277/183/326 283/185/326 279/183/326
f 288/186/327 285/187/327 286/186/327
f 284/180/328 286/186/328 282/180/328
f 281/185/257 286/186/257 285/187/257
f 283/185/329 285/187/329 287/187/329
f 283/185/264 288/186/264 284/180/264
f 274/178/257 292/184/257 273/179/257
f 276/178/325 289/182/325 274/178/325
f 292/184/330 275/179/330 273/179/330
f 276/178/264 290/184/264 291/182/264
f 274/178/331 243/163/331 244/177/331
f 295/188/332 212/189/332 214/190/332
f 294/191/333 214/190/333 216/192/333
f 300/193/334 228/194/334 208/195/334
f 294/191/335 218/196/335 298/197/335
f 296/198/336 208/195/336 210/199/336
f 298/197/337 236/200/337 299/200/337
f 297/201/338 210/199/338 212/189/338
f 301/202/264 302/150/264 293/151/264
f 227/134/264 301/202/264 293/151/264
f 226/133/264 301/202/264 225/135/264
f 199/129/257 201/132/257 202/130/257
f 201/132/257 203/135/257 204/133/257
f 205/134/257 206/137/257 204/133/257
f 207/136/339 208/139/339 206/137/339
f 209/138/340 210/141/340 208/139/340
f 211/140/341 212/143/341 210/141/341
f 213/142/342 214/145/342 212/143/342
f 215/144/343 216/147/343 214/145/343
f 215/144/344 217/148/344 218/146/344
f 217/148/345 219/158/345 220/149/345
f 221/129/264 222/131/264 224/130/264
f 223/132/264 224/130/264 226/133/264
f 228/137/264 293/151/264 302/150/264
f 293/151/346 300/152/346 229/136/346
f 300/152/347 296/153/347 230/138/347
f 296/153/348 297/154/348 231/140/348
f 297/154/349 295/155/349 232/142/349
f 295/155/350 294/156/350 233/144/350
f 294/156/335 298/157/335 234/148/335
f 298/157/351 299/149/351 235/158/351
f 199/129/271 221/129/271 223/132/271
f 200/131/272 202/130/272 224/130/272
f 201/132/273 223/132/273 225/135/273
f 202/130/274 204/133/274 226/133/274
f 205/134/275 203/135/275 225/135/275
f 206/137/276 228/137/276 226/133/276
f 205/134/277 227/134/277 229/136/277
f 207/136/279 229/136/279 230/138/279
f 209/138/280 230/138/280 231/140/280
f 211/140/281 231/140/281 232/142/281
f 213/142/282 232/142/282 233/144/282
f 215/144/283 233/144/283 234/148/283
f 220/149/284 219/158/284 235/158/284
f 299/149/337 236/149/337 220/149/337
f 217/148/285 234/148/285 235/158/285
f 238/159/352 237/162/352 245/160/352
f 256/159/353 264/161/353 263/160/353
f 261/163/354 262/176/354 260/164/354
f 264/161/355 266/170/355 265/166/355
f 259/165/356 260/164/356 258/167/356
f 268/169/357 267/172/357 265/166/357
f 270/171/358 269/174/358 267/172/358
f 272/173/359 271/175/359 269/174/359
f 271/175/295 272/173/295 254/173/295
f 249/172/360 251/174/360 252/171/360
f 240/167/361 242/164/361 241/165/361
f 242/164/362 244/177/362 243/163/362
f 251/174/363 253/175/363 254/173/363
f 246/161/364 245/160/364 247/166/364
f 255/162/301 257/168/301 258/167/301
f 237/162/302 238/159/302 240/167/302
f 247/166/365 249/172/365 250/169/365
f 257/168/304 255/162/304 237/162/304
f 238/159/305 256/159/305 258/167/305
f 240/167/306 258/167/306 260/164/306
f 241/165/307 259/165/307 257/168/307
f 242/164/308 260/164/308 262/176/308
f 241/165/309 243/163/309 261/163/309
f 245/160/310 237/162/310 255/162/310
f 246/161/311 264/161/311 256/159/311
f 247/166/312 245/160/312 263/160/312
f 248/170/313 266/170/313 264/161/313
f 249/172/314 247/166/314 265/166/314
f 250/169/315 268/169/315 266/170/315
f 251/174/316 249/172/316 267/172/316
f 252/171/317 270/171/317 268/169/317
f 253/175/318 251/174/318 269/174/318
f 254/173/319 272/173/319 270/171/319
f 276/178/320 274/178/320 244/177/320
f 261/163/366 275/179/366 276/178/366
f 243/163/322 273/179/322 275/179/322
f 284/180/323 282/180/323 278/181/323
f 291/182/264 290/184/264 279/183/264
f 277/183/324 279/183/324 290/184/324
f 291/182/325 280/181/325 278/181/325
f 289/182/257 278/181/257 277/183/257
f 278/181/257 282/180/257 281/185/257
f 280/181/264 279/183/264 283/185/264
f 277/183/326 281/185/326 283/185/326
f 288/186/327 287/187/327 285/187/327
f 284/180/328 288/186/328 286/186/328
f 281/185/257 282/180/257 286/186/257
f 283/185/329 281/185/329 285/187/329
f 283/185/264 287/187/264 288/186/264
f 274/178/257 289/182/257 292/184/257
f 276/178/325 291/182/325 289/182/325
f 292/184/330 290/184/330 275/179/330
f 276/178/264 275/179/264 290/184/264
f 274/178/367 273/179/367 243/163/367
f 295/188/368 297/201/368 212/189/368
f 294/191/369 295/188/369 214/190/369
f 300/193/370 293/203/370 228/194/370
f 294/191/371 216/192/371 218/196/371
f 296/198/372 300/193/372 208/195/372
f 298/197/373 218/196/373 236/200/373
f 297/201/374 296/198/374 210/199/374
f 227/134/264 225/135/264 301/202/264
f 226/133/264 302/150/264 301/202/264
