# Blender 4.4.0
# www.blender.org
mtllib Tool_02_Tool_Box_Closed_01.mtl
o Tool_02_Tool_Box_Closed_01
v -0.335000 0.000000 0.141848
v 0.335000 0.000000 0.141848
v -0.335000 0.000000 -0.141848
v 0.335000 0.000000 -0.141848
v -0.335000 0.151185 0.141848
v -0.335000 0.151185 -0.141848
v 0.335000 0.151185 -0.141848
v 0.335000 0.151185 0.141848
v -0.335000 0.155731 0.141848
v -0.335000 0.155731 -0.141848
v 0.335000 0.155731 -0.141848
v 0.335000 0.155731 0.141848
v -0.335000 0.252736 -0.082733
v -0.335000 0.193514 -0.141848
v -0.335000 0.193514 0.141848
v -0.335000 0.252736 0.082733
v 0.335000 0.252736 0.082733
v 0.335000 0.193514 0.141848
v 0.335000 0.193514 -0.141848
v 0.335000 0.252736 -0.082733
v -0.332869 0.151185 0.140946
v -0.332869 0.151185 -0.140946
v 0.332869 0.151185 -0.140946
v 0.332869 0.151185 0.140946
v -0.332869 0.155731 0.140946
v -0.332869 0.155731 -0.140946
v 0.332869 0.155731 -0.140946
v 0.332869 0.155731 0.140946
v -0.002381 0.121381 0.142441
v -0.002381 0.117690 0.148823
v -0.002381 0.110308 0.148823
v -0.002381 0.106617 0.142441
v 0.001386 0.121381 0.142441
v 0.001386 0.117690 0.148823
v 0.001386 0.110308 0.148823
v 0.001386 0.106617 0.142441
v -0.002381 0.119838 0.142441
v -0.002381 0.116919 0.147489
v -0.002381 0.111079 0.147489
v -0.002381 0.108160 0.142441
v 0.001386 0.119838 0.142441
v 0.001386 0.116919 0.147489
v 0.001386 0.111079 0.147489
v 0.001386 0.108160 0.142441
v -0.011504 0.153476 0.140583
v 0.011504 0.153476 0.140583
v -0.011504 0.176904 0.141848
v 0.011504 0.176904 0.141848
v -0.011504 0.133437 0.141848
v 0.011504 0.133437 0.141848
v -0.011504 0.176904 0.142340
v -0.011504 0.153476 0.143219
v 0.011504 0.153476 0.143219
v 0.011504 0.176904 0.142340
v -0.011504 0.133437 0.144484
v 0.011504 0.133437 0.144484
v -0.016684 0.150922 0.141700
v 0.016866 0.150922 0.141700
v -0.016432 0.136730 0.141652
v 0.016432 0.136730 0.141652
v -0.007842 0.097969 0.141652
v 0.007842 0.097969 0.141652
v -0.016684 0.150922 0.142472
v 0.016866 0.150922 0.142472
v -0.016432 0.136730 0.142520
v 0.016432 0.136730 0.142520
v -0.007842 0.097969 0.142520
v 0.007842 0.097969 0.142520
v -0.009504 0.139487 0.142927
v 0.008946 0.139487 0.142927
v -0.004186 0.100235 0.147152
v 0.003628 0.100235 0.147152
v -0.008373 0.120157 0.145956
v 0.007815 0.120157 0.145956
v -0.005002 0.107494 0.147009
v 0.004445 0.107494 0.147009
v 0.001899 0.107494 0.147009
v 0.001899 0.120157 0.145956
v -0.002753 0.107494 0.147009
v -0.002753 0.120157 0.145956
v -0.009504 0.139554 0.143895
v 0.008946 0.139554 0.143895
v -0.004186 0.100302 0.148119
v 0.003628 0.100302 0.148119
v -0.008373 0.120224 0.146923
v 0.007815 0.120224 0.146923
v -0.005002 0.107561 0.147976
v 0.004445 0.107561 0.147976
v 0.001899 0.107561 0.147976
v 0.001899 0.120224 0.146923
v -0.002753 0.107561 0.147976
v -0.002753 0.120224 0.146923
v 0.120104 0.252736 0.021723
v 0.030533 0.291494 -0.021723
v 0.120104 0.252736 -0.021723
v 0.030533 0.291494 0.021723
v 0.082692 0.252736 -0.021723
v 0.082692 0.252736 0.021723
v 0.120104 0.260774 0.021723
v 0.030533 0.299533 -0.021723
v 0.120104 0.260774 -0.021723
v 0.030533 0.299533 0.021723
v 0.082692 0.260774 -0.021723
v 0.082692 0.260774 0.021723
v -0.120104 0.252736 0.021723
v -0.030533 0.291494 -0.021723
v -0.120104 0.252736 -0.021723
v -0.030533 0.291494 0.021723
v -0.082692 0.252736 -0.021723
v -0.082692 0.252736 0.021723
v -0.120104 0.260774 0.021723
v -0.030533 0.299533 -0.021723
v -0.120104 0.260774 -0.021723
v -0.030533 0.299533 0.021723
v -0.082692 0.260774 -0.021723
v -0.082692 0.260774 0.021723
vn -0.0000 -1.0000 -0.0000
vn 1.0000 -0.0000 -0.0000
vn -0.0000 -0.0000 1.0000
vn -0.0000 -0.0000 -1.0000
vn -1.0000 -0.0000 -0.0000
vn -0.0000 1.0000 -0.0000
vn -0.0000 0.7065 0.7077
vn -0.0000 0.7065 -0.7077
vn -0.0000 -0.8656 0.5007
vn -0.0000 0.8656 0.5007
vn -0.0000 0.8656 -0.5007
vn -0.0000 -0.8656 -0.5007
vn -0.0000 0.0375 0.9993
vn -0.0000 0.0630 0.9980
vn -0.0000 0.0034 1.0000
vn -0.9763 -0.2164 -0.0000
vn 0.9995 -0.0305 -0.0000
vn 0.9763 -0.2164 -0.0000
vn -0.9998 -0.0177 -0.0000
vn -0.0000 -0.1548 -0.9879
vn -0.0000 -0.0828 -0.9966
vn -0.0000 -0.0197 -0.9998
vn -0.0000 0.1548 0.9879
vn -0.0000 0.0828 0.9966
vn -0.0000 0.0197 0.9998
vn 0.9983 -0.0578 0.0040
vn -0.9666 -0.2558 0.0176
vn -0.0000 -0.9976 0.0685
vn -0.9983 -0.0578 0.0040
vn 0.9937 -0.1117 0.0077
vn 0.9666 -0.2558 0.0176
vn -0.0000 0.9976 -0.0685
vn -0.9937 -0.1117 0.0077
vn -0.5964 -0.8027 -0.0000
vn 0.5964 0.8027 -0.0000
vn 0.5964 -0.8027 -0.0000
vn -0.5964 0.8027 -0.0000
vt 0.199932 0.440020
vt 0.198855 0.440020
vt 0.198855 0.483044
vt 0.199932 0.483044
vt 0.199932 0.484338
vt 0.198855 0.495090
vt 0.198855 0.484338
vt 0.198855 0.511944
vt 0.199932 0.511944
vt 0.199932 0.495090
vt 0.199928 0.484338
vt 0.198859 0.484338
vt 0.198859 0.483044
vt 0.199928 0.483044
vt 0.576474 0.760006
vt 0.576681 0.757401
vt 0.576681 0.760006
vt 0.576474 0.767819
vt 0.576681 0.765215
vt 0.576681 0.767819
vt 0.576474 0.765215
vt 0.576474 0.760550
vt 0.576681 0.758490
vt 0.576474 0.758490
vt 0.576474 0.766730
vt 0.576681 0.764670
vt 0.576474 0.764670
vt 0.576681 0.760550
vt 0.576474 0.757401
vt 0.576681 0.766730
vt 0.575973 0.668213
vt 0.577238 0.684744
vt 0.575973 0.684744
vt 0.577238 0.654073
vt 0.577238 0.668213
vt 0.575973 0.654073
vt 0.575688 0.666411
vt 0.577508 0.656397
vt 0.577532 0.666411
vt 0.575702 0.656397
vt 0.577036 0.629046
vt 0.576174 0.629046
vt 0.576710 0.644703
vt 0.576454 0.644703
vt 0.576083 0.658342
vt 0.576330 0.635768
vt 0.576454 0.635768
vt 0.576850 0.635768
vt 0.576710 0.635768
vt 0.576375 0.630645
vt 0.576710 0.644749
vt 0.577097 0.658389
vt 0.576083 0.658389
vt 0.576330 0.635814
vt 0.576454 0.644749
vt 0.576145 0.644749
vt 0.576850 0.635814
vt 0.577035 0.644749
vt 0.576710 0.635814
vt 0.576454 0.635814
vt 0.576375 0.630692
vt 0.577035 0.644703
vt 0.576145 0.644703
vt 0.576805 0.630692
vt 0.576805 0.630645
vt 0.454777 0.667617
vt 0.454393 0.629625
vt 0.454777 0.675496
vt 0.455227 0.675496
vt 0.454393 0.637504
vt 0.455227 0.667617
vt 0.454117 0.637504
vt 0.454117 0.629625
vt 0.455611 0.629625
vt 0.455611 0.637504
vt 0.455886 0.637504
vt 0.455886 0.629625
vt 0.577097 0.658342
s 0
usemtl Texture_Map
f 3/1/1 2/2/1 1/1/1
f 4/2/2 8/3/2 2/2/2
f 2/2/3 5/4/3 1/1/3
f 3/1/4 7/3/4 4/2/4
f 1/1/5 6/4/5 3/1/5
f 10/5/4 19/6/4 11/7/4
f 17/8/6 13/9/6 16/9/6
f 12/7/3 15/10/3 9/5/3
f 20/8/2 17/8/2 12/7/2
f 18/6/7 16/9/7 15/10/7
f 14/10/8 20/8/8 19/6/8
f 16/9/5 13/9/5 10/5/5
f 11/7/1 26/11/1 10/5/1
f 12/7/1 27/12/1 11/7/1
f 6/4/6 23/13/6 7/3/6
f 7/3/6 24/13/6 8/3/6
f 10/5/1 25/11/1 9/5/1
f 9/5/1 28/12/1 12/7/1
f 5/4/6 22/14/6 6/4/6
f 8/3/6 21/14/6 5/4/6
f 23/13/2 28/12/2 24/13/2
f 24/13/3 25/11/3 21/14/3
f 21/14/5 26/11/5 22/14/5
f 22/14/4 27/12/4 23/13/4
f 31/15/9 36/16/9 35/17/9
f 29/18/10 34/19/10 33/20/10
f 31/15/3 34/19/3 30/21/3
f 39/22/11 44/23/11 40/24/11
f 37/25/12 42/26/12 38/27/12
f 38/27/4 43/28/4 39/22/4
f 37/25/5 30/21/5 29/18/5
f 43/28/2 34/19/2 35/17/2
f 38/27/5 31/15/5 30/21/5
f 44/23/2 35/17/2 36/16/2
f 31/15/5 40/24/5 32/29/5
f 34/19/2 41/30/2 33/20/2
f 52/31/13 54/32/13 51/33/13
f 52/31/14 56/34/14 53/35/14
f 48/32/2 53/35/2 46/35/2
f 47/33/5 52/31/5 51/33/5
f 50/34/2 53/35/2 56/34/2
f 47/33/6 54/32/6 48/32/6
f 49/36/5 52/31/5 45/31/5
f 50/34/1 55/36/1 49/36/1
f 63/37/15 66/38/15 64/39/15
f 65/40/3 68/41/3 66/38/3
f 61/42/16 65/40/16 59/40/16
f 62/41/1 67/42/1 61/42/1
f 58/39/17 66/38/17 60/38/17
f 57/37/6 64/39/6 58/39/6
f 60/38/18 68/41/18 62/41/18
f 59/40/19 63/37/19 57/37/19
f 78/43/20 80/44/20 69/45/20
f 75/46/21 80/44/21 79/47/21
f 78/43/21 76/48/21 77/49/21
f 71/50/22 79/47/22 77/49/22
f 90/51/23 82/52/23 81/53/23
f 87/54/24 92/55/24 85/56/24
f 90/51/24 88/57/24 86/58/24
f 89/59/25 91/60/25 83/61/25
f 74/62/26 82/52/26 86/58/26
f 75/46/27 85/56/27 73/63/27
f 78/43/28 92/55/28 80/44/28
f 73/63/29 81/53/29 69/45/29
f 76/48/30 84/64/30 72/65/30
f 79/47/2 92/55/2 91/60/2
f 76/48/31 86/58/31 88/57/31
f 77/49/5 90/51/5 78/43/5
f 72/65/28 83/61/28 71/50/28
f 79/47/32 89/59/32 77/49/32
f 75/46/33 83/61/33 87/54/33
f 96/66/34 97/67/34 98/67/34
f 102/68/6 112/69/6 114/69/6
f 103/70/35 102/68/35 104/70/35
f 106/71/4 100/68/4 94/66/4
f 101/72/6 104/70/6 99/72/6
f 94/66/4 103/70/4 97/67/4
f 104/70/3 96/66/3 98/67/3
f 103/70/4 95/73/4 97/67/4
f 99/72/3 98/67/3 93/73/3
f 106/71/1 96/66/1 108/71/1
f 96/66/3 114/69/3 108/71/3
f 101/72/2 93/73/2 95/73/2
f 109/74/36 108/71/36 110/74/36
f 114/69/37 115/75/37 116/75/37
f 116/75/6 113/76/6 111/76/6
f 106/71/4 115/75/4 112/69/4
f 108/71/3 116/75/3 110/74/3
f 107/77/4 115/75/4 109/74/4
f 110/74/3 111/76/3 105/77/3
f 105/77/5 113/76/5 107/77/5
f 3/1/1 4/2/1 2/2/1
f 4/2/2 7/3/2 8/3/2
f 2/2/3 8/3/3 5/4/3
f 3/1/4 6/4/4 7/3/4
f 1/1/5 5/4/5 6/4/5
f 10/5/4 14/10/4 19/6/4
f 17/8/6 20/8/6 13/9/6
f 12/7/3 18/6/3 15/10/3
f 18/6/2 12/7/2 17/8/2
f 12/7/2 11/7/2 20/8/2
f 11/7/2 19/6/2 20/8/2
f 18/6/7 17/8/7 16/9/7
f 14/10/8 13/9/8 20/8/8
f 14/10/5 10/5/5 13/9/5
f 10/5/5 9/5/5 16/9/5
f 9/5/5 15/10/5 16/9/5
f 11/7/1 27/12/1 26/11/1
f 12/7/1 28/12/1 27/12/1
f 6/4/6 22/14/6 23/13/6
f 7/3/6 23/13/6 24/13/6
f 10/5/1 26/11/1 25/11/1
f 9/5/1 25/11/1 28/12/1
f 5/4/6 21/14/6 22/14/6
f 8/3/6 24/13/6 21/14/6
f 23/13/2 27/12/2 28/12/2
f 24/13/3 28/12/3 25/11/3
f 21/14/5 25/11/5 26/11/5
f 22/14/4 26/11/4 27/12/4
f 31/15/9 32/29/9 36/16/9
f 29/18/10 30/21/10 34/19/10
f 31/15/3 35/17/3 34/19/3
f 39/22/11 43/28/11 44/23/11
f 37/25/12 41/30/12 42/26/12
f 38/27/4 42/26/4 43/28/4
f 37/25/5 38/27/5 30/21/5
f 43/28/2 42/26/2 34/19/2
f 38/27/5 39/22/5 31/15/5
f 44/23/2 43/28/2 35/17/2
f 31/15/5 39/22/5 40/24/5
f 34/19/2 42/26/2 41/30/2
f 52/31/13 53/35/13 54/32/13
f 52/31/14 55/36/14 56/34/14
f 48/32/2 54/32/2 53/35/2
f 47/33/5 45/31/5 52/31/5
f 50/34/2 46/35/2 53/35/2
f 47/33/6 51/33/6 54/32/6
f 49/36/5 55/36/5 52/31/5
f 50/34/1 56/34/1 55/36/1
f 63/37/15 65/40/15 66/38/15
f 65/40/3 67/42/3 68/41/3
f 61/42/16 67/42/16 65/40/16
f 62/41/1 68/41/1 67/42/1
f 58/39/17 64/39/17 66/38/17
f 57/37/6 63/37/6 64/39/6
f 60/38/18 66/38/18 68/41/18
f 59/40/19 65/40/19 63/37/19
f 80/44/20 73/63/20 69/45/20
f 69/45/20 70/78/20 78/43/20
f 70/78/20 74/62/20 78/43/20
f 75/46/21 73/63/21 80/44/21
f 78/43/21 74/62/21 76/48/21
f 76/48/22 72/65/22 77/49/22
f 72/65/22 71/50/22 77/49/22
f 71/50/22 75/46/22 79/47/22
f 81/53/23 85/56/23 92/55/23
f 90/51/23 86/58/23 82/52/23
f 81/53/23 92/55/23 90/51/23
f 87/54/24 91/60/24 92/55/24
f 90/51/24 89/59/24 88/57/24
f 83/61/25 84/64/25 89/59/25
f 84/64/25 88/57/25 89/59/25
f 91/60/25 87/54/25 83/61/25
f 74/62/26 70/78/26 82/52/26
f 75/46/27 87/54/27 85/56/27
f 78/43/28 90/51/28 92/55/28
f 73/63/29 85/56/29 81/53/29
f 76/48/30 88/57/30 84/64/30
f 79/47/2 80/44/2 92/55/2
f 76/48/31 74/62/31 86/58/31
f 77/49/5 89/59/5 90/51/5
f 72/65/28 84/64/28 83/61/28
f 79/47/32 91/60/32 89/59/32
f 75/46/33 71/50/33 83/61/33
f 96/66/34 94/66/34 97/67/34
f 102/68/6 100/68/6 112/69/6
f 103/70/35 100/68/35 102/68/35
f 106/71/4 112/69/4 100/68/4
f 101/72/6 103/70/6 104/70/6
f 94/66/4 100/68/4 103/70/4
f 104/70/3 102/68/3 96/66/3
f 103/70/4 101/72/4 95/73/4
f 99/72/3 104/70/3 98/67/3
f 106/71/1 94/66/1 96/66/1
f 96/66/3 102/68/3 114/69/3
f 101/72/2 99/72/2 93/73/2
f 109/74/36 106/71/36 108/71/36
f 114/69/37 112/69/37 115/75/37
f 116/75/6 115/75/6 113/76/6
f 106/71/4 109/74/4 115/75/4
f 108/71/3 114/69/3 116/75/3
f 107/77/4 113/76/4 115/75/4
f 110/74/3 116/75/3 111/76/3
f 105/77/5 111/76/5 113/76/5
